<?xml version="1.0" encoding="UTF-8"?>
<svg xmlns="http://www.w3.org/2000/svg" viewBox="-16.77 -34.28 240.07 141.02">
  <path d="m 212.39236,100.33353 c 2.74769,-4.84301 6.40026,-16.33461 7.86305,-24.7385 1.12423,-6.45882 1.34376,-20.76251 0.42773,-27.86856 -0.68298,-5.29813 -4.18599,-14.39227 -5.54383,-14.39227 -1.04315,0 -2.1995,1.83439 -5.85636,9.2904 -4.27448,8.71526 -4.71729,9.8308 -5.04496,12.70938 -0.14609,1.28332 -0.53753,3.0833 -0.86988,3.99996 -0.33234,0.91665 -0.78863,3.76663 -1.01396,6.33327 -0.22533,2.56664 -0.5388,5.71661 -0.6966,6.99993 -0.86657,7.04748 0.01,18.32436 1.57089,20.21201 0.35831,0.43327 1.26199,2.39643 2.00819,4.36255 1.54687,4.07578 3.23301,6.22814 4.66104,5.94981 0.53998,-0.10524 1.66259,-1.39133 2.49469,-2.85798 z m -2.54917,6.33327 c -0.45797,-0.73333 -1.18384,-1.33332 -1.61304,-1.33332 -0.81222,0 -3.90828,-3.36156 -4.36897,-4.74362 -0.14536,-0.4361 -0.99905,-0.87219 -1.89707,-0.96907 -0.89804,-0.09687 -1.93278,-0.21112 -2.29944,-0.25388 -0.36666,-0.04275 0.0608,-0.6833 0.94986,-1.42343 1.35716,-1.12979 1.51664,-1.62972 0.99401,-3.11582 -0.36621,-1.04132 -1.28589,-1.92671 -2.23375,-2.15047 -2.08676,-0.49261 -2.49782,-1.77617 -0.74681,-2.33192 2.52461,-0.80128 1.53843,-6.15669 -1.19214,-6.47384 -2.62182,-0.30454 -2.75063,-2.44181 -0.17817,-2.9563 1.98123,-0.39625 2.01797,-0.47447 1.64081,-3.49333 -0.24013,-1.92218 -0.86047,-3.43332 -1.64311,-4.00265 -1.64555,-1.19706 -1.60979,-2.75199 0.0633,-2.75199 1.4108,0 1.77258,-0.93213 2.31714,-5.97019 0.22353,-2.06801 0.0187,-3.30433 -0.67444,-4.07021 -1.15914,-1.28084 -0.69438,-3.0333 0.91614,-3.45445 1.24133,-0.32462 3.28069,-6.67376 2.2536,-7.01613 -1.74769,-0.58257 -2.98072,-2.05563 -2.58464,-3.0878 0.34038,-0.88701 0.70676,-0.97796 1.73114,-0.42973 2.13754,1.14398 2.62015,0.84883 4.42007,-2.70313 1.62399,-3.20479 1.65802,-3.46941 0.59703,-4.64179 -1.58163,-1.74769 -0.80492,-3.61176 1.08377,-2.60097 0.77017,0.41219 1.47176,0.65012 1.55909,0.52874 2.5958,-3.60744 2.8994,-4.34059 2.26607,-5.47229 -0.88604,-1.58326 0.38469,-3.0912 1.58957,-1.88631 0.616,0.61599 1.13099,0.47999 2.28396,-0.60318 1.54993,-1.45608 2.92066,-1.23067 2.92066,0.4803 0,2.02566 2.03826,5.00405 3.20129,4.67786 3.2991,-0.92527 5.46529,-1.13043 5.46529,-0.51761 0,1.22462 -2.07053,2.76723 -3.71425,2.76723 -0.89046,0 -1.61903,0.09656 -1.61903,0.21457 0,0.11801 0.46395,1.5762 1.03101,3.24043 0.6691,1.96369 1.60516,3.28745 2.66664,3.77109 1.99621,0.90953 2.1157,2.10643 0.25877,2.59203 -1.21059,0.31658 -1.32206,0.69144 -0.92308,3.10422 0.57566,3.48137 0.71093,3.6862 2.18051,3.30189 1.58677,-0.41495 3.23842,1.41433 1.98512,2.19861 -0.47614,0.29795 -1.3157,0.54965 -1.86569,0.55935 -0.73141,0.01288 -1.05364,0.94403 -1.19974,3.46688 -0.18106,3.12659 -0.0612,3.46959 1.2811,3.66663 2.25874,0.33155 2.22404,1.65627 -0.0553,2.11214 -1.78619,0.35724 -2.02602,0.67693 -2.02602,2.70065 0,1.26251 -0.17117,2.7415 -0.38036,3.28667 -0.26918,0.70146 0.22835,1.12492 1.70196,1.44857 2.47839,0.54435 2.3266,1.914 -0.24573,2.2173 -1.94156,0.22893 -2.08451,0.4512 -2.70631,4.20807 -0.38965,2.35415 -0.33321,2.43555 1.99084,2.87154 3.17465,0.59557 2.63616,1.98208 -0.87069,2.24185 -2.66233,0.19722 -2.77198,0.30112 -3.86969,3.66663 -0.62135,1.90502 -1.38742,3.79126 -1.70239,4.19167 -0.76171,0.96832 -0.0392,1.60531 1.82084,1.60531 0.83391,0 1.68879,0.27927 1.89975,0.62059 0.57185,0.92527 -1.05656,1.68955 -3.13527,1.47151 -1.47899,-0.15514 -1.96974,0.17015 -2.55148,1.69121 -0.52054,1.36104 -0.51497,2.21435 0.0201,3.07707 0.93993,1.51556 0.27374,2.64054 -1.27296,2.14963 -1.15435,-0.36637 -1.61166,0.33003 -2.94839,4.48985 -0.49654,1.54521 -1.54478,1.47727 -2.57143,-0.16666 z"/>
</svg>
