<?xml version="1.0" encoding="UTF-8"?>
<svg xmlns="http://www.w3.org/2000/svg" viewBox="22.83 6.89 81.89 93.21">
  <path d="M 52.547138,94.51014 C 52.429258,93.67971 52.537963,88.80031 52.788705,83.66703 53.039446,78.53375 53.339443,70.58382 53.455365,66.00054 L 53.66613,57.66729 46.6662,57.30171 C 40.59876,56.98484 39.266632,56.69446 36.6663,55.12194 31.839829,52.20319 29.476489,49.82782 27.93753,46.34875 26.685452,43.51821 26.553846,42.37894 26.939746,37.711179 27.184239,34.753846 27.974399,30.346346 28.695656,27.916735 30.845707,20.674122 37.722517,13.405382 42.754122,13.057035 43.945224,12.974573 45.021496,12.601902 45.145837,12.228879 45.279045,11.829255 46.390839,11.719943 47.852371,11.96277 49.216624,12.189435 51.455287,12.079482 52.827178,11.718429 55.065831,11.129264 55.861645,11.325309 60.590516,13.630897 L 65.859507,16.199824 71.571911,14.767111 C 82.816281,11.946941 88.965419,13.232194 95.784091,19.82778 99.896444,23.805584 101.00331,26.984179 100.43244,33.176443 99.782958,40.22154 98.191321,43.60538 92.999072,48.97985 90.432431,51.63656 86.682469,54.88615 84.665822,56.20115 80.770328,58.7413 72.815632,61.01477 70.155312,60.3483 67.917408,59.78765 67.274074,62.12735 66.584788,73.3338 65.92983,83.98212 64.913103,93.06113 64.256643,94.1233 63.358503,95.57653 62.941087,93.24396 63.430387,89.50609 63.706789,87.3946 64.108397,82.06704 64.322849,77.66709 64.82973,67.26732 66.363726,60.22939 68.416796,58.88417 69.254928,58.33501 70.250658,58.07728 70.629528,58.31143 72.186359,59.2736 79.475474,57.1062 83.210177,54.57061 92.169614,48.48777 95.62346,44.50113 97.27671,38.334149 98.431998,34.024688 98.168347,28.279705 96.681549,25.365337 95.155431,22.373897 90.711642,18.517423 86.947733,16.917985 83.392989,15.407431 77.016266,15.575297 71.351367,17.328557 67.782049,18.433246 66.43453,18.590711 65.380005,18.026346 62.259113,16.356096 54.049671,13.939647 50.198548,13.557685 39.078116,12.454739 30.672979,22.517679 30.467587,37.180318 30.405178,41.63556 30.67133,43.54805 31.602304,45.33408 34.718091,51.31155 39.856755,54.25799 48.972249,55.29376 52.398248,55.68305 55.323037,56.37184 55.8692,56.91801 56.689183,57.73799 56.683873,59.38657 55.829967,69.10003 55.286814,75.27856 54.797825,82.5837 54.743324,85.33368 54.62493,91.30764 54.090206,95.19881 53.322455,95.6733 53.013911,95.86399 52.665018,95.34057 52.547138,94.51014 z M 43.3329,46.37025 C 39.533996,44.29505 36.294959,36.766698 36.82549,31.245352 37.559258,23.608886 44.699419,19.380459 51.829829,22.359734 54.996663,23.682922 56.511085,25.085898 58.07036,28.141026 60.244641,32.401153 59.429912,37.892245 56.075396,41.58663 51.320781,46.82297 47.077662,48.41587 43.3329,46.37025 z M 53.580617,41.83411 C 56.138273,39.577497 56.899464,38.408255 57.320396,36.089554 58.036609,32.144296 57.105665,29.246587 54.222176,26.44586 49.674577,22.028787 42.636452,22.636326 40.527851,27.62797 38.618276,32.148462 40.151512,38.441788 44.232505,42.8341 46.835421,45.63559 49.608193,45.33898 53.580617,41.83411 z M 74.872045,46.61568 C 72.208285,44.90941 69.33264,39.284655 69.33264,35.780625 69.33264,32.157416 70.591948,28.292825 72.264351,26.783709 78.419292,21.229722 91.214684,24.650671 92.436005,32.176757 93.23535,37.102554 87.21035,45.89752 82.055642,47.32943 78.615916,48.28495 77.269116,48.15113 74.872045,46.61568 z M 84.697855,43.83183 C 87.514021,41.93402 89.21649,39.038661 89.728532,35.276278 90.2216,31.65333 88.750042,29.472758 84.386519,27.360412 81.536247,25.980621 81.340956,25.971097 78.039722,27.050877 76.166401,27.66361 74.04094,28.918482 73.316481,29.839483 71.041937,32.731094 71.99946,38.134544 75.62986,42.89424 77.186371,44.93494 77.897983,45.33408 79.979743,45.33408 81.458015,45.33408 83.373849,44.72408 84.697855,43.83183 z"/>
</svg>
