<?xml version="1.0" encoding="UTF-8"?>
<svg xmlns="http://www.w3.org/2000/svg" viewBox="118.98 49.54 67.01 68.81">
  <path d="M 148.60225,109.53686 C 149.92018,108.54875 151.23839,107.34877 151.53161,106.87022 152.30817,105.60284 153.26401,105.79018 155.76885,107.70072 158.10366,109.48157 158.6162,109.20572 157.10465,106.9818 156.61307,106.25856 155.66564,104.12469 154.99924,102.23988 L 153.7876,98.81296 155.95933,92.57331 C 157.15378,89.14151 159.18008,82.28371 160.46224,77.33376 161.74439,72.38381 163.05624,68.05715 163.37747,67.71895 164.39032,66.65258 168.69609,69.51668 170.38403,72.37955 171.2636,73.87136 172.17888,76.12134 172.41799,77.3795 172.65711,78.63767 173.12601,80.20136 173.46001,80.85438 173.79401,81.5074 174.23498,84.37034 174.43996,87.21648 174.86552,93.12566 173.74153,98.58664 170.97674,104.04269 170.03017,105.91065 169.36495,107.76672 169.49847,108.16727 170.0217,109.73697 175.17127,103.91973 177.24919,99.41163 181.10386,91.04881 181.40279,83.46121 178.18467,75.66711 176.4123,71.37455 169.83526,61.11061 168.01594,59.79809 167.40796,59.35948 166.7147,58.47562 166.47536,57.83396 165.85784,56.17843 164.79438,56.35499 159.10249,59.05806 L 154.06823,61.44881 150.36969,60.37362 C 148.33549,59.78226 145.65521,58.40642 144.41352,57.3162 143.17182,56.22598 141.7455,55.3368 141.24391,55.34024 139.39656,55.35291 133.43343,59.34744 130.80613,62.33222 126.69678,67.00068 125.18646,72.3332 124.9355,83.05976 124.7949,89.06932 125.01606,92.73177 125.64592,94.82467 126.8182,98.71983 128.26996,101.51363 129.74623,102.71539 130.80063,103.57372 130.86568,103.53635 130.4111,102.33351 127.18532,93.79808 127.44751,85.5534 131.18179,78.09851 135.46973,69.53831 140.22966,65.39915 142.55862,68.20538 143.67984,69.55637 145.34723,76.32767 146.36596,83.66703 148.76307,100.93694 148.73717,98.8733 146.61916,103.83794 144.59221,108.58915 144.15889,111.33342 145.43562,111.33342 145.85934,111.33342 147.28432,110.52497 148.60225,109.53686 z M 141.99858,113.02726 C 141.99858,112.49222 143.04848,109.11726 144.33169,105.52734 146.93586,98.24188 147.0495,97.16699 145.76461,91.97368 145.26929,89.97166 144.50616,86.53367 144.06879,84.33369 141.88979,73.37355 140.84597,69.66717 139.93828,69.66717 138.65655,69.66717 134.41489,76.09405 132.3759,81.12555 129.91121,87.20751 129.14268,92.94228 130.28432,96.73301 131.11426,99.48877 134.88982,107.1805 136.86941,110.14842 137.78569,111.52216 136.7449,112.93342 135.27679,112.3079 134.10225,111.80746 128.08694,104.12615 126.46003,101.04924 123.32735,95.12456 122.38236,91.66912 122.25327,85.66701 122.03038,75.30347 124.55316,66.67715 129.3102,61.53673 132.62595,57.95376 140.31026,52.66734 142.2027,52.66734 142.89934,52.66734 144.93372,53.98396 146.72355,55.59316 151.25929,59.67119 153.61932,59.92211 159.60059,56.96227 L 164.20273,54.68489 166.60052,56.11553 C 171.80168,59.2188 177.16144,65.91549 180.76398,73.8119 182.53547,77.69483 182.83261,79.13442 182.8669,84.00036 182.94689,95.3529 177.62877,106.17476 169.74885,110.6943 164.04399,113.96633 163.40473,113.34018 166.99833,108.00012 168.28165,106.09311 169.33349,104.18798 169.33575,103.7665 169.33801,103.34502 169.76062,102.19366 170.27489,101.20793 170.78917,100.2222 171.58052,96.77223 172.03345,93.54134 172.79629,88.09993 172.74855,87.24935 171.38582,82.00038 169.83136,76.01295 167.39558,71.09016 165.65744,70.42318 164.51876,69.98622 164.50873,70.00521 163.06313,75.33378 162.51604,77.35043 160.59984,83.32367 158.80493,88.60765 L 155.54144,98.2149 156.79097,101.60752 C 157.47821,103.47347 158.30629,105.60014 158.63116,106.33347 159.41645,108.1061 160.66506,112.05517 160.66506,112.76622 160.66506,113.97309 158.78995,113.23485 156.17913,111.00009 152.91946,108.20994 152.06805,108.1275 149.94804,110.39677 146.98242,113.5712 141.99858,115.22037 141.99858,113.02726 z"/>
</svg>
