<?xml version="1.0" encoding="UTF-8"?>
<svg xmlns="http://www.w3.org/2000/svg" viewBox="230.44 17.71 43.74 40.88">
  <path d="M 237.46875,55.34375 242.03125,55.34375 C 241.83124,54.294161 241.35247,53.061712 240.3125,51.53125 238.3306,48.614624 237.69951,46.164955 237.3125,40.15625 236.8689,33.268854 237.06774,32.013559 239.4375,27.625 243.71086,19.711174 240.91502,19.876669 236.25,27.8125 232.58093,34.054108 232.43965,44.186478 235.90625,50.875 236.76191,52.525916 237.24366,54.09447 237.46875,55.34375 z M 251.78125,22.09375 C 250.86393,22.498116 249.62826,24.88711 247.125,30.65625 243.90082,38.086839 243.22386,43.808713 245.03125,48.5625 246.56799,52.604448 247.52955,50.574344 247.15625,44.09375 246.88584,39.399311 247.42403,36.941869 250.0625,30.65625 251.83845,26.425421 252.98998,22.677479 252.625,22.3125 252.36361,22.05111 252.08702,21.958961 251.78125,22.09375 z M 260.46875,56.3125 264.9375,56.59375 C 265.24655,56.059668 265.76694,55.468998 266.5625,54.78125 270.50631,51.371909 272.1811,47.598394 271.0625,44.65625 269.57443,40.742317 268.53214,40.803072 264.21875,45.03125 261.96253,47.242901 259.16687,49 257.9375,49 255.81394,49 255.7628,48.698357 256.21875,41.59375 256.52115,36.881663 257.45619,32.647587 258.8125,29.90625 261.95814,23.548344 259.61723,22.985416 256.34375,29.3125 253.43999,34.924994 252.15614,41.465303 253.0625,46.15625 253.52455,48.547637 253.9448,50.802594 253.96875,51.15625 253.9927,51.509906 254.75376,52.059929 255.65625,52.40625 257.4277,53.086018 260.9213,51.186002 265.125,47.28125 266.89024,45.641535 268.00381,45.216458 268.46875,45.96875 269.33193,47.365405 264.40004,54 262.5,54 260.96301,54 260.27074,54.90045 260.46875,56.3125 z"/>
</svg>
