<?xml version="1.0" encoding="UTF-8"?>
<svg xmlns="http://www.w3.org/2000/svg" viewBox="1461.61 27.13 72.7 81.98">
  <path d="M1465.0579 84.75C1465.1671 82.391623 1477.5098 61.499766 1478.4983 62.0C1480.0649 62.792702 1479.2174 64.833447 1472.7881 75.75C1467.2123 85.21733 1464.9122 87.89523 1465.0579 84.75Z M1469.0 46.980128C1469.0 44.539012 1472.8034 38.385626 1476.3274 35.125403C1479.157 32.507626 1485.941 30.855579 1490.3135 31.719509C1491.9407 32.041015 1494.4293 33.895899 1496.2155 36.118555C1500.2467 41.134787 1502.131 41.616364 1507.0063 38.876312C1509.9505 37.221551 1511.3165 36.916504 1512.1317 37.731709C1513.6072 39.207235 1503.6812 44.350971 1501.0003 43.500082C1499.9679 43.172413 1497.6604 41.238347 1495.8726 39.202159C1492.7771 35.676558 1492.325 35.5 1486.3916 35.5C1479.302 35.5 1476.7739 37.160661 1472.3098 44.75C1469.4952 49.535136 1469.0 49.86879 1469.0 46.980128Z M1477.0 102.77374C1477.0 101.46912 1493.538 68.391745 1495.2816 66.20904C1495.8488 65.499012 1497.361 62.65592 1498.6419 59.891057C1501.3238 54.102517 1503.6108 54.017276 1501.577 59.781662C1500.4357 63.016414 1495.6774 72.181392 1486.4071 89.0C1485.0429 91.475 1482.7245 95.8625 1481.2551 98.75C1478.6948 103.78103 1477.0 105.38369 1477.0 102.77374Z M1499.0 101.45704C1499.0 101.06674 1500.2936 98.216742 1501.8747 95.123705C1520.646 58.402377 1526.4444 48.0 1528.1421 48.0C1528.614 48.0 1529.0 48.242155 1529.0 48.538123C1529.0 49.095148 1520.1247 66.23975 1513.4895 78.5C1511.4059 82.35 1507.8442 89.066409 1505.5745 93.425354C1502.0396 100.21436 1499.0 103.9276 1499.0 101.45704Z M1516.0 101.14977C1516.0 100.68214 1517.6875 97.524426 1519.75 94.132625C1521.8125 90.740824 1524.6346 86.09523 1526.0213 83.809082C1528.7337 79.33751 1531.0 77.820982 1531.0 80.477544C1531.0 82.561557 1518.3636 102.0 1517.0089 102.0C1516.454 102.0 1516.0 101.6174 1516.0 101.14977Z"/>
</svg>
