<?xml version="1.0" encoding="UTF-8"?>
<svg xmlns="http://www.w3.org/2000/svg" viewBox="255.56 12.75 57.03 100.16">
  <path d="M 287.125 17.34375 C 285.92933 17.522423 286.76674 19.746959 289.40625 22.90625 C 291.28424 25.154054 293.62392 29.054289 294.59375 31.59375 C 296.13436 35.627785 296.19134 36.962286 295.125 42.125 C 292.80534 53.355681 290.84855 57.848622 286.09375 62.78125 C 280.77733 68.296507 276.30966 71.571112 273.84375 71.875 C 273.72296 71.889886 273.54818 72 273.4375 72 C 271.63637 72 263.15495 67.404566 260.1875 64.96875 L 258.15625 69 C 258.63886 69 261.42011 70.35 264.34375 72 C 268.17977 74.164916 271.03219 75.00374 273.6875 74.75 C 275.91986 74.536677 278.02937 73.600839 280.40625 71.65625 C 282.66289 69.810026 285.41273 68.009327 286.53125 67.65625 C 288.71345 66.967407 292.48759 59.600315 295.84375 49.5 C 298.94984 40.152242 299.35879 35.796682 297.53125 31.375 C 295.55099 26.583811 289.92908 18.19483 288.28125 17.5625 C 287.78608 17.372486 287.40092 17.302518 287.125 17.34375 z M 282.34375 25.59375 C 281.4618 25.576644 282.25963 27.653346 284.6875 30.1875 C 286.1654 31.730096 287.7523 33 288.21875 33 C 289.47877 33 287.54598 29.823929 284.59375 27.0625 C 283.49393 26.033763 282.74464 25.601525 282.34375 25.59375 z M 278.03125 32 C 275.71097 32 277.69442 34.483775 282.0625 37.03125 C 285.35687 38.952533 286.57077 40.338781 286.8125 42.40625 C 287.21267 45.828655 284.87594 51.855258 280.90625 57.625 C 278.92779 60.500603 277.06497 61.766148 274.65625 61.90625 C 272.99332 62.002973 271.10958 61.644931 268.59375 60.59375 C 265.49362 59.298435 264.41352 58.289329 264.84375 57 C 264.89081 56.85898 264.85113 56.743018 264.9375 56.59375 L 260.46875 56.3125 C 260.54795 56.877264 260.74493 57.505269 261.125 58.21875 C 261.54462 59.006466 262.01283 59.697654 262.53125 60.3125 C 263.93297 61.974928 265.76756 63.066909 268.5 63.90625 C 270.92375 64.650768 272.90492 64.938369 274.65625 64.84375 C 278.694 64.625604 281.40654 62.040999 284.78125 55.9375 C 288.59981 49.031265 290.34745 43.503491 289.625 40.625 C 289.0736 38.428065 280.43068 32 278.03125 32 z M 310 76.34375 C 302.8337 87.927515 294 102.57187 294 103.3125 C 294 104.78763 297.10381 103.89463 297.6875 102.25 C 298.0291 101.2875 299.81511 98.363773 301.65625 95.75 C 303.49739 93.136227 305 90.779367 305 90.5 C 305 90.220632 306.49506 87.85686 308.3125 85.25 C 308.77606 84.585088 309.45454 83.188531 310 82.3125 L 310 76.34375 z M 286.125 83 C 285.56594 83 282.76958 87.6125 279.9375 93.25 C 277.10541 98.8875 274.40217 103.915 273.90625 104.4375 C 273.41034 104.96 273 105.9725 273 106.6875 C 273 108.13755 273.91667 108.35369 275.625 107.25 C 276.81447 106.48152 285.3854 89.148288 286.5 85.25 C 286.86586 83.970419 286.70308 83 286.125 83 z "/>
</svg>
