<?xml version="1.0" encoding="UTF-8"?>
<svg xmlns="http://www.w3.org/2000/svg" viewBox="36.68 17.9 35.32 90.12">
  <path d="M 69.4375 103.8125 L 69.5625 99.875 C 68.704211 100.24219 67.436204 99.895847 65.5 98.78125 C 61.859435 96.685515 51.512761 87.726982 50.84375 86.09375 C 50.48213 85.210942 50.395567 82.025 50.65625 79 C 50.916932 75.975 50.733584 67.586081 50.25 60.34375 C 49.477016 48.767267 49.068876 46.712747 46.84375 43.34375 C 42.623702 36.9543 41.656375 32.78179 43.40625 28.59375 C 44.456316 26.080586 45.516412 25 47 25 C 49.879621 25 52.746366 26.630424 54.03125 29.03125 C 55.614996 31.990508 58.981222 53.883158 58.5625 58.5 C 58.178077 62.738655 57.725699 76.672512 57.90625 78.6875 C 58.036431 80.140345 66.366762 88.150023 69.0625 89.40625 C 69.391904 89.559754 69.642393 89.746693 69.875 89.96875 L 70 85.34375 L 69.78125 84.84375 C 68.845429 85.421836 67.262011 83.824791 64.65625 81.15625 L 60.90625 77.3125 L 61 67.40625 C 61.146759 50.852243 60.125504 37.373823 58.40625 32.8125 C 56.359237 27.381603 50.636747 22 46.90625 22 C 43.872611 22 40.403643 25.589552 39.34375 29.8125 C 38.681317 32.451845 40.402537 38.496698 42.53125 41 C 43.232798 41.825 44.756851 44.251553 45.9375 46.375 C 47.944845 49.985294 48.084098 51.470437 47.9375 69.65625 L 47.78125 89.125 L 52.0625 92.8125 C 54.41131 94.842806 58.557817 98.222292 61.3125 100.3125 C 65.081812 103.1726 66.858643 103.92871 69.4375 103.8125 z "/>
</svg>
