<?xml version="1.0" encoding="UTF-8"?>
<svg xmlns="http://www.w3.org/2000/svg" viewBox="703.35 14.16 46.69 80.46">
  <path d="M 705.46875,78.75 706.53125,82.125 C 708.65168,81.01928 711.2235,78.86249 715.375,74.8125 L 724.03125,66.375 724.1875,53.625 724.34375,40.875 720.1875,37.0625 C 716.1116,33.336759 714.89546,31 717.0625,31 717.65481,31 719.50625,32.35 721.15625,34 724.59992,37.443676 725.70592,37.617629 728.5625,35.21875 733.85889,30.770977 734.6924,18 729.6875,18 729.1731,18 729.06203,19.933671 729.4375,22.4375 730.06207,26.602433 728.19475,33 726.34375,33 726.00467,33 723.30373,30.935037 720.34375,28.40625 717.38378,25.877463 714.33674,24.027389 713.59375,24.3125 712.85077,24.597611 712.03114,26.234862 711.78125,27.9375 711.26469,31.457049 713.15596,35.004644 717.875,39.4375 L 721,42.375 721,53.8125 721,65.21875 713.9375,72.125 C 710.04357,75.927331 707.1809,78.145563 705.46875,78.75 z M 736.4375,20 C 735.17529,20 734.98156,20.639563 735.5,23 736.49017,27.508231 735.22741,31.537681 731.75,34.9375 729.34618,37.287673 729.01548,38 730.34375,38 733.65445,38 736.88211,34.839407 738.46875,30.0625 740.23968,24.730736 739.28462,20 736.4375,20 z M 708.15625,87.3125 709.28125,90.96875 C 712.18606,88.682473 714.46363,87.003209 714.875,87 715.44842,86.995528 719.11519,83.878775 726.71875,76.9375 731.94397,72.16741 733.2772,68.55405 733.8125,57.53125 L 734.28125,47.5625 739.15625,41.71875 C 741.82866,38.507519 744.72818,34.484254 745.625,32.75 747.84289,28.461075 747.9144,22.476895 745.75,20.3125 743.25912,17.82162 741.49558,19.804908 743.09375,23.3125 744.8326,27.128863 742.24837,33.080108 735.5,40.8125 L 730,47.125 730,56.65625 C 730,63.359529 729.50962,67.202723 728.375,69.59375 727.48733,71.464371 726.47602,73 726.125,73 725.77399,73 723.28399,75.05924 720.5625,77.59375 717.841,80.128261 714.46483,82.945079 713.0625,83.84375 711.14339,85.073602 709.96141,85.889712 708.15625,87.3125 z"/>
</svg>
