<?xml version="1.0" encoding="UTF-8"?>
<svg xmlns="http://www.w3.org/2000/svg" viewBox="731.95 20.03 71.25 86.65">
  <path d="M 799.96875,81.375 C 799.06803,82.433334 797.3849,81.754359 794.09375,80.4375 789.49653,78.598056 788.19133,79.056987 780.8125,85.1875 L 776.125,89.0625 770.09375,87.03125 C 766.77246,85.912388 763.3855,85 762.5625,85 761.7395,85 760.61612,84.159456 760.0625,83.125 752.73519,69.433792 754.4451,47.372108 762.96875,45.5 769.00773,44.173616 773.7125,47.254385 774.65625,53.15625 775.3287,57.361509 778.07381,58.468547 779.875,55.25 780.78047,53.632009 781.03387,53.668058 783.25,55.75 784.56357,56.984038 785.93545,58 786.3125,58 787.82048,58 786.86006,54.500442 784.5,51.40625 783.125,49.603532 782,46.917947 782,45.4375 782,42.980031 782.26108,42.795966 785,43.34375 788.80282,44.104314 788.99508,42.257768 785.25,40.9375 783.7375,40.404293 781.4875,38.405469 780.25,36.5 777.50148,32.267908 777.48699,32 780,32 781.1,32 782,32.480041 782,33.0625 782,33.644959 782.45,33.839919 783,33.5 784.61951,32.499086 784.13337,30.154074 782.09375,29.0625 780.74922,28.34293 779.37501,28.447328 777.34375,29.40625 774.17241,30.903376 767.40902,30.908753 764.875,29.4375 763.97381,28.914267 763.05009,27.6 762.84375,26.5 762.3688,23.968043 760.60826,24.25383 760.1875,26.9375 759.85224,29.075888 756.44683,32 754.28125,32 753.57863,32 753,30.875 753,29.5 753,28.125 752.57077,27 752.03125,27 750.76081,27 749.63176,31.485122 750.28125,33.96875 750.97619,36.626233 748.01268,39.08399 745.0625,38.3125 742.77695,37.714815 742.75491,37.82315 743.4375,42.375 743.83225,45.007378 743.6392,49.452268 743,52.53125 741.88025,57.925044 740.50191,59.436683 739.375,56.5 739.05841,55.675 738.11616,55 737.28125,55 735.19335,55 736.32867,60.687749 739,63.53125 741.69005,66.394681 741.69594,71 739,71 736.16791,71 736.52695,73.060489 739.90625,76.25 741.81977,78.056056 743.53033,81.420551 744.96875,86.15625 746.9258,92.599409 747.01167,93.425245 745.59375,94.21875 744.00357,95.108663 743.35454,98.001353 744.75,98 745.1625,97.9996 749.29812,95.728711 753.9375,92.96875 L 762.375,87.96875 767.1875,89.5625 C 769.82915,90.439915 772.24858,91.554553 772.5625,92.0625 773.65626,93.83224 776.20658,92.975001 780.84375,89.25 783.41132,87.1875 785.99919,84.883524 786.59375,84.125 787.65656,82.769079 789.19845,82.823364 797.75,84.5625 798.71875,84.759514 799.33143,84.98554 799.8125,85.25 L 799.96875,81.375 z M 764.5,33.625 C 769.82374,33.169703 770.9243,33.390015 774.34375,35.75 778.95499,38.932523 780.02468,41.332325 779.28125,46.875 778.74316,50.886764 777,53.736726 777,50.59375 777,49.74897 775.875,48.307185 774.5,47.40625 773.125,46.505315 772,45.202901 772,44.5 772,42.870012 769.74307,42 765.46875,42 756.87848,42 752.82617,47.891809 752.1875,61.25 751.8258,68.815337 752.12755,71.139633 754.5625,78.625 L 757.375,87.28125 755.09375,89.125 C 750.65649,92.718076 749.70071,91.638395 746.40625,79 743.75118,68.814481 743.67872,66.759237 745.53125,56.3125 747.40291,45.757847 748.74456,42.277377 752.25,38.9375 756.32541,35.054576 758.44045,34.143224 764.5,33.625 z M 799.53125,91.6875 C 799.29212,91.637662 799.07601,91.604452 798.75,91.5 791.48974,89.173815 789.06158,89.624041 781,94.65625 778.06108,96.490786 776.77861,96.710395 773,96.03125 770.525,95.586408 767.13732,94.653399 765.46875,93.96875 762.64563,92.810365 762.0381,92.980009 756.71875,96.5625 753.57482,98.679886 751,100.78544 751,101.21875 751,102.7385 753.6256,101.97228 758.03125,99.1875 L 762.5,96.375 767.125,98.125 C 773.06641,100.38255 778.64209,99.859165 783.5,96.5625 788.66567,93.056979 791.44666,92.497574 796.09375,94.03125 797.85849,94.613667 798.80289,95.070607 799.34375,95.71875 L 799.53125,91.6875 z"/>
</svg>
