<?xml version="1.0" encoding="UTF-8"?>
<svg xmlns="http://www.w3.org/2000/svg" viewBox="283 10.13 41.14 95.13">
  <path d="M291.90063 97.25C290.19369 92.778866 288.76364 76.97128 289.48067 70.5C290.27498 63.331184 293.44926 49.302845 295.09379 45.693499C296.163 43.346836 295.91017 42.704853 292.30288 38.606746C288.30205 34.061565 285.0 26.103989 285.0 21.00761C285.0 17.481696 287.21454 15.508886 289.68608 16.833038C291.92825 18.034301 298.86037 25.510528 301.28403 29.341319C302.35373 31.032069 303.65193 31.96381 304.48991 31.642246C305.41756 31.286273 305.70838 31.596377 305.34208 32.550928C303.98379 36.090582 299.84651 33.218615 291.66302 23.055352C289.1985 19.994611 287.76996 21.598245 289.01306 26.030108C290.05193 29.733815 291.78568 32.650683 296.35628 38.384354L299.21256 41.967464L297.48027 47.233732C296.52751 50.130179 295.31793 53.614329 294.79232 54.976287C293.27795 58.900334 291.91194 80.638193 292.99991 83.499756C294.22252 86.715459 295.68713 86.620161 300.0 83.044283L303.5 80.142369L303.61892 61.821184C303.71537 46.960891 303.99872 43.5 305.11892 43.5C306.16234 43.5 306.52363 45.33368 306.59667 51.0C306.64983 55.125 306.76233 63.333128 306.84667 69.240284L307.0 79.980568L311.75 83.465493C314.3625 85.382202 317.02578 86.961574 317.6684 86.975209C319.61111 87.016429 318.24049 58.259206 316.11102 54.299478C314.14689 50.647209 311.00004 43.340066 311.00122 42.434276C311.00189 41.920424 312.18338 40.15 313.62674 38.5C317.33452 34.261395 319.23175 29.331631 318.47725 25.896409C317.62646 22.022812 315.63116 22.242693 313.0 26.5C311.81028 28.425 310.42358 30.0 309.91844 30.0C308.52782 30.0 308.81823 28.395747 310.45471 27.037591C311.25479 26.373576 313.07376 23.843476 314.49686 21.415146C318.57433 14.45747 321.0 15.769467 321.0 24.932564C321.0 30.738669 319.44113 35.58084 316.38197 39.277078C313.97082 42.190365 314.05083 43.190308 317.11998 48.5C320.80759 54.879647 322.13868 63.512387 321.88267 79.388168C321.7185 89.568865 321.20004 95.397351 320.29381 97.25C319.55397 98.7625 318.755 100.0 318.51833 100.0C318.28165 100.0 315.79841 98.65 313.0 97.0C310.20159 95.35 307.11284 94.0 306.1361 94.0C305.15937 94.0 302.84812 95.35 301.0 97.0C296.68857 100.84924 293.31015 100.94206 291.90063 97.25Z M300.89073 93.490294C303.30563 91.570632 305.7005 90.0 306.21266 90.0C306.72482 90.0 309.0976 91.144965 311.48549 92.544366C314.2618 94.171388 316.06183 94.708971 316.47811 94.035418C317.78266 91.924609 315.83752 89.197946 310.78781 86.058874C305.05555 82.495507 303.98406 82.622166 297.4041 87.640946C294.0899 90.168811 293.3655 92.182957 294.60699 95.418213C295.44448 97.600679 295.89308 97.463045 300.89073 93.490294Z"/>
</svg>
