<?xml version="1.0" encoding="UTF-8"?>
<svg xmlns="http://www.w3.org/2000/svg" viewBox="564.11 10.9 63.56 99.32">
  <path d="M575.24042 99.433019C572.03474 95.012051 572.00776 94.8845 573.60848 91.718861C574.50367 89.948488 576.29448 87.085226 577.58805 85.356058L579.93999 82.212116L573.48293 75.856058C569.93155 72.360226 567.02005 68.790451 567.01294 67.923225C566.99882 66.202922 575.0029 57.0 576.51322 57.0C577.02595 57.0 579.09966 58.9125 581.12146 61.25C583.14325 63.5875 585.12253 65.182991 585.51985 64.795536C586.45298 63.885583 586.5117 50.102816 585.61275 42.991388C584.60911 35.051864 583.92953 34.346972 580.25754 37.436751C576.73792 40.398313 575.03751 40.587875 570.95034 38.47432C567.45106 36.664772 567.04215 33.076476 569.70007 27.502764C572.01185 22.654918 574.84417 22.132598 580.58303 25.495793L585.19805 28.200374L588.4323 25.065614C590.21114 23.341496 593.36795 21.461076 595.44743 20.886904C597.77787 20.243439 599.42107 19.105826 599.73079 17.921477C600.37101 15.473269 602.0 15.41441 602.0 17.839485C602.0 18.855369 603.17739 20.215426 604.62967 20.877126C606.78968 21.861295 607.56278 21.800663 608.95841 20.537641C611.3955 18.3321 612.13004 18.633679 611.40053 21.540295C610.96611 23.271176 611.33049 24.707701 612.54411 26.048743C614.20262 27.881372 614.49219 27.907525 616.7494 26.428546C619.79873 24.430546 620.72317 25.24532 618.78061 28.218792C616.64389 31.489445 618.36898 35.19648 621.64507 34.374234C624.23887 33.723232 624.77757 35.109781 622.62495 36.896301C621.67479 37.684866 621.40598 39.422188 621.755 42.518745C622.21306 46.582623 622.06172 47.0 620.13005 47.0C618.95852 47.0 617.20458 46.2125 616.23239 45.25C608.44231 37.537516 602.10515 35.066483 600.03518 38.934259C598.18046 42.399837 599.56573 58.721781 601.93122 61.27444C602.32593 61.700381 604.32287 60.912881 606.36885 59.52444C611.5503 56.008215 613.48574 56.307406 617.00747 61.169013C620.69374 66.25776 620.39971 67.564394 613.8645 75.135787C611.18902 78.23547 609.0 81.26621 609.0 81.870764C609.0 82.475319 610.35 85.163984 612.0 87.845576C615.70097 93.860419 615.72102 94.935038 612.19528 98.312909C608.4587 101.89278 606.76979 101.7042 603.36071 97.32644C597.87581 90.283043 594.78493 87.000058 593.64641 87.008371C593.01588 87.012975 590.21717 90.725475 587.42704 95.258371C581.31593 105.18659 579.79114 105.70893 575.24042 99.433019Z M583.43253 96.75C584.81732 94.9625 587.424 91.277601 589.22516 88.561335C591.02632 85.845069 593.07716 83.440182 593.78258 83.217142C594.488 82.994102 597.90398 85.779001 601.37365 89.405807C607.57109 95.883916 610.53158 97.384247 611.60374 94.590257C612.27229 92.848033 609.91675 88.139622 607.10238 85.592652C605.94607 84.546207 605.0 83.043047 605.0 82.252296C605.0 81.461545 607.475 78.079604 610.5 74.736871C616.08733 68.562671 616.99962 65.90063 614.60795 62.75C613.26046 60.974892 609.44338 60.342039 608.83333 61.792595C608.24063 63.201917 601.0649 67.158145 600.13915 66.585999C598.71745 65.707342 595.71525 47.159665 596.29504 42.837009C597.60845 33.044797 602.82229 31.449711 612.21186 37.967529C615.35338 40.148233 618.12451 41.607548 618.36993 41.210452C619.01765 40.162423 615.36166 33.016322 612.74295 30.211787C610.43514 27.740213 602.27875 22.561189 600.5 22.437935C598.04915 22.268109 591.44206 25.602031 588.84608 28.318482C587.28073 29.956462 586.0 31.39831 586.0 31.522588C586.0 31.646865 586.61414 33.492624 587.36474 35.624273C589.13257 40.644701 590.24731 57.090285 589.25348 63.488364C588.23821 70.024415 586.37606 70.309599 580.44019 64.838101L575.78574 60.547778L573.39287 63.329653C572.07679 64.859684 571.00745 66.648934 571.01655 67.305764C571.02566 67.962594 573.95066 71.4127 577.51655 74.972666C581.08245 78.532633 584.0 81.8269 584.0 82.29326C584.0 82.75962 582.1293 85.359724 579.84289 88.07127L575.68579 93.001352L577.5703 96.500676C578.60678 98.425304 579.78329 100.0 580.18477 100.0C580.58625 100.0 582.04774 98.5375 583.43253 96.75Z M579.19301 35.25C582.08712 31.880253 582.05341 30.174218 579.05046 28.035929C575.24943 25.329356 574.33165 25.457976 572.52568 28.95034C570.53826 32.793588 570.59855 34.666797 572.75 35.919901C575.35247 37.435703 577.50833 37.211551 579.19301 35.25Z"/>
</svg>
