<?xml version="1.0" encoding="UTF-8"?>
<svg xmlns="http://www.w3.org/2000/svg" viewBox="236.5 10.13 99.33 95.78">
  <path d="M 331.3125 50.25 L 326.875 53.15625 C 314.34294 61.364416 311.96387 61.647199 304.125 55.96875 C 299.37874 52.530579 299.19005 52.512091 295.375 54.5 C 292.74031 55.87286 292.42681 55.82356 291.65625 54.125 C 291.19552 53.109375 291.21229 50.324003 291.6875 47.90625 C 292.45315 44.01077 292.89608 43.456202 295.53125 43.15625 C 300.01408 42.645985 301.2814 41.13238 300.71875 36.9375 C 300.30686 33.866569 300.69818 32.853028 303.125 30.5625 C 305.51156 28.309976 306.01266 27.013915 306 23.15625 C 305.9761 15.875318 304.76186 14.861556 300.75 18.75 C 298.91233 20.531143 296.93342 22 296.375 22 C 295.81659 22 294.0808 20.65 292.5 19 C 288.80328 15.141456 286.02275 15.208225 282.0625 19.25 L 278.875 22.5 L 276.1875 19.25 C 272.28583 14.512822 270.27672 14.949836 269.40625 20.75 C 268.90989 24.057337 269.15884 26.801311 270.21875 29.75 C 271.50453 33.327075 271.53273 34.132915 270.375 35.09375 C 266.91095 37.968652 269.48006 40 276.59375 40 L 281 40 L 281 46.75 C 280.97891 56.044128 280.71234 56.270542 273.21875 53.84375 L 267 51.8125 L 262.4375 54.5 C 258.15268 57.011073 257.75214 57.05863 255.46875 55.5625 C 252.40924 53.557829 252.25149 52.763911 251.5 34.03125 C 251.1448 25.17713 250.41198 17.978734 249.78125 17.21875 C 247.51502 14.488108 244.56949 16.276071 242.71875 21.5 C 241.22824 25.707108 241.01401 28.957966 241.375 42 C 241.75478 55.720763 242.10785 58.245157 244.375 63.875 C 245.78363 67.37294 247.45922 70.86044 248.09375 71.625 C 249.99672 73.91794 254.33065 73.195312 259.46875 69.75 C 268.98338 63.370033 268.86601 63.411499 270.75 64.59375 C 271.71725 65.200721 272.90486 66.843635 273.40625 68.25 C 274.14917 70.333869 273.73763 71.712354 271.21875 75.65625 C 266.3965 83.206612 266.27541 85.154417 270.0625 91.25 C 271.85805 94.140065 273.93639 97.5125 274.6875 98.75 C 276.32145 101.44203 277.31685 101.55816 279.5625 99.3125 C 280.92936 97.945641 281.1358 96.463588 280.65625 91.5625 C 280.10479 85.92653 280.25113 85.270272 282.9375 82.03125 L 285.84375 78.53125 L 288 80.5 C 291.74332 83.887657 292.32292 85.819616 290.96875 90.65625 C 290.03949 93.975219 290.00363 95.687392 290.84375 97.53125 C 292.34136 100.81813 295.76457 100.80369 296.59375 97.5 C 296.93885 96.125 297.53446 95 297.90625 95 C 298.93238 95 302 89.422775 302 87.5625 C 302 86.661925 300.65 83.029129 299 79.5 C 295.44942 71.905786 295.44174 71.818163 297.96875 69.53125 C 299.86752 67.812893 300.11156 67.858418 304.8125 70.875 C 310.80061 74.717559 313.3623 74.769055 319.0625 71.21875 C 325.5732 67.163635 328.76517 65.376851 330.375 67.25 L 330.65625 66.65625 L 330.90625 60.25 C 330.67221 60.644994 330.45315 61.075062 330.15625 61.34375 C 329.15044 62.253994 327.99725 63 327.5625 63 C 327.12775 63 324.16889 64.575 321 66.5 C 317.83111 68.425 314.30962 70 313.15625 70 C 312.00288 70 308.57859 68.791729 305.5625 67.3125 C 300.74075 64.947691 299.79137 64.763566 297.65625 65.90625 C 296.32069 66.621017 294.64508 68.302871 293.9375 69.625 C 292.80852 71.734518 293.04917 72.961216 295.84375 79.75 C 297.59524 84.004832 298.99298 87.95 298.96875 88.5 C 298.94453 89.05 297.81603 90.850928 296.46875 92.5 L 294.03125 95.5 L 294.65625 88.90625 C 295.32284 81.767885 294.89936 81.005333 287.78125 75.875 L 285.09375 73.90625 L 280.53125 80.1875 C 278.02327 83.634207 276.21177 87.0614 276.5 87.8125 C 276.78822 88.5636 277.2769 90.382345 277.59375 91.84375 C 278.14886 94.40418 278.04383 94.349419 274.59375 90.75 C 272.62456 88.695577 271 86.068926 271 84.90625 C 271 83.743573 272.62112 80.195911 274.59375 77 L 278.1875 71.1875 L 276.15625 66.625 C 273.07905 59.668484 267.88549 59.130747 260.5 65 C 255.08915 69.300004 252.1113 69.870146 249.8125 67.03125 C 248.79832 65.778789 247.71706 63.567953 247.40625 62.125 C 247.09544 60.682047 246.34425 58.441123 245.71875 57.15625 C 244.39782 54.442875 244.07258 26.050317 245.3125 21.59375 C 246.91644 15.828778 247.98278 20.747555 248.5 36.375 C 248.88495 48.005733 249.43658 53.120577 250.625 55.625 C 252.43754 59.44465 252.47862 59.474216 256.125 60.34375 C 258.02401 60.796595 259.79536 60.262878 262.53125 58.40625 C 266.64423 55.61511 270.53461 55.669456 276.25 58.625 C 279.72699 60.423019 282.58407 59.669033 283.375 56.71875 C 284.35362 53.068386 284.08057 41.014957 282.96875 38.9375 C 282.33982 37.762347 280.86812 37.009303 279.21875 37 C 274.8273 36.975231 273.97763 35.942103 275.5 32.5 C 277.33548 28.349979 285.74573 17.985038 287.25 18.03125 C 290.2154 18.122349 297 31.640201 297 37.46875 C 297 39.638373 296.67134 39.806852 293.625 39.3125 C 291.76992 39.011462 290.02157 39.166273 289.71875 39.65625 C 289.41593 40.146227 288.87062 44.146189 288.53125 48.53125 C 288.05581 54.674471 288.25835 56.972879 289.375 58.5 C 290.81467 60.468866 290.83145 60.466036 294.71875 58.28125 C 298.06163 56.402445 298.84247 56.284671 300.0625 57.46875 C 302.62355 59.954321 311.24277 63.990661 313.90625 63.96875 C 315.33683 63.956981 319.60372 61.931981 323.40625 59.46875 C 327.19065 57.017271 330.63854 55.050354 331.125 55.03125 L 331.3125 50.25 z M 273.75 21.125 C 274.29144 21.066768 274.96145 21.730998 275.8125 23.09375 C 276.81459 24.698342 276.8484 25.496177 275.9375 26.59375 C 273.58624 29.426843 271.42607 27.467336 272.4375 23.4375 C 272.81263 21.942872 273.20856 21.183232 273.75 21.125 z M 302.84375 22 C 304.29089 22 304.33071 23.517643 302.96875 26.0625 C 301.79608 28.253641 298 28.708214 298 26.65625 C 298 25.055716 301.18348 22 302.84375 22 z "/>
</svg>
