<?xml version="1.0" encoding="UTF-8"?>
<svg xmlns="http://www.w3.org/2000/svg" viewBox="604 11.52 38.12 93.74">
  <path d="M615.08655 94.912554C612.28895 91.564459 610.00368 87.851959 610.00818 86.662554C610.01276 85.45239 611.97456 82.518197 614.46276 80.0C616.90828 77.525 618.9296 74.947874 618.95458 74.273053C618.97956 73.598232 617.89518 72.322199 616.54484 71.437423C613.42374 69.392402 609.0 61.904017 609.0 58.665735C609.0 56.837605 610.31146 55.245418 614.0 52.595468C616.75 50.61979 619.0 48.364979 619.0 47.584776C619.0 46.804574 616.075 43.357497 612.5 39.924606C608.925 36.491714 606.0 33.401101 606.0 33.056575C606.0 32.71205 609.5209 28.664742 613.82423 24.062558C620.55341 16.866042 621.98795 15.784789 624.07423 16.336853C626.3608 16.94192 636.41051 28.033953 638.80495 32.595394C640.11788 35.096555 638.93753 37.177831 632.26886 44.120245L627.83079 48.74049L630.78741 51.620245C632.41355 53.20411 634.77013 56.386943 636.02424 58.693207C638.24865 62.783811 638.26044 62.955095 636.50618 65.693207C635.51714 67.236943 633.21886 69.753597 631.39889 71.285771L628.08986 74.071541L632.04493 80.190807C636.04826 86.384735 636.803 89.631072 635.01599 92.970131C633.76748 95.302989 624.58368 101.0 622.07153 101.0C620.97191 101.0 618.03279 98.438539 615.08655 94.912554Z M621.92626 33.488672C621.83777 27.445106 621.32928 22.703506 620.72992 22.333084C619.33913 21.473527 610.99095 30.391693 611.03327 32.69179C611.05157 33.686306 611.83907 35.4 612.78327 36.5C614.70591 38.739888 620.9013 44.0 621.61681 44.0C621.87165 44.0 622.01091 39.269903 621.92626 33.488672Z M622.3521 62.580806C622.96531 54.603083 622.58429 50.962953 621.14301 51.029842C620.78936 51.046255 618.49198 52.79515 616.03774 54.916277C611.94613 58.452527 611.66974 58.979739 612.71022 61.263347C614.01209 64.120636 619.83813 71.0 620.95606 71.0C621.36795 71.0 621.99616 67.211362 622.3521 62.580806Z M621.39301 93.418213C622.30007 91.054444 622.12572 78.0 621.18709 78.0C620.39661 78.0 616.73137 81.735772 614.0972 85.226315C612.97732 86.71028 613.24181 87.517498 615.98124 90.976315C619.45889 95.367202 620.47003 95.823451 621.39301 93.418213Z M630.606 40.75C636.54681 34.310535 636.52735 34.382216 633.36328 30.593726C631.78848 28.708134 629.69149 26.003166 628.70332 24.582688C625.61717 20.146438 623.9189 21.21046 624.44604 27.25C624.69807 30.1375 624.92581 35.0875 624.95214 38.25C625.00858 45.030631 626.17928 45.548285 630.606 40.75Z M629.63197 92.918441C631.48438 91.773583 633.0 90.036912 633.0 89.059171C633.0 87.059489 626.75951 78.723723 625.38733 78.890513C624.193 79.035686 624.13089 95.0 625.32465 95.0C625.84126 95.0 627.77955 94.063298 629.63197 92.918441Z M630.3854 66.541104L634.16163 63.082208L632.33082 59.974017C630.26135 56.460674 627.22971 53.436952 626.50412 54.162542C625.72203 54.944633 624.21462 67.384162 624.73643 68.75C625.45579 70.632938 626.26258 70.317462 630.3854 66.541104Z"/>
</svg>
