<?xml version="1.0" encoding="UTF-8"?>
<svg xmlns="http://www.w3.org/2000/svg" viewBox="90.97 14.8 49.94 88.97">
  <path d="M104.83333 97.002112C104.65 96.453273 104.83235 90.265773 105.23855 83.252112C106.05085 69.226733 105.44296 59.587863 103.65707 58.175713C103.02068 57.6725 100.83786 56.961472 98.806362 56.595651C93.825079 55.698649 93.243332 53.332533 96.340672 46.567051C98.494556 41.862348 98.690366 40.580237 97.82857 36.824687C95.823997 28.089123 98.697742 18.844406 102.44981 21.958347C103.30242 22.665945 104.0 23.832646 104.0 24.551016C104.0 25.269386 104.73747 26.594612 105.63882 27.495964C107.15725 29.014392 107.54293 28.883224 110.88882 25.710468C116.45467 20.43263 117.6931 20.351846 122.09525 24.979465C124.1988 27.190759 126.59726 29.0 127.42515 29.0C128.25304 29.0 130.54417 27.583101 132.51654 25.851335C136.20118 22.616174 137.7781 22.804377 138.1297 26.521261C138.64161 31.932735 137.75975 35.027039 134.4823 39.319392C131.36603 43.400643 131.03816 44.386444 131.60924 47.957775C132.38192 52.789837 130.93613 55.0 127.00256 55.0C123.31916 55.0 123.0 56.919023 123.0 79.065983C123.0 95.545978 122.39041 99.723744 120.29196 97.625292C119.11556 96.448893 119.84023 54.897433 121.06284 53.42428C121.71297 52.640926 123.76479 52.0 125.62244 52.0C127.4801 52.0 129.0 51.57323 129.0 51.051622C129.0 50.530014 127.83426 46.367514 126.40948 41.801622C123.8524 33.607184 119.99349 25.732047 117.90173 24.439265C116.70765 23.701284 110.0 29.729985 110.0 31.541179C110.0 32.173044 109.05886 33.541745 107.90858 34.582736C105.36513 36.884523 99.254051 47.139599 98.401395 50.536849C97.819999 52.853318 98.026469 53.0 101.86854 53.0C105.14304 53.0 106.28518 53.505604 107.62302 55.547406C109.0946 57.793317 109.20967 60.189979 108.5953 75.797406C108.21203 85.533833 107.64751 94.5125 107.34082 95.75C106.76405 98.077219 105.41713 98.749802 104.83333 97.002112Z M105.0 32.5C105.0 30.906754 101.51382 27.819515 100.66885 28.664485C100.30098 29.032352 100.0 30.758333 100.0 32.5C100.0 34.241667 100.30098 35.967648 100.66885 36.335515C101.51382 37.180485 105.0 34.093246 105.0 32.5Z M132.76918 36.25C137.18588 29.875417 136.5973 27.075369 131.52066 30.310429C128.14578 32.461045 127.40149 34.276726 128.60699 37.418213C129.48028 39.693977 130.60091 39.379449 132.76918 36.25Z"/>
</svg>
