<?xml version="1.0" encoding="UTF-8"?>
<svg xmlns="http://www.w3.org/2000/svg" viewBox="328.38 13.48 41.08 91.67">
  <path d="M 331.3125 50.25 L 331.125 55.03125 C 331.12733 55.031158 331.15406 55 331.15625 55 C 332.47391 55 332.11619 58.207916 330.90625 60.25 L 330.65625 66.65625 L 330.375 67.25 C 331.88166 69.003096 332 73.962564 332 83.5625 C 332 93.723128 332.38756 99.106733 333.125 99.5625 C 335.42625 100.98475 335.97567 97.078074 335.46875 83 C 335.1816 75.025 334.79745 59.594708 334.625 48.71875 L 334.3125 28.9375 L 338.15625 25.46875 C 340.2721 23.557208 342.70808 22 343.5625 22 C 344.41692 22 346.36126 23.370956 347.90625 25.0625 C 351.4568 28.94986 351.98998 33.770859 351.3125 56 C 350.66948 77.098473 351.72513 97 353.46875 97 C 354.46054 97 354.6943 90.275394 354.5625 65.5 C 354.47032 48.17206 354.67997 33.537124 355.03125 32.96875 C 355.4694 32.259809 356.5485 32.269921 358.46875 33 C 364.59948 35.330899 367.45548 31.882132 365.34375 24.75 C 363.51555 18.575506 360.65033 17.650569 355.5625 21.53125 L 352.03125 24.21875 L 348.46875 21.125 C 346.51956 19.413581 344.57334 18 344.125 18 C 342.72112 18 335.41453 23.646013 333.21875 26.4375 C 331.2974 28.8801 331.15584 29.986738 331.6875 39.375 L 332.28125 49.625 L 331.3125 50.25 z M 359.71875 21.625 C 361.19274 20.788248 364.18977 27.326568 363.34375 29.53125 C 363.03234 30.342773 362.28491 30.983385 361.65625 30.96875 C 359.81892 30.925977 355 27.653173 355 26.4375 C 355 25.346008 357.30277 22.996495 359.71875 21.625 z M 342.78125 32.28125 C 341.61119 32.447368 341.21136 41.678327 341.0625 67.84375 C 340.91007 94.634135 341.11278 99 342.375 99 C 343.6055 99 343.86811 96.053813 344 80.75 C 344.28255 47.963198 344.08035 33.941844 343.34375 32.75 C 343.14387 32.426596 342.9484 32.257519 342.78125 32.28125 z "/>
</svg>
