<?xml version="1.0" encoding="UTF-8"?>
<svg xmlns="http://www.w3.org/2000/svg" viewBox="944.3 10.63 63.92 96.11">
  <path d="M 1005.2812,52 1003.625,52 C 1002.3192,52 999.50665,52.602956 997.375,53.34375 992.85635,54.914078 986.5305,54.387615 983.125,52.15625 978.34675,49.02542 977.20804,41.916023 980.8125,37.75 983.5733,34.559073 982.15369,24 978.96875,24 978.53813,24 976.30407,25.575 974,27.5 969.96782,30.868791 966.67153,31.900138 965.59375,30.15625 965.31147,29.699512 965.73796,26.887012 966.53125,23.90625 968.57974,16.20914 968.45227,15 965.5625,15 964.21996,15 962.84477,15.44214 962.5,16 962.15522,16.557859 960.09349,17.931344 957.9375,19.03125 953.31498,21.38948 948.01451,29.757992 948,34.71875 947.98926,38.39298 951.93312,42.740013 956,43.5625 962.72448,44.922461 963.47882,45.456291 963.8125,48.9375 964.03368,51.24502 963.6595,52.622326 962.59375,53.21875 960.29504,54.505168 953.14305,65.380099 951.375,70.28125 947.20593,81.83823 951.32893,94.235574 961,99.21875 967.12906,102.37684 970.73211,102.2261 974.9375,98.6875 976.70381,97.201241 979.22989,95.77484 980.5625,95.5 981.89511,95.225161 984.0332,94.784868 985.28125,94.53125 986.61608,94.26 989.39546,95.132327 992.03125,96.65625 994.83411,98.27677 998.18513,99.318691 1001,99.40625 1002.8981,99.465292 1004.2351,99.776699 1005.3125,100.0625 L 1005.125,95.25 C 1003.6962,97.618091 999.81567,97.364031 993.59375,94.3125 988.422,91.776034 987.85845,91.703806 982.625,92.875 979.58991,93.554223 975.47722,95.220724 973.5,96.5625 971.52278,97.904276 969.15683,98.975618 968.21875,98.9375 965.00432,98.806885 958.50741,94.286162 956.8125,91 955.8804,89.192802 954.6429,87.236649 954.0625,86.65625 953.4821,86.075852 953,82.974059 953,79.75 953,72.281299 956.3075,64.990674 963.125,57.53125 967.99966,52.197591 968.12416,51.965525 967.3125,47.78125 966.49494,43.566615 966.37463,43.461457 960,41.40625 951.43065,38.643458 949.78852,36.110842 952.5,29.84375 954.92855,24.230594 957.67587,21.16539 961.875,19.40625 966.29812,17.553276 966.29597,17.54996 964.625,20.78125 962.39137,25.100617 961.66481,30.505159 963,33 964.62275,36.03212 968.80164,35.112518 974.46875,30.46875 976.85777,28.511126 979.06744,27.314861 979.375,27.8125 980.44206,29.539043 979.15157,34.880307 976.9375,37.875 975.07474,40.394515 974.82979,41.647255 975.375,45.625 976.72519,55.475695 987.27583,60.706644 997.34375,56.5 1001.3063,54.844327 1003.9084,54.662311 1005.125,55.875 L 1005.2812,52 z M 1004.875,61.8125 C 1004.1161,62.729179 1002.7803,63.339226 1000.25,64 991.76301,66.216268 987.36641,66.226938 983.0625,64.03125 980.87627,62.915915 978.08207,62 976.875,62 972.05726,62 963,75.249263 963,82.28125 963,90.3835 969.30832,92.27565 978.65625,87 984.98425,83.428703 985.90766,83.348425 989.4375,86.125 991.80682,87.988705 992.95317,88.16524 998.53125,87.59375 L 1004.8438,86.96875 1004.6562,82 1004.375,81.75 C 1003.913,82.716309 1003.313,83.444844 1002.4375,83.84375 998.61207,85.586753 993.4503,85.23702 989.78125,83 985.41757,80.339466 984.12023,80.464353 979.3125,84 972.06775,89.327845 966,88.677484 966,82.5625 966,78.829989 969.79146,71.372446 973.09375,68.59375 976.6127,65.632747 978.36667,65.409514 982.375,67.5 986.05945,69.421576 994.94055,69.421576 998.625,67.5 1001.6112,65.942583 1003.7517,65.713873 1004.625,66.6875 L 1004.6562,66.65625 1004.875,61.8125 z"/>
</svg>
