<?xml version="1.0" encoding="UTF-8"?>
<svg xmlns="http://www.w3.org/2000/svg" viewBox="360.32 18.17 68.81 88.89">
  <path d="M 387.53125 22.6875 C 386.49562 22.51936 386 22.945887 386 23.9375 C 386 24.381953 387.7501 25.87506 389.875 27.28125 C 396.45523 31.635843 395.8087 37.018779 389.125 33.5625 C 385.31325 31.591368 384 31.572887 384 33.5 C 384 34.332148 386.1375 36.03062 388.75 37.25 C 391.3625 38.469379 393.69426 39.587449 393.9375 39.75 C 394.50678 40.130424 394.79712 47.06819 394.96875 64.5 L 395.09375 78.5 L 390.3125 82.75 C 383.98653 88.353334 381.83183 88.885478 378.03125 85.6875 C 372.23198 80.80774 368.88966 81.451332 365.40625 88.1875 C 363.57835 91.722264 363.44435 91.356541 367.75 95.4375 C 372.32832 99.776895 373.8072 99.854451 377.5 96 C 379.0808 94.35 380.8529 93.017615 381.4375 93.03125 C 382.0221 93.044885 384.68543 94.732385 387.375 96.78125 C 390.06458 98.830115 393.0437 100.95 393.96875 101.5 C 396.31204 102.89324 401 103.01868 401 101.6875 C 401 99.67438 408.37169 93 410.59375 93 C 411.81778 93 413.48737 94.097612 414.40625 95.5 C 416.0046 97.939379 419.40038 98.780178 421.53125 97.25 C 423.36174 95.935526 426 91.131717 426 89.125 C 426 86.867788 421.38156 80.970861 419.65625 81.03125 C 419.01764 81.053602 416.93548 82.403602 415.03125 84.03125 C 413.12703 85.658897 410.87227 87 410.03125 87 C 407.63737 87 398.02259 79.939176 397.9375 78.125 C 397.82171 75.656281 397.79348 44.799148 397.90625 42.4375 C 397.96839 41.136243 399.43731 39.557555 401.875 38.1875 C 406.41423 35.636311 408.42616 33.491185 407.5625 32.09375 C 407.20308 31.512198 405.03242 32.430158 402.40625 34.28125 C 398.61619 36.952733 397.75272 37.208517 396.96875 35.96875 C 395.39467 33.479498 395.88881 31.117249 398.25 29.875 C 399.4875 29.223937 401.73541 27.665787 403.25 26.40625 C 407.17784 23.139846 404.6734 22.209669 400.3125 25.3125 L 396.78125 27.8125 L 392.25 24.9375 C 390.14836 23.604675 388.56688 22.85564 387.53125 22.6875 z M 395.875 82.3125 C 396.61122 82.195563 397.17363 82.677668 398.28125 83.65625 C 399.50078 84.733698 401.7375 86.404531 403.25 87.34375 C 404.7625 88.282969 406.00212 89.606429 406 90.28125 C 405.99788 90.956071 403.89249 93.1875 401.34375 95.25 C 398.79502 97.3125 396.46164 98.96447 396.125 98.9375 C 395.41235 98.880406 389.37057 94.730923 386.59375 92.375 C 384.44482 90.5518 383.82833 91.362642 392.40625 84.59375 C 394.23802 83.148296 395.13878 82.429437 395.875 82.3125 z M 419.71875 85.21875 C 420.33047 85.202222 420.84551 85.451508 421.46875 85.96875 C 423.5481 87.69446 423.38517 91.3266 421.15625 93.34375 C 418.81378 95.463654 418.7927 95.468662 416.0625 92.5625 C 413.39717 89.725387 413.72065 88.032776 417.34375 86.09375 C 418.39475 85.531274 419.10703 85.235278 419.71875 85.21875 z M 372.6875 86 C 373.9495 86 379 90.603988 379 91.75 C 379 92.207677 377.71006 93.344931 376.125 94.28125 C 373.36527 95.911462 373.13205 95.878297 370.625 93.90625 C 369.18506 92.773595 368 91.293588 368 90.59375 C 368 89.119322 371.18079 86 372.6875 86 z "/>
</svg>
