<?xml version="1.0" encoding="UTF-8"?>
<svg xmlns="http://www.w3.org/2000/svg" viewBox="869.98 11.5 18.52 93.61">
  <path d="M872.50479 70.535947C872.79594 54.016176 873.2471 38.475 873.50738 36.0C873.76766 33.525 873.60001 29.123748 873.13482 26.21944C872.66964 23.315132 872.51244 19.770158 872.78551 18.34172C873.27147 15.799571 873.40966 15.757906 879.30999 16.374612C882.62539 16.72114 885.59945 17.266377 885.919 17.58625C886.23855 17.906122 886.5 36.061136 886.5 57.930726C886.5 89.565337 886.22787 98.021407 885.16877 99.297146C884.18751 100.47912 882.27832 100.85746 877.90649 100.73628L871.97543 100.57189L872.50479 70.535947Z M882.86488 96.25C884.17045 93.807048 884.35304 25.058756 883.06296 21.6656C882.22134 19.451959 881.43234 19.0 878.40953 19.0L874.76955 19.0L875.34801 24.25C876.28446 32.749084 876.36639 62.226638 875.50221 79.726901L874.7009 95.953803L877.10045 96.913515C880.64448 98.330969 881.8254 98.19504 882.86488 96.25Z"/>
</svg>
