<?xml version="1.0" encoding="UTF-8"?>
<svg xmlns="http://www.w3.org/2000/svg" viewBox="1004.21 24.83 79.66 73.69">
  <path d="M1019.6753 90.342009C1018.7522 89.418868 1020.9448 87.0 1022.7047 87.0C1023.5077 87.0 1027.1108 84.096951 1030.7117 80.54878C1036.1896 75.151075 1037.1439 73.722159 1036.5551 71.79878C1036.1681 70.534451 1035.3985 67.5875 1034.8448 65.25L1033.838 61.0L1027.169 60.994423C1018.761 60.987392 1013.4334 59.524348 1010.26 56.350941C1007.9815 54.072437 1007.8262 53.353716 1008.3871 47.683212C1009.712 34.288399 1010.5419 29.511014 1011.5 29.762922C1012.8539 30.118889 1012.5434 38.415128 1010.9582 44.238367C1008.4595 53.417774 1012.8679 57.455163 1025.5259 57.580096C1029.9893 57.624148 1034.1121 57.951267 1034.6878 58.307026C1035.2634 58.662786 1036.7353 62.066856 1037.9587 65.871627C1040.5732 74.002605 1040.3854 74.597522 1032.6088 82.820136C1026.3756 89.410853 1021.5504 92.217078 1019.6753 90.342009Z M1035.1352 52.460858C1033.2845 51.657386 1029.1771 51.0 1026.0076 51.0C1022.0648 51.0 1019.8455 50.518709 1018.9801 49.475999C1016.661 46.681684 1019.5955 28.176228 1021.9754 30.587161C1022.5103 31.129074 1022.4676 33.405247 1021.8703 36.188768C1021.3169 38.76759 1021.0072 42.36759 1021.1821 44.188768C1021.4994 47.49405 1021.5117 47.50107 1028.0 48.095231C1031.575 48.422608 1035.85 49.013049 1037.5 49.407324C1041.986 50.479277 1044.0447 48.409609 1044.8347 42.033314C1045.5268 36.447409 1048.0 33.66623 1048.0 38.473847C1048.0 43.654063 1045.7541 50.048299 1043.2399 52.025939C1040.2829 54.351877 1039.5779 54.389709 1035.1352 52.460858Z M1030.0037 93.25C1030.0067 92.643771 1037.5859 86.26707 1043.745 81.688859C1044.5567 81.085506 1045.8843 81.349373 1047.5595 82.44702C1050.7736 84.553007 1058.0 91.940682 1058.0 93.120582C1058.0 95.150351 1055.2006 93.707788 1050.7584 89.388944C1045.1318 83.918575 1043.5621 83.986109 1037.248 89.970207C1033.3856 93.630668 1029.9942 95.166131 1030.0037 93.25Z M1060.3162 89.792382C1059.7668 89.081572 1057.85 85.890051 1056.0567 82.700114C1053.3397 77.867149 1052.9118 76.283369 1053.4898 73.200114C1055.2001 64.077294 1060.938 60.267768 1069.6735 62.455385C1071.1238 62.818581 1072.8706 62.138342 1074.9235 60.410949C1078.9411 57.03037 1079.1117 59.560772 1075.1238 63.381438C1072.6858 65.71714 1071.7072 66.035698 1068.7019 65.471904C1062.9095 64.385236 1059.5434 65.637246 1057.6646 69.577239C1055.3895 74.34819 1055.4884 75.000373 1059.6302 82.535418C1061.9819 86.813948 1062.9178 89.482169 1062.2878 90.112223C1061.6577 90.742277 1060.9634 90.629643 1060.3162 89.792382Z M1057.0355 53.317942C1055.8751 51.842811 1055.168 50.004524 1055.4641 49.232861C1055.7603 48.461198 1056.2889 45.393124 1056.6389 42.414918C1057.5997 34.240776 1059.4055 35.623777 1058.7035 43.996128C1058.1686 50.377369 1058.2997 51.09003 1060.1957 52.104714C1062.7221 53.456817 1068.6477 52.628821 1070.8759 50.612347C1071.7711 49.80212 1073.7403 48.669023 1075.2518 48.094354C1080.2471 46.195151 1078.3033 49.280702 1072.3189 52.75C1065.0863 56.942943 1060.0345 57.130668 1057.0355 53.317942Z"/>
</svg>
