<?xml version="1.0" encoding="UTF-8"?>
<svg xmlns="http://www.w3.org/2000/svg" viewBox="222.97 10.79 57.65 92.01">
  <path d="M 277.84375,46.34375 C 277.65803,46.654707 277.50155,46.997604 277.25,47.21875 274.8104,49.363475 267.40667,53 265.46875,53 262.93331,53 255,47.076682 255,45.1875 255,44.249636 256.32711,42.238706 257.9375,40.71875 261.35251,37.49553 263.43792,31.925472 262.5625,28.4375 261.79686,25.386967 260.75607,25.391283 254.5,28.46875 245.98583,32.657017 244.77448,31.632414 248.625,23.5 252.1203,16.117805 251.1581,14.970847 243.53125,17.375 240.50417,18.329203 237.5546,19.932469 237,20.96875 236.4454,22.005031 235.21309,23.12608 234.25,23.4375 231.77646,24.237337 228.27417,29.82718 227.46875,34.25 226.8588,37.59947 227.12392,38.313341 230,41 232.39761,43.239704 234.15697,44 236.96875,44 239.04324,44 241.21331,44.5625 241.78125,45.25 243.27167,47.054143 240.81376,53.549114 237.1875,57.375 232.0621,62.782577 225.97226,75.768011 225.84375,81.59375 225.59368,92.929344 230.66797,98.614891 240.34375,97.8125 243.82351,97.523932 246.70546,96.599088 248.5,95.1875 251.97655,92.452848 255.27239,92.39898 258.875,95.0625 263.14401,98.218719 268.84641,98.611322 273.78125,96.09375 276.08225,94.919866 277.1257,94.477592 277.84375,94.375 L 278,93.34375 278,88.75 C 276.96514,90.259444 275.13642,91.709598 272.40625,93.03125 267.39919,95.455127 267.53402,95.486779 259,90.4375 255.80459,88.546888 251.07765,89.349984 246.34375,92.5625 241.15171,96.085913 234.35068,95.532476 231.03125,91.3125 227.64941,87.013191 228.2496,78.99675 232.59375,70.53125 234.56038,66.69886 237.68168,61.891004 239.53125,59.84375 248.53212,49.88086 248.00531,41 238.4375,41 234.11563,41 230.51356,37.087519 231.4375,33.40625 232.23952,30.210741 241.28435,21 243.625,21 244.94334,21 245.0931,21.605094 244.46875,24.25 244.04679,26.0375 243.65304,28.85 243.59375,30.5 243.50134,33.07142 243.89048,33.538036 246.28125,33.8125 247.81534,33.988615 250.99168,33.201115 253.34375,32.0625 257.58053,30.011507 260,29.470736 260,30.5625 260,31.832884 257.51275,35.616061 254.8125,38.46875 249.10648,44.496901 250.06605,48.888932 258.1875,53.9375 260.90071,55.624121 263.64251,57 264.25,57 264.85749,57 268.18736,55.627426 271.65625,53.9375 274.69037,52.459374 276.72633,51.702713 278,51.59375 L 278,46.65625 277.84375,46.34375 z M 278,56.125 C 276.67861,57.933064 274.57819,59.637926 271.1875,61.625 266.88048,64.149087 266.53507,64.210641 263.59375,62.71875 253.47258,57.585103 253.13802,57.526675 250.28125,60.125 241.31197,68.282869 237.82682,73.377788 236.65625,80 235.58242,86.074952 238.25154,87.650691 244.84375,84.84375 250.73545,82.335083 254.19524,82.487249 256.9375,85.40625 260.69256,89.403321 264.31962,90.450416 269.5,89 271.9577,88.311886 274.46596,87.131448 275.09375,86.375 275.91261,85.388335 277.13626,84.998056 278,85.125 L 278,80 277.75,79.9375 C 277.7395,79.953465 277.72934,80.048915 277.71875,80.0625 277.04874,80.921976 274.72142,82.834476 272.53125,84.3125 270.34107,85.790524 268.09107,86.990278 267.53125,86.96875 265.93243,86.907268 260.84189,84.235783 257.0625,81.46875 253.32319,78.731067 250.54725,78.757591 244.15625,81.65625 242.32408,82.487234 240.56845,82.912204 240.25,82.59375 238.96941,81.313164 242.33707,73.644516 246.34375,68.71875 251.61555,62.237675 254.69288,61.619483 261.9375,65.5625 L 266.90625,68.25 272.375,64.625 C 275.17984,62.76325 277.40764,61.451061 278,61.25 L 278,56.125 z"/>
</svg>
