<?xml version="1.0" encoding="UTF-8"?>
<svg xmlns="http://www.w3.org/2000/svg" viewBox="475.7 12.6 66.61 93.82">
  <path d="M 538.65625,47.59375 536.53125,48.3125 C 533.87131,49.203137 527.726,52.932689 521.21875,57.625 519.10273,59.150838 518.68009,59.165618 515.125,57.5625 509.4326,54.995585 506,51.410479 506,48.03125 506,45.999616 506.59997,44.954272 508.03125,44.5 510.93378,43.578775 515,36.673295 515,32.65625 515,27.393224 512.944,26.33071 507.53125,28.875 499.68225,32.564466 498.746,31.586121 502.59375,23.59375 504.40359,19.834426 504.38103,19.267692 502.1875,18.09375 499.89059,16.864477 494.70578,18.534116 489.34375,22.25 485.13637,25.165715 482.94324,28.340099 481.03125,34.28125 479.34915,39.508055 481.5304,43 486.46875,43 489.92796,43 493,45.757949 493,48.84375 493,49.604595 490.9543,53.868327 488.4375,58.34375 479.01724,75.095037 478.72845,89.227617 487.625,98.6875 489.33994,100.51104 491.58994,102.00307 492.625,102 496.22536,101.98933 502.41855,99.780423 505.53125,97.40625 510.5113,93.607785 514.34733,93.270226 518,96.34375 519.69552,97.770432 522.67733,99.684353 524.59375,100.59375 527.88784,102.1569 528.35737,102.15263 533.4375,100.28125 537.20858,98.892087 538.35391,98.556701 539.28125,99.125 L 538.96875,92.96875 C 538.88267,95.352095 538.29844,95.892966 535.125,96.84375 529.1811,98.624586 527.25348,98.292736 520.90625,94.375 514.19189,90.230662 511.14273,90.243085 505,94.5 503.03946,95.858657 499.42188,97.261262 496.96875,97.59375 493.13822,98.112927 492.18701,97.857548 490.3125,95.84375 485.21112,90.363301 481.95312,77.34342 484.40625,72.28125 488.55318,63.723818 492.53795,56.179558 494.15625,53.84375 498.18407,48.030098 494.69069,40 488.125,40 483.92008,40 480.33018,36.150041 483,34.5 483.55,34.160081 484,33.093357 484,32.125 484,31.156644 485.00509,29.499185 486.25,28.4375 493.83103,21.972238 495.37581,21 498.09375,21 500.90533,21 500.9867,21.102897 499.625,23.25 498.84017,24.4875 497.87599,27.413711 497.5,29.75 496.61841,35.227907 498.50015,36.13193 504.625,33.15625 510.49737,30.303231 512,30.391881 512,33.625 512,35.461856 510.49936,37.703128 507,41.09375 504.25,43.7583 502,46.490858 502,47.15625 502,51.275638 504.64821,54.770407 510.78125,58.75 514.38362,61.0875 517.82937,63 518.4375,63 519.04562,63 522.0191,60.785631 525.03125,58.0625 529.65454,53.882825 536.13737,50.517854 538.65625,50.75 L 538.65625,47.59375 z M 538.65625,55.875 C 538.0434,56.708559 537.30904,57.432412 536.40625,57.84375 534.95534,58.504831 531.20494,61.29804 528.0625,64.03125 521.31548,69.899628 517.69948,70.440145 511.96875,66.46875 509.96632,65.081062 506.89059,63.537614 505.125,63.03125 502.32994,62.229638 501.54765,62.467093 499.09375,64.8125 493.69823,69.969466 490.40882,83.704378 492.96875,90.4375 494.37269,94.130151 497.99742,93.764372 507.25,89 511.52022,86.801164 515.67567,85 516.46875,85 517.26183,85 520.27666,86.39588 523.15625,88.09375 528.39071,91.180096 530.73307,91.427822 536.75,89.5 538.43381,88.960509 538.7738,89.43957 538.875,91.25 L 538.65625,87.34375 537.625,86.21875 C 537.27154,86.389902 536.97075,86.596268 536.5,86.71875 530.50743,88.277931 529.79716,88.165355 524.90625,85.125 522.14197,83.406627 518.75691,82 517.40625,82 516.05558,82 511.37558,83.8 507,86 502.62442,88.2 498.8881,90 498.6875,90 498.4869,90 497.51894,88.490294 496.53125,86.65625 495.15641,84.103341 494.87332,82.241356 495.40625,78.6875 495.78912,76.134363 496.53642,73.793886 497.0625,73.46875 497.58858,73.143613 498.94447,71.066528 500.0625,68.875 502.40638,64.280613 503.54654,64.321213 510.90625,69.125 516.46772,72.755045 521.45235,72.966045 524.03125,69.6875 526.31536,66.783735 536.69649,59.815876 538.65625,59.75 L 538.65625,55.875 z"/>
</svg>
