<?xml version="1.0" encoding="UTF-8"?>
<svg xmlns="http://www.w3.org/2000/svg" viewBox="290.66 12.54 41.22 87.96">
  <path d="M 292.71875 94.53125 C 292.99912 94.252475 293.2902 94 293.8125 94 C 294.8025 94 296.12924 94.53549 296.78125 95.1875 C 297.46332 95.869568 301.0465 96.400375 305.21875 96.4375 L 312.46875 96.5 L 313.59375 93 C 314.43117 90.394732 315.73101 89.059916 318.625 87.75 C 325.49592 84.640006 327.2896 83.549716 328.375 81.8125 C 329.87371 79.413749 328.36805 78.367408 326.21875 80.3125 C 324.62274 81.756869 317.91314 85 316.53125 85 C 315.81838 85 315.83835 79.543369 316.5625 77.65625 C 316.8793 76.830695 319.5793 74.915614 322.5625 73.40625 C 325.54571 71.896886 328 70.289826 328 69.8125 C 328 67.841859 324.7515 67.877254 322.625 69.875 C 318.32671 73.913033 317 72.791163 317 65.1875 L 317 58.40625 L 321.5 56.21875 C 323.975 55.016302 326 53.652982 326 53.1875 C 326 51.353667 324.61714 51.159572 321.84375 52.59375 C 320.24733 53.419292 318.5026 53.798686 317.96875 53.46875 C 317.4349 53.138814 317 49.386694 317 45.125 L 317 37.375 L 321.0625 35.59375 C 324.78267 33.952417 326.93537 31.591616 325.78125 30.4375 C 325.52758 30.183835 323.8483 30.734128 322.0625 31.625 C 320.23574 32.536308 318.45408 32.861905 317.96875 32.375 C 317.49431 31.899013 316.97905 28.575 316.8125 25 C 316.42536 16.689482 314.57929 16.534753 314.1875 24.78125 L 313.90625 31.0625 L 310.4375 30.4375 C 305.76311 29.560578 305.80555 31.909369 310.5 34.4375 C 314.24312 36.453305 314.22822 36.407255 314.03125 45.5 C 313.82448 55.045151 313.60983 55.367701 308.96875 53 C 304.43036 50.684685 304 50.585718 304 52.15625 C 304 54.552858 307.35323 57 310.65625 57 L 314 57 L 314 63.9375 C 314 67.755041 313.58533 71.133692 313.09375 71.4375 C 312.60218 71.741308 310.57013 71.307595 308.5625 70.46875 C 300.89607 67.265514 301.99839 71.584917 309.71875 75 C 313.97974 76.884835 314.13925 77.089499 313.46875 80.21875 C 313.08348 82.01682 312.5925 83.701588 312.375 83.9375 C 312.1575 84.173411 309.61013 83.385911 306.71875 82.1875 C 300.61781 79.658802 299 79.463592 299 81.34375 C 299 82.090898 301.90853 84.003398 305.46875 85.59375 C 312.27033 88.632024 312.87045 89.429158 310.625 92.5 C 309.3572 94.233821 308.72 94.313747 303 93.25 C 296.93319 92.12176 294.23938 91.271395 292.96875 88.78125 L 292.65625 93.34375 L 292.71875 94.53125 z "/>
</svg>
