<?xml version="1.0" encoding="UTF-8"?>
<svg xmlns="http://www.w3.org/2000/svg" viewBox="1276.53 13.17 67.81 95.69">
  <path d="M 1341.25,48.5625 C 1340.0766,50.406492 1337.8884,51.086652 1333.5938,52.4375 1326.6607,54.618239 1322.1402,53.486874 1316.1875,48.09375 L 1311.8438,44.15625 1314.9375,41.90625 C 1318.0974,39.569991 1322,31.069437 1322,26.5625 1322,25.269063 1321.1527,23.17547 1320.125,21.90625 L 1318.25,19.59375 1311.875,25.3125 C 1302.8204,33.389484 1301.392,32.953948 1300.75,22 1300.5068,17.850271 1300.3039,17.521002 1298,17.78125 1295.1827,18.099501 1286.642,25.975312 1284.3125,30.40625 1282.0861,34.641035 1283.0992,41.84378 1286.2812,44.46875 1287.6367,45.586898 1289.7013,47.292883 1290.875,48.25 1294.0513,50.840277 1293.5217,53.517515 1288.1562,61.96875 1281.6627,72.196625 1279.6083,78.537198 1280.25,86.53125 1280.9178,94.851356 1284.0819,99.154374 1291.6875,102 1298.4091,104.51488 1302.7948,103.94265 1308.5938,99.8125 1312.3298,97.15163 1313.1521,96.960504 1318.4375,97.53125 1321.6149,97.874364 1325.8734,98.992205 1327.875,100.03125 1329.8765,101.0703 1333.975,102.59708 1337,103.40625 1338.4073,103.7827 1339.7928,103.92759 1341.1875,104.15625 L 1340.5312,98.5625 C 1339.6739,100.34 1336.9595,99.814273 1331.125,97.125 1321.8651,92.856795 1315.0109,92.820995 1307.5,97 1301.2801,100.4607 1298.0865,100.6921 1292.5,98.09375 1287.0221,95.545905 1285.2863,93.075025 1284.5,86.78125 1283.6819,80.2335 1285.7307,72.406257 1290.0312,65.625 1291.6671,63.045707 1293,60.509474 1293,60 1293,59.490526 1293.9256,58.215443 1295.0625,57.15625 1296.6045,55.71968 1297.0491,54.256304 1296.8125,51.40625 1296.5478,48.21698 1295.7563,47.035266 1292,44.1875 1287.2086,40.555024 1285.3859,36.564036 1286.5,32.125 1287.1234,29.641163 1294.2204,22 1295.9062,22 1296.3616,22 1296.9657,23.9125 1297.25,26.25 1298.6531,37.785202 1301.9319,38.834654 1310.4688,30.5 1313.5671,27.475 1316.5059,25 1317.0312,25 1317.5566,25 1318,26.59532 1318,28.53125 1318,33.102984 1314.0405,39.333959 1310.0938,40.96875 1308.396,41.671958 1307,42.949952 1307,43.8125 1307,46.374899 1317.0345,54.940467 1321.4688,56.15625 1324.7127,57.045682 1326.6575,56.936032 1331.5,55.5625 1337.589,53.835384 1339.9899,53.192371 1341.0625,53.34375 L 1341.25,48.5625 z M 1340.8438,58.90625 C 1340.0804,59.750763 1338.8741,60.46202 1336.9062,61.28125 1328.7235,64.687813 1325.6931,64.512621 1316.4375,60.09375 1311.7288,57.845696 1307.3431,56.019507 1306.6875,56.03125 1304.774,56.065531 1300.424,63.002941 1298.25,69.5 1293.0396,85.071656 1292.9018,86.615846 1296.4375,89.9375 1299.3335,92.658093 1301.364,92.478704 1311.5,88.53125 1321.9004,84.480857 1322.3977,84.438359 1327.7188,87.625 1330.3465,89.198701 1334.3,90.958146 1336.5,91.53125 1338.2548,91.988384 1339.2696,92.371409 1339.875,92.96875 L 1339.3438,88.65625 1339.3438,88.625 C 1336.8281,88.057428 1334.5882,87.078816 1330.1562,84.40625 1323.5806,80.441072 1322.715,80.358532 1317.3125,82.96875 1315.083,84.045913 1310.4394,85.700001 1307,86.65625 1300.9058,88.350568 1300.736,88.334982 1299.3438,86.4375 1298.5403,85.342383 1298.1728,83.624861 1298.5312,82.5 1298.8816,81.4 1299.5528,78.25 1300,75.5 1301.196,68.143953 1304.5299,61 1306.7812,61 1307.8033,61 1311.4375,62.35 1314.8438,64 1322.0958,67.512979 1325.2018,67.687515 1333.9375,65.03125 1337.4042,63.977136 1340.3235,63.332387 1340.6875,63.53125 L 1340.8438,58.90625 z"/>
</svg>
