<?xml version="1.0" encoding="UTF-8"?>
<svg xmlns="http://www.w3.org/2000/svg" viewBox="473 17.02 30.87 87.49">
  <path d="M 475 100.375 C 486.24879 100.53281 489.37843 99.350216 491.625 94 C 492.43331 92.075 494.27552 89.256763 495.71875 87.75 C 498.42562 84.923965 498.25206 82.715993 495.5 85 C 494.64842 85.706751 493.6523 85.996053 493.28125 85.625 C 491.95792 84.301679 495.1705 75.432315 498.0625 72.4375 C 500.98151 69.414712 501.87161 67 500.0625 67 C 499.54496 67 498.83992 67.45 498.5 68 C 498.16008 68.55 497.27494 69 496.53125 69 C 495.57848 69 495.07152 67.153941 494.8125 62.75 C 494.48227 57.135359 494.73375 56.141834 497.21875 53.03125 C 500.04144 49.49796 499.59627 46.440313 496.625 48.90625 C 494.51845 50.654526 493.69349 48.711216 494.5 43.9375 C 494.90427 41.544667 495.94443 39.552595 497.09375 38.9375 C 499.71729 37.533422 499.6411 34.590588 497 35.28125 C 495.16857 35.76018 494.98349 35.293747 494.875 29.65625 C 494.80983 26.270241 494.84823 22.9375 494.9375 22.25 C 495.02678 21.5625 494.60536 21 494.03125 21 C 493.42893 21 493.00883 23.432129 493 26.75 C 492.9825 33.31973 492.10291 35.277905 489.40625 34.8125 C 486.71183 34.347482 486.98263 37.285889 489.75 38.5 C 491.68279 39.347961 492 40.246727 492 44.875 L 492 50.25 L 489.03125 49.65625 C 484.07053 48.664106 484.14516 51.950419 489.125 53.84375 C 491.54492 54.763803 491.73915 55.284992 491.90625 61.90625 C 492.00451 65.799653 491.79981 69 491.46875 69 C 491.13769 69 489.97825 68.542468 488.90625 67.96875 C 485.42398 66.105096 485.34825 69.707713 488.78125 73.3125 C 491.33142 75.990271 491.75803 77.176566 491.53125 80.78125 C 491.19149 86.181507 490.77843 86.565134 487.53125 84.4375 C 483.17533 81.583393 482.38071 84.123715 486.46875 87.84375 C 490.52855 91.538084 490.56859 91.731332 488 94.8125 C 485.91884 97.30896 480.60628 98.624237 476.625 97.625 L 475.28125 97.28125 L 475 100.375 z "/>
</svg>
