<?xml version="1.0" encoding="UTF-8"?>
<svg xmlns="http://www.w3.org/2000/svg" viewBox="548.69 10.6 21.62 98.47">
  <path d="M 550.6875 79.96875 L 550.78125 82 L 551 81.84375 L 552 84.5 C 552.55645 85.963572 552.66545 87.740729 552.25 88.4375 C 552.09914 88.690518 551.4136 89.201832 551.125 89.53125 L 551.3125 93.96875 C 552.36856 94.121021 552.70683 95.571137 553 98.5 C 553.45857 103.08128 553.74855 103.55519 556.5 104.15625 C 558.15 104.51669 560.625 104.58747 562 104.34375 C 565.06496 103.80048 568.30601 100.20649 567.53125 98.1875 C 567.21774 97.370499 566.95585 82.133109 566.96875 64.34375 C 566.99164 32.746723 566.1042 19.036172 563.84375 16.3125 C 563.0988 15.414883 560.99205 15.071896 557.59375 15.28125 L 552.5 15.59375 L 552.5 40.6875 C 552.5 55.21038 552.11135 65.569995 551.59375 65.25 C 551.08097 64.932984 550.92218 67.792519 551.21875 71.9375 L 551.75 79.1875 L 550.6875 79.96875 z M 558.71875 18.1875 C 560.24913 17.793184 561.29877 18.601116 562.1875 20.75 C 563.81418 24.683194 564.25439 100.22961 562.65625 101.25 C 562.02338 101.65408 561.275 101.91022 561 101.84375 C 560.725 101.77727 559.5234 101.54327 558.34375 101.3125 C 555.34729 100.72631 555.20338 98.521567 555.375 56.21875 C 555.50033 25.32685 555.76808 19.767444 557.03125 18.96875 C 557.66017 18.571092 558.20862 18.318939 558.71875 18.1875 z "/>
</svg>
