<?xml version="1.0" encoding="UTF-8"?>
<svg xmlns="http://www.w3.org/2000/svg" viewBox="400.63 11.24 61.34 95.55">
  <path d="M 456.53125,45.25 C 455.92543,46.61391 455.18758,47.642228 454,48.34375 448.11829,51.818161 438.27529,49.387732 435.34375,43.71875 L 433.78125,40.6875 438.46875,36.375 C 442.66786,32.51955 443.09415,31.72818 442.8125,28.3125 442.33455,22.516243 439.82141,22.700597 430.78125,29.21875 429.40957,30.207764 428.80115,30.207403 427.8125,29.21875 426.58683,27.993078 426.70022,27.371431 429.4375,20.84375 430.54562,18.201195 422.39623,15.587845 415.375,16.3125 409.52117,16.916668 406.7808,18.620677 404.5,23.03125 403.44511,25.0712 403.42136,26.120516 404.4375,28.53125 406.19627,32.703827 410.66049,37.764504 413.28125,38.5625 416.73021,39.612671 419,42.095775 419,44.8125 419,46.180322 417.15465,50.189911 414.90625,53.75 409.85065,61.754982 407.85082,68.339814 407.65625,77.46875 407.42726,88.212436 411.84893,96.649252 419.5,100.125 424.3691,102.33695 427.33768,102.45327 430.84375,100.5625 442.66962,94.18496 443.19444,94.147434 455.5,97.96875 456.6648,98.330462 457.97803,98.50832 459.1875,98.78125 L 458.75,94.84375 C 457.75176,94.833373 455.98502,94.229565 452.75,93 449.8566,91.900278 446.67288,91.000278 445.65625,91 444.63961,90.999723 440.06673,92.8 435.5,95 430.93327,97.2 426.81039,98.990278 426.34375,98.96875 422.53516,98.793042 414.94808,92.555274 412.15625,87.3125 410.43355,84.077448 410.68044,68.992107 412.53125,64.5625 413.38026,62.530531 415.71533,58.535199 417.71875,55.6875 420.49325,51.743766 421.47719,49.241628 421.8125,45.21875 422.31625,39.174839 420.70864,36.523532 415.90625,35.46875 412.27037,34.670176 406.6213,26.777952 407.5625,23.8125 408.4346,21.064748 413.27064,19.24746 418.75,19.625 424.77233,20.039951 425.74103,21.08611 424.15625,25.46875 422.62649,29.699208 423.80802,32.471779 427.53125,33.40625 429.51004,33.902895 430.95646,33.359682 433.78125,31.03125 437.44802,28.008788 440,27.144719 440,28.9375 440,29.457218 437.975,31.773994 435.5,34.09375 429.90791,39.335081 429.54056,42.802026 434.03125,48.25 438.79386,54.027875 446.58005,55.512062 453.46875,52 455.30064,51.066053 456.04011,50.774489 456.65625,50.65625 L 456.65625,46 456.53125,45.25 z M 456.65625,59.375 C 456.26294,59.793484 455.82692,60.184446 455.25,60.5625 451.13195,63.261042 444.97527,63.246289 439.84375,60.53125 434.78748,57.856029 429.95626,56.683984 428.4375,57.75 426.05855,59.419788 421.10607,67.867946 419.65625,72.75 417.7081,79.310159 418.48185,84.435946 421.78125,87.03125 425.3628,89.848503 428.31223,89.499697 435.96875,85.3125 L 442.71875,81.59375 448.75,84.3125 C 452.05474,85.795578 455.46938,87 456.34375,87 456.9008,87 457.43439,87.32236 457.9375,87.78125 L 457.40625,83.21875 C 456.35396,83.132135 454.5725,82.612008 452.4375,81.625 443.87662,77.667317 442.81486,77.640938 436.40625,81.5 430.45593,85.083097 425.36168,85.986677 423.1875,83.8125 421.32705,81.952054 421.76967,73.933262 423.9375,70 424.99846,68.075 426.31314,65.516559 426.875,64.3125 428.75814,60.276884 431.05758,59.942904 437.03125,62.8125 443.22116,65.785969 452.57324,66.413686 455.40625,64.0625 455.83613,63.705729 456.27137,63.463786 456.65625,63.3125 L 456.65625,59.375 z"/>
</svg>
