<?xml version="1.0" encoding="UTF-8"?>
<svg xmlns="http://www.w3.org/2000/svg" viewBox="604.66 24.33 29.61 77.69">
  <path d="M 606.65625 91.53125 L 606.65625 96 L 606.8125 96.625 C 607.62242 95.793082 609.20641 95.903524 612.59375 96.875 C 618.24883 98.496857 625.03922 93.713408 626.5 87.0625 C 626.8442 85.495359 627.99367 83.404774 629.0625 82.4375 C 631.38684 80.334003 631.55394 79 629.5 79 C 627.18256 79 627.58908 73.041102 630.09375 70.375 C 632.26742 68.061232 631.96115 66 629.4375 66 C 627.25659 66 627.49349 54.694971 629.75 50.875 C 631.05604 48.664049 631.18318 47.744921 630.28125 47.1875 C 629.62014 46.778912 628.71497 42.849402 628.28125 38.46875 C 627.23143 27.865255 625.5 28.68528 625.5 39.78125 C 625.5 48.257553 625.43535 48.491369 623.25 48.1875 C 620.23765 47.768639 620.29312 50.313656 623.34375 52.3125 C 625.46934 53.705241 625.68155 54.513599 625.5 60.6875 C 625.21876 70.251126 625.25692 70.101968 622.75 69.78125 C 619.51011 69.366762 619.27899 71.281948 622.375 72.8125 C 624.34003 73.783936 625 74.855016 625 77.0625 C 625 79.725274 624.74556 79.96985 622.5 79.40625 C 619.36978 78.620614 619.09514 80.871142 622 83.5 C 623.1 84.495486 624 85.865665 624 86.53125 C 624 88.433496 619.96969 93.061024 617.5 94 C 614.77054 95.037737 608.65535 93.501764 606.65625 91.53125 z "/>
</svg>
