<?xml version="1.0" encoding="UTF-8"?>
<svg xmlns="http://www.w3.org/2000/svg" viewBox="13.55 17.18 41.21 89.95">
  <path d="M 17.627653,54.294319 C 17.269434,53.9361 17.247081,52.199869 17.577979,50.436027 17.930891,48.554843 17.729076,46.950594 17.089807,46.555504 15.934219,45.841311 15.554726,42 16.639757,42 18.258024,42 19.939314,45.884936 19.968197,49.690983 19.998719,53.713218 19.003645,55.670312 17.627653,54.294319 z M 45.342477,68.766312 C 40.719951,61.410002 35,44.695948 35,38.544948 35,35.323693 34.30715,34.18259 30,30.310091 27.25,27.837605 25,24.956363 25,23.907331 25,21.269308 25.683674,21.481494 30.13168,25.5 32.262425,27.425 34.716232,29 35.584584,29 36.452936,29 39.176808,27.350168 41.637633,25.333708 46.042682,21.724101 46.141133,21.697044 48.0052,23.583708 50.663788,26.274523 52.763272,34.572357 51.34704,36.791726 50.18309,38.615747 45.580391,39.012819 40.75,37.705926 38.231078,37.024416 38.001223,37.194575 38.014553,39.730948 38.032587,43.162141 40.209702,49.51932 43.945003,57.047863 45.512915,60.208011 47.093054,64.147189 47.456422,65.801593 48.148174,68.951115 46.718517,70.956148 45.342477,68.766312 z M 33.426787,100.66981 C 32.5051,98.267929 33.855125,96.925535 36.519762,97.594316 38.606222,98.117984 39.438541,97.388974 42.94084,91.970238 46.125382,87.043132 47.105468,86.11127 47.639454,87.502815 48.361893,89.385461 46.321056,93.846887 42.70689,98.285776 40.028247,101.57566 34.335584,103.03809 33.426787,100.66981 z M 48.34066,32.14066 C 48.124611,27.585739 46.734165,26.344462 43.499061,27.818474 42.093706,28.458797 40.656458,29.731681 40.305176,30.647106 39.487929,32.776819 43.559032,36.206143 46.419281,35.797368 48.094046,35.558017 48.468912,34.844583 48.34066,32.14066 z"/>
</svg>
