<?xml version="1.0" encoding="UTF-8"?>
<svg xmlns="http://www.w3.org/2000/svg" viewBox="810.34 16.58 20.7 89.16">
  <path d="M 812.65625 51.65625 L 812.875 55.84375 C 813.0162 55.849544 813.39116 55.734906 813.4375 55.78125 C 814.34812 56.691867 814.05836 59.48136 813.125 61.09375 L 813.34375 65.34375 L 813.125 65.875 C 813.61205 66.594241 814 70.186548 814 74.53125 C 814 81.077388 813.72657 82.700566 812.46875 83.625 L 812.65625 84 L 812.34375 88.0625 C 812.4149 88.100552 812.60145 88.079524 812.65625 88.125 C 813.48402 88.811988 813.70442 91.121846 813.34375 95.40625 L 812.8125 101.6875 L 818.15625 101.4375 C 821.09767 101.28977 823.8375 101.13794 824.25 101.09375 C 824.6625 101.04956 825 100.13004 825 99.0625 C 825 97.573643 825.35173 96.786161 826.65625 96.53125 L 826.65625 92.65625 C 825.62709 91.265907 825.3692 89.153993 825.59375 85.875 C 825.79587 82.923408 826.19217 76.675 826.46875 72 C 826.74534 67.325 827.42468 59.675 827.96875 55 C 829.04048 45.790901 827.59259 24.529384 825.75 22.25 C 824.6419 20.879223 821.00912 20.635675 816.0625 21.625 L 812.875 22.28125 L 813.125 36.78125 L 813.40625 51.25 L 812.65625 51.65625 z M 819.65625 24.0625 C 822.02201 23.73028 823.56608 25.210715 824.28125 28.5 C 825.01512 31.875296 824.3955 71.872208 823.4375 83 C 823.27177 84.925 823.10229 89.3125 823.0625 92.75 L 823 99 L 819.5625 99 C 817.66996 99 815.89347 98.653152 815.625 98.21875 C 815.35652 97.784347 815.46577 94.521847 815.875 90.96875 C 816.73146 83.532714 816.51942 43.986279 815.5625 33.3125 C 814.96876 26.689785 815.07491 26.030274 817 25 C 817.96504 24.483525 818.86766 24.17324 819.65625 24.0625 z "/>
</svg>
