<?xml version="1.0" encoding="UTF-8"?>
<svg xmlns="http://www.w3.org/2000/svg" viewBox="618.31 19.08 19.86 86.14">
  <path d="M 621.15625 30.125 L 621.34375 30.65625 L 621.53125 36.28125 L 622 35.875 L 622 39.75 C 622 40.097723 621.7556 40.604287 621.6875 41 L 622 49.65625 L 622.125 49.5 L 621.4375 70 C 621.04815 81.275 620.61314 92.406495 620.5 94.75 C 620.30823 98.72225 620.51858 99.068255 623.40625 99.90625 C 625.10989 100.40064 626.64769 100.85665 626.8125 100.90625 C 628.13862 101.30537 632.86614 97.607196 633.375 95.78125 C 634.37299 92.200182 636.16921 62.736203 636.15625 50 C 636.14354 37.518733 634.74919 26.626854 632.90625 24.40625 C 632.235 23.597449 629.89713 23 627.375 23 C 623.06002 23 623.00278 23.042821 622.375 26.96875 C 622.19825 28.074086 621.67781 29.081683 621.15625 30.125 z M 628.25 26 C 631.68668 26.204982 632.97937 32.811954 633.03125 48.84375 C 633.07632 62.770424 630.99452 93.073877 629.84375 95.25 C 629.33477 96.2125 628.1619 97.008422 627.21875 97 C 623.54783 96.96722 623.12671 95.710896 623.5625 86.46875 C 624.70288 62.283944 625 52.434287 625 40.21875 C 625 28.83898 625.22401 26.850112 626.625 26.3125 C 627.20523 26.089846 627.75905 25.970717 628.25 26 z "/>
</svg>
