<?xml version="1.0" encoding="UTF-8"?>
<svg xmlns="http://www.w3.org/2000/svg" viewBox="81.72 12.48 97.97 92.98">
  <path d="M108.87244 98.345903C106.84129 95.897918 107.34421 88.760087 109.82259 84.860746C114.58391 77.369562 114.56702 77.706133 110.54243 70.509487C108.50097 66.85901 106.17702 63.621422 105.37809 63.314847C102.52366 62.219497 98.38396 68.290835 93.162577 81.230288C91.659797 84.954428 89.306928 83.85356 87.942943 78.788107C86.175889 72.225767 87.736773 62.65273 91.894716 54.551549C95.132368 48.243428 95.853441 47.467142 98.73422 47.188338C100.97927 46.97106 103.88326 47.955297 108.32335 50.438338C111.82622 52.397252 115.16267 54.0 115.73769 54.0C117.27621 54.0 118.05278 49.84409 117.14707 46.457529C116.48199 43.970702 115.43148 43.193506 110.45147 41.50396C106.3742 40.120681 104.13992 38.725682 103.23777 37.0C99.687151 30.2082 107.70999 16.70646 114.31178 18.363404C115.59128 18.684537 118.72384 21.633075 121.27304 24.915711L125.90794 30.884141L132.39415 26.534665C140.61512 21.021899 144.32734 20.111593 147.86984 22.739735C153.44749 26.877739 154.45448 40.079865 149.24887 40.819551C148.01199 40.995304 146.98382 40.770304 146.96404 40.319551C146.94426 39.868798 145.88042 38.219316 144.59995 36.654035C142.32423 33.872123 142.20247 33.843941 139.18979 35.401857C131.76738 39.240136 127.7135 46.124406 130.15188 50.75C131.6078 53.511895 132.19615 53.545723 134.5 51.0C136.95829 48.283616 141.33738 48.477635 145.78519 51.5C150.35768 54.607086 151.03281 54.602799 157.75222 51.424006C164.32469 48.314731 169.10986 48.927158 172.3709 53.294965C175.24005 57.137878 175.12104 70.955484 172.14702 79.288675C169.73723 86.040905 166.46784 91.0 164.42607 91.0C163.23931 91.0 163.10036 89.542543 163.6301 82.650859C164.32809 73.570162 162.76579 64.231091 160.39662 63.321957C159.64473 63.033427 157.63837 63.967952 155.93804 65.398679C152.27326 68.482393 148.44277 68.692975 145.0 66.0C139.73153 61.878941 135.18514 64.564521 132.38338 73.452717C130.73674 78.676453 130.74172 79.301575 132.49098 86.960489C133.93854 93.298474 134.0846 95.518907 133.18399 97.495524C131.47984 101.23573 128.45039 100.67371 125.55006 96.079293C123.12229 92.233459 119.9618 90.287541 118.05616 91.465288C117.52721 91.792199 116.09032 93.846246 114.86308 96.029836C112.43786 100.34493 110.99419 100.90307 108.87244 98.345903Z M129.04495 86.604855C127.92023 83.980989 127.0 80.763377 127.0 79.454607C127.0 75.443983 130.85179 66.512815 133.75288 63.796674C137.92646 59.889163 140.05587 59.656383 145.43987 62.519085C150.54882 65.235542 152.67584 65.120658 155.5231 61.974471C157.55932 59.724479 161.2405 59.37993 162.82646 61.290895C164.63866 63.474461 166.2684 72.178116 166.09565 78.75C166.00482 82.205233 166.36214 85.0 166.89472 85.0C168.40128 85.0 171.21896 74.234391 171.75451 66.432054C172.6281 53.704733 167.93376 49.282824 158.92485 54.346976C153.12674 57.606253 147.11497 57.889504 144.5231 55.025529C141.53096 51.719243 139.19908 51.590034 135.00287 54.498013C128.88326 58.738907 127.55476 57.833362 127.20505 49.18277L126.9101 41.88675L131.62578 37.432364C134.2194 34.982452 138.09595 32.452321 140.24033 31.80985C143.95517 30.696856 144.24627 30.776015 146.40791 33.486974C149.21863 37.011947 150.44496 35.593187 149.48724 29.924462C149.04175 27.287618 147.99077 25.384835 146.40649 24.34677C144.20147 22.901986 143.69057 22.918357 140.25095 24.544016C138.18793 25.519055 134.12124 28.250169 131.21388 30.61316C128.30651 32.976151 125.38151 34.689374 124.71388 34.420323C124.04624 34.151272 121.51381 31.021633 119.08624 27.46557C116.65868 23.909506 114.15719 21.0 113.52737 21.0C110.59808 21.0 106.0 27.12765 106.0 31.031377C106.0 34.897918 108.23233 37.238372 113.64068 39.042154C119.18529 40.891377 120.96996 43.437277 120.9716 49.5C120.97465 60.704591 118.22265 61.162479 104.72866 52.202562C101.69598 50.188888 100.5195 49.897901 98.721992 50.7169C94.938346 52.440844 91.721641 60.36875 91.330551 68.933879C91.140539 73.095246 91.325933 75.825 91.742538 75.0C94.182627 70.1679 100.26235 61.874209 102.38306 60.484668C104.67782 58.981082 105.05259 58.988355 107.48743 60.583723C108.93271 61.530706 111.10179 64.095822 112.30761 66.283983C113.51342 68.472143 115.26589 71.665904 116.20197 73.381228C118.59134 77.759641 118.41758 79.199537 114.9774 83.528433C111.88594 87.418536 110.26016 91.593489 111.39488 92.728217C111.74418 93.07751 113.50714 91.931553 115.31259 90.181647C117.11803 88.431741 119.24879 87.001217 120.04761 87.002705C120.84642 87.004193 123.525 88.758726 126.0 90.901668C131.35795 95.540768 132.30342 94.206577 129.04495 86.604855Z"/>
</svg>
