<?xml version="1.0" encoding="UTF-8"?>
<svg xmlns="http://www.w3.org/2000/svg" viewBox="404.53 17.12 29.47 88.11">
  <path d="M 406.53125 99.8125 C 408.89471 99.676625 411.16761 99.689059 412.96875 100.09375 C 418.00426 101.22515 419.36383 100.42826 421.0625 95.28125 C 421.70986 93.319718 423.76923 90.328164 425.625 88.625 C 427.48077 86.921836 429 84.941308 429 84.25 C 429 82.588358 428.1737 82.67005 426.34375 84.5 C 423.97273 86.871018 423 86.269771 423 82.46875 C 423 79.714852 423.49121 78.774322 425.28125 78.09375 C 427.99545 77.061812 430.55899 74.215236 429.625 73.28125 C 429.26246 72.918708 428.43209 73.161666 427.78125 73.8125 C 425.14987 76.443881 424.00968 75.15145 424.65625 70.25 C 425.13623 66.611355 426.02827 64.875611 428.40625 62.84375 C 430.1136 61.384901 431.18045 59.875776 430.78125 59.46875 C 430.38204 59.061724 429.43889 59.220147 428.6875 59.84375 C 427.9361 60.467354 427.01815 60.674395 426.65625 60.3125 C 425.41468 59.070934 425.9484 47.149124 427.28125 46.3125 C 428.84178 45.332957 432 40.450466 432 39.03125 C 432 37.194718 430.25849 37.936042 429.71875 40 C 428.99178 42.779937 427.16111 42.50763 426.40625 39.5 C 426.0032 37.89415 426.41522 36.015781 427.53125 34.3125 C 429.13755 31.86098 429.12967 31.568998 427.625 30.46875 C 426.56397 29.69291 426 27.823074 426 25.09375 C 426 22.549211 425.60602 21.125459 425 21.5 C 424.45 21.839919 424 23.458947 424 25.09375 C 424 27.042843 423.39754 28.254804 422.25 28.625 C 421.2875 28.935502 419.825 29.394733 419 29.65625 C 417.7789 30.043326 417.87187 30.39606 419.5 31.53125 C 423.41225 34.259019 424 35.106147 424 38.03125 C 424 40.522528 423.60371 41 421.5 41 C 420.125 41 419 41.260646 419 41.59375 C 419 41.926854 420.125 43.553406 421.5 45.1875 C 424.03149 48.19601 424.51863 51.880666 423.09375 57 C 422.62205 58.694743 422.17783 59.09394 421.65625 58.25 C 420.63454 56.596846 419.33348 56.672661 418.65625 58.4375 C 418.35313 59.227397 419.02206 61.004086 420.125 62.40625 C 421.51551 64.173989 422.0283 66.139752 421.8125 68.75 C 421.54315 72.007923 421.19726 72.458262 419.25 72.1875 C 416.4743 71.801544 416.45545 72.401227 419.0625 76.0625 C 420.63908 78.276595 420.9528 79.784467 420.4375 82.53125 C 419.81965 85.824653 419.6381 85.957147 418.0625 84.53125 C 413.81127 80.683938 412.59443 83.915255 416.6875 88.1875 C 418.97983 90.580169 419.25501 91.411675 418.4375 93.75 C 417.15155 97.428196 413.14996 97.916566 409.625 94.8125 L 407.1875 92.65625 L 406.65625 94 L 406.53125 99.8125 z "/>
</svg>
