<?xml version="1.0" encoding="UTF-8"?>
<svg xmlns="http://www.w3.org/2000/svg" viewBox="522.59 11.98 55.96 88.53">
  <path d="M 575.375,47.6875 C 575.20759,47.866835 575.07967,48.078092 574.875,48.25 573.72904,49.2125 572.19672,50 571.5,50 570.80328,50 569.68469,50.675 569,51.5 568.31531,52.325 566.64154,53 565.28125,53 561.72507,53 553,47.937045 553,45.875 553,45.428602 555.03318,42.808753 557.5,40.03125 562.45732,34.449571 563.8881,30.775018 562,28.5 560.35137,26.513523 558.3747,26.611055 554.625,28.90625 551.65679,30.723102 549.17164,31.379633 546.125,31.125 544.51516,30.990453 545.25549,24.174928 547.21875,21.03125 548.70647,18.649027 546.77868,16 543.5625,16 540.50839,16 532.62585,21.829647 529.5625,26.34375 525.13139,32.873342 526.29036,36.740554 534.375,42.28125 535.81689,43.269427 537,45.057385 537,46.21875 537,47.380114 535.0875,52.405791 532.75,57.40625 528.85102,65.747081 528.5,67.182549 528.5,74.59375 528.5,81.832376 528.80047,83.164862 531.5,87.53125 535.87809,94.612651 539.69443,96.482624 549.5,96.4375 558.30965,96.396959 561.03599,95.295127 571.90625,87.1875 L 574,85.625 574,83.625 C 573.73062,83.959363 573.49656,84.350822 573.125,84.46875 572.09226,84.796531 569.95126,86.176807 568.375,87.53125 566.79874,88.885693 562.69678,91.12016 559.25,92.5 552.32374,95.27277 552.61166,95.226893 545.3125,93.625 539.28377,92.301921 535.48197,89.169849 532.875,83.375 529.3744,75.593778 530.55116,67.832933 537.1875,54.65625 541.26628,46.557702 540.83921,42.366596 535.71875,39.71875 533.64309,38.645402 531.46218,36.878412 530.875,35.78125 528.33247,31.030487 532.87626,23.559148 540.6875,19.625 544.70182,17.603178 545.39136,18.670552 543.5,24.03125 542.67873,26.358963 541.99158,28.981649 542,29.875 542.04528,34.677569 546.98016,35.579984 553.875,32.0625 556.10625,30.924203 558.39684,30 558.96875,30 561.47335,30 559.5822,33.570908 554.4375,38.59375 549.92691,42.997491 548.99217,44.47029 549.53125,46.28125 550.50773,49.561631 553.86795,52.533824 559.21875,54.84375 L 563.96875,56.875 569.34375,54 C 573.01864,52.038969 574.68108,51.554018 575.59375,52.125 L 575.375,47.6875 z M 575.8125,56.96875 C 574.49385,58.611769 571.98382,60.348106 568.25,62.09375 563.19935,64.455045 558.79692,63.677729 553.90625,59.5625 550.04412,56.312733 548.98383,56.349213 545.75,59.75 538.75487,67.106274 536.77027,83.486756 542.40625,87.25 543.01142,87.654078 546.67293,87.991578 550.5625,88 557.42453,88.014858 557.86362,87.85159 564.90625,83 568.89818,80.25 572.81275,78 573.59375,78 573.75418,78 573.86637,78.101626 574,78.15625 L 574,76.3125 C 573.90344,76.297381 573.85637,76.331371 573.75,76.3125 572.27562,76.05093 569.08696,77.537691 564.5,80.59375 559.01113,84.250706 556.52856,85.275828 553,85.40625 543.10964,85.771818 541.44052,84.146711 542.28125,74.875 542.8509,68.592773 545.48465,62.25443 548.21875,60.59375 549.56887,59.773688 550.54282,60.136693 552.78125,62.28125 554.34386,63.778317 556.08335,65 556.65625,65 557.22915,65 559.1331,65.709186 560.90625,66.59375 563.97217,68.123231 564.2408,68.098728 566.375,66.09375 567.6093,64.934186 569.08944,64 569.65625,64 570.22306,64 571.50451,63.1 572.5,62 573.49549,60.9 574.69149,60 575.15625,60 575.29708,60 575.38292,60.890475 575.5,61.5 L 576,60.65625 575.8125,56.96875 z"/>
</svg>
