<?xml version="1.0" encoding="UTF-8"?>
<svg xmlns="http://www.w3.org/2000/svg" viewBox="266.31 16.64 40.17 89.46">
  <path d="M 268.3125 98.90625 C 270.20416 99.763829 272.47373 100.76169 273.5 101.15625 C 275.78363 102.03418 289.36129 101.50084 291.03125 100.46875 C 293.36974 99.023485 298.73042 85.460807 298.25 82.1875 C 297.89934 79.798261 298.42227 78.122662 300.375 75.5625 C 303.26286 71.776328 303.79624 69.486583 301.5625 70.34375 C 299.79123 71.02345 298.59021 67.81384 299.40625 64.5625 C 299.72489 63.292915 300.89399 62.00798 302 61.71875 C 303.10602 61.429521 304 60.48423 304 59.625 C 304 58.64719 303.43886 58.264726 302.5 58.625 C 301.2617 59.100179 301 58.071946 301 52.71875 C 301 48.174661 301.44886 45.872365 302.5 45 C 304.23025 43.564022 304.48454 41.317765 302.96875 40.8125 C 302.39769 40.622146 301.67472 37.117979 301.375 33 C 301.07529 28.88202 300.60076 24.825 300.3125 24 C 299.16034 20.702482 298.27405 26.691423 298.78125 34.34375 C 299.29425 42.083439 299.27703 42.177595 297 41.84375 C 294.13309 41.42342 293.16422 43.618301 295.84375 44.46875 C 298.53574 45.323153 299.14465 47.385564 298.375 53.1875 C 297.76731 57.768445 297.56205 58.111414 295.375 57.5625 C 292.37857 56.810444 292.08815 59.441623 295 61 C 297.45811 62.315541 297.78432 69.059426 295.5 71.34375 C 293.80398 73.039768 293.56519 75.156105 294.90625 76.5625 C 295.40447 77.085 295.49733 79.3 295.125 81.5 C 294.55234 84.883655 294.06569 85.509469 291.96875 85.5625 C 289.28035 85.630489 289.1108 87.267048 291.53125 89.6875 C 292.33661 90.492858 293 91.455414 293 91.84375 C 293 93.476504 289.65837 97.122092 286.8125 98.59375 C 284.17661 99.956822 282.84899 100.01341 277.3125 98.96875 C 273.06798 98.167866 270.82282 97.416912 269.59375 95.3125 L 268.3125 98.90625 z "/>
</svg>
