<?xml version="1.0" encoding="UTF-8"?>
<svg xmlns="http://www.w3.org/2000/svg" viewBox="773.73 13.67 30.55 97.19">
  <path d="M788.48713 102.06744C778.32845 82.179144 776.99008 76.244988 776.27016 47.898928C775.7276 26.536393 776.19053 19.0 778.04531 19.0C778.62113 19.0 779.00608 27.433097 779.01531 40.25C779.02373 51.9375 779.39217 62.069591 779.83407 62.765757C780.43933 63.71929 781.53969 63.349286 784.29494 61.265757L787.95236 58.5L787.72618 39.0C787.58692 26.994134 787.8778 19.307843 788.48304 19.0C790.27664 18.087724 790.96934 26.315885 790.39267 41.683326C790.0793 50.034156 790.08515 57.692925 790.40568 58.702813C791.06293 60.773626 797.64351 64.689822 798.69652 63.63681C799.07304 63.260297 799.28969 53.062987 799.17798 40.976121C799.04836 26.951437 799.33435 19.0 799.96838 19.0C801.93495 19.0 802.27944 24.65819 801.69709 47.393686C801.07703 71.600845 800.19111 79.397783 796.92023 89.434634C791.99916 104.53514 790.7236 106.44592 788.48713 102.06744Z M783.0 75.231617C783.0 74.809006 784.21969 73.723169 785.71043 72.818644C788.25658 71.27373 788.65261 71.292288 792.24472 73.124848C796.32024 75.204024 798.02055 74.926524 797.96673 72.190983C797.92149 69.891275 795.24706 66.904181 790.77103 64.154024L787.04206 61.862876L783.52103 65.282457C780.12416 68.581457 779.32665 71.081706 780.60699 74.418213C781.22464 76.027778 783.0 76.631238 783.0 75.231617Z M793.97287 90.352416C797.01573 80.500779 796.76581 78.649083 792.10996 76.549586C785.69865 73.658488 781.11329 76.816465 782.3977 83.238506C783.17795 87.139726 789.89425 98.18339 791.05157 97.468125C791.54336 97.164182 792.85795 93.962113 793.97287 90.352416Z"/>
</svg>
