<?xml version="1.0" encoding="UTF-8"?>
<svg xmlns="http://www.w3.org/2000/svg" viewBox="587.63 17.82 37.87 85.51">
  <path d="M 589.625 95.46875 C 590.74617 95.326205 592.50914 95.662288 595.03125 96.5 C 603.9087 99.448617 607.91394 97.171175 610.90625 87.5 C 612.09795 83.648443 613.40705 81.488374 615 80.6875 C 618.46466 78.9456 618.96534 76.552315 615.6875 77.375 L 613.09375 78 L 613.71875 72.75 C 614.07509 69.699044 614.98371 67.021975 615.90625 66.34375 C 616.7806 65.700951 618.35972 64.505013 619.40625 63.71875 C 622.29297 61.54993 620.48428 59.628674 617.4375 61.625 L 615 63.21875 L 615 57.28125 C 615 51.17509 616.10006 49.159223 620.25 47.6875 C 623.49381 46.537124 622.2381 44.73429 618.65625 45.40625 L 615.28125 46.03125 L 615.1875 40.03125 C 615.11354 34.815158 615.43538 33.798197 617.5625 32.125 C 620.69989 29.657133 620.67136 28 617.5 28 C 615.51612 28 615 27.499549 615 25.5625 C 615 24.219959 614.5729 22.846696 614.0625 22.53125 C 612.73133 21.708542 611.79945 25.366016 612.5625 28.40625 C 613.38913 31.699784 612.33641 31.689939 608.84375 28.34375 C 606.5189 26.116406 605.94563 25.925847 605.4375 27.25 C 604.61524 29.392793 606.54538 32.732347 609.0625 33.53125 C 611.56551 34.325672 613 37.797553 613 43.0625 C 613 47.259737 611.31425 48.288497 609 45.5 C 608.31531 44.675 607.35765 44 606.875 44 C 605.22917 44 605.99627 45.922693 609 49.34375 C 611.42796 52.109041 612 53.675987 612 57.5 C 612 61.303083 611.70733 62.082309 610.5 61.59375 L 607.5 60.40625 C 605.03141 59.407311 605.75894 63.214107 608.53125 65.84375 C 610.20812 67.434331 611 69.278042 611 71.53125 C 611 74.936904 609.63077 76.860873 608.5 75.03125 C 607.6767 73.699121 605 73.693449 605 75.03125 C 605 75.60352 605.94881 77.377872 607.125 78.96875 C 608.87545 81.336363 609.15733 82.631832 608.59375 86.15625 C 607.76061 91.366449 604.61371 95 600.9375 95 C 597.86595 95 591.33802 92.432135 590 90.78125 L 589.625 95.46875 z "/>
</svg>
