<?xml version="1.0" encoding="UTF-8"?>
<svg xmlns="http://www.w3.org/2000/svg" viewBox="1191.37 11.93 86.8 97.65">
  <path d="M 1229,23.881898 C 1229,21.0023 1226.6282,19.871702 1224.1818,21.585181 1221.5735,23.412115 1221.3715,25.548901 1223.6847,26.843431 1225.7739,28.012588 1229,26.215081 1229,23.881898 z M 1260,26.551767 C 1260,23.888379 1256.6084,20.980272 1254.25,21.621501 1250.9718,22.512834 1251.4755,25.496153 1255.2095,27.304616 1258.6075,28.950284 1260,28.731438 1260,26.551767 z M 1210.25,68.291667 C 1207.8898,67.426257 1209.4962,54.004851 1212.7386,47.5 1216.6297,39.693652 1220.6865,38.369142 1229.9381,41.884489 1232.6659,42.920958 1235.1457,43.520958 1235.4488,43.217822 1237.3926,41.274043 1234.2518,30.4176 1231.4327,29.335816 1230.744,29.071528 1228.8198,29.558951 1227.1567,30.418977 1224.2622,31.915777 1224.0017,31.872295 1221.0664,29.402438 1216.7812,25.796698 1217.0524,22.892891 1221.9786,19.632886 1226.8896,16.38292 1227.5421,16.371531 1229.592,19.5 1231.6223,22.598652 1232.0914,22.598652 1237,19.5 1241.9056,16.403203 1243.0741,16.385525 1245.8739,19.365742 L 1248.0964,21.731484 1253.1004,19.115742 1258.1044,16.5 1260.0412,18.847161 C 1263.0179,22.454605 1264.5918,28.581971 1263.0263,30.468268 1261.5525,32.244118 1258.2769,32.43599 1254.4264,30.972022 1252.9393,30.406634 1251.4475,30.218635 1251.1113,30.554248 1250.7751,30.889861 1250.275,33.935642 1250,37.322651 1249.5928,42.338003 1249.1498,43.547517 1247.6132,43.84009 1245.8368,44.17831 1245.7674,43.675724 1246.4264,35.251495 1247.1069,26.552841 1247.0525,26.215884 1244.4743,23.151829 1241.31,19.391322 1240.0556,19.247429 1237.1743,22.314451 1234.4949,25.16654 1234.4828,25.974504 1237.0359,31.578837 1238.1557,34.036847 1239.3113,38.73952 1239.604,42.029221 1240.2681,49.492727 1239.213,50.105519 1231.7651,46.58207 1223.4768,42.661101 1220.761,42.383363 1217.8174,45.155663 1215.4108,47.42211 1213,52.737321 1213,55.776583 1213,56.680518 1214.7866,55.607899 1217.5991,53.015401 1221.8418,49.104626 1222.506,48.825297 1226.1695,49.411116 1230.7919,50.150264 1235,52.630145 1235,54.61501 1235,56.369441 1233.1977,56.327985 1230,54.5 1225.6691,52.024251 1222.0742,52.64153 1218.4512,56.483037 1216.6445,58.398707 1214.6245,61.661207 1213.9623,63.733037 1212.5477,68.159198 1211.9363,68.909979 1210.25,68.291667 z M 1234.7365,102.40317 C 1234.2025,101.86913 1247.6003,74.812045 1250.0389,71.5 1250.4438,70.95 1253.3236,65.4375 1256.4383,59.25 1259.5531,53.0625 1262.559,48 1263.1182,48 1264.4982,48 1263.4191,51.363173 1259.9097,58 1258.3101,61.025 1253.1436,71.15 1248.4285,80.5 1239.9372,97.338305 1235.9885,103.65515 1234.7365,102.40317 z M 1215,102.34826 C 1215,101.98981 1216.9465,98.27731 1219.3255,94.098264 1221.7046,89.919219 1225.769,82.1551 1228.3576,76.844667 1230.9463,71.534233 1233.7248,66.935856 1234.5321,66.626051 1235.3395,66.316246 1236,66.531238 1236,67.103811 1236,68.8438 1225.8362,90.360182 1224.0035,92.5 1223.0614,93.6 1221.2423,96.4125 1219.9611,98.75 1218.68,101.0875 1217.0396,103 1216.3159,103 1215.5921,103 1215,102.70672 1215,102.34826 z M 1254.4958,102.99318 C 1254.1535,102.43942 1254.814,100.66552 1255.9636,99.051182 1257.1131,97.436839 1258.7348,94.62741 1259.5674,92.808006 1260.4,90.988603 1262.1356,87.7 1263.4242,85.5 1264.7129,83.3 1267.0321,79.109973 1268.5781,76.188828 1270.1241,73.267684 1271.7814,70.635123 1272.261,70.338693 1274.1478,69.17261 1274.2257,71.179226 1272.4514,75.239805 1269.5412,81.89985 1256.8521,104 1255.9383,104 1255.4872,104 1254.838,103.54693 1254.4958,102.99318 z M 1195.623,103.19907 C 1195.3149,102.70049 1196.4001,100.18384 1198.0346,97.606514 1199.6691,95.029186 1201.692,91.475859 1202.5299,89.710232 1205.8192,82.77956 1208.4799,79.146616 1209.5113,80.177978 1210.2189,80.885566 1209.0421,83.565747 1203.2557,94.424759 1198.6828,103.00642 1196.8244,105.14286 1195.623,103.19907 z"/>
</svg>
