<?xml version="1.0" encoding="UTF-8"?>
<svg xmlns="http://www.w3.org/2000/svg" viewBox="658.07 13.35 35.77 87.51">
  <path d="M 664.40625,91.71875 C 665.5849,91.328713 667.84382,89.426288 669.96875,86.90625 L 674.25,81.84375 674.375,61.65625 C 674.4419,50.563655 674.13093,39.375256 673.6875,36.78125 672.79356,31.551793 665.09318,20 662.5,20 660.06784,20 660.71441,21.4996 665.90625,27.96875 L 670.8125,34.09375 671.5,44.3125 C 671.8775,49.923566 672.03263,60.470105 671.84375,67.75 L 671.5,80.96875 667.875,84.59375 664.25,88.21875 663.9375,87.90625 664.40625,91.71875 z M 669.625,17.375 C 669.22566,17.328365 668.90247,17.441278 668.625,17.71875 668.01997,18.323785 671.19793,24.179347 673.8125,27.25 674.63204,28.2125 675.91713,29 676.65625,29 678.29507,29 686,21.682605 686,20.125 686,18.201222 684.10134,18.886871 680.84375,22 679.11719,23.65 677.36106,25 676.9375,25 676.51393,25 675.21849,23.464177 674.0625,21.59375 672.49141,19.051675 670.82301,17.514905 669.625,17.375 z M 690.8125,22.25 C 690.46921,22.313859 689.83561,22.850019 688.90625,24 687.79503,25.375 686.26804,27.282026 685.5,28.21875 681.62062,32.950181 681.1982,35.213168 681.59375,49.5 681.80694,57.2 682.2147,65.85639 682.5,68.75 683.35913,77.46361 682.23375,81.318609 676.875,87.96875 674.19076,91.299856 672,94.45277 672,95 672,96.879494 673.52262,95.992574 677.59375,91.75 685.64723,83.357356 685.35934,84.82352 684.625,58.375 L 683.96875,34.8125 687.46875,30.03125 C 690.37908,26.066588 691.84236,22.058424 690.8125,22.25 z"/>
</svg>
