<?xml version="1.0" encoding="UTF-8"?>
<svg xmlns="http://www.w3.org/2000/svg" viewBox="527.6 16.87 74.8 93.7">
  <path d="M 533,98.125 533,102.5625 C 534.04351,101.87185 535.24765,100.65872 535.96875,99.3125 536.90512,97.564385 539.55348,93.26523 541.84375,89.75 546.19417,83.072715 546.62409,82 545.03125,82 544.50174,82 542.19171,84.8125 539.875,88.25 537.55828,91.6875 535.34578,94.725 534.96875,95 534.62693,95.249313 533.78144,96.697033 533,98.125 z M 558.78125,92.15625 C 558.50752,92.139648 558.17133,92.445365 557.59375,93.0625 555.25848,95.557686 550.99328,103.64953 551.65625,104.3125 552.63146,105.28771 553.617,104.3564 557,99.34375 558.76037,96.735379 559.86682,94.061989 559.53125,93.1875 559.27503,92.519795 559.05498,92.172852 558.78125,92.15625 z M 533,98.125 C 531.96907,100.00889 531,102.00438 531,102.53125 531,103.45007 531.9124,103.28233 533,102.5625 L 533,98.125 z M 599,88.96875 599,85.1875 C 598.86353,85.133929 598.8357,85.154035 598.6875,85.09375 592.7627,82.683656 590.96966,82.656334 587.96875,84.875 584.28011,87.602127 583.23352,87.54091 577.625,84.40625 573.71825,82.222725 573.07933,81.447296 573.5,79.40625 573.77384,78.077623 574.20379,75.949491 574.46875,74.65625 574.9365,72.373187 581.45209,67 583.75,67 584.37685,67 585.68157,68.35 586.65625,70 588.64432,73.365523 590.0056,73.87296 590,71.25 589.99394,68.410618 586.1801,63 584.1875,63 583.17529,63 581.29175,64.125 580,65.5 576.27619,69.463812 575.31033,68.697958 574.59375,61.25 574.23657,57.5375 573.44078,50.346762 572.84375,45.28125 572.24672,40.215737 572.02041,35.038288 572.34375,33.75 572.66709,32.461712 574.84908,30.156012 577.1875,28.625 L 581.4375,25.8125 583.28125,28.09375 C 584.41635,29.495533 584.90377,31.171828 584.53125,32.4375 580.99623,44.448333 581.49307,50.273186 586.09375,50.8125 588.02244,51.03859 588.91753,50.464244 589.8125,48.5 592.27415,43.097265 591.06404,36.463845 585.75,26.25 583.45211,21.833327 582.0543,21.129379 579.8125,23.25 577.05448,25.858937 571.09865,30 570.09375,30 569.51754,30 568.77244,28.897022 568.4375,27.5625 568.10255,26.227978 567.00478,24.409315 566,23.5 563.62602,21.351574 560.76729,22.777575 559.03125,26.96875 557.83013,29.868513 556,31.112538 556,29.03125 556,28.008046 546.87101,23 545,23 544.41217,23 543.02026,24.9125 541.90625,27.25 540.79224,29.5875 539.00309,33.075 537.9375,35 535.58943,39.241815 535.40464,46.700461 537.5625,49.78125 539.42586,52.441568 541.26466,52.610336 543.5625,50.3125 545.01233,48.862669 545.15093,47.318407 544.59375,39.9375 543.67348,27.746946 544.64608,26.198103 551.03125,29.5 555.68934,31.908795 556.29216,34.077624 554.40625,41.25 553.13306,46.092123 552.91121,49.965478 553.375,58.375 L 553.96875,69.25 550.96875,68.65625 C 549.3278,68.328059 548,68.447466 548,68.9375 548,69.916871 555.34841,76 556.53125,76 556.93702,76 556.94646,74.0875 556.5625,71.75 555.35481,64.397882 555.77371,46.779111 557.3125,40.5 559.49508,31.593902 561.34392,26.690212 562.6875,26.25 567.13116,24.794068 572.58807,53.326857 571.65625,73.1875 571.12123,84.59088 571.16993,84.923377 573.3125,85.59375 574.52147,85.972017 576.7578,87.325258 578.3125,88.625 581.88273,91.609749 583.79257,91.597479 587.90625,88.5625 L 591.1875,86.15625 597.0625,88.28125 599,88.96875 z M 587.03125,37 C 587.57077,37 588,39.25 588,42 588,47.266204 586.47017,48.738998 585.40625,44.5 584.65975,41.525693 585.6469,37 587.03125,37 z M 541,38.5 C 541.55,38.839919 542,40.669959 542,42.5625 542,44.455041 541.55,46 541,46 540.45,46 540,44.169959 540,41.9375 540,39.486133 540.39607,38.12675 541,38.5 z M 574.03125,98 C 572.60602,98 570.78387,101.87708 571.59375,103.1875 572.06852,103.95569 572.74096,103.72048 573.65625,102.46875 575.22677,100.32095 575.41756,98 574.03125,98 z M 593.53125,99 C 591.60183,99 589.67476,102.72539 590.5,104.84375 591.0703,106.3077 591.37628,106.19219 593.0625,104.125 595.35157,101.31876 595.56866,99 593.53125,99 z"/>
</svg>
