<?xml version="1.0" encoding="UTF-8"?>
<svg xmlns="http://www.w3.org/2000/svg" viewBox="873.37 12.55 66.05 98.3">
  <path d="M 881.46875,55.0625 879.28125,59.40625 C 880.22665,59.530664 881.48422,60.014566 883.3125,61.375 886.98313,64.106343 891.32624,65.347126 894.09375,64.46875 896.47805,63.712004 907.72573,49.095406 909.21875,44.8125 910.18735,42.03399 910.06353,41.470025 908.09375,39.875 906.55222,38.626739 906.03065,37.442848 906.46875,36.0625 907.38846,33.164761 917.28752,23 919.1875,23 921.19541,23 922.97695,32.136347 922.0625,37.71875 921.51152,41.082381 921.18012,41.465651 918.8125,41.1875 916.39033,40.90294 915.8207,41.594495 912.15625,49.1875 907.70698,58.406738 907.47801,58.722447 900.78125,64.75 896.7583,68.370932 895.42122,68.994658 891.78125,68.96875 887.05532,68.935113 884.84116,67.985945 880.75,64.1875 879.54601,63.069654 878.7926,62.100805 878.34375,61.3125 L 876.375,65.25 879.4375,67.625 C 886.23946,72.818678 888.99107,73.495957 894.90625,71.53125 902.03978,69.161873 907.83422,63.514832 913.4375,53.53125 917.27112,46.700746 918.74691,44.934019 920.40625,45.0625 924.44095,45.374901 925,44.985736 925,41.96875 925,39.739298 925.5988,38.733415 927.28125,38.09375 929.95814,37.075996 934.53657,29.114942 935.53125,23.75 936.42411,18.934228 935.17981,18.919606 929.4375,23.625 925.47886,26.868803 924.96985,27.04685 924.4375,25.375 922.19225,18.323779 920.99142,17.63912 916.71875,21 913.33982,23.657866 912.62831,23.556655 909.1875,19.875 907.57649,18.151217 905.77258,17.013398 905.1875,17.375 903.54467,18.390321 902.73065,26.17841 903.9375,29.34375 904.80486,31.618646 904.66422,32.752579 903.28125,35.09375 902.33377,36.697703 901.21267,38 900.78125,38 898.64827,38 900.37925,41.242651 903,42.15625 904.65,42.731443 906,43.842874 906,44.625 906,46.568147 902.05435,52.612006 897.375,57.84375 894.05083,61.560335 893.11952,62.083213 890.8125,61.5 889.33193,61.125714 886.40665,59.341499 884.3125,57.53125 L 881.46875,55.0625 z M 906.4375,23.21875 C 907.40718,22.249078 910.3175,25.684626 909.5625,26.90625 909.18996,27.509028 908.48048,28 908,28 906.89934,28 905.61035,24.045904 906.4375,23.21875 z M 930.75,26.03125 C 932.47152,25.985431 932.30727,26.9658 930,30.75 927.75289,34.435522 925,35.071452 925,31.90625 925,29.736067 928.56995,26.089273 930.75,26.03125 z M 921.46875,73.15625 C 920.50071,72.138425 916.74349,76.901733 912.53125,84.5 911.92145,85.6 909.26297,89.79376 906.625,93.8125 903.98702,97.83124 902.07041,101.76874 902.375,102.5625 902.6796,103.35626 903.11292,104 903.34375,104 903.709,104 907.80985,97.907359 914.4375,87.53125 917.0749,83.402191 921.88119,73.589899 921.46875,73.15625 z M 934.25,87.03125 C 932.33607,87.077101 922.548,104.20424 923.75,105.40625 924.71739,106.37363 924.82875,106.26897 930,98.3125 934.56209,91.29327 936.1863,86.984864 934.25,87.03125 z M 897.71875,78.96875 C 896.95909,79.041529 895.90253,79.924599 895.15625,81.5625 894.51358,82.973025 891.5206,87.882009 888.5,92.46875 885.47939,97.055492 883,101.52852 883,102.40625 883,103.28398 883.675,104 884.5,104 885.325,104 886,103.49578 886,102.875 886,102.25422 887.8,99.098 890,95.875 892.2,92.652 894,89.740066 894,89.40625 894,89.072434 894.84716,87.616154 895.875,86.15625 896.90285,84.696347 898.05328,82.4875 898.4375,81.25 898.93875,79.635573 898.47841,78.895971 897.71875,78.96875 z"/>
</svg>
