<?xml version="1.0" encoding="UTF-8"?>
<svg xmlns="http://www.w3.org/2000/svg" viewBox="479.05 13.24 29.36 83.74">
  <path d="M 506.40625 88.46875 L 505.84375 84.5625 C 505.64669 84.616544 505.52865 84.781578 505.3125 84.8125 C 504.02139 84.997197 501.86211 83.969639 499.9375 82.25 L 496.71875 79.375 L 495.875 64.625 C 494.96354 48.847119 493.71002 42.583848 488.96875 30.28125 C 485.82268 22.117844 482.64367 17.04383 481.4375 18.25 C 481.04614 18.641358 481.95524 23.323008 483.46875 28.65625 C 485.78948 36.834002 486.30466 40.879296 486.71875 54.4375 C 487.15799 68.818942 486.58792 76.952297 484.375 88.75 C 483.6129 92.812993 485.59961 93.169014 487.15625 89.25 C 489.09322 84.373456 489.79346 61.02923 488.46875 46.25 C 487.97357 40.72543 488.08399 38 488.78125 38 C 489.35392 38 490.11345 39.9125 490.46875 42.25 C 490.82405 44.5875 491.7741 49.875 492.5625 54 C 493.3509 58.125 493.87886 65.653652 493.75 70.71875 L 493.5 79.90625 L 497.5 84 C 501.27582 87.866794 504.18288 89.261798 506.40625 88.46875 z "/>
</svg>
