<?xml version="1.0" encoding="UTF-8"?>
<svg xmlns="http://www.w3.org/2000/svg" viewBox="823.31 13.67 70.46 93.95">
  <path d="M 881.46875,55.0625 880.5,54.21875 883.65625,47.875 C 885.3985,44.374277 887.15035,40.267614 887.53125,38.75 887.91215,37.232385 888.63593,35.739762 889.125,35.4375 890.5676,34.545922 890.12557,25.619963 888.53125,23.34375 886.04033,19.787463 874.13629,17.94014 875.25,21.28125 875.43865,21.847208 877.75939,22.859186 880.40625,23.53125 888.0675,25.47652 888.60172,27.879838 884,39.8125 878.94874,52.910852 871.68806,63 867.28125,63 864.27561,63 858.09034,59.860845 855.53125,57.03125 852.91246,54.13564 847.06937,51.768978 844.28125,52.46875 841.64521,53.130353 840.20497,55.597166 838.375,62.46875 835.77173,72.244044 837.09928,84.222881 841.28125,88.75 843.53569,91.190491 848.02165,91.710151 852.4375,90.03125 856.72368,88.401647 855.57588,86.673192 850.6875,87.40625 847.25217,87.921409 846.0583,87.701244 844.8125,86.28125 841.8467,82.900757 839.99573,78.100575 840.03125,73.8125 840.06689,69.511309 842.17879,59.130383 843.4375,57.09375 844.6499,55.132046 847.77443,55.957054 852.375,59.46875 854.87018,61.37336 859.21429,64.103789 862.03125,65.53125 L 867.15625,68.125 871,66.125 874.84375,64.09375 876.375,65.25 878.34375,61.3125 C 877.52088,59.86732 878.02548,59.240992 879.28125,59.40625 L 881.46875,55.0625 z M 876.25,84.15625 876.3125,89.125 C 877.8064,86.360641 879,83.946565 879,83.125 879,81.275599 877.44061,81.899583 876.25,84.15625 z M 876.25,84.15625 C 876.22605,84.201638 876.21114,84.203271 876.1875,84.25 875.08659,86.426528 872.94487,89.874915 868.25,97.0625 867.01455,98.953897 866.00205,101.0625 866,101.75 865.99794,102.4375 866.4169,103 866.9375,103 868.00734,103 873.10297,95.063998 876.3125,89.125 L 876.25,84.15625 z M 844.53125,18.1875 C 842.58437,18.463561 841.06052,19.751986 836.96875,23.84375 831.59224,29.22026 831,30.258478 831,33.96875 831,37.147914 831.6183,38.673793 833.65625,40.5625 835.11157,41.911238 836.68657,43 837.15625,43 838.98357,43 837.85647,46.394219 834.9375,49.71875 833.25366,51.636535 830.66022,55.738927 829.1875,58.84375 826.89172,63.683797 826.51114,65.783546 826.53125,73.5 826.54415,78.45 827.12214,84.307924 827.78125,86.53125 829.23954,91.450372 834.1592,96.734152 837.8125,97.28125 841.539,97.839309 842.5,97.548631 842.5,95.90625 842.5,95.115243 841.3329,94.359705 839.84375,94.1875 835.70656,93.709074 832.2936,89.790064 830.40625,83.34375 828.93677,78.324708 828.84551,76.389167 829.8125,69.6875 831.08588,60.862342 834.80976,52.960976 839.1875,49.84375 841.13788,48.454962 842,46.991776 842,45 842,42.237355 839.80051,39 837.9375,39 837.43947,39 836.37222,37.939734 835.53125,36.65625 833.29573,33.244423 835.16302,28.946527 840.75,24.59375 845.79896,20.660141 847.65641,20.041399 846.40625,22.75 845.96201,23.7125 845.5896,26.75 845.5625,29.5 845.51589,34.230339 845.63748,34.512097 848.25,34.8125 849.7688,34.98714 852.45452,34.427026 854.1875,33.5625 858.76778,31.277556 858.98733,32.597838 854.71875,36.625 850.51115,40.59463 849.69197,45.450663 852.75,48.28125 860.11393,55.097474 864.02518,58 865.78125,58 869.68292,58 879,44.252632 879,38.5 879,35.20682 873.85727,32.26212 872,34.5 871.00806,35.695213 871.26641,36.155185 873.40625,36.96875 874.84103,37.514252 876,38.624766 876,39.4375 876,43.743024 868.93152,54 865.96875,54 864.94616,54 863.43984,53.038346 862.625,51.875 861.81016,50.711655 859.75385,48.93482 858.0625,47.90625 854.06308,45.474055 854.17174,43.107834 858.5,37.4375 862.17083,32.628444 863.01636,28.340617 860.5,27.375 859.68179,27.061022 857.09405,27.920485 854.71875,29.3125 848.83461,32.760837 847.07196,31.740961 848.8125,25.8125 850.90188,18.695864 850.85501,18.529363 846.71875,18.1875 845.85943,18.116477 845.18021,18.09548 844.53125,18.1875 z M 874.9375,26 C 873.54623,26 873.80363,28.760128 875.25,29.34375 877.49637,30.25018 881,30.016787 881,28.96875 881,27.993927 876.9247,26 874.9375,26 z M 850.03125,97 C 848.9795,97 847,100.22768 847,101.9375 847,103.35243 848.32631,103.29869 849.8125,101.8125 851.2474,100.3776 851.39584,97 850.03125,97 z"/>
</svg>
