<?xml version="1.0" encoding="UTF-8"?>
<svg xmlns="http://www.w3.org/2000/svg" viewBox="135 10.77 39 97.78">
  <path d="M 150.78742,43 C 150.41515,42.175 149.91876,39.25 149.68432,36.5 149.44988,33.75 148.21158,28.685921 146.93254,25.246491 143.80809,16.844592 145.20247,15.217886 150.8856,20.634789 156.90393,26.37118 165.54712,44.115686 162.25,43.965936 161.8375,43.947201 159.80389,40.459701 157.73086,36.215936 155.65783,31.972171 152.61043,26.925 150.95886,25 L 147.956,21.5 148.61834,24.5 C 148.98263,26.15 149.91439,28.75743 150.68892,30.294288 151.55696,32.016687 151.97577,35.277289 151.78072,38.794288 151.60667,41.93243 151.15968,43.825 150.78742,43 z M 137,76.125 137,82.0625 C 137.48658,81.218733 137.74365,80.699549 138.28125,79.8125 144.24597,69.970696 150,59.706478 150,58.90625 150,56.552653 148.00551,58.76498 142.53125,67.25 140.7392,70.027638 138.97833,72.946116 137,76.125 z M 168.15625,59 C 166.93435,59 164.20254,63.230784 152.21875,83.5 148.6418,89.55 144.57766,95.961203 143.21875,97.75 141.10534,100.53198 140.94492,101.24073 142.09375,102.625 143.32622,104.11002 143.52596,104.10665 144.46875,102.5 145.03383,101.53703 147.82671,97.173519 150.6875,92.8125 153.54828,88.451481 156.21678,83.892382 156.59375,82.6875 156.97072,81.482618 158.32526,79.242199 159.625,77.6875 160.92474,76.132801 162,74.300122 162,73.625 162,72.949879 163.28706,70.347671 164.875,67.84375 168.21793,62.572503 169.5437,59 168.15625,59 z M 172,90.46875 172,83.15625 C 168.56725,88.783203 164.97383,94.511986 164,95.75 162.00501,98.286227 161.42389,101.08014 162.65625,102.3125 163.67873,103.33498 165.93927,101.03314 168.15625,96.6875 168.94068,95.149902 170.55708,92.701233 172,90.46875 z"/>
</svg>
