<?xml version="1.0" encoding="UTF-8"?>
<svg xmlns="http://www.w3.org/2000/svg" viewBox="1409.1 8.28 52.74 95.93">
  <path d="M 1459.4375,46.78125 1453.8125,49.25 C 1450.3458,50.760179 1446.7737,52.000068 1445.875,52 1444.8301,51.999921 1443.4099,49.98849 1441.9688,46.4375 L 1439.7188,40.90625 1442.25,38.1875 C 1445.5923,34.630133 1449,28.090687 1449,25.21875 1449,22.036706 1446.5731,21.434729 1442.0625,23.46875 1439.9592,24.417201 1437.4943,25.034508 1436.5938,24.84375 1435.1246,24.532589 1435.1919,24.111077 1437,20.75 1439.5268,16.053241 1439.5396,14.317473 1437.0625,13.53125 1434.2619,12.642369 1429.8357,15.24632 1425.1562,20.5625 1418.1303,28.544487 1417.2835,35.543865 1423,38.5 1426.156,40.132028 1426.8964,42.927512 1424.75,45.1875 1421.5907,48.51402 1415.895,58.050397 1413.8125,63.5 1411.9724,68.315647 1411.5038,71.501785 1411.5,79.59375 1411.4956,89.135253 1411.6734,89.900533 1414.4688,93.9375 1417.1835,97.857978 1417.669,98.135116 1420.8125,97.625 1422.6936,97.319732 1424.9807,96.426972 1425.875,95.625 1426.7693,94.823029 1429.184,93.852149 1431.25,93.46875 1434.5743,92.851835 1435.3701,93.120503 1438.1875,95.875 1439.9384,97.586862 1441.8544,99.02163 1442.4375,99.0625 1443.0206,99.103371 1444.5665,99.352246 1445.875,99.59375 1447.2645,99.850227 1450.1394,98.976605 1452.7812,97.5 1455.269,96.109597 1457.3575,95.104472 1457.4375,95.25 1457.4685,95.306395 1457.8066,96.072303 1457.9688,96.4375 L 1458,96 1457.75,87.96875 C 1457.4984,89.195244 1457.1477,90.540909 1456.6562,91.1875 1454.7525,93.692317 1447.9392,95.74682 1444.5625,94.84375 1442.9924,94.423837 1440.5262,93.008012 1439.0938,91.6875 1435.9704,88.807986 1433.2772,87.723238 1432.4688,89.03125 1432.1436,89.557229 1431.0566,90 1430.0312,90 1429.006,90 1426.8216,91.125 1425.1875,92.5 1423.5534,93.875 1421.8143,95.000983 1421.3438,95 1420.8731,94.999016 1419.205,92.938472 1417.625,90.4375 1414.9152,86.148409 1414.7772,85.42295 1415.25,77.6875 1415.8729,67.495155 1418.2676,60.219565 1423.4688,52.65625 1430.5255,42.394794 1430.5096,42.392045 1429.4375,39.3125 1428.8979,37.76256 1427.4797,36.04292 1426.25,35.5 1424.4892,34.722616 1424,33.712236 1424,30.65625 1424,27.458373 1424.7148,26.066538 1428.0312,22.75 1430.2448,20.53652 1432.2625,18.950011 1432.5312,19.21875 1432.8,19.487489 1432.304,21.3951 1431.4375,23.46875 1430.5711,25.5424 1430.1143,27.864203 1430.4062,28.625 1431.1011,30.43567 1435.1662,30.376119 1439.6562,28.5 1444.1546,26.620472 1444,26.607051 1444,29.0625 1444,30.224301 1441.8249,33.197797 1439,35.90625 1433.643,41.042517 1432.8558,43.33623 1435.9062,44.96875 1436.9603,45.532865 1438.5733,48.179207 1439.4688,50.875 1441.5809,57.234008 1444.0521,57.858375 1451.8438,53.90625 1456.182,51.705762 1458.3128,50.935237 1459.2812,51.28125 L 1459.4375,46.78125 z M 1459.2188,53.6875 C 1457.4424,56.041447 1451.8384,59.911298 1447.1875,61.6875 L 1442.7188,63.375 1438.75,58.6875 C 1436.5722,56.10743 1434.2536,54 1433.5938,54 1431.795,54 1426.4291,59.962153 1424.1562,64.5 1422.0068,68.791498 1420.4073,79.597889 1421.4375,82.84375 1422.3471,85.709454 1424.7531,86.244565 1430.2188,84.84375 L 1435.0312,83.625 1437.8438,86.96875 C 1440.3667,89.990697 1441.002,90.263011 1444.5938,89.78125 1446.7836,89.487522 1450.5522,88.292516 1452.9688,87.125 1455.3718,85.963912 1457.4642,85.010439 1457.6562,85 L 1457.5,79.9375 C 1456.4356,81.431449 1454.6494,82.390065 1451.125,84 1445.4896,86.574196 1443.7901,86.515334 1440.875,83.65625 1436.7041,79.565482 1435.2149,79.157045 1430.4375,80.875 1424.4526,83.027137 1423.7215,82.084436 1424.9062,73.71875 1425.9041,66.672909 1429.738,60 1432.8125,60 1433.6866,60 1436.0075,61.553706 1437.9688,63.46875 1441.3924,66.811906 1441.7133,66.924195 1445.5312,65.875 1447.7183,65.273995 1451.4189,63.66211 1453.7812,62.28125 1456.1436,60.900389 1458.3613,60.017553 1458.6875,60.34375 1458.7124,60.368686 1458.6956,61.022577 1458.7188,61.09375 L 1459,60 1459.2188,53.6875 z"/>
</svg>
