<?xml version="1.0" encoding="UTF-8"?>
<svg xmlns="http://www.w3.org/2000/svg" viewBox="755.3 11.68 70.28 95.05">
  <path d="M 810.81149,27.311493 C 810.98589,26.086221 810.20557,24.205566 809.03857,23.038574 807.35144,21.351442 806.56658,21.161594 804.9206,22.042496 801.97793,23.617365 801.49568,25.785253 803.57654,28.084578 806.0091,30.772528 810.38544,30.304897 810.81149,27.311493 z M 775.36514,27.92742 C 778.63821,25.35282 778.65879,24.477761 775.49499,22.404763 772.36964,20.356954 770,21.888282 770,25.955778 770,30.521504 771.40902,31.039306 775.36514,27.92742 z M 783.60982,93.25 C 781.68733,84.768508 781.69057,84.752052 786.46005,78.75 788.97311,75.5875 791.43434,73 791.92945,73 792.42457,73 794.44299,75.19779 796.41483,77.883977 799.90376,82.636847 801.03165,87.445083 799.15139,89.55 798.68466,90.0725 798.58788,91.605641 798.93632,92.95698 799.50765,95.172714 799.84296,94.837155 802.3513,89.539476 803.94283,86.178103 804.90374,82.774096 804.59746,81.582495 804.30306,80.437123 802.26092,76.8 800.05936,73.5 797.85781,70.2 796.04382,66.534116 796.02827,65.353592 796.01208,64.124327 797.51039,61.881045 799.5348,60.103592 806.96367,53.580951 814.69401,57.592508 816.52017,68.91793 817.1116,72.585804 817.40394,73.02958 818.24213,71.531829 820.07079,68.264188 818.42108,59.472367 815.06359,54.592423 813.36438,52.122714 811.54976,49.839768 811.03108,49.519209 809.85599,48.792962 803.19313,51.515241 800.76297,53.71451 799.56545,54.798247 798.61686,55.01686 797.96039,54.360391 796.63927,53.039271 796.40428,44.211872 797.45017,35.194504 L 798.29751,27.889008 794.44581,23.944504 C 792.32737,21.775027 790.11833,20 789.53683,20 788.02795,20 782.99792,24.848484 783.01082,26.290469 783.01678,26.955711 783.69178,29.709019 784.51082,32.408931 786.23842,38.103804 786.52894,53.555063 784.92703,54.545098 784.3369,54.90982 781.68439,54.082564 779.03257,52.70675 770.46222,48.260296 768.7583,48.296167 764.72519,53.007948 762.60646,55.483207 761.04482,58.490389 760.80315,60.560423 760.5823,62.452191 760.47968,64 760.57511,64 760.67054,64 762.46811,62.425 764.56972,60.5 767.86245,57.483982 769.07673,57 773.35103,57 777.12757,57 779.10929,57.608716 781.65561,59.550891 786.25642,63.0601 786.08542,66.368201 780.92392,73.705594 777.41681,78.691184 776.92804,80.01175 777.42234,83.166204 777.73831,85.182616 778.64955,88.107616 779.4473,89.666204 780.24506,91.224792 781.13165,93.2875 781.4175,94.25 782.30046,97.223032 784.3033,96.309459 783.60982,93.25 z M 777.08754,92.914562 C 775.38939,88.467571 774,83.587338 774,82.069598 774,80.548281 775.79481,76.533147 778,73.121295 780.2,69.717467 782,66.357327 782,65.654317 782,63.309754 776.27224,60 772.21481,60 766.98338,60 763.29947,64.270405 761.52244,72.394645 760.32804,77.855215 758.49922,73.487166 758.51019,65.2 758.519,58.541319 758.88526,56.936863 761.21851,53.335898 766.14183,45.737599 770.35447,44.357001 777.5,48 784.9492,51.797816 785.64585,50.378435 782.69841,37.408644 780.74838,28.827796 780.66979,28.76644 775.40077,31.711354 770.92094,34.215176 770.78565,34.22935 768.97534,32.384515 765.60751,28.952438 765.6015,25.850194 768.95373,21.222575 772.50896,16.31472 774.34603,15.999277 778.1498,19.643522 L 780.90905,22.287043 784.48932,19.143522 C 786.45847,17.414585 788.82246,16 789.74263,16 790.66281,16 793.06231,17.607901 795.07487,19.573113 L 798.73407,23.146226 803.45179,19.823113 808.1695,16.5 810.57761,19.297464 C 815.86026,25.434228 814.43322,32.563975 807.94965,32.427259 806.05234,32.387252 803.73134,32.008837 802.79187,31.586338 801.46445,30.989369 800.91754,31.451337 800.33801,33.659079 799.37587,37.324428 799.28598,48.613691 800.21154,49.54243 800.60289,49.93512 803.0117,49.274642 805.56446,48.074703 808.11722,46.874763 810.88138,46.029571 811.70703,46.196497 814.24406,46.709424 818.90574,54.191932 820.4929,60.29879 822.29921,67.248837 822.38569,70.398727 820.8503,73.315741 818.02433,78.684639 815.55781,77.512647 814.1012,70.108843 812.82238,63.608748 810.09764,60 806.46865,60 801.69361,60 796.63013,66.876617 800.35319,68.30529 801.83008,68.872025 808.04063,81.063529 807.93417,83.18699 807.7954,85.955104 800.35667,99.5 798.97523,99.5 796.62851,99.5 794.8074,94.636788 795.98966,91.527184 797.62978,87.213354 797.17407,84.632956 794.12765,80.98384 790.8336,77.038101 789.40418,77.521128 786.54514,83.546112 785.23465,86.307775 785.11483,87.751979 785.94745,90.750115 787.38127,95.913036 787.28971,96.710295 785,99 781.59305,102.40695 780.34612,101.44794 777.08754,92.914562 z"/>
</svg>
