<?xml version="1.0" encoding="UTF-8"?>
<svg xmlns="http://www.w3.org/2000/svg" viewBox="976 14.19 19.38 88.72">
  <path d="M 980.875 50.5625 L 980.5 56.125 C 980.50626 56.133033 980.55717 56.116376 980.5625 56.125 C 980.9092 56.685972 981.03632 57.235392 980.84375 57.34375 C 980.82956 57.351736 980.44703 57.717391 980.40625 57.75 L 980 64 L 979.9375 64.15625 C 980.18543 65.129479 980.30908 67.398045 980.15625 70.40625 C 979.89641 75.520901 979.59033 76.809817 978 77.875 L 978 78 L 978.125 82.6875 C 979.40268 83.055282 979.7799 84.098668 979.25 86.125 C 979.10679 86.672639 978.73697 87.274161 978.28125 87.875 L 978.46875 94.15625 C 978.82379 94.184715 978.96314 94.302761 978.78125 94.5 C 978.3881 94.926317 978.49971 96.069302 979.03125 97.0625 C 979.73733 98.381826 981.14614 98.876722 984.25 98.84375 C 989.58844 98.787039 991 97.631135 991 93.375 C 991 91.517345 991.24532 90 991.53125 90 C 991.54867 90 991.84667 90.210946 991.875 90.21875 L 992.375 84.78125 C 991.47039 83.837733 991.03826 83.050886 991.03125 82.3125 C 991.01234 80.321216 991.56198 79.521999 992.84375 79.78125 L 993.375 73.875 C 992.84829 71.731351 992.6539 63.766502 992.84375 48.78125 C 993.02002 34.868118 992.86648 22.324038 992.5 20.875 C 991.89329 18.476077 991.38661 18.21875 986.90625 18.21875 C 983.9417 18.21875 981.97682 18.691413 981.9375 19.375 C 981.9016 19.999038 981.90359 27.113617 981.9375 35.1875 L 982 49.875 L 980.875 50.5625 z M 986.75 22.5625 C 987.27866 22.304004 987.93818 22.426484 988.78125 22.75 C 990.04262 23.234033 990.1535 27.183273 989.625 50.90625 C 989.28688 66.083199 988.56974 81.65 988.03125 85.5 C 987.49277 89.35 987.04924 93.0625 987.03125 93.75 C 987.01325 94.4375 985.875 95 984.5 95 C 981.53418 95 981.5468 95.431667 983.0625 71.5 C 983.61985 62.7 984.27831 48.343538 984.5 39.59375 C 984.80645 27.498733 985.16403 23.337988 986.75 22.5625 z "/>
</svg>
