<?xml version="1.0" encoding="UTF-8"?>
<svg xmlns="http://www.w3.org/2000/svg" viewBox="1123.93 9.45 34.07 94.87">
  <path d="M 1138.8961,28.712763 C 1136.9443,27.228673 1133,19.698569 1133,17.456505 1133,14.750922 1135.3622,16.399295 1137.8249,20.823459 1139.1036,23.120556 1140.5382,25 1141.0128,25 1141.4874,25 1143.3357,22.967017 1145.1201,20.48226 1149.9486,13.758765 1151.0419,16.5154 1146.3462,23.573419 1142.1183,29.928255 1141.267,30.515491 1138.8961,28.712763 z M 1149.6483,38.615619 C 1145.5401,33.60219 1145.0433,30.175772 1148.0323,27.470781 1149.15,26.459225 1150.9867,24.13948 1152.1138,22.315794 1154.0857,19.125228 1156,17.962817 1156,19.955994 1156,20.48179 1154.65,23.201593 1153,26 1151.35,28.798407 1150,31.571303 1150,32.161991 1150,32.75268 1151.3734,34.800184 1153.052,36.712 1154.7306,38.623817 1155.94,40.680099 1155.7395,41.281515 1154.9458,43.662739 1153.1344,42.869969 1149.6483,38.615619 z M 1126.3763,47.538143 C 1126.0748,46.752666 1127.2169,44.091674 1128.9141,41.624826 1130.6114,39.157979 1132,36.448856 1132,35.604553 1132,34.76025 1130.6641,31.963002 1129.0314,29.388446 1126.2492,25.001357 1125.9273,23 1128.004,23 1128.936,23 1137,33.802099 1137,35.05058 1137,35.449328 1135.425,38.065223 1133.5,40.863681 1131.575,43.662139 1130,46.364489 1130,46.868904 1130,48.471086 1126.9504,49.034294 1126.3763,47.538143 z M 1137,98.248446 C 1131.3801,95.441004 1129.8179,91.21124 1130.2603,80 1130.5689,72.177935 1131.1972,69.117813 1133.8176,62.674442 1137.2637,54.200376 1137.926,49 1135.559,49 1134.7665,49 1133.8399,49.45 1133.5,50 1132.7609,51.195881 1131,51.333526 1131,50.195417 1131,49.752897 1132.6141,47.628669 1134.5868,45.474911 1138.9095,40.755726 1139.8438,41.624748 1140.0961,50.598868 1140.2204,55.01695 1139.5932,58.081298 1137.6006,62.792063 1134.316,70.557531 1132.375,83.197338 1133.6435,88.561024 1134.3033,91.351146 1135.4609,92.94907 1137.8204,94.327124 1140.926,96.140861 1141.1779,96.148947 1143.0071,94.493559 1147.1707,90.725532 1149.2882,76.179382 1146.9164,67.637679 1144.7664,59.894582 1144.175,53.49764 1145.1701,48.75 1146.2788,43.460733 1147.6073,42.888615 1150.8257,46.314451 1153.8149,49.496315 1153.671,51.385222 1150.5,50.589356 1148.8377,50.172139 1147.9645,50.387117 1147.894,51.230948 1147.6613,54.018778 1148.2398,58.500507 1149.1371,60.860605 1149.6584,62.2317 1150.4899,67.634448 1150.9849,72.866713 1151.8617,82.133468 1151.8081,82.562823 1148.9164,89.439961 1146.3046,95.651551 1143.0992,100.00321 1141.1392,99.998446 1140.7876,99.997591 1138.925,99.210091 1137,98.248446 z"/>
</svg>
