<?xml version="1.0" encoding="UTF-8"?>
<svg xmlns="http://www.w3.org/2000/svg" viewBox="646.76 15.45 16.96 83.49">
  <path d="M 660.46875,89.0625 660.4375,88.875 660.90625,83.75 C 660.24462,82.71055 659.91882,81.650911 660.3125,80.625 660.57032,79.953126 660.83019,79.620749 661.28125,79.53125 L 661.71875,74.875 C 661.25636,74.446556 660.82144,74.024232 660.65625,73.59375 660.3406,72.771175 660.05779,62.716517 660.03125,51.28125 659.98184,29.989706 659.3848,21.370611 657.875,20.4375 657.00082,19.897231 656.79027,89.074457 657.65625,92.25 658.3724,94.876126 660,94.355421 660,91.5 660,90.125 660.1125,88.999723 660.25,89 660.25533,89.000011 660.45649,89.059824 660.46875,89.0625 z M 649.875,21 C 648.76077,21 648.81421,19.244863 649.15625,47.5 649.31604,60.7 649.50552,75.775 649.5625,81 649.61948,86.225 649.74978,91.59 649.84375,92.9375 649.9778,94.859712 650.26559,95.140656 651.21875,94.1875 652.12904,93.277209 652.38338,85.279614 652.21875,62.25 651.99349,30.737962 651.42669,21 649.875,21 z"/>
</svg>
