<?xml version="1.0" encoding="UTF-8"?>
<svg xmlns="http://www.w3.org/2000/svg" viewBox="121.16 15.58 22.16 82.15">
  <path d="M 123.43858,89.25 C 124.56549,78.70192 125.0211,66.417244 125.07365,45.163857 125.10403,32.878979 125.37303,22.191479 125.67143,21.413857 126.47583,19.317628 128.05928,19.68261 131.19528,22.687091 L 134,25.374182 136.91874,22.577852 C 138.52405,21.039871 140.2462,20.034125 140.74574,20.342862 141.2782,20.671936 141.31157,23.716964 140.82639,27.7021 140.3712,31.440945 140.20709,35.055127 140.46171,35.733615 140.71633,36.412103 140.45895,42.037103 139.88975,48.233615 139.32056,54.430127 138.77306,67.038397 138.6731,76.251993 138.56096,86.587248 138.10996,93.001994 137.49567,92.998787 136.43789,92.993264 136.15911,62.127412 137.0215,40.5 L 137.5,28.5 134.66426,28.80129 C 133.10461,28.966999 131.18123,28.565374 130.3901,27.908789 129.59896,27.252204 128.79148,26.891624 128.59569,27.107499 128.39991,27.323375 127.98998,41 127.68475,57.5 127.15344,86.221496 126.33999,94 123.86773,94 123.34581,94 123.1558,91.896912 123.43858,89.25 z"/>
</svg>
