<?xml version="1.0" encoding="UTF-8"?>
<svg xmlns="http://www.w3.org/2000/svg" viewBox="2 16.83 41.28 91.78">
  <path d="M 5,40.485976 C 5,38.315921 9.2674852,32.02706 10.75,32.012379 12.5607,31.994447 12.297329,33.583054 9.75,38.04418 7.4832372,42.013952 5,43.290491 5,40.485976 z M 29,43.681501 C 29,38.791964 26.152809,29.95737 23.403723,26.316722 20.701875,22.738634 20.355664,21 22.345012,21 26.048429,21 30.739342,30.950682 31.460237,40.335828 31.879548,45.794734 31.703361,47 30.486064,47 29.469853,47 29,45.95078 29,43.681501 z M 4,67.576725 C 4,66.793924 5.0361211,64.881424 6.3024912,63.326725 7.5688614,61.772026 10.743935,57.023561 13.35821,52.774581 18.160931,44.96872 19.633584,43.30025 20.742143,44.40881 22.19546,45.862126 7.8085275,69 5.4515512,69 4.653198,69 4,68.359526 4,67.576725 z M 6.3371556,99.43623 C 5.5424992,97.365389 7.0778169,94.120209 13.403594,84.5 16.296818,80.1 20.06942,74.25 21.787155,71.5 26.747375,63.558957 28.064474,61.921813 29.018529,62.511452 30.553112,63.459876 28.319068,67.845921 19.433586,81.32935 17.197058,84.723207 13.670828,90.5375 11.59752,94.25 9.5242115,97.9625 7.6274748,101 7.3825494,101 7.137624,101 6.6671968,100.2963 6.3371556,99.43623 z M 26,100.34439 C 26,99.433806 27.029803,97.296306 28.28845,95.594391 29.547098,93.892476 32.117177,89.9125 33.999738,86.75 39.605066,77.333648 41.2838,80.22101 35.818539,89.878273 29.984008,100.18805 26,104.43482 26,100.34439 z"/>
</svg>
