<?xml version="1.0" encoding="UTF-8"?>
<svg xmlns="http://www.w3.org/2000/svg" viewBox="922.91 12.88 20.11 91.69">
  <path d="M 927.375 72.9375 L 927.71875 75.4375 L 926.6875 80.40625 C 926.93778 80.634784 927 81.089892 927 81.96875 C 927 82.591873 926.62443 83.233095 925.9375 83.90625 L 924.90625 88.8125 C 926.59031 88.426534 927 89.427771 927 92.5 C 927 94.241667 927.27329 95.960786 927.625 96.3125 C 927.97671 96.664214 928.60631 96.743314 929 96.5 C 929.6297 96.110824 931.41733 67.469907 931.3125 59.5 C 931.29079 57.85 931.67322 48.486858 932.15625 38.6875 C 932.63928 28.888143 932.75301 20.404815 932.40625 19.84375 C 930.67915 17.049246 929.97337 22.754718 929 47.46875 C 928.41162 62.407936 927.98253 69.399596 927.375 72.9375 z M 939.5625 20.0625 C 939.2844 20.014538 938.99013 20.20565 938.6875 20.71875 C 937.95925 21.953474 937.10075 39.60182 936.40625 67.59375 C 935.9199 87.195928 936.05688 94.233656 936.96875 95.9375 C 939.36098 100.40741 940.19406 96.710434 939.0625 86.5625 C 938.46728 81.224531 938.16324 76.518202 938.40625 76.125 C 938.64927 75.731798 939.11246 65.096868 939.4375 52.46875 C 939.76254 39.840632 940.30835 27.647472 940.625 25.375 C 941.01337 22.587925 940.39681 20.206386 939.5625 20.0625 z "/>
</svg>
