<?xml version="1.0" encoding="UTF-8"?>
<svg xmlns="http://www.w3.org/2000/svg" viewBox="702.51 14.7 56.04 87.5">
  <path d="M 717.25,31.947419 C 719.61672,31.290149 721,30.306845 721,29.281737 721,27.114933 718.09104,24 716.06752,24 713.35227,24 710,26.977968 710,29.390037 710,33.265372 711.10313,33.654491 717.25,31.947419 z M 732.45594,65.655873 C 734.07862,64.469341 734.32213,62.552095 734.53279,49.303643 734.66404,41.049186 735.07818,33.329043 735.4531,32.14777 736.74901,28.064709 741.82644,29.659787 748.75,36.325 752.48853,39.924031 753,40.158502 753,38.273308 753,33.037747 748.03713,25.784097 743.15868,23.889391 741.32649,23.177798 739.58687,23.640903 735.15868,26.019083 725.40531,31.257177 724.89176,31.858702 726.2107,36.5 726.83588,38.7 727.51858,46.4625 727.72781,53.75 728.12548,67.600634 728.50148,68.547448 732.45594,65.655873 z M 746.88298,87.787295 C 747.93417,84.945671 747.42313,83.194614 744.4758,79.53908 741.73773,76.14309 740.11432,76.760732 741.83756,80.542827 742.4769,81.94603 743,84.347932 743,85.880386 743,90.395952 745.46937,91.608646 746.88298,87.787295 z M 715.71436,88.627233 C 715.3325,86.274101 715.76453,84.27197 717.14343,82.004549 719.38528,78.318123 718.98398,76 716.10396,76 713.96474,76 710,80.383526 710,82.748704 710,84.77969 714.14816,92 715.31498,92 715.83567,92 716.01539,90.482255 715.71436,88.627233 z M 712.24346,94.75 C 710.20053,92.199988 707,85.011544 707,82.973116 707,81.814508 708.19376,79.301451 709.65281,77.388544 L 712.30562,73.910532 709.15281,70.657659 C 705.05902,66.433945 705.17626,63.917544 709.70011,58.910186 L 713.40021,54.81461 715.95011,57.815073 C 718.68495,61.033166 724.34366,64.323009 725.37322,63.293451 727.00244,61.664223 724.96466,38.671007 722.83905,34.699258 722.18249,33.472472 721.28031,33.08067 720.17331,33.541579 719.25299,33.924763 716.74072,34.707622 714.59049,35.281265 711.03902,36.228733 710.50679,36.109134 708.77896,33.975354 706.25989,30.864436 707.12986,27.386379 711.44423,23.319848 715.53142,19.467439 717.85046,19.78205 721.94035,24.743803 L 724.82121,28.238785 732.28371,24.119393 C 742.13466,18.681548 744.1759,18.763557 750.02527,24.832174 754.87205,29.860615 756,32.84803 756,40.656385 756,47.426652 753.76381,47.460094 747.9021,40.777487 742.12639,34.192921 739.32005,33.028016 737.94511,36.644366 736.62809,40.108391 736.71037,63 738.03984,63 738.61175,63 740.84382,62.1 743,61 747.59871,58.653912 748.00926,58.591979 747.97164,60.25 747.90537,63.170571 729.41005,71.966687 726.72978,70.352331 726.0534,69.944941 722.64761,67.408039 719.16136,64.71477 L 712.82272,59.817918 710.40079,62.093205 707.97886,64.368492 710.73943,67.254584 C 714.25047,70.92527 727.6151,77.335441 730.40484,76.686843 734.96759,75.626031 743.60706,71.887492 746.88423,69.555753 748.78691,68.20198 750.69667,67.31253 751.12815,67.579198 752.41806,68.376407 751.06004,70.629906 748.44696,72.028385 745.35206,73.684727 745.3738,74.988431 748.57498,79.705591 751.48637,83.995713 751.35988,86.580855 747.95634,92.349428 745.46469,96.57245 744.47859,96.798238 741.35257,93.861493 739.45951,92.083056 739.17139,91.028747 739.64138,87.599798 740.07927,84.405005 739.76241,82.928156 738.23413,81.040809 736.37282,78.742187 736.02943,78.674608 732.13681,79.840866 729.2223,80.714073 727.44451,80.773079 726.07838,80.041948 721.90061,77.806075 717.7254,82.532969 718.68033,88.417519 719.54988,93.775963 715.02747,98.225041 712.24346,94.75 z"/>
</svg>
