<?xml version="1.0" encoding="UTF-8"?>
<svg xmlns="http://www.w3.org/2000/svg" viewBox="210.81 14.14 37.14 84.87">
  <path d="M 212.8125,95.15625 C 213.4739,94.730163 215.88128,93.98753 218.8125,93.375 231.56315,90.710529 236.36765,86.138885 238.875,74.34375 239.55781,71.131654 240.59395,67.002011 241.15625,65.1875 241.71855,63.372989 242.55455,57.972989 243.03125,53.1875 243.50795,48.402011 244.36099,39.790011 244.9375,34.03125 245.95019,23.915415 245.7265,20 244.09375,20 243.66555,20 242.74201,27.5375 242.03125,36.75 240.72305,53.706276 236.71358,74.771124 233.71875,80.5625 230.71685,86.36753 224.35216,89.88063 216.65625,89.96875 214.58274,89.992493 213.69321,89.611555 213.5,89.09375 L 212.8125,95.15625 z M 213.5625,88.5625 C 213.97342,87.907833 215.18512,87.12475 217.53125,86.3125 219.68976,85.565207 222.88845,83.558123 224.625,81.875 227.47464,79.113018 227.78538,78.217905 227.84375,72.65625 227.87932,69.267037 228.35546,62.261094 228.90625,57.09375 230.23766,44.603091 229.19573,18 227.375,18 226.32221,18 226.13332,21.825051 226.4375,37.25 226.89812,60.608198 225.31944,77.118067 222.34375,80.09375 221.25638,81.181123 219.05227,82.163702 217.4375,82.28125 214.84037,82.470309 214.62791,81.908051 214.6875,78.09375 L 214.25,82.53125 213.5625,88.5625 z M 235,19.375 C 234.15759,19.99073 233.84729,23.102193 234.25,27.78125 235.10743,37.74385 231.67779,72.660086 229.40625,77.125 228.67223,78.567769 228.37402,80.030269 228.71875,80.375 231.5921,83.248354 232.81307,78.819342 235.09375,57.34375 237.28465,36.713537 237.67283,21.266582 236.03125,19.625 235.64292,19.236673 235.2808,19.169757 235,19.375 z"/>
</svg>
