<?xml version="1.0" encoding="UTF-8"?>
<svg xmlns="http://www.w3.org/2000/svg" viewBox="531 22.48 23.04 81.94">
  <path d="M 549.53971,81.064254 C 549.21054,80.53165 548.75292,68.63493 548.52277,54.627097 548.18773,34.23493 548.36996,28.937849 549.43701,28.05228 551.66548,26.202809 552.03698,30.380498 551.96338,56.46244 551.90109,78.537594 551.36174,84.012351 549.53971,81.064254 z M 535.97496,77.75 C 535.96119,75.4125 535.69245,63.4875 535.37776,51.25 535.00733,36.844799 535.15473,29 535.79581,29 536.34043,29 537.05569,29.702746 537.38529,30.561657 538.32946,33.022138 539.38197,74.150372 538.60654,78.283776 537.66092,83.324364 536.00583,82.988653 535.97496,77.75 z M 533,98.980128 C 533,97.37533 537.91774,90 538.98779,90 540.19834,90 538.67225,94.199558 536.25246,97.527207 534.4075,100.06435 533,100.6931 533,98.980128 z"/>
</svg>
