<?xml version="1.0" encoding="UTF-8"?>
<svg xmlns="http://www.w3.org/2000/svg" viewBox="871.96 18.03 56.94 87.25">
  <path d="M 926.25,44.53125 C 926.23377,44.627514 926.20301,45.154544 926.1875,45.21875 925.73716,47.083202 910.35533,58.007081 908.1875,58 906.08734,57.993139 899,51.821688 899,50 899,49.084989 900.00835,47.789508 901.25,47.125 904.65025,45.305238 907.85904,39.976708 908.90625,34.4375 910.19917,27.598551 908.8227,26.689678 904.625,31.59375 900.18472,36.781218 891.76161,40.87165 889.46875,38.96875 886.58923,36.578953 884.6754,31.593001 884.78125,26.75 884.86724,22.815375 884.5751,22 883.09375,22 879.19527,22 874.54725,30.482088 875.3125,36.1875 875.88978,40.491386 880.29942,47.002923 883.15625,47.75 885.77734,48.435432 885.50247,52.306708 882.5,56.84375 879.1421,61.917882 874.69714,79.288392 875.46875,84.34375 876.25117,89.469896 879.32338,95.333773 882.59375,97.90625 886.93111,101.31802 891.84895,100.38405 899.15625,94.78125 901.1604,93.244591 903.41577,92 904.1875,92 904.95923,92 907.35176,93.8 909.5,96 913.72406,100.32583 915.90786,100.81466 920.40625,98.46875 921.96636,97.655151 923.97147,97.262243 924.96875,97.53125 L 924.90625,96.65625 924.90625,91.96875 C 924.47547,92.666693 924.04962,93.382266 923.34375,93.9375 918.2278,97.961702 916.3327,97.751577 910.9375,92.4375 L 906.03125,87.59375 901.75,89.8125 C 899.40758,91.037621 895.96258,93.169387 894.09375,94.53125 889.87673,97.604284 886.95373,97.664344 884.28125,94.75 881.41707,91.626614 878.00299,84.138205 878.03125,81.0625 878.0751,76.288115 881.97389,63.653255 885.5625,56.71875 887.52679,52.923037 888.89034,49.179142 888.59375,48.40625 888.29716,47.633357 886.661,46.14187 884.9375,45.09375 878.94442,41.44914 876.48092,34.434197 879.15625,28.5625 880.72103,25.128164 882,25.325349 882,29.03125 882,32.279207 884.89254,38.767539 887.53125,41.40625 889.98274,43.857739 893.0478,43.337663 898.875,39.5 905.00283,35.464343 905,35.463583 905,37.65625 905,38.565607 902.75,41.686031 900,44.59375 897.25,47.50147 895,50.304839 895,50.8125 895,52.802181 904.96059,61 907.375,61 908.72749,61 913.20091,58.75 917.3125,56 921.42409,53.25 925.07177,51 925.40625,51 925.5407,51 925.52881,51.630211 925.625,51.90625 L 926.3125,45.03125 926.25,44.53125 z M 925.3125,54.96875 C 923.97158,57.051517 920.26953,59.992879 912.53125,65.25 907.07374,68.957642 904.73653,68.740447 899.59375,64 897.19792,61.791598 894.62937,60.207147 893.875,60.5 891.60744,61.380276 888.23771,68.241213 886.90625,74.6875 885.8921,79.59756 885.88813,81.341608 886.9375,83.875 888.64149,87.988795 890.94242,87.893885 897.65625,83.4375 903.93563,79.269483 905.39603,79.473744 909.34375,85.0625 912.14439,89.027337 912.26989,89.069316 916.84375,88.40625 919.40219,88.035357 922.23481,87.366598 923.125,86.90625 923.87866,86.516503 924.43923,86.503242 924.90625,86.65625 L 924.90625,83.21875 924.6875,82.625 923.0625,83.46875 C 917.93474,86.120416 913.73028,85.465206 910.59375,81.53125 906.49317,76.388136 904.74615,76.258888 897.875,80.5 889.76792,85.503979 888.58924,84.891998 889.21875,76.09375 889.69963,69.372796 892.05951,64.104762 894.59375,64.03125 895.18959,64.013966 896.98959,65.333807 898.59375,66.96875 902.02652,70.467378 906.82128,71.700139 910.15625,69.9375 911.45167,69.252833 914.975,66.824832 918,64.53125 921.025,62.237667 924.0625,60.029554 924.75,59.625 L 924.90625,59.1875 925.3125,54.96875 z"/>
</svg>
