<?xml version="1.0" encoding="UTF-8"?>
<svg xmlns="http://www.w3.org/2000/svg" viewBox="573.76 17.65 31.23 86.62">
  <path d="M 596.87202,94.25 C 595.08006,89.680691 595.28724,72.164478 597.19276,67.133094 598.67308,63.224403 598.6991,62.070184 597.44068,56.133094 595.35968,46.315231 595.60114,36.141072 598.07185,29.537513 599.21137,26.491881 600.56137,24 601.07185,24 602.34816,24 602.2442,25.056411 600.47417,30.073208 598.01005,37.05727 599.01948,54.90869 602.08756,58.605503 602.98478,59.686583 602.72583,61.184173 600.93859,65.250555 598.39647,71.034454 597.9055,78.662848 599.32959,90.25 599.91453,95.009325 599.8335,97 599.05484,97 598.44745,97 597.46518,95.7625 596.87202,94.25 z M 586.81242,98.340264 C 584.20464,97.625001 584.9836,74.790394 587.89499,66.60554 589.87376,61.04258 589.90511,60.423947 588.4524,55.60554 585.56193,46.018279 586.98949,29.332374 591.12669,24.347345 593.41933,21.584887 593.99595,24.336145 591.85827,27.837981 589.93883,30.982326 589.63363,32.842949 589.6993,41 589.75661,48.118871 590.26798,51.627903 591.73952,55 593.61746,59.303362 593.62905,59.674789 592.00469,63.5 591.07047,65.7 589.70149,70.55354 588.96251,74.285644 587.7074,80.624398 587.76624,81.546413 589.8559,88.285644 591.08624,92.25354 592.18449,96.174782 592.29644,96.999516 592.50562,98.540406 589.88132,99.182002 586.81242,98.340264 z M 578.37458,95.354077 C 577.53673,93.34882 576.5952,87.756438 576.28228,82.926562 575.75891,74.848125 575.93835,73.615575 578.52328,67.533462 581.33036,60.92865 581.33135,60.918196 579.50208,57.210977 578.29091,54.756409 577.51984,50.433621 577.22464,44.443029 576.84185,36.675217 577.09438,34.651369 578.99876,30.224514 580.22,27.385665 581.84488,24.543702 582.6096,23.909041 584.55763,22.292318 584.3695,23.967299 582.02196,29.140796 578.96993,35.866874 579.19485,49.070668 582.47172,55.543311 L 584.94344,60.425577 581.97172,66.372511 C 579.62529,71.068124 579,73.637479 579,78.583432 579,85.417471 580.85138,95 582.17175,95 582.62729,95 583,95.9 583,97 583,100.3283 580.00811,99.263661 578.37458,95.354077 z"/>
</svg>
