<?xml version="1.0" encoding="UTF-8"?>
<svg xmlns="http://www.w3.org/2000/svg" viewBox="1225.15 18.29 43.79 85.38">
  <path d="M 1265.2188,86.625 1262.1562,85.0625 C 1254.9978,81.40894 1254.542,80.309286 1254.1562,65.46875 L 1253.8125,52.15625 1257.1562,51.8125 C 1260.4157,51.500277 1260.5,51.382195 1260.5,46.9375 1260.5,43.593504 1261.2348,41.299315 1263.25,38.375 1265.2931,35.410208 1266,33.176615 1266,29.6875 1266,24.137412 1264.4504,23.597488 1259.8125,27.5 1255.9374,30.760694 1254.5185,30.666008 1253,27 1251.7609,24.008451 1248.1367,22.16752 1246.0312,23.46875 1245.4422,23.832846 1244.1144,25.813023 1243.0625,27.875 1242.0106,29.936977 1240.4452,32.199577 1239.5938,32.90625 1238.2764,33.999594 1237.8693,33.770436 1236.9062,31.34375 1234.07,24.197177 1231.9798,23.200588 1229.5625,27.875 1227.1486,32.54296 1227.5972,36.468139 1231,40.34375 1232.9457,42.559751 1234,44.844374 1234,46.84375 1234,50.263621 1236.6862,52.447467 1239.5625,51.34375 1242.7013,50.139269 1244,53.664348 1244,63.5 1244,73.318108 1242.047,81.878789 1239.3125,84.125 1237.469,85.639277 1232,93.917281 1232,95.1875 1232,95.62982 1232.597,96 1233.3438,96 1235.4491,96 1245.9945,79.143196 1246.125,75.5625 1246.4835,65.727061 1245.6566,50.328218 1244.7188,49.1875 1243.9968,48.309382 1242.5066,48.057149 1240.3125,48.46875 1237.7066,48.957619 1237,48.762495 1237,47.53125 1237,45.388427 1244.8796,29.349447 1246.6562,27.875 1248.5035,26.342 1249.1722,27.151308 1252.0625,34.5 1253.3604,37.8 1254.978,41.625 1255.6875,43 1257.8438,47.17931 1257.3582,49 1254.0938,49 1252.5025,49 1251.028,49.5625 1250.8125,50.25 1250.5971,50.9375 1250.6889,57.8 1251,65.5 1251.4627,76.955859 1251.9128,80.009682 1253.4688,82.34375 1255.8125,85.859765 1262.1656,90.013055 1265.2188,90 1265.317,89.99958 1265.5129,89.891154 1265.625,89.875 L 1265.2188,86.625 z M 1231.9688,28.5 C 1233.0222,27.849009 1238.133,37.523148 1237.2188,38.4375 1236.0455,39.610735 1234.0531,38.909376 1232.5625,36.78125 1230.8233,34.298214 1230.4691,29.426831 1231.9688,28.5 z M 1262.6562,30 C 1263.4025,30 1262.9508,33.007731 1261.8438,35.4375 1259.9482,39.597706 1256,38.320183 1256,33.53125 1256,32.50475 1260.7151,30 1262.6562,30 z M 1266.4688,96.34375 C 1264.6076,96.048649 1261.9607,95.210445 1258.3125,93.5 1251.1504,90.142065 1250.1821,89.943959 1246.75,90.96875 1244.5892,91.613939 1243,92.701481 1243,93.5625 1243,94.754857 1243.9598,94.965313 1247.75,94.53125 1251.7159,94.077071 1253.408,94.461876 1258,96.90625 1261.5117,98.775553 1264.2898,99.762909 1266.9375,99.78125 L 1266.4688,96.34375 z"/>
</svg>
