<?xml version="1.0" encoding="UTF-8"?>
<svg xmlns="http://www.w3.org/2000/svg" viewBox="1366.97 17.64 33.78 82.87">
  <path d="M 1369.9375,95.6875 C 1371.9059,95.160389 1375.8696,95.388322 1380.875,96.4375 1382.3187,96.74013 1384.0099,96.661524 1384.625,96.25 1386.2672,95.151359 1390.93,84.457142 1391.5938,80.28125 1391.9086,78.29946 1392.5391,75.681023 1393,74.46875 1396.0654,66.406275 1398.7501,39.306858 1398.0625,23.1875 1398.0318,22.467541 1397.6115,22.136804 1397.125,22.4375 1396.0146,23.123732 1395.2023,28.824026 1394.5,41 1393.3745,60.511892 1390.4428,76.916787 1386.3438,86.78125 L 1383.75,93.09375 1379.125,92.46875 C 1372.3779,91.583579 1370.2807,91.223824 1369.5312,90 L 1369.9375,95.6875 z M 1369.1875,85.625 C 1369.3683,84.590147 1369.7019,84.068745 1370.5,84.375 1372.7481,85.237669 1376.7106,83.400981 1378.0625,80.875 1379.5569,78.082695 1381.7268,58.544495 1381.9375,46 1382.0253,40.775 1382.4516,33.652895 1382.875,30.1875 1383.6482,23.859899 1382.8893,21.40487 1381.1875,24.71875 1379.8146,27.392085 1379.0637,33.480025 1378.5,46.625 1377.1666,77.717168 1376.5027,81 1371.5312,81 1370.3543,81 1369.5834,81.044919 1369.0312,80.3125 L 1368.9688,82.53125 1369.1875,85.625 z M 1389.25,22.21875 C 1388.1448,22.55223 1387.1825,27.989666 1386.5938,37.5 1385.2476,59.243312 1384.9973,62.565124 1384.4375,67 1383.7703,72.285424 1381.233,79.852169 1379.3438,82.09375 1378.612,82.962057 1378,84.216224 1378,84.90625 1378,87.640326 1380.6535,85.142688 1383.2188,79.96875 1386.4646,73.422201 1387.8919,67.092481 1388.5625,56.4375 1388.8376,52.066677 1389.204,46.925 1389.375,45 1390.1332,36.466943 1390.3324,23.019782 1389.7188,22.40625 1389.5553,22.242763 1389.4079,22.17111 1389.25,22.21875 z"/>
</svg>
