<?xml version="1.0" encoding="UTF-8"?>
<svg xmlns="http://www.w3.org/2000/svg" viewBox="1503.26 19.67 33.05 82.91">
  <path d="M 1517.6562,24 C 1516.9186,24 1515.1187,26.18807 1513.6562,28.875 1510.8379,34.053292 1510.041,42.375228 1511.9062,47.28125 1512.6146,49.144284 1512.2649,50.898705 1510.3125,54.84375 1506.3551,62.840213 1505.2638,72.971421 1507.2188,84 1508.1074,89.013564 1509.5583,94.220706 1510.4375,95.5625 1512.1061,98.109101 1515.3685,98.806964 1516.5625,96.875 1516.9445,96.256971 1517.3814,92.994471 1517.5,89.625 1517.6185,86.255529 1518.983,78.55 1520.5312,72.5 1523.1805,62.147587 1523.6098,61.22036 1528.1562,56.75 1530.7817,54.168429 1533.2846,52.112282 1533.8125,52.0625 L 1533.9375,48.4375 C 1533.6984,48.442974 1533.4521,48.363426 1533.2188,48.4375 1530.9975,49.142519 1523.2144,57.709104 1521.0938,61.78125 1518.3912,66.97017 1513.8527,84.194637 1514.1875,88 1514.4802,91.326917 1513.9542,94.074982 1513.125,93.5625 1512.6413,93.263539 1511.4224,89.619636 1510.4375,85.4375 1508.8817,78.831095 1508.8109,76.704378 1509.8125,69.21875 1510.5193,63.93648 1511.9833,58.510443 1513.5938,55.21875 1516.0274,50.244434 1516.1207,49.520712 1514.9688,45.40625 1513.4454,39.965411 1514.2886,32.876615 1517,28.28125 1519.362,24.277954 1519.4048,24 1517.6562,24 z M 1524.5,24 C 1522.086,24 1517,35.24435 1517,40.5625 1517,46.818984 1519.2904,45.966234 1520.125,39.40625 1520.4692,36.701253 1521.9317,32.288166 1523.375,29.59375 1526.4518,23.850154 1526.4091,24 1524.5,24 z M 1534.3125,39.28125 C 1532.7626,39.488005 1531.2349,39.860368 1529.9375,40.53125 L 1527,42.0625 1527,38.65625 C 1527,36.777903 1528.0091,33.755241 1529.2812,31.875 1532.9295,26.482529 1533.0713,26.185952 1532.0625,25.5625 1528.6236,23.437113 1520.3686,41.873026 1522.9375,45.9375 1523.6905,47.128876 1524.8296,46.920471 1529.875,44.65625 1531.5488,43.905104 1532.8182,43.64012 1534.1562,43.28125 L 1534.3125,39.28125 z"/>
</svg>
