<?xml version="1.0" encoding="UTF-8"?>
<svg xmlns="http://www.w3.org/2000/svg" viewBox="605.28 18.09 80.16 86.34">
  <path d="M 627.60416,31.339796 C 630.67345,29.328718 630.62785,28.243191 627.41254,26.778197 625.05833,25.705547 624.56383,25.898492 621.92702,28.918559 620.33309,30.744166 619.29654,32.670792 619.62358,33.19995 620.35615,34.385276 624.39177,33.444633 627.60416,31.339796 z M 661.52428,30.11055 C 661.00866,27.762962 660.29362,27 658.60911,27 656.69528,27 652,30.207617 652,31.515065 652,31.755501 653.6875,32.829163 655.75,33.900981 660.47063,36.354146 662.59003,34.962895 661.52428,30.11055 z M 658.54545,73.545455 C 661.7428,70.348107 661.6409,68.727678 657.99332,64.765777 L 654.98664,61.5 652.99332,63.860784 C 650.73544,66.534901 650.39951,71.065603 652.24055,74.013569 653.8835,76.644349 655.57192,76.51899 658.54545,73.545455 z M 653.14467,90.25 655.21826,85.5 651.47929,78.348896 C 646.99488,69.772097 647.18327,66.153178 652.37615,61.120042 L 655.73149,57.867918 659.85929,62.683959 C 662.12958,65.332782 663.98999,68.19685 663.99354,69.048555 663.99709,69.90026 662.2,72.470373 660,74.759917 655.7628,79.169585 654.9925,81.676155 657.57055,82.665445 658.56844,83.048371 660.49808,81.943055 662.86271,79.63406 664.9096,77.635327 667.08124,76 667.68857,76 668.86139,76 675.0165,82.575059 674.97614,83.784796 674.96302,84.178158 674.55987,86.189897 674.08025,88.255326 672.83843,93.603103 674.43994,93.788375 676.95732,88.588163 679.33278,83.681127 679.58053,84.699859 673.16916,73.011883 L 670.83831,68.762742 674.03389,61.631371 C 676.74328,55.584988 677.30993,52.940534 677.75834,44.25 678.3654,32.484912 676.99183,30.500124 674.99014,40.25 673.40069,47.991915 667.19894,62 665.36084,62 664.61238,62 664,61.565658 664,61.034796 664,60.503934 662.56898,58.439751 660.81996,56.447722 658.29435,53.571215 657.11103,52.93213 655.06996,53.34228 648.85108,54.591956 648.61607,54.542314 647.6134,51.767199 646.95504,49.945049 646.9796,46.61275 647.68711,41.767199 L 648.74821,34.5 644.90536,30.545965 C 641.43692,26.977167 640.79154,26.689061 638.28126,27.588872 636.10635,28.368469 635.56974,29.121488 635.81988,31.042907 636.64828,37.40613 637.13074,52.342936 636.5789,54.541669 635.76108,57.800117 633.50191,57.657474 628,54 625.525,52.354709 622.79094,51.006636 621.92431,51.004281 619.50846,50.997717 616.12141,55.174772 613.9864,60.793682 612.27723,65.29185 612.2104,66.299751 613.39696,69.683526 L 614.73526,73.5 615.86205,69.5 C 616.48179,67.3 616.99136,64.548186 616.99442,63.384859 617.0009,60.928221 620.58169,56 622.36017,56 623.02843,56 625.76501,58.223256 628.44146,60.940568 634.13201,66.717992 634.48451,69.196966 630.58551,76.018593 627.85286,80.799586 627.38625,83.960939 628.99957,86.763569 629.54933,87.718606 630.43819,89.7375 630.97482,91.25 632.73425,96.209027 634.33915,94.542703 633.62835,88.494913 633.07157,83.757577 633.31232,82.465506 635.35466,79.230233 637.74319,75.446563 640.76286,72.378993 641.3818,73.107499 646.35384,78.959731 648,82.659833 648,87.983372 648,96.648692 649.97205,97.517536 653.14467,90.25 z M 646.03432,96.082848 C 645.34655,94.422435 644.99642,91.137034 645.25624,88.781958 645.61305,85.547775 645.21128,83.701831 643.61432,81.238111 641.04798,77.278858 639.23244,77.437829 636.65718,81.847289 634.97871,84.721223 634.85248,85.827812 635.75378,89.766524 636.93197,94.915204 635.79443,98 632.71763,98 630.76839,98 625,86.592453 625,82.73764 625,81.59588 626.39168,78.195784 628.09263,75.18187 631.69588,68.797273 631.31331,66.866226 625.5786,62.492154 620.55203,58.658205 619.29321,59.586387 618.53536,67.685418 617.69455,76.671044 617.16573,79 615.96625,79 614.49549,79 611.10142,73.006039 610.365,69.108138 608.92494,61.485807 616.25665,48 621.84067,48 623.32295,48 626.19132,49.125 628.21481,50.5 634.27306,54.616686 635,54.096991 635,45.649223 635,38.222603 633.57794,32 631.88073,32 631.37275,32 629.20621,33.158696 627.06621,34.57488 618.97765,39.927641 614.18839,35.664661 619.56854,27.901104 623.02758,22.909704 626.18048,22.017986 630.10659,24.920686 L 633.05233,27.098561 636.89383,24.939517 C 640.57854,22.868594 640.84276,22.850869 643.36766,24.505246 644.81545,25.453872 646,26.597941 646,27.047622 646,29.218146 650.17632,28.95229 653.7007,26.557411 658.04156,23.607717 660.21889,23.361746 662.42857,25.571429 664.21404,27.356898 664.51139,33.175949 662.96482,36.065741 661.7118,38.407019 659.45816,38.507204 654.51404,36.441419 652.46242,35.584199 650.54097,35.125693 650.24415,35.422516 649.94733,35.719339 649.56411,39.141787 649.39256,43.027956 649.05933,50.576716 650.0024,52.139449 653.69768,50.161796 655.84148,49.014468 658.10712,49.975384 662.1903,53.763744 663.66997,55.136571 665.53004,56.010581 666.3238,55.705987 668.72348,54.785144 674.97894,35.7339 675.01531,29.235649 675.03669,25.416183 676.33516,23.482026 677.7228,25.202666 679.39707,27.278729 680.164,32.401666 680.20265,41.767542 680.23217,48.923757 679.69164,52.109792 677.20808,59.418321 673.94843,69.010721 673.94946,69.024108 678.52105,76.5 681.79319,81.850903 681.6678,85.778053 678.06605,90.750123 674.13809,96.172513 673.37135,96.496392 671.44014,93.548985 670.08841,91.485987 669.99432,90.455042 670.91638,87.810022 671.92258,84.923635 671.78372,84.32917 669.59105,82.136508 L 667.14176,79.687211 661.82088,84.404426 C 658.8944,86.998894 655.375,91.231772 654,93.810821 650.8894,99.645286 647.86701,100.50735 646.03432,96.082848 z"/>
</svg>
