<?xml version="1.0" encoding="UTF-8"?>
<svg xmlns="http://www.w3.org/2000/svg" viewBox="595.77 11.78 70.95 92.77">
  <path d="M 659.82818,44.551059 C 660.30084,40.525927 658.39393,39.041303 656.91641,42.284105 655.58609,45.203844 656.35972,48.376905 658.25053,47.756039 658.93774,47.530387 659.64768,46.088146 659.82818,44.551059 z M 605.36971,48.75 C 606.30666,45.253815 606.10579,40 605.03518,40 603.57452,40 602,43.510731 602,46.767592 602,51.322148 604.31537,52.684282 605.36971,48.75 z M 633,88.587968 C 633,88.361351 633.69983,84.648851 634.55518,80.337968 636.54306,70.319291 637.30642,47.420262 635.93323,39 634.1724,28.202787 632.70509,21.935769 631.80815,21.38143 630.23034,20.406293 627.88889,28.157986 627.43647,35.854426 626.48511,52.038826 626.29349,67.558601 627.01518,69.976679 627.42938,71.364505 628.3054,75.65 628.96189,79.5 630.45134,88.234891 630.6935,89 631.96862,89 632.53588,89 633,88.814586 633,88.587968 z M 657.27924,85.25 C 657.00081,83.4625 656.38265,82 655.90555,82 654.36446,82 653.71513,86.951827 655.04595,88.555368 656.8163,90.688506 657.88094,89.112792 657.27924,85.25 z M 607.81037,87.25 C 607.46829,83.116866 605.69048,82.155522 605.17092,85.822726 604.76266,88.704312 605.58655,91 607.02898,91 607.67907,91 607.99517,89.482953 607.81037,87.25 z M 628.6922,93.25 C 627.88451,90.6375 626.69252,85.918988 626.04335,82.764417 625.00435,77.715624 624.45763,76.836464 621.47751,75.422302 619.61547,74.53871 617.56619,73.182222 616.92355,72.407885 614.96644,70.049712 612.27268,70.822729 610.07911,74.372004 608.1355,77.516816 608.09632,77.986283 609.49755,81.339885 612.41491,88.322111 610.92023,95 606.44007,95 599.51209,95 602.06957,77.205345 610.28462,68.25 612.97719,65.314799 613.97771,65.406139 618.5,69 620.57626,70.65 622.66313,72 623.1375,72 623.61188,72 624,63.439946 624,52.977657 L 624,33.955314 619.87264,29.477657 C 617.60259,27.014946 615.13674,25 614.39296,25 611.79755,25 608.64007,33.067638 608.52232,40 608.41169,46.512745 605.79528,53.992302 603.36607,54.740183 601.50195,55.314089 599,52.055824 599,49.054298 599,45.291998 601.63566,38.032351 603.91063,35.528472 604.92429,34.412812 606.32732,31.7 607.02845,29.5 608.82182,23.872859 610.85629,21.074173 613.66616,20.368939 615.61466,19.879899 616.82883,20.565 619.88985,23.880685 621.98146,26.146308 624.17701,28 624.76884,28 625.36067,28 626.37995,26.3125 627.0339,24.25 628.62713,19.225095 630.74154,16 632.44269,16 633.72951,16 635.90233,21.336627 637.43031,28.25 637.76459,29.7625 638.59203,30.996295 639.26905,30.991767 639.94607,30.987239 642.89765,28.737239 645.82811,25.991767 648.75857,23.246295 651.71625,21 652.40073,21 653.94414,21 660.57383,34.074025 661.78459,39.505375 663.50292,47.213596 659.61222,54.412842 655.55007,51.041558 653.16332,49.060728 652.83215,44.941832 654.60617,39.301771 656.27474,33.996954 656.26518,33.776148 654.21152,30.182659 653.05397,28.157197 651.64043,26.5 651.07031,26.5 650.50019,26.5 647.61289,28.390697 644.65409,30.70155 L 639.27446,34.903099 639.30184,51.70155 C 639.31691,60.940697 638.99432,69.962871 638.58498,71.750825 637.37679,77.028106 640.10597,76.980968 646.62771,71.611913 649.70884,69.075361 652.58959,67 653.02939,67 653.46918,67 655.04319,69.1375 656.52719,71.75 659.95897,77.791459 660.83288,88.749867 658.14738,92.066315 L 656.46023,94.149859 653.73012,92.00235 C 650.5924,89.534218 650.35665,87.244421 652.57112,80.745289 653.76983,77.227277 653.88001,75.644309 653.03594,74.067151 651.52623,71.246236 650.3787,71.448757 645.57677,75.38358 643.3057,77.244549 640.59665,78.932049 639.55664,79.13358 637.60891,79.511012 637.14829,80.609551 635.00036,90 632.87017,99.312918 630.88314,100.33665 628.6922,93.25 z"/>
</svg>
