<?xml version="1.0" encoding="UTF-8"?>
<svg xmlns="http://www.w3.org/2000/svg" viewBox="522.06 13.91 25.14 89.94">
  <path d="M 540.08312,94.25 C 538.88045,89.712629 537.11473,71.779653 537.0554,63.5 537.00068,55.863369 538.65869,39.813184 540.56466,29.52904 541.956,22.021664 543.26234,18.929003 544.51357,20.180236 545.19406,20.86073 543.32041,33.613508 541.44777,41.047148 539.85505,47.369654 540.21826,80.51407 541.95682,87.5 543.23315,92.628575 543.27496,98 542.03854,98 541.50974,98 540.6298,96.3125 540.08312,94.25 z M 529.89811,96.310174 C 525.55286,85.190627 524.05791,62.342767 526.45154,43.635201 528.13617,30.468913 531.36098,18 533.08153,18 534.33885,18 534.24076,19.340049 532.54381,25.346093 530.4733,32.674313 527.99712,53.360648 528.01624,63.170063 528.02982,70.13768 529.46215,80.042203 532.63832,95.131578 533.41658,98.828954 531.24704,99.7621 529.89811,96.310174 z"/>
</svg>
