<?xml version="1.0" encoding="UTF-8"?>
<svg xmlns="http://www.w3.org/2000/svg" viewBox="806.32 14.91 65.66 89.14">
  <path d="M 864.24353,42.92142 C 864.66816,40.489639 864.85482,37.825 864.65834,37 864.15982,34.906763 861,42.292705 861,45.551215 861,49.780116 863.38331,47.847772 864.24353,42.92142 z M 817.5162,42.0959 C 817.1356,39.843155 816.46299,38 816.02151,38 814.82638,38 814.26587,44.723701 815.30606,46.582408 816.87421,49.38454 818.26919,46.552785 817.5162,42.0959 z M 866.25987,87.426497 C 866.71023,85.266923 866.91998,82.375 866.72597,81 866.39421,78.648711 866.2729,78.721156 864.68661,82.217881 862.69048,86.618052 862.40983,92.363389 864.22051,91.75983 864.89179,91.53607 865.8095,89.58607 866.25987,87.426497 z M 815.20421,86.896465 C 814.74267,80.049606 813,79.643919 813,86.383333 813,90.578575 813.34325,92.045548 814.25,91.725589 815.05843,91.440325 815.39551,89.734411 815.20421,86.896465 z M 844.34946,88.93367 C 846.60631,82.303094 846.70032,70.920855 844.55908,63.555245 843.15384,58.721386 843.18458,57.848195 844.98111,51.56606 846.75655,45.357661 846.80574,44.143037 845.56866,37.056887 844.09523,28.616886 841.56392,22.664439 839.69134,23.236188 837.66438,23.855071 834.15577,31.905071 833.44962,37.556909 832.99484,41.196904 833.35643,45.801935 834.56748,51.793188 836.25231,60.128276 836.25885,60.895802 834.67879,64.844769 832.62003,69.99012 832.51408,79.067543 834.43817,85.460798 835.93395,90.430926 839.61166,95.283685 841.44236,94.702882 842.02406,94.518334 843.33226,91.922188 844.34946,88.93367 z M 836.90148,96.743248 C 832.98264,91.831796 831.03557,87.546916 830.32354,82.267234 829.63922,77.192995 826.13242,70.580995 822.66722,67.831393 819.94535,65.671613 817.48276,66.919794 815.25696,71.587337 813.69973,74.85289 813.70964,75.238455 815.42558,78.143306 818.09649,82.664801 818.75162,93.105526 816.50536,95.351785 815.54973,96.30741 814.25759,96.922897 813.63393,96.719534 809.96243,95.522331 809.30947,80.265525 812.57992,72.091876 814.25383,67.908341 818.14295,64 820.63198,64 821.38122,64 823.73521,65.572866 825.86307,67.495259 L 829.73191,70.990517 831.49323,66.378555 C 833.01857,62.384518 833.10352,60.852031 832.12728,54.940667 831.50727,51.186409 831,45.212595 831,41.665525 831,35.410889 830.86143,35.062187 826.40733,30.108154 823.88136,27.298669 821.17022,25 820.38258,25 817.09451,25 815.71702,34.330209 818.43269,38.207359 820.21682,40.75456 820.50546,47.187015 818.96482,50.065741 817.60023,52.61549 814.35559,52.532947 812.95334,49.91281 811.81356,47.783111 812.16376,42.528044 814.14705,32 816.25232,20.824469 819.89857,19.264174 827,26.5 829.42903,28.975 831.75161,31 832.1613,31 832.57099,31 833.97213,28.8625 835.27495,26.25 838.90737,18.966009 842.52937,19.449975 846.19099,27.70858 847.21726,30.023299 848.41495,32.138417 848.8525,32.408843 849.29006,32.679269 851.93736,30.897908 854.73538,28.450263 857.53341,26.002618 860.5629,24 861.46758,24 862.46404,24 863.92563,25.838312 865.17526,28.663305 867.8288,34.662073 867.43937,47.752036 864.51109,50.98774 858.24842,57.907915 856.07536,44.320392 862.09317,35.869159 863.93746,33.27909 863.96642,32.855389 862.53354,29.426027 860.79205,25.258061 860.82736,25.24674 853.25,32.402745 849.56893,35.879123 849,36.975568 849,40.593373 849,42.8907 848.24785,47.09922 847.32856,49.945639 845.6557,55.125341 845.85014,58.053438 848.71001,70.75 849.45038,74.036933 851.05065,73.543024 856,68.5 858.42903,66.025 861.14914,64 862.04469,64 864.7189,64 869,73.672894 869,79.715132 869,88.069773 867.19737,94.802581 864.75279,95.578462 859.47507,97.253546 858.85136,89.173644 863.54361,79.913936 L 866.03716,74.99316 863.99826,70.99658 C 862.87686,68.798461 861.57506,67 861.10537,67 860.19209,67 855.04831,71.743329 851.08379,76.24137 849.52246,78.012821 848.41263,80.861503 847.94699,84.292861 846.9919,91.330951 843.22774,100.00001 841.12686,99.999971 840.23209,99.999954 838.33067,98.534429 836.90148,96.743248 z"/>
</svg>
