<?xml version="1.0" encoding="UTF-8"?>
<svg xmlns="http://www.w3.org/2000/svg" viewBox="1332 15 36.83 92.71">
  <path d="M 1343.5625,87.71875 1345.9375,86 1347.375,90.9375 C 1349.0512,96.581815 1350.823,100.19283 1352.4062,101.25 1355.7771,103.50073 1358.1582,100.15337 1361.4062,88.71875 1364.8522,76.58716 1366.8343,52.132113 1364.4375,51.3125 1363.7703,51.084318 1363.3025,53.80254 1363.1562,58.71875 1362.7581,72.093706 1361.1037,83.384047 1358.5,90.5625 1357.1195,94.36849 1356,97.610117 1356,97.75 1356,97.889882 1355.3591,98 1354.5938,98 1350.3017,98 1346.9757,74.503404 1348.75,56.8125 1349.3185,51.144234 1349.5881,46.290322 1349.3438,46.03125 1348.5882,45.23013 1347.0162,48.378769 1347,50.75 1346.982,53.392615 1346.2175,53.556644 1343.2812,51.5 1339.8541,49.09961 1339.5564,51.60209 1342.9688,54.125 1345.4922,55.990663 1346,57.076483 1346,60.53125 1346,65.788222 1345.3694,66.345446 1341.875,64.28125 1340.319,63.362155 1338.7661,62.890132 1338.4062,63.25 1337.0591,64.597079 1339.0504,67.07259 1341.9688,67.65625 1344.7474,68.211977 1345.0009,68.584203 1345,72.375 1344.9991,75.844963 1344.5941,76.589364 1341.2812,78.53125 L 1341.9688,81.375 C 1344.2664,80.176199 1345,80.009546 1345,81.3125 1345,82.125245 1344.1264,83.356239 1342.8125,84.75 L 1343.5625,87.71875 z M 1360.9062,19.34375 C 1360.6819,19.216333 1360.2231,19.394576 1359.5312,19.96875 1357.3862,21.748989 1352,30.104402 1352,31.65625 1352,34.302059 1353.7722,32.87775 1357.3438,27.375 1360.208,22.962002 1361.5794,19.726002 1360.9062,19.34375 z M 1340.8438,20.3125 C 1340.5241,20.299292 1340.0354,20.551001 1339.3438,21.125 1337.7116,22.479497 1334,29.319044 1334,30.96875 1334,33.408364 1336.0416,31.634632 1338.8438,26.78125 1341.111,22.854195 1341.8026,20.352124 1340.8438,20.3125 z"/>
</svg>
