<?xml version="1.0" encoding="UTF-8"?>
<svg xmlns="http://www.w3.org/2000/svg" viewBox="1249.95 16.72 53.45 89.34">
  <path d="M 1252.375 97.40625 C 1255.7125 99.590159 1261.1645 102 1263.375 102 C 1267.6337 102 1272.0717 97.103594 1276.5312 87.5 C 1278.832 82.545136 1281.0398 76.863066 1281.4062 74.84375 C 1281.7727 72.824433 1282.7381 68.901182 1283.5625 66.125 C 1285.0134 61.239493 1285.152 61.092897 1288.125 61.6875 C 1292.3164 62.525792 1292.8814 61.181435 1292.25 51.96875 L 1291.7188 44.21875 L 1295.625 40.03125 C 1300.4518 34.828484 1300.8329 33.823413 1300.9062 27 L 1300.9688 21.5 L 1298.25 25 C 1293.9988 30.452822 1291.2416 33 1289.5625 33 C 1288.6413 33 1286.8946 30.52707 1285.25 26.875 L 1282.5 20.78125 L 1279.9062 23.375 C 1276.6224 26.659463 1262.7202 53.742918 1263.5938 55.15625 C 1263.9513 55.734815 1265.8148 56.878919 1267.75 57.6875 L 1271.2812 59.15625 L 1270.625 66.3125 C 1269.3118 80.876027 1267.7169 85.223199 1262.625 88 C 1260.1563 89.346279 1259.6067 89.02823 1257.0312 86.0625 L 1255.5938 89.53125 C 1257.3217 91.045914 1259.078 91.940756 1260.7188 91.53125 C 1262.2444 91.150461 1264.3659 90.107149 1265.4062 89.1875 C 1268.2468 86.67684 1271.989 77.96999 1272 73.875 C 1272.0054 71.887569 1272.4469 67.88554 1273 64.96875 C 1273.8177 60.657213 1273.7116 59.240667 1272.4688 57.34375 C 1271.628 56.060471 1270.267 55 1269.4375 55 C 1266.4122 55 1266.9216 51.916074 1271.625 41.8125 C 1276.7927 30.711386 1279.8733 25.801508 1281.3125 26.28125 C 1283.3322 26.954488 1289 46.952735 1289 53.40625 C 1289 57.620022 1288.8465 57.865504 1286.3125 57.6875 C 1282.933 57.450104 1282.0367 59.214676 1278.4062 72.96875 C 1274.9293 86.141133 1270.5707 94.86635 1266.2812 97.3125 C 1263.1623 99.091076 1262.9588 99.080109 1258.7812 97.1875 C 1257.4258 96.573432 1255.5963 95.327523 1253.7812 93.90625 L 1252.375 97.40625 z M 1297.375 30.75 C 1297.921 30.588512 1298 31.015197 1298 31.9375 C 1298 33.054741 1296.7625 35.341967 1295.25 37.03125 C 1293.0455 39.493463 1292.2521 39.850343 1291.25 38.84375 C 1289.4255 37.011004 1289.6022 36.659195 1294 33.125 C 1295.8161 31.66551 1296.829 30.911488 1297.375 30.75 z "/>
</svg>
