<?xml version="1.0" encoding="UTF-8"?>
<svg xmlns="http://www.w3.org/2000/svg" viewBox="1058.25 14.76 60.47 93.25">
  <path d="M 1113.393,43.418213 C 1114.3332,40.968146 1114.1092,35.185547 1113.0488,34.530153 1111.8353,33.780173 1109.5295,41.331565 1110.3328,43.42493 1111.1091,45.447982 1112.6154,45.444676 1113.393,43.418213 z M 1067.2291,41.015022 C 1066.7226,34.906981 1065.0636,34.015318 1065.0304,39.833333 1065.0085,43.678776 1065.3487,45.043317 1066.25,44.724522 1066.9873,44.463737 1067.3889,42.942166 1067.2291,41.015022 z M 1065.989,88.75 C 1065.9688,84.613848 1064.7482,79 1063.8692,79 1062.8593,79 1062.6746,89.341219 1063.6667,90.333333 1064.9843,91.650999 1065.9998,90.958668 1065.989,88.75 z M 1090.4259,92.596186 C 1092.4886,86.038271 1092.6191,72.809665 1090.6989,64.91787 1089.4943,59.967201 1089.539,58.610847 1091.0947,52.927664 1093.3706,44.613442 1093.1427,29.942585 1090.6648,25.25 1088.314,20.798226 1085.3478,20.923357 1083.4122,25.555952 1081.6139,29.859842 1081.2677,47.368559 1082.8484,54.066237 1083.7993,58.095113 1083.639,59.330765 1081.4868,64.566237 1078.5907,71.611226 1078.2814,79.438118 1080.5528,88.203777 1082.499,95.714504 1083.9107,98 1086.6037,98 1088.2955,98 1089.0711,96.90349 1090.4259,92.596186 z M 1112.0148,97.482138 C 1113.4293,95.77782 1112.8302,84.430235 1111.242,82.841958 1108.5236,80.123634 1105.8692,90.855787 1107.9922,95.981127 1109.3996,99.378819 1110.1945,99.675457 1112.0148,97.482138 z M 1106.9221,99.75 C 1104.3035,95.595443 1104.795,86.707565 1107.9379,81.380662 1110.1595,77.615363 1110.088,76.332404 1107.2902,69.75 1105.2708,64.999041 1103.363,64.999041 1098.8203,69.75 1095.3967,73.330623 1095.2124,73.88762 1094.7385,82.081912 1094.2254,90.95638 1091.8593,98.233235 1088.6163,100.91077 1087.126,102.14128 1086.5622,102.06617 1084.2038,100.32295 1080.3341,97.462527 1077.9605,91.808364 1076.9689,83.088078 1075.787,72.695324 1074.5077,68.100532 1072.3384,66.456659 1069.6767,64.439764 1069.3107,64.588441 1066.131,68.977799 L 1063.2495,72.955598 1065.6181,77.63402 C 1069.1037,84.519023 1068.6972,96 1064.9678,96 1061.9894,96 1060.9993,92.827239 1061.0094,83.315741 1061.0178,75.379641 1061.3149,73.983581 1063.9871,69.324466 1067.8776,62.541015 1070.4498,61.700632 1074.2622,65.967449 1075.8463,67.740364 1077.2622,69.035471 1077.4086,68.845465 1077.555,68.655459 1078.4289,66.563495 1079.3506,64.196657 1080.7369,60.637001 1080.8527,58.82243 1080.0208,53.696657 1079.4677,50.288495 1079.0117,44.006189 1079.0076,39.735976 1079.0014,33.388529 1078.5895,31.338179 1076.75,28.498354 1074.0217,24.286337 1070.9217,23.944406 1068.5318,27.591887 1067.0986,29.779089 1067.0249,30.645951 1068.0596,33.143881 1069.5723,36.795771 1069.6716,46.728403 1068.2101,48.189925 1065.4011,50.99888 1062,46.011679 1062,39.08384 1062,35.388063 1065.5438,27.332757 1068.7459,23.75 1071.143,21.067997 1074.5697,21.586942 1077,25 1079.6522,28.724619 1080.5395,28.759769 1081.7841,25.189512 1082.9477,21.851581 1085.596,19 1087.5325,19 1089.6223,19 1092.8138,22.873509 1094.0522,26.913095 1094.6571,28.885893 1095.3602,31.144725 1095.6147,31.932723 1095.9318,32.914618 1098.0764,31.384285 1102.43,27.069363 L 1108.7826,20.77328 1111.6413,23.965284 C 1115.2086,27.948523 1115.7757,29.835581 1115.9003,38.139216 1115.9759,43.172955 1115.5606,45.321047 1114.183,47.022337 1112.5969,48.981134 1112.0722,49.109017 1110.0539,48.028824 1107.9723,46.914782 1107.7948,46.277031 1108.2742,41.632368 1108.567,38.794896 1109.6038,34.801672 1110.5781,32.758537 1112.2807,29.188233 1112.2784,28.965104 1110.5198,27.021873 1107.4957,23.680266 1106.8134,24.090082 1097.6038,34.779646 1096.3925,36.185566 1095.4337,39.422238 1094.9494,43.740279 1094.5323,47.458125 1093.7048,52.3 1093.1104,54.5 1091.9967,58.622164 1093.211,68.394363 1094.9723,69.482875 1095.433,69.767637 1097.7195,68.405332 1100.0532,66.455531 1102.387,64.50573 1105.0172,63.04309 1105.8982,63.205219 1108.1274,63.615458 1110.7867,69.486311 1113.0659,79.028877 1115.6591,89.886435 1115.6133,96.950598 1112.9274,100.36514 1110.247,103.7728 1109.4032,103.68638 1106.9221,99.75 z"/>
</svg>
