<?xml version="1.0" encoding="UTF-8"?>
<svg xmlns="http://www.w3.org/2000/svg" viewBox="495.48 14.47 92.51 90.65">
  <path d="M 583.0625,21.28125 C 581.78486,21.855434 580.38042,22.580071 578.6875,23.625 L 572.8125,27.21875 568.90625,23.40625 C 565.44877,20.030109 565,19.839309 565,21.71875 565,24.13039 570.40662,30 572.625,30 573.42939,30 576.42279,28.425 579.28125,26.5 580.58493,25.622051 581.95088,24.866132 583.1875,24.25 L 583.0625,21.28125 z M 583.5625,31.75 C 583.29693,31.71826 582.92443,31.483574 582.71875,31.5625 579.82351,32.673506 576.47013,38.261437 571.0625,51 564.07854,67.451868 563.71947,68 559.59375,68 557.13777,68 554.90472,66.916788 551.375,64 548.7127,61.8 545.79575,60 544.875,60 542.76741,60 537,68.554866 537,71.6875 537,72.976537 538.3703,76.470335 540.0625,79.46875 542.89189,84.482163 543.04322,85.199526 541.90625,88.34375 541.22626,90.224243 539.83178,92.82474 538.78125,94.125 L 536.875,96.5 537.3125,91 C 537.77763,85.363077 536.44588,81.472522 532.28125,76.28125 530.26499,73.767951 529.53993,74.067239 525.875,79 522.19348,83.955085 521.70005,86.322752 523.40625,90.40625 525.34646,95.049835 523.61366,96.082575 521.46875,91.5625 520.56122,89.650031 519.18058,87.580143 518.40625,86.9375 516.02559,84.961732 516.81666,81.606948 521,76 525.88941,69.446709 525.68592,67.68221 519.21875,60.59375 515.6054,56.633273 512.22443,55.967708 509.78125,58.75 508.27038,60.47058 507.82244,61.640896 506.53125,67.40625 L 505.875,70.28125 504.3125,68.0625 C 500.76957,63.004258 505.78124,51 511.4375,51 512.57647,51 515.60255,52.109313 518.15625,53.46875 522.21712,55.630522 522.95003,55.771537 524.03125,54.46875 525.64281,52.52694 524.762,42.413743 522.625,38.28125 521.75549,36.599803 520.82508,33.463985 520.53125,31.34375 520.06439,27.975034 520.33218,27.224076 522.8125,25.3125 L 525.65625,23.125 530.21875,27.46875 C 534.67155,31.735554 534.75683,31.916708 533.9375,36.15625 532.71751,42.469028 532.79959,55 534.0625,55 534.64104,55 536.89275,53.9875 539.0625,52.75 L 543,50.5 548.6875,56.3125 C 553.49722,61.223524 554.83588,62.066622 557.4375,61.8125 560.08097,61.55429 560.91169,60.680151 563.4375,55.625 565.76869,50.959357 566.47024,48.052171 566.8125,41.53125 567.24115,33.364388 567.22187,33.305913 563.625,28.59375 561.6357,25.987626 560,23.445372 560,22.9375 560,22.429628 559.325,22 558.5,22 557.675,22 557,22.485187 557,23.0625 557,24.703829 559.71393,29.50707 561.4375,30.9375 562.29481,31.649011 563.46392,33.955582 564.03125,36.0625 565.88764,42.956606 561.29451,59 557.46875,59 556.75111,59 553.79332,56.525 550.90625,53.5 545.36597,47.695016 543.01275,46.905083 539.21875,49.5625 537.99541,50.419363 536.56533,50.861332 536.03125,50.53125 534.92794,49.849364 535.61224,40.138521 537.03125,36.40625 537.82473,34.319245 538.25291,34.131502 539.84375,35.125 542.45322,36.754638 546.73957,35.441264 547.59375,32.75 549.04822,28.167354 547.46009,21 545,21 544.48849,21 542.5355,22.35 540.65625,24 538.77701,25.65 536.63782,27 535.90625,27 535.17467,27 532.63957,25.095764 530.28125,22.78125 L 526,18.59375 521.71875,22.78125 C 519.36043,25.095764 517.07294,27 516.65625,27 516.23957,27 514.78125,25.875 513.40625,24.5 509.04481,20.138562 506,21.850136 506,28.65625 506,36.59269 509.23647,40.386254 513.59375,37.53125 517.02409,35.283604 517.71654,35.576677 519.78125,40.25 523.87536,49.516729 523.45801,52.16732 518.34375,49.5 513.5859,47.018566 508.59313,47.563126 505.21875,50.9375 501.06823,55.088024 499.68177,61.28948 501.40625,67.9375 503.7941,77.142925 507.29046,77.603721 508.3125,68.84375 508.75867,65.019626 509.57707,62.9739 511.1875,61.65625 513.41633,59.832626 513.47292,59.859272 517.21875,63.875 519.29697,66.102969 521,68.768604 521,69.8125 521,70.856395 519.41966,73.678848 517.5,76.09375 513.18488,81.522094 513.08853,84.498063 516.9375,91.875 518.55222,94.969777 520.11324,98.2875 520.40625,99.25 520.69927,100.2125 521.55548,101 522.3125,101 526.32351,101 528.74206,93.651292 526.375,88.6875 524.86398,85.518873 524.88839,85.115877 526.5,82.65625 528.76487,79.199624 530.01586,79.310707 532.71875,83.28125 534.58909,86.028788 534.86068,87.3853 534.34375,91.75 533.70759,97.121363 534.85757,100 537.625,100 539.14745,100 546,87.082009 546,84.21875 546,83.212699 544.65,80.25803 543,77.65625 541.35,75.05447 540,71.964201 540,70.78125 540,68.649481 543.55295,64 545.1875,64 545.65489,64 548.32654,65.575 551.125,67.5 553.92346,69.425 557.42422,71.008108 558.875,71 564.59274,70.968046 566.22539,69.025288 574.5,52.5625 578.9,43.808456 583.05696,36.440877 583.75,36.21875 583.75879,36.215932 583.77238,36.221155 583.78125,36.21875 L 583.5625,31.75 z M 543.84375,25.59375 C 544.29445,25.807343 544.67997,26.392173 545.15625,27.4375 546.03655,29.369546 546.00923,30.290358 545.03125,31.46875 543.37679,33.462249 542.67766,33.399731 540.5625,31.0625 538.65152,28.950897 539.0536,27.579066 542.0625,25.96875 542.87473,25.53406 543.39305,25.380157 543.84375,25.59375 z M 509.96875,26.15625 C 510.63126,26.118855 511.63891,27.094499 513.0625,29.09375 514.87983,31.645949 515.05078,32.368986 513.90625,33.09375 510.62472,35.171746 509,33.94056 509,29.34375 509,27.264143 509.30624,26.193645 509.96875,26.15625 z"/>
</svg>
