<?xml version="1.0" encoding="UTF-8"?>
<svg xmlns="http://www.w3.org/2000/svg" viewBox="453.61 12.33 33.39 89.76">
  <path d="M 460.9375 49.5 L 459.125 66 C 459.48325 66 460.07469 69.0375 460.46875 72.75 C 461.51556 82.612123 468.38215 97.981771 471.75 98 C 473.11463 98.007386 479.25748 88.944952 480.4375 85.1875 C 480.83518 83.921164 481.74227 77.921748 482.4375 71.84375 C 483.4813 62.718233 483.47273 59.185449 482.34375 51.53125 C 481.05097 42.76659 481.05952 41.98529 482.96875 37.53125 C 484.15336 34.76766 485 30.630211 485 27.5 C 485 17.559659 483.01326 16.470873 478.5625 23.96875 C 476.95232 26.681295 474.55116 30.094312 473.21875 31.53125 C 470.86467 34.070018 470.7308 34.075574 468.78125 32.3125 C 466.29802 30.066807 463 23.734174 463 21.21875 C 463 16.40786 458.51169 18.344309 457.0625 23.78125 C 455.60743 29.24024 457.6614 36.83486 461.4375 39.96875 C 463.62873 41.787305 462.98781 45.867691 460.9375 49.5 z M 459.84375 25.125 C 460.36505 25.310152 461.09913 26.309701 461.875 28.0625 C 463.86648 32.561563 467.917 37 470.03125 37 C 471.08922 37 473.73414 34.641271 476.1875 31.5 C 478.55006 28.475 480.8805 26 481.375 26 C 482.90997 26 481.13034 35.069534 478.875 38.71875 C 476.77825 42.111369 476.73775 42.34611 478.34375 49 C 481.15423 60.644173 479.8587 78.898647 475.5 88.75 C 474.46577 91.0875 473.03785 93 472.34375 93 C 471.64965 93 469.50027 89.645962 467.5625 85.5625 C 464.44624 78.9956 463.98209 76.887601 463.40625 67.3125 C 462.88328 58.61679 463.09465 55.22119 464.5 50 C 466.70001 41.826474 466.62759 40.588891 463.9375 37.78125 C 461.37963 35.111595 459 29.917759 459 27.03125 C 459 25.554014 459.32245 24.939848 459.84375 25.125 z "/>
</svg>
