<?xml version="1.0" encoding="UTF-8"?>
<svg xmlns="http://www.w3.org/2000/svg" viewBox="1215.92 13.7 90.14 94.5">
  <path d="M 1301,51.90625 C 1300.2874,52.754518 1299.2972,53.488778 1297.625,54.46875 1295.2623,55.853389 1292.7922,57 1292.125,57 1291.4577,57 1289.3734,55.326167 1287.5,53.28125 1284.0971,49.566761 1284.07,49.553054 1279.7812,50.8125 1272.5695,52.930326 1272.6519,52.961705 1271.8125,47.3125 1271.0852,42.418578 1271.2685,41.787438 1275.0312,35.59375 1278.9988,29.063161 1280.2542,22.900552 1277.9375,21.46875 1277.3581,21.110643 1274.817,22.430602 1272.2812,24.40625 1269.7454,26.381898 1266.8113,28 1265.75,28 1264.0093,28 1263.8797,27.510214 1264.5,23 1265.1812,18.04693 1265.1577,18 1262.4375,18 1260.4581,18 1258.2214,19.465668 1254.4375,23.25 1250.0729,27.615111 1249.0922,29.2991 1248.5,33.25 1247.5896,39.3242 1249.5178,42.621982 1254.5312,43.5625 1258.4597,44.299462 1260,46.375379 1260,50.875 1260,54.810385 1258.3891,55.689308 1255.6875,53.21875 1252.1421,49.976696 1249.6859,49.723969 1245.9375,52.25 1239.1095,56.851363 1235.3454,68.251277 1237.3438,78.3125 1237.9061,81.143605 1238.5553,82.054077 1239.8125,81.8125 1241.0909,81.566867 1241.6718,79.94564 1242.1875,75.28125 1242.9611,68.282288 1244.1474,65.528822 1247.0625,63.96875 1248.761,63.059713 1249.5361,63.366852 1251.9375,65.9375 1254.9298,69.14077 1258,69.975512 1258,67.59375 1258,65.948741 1251.4811,59.999001 1249.7188,60.03125 1247.2051,60.077246 1243.9379,63.681533 1242.1562,68.375 1240.8973,71.691487 1240.1021,72.736651 1239.6875,71.65625 1238.7379,69.181577 1241.9096,59.787872 1244.6875,56.84375 1248.8119,52.472507 1250.6464,52.593437 1255.4375,57.59375 1258.7443,61.044926 1259.9356,61.770578 1260.75,60.78125 1262.358,58.827998 1263.1287,51.076342 1262.25,45.5 L 1261.4375,40.5 1257.875,40.8125 C 1253.9055,41.158245 1250.488,38.75552 1251.4375,36.28125 1251.7441,35.482183 1252,33.481055 1252,31.8125 1252,29.519509 1253.038,27.811007 1256.25,24.875 1258.5872,22.738538 1260.7324,21 1261.0312,21 1261.3299,21 1261.5548,23.346098 1261.5312,26.21875 1261.4773,32.81195 1263.072,33.34458 1270.0312,29.0625 1277.6825,24.354659 1277.7951,28.049317 1270.2812,37.3125 1268.1512,39.938648 1268.0315,40.7544 1268.625,48.8125 1268.9763,53.582839 1269.4135,57.664346 1269.5938,57.875 1269.7739,58.085654 1272.4414,57.073154 1275.5,55.625 1278.5585,54.176846 1281.41,53 1281.8438,53 1282.2776,53 1284.0144,54.575 1285.7188,56.5 1289.2733,60.514993 1291.4939,60.808978 1297,58 1299.6254,56.660633 1300.7128,56.135618 1301.3125,56.25 L 1301,52 1301,51.90625 z M 1273.5,76.15625 C 1272.6246,75.289092 1269.1188,79.749749 1266,85.71875 1264.6259,88.348448 1262.0384,92.731292 1260.25,95.46875 1258.4615,98.206208 1257,101.0187 1257,101.71875 1257,103.90565 1258.875,103.12183 1260.5,100.25 1261.3559,98.7375 1262.9187,96.15 1263.9688,94.5 1268.8873,86.77002 1274.0997,76.750258 1273.5,76.15625 z M 1301.6875,60.90625 C 1300.9603,61.689955 1299.6968,62.471272 1297.3125,63.75 1292.0386,66.578468 1291.1771,66.548969 1285.8438,63.5 1283.45,62.131625 1280.7443,61.006625 1279.8125,61 1277.6635,60.984722 1272.257,65.56718 1273.25,66.5625 1273.6591,66.972584 1274.8033,66.569545 1275.8125,65.65625 1278.3684,63.343162 1279.927,63.553332 1285.3125,66.96875 1290.4645,70.236007 1292.2407,70.094931 1297.9062,65.90625 1299.7466,64.545624 1301.1025,64.251615 1301.9688,64.75 L 1301.6875,60.90625 z M 1292.5312,76.90625 C 1291.6679,76.57267 1289.7903,78.21455 1288.5938,80.75 1287.6204,82.8125 1284.6097,88.17673 1281.9062,92.6875 1279.2027,97.198269 1277,101.13577 1277,101.4375 1277,101.73923 1277.5625,102.00481 1278.25,102 1280.025,101.98758 1293,80.819635 1293,77.9375 1293,77.347256 1292.819,77.017443 1292.5312,76.90625 z M 1244.5,88 C 1243.675,88 1243,88.356208 1243,88.78125 1243,89.206292 1241.425,91.952036 1239.5,94.875 1237.575,97.797964 1236,100.59176 1236,101.09375 1236,103.48728 1238.308,101.44635 1241.9688,95.8125 1246.399,88.994552 1246.7209,88 1244.5,88 z M 1224.4688,94.125 C 1223.7279,93.384118 1220.0618,98.032711 1220.0312,99.75 1220.0191,100.4375 1220.3375,101.00347 1220.75,101 1221.8443,100.99077 1225.1757,94.831961 1224.4688,94.125 z"/>
</svg>
