<?xml version="1.0" encoding="UTF-8"?>
<svg xmlns="http://www.w3.org/2000/svg" viewBox="902.25 11.45 45.29 95.66">
  <path d="M 908.625 80.375 L 908 81 L 906.9375 84.4375 C 907.96207 84.358036 909.27773 84.746163 910.71875 85.75 C 917.68891 90.605521 924.49813 91.193267 928.1875 87.25 C 933.66893 81.39133 933.79605 80.877496 935.5625 52 C 936.22398 41.186387 937.81522 26.841031 938.4375 26.21875 C 939.63497 25.021278 941.01645 27.747636 942.0625 33.40625 C 943.35285 40.386406 941.75673 67.690302 939.59375 75.5 C 936.39607 87.045597 933.88763 93.895808 931.9375 96.375 C 929.03063 100.07048 926.83257 99.718361 914 93.65625 C 909.17649 91.377623 906.77169 89.877104 905.71875 88.4375 L 904.3125 93 C 905.77806 93.456156 908.273 94.511421 911.53125 96.21875 C 915.8611 98.487595 920.79495 100.66152 922.46875 101.0625 C 929.57135 102.76403 931.87501 101.80571 935.40625 95.71875 C 938.44717 90.476967 942.94189 75.67195 944.125 67 C 944.61274 63.425 945.11291 53.525 945.25 45 C 945.4832 30.498819 945.34472 29.19391 943.15625 24.75 C 938.74679 15.796123 936.47855 18.80927 935 35.625 C 934.42639 42.148772 933.76779 48.4 933.53125 49.5 C 933.29471 50.6 933.04772 56.225 932.96875 62 C 932.7951 74.698293 930.96905 82.085836 927.34375 84.9375 C 923.84466 87.689882 922.09861 87.548577 914.375 83.9375 C 910.71814 82.227784 909.10624 81.269829 908.625 80.375 z "/>
</svg>
