<?xml version="1.0" encoding="UTF-8"?>
<svg xmlns="http://www.w3.org/2000/svg" viewBox="729.22 13.96 93.99 93.1">
  <path d="M 818.9375,52.96875 C 818.38125,55.004029 817.42977,55.758518 814.8125,57.09375 L 810.90625,59.09375 807.3125,55.5 C 803.69825,51.88575 800.91863,50 799.21875,50 798.71169,50 796.23985,51.575 793.71875,53.5 791.19766,55.425 788.45727,57 787.65625,57 786.85523,57 784.86849,55.499604 783.25,53.65625 780.38134,50.38902 780.33304,50.131139 781.125,43.40625 781.57183,39.612104 782.19983,35.4875 782.5,34.25 783.18157,31.44006 786.07407,31.319374 788.5,34 790.9224,36.676724 792.43396,36.526487 794.9375,33.34375 798.27941,29.095203 798.56777,26.237292 795.9375,23.4375 793.15033,20.470691 790.11158,20.331196 786.71875,23 783.34305,25.655327 782.37465,25.53918 778.34375,22 774.18027,18.344419 771.10431,18.195614 768,21.5 766.70825,22.875 764.65337,24 763.4375,24 762.18292,24 760.52336,22.918764 759.59375,21.5 757.50103,18.306103 754.9322,18.337609 751.0625,21.59375 746.96648,25.040322 747.10953,28.02393 751.53125,31.90625 755.80344,35.657289 756.40954,35.694932 759.1875,32.5 762.01392,29.249332 763.79691,29.33276 764.5625,32.75 764.90136,34.2625 765.6002,37.075 766.09375,39 768.00023,46.435801 767.26989,50.688817 763.375,55 761.386,57.201585 759.45788,59 759.0625,59 758.66711,59 756.26047,56.975 753.75,54.5 748.01368,48.844711 745.3619,48.683973 740.96875,53.6875 735.38642,60.045417 733.49019,67.918403 735.96875,74.4375 737.49639,78.455501 739.48857,77.503336 740.875,72.09375 741.56671,69.394848 743.03949,66.3544 744.15625,65.34375 746.14242,63.546292 746.24222,63.590081 748.5625,66.5 752.77298,71.780436 752.67426,74.325742 748.0625,78.9375 743.10377,83.896225 742.96484,86.042088 747.03125,94.5625 748.97355,98.632224 750.53845,100.72727 751.375,100.40625 753.52389,99.581647 756.14469,92.997729 755.5,90.0625 755.07328,88.119639 755.50048,86.857047 757,85.5 759.03136,83.661642 759.11453,83.713493 762.78125,87.1875 771.81229,95.743882 774.60332,96.001967 781.5,89 784.20865,86.25 787.17792,84 788.09375,84 791.1666,84 792.28771,86.658077 791.5625,92.125 791.02162,96.202347 791.23331,97.621728 792.59375,99.125 795.95179,102.83559 797.75401,101.2474 801.1875,91.5 803.5233,84.868865 803.52481,84.983332 799.5,80.28125 797.575,78.032321 796,75.714121 796,75.15625 796,73.919403 800.88664,68 801.90625,68 802.30829,68 804.15188,69.35 806,71 807.84812,72.65 809.94945,74 810.65625,74 811.36305,74 813.47473,72.637209 815.375,70.96875 816.56004,69.928268 817.34043,69.367632 817.96875,69.0625 L 818,69 818.34375,63.40625 C 817.8008,64.440098 816.93789,65.600575 815.6875,66.8125 813.87382,68.570392 811.81342,70 811.09375,70 810.37408,70 808.0452,68.600323 805.90625,66.90625 L 802,63.84375 799.1875,66.15625 C 797.63424,67.437823 795.60045,70.243767 794.6875,72.375 793.1074,76.063663 793.12923,76.385387 794.96875,78.96875 796.03159,80.461364 797.61808,82.262753 798.46875,82.96875 800.51671,84.668406 800.37849,87.578909 798.03125,92.75 795.69761,97.891123 793.45561,98.513969 794.4375,93.75 795.63287,87.950258 795.24171,85.865823 792.40625,82.90625 790.87328,81.306169 789.2908,80 788.875,80 788.4592,80 785.11633,82.530529 781.46875,85.625 773.7718,92.154786 773.23548,92.115628 765.09375,84.5 762.44558,82.022942 760.02383,80 759.6875,80 759.35118,80 757.4731,81.388785 755.53125,83.09375 752.34179,85.89413 752.07976,86.559021 752.625,89.96875 752.96813,92.114611 752.79286,94.020183 752.21875,94.375 751.08523,95.075553 747,88.740425 747,86.28125 747,85.407226 749.025,82.552225 751.5,79.90625 753.975,77.260275 756,74.327394 756,73.40625 756,71.399022 752.43022,65.243471 749.71875,62.59375 747.08644,60.021391 743.20781,61.423307 741.09375,65.71875 739.04927,69.872805 738,69.861446 738,65.65625 738,61.174118 743.13486,54 746.34375,54 747.84491,54 750.3939,55.813127 753.5,59.09375 L 758.3125,64.1875 763.875,58.625 C 769.40693,53.09307 769.42537,53.007647 769.8125,46.15625 770.02719,42.356878 769.71559,38.353514 769.125,37.25 768.5358,36.149055 767.63534,33.396364 767.125,31.125 766.34216,27.640811 766.52855,26.609018 768.1875,24.5 770.93913,21.001863 772.86662,21.357964 777.28125,26.1875 780.4014,29.600886 781.00074,30.854886 780.4375,32.9375 778.893,38.648383 778.07252,43.738119 778.03125,48.125 777.99292,52.199748 778.48023,53.248122 782,56.875 784.19939,59.14132 786.69335,61 787.53125,61 788.36915,61 791.0553,59.126002 793.53125,56.84375 797.42316,53.256314 798.35246,52.825695 800.3125,53.71875 801.55944,54.286893 803.67892,56.389649 805.03125,58.375 807.73645,62.346515 809.61485,62.784876 814.09375,60.46875 816.32243,59.316255 817.80718,59.273854 818.53125,59.9375 L 818.9375,52.96875 z M 755.8125,23.1875 C 758.48064,22.921272 759.041,23.266916 759.625,25.59375 760.13282,27.617079 759.83824,28.654854 758.46875,29.65625 755.94358,31.502696 754.61417,31.342698 752.4375,28.9375 749.9919,26.23515 751.53386,23.614423 755.8125,23.1875 z M 790.625,24.09375 C 791.53761,24.169614 792.40275,24.762868 793.4375,25.90625 794.82138,27.435427 794.92068,28.244344 794.03125,29.90625 792.55114,32.671857 790.87274,32.530704 787.9375,29.40625 785.56254,26.878186 785.53588,26.796767 787.4375,25.40625 788.73591,24.456819 789.71239,24.017886 790.625,24.09375 z M 772.8125,60.09375 C 770.91494,59.807841 768.8891,61.13123 765.90625,63.96875 761.88459,67.794455 761.73628,68.130503 762.34375,72.5625 762.69111,75.09676 763.92094,78.490585 765.0625,80.09375 766.95445,82.750761 767.67383,83 773.0625,83 778.94266,83 778.95916,82.970362 780.96875,79.03125 782.07992,76.853161 783,74.377089 783,73.5 783,72.622911 781.18924,69.207321 778.96875,65.9375 776.4822,62.275896 774.71006,60.379659 772.8125,60.09375 z M 771.9375,62.34375 C 772.58749,62.275915 773.07746,62.659174 773.9375,63.4375 774.94792,64.351917 776.81544,67.090362 778.09375,69.5 779.97377,73.043886 780.23348,74.412395 779.4375,76.6875 778.56962,79.168131 777.88782,79.542553 773.6875,79.8125 L 768.9375,80.125 766.875,75.46875 C 764.3852,69.840141 764.95731,66.891904 769.0625,63.96875 770.49098,62.951589 771.28751,62.411585 771.9375,62.34375 z"/>
</svg>
