<?xml version="1.0" encoding="UTF-8"?>
<svg xmlns="http://www.w3.org/2000/svg" viewBox="105.58 10.76 94.72 93.04">
  <path d="M 173.25,26.621218 C 171.4625,24.2469 170,21.785815 170,21.152139 170,19.110522 172.11123,19.921103 174.81291,23 178.01946,26.654246 179.92728,26.77076 183,23.5 185.59347,20.739382 187,20.316385 187,22.297052 187,24.068892 179.76533,31.007416 177.95784,30.969079 177.15603,30.952073 175.0375,28.995535 173.25,26.621218 z M 174.30053,83.313779 C 170.19631,78.793856 170.04888,78.727028 167.80053,80.367554 157.33083,88.006852 156.31779,87.925308 152.04817,79.099567 149.32221,73.464727 148.81322,71.429215 149.273,68.001274 149.84051,63.770221 153.21762,59 155.64551,59 156.3588,59 160.36754,61.025 164.55383,63.5 168.74011,65.975 172.79743,68 173.57008,68 175.59437,68 179.79542,60.875078 181.03653,55.337002 181.62144,52.72702 182.1,46.880431 182.1,42.344582 L 182.1,34.097584 187.3,29.071022 C 191.11735,25.380996 192.59165,24.466873 192.84468,25.633109 193.03425,26.506866 191.57175,28.878335 189.59468,30.903041 186.25813,34.319975 186,35.025411 186,40.726787 186,54.642775 181.32959,67.273818 174.83648,70.918302 172.38747,72.292901 171.85,72.13883 165.3104,68.187547 158.13799,63.853912 155.25685,63.143155 153.2,65.2 151.31757,67.082426 151.77395,70.49478 154.70832,76.477846 157.5797,82.332486 160.37826,83.659008 163.05472,80.434063 165.10132,77.968068 169.69849,75.952841 171.68665,76.650153 172.68399,76.999952 175.19924,78.899559 177.27609,80.871502 180.01907,83.475921 181.41706,84.189161 182.38582,83.478426 187.55107,79.68894 189.14925,78.815916 189.77522,79.441889 190.80234,80.469006 182.41783,88.005842 180.28872,87.969302 179.30493,87.952418 176.61024,85.857432 174.30053,83.313779 z M 187,89.188058 C 187,87.999524 193.05298,83.719645 193.74922,84.415887 194.57255,85.23922 189.94868,90 188.32569,90 187.59656,90 187,89.634626 187,89.188058 z M 183.42931,98.386104 C 181.81819,97.554182 179.375,95.858941 178,94.618902 176.625,93.378862 174.31551,91.631681 172.8678,90.736278 170.32675,89.164639 170.04975,89.226695 164.8678,92.528539 156.26064,98.012871 154.11939,97.25409 146.51751,86.025863 143.88221,82.133438 141.35411,78.71885 140.8995,78.437889 140.4449,78.156928 139.13646,78.863539 137.99187,80.008135 136.16811,81.831894 135.99384,82.823321 136.58247,88.026185 137.32888,94.623536 135.54402,99 132.107,99 130.65852,99 130.15013,98.024348 129.75033,94.477315 129.45717,91.87636 128.09356,88.299512 126.54117,86.059401 123.47369,81.633036 123.83647,80.041517 129.20749,74.362122 L 132.17499,71.224245 129.01545,66.862122 C 127.2777,64.462955 125.19801,62.131566 124.39391,61.681258 121.52881,60.076759 117.01981,68.321558 117.00558,75.190983 116.99786,78.914734 115.05171,79.782076 112.83805,77.048325 109.88682,73.403716 110.28117,62.538039 113.57879,56.63794 116.43749,51.523172 120.67248,48 123.96193,48 125.14618,48 128.0718,49.092409 130.46331,50.427575 132.85483,51.762742 135.07892,52.587742 135.40576,52.260909 135.73259,51.934076 136,50.166667 136,48.333333 136,45.495128 135.64869,45 133.63486,45 130.23181,45 126,41.334904 126,38.387582 126,30.543277 141.39238,14.992378 145.29444,18.894437 145.75774,19.357741 145.43698,21.411734 144.58163,23.458865 142.53045,28.368027 143.90783,31.633318 147.29199,29.884214 148.50639,29.256547 150.27074,28.07125 151.21275,27.25022 156.08499,23.003733 157.98671,31.995431 153.5079,38.102117 150.27565,42.509168 148,47.411631 148,49.967881 148,52.422332 148.89866,52.492837 153.31851,50.385154 L 156.70488,48.770307 163.08723,53.913262 C 166.59752,56.741887 170.15142,58.925587 170.98479,58.765928 173.16197,58.348816 174.87823,52.485458 174.94356,45.241312 174.99967,39.019193 174.96787,38.94767 169.5,33 166.475,29.709556 164,26.638466 164,26.175354 164,23.472315 166.08129,24.700194 171.71319,30.725831 L 178.04471,37.5 177.87079,43.5 C 177.66342,50.653814 175.6955,57.919531 173.09563,61.130229 L 171.20971,63.459244 166.84625,61.280025 C 164.44634,60.081455 160.9734,57.625109 159.12861,55.821479 L 155.77443,52.542151 150.92495,55.249715 C 146.71535,57.600023 145.96118,57.753051 145.20928,56.409478 143.70087,53.714093 145.90895,42.784375 148.52442,40 151.40139,36.937238 153.29146,32.298164 151.99004,31.493841 151.47659,31.176512 149.9448,31.645289 148.58606,32.535567 147.22733,33.425845 145.07711,34.007047 143.80782,33.827127 141.68671,33.526466 141.50938,33.034797 141.61599,27.75 141.69451,23.857677 141.34151,22 140.52336,22 139.0115,22 131.88808,30.320219 130.36753,33.86209 128.78669,37.544387 130.24799,41 133.38599,41 138.33139,41 139,41.83668 139,48.025201 139,51.221374 138.72686,54.548229 138.39301,55.418213 137.50618,57.729266 133.98467,57.35362 129.78519,54.5 127.76169,53.125 125.28236,52 124.27556,52 119.86366,52 114.35966,58.92763 113.94707,65 113.29664,74.572903 115.30599,77.681505 116.50572,68.958407 117.27304,63.379307 120.9784,58 124.05405,58 125.08599,58 127.97099,60.129637 130.46515,62.732527 136.27222,68.792735 136.51496,72.139311 131.5,77 127.44779,80.92756 127.34615,81.381796 129.90494,84.128342 130.95266,85.252935 132.10905,87.767733 132.47469,89.71678 132.89724,91.969154 133.48767,92.912326 134.09497,92.305035 134.70226,91.697743 134.52869,90.108709 133.61867,87.944404 131.89218,83.838296 133.09113,80.783993 138.07597,76.589529 141.89555,73.375566 142.19752,73.56576 149.07851,83.519478 155.10526,92.237478 158.19563,94.052452 161.93024,91.067312 169.823,84.758495 172.77221,84.83602 179.94009,91.540734 182.56212,93.99333 185.47827,96 186.42043,96 187.36259,96 189.60839,94.875 191.41111,93.5 195.16581,90.63615 196,90.43641 196,92.401224 196,93.171897 194.3125,94.851981 192.25,96.134742 190.1875,97.417504 188.01819,98.789158 187.42931,99.182863 186.84043,99.576567 185.04043,99.218026 183.42931,98.386104 z"/>
</svg>
