<?xml version="1.0" encoding="UTF-8"?>
<svg xmlns="http://www.w3.org/2000/svg" viewBox="127.44 15.79 18.22 89.42">
  <path d="M 143.65625,79.46875 141.5,78.3125 141.78125,69.90625 C 142.48928,48.191305 142.53761,21.847015 141.875,21.4375 140.23265,20.422474 139.90249,23.962403 139.46875,46.71875 139.03068,69.702165 138.18192,94.510649 137.71875,98.40625 137.595,99.447054 138.00752,100.46832 138.625,100.6875 139.93207,101.15148 140.98052,97.885728 141,93.25 141.00751,91.4625 141.25525,90 141.5625,90 141.60923,90 142.10298,90.37956 142.21875,90.4375 L 143,84.53125 C 142.9858,84.397379 142.91558,84.225085 143.03125,84.1875 L 143.65625,79.46875 z M 130.5625,20.09375 C 130.32497,20.331275 129.93637,38.395858 129.6875,60.25 129.43863,82.104143 129.60857,100 130.0625,100 130.51644,100 131.15252,99.530984 131.5,98.96875 132.31771,97.645663 132.43989,21.096141 131.625,20.28125 131.2853,19.941554 130.80002,19.856226 130.5625,20.09375 z"/>
</svg>
