<?xml version="1.0" encoding="UTF-8"?>
<svg xmlns="http://www.w3.org/2000/svg" viewBox="985.97 13.5 39.03 95.79">
  <path d="M 1023,89.78125 C 1021.816,89.228548 1020.6049,88.346011 1019,86.71875 1015.9937,83.670693 1015.8518,83.202813 1016.3438,77.5 1016.6285,74.2 1017.3535,67.9 1017.9688,63.5 1019.4416,52.967471 1019.4172,32.074613 1017.9062,27.03125 1016.5267,22.427121 1014.4759,20.26989 1010.375,19.09375 1006.0565,17.855222 1003.6282,19.255731 1000.0938,25 993.79991,35.22874 991.78549,43.826396 991.71875,60.8125 991.6861,69.121335 992.05871,70.834842 996.09375,80.71875 997.52249,84.218478 997.44457,84.434715 990.96875,95.5 989.35935,98.25 988.0441,100.8375 988.03125,101.25 987.96653,103.32788 991.15733,101.58815 992.625,98.75 993.54777,96.965556 995.87498,93.136865 997.8125,90.21875 L 1001.3438,84.90625 999.75,80.1875 C 998.86803,77.602559 997.37099,73.475 996.4375,71 993.29823,62.676751 995.03479,40.612912 999.5625,31.1875 1003.1492,23.720993 1004.7514,22 1008.0938,22 1014.7645,22 1016.3878,28.054534 1015.6875,50 1015.3517,60.522869 1014.5986,68.492377 1013.5938,72 1011.3884,79.698894 1011.6001,82.969484 1014.5938,87.375 1016.4139,90.053684 1019.9926,92.477925 1023,93.625 L 1023,89.78125 z M 1023,101.1875 C 1021.8259,101.2754 1020.7682,100.95352 1018.9062,99.84375 1017.0354,98.728665 1013.6014,95.963367 1011.2812,93.71875 L 1007.0625,89.65625 1001.0625,95.5625 C 997.75653,98.822505 995.04266,101.8375 995.03125,102.25 994.9744,104.30565 998.90267,102.52641 1002.7188,98.78125 L 1007,94.59375 1010.75,98.125 C 1012.814,100.06231 1015.625,102.35309 1017,103.25 1018.375,104.14692 1020.7425,104.90865 1022.25,104.9375 1022.3583,104.93957 1022.8347,104.74846 1023,104.71875 L 1023,101.1875 z"/>
</svg>
