<?xml version="1.0" encoding="UTF-8"?>
<svg xmlns="http://www.w3.org/2000/svg" viewBox="685.38 13.67 44.61 88.93">
  <path d="M 693.53125,77.5625 691.46875,81.1875 C 692.52508,81.436969 694.12115,82.324769 696.84375,84 702.80168,87.665948 706.87089,88.569298 709.28125,86.78125 713.45901,83.682108 718.28187,55.121815 716.5625,43.65625 715.80679,38.616816 713.44606,36.396343 709.96875,37.5 706.82522,38.497716 707.55963,41 711,41 L 714,41 714,53.46875 C 714,61.307491 713.49038,67.524129 712.625,70.21875 711.86814,72.575471 710.67976,76.610196 710,79.1875 709.32023,81.764803 708.1939,84.096734 707.46875,84.375 706.19878,84.862333 695.58064,79.986894 693.59375,78 693.48924,77.895491 693.57706,77.696412 693.53125,77.5625 z M 689.84375,84 687.40625,88.28125 C 688.55735,88.007923 690.04683,88.693792 692.15625,90.46875 693.77062,91.827153 698.31623,93.882207 702.28125,95.03125 706.24628,96.180293 709.95,97.269618 710.5,97.46875 713.49963,98.554792 716.75465,96.740007 718.15625,93.1875 720.93366,86.147876 724.98126,65.263247 725.9375,53.0625 727.9567,27.299441 727.03454,19.76746 721.71875,18.5 718.40546,17.71 710.71984,19.309242 710.1875,20.90625 709.81471,22.024616 710.81219,22.211247 715.28125,21.75 724.85508,20.761893 725.26661,22.445478 722.96875,52.71875 721.81437,67.927167 717.58076,89.606513 715.21875,92.28125 713.34657,94.401291 707.61622,93.898059 699.4375,90.875 695.41804,89.389306 691.26637,86.25 689.84375,84 z M 715.125,28.34375 C 712.33036,28.486616 708,30.202216 708,31.65625 708,33.231172 709.03867,33.35304 712.1875,32.09375 713.45088,31.588495 715.35178,30.900276 716.40625,30.5625 717.83858,30.103683 718.03708,29.662084 717.1875,28.8125 716.81787,28.442875 716.05655,28.296128 715.125,28.34375 z"/>
</svg>
