<?xml version="1.0" encoding="UTF-8"?>
<svg xmlns="http://www.w3.org/2000/svg" viewBox="897.75 13.7 71.41 94.63">
  <path d="M 947.69466,33.300017 C 946.02249,32.866557 945.64971,30.756867 947.275,30.925 947.67375,30.96625 949.35,31 951,31 953,31 954,31.5 954,32.5 954,33.983724 951.53752,34.296163 947.69466,33.300017 z M 939.11706,88 C 936.93894,85.8 934.24357,84 933.12734,84 932.01112,84 927.9163,85.661896 924.02774,87.693103 917.67892,91.009439 916.80141,91.229982 915.42631,89.854881 914.58408,89.012651 913.47447,85.354191 912.96051,81.724969 912.17646,76.188573 912.34063,74.107844 913.98038,68.798962 916.67959,60.059923 917.89171,58.597667 921.73658,59.442143 923.43629,59.815463 926.7784,61.588861 929.16349,63.383028 935.74513,68.334033 941.01075,70.32661 944.25409,69.093495 947.91533,67.701492 952.48733,61.093127 954.54991,54.211901 955.49156,51.070355 956.87805,46.571774 957.631,44.215053 959.24809,39.153596 959.4312,29.674223 957.96482,26.934259 957.27438,25.644158 955.85902,24.9949 953.71482,24.984687 949.78614,24.965974 947.48087,23.648994 948.49748,22.004079 949.61926,20.189002 957.01848,21.668737 959.77644,24.259703 961.82314,26.182474 962.05376,27.246632 961.87859,33.959704 961.77037,38.106867 961.14354,43.075 960.48562,45 959.8277,46.925 958.45288,51.2 957.43046,54.5 955.27363,61.461492 949.88715,70.454844 946.92494,72.040169 942.17065,74.584592 935.77602,72.607947 927.55285,66.052054 921.72704,61.407443 918.97058,62.081913 916.77827,68.688447 915.4889,72.574001 915.23778,75.309288 915.77827,79.581043 916.75511,87.301428 918.18646,88.01741 924.82209,84.104902 931.83791,79.968222 934.62952,80.121133 941.11948,84.997597 946.79428,89.261563 948.38275,89.378327 952.88486,85.862439 955.76311,83.614689 958,83.456191 958,85.5 958,86.325 957.47998,87 956.84439,87 956.20881,87 954.21383,88.125 952.41111,89.5 947.541,93.214613 943.8697,92.800371 939.11706,88 z M 952,95.098776 C 952,94.122697 958.51475,90 960.05716,90 962.04931,90 960.85818,91.924532 957.63197,93.918441 954.04043,96.138129 952,96.565759 952,95.098776 z M 949,103.33386 C 943.21089,102.42203 941.76405,101.78163 938.18233,98.545763 932.91479,93.786849 930.48128,93.414669 924.5,96.453186 921.75,97.850198 918.10816,99.256562 916.40702,99.578438 913.66349,100.09755 912.84814,99.634378 909.19037,95.478928 904.47517,90.122176 901,81.796538 901,75.856832 901,69.001585 903.90643,59.82654 907.57972,55.08589 911.74337,49.712412 912.05809,46.303667 908.47362,45.404024 904.76677,44.473662 903.70703,41.80171 905.0568,36.789051 907.18095,28.900577 916.87805,18 921.77146,18 925.88501,18 926.29646,20.46307 923.04055,25.597107 917.96671,33.597724 919.3392,34.888759 928.16428,30.416752 932.73498,28.100605 933.41991,27.99134 934.78857,29.359999 936.15723,30.728658 936.1338,31.361123 934.56199,35.476848 933.56524,38.0868 931.34016,41.239131 929.40449,42.783602 923.91321,47.165099 924.97973,49.507177 934.67923,54.366984 937.52781,55.794226 940.14187,57.420526 940.48825,57.980984 940.83463,58.541443 941.95635,59 942.98097,59 944.26345,59 945.80296,57.080758 947.92195,52.840278 949.61488,49.45243 951,46.052063 951,45.283907 951,44.51575 949.60753,42.615432 947.90562,41.060977 945.77179,39.112024 945.18194,38.005588 946.00545,37.496632 947.49428,36.576487 952.03679,39.867168 953.04682,42.597523 954.46065,46.419473 946.84701,63 943.67817,63 941.10399,63 925.86318,53.616598 923.85371,50.794549 922.06372,48.280752 921.95538,47.521943 923.01958,44.952741 923.69226,43.328734 924.60343,42 925.0444,42 926.65404,42 932,35.792216 932,33.923077 932,31.587079 931.7352,31.568453 927.75876,33.62475 922.44941,36.37032 919.30485,36.9434 917.35845,35.520154 915.68402,34.295783 915.77121,33.853546 918.84203,27.995292 920.63643,24.572069 921.85678,21.523449 921.55391,21.22058 921.25105,20.917712 918.86501,22.4745 916.25162,24.68011 911.63353,28.577615 906.58615,37.775389 907.61306,40.422041 907.8431,41.014918 909.37427,42.26657 911.01566,43.20349 915.04749,45.504897 914.84484,47.981509 909.96366,56.060145 907.4983,60.140449 905.41661,65.223576 904.61515,69.120258 903.44564,74.806407 903.49628,76.06551 905.08098,80.70162 907.36065,87.370879 911.60055,94.606407 913.7917,95.566732 916.06948,96.565027 917.38578,96.30327 924.81269,93.375125 931.99806,90.54221 935.84763,91.080007 939.99658,95.496361 941.25646,96.837437 944.44409,98.651062 947.08021,99.52664 951.78024,101.08774 951.98223,101.067 957.50042,98.456477 963.2252,95.748223 965.9222,95.790036 962.427,98.532856 959.80478,100.59061 953.26188,104.03141 952.28984,103.86382 951.85543,103.78892 950.375,103.55044 949,103.33386 z"/>
</svg>
