<?xml version="1.0" encoding="UTF-8"?>
<svg xmlns="http://www.w3.org/2000/svg" viewBox="34.2 15.09 83.51 93.14">
  <path d="M 38,84.5625 C 40.105978,81.008133 41.525361,78.747113 44.375,73.78125 45.545776,71.741021 47.98807,67.541876 49.8125,64.4375 51.803344,61.04996 52.883247,58.144229 52.5,57.15625 51.931705,55.691231 51.686112,55.72009 50.34375,57.5 49.514159,58.6 47.710567,61.525 46.34375,64 44.976933,66.475 42.889311,70.147085 41.6875,72.15625 41.163047,73.03302 39.269228,76.35904 38,78.5625 L 38,84.5625 z M 63.5625,67.96875 C 62.655895,67.998921 60.304229,71.405522 56.03125,78.75 52.591388,84.6625 48.214827,91.905448 46.3125,94.84375 44.282738,97.978887 43.111779,100.851 43.46875,101.78125 43.995592,103.15418 44.271746,103.17391 45.5,101.9375 48.736225,98.6798 64,71.553198 64,69.0625 64,68.347261 63.864702,67.958693 63.5625,67.96875 z M 38,52.09375 C 39.422956,49.904817 40,48.843964 40,48.5 40,48.116514 40.9,46.679673 42,45.28125 44.078142,42.63932 44.693288,39 43.0625,39 42.546697,39 40.409197,41.72481 38.3125,45.0625 38.236887,45.182867 38.080353,45.434947 38,45.5625 L 38,52.09375 z M 100.9375,19.46875 C 99.828656,19.890725 100.92211,22.101944 103.90625,24.65625 107.49769,27.730389 108.0104,28.658704 108,32.3125 107.97603,40.737073 103.29829,52.989753 97.15625,60.6875 93.919814,64.743691 90.36606,65.020982 86.21875,61.53125 81.534827,57.589989 78.450487,56.792018 74.4375,58.46875 71.081641,59.870918 69.094136,62.437886 70.375,63.71875 70.718775,64.062525 72.013328,63.826678 73.25,63.21875 78.0259,60.870996 79.712611,60.901055 82.625,63.3125 84.200125,64.616695 86.4,66.191233 87.5,66.8125 91.440707,69.038163 95.027722,68.216743 98.71875,64.25 104.15243,58.410425 112,39.796157 112,32.75 112,27.821533 107.4097,21.318363 102.78125,19.6875 101.90928,19.380255 101.30711,19.328092 100.9375,19.46875 z M 100.15625,26.28125 C 99.661928,26.175641 99.247661,26.377339 98.8125,26.8125 97.942177,27.682823 98.08607,28.440906 99.46875,29.96875 100.47599,31.081746 101.91649,32 102.65625,32 104.65112,32 104.27718,29.557848 101.96875,27.46875 101.20483,26.77741 100.65057,26.386859 100.15625,26.28125 z M 48.84375,27 C 46.658848,27 46.453293,28.316691 48.40625,29.9375 49.182927,30.582085 50.34682,33.339741 51,36.0625 52.123507,40.745806 53.231589,42.05689 54.40625,40.15625 55.013747,39.173298 53.409037,32.514776 51.78125,29.25 51.164244,28.0125 49.850811,27 48.84375,27 z M 70.71875,29.09375 C 68.677738,30.189909 65.569377,40.003802 65.625,46.28125 65.695235,54.207797 66.704545,54.954874 73.0625,51.65625 L 78.21875,48.96875 81.875,51.1875 C 83.874878,52.395124 86.617554,54.220379 87.96875,55.25 92.331017,58.574079 97.065132,56.142099 101.40625,48.375 105.29591,41.415642 105.52321,38.755014 102.46875,35.125 101.01756,33.400351 99.182359,32 98.40625,32 96.484812,32 96.589776,32.428746 99.65625,37.0625 102.20301,40.91091 102.25531,41.221365 100.78125,44.3125 98.850351,48.361642 94.185983,54 92.75,54 92.154699,54 90.962057,53.401542 90.09375,52.65625 89.225442,51.910958 86.185248,50.019156 83.375,48.46875 L 78.28125,45.65625 73.90625,47.8125 69.53125,49.96875 68.75,47.84375 C 68.2513,46.495635 68.702712,42.723481 70,37.71875 71.13618,33.335548 71.837287,29.493536 71.53125,29.1875 71.295582,28.951832 71.010323,28.937156 70.71875,29.09375 z M 79.78125,75.15625 C 78.676048,75.557804 76.931741,78.05697 73.25,84.25 64.23352,99.416555 62.887139,102.00837 63.5,103 63.835158,103.54229 64.460891,104 64.875,104 66.04892,104 69.371357,98.956484 71.46875,94 72.516075,91.525 73.889494,88.825 74.53125,88 76.870329,84.993032 81.297904,75.985403 80.71875,75.40625 80.441178,75.128678 80.149651,75.022399 79.78125,75.15625 z M 89.40625,77.25 C 87.71086,77.37227 85.745696,78.567467 83,80.875 78.556532,84.609373 79.660615,85.895521 84.8125,83 88.023645,81.195235 89.129892,81.003547 90.875,81.9375 92.049667,82.566163 93,83.449773 93,83.90625 93,84.362727 93.922581,85.925828 95.0625,87.375 97.802048,90.857771 101.87294,90.826963 106.1875,87.28125 112.67026,81.953707 111.79014,80.275075 104.6875,84.4375 100.38014,86.961778 97,87.031037 97,84.59375 97,83.944318 95.733908,81.914848 94.1875,80.0625 92.526409,78.072781 91.10164,77.12773 89.40625,77.25 z M 88.28125,90 C 85.312738,90 80,93.56474 80,95.5625 80,97.526512 81.276549,97.363498 84.28125,95 85.679673,93.9 87.141689,93 87.53125,93 87.920812,93 90.437263,94.62077 93.125,96.59375 95.812737,98.56673 99.239047,100.54526 100.75,101 102.26095,101.45475 103.62184,101.85897 103.78125,101.90625 104.50522,102.12094 111.93507,97.902126 112.53125,96.9375 113.91791,94.693836 111.72943,94.603614 108,96.75 103.47801,99.35253 102.31078,99.095471 95.625,93.84375 92.940654,91.73518 89.637001,90 88.28125,90 z M 110.75,87.03125 C 109.41284,87.066839 105,90.423967 105,91.40625 105,92.51446 107.55602,91.996112 109.78125,90.4375 112.21824,88.730568 112.7151,86.978948 110.75,87.03125 z"/>
</svg>
