<?xml version="1.0" encoding="UTF-8"?>
<svg xmlns="http://www.w3.org/2000/svg" viewBox="1007.63 13.51 624.05 98.74">
  <path d="M 1036,79.34375 C 1037.2141,77.422365 1038.9597,74.732914 1039.5938,73.6875 1041.1983,71.042185 1045.1076,64.824275 1048.3125,59.875 1051.5174,54.925725 1056.5371,46.517909 1059.4375,41.1875 1062.338,35.85709 1065.9383,29.384843 1067.4375,26.78125 1071.8958,19.038587 1069.9834,17.995128 1065.375,25.65625 1063.1107,29.420371 1058.9482,36.234627 1056.125,40.8125 1053.3017,45.390373 1051,49.38268 1051,49.65625 1051,49.92982 1049.0529,52.913943 1046.6562,56.3125 1044.2596,59.711057 1041.0016,64.75 1039.4375,67.5 1038.7606,68.690187 1037.2064,71.142339 1036,73.125 L 1036,79.34375 z M 1088.625,21 C 1087.8685,21 1085.6405,24.153677 1083.6562,28 1081.6719,31.846322 1078.8135,36.908822 1077.3125,39.25 1075.8116,41.591177 1073.877,44.730312 1073.0312,46.21875 1067.0831,56.686925 1049.5338,84.472243 1040.4062,97.90625 1039.1275,99.788251 1038.3122,101.70075 1038.5938,102.15625 1038.8753,102.61175 1039.5161,103 1040,103 1041.6059,103 1061.5403,71.970973 1073.4062,51 1075.4291,47.425 1077.616,43.611678 1078.2812,42.53125 1085.0148,31.594282 1087,28.119668 1087,27.25 1087,26.689279 1087.675,25.684689 1088.5,25 1090.3786,23.440892 1090.4551,21 1088.625,21 z M 1324.125,18.5 1321.7188,21.3125 C 1320.3916,22.865675 1315.5513,31.190675 1310.9688,39.8125 1299.5936,61.213915 1298.1542,63.896672 1295.4375,68.5 1294.1391,70.7 1292.0996,74.285624 1290.9062,76.46875 1289.7131,78.651875 1287.9764,81.576875 1287.0312,82.96875 1279.441,94.145583 1274.8459,102.17123 1275.3438,103.46875 1275.6641,104.30384 1276.1569,105 1276.4375,105 1276.9324,105 1282.4632,96.706986 1288.75,86.5 1290.4438,83.75 1293.5578,78.125 1295.6875,74 1297.8171,69.875 1300.7207,64.7 1302.125,62.5 1303.5292,60.3 1308.0981,51.894528 1312.2812,43.8125 1316.4645,35.730472 1320.5546,28.080472 1321.375,26.8125 1322.1954,25.544528 1323.1512,23.15 1323.5,21.5 L 1324.125,18.5 z M 1429.1562,19 C 1428.0258,19 1422.8256,27.200672 1417.9062,36.6875 1415.6744,40.991537 1412.8103,46.3 1411.5625,48.5 1410.3146,50.7 1407.587,55.65 1405.5,59.5 1403.4131,63.35 1401.1495,67.175 1400.4688,68 1399.7878,68.825 1398.8856,70.625 1398.4688,72 1397.7464,74.382569 1388.2912,90.657012 1383.4062,97.90625 1382.1398,99.785628 1381.3106,101.69813 1381.5938,102.15625 1381.877,102.61437 1382.5186,103 1383,103 1384.007,103 1394.1735,86.147812 1402,71.5 1410.6074,55.390772 1413.349,50.450079 1416.7812,45 1417.9935,43.075 1419.0138,40.825 1419.0312,40 1419.0486,39.175 1420.3965,36.722976 1422.0312,34.5625 1423.6659,32.402023 1425,30.15142 1425,29.53125 1425,28.911081 1426.125,26.863708 1427.5,25 1430.0038,21.606353 1430.7163,19 1429.1562,19 z M 1342.25,20 C 1341.1552,20 1324,46.611939 1324,48.3125 1324,48.60016 1321.6375,52.708248 1318.75,57.4375 1315.8625,62.166752 1312.9375,67.168561 1312.25,68.53125 1311.5625,69.893938 1310.4375,72.088422 1309.75,73.4375 1309.0625,74.786578 1305.9519,80.074078 1302.8438,85.1875 1294.4865,98.937287 1291.9956,103.68304 1292.7188,104.40625 1293.0753,104.76287 1293.8193,104.89354 1294.3438,104.71875 1295.275,104.40836 1309.3527,80.447268 1313.2812,72.5 1314.3689,70.3 1317.4081,65.125 1320.0312,61 1322.6543,56.875 1325.8001,51.397001 1327,48.8125 1328.1999,46.227999 1329.8162,43.582844 1330.5938,42.9375 1331.3714,42.292157 1332,41.225933 1332,40.59375 1332,39.961566 1334.475,35.650944 1337.5,31 1342.6929,23.015981 1344.0064,20 1342.25,20 z M 1108.1562,18.96875 C 1107.8893,19.013269 1107.5404,19.180751 1107.125,19.4375 1105.7273,20.301366 1100.2327,28.468524 1097,34.5 1092.7262,42.474001 1081.4291,61.634871 1074.5938,72.5 1066.3184,85.654311 1057,101.81912 1057,103.03125 1057,103.56179 1057.6493,104 1058.4375,104 1059.2257,104 1061.3991,101.1875 1063.2812,97.75 1067.2536,90.494936 1099.5656,36.654892 1103.9375,30 1108.3124,23.340578 1110.0246,18.657117 1108.1562,18.96875 z M 1163.0312,19 C 1162.5025,19 1160.9956,21.1375 1159.6562,23.75 1148.3468,45.810237 1144.8137,52.519173 1144.0938,53.4375 1143.6352,54.022463 1140.8945,58.949894 1138,64.40625 1133.2218,73.413466 1122.1638,92.068229 1118.4688,97.34375 1117.6534,98.507749 1117,99.839045 1117,100.3125 1117,100.78595 1117.514,100.99534 1118.1562,100.78125 1119.5919,100.30274 1129.8659,85.938656 1129.9375,84.3125 1129.9659,83.667199 1131.0842,81.883603 1132.4062,80.3125 1133.7282,78.741397 1136.722,73.852346 1139.0625,69.46875 1141.4031,65.085154 1145.034,58.677089 1147.125,55.21875 1149.216,51.76041 1152.1683,46.13541 1153.6875,42.71875 1155.2067,39.302089 1158.1415,33.536285 1160.2188,29.90625 1163.8627,23.538208 1165.0303,19 1163.0312,19 z M 1127.375,19.28125 C 1125.89,18.786254 1122.9803,23.235595 1116.0312,36.5 1108.1282,51.585505 1102.2734,61.673331 1099.3125,65.3125 1098.0476,66.867199 1097,68.594928 1097,69.125 1097,69.655072 1096.1583,71.29102 1095.125,72.78125 1094.0917,74.271479 1090.6014,79.775 1087.375,85 1084.1485,90.225 1080.4902,96.010749 1079.25,97.875 1078.0097,99.739251 1077,101.87675 1077,102.625 1077,103.37325 1077.4523,104 1078,104 1079.1538,104 1091.8933,84.763897 1097.5312,74.5 1099.6459,70.65 1102.402,66.222516 1103.6875,64.65625 1105.7985,62.084129 1108.0962,58.103575 1120.125,36.09375 1122.1224,32.439012 1124.9525,27.673398 1126.4062,25.53125 1129.0231,21.675227 1129.2858,19.918198 1127.375,19.28125 z M 1226.0312,19 C 1224.8939,19 1217.9298,29.052671 1214.4062,35.78125 1213.0448,38.381288 1211.5354,41.175 1211.0312,42 1206.7766,48.960768 1201,59.094117 1201,59.59375 1201,60.27662 1195.8508,69.015568 1189.5625,79 1181.2217,92.243484 1176,101.41226 1176,102.84375 1176,105.48666 1178.0714,103.60349 1182.1562,97.25 1184.5431,93.5375 1186.8318,89.722861 1187.2188,88.78125 1187.6058,87.83964 1189.897,84.01464 1192.3125,80.28125 1194.728,76.547861 1198.6019,70.125 1200.9375,66 1209.5837,50.729464 1214.2844,42.358309 1217.25,37 1218.9241,33.975 1221.1402,30.303653 1222.1562,28.84375 1223.1724,27.383846 1224,25.754002 1224,25.21875 1224,24.683499 1224.675,23.684689 1225.5,23 1227.1748,21.610066 1227.5193,19 1226.0312,19 z M 1245.0312,19 C 1243.9234,19 1243.3566,19.854012 1236,33 1233.076,38.225 1230.1441,43.175 1229.4688,44 1228.7934,44.825 1226.7962,48.2 1225.0312,51.5 1223.2661,54.8 1220.3938,59.856524 1218.6562,62.71875 1216.9187,65.580975 1213.9746,70.530975 1212.125,73.71875 1210.2753,76.906524 1207.99,80.4 1207.0312,81.5 1204.3184,84.612843 1195,100.27495 1195,101.71875 1195,104.84908 1197.8124,102.42632 1201.4062,96.21875 1203.5494,92.516785 1207.6173,85.9 1210.4688,81.5 1220.8313,65.510335 1222.7865,62.429493 1224.9375,58.5 1226.1418,56.3 1228.3321,52.432553 1229.8125,49.90625 1231.293,47.379947 1234.525,41.851492 1237,37.625 1245.5633,23.001713 1247.2965,19 1245.0312,19 z M 1282.6562,19 C 1281.469,19 1262.2957,50.356392 1259.3438,57.125 1258.7105,58.576855 1257.7059,60.059156 1257.0938,60.4375 1256.4815,60.815843 1255.0501,62.787316 1253.9375,64.8125 1252.8248,66.837683 1250.9356,70.182299 1249.7188,72.25 1234.4228,98.238775 1231.9793,102.66687 1232.625,103.3125 1234.4174,105.10492 1236.5513,101.92793 1251.6875,74.96875 1252.8928,72.822033 1255.8816,68.013855 1258.3125,64.28125 1260.7435,60.548645 1263.7024,55.7 1264.9062,53.5 1266.1101,51.3 1268.6112,47.025 1270.4688,44 1274.9803,36.653045 1284,20.409967 1284,19.625 1284,19.280574 1283.393,19 1282.6562,19 z M 1304.1562,19 C 1302.5851,19 1300.6117,21.839285 1293.75,34 1290.5622,39.649637 1276.0866,63.821094 1270.6875,72.5 1260.1715,89.40447 1253.015,102.17663 1253.5625,103.0625 1254.7137,104.92529 1256.0225,103.89118 1258.375,99.25 1259.6992,96.6375 1263.1516,90.675 1266.0625,86 1277.9187,66.958319 1290.4307,46.120578 1293.6562,40 1295.5402,36.425 1298.8509,30.648973 1301.0312,27.15625 1305.03,20.751075 1305.7032,19 1304.1562,19 z M 1263,19.15625 C 1262.2915,19.392418 1260.4053,22.050446 1258.8125,25.03125 1257.2198,28.012055 1255.3274,31.126515 1254.5938,31.96875 1253.8601,32.810986 1252.2878,35.525 1251.125,38 1249.9622,40.475 1248.0412,44.075 1246.8438,46 1245.6463,47.925 1243.7389,51.129197 1242.5938,53.125 1238.2718,60.657697 1231.8882,71.556272 1230.9688,73 1222.488,86.315067 1214,100.66846 1214,101.6875 1214,104.81216 1217.1057,102.54288 1220.0625,97.25 1221.8292,94.0875 1224.506,89.475 1226,87 1227.494,84.525 1232.6615,75.75 1237.5,67.5 1242.3386,59.25 1246.8389,51.825 1247.5,51 1248.161,50.175 1249.9949,47.025 1251.5625,44 1253.1301,40.975 1256.3157,35.28586 1258.6562,31.34375 1263.3445,23.447454 1265.1307,18.445997 1263,19.15625 z M 1046.7188,19.1875 C 1046.4648,19.175229 1045.9668,19.625078 1045,20.5 1043.9,21.495486 1043,22.727507 1043,23.25 1043,23.772493 1041.65,26.211414 1040,28.65625 1038.35,31.101087 1037,33.540073 1037,34.0625 1037,34.584927 1037.4853,35 1038.0938,35 1040.4723,35 1046.8977,24.576266 1046.9688,20.59375 1046.9851,19.6729 1046.9727,19.199771 1046.7188,19.1875 z M 1205.5938,19.65625 C 1204.8767,19.917095 1203.8063,21.290655 1202.4688,23.65625 1200.9606,26.323487 1196.0134,34.575 1191.5,42 1181.7242,58.082286 1176,67.905796 1176,68.59375 1176,68.869461 1174.2821,71.680179 1172.1875,74.8125 1166.2815,83.644562 1157,99.631113 1157,100.96875 1157,104.30533 1160.1946,100.56463 1166.1875,90.25 1166.9047,89.015619 1171.0614,82.040619 1175.4062,74.75 1179.7512,67.459381 1185.1105,58.35 1187.3125,54.5 1189.5144,50.65 1193.4282,44.35 1196.0312,40.5 1202.5956,30.791212 1207.4062,20.999867 1206.1875,19.78125 1206.0288,19.622523 1205.8328,19.569302 1205.5938,19.65625 z M 1144.5625,20 C 1143.7535,20 1140.424,25.115749 1136.9062,31.75 1133.4796,38.2125 1127.8327,48.050095 1124.375,53.59375 1120.9172,59.137405 1117.0774,65.543275 1115.8125,67.84375 1114.5475,70.144225 1110.3453,77.06913 1106.5,83.25 1099.511,94.484183 1095,102.44051 1095,103.46875 1095,103.76895 1095.3903,104 1095.875,104 1097.1746,104 1100.9951,98.652285 1106.9375,88.5 1109.8349,83.55 1113.2753,78.063303 1114.5938,76.3125 1115.9121,74.561697 1117,72.90766 1117,72.625 1117,72.34234 1121.2823,65.042879 1126.5312,56.40625 1135.3411,41.910296 1139.986,33.309657 1140.0312,31.3125 1140.0412,30.869825 1141.3913,28.514015 1143.0312,26.09375 1146.3689,21.168166 1146.6493,20 1144.5625,20 z M 1182.625,20 C 1181.3125,20 1175.9676,27.655522 1170.75,37 1166.504,44.60432 1161.4682,53.258145 1158.2188,58.5 1156.5141,61.25 1153.8123,65.75 1152.2188,68.5 1150.6251,71.25 1147.6091,76.425 1145.5312,80 1137.7858,93.327021 1133.0586,102.71494 1133.7188,103.375 1134.4646,104.12088 1138.9109,99.115072 1138.9688,97.46875 1138.9885,96.906208 1140.6265,93.981208 1142.625,90.96875 1144.6236,87.956292 1146.9098,84.15 1147.6875,82.5 1148.4652,80.85 1151.0618,76.35 1153.4688,72.5 1155.8756,68.65 1161.3402,59.425 1165.5938,52 1169.8472,44.575 1175.7178,34.713064 1178.6562,30.09375 1184.3302,21.173704 1184.783,20 1182.625,20 z M 1468.1562,20 C 1466.2378,20 1460.6288,29.486856 1446,57.5 1433.163,82.082008 1428.2927,90.933679 1424.875,95.8125 1422.7506,98.845174 1421,101.92243 1421,102.65625 1421,104.59319 1422.938,104.30227 1423.6875,102.25 1424.039,101.2875 1426.2451,97.8 1428.5625,94.5 1430.8799,91.2 1434.8476,84.564421 1437.375,79.75 1439.9024,74.93558 1442.5812,69.98558 1443.3438,68.75 1444.1064,67.514421 1448.4469,59.3 1453,50.5 1457.5531,41.7 1463.0355,31.649962 1465.1562,28.15625 1469.0619,21.721953 1469.6843,20 1468.1562,20 z M 1508.25,20 C 1507.2858,20.015914 1504.17,24.830006 1496.2188,38.5 1492.6997,44.55 1489.217,50.175 1488.5,51 1487.7831,51.825 1485.9116,54.812414 1484.3438,57.65625 1482.7759,60.500086 1478.575,67.926532 1475,74.125 1468.1817,85.946819 1466.8943,88.189052 1463.25,94.8125 1462.0203,97.047359 1460.5578,99.155224 1460,99.5 1459.4421,99.844776 1459,101.21996 1459,102.5625 1459,104.06559 1459.5763,105 1460.5,105 1461.325,105 1462,104.5851 1462,104.09375 1462,103.6024 1463.5607,100.5649 1465.4688,97.34375 1467.3766,94.122599 1470.4918,88.494872 1472.375,84.8125 1474.2581,81.130128 1476.6578,76.855128 1477.7188,75.3125 1478.7798,73.769872 1480.9031,70.025 1482.4375,67 1483.9719,63.975 1485.7671,60.825 1486.4375,60 1487.1079,59.175 1488.9262,56.25 1490.4688,53.5 1492.0112,50.75 1494.0526,47.6 1495,46.5 1495.9473,45.4 1498.0105,42.025 1499.5938,39 1501.1769,35.975 1503.955,31.173579 1505.75,28.3125 1508.8649,23.347839 1509.8668,19.973315 1508.25,20 z M 1487.375,20.3125 C 1486.7527,20.093821 1484.5632,23.20713 1482.5,27.21875 1477.2915,37.345541 1472.9962,45.048581 1470.9375,48 1469.9783,49.375 1465.3613,57.025 1460.6875,65 1456.0137,72.975 1450.7757,81.254845 1449.0625,83.40625 1445.5823,87.776631 1438,101.13067 1438,102.875 1438,103.49479 1438.3434,104 1438.7812,104 1439.8106,104 1449.095,90.011497 1455.5,78.78125 1462.7332,66.098843 1469.7775,54.326795 1474.0625,47.78125 1476.1185,44.64067 1479.2434,39.01567 1481.0312,35.28125 1482.819,31.54683 1485.0914,27.6 1486.0625,26.5 1488.2236,24.052024 1488.9055,20.850266 1487.375,20.3125 z M 1362.875,20.03125 C 1361.2065,20.44634 1357.4055,26.829461 1345.8125,48 1342.3489,54.325 1339.0501,60.260165 1338.5,61.1875 1337.9499,62.114835 1335.9828,65.489835 1334.125,68.6875 1332.2671,71.885165 1328.3962,78.1 1325.5312,82.5 1315.3382,98.154461 1313,101.99743 1313,103 1313,105.86587 1316.0661,103.29785 1319.0938,97.90625 1320.9742,94.557594 1324.0105,89.772205 1325.8438,87.28125 1329.0774,82.88734 1329.9101,81.551611 1336.4375,70.125 1338.1272,67.167187 1340.7398,62.667187 1342.25,60.125 1343.7601,57.582812 1345.3111,54.825 1345.6875,54 1346.0639,53.175 1349.7355,46.65 1353.8438,39.5 1363.5935,22.531917 1364.3556,21.003927 1363.5,20.1875 1363.3335,20.02865 1363.1134,19.971951 1362.875,20.03125 z M 1385.75,20.21875 C 1385.4227,19.321095 1383.4218,21.276427 1380.9688,25.25 1379.1861,28.1375 1376.885,31.737419 1375.8438,33.25 1374.8025,34.762581 1369.966,43.762581 1365.0938,53.25 1360.2215,62.737419 1354.4012,73.425 1352.1875,77 1342.239,93.066446 1337,102.06526 1337,103.0625 1337,105.92281 1340.577,102.86875 1343.5,97.5 1345.2967,94.2 1349.123,87.45 1352.0312,82.5 1354.9395,77.55 1359.2831,69.9 1361.6562,65.5 1364.0295,61.1 1366.4278,56.825 1367,56 1367.5723,55.175 1368.7074,52.925 1369.5312,51 1371.76,45.792307 1375.2816,38.836742 1377.125,36 1378.0205,34.621975 1380.1177,31.404629 1381.7812,28.84375 1383.4447,26.282871 1385.1033,23.245371 1385.4688,22.09375 1385.7755,21.127387 1385.8591,20.517968 1385.75,20.21875 z M 1446.8438,20.0625 C 1446.0135,20.428612 1444.6973,22.555571 1441.7812,28 1433.6714,43.141325 1427.5813,53.957303 1424.8125,58.15625 1423.8454,59.622996 1420.2721,66.147996 1416.875,72.65625 1413.478,79.164503 1409.8641,85.563327 1408.8438,86.875 1407.8234,88.186672 1407,89.702359 1407,90.25 1407,90.797641 1405.425,93.44554 1403.5,96.125 1401.575,98.804459 1400,101.22628 1400,101.5 1400,101.77373 1400.604,102 1401.3438,102 1404.0208,102 1407.0951,97.279286 1418.3125,76 1422.5496,67.962437 1424.2864,64.974271 1431.4688,53.09375 1438.1305,42.074224 1448.4118,21.068044 1447.5625,20.21875 1447.3485,20.004707 1447.1205,19.940463 1446.8438,20.0625 z M 1407.8125,20.21875 C 1406.5688,20.633321 1402.6971,27.27246 1395.9688,40.5 1393.7321,44.896875 1391.4943,48.911875 1390.9688,49.4375 1390.4432,49.963126 1390,51.027846 1390,51.78125 1390,52.534653 1388.65,55.101807 1387,57.5 1385.35,59.898193 1384,62.168524 1384,62.5625 1384,62.956475 1382.4754,65.599322 1380.625,68.40625 1378.7747,71.213178 1375.7372,76.257099 1373.875,79.625 1372.0129,82.992901 1368.3625,89.192142 1365.75,93.40625 1363.1375,97.620357 1361,101.72576 1361,102.53125 1361,105.29399 1362.8024,103.996 1365.5625,99.25 1367.0818,96.6375 1369.4859,92.7 1370.9062,90.5 1374.4812,84.962869 1380.6636,74.175692 1382.5625,70.125 1383.4318,68.270595 1385.1499,65.120595 1386.4062,63.125 1387.6626,61.129405 1390.8449,55.45 1393.4688,50.5 1398.4344,41.13187 1402.0195,34.63788 1406.4062,27 1409.1857,22.160701 1409.703,19.588578 1407.8125,20.21875 z M 1527.7188,20.25 C 1527.5424,20.2427 1527.3017,20.313548 1527,20.5 1524.9238,21.783161 1517.913,33.13168 1511.1875,46.09375 1507.3596,53.471251 1502.5421,62.425 1500.4688,66 1498.3954,69.575 1495.4767,74.75 1494,77.5 1492.5232,80.25 1488.7688,86.941992 1485.6562,92.375 1482.5436,97.808009 1480,102.42051 1480,102.625 1480,102.82949 1480.5969,103 1481.3438,103 1482.7111,103 1488.4289,94.495156 1491.4062,88 1492.2886,86.075 1493.8623,83.15 1494.9375,81.5 1496.0126,79.85 1497.853,76.486155 1499,74.03125 1500.1469,71.576344 1501.7013,68.879356 1502.4688,68.03125 1503.2363,67.183143 1507.5089,59.328065 1511.9688,50.59375 1516.4285,41.859434 1521.8546,32.227208 1524.0312,29.1875 1527.2041,24.75663 1528.953,20.301102 1527.7188,20.25 z M 1547.5,20.46875 C 1546.6951,20.509257 1545.0439,22.307538 1543.25,25.8125 1540.5443,31.098742 1536.1969,38.785678 1532.9688,44 1528.8167,50.70699 1509.6886,84.676965 1506.5,91 1504.9746,94.025 1502.9007,97.563327 1501.875,98.875 1500.8492,100.18667 1500,101.64917 1500,102.125 1500,103.65649 1502.4775,103.05582 1503.5938,101.25 1504.1888,100.2875 1506.1816,96.8 1508.0312,93.5 1509.881,90.2 1513.9784,83 1517.125,77.5 1520.2716,72 1525.3846,62.775 1528.5,57 1531.6154,51.225 1534.7388,45.825 1535.4375,45 1537.129,43.002844 1545.1683,29.23901 1546.75,25.625 1548.2781,22.133418 1548.3049,20.428243 1547.5,20.46875 z M 1567,20.625 C 1565.8961,19.521067 1560,25.443535 1560,27.65625 1560,29.593063 1555.4852,38.667899 1550.875,46 1548.6271,49.575 1544.1162,56.941154 1540.8438,62.375 1537.5714,67.808845 1531.1648,77.933845 1526.625,84.875 1515.7471,101.50656 1515,102.75273 1515,103.96875 1515,107.75713 1519.7591,102.23962 1525.4062,91.90625 1527.392,88.272478 1529.9072,84.488972 1531,83.5 1532.0928,82.511029 1533,81.332114 1533,80.90625 1533,80.480386 1534.8,77.437164 1537,74.125 1539.2,70.812835 1541,67.700085 1541,67.21875 1541,66.737416 1543.3952,62.795394 1546.3125,58.4375 1553.5264,47.661359 1558.6198,39.005333 1559.5312,36 1559.9482,34.625 1562.0337,30.834747 1564.1562,27.5625 1566.7057,23.631853 1567.6548,21.279768 1567,20.625 z M 1602.9375,21.21875 C 1602.2962,20.573478 1598.5822,24.940757 1594.3125,32.46875 1586.3708,46.470812 1585.8255,47.386173 1582.2188,53 1577.3963,60.506078 1574.9548,64.560102 1568.9062,75 1567.1538,78.025 1563.966,83.055178 1561.8438,86.1875 1559.7216,89.319821 1558,92.125496 1558,92.40625 1558,92.687003 1556.875,94.567574 1555.5,96.59375 1554.125,98.619926 1553,101.15941 1553,102.25 1553,105.10804 1555.036,103.19427 1559.1562,96.40625 1561.0023,93.364893 1564.021,88.837827 1565.875,86.34375 1567.7291,83.849673 1571.3647,77.689557 1573.9688,72.65625 1576.5727,67.622943 1579.9372,61.7 1581.4375,59.5 1582.9378,57.3 1585.7839,52.575 1587.75,49 1589.716,45.425 1592.0894,41.6 1593.0312,40.5 1593.9733,39.4 1595.3663,37.313591 1596.125,35.875 1596.8837,34.436409 1598.7375,30.961875 1600.25,28.15625 1602.6038,23.79002 1603.3223,21.605913 1602.9375,21.21875 z M 1584.6562,21.34375 C 1583.5456,20.233192 1580.0865,24.108275 1577.9062,28.90625 1573.1558,39.360095 1571.4157,42.700507 1568.7812,46.40625 1567.2563,48.551272 1566,50.657004 1566,51.09375 1566,51.530496 1563.5433,55.844266 1560.5312,60.6875 1557.5193,65.530733 1553.4514,72.454026 1551.5,76.0625 1549.5485,79.670974 1545.0734,86.874119 1541.5625,92.0625 1538.0515,97.250881 1535.3993,101.83436 1535.6562,102.25 1535.9131,102.66565 1536.4325,102.99421 1536.8125,102.96875 1537.8222,102.90108 1542.509,96.569575 1547.9062,88 1560.6498,67.765945 1564.1342,61.920278 1566.875,56.125 1568.5101,52.667606 1570.4895,49.074194 1571.2812,48.15625 1572.0729,47.238307 1574.1569,43.575 1575.9375,40 1577.7181,36.425 1579.7369,32.825 1580.4062,32 1582.3599,29.592367 1585.3665,22.054057 1584.6562,21.34375 z M 1599.4062,64.125 C 1598.7204,64.409848 1597.0543,66.442255 1594.4062,70.5625 1591.6027,74.924634 1588.4903,80.075 1587.5,82 1586.5097,83.925 1584.5994,86.943483 1583.25,88.71875 1578.9883,94.325244 1573.9895,103.16661 1574.5625,104.09375 1575.7105,105.95125 1577.0871,104.83419 1579.75,99.84375 1581.2623,97.009508 1583.9625,93.013669 1585.75,90.96875 1587.5375,88.923831 1589,86.885817 1589,86.4375 1589,85.989184 1591.4995,81.19093 1594.5625,75.78125 1598.9478,68.036236 1600.5493,63.650254 1599.4062,64.125 z M 1601.0938,91 C 1600.598,91 1599.2451,92.4625 1598.0938,94.25 1596.9424,96.0375 1595.136,98.824845 1594.0625,100.4375 1592.9891,102.05015 1592.3305,103.69917 1592.5938,104.125 1593.4829,105.56386 1595.4855,103.96082 1598.75,99.15625 1601.9153,94.497702 1602.9153,91 1601.0938,91 z"/>
</svg>
