<?xml version="1.0" encoding="UTF-8"?>
<svg xmlns="http://www.w3.org/2000/svg" viewBox="1163.39 15.23 35.8 86.65">
  <path d="M 1179.9178,88.161186 C 1180.9949,86.049838 1182.5776,80.312338 1183.4349,75.411186 1186.4125,58.388166 1184.9633,39.366639 1179.7832,27.479987 L 1177.5955,22.459974 1175.3296,26.93567 C 1168.7403,39.95126 1167.4367,66.359948 1172.5375,83.5 1175.4201,93.186531 1176.8828,94.110295 1179.9178,88.161186 z M 1172.9883,93.75 C 1167.7562,85.172248 1165.3935,67.616767 1167.0439,49.583617 1168.182,37.149364 1170.1186,30.441343 1174.4678,23.869366 1177.4056,19.430002 1178.303,19.166809 1180.3819,22.134872 L 1181.8772,24.269744 1185.9386,22.260332 C 1189.02,20.735784 1190,20.576396 1190,21.59978 1190,22.341653 1188.6785,23.631996 1187.0634,24.467208 1183.0268,26.554645 1182.8916,26.989478 1184.5583,32.527592 1186.326,38.40101 1187.5266,39.296188 1191.1341,37.430646 1195.5609,35.141486 1195.5374,37.635636 1191.1059,40.433132 L 1187.1381,42.937912 1187.7071,48.718956 C 1188.0201,51.89853 1188.4503,54.69881 1188.6632,54.9418 1188.8761,55.18479 1190.6476,54.80598 1192.6,54.1 1194.5524,53.39402 1196.4535,53.144317 1196.8249,53.545105 1197.1962,53.945892 1196.9591,54.467512 1196.2979,54.70426 1195.6368,54.941007 1193.6118,56.132074 1191.7979,57.351075 1188.8464,59.33464 1188.4677,60.130998 1188.1926,64.932746 1187.9042,69.964889 1188.1186,70.537181 1191.6455,74.149026 1194.4238,76.994202 1194.9576,78 1193.6894,78 1192.7453,78 1191.0902,77.448768 1190.0114,76.775041 1187.4069,75.148492 1186.3248,76.404437 1185.5055,82.005067 1184.9342,85.909701 1185.1822,86.900984 1187.3662,89.442692 1190.3513,92.916572 1189.8048,94.75737 1186.4426,92.554337 1183.1987,90.428858 1182.6941,90.554991 1180.6591,94 1178.3294,97.94387 1175.4899,97.851328 1172.9883,93.75 z"/>
</svg>
