<?xml version="1.0" encoding="UTF-8"?>
<svg xmlns="http://www.w3.org/2000/svg" viewBox="2468 19.47 30.52 81.87">
  <path d="M 2489.9062,90.75 2489.75,90.65625 2490.5938,83.5625 C 2491.6071,74.995575 2491.2906,59.298889 2489.9062,48.6875 L 2488.875,40.875 2492.5625,34.3125 C 2496.5163,27.242448 2495.2895,26.0692 2490.7812,32.59375 2486.5207,38.759853 2486.1759,40.681963 2487.7188,49.5 2489.4776,59.553071 2489.0107,83.717355 2486.9375,89.5 2485.2997,94.068225 2482.8055,95.052321 2479.8125,92.34375 2475.1727,88.14473 2473.7099,81.977479 2473.9375,67.65625 2474.0459,60.83518 2474.8665,54.897526 2476.5938,48.25 L 2479.0938,38.65625 2475.7812,33.84375 C 2472.5687,29.136079 2470,27.015116 2470,29.09375 2470,29.664891 2471.3793,32.147379 2473.0625,34.59375 L 2476.125,39.03125 2473.875,47.78125 C 2472.0727,54.775607 2471.609,59.21368 2471.625,70.09375 2471.6427,82.12483 2471.907,84.213916 2473.9062,88.34375 2475.1476,90.908231 2477.3175,93.897859 2478.7188,95 2482.0496,97.620071 2485.401,97.55021 2487.2188,94.8125 2487.9475,93.714952 2488.3493,93.173625 2489.125,93.125 L 2489.9062,90.75 z M 2476.4688,23.96875 C 2476.1749,24.070316 2476,24.347775 2476,24.78125 2476,25.205936 2477.3725,27.230936 2479.0625,29.28125 2480.7525,31.331564 2482.3291,33 2482.5625,33 2483.441,33 2491,25.720823 2491,24.875 2491,23.192177 2488.5008,24.059518 2486.1562,26.53125 2483.212,29.635317 2482.45,29.619088 2480.4062,26.5 2479.2597,24.750161 2477.3502,23.664052 2476.4688,23.96875 z"/>
</svg>
