<?xml version="1.0" encoding="UTF-8"?>
<svg xmlns="http://www.w3.org/2000/svg" viewBox="4784.83 18.51 59.2 87.7">
  <path d="M 4835.0938,50.84375 C 4831.1804,59.546171 4827.1072,61.609893 4820.0312,58 4814.637,55.248065 4814.3416,54.282966 4817.7812,50.65625 4822.6578,45.514587 4824.3496,41.227195 4824.25,34.1875 4824.158,27.681462 4821.9913,22.494363 4819.6875,23.25 4819.035,23.463997 4817.9642,25.776653 4817.3125,28.375 4815.691,34.839325 4811.3801,42 4809.0938,42 4805.7024,42 4804.5053,39.10847 4804.4062,30.59375 4804.3205,23.210156 4804.1444,22.51798 4802.4062,22.8125 4799.1322,23.367287 4794.9119,28.447914 4793.875,33.0625 4792.739,38.118755 4793.5281,44.329057 4795.8125,48.25 4797.3003,50.803566 4797.2614,51.269728 4795.3125,55.28125 4787.523,71.314328 4789.2274,91.315559 4798.9062,97.75 4805.6322,102.22141 4808.4061,99.922108 4805.5,92.3125 4804.1692,88.827775 4803.8723,86.000714 4804.2812,80.59375 4804.7979,73.7632 4807.4173,66 4809.2188,66 4809.6888,66 4811.8022,66.864031 4813.9062,67.9375 4821.1382,71.626932 4826.534,72.454514 4831.4062,70.59375 4835.1692,69.156691 4836.1396,68.110856 4838.8125,62.71875 4839.8189,60.688502 4840.4853,58.673442 4841.3438,56.5 L 4839.625,54.9375 C 4838.1683,59.582851 4835.7863,64.307412 4833.5625,66.53125 4830.149,69.94473 4825.1346,69.757912 4817.125,65.96875 4813.228,64.125182 4809.9466,63.182708 4808.75,63.5625 4807.6539,63.910382 4805.7674,66.466093 4804.4688,69.34375 4801.3378,76.281817 4800.5481,84.166682 4802.3125,90.78125 4803.0867,93.68369 4803.3774,96.247433 4802.9688,96.5 4801.5937,97.349782 4796.9663,92.85331 4794.9688,88.71875 4793.433,85.540148 4793,82.533494 4793,75.375 4793,66.532422 4793.1716,65.805849 4797.0938,58.15625 L 4801.1875,50.1875 4798.875,47.0625 C 4795.7326,42.812189 4795.6718,31.859443 4798.7812,28.75 L 4800.8125,26.75 4801.5312,33.375 C 4802.65,43.820472 4807.6497,48.054095 4812.5625,42.71875 4816.0486,38.932724 4819,33.385251 4819,30.625 4819,26.555542 4820.6582,27.517517 4821.375,32 4822.5653,39.44347 4818.1658,49.198288 4812.6562,51.3125 4811.7395,51.664312 4811,52.35066 4811,52.84375 4811,54.72408 4815.3549,59.139758 4819.0625,61.03125 4823.6369,63.364949 4826.151,63.48721 4829.8125,61.59375 4833.1121,59.887469 4834.4906,58.560735 4837.0625,52.625 L 4835.0938,50.84375 z"/>
</svg>
