<?xml version="1.0" encoding="UTF-8"?>
<svg xmlns="http://www.w3.org/2000/svg" viewBox="3388.93 20.3 45.5 85.28">
  <path d="M 3429.759,73.922881 C 3430.2042,69.759727 3428.6877,68.472514 3425.0924,69.961744 3421.2674,71.546082 3421.1466,73.473904 3424.75,75.425648 3428.242,77.317097 3429.4344,76.959381 3429.759,73.922881 z M 3391,95.290486 C 3391,94.900253 3393.025,92.72182 3395.5,90.449524 3397.975,88.177227 3400,85.634837 3400,84.799768 3400,83.9647 3398.4294,81.305633 3396.5097,78.890731 3392.3659,73.677834 3392.123,70.577276 3395.5,66 3398.5433,61.875062 3398.6046,60.221599 3395.9065,55.045053 3391.5971,46.77735 3392.4565,33.816182 3397.6591,28.613609 3401.5805,24.692202 3404.8425,24.177519 3407.2078,27.106998 3413.1921,34.518778 3415.288,45.34899 3412.5951,54.946157 3410.7017,61.694474 3411.3982,64.246864 3416.4115,68.930463 L 3419.0131,71.360925 3422.8927,69.180463 C 3427.675,66.492685 3429.6263,66.433169 3430.9648,68.934259 3432.3626,71.546126 3432.2738,76.326218 3430.8,77.8 3429.0886,79.511378 3427.0185,79.293787 3422.629,76.941132 3419.037,75.01594 3418.6683,74.990209 3416.9505,76.544824 3413.6973,79.488882 3413.4968,83.66632 3416.4069,87.865709 3421.2638,94.874122 3419.2734,96.30801 3414.25,89.419598 3410.4882,84.261141 3410.2335,81.769425 3413.0037,77.22583 3415.5859,72.990638 3415.5588,72.752779 3411.9223,67.741341 3409.296,64.122128 3408.9334,62.913272 3409.4502,59.5 3411.2996,47.284611 3411.1901,40.540086 3409.0497,34.841105 3406.3641,27.690072 3404.7868,26.240932 3401.5657,27.96486 3395.346,31.293518 3393.7477,44.400547 3398.3386,54.428417 3399.8024,57.625715 3401,60.782144 3401,61.442704 3401,62.103263 3399.6625,64.411384 3398.0278,66.571861 3396.3931,68.732337 3395.0431,71.017315 3395.0278,71.649589 3395.0125,72.281864 3396.8,75.194753 3399,78.122678 3401.2,81.050602 3403,84.103514 3403,84.906926 3403,85.710339 3400.7515,88.534949 3398.0033,91.183838 3393.3805,95.639602 3391,97.035518 3391,95.290486 z M 3411.5,98 C 3409.4237,96.35 3407.5295,95 3407.2906,95 3407.0516,95 3404.8635,96.16776 3402.4281,97.595022 3399.9926,99.022284 3398.0096,99.809784 3398.0214,99.345022 3398.0496,98.22745 3405.9421,92.666667 3407.5,92.666667 3409.3665,92.666667 3416.9545,98.337126 3416.9786,99.75 3417.012,101.7028 3415.5863,101.24741 3411.5,98 z"/>
</svg>
