<?xml version="1.0" encoding="UTF-8"?>
<svg xmlns="http://www.w3.org/2000/svg" viewBox="1275.88 21.38 39.93 79.56">
  <path d="M 1277.875,81.21875 1278.1562,84.40625 C 1278.5188,84.444093 1278.7651,84.351999 1279.1875,84.4375 1291.2291,86.874872 1293.0574,86.480926 1296.375,80.75 1299.5817,75.210904 1301.1619,69.059724 1300.375,65.125 1299.7912,62.206332 1299.493,62.012739 1296.5625,62.5625 1294.2051,63.004745 1292.761,62.604809 1290.9375,61.0625 L 1288.5,59 1290.6562,57.25 C 1291.8388,56.2875 1294.3439,54.327025 1296.2188,52.875 1300.1011,49.867958 1301.9768,44.77781 1302,37.375 1302.0284,28.335793 1305.3688,27.808924 1309,36.25 1311.2911,41.575656 1311.238,45.88198 1308.8125,51.6875 1308.1664,53.233843 1307.7595,57.868033 1307.9062,62 1308.2162,70.721197 1305.9875,80.779025 1302.5625,86.03125 1301.2341,88.068314 1298.4458,90.379907 1296.0312,91.46875 1292.3434,93.131707 1291.3529,93.231232 1287.6875,92.125 1283.3638,90.82009 1280.8767,90.416729 1278.6562,90.84375 L 1278.875,93.25 C 1281.1819,93.006161 1283.6296,93.54995 1286.5312,95.03125 1291.0296,97.327726 1294.5631,96.975437 1299.5312,93.71875 1306.0737,89.430035 1310.2687,77.548096 1310.4062,63 1310.4647,56.826737 1310.9913,52.616078 1311.9062,51 1313.6829,47.861556 1313.8084,38.659133 1312.125,33.71875 1310.7458,29.670992 1305.0699,25.003679 1301.5312,25 1299.6719,24.998067 1299.5215,25.528561 1299.8438,31.75 1300.036,35.463654 1299.6757,40.861858 1299.0312,43.75 1298.0456,48.167724 1297.0834,49.660403 1292.9375,53.15625 1290.2271,55.441704 1288,58.071339 1288,59 1288,61.303487 1290.8541,63.630205 1294.6562,64.4375 1298.6551,65.286591 1299.529,68.285506 1297.4688,74.125 1294.4658,82.636409 1290.9512,84.331961 1281.5312,81.8125 1279.7629,81.339541 1278.8039,81.191007 1277.875,81.21875 z"/>
</svg>
