<?xml version="1.0" encoding="UTF-8"?>
<svg xmlns="http://www.w3.org/2000/svg" viewBox="1168.88 20.99 43.54 78.58">
  <path d="M 1196.5714,91.25 C 1200.7936,86.559617 1202.2283,82.901551 1204.1145,72.017514 1206.419,58.719559 1206.547,42.689464 1204.4075,35.329756 1203.5316,32.316823 1202.6545,30.012204 1202.4583,30.20838 1202.2621,30.404555 1201.8447,36.400423 1201.5308,43.532531 1200.7884,60.395768 1198.4881,72.945109 1194.7085,80.75 1190.332,89.787686 1186.8473,88.933192 1183.4939,78 1182.566,74.975 1181.1388,70.712006 1180.3222,68.526679 1179.246,65.646705 1178.8869,60.968783 1179.0172,51.526679 1179.3642,26.370829 1178.8526,24.929025 1174.8654,39.826111 1172.6586,48.071431 1172.6537,48.254377 1174.2986,60.821954 1176.8583,80.378807 1178.2386,84.738151 1183.4578,89.75 1188.9047,94.980544 1192.811,95.427371 1196.5714,91.25 z M 1182.0125,92.75 C 1176.8804,87.577834 1176.2652,86.151478 1173.9253,74 1170.8949,58.262537 1170.8792,44.480381 1173.8829,36.790997 1175.1095,33.651045 1176.9147,30.091946 1177.8946,28.881888 1181.3902,24.565 1182,27.158843 1182,46.343676 1182,62.005865 1182.2813,65.369672 1184,70.259676 1185.1,73.389374 1186,76.615103 1186,77.427964 1186,79.936944 1188.2505,84 1189.6402,84 1191.5795,84 1194.7302,77.176665 1197.1347,67.769143 1198.6695,61.764165 1199.4196,54.845248 1199.8741,42.5 1200.3953,28.343892 1200.7506,25.5 1201.9981,25.5 1203.5514,25.5 1206.0042,29.891086 1207.9029,36.070998 1210.4184,44.258742 1208.3661,71.850729 1204.3751,83.5 1203.433,86.25 1201.3129,90.1875 1199.6637,92.25 1196.8284,95.795972 1196.3544,96 1190.9513,96 1185.8329,96 1184.9012,95.661231 1182.0125,92.75 z"/>
</svg>
