<?xml version="1.0" encoding="UTF-8"?>
<svg xmlns="http://www.w3.org/2000/svg" viewBox="4587.4 20.92 48.79 85.97">
  <path d="M 4630.7431,37.413035 C 4630.0311,31.096252 4628.9194,30.268632 4624.6724,32.893436 4618.9094,36.455176 4618.7769,39.296932 4624.2992,40.893977 4630.8021,42.774584 4631.3161,42.496933 4630.7431,37.413035 z M 4591.3455,93.717554 C 4593.4725,75.620104 4592.9447,57.326594 4589.7659,38.96435 4589.616,38.098598 4592.6816,34.681122 4596.7933,31.130256 L 4604.0866,24.831813 4610.543,30.500188 4616.9994,36.168564 4621.2497,32.848664 C 4623.5874,31.02272 4626.0946,28.959793 4626.8214,28.264382 4630.1511,25.078442 4632.4985,27.642059 4633.5173,35.577027 4633.9706,39.107582 4633.744,41.042115 4632.7162,42.41668 4631.378,44.206418 4630.8747,44.246692 4625.1168,43.02478 4621.7253,42.305062 4618.7519,41.914744 4618.5093,42.157407 4616.6994,43.967269 4614.3549,70.903097 4614.0622,93.25 4614.0271,95.931654 4613.532,98 4612.9252,98 4611.4374,98 4612.5748,67.049747 4614.6394,51.354488 L 4616.2371,39.208975 4612.2065,35.567632 C 4609.9897,33.564894 4607.0455,31.037042 4605.6638,29.950184 L 4603.1516,27.974079 4598.3258,32.123487 C 4595.6716,34.405661 4593.1574,36.855619 4592.7387,37.567837 4592.32,38.280055 4592.6731,43.494742 4593.5234,49.15603 4595.4805,62.185962 4595.642,77.870345 4593.9416,89.75 4592.5488,99.479744 4590.2565,102.98304 4591.3455,93.717554 z M 4601.6854,80.5 C 4601.9918,68.95 4602.6028,54.775 4603.0431,49 4603.5783,41.981596 4603.6876,47.121095 4603.3728,64.5 4603.1138,78.8 4602.5028,92.975 4602.0151,96 4601.4341,99.602955 4601.3204,94.256736 4601.6854,80.5 z"/>
</svg>
