<?xml version="1.0" encoding="UTF-8"?>
<svg xmlns="http://www.w3.org/2000/svg" viewBox="78.71 21.48 42.26 84.64">
  <path d="M 104.66369,94.75 C 110.95711,90.442648 114.29129,81.301898 116.00301,63.662951 117.36298,49.648676 114.31479,29 110.886,29 110.39181,29 110.0097,36.295502 110.0349,45.25 110.09612,67.001171 107.66691,78.933548 101.92654,85.078636 99.196804,88.000831 99.000995,88.051875 96.158854,86.582147 90.321311,83.563436 88.670588,70.827169 91.806338,53 94.752531,36.250485 95.296212,29 93.605988,29 92.185337,29 91.595569,30.24348 87.91988,40.988722 84.621103,50.632127 84.575429,70.319909 87.825897,81.5 90.339602,90.14597 92.283448,93.223691 96.678114,95.515847 100.37002,97.441459 100.79009,97.401173 104.66369,94.75 z M 95.5,97.835745 C 90.347975,94.993275 87.885167,91.413575 85.313185,83.029174 80.713686,68.035274 81.811641,48.606867 88.082242,34.030461 90.515728,28.37367 93.270402,25.506049 95.462755,26.347334 97.713276,27.21094 97.462946,37.881503 94.888411,50.829309 88.999909,80.443662 98.867489,98.384432 106.15273,71.309571 107.94526,64.64785 108.24292,60.810133 108.17797,45.199079 108.11169,29.268937 108.30996,26.818289 109.70849,26.28162 112.20338,25.324241 115.67649,30.191494 117.1533,36.714859 118.97469,44.760348 118.69024,68.534416 116.66092,77.866454 113.37438,92.979979 103.53264,102.2675 95.5,97.835745 z"/>
</svg>
