<?xml version="1.0" encoding="UTF-8"?>
<svg xmlns="http://www.w3.org/2000/svg" viewBox="331.44 20.15 50.88 80.51">
  <path d="M 334.4375,69.40625 C 334.87162,69.029305 335.73522,69.114225 337.625,69.46875 340.62862,70.032233 341.69818,69.726221 343.875,67.71875 347.3721,64.493709 349.59419,63.799698 351.03125,65.53125 352.7407,67.591012 351.5193,71.176903 347.4375,76.0625 341.84286,82.758854 340.65418,85.599906 341.9375,89.28125 343.35807,93.356298 346.84401,97 349.3125,97 351.06081,97 351.00382,96.766187 348.71875,94.96875 345.73769,92.623848 343.57964,86.935764 344.53125,83.9375 344.89466,82.792495 347.12221,79.677261 349.5,77 354.56443,71.29772 355.40907,69.198 354.0625,65.65625 352.55113,61.681067 348.76245,61.223823 343.90625,64.4375 339.19035,67.558332 336.46395,67.426345 333.875,64 L 334.4375,69.40625 z M 360.21875,75 C 356.02172,75 349.99088,86.655459 352.75,89.4375 353.1625,89.853427 353.75129,88.337243 354.0625,86.09375 354.57842,82.374491 358.15856,77 360.125,77 360.55999,77 362.4645,78.35 364.34375,80 367.71555,82.960482 371,83.94683 371,82 371,81.45 370.56211,81 370.03125,81 369.50038,81 367.5355,79.65 365.65625,78 363.77701,76.35 361.33606,75 360.21875,75 z M 333.75,59.125 C 334.69132,58.685968 335.98111,58.375 338.03125,58.375 342.05535,58.375 343.53321,57.8712 345.8125,55.6875 349.19201,52.449724 350.91067,52.332058 353.875,55.09375 357.10199,58.100148 358.98759,56.896184 359.09375,51.78125 359.28241,42.691503 358.77265,37.395254 357.40625,34.125 356.34113,31.575818 356.27789,30.39571 357.125,29.375 358.90155,27.234389 361.19779,27.806296 365.34375,31.46875 L 369.1875,34.875 367.15625,42.90625 C 365.04482,51.255823 365.19709,57.748559 367.5625,58.65625 368.271,58.928127 370.92573,57.971996 373.4375,56.5 377.27391,54.251718 378,54.079269 378,55.46875 378,56.378472 378.45,56.839919 379,56.5 379.55,56.160081 380,55.230041 380,54.4375 380,52.597022 376.17289,52.555332 374.09375,54.375 373.22544,55.134946 371.4875,56.060383 370.25,56.4375 368.10412,57.091438 368,56.868453 368,51.5625 368,48.502627 368.92078,43.299101 370.0625,40 L 372.15625,34 366.8125,29.09375 361.5,24.1875 358.3125,26.59375 C 354.34943,29.595575 354.21017,29.598928 350.8125,26.34375 348.3983,24.030801 347.69848,23.808029 345.5625,24.78125 342.0576,26.378186 340.06381,33.236783 342.0625,36.78125 344.12918,40.446297 345.36126,40.504301 349.28125,37.0625 353.20069,33.621186 354.52897,33.307583 355.40625,35.59375 356.28038,37.871702 356.14256,53.006598 355.25,52.96875 354.8375,52.951258 353.63012,52.276258 352.5625,51.46875 349.67883,49.28765 347.69694,49.663118 344.5,53 342.51934,55.06736 340.67321,56.010553 338.5625,56 336.49315,55.989655 335.2611,55.694563 334.4375,55.15625 L 333.75,59.125 z M 347.53125,26.125 C 348.46637,26.254069 349.49152,27.10067 350.53125,28.6875 352.28815,31.368863 352.28452,31.393283 348.9375,34.1875 347.08843,35.731173 345.21453,37 344.78125,37 343.63182,37 343.82005,30.200646 345.03125,27.9375 345.75056,26.593458 346.59613,25.995931 347.53125,26.125 z M 377.84375,58.53125 C 377.55682,58.525519 376.8983,59.2625 376.125,60.5 375.09393,62.15 372.84189,65.050941 371.125,66.9375 367.18886,71.262649 367.18284,73.339092 371.15625,77.3125 375.20785,81.364101 376.13413,79.346528 372.4375,74.5 369.74413,70.9688 369.73008,70.916728 371.625,68.71875 374.98378,64.822789 378.00386,60.111954 378,58.78125 377.99949,58.603807 377.93939,58.53316 377.84375,58.53125 z"/>
</svg>
