<?xml version="1.0" encoding="UTF-8"?>
<svg xmlns="http://www.w3.org/2000/svg" viewBox="2563.79 19.23 45.24 83.51">
  <path d="M 2567.6108,94.428022 C 2567.2814,93.569753 2567.0231,81.506557 2567.0367,67.620921 2567.0503,53.735286 2566.7607,39.815091 2566.3931,36.687156 2565.8429,32.006132 2565.9895,31 2567.2215,31 2568.0448,31 2570.7633,29.2 2573.2627,27 2575.762,24.8 2578.4128,23.027348 2579.1534,23.060772 2579.8941,23.094197 2582.075,25.09185 2584,27.5 2585.925,29.90815 2588.175,31.901435 2589,31.929521 2589.825,31.957608 2592.4758,30.409956 2594.8907,28.490294 2597.3056,26.570632 2599.6896,25 2600.1885,25 2602.03,25 2605.9749,30.349281 2606.6032,33.698307 2606.966,35.632407 2606.7499,38.253447 2606.1122,39.653034 2605.1198,41.831203 2604.557,42.061621 2601.7406,41.443023 2599.9627,41.052528 2597.0392,40.032605 2595.244,39.176529 2592.8203,38.020772 2591.6894,37.910554 2590.8516,38.748441 2589.5315,40.068528 2588.1325,60.350313 2587.9548,80.743297 2587.8382,94.125949 2586.9915,98.87164 2585.6363,93.738753 2584.8513,90.765784 2585.7215,62.514702 2587.0551,47.674873 L 2588.1178,35.849745 2584.4237,31.341618 C 2582.392,28.862148 2580.1504,26.611193 2579.4423,26.339496 2578.7343,26.067798 2575.8575,27.560719 2573.0495,29.657097 2568.7298,32.882076 2568.0272,33.855862 2568.4845,35.984347 2568.7817,37.367956 2569.2024,51.211838 2569.4193,66.748529 2569.7768,92.347914 2569.3455,98.948677 2567.6108,94.428022 z M 2576.4072,85.75 C 2576.6147,80.1125 2576.8329,67.2125 2576.8922,57.083333 2576.9515,46.954167 2577.2464,38.913069 2577.5476,39.214228 2577.8487,39.515386 2578.1139,51.402886 2578.1368,65.630894 2578.1874,97.058564 2578.2265,96 2577.015,96 2576.4079,96 2576.1748,92.067633 2576.4072,85.75 z M 2603.8227,35.685365 C 2604.1739,32.621682 2601.6935,27.983783 2599.7269,28.026901 2599.0521,28.041696 2596.9689,29.323619 2595.0975,30.875617 2591.271,34.04903 2591.5361,35.445402 2596.37,37.578981 2601.0298,39.635661 2603.44,39.023246 2603.8227,35.685365 z"/>
</svg>
