<?xml version="1.0" encoding="UTF-8"?>
<svg xmlns="http://www.w3.org/2000/svg" viewBox="1492.58 18.64 75.27 89.81">
  <path d="M 1506,99.055764 C 1506,97.020549 1510.9134,90.663855 1510.9684,92.627876 1511.0248,94.642189 1508.001,101 1506.9866,101 1506.444,101 1506,100.12509 1506,99.055764 z M 1532.6408,99.43884 C 1527.2759,95.642121 1521.2436,94.796644 1518.9799,97.524166 1518.2842,98.362457 1517.4819,98.815216 1517.197,98.530297 1516.912,98.245377 1517.4959,97.109503 1518.4945,96.006131 1521.2885,92.918731 1527.8523,93.314119 1533.735,96.924187 1541.9373,101.95776 1543.4877,101.93856 1548.3142,96.743605 1555.8954,88.583595 1563.7928,69.281115 1561.1954,65.260111 1560.6598,64.43104 1559.9532,65.259374 1559.0627,67.760111 1553.0844,84.54784 1546.8287,94 1541.6964,94 1539.5658,94 1531.1763,88.901855 1530.5284,87.213404 1530.2492,86.485788 1531.129,83.257354 1532.4835,80.039107 1536.2017,71.2051 1536.5139,67.412312 1534.0906,60.517417 1531.4527,53.01209 1531.3461,51.212248 1533.6531,53.127555 1535.3592,54.544041 1543,55.181451 1543,53.907295 1543,52.410736 1534.1241,48.015154 1532.4214,48.66852 1530.8846,49.258265 1530.7693,48.844456 1531.3895,44.965848 1532.2534,39.563152 1532.9005,38.775857 1539.6522,34.912942 1546.0088,31.27604 1546.7247,31.568188 1550.7384,39.437186 L 1553.3207,44.5 1554.5747,41.5 C 1556.8094,36.153431 1553.8819,28.022158 1548.9933,25.997226 1545.8383,24.690383 1543.8607,25.3442 1533.9059,30.985202 1526.5333,35.162981 1523.5973,35.457434 1522.5397,32.125133 1521.4896,28.816438 1517.998,26 1514.9463,26 1512.6622,26 1511.51,26.75538 1509.989,29.25 1507.5122,33.312393 1507.4936,35.153084 1509.8997,38.124484 1511.4608,40.052334 1512.7532,40.473162 1517.1497,40.485268 L 1522.5,40.5 1522.7964,45.581879 C 1523.1688,51.966172 1521.038,55.009626 1515.8588,55.490984 1508.5826,56.167237 1499,63.321007 1499,68.076725 1499,69.134526 1499.2596,70 1499.5769,70 1499.8941,70 1502.6674,68.2 1505.7396,66 1512.4641,61.184718 1515.9497,60.856949 1519.0325,64.75 1522.8828,69.612312 1520.6597,80.06761 1514.4565,86.270785 1512.9554,87.771853 1510.8436,89 1509.7636,89 1506.9458,89 1500.7111,95.505784 1501.4019,97.725245 1502.0965,99.956553 1500.591,102.48331 1499.1118,101.5691 1497.3098,100.45542 1497.8332,96.536664 1500.25,93.046585 1502.3638,89.99415 1503.8777,88.911943 1510,86.077008 1513.5944,84.41261 1517.0216,78.613573 1517.6759,73.088671 1518.3611,67.303558 1516.8648,64 1513.5594,64 1511.1254,64 1504.12,69.200965 1500.4155,73.758245 1497.7496,77.037886 1496,75.976866 1496,71.08053 1496,63.132411 1506.5567,53 1514.8377,53 1518.2051,53 1519.7197,51.536886 1520.0136,48 1520.5064,42.071004 1520.2945,41.774454 1516.0749,42.487352 1511.0846,43.330452 1508.2469,41.835134 1506.3862,37.381971 1505.1006,34.305042 1505.1239,33.54122 1506.5977,30.435264 1508.9011,25.58129 1512.7598,22.726513 1515.9567,23.511198 1520.0524,24.516475 1523.0815,26.935204 1524.1757,30.074052 1524.7367,31.683323 1525.3119,33 1525.454,33 1525.5962,33 1530.0063,30.739479 1535.2545,27.976621 1544.7736,22.965278 1544.8078,22.956269 1549.5218,24.217067 1553.8395,25.371885 1554.4521,25.929014 1556.6235,30.676369 1559.4588,36.874973 1559.5147,38.271911 1557.1365,43.5 1553.552,51.379949 1550.8577,51.332069 1549.5446,43.365084 1548.9095,39.511733 1545.9755,35 1544.1048,35 1542.3633,35 1534.2336,41.998571 1533.7277,43.933377 1533.2821,45.637153 1534.1615,46.4091 1539.044,48.600251 1549.3566,53.228248 1550.6371,57 1541.8957,57 L 1536.9094,57 1537.7047,60.75 C 1539.1028,67.342498 1538.3816,74.201481 1535.6599,80.195165 L 1533.0737,85.89033 1536.7869,88.799878 C 1539.8666,91.213093 1540.9521,91.555079 1543.1503,90.804627 1547.0857,89.461069 1552.8074,80.188401 1556.9184,68.491719 1559.4173,61.381978 1560.3835,60.243481 1562.4576,61.964826 1564.4221,63.59524 1564.4291,71.065231 1562.4712,76.5 1561.6786,78.7 1561.0233,81.143627 1561.0151,81.930282 1560.9952,83.818692 1553.4425,95.632472 1549.6227,99.75 1545.3374,104.36923 1539.4553,104.26145 1532.6408,99.43884 z"/>
</svg>
