<?xml version="1.0" encoding="UTF-8"?>
<svg xmlns="http://www.w3.org/2000/svg" viewBox="2086.73 19.12 78.47 85.36">
  <path d="M 2156.3438,54.15625 C 2150.9617,60.733087 2148.2741,61.363558 2141.9688,57.75 L 2138.0312,55.5 2133.5938,57.84375 C 2131.1448,59.137369 2128.6516,59.89531 2128.0625,59.53125 2126.817,58.761502 2127.7228,45.564742 2129.2188,42.65625 2130.1306,40.883447 2137.2516,37.07611 2139.7188,37.03125 2140.3831,37.019171 2142.0789,38.981293 2143.5,41.40625 2146.6481,46.77807 2148.5053,47.67117 2150.4375,44.71875 2154.8666,37.950948 2152.7748,29.496813 2145.7812,25.90625 2140.4672,23.177978 2138.503,23.477583 2129.0312,28.5625 2119.394,33.73625 2118.4323,33.651997 2113.75,26.9375 2112.2427,24.776053 2110.1898,23 2109.1875,23 2105.4808,23 2099.9008,31.064611 2098.5938,38.28125 2097.9927,41.600763 2098.2615,42.417751 2100.875,45.03125 2104.0744,48.230722 2107.2523,48.762105 2111.5312,46.8125 2113.6666,45.839507 2114.3179,45.885635 2115.0625,47.0625 2116.2439,48.929688 2116.2649,57.713701 2115.0938,58.4375 2114.5994,58.743001 2112.2369,58.117213 2109.8438,57.03125 2104.165,54.454375 2100.3727,54.435083 2099,57 2098.2743,58.355992 2098.2669,59 2098.9688,59 2099.5382,59 2100,58.497418 2100,57.875 2100,55.96183 2107.3213,57.55464 2111.9375,60.46875 2114.2809,61.948048 2116.3209,62.989703 2116.4688,62.8125 2118.7297,60.100513 2118.4477,46.072751 2116.0938,43.71875 2115.3112,42.936307 2114.0075,43.103289 2111.4062,44.34375 2107.9742,45.9804 2107.6202,45.974905 2104.1562,44.28125 2099.4672,41.988566 2099.0969,39.361778 2102.5,32.40625 2106.4191,24.395929 2109.9239,23.217846 2113.2188,28.78125 2114.1042,30.276502 2115.9797,32.600745 2117.4062,33.9375 L 2120,36.375 2124.25,34 C 2126.5839,32.700814 2129.7852,30.700069 2131.3438,29.5625 2133.3951,28.065314 2135.6728,27.5 2139.6562,27.5 2144.4457,27.5 2145.4931,27.870454 2147.5938,30.3125 2149.9274,33.02547 2150.668,37.118432 2149.4062,40.40625 2148.4086,43.006204 2146.4779,42.22336 2144.6875,38.46875 2142.5132,33.909168 2141.1288,33.464122 2135.1875,35.4375 2127.1393,38.110701 2125.6628,40.445485 2125.1875,51.3125 2124.8445,59.156866 2125.0448,60.792341 2126.5,62 2128.0053,63.249294 2128.6937,63.157608 2132.0625,61.21875 2136.4564,58.689968 2140.2247,58.380041 2141.9062,60.40625 2143.8475,62.745374 2149.6166,63.306218 2152.4688,61.4375 2153.3195,60.880054 2155.2861,58.711562 2157.4688,56.125 L 2156.3438,54.15625 z M 2160.5625,61.625 C 2155.7545,70.258567 2154.7317,70.680895 2147.7188,68.0625 2137.547,64.264722 2136.732,64.287007 2133.1562,68.625 2131.4296,70.71972 2128.7913,74.803527 2127.2812,77.6875 L 2124.5312,82.90625 2127.5,88.40625 C 2129.13,91.419601 2130.1401,94.203645 2129.75,94.59375 2129.3599,94.983856 2127.2664,94.068121 2125.0938,92.5625 2120.651,89.483716 2118.7396,89.668147 2114,93.65625 2109.9959,97.025461 2109.9398,94.361274 2113.9375,90.53125 2118.2908,86.360532 2118.6334,83.153554 2115.3438,77.0625 2112.2424,71.320163 2107.2369,65.754327 2105.6562,66.28125 2103.2862,67.071228 2098.7835,74.112416 2096.5625,80.46875 L 2094.1875,87.25 2093.5312,81.875 C 2093.0347,77.786051 2093.3763,74.862961 2095,69.65625 2096.1743,65.890599 2096.9574,62.613586 2096.7188,62.375 2096.4802,62.136413 2095.2392,64.314512 2093.9688,67.21875 2090.2927,75.622317 2090.8749,91 2094.875,91 2096.3407,91 2096.8387,89.96961 2097.3125,85.96875 2097.64,83.20383 2099.1045,78.280063 2100.5625,75.03125 2103.0999,69.377129 2105.1264,67.36594 2107.0625,68.5625 2109.0929,69.817377 2113.8958,77.890666 2114.9688,81.875 2116.0921,86.046957 2116.0305,86.217096 2112.5,90.125 2109.9211,92.97949 2108.9666,94.893073 2109.1875,96.75 2109.6454,100.59866 2111.3866,100.51568 2114.0938,96.53125 2117.5546,91.437675 2119.249,91.286633 2125.0312,95.53125 2127.8392,97.592477 2130.7003,98.943881 2131.5312,98.625 2133.8011,97.754017 2133.2842,92.878589 2130.5,88.78125 2129.125,86.757756 2128,84.03766 2128,82.71875 2128,79.889139 2135.2712,68.203737 2137.5938,67.3125 2138.4783,66.973093 2141.2064,67.668691 2143.625,68.84375 2146.0437,70.018809 2149.6836,71.263322 2151.75,71.59375 2155.2198,72.148598 2155.7686,71.882229 2158.6875,68.25 2159.6423,67.061889 2160.5768,65.248257 2161.625,63.53125 L 2160.5625,61.625 z"/>
</svg>
