<?xml version="1.0" encoding="UTF-8"?>
<svg xmlns="http://www.w3.org/2000/svg" viewBox="371.91 20.17 33.6 83.32">
  <path d="M 373.90625,82.375 374,83.34375 374.6875,86.21875 C 374.7056,86.223569 374.73204,86.245392 374.75,86.25 380.50705,87.727204 383.28727,79.981738 385.03125,57.59375 386.2959,41.35896 385.89666,39.51624 379.71875,32.5 374.59376,26.679568 374.09881,28.892024 379,35.6875 L 383.1875,41.5 382.53125,54.28125 C 381.93951,65.9289 380.32388,76.761474 378.5,81.25 377.78976,82.997883 375.90052,83.221468 373.90625,82.375 z M 376.4375,93.6875 377.09375,96.34375 C 378.80296,96.339719 380,95.836606 380,94.875 380,93.377447 382.75512,93.915885 383.375,95.53125 383.69665,96.369463 384.96906,97.466826 386.21875,97.96875 390.52757,99.699338 392.86535,99.163142 394.46875,96.0625 396.66774,91.810124 396.35779,88.989731 393.34375,85.84375 L 390.6875,83.0625 392.375,74.78125 C 393.29258,70.222499 394.52812,60.875 395.125,54 396.08384,42.955806 396.53458,40.959511 399.09375,36.90625 403.50196,29.924442 402.55992,28.917064 397.59375,35.3125 393.26222,40.890664 393.17868,41.16642 392.5,50.75 392.12025,56.112417 390.95116,65 389.90625,70.5 387.50202,83.155 387.50542,83.253649 390.5,86.8125 393.21748,90.042038 393.6971,92.927905 391.8125,94.8125 389.90725,96.717747 387.43781,96.205251 385.40625,93.5 383.22183,90.591189 381.37474,90.334494 378.84375,92.625 377.98437,93.402732 377.40381,93.773753 376.4375,93.6875 z M 381.96875,24.3125 C 381.56087,24.671487 382.10751,26.255023 383.9375,28.78125 385.62303,31.108056 387.6884,33 388.53125,33 390.47722,33 398.71584,25.403344 397.78125,24.46875 397.3974,24.084906 395.20579,25.241227 392.90625,27.0625 L 388.71875,30.375 385.8125,27.125 C 383.74338,24.809244 382.37663,23.953513 381.96875,24.3125 z"/>
</svg>
