<?xml version="1.0" encoding="UTF-8"?>
<svg xmlns="http://www.w3.org/2000/svg" viewBox="3858 16.54 25.81 88.83">
  <path d="M 3881.8125,70.75 3881.3438,68.65625 3881.2188,65.78125 C 3880.4313,64.72949 3880.045,63.689997 3880.0312,62.25 3880.0142,60.4625 3880.3375,58.993375 3880.75,59 3880.7622,59.000196 3880.8908,59.06037 3880.9062,59.0625 L 3880.6562,54 3880.6875,53.71875 C 3880.1581,51.874879 3879.574,49.253204 3879.0938,46 3877.4,34.526478 3876.2604,31.120169 3872.7188,27 3868.331,21.895223 3865.548,20.577063 3863.5,22.625 3862.5529,23.572085 3862.1702,24.930407 3862.5625,25.875 3864.6993,31.020753 3865.3685,37.377221 3865.4375,53.5 3865.5131,71.152856 3864.6476,79.023753 3861.4062,90.4375 3860.6359,93.149826 3860,96.412326 3860,97.6875 3860,101.33062 3863.1273,100.47076 3866.3125,95.96875 3867.8606,93.780493 3869.5203,92 3870,92 3870.4797,92 3872.4907,93.6875 3874.4688,95.75 3877.9919,99.423884 3878.1086,99.459405 3879.625,97.5 3880.9195,95.827306 3881.0645,93.522336 3880.5,83.375 3880.0788,75.803803 3880.1719,71.001565 3880.7812,70.625 3880.9741,70.50579 3881.4084,70.645435 3881.8125,70.75 z M 3866.5312,25.125 C 3867.1017,24.554466 3869.3077,26.930659 3872.6875,31.78125 3875.8456,36.313796 3877.096,46.094017 3877.6875,70.46875 L 3878.2812,94.40625 3875.0625,91.71875 C 3873.295,90.231542 3871.4656,89 3871,89 3870.5344,89 3868.7547,90.169858 3867.0625,91.59375 L 3864,94.1875 3864,91.8125 C 3864,90.504163 3864.6391,86.90912 3865.4375,83.84375 3869.1321,69.659042 3869.9444,50.389694 3867.4688,35.125 3866.6313,29.960595 3866.2038,25.452378 3866.5312,25.125 z"/>
</svg>
