<?xml version="1.0" encoding="UTF-8"?>
<svg xmlns="http://www.w3.org/2000/svg" viewBox="1179.08 21.19 31.74 83.83">
  <path d="M 1190.1755,99.711461 C 1189.5873,99.002765 1187.7985,95.508565 1186.2004,91.946573 1183.8595,86.729327 1183.0482,82.906243 1182.0271,72.282092 1181.33,65.028619 1181.0823,57.835319 1181.4766,56.29698 1181.871,54.758641 1182.5568,51.025 1183.0006,48 1184.5527,37.419659 1190.7517,25 1194.4805,25 1195.197,25 1196.0655,26.125 1196.4106,27.5 1197.0417,30.014245 1199.3499,30.860912 1200.5,29 1200.8399,28.45 1201.8507,28 1202.7461,28 1203.9985,28 1203.7541,28.647223 1201.6871,30.804719 1198.693,33.929841 1197.8704,40 1200.441,40 1201.2335,40 1202.1601,39.55 1202.5,39 1202.8399,38.45 1203.879,38.016896 1204.809,38.037547 1205.9936,38.063848 1205.3827,39.037221 1202.7695,41.287547 1199.7739,43.867229 1199.1512,44.992436 1199.6085,47 1200.7969,52.218349 1200.749,52.181179 1204.075,50.461234 1205.786,49.576445 1207.3986,49.065264 1207.6586,49.325276 1208.0215,49.688151 1203.7852,53.25428 1200.1299,55.66298 1199.9264,55.797114 1200.0555,57.084918 1200.4169,58.524768 1200.9939,60.823901 1201.4347,61.063431 1204.037,60.491883 1207.9367,59.635362 1207.9141,61.475961 1204,63.5 1199.9663,65.58593 1200.1488,68.461089 1204.5804,72.640628 1208.7457,76.568992 1208.82,79.219461 1204.6734,75.957751 1201.4863,73.45077 1201.4555,73.46285 1200.5785,77.562645 1200.0558,80.006333 1200.4364,81.178815 1202.4617,83.364167 1205.6556,86.810469 1205.6351,87.142177 1202.25,86.787849 1199.807,86.532133 1199.465,86.862801 1199.1866,89.75 1199.0106,91.575556 1199.3393,93 1199.9366,93 1200.5215,93 1201,93.45 1201,94 1201,94.55 1200.0889,95 1198.9752,95 1197.7668,95 1196.5882,95.952922 1196.0519,97.363615 1195.5576,98.663604 1194.4069,100.0136 1193.4948,100.36362 1191.3363,101.1919 1191.4174,101.20782 1190.1755,99.711461 z M 1195.4746,92.25 C 1196.389,89.6375 1197.3918,83.200546 1197.7032,77.945657 1198.5013,64.475525 1195.7092,31.375865 1193.5967,29.263333 1191.1405,26.807147 1185.5043,42.777398 1184.5137,55 1183.5079,67.409768 1185.4502,82.831319 1189.0067,90.675148 1190.584,94.153817 1192.3105,97 1192.8433,97 1193.3761,97 1194.5601,94.8625 1195.4746,92.25 z"/>
</svg>
