<?xml version="1.0" encoding="UTF-8"?>
<svg xmlns="http://www.w3.org/2000/svg" viewBox="4903.72 18.32 27.61 82.43">
  <path d="M 4912.8664,93.23982 C 4911.0149,91.171721 4908.6501,87.870849 4907.6113,85.904549 L 4905.7226,82.329458 4908.4042,77.914729 C 4909.879,75.486628 4911.6042,72.747964 4912.238,71.828809 4913.1834,70.45782 4912.7266,69.305628 4909.6952,65.414699 4907.6628,62.806094 4906,60.004797 4906,59.189595 4906,58.374393 4908.025,55.542521 4910.5,52.896546 4912.975,50.250571 4915,47.632062 4915,47.077637 4915,46.523213 4913.716,44.591434 4912.1467,42.784796 4906.5509,36.342962 4906.5205,35.828885 4911.3205,28.814864 4913.6972,25.341726 4916.3017,22.372987 4917.1083,22.217668 4917.9148,22.062348 4920.6953,23.967262 4923.2873,26.450809 4928.9243,31.851973 4929.3284,34.855674 4925.1909,40.599962 4920.7713,46.73577 4920.7291,47.486515 4924.5464,52.055521 4926.4459,54.329059 4928,57.001466 4928,57.994203 4928,58.98694 4926.2,62.194753 4924,65.122678 4921.8,68.050602 4920.0044,70.683287 4920.0097,70.973088 4920.015,71.26289 4921.59,73.475829 4923.5097,75.890731 4925.4294,78.305633 4926.9957,81.230633 4926.9905,82.390731 4926.9778,85.203324 4919.4289,97 4917.6418,97 4916.8668,97 4914.7179,95.307919 4912.8664,93.23982 z M 4921.9753,88.03843 C 4923.9541,84.954724 4924.9367,82.375921 4924.5714,81.224885 4923.6403,78.291242 4917.1936,71.762307 4915.9729,72.51672 4914.2923,73.555431 4909,81.137203 4909,82.506236 4909,84.384706 4915.9305,93 4917.4416,93 4918.184,93 4920.2242,90.767294 4921.9753,88.03843 z M 4921.75,64.840248 C 4925.5881,60.049705 4925.7857,57.774773 4922.75,53.327539 4919.633,48.761211 4918.519,48.605407 4914.4611,52.168276 4908.553,57.355697 4908.3841,58.393064 4912.5289,64.039381 4914.5317,66.767722 4916.6945,68.976774 4917.3352,68.948386 4917.9758,68.919998 4919.9625,67.071336 4921.75,64.840248 z M 4922.1859,41.158001 C 4926.4989,35.057253 4926.6505,32.804375 4922.9943,29.148148 4918.6833,24.837183 4915.9249,25.057797 4912.5092,29.986741 4909.9943,33.615704 4909.8596,34.246881 4911.0083,37.019988 4912.0908,39.633466 4917.4858,44.998637 4919,44.967559 4919.275,44.961915 4920.7087,43.247614 4922.1859,41.158001 z"/>
</svg>
