<?xml version="1.0" encoding="UTF-8"?>
<svg xmlns="http://www.w3.org/2000/svg" viewBox="1784.83 15.46 69.68 79.28">
  <path d="M 1844.6875,40.875 C 1843.4252,39.559763 1842.134,37.915514 1840.4062,35.3125 1834.1097,25.826176 1822.7504,19.059754 1815.4062,20.4375 1808.8772,21.662363 1801,31.546199 1801,38.5 1801,40.40351 1800.1364,41.430307 1797.5,42.6875 1794.1539,44.283154 1792.3844,46.854508 1795.5,45.59375 L 1798.5,44.40625 C 1802.864,42.640318 1796.016,57.081367 1791.0625,60.09375 1789.3739,61.120671 1788,62.519415 1788,63.1875 1788,64.132265 1788.2542,64.120833 1789.1875,63.1875 1791.4869,60.888112 1792.7285,62.005877 1793.3125,66.9375 1793.635,69.659865 1795.0981,74.435814 1796.5625,77.53125 1798.4399,81.499745 1799.0471,84.045503 1798.625,86.15625 1798.1299,88.631763 1798.3117,89.084943 1799.75,88.8125 1802.367,88.316802 1802.4806,82.839617 1799.9688,77.28125 1798.7802,74.651126 1797.4596,71.351665 1797.0312,69.9375 1795.8262,65.959251 1797.6416,57.148661 1800.5938,52.6875 1802.5681,49.703969 1803.3747,46.931861 1803.75,42.0625 1804.2466,35.620213 1807.346,27.610731 1810.1875,25.3125 1813.035,23.009412 1819.6801,22.770592 1824.1875,24.8125 1832.9986,28.804098 1841.8077,39.857378 1843.1875,48.65625 1843.4793,50.516729 1843.9719,52.32932 1844.5,53.875 L 1851.3438,55.34375 1848.2812,51.6875 C 1846.701,50.733207 1846.0157,49.537081 1846,47.625 1845.9945,46.951069 1846.167,46.607269 1846.4375,46.40625 L 1844.6875,40.875 z M 1839.3438,52.75 C 1839.3781,52.360657 1839.5431,51.964138 1839.4375,51.59375 1839.1103,50.445864 1838.5822,48.6 1838.2812,47.5 1837.3314,44.028241 1831.2124,36.428782 1827.0312,33.53125 1823.7691,31.270595 1822.3127,30.861963 1819.3438,31.34375 1814.9099,32.063277 1810.46,36.104661 1808.9062,40.8125 1807.4103,45.345083 1808.3954,53.273782 1810.9688,57.4375 1814.0999,62.503854 1813.642,68.001861 1809.4062,76.0625 1806.2473,82.074091 1805.8888,83.411114 1806.6562,86.65625 1807.1381,88.694166 1808.1374,90.535395 1808.875,90.78125 1809.9384,91.135728 1810.0897,90.185255 1809.5312,86.125 1808.8894,81.458174 1808.9845,81 1810.7812,81 1811.8656,81 1813.3272,81.68294 1814.0312,82.53125 1814.9715,83.664128 1815.6039,83.789201 1816.4062,82.96875 1817.2012,82.155897 1816.7333,81.233386 1814.6562,79.5625 1812.1466,77.543651 1811.9225,76.986218 1812.9688,75.03125 1813.7658,73.54181 1814.812,72.977322 1816.0938,73.3125 1818.4393,73.925893 1819.7381,72.20985 1817.5625,71.375 1816.478,70.958864 1816,69.469199 1816,66.46875 1816,63.021385 1816.4061,62.005893 1818,61.5 1821.0219,60.540895 1820.4007,58.5435 1816.75,57.46875 1812.7136,56.280433 1810.5371,52.124552 1810.7812,46.0625 1810.9983,40.669571 1814.7881,34.509682 1818.4375,33.59375 1824.2902,32.124816 1834.4518,41.11495 1837,50 1837.256,50.892786 1837.2907,51.589487 1837.2188,52.28125 L 1839.3438,52.75 z"/>
</svg>
