<?xml version="1.0" encoding="UTF-8"?>
<svg xmlns="http://www.w3.org/2000/svg" viewBox="2821.22 18.26 19.53 82.23">
  <path d="M 2838.0625,77.71875 C 2837.1842,75.912026 2836.9405,69.288632 2837.0938,49.5 L 2837.3125,22.5 2830.6562,22.21875 C 2825.7052,21.99828 2823.9977,22.254005 2824.0312,23.21875 2824.0561,23.931672 2823.8383,40.49898 2823.5312,60.0625 2823.2241,79.626021 2823.2942,95.950448 2823.6875,96.34375 2824.0808,96.737053 2825.761,96.751784 2827.4375,96.375 2829.114,95.998216 2831.6123,95.563423 2832.9688,95.40625 2834.3252,95.249077 2836.0148,94.337777 2836.7188,93.375 2837.3278,92.542103 2837.7468,92.123611 2838.75,92.1875 L 2838.6562,91.34375 2838.5,87.9375 C 2838.2089,87.387033 2838,86.812508 2838,85.875 2838,85.043239 2838.0866,84.429281 2838.3125,83.96875 L 2838.0625,77.71875 z M 2826.0938,24.0625 2829.2812,24.6875 C 2831.045,25.021403 2832.9965,25.659955 2833.5938,26.125 2834.8636,27.113769 2834.5609,90.886168 2833.2812,92.03125 2832.8512,92.416016 2831.0273,93.005583 2829.2188,93.34375 2825.9348,93.957843 2824.0388,92.368839 2825.4062,90.15625 2825.7216,89.645923 2825.9992,74.578772 2826.0312,56.65625 L 2826.0938,24.0625 z"/>
</svg>
