<?xml version="1.0" encoding="UTF-8"?>
<svg xmlns="http://www.w3.org/2000/svg" viewBox="5531.96 16.77 25.44 87.75">
  <path d="M 5555.125,66.25 5554.6562,65.34375 5554.3438,62 C 5553.7664,61.366942 5553.2723,60.764555 5553.1875,60.1875 5553.0485,59.24105 5553.4259,58.601846 5553.9688,58.25 L 5553.4062,52.46875 C 5552.2299,50.40211 5551.252,47.428597 5550.125,42.71875 5548.2332,34.813173 5547.0463,31.972463 5543.9062,28 5539.5354,22.470445 5537.0211,20.758276 5535.0625,21.96875 5533.9611,22.649444 5533.9585,24.248674 5535,31.15625 5535.6931,35.752449 5536.6483,41.075 5537.125,43 5538.1006,46.938967 5537.5532,90.724544 5536.4688,95.75 5535.9048,98.363571 5536.0775,99 5537.375,99 5538.2624,99 5538.9975,98.6625 5539,98.25 5539.0026,97.8375 5540.4084,95.987879 5542.125,94.15625 L 5545.25,90.84375 5548.9062,94.40625 C 5555.1747,100.52728 5555.4016,100.08134 5554.6562,82 5554.2934,73.2 5554.3357,66.013759 5554.75,66.03125 5554.8084,66.033717 5555.0375,66.22285 5555.125,66.25 z M 5538.6562,27.46875 C 5538.9547,27.578937 5539.3597,27.821386 5539.9062,28.15625 5543.7009,30.481307 5545.7132,35.124556 5547.8125,46.5 5550.7322,62.320332 5551.8682,72.191151 5552,82.875 L 5552.0938,92.28125 5548.9062,89.59375 5545.7188,86.90625 5543.0625,89.4375 C 5539.9658,92.404374 5538.4745,92.744142 5539.4688,90.25 5541.6756,84.714515 5541.0612,51.245796 5538.375,31.65625 5537.8807,28.051208 5537.7608,27.138188 5538.6562,27.46875 z"/>
</svg>
