<?xml version="1.0" encoding="UTF-8"?>
<svg xmlns="http://www.w3.org/2000/svg" viewBox="1324.13 14.83 99.3 85.9">
  <path d="M 1397.3216,94.333333 C 1396.2705,93.28223 1396.5409,88.957137 1397.8913,85.222734 1399.0557,82.002662 1398.9632,81.661962 1396.3037,79.374331 L 1393.4797,76.94519 1389.8173,79.118833 C 1387.803,80.314337 1383.7547,82.90246 1380.821,84.870218 L 1375.4872,88.44796 1371.321,86.077132 C 1369.0297,84.773176 1365.4254,82.3513 1363.3115,80.695185 1358.3852,76.835567 1357.4403,78.065047 1358.2741,87.25 1358.6644,91.550096 1358.5186,94 1357.8723,94 1356.6468,94 1355.2045,80.994398 1356.1128,78.132777 1357.2866,74.43424 1360.3779,74.532057 1365.1199,78.417794 1367.5243,80.388007 1369.9232,82 1370.4508,82 1370.9783,82 1371.9702,82.675 1372.6549,83.5 1374.5568,85.79167 1376.5511,85.326014 1381.2202,81.5 1383.5694,79.575 1385.7963,78 1386.1688,78 1386.5414,78 1388.1376,77.080414 1389.716,75.956476 1392.4148,74.034779 1392.7694,74.007838 1395.6637,75.504576 1400.0409,77.768074 1401.2559,80.994238 1400.0142,87.055967 1399.4571,89.775185 1399.331,92 1399.7339,92 1400.759,92 1406.6549,82.93876 1406.6549,81.363352 1406.6549,80.651784 1405.3892,78.591434 1403.8422,76.784796 1402.2953,74.978158 1399.7804,71.326884 1398.2537,68.670853 1395.7814,64.369815 1395.6111,63.520073 1396.6961,60.900606 1397.3661,59.283 1399.2924,56.799926 1400.9767,55.382663 1403.4915,53.266624 1404.7044,52.91221 1407.7596,53.40075 1409.8058,53.72796 1412.2192,54.27932 1413.1226,54.625995 1414.6041,55.194475 1414.6328,54.9249 1413.4151,51.878156 1411.6818,47.541482 1405.9915,44.526678 1401.2266,45.420571 1399.3889,45.765331 1395.9209,47.378552 1393.5201,49.005507 1387.9527,52.778307 1385.4724,52.760219 1382.2438,48.923275 1379.3654,45.502491 1379.1283,43.434149 1380.7894,36.237833 L 1381.9238,31.323086 1377.5394,27.186547 C 1375.1279,24.91145 1372.7003,23.038756 1372.1447,23.025004 1371.5891,23.011252 1369.9249,24.121579 1368.4465,25.492397 L 1365.7586,27.984795 1368.1381,33.242397 C 1369.4468,36.134079 1370.7726,40.075 1371.0843,42 1371.6068,45.227407 1371.2672,45.832456 1366.7239,49.768629 L 1361.7969,54.037258 1355.9759,49.94111 C 1351.201,46.581089 1349.5648,45.93843 1346.8713,46.365063 1340.6606,47.3488 1331.6549,56.59136 1331.6549,61.981698 1331.6549,63.910946 1332.3313,63.506876 1336.4559,59.113664 1339.0964,56.301149 1342.0437,54 1343.0055,54 1347.5626,54 1353.821,59.829105 1355.2112,65.368477 1355.7541,67.531494 1354.9708,68.865703 1350.2555,73.809207 1347.1752,77.038597 1344.6549,79.979846 1344.6549,80.345316 1344.6549,80.710785 1345.7799,83.341819 1347.1549,86.192056 1349.7898,91.65403 1350.2626,94 1348.7282,94 1347.4843,94 1342.6549,83.324804 1342.6549,80.575324 1342.6549,79.374679 1344.2683,76.841559 1346.2402,74.946167 1350.8325,70.53212 1352.6292,67.06177 1351.6485,64.5 1350.3339,61.066215 1345.8563,57 1343.3897,57 1340.3348,57 1336.316,61.247449 1333.6356,67.309031 1332.466,69.953998 1330.9794,71.931395 1330.332,71.703246 1328.6392,71.106711 1329.1874,60.804773 1331.1096,57.087524 1333.5274,52.412144 1341.7169,45.075518 1345.9378,43.803611 1349.5508,42.714894 1349.992,42.850811 1355.7573,46.829252 L 1361.7939,50.994818 1365.4286,47.565727 1369.0632,44.136635 1367.2468,38.318318 C 1364.6108,29.874429 1364.214,29.588063 1359.2111,32.519917 1356.8836,33.883963 1354.5174,35 1353.953,35 1353.3887,35 1351.7097,33.243557 1350.222,31.096794 1347.8385,27.657452 1347.6738,26.937651 1348.836,25.039998 1349.5614,23.855524 1351.6533,21.953048 1353.4848,20.812274 L 1356.8147,18.738139 1359.8076,22.369069 C 1361.4537,24.366081 1363.3302,25.981712 1363.9777,25.959359 1364.6252,25.937007 1366.7129,24.587007 1368.6171,22.959359 1370.5213,21.331712 1372.5706,20 1373.171,20 1373.7713,20 1375.7891,21.575 1377.6549,23.5 1379.5207,25.425 1381.4129,27 1381.8597,27 1382.3066,27 1384.5358,25.65 1386.8136,24 1389.0914,22.35 1391.4927,21 1392.15,21 1394.1567,21 1396.7096,24.562003 1397.2969,28.181549 1397.791,31.226149 1397.4569,31.913629 1394.3209,34.305577 1390.2538,37.407705 1389.3696,37.566133 1387.6549,35.5 1385.5117,32.917654 1383.9596,33.839966 1382.6646,38.465389 1381.1935,43.719663 1381.6249,45.279013 1385.1973,47.619718 1387.7813,49.312827 1387.9876,49.280122 1393.501,46.303564 1401.518,41.975357 1403.9567,41.59756 1409.1239,43.883269 1415.4101,46.663928 1418.9086,55.09755 1416.8466,62.5 1415.8576,66.050585 1414.354,66.05649 1414.1988,62.5104 1414.051,59.136027 1411.7561,57.052962 1407.4091,56.34754 1404.4201,55.862492 1403.3607,56.203247 1401.2284,58.335625 1397.0536,62.510348 1397.8343,65.083456 1407.1501,77.855236 1409.5034,81.08156 1409.5351,81.331299 1407.9758,84.355236 1403.1516,93.71079 1399.8196,96.831331 1397.3216,94.333333 z M 1358.1901,30.38499 C 1361.2189,28.40046 1361.2722,27.28598 1358.4806,24.314451 1355.7183,21.374087 1354.562,21.405518 1351.6549,24.5 L 1349.3063,27 1351.6549,29.5 C 1354.4209,32.444239 1354.94,32.514537 1358.1901,30.38499 z M 1373.1549,75.045972 C 1369.5711,73.563616 1366.507,69.315945 1365.9326,65.034113 1365.4211,61.220269 1365.6962,60.541993 1369.2176,56.93582 1371.3569,54.744941 1374.0227,53 1375.2305,53 1378.0488,53 1385.6571,61.199699 1385.6483,64.227657 1385.6402,67.008889 1383.004,71.150975 1379.4753,73.926617 1376.5984,76.189608 1376.1232,76.273759 1373.1549,75.045972 z M 1379.9678,70.195281 C 1383.5906,66.413891 1383.3788,63.405098 1379.2045,59.351019 1375.0441,55.310523 1373.4484,55.175717 1370.7275,58.634859 1367.668,62.524355 1367.9315,68.285845 1371.2898,70.92742 1374.8193,73.703734 1376.7637,73.539692 1379.9678,70.195281 z M 1393.2971,31.866444 C 1395.419,29.872963 1395.4708,29.544695 1394.0858,26.866444 1392.2927,23.398843 1391.06,23.332251 1387.1911,26.493974 L 1384.2274,28.916022 1386.6155,31.458011 C 1389.5216,34.551497 1390.3829,34.604145 1393.2971,31.866444 z"/>
</svg>
