<?xml version="1.0" encoding="UTF-8"?>
<svg xmlns="http://www.w3.org/2000/svg" viewBox="2240.21 14.06 75.83 94.73">
  <path d="M 2312.0299,54.03125 2311.7799,54.1875 2305.6549,50.59375 C 2298.7092,46.522998 2296.2194,46.211815 2292.6549,49 2291.2799,50.075541 2288.9174,50.95652 2287.4049,50.96875 2284.7124,50.990521 2284.6421,50.879862 2284.7174,45.25 2284.7596,42.0875 2285.3571,37.7 2286.0299,35.5 2287.3407,31.213197 2287.8999,31.009617 2294.8111,32.34375 2297.5323,32.869029 2298.8702,32.659735 2300.0611,31.46875 2302.2295,29.300492 2302.0853,23.753242 2299.7799,20.90625 L 2297.8737,18.5625 2292.6861,21.78125 C 2289.8374,23.552067 2287.3051,25 2287.0299,25 2286.7548,25 2285.0513,23.875 2283.2487,22.5 2278.947,19.219056 2277.92,19.336721 2273.5924,23.5625 L 2269.9674,27.125 2265.3111,23.5625 C 2258.5093,18.370467 2257.7856,18.608019 2256.1861,26.59375 2255.7471,28.785957 2256.0856,30.315685 2257.3737,31.90625 2259.1312,34.076806 2259.3248,34.116823 2263.6549,32.625 2266.1113,31.778694 2268.475,31.413947 2268.9049,31.84375 2270.1659,33.104776 2271.1223,49 2269.9361,49 2269.3718,49 2267.2857,48.325 2265.3111,47.5 2259.474,45.061084 2257.6775,45.572975 2252.1861,51.25 2246.1488,57.491594 2243.6549,62.348375 2243.6549,67.84375 2243.6549,73.090019 2245.2167,73.944744 2247.4049,69.90625 2249.8666,65.363013 2254.0569,60.653586 2257.0299,59.0625 2259.379,57.805279 2259.8601,57.949757 2263.3737,61 2270.709,67.368067 2270.8631,70.459823 2264.2487,77.78125 2257.4234,85.336041 2257.7131,88.836905 2266.3111,103.21875 2267.0709,104.4897 2269.3673,102.95797 2270.5299,100.40625 2271.1781,98.983618 2271.3888,96.181431 2271.0299,93.9375 2270.4876,90.545661 2270.8739,89.315201 2273.7799,85.03125 2275.6373,82.293095 2277.7568,80.045433 2278.4987,80.03125 2279.2404,80.017068 2281.1915,81.451397 2282.8424,83.21875 2285.5651,86.133366 2285.8131,86.869551 2285.2487,91.125 2284.3243,98.093149 2287.7285,103.90109 2290.3111,99.75 2291.8004,97.356106 2295.8141,85.488897 2295.8424,83.40625 2295.8581,82.252784 2294.6095,79.402312 2293.0611,77.0625 2289.3155,71.402494 2289.3601,66.960936 2293.1549,63 2294.7428,61.342589 2296.6825,60 2297.4987,60 2298.3147,60 2301.8851,61.410294 2305.4049,63.125 L 2311.8111,66.25 2312.5924,65.6875 2312.4361,62.46875 C 2311.3786,62.725499 2309.5574,62.290005 2306.4674,60.75 2297.252,56.157346 2296.5405,56.209725 2291.7174,61.6875 2287.9311,65.987617 2287.5109,66.904113 2287.9674,70.3125 2288.2489,72.414328 2289.6391,75.913621 2291.0611,78.0625 2292.4832,80.21138 2293.6549,82.581681 2293.6549,83.34375 2293.6549,84.105819 2292.2982,87.612776 2290.6237,91.125 L 2287.5611,97.5 2288.0924,91.875 C 2288.6154,86.410539 2288.5421,86.151814 2284.5299,81.59375 2281.7413,78.425762 2279.7335,76.983051 2278.3737,77.1875 2277.2632,77.354455 2274.5608,80.093961 2272.3111,83.28125 2268.8605,88.170373 2268.2398,89.738974 2268.4049,93.53125 2268.512,95.993866 2268.2234,98 2267.7487,98 2266.6565,98 2264.2309,94.332217 2262.3424,89.8125 2260.6373,85.731724 2261.1189,84.540451 2266.8424,78.25 2272.2423,72.315304 2273.0758,69.69928 2270.9049,65.5625 2268.9046,61.751076 2264.1582,57.529522 2260.2174,56.03125 2257.7499,55.09309 2257.0621,55.456188 2252.0924,60.15625 2249.1012,62.98525 2246.6549,64.745443 2246.6549,64.09375 2246.6549,62.007421 2250.4469,55.603026 2253.6549,52.25 2257.2818,48.459227 2259.6691,48.219842 2266.1549,51 2273.9625,54.346728 2274.0504,54.27304 2273.3424,44.25 2273.0025,39.4375 2272.4354,33.904805 2272.0924,31.96875 2271.5682,29.00891 2271.8908,28.014155 2274.1861,25.71875 2277.6361,22.26875 2279.5983,22.297261 2282.9361,25.78125 2285.5607,28.520651 2285.5757,28.612586 2284.1237,33.4375 2281.9308,40.72394 2282.1666,50.242142 2284.5924,52.4375 2286.2524,53.939823 2287.0515,54.034836 2290.0924,53.03125 2292.0442,52.387089 2293.8711,51.447374 2294.1861,50.9375 2295.2193,49.26586 2299.061,50.020627 2304.6549,53.03125 2308.0931,54.881692 2310.2648,55.81233 2312.1237,55.8125 L 2312.0299,54.03125 z M 2296.8424,22 C 2298.8224,21.994155 2300.0445,25.16559 2299.1549,27.96875 2298.6497,29.560453 2297.7447,29.898449 2294.4674,29.71875 2292.0675,29.587161 2290.1973,28.926785 2289.8737,28.09375 2289.2373,26.455765 2294.3209,22.007444 2296.8424,22 z M 2260.1549,23.34375 C 2261.8436,22.798236 2267.2772,27.720059 2266.1549,28.78125 2264.2184,30.612286 2259.6543,31.139428 2259.0611,29.59375 2258.2837,27.567897 2258.9532,23.731951 2260.1549,23.34375 z"/>
</svg>
