<?xml version="1.0" encoding="UTF-8"?>
<svg xmlns="http://www.w3.org/2000/svg" viewBox="2017.22 17.68 17.73 90.15">
  <path d="M 2020.9157,101.50161 C 2020.4545,100.6775 2020.3793,96.739995 2020.7485,92.75161 2021.5565,84.023565 2020.9555,47.245008 2019.7884,34 2019.328,28.775 2019.2221,24.19952 2019.5531,23.832267 2020.7994,22.449418 2029.4003,21.779033 2030.1584,23.005652 2032.0936,26.136809 2032.9546,41.896215 2032.6964,69.455146 2032.5096,89.377753 2032.0402,100.01142 2031.2947,101.20515 2029.8542,103.51175 2022.1636,103.73142 2020.9157,101.50161 z M 2028.6549,100.02117 C 2031.4493,98.254718 2030.5568,30.695335 2027.6775,26.036509 2027.2345,25.319768 2025.9154,25.147496 2024.1887,25.580877 2021.4499,26.268257 2021.4219,26.354049 2022.1292,31.888868 2023.206,40.316189 2024.2701,85.631632 2023.5524,92.5 2023.0543,97.266867 2023.2452,98.756903 2024.4813,99.75 2026.3307,101.23586 2026.6958,101.25958 2028.6549,100.02117 z"/>
</svg>
