<?xml version="1.0" encoding="UTF-8"?>
<svg xmlns="http://www.w3.org/2000/svg" viewBox="1949.41 14.99 18.74 92.76">
  <path d="M 1954.5052,101.75 C 1953.2515,100.72705 1953.1033,99.137719 1953.6889,93 1954.5942,83.513254 1953.5698,41.068847 1952.1509,29.273354 1951.4141,23.14842 1951.4458,23.02999 1954.0935,22.023354 1961.4996,19.207563 1962.9074,21.014516 1964.5932,35.5 1966.1586,48.951437 1965.5396,99.230448 1963.7825,101.3469 1962.165,103.29514 1956.6904,103.53301 1954.5052,101.75 z M 1962.0246,97.75 C 1962.3563,96.5125 1962.6337,83.534052 1962.6412,68.909004 1962.654,43.981137 1961.4801,26.603837 1959.6514,24.650663 1959.2141,24.183528 1957.8717,24.1138 1956.6684,24.495713 1954.6515,25.135852 1954.5299,25.631883 1955.1115,30.84505 1955.4585,33.955272 1955.9823,43.025 1956.2755,51 1956.5687,58.975 1956.9341,68.425 1957.0877,72 1957.2412,75.575 1957.0563,83 1956.6767,88.5 1956.2971,94 1956.1634,98.8375 1956.3797,99.25 1956.596,99.6625 1957.8189,100 1959.0973,100 1960.6624,100 1961.6186,99.265047 1962.0246,97.75 z"/>
</svg>
