<?xml version="1.0" encoding="UTF-8"?>
<svg xmlns="http://www.w3.org/2000/svg" viewBox="241.22 19.84 97.59 86.39">
  <path d="M 334.37361,39.96875 C 334.33846,39.992449 334.18304,40.040899 334.15486,40.0625 333.60486,40.484141 332.02986,40.854934 330.65486,40.875 329.27986,40.895066 327.02986,41.021507 325.65486,41.1875 323.22264,41.481123 323.15461,41.345755 323.27986,35.5625 323.39365,30.308959 323.26838,29.817721 322.06111,31.46875 319.71868,34.672213 319.24949,39.735108 321.06111,42.5 322.9489,45.381131 324.60712,45.609326 328.68611,43.5 331.51449,42.037389 331.5704,42.041197 330.81111,44.09375 330.32705,45.402291 327.68667,47.245714 323.93611,48.875 318.60134,51.19249 317.09814,52.539744 311.43611,60 307.83483,64.745012 304.09543,68.616996 302.99861,68.78125 301.91797,68.943081 299.32423,67.705581 297.21736,66.03125 295.11048,64.35692 292.816,63 292.12361,63 291.43121,63 289.45559,64.587112 287.74861,66.53125 283.87708,70.940678 283.74881,74.77805 287.24861,80.75 290.1992,85.784808 290.00945,89.843236 286.52986,95.3125 L 284.49861,98.5 285.09236,93 C 285.66163,87.888892 285.50912,87.234846 282.62361,83.75 280.91583,81.6875 278.67243,80 277.65486,80 274.85843,80 268.65486,90.492308 268.65486,95.21875 268.65486,100.20969 267.30114,100.01139 265.27986,94.71875 263.23467,89.363507 263.24454,87.600736 265.24861,85.9375 268.22241,83.469469 272.65486,76.149695 272.65486,73.71875 272.65486,71.056882 266.70842,62.64874 263.68611,61.03125 260.52652,59.340289 258.66449,59.828903 254.31111,63.5625 250.89672,66.490793 250.09705,66.830327 249.81111,65.4375 249.30828,62.988275 254.76793,55.676688 257.93611,54.5625 260.10878,53.798413 261.79278,54.158446 266.56111,56.4375 269.81812,57.994209 273.18704,59.022913 274.06111,58.6875 276.00861,57.940175 276.14547,50.266404 274.31111,45 273.0269,41.313045 272.98899,41.305566 265.56111,42.59375 262.40244,43.141545 261.8578,42.939792 261.34236,40.96875 261.01873,39.731163 261.53544,36.399073 262.46736,33.59375 264.73267,26.77457 266.90709,26.421405 271.71736,32.0625 275.26217,36.219568 275.46333,36.325116 278.43611,35.09375 280.12402,34.394594 282.29861,32.955994 283.24861,31.90625 285.66989,29.230772 287.65486,29.519372 287.65486,32.53125 287.65486,34.056664 286.13504,36.724529 283.81111,39.28125 279.98859,43.486676 279.95962,43.536809 280.40486,50.5 280.65104,54.35 281.19426,57.852976 281.59236,58.28125 281.99046,58.709524 283.48638,58.147024 284.90486,57.03125 288.11692,54.50464 291.13628,54.426911 292.84236,56.84375 294.32494,58.943991 299.78061,62 302.06111,62 303.82744,62 311.33872,52.223684 312.81111,48 313.63749,45.62943 313.42292,44.623322 311.71736,42.3125 309.35306,39.109161 308.67595,31.858823 310.52986,29.625 311.37096,28.611526 311.42918,27.990493 310.68611,27.53125 309.5409,26.823472 306.65486,32.674939 306.65486,35.71875 306.65486,36.707061 307.55486,39.197638 308.65486,41.25 309.75486,43.302361 310.65486,45.77745 310.65486,46.75 310.65486,49.185738 303.50032,58.876025 301.65486,58.9375 300.23145,58.984915 298.13878,57.814838 292.34236,53.6875 290.008,52.025319 289.54332,52.009532 286.84236,53.40625 285.22018,54.245111 283.6246,54.625981 283.27986,54.28125 282.93513,53.936519 282.65486,51.397644 282.65486,48.625 282.65486,44.183184 283.09696,43.134585 286.27986,39.875 289.02585,37.062855 289.99034,35.119109 290.37361,31.71875 290.65092,29.258479 290.45836,26.464454 289.93611,25.53125 289.10644,24.048714 288.35554,24.438124 284.06111,28.4375 281.35791,30.954964 278.41608,33 277.49861,33 276.58115,33 274.39729,31.2 272.65486,29 268.60429,23.885737 265.84319,23.767824 262.18611,28.5625 258.81322,32.984594 257.58023,42.300587 259.96736,45.46875 261.30634,47.245831 261.81676,47.324124 264.87361,46.21875 271.24891,43.913413 272.39046,44.431024 272.87361,49.75 273.11092,52.3625 273.16237,54.806362 272.96736,55.1875 272.77236,55.568639 270.24804,54.775766 267.37361,53.4375 264.49919,52.099235 261.19319,51.005373 260.02986,51 255.37323,50.978493 249.00032,59.200678 248.09236,66.375 247.87605,68.084196 247.24522,69.626129 246.68611,69.8125 246.127,69.99887 245.65486,71.264584 245.65486,72.59375 245.65486,76.054817 248.29687,75.617986 250.24861,71.84375 252.38347,67.715387 257.59336,63 260.02986,63 262.55601,63 269.65486,70.720115 269.65486,73.46875 269.65486,74.644831 267.6221,78.517594 265.12361,82.0625 260.19364,89.057247 260.1378,89.687571 263.68611,97.75 264.71486,100.0875 266.16543,102 266.93611,102 269.36434,102 271.47794,98.641949 271.46736,94.78125 271.45502,90.280041 275.07879,84 277.68611,84 281.09516,84 282.76888,87.892002 282.06111,94.15625 281.49748,99.144738 281.64645,99.933922 283.40486,100.875 286.07279,102.30282 287.78335,100.28781 290.65486,92.3125 L 292.87361,86.125 289.77986,80.6875 C 286.11415,74.280498 285.96046,72.777967 288.71736,68.90625 291.30295,65.275124 292.27325,65.286845 297.27986,68.96875 301.95344,72.405738 303.88327,77.235092 304.18611,86.4375 304.40873,93.202306 306.13495,94.990059 306.90486,89.25 307.37674,85.731826 306.77412,80.649454 305.09236,73.75 304.57481,71.62673 304.77762,71 305.99861,71 308.70738,71 310.11147,75.183712 310.27986,83.8125 310.36902,88.381354 310.67214,92.36103 310.96736,92.65625 311.97983,93.668717 313.50882,85.929004 313.02986,82.21875 312.76648,80.178503 311.84661,75.923067 310.96736,72.78125 309.4902,67.502897 309.49821,66.895038 311.02986,64.78125 311.94154,63.523067 313.73553,60.933074 315.02986,59 318.00018,54.563868 319.23448,53.558459 325.77986,50.21875 328.94543,48.603554 331.70767,46.318921 332.65486,44.5625 333.04414,43.840633 333.652,43.160056 334.31111,42.53125 L 334.37361,39.96875 z M 316.49861,29.21875 C 314.54236,29.870833 312.32089,36.519461 313.06111,39.46875 313.41218,40.867513 314.31415,42 315.06111,42 316.07244,42 316.27027,40.898155 315.90486,37.65625 315.62668,35.18823 315.93729,32.313639 316.62361,31.03125 317.60649,29.194722 317.58312,28.857249 316.49861,29.21875 z"/>
</svg>
