<?xml version="1.0" encoding="UTF-8"?>
<svg xmlns="http://www.w3.org/2000/svg" viewBox="4445.98 16.79 44.46 86.82">
  <path d="M 4479.1332,94.486436 C 4475.4803,89.618711 4474.2724,89.05019 4473.3196,91.75 4472.4769,94.137791 4468.8942,98.009614 4467.5757,97.957404 4466.9841,97.933977 4464.7958,95.704502 4462.7129,93.003017 4458.4131,87.426139 4457.1304,87.40395 4453.823,92.849224 4449.6888,99.655788 4448,99.258253 4448,91.478496 4448,85.833536 4451.336,75.192037 4453.3476,74.420106 4454.7087,73.897805 4455.0014,48.665164 4453.6618,47.333333 4451.6718,45.354832 4449.9926,39.292756 4449.4608,32.167388 4448.826,23.662697 4449.7669,20.731707 4452.4238,22.936747 4453.2907,23.656225 4454,24.682823 4454,25.218074 4454,26.668323 4457.9916,32 4459.0773,32 4459.595,32 4461.4029,29.75 4463.095,27 4464.7871,24.25 4466.6044,22 4467.1335,22 4468.6064,22 4472.6328,26.699359 4474.0113,30.027332 4474.6885,31.662299 4475.8161,33 4476.5171,33 4477.218,33 4479.2688,30.697829 4481.0744,27.884064 4484.0871,23.189184 4484.466,22.916855 4485.6786,24.575194 4487.9542,27.687263 4487.2632,35.227027 4484.0449,42.400035 4481.3187,48.476205 4481.0779,49.95957 4480.9375,61.545928 4480.8174,71.462544 4481.1016,74.46251 4482.2884,75.802676 4487.2054,81.355298 4488.4155,97.991046 4483.9562,98.731185 4483.1553,98.864113 4480.9849,96.953976 4479.1332,94.486436 z M 4457.2335,81.461419 C 4455.9743,75.40056 4453.4662,75.691207 4451.5572,82.119201 4448.7588,91.542589 4449.7837,93.68299 4454.7272,88.739466 4457.7965,85.670197 4457.9908,85.105986 4457.2335,81.461419 z M 4456.9022,41.850777 C 4457.506,40.118704 4458,38.134088 4458,37.44052 4458,35.741855 4452.8749,28 4451.7504,28 4450.6189,28 4451.7953,38.574787 4453.3356,42.25 4454.823,45.798735 4455.5545,45.716858 4456.9022,41.850777 z M 4473.6736,85.438531 C 4480.1435,69.464432 4479.7672,48.378567 4472.737,32.959979 4468.0878,22.763587 4465.876,22.845211 4461.6631,33.36863 4456.4734,46.332253 4455.4034,65.424258 4459.1338,78.5 4462.2464,89.410382 4465.4748,94.440369 4468.9371,93.7736 4469.7488,93.617287 4471.8802,89.866506 4473.6736,85.438531 z M 4466.2528,79.75 C 4462.4813,74.998274 4461.1442,52.188631 4464.1286,43.51366 4467.888,32.585896 4472.53,42.754296 4472.2415,61.28524 4471.9862,77.691136 4469.8489,84.280865 4466.2528,79.75 z M 4469.393,74.418213 C 4470.4397,71.690624 4470.0536,49.452076 4468.9022,46.149223 4466.5663,39.448411 4465.2371,42.959178 4464.4154,58 4463.9601,66.336463 4464.17,69.272692 4465.4344,72.25 4467.1389,76.263818 4468.4163,76.963482 4469.393,74.418213 z M 4484.2705,92.737444 C 4485.1033,90.567348 4483.4254,82.298215 4481.5813,79.483705 L 4479.8192,76.794506 4478.4096,79.51156 C 4476.3347,83.510976 4476.6811,86.893072 4479.5509,90.655609 4482.274,94.225751 4483.493,94.763487 4484.2705,92.737444 z M 4482.1041,41.795958 C 4484.4647,37.168717 4485.6878,27.604072 4483.8401,28.219974 4483.233,28.422341 4481.4023,30.429356 4479.772,32.680007 4477.3187,36.066676 4476.9966,37.125187 4477.9038,38.820309 4478.5067,39.946824 4479,42.023101 4479,43.434259 4479,46.990849 4479.6211,46.663045 4482.1041,41.795958 z"/>
</svg>
