<?xml version="1.0" encoding="UTF-8"?>
<svg xmlns="http://www.w3.org/2000/svg" viewBox="270.06 50.65 21.94 51.7">
  <path d="M 273.125,79.09375 272.8125,82.21875 C 273.66513,82.032615 274,82.412954 274,83.40625 274,85.296135 273.17254,87.194497 272.28125,87.75 L 272.0625,90.15625 C 272.08027,90.15216 272.20482,90 272.21875,90 272.65423,90 273,92.25 273,95 273,97.75 273.3375,100.00067 273.75,100 274.1625,99.999328 275.8082,98.874328 277.40625,97.5 280.79117,94.588947 282.64424,94.379942 285.125,96.625 287.55365,98.822896 290,97.679461 290,94.34375 290,86.775384 284.58127,64.556984 281.90625,61.15625 280.8576,59.823106 280,58.25752 280,57.6875 280,56.119175 276.88061,53 275.3125,53 274.19268,53 273.9854,55.408787 274.21875,65.625 L 274.5,78.25 273.125,79.09375 z M 276.875,57.0625 C 277.07911,57.231044 277.35219,57.718304 277.6875,58.59375 278.08629,59.63497 279.40091,61.976018 280.625,63.78125 283.08798,67.413503 285.45368,76.884033 286.5,87.34375 287.17789,94.120515 287.17294,94.146199 285.03125,93 283.45585,92.15687 282.02717,92.154569 279.78125,92.9375 278.08816,93.527714 276.53667,94 276.34375,94 275.74789,94 275.94636,89.634486 277.03125,79.0625 277.75261,72.032997 277.75078,67.173534 277.03125,63.28125 276.24541,59.030226 276.26266,56.556869 276.875,57.0625 z"/>
</svg>
