<?xml version="1.0" encoding="UTF-8"?>
<svg xmlns="http://www.w3.org/2000/svg" viewBox="298.02 19.38 33.98 87.14">
  <path d="M 306.58558,100.09456 C 301.45827,94.428954 300.44172,77.736195 304.59221,67.361597 L 307.18443,60.882083 305.14547,55.691041 C 300.80965,44.652335 300.02215,37.769021 302.13507,29.377886 303.65552,23.339614 305.16158,25.171025 303.81964,31.426373 302.46627,37.735 303.88985,46.777195 307.40691,54.211648 310.57932,60.917556 310.57937,60.923155 307.53166,66.937529 303.43625,75.019426 304.13762,94.379548 308.66185,98.13432 310.14382,99.364252 310.48006,102 309.15499,102 308.69023,102 307.534,101.14255 306.58558,100.09456 z M 314.60445,99.75 C 310.72554,93.696156 309.71153,79.433901 312.48929,70 315.38578,60.162895 315.38583,60.116194 312.50435,54.421056 310.05865,49.587208 309.7358,47.805861 309.6249,38.533413 309.51702,29.512735 309.75626,27.845502 311.38107,26.295019 313.20273,24.556693 313.24056,24.578959 312.57895,27 310.04212,36.283085 311.38812,47.174202 316.10519,55.532399 318.99391,60.650914 319.05362,60.99564 317.55383,63.895897 315.20201,68.443813 312.93493,79.339437 313.54933,83.141549 315.23927,93.599484 316.39728,97.938475 317.62404,98.409225 319.46804,99.116833 319.38695,102 317.52305,102 316.71073,102 315.39736,100.9875 314.60445,99.75 z M 326.77558,100.25 C 320.97421,93.633472 319.30535,79.937931 322.87028,68.201161 L 324.98311,61.245117 321.44684,53.591309 C 318.44674,47.097986 317.8887,44.767169 317.76638,38.21875 317.67154,33.141286 318.11868,29.569413 319.07307,27.780502 320.42314,25.249923 320.5231,25.770936 320.51196,35.280502 320.50031,45.232217 320.60366,45.7015 324.45614,53.189916 L 328.41229,60.879832 326.08277,67.478481 C 322.85448,76.622991 323.37144,88.392126 327.31102,95.44079 328.78996,98.086904 330,100.64523 330,101.12595 330,102.55376 328.41891,102.12424 326.77558,100.25 z"/>
</svg>
