<?xml version="1.0" encoding="UTF-8"?>
<svg xmlns="http://www.w3.org/2000/svg" viewBox="4243.66 14.96 82.35 88.96">
  <path d="M 4255.6946,97.361217 C 4255.3432,97.009887 4256.1682,95.400361 4257.5279,93.784492 4258.8875,92.168624 4260,90.452189 4260,89.970192 4260,89.488195 4258.4161,88.342243 4256.4803,87.423631 4251.3628,84.995199 4248.6749,80.658908 4248.2002,74.065397 4247.7692,68.077595 4249.9155,61.846465 4255.4036,53.152767 4259.0594,47.361485 4258.7079,42.952436 4254.5012,41.835849 4249.1348,40.411466 4247.4013,34.99219 4250.4353,29.125189 4252.4774,25.176167 4259.6163,19 4262.1388,19 4264.0779,19 4264.2181,19.392226 4263.6807,23.313109 4262.4096,32.586551 4265.0277,34.236033 4271.8072,28.433056 4274.0991,26.471236 4276.4301,25.147794 4276.9872,25.492073 4278.3186,26.314927 4278.2868,34.115473 4276.9376,37.664188 4276.3532,39.201102 4274.4686,41.632827 4272.7495,43.068022 4269.7684,45.556759 4269.6845,45.82409 4270.9367,48.847146 4271.8701,51.100721 4273.5864,52.611338 4276.8748,54.07381 4285.4071,57.868428 4286.326,57.762685 4290.3245,52.526105 4295.7299,45.446809 4296.5762,41.961324 4294.4955,35.346507 4292.8767,30.19987 4292.875,29.615828 4294.4664,25.448907 4296.1157,21.130106 4297.6156,19.28231 4298.6403,20.306934 4298.9192,20.585897 4298.4393,22.183611 4297.5737,23.85741 4295.4751,27.91578 4295.5981,31.870427 4297.9334,35.412781 4299.753,38.173091 4299.7681,38.53901 4298.222,42.403244 4293.6752,53.766703 4289.3451,59 4284.4896,59 4279.1257,59 4270.4106,54.694666 4268.5702,51.13573 4266.266,46.67994 4266.5843,45.316447 4270.8874,41.209875 4274.7724,37.502328 4276.9482,31.704069 4274.924,30.453047 4274.3683,30.109573 4272.388,30.992124 4270.5235,32.414274 4268.659,33.836423 4266.2795,35 4265.2357,35 4262.473,35 4260.6246,30.835608 4261.2657,26.055745 4261.9759,20.761046 4260.3657,20.745978 4255.6164,26.002881 4249.9272,32.300111 4250.8163,40.453982 4257.1167,39.761827 4259.2223,39.530503 4259.6063,40.050392 4260.4128,44.224435 4261.2904,48.766318 4261.1684,49.173063 4257.2557,54.750933 4252.4441,61.610378 4249.6015,70.358885 4250.5469,75.398284 4251.4489,80.206398 4257.1876,86 4261.0481,86 4265.0109,86 4264.9296,88.426954 4260.786,93.818215 4257.5391,98.042868 4256.8534,98.520025 4255.6946,97.361217 z M 4263.5,95 C 4265.6482,92.8 4268.0046,91 4268.7363,91 4269.995,91 4277,97.329393 4277,98.466667 4277,99.874906 4274.0983,98.73359 4272,96.5 4270.7083,95.125 4269.1333,94 4268.5,94 4267.8667,94 4266.2917,95.125 4265,96.5 4263.7083,97.875 4261.9635,99 4261.1227,99 4260.1474,99 4261.008,97.552086 4263.5,95 z M 4263.0726,78.365141 C 4259.9774,74.430314 4260.0046,68.422727 4263.1407,63.301629 4265.8969,58.800868 4268.3841,58.303053 4272.8179,61.364788 4279.3471,65.873542 4283.7228,67.246597 4287.5436,65.985622 4292.2082,64.446143 4300.4329,55.154514 4302.8062,48.743038 4304.758,43.470146 4306.2755,42.14184 4312.3964,40.348577 4315.4109,39.465414 4317.9328,36.599499 4316.7428,35.409434 4316.3652,35.031862 4314.6207,35.418191 4312.8662,36.267942 4311.1116,37.117693 4309.074,37.581886 4308.3381,37.299483 4305.4538,36.19269 4307.6685,26.175996 4311.4996,23 4313.2274,21.567717 4313.2398,21.635433 4311.775,24.5 4309.5818,28.788765 4308.6799,33.68413 4309.9394,34.462548 4310.5205,34.82167 4312.2967,34.347117 4313.8865,33.407986 4319.7062,29.970202 4322.2657,34.656432 4317.25,39.566193 4315.7375,41.046737 4312.9679,42.762521 4311.0953,43.379046 4308.3501,44.282844 4306.994,45.794802 4304.0953,51.18375 4302.1179,54.859812 4299.3036,59.232967 4297.8414,60.901872 4294.1493,65.115769 4288.1726,69 4285.3807,69 4282.2141,69 4274.971,66.117237 4272.4355,63.847842 4269.5689,61.281937 4267.3484,61.538588 4265.2945,64.673247 4263.0695,68.069061 4263.1898,74.447265 4265.5276,77.030501 4267.9452,79.701903 4269.3404,79.518036 4273.3472,76 4277.3257,72.506808 4280.7096,72.197096 4284.2729,75 4287.3259,77.401503 4288.2177,77.455897 4292.0497,75.47432 4296.096,73.381854 4296.1373,75.89699 4292.0957,78.284392 4288.3263,80.511052 4286.3856,80.448498 4283.2729,78 4279.8625,75.317413 4276.8366,75.480572 4274,78.5 4270.7512,81.958174 4265.8513,81.897702 4263.0726,78.365141 z M 4274.899,92.872492 4271.63,88.744985 4274.5563,86.622492 C 4276.1657,85.455122 4278.3144,83.672055 4279.3312,82.660122 4281.1262,80.873567 4281.2424,80.875462 4283.3399,82.725504 4286.373,85.400749 4290.7077,88 4292.1361,88 4292.7996,88 4294.1682,87.252759 4295.1774,86.339464 4297.6629,84.090107 4298.7796,85.481089 4296.5055,87.993869 4294.068,90.687342 4290.7433,90.519921 4285.4861,87.438957 4281.2997,84.985613 4281.0084,84.948396 4278.558,86.553967 4275.4819,88.56952 4275.3137,90.431906 4278,92.732028 4280.0639,94.499208 4280.6991,97 4279.084,97 4278.5802,97 4276.697,95.142622 4274.899,92.872492 z M 4301.0147,32.333333 C 4301.0311,28.071906 4302.787,23.893281 4304.8471,23.213267 4305.9089,22.862791 4305.9628,23.200929 4305.1019,24.809546 4304.5012,25.932069 4303.836,28.778809 4303.6237,31.135636 4303.1301,36.615612 4300.9945,37.595995 4301.0147,32.333333 z"/>
</svg>
