<?xml version="1.0" encoding="UTF-8"?>
<svg xmlns="http://www.w3.org/2000/svg" viewBox="4858.52 17.89 36.43 92.44">
  <path d="M 4885,100.40113 C 4885,95.210156 4882.6738,89.472547 4880.1815,88.516162 4877.3213,87.418597 4873.0254,95.041838 4873.0056,101.25 4872.9961,104.20946 4869.9745,103.18739 4868.5709,99.75 4866.6318,95.000954 4868.1958,83.813625 4871.4959,78.826761 4873.9586,75.105416 4873.9834,74.89946 4872.4069,71.250712 4871.4839,69.11458 4870.5615,63.410507 4870.2639,58 4869.7819,49.233589 4869.4864,48.149148 4866.4372,43.956457 4862.3977,38.402247 4860.5178,31.640084 4861.7216,26.99441 4862.9927,22.089088 4864.6368,22.249112 4867.1141,27.519283 4869.5974,32.8024 4871.8543,34.239332 4873.4362,31.544461 4875.5329,27.972355 4879.2,24 4880.4008,24 4882.6849,24 4886.2158,30.194111 4887.731,36.859142 4889.7072,45.551737 4889.8943,62.891589 4888.0913,70.245871 4886.8325,75.380162 4886.8528,76.179823 4888.2817,77.758785 4892.6068,82.53791 4892.9524,97.248156 4888.8619,102.44843 4885.9674,106.12825 4885,105.61543 4885,100.40113 z M 4868.2113,34.057448 C 4866.25,32.096183 4865.0106,31.453533 4864.7347,32.254808 4864.1492,33.95535 4865.9313,39.093634 4867.8916,41.357083 4869.4325,43.136203 4869.5369,43.085935 4870.3796,40.159723 4871.1478,37.49172 4870.8735,36.719677 4868.2113,34.057448 z M 4877.7774,85.25 C 4880.1705,83.386058 4880.605,83.60273 4884.3744,88.539237 4887.388,92.486107 4887.9213,92.823454 4888.4606,91.12428 4889.2653,88.588664 4888.2234,84.408606 4885.6584,79.882837 4883.6569,76.351237 4883.6485,76.099475 4885.3042,69.239755 4887.053,61.994365 4887.6224,49 4886.1911,49 4885.7463,49 4884.5088,49.660688 4883.4411,50.468197 4880.7796,52.481298 4879.3132,52.359186 4875.7591,49.828494 L 4872.7095,47.656988 4873.2143,57.306759 C 4873.4919,62.614133 4874.167,67.528811 4874.7144,68.228265 4875.2619,68.927719 4876.2012,70.960948 4876.8017,72.746552 4877.7901,75.685387 4877.624,76.288216 4875.0498,79.106668 4872.1722,82.257167 4871,85.776317 4871,91.264547 L 4871,94.279094 4873.5863,90.389547 C 4875.0087,88.250296 4876.8947,85.9375 4877.7774,85.25 z M 4883.0497,47.47432 C 4885.9906,45.953477 4886.5411,44.573536 4885.3964,41.59068 4884.8685,40.214832 4884.4716,40.270493 4882.2284,42.034993 L 4879.6639,44.052199 4877.0126,41.512099 C 4872.4507,37.141516 4871.3188,41.132395 4875.75,45.963784 4878.9469,49.449407 4879.1493,49.491284 4883.0497,47.47432 z M 4883.2951,36.904777 C 4884.5154,34.956918 4883.5579,30.700725 4881.4179,28.560736 4879.5162,26.659043 4878.472,27.186547 4876.4684,31.061171 4875.0951,33.716688 4875.1099,34.238056 4876.6234,36.547931 4878.4707,39.36727 4881.646,39.537107 4883.2951,36.904777 z"/>
</svg>
