<?xml version="1.0" encoding="UTF-8"?>
<svg xmlns="http://www.w3.org/2000/svg" viewBox="923.49 16.46 29.52 86.88">
  <path d="M 926.03125,52.25 926.34375,55.1875 C 926.9719,55.270861 927,56.146174 927,57.90625 927,58.272349 926.79591,58.469074 926.75,58.78125 L 927.34375,64 927.28125,64.15625 C 927.66636,64.385548 928.38467,66.561486 928.96875,69.375 929.94212,74.063707 929.84419,75.554876 928.0625,80.84375 925.8054,87.543842 925.49074,91.550048 926.96875,95.4375 928.46985,99.385684 930.77863,98.607063 931.96875,93.75 934.07637,85.148487 934.4338,84.5 937.03125,84.5 939.18726,84.5 939.75841,85.320217 941.5,90.75 942.6,94.179496 944.04537,96.991996 944.71875,97 945.39213,97.008004 946.66634,95.576716 947.5625,93.84375 949.54505,90.009922 948.85772,84.126697 945.84375,79.25 944.15413,76.516136 943.97015,75.441688 944.84375,73.21875 951.00655,57.537232 950.07928,40.510119 942.34375,27.75 938.3004,21.08031 935.98109,20.406728 933.71875,25.25 931.31065,30.405298 928.25617,41.079682 927.5,47.03125 927.13356,49.915381 926.88158,51.264145 926.03125,52.25 z M 936.96875,25.25 C 939.55019,25.43622 943.02398,33.05485 940.96875,35.53125 939.31467,37.524291 937.38098,37.380978 935.0625,35.0625 933.46053,33.460537 933.26696,32.539896 934.03125,29.875 934.54181,28.094762 935.40121,26.192538 935.9375,25.65625 936.2514,25.342353 936.59997,25.223397 936.96875,25.25 z M 931.0625,41.09375 935.46875,44.1875 C 939.78215,47.227864 939.94332,47.258176 942.53125,45.5625 943.98531,44.609766 945.40522,44.06147 945.6875,44.34375 945.96978,44.626029 946.17562,48.613334 946.15625,53.1875 946.12987,59.413143 945.48194,63.347513 943.59375,68.8125 L 941.09375,76.09375 943.03125,79.8125 C 944.09567,81.85464 945.22188,85.082431 945.53125,87 946.02711,90.073498 945.91861,90.285799 944.78125,88.625 939.09522,80.322131 936.38876,79.234957 933.0625,83.90625 931.92866,85.498588 930.58124,87.861088 930.0625,89.15625 929.22353,91.250913 929.11888,91.085625 929.0625,87.625 929.02763,85.485242 929.95316,81.783872 931.125,79.4375 933.2401,75.202412 933.26286,75.133718 931.46875,67.84375 929.58031,60.170503 929.12177,51.078282 930.34375,44.78125 L 931.0625,41.09375 z M 943.6875,36.46875 C 944.13419,36.444624 944.36245,36.78457 944.625,37.46875 944.95057,38.317165 944.4919,40.129247 943.59375,41.5 941.45354,44.766364 939.24254,44.621737 935.15625,40.90625 931.25618,37.360081 931.41955,36.564733 935.71875,38.1875 938.28791,39.157246 939.22391,39.086179 941.40625,37.65625 942.56783,36.895153 943.24081,36.492876 943.6875,36.46875 z"/>
</svg>
