<?xml version="1.0" encoding="UTF-8"?>
<svg xmlns="http://www.w3.org/2000/svg" viewBox="3051.87 13.81 46.92 83.94">
  <path d="M 3096.5938,51.75 C 3096.1839,52.197833 3095.751,52.616983 3095.0938,52.96875 3093.3817,53.885039 3092.6451,53.579137 3090.375,51.03125 3087.3382,47.623022 3085.4773,47.269894 3082.875,49.625 3081.8897,50.516705 3080.3555,50.965265 3079.4688,50.625 3078.1535,50.120332 3077.9202,48.821561 3078.25,43.53125 3078.4864,39.738243 3079.2755,36.314892 3080.1562,35.28125 3082.8248,32.149712 3084.2826,27.110296 3083.7188,22.90625 3083.4189,20.671207 3082.8846,18.540916 3082.5312,18.1875 3082.1779,17.834084 3080.0896,19.47924 3077.9062,21.84375 3075.7229,24.208261 3073.3909,25.969481 3072.7188,25.75 3072.0467,25.530519 3070.9959,23.82119 3070.375,21.9375 3069.754,20.05381 3068.5057,18.338015 3067.5938,18.15625 3064.925,17.624369 3058.2683,25.040491 3057.4375,29.46875 3056.41,34.946178 3057.7296,36.657919 3064.5,38.65625 3067.1661,39.443154 3067.5326,40.01173 3067.8125,43.90625 3068.1758,48.962738 3067.1936,49.977593 3061.8125,50 3056.6213,50.021616 3054,53.52566 3054,60.46875 3054,64.248771 3054.5151,66.141456 3055.8438,67.34375 3057.9367,69.237939 3059,68.632038 3059,65.53125 3059,64.350816 3060.3716,62.0529 3062.0625,60.4375 3065.0523,57.581091 3065.1759,57.549693 3066.5625,59.4375 3069.2234,63.060339 3068.3606,68.180712 3064.375,72.40625 3060.4718,76.544318 3060.5908,75.512161 3062.625,88.3125 3063.2885,92.487826 3065.1721,93.932017 3067.5,92 3068.4983,91.171551 3069,88.890393 3069,85.0625 3069,79.422258 3070.2332,77.143904 3074.6562,74.65625 3076.7301,73.489839 3080,80.267805 3080,85.75 3080,90.884778 3081.7139,93.691917 3084.25,92.71875 3085.3964,92.278819 3089.0117,77.969614 3089,73.90625 3088.9975,73.021152 3087.4197,70.321152 3085.5,67.90625 3083.5803,65.491348 3082.0053,63.1625 3082,62.75 3081.9825,61.399974 3085.2916,61.96577 3087.125,63.625 3088.7793,65.122077 3089.2584,65.122077 3093,63.625 3094.7437,62.927314 3095.7889,62.571835 3096.5625,62.34375 L 3096.6562,62 3096.6562,58.3125 C 3095.597,59.626011 3094.0609,60.951385 3092.3438,61.84375 3090.5757,62.762569 3089.3802,62.505099 3085.625,60.40625 3077.9425,56.112392 3076.504,59.994403 3083,67.5 3087.5648,72.774269 3087.9303,75.351501 3085.3125,83.65625 3083.3708,89.81606 3081.7043,90.780759 3082.5938,85.21875 3083.0955,82.080365 3082.6412,80.548929 3079.9688,76.25 3076.396,70.502453 3075.7454,70.46415 3070.6562,75.8125 3068.5994,77.974106 3067.5958,80.297278 3067.0625,84.15625 3066.3231,89.506417 3066.1202,89.424936 3064.0938,83.09375 3062.468,78.0147 3062.6543,77.339515 3067,72.625 3071.2578,68.005834 3071.5794,66.662112 3069.9375,60.75 3068.9978,57.366187 3068.5668,57 3065.5312,57 3063.0209,57 3061.5399,57.761428 3059.6562,60 3058.2679,61.65 3056.873,63 3056.5625,63 3056.252,63 3056,61.41875 3056,59.46875 3056,56.998391 3056.7793,55.126925 3058.5625,53.34375 3060.8138,51.092457 3061.656,50.882937 3065.5625,51.46875 L 3070,52.125 3070,45.65625 C 3070,36.847388 3069.5706,36 3064.9375,36 3060.1074,36 3058.657,33.840264 3060.0625,28.75 3061.1793,24.705193 3064.5779,20 3066.375,20 3067.0464,20 3068.2846,21.882779 3069.125,24.1875 3069.9653,26.492222 3071.1951,28.55462 3071.875,28.78125 3072.5549,29.00788 3074.8563,27.376913 3076.9688,25.15625 3081.1107,20.80215 3082,20.793659 3082,25.09375 3082,28.805699 3080.3002,33.08005 3077.9375,35.28125 3076.3675,36.743968 3076,38.451896 3076,44.34375 3076,53.407762 3076.9631,54.586854 3082.1562,51.9375 L 3086,49.96875 3088.9062,53.21875 C 3091.6287,56.26561 3092.0337,56.42788 3094.9062,55.34375 3095.8018,55.005768 3096.1948,54.958679 3096.6562,54.875 L 3096.6562,52 3096.5938,51.75 z"/>
</svg>
