<?xml version="1.0" encoding="UTF-8"?>
<svg xmlns="http://www.w3.org/2000/svg" viewBox="2772.93 15.32 126.97 91.88">
  <path d="M 2893.125,30.46875 C 2888.5472,33.497148 2884.1807,36 2883.4062,36 2881.113,36 2881.7616,30.742969 2884.5,27.03125 2888.0499,22.219634 2886.4583,21.738729 2882.4062,26.40625 2878.591,30.801079 2877.62,37.265161 2880.5938,38.40625 2882.4175,39.106086 2886.9244,38.187888 2888.75,36.75 2890.4884,35.380737 2890.3072,37.111903 2888.4375,39.78125 2887.5813,41.003628 2886.0805,42 2885.0938,42 2879.4297,42 2877.158,44.041904 2871.9375,53.8125 2869.1031,59.117213 2865.4107,65.429963 2863.75,67.84375 2860.789,72.147398 2860.6552,72.225855 2856.1562,71.71875 2852.7738,71.337486 2851.019,70.506636 2849.4688,68.5625 2846.8262,65.248453 2845.0079,65.870094 2841.4062,71.3125 2838.1358,76.254432 2837.7416,83.973445 2840.5938,87.125 2842.8795,89.650579 2844.0219,89.50675 2850.9688,86 2857.3842,82.761467 2859.8462,82.932242 2863.3125,86.78125 2865.598,89.319181 2870.5532,88.409627 2874.5,84.75 2877.7817,81.707001 2876.2643,80.21107 2872.7188,83 2869.4907,85.539222 2865.8054,85.547408 2863.5,83 2860.92,80.14908 2856.3069,80.482443 2849.8125,84 2843.6608,87.331872 2842.7526,87.036437 2841.6562,81.25 2840.9917,77.741798 2842.2269,73.531474 2844.6875,70.8125 2846.1314,69.216957 2846.3871,69.225831 2849.125,71.25 2851.2012,72.785028 2853.5485,73.439456 2857.2188,73.46875 2862.2097,73.508585 2862.4923,73.349412 2865.9375,68.8125 2867.8966,66.232696 2871.4907,60.157696 2873.9375,55.3125 2876.3843,50.467304 2878.8273,46.198084 2879.3438,45.84375 2879.8603,45.489417 2881.9958,44.929221 2884.0938,44.59375 2888.2934,43.922207 2893,38.991165 2893,35.25 2893,34.603026 2893.4326,33.76194 2894.125,32.875 L 2893.125,30.46875 z M 2882.4375,85.90625 C 2881.7892,84.857339 2873,90.592916 2873,92.0625 2873,93.482638 2873.4952,93.294173 2878.4688,89.9375 2880.9772,88.244545 2882.7527,86.416164 2882.4375,85.90625 z M 2817.9062,19.5 2814.1875,21.65625 C 2809.9695,24.098394 2809.3191,25.916094 2811.0625,30.125 2812.834,34.401712 2815.2825,35.408362 2819.0938,33.4375 2820.8119,32.549003 2822.5813,32.196946 2823,32.65625 2826.2489,36.219833 2829.8857,58.458012 2827.5938,60.75 2827.2007,61.143178 2825.1346,60.447274 2823,59.21875 2817.6796,56.156738 2815.8413,56.403863 2811,60.75 2808.7025,62.8125 2806.3071,64.5 2805.6875,64.5 2803.4214,64.5 2803.0409,56.216172 2804.9062,47.4375 2807.063,37.287678 2805.3942,36.191522 2802.8125,46.0625 2800.6316,54.401326 2800.5307,62.880444 2802.5625,65.78125 2803.4187,67.003628 2804.5315,68 2805.0312,68 2805.8224,68 2810.7661,64.075997 2814.8125,60.25 2816.6053,58.554766 2816.9922,58.627986 2821.2188,61.5 2828.2581,66.283356 2831,64.250185 2831,54.21875 2831,49.175212 2828.5837,39.209616 2825.5625,31.875 2825.0686,30.675697 2826.1188,29.406986 2829.5,27.125 2832.0375,25.412506 2834.5167,24 2835.0312,24 2835.5459,24 2837.1675,25.797468 2838.625,28 L 2841.2812,32 2839.6875,40.25 C 2837.3465,52.36323 2836.5409,62.612959 2837.875,63.4375 2838.4844,63.814111 2840.7828,62.656779 2843,60.875 L 2847.0312,57.625 2851.4062,61.90625 C 2853.9968,64.448672 2856.4815,66.048898 2857.5312,65.84375 2860.3216,65.29841 2865.4937,56.905343 2868.375,48.21875 2870.8984,40.611019 2870.9519,40.093268 2869.4375,36.46875 2867.5652,31.987771 2868.149,27.278953 2871,24.21875 2873.3571,21.6888 2873.5032,21 2871.5938,21 2869.6669,21 2866,27.114879 2866,30.34375 2866,31.783438 2866.5144,34.944095 2867.1562,37.34375 2868.2126,41.293415 2868.0693,42.34623 2865.5938,48.59375 2862.6019,56.144709 2858.5116,63 2857,63 2856.4711,63 2854.6267,61.425 2852.875,59.5 2849.47,55.758224 2846.6843,55.170053 2843.5625,57.53125 2842.4948,58.338759 2841.1795,59 2840.6562,59 2839.6025,59 2840.2804,50.555176 2842.1562,40.375 2843.4273,33.476392 2844.1404,32.987028 2849,35.5 2851.6678,36.879571 2852.1647,36.837283 2855.4375,34.90625 2858.1474,33.307393 2859,32.140757 2859,30.03125 2859,27.019454 2855.6208,22 2853.5938,22 2852.8989,22 2850.2318,23.649751 2847.6562,25.65625 2845.0808,27.662748 2842.8266,29.125248 2842.6562,28.90625 2842.4858,28.687251 2841.0972,26.8125 2839.5625,24.75 2838.0278,22.6875 2836.1394,21 2835.375,21 2834.6105,21 2832.1085,22.36803 2829.8125,24.03125 L 2825.625,27.0625 2821.7812,23.28125 2817.9062,19.5 z M 2878.9375,22 C 2878.5966,21.596078 2874.549,25.977693 2873.4062,28.1875 2871.9302,31.042062 2871.537,35.224631 2872.6562,36.34375 2874.4044,38.091893 2875.9158,36.891397 2875.375,34.1875 2875.0364,32.494511 2875.5212,29.797742 2876.5938,27.4375 2877.5762,25.275669 2878.5968,23.05 2878.8438,22.5 2878.9663,22.226842 2878.9862,22.057703 2878.9375,22 z M 2816.2188,23.1875 C 2817.1592,23.014085 2818.0773,23.618036 2819.75,25.3125 L 2822.5,28.125 2820.125,30.0625 C 2817.3111,32.376537 2815.6518,32.51527 2814.0312,30.5625 2812.4343,28.638416 2813.0894,24.979338 2815.25,23.625 2815.6013,23.404823 2815.9053,23.245305 2816.2188,23.1875 z M 2853.125,25.375 C 2854.29,25.486518 2855.2287,26.42569 2855.9375,28.21875 2856.6363,29.986578 2856.3942,30.888437 2854.8125,32.25 2852.5249,34.219069 2852.5304,34.224473 2848.75,32.84375 2845.2932,31.581219 2845.31,31.037911 2848.9375,27.5625 2850.5747,25.994006 2851.96,25.263482 2853.125,25.375 z M 2801.375,34.90625 C 2800.7462,35.063849 2798.9724,38.244244 2796.5625,44.34375 2792.0583,55.743884 2793.1622,72.098458 2798.6875,75.71875 2801.4499,77.528753 2804.9106,76.435502 2810.5312,71.96875 2815.3963,68.102561 2817.6035,68.936152 2818.9375,75.15625 2820.2796,81.414281 2820.2913,85.713854 2818.9688,86.53125 2818.4023,86.881333 2815.9502,85.980124 2813.5312,84.5625 2808.4851,81.605166 2805.7885,81.332187 2803.9375,83.5625 2801.8809,86.040473 2797.2948,88.060468 2795.3125,87.34375 2794.3152,86.983143 2792.2317,85.789252 2790.6875,84.71875 2789.1434,83.648249 2787.5913,83.096134 2787.2188,83.46875 2786.4799,84.207498 2790.3028,87.579959 2793.5,89 2796.773,90.453719 2798.0887,90.146929 2803.1875,86.875 L 2808.0312,83.75 2811.7812,86.21875 C 2816.4343,89.275955 2819.6478,90.144845 2820.8438,88.65625 2823.6204,85.199991 2822.6634,72.480711 2819.3438,68.8125 2816.9551,66.173194 2814.6058,66.557872 2808.875,70.5 2802.3359,74.998097 2800.5676,74.956159 2798.3125,70.25 2795.5295,64.442103 2795.9615,53.397243 2799.375,43.65625 2801.4862,37.631594 2802.0038,34.748651 2801.375,34.90625 z M 2783.7812,86.75 C 2783.3441,87.183257 2784.0531,88.985317 2786.25,91.84375 2789.1672,95.639467 2792,97.26255 2792,95.125 2792,94.645735 2790.2925,92.309493 2788.1875,89.9375 2785.8099,87.258216 2784.2184,86.316743 2783.7812,86.75 z M 2885.5625,89.34375 C 2885.2249,89.416699 2884.6497,89.854314 2883.75,90.65625 2882.5125,91.759296 2879.7644,93.655358 2877.625,94.875 2872.9825,97.521666 2870.1856,97.137716 2863.5625,92.9375 2861.0091,91.318173 2858.1622,90.017172 2857.2188,90.03125 2856.2754,90.045328 2853.0864,91.581892 2850.125,93.46875 2844.2224,97.229673 2843.4666,97.157634 2836.8438,91.875 L 2834.1875,89.75 2828.5625,93.78125 C 2822.3446,98.233806 2821.1993,98.257432 2813.5,94.125 2807.9886,91.166897 2806.4279,91.418813 2799.7188,96.125 2792.6755,101.06551 2789.5279,100.89494 2783.875,95.375 2781.8281,93.376271 2779.9419,92.249266 2779.5938,92.8125 2778.6991,94.260034 2783.8514,100.03172 2787.4375,101.59375 2789.1148,102.32433 2791.0718,102.94722 2791.7812,102.96875 2793.7918,103.02976 2800.2954,99.427752 2802.4062,97.09375 2804.8712,94.368218 2806.7481,94.459746 2812.6562,97.5 2820.9697,101.77804 2822.8428,101.72019 2829,97.09375 2834.3637,93.063605 2834.4084,93.037252 2836.4375,94.9375 2839.2449,97.566614 2843.8456,99.189207 2846.3125,98.40625 2847.4394,98.048588 2850.1179,96.473325 2852.2812,94.90625 2856.5195,91.8361 2857.0991,91.88755 2863.2812,96.21875 2864.8095,97.289463 2867.6006,98.600547 2869.5,99.125 2872.4355,99.935546 2873.666,99.682874 2877.7188,97.4375 2883.6889,94.129787 2886,92.099665 2886,90.15625 2886,89.548731 2885.9001,89.270801 2885.5625,89.34375 z"/>
</svg>
