<?xml version="1.0" encoding="UTF-8"?>
<svg xmlns="http://www.w3.org/2000/svg" viewBox="4777.96 16.72 23.2 85.16">
  <path d="M 4790.512,94.75 C 4782.0311,89.198598 4781.9714,85.193059 4790.1997,73.798705 4791.2512,72.342702 4790.7486,71.427327 4786.7142,67.449838 4784.1214,64.893674 4782,62.144819 4782,61.341273 4782,60.537726 4784.24,57.511799 4786.9778,54.616991 L 4791.9556,49.353703 4787.5072,46.218204 C 4779.9594,40.898028 4780.1825,35.866427 4788.3395,27.444781 4793.6969,21.91358 4796.8671,20.58632 4797.1645,23.75 4797.255,24.7125 4797.4097,31.575 4797.5083,39 4797.6069,46.425 4798.0244,61.789336 4798.4362,73.142969 4799.1557,92.979009 4798.7046,98 4796.2034,98 4795.8039,98 4793.2428,96.5375 4790.512,94.75 z M 4794.5986,36 C 4794.6477,30.5 4794.3958,26 4794.0388,26 4793.6818,26 4791.238,28.245256 4788.608,30.989457 4784.3177,35.466176 4783.9202,36.2626 4784.7402,38.739457 4785.6195,41.395263 4791.1133,46 4793.4025,46 4794.1318,46 4794.5398,42.589375 4794.5986,36 z M 4795,60 C 4795,54 4794.6,50 4794,50 4793.45,50 4793,50.432611 4793,50.961357 4793,51.490104 4791.2,53.704815 4789,55.882938 4786.8,58.061061 4785,60.293437 4785,60.843775 4785,61.653458 4793.8628,69.970631 4794.75,69.993544 4794.8875,69.997095 4795,65.5 4795,60 z M 4796,84.559017 C 4796,79.587472 4795.5556,75.843366 4794.9187,75.449778 4793.3235,74.46384 4788.1991,79.816925 4787.4431,83.259145 4786.6739,86.76122 4788.3183,90.355588 4791.3646,91.83062 4795.6941,93.92705 4796,93.447155 4796,84.559017 z"/>
</svg>
