<?xml version="1.0" encoding="UTF-8"?>
<svg xmlns="http://www.w3.org/2000/svg" viewBox="3706.53 16.95 17.47 87.01">
  <path d="M 3709.4068,68.75 C 3709.4581,51.5625 3709.275,33.9 3709,29.5 3708.5264,21.921663 3708.6119,21.484028 3710.624,21.196965 3712.6885,20.90241 3716.4528,24.837216 3719.75,30.736431 3721.8293,34.456659 3721.2854,39.872062 3718.5,43.182369 3715.2677,47.023697 3715.3497,48.905109 3719,54.661052 3720.65,57.262832 3722,59.909323 3722,60.542143 3722,62.230529 3718.9796,68 3718.0957,68 3717.679,68 3716.735,69.126628 3715.9981,70.503617 3714.8129,72.71813 3714.8913,73.266636 3716.6769,75.253617 3719.6617,78.574986 3721.9076,85.097446 3720.9463,87.652764 3719.4024,91.756512 3712.804,100 3711.063,100 3709.4325,100 3709.32,97.876572 3709.4068,68.75 z M 3715.4244,43.298078 C 3720.1898,38.158869 3719.6586,33.564339 3713.4825,26.5 L 3710.8597,23.5 3711.4299,26.875 C 3711.7434,28.73125 3712,33.79375 3712,38.125 3712,42.45625 3712.2068,46 3712.4595,46 3712.7123,46 3714.0465,44.784135 3715.4244,43.298078 z M 3716.4491,65.655609 C 3717.8521,63.816194 3719,61.987867 3719,61.59266 3719,60.090013 3713.6365,50 3712.8377,50 3712.377,50 3712,54.275 3712,59.5 3712,64.827073 3712.4169,69 3712.9491,69 3713.4711,69 3715.0461,67.495024 3716.4491,65.655609 z M 3717.435,88.490929 C 3719.2037,85.206487 3719.1944,85.081341 3716.8667,80.899177 3712.8361,73.657367 3711.9973,74.569432 3712.0222,86.166667 3712.0441,96.310704 3712.0774,96.457229 3713.8405,94.165211 3714.8283,92.881076 3716.4458,90.32765 3717.435,88.490929 z"/>
</svg>
