<?xml version="1.0" encoding="UTF-8"?>
<svg xmlns="http://www.w3.org/2000/svg" viewBox="894.13 54.87 38.23 54.43">
  <path d="M 916.25,57.34375 914.125,59.21875 C 914.44028,60.229926 914.82839,61.227591 915.375,62.21875 917.64403,66.333108 917.68849,66.979175 916.90625,78.5 915.45668,99.849415 915.47197,101 916.90625,101 918.01236,101 919.4031,86.863656 919.1875,77.8125 919.09748,74.032933 919.46931,70.835362 920.0625,70.46875 920.64057,70.111484 922.4452,70.361342 924.0625,71.03125 928.45685,72.85145 930.35935,70.870873 929.71875,65.1875 929.01978,58.986204 927.95045,58.332882 923.09375,61.0625 920.85201,62.322428 918.89365,63.172819 918.75,62.9375 917.48739,60.869195 916.74292,58.982993 916.25,57.34375 z M 926.375,62.1875 C 926.93947,62.370169 927,63.34787 927,65.5 927,68.910835 926.18978,69.529978 923.25,68.34375 921.33161,67.569664 921.76949,64.191532 923.9375,63.03125 924.65175,62.648995 925.20367,62.389503 925.625,62.25 925.941,62.145373 926.18684,62.12661 926.375,62.1875 z M 898.40625,73 896.125,75 C 896.73763,76.58218 897,80.214692 897,87.53125 897,94.293923 897.27697,100.59305 897.625,101.5 899.66742,106.82246 900.74689,94.242439 899.5,79.5 899.36045,77.85 899.18983,75.549735 899.125,74.40625 899.09808,73.931496 898.81853,73.482136 898.40625,73 z M 909.25,70 C 908.65592,70 907.95866,74.891281 907.5625,81.75 907.18922,88.2125 906.64762,94.9625 906.34375,96.75 905.82929,99.776237 907.09996,101.26987 908.40625,99.15625 909.49146,97.400331 910.28412,70 909.25,70 z"/>
</svg>
