<?xml version="1.0" encoding="UTF-8"?>
<svg xmlns="http://www.w3.org/2000/svg" viewBox="2891.13 19.02 33.54 84.84">
  <path d="M 2893.125,30.46875 2894.125,32.875 C 2896.2022,30.21418 2900.744,27.007454 2903.9062,26.375 2906.7408,25.808074 2907.1268,26.05715 2908.5,29.34375 2909.4285,31.565972 2910,36.111571 2910,41.28125 2910,48.990823 2909.8021,49.826216 2907.4062,52.0625 2901.1053,57.94376 2898.1319,69.705755 2901.0312,77.34375 L 2902.75,81.875 2899.875,87.5625 C 2896.5504,94.153567 2896.3827,95.644059 2898.6562,98.15625 2899.5665,99.162058 2900.4084,100 2900.5312,100 2900.6541,100 2902.6662,97.525 2905,94.5 2907.3338,91.475 2909.6337,89 2910.0938,89 2910.5537,89 2912.112,91.025 2913.5625,93.5 2916.4968,98.50705 2917.0226,98.770761 2919.1875,96.25 2921.7218,93.299193 2922.0326,91.13905 2920.5,86.625 2919.195,82.781027 2919.1761,81.935271 2920.5312,79.21875 2922.6487,74.9744 2922.6615,64.488582 2920.5312,59.25 2919.5836,56.919502 2917.3101,53.714268 2915.5,52.125 2912.8284,49.779332 2912.2297,48.5191 2912.25,45.375 2912.3383,31.671438 2912.0509,30.114631 2909.1562,26.875 2905.5801,22.872452 2904.1881,23.167018 2893.1562,30.46875 2893.148,30.474184 2893.1332,30.46332 2893.125,30.46875 z M 2910.625,52.34375 C 2911.3198,52.168148 2912.0094,52.594451 2913.3438,53.46875 2914.824,54.438654 2916.3146,56.357441 2916.6562,57.71875 2917.1312,59.61084 2916.5788,60.86275 2914.375,63.0625 L 2911.5,65.9375 2908.25,63.40625 C 2904.2708,60.286742 2904.1944,58.924273 2907.8125,54.875 2909.2108,53.310037 2909.9302,52.519352 2910.625,52.34375 z M 2918.5,62.53125 C 2919.0541,62.328805 2919.3044,62.652307 2919.5938,63.40625 2919.9588,64.357554 2920.0104,68.086225 2919.7188,71.71875 2919.2915,77.04044 2918.7591,78.657188 2916.9375,80.03125 L 2914.6875,81.75 2916.8438,85.25 C 2919.1015,88.903259 2919.6514,92.474827 2918.0938,93.4375 2917.5907,93.748386 2916.2206,92.467604 2915.0625,90.59375 2913.9044,88.719896 2912.2229,86.911852 2911.3125,86.5625 2910.1914,86.132324 2908.2871,87.265819 2905.4375,90.0625 2902.8129,92.638395 2900.9867,93.780136 2900.5625,93.09375 2899.8436,91.930549 2902.465,87.687146 2905.75,84.71875 2907.6941,82.962028 2907.6766,82.920349 2905.3438,78.3125 2902.9731,73.629737 2902.0854,64.668547 2903.875,63.5625 2904.3558,63.265345 2905.965,64.166554 2907.4375,65.53125 2910.8916,68.732431 2911.7211,68.657872 2915.6562,64.84375 2917.0797,63.464073 2917.9459,62.733695 2918.5,62.53125 z"/>
</svg>
