<?xml version="1.0" encoding="UTF-8"?>
<svg xmlns="http://www.w3.org/2000/svg" viewBox="2641.69 43.8 18.35 60.55">
  <path d="M 2653.7888,97.151719 C 2654.7601,96.535446 2654.8217,95.661159 2654.0388,93.601932 2652.7874,90.310671 2652.7458,70.413057 2653.9684,60 2654.8918,52.136258 2654.7491,51.600095 2651.4709,50.615118 2649.6277,50.061314 2649.3358,50.669552 2648.2848,57.252723 2647.6485,61.238726 2647.2116,70.820608 2647.3139,78.545796 2647.4669,90.09386 2647.8153,93.072474 2649.2731,95.295796 2651.1688,98.187075 2651.7684,98.433529 2653.7888,97.151719 z M 2648.5785,100.25 C 2647.0044,98.686033 2645.1363,92.938704 2644.4708,87.612803 2643.6862,81.333104 2645.7485,51.41188 2647.1494,48.75 2648.2898,46.583011 2649.7887,46.549005 2653.8939,48.59698 L 2657.0952,50.193959 2656.2976,61.34698 C 2655.2374,76.171973 2655.5192,89.808297 2656.9619,93.490853 2658.0378,96.237164 2657.9033,96.666014 2655.3168,98.735886 2652.4469,101.03256 2649.9343,101.59714 2648.5785,100.25 z"/>
</svg>
