<?xml version="1.0" encoding="UTF-8"?>
<svg xmlns="http://www.w3.org/2000/svg" viewBox="1617.79 13.6 42.18 93.81">
  <path d="M 1629.675,99.387817 C 1627.5712,97.318888 1624.9774,93.915787 1623.9109,91.82537 1619.7864,83.740627 1620.4856,70.526145 1625.5274,61.27652 1627.7328,57.230509 1627.7568,56.957383 1626.0973,54.77652 1622.704,50.316963 1621.7237,46.206256 1622.2178,38.507656 1622.8165,29.179519 1625.7818,24.150853 1632.7546,20.639074 1638.2615,17.865557 1642.8603,18.105108 1647.3439,21.399026 1650.7707,23.916609 1655,31.835671 1655,35.734622 1655,39.00715 1650.3886,46.293834 1648.6744,45.729977 1648.0285,45.517503 1647.3632,43.249828 1647.196,40.690697 1646.744,33.773935 1641.9468,31.023088 1636.5281,34.573531 1631.4881,37.875903 1632.5021,47.72181 1638.6182,54.867103 1640.4782,57.040057 1642,59.224704 1642,59.721873 1642,60.219043 1640.6957,61.87541 1639.1016,63.402689 1630.7651,71.389561 1631.4214,88 1640.0734,88 1643.5513,88 1647,82.867208 1647,77.690983 1647,73.198769 1648.1583,72.438074 1650.67,75.28082 1657.9706,83.543609 1657.7616,92.252901 1650.0896,99.469205 1647.3565,102.04002 1646.0318,102.48612 1640.2165,102.79396 1633.6068,103.14385 1633.4392,103.08969 1629.675,99.387817 z M 1646.7406,98.637106 C 1648.5229,97.713807 1650.7697,95.754868 1651.7335,94.28391 1653.8287,91.086369 1653.8172,83.388597 1651.7142,81.285579 1650.4775,80.048953 1649.9502,80.502638 1647.7695,84.679055 1643.8972,92.095474 1637.3818,93.097194 1632.826,86.976551 1628.6131,81.31637 1629.5769,72.801621 1635.4123,64.130327 1638.6854,59.266496 1638.7304,59.066033 1636.9184,57.426137 1633.5938,54.417399 1631,47.679752 1631,42.052353 1631,37.225708 1631.3378,36.417583 1634.6681,33.276696 1637.7203,30.398107 1638.8449,29.918977 1641.3658,30.423164 1646.191,31.388195 1648.8489,33.67757 1649.5629,37.483682 1650.3799,41.838413 1652,41.097427 1652,36.369053 1652,31.985247 1647.8386,24.703141 1644.4516,23.159922 1640.9562,21.567283 1635.4698,21.705693 1632.0528,23.472721 1625.3279,26.950258 1622.1428,42.237243 1626.5505,49.880587 1627.6227,51.739909 1629.0455,54.2107 1629.7122,55.371233 1630.6916,57.076114 1630.6382,57.867133 1629.434,59.490646 1626.1206,63.957922 1624.5986,68.851406 1624.1996,76.320142 1623.6978,85.713002 1625.4706,91.270649 1630.6071,96.407064 1635.3968,101.19682 1640.4508,101.8954 1646.7406,98.637106 z"/>
</svg>
