<?xml version="1.0" encoding="UTF-8"?>
<svg xmlns="http://www.w3.org/2000/svg" viewBox="3014 14.94 28.55 89.55">
  <path d="M 3021.1082,94.407331 C 3018.2987,91.881363 3016,89.142413 3016,88.320777 3016,87.49914 3018.7,84.015123 3022,80.578515 3025.3,77.141908 3027.9879,73.693357 3027.9731,72.915069 3027.9583,72.136781 3026.1148,70.375 3023.8764,69 3019.318,66.199838 3016.5844,61.884775 3017.5138,58.956494 3017.8531,57.887542 3020.3513,54.910481 3023.0653,52.340802 3025.7794,49.771124 3028,46.875873 3028,45.90691 3028,44.042671 3023.5652,40 3021.5201,40 3019.1987,40 3017,36.345768 3017,32.487421 3017,29.170894 3017.6981,27.95949 3021.9967,23.816162 3024.7449,21.167273 3027.3324,19.014312 3027.7467,19.031803 3028.8977,19.080397 3031.1283,21.078409 3035.25,25.752881 3040.5464,31.759509 3040.3782,35.07674 3034.5,40.550822 3032.025,42.85565 3030,45.514491 3030,46.459358 3030,47.404224 3032.025,50.492176 3034.5,53.321473 3037.5989,56.86394 3039,59.361564 3039,61.343043 3039,63.429387 3037.7629,65.440073 3034.5,68.656778 3032.025,71.096765 3030,73.616448 3030,74.256073 3030,74.895698 3032.0792,77.327983 3034.6205,79.66115 3040.0539,84.649528 3040.0282,86.172251 3034.3778,94.0372 3029.8325,100.36397 3027.7965,100.42076 3021.1082,94.407331 z M 3027.7969,85.924423 3027.5,78.542646 3023.25,82.387685 C 3020.9125,84.502457 3019.0164,86.967862 3019.0364,87.866362 3019.0829,89.948783 3026.0731,95.326893 3027.2298,94.170171 3027.705,93.694987 3027.9602,89.984401 3027.7969,85.924423 z M 3027.3086,31.75 C 3027.0392,27.7625 3026.613,24.290916 3026.3615,24.03537 3025.5181,23.178597 3022.5169,25.682253 3020.7287,28.734438 3018.5839,32.395125 3019.7119,36.547891 3023.2355,37.963457 3027.6125,39.721901 3027.8252,39.397312 3027.3086,31.75 z M 3028,61.581787 C 3028,58.601771 3028.2203,55.564271 3028.4895,54.831787 3028.7587,54.099304 3028.5793,52.872129 3028.0907,52.104732 3027.3798,50.988134 3026.5497,51.319442 3023.9345,53.763554 3019.8508,57.580138 3019.5172,61.95255 3023.0833,64.92148 3027.0557,68.228682 3028,67.587283 3028,61.581787 z M 3034.2671,38.25 C 3037.6071,34.543797 3037.4371,31.447617 3033.6679,27.334722 3031.7385,25.229352 3029.9768,23.730252 3029.7529,24.003389 3029.5291,24.276525 3029.5423,27.9875 3029.7823,32.25 3030.2386,40.354873 3031.205,41.647831 3034.2671,38.25 z M 3033.9274,91.365141 C 3036.4253,88.18954 3036.595,84.314963 3034.345,81.828741 3031.3767,78.548764 3030.5066,79.677792 3030.3586,87.001396 3030.2808,90.850628 3030.5857,94 3031.036,94 3031.4864,94 3032.7875,92.814314 3033.9274,91.365141 z M 3034.6855,65.825686 C 3035.9585,64.629813 3037,62.665792 3037,61.461195 3037,59.021045 3031.5896,52.220091 3030.757,53.613607 3030.342,54.308089 3030.4667,66.672729 3030.8996,67.75 3031.1956,68.48696 3032.6273,67.75927 3034.6855,65.825686 z"/>
</svg>
