<?xml version="1.0" encoding="UTF-8"?>
<svg xmlns="http://www.w3.org/2000/svg" viewBox="1405.99 17.98 25.39 88.48">
  <path d="M 1408.0056,100.25 C 1408.0086,99.8375 1408.4327,97.925 1408.948,96 1411.5439,86.301601 1414.4601,32.171432 1412.5528,29.085482 1411.796,27.860885 1414.0117,22 1415.2315,22 1416.4575,22 1422.8792,35.520658 1424.1084,40.689864 1424.7879,43.547565 1425.1818,52.846214 1425.0788,63.598575 1424.9386,78.243349 1425.2189,82.537085 1426.5477,86.098575 1428.9691,92.588145 1429.3804,95.836732 1427.9924,97.509159 1426.3147,99.530669 1425.64,99.409385 1422.1291,96.455203 L 1419.1048,93.910405 1417.4864,96.38038 C 1415.5397,99.351464 1407.9893,102.43315 1408.0056,100.25 z M 1416.2035,93.993677 C 1418.1333,90.602256 1419.5601,90.303154 1422.8422,92.601999 1424.1001,93.483098 1425.3519,93.98146 1425.6239,93.709469 1425.8959,93.437478 1425.175,90.354078 1424.022,86.85747 1422.1714,81.245184 1421.9514,78.448757 1422.1448,63 1422.3698,45.034742 1421.4293,38.727394 1417.5227,32 1416.1884,29.702381 1416.0668,30.390476 1416.0206,40.5 1415.9566,54.502632 1413.9407,84.442603 1412.4351,93.75 1411.7533,97.964713 1413.8661,98.101334 1416.2035,93.993677 z"/>
</svg>
