<?xml version="1.0" encoding="UTF-8"?>
<svg xmlns="http://www.w3.org/2000/svg" viewBox="3976.54 18.74 31.41 86.16">
  <path d="M 3983,100.47768 C 3983,100.09873 3983.6288,97.248734 3984.3973,94.144345 3988.0806,79.265125 3987.0257,54.668881 3981.9036,36 3978.5412,23.745028 3978.5801,24.268036 3980.9739,23.508284 3983.6574,22.656586 3986.4008,24.955872 3989.3163,30.5 3992.5323,36.615701 3993.9684,41.132829 3993.9849,45.1849 3993.9932,47.211596 3994.4962,50.136596 3995.1028,51.6849 3995.7093,53.233205 3996.5687,60.866428 3997.0126,68.647619 3997.8503,83.331708 3998.2025,84.534775 4003.6204,91.223653 4005.9508,94.100758 4005.85,97.049711 4003.3501,99.124387 4002.2104,100.07029 4001.2726,99.838304 3998.7767,97.99303 3995.7452,95.751776 3995.5352,95.730202 3992.6831,97.367108 3989.1163,99.414131 3988.0131,98.747992 3990.4713,96.03166 3993.2538,92.957112 3995.7094,92.626255 3998.6396,94.93112 4004.1139,99.237267 4004.6946,95.797642 3999.5148,89.746239 3995.5385,85.100895 3995.287,83.953855 3994.6077,67.372265 3994.0943,54.837656 3992.2617,45.328247 3988.6109,36.252787 3986.5087,31.0273 3981.107,23.287711 3982.5019,27.5 3983.3044,29.923035 3986.6267,44.415798 3988.1184,52 3989.4582,58.812009 3988.5603,87.297393 3986.7655,94.918425 3986.0637,97.898558 3984.9293,100.52356 3984.2447,100.75176 3983.5601,100.97996 3983,100.85662 3983,100.47768 z"/>
</svg>
