<?xml version="1.0" encoding="UTF-8"?>
<svg xmlns="http://www.w3.org/2000/svg" viewBox="4442.66 18.31 42.12 59.09">
  <path d="M 4463,54.25 4465.1562,54.3125 C 4465.1965,51.672243 4465.2869,48.77148 4465.1562,47.1875 L 4464.7812,42.875 4461,43.5 C 4458.5696,43.910615 4456.9573,43.73995 4456.5,43 4455.6241,41.58277 4462.1541,28.081399 4464.9375,25.5625 4466.9023,23.784354 4467.007,23.802845 4468.9375,26.125 4471.6873,29.432608 4476.0827,38.830166 4476.7188,42.75 4477.2191,45.833143 4477.0959,46 4474.1875,46 4472.498,46 4470.8211,46.460924 4470.4688,47.03125 4470.1525,47.542963 4470.1868,50.801038 4470.4688,54.4375 L 4473.0938,54.53125 C 4473.0738,54.082118 4473,53.688193 4473,53.21875 L 4473,48.75 4476.4688,49.3125 C 4480.8186,50.018381 4481.4154,49.109968 4479.875,43.96875 4478.8261,40.467637 4478.8747,39.465269 4480.3125,37.03125 4481.9662,34.231757 4482.7799,22 4481.3125,22 4480.9401,22 4479.3654,23.4625 4477.8125,25.25 L 4475,28.5 4471.6562,24.75 C 4469.8108,22.6875 4467.7887,21 4467.1875,21 4466.5863,21 4464.8645,22.631274 4463.3438,24.625 L 4460.5625,28.25 4457.9688,25.125 C 4456.5339,23.406274 4454.8174,22 4454.1562,22 4450.9778,22 4450.6688,30.950944 4453.6875,35.625 4454.7078,37.204657 4454.798,38.420878 4454.0312,40.4375 4452.1482,45.390266 4452.5838,46 4458,46 L 4463,46 4463,54 C 4463,54.108863 4463.0001,54.14361 4463,54.25 z M 4454.25,25.4375 C 4454.504,25.160882 4455.0159,25.609385 4456,26.5 4457.1,27.495486 4458,29.331587 4458,30.5625 4458,32.735084 4455.8018,34.458048 4454.5938,33.25 4454.265,32.921229 4454,30.881076 4454,28.6875 4454,26.725011 4453.996,25.714118 4454.25,25.4375 z M 4479.6562,26.59375 C 4479.9325,26.853825 4480,27.553241 4480,28.875 4480,30.499368 4479.7401,32.536266 4479.4062,33.40625 4479.0724,34.276233 4478.4323,35 4478,35 4477.5677,35 4476.9276,34.276233 4476.5938,33.40625 4475.461,30.454387 4475.9935,28.073832 4478,27 4478.8951,26.520969 4479.38,26.333675 4479.6562,26.59375 z M 4474.3438,61.125 C 4473.6347,59.300119 4473.2073,57.083894 4473.0938,54.53125 L 4470.4688,54.4375 C 4470.501,54.854022 4470.4914,55.167915 4470.5312,55.59375 4470.8585,59.085753 4471.3413,61.217895 4472,62.9375 L 4474.3438,61.125 z M 4460.7812,72.25 4460.7812,72.0625 4454.125,68.4375 C 4449.0402,65.657673 4446.52,63.949738 4445.2188,62.4375 L 4445.3438,64.65625 4445.75,66.5 C 4446.0434,66.660458 4446.3217,66.67611 4446.5625,66.90625 4447.085,67.405578 4449.75,69.053542 4452.5,70.5625 4455.25,72.071457 4457.8459,73.802035 4458.25,74.40625 4458.2735,74.441394 4458.2894,74.665111 4458.3125,74.71875 L 4460.7812,72.25 z M 4444.6562,52.65625 4445,58.53125 C 4446.0809,58.342281 4448.1746,59.100092 4452.25,61.15625 4454.3107,62.195959 4457.9817,63.323936 4460.4062,63.65625 L 4464.8125,64.25 4465.1562,57.875 C 4465.2195,56.706635 4465.1361,55.632629 4465.1562,54.3125 L 4463,54.25 C 4462.9935,63.357435 4462.6593,63.488352 4453.5,59.125 4448.3865,56.689015 4446.033,55.146663 4444.9688,52.6875 L 4444.6562,52.65625 z"/>
</svg>
