<?xml version="1.0" encoding="UTF-8"?>
<svg xmlns="http://www.w3.org/2000/svg" viewBox="3132 14.74 29.88 90.23">
  <path d="M 3142.4504,98.593404 C 3139.1039,97.135728 3134,91.636511 3134,89.488374 3134,86.157285 3136.2808,82.829153 3140.9551,79.339425 3143.7298,77.267941 3146,75.061409 3146,74.436021 3146,73.810633 3143.7961,71.928954 3141.1025,70.254514 3137.3501,67.921866 3136.0335,66.42918 3135.4715,63.870062 3134.7818,60.730192 3135.0753,60.228253 3140.3689,55.493676 3143.466,52.723671 3146,49.650549 3146,48.664516 3146,47.678482 3143.7794,44.763089 3141.0653,42.185864 3134.8339,36.2686 3134.2606,34.30747 3137.479,29.918514 3138.8578,28.038331 3140.9335,25.0375 3142.0917,23.25 3144.9477,18.84225 3147.5602,19.097181 3153.2718,24.340962 3156.8351,27.612433 3157.9991,29.39863 3157.9963,31.590962 3157.992,34.91063 3154.9437,40.55477 3151.5645,43.5 3150.3024,44.6 3148.9818,46.712535 3148.6298,48.194522 3148.1091,50.386724 3148.5966,51.457791 3151.2449,53.939894 3153.0352,55.617862 3154.8271,56.992827 3155.2269,56.995373 3155.6268,56.997918 3156.6928,58.127655 3157.5958,59.505901 3159.8771,62.987635 3158.1333,66.847093 3152.4273,70.944854 3149.848,72.797164 3148,74.920912 3148,76.032823 3148,77.082526 3150.0174,80.092065 3152.4831,82.720687 3157.9542,88.55342 3158.2571,91.498656 3153.8964,96.465204 3150.4946,100.33962 3147.6666,100.86544 3142.4504,98.593404 z M 3145,86.877555 C 3145,81.657599 3144.6634,80 3143.6036,80 3141.8737,80 3136,86.553887 3136,88.48411 3136,89.262095 3137.4442,91.248355 3139.2093,92.89802 3143.658,97.055617 3145,95.660321 3145,86.877555 z M 3146,33.666667 C 3146,29.083333 3145.7215,25.054815 3145.3811,24.714403 3144.6226,23.955949 3138,31.724015 3138,33.372107 3138,35.808726 3143.1603,42 3145.1911,42 3145.636,42 3146,38.25 3146,33.666667 z M 3146,62 C 3146,55.74891 3145.7933,55 3144.0681,55 3142.0501,55 3137.9768,59.827734 3138.0318,62.15437 3138.089,64.573641 3142.6325,68.863463 3145.25,68.969591 3145.6625,68.986316 3146,65.85 3146,62 z M 3153.4487,93.769757 C 3154.3019,92.551634 3155,90.762215 3155,89.79327 3155,87.557357 3149.4286,81.238102 3148.3809,82.285748 3147.0135,83.653164 3146.0845,96.42631 3147.2977,97.180225 3148.7356,98.073838 3151.5124,96.534233 3153.4487,93.769757 z M 3152.7788,38.98231 C 3156.3464,33.716449 3156.5984,31.267506 3153.8723,28.352815 3148.4509,22.556228 3148,22.955115 3148,33.54815 3148,44.150548 3148.7215,44.970952 3152.7788,38.98231 z M 3156.2762,64.29316 C 3157.292,62.063799 3157.0268,61.521929 3153.4485,58.514761 3151.2768,56.689671 3149.1625,55.403779 3148.75,55.657224 3147.8403,56.216161 3147.7386,69.405311 3148.6371,70.303788 3149.6243,71.290927 3155.0234,67.042734 3156.2762,64.29316 z"/>
</svg>
