<?xml version="1.0" encoding="UTF-8"?>
<svg xmlns="http://www.w3.org/2000/svg" viewBox="312.96 17.54 59.29 88.15">
  <path d="M 315.65625,53.40625 317.34375,55.34375 320.40625,61.46875 C 321.12387,61.439669 321.84362,61.6408 322.9375,62.125 328.04689,64.386635 328.52208,72.186488 323.96875,78.90625 322.32695,81.329216 320.51757,85.064525 319.9375,87.21875 317.44018,96.493062 321.08319,101.68257 324.875,94.25 327.76177,88.591459 332.6524,83.666607 334.75,84.3125 341.03403,86.24749 348.04828,90.005525 350.5625,92.8125 354.90455,97.660141 364.81742,99.354108 367.1875,95.65625 367.56131,95.073024 366.09881,92.40199 363.9375,89.6875 359.59249,84.230394 358.94715,80.44797 361.40625,74.5625 362.18445,72.700024 362.6187,70.931199 362.34375,70.65625 361.14589,69.45839 356.30628,72.304779 354.125,75.5 352.8166,77.416583 351.37441,79 350.9375,79 349.08762,79 343.98555,73.628734 342.0625,69.65625 339.32225,63.99566 339.44745,60.470055 342.59375,54.15625 345.61635,48.09068 350.34839,44.79781 352.34375,47.34375 353.82538,49.234214 360.95747,53 363.0625,53 364.43135,53 364.66984,51.568862 364.59375,43.25 364.51763,34.926902 364.84817,32.827245 366.84375,28.8125 369.5572,23.353526 369.00416,21.542918 364.84375,22.375 360.81139,23.181472 355.97908,27.087329 353,31.96875 351.36683,34.644806 348.59297,37.153028 345,39.15625 341.975,40.842806 337.83041,43.815915 335.78125,45.78125 L 332.0625,49.34375 329.53125,43.65625 C 328.14291,40.51697 327,36.153067 327,33.96875 327,28.621139 324.45387,28.648341 319.5625,34.0625 315.97101,38.037856 315.88624,38.330787 316.09375,45.4375 316.20146,49.126498 315.99195,52.380257 315.65625,53.40625 z M 364.5,24.4375 C 365.31207,24.571011 364.82993,26.21042 362.9375,31.59375 361.38263,36.016811 360.99686,38.921772 361.40625,43.125 361.70694,46.212143 361.67476,48.981493 361.34375,49.3125 360.45768,50.198578 356.79291,48.104215 354.5,45.375 352.58537,43.09605 352.37194,43.05439 349.5,44.5625 337.76085,50.726943 334.4739,64.798951 342.5,74.59375 347.37497,80.54301 354,84.015751 354,80.625 354,79.860931 354.92213,78.173431 356.0625,76.875 L 358.15625,74.5 357.59375,77.6875 C 356.94814,81.52455 358.47581,86.376737 361.65625,90.59375 362.93982,92.295665 364,93.983165 364,94.34375 364,94.704335 362.7625,95.002056 361.25,95 357.91965,94.995473 352.52911,91.861276 351.03125,89.0625 350.43027,87.939563 348.71537,86.734539 347.21875,86.375 342.30655,85.194926 337.43254,82.197784 333.78125,78.15625 330.71665,74.764098 330.08946,73.254242 329.5,67.75 328.7489,60.736275 329.22694,59.209154 335.0625,50.5625 338.34516,45.698523 344.96466,40.544425 349.375,39.4375 351.11492,39.000808 352.75064,37.450179 353.96875,35.0625 356.1638,30.759831 360.73763,25.662305 363.25,24.71875 363.80551,24.510119 364.22931,24.392996 364.5,24.4375 z M 323.25,33.0625 C 323.42568,33.306944 324.63643,36.65 325.90625,40.5 327.17608,44.35 328.70409,48.74752 329.3125,50.28125 330.21492,52.556171 330.08321,53.707463 328.5625,56.53125 327.53725,58.43502 326.15315,60 325.5,60 322.07757,60 318.86464,52.002148 318.65625,42.9375 318.54385,38.048043 318.93035,36.632145 320.75,34.8125 321.96333,33.59917 323.07431,32.818055 323.25,33.0625 z M 327.46875,77.65625 C 328.3333,77.324491 329.40908,77.864614 330,78.96875 331.45969,81.696219 331.25075,83.349411 329.25,85.0625 328.28361,85.889956 326.25251,88.123973 324.75,90.03125 L 322.03125,93.5 322,90.375 C 321.98627,86.509186 325.46239,78.42616 327.46875,77.65625 z"/>
</svg>
