<?xml version="1.0" encoding="UTF-8"?>
<svg xmlns="http://www.w3.org/2000/svg" viewBox="2309.91 17.24 28.79 79.01">
  <path d="M 2315.75,89.875 C 2316.0352,90.09696 2316.5887,90.355303 2316.6562,90.53125 2317.4695,92.650372 2320.7542,92.327774 2322,90 2323.0489,88.040172 2326,87.188228 2326,88.84375 2326,89.934693 2330.5651,92 2332.9688,92 2336.7008,92 2335.9303,86.34955 2331.0625,78.09375 2325.2555,68.245054 2322.5934,51.688487 2323.6875,32.15625 2324.2807,21.568027 2324.1808,20.826291 2322.5,21.15625 2321.5087,21.350849 2319.8661,22.625 2318.8438,24 2316.3252,27.386956 2313,39.444565 2313,45.15625 2313,47.7639 2312.8029,48.930673 2311.9062,49.96875 L 2312,50.65625 2312.125,53.125 C 2312.7907,53.111466 2313,53.729538 2313,54.96875 2313,55.392149 2312.645,56.082346 2312.3125,56.75 L 2312.5625,61.5625 C 2312.6655,61.597419 2312.8615,61.485703 2312.9375,61.5625 2313.4512,62.081374 2314.2102,65.9875 2314.5938,70.25 2315.0839,75.695799 2315.0635,77.926368 2313.625,78 L 2315.3438,80.65625 2315.75,89.875 z M 2320.875,25 C 2321.3455,25 2321.9821,33.4375 2322.2812,43.75 2322.8771,64.292532 2323.9171,69.345334 2329.8438,80.40625 2331.5797,83.646173 2333,87.133673 2333,88.15625 2333,90.756544 2330.7772,90.456203 2328,87.5 2325.1512,84.467604 2323.8764,84.370736 2321.4688,87.03125 2319.8789,88.788011 2319.5158,88.874954 2318.7812,87.5625 2316.673,83.795407 2314.7605,46.815718 2316.2188,38.03125 2317.3864,30.997917 2319.5202,25 2320.875,25 z"/>
</svg>
