<?xml version="1.0" encoding="UTF-8"?>
<svg xmlns="http://www.w3.org/2000/svg" viewBox="2383.19 16.77 75.9 88.06">
  <path d="M 2388.9523,97.91091 C 2387.5384,95.269037 2388.3145,88.226338 2390.4812,84.036423 2391.8833,81.324995 2391.838,80.839813 2389.8721,77.507834 2386.6432,72.035224 2386.8204,62.688497 2390.2646,56.811543 2392.8286,52.436298 2392.8597,52.18431 2391.4247,47.415899 2388.846,38.847822 2391.6233,29.019128 2398.1824,23.499985 2401.3222,20.858029 2401.7944,20.767886 2410.0347,21.237723 2417.3147,21.65281 2419.7382,22.279443 2426.0067,25.367583 L 2433.3964,29.008108 2436.7538,25.754054 C 2439.4944,23.09768 2440.9081,22.5 2444.4506,22.5 2449.9342,22.5 2452.5787,24.783881 2453.8168,30.5891 2455.6396,39.135581 2452.7866,43.946467 2445.8724,43.985258 2440.421,44.015844 2439.1679,50.431989 2442.7295,60.077569 2445.7272,68.195798 2446.2388,72.528997 2444.9417,78.814739 2443.3356,86.59793 2440.6966,91.406329 2436.6631,93.899228 2433.4813,95.86563 2430,96.681195 2430,95.460162 2430,95.163251 2430.9499,93.058327 2432.1109,90.782554 2433.2719,88.50678 2434.4511,84.116636 2434.7313,81.026677 2435.1519,76.387957 2434.8078,74.544904 2432.7573,70.454285 2428.1427,61.248583 2427.1513,52.769186 2429.5397,42.934187 2430.0936,40.653251 2429.6263,40.0857 2425.3314,37.822399 2422.6741,36.422112 2419.088,34.447515 2417.3623,33.434405 2414.8113,31.936789 2413.5025,31.77072 2410.3623,32.546194 2407.0445,33.365534 2406.3741,34.009325 2405.6072,37.112788 2404.1225,43.120301 2405.3852,45.814831 2410.2665,47.055686 2415.1871,48.306527 2417.055,49.54765 2419.2129,53 2422.5409,58.32434 2422.4946,68.039565 2419.1416,67.962049 2418.2387,67.941175 2416.2668,66.141175 2414.7595,63.962049 2411.4929,59.239314 2408.1577,58.751414 2404.4545,62.454545 2401.5937,65.315355 2401.3847,68.626559 2403.5048,77.5 L 2404.9383,83.5 2400.4536,87.799757 C 2397.987,90.164624 2395.1884,93.732154 2394.2344,95.727603 2392.1143,100.16252 2390.5118,100.82488 2388.9523,97.91091 z M 2401.5123,80.5 C 2401.2301,78.85 2400.7173,74.743237 2400.3727,71.373861 2399.7642,65.425251 2399.8439,65.143724 2403.123,61.65899 2407.7805,56.709445 2410.8491,56.160686 2414.8839,59.555763 2416.6442,61.036968 2418.3626,61.970771 2418.7025,61.630879 2419.0423,61.290988 2418.7738,59.188473 2418.1057,56.958624 2416.6985,52.261707 2412.2846,49.009567 2407.309,49.003738 2403.3713,48.999125 2402.7692,48.078296 2402.7692,42.06002 2402.7692,35.476037 2403.6774,33.218177 2407.0212,31.489033 2411.7384,29.049652 2416.6297,29.634273 2422.8692,33.383247 2425.9661,35.244033 2429.5125,37.074358 2430.75,37.450635 2433.44,38.26855 2433.5234,39.524044 2431.3328,46.221336 2429.8929,50.623594 2429.8349,52.1488 2430.9075,57.409234 2431.5906,60.759155 2433.2829,66.044462 2434.6683,69.15436 2437.236,74.918013 2437.4979,81.562989 2435.4657,89.380508 2434.3353,93.729107 2436.9605,92.308341 2440,86.926541 2443.521,80.692212 2443.5899,68.01283 2440.146,60.072868 2437.3841,53.705358 2437.0848,49.641586 2439.0728,45.5 2440.2841,42.976315 2441.3739,42.334743 2445.9367,41.459154 2448.9198,40.886688 2451.5524,39.842874 2451.7868,39.139567 2452.0212,38.436259 2451.907,35.411593 2451.533,32.418087 2450.9509,27.759242 2450.4387,26.761084 2447.9762,25.487674 2443.7971,23.326589 2442.4453,23.602912 2438.1317,27.5 2436.0009,29.425 2433.6371,31.002018 2432.8788,31.004484 2432.1205,31.006949 2428.334,29.40455 2424.4646,27.443595 2418.8786,24.612814 2415.8446,23.758389 2409.7387,23.296602 2400.9811,22.634262 2400.264,22.977064 2395.8292,29.945781 2392.5875,35.039776 2392.1067,41.745343 2394.5012,48.468475 2395.6822,51.784468 2395.6948,52.688759 2394.5779,53.968475 2391.6772,57.292001 2390.0003,62.145378 2390.0062,67.20034 2390.012,72.19878 2390.7512,74.495102 2394.0283,79.694061 2395.2407,81.617532 2395.1863,82.136672 2393.5873,83.903481 2392.5842,85.011928 2391.5224,88.057511 2391.2278,90.671442 L 2390.6921,95.424044 2396.3587,89.462022 C 2401.2557,84.309714 2401.9557,83.092564 2401.5123,80.5 z"/>
</svg>
