<?xml version="1.0" encoding="UTF-8"?>
<svg xmlns="http://www.w3.org/2000/svg" viewBox="439.77 19.04 52.44 85.28">
  <path d="M 450.70886,97.29221 C 449.72373,96.306494 447.74244,91.675 446.30599,87 442.15607,73.493871 442.82025,51.813918 447.80714,38 451.5718,27.571711 453.91241,23 455.48681,23 456.34364,23 458.99746,24.8 461.38417,27 463.77089,29.2 465.99518,31 466.32703,31 466.65889,31 468.52228,29.60232 470.4679,27.894044 476.13477,22.918459 478.0406,24.833589 483.64973,41.140259 488.42363,55.01875 489.82953,69.213067 487.61482,81.172657 486.16065,89.025288 485.80862,89.742277 481.43962,93.75 478.89141,96.0875 475.98786,98 474.98728,98 473.229,98 467,91.189142 467,89.266611 467,88.746541 468.11256,87.814113 469.47236,87.194547 473.30187,85.449706 475.26087,79.730368 475.36187,70 475.44033,62.441253 474.99318,60.22654 471.32388,50 469.05447,43.675 467.04069,37.63729 466.84883,36.582866 466.65698,35.528443 465.96024,34.486023 465.30054,34.266379 463.92416,33.808124 459.50936,42.004046 458.07926,47.672413 457.54814,49.777586 456.64876,53.3 456.08065,55.5 455.51253,57.7 455.04686,62.875 455.04582,67 455.04374,75.233484 456.73077,80.178136 461.44896,85.76745 464.03086,88.826056 464.10763,89.177595 462.65,91.26745 457.53829,98.596302 453.86459,100.44982 450.70886,97.29221 z M 457.68555,93.825686 C 460.10731,91.550561 460.71822,88.561916 458.98098,87.488248 458.42053,87.141865 456.73337,84.527808 455.23175,81.679231 452.77972,77.027702 452.50353,75.481119 452.52111,66.5 452.54214,55.751637 454.78044,46.34885 459.64609,36.568916 L 462.09937,31.637833 459.17536,28.713819 456.25134,25.789805 454.53841,29.144902 C 448.99188,40.00882 445.23034,59.808947 446.37442,72.118784 447.39432,83.092523 451.98172,95.880838 454.93555,95.984687 455.1751,95.993109 456.4126,95.021559 457.68555,93.825686 z M 479.82054,91.68516 C 484.18734,87.179766 485.09963,83.433437 485.06975,70.129259 485.03933,56.580269 483.88309,49.54508 479.85895,38.423823 476.03541,27.856945 475.10001,27.035855 471.05223,30.693307 L 467.94601,33.5 472.60469,47 C 475.43174,55.192288 477.44072,62.93475 477.71447,66.692711 478.29918,74.719419 476.48544,83.269633 473.42703,86.904355 470.55031,90.32314 470.49365,90.783014 472.65499,93.171259 474.96687,95.725865 476.13993,95.482578 479.82054,91.68516 z"/>
</svg>
