<?xml version="1.0" encoding="UTF-8"?>
<svg xmlns="http://www.w3.org/2000/svg" viewBox="913.65 76.33 54.84 26.79">
  <path d="M 950.0625,85.5 948,87.34375 947,87.25 947,88 942.59375,88 938.21875,88 938.21875,86.65625 936,86.65625 934.9375,85.625 C 934.88087,85.833403 934.83577,86.508136 934.78125,86.5625 933.64387,87.69658 925.13255,84.068235 921.53125,80.90625 919.74322,79.33634 918.0104,78.333352 917.65625,78.6875 916.14144,80.202306 917.20652,84.991878 919.90625,88.71875 923.81845,94.119387 928.11733,97.011133 935.40625,99.15625 942.07373,101.11847 949.49867,100.85941 953.90625,98.5 960.27425,95.091161 966,87.294375 966,82.03125 966,79.444359 965.56731,79.478822 961.6875,82.375 958.08411,85.064837 951.20932,87.553073 950.1875,86.53125 950.11386,86.457609 950.11941,85.737745 950.0625,85.5 z M 962.5625,85.21875 C 963.75474,86.410991 958.88542,92.78234 955,95.125 947.28622,99.77592 935.78171,98.615079 927.25,92.3125 924.14899,90.021713 921.39785,86.258401 922.21875,85.4375 922.4335,85.222756 924.39518,86.032771 926.5625,87.21875 929.54043,88.848303 932.75632,89.480563 939.75,89.8125 948.86712,90.24522 950.65163,89.923123 958.84375,86.3125 960.67592,85.504985 962.34856,85.004813 962.5625,85.21875 z"/>
</svg>
