<?xml version="1.0" encoding="UTF-8"?>
<svg xmlns="http://www.w3.org/2000/svg" viewBox="837.54 18.12 75.92 85.14">
  <path d="M 850.38959,96.572867 C 849.33807,93.832659 853.66306,86.316707 858.27987,82.86114 862.45262,79.73795 862.80829,79.110631 863.30396,74 863.82328,68.64554 863.73472,68.400768 859.95742,64.75 857.27857,62.160893 855.17465,61 853.16117,61 849.6247,61 848.54209,62.203987 847.04536,67.801497 845.24867,74.520823 841.05384,74.542673 841.01531,67.832905 840.98621,62.763911 846.63843,52 849.3293,52 849.88993,52 849.41332,53.0125 848.27016,54.25 844.53866,58.289467 841.47539,68 843.93261,68 844.44555,68 845.1391,67.137108 845.47383,66.082462 847.85585,58.577389 854.67919,56.755119 860.67786,62.022015 862.57089,63.684124 864.5428,64.782566 865.05987,64.462998 866.95535,63.291526 865.91699,61.0088 862.75,59.384986 860.9625,58.468481 858.22797,56.656925 856.67327,55.359306 855.11858,54.061688 853.20608,53 852.42327,53 851.64047,53 851,52.55 851,52 851,51.45 851.24735,51 851.54966,51 852.45716,51 858.46162,54.223721 859,55 859.275,55.396514 861.01421,56.497019 862.8649,57.445566 867.20391,59.669458 868.29667,58.57001 868.1515,52.126617 868.0409,47.217627 863.76666,34.591857 861.80497,33.379463 861.2686,33.047968 859.30431,33.598246 857.43989,34.602303 854.11969,36.390348 853.99302,36.385443 851.27502,34.363604 847.20159,31.333498 847.17032,28.47624 851.1838,26.029299 855.78357,23.224912 859.33845,23.395374 861,26.5 862.5026,29.30764 864.18929,29.681772 865.92355,27.592115 866.56619,26.817778 868.65036,25.444737 870.55503,24.540913 873.79612,23.002912 874.20974,23.010826 877.00903,24.664405 878.65406,25.636151 880,26.784192 880,27.215608 880,28.64419 881.87705,28.033925 886.49937,25.102536 891.28951,22.064716 894.00342,21.987338 897.25,24.796016 899.61546,26.842423 899.50726,32.23096 897.05617,34.44917 895.20138,36.12773 894.90149,36.127794 890.50975,34.450574 887.76956,33.404087 885.54218,33.058459 885.00515,33.596416 883.94808,34.655335 881,45.532338 881,48.373539 881,50.921438 884.30854,60.983391 885.14942,60.992762 885.5066,60.996743 889.5566,58.982519 894.14942,56.516709 898.74224,54.050899 903.20464,52.025899 904.06586,52.016709 906.429,51.991492 910,59.153522 910,63.918273 910,73.838716 903.89795,79.378468 902.47483,70.75 902.0893,68.4125 901.32326,65.94185 900.77251,65.259666 899.54614,63.740623 895.88476,64.498487 890.6903,67.346564 887.72211,68.973994 887.00121,69.884303 887.42664,71.467696 887.72697,72.585463 887.97884,74.643011 887.98635,76.040025 887.99468,77.589582 889.56977,80.314622 892.02562,83.028309 896.12595,87.55912 898.51447,93.495726 897.40272,96.392913 896.47156,98.819473 894.76299,98.355722 890.43165,94.500782 885.7993,90.377929 884.57102,90.198879 882.50903,93.345874 878.84233,98.941969 872.44287,99.386543 867.58327,94.382774 863.46982,90.147287 861.32092,90.256753 856.18828,94.963243 852.51467,98.331847 851.20417,98.695622 850.38959,96.572867 z M 857.83439,32.403443 C 862.53632,29.110083 858.68088,23.605957 853.43368,26.120875 849.93183,27.799268 849.14857,30.638993 851.66213,32.543705 854.05571,34.357497 855.07775,34.334272 857.83439,32.403443 z M 855.50883,92.98571 C 855.85361,92.427851 857.90517,91.068705 860.06785,89.965386 863.00863,88.46511 864,87.349059 864,85.538693 864,82.383534 862.74455,81.703636 859.5805,83.145275 855.65801,84.932482 850.94702,94 853.94098,94 854.45852,94 855.16406,93.54357 855.50883,92.98571 z M 880.05011,92.783998 C 881.66566,91.015197 883.48988,88.045685 884.10393,86.185082 885.41454,82.21389 884.78449,72.981739 882.62401,64.5 881.78344,61.2 880.55596,56.3958 879.8963,53.824 878.89718,49.928755 878.98628,47.690927 880.42998,40.421481 L 882.16305,31.694962 877.83152,27.956684 C 873.79444,24.472517 873.33006,24.311567 871,25.588923 864.32537,29.248002 864.35964,29.135872 867.28721,37.73948 871.37101,49.741041 871.46759,51.55801 868.58148,62.087294 864.63591,76.481763 865.22925,88.421765 870.15043,93.660128 873.21203,96.919045 876.54254,96.624291 880.05011,92.783998 z M 896.39301,32.418213 C 897.57757,29.331314 896.96816,27.025241 894.54896,25.440125 891.7728,23.621116 889.08471,24.143928 886.49387,27.006772 885.04622,28.606409 884.95347,29.239004 885.98443,30.481242 886.67768,31.316559 888.28823,32 889.56343,32 890.83862,32 892.16008,32.45 892.5,33 893.44509,34.529192 895.71301,34.190265 896.39301,32.418213 z M 907.46027,66.471656 C 908.02187,61.976793 907.79438,60.341048 906.24336,57.721656 903.90131,53.766345 902.90232,53.891241 893.36955,59.331165 887.73849,62.544562 886.05685,64.015668 886.0321,65.75 885.99394,68.424773 886.32467,68.488598 889.4868,66.416694 890.81583,65.545876 893.95312,64.216463 896.45854,63.462442 900.80715,62.153701 901.07852,62.191512 902.4392,64.295748 903.22315,65.508087 904.16881,67.7375 904.54069,69.25 905.59904,73.55461 906.70706,72.500198 907.46027,66.471656 z M 894,91.55716 C 894,89.316372 889.95342,83 888.51786,83 885.77381,83 886.1431,86.989256 889.16708,90.013235 892.43821,93.284364 894,93.783294 894,91.55716 z"/>
</svg>
