<?xml version="1.0" encoding="UTF-8"?>
<svg xmlns="http://www.w3.org/2000/svg" viewBox="2709.48 14.36 93.13 89.56">
  <path d="M 2798.375,32.5625 C 2797.6885,32.746396 2797.29,32.772512 2796.5,33 2789.0558,35.14372 2788.3009,35.2097 2787.7812,33.84375 2787.5011,33.106994 2787.8902,30.046912 2788.6562,27.0625 2790.4013,20.264324 2789.8702,18.432194 2787.5,23 2786.4535,25.016685 2785.6516,28.815943 2785.5938,32 L 2785.5,37.5 2790.3438,37.34375 C 2795.0652,37.178704 2795.1211,37.198805 2793.4062,39.09375 2792.441,40.160301 2789.7126,41.590531 2787.3438,42.28125 2783.714,43.339666 2782.5125,44.423092 2779.7188,49.0625 2775.0909,56.747892 2765.9223,68 2764.2812,68 2762.8815,68 2758,63.316388 2758,61.96875 2758,60.36553 2754.7722,60.103845 2752.5938,61.53125 2748.2004,64.409842 2747.8414,67.113552 2751,73.625 2754.6334,81.115206 2754.7142,81.556001 2753.0938,87.25 2751.5343,92.729903 2749.9959,93.474591 2750,88.75 2750.003,85.18103 2746.1306,77 2744.4375,77 2743.1061,77 2738.6283,81.743154 2737.0312,84.84375 2736.3717,86.124227 2736.1076,87.859245 2736.4375,88.71875 2737.1328,90.530743 2736.2303,94 2735.0625,94 2734.2459,94 2731,86.279041 2731,84.34375 2731,83.752073 2732.7553,81.287279 2734.9062,78.84375 2739.1575,74.014039 2739.7452,72.545878 2738.6875,69.5 2737.6855,66.614722 2731.8808,63 2728.25,63 2725.8696,63 2724.4105,63.870273 2722.0625,66.71875 2719.4785,69.853593 2719,70.124094 2719,68.375 2719,67.231022 2720.0469,64.775086 2721.3125,62.90625 2723.3278,59.930643 2724.1045,59.507577 2727.5625,59.65625 2729.7344,59.749624 2732.9101,60.129108 2734.625,60.5 2738.1295,61.257958 2738.3609,60.802617 2739.4688,51.5 2740.3646,43.976471 2739.0886,40.57142 2735.1875,40.1875 2733.4085,40.012422 2732,40.343386 2732,40.9375 2732,41.522347 2732.6631,42 2733.4688,42 2735.96,42 2737.1953,45.873735 2736.7188,52.125 2736.4703,55.383035 2736.0566,58.28724 2735.7812,58.5625 2735.506,58.837759 2734.0496,58.596638 2732.5625,58.03125 2728.4688,56.474818 2725.0974,56.772101 2721.9688,59 2716.4385,62.93781 2713.7116,77.5 2718.5,77.5 2720.0592,77.5 2720.7587,76.450535 2721.6875,72.6875 2723.1991,66.56304 2724.5045,65 2728.1875,65 2731.051,65 2737,69.571122 2737,71.78125 2737,72.301712 2735.1262,75.070893 2732.8438,77.9375 2728.3415,83.592013 2727.9748,85.775232 2730.375,92.5 2732.9978,99.848203 2739,97.434135 2739,89.03125 2739,85.638945 2739.5793,83.755243 2741.1562,82.0625 2743.2537,79.811261 2743.383,79.798675 2744.7188,81.625 2745.477,82.661742 2746.2393,84.4 2746.4375,85.5 2748.0806,94.616407 2748.4819,95.5 2750.9062,95.5 2753.0065,95.5 2753.5582,94.695763 2755.0938,89.25 2757.0269,82.394654 2756.5187,78.529378 2752.9375,72.65625 2750.6398,68.888075 2750.5271,67.030841 2752.4375,64.4375 2753.8422,62.530645 2753.8911,62.533497 2755.9688,64.75 2759.6168,68.64195 2762.811,70.268638 2765.5,69.59375 2768.0661,68.949707 2776.8501,58.692378 2782.5,49.75 2784.1484,47.140995 2786.0718,45.000984 2786.7812,45 2789.8255,44.99578 2795.729,40.909221 2797.5312,37.5625 2797.6969,37.254834 2797.8911,37.088576 2798.0625,36.8125 L 2798.375,32.5625 z M 2783.0312,20 C 2780.3399,20 2777.0443,27.942024 2777.75,32.75 2778.224,35.979371 2779.7526,37.132148 2780.4062,34.75 2782.0172,28.88016 2783.6025,20 2783.0312,20 z M 2736.9688,21 C 2735.6605,21 2727.5776,28.093188 2726.2812,30.375 2723.6784,34.956307 2725.9827,41.991404 2729.625,40.59375 2731.1738,39.999408 2731.1431,39.776029 2729.1875,38.40625 2725.8573,36.073706 2726.512,32.76516 2731.375,27.46875 2735.6915,22.767519 2738,22.232031 2738,25.9375 2738,26.94411 2738.8172,28.770818 2739.8125,30 2741.5495,32.145122 2741.7487,32.177042 2744.75,30.625 2746.4698,29.735661 2748.1577,28.553911 2748.5,28 2749.6479,26.142638 2751,26.974888 2751,29.53125 2751,33.348988 2748.4555,38.685832 2746,40 2743.9348,41.105227 2743.8592,41.614395 2744.5312,49.34375 2744.9215,53.833524 2745.4124,57.839517 2745.6562,58.25 2745.9001,58.660483 2747.4085,58.322983 2749,57.5 2753.1024,55.37854 2754.4464,55.602713 2757.8438,59 2762.6378,63.79402 2766.0358,63.18092 2770.2812,56.75 2774.5336,50.308688 2778.0231,43.508758 2777.9688,41.78125 2777.9464,41.071839 2776.5963,38.935474 2774.9688,37.03125 2772.6228,34.286607 2772,32.63691 2772,29 2772,26.476724 2772.5367,23.869583 2773.1875,23.21875 2773.8384,22.567916 2774.0452,21.701429 2773.6562,21.3125 2772.0387,19.694935 2769.6342,24.062646 2769.5625,28.75 2769.5012,32.752468 2770.0465,34.272667 2772.75,37.6875 2776.5585,42.497928 2776.4395,43.173687 2769.9375,53.46875 2765.1837,60.995853 2763.2919,61.598921 2758.9375,56.9375 2756.4593,54.284581 2755.4734,53.910121 2751.7812,54.1875 L 2747.5312,54.5 2746.6562,48.71875 C 2745.8301,43.268935 2745.912,42.818494 2748.3125,40.59375 2752.1721,37.016841 2755.8047,23 2752.875,23 2752.2601,23 2750.2231,24.35 2748.3438,26 2744.0167,29.799161 2741.4419,29.877956 2740.5312,26.25 2739.7889,23.292278 2738.2276,21 2736.9688,21 z"/>
</svg>
