<?xml version="1.0" encoding="UTF-8"?>
<svg xmlns="http://www.w3.org/2000/svg" viewBox="1164.08 16.73 71.29 88.92">
  <path d="M 1225.8125,57.90625 C 1224.498,59.625422 1223.2659,61 1222.625,61 1221.8798,61 1219.9833,59.9875 1218.4062,58.75 1216.0212,56.878509 1214.4576,56.540664 1209.125,56.71875 L 1202.7188,56.9375 1203.3438,49.34375 C 1203.9187,42.543114 1204.3426,41.359834 1207.4062,37.96875 1209.2869,35.886997 1211.2692,33.359003 1211.8125,32.34375 1213.2576,29.64369 1213.711,21.758312 1212.4375,21.3125 1211.8452,21.105149 1209.3702,22.534993 1206.9375,24.46875 1201.4447,28.834957 1199.3702,28.961808 1198.5,25 1197.5713,20.771478 1195.1646,21.150975 1189.25,26.46875 1183.7076,31.451822 1181.4642,35.715148 1182.4062,39.46875 1183.0286,41.948196 1187.4559,45 1190.4375,45 1191.6895,45 1192,46.344747 1192,52 1192,58.30479 1191.8108,59 1190.0312,59 1188.9445,59 1186.6417,58.149107 1184.9062,57.09375 1182.3233,55.522992 1181.2688,55.372869 1179.125,56.28125 1173.6232,58.61247 1170.3075,62.693417 1168.9062,68.90625 1167.3184,75.946039 1171.866,78.56399 1174.7188,72.25 1178.3285,64.26052 1181.2663,63.110088 1186,67.84375 1189.7147,71.558427 1190.7843,77.100035 1188.6562,81.5625 1186.721,85.620735 1180.2534,89.249967 1175.6875,88.8125 1173.0278,88.557669 1172.4572,88.880581 1172.1875,90.78125 1171.9236,92.64088 1172.6981,93.408407 1176.4375,95.0625 1179.6166,96.468779 1181,97.673304 1181,99.03125 1181,101.4587 1182.5438,101.6066 1183.375,99.25 1183.7145,98.2875 1184.2366,96.985385 1184.5312,96.375 1184.8471,95.721244 1183.2037,94.748229 1180.5312,94 1178.0362,93.301407 1176,92.452198 1176,92.09375 1176,91.735302 1178.0725,90.838153 1180.5938,90.09375 1186.7829,88.266309 1190.7428,84.713638 1192.0625,79.8125 1193.6377,73.962777 1192.2366,69.299535 1187.8125,65.71875 1182.6859,61.569508 1179.3979,61.807805 1175.1875,66.625 L 1171.8125,70.5 1172.4375,67.0625 C 1173.0486,63.597714 1175.9871,59.650697 1179.2812,57.875 1180.5928,57.168077 1182.3885,57.67315 1186.3438,59.84375 1193.9478,64.016897 1195.0195,63.132568 1195,52.6875 1194.984,44.138977 1194.2535,41.665439 1191.9062,42.125 1189.5136,42.593491 1186.1335,40.991268 1185.5312,39.09375 1184.6997,36.473805 1186.6378,31.99493 1190.25,28.25 1194.1437,24.213209 1195.6551,24.152984 1196.5,28 1196.8677,29.674194 1197.8045,31 1198.625,31 1200.6266,31 1205.3487,28.476834 1206.9375,26.5625 1208.8913,24.208244 1211,24.670054 1211,27.4375 1211,29.675562 1205.3553,38.182289 1202.3438,40.5 1201.4647,41.176507 1201.0097,44.49521 1200.9062,50.78125 1200.8221,55.8918 1200.9291,60.27283 1201.1562,60.5 1201.3834,60.72717 1203.3523,60.27608 1205.5312,59.5 1211.1416,57.501762 1213.0433,57.662721 1217.2188,60.5 1219.2423,61.875 1221.5466,63 1222.3438,63 1223.3985,63 1225.1342,61.521126 1227,59.25 L 1225.8125,57.90625 z M 1230.9062,63.78125 C 1229.6289,65.83724 1228.4015,67.670464 1227.3438,68.90625 1223.0177,73.960294 1220.6374,74.057714 1216.5625,69.34375 1213.6543,65.979384 1213.235,65.793315 1210.9688,66.96875 1206.857,69.101547 1205,71.186347 1205,73.6875 1205,76.035816 1202.5143,81.423919 1199.4375,85.6875 1197.9717,87.71872 1197.9969,87.925786 1200.0625,89.03125 1202.38,90.271558 1209.8415,89.911807 1217.9688,88.15625 1221.3816,87.419065 1223.0927,87.526601 1225.1562,88.59375 1229.6121,90.897966 1229.2306,91.739276 1223.7188,91.71875 1219.8463,91.704328 1217.3362,92.381964 1214,94.34375 1208.595,97.522023 1205.7312,97.648206 1200.25,95 1197.9733,93.9 1195.426,93 1194.5938,93 1193.2758,93 1191,95.806721 1191,97.4375 1191,98.543954 1193.8551,97.96575 1194.25,96.78125 1194.5487,95.885119 1195.7739,96.013345 1199.0938,97.28125 1205.2386,99.62797 1209.3554,99.423815 1213.9375,96.53125 1219.794,92.834186 1222.4467,92.476275 1226.4062,94.8125 1230.2769,97.096231 1231,96.819404 1231,93 1231,87.378512 1223.0747,84.609592 1214,87.0625 1208.9871,88.417481 1203.3759,88.719615 1202.3438,87.6875 1201.9722,87.315987 1203.1019,84.252177 1204.8438,80.875 1206.5855,77.497823 1208,74.029437 1208,73.1875 1208,71.34464 1210.8606,68 1212.4375,68 1213.0587,68 1214.3172,69.295908 1215.25,70.875 1217.1279,74.054112 1221.97,75.604898 1224.9688,74 1226.5933,73.130542 1229.3336,69.500698 1232.125,65.1875 L 1230.9062,63.78125 z"/>
</svg>
