<?xml version="1.0" encoding="UTF-8"?>
<svg xmlns="http://www.w3.org/2000/svg" viewBox="5050.72 21.73 19.38 83.05">
  <path d="M 5067.4375,78.78125 C 5067.0767,76.973379 5066.9944,74.167066 5067,68.6875 5067.0168,52.099742 5066.3277,27.015162 5065.8438,26.53125 5065.6115,26.299032 5063.0271,25.978057 5060.0938,25.8125 L 5054.7812,25.5 5054.5625,55 C 5054.4447,71.225 5053.9812,88.2125 5053.5312,92.75 L 5052.7188,101 5056.1875,101 C 5061.4265,101 5066,99.128459 5066,96.96875 5066,95.09476 5066.8539,94.342615 5068.0938,94.59375 L 5068,94 5067.75,88.71875 C 5067.2457,87.587091 5066.966,86.485356 5067.1562,85.5625 5067.2435,85.13894 5067.3823,84.93193 5067.5938,84.8125 L 5067.3438,79.34375 5067.4375,78.78125 z M 5057.0938,27.875 5060.3125,28.1875 5063.5,28.5 5063.75,62.375 C 5063.9379,86.546498 5063.7167,96.648559 5062.9062,97.625 5061.6856,99.095896 5056.4349,99.5292 5055.625,98.21875 5055.3548,97.781655 5055.5754,94.069155 5056.125,89.96875 5056.6746,85.868346 5057.1338,70.207751 5057.125,55.1875 L 5057.0938,27.875 z"/>
</svg>
