<?xml version="1.0" encoding="UTF-8"?>
<svg xmlns="http://www.w3.org/2000/svg" viewBox="2531.92 16.41 47.16 87.68">
  <path d="M 2570.625,35.34375 2569.0625,32.90625 C 2568.1998,31.575558 2565.7576,28.5875 2563.625,26.25 2558.3652,20.484684 2554.5638,20.398593 2549.2188,25.90625 2543.0166,32.297144 2536.6042,46.652328 2535.4688,56.6875 2534.0665,69.081816 2534.8421,83.933729 2537.2188,89.90625 2540.9703,99.334573 2542.3016,100.02993 2548.6562,96 2554.2473,92.454285 2555.2932,92.351563 2558.9688,94.96875 2566.1806,100.10402 2570.6723,99.887099 2574.1562,94.25 2576.2877,90.801092 2576.4706,89.267345 2576.7188,74.25 2576.9407,60.828637 2576.6501,56.709288 2575.0938,50.90625 L 2573.2188,43.875 2574.0625,43.25 2572.8438,40.65625 C 2572.3676,40.421374 2571.9545,39.963876 2571.7188,39.0625 2571.6702,38.876745 2571.8145,38.66253 2571.8125,38.46875 L 2570.6562,36 2570.625,35.34375 z M 2555.5625,24 C 2562.7688,24 2571.1281,39.556258 2573.9375,58.1875 2575.6237,69.370313 2574.7607,87.924375 2572.3125,92.65625 2571.2139,94.779713 2569.4552,96.61934 2568.375,96.78125 2567.3027,96.941986 2564.4208,95.603978 2561.9688,93.8125 2556.9313,90.13224 2555.2967,90.119095 2549.1875,93.65625 2546.8133,95.030931 2544.2584,95.935304 2543.5312,95.65625 2542.0051,95.070619 2539.7371,88.999767 2537.9375,80.75 2536.9615,76.276248 2536.9357,72.199516 2537.8125,62.25 2539.2184,46.295142 2541.1532,40.500543 2548.7812,29.25 2551.8427,24.734844 2552.7845,24 2555.5625,24 z M 2555.8438,31.21875 C 2555.3274,31.162612 2554.7424,31.252965 2554.0625,31.46875 2551.7064,32.216552 2547.7091,43.036932 2545.375,54.96875 2543.4074,65.026457 2544.0428,81.920884 2546.5312,85.71875 2548.3663,88.519354 2548.2452,88.495026 2552.9062,85.8125 L 2556.6875,83.625 2559.75,85.8125 C 2561.4346,87.012047 2563.9224,88 2565.2812,88 2567.2483,88 2567.8774,87.363112 2568.375,84.875 2570.7136,73.181865 2567.0311,49.968837 2560.9062,37.8125 2558.4951,33.026995 2557.3928,31.387163 2555.8438,31.21875 z M 2555.25,33 C 2556.8685,33 2562.9261,47.596697 2564.4688,55.25 2566.1606,63.643962 2567.0114,84.312329 2565.7188,85.625 2565.2812,86.069278 2564.0438,85.88543 2562.9688,85.21875 2561.8938,84.55207 2560.0843,83.4375 2558.9688,82.75 2557.2625,81.69837 2556.3183,81.842974 2552.9375,83.6875 L 2548.9062,85.875 2547.8438,83.1875 C 2547.2618,81.706647 2546.7366,75.1 2546.6875,68.5 2546.6171,59.02424 2547.0858,54.60682 2548.9062,47.5 2551.1861,38.599512 2553.6336,33 2555.25,33 z"/>
</svg>
