<?xml version="1.0" encoding="UTF-8"?>
<svg xmlns="http://www.w3.org/2000/svg" viewBox="4314.59 21.34 30.17 80.56">
  <path d="M 4324.6149,94.911704 C 4321.5375,92.491067 4319,88.014379 4319,85.006015 4319,83.764289 4321.2508,80.784181 4324.5328,77.680482 L 4330.0656,72.448255 4324.7828,68.974127 C 4316.5855,63.583338 4316.9118,61.991257 4328.4005,51.321185 4330.2558,49.598093 4330.2218,49.495919 4326.9722,47.028043 4322.1551,43.369766 4318,39.296205 4318,38.231959 4318,36.30616 4326.022,25 4327.3884,25 4328.176,25 4331.0703,26.778462 4333.8202,28.952138 4340.3293,34.097269 4341.2343,37.536407 4337.5459,43.109986 4336.0941,45.303796 4334.2524,47.349662 4333.4531,47.656354 4330.9596,48.613228 4331.8532,50.980844 4335.5258,53.147746 4341.4029,56.615289 4342.4241,60.471987 4339.0014,66.273137 4337.9021,68.136238 4335.8771,70.263001 4334.5014,70.999277 4331.9932,72.341598 4331.1493,74 4332.9743,74 4333.5102,74 4334.5899,75.2375 4335.3737,76.75 4336.1574,78.2625 4338.0028,80.797165 4339.4745,82.382589 4342.7594,85.921447 4342.3395,88.43732 4337.6303,93.430505 4333.6103,97.692932 4328.8407,98.235732 4324.6149,94.911704 z M 4328.9983,35.988317 C 4328.4236,31.935739 4327.7688,28.435434 4327.5432,28.209861 4326.6407,27.307388 4324.8387,29.384832 4322.471,34.057255 L 4319.98,38.972971 4324.169,42.007474 C 4326.473,43.67645 4328.7372,44.662776 4329.2007,44.199308 4329.6642,43.735841 4329.5731,40.040895 4328.9983,35.988317 z M 4330,61 C 4330,51.541989 4329.0708,50.965477 4323.5952,57.026266 4319.5283,61.527894 4319.7134,63.127966 4324.7345,66.873626 4329.4597,70.39853 4330,69.79581 4330,61 z M 4329.3582,90.25 C 4330.3022,84.538794 4330.1182,77 4329.0348,77 4326.9226,77 4321,83.285335 4321,85.526867 4321,88.122552 4325.4797,94 4327.4581,94 4328.1622,94 4329.0172,92.3125 4329.3582,90.25 z M 4338,37.32257 C 4338,34.980926 4332.573,28 4330.7526,28 4329.6548,28 4330.5005,43.382824 4331.7056,45.332625 4332.6284,46.825765 4338,39.990045 4338,37.32257 z M 4335.1288,93.75 C 4335.9599,93.0625 4337.3537,91.342833 4338.2261,89.928519 4339.7494,87.458859 4339.6679,87.142088 4336.1691,81.928519 L 4332.5261,76.5 4331.8814,79.5 C 4331.5268,81.15 4331.1834,85.3125 4331.1183,88.75 4330.9951,95.256973 4331.9173,96.406636 4335.1288,93.75 z M 4336.9319,66.09563 C 4339.4606,62.544425 4339.5774,58.89929 4337.25,56.167418 4335.4793,54.088944 4332.1862,52.871007 4332.0656,54.25 4332.0295,54.6625 4332,58.15 4332,62 4332,69.938743 4333.3796,71.084401 4336.9319,66.09563 z"/>
</svg>
