<?xml version="1.0" encoding="UTF-8"?>
<svg xmlns="http://www.w3.org/2000/svg" viewBox="3155.15 19.84 19.08 84.19">
  <path d="M 3157.5625,75.90625 3157.8438,78.375 C 3158.1021,78.337046 3158.5101,78.197608 3158.5938,78.28125 3159.2897,78.977145 3158.978,80.169754 3158.2188,81.53125 L 3158.6562,85.34375 3158.2812,85.96875 3157.6562,92.1875 C 3157.1494,97.134908 3157.2735,98.963281 3158.2188,99.34375 3160.3537,100.20302 3167.4124,100.0082 3168.9062,99.0625 3169.9936,98.374198 3170.4217,94.565455 3170.7188,82.34375 3170.9305,73.630391 3171.323,57.95 3171.625,47.5 3172.2316,26.502859 3172.0534,25.718257 3166.2812,24.65625 3160.8874,23.663842 3160.3878,25.016829 3159.6562,42.65625 3159.2949,51.367587 3159.0019,62.154845 3159,66.625 3158.9979,71.904019 3158.5619,75.10815 3157.75,75.78125 3157.7206,75.80564 3157.5945,75.8807 3157.5625,75.90625 z M 3162.3125,27 3165.5312,27 C 3169.5921,27 3170.0377,28.467246 3169.4375,39.90625 3168.9275,49.626611 3168.0939,79.836162 3168.0312,90.75 L 3168,98 3163.9688,98 C 3160.0378,98 3158.0644,96.327255 3159.4062,94.15625 3160.5966,92.230195 3161.9393,69.717355 3162.125,48.75 L 3162.3125,27 z"/>
</svg>
