<?xml version="1.0" encoding="UTF-8"?>
<svg xmlns="http://www.w3.org/2000/svg" viewBox="2274.07 17.03 63.79 88.82">
  <path d="M 2286.5,99.012488 C 2284.85,97.926605 2282.7125,95.574091 2281.75,93.784679 2278.3501,87.463791 2280.0886,72.868444 2285.6787,60.801392 L 2288.3186,55.102783 2283.7486,50.786034 C 2278.0534,45.40638 2276.9717,41.103571 2279.3876,33.439338 2281.1701,27.784686 2286.5243,22 2289.9758,22 2292.8172,22 2293.0049,23.021501 2291.2934,29.170653 2289.6079,35.226152 2290.0517,40.405601 2292.5277,43.576267 2293.9666,45.41886 2294.2442,45.268018 2299.1103,40 2301.9045,36.975 2305.248,32.1375 2306.5403,29.25 2309.9708,21.58488 2312.0434,22.572942 2311.9559,31.831787 2311.8997,37.772129 2310.0345,44.524886 2307.2136,49 2304.2248,53.741709 2304.3965,54.6338 2308.75,56.982218 2310.8125,58.094793 2313.4841,59.714974 2314.6869,60.58262 2316.7833,62.094879 2316.9718,62.001672 2319.2428,58.330078 2321.598,54.522387 2325,45.07336 2325,42.339711 2325,41.55287 2323.8955,39.804545 2322.5455,38.454545 2320.2667,36.175824 2320.2321,36 2322.0616,36 2323.3309,36 2324.6289,37.251059 2325.7084,39.514743 2327.2838,42.818344 2327.2784,43.343986 2325.6193,48.264743 2322.5835,57.268527 2319.7377,62.948488 2317.9833,63.505313 2316.0077,64.132332 2302.0885,56.098109 2302.0354,54.300132 2302.0159,53.640205 2303.3848,51.048398 2305.0773,48.540563 2307.8613,44.415467 2309.9012,36.596868 2309.9799,29.75 2310.0116,26.988159 2308.6195,27.702253 2307.0556,31.25 2306.2676,33.0375 2305.1453,35.003704 2304.5615,35.619343 2303.9777,36.234982 2301.5474,39.047482 2299.1609,41.869343 2293.9663,48.011531 2291.4972,48.434258 2289.449,43.532119 2287.5819,39.063554 2287.6026,32.886774 2289.5,28.345757 2292.3309,21.570541 2290.5299,21.066167 2284.8452,27.042107 2281.1533,30.923111 2281,31.356982 2281,37.928061 2281,44.512773 2281.1409,44.90875 2284.7208,48.385954 2286.7673,50.373679 2288.6798,52.006891 2288.9708,52.015313 2289.2619,52.023735 2290.0911,52.405457 2290.8135,52.863584 2291.8396,53.514241 2291.4732,54.805427 2289.1397,58.763149 2285.6687,64.649851 2282,76.88326 2282,82.570388 2282,88.322183 2283.5932,92.965942 2286.6674,96.174723 2290.1456,99.80523 2291.7414,99.731274 2297.1062,95.690937 2302.2396,91.824896 2307.7237,89.411129 2310.369,89.853497 2311.397,90.0254 2313.9148,91.928687 2315.9642,94.083024 2320.1409,98.47364 2324.7069,99.294441 2328.8422,96.398001 2331.6515,94.43028 2333.1084,95.442062 2330.427,97.498616 2327.4659,99.769722 2322.8018,100.77565 2319.8609,99.777462 2318.4095,99.284794 2315.5881,97.061761 2313.5912,94.837389 2309.1461,89.885819 2307.3014,90.1005 2298.6936,96.571088 2292.0677,101.55185 2290.7572,101.81423 2286.5,99.012488 z M 2290.5249,90.027524 C 2286.588,85.677268 2290.6223,64.878066 2295.9568,62.023141 2297.7173,61.080916 2299.4345,61.652639 2306.9032,65.667635 2314.8615,69.94582 2316.0279,70.308305 2318.3831,69.235225 2322.0214,67.577491 2324.431,63.209752 2328.4429,51 2333.873,34.474374 2333.6985,30.388529 2327.3562,25.545807 2324.2651,23.185578 2323.314,22 2324.5118,22 2327.7158,22 2332.8763,26.819605 2333.9095,30.777047 2334.9669,34.826828 2333.9574,42.442627 2332.1196,44.280434 2331.5038,44.896195 2331,46.320966 2331,47.446591 2331,51.145249 2325.8628,65.009653 2323.4139,67.919937 2319.4811,72.593846 2315.8024,72.478555 2306.3986,67.386672 2301.9428,64.974002 2297.7918,63 2297.1742,63 2294.2404,63 2290.4671,77.81544 2291.5987,84.892035 2292.47,90.340821 2294.3862,90.246167 2301.1683,84.419327 2306.0083,80.261102 2306.8664,79.886182 2310.4724,80.354007 2313.3827,80.73156 2315.1524,81.736189 2317.0907,84.111171 L 2319.7366,87.352981 2323.4943,85.135855 C 2328.3542,82.268434 2329.1128,83.049414 2324.7213,86.399013 2320.3169,89.758438 2317.5004,89.713909 2315.2962,86.25 2311.4766,80.247635 2308.0085,80.419381 2300.331,86.991114 2297.1239,89.736227 2294.0072,91.986227 2293.405,91.991114 2292.8027,91.996001 2291.5067,91.112386 2290.5249,90.027524 z M 2323.25,32.325576 C 2320.6942,30.54272 2320.3131,29 2322.4286,29 2324.0301,29 2327,31.645099 2327,33.071429 2327,34.37514 2325.8644,34.149271 2323.25,32.325576 z M 2323,92.219238 C 2323,91.56326 2325.5567,90.213338 2330.5,88.259348 2331.05,88.041942 2330.2374,89.01965 2328.6942,90.432032 2325.9942,92.903249 2323,93.84301 2323,92.219238 z"/>
</svg>
