<?xml version="1.0" encoding="UTF-8"?>
<svg xmlns="http://www.w3.org/2000/svg" viewBox="3595.79 21.19 19.24 83.92">
  <path d="M 3598.6859,92.396881 C 3599.7541,80.722643 3599.729,45.973999 3598.6438,34.25 L 3597.7877,25 3602.8265,25 C 3606.7708,25 3607.9723,25.380112 3608.3583,26.75 3609.5809,31.088939 3611.1373,43.199877 3610.6391,44.498093 3610.3356,45.288914 3610.5177,46.201919 3611.0437,46.526992 3613.0312,47.755333 3611.4635,96.936489 3609.3701,99.029868 3608.8073,99.592673 3605.99,100.33229 3603.1093,100.67346 L 3597.8718,101.29376 3598.6859,92.396881 z M 3608.3107,93 C 3609.6976,85.700373 3609.5765,47.495431 3608.1361,37.934201 3606.6183,27.858554 3606.0604,26.713797 3602.8869,27.162508 3600.1076,27.55548 3600.1662,26.317941 3601.8304,49.5 3602.6315,60.659137 3602.6876,70.189586 3602.0156,81 3601.4857,89.525 3601.0404,96.866011 3601.0261,97.313358 3601.0117,97.760706 3602.4525,97.985706 3604.2279,97.813358 3607.189,97.525897 3607.5264,97.1281 3608.3107,93 z"/>
</svg>
