<?xml version="1.0" encoding="UTF-8"?>
<svg xmlns="http://www.w3.org/2000/svg" viewBox="3906.22 21.91 26.03 44.09">
  <path d="M 3908.2188,53.25 3908.625,55.46875 C 3909.0541,55.49188 3909.6172,55.622982 3909.9062,55.53125 3912.0356,54.855414 3913.2337,52.184693 3915.5312,43.03125 3917.3648,35.726435 3919.2883,31.523296 3922.2812,28.25 3924.9745,25.304521 3925.7107,25.424026 3926.4688,28.875 3928.3593,37.483109 3916.1192,62 3909.9375,62 3909.9202,62 3909.8311,61.969348 3909.8125,61.96875 L 3910.1875,64 3912.6562,62.25 C 3917.2929,58.928717 3919.6046,55.928819 3923.8438,47.90625 3928.8883,38.359048 3930.2447,29.784773 3927.2812,26.125 3925.6456,24.105093 3925.0943,23.915369 3923.4375,24.96875 3920.1147,27.081338 3916.2791,34.169909 3913.9375,42.5 3912.7006,46.9 3910.9349,51.306531 3910.0312,52.28125 3909.4054,52.956277 3908.9101,53.219537 3908.2188,53.25 z"/>
</svg>
