<?xml version="1.0" encoding="UTF-8"?>
<svg xmlns="http://www.w3.org/2000/svg" viewBox="2904.06 20.07 18.53 84.36">
  <path d="M 2920.5938,29.53125 C 2920.2535,29.246941 2920,28.832031 2920,28.0625 2920,25.580823 2919.6143,25.394206 2913,24.59375 L 2907.5,23.90625 2907.4375,46.71875 C 2907.4024,59.253896 2907.0239,75.708046 2906.5938,83.28125 2906.1637,90.854453 2906.0625,97.716953 2906.375,98.53125 2906.9968,100.15158 2914.5062,100.59982 2916.7812,99.15625 2918.8834,97.822475 2920.3106,75.587036 2919.6562,54.28125 L 2919.0625,35.03125 2920.0938,34.25 2920,32.65625 2920.5938,29.53125 z M 2913.3125,28.1875 C 2915.5976,27.91699 2916,28.243462 2916,30.4375 2916,33.222438 2915.6674,33.344756 2912.1562,31.9375 2909.178,30.74384 2909.8381,28.598815 2913.3125,28.1875 z M 2911.625,34.5625 C 2913.3479,34.397654 2916,36.427194 2916,38.65625 2916,39.949311 2915.3996,41 2914.6562,41 2912.6188,41 2909.6776,37.267297 2910.3438,35.53125 2910.5791,34.917958 2911.0507,34.617449 2911.625,34.5625 z M 2910.3438,42 C 2912.3579,42 2917,45.526694 2917,47.0625 2917,49.18571 2914.6049,49.56906 2911.75,47.90625 2910.3259,47.076811 2909.1164,42 2910.3438,42 z M 2911.2188,51.09375 C 2912.0493,50.776865 2913.3188,51.098029 2915.0625,52.03125 2916.4035,52.748928 2917,54.129143 2917,56.53125 2917,60.401391 2916.6676,60.562838 2912.75,58.4375 2910.7028,57.326869 2910,56.178297 2910,53.96875 2910,52.37019 2910.3882,51.410635 2911.2188,51.09375 z M 2911.2812,61 C 2913.2851,61 2917,63.966817 2917,65.5625 2917,67.22577 2914.3025,67.392938 2911.75,65.90625 2909.7336,64.731819 2909.3776,61 2911.2812,61 z M 2911.3438,69 C 2915.7553,69 2917,69.995479 2917,73.59375 2917,77.292018 2916.0008,77.73262 2912,75.71875 2910.4327,74.92983 2909.3858,73.428222 2909.1875,71.71875 2908.918,69.396395 2909.2277,69 2911.3438,69 z M 2910.5938,78.4375 C 2911.4002,78.425472 2912.4906,78.642392 2913.875,79.125 2915.8421,79.810735 2917,80.86726 2917,82.03125 2917,84.842181 2915.7371,85.071444 2912.2188,82.84375 2908.4801,80.476589 2908.1744,78.473585 2910.5938,78.4375 z M 2910.0625,85 C 2911.974,85 2914.9427,86.997514 2916.0312,89.03125 2916.6171,90.125933 2916.7169,91.626675 2916.2812,92.375 2915.6207,93.509412 2914.9597,93.484225 2912.25,92.1875 2909.7199,90.976738 2909,90.006733 2909,87.8125 2909,86.262285 2909.4764,85 2910.0625,85 z M 2910.1562,94.4375 C 2911.8546,94.558418 2914.1248,96.000989 2913.4688,97.0625 2912.6687,98.357097 2909.2652,98.245342 2908.4375,96.90625 2908.068,96.308327 2908.2282,95.36553 2908.7812,94.8125 2909.0915,94.502221 2909.5901,94.397194 2910.1562,94.4375 z"/>
</svg>
