<?xml version="1.0" encoding="UTF-8"?>
<svg xmlns="http://www.w3.org/2000/svg" viewBox="2123.25 18.3 24.39 81.98">
  <path d="M 2125.25,24.375 2125.3438,26.65625 2125.9062,28.96875 C 2127.3186,25.57674 2129.2095,23.129033 2131,22.96875 2132.1155,22.86889 2132.1602,22.70195 2131.1875,22.3125 2130.4682,22.02448 2128.9617,22.61336 2127.8438,23.625 2126.4066,24.925568 2125.8932,24.975883 2125.25,24.375 z M 2133.25,22.25 C 2133.191,22.406245 2133.5866,22.999413 2134.375,24.125 2136.7076,27.455283 2136.4997,34.237826 2134,36.5 2132.9,37.495486 2132,38.768993 2132,39.34375 2132,39.984329 2132.4519,39.923084 2133.1875,39.1875 2133.8475,38.5275 2135.0123,38 2135.75,38 2138.0275,38 2136.5946,47.88269 2134.0625,49.65625 2132.9259,50.452364 2132,51.614694 2132,52.21875 2132,52.822806 2132.8365,52.567693 2133.8438,51.65625 2137.9859,47.907701 2138.3373,56.224036 2134.25,61.1875 2132.7433,63.017199 2132.3452,63.852134 2133.3438,63.0625 2134.7419,61.957018 2135.3259,61.904687 2135.9062,62.84375 2136.3208,63.514512 2137.3405,63.813025 2138.1562,63.5 2138.977,63.18505 2140.4736,63.862511 2141.5312,65.03125 2142.7105,66.334177 2143.6058,66.713819 2143.8438,66 2144.0559,65.36361 2143.0905,63.62456 2141.7188,62.15625 2139.1642,59.421677 2137.6127,53.336405 2139.2188,52.34375 2139.7117,52.039087 2140.9938,52.595326 2142.0625,53.5625 2145.6389,56.799034 2145.247,54.167946 2141.5938,50.40625 2137.6364,46.331442 2137.7356,46.572063 2138.625,42.125 2139.318,38.660212 2141,37.863455 2141,41 2141,42.1 2141.45,43 2142,43 2142.55,43 2143,41.875 2143,40.5 2143,39.125 2142.6197,38 2142.1562,38 2140.8948,38 2138.1701,31.998934 2137.5,27.75 2137.1284,25.393684 2136.1282,23.610386 2134.8125,22.90625 2133.8031,22.366036 2133.309,22.093755 2133.25,22.25 z M 2137.0938,67.15625 C 2136.6291,67.303547 2135.819,68.07087 2134.375,69.53125 2131.4076,72.532243 2131.3722,72.649394 2133.625,72.21875 2135.7259,71.817128 2136,72.15096 2136,75.09375 2136,77.328667 2135.1058,79.332348 2133.25,81.3125 2130.7875,83.94009 2130.722,84.143893 2132.75,83.09375 2134.531,82.171569 2135.1318,82.2019 2135.5,83.21875 2136.247,85.281468 2135.471,89.740357 2134.0625,91.4375 2132.9477,92.780753 2133.1041,93 2135.3125,93 2136.7224,93 2138.1688,93.475908 2138.5312,94.0625 2140.0688,96.550128 2139.9266,94.01605 2138.375,91.3125 2136.0556,87.271094 2137.0623,84.704866 2140.4688,86 2143.6537,87.210912 2143.7202,86.340984 2140.625,83.90625 2139.3139,82.874977 2138.0285,80.653348 2137.7812,78.96875 2137.3248,75.859277 2138.336,74.116581 2139.5,76 2139.851,76.567943 2140.5718,76.760085 2141.0938,76.4375 2141.6289,76.106804 2141.2061,74.674584 2140.125,73.15625 2139.0704,71.67516 2138.0365,69.565689 2137.8438,68.4375 2137.6812,67.486442 2137.5584,67.008953 2137.0938,67.15625 z"/>
</svg>
