<?xml version="1.0" encoding="UTF-8"?>
<svg xmlns="http://www.w3.org/2000/svg" viewBox="1015.8 8.84 59.89 94.12">
  <path d="M 1072.7188,28.78125 C 1072.3749,28.711883 1072.046,28.5045 1071.6562,28 1071.013,27.167437 1069.2625,25.686366 1067.75,24.71875 1065.5173,23.290385 1065,22.212192 1065,19.03125 1065,16.876389 1064.55,14.839919 1064,14.5 1063.3927,14.124645 1063.0028,15.570475 1063,18.1875 1062.9963,21.608131 1062.3555,23.17005 1059.9375,25.75 1058.2622,27.5375 1056.2044,29 1055.375,29 1054.5455,29 1051.8802,27.133226 1049.4375,24.84375 1045.9012,21.529284 1045,20.001033 1045,17.34375 1045,15.508226 1044.55,14 1044,14 1043.45,14 1043,16.002542 1043,18.4375 1043,22.332504 1042.5609,23.234077 1039.2812,25.9375 1037.2308,27.627542 1035.1685,29 1034.7188,29 1034.2691,29 1032.8187,27.88125 1031.4688,26.53125 1029.519,24.581515 1029,23.054659 1029,19.09375 1029,16.351209 1028.55,13.839919 1028,13.5 1027.3806,13.117215 1026.9904,14.899309 1027,18.1875 1027.0146,23.199872 1026.7771,23.698826 1022.75,27.1875 1018.5556,30.82108 1018.5258,30.942355 1020.0312,33.6875 1020.8732,35.22291 1022.7938,36.914372 1024.2812,37.4375 1026.4971,38.216796 1027.4044,37.980136 1029.3125,36.1875 1030.5935,34.984132 1032.1949,34 1032.875,34 1034.9328,34 1037.2134,40.935266 1038.5938,51.40625 1040.0423,62.39517 1040.1631,61.776233 1033.4688,73.5 1031.5844,76.8 1030.0464,80.4 1030.0312,81.5 1030.0043,83.450863 1033.1353,92.53215 1035.125,96.25 1036.424,98.677186 1038.8034,98.155228 1041.25,94.875 1042.9689,92.570391 1043.096,91.634764 1042.1875,87.375 1041.2823,83.13087 1041.4,82.091707 1043.1562,79.25 1045.6096,75.280262 1046.5806,75.205692 1049.3438,78.75 1051.1278,81.038417 1051.5,82.842786 1051.5,89.5 1051.5,97.359795 1051.5534,97.517209 1054.0938,97.8125 1057.3284,98.188514 1058.0079,97.227427 1061.2812,88.15625 L 1063.9375,80.84375 1061.8438,76.15625 C 1060.7002,73.58675 1058.4668,68.655308 1056.875,65.1875 1054.3575,59.702989 1053.974,57.620625 1053.875,49.1875 1053.8124,43.855308 1054.2421,38.2625 1054.8438,36.75 1055.9039,34.085037 1058.3084,33.098628 1059.4062,34.875 1060.3376,36.38216 1066.0611,37.029756 1068.2188,35.875 1069.1653,35.36844 1071.1984,33.516909 1072.9688,31.78125 L 1072.7188,28.78125 z M 1044.8125,25 C 1045.2435,25 1047.3345,26.78301 1049.4688,28.96875 L 1053.3438,32.9375 1052.3125,39.21875 C 1050.8339,48.201811 1051.4948,58.312671 1053.875,63.3125 1061.6612,79.667543 1062.1341,81.865183 1059.0938,88.375 1058.0381,90.635242 1056.9271,93.2875 1056.625,94.25 1056.3229,95.2125 1055.5517,96 1054.9375,96 1054.1547,96 1054.0205,93.804489 1054.5,88.6875 1055.1533,81.716453 1055.0902,81.277097 1052.625,78.9375 1051.2052,77.59 1050.0408,75.995155 1050.0312,75.375 1050.0218,74.754844 1049.2831,73.633985 1048.4062,72.90625 1047.0459,71.777306 1046.5093,71.971501 1044.8438,74.0625 1039.9874,80.159124 1039.5,81.419681 1039.5,87.6875 1039.5,91.138007 1039.0456,94.026483 1038.5,94.09375 1037.9543,94.161018 1036.2109,91.267939 1034.625,87.65625 L 1031.75,81.09375 1034.5,75.78125 C 1036.0211,72.871963 1038.3271,69.108165 1039.625,67.40625 1041.496,64.95289 1041.9825,63.08846 1041.9688,58.40625 1041.9486,51.51271 1039.7314,40.191581 1037.5312,35.78125 1036.686,34.086652 1036.0104,32.196749 1036.0312,31.59375 1036.0696,30.48215 1043.3727,25 1044.8125,25 z M 1062.9375,26.25 C 1063.6013,26.093219 1064.4156,26.327647 1065.8125,26.90625 1069.6242,28.485106 1070.5497,30.753276 1068.375,33.15625 1066.4113,35.326174 1065.3804,35.426915 1062.0938,33.75 1058.9102,32.125753 1058.6649,31.011845 1060.9062,28.09375 1061.7588,26.983828 1062.2737,26.406781 1062.9375,26.25 z M 1028.0625,27.0625 C 1029.2089,27.05904 1030.2179,27.551268 1031.0312,28.53125 1032.098,29.816511 1031.8445,30.551481 1029.4688,33.03125 1026.3135,36.324566 1026.2207,36.345305 1023.75,34.90625 1021.3306,33.497072 1021.5562,30.427411 1024.2188,28.5625 1025.6274,27.57581 1026.9161,27.06596 1028.0625,27.0625 z"/>
</svg>
