<?xml version="1.0" encoding="UTF-8"?>
<svg xmlns="http://www.w3.org/2000/svg" viewBox="4584.31 18.09 59.21 85.95">
  <path d="M 4588.5933,96.82973 C 4587.4763,95.234996 4587.002,92.304729 4587.0066,87.027494 4587.0137,78.875256 4588.2247,75.970918 4593.2718,72.000803 4595.4978,70.249842 4596,69.051878 4596,65.49252 4596,63.093243 4596.4296,60.000231 4596.9547,58.619159 4597.7756,56.460034 4597.3555,55.437819 4593.9571,51.325289 4589.6716,46.139303 4588.4897,42.219799 4589.2302,35.650218 4589.8394,30.245266 4594.3168,23 4597.0477,23 4598.7376,23 4598.9,23.318251 4598.0352,24.934259 4595.6479,29.394887 4598.5723,42.131184 4602.3134,43.566778 4604.877,44.550515 4610.8952,40.024614 4612.8356,35.6537 4616.1882,28.101789 4625.0555,22.024649 4632.75,22.005577 4635.7866,21.99805 4635.5807,23.574622 4632.0144,27.636325 4630.3724,29.50652 4628.7638,32.092997 4628.4397,33.384052 4627.5864,36.78423 4629.6453,43.425054 4632.666,47.014868 4637.4107,52.653656 4632.0399,54.056434 4622.6726,49.625 4619.6208,48.18125 4616.7133,47 4616.2115,47 4615.7098,47 4613.823,49.908314 4612.0188,53.462919 4609.2289,58.959428 4608.8113,60.683921 4609.2256,64.995552 4609.9214,72.237015 4616.0211,78.089343 4619.0584,74.429592 4620.6567,72.503796 4632.503,66 4634.4125,66 4636.7384,66 4636.3516,67.944787 4633.5,70.58758 4631.0132,72.892224 4630.369,76.121816 4630.9241,83.5 4631.1959,87.112696 4634.779,92.708948 4637.2308,93.350097 4640.8274,94.290633 4639.1537,96.854399 4634.4862,97.554338 4628.9151,98.389781 4624.9996,96.902522 4621.1113,92.473989 4617.8612,88.772318 4615.001,87 4612.2772,87 4611.2573,87 4608.6576,86.1 4606.5,85 4604.3424,83.9 4602.0224,83 4601.3443,83 4598.5896,83 4595.058,87.643266 4593.7961,92.924152 4592.3291,99.063408 4590.9061,100.13166 4588.5933,96.82973 z M 4596.6183,83.336973 C 4599.1698,81.290167 4599.2439,80.994646 4597.9971,77.836973 4595.9186,72.573064 4595.1197,72.20118 4592.4674,75.262762 4590.4261,77.619107 4590.0874,79.016608 4590.1651,84.762762 4590.2788,93.159416 4590.9,94.337548 4592.5971,89.374662 4593.3258,87.243598 4595.1354,84.526638 4596.6183,83.336973 z M 4601.0622,49.336289 C 4601.9397,47.028503 4601.6817,46.260188 4599.1319,43.586289 4597.5131,41.88883 4595.5526,38.581188 4594.7751,36.235973 4593.9975,33.890758 4593.0551,32.278258 4592.6807,32.652639 4591.3771,33.956283 4592.0112,43.121416 4593.625,46.29966 4596.9329,52.81449 4599.3627,53.806554 4601.0622,49.336289 z M 4632.4575,95.068757 C 4632.7741,94.556573 4631.9006,92.468777 4630.5165,90.42921 4627.9245,86.609714 4627.6903,85.568562 4627.7519,78.138945 4627.7762,75.215201 4628.5369,72.765028 4630.0602,70.704692 L 4632.3323,67.631494 4628.4162,69.971064 C 4626.2623,71.257828 4622.9241,73.798099 4620.998,75.616112 L 4617.496,78.921589 4613.498,76.679709 C 4604.489,71.62789 4604.0952,59.090202 4612.6322,49.116589 4616.0401,45.135249 4619.2014,43.898879 4620.5197,46.03188 4621.3761,47.417621 4629.9364,51.3969 4630.6106,50.722685 4630.9042,50.429136 4630.0581,48.458944 4628.7304,46.34448 4624.8419,40.151419 4624.5199,35.110953 4627.6546,29.502395 L 4630.2962,24.776041 4626.8981,25.518743 C 4623.254,26.31522 4618.1622,31.309548 4615.5407,36.658815 4614.6893,38.396163 4611.712,41.456166 4608.9244,43.458822 4605.6465,45.813798 4603.3428,48.407001 4602.4029,50.800007 4601.6035,52.835003 4600.4659,55.35345 4599.8748,56.396557 4598.6612,58.538065 4598.4547,67.813215 4599.485,73.910961 4600.3787,79.200774 4604.1536,82.350118 4612.7958,85.015943 4617.4827,86.461696 4620.7036,88.238878 4623.5,90.922128 4628.3798,95.604476 4631.293,96.953046 4632.4575,95.068757 z"/>
</svg>
