<?xml version="1.0" encoding="UTF-8"?>
<svg xmlns="http://www.w3.org/2000/svg" viewBox="2311.24 20.32 61.59 81.06">
  <path d="M 2334.6599,97.326547 C 2333.1801,95.846809 2334.1778,89.231071 2336.4909,85.185198 2338.7363,81.257581 2338.8585,80.449972 2337.8522,76.185198 2336.2309,69.31389 2333.9586,64.198077 2332.2338,63.536216 2328.4857,62.097955 2321.0161,71.511934 2318.3925,80.980383 2316.0176,89.551198 2316.0613,89.4613 2314.8567,88.256736 2314.1309,87.530889 2314.0423,84.782801 2314.5854,79.839519 2315.2616,73.684343 2315.4843,73.064778 2315.9656,76 L 2316.5395,79.5 2320.3107,72.407776 C 2326.7696,60.261091 2333.3812,57.709825 2336.2734,66.248113 2341.3977,81.375539 2341.2888,80.48568 2338.5166,84.570615 2336.2397,87.925897 2335.0894,93 2336.6056,93 2336.9387,93 2338.5483,91.875 2340.1824,90.5 2343.7749,87.477083 2345.3748,87.374759 2348,90 2350.5789,92.578878 2351,92.519461 2351,89.576725 2351,88.243924 2349.8192,85.750117 2348.3759,84.034932 2346.2677,81.52941 2345.8629,80.2324 2346.3166,77.436605 2347.5961,69.551762 2354.6695,60.168477 2358.2873,61.556748 2360.5404,62.421336 2363.9542,69.397158 2364.6922,74.644452 L 2365.3751,79.5 2366.5842,75.387756 C 2368.564,68.654173 2366.0826,58.783371 2361.505,55.182575 2358.5823,52.883618 2356.1949,53.300935 2350.965,57.024905 2349.4395,58.111207 2347.9232,59 2347.5956,59 2346.8022,59 2346.8279,43.612117 2347.6248,41.535397 2348.3685,39.59726 2357.0654,35 2359.9882,35 2361.2094,35 2362.5049,36.014076 2363.182,37.5 2363.8084,38.875 2364.6507,40 2365.0535,40 2367.0609,40 2367.637,32.805659 2365.9788,28.444333 2365.0777,26.074081 2364.5803,25.833931 2361.7466,26.40067 2359.9806,26.753883 2355.9079,28.608228 2352.6961,30.521437 2349.4844,32.434647 2346.4425,34 2345.9362,34 2345.4299,34 2344.224,32.318527 2343.2563,30.263394 2342.2886,28.208261 2340.7657,26.385984 2339.8721,26.213891 2338.9785,26.041797 2336.6167,27.438904 2334.6237,29.318574 2329.9302,33.745145 2329.6717,37.917976 2333.9044,40.931906 2335.5018,42.069358 2337.5409,43 2338.4358,43 2340.7558,43 2341.111,44.688416 2340.2241,51.5 2339.342,58.274567 2339.3302,58.279282 2331.2771,55.094362 L 2326.0543,53.028769 2323.509,55.764385 C 2322.1092,57.268973 2320.0954,60.75 2319.034,63.5 2317.7509,66.824352 2317.0867,67.732607 2317.0521,66.210162 2316.989,63.437452 2320.0075,57.366565 2323.0526,54.141832 2325.3472,51.711901 2325.9033,51.685026 2334.8142,53.573367 L 2338.1285,54.275693 2337.8142,49.895315 C 2337.5544,46.273591 2337.032,45.291653 2334.7976,44.22572 2330.6449,42.244616 2327.7732,38.051073 2328.5096,35.043281 2329.3815,31.481816 2336.9194,24 2339.6356,24 2341.6625,24 2345.2145,27.350722 2346.3141,30.300184 2346.6189,31.117624 2348.632,30.496785 2352.6307,28.352121 2357.9361,25.506693 2361.2038,24.571021 2364.7243,24.889309 2366.6725,25.065442 2369.0091,30.555007 2368.9003,34.70034 2368.6594,43.883807 2365.3307,46.858419 2362.332,40.57001 2360.3721,36.460025 2360.3829,36.462858 2354.9424,38.639741 2350.225,40.527249 2349,42.882573 2349,50.0651 2349,55.419479 2349.7459,55.931879 2354,53.5 2357.4374,51.535023 2359.7096,51.657039 2362.9746,53.981922 2367.7779,57.402135 2370.035,67.311678 2368.2258,77.036566 2367.2203,82.441451 2366.3732,84 2364.441,84 2363.3971,84 2363,82.744027 2363,79.44282 2363,70.284222 2359.1613,61.546213 2355.997,63.501877 2355.376,63.885666 2353.5476,66.022266 2351.934,68.249877 2348.2841,73.288389 2347.93,79.688621 2351.0582,84.081704 2352.5374,86.159085 2353.0297,88.169137 2352.8082,91.227448 2352.4264,96.499467 2350.1899,97.284335 2347.6759,93.028554 2345.2684,88.95293 2342.8265,89.216474 2338.7378,93.993214 2336.8579,96.189482 2335.0228,97.689482 2334.6599,97.326547 z"/>
</svg>
