<?xml version="1.0" encoding="UTF-8"?>
<svg xmlns="http://www.w3.org/2000/svg" viewBox="3734.44 16.25 66.05 88.07">
  <path d="M 3760.5409,96.75 C 3762.9488,88.73107 3764.4164,88.246093 3773.4057,92.498693 3781.2434,96.20656 3784.1319,95.889283 3786.8687,91.01988 3791.0066,83.657453 3796.6448,64 3794.6187,64 3794.0932,64 3791.9415,68.376706 3788.965,75.5 3785.3885,84.059034 3783.9718,86.787402 3782.0851,88.75 3780.8954,89.9875 3779.6552,91 3779.3291,91 3778.2048,91 3771.4937,86.675858 3768.8452,84.244961 L 3766.1904,81.808239 3768.6853,78.154119 C 3770.8273,75.017045 3771.1264,73.630179 3770.7993,68.352701 3770.4619,62.909418 3769.9885,61.729655 3766.6653,58.051294 3762.9527,53.94191 3762.9195,53.830451 3763.5797,47.698593 3764.3265,40.763013 3766.2004,37.984693 3772.2102,34.902682 3777.134,32.377615 3779.1842,32.502709 3782,35.5 3783.2917,36.875 3784.7202,38 3785.1743,38 3786.5386,38 3786.1039,27.524284 3784.6574,25.546165 3783.3588,23.770244 3783.1212,23.777756 3777.4074,25.775388 3774.1583,26.911313 3770.0933,28.404144 3768.374,29.092792 3765.3647,30.298117 3765.0997,30.189049 3761.2788,26.172439 3756.7643,21.426728 3755.7919,21.219812 3751.1898,24.025635 3747.0636,26.541342 3744.4675,32.136437 3746.0524,35.09784 3746.9648,36.802822 3747.9415,37.095023 3751.8253,36.825003 L 3756.5,36.5 3757.3785,42.669815 C 3757.8617,46.063213 3757.9546,50.044581 3757.585,51.5173 3757.0207,53.765556 3756.5176,54.09575 3754.4479,53.576268 3750.169,52.50235 3743.1216,57.566785 3741.5078,62.875229 3740.71,65.499459 3741.7917,65.233083 3745.5285,61.885034 3746.6441,60.885446 3749.4175,59.411173 3751.6914,58.608872 3755.4353,57.287964 3755.9637,57.308391 3757.2845,58.825072 3760.036,61.98485 3761,64.875378 3761,69.966377 3761,78.665954 3759.31,81.155838 3750.5965,85.293866 3745.2337,87.840648 3742.4347,89.830491 3741.225,91.956282 3739.5263,94.941099 3738,95.92483 3738,94.034796 3738,91.695358 3744.4496,86.071342 3749.9774,83.590629 3756.8511,80.505912 3759,77.476367 3759,70.870658 3759,65.835859 3757.162,60.276156 3755.2558,59.544653 3752.9198,58.64826 3747.384,61.625621 3744.375,65.396702 3741.0231,69.597659 3737.4395,70.369482 3738.3625,66.691645 3740.5296,58.057348 3744.1387,54.116821 3751.7592,52.064849 3755.6714,51.0114 3755.9908,50.674057 3755.8817,47.711456 3755.8166,45.945155 3755.475,43.151943 3755.1226,41.504318 3754.5295,38.731431 3754.1978,38.533113 3750.6619,38.837748 3746.276,39.215609 3743,36.952629 3743,33.545181 3743,30.578486 3747.8355,23.395997 3750.7165,22.083327 3754.7297,20.25477 3757.5169,20.850763 3762.4043,24.58253 3765.6713,27.077071 3767.4612,27.868089 3768.2981,27.187195 3768.9591,26.64937 3772.5736,25.265721 3776.3302,24.11242 3781.4778,22.532082 3783.6452,22.274926 3785.1281,23.068556 3788.7897,25.028211 3789.9236,31.133974 3787.9474,38.25 3786.6376,42.966608 3783.7297,43.311798 3781.5075,39.014487 3779.3005,34.746686 3776.0655,34.266506 3771.2022,37.48486 3766.7922,40.403292 3766.0339,42.141526 3766.0137,49.378799 3766.002,53.559783 3766.5006,54.811709 3769.5,58.13168 3772.7149,61.690223 3773,62.515787 3773,68.26769 3773,72.591112 3772.3891,75.669518 3771.0265,78.211819 L 3769.0529,81.894019 3773.6285,84.982021 C 3780.7817,89.809656 3780.9526,89.640187 3789.9966,68.75 3795.3979,56.274055 3797.4813,55.599195 3796.7783,66.55323 3796.5117,70.707506 3795.7775,74.622506 3795.1468,75.25323 3794.516,75.883953 3793.9835,77.5475 3793.9633,78.95 3793.8993,83.398766 3787.8003,94.329134 3784.4991,95.911354 3781.8162,97.197208 3780.95,97.118885 3775.515,95.099074 3765.3626,91.326132 3765.2881,91.327915 3763.3509,95.390328 3761.4579,99.360026 3759.468,100.32286 3760.5409,96.75 z M 3754.322,95.25 C 3752.3341,92.607022 3752.1775,92.568105 3750.298,94.25 3749.2225,95.2125 3747.478,95.964474 3746.4213,95.921053 3744.9889,95.862193 3744.8817,95.696973 3746,95.271724 3746.825,94.958014 3748.5732,93.86854 3749.8849,92.850671 3753.2985,90.201641 3755.717,90.552066 3757.4743,93.95034 3759.3347,97.547899 3759.3594,98 3757.6953,98 3756.9776,98 3755.4597,96.7625 3754.322,95.25 z"/>
</svg>
