<?xml version="1.0" encoding="UTF-8"?>
<svg xmlns="http://www.w3.org/2000/svg" viewBox="1356.39 18.66 44.35 79.97">
  <path d="M 1361.5,74.1875 1361.3438,74.65625 1361.3438,78.65625 1361.0938,79.375 C 1361.8268,79.458564 1362.9476,79.923358 1365.4375,81.09375 1374.1489,85.188602 1376.1532,82.960599 1379.9688,65 1382.2649,54.191878 1382.5215,48.95361 1381.4375,36 1380.2907,22.296424 1379.124,26.503625 1379.3125,43.625 1379.4753,58.415189 1379.214,61.554948 1377.2188,69 1375.9658,73.675 1374.1003,78.337174 1373.0625,79.375 1371.2134,81.224266 1371.0825,81.224993 1366.3438,78.3125 L 1361.5,75.34375 1361.5,74.1875 z M 1386.7188,29.09375 C 1386.2968,29.540713 1386.1606,30.897247 1386.5,32.90625 1388.4619,44.518226 1387.133,66.240121 1383.9688,74.5625 1383.4345,75.96774 1383,77.323304 1383,77.5625 1383,77.801695 1383.4381,78 1383.9688,78 1385.6689,78 1386.7217,74.741678 1388.5,64.0625 1390.228,53.685193 1390.2514,34.839122 1388.5312,30.75 1387.8421,29.111523 1387.1407,28.646787 1386.7188,29.09375 z M 1360.1562,82.15625 1358.4062,87.5 C 1359.1759,87.636583 1361.9383,88.826927 1365.875,90.875 1370.2414,93.146684 1374.5316,95 1375.4375,95 1381.74,95 1389.4002,84.737514 1394.4688,69.5 1397.8121,59.449331 1398.7283,29.5 1395.6875,29.5 1395.2699,29.5 1394.7641,37.15 1394.5625,46.5 1394.1725,64.585981 1393.1858,69.74686 1388.25,79.5 1382.0587,91.734146 1378.3307,93.683268 1369.125,89.46875 1362.8491,86.595556 1360.5589,84.696177 1360.1562,82.15625 z"/>
</svg>
