<?xml version="1.0" encoding="UTF-8"?>
<svg xmlns="http://www.w3.org/2000/svg" viewBox="4075.82 16.63 29.78 87.3">
  <path d="M 4086.7456,98.604716 C 4083.1877,95.904162 4082.6905,91.77241 4085.1535,85.375082 4087.1242,80.256472 4087.3891,77.890507 4087.2106,67 4086.9274,49.718915 4086.4332,46.665246 4083.7269,45.475293 4077.8232,42.879419 4078.5064,34.114436 4085.2057,26.503656 4089.8133,21.269198 4093.7493,20.593379 4098.1216,24.285963 4101.91,27.485353 4103,30.168884 4103,36.296754 4103,40.862473 4102.5079,42.342694 4099.9029,45.612495 4097.1455,49.073568 4096.8739,49.993619 4097.4262,54 4097.7673,56.475 4098.3136,63.45 4098.6399,69.5 4099.0534,77.163683 4099.6888,81.01847 4100.735,82.20942 4102.8768,84.64774 4103.6049,92.564968 4101.8791,94.650408 4100.1722,96.71301 4093.1965,99.959503 4090.5,99.946235 4089.4,99.940822 4087.7105,99.337138 4086.7456,98.604716 z M 4098.0309,95.320565 C 4100.8616,92.938689 4101.1568,92.205931 4100.6896,88.722272 4100.4005,86.5669 4099.2329,83.812405 4098.095,82.601171 4096.1694,80.551455 4096.0282,79.231543 4096.0552,63.543763 4096.0838,46.955635 4096.1246,46.640588 4098.6341,43.658262 4100.9373,40.921077 4101.1175,40.095624 4100.4965,35.125452 4099.7525,29.17091 4097.8068,25.74464 4094.2223,24.077196 4091.225,22.682888 4089.2045,23.983625 4085.1591,29.911811 4080.9952,36.013789 4081.0558,39.36032 4085.4026,43.36513 4088.4427,46.165986 4088.8161,47.086014 4088.9066,52 4089.0351,58.982612 4089.7402,68.998287 4090.5786,75.75 4091.0342,79.419514 4090.884,81 4090.0797,81 4089.0888,81 4084.9931,88.934105 4085.0037,90.832905 4085.0058,91.199807 4085.8992,92.9625 4086.989,94.75 4089.5272,98.912872 4093.5167,99.11902 4098.0309,95.320565 z M 4088.2,38.8 C 4086.805,37.40497 4086.5963,33.367548 4087.8782,32.575248 4088.3613,32.276716 4089.025,33.375158 4089.3532,35.016231 4089.9885,38.192523 4092.3878,39.037636 4093.3859,36.436655 4093.7159,35.576815 4093.3025,33.551815 4092.4672,31.936655 4091.1583,29.405491 4091.1486,29 4092.3968,29 4094.5343,29 4096.4062,35.372435 4095.0262,37.951031 4093.815,40.21417 4090.0788,40.678835 4088.2,38.8 z M 4089.3401,93.443818 C 4088.4435,91.107467 4090.347,85.556859 4092.1648,85.206784 4094.249,84.805407 4095.6653,91.493447 4093.9371,93.575803 4092.3781,95.454295 4090.0863,95.388496 4089.3401,93.443818 z M 4093.5055,91.991051 C 4093.8485,91.43613 4093.8259,90.026672 4093.4552,88.858924 4092.9255,87.189979 4092.5941,87.031438 4091.906,88.117872 4090.7403,89.958323 4090.7622,93 4091.941,93 4092.4585,93 4093.1626,92.545973 4093.5055,91.991051 z"/>
</svg>
