<?xml version="1.0" encoding="UTF-8"?>
<svg xmlns="http://www.w3.org/2000/svg" viewBox="1839.02 18.7 27.55 89.99">
  <path d="M 1863.7187,46.84375 C 1863.0494,45.378861 1862.8228,43.778822 1862.5937,40.875 1862.146,35.197421 1859.1794,24.773081 1857.5313,23.125 1857.1931,22.786817 1856.4611,23.321011 1855.9063,24.3125 1855.1188,25.719509 1854.1899,25.966424 1851.7187,25.4375 L 1848.5625,24.78125 1850.8125,27.1875 C 1854.668,31.353281 1853.5592,36.261814 1848.9687,35.34375 1845.3997,34.629924 1845.2555,35.769428 1848.5625,38.46875 1850.419,39.984099 1850.9033,41.101298 1850.4375,42.8125 1849.9039,44.773351 1849.3593,44.996883 1846.8125,44.4375 1844.5492,43.940404 1843.9219,44.129729 1844.25,45.15625 1844.4883,45.901765 1845.6731,46.95708 1846.875,47.5 1848.6312,48.293278 1849.0625,49.319099 1849.0625,52.78125 L 1849.0625,57.09375 1845.5625,56.4375 C 1841.156,55.610844 1841.0173,57.138702 1845.3125,59.1875 1848.0752,60.5053 1848.5529,61.247585 1848.4687,64.125 1848.3046,69.735009 1848.1495,70 1845.4687,70 1842.2443,70 1842.7258,72.228805 1846.125,73.03125 1848.2441,73.5315 1848.5625,74.139693 1848.5625,78.03125 1848.5625,81.208039 1848.1665,82.5 1847.1563,82.5 1845.4882,82.5 1844.382,84.941922 1845.9687,85.125 1846.5645,85.19375 1847.5237,85.30625 1848.0937,85.375 1849.4828,85.542512 1851.0436,88.089517 1851.0625,90.25 1851.0732,91.469005 1850.2683,92 1848.4687,92 1845.1193,92 1845.7854,94.398467 1849.25,94.8125 1851.161,95.040875 1852.1786,96.096291 1853.3437,99.0625 1854.8301,102.84628 1858.0625,104.59839 1858.0625,101.625 1858.0625,100.86735 1858.6855,99.749126 1859.4375,99.125 1860.37,98.351178 1861.0015,98.462269 1861.8437,99.34375 L 1861.0625,97.34375 1861.6563,94.78125 C 1861.1201,94.473412 1861.0625,93.741188 1861.0625,92.25 1861.0625,90.036864 1861.6301,88.812232 1863.1875,88 L 1863.9063,84.875 C 1863.0769,84.876313 1863.0183,84.528534 1862.9375,83.75 1862.657,81.049925 1863.2973,65.446951 1863.7187,64.75 1863.777,64.653735 1864.2838,64.813005 1864.5625,64.84375 L 1863.7187,63.34375 1863.7187,57.25 C 1863.0929,55.803542 1862.918,54.50798 1863.7187,53.8125 L 1863.7187,46.84375 z M 1856.7813,28.5 1858,31.5 C 1860.2506,37.008391 1861.084,57.214832 1859.8125,75.65625 1859.3139,82.888258 1858.3408,90.988258 1857.6563,93.65625 1856.5629,97.917758 1856.2869,98.256999 1855.375,96.5 1854.8041,95.4 1853.546,90.281787 1852.5625,85.125 1849.9495,71.423388 1851.3073,46.426973 1855.4063,33 L 1856.7813,28.5 z"/>
</svg>
