<?xml version="1.0" encoding="UTF-8"?>
<svg xmlns="http://www.w3.org/2000/svg" viewBox="416.06 18.86 27.93 83.74">
  <path d="M 420.40625,59.9375 420.40625,63.9375 C 420.85405,64.827935 421.03919,66.409916 421.03125,69.25 421.02165,72.6875 420.3758,79.55 419.5625,84.5 418.74919,89.45 418.06459,94.2875 418.0625,95.25 418.05689,97.827895 421.75281,97.442687 425.25,94.5 426.88409,93.125 428.58864,92 429.0625,92 429.53635,92 431.41223,93.35 433.21875,95 437.25259,98.684344 439.39081,98.800873 440.9375,95.40625 441.98263,93.112446 441.73652,92.199454 438.90625,87.65625 436.15891,83.246175 435.51448,80.919784 434.4375,71.5 433.7458,65.45 433.15707,58.107745 433.125,55.1875 433.09293,52.267254 431.94586,44.878206 430.5625,38.75 427.89469,26.931761 425.4197,22.670977 421.59375,23.21875 419.93952,23.455591 419.61151,24.157146 419.78125,27 419.89618,28.925 420.28924,35.45 420.65625,41.5 L 421.3125,52.5 419.9375,53.28125 420.40625,54 420.40625,56.53125 C 421.39337,56.573418 422.0625,57.21702 422.0625,58.5625 422.0625,59.289939 421.3217,59.842844 420.40625,59.9375 z M 422.8125,26 C 425.50446,26 430.03787,45.582509 430.09375,57.5 430.16074,71.787938 432.21481,83.849371 435.375,88.5 436.85331,90.675536 438.0625,92.796423 438.0625,93.21875 438.0625,94.331033 436.29307,94.182075 435.5625,93 435.22017,92.446089 433.53963,91.283226 431.84375,90.40625 428.93621,88.902701 428.53962,88.92668 424.90625,90.96875 420.48519,93.453523 420.48087,93.434818 422.4375,84.09375 423.17569,80.5696 423.86231,74.072425 423.96875,69.65625 424.07519,65.240074 424.37007,61.287488 424.625,60.875 425.14424,60.034845 423.36773,34.303731 422.4375,29.25 422.09055,27.365119 422.23707,26 422.8125,26 z"/>
</svg>
