<?xml version="1.0" encoding="UTF-8"?>
<svg xmlns="http://www.w3.org/2000/svg" viewBox="4711.96 16.16 34.89 89.92">
  <path d="M 4716.0366,99.98402 C 4714.8575,99.255242 4714.9088,98.996227 4716.3412,98.44656 4717.2886,98.082994 4719.0105,95.696286 4720.1676,93.142765 4724.152,84.349977 4722.0842,64.763451 4716.5632,59.000735 L 4713.9563,56.279689 4716.3608,53.389845 C 4722.3209,46.226834 4723.5495,39.803357 4720.8454,29.942054 4719.7733,26.03212 4719.1286,22.600579 4719.4128,22.316406 4721.4789,20.250282 4724.0625,29.331134 4724.0625,38.659244 4724.0625,42.980038 4723.3596,45.538754 4720.9105,50.133785 L 4717.7585,56.047525 4719.9088,58.336343 C 4723.0544,61.684723 4725.0129,69.45925 4725.262,79.58637 4725.4464,87.080048 4725.107,89.342689 4723.1316,93.789909 4720.6249,99.433221 4718.3537,101.41604 4716.0366,99.98402 z M 4724.0625,99.5 C 4724.0625,98.675 4724.6852,98 4725.4464,98 4727.1599,98 4730.8491,89.073807 4731.6713,82.938665 4732.5894,76.088237 4729.6401,62.74945 4726.349,58.867322 4725.1602,57.465062 4725.2253,56.759421 4726.81,53.867322 4730.4292,47.262515 4731.1878,42.988339 4730.2475,34.5 4729.7601,30.1 4729.0209,25.7125 4728.6049,24.75 4727.4932,22.178031 4729.7353,22.571047 4731.495,25.256599 4732.4897,26.774711 4733.0188,30.456349 4733.1119,36.506599 4733.2547,45.792107 4732.9967,47.252524 4730.2432,52.741085 4728.849,55.520333 4728.8041,56.446547 4729.9284,59.241085 4732.2788,65.083604 4735.0278,76.412948 4735.0454,80.329445 4735.0637,84.427108 4730.7955,96.35832 4728.2768,99.25 4726.4087,101.39476 4724.0625,101.53394 4724.0625,99.5 z M 4733.0625,101.53151 C 4733.0625,101.19319 4733.9078,100.0091 4734.9408,98.900214 4737.5868,96.060101 4741.0658,84.84907 4741.0451,79.229001 4741.0216,72.825995 4738.4127,60.921647 4736.6457,59.154653 4735.3984,57.90735 4735.4558,57.377089 4737.0834,55.109588 4740.1494,50.838162 4741.6532,41.045272 4740.3646,33.741963 4739.7589,30.308884 4738.9535,26.6 4738.575,25.5 4738.0218,23.892364 4738.3736,24.02626 4740.3686,26.182508 4744.8389,31.014253 4744.8439,47.825449 4740.377,54.642829 4739.3872,56.153466 4739.2127,57.448193 4739.8326,58.682942 4742.0824,63.164254 4744.1953,75.928436 4743.7341,82.251746 4743.1928,89.672415 4737.9194,101.2387 4734.8125,101.8195 4733.85,101.99943 4733.0625,101.86984 4733.0625,101.53151 z"/>
</svg>
