<?xml version="1.0" encoding="UTF-8"?>
<svg xmlns="http://www.w3.org/2000/svg" viewBox="2003.05 15.6 39.11 86.33">
  <path d="M 2005.0515,27.38421 2005.6023,30.854837 C 2006.5353,29.910486 2007.9381,28.873318 2010.145,27.463885 2018.1377,22.359351 2022.0668,21.272777 2024.252,23.573931 2027.7408,27.247904 2027.4926,29.478173 2023.0283,34.288616 2018.5363,39.129079 2018.6689,40.547467 2023.2093,36.226737 2026.7714,32.837085 2028.0925,33.810671 2028.0721,39.868154 2028.0572,44.283745 2027.6616,45.164988 2024.2938,48.230462 2022.2269,50.111936 2020.8683,51.993628 2021.2797,52.407823 2021.6911,52.822017 2023.0722,52.1702 2024.3471,50.980657 2027.956,47.61307 2029.0437,48.266922 2029.0254,53.715198 2029.0121,57.646802 2028.4149,59.319885 2025.9021,62.454716 2020.9079,68.685441 2020.3854,70.648219 2024.8576,66.388716 L 2028.996,62.433898 2028.9719,69.558858 C 2028.9483,76.564114 2028.882,76.735826 2025.1872,79.858654 2021.5896,82.899194 2022.2084,83.362193 2027.1822,81.33414 2028.6995,80.71549 2028.9326,81.230217 2028.9194,85.152519 2028.9079,88.567307 2028.2592,90.456159 2026.2999,92.76873 2023.3022,96.306939 2024.1545,96.872094 2027.6095,93.648151 L 2029.9293,91.46846 2031.6713,93.849348 C 2032.6181,95.165414 2033.7096,96.717308 2034.0973,97.295048 2034.5765,98.009625 2035.1742,97.969421 2036.004,97.145226 2036.9614,96.194211 2036.6714,95.373972 2034.579,93.42165 2032.2556,91.253724 2031.9024,90.183989 2031.9202,84.912636 2031.9314,81.586393 2032.2277,78.851139 2032.5968,78.852383 2032.966,78.853628 2034.0778,79.590678 2035.0601,80.485699 2037.1699,82.40797 2040.1645,81.645604 2039.3138,79.406286 2038.9921,78.559376 2038.1611,77.87114 2037.4752,77.868827 2036.7894,77.866515 2035.0593,76.771913 2033.6084,75.418275 2031.7028,73.640103 2030.9638,71.963989 2030.9726,69.378103 2030.9864,65.261946 2033.5071,63.483927 2035.4833,66.205794 2036.7997,68.018997 2038.9757,68.448408 2038.981,66.905092 2038.9854,65.590784 2035.0433,62.006891 2032.8123,61.29051 2031.3381,60.817131 2031.0054,59.642259 2031.0205,55.159433 2031.0358,50.632262 2031.3128,49.758081 2032.537,50.258269 L 2035.533,51.455878 C 2038.212,52.550439 2037.1064,50.030986 2034.1376,48.263655 2032.0897,47.044625 2031.1,45.491328 2030.6867,42.939488 2029.2582,34.119154 2030.488,31.690811 2034.1473,36.107368 2035.8574,38.171397 2036.0161,38.215938 2036.0523,36.488794 2036.074,35.450368 2034.4089,32.664412 2032.3543,30.320039 2030.2997,27.975668 2027.8295,24.897578 2026.8462,23.457677 2024.1609,19.525704 2018.7845,19.820605 2012.2495,24.283463 2008.4589,26.872223 2006.4595,27.744688 2005.0515,27.38421 z"/>
</svg>
