<?xml version="1.0" encoding="UTF-8"?>
<svg xmlns="http://www.w3.org/2000/svg" viewBox="3473.31 27.48 30.72 77.52">
  <path d="M 3475.3125,37.65625 3475.3438,38 3476.3438,41.03125 C 3476.9745,39.687559 3478.0345,38.522525 3480.0312,36.75 3485.5135,31.883253 3488.6124,31.801357 3490.5625,36.46875 3492.7615,41.731699 3492.4035,43.004691 3487.375,47.6875 3482.4623,52.262369 3482.5113,53.303891 3487.5,50 3491.5792,47.29845 3492,47.453066 3492,51.59375 3492,54.593303 3491.2214,55.906521 3487.25,59.5625 3484.326,62.254229 3483.0962,63.944308 3484.0625,63.96875 3484.9258,63.990588 3486.6169,62.875 3487.8125,61.5 3490.8136,58.048324 3492,58.362211 3492,62.625 3492,65.579555 3491.179,67.07097 3487.625,70.625 3483.0838,75.166152 3483.22,76.55799 3487.8438,72.90625 L 3490.5,70.8125 3490.8125,74.96875 C 3491.0965,78.774615 3490.7564,79.455397 3486.8125,82.96875 3482.2918,86.995819 3481.8293,89.477281 3486.25,86 3489.715,83.274419 3490,83.432902 3490,87.78125 3490,90.187054 3489.0593,92.911105 3487.4062,95.34375 3484.5842,99.49684 3484.7665,101.46887 3487.6562,98.09375 3490.0442,95.304759 3491.4316,95.453523 3493.8438,98.75 3495.5528,101.08578 3495.9491,101.23323 3496.5,99.8125 3496.8939,98.79661 3496.3971,97.39719 3495.2188,96.21875 3493.2993,94.29937 3491.3552,87.332255 3492.4375,86.25 3492.7456,85.941858 3494.2351,86.303306 3495.75,87.0625 3497.2648,87.821694 3498.8375,88.611519 3499.25,88.8125 3501.2108,89.767854 3499.6368,86.824252 3496.5,83.6875 3493.7963,80.983796 3493,79.374702 3493,76.59375 3493,72.474496 3493.0625,72.445581 3497.1562,74.5625 3501.6843,76.904068 3502.0359,75.253483 3497.75,71.8125 3494.7411,69.396782 3494,68.136701 3494,65.40625 3494,61.869041 3495.5734,60.948389 3497.8125,63.1875 3498.6749,64.049894 3499.3142,64.091952 3500.0938,63.3125 3500.8731,62.533047 3500.1698,61.464891 3497.5938,59.5 3493.9007,56.683127 3493.0613,53.275092 3494.9062,48.5625 3495.6027,46.783262 3495.8682,46.886768 3498.0312,49.8125 3500.7203,53.449635 3502,53.843549 3502,51.0625 3502,50.005358 3500.2,47.601868 3498,45.71875 3494.8802,43.048316 3494,41.589222 3494,39.09375 3494,35.320938 3490.2105,31 3486.9062,31 3485.7004,31 3482.7867,32.575 3480.4375,34.5 3478.0883,36.425 3475.8793,38 3475.5312,38 3475.4965,38 3475.3584,37.686445 3475.3125,37.65625 z"/>
</svg>
