<?xml version="1.0" encoding="UTF-8"?>
<svg xmlns="http://www.w3.org/2000/svg" viewBox="3014.4 17.18 31.42 87.77">
  <path d="M 3036.17,96.988165 C 3034.0944,95.19459 3032.0819,93.283766 3031.6976,92.741888 3031.2787,92.151007 3029.876,92.648089 3028.1934,93.983782 3022.1389,98.789803 3020.7945,99.502564 3019.756,98.456984 3019.0647,97.76095 3019.0681,96.189128 3019.7668,93.558339 3021.7223,86.194813 3022.0982,68.804427 3020.7278,49.104538 3019.9785,38.33318 3018.8617,28.571441 3018.2461,27.411788 3016.3981,23.930629 3016.8526,21.170897 3019.2726,21.179057 3021.3495,21.18606 3028.1198,27.405122 3028.1134,29.299988 3028.1116,29.821753 3029.265,32.091686 3030.6764,34.344283 3035.1627,41.504465 3037.1362,50.621097 3039.9645,77.249147 3040.5781,83.026249 3041.7543,89.618354 3042.5782,91.898268 3043.7334,95.094679 3043.8162,96.525636 3042.9401,98.149524 3041.4229,100.96154 3040.606,100.82141 3036.17,96.988165 z M 3027.3617,91.110644 3030.8983,88.026465 3033.9748,90.63294 C 3037.4113,93.544426 3039.4077,94.025404 3038.5365,91.731944 3038.0272,90.391267 3036.7719,78.404253 3035.6043,63.734368 3034.7926,53.534834 3031.87,42.694722 3027.9136,35.208273 3025.7297,31.075886 3023.5339,27.26596 3023.0341,26.741772 3021.7863,25.433303 3021.8564,28.507072 3023.5803,50.688693 3024.9348,68.115114 3024.8503,80.820337 3023.3163,90.443086 3022.9876,92.50449 3022.9676,94.191932 3023.2718,94.192957 3023.576,94.193983 3025.4164,92.806942 3027.3617,91.110644 z"/>
</svg>
