<?xml version="1.0" encoding="UTF-8"?>
<svg xmlns="http://www.w3.org/2000/svg" viewBox="4920.87 17.34 62.23 91.06">
  <path d="M 4947.2887,95.75 C 4945.0513,91.7625 4942.8123,87.706524 4942.3131,86.73672 4941.4499,85.059519 4941.3103,85.06265 4939.4528,86.80086 4938.3788,87.805941 4936.15,90.361053 4934.5,92.478887 4926.0176,103.36633 4925.419,103.36629 4924.4092,92.47819 4923.6966,84.7932 4925.5038,77.152737 4930.5645,66.455343 4932.9265,61.462403 4933.0399,60.745715 4931.6357,59.685616 4928.668,57.445248 4926.7231,50.685595 4926.2594,41 4925.4985,25.105024 4928.7613,21.478212 4934.1312,32.25 4940.2291,44.482232 4940.9964,45.87974 4941.9317,46.457803 4943.0146,47.127037 4949.1766,36.393071 4950.9893,30.679989 4952.1298,27.085432 4954.357,25.023638 4955.6753,26.341965 4955.9993,26.665938 4957.5283,30.65903 4959.0731,35.215503 4960.6767,39.945577 4962.4435,43.5 4963.1909,43.5 4963.9109,43.5 4966.5947,39.965262 4969.155,35.645027 4971.7152,31.324791 4974.2416,27.358363 4974.7693,26.830741 4976.6931,24.906887 4978.786,28.890542 4979.4795,35.796314 4980.2694,43.661296 4979.2375,48.618062 4974.9594,57.509216 4972.1038,63.444135 4972.088,63.573956 4973.6856,68.009216 4976.2549,75.141779 4976.5805,89.446368 4974.3115,95.5 4973.2807,98.25 4971.8487,100.5 4971.1293,100.5 4970.4098,100.5 4968.6965,97.8 4967.322,94.5 4965.9475,91.2 4964.1607,87.825 4963.3514,87 4962.0466,85.670026 4961.5738,85.840052 4959.1805,88.5 4956.8922,91.043312 4955.5562,94.112605 4953.4135,101.75 4952.7097,104.25848 4951.2732,102.8513 4947.2887,95.75 z M 4935.969,87.25 C 4941.6915,81.08109 4942.3282,80.662568 4943.3653,82.388404 4946.9886,88.41827 4950.8398,93.5 4951.7862,93.5 4952.3851,93.5 4954.7457,90.887694 4957.0321,87.694877 4959.6929,83.979094 4961.7849,81.999571 4962.8445,82.194877 4963.755,82.362694 4965.5073,84.497301 4966.7384,86.938447 4971.2227,95.830007 4972.9608,94.717282 4972.9847,82.939614 4972.9962,77.242194 4972.3918,73.827316 4970.5318,69.081181 L 4968.0636,62.783134 4970.4632,59.637132 C 4973.3332,55.874322 4974.8313,52.14502 4976.0499,45.729326 4977.0211,40.616484 4976.2822,32 4974.8726,32 4974.149,32 4971.5213,36.047616 4966.461,44.957284 4963.2517,50.607698 4960.3898,51.538211 4959.4094,47.25 4958.1764,41.857392 4954.6076,32 4953.8881,32 4953.2239,32 4947.0198,44.271612 4944.9142,49.75 4944.4386,50.9875 4943.6284,52 4943.1136,52 4941.4806,52 4937.6162,46.586509 4934,39.233134 4932.075,35.318718 4930.1061,32.089911 4929.6246,32.058007 4929.1431,32.026103 4928.969,35.7125 4929.2376,40.25 4929.7,48.060954 4931.6591,54.294642 4935.1858,59.176259 4936.1735,60.54344 4935.9186,61.834141 4933.8037,66.176259 4927.5273,79.061922 4924.9593,94 4929.0204,94 4929.3983,94 4932.5251,90.9625 4935.969,87.25 z M 4946.9436,77.777139 C 4945.3246,76.004565 4944,74.034665 4944,73.399583 4944,72.764502 4943.325,71.684689 4942.5,71 4940.1098,69.01631 4940.7363,65.451002 4944.5125,59.54791 4949.2098,52.20483 4951.2607,51.14642 4953.8076,54.750912 4962.7453,67.399802 4962.9013,68.668964 4956.4073,75.891846 4953.8814,78.701331 4951.381,81 4950.851,81 4950.3209,81 4948.5626,79.549712 4946.9436,77.777139 z M 4955.342,74.005396 C 4959.2512,69.359565 4959.4634,67.44863 4956.5951,62.719412 4953.2418,57.190545 4951.4802,54.999597 4950.3898,55.001788 4948.9769,55.004627 4944,63.485341 4944,65.890041 4944,69.336016 4949.2193,77 4951.5661,77 4952.257,77 4953.9561,75.652428 4955.342,74.005396 z"/>
</svg>
