<?xml version="1.0" encoding="UTF-8"?>
<svg xmlns="http://www.w3.org/2000/svg" viewBox="937.13 22.28 29.42 81.86">
  <path d="M 942.1875,57.4375 942.4375,60.0625 C 943.28204,60.252331 944,61.090421 944,62.5 944,63.875 943.57321,65 943.0625,65 943.03497,65 942.96782,65.0592 942.9375,65.0625 L 943.3125,68.84375 C 943.82611,68.847026 944.19211,69.023399 944.375,69.5 944.70589,70.362288 944.27853,76.970924 943.4375,84.1875 942.59646,91.404075 942.14047,97.944719 942.4375,98.71875 943.0883,100.41473 946.23704,99.632636 950.09375,96.78125 952.7153,94.843052 952.76864,94.841324 957,97 959.83586,98.446748 961.58315,98.823095 962.25,98.15625 962.91685,97.489404 961.80918,96.481194 958.9375,95.09375 953.5184,92.475523 953.04644,92.469398 948.71875,95.40625 946.76173,96.734317 944.97501,97.631267 944.75,97.40625 944.52498,97.181234 944.94038,92.390551 945.65625,86.75 946.98453,76.284161 947.52291,48.662478 946.4375,46.90625 946.10753,46.372344 945.43691,43.361709 944.9375,40.21875 944.4381,37.07579 943.73607,33.15 943.375,31.5 L 942.71875,28.5 944.84375,30.40625 C 947.49823,32.763103 951.33535,40.953469 952.84375,47.53125 954.19937,53.442827 956,71.097435 956,78.4375 956,84.30008 959.52136,92.265996 962.34375,92.8125 964.40131,93.210908 964.54589,90.67731 962.5625,89.03125 959.94257,86.856894 958.06464,78.671644 957.53125,67 956.62179,47.09888 953.33797,35.504855 946.8125,29.125 945.05258,27.404344 942.61055,26 941.375,26 L 939.125,26 941.0625,32.96875 C 942.12228,36.79309 943.27011,43.695525 943.625,48.3125 944.21288,55.960603 944.09315,56.740377 942.375,57.34375 942.34241,57.355194 942.22321,57.424023 942.1875,57.4375 z"/>
</svg>
