<?xml version="1.0" encoding="UTF-8"?>
<svg xmlns="http://www.w3.org/2000/svg" viewBox="4079.99 21.2 29.42 83.6">
  <path d="M 4091.5659,96.642356 4086.6318,92.325847 4088.8159,89.258553 C 4090.0172,87.571541 4091,85.76797 4091,85.250617 4091,84.733264 4091.9,83.495486 4093,82.5 4095.9267,79.851414 4095.5381,78.633344 4090,73.095238 4087.25,70.345238 4085,67.477251 4085,66.721933 4085,65.966615 4086.1678,64.257687 4087.595,62.924314 4089.0223,61.590941 4090.8101,59.308311 4091.568,57.851803 4092.8976,55.29669 4092.7537,55.016629 4087.473,49.884159 4084.4629,46.958463 4081.9981,43.875152 4081.9957,43.032356 4081.9901,41.019822 4092.8752,25 4094.2483,25 4095.9509,25 4102.4637,32.349976 4104.4267,36.486732 4105.4176,38.574913 4106.4517,41.948766 4106.7247,43.984183 4107.184,47.408231 4106.8763,47.967429 4102.6105,51.462933 4100.0747,53.540828 4098,55.636716 4098,56.120462 4098,56.604208 4099.0125,57.988273 4100.25,59.196163 4106.6778,65.470202 4107.4094,69.275496 4103,73.5 4101.35,75.0808 4100,76.85393 4100,77.440289 4100,78.026647 4101.575,80.721666 4103.5,83.42922 4105.425,86.136774 4107,89.000045 4107,89.792045 4107,92.11624 4099.9826,101.00189 4098.1648,100.97943 4097.2492,100.96812 4094.2797,99.01644 4091.5659,96.642356 z M 4098.7997,51.592396 C 4100.2848,50.818214 4102.2868,48.83752 4103.2484,47.190854 4104.9689,44.24464 4104.9481,44.103689 4101.9419,38.348458 4100.2617,35.131806 4097.853,31.450868 4096.5893,30.168595 L 4094.2917,27.837189 4089.6459,34.347789 C 4087.0906,37.928619 4085,41.381773 4085,42.021465 4085,43.708712 4088.5394,47.94684 4092.2102,50.655056 4095.9634,53.424129 4095.431,53.348388 4098.7997,51.592396 z M 4101.011,71.75 C 4103.6705,67.388052 4103.5841,66.915393 4099.2301,62.0091 L 4095.4602,57.760982 4091.7301,61.601333 C 4089.6786,63.713526 4088,65.885832 4088,66.42868 4088,68.172227 4095.3426,75 4097.2176,75 4098.2141,75 4099.9211,73.5375 4101.011,71.75 z M 4102.0324,93.645014 4104.3427,89.290028 4101.9695,85.895014 C 4100.6643,84.027756 4099.135,82.185266 4098.571,81.80059 4097.2077,80.870608 4094.8847,83.081085 4092.1936,87.869295 L 4089.9923,91.78604 4093.5309,94.89302 C 4095.4772,96.601859 4097.6664,98 4098.3958,98 4099.1253,98 4100.7617,96.040256 4102.0324,93.645014 z"/>
</svg>
