<?xml version="1.0" encoding="UTF-8"?>
<svg xmlns="http://www.w3.org/2000/svg" viewBox="4711.34 15.15 28.04 84.7">
  <path d="M 4717.2188,81.3125 4716.7812,85.875 C 4717.5031,85.713849 4718.3976,85.669111 4720.1875,85.78125 4724.0843,86.025386 4725.0783,85.722267 4726,84 4728.1984,79.892186 4730.5952,48.301234 4730.0312,31 4729.8499,25.435163 4729.7022,24.935705 4728.9375,27.5 4728.4463,29.147372 4728.2164,31.936061 4728.4375,33.71875 4729.3477,41.056849 4725.4686,79.845902 4723.5,83.03125 4722.434,84.75607 4720.034,83.840661 4717.2188,81.3125 z M 4715.3438,88.65625 4713.3438,90.65625 4713.375,91.15625 C 4713.9433,91.275472 4715.6842,92.204072 4717.5938,93.5 4719.8923,95.059756 4722.6764,96 4725,96 4728.1785,96 4729.1106,95.450261 4731.3125,92.25 4732.7316,90.1875 4734.3189,87.338456 4734.8438,85.9375 4736.0725,82.656566 4737.2892,60.790398 4737.3438,41 4737.379,28.216588 4737.0736,24.930393 4735.6562,22.25 4734.7112,20.4625 4733.5046,19 4732.9688,19 4731.6962,19 4731.7098,19.130026 4733.5625,22.84375 4734.8382,25.401029 4735.124,29.577348 4735.0625,44.75 4735.0206,55.059401 4734.838,64.85 4734.625,66.5 4734.4121,68.15 4733.9095,72.2 4733.5312,75.5 4732.5236,84.290253 4730.1457,91.793988 4727.8438,93.40625 4724.4336,95.794839 4716.2232,92.344655 4715.3438,88.65625 z"/>
</svg>
