<?xml version="1.0" encoding="UTF-8"?>
<svg xmlns="http://www.w3.org/2000/svg" viewBox="4995.33 17.12 19.14 89.82">
  <path d="M 4999.0734,101.58844 C 4997.9974,100.29191 4997.334,59.706987 4997.8763,28.349301 L 4998,21.198602 5004.6739,21.573234 C 5008.3446,21.779282 5011.676,22.297096 5012.0771,22.723933 5012.4782,23.15077 5012.1821,38.125 5011.4192,56 5010.6562,73.875 5010.2041,91.096142 5010.4144,94.269204 5010.8385,100.6679 5010.3994,101.21415 5003.8885,102.38771 5001.3182,102.85099 4999.93,102.62055 4999.0734,101.58844 z M 5007.1337,99.179237 C 5007.4822,98.805657 5008.0628,88.825 5008.4238,77 5008.7848,65.175 5009.3124,48.860524 5009.5964,40.745609 5009.8803,32.630695 5009.8959,25.640595 5009.6311,25.212055 5008.7764,23.829237 5001.1744,25.103172 5000.5485,26.734084 4999.7468,28.823415 4999.8179,90.146253 5000.6291,96.261828 5001.2473,100.9216 5001.3978,101.11748 5003.8886,100.50286 5005.3249,100.14845 5006.7852,99.552818 5007.1337,99.179237 z"/>
</svg>
