<?xml version="1.0" encoding="UTF-8"?>
<svg xmlns="http://www.w3.org/2000/svg" viewBox="1109.39 12.99 65.08 91.05">
  <path d="M 1132.3698,98.521186 C 1131.5677,96.431161 1134.6146,89.658156 1137.7814,86.491359 L 1140.2335,84.039217 1138.0384,75.155278 C 1135.4734,64.774766 1133.0524,60.302239 1129.518,59.41517 1124.9555,58.270054 1122.3667,61.983373 1119.5355,73.733565 1118.4639,78.181187 1117.9288,83.539077 1118.1463,87.645068 1118.5436,95.145956 1117.4051,96.576273 1114.75,91.912087 1112.5558,88.05768 1112.3511,72.026223 1114.3979,64.338949 1117.7788,51.640957 1123.8184,46.61338 1132.1573,49.555506 1138.2775,51.714842 1139.0025,51.101684 1138.9847,43.781385 1138.9636,35.131064 1138.2798,34.270772 1133.0791,36.351681 1127.9279,38.412788 1125.5747,38.431818 1123.5714,36.428571 1120.3262,33.183369 1122.5049,22.861038 1127.1169,19.630693 1130.6838,17.132312 1133.1025,17.641233 1138.3772,22 1141.0395,24.2 1143.9699,26 1144.8892,26 1145.8086,26 1150.2952,24.425 1154.8595,22.5 1163.9825,18.65243 1166.1756,18.301761 1167.9259,20.41077 1170.8989,23.992969 1169.7306,37.398668 1166.3318,38.702912 1164.5439,39.388983 1162,37.214374 1162,35 1162,31.664668 1159.4279,30.617522 1155.2626,32.257073 1150.5776,34.101205 1149.202,36.999551 1149.7653,43.839809 1150.1285,48.249125 1150.4922,49.084429 1151.8526,48.63336 1160.4389,45.786303 1161.7934,45.634627 1164.2512,47.245026 1165.9208,48.338977 1167.4653,51.18314 1169.1005,56.175109 1171.2063,62.603538 1171.4928,65.291016 1171.4409,78.134189 1171.3893,90.908306 1171.1351,93.132635 1169.4409,95.634189 L 1167.5,98.5 1166.8764,88 C 1166.0702,74.423803 1161.0877,60.025743 1156.918,59.222733 1154.8544,58.825309 1152.2904,64.889402 1150.3077,74.857116 1148.9984,81.439611 1148.9007,83.563096 1149.8477,84.857116 1152.1808,88.045081 1155.7401,96.513647 1155.2661,97.748924 1154.5689,99.565737 1153.5194,99.307888 1150.1824,96.5 1146.0095,92.98873 1141.446,93.183707 1136.7252,97.074963 1133.5553,99.687842 1132.9008,99.90517 1132.3698,98.521186 z M 1139.5,93.406101 C 1141.5391,92.331127 1143.8613,92.006657 1146.75,92.393131 1151.8188,93.071293 1152.4456,91.354682 1148.5511,87.460147 1146.1428,85.051884 1146.1247,84.90729 1147.4637,78.755602 1150.3635,65.433216 1154.2613,57 1157.519,57 1159.2963,57 1163.5683,63.665891 1166.0107,70.25 1167.1839,73.4125 1168.6255,76 1169.2143,76 1171.5103,76 1167.6051,55.108519 1164.3909,50.196256 1162.0927,46.684042 1160.445,46.547563 1154.6385,49.388457 1151.7027,50.824805 1148.7716,52 1148.1249,52 1146.8945,52 1146.6623,43.590062 1147.7147,37.143146 1148.1829,34.275207 1149.0082,33.439161 1153.3813,31.402915 1159.9441,28.347122 1161.3925,28.39498 1163.8352,31.748339 L 1165.8372,34.496678 1166.5407,31.694053 C 1167.3405,28.507147 1166.5303,22.130301 1165.1502,20.750172 1164.3439,19.943851 1153.5005,23.866282 1147.7636,27.039534 1144.3003,28.955157 1141.4506,28.034842 1137.0911,23.592839 1133.1609,19.588233 1132.5099,19.274898 1129.9638,20.162461 1126.8072,21.26287 1124,26.223436 1124,30.701129 1124,36.072911 1127.9141,37.439193 1134.418,34.337692 1139.965,31.692548 1141,33.293033 1141,44.515456 1141,55.21638 1140.219,56.19235 1134.6719,52.423013 1132.5869,51.006192 1129.6609,50 1127.6259,50 1120.692,50 1114.9326,60.976694 1115.0693,73.931501 L 1115.1386,80.5 1117.9599,72.23775 C 1119.5117,67.693512 1122.0126,62.361181 1123.5175,60.388126 1125.8753,57.296923 1126.6653,56.883065 1129.2294,57.395885 1133.9622,58.342438 1138.5889,65.728111 1140.3155,75.092635 1140.661,76.966686 1141.365,80.214353 1141.88,82.309673 1142.7288,85.763329 1142.6076,86.198698 1140.5829,86.968477 1137.3367,88.202675 1133.2346,95.014501 1135.75,94.993839 1136.1625,94.990451 1137.85,94.275969 1139.5,93.406101 z"/>
</svg>
