<?xml version="1.0" encoding="UTF-8"?>
<svg xmlns="http://www.w3.org/2000/svg" viewBox="3523.38 17.89 46.04 87.68">
  <path d="M 3549.5,100.49294 C 3548.95,100.31191 3546.851,99.888773 3544.8356,99.552646 3542.4599,99.156429 3539.9378,97.671529 3537.6637,95.330286 3534.3942,91.964183 3534.1086,91.148296 3533.4557,83.310133 3532.9705,77.486056 3533.2487,71.458202 3534.3606,63.7006 3536.9436,45.679104 3537.0261,46.76776 3533,45.754589 3526.9677,44.236565 3525.4732,40.019828 3528.6183,33.392041 3530.5124,29.400447 3539.5085,21.874148 3541.4808,22.630994 3542.2275,22.917538 3544.0734,25.592786 3545.5827,28.575991 3547.0921,31.559196 3549.0003,34 3549.8231,34 3550.6459,34 3553.9517,31.488959 3557.1693,28.41991 3560.3869,25.35086 3563.5776,23.023064 3564.2597,23.247029 3566.3301,23.926764 3566.2159,28.347842 3563.9733,34.341723 3561.8283,40.074752 3558.095,43.804147 3550.097,48.20349 3547.5221,49.619796 3547,50.514718 3547,53.511911 3547,55.494623 3546.4969,61.253053 3545.882,66.308421 3545.058,73.082113 3545.0579,76.552218 3545.8817,79.5 3547.621,85.723982 3548.443,86.584498 3551.5787,85.463748 3555.7821,83.961351 3558,78.732412 3558,70.324619 3558,66.360997 3558.4336,62.850063 3558.9635,62.522542 3559.4935,62.195022 3560.8197,62.819728 3561.9108,63.910778 3567.0577,69.057742 3567.326,84.757737 3562.3916,92.046351 3558.4209,97.911411 3552.8153,101.58419 3549.5,100.49294 z M 3557.5626,94.75 C 3562.0804,89.392251 3563.4917,84.419178 3563.0969,75.25 3562.9448,71.718207 3561.3236,72.618532 3560.6786,76.592959 3559.9691,80.96531 3555.7163,86.77715 3552.2668,88.08868 3548.8169,89.400306 3545.5325,87.143636 3543.961,82.381876 3542.7829,78.81214 3542.9872,70.159599 3544.6193,54.5 3545.3265,47.714882 3546.0266,46.461116 3549.6108,45.561537 3554.6131,44.306062 3558.9117,40.585956 3561.0342,35.675605 3562.1812,33.022188 3562.9802,29.949099 3562.8098,28.846518 3562.5375,27.084286 3561.7361,27.456123 3556.1838,31.920912 3552.7098,34.714411 3549.4795,37 3549.0052,37 3547.6756,37 3545.6952,34.715851 3543.5226,30.676476 3541.0168,26.017661 3538.134,25.86355 3534.4905,30.19363 3531.1108,34.210242 3529.7293,37.785422 3530.449,40.653009 3530.8688,42.325591 3532.0718,43.095076 3535.2545,43.726961 L 3539.5,44.569838 3539.1898,50.034919 C 3539.0191,53.040714 3538.3544,57.075 3537.7127,59 3537.0656,60.940939 3536.5356,68.368958 3536.5229,75.675464 3536.4972,90.47445 3537.3601,92.826439 3544.0711,96.248446 3549.6522,99.094343 3554.3383,98.573882 3557.5626,94.75 z"/>
</svg>
