<?xml version="1.0" encoding="UTF-8"?>
<svg xmlns="http://www.w3.org/2000/svg" viewBox="3837.28 19.21 37.21 83.42">
  <path d="M 3840.1875,26.625 3840,29.34375 3840,35.625 C 3841.4845,34.042134 3842.8379,33 3843.5625,33 3844.2105,33 3845.9601,33.969633 3847.4688,35.15625 3849.9838,37.134681 3850.1757,37.706455 3849.5938,42.09375 3849.2447,44.725149 3848.242,48.581435 3847.375,50.65625 3845.4721,55.210545 3846.006,60.469532 3848.9375,66.09375 3852.1143,72.18871 3852.5197,80.077119 3850.125,88.96875 3848.0438,96.696201 3848.1806,98.839824 3850.5312,95.625 3853.9815,90.906383 3855.4577,69.454666 3852.5,67 3851.6695,66.310702 3850.2994,63.388869 3849.4688,60.53125 3848.0588,55.681269 3848.0974,55.066691 3849.9062,50.9375 3850.9722,48.504572 3852.1476,44.367881 3852.5312,41.75 3853.2045,37.156326 3853.0837,36.868413 3849.4062,33.5 3845.4039,29.834007 3843.1825,29.192529 3841.1875,31.1875 3839.278,33.097022 3839.811,31.116325 3841.75,29.09375 3846.4189,24.223589 3856.2195,24.413475 3860.9688,29.46875 3864.1861,32.893428 3865.1626,40.071178 3863.2812,46.40625 3861.364,52.862213 3862.3059,58.780504 3866.3438,65.90625 3869.2462,71.028261 3869.4993,72.240929 3869.5,80.5 3869.5006,88.052104 3869.1471,90.102523 3867.25,93.3125 3865.2405,96.712841 3865.1849,97.10174 3866.75,96.8125 3870.2212,96.171018 3872.4862,89.274579 3872.4688,79.5 3872.4544,71.429165 3872.1718,69.983797 3869.5938,65.5 3866.1277,59.471599 3864.9277,53.171981 3866.2188,47.625 3867.5932,41.718919 3867.239,33.392224 3865.4688,29.96875 3863.627,26.407149 3857.3572,23 3852.625,23 3850.7237,23 3847.0662,23.9 3844.5,25 3841.9794,26.080467 3840.9281,26.49989 3840.1875,26.625 z M 3852.375,30.125 C 3851.7958,30.535755 3852.2812,32.902829 3854.25,36.875 3857.1714,42.769065 3857.1926,42.849764 3855.9062,50.15625 3854.1048,60.389007 3854.3491,64.841362 3857.0625,70.03125 3858.8938,73.53404 3859.4331,76.13704 3859.4688,82 3859.4938,86.125 3859.0838,90.790793 3858.5938,92.375 3857.2739,96.640711 3860.0047,95.332683 3861.5938,90.9375 3863.378,86.002376 3862.3467,75.727683 3859.25,67.6875 3856.807,61.344279 3856.7088,60.468268 3857.8125,55.125 3859.663,46.165403 3859.336,39.05885 3856.875,35 3854.5988,31.245827 3852.9542,29.714245 3852.375,30.125 z"/>
</svg>
