<?xml version="1.0" encoding="UTF-8"?>
<svg xmlns="http://www.w3.org/2000/svg" viewBox="3669.34 17.56 41.52 88.77">
  <path d="M 3671.3438,64.25 C 3674.2485,65.318987 3679.5708,75.902772 3681.0625,84.46875 3681.7079,88.17518 3681.9562,93.177546 3681.625,95.59375 3681.2938,98.009953 3681.4342,100 3681.9062,100 3687.4934,100 3683.7619,73.838786 3677.0625,66 3673.3083,61.607307 3673.3061,60.542105 3676.9375,56.40625 3678.5515,54.567997 3680.9833,51.140606 3682.3438,48.78125 3686.7097,41.208914 3689.5937,22.427536 3686.5,21.71875 3685.9481,21.592306 3685.2339,24.636704 3684.9062,28.5 3684.1569,37.337308 3682.5229,43.281363 3679.2812,49 3676.7589,53.449813 3673.1459,57.726982 3671.3438,58.625 L 3671.3438,64.25 z M 3705.875,21.90625 C 3705.1898,21.74053 3704.6869,25.210644 3704.5312,32 3704.2306,45.116563 3701.9431,53.061874 3697,58 L 3693.4688,61.5 3697.25,69 C 3700.73,75.922359 3701.0664,77.366462 3701.6562,87.75 3702.0077,93.9375 3702.7066,99 3703.1875,99 3704.7653,99 3705.8342,94.405505 3705.4375,89.40625 3704.543,78.132898 3703.7787,74.592357 3700.9688,69.0625 3699.3414,65.86015 3698,62.995417 3698,62.6875 3698,62.379582 3699.3867,59.914669 3701.0625,57.21875 3705.9847,49.300703 3708.8632,34.926098 3707.2812,26.21875 3706.7725,23.418712 3706.2861,22.005682 3705.875,21.90625 z M 3696.75,22.03125 C 3696.0656,22.409937 3695.2734,25.252862 3694.8125,30.28125 3693.5815,43.712939 3690.8881,50.749426 3684.5,57.3125 L 3680.8125,61.09375 3683.25,63.375 C 3687,66.850382 3689.9061,76.951075 3690.6562,89.25 3691.2727,99.354101 3692.1676,102.29065 3693.4062,98.25 3694.257,95.47525 3694.2697,90.094688 3693.4688,82 3692.9312,76.568324 3691.7685,72.5075 3689.25,67.28125 L 3685.7812,60.0625 3688.75,56.28125 C 3694.7509,48.645857 3698,38.885191 3698,28.5 3698,23.726603 3697.4344,21.652563 3696.75,22.03125 z"/>
</svg>
