<?xml version="1.0" encoding="UTF-8"?>
<svg xmlns="http://www.w3.org/2000/svg" viewBox="2743.29 18.01 27.71 84">
  <path d="M 2748.5625,75.9375 2748.375,80.25 C 2748.4052,80.262138 2748.5443,80.231825 2748.5625,80.25 2749.1989,80.886422 2748.836,83.21818 2748.1875,85.125 L 2748,90 2747.7188,90.5625 C 2748.0357,91.140649 2747.6462,92.465808 2746.5,95.25 2745.289,98.1914 2749.2807,97.360273 2752.5,94 2756,90.346806 2757.9411,90.242371 2761.8125,93.5 2764.7599,95.980046 2769,96.880563 2769,95.03125 2769,94.501612 2768.0309,91.689112 2766.8438,88.78125 2764.9518,84.146527 2764.6489,81.220573 2764.375,64.9375 2763.9693,40.818776 2762.2652,33.000107 2755.7812,25.5625 2753.2567,22.666541 2751.8962,21.831945 2750.5625,22.34375 2749.0568,22.921522 2748.8646,23.756996 2749.4062,27.28125 2750.5528,34.740499 2751.3076,62.323603 2750.5625,69.28125 2750.0739,73.843874 2749.4865,75.746947 2748.5625,75.9375 z M 2750.7188,24.5 2753.8438,27.40625 C 2759.3867,32.595622 2761.1721,40.401371 2762.0625,63.40625 2762.4901,74.452244 2763.3092,85.078631 2763.9062,87 2765.6684,92.669729 2765.3512,93.381997 2762.0938,91.0625 2760.4963,89.925048 2758.4302,89 2757.5,89 2756.5698,89 2754.4543,89.964908 2752.7812,91.15625 L 2749.7188,93.34375 2750.3125,87.40625 C 2753.1038,59.590668 2753.4421,41.457819 2751.375,28.5 L 2750.7188,24.5 z"/>
</svg>
