<?xml version="1.0" encoding="UTF-8"?>
<svg xmlns="http://www.w3.org/2000/svg" viewBox="4052.28 14.81 47.74 89.2">
  <path d="M 4056.6315,98.29815 C 4054.4461,96.112813 4057.5276,85.578047 4061.7609,80.761737 4063.0069,79.344066 4063.1638,77.368628 4062.6114,70.050814 4062.2328,65.035441 4062.4088,57.257733 4063.0105,52.41582 4063.9281,45.030966 4063.8631,43.506259 4062.5698,42.077096 4059.088,38.229803 4056.7864,26.326094 4058.607,21.581787 4059.65,18.863679 4061.8783,19.841056 4063.9654,23.932151 4066.4798,28.860887 4068.0593,29.896664 4069.4381,27.520962 4071.5318,23.913584 4076.2331,19 4077.591,19 4079.1583,19 4084,26.16186 4084,28.480128 4084,31.73688 4088.023,29.917212 4091.6941,25 4093.7471,22.25 4095.8459,20 4096.3581,20 4097.8439,20 4096.2383,32.977932 4094.3924,35.887733 4093.481,37.32448 4091.7824,39.548701 4090.6177,40.830448 4088.713,42.926494 4088.4635,44.586102 4088.1374,57.330448 4087.938,65.123701 4087.7238,73.377264 4087.6616,75.671697 4087.5897,78.318599 4088.1666,80.526583 4089.2398,81.712535 4091.7128,84.445082 4093.4923,93.624099 4092.1292,96.615881 4090.6088,99.952782 4089.3219,99.620004 4085.0259,94.778932 L 4081.28,90.557863 4079.677,93.65775 C 4077.2778,98.297182 4075.4935,98.440681 4070.9741,94.357663 4066.7383,90.530817 4065.6346,90.642075 4062.1987,95.242263 4060.5645,97.430269 4057.465,99.131628 4056.6315,98.29815 z M 4062.8684,91.879019 C 4065.8496,89.168672 4066.1369,88.473702 4065.3684,85.833001 4064.3153,82.214753 4063.0514,82.024202 4060.802,85.144548 4058.8989,87.784346 4057.3069,95.016015 4058.6387,94.970687 4059.1124,94.954564 4061.0158,93.563314 4062.8684,91.879019 z M 4066.5002,35.999014 C 4067.0757,32.592654 4066.7915,31.540913 4064.5881,28.922289 4063.1646,27.230632 4062,25.431076 4062,24.923275 4062,24.415474 4061.487,24 4060.8601,24 4059.2231,24 4060.4631,34.531674 4062.4588,37.577456 4064.7011,40.999668 4065.7227,40.600657 4066.5002,35.999014 z M 4079.8848,88.75 C 4084.6004,78.228291 4085.5015,72.87592 4085.4824,55.5 4085.4683,42.591623 4085.1063,38.437255 4083.6093,34 4081.2504,27.007919 4078.2433,22 4076.4037,22 4073.0428,22 4067.128,37.557971 4065.1884,51.5 4063.6729,62.393469 4065.1053,77.195535 4068.4301,85 4073.525,96.959477 4075.8625,97.724723 4079.8848,88.75 z M 4089.6212,91.032534 C 4088.9208,86.652262 4087.0556,82 4086,82 4084.7535,82 4083.0453,86.952533 4083.6759,88.738151 4084.4764,91.005145 4088.0658,95 4089.3021,95 4089.8532,95 4089.9878,93.325416 4089.6212,91.032534 z M 4091.4639,37.267865 C 4093.8368,33.775949 4094.9975,27 4093.2229,27 4092.7954,27 4090.961,28.356072 4089.1464,30.013493 4086.2725,32.638362 4085.9365,33.444372 4086.5411,36.263493 4087.8,42.133671 4088.114,42.197737 4091.4639,37.267865 z"/>
</svg>
