<?xml version="1.0" encoding="UTF-8"?>
<svg xmlns="http://www.w3.org/2000/svg" viewBox="3190.75 17.89 23.06 91.25">
  <path d="M 3210.3125,94.03125 3210,92.65625 3211.8125,78.15625 3210.6875,77.25 3210.8125,50.03125 3210.9375,22.78125 3207.7188,23.3125 C 3205.9453,23.599868 3202.7989,23.344346 3200.7188,22.75 3198.4277,22.095414 3196.5892,22.037735 3196.0625,22.59375 3195.5842,23.098597 3194.9271,32.275 3194.5938,43 3192.7515,102.26723 3192.7575,101.55004 3194.1562,102.6875 3194.8974,103.2902 3196.4,103.95957 3197.5,104.15625 3198.6,104.35294 3201.1774,104.59543 3203.2188,104.71875 3207.765,104.99339 3210,102.37773 3210,96.78125 3210,95.652732 3210.1241,94.72498 3210.3125,94.03125 z M 3196.7188,24.6875 3200,25.34375 C 3201.7938,25.702511 3204.4313,26.00001 3205.875,26 L 3208.5,26 3208.1875,62.6875 C 3208.02,82.865061 3207.5015,100.06591 3207.0312,100.90625 3206.1251,102.52536 3200.7355,103.14593 3197.4688,102 3195.6289,101.3546 3195.5322,100.30781 3195.8125,80.40625 3195.9744,68.9089 3196.4832,54.325 3196.9375,48 3197.3918,41.675 3197.5367,33.840011 3197.25,30.59375 L 3196.7188,24.6875 z"/>
</svg>
