<?xml version="1.0" encoding="UTF-8"?>
<svg xmlns="http://www.w3.org/2000/svg" viewBox="480.12 12.11 24.69 91.65">
  <path d="M 494,16.375 C 493.13964,16.274323 491.93496,16.563505 489.71875,17.15625 483.75769,18.75059 483.33803,20.102298 485.40625,31.15625 486.37863,36.353261 486.97154,45.363535 487,55 487.03797,67.86061 486.62075,72.541339 484.53125,82.4375 483.14617,88.997436 482.11827,94.41108 482.25,94.46875 482.38173,94.526419 484.64581,95.605065 487.28125,96.875 492.92587,99.594964 494.44111,99.228863 496.3125,94.75 498.22437,90.174251 502,72.257562 502,67.71875 502,65.680779 502.11777,64.642538 502.65625,64.34375 L 502.65625,60 C 502.236,59.558513 502,59.188213 502,58.875 502,57.889686 502.26157,57.336506 502.65625,57 L 502.65625,52 502.8125,52 C 502.16077,50.619765 501.91882,48.358526 501.5625,43.03125 500.80913,31.767515 498.42591,20.747744 496.125,17.90625 495.36281,16.964979 494.86036,16.475677 494,16.375 z M 492.78125,19.125 C 493.54286,19.203531 493.96312,19.617796 494.5625,20.4375 497.65374,24.665022 500.20635,46.999114 499.40625,63 498.9255,72.614451 497.50399,81.465404 494.90625,91.25 494.126,94.188866 493.45061,94.990541 491.71875,94.9375 489.95987,94.883631 486.10577,93.601788 484.21875,92.4375 484.05622,92.337222 484.90049,88.70414 486.09375,84.375 487.75833,78.335961 488.36487,72.65939 488.75,60 489.24726,43.654752 487.7723,24.890711 485.78125,22.3125 485.12786,21.46643 486.07786,20.76922 489.0625,19.875 490.94446,19.311152 492.01964,19.046469 492.78125,19.125 z"/>
</svg>
