<?xml version="1.0" encoding="UTF-8"?>
<svg xmlns="http://www.w3.org/2000/svg" viewBox="1352.32 12.88 26.8 90.56">
  <path d="M 1355.2937,92.75 C 1355.566,90.4125 1356.3156,84 1356.9595,78.5 1358.7274,63.399281 1358.5013,32.688287 1356.5767,26.5 1354.3189,19.240311 1354.4955,17 1357.3257,17 1359.583,17 1363.9937,20.673904 1364.0062,22.564451 1364.0095,23.079003 1364.6058,24.637237 1365.3313,26.027193 1368.6931,32.468677 1371.8673,50.07998 1373.0527,68.867943 1373.6299,78.015279 1374.5182,87.299584 1375.0266,89.499731 1377.1211,98.562632 1375.3062,99.328178 1368.5066,92.25 1365.7258,89.355196 1363.6617,87.913996 1363.2218,88.559987 1360.4312,92.658069 1356.6032,97 1355.7806,97 1355.2143,97 1355.0082,95.200838 1355.2937,92.75 z M 1371.6533,84.750875 C 1370.7384,82.180391 1369.9034,74.965732 1369.5409,66.5 1368.8349,50.012969 1366.2905,35.801611 1362.5807,27.625696 1361.1147,24.394829 1359.7286,21.938104 1359.5004,22.166306 1359.2722,22.394508 1359.5621,27.062945 1360.1448,32.54061 1361.1468,41.961873 1360.5879,81.164084 1359.3683,87 1358.864,89.413083 1358.9523,89.387007 1361.9088,86.25 1364.92,83.054983 1367,82.104397 1367,83.923275 1367,85.534723 1372.3918,91.324689 1372.7873,90.138012 1372.9956,89.513068 1372.4853,87.088856 1371.6533,84.750875 z"/>
</svg>
