<?xml version="1.0" encoding="UTF-8"?>
<svg xmlns="http://www.w3.org/2000/svg" viewBox="126.08 46.85 27.92 56.51">
  <path d="M 138.625,50.65625 136.28125,50.65625 C 136.42818,51.54484 135.16554,55.319865 133.3125,59.40625 130.61004,65.365794 129.62927,69.146104 128.96875,76.1875 128.0799,85.663153 128.58325,94.161978 130.21875,97.34375 131.99283,100.79513 133.05884,97.645693 132,92.0625 129.74821,80.188815 131.67097,66.154054 136.78125,56.9375 138.18809,54.400204 138.71241,52.356739 138.625,50.65625 z M 145.8125,50.65625 144.96875,50.65625 C 144.38629,51.173683 142.65419,55.557952 141.03125,60.75 137.50332,72.03638 137.10552,80.525738 139.65625,91.09375 141.56496,99.00183 143.6551,100.57388 142.53125,93.25 140.45813,79.739886 140.39643,74.557233 142.1875,65.25 143.18139,60.085264 144.45108,55.025662 145,54 145.82761,52.453593 146.05329,51.197559 145.8125,50.65625 z M 150.71875,51.375 C 148.76326,49.419507 145.00027,66.655599 145,77.5625 144.99983,84.427615 147.14806,94.213426 149.21875,96.75 150.21029,97.964633 152,98.464724 152,97.53125 152,97.276612 151.0133,94.689112 149.8125,91.78125 146.88869,84.70093 146.69768,67.57713 149.4375,58.21875 150.44827,54.766264 151.02587,51.68212 150.71875,51.375 z M 145.8125,50.65625 C 145.68212,50.363136 145.47637,50.224899 145.03125,50.5 145.01877,50.507715 144.98257,50.643972 144.96875,50.65625 L 145.8125,50.65625 z"/>
</svg>
