<?xml version="1.0" encoding="UTF-8"?>
<svg xmlns="http://www.w3.org/2000/svg" viewBox="1636.42 17.75 23.71 90.26">
  <path d="M 1643.5,103 C 1639.1204,102.45254 1639.1633,102.59335 1640.9083,94.5 1642.2356,88.344151 1641.5284,45.519984 1640.0346,41.590901 1638.4221,37.3499 1638.7156,25.480903 1640.4689,24.025815 1642.3886,22.432634 1648.8623,21.855942 1651.1405,23.075175 1654.9187,25.097206 1656.7345,39.07226 1657.5625,72.5 1658.1274,95.30627 1658.0579,96.655701 1656.1659,99.630386 1653.9935,103.04589 1650.7565,103.90706 1643.5,103 z M 1652.9134,99.100233 1655.3267,97.244938 1654.6694,72.872469 C 1653.9968,47.934584 1652.6996,32.549594 1650.8739,27.856274 1649.9749,25.545439 1649.32,25.230645 1645.6727,25.356274 L 1641.5,25.5 1641.8702,32.5 C 1642.0738,36.35 1642.6709,40.625 1643.1971,42 1644.2893,44.853689 1644.52,91.711013 1643.4696,97.310488 L 1642.7774,101 1646.6387,100.97776 C 1648.8356,100.96511 1651.5402,100.15583 1652.9134,99.100233 z"/>
</svg>
