<?xml version="1.0" encoding="UTF-8"?>
<svg xmlns="http://www.w3.org/2000/svg" viewBox="944.87 28.4 41.9 74.16">
  <path d="M 949.28125,43.8125 949,46.25 C 950.29303,45.847884 951.6926,45.447296 952.5625,45.0625 959.39595,42.039738 960.70534,42.289819 961.21875,46.6875 961.52602,49.319518 960.85574,51.982821 958.9375,55.9375 957.45586,58.992055 955.97174,62.333111 955.625,63.34375 955.09368,64.892377 954.34485,65.054977 950.875,64.46875 947.63745,63.92177 946.86684,64.088329 947.21875,65.15625 947.46489,65.903185 949.43674,66.725 951.59375,67 955.15786,67.454394 955.52927,67.78591 955.8125,70.71875 956.07228,73.408726 955.6115,74.262362 953.0625,75.8125 949.57411,77.933914 949.96405,79.341273 953.65625,77.9375 957.24006,76.574939 958.36842,76.756496 959.75,78.96875 961.59324,81.920256 958.60633,87.697985 954.8125,88.53125 951.45197,89.269345 952.0248,91 955.625,91 957.19603,91 959.36989,92.307698 961.4375,94.5 965.8598,99.189003 968.41261,99.024351 973.4375,93.6875 975.67594,91.310094 978.4,89.008755 979.5,88.59375 981.37815,87.885167 981.3401,87.760073 978.78125,86.40625 974.504,84.143266 972.76793,79.491573 974.9375,76.0625 975.69106,74.871469 976.33349,74.828145 978.5625,75.84375 982.11918,77.464283 983.10007,76.330075 980.1875,73.96875 978.25164,72.39927 977.99111,71.514543 978.5625,68.46875 979.02215,66.018613 980.02044,64.481088 981.625,63.75 984.77089,62.316639 984.62864,61.201256 981.25,60.8125 978.98525,60.551912 977.92933,59.365554 975.28125,54.09375 973.51274,50.573003 972.27796,47.347332 972.53125,46.9375 973.68848,45.06506 971.55074,36.823826 969.28125,34.375 967.1218,32.044922 966.33111,31.811116 962.1875,32.3125 959.61532,32.623739 955.025,34.230617 952,35.90625 951.25558,36.318606 950.74547,36.51508 950.09375,36.84375 L 949.8125,39.40625 C 950.14428,39.238 950.48882,39.166089 950.8125,38.96875 962.62534,31.766741 970.46572,34.265239 969.90625,45.0625 969.79986,47.115711 971.00262,51.255578 972.875,55.34375 976.67815,63.647623 976.78015,67.244596 973.4375,73.53125 970.92888,78.249318 970.91443,78.435414 972.46875,83.1875 974.25466,88.647593 973.71462,90.499378 969.34375,93.9375 L 966.65625,96.0625 963.84375,93.34375 C 960.69641,90.328407 960.47403,89.113512 962.1875,84.375 963.2303,81.49119 963.05962,80.540907 960.6875,75.96875 956.91332,68.694176 957.10552,63.774626 961.5,56 965.15052,49.541564 965.40273,48.32616 964.34375,43.03125 963.53528,38.988908 961.94155,38.360789 957.78125,40.46875 955.23125,41.760792 952.36309,42.867911 949.28125,43.8125 z"/>
</svg>
