<?xml version="1.0" encoding="UTF-8"?>
<svg xmlns="http://www.w3.org/2000/svg" viewBox="2483.83 16.26 43.34 88.28">
  <path d="M 2496.7276,98.158574 C 2493.2786,96.095292 2490.3078,90.082877 2489.4452,83.420264 2488.7313,77.906099 2489.7961,71.461089 2493.6702,57.848326 2496.757,47.001992 2496.5469,41.720242 2493,41.004493 2488.4748,40.091316 2486.8745,38.483059 2486.311,34.282258 2485.8279,30.680422 2486.1447,29.828248 2489.1334,26.689769 2494.1463,21.425658 2496.1411,21.229245 2500.9026,25.530928 2505.5798,29.756559 2506.8553,29.638672 2514.383,24.285029 2520.0243,20.272957 2521.2639,20.970329 2519.5963,27.217858 2518.8198,30.127128 2517.1221,32.506337 2513.7514,35.409038 L 2509.001,39.5 2508.9564,47 C 2508.9158,53.81656 2507.4728,61.94854 2505.851,64.5 2505.5015,65.05 2504.2774,68.551027 2503.131,72.280059 2500.5102,80.804555 2501.0953,87.361118 2504.6868,89.714371 2512.0661,94.549443 2518.6978,79.897962 2514.5068,68.019247 2512.2889,61.733056 2514.3032,60.090856 2519.3563,64.06561 2522.3811,66.444968 2525.1667,74.770043 2525.1667,81.431079 2525.1667,87.586624 2520.5574,95.971782 2515.666,98.714565 2512.4349,100.52638 2500.0792,100.16364 2496.7276,98.158574 z M 2512.328,97.345487 C 2515.3978,96.838272 2516.6623,95.911121 2518.7116,92.664852 2522.618,86.476743 2523.3714,82.565359 2522,75.594464 2520.7934,69.461586 2517.5693,63.530149 2515.977,64.514186 2515.4985,64.809923 2515.7579,66.896791 2516.5535,69.151671 2519.5691,77.698727 2517.1012,87.655543 2510.8669,92.094766 2508.2408,93.96471 2507.5572,94.059228 2504.8297,92.929474 2498.3559,90.247935 2497.294,80.396044 2502.0349,67 2504.0801,61.22111 2505.2165,55.77889 2505.5848,50 2506.3523,37.955846 2506.6158,37.150834 2510.3784,35.356592 2515.611,32.861338 2519.6154,24.503304 2515,25.710251 2513.9,25.997907 2513,26.590636 2513,27.027425 2513,27.464214 2510.9152,28.830804 2508.3672,30.064292 L 2503.7344,32.306996 2500.2843,28.153498 C 2496.4575,23.546561 2494.4021,23.045059 2491.2777,25.955909 2488.2343,28.79127 2487.4478,33.508359 2489.4971,36.635897 2490.9505,38.854047 2491.6395,39.102616 2494.7283,38.523151 L 2498.2856,37.855789 2497.7342,46.677894 C 2497.4257,51.613782 2496.2278,58.36331 2495.0147,62 2492.3683,69.93403 2491.3645,82.016151 2492.8864,87.616134 2495.1842,96.07142 2501.3536,99.158783 2512.328,97.345487 z"/>
</svg>
