<?xml version="1.0" encoding="UTF-8"?>
<svg xmlns="http://www.w3.org/2000/svg" viewBox="3210.09 12.24 75.34 93.16">
  <path d="M 3265.0124,90.25 C 3265.0337,88.955274 3271.8796,84.996204 3272.4635,85.940915 3272.769,86.435329 3271.8291,87.775884 3270.3747,88.919925 3267.7395,90.992766 3264.9889,91.675036 3265.0124,90.25 z M 3255.0386,100.26725 C 3254.2348,99.951076 3250.7076,97.25807 3247.2004,94.28279 3241.1381,89.140019 3240.717,88.949775 3238.6618,90.425852 3234.1572,93.661183 3225.4134,98.662173 3223.2965,99.214029 3220.4232,99.963059 3218.6632,98.499618 3215.8235,93 3213.8737,89.223792 3213.512,87.052415 3213.5743,79.5 3213.6533,69.936937 3215.2879,64.840624 3221.3624,55.21794 L 3224.0337,50.986369 3222.0433,47.08495 C 3217.3639,37.912496 3218.4766,29.991353 3225.4698,22.692878 3230.9278,16.996559 3233.5242,16.47082 3232.5954,21.25 3230.2543,33.296788 3230.7613,41 3233.8953,41 3236.8953,41 3243.4269,35.568203 3246.8599,30.218257 3250.4616,24.605604 3252.2779,23.425043 3254.0418,25.550357 3257.2347,29.397618 3251.8391,41.558043 3243.9385,48.320679 L 3240.0738,51.628705 3244.2187,54.814352 C 3246.4984,56.566459 3249.2047,58 3250.2328,58 3252.749,58 3258.2905,51.784983 3261.075,45.839959 3262.3218,43.177982 3263.7415,41 3264.23,41 3264.7184,41 3264.8283,40.531261 3264.4743,39.958358 3264.1202,39.385455 3264.767,35.833517 3265.9116,32.065161 3268.1118,24.821298 3273.0426,19 3276.9781,19 3280.0582,19 3282.001,22.865271 3281.9906,28.972506 3281.9807,34.79688 3281.6879,35.433002 3271.7012,51.327841 3261.4875,67.583723 3253.565,71.170275 3241.5,65 3232.3681,60.329785 3231.7895,60.570793 3227.6645,70.762636 3225.117,77.056969 3224.9317,84 3227.3111,84 3227.8883,84 3231.1812,82.162295 3234.6286,79.916211 3238.5644,77.351967 3241.5673,76.045269 3242.699,76.404451 3243.6902,76.719067 3247.3069,79.713443 3250.7361,83.058619 L 3256.9709,89.140757 3262.3321,84.070379 C 3265.2807,81.28167 3267.9873,79 3268.3466,79 3270.0861,79 3268.5337,81.612799 3263.8549,86.559861 3256.7094,94.11517 3254.7476,93.987213 3247.8104,85.513367 3244.8897,81.945719 3241.9128,79.020719 3241.1951,79.013367 3240.4775,79.006015 3237.2396,80.8 3234,83 3225.1671,88.998303 3223,88.338975 3223,79.653324 3223,74.59384 3228.0497,63.668763 3231.4042,61.470832 3233.9129,59.827049 3234.8298,59.999127 3242.7773,63.605381 3245.6799,64.922422 3248.8861,66 3249.9023,66 3257.7056,66 3263.9697,61.277896 3269.4011,51.301078 3271.4375,47.560485 3274.4538,42.675459 3276.1039,40.445465 3281.0698,33.734591 3281.1686,20.991904 3276.25,21.596379 3275.5625,21.680871 3274.4375,21.809325 3273.75,21.881833 3271.4347,22.126022 3268.1151,28.45618 3267.133,34.5 3265.8626,42.317758 3262.0583,50.299294 3256.6957,56.397769 3252.6943,60.948268 3252.1424,61.249289 3248.9119,60.643258 3246.9002,60.265859 3243.3766,58.179701 3240.5506,55.692916 L 3235.6662,51.394854 3240.3796,48.447427 C 3246.1021,44.86902 3250.8177,37.665926 3251.6769,31.19067 L 3252.2994,26.5 3250.1497,28.404988 C 3248.9674,29.452731 3248,30.737771 3248,31.260632 3248,32.789319 3243.2136,38.044451 3239.5679,40.518507 3235.0099,43.611628 3232.1773,44.392045 3230.5152,43.012635 3228.4743,41.318837 3227.5653,31.783313 3228.9286,26.369093 3229.5674,23.832288 3229.843,21.509685 3229.5411,21.207751 3228.4086,20.075247 3224.0455,25.418187 3222.5724,29.741455 3220.8162,34.895715 3221.7253,41.14457 3225.0552,46.80716 3226.1248,48.626098 3227,50.551836 3227,51.086578 3227,51.62132 3225.2,54.336007 3223,57.119216 3220.8,59.902424 3219,62.987748 3219,63.975491 3219,64.963233 3218.3278,67.060324 3217.5062,68.635693 3214.53,74.342272 3216.4397,91.482449 3220.5414,95.877929 3222.2574,97.716733 3226.3906,96.265801 3233.8573,91.203602 3236.9608,89.099491 3240.0279,87.062742 3240.6731,86.677494 3241.3538,86.271049 3244.4987,88.290427 3248.1657,91.488521 3251.6415,94.519834 3255.1636,97.05182 3255.9926,97.115154 3259.5818,97.389345 3261.7428,96.696642 3265.5,94.067669 3269.9382,90.962186 3274,89.383056 3274,90.763093 3274,91.99598 3265.8519,97.746126 3261.5691,99.535571 3257.8228,101.1009 3257.3053,101.15887 3255.0386,100.26725 z"/>
</svg>
