<?xml version="1.0" encoding="UTF-8"?>
<svg xmlns="http://www.w3.org/2000/svg" viewBox="60.02 21.53 36.45 42.47">
  <path d="M 93.34375,36.28125 93.53125,34 C 90.826086,34.006196 89.597278,34.73674 87.28125,37.75 78.196979,49.569055 77.268019,55.515894 84.125,57.90625 90.12745,59.998715 92.662768,58.332652 87.03125,56 82.444229,54.099994 81.618178,52.653834 82.9375,48.65625 83.560165,46.769555 85.446157,43.128341 87.125,40.59375 89.332657,37.260796 91.191075,36.010481 93.34375,36.28125 z M 94.3125,25.3125 94.46875,23.53125 C 89.632896,24.715405 84.811291,29.458591 78.1875,39.84375 70.725982,51.542347 71.046374,51.241531 67.21875,49.78125 64.438991,48.720741 63.772929,48.746178 62.96875,50 62.022754,51.474935 62.465675,55.429445 64.09375,59.75 64.560065,60.9875 65.417036,62 66,62 66.738049,62 66.752064,61.409354 66.03125,60.0625 65.461899,58.998658 65,56.716117 65,54.96875 65,51.878243 65.088491,51.797498 68.5,52.4375 71.563674,53.012249 72.124735,52.805541 72.90625,50.75 73.398285,49.45585 74.882084,47.056497 76.1875,45.4375 77.492916,43.818504 79.220063,41.173499 80.03125,39.5625 80.842437,37.951501 83.991597,34.014001 87.03125,30.8125 90.234293,27.438909 92.296866,25.797758 94.3125,25.3125 z"/>
</svg>
