<?xml version="1.0" encoding="UTF-8"?>
<svg xmlns="http://www.w3.org/2000/svg" viewBox="3815.48 13.25 22.45 89.1">
  <path d="M 3822.3226,97.303783 C 3818.1079,96.483337 3817.5355,94.495578 3817.5172,80.617067 3817.4769,49.931677 3818.4039,19.832591 3819.4305,18.494358 3820.3358,17.314315 3821.5529,17.301882 3827.3565,18.413398 3831.1276,19.135641 3834.625,20.350589 3835.1287,21.113283 3835.6533,21.907764 3835.9237,37.595356 3835.7617,57.845655 L 3835.4789,93.191311 3832.6837,95.595655 C 3830.0205,97.886422 3827.4731,98.306387 3822.3226,97.303783 z M 3827,72.20289 C 3832.1308,68.536029 3833,67.093028 3833,62.241483 3833,58.164156 3832.8463,57.912635 3830.75,58.559298 3822.4834,61.109354 3820,63.877067 3820,70.540044 3820,76.647213 3820.5864,76.786509 3827,72.20289 z M 3827.2624,81.63265 C 3832.55,78.9902 3833,78.499981 3833,75.38265 3833,71.064704 3831.8225,71.101076 3825.2587,75.621777 3820.9128,78.614866 3820,79.757639 3820,82.205111 3820,83.833967 3820.3431,85.016667 3820.7624,84.833333 3821.1817,84.65 3824.1067,83.209692 3827.2624,81.63265 z M 3825.5719,58.404978 C 3828.0074,56.977716 3830,55.129571 3830,54.297989 3830,53.364861 3830.5743,53.006386 3831.5,53.361626 3832.712,53.826695 3833,52.962274 3833,48.860207 3833,43.877831 3832.951,43.795483 3830.3714,44.442917 3828.9257,44.80577 3826.1842,46.161734 3824.2793,47.456171 3821.0671,49.638948 3820.8043,50.215616 3820.6571,55.404847 3820.5698,58.482181 3820.6436,61 3820.8211,61 3820.9986,61 3823.1365,59.83224 3825.5719,58.404978 z M 3827.3866,43.356628 C 3832.6043,39.970072 3833,39.441407 3833,35.856628 3833,31.276818 3832.0666,31.075378 3825.9073,34.325845 3821.7243,36.533345 3821.4731,36.914966 3820.9722,41.825845 3820.682,44.67163 3820.7434,47 3821.1088,47 3821.4742,47 3824.2992,45.360483 3827.3866,43.356628 z M 3831.4535,92.75 C 3831.7239,91.5125 3832.07,88.925 3832.2226,87 3832.4694,83.886106 3832.212,83.46658 3829.8896,83.197053 3826.1773,82.766216 3821,87.313888 3821,91.00556 3821,94.211939 3821.9506,94.809321 3827.2309,94.921053 3830.3199,94.986414 3831.0465,94.612812 3831.4535,92.75 z M 3829.5,30.124462 C 3831.8861,28.743264 3832.5,27.705726 3832.5,25.054326 L 3832.5,21.720753 3826.75,21.295085 3821,20.869417 3821,27.043116 3821,33.216816 3823.75,32.53892 C 3825.2625,32.166078 3827.85,31.079571 3829.5,30.124462 z"/>
</svg>
