<?xml version="1.0" encoding="UTF-8"?>
<svg xmlns="http://www.w3.org/2000/svg" viewBox="1605.67 7.85 41.74 93.99">
  <path d="M 1633,93.583333 C 1633,92.804167 1633.42,92.016667 1633.9333,91.833333 1634.4466,91.65 1635.9811,88.420377 1637.3432,84.656393 1640.0735,77.111601 1639.7168,74.722444 1634.9566,68.671658 1632.5836,65.655243 1632.5556,66.017858 1636.0549,54.464497 1637.2686,50.457358 1637.07,35.419966 1635.7453,31.027631 1635.1694,29.117828 1634.091,26.948185 1633.3491,26.206202 1632.6071,25.46422 1632,24.269386 1632,23.551016 1632,22.832646 1631.2885,21.654363 1630.4188,20.932609 1629.153,19.882092 1628.443,19.866789 1626.8591,20.855895 1625.0314,21.997348 1624.9686,21.927102 1626.0355,19.933672 1626.6706,18.746888 1626.9828,16.690569 1626.7293,15.364074 1626.4757,14.037579 1626.6579,12.711448 1627.1341,12.417116 1627.6103,12.122783 1628,12.843139 1628,14.017906 1628,15.192673 1629.35,17.503846 1631,19.153846 1632.65,20.803846 1634,22.514131 1634,22.954478 1634,23.394826 1634.7115,24.345637 1635.5812,25.067391 1636.8212,26.096525 1637.5735,26.122945 1639.0676,25.189836 1641.4252,23.717482 1642,23.697857 1642,25.089707 1642,25.689046 1641.1239,26.926546 1640.0531,27.839707 1638.4516,29.205555 1638.2076,30.333542 1638.6776,34.200114 1639.2392,38.820627 1639.3018,38.89139 1642.3744,38.378364 1645.348,37.881884 1645.4056,37.932952 1643.5589,39.42825 1642.4912,40.292713 1641.0287,41 1640.3089,41 1639.3914,41 1639,42.620336 1639,46.418213 1639,49.398229 1638.7269,52.548229 1638.393,53.418213 1637.9431,54.590605 1638.409,55 1640.193,55 1641.5169,55 1643.14,54.46 1643.8,53.8 1644.4667,53.133333 1645,53.044444 1645,53.6 1645,55.31065 1642.7011,57 1640.3732,57 1638.8742,57 1637.6323,58.030629 1636.5732,60.153638 1634.5791,64.151026 1634.5953,65.421054 1636.6625,67.127555 1639.4019,69.388984 1642.2513,76.859772 1641.5106,79.838866 1640.4677,84.033602 1634.9982,95 1633.9489,95 1633.427,95 1633,94.3625 1633,93.583333 z M 1618.7729,89.75 C 1613.8133,80.661633 1613.8105,80.639097 1616.9137,74.797673 1620.8858,67.320906 1621.3336,65.374966 1619.8524,62.028618 1618.5038,58.981991 1616.4136,57.570917 1611.75,56.558744 1607.6655,55.672251 1608.0936,52.784492 1612.25,53.18603 1615.8042,53.529385 1615.5677,54.225458 1615.1786,44.567388 1615.039,41.10384 1614.5628,39.996 1613,39.5 1610.0852,38.574883 1610.5038,36.658649 1613.4587,37.400274 1615.7118,37.965767 1616.046,37.584043 1617.4564,32.834892 1618.8238,28.230319 1618.8284,27.467877 1617.4977,25.99747 1615.7252,24.038838 1615.4566,22.056625 1617.2,23.8 1618.7676,25.367586 1621.7124,25.3386 1622.2798,23.75 1622.5253,23.0625 1622.9916,22.741337 1623.3161,23.036304 1623.6405,23.331272 1622.5186,26.481272 1620.8229,30.036304 1618.238,35.455863 1617.7314,37.735209 1617.6872,44.146516 1617.6479,49.833273 1618.0861,52.482527 1619.3971,54.48328 1620.3666,55.962916 1620.9048,57.428519 1620.5932,57.740176 1620.2815,58.051833 1620.9328,59.773163 1622.0404,61.565354 1623.9769,64.698721 1623.9897,64.990513 1622.372,69.161942 1621.4468,71.547874 1620.1378,74.175 1619.4632,75 1616.6297,78.46503 1616.8175,80.865703 1620.4374,87.453193 1622.3968,91.018994 1624,94.400762 1624,94.968233 1624,97.572722 1621.8951,95.471359 1618.7729,89.75 z"/>
</svg>
