<?xml version="1.0" encoding="UTF-8"?>
<svg xmlns="http://www.w3.org/2000/svg" viewBox="3695.19 14.37 114 91.92">
  <path d="M 3701.6513,98.292565 C 3700.3676,95.810149 3700.3667,95.031346 3701.6444,91.980379 3704.0902,86.140002 3709.708,81.166332 3714.7054,80.416925 3718.4229,79.859456 3719.9591,80.232531 3724.9922,82.915151 L 3730.9089,86.068712 3732.5773,83.522407 C 3734.698,80.285823 3734.1283,70.699748 3731.6692,68.240591 3730.1253,66.696761 3729.4868,66.76624 3722.386,69.250634 L 3714.7607,71.91855 3711.0045,70.002291 C 3708.9386,68.948348 3706.3516,66.566261 3705.2557,64.708763 3702.2937,59.688647 3700.7413,48.949956 3701.5588,39.135979 3702.2216,31.179459 3702.4516,30.548422 3705.9711,27.028907 3708.0133,24.986732 3710.6552,23.061922 3711.8421,22.751551 3714.9023,21.951273 3714.5041,23.206044 3711.0795,25.154254 3705.6909,28.219737 3704.7135,30.957755 3704.6016,43.301031 3704.4805,56.655557 3706.0113,62.990248 3710.2142,66.526768 3713.7366,69.490657 3714.7723,69.528773 3722.4052,66.975412 3725.6531,65.888935 3729.3552,65 3730.6322,65 3733.9094,65 3736.0989,68.895213 3736.6548,75.714251 3737.0343,80.370279 3736.7264,82.134593 3735.0779,84.75 3732.5253,88.79975 3730.4082,88.849035 3724.3389,85 3721.7372,83.35 3718.7821,82 3717.7721,82 3712.297,82 3704.0963,88.316377 3704.0316,92.583333 3703.975,96.313755 3705.2544,96.07147 3709.7634,91.497868 3712.2023,89.024041 3714.7426,87 3715.4086,87 3716.0746,87 3718.9271,88.969704 3721.7475,91.377119 3726.4823,95.418739 3727.1726,95.69989 3730.7529,95.045187 3732.8855,94.655209 3737.1693,92.460506 3740.2725,90.168068 3743.3757,87.875631 3746.2713,86.011518 3746.7073,86.025596 3747.1433,86.039674 3749.9541,87.614674 3752.9537,89.525596 3755.9532,91.436518 3759.3867,93 3760.5837,93 3761.7807,93 3766.4252,91.140335 3770.9048,88.867412 3778.7473,84.88816 3779.1218,84.800293 3780.9992,86.499295 3782.0716,87.469755 3783.2158,89.10442 3783.5419,90.131884 3784.4801,93.087876 3786,92.306398 3786,88.868034 3786,85.085242 3782.4525,79 3780.2472,79 3779.3728,79 3777.947,79.616175 3777.0787,80.369279 3774.1914,82.873495 3761.8781,87.186221 3759.395,86.562991 3754.0403,85.219047 3751.831,74.989173 3755.4144,68.130718 L 3757.1747,64.761436 3763.1806,65.440925 C 3766.4839,65.814644 3770.2988,66.543321 3771.6584,67.060207 3775.7002,68.596909 3781.5244,68.188922 3783.2244,66.25 3786.4473,62.574255 3788.4133,57.144604 3790.1257,47.18988 3791.829,37.288508 3792.1064,36.624448 3797.1243,30.43988 3802.0256,24.398886 3804,22.803797 3804,24.885119 3804,25.371935 3802.0272,28.184435 3799.6161,31.135119 3795.0479,36.725414 3793,42.899931 3793,51.082465 3793,55.703773 3789.4957,63.187302 3785.1567,67.832299 3782.4087,70.773995 3781.784,70.994563 3777.8263,70.420423 3775.4469,70.075228 3771.2808,69.164416 3768.5685,68.396397 3765.8562,67.628379 3762.6454,67 3761.4335,67 3758.7683,67 3756,70.897048 3756,74.649092 3756,78.53191 3759.9193,86.281314 3761.3559,85.239178 3761.9852,84.782737 3765.2,83.341745 3768.5,82.036974 3771.8,80.732204 3775.5732,78.840115 3776.8849,77.832332 3780.2629,75.236905 3782.4418,75.547878 3785.3848,79.045469 3789.9499,84.470788 3790.7383,92.210295 3787.3367,98.206326 3786.4024,99.853081 3783.6714,97.399186 3781.9381,93.355626 3779.5871,87.871034 3777.6839,87.749224 3768.5695,92.5 3760.5814,96.66369 3759.3355,96.757148 3754.8979,93.525528 3748.9318,89.180767 3747.575,88.903676 3743.0269,91.101081 3740.7576,92.197478 3738.6659,93.707061 3738.3786,94.455709 3737.6443,96.369369 3733.1079,98.061789 3728.1867,98.25803 3724.5055,98.404828 3723.4861,97.912048 3719.6183,94.116085 3715.8478,90.415657 3714.9409,89.961265 3713.1929,90.896786 3712.0734,91.495883 3710.1036,93.896688 3708.8154,96.231908 3705.9391,101.44602 3703.6261,102.11134 3701.6513,98.292565 z M 3766.8199,60.768243 3761.1398,56.725172 3756.9674,58.899962 C 3750.9884,62.016399 3750,60.829943 3750,50.536486 3750,46.016243 3750.6633,40.113938 3751.474,37.420253 L 3752.9479,32.522645 3748.7658,28.261322 C 3746.4656,25.917595 3744.0635,24 3743.4278,24 3742.7921,24 3741.0176,25.810089 3739.4845,28.022421 L 3736.6969,32.044841 3738.302,37.772421 C 3740.5303,45.724002 3741.187,51.570044 3740.4238,56.659602 3739.6581,61.765486 3737.9451,62.221191 3732.025,58.89391 L 3728.2777,56.78782 3724.3097,59.413769 C 3720.9342,61.647564 3719.7643,61.919781 3716.4761,61.236592 3712.6841,60.44873 3712.5779,60.303633 3710.8867,53.602534 3708.5166,44.210908 3709.2631,40.416577 3713.9518,38.02461 3716.1415,36.907474 3718.1588,36.480088 3718.9458,36.96653 3719.8615,37.532422 3719.2874,37.997608 3717.0732,38.483929 3712.3633,39.51839 3711.5604,42.61291 3713.7308,51.36554 3715.812,59.758289 3717.4873,60.610928 3724.5423,56.868232 3728.7643,54.628484 3728.9674,54.614029 3732.5061,56.301503 3734.5033,57.253905 3736.5565,57.774128 3737.0687,57.457555 3738.335,56.674903 3738.0748,46.631444 3736.6292,40.5 3735.3759,35.183837 3735.0527,35.022372 3728.7479,36.561939 3726.2744,37.165911 3725.8384,36.857374 3724.4421,33.515571 3721.2951,25.983876 3724.4936,19.364566 3729.2051,23.658501 3730.4673,24.808866 3732.5251,26.278905 3733.7781,26.925254 3735.8268,27.982086 3736.4223,27.692551 3739.6921,24.050217 3741.6919,21.822598 3743.841,20 3744.4679,20 3745.0948,20 3747.1342,21.575 3749,23.5 3750.8658,25.425 3752.8168,27 3753.3356,27 3753.8543,27 3756.4407,25.669794 3759.0829,24.043986 3763.6733,21.219485 3763.9799,21.163872 3765.974,22.793986 3768.4334,24.804616 3769.7743,31.362134 3768.1308,33.342401 3767.2744,34.374274 3765.7608,34.505425 3761.8476,33.886832 3759.0124,33.438638 3756.3378,33.291238 3755.9041,33.559275 3754.9315,34.160392 3754.0755,40.1716 3753.586,49.838603 3753.2254,56.958449 3753.2782,57.156874 3755.3572,56.495113 3761.2803,54.60969 3762.6967,54.830853 3768.5085,58.548558 3772.6564,61.201981 3774.7587,62.011165 3775.7993,61.354801 3778.1205,59.890594 3781.1079,51.100616 3781.7051,43.977808 L 3782.2532,37.440379 3777.1266,30.667232 C 3774.307,26.942001 3772,23.430416 3772,22.863709 3772,20.541499 3774.5508,22.997094 3779.3842,29.97222 3784.0824,36.752274 3784.4846,37.782632 3784.3112,42.593241 3783.8815,54.51798 3779.2665,65.116023 3774.595,64.905657 3773.4428,64.853768 3769.944,62.991932 3766.8199,60.768243 z M 3711.4262,31.119402 C 3712.1575,29.936107 3716.9281,29.074709 3717.5126,30.020419 3717.7683,30.43413 3716.9701,31.042636 3715.7388,31.372655 3712.5186,32.235736 3710.7987,32.134736 3711.4262,31.119402 z M 3732.5,32.411401 C 3734.4575,30.918835 3734.4256,30.824402 3731,27.970106 3726.6041,24.307297 3726,24.301028 3726,27.918213 3726,33.953941 3728.3482,35.577145 3732.5,32.411401 z M 3765.9863,30.25 C 3765.9364,27.508733 3764.5066,25 3762.9942,25 3760.4978,25 3756.5304,28.431125 3757.3999,29.838048 3758.1804,31.100842 3766.0087,31.476421 3765.9863,30.25 z M 3782.6205,27.581703 C 3776.8696,20.563546 3777.9025,18.545968 3784.1321,24.629002 L 3787.8485,28.258004 3792.2773,24.629002 C 3796.7307,20.979778 3798,20.346032 3798,21.771796 3798,23.283977 3789.2905,32 3787.7795,32 3786.9333,32 3784.6117,30.011766 3782.6205,27.581703 z"/>
</svg>
