<?xml version="1.0" encoding="UTF-8"?>
<svg xmlns="http://www.w3.org/2000/svg" viewBox="1649.08 12.84 64.44 94.91">
  <path d="M 1676.25,97.975837 C 1673.9125,95.340184 1672,92.706256 1672,92.122664 1672,91.539072 1672.969,89.202571 1674.1533,86.93044 L 1676.3065,82.799293 1673.1529,76.649647 C 1669.3404,69.215362 1669.1216,64.347216 1672.2374,56.287513 1677.6764,42.218698 1672.9446,24.006122 1665.6347,30.873486 1662.7982,33.538211 1659.448,33.570524 1655.1896,30.974232 1652.5207,29.347065 1652.008,28.52418 1652.5437,26.72797 1653.6623,22.97773 1655.8818,20.112485 1658.8622,18.571277 1661.602,17.15445 1661.8272,17.226487 1665.0489,20.550467 1666.8878,22.44771 1669.116,24 1670.0004,24 1670.8848,24 1673.7372,22.65 1676.3389,21 1678.9407,19.35 1681.6406,18 1682.3386,18 1683.0366,18 1685.1342,19.575 1687,21.5 1691.15,25.78168 1693.2343,25.879509 1697.6528,22 1702.4889,17.753799 1705.964,18.095909 1708.537,23.071521 1710.5938,27.04894 1710.3592,29.635014 1707.7775,31.443296 1705.307,33.173702 1697.4646,33.560833 1696.5,32 1695.4603,30.317726 1692.1309,30.886917 1691.0352,32.934259 1689.386,36.015751 1689.8306,43.532838 1691.9995,49.239273 1695.2127,57.693315 1694.0373,69.966297 1689.2289,78.16926 1687.8194,80.573683 1687.8166,81.071224 1689.2009,83.183927 1690.0462,84.473901 1691.0681,87.033474 1691.4719,88.871866 1692.137,91.900056 1691.7966,92.634746 1687.853,96.684131 1681.2998,103.41303 1681.0926,103.4361 1676.25,97.975837 z M 1664.632,28.918441 C 1668.6591,26.429565 1668.8204,25.119332 1665.4855,21.986373 1663.3986,20.025861 1662.511,19.785877 1660.2664,20.575262 1658.7789,21.09839 1656.8729,22.785249 1656.0309,24.323837 1654.5832,26.969305 1654.6282,27.22662 1656.8608,29.060635 1659.8224,31.493567 1660.4849,31.481444 1664.632,28.918441 z M 1683.7222,97.482027 C 1684.9142,96.647142 1686.8279,94.645994 1687.9751,93.035032 L 1690.0607,90.10601 1688.0304,86.317814 C 1685.4259,81.458528 1685.463,80.797013 1688.711,74.158224 1692.0547,67.324084 1692.5094,56.962773 1689.7602,50.255132 1687.1859,43.974486 1686.8621,39.146873 1688.6068,33.060309 L 1690.1662,27.620618 1685.9848,23.759723 C 1683.6851,21.63623 1681.5102,20.04583 1681.1518,20.225502 1674.7635,23.427424 1673.0001,24.557471 1672.5462,25.74008 1672.2483,26.516449 1673.1848,29.165557 1674.6273,31.626985 1678.158,37.651732 1678.1482,45.69259 1674.5975,56 1671.2074,65.84124 1671.3171,67.996445 1675.6127,75.949376 L 1679.2253,82.637981 1677.1127,86.779152 C 1674.4046,92.087418 1674.449,92.815448 1677.6871,96.195281 1680.8156,99.460705 1680.8782,99.474055 1683.7222,97.482027 z M 1706.9602,29.547988 C 1709.0081,27.080411 1705.8092,21 1702.463,21 1700.9556,21 1695,26.399608 1695,27.766296 1695,30.953842 1704.6058,32.384808 1706.9602,29.547988 z"/>
</svg>
