<?xml version="1.0" encoding="UTF-8"?>
<svg xmlns="http://www.w3.org/2000/svg" viewBox="0 0 6156 172">
  <path d="M 3094.7188,75.5 C 3094.1419,74.557223 3094.1356,73.503849 3094.375,71.5 3094.6377,69.3 3094.4809,61.249616 3094.0312,53.625 3093.2895,41.050925 3093.3814,39.37912 3095.125,35.4375 3096.1822,33.047397 3097.4968,30.798991 3098.0312,30.46875 3099.2316,29.726932 3099.3324,27 3098.1562,27 3097.6841,27 3095.6005,29.524316 3093.5625,32.59375 L 3089.875,38.15625 3091.0312,51.40625 C 3093.0543,74.589221 3088.9345,92 3081.4375,92 3077.6673,92 3076.7919,87.78266 3077.3125,72.34375 3077.8017,57.839716 3078.4911,53.138276 3081.4062,43.9375 L 3083.1562,38.375 3078.9062,31.6875 C 3076.562,28.010497 3074.2615,25 3073.8125,25 3072.0143,25 3073.1809,28.62139 3076.5625,33.53125 L 3080.125,38.71875 3078.5938,44.09375 C 3074.522,58.300163 3072.7082,81.809859 3075.125,89.09375 3075.7453,90.963323 3076.9527,93.0625 3077.8125,93.75 3080.758,96.105237 3084.0557,95.187014 3087.9688,90.90625 L 3091.7188,86.78125 3092.0312,87 3092,85.5 3092.8438,82.375 C 3092.4183,81.355842 3092.435,80.616776 3093.375,80.5 L 3094.7188,75.5 z M 3095.5312,21 C 3094.62,20.714129 3092.534,21.876959 3090.5,24 3086.9981,27.655223 3084.7749,27.789338 3082.1875,24.5 3081.1059,23.125 3079.702,22 3079.0938,22 3076.8673,22 3078.0721,26.271228 3081.0938,29.09375 3082.8018,30.689416 3084.7021,32 3085.3125,32 3086.5733,32 3096,22.987006 3096,21.78125 3096,21.346299 3095.835,21.09529 3095.5312,21 z"/>
</svg>
