<?xml version="1.0" encoding="UTF-8"?>
<svg xmlns="http://www.w3.org/2000/svg" viewBox="0 0 6156 172">
  <path d="M 2684.375,79.78125 C 2683.5476,78.642725 2683.5595,77.479028 2684.0938,74.71875 2685.4482,67.721471 2685.0059,54.055925 2683.0938,44.1875 L 2681.2812,34.875 2683.6875,31.3125 C 2687.7341,25.349405 2686.0325,23.778285 2681.6875,29.46875 2679.0873,32.874217 2678.049,35.078535 2678.4375,36.46875 2678.7493,37.584757 2679.7418,42.55 2680.625,47.5 2684.3742,68.512768 2678.3156,99.682421 2671.3125,95.40625 2670.3167,94.798185 2668.6411,92.819388 2667.5938,91.03125 2664.0554,84.990508 2664.4954,65.172757 2668.625,44.125 2669.4195,40.075902 2669.7463,35.800902 2669.375,34.625 2668.4124,31.576389 2661.9338,23.908135 2660.875,24.5625 2659.4761,25.427098 2659.7794,26.339535 2663.1562,31.4375 L 2666.3438,36.21875 2664.0938,53.34375 C 2660.6157,79.829443 2662.0676,92.640144 2669.0312,96.875 2670.7568,97.924426 2673.074,98.541174 2674.1875,98.25 2675.9307,97.794123 2679.3,93.562438 2680.3125,90.5625 2680.4115,90.269132 2680.8807,90.172417 2681.5312,90.25 L 2681.5,90 2682.5,86.46875 C 2682.2913,85.978742 2682.2867,85.449891 2682.5312,84.8125 2682.7006,84.371075 2682.9169,84.130489 2683.1875,84 L 2684.375,79.78125 z M 2667.4062,22.25 C 2667.0048,22.119255 2666.7533,22.503933 2666.4375,23.3125 2665.9669,24.517026 2666.5236,25.924398 2668.0625,27.5625 2671.178,30.878785 2673.7552,30.620773 2678.5,26.53125 2682.8374,22.792841 2681.2546,21.432055 2676.7188,25 2673.3344,27.662149 2672.0076,27.525082 2669.375,24.25 2668.3825,23.015294 2667.8077,22.380745 2667.4062,22.25 z"/>
</svg>
