<?xml version="1.0" encoding="UTF-8"?>
<svg xmlns="http://www.w3.org/2000/svg" viewBox="0 0 5648 172">
  <path d="M 3240.8902,39.885131 C 3241.4874,38.171953 3241.672,36.259453 3241.3004,35.635131 3239.3293,32.323208 3235.4995,28.191316 3234.801,28.623005 3234.3604,28.895271 3234,31.323947 3234,34.020062 3234,37.775111 3234.5121,39.399165 3236.1886,40.961045 3239.0969,43.670528 3239.6117,43.552718 3240.8902,39.885131 z M 3265.9932,43.009501 C 3268.2356,39.860326 3269.8826,32.97758 3268.3808,33.031803 3267.2706,33.071888 3265.1484,34.827444 3262.2075,38.13838 3260.204,40.39397 3260.0667,41.052244 3261.118,43.359684 3262.6542,46.731287 3263.3802,46.679139 3265.9932,43.009501 z M 3268.9963,92.25 C 3268.9907,89.646666 3265.2519,84 3263.5338,84 3262.7111,84 3261.7439,85.172243 3261.3843,86.604984 3260.8588,88.698694 3261.2967,89.672973 3263.6152,91.569021 3267.0661,94.391044 3269.0014,94.63595 3268.9963,92.25 z M 3238.5352,92.38499 C 3241.2462,90.608672 3241.5686,88.650475 3239.7028,85.293749 3238.358,82.874341 3236.9247,83.312067 3235.1497,86.684259 3233.7185,89.403357 3233.6465,94 3235.0352,94 3235.6045,94 3237.1795,93.273246 3238.5352,92.38499 z M 3254.0167,77.440342 C 3256.5045,68.554633 3253.6284,44 3250.0998,44 3248.3822,44 3246.7243,57.09912 3247.3284,65.896434 3247.9018,74.245753 3250.0952,82 3251.8835,82 3252.3546,82 3253.3146,79.948154 3254.0167,77.440342 z M 3247.2503,81.25 C 3244.7421,75.95274 3244.5266,74.515782 3244.5138,63 3244.5019,52.22378 3244.8025,49.844964 3246.6938,45.75 3247.9003,43.1375 3249.539,41 3250.3352,41 3252.0968,41 3254.738,47.315329 3256.5176,55.782717 3258.8787,67.0164 3255.6907,87 3251.5375,87 3250.6151,87 3248.8554,84.639837 3247.2503,81.25 z M 3256.1959,91.62513 C 3259.1284,85.889691 3260.8178,78.961786 3261.5814,69.540063 3262.2312,61.522886 3260.7645,47.630183 3259.0492,45.5551 3258.5696,44.974795 3257.2613,42.087004 3256.142,39.137787 3253.9125,33.263506 3251.4626,30 3249.2823,30 3247.3761,30 3242.4792,41.076042 3240.9509,48.84415 3239.4276,56.586864 3240.2299,73.969267 3242.5043,82.5 3243.3841,85.8 3245.1898,90.353123 3246.5168,92.618052 3248.5601,96.105435 3249.3246,96.660614 3251.5082,96.243182 3253.2795,95.904587 3254.7471,94.458743 3256.1959,91.62513 z M 3231.6667,99.333333 C 3230.6982,98.364821 3230.8496,90.521712 3231.8891,87.8151 3232.3782,86.541795 3233.8471,84.353773 3235.1534,82.952828 3237.4739,80.464236 3237.5246,80.019971 3237.3581,63.635224 3237.2243,50.475613 3236.8704,46.502558 3235.7144,45.182396 3231.1324,39.94982 3229.7066,32.291654 3232.5567,28.222506 3234.8259,24.982711 3236.1511,25.451272 3239.4396,30.656298 3242.3718,35.297466 3242.383,35.303519 3243.9396,33.093723 3244.7978,31.875309 3246.4967,29.66828 3247.7148,28.189213 L 3249.9296,25.5 3252.4818,28.5 C 3253.8855,30.15 3255.7129,32.7375 3256.5427,34.25 3257.3725,35.7625 3258.6731,37 3259.433,37 3260.1929,37 3262.8938,34.687466 3265.435,31.861035 3267.9762,29.034605 3270.3729,27.039605 3270.761,27.427702 3271.1491,27.815799 3271.4667,30.692824 3271.4667,33.821091 3271.4667,40.167477 3268.4658,46.399996 3264.8589,47.544775 3263.2629,48.051346 3262.9884,48.662923 3263.6016,50.346404 3264.033,51.530882 3264.4197,58.894237 3264.4609,66.709416 3264.5313,80.082822 3264.6674,81.041438 3266.7726,83.002729 3271.0484,86.98628 3273.7511,97.799755 3270.9097,99.555788 3270.3101,99.92639 3268.1536,98.602947 3266.1176,96.614805 3261.4673,92.073949 3259.1316,92.049727 3256.2408,96.512379 3254.4875,99.219057 3253.3097,100 3250.981,100 3248.1483,100 3246.881,99.065441 3243.6898,94.623388 3242.0238,92.304348 3239.1281,93.523526 3237.0414,97.422571 3235.7348,99.864016 3233.1251,100.79178 3231.6667,99.333333 z"/>
</svg>
