<?xml version="1.0" encoding="UTF-8"?>
<svg xmlns="http://www.w3.org/2000/svg" viewBox="0 0 5648 172">
  <path d="M 1434.3438,85.21875 1434.5,87.625 C 1434.8753,87.743857 1435.2617,87.949315 1435.625,88.03125 1438.5026,88.680262 1439.5669,88.400969 1441.9375,86.40625 1444.7844,84.010772 1447.8174,77.848263 1448.5312,73.03125 1448.7387,71.630545 1449.6294,66.45 1450.5312,61.5 1452.6372,49.940166 1451.5004,43.190826 1446.8438,39.875 1442.355,36.678804 1440.0666,32.394009 1440.7188,28.375 1441.3251,24.638239 1439.5654,23.638219 1438.4688,27.09375 1437.1158,31.356553 1438.918,35.602426 1444.0312,40.3125 1448.4325,44.366792 1449.0063,45.42371 1449.125,49.21875 1449.6892,67.254098 1443.7773,86 1437.5312,86 1436.6211,86 1435.5046,85.67979 1434.3438,85.21875 z M 1434.875,94.9375 1435,97.25 C 1438.8111,98.891866 1440.4794,98.649612 1445.125,96.875 1452.7444,93.964429 1459.5064,76.32315 1460.4688,56.84375 1461.0699,44.673441 1461.1059,44.45738 1464,42.1875 1467.6428,39.330363 1469.9122,32.7975 1468.0312,30.53125 1466.3211,28.47071 1465.656,28.581431 1462.1875,31.5 1460.5534,32.875 1458.5201,34 1457.6562,34 1455.6791,34 1454,30.97768 1454,27.375 1454,25.218623 1453.72,24.873687 1452.7812,25.8125 1452.1189,26.474761 1451.6858,28.556145 1451.8125,30.4375 1451.9393,32.318854 1451.6471,34.102835 1451.1562,34.40625 1449.7754,35.259625 1446.8213,31.417353 1446.6562,28.5625 1446.4994,25.849899 1445.4984,25.166727 1444.75,27.25 1443.2953,31.299402 1448.6712,39.343027 1451.3438,37.125 1452.1525,36.453807 1454.0501,36.247523 1455.9375,36.625 1458.3782,37.113136 1459.8667,36.755222 1462.1562,35.0625 1463.8127,33.837934 1465.3742,33.061767 1465.6562,33.34375 1466.7029,34.39039 1464.7201,38.217386 1461.4062,41.53125 1458.1596,44.777896 1458,45.292593 1458,52.03125 1458,61.984947 1456.3531,71.554415 1452.9688,81.125 1449.7202,90.311588 1446.213,94.691984 1441.4062,95.59375 1438.9186,96.060431 1437.0553,95.874179 1434.875,94.9375 z"/>
</svg>
