<?xml version="1.0" encoding="UTF-8"?>
<svg xmlns="http://www.w3.org/2000/svg" viewBox="0 0 5648 172">
  <path d="M 2201.5769,40.063213 C 2204.135,36.197663 2206.4384,29 2205.1174,29 2204.7478,29 2203.3327,30.238775 2201.9727,31.752833 2200.6127,33.266891 2198.4309,35.197139 2197.1243,36.042274 2195.1236,37.336358 2194.8599,38.085608 2195.4538,40.789441 2196.3955,45.077362 2198.4173,44.837566 2201.5769,40.063213 z M 2205.2225,87.25 C 2206.1838,82.692521 2200.3423,71 2197.1041,71 2195.2702,71 2194.0422,73.511729 2194.0137,77.321412 2194.0014,78.950717 2202.4945,88.619008 2204.1767,88.890705 2204.5488,88.950817 2205.0195,88.2125 2205.2225,87.25 z M 2161.8579,89.644787 C 2165.8256,85.602035 2166.0691,85.046019 2165.2525,81.894787 2164.7687,80.027654 2163.794,78.5 2163.0864,78.5 2161.0631,78.5 2156.0036,86.202834 2155.3397,90.29392 2154.5174,95.361414 2156.4349,95.170456 2161.8579,89.644787 z M 2183.4764,42.25 C 2181.7235,36.198012 2180.2852,33.705728 2179.0028,34.498262 2178.579,34.760194 2177.2777,37.005239 2176.111,39.487251 2174.9443,41.969263 2173.5421,44 2172.9949,44 2171.559,44 2171.6814,43.574035 2175.0144,36.971483 2178.2546,30.552769 2180.9777,29.221284 2183.0284,33.053029 2184.7439,36.258482 2187.818,46.415722 2187.3251,47.25 2186.2176,49.124441 2185.0151,47.562113 2183.4764,42.25 z M 2174.5955,83.137794 C 2173.1234,81.013581 2171.6485,77.526081 2171.3179,75.387794 2170.5858,70.651698 2171.5051,71.361653 2174.9086,78.160648 2176.3338,81.007929 2177.9999,83.503222 2178.6109,83.705743 2179.9922,84.163559 2184,75.072327 2184,71.481285 2184,69.798949 2184.4558,68.991034 2185.25,69.265786 2186.6753,69.758872 2186.3886,75.359362 2184.7775,78.497103 2183.1206,81.723943 2178.968,87 2178.0851,87 2177.6379,87 2176.0676,85.262007 2174.5955,83.137794 z M 2183.2285,95.25 C 2185.8705,92.244792 2188.6202,85.827163 2191.048,77 2194.121,65.826821 2194.4283,44.302719 2191.6243,36.639734 2189.2832,30.242038 2184.6454,22.830571 2181.9473,21.175304 2180.0462,20.009068 2179.4872,20.128688 2177.2743,22.175304 2171.3857,27.621346 2166.2042,40.661198 2164.566,54.157278 2163.2304,65.15983 2167.0162,82.965218 2172.2739,90.409978 2176.8334,96.865911 2180.4162,98.448923 2183.2285,95.25 z M 2174.0847,96.417841 C 2172.3969,94.997653 2170.2404,92.522653 2169.2924,90.917841 2168.3444,89.313028 2167.167,88 2166.676,88 2166.1849,88 2163.8806,90.072174 2161.5552,92.604832 2156.3265,98.299592 2153.6522,98.326171 2153.1864,92.688007 2152.8374,88.463688 2155.906,82.278602 2160.463,78.021063 2163.1135,75.544709 2163.1156,75.530649 2162.4537,64.521063 2161.8936,55.205207 2162.1105,52.226919 2163.8559,45.271841 2166.4979,34.743891 2170.2286,26.895099 2174.95,21.931899 2179.0148,17.658865 2181.3903,17.125835 2184.5252,19.783269 2187.7921,22.552549 2191.7898,28.281816 2192.5329,31.259448 2192.9117,32.777145 2193.6648,34.292816 2194.2065,34.627605 2195.5193,35.438997 2204.5753,26.439531 2206.065,22.843058 2208.0876,17.96013 2209.3132,19.508944 2208.7711,26.26266 2208.2003,33.373191 2203.635,43.580657 2199.6595,46.634671 2197.4686,48.317788 2197.1802,49.434363 2196.7069,58.065176 L 2196.1823,67.630353 2198.9213,68.664188 C 2200.5632,69.283924 2202.8036,71.661104 2204.5147,74.599012 2206.8964,78.688161 2207.3562,80.576712 2207.2904,86 2207.2079,92.800025 2205.496,98.978431 2204.1281,97.412839 2203.6895,96.910778 2202.541,94.354758 2201.576,91.732795 2199.4664,86.000992 2192,79.417009 2192,83.288558 2192,85.108539 2188.649,91.460271 2185.535,95.543058 2182.2622,99.833882 2178.4872,100.12229 2174.0847,96.417841 z"/>
</svg>
