<?xml version="1.0" encoding="UTF-8"?>
<svg xmlns="http://www.w3.org/2000/svg" viewBox="0 0 5648 172">
  <path d="M 2015.2936,90 C 2016.3044,90 2018.0019,90.465833 2019.0657,91.035184 2020.6268,91.870658 2021,91.741157 2021,90.363924 2021,89.425381 2020.265,87.84528 2019.3666,86.85259 2017.8502,85.177012 2017.8899,84.683322 2019.921,79.961888 2024.0834,70.286215 2023.9218,61.111026 2019.4736,54.55617 2017.6429,51.858603 2017,49.587189 2017,45.817422 2017,41.264616 2017.4248,40.26281 2021,36.384174 2024.0883,33.033798 2025,31.241829 2025,28.522343 2025,24.353109 2024.4502,24.200704 2021.0547,27.428677 2019.6496,28.764449 2017.2832,30.158032 2015.796,30.525527 2013.4489,31.105527 2012.4666,30.514659 2008.3521,26.04796 2004.3626,21.717067 2003.1281,20.94955 2000.556,21.20111 1997.9231,21.45862 1997.457,21.944259 1997.1897,24.708938 1996.7611,29.141723 2000.1502,33.388148 2006.1907,35.986697 L 2011.0969,38.097284 2010.7985,43.761667 C 2010.5064,49.304084 2010.4279,49.440719 2007.1492,50.107345 1998.6703,51.831286 1991.6802,60.740208 1993.4523,67.564012 1994.1531,70.262549 1994.3072,70.348714 1995.3574,68.629417 1999.1699,62.387906 2000.8582,60.402906 2003.8306,58.666947 2006.8663,56.893968 2007.2919,56.863309 2008.7417,58.313121 2010.6859,60.257349 2014.0778,72.937723 2014.2162,78.779498 2014.2937,82.046001 2013.7246,83.702963 2011.8122,85.779498 2005.3058,92.844283 2003.8577,97.911504 2009.7278,93.072804 2011.7782,91.382762 2014.2827,90 2015.2936,90 z M 2002.4599,100.93511 C 2001.1794,98.863249 2003.1271,92.98662 2006.604,88.431704 2012.3346,80.924192 2012.4991,80.163138 2010.475,70.517919 2009.4845,65.798179 2008.159,61.232081 2007.5294,60.371035 2006.5161,58.985359 2006.0424,59.093474 2003.4057,61.31207 2001.7673,62.690686 1999.3645,66.086741 1998.0661,68.858858 1995.6084,74.106232 1993.2397,75.981499 1991.8453,73.78387 1990.2556,71.278623 1990.9653,62.703194 1993.1327,58.225865 1995.4742,53.388886 2002.0143,48 2005.543,48 2007.94,48 2009,46.29703 2009,42.446011 2009,40.526739 2008.0013,39.625946 2003.9327,37.875702 1998.7914,35.663958 1994,30.328428 1994,26.814919 1994,23.925067 1996.1032,20.274008 1998.3603,19.24567 2001.3705,17.874174 2004.7899,19.380663 2009.2871,24.059718 2011.37,26.226873 2013.8765,28 2014.8571,28 2015.8377,28 2018.5316,26.380904 2020.8434,24.402008 2026.0167,19.973866 2028,20.416915 2028,26.000734 2028,31.07143 2026.0459,35.773156 2022.6289,38.924314 2018.9492,42.317667 2019.0762,47.701431 2023,54.653995 2026.8229,61.427762 2026.9373,67.282359 2023.4365,76.98735 L 2020.8731,84.093894 2024.4365,91.305805 C 2029.8611,102.28435 2028.9869,104.06927 2021.8924,96.5 2016.7918,91.058036 2014.1828,90.771282 2010.5195,95.25 2009.0575,97.0375 2007.2219,99.2875 2006.4404,100.25 2004.8223,102.24299 2003.4176,102.48476 2002.4599,100.93511 z"/>
</svg>
