<?xml version="1.0" encoding="UTF-8"?>
<svg xmlns="http://www.w3.org/2000/svg" viewBox="0 0 5977 172">
  <path d="M 2742.5,98.54043 C 2740.3,97.750051 2737.1023,95.505117 2735.394,93.551689 2733.377,91.245249 2731.4051,90 2729.7697,90 2726.2882,90 2719.3861,87.448902 2716.3001,85.021405 2712.9279,82.368859 2710.379,82.456218 2709.6303,85.25 2708.6675,88.842805 2708.9068,95.824364 2710.0163,96.510081 2710.5753,96.855545 2710.811,97.496753 2710.5402,97.934989 2709.6154,99.431322 2705.0865,97.786761 2701.4696,94.641216 2696.1087,89.978929 2695.66,84.8082 2699.9956,77.654411 2701.7862,74.700059 2704.5446,71.518776 2706.1256,70.584895 2710.4383,68.037309 2709.9723,64.607983 2704.6804,59.949881 2697.6926,53.798995 2696.3522,46.699368 2700.5778,38.219814 2704.679,29.989761 2713.2833,24.087496 2711.4672,30.75 2711.055,32.2625 2710.7761,34.5125 2710.8476,35.75 2710.9191,36.9875 2710.5326,38 2709.9888,38 2709.445,38 2709,36.439123 2709,34.531385 2709,31.903096 2708.6467,31.198342 2707.5417,31.622372 2705.1666,32.533794 2700.9965,40.591605 2701.0439,44.17807 2701.1221,50.094574 2705.3664,59 2708.1081,59 2708.547,59 2709.6544,57.423218 2710.5689,55.496041 2712.2143,52.028593 2712.1621,50.570712 2710.166,44.25 2709.6015,42.4625 2709.5019,41 2709.9448,41 2710.3877,41 2711.0221,42.360621 2711.3547,44.023603 2712.1972,48.236207 2714.4975,48.775218 2717.7504,45.522283 2719.2398,44.032891 2721.7009,42.171807 2723.2194,41.386542 2724.7379,40.601277 2726.8732,38.28056 2727.9644,36.229393 2731.9306,28.77388 2739.0271,23.010838 2744.25,23.003738 2747.3844,22.999477 2747.6413,23.633886 2745.4747,26.027991 2743.3999,28.32057 2740,38.248833 2740,42.014856 2740,45.184315 2742.895,51.733008 2746.1238,55.867537 2747.1407,57.169683 2747.7273,58.632183 2747.4274,59.117537 2746.7143,60.27133 2741.7538,60.248425 2738.8151,59.07777 2736.2361,58.050406 2731.4913,53.813239 2730.6691,51.803266 2729.6906,49.41133 2725.1766,55.63953 2724.4691,60.357722 2723.5795,66.289933 2727.9112,75.574638 2732.8943,78.416758 L 2736.2887,80.352697 2739.6075,76.731263 C 2743.2231,72.785975 2745.983,71 2748.4641,71 2749.8134,71 2749.7126,71.603131 2747.8107,74.907717 2745.6794,78.61102 2745.6299,79.147202 2746.8646,85.157717 2748.1718,91.521167 2750.1976,95 2752.596,95 2754.3014,95 2755.4504,96.956859 2754.3629,98.009316 2752.6373,99.679305 2746.4421,99.95667 2742.5,98.54043 z M 2709.2862,81.236193 C 2710.6501,79.72912 2710.7654,78.734096 2709.9275,75.699471 2709.3657,73.664762 2708.275,72 2707.5039,72 2704.8844,72 2700.7248,78.808618 2700.2359,83.896676 2699.8229,88.19489 2700.0766,88.990099 2702.6106,91.339729 L 2705.4477,93.970419 2706.5356,88.521933 C 2707.134,85.525265 2708.3718,82.246682 2709.2862,81.236193 z M 2749,96.464817 C 2749,96.170466 2748.3756,94.932966 2747.6125,93.714817 2745.6053,90.510556 2743.6883,81.378166 2744.4151,78.482343 2745.5362,74.015287 2742.0742,75.578092 2739.8849,80.527303 L 2737.8823,85.054605 2734.834,82.777303 C 2727.8144,77.533132 2725.2093,74.339604 2723.4828,68.862517 2721.2724,61.850581 2722.0066,57.457859 2726.3381,51.778877 2730.4371,46.404729 2732.5882,45.848451 2733.4848,49.93068 2734.2013,53.193185 2739.0385,57.356126 2741.4925,56.822211 2742.7113,56.557024 2742.5333,55.553302 2740.4867,51.150703 2737.478,44.678534 2737.3472,39.739118 2739.9995,32.760727 2743.6116,23.257086 2742.0059,22.43945 2734.801,30.113664 2731.4534,33.67925 2730,36.065593 2730,37.996314 2730,40.341822 2729.1971,41.160559 2724.75,43.349782 2716.7342,47.295828 2712.4924,53.820281 2711.9748,63 2711.5803,69.99489 2711.73,71.964169 2713.0014,76.505167 2714.1134,80.476603 2714.9957,81.528216 2719.2586,83.962879 2722.0436,85.553409 2726.5979,87.094141 2729.6369,87.473841 2733.9315,88.010414 2735.4004,88.6815 2736.7334,90.715942 2738.8158,93.894048 2743.7556,96.991287 2746.75,96.996262 2747.9875,96.998318 2749,96.759168 2749,96.464817 z"/>
</svg>
