<?xml version="1.0" encoding="UTF-8"?>
<svg xmlns="http://www.w3.org/2000/svg" viewBox="0 0 5977 172">
  <path d="M 544.375,91.25 545.375,87.5 C 544.28886,86.306763 544.07425,85.407646 544.90625,84.09375 545.24472,83.559229 545.67872,83.377262 546.40625,83.5 L 547.34375,80 547.46875,79.78125 C 547.4428,79.758144 547.30313,79.677228 547.28125,79.65625 546.39378,78.805468 545.90587,70.719047 545.53125,50.53125 545.24616,35.168306 544.60103,22.194774 544.09375,21.6875 543.53703,21.130773 541.64053,21.113074 539.34375,21.65625 L 535.5625,22.5625 535.28125,46.53125 C 535.13557,59.714049 534.33066,76.35 533.5,83.5 531.53203,100.43956 531.50866,100 534.40625,100 538.48666,100 540.04489,98.902186 541.65625,94.875 542.50789,92.746536 543.59139,91 544.03125,91 544.05615,91 544.3356,91.23776 544.375,91.25 z M 539.625,24.3125 C 540.42811,24.004318 541.35162,24.039127 541.6875,24.375 542.02337,24.710874 542.3857,37.242605 542.46875,52.21875 542.61672,78.901757 541.69796,89.931671 538.96875,95.03125 538.39115,96.110514 537.4994,97 536.96875,97 535.72419,97 535.74212,88.181918 537,80.5 537.54002,77.202132 538.01009,63.336897 538.0625,49.6875 538.14228,28.912683 538.40264,24.781561 539.625,24.3125 z"/>
</svg>
