<?xml version="1.0" encoding="UTF-8"?>
<svg xmlns="http://www.w3.org/2000/svg" viewBox="0 0 5977 172">
  <path d="M 3628.75,91.686274 C 3626.6875,87.668442 3625,83.853467 3625,83.208551 3625,82.563634 3627.475,79.690103 3630.5,76.822925 3633.525,73.955747 3636,71.060465 3636,70.388966 3636,69.089085 3630.1341,64.147826 3626.0339,61.993852 3623.7755,60.807426 3623.3965,60.938649 3621.5339,63.551944 3615.8747,71.491999 3611.9792,72.757903 3612.022,66.643011 3612.0522,62.320732 3615.0075,56.194803 3619.2143,51.73424 3623.8966,46.769606 3627.0383,46.820875 3635.5,52 3642.6753,56.391786 3644.1416,56.73927 3646.0081,54.4903 3648.298,51.731066 3646.9303,32.294208 3644.3772,31.314505 3643.6227,31.024969 3640.7714,32.221572 3638.0411,33.973623 3632.5131,37.520943 3629.5663,37.39235 3628.6049,33.561845 3627.3254,28.464127 3630.6998,20.099045 3634.0629,20.031425 3634.9225,20.014141 3636.8803,21.309347 3638.4134,22.909661 3642.4839,27.158255 3644.2111,27.212529 3650.0572,23.275531 L 3655.2551,19.775083 3659.3775,22.036109 C 3661.6449,23.279673 3664.2858,24.973475 3665.2462,25.800112 3666.8211,27.155672 3667.6104,26.989411 3673.2931,24.105004 3676.8052,22.322361 3680.304,21.179429 3681.1984,21.522634 3684.1169,22.642588 3685.0468,30.810326 3682.541,33.316097 3681.3778,34.479368 3680.1529,34.576883 3676.4975,33.797251 3673.976,33.259461 3671.3279,33.043942 3670.6129,33.318321 3669.0141,33.93181 3667,43.516978 3667,50.511794 3667,56.05076 3668.9209,59 3672.5284,59 3673.5574,59 3678.1621,57.579832 3682.7611,55.844072 3690.7944,52.812103 3691.2532,52.750325 3694.4426,54.271231 3696.9803,55.481364 3698.1437,56.973587 3699.3812,60.605298 3701.2473,66.081982 3701.4948,71 3699.9044,71 3699.3018,71 3697.5605,70.111207 3696.035,69.024905 3694.5094,67.938603 3692.0443,66.587138 3690.5569,66.021649 3688.1939,65.12324 3687.4834,65.36279 3684.9263,67.91982 3681.2267,71.619473 3681.2417,73.323868 3684.9976,75.998299 3689.5564,79.244456 3689.6584,81.742547 3685.564,89.872993 3683.59,93.792847 3681.3753,97 3680.6424,97 3678.1435,97 3675.8575,93.416061 3676.5631,90.604608 3677.2572,87.838981 3676.033,85.623193 3672.8778,83.934596 3671.4565,83.173944 3670.0524,83.900907 3666.0122,87.489193 3659.6336,93.154244 3655.8234,93.525315 3651.4371,88.908624 3649.8217,87.208368 3647.2304,84.904894 3645.6787,83.789795 L 3642.8575,81.762342 3639.9444,84.553225 C 3637.4017,86.989289 3637.1097,87.834021 3637.6476,91.197577 3638.1143,94.116505 3637.8304,95.529895 3636.4769,97.025523 3635.4941,98.111485 3634.1973,98.99807 3633.595,98.995711 3632.9928,98.993352 3630.8125,95.704105 3628.75,91.686274 z M 3634.6666,91.3327 C 3634.1252,87.99685 3634.463,87.273809 3638.4041,83.3327 3640.7871,80.949715 3643.1694,79 3643.698,79 3644.2266,79 3647.3941,81.475 3650.7369,84.5 3654.0796,87.525 3657.1529,90 3657.5664,90 3657.9799,90 3660.6092,88.273483 3663.4091,86.163295 3672.3821,79.400843 3672.708,79.327024 3676.6791,83.157548 3679.5095,85.887794 3680.0762,87.095272 3679.7729,89.75 3679.2602,94.237921 3680.3719,93.817867 3683.4145,88.374047 3686.7435,82.417767 3686.6711,80.429291 3683,77 3679.1061,73.36256 3679.2108,70.589239 3683.4,66.4 3687.2231,62.57695 3689.4746,62.217551 3693.8544,64.731223 3695.5135,65.683396 3697.1545,66.17882 3697.5012,65.832165 3698.6885,64.644863 3695.9339,57.034978 3693.9283,55.961607 3691.4429,54.631472 3689.9892,55.035489 3677.5989,60.5 3672.8725,62.584491 3671.3982,62.402971 3667.4466,59.25 3664.1055,56.584095 3664.0004,56.285941 3664.0109,49.5 3664.0168,45.65 3664.6918,40.290981 3665.5108,37.591069 3666.3299,34.891157 3667,32.111239 3667,31.413473 3667,30.715707 3664.2786,28.491618 3660.9523,26.471052 L 3654.9047,22.797298 3650.9167,25.436438 C 3648.7233,26.887964 3647.2188,28.544966 3647.5733,29.118664 3649.173,31.706951 3650.6041,41.129859 3650.2934,47.028184 3649.9382,53.769093 3647.8155,58.199599 3644.6421,58.823702 3643.7368,59.001738 3639.606,57.089238 3635.4626,54.573702 3631.3191,52.058166 3626.8429,50 3625.5154,50 3622.7454,50 3619.1929,54.148864 3616.0723,61.028439 3612.3922,69.141383 3613.7236,70.336769 3618.7817,63.461 3622.8372,57.948081 3625.045,57.774228 3632.2739,62.398533 3641.8567,68.528585 3641.9911,70.302405 3633.4324,77.691481 3630.4446,80.270964 3628,82.803347 3628,83.318999 3628,84.563238 3633.9901,95 3634.7042,95 3635.0108,95 3634.9939,93.349715 3634.6666,91.3327 z M 3637.0398,31.979676 C 3639.2179,30.868498 3641,29.405998 3641,28.729676 3641,28.053354 3639.4499,26.263254 3637.5555,24.751676 L 3634.1111,22.003353 3632.5555,24.224183 C 3630.8136,26.711198 3630.4291,34 3632.0398,34 3632.6117,34 3634.8617,33.090854 3637.0398,31.979676 z M 3653.0408,79.380884 C 3649.4279,76.340781 3646.9973,72.078727 3647.0065,68.79966 3647.0136,66.265316 3654.4075,57 3656.4228,57 3658.0369,57 3661,60.238761 3661,62.003055 3661,62.891771 3660.2142,62.610392 3658.6855,61.174314 3657.4126,59.978441 3656.1238,59 3655.8215,59 3654.5745,59 3650,66.778901 3650,68.899459 3650,71.777726 3652.6098,76.27525 3655.2294,77.911159 3656.959,78.991365 3657.6229,78.779999 3660.1989,76.328959 3664.7215,72.025781 3665.4573,70.162801 3663.4921,67.991217 3662.575,66.977892 3661.9819,65.332703 3662.174,64.335242 3662.46,62.849946 3662.9461,63.115567 3664.8595,65.802699 3666.5742,68.21082 3667.0165,69.798146 3666.5218,71.769068 3665.8662,74.381309 3658.8013,82 3657.0346,82 3656.55,82 3654.7528,80.821398 3653.0408,79.380884 z M 3680.9847,29.25 C 3680.9763,27.7375 3680.5372,25.825 3680.0091,25 3679.1709,23.690714 3678.5775,23.754286 3675.3419,25.5 3673.3031,26.6 3671.4845,27.972942 3671.3005,28.550982 3670.9216,29.741455 3675.3609,31.733381 3678.75,31.893619 3680.5671,31.979531 3680.9971,31.470862 3680.9847,29.25 z"/>
</svg>
