<?xml version="1.0" encoding="UTF-8"?>
<svg xmlns="http://www.w3.org/2000/svg" viewBox="0 0 5745 172">
  <path d="M 5632.8137,96.137649 C 5629.6863,92.659245 5627.675,89.030274 5625.7471,83.387649 5618.6707,62.676159 5619.8578,44.258465 5629.1981,29.84393 5632.2556,25.125315 5637.4495,21.116172 5638.7806,22.447227 5639.1076,22.774312 5638.3622,27.046141 5637.1241,31.94018 L 5634.8729,40.838434 5637.3389,44.744868 C 5641.1259,50.743808 5646.1033,63.099255 5645.4994,65.001833 5645.2026,65.937092 5642.9613,69.275819 5640.5189,72.421227 5635.593,78.764774 5635.6476,77.992791 5639.1403,91.909963 5641.4298,101.03268 5641.43,101 5639.0927,101 5638.0436,101 5635.2181,98.811942 5632.8137,96.137649 z M 5637.5816,96.75 C 5632.976,80.848315 5631.8856,74.597057 5631.3457,61 5630.8702,49.022483 5631.0748,45.369232 5632.5218,40 5633.4853,36.425 5634.6049,31.794451 5635.0098,29.709891 5635.7343,25.9808 5635.7142,25.948602 5633.765,27.709891 5630.9308,30.2708 5627.4177,37.613692 5625.4586,45.071398 5623.2764,53.378366 5623.9692,69.881838 5626.8464,78.131097 5629.7239,86.38115 5635.9762,99 5637.1864,99 5637.7985,99 5637.9626,98.06547 5637.5816,96.75 z M 5642.0855,66.22484 C 5642.7528,64.507693 5642.1966,62.177693 5639.8179,56.72484 5638.0844,52.751178 5636.0924,48.867271 5635.3913,48.093936 5634.3199,46.912234 5634.0058,47.128571 5633.4233,49.449707 5632.7362,52.187063 5633.4769,65.134684 5634.6586,71.042772 L 5635.2726,74.113013 5638.2369,71.306506 C 5639.8673,69.762928 5641.5992,67.476178 5642.0855,66.22484 z"/>
</svg>
