<?xml version="1.0" encoding="UTF-8"?>
<svg xmlns="http://www.w3.org/2000/svg" viewBox="0 0 5745 172">
  <path d="M 4972.393,36.418213 C 4973.4955,33.545222 4973.0248,29.265451 4971.4638,27.969993 4970.1786,26.903321 4969.4436,27.15887 4966.9638,29.53464 4965.3337,31.096388 4964,32.746606 4964,33.20179 4964,34.022794 4969.9092,37.989089 4971.143,37.996262 4971.4967,37.998318 4972.0592,37.288196 4972.393,36.418213 z M 4950.996,98.75 C 4950.4321,63.16836 4950.4619,38.040471 4951.07,36.5 4952.2433,33.527495 4952.2746,34.062419 4952.8832,67.5 4953.3128,91.106095 4953.0915,99 4952,99 4951.45,99 4950.9982,98.8875 4950.996,98.75 z M 4943.0566,88.874782 C 4943.1247,77.541318 4941.205,38.440115 4940.4584,35.952953 4939.923,34.169259 4949.4459,23 4951.5021,23 4952.2402,23 4954.3849,24.8 4956.268,27 4958.1511,29.2 4960.0697,31 4960.5316,31 4960.9934,31 4963.506,29.2 4966.115,27 4968.7241,24.8 4971.329,23 4971.9037,23 4973.6459,23 4976,28.654608 4976,32.839556 4976,35.243547 4975.2497,37.698373 4974.0745,39.139216 L 4972.1491,41.5 4967.5934,39.031171 C 4963.9151,37.037865 4962.7933,36.806438 4961.7688,37.829645 4960.8145,38.782872 4960.4245,46.519803 4960.1952,69.048473 4959.9242,95.679779 4959.2638,102.95566 4957.6353,97.25 4956.8967,94.66222 4957.6574,41.017957 4958.4841,37.393367 4959.1058,34.667506 4958.6881,33.75639 4955.0765,29.959769 L 4950.9604,25.632804 4946.8763,29.566402 4942.7923,33.5 4943.4323,43.5 C 4943.7843,49 4944.2395,55.525 4944.4439,58 4944.6482,60.475 4945.1419,70.157637 4945.5409,79.516972 4946.1847,94.616415 4946.0821,96.686947 4944.6304,97.891754 4943.133,99.134536 4942.9996,98.370664 4943.0566,88.874782 z"/>
</svg>
