<?xml version="1.0" encoding="UTF-8"?>
<svg xmlns="http://www.w3.org/2000/svg" viewBox="0 0 5773 172">
  <path d="M 3363.2948,99.306563 C 3362.9429,98.95462 3362.6549,96.941667 3362.6549,94.833333 3362.6549,90.390185 3361.27,89.948293 3358.4762,93.5 3357.3947,94.875 3355.7549,95.982133 3354.8323,95.960295 3353.7083,95.933689 3354.722,94.477928 3357.9049,91.547885 3362.0837,87.701014 3362.6549,86.683636 3362.6549,83.087591 3362.6549,80.839416 3362.3174,78.995943 3361.9049,78.990985 3361.4924,78.986027 3359.9909,80.398024 3358.5682,82.128757 3357.1455,83.85949 3355.4622,85.101047 3354.8274,84.887772 3354.1639,84.664856 3355.5662,82.161754 3358.1259,79 3361.589,74.722443 3362.5871,72.666516 3362.6168,69.75 3362.6377,67.6875 3362.3074,66 3361.8827,66 3361.4581,66 3359.4099,67.401847 3357.3313,69.115215 3355.2527,70.828583 3353.2779,71.956342 3352.9429,71.621346 3352.1001,70.77852 3355.361,67.344731 3359.3391,64.886154 3363.7278,62.173767 3363.5283,59.91351 3358.4712,55.054169 3353.8954,50.657332 3353.9532,48.365794 3358.5542,51.767402 3360.1352,52.936335 3361.7047,53.61687 3362.0419,53.279701 3363.4188,51.902776 3362.4487,49.531241 3358.6549,45 3356.4549,42.372342 3354.6549,39.94739 3354.6549,39.61122 3354.6549,38.205369 3356.8152,39.169123 3358.8122,41.465892 3361.4092,44.452662 3362.6549,43.915543 3362.6549,39.80906 3362.6549,37.592582 3361.6794,35.816177 3359.1549,33.435229 3355.7847,30.256722 3354.6959,28 3356.5325,28 3357.0151,28 3357.9702,28.675 3358.6549,29.5 3360.5859,31.826742 3361.6549,31.285285 3361.6549,27.980443 3361.6549,25.278374 3361.9269,25.010204 3364.2416,25.429941 3367.4,26.002675 3369.6549,27.763688 3369.6549,29.657628 3369.6549,30.744485 3369.2087,30.831577 3367.7206,30.035184 3366.6568,29.465833 3365.5024,29 3365.1553,29 3364.1545,29 3364.8942,51.02986 3365.9161,51.661457 3366.4218,51.973941 3368.5948,50.511621 3370.7452,48.411857 3375.2811,43.982671 3375.8003,40.390817 3372.6512,35.22583 3371.5532,33.425037 3370.6691,31.175037 3370.6865,30.22583 3370.7376,27.432999 3375.3772,33.341179 3376.7617,37.96217 3378.3881,43.390508 3376.8958,46.531162 3370.1218,51.936547 L 3364.6549,56.298863 3364.6549,63.05441 3364.6549,69.809956 3369.121,72.427274 C 3375.0933,75.927245 3379.077,81.182278 3378.2514,84.471519 3377.1751,88.75973 3364.9117,100.92348 3363.2948,99.306563 z M 3369.3116,92.448307 C 3372.4854,90.027527 3375.6549,85.331369 3375.6549,83.04966 3375.6549,81.435709 3367.8492,74 3366.1549,74 3364.9168,74 3364.6549,75.833333 3364.6549,84.5 3364.6549,90.275 3364.9499,95 3365.3105,95 3365.6711,95 3367.4716,93.851738 3369.3116,92.448307 z"/>
</svg>
