<?xml version="1.0" encoding="UTF-8"?>
<svg xmlns="http://www.w3.org/2000/svg" viewBox="0 0 5773 172">
  <path d="M 2171.8111,81.28125 C 2170.627,80.199281 2170.6524,78.94147 2171.4674,76.6875 2172.1278,74.86131 2172.6549,71.106931 2172.6549,68.34375 2172.6549,64.209994 2171.9595,62.263151 2168.7799,57.34375 2162.6094,47.796711 2161.2753,41.030771 2163.0611,28.75 2163.6109,24.969895 2163.5425,23 2162.8737,23 2159.6927,23 2158.58,38.985385 2161.1549,47.65625 2161.9745,50.41607 2163.9178,54.473883 2165.4987,56.65625 2171.0203,64.278596 2171.3006,66.406619 2168.3111,78.71875 2165.7408,89.304794 2164.9891,97.123749 2166.2487,100.40625 2166.5824,101.27624 2167.4411,102 2168.1549,102 2169.0918,102 2169.3234,100.88758 2168.9361,98 2168.528,94.957313 2168.6637,94.002818 2170.0299,94.40625 L 2170.4361,89.8125 C 2169.6392,88.727832 2169.386,87.668813 2169.6237,86 2169.7968,84.783937 2170.1113,84.3868 2170.9987,84.5 L 2171.3111,82 2171.8111,81.28125 z M 2152.2799,22 C 2150.6697,22 2150.0472,23.297439 2147.9987,31 2145.9281,38.784734 2147.0253,44.94284 2152.0299,53.8125 2154.301,57.837486 2156.7255,62.112486 2157.4049,63.3125 2159.1555,66.404606 2158.9548,70.004926 2156.5611,79.34375 2154.4233,87.684624 2154.4956,96.977537 2156.7487,101.1875 2158.5324,104.52063 2158.9287,103.04571 2158.2487,95.25 2157.6954,88.90656 2157.9287,86.308368 2159.5924,81 2162.8794,70.512292 2162.451,66.620988 2156.9049,57.40625 2154.2847,53.052946 2151.5847,48.225879 2150.9049,46.6875 2149.2696,42.987157 2149.3157,33.162576 2150.9987,29.9375 2153.3,25.527499 2153.8729,22 2152.2799,22 z"/>
</svg>
