<?xml version="1.0" encoding="UTF-8"?>
<svg xmlns="http://www.w3.org/2000/svg" viewBox="0 0 5773 172">
  <path d="M 5304.9361,98.71875 5304.4049,96.34375 C 5302.9081,96.854465 5301.1847,97.245403 5299.0299,97.53125 5294.2918,98.159781 5293.885,98.003218 5287.8111,93.4375 5283.243,90.00346 5280.9147,87.42205 5279.4361,84.09375 5278.312,81.563157 5277.1023,78.874627 5276.7487,78.125 5276.0874,76.724052 5269.5207,72.444835 5266.4049,71.375 5264.4008,70.686875 5264.0064,67 5265.9361,67 5266.6387,67 5268.208,67.702269 5269.4361,68.5625 5272.772,70.899022 5276.0102,69.560876 5275.2487,66.15625 5272.5664,54.165407 5274.1054,42.068789 5279.0299,36.34375 L 5281.3737,33.625 5283.2487,36.5 C 5285.678,40.207759 5287.6215,53.684826 5286.9361,62.09375 5286.6112,66.081327 5286.7926,68.965378 5287.4049,69.34375 5287.9629,69.688645 5290.1223,68.796795 5292.2174,67.375 5295.825,64.926832 5296.1025,64.898116 5297.3424,66.59375 5299.2246,69.167881 5299.1013,69.43899 5294.4049,72.625 5289.0131,76.282786 5288.6734,76.734529 5288.6549,81.0625 5288.6367,85.306855 5291.3104,88.17732 5296.9987,90 5300.0505,90.9779 5300.8418,90.994493 5302.8111,89.25 L 5302.1549,86.375 C 5297.9759,88.944889 5291.6549,86.255177 5291.6549,80.90625 5291.6549,78.141067 5295.6089,74.200896 5299.9049,72.6875 5302.1286,71.904121 5302.1399,68.636893 5299.9361,64.90625 5297.8984,61.456736 5297.658,61.416505 5294.3737,64 5290.6599,66.921218 5289.6549,66.492458 5289.6549,62 5289.6549,58.030996 5289.8881,57.683637 5295.9987,52.40625 5298.5201,50.228684 5297.3175,49.431869 5294.4987,51.40625 5290.8391,53.969436 5289.6549,53.4068 5289.6549,49.15625 5289.6549,46.132913 5290.3171,44.760242 5292.7487,42.59375 5294.4449,41.082401 5295.5665,39.567859 5295.2487,39.25 5294.9307,38.93214 5293.8516,39.430455 5292.8424,40.34375 5291.8332,41.257045 5290.4506,42 5289.7799,42 5287.5813,42 5285.8262,35.888163 5286.4049,30.28125 5286.7826,26.622237 5286.588,25 5285.7799,25 5285.1392,25 5284.3425,26.280938 5284.0299,27.84375 5283.5379,30.303616 5282.9807,30.694518 5279.8424,30.8125 5277.1598,30.913352 5275.4944,30.253252 5273.4361,28.28125 5270.8647,25.817679 5270.6549,25.764252 5270.6549,27.625 5270.6549,28.732027 5271.7799,30.708255 5273.1549,32 5276.1619,34.824937 5276.1442,34.661594 5273.6549,40.46875 5271.7194,44.984147 5271.6047,45.081435 5269.4361,43.5625 5265.0977,40.523646 5264.1857,41.908529 5267.9674,45.78125 5271.6031,49.504547 5272.2349,51.315998 5271.0611,54.375 5270.5883,55.607188 5270.1215,55.685412 5268.6237,54.75 5267.5977,54.109205 5266.404,53.938352 5265.9674,54.375 5265.2366,55.105789 5265.7872,55.679421 5269.9674,58.5 5270.7825,59.05 5271.7349,61.1875 5272.0924,63.25 5272.8527,67.636755 5271.4396,68.180422 5267.4361,65.03125 5264.621,62.816812 5264.0496,63.094305 5262.0611,67.84375 5260.5676,71.41097 5260.9165,73 5263.1549,73 5263.9109,73 5266.74,74.386505 5269.4361,76.0625 5273.3535,78.497664 5274.7763,80.14412 5276.5299,84.375 5278.8361,89.938997 5281.593,93.10035 5288.0299,97.40625 5292.7701,100.57708 5299.3386,100.84703 5304.9361,98.71875 z"/>
</svg>
