<?xml version="1.0" encoding="UTF-8"?>
<svg xmlns="http://www.w3.org/2000/svg" viewBox="0 0 5773 172">
  <path d="M 1245.457,93.263464 C 1244.546,92.167148 1243.9962,86.410128 1243.6267,74.098214 1243.3362,64.419196 1242.7471,55.9375 1242.3177,55.25 1241.8882,54.5625 1240.0187,54 1238.1633,54 1233.8021,54 1232.9223,51.485123 1235.1984,45.525145 1236.6912,41.616545 1236.7381,40.326314 1235.5963,34.582114 1234.5753,29.44542 1234.5577,27.508652 1235.5132,25.411585 1236.6844,22.841244 1236.7897,22.812048 1238.6897,24.531512 1239.7706,25.509667 1240.6549,26.860131 1240.6549,27.532543 1240.6549,28.204955 1241.2974,29.288368 1242.0828,29.940128 1243.2317,30.893644 1244.3103,30.402671 1247.6041,27.426914 1251.6501,23.771589 1251.7219,23.75056 1253.791,25.614342 1254.9424,26.651454 1256.2716,28.5125 1256.7449,29.75 1257.9837,32.989301 1259.1229,32.567757 1262.7395,27.531688 1264.5044,25.074116 1266.3893,23.335842 1266.9281,23.668856 1268.5888,24.695205 1267.0323,35.653305 1264.6868,39.448425 1262.9293,42.292036 1262.6518,43.796434 1263.2046,47.482669 1264.0478,53.105703 1262.5976,55.24314 1258.2347,54.807516 L 1255.1549,54.5 1254.8449,73 C 1254.6745,83.175 1254.1941,91.845353 1253.7775,92.267451 1253.3609,92.68955 1251.6113,93.438912 1249.8896,93.932701 1247.4684,94.62708 1246.4641,94.475448 1245.457,93.263464 z M 1251.6197,90.065741 C 1252.2167,88.9502 1252.6549,80.942653 1252.6549,71.147529 1252.6549,61.806354 1252.9321,53.441175 1253.2709,52.558241 1253.7418,51.331258 1254.6845,51.102528 1257.2709,51.587744 1260.5739,52.207392 1260.6544,52.142155 1260.6323,48.861291 1260.6035,44.584137 1254.7057,30.013776 1252.4353,28.611062 1251.0473,27.753446 1250.0195,28.21865 1247.1037,31.024321 1243.1051,34.871932 1237.3642,44.037676 1236.3019,48.270195 1235.6536,50.853362 1235.8046,51 1239.1128,51 1245.1042,51 1245.9249,53.465327 1246.2067,72.310795 1246.3399,81.214858 1246.4952,89.2875 1246.5519,90.25 1246.6923,92.634688 1250.3154,92.502958 1251.6197,90.065741 z M 1240.6549,34.19113 C 1240.6549,33.196251 1239.9942,31.508751 1239.1867,30.44113 1237.8108,28.622061 1237.7165,28.735805 1237.6867,32.25 1237.664,34.930801 1238.0826,36 1239.1549,36 1239.9799,36 1240.6549,35.186008 1240.6549,34.19113 z M 1263.725,35.315544 C 1264.2864,33.839093 1264.6127,31.701593 1264.4503,30.565544 1264.1872,28.725911 1263.8986,28.859338 1261.8115,31.785494 1259.5485,34.958367 1259.4686,38 1261.6483,38 1262.2291,38 1263.1637,36.791995 1263.725,35.315544 z"/>
</svg>
