<?xml version="1.0" encoding="UTF-8"?>
<svg xmlns="http://www.w3.org/2000/svg" viewBox="0 0 5773 172">
  <path d="M 3930.8062,97.25 C 3930.3007,96.2875 3929.5789,93.638411 3929.2022,91.363136 3928.5907,87.669481 3928.8506,86.846701 3931.628,83.683386 3934.8482,80.015761 3939.8378,78.121605 3941.9459,79.766456 3942.6108,80.285304 3944.6109,81.19944 3946.3905,81.797871 3949.0024,82.676191 3949.9193,82.592747 3951.1471,81.364987 3953.7531,78.758987 3954.8758,75.974224 3953.8398,74.686078 3953.3151,74.033735 3952.5708,72.02672 3952.1857,70.226045 3951.4629,66.846564 3947.2257,61 3945.4993,61 3944.9615,61 3943.0183,62.146503 3941.1811,63.547785 3939.344,64.949067 3936.2247,66.357834 3934.2494,66.678378 3930.742,67.247547 3930.6073,67.146974 3928.4924,62.380593 3927.1243,59.297241 3926.0358,54.074808 3925.5365,48.198539 3924.8697,40.351577 3924.347,38.422765 3922.1938,35.863867 3919.0157,32.086845 3919.8144,30.390437 3923.6924,32.681205 3927.47,34.91271 3927.7532,35.79156 3928.2229,46.739493 3928.6482,56.65251 3930.5714,63 3933.1497,63 3934.0279,63 3936.8598,61.875 3939.4427,60.5 3945.2615,57.402466 3946.6978,57.383616 3949.9121,60.362605 3955.9538,65.961795 3958.2492,76.154103 3954.7289,81.75 3952.3684,85.502216 3948.973,85.995392 3942.9181,83.465502 3938.6064,81.663971 3934.0743,82.347905 3932.6466,85.015541 3930.8846,88.307778 3931.6514,96 3933.7416,96 3934.2215,96 3935.5325,94.2 3936.6549,92 3937.7773,89.8 3939.0938,88 3939.5806,88 3940.0674,88 3942.3508,89.575 3944.6549,91.5 3949.4374,95.495683 3951.5866,95.837979 3954.1446,93.011425 3955.1344,91.917709 3958.0723,89.65725 3960.6733,87.988183 3966.1882,84.449261 3967.7332,84.717048 3974.5215,90.388568 3976.899,92.374855 3979.2739,94 3979.7992,94 3981.3638,94 3986.2031,91.249348 3987.6002,89.565937 3989.2837,87.537436 3992.7025,87.57817 3997.1084,89.679224 3999.0452,90.602797 4000.9254,91.06283 4001.2867,90.701519 4001.648,90.340207 4001.1661,88.008707 4000.2158,85.520407 3997.9131,79.490724 3995.069,78.719373 3989.5741,82.634256 3987.3619,84.210415 3984.9697,85.903765 3984.2581,86.397255 3982.2662,87.7788 3978.447,86.396655 3974.2634,82.780221 3970.7526,79.745371 3970.4249,79.003244 3969.9427,72.996067 3969.262,64.516143 3971.3118,59 3975.1437,59 3976.5687,59 3979.4987,59.9 3981.6549,61 3983.8111,62.1 3986.2008,63 3986.9654,63 3988.8417,63 3994.3621,51.775379 3995.7473,45.143978 3996.8238,39.990538 3997.7775,38.596894 4007.7756,27.566667 4008.2409,27.053333 4008.9176,26.929406 4009.2795,27.291272 4009.8504,27.862137 4005.5303,33.814891 4000.6187,39.225152 3999.7573,40.173986 3998.0188,44.448986 3996.7554,48.725152 3994.4796,56.427416 3990.6542,64.264393 3988.5291,65.577737 3987.923,65.952345 3984.7734,64.990515 3981.5301,63.440336 3974.6322,60.143434 3973.7059,60.574873 3972.6428,67.579831 3971.5761,74.608637 3973.0941,79.005709 3977.7329,82.324127 L 3981.6807,85.148254 3987.8134,81.052965 C 3994.4213,76.640424 3996.2962,76.528378 4000.4161,80.299805 4003.5348,83.15459 4004.8722,88.629122 4003.5876,93.281528 4003.0229,95.326688 4002.2148,97 4001.7919,97 4001.3689,97 3999.6285,95.425 3997.9242,93.5 3996.22,91.575 3994.0462,90 3993.0937,90 3992.1412,90 3988.9597,91.594503 3986.0236,93.543339 3979.9936,97.545885 3979.3988,97.45113 3972.2249,91.345044 3966.7218,86.661009 3963.7468,86.898519 3957.7584,92.5 3955.1124,94.975 3952.1843,97 3951.2515,97 3949.0562,97 3944.3712,94.568021 3942.7096,92.565937 3940.7528,90.208065 3938.9529,90.676643 3938.1829,93.744406 3937.8041,95.253829 3937.0252,97.053829 3936.4521,97.744406 3934.9483,99.556302 3931.8761,99.287272 3930.8062,97.25 z M 3925.1549,29.584669 C 3920.3257,25.712619 3923.1064,24.740516 3928.2477,28.503456 3930.1585,29.90198 3930.5655,29.8582 3932.9278,27.999985 3936.2846,25.359544 3937.3554,27.030216 3934.1132,29.849321 3930.9291,32.61787 3928.8617,32.556795 3925.1549,29.584669 z M 3935.8264,53.706598 C 3935.236,52.995226 3934.4521,49.476874 3934.0844,45.888037 3933.3265,38.490438 3934.6687,34.707467 3939.361,31.01654 3942.9977,28.155883 3943.5575,30.1386 3940.2297,34.093479 3937.9652,36.784708 3937.6507,38.025877 3937.7608,43.838746 3937.9305,52.805673 3938.7404,53.620241 3944.2662,50.381915 L 3948.6656,47.803663 3952.6911,49.901832 C 3954.905,51.055824 3957.2119,52 3957.8174,52 3959.1872,52 3958.4614,47.030139 3955.6996,37.5 3952.4015,26.118936 3952.3788,26 3953.5064,26 3954.0939,26 3955.1139,27.8 3955.773,30 3957.7462,36.585955 3962.6549,34.874095 3962.6549,27.6 3962.6549,24.78123 3962.9681,23.91317 3963.7154,24.660489 3964.2987,25.243758 3964.6362,27.921258 3964.4654,30.610489 3964.1963,34.848172 3963.8468,35.543668 3961.8438,35.827564 3958.5664,36.292077 3958.1628,38.305938 3960.1079,44.490034 3963.2316,54.42084 3960.842,57.199137 3952.9056,52.863931 L 3948.578,50.5 3944.6683,52.75 C 3940.2488,55.293416 3937.3992,55.601715 3935.8264,53.706598 z M 3965.7192,54.120197 C 3964.7332,52.277877 3966.3303,39.95112 3968.747,30.75 3969.8858,26.414216 3972.2243,25.504468 3971.3175,29.75 3970.9944,31.2625 3970.046,35.65 3969.2099,39.5 3967.5638,47.079468 3967.2086,53.021088 3968.4049,52.964565 3968.8174,52.945075 3970.2799,52.286021 3971.6549,51.5 3974.9365,49.62408 3979.098,49.62408 3980.6549,51.5 3983.8429,55.341315 3986.9286,51.238759 3988.5844,40.957439 3989.4961,35.296269 3989.39,34.307491 3987.5524,31.33415 3986.426,29.511543 3985.6563,27.231268 3985.842,26.266872 3986.0785,25.039085 3987.039,25.979652 3989.046,29.404328 L 3991.9122,34.295231 3990.3509,42.220402 C 3989.4921,46.579246 3988.0739,51.237819 3987.1992,52.572787 3985.3938,55.328157 3981.5629,55.798985 3979.6549,53.5 3977.9988,51.504488 3976.3438,51.607927 3971.6549,54 3966.8731,56.439508 3966.9595,56.437756 3965.7192,54.120197 z M 3995.5798,31.718197 C 3993.166,29.851383 3990.2942,25.02561 3991.117,24.218792 3991.5201,23.823456 3993.1325,25.029793 3994.7001,26.89954 L 3997.5502,30.299081 4001.1374,27.14954 C 4004.5095,24.188791 4007.2332,22.998448 4006.4882,24.811058 4006.1093,25.733018 3998.1134,33.016871 3997.5337,32.968197 3997.3254,32.950705 3996.4461,32.388205 3995.5798,31.718197 z"/>
</svg>
