<?xml version="1.0" encoding="UTF-8"?>
<svg xmlns="http://www.w3.org/2000/svg" viewBox="0 0 5773 172">
  <path d="M 2736.6549,74.21875 2736.6549,80.875 C 2737.5677,80.386576 2739.2087,80.74602 2742.2799,82.0625 2747.8343,84.443418 2750.8529,84.025035 2752.3737,80.6875 2753.7033,77.768954 2754.7427,61.959745 2755.0611,39.25 2755.1941,29.770011 2755.6154,21.727094 2755.9987,21.34375 2756.382,20.960405 2757.1651,21.103911 2757.7487,21.6875 2761.2904,25.229215 2763.1726,53.555563 2761.1861,73.25 2760.3671,81.369553 2759.2331,88.919658 2758.6549,90 2756.6834,93.683782 2754.4832,93.996228 2747.5299,91.65625 2741.4154,89.598542 2738.1284,87.88062 2736.6549,86 L 2736.6549,90 2736.9987,91.375 C 2738.2692,91.203598 2740.6982,92.022026 2745.9674,94.0625 2753.6959,97.055336 2758.3795,96.102702 2760.8737,91 2763.2227,86.194109 2765.0261,62.674005 2764.2174,47.5 2763.3723,31.642325 2761.9423,24.242166 2758.9049,20.15625 2754.573,14.328775 2753.9623,16.729211 2753.2487,42.5 2752.3396,75.332524 2751.7229,80.524745 2748.7487,81.46875 2746.8034,82.086133 2740.4962,79.000632 2737.4987,75.96875 2737.1706,75.636941 2736.9119,74.923512 2736.6549,74.21875 z"/>
</svg>
