<?xml version="1.0" encoding="UTF-8"?>
<svg xmlns="http://www.w3.org/2000/svg" viewBox="0 0 5773 172">
  <path d="M 246.11258,37.257719 C 246.04985,29.479999 244.50765,28.673951 239.65208,33.881074 237.45361,36.238722 235.65486,38.361586 235.65486,38.598551 235.65486,39.706143 242.3802,43.004555 244.15486,42.767338 245.87292,42.537687 246.1489,41.760995 246.11258,37.257719 z M 225.29434,97.306147 C 224.94263,96.954433 224.65486,93.859587 224.65486,90.428711 224.65486,86.997836 224.00394,78.185336 223.20838,70.845378 221.61743,56.167127 220.91446,37.40707 221.91779,36.403736 222.26964,36.051882 222.75961,36.829602 223.00661,38.132001 223.57918,41.151149 226.63421,77.89194 227.21081,88.693047 227.60989,96.1689 226.98146,98.993262 225.29434,97.306147 z M 214.31636,88.847931 C 213.37421,76.73638 210.08423,46.471739 209.11496,41 208.53448,37.723104 208.89588,37.101601 214.78452,31.25 218.24378,27.8125 221.60003,25 222.24286,25 222.88569,25 225.32109,27.475 227.65486,30.5 229.98863,33.525 232.42466,36 233.06826,36 233.71186,36 236.22583,33.975 238.65486,31.5 241.08389,29.025 243.82872,27 244.75449,27 246.82709,27 249.65486,33.647779 249.65486,38.520236 249.65486,43.703744 246.86281,46.061814 242.01887,44.969328 239.92454,44.496982 238.017,44.304526 237.77988,44.541647 237.54276,44.778768 237.4489,56.678902 237.5713,70.986388 237.76861,94.049401 237.61583,97 236.22436,97 234.87195,97 234.64673,94.95976 234.5961,82.25 234.44664,44.729678 234.28188,42.495473 231.43306,39.357093 230.00663,37.785692 227.40139,34.8125 225.64362,32.75 223.88585,30.6875 222.08783,29 221.64801,29 221.2082,29 218.72404,30.923263 216.12766,33.273918 L 211.40697,37.547836 213.50007,56.523918 C 216.45448,83.308687 217.08793,93.403727 215.94263,95.450258 215.21706,96.746793 214.79869,95.0483 214.31636,88.847931 z"/>
</svg>
