<?xml version="1.0" encoding="UTF-8"?>
<svg xmlns="http://www.w3.org/2000/svg" viewBox="0 0 5590 172">
  <path d="M 446.7791,95.25 C 445.61946,92.6375 444.46002,88.3365 444.20255,85.692223 443.70961,80.629414 446.1834,69.209126 448.623,65.285183 450.39257,62.438949 450.37773,59.558377 448.58584,58.071243 447.80806,57.425738 446.00806,53.990903 444.58584,50.438277 441.60069,42.981495 441.1891,34.876517 443.51313,29.314341 445.43818,24.707031 446.48196,25.601804 445.07847,30.656229 444.49145,32.770303 444.00864,36.196442 444.00558,38.26987 443.99943,42.422362 447.68766,52.34825 450.92734,56.897955 453.39146,60.358501 453.51978,62.277085 451.49388,65.368998 450.66551,66.633245 449.0656,71.314289 447.93851,75.771319 445.62306,84.92768 446.13717,88.975878 450.41627,95.281483 451.74346,97.237199 452.56774,99.098931 452.248,99.418665 450.64015,101.02652 448.67997,99.532367 446.7791,95.25 z M 455.45709,94.25 C 452.83413,86.543635 452.92541,74.507931 455.66376,67 457.72472,61.349314 457.68712,59.602045 455.44856,57 454.73881,56.175 453.50362,52.023242 452.7037,47.773871 451.2232,39.909118 451.58707,34.682131 454.04543,28.5 455.71352,24.305191 456.45826,27.123004 455.10349,32.503287 452.99629,40.871749 454.49442,50.639046 459.07635,58.404828 L 461.06505,61.775427 458.83228,65.559693 C 455.50666,71.196204 455.05489,84.314579 457.89699,92.718455 460.3744,100.04399 460.36951,100 458.70709,100 457.99598,100 456.53348,97.4125 455.45709,94.25 z M 463.53958,94.888026 C 461.49936,90.484416 461.24057,88.717655 461.67205,82.138026 461.94753,77.937112 463.0858,71.642161 464.20152,68.149248 465.78846,63.181161 465.98887,61.330568 465.12204,59.649248 459.72493,49.180864 459.58761,35.309549 464.80099,27.218792 467.04999,23.728521 467.29418,25.224808 465.41378,30.97378 463.19085,37.770025 463.96361,50.951541 466.94699,57.126412 469.51114,62.433606 469.5142,62.320876 466.5219,72.811827 463.74227,82.557183 463.68553,90.565134 466.36113,95.5 468.261,99.00411 468.39221,100 466.954,100 466.37869,100 464.84221,97.699612 463.53958,94.888026 z"/>
</svg>
