<?xml version="1.0" encoding="UTF-8"?>
<svg xmlns="http://www.w3.org/2000/svg" viewBox="0 0 5589 172">
  <path d="M 1854.5625,57.125 1852.25,58.46875 C 1852.6461,59.990955 1853.0666,61.319513 1853.5,62.15625 1854.8461,64.755592 1855.2093,67.83791 1855.125,76 1855.0653,81.775 1854.7151,88.8625 1854.375,91.75 1853.9734,95.159881 1854.1265,97 1854.8125,97 1856.5864,97 1856.7861,95.96294 1857.5,82 1857.8796,74.575 1858.3362,68.35722 1858.5,68.1875 1858.6637,68.01778 1860.4345,68.587557 1862.4688,69.4375 1867.4802,71.53148 1870,70.175504 1870,65.40625 1870,60.733722 1867.459,56 1864.9688,56 1863.8871,56 1861.8139,57.35 1860.3438,59 1858.8735,60.65 1857.1066,62 1856.4062,62 1855.6316,62 1854.9996,59.75322 1854.5625,57.125 z M 1864,58.59375 C 1864.5767,58.376941 1865.0343,58.596214 1865.5938,59.15625 1866.33,59.893354 1867.0609,62.065083 1867.2188,63.96875 1867.555,68.025493 1865.9544,68.738399 1861.75,66.4375 1858.3586,64.581516 1858.3507,64.187438 1861.625,60.65625 1862.7215,59.473666 1863.4233,58.810559 1864,58.59375 z M 1835.5312,68.1875 1833.25,69.5 C 1833.5784,69.966652 1833.9759,70.45156 1834.125,70.84375 1834.671,72.28005 1835.5776,78.603451 1836.125,84.90625 1836.6724,91.209048 1837.3509,96.787073 1837.6562,97.28125 1840.508,101.89533 1838.6907,73.996296 1835.7812,68.5 1835.7251,68.393908 1835.5961,68.293166 1835.5312,68.1875 z M 1847.25,71.71875 C 1846.6073,71.925188 1846.1196,77.137224 1846.1875,85.78125 1846.2545,94.319852 1846.6027,97.973648 1847.375,97.71875 1848.7543,97.263489 1849.3684,85.737749 1848.4688,77.09375 1848.0698,73.262074 1847.6356,71.594887 1847.25,71.71875 z"/>
</svg>
