<?xml version="1.0" encoding="UTF-8"?>
<svg xmlns="http://www.w3.org/2000/svg" viewBox="0 0 5589 172">
  <path d="M 4804.5762,59.250028 C 4804.6474,23.943332 4804.7671,21.477841 4806.425,21.157635 4808.4567,20.765262 4813.1851,24.956936 4816.1928,29.816621 4819.0881,34.494751 4818.2054,40.161102 4813.8873,44.616245 L 4810.6168,47.990582 4813.1942,50.745291 C 4816.1134,53.86518 4819,59.162458 4819,61.399449 4819,62.223772 4817.3125,64.133792 4815.25,65.643938 4813.1875,67.154085 4811.0858,68.738714 4810.5795,69.165337 4810.0666,69.597538 4811.7818,71.91788 4814.453,74.405406 4818.9219,78.567086 4819.2013,79.113486 4818.5728,82.463695 4817.2769,89.371473 4810.8313,96.999957 4806.2905,97.000028 4804.6001,97.000055 4804.5043,94.889368 4804.5762,59.250028 z M 4813.8514,87.10178 C 4815.8976,83.448927 4816.0467,82.527008 4815.0003,80.000712 4813.7965,77.094419 4809.3125,73.354187 4808.2754,74.391269 4807.9723,74.69436 4807.4949,79.329356 4807.2144,84.691259 L 4806.7045,94.440175 4809.1022,92.869904 C 4810.421,92.006255 4812.5581,89.4106 4813.8514,87.10178 z M 4812.4111,41.923275 C 4815.3375,38.445417 4815.6239,36.107245 4813.6024,32.19798 4811.9433,28.989692 4808.2304,25.436253 4807.4024,26.264268 4806.6507,27.01597 4806.765,40.684064 4807.5434,43.136868 4808.369,45.737834 4809.4224,45.475203 4812.4111,41.923275 z M 4813.6258,63.645448 C 4816.1984,61.432552 4816.2841,61.100094 4815.0495,58.119501 4813.9004,55.345411 4808.3688,50.159563 4807.6056,51.140909 4807.452,51.338409 4807.5287,54.7625 4807.776,58.75 4808.277,66.826874 4809.1134,67.526844 4813.6258,63.645448 z"/>
</svg>
