<?xml version="1.0" encoding="UTF-8"?>
<svg xmlns="http://www.w3.org/2000/svg" viewBox="0 0 5589 172">
  <path d="M 1519.25,35.40625 C 1516.4639,37.207963 1513.7711,38.126916 1512.2188,37.53125 1510.8377,37.001272 1511.0129,33.442751 1512.6562,28.1875 1513.0092,27.059007 1512.4943,27.288251 1511.0938,28.875 1508.6399,31.655229 1508.2454,38.149429 1510.4375,39.96875 1511.2361,40.631534 1512.8111,40.857503 1513.9375,40.5 1515.0639,40.142496 1516,40.292781 1516,40.8125 1516,42.354258 1512.9523,44.430655 1509.0938,45.53125 1506.1123,46.381672 1504.5057,48.041145 1499.8125,55.03125 1490.004,69.640481 1484.5569,73.248282 1478,69.5 1476.625,68.713979 1474.0857,68.05074 1472.3438,68.03125 1469.5149,67.999602 1469.0026,68.454164 1467.625,72.25 1464.8107,80.004473 1464.0735,84.074819 1465.0312,86.59375 1465.5362,87.921941 1466.3296,89 1466.7812,89 1467.2329,89 1470.0318,87.442172 1473.0312,85.53125 1479.7743,81.235476 1481.9784,81.151244 1486.4688,85.09375 1491.9324,89.890823 1490.9394,94.554132 1485.0938,91.53125 1480.8738,89.349042 1478.8616,89.591575 1472.0312,93.0625 1460.8818,98.728246 1457.4183,98.001057 1455.0938,89.5 1452.5045,80.031484 1454.7035,67.055564 1460.2812,58.78125 1463.1942,54.460051 1463.726,52.869414 1463.2812,50 1462.595,45.573519 1461.3486,44 1458.5,44 1454.2106,44 1451.9107,37.676578 1454.5625,33.1875 1455.8981,30.926546 1462.6144,26 1464.375,26 1464.644,26 1464.6424,27.503883 1464.3438,29.34375 1463.9983,31.472714 1464.3947,33.891842 1465.4688,35.96875 1466.9675,38.866888 1467.5107,39.141623 1470.25,38.59375 1471.9466,38.25444 1474.797,36.870437 1476.5938,35.5 1480.697,32.370257 1481.0129,32.380013 1480.9688,35.75 1480.9286,38.819397 1478.1111,42.559581 1473.3438,45.84375 1470.8862,47.536714 1469.9134,49.157552 1469.0625,53.125 1467.7195,59.387292 1468.2546,60.211127 1475.625,62.96875 1485.5119,66.667899 1487.5762,65.605882 1496.1875,52.5 1499.5777,47.340245 1500.0333,46.009857 1499.4375,43 1498.2806,37.156247 1498.4814,27.112418 1499.7812,25.8125 1501.3547,24.239043 1501.3144,23 1499.6875,23 1496.4825,23 1494.7532,34.887591 1497.0312,41.1875 1498.1793,44.3623 1498.0403,45.044067 1495.5938,49.21875 1494.1212,51.731279 1490.9994,55.85891 1488.6562,58.375 1484.4396,62.903048 1484.3501,62.949688 1480.4375,61.875 1478.2633,61.277831 1475.2664,60.155472 1473.75,59.375 1471.216,58.070794 1471.0244,57.597836 1471.5938,53.71875 1471.9346,51.3974 1472.9131,49.05 1473.75,48.5 1482.1653,42.969244 1485.6691,36.490768 1483.4062,30.59375 1482.5187,28.280784 1481.3209,28.600812 1476.5625,32.5 1469.7178,38.108705 1467,37.069197 1467,28.875 1467,23.920236 1465.0521,22.997689 1460.125,25.59375 1453.8577,28.89601 1451,32.791378 1451,38.0625 1451,43.129003 1452.5813,45.289894 1457.1562,46.375 1460.9933,47.285089 1461.9953,52.267886 1459.0625,55.875 1452.5248,63.916067 1449.3781,80.480987 1452.5,90.40625 1453.5848,93.855279 1455.3127,96.896152 1456.875,98.125 1460.3401,100.8507 1464.4917,99.84818 1476.4062,93.34375 1479.1184,91.863163 1479.5941,91.886303 1483.6875,93.875 1489.3879,96.644492 1489.841,96.566276 1491.4062,92.84375 1493.1829,88.618427 1492.4788,86.547229 1488,83 1483.3791,79.340146 1479.931,79.198789 1474.1562,82.5 1471.7627,83.868375 1469.4002,85 1468.9062,85 1466.7296,85 1469.2519,71.211115 1471.5938,70.3125 1472.3162,70.035285 1475.2903,70.716814 1478.2188,71.8125 1482.8206,73.534301 1483.9626,73.646294 1486.5312,72.53125 1490.5752,70.775667 1496.8914,63.947488 1502.3438,55.4375 1506.2203,49.386978 1507.4797,48.189061 1511.0312,47.125 1513.9807,46.24132 1515.6599,44.971353 1516.8438,42.75 1517.6351,41.265077 1518.6602,39.723096 1519.8125,38.25 L 1519.3438,37.34375 1519.25,35.40625 z M 1506.0312,26.03125 C 1505.62,25.845327 1504.9017,26.35819 1504.1875,27.75 1502.9607,30.140511 1501.8171,37.906834 1502.5312,39.0625 1503.8895,41.260176 1505,39.688222 1505,35.5625 1505,33.123304 1505.4325,29.973304 1505.9688,28.5625 1506.5251,27.099282 1506.4425,26.217173 1506.0312,26.03125 z"/>
</svg>
