<?xml version="1.0" encoding="UTF-8"?>
<svg xmlns="http://www.w3.org/2000/svg" viewBox="0 0 5589 172">
  <path d="M 1109.3282,98.517352 C 1106.2342,96.35019 1101,88.035768 1101,85.288063 1101,82.16055 1104.5697,77.451423 1108.8588,74.920776 L 1112.3096,72.884764 1109.3182,70.759546 C 1105.768,68.237438 1103,63.747774 1103,60.51163 1103,58.973824 1104.7648,56.598642 1108.2067,53.50406 L 1113.4134,48.822781 1109.1244,45.260124 C 1103.5404,40.621723 1102.3838,37.654954 1104.7286,33.984435 1106.9347,30.531036 1115.8163,21 1116.8283,21 1117.9312,21 1124.4421,29.020523 1126.3776,32.763308 1127.901,35.709228 1127.9124,36.268663 1126.5049,38.990582 1125.6543,40.635403 1123.7302,42.767068 1122.2292,43.727617 1116.4903,47.40003 1116.2677,48.022555 1119.6677,50.890985 1122.8344,53.562634 1128,60.562687 1128,62.182388 1128,62.6792 1125.9339,65.294502 1123.4087,67.99417 L 1118.8174,72.902658 1122.4087,78.72105 C 1128.1,87.941784 1126.9803,91.91121 1117,97.894305 1112.8314,100.39335 1112.0923,100.45337 1109.3282,98.517352 z M 1113.9847,85.25 C 1114.0006,75.619382 1113.7052,75.060702 1109.6843,77.11704 1106.5206,78.734955 1104.0478,82.136433 1104.0222,84.905609 1104.0005,87.259576 1107.7774,93.266871 1110.8403,95.749926 1113.3,97.744003 1113.9677,95.514352 1113.9847,85.25 z M 1114.3575,62.853309 C 1115.4234,52.655885 1115.2566,50.972842 1113.25,51.676036 1110.4197,52.667875 1105,58.242188 1105,60.161371 1105,62.274614 1110.6772,69 1112.4611,69 1113.2607,69 1113.9479,66.772762 1114.3575,62.853309 z M 1114.8188,36.231253 C 1114.6434,31.520113 1114.05,27.540802 1113.5,27.388338 1111.931,26.953401 1106,34.958519 1106,37.511144 1106,39.912547 1112.7702,46.260042 1114.3139,45.30597 1114.7669,45.026015 1114.9941,40.942392 1114.8188,36.231253 z M 1121.3636,92.363636 C 1122.9167,90.810536 1124,88.612275 1124,87.013675 1124,84.747835 1120.3094,78.294595 1116.8721,74.55 1116.3711,74.004298 1116,78.153674 1116,84.3 1116,96.154249 1116.6284,97.098915 1121.3636,92.363636 z M 1122.3129,66.195281 C 1125.842,62.511698 1125.7025,60.145947 1121.6821,55.495023 1117.1336,50.233127 1116,51.343148 1116,61.059017 1116,68.060165 1116.2146,69 1117.8129,69 1118.81,69 1120.835,67.737877 1122.3129,66.195281 z M 1125.014,37.966245 C 1126.3164,34.821909 1126.5534,35.293837 1118.8184,25.630665 1117.8935,24.475234 1116.8307,23.835966 1116.4566,24.210071 1116.0825,24.584175 1116.0972,29.372911 1116.4894,34.851705 L 1117.2024,44.813151 1120.4948,42.870584 C 1122.3056,41.802173 1124.3392,39.59522 1125.014,37.966245 z"/>
</svg>
