<?xml version="1.0" encoding="UTF-8"?>
<svg xmlns="http://www.w3.org/2000/svg" viewBox="0 0 5589 172">
  <path d="M 106.25,32.46875 C 106.1821,32.443845 106.02694,32.504711 105.96875,32.46875 105.43762,32.140489 105,30.976697 105,29.875 105,28.048601 102.14232,18.065287 101.34375,17.09375 101.15815,16.867955 100.11654,17.486579 99.03125,18.46875 97.839573,19.547203 96.244144,20.021023 94.96875,19.6875 93.277032,19.245106 92.976632,19.469107 93.5625,20.8125 94.788535,23.623794 95.104826,28.424131 94.15625,29.84375 93.415446,30.952421 92.912694,30.952402 91.1875,29.875 87.918059,27.8332 87.188191,29.895909 90.25,32.53125 91.973774,34.014926 93,35.887013 93,37.5625 93,39.999129 92.734747,40.203199 90,39.65625 86.18813,38.893876 85.876076,41.164103 89.5625,42.84375 91.66796,43.803062 92.069496,44.585899 91.8125,47.25 91.530522,50.173069 91.204878,50.459348 88.625,50.15625 86.58313,49.916359 85.901313,50.202939 86.21875,51.15625 86.463473,51.891189 87.539327,52.673875 88.59375,52.875 91.029943,53.33969 91.980701,54.793483 92,58.15625 92.022371,62.054372 91.007085,64 89,64 88.026188,64 86.629844,64.767122 85.875,65.6875 84.663122,67.165136 84.733987,67.268236 86.5,66.78125 91.568548,65.383577 91.488603,65.358662 91.8125,69.875 92.059766,73.322813 91.638364,74.758736 89.8125,76.75 L 87.5,79.28125 90.15625,78.65625 C 92.592985,78.072462 92.83023,78.297042 93.21875,81.625 93.471759,83.792201 93.101078,85.742672 92.3125,86.53125 90.596139,88.247611 90.620615,89.360721 92.375,88.6875 93.351178,88.312906 94.144222,89.529544 95.03125,92.8125 95.726223,95.384646 96.479679,97.830271 96.6875,98.21875 97.500646,99.738763 99.834716,97.700288 101.3125,94.1875 102.99079,90.198076 103.66461,87.4704 104.5,81.40625 104.79533,79.262447 105.30971,75.924832 105.625,74 105.94028,72.075168 106.1381,64.972438 106.09375,58.21875 106.02815,48.229989 106.0961,46.4016 107.46875,45.53125 L 107.34375,44 107.0625,40.9375 C 106.57651,40.536717 106.34312,39.97133 106.25,39 106.18013,38.271303 106.42503,37.700242 106.6875,37.125 L 106.25,32.46875 z M 98.96875,21 C 100.35244,21 101.89513,25.915584 102.9375,33.65625 104.33417,44.027918 103.51505,73.457117 101.5625,83.4375 100.00982,91.373988 98.779536,94.074892 97.59375,92.15625 96.116047,89.765275 94.170501,66.354327 94.375,53.5 94.587423,40.147586 97.294731,21 98.96875,21 z"/>
</svg>
