<?xml version="1.0" encoding="UTF-8"?>
<svg xmlns="http://www.w3.org/2000/svg" viewBox="0 0 5377 172">
  <path d="M 3882.5,99.288125 C 3876.1417,97.629734 3870.0445,88.643359 3871.9238,83.70046 3872.441,82.340035 3874.6948,79.302649 3876.9321,76.950714 3880.8629,72.818627 3882.5042,68.208789 3879.6555,69.301943 3877.6369,70.076548 3870.7708,65.845771 3869.0389,62.760222 3867.6554,60.295287 3867.6807,59.748341 3869.3196,56.705043 3871.7306,52.22826 3879,47.944066 3879,51 3879,51.55 3878.3035,52 3877.4523,52 3875.335,52 3871,56.852826 3871,59.222946 3871,61.790209 3876.3076,67 3878.9231,67 3880.8603,67 3881,66.436728 3881,58.625 3881,54.01875 3881.2493,48.95625 3881.5541,47.375 3882.0552,44.775069 3881.7282,44.343032 3878.1364,42.859386 3875.6464,41.830885 3873.5604,40.05067 3872.5455,38.08797 3871.0486,35.193385 3871.0526,34.691388 3872.5981,31.434533 3874.1188,28.229818 3878.3112,25 3880.9503,25 3882.9268,25 3882.0025,26.961255 3879.75,27.546759 3878.5125,27.868434 3876.6707,29.254637 3875.657,30.62721 3873.1953,33.960529 3874.1851,37.533813 3878.2557,40.009296 L 3881.4577,41.956554 3882.6018,35.166097 C 3884.1302,26.09555 3884.8696,24 3886.5417,24 3887.3155,24 3888.6468,25.35 3889.5,27 3891.2041,30.295342 3893.0844,30.808155 3895,28.5 3896.2389,27.00721 3899,26.416351 3899,27.644023 3899,27.998236 3897.4154,29.685736 3895.4786,31.394023 3892.101,34.373115 3892.001,34.654008 3893.0311,38.269927 3894.0622,41.889409 3894.1916,41.979199 3896.275,40.519927 3898.7785,38.766432 3900,38.587513 3900,39.97432 3900,40.510196 3898.65,41.646752 3897,42.5 3893.9809,44.061223 3893.0732,47.4213 3894.5975,51.393475 3895.1299,52.780808 3895.506,52.789723 3898.0478,51.475263 3901.3913,49.746313 3902,49.665883 3902,50.953083 3902,51.477278 3900.425,52.653552 3898.5,53.567024 3895.698,54.896648 3895,55.800636 3895,58.099753 3895,60.333269 3895.8724,61.548969 3898.9249,63.569028 3902.6873,66.058843 3904.9187,69 3903.0453,69 3902.5548,69 3900.8314,67.887548 3899.2155,66.527884 3895.7979,63.652136 3895,64.066792 3895,68.718686 3895,71.560464 3895.4688,72.267473 3897.9198,73.121896 3899.5257,73.681717 3901.1113,74.847715 3901.4434,75.713004 3902.2345,77.774595 3901.3785,78.556403 3899.7742,77.237523 3899.0734,76.66141 3897.6,76.034784 3896.5,75.845022 3894.79,75.550033 3894.4836,76.08006 3894.3868,79.5 3894.3008,82.53544 3894.9674,84.342838 3897.1511,86.995224 3900.1738,90.666747 3899.2794,92.467819 3895.936,89.442085 3893.5206,87.256207 3892.9312,87.828117 3890.9051,94.323398 3889.225,99.709823 3887.6603,100.63405 3882.5,99.288125 z M 3882.7079,86.791167 C 3882.043,81.497152 3881.216,76.882655 3880.8701,76.536728 3880.5241,76.190802 3878.7907,77.739041 3877.018,79.977259 3874.4881,83.171547 3873.9385,84.61863 3874.4623,86.705879 3875.1102,89.287244 3882.6108,97.722523 3883.4829,96.850481 3883.7215,96.611873 3883.3727,92.085182 3882.7079,86.791167 z M 3890.3563,87.278883 C 3891.2587,83.550497 3892.2016,76.956233 3892.4517,72.624962 3893.6122,52.525495 3888.3888,20.181234 3885.6103,30.261247 3882.4207,41.832362 3882.194,72.243089 3885.1799,88 3886.9369,97.272277 3887.9724,97.128022 3890.3563,87.278883 z"/>
</svg>
