<?xml version="1.0" encoding="UTF-8"?>
<svg xmlns="http://www.w3.org/2000/svg" viewBox="0 0 5377 172">
  <path d="M 928.625,85.875 929.34375,84.65625 932.53125,79.25 C 932.19234,79.410796 931.9404,79.620362 931.84375,79.875 931.66042,80.358045 929.76425,81.933045 927.625,83.375 923.59629,86.090545 920.57132,86.714117 919.53125,85.03125 919.20058,84.496211 917.97609,80.558711 916.84375,76.28125 915.25662,70.285797 914.83624,65.750813 914.9375,56.5 915.00974,49.9 915.24022,43.071092 915.46875,41.3125 915.95618,37.561406 920.78047,27 922,27 924.66407,27 924.12827,46.029885 921.28125,52.84375 920.27204,55.259143 920.005,57.972136 920.4375,61.4375 920.78501,64.22184 921.23758,68.899306 921.4375,71.84375 921.63743,74.788193 922.28096,77.655962 922.84375,78.21875 924.30595,79.680949 928.34071,78.427801 931.96875,75.375 933.68437,73.931402 935.33843,73.025926 935.65625,73.34375 935.73687,73.42437 935.70087,73.630388 935.75,73.75 L 936,73.34375 935.09375,68.40625 C 934.65027,69.246522 934.01242,70.116936 932.84375,71.34375 931.00786,73.270998 928.54817,75.103369 927.375,75.4375 924.98808,76.11732 924.63331,75.062844 923.46875,63 922.99015,58.042499 923.24042,55.55077 924.53125,52.5 927.00526,46.652875 927.12608,30.404283 924.71875,26.71875 922.32829,23.059051 920.6034,23.296789 918.03125,27.65625 913.72526,34.954367 912.83955,39.118413 912.3125,54 911.86952,66.508029 912.069,69.738566 913.90625,77.4375 915.07766,82.346267 916.55146,86.958767 917.15625,87.6875 918.73883,89.594387 922.98677,89.287729 926.6875,87.03125 L 928.625,85.875 z"/>
</svg>
