<?xml version="1.0" encoding="UTF-8"?>
<svg xmlns="http://www.w3.org/2000/svg" viewBox="0 0 5377 172">
  <path d="M 3570.2812,27.3125 C 3569.225,27.225009 3568.0978,27.450762 3566.4062,27.90625 3564.165,28.509755 3561.5006,29.894309 3560.5,31 3558.2495,33.486716 3559.1215,34.753537 3561.4688,32.40625 3562.4052,31.469918 3565.3217,30.470101 3567.9375,30.21875 3572.2015,29.809039 3572.9068,30.068804 3574.8438,32.53125 3577.7519,36.228499 3577.5619,38.281863 3574,41.84375 3570.477,45.36674 3569.8439,48.445994 3573.3125,45.1875 3574.5854,43.991627 3576.1604,43 3576.8125,43 3578.8303,43 3578.2037,49.394409 3576,51.28125 3574.9,52.223099 3574.0503,53.557116 3574.0938,54.25 3574.1566,55.25115 3574.2553,55.243373 3574.6562,54.25 3574.9336,53.5625 3575.8147,53 3576.5938,53 3577.5729,53 3578,54.189911 3578,56.875 3578,59.915506 3577.4566,61.124254 3575.5,62.40625 3574.125,63.307185 3573,64.70625 3573,65.53125 3573,66.827767 3573.3391,66.822101 3575.5,65.40625 L 3578,63.78125 3578,68.21875 C 3578,71.660654 3577.4347,73.182491 3575.5,75 3572.6438,77.683268 3572.8411,78.671612 3575.9062,77.03125 3577.8193,76.00744 3578,76.209799 3578,79.15625 3578,81.540104 3577.1618,83.080867 3574.75,85.15625 L 3571.5,87.9375 3574.75,87.34375 C 3577.9355,86.756789 3578,86.837466 3578,90.4375 3578,93.203896 3577.3212,94.686007 3575.25,96.46875 3572.5895,98.758673 3572.6202,101.39601 3575.2812,99.1875 3576.273,98.364517 3577.3081,98.683009 3579.5312,100.5 3581.157,101.82863 3582.8375,102.94897 3583.25,102.96875 3584.7329,103.03985 3583.9596,100.27338 3582,98.5 3580.6606,97.287852 3580,95.418771 3580,92.84375 3580,88.863267 3580.4704,88.376815 3582.9375,89.9375 3585.9843,91.864979 3586.0273,89.623335 3583,86.5 3580.6435,84.068713 3579.9119,82.513099 3580.1562,80.375 3580.4226,78.044293 3580.9239,77.558584 3582.75,77.8125 3585.6296,78.212901 3585.5829,77.543489 3582.5,74.21875 3578.8976,70.3337 3579.0788,62.484969 3582.6875,66.09375 3583.4477,66.853948 3583.9802,66.864865 3584.4375,66.125 3584.7971,65.543069 3583.9288,64.058926 3582.5312,62.84375 3580.764,61.307022 3580,59.621449 3580,57.3125 3580,53.921741 3581.5756,52.981776 3583.6875,55.09375 3584.4226,55.828785 3584.9769,55.850978 3585.4062,55.15625 3586.0385,54.133384 3582.3585,50 3580.8125,50 3580.3662,50 3580,48.875 3580,47.5 3580,46.125 3580.45,45 3581,45 3581.55,45 3582,45.45 3582,46 3582,46.55 3582.45,47 3583,47 3584.8221,47 3584.0372,44.383571 3581.5,42 3580.125,40.708255 3579,38.628248 3579,37.375 3579,33.650416 3576.9778,30.305635 3573.625,28.5 3572.318,27.796138 3571.3375,27.399991 3570.2812,27.3125 z"/>
</svg>
