<?xml version="1.0" encoding="UTF-8"?>
<svg xmlns="http://www.w3.org/2000/svg" viewBox="0 0 5377 172">
  <path d="M 4257.4078,98.620346 C 4256.1825,95.427362 4260.1487,86.638757 4264.6511,82.569979 L 4269,78.639957 4269,71.340303 4269,64.040648 4265.0398,62.020324 C 4262.8617,60.909146 4260.4418,60 4259.6623,60 4257.6629,60 4255.8569,62.464803 4255.0827,66.250126 4254.1346,70.885798 4251.6216,70.931951 4250.2121,66.339576 4248.9028,62.073498 4249.5266,60.632069 4251.5088,63.342956 4252.7772,65.07763 4252.9391,65.018374 4254.3418,62.306021 4255.1599,60.723812 4257.0114,58.796674 4258.4561,58.023494 4260.764,56.788352 4261.4303,56.82299 4263.9457,58.308856 4267.605,60.470463 4269.6098,60.452371 4270.4677,58.25 4270.966,56.970689 4269.9935,55.499696 4266.852,52.780917 4262.8165,49.288548 4262.4158,49.152795 4260.2773,50.55397 4257.6819,52.254509 4257.211,50.931839 4259.5714,48.571429 4261.8241,46.318776 4264.3024,46.62857 4267,49.5 4270.3838,53.101879 4272.607,52.710477 4274.1003,48.25 4274.7908,46.1875 4275.3069,43.756474 4275.2474,42.84772 4275.0932,40.496668 4271.2205,32.254323 4269.8811,31.426494 4269.2576,31.041143 4267.4525,32.127409 4265.8281,33.865492 4263.0683,36.818405 4262.7433,36.918636 4260.1973,35.602022 4258.7112,34.833527 4256.6563,33.277708 4255.6309,32.144646 4253.811,30.13373 4253.8123,30.005912 4255.6839,26.792267 4258.1126,22.622062 4260.9057,22.208363 4264.7565,25.448521 4268.5275,28.621615 4269.0727,28.618609 4272.0757,25.408178 4276.4684,20.711985 4277.7932,20.499047 4281.9308,23.824134 L 4285.6641,26.824314 4290.4917,24.004821 C 4293.1469,22.4541 4295.9448,21.425336 4296.7093,21.718678 4297.4737,22.01202 4299.161,23.814671 4300.4588,25.724569 L 4302.8185,29.197111 4300.3566,34.098556 C 4299.0026,36.79435 4297.3317,39 4296.6435,39 4295.9554,39 4293.8658,37.425 4292,35.5 4290.1342,33.575 4288.29,32 4287.9017,32 4286.8079,32 4285,37.933584 4285,41.52327 4285,44.973544 4289.488,54 4291.2035,54 4291.7713,54 4293.7735,52.65 4295.6528,51 4302.949,44.593827 4309.7564,48.524606 4311.4999,60.150481 4312.0372,63.733436 4311.7339,65.813213 4310.1529,69.387306 4307.3423,75.741034 4305.7067,75.310858 4304.2878,67.844757 4303.6445,64.459373 4302.4707,61.04213 4301.6795,60.250883 4300.4279,58.999376 4299.7086,59.164482 4296.1488,61.520242 L 4292.0567,64.228232 4292.246,70.864116 C 4292.426,77.174374 4292.67,77.791965 4297.2177,83.449905 4302.0414,89.451344 4303.2611,93 4300.5,93 4299.675,93 4299,92.293579 4299,91.430175 4299,89.105592 4293.1342,81 4291.452,81 4290.5314,81 4290.005,82.006392 4290.0137,83.75 4290.0342,87.888551 4291.0848,91 4292.4616,91 4294.25,91 4297.2809,94.663274 4296.7575,96.192136 4296.4681,97.037658 4295.1295,96.174342 4292.9709,93.75 4291.1345,91.6875 4289.2859,90 4288.8629,90 4288.4399,90 4287.3391,91.59056 4286.4166,93.534577 4284.0058,98.614858 4281.4181,99.741368 4278.4861,96.986901 4277.2072,95.785451 4275.62,93.496896 4274.9591,91.901223 4273.2496,87.7742 4269.6554,88.025271 4265.3681,92.571202 4263.5156,94.535363 4262,95.513805 4262,94.745516 4262,93.216903 4264.9577,90.326988 4269.25,87.661565 4272.2428,85.803113 4272.4496,85.259615 4271.0225,83.002216 4270.1944,81.69222 4269.636,81.741207 4266.569,83.392932 4262.736,85.457118 4260.5086,90.051894 4260.5031,95.905572 4260.4999,99.468995 4258.4301,101.28431 4257.4078,98.620346 z M 4251.6935,56.923116 C 4254.5992,51.974133 4256.5247,51.051111 4254.1233,55.758392 4252.9331,58.091276 4251.4931,60 4250.9231,60 4250.3532,60 4250.6999,58.615402 4251.6935,56.923116 z M 4265.0475,31.442715 C 4266.1369,30.130087 4265.9113,29.462389 4263.6114,27.192715 L 4260.8827,24.5 4258.9155,26.892701 C 4257.0677,29.140203 4257.0503,29.39811 4258.6291,31.142701 4260.6794,33.408185 4263.3141,33.531341 4265.0475,31.442715 z M 4287.4276,83.543232 C 4291.4388,69.576888 4290.7116,65.103963 4285.2621,70.223513 L 4282.8953,72.447026 4277.8323,69.601025 C 4273.7071,67.282084 4272.5967,67.009199 4271.8369,68.127512 4269.5181,71.540257 4272.8818,83.117793 4278.861,92.30376 4281.2398,95.958318 4281.4059,96.036768 4283.096,94.30376 4284.0635,93.311692 4286.0127,88.469454 4287.4276,83.543232 z M 4286.5724,66.691405 C 4288.6003,64.947025 4289.0863,63.847238 4288.5607,62.191405 4287.8396,59.919177 4285.5781,59.25566 4284.5,61 4283.4761,62.65665 4280.4273,62.129641 4278.4602,59.95598 4276.1725,57.428145 4272.5,57.732008 4272.5,60.449123 4272.5,62.498583 4280.1199,69 4282.522,69 4283.2735,69 4285.0962,67.961132 4286.5724,66.691405 z M 4285.0657,57.964816 C 4287.6096,56.603378 4287.5087,55.25458 4284.4296,49.463644 4282.0221,44.93581 4281.9271,44.23983 4282.9296,38.482792 4284.3659,30.234862 4284.4075,30.485809 4281.0337,27.034478 4277.4368,23.354876 4275.756,23.218941 4274.0176,26.467055 4272.8529,28.643358 4273.0098,29.630393 4275.3487,34.842101 4278.3753,41.586362 4278.6258,44.571476 4276.5062,48.635693 4274.2861,52.892424 4274.6496,54.599257 4278.25,56.825103 4282.1348,59.226738 4282.5714,59.299749 4285.0657,57.964816 z M 4298.081,32.721655 C 4298.7994,31.144805 4298.7974,29.597431 4298.0745,27.696029 4296.5693,23.73703 4294.2822,23.263219 4291.261,26.284479 L 4288.6958,28.84965 4291.771,31.924825 C 4295.4423,35.596187 4296.6989,35.754871 4298.081,32.721655 z M 4309.3682,63.909041 C 4310.1438,60.031077 4307.1041,52.66127 4304.0563,51.030125 4302.8838,50.402617 4300.9719,50.191542 4299.8076,50.561069 4296.2683,51.684402 4291,57.127355 4291,59.660678 4291,60.947305 4291.2118,62 4291.4708,62 4291.7297,62 4293.9692,60.570766 4296.4475,58.823924 4300.8681,55.707953 4300.9923,55.683046 4303.0086,57.507778 4304.139,58.530739 4305.5515,61.304384 4306.1475,63.671434 4307.3614,68.492342 4308.4357,68.571597 4309.3682,63.909041 z"/>
</svg>
