<?xml version="1.0" encoding="UTF-8"?>
<svg xmlns="http://www.w3.org/2000/svg" viewBox="0 0 5377 172">
  <path d="M 2032.375,20.46875 C 2031.9677,20.460986 2031.5982,20.760746 2031.0625,21.40625 2027.9679,25.135053 2026.9368,66.951067 2029.5,84.5 2029.9017,87.25 2030.3638,90.943222 2030.5312,92.71875 2031.0247,97.951058 2032.9939,102.84544 2034.8125,103.34375 2037.567,104.09854 2040.3087,103.59002 2040.75,102.25 2041.0187,101.43397 2040.1083,101 2038.125,101 2035.481,101 2035.0267,100.57857 2034.5312,97.75 2034.2181,95.9625 2033.5039,92.25 2032.9375,89.5 2031.5608,82.814877 2030.6672,43.416435 2031.6875,34.09375 L 2032.5,26.65625 2036.5,26.65625 2040.5,26.6875 2040.375,31.59375 C 2040.3019,34.295855 2039.8417,40.921505 2039.3438,46.3125 2038.4735,55.733985 2038.6278,59.533683 2041.0312,86.8125 2042.1673,99.706417 2043.2758,104.74523 2044.4062,101.96875 2044.7473,101.13114 2044.8215,98.431139 2044.5625,95.96875 2044.3035,93.506361 2043.793,86.190998 2043.4062,79.6875 L 2042.6875,67.84375 2043.125,68.125 2042.6562,67.34375 2042.875,63.1875 C 2042.2384,62.44793 2041.8493,61.806914 2042.1562,61.5 2042.2089,61.447345 2042.7298,61.681065 2042.9375,61.71875 L 2043.1562,57.75 C 2042.7874,57.473224 2042.0612,57.101212 2041.9375,56.90625 2040.211,54.185782 2043.1628,28.582509 2045.5,26 2047.1257,24.203547 2047.1258,24.000835 2045.5,22.375 2044.1113,20.986282 2043.4265,20.863049 2041.9062,21.8125 2039.3143,23.431232 2035.9816,23.290358 2033.9688,21.46875 2033.2286,20.798926 2032.7823,20.476514 2032.375,20.46875 z"/>
</svg>
