<?xml version="1.0" encoding="UTF-8"?>
<svg xmlns="http://www.w3.org/2000/svg" viewBox="0 0 5492 172">
  <path d="M 559.75,95.322597 C 557.6875,92.215029 556,89.071167 556,88.336237 556,85.088629 551.7863,88.405545 547.85217,94.75 546.74376,96.5375 545.25368,98 544.54089,98 538.77669,98 541.01781,83.839254 547.44889,79.625447 550.78381,77.440322 550.67841,76.447803 546.48511,70.549831 L 542.97021,65.606056 546.98511,61.515176 C 549.1933,59.265193 550.99443,56.76633 550.98762,55.962148 550.98081,55.157967 549.37181,53.461073 547.41206,52.191273 542.81505,49.212693 540.83008,44.518834 541.64701,38.558661 542.39877,33.073994 544.05228,32.689101 548.46961,36.970544 550.15526,38.604344 552.58942,40.066844 553.87886,40.220544 555.97134,40.469969 556.44353,39.770231 558.27281,33.709131 L 560.32234,26.918262 558.16117,23.072977 C 555.73671,18.759233 555.21891,12 557.31291,12 558.03501,12 559.9192,13.35 561.5,15 563.0808,16.65 564.78773,18 565.29319,18 565.79864,18 567.99357,16.589122 570.17081,14.864715 572.83105,12.75777 574.46007,12.06007 575.13751,12.737512 576.57224,14.172238 574.62295,20.767075 571.52168,24.970609 568.53049,29.024945 568.50908,29.326505 570.70579,36.460397 573.13403,44.346169 574.82648,44.013259 582.75185,34.090891 583.8518,32.71378 585.17384,31.989408 585.83805,32.399908 588.78108,34.2188 586.06517,43.339934 579.67795,53.088064 578.05609,55.563349 578.09801,55.773295 580.97309,59.573082 584.57053,64.32756 584.6637,66.318134 581.5277,71.422456 L 579.11782,75.344913 581.72558,79.794709 C 584.79122,85.025822 585.12904,90.947356 582.63582,95.75 580.36414,100.12591 578.25247,99.922972 577.43307,95.25 576.70135,91.076996 574.4871,87 572.95244,87 572.40164,87 570.49951,90.013051 568.72549,93.695668 566.95147,97.378286 565.05,100.52215 564.5,100.68203 563.95,100.84191 561.8125,98.430165 559.75,95.322597 z M 568.60845,88.506384 C 570.38001,84.52795 572.03922,82.107129 572.89213,82.256384 573.65781,82.390373 575.63245,85.075655 577.28022,88.223679 578.92799,91.371702 580.66402,93.707644 581.13808,93.414662 583.41773,92.00576 581.56043,81.41757 578.49612,78.353261 576.42384,76.280987 576.61004,74.917117 579.5,71 582.78798,66.543389 582.66538,65.159024 578.49949,59.703132 576.57422,57.181672 575.41602,54.860922 575.92571,54.545911 578.38151,53.028144 585,41.51346 585,38.758687 L 585,35.74528 580.52234,39.87264 C 573.52732,46.320424 570.8119,45.228632 567.61793,34.684144 565.92496,29.095013 565.9273,28.768511 567.67814,26.30885 571.24478,21.298256 572.98954,18.489475 572.99474,17.75 573.00508,16.276665 570.27831,17.034987 568.5,19 566.2402,21.497053 565.44736,21.497053 562.27287,19 560.87445,17.9 559.34097,17 558.86514,17 557.04783,17 558.11021,21.021254 560.51716,23.253104 L 563.03432,25.587147 561.01716,31.450124 C 559.90772,34.674761 558.99311,38.255153 558.98469,39.40655 558.95117,43.988179 557.5095,44.576479 552.55717,42.029404 550.03531,40.732362 547.47317,39.070138 546.86354,38.335573 546.2539,37.601008 545.36021,37 544.87756,37 543.46026,37 543.87093,42.849721 545.51085,46.020982 546.99357,48.888237 553.47868,54.046435 555.48213,53.952044 557.04584,53.878372 564,44.736133 564,42.754094 564,41.789342 564.40284,41 564.8952,41 566.03366,41 571,50.426732 571,52.58769 571,54.379985 565.32703,62 563.9927,62 563.53111,62 561.81646,60.875 560.18237,59.5 558.54827,58.125 556.76669,57 556.22329,57 555.67989,57 553.38995,58.84534 551.13454,61.100755 L 547.03378,65.201509 549.68909,69.850755 C 551.1495,72.40784 552.76725,75.056769 553.28407,75.737265 554.47979,77.311649 553.48436,80 551.7057,80 549.45203,80 545.88727,84.565974 544.97175,88.625271 544.49807,90.72549 544.31769,92.651025 544.5709,92.904237 544.82412,93.15745 547.07923,91.257584 549.58227,88.682312 552.08531,86.10704 554.73531,84 555.47116,84 556.20702,84 558.20589,86.475 559.91309,89.5 561.6203,92.525 563.62455,95 564.367,95 565.10945,95 567.0181,92.077873 568.60845,88.506384 z M 560.68709,80.195281 C 559.20919,78.652686 558,76.695203 558,75.84532 558,73.603356 563.75765,66 565.45538,66 566.82998,66 572,71.870164 572,73.430913 572,74.872776 565.64502,83 564.51757,83 563.88871,83 562.16499,81.737877 560.68709,80.195281 z M 566.98394,56.293281 C 569.30043,53.348352 569.06247,49.701443 566.37758,47 565.05241,45.666667 564.79168,45.666667 564.03099,47 563.56031,47.825 562.24513,49.570585 561.10836,50.879077 559.01483,53.288867 559.10407,54.102523 561.80709,57.25 563.82021,59.594134 564.48399,59.471463 566.98394,56.293281 z M 567.17126,77.345012 C 569.54547,75.196385 569.44357,72.112912 566.89725,69.053408 564.68233,66.392096 564.57151,66.458258 561.39071,72.340927 559.98798,74.935184 560.00461,75.347613 561.58229,77.090927 563.70013,79.431117 564.81037,79.481591 567.17126,77.345012 z"/>
</svg>
