<?xml version="1.0" encoding="UTF-8"?>
<svg xmlns="http://www.w3.org/2000/svg" viewBox="0 0 5556 172">
  <path d="M 5370.6875,64.9375 5368.3125,66.59375 C 5368.7948,67.890059 5369.3144,69.084337 5370.0938,70.125 5372.4986,73.336252 5372.6057,73.901499 5371.9062,82 5370.8427,94.314357 5370.8483,101 5371.9688,101 5373.32,101 5373.8436,98.036261 5374.4062,87.125 5374.6719,81.97452 5375.0828,77.573448 5375.3125,77.34375 5375.5422,77.114052 5377.7544,77.465933 5380.2188,78.125 5382.6829,78.784067 5385.4339,79.036627 5386.3438,78.6875 5388.9185,77.699497 5388.4942,71.148388 5385.625,67.5625 L 5383.2812,64.59375 5380.5,66.5625 C 5378.9747,67.636172 5377.1169,68.95656 5376.375,69.5 5375.401,70.213428 5374.3493,69.796488 5372.5938,68 5371.6811,67.066041 5371.1021,66.132938 5370.6875,64.9375 z M 5381.875,68.21875 C 5382.381,68.16464 5382.753,68.616422 5383.4688,69.5625 5384.2722,70.624639 5384.9513,72.7375 5384.9688,74.25 5385.0053,77.418934 5383.6706,77.680755 5379.75,75.25 5376.3854,73.163965 5376.368,72.942389 5379.5,70 5380.7283,68.846051 5381.369,68.27286 5381.875,68.21875 z M 5357.0312,75.0625 5354.6562,77.09375 5355.1875,77.53125 5355.6875,88.53125 C 5355.9528,94.570745 5356.3345,100.09014 5356.5625,100.8125 5356.7906,101.53486 5357.4645,101.83831 5358.0625,101.46875 5359.5625,100.54165 5358.6133,78.444453 5357.0312,75.0625 z M 5365.5,80.0625 C 5364.9618,80.172391 5364.4569,83.919048 5364.3438,91.25 5364.2079,100.04662 5364.4394,102 5365.625,102 5366.821,102 5367.0147,100.0369 5366.7812,90.75 5366.5985,83.479484 5366.0382,79.952609 5365.5,80.0625 z"/>
</svg>
