<?xml version="1.0" encoding="UTF-8"?>
<svg xmlns="http://www.w3.org/2000/svg" viewBox="0 0 5556 172">
  <path d="M 1901.2972,95.533321 C 1899.8225,92.526647 1898.0346,89.843518 1897.3239,89.570811 1896.5703,89.281605 1894.4625,91.335539 1892.2659,94.499547 1887.18,101.82553 1885.6353,101.71913 1886.1878,94.080863 1886.5054,89.688989 1887.3408,87.115777 1889.4252,84.107992 L 1892.2344,80.054258 1889.7078,73.742798 C 1885.2635,62.64117 1884.7041,56.354143 1886.9727,43 1890.2135,23.922472 1897.5828,15.726184 1903.3813,24.75 1906.6817,29.886212 1907.7679,33.768243 1909.3274,46 1911.0303,59.356883 1909.788,71.922065 1906.0795,78.851525 1905.0694,80.738827 1905.133,81.76057 1906.4309,84.49566 1909.8828,91.770016 1909.3365,101 1905.454,101 1904.6423,101 1902.7718,98.539994 1901.2972,95.533321 z M 1904.1505,85.607339 1902.1752,81.141826 1904.4825,75.320913 C 1907.6177,67.411392 1908.4906,57.555215 1906.9151,47.853782 1906.2136,43.534202 1905.3709,40 1905.0423,40 1904.7138,40 1903.4486,40.697899 1902.2308,41.550886 1900.0502,43.078248 1900.0265,43.351283 1900.6653,59.550886 1901.145,71.712476 1901.0125,76 1900.157,76 1899.4097,76 1898.9825,73.787002 1898.9505,69.75 1898.8097,51.974381 1898.0588,45.691516 1895.7862,43.272385 1894.5498,41.956311 1892.6772,41.045499 1891.5426,41.208412 1886.7558,41.895793 1887.3532,60.379113 1892.5889,73.578461 1895.4149,80.702799 1895.5264,81.860768 1893.463,82.652566 1891.378,83.452674 1888.9994,88.277622 1889.0027,91.70034 1889.0054,94.484601 1889.0275,94.475248 1893.0176,90 L 1897.0297,85.5 1901.2649,90.257068 C 1905.2972,94.786352 1905.515,94.895834 1905.8129,92.543494 1905.985,91.184641 1905.2369,88.063371 1904.1505,85.607339 z M 1901.9629,38.539458 C 1903.8287,36.553389 1904.1598,35.372042 1903.6796,32.413186 1903.022,28.360497 1899.0477,21.836429 1897.5364,22.328602 1896.1066,22.794214 1891.8933,31.683816 1891.6827,34.679235 1891.5472,36.605923 1892.2745,37.738284 1894.5,39.065153 1898.5228,41.463623 1899.2649,41.411345 1901.9629,38.539458 z"/>
</svg>
