<?xml version="1.0" encoding="UTF-8"?>
<svg xmlns="http://www.w3.org/2000/svg" viewBox="0 0 5556 172">
  <path d="M 439.90625,21 C 439.25565,21 437.26808,22.560902 435.46875,24.46875 432.11628,28.023407 431.16907,27.906036 429.6875,23.75 428.90974,21.568245 425.4107,21.464804 424.59375,23.59375 423.41211,26.673054 423.96488,34.746582 425.4375,35.96875 426.50034,36.850833 426.73978,38.454818 426.3125,42.0625 L 425.71875,46.96875 430.21875,48.875 C 433.88099,50.444821 434.81832,51.404067 435.34375,54.03125 435.59363,55.280666 435.55614,56.763665 435.65625,58.21875 L 438.3125,58.3125 C 436.99636,49.04524 436.07532,47 433.09375,47 428.47125,47 427.52017,44.873653 429.625,39.28125 432.36608,31.99835 437.75501,24 439.9375,24 442.11755,24 445.44114,30.164068 447.59375,38.25 449.492,45.380488 449.42403,45.658944 446,46.34375 442.53795,47.03616 442.47341,47.47134 444.5625,58.53125 L 446.8125,58.59375 C 446.70347,56.988166 446.61764,55.249014 446.375,53.78125 445.81953,50.421031 446.00616,49.96313 448.375,49.0625 450.62438,48.207286 451,47.465568 451,43.9375 451,41.265808 451.79108,38.701573 453.25,36.65625 454.886,34.362679 455.5,32.10048 455.5,28.34375 455.5,25.502084 455.14232,22.798567 454.6875,22.34375 454.23268,21.888934 452.55928,23.078517 450.96875,25 L 448.0625,28.5 444.59375,24.75 C 442.67964,22.6875 440.55685,21 439.90625,21 z M 427.03125,24.5 429,27 C 431.27113,29.903468 431.36351,30.456355 429.96875,33.0625 428.15445,36.452553 427.00834,35.15862 427.03125,29.75 L 427.03125,24.5 z M 453.0625,26 C 454.31945,26 454.24666,29.998655 452.90625,33.84375 451.53577,37.775113 450.47729,37.85204 449.15625,34.0625 448.30427,31.618529 448.49738,30.671415 450.15625,28.5625 451.25843,27.161308 452.55242,26 453.0625,26 z M 447,60.5 C 446.99589,60.03163 446.85572,59.230165 446.8125,58.59375 L 444.5625,58.53125 C 444.59937,58.726437 444.61803,58.79805 444.65625,59 444.85307,60.039986 444.98207,61.858002 445.15625,63.25 L 447,60.5 z M 433.96875,78.375 C 433.77825,77.977975 433.61209,77.526201 433.375,77.34375 426.1007,71.745881 420.18435,65.537104 418.0625,61.96875 L 418.65625,66 419.40625,68.84375 C 420.79423,69.752877 422.91547,71.512205 426.3125,74.5625 L 431.9375,79.59375 432,80.34375 433.96875,78.375 z M 416.65625,52.65625 417.625,59.125 C 417.72218,59.103313 417.72001,59 417.84375,59 418.3075,59 422.02161,61.475 426.09375,64.5 430.16589,67.525 434.04376,70 434.71875,70 437.12987,70 439.15322,64.174409 438.46875,59.1875 438.41923,58.826687 438.36087,58.653078 438.3125,58.3125 L 435.65625,58.21875 C 435.9551,62.562407 435.82383,67 434.96875,67 434.4055,67 430.40865,64.6375 426.0625,61.75 420.99881,58.385776 418.60344,56.416669 417.375,53.15625 L 416.65625,52.65625 z"/>
</svg>
