<?xml version="1.0" encoding="UTF-8"?>
<svg xmlns="http://www.w3.org/2000/svg" viewBox="0 0 5556 172">
  <path d="M 3285.7476,98.337132 C 3285.4846,97.87671 3285.5632,91.967231 3285.9222,85.204959 3286.2812,78.442686 3286.5052,65.216501 3286.4199,55.813435 L 3286.2648,38.716953 3290.7097,32.358477 C 3293.1544,28.861315 3295.7806,26 3296.5456,26 3297.3107,26 3299.4134,28.00745 3301.2183,30.461 3303.0232,32.91455 3304.7949,34.93955 3305.1554,34.961 3305.5158,34.98245 3307.6961,33.42486 3310.0004,31.499688 3312.3047,29.574517 3314.7097,28.292964 3315.345,28.651793 3320.7549,31.707597 3322.1088,36.46988 3318.9984,41.502512 3316.604,45.376864 3315.2737,45.709993 3311.0071,43.503667 3309.4156,42.680684 3307.8831,42.380144 3307.6015,42.835801 3307.3199,43.291458 3306.8432,49.702308 3306.5422,57.082134 3304.9913,95.110118 3304.8138,97 3302.7927,97 3302.0752,97 3301.9444,95.096967 3302.3977,91.25 3302.7703,88.0875 3303.4516,75.379358 3303.9116,63.009685 L 3304.7481,40.51937 3300.8368,34.759685 C 3298.6856,31.591858 3296.5139,29 3296.0108,29 3295.5077,29 3293.6813,31.056347 3291.9521,33.56966 L 3288.8081,38.13932 3288.4704,67.703298 C 3288.1703,93.976931 3287.5087,101.4205 3285.7476,98.337132 z M 3294.5271,70.75 C 3294.9136,55.2125 3295.5649,42.135724 3295.9744,41.690498 3297.8194,39.68468 3298.0295,52.815102 3296.5556,78 3296.3141,82.125 3296.0904,88.5375 3296.0583,92.25 3296.0224,96.410913 3295.5827,99 3294.9122,99 3294.1375,99 3294.0266,90.86786 3294.5271,70.75 z M 3316.8,41.8 C 3318.6633,39.936696 3318.2432,34.530047 3316.0832,32.575283 3313.8851,30.58601 3310.8064,31.624633 3309.0229,34.957177 3307.456,37.884945 3307.7382,38.635914 3311.25,40.884952 3315.0754,43.334797 3315.2383,43.361662 3316.8,41.8 z"/>
</svg>
