<?xml version="1.0" encoding="UTF-8"?>
<svg xmlns="http://www.w3.org/2000/svg" viewBox="0 0 5556 172">
  <path d="M 4151.0876,95.093766 C 4145.7117,89.338908 4144.6239,79.665889 4148.0904,68.442685 4150.1707,61.707589 4150.1746,59.198164 4148.1169,51.5 4146.5986,45.819856 4146.7532,39.656793 4148.5708,33.40457 4150.3234,27.375681 4152.1768,25 4155.1277,25 4159.7836,25 4163.8293,43.04639 4161.4959,53.406807 4160.5508,57.603225 4160.6704,59.412309 4162.2587,64.94189 4165.0133,74.532186 4163.6463,91.744352 4159.7325,96.75 4158.0267,98.931645 4153.9416,98.149006 4151.0876,95.093766 z M 4158.9065,93.305764 C 4159.5817,91.823934 4160.3928,86.043674 4160.709,80.460741 4161.179,72.15993 4160.9604,69.463066 4159.5091,65.663094 4158.1662,62.14677 4157.9353,59.980276 4158.56,56.758117 4159.0141,54.416153 4159.3971,48.675 4159.4112,44 4159.4315,37.285092 4158.9654,34.46306 4157.1917,30.562447 4155.3018,26.406292 4154.7449,25.852396 4153.6722,27.062447 4149.7317,31.50785 4148.4531,46.361977 4151.4032,53.422564 4153.477,58.385784 4153.4171,60.474455 4151,67.5 4147.7145,77.049525 4148.853,88.865156 4153.5599,94.066196 4155.9504,96.707644 4157.454,96.493793 4158.9065,93.305764 z"/>
</svg>
