<?xml version="1.0" encoding="UTF-8"?>
<svg xmlns="http://www.w3.org/2000/svg" viewBox="0 0 5802 172">
  <path d="M 992.34375,26.75 992.28125,28.78125 C 994.42063,27.492016 996.83631,26 997.1875,26 997.67723,26 999.1812,27.11875 1000.5312,28.46875 1003.7762,31.713699 1003.7044,35.647166 1000.3125,39.1875 998.83461,40.730096 998.12956,42 998.75,42 999.37044,42 1000.1601,41.55 1000.5,41 1001.6918,39.071617 1003,40.013772 1003,42.8125 1003,44.533598 1002.0227,46.569474 1000.5,48 997.65893,50.66905 997.03478,53.198335 999.84375,50.65625 1002.856,47.930182 1004,48.649937 1004,53.25 1004.0001,56.902408 1003.4728,57.981598 1000.25,60.84375 997.95196,62.884698 997.27437,63.893983 998.5,63.46875 1004.5791,61.359597 1004.3674,61.183685 1003.7188,67.46875 1003.2719,71.798118 1002.4749,73.941393 1000.5625,75.9375 997.3141,79.328084 997.26555,80.723828 1000.4688,78.625 1001.8244,77.736744 1003.0989,77 1003.3125,77 1003.5261,77 1003.4986,79.3625 1003.25,82.25 1002.8748,86.608574 1002.2724,87.969841 999.65625,90.21875 L 996.5,92.90625 1000.1562,92.34375 C 1002.6798,91.947218 1004.5351,92.261423 1006.125,93.375 1008.7296,95.199349 1009.6559,95.370265 1010.4062,94.15625 1010.6921,93.693715 1009.5528,92.302972 1007.875,91.0625 1005.1114,89.019328 1004.8503,88.380615 1005.25,84.375 1005.7779,79.085922 1006.7118,77.890018 1008.4375,80.25 1009.1407,81.211636 1010.5281,82 1011.5,82 1012.8315,82 1012.2213,80.866988 1009.0312,77.40625 1005.4193,73.487773 1004.889,72.367872 1005.4062,69.78125 1005.7397,68.11369 1006,66.06746 1006,65.25 1006,64.092981 1006.7754,63.92636 1009.5,64.4375 1013.8993,65.262823 1014.0431,63.827071 1009.75,61.9375 1006.8227,60.64908 1006.462,60.028318 1006.1875,55.75 1005.8536,50.546105 1006.8789,49.81049 1010.7188,52.5 1012.0074,53.402524 1013.1119,53.640073 1013.4688,53.0625 1013.7975,52.530765 1012.8113,51.323179 1011.2812,50.375 1007.3196,47.919905 1006,46.024047 1006,42.8125 1006,39.701498 1007.1045,39.216006 1009,41.5 1009.6847,42.325 1010.6424,43 1011.125,43 1012.8659,43 1011.9532,40.311602 1009.4062,37.9375 1007.9758,36.604127 1005.8947,33.573707 1004.7812,31.21875 1003.6679,28.863794 1001.876,26.475409 1000.8125,25.90625 999.00026,24.936365 994.59552,25.466196 992.34375,26.75 z"/>
</svg>
