<?xml version="1.0" encoding="UTF-8"?>
<svg xmlns="http://www.w3.org/2000/svg" viewBox="0 0 5802 172">
  <path d="M 2836.6813,97.200354 C 2830.8088,90.711248 2830.6734,71.532913 2836.438,62.734961 2837.894,60.51283 2837.8884,59.982077 2836.3707,56.404733 2832.917,48.263719 2835.0328,34.664143 2840.9431,27.01494 2843.3297,23.926134 2844.7347,24.9491 2842.5937,28.216727 2841.7323,29.531367 2840.1004,33.282911 2838.9673,36.553491 2836.7692,42.89798 2836.9386,48.740274 2839.5339,56.096017 2840.7163,59.447223 2840.6115,60.076138 2838.1975,64.116187 2833.4212,72.110067 2834.1625,92.936922 2839.3408,96.231766 2842.1226,98.001802 2847.1704,96.983408 2850.0909,94.062954 2852.8907,91.263175 2857,89.146441 2857,90.504041 2857,91.248513 2855.7549,92.477733 2851.1733,96.256336 2847.0666,99.643285 2839.3472,100.14613 2836.6813,97.200354 z M 2840.3961,83.75 C 2839.2326,80.205749 2839.8015,76.721836 2843.0435,67.536414 2845.5318,60.486653 2845.8581,58.603356 2844.9011,56.815273 2844.2627,55.622261 2843.3975,51.913274 2842.9785,48.57308 2842.3388,43.472524 2842.6025,41.35916 2844.6253,35.375841 2845.95,31.457554 2846.7531,27.520054 2846.4099,26.625841 2845.9555,25.441743 2846.3585,25 2847.893,25 2850.7019,25 2850.6985,28.710549 2847.8844,34.226594 2846.1023,37.719766 2845.836,39.654241 2846.1952,46.4976 2846.473,51.789909 2847.1883,55.430753 2848.2474,56.942812 2849.6405,58.931806 2849.6792,59.567004 2848.5176,61.381968 2846.406,64.681302 2843,75.967409 2843,79.665156 2843,83.60782 2845.0757,84.069615 2849,81 2851.774,78.830144 2853,78.512595 2853,79.963949 2853,81.484462 2845.7699,86 2843.3353,86 2841.9388,86 2840.8649,85.177881 2840.3961,83.75 z M 2847.532,90.051701 C 2847.1988,89.512672 2848.7339,87.930527 2850.9433,86.535824 2855.6523,83.563147 2858.0666,83.166139 2855.7221,85.75 2853.1957,88.534326 2848.2119,91.15193 2847.532,90.051701 z"/>
</svg>
