<?xml version="1.0" encoding="UTF-8"?>
<svg xmlns="http://www.w3.org/2000/svg" viewBox="0 0 5802 172">
  <path d="M 4411,62.04815 C 4411,60.44213 4413.8781,56.019518 4417.3763,52.25 4420.8677,48.487793 4423.7784,48.151099 4431.9171,50.568032 4434.8212,51.430449 4437.4391,51.894197 4437.7348,51.598583 4438.5444,50.788933 4436.1546,39.022381 4434.3129,34.75 4433.2793,32.352538 4432.0297,31 4430.8481,31 4429.8317,31 4429,31.431936 4429,31.959858 4429,33.249873 4421.5422,35.422037 4419.6311,34.688663 4417.2399,33.77108 4415.5055,26.79247 4416.9827,24.032333 4417.999,22.133439 4418.7606,21.861743 4421.7208,22.342123 4423.6608,22.656937 4426.0152,23.608747 4426.9528,24.457256 4429.4496,26.716815 4432.0093,26.315622 4436.4281,22.97218 4441.3746,19.229516 4443.7624,19.235019 4448.5,23 4452.9687,26.551285 4453.4094,26.595351 4458.5,24 4463.5832,21.40842 4464.4403,21.472984 4466.9274,24.634859 4469.7652,28.242561 4469.5625,31.401422 4466.3584,33.500844 4463.7596,35.203654 4461.5449,34.976502 4455.2923,32.365804 4453.4406,31.592637 4451,38.561541 4451,44.622124 4451,50.499876 4451.6007,50.939644 4456.0442,48.314804 4458.7478,46.717751 4459.0854,46.730827 4462.4978,48.564804 4464.4782,49.629162 4467.2856,51.7375 4468.7364,53.25 4470.1872,54.7625 4472.1522,56 4473.1031,56 4474.9464,56 4479.6831,50.539327 4482.331,45.361511 4483.8773,42.337855 4483.846,42.125917 4481.4764,39.569046 4480.1236,38.10936 4478.7331,35.784751 4478.3864,34.403249 4477.1274,29.38708 4479.771,21.122409 4482.1619,22.600038 4482.7387,22.956567 4482.7296,23.622923 4482.138,24.339028 4481.6106,24.977562 4480.8739,27.132833 4480.501,29.128518 4479.7518,33.137953 4481.7397,38.195335 4484.7206,39.863505 4486.3167,40.756723 4486.2689,41.176479 4484.0607,45.663207 4482.7514,48.323443 4480.3258,52.4125 4478.6705,54.75 4475.0008,59.932204 4472.1145,60.268327 4467.8556,56.00943 4461.513,49.666855 4458.808,48.808588 4453.6459,51.500854 4452.0762,52.319547 4450.3887,52.740217 4449.8959,52.435676 4448.721,51.70952 4448.7865,39.605426 4449.993,34.5 4450.5129,32.3 4450.7042,29.825 4450.4182,29 4449.8585,27.385667 4445.1468,23.37731 4442.7095,22.442029 4441.0349,21.799417 4433.7012,27.70756 4434.523,29.037234 4435.3633,30.396926 4441,49.811219 4441,51.345892 4441,54.483624 4438.3709,55.206784 4433.3208,53.458143 4430.6694,52.540062 4426.7939,51.731033 4424.7086,51.6603 4421.5032,51.55157 4420.4986,52.064377 4418.2086,54.97828 4416.7189,56.873903 4415.05,59.306236 4414.5,60.383465 4413.3628,62.610696 4411,63.734522 4411,62.04815 z M 4433.8425,97.25 C 4427.5922,89.7965 4427.3472,84.652778 4432.9746,79.025436 4439.0552,72.944796 4439.0546,71.315025 4432.9688,64.656285 4426.8622,57.974619 4424.4252,57.505657 4420.4647,62.25 4418.9726,64.0375 4417.0277,65.91854 4416.1428,66.430088 4414.8083,67.201574 4414.8516,66.860526 4416.3964,64.430088 4419.6718,59.277243 4423.3064,56 4425.7458,56 4428.4184,56 4436.3967,62.951987 4438.5997,67.20034 4440.9963,71.822016 4440.346,74.814285 4436.0124,79.10474 4430.411,84.650452 4430.0866,86.901148 4434.0858,92.469994 4436.0565,95.21403 4437.7277,96.672274 4438.2749,96.125099 4438.8221,95.577925 4438.7494,94.400193 4438.0926,93.173101 4437.4917,92.050211 4437,90.050749 4437,88.729851 4437,86.145542 4443.5392,77 4445.387,77 4446.9556,77 4451.3597,81.854765 4453.4351,85.871482 4454.6201,88.165076 4454.9744,90.3231 4454.5432,92.621482 4453.5962,97.669214 4455.236,96.708168 4458.3283,90.403132 4461.6827,83.563738 4461.3043,82.001148 4454.8609,76.084521 4448.7252,70.450448 4448.4102,67.241342 4453.4538,61.75 4455.3481,59.6875 4457.5508,58 4458.3486,58 4459.1464,58 4462.2069,59.823907 4465.1496,62.053127 4469.0759,65.027441 4471.1654,65.978396 4473,65.625889 4480.4677,64.191008 4483.2606,61.497137 4489.2008,50 4492.0449,44.49518 4492.9766,43.484536 4495.2862,43.398995 4497.8692,43.303326 4502,40.559938 4502,38.940169 4502,38.527748 4500.2043,38.431166 4498.0096,38.725542 4493.2253,39.367247 4491,37.866943 4491,33.999679 4491,31.024803 4493.4203,24.476285 4494.8454,23.595568 4496.5647,22.532935 4496.8073,24.216923 4495.4149,27.549443 4493.6064,31.877742 4493.6041,35.910857 4495.4097,36.603739 4496.1851,36.901272 4498.0976,36.498891 4499.6597,35.709559 4503.1955,33.92299 4505,34.497251 4505,37.409019 4505,40.326602 4500.9793,44.052315 4496.9389,44.878661 4494.4086,45.396157 4493.4106,46.357187 4492.1236,49.515723 4489.2004,56.689369 4483.041,64.053479 4478.2447,66.109454 4475.8189,67.149254 4473.2572,68 4472.5521,68 4471.8469,68 4468.6217,66.201073 4465.385,64.002383 4462.1482,61.803694 4459.197,60.003694 4458.8267,60.002383 4458.4564,60.001073 4456.7689,61.165002 4455.0767,62.588894 4450.7315,66.245137 4451.0776,69.025348 4456.512,74.118834 4461.9159,79.183827 4464.1438,84.961277 4461.9955,88.339014 4461.2396,89.527556 4459.7958,92.1875 4458.7872,94.25 4455.6767,100.61052 4450.6695,98.7498 4451.6317,91.590933 4452.1232,87.934177 4451.8005,87.075474 4448.5915,83.5 L 4445.0015,79.5 4442.0007,82.962226 C 4438.7144,86.754004 4438.4515,88.128145 4440.1051,92.871667 4440.9424,95.273587 4440.9128,96.400203 4439.9827,97.52089 4438.3339,99.507551 4435.6358,99.388517 4433.8425,97.25 z M 4427.8354,30.563092 C 4428.9445,29.478962 4428.6873,28.91353 4426.3174,27.226014 4422.1081,24.228731 4419.5654,24.040581 4419.1872,26.698415 4419.0152,27.907544 4419.3896,29.859547 4420.0194,31.036201 4420.9195,32.718113 4421.7348,33.035815 4423.8322,32.521981 4425.2995,32.162506 4427.1009,31.281006 4427.8354,30.563092 z M 4465.759,30 C 4466.32,24.586215 4462.2036,23.585266 4456.9324,27.853686 L 4454.6118,29.732741 4457.5559,31.34973 C 4461.8406,33.703022 4465.4367,33.111334 4465.759,30 z M 4477.3531,96.234687 C 4474.9008,94.663838 4475.6875,87.12974 4478.6468,83.845159 4479.9736,82.372553 4479.924,81.766878 4478.1972,78.345159 4477.1299,76.230321 4475.9257,73.431147 4475.5212,72.124771 4474.3404,68.311404 4476.5665,70.47305 4479.0027,75.505543 4481.0008,79.633146 4481.4813,80 4484.8892,80 4489.4061,80 4491,81.42875 4491,85.477494 4491,89.525686 4488.7531,92.575155 4483.9738,95.013388 4479.6938,97.196857 4479.0426,97.316974 4477.3531,96.234687 z M 4485.6,91.6 C 4491.5841,85.615878 4489.4507,79.984032 4482.4622,83.316632 4479.8839,84.546135 4478.9526,85.735955 4478.4432,88.450971 4477.0842,95.695329 4480.1539,97.046051 4485.6,91.6 z M 4485.6667,35.333333 C 4483.806,33.472653 4486.6857,22 4489.0134,22 4490.2976,22 4490.2671,23.63235 4488.9366,26.118478 4488.3517,27.211325 4487.8487,29.881742 4487.8187,32.052737 4487.7667,35.818652 4487.1271,36.793748 4485.6667,35.333333 z"/>
</svg>
