<?xml version="1.0" encoding="UTF-8"?>
<svg xmlns="http://www.w3.org/2000/svg" viewBox="0 0 5802 172">
  <path d="M 1417,96.280562 C 1407.3837,92.808835 1404.853,74.463587 1411.1366,53.776232 1413.1658,47.095602 1413.1774,46.744555 1411.4738,43.58118 1410.089,41.009802 1409.8214,38.820058 1410.2301,33.402498 1410.8282,25.47237 1412.3124,21.680571 1415.6824,19.472463 1419.1148,17.223461 1420,18.368839 1420,25.059017 1420,29.51653 1420.3536,31 1421.416,31 1422.8462,31 1427.7153,25.397992 1429.8905,21.25 1431.2998,18.562421 1433.5852,18.305822 1434.2278,20.763016 1435.1863,24.42859 1433.2268,34.872816 1430.9914,38.012026 1429.0264,40.771735 1428.9089,41.461335 1430.0433,43.580887 1430.7554,44.911399 1431.6963,46 1432.1342,46 1432.5721,46 1434.468,47.35 1436.3472,49 1438.2265,50.65 1440.4893,52 1441.3757,52 1443.1424,52 1448.7554,44.844687 1449.5649,41.560661 1449.8442,40.427298 1450.1689,38.15 1450.2864,36.5 1450.4804,33.774814 1450.2481,33.529457 1447.75,33.821566 1446.2375,33.998427 1445,33.736428 1445,33.239347 1445,31.975099 1452.2724,29.87238 1453.2531,30.853072 1454.3571,31.957133 1451.7657,42.578797 1449.1334,47.738465 1445.2181,55.413142 1439.892,56.827191 1434.8642,51.52689 1433.5639,50.156105 1432.0221,49.026779 1431.4381,49.017277 1430.854,49.007774 1429.321,47.572889 1428.0314,45.828643 L 1425.6867,42.657286 1428.3434,37.931263 C 1430.1014,34.803875 1430.9949,31.732914 1430.985,28.85262 L 1430.97,24.5 1425.6158,30.268822 C 1418.9415,37.460061 1417,37.276003 1417,29.452028 1417,20.184345 1413.7974,21.777542 1412.6275,31.627233 1411.9945,36.956457 1413.2033,42.248292 1415.7201,45.165438 1416.9732,46.617881 1416.9527,47.142525 1415.5603,49.267697 1411.4379,55.559185 1408.6367,71.278146 1410.1726,79.5 1412.7528,93.311835 1418.2487,97.597466 1424.8786,90.967559 1426.5464,89.299717 1429.5163,87.264384 1431.4784,86.444597 1435.5236,84.75439 1436.4565,85.071696 1443.7019,90.602227 1450.3618,95.685837 1452.8519,95.106751 1457.651,87.358332 1458.7574,85.571897 1458.8303,85.570256 1459.5333,87.315913 1460.0612,88.626755 1459.3388,90.086968 1456.9361,92.565913 1452.2055,97.446677 1448.0888,97.288919 1440.9367,91.952799 1434.6433,87.257279 1432.9174,87.315329 1426.5987,92.435043 1422.1829,96.012972 1419.3749,97.137949 1417,96.280562 z M 1416.607,83.418213 C 1416.2731,82.548229 1416,77.84011 1416,72.955725 1416,63.316606 1418.3766,54.779144 1421.9635,51.53307 1423.7991,49.871864 1423.9927,49.90179 1426.2932,52.202254 1430.7224,56.631452 1438.7444,62 1440.9336,62 1443.6103,62 1447.9514,59.817403 1450.1776,57.352379 1455.1346,51.863635 1459.9078,25.795537 1456.7276,21.580906 1455.4053,19.828422 1454.8871,19.771678 1450.7596,20.927311 1443.6523,22.917234 1441.5607,21.820654 1447.3307,19.129553 1452.9651,16.501629 1457.0737,16.937297 1459.3448,20.403531 1461.6834,23.972631 1460.4753,36.353585 1456.6697,47.82033 1454.0535,55.703053 1452.8754,57.868236 1449.9231,60.220123 1447.9558,61.787316 1444.6981,63.337014 1442.6837,63.663896 1439.5666,64.169731 1438.1635,63.684718 1433.2607,60.406622 1430.0923,58.288239 1426.7742,55.690419 1425.8872,54.633688 1422.1488,50.180128 1418.9943,57.634476 1419.0153,70.872124 1419.0363,84.061921 1419.7141,84.801721 1425.7719,78.246773 1428.4388,75.361048 1431.1662,73 1431.8328,73 1432.4993,73 1434.9975,74.8 1437.3842,77 1439.7709,79.2 1442.5733,80.987481 1443.6118,80.97218 1444.6503,80.956879 1447.2508,79.619447 1449.3907,78.000109 1454.3502,74.247043 1456.5535,75.32534 1451.9285,79.242108 1443.9854,85.968863 1440.559,86.043828 1435.6429,79.598416 1434.1333,77.619287 1432.4097,76 1431.8127,76 1431.2157,76 1428.9076,78.025 1426.6836,80.5 1422.4047,85.261829 1417.8236,86.588539 1416.607,83.418213 z M 1446.8521,25.487955 C 1451.8003,22.65921 1453,22.435094 1453,24.339485 1453,26.022059 1448.7648,28.003828 1445.2029,27.987955 1442.7022,27.97681 1442.8256,27.789785 1446.8521,25.487955 z M 1450,85.410293 C 1450,84.699674 1453.817,81.363704 1456.25,79.947953 1459.6771,77.953745 1458.0765,81.434404 1454.5016,83.75 1450.9025,86.081296 1450,86.414171 1450,85.410293 z"/>
</svg>
