<?xml version="1.0" encoding="UTF-8"?>
<svg xmlns="http://www.w3.org/2000/svg" viewBox="0 0 5802 172">
  <path d="M 5608.5983,96.25 C 5604.9318,84.288944 5602.6877,47.529837 5604.9857,37.072725 5607.6464,24.964736 5611.6671,19.245025 5614.7025,23.25 5617.3597,26.756024 5620.964,45.352148 5620.9532,55.5 5620.9434,64.775153 5619.4272,80.081679 5618.1102,84.200889 5617.5301,86.0154 5616.3318,89.8625 5615.4473,92.75 5614.1028,97.139638 5613.4538,98 5611.487,98 5610.1178,98 5608.9106,97.268649 5608.5983,96.25 z M 5613.9626,90.25 C 5616.3277,81.855666 5617.3883,71.722325 5617.3902,57.5 5617.3919,44.56654 5617.049,41.269477 5614.9008,33.568236 5613.5305,28.655765 5611.9524,24.484119 5611.3937,24.297912 5609.7534,23.75114 5607.0866,33.868259 5606.4573,43.024874 5605.5725,55.901558 5605.6834,62.811358 5606.8986,70.5 5607.507,74.35 5608.4924,80.867952 5609.0882,84.984338 5609.6841,89.100724 5610.3846,92.813224 5610.6448,93.234338 5611.6974,94.937483 5612.9625,93.799579 5613.9626,90.25 z"/>
</svg>
