<?xml version="1.0" encoding="UTF-8"?>
<svg xmlns="http://www.w3.org/2000/svg" viewBox="0 0 5802 172">
  <path d="M 1942.3125,28.5625 1943.5,30.8125 C 1943.9703,30.117906 1944.8746,29.812067 1946.75,29.40625 1952.9018,28.075049 1954.3364,28.366107 1955.9375,31.21875 1957.376,33.781589 1957.3062,34.072448 1954.5312,36.96875 1952.9269,38.643401 1952.1296,40 1952.75,40 1953.3704,40 1954.1601,39.55 1954.5,39 1954.8399,38.45 1955.77,38 1956.5625,38 1957.5997,38 1958,39.22745 1958,42.40625 1958,46.060298 1957.5252,47.177515 1955.25,48.875 L 1952.5,50.9375 1955.25,50.96875 C 1957.6498,50.996396 1958,51.397507 1958,54.09375 1958,56.07507 1957.1928,57.858832 1955.75,59.0625 L 1953.5,60.9375 1955.75,60.96875 C 1957.7387,60.998155 1958,61.502604 1958,65.40625 1958,69.04888 1957.5181,70.206475 1955.25,71.9375 L 1952.5,74.03125 1955.1875,73.4375 C 1957.6544,72.879285 1957.9205,73.108963 1958.5625,76.53125 1959.2096,79.980606 1958.9711,80.525694 1955.375,83.6875 1953.2373,85.566994 1952.4861,86.641448 1953.6875,86.0625 1956.9792,84.476174 1957.8858,84.741888 1958.5938,87.5625 1959.1074,89.608816 1958.5811,90.834992 1955.9375,93.5625 1954.11,95.447944 1953.0458,97 1953.5938,97 1954.1416,97 1955.1362,96.457581 1955.7812,95.8125 1956.6783,94.915334 1957.5622,94.915334 1959.5312,95.8125 1963.4101,97.57982 1966.1229,97.267333 1962.75,95.4375 1960.561,94.24993 1960,93.213286 1960,90.4375 1960,87.217255 1960.1913,87.01431 1962.5,87.59375 1963.875,87.938853 1965,87.962537 1965,87.65625 1965,87.349963 1963.875,85.8899 1962.5,84.40625 1961.125,82.922601 1960,80.638438 1960,79.34375 1960,76.696031 1960.3198,76.563379 1963.0625,78.03125 1965.7677,79.479005 1965.5195,77.775965 1962.5,74.1875 1959.2594,70.336308 1958.9485,64 1962,64 1963.1,64 1964,63.621006 1964,63.15625 1964,62.691493 1963.1,61.495486 1962,60.5 1960.755,59.373321 1960,57.406573 1960,55.3125 1960,52.223509 1960.2044,52.017596 1962.5,52.59375 1963.875,52.938853 1965,52.892969 1965,52.5 1965,52.107032 1963.875,50.894075 1962.5,49.8125 1960.6854,48.385103 1960,46.911728 1960,44.375 1960,41.335268 1960.2604,40.947882 1962,41.5 1964.7315,42.366948 1964.5119,40.829513 1961.5,38 1960.125,36.708255 1959,34.675419 1959,33.5 1959,32.324582 1958.0228,30.328028 1956.8438,29.0625 1954.6433,26.700634 1953.0525,26.63515 1944.4688,28.5 1943.457,28.719813 1942.8809,28.666806 1942.3125,28.5625 z"/>
</svg>
