<?xml version="1.0" encoding="UTF-8"?>
<svg xmlns="http://www.w3.org/2000/svg" viewBox="0 0 5490 172">
  <path d="M 3825.0937,92.0625 3828.875,88.875 C 3828.9267,88.818166 3828.9094,88.777931 3828.9687,88.71875 3829.0259,88.66179 3829.0697,88.704364 3829.125,88.65625 L 3832.2813,86 C 3832.2622,85.580636 3832.4678,85.188412 3832.9063,84.75 3833.5429,84.11331 3834.0625,83.2525 3834.0625,82.8125 3834.0625,81.247637 3831.8586,82.034626 3830.0625,84.25 3829.0592,85.4875 3827.9197,86.168105 3827.5313,85.78125 3826.2178,84.472876 3828.1074,78.048574 3830.125,76.96875 3831.2168,76.38447 3831.8551,75.461392 3831.5313,74.9375 3831.1616,74.33925 3830.2392,74.370237 3829.0625,75 3826.1931,76.535629 3826.0625,76.361652 3826.0625,71.03125 3826.0625,66.82599 3826.4501,65.790328 3828.5625,64.40625 3831.5013,62.480687 3831.9706,60.445864 3829.125,61.96875 3826.0643,63.606799 3825.3304,63.221223 3824.8125,59.75 3824.2305,55.848835 3825.2321,52.830496 3828.0937,49.96875 3830.6352,47.427271 3829.8786,45.964918 3827.25,48.34375 3824.611,50.731995 3824.0625,50.419186 3824.0625,46.5625 3824.0625,43.119333 3825.5535,40.88016 3829.125,38.96875 3830.1821,38.403001 3831.0625,37.182772 3831.0625,36.28125 3831.0625,34.916567 3830.677,35.002241 3828.75,36.8125 3824.9222,40.408612 3823.6934,39.678833 3824.4375,34.25 3824.9359,30.614108 3825.7688,28.982571 3828.0625,27.1875 3831.6529,24.377592 3832.0873,22.085946 3828.5937,24.375 3825.6791,26.284699 3822.9223,26.453492 3821.2813,24.8125 3819.3085,22.839776 3818.6906,24.771348 3820.4375,27.4375 3821.337,28.810314 3822.0625,31.595406 3822.0625,33.625 3822.0625,37.255589 3822.0362,37.286209 3820.0625,35.5 3818.9591,34.501462 3817.781,33.937817 3817.4687,34.25 3816.685,35.03388 3819.8913,41 3821.0937,41 3821.6297,41 3822.0625,42.384126 3822.0625,44.09375 3822.0625,46.910041 3821.8276,47.162244 3819.5625,46.59375 3818.1209,46.23192 3817.0625,46.381105 3817.0625,46.96875 3817.0625,47.529229 3817.4637,48 3817.9687,48 3818.4739,48 3819.8239,49.522581 3820.9687,51.375 3823.1064,54.833869 3823.8483,62 3822.0625,62 3821.5125,62 3821.0625,61.55 3821.0625,61 3821.0625,60.45 3820.3875,60 3819.5625,60 3818.7375,60 3818.0625,60.260187 3818.0625,60.5625 3818.0625,62.034616 3821.1451,66.828532 3822.4063,67.3125 3824.0064,67.926535 3825.1786,77 3823.6563,77 3823.1456,77 3821.9115,76.287691 3820.9375,75.40625 3819.9635,74.524808 3818.5943,73.993269 3817.875,74.25 3817.0226,74.554231 3818.0425,76.143037 3820.8125,78.8125 3823.6221,81.520105 3825.0625,83.789592 3825.0625,85.46875 3825.0625,88.441137 3824.7819,88.505972 3821.625,86.4375 3820.3203,85.582615 3818.9905,85.290997 3818.6875,85.78125 3817.8207,87.183763 3820.9753,91 3823,91 3823.5926,91 3824.3612,91.455185 3825.0937,92.0625 z"/>
</svg>
