<?xml version="1.0" encoding="UTF-8"?>
<svg xmlns="http://www.w3.org/2000/svg" viewBox="0 0 5490 172">
  <path d="M 4322.1875,25.1875 4323.625,26.875 C 4324.2373,24.763516 4325.7779,24.067657 4329.7187,23.4375 4333.3947,22.849696 4333.9778,23.069802 4335.7813,25.65625 4339.3995,30.845419 4339.3454,32.956568 4335.4687,37.6875 4332.0391,41.87292 4331.9244,43.993525 4335.3437,40 4338.1965,36.668278 4340.0625,37.449373 4340.0625,41.96875 4340.0625,45.220376 4339.5196,46.339631 4337.0625,48.15625 4333.6293,50.694542 4332.9041,52.92799 4336.2813,50.5625 4339.4653,48.332334 4340.0524,48.591433 4340.0625,52.25 4340.0692,54.677155 4339.2464,56.222098 4336.8125,58.34375 4334.6424,60.235499 4334.2307,60.936215 4335.5625,60.46875 4339.9854,58.916295 4340.562,59.310603 4340.875,64.15625 4341.1239,68.011198 4340.8454,68.941099 4339.2813,69.4375 4336.7847,70.229904 4332.2811,75 4334.0313,75 4334.7541,75 4335.894,74.258114 4336.5625,73.34375 4338.8656,70.194196 4341.0625,72.456345 4341.0625,77.96875 4341.0625,82.606486 4340.7831,83.163751 4337.5625,85.25 4333.4381,87.921655 4333.0177,89.475719 4336.6563,88.5625 4338.6415,88.064211 4339.8351,88.522587 4341.7813,90.46875 4343.1798,91.867173 4345.1625,93 4346.1875,93 4348.1878,93 4348.7138,91.520539 4347.0625,90.5 4342.9189,87.939142 4342.1968,76 4346.1875,76 4348.5787,76 4348.5639,74.772649 4346.1563,72.59375 4345.1124,71.649083 4344.0957,69.328076 4343.875,67.4375 4343.5491,64.645939 4343.7889,64 4345.25,64 4347.5951,64 4347.5449,62.49262 4345,58.375 4343.8606,56.531398 4343.0731,54.027567 4343.25,52.78125 L 4343.5625,50.5 4345.8125,52.75 C 4348.388,55.325457 4350.0625,55.642201 4350.0625,53.5625 4350.0625,52.774952 4348.6,51.123453 4346.8125,49.875 4342.6818,46.989971 4342.0813,46.112453 4342.0625,42.8125 4342.0432,39.422174 4343.2266,38.660925 4345.6563,40.5 4346.6997,41.28989 4348.1827,41.951258 4348.9375,41.96875 4350.899,42.014202 4348.5236,39.305944 4345.0313,37.5 4343.1534,36.528874 4341.7118,34.336814 4340.1875,30.15625 4337.4272,22.585929 4336.2509,21.616662 4330.3125,22.1875 4327.6862,22.439961 4325.1653,23.498338 4322.1875,25.1875 z"/>
</svg>
