<?xml version="1.0" encoding="UTF-8"?>
<svg xmlns="http://www.w3.org/2000/svg" viewBox="0 0 5490 172">
  <path d="M 3198.4063,62.78125 3198.4063,66.28125 C 3198.8325,66.402071 3199.0625,66.732645 3199.0625,67.375 3199.0625,67.85456 3198.813,68.350961 3198.4063,68.875 L 3198.4063,73.34375 C 3198.4233,73.348676 3198.4846,73.337848 3198.5,73.34375 3199.2904,73.647082 3200.0082,77.04014 3200.4375,82.625 3201.1919,92.440074 3202.4809,98.178429 3204.7187,101.59375 3207.3132,105.55343 3210.4197,102.63895 3213.3125,93.5 3217.0746,81.614938 3217.9416,64.024255 3215.75,44.9375 3214.7984,36.650401 3214.8814,36.182251 3217.5,30.96875 3219.9931,26.005154 3220.0315,25.722118 3218.0313,27.53125 3216.8357,28.612372 3214.9897,31.188431 3213.9375,33.25 3212.2375,36.580967 3212.1296,37.750048 3213.0937,43.75 3215.5473,59.017924 3213.9938,86.160069 3210.0625,96.5 3204.9152,110.03853 3200.1597,73.488995 3203.9375,49.40625 3205.2968,40.740967 3204.461,34.554873 3201.5313,31.625 3200.7229,30.81667 3199.6323,28.978921 3199.0937,27.5625 3198.5552,26.146079 3197.6573,25 3197.0937,25 3195.618,25 3195.7287,25.400055 3199.2187,32.28125 L 3202.375,38.5 3201.1563,50 C 3200.4799,56.325 3199.3965,62.009741 3198.75,62.625 3198.7029,62.669787 3198.468,62.732443 3198.4063,62.78125 z M 3203.5,24 C 3202.3113,24 3202.2202,24.42227 3203.0313,25.9375 3203.6002,27.000476 3204.4945,29.025476 3205.0313,30.4375 3206.3812,33.988189 3208.2858,33.654207 3211.375,29.3125 3214.2569,25.26201 3213.9964,23.131336 3211.0625,26.75 3208.6641,29.708232 3206.4356,29.60496 3205.6563,26.5 3205.3112,25.125 3204.3338,24 3203.5,24 z"/>
</svg>
