<?xml version="1.0" encoding="UTF-8"?>
<svg xmlns="http://www.w3.org/2000/svg" viewBox="0 0 5529 172">
  <path d="M 3127.8456,62.545393 3129.0872,65.049594 C 3129.643,64.956322 3130.1548,64.829538 3130.5264,64.523194 3131.9593,63.34214 3133.2388,58.037996 3135.1228,45.226082 3135.7561,40.919262 3136.9511,35.748262 3137.7866,33.734999 3139.48,29.654368 3143.8539,24.599156 3145.6924,24.605355 3150.0926,24.620192 3147.7904,46.341539 3142.3357,56.250466 3137.9832,64.157125 3134.6239,68.218282 3131.1046,69.15017 L 3132.3152,71.591765 C 3133.3512,71.059277 3134.4537,70.31363 3135.7296,69.165765 3142.3779,63.184533 3147.4287,53.390736 3149.5073,42.43082 3151.4475,32.200399 3151.1347,26.792192 3148.4754,24.114736 3143.1729,18.776409 3134.1172,32.264501 3132.3945,48.060649 3131.7054,54.37838 3129.1366,62.549746 3127.8456,62.545393 z"/>
</svg>
