<?xml version="1.0" encoding="UTF-8"?>
<svg xmlns="http://www.w3.org/2000/svg" viewBox="0 0 5529 172">
  <path d="M 4999.5185,100.25 C 4996.7959,97.531582 4996.7703,97.385156 4997.2839,87.5 4997.6152,81.124041 4998.6876,74.563075 5000.2429,69.395993 L 5002.6823,61.291986 4997.3411,55.733934 C 4992.5305,50.727896 4992.0043,49.745047 4992.0436,45.837941 4992.1146,38.764208 4993.5996,33.055072 4996.046,30.451021 4998.9878,27.319642 4999.4337,27.823318 4997.3744,31.951397 4996.3521,34.000476 4995.6951,38.002359 4995.62,42.63651 4995.5021,49.913366 4995.56,50.092626 4998.8622,52.683033 5000.7113,54.13364 5002.997,56.591043 5003.9413,58.143927 5005.5887,60.852737 5005.5635,61.250164 5003.3218,67.934096 5000.9114,75.121094 4999.2021,90.846241 5000.3665,95.121618 5000.7228,96.429728 5001.6692,98.35035 5002.4695,99.389667 5003.8424,101.17241 5004.0683,101.18525 5006.4624,99.616614 5007.9192,98.662089 5009.0013,97.00538 5009.003,95.726947 5009.0063,93.293272 5012.4969,75.027128 5013.7315,70.982644 5014.999,66.830741 5017.2192,64.510444 5022.8249,61.479648 5028.1627,58.593649 5033,52.460179 5033,48.578113 5033,47.122667 5032.3757,47.3157 5029.25,49.737518 5024.4356,53.467776 5019.6851,55.352205 5017.1355,54.543007 5013.1516,53.278554 5011.4257,41.337128 5013.9135,32.25 5015.7358,25.59407 5016.8612,27.252075 5016.2893,35.75 5015.1146,53.205378 5019.4812,56.338134 5030.3838,45.861894 5036.9052,39.595585 5038.8246,42.329349 5034.518,51.749974 5031.7552,57.793515 5028.9398,60.736438 5022.7706,64.029121 5020.7194,65.123897 5018.4241,67.252707 5017.67,68.759811 5016.3235,71.45048 5013.5577,84.937739 5012.4527,94.201846 5011.9802,98.163501 5011.3702,99.226125 5008.5779,100.95185 5004.2154,103.64806 5002.813,103.53941 4999.5185,100.25 z M 5005.6417,51.833158 C 5005.4441,51.099921 5004.7326,48.792848 5004.0607,46.706329 5003.3735,44.572486 5003.1221,41.291044 5003.4861,39.206329 5004.3997,33.974207 5008.1942,26.556347 5010.1404,26.197777 5011.5088,25.94568 5011.3698,26.692027 5009.3026,30.697777 5007.1147,34.937253 5006.8912,36.343582 5007.3951,42.698739 5007.709,46.658046 5008.086,50.426796 5008.2329,51.073739 5008.6075,52.723609 5006.0813,53.464001 5005.6417,51.833158 z"/>
</svg>
