<?xml version="1.0" encoding="UTF-8"?>
<svg xmlns="http://www.w3.org/2000/svg" viewBox="0 0 5529 172">
  <path d="M 5505.3667,99.081938 C 5503.6434,98.031117 5501.529,96.165706 5500.6681,94.936582 5499.3233,93.016606 5499.2935,92.335442 5500.4564,90.100906 5501.2009,88.670407 5502.9777,86.409059 5504.405,85.075686 5508.0499,81.670579 5507.6636,79.472544 5502.5,74.234957 5500.025,71.724495 5498,69.259093 5498,68.756285 5498,68.253478 5500.25,65.255209 5503,62.093466 5505.75,58.931723 5508,55.753381 5508,55.030484 5508,54.307587 5506.1674,50.814438 5503.9276,47.267932 5501.6878,43.721426 5500.0832,40.225451 5500.362,39.4991 5502.0408,35.124073 5510.7044,23.03581 5512,23.260668 5513.6096,23.540038 5522.4739,38.80578 5523.5069,43.077462 5523.9948,45.094833 5523.3555,46.582191 5520.5651,49.922076 5518.6043,52.269009 5517,54.744501 5517,55.423169 5517,56.101837 5518.2987,58.646761 5519.8859,61.078555 5524.5735,68.260274 5524.5841,69.203526 5520.0352,74.45935 5517.8158,77.023609 5516.0183,79.43177 5516.0406,79.81082 5516.063,80.189869 5517.413,82.058002 5519.0406,83.962226 5521.9381,87.352025 5522.7023,90.371547 5521.2347,92.631144 5519.7044,94.987278 5511.7409,100.99984 5510.1554,100.99626 5509.2449,100.99421 5507.09,100.13276 5505.3667,99.081938 z M 5516.4595,74.25 C 5518.377,72.1875 5519.9581,69.707657 5519.9729,68.739238 5520.0125,66.162025 5513.7689,57.117337 5511.9065,57.054104 5510.1438,56.994252 5502,66.108811 5502,68.141555 5502,69.821577 5510.0426,78 5511.6948,78 5512.3978,78 5514.542,76.3125 5516.4595,74.25 z M 5515.2165,95.25 C 5516.0561,94.2875 5517.2924,92.439347 5517.964,91.142993 5519.0569,89.033126 5518.8401,88.430221 5515.8963,85.392993 5514.0875,83.526847 5512.1334,82.001734 5511.5538,82.003853 5510.1791,82.008878 5503,90.886336 5503,92.58121 5503,96.429943 5512.3967,98.482719 5515.2165,95.25 z M 5515.9331,51.066864 C 5521.4589,45.541052 5521.5099,44.834878 5516.9787,36.578822 5512.3294,28.107559 5511.3826,27.165703 5509.4926,29.131676 5507.4575,31.248579 5504,37.877424 5504,39.662382 5504,42.616389 5511.1424,53 5513.1743,53 5513.6284,53 5514.8699,52.130089 5515.9331,51.066864 z"/>
</svg>
