<?xml version="1.0" encoding="UTF-8"?>
<svg xmlns="http://www.w3.org/2000/svg" viewBox="0 0 5529 172">
  <path d="M 4619.5775,92.883857 C 4616.5099,90.687196 4614,88.476816 4614,87.971901 4614,87.466986 4616.102,83.647844 4618.671,79.484918 L 4623.342,71.915961 4618.671,67.173631 C 4616.102,64.56535 4614,61.800719 4614,61.030008 4614,60.259296 4615.8,57.49402 4618,54.88495 4620.2,52.275881 4622,49.467035 4622,48.643072 4622,47.819108 4620.7096,46.099841 4619.1325,44.822478 4614.4971,41.068126 4612.8531,37.864079 4614.2899,35.384795 4621.484,22.97091 4622.3009,21.900966 4624.3579,22.196886 4627.3429,22.626309 4636,34.503658 4636,38.169639 4636,40.147919 4634.7149,42.438888 4631.8799,45.514512 4627.7607,49.983298 4627.7601,49.984978 4629.5093,52.742169 4630.4716,54.258976 4632.2597,56.625 4633.4829,58 4637.3553,62.353104 4637.2581,63.603994 4632.7116,67.930039 L 4628.5114,71.926485 4632.7557,76.251094 C 4635.0901,78.629629 4637,81.101186 4637,81.743442 4637,83.748719 4628.4279,95.621818 4626.4253,96.390275 4625.7266,96.658406 4622.6451,95.080517 4619.5775,92.883857 z M 4631.0337,66.46408 C 4633.3746,63.972345 4633.3855,63.872157 4631.6581,60.71408 4630.6912,58.946336 4628.7666,56.201409 4627.3812,54.614242 L 4624.8624,51.728484 4620.9312,55.56719 C 4618.769,57.678478 4616.993,59.877069 4616.9845,60.452948 4616.9621,61.969616 4625.2146,68.934911 4627.0757,68.970158 4627.9423,68.986571 4629.7234,67.858836 4631.0337,66.46408 z M 4629.9447,43.75 C 4633.7361,39.704781 4633.7579,37.961984 4630.0844,32.622659 4625.0047,25.239541 4624.3285,25.024249 4620.4507,29.555494 4615.9011,34.871877 4616.0565,37.405719 4621.25,42.583992 4623.5875,44.914647 4625.8147,46.861698 4626.1993,46.910773 4626.5839,46.959848 4628.2694,45.5375 4629.9447,43.75 z M 4630.1719,88.494945 C 4633.668,83.437608 4633.671,81.78248 4630.191,77.887761 4628.1577,75.612072 4626.8353,74.917496 4625.4021,75.37239 4623.2992,76.039797 4616.3119,86.645187 4617.3144,87.647741 4619.4734,89.806704 4624.7415,92.892851 4625.9551,92.709603 4626.7555,92.588761 4628.653,90.692165 4630.1719,88.494945 z"/>
</svg>
