<?xml version="1.0" encoding="UTF-8"?>
<svg xmlns="http://www.w3.org/2000/svg" viewBox="0 0 5529 172">
  <path d="M 3577.5796,94.78995 C 3577.9982,88.98014 3577.722,84.603539 3576.6564,80.161016 3575.0547,73.483521 3571.3901,67.018346 3569.2003,67.006833 3566.6044,66.993185 3562.1396,70.031605 3558.738,74.126712 3554.9612,78.673466 3552,78.9376 3552,74.727729 3552,71.485756 3556.7926,62.181356 3559.0981,60.947515 3561.435,59.696838 3561.4823,58.274053 3559.3304,53.960499 3555.2862,45.85379 3555.9237,39.722009 3561.5818,32.303827 3564.2949,28.746809 3568.8969,27.519251 3567.4069,30.75 3565.7582,34.32499 3567.4223,47.974098 3569.5951,48.698377 3571.6962,49.398731 3575.7709,44.964542 3579.4366,37.988617 3582.3553,32.434409 3583.4508,31.129211 3584.4782,31.981879 3587.9116,34.831392 3586.8109,48.380184 3582.6574,54.394125 3580.7245,57.192713 3580.7131,57.493064 3582.3118,63.492675 3583.2211,66.905109 3584.2597,73.530988 3584.6199,78.21685 3585.1686,85.354819 3584.9246,87.889427 3583.1158,93.844681 3581.7359,98.38778 3580.2397,101.33656 3578.9695,102.01633 3577.0405,103.04871 3576.9997,102.83681 3577.5796,94.78995 z M 3582.3636,79.5 C 3581.8366,71.78312 3580.3667,64.864959 3578.4223,60.950369 3577.2918,58.674398 3577.467,57.937537 3580.0542,54.085183 3583.2858,49.273497 3584.3019,45.330163 3583.8226,39.461115 L 3583.5,35.51024 3580.3059,40.50512 C 3578.5492,43.252304 3575.5413,47.022027 3573.6218,48.882282 3568.0936,54.239845 3565.7814,52.028671 3564.431,40.093258 3564.0519,36.741966 3563.3613,34 3562.8965,34 3561.4869,34 3558.7036,40.278881 3558.7885,43.26725 3558.9214,47.938803 3560.9976,52.852936 3563.7548,55.02179 L 3566.3649,57.074853 3562.757,60.048792 C 3558.4454,63.602783 3555,68.891946 3555,71.956928 3555,74.162938 3555.021,74.160157 3558.1335,71.541096 3561.5351,68.678864 3568.2371,65 3570.0499,65 3573.0796,65 3577.7338,73.117688 3579.0943,80.774894 3579.6538,83.923702 3580.378,87.4 3580.7037,88.5 3581.8658,92.424701 3582.8733,86.962503 3582.3636,79.5 z"/>
</svg>
