<?xml version="1.0" encoding="UTF-8"?>
<svg xmlns="http://www.w3.org/2000/svg" viewBox="0 0 5529 172">
  <path d="M 4743.25,76.40625 C 4742.3043,75.070476 4742.066,73.929434 4742.3125,72.09375 4742.8175,68.33211 4741.2517,30.139525 4740.4375,26.28125 4740.0046,24.229459 4739.4815,24.07455 4733.8125,24.3125 L 4727.6562,24.5625 4727.375,42.53125 C 4727.2235,52.415938 4726.8578,69.317647 4726.5625,80.09375 4726.2672,90.869853 4726.3262,99.982358 4726.6875,100.34375 4727.0489,100.70515 4729.6625,101 4732.5,101 4736.668,101 4738.0962,100.52246 4739.9375,98.5625 4741.191,97.228215 4741.9353,95.708961 4741.5938,95.15625 4740.6979,93.706746 4741.3778,93.390072 4742.75,93.875 L 4742.6562,93.34375 4742.8125,88.5 C 4741.8887,86.876747 4741.8573,85.083828 4742.625,82.21875 4742.7789,81.644296 4742.9232,81.273425 4743.0938,81.03125 L 4743.25,76.40625 z M 4734.4688,27 C 4737.7065,27 4737.826,27.155327 4738.4375,31.75 4739.36,38.681601 4739.5451,90.960911 4738.6562,94.65625 4738.0778,97.061459 4737.2476,97.863906 4735.1875,98.15625 4728.8414,99.056761 4729.2095,101.28922 4729.4688,63.59375 4729.5986,44.723513 4730.0188,28.751984 4730.4062,28.125 4730.7938,27.498017 4732.6278,27 4734.4688,27 z"/>
</svg>
