<?xml version="1.0" encoding="UTF-8"?>
<svg xmlns="http://www.w3.org/2000/svg" viewBox="0 0 5529 172">
  <path d="M 3776.3138,102.04977 C 3770.4982,98.50371 3769.6807,94.441389 3773.1181,86.169883 3775.5496,80.319181 3775.1568,75.61877 3771.9486,72.175204 3769.3933,69.432463 3768.747,69.45341 3765.3335,72.389581 3762.9409,74.447568 3762.5842,75.440417 3762.7628,79.544378 3762.8769,82.165247 3763.6519,85.062869 3764.4851,85.983538 3766.0972,87.764927 3766.5103,90 3765.2274,90 3764.0292,90 3761.146,83.890726 3760.5081,80 3759.4575,73.592397 3766.4854,66.105024 3771.7047,68.071401 3774.4308,69.098467 3778,75.861569 3778,80 3778,81.693822 3777.1,84.843822 3776,87 3772.5003,93.859888 3773.6545,98.98672 3779.1281,100.89482 3784.624,102.81068 3788.6252,102.29196 3790.9274,99.36514 3793.5177,96.072175 3793.5141,94.50296 3790.8966,85.885395 3789.7326,82.053139 3789.0634,77.883685 3789.3982,76.549653 3790.1714,73.468913 3796.2357,67 3798.3505,67 3799.2384,67 3801.9978,68.947862 3804.4824,71.328583 3809.1511,75.801915 3810.1235,79.032262 3807.9973,83.005053 3806.4369,85.920647 3808.3494,86.158601 3811.3063,83.41677 3815.2715,79.74002 3815.6533,76.665526 3812.8802,70.739973 3810.349,65.33108 3802.3356,58 3798.9546,58 3797.9284,58 3795.4147,59.136111 3793.3685,60.52469 3791.3223,61.91327 3789.1648,62.890234 3788.5741,62.695721 3784.998,61.518231 3783.9821,51.380879 3786.5,42 3787.3119,38.975 3787.9816,36.429712 3787.9881,36.343805 3787.9947,36.257898 3785.7081,34.541074 3782.907,32.528641 L 3777.814,28.869671 3774.4138,31.184836 C 3772.5437,32.458176 3771.0106,33.780821 3771.0068,34.124047 3771.0031,34.467273 3772.1132,36.739849 3773.4738,39.174215 3776.3196,44.265822 3777.3006,51.771304 3775.8536,57.380562 L 3774.8526,61.261124 3769.7801,60.660366 C 3766.0325,60.21652 3763.9854,60.486242 3761.9425,61.693036 3758.5896,63.673621 3753,74.353465 3753,78.779029 3753,82.516392 3756.6538,90 3758.4785,90 3759.1806,90 3760.2821,90.634938 3760.9261,91.410972 3763.0137,93.926415 3760.1887,94.270526 3756.8671,91.90538 3752.7412,88.967452 3749.6103,81.890953 3750.4518,77.405366 3751.4243,72.221272 3755.9268,64.271491 3759.8325,60.842214 3762.9914,58.068619 3763.8135,57.817762 3768.0854,58.323709 3773.5009,58.965092 3774.0034,58.39906 3773.9944,51.668213 3773.9849,44.563287 3772.327,40.378106 3768.9715,38.988191 3766.2644,37.866898 3765.5947,38.008882 3762.0705,40.451132 3758.2959,43.066947 3758.0822,43.099966 3755.572,41.455239 3754.1445,40.519881 3752.689,38.609222 3752.3377,37.209329 3751.8187,35.141479 3752.3739,34.045459 3755.2977,31.366011 3758.5387,28.395821 3759.1941,28.1717 3761.8902,29.111564 3763.5367,29.685551 3765.4151,30.795261 3766.0644,31.577588 3767.7465,33.604448 3768.9842,33.334613 3773.4281,29.97218 3775.5886,28.337481 3777.8836,27 3778.5281,27 3779.1726,27 3781.5071,28.309093 3783.7158,29.909095 3787.3584,32.547787 3787.9533,32.691204 3790.1159,31.452034 3794.1568,29.136524 3797.0521,28 3798.9101,28 3801.6515,28 3804.1932,31.445069 3803.825,34.661566 3803.4776,37.69531 3802.3194,37.965352 3794.1012,36.928718 3790.9222,36.527722 3790.6162,36.748981 3789.3688,40.350503 3787.1288,46.817574 3786.5943,56.186436 3788.3334,58.498479 3789.8296,60.487723 3789.8506,60.486568 3792.8778,58.248479 3797.3983,54.906299 3801.8057,55.307689 3807.3878,59.56994 3818.4714,68.032905 3820.7178,79.838437 3812.3631,85.717421 3807.4357,89.184786 3798.7223,89.117169 3803.4662,85.648379 3804.3828,84.978176 3805.3744,82.627564 3805.6698,80.424798 3806.168,76.710705 3805.9039,76.145902 3802.034,72.649712 3799.7389,70.576181 3797.3649,69.045026 3796.7586,69.247145 3796.1522,69.449264 3794.5211,71.647551 3793.134,74.132227 L 3790.6118,78.64982 3792.8059,85.145406 C 3795.6938,93.69491 3795.608,97.124012 3792.4111,100.92327 3790.1349,103.62841 3789.1989,103.99955 3784.6611,103.99626 3781.3162,103.99384 3778.3788,103.30887 3776.3138,102.04977 z M 3761.0275,39.290924 C 3766.2886,35.654246 3766.4665,35.13371 3763.3603,32.462349 3759.823,29.420187 3759.4898,29.419323 3756.4646,32.44447 3754.0494,34.859712 3753.9996,36.805836 3756.2777,39.75 3757.5415,41.383343 3758.075,41.33178 3761.0275,39.290924 z M 3801,33.622445 C 3801,31.016037 3798.1844,29.59495 3795.4704,30.831539 3791.4625,32.657668 3792.322,35 3797,35 3799.7309,35 3801,34.562926 3801,33.622445 z"/>
</svg>
