<?xml version="1.0" encoding="UTF-8"?>
<svg xmlns="http://www.w3.org/2000/svg" viewBox="0 0 5529 172">
  <path d="M 2771.5864,100.72631 C 2771.2476,100.38525 2771.2399,97.323063 2771.569,93.921442 2772.1407,88.014014 2772.0384,87.626589 2769.2857,85.281713 2760.244,77.579382 2759.4781,70.384487 2766.5213,59.310209 L 2769.1323,55.204952 2767.2306,52.013943 C 2766.1847,50.258888 2764.7305,48.961542 2763.999,49.130951 2758.4233,50.422234 2757.3466,50.324348 2754.782,48.292943 2753.2822,47.104974 2752.0579,45.278497 2752.0615,44.234104 2752.0749,40.232758 2757.1523,31.204412 2762.4366,25.785327 2770.0405,17.987565 2771.3048,18.420463 2773.5798,29.600646 2773.8877,31.114193 2774.6937,32.348739 2775.3708,32.344082 2776.0478,32.339424 2778.7757,29.873609 2781.4328,26.864491 2788.2872,19.101863 2791.0677,19.765251 2789.6769,28.831405 2789.1982,31.951993 2787.8501,34.530791 2785.0399,37.701721 2781.7346,41.431355 2781.1751,42.66716 2781.6644,45.15754 2782.1902,47.833514 2782.7153,48.196635 2786.7336,48.663283 2789.9696,49.039081 2792.1066,50.052637 2794.4177,52.307852 2796.1785,54.026052 2797.8799,55.432731 2798.1985,55.433805 2799.0001,55.436509 2802.1191,47.933786 2806.6448,35.115376 2810.3879,24.513919 2812.3732,21.77991 2814.2862,24.59216 2815.6454,26.590228 2814.4328,38.931251 2812.1846,45.980912 2807.7066,60.022362 2801.5872,69.445312 2796.9568,69.429698 2795.9942,69.426452 2792.7536,67.390514 2789.7557,64.905391 2786.7576,62.420267 2783.7812,60.385219 2783.1413,60.383062 2782.5014,60.380904 2781.0812,61.838623 2779.9852,63.622438 2777.1532,68.232366 2777.3666,74.664042 2780.5629,81.034827 2783.8902,87.666389 2783.2783,91.377649 2777.9117,97.115637 2774.0212,101.27535 2772.8154,101.96365 2771.5864,100.72631 z M 2779.3282,91.265703 C 2780.8642,87.464112 2780.8317,87.140889 2778.4359,82.37306 2774.9647,75.465146 2775.0057,67.259533 2778.5375,62.099683 2781.9163,57.163087 2785.3708,57.103563 2790.6417,61.891119 2797.3976,68.027528 2800.0113,67.610369 2803.8655,59.780541 2805.1704,57.129745 2806.8149,53.83785 2807.5199,52.46522 2810.6388,46.393695 2814.1568,28.487462 2812.2321,28.480972 2811.7086,28.479207 2810.519,30.612708 2809.5884,33.222085 2808.6579,35.831462 2807.0549,39.988581 2806.0261,42.460126 2804.9974,44.931671 2803.8524,48.077828 2803.4818,49.451586 2802.6284,52.613621 2799.1067,58.436885 2798.0499,58.433322 2797.6095,58.431837 2795.3973,56.566316 2793.1341,54.287722 2788.9337,50.058938 2788.1669,49.883628 2781.0818,51.532282 2780.0035,51.783208 2779.4412,50.443088 2778.9151,46.368732 2778.2334,41.088538 2778.3244,40.772281 2781.1665,38.538288 2784.9388,35.573188 2787.1157,31.397653 2787.0797,27.195813 L 2787.0514,23.896039 2780.6307,30.874428 C 2776.5635,35.294829 2773.8831,37.485155 2773.3185,36.849806 2772.0796,35.455842 2770.1158,28.149024 2770.1265,24.972955 2770.1389,21.30721 2768.1637,21.663437 2764.0521,26.068499 2758.7825,31.71407 2756.3683,35.548488 2755.0563,40.355672 2753.9522,44.402067 2754.0277,44.84068 2756.1226,46.548736 2757.3738,47.56895 2759.0834,48.109532 2759.9644,47.763509 2760.8375,47.420598 2762.9788,46.905124 2764.7231,46.61801 2767.6265,46.140086 2768.069,46.44109 2769.9611,50.18093 2772.574,55.345568 2772.5468,56.166624 2769.6605,59.28288 2766.2909,62.920992 2763.709,70.089915 2764.4057,73.873816 2764.7761,75.885502 2766.78,78.733805 2769.9523,81.757758 2774.5946,86.182903 2774.918,86.812223 2774.9026,91.392403 2774.8824,97.379276 2776.8812,97.322051 2779.3282,91.265703 z"/>
</svg>
