<?xml version="1.0" encoding="UTF-8"?>
<svg xmlns="http://www.w3.org/2000/svg" viewBox="0 0 5529 172">
  <path d="M 2950.4363,96.7869 C 2953.0744,88.571337 2953.2477,39.935031 2950.6763,29.447802 2949.8665,26.145053 2949.1898,22.880252 2949.1725,22.19269 2949.1064,19.561552 2953.4187,21.137639 2957.919,25.38946 2964.8591,31.94625 2967.3437,41.118106 2969.3621,67.631622 2970.4875,82.41381 2970.8463,84.294837 2973.2345,87.930213 2975.8245,91.872783 2975.3312,94.469553 2972.4497,92.061671 2969.5577,89.644903 2967.9522,83.884524 2966.9753,72.41867 2964.467,42.978505 2962.26,33.315056 2956.6328,27.132978 2954.7957,25.114692 2953.001,23.752936 2952.6447,24.106856 2952.2884,24.460774 2952.5311,26.710081 2953.1841,29.105314 2955.0245,35.855344 2955.081,36.87482 2955.0921,63.462885 2955.0984,78.810702 2954.682,89.787401 2954.0135,91.893178 2953.4145,93.779742 2953.1153,95.515334 2953.3484,95.750049 2953.5816,95.984764 2955.1083,95.232213 2956.7413,94.077712 2958.3744,92.923211 2960.2313,91.980377 2960.8681,91.982524 2963.8347,91.992527 2971.8902,95.393936 2971.886,96.634806 2971.8797,98.515844 2970.596,98.378927 2964.8508,95.884418 L 2959.9496,93.756322 2956.8371,96.357399 C 2952.8792,99.664997 2949.438,99.895906 2950.4363,96.7869 z"/>
</svg>
