<?xml version="1.0" encoding="UTF-8"?>
<svg xmlns="http://www.w3.org/2000/svg" viewBox="0 0 5777 172">
  <path d="M 2612,93.922766 C 2610.625,92.816883 2608.0747,90.555007 2606.3326,88.896374 L 2603.1652,85.880678 2605.2259,81.190339 C 2606.3592,78.610653 2608.1138,75.437204 2609.1251,74.138232 2610.9554,71.787034 2610.9436,71.752987 2606.4818,66.530419 2604.0168,63.645094 2602,60.88145 2602,60.388989 2602,59.896528 2603.575,57.278334 2605.5,54.57078 2607.425,51.863226 2609,48.879528 2609,47.94034 2609,47.001152 2607.2618,44.662341 2605.1373,42.742983 2603.0128,40.823624 2600.9916,38.795454 2600.6458,38.235937 2600.3,37.67642 2602.0292,34.627459 2604.4884,31.460468 2606.9476,28.293477 2609.2241,24.869285 2609.5472,23.851152 2609.8704,22.833018 2610.6138,22 2611.1993,22 2612.5698,22 2618.0024,27.840471 2620.2043,31.681167 2621.8998,34.638445 2621.8883,34.682012 2617.9866,40.076936 2615.8294,43.059621 2614.05,45.992756 2614.0323,46.595012 2614.0145,47.197269 2614.9659,48.547269 2616.1464,49.595012 2617.3269,50.642756 2619.5621,53.234525 2621.1134,55.3545 L 2623.934,59.209 2621.9283,62.8545 C 2620.8252,64.859525 2619.0539,67.867774 2617.9922,69.539497 L 2616.0618,72.578994 2619.9956,79.039497 C 2622.1592,82.592774 2623.9453,85.847554 2623.9647,86.272343 2624.008,87.220664 2615.9887,96.013008 2615.1226,95.966731 2614.7802,95.948433 2613.375,95.028648 2612,93.922766 z M 2614.936,41.910203 C 2619.577,37.269121 2620.1169,35.780448 2618.3779,32.419703 2616.5761,28.937569 2612.9,24.853285 2611.9075,25.230788 2610.5323,25.753811 2603,35.481012 2603,36.733857 2603,38.038142 2609.8484,45 2611.1314,45 2611.5245,45 2613.2366,43.609591 2614.936,41.910203 z M 2617.3999,67.720117 C 2621.2033,62.733581 2621.9812,59.934602 2620.4155,56.869116 2619.0552,54.205692 2613.5179,49 2612.0451,49 2611.6042,49 2609.5374,51.477238 2607.4521,54.504973 L 2603.6607,60.009945 2605.6828,62.254973 C 2606.7949,63.489738 2608.9707,65.9625 2610.5177,67.75 2612.0648,69.5375 2613.6833,71 2614.1144,71 2614.5455,71 2616.024,69.524052 2617.3999,67.720117 z M 2620.1504,82.577482 C 2618.8657,80.155842 2616.7314,77.156796 2615.4073,75.912936 L 2613,73.651372 2610.529,75.972736 C 2609.17,77.249486 2607.5674,79.780892 2606.9676,81.598081 2605.5973,85.75031 2606.7137,88.053865 2611.7578,91.481402 L 2615.4657,94.00097 2618.9759,90.490717 2622.4862,86.980464 2620.1504,82.577482 z"/>
</svg>
