<?xml version="1.0" encoding="UTF-8"?>
<svg xmlns="http://www.w3.org/2000/svg" viewBox="0 0 5777 172">
  <path d="M 2812.7812,78.65625 C 2811.1607,80.910383 2806.3749,82.56663 2804.5625,81.0625 2802.9945,79.761152 2802.2297,74.105282 2801.4062,57.71875 2800.9184,48.00988 2801.1404,45.079776 2802.5625,41.125 2804.9383,34.518302 2803.8731,27.748132 2799.875,23.75 2797.5096,21.384605 2796.4115,20.924603 2794.2188,21.46875 2788.6544,22.849664 2784,29.292426 2784,35.59375 2784,38.487609 2784.8289,40.195294 2787.875,43.5 2792.1742,48.164054 2792.0939,47.587601 2793.5938,76.90625 2793.9147,83.179495 2794.5423,89.296093 2795,90.5 2797.2773,96.489915 2801.8227,97.453817 2809.25,93.5 L 2813.875,91.03125 2814,90.65625 2813.625,86.96875 C 2812.878,89.253667 2810.576,91.37227 2806.9375,92.9375 2804.2967,94.073547 2801.8828,95 2801.5938,95 2800.1622,95 2796.9761,90.276985 2796.5625,87.5625 2795.2535,78.970358 2794.9136,74.338727 2794.875,63.625 2794.8243,49.538346 2794.1885,47.017765 2789.625,42.78125 2784.3584,37.892004 2784.1817,30.538074 2789.2188,25.9375 2793.1961,22.304717 2796.2337,22.196082 2798.9062,25.59375 2802.23,29.819198 2802.5981,34.655673 2800.1562,41.5 2798.9764,44.80684 2798.2153,48.625 2798.4375,50 2798.6596,51.375 2799.1245,58.125 2799.5,65 2799.8755,71.875 2800.791,78.97001 2801.5312,80.75 2802.768,83.72375 2803.149,83.930646 2806.1875,83.3125 2810.3834,82.45888 2812.3605,82.36817 2813.25,83.21875 L 2812.7812,78.65625 z"/>
</svg>
