<?xml version="1.0" encoding="UTF-8"?>
<svg xmlns="http://www.w3.org/2000/svg" viewBox="0 0 5777 172">
  <path d="M 3926.3125,27.875 C 3925.7136,27.481443 3925.5,26.675105 3925.5,25.09375 3925.5,23.219335 3924.9375,21.483918 3924.25,21.25 3923.5625,21.016082 3923,21.442179 3923,22.1875 3923,24.229539 3914.5574,33 3912.5938,33 3911.4811,33 3910.0525,31.104202 3908.5,27.59375 3907.1846,24.619317 3905.686,21.921102 3905.1562,21.59375 3903.6456,20.66013 3901.1361,21.991085 3900.4688,24.09375 3899.752,26.351776 3895.1503,32 3894.0312,32 3893.6035,32 3892.3304,29.75 3891.1875,27 3889.1801,22.16948 3886.9392,20.675906 3885.4062,23.15625 3885.0123,23.793504 3884.1583,26.907768 3883.5,30.0625 3882.1344,36.606707 3883.1875,40.488237 3887.625,45.125 3890.1137,47.725501 3890.137,47.898001 3889.2188,57.25 3888.6779,62.758147 3888.6546,69.36344 3889.1562,73.03125 3889.8929,78.418192 3889.7522,79.666346 3888.25,81.4375 3884.0489,86.390654 3881.6033,93.534732 3882.6562,97.75 3883.5038,101.14272 3886.2847,100.46762 3889.875,96 3891.6429,93.8 3893.5654,92 3894.125,92 3894.6846,92 3896.2679,93.35 3897.6562,95 3901.1017,99.094682 3904.3708,98.915237 3908.5938,94.4375 3911.2414,91.630236 3912.3159,91.118874 3913.7188,91.875 3915.9386,93.071561 3919.5971,97.040847 3920.1562,98.875 3920.4901,99.969861 3920.9738,99.901268 3922.4062,98.46875 3923.8877,96.987285 3924.0755,95.713173 3923.5312,91.5625 3922.8553,86.407087 3921.1858,82.94037 3917.8438,79.71875 3916.823,78.734825 3915.9814,77.159825 3915.9688,76.21875 3915.9561,75.277675 3915.8497,68.480249 3915.7188,61.125 3915.5486,51.558965 3915.8097,47.637375 3916.6562,47.3125 3917.3072,47.062707 3918.5925,45.287502 3919.5,43.375 3920.4075,41.462498 3922.2393,39.384138 3923.5625,38.78125 3923.706,38.715854 3923.8819,38.741498 3924.0312,38.6875 L 3924.6562,34.59375 C 3924.2278,34.094156 3924.4744,33.534233 3924.9062,32.9375 L 3925.3438,30 3926.3125,27.875 z M 3903.3125,25.59375 C 3903.6269,25.451095 3903.8957,25.452017 3904.125,25.59375 3905.6024,26.506869 3910.8074,41.706679 3912.0312,48.6875 3913.7514,58.499827 3912.8702,81.042171 3910.625,84.46875 3909.7359,85.825681 3909,87.753028 3909,88.75 3909,89.746973 3908.2937,91.558871 3907.4375,92.78125 3905.4096,95.676461 3901.4846,95.65892 3899.5938,92.75 3898.7893,91.5125 3896.6592,86.9 3894.875,82.5 3891.8148,74.95362 3891.629,73.847921 3891.7812,63 3891.9127,53.642392 3892.4919,49.733006 3894.7812,41.96875 3897.0939,34.125099 3901.1119,26.592338 3903.3125,25.59375 z M 3887.0625,26.8125 C 3887.7101,26.741283 3888.6211,27.983464 3890.1875,30.5 3892.6375,34.436266 3893.0159,35.855179 3892.4688,39.09375 3892.1076,41.231055 3891.5159,43.195908 3891.125,43.4375 3888.5891,45.004806 3884.5824,36.097839 3885.5312,31 3886.0422,28.255034 3886.4149,26.883717 3887.0625,26.8125 z M 3920.4375,30.6875 C 3921.7657,30.629702 3920.3056,38.756049 3918.0625,41.90625 3916.8519,43.606486 3915.5082,45 3915.0625,45 3914.6169,45 3913.7662,43.123959 3913.1875,40.84375 3912.2386,37.105709 3912.3463,36.516789 3914.3125,34.875 3915.5119,33.873507 3916.8856,33.049548 3917.375,33.03125 3917.8643,33.012952 3918.9046,32.2125 3919.6875,31.25 3919.9973,30.869122 3920.2478,30.695757 3920.4375,30.6875 z M 3889.9688,82 C 3890.5546,82 3891.7712,83.518975 3892.6562,85.375 L 3894.25,88.75 3890.125,92.875 C 3887.856,95.143975 3885.775,97 3885.5,97 3885.225,97 3885.0192,95.5375 3885.0312,93.75 3885.0568,89.978086 3888.4068,82 3889.9688,82 z M 3915.5312,81.59375 C 3917.3076,82.22545 3921,88.343575 3921,91.21875 3921,92.741076 3920.55,94 3920,94 3919.45,94 3919,93.567126 3919,93.03125 3919,92.495374 3917.6159,91.321644 3915.9062,90.4375 3913.153,89.013795 3912.8506,88.465674 3913.4062,85.6875 3913.7514,83.962207 3914.4228,82.170877 3914.9062,81.6875 3915.0661,81.527651 3915.2775,81.503507 3915.5312,81.59375 z"/>
</svg>
