<?xml version="1.0" encoding="UTF-8"?>
<svg xmlns="http://www.w3.org/2000/svg" viewBox="0 0 5777 172">
  <path d="M 5180.5,49.09375 5181.3438,49.34375 5180.6562,62.65625 5179.875,63.15625 C 5180.8829,63.525801 5180.8815,65.067371 5180.4375,71.75 5179.7502,82.092859 5178.2332,90.749743 5176.9688,91.53125 5176.4712,91.838699 5174.9176,91.345831 5173.5312,90.4375 5172.1449,89.529168 5170.363,89.036574 5169.5625,89.34375 5167.3255,90.202153 5164.7724,95.91258 5165.4375,98.5625 5166.2438,101.77499 5172.2336,102.9567 5176.1875,100.6875 5178.6335,99.283685 5179.4086,99.273657 5182.3438,100.5 5186.1521,102.09124 5189.2217,101.58407 5193.375,98.6875 5195.2539,97.3771 5196.6992,96.999207 5197.5,97.59375 5202.9551,101.6441 5204.1651,102.17978 5206.5,101.59375 5208.6576,101.05223 5209,100.40595 5209,96.9375 5209,92.023114 5206.5643,87 5204.1875,87 5203.224,87 5201.4651,87.670724 5200.2812,88.5 5198.329,89.867406 5198.1074,89.844131 5197.6562,88.25 5196.361,83.674129 5195.72,74.130013 5195.75,59.375 5195.7937,37.870106 5196.9567,31.550376 5200.2812,34.875 5201.9811,36.574791 5209.0696,36.232137 5211.1562,34.34375 5213.5433,32.183526 5213.4711,29.524822 5210.9062,25.375 5208.4624,21.420587 5204.9313,20.924913 5201,24 5197.7322,26.556093 5196.6229,26.492736 5192.2188,23.5 5190.1953,22.125 5188.072,21 5187.5,21 5186.928,21 5184.764,22.413412 5182.6875,24.125 5179.2483,26.959927 5178.7401,27.092562 5177.1875,25.6875 5174.8732,23.593008 5170.314,21.945629 5168.625,22.59375 5167.8645,22.885601 5166.4435,24.596425 5165.4688,26.40625 5161.8957,33.041003 5166.3815,37.901397 5173.4375,35.0625 5179.1749,32.75409 5179.4394,32.947553 5180.375,40.21875 5180.916,44.424075 5180.9659,47.144579 5180.5,49.09375 z M 5170.875,24 C 5171.2847,24 5172.9119,25.342362 5174.5,27 5177.0349,29.645877 5177.2226,30.214947 5175.9375,31.5 5175.1324,32.305085 5173.0732,33.247867 5171.3438,33.59375 5168.7859,34.105311 5167.9598,33.828791 5167.0312,32.09375 5166.0943,30.343151 5166.2933,29.409323 5168.0312,26.96875 5169.1958,25.333262 5170.4654,24 5170.875,24 z M 5205.6562,24 C 5207.2431,24 5210.3911,30.541479 5209.6875,32.375 5209.2823,33.430901 5207.8761,34 5205.7188,34 5199.8841,34 5198.1749,30.074497 5202.3125,26.1875 5203.5854,24.991627 5205.0908,24 5205.6562,24 z M 5187.875,24.3125 C 5189.4786,24.53338 5191.2319,25.619382 5193.3438,27.59375 5195.8301,29.918209 5196.0759,30.697361 5195.4375,33.875 5195.0367,35.870193 5194.596,39.3 5194.4375,41.5 5193.0139,61.259607 5192.8908,70.042017 5193.9375,81.5 L 5195.125,94.5 5192.5,96.75 C 5189.719,99.142048 5187.5054,99.607535 5186.5312,98.03125 5186.2061,97.505271 5185.3303,97.31114 5184.5938,97.59375 5182.5166,98.390844 5179.747,95.031819 5180.4688,92.59375 5181.7649,88.21549 5183.9887,64.093155 5184,54.21875 5184.0064,48.558063 5183.3023,40.49947 5182.4375,36.3125 L 5180.8438,28.6875 5183.3438,26.21875 C 5184.8234,24.739078 5186.2714,24.09162 5187.875,24.3125 z M 5203.2188,89.25 C 5203.6707,89.245982 5204.0115,89.680749 5204.6562,90.5625 5205.3898,91.565598 5206,93.83758 5206,95.625 5206,100.02862 5204.8125,100.4507 5201.6562,97.15625 5198.4405,93.799716 5198.366,92.9828 5201.1562,90.59375 5202.2036,89.696958 5202.7668,89.254018 5203.2188,89.25 z M 5170.2188,92 C 5170.8603,92 5172.4046,92.949106 5173.6562,94.125 5175.4329,95.794029 5175.7154,96.671416 5174.9375,98.125 5173.739,100.36423 5169.1919,100.6288 5168.375,98.5 5167.5678,96.396531 5168.8147,92 5170.2188,92 z"/>
</svg>
