<?xml version="1.0" encoding="UTF-8"?>
<svg xmlns="http://www.w3.org/2000/svg" viewBox="0 0 5777 172">
  <path d="M 3023.625,22.9375 C 3022.7612,23.083317 3021.8872,23.434322 3021,24 3019.955,24.666283 3020.5616,24.761811 3023,24.375 3026.0982,23.883531 3026.7009,24.167667 3028.25,26.8125 3030.4841,30.626834 3030.6209,37 3028.4688,37 3027.6265,37 3026.6916,36.325 3026.375,35.5 3024.7214,31.190666 3012.7954,36.891718 3009.125,43.75 3007.4137,46.947545 3007.6342,60.913712 3009.4062,61.59375 3010.1849,61.892527 3013.1732,60.528539 3016.0312,58.5625 3018.8894,56.596462 3021.9896,55 3022.9062,55 3023.823,55 3027.4568,57.925 3031,61.5 3040.7779,71.365639 3044.6265,70.193639 3049.0312,56 3050.3114,51.875 3052.1935,46.496379 3053.2188,44.0625 3054.2441,41.628621 3054.9186,38.928621 3054.7188,38.0625 3054.5189,37.196379 3053.6481,38.75 3052.7812,41.5 3048.3526,55.548262 3043.21,66 3040.7188,66 3040.1787,66 3036.3762,63.008759 3032.2812,59.34375 L 3024.8438,52.6875 3019.6562,54.9375 C 3010.8466,58.784074 3011.3004,58.943496 3010.75,51.84375 3010.1561,44.18255 3011.7867,40.695097 3017.2188,37.90625 3022.8571,35.011462 3024.4668,35.394926 3026.3125,40.09375 3028.2723,45.082894 3029.8927,44.790478 3031.7812,39.125 3034.6604,30.487759 3029.6713,21.916779 3023.625,22.9375 z M 3057.9688,26.09375 C 3057.3546,26.08638 3056.572,26.967709 3055.9062,28.71875 3055.179,30.631841 3055.2091,32.053469 3056,33.53125 3058.3673,37.954671 3054.9982,56.071754 3049.9062,66.25 3044.1829,77.690384 3042.8264,78.14874 3034.125,71.53125 3023.5343,63.476947 3019.8665,63.50653 3015.9062,71.6875 3012.8247,78.0531 3012.3945,83.292854 3014.5312,88.03125 3016.628,92.681169 3016.2471,93.432133 3012.5625,92.03125 3008.6744,90.552996 3007.7047,90.710317 3003.5938,93.5 2999.2177,96.46973 2998.8403,96.54402 2999.7812,94.25 3001.1305,90.960302 3003.4895,88 3004.75,88 3005.4427,88 3006,87.3171 3006,86.5 3006,84.234795 2999.2015,71.856275 2996.25,68.75 2993.5691,65.928536 2989.6476,65.116329 2988.4062,67.125 2987.9795,67.815377 2988.2761,68.052252 2989.125,67.75 2989.8891,67.477968 2991.282,67.674961 2992.2188,68.15625 2994.3259,69.238779 3000.61,78.619009 3002.0938,82.875 3003.0911,85.736135 3002.9106,86.323021 3000.0938,89.53125 2997.2054,92.820923 2996.1066,96.794154 2997.6562,98.34375 2998.9601,99.647683 3000.6644,98.959756 3003.5,96 3006.9982,92.348649 3008.867,92.25966 3014,95.5 3016.1781,96.875 3018.4078,98 3018.9688,98 3020.6961,98 3020.1134,94.557465 3017.5,89.40625 3014.3109,83.120316 3014.3891,79.810954 3017.8125,73 3021.8297,65.007763 3023.9397,65.125829 3035,74.0625 3041.2108,79.080763 3042.2366,79.268793 3045.7812,76.03125 3054.0835,68.448331 3059.93,47.770974 3059.125,28.75 3059.0505,26.990077 3058.5829,26.10112 3057.9688,26.09375 z M 2998.5938,24.125 C 2998.2385,24.353708 2999.2733,26.037181 3001.9688,29 3004.467,31.746134 3007.175,33.986016 3008,33.96875 3008.825,33.951485 3011.75,31.861748 3014.5,29.34375 L 3019.5,24.78125 3014.375,28.375 C 3011.5513,30.364129 3008.8147,32 3008.3125,32 3007.8103,32 3005.6482,30.2 3003.5,28 3000.6832,25.115319 2998.949,23.896292 2998.5938,24.125 z M 2993.3125,24.1875 C 2992.4238,24.361415 2990.1447,26.75 2988.25,29.5 2985.3524,33.705533 2984.8743,35.105128 2985.3125,38.375 2986.0531,43.90147 2988.0597,45.5 2994.2812,45.5 L 2999.5,45.5 2999.7812,52.25 C 3000.1146,59.8595 2999.9906,59.966433 2993,57.5 2990.6617,56.675 2988.1512,56 2987.4375,56 2985.4586,56 2980.7329,60.403857 2978.6562,64.15625 2976.9806,67.184013 2977.2197,67.040424 2981.2812,62.75 2983.7543,60.1375 2986.6135,58 2987.625,58 2988.6366,58 2991.7799,58.97704 2994.625,60.15625 3002.124,63.264408 3003.0885,62.542071 3002.5625,54.28125 3001.9111,44.050388 3001.6118,43.591631 2995.8125,43.96875 2991.6846,44.237177 2989.1624,42.364359 2988.4375,38.5 2987.5459,33.747517 2988.429,30.818379 2991.9375,27.0625 2993.9096,24.951359 2994.3842,23.977767 2993.3125,24.1875 z M 2986.1875,68.59375 C 2986.0711,68.585179 2985.8613,68.684216 2985.5938,68.90625 2983.6802,70.494289 2981,78.515164 2981,82.625 2981,84.416219 2980.5003,87.139196 2979.9062,88.6875 L 2978.8438,91.5 2977.2812,88.5625 C 2976.0676,86.262343 2975.8553,83.627887 2976.2812,76.5625 2976.8841,66.563374 2975.5577,67.656581 2973.9375,78.5 2973.2227,83.283764 2973.3783,85.462853 2974.7188,89.25 2976.0454,92.998395 2976.8612,94 2978.625,94 2981.2183,94 2981.5793,93.023132 2982.5,83.625 2982.871,79.837145 2984.0624,74.697748 2985.125,72.21875 2986.1919,69.72975 2986.5368,68.619462 2986.1875,68.59375 z"/>
</svg>
