<?xml version="1.0" encoding="UTF-8"?>
<svg xmlns="http://www.w3.org/2000/svg" viewBox="0 0 5777 172">
  <path d="M 2812.7812,78.65625 2813.25,83.21875 C 2813.5465,83.502277 2813.7121,83.87783 2813.8125,84.375 2813.9891,85.24956 2813.9016,86.122548 2813.625,86.96875 L 2814,90.65625 2813.875,91.03125 2813.9688,90.96875 2814.625,93.75 C 2814.9882,95.26941 2815.4561,96.8375 2815.6875,97.25 2816.1998,98.163305 2819.6691,98.216184 2823.875,97.375 2826.3224,96.885526 2827,96.235 2827,94.375 2827,93.61923 2827.1219,93.065799 2827.375,92.6875 L 2827.3438,92 2827.3438,87.125 C 2826.5404,86.091343 2826,85.010928 2826,83.9375 2826,82.575543 2826.4708,81.894965 2827.3438,81.65625 L 2827.3438,79.34375 2827.75,78.46875 2827.2188,78.21875 2827.125,51.34375 C 2827.0375,27.036344 2826.8583,24.376289 2825.2812,23.21875 2823.1243,21.635625 2818.0075,22.555335 2816.2188,24.84375 2815.4137,25.873731 2814.9376,29.147493 2815,33.5 2815.1364,43.02235 2814.0345,74.997882 2813.4688,77.6875 2813.3955,78.035749 2813.0177,78.327341 2812.7812,78.65625 z M 2817.5,24.5 2821,24.5 2824.5,24.5 2824.5,60 2824.5,95.5 2820.8438,95.8125 2817.1562,96.125 2816.5625,89.8125 C 2816.2347,86.344603 2816.3318,70.225 2816.75,54 L 2817.5,24.5 z"/>
</svg>
