<?xml version="1.0" encoding="UTF-8"?>
<svg xmlns="http://www.w3.org/2000/svg" viewBox="0 0 5777 172">
  <path d="M 1642,98.368034 C 1642,98.020453 1642.916,96.253989 1644.0355,94.442558 1647.2063,89.312082 1646.7967,72.850143 1643.3532,67.020729 1641.6398,64.12026 1641.6403,63.810417 1643.3646,59.249904 1647.0251,49.568812 1646.4479,32.730083 1642.2333,26.25 1640.9432,24.266285 1640.9475,24 1642.27,24 1648.082,24 1650.8976,46.820851 1646.4106,57.559816 1644.5729,61.957862 1644.6374,64.816171 1646.6572,68.5 1647.7083,70.417003 1648.4705,74.825337 1648.7686,80.711482 1649.2044,89.315185 1649.0597,90.222419 1646.5754,94.461482 1644.2642,98.405288 1642,100.3385 1642,98.368034 z M 1632,99.059017 C 1632,98.541476 1632.4185,97.859383 1632.93,97.543254 1635.9328,95.6874 1634.8617,74.971931 1631.3861,67.683399 1629.7819,64.319481 1629.8135,64.081093 1632.6199,58.365579 1635.251,53.007176 1635.4963,51.592102 1635.4568,42 1635.4324,36.091984 1634.8422,29.830704 1634.1071,27.682998 1632.651,23.428677 1633.4435,21.518418 1635.4986,24.328919 1637.2504,26.724692 1638.3144,34.642052 1638.165,44.170867 1638.0731,50.035643 1637.4436,53.20106 1635.4915,57.615092 1632.998,63.253421 1632.9774,63.483307 1634.6113,67.444225 1637.0654,73.393565 1637.7241,91.331962 1635.6691,96.25 1634.2455,99.656778 1632,101.37591 1632,99.059017 z M 1624.7309,97.25 C 1625.1539,95.7375 1625.3831,90.9 1625.2402,86.5 1625.0257,79.89293 1624.4487,77.441215 1621.9264,72.41909 L 1618.8724,66.33818 1621.3841,60.847168 C 1624.2641,54.550691 1626.5461,36.605763 1625.4656,28.75003 1624.6904,23.113699 1626.5476,22.071795 1627.5782,27.564893 1628.8365,34.27258 1626.1956,55.255149 1623.5588,59.5 1620.9313,63.72964 1620.9209,66.604342 1623.519,70.432927 1626.6721,75.079173 1627.9445,80.571386 1627.9756,89.668213 1628.003,97.720982 1627.4291,100 1625.374,100 1624.3138,100 1624.1535,99.31475 1624.7309,97.25 z"/>
</svg>
