<?xml version="1.0" encoding="UTF-8"?>
<svg xmlns="http://www.w3.org/2000/svg" viewBox="0 0 5777 172">
  <path d="M 339.85874,83.75 C 337.46709,79.308721 338.26011,72.808315 342.15699,64.911083 348.63501,51.783046 349.20656,48.019353 346.25,37.958086 344.25839,31.180547 343.40124,30.83924 337.5,34.473914 332.72611,37.41423 332.57756,37.434699 330.57143,35.428571 327.32692,32.184062 329.62858,22 333.60636,22 335.7094,22 341.34376,25.00437 342.29969,26.63548 343.21645,28.199753 346,28.489252 346,27.020324 346,26.481502 347.6875,25.186428 349.75,24.142382 354.14378,21.91823 356.51719,22.490891 361.67526,27.019737 363.54214,28.658882 365.41566,30 365.83863,30 366.2616,30 368.13422,28.425 370,26.5 373.58213,22.804176 377.37797,21.936642 378.39301,24.581787 378.72686,25.451771 379,28.601771 379,31.581787 379,36.535833 378.80725,36.999472 376.75,36.993839 375.5125,36.990451 373.21106,36.315451 371.63569,35.493839 366.92003,33.034449 365.17684,33.540425 364.41732,37.589047 363.22765,43.930507 364.52392,54.121393 367.26797,60 371.41842,68.891562 372.30811,73.025405 371.35473,78.988552 370.17258,86.382544 367.94206,86.961497 368.69365,79.679261 369.27942,74.003726 367.84232,68.416919 363.8175,60.723006 361.33366,55.974853 360.30579,43.814035 361.86494,37.622085 363.00319,33.101704 362.99445,33.075134 359.04296,29.04383 354.67421,24.586824 353.50542,24.25726 350.22251,26.556704 347.55741,28.423412 347.27558,33.02197 349.5,38.345757 350.325,40.32026 351,43.671398 351,45.792729 351,49.699628 346.8859,63.227632 345.01053,65.487306 341.84561,69.300811 340.53189,81.974627 343.13478,83.583301 344.52038,84.439648 344.13325,86 342.53518,86 341.72953,86 340.52513,84.9875 339.85874,83.75 z M 337.69424,31.496947 340.5,28.993893 338.08735,26.954946 C 335.22888,24.53924 333.00485,24.738146 331.99293,27.5 331.16767,29.752401 332.42175,34 333.91201,34 334.44907,34 336.15107,32.873626 337.69424,31.496947 z M 341.04447,101.5 C 341.04447,100.95 341.92446,99.375 343,98 344.07554,96.625 344.95553,95.95 344.95553,96.5 344.95553,97.05 344.07554,98.625 343,100 341.92446,101.375 341.04447,102.05 341.04447,101.5 z M 359.86237,102.34904 C 361.90101,98.720146 365.83285,94.512019 366.5348,95.207765 367.29999,95.96621 362.71505,101.94131 360.28765,103.34904 359.09781,104.03908 359.01816,103.85179 359.86237,102.34904 z M 376.29001,32.686619 C 377.12778,30.503425 375.85923,26 374.40648,26 373.65827,26 372.27323,27.179555 371.32861,28.621234 369.69142,31.119891 369.69928,31.306943 371.49668,32.621234 373.8692,34.35606 375.64012,34.380217 376.29001,32.686619 z"/>
</svg>
