<?xml version="1.0" encoding="UTF-8"?>
<svg xmlns="http://www.w3.org/2000/svg" viewBox="0 0 6092 172">
  <path d="M 4109.4688,99.375 C 4110.7543,99.156895 4111.8014,99.049447 4114.0938,98.40625 4118.8342,97.076167 4120.5599,95.904223 4124.2812,91.59375 4131.2521,83.519411 4135.6992,73.260523 4141.0312,53 4143.4039,43.984371 4144.8048,21.60806 4143.0625,20.53125 4141.6213,19.640554 4141.1454,21.159846 4140.9375,27.0625 4140.0448,52.418782 4133.4432,75.846417 4123.5312,88.84375 4119.2528,94.45394 4115.8941,96.266747 4109.5625,96.40625 4109.4783,96.408106 4109.4261,96.405147 4109.3438,96.40625 L 4109.4688,99.375 z M 4108.9688,86.9375 C 4110.687,86.957606 4112.4319,86.118614 4114.1562,84.25 4118.8105,79.206387 4122.9226,70.521168 4124.5,62.40625 4127.4627,47.164504 4127.2754,21.001099 4124.1875,21 4123.8177,20.999868 4123.6471,26.687535 4123.8438,33.65625 4124.2718,48.824227 4121.8957,66.100144 4118.4062,73.09375 4115.0394,79.841765 4111.6787,83.550695 4108.8438,83.90625 L 4108.9688,86.9375 z M 4134.1562,21.21875 C 4133.4436,21.417729 4133.0734,25.00701 4132.5625,34.5 4131.5251,53.77597 4129.6389,63.143618 4124.3438,74.875 4122.513,78.931163 4121,82.46658 4121,82.71875 4121,82.970919 4121.5625,82.986741 4122.25,82.78125 4124.6765,82.055968 4130.8371,67.410791 4132.5,58.375 4134.5847,47.04707 4136.1543,24.117795 4135,22.0625 4134.6669,21.469441 4134.3938,21.152424 4134.1562,21.21875 z"/>
</svg>
