<?xml version="1.0" encoding="UTF-8"?>
<svg xmlns="http://www.w3.org/2000/svg" viewBox="0 0 6092 172">
  <path d="M 2062.2119,102.78882 C 2057.0889,101.43995 2054.8095,96.950605 2055.2537,89.084252 2055.597,83.002685 2055.8317,82.476984 2059.7592,78.991618 L 2063.9026,75.314731 2064.3719,62.907366 2064.8412,50.5 2060.8206,46.996092 C 2057.4873,44.091131 2056.8,42.862054 2056.8,39.805854 2056.8,31.155377 2065.5535,21 2073.0099,21 2077.4762,21 2081.3227,24.694288 2082.9013,30.5 2085.198,38.947062 2083.4351,44.232774 2077.0199,48.134064 2074.5944,49.609142 2073.9256,50.607603 2074.3293,52.151276 2074.6248,53.281112 2074.3763,59.446781 2073.7772,65.852762 2072.7387,76.957363 2072.7884,77.696149 2074.844,81.710162 2076.1477,84.256067 2077,87.775622 2077,90.613772 2077,94.81811 2076.5773,95.697426 2072.9441,99.051593 2068.2083,103.42366 2066.6647,103.9612 2062.2119,102.78882 z M 2071.3046,97.61513 C 2075.6554,93.629894 2076.0496,90.422917 2072.9211,84.461442 2071.0253,80.848907 2070.8914,79.355015 2071.4008,67.5 2071.708,60.35 2071.9685,52.5875 2071.9797,50.25 2071.9981,46.388754 2072.2287,46 2074.5,46 2077.0897,46 2080.9334,42.937332 2081.0889,40.75 2082.0306,27.502893 2077.0153,20.877639 2068.6815,24.359722 2066.153,25.416197 2064.5403,27.307598 2062.0149,32.17839 2057.9458,40.026648 2058.2947,42.962889 2063.5953,45.478196 L 2067.2123,47.194559 2066.7008,61.738442 2066.1894,76.282326 2061.9695,79.916805 C 2058.2343,83.133743 2057.692,84.150332 2057.2485,88.765698 2056.8121,93.307512 2057.0928,94.432854 2059.4246,97.490056 2062.956,102.11995 2066.3475,102.15565 2071.3046,97.61513 z M 2061.6078,95.702503 C 2059.1425,93.899813 2060.3951,87.641835 2063.8653,84.424065 2067.14,81.387567 2067.3827,81.399826 2070.0056,84.734218 2074.9837,91.062838 2067.9056,100.30753 2061.6078,95.702503 z M 2068.8631,91.840923 C 2069.8976,89.044554 2069.1144,85 2067.5384,85 2065.1204,85 2061.3447,91.130605 2062.5558,93.090242 2063.6849,94.917173 2068.0446,94.053628 2068.8631,91.840923 z M 2067.6182,40.710116 C 2066.3391,39.774754 2065.943,38.35964 2066.1771,35.561393 2066.5862,30.671794 2068.6462,29.243427 2072.5786,31.122628 2076.0473,32.780262 2076.8234,36.094347 2074.5541,39.557816 2072.7827,42.261272 2070.303,42.673246 2067.6182,40.710116 z M 2073.6163,37.392666 C 2074.3925,34.299891 2072.4959,32.664257 2069.8039,34.104959 2068.0219,35.058653 2067.3734,38.040072 2068.6667,39.333333 2070.2703,40.936917 2072.9949,39.868641 2073.6163,37.392666 z"/>
</svg>
