<?xml version="1.0" encoding="UTF-8"?>
<svg xmlns="http://www.w3.org/2000/svg" viewBox="0 0 6092 172">
  <path d="M 4506.5124,100.81204 C 4501.2119,97.672247 4497.997,90.987424 4498.0076,83.127876 4498.0158,77.111528 4500.6417,67.108028 4503.4693,62.321275 4505.0761,59.60115 4505.085,59.025404 4503.5979,54.017745 4500.8219,44.670047 4502.2031,33.705551 4507.0471,26.636228 4512.5173,18.652943 4521.5846,17.599616 4516.3734,25.552801 4515.319,27.16202 4514.5712,31.116818 4514.2474,36.79577 4513.8237,44.226203 4514.0632,46.248391 4515.8244,50.114625 4516.9665,52.621701 4518.5983,55.251632 4519.4505,55.958917 4521.4974,57.657703 4521.419,58.362415 4518.6926,62.769872 4514.8289,69.015738 4512.4505,76.794652 4512.8893,81.75 4513.0678,83.766059 4516.249,83.19483 4520.3456,80.411103 4524.7755,77.400907 4526.3389,77.945924 4523.1157,81.37682 4519.6652,85.049764 4513.3995,87.576451 4511.5494,86.041031 4507.8468,82.968115 4509.7305,72.036307 4515.7055,61.921335 4517.1447,59.485035 4517.2343,58.642247 4516.2049,57.226031 4511.8294,51.206714 4510.7184,46.748156 4511.3559,37.766331 4511.7008,32.908418 4512.6733,27.598666 4513.5171,25.966881 4515.2266,22.661182 4515.1083,22.537894 4511.7123,24.085212 4507.0179,26.224132 4505.5414,30.501222 4505.528,42 4505.5186,50.091752 4505.9137,53.230881 4507.2508,55.686655 4508.8719,58.664086 4508.7533,62 4507.0263,62 4505.3005,62 4501.7516,72.87242 4501.3142,79.5 4500.9033,85.72498 4501.1649,87.108944 4503.6768,92 4506.4544,97.40832 4506.5817,97.505125 4511.3163,97.807469 4516.9012,98.164115 4523.3685,95.477674 4527.9469,90.899268 4531.1889,87.657221 4532,87.356484 4532,89.396408 4532,91.36583 4525.3639,96.958191 4520.5508,99.044887 4514.9344,101.47985 4508.9182,102.23716 4506.5124,100.81204 z M 4519.0258,90.25 C 4519.0536,89.4401 4528.1977,83 4529.3199,83 4531.1167,83 4529.5968,85.123481 4525.803,87.91349 4521.7788,90.872901 4518.9711,91.840895 4519.0258,90.25 z"/>
</svg>
