<?xml version="1.0" encoding="UTF-8"?>
<svg xmlns="http://www.w3.org/2000/svg" viewBox="0 0 6005 172">
  <path d="M 5616.3438,94.6875 C 5621.8584,95.126684 5622.9185,94.959961 5625.6562,92.65625 5629.7801,89.186272 5634.0194,80.071945 5634,74.71875 5633.9648,65.009348 5629.6857,65.942533 5624.3125,76.8125 5621.3654,82.774541 5619.9563,84.58464 5618.125,84.84375 5617.4875,84.933951 5617.0894,84.848135 5616.625,84.8125 L 5616.5625,87.40625 C 5617.9063,87.639738 5619.1108,87.759066 5619.7188,87.5625 5621.7439,86.907722 5625.9945,81.080038 5626,78.9375 5626.0021,78.146534 5626.9478,75.973509 5628.0938,74.09375 5629.7226,71.421683 5630.3609,70.985327 5631.0625,72.09375 5632.5371,74.423383 5632.125,77.345648 5629.5938,82.5625 5625.938,90.097 5622.403,92.65916 5616.4375,91.9375 L 5616.3438,94.6875 z M 5575.75,87.375 5580,94.65625 5580.0312,95.1875 C 5580.069,95.223912 5580.0859,95.210863 5580.125,95.25 5580.9023,96.027246 5582.216,96.930029 5583.0312,97.25 5583.8464,97.569972 5584.5424,97.862829 5584.5938,97.90625 5584.6451,97.949671 5587.2691,97.121358 5590.4375,96.03125 L 5596.2188,94.03125 5598.0625,96.28125 C 5599.0869,97.508858 5599.9505,98.011677 5599.9688,97.40625 5599.9994,96.390851 5598.0017,89.990497 5597.6562,90 5597.5725,90.002302 5595.2994,91.127302 5592.5938,92.5 5586.5663,95.557948 5584.2928,95.631464 5581.875,92.84375 5579.2265,89.78998 5579.5375,89 5583.375,89 5590.3351,89 5598,79.841004 5598,71.53125 5598,66.425925 5596.1897,62.533351 5592.9062,60.59375 5589.2702,58.445815 5586.3353,59.003417 5582.0312,62.625 5580.3156,64.068598 5578.6524,64.964892 5578.3125,64.625 5577.3562,63.66867 5579.767,56.566092 5582.0312,53.6875 5583.9875,51.200448 5584.205,51.172062 5587.9688,52.5 5590.1168,53.257847 5593.7068,54.912968 5595.9688,56.1875 5599.9495,58.430429 5600.1516,58.425377 5601.5,56.625 5603.3233,54.190536 5605.0673,45.954345 5604.3438,43.1875 5603.8998,41.49025 5603.0095,41 5600.3438,41 5596.0365,41 5590.1483,38.596521 5589.3438,36.5 5588.684,34.780681 5591.2077,28.21889 5594.25,23.75 5597.2451,19.350573 5599.4873,20.182909 5602.6875,26.9375 5604.2379,30.209889 5606.1064,32.909889 5606.8438,32.9375 5607.581,32.965112 5610.506,31.025093 5613.3438,28.625 5622.6788,20.72957 5626.2751,19.994249 5628.5625,25.46875 5631.1322,31.618754 5630.1018,36.237401 5627,32.5 5625.1955,30.325695 5622.4712,30.644922 5618.0625,33.5625 5611.9077,37.635553 5611.9245,41.241507 5618.0625,46.40625 5621.0832,48.948052 5625,49.891029 5625,48.09375 5625,47.600986 5622.8625,45.348355 5620.25,43.09375 L 5615.5,39 5618.3125,36.5 C 5622.0567,33.157451 5624.6878,33.3217 5626.7812,37 5627.7181,38.646219 5628.9175,39.857057 5629.4375,39.6875 5632.3873,38.725673 5632.3718,26.713463 5629.4062,22.1875 5627.1239,18.704006 5622.4888,19.75924 5614.3125,25.59375 5607.0333,30.78807 5607.8409,30.952488 5604.0312,23.53125 5603.1899,21.892395 5601.2429,19.867395 5599.6875,19.03125 5596.9229,17.544993 5596.7816,17.593772 5593.5312,21.3125 5590.154,25.176663 5587,32.882157 5587,37.3125 5587,40.69732 5588.8192,41.914597 5596,43.25 L 5602.2188,44.40625 5601.7188,48.78125 C 5601.4466,51.195967 5600.8293,53.576849 5600.3438,54.0625 5599.833,54.573169 5597.349,53.910378 5594.4688,52.5 5587.6823,49.176688 5584.5158,49.287603 5581.125,53 5578.729,55.623315 5574,67.456631 5574,70.8125 5574,73.15243 5576.3569,71.907392 5581.1875,67 5586.7679,61.330891 5590.0335,60.594392 5592.5312,64.40625 5596.5353,70.517273 5595.0386,80.768445 5589.6875,84.03125 5587.9279,85.10411 5584.9484,85.997944 5583.0625,86 5581.1765,86.002056 5578.1321,86.549462 5576.2812,87.21875 5576.0649,87.296967 5575.9418,87.308922 5575.75,87.375 z M 5616.3438,94.6875 5616.4375,91.9375 C 5615.0283,91.767024 5613.6063,91.570075 5611.875,91.03125 5608.6356,90.023037 5605.7365,89.609948 5605.4375,90.09375 5605.1385,90.577553 5605.1996,92.534394 5605.5625,94.46875 5606.2584,98.178197 5609,99.453035 5609,96.0625 5609,94.275305 5609.5471,94.164854 5615.7812,94.6875 5616.0659,94.711365 5616.0812,94.666589 5616.3438,94.6875 z M 5616.5625,87.40625 5616.625,84.8125 C 5614.1863,84.625383 5613.9276,82.614222 5615.4688,76.46875 5617.3329,69.035651 5617.0057,66.364872 5613.5938,61.34375 5609.6793,55.583107 5612.4578,50.103551 5617.5938,53.46875 5620.508,55.37817 5621,55.371253 5621,53.4375 5621,51.40349 5614.0547,48.47026 5612.125,49.6875 5611.3367,50.184712 5610.1164,52.563796 5609.4062,54.96875 5608.1939,59.07465 5608.2524,59.522334 5610.4688,62.15625 5614.7632,67.260024 5614.8571,74.052087 5610.75,80.8125 5609.6205,82.671673 5609.1345,84.486583 5609.625,84.9375 5610.6771,85.904634 5613.9282,86.948525 5616.5625,87.40625 z"/>
</svg>
