<?xml version="1.0" encoding="UTF-8"?>
<svg xmlns="http://www.w3.org/2000/svg" viewBox="0 0 6005 172">
  <path d="M 5234.146,97.25 C 5232.573,94.271832 5234.472,86.202849 5237.8858,81.359742 L 5241.0699,76.8423 5238.285,71.17115 C 5235.7237,65.955509 5235.5144,64.656636 5235.6797,55 5235.8309,46.162463 5236.3272,43.207172 5238.8143,36.334592 5241.8022,28.077838 5246.2412,21 5248.4316,21 5250.1704,21 5254.5063,25.884468 5256.8646,30.5 5261.4669,39.507586 5262.5821,61.984871 5258.9685,72.907623 5256.9397,79.040101 5256.92,79.502112 5258.5106,83.667045 5260.2976,88.346011 5259.8919,94.397988 5257.5794,97.560542 5255.9124,99.840273 5254.6724,98.960572 5252.2259,93.762749 5247.7584,84.270937 5244.2606,84.17841 5239.5806,93.42824 5236.5781,99.362667 5235.6184,100.03754 5234.146,97.25 z M 5256.7012,88.75 C 5256.426,86.4125 5255.6181,82.607316 5254.9056,80.294035 5253.7616,76.579195 5253.8101,75.867287 5255.3214,74.197309 5256.4035,73.001645 5257.446,69.103648 5258.1572,63.594202 5259.5231,53.01321 5258.7008,51.391057 5253.9836,55.360337 5249.9846,58.725266 5248.6424,58.67682 5244,55 5241.9167,53.35 5239.7144,52 5239.1061,52 5236.2013,52 5239.5645,69.531732 5243.5955,75.402364 5244.749,77.08235 5244.4399,77.829406 5240.9509,81.793154 5238.1016,85.030054 5237.0146,87.148533 5237.0525,89.39079 L 5237.1049,92.5 5238.8025,90.021707 C 5243.7105,82.856312 5247.2058,82.192462 5251.8964,87.534796 5253.6034,89.478934 5255,91.503934 5255,92.034796 5255,92.565658 5255.4953,93 5256.1007,93 5256.8074,93 5257.0223,91.478841 5256.7012,88.75 z M 5253.803,52.91349 C 5256.9236,50.618585 5257.9961,49.143866 5257.9847,47.16349 5257.957,42.340038 5256.6472,41.584538 5253.2575,44.436751 5249.5565,47.55099 5249.5315,47.551919 5244.2815,44.77123 5241.0026,43.03454 5239.7961,42.803932 5238.8642,43.735826 5238.0638,44.536179 5237.9702,45.578505 5238.5826,46.871225 5239.5157,48.840853 5247.6051,56 5248.8976,56 5249.2872,56 5251.4946,54.61107 5253.803,52.91349 z M 5253.8376,41.25 C 5256.962,38.616082 5257.0487,38.352259 5255.8913,35 5254.2241,30.171442 5249.078,22.815557 5247.6643,23.240139 5246.0415,23.727486 5242.0368,31.998093 5241.3378,36.305747 5240.81,39.558378 5241.0625,40.067853 5244.1287,41.937217 5248.556,44.63633 5249.9366,44.538605 5253.8376,41.25 z"/>
</svg>
