<?xml version="1.0" encoding="UTF-8"?>
<svg xmlns="http://www.w3.org/2000/svg" viewBox="0 0 6005 172">
  <path d="M 2599,101.16002 C 2599,100.52755 2601.1971,97.28347 2603.8825,93.950957 2608.2436,88.538826 2608.6831,87.550586 2607.9977,84.695921 2606.5694,78.745991 2605.8737,77.790994 2603.323,78.27859 2601.1121,78.701223 2601.0483,78.604118 2602.4899,77.011176 2604.8801,74.369981 2603.5237,64.370219 2600.6741,63.625034 2599.5356,63.327301 2598.0182,63.569969 2597.302,64.164296 2596.3617,64.944694 2596,64.927112 2596,64.101006 2596,63.47187 2597.0904,62.460309 2598.4231,61.853092 2601.1603,60.605927 2601.621,59.267647 2602.5894,49.75 2603.2138,43.612897 2603.1091,43 2601.4357,43 2600.4234,43 2598.118,44.431741 2596.3126,46.181647 2594.5071,47.931553 2592.7622,49.095578 2592.435,48.768369 2591.3761,47.709477 2599.4272,41.054971 2601.801,41.027058 2603.4897,41.007201 2604.5059,40.03354 2605.6194,37.368404 2607.5349,32.784085 2606.4449,31.524118 2600.738,31.725574 L 2596.5,31.875175 2599.7875,30.47009 C 2601.5956,29.697293 2604.3445,29.318907 2605.8962,29.629233 2608.331,30.116198 2609.0264,29.693375 2610.9743,26.541549 2613.1629,23.000398 2613.1747,22.84678 2611.3657,21.476621 2610.3395,20.699463 2609.0725,20.049295 2608.55,20.031803 2608.0275,20.014312 2608.1169,19.483106 2608.7487,18.851347 2609.6135,17.986475 2610.5358,18.121031 2612.4816,19.395984 2614.9412,21.007608 2615.2044,20.990663 2617.9373,19.044637 2619.5166,17.920087 2621.6955,17 2622.7794,17 2623.8632,17 2626.1022,16.729553 2627.755,16.399006 2630.17,15.916006 2630.6556,15.398891 2630.2283,13.765125 2629.2446,10.003271 2632.2721,12.423146 2633.6964,16.537124 2635.0294,20.387407 2640.4845,27 2642.3278,27 2642.8424,27 2643.0219,25.2 2642.7268,23 2642.3395,20.112417 2642.5513,19 2643.4882,19 2646.0038,19 2646.8531,25.033573 2644.9312,29.25157 2644.0716,31.138359 2644.3408,32.663706 2646.3074,37.048623 L 2648.7523,42.5 2650.0691,39.5 2651.3858,36.5 2651.7529,39.183603 C 2651.9548,40.659585 2651.4663,43.134585 2650.6674,44.683603 2649.4158,47.110233 2648.4592,54.632098 2648.871,58.809017 2649.0764,60.892748 2650.8562,59.202182 2653.1118,54.780884 2654.6248,51.815072 2655.4229,51.066237 2656.0277,52.044851 2657.1301,53.828565 2655.6236,56.608684 2650.884,61.537088 2647.3502,65.211591 2643,72.219193 2643,74.237122 2643,74.684953 2644.3805,74.337473 2646.0678,73.464944 2647.7551,72.592415 2649.6664,72.055459 2650.3151,72.271709 2650.9639,72.487959 2650.3709,73.257146 2648.9973,73.981014 2647.6238,74.704881 2645.228,76.355281 2643.6733,77.648568 2642.1186,78.941856 2640.1432,80 2639.2835,80 2638.4238,80 2637.1227,80.7875 2636.392,81.75 2635.1529,83.382398 2635.0615,83.359122 2635.0318,81.403638 2635.0143,80.250639 2635.7708,77.775639 2636.7128,75.903638 2639.5449,70.275635 2639.7274,54.753326 2637.0644,45.986031 2634.4256,37.2983 2629.6282,31.348468 2626.1517,32.451866 2620.8841,34.123728 2614.9877,49.431655 2615.0184,61.355335 2615.0388,69.270426 2617.3376,83.847071 2619.1077,87.285649 2619.7346,88.503542 2622.0064,91.8625 2624.1562,94.75 2628.341,100.37095 2627.2328,102.20817 2622.9498,96.749971 2617.8219,90.214927 2615.8111,85.844458 2614.6679,78.749184 2613.0215,68.530275 2613.1718,50.518794 2614.9495,45 2617.7488,36.309722 2623.1715,29.951176 2627.7148,30.031601 2631.059,30.0908 2635.0119,34.878666 2638.1152,42.628743 2640.8376,49.42757 2641.194,51.472393 2641.1734,60.17485 2641.1599,65.858215 2641.5358,69.786882 2642.0619,69.461741 2642.5634,69.151797 2643.7147,66.349486 2644.6202,63.234384 2647.254,54.174704 2646.0273,42.463119 2641.4811,33.264679 2639.5112,29.278718 2636.7542,25.226044 2635.3544,24.258738 2633.9547,23.291432 2631.9523,21.7125 2630.9047,20.75 2629.7351,19.675358 2627.4117,19 2624.8845,19 2621.3289,19 2620.2315,19.578278 2616.8191,23.25 2611.8356,28.612226 2608.7069,34.696146 2606.6295,43.063889 2603.6596,55.026922 2604.6284,65.947096 2610.1101,82.298709 L 2612.0541,88.097419 2608.415,92.538465 C 2606.4135,94.98104 2604.3763,96.732563 2603.8879,96.430738 2603.3996,96.128914 2603,96.513779 2603,97.285995 2603,98.058212 2602.1,99.504514 2601,100.5 2599.8754,101.51771 2599,101.80662 2599,101.16002 z M 2618.408,101.5 C 2616.4473,98.507568 2614.366,98.367089 2611,101 2606.9381,104.17727 2606.3384,103.27778 2610,99.5 2611.8658,97.575 2614.3449,96 2615.5091,96 2617.7437,96 2623,100.77475 2623,102.80472 2623,104.90826 2620.1016,104.08475 2618.408,101.5 z"/>
</svg>
