<?xml version="1.0" encoding="UTF-8"?>
<svg xmlns="http://www.w3.org/2000/svg" viewBox="0 0 6005 172">
  <path d="M 4980.1562,91.875 4978.9062,88.09375 C 4978.9425,88.303864 4979,88.486588 4979,88.78125 4979,90.039661 4977.624,91.623443 4975.3438,92.96875 4968.7588,96.853938 4966.7137,96.695485 4961.6875,92.0625 L 4957.2188,87.9375 4953.5625,90.09375 C 4951.5554,91.277961 4949.6646,92.008386 4949.375,91.71875 4949.0854,91.429113 4949.3335,89.459796 4949.9062,87.34375 4954.379,70.820872 4955.1733,65.199563 4955.2188,49.96875 4955.2444,41.422464 4954.9485,33.434964 4954.5625,32.21875 4953.3657,28.448146 4955.8422,29.725202 4957.5312,33.75 4960.5793,41.013221 4962.0913,51.354548 4962.1875,66 4962.2399,73.975 4962.6417,81.476343 4963.0938,82.6875 4964.3894,86.159549 4969.3498,88.219192 4974.5625,87.4375 4977.3695,87.016555 4978.369,87.001373 4978.75,87.625 L 4977.3438,83.34375 4976.9375,82.46875 4976.7188,85 4972.7812,85 C 4965.3251,85 4965.4068,85.132247 4964.625,65.875 4963.784,45.155763 4961.1416,33.165596 4955.8438,26 4952.3332,21.251695 4950.7603,22.037195 4951.4062,28.25 4952.7597,41.265725 4953.0701,58.992013 4952.0625,65.5 4951.4664,69.35 4949.8145,77.572567 4948.375,83.78125 4946.9355,89.989933 4946.0551,95.398909 4946.4375,95.78125 4946.8198,96.163591 4948.8654,95.447274 4951,94.21875 4955.5744,91.58607 4958.8271,91.382707 4959.6875,93.625 4960.0276,94.51116 4961.701,95.820189 4963.4062,96.5625 4965.1114,97.304811 4967.0756,97.947222 4967.7812,97.96875 4969.4713,98.020301 4978.6786,93.329149 4979.5,92 4979.612,91.818792 4979.9284,91.909701 4980.1562,91.875 z"/>
</svg>
