<?xml version="1.0" encoding="UTF-8"?>
<svg xmlns="http://www.w3.org/2000/svg" viewBox="0 0 6005 172">
  <path d="M 2907.8549,98.54739 C 2903.6311,95.677204 2899,88.303205 2899,84.447791 2899,82.964953 2900.575,78.263447 2902.5,74 2904.425,69.736553 2906,65.696292 2906,65.021643 2906,64.346994 2904.65,59.765529 2903,54.840608 2901.35,49.915687 2900,44.384211 2900,42.548439 2900,36.523221 2903.8816,26.136863 2907.7219,21.886101 2910.8277,18.448285 2911.8189,17.940056 2914.9122,18.199302 2918.1129,18.467558 2918.6448,18.931556 2919.8425,22.5 2921.4667,27.339365 2920.7462,39.278398 2918.5064,44.638931 2917.4273,47.221475 2917.0618,51.057047 2917.2438,57.886932 2917.4682,66.307331 2917.2012,68.120337 2915.0913,72.5 2911.4349,80.089971 2911.2185,86.471909 2914.3903,93.176466 2915.8256,96.21055 2917,99.212062 2917,99.846491 2917,101.8592 2911.5998,101.09207 2907.8549,98.54739 z M 2913,96.328741 C 2913,95.959548 2912.3263,94.913058 2911.5029,94.003208 2910.6795,93.093358 2909.7257,89.669126 2909.3834,86.393804 2908.8554,81.342109 2909.1726,79.409605 2911.4747,73.655423 2913.7323,68.012269 2914.2189,65.160146 2914.3698,56.686087 2914.4828,50.342545 2915.2424,44.068853 2916.3833,40.055347 2918.508,32.581396 2918.1981,23.769489 2915.7235,21.294923 2914.2521,19.823536 2913.9004,19.835241 2911.4559,21.436949 2909.9371,22.432087 2907.5468,25.928228 2905.8959,29.5693 2901.9909,38.181568 2902.0172,44.473857 2906,54.5 2909.6053,63.575734 2909.6997,67.213883 2906.4673,72.5 2902.9436,78.26245 2902,80.733045 2902,84.197066 2902,87.677002 2905.1193,93.269716 2908.3045,95.500745 2910.5277,97.057949 2913,97.493904 2913,96.328741 z"/>
</svg>
