<?xml version="1.0" encoding="UTF-8"?>
<svg xmlns="http://www.w3.org/2000/svg" viewBox="0 0 6005 172">
  <path d="M 5651.5834,90.796177 C 5650.8057,85.932888 5647.798,80.415974 5644.2743,77.389488 L 5641.817,75.278975 5643.9128,71.389488 C 5645.0655,69.250269 5646.9863,66.27347 5648.1813,64.774378 5650.2537,62.174667 5650.2737,61.959886 5648.6131,60.124933 5646.1584,57.412531 5644.3392,49.551657 5644.5342,42.5 5644.7281,35.493411 5647.7826,26.882646 5651.7677,22.109219 L 5654.5627,18.761189 5657.7306,21.426757 C 5665.2574,27.760158 5668.7516,42.627115 5665.6014,54.91508 L 5663.9568,61.330161 5666.7284,65.216619 C 5668.2528,67.354171 5669.899,69.677624 5670.3866,70.379849 5670.9768,71.229817 5669.8736,73.970434 5667.0863,78.578311 5663.2165,84.975737 5662.9494,85.868873 5663.56,90.37012 5664.0839,94.231751 5663.9398,95.146589 5662.864,94.787991 5660.5179,94.005975 5659.8905,86.975657 5661.7674,82.5 5662.69,80.3 5663.6926,78.275 5663.9955,78 5664.2984,77.725 5665.3544,76.230923 5666.3421,74.679828 5668.0398,72.014015 5668.0449,71.712979 5666.4367,69.179828 5665.5009,67.705923 5663.8212,65.492553 5662.7039,64.261229 5660.8107,62.174839 5660.7687,61.732417 5662.0862,57.761229 5662.8858,55.351179 5663.4753,49.807398 5663.4432,45 5663.3953,37.838147 5662.9505,35.594007 5660.6182,30.74507 5657.2249,23.690288 5654.7192,21.970955 5652.5855,25.233085 5649.3654,30.155929 5648.0165,35.19844 5647.7688,43.238588 5647.5392,50.6922 5647.8105,52.182096 5650.2556,56.894775 5651.765,59.804164 5653,62.550468 5653,62.997673 5653,63.444878 5651.425,65.695925 5649.5,68 5647.575,70.304075 5646,72.733 5646,73.397611 5646,74.062222 5647.3525,76.445067 5649.0055,78.692823 5652.6453,83.642193 5655.0503,90.091663 5654.3107,92.919813 5653.445,96.230305 5652.3112,95.347444 5651.5834,90.796177 z"/>
</svg>
