<?xml version="1.0" encoding="UTF-8"?>
<svg xmlns="http://www.w3.org/2000/svg" viewBox="0 0 6005 172">
  <path d="M 4668,48.5 4668,53.3125 C 4669.0562,52.90741 4670.9288,53.561739 4673.7812,55.5 4675.8048,56.875 4678.0083,58 4678.6562,58 4679.3042,58 4682.0918,56.2 4684.875,54 4687.6582,51.8 4690.6357,50 4691.4688,50 4692.3017,50 4695.2069,51.382329 4697.9375,53.0625 4700.6682,54.742671 4704.1599,56.205171 4705.6875,56.3125 4708.2516,56.492652 4708.5192,56.154291 4709.1562,52 4709.5739,49.27625 4709.2515,44.189531 4708.3438,39.125 L 4706.8438,30.75 4710.125,27.375 C 4711.9282,25.514506 4713.6329,24.015128 4713.9375,24.03125 4714.2421,24.047373 4715.9901,25.405178 4717.8125,27.0625 4720.9686,29.932735 4721.0793,30.259884 4719.9688,33.625 4718.606,37.753942 4719.6367,57 4721.2188,57 4721.762,57 4723.5046,56.060096 4725.125,54.90625 4728.6939,52.364996 4731.2451,52.817571 4736.4688,56.96875 4738.5607,58.631178 4740.8724,60 4741.5938,60 4743.2595,60 4747.2049,54.559924 4748.8438,50 4749.5355,48.075 4750.3635,43.519439 4750.6875,39.875 L 4751.2812,33.25 4747,28.625 C 4743.2569,24.564262 4740,22.720129 4740,24.65625 4740,25.011712 4742.05,27.501424 4744.5625,30.1875 L 4749.125,35.0625 4748.4375,40.78125 C 4747.7747,46.210618 4743.7899,55.970753 4742.2188,56.03125 4741.8155,56.046776 4738.7595,54.61543 4735.4062,52.84375 L 4729.3125,49.625 4726.4062,51.90625 4723.5,54.1875 4722.8125,49.84375 C 4721.7134,42.777329 4721.9781,34.674932 4723.375,32.15625 4724.5831,29.977871 4724.3323,29.450353 4719.9062,24.90625 4717.2809,22.210875 4714.7278,20 4714.25,20 4713.7722,20 4711.8658,21.575 4710,23.5 4705.9637,27.664384 4704.6296,27.794597 4699.7812,24.5 4697.7577,23.125 4695.4286,22 4694.5938,22 4690.8797,22 4689.6199,31.619803 4692.9062,34.90625 4694.7247,36.724643 4695.0229,36.741221 4699.3438,35.1875 4701.8383,34.290443 4704.1776,33.833884 4704.5312,34.1875 4705.6831,35.339314 4706.9443,42.38052 4706.9688,47.75 4706.9977,54.10753 4706.0583,54.353786 4698.3438,50 4695.4201,48.35 4692.4607,47 4691.75,47 4691.0394,47 4688.0219,48.807615 4685.0625,51.03125 4682.1031,53.254885 4679.1945,54.943901 4678.5938,54.78125 4677.993,54.618599 4675.1341,53.148484 4672.25,51.5 4670.1709,50.311654 4668.9429,49.430724 4668,48.5 z M 4761.0625,21.09375 C 4760.4623,21.108109 4759.0819,21.90591 4757.1875,23.5 4755.5534,24.875 4753.5652,26 4752.7812,26 4751.9973,26 4750.3831,24.875 4749.1875,23.5 4746.9252,20.898099 4745,20.239407 4745,22.0625 4745,22.644751 4746.4141,24.894751 4748.1562,27.0625 4749.8983,29.230249 4751.5403,31 4751.7812,31 4752.5919,31 4758.3232,25.887072 4760.25,23.4375 4761.4916,21.859027 4761.6627,21.079391 4761.0625,21.09375 z M 4694.5,24.6875 C 4694.8636,24.471043 4695.3851,24.659902 4696.3125,25.15625 4698.3913,26.268813 4701.9048,29.960391 4701.9688,31.09375 4701.9871,31.417967 4700.8384,32.205467 4699.4375,32.84375 4698.0367,33.482033 4696.4752,34 4695.9375,34 4694.448,34 4693.1443,29.723531 4693.7188,26.71875 4693.9449,25.535666 4694.1364,24.903957 4694.5,24.6875 z M 4668,57.09375 4668,60.65625 4668.25,62.0625 C 4669.1273,61.316788 4670.5781,62.157149 4673.2812,64.0625 4678.7492,67.916602 4680.3904,67.670108 4687.9062,62.0625 4692.4711,58.656745 4693.5779,58.242429 4695.3438,59.1875 4701.6443,62.559424 4705.9322,73.823502 4703.4062,80.40625 4702.5639,82.601153 4695.9016,82.490247 4692.875,80.21875 4689.6706,77.813883 4685.3566,76 4682.8125,76 4675.6547,76 4666.6031,88.207319 4669.0312,94.59375 4670.3038,97.940868 4671.3563,97.639519 4676.0938,92.5 4678.3751,90.025 4681.1412,88 4682.2188,88 4683.2962,88 4686.1379,89.40625 4688.5312,91.125 4694.0462,95.085564 4696.7955,95.062616 4703.2812,90.96875 4709.4145,87.097412 4713.9466,86.696051 4717.2188,89.71875 4718.4713,90.875834 4722.2,93.183725 4725.5,94.875 4728.8,96.566275 4732.6411,97.957108 4734.0312,97.96875 4736.7718,97.991701 4740.7314,95.679615 4742.8125,92.8125 4744.5066,90.4785 4747.1461,90.523721 4752,93 4756.9198,95.509882 4762.7802,95.539998 4765.75,93.0625 4769.5356,89.904447 4768.4506,87.590454 4764.5625,90.53125 4761.9428,92.512678 4759.0374,92.379725 4753,90 4746.3105,87.363243 4745.8882,87.416031 4741,91.5 4738.5955,93.508898 4735.7277,95 4734.25,95 4731.888,95 4722.5732,90.465413 4719,87.5625 4718.175,86.892268 4716.0736,85.758901 4714.3125,85.0625 4711.3286,83.882618 4710.6809,84.050232 4705.1562,87.40625 4697.9012,91.813473 4695.0658,91.90329 4689.5,87.90625 4684.3083,84.177809 4680.3173,84.528893 4676.25,89.09375 4673.8807,91.752862 4671,92.971372 4671,91.3125 4671,88.959944 4675.5123,82.143928 4678.3125,80.25 4682.7371,77.257465 4684.082,77.386534 4691.4375,81.5 4698.0067,85.173706 4702.9614,85.937217 4704.9062,83.59375 4706.9153,81.173146 4707.2839,72.870973 4705.5938,68.1875 4703.8281,63.294449 4696.8147,56 4693.875,56 4692.7963,56 4689.4637,57.863765 4686.4688,60.125 4680.2389,64.828616 4678.5481,64.812825 4672.5312,60.03125 4670.4981,58.415471 4668.5485,57.167133 4668,57.09375 z M 4767.4688,24.375 C 4767.2274,24.380363 4766.7747,24.589812 4766.125,24.9375 4762.4439,26.907539 4756,35.914582 4756,39.09375 4756,45.056583 4748.5799,63.018939 4745.375,64.8125 4743.0999,66.085699 4740.2145,65.205937 4735.5625,61.84375 4733.3916,60.274787 4731.0483,59 4730.375,59 4729.7018,59 4727.1122,61.075329 4724.5938,63.59375 4720.9504,67.237112 4720,68.85655 4720,71.5625 4720,76.9859 4722.8869,82.852452 4726.875,85.5625 4728.8566,86.908999 4731.584,88.002056 4732.9688,88 4735.9227,87.995615 4741.8008,84.647788 4742.625,82.5 4743.4148,80.441729 4745.4363,80.619623 4749.8438,83.15625 4754.2068,85.667308 4757.5653,85.244821 4761.4375,81.65625 4764.6787,78.652396 4763.5967,77.447938 4759.9688,80.03125 4756.4793,82.516028 4754.3368,82.510793 4750.2188,80 4745.7345,77.26597 4744.4811,77.456443 4740.4375,81.5 4735.5188,86.418711 4731.9014,86.285475 4726.8438,80.96875 4721.7593,75.623881 4721.5169,70.743964 4726.0938,65.53125 4727.8008,63.587112 4729.5749,62 4730.0312,62 4730.4878,62 4733.0384,63.310949 4735.6875,64.90625 4740.9695,68.087216 4744.9602,69.315598 4746.5,68.21875 4750.6757,65.244425 4757.4046,50.238843 4759.0625,40.15625 4759.6732,36.442235 4760.9529,33.532772 4763.2812,30.65625 4766.9737,26.09453 4768.1928,24.358911 4767.4688,24.375 z M 4765.2188,84 C 4763.3818,84 4761,85.17314 4761,86.09375 4761,87.524561 4763.6414,87.13697 4765,85.5 4765.7538,84.591767 4765.8489,84 4765.2188,84 z"/>
</svg>
