<?xml version="1.0" encoding="UTF-8"?>
<svg xmlns="http://www.w3.org/2000/svg" viewBox="0 0 6005 172">
  <path d="M 2577.7812,18.375 C 2575.5143,18.241767 2572.3032,19.591487 2566.9375,22.375 2562.0318,24.919911 2557.1804,27 2556.1562,27 2555.1321,27 2552.2658,25.459555 2549.7812,23.5625 2543.331,18.637273 2540.8256,18.211785 2537.7188,21.5625 2534.3399,25.206398 2532.3511,32.261258 2533.8125,35.46875 2535.2451,38.613008 2540.8487,40.262072 2544.9375,38.71875 2546.5717,38.101881 2548.2317,37.919175 2548.625,38.3125 2549.5758,39.26333 2549.6884,54.655321 2548.75,55.59375 2548.3463,55.997437 2545.313,54.892905 2542,53.15625 2538.6869,51.419595 2535.104,50 2534.0312,50 2530.8335,50 2525.7587,55.326885 2521.5,63.15625 2517.668,70.201132 2517.5152,70.877982 2517.5312,79.5 2517.5491,89.139429 2519.821,96.204078 2523.125,96.8125 2525.1557,97.186463 2526.1883,94.664981 2525.1562,91.875 2524.072,88.943803 2525.639,77.230909 2527.6875,73 2529.6099,69.029361 2533.8929,64 2535.3438,64 2537.2699,64 2542.7584,68.977617 2543.3125,71.21875 2543.6246,72.480734 2544.5304,76.28132 2545.3125,79.6875 L 2546.7188,85.875 2543.8438,88.65625 C 2540.1671,92.178694 2538.159,98.288123 2539.9688,100.46875 2541.7108,102.56781 2542.1692,102.43973 2545.1875,99 2548.6262,95.081118 2553.1139,94.937661 2556.5312,98.625 2559.8095,102.1624 2562.4261,101.23325 2561.4688,96.875 2561.0901,95.150844 2560.0091,91.989327 2559.0625,89.875 2556.6944,84.585696 2557.439,81.329165 2562.5938,74.4375 2565.0252,71.186676 2567.2559,67.716021 2567.5625,66.75 2568.6005,63.479577 2571.7288,64.812635 2574.8438,69.875 2578.8392,76.368603 2579.9933,80.944442 2580,90.25 2580.0043,96.229263 2580.3245,98 2581.4062,98 2582.1775,98 2583.2686,96.65 2583.8438,95 2584.4189,93.35 2584.6263,92 2584.3125,92 2583.9988,92 2584.2924,91.371112 2584.9375,90.59375 2586.2629,88.996747 2586.1934,83.142901 2584.75,71.625 2583.6207,62.613112 2578.14,50 2575.3438,50 2574.4438,50 2571.3483,51.198239 2568.4688,52.65625 2560.6447,56.617918 2559.683,55.801124 2560.4375,45.96875 2561.0725,37.692863 2561.6887,36.429631 2567.0312,32.6875 2572.3863,28.936742 2577,32.278196 2577,39.90625 2577,44.797341 2578.0788,45.618456 2580.7188,42.71875 2585.5892,37.369152 2586.3719,30.471804 2582.9062,23.3125 2581.3621,20.122884 2580.0482,18.508233 2577.7812,18.375 z M 2577.375,19.71875 2579.7188,22.625 C 2581.7162,25.094829 2582.012,26.442488 2581.7812,32 2581.5311,38.027897 2579.9867,40.566864 2579.1562,36.3125 2578.6522,33.729781 2574.1258,28 2572.5938,28 2570.5657,28 2565.5017,30.788143 2563.5,33 2562.5008,34.104087 2561.1184,35 2560.4375,35 2559.7566,35 2558.9275,35.723767 2558.5938,36.59375 2557.566,39.271751 2557.941,57.826144 2559.0312,58.5 2559.5907,58.845706 2562.809,57.750747 2566.1875,56.0625 2574.7927,51.762409 2575.6397,51.945132 2578.5938,58.625 2582.1348,66.631839 2585.3796,89.051451 2583.1875,90.40625 2582.734,90.686542 2581.8358,87.112159 2581.2188,82.5 2579.744,71.476933 2574.7426,62 2570.4062,62 2568.1311,62 2564.4051,66.514411 2558.4375,76.46875 2553.4639,84.765027 2553.1543,85.594375 2554.5312,87.46875 2556.6957,90.415072 2558.3837,93.928795 2557.875,94.4375 2557.6327,94.679784 2555.6534,94.4965 2553.4688,94 2550.0362,93.219834 2548.9909,93.425966 2545.75,95.5625 2542.1545,97.932797 2542,97.951475 2542,96.03125 2542,93.521043 2544.939,90 2547.0312,90 2549.9221,90 2550.8253,88.116167 2549.8125,84.1875 2549.2917,82.167494 2548.6312,79.375 2548.3438,78 2546.6854,70.068097 2540.1661,62 2535.4062,62 2533.0001,62 2529.0821,66.486933 2525.125,73.8125 2523.2533,77.27738 2522.8236,79.630346 2522.8438,85.8125 2522.8648,92.306266 2522.646,93.222689 2521.5625,91.75 2520.8567,90.790811 2519.9835,86.857975 2519.625,83 2519.0966,77.314207 2519.367,74.809233 2521.0625,69.75 2523.341,62.951109 2529.8334,53.496626 2532.875,52.53125 2534.0467,52.159383 2537.4934,53.301118 2541.8125,55.46875 2545.6817,57.410572 2549.2696,59 2549.8125,59 2551.1099,59 2552.4267,49.94096 2552.125,43 2551.8085,35.716177 2550.5292,34.474641 2545.125,36.09375 2536.9574,38.540829 2534.1091,34.740184 2537.5938,26.03125 2538.849,22.89384 2539.7432,22 2541.625,22 2544.0894,22 2550.815,25.721183 2554.625,29.1875 2556.7311,31.103564 2556.7826,31.086323 2560.5938,28.5 2562.7074,27.065651 2567.3493,24.510013 2570.9062,22.8125 L 2577.375,19.71875 z"/>
</svg>
