<?xml version="1.0" encoding="UTF-8"?>
<svg xmlns="http://www.w3.org/2000/svg" viewBox="0 0 6005 172">
  <path d="M 5895.1562,71.96875 C 5894.4643,70.907997 5893.9567,69.640253 5893.7188,67.78125 5893.4176,65.429093 5892.241,57.478039 5891.0938,50.125 5889.9467,42.771961 5889,32.367117 5889,27 5889,15.749555 5888.2746,14.479177 5882.5,15.5625 5878.1415,16.380162 5877.0612,18.581424 5876.9062,26.8125 5876.8198,31.408854 5877.6853,87.166171 5877.9375,93.125 5877.9751,94.013328 5878.9612,95.926703 5880.125,97.40625 5883.5421,101.7503 5886.7751,100.66289 5890.1562,94 5891.678,91.001217 5893.1261,87.757626 5893.4375,86.71875 L 5893.3438,85.34375 5894.1875,79.125 C 5894.1665,79.023849 5894,78.837663 5894,78.75 5894,78.079638 5894.1352,77.70328 5894.4062,77.46875 L 5895.1562,71.96875 z M 5884.4062,18.0625 C 5884.7939,18.170814 5885.1279,18.412643 5885.375,18.8125 5885.6521,19.260923 5886.133,24.323423 5886.4375,30.0625 5886.9299,39.343203 5888.6538,59.610159 5889.3438,64.21875 5889.4855,65.16533 5889.9299,66.242414 5890.3125,66.625 5891.725,68.037464 5890.9378,84.46337 5889.2188,89.40625 5888.1097,92.595604 5886.7276,94.583768 5885.3125,95.09375 5881.0062,96.645731 5880.5052,94.291816 5880.4375,72.59375 5880.403,61.542607 5879.9921,45.895096 5879.5312,37.8125 5878.7919,24.845573 5878.8982,22.816391 5880.375,20.5625 5881.6102,18.677281 5883.2432,17.737559 5884.4062,18.0625 z"/>
</svg>
