<?xml version="1.0" encoding="UTF-8"?>
<svg xmlns="http://www.w3.org/2000/svg" viewBox="0 0 6005 172">
  <path d="M 4359.8696,83.25 C 4359.7979,76.2375 4359.6216,68.475 4359.4777,66 4359.3338,63.525 4358.7599,53.233517 4358.2024,43.130038 4357.1324,23.741425 4356.8589,22.796148 4351.9917,21.665759 4347.8215,20.697242 4346.6022,22.181319 4347.4876,27.148079 4348.5873,33.31672 4348.6813,34.551082 4349.4956,53.5 4350.6553,80.489573 4350.4828,94.416407 4349,93.5 4348.4238,93.143899 4347.9909,87.715233 4347.9785,80.690983 4347.9667,73.985942 4347.3063,58.151478 4346.5109,45.503285 4344.8636,19.306547 4344.8324,19.4487 4352.1663,19.741154 4358.8581,20.008004 4359.2258,20.882099 4360.1431,38.700593 4361.926,73.334173 4362.3211,96 4361.1417,96 4360.3526,96 4359.9597,92.062366 4359.8696,83.25 z"/>
</svg>
