<?xml version="1.0" encoding="UTF-8"?>
<svg xmlns="http://www.w3.org/2000/svg" viewBox="415.83 14.75 29.13 93.41">
  <path d="M 426.65575,92.75 C 424.73102,87.6625 422.63205,81.025 421.99137,78 421.35069,74.975 420.41554,70.872791 419.91325,68.88398 417.83077,60.638411 419.99073,22.505888 422.5,23.216718 423.61749,23.533283 423.61828,23.446638 422.33475,41.5 421.38869,54.806626 421.57225,59 423.1008,59 423.57801,59 425.43805,57.683257 427.23422,56.073905 L 430.5,53.14781 430.26064,37.626347 C 430.12007,28.511453 430.41754,21.85998 430.98132,21.511544 432.43491,20.613176 432.8924,24.179397 433.27285,39.374569 433.57803,51.563796 433.84872,53.416211 435.50124,54.624569 439.13289,57.280089 439.99291,56.372257 440.11909,49.75 440.32667,38.85668 440.05353,28.655957 439.4229,23.75 438.9333,19.941122 439.10663,19 440.29775,19 442.55098,19 442.85985,21.843673 442.90451,43 442.95869,68.659416 439.9878,88.387757 434.45978,99.077784 431.95533,103.92086 430.407,102.66542 426.65575,92.75 z M 433.37916,63.497879 C 439.22871,65.328142 440.05428,65.310414 439.36539,63.369331 438.30099,60.370141 434.80967,57 432.76705,57 430.62752,57 423.42151,62.459191 422.54458,64.744422 422.22608,65.574413 422.47751,66.87044 423.10331,67.624483 424.04059,68.75384 424.8595,68.45253 427.74973,65.91488 430.30398,63.672215 431.8352,63.014788 433.37916,63.497879 z M 435.44996,88.991067 C 436.29261,85.42098 437.43609,80.581042 437.99103,78.235649 439.39246,72.312594 439.28186,71.281858 437,69 434.14711,66.147111 431.50027,66.514623 427.32192,70.343794 423.68633,73.675566 423.67702,73.705229 424.73327,78.593794 426.00342,84.472292 429.41102,93.585394 431.09991,95.620386 432.83094,97.70615 433.70864,96.368569 435.44996,88.991067 z"/>
</svg>
