<?xml version="1.0" encoding="UTF-8"?>
<svg xmlns="http://www.w3.org/2000/svg" viewBox="175.13 55.87 29.82 48.33">
  <path d="M 196.96875,58.0625 193.8125,58.5 C 192.12757,61.620343 191,64.099254 191,64.96875 191,67.053956 192.84195,65.927759 193.8125,63.25 194.07714,62.519847 195.8472,59.919107 196.96875,58.0625 z M 177.34375,87.65625 177.125,90.3125 C 184.04434,90.803112 184.37258,90.606164 187.53125,85 189.23373,81.978361 191.41131,78.2625 192.40625,76.75 193.40119,75.2375 193.85076,74.011169 193.375,74.03125 192.89924,74.051332 191.1861,76.188832 189.59375,78.78125 188.00139,81.373669 186.0495,84.573901 185.25,85.875 183.93509,88.014874 183.25379,88.201386 178.1875,87.78125 177.86509,87.754513 177.65442,87.69049 177.34375,87.65625 z M 202.71875,75.71875 C 202.33526,74.598787 195.41324,84.471059 191.65625,91.5 188.6228,97.175271 186.42213,99.188599 182.90625,99.53125 181.02637,99.714459 179.35746,99.902389 179.1875,99.9375 179.01754,99.97261 179.16008,100.45 179.5,101 179.83992,101.55 181.60576,102 183.40625,102 187.08862,102 190.9178,98.009279 195,89.96875 196.25093,87.504841 198.60452,83.575255 200.21875,81.21875 201.83298,78.862245 202.94765,76.387245 202.71875,75.71875 z"/>
</svg>
