<?xml version="1.0" encoding="UTF-8"?>
<svg xmlns="http://www.w3.org/2000/svg" viewBox="386.13 17.75 48.91 92.45">
  <path d="M 425.75,41.093752 C 427.95579,38.209774 429,35.744969 429,33.422261 429,31.540017 428.71153,30 428.35895,30 428.00638,30 425.52872,31.669499 422.85304,33.709998 418.26713,37.207253 418.02471,37.622992 418.62542,40.959998 419.79156,47.437978 420.882,47.458449 425.75,41.093752 z M 411,105.55291 C 411,105.06938 414.1434,99.238303 418.35617,91.907056 421.04204,87.233001 425,82.908849 425,84.648544 425,86.314898 412.9883,106 411.9715,106 411.43718,106 411,105.79881 411,105.55291 z M 399.9549,38.452948 C 399.9797,37.327069 398.24528,34.692455 396.10062,32.59825 392.48607,29.068735 392.15417,28.9389 391.55688,30.820794 391.14954,32.104195 392.0742,35.361323 394.0706,39.675492 L 397.22868,46.5 398.56924,43.5 C 399.30654,41.85 399.93009,39.578826 399.9549,38.452948 z M 390,103.65499 C 390,102.91523 390.9,101.49549 392,100.5 394.2923,98.425498 394.47784,98.857141 392.83948,102.45295 391.59509,105.1841 390,105.85935 390,103.65499 z M 399.20329,81.205374 C 398.54148,78.001203 398,70.006697 398,63.439805 L 398,51.5 393.96698,43.433966 C 389.67542,34.850834 388.35769,29.695309 389.39702,25.554286 390.30023,21.955606 391.67393,22.347981 396.20892,27.5 400.82843,32.748049 402.71331,33.120835 404.12684,29.065984 405.16547,26.086571 408.81229,23 411.29388,23 412.04421,23 413.71197,25.25 415,28 416.28803,30.75 417.93205,33 418.65338,33 419.3747,33 422.09114,30.962681 424.68991,28.472625 427.28868,25.982569 429.94331,24.148005 430.5891,24.395816 432.44677,25.108672 432.81783,32.095439 431.24541,36.753585 429.94193,40.615028 423.09607,48 420.82,48 420.369,48 420,52.43858 420,57.86351 420,66.863758 418.71462,77.618717 417.49294,78.840396 416.18661,80.146719 416.11345,77.506158 417.18924,67.879176 418.19444,58.883874 418.11614,55.860622 416.63433,46.453056 413.48072,26.431722 410.40188,23.377569 404.81266,34.726203 L 401.5,41.452407 401.55065,61.976203 C 401.57851,73.264292 401.80351,83.351567 402.05065,84.392371 402.29779,85.433175 402.02898,86.452682 401.45329,86.657941 400.8776,86.863199 399.8651,84.409544 399.20329,81.205374 z"/>
</svg>
