<?xml version="1.0" encoding="UTF-8"?>
<svg xmlns="http://www.w3.org/2000/svg" viewBox="804.13 62.77 40 43.24">
  <path d="M 810.125 85.46875 L 808.96875 89.34375 C 809.46935 89.328893 810.14894 89.718199 811.4375 90.5625 C 815.03466 92.919449 820.65282 92.001466 824.75 88.40625 C 826.53716 86.83804 828 84.965782 828 84.25 C 828 83.116671 831.16045 77.906816 836.53125 70.21875 C 838.94015 66.770506 840.34956 68.504564 839.5 73.875 C 839.09806 76.415826 838.83926 81.2 838.90625 84.5 C 839.05006 91.584299 837.96714 94.032235 835.59375 92.0625 C 833.93738 90.687835 829 91.343177 829 92.9375 C 829 93.43786 827.47745 95.473339 825.625 97.4375 C 822.75255 100.48319 821.60401 101 817.84375 101 C 814.33017 101 812.77275 100.3871 810.125 97.96875 C 808.4621 96.449928 807.70473 95.486955 807.4375 94.46875 L 806.125 98.9375 L 810.1875 101.375 C 812.56666 102.80081 815.85 103.99685 817.5 104 C 821.26565 104.00718 826.36058 100.96733 828.6875 97.3125 C 831.22566 93.325881 832.02969 92.976943 835.15625 94.59375 C 837.74875 95.934384 838.05584 95.875122 839.46875 93.71875 C 840.40065 92.296481 840.94289 89.289553 840.875 85.9375 C 840.81431 82.940829 841.0882 77.308877 841.5 73.40625 C 842.1203 67.527701 841.99976 66.198329 840.75 65.71875 C 838.27676 64.76968 835.64251 67.394123 830.25 76.1875 C 827.44143 80.76735 823.97118 85.614115 822.5625 86.9375 C 819.46094 89.851268 815.24655 90.020128 811.78125 87.40625 C 811.0492 86.85406 810.54814 86.259643 810.125 85.46875 z "/>
</svg>
