<?xml version="1.0" encoding="UTF-8"?>
<svg xmlns="http://www.w3.org/2000/svg" viewBox="991.73 20.8 74.3 87.76">
  <path d="M 1062.6562,72.21875 1062.6562,67 C 1061.0589,69.823096 1058.7312,74.17114 1058.0938,75 1053.8479,80.520293 1043,99.968509 1043,102.0625 1043,104.5643 1044.9366,102.21314 1049.4062,94.25 1052.1054,89.441129 1056.7892,81.745292 1059.8125,77.15625 1060.6188,75.932402 1061.6676,73.851208 1062.6562,72.21875 z M 1042.6667,53.333333 C 1042.3,52.966667 1042,51.686411 1042,50.488321 1042,47.947064 1039.1033,45 1036.6055,45 1034.1183,45 1030.9862,46.779763 1027.25,50.316161 1023.382,53.977256 1023.0417,52.874574 1026.4785,47.816769 1029.1166,43.934497 1034.5319,41.399272 1037.9018,42.468845 1042.1729,43.824412 1045,47.052073 1045,50.57258 1045,53.817472 1044.153,54.819648 1042.6667,53.333333 z M 1023.0024,99.865702 C 1026.6471,92.659712 1037.6027,74.020468 1038.199,74.011046 1039.308,73.99352 1036.2041,80.721569 1032.0289,87.385216 1029.9218,90.748347 1027.3657,95.267531 1026.3489,97.427846 1025.332,99.588161 1023.8938,101.55273 1023.1529,101.79355 1022.0577,102.14953 1022.0295,101.78904 1023.0024,99.865702 z M 1003.0037,100.75 C 1003.0058,100.0625 1003.9722,97.925 1005.1514,96 1007.6972,91.843837 1009.2763,89.058174 1014.9301,78.75 1017.268,74.4875 1019.424,71 1019.7212,71 1022.3185,71 1013.1323,89.792029 1007.0563,96.908406 1005.9253,98.23303 1005,99.92053 1005,100.65841 1005,101.39628 1004.55,102 1004,102 1003.45,102 1003.0017,101.4375 1003.0037,100.75 z M 1014,53.533927 C 1014,53.277587 1014.7537,51.487429 1015.6748,49.5558 1017.2605,46.230505 1017.2523,45.936228 1015.5198,44.021873 1013.3432,41.616815 1009.7933,41.455995 1004,43.5 998.9232,45.291199 997.70937,45.371879 998.20494,43.885183 998.75988,42.220368 1007.9702,39.001746 1012.1819,39.000815 1015.1051,39.000168 1016.29,39.598491 1017.9319,41.90437 1020.495,45.503902 1020.5053,46.658952 1018.011,50.75 1016.3332,53.501747 1014,55.121166 1014,53.533927 z M 1051.1584,43.524708 C 1047.7572,36.256639 1043.2677,32.544963 1039,33.472902 1025.4481,36.419544 1025.4605,36.419171 1019.6413,34.057341 1016.5818,32.815586 1013.5558,31.169694 1012.9168,30.399803 1010.6893,27.715755 1005.9001,28.739114 998.75,33.427014 995.10647,35.815849 995.11743,33.728722 998.76758,30.078575 1000.4483,28.397883 1003.6032,26.81489 1006.801,26.047744 L 1012.0668,24.784494 1016.7394,28.424904 C 1022.6063,32.995764 1024.7553,33.526082 1031.7324,32.124876 1042.2773,30.00715 1046.7442,31.175982 1051.3916,37.268996 1054.0161,40.709911 1056.3544,48.662937 1054.9896,49.506456 1054.5493,49.778557 1052.8252,47.08677 1051.1584,43.524708 z"/>
</svg>
