<?xml version="1.0" encoding="UTF-8"?>
<svg xmlns="http://www.w3.org/2000/svg" viewBox="670.33 7.54 31.19 98.05">
  <path d="M 674.00615,97.516183 C 672.33103,93.110286 672.83903,90.010206 676.5,82.297384 680.47268,73.927865 680.62972,72.481489 678.3855,64.931501 676.13759,57.369106 676.09886,38.625997 678.31266,29.688197 680.6166,20.386535 684.68463,12 686.89262,12 687.85368,12 690.41602,13.520206 692.58671,15.378236 698.20216,20.18485 699.52043,26.591223 699.34393,48.216071 699.23946,61.015488 698.79976,66.228421 697.46732,70.464589 695.82909,75.672936 695.82594,76.255714 697.41352,80.412728 698.52569,83.324907 698.99776,86.985712 698.79994,91.16421 698.53002,96.865976 698.27484,97.531978 696.25,97.819551 695.0125,97.995304 694,97.72028 694,97.208387 694,96.696495 691.97357,94.101626 689.49682,91.442014 684.37677,85.943933 684.1811,85.999749 680.01368,94.14708 676.86097,100.31065 675.38361,101.13917 674.00615,97.516183 z M 678.59129,91.75 C 679.49475,89.9625 681.14141,87.507023 682.25053,86.293385 684.09514,84.274944 684.49024,84.207724 686.88356,85.50514 688.3226,86.285243 690.625,88.503332 692,90.434226 693.375,92.36512 695.0625,93.95733 695.75,93.972471 697.72558,94.01598 697.26649,85.787276 694.94753,79.589314 693.00662,74.401771 692.98483,73.930016 694.54657,70.909949 695.79241,68.500749 696.33424,63.792264 696.75245,51.740857 697.28975,36.257718 697.24818,35.79702 695.40342,36.790887 694.35654,37.354895 692.40906,38.982675 691.07569,40.408178 688.00761,43.688245 686.30951,43.670715 682.81515,40.322902 681.27829,38.850499 679.71253,37.954134 679.33569,38.330981 677.86184,39.804828 679.12032,60.054879 681.04273,65.798831 683.70005,73.738614 683.50046,75.793413 679.46573,82.033722 675.60999,87.997205 674.47082,91.178592 675.36077,93.497764 676.19926,95.682834 676.75566,95.381813 678.59129,91.75 z M 692.27916,35.385954 C 696.14817,31.62799 696.58617,30.47476 695.06029,28.063311 694.32584,26.902617 693.55901,27.260566 691.06855,29.926619 L 687.98589,33.226615 684.5602,30.613717 C 681.16986,28.027774 681.12764,28.022479 680.4681,30.100499 679.97273,31.66128 680.64746,33.072797 683.09701,35.600091 684.90944,37.470041 686.87968,39 687.47532,39 688.07097,39 690.23269,37.373679 692.27916,35.385954 z M 690.68555,25.825686 C 693.55828,23.126891 693.63781,20.061732 690.91104,17.134883 688.12815,14.147809 686.86983,14.774017 684.58579,20.282665 683.00691,24.090594 682.89698,25.170937 683.95823,26.449675 685.73806,28.594231 687.95772,28.388348 690.68555,25.825686 z"/>
</svg>
