<?xml version="1.0" encoding="UTF-8"?>
<svg xmlns="http://www.w3.org/2000/svg" viewBox="328.53 4.53 76.38 105.25">
  <path d="M 376.875,9.46875 C 374.69953,9.6220718 371.99207,11.269557 367.125,14.53125 359.31838,19.762897 357.72404,21.067786 358.28125,21.625 359.0625,22.406247 366.31489,18.830299 370.03125,15.84375 375.27527,11.629543 379.24671,12.139388 383.03125,17.5 L 385.875,21.5 384.3125,27.71875 C 382.86984,33.455178 382.87142,34.120997 384.40625,36.21875 385.32214,37.470572 387.14811,39.997245 388.46875,41.8125 391.86429,46.479791 392.6863,54.428257 390.625,62.78125 389.72679,66.421048 388.13999,70.306921 387.09375,71.4375 385.27969,73.397802 384.62197,75.597935 384.875,79.0625 384.93833,79.929726 387.025,82.866714 389.5,85.5625 394.05586,90.52477 395.02329,93.244045 392.75,94.6875 390.66233,96.013096 389.72077,95.695771 384.09375,91.78125 381.11507,89.709085 378.19007,87.999694 377.59375,88 376.99743,88.000306 373.86229,90.973664 370.625,94.59375 364.81061,101.09565 361.68637,103.17697 359.25,102.25 357.36384,101.53237 357.71801,99.746591 360.53125,95.9375 363.77217,91.549334 363.19577,88.8686 357.78125,83.3125 353.76119,79.187319 353.72675,79.078055 355.375,76.5625 356.29646,75.156181 357.32904,74 357.65625,74 357.98346,74 359.80442,75.381697 361.71875,77.0625 367.02314,81.719815 370.69541,80.96096 374.21875,74.5 378.68038,66.318455 377.58793,58.208567 371.40625,53.53125 368.63242,51.43245 367.37786,51.624513 358.5,55.5 349.66967,59.354741 346.34005,59.729238 341.96875,57.46875 335.89246,54.326582 334.484,47.029004 336.5625,29.625 337.85382,18.8123 339.24273,14.885531 340.59375,18.40625 341.56821,20.945643 341.73294,23.095127 341.875,36.78125 341.99463,48.307051 342.14681,49.240561 344.375,51.46875 346.43693,53.530682 347.26153,53.737442 350.53125,53 352.60437,52.532436 354.57421,51.736395 354.90625,51.21875 355.23829,50.701105 357.91269,49.025556 360.875,47.53125 364.73942,45.581888 367.14075,44.997822 369.375,45.40625 371.08769,45.719334 372.99274,45.622159 373.59375,45.21875 376.41633,43.324193 376.20979,28.662303 373.34375,27.5625 371.84692,26.988113 363.38077,30.560117 362.375,32.1875 361.19616,34.0949 362.7646,33.975417 366.65625,31.84375 372.10956,28.856678 374,29.74524 374,35.375 374,42.216023 373.43281,43 368.28125,43 364.86746,43 361.83548,44.047504 355.90625,47.25 344.97212,53.155746 344.77448,52.895647 344,32.75 343.33728,15.511533 341.62478,9.9737321 338.28125,14.25 334.88401,18.594947 332.00486,42.043513 333.9375,49.71875 337.05502,62.099513 344.99391,64.874763 358.625,58.40625 367.00329,54.430407 369.92411,54.442059 372.5625,58.46875 375.29783,62.643399 375.39882,67.966939 372.8125,73 369.83113,78.80181 367.54682,79.144517 362.0625,74.5625 359.7259,72.610328 357.41229,71 356.90625,71 355.65801,71 352.00464,77.088016 352,79.1875 351.99794,80.11655 353.8,82.958099 356,85.5 358.2,88.041901 360,90.721578 360,91.4375 360,92.153422 358.65,94.423745 357,96.5 353.71805,100.6298 353.37161,101.99661 355.1875,103.8125 355.8475,104.4725 357.95276,105 359.84375,105 362.48845,105 364.3275,104.02445 367.875,100.78125 370.41151,98.462325 373.29559,95.312324 374.25,93.78125 375.20442,92.250176 376.53962,91 377.25,91 377.96039,91 380.94708,92.8 383.875,95 389.91165,99.535853 392.10979,99.890217 395.125,96.875 398.33011,93.669895 397.10474,88.499595 392.0625,83.84375 386.77473,78.961197 386.05439,75.89741 389.28125,72.0625 393.79913,66.69331 395.79212,51.934371 393.09375,43.78125 392.41421,41.728004 390.5479,39.084207 388.9375,37.9375 386.44893,36.165481 386,35.199697 386,31.40625 386,26.136905 387.24089,25.311501 393.03125,26.78125 396.30663,27.612631 397.37906,27.507894 399,26.15625 400.99865,24.489639 401.44381,22.748545 401.15625,17.71875 400.9188,13.565346 396.85445,12.009543 393.21875,14.65625 391.71893,15.748087 390.01334,16.921263 389.40625,17.28125 388.79915,17.641237 386.14363,15.878092 383.53125,13.375 380.69386,10.6563 379.05047,9.3154282 376.875,9.46875 z M 397.34375,16.40625 C 398.37777,16.771461 399,17.921588 399,19.78125 399,21.34339 398.4375,23.35018 397.75,24.25 396.63485,25.709543 396.15508,25.743387 393.1875,24.46875 389.26366,22.783382 389.26479,20.644624 393.1875,17.71875 394.87952,16.456705 396.30973,16.041039 397.34375,16.40625 z M 372.875,21.09375 C 372.47275,20.736493 370.68948,21.756203 362.875,26.15625 361.56214,26.895469 360.34883,27.586592 360.15625,27.6875 359.96368,27.788408 360.10067,28.341936 360.46875,28.9375 361.19879,30.118717 361.31135,30.092536 368.25,25.6875 370.8625,24.028942 373,22.301122 373,21.84375 373,21.490908 373.00908,21.212836 372.875,21.09375 z"/>
</svg>
