<?xml version="1.0" encoding="UTF-8"?>
<svg xmlns="http://www.w3.org/2000/svg" viewBox="400.92 7.47 82.96 99.7">
  <path d="M 421.41192,101.21708 C 420.81347,100.82269 419.07942,97.218649 417.55848,93.208109 413.88109,83.511271 414.47885,80.224761 421.08394,73.824911 426.40882,68.665486 427.11571,66.058221 424.54005,61.077444 423.23279,58.549484 420.59225,57.052621 417.37132,57.013655 416.19919,56.999474 414.84373,60.002648 413.31848,65.993134 412.19457,70.407334 409.68573,70.976255 407.31313,67.35495 404.69096,63.352724 405.25049,54.954664 408.50986,49.392954 412.99396,41.741423 416.93879,40.397642 424.13674,44.069761 426.36813,45.20813 428.43448,45.898858 428.72862,45.604712 429.02277,45.310566 429.31666,42.466673 429.38172,39.284951 L 429.5,33.5 423.6451,32.979565 C 419.09556,32.575163 417.36768,31.937345 415.8951,30.118781 413.49826,27.158813 413.53253,26.383424 416.27408,21.543114 419.13012,16.500667 425.44931,12.076836 429.85841,12.033221 432.92139,12.002922 433.16315,12.213807 432.60677,14.430602 432.27125,15.767433 432.43404,18.011402 432.96852,19.417199 433.79675,21.595624 434.28978,21.840323 436.30611,21.073717 437.6073,20.579004 440.09438,18.751778 441.83294,17.013215 445.76309,13.083069 448.38671,13.347754 448.8103,17.717127 449.11512,20.861405 447.85267,23.287967 442.25,30.326725 439.98792,33.168621 439.30351,38.800045 440.62231,43.719493 441.18439,45.816195 441.37452,45.857688 444.05899,44.469493 447.9828,42.440414 449.65775,42.609382 454.65593,45.538511 458.11562,47.566028 459.39075,47.861242 460.99052,47.005075 463.69541,45.557463 466.39351,39.942421 468.44091,31.5 471.69025,18.101447 472.0748,17 473.50336,17 480.10593,17 477.1979,42.896314 469.2156,55.183056 466.05323,60.050717 462.26825,61.358745 456.86335,59.451788 451.86033,57.686618 447.80904,57.590958 446.2,59.2 442.88147,62.51853 446.61653,76.392186 451.73059,79.743048 453.79002,81.092439 454.34221,80.961799 458.65568,78.10468 463.479,74.909841 464.69685,74.562704 467.41821,75.606989 469.5732,76.433936 469.43109,78.24438 467.25,77.749908 465.1899,77.282866 460.89903,79.211811 459.05472,81.434063 457.04912,83.850664 450.76104,83.451029 448.29129,80.75 442.88371,74.836036 440.79967,65.808562 443.40338,59.57701 L 445.01808,55.712479 451.25904,56.370162 C 454.69157,56.731887 458.71445,57.294634 460.19878,57.620709 466.3702,58.976435 473.12944,45.625108 474.62925,29.116662 475.58664,18.578549 473.22696,19.929708 470.88492,31.260677 468.92195,40.757653 467.496,44.105385 463.64841,48.25 460.3593,51.79303 457.59071,51.725839 453.34722,48 449.32141,44.465297 448.12581,44.326597 444.72713,47 439.68981,50.962354 437.87368,48.73179 437.83368,38.533498 437.80419,31.013906 437.84568,30.891075 441.90194,26.490553 444.44115,23.735834 446,21.085221 446,19.522343 446,16.285308 445.41148,16.347997 442.0535,19.942725 438.94232,23.273259 434.46639,24.780329 432.09522,23.295732 431.17001,22.716452 430.28999,20.382578 430,17.739029 L 429.5,13.181104 424.3584,16.621755 C 414.91473,22.941252 414.61832,29.459797 423.77056,29.549291 426.54302,29.576402 429.51692,30.184119 430.37924,30.899774 432.4763,32.640181 433.18433,37.4109 432.24754,43.488364 431.41037,48.919491 429.27939,50.407852 426.1756,47.729257 423.38421,45.320272 418.03626,43.910227 415.94198,45.031053 413.40488,46.388866 409.2866,51.950525 408.56021,55 407.79611,58.207727 409.25287,66.56585 410.52768,66.288325 411.06245,66.171903 411.81477,63.932483 412.1995,61.311836 413.02929,55.65952 415.18087,53.670961 419.48054,54.582474 424.88731,55.728689 429,61.109289 429,67.036717 429,69.519226 427.88292,71.248818 423.63954,75.336377 420.69129,78.17637 417.95872,81.519565 417.56717,82.7657 416.78688,85.249023 418.33659,90.860771 421.0222,95.276902 422.73783,98.098037 422.74094,98.098733 423.3564,95.800896 423.69536,94.535403 423.97884,92.232916 423.98635,90.684259 424.00356,87.135267 425.41551,84.371072 429.31616,80.25 433.47491,75.856246 437.91114,75.776745 441.17394,80.037497 445.80091,86.079655 452.07199,91.979965 454.51984,92.594335 456.3347,93.049837 457.95885,92.506026 460.44342,90.610953 463.95891,87.929556 466,87.305155 466,88.911106 466,90.314341 460.12969,94.929346 457.50768,95.587428 454.14714,96.43087 448.3937,93.362175 444.68485,88.748153 436.18206,78.170199 436.72521,78.573617 433.34169,80.323303 429.07407,82.530179 427.40461,85.574868 426.71036,92.417229 426.09898,98.442899 423.57164,102.6404 421.41192,101.21708 z"/>
</svg>
