<?xml version="1.0" encoding="UTF-8"?>
<svg xmlns="http://www.w3.org/2000/svg" viewBox="1062.89 10.78 46.72 96.24">
  <path d="M 1088.7564,100.17639 C 1088.4239,98.904937 1086.9737,98.030038 1084.3975,97.546742 1079.8539,96.694371 1077,95.312467 1077,93.964816 1077,92.690066 1080.7083,92.71906 1081.5,94 1082.5325,95.670673 1089.3041,95.112004 1092.6342,93.081401 1094.358,92.030283 1096.8963,89.669465 1098.2749,87.835139 1101.2574,83.866626 1105.2671,68.896365 1104.1537,65.886522 1103.1641,63.211401 1102.2334,64.405993 1098.6118,73 1097.0645,76.67148 1094.069,81.349417 1091.728,83.75 1088.3003,87.265071 1086.9319,88 1083.8148,88 1080.8918,88 1079.6761,87.435328 1078.3974,85.483736 1076.637,82.796981 1076.7479,79.524809 1079.0243,67 1080.361,59.645413 1079.6252,31.84827 1077.9315,25.713946 1075.8658,18.232742 1072.3185,22.223218 1069.6767,35 1068.5379,40.507562 1068.2477,46.219218 1068.584,56.5 1069.0592,71.027691 1067.6059,88.761434 1065.7975,90.5 1065.0783,91.191429 1065.009,89.494289 1065.573,85 1066.0216,81.425 1066.4371,69.05 1066.4962,57.5 1066.5918,38.839502 1066.8411,35.812702 1068.7345,30.330627 1071.2219,23.128624 1073.5473,18.397806 1075.0594,17.463274 1076.5322,16.553024 1078.7531,19.695088 1080.0331,24.5 1081.694,30.734588 1081.8388,30.999075 1083.287,30.443364 1084.0365,30.15576 1086.3871,27.575846 1088.5106,24.710223 1095.3858,15.432234 1097.0515,15.154357 1096.9098,23.309017 1096.8241,28.240401 1096.7727,28.337469 1095.8812,25.25 1094.7471,21.322153 1092.8312,21.078314 1090.9355,24.62054 1090.1641,26.061837 1087.6299,28.916249 1085.3039,30.963678 1081.4223,34.380455 1081.1236,34.986694 1081.6683,38.343137 1081.9946,40.354412 1082.8171,42 1083.496,42 1085.6393,42 1090.0636,37.890308 1093.0659,33.11063 1095.0454,29.959204 1095.968,29.115962 1095.981,30.446249 1096.0079,33.197071 1091.8322,38.880884 1086.5256,43.31665 1082.0092,47.091848 1081.9998,47.113172 1081.9156,53.799772 1081.8692,57.484897 1081.4016,63.2 1080.8765,66.5 1080.3514,69.8 1079.6726,74.129197 1079.3682,76.120437 1078.6523,80.802374 1081.1928,86 1084.1971,86 1087.7677,86 1094.1611,78.230571 1098.3484,68.802982 1102.5945,59.243077 1104.484,57.532049 1106.1157,61.7691 1107.4791,65.309146 1106.5262,72.339985 1103.3909,81.875696 1101.8962,86.42135 1101.1043,90.636068 1101.4297,92.313483 1101.902,94.748462 1101.7147,95.044227 1100.0377,94.511958 1097.3195,93.649242 1092.2061,96.542225 1091.821,99.160638 1091.4067,101.97796 1089.4013,102.64263 1088.7564,100.17639 z"/>
</svg>
