<?xml version="1.0" encoding="UTF-8"?>
<svg xmlns="http://www.w3.org/2000/svg" viewBox="612.44 7.77 56.24 100.6">
  <path d="M 653.34541,97.5 C 648.81551,92.772338 648.04896,92.433379 645.23643,93.914324 631.30794,101.24842 622.12719,99.975474 618.92271,90.265817 617.90366,87.178045 618.16429,85.916404 621.46768,77.946724 625.98983,67.036664 625.90161,64.5 621,64.5 616.31834,64.5 615,63.472429 615,59.823336 615,57.585364 616.07938,55.685322 619.02291,52.741794 623.02756,48.737144 623.03785,48.707036 621.29022,46.109441 617.38416,40.303659 616.71002,38.305668 616.80417,32.813807 616.90861,26.720961 620.03909,19.076582 623.83405,15.647379 627.49594,12.338418 628.44449,13.902337 628.47339,23.296494 628.4967,30.86993 628.77509,32.219173 630.71471,34.158957 632.77314,36.21757 633.05641,36.258925 634.72923,34.745047 635.71912,33.849202 638.5274,29.265084 640.96984,24.558119 645.69601,15.450056 647.60648,14.172382 650.4433,18.222506 653.75424,22.949548 650.79075,35.751915 644.80839,42.565446 L 641.82182,45.966969 645.91094,52.225191 C 650.03161,58.531688 651.80491,63.888605 650.48101,66.030732 649.7885,67.151231 646.81979,66.978467 640.82271,65.468667 638.44938,64.87117 637.92627,65.232064 636.2153,68.647322 635.15374,70.766295 634.01751,74.22944 633.69034,76.343201 633.19954,79.514204 633.50619,80.5971 635.44361,82.534515 L 637.79172,84.882628 643.64586,82.854561 C 648.16993,81.287274 650.79711,79.475258 655.20905,74.879198 660.31157,69.563734 661.1281,69.063052 662.89483,70.166395 665.91972,72.055471 666.1277,74.914518 663.56727,79.410196 660.56282,84.685488 659.56483,92.046487 661.50637,94.611074 662.29288,95.649983 662.9507,97.7375 662.9682,99.25 663.02072,103.79127 658.60386,102.98802 653.34541,97.5 z M 660,98.059017 C 660,97.541476 659.54718,96.838176 658.99373,96.496126 657.70998,95.702723 658.45933,86.213539 660.37528,79.001346 661.17869,75.977087 661.67503,73.341696 661.47826,73.144923 661.28148,72.94815 658.72832,75.237363 655.80455,78.232063 647.66534,86.568751 638.0415,89.018306 633.43324,83.926232 630.80938,81.026895 631.97954,71.324542 635.65467,65.50733 638.75823,60.594829 639.2879,60.377972 643,62.5 650.64755,66.871737 649.56167,60.794763 640.47583,48.373907 639.03712,46.407099 639.09617,46.032503 641.2641,43.373907 645.13472,38.627267 649.15706,28.432997 648.80986,24.24988 648.31764,18.31953 645.70911,18.825193 643.05457,25.365542 639.85184,33.256571 635.25532,39.178449 632.62444,38.803097 629.62201,38.374736 626.73843,31.882833 626.0622,24.029305 L 625.5,17.5 622.84099,21 C 617.51361,28.012328 618.24498,39.145182 624.41268,44.924314 627.79472,48.093284 627.67662,49.384169 623.75,52.16766 618.04615,56.210986 617,57.392275 617,59.789629 617,61.706927 617.37805,62.014788 619.07217,61.477094 622.46096,60.401535 625.98737,61.836571 627.09141,64.74044 628.16583,67.566374 628.17293,67.541393 622.54222,80.764764 619.52374,87.853485 619.76519,89.783189 624.13017,93.45608 627.92117,96.645993 631.02195,96.654909 639.40377,93.5 648.35356,90.131307 649.89545,90.284513 654.5,95 658.37323,98.966552 660,99.871334 660,98.059017 z"/>
</svg>
