<?xml version="1.0" encoding="UTF-8"?>
<svg xmlns="http://www.w3.org/2000/svg" viewBox="873.41 15.58 71.88 83.16">
  <path d="M 879.97525,91.4349 C 877.2391,84.238294 879.79743,70.03345 885.43935,61.096079 888.73742,55.871601 890.02976,55.373237 896.18732,56.951371 898.89931,57.646433 901.37595,57.957388 901.69095,57.642381 903.00018,56.333155 902.06573,45.801611 900.33211,42.327653 897.13151,35.914091 895.63395,35.608779 886.62502,39.533147 882.29379,41.419872 878.35629,42.720198 877.87502,42.422761 876.68091,41.68476 876.76782,38.261529 878,37.5 878.55,37.160081 879,37.583524 879,38.440983 879,40.405525 878.7505,40.4378 885.12557,37.648571 895.65987,33.03959 899.13215,33.487295 902.43838,39.880832 904.17671,43.242395 904.77649,57.623513 903.24234,59.157664 902.53209,59.867912 900.44226,59.794825 896.54914,58.923584 891.06821,57.697004 890.81711,57.733639 888.63408,60.078409 884.68016,64.325277 881.56282,73.724954 881.52976,81.5 881.51339,85.35 881.84607,89.7375 882.26905,91.25 883.26149,94.798773 881.31388,94.955767 879.97525,91.4349 z M 936.57273,34.533886 C 932.73747,27.98951 928.35291,25 922.58987,25 917.56147,25 914.84618,26.024439 911.28719,29.26434 909.10945,31.246822 909.0318,31.248804 906.38816,29.389377 900.13882,24.993852 898.32038,24.142388 895.03435,24.073088 892.20099,24.013335 890.70002,24.855615 886.80739,28.689711 880.50037,34.901897 879.75197,33.764854 885.76124,27.10029 892.05455,20.120705 896.28171,19.359785 903.17518,23.965647 907.83314,27.07785 907.86446,27.083243 911.67518,25.429193 921.14011,21.320926 923.88316,20.897999 927.83403,22.937809 933.01603,25.613251 938.84336,31.966804 939.60417,35.770826 940.48169,40.158435 939.67636,39.82983 936.57273,34.533886 z M 900.62684,91.75 C 901.03652,91.0625 902.24848,89.295266 903.32008,87.822813 907.13512,82.580703 903.91052,70.992989 898.63922,71.001933 896.8658,71.004942 891.3859,79.913621 889.4615,85.922141 887.93618,90.684641 887.57183,91.134923 886.46656,89.623383 885.41487,88.185114 885.72487,86.735672 888.3541,80.797953 894.0926,67.838435 898.17402,65.603607 904.25,72.093991 906.58154,74.584557 907,75.894688 907,80.703897 907,84.940388 906.43045,87.212854 904.75,89.681287 902.66837,92.739017 898.91543,94.62198 900.62684,91.75 z M 936,84.464817 C 936,84.170466 936.76289,82.765315 937.69531,81.342259 938.83869,79.597242 939.40843,76.597222 939.44531,72.127442 939.5036,65.063329 938.50036,62.754623 933.74791,59.016345 931.31358,57.101499 930.64864,57.039077 924.13838,58.114223 913.80519,59.820713 913.61501,59.652109 914.25748,49.354195 914.84988,39.858656 916.59429,36.251234 921.42526,34.531247 923.55131,33.774302 924.93538,33.992943 927.75561,35.531247 929.74078,36.614061 931.55982,38.105832 931.79793,38.846293 932.07607,39.711214 930.7802,39.357688 928.17367,37.857562 L 924.11647,35.522538 921.30824,37.616966 C 918.23053,39.912371 917.29794,42.81874 917.11831,50.674599 L 917,55.849198 923.75,55.364781 C 932.08837,54.766374 936.42464,56.695677 939.78701,62.5 941.74809,65.885323 942.02551,67.4561 941.59234,72.72181 941.07991,78.950968 938.80478,85 936.97432,85 936.43844,85 936,84.759168 936,84.464817 z M 915.38962,87.567082 C 913.77147,82.4337 913.77199,81.885547 915.39918,77.624834 919.01785,68.149475 923.41198,65.684703 928.18194,70.45467 930.44897,72.7217 933.45842,79.874914 932.53405,80.799283 931.67983,81.653502 930.19081,79.895018 929.53665,77.259448 928.75222,74.099052 925.26719,70 923.36464,70 921.30438,70 918.3974,73.730227 917.11061,78.025157 916.13846,81.269906 916.2024,82.942459 917.46056,87.179153 919.27872,93.301538 919.24812,93 918.0511,93 917.52921,93 916.33154,90.555187 915.38962,87.567082 z"/>
</svg>
