<?xml version="1.0" encoding="UTF-8"?>
<svg xmlns="http://www.w3.org/2000/svg" viewBox="598.94 14.35 33.81 80.3">
  <path d="M 600.9375 72.8125 L 601.5 75.21875 L 602.65625 77.5 C 603.5318 77.595914 604.1298 77.861034 604.375 78.5 C 604.57137 79.011738 604.36727 79.559569 603.96875 80.125 L 605.28125 82.75 L 605.28125 83.1875 L 608.96875 86.96875 C 611.31077 89.358084 613.85948 91.003912 615.21875 91 C 619.93093 90.986439 626.78103 84.365402 628.9375 77.75 C 630.74963 72.190954 628.98254 68.116217 621.9375 61.59375 C 614.37962 54.596494 613.94678 51.513413 620.03125 48.09375 C 625.09634 45.247011 627.26779 41.972663 627.25 37.21875 C 627.2244 30.376698 619.78389 18 615.6875 18 C 614.05204 18 605.05283 27.765499 603.90625 30.78125 C 602.19075 35.293353 603.72276 39.687648 609.15625 45.6875 C 613.81756 50.834679 614.1707 51.585014 613.6875 55.1875 C 613.27847 58.237082 612.17953 59.961183 608.65625 63.0625 C 606.1719 65.249307 603.31463 68.730607 602.3125 70.78125 C 601.88495 71.65613 601.41355 72.216029 600.9375 72.8125 z M 616.21875 22.1875 C 619.05105 22.5966 623.98615 30.458583 624.6875 35.6875 C 625.11943 38.907774 624.75561 40.168998 622.53125 42.8125 C 621.04978 44.573129 618.93326 46 617.84375 46 C 616.00978 46 615.8915 45.497663 616.375 39.09375 C 616.77611 33.781178 616.55303 31.89456 615.4375 30.96875 C 614.25795 29.989813 613.97085 30.104359 613.875 31.625 C 613.24901 41.556503 612.99982 44.343937 612.625 44.71875 C 611.46319 45.880563 607.16444 41.528284 606 38 C 604.84335 34.495325 604.91394 33.524036 606.53125 29.9375 C 608.65679 25.223888 613.03813 21.72809 616.21875 22.1875 z M 618.03125 61.5 C 619.06486 61.779305 620.56148 63.064169 622.65625 65.28125 C 626.43367 69.279245 627 70.465843 627 74.3125 C 627 78.773241 625.05167 82.32851 620.5 86.21875 C 617.18368 89.053157 613.58567 88.444145 610.625 84.5625 C 609.18472 82.674197 608 80.256852 608 79.1875 C 608 78.118147 607.325 76.684689 606.5 76 C 603.93745 73.873269 604.72188 69.667667 608.3125 66.1875 C 610.12618 64.429608 612.15118 63 612.8125 63 C 613.98926 63 614.56816 70.601902 614.0625 79.15625 C 613.94402 81.160579 614.3459 83.10312 614.9375 83.46875 C 616.09426 84.18367 616.37098 80.409148 616.03125 68.875 C 615.86953 63.384448 616.30857 61.034491 618.03125 61.5 z "/>
</svg>
