<?xml version="1.0" encoding="UTF-8"?>
<svg xmlns="http://www.w3.org/2000/svg" viewBox="-2.75 12.33 148.5 101.84">
  <path d="M 105,107.33786 C 105,106.29048 110.10573,97.758388 112.40908,94.956684 113.55909,93.557861 115.85,89.644568 117.5,86.260478 119.15,82.876389 121.0625,80.083381 121.75,80.053794 122.4375,80.024207 123,80.195705 123,80.4349 123,82.273069 119.8426,87.985339 113.73678,97.193602 107.39579,106.75654 105,109.53829 105,107.33786 z M 86,104.1438 C 86,103.67289 87.497342,101.31039 89.327426,98.893802 93.26997,93.687748 101.93085,80.296011 107.69064,70.5 120.70107,48.372403 126.94499,37.398898 131.73087,28.25 134.67991,22.6125 137.52189,18 138.04638,18 138.57087,18 139,18.187815 139,18.417367 139,19.328036 127.12434,42.018882 125.26014,44.670145 124.16576,46.226565 121.45864,50.875 119.24432,55 113.12829,66.393404 99.487998,88.560008 93.245646,97.25 88.146007,104.34922 86,106.39102 86,104.1438 z M 65,105.32874 C 65,104.95955 65.638669,103.94705 66.419264,103.07874 67.19986,102.21043 69.732977,97.9 72.048413,93.5 74.36385,89.1 78.831659,81.225 81.976879,76 85.1221,70.775 90.305201,62 93.494882,56.5 96.684564,51 102.04059,42.151211 105.39715,36.836025 108.75372,31.520839 112.75884,25.054675 114.29741,22.466771 117.5709,16.960724 119.16636,17.155379 116.27799,22.708412 112.1398,30.664262 108.77048,36.55562 107.53259,38 105.34988,40.546815 96.32206,55.398623 89.144434,68.25066 76.619863,90.676774 67.191914,106 65.91833,106 65.413249,106 65,105.69793 65,105.32874 z M 44.729649,106.37158 C 44.385552,105.81482 45.64808,102.91595 47.535266,99.929644 49.422452,96.94334 51.265439,93.825 51.630793,93 51.996147,92.175 55.075751,87.225 58.474357,82 65.188454,71.677781 70.820259,62.162992 76.231362,52 79.281608,46.271107 82.907676,39.731021 90.923953,25.5 92.163204,23.3 93.812281,20.841071 94.588569,20.035714 95.821406,18.756711 96,18.824829 96,20.57405 96,21.675492 92.115709,29.084421 87.368242,37.038336 82.620775,44.992251 77.870626,53.3 76.812355,55.5 75.754084,57.7 73.819313,61.3 72.512863,63.5 71.206414,65.7 69.385256,68.85 68.465845,70.5 66.764718,73.552891 64.580867,77.033903 53.651661,94.113493 50.268247,99.400914 47.017438,104.54979 46.42764,105.55543 45.804016,106.61875 45.09348,106.96027 44.729649,106.37158 z M 26.058807,106.15431 C 26.026463,105.41418 29.205685,98.889182 33.123744,91.654311 43.437249,72.609966 44.745763,70.28236 46.848039,67.241319 49.743612,63.052737 57,51.114684 57,50.539533 57,49.71274 63.196648,39.720137 65.436838,36.934439 66.571577,35.52338 69.075,31.138482 71,27.19022 72.925,23.241958 74.8375,20.008961 75.25,20.005781 76.940899,19.992747 75.631612,23.903048 71.683604,30.657137 68.122354,36.749577 65.790373,40.616282 57.512079,54.155231 56.955436,55.065609 54.07436,60.015609 51.109688,65.155231 48.145016,70.294854 44.294159,76.75 42.552228,79.5 40.810296,82.25 38.318688,86.719314 37.015321,89.431808 35.711955,92.144303 33.262812,96.494698 31.572782,99.099352 29.882752,101.70401 27.963963,104.65969 27.308807,105.66754 26.526762,106.87059 26.097416,107.03779 26.058807,106.15431 z M 7,104.13996 C 7,102.69038 17.019432,83.89667 21.532932,76.880152 23.875016,73.239236 26.751733,68.089011 27.925636,65.435207 29.09954,62.781403 31.171505,59.15286 32.530003,57.371777 33.888501,55.590694 35,53.862313 35,53.53093 35,52.691523 47.515978,31.625491 51.802571,25.25 55.081485,20.37324 57,18.762385 57,20.886047 57,21.373373 55.132044,24.635873 52.848986,28.136047 49.048286,33.96293 44.284815,41.465471 41.189447,46.5 40.513137,47.6 39.252742,50.046406 38.388569,51.936458 37.524396,53.82651 35.783055,56.75151 34.518921,58.436458 33.254788,60.121406 30.804814,64.2 29.074535,67.5 27.344256,70.8 24.646492,75.75 23.079505,78.5 21.512517,81.25 19.028749,85.975 17.560021,89 15.101682,94.063206 8.1115404,105 7.3337824,105 7.1502021,105 7,104.61298 7,104.13996 z M 5,42.035469 C 5,41.225426 9.8520887,32.683127 15.719567,23.163236 17.850445,19.705921 18.263294,21.125601 16.414064,25.551431 14.756756,29.517929 6.29689,43 5.4652608,43 5.2093674,43 5,42.565961 5,42.035469 z M 4,75.896233 C 4,73.853242 11.357607,60.586773 18.916699,49 23.043065,42.675 27.520289,35.475 28.866087,33 34.411317,22.802002 35.81218,20.562607 36.866115,20.211295 39.07919,19.473603 32.002468,32.7353 21.872034,48.310032 18.226652,53.914514 13.100222,62.6625 10.479967,67.75 6.1494281,76.158195 4,78.860329 4,75.896233 z"/>
</svg>
