<?xml version="1.0" encoding="UTF-8"?>
<svg xmlns="http://www.w3.org/2000/svg" viewBox="639.58 12.95 36.8 89.09">
  <path d="M 659,97.277913 C 656.76399,96.539208 650.06805,88.839438 649.36875,86.202785 648.57436,83.20756 649.66489,76.548713 651.54537,72.912261 653.9071,68.345186 654.4101,61.917267 652.72193,57.8769 651.39815,54.708652 650.89587,54.361668 648.20514,54.756585 643.8969,55.3889 641.58317,51.689782 642.20955,45.171001 642.8875,38.115391 648.52815,26.257826 653.58877,21.25 655.95092,18.9125 658.34225,17 658.90284,17 661.72,17 671.63635,30.453708 672.91748,36.013949 674.3827,42.373163 674.28486,52.698476 672.75,53.687155 672.0625,54.130008 670.15,54.494066 668.5,54.496172 L 665.5,54.5 665.60581,60.5 C 665.68087,64.756016 666.40753,67.807988 668.10581,71 671.73645,77.823969 671.4607,85.476971 667.38128,91.108442 663.81233,96.035239 661.15636,97.990303 659,97.277913 z M 663.77796,92.736353 C 666.30038,90.051363 669,83.936481 669,80.90798 669,79.722038 667.39801,75.203678 665.44003,70.867178 662.46772,64.284166 661.98535,62.282503 662.51791,58.741317 663.34435,53.245937 665.26307,50.727273 668.71894,50.601341 671.20038,50.510918 671.53396,50.087146 671.81526,46.667911 672.35619,40.092653 670.27658,33.288994 665.92559,27.399272 661.17482,20.968399 660.01133,20.338452 655.97354,22.01096 653.77893,22.919999 652.21283,24.879878 650.08923,29.374841 642.21091,46.050675 642.00325,55.473741 649.60094,51.532012 653.09805,49.717688 654.12898,50.580655 655.89068,56.797004 657.42282,62.203313 656.49328,68.98904 653.36745,75.216756 649.79508,82.334125 650.19051,85.581927 655.25,90.678586 657.5875,93.033261 659.98406,94.968855 660.57569,94.979906 661.16731,94.990958 662.60834,93.981359 663.77796,92.736353 z"/>
</svg>
