<?xml version="1.0" encoding="UTF-8"?>
<svg xmlns="http://www.w3.org/2000/svg" viewBox="684.93 14.3 40.12 87.83">
  <path d="M 704.79666,96.463567 C 703.90045,95.567045 704.66205,77.452396 706.53831,55.038701 707.34224,45.434986 708,36.861962 708,35.987536 708,33.309966 700.09141,21.999671 698.22208,22.003853 695.86135,22.009134 689,30.71395 689,33.703656 689,35.038961 689.39703,36.889399 689.88228,37.815741 692.05935,41.97172 692.01209,98.142118 689.83433,94.804822 689.36603,94.08717 689.23221,89.675 689.53697,85 690.04598,77.191616 688.6937,45.863312 687.37197,34.843275 686.93036,31.161295 687.19928,29.785308 688.65672,28.269664 689.67053,27.215376 692.19124,24.488961 694.25832,22.210964 696.39771,19.853265 698.60501,18.294932 699.38254,18.593301 700.1338,18.881584 702.43485,21.566025 704.49601,24.558726 706.55716,27.551427 708.78531,30 709.44746,30 710.10961,30 711.70825,28.875 713,27.5 714.3834,26.027442 716.46113,25 718.0556,25 720.40965,25 720.90339,25.559247 721.8427,29.289566 723.04973,34.083141 722.50069,37.593889 720.41907,38.392681 719.65796,38.684748 717.23823,38.289695 715.04191,37.514785 L 711.04858,36.105859 710.1184,39.802929 C 709.07803,43.937982 708.17093,56.013846 707.4245,75.665882 706.88387,89.899566 705.91335,97.580644 704.79666,96.463567 z M 696.35042,91.25 C 696.70221,87.5375 697.28947,72.6875 697.65543,58.25 698.06153,42.229378 698.70266,32 699.30067,32 699.92935,32 700.05624,39.615649 699.65472,53.25 698.72852,84.701536 697.85518,98 696.71591,98 696.07851,98 695.9448,95.530508 696.35042,91.25 z M 719.66715,32.336307 C 718.83017,27.178616 717.78469,26.593039 714.4812,29.431643 711.65976,31.856036 711.63973,31.944421 713.45673,33.952191 714.47602,35.078486 716.42411,36 717.78583,36 720.07797,36 720.21757,35.728141 719.66715,32.336307 z"/>
</svg>
