<?xml version="1.0" encoding="UTF-8"?>
<svg xmlns="http://www.w3.org/2000/svg" viewBox="487.02 16.75 33.12 92.78">
  <path d="M 500,101.70531 C 500,100.85905 500.35404,100.01667 500.78676,99.833333 501.21948,99.65 502.85166,96.863274 504.41383,93.64061 507.21864,87.854447 507.23988,87.673235 506.1131,79.14061 505.48553,74.388274 505.14879,68.7 505.36479,66.5 505.74675,62.609524 505.87507,62.48631 510.0511,62 512.41258,61.725 514.52891,60.939678 514.75407,60.254839 514.97922,59.57 513.32093,57.130035 511.06897,54.832694 508.24979,51.9567 507.15382,50.090712 507.55024,48.841714 507.98437,47.473891 507.2248,46.597975 504.46207,45.280522 L 500.79817,43.533327 498.43604,46.279461 C 496.67139,48.330992 496.27813,49.577633 496.88128,51.208098 497.50572,52.89613 496.93094,54.383234 494.34432,57.771897 489.61474,63.967977 489.82709,67.389967 494.65945,62.850203 497.47431,60.205784 497.41803,60.047188 498.91786,74.851337 499.96092,85.146821 499.90195,86.542057 498.28394,89.851337 496.78303,92.921131 495.94472,93.53367 493,93.712222 L 489.5,93.924445 492.72958,92.467688 C 496.5627,90.738689 497.36184,88.29734 496.70757,80.314987 496.03199,72.07255 494.62207,67.431558 492.9157,67.833333 489.91607,68.539613 489.60746,68.448215 489.23475,66.743174 489.02354,65.77692 490.17122,62.343796 491.78516,59.114011 494.36558,53.950132 494.62441,52.654039 493.93053,48.370837 492.35544,38.647974 496.49437,23.930033 501.22601,22.428267 505.83173,20.966469 510.02176,29.548207 510.74192,41.918088 511.16552,49.194104 511.60659,50.891876 513.64047,53.075277 516.36333,55.998304 518.14516,61.147086 517.04815,62.922088 516.64367,63.576551 514.57143,64.327998 512.44316,64.591969 506.41943,65.339099 505.82166,67.665338 508.65395,79.337878 L 510.31313,86.175756 507.40656,93.233258 C 504.60133,100.04471 500,105.30798 500,101.70531 z M 504.38146,42.386023 C 507.88156,43.84846 508,43.828082 508,41.763425 508,39.132186 504.27208,35 501.89827,35 499.53072,35 496,39.674596 496,42.809173 L 496,45.348628 498.38146,43.111364 C 500.64384,40.985966 500.94385,40.949698 504.38146,42.386023 z M 499.77287,32.827126 C 500.66227,31.937731 501.55655,31.932549 503.47287,32.805687 505.72028,33.829671 506,33.734223 506,31.943378 506,29.316477 503.14696,25 501.41067,25 500.66305,25 499.3648,26.327653 498.52568,27.95034 496.04655,32.744451 496.82228,35.77772 499.77287,32.827126 z"/>
</svg>
