<?xml version="1.0" encoding="UTF-8"?>
<svg xmlns="http://www.w3.org/2000/svg" viewBox="752.85 15.85 33.15 91.29">
  <path d="M 756.75045,92.25 C 759.10764,88.814111 760.44052,84.091787 762.46606,72 764.28453,61.144335 764.83441,52.502106 763.77417,51.441249 763.37496,51.041811 762.35158,51.293249 761.5,52 758.30454,54.651999 758.64232,51.708782 761.86376,48.830425 766.65663,44.547995 767.41148,45.956591 766.04858,56.639493 765.42685,61.512772 764.49555,69.1 763.979,73.5 762.31765,87.651779 759.69891,95 756.3169,95 755.15122,95 755.23697,94.456072 756.75045,92.25 z M 776.33097,28.008886 C 773.12393,25.263773 770.01076,23.013773 769.41279,23.008886 768.81483,23.003999 765.74805,24.845728 762.59774,27.101617 757.31089,30.887448 754.84707,31.6745 756.46188,29.061678 757.40384,27.53755 768.66806,20 770.00377,20 771.00767,20 777.37277,24.570522 780.79674,27.75 781.5371,28.4375 782.56071,29 783.07143,29 783.58214,29 784,29.9 784,31 784,33.987036 782.74171,33.496271 776.33097,28.008886 z M 758.04796,41.75 C 758.11417,40.024164 767.09389,33 769.234,33 771.59389,33 782,40.101664 782,41.712176 782,43.883381 779.70462,43.143248 775.10927,39.490294 772.69437,37.570632 769.99437,36.004368 769.10927,36.009706 768.22417,36.015044 765.52417,37.590044 763.10927,39.509706 758.19871,43.413228 757.98044,43.509839 758.04796,41.75 z M 764,99.031648 C 760.64461,98.470088 760.59025,98.395357 762.68426,97.222943 763.8856,96.550324 765.5731,96 766.43426,96 767.29542,96 768,95.55 768,95 768,94.45 768.45,94 769,94 770.39083,94 770.25012,96.317632 768.75,98.117576 767.87243,99.170548 766.45721,99.442888 764,99.031648 z M 772.5846,97.856729 C 770.14237,92.011637 770.61057,53.73006 773.18554,48.722835 774.0566,47.028975 774.23774,47.027363 777.04972,48.688443 780.06681,50.470682 781.03493,53 778.7,53 777.985,53 776.91079,52.51079 776.31287,51.912868 775.65089,51.250887 774.99659,51.196506 774.63979,51.773813 773.33129,53.891017 772.75993,85.632873 773.89976,92.88643 775.2041,101.18687 774.72793,102.98643 772.5846,97.856729 z"/>
</svg>
