<?xml version="1.0" encoding="UTF-8"?>
<svg xmlns="http://www.w3.org/2000/svg" viewBox="1434.75 63 36.25 30.49">
  <path d="M 1437.6562 87.59375 L 1436.75 91 C 1437.5612 91.129132 1438.2529 91.301555 1439.4375 91.25 C 1441.8499 91.145005 1445.6721 90.31269 1447.9375 89.40625 C 1451.738 87.885565 1452.2204 87.877625 1453.875 89.375 C 1456.2159 91.493471 1459.3175 91.441356 1461.1562 89.25 C 1463.5566 86.389519 1469 73.55516 1469 70.75 C 1469 67.937471 1466.6837 65 1464.4688 65 C 1463.7104 65 1461.4273 67.013459 1459.375 69.46875 C 1453.8989 76.019902 1446.3549 78.441364 1440.75 75.96875 L 1439.875 79.1875 C 1442.2277 80.332636 1443.8149 80.581112 1447.25 79.9375 C 1453.8534 78.700275 1456.8984 76.895932 1459.9688 72.375 C 1462.9766 67.946105 1466.302 67.184623 1466.8125 70.78125 C 1467.1108 72.882337 1460.5306 87.563184 1458.8125 88.625 C 1458.3921 88.884861 1456.6771 88.083712 1455 86.84375 C 1452.2112 84.781934 1451.6654 84.694489 1448.7188 85.9375 C 1446.9466 86.685038 1443.482 87.48222 1441 87.71875 C 1439.8027 87.832845 1438.7007 87.77384 1437.6562 87.59375 z "/>
</svg>
