<?xml version="1.0" encoding="UTF-8"?>
<svg xmlns="http://www.w3.org/2000/svg" viewBox="1114.61 16.9 29.93 89.15">
  <path d="M 1118.0002,99.500429 C 1116.6122,95.849772 1117.8366,91.201843 1121.7593,85.229937 1125.6241,79.346315 1125.63,80.008955 1121.5814,65 1118.7078,54.346803 1118.3765,47.839407 1120.3254,40.326315 1121.7384,34.87912 1128.6737,22.384149 1130.7398,21.563201 1132.2667,20.956512 1136.4341,25.005007 1138.606,29.204955 1139.4942,30.922634 1140.7002,36.948735 1141.2859,42.596292 1142.4112,53.446902 1141.825,59.670801 1138.5476,71.666952 1137.042,77.177788 1137.0209,78.139688 1138.349,80.708036 1140.9626,85.762091 1142.5373,95.525248 1141.2092,98.440256 1139.8525,101.41774 1137.3909,101.80699 1136.5559,99.176068 1136.2375,98.172905 1134.5877,96.035405 1132.8898,94.426068 L 1129.8026,91.5 1125.0719,96.75 C 1122.47,99.6375 1120.0283,102 1119.6458,102 1119.2634,102 1118.5228,100.87519 1118.0002,99.500429 z M 1125.2628,93 C 1127.2378,90.8 1129.2752,89 1129.7905,89 1130.9677,89 1136,93.973025 1136,95.136364 1136,95.611364 1136.675,96 1137.5,96 1139.4688,96 1139.4196,90.842081 1137.3999,85.5 1134.0615,76.670196 1133.9999,76.021598 1136.0008,70.755845 1139.5405,61.440055 1140.5372,52.112982 1139.0992,41.76207 1137.8718,32.927924 1134.8821,25.094814 1132.4351,24.301813 1130.161,23.564887 1125.1489,32.610778 1123.0728,41.198734 1121.9328,45.914765 1121,50.63866 1121,51.696278 1121,54.618869 1125.0565,70.139518 1126.6203,73.20034 1128.6105,77.095609 1128.3317,79.698574 1125.5309,83.370549 1121.4236,88.755571 1118.5836,97 1120.836,97 1121.2957,97 1123.2878,95.2 1125.2628,93 z"/>
</svg>
