<?xml version="1.0" encoding="UTF-8"?>
<svg xmlns="http://www.w3.org/2000/svg" viewBox="346.93 15.52 29.23 97.27">
  <path d="M 374.15625 93.1875 C 373.82812 92.949873 373.53373 92.791337 373.1875 92.5 C 369.14309 89.09685 368.74261 86.117283 368.90625 61 C 369.0038 46.025611 368.58278 36.93807 367.5625 31.09375 C 365.9389 21.793558 364.8996 19.945917 362.21875 21.625 C 360.95924 22.413859 360.17807 25.221263 359.28125 32.09375 C 358.60669 37.263032 356.90641 49.6 355.53125 59.5 C 354.15608 69.4 352.56289 81.55 351.96875 86.5 C 351.3746 91.45 350.39521 97.608727 349.78125 100.1875 C 348.92893 103.76745 348.95105 105.23046 349.875 106.34375 C 351.55689 108.37029 354.21253 107.41065 358.09375 103.40625 C 359.91288 101.52938 361.69602 100 362.0625 100 C 362.42898 100 364.38188 101.32873 366.40625 102.9375 C 368.16509 104.33525 369.95265 105.08612 372.0625 105.65625 L 372.5625 102.59375 C 370.60714 101.97035 368.62946 101.11763 366.59375 99.96875 L 360.84375 96.71875 L 357.84375 100.375 C 356.19467 102.37562 354.22245 104 353.4375 104 C 352.65254 104 352.01296 103.8875 352.03125 103.75 C 352.04954 103.6125 352.97746 98.1 354.09375 91.5 C 355.21004 84.9 356.74916 74.325 357.5 68 C 358.25084 61.675 359.36178 52.675 359.96875 48 C 360.57571 43.325 361.20958 36.655718 361.40625 33.1875 C 361.81231 26.02652 362.47882 24.693657 363.90625 28.125 C 365.15881 31.136014 367.25625 47.764419 366.53125 48.9375 C 366.23273 49.420513 365.96269 58.195273 365.9375 68.4375 C 365.88643 89.209826 366.74946 92.379977 373.625 96.46875 L 374.15625 93.1875 z "/>
</svg>
