<?xml version="1.0" encoding="UTF-8"?>
<svg xmlns="http://www.w3.org/2000/svg" viewBox="992.44 17.28 49.82 86.07">
  <path d="M 1018.9062,21.75 C 1018.3542,21.93713 1017.7765,22.392181 1017.0938,23.125 1015.9462,24.35666 1015,25.752978 1015,26.21875 1015,26.684521 1013.7055,29.326323 1012.125,32.09375 L 1009.25,37.125 1005.625,33.3125 C 1003.6353,31.213093 1002.0047,28.988327 1002,28.375 1001.9845,26.38448 997.788,21.805754 996.84375,22.75 995.22542,24.368339 994.70525,33.574357 996,37.625 996.77682,40.055305 999.27435,43.434134 1002.6875,46.65625 L 1008.1562,51.8125 1008.3438,67.65625 C 1008.511,83.206524 1008.4581,83.531276 1006.25,84.5 1005.0125,85.042921 1004,85.854668 1004,86.3125 1004,88.097024 1008.4056,86.365583 1010.2812,83.84375 1012.1582,81.320186 1012.2098,80.503726 1011.1875,67.9375 1009.8206,51.136098 1011.4794,37.815167 1016,29.34375 L 1018.9062,23.875 1020.5312,27.6875 C 1023.3657,34.330054 1024.2777,44.405376 1023.0938,56.53125 1021.0345,77.619749 1022.3893,85.156619 1028.4062,85.84375 1028.9609,85.907093 1029.6273,85.749153 1030.25,85.6875 L 1030.25,83.40625 C 1025.4382,83.192728 1023.4324,76.364809 1024.5,62.875 L 1025.2188,53.78125 1030.0938,48.90625 C 1035.8668,43.102785 1040,35.434486 1040,30.53125 1040,26.278516 1038.3308,25.952628 1034.9688,29.53125 1033.098,31.522713 1027.6927,35 1026.4688,35 1026.3452,35 1025.2278,32.314298 1024,29.03125 1021.838,23.250106 1020.5624,21.188611 1018.9062,21.75 z M 997.40625,29 C 997.63477,29 1000.361,31.5875 1003.4375,34.75 1007.9678,39.406866 1008.9599,41.070202 1008.75,43.4375 1008.6075,45.045144 1008.0008,46.492817 1007.4062,46.6875 1005.4396,47.33155 1000.8357,42.751204 998.90625,38.25 997.19719,34.262935 996.33577,29 997.40625,29 z M 1036.375,33.125 C 1037.9141,32.475352 1036.0054,38.31006 1033.4688,42 1030.8982,45.73922 1027.5902,48.277775 1026.5938,47.28125 1026.2594,46.946954 1026,44.785843 1026,42.5 1026,38.551169 1026.2465,38.243717 1030.75,35.9375 1033.357,34.60251 1035.8793,33.334207 1036.375,33.125 z M 1030.25,95.9375 C 1027.7688,96.556008 1024.9013,96.056366 1022.4062,94.09375 L 1019.7188,92 1015.2188,94.5 C 1012.7527,95.878255 1009.8757,97 1008.8125,97 1007.7493,97 1007.1601,97.45 1007.5,98 1008.3841,99.43052 1009.9091,99.225195 1014.8125,97 1019.1111,95.049203 1019.1645,95.058611 1023.0312,97.03125 1025.7823,98.43471 1028.1883,99.02937 1030.25,98.90625 L 1030.25,95.9375 z"/>
</svg>
