<?xml version="1.0" encoding="UTF-8"?>
<svg xmlns="http://www.w3.org/2000/svg" viewBox="182.28 16.72 37.44 84.64">
  <path d="M 187.90625 80.21875 L 186.4375 83.9375 C 187.08683 83.701078 188.01492 83.661244 189.875 83.78125 C 192.64024 83.959654 195.1593 83.459293 196.71875 82.4375 C 202.20435 78.843196 205.02459 67.281871 206.5625 42 C 207.24482 30.783291 208.59383 25.764617 210.8125 26.1875 C 213.06751 26.617307 213.52946 36.416937 212.03125 52 C 210.30371 69.968393 206.88741 81.627597 200.8125 90.25 C 198.43743 93.621048 194.26633 93.850085 188.6875 90.90625 C 186.24265 89.616157 185.35661 88.812722 185.1875 87.5 L 184.28125 92.4375 C 185.02806 92.596133 185.77763 92.776892 187.34375 93.375 C 198.16337 97.50705 200.77892 96.603406 205.9375 86.875 C 211.17988 76.988537 213.9394 66.045641 215.84375 47.65625 C 216.36775 42.596277 216.7875 40.354586 217.71875 38.5625 L 217.34375 34 L 217.375 33.25 C 216.5538 32.786308 216.07618 31.146378 215.5 28.0625 C 214.34318 21.870849 212.01311 20.562877 208 23.8125 C 205.6634 25.704564 204.70845 31.436009 201.96875 60.34375 C 200.58063 74.990278 197.51526 81 191.40625 81 C 189.8454 81 188.50245 80.649755 187.90625 80.21875 z "/>
</svg>
