<?xml version="1.0" encoding="UTF-8"?>
<svg xmlns="http://www.w3.org/2000/svg" viewBox="1540.54 21.5 50.33 77">
  <path d="M 1562.9934,92.75 C 1562.9898,91.5125 1562.1662,89.255469 1561.1632,87.734376 1557.4913,82.165869 1553.3485,80.665508 1549.5589,83.531803 1548.4912,84.339312 1546.9162,84.989994 1546.0589,84.977764 1543.8504,84.946262 1548.6196,81.339147 1552.6888,79.963408 1555.1971,79.115357 1556.5037,79.20911 1558.812,80.402774 1560.4259,81.237377 1562.0285,81.638182 1562.3732,81.293451 1564.9646,78.702086 1559.7818,70.394907 1554.1073,68.044443 1551.7048,67.049314 1550.6554,67.126853 1548.0098,68.494952 1544.4072,70.357887 1542.8245,69.746916 1545.1719,67.399488 1547.8575,64.713932 1554.4127,64.455916 1558.5117,66.874423 1560.4932,68.043491 1562.3136,69 1562.5572,69 1562.8007,69 1563,66.793646 1563,64.096991 1563,59.494588 1562.6781,58.882238 1557.75,54.109317 1552.2651,48.797185 1550.0835,47.989564 1548,50.5 1546.4433,52.375739 1545,52.434646 1545,50.622445 1545,48.94523 1546.7234,47.483125 1549.8207,46.532566 1551.7116,45.952263 1552.8407,46.577827 1555.9171,49.910177 1557.9937,52.15958 1560.2119,54 1560.8464,54 1561.6057,54 1561.9938,51.692953 1561.982,47.25 1561.9642,40.587907 1561.9111,40.456127 1557.9077,37.131205 1554.5174,34.315432 1553.2891,33.853671 1550.4258,34.318335 1546.3766,34.975419 1545.8452,33.389546 1549.6321,31.949783 1552.8612,30.722091 1554.638,31.244502 1558.4681,34.547703 1561.2022,36.905746 1561.4922,36.965322 1562.1478,35.303729 1562.5392,34.311678 1562.8911,31.5875 1562.9297,29.25 1562.9684,26.9125 1563.4197,25 1563.9326,25 1565.4122,25 1566.1644,28.606893 1565.4637,32.341766 1564.5887,37.005995 1565.9673,37.492821 1571.5878,34.504365 1576.1273,32.090677 1576.4363,32.055362 1578.9136,33.667057 1581.9654,35.652504 1583.9239,38.00948 1583.9682,39.75 1584.0175,41.689038 1581.5142,41.225642 1579.4162,38.907376 1575.8445,34.960725 1574.5573,34.857951 1569.6242,38.125526 L 1565,41.188473 1565,49.035219 C 1565,53.35093 1565.4437,57.156186 1565.986,57.491344 1566.5283,57.826502 1568.9303,56.95306 1571.3239,55.550361 1573.7174,54.147663 1576.8203,53 1578.2192,53 1580.9018,53 1587,58.340573 1587,60.689838 1587,62.927256 1584.5054,62.137231 1581.4371,58.928103 1578.0523,55.387967 1575.3576,55.45368 1569.5471,59.21806 L 1566.0248,61.5 1566.0124,70.366577 C 1565.9983,80.427256 1564.8673,79.712899 1575.8559,76.583439 1580.5326,75.251557 1581.5634,75.239972 1583.9847,76.492082 1586.7496,77.921875 1588.5771,80.756249 1587.4565,81.876808 1587.1317,82.201612 1585.2086,81.537492 1583.183,80.400985 1579.026,78.068671 1575.4162,78.408237 1569.8402,81.656103 1566.7484,83.457032 1566.4777,84.025537 1566.2001,89.300859 1565.9804,93.475048 1565.5122,95 1564.4501,95 1563.6149,95 1562.9972,94.04589 1562.9934,92.75 z"/>
</svg>
