<?xml version="1.0" encoding="UTF-8"?>
<svg xmlns="http://www.w3.org/2000/svg" viewBox="215.34 20.35 36.94 75.86">
  <path d="M 217.71875 38.5625 C 218.2775 37.487248 218.96871 36.540324 220.125 35.34375 C 224.87703 30.42617 229.4845 27.815818 232.71875 28.1875 C 235.16542 28.468674 235.61176 29.066523 236.4375 33.34375 C 237.10407 36.796516 237.02479 38.663869 236.1875 39.84375 C 230.07138 48.462403 229.37825 55.75258 234.5 57.46875 C 236.15 58.021623 237.84592 58.942855 238.25 59.5 C 239.81902 61.663375 238.88301 67.24535 236.125 72.25 C 230.84572 81.8297 230.95406 85.932372 236.5625 88.59375 C 245.3452 92.761417 250.28591 83.944705 244.46875 74.5 C 241.20307 69.197845 241.00262 60.694596 244.0625 57.4375 C 247.50847 53.769436 246.2339 45.939418 241.5625 42.0625 C 240.65033 41.30547 240 39.18588 240 37 C 240 30.620947 238.82731 26.949495 236.28125 25.28125 C 234.01597 23.796985 233.54511 23.831166 229.53125 25.78125 C 227.15794 26.934295 223.56259 29.310211 221.53125 31.09375 C 219.43605 32.933363 218.22609 33.730572 217.375 33.25 L 217.34375 34 L 217.71875 38.5625 z M 237.9375 43.15625 C 238.72751 43.119485 239.62013 43.973009 240.96875 45.6875 C 242.42719 47.54161 243.01783 49.500143 242.8125 51.9375 C 242.48329 55.845357 241.15769 56.472021 236.75 54.84375 C 233.54571 53.660034 233.12896 50.583024 235.53125 45.9375 C 236.47296 44.116423 237.14749 43.193015 237.9375 43.15625 z M 239.03125 73 C 240.66738 73 244.12271 80.019367 243.8125 82.71875 C 243.56865 84.8406 242.91421 85.563672 241 85.75 C 236.99857 86.139495 234.71454 84.257342 235.4375 81.15625 C 236.41605 76.958859 238.16191 73 239.03125 73 z "/>
</svg>
