<?xml version="1.0" encoding="UTF-8"?>
<svg xmlns="http://www.w3.org/2000/svg" viewBox="1305.98 11.67 56.6 95.87">
  <path d="M 1358.7812,42.84375 1356.5625,44.53125 C 1354.8246,45.856798 1351.255,47.881672 1348.6562,49.03125 L 1343.9375,51.125 1339.7188,47.875 C 1337.3978,46.085834 1335.3155,44.474029 1335.0938,44.3125 1334.8719,44.150971 1336.7844,42.070819 1339.3438,39.6875 1343.2269,36.071313 1344,34.771841 1344,31.75 1344,29.758397 1343.5647,27.860935 1343.0312,27.53125 1342.4978,27.201565 1339.9391,28.05586 1337.3438,29.4375 1332.8712,31.818442 1328.9371,32.053252 1326.7188,30.0625 1326.2949,29.682075 1326.7297,27.024809 1327.6562,24.15625 1328.8542,20.446936 1329.0121,18.605862 1328.25,17.84375 1326.4299,16.02366 1320.5328,18.739183 1315.0625,23.875 1310.629,28.037397 1310,29.078809 1310,32.59375 1310,35.515598 1310.8714,37.756783 1313.1875,40.90625 L 1316.3438,45.21875 1314.5312,49.875 C 1308.591,65.033563 1308.5478,65.26153 1308.5625,76 1308.575,85.128878 1308.8856,87.152915 1311.0312,91.5 1312.8288,95.141692 1314.5305,97.016179 1317.3125,98.375 1321.0908,100.22045 1321.1936,100.20215 1326.8125,98 1336.3165,94.275174 1338.2104,94.30224 1342.625,98.25 1344.7479,100.1484 1347.175,101.96993 1348,102.28125 1350.3791,103.17898 1352.6561,103.08569 1355.5938,101.96875 1357.4003,101.28193 1358.5274,101.30704 1359.25,101.9375 L 1359.3438,100.65625 1359.3438,94.6875 C 1358.9888,95.59354 1358.5484,96.451578 1357.9688,97.03125 1354.2381,100.7619 1351.0621,100.49523 1345.1875,95.9375 1339.0459,91.172598 1336.2672,91.047765 1327.1875,95.09375 1322.2919,97.275285 1321.6709,97.327921 1319.1875,95.9375 1314.8664,93.518084 1311.6029,84.262632 1311.625,74.5 1311.6457,65.396071 1312.7384,61.325391 1317.6875,51.6875 L 1321.1875,44.875 1317.5938,40.28125 C 1314.7883,36.680294 1314,34.760806 1314,31.5 1314,27.849471 1314.4859,26.930026 1317.9375,24.15625 1320.1052,22.414199 1322.4053,21 1323.0312,21 1324.09,21 1323.8422,23.911481 1322.375,29.15625 1321.2055,33.33707 1331.1419,35.547658 1337.1562,32.4375 1340.7635,30.572114 1341.3077,30.907829 1340.4375,34.375 1340.0198,36.039324 1338.0466,38.036472 1334.9062,39.96875 1332.2128,41.62607 1330,43.403842 1330,43.9375 1330,45.194873 1333.6901,48.742755 1337.5,51.125 1341.7572,53.786978 1345.1673,53.458027 1352.2812,49.75 1355.6298,48.004638 1358.577,46.492435 1359.0938,46.25 L 1358.7812,42.84375 z M 1359.5625,51.28125 C 1358.6028,54.179097 1355.5844,56.79373 1349.8438,59.53125 1346.647,61.055704 1346.0918,61.033265 1340.9688,59.21875 1337.9642,58.154604 1333.7952,56.545171 1331.7188,55.625 1327.955,53.9571 1327.9283,53.963647 1325.375,56.71875 1321.7894,60.58761 1320.1095,65.115023 1319.5938,72.3125 1319.0801,79.481612 1320.4259,86.685204 1322.7188,89.21875 1324.8065,91.525756 1329.4105,91.434138 1334.8438,88.96875 1340.2388,86.520651 1341.5323,86.511326 1343.1875,88.84375 1346.1002,92.948078 1352.7432,94.262984 1356.4375,91.46875 1357.5052,90.661241 1358.7427,90 1359.1875,90 1359.2674,90 1359.2758,90.132915 1359.3438,90.15625 L 1359.3438,86.59375 C 1358.7432,87.779965 1357.7347,88.099752 1356.0312,88.96875 1351.0141,91.528343 1350.8511,91.538283 1347.9375,88.40625 1344.0344,84.210473 1341.635,83.754328 1334.9688,86 1331.7133,87.096704 1328.3855,88 1327.5625,88 1325.2389,88 1324.0286,84.758067 1323.3438,76.65625 1322.8447,70.751301 1323.1212,68.126299 1324.5938,64.03125 1327.2622,56.61065 1327.9746,56.289942 1334.75,59.28125 1343.5292,63.157164 1346.2367,63.447121 1351.1875,61.09375 1353.5521,59.969706 1356.2514,58.494243 1357.1875,57.8125 1357.9635,57.24744 1358.7746,57.093926 1359.2812,57.25 L 1360,56 1359.5625,51.28125 z"/>
</svg>
