<?xml version="1.0" encoding="UTF-8"?>
<svg xmlns="http://www.w3.org/2000/svg" viewBox="1809 15.65 35.01 90.39">
  <path d="M 1839.375,89.46875 C 1838.4966,89.380098 1837.5677,89.065173 1836.5312,88.3125 1833.3551,86.006073 1832.6816,83.94804 1833.9688,80.5625 1835.4704,76.613132 1835.2512,73.472687 1832.8125,63.9375 1830.177,53.632403 1830.6346,51.535604 1835.25,52.5625 1840.023,53.624474 1841.2371,53.613733 1841.625,52.5 1841.9098,51.681996 1832.0922,47.904272 1829.8438,47.96875 1828.8475,47.997321 1827.6801,53.168795 1827.9062,56.5 1828.0181,58.15 1828.8168,61.730348 1829.6875,64.4375 1830.885,68.160855 1831.1263,71.472244 1830.6562,78.09375 L 1830.0312,86.84375 1834.2188,89.9375 C 1836.681,91.748266 1838.4672,92.606526 1840.0312,92.71875 L 1839.375,89.46875 z M 1841.3125,98.78125 C 1838.0772,98.20009 1831.2706,95.222815 1830.4375,93.875 1829.2736,91.991744 1825.3236,93.125214 1822.7188,96.09375 1821.2212,97.800305 1820,99.375305 1820,99.59375 1820,100.76575 1822.9348,99.729486 1824.5,98 1826.4374,95.859219 1829.4785,95.347273 1830.5,97 1830.8431,97.555144 1832.7856,98.898202 1834.8125,99.96875 1836.7712,101.00328 1839.8904,101.8581 1841.9375,101.9375 L 1841.3125,98.78125 z M 1821.1562,20.125 C 1820.4924,19.762937 1820,20.184134 1820,21.53125 1820,23.39868 1822.6257,29.84977 1824.125,31.65625 1825.583,33.413034 1827.0697,32.416467 1831.375,26.75 1835.4105,21.438647 1835.5936,21 1833.625,21 1832.8653,21 1831.0386,22.595946 1829.5625,24.53125 1826.5495,28.481498 1825.4161,28.259879 1823.375,23.375 1822.6461,21.630333 1821.8201,20.487063 1821.1562,20.125 z M 1840.375,20.375 C 1839.0183,20.5544 1837.0084,23.337765 1834.0625,29 1830.8257,35.22159 1830.1665,37.303355 1830.875,39.15625 1831.8309,41.656265 1834.5601,44.384114 1837,45.28125 1839.2563,46.110893 1842.0087,46.097906 1842,45.25 1841.9958,44.8375 1840.1958,43.472673 1838,42.21875 1835.4239,40.747656 1834,39.234453 1834,37.9375 1834,35.754997 1837.1027,29.128603 1840.1875,24.75 1841.2505,23.241254 1841.8587,21.592233 1841.5312,21.0625 1841.217,20.554097 1840.8272,20.3152 1840.375,20.375 z M 1813.375,23.09375 C 1813.0988,23.200365 1812.8592,23.433604 1812.625,23.8125 1812.3459,24.264074 1813.6666,27.649887 1815.5938,31.34375 1819.5903,39.003911 1819.4936,40.340139 1814.375,46.65625 1812.5171,48.948813 1811,51.311313 1811,51.90625 1811,56.496333 1820.7773,45.253547 1821.625,39.6875 1821.9461,37.579452 1821.3776,35.155317 1819.9375,32.5 1818.7442,30.3 1817.1168,27.2625 1816.3125,25.75 1815.2078,23.672447 1814.2036,22.773905 1813.375,23.09375 z M 1821.625,49 C 1820.9417,49 1818.8544,51.025 1817,53.5 1815.1456,55.975 1813.2603,58 1812.8125,58 1812.3648,58 1812,58.675 1812,59.5 1812,61.733366 1813.7367,61.318719 1816.1875,58.5 1821.0983,52.852114 1822.2978,56.491979 1818.875,66.625 L 1816.7812,72.90625 1818.8438,79.6875 C 1821.0584,86.943152 1821.1677,86.16155 1816.6875,94.4375 1815.8156,96.048065 1815.3457,97.735565 1815.625,98.1875 1816.4811,99.572639 1819,99.076472 1819,97.53125 1819,96.730675 1820.125,94.432426 1821.5,92.40625 1824.3919,88.14476 1824.5744,85.879537 1822.5,80 1820.4327,74.140597 1820.6047,69.845484 1823.1562,64.59375 1825.1521,60.485686 1825.2364,59.668925 1824.0938,54.5625 1823.4014,51.469221 1822.3167,49 1821.625,49 z"/>
</svg>
