<?xml version="1.0" encoding="UTF-8"?>
<svg xmlns="http://www.w3.org/2000/svg" viewBox="1394.89 10 30.21 94.51">
  <path d="M 1399.7812 88.5 L 1400.0625 91.3125 C 1402.7535 91.686387 1403.6187 90.775971 1405.8125 87.5625 C 1410.6248 80.513409 1413.4591 63.724531 1411.9688 51 C 1411.4856 46.875 1411.0555 42.692308 1411.0312 41.6875 C 1411.0072 40.682692 1409.5999 38.474878 1407.9062 36.78125 C 1401.3228 30.197767 1400.6765 26.257625 1405.1562 20.5625 C 1410.0882 14.292597 1420 19.694908 1420 28.65625 C 1420 31.100398 1419.2903 34.508999 1418.4062 36.21875 C 1417.216 38.520505 1416.721 42.842426 1416.5 52.90625 C 1416.0272 74.437435 1413.802 85.317179 1408.3125 93.25 C 1406.8852 95.3125 1405.2377 96.993236 1404.625 96.96875 C 1404.3309 96.956997 1401.9821 96.174204 1400.5312 95.75 L 1400.8438 99.03125 C 1405.1157 100.21074 1405.9268 99.928126 1408.8125 97.5 C 1411.5112 95.229178 1413.8789 90.329691 1416.8125 81 C 1418.6187 75.255886 1420.267 55.040537 1419.5625 47.15625 C 1419.0382 41.289436 1419.2202 39.297043 1420.5 37.34375 C 1421.3817 35.998156 1422.3591 32.806596 1422.6562 30.21875 C 1423.0986 26.367313 1422.7723 24.864938 1420.8438 22 C 1417.5476 17.103679 1412.4638 14.74162 1407.9062 16 C 1398.638 18.559081 1396.8904 30.831784 1404.9375 36.78125 C 1407.466 38.650667 1407.9311 39.874372 1409.0312 47.625 C 1411.2184 63.032511 1408.1813 81.653299 1402.6562 86.84375 C 1401.421 88.004167 1400.7569 88.493847 1399.7812 88.5 z "/>
</svg>
