<?xml version="1.0" encoding="UTF-8"?>
<svg xmlns="http://www.w3.org/2000/svg" viewBox="1882.63 14.71 52.18 89.88">
  <path d="M 1932.2812,40.03125 1928.3125,43.71875 C 1925.7384,46.11592 1922.9367,47.943596 1922.0938,47.78125 1919.9474,47.367915 1913.0061,37.945634 1913,35.4375 1912.9973,34.297977 1914.3341,31.597977 1915.9688,29.4375 1919.0356,25.384194 1919.8746,22.531361 1917.8125,23.21875 1917.1655,23.434411 1914.914,26.077561 1912.7812,29.09375 1908.1887,35.588624 1908.3422,36.577368 1915.5625,45.875 1920.7558,52.562497 1921.6288,52.66936 1928.4062,47.5 1930.602,45.825275 1931.7344,45.171617 1932.3438,45.25 L 1932.2812,40.03125 z M 1932.375,48.53125 C 1931.3733,50.129512 1928.9327,52.445716 1923.7188,56.875 L 1920.9375,59.21875 1916.0312,54.625 C 1910.3528,49.313443 1908.3834,48.899033 1906.9062,52.75 1905.4686,56.498057 1906.5427,62.374836 1909.6562,67.6875 1912.3475,72.27995 1912.3254,72.031143 1910.375,84.1875 1909.8801,87.271662 1910.2207,88.314474 1912.375,90.46875 1913.7937,91.8874 1915.4408,93.959248 1916.0312,95.0625 1917.0517,96.969201 1919,96.900961 1919,94.96875 1919,94.470348 1917.5624,92.430567 1915.8125,90.4375 1912.6404,86.82473 1912.6344,86.797637 1913.8125,81.09375 1915.485,72.996208 1915.3123,71.083214 1912.5625,67.0625 1909.7647,62.971514 1908.5077,57.177744 1909.9375,55 1910.7516,53.760137 1911.6648,54.231387 1915.25,57.75 1917.6296,60.085447 1920.0317,62 1920.5938,62 1921.1558,62 1924.0068,59.975 1926.9062,57.5 1929.7086,55.107979 1932.0384,53.285771 1932.4375,53.15625 L 1932.375,48.53125 z M 1908.5,21.03125 C 1907.748,20.932821 1906.9939,21.305112 1906.9688,22.25 1906.9504,22.9375 1905.9959,24.625 1904.8438,26 1902.8505,28.378799 1902.6926,28.402976 1901.625,26.625 1896.9271,18.800616 1894.3434,19.502076 1898.2812,27.53125 1899.7574,30.54088 1901.4183,33 1901.9375,33 1903.3889,33 1910,24.516431 1910,22.65625 1910,21.70807 1909.252,21.129679 1908.5,21.03125 z M 1887.8438,23 C 1886.0791,23 1887.1305,27.091889 1890,31.34375 1891.65,33.788586 1893,36.625932 1893,37.65625 1893,38.686569 1891.2,41.712695 1889,44.375 1886.8,47.037304 1885,49.657058 1885,50.1875 1885,50.717942 1885.6187,50.990328 1886.375,50.8125 1888.2124,50.380461 1897,39.99339 1897,38.25 1897,35.76159 1889.3403,23 1887.8438,23 z M 1896.7188,48 C 1895.6629,48 1888.0965,56.056003 1888.0312,57.25 1887.9504,58.729225 1890.4264,57.964141 1892.75,55.78125 1894.7572,53.895615 1895.241,53.781567 1896.0312,55.03125 1897.6395,57.574354 1897.0913,61.886257 1894.5,67 1891.3768,73.16334 1891.3972,74.635086 1894.5938,82.625 L 1897.1562,89.0625 1895.0938,92.59375 C 1893.9493,94.533439 1893,96.768938 1893,97.5625 1893,99.978918 1898.8605,99.299448 1902.1875,96.5 1905.9342,93.347347 1906.2577,93.365518 1910.2188,96.96875 1913.738,100.17002 1914.5603,100.5131 1915.4375,99.09375 1915.953,98.259715 1907.315,90.015117 1905.9062,90 1905.5754,89.996449 1903.8385,91.39651 1902.0625,93.09375 1900.2865,94.790991 1898.6502,95.993959 1898.4375,95.78125 1898.2248,95.56854 1898.5557,93.800809 1899.1562,91.84375 1900.069,88.869619 1899.9007,87.339912 1898.125,82.59375 1895.3648,75.216705 1895.4461,72.443684 1898.625,65.5 L 1901.25,59.78125 1899.4688,53.875 C 1898.4882,50.636479 1897.2445,48 1896.7188,48 z"/>
</svg>
