<?xml version="1.0" encoding="UTF-8"?>
<svg xmlns="http://www.w3.org/2000/svg" viewBox="1721.02 17.83 69.49 89.22">
  <path d="M 1786.125,50.21875 1782.375,52.625 C 1772.379,59.017667 1770.2746,59.332902 1762.5,55.59375 1759.7421,54.267356 1756.7125,52.931344 1755.75,52.625 1753.2722,51.836382 1753.5297,47.670429 1756.4375,41.59375 1758.9218,36.401907 1759.3293,34.654085 1759.125,29.71875 1758.9381,25.20622 1756.32,25.267182 1751.625,29.875 1745.9812,35.413982 1745,35.201953 1745,28.59375 1745,25.118883 1744.5481,23.036992 1743.7188,22.71875 1741.56,21.890358 1731.6989,28.387153 1728.25,32.90625 1724.3237,38.050932 1724.1736,40.872943 1727.5938,44.9375 1729.9469,47.734153 1730.7207,48 1736.0938,48 L 1742,48 1742,51.0625 C 1742,52.738407 1740.2595,57.350907 1738.125,61.3125 1729.075,78.109102 1728.8405,94.281821 1737.5625,100.03125 1742.071,103.00323 1745.4603,102.47201 1753.4375,97.5 1757.4085,95.025 1761.8037,93 1763.1875,93 1764.5713,93 1767.5728,94.363571 1769.875,96.03125 1774.8841,99.659814 1778.4811,100.51827 1783.1875,99.21875 1785.0093,98.715745 1785.8943,98.747616 1786.5938,99.0625 L 1786.6562,98.65625 1786.6562,92.96875 C 1785.9853,95.069905 1784.2566,96.089908 1780.8438,96.59375 1777.6836,97.060293 1773.3205,95.092243 1765.7188,89.75 1764.2236,88.699184 1762.8245,89.117894 1756.7188,92.40625 1752.7425,94.547751 1748.7746,96.910251 1747.9062,97.65625 1744.2755,100.77556 1737.7951,97.849299 1735.875,92.25 1734.1646,87.262146 1734.4542,77.583203 1736.4688,72 1737.3619,69.525 1739.853,64.483656 1742.0312,60.8125 1746.3149,53.592708 1746.9135,49.762525 1744.3438,46.09375 1742.8979,44.029397 1742.1595,43.819875 1738,44.3125 1732.2676,44.991422 1729,43.152278 1729,39.25 1729,37.40692 1730.4945,35.191305 1734,31.8125 1739.3089,26.695421 1742.6297,25.471647 1741.5,29.03125 1740.5987,31.870855 1741.8229,36.71469 1743.625,37.40625 1745.5646,38.150513 1748.6582,36.560403 1752.75,32.6875 L 1756,29.59375 1756,33.0625 C 1755.9933,34.957892 1754.9177,38.364579 1753.625,40.625 1749.0985,48.540177 1749.0801,56 1753.5938,56 1754.95,56 1758.3149,57.138902 1761.0625,58.53125 1763.8102,59.923598 1767.5097,61.122062 1769.2812,61.1875 1772.5297,61.307493 1779.5041,58.288449 1783.875,54.875 1784.9438,54.040337 1785.7668,53.72935 1786.4375,53.6875 L 1786.125,50.21875 z M 1786.8438,58.875 C 1786.3048,59.82869 1785.724,60.810549 1784.75,61.75 1778.9035,67.389287 1771.0771,68.610448 1764,65 1758.9193,62.408016 1753.9704,62.437652 1750.5938,65.09375 1745.3726,69.200621 1739.4797,84.364175 1741.7812,87.78125 1742.2575,88.488237 1744.2631,89.338905 1746.2188,89.65625 1749.0927,90.122634 1750.9973,89.544942 1756.2188,86.625 1759.7715,84.638168 1763.8424,83 1765.25,83 1766.7103,83 1769.6097,84.502961 1772,86.5 1776.6809,90.410816 1778.1532,90.681799 1783.375,88.5 L 1786.6562,87.125 1786.6562,82.78125 C 1786.3126,83.133895 1785.9457,83.450635 1785.4062,83.875 1780.7364,87.548372 1778.7211,87.524334 1773.25,83.59375 1770.5094,81.6248 1767.0581,80 1765.5938,80 1762.3312,80 1756.7682,82.250475 1753.3125,84.96875 1750.2775,87.356076 1746.1633,87.635592 1745.3438,85.5 1743.8538,81.617308 1748.1582,70.40658 1752.2188,67.5625 1755.1837,65.485736 1757.8965,65.582037 1763.1562,67.96875 1770.0156,71.08124 1775.8365,70.647083 1781.9062,66.5625 1784.7115,64.674694 1787.0466,63.212194 1787.0938,63.3125 1787.102,63.33 1787.1674,64.688636 1787.1875,64.9375 L 1787.3438,64.65625 1786.8438,58.875 z"/>
</svg>
