<?xml version="1.0" encoding="UTF-8"?>
<svg xmlns="http://www.w3.org/2000/svg" viewBox="104.94 18.62 27.55 86.3">
  <path d="M 118.77524,96.474273 C 117.41448,93.673427 116.08549,92.148915 115.28824,92.474273 114.57971,92.763423 113.325,93.273145 112.5,93.606989 110.06005,94.594336 110.78038,91.960592 113.54507,89.785886 115.83738,87.982759 116.0244,87.322908 115.42822,83.141966 114.649,77.677494 113.63256,76.230131 111.70037,77.833706 109.08771,80.002026 108.97172,77.63896 111.55829,74.939154 113.50771,72.904403 114.06522,71.409817 113.8223,68.869821 113.55101,66.033391 113.06472,65.449915 110.75,65.183578 109.2375,65.009545 108,64.476935 108,64 108,63.523065 109.2375,62.990455 110.75,62.816422 113.14686,62.540633 113.54034,62.010397 113.8141,58.687331 114.09871,55.232622 113.84052,54.766076 111.0641,53.718094 107.16449,52.246156 107.1351,51 111,51 113.63768,51 114,50.652778 114,48.125 114,46.54375 114.27122,43.893902 114.60271,42.236449 115.15627,39.468659 114.91161,39.125934 111.60271,38.033897 106.93585,36.493695 106.96756,34.830628 111.65661,35.206718 114.87115,35.464544 115.40137,35.180066 116.04241,32.853628 116.64785,30.656385 116.28184,29.845159 113.8858,28.073691 112.29861,26.90023 111,25.278597 111,24.470063 111,22.5433 113.89666,22.567135 114.63837,24.5 115.29984,26.223752 118.11308,26.486925 119.63278,24.967217 121.40873,23.19127 123.62481,24.921954 125.82157,29.800464 129.50327,37.976673 130.21499,43.026972 130.35929,62 130.48824,78.953722 130.30072,81.126869 128.11583,88 125.31528,96.809788 123.33154,101 121.96132,101 121.4183,101 119.98456,98.963423 118.77524,96.474273 z M 124.34812,89.25 C 128.17475,77.203468 129.06266,53.059638 126.14095,40.5 124.7983,34.72832 122.27888,29 121.08304,29 120.32661,29 119.10472,32.886842 117.46782,40.5 116.66221,44.246907 116.69419,71.663968 117.51011,76.74113 118.75597,84.493716 121.24409,94 122.02735,94 122.47391,94 123.51825,91.8625 124.34812,89.25 z"/>
</svg>
