<?xml version="1.0" encoding="UTF-8"?>
<svg xmlns="http://www.w3.org/2000/svg" viewBox="550.3 18.16 52.45 85.74">
  <path d="M 552.6875,35.46875 554.3125,39.84375 C 554.42701,38.557905 555.81939,37.255214 559.65625,34.5 568.25157,28.32778 571.05695,27.114644 576.71875,27.0625 581.14224,27.02176 582.46313,27.447152 585.40625,30.03125 590.46397,34.471984 592.20624,39.945166 591.6875,49.5625 591.31629,56.44471 591.67771,58.694382 594.3125,66.5 598.01632,77.472657 598.55826,89.340876 595.625,94.84375 593.95073,97.984733 593.96336,98.160892 595.59375,97.84375 596.54641,97.65844 597.8994,95.925 598.59375,94 600.17728,89.609832 600.37274,76.056676 598.90625,72.3125 595.67121,64.052959 594,55.449379 594,46.96875 594,36.397697 592.29701,31.976682 586.46875,27.53125 579.29311,22.058122 570.4522,23.621057 559,32.40625 555.57071,35.036919 553.92342,35.904069 552.6875,35.46875 z M 577.375,31 C 573.36408,31 573.58513,32.480469 577.71875,33.3125 582.78561,34.332376 584.46065,38.868666 584.53125,52 584.57642,60.402234 585.03242,64.442798 586.21875,67 590.14819,75.470134 591.21776,83.708547 589.65625,93.25 589.12796,96.478023 589.2307,98 589.96875,98 591.87227,98 593.22067,92.729305 593.28125,85 593.32959,78.83248 592.80099,76.345184 590.4375,71 587.98178,65.446236 587.55172,63.100061 587.4375,54.96875 587.26486,42.678553 586.40586,38.243339 583.375,34.25 581.41662,31.669702 580.16024,31 577.375,31 z M 555.09375,42.03125 556.71875,46.53125 C 558.34715,43.551572 564.02812,39.95422 568.8125,39.3125 576.12411,38.331808 578.52739,43.619843 576.5,56.125 575.87666,59.969824 576.23066,61.909119 578.53125,67.625 580.79243,73.242962 581.3233,76.145889 581.40625,83.5 581.46208,88.45 581.15617,94.1875 580.71875,96.25 580.08871,99.220696 580.19858,100 581.34375,100 582.24378,100 583.2373,98.207424 583.9375,95.25 586.27033,85.396825 585.39107,76.209317 581.28125,67 579.28485,62.526443 578.94859,60.56687 579.46875,56.5 581.43204,41.150017 578.96151,36.423762 569.375,37.21875 565.84393,37.511574 562.7512,38.57548 559.9375,40.4375 556.8877,42.455761 555.78398,42.796415 555.09375,42.03125 z"/>
</svg>
