<?xml version="1.0" encoding="UTF-8"?>
<svg xmlns="http://www.w3.org/2000/svg" viewBox="842.12 18.67 51.68 84.87">
  <path d="M 860.56953,96.909268 C 851.31469,91.948969 846.15371,80.848919 845.25948,63.98094 844.47105,49.108598 849.58964,31.486001 856.61104,24.899094 858.68597,22.952558 860.15321,22.523287 864.38912,22.623446 867.26053,22.691342 870.98084,23.455854 872.65649,24.322363 880.7502,28.507786 885.6536,39.308934 884.4858,50.379862 883.87045,56.213569 883.98369,56.659769 886.90553,59.913766 890.36711,63.768878 891.45709,67.960509 890.77811,74.806183 889.89169,83.743234 883.57596,94.035285 876.79966,97.585319 872.8011,99.680123 865.14427,99.361185 860.56953,96.909268 z M 879.15404,92.25 C 888.85602,83.5038 891.04066,68.029075 883.68339,60.166724 881.75036,58.100998 881.5,56.724992 881.5,48.166724 881.5,39.065053 881.32341,38.238462 878.47902,34.025695 874.34789,27.907171 869.78224,25 864.30437,25 860.79538,25 859.39152,25.553519 857.37098,27.733713 850.23298,35.43574 846.54111,53.67825 848.8656,69.761037 851.41567,87.40467 858.2475,95.98807 869.74712,95.996262 874.40678,95.999581 875.45996,95.580157 879.15404,92.25 z M 862.89788,87.729315 C 860.88692,86.385462 858.07139,82.813949 856,78.979315 852.55441,72.600719 852.5,72.313464 852.5,60.5 852.5,49.11357 852.65977,48.16765 855.62481,42 858.937,35.11023 862.21745,31 864.4041,31 866.8718,31 870.74769,34.93181 872.99687,39.716731 874.81013,43.574275 875.12397,45.539788 874.65029,50.071702 874.32873,53.148219 873.78427,56.398597 873.44038,57.294765 873.03738,58.344967 873.81937,59.854864 875.64028,61.542427 880.17471,65.744797 881.98636,69.207325 881.99341,73.6849 882.0021,79.202352 880.55881,82.793489 876.7425,86.75 872.86449,90.77048 867.96711,91.116902 862.89788,87.729315 z M 874.36416,85.538309 C 877.5506,82.585218 879,79.093172 879,74.369159 879,70.18445 877.81317,67.732381 873.39689,62.792733 L 870.08242,59.085467 871.63946,53.842344 C 872.91859,49.535051 872.98308,47.87642 872.00077,44.549611 870.59091,39.774819 866.48502,34 864.5,34 862.16066,34 858.31517,40.116112 856.09491,47.367997 854.02591,54.125825 853.86868,61.733023 855.61681,70.5 856.55624,75.211261 861.91329,84.626783 864.31892,85.794784 869.95987,88.533619 871.16538,88.50284 874.36416,85.538309 z"/>
</svg>
