<?xml version="1.0" encoding="UTF-8"?>
<svg xmlns="http://www.w3.org/2000/svg" viewBox="1047.29 16.25 25.57 88.79">
  <path d="M 1059.0677,99.126426 C 1058.4804,98.029207 1058,95.976899 1058,94.565741 1058,91.433669 1057.3098,91.360362 1054.3145,94.174314 1050.8585,97.421018 1051.4393,94.402624 1055.0652,90.273007 1056.801,88.29599 1057.8852,86.143262 1057.5652,85.309205 1057.2543,84.499176 1057,82.717587 1057,81.350118 L 1057,78.863812 1053.9424,81.040997 C 1049.6478,84.09902 1049.2947,82.907869 1053.3029,78.883333 1056.9516,75.219601 1058.2664,71.734842 1057.3386,68.186906 1056.7826,66.060514 1056.6163,66.021417 1054.3748,67.490108 1051.1442,69.606862 1051.2487,67.378778 1054.5,64.82134 1057.7017,62.30286 1057.6573,60.295539 1054.3229,56.81515 1051.3728,53.735881 1051.672,52.218894 1054.8898,53.941008 1056.6841,54.901293 1057.0345,54.710613 1057.5975,52.467742 1058.4753,48.970049 1057.4239,43.125846 1055.5427,41.047231 1053.4331,38.716065 1053.6075,37.664098 1056,38.289749 1057.7456,38.746245 1058,38.320431 1058,34.941564 1058,32.174475 1057.4631,30.783045 1056.1176,30.062964 1054.1598,29.015164 1052.5714,26.095222 1053.4703,25.196336 1053.7549,24.911762 1054.8791,25.485559 1055.9684,26.471441 1057.8874,28.208068 1057.9787,28.186148 1058.898,25.768361 1060.9822,20.286497 1065.1957,21.292006 1067.5438,27.831584 1069.6025,33.56505 1070.8674,60.49426 1069.8121,76.123155 1068.9144,89.417539 1065.5975,100.34375 1062.3177,100.81068 1060.9401,101.0068 1059.7416,100.38573 1059.0677,99.126426 z M 1064.8336,91 C 1069.0495,77.275612 1068.0784,29.799763 1063.5041,26.0034 1062.4252,25.107956 1062.0107,26.196152 1061.3351,31.698215 1060.3122,40.029854 1060.3071,91.757471 1061.329,94.417217 1062.2395,96.787273 1063.4048,95.651077 1064.8336,91 z"/>
</svg>
