<?xml version="1.0" encoding="UTF-8"?>
<svg xmlns="http://www.w3.org/2000/svg" viewBox="1552.35 11.95 58.3 89.1">
  <path d="M 1607.9688,45.15625 1602.8125,46.90625 C 1595.3474,49.427272 1593.1108,49.514113 1588.625,47.375 1582.6385,44.520264 1581.2332,38.00598 1585.5938,33.3125 1590.6263,27.895886 1593.5008,20.045552 1591,18.5 1590.4434,18.155976 1587.5728,19.250936 1584.625,20.9375 1581.6772,22.624065 1578.5858,24 1577.75,24 1576.9104,24 1575.5092,22.20982 1574.625,20 1573.4837,17.147763 1572.4361,16 1570.9688,16 1564.6254,16 1555,26.261717 1555,33.03125 1555,39.253512 1556.3365,40.235218 1564.2812,39.84375 L 1571.4062,39.5 1572.3438,42.71875 C 1573.2074,45.701128 1572.8997,46.332253 1568.125,51.84375 1561.3773,59.632674 1559.988,63.194152 1560,72.71875 1560.0191,87.966315 1567.2903,97 1579.5,97 1583.3291,97 1584.5016,96.39687 1589.3125,92 1592.3215,89.25 1595.3088,87 1595.9375,87 1596.5661,87 1599.2995,88.146985 1602.0312,89.53125 1605.2743,91.174606 1606.6925,92.426753 1606.9062,93.75 L 1608,92.65625 1607.6562,84.53125 C 1607.5711,84.821541 1607.545,85.044607 1607.4062,85.40625 1606.6468,87.385613 1604.2727,87.41582 1599.6875,85.5 1595.3156,83.673287 1593.6156,84.233746 1588.5,89.09375 1583.8411,93.519824 1580.6721,94.831574 1576.5,94.0625 1568.9601,92.672623 1563.8336,84.920671 1563.1875,73.96875 1562.6077,64.139461 1564.1435,59.994531 1571.125,52.53125 1577.0485,46.199013 1577.1644,45.995072 1576.0625,42.65625 1575.4438,40.78163 1574.0503,38.447543 1572.9688,37.46875 1571.2333,35.8982 1570.5252,35.846608 1567.125,36.96875 1559.1822,39.59012 1555.8924,35.051755 1560.0312,27.25 1562.4517,22.687248 1566.2894,19 1568.625,19 1569.3715,19 1570.7822,20.6875 1571.75,22.75 1573.8673,27.261935 1577.4524,28.099789 1582.3125,25.25 1590.5329,20.429945 1591.5263,22.966354 1584.5,30.78125 1579.7429,36.072277 1579.3988,37.310067 1581.0312,43.1875 1581.8282,46.056891 1583.0708,47.433564 1586.6562,49.4375 1592.1925,52.531768 1593.9651,52.592397 1601.5,50 1605.1667,48.738488 1607.0402,48.139369 1608,48.25 L 1608,45.34375 1607.9688,45.15625 z M 1608,53.75 C 1607.2461,54.778659 1605.7353,55.500286 1602,56.84375 1596.2651,58.906413 1594.9703,59.048039 1591,58.03125 1581.6069,55.625726 1581.1606,55.643818 1577.375,58.53125 1572.65,62.135186 1570.902,66.623926 1570.875,75.1875 1570.8495,83.239804 1572.4775,86 1577.2188,86 1580.6826,86 1583.3696,84.707105 1587.7812,80.875 1591.9734,77.233778 1595.3754,76.380433 1598.25,78.25 1599.4835,79.052236 1602.1875,80.261453 1604.25,80.9375 1606.0976,81.543113 1607.0968,81.976948 1607.5625,82.5625 L 1607.3438,77.34375 1607.3125,77.25 C 1606.3762,78.665807 1604.3238,78.037047 1599.7188,76 1594.3818,73.639205 1592.1032,74.184632 1585.6562,79.375 1578.1481,85.419759 1575.4802,84.78191 1574.375,76.71875 1573.5194,70.47646 1574.589,65.639344 1577.625,62.03125 1580.5641,58.538324 1582.3532,58.344884 1589.125,60.75 1593.9167,62.451875 1594.1916,62.440709 1600.4688,60.25 1603.9999,59.017587 1607.2855,58 1607.7812,58 L 1608,57.34375 1608,53.75 z"/>
</svg>
