<?xml version="1.0" encoding="UTF-8"?>
<svg xmlns="http://www.w3.org/2000/svg" viewBox="404.78 17.71 118.36 87.54">
  <path d="M 414.90625,79.625 413.90625,83.34375 C 414.60995,83.285928 415.87438,83.452872 417.4375,83.96875 420.56797,85.001898 421.59344,84.874018 425.59375,82.9375 L 430.1875,80.71875 434.09375,82.9375 C 442.76541,87.811245 447.34283,83.208034 447.4375,69.5625 447.49858,60.758046 445.47056,55.440959 441.46875,53.96875 438.90709,53.026351 432.5551,55.155453 429.59375,57.9375 428.3676,59.089414 427.10268,59.758931 426.78125,59.4375 425.9749,58.631153 427.59872,53.27836 429.5625,50.28125 431.47194,47.367074 434.24157,47.480005 443,50.875 446.025,52.047569 449.02574,52.834067 449.65625,52.59375 451.69287,51.817493 452.22561,42.92382 450.5625,37.5 448.38734,30.406238 448.56727,28.50396 451.59375,27.125 453.79255,26.123163 454.71045,26.280523 457.59375,28.0625 459.46599,29.219606 461.0042,30.476108 461,30.84375 460.9958,31.211393 460.0916,34.425 459,38 456.67316,45.620461 456.42695,51.289513 458.375,52.90625 459.3766,53.7375 460.97935,53.787804 464.125,53.0625 470.49892,51.592845 471.55495,51.744793 474.15625,54.53125 480.31809,61.131684 486.58934,62.523282 489.09375,57.84375 489.72412,56.665893 492.00178,50.030804 494.15625,43.125 498.31076,29.808438 499.96037,27 503.5625,27 506.98895,27 514,35.798966 514,40.09375 514,40.625207 513.2991,41.325624 512.4375,41.65625 511.42121,42.046237 509.85341,41.069404 508,38.875 503.84151,33.951442 502.32008,35.46568 498.0625,48.65625 496.06334,54.849926 493.24707,61.316045 491.625,63.4375 489.02571,66.837013 488.39017,67.165829 485.25,66.65625 483.33367,66.345272 478.59242,64.20755 474.71875,61.90625 L 467.6875,57.71875 464.46875,59.4375 C 457.99315,62.924839 457.12766,75.030537 462.96875,80.25 466.52784,83.430316 467.44591,83.554368 472.4375,81.46875 L 476.125,79.9375 480.78125,84.03125 C 484.55939,87.356901 485.98411,88.040678 488.21875,87.59375 491.88398,86.860705 496,84.102986 496,82.375 496,80.425094 494.25141,80.663669 491.28125,83 489.88283,84.1 488.37988,85 487.9375,85 487.49512,85 485.0419,83.2 482.5,81 477.29532,76.495384 476.49313,76.336245 471.5625,78.6875 468.25796,80.263327 467.94143,80.2376 466.125,78.59375 461.21582,74.151001 460.92185,65.404899 465.59375,62.34375 467.96574,60.789565 468.27952,60.833743 471.125,62.9375 475.51563,66.183629 484.11603,69.994168 487,69.96875 488.375,69.956631 490.23924,69.393278 491.125,68.71875 494.08848,66.461988 498.81579,57.580193 501.5,49.25 502.9621,44.7125 504.53115,41 505,41 505.46885,41 506.73092,42.125 507.8125,43.5 510.2818,46.639202 512.42545,46.668295 515.5,43.59375 517.54519,41.548562 517.76045,40.714031 517,38.0625 514.84965,30.564655 508.45315,23.999946 503.28125,24 498.95111,24.000046 495.5626,29.26577 490.90625,43.1875 488.63871,49.967096 486.3316,56.042807 485.78125,56.71875 484.52972,58.255885 482.27531,57.143951 477.03125,52.40625 473.02358,48.785567 470.13156,48.232766 464.1875,49.9375 L 460.90625,50.875 461.125,45.5 C 461.24502,42.533423 461.92452,38.677771 462.65625,36.9375 463.94041,33.883382 464.16148,33.791584 468.46875,34.4375 475.43714,35.482475 479.6125,31.885609 477.03125,27.0625 474.97445,23.219324 472.61162,22.846607 467.5625,25.53125 463.16889,27.867354 462.78063,27.910278 460.4375,26.375 459.07347,25.481258 457.53052,24.015895 457.03125,23.125 456.22477,21.685892 455.53799,21.818272 450.75,24.40625 L 445.375,27.3125 442.3125,25.0625 C 438.63106,22.340699 436.36444,22.619781 433.75,26.125 432.30541,28.061783 431.9715,29.579757 432.46875,31.84375 433.31636,35.702896 435.81419,36.51522 440.5625,34.53125 442.59504,33.682001 444.60222,33 445.03125,33 446.33795,33 448,39.025638 448,43.75 L 448,48.21875 444.75,47.6875 C 442.9625,47.403502 439.7,46.71661 437.5,46.125 431.76718,44.583368 428.60572,46.110755 425.8125,51.84375 423.03779,57.538749 422.58305,67.253672 425.0625,67.75 426.05442,67.948558 427.38918,66.47484 428.78125,63.6875 431.03438,59.176034 434.24602,57 438.59375,57 441.97059,57 444.01933,61.980825 444,70.21875 443.97556,80.633671 440.79725,84.123751 435.09375,80.0625 431.47977,77.489117 429.05156,77.454498 424.8125,79.90625 421.98375,81.542321 420.9937,81.650815 418,80.65625 L 414.90625,79.625 z M 438.9375,26.3125 C 440.44016,26.662108 442,28.088287 442,29.46875 442,30.854753 437.506,33.193496 436.59375,32.28125 435.39323,31.080736 436.02669,26.909115 437.5,26.34375 437.92776,26.179604 438.43661,26.195964 438.9375,26.3125 z M 471.21875,27.1875 C 473.89746,26.637631 475.93325,28.164169 473.96875,30.53125 472.56895,32.217904 470.14583,32.40458 468,30.96875 466.70167,30.100003 466.75735,29.750631 468.4375,28.46875 469.34699,27.774846 470.32585,27.37079 471.21875,27.1875 z M 498,86 C 496.05276,86 490.91915,90.08403 491.5625,91.125 491.91069,91.688384 493.47959,91.254266 495.3125,90.09375 498.64972,87.980771 499.96017,86 498,86 z M 413.40625,85.28125 412.3125,89.40625 C 412.79642,89.376739 413.2028,89.309228 414.25,89.53125 419.2173,90.584389 419.22734,90.590971 419.71875,89.25 420.003,88.474337 418.95603,87.734955 417,87.34375 415.31871,87.007493 414.04458,86.168829 413.40625,85.28125 z M 411.375,92.84375 410.15625,97.4375 C 411.03269,97.403182 411.97053,97.466352 413.875,97.8125 418.51301,98.655486 419.6141,98.453457 425.5,95.71875 L 431.96875,92.6875 437.0625,95.34375 C 442.92624,98.385967 445.87852,98.633441 450.125,96.4375 452.86989,95.018064 453.51719,95.022134 457.46875,96.53125 462.2925,98.373456 464.42966,98.016729 469.75,94.40625 471.69503,93.086314 473.78542,92 474.40625,92 475.02708,92 477.7127,93.8 480.375,96 486.36604,100.9507 490.3775,101.27059 496.0625,97.25 498.20114,95.7375 499.95701,93.9375 499.96875,93.25 500.00031,91.401993 498.7807,91.710691 495,94.5 490.49145,97.826306 488.13549,97.654979 483.4375,93.65625 476.36765,87.638704 475.9492,87.564702 468.53125,91.5 L 461.9375,95.03125 458.09375,92.8125 454.25,90.59375 449.59375,93.0625 444.90625,95.5 439.96875,92.75 C 433.83628,89.349921 430.43562,89.303292 424.84375,92.5 419.07151,95.799821 412.91369,95.761435 411.375,92.84375 z"/>
</svg>
