<?xml version="1.0" encoding="UTF-8"?>
<svg xmlns="http://www.w3.org/2000/svg" viewBox="1248.84 16.4 19.48 90.31">
  <path d="M 1250.8438 85.125 L 1251.25 89.28125 C 1251.6867 89.372066 1252 89.635891 1252 90.1875 C 1252 90.297493 1251.5284 90.615749 1251.4062 90.78125 L 1252 96.625 L 1252.8438 97.6875 C 1253.8521 98.952919 1256.1112 99.962093 1258.6875 100.28125 C 1266.3231 101.2272 1266.0333 102.59991 1266.0938 65.34375 C 1266.1497 30.853885 1265.7296 23.834358 1263.4062 21.90625 C 1262.6439 21.273445 1260.0902 20.697417 1257.75 20.625 L 1253.5 20.5 L 1252.7812 29 C 1252.3779 33.675 1252.1082 45.6 1252.1875 55.5 C 1252.3659 77.762332 1252.4986 83.014473 1250.8438 85.125 z M 1259.2812 23 C 1262.6227 22.97117 1263.0858 27.608542 1263.125 61.875 C 1263.1603 92.811999 1263.0034 95.528011 1261.375 96.71875 C 1259.2839 98.247825 1258.9622 98.271142 1257 97.03125 C 1255.7219 96.223624 1255.4457 90.789147 1255.1875 60.375 C 1254.8686 22.8187 1254.8594 23.038152 1259.2812 23 z "/>
</svg>
