<?xml version="1.0" encoding="UTF-8"?>
<svg xmlns="http://www.w3.org/2000/svg" viewBox="160.96 14.3 60.4 89.11">
  <path d="M 176.72597,97.728284 C 176.02382,95.898503 176.75219,45.831549 177.577,39.229979 178.22404,34.051284 178.14477,33.73558 176.38507,34.482611 171.71124,36.466744 169.20792,36.246966 167.54325,33.706345 163.70728,27.851919 170.7276,18.352068 175.04531,23.554596 178.09071,27.224076 179.76308,27.213011 185.59119,23.484819 L 191.18995,19.90333 196.43735,23.951665 C 199.32342,26.178249 202.12551,28 202.66423,28 203.20295,28 205.41138,26.662519 207.57186,25.02782 209.73234,23.393121 212.2324,22.043121 213.12756,22.02782 216.65361,21.967549 218.61338,27.913167 216.44782,32.100911 215.18369,34.54547 214.34518,34.93324 209.75137,35.197693 L 204.5,35.5 203.4493,44.280887 C 202.87142,49.110375 202.55172,62.160375 202.73885,73.280887 203.10159,94.836758 202.81305,98 200.48402,98 199.20933,98 199.07566,94.941119 199.51175,75.75 199.78982,63.5125 200.24162,48.70707 200.51575,42.849044 L 201.01416,32.198088 196.1183,28.099044 C 193.42558,25.84457 190.57236,24 189.77783,24 188.98329,24 186.65718,25.4625 184.60868,27.25 179.90291,31.356221 179.88284,31.526245 179.7997,68 179.76396,83.675 179.52127,97.0625 179.26037,97.75 178.64798,99.363773 177.3493,99.352645 176.72597,97.728284 z M 174.53194,30.964706 C 176.32505,28.983339 176.31858,28.87414 174.28779,26.84335 171.61648,24.172036 170,25.195831 170,29.559017 170,33.532618 171.72406,34.067376 174.53194,30.964706 z M 187.54896,63.75 C 188.02822,37.161167 188.41656,30.438574 189.48738,30.193386 190.58125,29.942919 190.837,35.161841 190.88398,58.693386 190.94806,90.791481 190.54239,97 188.38097,97 187.15586,97 187.03598,92.209271 187.54896,63.75 z M 213.96123,31.072442 C 215.27093,28.625247 214.29735,26 212.0801,26 210.07529,26 204.65876,31.325426 205.65267,32.319333 207.18166,33.848327 212.93795,32.984464 213.96123,31.072442 z"/>
</svg>
