<?xml version="1.0" encoding="UTF-8"?>
<svg xmlns="http://www.w3.org/2000/svg" viewBox="1281.82 15.96 45.24 88.8">
  <path d="M 1285.4562,79.25 C 1284.9848,67.8375 1284.5471,55.35 1284.4837,51.5 1284.4203,47.65 1284.2486,41.8 1284.1023,38.5 1283.9559,35.2 1283.8731,31.976447 1283.9181,31.336548 1284.0245,29.825405 1295.776,20 1297.477,20 1298.1932,20 1300.5164,21.576487 1302.6396,23.503305 1308.431,28.758962 1310.4485,28.944457 1314.8692,24.627739 1316.9125,22.632483 1319.1499,21 1319.8411,21 1321.5717,21 1324.9513,28.773457 1324.978,32.815741 1325.0036,36.669917 1323.4731,40 1321.6763,40 1320.9869,40 1318.661,39.101739 1316.5076,38.003864 1314.3542,36.905989 1312.2751,36.343489 1311.8875,36.753864 1311.4999,37.164239 1310.8783,51 1310.5062,67.5 1309.8974,94.494033 1309.2983,100.63167 1307.4527,98.78607 1306.6419,97.975211 1306.6473,95.32256 1307.5283,61.981219 L 1308.3082,32.462438 1303.0459,27.731219 C 1300.1517,25.129048 1297.4727,23 1297.0927,23 1296.7127,23 1294.0543,25.078481 1291.1852,27.618846 L 1285.9687,32.237693 1286.5362,38.368846 C 1286.8483,41.740981 1287.2676,48.55 1287.468,53.5 1289.38,100.72878 1289.3746,100 1287.8149,100 1286.5554,100 1286.1753,96.65602 1285.4562,79.25 z M 1296.3728,64.499894 C 1296.2569,33.041644 1296.6963,26.316962 1298.4971,31.990775 1299.3745,34.75521 1299.4611,96.444898 1298.5896,97.855071 1298.2004,98.484782 1297.571,98.999952 1297.191,98.999894 1296.8109,98.999836 1296.4428,83.474836 1296.3728,64.499894 z M 1321.7084,31.862417 C 1321.4031,29.586746 1320.5422,27.113589 1319.7951,26.366511 1318.6507,25.222079 1317.9109,25.488465 1315.0974,28.058194 L 1311.7581,31.108201 1315.0733,33.5541 C 1316.8967,34.899345 1319.2604,36 1320.3259,36 1322.0197,36 1322.1936,35.479729 1321.7084,31.862417 z"/>
</svg>
