<?xml version="1.0" encoding="UTF-8"?>
<svg xmlns="http://www.w3.org/2000/svg" viewBox="1039.38 18.01 54.01 87.82">
  <path d="M 1071.8035,99.775523 C 1071.2227,98.052923 1072.599,51.406153 1073.5089,41.976434 L 1074.2348,34.452867 1069.684,29.476434 1065.1331,24.5 1061.4497,28.133528 1057.7663,31.767056 1057.5025,63.719676 C 1057.2551,93.698465 1056.8522,99.99949 1055.1826,100.00035 1054.8072,100.00055 1054.6192,87.513047 1054.7649,72.250353 1054.9106,56.987659 1054.7581,42.37861 1054.426,39.7858 L 1053.8222,35.071599 1050.9065,37.227235 C 1048.5479,38.971035 1047.4663,39.199462 1045.2454,38.422872 1042.9233,37.610903 1042.4529,36.816285 1042.1944,33.269642 1041.8304,28.275999 1043.3397,25 1046.0044,25 1047.0681,25 1049.7447,25.941511 1051.9525,27.092246 L 1055.9665,29.184491 1060.1633,25.592246 C 1062.4715,23.616511 1064.8245,22 1065.3921,22 1065.9598,22 1068.3007,23.841547 1070.5941,26.092327 L 1074.7639,30.184653 1078.802,27.512307 C 1083.865,24.161786 1086.9555,24.495864 1088.6123,28.572794 1090.9333,34.283735 1085.9027,39.149404 1080.2458,36.665095 1079.0059,36.120608 1077.7626,35.904055 1077.4828,36.183866 1076.4387,37.227963 1075.0446,62.129879 1075.0227,80.127555 1075.0049,94.745188 1074.7022,99.002232 1073.6168,99.903079 1072.5651,100.7759 1072.1305,100.74532 1071.8035,99.775523 z M 1050.553,33.941464 C 1052.658,31.61547 1051.6549,28.769062 1048.5126,28.151607 1046.3326,27.723223 1045.0356,29.614015 1045.0153,33.25 1044.9964,36.642027 1047.793,36.991222 1050.553,33.941464 z M 1062.7609,96.75 C 1062.9585,94.9625 1063.4307,79.775 1063.8101,63 1064.2513,43.494563 1064.8605,32.594011 1065.5,32.760796 1066.6191,33.052648 1066.6548,88.148099 1065.5407,95.577303 1064.7641,100.75586 1062.1984,101.83826 1062.7609,96.75 z M 1085.8655,33.275823 C 1087.0363,31.183749 1085.5876,28 1083.4648,28 1082.6592,28 1081.0315,28.96847 1079.8478,30.152156 1077.774,32.225978 1077.7628,32.353372 1079.539,33.652156 1082.0655,35.499615 1084.709,35.342367 1085.8655,33.275823 z"/>
</svg>
