<?xml version="1.0" encoding="UTF-8"?>
<svg xmlns="http://www.w3.org/2000/svg" viewBox="341.98 14.76 31.58 89.51">
  <path d="M 371.5625 95.875 L 368.125 87.5625 C 365.78796 89.065153 364.4259 85.957482 363.09375 77.3125 C 362.48424 73.357146 362 67.861221 362 65.09375 L 362 60.0625 L 362.96875 60.09375 L 361.65625 53.65625 C 361.21662 52.679422 361.0559 51.628609 361.0625 50.71875 L 360 45.34375 L 360 44.03125 C 359.90174 43.930384 359.55592 43.769308 359.53125 43.6875 C 356.81198 34.669151 353.19964 27.323471 349.5 23.25 C 347.12709 20.637325 344.8342 18.8303 344.40625 19.25 C 343.97831 19.6697 344.37696 23.2697 345.28125 27.25 C 346.18554 31.2303 347.22023 38.55 347.5625 43.5 C 348.2544 53.506531 346.53825 85.035415 344.9375 91.90625 C 344.37144 94.335911 344.15628 96.923411 344.4375 97.65625 C 345.21479 99.681835 347.11095 99.226987 351.375 96 C 354.99557 93.260002 355.42784 93.169883 358 94.5 C 359.51431 95.283081 361.01937 96.623408 361.34375 97.46875 C 362.39425 100.2063 367.36454 99.311793 371.5625 95.875 z M 350.875 30.53125 C 351.07263 30.630103 351.36623 31.187455 351.71875 32 C 354.86845 39.259963 357.84634 53.990613 358.90625 67.53125 C 360.26801 84.928075 361.63856 90.199095 365.03125 91 C 366.388 91.320284 367.5 92.238579 367.5 93.03125 C 367.5 95.317097 364.78123 95.071575 361.09375 92.4375 C 357.31413 89.737615 354.92333 89.412616 352.03125 91.21875 C 350.96373 91.88543 349.86516 92.208914 349.59375 91.9375 C 349.32233 91.666087 349.57698 85.376517 350.15625 77.96875 C 350.73551 70.560984 350.96819 56.4 350.6875 46.5 C 350.33206 33.96359 350.2821 30.23469 350.875 30.53125 z "/>
</svg>
