<?xml version="1.0" encoding="UTF-8"?>
<svg xmlns="http://www.w3.org/2000/svg" viewBox="216.1 14.96 85.8 88.92">
  <path d="M 296.3125 60.28125 L 294 56 L 298 45.34375 L 296.8125 43.59375 C 295.39946 45.083555 293.10471 46.654394 289.03125 48.75 C 281.22406 52.766428 280.68195 52.903049 277.96875 51.5 C 276.40109 50.689332 274.83206 49.525338 274.46875 48.9375 C 272.71886 46.106107 268.8192 45.930753 263.34375 48.4375 C 258.675 50.574922 257.8201 50.729015 257.3125 49.40625 C 256.5657 47.460107 257.61588 37.112678 258.90625 33.71875 C 259.82462 31.30325 260.09368 31.223752 263.4375 32.25 C 269.73831 34.183775 274.20502 29.919808 272.59375 23.5 C 272.21083 21.97434 271.24014 21 270.125 21 C 268.02171 21 262.32587 23.675663 261.46875 25.0625 C 260.35803 26.859693 257.89047 25.974876 254.3125 22.5 C 252.33039 20.575 250.32149 19 249.875 19 C 249.4285 19 247.44365 20.422263 245.46875 22.15625 L 241.875 25.3125 L 237.84375 23.03125 C 234.55346 21.182001 233.37437 20.961253 231.4375 21.84375 C 227.52748 23.625274 226.74841 31.211254 230.25 33.40625 C 231.56219 34.228811 233.11165 34.082208 236.46875 32.875 L 240.9375 31.28125 L 242.09375 34.78125 C 243.46335 38.931171 243.84368 48.49523 242.6875 49.65625 C 242.2416 50.104018 239.4989 49.165263 236.59375 47.59375 C 231.74203 44.969258 231.0953 44.85753 228.46875 46.125 C 224.09599 48.235125 220 56.849657 220 63.96875 C 220 70.46885 221.47219 75.572873 223.5625 76.375 C 225.53846 77.133246 226.66854 74.540256 227.5 67.25 C 227.9359 63.42801 228.94006 60.11577 230.09375 58.75 L 231.96875 56.5 L 235.5 60.25 C 239.80724 64.833587 239.91187 67.577556 236 72.5 C 234.35 74.576255 233 76.73389 233 77.3125 C 233 80.842915 237.68542 97.317498 238.8125 97.75 C 239.55828 98.036182 241.0939 97.343602 242.21875 96.21875 C 243.92261 94.514887 244.2444 93.027273 244.125 87.21875 C 243.991 80.699739 244.17403 80.031821 247.09375 76.90625 L 250.21875 73.5625 L 253.15625 76.875 C 256.05235 80.116297 256.10439 80.323641 255.4375 87.96875 C 254.81427 95.113377 254.93128 95.931285 256.90625 97.90625 C 258.09163 99.091632 259.47432 99.836827 259.96875 99.53125 C 260.46319 99.225672 262.02699 96.455947 263.4375 93.375 C 266.59947 86.468339 266.72947 80.324411 263.875 73.4375 C 261.81157 68.459095 261.80033 68.210137 263.53125 64.5625 C 266.20696 58.923842 268.79512 58.193346 274.4375 61.5 C 279.60161 64.52637 283.13803 64.443639 287.84375 61.15625 C 289.30996 60.131962 291.61729 59.020608 293 58.6875 C 294.43478 58.341847 295.3121 58.943233 296.3125 60.28125 z M 249.8125 23.21875 C 250.68574 23.257048 251.58949 24.01967 253.34375 25.5625 C 256.1705 28.048569 256.18267 28.121956 255.09375 34.375 C 253.43209 43.916947 253.69011 51.533865 255.71875 53.5625 C 256.83017 54.673924 257.53356 54.868071 257.78125 54.125 C 257.99028 53.497912 258.58069 53.245414 259.09375 53.5625 C 259.6068 53.879585 261.53261 53.201159 263.375 52.0625 C 267.78302 49.338197 270.50083 49.458227 273.78125 52.5 C 278.23759 56.632151 281.66758 56.651565 288.40625 52.59375 C 294.63202 48.844784 296.15056 48.738255 295.28125 52.0625 C 294.65948 54.440126 284.36672 60 280.59375 60 C 279.2345 60 276.49398 59.064293 274.53125 57.90625 C 270.44221 55.493659 267.6311 55.828436 263.8125 59.21875 C 258.58234 63.862306 257.78445 68.192894 261 74.5 C 263.3809 79.169995 263.58487 85.385197 261.5 90.375 C 260.66762 92.367168 259.76641 94 259.53125 94 C 258.37591 94 258.2027 92.010507 259.03125 88.4375 C 259.53437 86.26786 259.95563 83.351 259.96875 81.9375 C 259.9977 78.818651 253.61019 71 251.03125 71 C 250.03882 71 247.3897 72.860294 245.125 75.125 C 241.09241 79.157591 241 79.389514 241 86.1875 C 241 94.827238 239.55396 94.275381 238 85.0625 C 236.76553 77.743734 237.1044 76.345736 241.15625 71.125 C 243.85499 67.647727 243.4416 64.859331 239.46875 59.65625 C 234.34516 52.946095 232.74847 52.341278 228.96875 55.71875 C 226.73836 57.711771 225.7254 59.702181 225.3125 62.78125 C 224.61583 67.976403 222.98499 69.402668 223 64.8125 C 223.01464 60.339052 225.44998 52.670489 227.65625 50.09375 C 230.08792 47.253768 231.98326 47.450669 237.84375 51.09375 C 240.57885 52.793985 243.64231 54.036432 244.65625 53.84375 C 247.23576 53.35356 247.55818 45.93676 245.46875 35.625 L 243.84375 27.53125 L 246.46875 25.25 C 248.09028 23.855221 248.93926 23.180452 249.8125 23.21875 z M 234.3125 24.40625 C 235.01089 24.583688 235.80798 24.954964 236.6875 25.53125 L 239.375 27.28125 L 237.0625 29.15625 C 233.46142 32.072225 231 31.581093 231 27.96875 C 231 25.110473 232.21732 23.873936 234.3125 24.40625 z M 269.5 24.4375 C 270.04573 24.721082 270.03509 25.710313 269.59375 27.46875 C 269.13921 29.279812 268.30212 30 266.65625 30 C 262.13025 30 261.86387 28.105191 266.0625 25.625 C 267.85272 24.56749 268.95427 24.153918 269.5 24.4375 z "/>
</svg>
