<?xml version="1.0" encoding="UTF-8"?>
<svg xmlns="http://www.w3.org/2000/svg" viewBox="329.96 14.83 57.19 91.39">
  <path d="M 352.357,100.05374 C 346.87577,97.725866 345.62759,91.345625 349.08588,83.332905 352.0961,76.358364 352.68984,68.982462 350.50899,65.654067 349.55254,64.19433 348.23806,63 347.58794,63 346.93781,63 344.64824,64.8 342.5,67 340.35176,69.2 338.05858,71 337.40404,71 335.98669,71 335,68.733298 335,65.47723 335,64.179672 334.55,62.839919 334,62.5 332.56198,61.611258 332.76529,58.871324 334.25,59.13069 334.9375,59.25079 337.62471,57.315607 340.22158,54.830284 L 344.94316,50.311515 342.49589,46.994425 C 338.52762,41.615736 337.57003,37.49919 338.90229,31.546027 340.05509,26.394753 345.03401,18.985541 347.3228,19.015313 350.46232,19.056151 351.31943,20.879802 351.14995,27.158253 351.05579,30.646214 351.38524,34.123406 351.88204,34.885347 353.25993,36.998575 357.44512,35.488215 361.52963,31.403703 364.43349,28.499841 365.36746,28.060073 366.5487,29.040415 368.7944,30.904186 368.29663,37.61897 365.5,43.186935 364.125,45.924498 363,48.759774 363,49.487548 363,50.215322 364.57802,52.699539 366.50671,55.008032 371.91546,61.481878 372.4551,66.514239 367.81115,67.172436 365.8892,67.444837 365.40699,68.257813 364.94766,72 364.64388,74.475 363.63138,77.940153 362.69766,79.70034 358.86938,86.917201 361.92381,89.40256 367.90621,83.938482 373.58336,78.753208 375.80587,77.593994 377.45158,78.959816 378.70358,79.998883 378.68518,80.592324 377.31168,83.472584 375.41071,87.458962 376.05053,90.683458 379.47587,94.379459 384.55543,99.860403 381.08944,102.06698 372.14417,99.047071 367.42815,97.454952 366.34473,97.382995 364.57045,98.544049 361.8133,100.34828 355.02597,101.18725 352.357,100.05374 z M 363.58725,95.849323 C 367.64599,93.822291 368.08221,93.790011 371.17492,95.287853 372.97966,96.161917 374.63752,96.695812 374.85905,96.474287 375.08057,96.252762 374.47377,94.410823 373.5106,92.381089 372.10141,89.411445 371.96405,88.02378 372.80731,85.276195 L 373.85524,81.861726 368.97046,86.430863 C 363.5387,91.511639 361.92695,91.926947 359,89 356.40877,86.408765 356.47185,85.395323 359.6575,78.436934 361.9568,73.414603 362.17792,72.118599 361.29799,68.821938 360.54721,66.009104 360.5955,64.750664 361.4825,64.014523 362.14334,63.466079 362.9462,63.279535 363.26665,63.599982 363.5871,63.920429 364.78285,63.886308 365.92389,63.524158 368.46974,62.716134 367.89013,61.424956 361.95656,54.686358 L 357.71799,49.872717 359.68666,47.186358 C 362.03131,43.986966 364,38.600419 364,35.38461 L 364,33.067667 359.60498,36.033834 C 354.50677,39.474572 350.53203,39.862618 349.03518,37.065741 348.46583,36.001899 348,32.364399 348,28.982408 348,21.986477 346.66849,21.391731 343.69513,27.059551 340.80855,32.561939 341.75762,40.82098 345.80639,45.432277 347.56288,47.4328 349,49.642309 349,50.342296 349,51.042283 347.02447,53.007484 344.60992,54.70941 340.50936,57.599753 336.79873,64.132063 338.36675,65.700083 338.67809,66.011426 340.56772,64.830706 342.56592,63.076261 347.68212,58.584184 350.78788,59.115342 353.81433,65 356.18393,69.607478 356.30385,75.565374 354.11079,79.728138 351.77555,84.160755 349.96633,91.017664 350.53459,93.281807 351.7321,98.053046 357.07167,99.103363 363.58725,95.849323 z"/>
</svg>
