<?xml version="1.0" encoding="UTF-8"?>
<svg xmlns="http://www.w3.org/2000/svg" viewBox="1817.04 13.7 53.51 90.24">
  <path d="M 1845.163,97.983808 C 1842.9843,96.170266 1842.6211,96.14458 1839.7981,97.604388 1835.4772,99.838814 1834.7218,98.501045 1835.9529,90.794777 1836.5255,87.21041 1837.1079,81.30452 1837.247,77.670577 1837.4634,72.018797 1837.185,70.747811 1835.3213,68.880831 1833.3478,66.903732 1832.8478,66.820397 1830.0105,67.995663 1828.2877,68.709239 1825.7114,70.822889 1824.2853,72.692664 1820.6575,77.448951 1819.4737,75.774434 1820.8681,67.858628 1821.5925,63.745885 1823.0231,60.103248 1824.9889,57.365951 1828.5029,52.472827 1828.6423,51.567834 1826.1532,49.806704 1825.1375,49.088017 1823.7687,46.86133 1823.1115,44.858512 1821.7447,40.693359 1821.273,26.608467 1822.3879,23.25 1823.4804,19.958949 1825.7362,20.50382 1826.5281,24.25 1827.3329,28.057785 1832.8876,38.931855 1834.1393,39.15 1834.6127,39.2325 1835.4701,39.345 1836.0448,39.4 1837.1552,39.506289 1841.2896,28.60022 1842.417,22.590751 1843.0506,19.213451 1845.1434,17.804945 1846.4314,19.888969 1846.7336,20.377902 1847.6763,24.084041 1848.5263,28.124832 1850.9425,39.611253 1852.0177,39.511321 1857.9389,27.25 1861.7176,19.425182 1863.6243,19.14466 1864.5161,26.282319 1865.1683,31.502629 1863.9217,38.144789 1860.8576,45.775438 1859.7998,48.40978 1859.7879,49.388421 1860.7968,50.775438 1863.3362,54.266597 1866.8406,62.619481 1867.4987,66.75 1868.122,70.662628 1868.0019,71 1865.9853,71 1864.7805,71 1861.594,69.762882 1858.9041,68.250849 1850.4569,63.502405 1848.8471,66.604338 1849.2118,86.927538 1849.3436,94.271583 1849.0391,99.472466 1848.4674,99.642057 1847.9353,99.799896 1846.4484,99.053684 1845.163,97.983808 z M 1828.0497,66.47432 C 1829.6723,65.635196 1831,64.566446 1831,64.09932 1831,61.603174 1829.6353,57 1828.8953,57 1827.8227,57 1824,64.387384 1824,66.460162 1824,68.373016 1824.3754,68.374328 1828.0497,66.47432 z M 1832.4779,46.393433 C 1834.1474,43.84537 1834.1182,43.716313 1831.1757,40.643433 1829.5202,38.914545 1827.4507,35.925 1826.577,34 1824.9942,30.512958 1824.99,30.529504 1825.4336,38.469147 1825.7735,44.552497 1826.2934,46.741392 1827.6306,47.719147 1830.0582,49.494225 1830.5309,49.36494 1832.4779,46.393433 z M 1849.5211,64.678869 C 1854.4391,59.760908 1855.3091,52.513283 1851.5644,47.656773 1849.3983,44.847462 1843.2022,43.033547 1839.8107,44.215835 1832.7398,46.680758 1830.5537,56.935671 1835.5361,64.267865 1837.7657,67.54912 1838.5631,68 1842.1361,68 1845.4055,68 1846.8492,67.350753 1849.5211,64.678869 z M 1846,86.639571 C 1846,83.141335 1846.2862,78.191335 1846.6359,75.639571 1847.2701,71.01306 1847.2634,71 1844.2827,71 L 1841.2935,71 1840.6467,78.650878 C 1839.479,92.464754 1839.5668,93 1843,93 L 1846,93 1846,86.639571 z M 1846.9944,38.75 C 1846.9869,34.378522 1845.0249,27.545873 1844.0885,28.630108 1843.1606,29.704413 1841,37.166302 1841,39.296469 1841,40.646366 1841.8593,41.066567 1846.25,41.863818 1846.6625,41.938718 1846.9975,40.5375 1846.9944,38.75 z M 1859.4968,40.698673 C 1860.3236,37.914752 1860.9863,34.031173 1860.9696,32.068499 1860.9426,28.902673 1860.8125,28.725682 1859.8168,30.5 1859.1994,31.6 1857.1612,34.83719 1855.2873,37.693756 1851.9741,42.744402 1851.9267,42.95843 1853.5666,45.461243 1855.781,48.840887 1857.4853,47.472132 1859.4968,40.698673 z M 1863.4816,66.029783 C 1864.1828,64.895129 1860.3408,55.527763 1858.5722,54.059895 1857.6738,53.314274 1857.0326,54.348025 1856.0742,58.087516 1855.3651,60.854399 1854.9458,63.204115 1855.1424,63.309106 1855.3391,63.414098 1856.85,64.275526 1858.5,65.223391 1861.9999,67.23394 1862.6703,67.342467 1863.4816,66.029783 z"/>
</svg>
