<?xml version="1.0" encoding="UTF-8"?>
<svg xmlns="http://www.w3.org/2000/svg" viewBox="1233.1 17.85 23.27 89.88">
  <path d="M 1235.4635,101.94088 C 1235.1034,101.35837 1235.1173,97.811219 1235.4941,94.058333 1236.506,83.982355 1236.7706,54.924568 1235.9983,38.695732 1235.6267,30.888079 1235.697,24.07559 1236.1545,23.556866 1236.6579,22.986094 1238.1574,23.479611 1239.9526,24.806866 1243.6855,27.566663 1243.8079,27.558213 1247.2019,24.306593 1249.1349,22.454625 1250.3357,21.935717 1251.0456,22.645592 1253.0604,24.660424 1254.376,97.964607 1252.4531,101.07582 1251.5437,102.54737 1249.4704,102.15783 1246.7271,100 1243.3612,97.352359 1241.5722,97.477722 1239.592,100.5 1237.8365,103.17912 1236.514,103.64069 1235.4635,101.94088 z M 1243.5,94.720888 C 1244.6,94.747374 1246.5125,95.098493 1247.75,95.501153 1249.9941,96.231327 1250.0006,96.200565 1250.2192,83.866631 1250.5158,67.126763 1249.9508,31.914491 1249.3508,29.750753 1248.9715,28.38294 1248.4586,28.219398 1246.9986,29.000753 1245.9717,29.550339 1243.7643,30 1242.0932,30 L 1239.055,30 1239.0606,61.33204 C 1239.0636,78.564663 1238.7481,93.492786 1238.3595,94.505649 1237.7719,96.036894 1237.9769,96.206133 1239.5764,95.509975 1240.6344,95.049492 1242.4,94.694403 1243.5,94.720888 z"/>
</svg>
