<?xml version="1.0" encoding="UTF-8"?>
<svg xmlns="http://www.w3.org/2000/svg" viewBox="1.65 15.91 55.14 89.98">
  <path d="M 51.15625 87.25 C 50.899042 86.939826 50.686906 86.622317 50.53125 86.21875 C 50.168089 85.277187 50.846198 81.577931 52.0625 78 L 54.28125 71.5 L 51.25 64.5 C 47.379463 55.55355 45.044971 44.672718 44.1875 31.75 L 43.5 21.5 L 40.1875 21.1875 C 38.364072 21.012474 36.277634 21.343992 35.5625 21.9375 C 31.874147 24.998562 33.76687 46.804885 38.9375 60.96875 C 41.979579 69.301891 41.997692 69.490201 40.4375 74.1875 C 39.56216 76.822903 36.992596 80.993625 34.6875 83.46875 C 31.143621 87.274035 30.079435 87.845942 27.71875 87.34375 C 23.751013 86.499688 22.836595 84.024703 22.25 72.53125 C 21.741257 62.563188 21.79295 62.3008 24.375 59.71875 C 28.51922 55.57453 27.861408 48.929025 22.78125 43.34375 C 21.006301 41.392318 20.978769 40.966957 22.3125 38.84375 C 24.503593 35.355683 25.151589 29.865525 23.71875 27.03125 C 22.25971 24.145147 16.497852 20 13.9375 20 C 12.961143 20 10.754808 21.370192 9.0625 23.0625 C 4.942334 27.182666 4.6839618 33.869497 8.5 37.1875 C 10.976992 39.341216 11.863035 42 10.09375 42 C 9.5886082 42 8.2386077 43.522581 7.09375 45.375 C 4.1585009 50.124333 4.2005644 58.185996 7.1875 60.96875 C 8.3912088 62.090175 9.7911512 63 10.3125 63 C 10.891785 63 11.004607 66.986029 10.59375 73.25 C 9.594495 88.484724 12.774011 96.604493 21 99.875 C 25.842283 101.80021 29.566249 101.1245 35.0625 97.34375 C 39.256741 94.45862 40.381566 93.975474 42.34375 94.59375 L 44.8125 92.53125 C 40.521076 91.58069 37.173414 92.345466 34.03125 95.03125 C 29.597901 98.820683 24.978204 98.979785 20.375 95.46875 C 15.633894 91.852532 13.533634 84.267981 14.4375 73.90625 C 15.149537 65.743607 13.85329 60.938303 10.59375 59.6875 C 8.2020864 58.769733 7.6365992 52.907097 9.5 48.25 C 11.476791 43.309513 15.487303 41.77703 19.5 44.40625 C 24.258273 47.52399 24.815394 57.32753 20.375 59.8125 C 18.903175 60.636174 18.651484 62.213241 18.75 70.28125 C 18.913099 83.638368 20.166919 87.767431 24.6875 89.65625 C 26.658212 90.479666 29.372985 90.869015 30.71875 90.53125 C 36.520992 89.07498 45.648989 74.909675 44.75 68.75 C 44.488067 66.955289 43.109608 62.35 41.6875 58.5 C 38.795472 50.670557 35.99921 33.445967 36.71875 27.8125 C 37.178681 24.211579 39.718195 21.835426 40.46875 24.28125 C 40.676879 24.959477 41.111199 30 41.4375 35.5 C 42.063245 46.047308 44.643137 58.157872 48.09375 66.53125 L 50.1875 71.53125 L 48.09375 77.5 C 45.423767 85.096581 45.480584 86.301298 48.84375 89.1875 L 51.15625 87.25 z M 14.15625 23.09375 C 15.518115 23.133306 17.006344 23.943845 18.53125 25.46875 C 21.429316 28.366817 21.871253 34.30658 19.4375 37.78125 C 17.329882 40.790296 15.947684 40.567026 12.1875 36.6875 C 8.5995656 32.985691 8.0213488 28.846752 10.5625 25.21875 C 11.578884 23.767658 12.794385 23.054194 14.15625 23.09375 z "/>
</svg>
