<?xml version="1.0" encoding="UTF-8"?>
<svg xmlns="http://www.w3.org/2000/svg" viewBox="447.38 11.24 67.53 94.83">
  <path d="M 463.28438,97.942465 C 462.21412,95.107011 461.87134,94.93351 458.56515,95.553756 454.80211,96.259707 453.97783,95.467913 456.53172,93.600463 458.66318,92.041903 456.61977,86 453.96119,86 451.25759,86 450.44926,83.956782 452.89938,83.316061 454.56453,82.880615 455,81.985873 455,79 455,75.969506 454.56022,75.095335 452.75,74.527601 L 450.5,73.821939 452.94473,73.128931 C 454.64452,72.647094 455.66209,71.383852 456.28413,68.983299 457.05132,66.022632 456.88108,65.332999 455.0894,64.143365 452.13322,62.180534 452.49812,60.730857 455.76761,61.448958 458.07687,61.956157 458.81717,61.57951 460.23775,59.174674 461.89565,56.368067 461.87553,56.231694 459.47014,53.971946 457.13268,51.776022 456.15449,49 457.71816,49 458.11315,49 459.43878,50.166623 460.66399,51.592496 463.37679,54.749573 464.58656,54.130327 467.08276,48.306929 469.64665,42.325607 469.56259,42 465.45455,42 460.81354,42 457,38.338716 457,33.883002 457,27.693733 466.87632,15.554539 471.38791,16.198521 473.24365,16.463409 473.5,17.164909 473.5,21.978339 473.5,26.535089 473.8151,27.518702 475.37312,27.825374 476.40333,28.028156 478.5717,27.214106 480.19172,26.016373 484.37312,22.924935 486.39685,24.00459 485.73066,28.971379 485.44038,31.135612 484.25723,34.234387 483.10144,35.857545 479.91506,40.332392 480.35315,43.983828 484.47054,47.269102 488.34825,50.363135 493.39029,51.795556 494.43774,50.100744 494.8119,49.495335 496.01803,49 497.11803,49 499.68222,49 498.69377,50.589876 494.91458,52.544172 492.18357,53.956435 491.59512,53.914489 487.26453,51.998865 480.73791,49.11183 479.18661,47.427225 478.43419,42.409698 477.86862,38.638199 478.13262,37.631102 480.39018,34.948139 483.7646,30.937874 483.95773,27.46447 480.75,28.476858 472.13436,31.196035 469.49296,29.866883 470.47663,23.307304 470.83188,20.938287 470.73325,19 470.25744,19 468.89222,19 463.38615,25.177875 461.61195,28.70034 458.34974,35.177075 460.57957,39.70885 467.26701,40.193333 471.27433,40.483651 471.48853,40.657052 471.28491,43.445928 471.16661,45.066189 468.87705,50.016189 466.197,54.445928 460.14331,64.451816 459.98167,64.881865 458.94626,73.736951 457.98221,81.981706 459.57949,89.404484 462.97991,92.481815 464.09152,93.487814 467.09393,94.488527 469.73987,94.734937 473.70281,95.103995 475.08615,94.745792 478,92.596064 479.925,91.175869 483.26115,89.149906 485.41367,88.093924 489.77333,85.955163 492.76744,86.510361 496.69045,90.184978 L 498.88089,92.236732 502.30848,90.118366 C 506.30559,87.648015 507,87.529233 507,89.315859 507,90.039581 505.21181,91.636736 503.02625,92.865091 498.70078,95.296142 496.54276,94.860796 492.619,90.765591 491.24901,89.335739 489.94862,88.960276 487.83235,89.38353 484.12416,90.125169 476.99055,95.811807 477.64125,97.50749 478.29747,99.217577 476.23352,100.42462 474.7062,99.223977 474.04279,98.702466 472.2805,97.984671 470.79001,97.628876 468.69126,97.127888 467.8375,97.435116 467.00482,98.990989 465.52114,101.76328 464.632,101.5127 463.28438,97.942465 z M 468.40791,85.850997 C 465.32307,80.859614 469.17952,66.5058 475.88061,58.037456 L 477.82925,55.574912 484.43442,58.287456 C 493.54043,62.027012 495.52474,61.847582 500.12093,56.869012 503.84951,52.830234 505.3328,49.637357 508.18991,39.5 509.56713,34.613469 511.83928,32.92402 511.15482,37.295448 510.33459,42.5341 504.7012,54.989089 501.41612,58.826956 498.41528,62.332762 497.25702,62.996488 494.17208,62.978038 492.15243,62.965959 488.53836,62.065959 486.1408,60.978038 479.00111,57.738326 477.71875,58.174287 474.02986,65.095353 470.68552,71.369975 468.88456,82.192585 470.97025,83.481613 472.29883,84.302723 475.70619,82.421157 480.25288,78.355683 484.50571,74.552969 487.02291,74.191848 490.84563,76.836034 492.30553,77.845853 493.99534,78.955902 494.60075,79.302811 495.20617,79.649719 497.18583,78.838454 499,77.5 502.9862,74.559077 505.01985,75.285512 501.94962,78.553624 498.43969,82.289773 494.52287,82.634351 490.13429,79.593064 488.07631,78.166879 486.10696,77 485.75797,77 485.40898,77 483.63316,78.397721 481.81172,80.106047 475.29324,86.219702 470.02998,88.475564 468.40791,85.850997 z M 501,85.215608 C 501,84.784192 502.35,83.63375 504,82.659071 507.58971,80.53858 508.06521,82.072029 504.53518,84.38499 501.78602,86.186308 501,86.37099 501,85.215608 z"/>
</svg>
