<?xml version="1.0" encoding="UTF-8"?>
<svg xmlns="http://www.w3.org/2000/svg" viewBox="3.9 14.32 46.77 90.04">
  <path d="M 6.6790438,97.34571 C 6.3191846,96.985851 6.0272623,82.565817 6.0303276,65.301191 L 6.0359009,33.910961 12.252785,27.205481 C 17.91664,21.096492 22,18.408739 22,20.789659 22,21.908892 29.882838,31 30.853318,31 31.229157,31 33.71491,29.2 36.377215,27 43.59644,21.034379 45.993024,21.762256 47.309427,30.32027 48.547198,38.367088 44.67815,42.1498 38.455038,38.977077 36.354802,37.906316 34.486262,37.180405 34.302726,37.363941 34.119189,37.547477 33.962374,48.903173 33.954247,62.598822 33.938337,89.410678 33.397532,97.299184 31.616038,96.705335 30.820032,96.439992 30.571876,87.665339 30.750651,66.105743 L 31.001301,35.878175 25.030401,29.870093 19.059502,23.86201 14.585929,28.464978 C 11.132919,32.017865 9.9911076,34.029754 9.5808684,37.283973 9.2885498,39.602788 9.1507695,54.212309 9.27469,69.749575 9.4910822,96.881022 9.2093756,99.876042 6.6790438,97.34571 z M 18.63948,98.306147 C 17.634987,97.301654 17.884558,34 18.893011,34 20.750144,34 21,37.975272 21,67.52277 21,95.064099 20.600983,100.26765 18.63948,98.306147 z M 43.5,32 C 43.5,29.066667 43.031638,26.510546 42.459196,26.319732 41.082942,25.860981 35,30.939154 35,32.546833 35,34.011992 41.028516,38.112945 42.5,37.648776 43.05,37.475283 43.5,34.933333 43.5,32 z"/>
</svg>
