<?xml version="1.0" encoding="UTF-8"?>
<svg xmlns="http://www.w3.org/2000/svg" viewBox="384.64 16.05 23.39 88.07">
  <path d="M 406 80.34375 C 404.20143 77.522918 404.12526 70.657829 404.0625 53.3125 C 403.97186 28.261012 403.49153 21.432009 401.78125 20.375 C 401.25668 20.050795 399.32306 20.580715 397.5 21.5625 C 394.4085 23.227383 393.96841 23.232378 390.84375 21.71875 C 389.00113 20.826159 387.275 20.427799 387 20.8125 C 386.725 21.1972 386.63891 38.4875 386.8125 59.25 C 387.1542 100.11795 386.99404 99.014967 392.40625 95.46875 C 394.82727 93.882439 399.05804 94.654927 400.46875 96.9375 C 400.82963 97.521426 401.99496 98 403.0625 98 C 404.55248 98 405 97.302928 405 95 C 405 93.254775 404.9806 92.397544 406.03125 92.21875 L 406 92 L 406 87.625 C 405.55239 87.170226 405.25189 86.685212 405.15625 86.03125 C 404.96881 84.749706 404.88925 84.188708 406 84.1875 L 406 80.34375 z M 398.96875 24.59375 C 399.85164 24.367656 400.05747 25.043083 400.40625 27.25 C 400.68962 29.042964 401.09127 44.353607 401.28125 61.28125 L 401.625 92.0625 L 397.5625 91.875 C 395.3276 91.771352 392.7125 92.015151 391.75 92.4375 C 390.10254 93.16041 390 91.209906 390 59.125 L 390 25.0625 L 392.875 25.625 C 394.45781 25.941562 396.70251 25.704526 397.84375 25.09375 C 398.312 24.843153 398.67445 24.669115 398.96875 24.59375 z "/>
</svg>
