<?xml version="1.0" encoding="UTF-8"?>
<svg xmlns="http://www.w3.org/2000/svg" viewBox="56 15.95 29.92 89.1">
  <path d="M 58.6875,98.354167 C 58.309375,97.976042 58,83.589027 58,66.383023 58,39.14094 58.200628,34.987103 59.55296,34.2303 61.270434,33.269153 69,22.276786 69,20.795478 69,20.281459 69.937442,20.004696 71.083205,20.180449 72.287656,20.365204 75.054333,23.136427 77.641981,26.75 81.37657,31.965241 81.804764,33 80.228296,33 79.127904,33 76.95654,31.074904 75.028085,28.389578 L 71.71713,23.779156 68.358565,27.445229 C 66.511354,29.461569 65,31.354292 65,31.65128 65,31.948269 64.056806,33.515853 62.904013,35.134802 60.867664,37.99459 60.81787,38.935539 61.154013,68.204371 61.485099,97.032948 61.173626,100.84029 58.6875,98.354167 z M 69.378741,85.75 C 69.654642,79.0125 69.907294,64.35 69.94019,53.166667 69.986671,37.364652 70.278565,32.926428 71.25,33.251076 72.207098,33.570932 72.5,39.741399 72.5,59.584409 72.5,93.275625 72.235558,98 70.34973,98 69.105736,98 68.954985,96.098119 69.378741,85.75 z M 81.452304,96.736301 C 80.780876,94.98659 80.432944,69.612006 80.828602,51.25 81.092076,39.022475 81.433902,36 82.553297,36 83.722234,36 83.917839,41.043953 83.755482,67 83.582696,94.623307 83.088739,101.00078 81.452304,96.736301 z"/>
</svg>
