<?xml version="1.0" encoding="UTF-8"?>
<svg xmlns="http://www.w3.org/2000/svg" viewBox="644.39 16.01 53.38 87.42">
  <path d="M 695.3125 31.125 C 694.09214 31.014165 692.92593 29.842698 690.8125 27.78125 C 688.23688 25.268979 679.96221 21.276552 675.65625 20.46875 C 673.08384 19.986162 670.51935 20.291781 667.4375 21.46875 C 661.29778 23.813528 659.55565 27.310477 660.34375 35.75 C 660.89026 41.602536 660.66931 42.59425 657.8125 47.65625 C 654.81378 52.969687 654.57839 53.138073 651.34375 52.53125 C 647.11496 51.737926 646.81561 53.688101 650.9375 55.125 C 652.81532 55.779609 654.23765 57.207063 654.90625 59.125 C 655.88404 61.929887 655.76324 62.191549 652.90625 63.1875 C 651.06955 63.827779 650.19943 64.605685 650.75 65.15625 C 651.30056 65.706816 652.82375 65.62982 654.5625 64.96875 C 656.97095 64.053059 657.64971 64.163007 658.71875 65.625 C 660.35441 67.861905 660.32784 68.46949 658.4375 72.125 C 657.08106 74.748074 656.49398 75.061497 653.9375 74.5 C 650.52269 73.749982 650.19389 74.503837 652.9375 76.84375 C 655.77214 79.261299 656.12332 86.769167 653.46875 88.3125 C 651.66459 89.361422 651.76979 89.494437 654.8125 89.96875 C 658.05544 90.474277 659.89602 92.551033 661.5 97.5 C 662.13398 99.456086 662.20432 99.450597 664 97.25 C 665.00981 96.0125 666.47425 95 667.28125 95 C 668.08824 95 669.30344 94.332906 669.96875 93.53125 C 670.78392 92.54904 672.14761 92.279524 674.1875 92.6875 C 676.91843 93.233687 677.165 93.085786 676.5625 91.1875 C 676.1952 90.030217 676.19685 87.480292 676.5625 85.53125 C 677.07728 82.787233 677.71893 82.003846 679.375 82 C 681.41899 81.995253 681.37493 81.895608 678.875 79.75 C 675.22553 76.617765 671.80334 70.482517 672.1875 67.78125 C 672.45604 65.892915 673.04221 65.538498 675.75 65.75 C 679.1951 66.019093 679.8979 65.006025 677.59375 63.09375 C 675.26974 61.164985 676.82101 58.143924 680.34375 57.75 L 683.5 57.40625 L 680.71875 56.21875 C 679.19638 55.56656 677.51989 53.855842 676.96875 52.40625 C 676.41762 50.956657 675.05775 48.634443 673.96875 47.25 C 671.61725 44.260562 671.28251 36.36165 673.375 33.5 C 674.69207 31.698803 674.91951 31.701853 679.21875 33.34375 C 681.6815 34.284281 685.54274 36.650925 687.8125 38.59375 L 691.90625 42.09375 L 693.90625 36.59375 C 693.31916 37.7542 691.38503 37.755605 688.46875 35.53125 C 677.01012 26.791322 668 28.737663 668 39.96875 C 668 43.332267 668.5907 45.378483 670.09375 47.09375 C 674.65687 52.301143 675.10496 57.094052 671.5 62.40625 C 668.50921 66.813433 668.29773 70.84005 670.90625 74.15625 C 673.49049 77.44157 674.50286 83.37753 673.0625 86.78125 C 672.42633 88.284584 670.45165 90.2289 668.65625 91.125 C 665.77804 92.561545 665.07166 92.57806 662.65625 91.3125 C 657.47326 88.596855 656.51436 80.815673 660.5 73.84375 C 663.59105 68.43671 663.57958 67.944268 660.5 63.40625 C 657.20085 58.544683 657.34554 54.496679 661.0625 47.53125 C 663.77407 42.44988 664.05575 41.19817 663.46875 36.5 C 662.51784 28.889179 663.5417 25.292638 667.25 23.375 C 673.31387 20.239253 682.21001 22.86916 690.6875 30.3125 C 693.48913 32.772365 694.4111 35.133304 693.96875 36.40625 L 695.34375 32.65625 L 695.3125 31.125 z "/>
</svg>
