<?xml version="1.0" encoding="UTF-8"?>
<svg xmlns="http://www.w3.org/2000/svg" viewBox="159.58 11.25 27.91 90.13">
  <path d="M 176.58179,94.747284 C 171.49067,91.82728 166.11626,82.773699 163.97598,73.51189 161.5819,63.151738 164.17105,37.016706 168.35245,29.335564 169.20143,27.776004 170.3307,25.5601 170.86194,24.411333 172.1666,21.590067 177.58166,17.1431 180.65029,16.372924 184.7528,15.34326 185.48867,17.303282 182.62708,21.638184 177.18091,29.888345 174.83188,40.132779 174.89639,55.352653 174.94952,67.886735 178.35798,82.764402 182.70313,89.428481 184.59219,92.325696 185.00485,93.769503 184.27512,94.928481 182.79457,97.279916 180.92056,97.235778 176.58179,94.747284 z M 177.61129,87.90354 C 176.83306,86.031593 175.03427,80.248527 173.61397,75.052281 171.34971,66.768331 171.07096,64.058376 171.35103,53.052281 171.70229,39.248833 173.84498,30.454698 178.54406,23.530207 181.5718,19.068591 181.03107,17.864301 177.23363,20.611648 168.77157,26.733725 163.14143,56.672631 167.4257,72.766456 168.97499,78.586386 174.40143,88.84183 176.89728,90.666838 179.11886,92.291299 179.2402,91.821704 177.61129,87.90354 z"/>
</svg>
