<?xml version="1.0" encoding="UTF-8"?>
<svg xmlns="http://www.w3.org/2000/svg" viewBox="1154.76 12.99 50.65 88.32">
  <path d="M 1159 39.28125 C 1159.165 38.491022 1159.242 37.528168 1159.5312 36.96875 C 1162.6234 30.989276 1173.3929 20.025615 1176.2188 20 C 1177.894 19.984815 1180.0432 25.087885 1181.4375 32.375 C 1182.9027 40.032796 1182.889 40.196605 1180.625 43.8125 C 1175.4087 52.143323 1173.4277 64.532137 1176.4375 69.96875 C 1177.6918 72.23437 1177.4843 73.043113 1173.9062 79.5625 C 1169.9016 86.859322 1168.8856 92.510562 1171.1875 94.8125 C 1173.6615 97.286505 1175.5027 95.898868 1178.375 89.46875 C 1181.9883 81.379718 1183.1665 80.302757 1186.125 82.375 C 1187.7548 83.516597 1188.6999 83.668681 1189.6562 82.875 C 1192.0684 80.873167 1193.9 82.738795 1194.5938 87.96875 C 1195.372 93.835828 1196.3921 94.857102 1199.0312 92.46875 C 1203.1077 88.779701 1202.3058 74.858881 1197.75 69.96875 C 1196.097 68.194532 1195.7058 66.619354 1195.875 62.4375 C 1196.1965 54.489669 1193.6024 46.739076 1189.3438 43 C 1186.262 40.29417 1185.5212 38.747322 1183.9375 31.5 C 1182.1895 23.501386 1179.6725 17 1178.3125 17 C 1176.3219 17 1168.8272 22.491039 1165.7812 26.1875 C 1163.8305 28.555095 1161.0184 31.814626 1159.5312 33.40625 L 1157.0625 36.03125 L 1159 39.28125 z M 1184.6875 43.3125 C 1185.3099 43.179966 1185.9946 43.605221 1187.3125 44.46875 C 1190.6703 46.66887 1193 54.069551 1193 62.53125 C 1193 67.418988 1193.4184 69.068696 1195 70.5 C 1197.3607 72.636416 1198.9934 77.938005 1199 83.5 L 1199 87.5 L 1196.8438 83.15625 C 1194.4384 78.297027 1192.7133 77.168439 1190.4688 79.03125 C 1189.2415 80.049821 1188.4503 80.060443 1186.4688 79 C 1184.3259 77.853189 1183.735 77.924129 1181.875 79.59375 C 1180.7024 80.646329 1178.4164 83.8625 1176.7812 86.75 C 1175.146 89.6375 1173.6287 92 1173.4062 92 C 1173.1837 92 1173 90.49598 1173 88.65625 C 1173 86.440924 1174.3912 83.181231 1177.0938 79 C 1181.1304 72.754467 1181.1481 72.646898 1179.6562 69.09375 C 1178.8269 67.118307 1177.8652 64.23382 1177.5312 62.6875 C 1176.7398 59.021986 1179.5657 49.06225 1182.4062 45.5 C 1183.5052 44.121805 1184.0651 43.445034 1184.6875 43.3125 z "/>
</svg>
