<?xml version="1.0" encoding="UTF-8"?>
<svg xmlns="http://www.w3.org/2000/svg" viewBox="788.82 14.12 37.73 85.39">
  <path d="M 805.49532,93.136762 C 800.94359,91.068925 797.30216,85.283812 794.61176,75.846093 790.81792,62.537624 794.28588,37.710036 801.51781,26.4047 805.3455,20.421062 808.38109,18 812.05584,18 815.51726,18 816.17405,18.82603 814.74454,21.381483 813.13072,24.2664 811.03345,30.187397 811.01506,31.910507 811.00678,32.686285 813.31766,36.736285 816.15036,40.910507 824.54939,53.287201 824.13519,57.031166 813.09922,68.489629 808.09634,73.68404 807.82107,74.232699 808.47339,77.709835 809.34801,82.37196 812.16044,87.933186 814.89359,90.404988 816.05212,91.452731 817,92.915231 817,93.654988 817,95.62434 810.3074,95.322874 805.49532,93.136762 z M 810,90.2 C 810,89.76 809.60557,88.9725 809.12349,88.45 808.64142,87.9275 807.18972,84.8 805.89749,81.5 803.76858,76.063312 803.55793,74.044776 803.65375,60 803.76064,44.333146 804.63877,39.150746 809.3297,26.502618 812.10661,19.01528 808.89818,19.51218 804.28594,27.283762 799.36384,35.577451 795.30859,57.105078 796.64376,67.852884 797.68768,76.256143 802.7058,87.768822 806.39949,90.234687 807.87041,91.216653 810,91.196136 810,90.2 z M 812.68305,65.75 C 818.52224,59.696399 820.14942,56.088786 818.93718,51.883993 817.79567,47.924523 810.95625,37.5 809.5,37.5 808.18536,37.5 806.14731,51.492613 806.06504,61.083333 805.97474,71.611881 806.60209,72.054255 812.68305,65.75 z"/>
</svg>
