<?xml version="1.0" encoding="UTF-8"?>
<svg xmlns="http://www.w3.org/2000/svg" viewBox="1211.16 16.82 41.28 84">
  <path d="M 1247.2812 72.40625 L 1243.25 76.375 C 1240.7212 78.868091 1238.2999 80.688176 1237.8438 80.40625 C 1237.3875 80.124323 1237 77.996172 1237 75.6875 C 1237 69.493341 1235.4952 65.258344 1232 61.6875 C 1229.2331 58.860752 1228.9652 58.111895 1229.6875 55 C 1230.1344 53.075 1230.4358 47.852939 1230.3438 43.40625 C 1230.0833 30.815271 1225.3471 22.59179 1217.6562 21.34375 C 1213.2864 20.634607 1213.1614 21.265123 1216.5938 27.40625 C 1220.871 35.059097 1220.8286 49.635592 1216.5 58.3125 C 1214.4751 62.37165 1215.1499 63.958651 1220.9062 68.8125 C 1225.4066 72.607309 1225.8003 73.350089 1226.4375 78.71875 C 1227.4254 87.041609 1228.7038 91.376407 1231.0625 94.375 C 1232.2005 95.821801 1233.5732 97 1234.0938 97 C 1234.6143 97 1238.7467 93.690651 1243.2812 89.65625 L 1250.4375 83.3125 L 1249.4688 79.9375 C 1248.8052 81.534365 1247.1544 83.425587 1243.9688 86.375 C 1236.4212 93.362716 1234.5709 94.411162 1233.0625 92.59375 C 1231.8177 91.093758 1229.0469 78.973458 1229.0312 75 C 1229.0242 73.244806 1227.3456 70.965168 1223.4062 67.375 L 1217.7812 62.28125 L 1220.1562 55.875 C 1223.1652 47.709885 1223.4586 34.362222 1220.75 29.09375 C 1219.7851 27.216968 1219.267 25.416968 1219.5938 25.09375 C 1220.3489 24.346619 1224.8327 29.728163 1226.125 32.9375 C 1227.8857 37.310264 1228.4125 50.720229 1227 55 C 1225.7051 58.923732 1225.7144 58.957765 1229.8438 63.4375 C 1233.7646 67.691074 1234 68.281386 1234 74.03125 C 1234 80.320414 1235.1966 84 1237.25 84 C 1237.8993 84 1240.5982 81.861931 1243.25 79.25 C 1246.0295 76.512336 1247.3368 75.487072 1248.1562 75.5 L 1247.3438 72.65625 L 1247.2812 72.40625 z "/>
</svg>
