<?xml version="1.0" encoding="UTF-8"?>
<svg xmlns="http://www.w3.org/2000/svg" viewBox="1598.75 38.99 43.74 67.06">
  <path d="M 1620.8438,54.84375 C 1619.1981,58.542429 1617.1706,57.131534 1612.2812,51 1605.1317,42.033834 1601.58,43.263032 1603.8125,53.90625 1604.4535,56.962439 1606.1898,61.820424 1607.6562,64.71875 1610.0813,69.511835 1610.1855,70.152773 1608.7812,71.75 1604.0874,77.088692 1600.7496,89.706753 1603.4375,91.9375 1604.4981,92.817711 1605.6112,92.285323 1608.5312,89.53125 1610.5921,87.587716 1612.6265,86 1613.0625,86 1614.0759,86 1614.6476,87.916936 1616.0625,96.25 1616.862,100.9589 1617.6431,103 1618.6562,103 1620.0828,103 1624.0623,95.156857 1625.375,89.75 1626.3896,85.570788 1628.2648,86.432245 1630.5938,92.15625 1632.0727,95.791125 1633.3181,97.428186 1634.8125,97.65625 1638.0818,98.155175 1640.4925,89.097895 1639.0938,81.53125 1638.5299,78.480865 1637.6793,75.210565 1637.1875,74.25 1636.6957,73.289435 1636.0155,70.755715 1635.6875,68.625 1635.3595,66.494284 1634.332,63.929141 1633.4062,62.90625 1632.3174,61.703056 1632.0898,59.222305 1632.25,56.40625 L 1628.2812,55.875 C 1627.6103,56.741959 1626.8507,56.62948 1625.5625,55.6875 1625.4627,55.614518 1625.4313,55.537668 1625.3438,55.46875 L 1620.8438,54.84375 z M 1607.9062,51 C 1608.4087,51 1610.1839,52.836749 1611.8438,55.09375 1614.4202,58.597148 1614.7134,59.547907 1613.7812,61.59375 1612.1902,65.085923 1610.4214,64.536345 1608.5938,59.96875 1606.824,55.545815 1606.4788,51 1607.9062,51 z M 1611.4688,73.71875 C 1612.1915,73.884809 1612.8915,74.830717 1613.6875,76.5 L 1615.4688,80.1875 1612.2188,83.09375 C 1606.8558,87.885497 1604.8177,86.359787 1607.4375,79.5 1609.0359,75.314508 1610.2642,73.441985 1611.4688,73.71875 z M 1622.6562,58.8125 C 1624.839,58.8963 1627.0533,59.640929 1628.5,61 1634.3471,66.493061 1633.949,75.213365 1627.6875,79.03125 1624.0876,81.226274 1622.3274,81.427732 1619.6562,79.875 1615.1027,77.228132 1613.2287,63.918969 1616.9375,60.5625 1618.3193,59.312017 1620.4735,58.7287 1622.6562,58.8125 z M 1634.125,77 C 1635.4943,77 1637.1842,85.176059 1636.5312,88.65625 1635.5736,93.761396 1634.3513,93.166782 1630.5938,85.75 L 1628.6875,81.96875 1631,79.5 C 1632.2859,78.131268 1633.692,77 1634.125,77 z M 1619.125,83 C 1623.6522,83.029358 1624.4126,84.262243 1622.8125,89.0625 1620.47,96.089868 1618.9809,95.458321 1617.4375,86.75 1616.8235,83.285211 1616.9433,82.985852 1619.125,83 z"/>
</svg>
