<?xml version="1.0" encoding="UTF-8"?>
<svg xmlns="http://www.w3.org/2000/svg" viewBox="298.03 10.74 104.74 93.55">
  <path d="M 326,95.088894 C 326,93.094633 331.29034,87.987898 333.32673,88.01645 335.22155,88.043018 342.21541,92.351032 343.36875,94.202036 345.17622,97.102883 343.1225,97.488406 340.23957,94.789442 335.7934,90.626987 333.48791,90.421055 330.87654,93.953116 328.32888,97.399015 326,97.941426 326,95.088894 z M 320.00659,96.75 C 320.01444,95.260838 322.62685,91.277843 325.75552,87.984949 328.93538,84.638171 330.68521,86.656227 327.72509,90.256435 326.50129,91.744872 324.69149,94.09608 323.70332,95.481342 321.77913,98.17873 319.99583,98.790731 320.00659,96.75 z M 313,96.795669 C 313,93.352755 319.09753,84.925336 325.16714,79.979428 332.36172,74.116811 333,73.211101 333,68.864634 333,64.268808 329.77967,60.242897 325.43853,59.411636 322.67447,58.882361 321.82256,59.424346 316.66903,64.99077 313.52961,68.381716 310.06063,72.920998 308.96018,75.078063 307.5886,77.766567 306.29674,79 304.85245,79 302.92178,79 302.78646,78.574197 303.23466,73.909631 303.90909,66.890701 310.97237,53.201958 316.59292,48.021117 318.99224,45.809503 321.52787,44.009883 322.22766,44.021962 322.92745,44.034041 325.46164,44.934041 327.8592,46.021962 333.0395,48.372579 334,48.461511 334,46.590528 334,43.461273 344.07283,25.30467 347.84325,21.637617 354.67857,14.989692 363.93576,15.868279 372.85097,24.011063 374.65083,25.654979 376.24579,27 376.39533,27 376.54487,27 378.61697,25.2 381,23 387.2315,17.247109 391.79663,17.698799 395.98957,24.483124 397.85464,27.500865 398.00294,28.461074 397.04993,31.348723 395.81028,35.104897 393.02247,37.997317 388.38484,40.338976 382.55891,43.280642 380.40533,52.228758 383.44784,60.852171 387.85528,73.344193 385.67733,83.994687 377.43721,90.244962 372.43848,94.036589 369.65633,94.87098 368.46106,92.936987 368.09972,92.352329 368.506,91.09836 369.3639,90.150388 374.48245,84.494451 375.19744,75.478214 371.52098,62.948641 368.62486,53.07848 368.45177,49.805302 370.51649,43.953269 371.99051,39.775446 371.96036,39.550299 369.43979,35.913124 365.31608,29.962607 363.50983,28.75821 358.79038,28.812186 352.1853,28.887728 348.34693,34.024103 344.82265,47.503333 343.85912,51.188516 344.03333,51.920733 347.01482,56.716934 349.87022,61.310313 350.19794,62.553104 349.78273,67.213601 349.33504,72.238697 347.44461,77.577682 344.86068,81.114523 343.89844,82.43162 344.27028,83.549399 346.87915,87.182194 348.89933,89.99524 349.8394,92.254948 349.43159,93.317671 348.48187,95.792621 347.0905,95.370593 345.91163,92.25 345.34025,90.7375 343.69811,88.26867 342.26243,86.763711 L 339.65209,84.027422 342.82604,77.873246 C 347.13294,69.52234 347.1972,63.150336 343.03785,56.870862 340.16636,52.5357 340.11713,52.261172 341.42943,47.900742 343.31911,41.621824 348.92552,30.377378 351.18682,28.330928 352.36124,27.268097 355.32166,26.459686 359.01864,26.19227 364.85285,25.770262 365.02787,25.833612 368.5197,29.631171 370.47624,31.759027 373.0394,34.520178 374.2156,35.767061 376.29146,37.96766 376.30401,38.139277 374.6437,41.620972 372.05551,47.048471 371.68105,52.799781 373.51219,59 378.70502,76.582848 378.60703,75.103522 375.36691,87 L 374.68602,89.5 376.98102,87.5 C 382.03838,83.092733 383.4073,73.478425 380.47399,62.967928 377.67105,52.924588 377.65765,50.915065 380.35334,44.875503 382.18706,40.76715 383.53526,39.082474 385.35481,38.625795 386.72489,38.281929 389.23054,36.83545 390.92293,35.411398 394.76065,32.182171 395.15359,27.152647 391.81144,24.038955 388.6236,21.069034 386.48788,21.507257 382.26212,25.998356 380.19296,28.197452 377.7138,29.997452 376.75288,29.998356 375.79197,29.99926 373.30126,28.460087 371.21798,26.57797 362.66236,18.848482 354.69078,18.279229 348.64937,24.96634 344.5826,29.467778 337.1712,44.170153 336.31778,49.429179 335.67602,53.383867 333.26636,54.231696 330.87244,51.345096 328.65118,48.666678 323.25029,46.79568 321.08502,47.954496 317.13125,50.070494 310.70602,59.78744 308.49139,67 307.88834,68.963994 309.04495,68.216406 313.88598,63.513155 321.04134,56.561449 323.13699,55.560076 327.50978,57.003229 337.12551,60.176705 339.54995,72.263144 331.72951,78.039616 325.04027,82.98054 319.74265,88.574338 317.42952,93.139084 314.60406,98.714862 313,100.03902 313,96.795669 z"/>
</svg>
