<?xml version="1.0" encoding="UTF-8"?>
<svg xmlns="http://www.w3.org/2000/svg" viewBox="531.24 13.77 28.6 93.05">
  <path d="M 545.44721,101.23374 C 540.18043,97.563039 533.24218,73.15304 536.00059,67.99889 537.56095,65.08333 539.42842,65.539259 542.1211,69.493167 543.42949,71.414409 544.95,72.972075 545.5,72.954647 546.05,72.937219 547.40602,71.482797 548.51338,69.722598 551.52573,64.934343 553.66303,65.034854 555.00754,70.027998 556.48039,75.497738 554.86589,86.058715 551.21862,94.812557 548.48575,101.37175 547.39171,102.58897 545.44721,101.23374 z M 551.54265,59.705433 C 550.71575,58.443421 549.52834,55.945445 548.90397,54.154376 547.43715,49.946642 545.13135,50.344407 542.5,55.259101 540.00385,59.921273 537,60.337785 537,56.021726 537,54.383676 537.86983,47.521176 538.93296,40.771726 539.99608,34.022277 541.16331,26.1375 541.52679,23.25 542.03524,19.210906 542.58384,18 543.90528,18 545.87674,18 550,21.524863 550,23.210214 550,23.832982 550.58188,25.052952 551.29306,25.921259 554.90998,30.337293 557.84161,51.375095 555.79809,58.25 554.50789,62.590549 553.62982,62.890863 551.54265,59.705433 z M 550.02537,89.142388 C 551.3976,84.624631 552.00453,80.274259 551.80415,76.392388 L 551.5,70.5 549.22968,74.75 C 547.981,77.0875 546.33919,79 545.58122,79 544.82324,79 543.0403,77.0875 541.61911,74.75 L 539.03514,70.5 539.60617,76.5 C 540.55802,86.501395 544.22109,96 547.1262,96 547.57513,96 548.87975,92.914074 550.02537,89.142388 z M 552.46026,44.75 C 552.0554,41.3125 551.64925,37.825 551.55771,37 551.17082,33.513385 548.85092,27.323365 547.06954,25.024545 L 545.15128,22.54909 544.57593,25.024545 C 543.65268,28.996918 541.00842,46.319578 541.00402,48.424314 541.0002,50.251096 541.11731,50.238425 543.31445,48.174314 546.29281,45.376287 547.40008,45.435467 549.40804,48.5 552.2488,52.835548 553.26545,51.586483 552.46026,44.75 z"/>
</svg>
