<?xml version="1.0" encoding="UTF-8"?>
<svg xmlns="http://www.w3.org/2000/svg" viewBox="819.5 10.28 74.9 99.01">
  <path d="M 857.52314,103.69415 C 857.31896,103.03737 856.62134,100.77767 855.97286,98.672606 854.82794,94.956005 850.29858,91.012511 847.16467,91.003738 845.92474,91.000267 843.00292,93.920177 838.16252,100 835.07285,103.88079 834.37535,101.50774 837.42895,97.504263 843.95186,88.952289 846.72517,87.733744 853.35824,90.505216 857.23181,92.123698 859.45699,94.842901 860.55237,99.29657 861.40649,102.76927 861.91993,102.30253 863.11968,96.962843 864.39136,91.303043 863.56336,89.328051 858.92729,86.962906 856.76728,85.860951 855,84.488473 855,83.912954 855,83.337435 856.2375,81.24299 857.75,79.258631 861.12563,74.8299 861.47023,67.145247 858.53742,61.699335 856.98394,58.814709 856.82776,57.3781 857.58887,52.974503 858.88999,45.446479 860.76712,44.653447 866.03017,49.408296 870.62866,53.562754 872.19828,53.235655 873.51804,47.847871 874.08503,45.533183 873.80713,45.113581 871.33384,44.55 868.17579,43.830382 863,39.72637 863,37.941886 863,35.753393 875.45789,27.045308 878.62756,27.018197 881.28051,26.995506 882.80505,28.775266 883.61906,32.845308 884.85957,39.047847 888,35.064326 888,27.288248 888,21.827413 885.89987,18 882.90346,18 880.41413,18 874.1688,21.150392 870.38353,24.315545 866.59314,27.484983 859.59487,31 857.07502,31 855.97246,31 854.55153,29.9875 853.91739,28.75 852.40176,25.792285 844.88087,19.00315 843.11803,19.001384 842.35795,19.000623 840.2197,19.937169 838.36636,21.082597 833.62613,24.012216 832.23987,30.575344 835.1065,36.51611 836.36106,39.116062 837.05803,39.488597 840.52316,39.411379 842.71042,39.362638 845.95298,38.970793 847.72884,38.540612 850.63533,37.83655 851.05962,38.026603 851.97884,40.444333 853.66177,44.87079 853.18996,52.707323 850.97968,57.039838 848.93095,61.05568 846.39473,62.192238 845.38044,59.549034 845.07421,58.751003 842.88506,57.357714 840.51568,56.452837 836.4817,54.912248 835.9732,54.918883 832.52079,56.557157 828.87968,58.284979 827,61.211966 827,65.153993 827,67.063272 827.17409,67.031297 830.07673,64.588894 833.3052,61.872309 833.94903,61.659547 838,61.970548 843.18172,62.368359 848.98821,68.68774 848.99626,73.93812 849.0026,78.073775 845.11752,82.516905 839.68004,84.592497 834.11526,86.716685 829.77193,91.691473 827.83351,98.161364 827.20096,100.27261 826.07965,102 825.34171,102 823.58224,102 823.64448,99.786631 825.53094,95.271708 828.10043,89.122058 831.72305,85.276261 837.53731,82.525677 844.27374,79.338832 845.8218,76.686287 844.16756,71.164939 843.35158,68.441424 842.03408,66.794757 839.63896,65.504899 835.32141,63.179749 833.58794,63.905568 830.22512,69.446554 827.52217,73.900261 824.70148,75.270421 823.68563,72.623144 822.90845,70.597837 824.07095,62.90567 825.61778,59.838296 828.56234,53.999218 835.66312,51.306504 841.01357,54 842.10611,54.55 843.96031,55.491477 845.13402,56.09217 848.1068,57.613609 848.96591,55.88928 848.98469,48.363466 L 849,42.226932 841.88286,42.363466 C 835.28769,42.489987 834.61957,42.306695 832.7729,39.864236 830.0199,36.223044 829.35139,29.154957 831.38757,25.217407 833.67843,20.787381 839.02898,17 842.99656,17 845.67513,17 847.35705,18.052703 851.83841,22.534063 L 857.37247,28.068125 861.1344,26.562902 C 863.20345,25.735029 867.8428,23.040438 871.44406,20.574922 875.04531,18.109406 879.64802,15.781456 881.6723,15.401699 884.95829,14.785243 885.65545,15.049965 888.1764,17.871393 890.54445,20.521703 891,21.913095 891,26.49554 891,32.594255 888.65904,39.533123 886.29555,40.440081 884.0089,41.317549 882.4035,39.512796 880.99468,34.480998 880.30465,32.016449 879.1727,30 878.47923,30 876.47868,30 867.5,36.558252 867.5,38.019505 867.5,38.746736 869.47784,40.337539 871.89519,41.554623 877.78535,44.520186 878.31868,45.794394 875.65879,50.54653 872.95184,55.382754 870.28359,55.95095 866.24355,52.551479 862.25817,49.198004 861.34836,49.329548 860.59059,53.368803 860.1557,55.686958 860.58881,58.207819 861.9793,61.451708 864.66703,67.721938 864.58765,74.182115 861.76106,79.211355 L 859.52211,83.195018 863.26106,86.194504 C 866.49873,88.791854 866.99979,89.750775 866.99845,93.346995 866.99618,99.394616 864.19748,104.4302 860.69718,104.68459 859.15563,104.79663 857.72731,104.35093 857.52314,103.69415 z M 829.00374,100.75 C 829.01441,97.181867 836.39483,88 839.25224,88 840.8502,88 840.57024,88.682384 837.50858,92.25 835.50258,94.5875 833.61127,97.7375 833.30566,99.25 832.93697,101.07466 832.11908,102 830.875,102 829.84375,102 829.00168,101.4375 829.00374,100.75 z M 837.65499,34.171259 C 835.42926,31.711863 835.57097,28.815142 838.07258,25.634859 840.6234,22.392017 844.33276,22.209289 846.4433,25.222506 851.06353,31.818816 842.97745,40.052518 837.65499,34.171259 z M 844.57509,30.556835 C 845.57504,26.57271 843.42337,24.812537 840.11465,26.907979 839.19758,27.488769 838.95051,28.666665 839.3837,30.392666 840.24837,33.837779 843.72404,33.947691 844.57509,30.556835 z"/>
</svg>
