<?xml version="1.0" encoding="UTF-8"?>
<svg xmlns="http://www.w3.org/2000/svg" viewBox="1139.92 14.43 33.49 89.65">
  <path d="M 1149.3029,93.560456 C 1141.9229,85.996804 1141.9348,84.920934 1149.462,79.208863 1152.15,77.168989 1154.5352,74.931544 1154.7624,74.236765 1154.9896,73.541986 1153.7084,71.741986 1151.9153,70.236765 1145.9261,65.209246 1144,63.102723 1144,61.580251 1144,59.600402 1149.4475,53.439464 1153.1121,51.274717 1154.7004,50.336454 1156,48.739251 1156,47.725375 1156,46.7115 1155.5606,46.153539 1155.0235,46.485461 1153.7708,47.259705 1144,37.638983 1144,35.631224 1144,33.386055 1153.0568,22.015759 1156.3465,20.130923 L 1159.193,18.5 1164.602,24.5 C 1167.577,27.8 1170.2708,31.309533 1170.5884,32.298963 1171.409,34.855384 1168.6527,38.570812 1163.9679,41.223363 1159.2559,43.891349 1157.6774,47.688943 1160.6087,49.30506 1163.9765,51.161836 1168.8652,56.61466 1169.5273,59.252881 1170.0192,61.212651 1169.5186,62.557624 1167.421,64.911826 1165.9076,66.610322 1164.1385,68 1163.4897,68 1161.9204,68 1158.7011,71.619396 1159.1474,72.882056 1159.3413,73.430837 1161.0336,74.919376 1162.9081,76.18992 1164.7825,77.460464 1167.1861,79.674865 1168.2494,81.110812 1170.1636,83.695837 1170.1627,83.760039 1168.1603,87.610812 1165.9423,91.876211 1158.4131,100 1156.6779,100 1156.0774,100 1152.7586,97.102205 1149.3029,93.560456 z M 1161.3264,92.023955 C 1164.812,87.88151 1165.6668,83.394316 1163.4392,80.932838 1160.2461,77.404474 1159,78.489991 1159,84.8 1159,89.976685 1157.8694,93 1155.9335,93 1155.567,93 1155.4924,89.85 1155.7679,86 1156.0434,82.15 1155.977,79 1155.6203,79 1154.3179,79 1148.0289,83.538262 1147.5155,84.848686 1146.8687,86.499476 1154.8514,94.848103 1157.1611,94.936458 1158.0747,94.971406 1159.9491,93.66078 1161.3264,92.023955 z M 1155.5313,53.197926 C 1155.2226,52.889255 1153.3843,54.17369 1151.4461,56.052226 1147.1476,60.218531 1147.2837,62.611998 1152,65.788886 L 1155.5,68.146496 1155.7962,60.952821 C 1155.9592,56.996301 1155.8399,53.506598 1155.5313,53.197926 z M 1157,33.5 C 1157,28.275 1156.5883,24 1156.0852,24 1154.32,24 1147.8386,33.916181 1148.4162,35.733089 1149.2328,38.301848 1153.8388,43 1155.5405,43 1156.7174,43 1157,41.160707 1157,33.5 z M 1163.5477,64.353977 C 1164.8965,62.898665 1166,61.133191 1166,60.430703 1166,58.878117 1161.1833,53 1159.9111,53 1159.41,53 1159,56.15 1159,60 1159,67.719943 1159.7568,68.444488 1163.5477,64.353977 z M 1163.6556,38.449109 C 1165.495,37.046119 1167,35.036777 1167,33.983905 1167,31.995533 1161.4686,25 1159.8964,25 1159.4034,25 1159,28.6 1159,33 1159,37.4 1159.295,41 1159.6556,41 1160.0162,41 1161.8162,39.852099 1163.6556,38.449109 z"/>
</svg>
