<?xml version="1.0" encoding="UTF-8"?>
<svg xmlns="http://www.w3.org/2000/svg" viewBox="1619.99 18 44.15 88.01">
  <path d="M 1643.0948,96.413352 C 1637.5028,90.294789 1637.2222,90.25007 1631.3489,94.541038 1629.3259,96.019054 1628.9836,95.924518 1625.5989,92.952704 1623.6195,91.214765 1622.0006,89.276932 1622.0014,88.646408 1622.0021,88.015884 1623.7897,85.48712 1625.9736,83.026934 L 1629.9445,78.553868 1633.4503,81.951805 C 1636.949,85.342929 1636.9605,85.345883 1639.1902,83.424871 1646.5167,77.112709 1647.0287,74.961379 1642.5153,69.453313 1640.5082,67.003991 1638.4433,65 1637.9264,65 1637.4096,65 1636.0086,66.125 1634.8131,67.5 1633.6175,68.875 1632.0767,70 1631.389,70 1629.3861,70 1623.0887,65.624242 1623.0423,64.20034 1622.9783,62.234342 1625.528,57.737106 1627.9487,55.546428 1630.0884,53.609996 1630.1304,53.612989 1634.5293,56.016026 L 1638.9565,58.434476 1642.5603,54.967238 C 1648.5563,49.198517 1648.616,48.674689 1644.0563,41.846514 1641.8254,38.505583 1640,35.54968 1640,35.27784 1640,33.709633 1650.4514,22.003483 1651.8361,22.020756 1653.4588,22.040998 1660.755,32.347096 1661.6971,35.949654 1661.9931,37.081747 1660.6744,39.339504 1658.0945,42.117702 1655.8562,44.527966 1654.0193,47.132524 1654.0125,47.905609 1654.0056,48.678694 1655.0583,50.703694 1656.3518,52.405609 1657.6453,54.107524 1659.4881,57.022882 1660.4469,58.884183 1662.1391,62.16931 1662.1283,62.344932 1660.077,64.884183 1652.4772,74.291883 1651.9336,75.267428 1653.375,76.911825 1656.2765,80.222249 1659.1548,87.246962 1658.5679,89.585528 1657.4554,94.018065 1652.4151,101.49358 1650.3321,101.80037 1648.9172,102.00877 1646.7011,100.35926 1643.0948,96.413352 z M 1632.9481,65.02778 C 1635.6732,63.569356 1636.2739,60.960125 1634.3691,58.855382 1632.2624,56.527429 1630.1081,56.489446 1628.392,58.75 1626.5652,61.15653 1626.6801,63.036689 1628.75,64.607954 1630.8884,66.231228 1630.7292,66.215306 1632.9481,65.02778 z M 1633.3865,89.706652 C 1635.0709,88.474976 1635.0636,88.300131 1633.2334,86.039893 1631.9787,84.490403 1630.7289,83.890072 1629.6331,84.31056 1627.3177,85.199035 1626.5291,87.727665 1628.0106,89.512735 1629.5279,91.340955 1631.0751,91.396767 1633.3865,89.706652 z M 1652.7235,94.744282 C 1653.3965,94.224396 1654.2323,92.278715 1654.5809,90.420546 1655.0714,87.805776 1654.6158,86.020066 1652.5652,82.521029 1651.108,80.034463 1649.5551,78 1649.1144,78 1648.6737,78 1646.4808,80.172919 1644.2414,82.82871 L 1640.1698,87.657419 1644.1233,92.282594 C 1648.05,96.876406 1649.4463,97.276095 1652.7235,94.744282 z M 1653.4653,68.25 C 1655.386,66.1875 1657.2106,63.749473 1657.52,62.832161 1658.017,61.35893 1652.613,51 1651.3475,51 1650.0257,51 1644.2887,56.222877 1642.7618,58.816249 L 1641.0237,61.76849 1645.0969,66.884245 C 1647.3372,69.69791 1649.3508,72 1649.5716,72 1649.7924,72 1651.5446,70.3125 1653.4653,68.25 z M 1655.1047,40.867799 1658.3775,36.735599 1655.4582,31.338879 C 1653.792,28.25877 1651.9493,26.061889 1651.1653,26.221079 1650.4099,26.374486 1648.445,28.361728 1646.7989,30.637173 1643.935,34.596076 1643.8749,34.886931 1645.403,37.387173 1646.2814,38.824228 1647.6854,41.125 1648.5231,42.5 1649.3607,43.875 1650.4479,45 1650.939,45 1651.4301,45 1653.3047,43.14051 1655.1047,40.867799 z"/>
</svg>
