<?xml version="1.0" encoding="UTF-8"?>
<svg xmlns="http://www.w3.org/2000/svg" viewBox="1185 14.88 32.3 90.61">
  <path d="M 1196.7299,98.997524 C 1195.7892,97.898886 1194.3802,97 1193.5987,97 1191.1995,97 1187,91.113813 1187,87.751135 1187,85.27818 1188.0886,83.665463 1192.4137,79.731285 L 1197.8274,74.806848 1192.4137,67.800081 C 1189.4362,63.946359 1187,59.97982 1187,58.98555 1187,57.290572 1189.3934,54.941215 1195.4375,50.703315 1199.3744,47.942984 1198.7527,44.843491 1193.3472,40.28084 1189.4995,37.033077 1188.8,35.933652 1189.3047,33.926775 1189.8839,31.623755 1201.5623,19 1203.1137,19 1206.802,19 1215.3044,32.120072 1214.2439,36.175228 1213.9514,37.293816 1211.3019,39.750822 1208.356,41.635241 1202.4721,45.399136 1201.7468,47.272289 1205.42,49.218063 1209.2353,51.239182 1214.2096,58.09931 1213.5744,60.463885 1213.2735,61.583748 1213.0212,63.046985 1213.0137,63.715522 1212.9977,65.135437 1208.5545,69.810271 1205.071,72.072294 1201.938,74.106662 1202.7335,76.175376 1207.9035,79.439081 1210.9931,81.389485 1212.0591,82.79807 1212.591,85.633257 1213.4466,90.194376 1211.6689,93.481084 1206.3502,97.171347 1200.8801,100.96659 1198.7604,101.36897 1196.7299,98.997524 z M 1199.9847,59.75 C 1199.997,54.331184 1199.6962,53 1198.4595,53 1196.4422,53 1191,57.044888 1191,58.544256 1191,59.186733 1192.6317,61.849392 1194.626,64.461277 1199.0281,70.226469 1199.9628,69.404695 1199.9847,59.75 z M 1198.393,93.418213 C 1198.7269,92.548229 1199,88.969159 1199,85.464723 L 1199,79.093021 1196.0518,80.785034 C 1190.7316,83.838411 1189.6491,88.740022 1193.4545,92.545455 1196.3084,95.39926 1197.5487,95.618462 1198.393,93.418213 z M 1199.8088,29.957253 1199.5,25.86164 1196.25,29.049478 C 1192.1572,33.063956 1192.1555,34.818164 1196.241,38.188708 L 1199.5,40.877415 1199.8088,37.465141 C 1199.9786,35.58839 1199.9786,32.20984 1199.8088,29.957253 z M 1206.1953,93.312909 C 1209.5497,90.099138 1209.879,85.879031 1207,83 1203.0948,79.094787 1202,80.299053 1202,88.5 1202,92.625 1202.3129,96 1202.6953,96 1203.0777,96 1204.6527,94.790809 1206.1953,93.312909 z M 1209.0203,62.95106 C 1210.0727,60.410381 1209.8907,59.6607 1207.3507,56.071188 1202.9775,49.891124 1202,50.669746 1202,60.333333 1202,64.916667 1202.3041,68.970783 1202.6758,69.34248 1203.6477,70.3144 1207.6334,66.299207 1209.0203,62.95106 z M 1207.1369,39.260076 C 1210.7576,37.121272 1211.8377,33.58313 1209.6185,31.130965 1208.7283,30.147319 1208,28.963385 1208,28.5 1208,27.359776 1204.8978,24 1203.845,24 1203.3803,24 1203,27.825 1203,32.5 1203,37.175 1203.2681,41 1203.5957,41 1203.9233,41 1205.5169,40.217034 1207.1369,39.260076 z"/>
</svg>
