<?xml version="1.0" encoding="UTF-8"?>
<svg xmlns="http://www.w3.org/2000/svg" viewBox="1.58 7.15 26.71 100.46">
  <path d="M 22,102.32565 C 18.122925,101.18229 10.417722,86.521833 8.1400325,75.954699 3.5842397,54.818511 8.3684114,27.782981 18.793777,15.75 22.28449,11.72101 24.146739,15.019394 22.097092,21.600777 21.600492,23.19535 20.645841,29 19.975644,34.5 18.117727,49.747079 20.039295,72.668324 24.941703,93.737158 26.07859,98.623103 26.29663,101.30337 25.612842,101.98716 24.558994,103.04101 24.457885,103.05048 22,102.32565 z M 20.347714,89.75 C 20.093629,87.4125 19.467125,83.635768 18.955482,81.357262 18.443838,79.078755 17.520997,70.528755 16.904724,62.357262 15.85423,48.42822 16.006557,42.668515 17.833209,27.25 18.240455,23.8125 18.456139,21 18.312508,21 17.26918,21 12.256184,34.192485 10.578612,41.352957 9.7964086,44.691679 9.7697271,63.699055 10.539101,69.5 11.651242,77.885354 17.783963,94 19.86302,94 20.383687,94 20.601799,92.0875 20.347714,89.75 z"/>
</svg>
