<?xml version="1.0" encoding="UTF-8"?>
<svg xmlns="http://www.w3.org/2000/svg" viewBox="1726.61 12.31 60.79 97.17">
  <path d="M 1730.103,101.62414 C 1729.4315,100.815 1729.374,99.143855 1729.9417,96.933585 1730.4268,95.045113 1731.3438,87.670075 1731.9797,80.544611 1733.2459,66.354938 1735.8005,58.875294 1740.6958,55.024617 1744.0525,52.384286 1750.3983,52.384492 1756.5586,55.025132 1759.1571,56.138954 1761.5367,56.796681 1761.8466,56.486747 1762.1565,56.176814 1762.5954,53.012508 1762.822,49.454958 1763.2806,42.252433 1762.2142,40 1758.3454,40 1757.0201,40 1754.3752,39.347962 1752.4679,38.551027 1749.2401,37.202383 1749,36.790889 1749,32.608187 1749,26.849399 1752.1231,21.483413 1756.8742,19.079043 1761.5242,16.725779 1764.078,17.649661 1767.5892,22.955456 L 1770.2725,27.010152 1775.6324,22.431016 C 1781.929,17.051707 1784.637,16.879054 1784.2335,21.882644 1783.9533,25.357182 1779.963,31.872022 1775.6697,35.864661 L 1773.127,38.229322 1773.7024,53.864661 C 1774.2628,69.093946 1774.2092,69.670844 1771.6389,76.078461 1768.461,84.000672 1768.4052,85.301562 1771.0596,89.596481 1773.6008,93.708204 1775.0761,98.638139 1774.3396,100.5573 1773.4704,102.82247 1770.8059,102.25714 1767,99 1762.1571,94.855425 1758.7657,95.024962 1755.9682,99.551489 1752.5631,105.06094 1748.7933,102.944 1750.4259,96.439245 1750.7575,95.117834 1752.3823,92.495231 1754.0365,90.611239 L 1757.0441,87.185799 1754.9696,81.922918 C 1751.8383,73.97872 1747.7764,66 1746.8634,66 1744.8933,66 1740.7702,77.966466 1739.4556,87.5 1738.7221,92.819805 1734.6089,101.55235 1732.4458,102.38241 1731.731,102.6567 1730.6768,102.31548 1730.103,101.62414 z M 1768.513,92.25 C 1767.6668,90.7375 1766.4442,88.750721 1765.796,87.834935 1764.8498,86.498199 1765.1889,84.72352 1767.5156,78.834935 1771.308,69.236966 1771.9894,62.916854 1770.7093,49.213609 L 1769.655,37.927218 1773.6797,33.713609 C 1782.6838,24.286919 1783.8074,19.193147 1775.271,26.5 1770.892,30.248297 1767,31.116188 1767,28.344391 1767,26.124095 1762.2485,20 1760.5258,20 1757.9221,20 1753.0781,25.066692 1752.4425,28.454984 1751.4988,33.48491 1753.1873,35.612566 1759.2291,37.007024 1762.1281,37.67611 1765.0625,38.934256 1765.75,39.802902 1768.4294,43.188321 1765.8461,59.077605 1762.4014,60.399481 1761.5307,60.733563 1759.6218,60.19591 1758.1592,59.204696 1745.0102,50.293348 1736.6828,57.370604 1735.7496,78.25 1735.3731,86.6738 1736.2162,89.955227 1737.2911,84.25 1739.0937,74.683304 1743.4011,64.341624 1746.3126,62.590315 1747.7869,61.703538 1748.5153,61.966696 1750.2145,64 1752.375,66.585282 1757.734,77.600172 1760.1171,84.353973 1761.4451,88.117502 1761.4078,88.263135 1758.5276,90.559719 1755.131,93.268079 1755.5297,94.5095 1759.3319,93.063899 1761.2336,92.340875 1762.8306,92.458267 1765.2206,93.496779 1769.8525,95.509383 1770.2517,95.358185 1768.513,92.25 z"/>
</svg>
