<?xml version="1.0" encoding="UTF-8"?>
<svg xmlns="http://www.w3.org/2000/svg" viewBox="373.35 12.92 58.4 83.14">
  <path d="M 376 33.5625 L 376 34 L 379.1875 36.375 C 379.29926 35.631284 379.31205 34.104921 379.4375 33.8125 C 380.50874 31.315484 390.93764 23 393 23 C 395.62679 23 397.81601 27.036194 398.9375 34 L 399.90625 40.1875 L 395.8125 45.625 C 392.06195 50.59257 391.57494 50.928271 390.03125 49.53125 C 387.51695 47.25584 385.74592 47.64313 382.25 51.25 L 379.09375 54.5 L 381.15625 57.75 C 383.64076 61.674022 385.51705 61.832952 389.09375 58.40625 L 391.8125 55.8125 L 396.0625 59.9375 L 400.34375 64.09375 L 396.0625 68.4375 C 392.24545 72.326793 391.42011 72.740759 388.15625 72.3125 C 385.07311 71.907954 384.07159 72.304224 381.65625 74.84375 L 378.78125 77.84375 L 381.65625 81.40625 C 383.2283 83.376481 385.26492 84.999983 386.1875 85 C 387.76693 85.000027 391.31257 81.332923 392.3125 78.6875 C 392.59123 77.950076 394.19019 78.874457 396.4375 81.0625 L 400.09375 84.625 L 397.96875 87.3125 C 396.80916 88.786676 396.14039 90.40621 396.46875 90.9375 C 397.29872 92.280413 399.85371 91.133647 401.0625 88.875 C 402.36696 86.437607 404.11054 86.501345 407.40625 89.09375 C 408.94345 90.302913 410.7474 90.923254 411.6875 90.5625 C 413.08122 90.027681 412.93953 89.539474 410.65625 87.15625 L 407.96875 84.375 L 410.3125 82.1875 C 413.14576 79.525794 414.41377 79.471225 417.84375 81.84375 C 419.30365 82.853569 421.03421 83.967251 421.6875 84.34375 C 422.41225 84.761429 424.1029 83.288583 426 80.53125 L 429.09375 76 L 426.59375 73.5 C 423.49281 70.399058 420.35928 70.316564 417.21875 73.25 L 414.8125 75.5 L 410.4375 70.5 C 408.02573 67.75 406.04256 64.935915 406.03125 64.25 C 406.00624 62.733782 412.85202 55 414.21875 55 C 414.7555 55 416.33246 55.878295 417.71875 56.96875 L 420.21875 58.96875 L 423.0625 56.71875 C 426.71856 53.836315 426.70671 50.849281 423.0625 46.78125 L 420.15625 43.5 L 417.15625 46.375 L 414.15625 49.25 L 409.09375 44.96875 C 406.3181 42.628283 403.86527 40.012616 403.625 39.125 C 403.38473 38.237383 402.63805 35.025 401.96875 32 C 398.77269 17.554751 393.56559 16.697441 381.25 28.53125 L 376 33.5625 z M 402.59375 44 C 403.14344 44 405.33215 45.750175 407.4375 47.90625 L 411.25 51.84375 L 409.21875 54.65625 C 405.51713 59.849549 403.76844 61.000613 401.34375 59.6875 C 398.66915 58.23904 395 53.662155 395 51.78125 C 395 50.205712 401.05741 44 402.59375 44 z M 419.15625 48.09375 C 419.64328 48.180735 420.17068 48.748998 421.09375 49.875 C 422.59158 51.702137 422.77974 52.572501 421.90625 53.625 C 420.37779 55.46668 419.63503 55.362465 417.46875 52.96875 C 415.71934 51.035675 415.7117 50.854644 417.375 49.21875 C 418.20206 48.405325 418.66922 48.006765 419.15625 48.09375 z M 387.78125 51.125 C 388.29379 51.152189 388.6358 51.430023 388.96875 51.96875 C 389.42848 52.712603 389.60973 53.825792 389.375 54.4375 C 388.56181 56.556648 385.35269 57.946439 384.125 56.71875 C 382.28525 54.878996 382.8208 53.030452 385.5625 51.78125 C 386.58686 51.314523 387.26871 51.097811 387.78125 51.125 z M 403.03125 66.75 L 405.25 69.53125 C 406.48313 71.064871 408.29956 73.557515 409.28125 75.0625 C 411.04519 77.766748 411.04468 77.830861 408.40625 79.90625 C 406.93789 81.061258 405.23833 81.985475 404.625 81.96875 C 401.37594 81.880152 396.071 76.850362 396.03125 73.8125 C 396.01902 72.87799 397.57063 70.909104 399.5 69.4375 L 403.03125 66.75 z M 421.0625 73.15625 C 421.57623 73.172006 422.07595 73.63845 423.03125 74.59375 C 424.84008 76.402578 424.87067 76.735107 423.4375 78.78125 C 421.6449 81.340543 421.14541 81.412123 418.75 79.59375 C 416.47788 77.868962 416.53816 76.724969 419.03125 74.46875 C 420.02094 73.573102 420.54877 73.140494 421.0625 73.15625 z M 386.53125 74.09375 C 387.40876 74.148329 388.34025 74.703653 389.34375 75.8125 C 390.89252 77.523874 390.85443 77.782449 388.59375 79.90625 L 386.15625 82.1875 L 384.46875 79.59375 C 383.09428 77.496045 382.99877 76.706408 384 75.5 C 384.82584 74.504932 385.65374 74.039171 386.53125 74.09375 z "/>
</svg>
