<?xml version="1.0" encoding="UTF-8"?>
<svg xmlns="http://www.w3.org/2000/svg" viewBox="38.69 15.25 31.31 82.5">
  <path d="M 47.688824,89.426486 C 40.692708,82.33013 40.685196,79.92992 47.632192,71.331703 49.484487,69.03914 51,66.37928 51,65.420902 51,63.724987 45.460778,58 43.819892,58 41.85358,58 43.311175,54.405896 47.124715,49.851042 L 51.24943,44.924523 47.124715,40.032855 C 44.856122,37.342438 43,34.818267 43,34.423586 43,32.538133 55.314054,19 57.02903,19 60.070043,19 68,29.583433 68,33.642013 68,34.511248 66.2,37.372342 64,40 61.8,42.627658 60,45.032807 60,45.344774 60,45.656741 61.35,48.201593 63,51 64.65,53.798407 66,56.659019 66,57.356915 66,58.054811 64.65,59.9192 63,61.5 61.130416,63.291175 60,65.382289 60,67.049587 60,68.521059 61.35,71.423745 63,73.5 64.65,75.576255 66,78.376136 66,79.721959 66,83.264945 57.317059,94 54.45135,94 53.098947,94 50.394637,92.171068 47.688824,89.426486 z M 59.31675,85.578143 62.916661,80.156286 60.698975,76.828143 C 59.479247,74.997664 57.936688,72.27137 57.271064,70.769712 56.550058,69.143109 55.51499,68.248885 54.71052,68.557589 52.364403,69.457879 46,77.791176 46,79.9628 46,81.917369 53.394496,91 54.98578,91 55.387863,91 57.3368,88.560164 59.31675,85.578143 z M 61.352776,38.764013 64.871423,34.528025 62.78682,31.014013 C 59.853503,26.069321 56.681623,22.935385 55.466091,23.780857 54.897441,24.176386 52.687767,26.659426 50.555703,29.298725 L 46.679223,34.097449 51.04782,38.548725 C 53.450548,40.996926 55.960402,43 56.625273,43 57.290144,43 59.417521,41.093806 61.352776,38.764013 z M 59.947989,60.555363 C 62.578257,57.755571 62.291056,54.911029 58.949148,50.662482 56.425316,47.453949 53.386158,47.248737 50.896984,50.118778 47.393561,54.15826 47.533379,55.879206 51.661251,59.525679 56.284224,63.609513 56.99571,63.69792 59.947989,60.555363 z"/>
</svg>
