<?xml version="1.0" encoding="UTF-8"?>
<svg xmlns="http://www.w3.org/2000/svg" viewBox="714.53 13.19 76.23 92.53">
  <path d="M 770.41271,100.07968 C 766.57471,99.134225 765,98.18871 765,96.829692 765,95.846658 768.31057,96.131763 774.70556,97.665528 777.8347,98.416019 780.27912,93.945605 782.48361,83.440825 784.36719,74.465248 784.1074,64.972407 781.86136,60.703905 779.31574,55.866063 773.39645,49.082761 771.68538,49.042596 770.68734,49.019168 767.65877,49.951572 764.95523,51.114605 756.18498,54.887467 754.58801,51.7509 757.8656,37.189985 L 760.01432,27.644146 757.90838,25.402478 C 756.75012,24.169561 754.4979,22.620451 752.90346,21.960011 750.31128,20.886294 749.63382,21.041918 746.50224,23.430497 742.46617,26.508952 742.5738,26.023709 744.51082,32.408931 746.02656,37.405413 746.46081,46.678585 745.36971,50.75 744.59456,53.642495 743.08508,53.583546 736.83566,50.416721 L 731.7378,47.833441 726.82711,52.666721 C 724.12622,55.325024 721.68242,58.428891 721.39643,59.564203 720.81027,61.891118 723.56597,82.635656 725.17384,88 725.75082,89.925 726.859,92.513838 727.63645,93.752974 728.99046,95.911046 729.20152,95.942638 732.64713,94.502974 737.00436,92.682404 737,92.682623 737,94.284392 737,95.872937 731.87402,99 729.27002,99 726.91801,99 723,95.013148 723,92.619807 723,91.656598 722.5568,90.040382 722.0151,89.028216 720.78506,86.729855 718,68.487594 718,62.729089 718,58.029201 719.2949,55.729369 725.58926,49.25 730.19149,44.512502 731.71278,44.220555 737.5,46.964229 L 741.5,48.860595 742.25911,44.680298 C 743.064,40.24786 741.44469,31.61395 739.50685,30.005688 738.83503,29.448123 736.67142,29.725608 733.88891,30.726196 726.13118,33.515858 723.60464,30.942864 726.86474,23.572867 729.22661,18.23348 731.0207,17.826386 736,21.5 737.86371,22.875 739.78255,24 740.2641,24 740.74565,24 743.10181,22.65 745.5,21 747.89819,19.35 750.57571,18 751.45005,18 752.80255,18 757.71439,20.847618 762.61037,24.470146 763.53749,25.156117 765.25975,24.49705 768.49002,22.220146 775.33776,17.393412 777.3539,18.107349 778.58308,25.794196 779.60692,32.196941 778.15622,33.319098 769.92385,32.492353 766.24182,32.122581 762.9829,32.218646 762.68181,32.705832 761.43743,34.719274 759.43707,45.658278 759.94826,47.654219 L 760.5,49.808437 766.92928,47.226643 773.35856,44.644848 777.23496,49.072424 C 784.68523,57.58201 786.35672,61.428357 786.82058,71.130374 787.3003,81.164193 785.13634,92.010649 781.60575,97.268797 779.27535,100.73949 776.21301,101.50853 770.41271,100.07968 z M 746.168,98.310386 C 741.5495,96.677365 738.01049,92.316438 738.00374,88.25 738.00078,86.466751 737.42953,85.996823 735.25,85.984687 730.82087,85.960025 729.80852,84.628511 728.52362,77.137685 727.18347,69.324828 727.92313,61.286289 730.10704,59.929073 731.64397,58.973931 738.47715,59.748686 741.29787,61.197902 745.38898,63.299816 746.05556,71.050327 742.9871,80.839094 740.48482,88.821662 740.49688,89.165075 743.38877,92.285483 746.58544,95.734743 753.06631,97.463251 757.41775,96.027144 763.16195,94.131388 764.48516,87.841917 761,79 759.9,76.209278 759,72.072942 759,69.808143 759,66.297727 759.59623,65.123146 763.04211,61.845164 765.26527,59.730324 767.58494,58 768.19694,58 768.80894,58 770.94577,59.719891 772.94543,61.82198 778.59138,67.757097 781.17687,77.865661 779.36548,86.922594 778.74168,90.041609 778.64457,90.090163 773.61548,89.797594 769.86732,89.579544 768.5,89.099065 768.5,88 768.5,86.874986 769.43747,86.582048 772.25,86.828204 L 776,87.156407 776,81.09844 C 776,74.529576 773.8771,67.814535 770.67353,64.25 768.13827,61.42908 766.62288,61.415047 764.03896,64.188561 761.40575,67.014973 761.39163,72.382525 764,79 766.51939,85.391747 766.53416,90.032627 764.05062,94.900782 762.44817,98.041845 761.42484,98.833661 758.30062,99.349938 753.00229,100.22548 751.13075,100.06513 746.168,98.310386 z M 734.5,26.108986 C 734.5,25.343929 733.69969,24.218929 732.72153,23.608986 731.3443,22.750194 730.72734,22.838409 729.98685,24 728.22061,26.770655 728.8575,28.149241 731.75,27.816422 733.28037,27.640334 734.5,26.883081 734.5,26.108986 z M 737.92446,82.040427 C 740.30247,80.767757 742.40814,72.989117 741.57575,68.552082 740.86144,64.744499 739.19554,63.402439 734.5,62.851803 731.55598,62.506565 731.49377,62.593303 731.16636,67.5 730.98286,70.25 731.35263,74.8625 731.98807,77.75 733.17657,83.150568 734.31405,83.972662 737.92446,82.040427 z M 774.81336,26.827012 C 774.41228,22.765838 773.22265,22.480395 769.5,25.552118 766.99304,27.620725 766.74652,28.187116 768,28.998463 768.825,29.532464 770.76601,29.976265 772.31336,29.984687 774.87515,29.998631 775.0987,29.716272 774.81336,26.827012 z"/>
</svg>
