<?xml version="1.0" encoding="UTF-8"?>
<svg xmlns="http://www.w3.org/2000/svg" viewBox="1238.92 13.77 45.78 86.15">
  <path d="M 1247.5826,90.310397 C 1243.9622,87.181115 1241.0003,83.918615 1241.0006,83.060397 1241.001,82.202179 1243.0572,78.881131 1245.57,75.680291 L 1250.1387,69.860582 1248.3315,67.180291 C 1241.0742,56.41692 1241.1047,56.664576 1246.3472,51.05986 1248.9063,48.324062 1251,45.809982 1251,45.473016 1251,44.48336 1245.3118,36.503638 1243.5844,35.070039 1242.713,34.346828 1242,32.783624 1242,31.596252 1242,28.657926 1253.1156,17.683039 1255.6059,18.162622 1256.6244,18.358771 1259.1716,21.109228 1261.2664,24.274747 1265.5007,30.673638 1266.0756,30.719493 1271.4371,25.086056 1273.0525,23.388725 1274.9038,22 1275.5511,22 1277.2191,22 1282,29.194733 1282,31.704975 1282,33.494012 1278.0955,36.840214 1273.6697,38.844251 1273.213,39.05104 1271.5575,37.992206 1269.9909,36.491286 L 1267.1425,33.762342 1264.3213,35.783404 C 1262.7696,36.894988 1260.445,38.935178 1259.1556,40.317159 L 1256.8112,42.829853 1261.0857,48.664926 C 1263.4367,51.874217 1265.8079,54.80022 1266.3551,55.167155 1266.9022,55.53409 1268.9507,54.74659 1270.9071,53.417155 1275.5492,50.262774 1276.4069,50.355881 1279.4491,54.344391 1282.6198,58.50141 1282.6171,59.113154 1279.4111,62.923275 1276.384,66.520836 1275.6088,66.618552 1269.8113,64.133458 L 1265.4569,62.266916 1261.2284,66.019328 C 1258.9028,68.083154 1257.0048,70.160598 1257.0107,70.63587 1257.0165,71.111141 1258.971,73.613817 1261.3539,76.197371 1265.8298,81.050112 1268.4023,81.629992 1271.0897,78.391935 1271.725,77.626371 1273.4564,77 1274.9372,77 1277.0345,77 1278.002,77.781032 1279.3148,80.533927 1282.3701,86.940969 1281.3346,89.291411 1274.9296,90.488105 1271.9149,91.051368 1270.9812,90.756735 1268.9296,88.594867 1267.5933,87.186694 1265.9643,86.026779 1265.3095,86.017277 1264.6548,86.007774 1262.2218,88.25 1259.903,91 1257.5842,93.75 1255.3445,96 1254.9261,96 1254.5076,96 1251.203,93.439679 1247.5826,90.310397 z M 1259.3832,36.142309 1262.2664,33.112505 1259.2403,27.306253 C 1257.576,24.112814 1255.5155,21.359202 1254.6614,21.187116 1253.3122,20.915296 1246.0842,27.705818 1245.1734,30.100762 1244.9938,30.573084 1246.739,33.203568 1249.0517,35.946282 1253.7012,41.460311 1254.3115,41.47189 1259.3832,36.142309 z M 1259.3936,85.522005 C 1261.0165,83.045227 1260.9712,82.818449 1257.9872,78.481397 1256.212,75.901287 1254.1197,74 1253.0556,74 1251.1215,74 1244.6745,80.578961 1245.198,82.018297 1245.3641,82.474943 1247.525,84.406297 1250,86.310194 1254.9305,90.102953 1256.4771,89.973178 1259.3936,85.522005 z M 1258.903,62.600091 C 1261.4984,59.922329 1262.0464,58.701017 1261.4831,56.850091 1260.6161,54.001396 1256.2373,48 1255.0258,48 1253.7874,48 1248.1274,52.893521 1247.0608,54.886392 1246.4035,56.114561 1247.0742,57.80761 1249.5931,61.278531 1251.4776,63.875339 1253.6018,66 1254.3135,66 1255.0253,66 1257.0906,64.470041 1258.903,62.600091 z M 1277.3809,59.768764 C 1278.2198,58.430535 1278.0667,57.638161 1276.7069,56.278279 1275.1015,54.672961 1274.7099,54.652452 1272.2309,56.043889 1268.98,57.86857 1268.1719,60.639398 1270.6929,61.317248 1273.7757,62.146142 1276.2498,61.573314 1277.3809,59.768764 z M 1275.7373,84.988516 C 1275.8804,84.169832 1275.5803,82.850585 1275.0704,82.056856 1274.3059,80.866958 1273.6703,80.829197 1271.4481,81.841676 1268.8244,83.037124 1268.801,83.122659 1270.565,85.071844 1272.5892,87.3085 1275.3394,87.264192 1275.7373,84.988516 z M 1279,31.246357 C 1279,30.312193 1274.766,26 1273.8487,26 1273.4073,26 1272.309,27.125 1271.408,28.5 1269.889,30.818309 1269.8907,31.184252 1271.4311,33.535238 L 1273.0923,36.070476 1276.0461,33.967144 C 1277.6708,32.810311 1279,31.585957 1279,31.246357 z"/>
</svg>
