<?xml version="1.0" encoding="UTF-8"?>
<svg xmlns="http://www.w3.org/2000/svg" viewBox="1120.46 9.41 51.04 94.7">
  <path d="M 1145.75,98.94464 C 1143.2829,97.472781 1143.5669,94.609969 1146.8237,88.123705 1149.7457,82.304057 1149.7523,80.841916 1146.8803,75.5 1145.9932,73.85 1144.7224,70.8125 1144.0562,68.75 1143.39,66.6875 1142.3527,65 1141.7512,65 1141.1496,65 1139.8239,64.245633 1138.8051,63.323629 1136.2289,60.992156 1134.8294,62.675129 1133.8968,69.22623 1132.7744,77.110116 1132.8385,90 1134,90 1135.6628,90 1135.1618,96.000673 1133.444,96.659856 1131.1929,97.523699 1128.1167,93.756065 1126.4267,88.065131 1122.7772,75.775915 1125.1089,53.298064 1130.3997,49.765313 1132.7623,48.187767 1137.5405,49.138362 1142.1651,52.105962 1148.4035,56.109114 1150.2493,55.514172 1149.3961,49.775298 1148.4828,43.632648 1145.4168,37 1143.4905,37 1142.5984,37 1141.0905,37.416395 1140.1395,37.925323 1139.0467,38.510199 1136.223,38.418219 1132.4648,37.675323 1127.4745,36.688853 1126.3014,36.044457 1125.1642,33.664941 1123.2483,29.655929 1124.4107,25.04848 1128.5614,20.199291 1134.1093,13.717797 1140.5562,13.718931 1147.6557,20.202651 1150.1121,22.446094 1151.8014,21.90152 1157.9211,16.893258 1159.8028,15.353389 1161.7153,14.324017 1162.1711,14.605765 1163.7803,15.600314 1162.9452,20.553673 1160.4249,24.963 L 1157.874,29.425999 1159.8777,35.463 C 1160.9798,38.78335 1162.1647,43.3 1162.511,45.5 1162.8572,47.7 1164.5053,52.561579 1166.1734,56.303509 1169.136,62.949383 1169.1779,63.262175 1167.9834,69.803509 1167.3108,73.486579 1166.0944,77.949163 1165.2803,79.720362 1163.9113,82.699034 1163.9592,83.197903 1165.9181,86.367497 1167.0829,88.252223 1168.1404,91.527965 1168.268,93.646924 1168.5892,98.981038 1165.6899,99.338722 1161.0377,94.538903 1159.1512,92.592506 1157.1578,91 1156.6079,91 1156.0581,91 1153.7839,93.022448 1151.5541,95.49433 1148.2162,99.194731 1147.1909,99.804232 1145.75,98.94464 z M 1153.5727,89.51526 1157.2341,87.03052 1160.1746,89.124351 C 1163.3612,91.393368 1165.0803,91.006624 1162.9921,88.490516 1161.166,86.290216 1161.3738,78.733296 1163.4934,70.255355 L 1165.3047,63.01071 1162.2347,56.755355 C 1160.4229,53.063751 1158.9189,48.113035 1158.5649,44.675988 1158.235,41.472781 1157.073,37.103208 1155.9826,34.965826 1153.676,30.444672 1153.5173,28.64791 1155.263,26.821429 1155.9576,26.094643 1157.318,24.2625 1158.286,22.75 1160.6999,18.978477 1158.604,19.110187 1153.2219,23.068233 L 1149.0497,26.136466 1145.1797,22.068233 C 1141.9186,18.640105 1140.6834,18 1137.3292,18 1132.8481,18 1129.7613,20.517785 1127.9809,25.624831 1126.1835,30.780942 1128.0208,33.730614 1133.546,34.559163 1136.525,35.0059 1139.6311,34.781795 1142.197,33.934995 1146.0098,32.676646 1146.2874,32.729531 1148.0358,35.047407 1150.2399,37.969451 1153,47.351378 1153,51.921248 1153,53.971669 1152.0581,56.33073 1150.5,58.182369 1147.1648,62.146023 1147.2956,66.331392 1150.9992,74.160212 1154.899,82.403631 1154.9131,82.121208 1150.2148,89.878136 1148.5612,92.608274 1149.1008,92.549966 1153.5727,89.51526 z M 1131.4044,75 C 1132.6077,59.713556 1134.8409,55.851699 1139.5,61 1140.4955,62.1 1141.9249,63 1142.6764,63 1143.9705,63 1146.7887,58.356008 1145.9124,57.667467 1140.9387,53.759271 1137.8572,52.112984 1135,51.837483 1131.7902,51.52798 1131.3342,51.831637 1129.5,55.5 1127.8777,58.744632 1127.5024,61.48284 1127.5125,70 1127.5339,88.10165 1130.1124,91.41416 1131.4044,75 z M 1134,30.710226 C 1130.6607,29.026833 1130.2623,25.630122 1133.1656,23.596557 1136.3029,21.399087 1138.6043,21.597029 1140.4433,24.222506 1142.4092,27.029196 1142.4058,28.451339 1140.4286,30.428571 1138.5394,32.317745 1137.2968,32.372188 1134,30.710226 z M 1139,27.468615 C 1139,26.626354 1138.2948,25.666601 1137.4328,25.335833 1135.552,24.614126 1133.5011,26.38378 1134.4461,27.912868 1135.4649,29.561171 1139,29.216299 1139,27.468615 z"/>
</svg>
