<?xml version="1.0" encoding="UTF-8"?>
<svg xmlns="http://www.w3.org/2000/svg" viewBox="1532.02 7.7 87.55 95.13">
  <path d="M 1551.039,95.811439 C 1549.9175,94.60773 1549,93.25773 1549,92.811439 1549,91.645087 1544.2364,91.8084 1543.5,93 1543.1601,93.55 1541.956,94 1540.8244,94 1539.282,94 1538.8935,93.515381 1539.2729,92.064583 1539.5635,90.953266 1539.1945,89.904884 1538.4064,89.602437 1536.3046,88.795913 1537.6642,86.635652 1541.6114,84.509918 1543.8726,83.292213 1546.015,80.931858 1547.4785,78.045905 1548.7464,75.545657 1550.7427,72.633533 1551.9146,71.574517 1553.9636,69.722845 1554.249,69.713261 1559.3605,71.324517 1567.2892,73.823821 1567.1469,73.926546 1566.3911,66.25 1566.0256,62.5375 1565.6198,59.369214 1565.4893,59.209365 1565.3588,59.049516 1563.7328,59.784285 1561.876,60.842185 1556.4698,63.92231 1553.5646,64.23195 1550.7612,62.026804 1547.4502,59.422358 1546.0472,53.693366 1545.5422,40.71504 L 1545.1225,29.93008 1540.5612,24.856886 C 1538.0526,22.06663 1536,19.382362 1536,18.891846 1536,16.734993 1538.8925,18.387027 1543.6305,23.25 L 1548.7457,28.5 1549.2107,41.025607 C 1549.88,59.05257 1552.4412,62.88731 1560.5977,58.074862 1562.5318,56.933688 1565.147,56 1566.4091,56 1568.5936,56 1568.7328,56.444671 1569.3032,65.248816 1569.6544,70.669636 1569.5063,74.893737 1568.9453,75.454659 1568.336,76.064026 1566.2649,75.919461 1563.2442,75.056701 1554.6758,72.609491 1553.8056,72.873287 1550.9192,78.792744 1549.3379,82.035823 1546.9175,85.051044 1544.6692,86.578795 1539.8714,89.838987 1539.9302,91.582859 1544.75,88.974348 L 1548.5,86.94481 1551.8367,90.55235 C 1555.7933,94.830005 1557.1673,94.447995 1553.9708,89.959011 L 1551.7234,86.802872 1556.155,82.371294 1560.5866,77.939716 1564.8236,80.219858 C 1568.3273,82.105334 1569.2508,83.242613 1570.1592,86.790373 1570.7634,89.150078 1571.7623,90.929863 1572.3789,90.745451 1572.9955,90.561039 1574.4,88.534178 1575.5,86.241316 1576.6819,83.777647 1578.2059,82.057653 1579.2258,82.036238 1580.175,82.016307 1582.425,81.101682 1584.2258,80.003738 1588.7449,77.248436 1590.0708,77.508265 1593.3228,81.786444 1595.5777,84.752913 1596.0066,86.103535 1595.455,88.5 1595.0752,90.15 1594.7049,92.625 1594.6322,94 1594.45,97.444932 1591.5898,97.278373 1591.1883,93.799453 1591.0169,92.314153 1591.3528,90.209257 1591.9348,89.121908 1592.791,87.522071 1592.4981,86.556948 1590.3995,84.062934 L 1587.8062,80.980958 1583.7962,83.23471 C 1581.0697,84.767077 1579.0072,87.025735 1577.3524,90.291216 1573.359,98.171793 1569.6792,97.864592 1566.86,89.415293 1564.7906,83.213317 1561.4909,81.072983 1558.5401,84.018746 1556.8443,85.711697 1556.7197,86.497989 1557.6156,89.854405 1558.5367,93.305097 1558.4062,93.969073 1556.4346,95.866743 1553.6928,98.505542 1553.5475,98.504052 1551.039,95.811439 z M 1546.7665,20.082645 C 1543.5204,17.182308 1543.5465,14.459214 1546.798,16.791734 1549.9617,19.061336 1550.9439,19.19896 1552.5457,17.597127 1554.1041,16.038711 1556,15.458784 1556,16.540493 1556,17.543496 1551.6308,23 1550.8277,23 1550.3898,23 1548.5623,21.68719 1546.7665,20.082645 z M 1556.4345,50.540367 C 1555.5481,49.187568 1554.4219,44.800068 1553.9317,40.790367 1553.4416,36.780665 1552.7942,32.472763 1552.493,31.217251 1552.084,29.512036 1553.0276,27.677915 1556.2227,23.967742 1558.5752,21.236024 1560.8375,19.000761 1561.25,19.000491 1563.1177,18.999269 1561.6981,23.078202 1558.6867,26.36594 L 1555.3733,29.983266 1556.2629,37.626949 C 1556.7521,41.830975 1557.5679,46.363622 1558.0758,47.699498 L 1558.9993,50.128362 1563.0566,47.84804 C 1565.2881,46.593863 1567.5527,45.038992 1568.089,44.392772 1568.6253,43.746552 1569.1702,38.331315 1569.2999,32.358913 1569.4963,23.311029 1569.9113,20.791193 1571.7881,17.25 1574.3918,12.337452 1575.7321,12.021515 1579.0385,15.540987 1581.1908,17.832002 1581.4293,18.98792 1581.4628,27.290987 1581.4833,32.355944 1581.1787,37.937549 1580.7861,39.694554 1580.1378,42.595553 1580.4482,43.18691 1584.164,46.129882 1588.0827,49.233532 1588.3138,49.291299 1589.6272,47.495146 1592.0096,44.237054 1595.0756,34.874632 1595.1577,30.607281 1595.2075,28.02215 1594.4012,25.086665 1592.982,22.686338 1591.4098,20.027094 1591.0446,18.555393 1591.7755,17.824522 1592.5063,17.093651 1593.6828,18.075225 1595.6618,21.067184 1599.9647,27.572418 1599.3905,33.714161 1593.1201,48.25 1590.5573,54.190981 1589.0856,54.257521 1582.2031,48.743597 L 1576.9061,44.5 1577.6736,36 C 1578.6068,25.664196 1578.3993,20.614567 1576.9283,17.866024 1575.352,14.920592 1574.3174,16.494536 1572.723,24.263988 1571.7541,28.984865 1571.5859,32.863692 1572.166,37.10536 1572.6231,40.447922 1572.6603,43.774777 1572.2486,44.498371 1571.2207,46.304803 1561.12,53 1559.4226,53 1558.6655,53 1557.3209,51.893165 1556.4345,50.540367 z M 1596.393,94.418213 C 1596.7269,93.548229 1597,92.193825 1597,91.408425 1597,90.623025 1597.9,89.209821 1599,88.267972 1600.1,87.326122 1601,86.210552 1601,85.788927 1601,84.477975 1591.9124,73 1590.8744,73 1590.334,73 1587.3921,74.390869 1584.3368,76.09082 1581.2814,77.790771 1578.4091,78.803271 1577.9538,78.34082 1577.4985,77.878369 1577.4351,72.55 1577.813,66.5 1578.4551,56.219102 1578.6421,55.479768 1580.6732,55.19051 1581.8685,55.02029 1584.7246,55.839193 1587.0202,57.010295 1589.3157,58.181396 1591.8485,58.888377 1592.6486,58.581362 1594.5361,57.857052 1600.001,45.81827 1603.4153,34.86325 1606.0838,26.301073 1611.9962,17.261598 1614.084,18.551916 1615.589,19.482069 1615.1428,20.78661 1612.473,23.262245 1610.8658,24.752509 1608.7133,29.272936 1606.5595,35.680996 1601.5373,50.623263 1596.6576,60.656508 1594.0028,61.49912 1592.6337,61.933646 1590.2734,61.525145 1587.8569,60.435457 1585.5047,59.374777 1583.5885,59.03348 1583.0717,59.583169 1582.3376,60.363981 1580.9791,74 1581.6354,74 1581.7619,74 1583.9983,72.918865 1586.605,71.597477 1589.2117,70.276089 1591.8846,69.402218 1592.5447,69.655541 1593.2049,69.908863 1596.0752,72.988192 1598.9233,76.498494 1603.0566,81.592883 1604.7456,82.943333 1607.2926,83.190431 1609.3095,83.386099 1610.5994,84.111658 1610.7983,85.162416 1611.0629,86.560449 1610.428,86.748831 1606.8065,86.346947 L 1602.5,85.869063 1605.25,88.222096 C 1608.0973,90.658357 1608.871,93 1606.8287,93 1606.1845,93 1604.8629,92.280917 1603.8918,91.402039 1601.6929,89.412114 1600,90.350399 1600,93.559017 1600,95.374649 1599.4602,96 1597.893,96 1596.3826,96 1595.9579,95.552162 1596.393,94.418213 z M 1598.5732,20.846362 C 1596.6284,16.947905 1596.6009,16 1598.4326,16 1599.2205,16 1600.1509,16.9 1600.5,18 1601.2483,20.357691 1604.2331,20.629033 1606,18.5 1607.3839,16.832538 1610,16.472237 1610,17.949109 1610,19.317864 1603.5998,24 1601.7289,24 1600.8585,24 1599.4385,22.580863 1598.5732,20.846362 z"/>
</svg>
