<?xml version="1.0" encoding="UTF-8"?>
<svg xmlns="http://www.w3.org/2000/svg" viewBox="875.32 13.42 52.78 90.7">
  <path d="M 879.65625,85.375 C 879.8903,85.184325 880.1085,85.038827 880.34375,84.84375 883.55434,82.181405 886.69594,80 887.34375,80 887.99156,80 889.31794,82.225225 890.28125,84.9375 891.24457,87.649774 893.82767,92.149774 896.03125,94.9375 898.23482,97.725225 900.46645,100 900.96875,100 901.47106,100 903.14009,97.664122 904.6875,94.8125 906.23491,91.960878 908.03476,89.457625 908.6875,89.25 909.78896,88.899647 911.68309,90.679269 916.90625,97 918.66159,99.124207 919.11482,99.274524 919.96875,98 921.46019,95.773971 921.21707,86.428702 919.5625,82.46875 918.76776,80.566679 916.93068,77.836935 915.5,76.40625 912.89991,73.806166 912.91861,73.810039 913.84375,63.65625 914.35281,58.069171 914.52127,52.038999 914.25,50.25 913.83957,47.54336 914.40335,46.299282 917.46875,42.90625 919.49488,40.663567 922.00099,36.820167 923.0625,34.34375 925.09468,29.60287 925.70158,21 924,21 923.45,21 921.22087,22.779132 919.0625,24.9375 913.00937,30.990638 911.47164,31.53947 909.3125,28.40625 908.3213,26.967892 906.07903,24.148523 904.34375,22.15625 L 901.1875,18.53125 897.125,23 C 892.7453,27.791325 892.4141,27.744455 889.25,22 886.97644,17.872335 885.02831,17.546749 883.28125,21 880.40346,26.688272 882.24365,36.208501 887.25,41.6875 888.80521,43.389534 889.09929,44.622836 888.5625,47.1875 888.18192,49.005793 887.60627,54.490619 887.3125,59.375 L 886.78125,68.25 882.34375,72.6875 C 880.9965,74.034752 879.38742,75.298395 877.71875,76.46875 L 878.40625,79.5625 C 879.64415,78.763029 880.87062,77.92958 881.90625,77.0625 885.0142,74.460376 887.10445,73.340684 887.53125,74.03125 887.90357,74.633683 888.03632,75.23536 887.84375,75.34375 887.65117,75.452141 885.25,77.356229 882.5,79.59375 881.54928,80.367295 880.21103,81.29414 878.96875,82.25 L 879.65625,85.375 z M 901.625,23.6875 C 903.64555,24.462859 908.04517,33.408603 909.625,40 911.38383,47.338217 911.34863,64.03976 909.5625,73.375 908.76824,77.52625 906.85574,83.534118 905.3125,86.71875 901.87629,93.809737 899.49363,94.57825 896.3125,89.625 890.37812,80.384733 887.81743,63.518817 890.46875,51 893.19227,38.140285 893.83421,35.645016 895.46875,31.0625 897.38536,25.689159 899.6635,22.934804 901.625,23.6875 z M 886.5,24.34375 C 887.0508,24.147868 888.54683,25.957944 889.8125,28.34375 891.79132,32.073864 891.94947,33.054124 890.90625,35.34375 889.4412,38.559174 888.43956,38.681621 886.9375,35.875 885.49519,33.18002 885.17729,24.814146 886.5,24.34375 z M 921.59375,27.25 C 922.27219,27.928444 918.09835,38.220716 916.375,40.125 915.44296,41.154889 914.36476,42 913.96875,42 913.28868,42 912,37.128276 912,34.5625 912,33.361548 920.9122,26.568453 921.59375,27.25 z M 912.625,78.5 C 914.03029,78.140292 915.67822,80.497968 917.03125,85.3125 917.62284,87.417601 917.98267,90.105458 917.8125,91.25 917.54015,93.081807 917.0314,92.807653 913.65625,89.0625 910.53316,85.597048 909.96646,84.31785 910.5,82.15625 911.05028,79.926821 911.78182,78.715825 912.625,78.5 z"/>
</svg>
