<?xml version="1.0" encoding="UTF-8"?>
<svg xmlns="http://www.w3.org/2000/svg" viewBox="386.55 22.76 53.81 67.83">
  <path d="M 401.25,86.914811 C 400.0125,86.447112 399,85.647554 399,85.138017 399,84.628479 396.75788,81.801478 394.01751,78.855792 391.27714,75.910107 389.02714,73.1175 389.01751,72.65 388.99617,71.613982 393.94338,66.755211 399.95736,61.90572 L 404.41472,58.311439 401.33402,54.40572 C 397.42612,49.451282 394.00857,43.835034 394.00374,42.359458 394.00168,41.73216 396.69639,38.35716 399.99199,34.859458 403.28758,31.361756 405.98758,28.1625 405.99199,27.75 406.0124,25.83889 408.88359,27.293823 409.93882,29.75 410.58863,31.2625 413.1164,34.735602 415.55608,37.468005 L 419.99188,42.43601 423.24594,40.541647 C 425.03567,39.499747 427.28906,38.167427 428.25346,37.580937 430.64519,36.126426 433.03597,37.706521 435.29086,42.232037 437.91136,47.491346 436.79748,50.787366 432.14817,51.531405 430.14168,51.852509 427.50818,52.317686 426.29596,52.565132 424.89235,52.851644 423.35824,52.227526 422.07171,50.846592 L 420.05149,48.67815 414.77575,53.569744 C 411.87409,56.260121 409.37307,58.738317 409.21794,59.076847 409.06281,59.415376 411.01442,62.217134 413.55485,65.302975 L 418.17382,70.913596 423.19912,67.456798 C 425.96304,65.555559 428.83978,64 429.59189,64 431.32032,64 435,71.101215 435,74.436823 435,76.402785 434.08382,77.39597 430.81217,78.976661 425.62402,81.483304 425.36801,81.481097 420.52989,78.888021 L 416.58939,76.776042 414.21424,79.537317 C 412.18828,81.892639 408.37189,84.893512 404.5,87.175739 403.95,87.499928 402.4875,87.38251 401.25,86.914811 z M 410.5737,78.640499 416.47118,73.280997 412.48559,68.541774 C 410.29352,65.935201 408.09424,63.238456 407.5983,62.549006 406.91582,61.600218 405.32661,62.205433 401.06146,65.038424 391.98946,71.06421 392.00358,71.00197 398.13082,77.962878 401.05357,81.283295 403.72196,84 404.06057,84 404.39918,84 407.33009,81.588224 410.5737,78.640499 z M 414.73281,50.709485 C 418.46522,47.323088 418.45138,45.382862 414.65796,40.215189 412.73981,37.602146 410.21244,34.597244 409.04158,33.537631 406.91703,31.614937 406.90256,31.621249 401.8482,36.675614 L 396.78364,41.740166 398.60569,44.620083 C 399.60781,46.204037 401.96935,49.423064 403.85356,51.773476 407.24683,56.006324 407.30421,56.03121 409.8897,54.391129 411.32536,53.480426 413.50477,51.823687 414.73281,50.709485 z M 428.78518,76.30266 C 430.27833,75.369123 431.64568,74.510941 431.82374,74.39559 432.00179,74.280239 431.42774,72.794042 430.54806,71.09293 428.60172,67.329139 426.20112,67.157499 422.5702,70.522524 419.47428,73.391725 419.60284,74.96167 423.07897,76.735258 426.0864,78.26971 425.57724,78.308311 428.78518,76.30266 z M 431.76905,48.0689 C 433.27765,47.986994 432.42361,43.220857 430.53779,41.197654 429.57767,40.167586 428.77886,40.143638 426.71695,41.083104 423.57376,42.515236 422.66301,44.501812 424.00233,47.004356 424.69415,48.297026 425.83613,48.753175 427.74875,48.500814 429.26194,48.301156 431.07107,48.106795 431.76905,48.0689 z"/>
</svg>
