<?xml version="1.0" encoding="UTF-8"?>
<svg xmlns="http://www.w3.org/2000/svg" viewBox="1551.3 11.95 43.28 93.89">
  <path d="M 1563.011,98.020519 C 1562.4283,96.931805 1562.2363,94.906805 1562.5842,93.520519 1563.1341,91.32965 1562.8897,91 1560.7154,91 1557.8374,91 1556.9909,89.498642 1557.7196,85.686619 1558.325,82.519414 1560,82.0763 1560,85.083333 1560,88.560324 1562.3805,86.644384 1563.248,82.469202 1564.2916,77.445931 1563.7182,76.140059 1560.7202,76.713161 1557.7434,77.282211 1556.764,75.309729 1557.9573,71.148812 1558.6852,68.610952 1558.5095,68.104982 1556.7395,67.642128 1554.9966,67.186343 1554.8736,66.85723 1555.958,65.550615 1556.6658,64.697777 1557.7863,64 1558.4481,64 1559.8426,64 1564.0059,59.817904 1563.9876,58.435549 1563.9808,57.920997 1562.4192,56.492168 1560.5175,55.260374 1556.1394,52.424638 1553.3038,48.296159 1554.7447,46.855299 1555.4674,46.132623 1557.1086,47.247342 1560.1001,50.492736 1563.6313,54.323723 1564.5225,54.861376 1565.0147,53.45802 1566.0512,50.50312 1564.9172,46.000003 1563.1365,45.999971 1561.2228,45.999936 1556,39.818449 1556,37.553429 1556,35.145918 1557.2605,35.681533 1561.03,39.69079 L 1564.5,43.381579 1564.827,40.00797 C 1565.3849,34.252381 1564.0291,30.038023 1560.2874,25.896395 1557.5878,22.908272 1556.9736,21.626391 1557.8307,20.769304 1558.6878,19.912216 1559.5504,20.168447 1561.2809,21.79414 1563.4791,23.859249 1563.6601,23.877815 1565.1082,22.186617 1565.9442,21.210271 1566.9336,19.615346 1567.307,18.642339 1568.2387,16.214296 1569.3974,17.18656 1571.889,22.487251 1573.0557,24.969263 1574.5704,27.009727 1575.2551,27.021616 1578.1748,27.072314 1589.5721,33.744994 1590.6708,36.046921 1592.5887,40.065189 1591.1854,43.867477 1586.6161,47.033112 1577.7246,53.193142 1577.2892,53.688173 1577.5134,57.381793 1577.6783,60.096974 1578.8175,61.9261 1582.6973,65.705167 1588.2247,71.089029 1589.8109,75.004243 1587.6908,78.03103 1585.766,80.779064 1578.6022,85.81076 1575.5093,86.587032 1573.5222,87.085764 1572.2315,88.738806 1570.0185,93.61951 1567.0122,100.24969 1564.9104,101.56969 1563.011,98.020519 z M 1562.8,72.8 C 1563.46,72.14 1564,69.8349 1564,67.677555 1564,64.430689 1563.7591,63.955031 1562.6014,64.91586 1561.2453,66.041277 1559.863,74 1561.0236,74 1561.3406,74 1562.14,73.46 1562.8,72.8 z M 1568.6923,87.296101 C 1574.1503,65.495884 1575.3457,51.855846 1573.0347,37.747043 1572.3123,33.336198 1568.2742,21.433602 1568.0316,23 1567.9891,23.275 1567.7726,32.778157 1567.5507,44.118127 1567.0961,67.340233 1566.3929,77.555447 1564.8231,83.737553 1564.0098,86.940376 1564.055,88.718518 1565.0081,91.019618 1565.7017,92.694099 1566.4879,93.845446 1566.7552,93.578166 1567.0224,93.310885 1567.8941,90.483956 1568.6923,87.296101 z M 1581.0586,79.832635 C 1583.2264,78.090585 1585,75.915559 1585,74.999245 1585,73.217051 1578.5067,65.162392 1577.7452,66 1576.8756,66.956589 1573.2944,81.961041 1573.8121,82.4788 1575.0048,83.671494 1577.3451,82.816906 1581.0586,79.832635 z M 1583.647,45.43305 C 1586.9919,42.692182 1588,41.183906 1588,38.92044 1588,36.303542 1587.3723,35.697165 1582.3756,33.48739 1576.5716,30.920612 1574.5258,30.423684 1575.3672,31.785078 1575.634,32.216872 1576.1289,35.254372 1576.4668,38.535078 1577.238,46.021689 1577.8639,49 1578.6661,49 1579.0114,49 1581.2529,47.394873 1583.647,45.43305 z"/>
</svg>
