<?xml version="1.0" encoding="UTF-8"?>
<svg xmlns="http://www.w3.org/2000/svg" viewBox="968.35 15.1 34.53 89.99">
  <path d="M 987.99503,100.25 C 987.9923,99.8375 986.88568,98.15 985.53588,96.5 L 983.0817,93.5 980.70075,96.418348 C 977.84604,99.917386 975.5366,99.43301 974.68116,95.155813 972.51778,84.338921 970.35469,24.662162 972.02787,21.954913 972.50273,21.186567 973.24346,20.910124 973.67393,21.340594 974.1044,21.771064 974.71966,32.886328 975.04118,46.041181 975.3627,59.196033 975.96192,70.295256 976.37279,70.706121 976.78365,71.116985 978.65096,69.663689 980.52236,67.476574 983.34473,64.178057 983.94528,62.647435 984.04439,58.5 984.11011,55.75 984.30476,46.384742 984.47696,37.688315 984.64915,28.991888 985.08675,21.57992 985.44939,21.217275 987.47243,19.194234 988.02381,25.052138 987.57256,43.774119 L 987.08391,64.048238 991.22027,67.044607 C 994.33831,69.303298 995.55516,69.728194 996.16301,68.770488 996.60651,68.071719 996.97627,56.775 996.98469,43.666667 996.99648,25.316778 997.28168,19.927226 998.2243,20.241432 1000.4378,20.979281 1000.8871,27.189454 1000.522,52 1000.2145,72.888666 999.85233,77.679211 998.06493,84.5 995.18207,95.501134 992.49261,101 989.99488,101 988.89769,101 987.99776,100.6625 987.99503,100.25 z M 992.98688,89.25 C 993.58137,87.1875 994.34257,83.342518 994.67844,80.705596 995.23077,76.369123 995.01263,75.620367 992.39455,72.86632 990.80255,71.19164 988.29366,69.191181 986.81925,68.420855 984.23969,67.073127 984.00039,67.180295 980.47936,71.260131 L 976.82022,75.5 977.49823,83.5 C 977.87114,87.9 978.35883,91.684741 978.58199,91.910536 978.80515,92.136331 979.81343,91.573831 980.82261,90.660536 983.28368,88.433297 985.69733,88.565934 987,91 988.79996,94.363249 991.76267,93.497231 992.98688,89.25 z"/>
</svg>
