<?xml version="1.0" encoding="UTF-8"?>
<svg xmlns="http://www.w3.org/2000/svg" viewBox="1008.91 15.88 33.09 90.12">
  <path d="M 1021.0872,99.693558 C 1013.4493,97.022369 1010.9062,83.077532 1015.3212,68.076703 1017.6478,60.171506 1017.7142,59.322771 1016.4001,54.277913 1012.9498,41.031036 1016.2724,21.228116 1022.106,20.27137 1023.9243,19.973159 1029.6498,24.683577 1028.6654,25.667892 1028.2494,26.083911 1027.0356,25.878825 1025.9681,25.212145 1022.6074,23.113356 1021.2841,23.809717 1020.1952,28.25 1018.009,37.164965 1017.9143,43.334894 1019.8235,52.464004 1021.6832,61.356132 1021.682,61.464379 1019.6727,65.964004 1016.6048,72.834372 1016.1761,85.349028 1018.8051,91.292394 1022.3386,99.280289 1028.9862,99.263963 1036.0672,91.25 1039.4053,87.472175 1040,87.27948 1040,89.975749 1040,91.062411 1038.3856,93.424911 1036.4125,95.225749 1029.8909,101.17795 1027.4044,101.90286 1021.0872,99.693558 z M 1022.704,85.75 C 1021.1994,84.629264 1021.164,83.982944 1022.3624,79.5 1023.0975,76.75 1024.9165,72.103426 1026.4047,69.174279 1029.0931,63.882723 1029.0998,63.816608 1027.4561,58.867907 1026.1712,54.999465 1025.9538,52.057567 1026.4824,45.693627 1027.5334,33.041066 1030.4865,23.153196 1032.5871,25.253757 1032.9283,25.594991 1032.4268,30.210035 1031.4727,35.509411 1029.5352,46.269756 1029.8619,56.290336 1032.2741,60.089814 1033.7124,62.355257 1033.57,62.974818 1029.9022,70.406406 1026.4305,77.44057 1024.9581,83 1026.5667,83 1026.8784,83 1028.6084,81.875 1030.4111,80.5 1033.7424,77.959136 1036,77.299169 1036,78.866225 1036,80.009169 1026.9987,87 1025.527,87 1024.8974,87 1023.6271,86.4375 1022.704,85.75 z M 1030,88.098776 C 1030,87.359114 1035.3093,83.551725 1038.25,82.182531 1039.7894,81.465777 1038.9247,84.071405 1036.8197,86.492394 1034.7407,88.883376 1030,90.000062 1030,88.098776 z"/>
</svg>
