<?xml version="1.0" encoding="UTF-8"?>
<svg xmlns="http://www.w3.org/2000/svg" viewBox="1119.98 12.64 32.02 92.45">
  <path d="M 1131.099,98.248446 C 1123.8953,94.545097 1121.9807,80.06645 1126.9468,66.84821 L 1129.0702,61.196419 1126.2851,54.34821 C 1123.9111,48.510895 1123.5011,46.097662 1123.5077,38 1123.5157,28.092058 1124.9697,21.173112 1127.5959,18.546985 1129.3008,16.842073 1130.6413,17.310653 1135.1872,21.200562 1137.7573,23.399751 1137.8341,23.739784 1136.9483,29 1135.7584,36.066452 1137.2484,44.568121 1140.9684,51.937379 L 1143.7833,57.513674 1141.004,66.006837 C 1136.8708,78.637605 1136.6432,80 1138.6665,80 1139.604,80 1141.4186,79.01596 1142.6988,77.813244 1144.2402,76.365168 1145.362,75.962038 1146.0198,76.619837 1147.5442,78.144207 1142.106,82.732093 1137.8469,83.51484 1132.4631,84.504305 1132.1674,82.136558 1136.0687,69.273397 1138.915,59.88871 1139.1501,58.263984 1138.052,55.563517 1133.6482,44.733573 1132.8271,40.534344 1133.4749,32.154079 1134.0422,24.812904 1133.902,23.642952 1132.3099,22.435882 1128.2506,19.358124 1127.4515,21.181495 1126.3657,36 1125.8706,42.755935 1126.1228,44.27145 1128.908,51.276031 1132.5818,60.515145 1132.6058,60.933761 1129.8682,68 1124.7455,81.222205 1128.8186,97 1137.3545,97 1139.5608,97 1146.1163,93.236559 1147.3115,91.28381 1148.1365,89.935747 1150,90.414031 1150,91.973848 1150,92.444546 1147.8022,94.442989 1145.116,96.414831 1139.6259,100.44498 1136.2346,100.88861 1131.099,98.248446 z M 1139,89 C 1139,88.45 1139.3872,88 1139.8605,88 1140.3337,88 1142.4168,86.849161 1144.4895,85.442579 1147.2829,83.546928 1148.0953,83.309327 1147.629,84.524367 1147.2831,85.425931 1147,86.340215 1147,86.556107 1147,87.150353 1141.2489,90 1140.0497,90 1139.4723,90 1139,89.55 1139,89 z"/>
</svg>
