<?xml version="1.0" encoding="UTF-8"?>
<svg xmlns="http://www.w3.org/2000/svg" viewBox="1747.78 44.26 48.93 45.93">
  <path d="M 1772.3125 57.875 C 1770.666 59.621431 1767.6294 56.806812 1758.4062 48.21875 C 1757.6451 47.509909 1757.0021 47.013095 1756.25 46.34375 L 1754.75 48.90625 C 1756.2067 50.160445 1757.7163 51.596814 1759.2812 53.21875 C 1768.6443 62.922006 1770.8973 64.001149 1778.6562 62.59375 C 1783.521 61.711382 1788.4792 63.768804 1790.0938 67.3125 C 1791.2792 69.914335 1789.3995 75.16748 1786 78.78125 L 1783.8438 81.0625 L 1780.4062 78.03125 C 1776.5103 74.610508 1774.4755 74.268596 1771.9062 76.59375 C 1769.3827 78.877585 1768 77.516533 1768 72.71875 C 1768 68.793378 1767.5048 68.096724 1759.25 60.1875 C 1756.2332 57.296971 1753.9529 55.225525 1752 53.59375 L 1750 57 C 1751.8428 58.391247 1753.7576 59.848494 1755.875 61.65625 L 1766 70.28125 L 1766 77.40625 C 1766.0202 86.75988 1766.9437 88.096349 1770.0625 83.34375 C 1771.3987 81.307497 1773.0715 79.445959 1773.7812 79.21875 C 1774.4911 78.99154 1776.603 80.427978 1778.4688 82.40625 C 1780.3344 84.384522 1782.2896 86 1782.8125 86 C 1784.3977 86 1790.8537 78.29063 1792.4375 74.5 C 1794.4799 69.611765 1792.752 64.406883 1788 61.1875 C 1785.0711 59.203262 1783.7249 58.919463 1779.75 59.4375 C 1777.4264 59.740328 1775.7149 59.685959 1775.3125 59.40625 L 1774 60 L 1772.3125 57.875 z "/>
</svg>
