<?xml version="1.0" encoding="UTF-8"?>
<svg xmlns="http://www.w3.org/2000/svg" viewBox="1.28 13.63 51.68 90.09">
  <path d="M 42.875 82.53125 C 40.862316 82.692431 38.990807 82.084557 37.4375 80.53125 C 32.445696 75.539447 35.222414 68.050195 43.09375 65.28125 C 49.846269 62.905878 50.608278 61.281033 47.90625 55 C 45.67903 49.822687 44.143267 48.917522 42 51.5 C 39.512202 54.497614 38.905776 52.86405 39.09375 43.75 C 39.371376 30.289165 36.031058 20.786614 30.53125 19.40625 C 23.818618 17.721487 20.158699 25.468573 19.28125 43.25 C 18.962349 49.7125 18.425323 54.98098 18.09375 54.96875 C 17.762177 54.95652 16.375 54.075541 15 53 C 11.17439 50.007565 9.3501602 50.529921 6.4375 55.5 C 3.6275513 60.294815 3.7482123 63 6.78125 63 C 7.7993272 63 9.5666019 64.0125 10.6875 65.25 C 11.808399 66.4875 13.66365 68.255587 14.8125 69.1875 C 15.961351 70.119414 17.285182 72.594414 17.78125 74.6875 C 18.277317 76.780587 19.228283 80.673443 19.875 83.34375 C 20.521718 86.014057 22.411701 90.163146 24.0625 92.5625 C 27.079573 96.947666 30.042437 98.456098 37.5 99.34375 C 38.445566 99.456298 39.39504 99.525011 40.4375 99.625 L 40.9375 96.15625 C 40.650707 96.169579 40.346936 96.32054 40.0625 96.3125 C 37.545351 96.241353 34.271286 95.701795 32.78125 95.125 C 28.943464 93.639387 24.935702 87.010413 22.90625 78.84375 C 20.761877 70.214634 17.921413 65.970248 12.3125 62.90625 C 7.7789933 60.429718 6.8921571 58.148373 9.59375 55.90625 C 10.954788 54.776689 11.808106 54.908258 15.0625 56.78125 C 17.175342 57.997247 19.809613 59 20.9375 59 C 22.902455 59 22.999353 58.453421 22.9375 46.09375 C 22.872343 33.073807 23.791707 27.032864 26.375 23.5 C 27.579541 21.852692 28.160423 21.75521 30.34375 22.75 C 35.3548 25.033187 37.856559 43.096281 34.46875 52.5 C 33.676172 54.7 33.008281 56.8375 33 57.25 C 32.974049 58.542712 37.405748 58.005489 39.4375 56.46875 C 43.083199 53.711281 46 55.098606 46 59.59375 C 46 60.380703 43.572976 62.088695 40.59375 63.40625 C 34.635524 66.04126 32.505458 68.576981 31.46875 74.25 C 30.554321 79.253885 32.767333 82.533739 38.8125 85.125 C 40.589532 85.886725 41.452025 86.136326 42.34375 86.3125 L 42.875 82.53125 z "/>
</svg>
