<?xml version="1.0" encoding="UTF-8"?>
<svg xmlns="http://www.w3.org/2000/svg" viewBox="1201.51 13.95 20.22 86.34">
  <path d="M 1204.4333,94.892015 C 1204.0566,94.282623 1203.6926,77.423961 1203.6242,57.428321 1203.512,24.575377 1203.6623,20.910283 1205.1843,19.387757 1206.6326,17.938863 1207.2952,17.879619 1209.9149,18.964731 1211.5903,19.658737 1214.1048,19.93953 1215.5025,19.588717 1217.1535,19.174355 1218.1896,19.397444 1218.4598,20.225437 1219.271,22.711584 1219.7339,95 1218.9387,95 1218.494,95 1216.9506,94.551522 1215.5089,94.003383 1213.5581,93.261672 1212.1474,93.389558 1209.9935,94.503383 1206.5403,96.289105 1205.3482,96.372424 1204.4333,94.892015 z M 1212.835,90.383003 1215.92,89.766006 1215.7976,56.472556 1215.6753,23.179107 1211.5877,22.750252 C 1209.3394,22.514382 1207.3356,22.450966 1207.1347,22.609328 1206.9338,22.767689 1206.7088,33.832875 1206.6347,47.198629 1206.4988,71.708592 1207.5266,91 1208.9683,91 1209.3982,91 1211.1382,90.722351 1212.835,90.383003 z"/>
</svg>
