<?xml version="1.0" encoding="UTF-8"?>
<svg xmlns="http://www.w3.org/2000/svg" viewBox="1320.97 11.58 39.65 94.17">
  <path d="M 1332.9458,94.485159 C 1331.1486,90.643321 1328.9631,85.925 1328.0891,84 1327.2151,82.075 1325.7125,79.426814 1324.75,78.115141 1323.7875,76.803469 1323,75.368664 1323,74.926687 1323,74.484709 1325.7,70.53992 1329,66.16049 1332.3,61.781059 1335,57.315241 1335,56.236449 1335,54.150651 1331.5944,49.440514 1326.149,43.995137 1323.9475,41.793643 1322.9656,39.971799 1323.2346,38.587553 1323.4577,37.439399 1326.3087,32.347827 1329.5702,27.27295 1336.8019,16.020057 1337.7697,15.865134 1343.7686,25 1346.1163,28.575 1348.4933,31.654838 1349.0508,31.844086 1349.6083,32.033333 1351.625,30.997932 1353.5323,29.543194 1358.6117,25.668901 1358.0742,28.924653 1352.9037,33.350408 L 1348.8075,36.856663 1349.8687,41.678332 C 1351.2794,48.087163 1350.417,69.975732 1348.4568,77.516416 1346.6031,84.647404 1342.0778,94.342411 1338.6693,98.485159 L 1336.2133,101.47032 1332.9458,94.485159 z M 1336.4518,90.151718 C 1337.0249,88.346286 1337.4036,73.470577 1337.0794,65.5 L 1336.9167,61.5 1333.3485,65.5 C 1326.3641,73.329509 1326.3984,73.186034 1329.8183,80.277017 1331.4883,83.739536 1333.1611,87.793693 1333.5357,89.286253 1334.3242,92.427857 1335.6085,92.809004 1336.4518,90.151718 z M 1336.2107,36.206455 C 1335.7598,24.627566 1335.4677,24.479314 1329.9737,33.040959 1326.5609,38.359335 1326.5502,38.294447 1331.9,44.748915 1334.1832,47.503613 1335.6309,48.558623 1336.0166,47.748915 1336.3439,47.062012 1336.4312,41.867905 1336.2107,36.206455 z M 1342.8976,85.591333 C 1347.604,74.286128 1348.861,61.970209 1346.7633,47.714819 1345.273,37.586713 1342.2338,27.880559 1340.1494,26.592306 1339.7128,26.322511 1339.3881,39.691372 1339.4278,56.300885 1339.4675,72.910398 1339.1267,87.9625 1338.6705,89.75 1337.1401,95.746559 1339.7312,93.197422 1342.8976,85.591333 z"/>
</svg>
