<?xml version="1.0" encoding="UTF-8"?>
<svg xmlns="http://www.w3.org/2000/svg" viewBox="1361.14 14.21 72.91 87.77">
  <path d="M 1395.8414,95.475929 C 1394.3792,94.681731 1392.2193,92.472863 1391.0416,90.567333 1389.0659,87.37055 1388.993,86.654248 1390.0987,81.300919 1391.1482,76.21997 1391.0612,74.758223 1389.3985,69.536205 1387.5919,63.861972 1387.2902,63.512907 1383.1655,62.325679 1379.1058,61.157129 1378.683,61.226075 1376.4956,63.41347 1375.022,64.887053 1373.899,67.548108 1373.4523,70.624444 1371.9779,80.77905 1369.1039,81.791168 1366.664,73.015098 1364.4561,65.073985 1364.5522,59.246648 1366.956,55.304334 1371.2636,48.239616 1378.7344,46.810526 1386.05,51.651804 L 1390.0776,54.317124 1393.5388,50.962395 C 1397.5097,47.113667 1398.1028,42.575188 1395.4612,36.252927 1393.4376,31.40969 1392.1332,30.750035 1389.1775,33.075016 1385.7035,35.807671 1380.4808,35.571748 1377.4545,32.545455 1376.1045,31.195455 1375,29.373108 1375,28.495795 1375,25.843435 1377.8579,21.177262 1379.7364,20.762473 1382.0112,20.260191 1388.8952,22.595164 1391.1466,24.632687 1392.745,26.079219 1393.1369,26.038694 1395.7851,24.153038 1397.376,23.020215 1399.2553,21.397354 1399.9613,20.54668 1401.9081,18.200866 1404.0674,18.675568 1408.8907,22.509706 1414.0071,26.576851 1414.1426,26.604919 1416.4341,24.072852 1418.6486,21.625822 1425.5237,20.359787 1427.5346,22.028704 1429.5979,23.741122 1429.463,31.37266 1427.3384,33.127555 1426.3402,33.952029 1423.293,34.5 1419.7064,34.5 L 1413.7359,34.5 1411.1367,39.141418 C 1408.9744,43.002734 1408.7064,44.263288 1409.542,46.641418 1410.3629,48.977531 1411.2733,49.598778 1414.5233,50.040442 1420.495,50.852001 1426.3015,54.083133 1427.9285,57.5 1430.7353,63.394341 1429.3505,74.618162 1425.2454,79.246469 1423.1746,81.581251 1421,79.804967 1421,75.778684 1421,71.89638 1418.267,66.213264 1415.753,64.867802 1411.1401,62.399046 1409.6731,69.448441 1411.5144,85.23523 1412.1501,90.684846 1412.0333,91.120594 1409.1686,93.98523 1405.7474,97.406402 1400.4804,97.995547 1395.8414,95.475929 z M 1407.409,92.100512 C 1409.6348,89.641117 1409.6683,85.764191 1407.5199,79.281599 1405.9144,74.437204 1405.9058,73.724814 1407.3992,69.341833 1408.9556,64.773902 1412.4386,60 1414.2148,60 1415.6245,60 1420.9971,64.284939 1421.0333,65.438058 1421.08,66.928348 1424.9328,71.400573 1425.5974,70.735952 1426.8383,69.495048 1427.0552,63.697396 1425.9824,60.446702 1424.5595,56.135325 1420.1115,53.63369 1414.2619,53.854948 1409.1587,54.047974 1406.4268,51.791984 1405.4484,46.576832 1404.9112,43.713167 1405.3752,41.996828 1407.8927,37.536203 1409.6017,34.507955 1411,31.386293 1411,30.599178 1411,29.812062 1409.1431,27.697355 1406.8735,25.899829 1403.0189,22.846939 1402.5807,22.726097 1400.2223,24.065799 1395.7707,26.594547 1395.2241,28.563367 1397.75,32.970475 1399.4549,35.945221 1400,38.483429 1400,43.448118 1400,47.051653 1399.5922,50 1399.0938,50 1398.5954,50 1396.5741,52.245891 1394.602,54.990869 L 1391.0164,59.981739 1385.7582,55.995172 C 1379.7409,51.433069 1375.7019,50.873416 1371.672,54.043331 1368.7505,56.341392 1367.2445,61.991881 1368.6901,65.231532 1369.5871,67.241763 1369.7305,67.185226 1372.027,63.916018 1375.8333,58.497425 1376.9534,57.927693 1382.5,58.58905 1388.7435,59.333506 1391.9417,62.238505 1393.6504,68.71722 1395.3234,75.061045 1395.2965,78.046111 1393.528,82.278659 1392.1678,85.534129 1392.2058,85.991877 1394.028,88.308512 1395.1126,89.687333 1396,91.26948 1396,91.824396 1396,94.529119 1405.0138,94.747266 1407.409,92.100512 z M 1387.4779,30.441297 C 1389.8908,28.61743 1388.6708,25.991335 1384.7634,24.598109 1381.2741,23.353944 1379,24.466962 1379,27.418925 1379,31.548682 1383.7654,33.247552 1387.4779,30.441297 z M 1424.9543,30.555042 C 1425.6139,29.760315 1426.006,28.072815 1425.8257,26.805042 1425.2123,22.491116 1417,25.108375 1417,29.617805 1417,31.933983 1423.2033,32.664901 1424.9543,30.555042 z"/>
</svg>
