<?xml version="1.0" encoding="UTF-8"?>
<svg xmlns="http://www.w3.org/2000/svg" viewBox="1105 12.45 83.28 91.06">
  <path d="M 1146.5,96.940653 C 1140.4897,93.996111 1138.2036,89.651091 1136.7944,78.49359 1135.4783,68.073249 1135.5627,68.195418 1127.1271,64.500691 L 1122.7542,62.585389 1120.8771,64.903478 C 1119.572,66.51518 1119,68.826502 1119,72.488339 1119,77.710415 1117.3967,80.632222 1114.9742,79.824726 1114.373,79.62433 1112.8453,76.911848 1111.5793,73.796988 1108.7824,66.915169 1109.3947,60.697548 1113.7208,52.053222 1117.0689,45.363332 1120.0216,44.437001 1125.8381,48.251823 1127.8522,49.572745 1131.3242,51.856462 1133.5538,53.32675 1138.5994,56.654119 1139.7929,56.673372 1140.6043,53.440488 1141.6346,49.33532 1140.479,42.725974 1137.6506,36.548086 L 1135.0233,30.809125 1130.2407,31.466897 C 1120.9833,32.740108 1116.7485,28.336297 1120.5112,21.349281 1123.0756,16.587614 1127.5903,16.656919 1132.4661,21.532799 L 1135.9989,25.065597 1141.5005,20.911895 C 1146.5917,17.068015 1147.217,16.847235 1149.884,17.951962 1151.4691,18.608535 1153.7157,20.237942 1154.8764,21.572866 1157.4218,24.500379 1158.0314,24.549728 1161.1683,22.082236 1162.5092,21.027466 1165.2278,19.860296 1167.2095,19.488525 1172.1257,18.56623 1175.4995,21.69988 1174.6012,26.354167 1173.4965,32.077464 1167.8325,34.700628 1163.5589,31.468197 1160.2267,28.947866 1159.3981,29.781567 1157.8126,37.25 1156.3617,44.084291 1156.588,54.921326 1158.2155,56.54886 1158.5553,56.888604 1163.3069,54.806429 1168.7746,51.921804 1174.8745,48.703693 1179.3563,46.922737 1180.373,47.31289 1183.1164,48.365637 1184.3011,52.989838 1184.3918,63 1184.4883,73.655797 1182.9806,78.286172 1179.2406,78.819551 1177.2574,79.1024 1176.9981,78.700404 1176.9835,75.319551 1176.9647,70.951766 1173.2485,63.671537 1170.7967,63.199368 1169.8897,63.024688 1167.3735,64.001701 1165.2051,65.37051 L 1161.2627,67.859253 1160.8034,78.679627 C 1160.3055,90.40754 1158.9442,94.496089 1154.5863,97.3515 1151.5083,99.368255 1151.449,99.36524 1146.5,96.940653 z M 1116.3932,69.827113 C 1115.5947,68.535256 1118.8926,63.116455 1121.5283,61.389498 1123.8537,59.865838 1124.3226,59.891746 1128.7575,61.788946 1135.7093,64.762837 1137.1058,64.83477 1138.077,62.268975 1138.8373,60.260393 1138.0106,59.43783 1129.7851,54.018975 1124.7601,50.708539 1120.0416,48 1119.2996,48 1118.5576,48 1117.4804,49.0125 1116.9058,50.25 1116.3313,51.4875 1114.9931,54.075 1113.9321,56 1111.5044,60.404809 1111.4169,67.347538 1113.75,70.453581 1114.8628,71.93512 1115.749,72.385084 1116.184,71.689435 1116.5602,71.087766 1116.6543,70.249721 1116.3932,69.827113 z M 1130.4182,28.393011 C 1132.789,27.483243 1132.3243,24.442528 1129.5352,22.61501 1126.2599,20.468954 1124.2962,20.577952 1123.0123,22.977082 1122.1719,24.547397 1122.3704,25.370361 1123.9771,26.977082 1126.0727,29.072719 1127.7094,29.432496 1130.4182,28.393011 z M 1153.6003,94.234687 C 1157.5461,91.6 1159.3562,78.835302 1157.2427,68.548714 1153.1291,48.527326 1152.9661,44.145644 1155.972,34.376389 1157.4321,29.631153 1157.0225,28.630431 1151.7423,24.043627 1148.0506,20.836628 1147.9269,20.806802 1144.6896,22.343017 1142.8773,23.203018 1140.566,24.822107 1139.5534,25.940993 1137.7569,27.926133 1137.7893,28.158678 1140.8947,35.556691 1144.6744,44.56102 1145.0266,51.061212 1142.1501,58.727892 1139.2547,66.444807 1139.2456,80.810145 1142.1322,86.773155 1144.9134,92.518257 1150.6151,96.227975 1153.6003,94.234687 z M 1181.5517,58.567885 C 1181.1845,55.628564 1180.3002,52.425224 1179.5866,51.449352 1178.2152,49.573809 1177.4389,49.743679 1172.5,53 1170.85,54.087886 1168.825,55.251425 1168,55.585643 1160.4078,58.66132 1157.7238,61.123761 1159.7523,63.152304 1160.4428,63.842796 1162.0873,63.338732 1164.8652,61.585086 1167.1175,60.163289 1169.8664,59 1170.9739,59 1173.0323,59 1178.2869,65.27273 1179.6451,69.351471 1180.8627,73.007899 1182.3236,64.745514 1181.5517,58.567885 z M 1171.8006,26.914404 C 1172.3772,21.953543 1166.582,20.560861 1162.4706,24.672269 1160.9116,26.23129 1160.9565,26.46267 1163.1507,28.175705 1164.5046,29.232722 1166.7711,29.901856 1168.5,29.754938 1170.9008,29.55092 1171.56,28.983563 1171.8006,26.914404 z"/>
</svg>
