<?xml version="1.0" encoding="UTF-8"?>
<svg xmlns="http://www.w3.org/2000/svg" viewBox="509.1 16.94 37.34 81.22">
  <path d="M 544.4375 28.6875 C 543.33166 28.319632 541.23569 27.141153 539 25.5 C 532.61584 20.813599 527.08196 20.632452 523.03125 24.96875 C 520.18721 28.013306 519 31.735659 519 37.59375 C 519 39.897206 518.39483 41.270232 517.03125 42 C 514.8042 43.19188 512.51727 46.861022 513.4375 47.78125 C 513.76971 48.113462 514.74377 47.401018 515.59375 46.1875 C 517.79561 43.043911 518.91501 44.320714 518.5625 49.59375 C 518.34335 52.871865 517.51413 54.903168 515.625 56.875 C 512.55272 60.081763 511.88204 63.336565 514.84375 60.65625 C 517.87545 57.912599 518.33002 58.713158 517.6875 65.59375 C 517.1791 71.038068 516.6237 72.510326 514.53125 74.15625 C 511.51745 76.5269 511.09992 78.549874 513.9375 77.03125 C 517.10326 75.336987 517.31034 75.725919 516.71875 82.25 C 516.28207 87.06578 515.6605 88.81397 514.0625 89.875 C 512.92261 90.631861 512 91.867085 512 92.625 C 512 94.46896 513.6531 94.381244 514.375 92.5 C 515.167 90.436072 519.66724 90.609469 520.875 92.75 C 521.6631 94.146755 522.12278 94.24242 523.125 93.25 C 524.13105 92.253785 523.89135 91.458575 521.90625 89.25 C 519.80662 86.914011 519.51601 85.813384 519.96875 82 C 520.28062 79.373137 520.98255 77.591476 521.65625 77.71875 C 522.291 77.838667 523.32513 77.306767 523.96875 76.53125 C 524.89509 75.415073 524.65242 74.691819 522.8125 73.09375 C 520.80304 71.348427 520.5476 70.320112 520.84375 65.53125 C 521.08697 61.598317 521.59444 60 522.59375 60 C 524.4505 60 524.3931 57.571135 522.5 56 C 520.19727 54.088903 520.53577 47.318814 523 46 C 525.4202 44.704751 525.60109 42.433278 523.375 41.1875 C 522.01881 40.428537 521.86971 39.294489 522.46875 34.5 C 523.85865 23.375567 529.69193 21.309083 538.90625 28.6875 C 541.22598 30.545031 542.93179 31.917084 543.375 32.25 L 544.4375 28.6875 z "/>
</svg>
