<?xml version="1.0" encoding="UTF-8"?>
<svg xmlns="http://www.w3.org/2000/svg" viewBox="347 20.53 35.66 54.4">
  <path d="M 380.65625 26 C 379.03392 25.721816 377.04135 25.353019 374.53125 24.65625 C 371.2532 23.746305 366.87378 23 364.78125 23 C 361.56203 23 360.67668 23.500042 359 26.25 C 357.91014 28.0375 357.00205 30.482459 357 31.6875 C 356.99547 34.340964 355.24537 35.651626 353.71875 34.125 C 352.43797 32.844218 349 32.615702 349 33.8125 C 349 34.254608 350.49803 36.053846 352.3125 37.8125 C 355.086 40.500682 355.53585 41.578653 355.1875 44.5625 C 354.79141 47.955284 354.68793 48.018642 352.90625 46.40625 C 351.15733 44.823499 350.98786 44.840406 350.375 46.4375 C 349.93787 47.576623 350.77865 49.212116 352.875 51.375 C 356.68757 55.308577 357.26613 60.127519 353.875 59.75 C 350.78017 59.405468 350.56551 61.323251 353.34375 64.625 C 354.6747 66.20674 355.94441 68.4 356.15625 69.5 C 356.7249 72.452803 359.45161 71.960446 359.8125 68.84375 C 359.98102 67.388425 360.99352 65.404918 362.0625 64.4375 C 364.70378 62.047172 364.49876 60.653732 361.625 61.375 C 359.52879 61.901117 359.19595 61.570735 358.6875 58.4375 C 357.95664 53.933747 358.51829 52.540509 361.625 51.125 C 364.52238 49.804865 363.83952 47.748834 360.65625 48.1875 C 358.78799 48.444953 358.47532 47.953631 358.21875 44.46875 C 357.97933 41.216888 358.41454 39.961081 360.46875 38.03125 C 363.35872 35.31626 363.68717 34 361.5 34 C 359.68996 34 359.56953 31.057159 361.21875 27.4375 C 362.37322 24.903731 362.67564 24.802627 367.96875 25.40625 C 373.15019 25.997138 378.22056 27.425532 380.34375 28.71875 L 380.65625 28.65625 L 380.65625 26 z "/>
</svg>
