<?xml version="1.0" encoding="UTF-8"?>
<svg xmlns="http://www.w3.org/2000/svg" viewBox="1081.69 15.68 20.81 73.51">
  <path d="M 1097.1653,52.072473 C 1096.9658,23.487245 1097.3509,19.0176 1099.8022,21.468847 1100.2837,21.95037 1100.497,74.050196 1100.0469,81.25 1100.0211,81.6625 1099.4092,82 1098.6871,82 1097.6371,82 1097.3324,76.006378 1097.1653,52.072473 z M 1083.9375,44.59375 1084,44.65625 1084,49.28125 C 1084.7438,49.532853 1085,50.708556 1085,52.90625 1085,53.619617 1084.6133,54.585445 1084,55.65625 L 1084,62 1083.6875,62.90625 1083.7188,62.875 1084.3438,65.15625 C 1084.6737,66.418036 1084.7736,71.41053 1084.5938,76.25 1084.414,81.089469 1084.6369,85.28011 1085.0938,85.5625 1085.5507,85.844891 1086.6511,84.365922 1087.5312,82.28125 1088.7442,79.407701 1088.9604,77.169713 1088.375,73 1087.9503,69.975 1087.5887,57.534903 1087.5625,45.34375 1087.5363,33.152598 1087.1299,22.817919 1086.6875,22.375 1084.8825,20.567855 1084.0269,25.047485 1084.4375,34.125 L 1084.875,43.71875 1083.9375,44.59375 z"/>
</svg>
