<?xml version="1.0" encoding="UTF-8"?>
<svg xmlns="http://www.w3.org/2000/svg" viewBox="442 21.21 23.62 83.33">
  <path d="M 453.58889,96.923275 C 452.165,95.231076 451,93.400857 451,92.856123 451,92.311388 449.425,90.380279 447.5,88.564771 445.575,86.749262 444,84.529481 444,83.631923 444,81.583845 446.86324,81.480028 447.63837,83.5 449.00877,87.071185 449.76745,84.423389 449.51648,76.945458 449.29493,70.344301 448.86306,68.483132 447.12307,66.631007 444.90698,64.272081 444.32702,62 445.94098,62 446.45852,62 447.24264,62.5625 447.68347,63.25 448.16337,63.998424 448.75343,62.092435 449.15399,58.5 449.79835,52.721078 449.71078,52.39624 446.77751,49.68399 444.5768,47.649103 444.03482,46.565183 444.82363,45.776372 445.61244,44.987561 446.31838,45.01934 447.36859,45.89094 449.298,47.492211 449.67261,46.580009 449.9079,39.707471 450.07627,34.789662 449.72068,33.456754 447.55311,30.880746 444.30687,27.022811 444.29002,25.604992 447.5,26.410644 448.94165,26.772474 450,26.606697 450,26.019052 450,25.458573 450.45,25 451,25 451.55,25 452,25.705324 452,26.567388 452,27.65675 452.5843,27.949326 453.91584,27.52671 456.89854,26.580039 457.19662,28.466659 454.46918,31.028954 452.33991,33.029297 452,34.234162 452,39.781303 452,45.088393 452.26247,46.113259 453.5,45.638374 455.56867,44.844551 455.39509,47.216947 453.25,49.05519 450.71914,51.224026 450.93513,65 453.5,65 455.44619,65 455.39634,65.904569 453.32394,68.194549 452.13385,69.509579 451.69,71.647818 451.79317,75.568998 451.96952,82.271764 452.45207,83.175625 455.45219,82.422643 459.00097,81.531956 459.27906,83.417568 455.96073,85.87091 452.59683,88.357953 452.34621,89.835026 454.56133,94.118594 455.76305,96.442461 456.74192,97.097585 458.81133,96.962971 463.11734,96.682868 463.62223,96.971158 461.55887,98.531803 458.61959,100.75496 456.44349,100.31577 453.58889,96.923275 z"/>
</svg>
