<?xml version="1.0" encoding="UTF-8"?>
<svg xmlns="http://www.w3.org/2000/svg" viewBox="1860 13.8 41 82.68">
  <path d="M 1862,87.038059 C 1862,82.091975 1866.1982,63.611658 1867.7256,61.834562 1868.9702,60.386405 1868.9563,59.86294 1867.6192,57.822258 1866.7734,56.531481 1865.3571,52.351955 1864.4718,48.534422 1862.9745,42.078293 1862.9829,41.066299 1864.5917,34.046726 1866.5642,25.440487 1868.6455,20.66288 1870.0453,21.527992 1870.6071,21.875189 1870.6512,22.82225 1870.1516,23.810688 1868.3021,27.469882 1866.7521,38.322733 1867.2295,44.270399 1867.5479,48.236321 1868.7001,52.448098 1870.3663,55.736242 1871.8149,58.594741 1873,61.443145 1873,62.066029 1873,62.688913 1871.4748,65.741373 1869.6108,68.849273 1867.216,72.841896 1865.8541,76.774098 1864.9693,82.25 1863.7269,89.939469 1862,92.724081 1862,87.038059 z M 1871.6048,53.412469 C 1870.0334,49.317459 1871.0428,35.973172 1873.4191,29.426364 1877.6846,17.675061 1880.4768,17.558519 1876.5366,29.296246 1874.6114,35.031371 1874,38.904864 1874,45.3673 1874,53.403591 1872.9521,56.923435 1871.6048,53.412469 z M 1873.6443,83.233534 C 1872.5286,81.428269 1874.7588,72.691035 1878.0056,66.147302 1880.9124,60.288751 1881.0542,59.549791 1879.8288,56.647302 1876.8171,49.514031 1879.2363,31.630068 1884.0091,25.743205 1886.4819,22.693335 1887.5158,24.101843 1885.5685,27.867487 1882.7794,33.260995 1880.8353,43.833715 1881.5625,49.653649 1881.9317,52.608679 1882.6147,55.261897 1883.0804,55.54969 1883.5461,55.837482 1885.6724,54.327605 1887.8056,52.194406 1889.9388,50.061207 1892.6611,48.060382 1893.8552,47.748128 1897.6893,46.745468 1899.0032,52.211767 1896.763,59.846629 1895.7043,63.454954 1895.9253,63.420574 1886.411,61.457586 1883.4431,60.845244 1883.198,61.062588 1880.1581,67.001968 1878.418,70.401908 1876.7104,75.054849 1876.3634,77.341838 1875.6041,82.346271 1874.5319,84.66957 1873.6443,83.233534 z M 1893.8,59.8 C 1894.46,59.14 1895,56.89 1895,54.8 1895,50.17014 1893.0496,49.764437 1889.4523,53.646023 1886.4103,56.928308 1886.3622,58.38679 1889.25,59.779505 1892.2059,61.205073 1892.3941,61.205921 1893.8,59.8 z"/>
</svg>
