<?xml version="1.0" encoding="UTF-8"?>
<svg xmlns="http://www.w3.org/2000/svg" viewBox="1580.86 14.89 90.29 90.52">
  <path d="M 1650.3593,98.894009 C 1653.4039,87.979884 1651.6567,77.529605 1644.1909,62 1642.292,58.050179 1641.5342,54.852832 1641.5022,50.655883 1641.4598,45.102308 1641.3056,44.747873 1638.4011,43.526611 1636.7201,42.819776 1634.0296,40.677847 1632.4223,38.766768 1628.5194,34.126103 1624.5531,31.689676 1622.1455,32.453833 1620.0538,33.117714 1616.9905,38.608884 1617.0147,41.651129 1617.0347,44.154305 1620.283,54.406146 1621.5992,56.120112 1624.7109,60.172038 1626.1508,65.323784 1625.6362,70.564486 1624.8534,78.537172 1620.3786,87.711886 1618.291,85.624301 1617.9742,85.307518 1618.1938,84.471409 1618.779,83.766282 1620.6948,81.457941 1622.9706,73.588691 1622.9854,69.221483 1622.9947,66.489575 1621.9656,62.874751 1620.1384,59.221483 1618.5646,56.074667 1616.711,50.448518 1616.0193,46.71893 1614.8176,40.23856 1614.8692,39.728602 1617.1832,35.21893 1619.1974,31.293617 1620.1331,30.447993 1622.7471,30.190761 1626.3802,29.833235 1630.1978,31.98011 1634.5,36.800242 1636.2897,38.805391 1638.912,40.45491 1641,40.888958 1643.9406,41.500247 1644.4639,42.00679 1644.2741,44.058267 1643.498,52.449133 1643.9017,54.828559 1647.3868,62.400136 1651.6505,71.663489 1653.9939,80.057849 1654.0153,86.144345 1654.0237,88.539955 1654.4066,91.092869 1654.866,91.817486 1656.4991,94.392868 1658.4298,86.846341 1658.3945,78.025562 1658.3635,70.274927 1658.0172,68.775016 1654.5846,61.523897 1650.6437,53.198896 1649.0028,44.604306 1650.7562,41.471124 1651.3106,40.480531 1653.6827,38.956785 1656.0277,38.085023 1661.1285,36.188703 1662.5353,34.268806 1661.5883,30.495832 1660.6712,26.84172 1654.5725,20.743105 1652.2774,21.185093 1651.3054,21.372289 1648.9328,24.3202 1647.005,27.736006 1645.0773,31.151812 1643.0221,33.958585 1642.4381,33.973281 1641.854,33.987976 1640.4602,32.7625 1639.3408,31.25 1636.3184,27.166416 1628.5188,23.650545 1621.4576,23.188674 L 1615.4151,22.793443 1612.559,26.914801 C 1609.0369,31.997216 1608.2847,38.266733 1609.9548,48.619661 1610.624,52.767871 1610.9172,56.416091 1610.6065,56.726818 1610.2958,57.037545 1607.3884,56.101127 1604.1457,54.645888 1600.903,53.19065 1597.3779,52 1596.312,52 1593.7436,52 1589.7017,56.433314 1587.195,62 1586.0804,64.475 1585.1306,65.694573 1585.0843,64.710162 1584.9689,62.259075 1588.2355,56.283849 1592.2172,51.66278 L 1595.5236,47.825561 1600.0118,49.488085 C 1602.4803,50.402474 1605.2973,51.576644 1606.2717,52.097352 1607.9285,52.982654 1608.0011,52.441686 1607.391,43.76142 1606.81,35.496991 1606.9842,33.907476 1608.9788,29.270858 1611.755,22.817468 1612.4447,22.243189 1618.8859,21.021646 1625.7588,19.718221 1635.7991,22.78409 1639.6517,27.362617 1642.5181,30.769171 1642.0845,31.026656 1646.951,23.028329 1648.9678,19.713785 1649.9527,19 1652.5099,19 1656.2539,19 1657.8073,20.143467 1661.884,25.900038 1667.0532,33.199296 1665.7362,37.470809 1657.4337,40.334148 1653.6723,41.631363 1653.4865,41.899448 1653.1908,46.454428 1652.9444,50.249656 1653.6043,52.740015 1656.4368,58.704547 1660.8786,68.057642 1662.4686,77.039332 1660.8611,83.696096 1658.9965,91.416997 1656.439,96.329922 1652.9495,98.894009 L 1649.6914,101.28802 1650.3593,98.894009 z M 1608,85.533673 C 1608,85.185527 1608.6321,83.678305 1609.4047,82.18429 1610.7583,79.566631 1611.4659,75.356916 1611.1508,71.795807 1610.9731,69.787201 1602.6953,63.212617 1599.2579,62.349874 1597.4888,61.905867 1596.0722,62.495637 1593.7923,64.625258 L 1590.7147,67.5 1591.3437,65 C 1591.6896,63.625 1591.9788,62.135942 1591.9863,61.690983 1591.9939,61.246024 1592.4532,61.162046 1593.0071,61.504365 1593.5609,61.846685 1594.2841,61.423242 1594.6141,60.563382 1595.673,57.803784 1600.4061,58.807874 1606.3279,63.048384 1609.4373,65.274995 1612.4356,67.945411 1612.9907,68.982642 1614.5444,71.88579 1614.187,78.12598 1612.2484,81.940449 1610.7066,84.974434 1608,87.263577 1608,85.533673 z"/>
</svg>
