<?xml version="1.0" encoding="UTF-8"?>
<svg xmlns="http://www.w3.org/2000/svg" viewBox="949.72 17.59 79.77 90.8">
  <path d="M 994.56264,95.75 C 996.06988,93.9625 997.92411,91.017915 998.68314,89.206478 1000.7052,84.380891 1004,67.528897 1004,62.012366 1004,56.185313 1005.5566,54.500731 1009.5412,56.015665 1011.0727,56.597926 1012.6407,56.720099 1013.0256,56.287161 1014.0905,55.089623 1011.2382,40.327017 1008.9367,35.124004 1006.7081,30.085808 1003.344,26 1001.4245,26 1000.7497,26 999.1406,27.653213 997.84878,29.673806 996.55695,31.694399 994.26385,35.181899 992.75301,37.423806 989.54494,42.184167 987.52696,46.400366 986.61404,50.25 986.02289,52.742781 986.2209,53.001432 988.73095,53.015313 993.83874,53.043559 994.17827,53.836303 993.69344,64.602028 993.22844,74.927765 991.00535,86.155186 988.44574,91.104932 986.83525,94.219272 984.28142,95.216108 985.51215,92.25 985.91152,91.2875 986.64762,88.7 987.14793,86.5 991.2537,68.445836 991.44822,67.145953 991.1508,59.75 991.0196,56.487475 990.6843,56 988.57143,56 985.89012,56 983,53.639118 983,51.448808 983,50.674224 983.72496,48.228608 984.61103,46.014106 986.09241,42.311782 986.09241,41.71451 984.61103,38.592741 981.71177,32.483002 983.20266,22.969818 987.17945,22.203958 988.28074,21.991868 989.18027,23.016184 989.95548,25.365108 991.87981,31.195868 993.35486,31.573266 996.37611,27.007848 999.87648,21.718436 1002.6083,21.717203 1007.3836,27.002881 1009.3726,29.204465 1011,31.454465 1011,32.002881 1011,34.078004 1013.9234,32.876262 1016.4805,29.75 1017.9425,27.9625 1019.8306,25.651217 1020.6762,24.613816 1021.9371,23.06692 1022.3715,22.97698 1023.0915,24.113816 1025.8634,28.490747 1022.3447,41.417574 1017.5211,44.578132 1015.4598,45.928762 1015.3118,46.625264 1015.7587,52.871978 1016.1809,58.772287 1016.0053,59.783976 1014.4561,60.378469 1013.4713,60.756372 1012.2008,60.600813 1011.6328,60.032783 1009.1021,57.50206 1007.1313,58.931949 1006.5096,63.75 1004.8791,76.384234 1003.7379,82.884289 1002.4221,87.031684 1000.7902,92.175056 995.6102,99 993.3383,99 992.23466,99 992.56774,98.115841 994.56264,95.75 z M 990.73062,35.691879 C 991.58029,33.827065 991.3315,32.636864 989.4353,29.494992 987.1567,25.719503 986.51863,25.809601 985.85884,30 985.43383,32.699256 987.13013,38 988.41894,38 989.11196,38 990.15221,36.961345 990.73062,35.691879 z M 1020.1052,36.04325 C 1020.7035,34.04612 1021.0372,31.459107 1020.8466,30.294332 1020.5387,28.412922 1020.0834,28.657792 1016.7672,32.488329 1013.3133,36.477892 1013.1164,37.035526 1014.1326,39.950569 1015.1837,42.965712 1015.3122,43.027444 1017.1241,41.387717 1018.1653,40.44539 1019.5068,38.04038 1020.1052,36.04325 z M 961.3125,82.96875 958.21875,85.1875 C 958.65765,85.359039 959,85.626698 959,85.96875 959,87.82993 965.21664,94 967.09375,94 969.51148,94 969.52542,92.495633 967.125,90.8125 966.10004,90.093813 964.35665,88.008059 963.25,86.1875 L 961.3125,82.96875 z M 956.71875,85.34375 954,85.34375 953.34375,85.59375 C 953.94645,86.542654 954.17897,87.79679 954.5,90.1875 955.6871,99.027921 957.25098,101.73806 961.9375,103 966.61121,104.2585 968.73662,103.57405 966.9375,101.40625 966.29345,100.63022 965.19672,100 964.5,100 962.10715,100 958.88916,96.49628 958.09375,93 957.6558,91.075 956.99073,88.4875 956.59375,87.25 956.23694,86.137719 956.35842,85.639617 956.71875,85.34375 z"/>
</svg>
