<?xml version="1.0" encoding="UTF-8"?>
<svg xmlns="http://www.w3.org/2000/svg" viewBox="615.97 17.41 19.47 90.95">
  <path d="M 618.51141,101.01847 C 618.16668,100.46068 617.9697,97.415842 618.07367,94.252156 618.17765,91.08847 618.19127,74.414485 618.10395,57.198856 618.01663,39.983226 618.20908,25.470726 618.53161,24.948856 620.63501,21.545483 620.99269,27.06468 620.96277,62.462532 620.93328,97.35447 620.49615,104.22984 618.51141,101.01847 z M 633.4375,101.4375 633.34375,100.65625 633.34375,97.5 C 632.34824,96.715909 632.37461,95.915204 633.34375,95.4375 L 633.34375,91.15625 C 633.26693,91.087565 633.04979,91.080559 633,91 632.56501,90.296166 632.15986,84.28855 632.09375,77.625 631.90779,58.879485 630.84325,25.55822 630.40625,25.09375 629.31644,23.935419 628.53613,26.82668 628.1875,33.3125 627.96036,37.538123 627.19502,41.164347 626.375,42.09375 625.17427,43.454661 625.25046,44.435946 626.84375,49.09375 628.32318,53.418719 628.82968,58.935729 629.34375,76.5 629.69789,88.6 629.99627,99.175 630,100 630.00362,100.79857 631.27119,101.17226 633.4375,101.4375 z"/>
</svg>
