<?xml version="1.0" encoding="UTF-8"?>
<svg xmlns="http://www.w3.org/2000/svg" viewBox="1354.82 20.25 47.89 74.78">
  <path d="M 1383.9375,24.25 C 1383.5626,23.646765 1382.1698,24.198422 1380.125,26.375 1377.1662,29.524513 1374.035,38.037035 1374.5,41.625 1374.7057,43.212144 1375.2544,46.3 1375.75,48.5 1376.6651,52.561734 1375.3065,58.06257 1373.0312,59.46875 1372.4657,59.818311 1372,60.769959 1372,61.5625 1372,64.708111 1374.5744,62.295746 1377.9688,55.9375 1379.7773,52.549514 1379.7694,52.032533 1378.2812,46.125 1376.9264,40.74622 1376.9202,39.305948 1378.0938,35.75 1378.8421,33.482258 1380.4656,30.395441 1381.7188,28.90625 1383.6729,26.58386 1384.3124,24.853235 1383.9375,24.25 z M 1391.5312,25 C 1390.6619,25 1388.1567,27.77098 1385.9688,31.15625 1382.9479,35.829993 1382,38.327267 1382,41.5 1382,43.798063 1382.2895,45.977084 1382.6562,46.34375 1384.1481,47.835658 1384.7433,46.71917 1385.375,41.34375 1385.8071,37.667655 1387.0104,34.269471 1388.8125,31.59375 1393.2185,25.052082 1393.2443,25 1391.5312,25 z M 1398.75,30.03125 C 1397.1778,30.077174 1392.6399,37.274848 1391.0312,42.28125 1390.0005,45.489034 1390.0714,46.446386 1391.4375,48.53125 1392.4383,50.058782 1393.9827,51 1395.5312,51 1397.0517,51 1397.4447,51.415556 1397.4688,52.25 L 1399.8438,48.84375 C 1399.5902,48.27058 1398.9334,48.054331 1397.5312,48.40625 1395.7397,48.855894 1394.8139,48.501599 1394.0938,47.15625 1392.8113,44.760032 1393.6926,41.576464 1397.1875,35.875 1400.3561,30.706013 1400.5406,29.978948 1398.75,30.03125 z M 1391.2812,61.1875 C 1391.0252,61.047229 1390.7148,61 1390.2812,61 1387.6037,61 1381.0808,66.361093 1376.2812,72.5 1370.0113,80.519706 1365,88.126814 1365,89.625 1365,91.625268 1367.9458,91.323094 1368.6875,89.25 1371.2605,82.057968 1385.0992,64 1388.0312,64 1388.4527,64 1388.6984,64.410914 1388.9062,65 L 1389.3438,64 1391.2812,61.1875 z M 1370.0938,64.15625 C 1367.4803,65.133891 1357,81.000307 1357,83.96875 1357,86.541687 1359.0685,84.556269 1361.4062,79.75 1362.8106,76.8625 1365.5069,72.475 1367.4062,70 1370.8679,65.489274 1371.7593,63.533241 1370.0938,64.15625 z"/>
</svg>
