<?xml version="1.0" encoding="UTF-8"?>
<svg xmlns="http://www.w3.org/2000/svg" viewBox="1618.88 13.77 19.63 91.48">
  <path d="M 1620.875 48.125 L 1621.4375 51.875 C 1621.7121 51.882352 1622.1668 51.760589 1622.2812 51.875 C 1623.4455 53.039289 1623.3121 54.486912 1622.0625 56.09375 L 1622.6562 60 L 1622.2188 60.75 C 1622.2331 60.761688 1622.3347 60.735349 1622.3438 60.75 C 1623.0556 61.901655 1622.5129 82.830796 1621.75 83.59375 C 1621.6429 83.700864 1621.3562 83.612088 1621.1875 83.65625 L 1621.3438 84 L 1621.5 86.96875 C 1622.217 87.457988 1622.6538 88.237973 1622.8125 89.84375 C 1623.0274 92.018963 1622.9274 92.696058 1621.8125 92.90625 L 1621.9688 96.25 C 1623.1699 96.478845 1624.138 96.875676 1624.4375 97.65625 C 1625.7549 101.08931 1626.7319 97.320717 1626.0312 91.5 C 1625.634 88.2 1625.1149 74.7 1624.9062 61.5 C 1624.2477 19.820198 1624.1081 21.90473 1627.9062 23.9375 C 1629.4438 24.760388 1630.4633 24.733136 1631.9375 23.8125 C 1633.0251 23.133249 1634.1102 22.797777 1634.375 23.0625 C 1634.6397 23.327223 1634.4019 28.491793 1633.8438 34.53125 C 1631.8384 56.22715 1632.0871 97.460542 1634.2188 96.75 C 1634.8255 96.547744 1635.1188 91.227201 1634.9375 82.96875 C 1634.5228 64.074677 1634.5063 64.521342 1635.4375 44 C 1636.4937 20.724898 1636.5088 19.165056 1635.6562 18.3125 C 1635.2721 17.928415 1634.2497 18.608183 1633.4062 19.8125 C 1631.4871 22.552404 1630.0021 22.555956 1626.5938 19.875 C 1625.1156 18.712297 1623.6693 17.986872 1623.4062 18.25 C 1623.143 18.513128 1622.886 24.762925 1622.8125 32.125 C 1622.739 39.487074 1622.2948 46.245409 1621.8438 47.15625 C 1621.7118 47.422747 1621.2019 47.797706 1620.875 48.125 z "/>
</svg>
