<?xml version="1.0" encoding="UTF-8"?>
<svg xmlns="http://www.w3.org/2000/svg" viewBox="1455.3 15.4 27.86 31.6">
  <path d="M 1466.0005,43.75 C 1466.0014,41.575451 1470.1006,31.573552 1471.7383,29.75 1472.6027,28.7875 1473.7737,28 1474.3405,28 1474.9073,28 1476.4108,27.023226 1477.6816,25.82939 1478.9524,24.635555 1480.3314,24.006129 1480.7461,24.430666 1481.1607,24.855204 1479.6071,26.844478 1477.2936,28.851276 1474.2172,31.51988 1472.4847,34.178874 1470.8442,38.75 1469.6106,42.1875 1468.0159,45 1467.3006,45 1466.5853,45 1466.0002,44.4375 1466.0005,43.75 z M 1466.615,22.535183 C 1465.7268,21.179534 1465,19.604534 1465,19.035183 1465,17.398891 1466.9979,17.830861 1467.6826,19.6152 1468.1744,20.896753 1469.2007,21.107272 1472.6512,20.634331 1477.8581,19.920643 1478.2856,21.16204 1473.5989,23.386059 1469.1145,25.514044 1468.5193,25.441534 1466.615,22.535183 z M 1461.4967,36.032593 C 1462.1175,29.851453 1461.9597,28.764167 1460.0982,26.397735 1457.3004,22.840864 1457.301,19.754495 1460.0994,20.180449 1461.505,20.394401 1462.6857,21.821845 1463.6723,24.5 1465.4124,29.223664 1465.4109,29.207282 1464.6665,35.055249 1463.9568,40.6308 1463.0995,43 1461.7915,43 1461.1604,43 1461.0527,40.45424 1461.4967,36.032593 z"/>
</svg>
