<?xml version="1.0" encoding="UTF-8"?>
<svg xmlns="http://www.w3.org/2000/svg" viewBox="386 11.8 41.62 92.4">
  <path d="M 400.1704,98.974776 C 394.08745,98.089417 390,94.973807 390,91.22252 390,89.542125 392.15707,86.65789 397,81.86275 400.85,78.050744 404,74.580514 404,74.151128 404,73.232891 397.50657,70 395.66224,70 393.33292,70 388,63.539847 388,60.718169 388,57.111715 392.55566,52.237745 397.5,50.554394 399.74043,49.791616 401.65265,48.43627 401.84701,47.473304 402.05609,46.437394 400.01096,43.517513 396.70156,40.127027 393.6807,37.032162 390.92559,33.546937 390.57908,32.382082 388.85041,26.570816 398.70825,16 405.85624,16 408.33719,16 409.02655,16.609097 410.38332,20 412.20617,24.555738 413.40797,24.904811 416.68161,21.82939 417.95239,20.635555 419.33139,20.005419 419.74606,20.429088 420.16073,20.852758 418.61079,22.882503 416.30176,24.939633 413.50009,27.435656 412.2326,29.315266 412.49153,30.589935 413.78329,36.948935 414.11627,38 414.83905,38 415.27958,38 417.521,36.389935 419.82,34.422077 425.61573,29.461153 425.06577,31.525438 419,37.5 413.85456,42.568073 412.97118,45.209113 415.09444,49.176468 416.14758,51.144282 416.33627,51.077537 420.09444,47.407779 425.52507,42.104915 425.01299,44.907665 419.5,50.661341 417.025,53.244394 415,55.892497 415,56.546014 415,57.199532 416.8,58.925411 419,60.381302 421.2,61.837193 423,63.471992 423,64.014188 423,65.337983 421.98754,65.207835 419,63.5 415.13479,61.290448 414.38347,61.688601 414.48889,65.890592 414.56632,68.976936 415.24939,70.338968 417.79325,72.479486 419.55696,73.963552 421,76.116226 421,77.263208 421,79.295438 420.93489,79.287463 418.44733,76.950519 416.29488,74.928398 415.74853,74.783479 414.96264,76.026205 412.47135,79.965683 415.31458,88 419.2,88 420.11791,88 420.12429,88.275709 419.22713,89.172874 418.32996,90.07004 417.42274,90.058012 415.36777,89.121705 412.36363,87.752929 411.43482,88.481266 410.42195,93 409.4231,97.456238 408.07099,100.00276 406.77144,99.875244 406.07215,99.806629 403.10168,99.401418 400.1704,98.974776 z M 404,62.581787 C 404,58.501771 403.72686,54.451771 403.39301,53.581787 402.5716,51.441212 399.17463,51.596125 395.31382,53.950227 388.55738,58.069922 389.17738,62.34109 397.19966,66.941636 400.11485,68.613414 402.8375,69.985455 403.25,69.990616 403.6625,69.995777 404,66.661804 404,62.581787 z M 403.20994,33.25 C 403.62923,25.667168 402.66019,20 400.94428,20 399.14022,20 392,27.786124 392,29.753388 392,31.795424 400.06432,41 401.8534,41 402.3638,41 402.97424,37.5125 403.20994,33.25 z M 403.88159,95.642678 C 405.16174,94.100194 405.09378,81.175995 403.80133,80.377212 402.18456,79.377998 395.91825,84.239921 394.01529,87.970027 L 392.09275,91.73851 394.29638,93.769425 C 396.29723,95.61346 398.54024,96.56638 401.62756,96.883999 402.24771,96.947799 403.26203,96.389205 403.88159,95.642678 z M 411.0616,79.867728 C 412.81812,65.441037 412.90266,50.731812 411.30222,38 410.43801,31.125 409.28479,24.375 408.73951,23 L 407.7481,20.5 406.8534,23.5 C 405.68817,27.407123 405.53507,49.776802 406.55225,67.5 406.99417,75.2 407.29503,82.625 407.22083,84 407.14663,85.375 407.30634,87.137748 407.57574,87.917217 408.5818,90.828054 410.17509,87.148843 411.0616,79.867728 z"/>
</svg>
