<?xml version="1.0" encoding="UTF-8"?>
<svg xmlns="http://www.w3.org/2000/svg" viewBox="873.06 11.29 21.89 95.76">
  <path d="M 875.58664,101.14019 C 875.06446,100.29528 876.42091,76.050424 877.50998,66.762928 877.81549,64.157538 878.05602,52.648816 878.04448,41.187989 878.02,16.873385 878.36072,15.643847 884.50719,17.86644 887.19325,18.837731 888.49848,18.901522 889.29935,18.100652 889.90471,17.495294 890.88632,17 891.48072,17 892.95166,17 892.37781,99.030599 890.8967,100.48373 890.19072,101.17638 889.1022,100.62429 887.4784,98.75 886.16804,97.2375 884.72456,96 884.27065,96 883.81675,96 882.26076,97.35 880.81291,99 878.14236,102.04342 876.54831,102.69619 875.58664,101.14019 z M 882.17532,94.341336 C 883.66693,92.99145 884.47277,92.894379 886.50406,93.819897 L 889,94.957122 889,88.237794 C 889,84.542163 889.17908,68.175791 889.39795,51.868077 L 889.79589,22.217689 885.64795,22.746431 C 883.36658,23.037239 881.43799,23.325759 881.3622,23.387587 881.28641,23.449414 880.96882,34.3 880.65646,47.5 880.34409,60.7 879.89082,77.0125 879.64919,83.75 879.40755,90.4875 879.4647,96 879.77618,96 880.08767,96 881.16728,95.253601 882.17532,94.341336 z"/>
</svg>
