<?xml version="1.0" encoding="UTF-8"?>
<svg xmlns="http://www.w3.org/2000/svg" viewBox="962.65 22.08 69.15 86.17">
  <path d="M 1028.4688,54.9375 C 1028.1536,55.745999 1027.6905,56.223392 1026.8438,56.625 1025.5512,57.238037 1022.6475,58.772885 1020.375,60.0625 L 1016.25,62.40625 1010.6562,58.21875 C 1004.5425,53.602811 1003.0762,53.229 999.5625,55.53125 997.33895,56.988176 997.08183,56.933679 995.09375,54.40625 992.46171,51.060154 992.49548,50.836952 995.375,46.59375 997.7136,43.147622 999.55795,35.711798 998.5,34 998.19837,33.511959 995.96498,34.44109 993.5625,36.0625 986.67509,40.71076 983.65963,39.397115 985.65625,32.65625 986.83063,28.691406 986.29198,26 984.34375,26 983.51951,26 980.90107,27.155384 978.5,28.5625 970.91986,33.004759 965.79368,45.036073 968.96875,50.96875 970.08011,53.045335 974.97664,55 979.03125,55 981.13982,55 982.04084,55.70268 983.03125,58.09375 984.18075,60.868896 984.05236,61.721847 981.75,66.34375 976.68836,76.504819 975.5001,82.160158 976.75,90.25 977.70622,96.439049 978.36542,97.933782 981.09375,100.375 985.47248,104.29294 990.87826,103.70493 997.53125,98.625 L 1002.3125,95 1005.4062,97.34375 C 1012.9328,103.06415 1018.5432,104.33689 1023.9688,101.53125 1025.2225,100.88294 1026.5394,100.48606 1027.9375,100.21875 L 1027.7812,96.65625 C 1026.274,96.934977 1024.9067,97.308527 1023.875,97.9375 1022.0262,99.064612 1019.4567,99.997944 1018.1875,100 1015.8634,100.00377 1007.8854,96.018862 1004.9062,93.375 1002.8713,91.56905 1000.5523,92.390963 995.75,96.65625 991.15931,100.73361 986.38856,101.13552 982.5625,97.75 980.37458,95.814 979.92391,94.373111 979.375,87.46875 978.81649,80.4435 979.03154,78.762886 981.0625,73.96875 982.33836,70.957049 984.42009,66.888872 985.6875,64.9375 L 988,61.40625 985.25,56.21875 C 982.57046,51.17922 982.4226,51.092256 978.875,51.65625 976.0068,52.112233 974.78784,51.787845 973.125,50.125 971.96439,48.964397 971,47.087034 971,45.96875 971,42.653144 975.71716,34.342333 978.875,32.09375 983.79758,28.588567 984.56294,29.482788 982.5625,36.5 981.98835,38.514015 983.98599,42.00599 985.71875,42 986.69897,41.996612 988.79963,41.321612 990.375,40.5 991.95037,39.678389 993.63787,39 994.125,39 995.98269,39 994.87896,42.877295 992,46.5 990.35,48.576255 989,50.418802 989,50.59375 989,50.768697 990.0125,52.462593 991.25,54.34375 992.4875,56.224908 994.00741,58.594233 994.625,59.625 995.66612,61.36262 995.88462,61.378398 997.625,59.875 1002.3971,55.752686 1003.489,55.75581 1008.625,60 1014.4742,64.833486 1017.1643,65.024876 1023.9375,61.03125 L 1028.6562,58.25 1028.6562,55.34375 1028.4688,54.9375 z M 1028.6562,64.40625 C 1028.153,65.074703 1027.7165,65.684601 1026.6562,66.65625 1022.004,70.91977 1019.1881,70.897875 1012.5625,66.5 1009.6623,64.575 1006.7461,63 1006.0938,63 1004.4724,63 996.93018,66.869693 994.6875,68.84375 991.22233,71.893853 988,80.318637 988,86.375 988,93.683837 989.25532,94.199221 997.34375,90.09375 1004.2928,86.566579 1005.9155,86.690611 1010.1562,91.1875 1013.2517,94.469881 1017.7604,94.904073 1023.7188,92.46875 1025.2723,91.833785 1026.5056,91.074756 1027.5312,90.21875 L 1027.4062,86.65625 C 1026.5555,87.653364 1024.9987,88.8085 1023.3438,89.5 1017.8573,91.792412 1013.6058,91.225169 1011.25,87.90625 1010.5608,86.935258 1008.4864,85.645566 1006.625,85.03125 1003.5837,84.027503 1002.6965,84.236458 998.0625,86.96875 990.63795,91.346418 989.57356,91.100138 990.375,85.25 991.28177,78.630942 994.86749,71.916119 998.9375,69.21875 1004.5463,65.501564 1006.0998,65.531233 1012.0312,69.4375 1018.2296,73.519571 1022.7466,74.042457 1025.5,71 1026.4955,69.9 1027.6915,69 1028.1562,69 1028.2374,69 1028.2748,69.500658 1028.3438,69.625 L 1028.6562,69.34375 1028.6562,64.40625 z"/>
</svg>
