<?xml version="1.0" encoding="UTF-8"?>
<svg xmlns="http://www.w3.org/2000/svg" viewBox="769.64 18 100.54 90.38">
  <path d="M 782.75,93.428025 C 779.88182,91.87201 778.99165,89 781.37756,89 782.13521,89 783.31531,89.675 784,90.5 785.9666,92.869606 788.33988,92.276285 792,88.5 795.61755,84.767634 799.82032,83.873646 801.91031,86.391935 803.38587,88.169875 806.82725,89.088529 807.5615,87.900484 807.87143,87.399019 808.125,84.041292 808.125,80.43887 808.125,75.186423 807.60906,73.008633 805.52035,69.444506 802.13659,63.670557 799.50199,63.598001 792.39246,69.08297 789.4817,71.328603 786.32851,73.016103 785.38538,72.83297 783.10719,72.390604 780.19499,67.007639 778.85594,60.763852 778.04811,56.99708 778.09795,52.961586 779.05133,44.944711 L 780.33121,34.182333 777.66561,31.014441 C 774.67199,27.456727 774.20899,25.482482 776.58179,26.393011 777.45177,26.726855 778.35177,27 778.58179,27 778.8118,27 779,27.605256 779,28.345012 779,29.084769 779.9,30.504514 781,31.5 783.18254,33.475173 783.56895,37.373345 781.99307,41.518234 781.43925,42.974873 780.95285,48.316744 780.91217,53.38906 780.8499,61.152519 781.18301,63.195865 783.01788,66.305726 784.2167,68.337577 785.7156,69.995632 786.34878,69.990294 786.98195,69.984956 789.45426,68.427028 791.84279,66.528232 799.07126,60.781865 803.19999,60.663385 807.06509,66.091406 810.05708,70.293273 811.69197,81.97353 810.09666,87.75 808.76594,92.568379 807.98905,92.798479 802.5,90 797.30278,87.350307 796.84291,87.421581 792.89044,91.489352 789.19683,95.290717 786.96868,95.716699 782.75,93.428025 z M 780.73213,101.46395 C 778.67946,100.06912 777,98.463796 777,97.896561 777,96.600747 780.92066,97.729041 783.12351,99.658797 784.54852,100.90714 785.59079,100.64029 791.64794,97.476304 L 798.54887,93.871574 804.92156,96.885383 C 810.73112,99.632868 811.53071,99.776921 813.96996,98.515533 815.4416,97.75452 817.23049,96.427202 817.94528,95.565937 819.7145,93.434159 820.7173,93.584338 824.18237,96.5 825.81646,97.875 827.82395,99 828.64345,99 829.46295,99 831.60839,97.875 833.41111,96.5 837.67332,93.249055 839.79938,93.347653 844.88567,97.032143 851.08333,101.5217 853.70498,101.7241 858.70656,98.099149 863.01345,94.977676 865.6099,95.431442 862.08962,98.690387 858.61338,101.90856 853.23476,104.27574 850.79187,103.66261 849.50904,103.34064 846.28671,101.63804 843.63112,99.879052 L 838.80278,96.680891 833.3427,99.537498 827.88262,102.39411 823.55875,100.03209 819.23488,97.670081 816.48258,99.835041 C 812.821,102.71524 808.80021,102.56519 803.05175,99.333823 L 798.30874,96.667646 792.27356,100.33382 C 788.95421,102.35022 785.8392,104 785.35132,104 784.86344,104 782.78481,102.85878 780.73213,101.46395 z M 782.54047,29.260218 C 778.37347,24.766302 779.35918,22.109901 783.68555,26.174314 L 786,28.348628 788.31445,26.174314 C 790.81343,23.826641 792,23.43747 792,24.965522 792,25.949108 786.47266,32 785.57417,32 785.30289,32 783.93773,30.767098 782.54047,29.260218 z M 803.82234,58.890319 799.14468,55.919804 794.13041,58.709902 C 787.57004,62.360292 786.54136,61.415458 786.51765,51.717648 786.49609,42.901782 787.34881,37.524827 789.13207,35.231973 790.89465,32.965702 794.97966,29 795.55152,29 796.86043,29 795.71748,32.084476 793.94978,33.322623 789.76043,36.256959 786.7771,48.834873 788.63029,55.75 789.37478,58.52808 790.96913,58.598719 794.27287,56 797.6235,53.364396 800.1788,53.477261 805.59304,56.5 808.0559,57.875 810.505,59 811.03548,59 812.66082,59 812.11362,51.024342 809.77761,40.665999 L 807.55523,30.811484 811.02761,27.932643 C 815.57956,24.158771 817.20581,24.269979 820.49317,28.579927 L 823.22371,32.159855 825.91657,29.579927 C 829.56907,26.080617 831.05545,26.288909 827.6674,29.825277 826.17866,31.379179 824.59893,33.966679 824.15688,35.575277 823.12068,39.345908 822.72482,52.47062 823.5359,56.163456 L 824.16269,59.017191 826.7162,57.008596 C 829.91067,54.495828 831.64352,54.494508 838,57 840.79072,58.1 843.49004,59 843.99848,59 845.79031,59 847.23332,50.518773 846.6885,43.189494 846.25493,37.35681 845.61384,35.182503 843.51716,32.433609 840.51568,28.498466 841.02865,25.828119 844.23729,28.684857 847.72656,31.791444 849.00292,36.402618 848.95197,45.717881 848.9007,55.091349 846.96533,61.190414 843.8519,61.790004 842.94899,61.963889 839.82872,60.957272 836.91797,59.553079 834.00722,58.148886 831.29444,57 830.88957,57 830.48471,57 828.73828,58.190786 827.00863,59.646191 824.21376,61.997923 823.69696,62.12553 822.36437,60.792941 820.75382,59.182395 820.09406,43.391298 821.3909,37.493372 821.92363,35.070579 821.4882,33.811393 819.14851,31.008827 816.41138,27.730183 816.0978,27.609701 813.67555,28.90605 812.26234,29.662377 810.9008,30.816132 810.6499,31.46995 810.39901,32.123768 811.05919,36.223001 812.11697,40.579355 814.59136,50.769884 814.96481,59.777964 812.96532,61.042597 810.65554,62.503474 808.83835,62.075705 803.82234,58.890319 z M 844.96223,91.040641 C 841.14871,87.781011 838.46893,87.302055 835.47251,89.344547 832.35594,91.468934 829.08934,91.946479 827.6334,90.490546 825.43042,88.287561 824.71069,75.628178 826.53957,71.251043 829.11323,65.091424 831.61211,63.068614 835.85,63.714385 837.8575,64.020288 840.175,64.843083 841,65.542819 842.37113,66.705765 845.71671,67.388928 848.67815,67.110691 850.82983,66.908534 854.01493,56.096859 854.67903,46.740982 855.28643,38.183985 855.52828,37.421024 858.77117,33.831523 863.10097,29.038959 865.0043,29.83419 861.11044,34.808891 858.6061,38.008373 858.1328,39.668059 857.55688,47.269722 856.0657,66.952158 851.25584,72.929629 840.51907,68.443522 832.21018,64.971845 828.00449,69.065493 828.00155,80.627555 827.99959,88.376872 829.14475,89.490626 834.50767,86.955264 839.88596,84.412639 842.21308,84.533458 845,87.5 847.71913,90.39438 850.08392,90.646342 853.50314,88.405986 858.02619,85.44237 858.53982,87.59641 854.08039,90.826808 851.67113,92.572064 849.41294,94 849.06219,94 848.71143,94 846.86645,92.668288 844.96223,91.040641 z M 849.17431,30.685549 C 845.59505,26.875596 846.51279,24.344121 850.24786,27.724311 852.05214,29.357162 852.31545,29.355506 855.21204,27.693087 859.52174,25.219664 860.11719,26.6126 856.23353,30.082645 852.29723,33.599737 851.94066,33.63019 849.17431,30.685549 z M 856.05533,95.25 C 856.08576,94.8375 857.43576,93.453274 859.05533,92.173942 861.33552,90.372772 862,90.190734 862,91.367238 862,92.202883 860.99987,93.587109 859.77749,94.443296 857.36709,96.131609 855.96792,96.434851 856.05533,95.25 z"/>
</svg>
