<?xml version="1.0" encoding="UTF-8"?>
<svg xmlns="http://www.w3.org/2000/svg" viewBox="86.66 15.88 33.34 90.61">
  <path d="M 88.65625,27.15625 88.65625,30.9375 C 88.679554,30.85311 88.999716,30.362756 89,30.3125 89.003706,29.656187 89.779032,28.531187 90.75,27.8125 92.953463,26.18155 95.200888,21.266062 94.0625,20.5625 93.596426,20.274451 91.568051,22.594092 89.53125,25.75 89.199759,26.263626 88.984031,26.645385 88.65625,27.15625 z M 112.09375,88.9375 112,88.65625 112.375,83.8125 C 112.05936,83.442314 111.73131,83.068298 111.65625,82.78125 110.9736,80.170826 111.34656,79.120097 112.71875,79.28125 L 113.1875,73.34375 C 112.48509,72.279135 112,71.278267 112,70.46875 112,69.044488 111.62231,68.118215 111.15625,68.40625 110.6902,68.694286 110.01085,73.370325 109.65625,78.78125 109.30165,84.192175 108.72246,90.68374 108.375,93.21875 L 107.75,97.8125 102.625,98.21875 C 99.805612,98.438154 97.284599,98.476348 97.03125,98.28125 96.348876,97.755771 96.521044,89.747513 97.4375,79 98.551186,65.939528 96.656755,68.432675 95.15625,82 93.849969,93.811173 93.669845,100.35735 94.65625,101.34375 95.687468,102.37497 98.808945,102.10622 99.53125,100.9375 99.926379,100.29817 101.86299,100.16705 104.5,100.5625 108.20136,101.11755 108.97389,100.89837 109.90625,99.15625 110.5051,98.037284 111,95.363241 111,93.21875 111,91.074259 111.25536,89.088384 111.5625,88.78125 111.59546,88.748293 111.99175,88.930138 112.09375,88.9375 z M 118,47.40625 118,42.78125 C 117.12687,44.123009 116.77404,44.832493 115.875,46.15625 112.63653,50.924637 110,55.312137 110,55.90625 110,56.500363 110.36169,57 110.8125,57 111.33427,57 114.50557,52.604604 118,47.40625 z M 112.71875,20 C 112.01417,20 109.0416,24.1625 106.09375,29.25 103.1459,34.3375 98.516322,42.23306 95.84375,46.8125 93.171177,51.39194 91,55.32944 91,55.5625 91,58.61525 102.29643,42.835067 105,36 105.76142,34.075 107.41627,31.108165 108.6875,29.40625 109.95873,27.704335 111,25.84949 111,25.28125 111,24.713009 111.675,23.684689 112.5,23 114.33748,21.475024 114.44493,20 112.71875,20 z"/>
</svg>
