<?xml version="1.0" encoding="UTF-8"?>
<svg xmlns="http://www.w3.org/2000/svg" viewBox="405.34 16.48 42.99 91.74">
  <path d="M 407.34375 28.4375 L 407.34375 30 L 409.46875 33.1875 C 409.77017 32.360214 410.37587 31.635562 411.5 30.59375 C 417.21423 25.297982 426.06612 22.689804 425.96875 26.34375 C 425.952 26.972406 427.17057 31.195921 428.6875 35.71875 C 431.41532 43.851887 431.42312 43.977184 429.46875 45.40625 C 428.38193 46.200953 427.79352 47.137271 428.15625 47.5 C 428.51898 47.862728 427.45221 51.085508 425.78125 54.65625 C 423.04625 60.500819 422.78062 61.848802 423.21875 68.3125 C 423.53184 72.931561 424.54069 77.132259 426 80.09375 L 428.25 84.71875 L 425.625 89.1875 C 422.49856 94.522368 421.10382 102.32072 423.0625 103.53125 C 423.89259 104.04428 424.76257 103.68122 425.4375 102.53125 C 427.83662 98.443499 431.28457 95 432.96875 95 C 433.95515 95 436.55 96.8 438.75 99 C 440.95 101.2 443.01545 103 443.3125 103 C 443.60955 103 444.34526 101.4517 444.96875 99.5625 C 446.33492 95.422965 445.05242 89.601939 441.875 85.5625 C 439.82079 82.951002 439.80363 82.725333 441.375 77.125 C 443.25995 70.407086 443.49924 60.358738 441.875 54.9375 C 441.24831 52.845806 439.04057 49.094366 437 46.625 C 434.95944 44.155635 432.7087 39.96525 431.96875 37.3125 C 431.22879 34.659749 430.0269 31.375 429.3125 30 C 428.59809 28.625 428.00339 26.545155 428 25.375 C 427.99162 22.481072 425.53089 20.645668 422.625 21.375 C 421.30653 21.705915 417.60117 23.753075 414.375 25.9375 C 409.4111 29.298535 408.31454 29.705696 407.375 28.46875 C 407.36177 28.451336 407.35688 28.45464 407.34375 28.4375 z M 433.78125 48.4375 C 435.40864 48.151474 436.83257 50.139036 439.03125 55.25 C 440.88556 59.560469 441.15622 61.596678 440.6875 67.1875 C 440.37671 70.894585 439.19449 76.034705 438.0625 78.59375 L 436 83.25 L 439 86.625 C 440.64057 88.493513 442.23661 91.107793 442.5625 92.40625 C 442.88839 93.704708 442.99449 96.046044 442.78125 97.625 C 442.43123 100.21672 442.30095 100.30555 441.5 98.5 C 440.523 96.297582 436.64997 92.892138 433.84375 91.78125 C 432.55175 91.269788 431.19358 91.97423 429.03125 94.28125 C 426.4044 97.083878 426.00403 97.22937 426 95.46875 C 425.99745 94.358923 427.125 91.804745 428.5 89.78125 C 429.875 87.757756 431 85.733345 431 85.28125 C 431 84.829155 429.60031 81.156985 427.90625 77.125 C 425.25226 70.808319 424.92712 69.093924 425.53125 64.65625 C 426.33258 58.770067 429.2244 52.008912 432.03125 49.46875 C 432.66078 48.899036 433.23879 48.532842 433.78125 48.4375 z "/>
</svg>
