<?xml version="1.0" encoding="UTF-8"?>
<svg xmlns="http://www.w3.org/2000/svg" viewBox="1342.16 17.93 22.52 91.04">
  <path d="M 1362.6875 98.125 L 1362.6562 98 L 1362.6562 92.90625 C 1362.2625 92.322167 1362 91.663622 1362 90.875 C 1362 89.721502 1362.1823 89.257259 1362.6562 89.1875 L 1362.6562 85.0625 L 1361.5 84.5 L 1362 73.5 C 1362.275 67.45 1362.5083 54.974499 1362.5 45.78125 C 1362.4828 26.583004 1361.8659 24.836755 1357.0312 29.46875 L 1354.0938 32.3125 L 1352.2812 29.15625 C 1348.245 22.065995 1347.8217 24.497546 1347.5 55.84375 C 1347.2912 76.18376 1346.7833 85.944482 1345.5625 92.75 C 1344.6491 97.841531 1344.1626 102.45403 1344.5 103 C 1345.4504 104.53772 1346.4541 104.21002 1349 101.5 C 1351.8032 98.516148 1353.5727 98.324762 1354.9375 100.875 C 1357.0523 104.82642 1362 104.12726 1362 99.875 C 1362 98.842345 1362.1508 98 1362.3438 98 C 1362.3717 98 1362.6493 98.120706 1362.6875 98.125 z M 1359.4688 32 C 1360.1627 32 1359.9876 58.089307 1359.1562 78.3125 C 1358.7986 87.014534 1358.8519 95.096301 1359.2812 96.25 C 1360.4551 99.405021 1358.7639 100.1624 1356.7188 97.40625 C 1354.617 94.57364 1352.3729 94.339166 1349.8125 96.65625 C 1348.8033 97.569545 1347.8099 98.132045 1347.5938 97.90625 C 1347.3776 97.680455 1347.588 95.064113 1348.0625 92.09375 C 1349.4327 83.516435 1350.3825 64.798716 1350.2812 48.3125 C 1350.1926 33.89037 1350.2848 33.147604 1352 34.21875 C 1353.4099 35.099276 1354.376 34.997332 1356.375 33.6875 C 1357.7846 32.763893 1359.1744 32 1359.4688 32 z "/>
</svg>
