<?xml version="1.0" encoding="UTF-8"?>
<svg xmlns="http://www.w3.org/2000/svg" viewBox="1592.55 12.6 44.25 93.33">
  <path d="M 1602.1148,99.114802 C 1599.6246,96.624625 1595.8662,86.656935 1595.2635,80.944702 1594.5625,74.299899 1596.5258,63.489618 1599.5597,57.288403 1601.8744,52.557324 1602.0278,51.672202 1600.7898,50.191589 1597.2104,45.91102 1595.6946,40.171881 1596.3186,33.262785 1597.1163,24.431422 1598.7265,19 1600.547,19 1602.1312,19 1602.5172,20.562346 1601.1429,21.411711 1599.7608,22.265898 1597.8476,33.178088 1598.3856,37.138397 1599.0277,41.864925 1601.2579,47.141495 1603.3451,48.872445 1605.5953,50.738576 1605.4559,51.785662 1602.1201,58.072418 1597.4396,66.893701 1596.5243,79.616503 1600.0245,87.202017 L 1602.0077,91.5 1601.6212,85 C 1601.1549,77.158264 1603.1364,70.028198 1607.2494,64.747456 1610.6794,60.343617 1613.565,59.371288 1618.4347,60.978448 1621.8715,62.112708 1628,68.280668 1628,70.605399 1628,71.23774 1628.675,72.315311 1629.5,73 1630.7751,74.058232 1630.9936,73.814197 1630.9573,71.372445 1630.8785,66.065283 1625.8449,57.939627 1619.6094,53.053461 1612.5098,47.49017 1611.0811,45.018687 1611.0354,38.221483 1610.9855,30.776987 1618.1777,16.844342 1620.7452,19.411872 1621.1285,19.795153 1620.9752,20.421778 1620.4047,20.804373 1617.7603,22.577513 1614,32.539475 1614,37.7719 1614,43.08708 1614.0804,43.230559 1620.7503,49.825555 1631.427,60.382286 1634.7884,68.531412 1632.341,77.925235 1630.9705,83.185517 1629.5628,82.615313 1627.5803,75.996841 1625.6165,69.441184 1621.1153,64.623503 1615.8795,63.473523 1611.9344,62.607055 1609.5264,64.282417 1606.8826,69.733051 1603.6147,76.470203 1603.2562,84.87541 1605.9021,92.718455 1607.056,96.138605 1608,99.401105 1608,99.968455 1608,101.68673 1604.1246,101.1246 1602.1148,99.114802 z M 1603.9286,40.75 C 1602.1602,34.206386 1606.0235,20 1609.5714,20 1610.814,20 1610.9725,20.328179 1610.1871,21.274519 1607.6046,24.386252 1605.7706,32.552784 1606.2665,38.731683 1606.8442,45.928002 1605.6147,46.989381 1603.9286,40.75 z"/>
</svg>
