<?xml version="1.0" encoding="UTF-8"?>
<svg xmlns="http://www.w3.org/2000/svg" viewBox="278.38 10.78 54.08 92.94">
  <path d="M 283.38707,96.467987 C 281.22296,93.165136 281.9928,83.54493 284.86168,78.040874 286.62295,74.6618 286.82919,72.944909 286.3315,65.805133 285.99697,61.006146 286.20716,55.865341 286.82938,53.627925 287.79007,50.173441 287.64164,49.366517 285.4531,46.145791 280.83478,39.349323 283.17665,24.536089 289.8004,18.647379 293.53634,15.326017 294.32423,16.846784 294.41536,27.555121 294.49337,36.721233 294.65662,37.518729 296.5,37.739166 299.4549,38.092522 302.41857,35.094779 305.86597,28.265505 309.03657,21.98459 316.1992,15 319.46962,15 320.82301,15 321.08324,15.523385 320.58831,17.25 317.2438,28.917765 316.81762,31.771692 317.45453,38.235375 317.82485,41.993451 318.6011,46.425858 319.17953,48.085167 319.75797,49.744476 319.97519,51.358139 319.66225,51.671085 318.35195,52.981382 311.86309,50.709241 309.14071,47.986863 305.8352,44.681354 305.25144,44.983696 302.60441,51.372124 300.62256,56.155165 300.51725,66.175258 302.41072,69.79966 303.18662,71.284847 305.25393,73.85 307.00475,75.5 L 310.18805,78.5 311.84402,76.138895 C 315.25625,71.273709 322.32259,64 323.63684,64 325.4485,64 325.35741,65.524886 323.36401,68.567197 320.74966,72.557201 322.02479,81.415392 326.39942,89.653824 328.37974,93.383224 330,97.011777 330,97.717275 330,99.488512 321.67026,99.400929 318.20034,97.593209 316.71515,96.819473 314.0759,94.569473 312.33533,92.593209 310.57586,90.595475 308.22997,89 307.05209,89 305.88687,89 302.64947,87.84259 299.85787,86.427978 L 294.78223,83.855956 292.57251,85.931884 C 291.35716,87.073644 289.58316,90.481054 288.63029,93.503906 287.67742,96.526758 286.48117,99 285.97195,99 285.46274,99 284.29954,97.860594 283.38707,96.467987 z M 286.98469,90.928139 C 286.99311,90.063616 288.30132,87.610989 289.89182,85.477857 292.58061,81.871743 292.67785,81.437971 291.27681,79.299718 289.19558,76.123359 288.35192,76.389859 286.02032,80.960162 283.95927,85.000158 283.53675,88.667877 284.65239,92.834535 285.11926,94.578191 285.49159,94.831294 286.12342,93.834535 286.5887,93.100541 286.97627,91.792663 286.98469,90.928139 z M 292.48226,40.168213 C 292.21702,39.435729 292,35.062353 292,30.449597 292,20.672161 290.72717,20.042338 287.00932,27.980105 284.34243,33.674029 284.59725,40.792497 287.5862,44.095248 289.40886,46.109269 289.40898,46.10926 291.18672,43.804669 292.16451,42.537101 292.7475,40.900696 292.48226,40.168213 z M 325.45337,93.75 C 325.07859,92.5125 323.86919,90.009389 322.76581,88.187532 321.55611,86.190128 320.55452,82.319334 320.24292,78.437532 319.95871,74.896889 319.3912,72 318.98178,72 318.00983,72 313,78.574453 313,79.849945 313,83.35365 306.54962,80.72044 302.66887,75.632514 298.61566,70.318484 297.59221,63.827795 299.423,55.04729 300.7917,48.482963 304.72193,40.999942 306.80089,41.000029 307.1854,41.000046 308.75668,42.575046 310.29263,44.500029 314.89378,50.266595 315.52171,49.333903 315.51025,36.75 315.50461,30.5625 315.84607,24.2625 316.26905,22.75 318.19864,15.850125 311.07553,22.72534 306.94455,31.75 305.34147,35.252133 303.44241,38 302.62516,38 301.82299,38 301.01667,38.353755 300.83333,38.786122 300.65,39.218489 299.02507,40.607985 297.22237,41.87389 295.41967,43.139796 292.73101,46.498541 291.24757,49.337768 287.65208,56.219313 287.4042,67.34299 290.70733,73.581085 293.79202,79.406649 303.02834,86 308.10441,86 309.44615,86 311.6773,87.599556 313.80847,90.089338 317.48107,94.379955 319.96529,95.831249 323.81739,95.936614 325.76516,95.98989 326.02609,95.64113 325.45337,93.75 z"/>
</svg>
