<?xml version="1.0" encoding="UTF-8"?>
<svg xmlns="http://www.w3.org/2000/svg" viewBox="1521.43 20.4 66.07 69.38">
  <path d="M 1554.9375 23.78125 L 1549.4688 27.65625 C 1539.7575 34.4905 1540.0572 34.421747 1536.2188 29.9375 C 1532.0982 25.123517 1529.6262 24.942732 1527 29.25 C 1524.8212 32.823618 1524.4311 37.072785 1526.0312 40.0625 C 1527.3339 42.496485 1528.5998 42.49764 1533.4375 40.03125 C 1537.0843 38.172002 1537.3918 38.157544 1538.625 39.78125 C 1539.345 40.729108 1539.9438 42.175 1539.9688 43 C 1539.9935 43.825 1541.3647 48.325 1543 53 C 1545.5337 60.243407 1545.9705 62.978345 1545.9688 71.5 C 1545.9674 78.576405 1545.7661 81.963655 1544.75 83 L 1546.2812 86.625 C 1547.3629 84.401224 1548.247 79.550909 1548.5938 73.125 C 1549.0739 64.223608 1548.8927 62.832015 1546 54.5 C 1544.2814 49.55 1542.3692 43.549386 1541.75 41.15625 C 1540.4944 36.303143 1540.3161 36.552208 1549.875 29.9375 C 1553.991 27.089288 1554.3716 26.992237 1556.625 28.46875 C 1557.9385 29.329358 1558.9963 30.381429 1559 30.78125 C 1559.0053 31.343192 1562.8627 34.2005 1566.8125 36.59375 C 1566.987 36.69947 1565.9576 39.091637 1564.5312 41.90625 C 1563.1051 44.720863 1561.3185 50.753674 1560.5625 55.28125 C 1558.8284 65.665773 1557.9021 82.729594 1558.9375 84.78125 L 1560.9062 81.78125 C 1560.1992 81.315136 1560.0907 79.523844 1560.4688 74.25 C 1562.1187 51.234289 1564.9146 40.57278 1569.5625 39.40625 C 1570.7665 39.104041 1574.0269 39.516504 1576.8125 40.34375 C 1581.2575 41.663779 1582.027 41.691542 1583.0938 40.40625 C 1584.2915 38.963094 1584.4961 29.255684 1583.4062 25.75 C 1582.724 23.555581 1580.587 24.561993 1573.75 30.3125 C 1568.2216 34.962384 1567.4336 34.828716 1559.7188 28 L 1554.9375 23.78125 z M 1580.7812 28.84375 C 1581.6613 29.315428 1581.9869 31.05825 1582 34.25 C 1582.012 37.19452 1581.6241 37.977066 1580.25 37.90625 C 1577.3959 37.759162 1572.0118 35.997392 1572.0312 35.21875 C 1572.0412 34.821976 1573.8784 32.959758 1576.125 31.09375 C 1578.4556 29.158031 1579.9012 28.372072 1580.7812 28.84375 z M 1531.125 29 C 1532.4973 29 1537 33.669351 1537 35.09375 C 1537 35.643477 1535.4387 36.765564 1533.5312 37.5625 C 1529.0482 39.435664 1528.2749 39.363209 1527.0938 37.15625 C 1526.0053 35.122423 1529.0338 29 1531.125 29 z "/>
</svg>
