<?xml version="1.0" encoding="UTF-8"?>
<svg xmlns="http://www.w3.org/2000/svg" viewBox="1428.72 17.17 24.24 86.58">
  <path d="M 1433.1562 50.0625 L 1433.3438 50.65625 L 1433.5312 53.6875 C 1434.1584 53.731484 1434.4389 54.027354 1434.6562 54.59375 C 1435.1303 55.829203 1434.9753 56.793077 1433.7812 57.96875 L 1434 61.90625 L 1434 62 L 1434 68.71875 C 1433.9952 72.455401 1433.6905 77.8625 1433.3438 80.75 C 1432.9632 83.918068 1432.7214 85.095524 1431.875 85.59375 L 1431.5625 89.375 C 1432.0442 89.756462 1431.9452 90.524137 1431.625 92.125 C 1431.3053 93.723732 1431.0668 95.231143 1431.0312 95.84375 L 1430.7188 99.8125 C 1432.6515 99.784014 1434.4816 99.251999 1436.4062 98.0625 C 1439.4438 96.185153 1439.7485 96.175634 1444.3125 97.8125 C 1448.2159 99.212435 1449.225 99.256017 1449.9062 98.15625 C 1450.958 96.458666 1450.0556 22.799091 1448.9688 21.625 C 1448.52 21.140256 1446.843 21.696142 1445.1875 22.875 C 1441.4984 25.501848 1440.7661 25.507406 1438.4688 22.96875 C 1437.4612 21.855368 1436.2118 21.106473 1435.6875 21.28125 C 1435.1518 21.4598 1434.6922 27.687384 1434.625 35.5 L 1434.5 49.40625 L 1433.1562 50.0625 z M 1445.375 26.9375 C 1447.1709 27.016725 1447.2188 33.752196 1447.375 60.75 C 1447.5595 92.622688 1447.4531 95 1445.8438 95 C 1444.8926 95 1443.8094 94.508044 1443.4375 93.90625 C 1443.0656 93.304457 1441.798 93.025185 1440.625 93.28125 C 1439.452 93.537316 1437.6609 94.098515 1436.625 94.53125 C 1434.858 95.269395 1434.7583 94.91825 1435.375 88.90625 C 1436.7619 75.387364 1437.8135 53.993895 1437.6562 42.15625 C 1437.4849 29.26839 1437.9959 26.589609 1440.1562 28.75 C 1441.1269 29.720649 1441.7016 29.675116 1442.9375 28.5625 C 1443.996 27.609675 1444.7764 26.911092 1445.375 26.9375 z "/>
</svg>
