<?xml version="1.0" encoding="UTF-8"?>
<svg xmlns="http://www.w3.org/2000/svg" viewBox="1367.81 10.57 69.34 93.58">
  <path d="M 1433.1562,50.0625 1431,51.125 C 1412.4229,60.360424 1412.9015,60.200303 1410.625,58.3125 1407.0004,55.306666 1404.4306,52.584454 1402.5938,49.78125 1400.8652,47.142974 1400.8641,47.018149 1403.25,44.78125 1406.3333,41.890627 1412,31.76166 1412,29.125 1412,25.858604 1410.3036,25.726527 1405.4688,28.6875 1396.101,34.424511 1394.6388,34.996381 1393.0312,33.4375 1391.5507,32.001603 1391.6197,31.477808 1394.7188,20.75 1396.4297,14.827209 1378.0255,25.190027 1374.4062,32.1875 1370.9639,38.843052 1374.3307,44.973299 1381.4375,45 1386.7399,45.019922 1388.3438,46.144596 1388.3438,49.8125 1388.3438,51.976766 1387.1981,53.991806 1384.2188,57.03125 1377.7288,63.652062 1374.3506,76.425843 1376.4062,86.6875 1377.3396,91.346362 1378.2134,92.847291 1381.375,95.40625 1386.9302,99.902388 1393.0069,99.700074 1402.9375,94.71875 1411.5581,90.394526 1412.2413,90.332548 1416.0312,93.03125 1417.5901,94.141201 1420.8114,96.141576 1423.1875,97.5 1426.0204,99.11957 1428.4276,99.84627 1430.7188,99.8125 L 1431.0312,95.84375 C 1431.0286,95.889739 1431,96.091395 1431,96.125 1431,97.247242 1428.6748,97.272155 1427.4375,96.15625 1426.915,95.685001 1424.475,94.236309 1422,92.9375 1419.525,91.638691 1416.7288,89.932927 1415.7812,89.15625 1413.5198,87.302674 1410.277,88.007256 1400.75,92.46875 1394.4822,95.403993 1392.3421,95.982407 1389.4375,95.4375 1381.503,93.948976 1377.1939,86.537716 1378.375,76.46875 1379.1529,69.836289 1381.7749,62.291114 1383.8438,60.75 1387.5447,57.993074 1391,52.725353 1391,49.84375 1391,44.507152 1389.4642,43 1384.125,43 1380.3164,43 1378.8551,42.505998 1377,40.53125 1374.7047,38.08803 1374.7137,37.972132 1376.4062,34.21875 1377.6015,31.568281 1380.0899,29.064198 1384.5625,26.03125 1388.1039,23.629697 1391.2412,21.897403 1391.5312,22.1875 1391.8214,22.477597 1391.5966,23.950417 1391.0312,25.4375 1389.5744,29.269488 1389.7679,35.541272 1391.375,36.875 1392.9692,38.198066 1397.852,36.432549 1404.125,32.28125 1406.2739,30.859153 1408.3184,29.974649 1408.6562,30.3125 1409.7424,31.398688 1406.9081,36.750775 1402.9062,41.1875 1400.7662,43.560079 1399.0078,46.348687 1399,47.375 1398.9797,50.054072 1405.4902,58.529168 1409.4375,60.96875 L 1412.8125,63.03125 1417.5625,60.53125 C 1420.1698,59.144965 1422.8323,57.554101 1423.5,57 1424.1676,56.4459 1426.8198,55.340943 1429.4062,54.5625 1431.592,53.904699 1432.8001,53.636223 1433.5312,53.6875 L 1433.3438,50.65625 1433.1562,50.0625 z M 1433.7812,57.96875 C 1432.3833,59.345133 1429.5381,61.01151 1424.0625,63.875 1412.7174,69.807934 1411.5981,69.855104 1405.4062,64.90625 1400.8702,61.280727 1397.5824,59.842606 1395.625,60.59375 1393.6652,61.345798 1389.4682,69.57107 1387.9688,75.59375 1386.8309,80.16408 1386.8911,81.106142 1388.5938,84.59375 1390.2512,87.988564 1390.9153,88.469112 1393.7188,88.34375 1395.488,88.264635 1399.249,86.793705 1402.0625,85.0625 1409.0075,80.789239 1412.4771,80.172226 1415.2812,82.75 1419.4505,86.582853 1424.4946,88.996257 1428.375,89 1430.196,89.001757 1431.1206,89.025055 1431.5625,89.375 L 1431.875,85.59375 C 1431.3292,85.915011 1430.5778,86 1429.2188,86 1425.7302,86 1420.4553,83.417796 1416.2812,79.6875 1413.3049,77.027761 1409.0744,77.820221 1401.4688,82.40625 1398.1899,84.383282 1394.7243,85.998586 1393.7812,86 1388.0126,86.008648 1389.4636,71.273 1395.7812,65.65625 1398.1574,63.543729 1400.1462,64.261295 1405.7812,69.15625 1407.613,70.74738 1410.2434,72 1411.7188,72 1413.1739,72 1418.7868,69.742901 1424.1875,66.96875 L 1434,61.90625 1433.7812,57.96875 z"/>
</svg>
