<?xml version="1.0" encoding="UTF-8"?>
<svg xmlns="http://www.w3.org/2000/svg" viewBox="587.86 12.92 90.21 90.85">
  <path d="M 673.96875,48.21875 C 673.68916,48.48855 673.51218,48.780544 673.1875,49.03125 666.83036,53.939952 658.35551,58.9978 656.46875,59 655.34458,59.00131 652.70972,57.2 650.625,55 648.54029,52.8 646.21827,51 645.46875,51 644.71924,51 641.97935,52.146501 639.375,53.53125 636.34928,55.140039 634.30101,55.67601 633.6875,55.0625 632.34317,53.718175 632.63898,42.562018 634.09375,39.84375 638.16523,32.236134 646.13029,32.178966 648.4375,39.75 648.81461,40.9875 649.5672,42 650.09375,42 653.72947,42 653.80896,24.340213 650.1875,20.71875 648.28036,18.811609 647.75917,18.749928 643.8125,19.90625 641.44794,20.599033 637.61044,22.266368 635.3125,23.59375 633.01456,24.921131 630.615,26 629.96875,26 629.3225,26 626.52045,23.959619 623.75,21.46875 619.12731,17.312553 618.56115,17.044846 616.625,18.3125 613.01416,20.676614 610,26.029625 610,30.09375 610,35.317811 613.47229,40.950708 617.15625,41.6875 618.75499,42.007248 620.45947,42.981801 620.9375,43.875 621.96071,45.786887 621.11692,54.806884 619.84375,55.59375 619.36069,55.892295 616.25456,54.483757 612.9375,52.46875 608.87037,49.9981 606.20779,48.996553 604.71875,49.375 602.18243,50.019617 597.8629,56.680706 595.46875,63.6875 593.81955,68.514084 591.9588,82.738288 592.5625,85.84375 593.73548,91.877558 594.18481,93.115479 595.1875,92.78125 595.8075,92.574584 597.1122,89.257405 598.0625,85.4375 601.90906,69.975524 606.97037,61.240821 610.75,63.59375 614.32053,65.816508 618.89131,73.024183 619.5625,77.5 620.17184,81.563319 619.92577,82.314434 617.15625,85.46875 613.64173,89.471565 612.1248,95.240525 614,97.5 615.774,99.637548 616.84103,99.381692 620,96 621.67409,94.207877 623.81315,93 625.3125,93 626.87364,93 628.77362,94.134014 630.34375,96 631.73213,97.65 633.55622,99 634.40625,99 637.62878,99 637.61593,89.383786 634.375,84.4375 633.03886,82.398297 633.06033,81.790538 634.59375,78.8125 637.29228,73.571715 643.05922,67 644.96875,67 645.92574,67 648.38008,68.125 650.40625,69.5 652.43243,70.875 654.80192,72 655.65625,72 656.51058,72 660.69849,69.540578 664.96875,66.53125 669.1891,63.557092 672.88677,61.42998 673.3125,61.71875 L 673.34375,61.34375 673.625,55.125 C 672.81228,56.663575 670.41707,59.050583 665.90625,62.75 657.74833,69.440482 655.91555,69.941061 651.9375,66.59375 648.34669,63.572281 644.07072,63.24084 641.25,65.75 638.46341,68.228795 632.52794,75.967474 630.75,79.4375 629.35173,82.166499 629.41646,82.690065 631.625,86.84375 632.9308,89.299634 634,92.17494 634,93.25 634,94.965265 633.57326,94.811922 630.40625,92.03125 628.35141,90.227077 626.15105,89.115719 625.3125,89.4375 624.50248,89.748338 623.46282,90 623,90 622.53718,90 620.75469,91.169858 619.0625,92.59375 616.31765,94.903384 616,94.977246 616,93.3125 616,91.313953 620.7253,85.601982 623,84.84375 624.14081,84.46348 624.07188,83.299277 622.59375,78.03125 620.53693,70.700807 615.0871,61.90963 611.34375,59.90625 608.89976,58.598266 608.57913,58.724117 605.53125,62.25 603.76129,64.297543 601.07257,69.029995 599.5625,72.75 594.84421,84.373352 595.13744,83.910035 595.0625,79.8125 594.9125,71.610548 601.19817,53.620231 604.6875,52.28125 605.38516,52.013533 608.89784,53.651012 612.46875,55.90625 616.03967,58.161487 619.39337,60 619.9375,60 621.95573,60 623.18706,55.585176 623.34375,47.71875 L 623.5,39.625 620.03125,38.875 C 614.76033,37.770881 612.64326,34.57078 613.34375,28.65625 614.37926,19.913043 617.45006,18.804296 623.5,25 625.64824,27.2 628.08662,28.979038 628.9375,28.96875 629.78838,28.958462 633.59629,27.383462 637.375,25.46875 646.10491,21.045225 648.45822,21.002423 649.90625,25.15625 651.21584,28.912919 651.34785,33.669803 650.15625,34.40625 649.6862,34.696758 648.24457,33.826798 646.96875,32.46875 643.50011,28.776555 639.75671,29.225716 634.71875,33.9375 L 630.5,37.875 630.78125,48.15625 C 630.92901,53.810277 631.43383,58.808827 631.90625,59.28125 632.38486,59.75985 635.18025,58.777325 638.21875,57.0625 641.21804,55.36981 644.22297,54 644.90625,54 645.58952,54 647.77502,55.8 649.75,58 654.23511,62.996113 657.94909,63.327328 663.03125,59.15625 667.26324,55.682924 672.74792,52.771959 673.71875,53.46875 L 673.96875,48.21875 z M 619.375,25.9375 C 618.52378,26.089901 617.68854,26.709355 617.03125,27.9375 615.57928,30.650529 615.73567,32.610668 617.5625,34.4375 619.89523,36.770232 621.92944,36.343622 623.09375,33.28125 624.63815,29.21918 621.92865,25.480296 619.375,25.9375 z M 620,30 C 620.55,30 621,30.675 621,31.5 621,32.325 620.55,33 620,33 619.45,33 619,32.325 619,31.5 619,30.675 619.45,30 620,30 z"/>
</svg>
