<?xml version="1.0" encoding="UTF-8"?>
<svg xmlns="http://www.w3.org/2000/svg" viewBox="249.81 11.51 17.75 90.61">
  <path d="M 251.94815,81.25 C 251.81245,37.408151 251.98477,19.623352 252.56291,17.801776 253.03546,16.312905 253.73076,15.982985 255.3464,16.481013 258.32529,17.399267 259.17911,17.417754 261.66189,16.617757 264.73607,15.627199 264.89015,17.129401 265.03464,49.5 265.10338,64.9 265.23621,81.325 265.32981,86 265.56368,97.680534 265.36938,98 258.03138,98 L 252,98 251.94815,81.25 z M 262.5,57.250192 262.5,20.000384 258.33459,20.000192 254.16918,20 254.1467,55.75 C 254.13434,75.4125 254.35949,92.312386 254.64705,93.305301 255.05158,94.702127 255.99915,95.041524 258.83494,94.805301 L 262.5,94.5 262.5,57.250192 z"/>
</svg>
