<?xml version="1.0" encoding="UTF-8"?>
<svg xmlns="http://www.w3.org/2000/svg" viewBox="1459.58 17.23 29.24 85.66">
  <path d="M 1473.9518,93.716849 C 1469.8189,89.711757 1467.8347,86.734304 1465.75,81.408856 1464.2375,77.545192 1463,73.593027 1463,72.626265 1463,71.659504 1462.6016,70.110601 1462.1148,69.184259 1461.6128,68.229216 1461.5838,63.366302 1462.0478,57.952459 1463.128,45.347226 1467.743,34.72496 1475.1697,27.75 1481.7296,21.589145 1486.8254,21.12444 1482.1313,27.115141 1479.4663,30.516374 1475.7956,45.993369 1475.2375,56.181898 1474.6842,66.281735 1477.4828,80.242492 1482.1858,90.843217 1483.7336,94.331987 1485,97.594487 1485,98.093217 1485,98.591948 1483.7408,99 1482.2018,99 1480.1786,99 1477.8937,97.536808 1473.9518,93.716849 z M 1480,93.467881 C 1480,93.175216 1479.2752,91.262716 1478.3894,89.217881 1476.5504,84.972678 1475.586,81.401021 1473.6052,71.5 1471.2,59.47735 1471.4206,56.172357 1476.0353,35.08412 1477.2531,29.518916 1476.4656,28.693096 1473.4906,32.415742 1471.1128,35.391257 1470.8315,35.904706 1466.9521,44.350614 1464.43,49.841595 1462.9158,64.715883 1464.3859,69.558076 1467.009,78.198 1471.9748,88.034875 1475.3363,91.25 1477.9951,93.793033 1480,94.746482 1480,93.467881 z"/>
</svg>
