<?xml version="1.0" encoding="UTF-8"?>
<svg xmlns="http://www.w3.org/2000/svg" viewBox="1640.24 15.07 64.7 86.48">
  <path d="M 1681.902,92.558521 C 1680.7473,90.601334 1679.445,89 1679.0082,89 1676.9359,89 1677.1926,85.559834 1679.4666,82.857313 1682.8463,78.840786 1686,71.431457 1686,67.50774 1686,65.726828 1685.0533,63.06615 1683.8962,61.595123 1681.3033,58.298863 1681.7835,55.187303 1686.3027,46 1688.3864,41.763835 1690.4327,39.057666 1692.178,38.229956 1695.8995,36.465018 1700,31.324066 1700,28.423275 1700,25.259747 1698.8568,25.366802 1693.8413,29 1688.3329,32.990244 1685.9273,32.877313 1683.5798,28.518282 1681.3331,24.346434 1677.8675,21.8909 1674.0742,21.783046 1670.095,21.669909 1669,22.668658 1669,26.411134 1669,30.828251 1672.7148,36.095362 1677.3901,38.307349 1680.6997,39.873201 1681.1444,40.474488 1680.7179,42.807349 1680.2373,45.43667 1676.4483,55.885063 1675.7064,56.626926 1675.5011,56.832263 1673.4348,55.247804 1671.1147,53.105906 1663.745,46.302218 1654.6486,46.782384 1650.2064,54.209577 1647.9584,57.968131 1649.088,58.505909 1653.9841,56.008102 1661.238,52.307423 1665.3996,54.682877 1669.3343,64.770236 1672.5355,72.977056 1672.0277,74.048796 1662.8166,78.524045 1655.6421,82.009841 1654.0729,83.278534 1650.0883,88.815127 1644.6462,96.376953 1643.1807,95.158841 1648.474,87.473267 1652.6859,81.357698 1656.8254,77.900207 1662.2899,75.933435 1664.3743,75.183215 1666.7556,73.822515 1667.5818,72.909658 1668.9202,71.430642 1668.8965,70.773541 1667.3637,66.874959 1664.5379,59.687755 1663.0906,58 1659.753,58 1655.8098,58 1650.5274,61.329924 1647.5726,65.678282 1646.2743,67.588919 1644.9632,68.749539 1644.6591,68.257438 1643.8513,66.950321 1647.4145,53.823191 1649.3995,50.793747 1653.0057,45.290043 1663.2326,44.047385 1669.5564,48.344514 1671.7057,49.805031 1673.9628,51 1674.5721,51 1675.9801,51 1678.4774,43.58152 1677.5659,42.106578 1677.1897,41.49796 1676.3218,41 1675.6371,41 1673.8044,41 1668.5108,34.997128 1667.0338,31.244009 1665.691,27.832009 1666.2109,22.655756 1668.1284,20.345308 1668.7791,19.561229 1671.241,19 1674.0298,19 1678.5056,19 1679.105,19.322975 1683.3101,24 1685.7826,26.75 1688.1265,29 1688.5188,29 1688.9111,29 1691.4386,27.380226 1694.1355,25.400502 1700.1603,20.977926 1702.0013,21.403742 1701.9963,27.218615 1701.9916,32.531192 1699.1636,37.380886 1694.4479,40.163228 1690.8933,42.260513 1688.3066,46.297346 1686.053,53.264315 1684.984,56.569449 1685.0894,57.553328 1686.9177,61.330039 1689.7906,67.264519 1689.5582,69.328387 1684.9931,78.425786 L 1681.016,86.351572 1683.5136,90.613335 C 1685.0237,93.19021 1685.6139,95.1206 1685.0064,95.49607 1684.4537,95.837605 1683.0568,94.515707 1681.902,92.558521 z M 1652,95.232824 C 1652,93.743053 1661.1747,84 1662.5775,84 1664.8523,84 1664.3144,84.939886 1658.7824,90.631707 1653.8368,95.720055 1652,96.966132 1652,95.232824 z M 1659.3743,95.533127 C 1658.149,92.33991 1667.968,86.703281 1671.3143,88.678934 1674.2047,90.385366 1679,94.912928 1679,95.93544 1679,97.592415 1677.6765,97.212466 1674,94.5 1672.1363,93.125 1669.6523,92 1668.48,92 1667.3078,92 1665.2917,93.125 1664,94.5 1661.3109,97.36238 1660.1738,97.616366 1659.3743,95.533127 z"/>
</svg>
