<?xml version="1.0" encoding="UTF-8"?>
<svg xmlns="http://www.w3.org/2000/svg" viewBox="686.42 13.32 33.49 90.13">
  <path d="M 702.64181,97.1567 C 699.91408,94.142596 697.1551,84.497313 695.98878,73.898029 694.97301,64.666862 695.06042,59.647322 696.53555,42.5 697.03198,36.729375 696.88211,36.236182 692.61517,29.599032 690.17508,25.8035 688.41599,22.079514 688.7061,21.323509 689.48872,19.284042 691.6759,21.4269 694.5,27 695.78919,29.544095 697.57844,32.235176 698.47612,32.980178 700.14482,34.36508 700.13852,36.464761 698.40709,55.994534 697.7621,63.269724 700.80886,87.840588 702.73583,90.904089 704.1237,93.110518 704.32914,93.16324 705.23456,91.545344 708.80825,85.159525 711.55707,54.24079 709.51319,43.419349 L 708.20632,36.5 711.61662,29.199305 C 715.72848,20.396753 717.90318,20.44687 714.27372,29.260539 712.62583,33.262212 711.847,36.755278 712.10216,39 712.32097,40.925 712.43861,49.925 712.36358,59 712.22754,75.454664 710.65412,87.105361 707.57169,94.48266 705.79642,98.731493 704.6364,99.3607 702.64181,97.1567 z M 700.5,28.222877 C 698.07338,24.929619 696,21.088256 696,19.885693 696,17.881853 697.89565,19.243931 700.42392,23.064398 701.90325,25.299817 703.60999,26.963336 704.21668,26.761106 704.82337,26.558876 706.12991,24.8828 707.12009,23.036492 709.28699,18.996075 710.75379,17.420455 711.57953,18.2462 712.66829,19.33496 705.81904,31.001906 704.11067,30.968575 703.2248,30.951291 701.6,29.715727 700.5,28.222877 z"/>
</svg>
