<?xml version="1.0" encoding="UTF-8"?>
<svg xmlns="http://www.w3.org/2000/svg" viewBox="548.3 16.79 36.29 82.11">
  <path d="M 582.59375 29.4375 C 576.57428 21.867703 574.39766 20.51811 570.5 22 C 568.51132 22.756095 566.79598 25.257409 563.46875 32.28125 C 560.63834 38.256312 557.98729 42.366338 556.03125 43.8125 C 552.33842 46.54273 551.5629 50.123151 555.21875 47.5625 C 558.45178 45.297997 559 45.596315 559 49.625 C 559 52.219025 558.15094 54.206463 556 56.65625 C 552.55709 60.577507 551.64015 64.555468 554.84375 61.65625 C 557.60388 59.15837 558 59.578385 558 64.84375 C 558 68.954972 557.55107 70.070736 555 72.34375 C 550.52949 76.326997 551.12903 78.696043 555.78125 75.4375 C 557.98274 73.895522 558 73.94381 558 78.5625 C 558 82.234986 557.36284 84.016669 555 87 C 550.30049 92.933609 551.12401 95.162326 556.21875 90.28125 L 559.0625 87.5625 L 561.375 90.4375 C 564.37463 94.199395 566.16576 92.05775 563.28125 88.15625 C 561.07067 85.166275 559.24988 76 560.875 76 C 561.43137 76 562.30325 76.746279 562.8125 77.65625 C 563.41475 78.732419 564.36762 79.071526 565.53125 78.625 C 567.12365 78.01394 566.97365 77.563073 564.15625 74.65625 C 561.51441 71.930561 561 70.612416 561 66.6875 C 561 61.527246 561.32172 61.196685 563.8125 63.6875 C 565.38393 65.258955 565.53541 65.231796 565.875 63.46875 C 566.08963 62.354439 565.17095 60.67352 563.625 59.34375 C 560.98056 57.069102 560.53642 55.311582 561.625 51.25 C 562.10088 49.474431 562.73415 49.150426 564.625 49.625 C 567.64366 50.382634 567.84812 48.077515 565 45.5 C 562.18277 42.950441 562.4989 39.472449 566.21875 32.21875 C 568.39241 27.980129 570.17926 25.730136 571.71875 25.34375 C 574.34202 24.685351 578.24601 26.903721 580.5 30.34375 C 580.78934 30.78534 580.97053 31.161471 581.125 31.5625 L 582.59375 29.4375 z "/>
</svg>
