<?xml version="1.0" encoding="UTF-8"?>
<svg xmlns="http://www.w3.org/2000/svg" viewBox="1394.19 16.79 26.32 92.66">
  <path d="M 1396.1875 31.1875 L 1398.5 34.5625 C 1401.3216 30.453259 1407.3187 24 1408.7812 24 C 1411.3656 24 1412.1538 27.286661 1412.125 37.84375 C 1412.0872 51.717816 1411.6434 53.312264 1407.0625 56.34375 C 1404.9979 57.709997 1402.5168 60.457708 1401.5625 62.46875 C 1400.0455 65.665595 1399.9834 66.969696 1401 72.8125 C 1402.0919 79.086968 1402.0198 79.922251 1399.5938 86.28125 C 1396.7024 93.859361 1396.2816 99.659189 1398.4375 102.5625 C 1400.4255 105.23969 1403.1664 103.45815 1404.5312 98.59375 C 1405.1024 96.558592 1407.6374 92.318015 1410.1562 89.1875 C 1417.4721 80.095099 1418.4202 77.692721 1418.4688 67.84375 C 1418.5065 60.196775 1418.2361 58.896514 1416.25 56.78125 C 1414.0788 54.468713 1414.003 53.894477 1414.5625 40.9375 C 1415.0987 28.519507 1415.0018 27.254156 1413.0938 24.25 C 1411.9585 22.4625 1410.3114 21 1409.4375 21 C 1408.5635 21 1405.2651 23.475 1402.0938 26.5 C 1399.7153 28.76875 1397.6062 30.349609 1396.1875 31.1875 z M 1412.5312 58 C 1415.0131 58.39826 1416.2652 62.164088 1415.7812 68.90625 C 1415.2758 75.948457 1412.7256 82.172046 1408.9688 85.5 C 1407.727 86.6 1405.4106 89.49232 1403.8438 91.9375 C 1401.5161 95.569977 1401 95.984 1401 94.125 C 1401 92.873626 1402.1631 88.919662 1403.5938 85.34375 C 1405.3876 80.859698 1405.9804 77.99693 1405.5 76.15625 C 1405.1168 74.688357 1404.5874 71.383656 1404.3125 68.78125 C 1403.8628 64.523755 1404.0966 63.747137 1406.8125 61.03125 C 1409.0974 58.746382 1411.0422 57.761044 1412.5312 58 z "/>
</svg>
