<?xml version="1.0" encoding="UTF-8"?>
<svg xmlns="http://www.w3.org/2000/svg" viewBox="1284.63 11.66 41.91 93.91">
  <path d="M 1294.6667,100.33333 C 1293.3008,98.967468 1294.0762,95.352155 1296.5,91.785188 1299.4722,87.411166 1299.4207,87.984735 1297.2847,83.054389 1295.8158,79.663937 1295.0726,79.05231 1292.112,78.797529 1287.6629,78.414655 1286.6311,76 1290.9167,76 1293.7525,76 1294,75.728903 1294,72.622445 1294,70.764789 1293.325,68.684689 1292.5,68 1290.3405,66.207767 1290.565,63.727155 1292.8219,64.44346 1294.0576,64.835658 1295.988,63.780689 1298.8219,61.164458 1302.6795,57.603149 1303,56.914533 1303,52.188794 1303,47.89121 1302.6392,46.884315 1300.75,45.910221 1299.5125,45.27214 1297.5463,43.883119 1296.3807,42.823508 1295.2151,41.763896 1292.9651,40.503769 1291.3807,40.023224 1288.6181,39.18533 1288.5916,39.121332 1290.734,38.462294 1293.7813,37.524923 1295.5794,31.29776 1293.4745,28.971789 1291.9522,27.289717 1291.4892,25 1292.6713,25 1293.0405,25 1294.1702,25.749012 1295.1817,26.66447 1296.9076,28.226399 1297.1743,28.184857 1299.5105,25.990156 1301.1778,24.423783 1302,22.572516 1302,20.384703 1302,18.588035 1302.4028,16.869061 1302.8952,16.564761 1303.9187,15.9322 1305,18.252708 1305,21.081787 1305,23.672763 1309.6438,23.625288 1313,21 1316.9942,17.87569 1318.9715,18.629402 1315.3736,21.90478 1313.6541,23.470164 1311.6291,24.966228 1310.8736,25.229367 1309.791,25.606454 1309.9035,26.16241 1311.405,27.853901 1312.8584,29.491276 1314.4585,30 1318.155,30 1324.0153,30 1324.5437,31.563395 1319,32.5 1315.5057,33.090365 1314.9995,33.512325 1314.9963,35.837898 1314.9909,39.66619 1311.3865,45.027848 1307.945,46.326865 1305.112,47.396195 1305.0092,47.648829 1305.4743,52.39558 1305.8239,55.962804 1306.7036,58.124973 1308.6186,60.123798 L 1311.2775,62.89908 1315.0989,60.94954 C 1319.4786,58.71521 1320,58.615907 1320,60.016179 1320,60.575077 1318.4113,61.789937 1316.4696,62.715869 1314.2188,63.78924 1313.133,64.904309 1313.4739,65.792591 1313.7679,66.558857 1314.2706,68.23 1314.5909,69.506243 1314.9293,70.854313 1316.1846,72.080504 1317.5867,72.432394 1320.744,73.224824 1320.6972,75 1317.5191,75 1315.6226,75 1314.8987,75.647928 1314.4465,77.75 1314.1212,79.2625 1313.1554,82.162763 1312.3004,84.195028 1311.338,86.48246 1311.0057,88.958593 1311.428,90.695028 1313.0703,97.448576 1313.0148,97.529469 1306.9695,97.183393 1302.5749,96.931808 1300.8995,97.291214 1298.8118,98.933393 1295.9183,101.20942 1295.6376,101.30424 1294.6667,100.33333 z M 1309.6855,41.825686 C 1313.4447,38.294167 1312.4815,31.699722 1307.633,27.772236 1304.399,25.152592 1302.8098,25.699414 1299.1717,30.683636 1296.7919,33.944169 1296.1507,35.550723 1296.9217,36.321738 1297.5148,36.914782 1298,38.105772 1298,38.968383 1298,40.807075 1302.647,43.935054 1305.4355,43.973391 1306.5001,43.988026 1308.4126,43.021559 1309.6855,41.825686 z M 1308.1008,89 C 1308.4312,86.525 1309.4437,82.826953 1310.3508,80.782119 1313.3399,74.043569 1312.1014,68.219938 1306.5826,63.06402 L 1303.9752,60.62804 1301.2496,62.662932 C 1297.1909,65.693203 1296.4437,71.096401 1299.0537,78.541422 1302.2247,87.586565 1302.3698,88.786632 1300.6162,91.462965 1299.7273,92.819633 1299,94.088219 1299,94.282045 1299,94.475872 1300.9125,94.379204 1303.25,94.067228 1307.4207,93.510587 1307.5112,93.416009 1308.1008,89 z"/>
</svg>
