<?xml version="1.0" encoding="UTF-8"?>
<svg xmlns="http://www.w3.org/2000/svg" viewBox="408.7 11.09 20.95 94.71">
  <path d="M 411.3045,98 C 411.63744,96.075 412.80268,89.449653 413.89394,83.277007 418.59605,56.679619 418.9144,38.408791 414.90209,25.418415 412.25422,16.845629 413.46591,15.397215 418.44424,21.184225 423.07393,26.565955 424.44615,29.787723 425.97878,38.87419 427.6527,48.798303 427.51645,57.935143 425.54007,68.294686 422.65097,83.438376 417.9233,95.10022 412.85187,99.592944 L 410.69916,101.5 411.3045,98 z M 419.10831,84.441686 C 421.88195,76.56282 425.00495,60.219872 424.98001,53.714542 424.95095,46.135283 422.60959,33.025073 420.59427,29.15707 418.12953,24.426493 417.50244,25.943175 419.00182,33.008561 420.52232,40.173509 419.76005,60.076283 417.3733,75.52888 416.52625,81.012996 415.59677,87.075 415.30781,89 414.53895,94.121845 416.54944,91.710465 419.10831,84.441686 z"/>
</svg>
