<?xml version="1.0" encoding="UTF-8"?>
<svg xmlns="http://www.w3.org/2000/svg" viewBox="1430 14.66 42.01 90.75">
  <path d="M 1446.434,100.23469 C 1445.8477,99.830609 1443.9732,97.449117 1442.2684,94.942483 1440.5636,92.435849 1438.4558,89.793249 1437.5844,89.070039 1434.9396,86.875085 1435.747,81.671161 1440,73.5 1442.2,69.273211 1444,65.117586 1444,64.265278 1444,63.41297 1441.9634,60.331721 1439.4741,57.418057 1434.2493,51.302345 1432,46.526962 1432,41.550255 1432,37.650089 1439.2396,21 1440.9354,21 1442.1852,21 1442.3749,23.650267 1441.178,24.389996 1440.7259,24.669412 1439.0966,28.107981 1437.5574,32.031259 1435.5003,37.274425 1434.8997,40.215284 1435.2906,43.130246 1435.8056,46.969303 1441.2836,56.136727 1445.1579,59.642876 1447.9145,62.137585 1447.4223,65.43919 1443,74.118504 1440.8,78.436249 1439,82.700985 1439,83.595694 1439,84.490404 1440.7342,87.30989 1442.8538,89.86122 1446.9184,94.753845 1449,98.165382 1449,99.934259 1449,101.16655 1447.9624,101.28804 1446.434,100.23469 z M 1439.0108,44.75 C 1439.0286,39.421992 1444.5967,23.985342 1447.047,22.470939 1449.093,21.206484 1448.6119,24.094951 1445.8479,29.671565 1443.93,33.5411 1442.6305,37.983561 1442.2774,41.877652 1441.8942,46.103503 1441.3006,48 1440.3611,48 1439.4899,48 1439.0039,46.830132 1439.0108,44.75 z M 1453.498,94.99689 C 1452.1082,92.79518 1449.9916,88.978012 1448.7947,86.514294 L 1446.6184,82.034807 1449.4194,74.267404 C 1454.64,59.790848 1454.6481,59.689234 1450.9598,55.099543 1445.1777,47.904583 1446.0703,38.309668 1453.6822,25.83406 1457.9814,18.787827 1459.5876,19.881795 1455.5762,27.124047 1454.2431,29.530821 1452.1981,34.357658 1451.0318,37.850352 1448.5588,45.255884 1449.3529,49.690782 1453.6571,52.51097 1456.1449,54.141019 1456.2993,54.102252 1459.4384,51.059724 1461.6057,48.959028 1463.2248,48.149019 1464.3744,48.59018 1466.4716,49.394957 1470.0056,56.08458 1469.9847,59.210162 1469.9568,63.378358 1468.6963,64.162362 1462.5732,63.819974 L 1456.8509,63.5 1453.3244,72.362642 1449.7978,81.225285 1451.6045,85.362642 C 1452.5981,87.638189 1454.4436,91.066961 1455.7056,92.982135 1456.9675,94.897308 1458,97.034808 1458,97.732135 1458,100.17699 1456.0016,98.962844 1453.498,94.99689 z M 1467,59.153638 C 1467,57.36064 1464.2441,51 1463.4672,51 1462.5269,51 1458,56.607324 1458,57.772006 1458,59.242814 1461.4123,60.842584 1464.75,60.936614 1466.2938,60.980105 1467,60.420498 1467,59.153638 z"/>
</svg>
