<?xml version="1.0" encoding="UTF-8"?>
<svg xmlns="http://www.w3.org/2000/svg" viewBox="270.96 14.82 36.31 92.04">
  <path d="M 274,99.490333 C 274,99.210016 276.40718,95.722516 279.34929,91.740333 282.2914,87.75815 285.45889,83.026034 286.38815,81.224519 288.34308,77.434589 288.22156,77.173902 280.68776,68.995273 273.11749,60.777059 273.17945,57.24731 281.04501,48.641131 L 286.09326,43.117544 283.49344,37.98705 C 282.06354,35.165278 279.34255,30.697587 277.44681,28.058848 273.823,23.014766 272.95536,19 275.48908,19 279.675,19 297.24619,37.695591 301.52805,46.705239 303.77239,51.42764 305.26105,60.773534 304.53748,65.598618 303.88548,69.946473 298.21927,81.552607 297.23107,80.564401 296.92616,80.259492 297.98535,77.645266 299.58482,74.755011 302.09546,70.218268 302.46939,68.543222 302.32057,62.5 302.1092,53.916611 300.58217,49.508142 294.63694,40.317769 290.10177,33.307111 280.84571,23.962862 280.23909,25.782734 280.06834,26.294993 281.69764,30.040938 283.85977,34.107057 294.82357,54.725695 295.5105,69.163671 286.27569,84.885442 283.88971,88.947435 282.16517,92.498508 282.44338,92.776714 283.15895,93.49228 291.77097,86.279179 293.6804,83.365012 295.8254,80.09134 296.52245,81.089011 294.63727,84.734545 292.02313,89.789743 274,102.6764 274,99.490333 z M 290.53518,68.564716 C 291.15163,63.630816 289.07744,48.744109 287.56246,47.229125 285.96936,45.636028 278,56.218744 278,59.927354 278,61.49098 279.11334,63.616466 280.75,65.177421 282.2625,66.619955 284.54673,69.195163 285.82606,70.900105 287.10539,72.605047 288.53551,74 289.0041,74 289.47269,74 290.16168,71.554122 290.53518,68.564716 z"/>
</svg>
