<?xml version="1.0" encoding="UTF-8"?>
<svg xmlns="http://www.w3.org/2000/svg" viewBox="4.76 6.31 49.12 97.96">
  <path d="M 26.5,97.805017 C 22.144036,95.334825 16.966941,89.160221 13.667512,82.5 8.0613508,71.183415 6.9957614,66.213816 7.0351292,51.568499 7.0746251,36.875559 8.4073981,29.148927 12.402213,20.453309 16.854816,10.761214 17.629711,13.655603 18.237999,42.251155 18.73222,65.484417 18.865739,66.793172 21.425981,73.5 25.12955,83.201897 26.600638,85.2841 28.887011,84.06047 35.143388,80.712159 43.97719,46.942267 43.994105,26.309017 43.999738,19.437598 45.094338,16.694338 47.050115,18.650115 47.531833,19.131833 48.193418,22.670123 48.520305,26.512983 51.649517,63.299802 48.530264,81.982372 37.346618,93.437074 31.813268,99.104534 30.046332,99.816081 26.5,97.805017 z M 36.430672,89.700842 C 40.644861,85.452852 42.129301,83.02288 43.914048,77.450842 46.094343,70.643888 47.807585,55.439759 47.514355,45.5 47.137327,32.719751 46.527158,31.919548 44.935191,42.117572 42.50683,57.67348 37.18783,75.473832 33.033223,81.948226 28.515681,88.988205 26.616182,89.14855 22.703004,82.820246 18.201499,75.540512 14.544418,50.058436 15.659236,33.740168 15.856133,30.858076 15.640715,27.15 15.180531,25.5 14.350209,22.522867 14.325725,22.545734 11.968386,28.5 9.8878384,33.755135 9.5668472,36.362163 9.3827532,49.5 9.1944211,62.940288 9.4192051,65.245056 11.544537,71.665323 15.485032,83.568891 24.173031,95 29.279618,95 30.321352,95 33.539326,92.615379 36.430672,89.700842 z"/>
</svg>
