<?xml version="1.0" encoding="UTF-8"?>
<svg xmlns="http://www.w3.org/2000/svg" viewBox="988.13 15.85 48.51 89.02">
  <path d="M 1010.5044,99.282313 C 1005.9518,98.087908 1000.5838,91.935265 998.04355,85 997.33846,83.075 996.10788,79.712231 995.30893,77.527179 994.50999,75.342128 993.20025,67.692128 992.3984,60.527179 990.33946,42.129533 991.90329,25.207473 996.00549,21.495029 997.77093,19.897331 997.8773,20.035027 998.45217,24.662358 1001.6437,50.351762 1003.0674,58.143898 1008.0188,77.0192 1009.4681,82.544018 1011.2506,84.471457 1013.6988,83.161189 1018.4822,80.601177 1022.2153,65.74816 1024.044,42 1025.1548,27.575226 1026.4902,22 1028.8347,22 1029.2684,22 1030.4428,26.484192 1031.4443,31.964872 1034.4425,48.371563 1032.0129,73.869154 1026.2956,86 1021.2255,96.757384 1016.3884,100.82602 1010.5044,99.282313 z M 1017.47,93.620859 C 1022.0267,89.064185 1026.0438,79.35915 1027.5984,69.15116 1029.099,59.297734 1029.8158,35.482419 1028.6468,34.313501 1027.3727,33.039402 1027.0246,34.782739 1026.4991,45.067268 1025.4563,65.477833 1022.0071,78.870947 1016.1506,85.25 1009.8085,92.157951 1005.7929,86.27369 1001.1301,63.239833 998.58932,50.688173 997.72078,45.971927 997.49485,43.5 997.39432,42.4 996.94145,38.575 996.48849,35 995.72002,28.934827 995.61495,28.730781 994.91789,31.949827 992.55066,42.881808 995.47207,67.168697 1000.7364,80.321528 1004.4938,89.709336 1009.4459,96 1013.0788,96 1014.1855,96 1016.1615,94.929387 1017.47,93.620859 z"/>
</svg>
