<?xml version="1.0" encoding="UTF-8"?>
<svg xmlns="http://www.w3.org/2000/svg" viewBox="772.57 15 47.84 87.98">
  <path d="M 793.35886,96.804429 C 789.25723,91.755143 788.32909,91.511609 784.45343,94.467725 779.26475,98.425323 777.59464,97.352921 778.65677,90.745608 779.12054,87.860523 779.5,78.75 779.5,70.5 779.5,57.50834 779.18331,54.49583 777.13469,48 775.83378,43.875 774.76503,39.450838 774.75969,38.16853 774.74823,35.411823 785.61658,19 787.4536,19 789.01749,19 794.26279,23.945888 799.37732,30.2431 L 803.22962,34.9862 807.00871,31.9931 C 809.08722,30.346895 811.53586,29 812.45013,29 814.55915,29 818.23933,37.088392 817.81291,40.786426 817.54616,43.099666 816.97728,43.543969 813.95689,43.798031 812.00818,43.961949 809.08962,43.40908 807.4712,42.569435 805.12204,41.350679 804.27732,41.294107 803.28252,42.288912 800.89029,44.681136 799.81991,54.659698 799.61275,76.5 799.40917,97.963017 799.35315,98.507431 797.31743,98.804429 796.0764,98.985489 794.47219,98.174993 793.35886,96.804429 z M 798.03076,47.299681 C 798.68701,44.109856 799.61361,40.760652 800.08988,39.857005 800.69477,38.709325 800.17944,37.051236 798.38047,34.357005 795.08589,29.422849 788.90446,22.9804 787.54705,23.066127 785.77177,23.178245 777.99737,36.123433 778.04389,38.889887 778.06803,40.325449 778.74553,43.3 779.54943,45.5 782.27582,52.961154 784.23842,70.729809 783.50687,81.329247 L 782.82848,91.158493 785.42962,89.454158 C 787.93567,87.81213 788.1673,87.840544 791.76538,90.231397 L 795.5,92.712973 796.16879,72.906167 C 796.53662,62.012424 797.37451,50.489506 798.03076,47.299681 z M 814,38.2 C 814,32.96722 810.29129,31.380292 807.61343,35.467233 806.05469,37.846168 806.09531,37.987889 808.74842,39.427196 812.80517,41.627976 814,41.348766 814,38.2 z"/>
</svg>
