<?xml version="1.0" encoding="UTF-8"?>
<svg xmlns="http://www.w3.org/2000/svg" viewBox="724 16.2 34.05 83.66">
  <path d="M 736.5,92.870079 C 728.52229,86.900846 726,83.843252 726,80.141691 726,75.229714 730.11666,68.82223 735.97786,64.611376 738.74004,62.626948 741,60.636769 741,60.188754 741,59.240467 736.53201,54.9945 733.19133,52.768115 729.74748,50.472971 726,44.942695 726,42.155633 726,36.836358 736.94654,20 740.40499,20 743.06048,20 749.77156,27.139468 752.88854,33.280408 755.76881,38.954999 756.04678,40.171059 755.18062,43.308002 754.08225,47.28599 749.98192,53.350985 746.12793,56.698278 L 743.59689,58.896557 749.29845,64.874041 C 754.88457,70.730506 755,70.968354 755,76.622012 755,81.175844 754.46337,83.166852 752.45482,86.06519 749.87637,89.785901 742.79166,96.057112 741.30864,95.931518 740.86389,95.893852 738.7,94.516205 736.5,92.870079 z M 740.34723,86.25 C 740.62561,84.7375 740.84493,82.825 740.83461,82 740.82428,81.175 740.91564,77.445869 741.03763,73.713042 741.15961,69.980215 741.03373,66.7004 740.7579,66.424563 740.48206,66.148727 738.32454,67.402858 735.96341,69.211521 733.14565,71.369969 731.14095,73.959492 730.12957,76.747236 L 728.58871,80.994472 732.4973,84.997236 C 737.13007,89.741618 739.63113,90.140761 740.34723,86.25 z M 740.87068,40 C 740.98843,31.770425 740.14778,25 739.00821,25 737.6598,25 730.22106,36.717025 729.50782,39.964405 728.86104,42.909163 729.24756,43.606296 734.14355,48.325403 L 739.4849,53.473777 740.12414,50.486889 C 740.47571,48.8441 740.81166,44.125 740.87068,40 z M 748.70351,48.5 C 750.38617,46.3 751.96026,43.6 752.20148,42.5 752.72214,40.125711 748.06888,30.267745 745.20802,27.68431 743.20333,25.87402 743.19751,25.908216 743.25112,39.18431 743.28069,46.50794 743.51208,52.87671 743.76531,53.337132 744.27502,54.263872 744.35482,54.185703 748.70351,48.5 z M 750.51257,81.606516 C 751.75656,79.296565 752.08745,77.279676 751.62598,74.819836 750.95184,71.226382 746.5759,66.090768 745.28666,67.380005 744.47863,68.188038 743.13161,87.035904 743.78976,88.325205 744.393,89.50696 748.43138,85.471061 750.51257,81.606516 z"/>
</svg>
