<?xml version="1.0" encoding="UTF-8"?>
<svg xmlns="http://www.w3.org/2000/svg" viewBox="954.6 18.12 25.58 85.45">
  <path d="M 958.47639,97.961805 C 958.12349,97.390798 958.29315,94.803298 958.85342,92.211805 961.25298,81.112654 961.67228,75.926873 961.48398,59.677914 961.34102,47.342047 960.78662,40.385928 959.51715,35 956.70212,23.056744 956.59661,22 958.21914,22 960.36075,22 965.23992,28.728207 967.64649,35 970.44478,42.292665 973,53.763073 973,59.031989 973,61.367193 973.85727,68.502806 974.90505,74.888907 978.13916,94.600551 978.17515,95.405553 975.90895,97.345934 973.72396,99.216776 972.457,98.800205 969.67742,95.297038 967.24072,92.226011 965.56143,92.402796 963,96 960.75296,99.155677 959.53949,99.681935 958.47639,97.961805 z M 973.98965,91.25 C 973.98395,90.2875 973.11848,84.55 972.06637,78.5 971.01426,72.45 969.85512,64.125 969.49049,60 968.513,48.941524 967.42613,44.128371 964.52262,38 963.08944,34.975 962.17567,33.36374 962.49204,34.419423 964.84397,42.267501 965.48368,76.977857 963.46647,87.291225 L 962.72494,91.08245 965.40486,89.861395 C 967.75559,88.790329 968.35254,88.9081 970.26461,90.82017 972.90045,93.456003 974.00345,93.583279 973.98965,91.25 z"/>
</svg>
