<?xml version="1.0" encoding="UTF-8"?>
<svg xmlns="http://www.w3.org/2000/svg" viewBox="684.02 16.38 26.05 88.31">
  <path d="M 691.4044,98.611464 C 691.11134,97.847769 691.35712,94.545285 691.95057,91.272611 692.54402,87.999937 693.08927,75.462278 693.16225,63.411147 693.29962,40.726304 692.63013,35.655222 688.2485,26.191637 686.01708,21.372159 687.81379,20.397845 692.22598,24.034742 696.61371,27.651482 704.44886,40.209976 705.32853,45.036045 706.91911,53.762278 708.06955,68.373454 707.88466,77.5 707.77323,83 707.6411,90.046405 707.59103,93.158679 707.54096,96.270952 707.21731,99.103645 706.87179,99.453551 706.52628,99.803457 704.874,98.720158 703.20007,97.046221 699.83738,93.683537 698.00851,93.811875 695.53694,97.583968 693.7601,100.29576 692.19961,100.68376 691.4044,98.611464 z M 701.23178,90.674617 C 703.57887,90.705978 704.05723,90.211837 704.6287,87.165671 705.51949,82.417325 704.24491,58.263972 702.63482,49.381773 701.45819,42.89078 697.43505,34.004947 694.98814,32.492667 693.67544,31.681375 693.72986,35.168744 695.08476,38.6849 696.28896,41.809954 696.55216,84.95182 695.39515,89.561719 694.77919,92.015896 694.91549,92.233242 696.60032,91.483483 697.64515,91.018531 699.7293,90.654542 701.23178,90.674617 z"/>
</svg>
