<?xml version="1.0" encoding="UTF-8"?>
<svg xmlns="http://www.w3.org/2000/svg" viewBox="1083.36 18.18 25.2 87.22">
  <path d="M 1098.9688 38.125 C 1098.3855 38.047461 1098 37.658374 1098 36.59375 C 1098 35.88373 1096.7064 33.526732 1095.125 31.34375 C 1093.5437 29.160767 1091.9433 26.387039 1091.5625 25.1875 C 1090.8469 22.932575 1089 22.139375 1089 24.09375 C 1089 24.702594 1088.325 24.941582 1087.5 24.625 C 1085.6516 23.915691 1085.6467 24.867832 1087.4688 32.59375 C 1089.0495 39.296703 1090.5222 57.072694 1090.2812 66.5 C 1090.1204 72.798066 1088.6843 81.858822 1086.4062 90.875 C 1085.4601 94.619751 1085.3573 96.807388 1086.0625 98.125 C 1087.4517 100.7208 1088.5461 100.4905 1091.6562 97 C 1095.0281 93.215601 1096.9726 93.210684 1101.0625 97.03125 C 1105.7672 101.42605 1106.56 99.953299 1105.1562 89.3125 C 1104.518 84.473545 1103.5257 73.765552 1102.9688 65.53125 C 1102.4119 57.296949 1101.4643 48.751152 1100.875 46.5625 L 1099.8125 42.59375 L 1100.4375 41.96875 L 1098.9688 38.125 z M 1089.7188 29.09375 C 1090.3067 29.29687 1091.3021 30.389252 1092.375 32.25 C 1096.5169 39.433444 1098.1699 46.520069 1099.5625 63 C 1101.2018 82.400229 1101.3685 92 1100.0625 92 C 1099.545 92 1098.8399 91.55 1098.5 91 C 1097.5767 89.506091 1094.4164 89.793396 1093 91.5 C 1090.7114 94.257616 1089.7121 93.186382 1090.4375 88.75 C 1093.2504 71.548396 1093.7976 63.69209 1092.9062 52.84375 C 1092.038 42.277069 1091.1646 36.77296 1089.4688 31.25 C 1088.9569 29.583096 1089.1308 28.89063 1089.7188 29.09375 z "/>
</svg>
