<?xml version="1.0" encoding="UTF-8"?>
<svg xmlns="http://www.w3.org/2000/svg" viewBox="1068.01 18.72 28.39 90.38">
  <path d="M 1080,101.71581 C 1078.075,99.939276 1075.1679,97.525562 1073.5398,96.352006 1070.7805,94.363161 1070.666,94.028459 1071.8531,91.423066 1072.5536,89.885704 1074.4482,86.959337 1076.0633,84.920027 1077.6785,82.880717 1079,80.72792 1079,80.136033 1079,79.544146 1077.6428,78.056478 1075.9841,76.830105 1074.3253,75.603731 1072.2906,73.566313 1071.4626,72.302509 1070.0989,70.221302 1070.1406,69.644641 1071.9054,66.185444 1072.977,64.084862 1074.5914,61.754083 1075.4928,61.005935 1076.3943,60.257787 1077.8266,58.302133 1078.6758,56.660037 1080.2184,53.676958 1080.2154,53.670268 1075.1099,48.825838 1072.2994,46.159124 1070.0133,43.194882 1070.0295,42.238634 1070.0458,41.282385 1072.2947,37.125 1075.0271,33 1077.7595,28.875 1080.1682,25.05 1080.3797,24.5 1081.0237,22.825647 1094,36.218463 1094,38.55741 1094,39.720762 1091.9846,43.783762 1089.5214,47.586298 1087.0582,51.388834 1085.0332,54.903333 1085.0214,55.396295 1085.0096,55.889257 1087.025,58.457479 1089.5,61.103454 1091.975,63.749429 1094,66.627875 1094,67.5 1094,68.372125 1091.975,71.250571 1089.5,73.896546 1087.025,76.542521 1085,79.206536 1085,79.816579 1085,80.426622 1086.7317,82.629955 1088.8483,84.712874 1094.1788,89.958653 1094.4074,91.214101 1090.8459,95.683904 1089.1735,97.782757 1087.1625,100.7375 1086.3769,102.25 1085.5914,103.7625 1084.6227,104.98782 1084.2243,104.97294 1083.8259,104.95806 1081.925,103.49235 1080,101.71581 z M 1086.7558,47.495384 C 1093.0348,38.958353 1093.0427,38.63437 1087.116,32.830874 1084.2408,30.015356 1081.5417,28.114107 1081.118,28.605875 1079.6136,30.352317 1073,40.849543 1073,41.490889 1073,42.232617 1082.2343,51.832368 1083,51.886591 1083.275,51.906066 1084.9651,49.930023 1086.7558,47.495384 z M 1087.3324,72.789646 C 1089.3496,70.473951 1091,67.905424 1091,67.081809 1091,65.306202 1084.1062,58 1082.4308,58 1080.8693,58 1073.996,66.913996 1074.0153,68.91411 1074.0237,69.786349 1074.3612,70.965763 1074.7653,71.535028 1075.8975,73.130118 1081.3686,76.932794 1082.5824,76.96832 1083.1777,76.985744 1085.3152,75.105341 1087.3324,72.789646 z M 1087.0624,96.749971 C 1091.4845,91.141335 1091.4866,91.082654 1087.4119,86.909733 1085.3121,84.75938 1083.0504,83 1082.3859,83 1080.8826,83 1076.3653,88.273779 1075.4804,91.061909 1074.9754,92.652962 1075.7145,93.922616 1078.6613,96.525679 1080.7726,98.390766 1082.95,99.935466 1083.5,99.958344 1084.05,99.981222 1085.6531,98.537454 1087.0624,96.749971 z"/>
</svg>
