<?xml version="1.0" encoding="UTF-8"?>
<svg xmlns="http://www.w3.org/2000/svg" viewBox="1587.49 15.15 33.67 84.7">
  <path d="M 1597.2832,88.638756 1589.7774,81.277513 1591.4124,75.888756 C 1592.3117,72.92494 1593.4557,70.05 1593.9546,69.5 1596.2827,66.933487 1602.9469,60.362545 1604.4302,59.171036 1606.3555,57.624464 1605.6967,54.047977 1603.2014,52.5 1602.3148,51.95 1599.2068,49.297224 1596.2947,46.604943 1589.9585,40.746996 1589.4902,37.744947 1593.8521,30.945781 1596.9562,26.107248 1603.387,19 1604.661,19 1606.0168,19 1613.0995,27.274793 1615.0999,31.195846 1618.1516,37.177629 1617.5943,40.108964 1612,47.5 1608.2992,52.38948 1607,54.98032 1607,57.47117 1607,61.76295 1607.8641,64 1609.522,64 1610.2414,64 1612.7131,66.1375 1615.0147,68.75 1618.8873,73.145914 1619.1558,73.818099 1618.6164,77.767234 1617.6306,84.984298 1610.5448,96 1606.8882,96 1605.6257,96 1601.7971,93.065766 1597.2832,88.638756 z M 1605.4152,37.297556 C 1605.1896,30.866721 1604.5978,25.197777 1604.0999,24.699902 1602.9689,23.568884 1597.0143,29.182616 1594.1367,34.092787 L 1592.0312,37.685575 1594.7656,41.319878 C 1597.8262,45.387728 1603.8923,50.184587 1605.0619,49.461768 1605.4817,49.202286 1605.6407,43.728391 1605.4152,37.297556 z M 1606,77.059017 C 1606,68.203127 1605.6082,62.875913 1604.926,62.454248 1602.699,61.07791 1595.0432,70.995254 1593.4585,77.309262 1592.8825,79.604483 1593.547,80.759484 1598.1436,85.451755 1601.0896,88.45909 1604.0625,90.937718 1604.75,90.959818 1605.6921,90.990104 1606,87.566567 1606,77.059017 z M 1611.9937,43.849962 C 1615.7382,38.680817 1615.755,36.582055 1612.0978,30.815225 1608.7627,25.556322 1607.4237,24.453481 1606.6913,26.362188 1605.8817,28.471858 1607.1884,48 1608.1391,48 1608.6057,48 1610.3403,46.132483 1611.9937,43.849962 z M 1612.0731,87.228649 C 1616.2257,81.211073 1617.2614,77.820515 1615.9815,74.433873 1614.8354,71.40111 1610.2446,66 1608.8129,66 1608.3658,66 1608,71.625 1608,78.5 1608,85.375 1608.3375,90.990392 1608.75,90.978649 1609.1625,90.966905 1610.6579,89.279405 1612.0731,87.228649 z"/>
</svg>
