<?xml version="1.0" encoding="UTF-8"?>
<svg xmlns="http://www.w3.org/2000/svg" viewBox="1033.47 15.75 29.4 93.46">
  <path d="M 1053,99.5 C 1051.2972,97.025 1049.5106,95 1049.0299,95 1048.5492,95 1046.5416,96.885849 1044.5687,99.190775 1039.9341,104.60523 1038.7916,103.53667 1040.0108,94.927878 1041.3348,85.578142 1041.8231,61.473627 1040.9612,48 1040.302,37.692998 1038.068,27.296018 1035.9046,24.466462 1035.47,23.898015 1035.526,22.773015 1036.029,21.966462 1036.7842,20.755539 1037.2535,20.935639 1038.7218,23 1041.0523,26.276491 1042.8225,33.703751 1043.4887,43 1044.3121,54.490462 1044.3207,84.917265 1043.5021,90.25 1042.7247,95.313944 1043.2734,95.967531 1046.131,93.381479 1048.6502,91.101592 1052.1384,92.271441 1054.4403,96.168201 1056.4426,99.557874 1057.9272,98.601055 1056.0649,95.12118 1055.4489,93.970295 1055,86.874436 1055,78.289507 1055,56.852023 1053.7608,48.353252 1048.976,36.973797 1046.7729,31.734385 1043.852,26.241525 1042.4852,24.767441 1039.8732,21.950544 1039.2852,20 1041.048,20 1044.5662,20 1053.1274,35.789547 1055.6876,47 1056.5801,50.907703 1057.4448,62.07452 1057.856,75 1058.3216,89.637027 1058.9547,97.238623 1059.8393,98.813922 1060.8492,100.61219 1060.8732,101.44787 1059.9469,102.56392 1057.9542,104.965 1056.2398,104.20885 1053,99.5 z"/>
</svg>
