<?xml version="1.0" encoding="UTF-8"?>
<svg xmlns="http://www.w3.org/2000/svg" viewBox="1624.94 14.56 57.01 90.56">
  <path d="M 1664.3765,99.323907 C 1662.7472,94.511273 1659.7495,89.113298 1657.5681,87.064001 1655.2354,84.872488 1655.0567,84.853412 1652.272,86.498405 1649.6911,88.022957 1646.2543,93.325272 1644.6071,98.323907 1644.254,99.395245 1643.2827,99.999694 1642.253,99.788836 1640.8456,99.500619 1640.5333,98.483988 1640.6691,94.631339 1640.7954,91.044513 1641.8555,88.075524 1644.8672,82.873624 L 1648.8963,75.914429 1646.9481,68.297252 C 1645.8767,64.107805 1645,59.852058 1645,58.840037 1645,55.500199 1640.5423,56.600253 1637.4042,60.714493 1633.2684,66.136827 1631.0528,68.150643 1629.9635,67.477458 1627.5269,65.971521 1630.1973,53.514614 1634.1816,47.800782 1635.2169,46.316212 1638.2925,43.657479 1641.0163,41.892487 1645.0502,39.278597 1646.0796,38.017256 1646.5662,35.091705 1647.7875,27.748897 1650.0896,21 1651.3729,21 1652.0973,21 1653.5331,21.931577 1654.5635,23.07017 L 1656.437,25.14034 1659.1631,21.82017 C 1661.5609,18.899881 1662.0578,18.68066 1663.2886,20 1664.9196,21.748439 1669,34.041295 1669,37.206548 1669,38.39705 1669.8798,40.307621 1670.9552,41.452261 1675.0541,45.815345 1678.1381,53.25929 1678.7194,60.192729 1679.356,67.786756 1678.9641,68.168045 1673.7742,65.003738 1671.9734,63.905794 1670.005,63.005794 1669.4,63.003738 1668.795,63.001682 1667.0565,65.926038 1665.5365,69.502306 1662.9293,75.636838 1662.8643,76.14388 1664.3863,78.466869 1669.0304,85.55467 1670.5657,100.08855 1666.747,100.81454 1665.7356,101.00682 1664.7327,100.3762 1664.3765,99.323907 z M 1642.75,54.539977 C 1644.7605,53.937051 1645,53.22232 1645,47.825624 1645,42.699351 1644.758,41.8789 1643.3995,42.400199 1639.956,43.721595 1635.9828,47.704367 1633.8228,52 1631.2173,57.18151 1630.8441,58.777821 1631.6344,61.358328 1632.1326,62.985025 1632.7206,62.717955 1636.3518,59.215694 1638.6333,57.015164 1641.5125,54.911092 1642.75,54.539977 z M 1665.5573,86.598874 C 1664.6656,83.794493 1663.1234,80.437757 1662.1303,79.13946 1660.367,76.834278 1660.3963,76.604797 1663.3808,69.354195 1665.9435,63.128479 1666.2389,61.612187 1665.21,59.964735 1664.1966,58.341967 1664.2423,58 1665.4725,58 1666.2917,58 1667.2583,56.818848 1667.6207,55.375219 1668.4883,51.918492 1667.338,35.937994 1666.135,34.735009 1665.5492,34.149184 1663.9739,34.963187 1661.9495,36.89782 1657.9074,40.760664 1656.5277,40.776417 1653,37 1651.4587,35.35 1649.7612,34 1649.228,34 1648.3202,34 1646.3899,45.310116 1646.9239,47.5 1647.058,48.05 1647.1558,50.975 1647.1411,54 1647.1261,57.091602 1648.255,63.337408 1649.719,68.263394 1652.3,76.947962 1652.3061,77.046905 1650.3938,79.263394 1646.5037,83.77211 1644.2342,87.660453 1643.5203,91.039506 1642.7229,94.814487 1643.0661,94.60863 1647.3718,88.729425 1648.8905,86.655609 1651.254,84.224477 1652.6238,83.32691 1654.9603,81.795986 1655.2789,81.817715 1657.7705,83.67795 1660.3628,85.613439 1662.7539,88.951669 1665.1637,94 L 1666.357,96.5 1666.7679,94.098874 C 1666.9938,92.778254 1666.4491,89.403254 1665.5573,86.598874 z M 1661.5667,34.381311 C 1665.2124,31.600606 1665.7123,29.657474 1663.8395,25.547053 1662.3846,22.35399 1661.4757,22.344339 1659.408,25.5 1657.5412,28.349208 1655.8017,28.670861 1654,26.5 1652.0201,24.114349 1650.2639,24.74881 1649.7833,28.023361 1649.4063,30.592069 1649.8403,31.356233 1652.6698,33.10492 1654.5014,34.236929 1656,35.576417 1656,36.081559 1656,37.695897 1658.0366,37.073851 1661.5667,34.381311 z M 1676.5249,59.25 C 1675.0619,51.386458 1670.0173,42.507412 1669.9913,47.75 1669.9865,48.7125 1669.7041,51.818045 1669.3637,54.651211 1668.7729,59.568642 1668.8754,59.873164 1671.6224,61.361173 1676.3679,63.931735 1677.3197,63.521864 1676.5249,59.25 z"/>
</svg>
