<?xml version="1.0" encoding="UTF-8"?>
<svg xmlns="http://www.w3.org/2000/svg" viewBox="266.22 21.17 25.78 89.74">
  <path d="M 269.43298,102.75 C 269.79941,101.5125 270.74835,96.97527 271.54173,92.667267 272.3351,88.359263 273.2453,84.412113 273.56439,83.89582 273.88347,83.379528 274.33903,74.217348 274.57673,63.535419 274.96227,46.209521 274.27017,35.043886 272.38956,28.25 271.58416,25.340428 273.78171,25.25385 277.34261,28.05486 280.52784,30.560363 283.55873,37.161287 284.93005,44.579415 285.49294,47.624389 286.19227,50.502082 286.48411,50.974289 287.42664,52.499328 289.9761,82.213984 289.98823,91.815741 289.99953,100.7558 289.02625,105 286.96482,105 286.43417,105 286,104.46169 286,103.80375 286,101.85158 280.84146,95 279.37168,95 278.62571,95 276.54941,97.241915 274.75769,99.982033 271.33615,105.21464 268.22416,106.83236 269.43298,102.75 z M 287.6058,82.25 C 286.51036,57.47774 283.85523,42.198773 279.2645,34.25 277.9145,31.9125 276.74022,29.999995 276.65498,29.999988 276.56974,29.999981 276.48333,41.812481 276.46296,56.249988 276.42903,80.298131 275.81037,88.118685 273.4567,94.252232 272.4973,96.752392 275.64449,96.542129 277.23207,94 278.92718,91.285695 280.12448,91.476713 283.5,95 285.0808,96.65 286.808,98 287.33823,98 287.94562,98 288.04461,92.173331 287.6058,82.25 z"/>
</svg>
