<?xml version="1.0" encoding="UTF-8"?>
<svg xmlns="http://www.w3.org/2000/svg" viewBox="304.88 15.61 68.43 93.92">
  <path d="M 328.95144,98.431825 C 325.95315,95.369329 322.90536,92.219329 322.17857,91.431825 321.45179,90.644321 320.49997,90 320.06343,90 318.10966,90 313.75357,94.575407 312.33723,98.11521 310.20862,103.43513 307.993,103.24753 308.02386,97.75 308.09978,84.2241 313.36311,79.328985 323.34576,83.5 325.32026,84.325 327.30243,85 327.75058,85 328.62557,85 331.25841,62.925079 330.47666,62.143328 329.82375,61.490419 325.20257,63.654176 320.77694,66.684988 318.71668,68.09592 316.36012,68.968432 315.50051,68.63857 313.34315,67.810711 310.30714,60.306454 309.49285,53.789108 308.16477,43.159483 312.59753,25 316.52032,25 317.69878,25 318.00118,26.577698 318.00579,32.75 318.01354,43.110779 319.57882,52.210882 321.60937,53.700069 322.94504,54.679645 324.18772,54.360002 328.37284,51.960362 333.20246,49.191189 333.48916,48.802367 333.31321,45.260293 332.77866,34.499234 333.07609,31.474262 335.07468,27.345727 338.61492,20.032576 342.31393,21.923961 345.45631,32.654082 346.58325,36.502176 347.01831,40.088861 346.61738,42.226011 346.02284,45.395162 346.2863,45.862907 350.23809,48.654248 356.95384,53.397898 356.76627,53.384105 358.81976,49.28532 361.67067,43.594869 362.24131,40.354181 362.09914,30.661583 361.94743,20.318845 362.83825,19.875078 367.15253,28.144207 369.69372,33.014861 370.06402,34.815271 370.13785,42.658725 370.20591,49.888743 369.77908,52.661029 367.92114,57.056434 363.51111,67.489461 361.64399,68.856271 356.88486,65.135453 353.79306,62.718199 346.24386,59.089472 345.61503,59.718303 345.34699,59.986341 345.48167,61.171875 345.91432,62.352823 346.34697,63.53377 346.3226,68.29186 345.86017,72.926355 345.39773,77.56085 345.24024,81.573569 345.51018,81.84351 345.78012,82.11345 346.78826,82.401703 347.75049,82.484073 355.57023,83.153467 363.10642,90.077109 362.89764,96.400038 L 362.79528,99.5 362.04829,96.369066 C 360.09888,88.198287 351.72467,83.077357 344.4194,85.58879 342.30584,86.315398 340.44093,86.774262 340.27515,86.608488 340.10938,86.442714 340.69155,84.589129 341.56887,82.48941 344.14311,76.328383 345.21262,67.503313 343.95226,62.822717 343.05659,59.496425 343.1208,58.450632 344.29266,57.27877 345.55174,56.019686 346.42714,56.234604 351.11849,58.954576 354.07832,60.670641 357.47008,62.759608 358.65573,63.596724 360.63713,64.995675 360.97682,64.941254 362.85642,62.923736 365.15907,60.452141 368.00286,49.315413 367.99442,42.802595 367.98749,37.450788 366.26143,31 364.83636,31 364.24807,31 363.9907,31.856453 364.26444,32.903228 365.66547,38.260781 360.02942,55 356.82452,55 355.83413,55 352.54346,53.329521 349.51191,51.287824 L 344,47.575648 344,42.230644 C 344,26.323644 336.9118,19.981026 335.39171,34.527825 335.03864,37.906556 335.24579,42.231505 335.86873,44.487306 337.1719,49.206357 336.43992,50.175188 328.30597,54.497115 319.61712,59.113887 317.18814,56.302269 316.29884,40.598478 315.96874,34.769315 315.36524,30 314.95774,30 314.10627,30 312.95588,34.07079 312.52103,38.622572 312.35697,40.339986 311.91511,43.981763 311.53914,46.715409 310.78217,52.21922 312.89904,62.32761 315.31442,64.742987 316.54097,65.969538 317.56561,65.743272 322.83865,63.08145 328.62945,60.15826 332.90815,59.241479 334.29368,60.627016 334.63854,60.971875 334.21767,62.884375 333.35841,64.877016 332.33754,67.244426 331.72986,72.053266 331.60492,78.753024 331.49976,84.392187 331.07989,89.037209 330.67188,89.075294 330.26386,89.11338 327.81778,88.122019 325.23615,86.87227 319.87088,84.274992 314.61993,83.934411 312.55866,86.05 310.87869,87.774235 309.37209,95 310.69254,95 311.19586,95 313.13422,93.425 315,91.5 316.86578,89.575 319.30527,88 320.42107,88 321.58383,88 325.30531,90.833625 329.13947,94.638406 L 335.82914,101.27681 341.16457,95.570767 346.5,89.864721 350.07166,91.371265 C 354.37715,93.187344 359.55436,100.12526 358.54258,102.72306 357.9608,104.21682 357.6445,104.01401 356.5578,101.45042 355.18491,98.2117 349.67228,93 347.61944,93 346.15439,93 340.71299,98.57871 339.08481,101.75 337.28513,105.25533 334.8518,104.45853 328.95144,98.431825 z"/>
</svg>
