<?xml version="1.0" encoding="UTF-8"?>
<svg xmlns="http://www.w3.org/2000/svg" viewBox="1161.86 8.91 69.02 100.96">
  <path d="M 1186.3806,102.09041 C 1181.2298,98.949549 1179.7157,91.891412 1182.5,84 1184.3219,78.836292 1184.4261,70.403808 1182.7102,67 1180.6475,62.908318 1177.3437,63.246264 1172.4495,68.049557 1167.3492,73.055119 1165,72.881229 1165,67.498141 1165,62.6507 1169.1283,54.864112 1173.6934,51.101181 1175.7627,49.395531 1177.9157,47.993109 1178.4778,47.984687 1181.4752,47.939784 1182.2019,46.291039 1180.5943,43.182361 1177.3707,36.94855 1179.1703,25.606374 1184.2224,20.31694 1190.2837,13.970785 1196.8154,13.502261 1193.7279,19.635098 1191.2706,24.516281 1190.8788,28.864908 1192.597,32.18754 1194.021,34.941227 1194.5166,35.177858 1197.7582,34.65182 1199.9784,34.29153 1202.7228,32.723596 1204.9642,30.534952 1210.9223,24.71703 1213.2965,25.957341 1212.0407,34.231866 1211.453,38.104636 1210.5464,39.63079 1206.9244,42.845036 L 1202.5224,46.751455 1205.7413,49.758381 C 1210.976,54.648276 1212.4003,60.555834 1209.3831,64.86348 L 1207.7661,67.171972 1204.8103,63.585986 C 1200.9583,58.91294 1199,58.906117 1199,63.565741 1199,65.526899 1198.4509,68.114399 1197.7797,69.315741 1195.9103,72.661915 1194.0318,78.26761 1194.0151,80.55 1193.9627,87.683246 1206.4115,86.021715 1214.3523,77.835601 1219.7489,72.272353 1226.1809,67.780948 1227.2378,68.837836 1227.7443,69.344251 1227.1965,72.568869 1225.9472,76.43582 1224.1999,81.844276 1223.9027,84.454903 1224.4228,89.826996 1225.7575,103.61577 1226.0092,102.51699 1221.5501,102.36821 1218.6079,102.27004 1217.0132,101.55415 1215.3001,99.562442 1214.035,98.091759 1213,96.238566 1213,95.444236 1213,93.452857 1209.0713,93.625265 1205.9126,95.755265 1191.9432,105.17508 1191.6143,105.28177 1186.3806,102.09041 z M 1195.3157,98.886272 C 1196.5171,98.273722 1199.8398,96.189564 1202.6995,94.25481 1206.1399,91.927262 1209.1567,90.69697 1211.6161,90.618538 1214.9936,90.510831 1215.4109,90.792868 1216.1836,93.70519 1216.932,96.526156 1220.2065,100 1222.1172,100 1222.4869,100 1222.3975,98.3125 1221.9185,96.25 1220.7676,91.293903 1220.7731,83.277875 1221.9302,79.243398 1223.2415,74.671141 1221.7481,75.098694 1216.0795,80.918366 1212.5424,84.549739 1209.8952,86.2506 1205.9629,87.418366 1198.9511,89.500644 1196.7971,89.414864 1193.6349,86.92742 1191.4909,85.240974 1191,84.022562 1191,80.387582 1191,77.879537 1191.8856,74.184394 1193.0193,71.96218 1195.4271,67.242395 1196.1682,62.191385 1194.8225,59.671859 1194.2854,58.666382 1194.0708,57.25793 1194.3455,56.541966 1195.0966,54.584794 1202.5808,56.257576 1205.549,59.046013 1206.8927,60.308377 1208.2573,61.07599 1208.5815,60.751822 1209.9542,59.379147 1205.615,53.275861 1201.2929,50.5 1198.7237,48.85 1196.4422,46.931098 1196.2228,46.235774 1195.9956,45.515965 1197.4767,44.291668 1199.6619,43.392757 1204.4159,41.437212 1209,37.225329 1209,34.812909 1209,32.552395 1207.6717,32.485291 1205.8724,34.654904 1204.1403,36.743595 1198.8167,39 1195.621,39 1192.8277,39 1188.3569,34.270166 1187.347,30.246572 1186.9882,28.816965 1187.158,26.489148 1187.7243,25.073644 1190.4471,18.268152 1190.4585,18.360495 1187.2603,21.335521 1182.127,26.110539 1180.7129,35.502175 1184.1171,42.210162 1186.9086,47.710655 1186.5936,49.63128 1182.7748,50.395031 1177.6906,51.411882 1172.3351,55.705215 1170.5331,60.208885 1169.6439,62.431301 1169.1306,64.463916 1169.3925,64.725808 1169.6544,64.9877 1171.4032,64.03153 1173.2787,62.600987 1179.0198,58.222016 1183.8641,59.737244 1186.5422,66.74962 1188.384,71.572295 1188.1083,82.060532 1186.0381,85.928732 1184.3423,89.09745 1184.8325,94.517386 1187.0726,97.365141 1189.2989,100.19548 1191.8315,100.66283 1195.3157,98.886272 z"/>
</svg>
