<?xml version="1.0" encoding="UTF-8"?>
<svg xmlns="http://www.w3.org/2000/svg" viewBox="1813.77 14.4 32.03 88.63">
  <path d="M 1820.4211,96.75 C 1820.781,95.5125 1821.5956,90.296101 1822.2313,85.158002 1824.0706,70.291624 1821.5173,48.156766 1816.8392,38.414044 1815.7706,36.188417 1817.066,33.754828 1823.9389,25.077104 1827.956,20.005167 1830.6037,18.426192 1832.4801,19.983498 1835.0774,22.139043 1842.8073,34.524997 1843.433,37.533715 1843.7998,39.297235 1843.437,42.34412 1842.5667,44.810854 1839.4217,53.724964 1838.1568,85.477922 1840.5576,95.25 1841.0819,97.384328 1840.8755,98 1839.6356,98 1837.1121,98 1836.4945,93.661417 1836.5753,76.5 1836.6432,62.062645 1837.5193,54.106866 1840.5973,39.974314 1841.0054,38.100651 1840.0719,35.838127 1836.9815,31.210157 1834.6903,27.778997 1831.9379,24.501938 1830.8651,23.927802 1828.7246,22.782218 1827.6444,23.720519 1822.0281,31.604432 L 1819.1042,35.708865 1820.6316,41.104432 C 1825.7332,59.126622 1826.5246,66.062734 1825.2727,81.782264 1824.0826,96.726101 1823.5548,99 1821.2764,99 1820.1836,99 1819.9474,98.378694 1820.4211,96.75 z"/>
</svg>
