<?xml version="1.0" encoding="UTF-8"?>
<svg xmlns="http://www.w3.org/2000/svg" viewBox="789.87 14.23 42.76 90.91">
  <path d="M 826.65625,39.40625 C 826.12984,39.427837 825.79657,38.943221 825.40625,37.34375 824.59221,34.007918 819.73141,26.64406 815.84375,22.84375 811.5373,18.634059 809.28104,18.36652 805.78125,21.65625 801.24811,25.917309 793.32068,38.541964 792.53125,42.75 791.86921,46.278994 792.06131,46.684016 797.15625,51.21875 800.09239,53.83205 803.9625,56.516724 805.75,57.1875 807.5375,57.858276 809,58.95938 809,59.625 809,60.725251 804.24731,65.32155 802.25,66.15625 800.71398,66.798171 795.10315,75.479063 794.4375,78.25 794.07416,79.7625 794.05802,82.018302 794.375,83.28125 795.37248,87.255516 810.29813,100.98096 813.65625,101 815.11592,101.00828 822.87802,90.200822 826.375,83.28125 830.6322,74.857377 829.49039,69.63181 821.5625,61.15625 819.05457,58.475071 817,55.975594 817,55.59375 817,54.655265 822.28236,50.070867 823.40625,50.03125 823.46577,50.029152 824.00473,49.66761 824.125,49.625 L 825.40625,45.75 C 824.89238,45.236132 825.22477,44.382347 826.25,43.21875 L 826.65625,42 826.65625,39.40625 z M 807.625,23.59375 C 808.79521,23.141986 809.34353,27.200287 810.59375,45.25 811.24333,54.628202 811.18789,55 809.21875,55 807.2416,55 798.93428,49.066686 796.125,45.65625 794.98477,44.272034 794.98221,43.452318 796.0625,40.75 797.68801,36.683868 806.11744,24.17575 807.625,23.59375 z M 815.6875,60 C 816.5467,60.184131 817.8449,61.308358 819.6875,63.25 823.64688,67.42221 826,72.130799 826,75.875 826,77.51119 824.19525,81.950684 821.96875,85.8125 815.47644,97.073261 815.02151,97.015155 814.96875,84.875 814.94395,79.170155 814.68646,71.2375 814.40625,67.25 814.03542,61.972809 814.25549,59.693115 815.6875,60 z M 810.5,62.71875 811.125,65.59375 C 811.47242,67.185936 811.80992,74.432459 811.875,81.6875 811.94305,89.275073 811.58967,95.123628 811.03125,95.46875 810.4973,95.798746 807.07246,93.139626 803.40625,89.5625 796.84298,83.158709 796.72013,83.002397 797.28125,78.78125 797.76772,75.121628 798.7953,73.625819 804.1875,68.59375 L 810.5,62.71875 z M 812.75,25 C 813.97129,25 817.07174,28.57298 820.75,34.28125 824.4621,40.042048 824.04328,42.790771 818.46875,49.59375 816.48354,52.016442 814.67568,54 814.4375,54 814.19932,54 813.98764,52.9875 813.96875,51.75 813.89128,46.675047 812.97015,33.219006 812.4375,29.25 812.12381,26.9125 812.26218,25 812.75,25 z"/>
</svg>
