<?xml version="1.0" encoding="UTF-8"?>
<svg xmlns="http://www.w3.org/2000/svg" viewBox="822.13 28.55 39.54 75.9">
  <path d="M 825.40625 45.75 L 824.125 49.625 C 825.001 49.314634 826.93367 48.321719 829.40625 46.75 C 837.63582 41.518797 838.27082 41.131882 843.21875 38.5 C 848.2486 35.824535 853.91467 35.176639 854.09375 37.25 C 854.49416 41.88581 853.97421 44.199974 851.875 47.125 C 850.56173 48.954899 849.05 51.229764 848.5 52.1875 C 847.95 53.145237 846.21387 55.750315 844.625 57.96875 L 841.71875 62 L 845.375 67.5 C 847.37637 70.514278 849 73.240635 849 73.5625 C 849 73.884364 847.74755 76.013403 846.21875 78.3125 C 840.71146 86.594685 836.45456 98 838.875 98 C 840.14358 98 842 94.738984 842 92.5 C 842 90.53643 846.35407 81.46964 848.9375 78.0625 L 850.8125 75.59375 L 852.21875 79.0625 C 852.9885 80.958992 854.18524 85.65 854.875 89.5 C 856.83154 100.42076 856.98856 101 858.03125 101 C 859.66809 101 859.14501 95.980284 856.46875 86 C 855.06935 80.781357 853.69241 75.6 853.40625 74.5 C 853.09735 73.312627 853.66704 71.662273 854.8125 70.4375 C 859.02637 65.931853 859.2493 64.426308 856.53125 59.0625 C 853.69579 53.466978 853.3939 49.684235 855.5 46 C 857.62584 42.28124 857.37995 36.379948 855 34 C 853.9 32.9 852.60854 32 852.125 32 C 850.37752 32 839.4197 37.372057 836 39.90625 C 831.37543 43.333317 825.97368 46.317432 825.40625 45.75 z M 852 55.71875 C 852.35011 56.142551 853.45502 58.434874 854.46875 60.78125 L 856.3125 65.03125 L 854 67.53125 C 852.71659 68.897374 851.37912 69.992029 851.0625 69.96875 C 850.03417 69.893144 846 62.914907 846 61.21875 C 846 59.264279 851.08026 54.605412 852 55.71875 z M 847.59375 94.46875 C 847.26456 94.408399 846.4488 95.251737 845.15625 97 C 843.36565 99.42191 843.23973 100 844.5 100 C 845.35508 100 846.51072 98.826278 847.0625 97.375 C 847.7681 95.51913 847.92294 94.529101 847.59375 94.46875 z "/>
</svg>
