<?xml version="1.0" encoding="UTF-8"?>
<svg xmlns="http://www.w3.org/2000/svg" viewBox="523.71 15.8 27.94 92.51">
  <path d="M 531.3277,100.62549 527.5,97.081651 529.58124,93.290826 C 530.72592,91.205872 533.10528,87.218579 534.86871,84.430176 L 538.07494,79.360352 535.78567,74.430176 C 534.52657,71.718579 532.25971,67.882524 530.7482,65.905609 529.23669,63.928694 528,61.444034 528,60.384143 528,59.324252 529.78728,55.766728 531.97173,52.478534 534.15618,49.19034 535.95618,45.974169 535.97173,45.331486 536.00533,43.942838 529.65403,30.492979 528.05465,28.565855 525.70583,25.735691 530.73118,20 535.55966,20 536.36939,20 538.08271,22.391168 539.38836,25.34348 540.68809,28.282394 543.38241,33.057889 545.37575,35.955692 547.36909,38.853495 549,41.871276 549,42.661872 549,44.500788 546.35165,49.64719 543.4204,53.504435 538.86499,59.498914 538.74791,61.29342 542.56223,66.657992 544.45576,69.321096 546.74101,73.715676 547.64057,76.423725 549.64605,82.461036 548.65247,85.968307 542.86109,93.294954 540.73749,95.981507 539,98.744442 539,99.43481 539,100.12518 538.13497,101.47287 537.0777,102.42968 535.23328,104.09886 535.00034,104.02577 531.3277,100.62549 z M 539.5,94.21906 C 547.99038,80.867307 547.40422,82.470466 545.52417,77.742896 544.59615,75.409303 542.29857,71.17374 540.41843,68.330532 538.53829,65.487325 537,62.202478 537,61.030872 537,58.451243 539.28382,53.839263 541.45252,52.039407 544.05394,49.880422 546.23799,44.338909 545.48468,41.808786 545.1066,40.538954 543.58116,37.925 542.09481,36 540.60847,34.075 538.40178,30.3625 537.19106,27.75 534.82239,22.638865 533.97134,22.124682 531.93715,24.575733 530.831,25.908561 531.27458,27.452363 534.8147,34.59043 537.11662,39.23186 539,43.835354 539,44.820417 539,45.80548 537.94938,48.03547 536.6653,49.77595 535.38121,51.51643 533.51842,54.741551 532.52575,56.942887 530.7247,60.936922 530.72608,60.952186 533.18567,64.222657 534.54129,66.025196 536.919,70.030046 538.46947,73.122325 L 541.28852,78.744649 538.30946,84.122325 C 536.67098,87.080046 534.48717,90.915755 533.45655,92.646122 531.87725,95.297683 531.79193,96.044368 532.91379,97.396122 534.99827,99.907766 536.27382,99.292462 539.5,94.21906 z"/>
</svg>
