<?xml version="1.0" encoding="UTF-8"?>
<svg xmlns="http://www.w3.org/2000/svg" viewBox="1510.22 14.67 34.82 88.25">
  <path d="M 1512.2188 77.375 L 1512.5312 80.90625 C 1513.7211 81.101734 1514.9415 81.847756 1516.5938 83.5 C 1520.5377 87.443871 1523.1068 87.893115 1525.9375 85.0625 C 1529.6801 81.319875 1531.0349 69.847804 1529.6562 53.5 C 1529.1132 47.060084 1530.911 30.776529 1532.3125 29.375 C 1532.6253 29.062222 1533.1665 30.537549 1533.5312 32.65625 C 1533.896 34.774951 1534.8236 39.65 1535.5938 43.5 C 1537.4416 52.736446 1537.3766 66.236115 1535.4375 74.6875 C 1531.142 93.408267 1527.9371 97.16951 1521.125 91.4375 C 1519.4518 90.029536 1516.5953 88.448812 1514.8125 87.9375 C 1514.1677 87.752577 1513.6386 87.667213 1513.0938 87.625 L 1513.375 91.3125 C 1514.9404 91.611495 1516.5616 92.435217 1518.3438 94 C 1523.4986 98.526016 1527.25 98.906278 1530.875 95.28125 C 1539.5294 86.626888 1543.0355 51.835513 1536.8438 36.09375 C 1536.3218 34.766574 1535.6402 30.791143 1535.3125 27.28125 C 1534.5093 18.679865 1532.2449 18.967967 1529.6875 28 C 1528.2215 33.17761 1527.8067 38.742975 1527.5938 55.5 C 1527.2408 83.2585 1525.9403 86.669764 1518.3438 80 C 1516.4645 78.35 1514.1028 77 1513.0938 77 C 1512.9364 77 1512.4699 77.291244 1512.2188 77.375 z "/>
</svg>
