<?xml version="1.0" encoding="UTF-8"?>
<svg xmlns="http://www.w3.org/2000/svg" viewBox="1225.09 14.26 38.66 82.29">
  <path d="M 1227.0938,63.46875 1227.5312,68.15625 C 1228.027,68.429866 1228.0222,69.247374 1227.75,70.34375 L 1228.4062,77.1875 C 1228.6438,77.512911 1229.6286,79.131855 1230.75,81 1232.8736,84.537699 1236.9518,88.071668 1242.5,91.15625 L 1245.5,92.8125 1250.375,88.15625 C 1253.052,85.594776 1256.7405,81.207273 1258.5625,78.40625 1261.4035,74.038829 1261.7578,72.828196 1261.0625,69.90625 1259.7834,64.531008 1256.4506,57.674079 1254.125,55.59375 1251.9228,53.623786 1251.2156,50 1253.0312,50 1253.5984,50 1254.3361,49.2125 1254.6875,48.25 1255.0389,47.2875 1256.1499,45.436673 1257.1562,44.125 1261.5102,38.450211 1257.4246,26.454454 1249.25,20.9375 1246.8521,19.319154 1244.2309,18 1243.4062,18 1240.423,18 1236.0025,21.10997 1232.5312,25.65625 1227.7444,31.925473 1227.6814,37.083961 1232.25,44.0625 1234.0318,46.784246 1236.2818,49.255209 1237.25,49.5625 1238.2181,49.869792 1239.0056,50.437063 1239,50.8125 1238.9945,51.187936 1235.7132,54.875 1231.7188,59 1230.1135,60.657772 1228.5973,62.055462 1227.0938,63.46875 z M 1245.1562,22 C 1247.1348,22 1253.9051,30.009561 1255.5,34.25 L 1257.2812,39.03125 1254.3438,43.75 C 1251.8431,47.804741 1250.9068,48.553863 1247.8438,48.8125 L 1244.25,49.09375 1244.3438,35.5625 C 1244.3812,28.108641 1244.7396,22 1245.1562,22 z M 1240.4062,23.3125 C 1241.7189,23.816211 1241.9886,25.640793 1241.9062,33.71875 1241.8515,39.098512 1241.5175,44.559154 1241.1562,45.84375 L 1240.5,48.15625 1237.8438,46.09375 C 1233.4665,42.650659 1230.9986,36.908583 1232,32.46875 1233.0178,27.955892 1238.0897,22.42353 1240.4062,23.3125 z M 1241.25,53 C 1241.5059,53.275 1241.9692,61.0375 1242.2812,70.25 1242.6386,80.796926 1242.5171,87 1241.9062,87 1240.5801,87 1233.5141,80.005057 1232.125,77.3125 1230.7397,74.627386 1230.6934,69.649228 1232,65 1232.9626,61.575015 1240.3304,52.011923 1241.25,53 z M 1245.875,54 C 1251.2555,54 1259.2787,67.785623 1257.6562,74.25 1257.3217,75.583158 1255.1968,78.777082 1252.9375,81.34375 1250.6782,83.910417 1248.2393,86 1247.5312,86 1246.8104,86 1246.0023,84.349999 1245.6875,82.25 1244.7178,75.781127 1244.8612,54 1245.875,54 z"/>
</svg>
