<?xml version="1.0" encoding="UTF-8"?>
<svg xmlns="http://www.w3.org/2000/svg" viewBox="1294.28 15.46 20.09 33.32">
  <path d="M 1306.362,39.585416 C 1307.4027,39.984789 1308.0052,38.337121 1308.8161,32.873566 1309.4072,28.890927 1309.6946,25.314833 1309.4547,24.92669 1309.2148,24.538547 1307.4934,24.042921 1305.6293,23.825299 L 1302.24,23.429621 1301.6534,28.964811 C 1301.3307,32.009165 1300.7682,35.973592 1300.4034,37.774648 1299.7555,40.973602 1299.8007,41.02626 1302.3614,40.052701 1303.8031,39.504573 1305.6033,39.294295 1306.362,39.585416 z M 1296.58,44.129471 C 1296.2841,43.650681 1296.7076,40.703725 1297.521,37.580681 1298.3345,34.457637 1299,29.036875 1299,25.534543 1299,18.544598 1299.7284,17.693741 1304.2508,19.400761 1306.3145,20.179714 1307.5645,20.128561 1309.044,19.204618 1311.8405,17.458133 1312.3772,19.324971 1311.6526,28.279758 1310.2972,45.032452 1309.6253,46.780858 1305.8544,43.368201 1304.1869,41.859136 1303.8639,41.859136 1301.5608,43.368201 1298.7669,45.198847 1297.3726,45.411947 1296.58,44.129471 z"/>
</svg>
