<?xml version="1.0" encoding="UTF-8"?>
<svg xmlns="http://www.w3.org/2000/svg" viewBox="175.81 13.73 63.77 94.01">
  <path d="M 190.19617,98.702393 C 188.43828,96.888709 187,94.472492 187,93.333021 187,92.193551 188.8,89.000552 191,86.237468 193.2,83.474384 194.99054,80.828102 194.97898,80.35684 194.94686,79.047963 184.15391,68 182.90735,68 182.16997,68 182.02597,66.285331 182.46648,62.75 183.27555,56.256682 184.85616,52 186.45823,52 187.1268,52 189.98374,54.25 192.80699,57 195.63023,59.75 198.38962,62 198.93895,62 200.42882,62 198.67797,36.71501 197.00012,34.000193 196.23665,32.764878 195.44155,32.804948 191.30637,34.287132 188.66287,35.23465 185.49787,36.007666 184.27305,36.004946 181.52625,35.998845 178.70538,31.984664 179.6252,29.390905 180.55371,26.77262 184.91528,21 185.96504,21 186.43983,21 188.45012,22.575 190.43234,24.5 192.41456,26.425 194.30189,28 194.6264,28 194.95091,28 198.04403,25.75 201.5,23 204.95597,20.25 208.19434,18 208.69638,18 209.19841,18 211.20846,19.464901 213.16316,21.255335 215.11786,23.045769 217.91406,25.151231 219.37694,25.934139 221.92718,27.298985 222.20711,27.185511 226.17416,23.178805 230.88993,18.415894 232.2518,18.093705 234.4433,21.222506 236.67983,24.415607 236.37023,27.121157 233.40201,30.322257 231.10738,32.796913 230.20941,33.087641 225.71186,32.812038 L 220.61971,32.5 218.81495,38.366249 C 217.82233,41.592686 216.75989,47.63539 216.45396,51.794481 216.14803,55.953571 215.66918,59.726259 215.38985,60.178232 215.11051,60.630204 215.71294,61 216.72857,61 217.74421,61 220.79135,58.75 223.5,56 226.20865,53.25 228.74859,51 229.14431,51 230.5423,51 233.83629,56.612694 234.44607,60.033764 235.01049,63.200348 234.5877,64.018694 229.55548,69.5 226.52586,72.8 224.06937,75.95 224.09662,76.5 224.12388,77.05 225.01423,78.85 226.07517,80.5 228.45197,84.196414 231,89.59434 231,90.933085 231,92.271377 225.03968,99 223.8542,99 223.33796,99 222.37208,98.543336 221.70779,97.985192 217.12802,94.137192 210.88541,90 209.65894,90 208.85536,90 205.85884,92.7 203,96 196.92382,103.01382 194.80783,103.46042 190.19617,98.702393 z M 190.88868,31.509805 C 192.07089,30.353208 191.92221,29.699758 189.88868,27.114675 186.92864,23.351801 185.17304,23.539536 182.63183,27.890689 180.68407,31.225725 180.68328,31.295263 182.57769,32.682012 184.70394,34.238471 188.67158,33.678863 190.88868,31.509805 z M 202.39229,93.943 C 205.47653,90.61165 208,87.46165 208,86.943 208,85.218293 209.78402,85.960124 216.55416,90.5 223.71019,95.298641 224.91372,95.686278 226.8,93.8 228.84726,91.752737 228.13954,88.386442 224.5,82.860088 222.575,79.937124 221,76.895228 221,76.10032 221,75.305412 223.475,72.238599 226.5,69.285181 232.15373,63.765241 233.14826,61.014069 230.96482,56.934259 229.60943,54.4017 227.91841,54.490981 224.9845,57.25 220.32262,61.634 215.70702,65 214.35739,65 211.63248,65 214.68985,38.415134 218.18715,31.698958 218.94474,30.244087 218.20001,29.044851 214.3125,25.459623 211.66563,23.018562 209.09903,21.016531 208.60895,21.010665 207.09696,20.992568 198,28.340387 198,29.579759 198,30.222593 198.60745,32.492624 199.34989,34.624273 201.13239,39.742105 202.37964,63.422119 201.00226,65.995778 200.05312,67.769268 199.54007,67.482667 194.67806,62.462922 188.96476,56.564264 186.57724,55.716441 185.63029,59.25 184.45082,63.651164 185.07095,65.034143 191.00211,71.230015 194.30327,74.678507 197.25354,78.271552 197.55825,79.21456 198.1355,81.00098 194.78839,86.526125 191.75,88.802374 189.21338,90.702713 189.59993,93.925181 192.75,97.138889 194.2625,98.681944 195.78903,99.956944 196.14229,99.972222 196.49554,99.9875 199.30804,97.27435 202.39229,93.943 z M 232.96013,28.548039 C 234.53079,26.655508 233.96413,23.998747 231.693,22.607183 230.19227,21.687658 229.38718,22.053522 226.943,24.765777 225.32435,26.561954 224,28.474454 224,29.015777 224,30.56738 231.6141,30.169908 232.96013,28.548039 z"/>
</svg>
