<?xml version="1.0" encoding="UTF-8"?>
<svg xmlns="http://www.w3.org/2000/svg" viewBox="543.38 16 36.32 86.19">
  <path d="M 545.875,45.8125 C 546.54414,44.626116 547.68438,43.437893 549.75,41.5 555.68242,35.934414 560.75176,33.332626 562.9375,34.75 565.57897,36.462906 564.65565,44.328802 561,51.1875 L 557.8125,57.125 560.34375,60.8125 C 561.72713,62.840296 563.3911,66.525 564.0625,69 565.79831,75.398752 565.59947,87.655315 563.6875,92.71875 562.81023,95.04198 562.47925,97.185536 562.9375,97.46875 564.24705,98.278099 565.64318,95.967412 567.59375,89.71875 569.20135,84.568809 569.24769,83.106347 568.125,76.21875 566.67958,67.351236 565.13181,62.165676 563.28125,59.90625 561.41531,57.628058 561.6799,55.565209 564.5,50 567.7941,43.499413 567.95182,35.958112 564.84375,33.0625 562.0062,30.418919 558.9754,31.149474 552.28125,36.125 548.2356,39.131984 546.46856,40.076656 545.65625,39.5 L 545.875,45.8125 z M 545.5,35.5 C 546.25986,34.178606 548.37866,32.709594 554.84375,28.40625 564.47903,21.99273 570.56722,23.179936 573,31.9375 574.2564,36.460294 574.29442,46.707383 573.0625,47.46875 572.54985,47.785589 571.61605,50.388771 570.96875,53.28125 569.9356,57.897825 570.05487,59.408435 571.90625,65.625 573.06621,69.51994 574,74.561368 574,76.8125 574,82.244019 572.14961,90.96187 570.40625,93.71875 568.66486,96.47252 568.6221,98 570.28125,98 571.64176,98 573.97889,93.755828 575.84375,87.9375 577.69179,82.171665 577.27885,70.781486 575,65 572.60815,58.931816 572.48199,55.454763 574.5,50.625 575.329,48.64092 576.1059,43.962659 576.21875,40.21875 576.44384,32.750821 574.95164,28.397141 570.5,23.59375 567.09768,19.922578 564.49074,20.416252 553.75,26.90625 L 545.53125,31.875 545.375,31.4375 545.5,35.5 z"/>
</svg>
