<?xml version="1.0" encoding="UTF-8"?>
<svg xmlns="http://www.w3.org/2000/svg" viewBox="0.83 16.21 57.13 38.82">
  <path d="M 27.71875,18.65625 C 27.044973,19.062547 24.721691,20.665805 22.5625,22.21875 L 18.65625,25.03125 16.0625,22.65625 C 12.523289,19.394941 10.600259,18.91315 8.15625,20.625 5.8091936,22.268942 3.4223913,29.036477 4.34375,31.4375 5.0651993,33.317566 9.769096,33.498175 13.46875,31.8125 16.853257,30.270415 17.710186,31.200289 20.65625,39.625 22.781853,45.703479 23.343567,49.451123 22.46875,53.03125 L 25.03125,52.96875 C 25.752783,50.722109 25.573325,49.243649 24.65625,45.3125 23.896358,42.055134 22.299489,37.217627 21.125,34.5625 19.950511,31.907373 19,29.164595 19,28.4375 19,26.72617 25.164449,22 27.40625,22 28.355661,22 31.414101,23.9125 34.1875,26.25 39.223684,30.494641 39.234557,30.492986 38.71875,35.5 38.22171,40.32484 37.677953,41.855633 32.78125,52.8125 L 35.125,52.75 C 35.562222,51.71393 35.913238,50.782429 36.5,49.5625 38.425,45.56026 40,41.61887 40,40.78125 40,39.943631 40.695607,37.593725 41.53125,35.59375 43.086098,31.872474 43.730966,31.714533 49.6875,33.53125 50.348123,33.732737 51.912559,33.06958 53.15625,32.0625 54.90813,30.643914 55.35667,29.3822 55.15625,26.40625 55.013969,24.293571 54.189647,21.750486 53.3125,20.78125 51.793413,19.102678 51.519407,19.121666 47.84375,21.1875 45.721365,22.380348 44,23.688728 44,24.09375 44,24.498772 42.641834,25.132529 40.96875,25.5 38.344529,26.076376 37.304841,25.596041 33.4375,22.03125 30.708552,19.515794 28.464479,18.206564 27.71875,18.65625 z M 50.8125,23 C 52.871466,22.995573 53.089094,23.408051 52.8125,26.75 52.535049,30.102318 52.181855,30.518381 49.5,30.78125 47.85,30.94298 45.6,30.38284 44.5,29.53125 42.531278,28.007119 42.546918,27.951787 45.5,25.5 47.15,24.130093 49.541799,23.002732 50.8125,23 z M 11.65625,23.25 C 12.544315,23.399226 13.513653,23.838382 14.5,24.59375 16.472566,26.104388 16.454777,26.159374 13.6875,28.5625 10.175824,31.61207 7,31.79255 7,28.9375 7,24.959489 8.9920548,22.802322 11.65625,23.25 z"/>
</svg>
