<?xml version="1.0" encoding="UTF-8"?>
<svg xmlns="http://www.w3.org/2000/svg" viewBox="1715.4 16.4 35.25 79.2">
  <path d="M 1746.9375 34.53125 L 1748.6562 30.65625 L 1748.6562 29.875 C 1748.6056 29.88876 1748.5126 30 1748.4688 30 C 1747.8722 30 1744.8667 27.75 1741.7812 25 C 1738.6957 22.25 1735.2168 20 1734.0312 20 C 1727.749 20 1725.7161 24.883733 1724.625 42.71875 C 1724.5169 44.485747 1722.9445 48.043658 1721.125 50.625 C 1717.4041 55.903844 1717.7329 58.459482 1722.4688 61.5625 C 1724.6222 62.973573 1725 63.983535 1725 68.125 C 1725 72.117213 1724.3316 73.945118 1721.4375 78.0625 C 1719.0531 81.454888 1718.1172 83.757825 1718.5312 85.0625 C 1719.1803 87.107356 1724.9497 92 1726.7188 92 C 1728.4952 92 1733.2243 84.98066 1732.6562 83.1875 C 1731.0419 78.09246 1729.1864 73.811367 1728.1562 72.78125 C 1726.9266 71.551543 1726.5607 64.285866 1727.5938 61.59375 C 1727.9276 60.723767 1728.7643 60 1729.4375 60 C 1730.1107 60 1731.267 58.869656 1732 57.5 C 1733.1366 55.376267 1733.0973 54.750698 1731.7812 53.25 C 1728.3543 49.342204 1727 45.034907 1727 38.0625 C 1727 29.340914 1729.2713 23 1732.375 23 C 1734.8664 23 1746.7784 32.460309 1746.9375 34.53125 z M 1725.1875 50.125 C 1725.9975 50.095525 1726.865 50.814557 1728.0625 52.25 C 1730.416 55.071091 1730.4414 55.930215 1728.25 57.59375 C 1727.2875 58.324392 1726.275 58.890059 1726 58.84375 C 1721.4824 58.083008 1720.3429 55.92048 1722.625 52.4375 C 1723.6178 50.922354 1724.3775 50.154475 1725.1875 50.125 z M 1726.8125 76 C 1727.1851 76.00631 1728.325 77.778961 1729.3438 79.90625 C 1731.1019 83.577627 1731.13 83.887361 1729.5 86.375 C 1728.5556 87.816401 1727.4455 89 1727.0625 89 C 1725.574 89 1722 84.825837 1722 83.09375 C 1722 81.243809 1725.5675 75.978915 1726.8125 76 z "/>
</svg>
