<?xml version="1.0" encoding="UTF-8"?>
<svg xmlns="http://www.w3.org/2000/svg" viewBox="194.66 14.04 38.7 85.36">
  <path d="M 196.65625 88.40625 C 196.6922 88.383662 196.71266 88.139969 196.75 88.15625 C 213.63847 95.519461 216.01518 95.465397 219.46875 87.65625 C 221.99992 81.932821 222.63823 77.701882 223.625 59.5 C 224.14977 49.820004 224.62611 47.092703 226.125 45.4375 C 227.14698 44.308953 228.60759 41.299917 229.375 38.75 C 231.35844 32.159529 229.11838 24.095714 224.28125 20.40625 C 221.13758 18.008458 220.68381 17.918942 218 19.21875 C 213.89613 21.206314 209.2723 27.397506 208.5 31.96875 C 207.78832 36.181138 208.9965 39.501377 212.125 42 C 214.68351 44.043396 215.79103 53.785305 214.875 66.3125 C 214.15332 76.18195 212.41383 81 209.59375 81 C 208.84806 81 205.65667 79.432092 202.5 77.53125 C 199.75596 75.878873 197.6568 74.733284 196.65625 74.25 L 196.65625 78.5 C 197.44097 77.732327 199.23633 78.452047 202.5625 80.96875 C 206.69068 84.092292 211.07347 84.856043 212.78125 82.75 C 215.09833 79.89258 217.04374 71.291882 217.46875 62.0625 C 218.05952 49.233752 217.01929 42.996743 213.65625 39 C 212.19142 37.259148 211 34.69968 211 33.3125 C 211 29.357852 213.98305 24.062266 217.125 22.4375 C 219.65383 21.129794 220.32058 21.132716 222.84375 22.4375 C 226.91826 24.544511 229.29115 32.808634 227.375 38.3125 C 226.64253 40.416416 225.09784 42.891416 223.96875 43.8125 C 222.21402 45.243954 221.86061 46.952471 221.46875 55.5 C 220.32202 80.513246 219.47423 85.559467 215.78125 89 C 214.59814 90.102236 213.37129 90.955853 213.0625 90.90625 C 210.55552 90.503535 205.6778 88.544112 201.5 86.25 C 198.69467 84.709536 197.30925 83.63082 196.65625 82.34375 L 196.65625 88.40625 z "/>
</svg>
