<?xml version="1.0" encoding="UTF-8"?>
<svg xmlns="http://www.w3.org/2000/svg" viewBox="1364.62 10.66 63.29 96.86">
  <path d="M 1378.6904,99.25 C 1378.4551,98.8375 1377.9408,96.7 1377.5474,94.5 1377.154,92.3 1375.9699,89.096885 1374.916,87.381966 1373.8622,85.667047 1373,83.657504 1373,82.916315 1373,82.175126 1375.1181,79.418229 1377.707,76.789877 L 1382.4139,72.011056 1376.957,66.54419 C 1373.9556,63.537414 1370.6,60.947426 1369.5,60.788662 1368.4,60.629898 1367.5,59.943518 1367.5,59.263372 1367.5,57.492562 1376.0634,47 1377.5086,47 1378.174,47 1380.7633,48.8 1383.2627,51 1385.762,53.2 1388.0753,55 1388.4034,55 1390.2668,55 1388.1041,32.915556 1386.0217,30.67853 1385.6012,30.226722 1382.9981,31.118282 1380.2372,32.659775 1376.0308,35.008282 1374.754,35.300517 1372.3586,34.46303 1368.2401,33.023071 1367.8205,27.235143 1371.4863,22.429077 1374.7633,18.132713 1377.7304,18.011621 1382,22 1383.7663,23.65 1385.5376,25 1385.9361,25 1386.3347,25 1389.094,22.763038 1392.0679,20.028974 L 1397.475,15.057948 1400.9875,18.31171 C 1409.0853,25.813002 1407.9988,25.603495 1415.0771,21.02859 1420.7875,17.337754 1421.5291,17.100487 1422.941,18.512454 1424.5556,20.127052 1425.0376,27.039446 1423.7595,30.25 1422.9453,32.295155 1416.1678,32.695373 1412.8071,30.896755 1411.2538,30.065461 1410.5556,30.10108 1409.9745,31.041256 1409.1004,32.455614 1407.3903,40.93879 1406.4048,48.75 1405.6109,55.041824 1407.0281,55.667651 1411.5,51 1415.2204,47.116721 1416.8764,47.218563 1420.3268,51.542828 L 1423.1536,55.085597 1419.9524,60.074184 C 1418.1918,62.817907 1416.0019,65.463804 1415.086,65.953957 1414.1702,66.444109 1412.8396,67.931244 1412.1291,69.258702 1410.975,71.41526 1411.2044,72.334324 1414.2835,77.889858 L 1417.7296,84.107455 1415.9762,87.546613 C 1415.0119,89.438151 1413.4953,92.804006 1412.6062,95.026293 1409.372,103.10934 1405,100.71445 1405,90.859762 1405,85.527767 1404.7596,84.922347 1401.75,82.676372 1394.7578,77.458233 1394.1914,77.40723 1389.889,81.608369 1386.4819,84.935321 1386,85.977144 1386,90.015857 1386,93.761334 1385.474,95.129715 1383.1953,97.312909 1380.2599,100.12523 1379.4002,100.49486 1378.6904,99.25 z M 1379.4745,29.497489 1382.4489,27.066903 1380.0927,24.871705 C 1377.3581,22.324072 1375.2954,23.06391 1373.1935,27.346297 1370.7354,32.354242 1374.43,33.6196 1379.4745,29.497489 z M 1383,89.057345 C 1383,84.714492 1383.3912,83.879302 1386.9176,80.693399 1394.782,73.58837 1395.0469,73.521766 1400.6919,77.229324 1406.3366,80.936614 1408.3333,84.453228 1408.3333,90.687169 1408.3333,93.059226 1408.6286,95 1408.9894,95 1409.3503,95 1410.6816,92.925364 1411.948,90.389699 1413.9475,86.385997 1414.1046,85.292626 1413.1421,82.079812 1412.5324,80.045041 1410.9011,77.316235 1409.5168,76.0158 1408.1326,74.715364 1407,72.799379 1407,71.758055 1407,70.71673 1409.7,67.189773 1413,63.920371 1419.1413,57.836062 1419.442,57.315334 1418.393,54.581787 1417.4696,52.175359 1415.4648,52.658414 1410.4321,56.5 1407.9102,58.425 1405.4172,60 1404.892,60 1402.9393,60 1402.6762,56.356337 1403.9217,46.562375 1406.5099,26.210489 1406.6582,28.372665 1402.407,24.478657 1397.7449,20.208374 1395.336,20.107405 1391.6363,24.027209 L 1388.7791,27.054418 1390.4991,34.358166 C 1392.1733,41.467177 1392.3996,57.935675 1390.8445,59.489423 1390.2926,60.040774 1385.4214,57.265103 1380.4281,53.554101 1378.8913,52.411972 1374.2022,54.309436 1373.4009,56.397707 1373.0661,57.270246 1375.5687,60.403937 1379.9289,64.571785 1383.818,68.289273 1386.9861,71.818912 1386.9691,72.415427 1386.9521,73.011942 1384.9214,75.019448 1382.4564,76.876551 1377.441,80.655129 1375.9579,84.16736 1378.2702,86.790295 1379.0992,87.730633 1380.0891,89.966427 1380.4701,91.758726 1381.4572,96.402831 1383,94.755489 1383,89.057345 z M 1421.5,25.083333 C 1421.5,20.66141 1420.0188,20.271884 1416.0149,23.640901 1412.9436,26.225278 1412.8732,26.434086 1414.6381,27.724657 1415.6612,28.47272 1417.6236,28.953198 1418.9991,28.792386 1421.1219,28.5442 1421.5,27.983499 1421.5,25.083333 z"/>
</svg>
