<?xml version="1.0" encoding="UTF-8"?>
<svg xmlns="http://www.w3.org/2000/svg" viewBox="257.04 13.82 65.02 94.49">
  <path d="M 260,26.59375 C 261.74421,28.52026 264.93315,33.007746 266.5,36.125 267.05,37.219226 269.87084,39.720508 272.78125,41.65625 277.09381,44.524585 277.96748,45.548923 277.4375,47.21875 277.07983,48.345661 276.70034,55.216837 276.59375,62.5 L 276.40625,75.75 272.1875,80.5 C 267.9363,85.329621 266.37386,89.27771 265.8125,96.5 265.42418,101.49602 267.85215,102.40536 270.5,98.28125 272.91201,94.524475 278.11978,90.081372 280.15625,90.03125 281.06443,90.008897 282.72738,91.545386 283.84375,93.4375 284.96013,95.329615 288.03704,98.461997 290.6875,100.40625 293.33795,102.3505 295.74587,103.95511 296.0625,103.96875 297.19894,104.01769 300.80357,99.407692 302.90625,95.21875 304.67563,91.693826 305.36569,91.131939 306.8125,91.90625 309.13062,93.146874 314,98.031642 314,99.125 314,100.3279 316.7362,100.23584 317.5,99 318.75754,96.965264 318.95546,89.397054 317.875,84.71875 317.17636,81.693693 315.52572,78.591045 313.40625,76.34375 310.06178,72.797577 310.04612,72.717118 309.96875,62.625 309.92599,57.047731 309.87225,51.467967 309.84375,50.1875 309.81524,48.907033 310.72467,46.849473 311.875,45.625 315.80463,41.442096 319.10737,31.462571 318.78125,24.75 318.61881,21.406591 318.0244,18.505954 317.4375,18.3125 316.85059,18.119047 314.98425,20.09395 313.28125,22.71875 311.57825,25.343551 308.97856,28.612155 307.53125,29.96875 304.40335,32.900584 302.62359,32.189535 299.84375,26.9375 298.01788,23.487843 293.61978,19 292.0625,19 291.60778,19 289.34052,21.893096 287.03125,25.4375 282.38349,32.571169 283.51014,32.370843 273.5,28.03125 270.75,26.839071 267.75909,25.171997 266.84375,24.34375 265.92841,23.515502 264.35341,22.93541 263.34375,23.0625 262.45066,23.174917 261.05269,22.894261 260,22.53125 L 260,26.59375 z M 292,23.46875 C 293.93073,22.812701 295.85734,25.88919 301.21875,36.03125 307.58224,48.068891 309.21691,64.994264 305.4375,79.59375 304.25763,84.151472 302.56369,89.021327 301.65625,90.40625 300.74882,91.791174 300,93.553392 300,94.3125 300,95.071608 299.16206,96.433507 298.15625,97.34375 297.15044,98.253994 296.13794,98.972362 295.90625,98.9375 289.06492,97.908095 281.79949,86.215746 279.5,72.5625 278.37022,65.854416 278.91274,51.789431 280.53125,45.5 282.19422,39.037814 286.8962,28.895796 289.9375,25.25 290.71188,24.321708 291.35642,23.687433 292,23.46875 z M 316,24.65625 316,28.84375 C 316,31.313919 314.98423,35.038089 313.5625,37.84375 310.44002,44.005665 308.2537,45.981609 307.40625,43.375 307.07319,42.350557 306.34778,40.265787 305.78125,38.75 304.8268,36.196316 305.164,35.565225 310.375,30.3125 L 316,24.65625 z M 266.8125,29.21875 C 268.06914,28.799872 280.98456,34.234072 281,35.1875 281.0061,35.564196 280.56764,37.026696 280.03125,38.4375 278.92534,41.34626 278.45405,41.450872 275.03125,39.71875 272.04325,38.206665 265.38334,29.695139 266.8125,29.21875 z M 276.75,80.25 C 277.42961,80.02578 278.51109,80.990282 279.15625,82.40625 280.14657,84.579749 280.01763,85.308815 278.40625,87.09375 277.35649,88.25658 274.79983,90.568415 272.71875,92.21875 L 268.9375,95.21875 269.5,91.875 C 270.09956,88.293864 274.69299,80.928661 276.75,80.25 z M 310.53125,78 C 312.69055,78 315.14199,83.005444 315.71875,88.59375 316.0259,91.56973 315.86445,93.983385 315.375,93.96875 313.7341,93.919684 309.50557,90.831378 307.625,88.3125 305.8327,85.911846 305.83337,85.671474 307.53125,81.90625 308.50166,79.754252 309.85304,78 310.53125,78 z"/>
</svg>
