<?xml version="1.0" encoding="UTF-8"?>
<svg xmlns="http://www.w3.org/2000/svg" viewBox="1117.6 12.24 45.24 89.62">
  <path d="M 1119.6562 46.5 L 1123.5625 49.625 C 1123.8484 46.993285 1124.4323 44.702426 1125.9375 41.5 C 1127.4885 38.2 1131.3816 32.622886 1134.5938 29.125 C 1142.862 20.121285 1146.7902 19.058944 1148.9375 25.21875 C 1150.8687 30.758656 1150.2531 34.871947 1147.0625 38.0625 C 1145.4548 39.670192 1143.4298 41 1142.5625 41 C 1141.6952 41 1141 41.675 1141 42.5 C 1141 44.51179 1142.2123 44.387944 1146.3125 41.96875 C 1149.3876 40.154386 1149.8222 40.122096 1150.375 41.5625 C 1151.7013 45.018863 1150.8265 46.979373 1145.9375 51.375 C 1143.1454 53.885349 1141.139 56.415922 1141.5 57 C 1141.9028 57.651806 1143.591 56.827075 1145.8438 54.84375 L 1149.5 51.59375 L 1149.8125 56.03125 C 1150.1111 60.180316 1149.8534 60.710463 1145.8125 64.15625 C 1141.1972 68.091819 1141.0301 70.676851 1145.625 67.0625 C 1149.1326 64.303428 1150.2619 65.873595 1149.375 72.34375 C 1148.849 76.181504 1148.1377 77.332706 1144.875 79.59375 C 1142.7463 81.068956 1141 82.6498 1141 83.125 C 1141 84.440736 1143.2663 84.110965 1145.4375 82.46875 C 1148.2513 80.340498 1149 80.649873 1149 83.90625 C 1149 85.723971 1148.0662 87.677632 1146.4688 89.15625 C 1143.22 92.163285 1140.7325 96.72399 1141.9375 97.46875 C 1142.4443 97.781944 1144.37 96.428239 1146.2188 94.46875 L 1149.5625 90.90625 L 1152.5312 93.4375 C 1154.1612 94.839336 1156.0625 95.999328 1156.75 96 C 1158.9791 96.002178 1158.0614 93.19389 1155.0625 90.8125 C 1151.8614 88.270511 1150.2414 82.532792 1152 80 C 1152.8951 78.710937 1153.3133 78.816405 1154.9375 80.75 C 1156.7233 82.876007 1160.0438 83.874172 1159.9375 82.25 C 1159.9106 81.8375 1158.1378 79.7 1155.9688 77.5 C 1152.6274 74.111109 1152.0061 72.850696 1152 69.25 C 1151.9921 64.538181 1152.8033 64.020207 1155.5 67 C 1156.4955 68.1 1157.6915 69 1158.1562 69 C 1159.7533 69 1159.0115 66.921104 1156.4375 64.21875 C 1153.1668 60.784864 1151.7352 57.20374 1152.4688 54.28125 C 1153.0902 51.8051 1155.8382 51.244394 1157.7812 53.1875 C 1158.4321 53.838334 1159.2029 54.109613 1159.5 53.8125 C 1160.5431 52.76934 1158.9236 50.467931 1155.9688 48.78125 C 1153.4618 47.350258 1153 46.477959 1153 43.21875 C 1153 38.315186 1153.7292 37.583167 1156.75 39.5625 C 1160.6928 42.145884 1160.7806 40.063335 1156.875 36.65625 C 1153.1907 33.44218 1152.511 32.087922 1151.5 26.125 C 1150.2479 18.74091 1146.3522 16.311621 1141.125 19.65625 C 1135.7731 23.080679 1126.3821 34.802375 1121.625 44 C 1121.2463 44.732181 1120.4635 45.610401 1119.6562 46.5 z "/>
</svg>
