<?xml version="1.0" encoding="UTF-8"?>
<svg xmlns="http://www.w3.org/2000/svg" viewBox="1595.52 14.96 23.4 88.88">
  <path d="M 1607.6487,97.908859 C 1605.7783,95.238437 1600.414,78.195188 1599.1938,71.046044 1597.5242,61.263893 1597.7989,49.799168 1599.9497,39.499562 1601.9894,29.732401 1606.2073,19 1608.0062,19 1611.3383,19 1614.6071,32.619359 1616.0467,52.5 1616.9207,64.569686 1616.7528,69.35522 1614.9063,85 1613.5144,96.793387 1613.2354,97.803641 1611.0474,98.974653 1609.5071,99.798986 1608.8222,99.584202 1607.6487,97.908859 z M 1611.3941,93.25 C 1612.6911,88.958392 1613.9338,66.17658 1613.4602,55.371991 1612.7342,38.806726 1610.1085,23 1608.0828,23 1606.8529,23 1605.3068,27.342877 1602.9209,37.5 1601.1434,45.067105 1600.8977,48.410527 1601.3781,58.5 1601.9642,70.807854 1603.6165,81.764203 1605.141,83.45 1605.6134,83.9725 1606,85.155044 1606,86.077876 1606,88.514891 1608.8682,95 1609.946,95 1610.4516,95 1611.1032,94.2125 1611.3941,93.25 z"/>
</svg>
