<?xml version="1.0" encoding="UTF-8"?>
<svg xmlns="http://www.w3.org/2000/svg" viewBox="1799.65 12.66 41.7 95.58">
  <path d="M 1839.125 85.875 L 1839.3438 85.34375 L 1838 80.65625 L 1839.0938 70.78125 C 1839.0143 70.830007 1838.9146 71 1838.8438 71 C 1838.3059 71 1835.8941 72.4625 1833.4688 74.25 C 1825.4505 80.159666 1819.9682 83.193148 1818.4062 82.59375 C 1817.09 82.088688 1816.9003 79.559248 1817.0938 65.25 C 1817.2184 56.034756 1816.8009 45.125 1816.1562 41 C 1815.5115 36.875 1814.8796 31.017962 1814.75 27.96875 C 1814.5058 22.221603 1812.0425 17 1809.5938 17 C 1807.854 17 1804.8574 23.119463 1805.9375 24.46875 C 1806.7596 25.495664 1806.1266 31.243732 1803.9375 42.5 C 1802.2048 51.409947 1801.7715 57.110035 1801.7188 71.5 C 1801.6488 90.553489 1803.9644 99.845759 1809.3125 102 C 1814.011 103.89258 1814.4959 103.60462 1830.7812 90.09375 C 1835.2754 86.365276 1837.3733 84.959793 1839.125 85.875 z M 1809.0312 21.46875 C 1810.337 20.661747 1811.8319 26.317621 1812.4688 34.5 C 1812.8113 38.9 1813.3799 44.75 1813.75 47.5 C 1814.12 50.25 1814.3933 53.85 1814.3438 55.5 C 1814.2942 57.15 1814.0913 64.201132 1813.9062 71.15625 C 1813.4214 89.382997 1814.5818 90.239069 1827.75 81.5625 C 1832.2848 78.574508 1836.4473 75.841585 1837 75.5 C 1837.587 75.137186 1838 76.108619 1838 77.84375 C 1838 80.289723 1836.7683 81.847911 1831.0625 86.65625 C 1827.2518 89.86761 1822.1493 93.9625 1819.7188 95.75 C 1812.447 101.09778 1807.7899 99.581434 1806.6562 91.5 C 1806.3476 89.3 1805.6353 84.575 1805.0625 81 C 1803.9347 73.960934 1804.6741 48.614832 1806.0938 45.875 C 1806.5608 44.973864 1807.2526 39.193236 1807.625 33.0625 C 1807.9973 26.931765 1808.629 21.717387 1809.0312 21.46875 z "/>
</svg>
