<?xml version="1.0" encoding="UTF-8"?>
<svg xmlns="http://www.w3.org/2000/svg" viewBox="100.09 12.38 28.4 91.73">
  <path d="M 104,99.09609 C 104,98.481252 104.86913,96.070607 105.93139,93.739102 111.57908,81.343295 114.04217,68.858611 113.43288,55.71618 113.17238,50.097281 112.54987,44.15 112.04952,42.5 111.54917,40.85 110.84972,37.622575 110.49517,35.327945 110.14062,33.033315 108.53417,29.080187 106.92527,26.543217 102.08814,18.915847 103.37797,16.552287 110.49686,19.998478 115.80002,22.565695 120.78003,29.015047 124.01105,37.5 125.91901,42.510499 126.31265,45.561461 126.3979,56 126.48894,67.14584 126.19531,69.438921 123.68747,77.167005 122.14058,81.933858 120.22808,86.082235 119.43747,86.38562 118.64686,86.689006 118,87.614511 118,88.442299 118,90.042093 109.56235,99 108.05547,99 107.56493,99 106.45177,99.273145 105.58179,99.606989 104.7118,99.940833 104,99.710928 104,99.09609 z M 112.43211,92.425034 C 122.23719,82.619949 126.36518,65.734535 123.44446,47.379381 121.78366,36.942228 119.8474,32.462249 114.74446,27.25 109.07608,21.460206 107.43562,21.712031 110.54127,27.895227 111.89357,30.587602 113.00534,33.850102 113.01187,35.145227 113.0184,36.440352 113.63898,39.81061 114.39094,42.63469 116.0622,48.911337 115.96601,72.901297 114.24914,78 113.60094,79.925 112.4273,83.525 111.64107,86 110.85483,88.475 109.89081,91.2875 109.49879,92.25 108.60715,94.439177 110.316,94.541146 112.43211,92.425034 z"/>
</svg>
