<?xml version="1.0" encoding="UTF-8"?>
<svg xmlns="http://www.w3.org/2000/svg" viewBox="1290.66 11.73 39.4 88.54">
  <path d="M 1295.0625 70.0625 L 1294.6562 70.65625 L 1293.9062 76.28125 C 1294.4763 76.20649 1295.2106 76.720634 1296.6875 78.03125 C 1300.1121 81.070346 1303.512 83 1305.375 83 C 1308.1212 83 1310.3093 77.746173 1311.1562 69.0625 C 1311.6149 64.361109 1312.3841 57.125 1312.875 53 C 1313.6196 46.743485 1313.4653 44.836808 1312.0312 41.5 C 1311.0858 39.3 1309.5707 36.879845 1308.6562 36.125 C 1305.0574 33.154037 1307.6091 25.433132 1313.4688 21.59375 C 1316.9446 19.316296 1319.3529 20.759782 1322.5625 27.09375 L 1325.0938 32.125 L 1323.0938 35.3125 C 1318.7525 42.180328 1318.1472 43.785624 1317.5938 50.03125 C 1315.847 69.744561 1314.5039 77.875051 1312 84 C 1308.5575 92.420883 1306.8089 92.705384 1298.25 86.28125 C 1295.6596 84.33698 1294.1504 82.974169 1293.2188 81.75 L 1292.6562 86 L 1292.6875 86.21875 C 1293.0987 86.398614 1295.0507 87.882276 1297.5 89.90625 C 1304.7966 95.935849 1309.7842 96.247493 1312.5625 90.875 C 1313.3812 89.291649 1314.5522 88 1315.1562 88 C 1315.1666 88 1315.2694 88.061449 1315.2812 88.0625 L 1316.6562 83.78125 C 1315.9279 82.809743 1316.059 81.987094 1316.5938 80.59375 C 1316.944 79.680917 1317.4094 79.281404 1318.0938 79.25 L 1319.3438 75.34375 L 1319.6875 74.90625 L 1318.4375 73.9375 L 1319.2188 66.71875 C 1319.6571 62.747651 1320.2529 56.35 1320.5312 52.5 C 1321.2068 43.153897 1321.5624 41.875568 1324.125 39.125 C 1327.8612 35.114628 1328.0525 31.256924 1324.8438 24.78125 C 1322.0387 19.120581 1317.9863 15.754388 1315.1875 16.75 C 1312.8612 17.577555 1305.7625 25.360118 1304.4375 28.53125 C 1303.3325 31.175709 1303.398 32.178958 1304.9688 35.6875 C 1305.9728 37.930006 1307.3275 40.07247 1307.9688 40.46875 C 1310.5478 42.062729 1311.0784 46.283079 1309.9375 55.90625 C 1309.3123 61.179636 1308.7993 66.175 1308.8125 67 C 1308.868 70.455113 1306.7784 79 1305.875 79 C 1304.04 79 1299.5053 76.181506 1297 73.5 C 1295.9942 72.42344 1295.4332 71.550791 1295.0625 70.0625 z "/>
</svg>
