<?xml version="1.0" encoding="UTF-8"?>
<svg xmlns="http://www.w3.org/2000/svg" viewBox="1692.65 16.53 30.35 87.36">
  <path d="M 1706.3056,97.857667 C 1705.3125,96.595423 1702.5875,93.780066 1700.25,91.601318 1695.8811,87.529098 1694.6463,83.456686 1697.4539,82.379311 1698.2536,82.072455 1699.8182,80.399078 1700.9309,78.660696 1702.0436,76.922313 1703.5194,74.720576 1704.2105,73.767947 1705.2994,72.267097 1704.7714,71.331389 1700.2549,66.758099 L 1695.0427,61.480303 1700.4358,55.425851 1705.8289,49.371399 1700.9145,42.678743 C 1698.2115,38.997782 1696,35.640614 1696,35.218369 1696,34.796123 1698.9281,31.311754 1702.5069,27.475325 L 1709.0138,20.5 1711.0605,23 C 1714.7912,27.55671 1715.4855,28.4783 1717.25,31.215215 1719.9441,35.394064 1719.4472,39.009976 1715.6248,43.041766 1710.1447,48.821978 1710.1853,50.163553 1715.9732,54.577508 1718.738,56.685913 1721,59.137231 1721,60.02488 1721,60.91253 1719.2,64.051334 1717,67 1712.4807,73.057263 1712.4157,73.270181 1714.5467,75.038741 1715.3974,75.744738 1717.0149,77.616529 1718.1412,79.198276 L 1720.189,82.074179 1715.5945,88.860414 C 1713.0675,92.592843 1711,96.121052 1711,96.700879 1711,97.280707 1710.35,98.294558 1709.5556,98.953884 1708.3935,99.918346 1707.7582,99.70408 1706.3056,97.857667 z M 1713.4954,88.006696 C 1716.8122,83.220475 1716.3936,80.406425 1711.8668,77.05961 L 1708.6644,74.691999 1706.0822,77.694983 C 1701.5066,83.016234 1700,85.007562 1700,85.734163 1700,86.125378 1701.9125,88.099909 1704.25,90.122008 1708.9562,94.193215 1709.2556,94.124727 1713.4954,88.006696 z M 1712.75,42.621218 C 1714.5375,40.2469 1716,37.52188 1716,36.565616 1716,34.295799 1710.0307,26 1708.3974,26 1707.167,26 1700,34.019214 1700,35.395899 1700,36.402403 1708.1267,47.005577 1708.8701,46.969079 1709.2166,46.952073 1710.9625,44.995535 1712.75,42.621218 z M 1715.1728,64.781771 1718.2701,60.87115 1714.8851,57.950924 C 1709.7679,53.536418 1707.4059,53.236904 1703.9349,56.562349 1702.3207,58.108858 1701,60.060458 1701,60.89924 1701,61.738021 1702.8814,64.341343 1705.181,66.684399 1709.8408,71.432397 1709.9169,71.417897 1715.1728,64.781771 z"/>
</svg>
