<?xml version="1.0" encoding="UTF-8"?>
<svg xmlns="http://www.w3.org/2000/svg" viewBox="1313.28 11.08 42.8 90.05">
  <path d="M 1315.2812 88.0625 C 1315.9613 88.122741 1319.0119 89.837707 1322.25 92 C 1328.5638 96.21622 1333.0327 97.036025 1336.25 94.59375 C 1337.2125 93.863108 1338 92.988659 1338 92.625 C 1338 92.261341 1339.0998 90.269458 1340.4375 88.21875 C 1343.0932 84.147905 1345.9727 75.873977 1348 66.5 C 1348.7137 63.2 1349.9132 58.034305 1350.6562 55.03125 C 1354.0835 41.178851 1350.1275 16 1344.5312 16 C 1342.2879 16 1341.9992 17.21427 1341.4062 28.6875 C 1341.0989 34.633863 1340.1701 43.55 1339.3438 48.5 C 1338.5176 53.45 1337.4815 59.821164 1337.0312 62.65625 C 1336.2379 67.650374 1334.8318 72.558418 1332.5938 78.25 C 1331.034 82.216679 1328.7683 81.800864 1321.4375 76.21875 L 1319.6875 74.90625 L 1319.3438 75.34375 L 1318.0938 79.25 C 1319.0862 79.204454 1320.6515 80.045928 1323.7188 82.15625 C 1331.3713 87.421407 1333.9394 85.089387 1338.3438 69 C 1340.5674 60.8765 1343.9677 38.47253 1344.125 30.84375 C 1344.4482 15.173153 1348.0034 24.182989 1348.2188 41.21875 C 1348.2978 47.477588 1347.7796 54.947458 1347.0625 58 C 1343.2193 74.358962 1338.9248 85.554721 1334.8125 89.96875 C 1332.072 92.910416 1329.292 92.479317 1322.25 87.96875 C 1319.0487 85.91825 1317.3986 84.771459 1316.6562 83.78125 L 1315.2812 88.0625 z "/>
</svg>
