<?xml version="1.0" encoding="UTF-8"?>
<svg xmlns="http://www.w3.org/2000/svg" viewBox="1236 12.61 27.44 90.5">
  <path d="M 1242.0851,93.869372 C 1239.8383,91.047526 1238,88.132495 1238,87.391526 1238,86.650556 1239.2106,83.575862 1240.6903,80.558873 L 1243.3806,75.073438 1241.6742,65.786719 C 1239.0708,51.618346 1238.0662,33.752524 1239.3798,24.980338 1240.0282,20.650935 1240.9212,17.710614 1241.5,18 1242.05,18.275 1242.4043,19.175 1242.2874,20 1241.4299,26.048193 1241.2144,44.327058 1241.9572,48 1242.4577,50.475 1243.7467,57.45 1244.8215,63.5 L 1246.7759,74.5 1243.8115,80.202177 C 1240.6382,86.306207 1240.6696,86.558738 1245.2727,91.956164 1248.5123,95.754854 1249.5639,95.306695 1253.6096,88.403221 L 1256.1039,84.146998 1254.5166,73.457333 C 1253.1962,64.56488 1253.1085,60.475465 1253.9949,49.133834 1254.5809,41.635225 1255.713,31.9 1256.5105,27.5 1257.3081,23.1 1257.9695,19.1625 1257.9803,18.75 1257.9911,18.3375 1258.675,18 1259.5,18 1261.2697,18 1261.4356,20.752217 1259.9028,24.6849 1258.4489,28.415401 1256.0672,48.576058 1255.967,58 1255.8878,65.459544 1257.4675,80.329398 1258.5202,82.032677 1259.8806,84.233899 1250.2868,99 1247.4962,99 1246.7669,99 1244.3319,96.691217 1242.0851,93.869372 z M 1248.5978,70.917217 C 1245.7244,62.211829 1245.6166,37.900008 1248.3969,25.605283 1249.2545,21.813189 1250.191,18.475689 1250.4781,18.188617 1251.94,16.726667 1251.969,19.541979 1250.5621,26.35324 1248.7775,34.992667 1248.4052,61.439377 1249.9903,66.966274 1250.6213,69.166255 1250.6332,70.76683 1250.0231,71.37689 1249.4131,71.98695 1248.8958,71.820139 1248.5978,70.917217 z"/>
</svg>
