<?xml version="1.0" encoding="UTF-8"?>
<svg xmlns="http://www.w3.org/2000/svg" viewBox="235.13 13.12 23.14 89.56">
  <path d="M 237.5,97 C 237.16008,96.45 237.13038,95.59805 237.43401,95.106778 237.73763,94.615506 238.00372,77.515506 238.02532,57.106778 238.06686,17.862575 238.1519,17.195403 242.5,22 244.8722,24.621251 246.16013,24.522905 248.9963,21.503943 250.286,20.131112 251.53826,19.204925 251.77908,19.44575 252.01991,19.686575 252.36769,25.1973 252.55194,31.691807 252.73618,38.186313 253.15055,47.775 253.47276,53 253.79496,58.225 254.2253,67.45 254.42906,73.5 254.63281,79.55 255.13159,87.0875 255.53744,90.25 256.26806,95.943057 256.25004,96 253.71872,96 252.31257,96 249.86531,95.255756 248.28037,94.346125 245.4812,92.739622 245.32265,92.768264 242.74478,95.346125 239.921,98.169905 238.49998,98.618006 237.5,97 z M 243,92 C 245.41486,89.585145 246.20942,89.539814 250.17529,91.590646 L 253.25126,93.181291 252.482,82.340646 C 252.05891,76.378291 251.80005,69.550147 251.90675,67.166992 252.01345,64.783838 251.62702,57.583838 251.04801,51.166992 250.46901,44.750147 249.82052,36.575 249.60693,33 249.24736,26.981482 249.04383,26.492575 246.8593,26.399769 245.56168,26.344641 243.4875,25.976817 242.25,25.582381 240.28732,24.956805 239.99149,25.225001 239.93339,27.682612 239.45844,47.771016 239.67915,94.000188 240.25,94.000107 240.6625,94.000048 241.9,93.1 243,92 z"/>
</svg>
