<?xml version="1.0" encoding="UTF-8"?>
<svg xmlns="http://www.w3.org/2000/svg" viewBox="709.3 11.67 59.76 95.16">
  <path d="M 715.18859,100.69056 C 712.01152,96.740765 712.6821,88.221122 716.62769,82.406978 719.0049,78.903967 719.09024,78.416617 717.73974,76.056399 714.58238,70.538401 714.92515,60.957092 718.55522,53.261621 719.80318,50.616027 719.85576,49.609251 718.84247,47.761621 715.58855,41.82847 718.75076,21.848656 723.16548,20.447479 724.2852,20.092095 725.52987,20.183528 725.93143,20.650663 726.97235,21.861576 730,33.520685 730,36.318235 730,39.860003 730.9417,40.160736 734.96012,37.902255 737.38057,36.541889 739.68681,33.910951 741.75233,30.153779 743.4724,27.024971 746.16321,23.51612 747.7319,22.356333 750.89126,20.02052 758.84897,16 760.31283,16 761.61582,16 760.2875,22.023901 758.56323,23.934383 754.98871,27.894921 753.87656,45.73648 756.97172,49.465922 760.7855,54.061246 751.75549,53.65121 745.84634,48.96074 L 742.19268,46.060597 739.61887,48.085159 C 736.39582,50.620406 732.89599,58.353753 732.82341,63.100636 732.72599,69.471848 739.28526,78 744.28297,78 745.09388,78 746.31989,76.641925 747.00743,74.982055 748.31056,71.836032 755.64468,65.311348 756.69606,66.362726 757.02817,66.694833 757.34491,71.441369 757.39994,76.910584 757.48759,85.621401 757.77821,87.204668 759.74337,89.677306 765.7021,97.174799 766.33633,101.78052 761.24068,100.55067 753.27159,98.627296 751.28561,97.844887 749,95.728259 747.625,94.454914 743.8,92.587296 740.5,91.577996 737.2,90.568696 734.0725,89.350751 733.55,88.871452 730.57061,86.138405 724.98347,89.698582 720.92801,96.914296 718.45388,101.31642 716.64783,102.50472 715.18859,100.69056 z M 722.6597,90.547258 726.81941,85.2426 723.85075,83.047779 C 720.28831,80.413951 718.91829,81.187528 717.03406,86.896788 715.79357,90.655513 716.23524,96.081326 717.76905,95.925958 718.17107,95.885235 720.37187,93.46482 722.6597,90.547258 z M 760,95.544409 C 760,95.293834 758.875,93.431038 757.5,91.404862 756.125,89.378686 754.91561,86.771202 754.81247,85.610453 754.49893,82.081948 754.27622,78.666 754.13471,75.214816 754.01327,72.253279 753.80297,72.035082 752,73 750.9,73.588702 750,74.522756 750,75.075676 750,76.78341 745.69981,82 744.29207,82 742.06994,82 735.33673,77.288582 733.29537,74.305298 732.2396,72.762384 730.86966,69.767874 730.25106,67.650831 728.51325,61.703523 731.78959,52.157775 737.54358,46.403787 739.96566,43.981704 742.43943,42 743.04084,42 743.64224,42 745.61972,43.575 747.43523,45.5 749.25074,47.425 751.1711,49 751.7027,49 752.28018,49 752.48886,45.880299 752.22111,41.25 751.91081,35.883914 752.26824,31.832779 753.38308,28.079937 754.26865,25.098902 754.76769,22.434361 754.49207,22.158734 753.3244,20.991068 746.28129,28.136349 743.69977,33.107591 741.07919,38.154055 737.50392,41.156118 730,44.610957 727.21972,45.891011 722.77958,51.348409 720.84336,55.865436 718.48463,61.36812 718.25486,69.69833 720.35411,73.603056 723.37558,79.223177 732.53787,85.347822 742.5,88.406754 745.8,89.420039 749.97816,91.543045 751.7848,93.124545 754.5252,95.523452 760,97.136103 760,95.544409 z M 726.83245,37.219264 C 726.36981,34.623669 725.70753,30.801529 725.36071,28.72562 725.01388,26.649711 724.37711,24.733067 723.94565,24.466411 722.5402,23.597795 720.63221,31.346012 720.60996,38.012367 720.58114,46.652822 721.42492,47.92514 724.94649,44.551262 727.47039,42.133214 727.61092,41.586877 726.83245,37.219264 z"/>
</svg>
