<?xml version="1.0" encoding="UTF-8"?>
<svg xmlns="http://www.w3.org/2000/svg" viewBox="1252.23 16.35 144.11 92.31">
  <path d="M 1312.5139,101.37106 C 1311.618,100.47514 1311.1359,99.08834 1311.4425,98.289274 1311.7491,97.490207 1312,96.463638 1312,96.00801 1312,95.552382 1313.7558,92.958291 1315.9019,90.243363 L 1319.8037,85.307131 1314.9999,75.298168 C 1312.3578,69.793238 1309.5273,65.032566 1308.7098,64.718898 1307.0423,64.078998 1304.2716,65.942176 1299.7412,70.75 1296.0598,74.656782 1295.0402,74.746127 1291.1824,71.5 1287.0501,68.022901 1284.5184,68.256034 1283.0379,72.25 1282.3753,74.0375 1281.4326,76.262293 1280.9431,77.193984 1280.4536,78.125675 1279.9772,83.602482 1279.8845,89.364667 1279.685,101.77146 1279.0422,103.47334 1275.7829,100.22423 1273.7753,98.222869 1273.4593,96.769748 1273.1625,88.173325 1272.4199,66.662853 1278.1813,54.22849 1287.2117,57.852093 1293.6311,60.42799 1293.6443,60.42445 1297.6561,55.050856 1301.8268,49.464408 1304.7443,48.106828 1308.703,49.910525 1310.1085,50.550921 1311.4205,50.912784 1311.6187,50.714666 1312.5125,49.820788 1309.0319,39.587455 1307.2165,37.772086 1302.6888,33.244395 1291.6374,36.315382 1283.9855,44.227516 1280.4215,47.912806 1275.6503,56.239158 1273.6159,62.323907 1273.2613,63.384275 1272.2722,64.003878 1271.253,63.803987 1269.8552,63.529828 1269.5093,62.451077 1269.5458,58.48008 1269.5709,55.741036 1269.9466,52.304928 1270.3805,50.844284 1271.0092,48.728236 1270.7967,48.066073 1269.3347,47.585764 1268.3256,47.254222 1265.7689,45.515334 1263.6531,43.72157 1260.4581,41.012903 1259.7164,39.66313 1259.2761,35.757099 1258.7824,31.377132 1258.994,30.805988 1262.3561,27.443853 1265.4978,24.302157 1266.3902,23.918575 1269.2332,24.487845 1271.1723,24.876146 1274.0917,26.795611 1276.4166,29.210828 1279.0159,31.911236 1280.7247,32.980391 1281.4976,32.389828 1285.5156,29.319555 1295.0417,23.275717 1298,21.919797 1300.6965,20.683893 1302.1887,20.550138 1304.5,21.337181 1308.4693,22.688816 1317.0458,28.267893 1319.2766,30.949498 1320.3295,32.215041 1321.5517,32.779246 1322.2766,32.334367 1322.9495,31.921463 1325.3,30.40574 1327.5,28.966092 1332.315,25.815237 1342.2403,22 1345.6222,22 1348.1126,22 1355.0906,25.25614 1360.5,28.942434 1364.5293,31.688235 1366.4811,31.526623 1368.8625,28.25 1369.9618,26.7375 1372.5799,24.54401 1374.6806,23.375578 1379.1369,20.896892 1381.9705,21.499222 1384.5785,25.479537 1386.1791,27.922246 1386.1713,28.302018 1384.4385,32.283326 1383.4292,34.602497 1381.7926,37.30503 1380.8017,38.288955 1378.4986,40.575747 1378.4572,40.307824 1382.0977,46.670815 1384.3034,50.525886 1385.0147,52.805112 1384.5679,54.585362 1383.5272,58.731962 1381.2306,58.635371 1376.6759,54.253438 1372.8339,50.55726 1369.0914,47.881924 1355.5786,39.172146 1350.5575,35.935776 1346.7079,35.308414 1340.046,36.640797 1336.4142,37.367153 1332.631,42.334887 1331.4821,47.885838 1330.7185,51.575829 1330.2861,51.467573 1337.6248,49.423916 1339.2957,48.95862 1340.364,49.697985 1342.6248,52.884539 1346.8768,58.877427 1347.4227,58.902788 1356.5,53.529167 1362.6724,49.875169 1365.2235,50.238454 1368.5842,55.25 1373.899,63.175631 1372.7416,78.553501 1365.7654,92.701791 1361.4001,101.55515 1356.7734,98.560044 1360.6219,89.372124 1361.8499,86.440387 1362.1165,83.557114 1361.7194,77.5 1360.8997,64.997407 1359.4989,63.397446 1352.9766,67.514777 1348.1054,70.589814 1347.7549,70.588347 1343.1969,67.473842 L 1339.5,64.947683 1337.8265,66.990202 C 1336.906,68.113587 1335.4036,71.162858 1334.4878,73.76636 1333.572,76.369862 1332.4126,79.281394 1331.9113,80.236431 1330.4286,83.061677 1330.8321,84.464918 1334,87.5 1336.2432,89.649125 1336.9966,91.272982 1336.9863,93.937091 1336.954,102.3741 1334.0981,104.47188 1330.4865,98.71148 1327.4407,93.853549 1324.0727,93.928579 1319.9222,98.946822 1316.2427,103.39552 1314.9586,103.81573 1312.5139,101.37106 z M 1325.1573,92 C 1326.5724,92 1328.8744,92.9 1330.2729,94 1335.8594,98.394339 1336.899,94.52712 1331.5,89.435229 1329.575,87.619721 1328.002,85.316586 1328.0044,84.317152 1328.0081,82.751124 1330.3133,75.781326 1334.1472,65.743972 1335.5608,62.042864 1339.3442,61.147469 1342.8304,63.688936 1347.2321,66.897772 1348.5557,66.986461 1352.4589,64.334122 1360.122,59.126908 1363.4273,63.901854 1363.4746,80.248097 1363.4886,85.05955 1363.7553,88.99705 1364.0674,88.998097 1365.3174,89.00229 1368.3265,77.068893 1368.7754,70.327154 1369.1748,64.33083 1368.8897,62.403542 1367.0373,58.577154 1365.6533,55.718188 1364.162,54 1363.0644,54 1361.1149,54 1355.3264,56.608308 1353,58.535088 1352.175,59.218366 1350.0849,60.077838 1348.3553,60.445026 1345.507,61.049737 1344.9416,60.731797 1342.3553,57.070537 1338.7121,51.91304 1336.5658,51.20558 1332.8644,53.942145 1328.8547,56.906624 1327.6288,55.781778 1328.3385,49.789326 1329.1859,42.634492 1333.6361,35.844648 1338.5762,34.169259 1347.2408,31.230714 1355.5097,34.589861 1373.2026,48.235816 1377.4391,51.503244 1381.3604,53.895304 1381.9167,53.551504 1382.5159,53.181155 1381.5164,50.719577 1379.464,47.511243 1375.4951,41.30686 1375.2774,39.96388 1377.8615,37.625349 1378.8853,36.698805 1380.524,34.1644 1381.503,31.993338 1382.9538,28.776039 1383.0493,27.764272 1382.0191,26.522976 1378.9163,22.784395 1372.3364,26.068287 1366.8542,34.091374 L 1365.2084,36.5 1362.0437,34.17536 C 1354.4223,28.576946 1349.9945,25.948904 1347.2632,25.402645 1342.6938,24.488758 1331.3788,28.473703 1325.1151,33.202835 1320.0018,37.063456 1319.5498,37.22084 1318.5615,35.484881 1314.9686,29.173922 1304.9345,23.414496 1299.3558,24.461077 1294.6562,25.342729 1284.8222,31.542396 1282.4087,35.14508 1280.4902,38.008845 1278,38.980143 1278,36.864671 1278,36.24024 1276.9875,34.707626 1275.75,33.458863 1274.5125,32.210101 1272.9198,30.470999 1272.2106,29.594193 1269.2847,25.976818 1261.9843,28.6453 1262.0137,33.321429 1262.0422,37.869623 1263.3762,40.04698 1268.6063,44.081986 1271.5728,46.370664 1274,48.682987 1274,49.22048 1274,49.757974 1273.2818,51.7112 1272.404,53.560983 1269.3933,59.905605 1271.6216,59.36884 1275.2534,52.874613 1280.7726,43.005401 1289.0787,36.017828 1299.3547,32.599416 1302.2995,31.619777 1308.9412,34.108637 1310.9644,36.949986 1312.8157,39.549873 1315,48.877832 1315,54.183659 1315,57.815377 1312.2508,57.960324 1309,54.5 1307.7083,53.125 1305.8562,52 1304.8844,52 1303.9126,52 1301.1845,54.475 1298.8219,57.5 1296.4593,60.525 1294.1986,63 1293.7981,63 1293.3976,63 1291.0315,62.307936 1288.5401,61.462081 1279.5677,58.415898 1276.7136,63.13833 1275.5232,83 1275.2429,87.675 1275.4114,92.121958 1275.8975,92.882128 1277.0575,94.696149 1277.6239,92.700936 1278.505,83.695531 1279.3746,74.808911 1280.4677,71.195481 1283.1504,68.339872 1285.8442,65.472524 1288.9143,65.358142 1292.2729,68 1293.6713,69.1 1295.1655,70 1295.5934,70 1296.0212,70 1298.506,68.2 1301.115,66 1303.9058,63.646771 1306.8962,62 1308.3785,62 1312.3169,62 1316.5303,68.514622 1321.4369,82.190149 L 1323.1197,86.880299 1319.0599,90.940149 C 1316.7706,93.229394 1315,95.960763 1315,97.202948 1315,99.209843 1315.3375,99.07635 1318.7922,95.702948 1321.1769,93.374357 1323.5393,92 1325.1573,92 z M 1377,102.33038 C 1377,100.8175 1386.6037,89.047906 1387.857,89.024905 1389.7899,88.98943 1388.7152,91.211541 1383.7671,97.481432 1380.0295,102.21739 1377,104.3882 1377,102.33038 z"/>
</svg>
