<?xml version="1.0" encoding="UTF-8"?>
<svg xmlns="http://www.w3.org/2000/svg" viewBox="720.83 16.46 93.78 89.16">
  <path d="M 799.18275,91.800488 C 799.15282,89.435219 798.83108,84.919446 798.46777,81.765436 797.84046,76.319537 797.51578,75.778405 792.01782,71.015436 788.83365,68.256946 785.47727,66 784.55918,66 782.55043,66 778,75.670608 778,79.93962 778,81.935455 778.95351,83.624543 781.0996,85.430356 783.06823,87.08685 783.98193,88.604707 783.60373,89.590282 783.08617,90.939024 782.63627,90.87719 780.16531,89.117713 778.6017,88.004319 776.7381,86.389361 776.024,85.528917 774.11904,83.233579 775.33646,75.457614 778.70132,68.428251 782.33055,60.846602 784.28115,60.435529 790.73582,65.892088 793.35612,68.107199 796.60742,70.783664 797.96093,71.83979 799.8561,73.318565 800.54579,74.994556 800.96093,79.130009 801.25742,82.083504 801.9125,84.5 802.41667,84.5 802.92083,84.5 803.96407,82.607785 804.73497,80.295077 805.96925,76.592237 805.94602,75.696709 804.54041,72.795077 801.66798,66.865467 789.03179,55 785.58945,55 784.65194,55 781.82522,56.149902 779.30784,57.555337 773.35391,60.879383 772.03286,60.333512 772.675,54.814576 773.50461,47.684395 774.96597,44.206396 778.31675,41.387385 782.80928,37.607819 786,33.0058 786,30.30572 786,27.281311 785.60873,27.367293 780.5653,31.5 778.2161,33.425 775.3911,35 774.28753,35 773.03774,35 770.81383,33.046273 768.39052,29.81942 766.25073,26.970101 763.93187,24.455726 763.2375,24.23192 762.54312,24.008114 760.40562,25.394375 758.4875,27.3125 755.98141,29.818587 755,31.685804 755,33.947749 755,37.693853 758.83421,41.729165 762.83299,42.191586 765.48361,42.498105 765.49835,42.545723 765.2315,49.941704 764.79821,61.950474 762.49387,62.943627 752.20866,55.554442 749.48753,53.599499 746.65886,52 745.92273,52 745.18661,52 742.87527,53.668847 740.78643,55.708549 737.36056,59.05382 736.83711,59.265681 735.44278,57.87135 734.59262,57.021188 733.06967,52.989841 732.05845,48.912801 730.49113,42.593653 730.18221,42.016375 729.96457,45 729.50325,51.324302 730.1165,55.437984 732.16401,59.753799 734.77726,65.262122 738.03323,66.271909 741.81508,62.746928 747.05963,57.858601 748.37407,57.690068 752.20877,61.414283 757.37995,66.436465 759.43539,71.426826 759.47015,79.043979 759.52043,90.066505 755.18536,93.87012 746.39749,90.514 741.68446,88.714078 738,85.553902 738,83.311439 738,81.217444 740.45371,81.789598 742.97274,84.470979 746.07429,87.772432 751.25663,89.468207 753.908,88.049238 756.673,86.569451 757.57397,80.778847 756.00449,74.574826 754.61884,69.097433 749.74256,62 747.36499,62 746.55816,62 744.40903,63.625337 742.58914,65.611859 739.07277,69.450181 737.3315,69.562647 732.3039,66.276172 726.25921,62.324844 725.09315,40.029143 730.33264,28.584603 734.0277,20.513521 735.28833,21.270348 734.43543,31.047748 733.72141,39.233118 735.38602,53.502506 737.18458,54.614078 737.67452,54.916878 739.85972,53.552582 742.04057,51.582311 744.22143,49.61204 746.45057,48 746.99423,48 748.19101,48 757.36391,54.866936 757.83333,56.114276 758.01667,56.601424 759.25417,57 760.58333,57 762.86543,57 763,56.671931 763,51.108408 763,45.816598 762.76882,45.158795 760.72919,44.646878 756.94486,43.697072 752,38.137017 752,34.831683 752,29.036573 757.18574,22.512852 762.6631,21.417381 765.49253,20.851493 765.98303,21.194423 768.9969,25.845614 773.7505,33.181662 775.47232,33.35335 781.43709,27.086056 785.549,22.765593 787.59089,23.040115 788.38728,28.020476 789.19481,33.070459 787.45077,36.64357 781.30324,42.533938 777.61042,46.072277 776.67747,47.673824 776.39956,50.951818 776.00602,55.59354 776.47487,55.762841 781.8967,52.936825 785.68927,50.960025 785.99408,50.944807 789.17749,52.57332 791.00487,53.508138 795.93919,57.830423 800.14265,62.178399 810.08874,72.466436 810.34579,73.966673 804.73828,89 801.78679,96.912753 799.26353,98.184703 799.18275,91.800488 z M 747.93634,99.663998 C 742.18715,96.802841 735,89.895026 735,87.230434 735,84.330722 736.70953,83.509465 737.50811,86.025544 738.22706,88.290765 747.12487,95.716779 750.78955,97.110086 753.33877,98.079297 756.42485,96.82225 763.68018,91.859373 768.65948,88.453367 770.88033,88.290495 774.09699,91.095423 775.41865,92.247906 777.7662,93.849304 779.31378,94.654085 780.86136,95.458866 781.94907,96.653426 781.73091,97.308662 780.9568,99.633736 778.37954,99.016728 774.3079,95.531559 770.09143,91.922411 767.63833,91.158135 766.44872,93.08298 765.70404,94.287896 756.40587,100.33136 753.89233,101.24416 753.00811,101.56527 750.32792,100.8542 747.93634,99.663998 z"/>
</svg>
