<?xml version="1.0" encoding="UTF-8"?>
<svg xmlns="http://www.w3.org/2000/svg" viewBox="680.64 17.08 29.91 87.92">
  <path d="M 700.09842,51.002278 C 696.47166,45.405238 696.17594,45.408985 688.8561,51.144694 683.72685,55.163887 682.63643,54.893474 683.23206,49.75 684.36688,39.95035 695.49616,21.075895 699.42918,22.280852 703.68831,23.585722 708.5482,45.621 706.36971,53.75 705.43478,57.238683 703.62592,56.446143 700.09842,51.002278 z M 689.15493,97.061873 C 685.81996,91.1281 684.02287,84.206832 684.01082,77.25 683.99642,68.933634 685.81389,68.728245 691.34294,76.421411 692.66764,78.264614 692.87328,78.193384 696.39526,74.671411 702.47868,68.587988 704.54983,70.356332 702.81576,80.153228 700.84765,91.2724 696.10182,101 692.64519,101 691.94289,101 690.37227,99.227843 689.15493,97.061873 z M 704.68401,44.979749 C 703.9717,38.965423 701.28617,30.111848 699.38589,27.513056 698.05607,25.694421 697.94332,25.70462 695.65951,27.850144 693.1185,30.2373 692.53429,31.279131 688.464,40.68194 686.99218,44.082007 685.95461,47.363818 686.15828,47.974855 686.37331,48.619918 688.2001,47.821384 690.5143,46.070735 695.66032,42.177885 697.18593,42.243917 700.4322,46.5 704.2111,51.454384 705.40047,51.02912 704.68401,44.979749 z M 697.82107,89.658895 C 700.21614,83.144113 701.15337,77.212821 699.90923,76.443901 699.38174,76.117891 697.73616,77.234646 696.25239,78.925578 692.98159,82.653045 691.72871,82.761098 689.59196,79.5 687.05471,75.627678 686.26826,76.510026 687.05957,82.341182 687.73107,87.289504 689.83934,92.732931 692.25766,95.762331 693.77933,97.668516 695.61803,95.651341 697.82107,89.658895 z"/>
</svg>
