<?xml version="1.0" encoding="UTF-8"?>
<svg xmlns="http://www.w3.org/2000/svg" viewBox="1023.07 25.34 24.43 75.24">
  <path d="M 1040.1441,92.5 C 1036.0799,83.655044 1034.806,74.069846 1035.8912,60.5 1036.419,53.9 1037.2685,47.375 1037.779,46 1039.3759,41.698635 1040.1163,37.810086 1039.2346,38.355039 1037.6386,39.34142 1033.0626,49.502764 1031.5317,55.460099 1028.6362,66.727228 1030.2712,83.848659 1034.9685,91.449024 1037.3706,95.335666 1037.1018,97.159283 1034.4511,94.959398 1028.0336,89.633339 1025.07,70.289317 1028.581,56.644345 1031.4182,45.618479 1040.2889,30 1043.714,30 1045.3097,30 1045.4979,28.762429 1042.0882,40.691338 1037.1054,58.12406 1037.1078,77.780176 1042.0942,90.155055 1042.6826,91.615335 1043.0014,93.865335 1042.8028,95.155055 1042.499,97.126863 1042.076,96.70438 1040.1441,92.5 z"/>
</svg>
