<?xml version="1.0" encoding="UTF-8"?>
<svg xmlns="http://www.w3.org/2000/svg" viewBox="74.9 24.67 79.26 81.51">
  <path d="M 102.7966,99.763479 C 100.71811,98.144927 97.008608,91.934441 97.003738,90.064994 97.001682,89.27574 98.614961,85.509295 100.5888,81.695114 104.67339,73.802203 104.64098,70.4368 100.43435,65.654302 L 97.931301,62.808605 93.506542,66.887205 C 87.762178,72.182175 85.61047,71.570979 81.527474,63.484537 78.770827,58.024952 78.552952,56.791825 78.527474,46.505168 78.505264,37.538151 78.839708,34.894392 80.273053,32.706469 81.248232,31.217911 82.710732,30 83.523053,30 84.712253,30 85.018786,31.802138 85.096426,39.25 85.201505,49.330058 86.872013,59.147089 88.576472,59.701093 89.168532,59.893532 90.879217,58.914511 92.377994,57.525491 95.261984,54.852699 95.822209,54.674582 100.37598,54.982619 L 103.25197,55.177163 102.52773,48.414318 C 102.1294,44.694753 101.57456,41.054891 101.29476,40.325736 100.69628,38.766139 98.385175,38.567757 97.5,40 96.250616,42.021546 93.047742,41.038399 92.393725,38.432589 91.61975,35.348826 93.044427,29.818524 94.76015,29.246617 95.436779,29.021074 97.320895,30.167048 98.947073,31.793227 L 101.90376,34.749916 105.39883,32.374958 C 109.64588,29.489013 110.20106,29.459698 112.5,32 114.89006,34.640983 116.90314,34.522567 121,31.5 125.07341,28.494733 126.59316,28.371287 127.96482,30.934259 129.332,33.488862 129.29019,40.309809 127.89882,41.701177 126.7542,42.845797 123.05591,42.170659 119.2174,40.116349 116.92109,38.887399 116.74013,39.351241 115.45908,49.75 114.76266,55.403175 115.55693,56.252058 118.5,53 120.9896,50.249023 121.84511,50.423256 128.40257,55.016774 131.55634,57.225999 134.55594,58.774442 135.06835,58.457757 135.58076,58.141072 136,56.403375 136,54.596209 136,50.251204 138.96111,41.448449 142.39205,35.593998 144.52499,31.9544 145.64888,30.951555 147.327,31.190539 149.23894,31.462822 149.53831,32.220821 149.81892,37.5 150.55882,51.419847 143.07893,71 137.02147,71 136.12502,71 133.3429,69.700776 130.83898,68.112836 123.80696,63.653262 122.18364,63.386804 121.00078,66.497958 119.39326,70.726045 119.80987,73.435458 123,79.5 124.7969,82.915971 126,86.71752 126,88.979422 126,94.245678 123.43814,100 121.09357,100 118.84018,100 118,98.120406 118,93.079242 118,89.242463 113.51938,81.78135 111.55862,82.353088 111.04086,82.504062 109.29061,84.266683 107.66917,86.270025 104.98231,89.589729 104.82933,90.173743 105.94254,92.861287 108.18832,98.283073 106.27794,102.47444 102.7966,99.763479 z M 123.33919,91.267851 C 123.80714,88.762357 123.16241,86.538392 120.47143,81.375699 116.53864,73.830572 116.34793,72.274297 118.62531,66.311048 120.88498,60.39418 122.94545,60.064823 130.09486,64.477687 133.35905,66.492464 136.79839,67.992893 137.73782,67.811974 141.49029,67.089316 146.36937,54.726226 147.57493,42.885768 148.40184,34.764241 147.08373,33.405252 143.55357,38.739685 141.42342,41.958561 139.32006,48.791832 137.43095,58.630508 136.7121,62.374386 133.46338,62.101269 126.98701,57.752495 L 120.94975,53.698577 118.66043,55.849288 C 115.88418,58.457434 114.37181,58.56722 113.14034,56.25 112.24363,54.562687 112.31043,52.000113 113.51976,41.694179 114.00912,37.52393 113.7806,36.635639 111.79185,34.977448 108.93922,32.598967 108.06775,32.59281 105.26511,34.931329 103.17738,36.673328 103.09863,37.166193 104.06915,42.416268 104.64057,45.50735 104.97127,50.165723 104.80405,52.768208 L 104.5,57.5 99.864502,57.5 C 96.141137,57.5 94.687711,58.041122 92.478138,60.25 89.337864,63.389286 89.02317,63.468646 86.636164,61.723224 84.190403,59.93484 83.054189,54.070501 83.008544,43 82.9817,36.489491 82.664329,33.972025 82,35 81.466844,35.825 81.023735,41.024145 81.015313,46.553656 81.001803,55.423262 81.309735,57.228869 83.629934,61.884901 85.076397,64.787575 86.883419,67.401769 87.645538,67.694222 88.416373,67.990019 91.060278,66.355622 93.604174,64.010741 L 98.17714,59.795528 101.17048,62.647764 C 104.29571,65.625677 107,70.93262 107,74.087701 107,75.1016 105.425,78.796515 103.5,82.298623 99.464714,89.639926 99.272202,91.031376 101.95579,93.459988 103.86622,95.188903 103.89877,95.151027 103.35932,91.826812 102.8877,88.920566 103.41549,87.653957 106.97407,83.152016 109.26593,80.252605 111.67184,78.053677 112.32054,78.265509 112.96924,78.477341 115.18523,80.86676 117.24496,83.575329 120.10392,87.334893 120.99112,89.434514 120.99496,92.45 121.00069,96.939137 122.41299,96.226942 123.33919,91.267851 z M 97.8,37.8 C 99.567766,36.032234 99.264369,34.211854 97,33 95.175311,32.023456 95,32.23951 95,35.464816 95,39.162093 95.78403,39.81597 97.8,37.8 z M 126.63923,38.497764 C 127.46651,36.341905 126.18304,31.994023 124.73095,32.033269 123.43134,32.068394 119,35.428141 119,36.378355 119,37.005439 124.07302,39.898047 125.28138,39.959962 125.71115,39.981983 126.32218,39.323994 126.63923,38.497764 z"/>
</svg>
