<?xml version="1.0" encoding="UTF-8"?>
<svg xmlns="http://www.w3.org/2000/svg" viewBox="446.23 20.63 61.02 79.5">
  <path d="M 504.46875,50.65625 C 503.77071,51.877705 502.9817,52.61022 501.8125,53.28125 497.70741,55.637245 496.61534,55.457065 492.5,51.84375 489.35345,49.081042 488.62351,48.84774 486.4375,49.84375 485.07054,50.466579 483.6934,51.670242 483.375,52.5 483.05659,53.329759 482.32186,54 481.75,54 480.6754,54 481.35478,40.88495 482.59375,37.65625 483.15947,36.182026 483.47269,36.20866 485.75,38 489.01016,40.564435 490.51604,40.524513 492.4375,37.78125 494.82569,34.37163 494.34255,26 491.75,26 491.17326,26 489.16363,27.150569 487.3125,28.5625 L 483.96875,31.125 480.09375,28.0625 C 475.27719,24.247712 474.09832,24.244164 470.5,28 468.9192,29.65 467.21343,31 466.71875,31 466.22406,31 463.86495,29.595822 461.46875,27.875 459.07255,26.154179 456.49356,24.983929 455.71875,25.28125 453.71108,26.051667 452.70034,34.604798 454.25,37.78125 456.08459,41.541729 457.43556,41.516799 461.8125,37.5625 466.24045,33.562109 467.4864,33.219319 468.46875,35.75 469.6059,38.679467 470.38975,51.309075 469.40625,50.84375 461.99193,47.335797 458.42793,46 456.46875,46 453.16575,46 449,51.680262 449,56.1875 449,59.727345 451.49427,66 452.90625,66 453.8323,66 456,61.446147 456,59.5 456,54.953367 463.11352,57.636831 466.53125,63.46875 469.77381,69.001762 470.03523,77.375594 467,79 465.43935,79.835234 463.95513,79.61491 460.375,78.03125 457.83662,76.908403 455.51753,76 455.25,76 454.23436,76 456.26252,85.61831 457.84375,88.3125 459.60095,91.306531 465.69851,95.645236 466.71875,94.625 467.05289,94.290858 465.72693,92.452122 463.78125,90.5625 461.83557,88.672877 459.76109,85.735038 459.15625,84 L 458.03125,80.84375 461.78125,81.0625 C 467.9933,81.43506 468.88288,81.129233 470.46875,78.0625 472.46164,74.208685 472.38072,70.614613 470.1875,64.5 466.62862,54.577981 454.07964,51.046367 453.96875,59.9375 453.93809,62.395455 453.88395,62.433563 452.46875,60.5625 450.39679,57.823131 450.63583,53.710005 453.0625,50.625 455.68347,47.292982 458.06415,47.336177 465.25,50.84375 468.41406,52.388199 471.22656,53.429689 471.5,53.15625 472.4335,52.222748 472.01799,40.882996 470.875,36.34375 469.79446,32.052555 469.87174,31.690761 472.375,29.1875 L 475,26.53125 478.15625,29.6875 C 481.30572,32.836975 481.30895,32.854015 480.15625,38.59375 479.52179,41.752945 479,46.72298 479,49.65625 479,55.674066 480.47089,56.51895 484.96875,53.0625 487.41763,51.180622 487.4526,51.183783 490.96875,53.9375 495.90249,57.801408 497.04902,58.009426 500.75,55.78125 L 503.96875,53.84375 504.46875,50.65625 z M 457.25,28.09375 C 458.0867,27.940096 459.34681,28.740254 461,30.5 L 463.34375,33 461,35.5 C 459.70825,36.875 458.33279,38 457.9375,38 456.82957,38 456,35.179363 456,31.40625 456,29.342907 456.4133,28.247404 457.25,28.09375 z M 490.75,29.03125 C 492.05886,29.007967 492.475,33.62114 491.40625,36.40625 490.4993,38.76973 488.26845,38.343708 486.34375,35.40625 484.68777,32.87889 484.7016,32.720909 487.0625,30.90625 488.40159,29.876985 490.0625,29.04348 490.75,29.03125 z M 503.28125,58.4375 C 501.90868,60.740196 498.75353,63 496.3125,63 495.28248,63 492.96277,61.65 491.15625,60 489.34973,58.35 487.6591,57 487.40625,57 486.51322,57 479,62.280178 479,62.90625 479,63.255488 480.04896,65.116077 481.34375,67.03125 482.63854,68.946424 484.31917,72.180251 485.0625,74.25 L 486.40625,78.03125 480.65625,83.84375 C 474.63671,89.926768 474.20684,91.819178 478.3125,93.78125 484.03025,96.513735 487.38107,95.894908 492.25,91.25 496.43002,87.2623 495.54341,86.4271 490.8125,89.90625 488.50415,91.60383 485.80952,93 484.84375,93 482.7511,93 478,90.934769 478,90.03125 478,89.681154 479.84842,87.611621 482.09375,85.4375 484.33908,83.263378 486.79275,80.309749 487.5625,78.84375 488.8535,76.385016 488.68935,75.649827 485.53125,69.375 483.01642,64.378307 482.40586,62.223068 483.1875,61.28125 484.81545,59.31969 487.039,59.743374 489.59375,62.5 492.21881,65.332482 496.13538,65.709219 500,63.5 501.16293,62.835212 502.13484,62.42303 502.71875,62.25 L 503.28125,58.4375 z"/>
</svg>
