<?xml version="1.0" encoding="UTF-8"?>
<svg xmlns="http://www.w3.org/2000/svg" viewBox="274.28 23.33 29.09 79.16">
  <path d="M 278.65625,78.21875 278.25,84.125 C 278.82393,82.642946 279.61033,82.824082 282.34375,83.8125 290.02309,86.589383 291.11755,85.432874 293.5625,72 295.90437,59.133459 295.02155,44.584053 291.6875,41.25 290.36968,39.932186 289.65492,39.881991 287.03125,40.96875 282.44641,42.867852 282.01738,44.393656 286.28125,43.59375 288.39668,43.196893 290.08957,43.355221 290.46875,43.96875 292.12264,46.644791 292.61911,59.941365 291.375,68.34375 289.17088,83.229704 288.75181,83.832024 282.34375,80.71875 280.27367,79.713026 279.22626,79.063981 278.65625,78.21875 z M 277.5625,89.3125 276.28125,93.15625 C 277.20615,93.249682 278.63363,94.006178 281,95.5 286.37994,98.896205 292.23814,98.892056 295.1875,95.5 L 297.34375,93 297.75,93.25 298.65625,90.03125 C 297.82758,88.856377 297.96008,87.62592 298.96875,86.03125 299.37749,85.385048 299.6618,85.115151 300.0625,85.15625 L 301.34375,80.65625 301.375,80.625 C 300.77765,78.088145 300.64174,73.495963 300.53125,61 300.34105,39.488365 299.5469,34.483563 295.6875,30.25 293.16249,27.480189 285,26.929455 285,29.53125 285,30.516686 285.80823,30.998911 287.25,30.875 291.88388,30.476746 293.02135,31.107156 295.1875,35.25 297.26772,39.228514 297.39243,40.80952 297.4375,60 297.48712,81.127713 296.33323,90.55503 293.1875,94.25 291.15476,96.637662 289.89528,96.465549 282.90625,92.9375 279.3392,91.136857 278.00595,90.337758 277.5625,89.3125 z M 289.59375,33.34375 C 289.32805,33.175776 288.92525,33.207094 288.40625,33.40625 287.53627,33.740094 286.18627,34 285.40625,34 284.62624,34 284,34.45 284,35 284,35.55 285.35,36 287,36 289.08877,36 290,35.525127 290,34.40625 290,33.878989 289.85945,33.511724 289.59375,33.34375 z"/>
</svg>
