<?xml version="1.0" encoding="UTF-8"?>
<svg xmlns="http://www.w3.org/2000/svg" viewBox="151.91 25.77 21.06 75.82">
  <path d="M 156.67638,94.25 C 154.11068,88.337802 153.90929,76.935237 156.11444,62.433072 159.41618,40.719111 162.55357,29.22024 164.61414,31.280811 164.87874,31.545406 163.95986,36.240876 162.5722,41.715188 157.73811,60.78556 155.75517,84.898396 158.38604,92.619579 160.26884,98.145293 160.24816,98 159.15187,98 158.68541,98 157.57143,96.3125 156.67638,94.25 z M 166.56108,92.098828 C 165.37595,90.181247 164.18737,72.979401 164.61715,63.964956 165.4365,46.779037 167.99321,32 170.14695,32 170.7716,32 170.97055,32.981216 170.62502,34.357895 168.20139,44.014419 166.86401,59.584107 167.27135,73.40124 167.51617,81.705558 168.05775,89.5125 168.47487,90.75 169.22154,92.965221 167.74131,94.00848 166.56108,92.098828 z"/>
</svg>
