<?xml version="1.0" encoding="UTF-8"?>
<svg xmlns="http://www.w3.org/2000/svg" viewBox="1234.01 21.7 31.68 75.74">
  <path d="M 1260.8438,78.34375 C 1259.611,78.956206 1258.3591,78.140209 1257.0938,75.5 1255.9024,73.014357 1255.8597,70.951015 1256.8438,63 1258.2793,51.400697 1258.3667,32.09474 1257,28.5 1255.7245,25.145329 1252.0412,25.420418 1250.3438,29 1249.6567,30.448667 1248.9125,38.649064 1248.5938,48.5 1248.2796,58.208642 1247.4597,67.71517 1246.6562,70.65625 1245.2816,75.688494 1240.7581,83.311366 1237.5938,85.9375 1236.7223,86.660711 1236.0087,87.979844 1236.0312,88.875 1236.0782,90.733878 1242.8891,83.635645 1246.4688,78 1249.516,73.202422 1249.9678,70.291627 1250.8438,48.75 1251.5538,31.286853 1252.481,26.168447 1254.5938,28.28125 1255.5777,29.265285 1255.1595,55.294546 1254,64.625 1253.165,71.345104 1253.23,73.603232 1254.375,76.34375 1255.7987,79.751021 1259.6896,83.317228 1261.0625,82.46875 1261.1727,82.400665 1261.3756,81.966098 1261.5,81.84375 L 1260.8438,78.34375 z M 1263.25,91.1875 1262.4375,92.1875 1258.125,88.59375 C 1252.8126,84.155288 1248.4773,83.798536 1245,87.5 1242.4411,90.22382 1243.4477,90.887143 1246.5625,88.53125 1249.5327,86.284708 1251.5674,86.687151 1256.5625,90.5 1259.0844,92.425 1261.7764,94 1262.5312,94 1262.8801,94 1263.2966,93.624294 1263.6875,93.40625 L 1263.25,91.1875 z"/>
</svg>
