<?xml version="1.0" encoding="UTF-8"?>
<svg xmlns="http://www.w3.org/2000/svg" viewBox="471.31 18.96 75.57 83.82">
  <path d="M 489.75,94.602396 C 485.07568,90.47111 484.96992,88.009775 489.09887,79.448668 L 492.19774,73.023355 490.29473,69.764946 C 489.24807,67.972821 487.64062,66.361889 486.72262,66.185097 484.18245,65.695905 480.79548,71.770195 481.38932,75.75 481.93366,79.398085 481.35625,79.828687 479.3779,77.25 478.19842,75.712588 478.11235,75.911076 478.66945,78.883929 479.1591,81.496909 478.99093,82.163642 477.93128,81.810425 475.74962,81.083208 474.74469,74.107042 476.0859,69 477.2794,64.455421 481.28271,56.561344 482.90115,55.561092 483.38373,55.26284 486.08899,55.978984 488.91284,57.152522 491.73669,58.32606 494.18979,59.109326 494.36419,58.893114 495.17589,57.886792 492.9916,39.959411 491.83082,38.100708 490.1995,35.488543 489.6136,35.486472 486.10504,38.080465 482.15971,40.997369 477.86331,40.371358 476.89966,36.73919 476.16149,33.956925 477.50549,27 478.78115,27 479.15908,27 481.74751,28.193321 484.53322,29.651825 L 489.59814,32.303651 493.94911,29.151825 C 496.34214,27.418321 498.84568,26 499.51253,26 500.17939,26 502.43979,27.362751 504.53565,29.028335 L 508.34632,32.056669 511.47077,29.028335 C 515.11911,25.492219 518.46534,25.132465 520.05635,28.105297 521.48784,30.780054 520.49249,36.244327 518.19505,38.323481 516.57189,39.792423 516.18969,39.76365 513.46461,37.967359 511.83407,36.89256 510.01968,36.010213 509.43262,36.006589 508.08701,35.998282 505.07152,45.433405 504.40746,51.729749 503.78704,57.612301 504.8835,59.667903 507.80708,58.103245 511.03521,56.375603 512.65947,56.76211 516.55885,60.185815 522.14967,65.094624 522.64664,64.456158 528.5349,44.799798 530.10947,39.543516 530.1162,38.973338 528.62123,37.47837 526.4843,35.341441 526.55349,29.763653 528.75,27.096996 531.5423,23.707028 536.43613,22.768622 539.35383,25.063682 542.90109,27.853958 543.44902,31.43994 541.07766,36.345438 539.97306,38.630447 537.54662,45.45 535.68557,51.5 531.67256,64.545654 526.64255,75 524.37877,75 523.50292,75 520.52562,73.2 517.76253,71 512.53847,66.84054 510.23418,66.165822 508.2,68.2 506.2383,70.161699 506.82371,73.902318 509.67809,77.644603 512.00998,80.701864 512.76178,81.079671 515.4937,80.567159 518.00243,80.096519 519.10394,80.481733 520.98993,82.489278 523.9018,85.588826 524.14631,85.58921 527.81763,82.5 530.93176,79.879632 532,79.45114 532,80.822368 532,81.707781 524.32858,87 523.04512,87 522.61865,87 521.00548,86.005551 519.4603,84.790114 517.59502,83.322882 515.56131,82.674101 513.40868,82.85956 510.63435,83.098583 509.79371,82.590302 507.58324,79.337312 504.65435,75.027066 504.26971,70.487648 506.5567,67.222506 508.84233,63.959323 512.16963,64.493772 517.62279,69 520.28509,71.2 523.00857,73 523.67497,73 526.37175,73 530.02526,64.889212 534.03533,50 535.29443,45.325 537.38998,39.427056 538.6921,36.893459 540.51355,33.349358 540.8461,31.725418 540.13397,29.852361 538.71203,26.11237 536.78604,24.962799 533.44039,25.857146 529.27701,26.970086 527.99991,30.987477 530.39544,35.435701 532.39449,39.147707 532.20103,41.036856 528.6992,52 526.50805,58.859794 522.60597,66 521.04827,66 520.53863,66 518.08563,64.23785 515.59718,62.084111 510.99823,58.103749 507.49059,57.557957 506.30838,60.638763 505.15425,63.646385 503.16877,61.862549 502.53408,57.247767 501.85133,52.283635 503.01545,45.292127 505.52466,39.286737 507.51833,34.515224 507.54399,34.598908 502.97771,30.982344 L 498.95541,27.796629 495.48366,30.444669 492.0119,33.092709 493.57546,36.796354 C 495.44199,41.217622 497.04719,57.792325 495.84132,60.192703 495.05428,61.759359 494.60847,61.726449 489.85441,59.750749 L 484.71785,57.616093 482.48462,60.416828 C 480.0848,63.426485 478,69.297206 478,73.045335 478,74.721355 478.75758,73.878502 480.75,69.985795 485.21673,61.258887 488.45927,60.775217 492.11081,68.291173 L 494.22715,72.647239 491.11357,79.741233 C 489.40111,83.64293 488,87.514539 488,88.34481 488,89.893337 494.70253,96 496.40216,96 496.92272,96 496.37019,94.958497 495.17431,93.685549 492.28143,90.606211 492.42891,86.83215 495.58889,83.076725 499.13741,78.859553 501.33953,79.182926 505.21831,84.49077 508.63342,89.164123 512.33878,91.061223 514.27322,89.126784 516.0661,87.333897 519.39665,87.803573 524.29201,90.539642 527.5991,92.38801 529.57934,92.8927 531.56711,92.393799 533.49857,91.909035 534.09094,92.043835 533.59014,92.854157 532.43501,94.723182 525.9968,94.161142 522.28523,91.867267 519.19557,89.957752 518.4394,89.864897 515.06034,90.980086 510.03571,92.638363 507.74013,91.739824 503.36708,86.403095 L 499.70245,81.930901 497.35123,84.139765 C 494.43322,86.881088 494.35895,89.688733 497.12651,92.634668 498.33032,93.916062 498.9948,95.571174 498.6579,96.449119 497.69131,98.968006 493.76954,98.154972 489.75,94.602396 z M 485.25,36.607954 C 486.2125,35.877312 486.99715,34.879124 486.99368,34.389757 486.98691,33.436862 481.44791,30 479.91896,30 478.8706,30 478.65318,36.319844 479.66667,37.333333 480.72586,38.39253 483.34786,38.051884 485.25,36.607954 z M 518.66427,32.681414 C 519.38449,28.243233 517.29394,26.92216 513.49228,29.413102 510.23312,31.548587 510.33097,34.129537 513.75,36.210655 517.00376,38.191173 517.87126,37.568164 518.66427,32.681414 z M 528,88.116577 C 528,87.16027 533.19751,85.87731 533.97104,86.642678 534.67787,87.342044 531.74883,88.967197 529.75,88.984687 528.7875,88.993109 528,88.60246 528,88.116577 z"/>
</svg>
