<?xml version="1.0" encoding="UTF-8"?>
<svg xmlns="http://www.w3.org/2000/svg" viewBox="130.92 24.84 64.26 76.28">
  <path d="M 163.5625 29 C 157.08472 29 152.23774 36.957799 151.125 49.40625 C 150.50332 56.361181 150.44167 56.512846 147.53125 56.84375 C 140.15009 57.682957 133.83842 67.113824 135.9375 74.15625 C 137.5819 79.673248 139.62392 79.758321 142.125 74.4375 C 143.28929 71.960584 145.10425 69.469263 146.15625 68.90625 C 150.32077 66.677464 154.64663 70.734193 153.53125 75.8125 C 153.08769 77.832014 151.63936 79.124448 147.71875 81 C 139.34683 85.004979 140.15728 89.177547 150.4375 95.0625 C 153.15344 96.617244 155.78675 97.649363 156.28125 97.34375 C 157.44663 96.623501 156.37204 95.574466 150.375 91.65625 C 144.14305 87.584554 143.57832 84.927305 148.5625 83.125 C 153.95699 81.174327 156 78.65799 156 74 C 156 64.444434 144.77801 62.923261 141.03125 71.96875 C 139.34413 76.041802 138 75.804693 138 71.4375 C 138 64.767253 142.10758 60.063215 148 60 C 149.925 59.979348 151.95 59.654078 152.5 59.25 C 153.05 58.845922 153.60587 54.9 153.75 50.5 C 153.9586 44.131876 154.5622 41.394877 156.71875 37.125 C 161.17301 28.305714 165.48822 28.519971 171.65625 37.8125 L 175.28125 43.28125 L 179.09375 39.125 C 181.1933 36.851205 183.23374 35 183.625 35 C 185.29422 35 188 38.49564 188 40.65625 C 188 43.349195 184.75879 47 182.375 47 C 181.13078 47 180.9072 47.633427 181.375 49.75 C 183.6537 60.059867 183.99765 63.276678 183.4375 69.5 C 182.57593 79.072207 180.32678 86.544377 177.34375 89.78125 C 174.52244 92.84264 174.5339 92.05711 177.53125 84 C 181.34114 73.758747 177.39972 52.322108 170.21875 44.28125 C 164.56425 37.949658 159.32136 42.21617 158.25 54.03125 C 157.77333 59.288065 158.00223 60.379523 159.90625 62.40625 C 165.09415 67.928524 164.64081 76.650215 158.96875 80.84375 C 154.39666 84.224042 154.90502 87.864121 160.5625 92.5 C 163.06764 94.552777 165.33558 95.976917 165.625 95.6875 C 166.29827 95.014226 164.18532 91 163.15625 91 C 161.98257 91 158 87.066705 158 85.90625 C 158 85.346671 159.3225 83.668996 160.9375 82.1875 C 166.87315 76.742508 167.70128 68.798178 163.03125 61.90625 C 161.39126 59.485985 160.04126 56.336677 160.03125 54.90625 C 160.00797 51.579092 161.87723 45.933645 163.625 44.0625 C 164.79867 42.805977 165.35155 42.957383 167.875 45.375 C 171.94246 49.271875 175.17604 58.827475 175.90625 69.125 C 176.60677 79.003845 175.68641 86.019346 173.5 87.625 C 171.45497 89.126831 171.50479 94 173.5625 94 C 182.32685 94 188.63544 72.775943 185.09375 55.1875 L 184.03125 49.84375 L 187.5 46.5625 C 191.91951 42.394372 192.25735 38.116353 188.375 35.0625 C 184.57785 32.075657 181.57678 32.445946 178.59375 36.25 L 176.0625 39.5 L 174.3125 37 C 170.41906 31.375762 167.21979 29 163.5625 29 z "/>
</svg>
