<?xml version="1.0" encoding="UTF-8"?>
<svg xmlns="http://www.w3.org/2000/svg" viewBox="1356.5 18.32 44.52 80.96">
  <path d="M 1389.3393,93.065259 C 1387.6009,92.005263 1385.8832,90.207439 1385.5222,89.070094 1385.0565,87.602762 1383.6967,86.815236 1380.8402,86.35845 1378.626,86.00439 1375.4659,84.580004 1373.8177,83.193149 1371.3598,81.124939 1370.6601,80.92585 1369.9258,82.085797 1369.4335,82.863609 1369.0237,84.201492 1369.0153,85.05887 1369.0069,85.916249 1368.3393,87.491249 1367.5318,88.55887 1366.0924,90.461895 1366.063,90.458229 1366.0318,88.372124 1366.0143,87.201792 1366.6948,84.58126 1367.5441,82.54872 1369.1983,78.58962 1368.7037,74.792715 1366.6371,75.585747 1364.9852,76.219669 1363,81.806111 1363,85.820998 1363,87.980111 1362.5188,89 1361.5,89 1358.5255,89 1359.668,81.818959 1363.5,76.42922 1368.104,69.953536 1368.2266,65.336548 1363.9383,59.922058 1360.1916,55.191481 1359,51.277031 1359,43.699422 1359,35.04633 1360.7896,29.277065 1364.6808,25.385883 1366.543,23.523648 1368.5097,22 1369.0511,22 1369.6775,22 1369.7938,25.97886 1369.371,32.940181 1368.735,43.413098 1369.8692,52.183064 1372.0326,53.520136 1373.5133,54.435277 1382.8816,47.55409 1382.9515,45.5 1383.0466,42.704659 1387.3267,33.950198 1389.9183,31.25 1391.1061,30.0125 1392.969,29 1394.058,29 1395.7211,29 1395.9261,29.440268 1395.3383,31.75 1394.4028,35.426104 1394.4162,40.092335 1395.386,48.400628 L 1396.1914,55.301256 1391.2911,54.720879 C 1388.5959,54.401672 1385.8889,54.450633 1385.2756,54.829682 1384.6623,55.208732 1383.2463,57.838075 1382.129,60.672668 1379.5024,67.33646 1380.1855,72.136846 1384.2466,75.554063 L 1387.2236,78.059014 1391.5399,75.529507 C 1395.4444,73.241297 1399,72.257837 1399,73.466073 1399,73.722413 1398.2674,75.468412 1397.372,77.346071 1395.9947,80.234271 1395.9138,81.723573 1396.8462,87.01723 1397.4524,90.458709 1397.7085,93.66271 1397.4152,94.137232 1396.5113,95.599734 1392.6567,95.088086 1389.3393,93.065259 z M 1369.8787,58.252215 C 1370.5933,56.975306 1370.3293,55.6508 1368.8986,53.335954 1366.478,49.419304 1365.5401,39.694661 1366.7664,31.228397 L 1367.6749,24.956795 1365.4099,27.084671 C 1360.298,31.886988 1360.1278,48.616598 1365.1087,56.675937 1367.429,60.430167 1368.4678,60.773446 1369.8787,58.252215 z M 1394.651,85.75 C 1394.5679,81.7625 1394.8985,77.678914 1395.3856,76.675365 1396.2009,74.995628 1395.9639,75.015481 1392.4004,76.925365 1387.1487,79.740129 1384.3817,79.535587 1380.9231,76.076923 1376.6815,71.835367 1376.8096,65.389781 1381.2831,57.955763 1384.6942,52.2872 1385.5367,51.911836 1391.3189,53.484637 L 1394.1378,54.251399 1393.3189,50.375699 C 1392.8685,48.244065 1392.5608,43.017879 1392.6352,38.761953 1392.7114,34.39864 1392.3781,31.266345 1391.8709,31.579802 1390.2246,32.597242 1387.062,39.760162 1386.3823,44.010613 1385.8594,47.280798 1385.0274,48.607584 1382.6058,50.033311 1372.9852,55.697468 1371.3887,57.841434 1370.3761,66.456998 1369.4909,73.988404 1372.4411,80.066914 1378.3758,82.939892 1380.7164,84.072951 1383.2335,85 1383.9693,85 1384.7052,85 1386.969,86.8 1389,89 1391.031,91.2 1393.1673,93 1393.7474,93 1394.4037,93 1394.745,90.262315 1394.651,85.75 z"/>
</svg>
