<?xml version="1.0" encoding="UTF-8"?>
<svg xmlns="http://www.w3.org/2000/svg" viewBox="1285.78 19.01 31.79 78.56">
  <path d="M 1291.4877,91.344822 C 1288.8195,88.676679 1288.0314,85.448629 1287.9082,76.683263 1287.7825,67.742459 1288.8019,64.293624 1294.1293,55.635481 1297.2134,50.623076 1297.2135,50.62258 1296.0347,43.315248 1295.0374,37.132984 1295.1,35.167883 1296.4411,30.554708 1297.3129,27.555605 1298.5413,24.783523 1299.1707,24.394525 1299.9761,23.896762 1300.0983,24.400068 1299.5834,26.093628 1298.0347,31.187446 1297.8033,38.157973 1298.9767,44.376486 L 1300.1984,50.851283 1297.0487,55.429184 C 1291.9409,62.853138 1290.046,67.954538 1290.022,74.346093 1289.9956,81.350591 1292.5862,91 1294.493,91 1295.2362,91 1297.4287,89.148756 1299.3655,86.886125 1306.8614,78.128817 1309.3512,68.095999 1306.4588,58.303426 1305.5161,55.111542 1304.7914,50.959631 1304.8484,49.076959 1304.982,44.668309 1308.7247,33.296764 1311.2096,29.75 1313.9657,25.815985 1315.5699,26.341865 1313.0838,30.364412 1311.9402,32.214839 1310.1476,37.157717 1309.1003,41.348586 1307.2176,48.88286 1307.2185,49.05538 1309.1835,56.725797 1310.9315,63.549435 1311.0245,65.206511 1309.9561,70.491623 1308.5853,77.272754 1305.8599,82.539155 1300.507,88.75 1296.5915,93.29321 1294.141,93.998181 1291.4877,91.344822 z M 1301.2641,38.730462 C 1301.8697,32.862384 1305.8814,22.584334 1306.7074,24.784421 1306.9726,25.490853 1306.5139,27.757698 1305.688,29.821855 1304.862,31.886012 1303.8675,35.701056 1303.4778,38.29973 1302.4318,45.274484 1300.5509,45.64047 1301.2641,38.730462 z"/>
</svg>
