<?xml version="1.0" encoding="UTF-8"?>
<svg xmlns="http://www.w3.org/2000/svg" viewBox="564.53 21.45 28.47 78.1">
  <path d="M 566.53125,83.875 567.4375,87.96875 C 567.44635,87.969076 567.46008,88 567.46875,88 569.14023,88 575.15051,79.746846 578.125,73.34375 579.54716,70.282323 580.47236,66.112482 580.65625,62 L 580.9375,55.5 579.59375,62 C 578.04714,69.361898 574.17846,78.058446 570.5,82.5 L 568.03125,85.5 566.53125,83.875 z M 568.5,92.8125 569.1875,95.90625 C 569.2695,95.915334 569.46194,96 569.53125,96 572.2723,96 579.30633,87.773632 582.0625,81.34375 584.87882,74.773551 587.27884,57.13155 586.5,48.78125 585.92985,42.668458 586.11062,41.736809 588.4375,38.3125 590.29692,35.576116 591,33.247779 591,29.78125 591,27.158924 590.55,25 590,25 589.45,25 589,27.092072 589,29.65625 589,32.847073 588.21077,35.68372 586.46875,38.65625 584.1986,42.529961 583.95886,43.837056 584.34375,50.625 584.86638,59.842118 581.9908,75.137672 578.34375,82.5 575.09723,89.053779 571.90696,92.41818 568.5,92.8125 z M 580.90625,25 C 580.19585,25 580.03877,26.361234 580.46875,28.90625 581.34273,34.079293 579.90558,34.680084 576.09375,30.78125 572.03773,26.632652 570.47202,27.94707 571.46875,34.59375 572.01911,38.263852 573.06207,40.185973 576.09375,43.1875 579.33514,46.396658 580,47.750836 580,51.03125 580,53.209996 580.225,55 580.5,55 580.775,55 581,52.96553 581,50.46875 581,46.492683 580.50345,45.434083 577,42 573.97636,39.036224 573,37.304433 573,34.875 L 573,31.65625 575.3125,33.8125 C 579.67252,37.908523 581.96736,36.016949 582,28.25 582.00751,26.4625 581.5046,25 580.90625,25 z M 585,26 C 584.45,26 584,27.323305 584,28.9375 584,30.551696 583.55437,33.073156 583,34.53125 582.23721,36.537534 582.28764,37.060369 583.21875,36.75 585.41179,36.018987 587.07175,26 585,26 z"/>
</svg>
