<?xml version="1.0" encoding="UTF-8"?>
<svg xmlns="http://www.w3.org/2000/svg" viewBox="331.2 8.24 79.84 94.17">
  <path d="M 397.5625,78.90625 394.78125,76.0625 396.84375,71.78125 C 400.737,63.712307 403.26759,53.762239 403.25,46.5 403.23727,41.247215 403.71838,38.667362 405.21875,36.1875 406.47696,34.107897 407.21875,31.127801 407.21875,28.125 407.21875,17.265654 400.35933,12.515665 393.9375,18.9375 391.32158,21.553412 390.99665,22.525427 391,28.1875 391.00276,32.858591 391.56776,35.414284 393.125,37.96875 395.49813,41.861579 395.29502,47.233893 392.46875,56.75 390.51408,63.331433 389.09844,63.457023 382.5,57.53125 379.75366,55.064878 377.05815,53.039878 376.5,53.03125 375.94186,53.022623 373.80236,53.9 371.75,55 369.69763,56.1 367.85742,57 367.65625,57 367.45508,57 367.25108,52.494295 367.21875,47 367.16225,37.396696 367.24658,36.937946 369.75,34.96875 373.15929,32.287001 375.1625,32.764014 377,36.71875 378.76088,40.508591 381.65539,41.008754 382.90625,37.71875 384.0826,34.62473 383.42344,24.227941 381.9375,22.4375 380.02931,20.138275 376.82583,20.734468 370.46875,24.5625 L 364.53125,28.125 362.75,25.8125 C 358.2514,19.969333 357.04729,19 354.3125,19 350.00072,19 344.52899,24.025611 343.03125,29.375 342.34359,31.83109 342.11226,34.341374 342.5,34.96875 343.97627,37.357407 347.84543,37.978669 352.125,36.46875 354.42551,35.657084 356.55491,35.211169 356.84375,35.5 358.47318,37.129434 359.65762,57 358.125,57 357.63787,57 355.95037,56.321611 354.375,55.5 350.02285,53.230198 347.12854,53.679935 343.96875,57.0625 338.19635,63.241872 334.83111,78.078229 336.9375,88.15625 338.4369,95.330118 339.38132,96.768983 341.4375,95.0625 342.49265,94.186806 343,94.123616 343,94.875 343,95.492345 343.43945,96 343.96875,96 344.54463,96 344.69171,93.489913 344.34375,89.75 343.89894,84.969003 344.26199,81.796412 345.90625,76.28125 347.08846,72.31589 348.48748,68.816755 349,68.5 350.13954,67.795723 354.61871,74.468185 355.53125,78.21875 356.05172,80.357875 355.53552,81.800215 353.125,84.84375 349.50372,89.415985 347.81914,93.39995 348.625,95.5 349.63278,98.126241 352.80009,97.133984 356.625,93 358.66051,90.8 360.8071,89.021242 361.40625,89.03125 362.0054,89.041259 364.49908,90.379065 366.9375,92.03125 371.62245,95.205602 372.76175,95.320492 374.34375,92.8125 375.0561,91.683181 374.43844,89.412459 372.125,84.46875 369.25675,78.339449 369.06455,77.326879 370.09375,74.09375 373.6048,63.064093 375.99583,61.636562 380.75,67.75 385.34954,73.664598 385.37664,73.826014 382.59375,78.03125 379.78711,82.272365 379.54445,83 380.875,83 381.35192,83 382.94404,81.163024 384.4375,78.90625 386.42734,75.899404 386.97781,74.091228 386.5,72.1875 385.72603,69.10375 377.91579,61 375.71875,61 373.99094,61 369.63866,67.917486 367.4375,74.15625 366.02941,78.1472 366.09419,78.447492 369,83.8125 373.23068,91.623604 372.88594,92.544743 367.125,89 364.45167,87.355084 361.94256,86 361.53125,86 361.11995,86 358.82223,88.12145 356.4375,90.71875 354.05277,93.31605 351.80919,95.152936 351.4375,94.78125 350.21559,93.559338 351.98809,89.099659 355.09375,85.5625 356.84665,83.566066 358.17304,80.888904 358.21875,79.28125 358.3162,75.853991 355.06119,69.306333 351.71875,66.1875 L 349.25,63.875 347.21875,67.1875 C 344.22068,72.092164 342,80.598335 342,87.1875 342,93.705787 340.42201,95.008397 339.5,89.25 339.16976,87.1875 338.69739,84.598049 338.46875,83.5 337.71726,79.890932 340.19277,67.587642 342.625,62.78125 346.07575,55.96213 347.84625,55.336724 354.6875,58.46875 357.77513,59.882317 360.53533,60.80842 360.8125,60.53125 361.55186,59.79189 361.34066,44.009589 360.53125,39.21875 359.55235,33.424679 358.05107,32.454546 352.53125,34 346.22418,35.765871 344.62593,34.921847 345.4375,30.25 346.12887,26.2701 351.05745,21 354.09375,21 355.00697,21 357.62487,23.025 359.90625,25.5 362.18762,27.975 364.52283,30 365.09375,30 365.66468,30 367.77447,28.669057 369.8125,27.03125 371.85053,25.393444 374.98193,23.759865 376.75,23.40625 379.61731,22.83279 380.07294,23.073221 381.03125,25.59375 381.62217,27.147996 381.8223,30.126142 381.46875,32.21875 L 380.8125,36.03125 378,33 C 376.4536,31.344569 374.56158,30 373.78125,30 373.00091,30 370.55213,31.547202 368.34375,33.4375 L 364.34375,36.875 364.75,48.1875 C 364.98016,54.409702 365.47942,59.836164 365.875,60.25 366.27057,60.663835 368.13448,59.876335 370,58.5 374.53567,55.153683 376.93828,55.335717 380.71875,59.34375 384.44409,63.293326 389.61945,65.755557 391.09375,64.28125 391.63947,63.735533 393.21381,60.048868 394.5625,56.0625 396.96779,48.95307 397.91076,38 396.125,38 394.73388,38 392.73791,32.337519 392.625,28.03125 392.50694,23.528882 395.54445,18.667209 398.75,18.1875 404.29126,17.358252 407.4132,30.670773 403,36.28125 401.47984,38.21382 401.00533,40.335617 401,45.15625 400.99187,52.518541 397.90336,66.277696 395,71.96875 393.89419,74.13631 393,76.566887 393,77.34375 393,77.988111 394.50775,79.697152 396.25,81.5 L 397.5625,78.90625 z M 394.125,85.78125 C 390.91072,83.844195 388.95092,83.204848 387.03125,84 382.81566,85.746156 383.24091,87.132279 387.78125,86.40625 389.94164,86.060789 391.42465,86.4956 393.21875,87.53125 L 394.125,85.78125 z"/>
</svg>
