<?xml version="1.0" encoding="UTF-8"?>
<svg xmlns="http://www.w3.org/2000/svg" viewBox="676.22 18.29 32 81.63">
  <path d="M 679.5 53.5 L 679.5 57.6875 C 679.93004 57.887846 680 58.62393 680 60.40625 C 680 61.797851 679.87629 62.689315 679.5 63.28125 L 679.5 66.03125 C 679.51494 66.029836 679.6136 66 679.625 66 C 679.90104 66 680.07722 72.1875 680 79.75 C 679.83375 96.031908 679.84624 96.206375 681.125 93 C 682.38056 89.851783 683.01751 50.328943 682 39 C 681.32186 31.449482 681.47004 30.139523 683.25 27.1875 L 685.25 23.84375 L 688.6875 27.15625 C 691.13178 29.525339 691.9402 31.088865 691.5625 32.59375 C 691.27177 33.752099 690.75926 45.447862 690.4375 58.59375 C 690.11575 71.739638 689.83159 83.175 689.78125 84 C 689.73091 84.825 689.77164 87.525 689.875 90 C 690.02865 93.678871 690.26392 94.167828 691.125 92.6875 C 691.7043 91.691594 691.92942 90.30562 691.65625 89.59375 C 691.38308 88.88188 691.60893 81.823474 692.15625 73.90625 C 692.70357 65.989026 693.13533 53.794762 693.09375 46.8125 C 693.01918 34.292779 693.638 31.703357 696.28125 33.78125 C 696.94466 34.302761 698.72826 35.019205 700.21875 35.375 C 702.29696 35.871086 703.17121 35.552733 703.96875 34.0625 C 706.21417 29.866897 704.20929 22 700.90625 22 C 699.93673 22 697.75469 23.169858 696.0625 24.59375 L 693 27.1875 L 689.9375 24.59375 C 688.24531 23.169858 686.47279 22 686.03125 22 C 685.5897 22 683.64867 23.926031 681.71875 26.28125 L 678.21875 30.5625 L 679.0625 38.53125 C 680.01474 47.622382 680.17728 51.505979 679.5 53.5 z M 699.90625 24.25 C 700.43031 24.279972 700.82515 24.733568 701.5 25.625 C 702.28681 26.664317 702.95125 28.7375 702.96875 30.25 C 702.99423 32.45339 702.55277 32.993115 700.75 32.96875 C 695.02354 32.891357 693.0742 28.295375 697.53125 25.375 C 698.72835 24.590628 699.38219 24.220028 699.90625 24.25 z M 687 33.5 C 686.61662 33.263059 686.28856 40.364505 686.25 49.28125 C 686.21145 58.197996 685.85064 69.325 685.46875 74 C 685.08686 78.675 684.68966 85.3125 684.5625 88.75 C 684.43533 92.1875 684.69475 95 685.15625 95 C 685.61776 95 686.05329 93.7625 686.125 92.25 C 686.49647 84.413899 686.83974 79.147338 687.875 65 C 688.95228 50.278533 688.50618 34.430873 687 33.5 z "/>
</svg>
