<?xml version="1.0" encoding="UTF-8"?>
<svg xmlns="http://www.w3.org/2000/svg" viewBox="732.55 20.09 63.01 85.88">
  <path d="M 745.8125,24 C 743.14604,23.993263 740.90168,33.996778 742.59375,38.40625 743.41219,40.539085 746.27817,40.4089 751,38 753.15618,36.9 755.39782,36 756,36 758.2734,36 762,46.791538 762,53.40625 762,59.058813 761.72312,59.938836 759.53125,61.375 755.89827,63.755425 755.28444,63.478547 751.875,57.9375 749.09723,53.423039 748.42102,52.915566 745.65625,53.1875 741.5776,53.588663 736.92149,60.886703 736.25,67.875 735.41117,76.604884 739.86568,80.463225 741.875,72.75 743.63896,65.978615 744.12365,65.599118 748.4375,67.65625 752.12348,69.413971 752.1427,69.501875 751.5,73.96875 751.14178,76.458389 749.77331,80.168042 748.4375,82.21875 747.10169,84.269458 746,86.91784 746,88.09375 746,89.922284 746.39807,90.136907 748.75,89.5625 755.45749,87.924347 755.53292,87.971291 755.25,94.25 754.97361,100.38358 756.33591,102.07044 757.375,96.875 758.44879,91.506028 758.06642,88.909356 755.75,85.65625 754.13503,83.388222 753.6011,81.387507 753.8125,78.5 754.59717,67.782449 754.90063,68.706719 749.65625,66 L 744.8125,63.5 743.15625,65.90625 C 742.24537,67.225379 740.99629,69.700379 740.375,71.40625 L 739.25,74.5 738.5,71.75 C 737.49668,67.963591 738.61494,62.887601 741.3125,58.875 744.74059,53.775738 747.0171,54.002092 751.0625,59.9375 754.78461,65.398559 757.01196,66.181666 760.59375,63.1875 766.45535,58.287547 766.4608,51.109088 760.5625,36.875 760.07849,35.706962 761.19377,34.146704 764.5,31.4375 L 769.125,27.65625 771.71875,30.25 774.3125,32.875 772.65625,38.1875 C 769.85728,47.137328 768.89,57.892814 770.59375,61.1875 772.32809,64.541347 774.63132,64.743443 779.75,62 784.36121,59.528539 785.23739,59.512971 787.375,61.875 789.59741,64.330743 790.43193,69.632658 789.25,74 L 788.28125,77.5 787.09375,73.21875 C 785.6185,67.924965 782.66753,66.247644 777.21875,67.59375 773.8372,68.429155 773.4408,68.871089 772.9375,72.5 772.24816,77.470208 770.69136,80.511752 766.5,85 764.16025,87.50549 763.04539,89.849692 762.5625,93.25 761.85245,98.249948 763.49461,100.19191 764.46875,95.5 764.75423,94.125 765.25955,91.819615 765.5625,90.375 L 766.09375,87.75 768.625,90.125 C 770.01993,91.432115 771.91679,93.7375 772.8125,95.25 774.84216,98.677295 776.34692,98.722703 777.84375,95.4375 780.0505,90.594219 778.48523,83.547334 774.59375,80.8125 773.9956,80.39213 774.12413,78.512757 774.9375,75.8125 775.65426,73.432945 776.40086,70.9375 776.59375,70.25 777.05602,68.602355 781.13921,68.663197 783.4375,70.34375 784.43915,71.076178 785.53205,73.390099 785.875,75.5 786.69293,80.531973 788.2219,80.884034 790.3125,76.5 792.69105,71.512134 792.4647,65.980958 789.71875,61.90625 786.85898,57.662642 785.05727,57.322914 779.65625,59.9375 777.29552,61.080314 774.85962,62 774.21875,62 771.77459,62 771.56499,57.634349 773.40625,43.5 773.74145,40.926903 776.04881,34 776.5625,34 776.77876,34 778.99933,35.456116 781.5,37.21875 L 786.03125,40.40625 788.21875,38.21875 C 791.83792,34.59958 790.49716,26 786.3125,26 785.51528,26 782.93569,27.12753 780.59375,28.5 L 776.34375,31 774,28.5 C 770.922,25.223619 768.19713,25.354513 763.96875,28.96875 762.06452,30.596398 759.95759,31.946398 759.28125,31.96875 758.6049,31.991103 755.6799,30.197633 752.78125,28 749.88259,25.802366 746.74915,24.002366 745.8125,24 z M 746.5625,27.5625 C 747.02154,27.536507 747.68772,27.839692 748.84375,28.4375 750.30392,29.192586 752.33115,30.724841 753.34375,31.84375 755.15552,33.845736 755.11406,33.902432 751.125,35.9375 746.57324,38.259632 746.57584,38.26334 745.65625,37.34375 744.82762,36.515126 744.78833,30.692641 745.59375,28.59375 745.85392,27.915748 746.10346,27.588493 746.5625,27.5625 z M 785.375,28.625 C 787.55286,28.22439 788.13455,29.681027 787.8125,33.53125 787.42527,38.160826 786.46034,38.570018 782.25,35.875 778.05939,33.192608 778.15964,31.769282 782.65625,29.625 783.76316,29.09715 784.64905,28.758537 785.375,28.625 z M 772.625,82.15625 C 773.48523,82.316242 774.41247,83.340041 775.4375,85.25 776.3968,87.0375 777.02895,89.956182 776.84375,91.71875 L 776.5,94.90625 772.71875,90.71875 C 769.33413,86.978597 769.04379,86.270264 770.125,84.25 770.96185,82.686325 771.76477,81.996258 772.625,82.15625 z M 751.03125,83.15625 C 751.39453,83.174925 751.68743,83.467576 752.0625,84.0625 752.6795,85.04118 752.42134,85.897905 751.28125,86.75 750.36139,87.4375 749.25738,88 748.8125,88 747.42078,88 747.91211,85.307201 749.5625,83.9375 750.21565,83.395432 750.66797,83.137575 751.03125,83.15625 z"/>
</svg>
