<?xml version="1.0" encoding="UTF-8"?>
<svg xmlns="http://www.w3.org/2000/svg" viewBox="978.63 16.37 22.47 84.27">
  <path d="M 987.9375,47.78125 987.71875,51.40625 C 987.84458,51.377138 988.30326,51.015276 988.34375,51.0625 988.54798,51.300667 988.42647,53.671582 988.09375,56.34375 987.88761,57.999258 987.60965,58.895951 987.25,59.78125 L 987,64 986.96875,64.0625 C 987.83428,64.22013 988.01378,65.140318 987.625,67.75 987.31774,69.8125 986.77364,74.2 986.4375,77.5 986.10137,80.8 985.61076,84.2875 985.34375,85.25 985.05812,86.279614 984.46655,86.67278 983.71875,86.75 L 983.28125,89.375 C 984.15732,90.139538 984.19113,92.142613 983.09375,93.875 982.88054,94.211583 982.58086,94.373907 982.21875,94.4375 L 980.625,96.8125 C 984.5139,96.772371 986.74913,90.970393 988.625,77.46875 990.65973,62.823751 991.12572,26.75178 989.3125,24.9375 988.41398,24.038459 988.28846,26.419504 988.71875,35.15625 989.15747,44.064358 989.03657,46.321708 987.9375,47.78125 z M 995.9375,94.0625 996.34375,90.65625 C 995.92188,90.756984 995.49554,90.839291 995.28125,90.625 994.92288,90.266633 995.46922,82.872385 996.5,74.21875 999.02185,53.047219 999.09781,34.089699 996.6875,27.84375 994.94959,23.340208 992.48643,20.201076 991.46875,21.21875 991.19913,21.488374 992.11795,24.225435 993.53125,27.3125 995.90158,32.489972 996.12321,34.037713 996.15625,47.21875 996.17595,55.077936 995.88677,62.635068 995.53125,64.03125 994.50218,68.072526 992.46451,89.225589 992.8125,92.25 993.10719,94.811066 993.86999,95.364165 995.9375,94.0625 z"/>
</svg>
