<?xml version="1.0" encoding="UTF-8"?>
<svg xmlns="http://www.w3.org/2000/svg" viewBox="695.8 17.18 48.34 87.01">
  <path d="M 735.53125,89.09375 C 736.414,89.147414 737.35352,89.715023 738.375,90.84375 739.95125,92.585488 739.92766,92.865672 738.25,94.9375 L 736.46875,97.125 734.09375,94.59375 C 732.11472,92.487175 731.91498,91.800966 732.96875,90.53125 733.81145,89.515851 734.6485,89.040086 735.53125,89.09375 z M 720.3125,86.21875 C 721.4086,86.444027 722.51852,87.377778 723.875,89.09375 726.1457,91.966221 726.16786,92.153748 724.46875,94.03125 722.13249,96.612784 719.84455,96.515798 717.1875,93.6875 714.53718,90.866363 714.47779,89.797416 716.84375,87.65625 718.13791,86.485053 719.2164,85.993473 720.3125,86.21875 z M 700.75,86 C 701.71523,86.004811 708,89.824156 708,90.40625 708,90.649051 706.57825,91.572217 704.84375,92.4375 701.01595,94.347062 701.33005,94.325011 700.59375,92.40625 699.7427,90.188441 699.8496,85.995512 700.75,86 z M 723.5625,27.09375 C 724.05211,27.051765 724.46641,27.122656 724.71875,27.375 725.03068,27.686927 724.72697,28.630459 724.03125,29.46875 722.43401,31.393302 720,31.450676 720,29.5625 720,28.455204 722.09366,27.219706 723.5625,27.09375 z M 713.5625,21.28125 C 713.33045,21.331141 713.12889,21.496108 712.90625,21.71875 712.01568,22.60932 712.49044,23.646695 714.9375,26.09375 L 718.15625,29.28125 718.6875,56.40625 719.21875,83.5 715.46875,86.40625 C 712.45312,88.742639 711.38709,89.07704 710.09375,88.15625 709.20911,87.526436 706.79191,86.07582 704.6875,84.9375 699.80473,82.296311 698,83.530812 698,89.5 698,95.793293 699.77884,96.774735 706.15625,94.03125 L 711.28125,91.8125 714.875,95.40625 C 719.13367,99.664924 720.27242,99.79604 724.59375,96.5 726.39647,95.125 728.32822,94 728.875,94 729.42178,94 730.73092,95.125 731.8125,96.5 734.74765,100.23144 738.24143,99.811824 740.3125,95.46875 741.944,92.047456 741.93028,91.833189 739.8125,88.96875 737.21635,85.457263 735.79959,85.299193 731.875,88.09375 L 728.9375,90.1875 725.0625,86.84375 721.15625,83.5 720.9375,70.5 C 720.30627,36.083799 720.30747,35.679304 722.65625,33.28125 726.83532,29.014527 727.97364,26.811042 726.9375,24.875 726.00953,23.141073 725.79205,23.120524 722.375,24.75 L 718.78125,26.46875 716.4375,23.5 C 715.0853,21.804185 714.25865,21.131576 713.5625,21.28125 z"/>
</svg>
