<?xml version="1.0" encoding="UTF-8"?>
<svg xmlns="http://www.w3.org/2000/svg" viewBox="667.67 16.98 39.33 88.43">
  <path d="M 702.12274,31.925861 C 703.26672,27.832137 703.08578,23.998094 701.75,24.027778 701.0625,24.043056 699.2562,25.324358 697.736,26.875115 L 694.97199,29.694675 697.09543,32.394192 C 699.55029,35.515037 701.1617,35.364922 702.12274,31.925861 z M 685.73627,95.75 C 689.41886,91.775782 690.08381,86.257128 690.05634,59.896036 690.04179,45.941288 690.45093,34.025942 690.97849,33.040197 691.70436,31.683885 691.18155,30.298666 688.74939,27.13415 687.00183,24.860367 685.1058,23.016183 684.536,23.035963 683.9662,23.055743 682.21454,24.123385 680.64343,25.408502 L 677.78686,27.745079 679.63554,30.566514 C 681.04653,32.719961 681.46471,35.176873 681.40184,40.943974 681.33363,47.201538 680.61139,50.414079 677.19902,59.638431 670.78108,76.987428 670.60219,87.808482 676.61519,94.954531 679.6661,98.580322 682.85586,98.858508 685.73627,95.75 z M 679.03463,99.693558 C 674.49119,98.128687 671.29608,93.217899 670.45822,86.511863 669.67178,80.217485 672.03536,68.603322 676.97288,54.5 680.71699,43.805477 680.72783,36.01026 677.00516,31.281968 L 674.81487,28.5 679.15743,24.752705 C 681.54585,22.691693 684.26832,21.004193 685.20737,21.002705 686.14642,21.001217 688.17142,22.574987 689.70737,24.499971 691.24332,26.424954 692.88524,27.999954 693.3561,27.999971 693.82695,27.999987 695.97324,26.605227 698.12562,24.900505 702.83402,21.171387 705,21.626989 705,26.346491 705,30.622217 702.40237,37 700.66089,37 699.93915,37 698.29702,35.880619 697.01173,34.512487 692.61987,29.83757 692.24788,31.808957 692.24576,59.769654 692.24365,87.659426 691.78291,90.66263 686.42949,97.681329 683.59932,101.39188 683.8039,101.33621 679.03463,99.693558 z"/>
</svg>
