<?xml version="1.0" encoding="UTF-8"?>
<svg xmlns="http://www.w3.org/2000/svg" viewBox="205.68 19.43 23.52 78.43">
  <path d="M 225.5625 76.28125 L 224.78125 75.625 L 225.40625 62.5625 C 225.74727 55.375336 226.29534 45.415565 226.625 40.40625 C 227.2001 31.66726 227.09888 31.130652 224.46875 27.15625 C 222.96111 24.878065 220.97247 23 220.03125 23 C 219.09002 23 216.51453 24.807205 214.3125 27.03125 L 210.3125 31.09375 L 209.65625 43.78125 C 208.00128 75.662757 207.67688 93 208.78125 93 C 209.39234 93 211.05331 92.45742 212.46875 91.8125 C 214.56153 90.858967 215.71328 90.970146 218.59375 92.34375 C 222.69942 94.301606 224 93.840933 224 90.4375 C 224 88.720362 224.3009 88.091911 225.03125 88.25 L 225.25 82.96875 C 224.61807 82.001797 224.34614 81.247613 224.71875 80.875 C 224.88931 80.704444 225.14583 80.765919 225.34375 80.6875 L 225.5 76.5 L 225.5625 76.28125 z M 219.125 25.5 L 222.125 28.8125 C 224.9656 31.978554 225.08642 32.457296 224.5625 38.8125 C 224.25985 42.483614 223.50717 55.4 222.90625 67.5 C 221.88234 88.117328 220.99395 93.762482 219.40625 89.625 C 219.04444 88.68214 219.24886 79.92411 219.875 70.1875 C 220.50115 60.45089 221.31776 48.1125 221.65625 42.75 C 222.02066 36.976782 221.89341 33 221.34375 33 C 220.83319 33 219.80657 41.4375 219.09375 51.75 C 217.44775 75.562712 217.27887 78.489073 217.125 84.125 C 217.00611 88.479303 216.81853 88.780043 213.84375 89.375 C 212.1059 89.72257 210.471 89.81475 210.21875 89.5625 C 209.9665 89.31025 210.36899 78.62657 211.09375 65.8125 C 211.81852 52.998431 212.2999 40.214457 212.1875 37.4375 C 212.00125 32.83601 212.30468 32.082605 215.5625 28.9375 L 219.125 25.5 z "/>
</svg>
