<?xml version="1.0" encoding="UTF-8"?>
<svg xmlns="http://www.w3.org/2000/svg" viewBox="1149.22 15.84 46.39 85.97">
  <path d="M 1193.25,47.3125 C 1192.6019,48.445019 1191.7902,49.294982 1190.5312,49.96875 1187.9421,51.354415 1187.7339,51.284332 1184.4688,47.46875 1181.1372,43.575516 1180.113,41 1181.9062,41 1183.2708,41 1187,32.740411 1187,29.71875 1187,26.411988 1185.0369,21.979588 1183.5938,22.03125 1182.9946,22.0527 1181.0171,24.107465 1179.1875,26.59375 1176.7362,29.924967 1175.2892,31.040588 1173.6875,30.8125 1171.8573,30.551858 1171.4442,29.749932 1171.1875,25.75 1170.8275,20.138881 1169.5358,19.745136 1162.9688,23.25 1154.3967,27.824997 1151.3243,35.440046 1156.2188,40 1158.5872,42.206578 1160.385,42.785686 1166,43.21875 1169.3969,43.480741 1169.5086,43.608205 1169.4375,47.5625 1169.3971,49.803373 1168.117,54.710495 1166.625,58.4375 1161.4985,71.243199 1159.6043,87.371031 1162.5312,93.03125 1165.0506,97.903044 1168.9311,97.893896 1176.6562,93 1178.5315,91.811959 1179.1743,91.881172 1181.6562,93.5625 1183.2227,94.623607 1186.525,96.267627 1189,97.1875 1189.6648,97.434591 1190.3298,97.555848 1191,97.75 L 1191,94.59375 C 1190.0295,95.040594 1188.26,94.303808 1184.9062,92.03125 1182.486,90.391259 1179.9858,89.041259 1179.375,89.03125 1178.7643,89.021242 1176.62,90.125 1174.5938,91.5 1170.2876,94.422202 1166.4944,94.735964 1165.5312,92.25 1162.6201,84.73632 1164.007,72.557008 1169.4688,57.5 1171.9626,50.625006 1172.6062,45.720506 1171.4062,42.59375 1170.9661,41.44684 1169.4244,41 1165.8438,41 1161.9337,41 1160.4121,40.474609 1158.4688,38.53125 1155.4638,35.526324 1155.3504,33.081443 1158.0938,29.59375 1159.919,27.273468 1166.7092,23 1168.5625,23 1168.919,23 1168.9292,24.100669 1168.5938,25.4375 1167.6712,29.11286 1169.5282,32.839918 1172.6562,33.625 1175.0086,34.215387 1175.8853,33.736394 1178.9688,30.15625 1180.9382,27.869515 1182.8837,26 1183.2812,26 1183.6787,26 1184,27.835187 1184,30.0625 1184,34.574919 1181.8771,39.443585 1179.5312,40.34375 1177.1678,41.250712 1177.6685,43.151156 1181.75,48.78125 1185.8917,54.494421 1187.4722,55.007511 1191.375,51.9375 L 1193.375,50.34375 1193.5,49 1193.25,47.3125 z M 1192.9062,55.96875 C 1191.6984,58.093195 1189.7348,60 1188.1875,60 1187.5335,60 1185.386,59.123513 1183.4062,58.0625 1181.4267,57.001486 1179.1946,56.377694 1178.4688,56.65625 1175.3195,57.864726 1170.772,71.796956 1171.1875,78.96875 1171.5788,85.721279 1173.5438,87.355139 1178.1562,84.71875 L 1181.2812,82.9375 1184.2812,85.96875 C 1185.9456,87.671071 1188.2908,89 1189.625,89 1190.3283,89 1190.6423,89.21193 1191,89.40625 L 1191,87 1190.8438,86.53125 C 1189.7641,87.261166 1188.0266,86.371077 1185.4688,83.375 L 1182.4375,79.8125 1178.7812,81.96875 1175.125,84.125 1174.0312,82.09375 C 1171.9288,78.165296 1176.0939,60.658077 1179.4375,59.375 1180.2007,59.082138 1181.9858,59.600534 1183.4062,60.53125 1185.8185,62.111851 1188.4209,62.151763 1192,60.625 1192.1894,60.544189 1192.297,60.585348 1192.4375,60.59375 L 1192.5,60.5 1192.9062,55.96875 z"/>
</svg>
