<?xml version="1.0" encoding="UTF-8"?>
<svg xmlns="http://www.w3.org/2000/svg" viewBox="57.32 29.08 44.23 76.41">
  <path d="M 76.021753,95.792974 C 72.756923,92.288591 71.697576,86.504936 72.340271,75.693406 L 72.923227,65.886813 69.76931,68.540659 C 66.793479,71.044656 66.541555,71.093524 65.307697,69.406123 62.710023,65.853592 63.736395,63.257824 69.39024,59.081084 74.161854,55.556087 74.82562,54.625744 75.173795,50.974787 75.650554,45.975493 75.003769,45.422595 71.709808,48.013625 68.352469,50.654508 66.800214,50.521716 63.102828,47.277316 59.436685,44.060331 59.329798,43.015901 62.084378,37.325698 64.396064,32.550393 64.90075,32.566155 71.683278,37.625481 75.066343,40.149028 77.488067,40.637343 78.5,39 79.589399,37.237315 82.311972,37.924706 85.19999,40.691603 L 88.009418,43.383205 91.438796,40.059321 C 93.48316,38.077846 95.472322,36.96727 96.36408,37.309469 98.082639,37.968942 99.535237,45.738257 98.531346,48.901238 97.700241,51.519819 96.389668,51.534939 92.189882,48.9744 90.369316,47.864432 88.456816,47.217672 87.939882,47.537155 87.422947,47.856639 86.993033,50.453976 86.984517,53.309017 86.970027,58.16718 87.236117,58.729757 91.134711,62.083512 94.549764,65.021301 95.184821,66.102456 94.659033,68.083512 93.503533,72.437189 92.273825,73.631772 90.242487,72.373906 88.548198,71.324751 88.412588,71.780659 88.257675,79.046648 87.946949,93.620826 81.815753,102.0121 76.021753,95.792974 z M 71.92771,44.576949 74.204048,42.153899 69.916319,39.447174 65.628589,36.74045 63.814295,38.981009 C 61.434603,41.919804 61.510498,42.469797 64.634859,44.92742 68.020568,47.590619 69.147387,47.536468 71.92771,44.576949 z M 84.339273,91.191098 C 86.742364,85.612101 87.367611,78.700842 85.989095,72.954544 84.5038,66.763138 85.693372,64.681127 88.806782,68.02298 90.877995,70.246166 93,69.994166 93,67.525012 93,66.778688 91.145994,64.699658 88.879986,62.904947 L 84.759971,59.641835 85.225162,52.39317 C 85.636573,45.982512 85.430684,44.818848 83.444242,42.327612 81.248246,39.573571 81.152799,39.551743 79.166504,41.349316 78.04911,42.360544 77.380471,43.827916 77.68064,44.610144 77.980809,45.392372 77.92267,48.463362 77.551442,51.434567 76.916805,56.514031 76.583013,57.035789 71.964027,60.168379 69.262176,62.000771 67.039968,64.2875 67.025785,65.25 66.992511,67.508256 67.463768,67.456328 71.047358,64.806866 75.312061,61.653834 76.845054,63.391366 75.205842,69.520193 72.814845,78.459865 74.169241,90.169241 78.042252,94.042252 80.550011,96.550011 82.389791,95.716999 84.339273,91.191098 z M 96.323605,43.711227 C 95.498807,39.37553 95.359684,39.313466 92.496057,42.003704 89.350794,44.958526 89.373904,45.380414 92.75,46.639531 96.43276,48.013019 97.046312,47.510259 96.323605,43.711227 z"/>
</svg>
