<?xml version="1.0" encoding="UTF-8"?>
<svg xmlns="http://www.w3.org/2000/svg" viewBox="702.37 18.54 19.79 87.23">
  <path d="M 711.47089,95.25 C 713.02124,81.606848 715.12115,60.419865 716.59999,43.5 717.51335,33.05 718.427,24.3125 718.63032,24.083333 720.02663,22.50955 720.16402,26.688162 719.07963,37.748271 718.39199,44.761722 717.41143,54.775 716.9006,60 716.38978,65.225 715.52539,74.9 714.97974,81.5 714.43409,88.1 713.71535,94.9625 713.38253,96.75 712.44015,101.8114 710.86567,100.57595 711.47089,95.25 z M 704.58846,95.25 C 704.80744,93.1875 705.64776,85.65 706.45585,78.5 707.26393,71.35 708.92711,55.9375 710.15181,44.25 711.3765,32.5625 712.66788,23 713.02154,23 713.82426,23 713.33066,30.842627 711.51102,47 710.73675,53.875 709.82583,63.356829 709.48675,68.070732 709.14767,72.784634 708.46017,78.409634 707.95898,80.570732 707.45778,82.731829 707.03698,86.35625 707.02386,88.625 706.9935,93.874176 705.97886,99 704.97016,99 704.54124,99 704.36948,97.3125 704.58846,95.25 z"/>
</svg>
