<?xml version="1.0" encoding="UTF-8"?>
<svg xmlns="http://www.w3.org/2000/svg" viewBox="1472.3 18.51 19.82 87.27">
  <path d="M 1483.0107,95.75 C 1483.0166,95.0625 1483.6699,88.390377 1484.4624,80.923059 1485.255,73.455742 1485.9885,58.605742 1486.0925,47.923059 1486.2818,28.484079 1486.9635,22.479677 1488.5411,26.358056 1490.1134,30.223462 1487.6765,83.56064 1485.4164,94.75 1484.9407,97.105002 1482.9922,97.914974 1483.0107,95.75 z M 1474.8019,99.420969 C 1474.297,98.539282 1475.3127,61.45787 1476.4158,40.5 1476.7053,35 1476.9551,29.685942 1476.9711,28.690983 1476.987,27.696024 1477.4542,27.162706 1478.0094,27.505832 1478.6581,27.906718 1478.8306,34.093233 1478.492,44.814849 1478.2022,53.991682 1477.7879,69.15 1477.5712,78.5 1477.2123,93.989441 1476.1758,101.81994 1474.8019,99.420969 z"/>
</svg>
