<?xml version="1.0" encoding="UTF-8"?>
<svg xmlns="http://www.w3.org/2000/svg" viewBox="276.27 21.37 44.67 81.46">
  <path d="M 318.90625 57.90625 C 318.31821 58.629885 317.5866 59.118761 316.375 59.625 C 309.93388 62.31627 309.18516 62.015274 306.28125 55.65625 L 303.625 49.8125 L 307.6875 46.0625 C 313.80504 40.413765 315.24466 37.785271 314.03125 34.59375 C 312.46594 30.476671 310.30044 30.31647 306.5 34 C 301.7773 38.577421 299.90839 37.640912 300.6875 31.0625 C 301.38536 25.170169 301.14815 25.074387 293.78125 28.375 C 287.95106 30.987119 284.68897 34.00018 283.03125 38.375 C 281.17348 43.277806 285.82581 48 292.5 48 C 294.31264 48 294.9845 48.715462 295.5 51.0625 C 296.06636 53.641146 295.43438 55.224878 291.28125 61.3125 C 280.57986 76.998488 278.29733 91.160214 285.5625 96.875 C 288.4254 99.126958 291.63968 98.602563 297.46875 95 L 300.875 92.90625 L 306.90625 95.96875 C 310.22346 97.643275 313.37451 99 313.90625 99 C 314.22968 99 315.48927 97.950142 316.5 97.1875 L 316.0625 88.21875 C 315.05328 89.471713 312.47219 88.469773 307.84375 84.84375 C 303.53141 81.465371 301.69962 81.311111 298.28125 84 C 296.88283 85.1 294.84669 86 293.75 86 C 291.94003 86 291.81434 85.5558 292.40625 81.09375 C 293.08682 75.963366 297.41511 67 299.21875 67 C 299.79257 67 301.99426 68.575 304.125 70.5 C 306.25574 72.425 308.46092 74 309.03125 74 C 309.60158 74 311.90633 73.06938 314.125 71.9375 L 318.15625 69.875 L 318.15625 70.0625 L 318.5 69.5 L 318.65625 64.8125 C 317.87713 67.370447 315.16869 69.800972 311.84375 70.53125 C 309.44255 71.058644 308.25121 70.553215 304.90625 67.53125 C 302.68611 65.525485 300.33066 64.066864 299.6875 64.28125 C 295.61995 65.637102 288.19678 81.797282 289.59375 86.25 C 290.34393 88.641124 294.46393 88.477932 298.625 85.90625 L 302 83.84375 L 305.75 86.78125 C 307.81154 88.407197 310.9625 90.049293 312.75 90.4375 C 315.06558 90.940396 316 91.734276 316 93.125 C 316 96.296783 313.12595 96.460959 307.875 93.625 C 302.52137 90.733581 299.95813 90.832177 294.5 94.15625 C 290.69326 96.474608 288.74194 96.464187 286.625 94.125 C 281.53228 88.497609 283.92241 76.006926 292.5 63.46875 C 295.55082 59.009259 298.00819 54.341684 298 52.96875 C 297.97477 48.738703 295.72508 45.550781 292.625 45.3125 C 289.2952 45.056562 284.99468 42.464744 285 40.71875 C 285.00823 38.015942 289.13137 32.957053 292.90625 31.03125 C 298.43317 28.211625 299.20156 28.406273 298.46875 32.3125 C 298.01841 34.713037 298.34745 36.220113 299.6875 37.875 L 301.53125 40.15625 L 305.96875 36.625 C 310.88462 32.734934 312 32.807401 312 36.90625 C 312 38.944846 310.6404 40.933253 306.90625 44.46875 C 302.21046 48.914725 301.87034 49.560228 302.46875 52.75 C 303.47463 58.111792 306.19936 63.02417 308.46875 63.59375 C 309.6026 63.878328 312.1803 63.414218 314.21875 62.5625 C 317.41525 61.226915 318.43327 60.863081 318.78125 61.59375 L 318.90625 57.90625 z "/>
</svg>
