<?xml version="1.0" encoding="UTF-8"?>
<svg xmlns="http://www.w3.org/2000/svg" viewBox="1490.51 17.84 37.51 80.82">
  <path d="M 1494,63.196167 C 1494,62.754059 1495.575,60.865783 1497.5,59 1500.5116,56.081036 1501,54.958962 1501,50.958821 1501,47.504505 1500.4598,45.821091 1498.8976,44.407348 1493.0923,39.153611 1492.5082,32.724174 1497.3681,27.571202 1499.2205,25.607041 1501.1914,24 1501.7479,24 1502.3043,24 1502.9522,26.662136 1503.1875,29.915858 1504.0221,41.452965 1508.4412,41.441438 1509.5786,29.899188 1510.31,22.476229 1510.8877,21.51218 1514.01,22.503177 1518.9504,24.071197 1519.6763,32.788895 1515.544,40.925411 1513.0936,45.750232 1512.9109,46.759213 1513.8938,50.040012 1514.5018,52.069066 1515.9694,54.962645 1517.1552,56.470187 1518.9726,58.780635 1519.8469,59.124245 1522.7216,58.657756 1525.1161,58.269172 1526.0148,58.461107 1525.7386,59.302169 1525.5224,59.960976 1523.6414,60.642724 1521.5586,60.817165 1516.7996,61.215768 1513.7217,58.566425 1511.5544,52.205694 1510.0646,47.833178 1510.0984,47.464806 1512.4652,42.295142 1515.6275,35.387593 1516.3906,31.157679 1515.0911,27.739594 1513.4705,23.477048 1512.5009,24.447507 1511.2843,31.549701 1510.2163,37.784673 1508.7359,41 1506.9333,41 1504.6148,41 1501.0006,36.260988 1500.8321,33 1500.5957,28.424906 1500.1208,27.654823 1498.411,29.073886 1497.6349,29.717938 1497,31.988493 1497,34.119564 1497,37.143176 1497.7688,38.84517 1500.5,41.86832 1503.4845,45.171788 1504,46.455425 1504,50.583349 1504,54.92509 1503.566,55.866468 1499.7918,59.712148 1495.7341,63.846655 1494,64.889781 1494,63.196167 z M 1500.5372,92.647123 C 1497.8677,90.486339 1497.5707,89.662623 1497.5372,84.327533 1497.507,79.523412 1498.1446,77.135136 1500.9166,71.669665 1503.2085,67.150558 1504.6644,65.26439 1505.3395,65.939452 1506.3832,66.983151 1505.9738,68.093848 1502.0063,74.984398 1497.567,82.694281 1500.5997,92.79818 1507.5,93.287334 1510.1274,93.47359 1510.7875,92.941162 1512.8154,89 1515.1606,84.442003 1515.2359,82.395558 1513.4782,71 1512.9725,67.72133 1514.2343,63.901001 1515.4286,65.095234 1515.7241,65.390756 1516.242,70.102724 1516.5795,75.566274 1517.15,84.799959 1517.0226,85.81712 1514.7719,90 1512.5177,94.189549 1512.0453,94.518812 1507.9253,94.772678 1504.4825,94.984819 1502.8422,94.512929 1500.5372,92.647123 z"/>
</svg>
