<?xml version="1.0" encoding="UTF-8"?>
<svg xmlns="http://www.w3.org/2000/svg" viewBox="1187.07 24.45 17.06 79.59">
  <path d="M 1197.5841,92.863655 C 1197.1931,91.963666 1197.5768,82.493491 1198.4366,71.818823 1199.2965,61.144154 1200,46.891452 1200,40.14615 1200,31.129596 1200.3058,28.070935 1201.1546,28.595578 1202.0072,29.122465 1202.1258,35.48322 1201.6078,52.904595 1200.9051,76.543089 1198.946,95.998609 1197.5841,92.863655 z M 1189.5598,98.096743 C 1189.11,97.369018 1189.0696,91.087045 1189.47,84.136803 1189.8703,77.186561 1190.1628,61.856914 1190.1199,50.07092 1190.0711,36.667445 1190.3946,28.994568 1190.9837,29.583656 1192.0601,30.660088 1192.6763,57.379075 1192.1319,79.368388 1191.745,94.992978 1190.9989,100.42532 1189.5598,98.096743 z"/>
</svg>
