<?xml version="1.0" encoding="UTF-8"?>
<svg xmlns="http://www.w3.org/2000/svg" viewBox="253.81 11 37.19 88.96">
  <path d="M 269,92.020324 C 269,90.742252 267.67099,89.357095 265.25,88.111907 263.1875,87.051099 260.19995,84.814547 258.61101,83.14179 256.13565,80.535865 255.80698,79.556316 256.31541,76.300207 257.13699,71.038687 263.49577,65.348119 269.57167,64.436981 275.12674,63.603947 275.22871,61.85782 269.86357,59.438479 257.38843,53.812976 257.84483,49.1289 271.432,43.341194 274.2194,42.15385 276.64097,40.48985 276.81327,39.643415 277.00503,38.70136 275.02211,36.707187 271.70092,34.502035 262.6799,28.512414 262.48943,24.552975 271.00872,20.112474 280.72756,15.046729 281.18914,17.443515 277.43853,53.5 275.14751,75.524688 274.43574,80.331278 272.29262,88.25 270.76416,93.897626 269,95.917729 269,92.020324 z M 270.52841,85.954029 C 271.76163,83.958636 273.80332,67.503663 272.93202,66.582096 271.32659,64.884035 264.19038,67.883841 261.52628,71.376659 257.92239,76.101603 258.3113,78.223811 263.64079,82.915013 268.53821,87.225898 269.48435,87.643359 270.52841,85.954029 z M 275.375,55.875 C 276.06281,52.435934 276.22919,44 275.6092,44 274.84976,44 267.46962,47.575097 265.25,49.018218 261.96077,51.156766 262.44471,52.478428 267.75,55.845862 273.79781,59.684597 274.61246,59.68771 275.375,55.875 z M 277.54176,27.454683 C 277.92728,23.854759 278.0067,20.673367 277.71826,20.384922 277.42981,20.096477 275.2377,20.85232 272.84691,22.064573 268.68702,24.173841 267.04856,25.62899 267.01531,27.243728 266.99773,28.097577 274.90849,34 276.07044,34 276.49415,34 277.15624,31.054607 277.54176,27.454683 z M 278,92.662871 C 278,90.81875 280.65364,73.701019 281.97833,67 282.57633,63.975 283.23913,59.925 283.45123,58 283.66332,56.075 284.54856,48.888437 285.41842,42.029859 286.28829,35.171281 287,27.660339 287,25.338876 287,23.017413 287.45,20.839919 288,20.5 288.61405,20.120498 289,21.749731 289,24.72133 289,30.171596 285.35841,63.61106 284.63792,64.776843 284.22662,65.442334 282.5121,75.997909 281.43433,84.5 280.57963,91.242316 279.85984,94 278.95469,94 278.42961,94 278,93.398292 278,92.662871 z"/>
</svg>
