<?xml version="1.0" encoding="UTF-8"?>
<svg xmlns="http://www.w3.org/2000/svg" viewBox="1030.11 26.86 21.99 75.8">
  <path d="M 1042.4313,90.5 C 1042.7887,85.55 1043.5084,78.35 1044.0305,74.5 1045.0176,67.221823 1046.9845,37.695595 1046.6763,34.782895 1046.5793,33.866717 1046.95,33.203266 1047.5,33.308559 1050.1053,33.80733 1045.7063,95.787741 1042.8756,98.465182 1042.0854,99.212575 1041.962,97.000212 1042.4313,90.5 z M 1032.4439,97.714424 C 1032.1122,96.849916 1032.5507,89.923009 1033.4185,82.321296 1034.2863,74.719583 1035.2926,59.85451 1035.6548,49.2878 1036.0663,37.283502 1036.6775,30.300697 1037.2841,30.675583 1039.2186,31.87116 1035.8096,96.523751 1033.7009,98.632465 1033.3413,98.99205 1032.7757,98.578932 1032.4439,97.714424 z"/>
</svg>
