<?xml version="1.0" encoding="UTF-8"?>
<svg xmlns="http://www.w3.org/2000/svg" viewBox="899.66 27.05 18.45 75.8">
  <path d="M 903.0625 57.6875 L 903.28125 60.625 C 903.72224 61.132425 904 61.97643 904 63.5 C 904 64.279254 903.76962 64.698937 903.65625 65.25 L 904 69.5 L 903.28125 70.625 C 904.17235 71.758091 904.01848 75.503066 903.15625 83.3125 L 902.5 89.125 L 901.65625 88.53125 L 902.21875 92.4375 C 902.91687 93.270399 903.06525 94.061826 902.625 94.75 L 904 97.5 L 904.125 99.40625 C 904.2575 99.262423 904.39736 99.154132 904.53125 98.9375 C 904.90938 98.325676 906.42346 98.157527 908.125 98.53125 C 909.60063 98.85535 910.87028 98.468569 912.4375 97.53125 L 912.5 96.5 L 913.53125 93.4375 C 913.41677 93.439202 913.17225 93.611015 913.09375 93.5625 C 912.66383 93.296792 912.4756 91.590151 912.6875 89.78125 C 913.31467 84.427487 916.10827 31.764518 915.78125 31.4375 C 915.6162 31.272447 913.24571 30.991549 910.5 30.8125 L 905.5 30.5 L 904.875 41.5 C 904.53247 47.55 904.19497 53.7375 904.125 55.25 C 904.06608 56.523676 903.62856 57.33465 903.0625 57.6875 z M 907.3125 33 L 910.65625 33 C 913.64206 33 914.0126 33.295273 914 35.75 C 913.96579 42.412944 911.92187 73.522504 910.84375 84 C 909.61003 95.989708 909.31082 97.036883 907.25 96.28125 C 905.82877 95.760131 905.52421 70.260466 906.65625 46.65625 L 907.3125 33 z "/>
</svg>
