<?xml version="1.0" encoding="UTF-8"?>
<svg xmlns="http://www.w3.org/2000/svg" viewBox="556.76 15.73 62.06 88.57">
  <path d="M 615.46875,70.1875 615.5,70 615.59375,67.4375 C 613.32956,69.922952 608.67289,69.273424 604.5,65 602.35176,62.8 599.79743,61 598.8125,61 596.99558,61 591.58125,67.583849 590.4375,71.1875 589.47678,74.214456 590.53057,77.012746 595.46875,84.53125 597.96561,88.332804 599.89126,91.857458 599.71875,92.375 599.10689,94.210563 592.4687,97 588.71875,97 584.58489,97 578.47171,94.29803 575.875,91.34375 572.53858,87.547903 572.72961,85.529626 576.9375,80.4375 582.02342,74.282827 582.77952,71.010812 580.125,66.75 577.62427,62.736042 574.48651,60.700895 571.96875,61.5 569.62176,62.244906 566.15542,66.971273 565,71 563.74652,75.370613 565.24398,74.674 567.53125,69.8125 570.5343,63.429618 572.51204,62.763959 576.0625,66.96875 577.6704,68.872974 579,71.19695 579,72.125 579,73.05305 577.2,76.197075 575,79.125 572.68592,82.204747 571,85.565272 571,87.09375 571,91.975897 576.91566,97.216104 584.5,99.0625 589.46268,100.27066 591.15679,100.09953 595.6875,97.90625 603.28697,94.22741 603.29966,92.254696 595.59375,81.5 591.51593,75.808828 591.14804,72.896427 594,68.21875 596.97554,63.338389 598.60169,63.204433 602.96875,67.46875 606.81063,71.220241 609.3443,71.944103 614,70.625 L 615.46875,70.1875 z M 615.84375,61.5 616,57.5 615.96875,57.125 C 615.12219,59.494397 613.93421,60 611.90625,60 610.96296,60 608.56943,57.75 606.59375,55 604.61807,52.25 602.40656,50 601.6875,50 600.96844,50 598.86371,51.125 597,52.5 595.13629,53.875 593.25565,55 592.8125,55 591.38479,55 591.89406,38.162732 593.4375,34.46875 595.21253,30.220518 596.4008,30.131117 599.65625,34 601.04464,35.65 602.83528,37 603.625,37 606.06317,37 608.71253,27.98882 607.59375,23.53125 606.7966,20.355169 605.7183,20.354049 601.59375,23.5 597.44006,26.668173 596.37401,26.60932 591.5625,22.96875 589.40202,21.334051 587.34337,20 586.96875,20 586.59413,20 584.34703,21.524253 581.96875,23.40625 L 577.625,26.84375 571.84375,23.90625 C 563.61309,19.751427 563,19.920795 563,26.3125 563,30.60907 563.44854,32.063291 565.34375,33.84375 567.36769,35.745142 568.0945,35.915789 570.59375,34.96875 572.18922,34.364182 574.45321,32.972507 575.625,31.875 L 577.75,29.875 578.875,33.09375 C 580.03005,36.407133 580.4836,55 579.40625,55 579.07314,55 577.4466,53.875 575.8125,52.5 574.17841,51.125 572.29991,50 571.625,50 569.36207,50 564.1697,56.444804 562.03125,61.90625 559.73996,67.758019 559.57883,76.035247 561.75,76.75 562.66109,77.049934 562.99288,75.459952 563,70.84375 563.00708,66.252158 563.6771,63.062336 565.4375,59.28125 568.63587,52.411634 571.44929,51.557224 576.6875,55.875 578.81745,57.630685 580.81676,58.589495 581.3125,58.09375 581.792,57.614255 582.17491,52.083032 582.1875,45.78125 582.20455,37.253644 581.8022,33.526448 580.625,31.25 579.05904,28.221757 579.09496,28.167066 582.46875,25.59375 586.58778,22.452014 586.75696,22.459978 590.4375,25.46875 L 593.34375,27.84375 591.625,33.1875 C 589.40908,40.04869 588.25349,56.41604 589.90625,57.4375 590.55599,57.839062 593.41272,56.952322 596.25,55.46875 602.0186,52.452433 601.12576,52.124742 606.5,59.46875 608.5353,62.250031 611.87214,63.04536 615.25,61.5625 615.54779,61.431773 615.6345,61.5377 615.84375,61.5 z M 564.71875,22.8125 569.84375,25.4375 C 572.67379,26.871595 575,28.459202 575,28.96875 575,29.478297 574.00363,30.581313 572.78125,31.4375 568.66906,34.31779 566.33092,32.775777 565.3125,26.5 L 564.71875,22.8125 z M 604.0625,24.78125 C 604.60855,24.660476 604.83759,25.011115 605.125,25.78125 605.47789,26.726829 605.53685,28.85 605.25,30.5 604.46664,35.00591 603.65474,35.287371 600.625,32.125 L 597.875,29.25 601.1875,26.65625 C 602.67244,25.494113 603.51645,24.902024 604.0625,24.78125 z"/>
</svg>
