<?xml version="1.0" encoding="UTF-8"?>
<svg xmlns="http://www.w3.org/2000/svg" viewBox="6 18.37 38.56 75.8">
  <path d="M 35.375 49.21875 L 38.4375 44.625 C 37.712696 44.956195 36.813765 43.90661 35.53125 41.0625 C 32.512911 34.369019 27.091852 30.814505 23.125 32.9375 C 19.879342 34.674524 18.66477 40.333649 19.375 50.4375 C 20.183248 61.935771 21.186313 65.377176 24.5625 68.28125 C 26.655598 70.081657 27.369272 71.756439 27.75 75.71875 C 28.183646 80.231783 27.92717 81.16658 25.65625 83.4375 C 22.295735 86.798015 18.067036 86.775845 14.0625 83.40625 C 9.8459162 79.858229 9.7773003 74.455383 13.875 69.78125 L 16.75 66.5 L 15.28125 56 C 13.675331 44.534351 14.486882 35.862796 17.8125 29.0625 C 21.358199 21.812173 30.623235 22.679745 35.96875 30.75 C 39.606031 36.241293 40.462537 39.038476 39.59375 42.5 C 39.49944 42.87576 39.38191 43.026442 39.28125 43.3125 L 42.5 38.5 L 42.5625 37.46875 C 42.130736 36.825963 41.706805 35.846566 41.09375 34 C 38.686983 26.750646 32.596349 22 25.71875 22 C 20.245668 22 16.596566 24.698845 15.375 29.65625 C 14.99063 31.216117 14.071023 33.452713 13.3125 34.625 C 11.557671 37.337064 11.390146 49.263156 13 58.3125 C 14.051769 64.224719 14.024155 65.332232 12.65625 66.84375 C 10.488427 69.239168 8 75.425065 8 78.4375 C 8 81.745456 13.263802 87.590261 16.875 88.3125 C 28.897797 90.71706 34.565137 75.513449 25.28125 65.78125 C 22.849418 63.231987 22.666178 62.333324 22.21875 50.71875 C 21.701096 37.281222 22.52081 33.794015 25.9375 34.6875 C 28.409042 35.333823 30.141692 37.312663 33.34375 43.09375 C 34.676598 45.500112 35.189569 47.206244 35.375 49.21875 z "/>
</svg>
