<?xml version="1.0" encoding="UTF-8"?>
<svg xmlns="http://www.w3.org/2000/svg" viewBox="488.46 19.97 41.04 82.69">
  <path d="M 527.5,50.125 C 527.03569,50.716541 526.49842,51.236048 525.75,51.9375 520.15051,57.185615 513.9883,55.558769 512.71875,48.5 512.27408,46.027613 512.86205,44.78723 516.09375,41.28125 518.8039,38.341081 520,36.149296 520,34.09375 520,29.867158 518.74664,29.600363 514.46875,33 512.4026,34.641967 510.35854,36 509.90625,36 509.45395,36 508.57239,34.0875 507.9375,31.75 507.3026,29.4125 506.60117,26.9375 506.40625,26.25 505.69129,23.728338 502.56779,25.119712 497.4375,30.25 493.66167,34.025837 491.98343,36.600265 491.46875,39.34375 490.4583,44.729893 492.12754,48 495.90625,48 497.53559,48 499.16008,47.55 499.5,47 499.83992,46.45 500.99496,46 502.0625,46 504.82477,46 504.60795,51.371536 501.40625,62 499.61189,67.956595 498.67336,73.872705 498.28125,81.78125 497.74547,92.587651 497.81416,93.171272 500.03125,95.53125 503.19524,98.899168 507.10913,98.718045 511.34375,95 513.22299,93.35 515.38874,92 516.15625,92 517.88341,92 520.01039,93.526272 521.15625,95.1875 L 522.125,90.4375 C 521.18066,90.85649 519.65551,90.583699 516.75,89.46875 515.9475,89.160801 513.42893,90.46041 511.0625,92.4375 505.61998,96.984598 503.31177,97.017009 501.4375,92.53125 499.02556,86.758657 500.18153,71.574083 503.96875,59.3125 507.58965,47.589391 506.24907,41.925385 500.5625,44.96875 497.0704,46.837665 494.58521,45.919812 493.9375,42.5 493.07359,37.938675 494.70653,34.467818 499.625,30.4375 502.08716,28.419947 504.27876,26.925977 504.46875,27.125 504.65874,27.324023 505.18256,29.487199 505.65625,31.90625 506.85487,38.027311 508.83834,38.997348 513.21875,35.65625 515.13473,34.19486 517.01729,33 517.4375,33 519.25442,33 516.6008,38.78177 513.40625,41.75 510.24826,44.684263 509.95574,45.348558 510.5625,48.75 511.92277,56.375589 518.64883,59.430466 524.28125,55 525.72857,53.861536 526.55143,53.383582 527.09375,53.34375 L 527.5,50.125 z M 526.125,61.59375 C 524.18397,65.452599 520.69923,65.998489 515.78125,63 513.98046,61.902056 511.98883,61.002056 511.375,61 508.33378,60.989814 502.23336,85.804872 504.875,87.4375 505.49579,87.821169 508.22405,86.914346 510.9375,85.4375 515.99326,82.685811 518.79254,82.64034 522.25,85.21875 522.61344,85.489787 522.76029,85.828739 522.96875,86.15625 L 523.875,81.59375 519.9375,81.21875 C 515.82933,80.824007 514.30651,81.146618 511.96875,82.875 507.13383,86.449613 505.70485,85.786314 506.28125,80.25 506.79793,75.287253 509.30462,66.561446 510.9375,64.03125 511.74195,62.78473 512.28281,62.911381 514.40625,64.90625 516.5299,66.901312 517.64943,67.194581 521.59375,66.75 L 525.59375,66.28125 526.125,61.59375 z"/>
</svg>
