<?xml version="1.0" encoding="UTF-8"?>
<svg xmlns="http://www.w3.org/2000/svg" viewBox="8 27.6 15.82 74.87">
  <path d="M 11.602699,94.166171 C 9.996,91.566477 11.444462,31 13.113334,31 14.306938,31 14.595087,42.933745 13.741124,57 12.73463,73.578693 12.622758,88.005945 13.47076,91.866869 14.110094,94.777739 12.900679,96.266347 11.602699,94.166171 z M 21.8125,90.34375 21.5625,89.9375 21.21875,85.3125 C 21.084341,84.976031 20.794833,84.739881 20.71875,84.34375 20.337617,82.359371 20.35309,81.382328 20.90625,81.15625 L 20.5625,76.5625 C 20.530774,76.480428 20.395034,76.392322 20.375,76.3125 19.653466,73.43768 19.65041,73.405363 20.5625,50.25 21.092029,36.806779 20.994941,31 20.25,31 18.078105,31 16.489681,74.690823 18.1875,87.75 19.228712,95.758723 21,99.066085 21,93 21,91.448781 21.19501,90.647999 21.8125,90.34375 z"/>
</svg>
