<?xml version="1.0" encoding="UTF-8"?>
<svg xmlns="http://www.w3.org/2000/svg" viewBox="397.48 16.25 55.34 79.59">
  <path d="M 400,92.21875 C 400.24361,92.139603 400.47224,91.97111 400.71875,91.96875 401.69851,91.959371 404.75,90.631242 407.5,89 413.4289,85.483099 414.89058,85.361111 419.21875,88 423.37195,90.532208 429.56924,90.554585 433.65625,88.0625 436.06924,86.591164 437.19053,84.838188 438.40625,80.65625 440.3715,73.896028 440.38766,71.637111 438.53125,65.46875 437.72642,62.794502 437.28202,60.374223 437.53125,60.125 437.78047,59.875777 439.80198,60.494741 442.03125,61.5 446.85894,63.676985 448.36864,62.733456 449.40625,56.84375 450.31339,51.694642 446.87651,49 439.375,49 L 434,49 434,45.25 C 434.00186,41.732167 434.20307,41.488462 437.25,41.28125 440.95173,41.029507 444,37.95212 444,34.46875 444,30.398234 440.67803,26.113868 435.40625,23.34375 428.79036,19.86736 427,20.525582 427,26.46875 427,28.961012 426.71381,31 426.375,31 426.03618,31 423.63756,29.444458 421.03125,27.53125 418.42493,25.618041 416.01112,24.332625 415.65625,24.6875 413.11466,27.229084 417.25599,37.719877 421.75,40.125 424.43213,41.560432 426,44.686822 426,48.5625 426,51.450742 425.23958,51.5414 420.5,49.28125 417.11114,47.665215 416.75399,47.673099 413.59375,49.375 410.3134,51.141585 410.194,51.142321 406.6875,48.84375 404.86807,47.651082 403.99371,46.576811 403.40625,45.1875 L 403.53125,50.21875 C 404.03591,50.095367 405.00329,50.663725 406.9375,52.09375 L 409.78125,54.21875 412.90625,51.90625 416.03125,49.625 420.71875,51.875 C 425.23825,54.070744 425.45621,54.111046 426.75,52.34375 427.65473,51.1079 427.88254,49.194184 427.4375,46.5 426.57806,41.297085 425.67832,39.692193 422.75,38.125 420.10108,36.707344 417,32.117562 417,29.59375 417,28.275293 417.67957,28.435892 420.75,30.5 427.84801,35.271658 428.9727,34.826748 429,27.25 429.01896,21.986901 430.28396,21.802305 436.15625,26.28125 443.89585,32.184437 443.90935,38.237712 436.1875,38.8125 431.37938,39.170399 430.44413,40.875734 431.4375,47.5 L 432.09375,51.8125 437.78125,51.28125 C 442.38009,50.865306 443.93495,51.121316 445.78125,52.625 447.82883,54.29261 447.94696,54.83503 446.9375,57.71875 L 445.8125,60.9375 441.9375,58.96875 C 434.85812,55.35712 432.94979,56.709298 435.53125,63.46875 437.94253,69.782603 437.28178,82.155717 434.375,85.0625 431.23407,88.203429 425.20397,88.637023 420.21875,86.09375 414.89178,83.376137 412.48586,83.453216 407.15625,86.5 404.76261,87.868375 402.40011,89 401.90625,89 401.50446,89 401.27805,88.023246 401.15625,86.78125 L 400,92.21875 z M 402.8125,78.875 C 403.24745,78.878606 403.76537,79.050492 404.8125,79.59375 407.07073,80.76533 407.73333,80.742831 409.46875,79.46875 413.09042,76.809859 414.21762,76.652993 417.53125,78.4375 421.62194,80.640483 424.42766,79.840166 426.03125,75.96875 427.70968,71.916674 426.74727,63.505016 424.25,60.1875 422.14861,57.39589 421.1344,57.248456 412.5,58.5625 409.10633,59.078973 408.06198,58.76767 405.75,56.625 404.82571,55.768394 404.12074,54.738934 403.625,53.75 L 403.75,58.84375 403.90625,59.1875 C 403.95325,59.151382 403.98048,59 404.03125,59 404.6006,59 406.0631,59.63938 407.28125,60.4375 409.44305,61.853894 411.40459,61.715276 418.625,59.5 420.19404,59.018609 421.28921,59.546492 422.875,61.5625 425.42564,64.805112 425.81441,73.496576 423.5625,76.5625 422.18923,78.432174 422.02514,78.43558 419.15625,76.75 415.52183,74.614649 412.99634,74.533343 410.4375,76.46875 408.05674,78.269464 405.77713,78.402133 404.1875,76.8125 403.96349,76.588489 403.81964,75.551548 403.65625,74.78125 L 402.8125,78.875 z"/>
</svg>
