<?xml version="1.0" encoding="UTF-8"?>
<svg xmlns="http://www.w3.org/2000/svg" viewBox="169.47 30.26 24.03 66.77">
  <path d="M 171.5 91.625 C 171.90329 91.588992 172.36437 91.65982 173 92 C 176.72069 93.991255 178.75133 93.144943 181.3125 88.5625 C 183.12278 85.323553 183.79635 82.551494 183.84375 78.3125 C 183.89505 73.724373 184.35853 72.154789 185.96875 70.84375 C 188.2782 68.963401 188.59914 67.880172 186.75 68.25 C 184.93171 68.613658 185.48677 61.249284 187.4375 59.09375 C 189.47119 56.846545 189.42962 55.88708 187.34375 56.6875 C 185.92108 57.233433 185.75575 56.800804 186.28125 53.5625 C 186.6181 51.486773 187.6665 49.240519 188.59375 48.5625 C 190.14617 47.427341 190.13543 47.267107 188.625 46.6875 C 186.08804 45.71398 186.48464 39.163348 189.25 36.21875 L 191.5 33.84375 L 188.75 34.53125 C 187.10815 34.943085 185.39323 34.751943 184.5625 34.0625 C 183.73552 33.376167 182.93567 33.290501 182.59375 33.84375 C 182.27584 34.358138 182.68106 35.320337 183.5 36 C 184.31894 36.679663 185 38.725085 185 40.53125 C 185 43.322856 184.70016 43.725852 183 43.28125 C 180.42171 42.607013 180.36768 44.707785 182.90625 47.4375 C 185.14947 49.849629 184.76393 55.217227 182.40625 54.3125 C 181.49725 53.963682 181 54.479866 181 55.78125 C 181 56.88125 181.675 58.058418 182.5 58.375 C 183.52797 58.769468 184 60.363343 184 63.46875 C 184 67.71442 182.72024 69.554171 181.71875 66.75 C 181.47321 66.0625 180.90839 65.839824 180.46875 66.25 C 180.02911 66.660176 180.20441 68.128046 180.84375 69.53125 C 182.71726 73.643153 182.29633 78.77104 180 80 C 178.37344 80.870508 178.22752 81.387879 179.15625 82.875 C 180.55861 85.120536 179.49242 89.886964 177.40625 90.6875 C 176.56257 91.011252 174.77743 90.766762 173.4375 90.15625 C 172.45079 89.706676 171.88353 89.264745 171.53125 88.5 L 171.46875 88.875 L 171.5 91.625 z "/>
</svg>
