<?xml version="1.0" encoding="UTF-8"?>
<svg xmlns="http://www.w3.org/2000/svg" viewBox="1116.22 17.53 18.88 53.83">
  <path d="M 1123.4653,68.039156 C 1122.3462,67.590669 1120.8618,66.538449 1120.1667,65.70089 1118.2212,63.356718 1120.5211,62.640083 1123.5727,64.639581 1125.7073,66.03822 1126.7472,66.156435 1129.1009,65.268005 1132.0717,64.146677 1132.9831,64.968604 1130.75,66.755166 1128.7292,68.371889 1125.6499,68.914647 1123.4653,68.039156 z M 1123.75,55.428025 C 1122.2375,54.60748 1121,53.275497 1121,52.468063 1121,50.62739 1121.3943,50.635417 1125.0996,52.551525 1126.7498,53.404864 1128.9775,53.824539 1130.05,53.484137 1132.9859,52.552318 1132.42,54.889828 1129.4349,56.024751 1126.4032,57.177416 1127.1117,57.251792 1123.75,55.428025 z M 1124.1122,42.735258 C 1121.4342,41.349865 1121.2105,39.252319 1123.8156,39.953176 1124.742,40.202423 1126.9625,40.427423 1128.75,40.453176 1132.6498,40.509362 1132.9625,41.683557 1129.4349,43.024751 1126.3622,44.192997 1126.9968,44.227512 1124.1122,42.735258 z M 1123.4945,31.993869 C 1120.9509,29.183253 1122.4693,28.255297 1126.1013,30.400758 1127.7731,31.388351 1130.0093,31.969325 1131.0705,31.691811 1132.301,31.370021 1133,31.696701 1133,32.59362 1133,34.875522 1125.6846,34.413959 1123.4945,31.993869 z M 1125.2451,23.84508 C 1123.8809,22.480878 1123.5563,19.981187 1124.75,20.031803 1125.1625,20.049295 1126.3764,20.726406 1127.4475,21.536493 1128.5187,22.346581 1130.2594,22.735047 1131.3159,22.399751 1132.657,21.974103 1133.1022,22.199032 1132.7913,23.145061 1132.204,24.931857 1126.8303,25.430343 1125.2451,23.84508 z"/>
</svg>
