<?xml version="1.0" encoding="UTF-8"?>
<svg xmlns="http://www.w3.org/2000/svg" viewBox="47.59 26.71 21.63 72.31">
  <path d="M 67.21875 35.5 C 67.085 35.297076 67 34.982198 67 34.25 C 67 31.614062 64.28249 30 59.78125 30 L 56.40625 30 L 55.21875 38.75 C 54.568586 43.5625 53.113212 53.35 51.96875 60.5 C 49.95459 73.083409 49.589544 91.8997 51.3125 94.6875 C 51.68324 95.287371 54.13347 95.73471 56.75 95.65625 L 61.5 95.5 L 61.53125 82.5 C 61.545439 75.35 62.137897 64.775 62.84375 59 C 63.549604 53.225 64.347105 46.56784 64.625 44.21875 C 64.908379 41.823311 65.869218 39.577581 67.03125 38.3125 L 67.1875 36.5625 L 67.21875 35.5 z M 60.25 32.1875 C 60.864926 32.08585 61.615096 32.17631 62.53125 32.40625 C 64.853316 32.989052 65.137836 33.439332 64.5625 35.78125 C 62.176091 45.495173 59.819095 64.290113 59.125 79.40625 C 58.760093 87.35325 58.070916 93.443734 57.5 93.5625 C 56.95 93.676915 55.7125 93.560605 54.75 93.3125 C 53.19692 92.91216 53.003131 91.437722 53.03125 80.1875 C 53.048676 73.215328 53.737271 62.775 54.5625 57 C 55.387729 51.225 56.45045 43.627205 56.9375 40.125 C 57.709614 34.572996 58.405223 32.49245 60.25 32.1875 z "/>
</svg>
