<?xml version="1.0" encoding="UTF-8"?>
<svg xmlns="http://www.w3.org/2000/svg" viewBox="354.09 22.74 15.65 71.79">
  <path d="M 357.21875 51.96875 L 357.6875 55 C 357.89679 55.031609 358.28286 54.876611 358.40625 55 C 358.92149 55.515241 358.55504 56.633956 357.78125 57.9375 L 357.78125 61.65625 L 357.65625 62 L 358.1875 61.5 L 357.46875 72 C 357.07671 77.775 356.66149 82.596622 356.5625 82.71875 C 356.55517 82.727789 356.13011 82.536323 356.09375 82.53125 L 356.28125 85.25 C 357.03723 85.787138 357.19146 87.220192 356.5 88.03125 L 356.75 90.90625 C 360.76185 91.25999 364.31694 91.089307 365.25 90.15625 C 366.86087 88.545376 367.74439 26 366.15625 26 C 364.9938 26 364.51542 35.562793 364.15625 66.5 C 364.02225 78.042763 363.52402 87.882233 363.03125 88.375 C 362.53849 88.867767 361.4439 89.013732 360.59375 88.6875 C 359.25714 88.174593 359.15129 86.340668 359.78125 75.28125 C 360.76819 57.954439 360.31545 29.909193 359.03125 28.625 C 358.32965 27.923395 358 31.387428 358 39.5625 L 358 51.5 L 357.21875 51.96875 z "/>
</svg>
