<?xml version="1.0" encoding="UTF-8"?>
<svg xmlns="http://www.w3.org/2000/svg" viewBox="1160 14.78 30.56 82.99">
  <path d="M 1169.0989,91.398553 C 1166.1828,87.691372 1165.5324,82.701236 1166.8558,74.1887 L 1168.0086,66.773809 1165.0043,63.352108 C 1162.7456,60.779637 1162,58.946287 1162,55.965204 1162,51.481711 1163.5919,50.786531 1166.5,54 1167.4955,55.1 1168.8027,55.998939 1169.405,55.997642 1170.965,55.994284 1170.8461,33.47885 1169.2624,29 1167.9958,25.417911 1168.7302,19.916862 1170.5545,19.322033 1171.0745,19.152476 1172.2666,20.360654 1173.2035,22.006873 1175.3513,25.780713 1176.6487,25.780713 1178.7965,22.006873 1180.763,18.551636 1181.9104,18.61468 1183.9837,22.291878 1185.2739,24.580282 1185.2827,25.352159 1184.0507,28.211701 1183.2715,30.020266 1182.7282,33.75 1182.8433,36.5 1182.9584,39.25 1182.327,44.798742 1181.4402,48.830538 1180.5533,52.862334 1180.0775,56.41079 1180.3827,56.715996 1180.6879,57.021203 1182.1247,56.493066 1183.5757,55.54236 1187.1911,53.173442 1188.5603,54.741963 1186.6973,59.118404 1185.9055,60.978282 1184.1496,63.52059 1182.7953,64.767977 1180.4897,66.891514 1180.3618,67.535939 1180.7873,74.886678 1181.4535,86.394175 1178.5208,94 1173.4176,94 1172.1611,94 1170.2303,92.836967 1169.0989,91.398553 z M 1177.6677,87.252968 C 1179.1866,83.617621 1179.0814,76.156788 1177.4177,69.528103 1176.9329,67.59639 1177.6378,66.295649 1180.905,63.0931 1185.8199,58.275505 1186.2461,56.304275 1181.8851,58.559418 1177.5233,60.814975 1176.1217,59.247841 1178.0303,54.249348 1178.8625,52.069742 1179.5188,46.488312 1179.5978,40.918034 1179.6999,33.722201 1180.161,30.683859 1181.4498,28.716998 1182.543,27.048453 1182.9134,25.302429 1182.4702,23.906021 1181.7939,21.775331 1181.7058,21.801891 1179.3148,24.857058 1176.5489,28.391238 1174.3529,28.833094 1172.392,26.25 1171.2669,24.767791 1171.0587,24.738544 1171.0318,26.05887 1171.0143,26.916249 1171.6109,28.453258 1172.3577,29.474446 1173.4078,30.910549 1173.6055,34.521715 1173.2307,45.415576 1172.9641,53.162009 1172.5974,59.668286 1172.4157,59.873968 1172.234,60.079651 1170.4912,59.307327 1168.5427,58.157694 1163.9486,55.447115 1163.7308,57.484907 1168.0847,62.443648 1170.9881,65.750425 1171.0993,66.169207 1169.977,69.569754 1168.2318,74.857756 1169.0961,86.343683 1171.4335,88.926547 1174.1688,91.94894 1175.8997,91.484255 1177.6677,87.252968 z"/>
</svg>
