<?xml version="1.0" encoding="UTF-8"?>
<svg xmlns="http://www.w3.org/2000/svg" viewBox="1060.75 17.25 42.56 82.49">
  <path d="M 1101.25,47.875 C 1100.7541,49.177002 1100.1748,49.955462 1099.3438,50.5 1094.8223,53.462635 1093.0059,52.897515 1089.9062,47.46875 L 1087.0312,42.40625 1089.5312,38.75 C 1092.111,34.953537 1092.8662,28.648742 1090.9062,27.4375 1090.3116,27.06996 1088.6229,27.971169 1087.125,29.40625 1085.6271,30.841332 1083.9058,32 1083.3125,32 1082.0147,32 1081.0186,28.689209 1081,24.25 1080.9924,22.4625 1080.5149,21 1079.9375,21 1076.0473,21 1067.3736,29.077904 1064.2812,35.5625 1062.783,38.704223 1062.753,39.1904 1064.1562,40.59375 1065.0102,41.447633 1067.5401,42.288721 1069.7812,42.46875 1072.0225,42.64878 1074.3506,43.106029 1074.9375,43.46875 1076.4788,44.421329 1076.2459,48.169175 1074.375,52.625 1067.5926,68.778942 1067.0658,86.173301 1073.1562,92.65625 1076.2899,95.991732 1079.0467,95.572876 1084,91 1086.383,88.8 1088.9358,87 1089.6875,87 1090.4393,87 1093.3386,88.150522 1096.125,89.5625 1098.0532,90.539584 1098.9231,90.756759 1099.9062,91.0625 L 1099.8125,87.53125 C 1098.9395,87.900196 1097.5273,87.698286 1095.875,86.75 1091.047,83.979127 1087.8551,84.536878 1082.9062,89 1080.4755,91.192237 1078.2334,92.992237 1077.9062,93 1077.5789,93.007764 1076.6209,92.2125 1075.7812,91.25 1070.2116,84.864847 1070.0781,73.503266 1075.375,57.625 1077.3707,51.642533 1079,45.923603 1079,44.90625 1079,42.298058 1074.6971,39.76341 1070.9062,40.15625 1066.6573,40.596551 1065.0332,38.201977 1067.0312,34.46875 1068.5466,31.637264 1076.9911,23.000913 1078.25,23 1078.6625,22.999702 1079,25.192345 1079,27.875 1079,34.472703 1080.7673,35.922211 1085.3438,33.09375 1087.2116,31.939294 1088.9475,31 1089.2188,31 1090.4295,31 1088.5218,36.7969 1086.3438,39.71875 L 1083.9375,42.9375 1086.5938,48.21875 C 1088.0576,51.121 1089.7597,53.845922 1090.375,54.25 1092.1554,55.419063 1095.2729,55.102814 1098.4062,53.46875 1099.9002,52.689643 1100.7247,52.474699 1101.2188,52.5625 L 1101.3125,48.9375 1101.25,47.875 z M 1101.1562,54.5625 C 1100.9219,55.05925 1100.7156,55.497377 1100.3125,56.1875 1097.1711,61.566294 1094.5396,62.305657 1088.875,59.34375 1086.2373,57.96449 1083.5661,57.142754 1082.9375,57.53125 1082.3089,57.919746 1080.7194,60.554895 1079.4062,63.375 1076.3252,69.992154 1076.1072,78.679514 1078.9375,82.125 L 1080.875,84.5 1084.5625,80.75 C 1086.5836,78.6875 1088.6707,77 1089.2188,77 1090.744,77 1097.6965,81.791114 1099.6875,84 L 1099.5625,79.4375 C 1099.0248,79.552633 1097.3613,78.846863 1095.4688,77.5625 1090.6288,74.277974 1089.0079,74.338494 1085.5,78 1081.5673,82.104876 1080.2483,81.792305 1079.4688,76.59375 1078.7704,71.936328 1079.1478,69.798468 1081.7188,63.75 1083.5633,59.410285 1084.7027,59.192698 1089.9062,62.1875 L 1093.6875,64.375 1097.4688,62.15625 1100.9688,60.09375 1101.1562,54.5625 z"/>
</svg>
