<?xml version="1.0" encoding="UTF-8"?>
<svg xmlns="http://www.w3.org/2000/svg" viewBox="1191.03 23.07 55.49 80.65">
  <path d="M 1213,98.879272 C 1211.625,98.332596 1209.2625,96.701929 1207.75,95.255567 1203.9003,91.574199 1204.1162,87.509211 1208.5,81.136319 1212.5249,75.285182 1212.8665,72.025568 1209.8924,67.848917 1206.9614,63.732667 1204.2036,64.391974 1201.4544,69.866212 1200.2202,72.323731 1198.968,73.757309 1198.59,73.145579 1198.2205,72.547815 1198.6659,70.58302 1199.5797,68.779368 1204.2606,59.540279 1208.7604,59.586963 1213.4949,68.92373 1215.2297,72.344788 1215.2281,72.353474 1211.4759,80.049411 1206.7253,89.793234 1207.0864,92.265995 1213.6867,95.185608 1217.0812,96.687143 1219.6281,97.09802 1223.334,96.741932 1227.6441,96.327784 1228.9186,95.669103 1232.1846,92.16778 1234.2831,89.918096 1236,87.088453 1236,85.879685 1236,84.560298 1234.2256,82.046899 1231.5602,79.590962 1225.1902,73.721436 1224.8456,66.626375 1230.7068,62.015993 1233.8011,59.582003 1235.8901,60.472689 1239.4809,65.757105 L 1242,69.464269 1242,65.136427 C 1242,56.783095 1236.7371,52.46254 1231.4411,56.468197 1226.2215,60.416164 1224.3599,57.099496 1225.3768,45.663573 1225.973,38.958961 1225.835,38.231651 1223.2236,34.31154 L 1220.4334,30.123079 1217.1609,32.195045 C 1214.8719,33.644348 1214.0839,34.752795 1214.5388,35.883505 1216.8277,41.573238 1217.9797,47.371501 1217.9892,53.25 1218.0016,61.004759 1217.6135,61.243766 1210.5679,57.820731 1206.8281,56.003808 1205.6594,55.834148 1203.5389,56.800339 1199.4251,58.674683 1197.008,63.680087 1197.0037,70.333333 1197.001,74.551559 1196.6539,76.052732 1195.75,75.755164 1193.5557,75.032788 1193.6791,66.549383 1195.9486,62.100709 1199.9062,54.343132 1205.0388,52.092272 1211,55.5 1212.375,56.286021 1213.8375,56.945075 1214.25,56.964565 1216.1329,57.053526 1214.1475,40.085464 1211.9934,37.679399 1211.5894,37.228068 1209.1579,38.339634 1206.5902,40.149544 1201.4364,43.782259 1199.7664,43.532335 1197.033,38.71929 1195.3216,35.705713 1196.3887,31.392839 1199.2886,29.603585 1200.7095,28.726827 1202.0897,29.061176 1206.0038,31.230302 L 1210.9305,33.960604 1216.0874,30.754872 1221.2444,27.54914 1224.5734,31.514345 1227.9024,35.479551 1231.1279,32.180375 C 1232.902,30.365828 1235.1806,28.438523 1236.1916,27.897475 1238.367,26.733223 1238.5989,27.240312 1239.3833,34.875912 1240.2476,43.288507 1237.8375,45.705599 1231.4754,42.806856 1227.908,41.181414 1226.7518,43.057544 1227.4211,49.385613 1228.0472,55.304283 1228.3605,55.680204 1231.3392,54.086084 1238.2234,50.401755 1244,56.095863 1244,66.566096 1244,70.014777 1243.7269,73.548229 1243.393,74.418213 1242.296,77.276906 1240.0968,76.073091 1239.0043,72.015945 1238.4143,69.824715 1236.8205,66.787215 1235.4627,65.265945 L 1232.9939,62.5 1230.9969,64.860784 C 1227.658,68.808115 1228.3533,73.445333 1232.9615,77.962311 1235.1404,80.098022 1237.1981,82.941291 1237.5343,84.280686 1239.3241,91.411742 1229.9504,100.05445 1220.5542,99.936614 1217.7744,99.901751 1214.375,99.425947 1213,98.879272 z M 1205.75,38.056438 C 1206.9875,37.024075 1208,35.772392 1208,35.27492 1208,34.030599 1201.0828,30.830788 1199.9313,31.542445 1197.8276,32.842636 1200.0166,40.048267 1202.4905,39.966731 1203.0457,39.948433 1204.5125,39.088801 1205.75,38.056438 z M 1212.5714,90.428571 C 1210.6935,88.550645 1210.7089,88.733089 1212.1605,85.547053 1213.0649,83.562043 1214.0537,83 1216.6415,83 1219.3633,83 1220.0768,83.457945 1220.5995,85.540295 1221.8191,90.399817 1216.0534,93.910562 1212.5714,90.428571 z M 1217.9636,88.543805 C 1219.3378,86.88799 1218.5581,85 1216.5,85 1214.7005,85 1213.6763,86.714034 1214.38,88.547887 1215.0903,90.399014 1216.4252,90.397493 1217.9636,88.543805 z M 1222.4649,89.943165 C 1221.4211,88.254299 1222.8575,84.146657 1224.8681,83.070613 1226.2676,82.321585 1227.2296,82.565215 1228.8563,84.080704 1231.2751,86.334231 1231.5571,88.042919 1229.8,89.8 1228.3177,91.282271 1223.3524,91.379183 1222.4649,89.943165 z M 1228.5,87 C 1228.5,86.190065 1227.7125,85.375731 1226.75,85.190371 1225.5222,84.953909 1225,85.493851 1225,87 1225,88.506149 1225.5222,89.046091 1226.75,88.809629 1227.7125,88.624269 1228.5,87.809935 1228.5,87 z M 1237,35.964816 C 1237,30.292453 1236.8828,29.99233 1235.0513,30.972553 1232.52,32.32728 1230,35.960169 1230,38.25473 1230,39.250075 1231.0125,40.471424 1232.25,40.968838 1236.6106,42.721566 1237,42.311292 1237,35.964816 z"/>
</svg>
