<?xml version="1.0" encoding="UTF-8"?>
<svg xmlns="http://www.w3.org/2000/svg" viewBox="1539.87 41.78 36.13 56.44">
  <path d="M 1545.1562,93 1545.25,95.65625 C 1545.5179,95.519103 1545.7083,95.465654 1546,95.3125 1552.817,91.732839 1556.3745,85.823061 1558.0938,75.25 1558.8439,70.636592 1559.7474,68 1560.5625,68 1561.2671,68 1562.4898,67.74118 1563.2812,67.4375 1564.221,67.076898 1565.1651,67.953144 1566,69.96875 1567.1625,72.77523 1567.0362,73.386545 1564.6875,76.6875 1561.99,80.478791 1562.3019,83.405018 1565.5625,84.65625 1568.4218,85.753437 1570.2563,82.887104 1569.625,78.28125 1569.2863,75.810052 1569.2385,74.914346 1569.625,74.75 L 1568.6562,68.375 C 1567.8576,68.618999 1567,67.901775 1567,66.34375 1567,65.11409 1566.2172,64.956466 1563,65.5 1559.579,66.077968 1559,65.927748 1559,64.40625 1559,62.715936 1558.9347,62.712144 1557.7188,64.375 1556.6785,65.797461 1555.9357,65.924753 1553.75,65.09375 1551.461,64.223498 1550.8345,64.389413 1549.5312,66.25 1548.6892,67.452265 1548,69.170121 1548,70.0625 1548,70.954878 1547.1,72.504514 1546,73.5 1542.1874,76.950362 1544.883,83.122723 1549.4375,81.375 1551.5184,80.576478 1552.5294,76.361236 1551.0625,74.59375 1549.8998,73.192829 1550.0198,68.636427 1551.25,67.40625 1551.6118,67.0444 1553.1194,67.067456 1554.5938,67.4375 1557.1925,68.089744 1557.252,68.276208 1556.75,73.8125 1556.0577,81.447536 1552.845,87.878139 1548.0312,91.28125 1546.8022,92.150129 1545.9537,92.637853 1545.1562,93 z M 1548,75.5625 C 1548.7825,75.479658 1549.5,76.100969 1549.5,77.5 1549.5,78.630221 1548.6983,79.611834 1547.6562,79.8125 1546.2362,80.085979 1545.8994,79.657567 1546.1562,77.84375 1546.3573,76.423427 1547.2175,75.645342 1548,75.5625 z M 1567.625,78 C 1568.6067,78 1569.0201,78.744778 1568.8125,80.15625 1568.4244,82.793268 1566.2206,83.747094 1565.4062,81.625 1564.6558,79.669076 1565.6804,78 1567.625,78 z M 1563.875,44.84375 C 1563.1469,45.008552 1562.2804,45.342828 1561.2188,45.84375 1558.4447,47.152678 1557.4172,47.19381 1554.375,46.09375 1550.8729,44.827358 1550.7133,44.876248 1546.9062,48.59375 1542.6381,52.761479 1541.8708,56.312929 1544.9062,57.9375 1546.3589,58.714876 1547.3619,58.527394 1549.0938,57.125 1551.1911,55.426627 1551.2537,55.045197 1550.0312,52.09375 1548.219,47.718509 1549.716,46.286779 1553.875,48.4375 1556.2558,49.668685 1557,50.728396 1557,52.90625 1557,54.473376 1557.3375,57.26875 1557.75,59.125 1558.3924,62.015693 1558.5461,61.56726 1558.7812,56 1558.9988,50.848557 1559.4716,49.136927 1561.125,47.75 1563.9528,45.377982 1564.5588,45.533729 1565.9688,48.9375 1566.9325,51.264036 1566.9176,52.585421 1565.875,55.46875 1564.7554,58.564933 1564.776,59.250715 1566.0312,60.0625 1570.1792,62.74518 1574.0048,57.925004 1570.7188,54.15625 1569.9191,53.239106 1568.713,50.839477 1568.0625,48.8125 1566.9868,45.460269 1566.0594,44.349343 1563.875,44.84375 z M 1547,52.53125 C 1547.7791,52.448236 1548.5,52.928247 1548.5,54 1548.5,54.817468 1547.6686,55.617521 1546.6562,55.8125 1545.3199,56.069866 1544.9301,55.680146 1545.1875,54.34375 1545.3982,53.249544 1546.2209,52.614264 1547,52.53125 z M 1568.25,56.09375 C 1568.6049,56.097898 1569.0526,56.19132 1569.5312,56.375 1570.4147,56.714061 1570.8423,57.446116 1570.5,58 1569.6894,59.311538 1568.2991,59.281081 1567.4688,57.9375 1566.7784,56.820637 1567.1853,56.081305 1568.25,56.09375 z"/>
</svg>
