<?xml version="1.0" encoding="UTF-8"?>
<svg xmlns="http://www.w3.org/2000/svg" viewBox="68.83 26.7 28.03 72.6">
  <path d="M 92.5,82.28125 C 92.153285,81.427991 92.383733,80.454523 93.09375,78.375 94.859998,73.201951 94.858481,52.121494 93.09375,45 90.855668,35.968324 87.08251,30 83.59375,30 82.571329,30 77.186984,41.570786 75.65625,47.0625 70.828908,64.381244 71.920337,85.566505 78.0625,93.375 79.200554,94.821801 80.552419,96 81.0625,96 82.37089,96 82.271611,95.571488 79.90625,91.5625 L 77.8125,88 80.21875,88 C 81.541223,88 84.136292,86.875 86,85.5 87.863708,84.125 89.495247,83 89.625,83 90.120435,83 88.058257,89.157933 86.5625,92.15625 84.712055,95.865554 84.704162,96 86.03125,96 86.594863,96 87.477226,94.875 88,93.5 88.522774,92.125 89.162825,91 89.40625,91 89.426906,91 89.823084,91.202681 89.875,91.21875 L 91.15625,86.8125 C 91.027436,85.7511 91.103475,85.205548 91.625,85.21875 L 92.5,82.28125 z M 84.125,33 C 85.230356,33 89,38.604195 89,40.25 89,41.042353 88.162058,42.433507 87.15625,43.34375 84.955481,45.335419 82.977203,45.430323 80.59375,43.6875 78.906747,42.453933 78.955316,42.153364 81.125,37.6875 82.381259,35.101741 83.722048,33 84.125,33 z M 89.21875,44.46875 C 89.535155,44.43121 89.827591,44.669393 90.15625,45.1875 91.728977,47.666789 90.994586,50.876933 88.375,52.9375 86.925828,54.077419 85.238328,54.990771 84.625,54.96875 83.677675,54.934738 78.22272,52.353767 77.15625,51.4375 76.966412,51.274399 77.098505,49.748217 77.46875,48.0625 78.041558,45.454524 78.420508,45.154682 80,46 82.746518,47.469892 86.570397,47.19772 88.03125,45.4375 88.544102,44.819552 88.902345,44.50629 89.21875,44.46875 z M 91.1875,53.15625 C 91.74796,53.315377 92,54.25253 92,56 92,58.361123 91.116844,59.628982 87.84375,62 85.561228,63.653449 83.423728,64.993058 83.09375,64.96875 82.763771,64.944442 80.828896,64.018711 78.78125,62.9375 75.371415,61.137017 75.091485,60.717437 75.65625,57.75 76.457767,53.538604 76.479094,53.531097 79.15625,55.40625 82.275576,57.591111 86.318349,57.410697 88.5,55 89.758159,53.609749 90.62704,52.997123 91.1875,53.15625 z M 92,60.84375 92,65.34375 C 92,69.123091 91.530771,70.224157 88.9375,72.40625 83.159508,77.26811 75,74.307978 75,67.34375 75,63.480889 74.877205,63.54539 78.625,65.5 82.695841,67.62309 84.072601,67.406624 88.28125,63.9375 L 92,60.84375 z M 91.125,74.25 C 91.465397,74.076353 91.515612,75.048042 91.25,76.4375 90.984388,77.826958 89.013871,80.567659 86.875,82.5 82.821323,86.162255 81.564152,86.567845 78.9375,85.03125 77.281167,84.062293 74.296283,76.359967 75.21875,75.4375 75.514591,75.141659 77.381906,75.70581 79.375,76.65625 83.256525,78.50722 82.455856,78.672408 91.125,74.25 z"/>
</svg>
