<?xml version="1.0" encoding="UTF-8"?>
<svg xmlns="http://www.w3.org/2000/svg" viewBox="800.8 26.62 23.87 76.87">
  <path d="M 807.10576,97.09879 C 803.45731,93.690635 803.34301,92.711526 805.98796,87.52362 807.9719,83.632229 807.9719,83.617552 805.98796,80.255018 802.80075,74.853096 803.62776,71.519937 809.72868,65.178571 811.5474,63.288168 811.30476,61.585783 808.90738,59.416176 804.63422,55.549028 804.57219,54.161597 808.51113,50.553671 L 812.15217,47.218606 810.10907,43.213803 808.06598,39.209 811.08511,35.041213 C 814.63091,30.146371 816.48834,30.117011 819.71483,34.904805 822.67358,39.295294 822.60167,40.245138 819,44.347219 817.35,46.226465 816,48.112147 816,48.537624 816,48.963101 817.125,50.786169 818.5,52.588887 821.73523,56.830498 821.64396,58.126341 817.96237,60.221459 L 814.93738,61.942917 817.48701,66.97437 C 820.457,72.835359 820.15581,75.345189 815.91208,80.098476 812.60271,83.805211 812.40433,84.830199 814.4682,87.55887 815.2757,88.626492 815.94902,90.4 815.96446,91.5 815.99685,93.808515 812.46843,100 811.12045,100 810.62053,100 808.81392,98.694456 807.10576,97.09879 z M 816.05362,71.162463 C 814.05162,65.096362 813.44536,64.385496 811.5883,65.92672 810.72802,66.640684 809.08617,68.742546 807.93973,70.597525 L 805.85529,73.970214 808.12949,78.0166 810.40368,82.062985 813.88008,78.586584 C 817.29667,75.169998 817.33407,75.04226 816.05362,71.162463 z M 812.53401,90.06577 C 810.64394,86.410772 808.91373,86.492873 807.56761,90.301433 806.83572,92.372148 807.0372,93.383628 808.50454,95.005012 810.34304,97.036535 810.40527,97.03917 812.2796,95.164843 814.08391,93.360535 814.09745,93.089129 812.53401,90.06577 z M 816.47717,58.640351 C 818.27651,57.324643 818.26389,57.163054 816.08674,53.640351 813.49253,49.442831 813.33846,49.400301 810.00475,51.96153 L 807.5095,53.878589 810.44184,56.939294 C 813.79178,60.435878 813.95769,60.48264 816.47717,58.640351 z M 818.38938,42.854473 C 819.74734,40.915708 819.69945,40.33119 817.89238,36.789041 815.67,32.432813 814.59343,32.314272 812.25494,36.1683 810.90667,38.390366 810.86158,39.251602 811.95525,41.89197 813.47109,45.551526 816.21299,45.961697 818.38938,42.854473 z"/>
</svg>
