<?xml version="1.0" encoding="UTF-8"?>
<svg xmlns="http://www.w3.org/2000/svg" viewBox="490.21 16.31 62.05 90.3">
  <path d="M 549.21875,56.40625 C 548.97795,57.051007 548.69669,57.467356 548.3125,57.75 545.4517,59.854654 543.23598,59.172971 539.375,55 535.1712,50.456504 533.55468,50.106598 530.375,53.09375 529.14277,54.251372 527.6454,54.910814 527.03125,54.53125 524.98315,53.265453 527.65078,34 529.875,34 530.27723,34 531.49488,34.661241 532.5625,35.46875 537.22217,38.993145 541,35.551063 541,27.78125 541,23.482327 540.75944,23 538.71875,23 537.47143,23 534.77709,24.132576 532.71875,25.53125 L 528.96875,28.09375 525.65625,25.53125 C 523.82249,24.132576 521.87099,23 521.34375,23 520.81652,23 518.54957,24.354842 516.3125,26 L 512.25,28.96875 507.90625,25.53125 C 502.93214,21.595099 499.41213,20.418388 497.46875,22.03125 496.7265,22.647261 495.37812,25.38715 494.46875,28.125 493.10603,32.227776 493.0258,33.635135 494.03125,36.0625 495.66899,40.016364 498.27328,39.848435 503.65625,35.4375 506.05386,33.472839 508.79096,32.002826 509.75,32.1875 512.39524,32.696873 514.10784,39.387391 513.78125,47.9375 513.54611,54.093342 513.22243,55.416585 512,55.0625 507.54728,53.772745 503.67926,54.579846 501.71875,57.1875 499.25948,60.458562 498.20038,69.331592 500,71.5 501.73848,73.59474 502.76605,73.376322 503.5625,70.75 504.43347,67.8779 507.94531,64 509.6875,64 510.42471,64 511.94026,65.4625 513.0625,67.25 515.82599,71.651667 515.34917,80.271938 512.09375,84.84375 509.32759,88.728465 507.23452,88.447763 501.96875,83.40625 500.02056,81.54103 497.91266,80 497.3125,80 495.90034,80 495.01715,83.390085 495,88.875 494.98828,92.624026 495.54254,93.792532 498.875,97.125 504.26031,102.5103 508.15061,102.32794 515.34375,96.34375 L 518.1875,93.96875 521.625,96.96875 C 524.184,99.215579 526.05149,100 528.9375,100 533.10139,100 544,96.296354 544,94.875 544,93.7641 544.34341,93.68402 538.25,96 531.34536,98.624315 528.55683,98.52279 524.59375,95.5 520.46952,92.354301 517.54136,92.331173 513.46875,95.4375 508.66877,99.09863 505.27595,99.663995 502.96875,97.1875 499.62263,93.595867 497.00385,88.586172 497,85.75 496.99526,82.263431 498.90241,82.196705 502.0625,85.59375 505.20509,88.971985 508.60387,90.296895 510.96875,89.03125 516.03884,86.31782 518.76096,72.33518 515.46875,65.96875 512.92347,61.04672 506.64824,61.082972 504,66.03125 502.23044,69.337705 500.66466,68.398418 501.3125,64.40625 502.4899,57.150821 506.18152,54.414632 511.1875,57.09375 514.79006,59.021784 516.06315,56.428859 516.15625,46.9375 516.20173,42.30076 515.72185,37.210145 515.09375,35.625 513.61125,31.883608 514.31586,29.878712 518.125,27.0625 L 521.21875,24.78125 524.28125,27.84375 527.34375,30.90625 525.6875,36.9375 C 524.76433,40.257951 524,46.155685 524,50.03125 524,58.439994 525.49307,59.81922 529.96875,55.53125 533.16508,52.468968 533.8688,52.64898 538.375,57.78125 541.13724,60.927276 541.76279,61.168167 545.75,60.71875 547.82013,60.485417 548.80626,60.420719 549.34375,60.6875 L 549.4375,57.40625 549.21875,56.40625 z M 499.4375,23.59375 C 500.01672,23.544279 500.7215,23.841005 501.875,24.4375 504.57189,25.832117 508.64209,29.771637 507.90625,30.28125 507.68045,30.437625 505.925,31.733277 504,33.125 498.58507,37.039851 498.27593,37.119685 496.5625,35.40625 494.67248,33.516232 495.3366,27.546875 497.75,24.78125 498.40535,24.030261 498.85828,23.643221 499.4375,23.59375 z M 537.5625,25 C 539.25875,25 539.52507,30.154475 537.96875,33.0625 536.6309,35.562289 535.70309,35.496442 532.4375,32.6875 L 529.75,30.375 532.9375,27.6875 C 534.69846,26.205751 536.77969,25 537.5625,25 z M 549.1875,65.15625 C 548.67219,66.334741 547.88928,67.350982 546.34375,68.25 L 543.15625,70.09375 538.03125,65.53125 C 533.90696,61.8683 532.55529,61.155309 531.09375,61.9375 527.00373,64.126414 525.33823,73.377259 528.1875,78.0625 530.03329,81.097655 530.04817,81.300008 528.3125,83.75 527.32374,85.145679 526.05,86.907434 525.5,87.6875 522.82191,91.485835 534.9879,93.627277 541.15625,90.4375 544.99632,88.451723 544.15299,87.39458 539.90625,88.875 535.92033,90.2645 529.33037,90.34356 528.5,89 528.15776,88.446246 528.89163,86.575867 530.125,84.84375 532.32094,81.759844 532.33189,81.598653 530.6875,76.96875 529.7639,74.368303 529.01376,71.176183 529.03125,69.875 529.06092,67.668293 531.07176,64 532.25,64 532.53716,64 534.55,65.8 536.75,68 540.95392,72.203923 543.92229,73.003482 546,70.5 546.68469,69.675 547.86735,69 548.625,69 548.77509,69 548.84438,69.21572 548.96875,69.28125 L 549.0625,68.75 549.1875,65.15625 z"/>
</svg>
