<?xml version="1.0" encoding="UTF-8"?>
<svg xmlns="http://www.w3.org/2000/svg" viewBox="283.8 27.23 30.15 70.07">
  <path d="M 293.13176,92.554139 C 289.50703,91.323182 285.80215,85.783904 286.76557,83.035831 288.22596,78.870187 294.21414,75 299.19909,75 303.44874,75 307.00377,78.974634 306.98469,83.704545 306.97627,85.792045 306.63877,87.95 306.23469,88.5 303.39296,92.367942 297.73679,94.118001 293.13176,92.554139 z M 295.15833,71.796025 C 292.77042,70.638667 290.3267,68.61638 289.72786,67.302053 288.74346,65.141548 289.11137,64.478726 293.56401,60.390759 297.85825,56.448218 298.89818,55.945917 301.68421,56.468579 304.67637,57.029913 310,61.921079 310,64.108844 310,66.458789 306.98401,71.938193 305.1504,72.919509 302.29511,74.447611 300.12601,74.203723 295.15833,71.796025 z M 303.30008,86.799892 C 305.18548,84.274603 305.18813,84.127056 303.4022,81.103726 301.95204,78.648799 300.89206,78 298.33145,78 291.3248,78 287.89632,81.483573 290.11357,86.349922 292.40029,91.368725 299.70291,91.617916 303.30008,86.799892 z M 299.28625,51.808078 C 295.8109,50.892699 291.55004,46.080639 290.50472,41.890527 289.95419,39.683781 290.51012,38.7192 294.10686,35.640527 300.0245,30.575244 303.94022,30.415909 308.25,35.065027 311.83733,38.934813 311.95072,44.064756 308.54755,48.526542 305.68971,52.273371 303.71255,52.973932 299.28625,51.808078 z M 306.50467,67.990969 C 308.24899,64.617833 307.38136,61.809647 304.04282,60.022918 300.78981,58.281961 298.51721,58.871159 295.17169,62.322861 292.12577,65.465452 292.04731,65.729115 293.72552,67.182878 299.28793,72.001358 304.26797,72.316271 306.50467,67.990969 z M 306.54775,47.353977 C 309.24541,44.443155 309.60732,42.0088 307.83666,38.684259 305.01219,33.381119 300.96388,32.711758 296.13824,36.75 293.24733,39.169197 292.97086,39.811396 293.83992,42.088667 294.97705,45.068361 300.45302,50 302.62447,50 303.43354,50 305.19901,48.80929 306.54775,47.353977 z"/>
</svg>
