<?xml version="1.0" encoding="UTF-8"?>
<svg xmlns="http://www.w3.org/2000/svg" viewBox="813.25 22.72 45.97 72.08">
  <path d="M 847.59585,86.950015 C 845.68529,85.272524 843.64248,82.460024 843.05626,80.700015 842.23667,78.239336 840.61816,76.785279 836.05096,74.406525 832.78426,72.705113 829.71268,71.580113 829.22522,71.906525 828.1497,72.626709 824.4672,80.3624 823.23022,84.5 821.12843,91.530301 815.34301,84.987184 816.59872,77 817.26776,72.744481 821.40257,65.39005 824.05865,63.731297 827.05016,61.863073 826.67804,54.981702 823.31031,49.89273 820.24242,45.256829 819.87317,39.208252 822.25198,32.556285 823.83324,28.134518 825.43403,27.028223 826.3718,29.709108 830.03816,40.190553 830.75476,41.513521 832.93918,41.833694 834.32846,42.037322 836.24566,41.204827 837.85792,39.697855 839.31107,38.339613 841.9625,36.490394 843.75,35.588481 845.5375,34.686568 847,33.544722 847,33.051045 847,30.86928 852.31557,26 854.6973,26 856.89712,26 857.13579,26.322831 856.57825,28.544239 855.22747,33.926196 854.07657,46.132847 854.64972,48.998612 855.42793,52.889669 853.77014,52.890299 851,49 849.8251,47.35 848.19875,46 847.3859,46 844.91672,46 841.13588,55.491468 841.68133,60.320811 842.18374,64.768979 843.84643,69 845.09206,69 845.50681,69 847.19615,67.65 848.84615,66 850.49615,64.35 852.03779,63 852.27202,63 852.50624,63 852.98283,67.3875 853.33112,72.75 853.6794,78.1125 854.25625,84.1875 854.61302,86.25 855.19196,89.596926 855.03639,90 853.16564,90 852.01281,90 849.50641,88.627507 847.59585,86.950015 z M 825.21972,76.304601 C 828.11292,70.432792 828.71615,68.338138 827.93454,66.877678 826.40284,64.015683 824.3334,64.615464 821.53605,68.732135 819.81958,71.258155 819,73.817084 819,76.650347 819,81.037796 819.76887,84.050586 820.85699,83.926923 821.21064,83.88673 823.17387,80.456686 825.21972,76.304601 z M 829.12557,47.623744 C 829.9603,45.791721 829.8664,44.703832 828.71558,42.873744 827.89461,41.568185 826.67008,38.75866 825.99441,36.630355 825.10328,33.823357 824.52766,33.13683 823.89827,34.130355 822.49486,36.345748 822.87276,42.929596 824.61394,46.598871 826.51732,50.609946 827.64795,50.866781 829.12557,47.623744 z M 851.625,82.875 C 851.28125,81.15625 851,76.850608 851,73.306906 L 851,66.863812 848.00069,68.999511 C 837.97943,76.135273 835.50651,56.845851 844.92393,45 846.69185,42.776185 847.14802,42.645747 849.05309,43.819288 850.23101,44.544896 851.31042,44.994896 851.45179,44.819288 852.11742,43.992434 854.1033,28.769963 853.6099,28.276569 852.60789,27.274553 850.12977,30.076752 849.00561,33.483016 848.29581,35.63371 847.08205,37.013575 845.56515,37.394292 842.03312,38.280776 831.53347,46.533738 830.19201,49.477937 829.54368,50.90086 828.73691,53.793053 828.39919,55.905034 827.30349,62.757221 832.55192,70.528929 840.75,74.193714 843.0875,75.238645 845,76.643071 845,77.31466 845,79.106876 849.88972,86 851.16105,86 851.84734,86 852.01889,84.844472 851.625,82.875 z"/>
</svg>
