<?xml version="1.0" encoding="UTF-8"?>
<svg xmlns="http://www.w3.org/2000/svg" viewBox="229.99 27.24 58.67 63.88">
  <path d="M 235.25,87.337719 C 233.38066,86.583424 233.71091,85.245565 236.75,81.26117 239.10134,78.178452 239.55172,76.51824 239.85674,69.808974 240.2349,61.491117 239.31783,59 235.87756,59 232.65962,59 233.82478,57.143612 237.25,56.813358 239.87416,56.560343 240.55343,56.018582 240.77747,54 240.98747,52.107865 240.31882,51.085803 238.02747,49.79651 236.36236,48.859591 235,47.622091 235,47.04651 235,45.621559 236.1254,45.780271 238.44113,47.531803 241.16696,49.593521 241.73573,49.411725 243.55277,45.897956 245.08895,42.927315 245.05827,42.688234 242.82845,40.253909 L 240.5,37.711905 243.6761,38.316173 C 248.12541,39.162675 253,36.606461 253,33.426758 253,30.806816 254.45627,30.14068 255.31151,32.369412 255.63804,33.22031 258.04504,33.933336 261.6685,34.25254 266.59906,34.68689 267.84761,34.448392 269.75,32.708814 272.09896,30.560884 272.76835,31.695805 271.04823,34.909886 269.66921,37.486603 276.86075,44.496358 279.89523,43.533253 282.36855,42.748252 282.59716,43.545701 280.5,45.642857 278.64404,47.498819 278.43537,53.426171 280.25,52.744216 284.10257,51.296384 286,50.962568 286,51.732612 286,53.171707 283.70972,55 281.90699,55 280.01023,55 279,56.955008 279,60.625624 279,62.08169 279.51074,62.970386 280.25,62.800623 280.9375,62.642746 281.725,62.960519 282,63.506787 282.275,64.053054 281.26741,64.641916 279.76092,64.815369 276.99909,65.133356 273.64224,68.612117 274.60072,70.162968 274.88524,70.623335 276.01803,71 277.11803,71 278.21803,71 278.83992,71.45 278.5,72 277.70155,73.291923 274.8484,73.273059 271.37611,71.952899 L 268.62203,70.905798 271.42192,68.309595 C 272.96186,66.881683 274.8469,64.217332 275.6109,62.388815 277.20351,58.577181 277.43525,51.213124 276.06952,47.8151 273.57577,41.61045 265.59494,35.995256 259.28212,36.003738 256.34654,36.007682 250.4391,39.142379 248.21456,41.876581 244.88572,45.968077 243.71617,50.884145 243.04034,63.625791 242.46401,74.49138 241.9701,77.385497 240.17206,80.432951 237.33329,85.244307 237.42427,85.546144 240.95539,83.031763 243.47427,81.238165 244.21278,81.115934 245.95539,82.204215 248.64715,83.885247 248.57325,85.383171 245.8339,84.666814 244.51815,84.322738 242.59282,84.865814 240.92953,86.050182 238.11986,88.050841 237.41391,88.210878 235.25,87.337719 z M 249.72525,84.25 C 248.96211,82.537177 248.5,76.596981 248.5,68.5 248.5,56.557866 248.69807,55.154167 250.93409,51.25009 253.9451,45.992877 260.82034,42.19235 264.77209,43.600651 271.22651,45.900835 273.7282,55.345205 269.98977,63.298377 268.76767,65.898293 267.34008,68.289822 266.81735,68.612884 264.87622,69.812568 264.91999,68.07716 266.93024,64.136743 270.67352,56.799312 269.09794,48.123763 263.643,46.03633 260.60651,44.874362 254.65524,48.402741 252.68586,52.532577 250.23578,57.670433 249.44543,75.394826 251.42199,80.875727 253.27159,86.004569 253.36152,87 251.97525,87 251.41164,87 250.39914,85.7625 249.72525,84.25 z"/>
</svg>
