<?xml version="1.0" encoding="UTF-8"?>
<svg xmlns="http://www.w3.org/2000/svg" viewBox="685.77 25.95 32.35 65.02">
  <path d="M 697.8982,45.377342 C 696.18491,43.312954 695.3096,30 696.88715,30 697.56219,30 698.00242,32.065445 698.00616,35.25 698.00955,38.1375 698.68455,41.788938 699.50616,43.364307 700.32777,44.939676 701,46.402176 701,46.614307 701,47.592573 699.11173,46.839549 697.8982,45.377342 z M 697.98264,84.833333 C 697.97309,83 697.25034,78.35 696.37653,74.5 693.38054,61.299749 692.79283,63.667933 702.02243,51.75 703.19376,50.2375 704.93945,49 705.90174,49 708.25967,49 712.52507,44.442547 711.03123,43.519301 710.41568,43.13887 708.75485,43.585835 707.34049,44.512557 704.9592,46.072841 704.64801,46.076408 703.13447,44.560767 701.17246,42.596032 700.89859,31.701411 702.76431,29.835693 703.69056,28.909442 703.93916,30.049987 703.87072,34.911729 703.76789,42.216932 704.6281,43.582204 708.2841,41.916415 713.90799,39.353999 716.11952,44.131192 711.35398,48.547749 709.89866,49.896487 707.87883,51 706.86545,51 704.48669,51 695.73169,62.86891 696.55524,64.977265 699.79883,73.281196 701.41975,86.965663 699.25,87.727671 698.41415,88.021217 697.99425,87.062257 697.98264,84.833333 z M 690.72094,78.75 C 690.41757,73.6625 689.60416,68.094631 688.91337,66.376958 687.76657,63.525447 687.96341,62.609476 691.17734,55.841847 694.33035,49.202505 694.55193,48.210806 693.3027,46.329374 691.66991,43.87026 691.03828,32.87543 692.5,32.356678 693.05,32.161487 693.63513,34.095006 693.8003,36.653387 693.96546,39.211768 694.74359,42.843906 695.52948,44.724805 696.88802,47.976238 696.79026,48.498878 693.54413,55.339464 L 690.12988,62.534307 691.95011,69.314169 C 692.95124,73.043094 693.61703,78.210375 693.42965,80.797016 693.24228,83.383657 693.06895,86.0625 693.04448,86.75 693.02002,87.4375 692.61132,88 692.13626,88 691.6612,88 691.02431,83.8375 690.72094,78.75 z"/>
</svg>
