<?xml version="1.0" encoding="UTF-8"?>
<svg xmlns="http://www.w3.org/2000/svg" viewBox="369.59 35.6 33.21 52.8">
  <path d="M 397.81955,51.75 C 397.6438,50.5125 396.825,49.5 396,49.5 395.175,49.5 394.3562,50.5125 394.18045,51.75 393.93451,53.481695 394.35366,54 396,54 397.64634,54 398.06549,53.481695 397.81955,51.75 z M 395.39301,78.418213 C 396.42733,75.72283 396.06687,74 394.46862,74 392.66075,74 391.54733,76.377985 392.36163,78.5 393.11247,80.456661 394.62646,80.415813 395.39301,78.418213 z M 381.36163,50.5 C 382.03036,48.757319 381.16664,46 379.95203,46 378.53494,46 377.84033,47.921549 378.50284,50.008949 379.25207,52.369553 380.55812,52.593893 381.36163,50.5 z M 378.53195,75.899337 C 379.27692,73.552155 377.76132,71.411446 376.08713,72.446149 374.88671,73.188051 374.62011,76.28678 375.66667,77.333333 376.86533,78.532 377.85331,78.037546 378.53195,75.899337 z M 382.36645,84.487432 C 382.68568,83.65552 383.23339,80.16802 383.58358,76.737432 384.1504,71.184572 383.98609,70.288576 382.08651,68.573629 380.39186,67.043695 379.70036,66.902165 378.72637,67.885907 377.75661,68.865381 377.86617,69.331165 379.25,70.111969 381.43075,71.342425 381.52887,75.799915 379.44083,78.781012 378.19012,80.566659 377.50224,80.803975 375.96375,79.9806 371.67183,77.683634 371.58625,75.247109 375.59317,69.429248 379.60866,63.598938 380.4249,63.169569 383.02309,65.520895 384.58263,66.93226 384.74452,66.37413 385.271,57.770895 385.58305,52.671903 386.10965,47.812088 386.44124,46.971306 387.30262,44.787177 384.47136,41.16851 383.01945,42.597874 382.19944,43.405147 382.22411,44.397752 383.11264,46.347874 384.02763,48.356067 384.04446,49.606997 383.18195,51.5 381.87744,54.36309 379.84271,54.699849 377.57143,52.428571 375.06862,49.925767 375.71573,47.227312 379.89249,42.749604 383.26422,39.13493 384.00003,38.755138 385.39249,39.910772 386.75683,41.043078 387,40.999463 387,39.622445 387,38.7301 387.45,38 388,38 388.55,38 389,38.9 389,40 389,42.229213 390.03299,42.56701 391.71287,40.887132 393.32677,39.273233 394.40744,40.300111 397.47442,46.361899 400.79632,52.92752 400.31603,56 395.9678,56 391.97768,56 390.69265,53.344717 392.68846,49.223819 394.70388,45.062448 393.87855,42.740813 390.78831,43.878723 388.16632,44.844212 387.2356,49.382671 387.08761,61.924314 L 387,69.348628 389.58059,66.924314 C 392.10866,64.549346 392.19007,64.539511 393.58059,66.44113 394.36127,67.508751 395,69.141151 395,70.068685 395,70.996219 395.675,72.315311 396.5,73 399.83134,75.764769 396.5816,82.636477 392.3244,81.829464 389.85769,81.361862 389.3833,75.870842 391.52696,72.599204 393.89755,68.981216 392.49155,67.576707 389.04786,70.12274 386.73568,71.832207 386.07227,73.266032 385.50952,77.770111 384.69096,84.321626 384.13554,86 382.78602,86 382.23602,86 382.04721,85.319344 382.36645,84.487432 z"/>
</svg>
