<?xml version="1.0" encoding="UTF-8"?>
<svg xmlns="http://www.w3.org/2000/svg" viewBox="112.36 26.68 34.44 67.38">
  <path d="M 142.75047,47.25 C 142.99459,46.516816 142.30531,46 141.08333,46 139.855,46 139,46.645689 139,47.573324 139,49.4112 142.12044,49.14219 142.75047,47.25 z M 142,74.622445 C 142,72.926417 139.55925,70.77408 138.65799,71.675343 137.17316,73.160177 138.0544,76 140,76 141.1,76 142,75.3801 142,74.622445 z M 120.00375,58.603747 C 118.52805,57.128052 116.57983,59.466605 117.43864,61.682783 118.10989,63.414976 118.20986,63.408938 119.57517,61.553747 120.53362,60.251401 120.67541,59.275409 120.00375,58.603747 z M 121,78.5 C 121,75.959018 118.72246,75.022015 117.4704,77.047887 116.50719,78.606406 117.7174,81 119.46862,81 120.43543,81 121,80.078327 121,78.5 z M 127.41826,87.75 C 127.7858,85.9625 128.34767,81.788758 128.66685,78.475017 129.14221,73.539877 128.93834,72.193712 127.53977,71.033006 124.89053,68.834329 122.42909,70.963508 122.7916,75.140247 123.25645,80.496179 122.26552,83 119.68095,83 116.90634,83 115,81.252344 115,78.708691 115,77.668472 117.25057,74.519042 120.00127,71.709959 123.8882,67.740519 125.26962,66.869624 126.20127,67.801268 128.54239,70.142392 129,68.895344 129,60.174314 129,52.056934 128.79968,51.160436 126.50394,49.003704 123.66302,46.334794 123.59106,46.364657 121.63108,51.026089 120.36821,54.029572 120.37165,54.818021 121.65854,57.306577 122.96724,59.837334 122.95434,60.420734 121.54203,62.576198 119.87286,65.123675 119.16322,65.383599 116.58179,64.393011 114.77404,63.699315 114.3615,57.512646 116.05327,56.467077 116.63257,56.109051 118.18281,53.382493 119.49824,50.40806 121.74595,45.325594 124.04129,43.639756 125.5,46 125.83992,46.55 126.60751,47 127.20575,47 127.94974,47 128.09168,44.612839 127.65493,39.446047 126.99683,31.660709 128.30029,29.746592 129.28098,37.058207 129.58395,39.31704 130.0446,41.377933 130.30464,41.637972 130.56468,41.89801 132.01822,40.960846 133.53474,39.555384 137.68368,35.710277 139.73796,36.22287 142.08048,41.68776 144.80268,48.038386 144.36119,50.5 140.5,50.5 138.11855,50.5 137.43189,50.019083 137.16964,48.167535 136.98795,46.884679 137.5613,45.037257 138.44375,44.062153 140.00396,42.338146 139.66373,39 137.92781,39 137.45579,39 135.50755,40.371494 133.59838,42.047765 130.95735,44.366621 130.20427,45.7418 130.44956,47.797765 130.62688,49.283994 130.82327,54.296691 130.88598,58.937091 L 131,67.374182 133.84529,64.648218 C 137.13221,61.499153 137.528,61.753468 141.47569,69.551163 144.3835,75.294824 143.54529,78.313929 139.18274,77.809932 137.06256,77.564991 136.43118,76.897794 136.17182,74.628178 135.99132,73.048675 136.32882,71.271175 136.92182,70.678178 138.34543,69.254566 138.29755,66.301932 136.83621,65.398773 136.17039,64.987274 134.73812,65.765709 133.48888,67.218032 131.74117,69.249869 131.16767,71.580173 130.61562,78.893023 129.87036,88.765323 129.34476,91 127.76801,91 127.14907,91 127.01197,89.725958 127.41826,87.75 z"/>
</svg>
