<?xml version="1.0" encoding="UTF-8"?>
<svg xmlns="http://www.w3.org/2000/svg" viewBox="1479.85 16.09 19.46 73.89">
  <path d="M 1483.7812,60.90625 1483.5625,64 1484.1562,64 1483.5312,71.75 C 1483.1817,76.0125 1482.7246,80.39543 1482.5,81.5 1481.8487,84.703724 1483.1364,85.689334 1488.7812,86.21875 1493.0879,86.622679 1494.2524,86.396843 1495,85 1496.0289,83.077389 1497.313,27.700113 1496.4062,24.40625 1495.7631,22.069602 1489.148,19.445842 1487.6562,20.9375 1487.1721,21.421699 1486.5885,25.566508 1486.3438,30.15625 1486.0991,34.745992 1485.5725,41.875 1485.1875,46 1484.812,50.024017 1484.5389,51.810484 1483.9688,52.75 L 1484.2188,54.25 1484.0625,56.75 C 1484.7874,57.325737 1485.0055,58.407146 1484.5,60 1484.3658,60.422871 1484.0354,60.617346 1483.7812,60.90625 z M 1488.5625,22.71875 C 1489.0073,22.511318 1489.7993,22.622327 1491.1875,22.90625 1492.9339,23.263422 1494.5002,24.000412 1494.6875,24.5625 1494.8749,25.124587 1493.7422,26.824334 1492.1562,28.34375 L 1489.25,31.125 1488.6562,28.8125 C 1488.316,27.54186 1488.0075,25.543036 1488,24.375 1487.994,23.446511 1488.1177,22.926182 1488.5625,22.71875 z M 1493.6562,59 C 1493.8467,59 1494,62.352783 1494,66.4375 1494,73.770613 1493.9576,73.884096 1490.8438,75.4375 1485.292,78.207104 1484.6778,77.724705 1485.4375,71.25 1486.4006,63.041124 1486.7624,62.286707 1490.2188,60.5625 1491.9244,59.711606 1493.4657,59 1493.6562,59 z M 1492.8438,77.15625 C 1493.7556,77.440259 1494,78.508511 1494,80.5 1494,83.891813 1493.8841,83.982757 1490.25,83.90625 1488.1875,83.862829 1485.9375,83.621163 1485.25,83.34375 1482.8621,82.380229 1484.0235,80.004825 1487.625,78.5 1490.3557,77.359057 1491.9319,76.872241 1492.8438,77.15625 z M 1492.5312,30.4375 C 1494.265,30.032958 1495,31.445363 1495,34.875 1495,37.87395 1494.3962,39.064028 1492.0312,40.8125 1490.4035,42.015932 1488.8285,43 1488.5312,43 1488.2339,43 1488,40.768571 1488,38.03125 1488,33.849754 1488.4053,32.789547 1490.4688,31.4375 1491.279,30.906617 1491.9533,30.572347 1492.5312,30.4375 z M 1493.5,41.65625 1494.125,44.59375 C 1495.3657,50.325888 1495.044,54.643392 1493.25,56.21875 1492.2875,57.063939 1490.4134,58.096821 1489.0938,58.5 1486.6981,59.23197 1486.7061,59.219061 1487.2812,52.875 1487.7665,47.523989 1488.3098,46.140069 1490.6875,44.09375 L 1493.5,41.65625 z"/>
</svg>
