<?xml version="1.0" encoding="UTF-8"?>
<svg xmlns="http://www.w3.org/2000/svg" viewBox="834.94 21.9 31.97 75.84">
  <path d="M 845.4375,80.875 845.78125,84.4375 C 845.9737,84.676938 846,85.073692 846,85.875 846,85.901936 845.93986,85.941224 845.9375,85.96875 L 846.34375,90.15625 848.6875,91.96875 C 850.23783,93.188244 852.77207,94 855.0625,94 859.82808,94 863.00551,90.455556 863,85.125 862.99577,81.0289 859.75411,75 857.5625,75 854.87015,75 854.84263,72.995965 857.46875,69.875 863.40067,62.825321 864.44842,57.156557 859.59375,58.375 858.27497,58.705993 856.46985,59.257561 855.59375,59.59375 854.46243,60.02788 854,59.64504 854,58.21875 854,56.983644 855.34733,55.395111 857.5,54.125 861.8962,51.531182 864.91532,45.795011 863.0625,43.5625 861.94404,42.214839 861.40473,42.226175 858.28125,43.53125 854.09468,45.280511 854,45.301238 854,44 854,43.442247 855.37854,41.754747 857.0625,40.25 860.88566,36.833715 862.39489,29.485872 859.5,28.375 858.53107,28.003186 856.89468,28.206949 855.875,28.84375 853.30304,30.449966 852.30453,30.304534 850,28 847.34931,25.349307 846.16476,25.477882 845.40625,28.5 844.46518,32.249534 845.70935,35.727675 849.03125,38.6875 850.66912,40.146853 852,42.147164 852,43.15625 852,45.400633 851.92477,45.406179 847.46875,43.28125 844.34705,41.792616 843.77293,41.759821 842.96875,43.03125 842.45968,43.836117 842.00842,45.10125 842,45.84375 841.98371,47.279871 847.33433,52.82966 850.34375,54.5 851.68863,55.246463 852.05563,56.461389 851.8125,59.25 L 851.5,62.96875 846.15625,60.5 C 843.21533,59.133383 840.40283,58.255594 839.90625,58.5625 836.94203,60.394487 841.40071,66.873701 847.84375,70.09375 852.94682,72.644121 853.13711,72.957917 851.25,76.25 850.5064,77.547211 848.10807,79.28049 845.4375,80.875 z M 848.28125,30.21875 C 848.53935,30.200036 849.0324,30.624334 850,31.5 851.1,32.495486 852,33.916493 852,34.65625 852,35.396006 851.6275,36 851.1875,36 849.72942,36 848,33.640602 848,31.65625 848,30.710428 848.02315,30.237464 848.28125,30.21875 z M 846.25,45.4375 C 846.8574,45.496073 847.72655,45.704293 848.84375,46.09375 851.20979,46.918554 852,47.79636 852,49.59375 852,52.646175 851.73614,52.627447 847.78125,49.09375 844.92543,46.54208 844.42781,45.261782 846.25,45.4375 z M 859.34375,61.09375 C 859.85415,61.050134 860,61.461491 860,62.3125 860,63.0346 858.65,64.9192 857,66.5 L 854,69.375 854,66.8125 C 854,65.182221 854.90646,63.648652 856.46875,62.625 857.96235,61.646355 858.83335,61.137366 859.34375,61.09375 z M 843.5,62.28125 C 844.36622,62.438237 845.59378,62.80732 847.1875,63.34375 850.21173,64.361677 851.5887,65.430497 851.8125,66.90625 852.23676,69.703886 851.40032,69.536235 845.6875,65.75 841.59447,63.037297 840.90133,61.810289 843.5,62.28125 z M 855.53125,77 C 860.29781,77 862.75029,85.051568 859.4375,89.78125 856.273,94.299196 849,91.049741 849,85.125 849,81.354834 852.51141,77 855.53125,77 z M 857.6875,31 C 859.46591,31 859.32257,33.558882 857.375,36.53125 855.24847,39.77674 854,39.643559 854,36.1875 854,33.199562 855.56147,31 857.6875,31 z M 859.53125,45.46875 C 861.31924,45.233807 861.37969,46.208524 859.96875,48.6875 859.15839,50.111255 857.4875,51.672662 856.25,52.125 854.24828,52.856679 854,52.615762 854,50.0625 854,47.740029 854.59731,46.9858 857.15625,46.09375 858.14543,45.748919 858.93525,45.547064 859.53125,45.46875 z"/>
</svg>
