<?xml version="1.0" encoding="UTF-8"?>
<svg xmlns="http://www.w3.org/2000/svg" viewBox="387.66 30.09 77.29 72.16">
  <path d="M 411.5,33.96875 C 410.94263,33.913471 410.38274,34.466277 410.15625,35.6875 409.97235,36.679051 409.12768,38.06692 408.25,38.75 406.95352,39.759028 406.29602,39.686316 404.8125,38.34375 402.57685,36.320517 401.14081,37.410814 402.71875,39.9375 403.66461,41.452064 403.46735,42.14988 401.53125,43.96875 399.91806,45.484263 398.52407,45.985216 397.09375,45.53125 394.62796,44.748639 394.41201,45.689514 396.53125,48.03125 398.42991,50.129243 396.85297,55.523195 394.59375,54.65625 392.28907,53.771863 391.8673,55.224948 394,56.71875 396.72167,58.625081 396.82732,64.019172 394.125,63.3125 393.08707,63.041076 391.93203,63.308335 391.5625,63.90625 391.17029,64.54087 391.6596,65 392.75,65 393.77734,65 395.47093,65.630926 396.53125,66.40625 398.42528,67.791201 398.42754,67.845409 396.5625,69.90625 394.669,71.998547 394.68616,72.012768 397.71875,71.40625 401.3269,70.684618 403.19303,72.64506 400.65625,74.5 399.74722,75.164697 399,76.023133 399,76.375 399,77.451019 401.81255,77.062342 402.1875,75.9375 402.38082,75.35755 403.3134,74.793713 404.25,74.65625 406.97989,74.255587 407.30401,73.285486 405.59375,70.84375 403.28144,67.542461 403.499,58.957631 406,54.71875 409.48352,48.814621 414.15823,48.148666 418.5,52.96875 420.16749,54.819944 420.56267,56.912597 420.84375,65.46875 L 421.1875,75.71875 417.625,77.90625 C 415.6798,79.10845 413.20468,81.577474 412.09375,83.375 410.4039,86.109225 410.22207,87.237448 411.0625,90.28125 411.98491,93.621917 415.19157,96.8502 419,98.28125 419.825,98.59125 422.4327,98.862829 424.8125,98.90625 428.32082,98.970261 429.69244,98.43256 432.0625,96.0625 434.51382,93.611187 435,92.349451 435,88.15625 435,84.229311 434.44987,82.491211 432.40625,80.0625 429.94669,77.139483 429.81507,76.492914 430.25,68.40625 430.59824,61.931431 431.20957,59.214734 432.71875,57.1875 435.20851,53.843083 439.46573,52.167853 441.8125,53.625 446.45052,56.50483 447.67046,66.490896 444.125,72.5 442.61187,75.064567 442.41744,76 443.40625,76 445.36766,76 447.00828,73.675359 448.5,68.71875 451.3038,59.402418 445.67599,49.047004 438.5625,50.40625 436.80582,50.741918 433.8972,52.699218 431.75,54.96875 L 428,58.9375 428,68.78125 C 428,78.11124 428.13846,78.769527 430.59375,81.0625 432.87511,83.193032 433.12764,84.084333 432.71875,88.40625 432.12291,94.704167 430.16568,96.306046 423.71875,95.71875 412.05833,94.656521 410.49342,83.929785 421.21875,78.59375 423.34235,77.537226 423.52893,76.727059 423.78125,67.46875 424.09825,55.837178 422.58634,51.735936 416.8125,48.5625 413.33928,46.653544 413.26647,46.662526 409.90625,48.625 405.55229,51.167851 402.01955,56.445657 402,60.40625 401.97554,65.360549 400.51524,66.676412 399.03125,63.09375 396.27794,56.446653 399.91931,46.961638 406.9375,42.53125 413.05218,38.671218 417.96889,39.052882 422.71875,43.75 424.80441,45.8125 426.99538,48.387099 427.59375,49.46875 428.63047,51.342796 428.89363,51.260403 433.03125,47.71875 436.68704,44.589529 438.09932,44 442,44 445.76562,44 447.10275,44.514804 449.1875,46.75 452.89183,50.721649 454,53.316318 454,58.0625 454,64.393239 452.01222,69.844693 448.25,73.71875 444.77584,77.296182 444.48925,79.686098 447.90625,76.59375 449.15396,75.464587 450.03801,75.240546 450.46875,75.9375 451.63376,77.822519 453.17393,77.060862 452.5,74.9375 451.57381,72.019348 453.66414,69.762213 456.09375,71.0625 457.55594,71.845043 458,71.732773 458,70.59375 458,69.781858 457.55,68.839919 457,68.5 455.25941,67.424254 455.91866,66 458.15625,66 460.18062,66 460.21093,65.874152 458.65625,64.15625 456.37492,61.635415 456.58687,59.283537 459.21875,57.875 L 461.4375,56.6875 459.21875,55.21875 C 456.78787,53.604705 456.28619,50.581445 458.25,49.34375 459.07351,48.824731 458.47643,48.364614 456.5,48 453.84393,47.510004 453.51891,47.067598 453.65625,44.15625 453.78288,41.472063 453.50729,40.97377 452.15625,41.5 449.25158,42.631373 448.51285,42.535602 448.375,41 448.30094,40.175 448.18844,38.9375 448.125,38.25 447.94414,36.290142 446.20243,36.786844 445.5,39 444.63488,41.725738 443.14553,41.512974 442,38.5 440.76965,35.263926 439,35.282305 439,38.53125 439,41.306879 436.97751,42.577893 434.25,41.53125 431.94607,40.647148 431.43517,40.957163 431.78125,43 431.93906,43.931499 431.42075,45.245832 430.625,45.90625 429.45848,46.874375 428.87577,46.642853 427.59375,44.8125 426.71919,43.563902 426,41.533871 426,40.28125 426,37.861549 424.45607,37.152157 423.75,39.25 423.12992,41.092354 420,38.275606 420,35.875 420,33.374324 417.94301,33.469426 417.28125,36 416.5916,38.637221 413.22721,38.615757 412.8125,35.96875 412.61458,34.705434 412.05737,34.024029 411.5,33.96875 z M 421.75,81.53125 C 421.02207,81.710588 420.31043,82.248109 419.34375,83.15625 416.31081,86.005556 416.25288,90.360126 419.21875,92.4375 422.82669,94.9646 426.91603,93.916966 429.0625,89.90625 430.44938,87.314856 428.06551,83.376271 424.28125,81.9375 423.21195,81.530954 422.47793,81.351912 421.75,81.53125 z M 422.40625,84.5 C 423.18708,84.387689 424.10174,84.517064 425.0625,85.03125 427.39046,86.277135 427.5994,89.564659 425.40625,90.40625 423.17359,91.263004 422.54962,91.174621 421.1875,89.8125 418.90611,87.531114 420.06376,84.836933 422.40625,84.5 z"/>
</svg>
