<?xml version="1.0" encoding="UTF-8"?>
<svg xmlns="http://www.w3.org/2000/svg" viewBox="1469.3 39.51 27.84 59.27">
  <path d="M 1474.6364,92.363636 C 1471.5744,89.301711 1471.2989,86.445969 1473.7305,82.974448 1475.0239,81.127852 1475.3811,78.952415 1475.145,74.360937 1474.9474,70.519355 1475.4682,66.190326 1476.5352,62.805628 1478.1985,57.529074 1478.1881,57.288965 1476.1206,53.236472 1473.4963,48.092425 1473.457,46.360976 1475.9343,45.035184 1479.3031,43.232223 1480.9289,43.894117 1482.5272,47.71929 L 1484.0812,51.43858 1486.5973,47.21929 C 1489.2706,42.736305 1490.5276,42.202863 1493.4252,44.32164 1495.1411,45.576338 1495.0749,45.961148 1492.119,51.918845 1489.4159,57.366914 1489.086,58.880367 1489.6168,63.396584 1490.1022,67.526246 1489.7632,69.679651 1487.9728,73.841568 1486.111,78.169414 1485.9166,79.521519 1486.8587,81.589241 1488.7326,85.701966 1488.2346,89.856269 1485.5455,92.545455 1482.2657,95.825187 1478.0273,95.754546 1474.6364,92.363636 z M 1483.4305,91.674447 C 1485.2729,90.327259 1485.2805,86.929746 1483.4573,79.714959 1482.9424,77.67756 1483.2563,76.374244 1484.6267,74.859977 1486.123,73.206575 1486.5111,71.151001 1486.555,64.645018 1486.5995,58.057297 1487.0289,55.830813 1488.8012,53 1490.0064,51.075 1490.9942,48.9375 1490.9963,48.25 1491.0036,45.789698 1489.0895,47.068432 1486.8798,51 1484.0036,56.11759 1481.4214,56.252715 1479.3904,51.391914 1478.5612,49.407467 1477.6517,48.015003 1477.3691,48.29755 1477.0866,48.580096 1477.7175,50.491605 1478.7711,52.545348 1480.6668,56.24051 1480.6652,56.360649 1478.6191,64.073227 1476.9205,70.475385 1476.743,72.585183 1477.6249,75.889002 1478.5348,79.297974 1478.4175,80.336895 1476.8558,82.705487 1472.4692,89.358309 1477.3997,96.084309 1483.4305,91.674447 z"/>
</svg>
