<?xml version="1.0" encoding="UTF-8"?>
<svg xmlns="http://www.w3.org/2000/svg" viewBox="986.18 31.02 76.11 71.88">
  <path d="M 1047.2347,96.795942 C 1047.4554,96.13371 1049.0857,95.216236 1050.8575,94.757111 1052.7773,94.259641 1054.4176,93.028879 1054.9169,91.711169 1055.3778,90.495026 1055.6723,80.725 1055.5713,70 1055.4007,51.878212 1055.2246,50.163594 1053.0792,45.740263 1048.926,37.177369 1043.7438,38.614362 1036.0189,50.471005 1033.6793,54.061952 1031.1621,57 1030.4251,57 1029.6882,57 1026.6095,53.897221 1023.5837,50.104936 1014.2615,38.421248 1011.839,37.427246 1006.4346,43.068213 1003.0876,46.561741 1001.9814,54.883442 1004.0362,61.109743 1005.3035,64.949537 1005.2567,65.120276 1002.0871,68.219104 995.85608,74.311076 992.9185,83.367168 995.16142,89.56985 996.63795,93.653135 999.54907,94.780864 1004.6064,93.228719 1008.2602,92.107353 1009.2359,93.268182 1006.0657,94.964816 1003.8459,96.15285 997.03745,96.324952 995.38953,95.234687 994.77878,94.830609 993.50862,92.996691 992.56696,91.159313 989.63672,85.441804 992.62726,75.27606 999.3074,68.246452 1002.1979,65.204793 1002.3211,64.776854 1001.1996,61.675454 997.79169,52.251023 1001.6897,41.855546 1010.3218,37.347896 1013.5204,35.677612 1013.6637,35.746971 1020.8535,42.444537 1023.2479,44.675042 1026.291,48.1875 1027.616,50.25 1028.941,52.3125 1030.3569,53.99107 1030.7625,53.980156 1031.1681,53.969242 1032.85,51.673434 1034.5,48.878361 1043.0744,34.353429 1052.8116,34.283748 1056.4513,48.721275 1058.4659,56.712274 1058.8233,89.593047 1056.9341,93.123185 1055.2731,96.226701 1046.2907,99.627983 1047.2347,96.795942 z M 1024.3454,96.970434 C 1023.4704,96.076468 1023.6752,94.969992 1025.1911,92.400741 1026.9164,89.476497 1026.9827,88.930609 1025.6738,88.428312 1024.8392,88.108037 1023.186,88.365296 1022,89 1020.814,89.634704 1019.2039,89.908478 1018.4219,89.608388 1015.7176,88.570664 1016.9159,84.413577 1021.2166,79.912767 1024.6702,76.298552 1025.4176,74.837309 1025.3471,71.837996 1025.1713,64.361324 1014.2809,48.385783 1011.3547,51.311974 1010.1398,52.526855 1010.8732,59.172177 1012.676,63.284751 L 1014.3351,67.069502 1009.2869,71.784751 C 1004.5735,76.187277 1002.0689,80.40226 1003.3845,81.717861 1003.6965,82.029788 1004.6566,81.699948 1005.5182,80.984882 1007.7207,79.157018 1009.8739,81.242049 1008.0515,83.437909 1006.9059,84.818262 1000.6191,84.952472 999.29158,83.624915 998.62981,82.963143 1002.58,75.811725 1005.1823,72.960499 1011.4644,66.077229 1011.2914,66.464225 1009.5727,63.140587 1007.2321,58.614329 1007.493,51.468512 1010.0647,49.667241 1011.2003,48.871849 1012.9569,48.437484 1013.9684,48.701985 1019.7694,50.218992 1028.5395,64.868387 1028.3883,72.788674 1028.3194,76.395077 1027.7252,77.609683 1024.6532,80.423544 1020.6552,84.085536 1019.4941,87.876327 1022.9343,86.035184 1026.0043,84.39217 1027.9588,84.815542 1029.1256,87.376256 1029.9833,89.258831 1029.8469,90.304093 1028.4687,92.407464 1027.5119,93.867688 1026.9448,95.278178 1027.2086,95.541886 1028.1885,96.521853 1036.5611,92.85597 1038.2278,90.717203 1041.1837,86.923898 1040.475,83.280105 1036,79.262785 1033.8,77.287804 1032,74.888836 1032,73.931745 1032,66.484093 1042.0516,48.478124 1045.8056,49.201074 1049.3307,49.879944 1051.067,55.370536 1051.6928,67.817847 L 1052.2951,79.795843 1049.6392,82.451758 C 1048.1181,83.972851 1046.4812,84.797405 1045.8083,84.381528 1045.0001,83.882055 1045.3149,83.202859 1046.8167,82.205719 1048.8127,80.880415 1048.998,79.930118 1048.9761,71.128028 1048.951,60.985711 1047.9142,54.506352 1046.0159,52.627736 1044.3233,50.952747 1039.6821,57.108689 1037.1056,64.446121 1034.1991,72.723012 1034.3893,74.413407 1038.6678,78.334328 1041.7423,81.151981 1042.3125,82.308362 1042.1931,85.484694 1042.0203,90.079184 1039.955,93.454781 1036.0956,95.450587 1031.9543,97.5921 1025.7406,98.395828 1024.3454,96.970434 z M 1000.3162,89.381751 C 999.5666,87.428205 1000.0086,87.111271 1003.944,86.780552 1008.513,86.396584 1008.8642,88.399213 1004.4647,89.749467 1001.5194,90.6534 1000.779,90.587777 1000.3162,89.381751 z M 1046.4411,90.468197 C 1047.5088,89.660688 1049.0838,89.014312 1049.9411,89.031803 1051.1874,89.057229 1051.1107,89.358033 1049.5589,90.531803 1048.4912,91.339312 1046.9162,91.985688 1046.0589,91.968197 1044.8126,91.942771 1044.8893,91.641967 1046.4411,90.468197 z"/>
</svg>
