<?xml version="1.0" encoding="UTF-8"?>
<svg xmlns="http://www.w3.org/2000/svg" viewBox="1064.1 35.34 28.61 65.23">
  <path d="M 1075.5,95.845268 C 1070.0365,92.856961 1069.4054,86.885746 1074,81.652781 1077.8334,77.286814 1078.0652,72.806349 1074.5407,71.200511 1070.1299,69.190808 1066.1036,58.290093 1069.0903,56.444212 1069.6899,56.07361 1071.9082,57.457411 1074.0198,59.519325 L 1077.859,63.26826 1078.5743,59.455462 C 1079.2017,56.111325 1078.9723,55.388062 1076.708,53.571333 1073.3663,50.89018 1071.7938,46.616253 1072.5891,42.376605 1073.3371,38.389623 1073.6337,38.30722 1076.7382,41.223795 1078.6817,43.049598 1079.2612,43.195333 1079.9765,42.038097 1080.7022,40.863787 1081.1137,40.849473 1082.4425,41.952314 1083.7852,43.066589 1084.3547,42.988955 1086.0424,41.461641 1087.4201,40.214856 1088.37,39.970015 1089.079,40.678984 1090.7181,42.318129 1089.1347,46.464885 1085.2739,50.643851 1083.3145,52.764733 1081.37,55.978962 1080.9528,57.786582 1080.2506,60.82861 1080.3543,61.02413 1082.3471,60.414193 1083.5312,60.051759 1085.0816,59.289369 1085.7924,58.719993 1087.7866,57.122556 1089.3781,59.357458 1088.5619,62.609289 1088.1815,64.124935 1086.0995,67.135824 1083.9351,69.300152 1079.25,73.985293 1079.0235,76.369922 1082.8758,80.452393 1086.9881,84.810391 1087.7242,91.366712 1084.4669,94.623982 1081.9197,97.171184 1078.7208,97.606881 1075.5,95.845268 z M 1074.6156,63.148919 C 1071.8077,60.34106 1071,59.935249 1071,61.332408 1071,63.641881 1072.8819,67.171499 1074.9133,68.671955 1076.1661,69.597302 1076.6821,69.519918 1077.3656,68.304207 1077.9951,67.184347 1077.2453,65.778614 1074.6156,63.148919 z M 1083,93 C 1086.3717,89.628287 1085.2572,83.278367 1080.8827,80.93724 1077.9788,79.383111 1073.994,83.147212 1074.0153,87.424314 1074.033,90.973941 1074.7174,92.227134 1077.5,93.805055 1080.2419,95.35991 1080.7084,95.291638 1083,93 z M 1079.4171,50.355382 C 1080.0355,48.743938 1077.5382,45 1075.845,45 1074.5634,45 1074.8349,49.434852 1076.2,50.8 1077.8256,52.425563 1078.6674,52.309224 1079.4171,50.355382 z M 1085.4383,65.453843 C 1087.599,62.156196 1086.891,61.388295 1083.1273,62.947277 1080.3437,64.100268 1078.4948,67.373589 1079.6089,69.176246 1080.3762,70.417643 1083.4878,68.430668 1085.4383,65.453843 z M 1087,44.889216 C 1087,43.269205 1085.1365,43.966998 1083.5984,46.162968 1081.4888,49.174914 1082.8834,50.862257 1085.1593,48.051547 1086.1717,46.801334 1087,45.378285 1087,44.889216 z"/>
</svg>
