<?xml version="1.0" encoding="UTF-8"?>
<svg xmlns="http://www.w3.org/2000/svg" viewBox="503.16 39.64 38.95 51.91">
  <path d="M 537.375 85.9375 C 536.52427 85.345292 536 84.67619 536 83.8125 C 536 82.439076 536.4753 81.962526 537.46875 82.34375 C 539.98895 83.31084 540.10784 81.283072 537.625 79.65625 C 534.64491 77.703622 533.51905 72.956784 535.65625 71.3125 C 537.34345 70.014426 536.65808 68 534.53125 68 C 533.79251 68 532.69755 66.575823 532.09375 64.84375 C 530.58407 60.513086 530.7092 58.937806 532.5 59.625 C 534.89069 60.542392 534.23662 58.2112 531.625 56.5 C 530.31789 55.643548 528.03369 53.014983 526.5625 50.6875 C 523.56647 45.947641 518.43087 42 515.28125 42 C 512.62289 42 507.60522 47.685431 505.875 52.65625 C 505.59259 53.46758 505.37272 55.107963 505.15625 56.71875 L 507.90625 56.71875 C 508.28474 55.0981 508.58993 53.466787 509.15625 51.875 C 511.68473 44.768052 514.59258 42.845387 518.71875 45.53125 C 521.88349 47.591279 523.36815 49.298722 525.53125 53.25 C 526.88718 55.726845 526.88675 56.255272 525.375 58.5625 C 523.71406 61.097403 523.73062 61.093232 526.21875 60.46875 C 528.49077 59.898511 528.82281 60.253396 529.75 63.90625 C 530.54071 67.021387 530.44989 68.34296 529.40625 69.71875 C 527.40594 72.355676 527.63909 74.2409 529.875 73.53125 C 532.53646 72.686533 533.63409 77.35316 531.53125 80.5625 C 529.60627 83.500391 529.59367 84.363794 531.4375 83.65625 C 532.41233 83.282173 533.06396 84.045962 533.5 86.03125 C 533.78947 87.34919 533.71236 88.448746 533.5625 89.1875 L 537.375 85.9375 z "/>
</svg>
