<?xml version="1.0" encoding="UTF-8"?>
<svg xmlns="http://www.w3.org/2000/svg" viewBox="440.09 72.86 22.25 27.5">
  <path d="M 442.09375,87.71875 442.1875,90.5625 C 444.38255,90.77068 446.59268,89.617596 448.5625,86.71875 449.90965,84.736243 451,82.699335 451,82.1875 451,81.675665 451.66038,80.702135 452.46875,80.03125 453.68983,79.017841 454.23104,79.417554 455.65625,82.40625 458.66191,88.70918 460.34217,86.121457 457.5625,79.46875 455.63846,74.863883 453.00694,74.934288 450.46875,79.6875 447.85964,84.573536 444.65172,88 442.65625,88 442.50053,88 442.28029,87.785617 442.09375,87.71875 z M 442.34375,95.53125 442.46875,98.34375 C 444.77548,98.366279 447.4746,96.825275 451.375,93.21875 453.91522,90.869923 456,88.732423 456,88.46875 456,86.886475 453.18731,88.547519 450,92 447.04733,95.198318 444.96533,96.231315 442.34375,95.53125 z"/>
</svg>
