<?xml version="1.0" encoding="UTF-8"?>
<svg xmlns="http://www.w3.org/2000/svg" viewBox="483.52 22.57 54.49 75.41">
  <path d="M 517,47.059017 C 517,45.879157 515.04965,44.617021 514.33333,45.333333 513.61702,46.049646 514.87916,48 516.05902,48 516.57656,48 517,47.576558 517,47.059017 z M 512.42491,47.556835 C 511.6651,44.529526 512.53744,43 515.02383,43 517.51898,43 519.13695,46.003902 517.86552,48.275823 516.41504,50.867677 513.1475,50.435865 512.42491,47.556835 z M 507,46.5 C 507,45.675 506.57656,45 506.05902,45 504.79804,45 503.89492,46.561589 504.69385,47.36052 505.82004,48.486704 507,48.04641 507,46.5 z M 502.54471,48.140877 C 501.54541,44.992348 502.98256,42.860158 505.87775,43.195905 507.76951,43.415288 508.59402,44.164927 508.83749,45.88691 509.38918,49.788706 503.713,51.821818 502.54471,48.140877 z M 487.66667,83.333333 C 486.2972,81.963869 487.06842,80.88694 488.98335,81.494716 490.37297,81.935763 491.79492,81.286915 493.73335,79.327255 497.09992,75.923813 497.8755,75.816272 500.74606,78.354887 501.98139,79.44737 503.26868,80.064649 503.60671,79.72662 503.94474,79.38859 504.46215,76.111644 504.75652,72.444518 L 505.29172,65.777017 502.1049,66.47696 C 497.286,67.535368 496,65.852666 496,58.488846 L 496,52.222582 492.60048,51.584829 C 487.14849,50.562028 486.57587,49.154201 487.60124,39.293806 488.09556,34.540274 489.00403,30.486531 489.62007,30.285487 490.23611,30.084443 492.19552,32.187963 493.97432,34.959976 495.75311,37.731989 497.55629,40 497.98138,40 498.40646,40 501.05258,36.85 503.86163,33 506.67068,29.15 509.63326,26 510.44514,26 511.25701,26 514.42468,29.38511 517.4844,33.522466 523.8867,42.179666 524.67933,42.233326 530.08562,34.37556 532.4476,30.942539 533.46442,30.124762 534.10803,31.140554 535.53354,33.390417 535.12816,46.757496 533.51752,50.612321 532.14483,53.89763 531.75601,54.135949 528.26752,53.830202 524.60619,53.509307 524.49268,53.59865 524.24013,57 523.55735,66.195918 523.17256,67 519.45469,67 L 516,67 516,73.968615 C 516,79.752097 516.2551,80.839339 517.5,80.361626 518.325,80.045044 519,79.438762 519,79.014332 519,77.648821 524.78449,75.796823 526.92628,76.476603 528.06683,76.838598 529,77.779451 529,78.567388 529,80.28149 528.50233,80.339205 525.86992,78.930384 524.24848,78.062617 523.21854,78.358669 520.41218,80.499186 514.67029,84.87874 513.54135,83.853273 513.24484,73.988747 512.94829,64.122753 513.82382,61.808556 517.08739,63.832102 520.00935,65.643842 520.82169,64.507694 521.81914,57.214194 522.28676,53.794911 522.96684,50.699822 523.33045,50.336218 523.69405,49.972613 525.03476,50.150439 526.3098,50.731386 530.09148,52.454434 531.72311,50.693757 532.49315,44.058981 532.87311,40.785235 532.88975,37.63063 532.53013,37.048747 532.13594,36.410934 530.41158,37.379133 528.18813,39.486715 526.15966,41.409481 523.70158,42.986556 522.72573,42.991326 521.68658,42.996406 518.99836,40.306921 516.23746,36.5 513.51317,32.743548 510.77987,30 509.76173,30 508.79278,30 508,30.35232 508,30.782934 508,31.612772 505.17466,35.42353 500.93534,40.311612 498.80345,42.769748 498.03742,43.090395 496.39576,42.211803 495.30955,41.630483 493.80011,39.995014 493.04144,38.577429 491.2011,35.138721 490.29609,35.329113 489.84445,39.25 489.11723,45.563267 490.2264,48.405726 493.87901,49.589367 498.162,50.977282 499.35425,53.164753 498.74993,58.526271 498.07899,64.478863 498.98219,65.664233 502.93971,64.024975 504.65814,63.313176 506.3232,62.989863 506.63983,63.306501 507.38347,64.050138 507.16236,80.413332 506.38116,82.449093 505.58771,84.516786 504.46673,84.404946 501.10998,81.923191 L 498.30095,79.846381 494.90047,81.919453 C 491.43917,84.02961 488.8659,84.532567 487.66667,83.333333 z M 499.18237,91.5 C 495.60109,88.48655 494.39965,88.417362 490.5,91 487.2969,93.121328 486,93.473924 486,92.22344 486,91.08387 494.13655,86 495.96039,86 496.81841,86 498.77929,87.167271 500.31788,88.593936 503.51651,91.559872 507.2335,91.30073 509.00632,87.988193 510.36037,85.458126 512.20322,85.462086 514.5,88 516.76776,90.505849 517.49269,90.497426 521.10782,87.923223 524.50284,85.505759 528.75545,85.967306 531.5513,89.056681 533.11047,90.779552 533.12757,91 531.70204,91 530.81768,91 528.91712,90.46373 527.47858,89.808289 525.23858,88.787675 524.24045,88.956694 520.5265,90.985524 516.34456,93.270004 516.09577,93.292772 513.54902,91.624075 511.01849,89.966008 510.76924,89.979499 507.58602,91.946839 503.36036,94.558441 502.78048,94.527607 499.18237,91.5 z"/>
</svg>
