<?xml version="1.0" encoding="UTF-8"?>
<svg xmlns="http://www.w3.org/2000/svg" viewBox="1446.9 27.48 22.29 72.68">
  <path d="M 1459.8693,76.5 C 1464.214,63.322891 1465.7194,46.576262 1463.42,37 1462.8257,34.524995 1462.8017,34.534993 1461.017,38 1457.2235,45.364849 1453.0332,69.004496 1453.0406,83 L 1453.0445,90.5 1454.9732,88 C 1456.0339,86.625 1458.2372,81.45 1459.8693,76.5 z M 1451.4283,93.88395 C 1448.9032,89.798294 1450.7444,63.763135 1454.6379,48.5 1456.4526,41.385659 1461.8538,30.787467 1463.406,31.295199 1466.0954,32.174911 1467.1928,39.445868 1466.6819,53 1466.2422,64.666213 1465.7566,67.70588 1463.1069,75.377463 1458.6101,88.396621 1453.2684,96.861356 1451.4283,93.88395 z"/>
</svg>
