<?xml version="1.0" encoding="UTF-8"?>
<svg xmlns="http://www.w3.org/2000/svg" viewBox="219.26 28.65 32.08 69.71">
  <path d="M 222.97994,74.475834 C 221.25783,72.400819 222.35477,71.584315 224.97828,72.988374 226.61092,73.86214 227.47319,73.852179 228.56392,72.946949 230.29612,71.509353 230.49891,73.101093 228.8,74.8 227.14868,76.451315 224.49687,76.303614 222.97994,74.475834 z M 224.2,65.8 C 222.77227,64.372271 222.61057,62 223.94098,62 224.45852,62 225.18262,62.486462 225.55008,63.081027 225.92149,63.681985 227.39098,63.897247 228.85909,63.565757 L 231.5,62.96946 229.13922,64.98473 C 226.39327,67.328792 225.82293,67.422932 224.2,65.8 z M 225.2,57.8 C 223.77227,56.372271 223.61057,54 224.94098,54 225.45852,54 226.17139,54.468305 226.52514,55.040677 226.87889,55.61305 228.03044,55.807725 229.08416,55.47329 231.58243,54.680368 231.56805,56.625619 229.06574,57.964816 226.65514,59.254931 226.65492,59.254922 225.2,57.8 z M 226.0219,46.526392 C 224.28271,44.430797 225.59778,43.267713 228.00595,44.77164 229.05919,45.429402 230.67513,45.67816 231.59692,45.324436 232.76041,44.877963 233.13115,45.112262 232.80933,46.09065 232.14801,48.101219 227.57267,48.394948 226.0219,46.526392 z M 230.9367,94.181746 C 223.8855,92.008909 223.65395,81.663894 230.57362,77.960597 232.44995,76.956416 233.46394,77.132781 236.89227,79.059609 241.7007,81.762098 243.31112,86.573376 240.86562,90.930343 239.44603,93.459513 234.1844,95.18253 230.9367,94.181746 z M 227.49445,36.993869 C 225.36911,34.645393 226.29475,33.078472 228.86077,34.680976 230.05275,35.425378 231.20512,35.464714 232.39029,34.801457 235.17747,33.241675 235.74515,34.973412 233.13922,37.08608 230.18904,39.477829 229.7357,39.470424 227.49445,36.993869 z M 238.98902,90.020519 C 241.13052,86.019083 237.41326,80 232.80055,80 229.80212,80 227.80941,84.154838 229.07148,87.775202 229.66738,89.484594 230.90757,91.08227 231.82746,91.325593 235.64124,92.33438 237.97864,91.908428 238.98902,90.020519 z M 236.8125,74.8125 C 234.44486,72.444862 235.90831,70.849088 238.48563,72.988078 239.26575,73.635515 240.82562,73.872734 241.95201,73.515231 244.22287,72.794489 244.65126,73.948736 242.8,75.8 241.03593,77.564073 239.27338,77.273382 236.8125,74.8125 z M 237.75,58.607954 C 235.03533,56.547225 235.67065,55.715632 239.42202,56.419393 241.43184,56.796437 243.11108,56.629293 243.49112,56.014372 243.84701,55.438524 244.58642,55.244391 245.13424,55.582966 246.47251,56.410061 243.15724,60.009316 241.09501,59.968197 240.21776,59.950705 238.7125,59.338596 237.75,58.607954 z M 237.49445,67.993869 C 235.27245,65.538586 236.0709,64.432395 238.95213,65.974379 240.12001,66.599409 241.95855,66.830544 243.03777,66.488011 245.57288,65.6834 245.59465,67.611385 243.06574,68.964816 240.3531,70.416579 239.56224,70.27875 237.49445,67.993869 z M 241.72418,47.865518 C 239.36885,46.547411 239.3922,43.528833 241.75,44.526527 242.7125,44.933805 244.2875,45.234917 245.25,45.195665 247.51584,45.103261 247.50085,46.661584 245.22418,47.880024 244.09764,48.482928 242.81795,48.477624 241.72418,47.865518 z M 242.07389,34.589028 C 241.42983,33.812993 241.30079,32.932135 241.78712,32.631565 243.1103,31.813796 248.31085,33.432542 248.76817,34.80452 249.33945,36.518338 243.51959,36.330994 242.07389,34.589028 z"/>
</svg>
