<?xml version="1.0" encoding="UTF-8"?>
<svg xmlns="http://www.w3.org/2000/svg" viewBox="309.41 22.63 40.44 78.75">
  <path d="M 322,92.912074 C 322,92.222048 322.76779,90.809077 323.70621,89.772139 324.81865,88.542911 325.5552,85.644444 325.82271,81.443399 326.31249,73.751567 325.16472,73.171366 320,78.5 316.17508,82.446313 314.51946,82.839133 313.07638,80.142723 311.41014,77.029311 313.62837,71.597279 318.33926,67.254929 320.70839,65.071145 323.22763,63.090791 323.93757,62.854143 324.90452,62.531825 324.69888,61.555304 323.11793,58.961937 318.50935,51.402128 322.04133,37.560952 330.46673,30.163355 334.94257,26.233512 336.45852,26.208838 340.00754,30.008069 346.298,36.742034 347.78555,49.024179 343.38114,57.862682 L 340.76228,63.118053 342.83341,65.322674 C 346.19729,68.90336 347.84625,74.030258 346.83039,77.75 345.86206,81.295694 344.54332,81.725523 341.55887,79.468197 336.67322,75.772873 335.62544,79.425725 339.14311,87.8902 341.35038,93.201464 341.14098,95.191818 338.59706,93.080553 336.17028,91.066503 333.95995,83.102679 334.6427,78.832991 335.44134,73.838543 336.30324,73.40626 340.40646,75.942189 343.36071,77.768016 343.85078,77.831233 344.37904,76.454631 345.05424,74.695079 341.98892,68.065622 339.57309,66.060658 337.4668,64.312591 337.58952,61.499609 339.91562,58.209507 343.45603,53.201838 343.46654,51.238233 339.97041,47.972355 338.22035,46.33756 336.22266,45 335.53109,45 334.00774,45 325,54.451099 325,56.04943 325,56.673741 325.9023,58.331635 327.00512,59.733638 328.53604,61.679882 328.74357,62.604048 327.88268,63.641368 327.26251,64.388615 326.29406,65 325.73055,65 323.38446,65 316.1299,72.132079 315.4838,75.073752 314.52103,79.457226 315.43941,79.699389 319.50121,76.133081 323.67234,72.470777 326.4734,72.147519 328.07675,75.143415 329.74431,78.259269 328.71534,87.56492 326.35344,90.72842 324.11824,93.722232 322,94.784725 322,92.912074 z M 328.55486,48.384724 C 330.72469,45.846322 332.82974,43.258822 333.23275,42.634724 333.74786,41.837036 335.1433,42.168297 337.93087,43.75 340.11182,44.9875 342.19466,46 342.55941,46 343.85704,46 341.81127,38.431536 339.38336,34.25 337.86793,31.640011 336.19261,30 335.04188,30 332.79992,30 327.75856,36.110094 325.01876,42.147946 323.03187,46.526569 322.30775,53 323.80486,53 324.24753,53 326.38503,50.923126 328.55486,48.384724 z M 329.17329,94.372166 C 331.6359,91.909551 331.99599,91.83059 334.90056,93.116278 336.60525,93.870847 338,94.801815 338,95.185094 338,96.69318 335.97876,97.003685 334.04068,95.79333 332.41096,94.775553 331.59997,94.76873 330.01357,95.759453 326.75059,97.797219 326.37248,97.172973 329.17329,94.372166 z"/>
</svg>
