<?xml version="1.0" encoding="UTF-8"?>
<svg xmlns="http://www.w3.org/2000/svg" viewBox="134.06 26.71 30.71 69.45">
  <path d="M 142,92.160515 C 142,91.698798 140.875,90.808446 139.5,90.181954 138.125,89.555462 137,88.306476 137,87.406429 137,85.896963 137.19126,85.895299 139.46482,87.38499 142.86393,89.612172 143.17142,89.462669 142.81336,85.756955 142.58261,83.368878 141.77501,82.168152 139.75,81.202389 136.05501,79.440187 136.27746,78.172323 140.25,78.352552 144.84711,78.561116 145.29409,75.057664 141.05545,72.039486 137.12712,69.242265 137.08858,67.477325 141,69.5 L 144,71.05136 144,67.686195 C 144,65.067106 143.44574,64.06849 141.5,63.181954 140.125,62.555462 139,61.342397 139,60.486255 139,59.257145 139.40697,59.147435 140.93426,59.964816 143.95019,61.578896 145,61.206622 145,58.523053 145,56.98446 144.05291,55.425551 142.5,54.408043 141.125,53.507108 140,52.363161 140,51.865938 140,51.368715 141.125,51.244253 142.5,51.589356 144.85406,52.180188 145,51.983699 145,48.223418 145,45.053874 144.47767,43.887773 142.46813,42.571078 141.07561,41.65866 140.21567,40.460054 140.55716,39.90751 140.97007,39.239411 141.59778,39.251221 142.43104,39.942766 143.12018,40.514701 143.98011,40.686552 144.34201,40.324657 145.74256,38.924105 144.90113,35.044154 142.89159,33.636621 139.97203,31.59168 141.27085,29.866053 144.61686,31.344403 L 147.23238,32.5 146.61911,58 C 145.92194,86.988401 145.36387,93 143.36995,93 142.61648,93 142,92.622232 142,92.160515 z M 159.09375,80.71875 C 158.35425,80.324691 157.69838,79.85849 157.375,79.4375 155.60778,77.136917 156.91696,73.054673 159.625,72.375 162.76179,71.587715 162.67602,70 159.5,70 157.28227,70 157,69.574514 157,66.28125 157,63.439327 157.64484,62.053166 159.75,60.34375 162.10216,58.433775 162.1817,58.175025 160.375,58.625 157.30078,59.390661 156.40238,55.267053 159.03125,52.46875 161.3585,49.991502 161.55517,48.848349 159.53125,49.625 158.55332,50.000269 157.85382,49.314512 157.40625,47.53125 156.89179,45.48146 157.23644,44.522695 158.875,43.375 161.45359,41.568889 161.62711,40.186341 159.25,40.375 157.12219,40.543874 157.40569,37.371882 159.75,34.75 161.54495,32.742529 160.05844,32.360972 156.9375,34.03125 155.1392,34.993673 155,36.298758 155,52.4375 155,61.984874 154.54085,74.362473 153.96875,79.9375 152.90758,90.278329 153.22574,92.872368 155.34375,91.125 155.99899,90.584423 157.36412,90.895302 159.15625,91.71875 L 159.09375,89.59375 159.09375,88.9375 C 156.8551,87.796312 156,86.887888 156,84.9375 156,82.407919 156.27669,82.306761 159.09375,83.15625 L 159.09375,80.71875 z"/>
</svg>
