<?xml version="1.0" encoding="UTF-8"?>
<svg xmlns="http://www.w3.org/2000/svg" viewBox="1229.13 14.79 30.68 84.31">
  <path d="M 1233,92.828741 C 1233,92.184548 1233.7276,90.853486 1234.6169,89.870826 1236.0394,88.29894 1236.0833,87.327027 1234.9818,81.78552 1233.773,75.70402 1234.079,72.145265 1236.5644,63.379201 1237.0416,61.696202 1236.6325,61.124581 1234.5828,60.610149 1231.1301,59.743577 1231.3102,58.547111 1235.9415,51.581131 1239.6364,46.023689 1239.7916,45.49767 1238.4829,42.966871 1237.7163,41.484406 1236.9565,36.634098 1236.7945,32.188408 1236.3471,19.909378 1239.3584,18.625921 1243.6887,29.25 1244.5293,31.3125 1245.6697,33 1246.2227,33 1246.7758,33 1248.8959,31.12078 1250.9342,28.823956 1253.4345,26.006387 1255.1618,24.84812 1256.2439,25.263363 1257.6636,25.808129 1257.7021,26.505287 1256.5798,31.333474 1255.8824,34.333536 1254.3417,38.02149 1253.1559,39.528925 1250.317,43.138 1250.4583,45.309184 1254,52.5 1257.8086,60.232779 1257.8086,61.888273 1254,62.65 1251.3121,63.187581 1251,63.636839 1251,66.96845 1251,73.550483 1244.995,87.979793 1242.25,87.993677 1240.5714,88.002168 1240.6604,85.526721 1242.3904,84.090959 1245.4278,81.570173 1248.1407,72.998349 1247.9075,66.658839 1247.6889,60.713744 1247.7633,60.509569 1250.0523,60.77573 1254.8729,61.336275 1255.0546,60.388963 1251.4519,53.477184 1249.5533,49.834803 1248,45.914268 1248,44.764884 1248,43.6155 1249.3181,40.610698 1250.9292,38.087547 1252.5403,35.564396 1254.1666,32.15 1254.5433,30.5 L 1255.2283,27.5 1250.9991,31.75 C 1245.7145,37.060535 1243.5538,37.1724 1241.3414,32.25 1239.8546,28.941822 1239.6091,28.765487 1239.258,30.753337 1239.0391,31.992673 1239.5665,35.436931 1240.43,38.407245 1242.5707,45.770822 1242.4918,46.333314 1238.5054,52.128406 1234.9241,57.334746 1234.7755,59 1237.8924,59 1240.7435,59 1240.8772,59.8174 1238.8845,65.061882 1236.7373,70.712732 1236.5411,74.761929 1238.0692,81.887175 1238.8763,85.650469 1238.8376,87.434959 1237.9113,89.165761 1235.7356,93.231061 1233,95.271354 1233,92.828741 z"/>
</svg>
