<?xml version="1.0" encoding="UTF-8"?>
<svg xmlns="http://www.w3.org/2000/svg" viewBox="919.53 20.64 28.77 77.34">
  <path d="M 923.23906,93.636804 C 921.53009,91.0081 924.11889,40.971254 926.42802,32 926.64037,31.175 927.08951,29.2625 927.42611,27.75 928.18942,24.320054 930.73337,24.160146 936.14547,27.201916 942.25658,30.636551 942.58645,36.781477 936.94272,42.053503 933.23343,45.5185 933.25123,46.561435 937.05318,48.527501 944.99957,52.636741 946.30073,58.418113 940.63192,64.428798 938.77948,66.392959 936.52948,68 935.63192,68 933.68371,68 933.45674,70.567678 935.30484,71.70031 937.61649,73.117034 941,79.648253 941,82.69372 941,87.016265 937.08599,90.257578 928.14778,93.337041 925.08374,94.392691 923.78215,94.472175 923.23906,93.636804 z M 929.65598,77.684099 C 932.51929,66.499261 931.97032,28.583382 928.98917,31.629363 927.69093,32.95584 925.9219,52.516023 925.38326,71.5 924.95747,86.506839 925.07186,88.287095 926.35889,86.684099 927.16077,85.685354 928.64447,81.635354 929.65598,77.684099 z M 934.53274,87.979764 C 938.92343,85.266173 939.36177,83.606275 937.06116,78.405362 934.36722,72.315266 932.65107,72.797006 931.38041,80 931.13786,81.375 930.28168,84.1875 929.4778,86.25 928.15501,89.64385 928.17042,90 929.64006,90 930.53319,90 932.7349,89.090894 934.53274,87.979764 z M 937.52584,37.950021 C 938.39331,36.272533 938.82297,34.017598 938.48066,32.939054 937.80314,30.804404 932.41011,27.527406 931.63598,28.779984 931.23784,29.424189 932.02665,33.819769 933.60462,39.75 934.17796,41.904713 935.88632,41.12052 937.52584,37.950021 z M 938.03649,63.974018 C 941.72526,61.34738 942.46423,58.798403 940.58851,55.17116 939.30631,52.691668 936.22886,50.308227 935.49519,51.226461 934.97321,51.879743 934.16904,66 934.65381,66 934.94941,66 936.47161,65.088308 938.03649,63.974018 z"/>
</svg>
