<?xml version="1.0" encoding="UTF-8"?>
<svg xmlns="http://www.w3.org/2000/svg" viewBox="1160.82 18.02 43.28 79.86">
  <path d="M 1202.0938 36.90625 L 1198.5938 32.125 C 1192.0716 23.240018 1186.8528 21.652662 1182.6562 27.25 C 1181.3161 29.0375 1179.2768 32.362154 1178.125 34.65625 C 1175.2083 40.465163 1171.7393 56.677123 1172.4375 61.15625 C 1172.9124 64.203243 1172.4306 65.660472 1169.5312 69.96875 C 1163.563 78.837445 1162.8172 85.799692 1167.3438 90.78125 C 1169.0347 92.642083 1170.2907 93.021085 1173.9375 92.78125 C 1177.8105 92.526529 1178.7727 92.012806 1180.8125 89 C 1183.2959 85.332033 1183.3348 83.181688 1181.375 67.53125 C 1180.5963 61.312782 1182.5193 50.150767 1185.5625 43.25 C 1186.8358 40.3625 1188.1184 38 1188.4062 38 C 1188.6941 38 1190.8124 40.536961 1193.0938 43.625 C 1195.87 47.38313 1196.7279 48.779036 1196.8125 50.96875 L 1199.4062 44.0625 C 1198.8936 44.987353 1198.3496 45.961062 1198.0938 45.9375 C 1197.7695 45.907637 1196.15 43.770137 1194.5 41.1875 C 1192.3803 37.869669 1190.7367 36.400202 1188.9062 36.1875 C 1186.6195 35.921764 1186.0088 36.566673 1183.7188 41.6875 C 1179.7196 50.629725 1177.3542 68.052819 1179.5938 72.09375 C 1181.7468 75.978259 1181.3812 85.268401 1178.9375 88.375 C 1174.312 94.255358 1167.4 90.368899 1167.6562 82.03125 C 1167.8189 76.740237 1169.0176 73.815343 1172.7188 69.84375 C 1174.8575 67.548695 1175.1866 66.290298 1175.0938 60.84375 C 1174.8191 44.74332 1181.7793 26 1188.0312 26 C 1189.7728 26 1200.8571 37.95283 1200.9688 39.9375 L 1202.0938 36.90625 z "/>
</svg>
