<?xml version="1.0" encoding="UTF-8"?>
<svg xmlns="http://www.w3.org/2000/svg" viewBox="1096.28 20.25 73.54 81.06">
  <path d="M 1126.3438,23.9375 1121.1875,28.0625 1116,32.15625 1112.0938,29.09375 C 1107.1564,25.183325 1105.4662,25.205229 1103,29.25 1100.5821,33.215709 1100.4539,36.722549 1102.6562,39.15625 1104.9846,41.728978 1107.1498,41.457093 1111.5,38 1115.939,34.472321 1116.5938,34.368276 1117.9688,36.9375 1118.9734,38.814996 1119.4862,58 1118.5312,58 1118.2696,58 1116.5821,57.097944 1114.7812,56 1109.9259,53.039678 1108.5395,53.494273 1104.9062,59.15625 1101.0507,65.164753 1099.6213,74.630848 1102.25,76.8125 1104.0627,78.316876 1104.9909,77.253769 1106.9062,71.5 1109.2479,64.465998 1112.261,62.381735 1115.2188,65.75 1118.8136,69.843814 1118.4688,71.816546 1113.0938,77.5 1110.2958,80.458258 1108,83.341987 1108,83.90625 1108,86.383173 1111.4048,91.685591 1114.3125,93.75 1119.7777,97.63013 1120.4567,96.196726 1115.625,91.03125 1113.0748,88.304813 1111,85.261941 1111,84.25 1111,83.238058 1112.8501,80.611621 1115.0938,78.4375 1120.8143,72.893806 1121.2979,71.672781 1119.5938,67.59375 1116.2421,59.572154 1109.4405,60.619663 1105.375,69.78125 L 1104.1562,72.5 1104.0938,68.71875 C 1104.0014,64.434111 1108.1065,57 1110.5625,57 1111.4025,57 1113.8132,57.885034 1115.9375,58.96875 1119.3362,60.702636 1119.9416,60.750629 1121.0312,59.4375 1122.6957,57.432087 1121.7885,36.667778 1119.9375,34.4375 1118.8334,33.107154 1119.074,32.502968 1121.5625,30.46875 1125.4,27.331773 1126.0046,27.383736 1129.8125,31.3125 L 1133.0625,34.65625 1130.5625,40.25 C 1129.0543,43.660314 1127.8326,48.858185 1127.4062,53.5625 L 1126.6875,61.28125 1129.5938,60.75 C 1131.1889,60.463341 1133.9255,59.649597 1135.6562,58.9375 1138.6775,57.694621 1138.918,57.779494 1142.25,61.3125 1144.1591,63.336706 1146.2339,65 1146.8438,65 1148.836,65 1150.7449,60.676799 1153.0625,50.875 1155.2324,41.698121 1155.2459,41.068769 1153.6562,37.71875 1152.7384,35.784425 1152,32.573129 1152,30.59375 1152,28.614371 1151.5051,27 1150.9062,27 1150.1704,27 1150.0137,29.026099 1150.4375,33.25 1151.7564,46.393334 1150.7133,56.286113 1147.5312,60.625 1146.2238,62.408177 1145.9744,62.290955 1142.6875,58.5 1138.9643,54.20584 1139.4908,54.23975 1131.75,57.46875 1130.2793,58.082254 1130,57.666665 1130,54.75 1130,48.696857 1131.9594,40.571995 1133.9062,38.625 1135.7466,36.784841 1135.8619,36.808331 1138.0938,39.375 1142.4849,44.425317 1146,41.901051 1146,33.6875 1146,27.293093 1143.5447,26.547224 1138.2188,31.34375 L 1135.9688,33.375 1131.1562,28.65625 1126.3438,23.9375 z M 1156,28.5 C 1154.8862,27.811627 1154.5599,35.247304 1155.6562,36.34375 1156.023,36.710417 1156.739,37 1157.25,37 1158.67,37 1164,33.669707 1164,32.78125 1164,31.616392 1161.5592,31.847084 1160.2812,33.125 1158.8281,34.578376 1157,33.387562 1157,31 1157,29.964919 1156.55,28.839919 1156,28.5 z M 1106.875,29.125 C 1108.0916,28.990248 1109.6164,29.681246 1111.5312,31.1875 L 1114.3125,33.375 1110.9375,36.1875 C 1106.9324,39.531165 1106.8173,39.557417 1104.5312,37.03125 1102.9853,35.322906 1102.9157,34.648968 1104,32.03125 1104.746,30.230273 1105.6584,29.259752 1106.875,29.125 z M 1142.9688,31.15625 C 1143.6583,31.441033 1144,32.512988 1144,34.375 1144,38.825692 1141.9079,40.644276 1139.6562,38.15625 1137.5386,35.816204 1137.5853,34.700098 1139.8438,32.65625 1141.2565,31.377673 1142.279,30.871467 1142.9688,31.15625 z M 1166.3438,38.21875 C 1166.2095,37.845101 1164.8447,38.52158 1162.3125,40.25 1158.2795,43.002942 1158.1459,43.363834 1156.4688,54.34375 1155.1165,63.195476 1153.2231,67.601849 1150.3125,68.71875 1149.4558,69.047499 1146.3485,68.114558 1143.375,66.65625 1140.4016,65.197942 1137.5237,64 1137,64 1134.7929,64 1132.794,70.345611 1133.25,75.84375 1133.6761,80.981831 1135.4665,83.709431 1138.7812,84.59375 L 1139.3438,81.75 C 1138.7729,81.523735 1138.1805,81.362008 1137.6562,80.9375 1135.9573,79.561679 1135.5,78.083212 1135.5,74.125 1135.5,67.116715 1137.0106,65.878468 1142,68.75 1150.3608,73.56187 1155.1091,70.692323 1157.5,59.40625 1158.3059,55.601796 1158.9592,51.243539 1158.9688,49.71875 1158.9802,47.875402 1160.3807,45.445971 1163.125,42.46875 1165.3939,40.00727 1166.4778,38.592399 1166.3438,38.21875 z M 1137.0938,92.71875 1137.5938,90.28125 C 1135.4437,89.34952 1133.2828,86.590805 1129.625,81 1126.8339,76.733896 1123.8429,76.701256 1119.625,80.90625 1116.9374,83.585652 1116.854,83.997372 1117.9688,87.375 1119.1821,91.051767 1120.6466,92.69709 1121.75,91.59375 1122.0892,91.254509 1121.8384,90.432084 1121.1875,89.78125 1119.213,87.806745 1119.7789,83.271392 1122.2188,81.5625 1125.5265,79.245582 1126.7087,79.619352 1127.9688,83.4375 1129.1544,87.030111 1134.1534,91.954344 1137.0938,92.71875 z"/>
</svg>
