<?xml version="1.0" encoding="UTF-8"?>
<svg xmlns="http://www.w3.org/2000/svg" viewBox="1056.6 16.5 64.94 77">
  <path d="M 1087.7188,20 C 1084.3549,20 1075.3333,26.074972 1073.375,29.65625 1071.7494,32.629191 1071.7425,32.962451 1073.3438,35.40625 1074.6762,37.440146 1075.8591,37.986602 1078.7812,37.96875 L 1082.5,37.96875 1079.25,36.34375 C 1074.529,34.01645 1074.7756,30.304498 1079.9375,26.15625 1082.1065,24.413211 1084.9287,22.886512 1086.1875,22.75 1088.1225,22.540164 1088.6959,23.263373 1090.0312,27.4375 1090.9002,30.15305 1092.1189,32.550108 1092.7188,32.75 1093.3184,32.949892 1096.023,31.740442 1098.75,30.0625 1101.477,28.384558 1104.186,27 1104.75,27 1106.5695,27 1109.2252,33.976332 1108.5,36.84375 L 1107.8125,39.5 1105.4375,36.5 C 1102.5752,32.92451 1101.2317,33.407806 1096.2188,39.9375 1093.1927,43.878986 1093.0161,44.583214 1093.625,49.34375 1094.3414,54.945676 1097.0359,61.207933 1100.2812,64.75 1102.8131,67.513139 1103.5293,67.517788 1108.3438,64.9375 1113.3809,62.237774 1115,63.513067 1115,70.15625 1115,74.81601 1112.8329,82 1111.4375,82 1111.0805,82 1111.1174,79.296686 1111.5,76 1112.0893,70.922537 1111.9414,69.91613 1110.5312,69.375 1109.6159,69.023656 1108.3418,69.25197 1107.7188,69.875 1106.1243,71.469191 1102.8347,71.269984 1100.2188,69.4375 1098.8395,68.47149 1097.9228,68.321676 1097.2812,68.65625 L 1100.25,73.21875 C 1100.4707,72.570138 1100.883,72.404373 1101.9375,72.96875 1103.2656,73.679539 1104.706,73.674593 1106.5625,72.96875 1108.0498,72.403284 1109.4843,72.171836 1109.75,72.4375 1110.0157,72.703164 1109.6839,75.875551 1109,79.5 1108.3161,83.124449 1108.0309,86.374639 1108.375,86.71875 1109.4006,87.744358 1113.8444,82.983978 1116,78.53125 1118.3768,73.621362 1118.5831,67.999195 1116.5312,64.03125 1114.5548,60.209121 1113.1835,59.902848 1108.9375,62.3125 1104.4301,64.870441 1102.8018,64.227764 1099.5,58.59375 1096.069,52.739134 1095.1216,44.576289 1097.375,40.21875 1100.364,34.438509 1105,34.109048 1105,39.6875 1105,43.576363 1108.8202,42.663305 1110.625,38.34375 1114.3038,29.539061 1106.8001,22.429724 1099.7188,28 1096.2369,30.7389 1094.3325,30.508141 1093.5312,27.25 1092.4615,22.898749 1090.1417,20 1087.7188,20 z M 1083.875,70.21875 1085.3125,67.21875 C 1083.9486,66.789482 1082.0513,67.258079 1080.9688,68.5625 1078.1332,71.978972 1076.1887,72.186351 1072.2812,69.53125 1070.2291,68.136689 1068.0134,67 1067.375,67 1064.2129,67 1064.1107,77.778555 1067.2188,82.875 1068.9606,85.731379 1069.0466,86.213045 1067.6562,85.09375 1065.139,83.067107 1064.1072,80.779001 1062.9688,74.78125 1061.7541,68.383986 1062.6339,61 1064.625,61 1065.3959,61 1068.5651,62.442952 1071.6562,64.1875 L 1077.2812,67.34375 1080.1562,63.9375 C 1084.729,58.524297 1089,48.712958 1089,43.625 1089,37.43795 1088.265,35.988568 1085.1562,36.125 1083.6553,36.190889 1083.2198,36.407559 1084.1562,36.65625 1088.3745,37.776371 1087.0403,49.75876 1081.7188,58.65625 1077.9026,65.035942 1075.2739,65.566022 1069.9688,61.03125 1068.0644,59.403602 1065.9862,58.053602 1065.3438,58.03125 1063.2888,57.959786 1059.9702,64.632062 1059.8125,69.15625 1059.5476,76.756522 1060.9486,81.57435 1064.6562,85.90625 1066.6838,88.274809 1069.0422,90 1070.25,90 1071.3988,90 1072.0494,89.705645 1071.6875,89.34375 1071.3256,88.981855 1071.4915,88.12549 1072.0625,87.4375 1072.8119,86.534585 1072.2305,84.792992 1070.0312,81.21875 1067.2314,76.668067 1065.9577,70.955247 1067.75,71.03125 1068.1625,71.048742 1069.3699,71.723742 1070.4375,72.53125 1073.1161,74.557216 1076.2701,74.368572 1079.2812,72 1081.5059,70.250136 1083.064,69.684423 1083.875,70.21875 z"/>
</svg>
