<?xml version="1.0" encoding="UTF-8"?>
<svg xmlns="http://www.w3.org/2000/svg" viewBox="1002.53 16.82 68.87 86.9">
  <path d="M 1008.4062,42.4375 C 1008.6395,42.624928 1009,42.838615 1009,42.96875 1009,44.857505 1012.4914,44.86994 1016.7188,43 1019.2115,41.897288 1021.8137,41 1022.5,41 1023.8685,41 1025,45.351822 1025,50.625 1025,54.524396 1024.2369,54.767296 1020.7188,52 1017.0458,49.110884 1014.5439,49.528537 1011.2188,53.5625 1006.9913,58.691226 1005.6577,63.797327 1007.0938,69.5 1007.9343,72.838217 1008.7069,74.006189 1009.875,73.78125 1010.7592,73.610964 1011.6456,72.593685 1011.8438,71.5 1012.4709,68.03695 1015.1922,63 1016.4375,63 1018.1116,63 1023,68.284938 1023,70.09375 1023,70.914533 1021.1516,73.388379 1018.9062,75.5625 1016.6608,77.736622 1014.173,80.729287 1013.375,82.25 1012.0354,84.802574 1012.1263,85.377794 1014.4688,89.375 1018.5196,96.287405 1027,99.479046 1027,94.09375 1027,93.004825 1025.8888,90.902168 1024.5312,89.4375 1022.244,86.969381 1022.1582,86.570372 1023.5,84.125 1027.2969,77.205117 1030.4032,76.34867 1036.7812,80.375 1043.2969,84.488175 1043.6018,85.275793 1040.625,90.96875 1039.1886,93.715798 1038,96.633627 1038,97.46875 1038,99.77285 1039.5703,99.321591 1043.5312,95.84375 1048.047,91.879003 1051.3494,85.572768 1050.5625,82.4375 1050.2392,81.149372 1047.9475,78.6742 1045.4688,76.96875 1039.1554,72.625147 1037.7015,70.150267 1039.0938,66.15625 1040.4339,62.311703 1041.3021,62.261014 1046.1562,65.625 1050.5906,68.697887 1052.4781,68.268534 1054.375,63.78125 1059.0726,52.66889 1059.9421,49.816996 1060.5312,43.5625 1061.0899,37.634825 1061.6176,36.219145 1064.0938,33.90625 1068.2696,30.005361 1067.6773,22.53842 1063.4688,26.03125 1061.3478,27.791446 1059,26.440771 1059,23.46875 1059,21.996459 1058.5684,21.148732 1058,21.5 1057.45,21.839919 1057,23.683947 1057,25.59375 1057,29.575651 1059.14,31.016403 1062.2188,29.09375 1063.2994,28.41884 1064.4292,28.085612 1064.7188,28.375 1065.7539,29.410141 1063.9965,32.059609 1061.6875,32.9375 1059.6219,33.722854 1059.2044,34.888438 1058.0625,42.65625 1056.6796,52.063732 1053.6988,61.529747 1051.3438,64 1050.0776,65.327979 1049.2995,65.183153 1044.75,62.65625 1039.8668,59.943993 1039.5688,59.875648 1038.3125,61.59375 1037.5854,62.588169 1036.5325,64.977822 1036,66.90625 1034.7863,71.302167 1036.1579,73.587244 1043.0312,78.71875 1046.1819,81.070906 1048,83.168952 1048,84.46875 1048,87.105296 1042.8055,94.885786 1042.2188,93.125 1041.9806,92.410696 1042.2631,91.330625 1042.875,90.71875 1043.4869,90.106875 1044,88.213119 1044,86.53125 1044,83.889387 1043.1248,82.896904 1037.5625,79.125 1032.6621,75.801857 1030.5318,74.904315 1028.6562,75.375 1025.6506,76.129421 1020.007,84.296553 1020,87.90625 L 1020,90.5 1017.5312,87.5 C 1016.1788,85.85 1015.0476,84.05 1015.0312,83.5 1015.015,82.95 1017.4785,79.906633 1020.5,76.71875 1026.1059,70.803955 1026.7393,69.281077 1025,66.03125 1024.0821,64.316021 1018.0997,60 1016.625,60 1016.2653,60 1014.6422,62.084691 1013.0312,64.625 L 1010.0938,69.25 1009.4688,66.375 C 1009.1209,64.797191 1008.6842,62.990687 1008.5,62.375 1008.1234,61.116512 1011.6462,54.879907 1013.375,53.75 1015.5925,52.300786 1018.3024,53.059123 1021.6875,56.03125 1023.5805,57.693359 1025.5454,58.788318 1026.0625,58.46875 1026.5795,58.149182 1027,54.151047 1027,49.59375 1027,42.715725 1026.6748,41.024687 1025.0938,39.59375 1023.2862,37.958132 1022.9727,37.974529 1019.125,39.9375 1014.0136,42.545131 1012.2971,42.547692 1011.4688,39.9375 1010.4099,36.60153 1011.6858,33.540073 1016.0312,29.0625 1019.3777,25.614385 1020.6596,24.933403 1023.25,25.1875 1026.0328,25.460473 1026.5485,25.996357 1027.4688,29.6875 1028.0418,31.986746 1028.8111,34.162452 1029.1875,34.53125 1029.5639,34.900047 1031.4058,34.024293 1033.2812,32.59375 1037.554,29.334917 1039,29.316582 1039,32.5 1039,34.944628 1036.4608,38.346376 1034.0312,39.15625 1031.537,39.987699 1029.8405,58.150625 1032.125,59.5625 1032.7554,59.952119 1034.7542,58.613152 1036.7188,56.46875 1040.1821,52.688217 1040.2499,52.674666 1041.875,54.71875 1044.4232,57.923718 1047.554,59.216748 1048.875,57.625 1049.479,56.897318 1050.9803,51.560809 1052.1875,45.75 L 1054.375,35.1875 1051.6875,31.65625 C 1050.2091,29.717995 1049,26.944156 1049,25.5 1049,24.004151 1048.5697,23.147914 1048,23.5 1046.3842,24.498621 1046.8568,28.977216 1048.875,31.84375 1051.9559,36.21979 1052.1028,38.247001 1050,46.46875 1048.8947,50.79061 1047.8072,54.536481 1047.5625,54.78125 1047.3177,55.026018 1045.8845,54.287703 1044.4062,53.125 1041.0184,50.459992 1040.7044,50.452662 1037.8438,53.46875 1036.5483,54.834248 1035.1625,55.959248 1034.75,55.96875 1034.3375,55.978253 1034,53.073415 1034,49.5 1034,43.457142 1034.2479,42.73143 1037.5625,39.0625 1040.5469,35.759138 1041.0753,34.494515 1040.8125,31.3125 1040.4227,26.592984 1038.3885,25.980884 1034.625,29.46875 1031.8098,32.077786 1030,32.068669 1030,29.40625 1030,28.586396 1029.3077,26.560187 1028.4688,24.9375 1026.3157,20.773773 1022.8861,21.084073 1016.375,26 1013.4611,28.2 1010.706,30 1010.25,30 L 1009.3438,36.09375 1008.4062,42.4375 z M 1021,91 C 1021.0516,90.948384 1021.457,91.253064 1022.25,91.875 1023.2125,92.629844 1024,93.417344 1024,93.625 1024,94.448034 1023.1814,93.915748 1021.875,92.25 1021.2531,91.456972 1020.9484,91.051616 1021,91 z M 1051.6562,21.5 C 1051.4926,21.693146 1051.3712,22.43421 1051.2188,23.8125 1051.0053,25.741117 1051.5442,28.151671 1052.4688,29.5625 1055.4466,34.107256 1057.1189,32.338735 1054.5625,27.34375 1053.7656,25.786678 1052.7575,23.6 1052.3438,22.5 1052.0314,21.669899 1051.82,21.306854 1051.6562,21.5 z"/>
</svg>
