<?xml version="1.0" encoding="UTF-8"?>
<svg xmlns="http://www.w3.org/2000/svg" viewBox="1162.64 55.44 29.11 43.75">
  <path d="M 1189.75,63.3125 1184.5938,57.4375 C 1184.0242,57.810146 1184.0012,59.100297 1184.8125,61.34375 1186.5008,66.012658 1186.2697,74.554723 1184.375,78.21875 1182.7677,81.32682 1182.9476,82.796256 1185.7188,90.84375 1186.0305,91.749002 1184.5949,90.8125 1182.5312,88.75 1180.4675,86.6875 1178.4111,85 1177.9688,85 1175.8233,85 1173.8513,86.497117 1171.9375,89.59375 1169.8772,92.92731 1168,94.049644 1168,91.9375 1168,90.224547 1170.0423,86.715845 1172.7188,83.84375 1175.0058,81.389544 1175.1094,80.892797 1174,77.53125 1172.6219,73.35568 1173.3668,67.765116 1175.5312,65.96875 1176.9874,64.760298 1177.5828,58.926541 1176.375,57.71875 L 1174.5625,60.34375 C 1175.4527,61.013999 1174.7453,63.352441 1172.4375,67.6875 1170.3466,71.614941 1169.9922,73.323976 1170.5,77.03125 1170.9922,80.624649 1170.7395,82.076432 1169.2188,84.03125 1166.8626,87.060021 1164.6443,93.584096 1165.5,94.96875 1166.7929,97.060631 1169.5803,95.809299 1172.2812,91.90625 1175.8073,86.811012 1178.6513,86.912599 1181.5,92.25 1183.6242,96.230026 1186.4964,97.184029 1187.4375,94.21875 1187.7498,93.234975 1187.3252,89.824628 1186.5,86.65625 1185.1453,81.455193 1185.1475,80.609156 1186.5938,77.8125 1187.5184,76.024296 1188.1622,72.42913 1188.125,69.3125 1188.0751,65.133165 1188.4454,63.812939 1189.75,63.3125 z"/>
</svg>
