<?xml version="1.0" encoding="UTF-8"?>
<svg xmlns="http://www.w3.org/2000/svg" viewBox="1435.3 28.43 18.62 57.37">
  <path d="M 1444.25 83.1875 C 1443.649 81.031867 1444.3661 76.795963 1446 74.71875 C 1447.1 73.320327 1448 71.894062 1448 71.53125 C 1448 71.168438 1447.1 71.150874 1446 71.5 C 1443.0089 72.449344 1443.4254 69.221799 1446.75 65.6875 C 1449.3517 62.9217 1449.3833 62.78688 1447.25 63.4375 C 1443.5943 64.552402 1443.246 61.429697 1446.625 57.8125 C 1449.3306 54.916094 1449.3639 54.734195 1447.25 55.25 C 1445.2834 55.729867 1445 55.421202 1445 52.71875 C 1445 50.920495 1445.9229 48.658577 1447.1875 47.3125 L 1449.3438 45 L 1447.1875 45 C 1443.7937 45 1444.2949 40.63823 1448 38 C 1451.7355 35.34008 1451.9204 33.54767 1448.375 34.4375 C 1446.605 34.881744 1445.1678 34.550876 1443.9375 33.4375 C 1441.2849 31.036941 1439.4804 32.575711 1441.4375 35.5625 C 1443.5016 38.712695 1443.5452 43.159817 1441.5 42.375 C 1439.5624 41.63149 1439.5624 44.610599 1441.5 48 C 1443.6645 51.786346 1443.4383 54.273896 1441 53.5 C 1438.6329 52.748701 1438.4379 53.877377 1440.4688 56.5625 C 1442.3142 59.002495 1442.6209 63.995868 1440.8125 62.1875 C 1440.1525 61.5275 1439.2525 61 1438.8125 61 C 1437.2979 61 1438.0036 63.693315 1440 65.5 C 1442.3481 67.624958 1442.6549 71 1440.5 71 C 1439.675 71 1439 71.392345 1439 71.875 C 1439 72.357656 1439.675 73.315311 1440.5 74 C 1441.9533 75.206142 1442.3772 80.274555 1441.4062 81.5 L 1444.25 83.1875 z "/>
</svg>
