<?xml version="1.0" encoding="UTF-8"?>
<svg xmlns="http://www.w3.org/2000/svg" viewBox="1562.73 37.01 29.5 62.38">
  <path d="M 1567.4362,94.576985 C 1566.0181,93.540035 1565.4856,91.58762 1565.1889,86.337096 1564.7307,78.229028 1566.0205,72.722399 1569.6203,67.417881 1572.2048,63.609428 1572.2172,63.504971 1570.6195,59.030699 1568.9043,54.227544 1569.477,49.887919 1572.636,43.75 1574.1854,40.739527 1576.7056,39.84912 1575.4664,42.75 1572.6434,49.358234 1572.1543,53.907468 1573.7352,58.851045 1575.3145,63.789597 1575.3076,63.845724 1572.7535,66.881143 1569.7141,70.493214 1567.0169,78.179578 1567.1849,82.75 1567.3504,87.253618 1568.2387,86.815974 1570.2294,81.25 1572.331,75.374052 1577.4793,69 1580.1238,69 1582.5021,69 1584.2928,72.868048 1586.0406,81.780551 1586.718,85.234854 1587.508,87.825286 1587.7963,87.537067 1588.0845,87.248848 1588.217,83.828167 1588.0908,79.935554 1587.8399,72.20064 1585.966,65.689526 1583.0811,62.528472 1582.0629,61.412812 1580.9219,59.484491 1580.5454,58.243314 1579.6076,55.151206 1581.7456,45.453256 1583.7236,43.826844 1585.1729,42.635164 1585.2613,42.85654 1584.5913,46 1582.5818,55.42713 1582.6533,56.89133 1585.3117,60.755237 1589.3329,66.59974 1590.1909,69.838416 1590.2154,79.264382 1590.2351,86.860372 1589.9223,88.49245 1587.869,91.506988 1586.5661,93.420012 1585.1176,94.861074 1584.6502,94.709348 1584.1828,94.557622 1583.7011,90.848449 1583.5798,86.466741 1583.3698,78.888412 1581.2507,72 1579.1293,72 1576.0816,72 1571,83.266636 1571,90.023888 1571,95.478684 1570.1516,96.562567 1567.4362,94.576985 z M 1575,55.082905 C 1575,50.225366 1578.4096,42 1580.4232,42 1581.6205,42 1581.4356,42.959297 1579.4934,46.826205 1577.6778,50.440955 1577.219,52.574592 1577.6655,55.326205 1578.1481,58.299842 1577.9509,59 1576.6308,59 1575.4006,59 1575,58.037775 1575,55.082905 z"/>
</svg>
