<?xml version="1.0" encoding="UTF-8"?>
<svg xmlns="http://www.w3.org/2000/svg" viewBox="1530 31.87 23.24 68.9">
  <path d="M 1536.7039,95.403886 C 1533.3329,93.576083 1532,90.416976 1532,84.254788 1532,80.072638 1532.4221,79.246719 1536.5,75.449178 1541.4155,70.871616 1542.0743,68.645301 1539,67 1537.9,66.411298 1537,65.465141 1537,64.897429 1537,64.3203 1537.8818,64.145082 1539,64.5 1540.7959,65.070012 1541,64.6797 1541,60.674376 1541,57.632068 1540.5231,56.030976 1539.5,55.638374 1537.3204,54.801972 1537.6619,53 1540,53 1542.4846,53 1542.7182,49.451048 1540.402,46.891754 1538.7941,45.115028 1539.3279,42.466596 1541.0762,43.54707 1542.8076,44.617151 1543.2611,40.94596 1541.6213,39.134014 1539.8316,37.156427 1539.4767,35 1540.941,35 1541.4585,35 1542.1611,35.451652 1542.5023,36.00367 1542.8434,36.555689 1544.3325,36.713308 1545.8113,36.353934 1548.3684,35.732506 1548.4213,35.793504 1546.891,37.600263 1544.1865,40.793502 1543.8223,44.14078 1546.1142,44.740114 1548.0809,45.254408 1548.0803,45.27656 1546.0495,47.168527 1543.7942,49.269644 1543.2621,54.587352 1545.2411,55.247024 1546.1334,55.54448 1545.993,56.149902 1544.7411,57.401786 1543.7835,58.359375 1543,60.288198 1543,61.68806 1543,63.740933 1543.3869,64.132094 1545,63.710251 1546.1,63.422595 1547,63.525366 1547,63.938632 1547,64.351898 1546.1,65.504514 1545,66.5 1542.1771,69.054673 1542.3983,72.820751 1545.4392,73.976883 1548.3512,75.084037 1549.5396,77.121219 1550.4371,82.544867 1551.2405,87.399734 1550.1704,90.566008 1546.4812,94.25 1543.3952,97.331591 1540.8198,97.635532 1536.7039,95.403886 z M 1545.2602,92.459531 C 1549.8372,88.215534 1548.6714,77.966145 1543.383,75.955499 1537.6199,73.76438 1532.6611,81.405556 1535.0799,88.75 1537.2376,95.301702 1540.7965,96.598498 1545.2602,92.459531 z"/>
</svg>
