<?xml version="1.0" encoding="UTF-8"?>
<svg xmlns="http://www.w3.org/2000/svg" viewBox="1266.47 18.83 45.73 82.69">
  <path d="M 1308 78.59375 C 1307.3172 78.836591 1306.5457 79 1305.5 79 C 1302.7021 79 1301.6253 79.648291 1299.6875 82.5 C 1296.1026 87.77564 1294.4147 84.444879 1297.6562 78.5 C 1301.8134 70.875949 1303 67.871624 1303 65.0625 C 1303 60.251484 1300.2321 54.571151 1296.9375 52.625 C 1294.9552 51.454003 1294.0849 50.254458 1294.4062 49.15625 C 1294.6749 48.238373 1295.2088 45.728323 1295.5938 43.5625 C 1296.0342 41.084858 1297.3105 38.760366 1299.0312 37.3125 C 1302.0557 34.767495 1303.0933 31.449502 1301.875 28.15625 C 1300.6577 24.865492 1298.3658 25.56836 1295.875 30 C 1292.862 35.360979 1291.3875 35.1429 1291.8438 29.40625 C 1292.309 23.557664 1291.3066 22.5902 1285.6562 23.4375 C 1279.8511 24.308035 1274.9516 27.575392 1272.7188 32.125 C 1269.4567 38.771556 1273.6332 44.032925 1280.6562 42.09375 C 1282.6592 41.540731 1284.6561 41.280055 1285.0625 41.53125 C 1285.4689 41.782445 1285.3404 43.796815 1284.7812 46 C 1283.8982 49.479151 1283.4018 50 1280.9688 50 C 1276.8928 50 1272.3336 54.995427 1270.4062 61.625 C 1268.549 68.013561 1269.098 71.191729 1272.625 74.71875 C 1275.662 77.755667 1276.3069 77.174808 1277.875 70.03125 C 1279.0601 64.632394 1282.1527 60 1284.5938 60 C 1288.0561 60 1291.8004 69.769277 1289 71.5 C 1288.45 71.839919 1288 73.219348 1288 74.5625 C 1288 76.097965 1286.515 78.434278 1284 80.875 C 1281.8 83.010028 1280 85.200261 1280 85.71875 C 1280 87.359052 1284.2952 90.677689 1290.5 93.84375 C 1297.7396 97.537853 1301.0972 97.765466 1303.8125 94.75 C 1304.9267 93.5125 1307.1003 91.029545 1308.6562 89.25 C 1309.2462 88.575236 1309.7013 88.129113 1310.125 87.71875 L 1309.4688 84.875 L 1306.375 88.65625 C 1304.2385 91.31416 1302.05 93.845922 1301.5 94.25 C 1300.0889 95.286744 1300.3492 95.342402 1291.25 90.90625 C 1286.5641 88.621755 1283 86.260327 1283 85.4375 C 1283 84.640724 1283.444 84 1283.9688 84 C 1285.6063 84 1291.9571 74.88814 1293.1875 70.78125 C 1294.1991 67.404871 1294.1084 66.435381 1292.5 63.6875 C 1290.0606 59.520196 1288.0969 58.070129 1284.8438 58.03125 C 1281.6935 57.993602 1277.7372 62.204794 1276 67.46875 C 1274.7678 71.202274 1273.0837 72.179959 1272.9062 69.25 C 1272.2645 58.650893 1275.7953 52 1282.0938 52 C 1285.6723 52 1286.9602 50.172203 1287.6875 44.03125 L 1288.2812 38.875 L 1282.3438 39.53125 C 1276.7324 40.1661 1276.3513 40.092357 1275.3125 37.8125 C 1273.062 32.873145 1278.6991 26.503212 1286 25.75 C 1288.3771 25.504762 1288.5273 25.782695 1288.8125 31.25 C 1289.0038 34.917586 1289.5405 37 1290.3125 37 C 1291.7299 37 1296.623 32.66227 1297.2188 30.875 C 1297.4443 30.198325 1298.1154 29.939574 1298.7188 30.3125 C 1300.3419 31.315664 1299.0521 34.901116 1296.4688 36.59375 C 1294.9207 37.608017 1293.7079 40.127322 1292.5938 44.5625 L 1290.9688 51 L 1295.5 55.34375 C 1299.598 59.270355 1300 60.101526 1300 64.375 C 1300 67.905175 1299.096 70.735562 1296.3438 75.78125 C 1293.5262 80.946644 1292.8156 83.145586 1293.3438 85.25 C 1294.2757 88.963065 1297.3355 88.837338 1300.2188 84.9375 C 1302.0303 82.48724 1303.0078 81.957812 1305.0938 82.375 C 1306.4208 82.640393 1307.5161 82.243967 1308.6562 81.46875 L 1308 78.59375 z "/>
</svg>
