<?xml version="1.0" encoding="UTF-8"?>
<svg xmlns="http://www.w3.org/2000/svg" viewBox="471.69 13.54 31.88 85.56">
  <path d="M 474.65625 81.3125 L 474.4375 84.03125 C 477.10639 85.327926 478.11077 85.493689 479.21875 84.1875 C 481.95311 80.963974 485.08701 71.930448 485.6875 65.5 C 486.23376 59.650248 486.0886 58.890639 484.0625 57.25 L 481.8125 55.4375 L 484.5 49.46875 C 488.5233 40.555139 488.80775 39.803311 489.46875 35.78125 C 489.80383 33.742321 491.06425 29.917321 492.28125 27.28125 L 494.5 22.5 L 495.125 37.5 C 495.54991 47.807157 496.25825 53.866946 497.40625 56.875 C 498.32513 59.282691 498.88165 61.430848 498.65625 61.65625 C 498.43085 61.881651 497.04796 61.520572 495.5625 60.84375 C 492.00273 59.22181 491.44012 60.191319 490.59375 69.53125 C 489.74434 78.904815 487.56593 86.232131 484.59375 89.6875 C 482.36739 92.275785 482.43349 92.531881 473.9375 89.5625 L 473.6875 92.4375 L 479.90625 95.21875 L 483.34375 93.09375 C 488.06518 90.175745 491.83172 81.881356 493.25 71.28125 C 494.28529 63.543562 494.53034 62.927582 496.4375 63.40625 C 500.6772 64.470345 501.57043 62.724424 500.0625 56.3125 C 499.3115 53.119132 498.42526 43.75 498.09375 35.5 C 497.76224 27.25 497.13246 19.9375 496.6875 19.25 C 495.51127 17.432613 493.04235 17.719676 492.375 19.75 C 492.05863 20.7125 490.72157 24.425 489.4375 28 C 488.15343 31.575 486.35497 37.2 485.40625 40.5 C 484.45752 43.8 482.58234 48.715796 481.25 51.40625 L 478.8125 56.28125 L 481.5 58.40625 C 484.15369 60.522232 484.15383 60.603414 483 67.03125 C 481.70548 74.242785 478.64231 82 477.09375 82 C 476.39493 82 475.53665 81.696638 474.65625 81.3125 z "/>
</svg>
