<?xml version="1.0" encoding="UTF-8"?>
<svg xmlns="http://www.w3.org/2000/svg" viewBox="323.51 20.18 60.92 84.3">
  <path d="M 334.1875 78.5 C 334.49039 76.740373 335.00821 74.949178 335.90625 72.9375 C 340.23302 63.245253 343.84892 63.047858 346.4375 72.375 C 349.39254 83.0226 349.39537 83.688903 346.40625 85.15625 C 342.67429 86.988251 338.11321 95.317508 339.5625 97.65625 C 341.41391 100.64389 342.95709 100.31151 346.8125 96.09375 C 348.87045 93.842387 350.99865 92 351.5625 92 C 352.12634 92 354.35176 93.8 356.5 96 C 358.64824 98.2 361.18032 100 362.125 100 C 364.78055 100 365.42633 94.799632 363.5 89 C 361.90559 84.199671 361.93193 83.781969 364.0625 77.03125 C 366.84576 68.212422 368.32801 66.764453 370.4375 70.84375 C 372.23008 74.31022 372.74072 83.138841 371.59375 90.84375 C 370.86767 95.721265 370.9425 96.16777 372.625 95.84375 C 377.27462 94.948317 381.66581 79.451494 380.375 68.46875 C 379.61849 62.031991 376.4734 56.660631 373.1875 56.1875 C 371.9466 56.008826 369.3404 56.796326 367.40625 57.9375 C 365.4721 59.078674 363.68106 60 363.4375 60 C 363.19394 60 362.9927 58.0875 362.96875 55.75 C 362.9448 53.4125 362.54349 49.605316 362.09375 47.28125 C 361.10973 42.196226 362.30984 40.008968 367.53125 37.53125 C 369.51995 36.58755 371.30836 35.97175 371.46875 36.15625 C 371.62913 36.34075 372.49718 37.9625 373.40625 39.75 C 375.39244 43.655426 377.69995 43.939079 379.03125 40.4375 C 381.35982 34.3129 378.82029 26.490942 374.125 25.3125 C 371.88981 24.751501 364.70477 27.714635 359.71875 31.25 C 358.19112 32.333179 357.46633 31.988095 354.40625 28.75 C 350.65651 24.782125 347.29189 24.007316 342.78125 26.0625 C 336.5332 28.909306 333.73304 39.81879 338.1875 43.96875 C 339.82309 45.492533 341.73083 46 345.71875 46 C 350.52667 46 351.15255 46.25134 352.03125 48.5625 C 353.3357 51.993458 353.28939 62 351.96875 62 C 351.3975 62 349.03954 60.2 346.75 58 C 341.81284 53.255933 338.49781 52.878063 334.15625 56.53125 L 331.15625 59.03125 L 331.125 58.96875 L 329.8125 63 C 329.81602 63.777506 329.55243 64.698084 328.90625 66.0625 L 328.625 66.65625 L 326.84375 72.1875 L 327.125 72.5 L 326.28125 75.5625 L 328.5625 76.4375 C 329.42983 74.31695 330.31305 72.034855 331 69.84375 C 333.77103 61.005218 336.94797 56 339.78125 56 C 340.56348 56 343.25067 57.8 345.75 60 C 350.4774 64.161227 354.36394 65.12248 355.40625 62.40625 C 356.56801 59.378757 355.9844 49.868445 354.46875 46.9375 C 353.10073 44.292049 352.46023 44 348.15625 44 C 344.43183 44 342.8746 43.483329 341.1875 41.6875 C 338.26193 38.573372 338.34964 33.988104 341.4375 30.65625 C 344.80578 27.021814 348.18488 27.262757 352.875 31.5 C 355.00574 33.425 357.06831 35 357.46875 35 C 357.86919 35 360.80795 33.376495 364 31.40625 C 367.46018 29.270508 370.76255 27.958156 372.15625 28.15625 C 375.18973 28.587417 377.57183 33.38142 376.25 36.34375 L 375.3125 38.46875 L 374.125 36.21875 C 372.57942 33.3308 370.08502 33.416068 363.9375 36.53125 L 358.9375 39.0625 L 359.625 51.28125 C 359.98998 58.00212 360.43541 63.687046 360.625 63.90625 C 360.8146 64.125455 362.64628 63.151681 364.71875 61.75 C 371.22823 57.347399 372.61896 57.35905 374.875 61.78125 C 378.62171 69.12541 378.54321 85.143706 374.71875 90.375 C 373.75032 91.699668 373.5645 90.370595 373.84375 83.625 C 374.12573 76.813726 373.81112 74.366105 372.15625 70.625 C 369.09157 63.696776 366.96902 64.312247 363.25 73.25 C 359.10281 83.216736 358.67813 84.901614 359.875 86.34375 C 361.16097 87.893248 362.5233 96 361.5 96 C 361.08982 96 359.22299 94.65 357.34375 93 C 352.94085 89.134206 351.14733 89.22104 347 93.5 C 343.25881 97.359932 342 97.837197 342 95.375 C 342 92.237648 346.0413 87 348.46875 87 C 351.65868 87 352.24058 84.728141 350.875 77.59375 C 347.51066 60.016898 339.72279 58.236872 333.5625 73.625 C 332.80123 75.526616 332.62583 76.469495 332.21875 77.78125 L 334.1875 78.5 z "/>
</svg>
