<?xml version="1.0" encoding="UTF-8"?>
<svg xmlns="http://www.w3.org/2000/svg" viewBox="1461 27.85 36.81 73.09">
  <path d="M 1464.7188 39.34375 L 1463.7188 44.6875 C 1464.4807 43.570625 1467.0992 41.435383 1470.5 39.3125 C 1481.6719 32.338672 1484.2884 33.94158 1483.25 47.09375 C 1482.8408 52.276895 1483.1155 54.247248 1484.4688 56.3125 C 1485.4149 57.756455 1486.4135 61.536588 1486.6875 64.71875 C 1487.1402 69.976463 1486.8833 70.917536 1484 75.21875 C 1481.0548 79.612295 1480.9338 80.237545 1482.0312 83.5625 C 1483.4402 87.832073 1482.5793 93.572374 1480.4062 94.40625 C 1475.4643 96.302648 1473.0082 91.211337 1475.5938 84.40625 C 1477.0599 80.547385 1477.0202 80.110613 1475.0625 76.625 C 1471.9286 71.045374 1472.3602 66.151658 1476.5 60 C 1480.3865 54.224719 1480.7626 51.437843 1478.375 46.40625 C 1477.0391 43.591238 1476.2212 43 1473.5938 43 C 1471.8477 43 1468.7296 43.880446 1466.6562 44.9375 C 1464.793 45.887413 1463.8918 46.227389 1463.4688 46.15625 L 1463 48.59375 L 1463.0625 49.34375 C 1463.8013 48.583377 1464.8983 47.997884 1467 47.09375 C 1473.3959 44.342276 1474.835 44.449107 1476.125 47.75 C 1478.7128 54.37155 1476.1706 59.514103 1471.5312 57.03125 C 1467.8652 55.069213 1467.1014 56.683674 1470.4375 59.34375 C 1472.907 61.312907 1473.127 61.909018 1472.125 63.78125 C 1471.2014 65.506943 1470.3526 65.820501 1467.9688 65.34375 C 1464.049 64.559786 1464.0756 66.475693 1468 67.84375 C 1470.2764 68.637323 1471 69.500991 1471 71.4375 C 1471 73.492988 1470.5136 74 1468.5 74 C 1467.125 74 1466 74.45 1466 75 C 1466 75.55 1467.279 76 1468.8438 76 C 1472.5821 76 1475.4349 79.147926 1474.625 82.375 C 1474.1377 84.316447 1473.5379 84.697704 1471.75 84.25 C 1469.527 83.69334 1469.5296 83.722054 1471.375 85.8125 C 1473.4838 88.201334 1472.9092 91.287538 1470.5312 90.375 C 1469.6853 90.050429 1469 90.297406 1469 90.90625 C 1469 91.515094 1469.4856 92 1470.0938 92 C 1470.7018 92 1472.5534 93.125 1474.1875 94.5 C 1477.8978 97.622066 1479.0619 97.625585 1481.9688 94.53125 C 1483.5394 92.85951 1484.4535 90.44106 1484.7812 87.03125 C 1485.1429 83.26692 1485.6612 81.985382 1486.875 81.96875 C 1488.1312 81.951537 1487.9803 81.574559 1486.2188 80.21875 C 1484.2119 78.67425 1484.099 78.222144 1485.3125 76.5625 C 1486.2249 75.314723 1487.4186 74.87732 1488.8438 75.25 C 1491.1762 75.859952 1491.6274 75.033581 1489.9062 73.3125 C 1489.3098 72.715934 1488.9723 71.175934 1489.1562 69.875 C 1489.4294 67.944242 1490.0053 67.550014 1492.25 67.8125 C 1495.7538 68.222213 1495.8107 66.674157 1492.3438 65.4375 C 1488.9515 64.227469 1487.0067 57.948149 1486.125 45.34375 C 1485.6376 38.376006 1485.0446 35.693628 1483.5938 34.09375 C 1480.9487 31.176937 1479.4616 31.433537 1471.5938 36.03125 C 1468.2343 37.994425 1465.5485 39.238814 1464.7188 39.34375 z "/>
</svg>
