<?xml version="1.0" encoding="UTF-8"?>
<svg xmlns="http://www.w3.org/2000/svg" viewBox="1186.52 23.37 25.13 80.99">
  <path d="M 1196.2913,97.75 C 1190.5071,91.424101 1188.5186,80.377715 1190.041,63.028729 1191.0954,51.013417 1193.4785,43.604579 1199.1134,34.82335 1202.7832,29.104385 1205.4399,27.290294 1207.5639,29.053051 1209.6498,30.784177 1209.3377,34.671032 1206.438,43.074848 1200.5793,60.054073 1199.4023,76.673878 1203.1459,89.558032 1204.8996,95.59339 1205.06,97.222801 1204.0235,98.471716 1202.1919,100.67865 1198.6685,100.34978 1196.2913,97.75 z M 1202.5124,96.25 C 1196.6254,81.5648 1196.9571,64.261107 1203.5089,44.263194 1205.429,38.402522 1207,33.047314 1207,32.362731 1207,27.047002 1200.563,34.80864 1196.3281,45.23069 1194.5388,49.634217 1193.5643,54.725313 1192.7853,63.739364 1191.4507,79.18241 1192.6916,87.893776 1197.0912,93.967251 1200.0593,98.064518 1203.8858,99.675762 1202.5124,96.25 z"/>
</svg>
