<?xml version="1.0" encoding="UTF-8"?>
<svg xmlns="http://www.w3.org/2000/svg" viewBox="1232.28 39.82 30.8 63.22">
  <path d="M 1235.375 83.25 L 1234.7188 88.53125 C 1235.5333 88.350384 1236.9212 88.549452 1239.0625 89.40625 C 1245.8553 92.124173 1247.2971 89.373667 1249.0312 70.3125 C 1250.6875 52.105929 1253.8366 42.691787 1253.125 58.09375 C 1252.8742 63.523335 1253.4205 67.048534 1255.5625 74.03125 C 1257.0757 78.964154 1258.0651 83.27861 1257.75 83.59375 C 1257.4349 83.90889 1256.0236 83.416354 1254.625 82.5 C 1251.7275 80.601484 1250 81.211274 1250 84.125 C 1250 85.22399 1249.4949 88.132178 1248.875 90.59375 C 1247.3617 96.603785 1245.3911 97.510259 1239.9375 94.71875 C 1236.9025 93.165253 1235.2835 91.650562 1234.5312 90.4375 L 1234.2812 94.78125 C 1234.695 94.949794 1236.6586 95.812275 1238.7188 96.6875 C 1246.9089 100.1668 1250.0144 98.444231 1252.125 89.21875 C 1252.9568 85.582656 1253.6638 84.257554 1254.375 84.96875 C 1256.189 86.782783 1258.9931 86.084377 1260.1562 83.53125 C 1261.0777 81.509163 1260.8918 80.001972 1259.0312 75.28125 C 1257.3523 71.021463 1256.6199 66.66237 1256.25 58.71875 C 1255.9742 52.794753 1255.2867 47.663513 1254.7188 47.3125 C 1253.2906 46.429827 1250.2505 50.431167 1249 54.84375 C 1248.428 56.862237 1247.2732 64.35 1246.4375 71.5 C 1245.6018 78.65 1244.6993 85.2875 1244.4062 86.25 C 1243.7326 88.462026 1241.6117 88.470085 1237.9062 86.28125 C 1236.3999 85.391416 1235.7337 84.427242 1235.375 83.25 z "/>
</svg>
