<?xml version="1.0" encoding="UTF-8"?>
<svg xmlns="http://www.w3.org/2000/svg" viewBox="269.53 43.54 34.47 58.2">
  <path d="M 274.09375 85.875 L 273.4375 88.78125 C 274.1624 88.920561 274.94923 89 275.84375 89 C 277.79948 89 280.52756 87.659091 283.8125 85.0625 C 288.42085 81.419809 288.94327 80.58069 290.34375 74.3125 C 291.17924 70.573108 292.16609 65.272113 292.5625 62.53125 C 293.55484 55.670114 295.84107 50.434813 297.21875 51.8125 C 297.97731 52.571052 297.78692 54.780628 296.625 59.40625 C 294.49012 67.905257 294.60811 72.503623 297.03125 77.84375 C 300.32356 85.099347 299.54147 86.07234 292.59375 83.40625 C 291.52596 82.9965 290.74554 83.586611 290.125 85.21875 C 289.04118 88.069409 282.7986 93.737087 279.3125 95.0625 C 276.60427 96.092167 274.32696 96.100346 272.0625 95.15625 L 271.53125 97.65625 C 271.80978 97.741768 272.10487 97.941067 272.375 98 C 277.38377 99.092753 283.45034 96.276695 289.40625 90.125 C 292.66782 86.756205 293.77395 86.211039 296.15625 86.6875 C 299.44094 87.344437 302 85.656574 302 82.84375 C 302 81.789184 301.06553 79.053635 299.90625 76.78125 C 297.7206 72.497024 297.68848 72.312864 299.5625 55.96875 C 300.06854 51.555439 299.87358 50.155915 298.59375 49.09375 C 295.0847 46.181501 291.95549 51.991257 290.0625 64.9375 C 288.39111 76.368252 286.74404 80.088513 281.71875 83.625 C 278.48061 85.903799 275.8014 86.479619 274.09375 85.875 z "/>
</svg>
