<?xml version="1.0" encoding="UTF-8"?>
<svg xmlns="http://www.w3.org/2000/svg" viewBox="273.87 20.32 54.42 85.5">
  <path d="M 288.79863,97.271278 C 287.31287,96.349751 285.29804,94.111725 284.32122,92.297887 282.60601,89.11294 282.61203,88.875899 284.49675,85.376185 285.5701,83.383086 287.46451,81.086524 288.70654,80.272714 289.94857,79.458903 291.92803,77.234489 293.10533,75.329572 L 295.24588,71.866085 292.43585,68.933042 C 290.89033,67.319869 289.01011,66 288.25759,66 287.50506,66 285.72247,68.5875 284.29627,71.75 281.09015,78.859372 281.37612,78.55704 279.40502,76.921175 276.84689,74.798118 278.01703,64.353032 281.47379,58.454519 283.86386,54.376171 284.48913,53.905947 286.76321,54.476706 288.18163,54.832707 290.45086,55.996084 291.80594,57.06199 293.16102,58.127895 294.65903,59 295.13486,59 297.28445,59 294.83155,39.935019 292.425,37.937757 291.34337,37.040083 290.36208,37.358985 287.94335,39.394215 284.38207,42.39083 282.35171,42.635075 279.22251,40.443296 276.5474,38.56958 276.34552,34.916527 278.69708,30.935653 281.11034,26.850335 282.263,26.747756 286.95798,30.200488 L 291.11879,33.260378 293.80939,30.851368 C 301.23539,24.202567 300.33684,24.347531 305.36941,28.98639 L 309.88596,33.149597 313.67511,30.574799 C 318.47573,27.312693 320.78717,27.310008 322.02475,30.5651 323.5469,34.56865 323.17955,38.56086 321.05176,41.139216 L 319.10353,43.5 314.86887,41.232897 C 312.5398,39.98599 310.33366,39.31099 309.96632,39.732897 309.07228,40.759763 306.5381,57.871433 307.18436,58.517696 307.46383,58.797167 309.39856,57.670015 311.48375,56.012913 316.24629,52.22812 318.17138,52.226528 321.35055,56.004754 325.77712,61.265437 325.81617,71.766404 321.43145,77.762858 319.67374,80.166668 317.49601,78.026912 316.11389,72.538035 314.91148,67.762814 312.47292,66.141349 309.16014,67.914294 306.73105,69.214306 305.79805,73.873592 307.48465,76.281546 308.19475,77.29535 310.60275,79.468433 312.83578,81.110618 317.74213,84.71879 318.53649,86.808768 316.66165,91.176596 313.35793,98.873271 306.30119,101.92796 306.67399,95.5 306.96792,90.431795 306.15383,88.341246 302.17425,83.944885 L 298.34174,79.710992 296.17087,83.22353 C 293.6185,87.353345 293.47954,89.510107 295.46035,94.25086 296.26354,96.173169 296.63854,98.028125 296.29368,98.372984 295.15945,99.507217 291.54761,98.976308 288.79863,97.271278 z M 287.73976,36.686538 289.97952,34.670608 286.43253,32.26036 C 283.65226,30.371122 282.58203,30.101998 281.48149,31.015362 278.76305,33.271471 278.60712,36.195045 281.10475,38.079015 283.60406,39.964248 284.24835,39.829033 287.73976,36.686538 z M 293.00459,92.513895 C 292.34748,90.522835 292.0775,87.827366 292.40463,86.523965 293.15478,83.535134 297.75269,78 299.4853,78 300.79677,78 305.70139,83.088432 308.48546,87.337467 309.59057,89.024071 309.73829,90.425742 309.06013,92.790325 307.87177,96.933894 309.28917,97.719139 311.91993,94.374669 315.27169,90.113591 314.6092,87.28477 309,81.906724 303.83891,76.958319 303.05455,74.616928 304.91694,69.718454 306.12082,66.552017 312.29329,63.551411 314.82062,64.904001 317.55888,66.369471 318.81538,68.204806 319.35342,71.524923 319.61858,73.161216 319.87943,74.725 319.93308,75 319.98673,75.275 320.46684,74.825 321,74 323.28803,70.459528 321.73777,61.044951 318.16127,56.760631 316.8032,55.133784 316.38399,55.254951 311.68114,58.633609 307.00289,61.9946 306.56337,62.123359 305.36468,60.484053 304.04166,58.674707 304.24441,54.148986 306.07178,44.700779 307.56489,36.980886 307.23619,35.226296 303.54924,31.235315 L 300.09847,27.5 297.01745,30.551019 293.93642,33.602038 296.18936,38.551019 C 298.06074,42.661867 298.41808,45.081512 298.29935,52.838463 298.22073,57.974618 297.917,62.416333 297.62439,62.708941 297.33178,63.001549 295.18294,61.836741 292.84919,60.120478 286.77271,55.65179 285.33948,55.983508 282.44497,62.528513 281.10024,65.569196 280,68.917638 280,69.969496 280,73.320685 281.89108,73.196437 283.33082,69.750654 284.79828,66.238528 287.53556,63 289.03663,63 289.52821,63 291.52107,64.396616 293.4652,66.103592 298.90537,70.880126 298.13034,73.715809 288.84758,82.998575 287.28141,84.564743 286,86.825769 286,88.023077 286,90.236176 292.59729,97.736038 293.633,96.700335 293.94448,96.388853 293.66169,94.504955 293.00459,92.513895 z M 319.81822,35.618221 C 319.99324,33.483243 319.75246,31.352457 319.28314,30.88314 318.36015,29.960148 312.04574,33.904008 312.01728,35.421259 311.98232,37.285171 315.45048,40.079337 317.44483,39.79402 319.04693,39.564817 319.57015,38.644258 319.81822,35.618221 z"/>
</svg>
