<?xml version="1.0" encoding="UTF-8"?>
<svg xmlns="http://www.w3.org/2000/svg" viewBox="1181.73 22.89 50.66 82.06">
  <path d="M 1227.9688 61.21875 L 1227.875 61.28125 L 1224.5 58 C 1221.1368 54.740194 1219.4856 54.478223 1214.75 56.46875 C 1213.2128 57.114902 1213 56.589721 1213 52 C 1213 47.620431 1213.4854 46.207718 1216 43.34375 C 1219.2165 39.680318 1219.8729 35.571117 1217.7188 32.625 C 1216.5238 30.990822 1216.2469 31.048288 1213.4688 33.4375 C 1211.8343 34.843139 1210.2442 35.999328 1209.9375 36 C 1209.6309 36.000671 1208.5956 34.2 1207.625 32 C 1205.2517 26.620829 1202.6387 26.724729 1196.25 32.46875 C 1190.9351 37.247261 1188.6198 41.366793 1189.1562 45.15625 C 1189.4655 47.340671 1189.8881 47.493329 1195.125 47.21875 C 1201.2694 46.896582 1201.9678 47.609215 1202 54.375 C 1202.0125 56.988626 1201.7573 57.193333 1199.25 56.625 C 1189.6696 54.453437 1190.2106 54.304362 1187.8438 59.625 C 1184.0363 68.183995 1185.1177 82.04468 1189.4688 80.375 C 1190.1966 80.095721 1191.0257 78.663029 1191.3125 77.1875 C 1192.4608 71.277834 1193.8723 66.871624 1195.0625 65.4375 C 1196.1583 64.117116 1196.6691 64.273421 1199.1562 66.65625 C 1202.682 70.034144 1202.74 72.296938 1199.4062 75.78125 C 1197.9821 77.269746 1195.6762 80.193412 1194.2812 82.25 C 1192.0034 85.60823 1191.8782 86.291906 1193 89 C 1194.5739 92.799849 1200.4304 98 1203.125 98 C 1205.0467 98 1205.1238 97.617391 1204.4688 91.5 C 1203.9991 87.114837 1204.1655 84.014811 1205 82 C 1205.6814 80.355088 1206.4426 79 1206.6875 79 C 1207.3609 79 1214.4099 84.34999 1215.25 85.5 C 1215.6541 86.053129 1215.9916 89.247917 1216 92.59375 C 1216.0084 95.939584 1216.2895 98.977084 1216.6562 99.34375 C 1218.5346 101.22212 1222.6907 97.516873 1226.0312 90.96875 C 1228.112 86.890181 1228.116 86.50473 1226.5938 83.3125 C 1225.7107 81.460875 1223.4737 79.015467 1221.5938 77.90625 C 1219.7137 76.797034 1217.4241 74.768805 1216.5312 73.40625 C 1215.1546 71.305282 1215.1238 70.527244 1216.2188 68.28125 C 1216.929 66.824641 1217.95 65.512688 1218.5 65.34375 C 1219.05 65.174813 1221.525 66.817767 1224 69 C 1226.475 71.182233 1228.9661 72.991408 1229.5312 73 C 1229.6383 73.001628 1229.957 72.748923 1230.0938 72.71875 L 1229.3125 68.53125 C 1228.558 68.086007 1227.758 67.526937 1226.7188 66.6875 C 1224.3941 64.809844 1221.825 63.051426 1221 62.78125 C 1218.8353 62.072328 1214.4565 65.452485 1213 68.96875 C 1211.429 72.761412 1213.1872 75.83054 1219 79.5 C 1221.1722 80.871233 1223.7062 83.128971 1224.625 84.53125 C 1226.2395 86.995332 1226.1936 87.229656 1223.2812 91.25 C 1218.8737 97.334434 1218 97.151969 1218 90.15625 C 1218 84.229845 1217.9374 84.11146 1213.25 80.09375 C 1210.6375 77.854508 1207.9455 76.003551 1207.2812 76 C 1206.6168 75.996449 1204.877 78.052938 1203.4062 80.5625 C 1201.1199 84.464033 1200.8176 85.877131 1201.3125 90.3125 L 1201.9062 95.5 L 1198.4375 91.59375 C 1196.5417 89.439615 1195 86.993446 1195 86.1875 C 1195 84.103028 1198.4008 78.977203 1201.9688 75.65625 C 1206.001 71.902997 1205.8075 69.767217 1201 64.71875 L 1196.9688 60.5 L 1194.5 63.3125 C 1193.1345 64.851105 1191.7624 67.326105 1191.4375 68.8125 C 1189.529 77.544769 1187.6836 73.187116 1189.375 63.9375 C 1190.5008 57.781367 1190.6874 57.503534 1193.3125 57.6875 C 1194.8241 57.793439 1197.4705 58.580939 1199.1875 59.4375 C 1204.3668 62.021283 1205 61.616245 1205 55.5625 C 1205 52.563379 1204.4716 48.915352 1203.8125 47.46875 C 1202.7234 45.078461 1202.1767 44.853501 1197.8125 45.15625 L 1193 45.5 L 1193 42.28125 C 1193.0005 39.814919 1193.9623 38.13031 1197.1875 35.03125 C 1199.4983 32.810831 1201.9633 31 1202.6562 31 C 1203.3493 31 1204.3999 32.834176 1205 35.0625 C 1206.3587 40.108433 1208.2946 40.886336 1212.1562 38.03125 C 1213.8097 36.80874 1215.3664 36.022718 1215.625 36.28125 C 1216.6235 37.279736 1214.7091 41.930239 1212.4062 44.09375 C 1210.3619 46.014273 1209.9871 47.295256 1210 52.4375 C 1210.0208 60.67038 1210.9349 61.917297 1214.8125 59.15625 C 1218.6755 56.405548 1219.7802 56.439631 1222.1875 59.5 C 1224.5891 62.55308 1226.0959 63.479964 1228.25 62.75 L 1227.9688 61.21875 z "/>
</svg>
