<?xml version="1.0" encoding="UTF-8"?>
<svg xmlns="http://www.w3.org/2000/svg" viewBox="1521.54 61.01 33.29 33.34">
  <path d="M 1546.0754,87.377937 C 1549.1688,82.372704 1549.1948,76.108651 1546.1393,71.975082 1544.1744,69.31695 1543.9612,68.380584 1544.8678,66.390727 1546.2205,63.421976 1548.3994,63.166339 1547.473,66.085076 1547.0332,67.470859 1547.4722,68.896223 1548.7821,70.335076 1552.831,74.782755 1552.0994,83.788777 1547.2454,89.25 1544.5105,92.327067 1543.7594,91.125289 1546.0754,87.377937 z M 1532,89.968615 C 1532,89.401354 1532.6916,88.671822 1533.537,88.347434 1537.1239,86.971006 1539.4,77.800015 1536.8,75.2 1534.8581,73.258128 1532.9937,73.795239 1529.7968,77.217494 1526.9081,80.309856 1526.737,80.36076 1525.3956,78.526365 1523.5441,75.994271 1523.633,72.611007 1525.6537,68.70034 1527.6134,64.907801 1529.7934,63.075447 1532.3979,63.031803 1533.8049,63.008226 1533.4169,63.590377 1530.8979,65.282644 1528.0637,67.186606 1527.449,68.26493 1527.1925,71.782644 1527.0234,74.10219 1527.1953,76 1527.5745,76 1527.9537,76 1529.7727,75.067512 1531.6168,73.927804 1535.5204,71.515262 1538.314,72.023424 1540.6369,75.568558 1542.617,78.590659 1541.9675,81.299101 1537.9553,86.75 1535.0438,90.705407 1532,92.350488 1532,89.968615 z"/>
</svg>
