<?xml version="1.0" encoding="UTF-8"?>
<svg xmlns="http://www.w3.org/2000/svg" viewBox="974 22.42 43.48 77.46">
  <path d="M 990.09375 26.28125 C 988.41199 25.939281 986.81187 26.627654 984.8125 28.28125 C 979.32943 32.816057 976 38.063471 976 42.15625 C 976 46.93237 977.48495 47.71675 984.1875 46.34375 C 987.07372 45.752513 989.32663 45.685416 989.65625 46.21875 C 989.96333 46.715621 990.45416 49.799848 990.75 53.0625 C 991.28751 58.990206 991.26374 59 988.53125 59 C 982.07304 59 976.98191 66.720123 978.40625 74.3125 C 979.64221 80.900732 983.21057 81.276232 984.375 74.9375 C 984.73633 72.970554 985.68856 70.495554 986.5 69.4375 C 987.91821 67.588274 988.14345 67.670577 992 71.71875 C 994.20656 74.034953 996 76.561995 996 77.34375 C 996 78.125505 993.50285 79.984306 990.46875 81.46875 C 984.8576 84.214033 981.9828 87.865941 982.75 91.25 C 983.43385 94.266416 986 93.3064 986 90.03125 C 986 87.526587 986.67752 86.696978 990.25 84.90625 C 995.54006 82.254572 1000 78.147549 1000 75.9375 C 1000 74.211125 990.83965 65 989.125 65 C 986.53842 65 984.72989 66.629476 983.28125 70.25 C 981.95958 73.553162 981.53034 73.925644 980.75 72.53125 C 980.2334 71.608147 980.13253 69.66016 980.5 68.1875 C 981.60828 63.74609 983.87251 62 988.59375 62 C 990.95105 62 993.19466 61.501434 993.5625 60.90625 C 994.5748 59.268323 993.034 45.395668 991.625 43.46875 C 990.47621 41.897682 990.05485 41.902278 985.625 43.40625 C 979.78722 45.388229 978.59842 44.780436 979.34375 40.1875 C 979.97221 36.314727 986.29434 28.962729 988.9375 29.03125 C 989.78838 29.053308 992.27488 31.322097 994.4375 34.0625 C 996.60012 36.802904 998.68209 38.931211 999.0625 38.78125 C 1001.2038 37.937148 1011.8231 27.008741 1011 26.5 C 1010.4589 26.165602 1007.828 27.971675 1005.125 30.5 L 1000.1875 35.09375 L 995.9375 30.53125 C 993.55192 27.986018 991.77551 26.623219 990.09375 26.28125 z M 1013.3438 30 C 1012.2148 30 1004 37.088777 1004 38.0625 C 1004 39.787685 1006.0951 39.032039 1010.0625 35.84375 C 1013.5211 33.064376 1015.2325 30 1013.3438 30 z M 1013.9375 42 C 1013.3589 42 1012.4307 43.378809 1011.8438 45.0625 C 1011.2226 46.844379 1010.2293 47.936117 1009.5 47.65625 C 1008.8108 47.391804 1006.245 46.869451 1003.7812 46.5 L 999.28125 45.8125 L 998.65625 50.5625 C 997.53311 58.756637 997.848 60.478913 1000.9688 63.46875 C 1009.0729 71.233117 1008.2709 77.398232 998.03125 86.25 C 996.91783 87.2125 994.425 88 992.5 88 C 989.33333 88 989 88.279167 989 90.8125 C 989 92.3525 989.51821 94.111956 990.15625 94.75 C 991.75926 96.353005 992.91094 95.407957 992.28125 93 C 991.67214 90.670747 993.90111 90.302978 996.96875 92.21875 C 999.41989 93.749511 1000.7827 92.49797 999.28125 90.09375 C 998.32769 88.566862 998.52476 88.073233 1000.4688 87.1875 C 1004.337 85.424966 1010 75.974603 1010 71.28125 C 1010 70.693304 1008.0792 67.598005 1005.7188 64.375 C 1001.7936 59.015513 1001.4445 58.084687 1001.8125 53.625 L 1002.2188 48.75 L 1007.0938 49.3125 C 1011.3212 49.813168 1012.1469 49.605841 1013.4688 47.71875 C 1015.2196 45.219138 1015.4832 42 1013.9375 42 z "/>
</svg>
