<?xml version="1.0" encoding="UTF-8"?>
<svg xmlns="http://www.w3.org/2000/svg" viewBox="82.84 27.12 36.91 73.74">
  <path d="M 86.65625 74.4375 L 86 78.625 C 86.388418 78.319414 86.896221 78.415958 88.25 79.40625 C 94.257747 83.800927 96.703824 85.029784 99 84.78125 C 101.16391 84.547032 101.53982 83.96225 101.71875 80.5 C 101.83244 78.3 102.11674 75.15 102.375 73.5 C 103.17863 68.365783 104.00136 55.933452 104.25 45.25 C 104.38108 39.617866 104.80347 35.005366 105.15625 35 C 105.50903 34.994634 106.55629 36.9125 107.5 39.25 C 112.1032 50.651869 109.35566 84.537847 103.28125 91.25 C 100.89579 93.885902 99.032777 93.404441 93 88.65625 C 88.320478 84.97316 86.275374 83.013767 85.59375 81.46875 L 84.84375 86.40625 L 84.90625 86.84375 C 85.476803 86.835513 86.987323 87.817558 88.6875 89.46875 C 94.963756 95.564172 101.33876 97.504997 104.5625 94.28125 C 106.84083 92.002918 109.94125 85.06445 109.96875 82.1875 C 109.98083 80.923738 111.125 78.868057 112.5 77.59375 C 113.875 76.319443 115 74.739607 115 74.09375 C 115 73.447894 114.00998 73.821883 112.8125 74.9375 C 111.61503 76.053117 110.46565 76.809396 110.25 76.59375 C 109.27226 75.616004 112.67151 67.322885 114.71875 65.6875 C 115.97362 64.685081 117 63.126209 117 62.21875 C 117 60.930725 116.65275 61.046237 115.4375 62.78125 C 113.29601 65.838649 112 65.571402 112 62.0625 C 112 60.309405 112.99345 58.029376 114.46875 56.4375 C 115.83345 54.96497 116.67789 53.278716 116.3125 52.6875 C 115.85606 51.948958 115.49374 51.987522 115.21875 52.8125 C 114.38606 55.310571 113 53.852085 113 50.5 C 113 48.091481 113.62036 46.642848 115 45.78125 C 117.69644 44.097296 117.75322 41.528721 115.0625 42.96875 C 112.33521 44.428353 112.30174 44.40923 111.5625 40.46875 C 111.00782 37.512046 111.26645 36.588718 113.1875 35.03125 C 116.11375 32.658832 115.11962 31.552528 111.53125 33.1875 C 109.18115 34.258276 108.60445 34.18644 107.53125 32.71875 C 105.96458 30.576202 103 30.469419 103 32.5625 C 103 33.674812 102.41932 33.950475 101 33.5 C 98.576149 32.730699 98.234811 35.12006 100.5 37 C 101.37519 37.72634 102 39.919563 102 42.25 C 102 45.751194 101.75227 46.17698 100 45.71875 C 97.183571 44.982239 96.694177 46.416228 99.03125 48.53125 C 100.25724 49.640753 101 51.590739 101 53.6875 C 101 56.722559 100.8038 56.963164 99.0625 56.03125 C 96.100817 54.446206 95.751127 56.41946 98.53125 59.03125 C 100.43209 60.816993 101 62.358813 101 65.75 C 101 70.12436 100.97904 70.154306 98 69.5 C 94.405328 68.710478 94.219797 69.54003 97.3125 72.40625 C 99.182673 74.139468 99.516015 75.336454 99.1875 78.78125 C 98.96541 81.110086 98.328926 83 97.75 83 C 97.171074 83 94.230814 81.112182 91.25 78.8125 C 88.44579 76.649068 87.202424 75.528744 86.65625 74.4375 z "/>
</svg>
