<?xml version="1.0" encoding="UTF-8"?>
<svg xmlns="http://www.w3.org/2000/svg" viewBox="209.41 20.93 67.15 82.29">
  <path d="M 253.2,97.8 C 252.54,97.14 251.99785,95.2275 251.99522,93.55 251.98962,89.974864 246.19161,83 243.2253,83 242.19313,83 240.29656,84.119872 239.01071,85.488604 236.69398,87.954647 236.68929,88.007857 238.49348,91.35804 240.67563,95.410048 239.95093,98 236.63498,98 233.82781,98 228,91.970119 228,89.065614 228,88.039978 229.8,84.805247 232,81.877322 234.2,78.949398 236,75.5899 236,74.411771 236,72.145439 232.48719,67 230.93996,67 230.43678,67 228.78194,68.860517 227.26254,71.134483 225.74315,73.408449 223.71487,76.445949 222.75526,77.884483 221.56716,79.665556 221.00885,82.475146 221.00526,86.690983 221.00237,90.096024 220.5593,93.154334 220.02067,93.487227 218.06659,94.694914 215.04284,91.872805 213.95255,87.823766 212.4641,82.29609 213.31825,78.490746 217.50669,71.989622 219.42801,69.007424 221,65.600456 221,64.418581 221,63.236706 221.93266,61.084031 223.07258,59.634859 225.76409,56.213161 229.93394,56.185205 235.67615,59.550361 238.06967,60.95306 240.47171,61.826502 241.01401,61.491344 242.23954,60.733921 242.26676,47.855446 241.05388,42.627736 239.64435,36.552459 238.61046,36.215762 234.04106,40.34394 231.81531,42.354773 229.34605,44 228.55382,44 225.78092,44 224,39.794349 224,33.246109 224,25.194551 225.16536,24.666034 233.67072,28.860216 L 240.09592,32.028625 243.47529,29.451052 C 246.68907,26.999778 246.99297,26.950313 249.67733,28.441537 251.2298,29.303968 253.45674,30.7003 254.62609,31.544498 256.59212,32.963844 256.97942,32.888195 259.77045,30.539701 264.15535,26.850052 266.75369,27.170131 267.56598,31.5 268.42856,36.097945 267.28019,41.95525 265.37264,42.687246 264.53828,43.007419 262.65061,42.390879 261.17781,41.317158 254.67896,36.579265 254.50164,36.800267 253.49729,50.89 252.86518,59.757722 252.93007,60.234537 254.66398,59.462627 255.67379,59.013073 258.59681,58.459386 261.15958,58.232212 268.65614,57.567689 270.7699,60.885636 270.03897,72.17012 269.94385,73.638686 270.57117,76.203839 271.43301,77.87046 273.19949,81.286447 273.51038,86.566534 272,87.5 271.45,87.839919 271,87.177023 271,86.026898 271,84.876774 270.27012,82.262716 269.37805,80.217881 268.48598,78.173047 267.69848,73.531464 267.62805,69.903253 267.43554,59.985983 264.77105,58.107197 255.92092,61.648319 249.52475,64.207559 248.9622,62.3218 251.40197,46.5 252.16527,41.55 253.05961,36.825 253.38938,36 253.97333,34.539126 248.3775,30 245.99259,30 243.76112,30 242.69185,34.719151 243.86641,39.383733 244.48988,41.859782 244.95514,47.398871 244.90032,51.69282 244.72301,65.580125 243.16285,67.238084 235.12539,62.080462 232.48512,60.386208 229.64655,59 228.81744,59 226.53415,59 224.24826,62.074027 223.48921,66.165313 223.1152,68.181235 221.72207,70.851926 220.39336,72.100183 217.49608,74.822033 215.63451,81.059429 216.51838,85.083679 217.47564,89.442056 218.68704,88.608884 219.20319,83.237121 219.5365,79.768341 220.79641,76.810634 223.84026,72.351403 229.7742,63.658177 230.24539,63.370506 234.37254,65.921225 240.31374,69.593092 240.69887,74.777361 235.49329,81.008032 230.74137,86.695706 230.15459,89.471201 233.05201,92.555363 235.32327,94.973004 238,95.820755 238,94.122445 238,93.639789 237.325,92.684689 236.5,92 235.675,91.315311 235,90.001537 235,89.080503 235,86.702148 242.16998,80 244.71436,80 247.397,80 254.85072,88.416293 255.69496,92.39864 256.26844,95.103789 256.39926,95.174471 257.65473,93.45751 260.07177,90.152005 259.21129,87.11987 254.5,82.340972 249.45103,77.21955 249.11369,75.616512 252.04087,70.655312 256.4425,63.19509 264,65.978164 264,75.059304 264,78.980542 264.41896,80.044495 266.5,81.408043 267.875,82.308978 269,83.935732 269,85.023053 269,87.704626 268.45778,87.540862 264.45043,83.648981 261.50707,80.790426 261,79.625248 261,75.72041 261,70.323415 258.89238,67.452045 256.0482,68.974203 252.01959,71.130248 252.03736,75.710601 256.08928,79.562909 262.62526,85.776914 263.35838,91.368894 258.3002,96.427075 255.38445,99.342826 254.87891,99.478911 253.2,97.8 z M 233.75,37.944687 C 235.5375,36.269355 237,34.551202 237,34.126569 237,32.835643 228.09954,28.820447 226.89211,29.566677 226.17069,30.012539 225.98414,31.867606 226.37438,34.714783 227.3918,42.137612 228.67622,42.700082 233.75,37.944687 z M 265.412,34.519457 C 264.51421,30.320733 264.35559,30.285138 260.97513,33.523826 L 257.97112,36.401847 260.73556,38.647204 C 263.28927,40.721402 263.59748,40.76474 264.77882,39.215738 265.56489,38.185023 265.80886,36.375466 265.412,34.519457 z"/>
</svg>
