<?xml version="1.0" encoding="UTF-8"?>
<svg xmlns="http://www.w3.org/2000/svg" viewBox="1191.81 25.56 51.32 75.71">
  <path d="M 1218,96.222684 C 1218,95.110506 1223.9944,90 1225.299,90 1225.9003,90 1224.8658,91.575 1223,93.5 1219.7115,96.892886 1218,97.824853 1218,96.222684 z M 1221,44.559017 C 1221,43.766476 1220.5108,42.815686 1219.9129,42.446149 1218.5008,41.573472 1216.5735,43.500846 1217.4461,44.912868 1218.4264,46.498889 1221,46.242637 1221,44.559017 z M 1230.5,89 C 1230.8399,88.45 1231.7776,88 1232.5838,88 1234.5524,88 1236.1546,83.499165 1235.3673,80.180602 1234.6192,77.027331 1232.2076,74 1230.4438,74 1229.0898,74 1225,80.312328 1225,82.402173 1225,84.055582 1222.1356,86.569745 1219.25,87.449107 1216.0781,88.415717 1216.4631,86.812581 1219.868,84.875925 1221.5924,83.895075 1223.646,81.210217 1225.053,78.09695 1227.8877,71.824651 1230.8451,70.566403 1234.5569,74.05344 1240.802,79.920448 1238.7808,90 1231.3592,90 1230.5467,90 1230.1601,89.55 1230.5,89 z M 1216.25,47.337719 C 1214.4077,46.594336 1214.7302,43.554136 1216.8554,41.630877 1220.0092,38.776746 1223.8188,41.844899 1222.4553,46.140877 1221.8882,47.927512 1219.0624,48.472544 1216.25,47.337719 z M 1209.4258,84.87998 C 1209.034,84.246027 1208.4952,80.676561 1208.2284,76.947835 1207.0367,60.292453 1215.9671,43.915453 1221.5745,52.473293 1222.8111,54.360699 1223.0313,56.137077 1222.5038,59.972176 1221.8911,64.427358 1220.5979,66.931189 1219.4845,65.817866 1219.2742,65.607544 1219.5809,63.549277 1220.1661,61.243939 1221.3677,56.509874 1220.6212,52 1218.6359,52 1214.3368,52 1210.5073,65.388012 1211.261,77.782514 1211.6821,84.707799 1210.9852,87.403076 1209.4258,84.87998 z M 1201,96.2 C 1201,95.76 1201.4749,94.92509 1202.0554,94.344645 1202.65,93.750047 1202.8125,92.101312 1202.4278,90.568257 1201.8474,88.255893 1201.351,87.932698 1199.1224,88.416331 L 1196.5,88.985436 1198.75,87.370746 C 1199.9999,86.473775 1201,84.699038 1201,83.378028 1201,81.039218 1200.2223,80.594496 1196.75,80.947704 1195.7875,81.045611 1195,80.67732 1195,80.129281 1195,79.581241 1196.2375,78.990455 1197.75,78.816422 1202.3339,78.288984 1201.0323,73 1196.3185,73 1194.859,73 1194.1443,72.575554 1194.5362,71.941454 1194.9022,71.349306 1196.4168,71.152279 1197.9739,71.494278 1200.4793,72.04455 1200.8017,71.804394 1201.1999,69.091191 1201.6591,65.962902 1200.6513,65 1196.9182,65 1195.8632,65 1195,64.55 1195,64 1195,63.45 1196.5269,63 1198.393,63 1200.5645,63 1202.0045,62.43054 1202.393,61.418213 1203.4739,58.601408 1203.0529,58 1200,58 1198.35,58 1197,57.55 1197,57 1197,56.45 1198.5269,56 1200.393,56 1202.5645,56 1204.0045,55.43054 1204.393,54.418213 1205.6509,51.14024 1205.0333,50 1202,50 1200.35,50 1199,49.55 1199,49 1199,48.45 1200.6875,47.995045 1202.75,47.988989 1206.248,47.978718 1206.7483,47.576809 1210.1952,42.007634 1216.5266,31.7778 1224.8433,28.997163 1230.9234,35.077263 1236.3577,40.511589 1236.0065,45.180762 1230.0651,46.485704 1227.2722,47.099133 1227.2702,47.105379 1228.6431,51.090241 1230.6396,56.885036 1228.3241,66 1224.8556,66 1223.1208,66 1223.081,65.802564 1224.403,63.75 1226.8507,59.949429 1227.3189,54.698909 1225.581,50.539532 1223.4216,45.371503 1223.4637,45.266399 1228,44.5 1230.2,44.128312 1232,43.37069 1232,42.816394 1232,40.594868 1228.4616,36.025008 1225.5113,34.436157 1222.6377,32.888634 1222.1323,32.88023 1219.3224,34.333258 1213.125,37.538081 1207.5834,49.64945 1204.488,66.754249 1203.0825,74.521009 1202.995,77.373575 1203.9435,84.501168 1204.7509,90.56845 1204.7675,93.56589 1204.0016,94.996919 1202.9434,96.974311 1201,97.753231 1201,96.2 z"/>
</svg>
