<?xml version="1.0" encoding="UTF-8"?>
<svg xmlns="http://www.w3.org/2000/svg" viewBox="1066.6 26.45 52.82 74.99">
  <path d="M 1104.3438,38.65625 C 1105.5791,36.242485 1110.7972,32.453463 1111.75,33.40625 1112.0087,33.664963 1112.3806,36.318362 1112.5938,39.3125 1112.8765,43.28301 1112.5868,45.098081 1111.5,46 1110.2979,46.997686 1110.1419,48.840051 1110.6562,55.53125 1111.2332,63.038036 1111.0939,64.099031 1109.1562,66.5625 1106.5944,69.819205 1106.3976,72.548557 1108.6562,73.8125 1110.0058,74.567776 1110.1927,75.782765 1109.7188,80.375 1109.3995,83.468106 1108.4273,86.697708 1107.5625,87.5625 1105.2293,89.895774 1105.579,94.588562 1108.2188,96.4375 1109.4411,97.293687 1110.7598,98 1111.1562,98 1112.6926,98 1115.0038,93.412607 1114.9062,90.53125 L 1114.7812,87.5 1114,90.84375 C 1112.9144,95.435253 1111.6325,96.507493 1109.625,94.5 1108.7254,93.600357 1108,92.246429 1108,91.5 1108,89.89315 1110.6899,87 1112.1875,87 1112.8992,87 1112.9326,86.596507 1112.25,85.75 1111.6956,85.0625 1111.1981,82.406798 1111.1562,79.84375 1111.0927,75.95036 1111.4746,74.910094 1113.5312,73.5625 1116.3103,71.741561 1116.6275,69.416644 1114.4688,66.5625 1112.1948,63.5561 1112.5735,55.71835 1115.0938,53.4375 1116.6916,51.991552 1117.0208,50.852873 1116.5312,48.53125 1116.1807,46.868868 1115.5797,42.702368 1115.1875,39.28125 1114.2318,30.942707 1113.0254,29.85775 1108,32.75 1105.7274,34.057932 1104.5255,34.727834 1103.8438,34.84375 L 1104.3438,38.65625 z M 1113.1875,48.0625 C 1113.5346,48.052723 1113.9484,48.156045 1114.4375,48.34375 1115.3164,48.681011 1115.7148,49.583192 1115.375,50.46875 1114.6169,52.444274 1113.1028,52.446914 1112.3438,50.46875 1111.7778,48.994036 1112.1463,48.09183 1113.1875,48.0625 z M 1111.9062,68 C 1113.8735,68 1115.4166,70.509593 1114.4375,72.09375 1114.1283,72.594117 1113.005,73 1111.9375,73 1110.5338,73 1110,72.307995 1110,70.5 1110,68.713765 1110.5538,68 1111.9062,68 z M 1091.5938,33.875 1091.75,37.78125 1091.75,37.84375 1091.7812,38.6875 1091.7188,39.03125 1091.3438,52.65625 C 1091.1188,60.824826 1090.2736,72.830791 1089.4688,79.34375 1088.664,85.856709 1088,92.767126 1088,94.6875 1088,97.034019 1088.4099,98.027111 1089.25,97.75 1090.0198,97.496063 1090.5871,95.052686 1090.75,91.40625 1090.8956,88.149702 1091.6944,81.45 1092.5,76.5 1094.2126,65.976555 1095.3886,35.076738 1094.1562,33.1875 1093.4778,32.147241 1093.0736,32.219251 1092.0625,33.4375 1091.8982,33.635432 1091.7438,33.735052 1091.5938,33.875 z M 1091.7188,39.03125 1091.7812,38.6875 1091.75,37.84375 1091.7188,39.03125 z M 1104.3438,38.65625 1103.8438,34.84375 C 1103.1415,34.963147 1103,34.498444 1103,33.5 1103,32.675 1102.55,32 1102,32 1101.45,32 1100.9804,33.0125 1100.9688,34.25 1100.905,41.054803 1097.9335,81.604545 1097.0312,87.90625 1096.0525,94.740395 1096.2006,97.143229 1097.5312,95.8125 1098.7239,94.619991 1102.0675,67.658141 1102.5938,55.03125 1102.904,47.583109 1103.5772,40.375 1104.0938,39 1104.1319,38.89847 1104.2887,38.763911 1104.3438,38.65625 z M 1091.5938,33.875 C 1090.7299,34.680633 1089.9541,34.577604 1087.375,33.5 1084.0722,32.12 1083.8924,32.1727 1083.0312,34.4375 1082.5381,35.734471 1081.8409,38.422531 1081.4688,40.40625 1081.0965,42.389969 1080.3823,44 1079.9062,44 1079.4301,44 1078.2923,45.131315 1077.375,46.53125 1075.9673,48.679732 1075.9178,49.478052 1077,51.5 1078.9184,55.084562 1077.4924,61.66993 1073.9375,65.71875 1071.0042,69.05959 1070.982,69.165786 1072.6562,72 1074.0993,74.44289 1074.1853,75.61417 1073.25,79.6875 1072.3532,83.593091 1072.407,84.81119 1073.5625,86.09375 1075.647,88.407621 1075.3561,91 1073,91 1071.153,91 1070.5896,89.835749 1070.7188,86.25 1070.7433,85.568419 1070.3629,85.26096 1069.875,85.5625 1069.3871,85.86404 1069,87.433061 1069,89.03125 1069,92.210193 1071.7575,94.403399 1074.4375,93.375 1076.5608,92.560215 1077.5771,88.150258 1076.1562,85.875 1074.1056,82.591527 1075.1235,75 1077.625,75 1080.0505,75 1081.4518,70.510336 1080.0625,67.15625 1078.6855,63.8319 1079.57,55 1081.2812,55 1085.0192,55 1087.2182,48.896053 1084.8438,45.09375 1084.0331,43.795676 1083.9567,41.999343 1084.5938,39.1875 L 1085.5,35.125 1088.625,36.46875 1091.75,37.78125 1091.5938,33.875 z M 1081.625,47 C 1083.6535,47 1084.0707,47.440202 1083.8125,49.25 1083.4293,51.935436 1080.7935,52.679415 1079.0625,50.59375 1077.4023,48.593226 1078.5387,47 1081.625,47 z M 1076.3438,66.34375 C 1077.702,66.759903 1079.0651,68.642085 1078.8125,70.34375 1078.4483,72.79709 1076.8495,73.443333 1075.2188,71.8125 1073.7308,70.324526 1073.6179,67.342259 1075.0312,66.46875 1075.4284,66.223328 1075.891,66.205032 1076.3438,66.34375 z"/>
</svg>
