<?xml version="1.0" encoding="UTF-8"?>
<svg xmlns="http://www.w3.org/2000/svg" viewBox="195.86 32.71 29.15 72.41">
  <path d="M 221.1875,89.3125 C 220.50545,88.753545 220,88.109978 220,87.40625 220,82.299596 213.52446,77.063994 209,78.5 205.73356,79.536727 200.38983,84.631709 198.96875,88.0625 197.85508,90.751128 197.93392,91.453727 199.625,93.71875 203.7336,99.221774 213.32057,101.82687 217.03125,98.46875 217.80215,97.771098 218.37762,97.476026 219.25,97.5625 L 220.5,94.09375 C 220.42415,93.962697 220.21186,93.812628 220.1875,93.6875 220.04679,92.964617 220.24676,92.601421 221,92.46875 L 221.1875,89.3125 z M 209.9375,80.53125 C 211.42757,80.343803 212.76743,81.14431 214.25,82.90625 217.59881,86.886087 218.59899,92.43798 216.53125,95.59375 214.69162,98.401381 212.67589,98.614871 208.5,96.4375 201.30854,92.687769 200.18385,88.971332 204.75,84.09375 206.81752,81.885218 208.44743,80.718697 209.9375,80.53125 z M 212.71875,36 C 205.73677,36 200,41.352858 200,47.875 200,50.369914 200.77027,51.575056 203.78125,53.71875 L 207.59375,56.40625 203.8125,60.1875 C 199.71559,64.284414 198.12899,68.397698 199.6875,70.90625 200.2326,71.783623 202.18277,73.5125 204,74.75 206.1872,76.239442 208.78299,77 211.6875,77 215.94701,77 216.12416,76.855307 218.03125,72.40625 220.57613,66.469277 220.56761,61.823655 218,59.5 215.61015,57.337215 215.42841,56 217.53125,56 219.22838,56 223.00426,48.116432 222.96875,44.65625 222.92602,40.491228 217.60787,36 212.71875,36 z M 210.875,39.09375 C 213.29425,38.985279 215.77041,39.707904 217.53125,41.46875 218.88125,42.81875 220,44.560805 220,45.375 220,47.65976 218.01098,52.377211 216.6875,53.21875 215.34226,54.074128 212.23032,54.092808 210,53.28125 207.16019,52.247916 203,47.634702 203,45.5 203,41.75161 206.84291,39.274535 210.875,39.09375 z M 209.75,58.71875 C 211.07207,58.316296 212.22528,58.811907 213.78125,60.03125 215.27819,61.204329 216.76345,62.927016 217.09375,63.84375 217.92894,66.161777 216.16101,72.243672 214.21875,73.75 212.02825,75.448866 211.13701,75.339332 206.5,72.71875 201.37653,69.823247 200.81648,66.847983 204.65625,62.8125 206.92399,60.429174 208.42793,59.121204 209.75,58.71875 z"/>
</svg>
