<?xml version="1.0" encoding="UTF-8"?>
<svg xmlns="http://www.w3.org/2000/svg" viewBox="251.16 30.95 46.72 74.47">
  <path d="M 291.79538,44.434456 C 291.95784,43.298407 291.58844,41.048407 290.9745,39.434456 L 289.85824,36.5 287.00062,40 C 284.34115,43.257307 284.25556,43.624399 285.76633,45.29402 287.8717,47.620782 291.4119,47.116054 291.79538,44.434456 z M 287.63522,91.738519 C 289.81697,87.519468 289.71304,82.975231 287.40568,81.702973 286.35756,81.125045 284.0375,79.200451 282.25,77.426097 277.92136,73.129297 277.86289,69.134603 282.07673,65.588894 286.22035,62.102262 287.65956,62.321298 289.7059,66.75 L 291.43865,70.5 291.77729,65.672306 C 292.30303,58.177207 290.07811,56.564509 283.52391,59.689987 278.22395,62.217362 277.58843,60.903253 279.28043,50.915522 L 280.69504,42.565224 277.86781,39.540097 275.04058,36.514971 272.93954,38.616016 C 270.9053,40.650257 270.88876,40.886307 272.41925,46.040032 274.2125,52.078584 274.51284,60.565016 272.96709,61.520341 272.39899,61.871447 270.34826,61.223004 268.40993,60.079358 264.10752,57.540873 261.78386,57.452021 259.79659,59.75 257.5965,62.294077 255.89614,67.991987 256.8359,69.67126 257.45834,70.783498 258.29707,70.178822 260.45892,67.059273 262.00612,64.826673 264.03236,63 264.96169,63 267.66449,63 271.11941,67.4714 271.68715,71.704174 272.18154,75.390169 271.96052,75.794745 267.67272,79.052467 261.02858,84.100459 260.4633,85.959028 264.0614,90.926062 265.68453,93.166728 267.45972,95 268.00627,95 269.36869,95 269.25502,92.381216 267.79083,90.036672 266.81415,88.472753 266.9078,87.416563 268.27791,84.543397 269.78344,81.386282 275.04453,77.013877 277.35,77.003738 277.8175,77.001682 279.78757,78.587566 281.72792,80.527924 285.45521,84.255206 285.53309,84.922476 283.3587,94.5 282.73307,97.255692 282.81826,97.383777 284.40474,96.072833 285.35466,95.287891 286.80838,93.33745 287.63522,91.738519 z M 263.38535,43.343506 266.25026,40.687012 263.87513,39.445966 C 257.46476,36.096433 254.12407,38.207334 257.55311,43.440704 259.63372,46.61613 259.86004,46.612358 263.38535,43.343506 z M 280.34716,98.462294 C 280.02262,97.616556 280.51306,94.945101 281.43702,92.525727 282.92882,88.619521 282.95389,87.811508 281.66086,85.311072 280.86,83.762386 279.23235,81.615258 278.04384,80.539678 275.55325,78.285723 273.79343,78.96777 271.24773,83.173614 269.8526,85.47858 269.80741,86.386414 270.92002,89.757649 273.7886,98.449527 269.36808,100.81491 262.92115,94.037776 257.48303,88.321121 257.6949,85.887977 264.14737,79.955914 268.87221,75.612144 269.24062,74.953112 268.63549,71.927462 268.27291,70.114537 267.24995,67.828687 266.36226,66.847795 263.95762,64.1907 261.46966,66.069907 259.48625,72.041389 257.57897,77.783689 255.92382,78.027739 254.59526,72.762564 253.38702,67.974247 255.39589,60.952959 258.94772,57.550087 261.24465,55.349492 262.09418,55.085307 264.24456,55.902883 265.6532,56.438446 267.10099,57.354391 267.46188,57.938317 267.82276,58.522243 268.76648,59 269.55902,59 271.29854,59 271.49965,53.3392 269.9574,47.786133 268.5719,42.797469 267.60402,42.437506 263.66149,45.44462 258.79452,49.156839 256.53781,48.801391 254.62522,44.021342 253.43868,41.055895 253.28787,39.373038 254.03303,37.413127 254.93427,35.042683 255.38598,34.849829 258.61711,35.455992 260.58849,35.825825 263.691,36.838738 265.51157,37.70691 268.64697,39.202074 268.96551,39.17229 271.54571,37.142702 275.11226,34.337259 277.41162,34.436533 279.82134,37.5 282.19899,40.52269 283.14187,40.60571 285.5,38 287.5264,35.760848 290.98214,35.382138 292.8,37.2 294.27321,38.673209 294.36956,44.440946 292.96482,47.065741 291.59894,49.617898 287.939,49.523464 285.08264,46.862365 282.04262,44.030154 281.03563,45.614922 281.01531,53.26342 L 281,59.02684 284.73839,57.464843 C 289.473,55.486595 292.78365,56.30077 294.10171,59.767524 295.76479,64.141749 293.15619,74 290.33565,74 289.58853,74 288.45814,72.002758 287.78876,69.5 287.1268,67.025 286.31338,65 285.98116,65 285.64894,65 284.37316,65.935334 283.14609,67.078519 280.10143,69.915052 281.02636,72.471236 287.09789,78 292.7233,83.122524 293.17503,85.305388 289.89468,91.514809 285.97274,98.938706 281.71803,102.03474 280.34716,98.462294 z"/>
</svg>
