<?xml version="1.0" encoding="UTF-8"?>
<svg xmlns="http://www.w3.org/2000/svg" viewBox="290.42 25.29 64.94 78.68">
  <path d="M 343.4427,94.581761 C 342.37595,93.80173 341.77753,92.889139 342.11288,92.553783 342.98279,91.683881 348,93.747542 348,94.975249 348,96.43831 345.71145,96.240711 343.4427,94.581761 z M 342,38.5 C 340.24091,36.627534 340.03274,36 341.1707,36 342.65626,36 346,38.997162 346,40.328741 346,41.709431 344.27362,40.920153 342,38.5 z M 327.12076,89.897879 C 325.87976,88.741712 325.04833,87.279212 325.27313,86.647879 329.63092,74.409394 329.48341,75.398412 327.58045,71.178409 325.57365,66.728123 325.74352,64.190718 328.14966,62.67559 329.39345,61.892386 331.34323,62.329677 336.07456,64.452971 343.22673,67.662676 344.80751,67.283244 346.69356,61.904104 348.12182,57.830598 348.38232,41.135765 347.07141,37.687818 346.54677,36.307918 344.69794,34.687099 342.82141,33.961957 339.88887,32.828747 339.75739,32.631408 341.69842,32.276448 344.78622,31.711774 347.68296,33.515395 349.7339,37.279644 352.40814,42.187878 351.87658,56.688051 348.79786,62.813474 345.50493,69.365096 344.14201,69.897097 337.79407,67.108712 330.17945,63.763932 328,63.40054 328,65.475694 328,66.41556 328.9,68.328706 330,69.727129 331.1,71.125553 332,73.092372 332,74.097838 332,75.103305 331.1,78.209278 330,81 327.53485,87.25414 327.53099,87.678623 329.92754,88.961223 331.45546,89.778939 332.45329,89.489465 334.74039,87.564996 337.18658,85.506657 338.56688,85.164786 343.81022,85.318589 350.46138,85.513688 351.51182,86.354047 347.42951,88.21407 345.47452,89.104826 344.12304,89.107459 341.78532,88.225069 339.05109,87.193012 338.38773,87.337405 335.77908,89.532437 332.19168,92.551037 330.06494,92.6408 327.12076,89.897879 z M 333.4896,58.689597 C 331.66888,56.868876 329.67665,53.512876 329.06242,51.231819 328.4482,48.950763 327.50788,46.813886 326.97283,46.483205 325.32391,45.464117 325.8961,44 327.9433,44 329.94417,44 333,40.541823 333,38.277494 333,36.434263 331.69675,36.702219 329.15799,39.067437 325.85761,42.142207 323.65446,41.189809 322.60957,36.236623 322.11802,33.90648 321.30932,32 320.81246,32 320.31561,32 318.77549,33.133605 317.38997,34.519123 313.83594,38.07315 314.38276,42.29888 318.48779,43.002958 322.04721,43.613455 322.72086,45.785733 320.98339,51.050335 319.67611,55.011438 314.19976,59 310.06839,59 303.93178,59 300.90531,49.752232 305.15903,43.998775 307.60614,40.688872 309.83929,40.963661 307.51072,44.288151 305.76195,46.784877 305.54341,51.278331 307.03518,54.065741 307.7483,55.398217 309.1325,56 311.48429,56 314.18051,56 315.43449,55.296908 317.44911,52.655609 319.8616,49.492666 320.88421,45.098245 319.25,44.916667 318.8375,44.870833 317.47153,44.71986 316.2145,44.581171 310.7399,43.977148 310.88189,38.918114 316.53202,33.267977 320.9346,28.865402 324.04784,29.101051 325.6169,33.955635 326.9836,38.184114 328.09527,38.657199 330.47798,36.024331 331.48558,34.910949 333.19648,34 334.27999,34 335.96468,34 336.15691,34.465457 335.60724,37.213823 335.25371,38.981426 333.81365,41.628847 332.40709,43.096981 329.99283,45.616917 329.91926,45.998477 331.09252,49.914459 333.62398,58.363721 340.77337,61.957479 342.90217,55.850777 344.87167,50.20109 344.32359,47.218694 341,45.5 337.19178,43.530692 337.23163,43.195479 341.25,43.397114 345.94724,43.632814 347.59295,47.35984 345.976,54.100062 343.88226,62.827748 339.30879,64.508786 333.4896,58.689597 z M 304.45956,36.509162 C 306.52866,34.887175 308.17953,34.894345 308.10609,36.525 308.08194,37.06125 306.81069,37.622688 305.28109,37.772641 302.60719,38.034773 302.57552,37.986077 304.45956,36.509162 z M 303.38953,65.234687 C 302.77878,64.830609 301.46587,62.925 300.47197,61 299.02088,58.189509 298.70199,55.431472 298.85325,47 298.95685,41.225 299.2659,35.780791 299.54003,34.901757 300.01251,33.386681 303.99281,31 306.04705,31 307.86912,31 306.98524,32.685697 304.59122,33.776482 302.46473,34.745377 302.09957,35.758403 301.47525,42.420811 300.56538,52.130488 301.52948,58.341729 304.47841,61.768737 306.62884,64.267804 307.09097,64.401117 309.91432,63.336864 313.62134,61.939517 314.07009,63.191406 310.45295,64.839485 307.55085,66.161769 305.00601,66.304154 303.38953,65.234687 z M 307.02997,97.784864 C 304.78245,96.67288 302.4504,94.803883 301.84763,93.631537 301.24486,92.459192 299.49208,90.481906 297.95257,89.237568 294.54559,86.483823 293.37533,81.922293 295.04297,77.896262 296.37787,74.673534 298.28569,74.516795 298.85761,77.582866 299.05429,78.63729 299.70562,80.103135 300.305,80.8403 301.19973,81.940719 301.62791,81.861767 302.69739,80.39917 303.41382,79.419384 304,77.830307 304,76.867887 304,75.905468 304.48921,74.815686 305.08713,74.446149 307.16969,73.159055 308.42518,76.066406 308.46247,82.262466 308.49871,88.285497 308.58447,88.490551 310.95629,88.225239 314.30698,87.850429 314.96685,86.455635 314.98469,79.710162 314.99491,75.844998 315.69123,72.565406 317.07936,69.844436 319.38419,65.326611 319.03389,61.443786 316.24932,60.643854 315.28719,60.367462 315.85,60.222025 317.5,60.320661 320.35652,60.491423 320.49134,60.699252 320.31898,64.666259 320.21943,66.957701 319.43193,70.197855 318.56898,71.866599 317.64695,73.649611 317,77.414878 317,80.998089 317,86.30721 316.65792,87.412531 314.35398,89.547749 311.1516,92.515613 310.94199,92.528808 307.68582,89.967507 305.345,88.126215 305.15727,87.467713 305.69025,82.967507 306.32964,77.568923 305.53114,76.472809 303.96321,80.596768 303.4202,82.024991 302.08134,83.427475 300.98796,83.7134 299.89458,83.999324 299.00788,84.518279 299.01751,84.866631 299.02714,85.214984 301.20954,87.836959 303.86727,90.693241 309.71505,96.977866 312.60758,97.927705 317.74449,95.250197 321.21823,93.439585 321.75632,93.405899 324.72754,94.813042 327.51594,96.133604 328.50235,96.154329 332.0973,94.967888 335.94654,93.697524 336.53088,93.761037 340.14832,95.842972 342.29362,97.077649 344.54624,97.780436 345.15416,97.404723 345.81222,96.998018 346.07412,97.28372 345.8014,98.110804 345.04922,100.39201 340.93208,100.3259 337.7614,97.981715 334.84384,95.824673 334.73007,95.817971 330.83637,97.573787 327.05145,99.280549 326.74656,99.281503 323.89242,97.595523 321.87247,96.402307 320.51803,96.148987 319.70361,96.812091 319.04162,97.351076 316.83868,98.245347 314.80818,98.799359 311.75452,99.632538 310.41001,99.457177 307.02997,97.784864 z"/>
</svg>
