<?xml version="1.0" encoding="UTF-8"?>
<svg xmlns="http://www.w3.org/2000/svg" viewBox="990.43 29.91 26.57 71.05">
  <path d="M 1015,79.75 C 1014.8957,79.618302 1014.6527,79.559819 1014.5938,79.40625 1014.2599,78.536266 1013.9861,73.023766 1013.9688,67.15625 1013.9377,56.686019 1011.8736,37.183865 1010.5625,35.0625 1009.3721,33.136276 1005.5953,34.076018 1001,37.40625 995.18523,41.620265 994.87472,43.933581 999.40625,49.75 1001.3745,52.276449 1003,54.626355 1003,55 1003,55.373644 1000.75,57.587416 998,59.90625 995.25,62.225084 993,64.940287 993,65.9375 993,66.934712 995.03472,69.636281 997.53125,71.9375 L 1002.0938,76.125 999.09375,79.875 C 992.43459,88.282872 992.68802,90.228208 1000.9375,94.5625 1006.9653,97.729551 1009.0971,97.347677 1011.3438,92.75 1012.3516,90.6875 1013.5201,89 1013.9688,89 1014.0036,89 1014.3183,89.174394 1014.375,89.1875 L 1014.3438,88.875 1014.625,85.21875 C 1014.5335,85.073203 1014.2439,84.874523 1014.2188,84.75 1014.1198,84.260847 1014.2824,83.959816 1014.7188,83.78125 L 1015,79.75 z M 1005.2812,37.75 C 1005.8355,37.624654 1005.9478,37.987682 1005.9062,38.75 1005.8535,39.720303 1005.2909,42.688278 1004.6562,45.34375 L 1003.5,50.15625 1000.75,47.28125 C 999.2375,45.695681 998,43.928068 998,43.34375 998,42.759433 999.8,41.080891 1002,39.625 1003.7285,38.481182 1004.727,37.875346 1005.2812,37.75 z M 1003,59.9375 1003,65.96875 C 1003,69.282874 1002.6346,72 1002.1875,72 1001.7404,72 1000.1118,70.679666 998.5625,69.0625 995.2846,65.641104 995.6148,63.766607 999.9375,61.53125 L 1003,59.9375 z M 1003.25,81 C 1003.6681,81 1004,82.233869 1004,83.75 1004,85.266131 1004.4259,87.966131 1004.9375,89.75 1005.7248,92.495124 1005.6096,93.002637 1004.1875,92.96875 1001.2006,92.897575 997,89.988575 997,88 997,86.173761 1001.6241,81 1003.25,81 z M 1008.7812,40.53125 C 1009.0492,40.805967 1009.2844,41.742173 1009.6562,43.53125 1010.1101,45.715151 1010.4937,57.027734 1010.5,68.6875 1010.508,83.560759 1010.1651,90.240903 1009.3438,91.0625 1007.3854,93.021583 1006.4894,84.235062 1006.5312,63 1006.5558,50.460138 1006.9641,42.798567 1007.6875,41.53125 1008.1943,40.643306 1008.5133,40.256533 1008.7812,40.53125 z"/>
</svg>
