<?xml version="1.0" encoding="UTF-8"?>
<svg xmlns="http://www.w3.org/2000/svg" viewBox="1382.53 28.91 25.97 70.28">
  <path d="M 1384.9688,79.21875 1384.5312,83.71875 C 1385.3546,84.385332 1386.0789,85.599423 1387.125,88.03125 1389.291,93.066168 1392.1396,96 1394.9062,96 1395.9236,96 1395.5998,95.160381 1393.8125,93.25 1387.3765,86.371094 1387.0486,81.931249 1392.0938,69 L 1395.0312,61.5 1391.7812,55.5 C 1388.8927,50.138126 1388.5777,48.62615 1388.5625,41.25 1388.5531,36.7125 1388.212,33 1387.8125,33 1386.3583,33 1384.8452,41.460093 1385.5,45.9375 1385.8676,48.451606 1387.4484,52.899727 1389.0312,55.84375 1391.8735,61.130781 1391.9072,61.24367 1390.2188,64.8125 1389.7015,65.905784 1389.0458,66.706494 1388.375,67.4375 L 1386.7812,72.21875 C 1387.1157,72.369988 1386.9924,72.954283 1386.6875,74.09375 1386.3316,75.424018 1386.0075,77.050601 1386,77.71875 1385.995,78.161784 1385.5474,78.698113 1384.9688,79.21875 z M 1404.4688,63.375 C 1404.2104,62.731722 1404.3502,62.243522 1404.8125,61.78125 1406.4969,60.096865 1406.2888,57.364166 1404.25,54.25 1402.8856,52.16586 1402.5,49.419185 1402.5,41.8125 1402.5,33.140158 1402.3334,32.228924 1401,33.5625 1398.7643,35.798555 1398.9354,50.404423 1401.25,54.90625 1403.5316,59.343756 1403.5522,59.164737 1399.5625,65.25 1397.4483,68.474776 1395.688,72.839121 1394.9688,76.59375 1393.9051,82.145582 1393.9831,83.036305 1395.875,86.59375 1398.0519,90.68731 1401.4017,95 1402.4062,95 1403.6481,95 1402.8917,92.903499 1400,88.34375 1397.9239,85.070045 1396.9894,82.368185 1397,79.5625 1397.0122,76.343826 1397.359,74.631952 1398.125,74.09375 L 1400.3438,70.0625 C 1399.9397,68.967691 1400.2367,68.075021 1401.3438,67.15625 1401.6155,66.930767 1401.8662,66.781982 1402.1562,66.75 L 1403.9688,63.4375 1404.4688,63.375 z M 1395.5938,32.21875 C 1395.0425,32.107622 1393.7238,34.315176 1392.4688,38.09375 1390.5692,43.812901 1390.9983,49.080368 1393.75,53.875 1396.2553,58.240274 1397.2974,56.206201 1395.4062,50.65625 1393.8655,46.134502 1393.8781,43.362388 1395.5625,35.09375 1395.9532,33.175717 1395.9245,32.285427 1395.5938,32.21875 z"/>
</svg>
