<?xml version="1.0" encoding="UTF-8"?>
<svg xmlns="http://www.w3.org/2000/svg" viewBox="495.44 19.23 39.21 76.59">
  <path d="M 500.8125 83.90625 L 497.4375 85.71875 L 497.9375 86.4375 C 498.82227 86.395725 500.7536 86.858241 503.125 87.84375 C 513.94534 92.340482 516.08548 90.71794 521.03125 74.28125 L 522.28125 70.0625 L 525.1875 72.125 C 526.77574 73.255921 528.71091 73.927802 529.5 73.625 C 532.64952 72.416415 532.26479 68.191297 528 56.8125 C 523.84348 45.722589 523.81408 45.477516 524.4375 36.03125 C 525.12823 25.565177 524.34442 22.714851 521.28125 24.59375 C 518.38625 26.369493 514.86293 33.664119 514.0625 39.5625 C 513.65219 42.58608 513.79232 49.195145 514.34375 54.28125 C 515.25095 62.648963 515.13385 64.239172 513.15625 70.75 C 511.95421 74.707445 510.69844 78.625864 510.375 79.46875 C 510.02403 80.383346 510.34641 81.006552 511.15625 81 C 511.99679 80.993199 513.61618 77.342349 515.4375 71.40625 C 518.28115 62.138191 518.34486 61.510559 517.28125 52.65625 C 516.67636 47.620672 516.52972 41.25 516.9375 38.5 C 517.80988 32.616749 520.44418 26 521.9375 26 C 523.29594 26 523.29283 29.733245 521.875 37.875 C 520.55644 45.44677 521.48614 50.543723 526.125 60.875 C 527.70263 64.388574 529 68.101074 529 69.125 C 529 71.385438 526.73127 71.561201 524.96875 69.4375 C 523.22655 67.33828 519.59563 68.013971 519.21875 70.5 C 519.052 71.6 517.77418 75.753137 516.375 79.71875 C 513.38961 88.180067 511.99545 88.977218 505.40625 86.0625 L 500.75 84 L 500.8125 83.90625 z "/>
</svg>
