<?xml version="1.0" encoding="UTF-8"?>
<svg xmlns="http://www.w3.org/2000/svg" viewBox="470.89 18.25 42.36 82.5">
  <path d="M 500.8125 83.90625 L 503.40625 80.5625 C 507.14501 75.660726 507.8578 69.121204 505.15625 64.75 C 504.00468 62.886715 502.149 60.542806 501.03125 59.53125 C 499.33959 58.000323 499 56.457667 499 50.34375 C 499 45.066182 499.36717 43 500.28125 43 C 500.98093 43 503.22028 41.641816 505.25 39.96875 C 509.6311 36.357478 511.25173 30.814229 508.6875 28.25 C 507.25284 26.815343 506.70085 27.015177 502.5625 30.40625 C 497.95919 34.178311 496 34.368833 496 31.0625 C 496 27.763858 493.01423 22 491.3125 22 C 488.37826 22 481.23753 26.875032 479.09375 30.34375 C 477.85473 32.348527 477 35.40922 477 37.875 C 477 43.131082 480.08729 45.099563 485.375 43.1875 C 487.17438 42.536837 488.93905 42 489.3125 42 C 489.68595 42 490 44.475 490 47.5 L 490 53 L 485.9375 53 C 480.49029 53 478.56173 54.200168 475.4375 59.53125 C 473.10583 63.509956 472.89351 64.575057 473.65625 68.75 C 474.80099 75.015865 477.4033 75.691287 479.625 70.3125 C 481.41057 65.98957 483.78126 62.992629 485.40625 63 C 487.67402 63.010287 492.01519 67.620924 492.59375 70.625 C 493.1446 73.485198 492.72993 74.114479 487.6875 78.125 C 480.50349 83.838839 479.78238 85.461929 481.71875 91.34375 C 482.56023 93.899788 483.86519 96 484.625 96 C 486.34824 96 486.31731 94.586022 484.46875 89.5 C 483.04456 85.581555 483.0583 85.460216 485.75 83.15625 C 494.24733 75.882961 496 73.767982 496 70.84375 C 496 66.516088 494.44616 64.269536 489.875 61.9375 C 486.21612 60.07088 485.61373 60.030983 483.5625 61.375 C 482.3144 62.192786 480.53282 64.458543 479.59375 66.4375 C 478.65467 68.416456 477.45563 69.788976 476.9375 69.46875 C 475.49805 68.579121 475.81322 63.261873 477.5 60 C 479.09955 56.906804 483.7596 55.112026 489.5 55.375 L 492.5 55.5 L 492.78125 49 C 493.14701 40.799197 491.52725 37.853478 487.75 39.875 C 486.4018 40.596536 484.22583 41.03026 482.90625 40.84375 C 480.93254 40.564786 480.44199 39.852329 480.1875 36.78125 C 479.80629 32.181086 482.10535 28.67508 487.28125 25.9375 C 490.11432 24.439066 491.13114 24.256499 491.40625 25.21875 C 491.60759 25.922963 492.25966 28.352745 492.875 30.625 C 494.80376 37.747241 496.88036 37.790701 504.84375 30.90625 C 506.96955 29.06847 508.40214 31.293566 507.28125 34.65625 C 506.70017 36.399479 504.67584 38.435748 501.9375 40.03125 L 497.5 42.625 L 496.59375 50.4375 C 495.73685 57.735444 495.81302 58.351967 497.75 59.875 C 500.81415 62.28431 503.99574 68.116737 504 71.3125 C 504.005 75.052578 501.89679 78.806964 497.5625 82.84375 C 493.55286 86.578167 493.25089 88.35912 495.6875 93.46875 C 496.61437 95.41241 498.02522 97 498.8125 97 C 500.31936 97 500.16313 95.975487 497.875 90.28125 C 497.16516 88.514741 496.90655 86.780953 497.28125 86.40625 C 497.34267 86.344832 497.76405 86.44569 497.9375 86.4375 L 497.4375 85.71875 L 500.8125 83.90625 z M 489.28125 89 C 489.02982 88.863747 488.80379 88.867914 488.625 89.0625 C 488.40602 89.300833 488.44652 90.9625 488.71875 92.75 C 489.02283 94.746565 489.80038 96 490.71875 96 C 491.84754 96 492.04408 95.326497 491.53125 93.25 C 491.01095 91.143281 490.03554 89.408758 489.28125 89 z "/>
</svg>
