<?xml version="1.0" encoding="UTF-8"?>
<svg xmlns="http://www.w3.org/2000/svg" viewBox="1112.72 34.74 35.99 68.5">
  <path d="M 1114.7188 38.8125 L 1118.3125 52.96875 L 1121.3438 53.53125 C 1124.0443 54.037872 1125.2686 53.661922 1127.875 51.46875 C 1129.6423 49.981735 1131.3854 49.041702 1131.75 49.40625 C 1132.1145 49.770799 1132.5911 52.929927 1132.8125 56.40625 C 1133.168 61.989354 1132.8822 63.196639 1130.4688 66.84375 C 1128.1083 70.410465 1127.825 71.720465 1128.2188 76.46875 C 1128.4696 79.491915 1129.3666 82.778976 1130.2188 83.75 C 1131.2575 84.933445 1131.4807 86.159363 1130.9375 87.5 C 1129.4017 91.291025 1129.9144 94.823421 1132.2188 96.4375 C 1137.4756 100.11956 1141.6019 96.243785 1140.4688 88.6875 C 1139.9016 84.90566 1140.1951 83.638611 1142.4375 80.25 C 1146.4047 74.255206 1146.7048 70.194049 1143.6562 63.75 C 1141.5879 59.378075 1141.1132 56.940947 1141.2188 51.25 C 1141.3598 43.637123 1139.7562 39.703582 1136.0625 38.53125 C 1133.9196 37.851106 1129.1477 39.925069 1127.0625 42.4375 C 1124.9662 44.963469 1122.3542 44.282886 1115.7812 39.5 C 1115.4134 39.232327 1115.0877 39.067653 1114.7188 38.8125 z M 1134.7188 40.625 C 1137.7623 41.420899 1138.9192 45.068477 1138.875 53.53125 C 1138.8489 58.523697 1139.3317 61.863213 1140.2812 63.3125 C 1143.9136 68.856029 1143.514 76.032222 1139.2812 81.0625 C 1137.0774 83.681636 1136.8291 84.704941 1137.375 88.6875 C 1137.7654 91.535979 1137.5709 93.817757 1136.875 94.65625 C 1135.4297 96.397668 1134.5383 96.353487 1133 94.5 C 1132.0533 93.359328 1132.0276 91.996686 1132.8438 88.78125 C 1133.7303 85.288504 1133.6407 84.24548 1132.3438 82.8125 C 1131.4807 81.858847 1130.5331 79.011866 1130.25 76.5 C 1129.8154 72.644117 1130.2139 71.204711 1132.75 67.125 C 1135.5822 62.568801 1135.7029 61.961234 1134.875 56.40625 C 1133.9253 50.034628 1132.5195 46 1131.25 46 C 1130.8108 46 1128.9628 47.35 1127.1562 49 C 1125.3497 50.65 1123.7152 52 1123.5 52 C 1121.6535 52 1118.0533 49.33767 1117.5938 47.625 C 1116.7087 44.327005 1116.8792 43.504201 1118.1875 44.8125 C 1119.5194 46.14444 1125.6324 46.454277 1126.1562 45.21875 C 1126.9815 43.272271 1132.8322 40.13166 1134.7188 40.625 z "/>
</svg>
