<?xml version="1.0" encoding="UTF-8"?>
<svg xmlns="http://www.w3.org/2000/svg" viewBox="1252.12 28.81 39.94 70.17">
  <path d="M 1288.9062,64.5 C 1288.5656,64.671678 1288.1081,65 1287.9062,65 1286.3964,65 1280,56.527467 1280,54.53125 1280,54.102195 1281.8,51.95 1284,49.75 1287.0619,46.688146 1288,44.981392 1288,42.4375 1288,37.769106 1286.4936,37.376184 1282.4375,40.9375 1280.5098,42.630088 1278.3146,44 1277.5625,44 1275.9658,44 1274,38.943929 1274,34.84375 1274,33.275823 1273.5406,32 1272.9688,32 1270.9724,32 1264.4791,35.908337 1260.875,39.28125 1254.1179,45.604907 1255.0305,50 1263.125,50 1265.8688,50 1267.2992,50.593547 1268.4375,52.21875 1270.8792,55.704805 1270.3311,57.743724 1265.5312,62.875 1259.8037,68.99834 1257.0592,75.080327 1257.0312,81.6875 1257.0023,88.559982 1258.2704,91.598913 1262.2188,94 1264.018,95.09426 1266.1732,95.787866 1267,95.5625 1272.0266,94.192462 1273,93.784155 1273,92.96875 1273,92.469938 1274.258,91.412724 1275.7812,90.625 1278.1864,89.381307 1278.9958,89.375034 1281.9688,90.625 1286.2844,92.439671 1289.512,91.608228 1286.5625,89.4375 1283.7471,87.365519 1277.707,87.649387 1274.7188,90 1270.5642,93.267908 1267.8203,93.927773 1264.7812,92.375 1260.9928,90.43922 1260,88.094597 1260,81.03125 1260,73.55284 1261.5236,70.317629 1268.6875,62.75 1273.0823,58.107501 1274.0206,56.569657 1273.4688,54.75 1272.2287,50.661101 1268.9042,48.016452 1265.0625,48 1259.2855,47.97526 1258.3277,46.799554 1260.7812,42.84375 1262.507,40.061355 1267.8378,36.136527 1270.5625,35.625 1270.9372,35.554637 1271.3789,37.171837 1271.5625,39.21875 1272.2786,47.198793 1276.2006,49.222113 1281.8125,44.5 1285.1785,41.667744 1286,41.435607 1286,43.3125 1286,44.861434 1280.8597,50 1279.3125,50 1278.7238,50 1277.9886,51.370621 1277.6562,53.03125 1277.1929,55.348891 1277.7786,57.266172 1280.2188,61.28125 1283.6839,66.983326 1284.6885,67.976846 1287.0625,68 1287.5117,68.004381 1288.3234,67.586541 1289.1875,67.0625 L 1288.9062,64.5 z M 1289.7812,72.375 C 1286.7508,73.558805 1283.7305,72.955335 1280.8125,70.5 1279.1784,69.125 1276.6865,68 1275.2812,68 1272.0026,68 1266.4872,73.751412 1265.625,78.0625 1264.6477,82.948655 1264.8818,88.801524 1266.0625,89.53125 1267.7875,90.597346 1271.4135,89.253819 1275.4688,86.03125 1279.2588,83.019251 1283.3258,82.100127 1284.5,84 1285.264,85.236247 1289,85.341902 1289,84.125 1289,83.637668 1287.3699,82.446644 1285.375,81.5 L 1281.75,79.78125 1275.9062,83.90625 C 1272.703,86.165225 1269.5584,88 1268.9062,88 1268.0588,88 1267.8731,86.132601 1268.25,81.4375 1268.6504,76.44874 1269.3279,74.283846 1271.0625,72.4375 1274.0789,69.226625 1276.5156,69.364499 1280.6562,73 1282.5355,74.65 1285.0956,76 1286.3438,76 1287.3461,76 1288.65,75.534033 1290.0625,74.84375 L 1289.7812,72.375 z"/>
</svg>
