<?xml version="1.0" encoding="UTF-8"?>
<svg xmlns="http://www.w3.org/2000/svg" viewBox="1060.17 31.74 31.94 70.18">
  <path d="M 1081.7852,93.018865 C 1079.2095,90.434443 1079.0815,89.852733 1079.2852,81.660369 1079.5206,72.195993 1080.3767,70.890255 1084.5524,73.626288 1087.7873,75.74589 1087.6347,74.467639 1084,69 1080.6012,63.887174 1080.4252,62.619938 1082.4433,57.789962 1084.3198,53.298929 1085.6646,43.471249 1084.286,44.323219 1083.7296,44.667111 1082.7104,46.962544 1082.0212,49.424181 1080.4695,54.96653 1077.614,57.869267 1075.1915,56.367069 1073.0712,55.052305 1070.1117,49.230992 1070.048,46.25 1070.0216,45.0125 1069.4938,44 1068.875,44 1067.492,44 1068.1838,47.989223 1071.1641,57.199989 L 1073.332,63.899978 1070.416,68.096877 C 1068.8122,70.405171 1067.0601,72.890291 1066.5225,73.619364 1065.8724,74.500946 1065.9226,75.322617 1066.6725,76.072476 1067.5092,76.909175 1068.3417,76.658341 1069.9,75.1 1072.584,72.415956 1073.6195,72.450706 1074.3697,75.25 1075.815,80.643018 1075.0286,87.572619 1072.5975,90.86791 1071.2761,92.658969 1069.9405,93.71269 1069.6295,93.209512 1069.3185,92.706335 1069.7103,91.440849 1070.5002,90.397322 1071.3578,89.264366 1071.9492,86.14042 1071.9682,82.643011 1071.9964,77.442754 1071.8038,76.86924 1070.25,77.528193 1067.0655,78.878735 1064.8064,78.525922 1063.4121,76.460298 1062.165,74.612763 1062.4105,73.966563 1066.0177,69.601414 1070.4549,64.231734 1070.6828,63.220974 1068.4355,58.875327 1067.5751,57.211382 1066.6446,52.846229 1066.3678,49.174987 1065.9477,43.603768 1066.204,41.962584 1067.9175,39.25 1070.647,34.929296 1072,35.148372 1072,39.911016 1072,43.866992 1075.6795,55 1076.9869,55 1077.6145,55 1079.3007,51.445784 1082.1093,44.202947 1082.5992,42.939568 1083,41.053625 1083,40.011964 1083,36.574676 1085.0162,36.794537 1086.521,40.395913 1088.5284,45.200293 1088.3822,48.932034 1085.8988,56.281545 L 1083.7975,62.5 1087.1488,68.916474 C 1089.3885,73.20475 1090.104,75.464999 1089.3062,75.731081 1088.6496,75.950055 1088.3602,76.775142 1088.6632,77.564608 1089.4649,79.653773 1087.6005,79.32099 1085.5,77 1084.5045,75.9 1083.3098,75 1082.845,75 1082.3803,75 1082,78.296559 1082,82.325686 1082,88.8224 1082.2794,89.913865 1084.4692,91.971046 1085.8272,93.246866 1086.7007,94.675308 1086.4102,95.14536 1085.6255,96.415032 1084.7847,96.028461 1081.7852,93.018865 z M 1079.4487,95.943357 C 1078.1278,94.483733 1076.8491,94.052754 1075.0438,94.458696 1072.6074,95.006528 1072.582,94.966699 1074.4411,93.515339 1075.5088,92.681902 1076.9678,92 1077.6835,92 1079.1786,92 1084,95.954139 1084,97.180335 1084,98.729459 1081.308,97.997802 1079.4487,95.943357 z"/>
</svg>
