<?xml version="1.0" encoding="UTF-8"?>
<svg xmlns="http://www.w3.org/2000/svg" viewBox="1056.57 22.7 22.19 75.39">
  <path d="M 1059.2824,92.25 C 1064.6194,74.137516 1065.3446,70.150605 1065.4212,58.5 1065.4645,51.9 1065.2955,42.789475 1065.0456,38.25439 1064.4605,27.636657 1065.5977,26.13106 1070.5,31.033333 1075.5512,36.084594 1076.7553,42.994919 1075.0081,56.905843 1073.6985,67.333394 1073.4793,84.863798 1074.5912,90.25 1075.0571,92.506592 1074.8078,93 1073.2019,93 1072.1255,93 1070.6847,92.325 1070,91.5 1068.2765,89.423304 1065.649,89.625422 1063.5,92 1061.2282,94.510275 1058.5699,94.667846 1059.2824,92.25 z M 1070.9118,77.55 C 1070.8413,72.0225 1071.3064,63.225 1071.9454,58 1073.4525,45.677002 1072.5864,37.741975 1069.3457,34.182508 L 1066.9034,31.5 1067.6464,39 C 1068.896,51.613099 1068.1534,69.264559 1065.9812,78.580476 1064.8916,83.253812 1064,87.195024 1064,87.338725 1064,87.482426 1065.584,87.6 1067.52,87.6 L 1071.04,87.6 1070.9118,77.55 z"/>
</svg>
