<?xml version="1.0" encoding="UTF-8"?>
<svg xmlns="http://www.w3.org/2000/svg" viewBox="1397.2 17.55 58.95 82.34">
  <path d="M 1453.4688,56.375 C 1453.2116,56.797853 1452.9121,57.121019 1452.5,57.4375 1448.366,60.612385 1446.0523,60.487514 1443.0625,56.90625 1440.6064,53.964223 1439.9785,53.713831 1437.875,54.65625 1435.5595,55.693619 1435.4514,55.511406 1434.1875,49.59375 1431.6139,37.543599 1431.6099,37.276958 1433.9375,36.03125 1435.8004,35.034278 1436.4913,35.303271 1439.1562,38.15625 L 1442.2188,41.4375 1444.125,39.125 C 1446.4302,36.278139 1446.5773,30.273685 1444.4375,27.21875 1443.2447,25.515829 1441.9076,25 1438.6562,25 1436.3225,25 1433.9346,25.471652 1433.375,26.03125 1432.8155,26.590849 1430.9444,27.442559 1429.2188,27.9375 1426.3655,28.755768 1425.8525,28.513623 1423.375,25.40625 1420.2071,21.432978 1419.312,21.289971 1414.7188,24 1410.1021,26.723856 1407.7439,31.372255 1408.1562,37 1408.4523,41.039895 1408.7783,41.534183 1411.1875,41.8125 1412.6635,41.983009 1415.2158,41.420509 1416.875,40.5625 1418.5342,39.704492 1420.3432,39 1420.875,39 1421.9961,39 1424.0224,47.625111 1424,52.3125 1423.9726,58.037926 1422.8669,58.460382 1417.25,54.96875 1414.4655,53.237755 1411.3578,51.963216 1410.3438,52.15625 1409.3299,52.349284 1407.2051,54.931838 1405.625,57.875 1400.7718,66.915232 1399.8813,85.529582 1404.0312,91.03125 1406.4073,94.181252 1408.5981,92.431579 1408.8125,87.25 1408.8982,85.179764 1409.6593,80.35 1410.5,76.5 1411.3408,72.65 1412.3375,68.19177 1412.6875,66.59375 1413.7054,61.945132 1411.3813,64.337319 1409.625,69.75 1408.7794,72.356031 1407.5481,77.613104 1406.9062,81.40625 1405.9927,86.803635 1405.5189,87.905298 1404.75,86.53125 1403.3875,84.096608 1404.7392,66.587175 1406.7188,61 1409.3643,53.533489 1409.9915,53.267339 1416.4062,56.9375 1423.4968,60.994298 1425.6426,60.489266 1426.5312,54.5625 1427.3053,49.400496 1425.501,39.650058 1423.4375,37.9375 1422.2684,36.967262 1421.1555,37.091149 1418.0312,38.5 1412.5305,40.980494 1411,40.089381 1411,34.4375 1411,30.565039 1411.5107,29.321271 1414.0625,26.9375 1416.7154,24.459408 1419.9485,23.86702 1420.0312,25.84375 1420.046,26.197406 1421.2876,28.005511 1422.8125,29.84375 L 1425.5938,33.1875 1430.8438,30.09375 C 1436.5861,26.707966 1441.4435,26.084868 1442.4062,28.59375 1443.1863,30.626291 1443.1826,37 1442.4062,37 1442.0805,37 1440.6607,36.078384 1439.25,34.96875 1433.5634,30.495673 1426.4496,37.393301 1429.9688,43.96875 1430.5099,44.980152 1431.2623,49.00381 1431.625,52.90625 1431.9876,56.80869 1432.6142,60 1433,60 1433.3858,60 1434.5045,59.1 1435.5,58 1437.9893,55.249324 1438.8049,55.449164 1442.4688,59.6875 L 1445.6562,63.375 1449.1875,61.1875 C 1451.4122,59.812515 1452.6371,59.123744 1453.2812,59.15625 L 1453.4688,56.375 z M 1452.9375,64.59375 C 1452.022,65.868204 1450.53,66.972575 1448.125,67.96875 1445.3302,69.126382 1444.7717,69.009853 1441.9375,66.625 1440.2311,65.189158 1438.4485,64 1437.9688,64 1436.594,64 1432.2525,70.141371 1429.9375,75.375 L 1427.8438,80.15625 1430.4062,83.875 C 1434.1176,89.23036 1433.6964,90.772342 1429.4062,87.5 L 1425.8125,84.75 1422.0312,88.46875 C 1419.7255,90.720166 1417.964,91.774621 1417.5625,91.125 1416.7122,89.749254 1418.1359,87.121457 1421.4062,84.0625 1424.4364,81.22812 1424.6175,79.151258 1422.3438,72.4375 1420.4195,66.755636 1417.2127,62 1415.3125,62 1413.596,62 1413.6481,62.263805 1416,66.25 1417.0951,68.106005 1418.8463,72.169126 1419.9062,75.25 1421.8132,80.792673 1421.805,80.847092 1419.875,82.59375 1416.4773,85.668589 1413.8168,90.847343 1414.5,93 1415.4975,96.142834 1418.3184,95.356845 1422,90.96875 L 1425.375,86.96875 1428.9688,90.46875 C 1430.9492,92.40257 1433.3419,94 1434.2812,94 1436.7777,94 1436.4751,89.359978 1433.625,84.03125 L 1431.25,79.625 1433.1875,73.875 C 1435.7388,66.320159 1437.003,65.309816 1440,68.5 1442.8446,71.527944 1444.8361,71.633967 1449.4062,68.9375 L 1452.8125,66.9375 1452.9375,64.59375 z"/>
</svg>
