<?xml version="1.0" encoding="UTF-8"?>
<svg xmlns="http://www.w3.org/2000/svg" viewBox="831.7 48.78 28.34 49.19">
  <path d="M 852.09375,92.21875 852.0625,92.0625 851.65625,88.28125 C 851.51036,88.053005 851.2104,87.909351 851.15625,87.625 851.00091,86.809374 851.08129,86.386648 851.4375,86.21875 L 851.03125,82.5625 C 850.69954,82.309395 850.34136,82.145365 850.03125,81.8125 847.93892,79.566648 847.27272,76 848.9375,76 850.78206,76 851.17432,71.897445 849.5625,69.4375 847.09638,65.673736 848.91861,62.954184 853.4375,63.6875 856.50689,64.185593 856.96305,63.951369 857.53125,61.6875 857.88238,60.288489 858.03558,58.349752 857.84375,57.34375 857.39755,55.003701 853.70646,54.419 852.03125,56.4375 850.18671,58.660034 849.40415,58.389911 848,55 846.35149,51.020145 844.40271,51.204145 839,55.90625 835.04897,59.344924 834.64612,60.048757 835.75,61.65625 838.53313,65.709094 839.37712,68.163935 838.4375,69.4375 833.69783,75.861662 833.75674,75.714447 835.5,78.375 836.75657,80.292771 836.88311,81.341684 836.0625,82.875 834.15865,86.432385 834.79555,90.904424 837.5625,93.46875 839.63172,95.38643 840.84279,95.734043 843.8125,95.28125 845.83841,94.97236 848.26014,94.085284 849.1875,93.28125 849.73753,92.804368 850.8565,92.452985 852.09375,92.21875 z M 843.84375,54.6875 C 844.88924,54.646977 845.67656,55.641927 846.53125,57.6875 847.96776,61.125555 847.9492,61.701872 846.375,64.625 844.7738,67.59824 844.74876,67.905007 846.3125,69.46875 848.57227,71.728522 848.43031,73.480588 845.8125,75.21875 L 843.625,76.65625 845.8125,80.1875 C 848.23003,84.099156 848.68325,89.203312 846.75,90.75 844.61264,92.459981 841.57616,92.961365 839.75,91.90625 837.81442,90.787917 837.24021,83.587612 839,82.5 840.47818,81.586434 840.20172,78.417622 838.53125,77.03125 837.2768,75.990151 837.44348,75.265954 839.6875,71.875 842.3977,67.779612 842.31783,66.691579 838.8125,61.8125 837.81955,60.430418 837.94056,59.726446 839.53125,57.96875 841.48084,55.814484 842.79826,54.728023 843.84375,54.6875 z M 853.53125,57.625 C 854.42242,57.283028 855.31149,57.69534 855.65625,58.59375 856.36085,60.429915 855.01695,61.929131 853.25,61.28125 851.50558,60.641631 851.68092,58.335041 853.53125,57.625 z"/>
</svg>
