<?xml version="1.0" encoding="UTF-8"?>
<svg xmlns="http://www.w3.org/2000/svg" viewBox="1523.1 42.36 22.07 48.35">
  <path d="M 1536.0325,86.060702 C 1535.0843,84.289046 1534.7571,84.245291 1532.2473,85.554542 1530.7363,86.342767 1528.9375,86.990451 1528.25,86.993839 1525.101,87.009359 1528.3498,79.311257 1532.8421,76.112409 L 1535.7144,74.067142 1537.8418,76.331646 C 1540.5495,79.213806 1541.6702,84.487589 1540.0021,86.497519 1538.3347,88.506574 1537.2793,88.39044 1536.0325,86.060702 z M 1536.8762,56.447654 C 1535.5845,55.155956 1534.8724,55.10103 1532.6348,56.120528 1530.5332,57.07811 1529.6818,57.081823 1528.7375,56.137525 1526.0182,53.418154 1534.4242,44.554782 1537.786,46.596753 1540.1637,48.040945 1543.1706,54.391874 1542.4123,56.36797 1541.6209,58.430373 1538.8981,58.469563 1536.8762,56.447654 z M 1536.1533,82.863676 C 1537.2761,83.564871 1538.4597,83.873616 1538.7836,83.549775 1539.9131,82.420188 1537.4439,77.516584 1535.5631,77.154376 1533.39,76.735867 1530.0562,80.496674 1530.0222,83.404988 1530.0005,85.263927 1530.0497,85.265 1532.0559,83.449376 1533.7973,81.873469 1534.4242,81.783851 1536.1533,82.863676 z M 1538.2811,49.836682 C 1536.3963,47.951868 1536.3271,47.954839 1533.6838,50.034116 1530.0721,52.875032 1530.3048,53.987067 1534.3729,53.326918 1536.6284,52.960894 1538.0285,53.230172 1538.5994,54.139788 1539.2674,55.204173 1539.5337,55.092245 1539.8239,53.625147 1540.0279,52.593977 1539.3336,50.889168 1538.2811,49.836682 z"/>
</svg>
