<?xml version="1.0" encoding="UTF-8"?>
<svg xmlns="http://www.w3.org/2000/svg" viewBox="814.87 22.17 27.38 40.5">
  <path d="M 823.03125,27.09375 C 822.40143,26.874369 822,27.265673 822,28.3125 822,29.862796 827.13832,35 828.6875,35 829.27756,35 830.32164,34.292528 831.03125,33.4375 831.74086,32.582472 833.20063,31.436603 834.25,30.875 835.9086,29.987343 836.01085,30.090667 835.15625,31.6875 834.61556,32.697785 833.28915,34.346764 832.1875,35.34375 830.80544,36.59449 829.95721,39.051069 829.46875,43.3125 828.61322,50.776409 826.30539,57 824.375,57 820.6933,57 820.24695,46.740107 823.625,39.65625 825.30117,36.141284 825.28944,36.093234 822.28125,31.46875 818.657,25.897201 816.86675,27.107937 819.84375,33.125 821.64848,36.772672 821.71077,37.568306 820.5,41 817.97329,48.161457 818.16832,54.672878 821.03125,58.3125 822.1583,59.745317 823.69948,60.670196 824.46875,60.375 826.53963,59.580329 830.04757,51.437393 831.28125,44.5625 832.01851,40.453995 833.27623,37.447804 835.1875,35.21875 840.24929,29.315318 837.55328,24.174379 832.125,29.375 828.70878,32.647948 827.4813,32.666921 825.40625,29.5 824.51751,28.143605 823.66107,27.313131 823.03125,27.09375 z"/>
</svg>
