<?xml version="1.0" encoding="UTF-8"?>
<svg xmlns="http://www.w3.org/2000/svg" viewBox="711.34 46.46 31.95 48.28">
  <path d="M 715.96875 76.96875 L 715.15625 79.59375 C 718.40623 82.532709 721.19054 82.613049 724.4375 79.75 C 726.49374 77.936891 727.17651 76.043697 728 70 C 729.11071 61.848448 731.83882 52.495071 732.8125 53.46875 C 733.1468 53.803047 733.48633 58.245321 733.5625 63.3125 C 733.65844 69.694912 734.19944 73.505904 735.34375 75.71875 C 737.54902 79.98329 737.46399 80.250887 734.1875 79.53125 C 731.06582 78.845614 729.39287 80.224079 726.59375 85.75 C 724.5535 89.777785 721.38369 90.03086 717.1875 86.5 C 715.89547 85.412826 714.74971 84.809577 713.65625 84.46875 L 713.34375 85.4375 L 717 88.5 C 721.8452 92.548051 721.16268 92.379882 725.4375 90.59375 C 727.87032 89.577254 729.10275 88.1865 729.96875 85.5625 C 731.03811 82.322295 731.51084 81.963359 734.375 82.15625 C 740.10309 82.542016 741.28973 80.421858 738.4375 74.90625 C 737.50512 73.103222 736.69585 68.011547 736.375 62.1875 C 735.77438 51.284875 734.52899 48.656281 731.53125 51.96875 C 729.73198 53.956921 726.06559 66.374342 726.03125 70.59375 C 726.00081 74.333178 723.89094 78.901334 721.90625 79.53125 C 720.63412 79.935008 718.91681 79.254274 716.90625 77.5625 C 716.6132 77.315919 716.27743 77.182057 715.96875 76.96875 z "/>
</svg>
