<?xml version="1.0" encoding="UTF-8"?>
<svg xmlns="http://www.w3.org/2000/svg" viewBox="1242.75 60.76 27.94 37.47">
  <path d="M 1245.125 81 L 1245 83.6875 C 1245.6135 83.948778 1246.0827 84.297885 1246.7812 84.5 C 1249.245 85.212822 1250.8112 83.831151 1257.25 75.09375 C 1259.0421 72.66193 1260.95 70.524326 1261.5 70.34375 C 1262.668 69.960277 1262.7541 88.935189 1261.5938 90.8125 C 1260.3965 92.749665 1258.7988 90.982362 1259.4375 88.4375 C 1260.2666 85.134261 1258.6497 84.629277 1254.8125 86.96875 C 1252.992 88.078718 1249.8047 88.997944 1247.7188 89 C 1246.6083 89.001094 1245.7047 88.828966 1244.8125 88.53125 L 1244.75 90.46875 C 1248.057 91.427271 1252.4378 91.381354 1254.8438 90.09375 C 1256.683 89.109302 1257 89.204017 1257 90.78125 C 1257 91.795479 1257.6408 93.484389 1258.4062 94.53125 C 1259.6105 96.17792 1259.9962 96.227417 1261.4375 95.03125 C 1264.7872 92.25121 1266.0919 87.204742 1265.0625 80.8125 C 1264.4565 77.049587 1264.4262 73.966286 1265.0312 72.375 C 1268.6885 62.756044 1260.4894 66.610317 1253.5938 77.75 C 1250.9247 82.061498 1248.7696 82.848489 1245.125 81 z "/>
</svg>
