<?xml version="1.0" encoding="UTF-8"?>
<svg xmlns="http://www.w3.org/2000/svg" viewBox="6.13 26.38 62.73 70.88">
  <path d="M 16.874991,92.223539 C 13.944108,90.444239 11.532812,87.133854 12.478676,86.187991 12.818164,85.848502 13.686223,86.004823 14.407696,86.53537 20.898397,91.308411 20.652827,91.23089 23.923802,89.539403 27.92262,87.471534 27.989726,85 24.047053,85 20.257284,85 16,83.063409 16,81.339485 16,79.672228 15.967483,79.67064 20.485962,81.558581 22.537577,82.415801 24.505033,82.826359 24.858086,82.470933 25.211139,82.115508 25.530887,78.376646 25.568638,74.162352 25.606389,69.948059 25.991,64.678014 26.423329,62.451143 27.108681,58.920975 26.877807,58.008232 24.621141,55.326337 22.432238,52.724974 21.167573,52.178629 16.424411,51.785289 10.548211,51.297989 9.041756,50.164426 9.0153128,46.210162 8.9768435,40.45756 17.174785,30 21.722861,30 23.712856,30 24,30.504394 24,34 24,38.212685 24.933195,38.990348 27,36.5 30.312998,32.508082 32.952432,36.784746 30.620392,42.366105 29.158628,45.864598 29.167027,45.89002 32.666497,48.559196 L 36.180392,51.239374 40.349621,47.147586 C 44.155133,43.412758 44.488919,42.67947 44.17576,38.742005 43.924286,35.580138 44.35463,33.783618 45.787333,32.014305 L 47.741997,29.600397 49.396679,32.800199 C 51.45442,36.779431 52.523927,36.821303 54.5,33 55.353248,31.35 56.64506,30 57.370693,30 61.612375,30 66.005911,42.815995 63.867325,48.950748 62.973818,51.513863 62.281468,52 59.52462,52 57.720768,52 55.684689,51.325 55,50.5 53.040277,48.138678 49.787238,48.74006 46.166926,52.132952 43.64065,54.500534 42.995941,55.770218 43.503479,57.378325 45.240105,62.880729 45.722567,68.92218 44.82234,73.893289 44.057439,78.117124 44.133437,79.469023 45.17283,80.127977 47.247038,81.442981 51.424733,81.145984 53.55887,79.531803 56.002725,77.683365 57,77.630133 57,79.348126 57,81.550461 49.565639,84.353475 45.482041,83.690799 41.487949,83.042647 39.822482,84.876251 42.010569,87.512735 43.823301,89.696943 47.915329,89.310149 52.852074,86.487955 57.879079,83.614161 58.000338,83.584995 57.998983,85.25 57.997568,86.990547 48.771606,92 45.567437,92 44.116645,92 41.852043,91.293936 40.534989,90.430969 38.347612,88.997745 37.917883,89.007699 35.570172,90.545978 33.204601,92.09596 32.805529,92.102597 30.557081,90.629358 28.526482,89.298858 27.890067,89.25279 26.786445,90.356412 25.160551,91.982306 21.425122,94.03291 20.315741,93.908574 19.867084,93.85829 18.318746,93.100024 16.874991,92.223539 z M 38.959535,82.565473 C 40.001765,80.87911 41.392633,76.409159 42.050354,72.632249 43.197392,66.045466 42.889511,63.087563 40.374745,56.534188 39.818925,55.085743 48.827867,46.029621 50.842271,46.011845 51.58052,46.00533 53.328706,46.9 54.727129,48 58.307477,50.816302 60.820073,50.565066 61.637281,47.30905 62.688501,43.120657 59.491887,32.982502 57.127555,33.006323 56.7824,33.0098 55.73343,34.3598 54.79651,36.006323 52.831385,39.459793 49.450072,39.993411 48.5,37 47.272059,33.1311 45.725173,34.869386 46.250276,39.528089 46.738894,43.863093 46.563214,44.246361 42.130329,48.516244 39.583648,50.96928 36.6,52.964744 35.5,52.950608 34.4,52.936473 31.797233,51.466543 29.716074,49.684098 L 25.932148,46.443289 27.57041,43.159314 C 29.48023,39.33099 28.804102,37.962323 26.17739,40.339464 25.168211,41.252759 23.314357,42 22.057716,42 19.916495,42 19.815319,41.71721 20.447729,37.5 21.374173,31.322033 18.988361,31.43194 15.020837,37.75 9.7741274,46.105092 11.820839,50.711367 20.17973,49.36047 23.238789,48.866089 23.765109,49.200498 26.869821,53.611165 L 30.239642,58.398456 28.543152,63.780344 C 27.07365,68.44214 27.007223,70.121421 28.046684,76.331116 28.706696,80.274002 30.140032,84.763049 31.231876,86.306776 33.135318,88.998001 33.296244,89.041878 35.140809,87.37257 36.198879,86.41503 37.917306,84.251836 38.959535,82.565473 z"/>
</svg>
