<?xml version="1.0" encoding="UTF-8"?>
<svg xmlns="http://www.w3.org/2000/svg" viewBox="1107.16 18.35 20.87 82.41">
  <path d="M1110.4715 96.411566C1109.1642 95.864298 1109.6201 23.979917 1110.9392 22.660784C1111.449 22.150961 1113.1026 22.099711 1114.6768 22.544943C1116.2296 22.984124 1119.075 23.378677 1121.0 23.421727L1124.5 23.5L1125.3063 33.0C1126.0361 41.599109 1125.5231 76.125903 1124.556 83.5C1124.3395 85.15 1124.1259 87.9625 1124.0812 89.75C1123.9641 94.437529 1120.9662 97.017947 1115.75 96.921053C1113.4125 96.877632 1111.0372 96.648363 1110.4715 96.411566Z M1119.2537 93.603461C1122.3775 90.479655 1124.251 58.808176 1122.6128 36.819485L1121.817 26.138969L1119.1585 26.108724C1117.6963 26.09209 1115.6 25.948322 1114.5 25.78924C1112.5433 25.506259 1112.5072 25.976031 1112.8341 47.5C1113.0179 59.6 1112.7242 74.01538 1112.1815 79.534179C1110.8998 92.568228 1111.3501 95.0 1115.0451 95.0C1116.5917 95.0 1118.4856 94.371558 1119.2537 93.603461Z"/>
</svg>
