<?xml version="1.0" encoding="UTF-8"?>
<svg xmlns="http://www.w3.org/2000/svg" viewBox="1072.25 17.18 31.82 86.16">
  <path d="M1077.6921 94.25C1076.409 92.1875 1075.0373 89.954372 1074.6438 89.287493C1074.2503 88.620614 1075.1107 85.741559 1076.5559 82.889593C1079.375 77.32645 1079.3603 75.844476 1076.404 67.566571C1074.8639 63.25398 1074.7805 61.53698 1075.7416 53.922594C1076.4154 48.584337 1077.8437 43.092764 1079.4307 39.737989L1082.0204 34.263933L1080.0322 29.881966C1077.8246 25.016654 1077.5136 23.0 1078.9707 23.0C1079.9356 23.0 1085.0 33.138503 1085.0 35.070128C1085.0 35.626099 1084.0556 37.358406 1082.9012 38.919697C1080.5113 42.152284 1078.0872 52.247339 1078.0351 59.184086C1078.0134 62.08529 1078.9845 66.138318 1080.5866 69.832422L1083.1732 75.796672L1080.1626 81.513326L1077.152 87.22998L1079.177 91.11499C1081.6331 95.827273 1083.9166 96.076285 1087.342 92.005396C1090.8316 87.858215 1091.43 85.332928 1089.9707 80.911347C1088.8006 77.36564 1088.9565 76.548415 1092.2816 68.804488C1096.8648 58.13019 1097.757 50.646431 1095.5131 41.699085L1093.8192 34.944831L1096.5148 29.722415C1099.6449 23.658185 1100.695 22.361645 1101.6792 23.345869C1102.0711 23.737763 1101.1144 26.499877 1099.5532 29.483898C1096.8807 34.592141 1096.7882 35.17188 1097.9715 39.398337C1098.6628 41.867257 1099.2496 47.182674 1099.2756 51.210376C1099.3164 57.555312 1098.8337 59.616622 1095.6614 66.642597C1091.7531 75.298495 1091.4029 77.299213 1093.0413 81.608625C1094.5584 85.598947 1093.387 89.248016 1089.0973 93.8946C1084.0859 99.322963 1080.9097 99.421937 1077.6921 94.25Z M1087.636 28.196249C1086.1862 26.104187 1085.0 24.079187 1085.0 23.696249C1085.0 22.336298 1087.0303 23.030312 1089.0966 25.096561L1091.1931 27.193122L1094.0559 23.846561C1095.6305 22.005953 1096.937 21.094869 1096.9594 21.82193C1097.0109 23.499261 1092.0679 32.0 1091.041 32.0C1090.618 32.0 1089.0858 30.288312 1087.636 28.196249Z"/>
</svg>
