<?xml version="1.0" encoding="UTF-8"?>
<svg xmlns="http://www.w3.org/2000/svg" viewBox="1128.23 17.55 102.06 75.9">
  <path d="M 1225.375,47.25 C 1224.4967,50.054703 1223.0868,51.458291 1219.6562,53.46875 1214.4937,56.494176 1212.326,56.601648 1209,54 1206.0444,51.688129 1203.4242,51.542559 1200,53.5 1195.0453,56.332372 1194,55.597976 1194,49.25 1194,43.495903 1194.0025,43.497846 1198.5,40.78125 1202.5617,38.327898 1203.006,37.688214 1203,34.28125 1202.9902,28.674714 1196.9353,21 1192.5312,21 1189.8595,21 1185.4304,23.697169 1182.625,27.03125 1178.548,31.87641 1180.375,36.652309 1188.25,41.65625 1191.6722,43.830811 1192,44.404778 1192,48.5 1192,52.903372 1191.9391,53.003521 1188.75,52.96875 1186.9625,52.94926 1184.375,52.286021 1183,51.5 1179.2988,49.384227 1176.9815,49.719221 1172.0938,53.03125 1167.1547,56.378062 1166.5238,56.522135 1165.0312,54.75 1160.7128,49.622527 1157.0081,44.292443 1157,43.15625 1156.9947,42.410646 1158.1592,40.417743 1159.5625,38.75 1164.1883,33.25253 1160.8502,28.599468 1155.375,32.90625 1153.935,34.039004 1152.4128,34.755161 1152,34.5 1151.5871,34.244838 1150.9601,31.793595 1150.5938,29.03125 1150.2272,26.268905 1149.4997,24 1148.9688,24 1147.7118,24 1147.7092,33.124743 1148.9688,36.4375 1150.1492,39.542002 1153.4744,39.850691 1155,37 1155.5887,35.9 1156.7704,35 1157.625,35 1158.8056,35 1158.5611,35.72454 1156.5938,38.0625 1155.1699,39.754699 1154,41.701558 1154,42.375 1154,43.922017 1161.2189,55.116883 1163.375,56.90625 1165.4193,58.602874 1170.2787,57.705927 1173.7188,55 1175.1233,53.895172 1177.2116,52.991996 1178.375,53 1180.555,53.015 1187.9593,55.370457 1191.0625,57.03125 1192.2966,57.691718 1194.1087,57.382904 1197.1562,56 1202.6844,53.491337 1205.5404,53.499896 1208.7188,56 1211.9334,58.528606 1215.0164,58.528606 1220.25,56 1223.7266,54.320299 1225.1108,53.829326 1225.6562,54.3125 L 1225.6562,50.71875 1225.375,47.25 z M 1192.7188,23.03125 C 1194.611,23.005515 1198.872,28.140954 1200.125,31.9375 1201.1735,35.11464 1201.0812,35.547862 1198.5938,37.6875 1194.9347,40.834803 1194,40.607304 1194,36.5625 1194,34.669959 1193.55,32.839919 1193,32.5 1192.45,32.160081 1191.9746,32.242541 1191.9375,32.6875 1191.9004,33.132459 1191.6502,35.052263 1191.4062,36.9375 1190.8609,41.151978 1190.9202,41.104425 1188.5,39.75 1184.1056,37.290777 1182.8627,35.305655 1183.1875,31.375 1183.4599,28.077922 1184.064,27.221298 1187.5,25.28125 1189.7,24.039091 1192.0536,23.040298 1192.7188,23.03125 z M 1225.6562,55.71875 C 1224.6569,57.580857 1213.8414,65 1211.9688,65 1211.3865,65 1209.0953,64.070219 1206.875,62.9375 1201.3718,60.129998 1198.9895,60.707872 1196.2812,65.5 1193.1857,70.977293 1193.4334,73.345806 1197.4688,77.8125 1199.3708,79.917788 1201.3781,82.841203 1201.9375,84.3125 1203.1244,87.434158 1205,87.878711 1205,85.03125 1205,83.949609 1202.975,80.786718 1200.5,78 1195.6279,72.514291 1194.8471,69.095567 1197.5625,65.21875 1199.4055,62.587466 1201.9706,62.396911 1206.2188,64.59375 1210.1517,66.627548 1214.7162,65.940559 1219.6875,62.5625 1221.7687,61.148293 1223.9925,60 1224.6562,60 1224.9724,60 1225.3331,60.52272 1225.6562,61.28125 L 1225.6562,60.125 1225.6562,55.71875 z M 1135.5625,22.75 C 1134.0722,22.34292 1132.8714,28.16544 1133.4062,33.25 1134.1421,40.245363 1136.7353,44.890672 1141.6875,48.03125 1144.0747,49.545158 1148.7082,54.146175 1151.9688,58.28125 1158.1811,66.160099 1161.3808,69 1164.0625,69 1164.9458,69 1167.7568,67.630329 1170.3125,65.9375 L 1174.9375,62.84375 1179,65.125 C 1183.4699,67.637217 1185.2991,71.562737 1182.8438,73.40625 1177.8602,77.148224 1175.899,79.071863 1173.5938,82.46875 1172.1693,84.567683 1171,86.876751 1171,87.625 1171,90.004395 1173.0191,89.104013 1174.0625,86.25 1174.6155,84.7375 1177.7478,80.961574 1181.0312,77.875 1184.3147,74.788426 1187,71.487176 1187,70.53125 1187,67.71559 1180.7327,62.233508 1176.6562,61.46875 1173.5757,60.890857 1172.4019,61.200336 1169.4688,63.4375 1163.901,67.684189 1161.4911,66.795274 1154.875,58 1151.772,53.875 1147.269,49.129383 1144.875,47.4375 1138.4766,42.915766 1136.6151,39.078817 1136.5312,30.3125 1136.4928,26.288804 1136.0615,22.886295 1135.5625,22.75 z M 1141,23.0625 C 1140.6935,23.111552 1140.3447,23.43671 1139.9688,24.03125 1137.533,27.882872 1140.2368,38.597573 1144.3125,41.1875 1146.6512,42.673674 1146.9286,40.697982 1144.7812,37.6875 1143.1309,35.373687 1142.5081,33.080269 1142.5,29.3125 1142.4909,25.147957 1141.9196,22.915343 1141,23.0625 z M 1188.9688,80 C 1187.5046,80 1181,85.862625 1181,87.1875 1181,88.700446 1182.3961,88.003683 1185.6562,84.84375 L 1188.9375,81.6875 1192.9688,84.5 C 1195.1987,86.045301 1197.3308,87.012955 1197.6875,86.65625 1198.0442,86.299546 1198.1354,85.836819 1197.9062,85.65625 1193.4869,82.17407 1190.0526,80 1188.9688,80 z"/>
</svg>
