<?xml version="1.0" encoding="UTF-8"?>
<svg xmlns="http://www.w3.org/2000/svg" viewBox="1256.96 16.68 44.33 34.32">
  <path d="M 1295.8484,44.75 C 1295.765,44.6125 1295.6092,40.88733 1295.5023,36.471845 1295.2913,27.76061 1293.9632,24 1291.0977,24 1289.0344,24 1284.361,30.448362 1283.8402,34.013889 1283.3418,37.426421 1281,37.776264 1281,34.438191 1281,30.788882 1285.847,23.306034 1289.0775,21.96788 1292.1227,20.706516 1296.6957,22.319881 1297.3935,24.901757 1299.2749,31.863863 1298.9424,45 1296.8848,45 1296.3981,45 1295.9318,44.8875 1295.8484,44.75 z M 1260.9942,42.75 C 1260.991,39.3125 1260.5609,33.889951 1260.0385,30.69989 1258.9759,24.211815 1260.0341,20.441331 1263.1997,19.436603 1265.5825,18.680351 1267.6298,20.354118 1269.9965,24.993082 1272.1882,29.289146 1275,39.676962 1275,43.477678 1275,47.130402 1272.5952,46.229266 1272.1851,42.422881 1271.8086,38.927812 1268.4909,27.785755 1266.9937,24.988295 1266.4085,23.894733 1264.9869,23 1263.8348,23 1261.9116,23 1261.7929,23.389275 1262.3862,27.75 1262.7417,30.3625 1263.3137,36.2125 1263.6572,40.75 1264.2051,47.985416 1264.0801,49 1262.641,49 1261.2953,49 1260.999,47.875145 1260.9942,42.75 z"/>
</svg>
