<?xml version="1.0" encoding="UTF-8"?>
<svg xmlns="http://www.w3.org/2000/svg" viewBox="1039.88 55.7 23.48 42.3">
  <path d="M 1049.1875 58.0625 C 1048.5959 58.423458 1047.742 60.620974 1047.0938 64.34375 C 1046.4873 67.826302 1046 71.763597 1046 73.09375 C 1046 75.199622 1045.3813 78.512212 1042.3438 92.375 C 1041.8779 94.501245 1042.0366 95.16487 1043 94.84375 C 1044.836 94.231732 1046.8134 87.049467 1048.0625 76.5 C 1048.6487 71.55 1049.3799 65.3625 1049.6875 62.75 C 1050.1095 59.165304 1049.7791 57.701542 1049.1875 58.0625 z M 1059.0625 60 C 1058.4252 60.296554 1057.9899 63.057532 1057.9688 67.75 C 1057.9386 74.462678 1056.7064 83.286608 1054.4062 93.25 C 1053.999 95.014514 1054.1739 96 1054.9062 96 C 1056.5512 96 1057.9941 91.700426 1059.5938 82 C 1061.083 72.968243 1061.3627 65.935701 1060.375 62.25 C 1059.912 60.522444 1059.4449 59.822068 1059.0625 60 z "/>
</svg>
