<?xml version="1.0" encoding="UTF-8"?>
<svg xmlns="http://www.w3.org/2000/svg" viewBox="1039.93 17.59 32.42 29.18">
  <path d="M 1042.7188 24.4375 L 1042.2812 39.21875 C 1043.0196 38.693316 1043.8034 38.08879 1044.4062 37.78125 C 1053.3508 33.218094 1057.2127 33.721998 1063.25 40.1875 C 1067.5257 44.766383 1069.457 43.691801 1069.7812 36.5 C 1070.3524 23.83318 1063.3534 19.590489 1048.3438 23.5 C 1045.3918 24.268887 1043.9367 24.615167 1042.7188 24.4375 z M 1058.8125 24.6875 C 1063.1155 24.659325 1066.0011 27.601678 1066.6875 32.71875 C 1066.9838 34.928157 1066.8503 36.966056 1066.375 37.25 C 1065.8996 37.533944 1063.0858 36.400866 1060.125 34.71875 C 1055.095 31.861035 1054.4633 31.735757 1050.4375 32.8125 C 1048.0678 33.446295 1045.5635 34.070568 1044.9062 34.21875 C 1043.479 34.54056 1041.9316 29.721349 1042.9375 28.09375 C 1043.7136 26.838003 1053.6054 24.721595 1058.8125 24.6875 z "/>
</svg>
