<?xml version="1.0" encoding="UTF-8"?>
<svg xmlns="http://www.w3.org/2000/svg" viewBox="-21.23 13.83 577.48 93.67">
  <path d="M 5.8125,25.316886 C 6.534375,25.028015 7.396875,25.063542 7.7291667,25.395833 8.0614583,25.728125 7.4708333,25.964474 6.4166667,25.921053 5.2517237,25.873069 5.0147673,25.636112 5.8125,25.316886 z M 530,28.1875 C 529.60327,28.885073 529.2794,29.236632 528.875,30 527.2716,33.02667 525.1672,36.674567 524.21875,38.125 519.61206,45.169864 512,57.849301 512,58.46875 512,58.852455 510.69793,61.053838 509.125,63.34375 504.21232,70.495779 489,96.390607 489,97.59375 489,97.819507 489.58676,98 490.3125,98 491.03825,98 492.27575,96.676469 493.0625,95.0625 493.84926,93.448531 497.7625,86.733058 501.75,80.125 505.7375,73.516941 509,67.798825 509,67.4375 509,67.076175 510.24935,65.160398 511.78125,63.15625 513.31314,61.152103 515.86617,57.025 517.4375,54 519.00883,50.975 521.1894,47.493307 522.3125,46.25 524.07061,44.303712 527.15574,39.243624 530,34.15625 L 530,28.1875 z M 530,60.6875 C 529.02572,62.249827 527.20242,65.077634 526.875,65.65625 525.98512,67.228833 521.55091,74.35 517.03125,81.5 512.5116,88.65 508.39732,95.2875 507.875,96.25 507.17213,97.545217 507.31187,98 508.375,98 509.75562,98 516.68812,87.784551 530,66.25 L 530,60.6875 z M 530,94.375 C 529.09143,96.255619 528,98.392018 528,98.96875 528,100.42968 528.81542,99.961843 530,98.53125 L 530,94.375 z M 371.53125,18.125 C 371.37447,18.088492 371.17491,18.098791 370.90625,18.1875 370.14113,18.44014 369.03875,19.586304 368.46875,20.71875 367.89876,21.851196 366.25845,24.500879 364.84375,26.625 363.42905,28.749121 359.15031,35.9 355.3125,42.5 335.26712,76.972634 328.33301,88.983983 325.78125,93.75 323.52205,97.969576 323.27826,99 324.53125,99 325.38869,99 326.86593,97.3125 327.8125,95.25 328.75907,93.1875 330.72429,89.7 332.15625,87.5 333.58822,85.3 338.74292,76.602195 343.625,68.15625 348.50707,59.710305 354.80365,49.323051 357.625,45.09375 360.44635,40.86445 363.99615,34.968504 365.5,31.96875 367.00385,28.968995 368.8118,25.825 369.53125,25 370.2507,24.175 371.16703,22.209207 371.5625,20.625 371.97909,18.956222 372.00158,18.234523 371.53125,18.125 z M 408,19 C 406.96392,19 402.3676,25.801657 397.6875,34.25 396.24452,36.854816 393.12265,42.479816 390.75,46.75 388.37736,51.020183 385.76261,55.85 384.96875,57.5 384.17489,59.15 382.52993,61.891835 381.28125,63.59375 380.03258,65.295665 379,67.021981 379,67.4375 379,68.482443 368.31999,87.401907 364.34375,93.40625 362.55209,96.111754 361.31131,98.699254 361.59375,99.15625 362.23365,100.19163 363.99728,100.2637 364,99.25 364.00111,98.8375 366.08763,95.35 368.625,91.5 371.16237,87.65 376.39596,78.65 380.28125,71.5 388.60984,56.173089 389.76272,54.187067 397.125,41.875 403.28545,31.57277 408.99664,20.922523 409,19.75 409.00117,19.3375 408.55683,19 408,19 z M 389.96875,19.3125 C 389.71989,19.200919 389.34706,19.294623 388.8125,19.625 388.23213,19.983686 386.43772,23.012215 384.84375,26.375 383.24977,29.737785 380.1972,35.30611 378.03125,38.71875 375.86531,42.13139 372.33058,48.20639 370.1875,52.21875 368.04443,56.23111 361.50988,68.140132 355.65625,78.71875 349.80263,89.297368 345,98.439908 345,99.03125 345,101.08318 346.78868,98.980754 349.5,93.75 350.99914,90.857823 354.1311,85.575 356.4375,82 358.7439,78.425 361.16742,74.375 361.84375,73 362.52008,71.625 363.6395,69.6 364.3125,68.5 364.98551,67.4 367.27319,63.35 369.40625,59.5 371.5393,55.65 375.25909,49.299812 377.65625,45.375 380.05341,41.450189 382,37.808695 382,37.28125 382,36.753805 382.9,35.495486 384,34.5 385.1,33.504514 386,32.109016 386,31.40625 386,30.703484 387.1037,27.974939 388.4375,25.34375 390.20766,21.851708 390.71532,19.647244 389.96875,19.3125 z M 483,19 C 481.66279,19.280646 478.57849,24.066602 470.46875,38.21875 465.65101,46.626087 460.02171,56.261869 457.9375,59.625 455.85329,62.98813 453.40982,67.459787 452.53125,69.5625 451.65269,71.665213 449.40233,75.727768 447.5,78.59375 445.59767,81.459732 443.54743,84.863076 442.96875,86.15625 442.39008,87.449423 440.37263,90.75629 438.46875,93.5 436.56487,96.243709 435,98.831209 435,99.25 435,99.66879 435.59718,100 436.34375,100 437.09032,100 439.85969,96.2875 442.5,91.75 445.14031,87.2125 449.26813,80.302413 451.65625,76.40625 454.04437,72.510087 456,68.9694 456,68.53125 456,68.0931 457.46966,65.665686 459.28125,63.125 461.09284,60.584313 464.54795,54.9 466.9375,50.5 469.32705,46.1 472.18135,41.222947 473.28125,39.65625 476.72101,34.756667 484.1413,19.794673 483.46875,19.125 483.33866,18.995468 483.19103,18.959908 483,19 z M 518.75,19.25 C 517.51193,19.87326 515.48653,23.60685 508.53125,36.8125 499.0872,54.743461 490.23757,70.320731 486,76.5 484.49109,78.700301 481.88198,83.2 480.1875,86.5 478.49302,89.8 476.18752,93.85 475.0625,95.5 473.93749,97.15 473.00362,98.908506 473,99.40625 472.98149,101.94793 477.90132,95.21628 484.21875,84.03125 488.11437,77.134055 492.58508,69.611596 494.15625,67.3125 495.72741,65.013403 497,62.896474 497,62.59375 497,62.291026 498.575,59.571759 500.5,56.5625 502.425,53.553241 504,50.581867 504,49.96875 504,49.355633 505.04655,47.438303 506.34375,45.6875 507.64096,43.936697 509.97507,39.8 511.53125,36.5 513.08742,33.2 515.85441,28.148513 517.65625,25.28125 519.70267,22.024786 520.53162,19.843316 519.875,19.4375 519.48006,19.193416 519.16269,19.042247 518.75,19.25 z M 500.53125,20 C 499.70966,20 498.43259,21.0125 497.6875,22.25 495.08526,26.571996 486.59826,41.532387 484.96875,44.65625 484.06509,46.388625 480.84148,51.563625 477.8125,56.15625 474.78353,60.748875 470.26003,68.325 467.78125,73 465.30248,77.675 461.20681,85.1 458.65625,89.5 456.1057,93.9 454.00409,97.885417 454,98.34375 453.97145,101.54262 457.85019,95.930497 466.625,80.125 472.20075,70.081752 477.65422,60.888672 478.71875,59.6875 480.99164,57.122857 495.54556,32.847907 499.375,25.25 501.46298,21.107277 501.70999,20 500.53125,20 z M 353.5625,19.09375 C 352.74074,18.553079 350.94771,19.840641 349.71875,22.25 345.534,30.454182 331.72409,53.540578 322.96875,67 320.28545,71.125 316.91955,76.75 315.46875,79.5 314.01795,82.25 310.85172,87.65 308.4375,91.5 306.02327,95.35 304.04479,98.859672 304.03125,99.3125 304.01771,99.765328 304.72358,99.990326 305.625,99.8125 306.52643,99.634672 308.91266,96.35 310.90625,92.5 312.89985,88.65 315.74502,83.721424 317.25,81.53125 318.75498,79.341077 320,77.255177 320,76.90625 320,76.557323 322.8125,72.007882 326.25,66.8125 334.56419,54.246565 334.64559,54.108954 337.09375,49.5 338.26233,47.3 340.23363,44.15 341.46875,42.5 342.70388,40.85 345.00695,37.025 346.5625,34 348.11805,30.975 350.416,26.946424 351.6875,25.03125 352.959,23.116077 354,20.978577 354,20.28125 354,19.667523 353.83642,19.273974 353.5625,19.09375 z M 333.6875,19.21875 C 332.42769,20.042871 329.85875,24.201846 322.28125,37 317.55943,44.975 311.33805,55.325 308.46875,60 301.0692,72.056226 296,80.97786 296,81.90625 296,82.344262 294.67363,84.525896 293.0625,86.75 291.45137,88.974103 288.98564,93.097832 287.5625,95.90625 285.45344,100.06829 285.23805,101 286.5,101 287.35153,101 288.34021,100.2125 288.6875,99.25 289.0348,98.2875 290.76086,95.25 292.53125,92.5 298.10939,83.835292 306,70.865669 306,70.34375 306,70.068021 307.483,67.499457 309.3125,64.65625 311.14201,61.813042 315.28713,55 318.5,49.5 321.71288,44 324.62724,39.275 325,39 326.6832,37.758258 335.37849,20.034744 334.65625,19.3125 334.38792,19.044176 334.10744,18.944043 333.6875,19.21875 z M 425.71875,19.28125 C 425.35324,19.407605 425.01181,19.670545 424.78125,20.0625 424.32013,20.846411 421.1169,26.45 417.65625,32.5 414.1956,38.55 408.28211,48.45 404.53125,54.5 400.78038,60.55 396.50164,67.75 395,70.5 391.8373,76.291951 387.02463,84.362553 382.46875,91.53125 380.71194,94.295599 378.95071,97.558099 378.5625,98.78125 377.79812,101.18958 379.12132,101.77395 380.75,99.75 381.30323,99.0625 382.95905,96.25 384.40625,93.5 385.85345,90.75 389.01983,85.35 391.4375,81.5 393.85517,77.65 397.73396,71.137341 400.0625,67.03125 402.39105,62.925159 404.91056,58.964444 405.65625,58.21875 406.40195,57.473055 407,56.446941 407,55.9375 407,55.428059 408.51028,52.863773 410.375,50.25 414.22656,44.851286 422.04332,31.80352 425.59375,24.8125 427.32373,21.406074 427.66694,19.903074 426.8125,19.375 426.4885,19.174755 426.08426,19.154895 425.71875,19.28125 z M 443.8125,19.3125 C 442.94676,19.123962 441.60349,21.20324 439.125,26.25 437.43711,29.686909 435.62641,33.175 435.09375,34 434.5611,34.825 432.43737,38.425 430.40625,42 428.37513,45.575 425.90161,49.935868 424.90625,51.6875 423.91088,53.439132 422.03101,56.589132 420.71875,58.6875 419.40649,60.785868 415.24324,68.35 411.46875,75.5 407.69425,82.65 403.35529,90.49232 401.8125,92.9375 400.2697,95.382679 399,97.793096 399,98.28125 399,100.18822 401.35071,98.237299 403.59375,94.46875 406.06268,90.320695 412.21858,79.151793 415.28125,73.28125 416.26854,71.388821 419.53104,66.025712 422.53125,61.375 425.53147,56.724288 428,52.762131 428,52.5625 428,52.362869 429.82599,49.181366 432.0625,45.5 434.299,41.818634 436.4145,38.068596 436.75,37.15625 437.0855,36.243904 438.33859,34.15 439.5625,32.5 442.51655,28.517525 445.18492,21.953419 444.53125,20.25 444.3251,19.712783 444.10108,19.375346 443.8125,19.3125 z M 298.34375,19.5 C 297.12457,19.966253 294.41128,23.147816 292.1875,27 290.75835,29.475669 288.32291,33.134666 286.75,35.125 285.1771,37.115334 283.11594,40.136717 282.1875,41.84375 281.25906,43.550784 277.73023,49.341117 274.34375,54.71875 270.95728,60.096382 266.96676,66.75 265.46875,69.5 263.97074,72.25 259.35159,79.641659 255.21875,85.9375 251.08591,92.233341 247.50932,98.195841 247.25,99.1875 246.33854,102.67293 249.08535,100.95279 251.78125,96.34375 253.28021,93.78106 255.66823,90.29356 257.09375,88.59375 258.51927,86.89394 261.60413,82.125 263.96875,78 266.33336,73.875 269.80888,68.363773 271.65625,65.75 273.50361,63.136227 275,60.637043 275,60.1875 275,58.80769 287.95981,37.658063 290.4375,35 293.20721,32.028671 299,21.882971 299,20 299,19.476682 298.75014,19.344582 298.34375,19.5 z M 314.5625,20 C 313.77787,20 311.68228,22.5875 309.875,25.75 308.06772,28.9125 304.69149,34.2 302.40625,37.5 300.12102,40.8 296.37025,46.875 294.0625,51 291.75475,55.125 285.63354,65.25 280.4375,73.5 268.88404,91.844011 265.70623,97.732147 266.625,99.21875 267.10636,99.997616 267.7971,99.753349 268.75,98.4375 270.14037,96.517551 285.19022,71.236816 286.40625,68.78125 286.75691,68.073144 288.33318,65.475 289.9375,63 291.54182,60.525 294.65977,55.35 296.84375,51.5 300.27657,45.448501 308.44824,32.543292 310.78125,29.5 311.94614,27.980461 316,20.940891 316,20.4375 316,20.193938 315.34714,20 314.5625,20 z M 277.9375,19.875 C 277.6025,19.868323 277.08176,20.083057 276.375,20.53125 275.53838,21.061796 270.10807,29.375 264.3125,39 258.51693,48.625 251.07031,61 247.75,66.5 244.42969,72 240.3446,78.975 238.6875,82 234.53877,89.573415 233.72377,91.002934 231.25,94.9375 230.06413,96.82364 229.34605,98.73614 229.625,99.1875 230.95472,101.33902 232.84158,99.306121 236.8125,91.53125 239.1893,86.877567 242.17716,81.544707 243.4375,79.6875 244.69783,77.830292 248.88654,70.955372 252.75,64.40625 262.89299,47.212429 272.44498,31.230391 275.96875,25.59375 278.27587,21.903277 278.94249,19.895032 277.9375,19.875 z M 167.59375,20 C 166.82106,20 161.90034,27.3125 156.65625,36.25 151.41217,45.1875 145.05806,55.875 142.53125,60 129.23845,81.70041 119,99.283517 119,100.40625 119,100.73947 119.39028,101 119.875,101 120.78124,101 126,94.608737 126,93.5 126,93.159335 128.8125,88.447826 132.25,83 135.6875,77.552175 140.4191,69.791957 142.78125,65.78125 145.1434,61.770542 148.84245,55.8 150.96875,52.5 153.09504,49.2 155.08164,45.510468 155.40625,44.3125 155.73086,43.114533 158.17832,38.839533 160.84375,34.8125 165.54074,27.716119 169,21.689697 169,20.5625 169,20.260187 168.36643,20 167.59375,20 z M 239.8125,20.09375 C 237.79756,20.980193 232.5938,29.438056 220.65625,51 219.59049,52.925 216.7385,58.325 214.3125,63 211.8865,67.675 208.86028,73.075 207.59375,75 206.32722,76.925 204.44718,79.923339 203.40625,81.65625 202.36531,83.389161 199.5875,87.949451 197.25,91.8125 194.9125,95.675549 193,99.34596 193,99.9375 193,102.26341 194.96137,100.79116 197.65625,96.46875 199.21185,93.973672 201.48686,90.486172 202.6875,88.71875 205.379,84.756674 209.78623,77.077967 215.625,66.21875 218.07127,61.669047 221.4011,55.851725 223.03125,53.28125 224.66139,50.710774 226,48.258498 226,47.84375 226,47.429002 227.33785,45.135291 228.96875,42.71875 230.59965,40.30221 232.39547,37.229782 232.96875,35.90625 233.54203,34.582719 235.63305,30.645535 237.59375,27.15625 239.55445,23.666965 240.83293,20.516965 240.46875,20.15625 240.30061,19.989706 240.10035,19.967115 239.8125,20.09375 z M 202.65625,20.34375 C 201.77953,19.467035 199.55882,22.463302 195.15625,30.4375 193.31659,33.769607 189.43806,40.55 186.53125,45.5 183.62445,50.45 179.14906,58.67631 176.59375,63.78125 174.03844,68.886191 168.6243,78.423542 164.5625,84.96875 160.5007,91.513958 156.89224,97.800148 156.53125,98.9375 155.60237,101.86415 158.75808,101.69456 160.03125,98.75 161.12016,96.23161 161.4055,95.723253 168.59375,84.5 171.41185,80.1 176.71885,70.595747 180.375,63.375 184.03116,56.154254 188.05567,48.729254 189.3125,46.875 193.5435,40.632793 203.37971,21.067216 202.65625,20.34375 z M 185.53125,20.875 C 184.6103,20.850384 182.39791,23.464339 179.375,28.25 173.6753,37.273375 147,82.280442 147,82.875 147,83.115001 144.975,86.802831 142.5,91.09375 140.025,95.38467 138,99.168124 138,99.46875 138,99.769376 138.63884,100 139.4375,100 140.57704,100 148,89.16574 148,87.5 148,87.286684 151.46572,81.357216 155.6875,74.3125 168.81464,52.407794 186,22.610842 186,21.78125 186,21.167075 185.83823,20.883205 185.53125,20.875 z M 464,20 C 462.60169,20 457.42376,28.279732 449.96875,42.5 444.00389,53.877857 430.34617,77.820338 421.71875,92 419.54359,95.575 417.55455,98.8375 417.3125,99.25 417.07045,99.6625 417.43442,100 418.09375,100 419.74596,100 420.97378,98.263935 429.0625,84.5 432.94116,77.9 438.07571,69.35 440.5,65.5 442.9243,61.65 446.50233,55.575 448.4375,52 450.37267,48.425 453.3549,43.025 455.0625,40 465.50838,21.495233 466.1855,20 464,20 z M 146.71875,20.125 C 145.62452,20.588232 143.92016,23.049588 140.875,28.3125 138.5836,32.272695 135.55677,37.3 134.15625,39.5 132.75573,41.7 129.9674,46.425 127.96875,50 125.9701,53.575 123.41817,58.075 122.28125,60 121.14434,61.925 118.24224,66.875 115.84375,71 113.44526,75.125 109.64964,81.2 107.40625,84.5 102.05302,92.374537 98,99.40302 98,100.8125 98,103.21939 101.04128,100.5842 103.96875,95.65625 105.65475,92.818144 109.77238,86.225 113.09375,81 116.41513,75.775 122.55971,65.425 126.75,58 130.9403,50.575 135.29666,43.15 136.4375,41.5 141.27796,34.499247 148.37255,21.060043 147.625,20.3125 147.37123,20.05873 147.08349,19.970589 146.71875,20.125 z M 257.6875,20.21875 C 256.55451,20.913191 254.70247,23.969257 251.34375,30.46875 249.34167,34.342974 246.69253,39.087703 245.46875,41.03125 243.05201,44.869419 229.76108,68.559473 228.65625,71 228.28278,71.825 226.22853,75.2 224.0625,78.5 216.89213,89.424221 211,99.419453 211,100.6875 211,103.23935 213.72336,100.78256 215.9375,96.21875 217.19495,93.626885 220.58439,87.9 223.46875,83.5 231.80904,70.777139 233.45638,67.97419 238.96875,57.53125 241.82916,52.112311 245.30382,45.965895 246.6875,43.875 252.38077,35.271888 259.49529,21.182794 258.59375,20.28125 258.34553,20.033025 258.06516,19.98727 257.6875,20.21875 z M 91.09375,21 C 90.271863,21 79.796522,37.916321 73.75,49 72.399804,51.475 68.678733,57.775 65.5,63 62.321266,68.225 58.418231,74.975 56.8125,78 55.206768,81.025 52.337626,85.975 50.4375,89 48.537375,92.025 46.3029,95.7375 45.46875,97.25 44.128238,99.680647 44.116155,100 45.4375,100 46.795403,100 53.378255,90.917387 54.78125,87.09375 55.099879,86.22538 56.347333,84.15 57.5625,82.5 59.651802,79.663068 62.122324,75.36515 66.375,67.125 67.402394,65.134281 68.645447,63.22959 69.15625,62.90625 70.146314,62.279534 72.05227,59.00282 75.875,51.28125 77.177608,48.650101 78.64439,45.825 79.125,45 79.60561,44.175 81.397598,40.8 83.125,37.5 84.852403,34.2 87.54812,29.611596 89.125,27.3125 92.057769,23.036513 92.698558,21 91.09375,21 z M 111.53125,21 C 108.86771,21 100.94254,33.336521 87.71875,58 85.507054,62.125 81.611903,68.65 79.0625,72.5 73.096344,81.509833 64,97.426133 64,98.875 64,99.491625 64.215175,100 64.46875,100 65.396739,100 68.95381,95.656063 70.5,92.625 73.63119,86.486792 79.573537,76.379024 84.125,69.5 86.672329,65.65 89.792028,60.7 91.03125,58.5 92.270473,56.3 95.158339,51.125 97.46875,47 104.79918,33.912276 106.16411,31.59189 108.90625,27.5 113.22275,21.058842 113.23625,21 111.53125,21 z M 221.125,21.03125 C 220.80846,21.051947 220.29417,21.324949 219.59375,21.90625 218.0013,23.227871 211.89,33.449439 207.5625,42 206.03153,45.025 204.19937,48.175 203.5,49 202.80062,49.825 201.26359,52.3 200.09375,54.5 198.92391,56.7 197.53048,59.175 197,60 196.46953,60.825 192.60683,67.35 188.40625,74.5 184.20567,81.65 179.23819,89.813042 177.375,92.65625 175.51182,95.499457 174,98.311957 174,98.90625 174,101.81889 176.5807,99.155365 181.90625,90.75 191.53815,75.547883 192.68276,73.717858 195.5625,68.5 197.08023,65.75 200.11356,60.575 202.3125,57 207.61537,48.378667 210.46263,43.438501 213.28125,38 214.56397,35.525 217.07674,30.86702 218.875,27.65625 221.29852,23.329099 222.07462,20.969159 221.125,21.03125 z M 128.875,21.15625 C 128.60074,20.436215 126.70688,22.261669 124.375,25.78125 122.65349,28.379568 118.10199,35.9 114.25,42.5 107.18087,54.612245 106.24005,56.235199 99.5625,68 97.533374,71.575 94.16181,77.2 92.09375,80.5 86.020889,90.190457 81,98.761497 81,99.40625 81,102.4839 86.819434,96.041894 91.09375,88.25 92.527794,85.6358 96.593412,78.775 100.125,73 103.65658,67.225 107.81659,60.025 109.375,57 110.93342,53.975 112.78985,50.825 113.46875,50 114.9049,48.254824 127.59689,25.338274 128.5625,22.75 128.875,21.912369 128.96642,21.396262 128.875,21.15625 z M 54.875,21.9375 C 54.511669,21.950374 54.010971,22.128386 53.375,22.53125 52.537467,23.061796 48.901658,29.125 45.28125,36 41.660841,42.875 38.330313,48.632622 37.875,48.8125 36.269734,49.446685 31.086219,58.013698 29.53125,62.59375 27.500618,68.574837 26.026382,71.318728 24.34375,72.3125 23.599042,72.75233 23,73.7539 23,74.5625 23,75.3711 21.91159,77.756155 20.59375,79.84375 15.373011,88.113935 10.043843,99.832315 11.28125,100.3125 12.907473,100.94356 16.717471,96.36323 18.15625,92.03125 18.790552,90.121447 19.897734,87.946016 20.625,87.21875 21.352266,86.491484 22.512329,84.031681 23.1875,81.71875 23.862671,79.405819 25.125914,76.375 26,75 28.426866,71.182366 29.55671,69.204018 34.65625,60 37.24646,55.325 39.656957,51.275 40,51 40.343043,50.725 42.354983,47.35 44.46875,43.5 46.582517,39.65 49.139878,35.303653 50.15625,33.84375 51.172622,32.383846 52,30.522174 52,29.71875 52,28.915326 52.962298,27.071887 54.125,25.59375 55.808782,23.453169 55.964993,21.898877 54.875,21.9375 z M 72.09375,22 C 71.522489,22 69.236811,25.7125 67,30.25 64.763188,34.7875 60.488912,42.55 57.5,47.5 54.511088,52.45 49.609181,61 46.625,66.5 43.640819,72 38.224649,81.436223 34.59375,87.46875 30.962851,93.501278 28,98.788778 28,99.21875 28,100.68226 29.633363,100.00564 31.5625,97.75 33.687446,95.265412 34.080682,94.586389 40.0625,83.3125 42.345947,79.008905 46.673925,71.526081 49.65625,66.6875 52.638576,61.848919 56.576415,54.822404 58.40625,51.0625 60.236085,47.302596 64.00503,40.251515 66.78125,35.375 72.250086,25.768824 73.73732,22 72.09375,22 z M 37.5625,21.96875 C 36.35094,22.203602 34.782017,24.161173 33.0625,27.625 31.732025,30.305134 28.150522,36.775 25.125,42 22.099479,47.225 18.529446,53.75199 17.1875,56.5 15.845555,59.248009 13.864539,62.623009 12.78125,64 11.113764,66.119573 8,72.392234 8,73.625 8,74.592426 9.8911264,73.833271 11.125,72.375 12.907103,70.268797 17.337481,62.822162 20.5625,56.5 21.965311,53.75 24.208485,49.7 25.5625,47.5 26.916516,45.3 28.468238,42.375 29,41 30.021933,38.357542 30.508584,37.440926 35.84375,28.5 37.690285,25.405489 38.966565,22.622814 38.65625,22.3125 38.343164,21.999414 37.966353,21.890466 37.5625,21.96875 z M 20.125,23 C 19.705546,23 17.395981,26.4875 15,30.75 12.60402,35.0125 9.9997352,39.259657 9.21875,40.1875 8.4239999,41.131696 8.1596508,42.422613 8.59375,43.125 9.176659,44.068167 9.6315589,43.945833 10.4375,42.59375 11.027298,41.604278 12.9625,38.820597 14.75,36.4375 16.5375,34.054402 18,31.829341 18,31.46875 18,31.108158 18.927721,29.4999 20.0625,27.90625 21.958367,25.24375 21.990461,23 20.125,23 z"/>
</svg>
