<?xml version="1.0" encoding="UTF-8"?>
<svg xmlns="http://www.w3.org/2000/svg" viewBox="515.94 19.2 26.1 87.31">
  <path d="M529.24793 100.90006C525.77594 99.609448 521.25123 91.516035 519.43319 83.344312C518.0009 76.906417 517.93676 74.047346 518.93261 61.028071C520.23948 43.942579 522.38231 36.277962 527.27445 31.190302C534.9882 23.168277 536.85555 24.882773 532.87114 36.328871C529.02881 47.36682 529.1556 49.507032 534.0396 56.053073C540.02999 64.082016 540.03953 64.963076 534.21153 71.937871L529.21634 77.91598L530.6018 85.20799C531.3638 89.218595 532.44012 93.80465 532.99363 95.399223C534.86311 100.78495 533.66635 102.54247 529.24793 100.90006Z M528.37558 91.396973C526.00764 81.581155 525.9807 48.661237 528.33475 41.5C531.48122 31.928122 529.83632 30.442676 525.52084 38.958869C522.22132 45.47017 521.19609 52.96038 521.40896 69.0C521.56948 81.095545 521.87167 83.220035 524.31367 89.421171C528.91974 101.11763 530.95998 102.11005 528.37558 91.396973Z M533.54008 68.536337L536.18195 65.072673L533.34097 61.057688C531.77844 58.849446 530.1625 57.033095 529.75 57.021351C529.3375 57.009608 529.0 60.375 529.0 64.5C529.0 68.625 529.4271 72.0 529.94911 72.0C530.47112 72.0 532.08706 70.441351 533.54008 68.536337Z"/>
</svg>
