<?xml version="1.0" encoding="UTF-8"?>
<svg xmlns="http://www.w3.org/2000/svg" viewBox="901.21 11.58 76.79 94.61">
  <path d="M 959.51636,93.25 C 960.8476,91.7375 961.95102,89.930683 961.9684,89.234851 962.00937,87.594614 956.03683,77 955.07121,77 953.31338,77 953.18235,78.492773 954.64312,81.877016 955.50322,83.869657 956.14893,87.8625 956.07803,90.75 956.00713,93.6375 956.20716,96 956.52253,96 956.8379,96 958.18513,94.7625 959.51636,93.25 z M 916.36789,93.961685 C 916.29522,93.157758 915.92682,91.33375 915.54922,89.908334 915.02738,87.938453 915.47893,86.584274 917.43133,84.263978 920.25508,80.908148 920.79023,78 918.58403,78 916.98502,78 911,85.124457 911,87.027885 911,87.709927 911.52669,90.025896 912.17042,92.174484 912.97782,94.869335 913.83078,95.979019 914.92042,95.752189 915.78919,95.571339 916.44055,94.765612 916.36789,93.961685 z M 942.93509,81.25 C 950.00649,77.690866 959,69.015452 959,65.753289 959,64.422314 958.73423,63.067564 958.4094,62.742734 958.08457,62.417905 955.19711,63.580405 951.99282,65.326068 L 946.16683,68.5 943.58342,66.075686 C 941.2573,63.892825 941,62.915377 941,56.261609 941,50.442241 941.55019,47.663533 943.589,43.185923 946.95893,35.784936 948.22563,34.476732 953.43379,33.018537 959.07687,31.438573 962,32.809211 962,37.035184 962,40.652682 963.7238,40.948643 964.59423,37.480589 965.65265,33.263502 961.46737,25 958.27308,25 956.51797,25 948.27771,29.638621 945.27523,32.316777 L 943.05046,34.301228 938.66951,30.263018 C 936.26,28.042002 933.23133,25.658987 931.93914,24.967429 929.78696,23.815619 929.31308,24.030066 926.29485,27.521636 921.81084,32.708873 921.92514,36.07587 926.75,40.929135 928.8125,43.003778 931.79719,45.534306 933.38265,46.55253 936.24648,48.391762 936.2613,48.453115 935.6532,55.951923 935.31654,60.103365 934.5607,65.1875 933.97355,67.25 933.04281,70.519411 932.51912,71 929.88725,71 926.13141,71 923.68056,69.72434 918.17678,64.90475 913.51222,60.820051 911.89129,60.748408 910.159,64.550375 909.13488,66.79808 909.44704,67.30686 914.11335,70.995363 916.89978,73.197913 919.81289,75 920.58692,75 921.36094,75 923.68303,76.504807 925.74712,78.344015 933.12292,84.91624 935.01522,85.236174 942.93509,81.25 z M 910.66667,99.333333 C 910.3,98.966667 909.98405,97.504167 909.96456,96.083333 909.94508,94.6625 909.28602,92.375 908.5,91 906.36408,87.2636 906.61836,86.369342 911.24349,81.351674 L 915.48697,76.748033 910.09402,71.993288 904.70106,67.238543 908.56229,62.619272 C 912.92752,57.397057 914.09122,57.057306 916.67742,60.25 922.59866,67.559848 930.44015,70.482333 931.43481,65.75 933.90243,54.009576 933.98551,52.872651 932.57506,50.145154 930.72923,46.575711 926.71145,44.775906 922.39622,45.585446 920.18978,45.999378 919,45.83327 919,45.111291 919,44.500081 919.675,44 920.5,44 921.325,44 922,43.379956 922,42.622124 922,40.388647 919.24299,34.44655 917.55778,33.047949 915.21759,31.105765 915.68207,29.70607 918.48873,30.242596 921.44479,30.807683 925.3037,26.446727 926.44477,21.251472 927.35894,17.089284 928.61959,16.348188 929.41238,19.506911 929.78259,20.981947 930.75616,22 931.79655,22 932.76369,22 934.59304,22.727078 935.86176,23.615729 937.55913,24.80461 938.4633,24.936702 939.28427,24.115729 941.12994,22.270058 942,22.839459 942,25.893011 942,29.14334 944.25377,30.604077 946.00781,28.490592 946.64253,27.725803 949.15043,26.137409 951.58092,24.960827 955.938,22.8516 956.40372,22.204716 956.0523,18.75 955.76018,15.878323 957.65985,16.758307 959.88157,20.523841 962.46055,24.894887 964.65693,25.85144 966.4582,23.388052 967.71517,21.669047 967.87457,21.814469 968.52319,25.271946 969.05081,28.0844 969.81954,29.167588 971.60613,29.615993 974.27677,30.286281 973.87554,32 971.04797,32 968.74443,32 967.48704,34.905365 969.51686,35.537854 974.33699,37.039804 974.50699,37.278932 971.27372,38.009104 969.49927,38.40983 966.73123,40.146715 965.12251,41.868849 962.02179,45.188186 961.28639,45.467971 959.17729,44.130732 958.25729,43.54742 958.05912,42.201782 958.52641,39.71093 958.89591,37.741293 958.93124,35.697759 958.60491,35.169746 957.76767,33.815067 950.45367,35.808957 948.74809,37.856841 944.74665,42.661341 942.53203,61.536807 945.66473,64.136711 947.43398,65.605061 950.64451,64.315954 954.98538,60.394246 959.13846,56.642189 959.83162,56.892234 961.84417,62.86841 962.86185,65.89037 962.72249,66.54109 960.48926,69.195135 959.12017,70.822209 958,72.963968 958,73.954601 958,77.002218 960.89159,82.871611 962.93063,83.962872 966.53529,85.892028 966.44076,88.762633 962.58117,94.575602 958.80703,100.25986 956.42724,101.28439 953.58948,98.446619 952.43235,97.289492 952.09526,95.135585 952.26805,90.002937 952.59133,80.399471 951.73355,79.82087 943.42501,84.03806 939.77201,85.892229 935.88908,87.341926 934.79629,87.259608 933.70349,87.17729 930.51122,85.908262 927.70235,84.439545 L 922.59532,81.76915 920.2194,84.531318 C 918.74439,86.246125 918.06275,87.996206 918.42174,89.146743 918.73978,90.166034 919.27084,91.87461 919.60188,92.943578 920.71053,96.523634 913.21627,101.88294 910.66667,99.333333 z"/>
</svg>
