<?xml version="1.0" encoding="UTF-8"?>
<svg xmlns="http://www.w3.org/2000/svg" viewBox="1235.97 9.33 33.79 91.1">
  <path d="M 1241.6562 80.90625 L 1240.1562 84.53125 C 1240.9211 84.379861 1241.9058 84.32343 1243.5 84.5625 C 1250.4861 85.610126 1252.6003 84.649659 1254.5312 79.59375 C 1256.5046 74.426506 1256.9475 56.265219 1255.625 35.5 C 1254.9205 24.438516 1255.0308 22.201767 1256.3438 20.5 C 1260.3702 15.281151 1263.7589 23.993233 1264.6875 41.875 C 1265.6993 61.359189 1261.2985 84.315973 1255.2188 91.25 C 1253.3987 93.325784 1250.4448 93.486846 1247 91.6875 C 1242.7402 89.462431 1240.2959 87.602594 1239.4062 86.28125 L 1237.9688 89.6875 C 1238.6612 89.446113 1239.3723 89.563758 1240.4375 89.96875 C 1241.8481 90.505051 1243 91.38847 1243 91.90625 C 1243 92.424029 1244.9125 93.516338 1247.25 94.34375 C 1252.7656 96.296107 1252.3313 96.295835 1255.25 94 C 1259.0322 91.024985 1261.9083 84.741928 1264.0938 74.59375 C 1266.6996 62.493473 1267.7568 38.881288 1266.0312 31.21875 C 1262.5603 15.806572 1260.5844 13.473697 1255.8125 19 L 1252.8125 22.5 L 1253.5938 36.5 C 1255.2048 64.460351 1253.9615 80.731428 1249.9688 83.25 C 1248.9441 83.896399 1247.1913 83.679088 1244.5938 82.59375 C 1242.9948 81.925664 1242.1223 81.446506 1241.6562 80.90625 z "/>
</svg>
