<?xml version="1.0" encoding="UTF-8"?>
<svg xmlns="http://www.w3.org/2000/svg" viewBox="104.08 16.48 127.73 88.74">
  <path d="M 140.64447,94.178106 C 139.8729,89.352945 142.32899,77.381127 145.39388,71.027918 148.72569,64.12142 155.81203,56 158.5065,56 159.71288,56 162.58512,57.36563 164.88925,59.034734 167.19338,60.703838 169.56968,61.765955 170.1699,61.394995 171.60524,60.507909 170.47358,48.069202 168.53555,43.430842 165.96067,37.268283 158.28001,36.611928 151.52834,41.97748 149.62258,43.491989 146.81157,45.257819 145.28166,45.901545 143.72403,46.556936 141.2421,49.184724 139.64136,51.873319 138.06911,54.514068 133.91673,59.785378 130.41386,63.58734 123.02354,71.608683 120.43271,77.53518 121.97125,82.899745 122.92858,86.237769 122.62807,88 121.1015,88 120.05834,88 118,83.378171 118,81.035852 118,77.135493 122.2198,69.58982 128.29924,62.619154 131.76738,58.642612 136.10488,53.074273 137.93814,50.245068 139.97671,47.099024 142.38281,44.7136 144.13295,44.103499 145.70683,43.554841 148.45828,42.00097 150.24728,40.650453 155.3197,36.821271 160.70077,35.594801 165.47303,37.180153 168.81586,38.290646 169.7193,39.21379 171.16865,43 173.04378,47.898503 173.71177,64.44207 172.07526,65.453484 171.56666,65.76782 169.06429,64.219377 166.51444,62.012501 160.29871,56.63282 158.2034,56.801633 152.66928,63.127961 146.60596,70.059247 143.61557,78.788782 143.54963,89.75 143.49674,98.54206 141.7645,101.18238 140.64447,94.178106 z M 161.46487,97.943165 C 160.36154,96.157932 161.83489,92.3695 165.49974,87.56828 169.33362,82.54563 169.57928,81.451847 167.80664,77.297053 163.43106,67.041373 155.29449,69.595399 151.57434,82.392289 150.70845,85.370828 150,89.399499 150,91.34489 150,94.607165 148.93856,96.605227 147.80677,95.47344 146.61132,94.27799 149.1687,83.099618 151.91294,77.525282 155.72835,69.775089 160.00017,66.931557 164.5491,69.114046 167.94928,70.745383 171.96016,77.319472 171.98355,81.299566 171.99448,83.160417 170.82643,85.307523 168.5,87.702967 165.20722,91.093435 163.97282,94 165.82569,94 166.27981,94 167.74231,92.83368 169.07569,91.408178 173.6418,86.526568 174.82284,86.421117 179.02071,90.520226 181.11003,92.560387 183.26784,93.952499 183.81585,93.613809 185.19741,92.759961 184.14949,89.075039 181.50845,85.5 176.8191,79.152261 178.72162,70.818792 185.80455,66.682138 L 189.10799,64.752826 191.64901,67.126413 C 194.7273,70.001871 197,74.174339 197,76.95034 197,78.077653 197.50185,79 198.11522,79 199.86009,79 198.22414,68.220776 195.68693,63 193.24165,57.968405 190.0909,56.702773 186.99194,59.507296 182.66402,63.42401 180.35868,59.967178 180.11831,49.20034 179.83294,36.417517 188.28234,31.649037 200.56295,37.662263 L 206,40.324527 206,47.097164 C 206,50.822114 206.49617,55.136596 207.1026,56.6849 209.73076,63.394993 212.17217,73.933263 212.32967,79.247373 212.42335,82.408427 212.78502,84.995927 213.13337,84.997373 215.36985,85.00665 215.57819,70.393647 213.48264,60.500374 211.60944,51.656892 211.62163,48.98611 213.55727,44.148472 214.72582,41.227971 215.90265,40.030444 218.27185,39.350966 220.72659,38.646956 221.57435,37.735598 222.0816,35.255384 223.03129,30.611937 220.86541,28 216.06527,28 213.21997,28 211.86512,28.570533 210.76079,30.23375 L 209.27764,32.4675 203.6542,28.73375 C 200.56131,26.680187 196.90005,25 195.51805,25 194.13606,25 190.14806,26.35 186.65583,28 179.14797,31.547292 177.90276,31.655025 175.47078,28.967714 174.45922,27.849956 172.10185,25.99 170.23218,24.834478 167.24057,22.985564 166.36831,22.872684 162.96106,23.893522 160.83161,24.531518 158.50674,25.633871 157.79467,26.343193 155.10547,29.022018 147.64497,34 146.31941,34 145.56013,34 143.54093,32.407804 141.8323,30.461786 137.6939,25.7484 135.52107,24.650762 133,26 130.07585,27.564957 130.49175,31.914876 134.02485,36.719155 L 137.0497,40.832314 131.697,46.666157 C 123.70787,55.373412 114.21608,70.376282 113.44552,75.514734 112.72555,80.315826 113.45788,84.877885 115.73639,89.785757 117.63102,93.866777 116.5065,95.322936 114.01306,92.017311 110.1416,86.8848 109.88353,76.397678 113.46302,69.665583 117.14244,62.745532 127.39896,47.839428 130.3827,45.075686 133.64213,42.056593 133.65569,40.726214 130.46966,36.54911 128.36348,33.787759 128.04669,32.560228 128.57983,29.226151 129.04725,26.303056 129.87886,24.920595 131.65722,24.110319 135.87918,22.186666 137.9304,22.866651 142.4082,27.674292 L 146.7618,32.348583 152.87362,27.754246 C 159.62297,22.680671 164.90925,20.509423 168.38717,21.382325 169.6417,21.697191 172.37967,23.314977 174.47157,24.977404 178.54401,28.213776 182.3704,28.828111 184.92126,26.655124 187.77331,24.225555 194.97928,21.958847 197.7917,22.606599 199.28126,22.949674 202.11303,24.313129 204.0845,25.636498 207.38725,27.853491 207.92513,27.934931 210.9274,26.672573 217.37968,23.959592 226,27.696469 226,33.206492 226,36.931974 222.81624,40.845005 219.06759,41.726847 214.02967,42.91198 212.97387,47.37496 215.38704,57.285037 219.27871,73.266855 218.61778,83.487562 213.18078,91.402608 207.75256,99.304866 204.4976,98.919908 207.99528,90.78933 209.95405,86.236054 210.18339,84.426567 209.67847,77.508898 209.33978,72.868568 207.99499,66.345476 206.48118,62 204.49601,56.301471 203.96068,53.104142 204.25247,48.688674 204.60409,43.367729 204.41977,42.726662 202.06825,41.091626 195.54751,36.557705 187.194,36.248092 184.4483,40.438564 182.66062,43.166907 182.17516,55.575157 183.7928,57.192803 184.66202,58.062018 185.83132,57.872939 188.5574,56.422357 L 192.17009,54.5 195.55798,58.5 C 197.81492,61.16471 199.33016,64.336024 200.09704,68 201.55759,74.978152 200.74203,89.490258 198.75938,91.802607 197.95892,92.736173 197.02472,94.2875 196.68338,95.25 195.23061,99.346521 194.5,96.310414 194.5,86.176731 194.5,76.277216 194.28663,75.04024 192,71.683564 190.625,69.66512 188.97212,68.010591 188.32692,68.006833 187.68173,68.003075 185.76923,69.384615 184.07692,71.076923 180.03601,75.117841 180.00808,79.235178 183.9818,85.099519 186.08792,88.207677 186.96895,90.71671 186.9818,93.643011 187.00943,99.93232 184.70216,100.11322 178.76876,94.286966 L 173.89377,89.5 169.39188,94.25 C 164.93122,98.956515 162.7261,99.983871 161.46487,97.943165 z"/>
</svg>
