<?xml version="1.0" encoding="UTF-8"?>
<svg xmlns="http://www.w3.org/2000/svg" viewBox="274.13 17.22 100.5 87.38">
  <path d="M 369.75,41.84375 C 369.47086,42.504319 369.10431,43 368.625,43 367.86735,43 366.71431,43.652124 366.0625,44.4375 364.4968,46.324049 355.4711,51 353.40625,51 352.51277,51 350.08329,49.65 348,48 343.70336,44.596995 342.11432,44.371332 337.9375,46.53125 334.98784,48.056577 335,48.05356 335,45.0625 335,41.83325 337.84086,35 339.1875,35 339.64102,35 340.7769,35.9 341.71875,37 343.96196,39.619882 344.83166,39.527603 348.1875,36.3125 351.77111,32.879183 351.87202,28.809519 348.46875,25.40625 345.65858,22.596081 343.03803,22.810729 339.34375,26.1875 337.20603,28.141494 337.19997,28.129468 334.0625,25.0625 330.63147,21.708554 327.45256,21.188276 324.4375,23.46875 321.91441,25.377116 318.56929,25.390876 317,23.5 315.28422,21.432611 314.20973,21.613777 310.34375,24.5625 306.24042,27.692264 306.16895,28.903254 309.9375,32.9375 312.48093,35.660253 313.38055,36.012925 316.28125,35.46875 319.51198,34.862663 319.67875,34.997137 320.8125,38.78125 321.46228,40.95005 322,43.914606 322,45.34375 L 322,47.9375 317.40625,45.96875 C 311.45225,43.416567 311.04882,43.456642 303.84375,47.09375 296.5896,50.75563 296.02255,50.36974 296,41.46875 295.98541,35.707812 296.1873,35.237904 300,31.625 303.83105,27.994704 304.94257,26 303.15625,26 302.69776,26 300.46178,27.74655 298.15625,29.875 294.25807,33.473785 293.91552,34.189573 293.34375,40.3125 292.68221,47.396815 294.14167,53 296.65625,53 297.43021,53 300.73137,51.65 304,50 311.12167,46.404992 312.09195,46.360887 318.4375,49.46875 321.14996,50.797231 323.73746,51.653141 324.1875,51.375 325.45934,50.588965 325.16054,44.7636 323.46875,37.46875 321.67115,29.717668 322.10604,27.496416 325.90625,25.53125 328.57737,24.149959 328.84861,24.262892 332.40625,27.90625 L 336.09375,31.6875 334.0625,36.875 C 332.14083,41.750297 331.15564,53 332.65625,53 333.01683,53 334.79103,51.875 336.59375,50.5 340.71058,47.359937 342.49111,47.378179 346.625,50.53125 352.25385,54.824583 354.87194,54.733676 362.21875,50.09375 365.78812,47.839488 368.99069,46 369.34375,46 369.59341,46 369.69889,46.30173 369.8125,46.5625 L 370.0625,43.15625 369.75,41.84375 z M 314.59375,26.25 C 315.75181,26.218777 317.0694,26.856362 317.875,28.15625 319.07586,30.093902 319.02537,30.526419 317.4375,31.6875 316.44207,32.415379 315.31503,33 314.9375,33 313.57302,33 311.8524,30.070179 312.1875,28.3125 312.44076,26.984064 313.43569,26.281223 314.59375,26.25 z M 345.1875,26.3125 C 345.69995,26.40854 346.10552,26.809331 346.65625,27.5625 348.30745,29.820646 348.38436,32.24064 346.8125,33.8125 345.06024,35.564755 343.21083,35.26655 342.03125,33.0625 340.4374,30.084352 340.77837,28.178853 343.15625,26.90625 344.05572,26.424868 344.67505,26.21646 345.1875,26.3125 z M 369.59375,49.6875 C 369.27465,50.703485 368.84914,51.695401 368.25,52.21875 366.13212,54.068707 354.00797,60 352.34375,60 351.69026,60 349.82159,58.875 348.1875,57.5 344.33022,54.254317 341.02232,54.333626 337.75,57.75 333.99446,61.670862 332,67.07434 332,73.40625 332,80.193569 333.16513,82.906436 337.40625,85.8125 340.61731,88.012753 340.86225,88.022089 345.4375,86.46875 350.05589,84.900769 350.26412,84.912155 355.09375,87.4375 359.78237,89.889113 360.183,89.938158 363.625,88.5 366.35305,87.36015 367.30087,87.018879 367.6875,87.375 L 367.6875,82.03125 C 367.29722,82.645582 366.80197,83.151018 366.125,83.71875 362.88734,86.433953 359.59236,86.514209 355,84 350.79258,81.696537 348.16167,81.565334 345.5625,83.53125 342.79379,85.625395 341.61681,85.376551 337.96875,81.96875 334.7375,78.950308 334.7306,78.944806 335.4375,71.71875 336.45787,61.288441 342.03712,54.744234 345.90625,59.40625 346.54183,60.172077 348.36579,61.317726 349.9375,61.96875 352.95648,63.219253 352.12394,63.485102 364.9375,57 366.965,55.973861 368.68889,55.234804 369.21875,55.125 L 369.59375,49.6875 z M 367.6875,90.5625 C 366.15007,94.961952 357.86543,96.352563 350.4375,92.96875 346.34436,91.104107 345.77814,91.064441 343.0625,92.46875 338.95699,94.591792 336.10994,94.40261 330.5,91.5625 325.54582,89.054373 324,89.034451 324,91.53125 324,92.309666 322.66171,93.625603 321.03125,94.46875 318.35649,95.851919 317.64792,95.851954 313.78125,94.40625 306.23368,91.584305 304.37623,91.572281 299.59375,94.375 294.50336,97.35817 291.44138,97.629927 286.34375,95.5 279.8531,92.788035 278.78216,94.322153 284.75,97.78125 289.66187,100.62828 294.54461,100.52086 299.5,97.46875 304.41572,94.441075 306.7063,94.387002 312.40625,97.15625 L 316.84375,99.3125 322.34375,96.53125 C 327.76365,93.789032 327.96193,93.771789 331.96875,95.375 337.05727,97.411021 339.30264,97.41412 343.125,95.4375 345.91404,93.995229 346.43815,94.034966 350.3125,95.84375 353.85653,97.498321 356.38436,97.752345 366.75,97.5625 367.24925,97.553356 367.20147,97.510891 367.6875,97.5 L 367.6875,90.5625 z M 296.15625,24.0625 C 295.11155,24.205369 293.80667,24.756538 292.8125,25.65625 291.10518,27.201354 290.7389,27.184536 287.34375,25.40625 284.73989,24.042419 283.58375,23.833508 283.28125,24.6875 283.04867,25.344103 282.26509,25.656598 281.53125,25.375 278.70056,24.288763 278.99966,27.230367 282.0625,30.71875 285.14608,34.23075 285.24859,34.617581 284.71875,40.9375 284.12731,47.992219 286.27695,56.45669 289.625,60.15625 292.60289,63.44678 298.81355,62.15549 306.125,56.75 309.51744,54.24191 312.78545,54.79163 315.40625,58.3125 318.27643,62.168379 319.04468,77.742965 316.5625,81.53125 314.5574,84.591426 312.78318,84.64759 308.90625,81.78125 L 305.90625,79.5625 301.0625,82.28125 C 295.5125,85.401059 293.10025,85.63755 288.90625,83.46875 285.87819,81.902877 283.43621,82.283311 284.59375,84.15625 284.94374,84.722558 286.65352,85.81334 288.375,86.5625 292.72558,88.455806 295.44925,88.321619 300,86 304.62171,83.642181 306.79637,83.533604 309.4375,85.53125 312.60958,87.930493 315.64538,87.314079 318.1875,83.75 320.14645,81.003514 320.54736,79.02819 320.8125,71 321.1084,62.040324 320.95666,61.265236 318.34375,57.28125 316.81998,54.957916 314.35341,52.620019 312.84375,52.09375 310.48497,51.271475 309.23498,51.699165 304.03125,55.0625 295.77613,60.398043 293.59808,60.827074 291.5,57.625 288.38559,52.87181 287.20189,46.923831 288.09375,40.5 288.85315,35.030184 288.71686,34.204336 286.5,31.0625 284.14146,27.719886 283.99626,24.926986 286.34375,28.0625 288.57756,31.046158 291.08227,31.170922 294.625,28.46875 296.47801,27.055394 298,25.45951 298,24.9375 298,24.173747 297.20095,23.919631 296.15625,24.0625 z M 283.03125,86.46875 C 281.2063,87.596629 281.92258,88.931078 285.75,91.4375 290.0596,94.259685 291.03838,94.496476 290.9375,92.75 290.83345,90.948374 284.24951,85.715823 283.03125,86.46875 z"/>
</svg>
