<?xml version="1.0" encoding="UTF-8"?>
<svg xmlns="http://www.w3.org/2000/svg" viewBox="149.74 22.26 29.61 82.27">
  <path d="M157.66667 99.333333C156.36836 98.035031 157.01424 88.432679 158.71995 83.67394L160.44979 78.84788L158.07561 77.057034C156.55471 75.909812 156.14829 75.117237 156.94478 74.851741C158.9161 74.194632 157.21354 65.184651 154.88229 63.937001C152.6282 62.730651 152.40293 61.0 154.5 61.0C156.79957 61.0 156.44636 54.713922 154.02358 52.521341C151.74442 50.458729 152.31748 48.648602 154.98192 49.49426C156.55257 49.992766 156.90031 49.227949 157.57777 43.784937C158.00801 40.328222 158.2619 36.778416 158.14197 35.89648C158.02204 35.014544 159.29103 32.829454 160.96196 31.040725C162.63288 29.251995 164.0 27.386079 164.0 26.894245C164.0 26.40241 165.34085 26.0 166.97968 26.0C169.46023 26.0 170.30895 26.685269 172.04639 30.090934C173.19426 32.340948 174.82258 38.753448 175.66488 44.340934C177.10777 53.912449 177.07971 56.089769 175.32784 70.5C175.06039 72.7 175.38261 77.058799 176.04389 80.18622C177.35536 86.388638 176.70027 93.660069 174.56719 96.577228C173.42105 98.14467 172.9728 98.222318 171.60821 97.089808C170.7237 96.355725 170.0 94.931385 170.0 93.924608C170.0 91.572728 167.9258 87.0 166.85898 87.0C166.40799 87.0 164.67145 89.925 163.0 93.5C160.08289 99.739299 159.12277 100.78944 157.66667 99.333333Z M164.41699 85.847168L167.8871 80.694337L170.04233 84.347168C173.04323 89.433322 174.34596 89.023563 173.53049 83.25C173.1615 80.6375 172.99923 75.575 173.16989 72.0C173.74008 60.055873 173.50854 45.520926 172.71722 43.582783C172.1206 42.121528 171.65684 41.943159 170.76722 42.832783C168.9434 44.6566 165.14474 44.204632 163.76793 42.0C161.63004 38.576707 160.26281 39.762901 159.44559 45.75C158.0101 56.266683 159.04863 70.949343 161.56981 75.782126C163.35649 79.206971 163.34924 80.101745 161.50616 83.635693C160.09605 86.339453 159.44248 91.0 160.47343 91.0C160.73382 91.0 162.50842 88.681226 164.41699 85.847168Z M171.11582 38.645157C171.97417 36.761271 171.76582 35.461302 170.07405 32.145157C168.91097 29.86532 167.37684 28.0 166.66489 28.0C165.95293 28.0 164.60415 29.606897 163.66759 31.570881C162.02547 35.014449 162.03912 35.246195 164.05047 38.070881C166.56826 41.606788 169.6522 41.857452 171.11582 38.645157Z"/>
</svg>
