<?xml version="1.0" encoding="UTF-8"?>
<svg xmlns="http://www.w3.org/2000/svg" viewBox="860.16 20.39 35.52 72.81">
  <path d="M 862.15625 34.6875 L 862.1875 36.09375 L 862.9375 38.3125 C 862.93222 37.935873 862.82745 37.283748 862.90625 37.15625 C 863.25124 36.598048 866.24145 34.297205 869.53125 32.0625 C 878.52128 25.955727 881.44165 26.679055 882.625 35.3125 C 883.09681 38.754734 882.82639 40.587508 881.59375 42.46875 C 879.93822 44.995408 880.66375 45.961244 882.6875 43.9375 C 884.56246 42.06254 885.2706 47.672735 883.5 50.375 C 882.04955 52.588676 882.07017 52.784759 883.96875 53.28125 C 886.41465 53.920866 886.74723 58.134968 884.5 60 C 883.675 60.684689 883 61.867344 883 62.625 C 883 63.382655 883.675 64 884.5 64 C 886.49771 64 886.47539 70.78448 884.46875 73.4375 C 882.59796 75.910896 882.60711 77 884.5 77 C 886.8139 77 886.44401 83.288201 884 85.5 C 881.26517 87.974984 881.48542 88.659584 885.21875 89.40625 C 887.67565 89.897629 888.89231 89.576436 890.4375 88.03125 L 892.4375 86 L 890.3125 84.5 C 888.83536 83.465369 888.1875 81.972315 888.1875 79.53125 C 888.1875 76.328452 888.40211 76.074934 890.59375 76.625 C 893.6418 77.390012 893.67765 75.963457 890.65625 73.125 C 888.94598 71.518288 888.32979 69.91391 888.40625 67.21875 C 888.46585 65.117672 888.99582 63.5 889.65625 63.5 C 892.03238 63.5 892.31104 61.89364 890.1875 60.40625 C 887.99298 58.869151 887.09031 54 889 54 C 890.61436 54 890.15832 52.132426 887.75 48.875 C 885.5883 45.951145 885.57959 45.789985 887.34375 44.5 C 889.11237 43.206755 889.1002 43.037397 887.0625 40.28125 C 885.8997 38.708491 884.67794 35.650569 884.34375 33.46875 C 882.92306 24.193594 878.54895 23.704478 868.09375 31.65625 C 865.12561 33.913682 863.38734 34.797739 862.15625 34.6875 z "/>
</svg>
