<?xml version="1.0" encoding="UTF-8"?>
<svg xmlns="http://www.w3.org/2000/svg" viewBox="365.69 19.28 18.28 81.95">
  <path d="M 369.75 41.84375 L 370.0625 43.15625 L 369.8125 46.5625 C 370.10193 47.22682 369.99493 48.410185 369.59375 49.6875 L 369.21875 55.125 C 369.25689 55.117096 369.5081 55 369.53125 55 C 369.87609 55 369.8475 60.9625 369.46875 68.25 C 368.98504 77.557258 368.75663 80.348379 367.6875 82.03125 L 367.6875 87.375 C 367.94348 87.610782 368 88.100395 368 89.09375 C 368 89.629528 367.85134 90.093661 367.6875 90.5625 L 367.6875 97.5 C 373.75791 97.363973 379.19523 97.121034 379.40625 96.90625 C 379.63417 96.674269 380.08251 87.725 380.40625 77 C 380.72998 66.275 381.28684 51.612895 381.625 44.40625 C 381.96316 37.199606 381.9166 29.437106 381.53125 27.15625 L 380.8125 23 L 375.90625 23 L 371 23 L 370.875 29.5 C 370.80625 33.075 370.6375 36.45 370.5 37 C 370.3625 37.55 370.19375 39.125 370.125 40.5 C 370.09868 41.026451 369.91894 41.44396 369.75 41.84375 z M 373.3125 26 L 376.3125 26 L 379.3125 26 L 378.625 54.75 C 377.81417 88.557624 377.51734 92.658907 375.9375 94.5625 C 374.56106 96.221012 374.02255 96.283543 372.09375 95.0625 C 370.62613 94.133416 370.62941 92.309191 372.625 42.75 L 373.3125 26 z "/>
</svg>
