<?xml version="1.0" encoding="UTF-8"?>
<svg xmlns="http://www.w3.org/2000/svg" viewBox="370.59 14.48 235.59 94.72">
  <path d="M 588.42305,95.389479 C 592.59138,87.751653 593.66783,86.334499 594.59604,87.262703 595.47612,88.14279 587.81452,101.23013 586.08156,101.80688 585.22599,102.09163 586.15514,99.545081 588.42305,95.389479 z M 564,102.07673 C 564,101.01892 565.06113,98.881424 566.35807,97.326725 567.65502,95.772026 571.97636,88.875 575.96106,82 587.66936,61.799093 595,51.225409 595,54.538321 595,55.775809 576.97496,86.019139 572.67282,92 570.10126,95.575 567.50385,99.7375 566.9008,101.25 565.63531,104.42396 564,104.89002 564,102.07673 z M 546,101.05902 C 546,100.54148 546.39985,99.870914 546.88855,99.568879 547.37726,99.266843 550.3988,94.402786 553.6031,88.759862 556.80739,83.116938 562.41641,73.55 566.06757,67.5 569.71874,61.45 574.39032,53.35 576.44887,49.5 586.84195,30.062328 593.00242,20.546143 593.75232,22.771087 593.98794,23.470185 592.18054,27.295185 589.73588,31.271087 587.29121,35.246989 579.52867,48.625 572.48579,61 565.4429,73.375 558.73992,84.848412 557.59027,86.496471 555.49104,89.50579 551.94326,95.556168 549.81877,99.75 548.69539,101.96759 546,102.89153 546,101.05902 z M 529,101.63691 C 529,101.34554 530.575,98.419824 532.5,95.135312 534.425,91.8508 536,88.898427 536,88.574485 536,88.250543 540.78051,80.23091 546.62336,70.753079 552.4662,61.275248 557.50481,52.84101 557.82027,52.010329 558.13572,51.179648 560.44271,46.880334 562.94691,42.456298 565.45111,38.032262 568.30474,32.857262 569.28831,30.956298 571.8701,25.966409 574.75341,22.420079 575.56707,23.233732 575.95418,23.62085 575.43819,25.189127 574.42041,26.718792 573.40263,28.248456 571.04189,32.425 569.17431,36 559.56522,54.39416 556.06861,60.821598 553.89132,64.093052 552.57609,66.06923 550.375,69.598413 549,71.935681 547.625,74.272949 544.32637,79.52392 541.66972,83.604507 539.01306,87.685093 535.59174,93.358851 534.06677,96.212859 531.72178,100.60157 529,103.51528 529,101.63691 z M 509.75847,101.42514 C 509.45184,101.11851 512.41824,95.477917 516.35048,88.890492 520.28272,82.303067 524.17302,75.69535 524.99561,74.206678 548.74347,31.228939 553.13663,23.651625 554.95948,22.525043 556.66561,21.470598 556.13954,24.547952 554.17482,27.115141 552.13378,29.782039 547.85959,37.24562 542.78729,47 534.63879,62.670142 528.76218,73.333923 525.04456,79.196236 522.8459,82.663306 519.21726,88.723302 516.98091,92.662894 512.87161,99.901944 510.77675,102.44342 509.75847,101.42514 z M 490.75847,98.851059 C 491.88405,97.007977 494.12783,93.25 495.74463,90.5 497.36144,87.75 500.851,82.161943 503.49921,78.082095 506.14742,74.002247 513.13874,61.334436 519.03547,49.931403 530.55512,27.654871 532.74089,24.080231 534.87244,24.031425 535.83273,24.009437 535.94758,24.375384 535.25487,25.25 533.85428,27.018386 529.39897,35.236027 520.752,52 512.6068,67.791176 508.59336,75.131362 505.98905,79 505.06342,80.375 502.99971,83.446369 501.40304,85.825265 499.80637,88.204161 497.11894,92.703979 495.43099,95.824861 493.74303,98.945742 491.54072,101.65735 490.53697,101.85065 488.82985,102.17942 488.84416,101.98565 490.75847,98.851059 z M 471.59785,101.75 C 471.99159,101.0625 475.10914,96 478.52574,90.5 481.94234,85 486.42823,77.125 488.49438,73 490.56053,68.875 493.04876,64.369816 494.02379,62.988481 494.99881,61.607145 498.13296,55.997205 500.98855,50.521946 503.84415,45.046687 507.65252,38.301871 509.45159,35.533465 511.25066,32.765059 513.55706,29.0375 514.57692,27.25 515.59678,25.4625 516.78419,24 517.21561,24 518.44023,24 518.25467,24.471581 513.98241,32.216632 511.77273,36.222484 507.66721,44 504.85902,49.5 502.05083,55 498.79625,60.840665 497.62661,62.479255 494.91166,66.282735 494.47145,67.050797 488.68073,78.087634 486.03013,83.139548 482.19219,89.574023 480.15196,92.386466 478.11173,95.19891 475.90255,98.7375 475.24267,100.25 474.58278,101.7625 473.33167,103 472.46242,103 471.48292,103 471.15417,102.5247 471.59785,101.75 z M 453,101.61026 C 453,100.56983 468.58469,72.933931 471.38988,69 473.15474,66.525 478.57423,56.85 483.43318,47.5 492.83069,29.416516 498.12368,20.871034 498.75458,22.763728 498.9671,23.401289 497.62256,26.527771 495.76672,29.711465 493.91088,32.895159 489.81615,40.551778 486.66733,46.726173 480.92026,57.995348 476.73303,65.351733 469.72016,76.5 464.66408,84.537584 459.19177,93.666503 456.68218,98.25 454.97597,101.36622 453,103.16943 453,101.61026 z M 435,101.05902 C 435,100.54148 435.37365,99.887107 435.83033,99.604863 436.66492,99.089055 442.88108,88.663707 449.01044,77.5 452.57239,71.012433 464.4123,50.40097 472.01118,37.459232 474.60786,33.03681 477.03504,28.464947 477.40493,27.299537 478.15312,24.942193 480.75412,22.420785 481.58282,23.249487 481.87679,23.543455 479.76572,27.995081 476.89155,33.141988 474.01738,38.288894 470.23841,45.2 468.49384,48.5 466.74927,51.8 463.60887,57.425 461.51519,61 459.4215,64.575 457.09869,68.672206 456.35339,70.104903 455.60808,71.5376 453.9209,73.872326 452.60409,75.293184 451.28728,76.714042 450.42277,78.089441 450.68296,78.349626 451.23845,78.905118 442.71712,94.032905 439.19163,98.75 436.81291,101.93272 435,102.93139 435,101.05902 z M 422.44267,32.25 C 423.7999,22.624318 430.25236,18.780725 438.40499,22.741579 442.36792,24.666917 443.08589,24.730508 446.62363,23.4695 451.19285,21.840824 457,21.578068 457,23 457,23.55 456.2125,24.014691 455.25,24.032646 454.2875,24.050601 451.11317,24.889688 448.19593,25.897282 443.04082,27.677825 442.78916,27.676908 439.23449,25.864637 437.22294,24.839086 433.88264,24 431.81161,24 427.38437,24 425.56577,26.178808 424.5082,32.75 423.54247,38.750545 421.59264,38.27855 422.44267,32.25 z M 418,100.6188 C 418,100.31748 420.025,96.735489 422.5,92.658828 424.975,88.582167 427,84.977705 427,84.648912 427,84.320119 431.25124,76.86825 436.4472,68.089203 441.64317,59.310156 446.86957,50.186157 448.06143,47.81365 450.66836,42.624295 455.01104,36.677709 455.6946,37.361267 456.24233,37.909 447.47134,54.249084 437.3844,71.472592 435.12082,75.337666 431.58284,81.65 429.52221,85.5 424.72877,94.455886 420.83678,100.23645 419.25,100.75678 418.5625,100.98222 418,100.92013 418,100.6188 z M 407,71.303751 C 407,69.734875 412.37084,63 413.62197,63 414.47196,63 413.77345,64.643715 411.73597,67.438102 408.72954,71.561388 407,72.973096 407,71.303751 z M 399.61487,101.18586 C 399.30512,100.68468 402.01874,95.375325 405.64513,89.387306 409.27153,83.399288 413.45427,76.475 414.94012,74 416.42596,71.525 420.18446,64.43662 423.29233,58.248045 426.40021,52.05947 429.78697,45.75947 430.81847,44.248045 431.84996,42.73662 433.9215,39.54621 435.42187,37.158243 440.18935,29.570405 439.31508,33.428801 433.95188,43.645703 424.09886,62.4157 418.62466,72.51899 416.0682,76.652141 408.46455,88.945339 403,98.278343 403,98.971554 403,100.32569 400.21084,102.15016 399.61487,101.18586 z M 397.11726,66.780901 C 399.09948,63.077078 404.05904,56.547631 405.50538,55.737619 406.25408,55.31831 407.15019,55.433988 407.49671,55.994682 407.84324,56.555376 407.46584,57.267746 406.65804,57.577726 405.85025,57.887707 403.56713,60.584529 401.58445,63.570664 398.04267,68.90496 394.69174,71.31303 397.11726,66.780901 z M 389.44125,55.904932 C 389.06901,55.302645 389.64366,53.615145 390.71824,52.154932 391.79282,50.69472 393.81714,47.475 395.21674,45 403.6753,30.042221 409.90111,20.787083 408.33415,25.5 407.96842,26.6 405.7814,30.875 403.47411,35 401.16681,39.125 397.59816,45.7625 395.54377,49.75 391.84588,56.927479 390.75389,58.028844 389.44125,55.904932 z M 381.59224,100.14925 C 381.30305,99.681334 382.1765,97.793909 383.53322,95.954968 384.88995,94.116028 386.00224,92.136367 386.00497,91.55572 386.0128,89.890796 390.74341,84.423383 391.51478,85.187745 392.33866,86.00415 384.25306,101 382.98897,101 382.50996,101 381.88143,100.61716 381.59224,100.14925 z"/>
</svg>
