<?xml version="1.0" encoding="UTF-8"?>
<svg xmlns="http://www.w3.org/2000/svg" viewBox="1371.1 15.94 63.8 83.75">
  <path d="M 1432,69.15625 1432,64 C 1430.5031,66.68168 1428.1527,70.656107 1427.5938,71.75 1426.1501,74.575265 1426.1602,75 1427.4688,75 1428.2967,75 1429.9201,73.0875 1431.0938,70.75 1431.2468,70.445255 1431.7868,69.559424 1432,69.15625 z M 1432,37.78125 1432,33.40625 C 1427.8232,40.061872 1421,52.921742 1421,54.21875 1421,56.973298 1423.7609,53.406456 1428.1562,44.96875 1429.9321,41.559702 1430.8571,39.879121 1432,37.78125 z M 1382.5312,20.40625 C 1382.223,20.540419 1381.7363,21.058684 1381,22 1379.9245,23.375 1379.0564,25.175 1379.0625,26 1379.0702,27.046233 1379.6594,26.77162 1381.0312,25.125 1382.113,23.826569 1382.981,22.026569 1382.9688,21.125 1382.9604,20.507792 1382.8395,20.272081 1382.5312,20.40625 z M 1402.2812,20.5625 C 1401.8742,20.833726 1401.2723,21.399059 1400.4688,22.3125 1399.1111,23.85567 1398.0114,25.65567 1398.0312,26.3125 1398.0509,26.96933 1399.1788,26.15 1400.5312,24.5 1402.9365,21.565611 1403.5025,19.748822 1402.2812,20.5625 z M 1421.375,22.09375 C 1420.6987,22.678412 1419.2926,24.949465 1417.75,28.03125 1415.6932,32.140298 1412.4197,38.2 1410.5,41.5 1408.5804,44.8 1407.0066,48.0625 1407,48.75 1406.9781,51.045722 1408.5573,50.036022 1410.125,46.75 1410.9778,44.9625 1414.0167,39.02261 1416.875,33.5625 1419.7334,28.102389 1421.9448,22.942687 1421.7812,22.09375 1421.7404,21.881516 1421.6004,21.898863 1421.375,22.09375 z M 1381.6562,41.5 C 1380.327,41.396149 1379.4951,41.875747 1378.5625,42.90625 1376.3866,45.310645 1374.09,51.57015 1374.0312,55.25 1374.0025,57.047286 1374.5197,58 1375.5,58 1376.5957,58 1376.9893,56.854559 1377,53.75 1377.0185,48.438513 1378.8943,44.585946 1381.6562,44.1875 1382.8211,44.019472 1385.9136,44.878028 1388.5,46.09375 1392.4304,47.94125 1393.3503,48.080492 1394.0938,46.90625 1395.5212,44.651507 1395.15,43.827566 1393.0312,44.5 1391.9456,44.844614 1389.5831,44.438819 1387.7812,43.625 1384.8277,42.290872 1382.9855,41.603851 1381.6562,41.5 z M 1387.4375,53 C 1386.9861,53.302837 1387.9443,56.000964 1390.5938,60.90625 L 1394.375,67.9375 1390.8125,73.21875 C 1384.9621,81.863637 1384.7463,82.47126 1386.4688,86.59375 1387.3065,88.598479 1388,91.269251 1388,92.53125 1388,93.793248 1388.5625,95.0146 1389.25,95.25 1391.1073,95.885953 1394.6997,93.23722 1395.375,90.71875 1395.6999,89.506864 1395.9925,86.93062 1396,85 1396.0094,82.587626 1396.8377,80.557502 1398.6875,78.5625 L 1401.375,75.6875 1404.9688,79.84375 C 1408.5385,83.988509 1410,84.898336 1410,83 1410,81.572132 1402.9791,74 1401.6562,74 1399.8483,74 1394.0148,81.196878 1394,83.4375 1393.9788,86.649518 1392.8759,90 1391.8438,90 1390.8405,90 1387.9826,83.901107 1388,81.78125 1388.0058,81.076084 1390.033,77.817478 1392.5,74.53125 1397.5284,67.833084 1397.5523,67.320976 1392.6875,59.5 1389.7546,54.784894 1387.8889,52.697163 1387.4375,53 z M 1410.8438,70 C 1409.4173,70 1409.8889,71.456006 1412.9688,76.3125 1415.5439,80.373092 1418,82.340675 1418,80.375 1418,79.187531 1411.6631,70 1410.8438,70 z"/>
</svg>
