<?xml version="1.0" encoding="UTF-8"?>
<svg xmlns="http://www.w3.org/2000/svg" viewBox="1173.22 18.6 38.2 82.54">
  <path d="M 1175.2188 27.625 L 1175.2188 30.90625 L 1175.4062 31.9375 C 1176.0972 30.683146 1177.7918 29.634963 1182.0312 27.5 C 1189.976 23.499105 1192.9698 23.838008 1193.0312 28.78125 C 1193.0499 30.274399 1193.2587 34.2 1193.5 37.5 C 1193.9197 43.238914 1192.659 49 1190.9688 49 C 1189.5307 49 1186 55.679995 1186 58.40625 C 1186 59.873182 1186.7639 62.215398 1187.6875 63.625 C 1189.1365 65.83655 1189.1811 66.486862 1188 68.34375 C 1184.575 73.728385 1182.8812 78.537692 1182.4062 84.28125 C 1181.5213 94.985373 1184.9432 96.088242 1188.9375 86.375 C 1191.3723 80.454272 1194.7905 75 1196.0625 75 C 1196.9925 75 1200.4283 83.188896 1202.4688 90.25 C 1204.2825 96.526302 1205.5287 97.389632 1207.0312 93.4375 C 1209.4217 87.15014 1207.4379 73.347993 1203.5312 69.03125 C 1202.0182 67.359245 1202.0113 66.913183 1203.4375 63.5 C 1206.0059 57.352847 1205.4962 55.044504 1200.2812 49.75 L 1195.5312 44.96875 L 1195.4375 36.71875 C 1195.3111 26.650978 1193.6104 22.354138 1189.9688 22.84375 C 1188.6083 23.026661 1184.935 24.300743 1181.8125 25.6875 C 1178.7104 27.065208 1175.7661 27.928189 1175.2188 27.625 z M 1194.7812 49.1875 C 1196.2284 49.011256 1197.8374 49.826673 1199.9375 51.59375 C 1203.4553 54.553833 1203.8315 57.479476 1201.375 62.65625 C 1199.7889 65.998663 1199.8084 66.226986 1202.4062 71 C 1205.13 76.004601 1207.0914 86 1205.3438 86 C 1204.8231 86 1202.9918 82.85 1201.2812 79 C 1199.2972 74.534775 1197.5859 72 1196.5625 72 C 1195.6802 72 1193.2693 74.642029 1191.2188 77.875 C 1189.1683 81.107972 1186.9677 84.595472 1186.3125 85.625 C 1185.2468 87.299629 1185.1151 87.155234 1185.0625 84.28125 C 1184.9878 80.199007 1188.7454 70.021777 1190.5938 69.3125 C 1192.6041 68.541055 1192.3264 65.238771 1190 62.28125 C 1187.3806 58.951273 1187.4717 57.221094 1190.5312 52.71875 C 1192.0298 50.513407 1193.3341 49.363744 1194.7812 49.1875 z "/>
</svg>
