<?xml version="1.0" encoding="UTF-8"?>
<svg xmlns="http://www.w3.org/2000/svg" viewBox="1210 16.12 43.01 85.29">
  <path d="M1220.8819 92.0C1219.3841 87.000856 1220.7274 81.876325 1224.918 76.603142C1227.3733 73.513611 1227.7038 72.454123 1226.9895 69.963505C1226.5221 68.333577 1226.3448 67.0 1226.5955 67.0C1226.8462 67.0 1226.3414 65.627102 1225.4737 63.949115C1223.6336 60.390782 1221.2306 60.605568 1216.8313 64.721583C1213.8072 67.550908 1212.0 67.053303 1212.0 63.391323C1212.0 60.054014 1214.5095 55.26138 1218.4883 51.0C1221.3083 47.979663 1221.8483 46.544838 1222.4284 40.530391C1223.3815 30.64988 1228.6096 20.0 1232.5069 20.0C1233.9966 20.0 1240.108 27.536961 1241.8091 31.471855C1242.5291 33.137335 1243.3852 37.350874 1243.7116 40.835274C1244.1044 45.027808 1245.0793 48.311317 1246.594 50.543369C1248.7486 53.718369 1250.982 59.929683 1250.9944 62.781385C1251.0063 65.510117 1247.8044 65.28755 1245.4263 62.394342C1242.5542 58.900138 1241.4726 59.928268 1240.4878 67.088675C1239.9745 70.820796 1240.2931 72.654199 1242.0551 76.108028C1245.3201 82.508019 1246.0751 85.953357 1245.3726 91.248535C1244.5543 97.417307 1242.3132 97.539406 1239.1556 91.58725C1236.5336 86.644659 1232.5965 82.513318 1231.2823 83.325507C1230.8062 83.619781 1229.0854 86.590894 1227.4583 89.92798C1225.8312 93.265066 1223.9556 95.996442 1223.2901 95.997704C1222.6247 95.998967 1221.541 94.2 1220.8819 92.0Z M1227.9031 84.0C1229.685 81.25 1231.7332 79.0 1232.4547 79.0C1233.1761 79.0 1235.2815 81.011086 1237.1332 83.469079C1238.9849 85.927073 1241.0625 87.952073 1241.75 87.969079C1243.7869 88.019466 1243.1827 83.262282 1240.4068 77.394679C1238.1254 72.572125 1237.8984 71.167127 1238.5182 65.706605C1239.4437 57.553868 1240.2173 56.646114 1244.6582 58.501656C1248.0494 59.918582 1248.1043 59.903144 1247.4255 57.723633C1245.7702 52.408983 1244.9245 50.914161 1243.265 50.370301C1242.2943 50.052155 1239.6381 48.853791 1237.3624 47.707271C1233.5684 45.795776 1233.0286 45.750311 1230.8624 47.159719C1229.5631 48.005086 1226.783 49.25962 1224.6844 49.947572C1220.897 51.189165 1215.0 57.706055 1215.0 60.650038C1215.0 62.414592 1215.3583 62.368008 1220.0 60.0C1222.1562 58.9 1224.3671 58.0 1224.9132 58.0C1226.2116 58.0 1228.6071 63.25158 1230.1125 69.398556C1231.2883 74.199279 1231.2567 74.337552 1228.5327 76.32189C1225.6278 78.437971 1223.0 83.494319 1223.0 86.967881C1223.0 90.222339 1224.4333 89.354741 1227.9031 84.0Z M1236.4987 37.863377C1238.5068 38.5895 1240.3951 38.938273 1240.6949 38.638428C1240.9947 38.338584 1240.9356 36.470425 1240.5635 34.486963C1239.8728 30.805009 1233.7605 23.0 1231.5678 23.0C1229.5839 23.0 1225.956 30.576036 1225.3041 36.080044L1224.6935 41.236147L1228.7706 38.88965C1232.501 36.742707 1233.1582 36.655429 1236.4987 37.863377Z M1237.0506 45.020945C1242.5275 47.289571 1242.3973 43.342435 1236.9048 40.602419C1233.8428 39.074846 1233.4218 39.101484 1229.3313 41.081679C1226.6799 42.365178 1225.0 43.854886 1225.0 44.92254C1225.0 47.711703 1225.8085 47.843837 1230.0461 45.747244C1233.4858 44.045386 1234.4532 43.94508 1237.0506 45.020945Z"/>
</svg>
