<?xml version="1.0" encoding="UTF-8"?>
<svg xmlns="http://www.w3.org/2000/svg" viewBox="752.27 16.15 77.62 84.7">
  <path d="M 823.46875 29.71875 C 823.0642 29.263901 822.67089 28.675173 822.25 27.8125 C 821.56626 26.41108 820.31433 24.670519 819.46875 23.96875 C 818.09658 22.829953 817.99876 23.722976 818.59375 32.1875 C 819.17509 40.457751 818.99745 42.564607 817.03125 48.59375 C 813.66627 58.9121 813.14681 59.16193 807.09375 53.5 C 802.37948 49.090352 801.72634 48.781442 798 49.28125 C 792.47042 50.022921 791.66101 48.297668 793.625 39.6875 C 794.46251 36.015831 795.46103 33 795.84375 33 C 796.22648 33 797.59996 33.731928 798.875 34.625 C 801.04038 36.141694 801.36451 36.126872 803.84375 34.28125 C 807.58931 31.492929 808.82066 27.534441 806.96875 24.25 C 804.94701 20.664362 803.91166 20.559743 799.625 23.46875 C 797.57881 24.857329 795.50643 26 795 26 C 794.49356 26 792.5355 24.65 790.65625 23 C 788.77701 21.35 786.79933 20 786.28125 20 C 785.76317 20 783.18673 21.549524 780.53125 23.4375 L 775.6875 26.875 L 772.125 24.4375 C 767.93189 21.588212 766.69021 21.434791 764.5625 23.5625 C 762.19262 25.932375 762.39771 34.692407 764.84375 35.46875 C 766.95673 36.139382 770 35.209525 770 33.90625 C 770 33.427773 771.12224 32.308989 772.5 31.40625 C 776.53008 28.765634 778.64812 32.032737 780.5 43.75 C 781.34093 49.070753 779.47626 50.146381 775.09375 46.90625 L 772.0625 44.6875 L 768.09375 47.4375 C 765.8995 48.958118 762.44996 51.635359 760.4375 53.375 C 756.81809 56.503729 756.77076 56.647805 756.25 65.78125 C 755.79678 73.730051 755.92916 75 757.28125 75 C 759.26629 75 762.11584 70.893048 764.40625 64.71875 C 767.29633 56.9279 772.06353 55.226741 776.78125 60.28125 C 781.06165 64.867211 780.66507 67.160724 774.5625 74 C 771.49504 77.437768 769.00557 81.20689 769 82.375 C 768.99443 83.54311 769.98022 87.3125 771.1875 90.75 C 772.39478 94.1875 773.94564 97 774.65625 97 C 776.84038 97 779.34488 92.078995 779.1875 88.0625 C 779.03107 84.070218 781.92214 78.650333 785.3125 76.59375 C 786.81171 75.684332 787.6738 76.127864 790.46875 79.15625 C 793.69078 82.64739 793.80298 83.027591 793.28125 88.78125 C 792.79851 94.105051 792.97514 94.908399 794.78125 95.875 C 796.38558 96.733609 797.21675 96.617153 798.75 95.25 C 800.76524 93.453066 804 84.433424 804 80.59375 C 804 78.360118 799.08184 69.791206 797.09375 68.5625 C 795.39903 67.515104 795.80767 63.504812 797.78125 61.71875 C 799.43194 60.224898 799.89235 60.453252 804.75 65.0625 C 807.61862 67.784432 810.69133 70 811.5625 70 C 812.87757 70 813.0577 70.891156 812.59375 75.25 C 811.951 81.288636 813.67939 87.300499 816.1875 87.78125 C 817.70653 88.072415 817.67361 87.59574 815.875 82.59375 C 814.30829 78.236667 814.10892 76.633739 815 74.96875 C 816.68115 71.827483 818.67985 74.09931 819.5 80.0625 C 820.13204 84.65798 821.16947 86.138096 822.375 84.1875 C 823.17226 82.897505 820.87495 74.673803 819.15625 72.6875 C 817.88915 71.223123 817.81368 70.557084 818.8125 69.1875 C 824.67391 61.150346 826.35858 52.443786 824.625 38.9375 L 823.90625 33.34375 L 824.09375 33.21875 L 823.53125 30.90625 L 823.46875 29.71875 z M 785.875 21.875 L 789.65625 25.3125 L 793.40625 28.75 L 792.1875 35.25 C 791.52964 38.820338 791 43.825914 791 46.375 C 791 51.375644 791.04452 51.405578 797.8125 51.03125 C 800.49261 50.883017 802.06392 51.695274 806.03125 55.40625 C 808.72527 57.926183 811.30357 60 811.78125 60 C 814.90082 60 820.1875 48.41756 820.1875 41.59375 C 820.1875 39.782228 820.57404 37.677283 821.03125 36.9375 C 823.70411 32.612726 824.1903 54.179525 821.5625 60.46875 C 817.65227 69.827242 814.08578 70.301946 805.90625 62.5 C 802.73485 59.475 799.7228 57 799.1875 57 C 798.03737 57 794 64.413645 794 66.53125 C 794 67.33804 795.575 70.195541 797.5 72.875 C 801.43283 78.349213 801.7982 81.292514 799.40625 88.3125 C 798.52955 90.885477 797.39056 93 796.875 93 C 795.24045 93 794.70205 89.949339 795.875 87.375 C 796.4973 86.009194 797 84.527136 797 84.0625 C 797 82.724542 787.93459 73 786.6875 73 C 785.16486 73 777.05275 82.121838 776.90625 84 C 776.8419 84.825 776.87089 86.9625 776.96875 88.75 C 777.20221 93.014073 774.42511 93.211998 773.5 89 C 773.13898 87.356307 772.44519 85.751266 771.9375 85.4375 C 769.66667 84.034045 771.30846 79.986834 776.5 74.25 C 779.525 70.907267 782 67.341115 782 66.3125 C 782 62.695463 775.09491 55.091149 771.75 55.03125 C 768.90885 54.980372 762.93084 61.150172 762.15625 64.9375 C 761.25486 69.344806 759.43213 69.910619 758.65625 66.03125 C 757.49351 60.217527 758.94397 57.086917 764.90625 52.40625 C 770.76676 47.805472 773.90649 46.977473 776 49.5 C 776.68469 50.325 778.54235 51 780.125 51 C 782.94389 51 783 50.882361 783 45.53125 C 783 42.453285 782.10548 37.652955 780.9375 34.53125 C 778.40738 27.7689 778.60644 26.450508 782.6875 23.875 L 785.875 21.875 z M 803.5 24.125 C 804.51761 24.155133 805.1939 24.969397 805.59375 26.5625 C 806.06624 28.445058 805.62944 29.761514 803.9375 31.5625 C 801.04588 34.640488 800.43738 34.617977 798.3125 31.375 C 796.62674 28.802206 796.64761 28.694129 799.34375 26.375 C 801.1209 24.846362 802.48239 24.094867 803.5 24.125 z M 769.125 24.40625 C 769.76956 24.595934 770.45771 25.020214 771.125 25.6875 C 772.34359 26.906093 773.02005 28.508398 772.6875 29.375 C 772.36438 30.217045 770.71943 31.59576 769.03125 32.46875 C 765.50959 34.289875 764.60515 33.342155 765.1875 28.4375 C 765.55547 25.338387 767.19131 23.837197 769.125 24.40625 z "/>
</svg>
