<?xml version="1.0" encoding="UTF-8"?>
<svg xmlns="http://www.w3.org/2000/svg" viewBox="69.84 19.09 61.72 86.11">
  <path d="M 124.3125,29.71875 122.53125,28.03125 C 119.80108,25.46639 117.5955,25.461465 113.4375,28.03125 L 110.15625,30.0625 106.59375,26.53125 C 104.64803,24.585529 102.23809,23 101.21875,23 100.19942,23 97.46997,24.613292 95.15625,26.59375 L 90.9375,30.1875 88.84375,27.53125 C 85.856825,23.733989 81.351317,24.334784 78.28125,28.90625 75.328538,33.302967 75.409537,34.172914 78.9375,36.78125 81.712403,38.832825 82.03974,38.865096 85.53125,37.40625 87.558935,36.559029 89.880916,36.108726 90.65625,36.40625 93.96089,37.674359 97.912777,53 94.9375,53 94.360187,53 92.586691,52.30542 90.96875,51.46875 89.350809,50.63208 86.985995,50.213192 85.71875,50.53125 79.796989,52.017518 72.649236,68 77.90625,68 79.121516,68 80.174326,66.92031 80.84375,65 81.455784,63.244319 82.972479,61.580762 84.5,61 87.842363,59.729236 88.285716,59.741781 90.3125,61.25 91.848607,62.393084 91.861326,62.917192 90.5,67.40625 89.681241,70.106162 89,74.243225 89,76.59375 89,80.016072 88.601153,80.981895 86.96875,81.5 82.306068,82.979878 76.858819,97.055825 80.15625,99.09375 81.088,99.669603 82.761293,98.687257 85.53125,95.96875 90.370358,91.219525 92.173877,91.031076 95,95 96.174904,96.65 98.044075,98 99.15625,98 100.26843,98 102.36465,96.65 103.8125,95 105.26035,93.35 107.00843,92 107.6875,92 108.36658,92 110.1828,93.575016 111.71875,95.5 116.33321,101.28324 119,99.897598 119,91.75 119,88.298962 118.38915,87.099017 115,83.875 L 111,80.09375 111,71.75 C 111,62.869176 111.79896,61 115.65625,61 118.10605,61 119.96224,63.608818 120.96875,68.5 121.79568,72.518467 124.08567,72.298575 126.1875,68 128.7581,62.742741 128.38285,60.74193 123.90625,55.65625 119.4795,50.627191 116.62396,49.856704 112,52.5 108.37279,54.573499 108.25095,54.49136 107.5,49.03125 106.79196,43.883181 109.16932,35 111.25,35 111.78338,35 113.5813,36.158379 115.25,37.5625 117.18969,39.194636 119.20616,40.006178 120.875,39.8125 123.11264,39.552808 123.54323,38.956091 123.8125,35.6875 123.92281,34.348535 124.14091,33.514216 124.5,32.8125 L 124.4375,32.78125 124.3125,29.71875 z M 101.84375,25 C 103.18105,25 108,31.264193 108,33 108,33.716616 107.05207,36.928037 105.875,40.15625 L 103.71875,46.03125 106,55.5 C 109.64472,70.631004 108.05231,86.069124 102.125,93.25 101.33052,94.2125 100.15451,95 99.5,95 97.778123,95 95.448415,92.088308 93.5,87.5 90.921307,81.427454 91.31229,71.931262 94.5,63.5 99.817711,49.435035 99.884116,47.729626 95.375,38.78125 94.067766,36.187034 93,33.422068 93,32.625 93,31.087566 100.05892,25 101.84375,25 z M 84.65625,27.125 C 85.673617,27.159513 86.619724,27.995368 87.6875,29.625 89.355942,32.171365 89.331419,32.313047 87.09375,34.125 84.060408,36.581252 81.326129,36.500928 79.9375,33.90625 79.010179,32.173535 79.223995,31.396514 81.09375,29.40625 82.544445,27.862056 83.638883,27.090487 84.65625,27.125 z M 117.59375,29.03125 C 118.95776,28.971439 120.19635,29.373694 120.5,30.25 120.73823,30.9375 121.06173,32.838298 121.21875,34.46875 121.61289,38.561552 119.15637,38.813689 115.5625,35.0625 113.16085,32.555714 112.90179,31.816856 113.96875,30.53125 114.73495,29.608032 116.22974,29.091061 117.59375,29.03125 z M 88.1875,53.03125 C 90.12523,52.779102 91.939149,53.228156 92.96875,54.46875 95.121173,57.062261 93.612778,58.414899 88.4375,58.5 85.724937,58.544604 82.7125,58.954323 81.75,59.40625 79.197768,60.604611 79.608954,59.02581 82.6875,55.8125 84.191984,54.242157 86.24977,53.283398 88.1875,53.03125 z M 117.25,53.25 C 118.69253,53.324251 119.67727,54.256889 121.78125,56.875 123.55815,59.086118 125,62.030249 125,63.4375 125,66.86303 123.50573,66.681595 121.3125,62.96875 119.40805,59.744773 116.40131,58.427396 113.21875,59.4375 112.1171,59.78715 110.8053,59.469548 110.15625,58.6875 108.68528,56.915082 111.41585,54.273081 115.59375,53.4375 116.23493,53.309265 116.76916,53.22525 117.25,53.25 z M 87.625,83.28125 C 88.249983,83.076355 89.259953,84.294069 89.84375,85.96875 90.842175,88.832833 90.680167,89.147906 87.21875,91.5 82.820795,94.488488 82,94.597949 82,92.15625 82,90.03724 85.923269,83.839148 87.625,83.28125 z M 111,83.25 C 113.43019,83.545731 117.74983,90.618931 116.65625,93.46875 115.82534,95.634051 114.87593,95.397404 111.15625,92 107.89545,89.021718 107.55568,86.283863 110.09375,83.5625 110.34272,83.295547 110.65283,83.207753 111,83.25 z"/>
</svg>
