<?xml version="1.0" encoding="UTF-8"?>
<svg xmlns="http://www.w3.org/2000/svg" viewBox="1250 23.38 34.33 69.79">
  <path d="M1260.5588 86.061358C1258.2771 83.679742 1257.8786 82.589817 1258.4567 80.311358C1258.849 78.765111 1259.2442 76.15 1259.335 74.5C1259.4828 71.811883 1259.2219 71.528701 1256.8251 71.776072C1253.8128 72.086976 1252.0347 70.307669 1254.4366 69.385948C1256.82 68.471368 1256.5007 62.338311 1254.0 61.0C1252.9 60.411298 1252.0 59.547949 1252.0 59.081448C1252.0 58.614946 1252.9 57.997907 1254.0 57.710251C1256.7357 56.994861 1256.9402 48.614059 1254.25 47.469341C1252.7527 46.83224 1252.861 46.633436 1255.0 46.092713C1257.8842 45.363604 1262.0 38.163503 1262.0 33.847127C1262.0 32.346126 1262.45 30.839919 1263.0 30.5C1264.2291 29.740346 1264.374 38.179317 1263.1554 39.55C1262.6908 40.0725 1261.288 43.306917 1260.0381 46.737594C1257.1269 54.727722 1257.442 64.00332 1260.7842 68.696913C1263.415 72.391616 1263.5287 74.077006 1261.4216 78.151704C1259.9215 81.052541 1259.9549 81.323142 1262.0959 83.602044C1265.0532 86.750006 1267.0248 86.627368 1270.4192 83.084296C1273.1471 80.23698 1273.1733 80.101887 1271.5327 77.324661C1269.9251 74.60321 1269.9636 74.150549 1272.4264 66.814048C1275.7495 56.914694 1275.6697 52.112634 1272.0 41.159392C1268.7929 31.586953 1268.1597 26.553804 1270.25 27.249167C1270.9375 27.477876 1271.8309 30.29181 1272.2353 33.502354C1272.9749 39.374435 1275.8121 44.0 1278.6743 44.0C1279.4034 44.0 1280.0 44.45 1280.0 45.0C1280.0 45.55 1279.1779 46.0 1278.1732 46.0C1275.3833 46.0 1276.5596 51.66536 1279.7889 53.781263L1282.3342 55.448977L1279.9171 56.014035C1276.9529 56.706991 1275.8922 61.800532 1278.4177 63.213899C1280.9488 64.630378 1280.4113 67.141343 1277.7215 66.466244C1275.7028 65.959575 1275.3001 66.428839 1274.1891 70.582658C1273.1154 74.597216 1273.1554 75.514258 1274.4676 76.964206C1276.779 79.518215 1276.3784 80.793256 1271.9184 85.078401C1267.038 89.76746 1264.3337 90.001472 1260.5588 86.061358Z"/>
</svg>
