<?xml version="1.0" encoding="UTF-8"?>
<svg xmlns="http://www.w3.org/2000/svg" viewBox="147.06 16.6 30.94 80.4">
  <path d="M 149.6875 78.3125 L 149.53125 81.625 C 150.19504 81.866539 150.86396 82.204323 151.9375 82.96875 C 154.58266 84.852266 155.5749 85.047621 157.53125 84.15625 C 160.74523 82.691864 163.06328 77.903676 163.75 71.25 C 164.22186 66.67805 163.90424 64.985884 162 61.5 L 159.71875 57.3125 L 162.5 51.5625 L 165.3125 45.84375 L 163.78125 38.65625 C 161.28826 27.039957 163.45525 21.006599 168.34375 25.90625 C 170.21698 27.783756 170.46845 28.973855 170.1875 34.78125 C 170.00876 38.475752 169.80809 42.85 169.75 44.5 C 169.69191 46.15 170.46066 49.575339 171.46875 52.09375 L 173.3125 56.65625 L 170.65625 60.5625 C 168.31931 64.001617 168 65.428786 168 72.65625 C 168 81.2176 167.28025 84.081083 164.28125 87.625 C 161.42659 90.998365 156.91659 91.311242 152.6875 88.4375 C 151.01807 87.303096 150.1201 86.735831 149.25 86.59375 L 149.0625 90.5 C 150.6653 90.636541 152.13522 90.973276 153.5 91.46875 C 158.67125 93.346126 161.05166 93.346214 163.6875 91.5 C 168.1737 88.357744 169.8376 83.984024 170.46875 73.65625 C 170.96594 65.520496 171.48611 63.215416 173.53125 60.125 L 176 56.40625 L 173.96875 52.1875 C 172.1686 48.461611 172.02191 46.807342 172.59375 37.75 C 173.18926 28.317605 173.06012 27.305787 171.125 24.875 C 168.09542 21.069415 164.02834 20.256212 161.78125 23.03125 C 159.52072 25.822884 159.45399 33.393759 161.625 40.03125 C 163.32454 45.227298 162.9261 46.749318 157.8125 54.9375 C 156.74125 56.652845 156.75896 57.388515 157.9375 59.25 C 161.9474 65.583596 162.15306 66.552193 160.65625 73.03125 C 159.87132 76.428881 158.50205 79.935451 157.625 80.8125 C 156.16549 82.272012 155.77672 82.20783 152.875 80.0625 C 151.45274 79.010975 150.58274 78.468919 149.6875 78.3125 z "/>
</svg>
