<?xml version="1.0" encoding="UTF-8"?>
<svg xmlns="http://www.w3.org/2000/svg" viewBox="1313.56 15.43 30.44 78.55">
  <path d="M 1340,27.118034 C 1340,26.018034 1340.45,24.839919 1341,24.5 1341.55,24.160081 1342,24.781966 1342,25.881966 1342,26.981966 1341.55,28.160081 1341,28.5 1340.45,28.839919 1340,28.218034 1340,27.118034 z M 1317.9832,31.455897 C 1315.5644,25.093885 1315.6149,19 1318.0864,19 1318.6709,19 1318.8608,19.863232 1318.5156,20.950834 1317.973,22.660466 1319.0053,28.24439 1320.6624,32.562546 1320.9658,33.353146 1320.7047,34 1320.0822,34 1319.4598,34 1318.5152,32.855154 1317.9832,31.455897 z M 1318.6667,89.333333 C 1317.5112,88.177886 1317.9388,85.532414 1319.6836,83.041369 1321.1499,80.947939 1321.347,77.812234 1321.2114,58.74479 1321.0914,41.884618 1321.3365,36.945479 1322.2778,37.259129 1323.1708,37.556703 1323.5346,42.300918 1323.6285,54.872543 1323.6991,64.33592 1324.0412,73.856394 1324.3887,76.029153 1324.8954,79.198018 1324.6227,80.377342 1323.0102,81.989812 1320.7877,84.212319 1320.3343,87 1322.1953,87 1322.8527,87 1324.6158,85.82616 1326.1133,84.391466 1328.8105,81.807337 1328.8599,81.80032 1331.3929,83.641466 1334.0099,85.543711 1335.6519,88.681479 1334.5874,89.74597 1334.26,90.073357 1332.8398,89.258675 1331.4314,87.935566 L 1328.8707,85.529912 1324.9872,87.764956 C 1320.8783,90.129748 1319.7444,90.411108 1318.6667,89.333333 z M 1335,82.781523 C 1335,81.496442 1334.2479,79.371297 1333.3288,78.058977 1331.9085,76.031308 1331.6895,73.212519 1331.8707,59.291259 1332.0962,41.966652 1332.5082,39.637049 1335.8852,36.595012 1338.5365,34.206778 1338.6088,35.239913 1336.0389,38.790493 1334.3122,41.176115 1334.0576,43.352815 1333.9093,57 1333.7745,69.411365 1334.0656,73.24085 1335.3704,76.217881 1337.2239,80.44662 1337.4633,83.595644 1336,84.5 1335.4423,84.844666 1335,84.084553 1335,82.781523 z M 1333,22 C 1333,21.45 1333.45,21 1334,21 1334.55,21 1335,21.45 1335,22 1335,22.55 1334.55,23 1334,23 1333.45,23 1333,22.55 1333,22 z"/>
</svg>
