<?xml version="1.0" encoding="UTF-8"?>
<svg xmlns="http://www.w3.org/2000/svg" viewBox="500.41 13.58 65.57 82.39">
  <path d="M517.45811 86.689466C514.38907 79.985798 514.95126 78.035287 521.51763 72.605164C526.06258 68.846676 526.21011 68.556446 525.73199 64.314584C525.09703 58.681216 522.50294 55.656953 519.04935 56.523751C515.27445 57.47119 513.92761 58.933227 511.24097 65.0C508.79681 70.519219 507.28257 72.29267 505.79775 71.375C504.4901 70.566829 504.91947 53.689293 506.29359 51.884644C506.97008 50.996198 510.33574 48.849712 513.77283 47.114674C519.703 44.121137 520.17217 44.037671 522.96138 45.48003C524.578 46.316014 526.37303 47.0 526.95034 47.0C528.45367 47.0 528.24625 39.525126 526.63597 35.67119C525.34499 32.581435 519.80121 27.0 518.02327 27.0C517.57047 27.0 515.59378 28.60622 513.63062 30.569377C510.93597 33.264031 509.37982 34.060487 507.28062 33.819377C504.92827 33.549191 504.45015 32.978119 504.17632 30.111627C503.39192 21.900245 507.30907 18.235896 513.37771 21.504073C516.73931 23.314419 516.80474 23.308023 523.34074 20.530187C530.88378 17.324353 534.39095 17.535337 539.59977 21.508298C543.54754 24.519413 544.17923 24.564426 546.5 22.0C548.57249 19.70993 551.8181 19.415291 554.3752 21.285086C556.78084 23.044133 557.68899 30.183298 555.71547 31.821179C553.83372 33.382891 546.04803 32.288744 545.30732 30.35849C544.66968 28.696827 542.0 28.545694 542.0 30.171259C542.0 30.815452 541.35247 32.058031 540.56105 32.932546C538.9059 34.761458 538.16563 45.56563 539.59736 46.997362C540.18651 47.586509 542.6658 47.155847 546.21789 45.847352C551.8231 43.78254 551.93926 43.779995 555.19828 45.650619C559.04094 47.856249 563.0 54.953057 563.0 59.6356C563.0 61.402101 562.47271 65.13175 561.82825 67.92371C560.93143 71.808963 560.21557 73.0 558.77723 73.0C556.42616 73.0 554.0 67.526913 554.0 62.223248C554.0 60.110704 553.38534 57.541663 552.63409 56.514267C551.42899 54.866191 550.90931 54.794925 548.21988 55.908924C545.40596 57.074488 544.08405 59.098937 542.54953 64.592872C541.98518 66.613375 543.91367 69.876828 548.25 74.239408C550.49745 76.500462 550.45833 79.270734 548.08336 86.038387C546.76413 89.797667 545.56801 91.592964 544.24586 91.798257C541.52883 92.220136 539.59144 89.429727 539.70951 85.264565C539.78858 82.474941 539.05486 80.927693 536.31521 78.106766L532.82004 74.507898L530.44598 77.267907C529.14025 78.785912 527.56396 81.934135 526.94312 84.263958C525.34314 90.26818 524.58548 91.456947 522.12572 91.822454C520.35372 92.085763 519.49759 91.144269 517.45811 86.689466Z M512.04222 29.455057C513.92814 27.447585 514.20593 26.55002 513.35755 25.205057C511.65197 22.501152 507.70837 23.044462 506.62219 26.132988C505.54581 29.193646 506.34563 32.0 508.2943 32.0C509.04069 32.0 510.72725 30.854776 512.04222 29.455057Z M524.0 85.163489C524.0 81.285031 530.74794 72.0 533.56663 72.0C535.80973 72.0 542.5 81.279013 542.5 84.390056C542.5 88.263925 544.72635 88.922105 545.64914 85.321039C547.12157 79.575005 546.49836 76.331634 543.2 72.575006C541.11847 70.204274 540.0 67.88008 540.0 65.925366C540.0 58.643374 548.64728 49.802527 552.57858 53.065216C554.61847 54.758172 555.84086 57.920581 556.5081 63.231153C557.12026 68.103298 557.60778 68.792688 559.26667 67.131983C561.21208 65.184439 560.5857 56.988944 558.12616 52.209707C555.66373 47.424865 552.0293 45.378768 548.93453 47.035041C547.87054 47.604471 547.0 47.804018 547.0 47.47848C547.0 47.152942 545.99987 47.587109 544.77749 48.443296C541.89156 50.46468 537.38699 50.450851 536.60699 48.418213C536.27314 47.548229 536.0 44.365861 536.0 41.346282C536.0 37.228074 536.65436 34.739557 538.61859 31.387852C541.18465 27.009199 541.19975 26.878197 539.37095 24.857403C537.37782 22.655022 533.1477 20.301423 531.5 20.478081C528.98926 20.747269 523.05263 23.231654 522.05889 24.429036C521.21225 25.449182 521.77603 26.47418 524.49862 28.864644C528.98724 32.805703 530.0 35.533417 530.0 43.681731C530.0 50.866545 530.27518 50.69097 523.37007 47.911868C520.57409 46.786573 519.64649 46.933238 514.67647 49.286434C508.03408 52.431457 506.81724 54.31851 507.78313 59.976496L508.50421 64.20042L511.8486 60.038771C517.895 52.514834 523.83542 52.220247 527.04273 59.285288C530.01846 65.840216 529.60247 67.516845 523.38247 74.037873C518.39163 79.270241 517.852 80.238123 518.54536 82.713636C518.9746 84.246136 519.22239 86.107658 519.09602 86.850352C518.96964 87.593046 519.31524 87.923205 519.86402 87.58404C520.4128 87.244875 521.14899 87.432057 521.5 88.0C522.55466 89.706482 524.0 88.066597 524.0 85.163489Z M554.80329 27.811484C554.97911 26.882799 554.20193 25.201927 553.07621 24.076212C551.34205 22.342047 550.64539 22.204446 548.51473 23.175243C543.86499 25.293807 546.12309 30.323238 551.48689 29.79508C553.35021 29.611603 554.60453 28.861379 554.80329 27.811484Z"/>
</svg>
