<?xml version="1.0" encoding="UTF-8"?>
<svg xmlns="http://www.w3.org/2000/svg" viewBox="699.82 14.02 82.81 81.2">
  <path d="M737.24021 88.866083C736.2831 87.692429 734.53223 85.561629 733.34939 84.130971L731.19878 81.529777L727.21069 85.892689C722.58983 90.947835 720.45653 90.710478 721.47997 85.255073C721.84274 83.321336 723.28301 79.927833 724.68057 77.713957C726.66258 74.574253 727.10703 72.834608 726.70084 69.806264C726.04531 64.918948 723.52838 61.0 721.04504 61.0C717.10699 61.0 712.42362 71.829927 711.09875 84.0C710.31663 91.184369 708.14464 91.389082 705.79377 84.5C703.69338 78.344948 703.58558 73.68865 705.38363 66.785449C709.71263 50.165309 717.67743 42.76993 724.0 49.5C727.19632 52.902327 728.78926 52.640247 729.54967 48.586939C730.50868 43.474949 729.38881 41.163568 725.60951 40.454567C716.79023 38.80006 714.06155 31.205808 719.75382 24.157491C721.37841 22.145871 723.95691 20.055058 725.48382 19.511239C728.06149 18.59318 728.58037 18.895467 732.74033 23.738738L737.22065 28.954997L741.86033 26.289239C744.41215 24.823073 747.54062 22.833817 748.81248 21.868672C752.12102 19.358017 757.70724 17.709707 760.51727 18.414979C764.9553 19.528853 765.8506 29.86031 761.91957 34.596918C760.25521 36.602341 758.0 36.329342 758.0 34.122445C758.0 30.125332 755.62085 29.899909 750.43746 33.405896C743.7668 37.917849 742.2896 39.755958 741.10797 45.014773C739.89492 50.413451 740.89397 51.770805 744.3931 49.478088C746.83521 47.877953 747.16166 47.875904 749.55742 49.445666C750.964 50.367293 753.71636 52.894047 755.67378 55.060676C757.6312 57.227304 759.74286 58.975102 760.36636 58.944671C760.98986 58.91424 762.50694 57.612279 763.73765 56.051425C769.74072 48.437977 773.75052 34.984811 772.68876 26.019852C772.03502 20.500054 772.9093 19.137314 775.3641 21.849828C777.82091 24.564578 778.86849 32.204728 777.93061 40.567794C776.88349 49.904928 770.94786 61.949802 764.43554 67.952648C759.43366 72.563223 758.08048 72.853498 755.40499 69.889826C754.35724 68.72923 751.79859 66.430398 749.71908 64.781311C746.34872 62.108547 745.63646 61.907941 743.15966 62.933868C740.21813 64.152289 737.0 68.646631 737.0 71.536258C737.0 72.486479 737.82483 74.667047 738.83295 76.381966C742.06549 81.88087 743.48766 87.707474 742.02691 89.467572C740.31802 91.526667 739.30624 91.399529 737.24021 88.866083Z M740.0 84.640921C740.0 83.893428 738.70151 80.707565 737.11446 77.561225C735.39815 74.158608 734.44092 70.961197 734.75212 69.670303C735.29374 67.423571 739.59795 61.055672 741.44714 59.765313C744.24387 57.813752 747.71768 59.144674 752.5 64.0C755.20865 66.75 758.17687 69.0 759.09605 69.0C764.01054 69.0 773.83191 51.984124 775.8818 39.918087C778.0021 27.437608 776.63465 26.576359 773.63022 38.5C770.54738 50.734852 763.84525 62.0 759.64904 62.0C758.844 62.0 756.11673 59.699206 753.58842 56.887124C748.91205 51.685869 747.19703 51.162109 742.0 53.348066C741.175 53.695075 739.84154 53.560352 739.03675 53.048682C737.79565 52.259614 737.75021 51.084595 738.73744 45.309187C740.00623 37.886686 740.51048 37.25987 750.79808 30.31717L756.09615 26.741703L758.36253 28.870851C761.44329 31.765078 762.0 31.567789 762.0 27.581787C762.0 19.21606 758.34605 18.838091 746.70834 26.0C742.23974 28.75 738.04281 31.0 737.38184 31.0C736.72087 31.0 734.19003 28.690171 731.75776 25.867046C727.34677 20.747226 727.32885 20.73842 724.75388 22.425607C721.39232 24.628187 718.6436 30.443843 719.44846 33.650652C720.14673 36.432801 725.13983 39.0 729.85273 39.0L732.76969 39.0L732.25473 45.75C731.76528 52.165703 730.74938 55.0 728.93927 55.0C728.49056 55.0 726.64538 53.65 724.83886 52.0C720.76103 48.275476 718.13037 48.210349 714.74071 51.75C710.29252 56.395005 707.69461 63.628141 707.19818 72.75C706.65542 82.723052 708.02274 83.555887 710.4817 74.75C713.63257 63.466299 717.44003 58.0 722.14863 58.0C725.25169 58.0 727.09511 60.675424 729.50161 68.671616C730.77104 72.889591 730.71098 73.33708 728.42294 76.70869C725.23213 81.410614 725.36596 82.379233 728.95034 80.52568C733.05787 78.401592 733.55269 78.54017 736.0 82.5C738.2215 86.09447 740.0 87.046375 740.0 84.640921Z"/>
</svg>
