<?xml version="1.0" encoding="UTF-8"?>
<svg xmlns="http://www.w3.org/2000/svg" viewBox="1229 21.43 27.23 84.69">
  <path d="M 1240.3125 28.3125 C 1241.2575 27.58861 1242.8312 26.918673 1244.0625 26.78125 L 1246.5 26.5 L 1246.4375 47.5 C 1246.3607 69.94964 1245.7329 76 1243.5312 76 C 1242.7758 76 1240.8074 76.771094 1239.1562 77.71875 C 1231.1042 82.339963 1230.9992 97.959081 1239 100.6875 C 1243.5185 102.22839 1245.6165 102.26988 1248.2812 100.84375 C 1252.2004 98.746305 1253.0559 97.147167 1253.6562 90.71875 C 1254.2304 84.570905 1254.1381 84.243339 1250.9062 80.5625 C 1247.6727 76.879716 1247.5891 76.518543 1247.9688 69.625 C 1248.1847 65.706652 1248.3982 54.175 1248.4375 44 L 1248.5 25.5 L 1242.5 25.5 C 1241.6186 25.5 1240.9262 25.34291 1240.125 25.28125 L 1240.3125 28.3125 z M 1243.7188 78 C 1246.5621 78 1252 84.12164 1252 87.3125 C 1252 90.92162 1250.3129 90.717786 1248.2188 86.875 C 1247.2818 85.155687 1245.4426 82.455687 1244.1562 80.875 C 1241.9895 78.212471 1241.9653 78 1243.7188 78 z M 1240.125 80.03125 C 1240.5456 80.070252 1240.9174 80.556863 1241.5938 81.5 C 1242.3825 82.6 1244.5829 85.632741 1246.5 88.25 C 1248.4171 90.867259 1250 93.904759 1250 95 C 1250 97.804883 1247.5478 97.485499 1246.1875 94.5 C 1245.5614 93.125995 1243.149 89.969623 1240.8438 87.46875 C 1236.8642 83.151453 1236.7454 82.837382 1238.4062 81.21875 C 1239.2312 80.414835 1239.7044 79.992248 1240.125 80.03125 z M 1236.8438 87 C 1237.7073 87 1245 97.11516 1245 98.3125 C 1245 100.07576 1239.0078 98.844645 1237.5625 96.78125 C 1235.9395 94.464075 1235.392 87 1236.8438 87 z "/>
</svg>
