<?xml version="1.0" encoding="UTF-8"?>
<svg xmlns="http://www.w3.org/2000/svg" viewBox="1401.24 14.97 28.18 88.57">
  <path d="M1410.2563 98.903161C1409.0223 98.444441 1407.0853 96.591071 1405.9518 94.784562C1403.5703 90.988878 1403.8262 85.529415 1406.6646 79.577131C1408.3226 76.100351 1408.3134 75.703822 1406.448 70.22322C1403.2353 60.784391 1404.2799 47.022527 1409.1016 35.262582C1410.3138 32.306027 1410.1944 31.546918 1407.7254 26.512582C1404.1367 19.195461 1406.5054 19.101267 1410.3238 26.409252C1413.06 31.645979 1413.0966 31.912449 1411.5036 34.993102C1409.2994 39.255462 1407.0388 50.262334 1407.0174 56.835865C1407.0078 59.770592 1407.774 65.07662 1408.7201 68.627039C1410.3469 74.732198 1410.3469 75.345044 1408.7201 79.925387C1406.1853 87.062268 1406.4646 91.555481 1409.6403 94.731251L1412.2807 97.371593L1414.1403 95.075013C1416.3317 92.368765 1416.7296 81.659656 1414.8336 76.416252C1413.8816 73.783787 1413.9871 72.11545 1415.4069 67.345254C1420.2205 51.17217 1420.8282 46.174567 1418.908 38.548961C1417.741 33.914341 1417.9163 33.31988 1422.6934 25.713123C1426.2694 20.01903 1427.4119 22.30045 1424.0063 28.334786C1421.158 33.381785 1421.0806 33.853053 1421.9007 41.165619C1422.6442 47.795576 1422.4412 49.880568 1420.2979 57.628506C1416.0826 72.86618 1416.1038 72.703911 1417.6715 77.764137C1420.0138 85.324928 1417.7706 97.731404 1413.787 99.247417C1413.0791 99.516796 1411.4903 99.361881 1410.2563 98.903161Z M1412.2009 24.679002C1410.772 20.727355 1410.6779 19.0 1411.8916 19.0C1412.382 19.0 1413.0655 20.125 1413.4106 21.5C1414.1657 24.508495 1416.0534 24.703508 1418.4787 22.023581C1419.4624 20.936551 1420.6546 20.286513 1421.1279 20.579053C1422.0854 21.170784 1415.8478 28.0 1414.3499 28.0C1413.8284 28.0 1412.8614 26.505551 1412.2009 24.679002Z"/>
</svg>
