<?xml version="1.0" encoding="UTF-8"?>
<svg xmlns="http://www.w3.org/2000/svg" viewBox="1110.55 15.09 20.87 92.45">
  <path d="M 1119.5625 53.90625 L 1118.8125 59.78125 C 1118.9038 60.279958 1119 60.745015 1119 61.5 C 1119 63.400176 1118.7897 64.316258 1118.1875 64.71875 L 1117.6875 68.53125 C 1117.7637 68.595041 1118 68.599547 1118 68.6875 C 1118 71.507802 1114.8579 92.800486 1113.9375 96.21875 C 1112.5519 101.36428 1114.0762 103.34075 1116.5312 99.59375 C 1118.4428 96.676388 1122.0528 96.1538 1124 98.5 C 1124.6847 99.325 1126.0924 100 1127.125 100 C 1129.2604 100 1129.1232 101.71138 1129.3125 71.5 C 1129.423 53.863882 1128.1001 39.28934 1126.1562 36.5625 C 1125.7425 35.982195 1124.8019 33.7 1124.0625 31.5 C 1120.6239 21.268428 1115.5578 19.294411 1117.8125 29.0625 C 1118.4599 31.867018 1119.2749 38.532918 1119.625 43.875 L 1120.2812 53.5625 L 1119.5625 53.90625 z M 1120.3125 27.75 C 1120.4224 27.287784 1120.809 27.996021 1121.5938 29.40625 C 1122.4797 30.998229 1124.0712 36.398229 1125.125 41.40625 C 1126.9573 50.114328 1127.4021 63.233012 1126.6875 88 L 1126.5 94.5 L 1122.25 94.5 C 1118.1025 94.5 1118.0012 94.406816 1118 91.15625 C 1117.9993 89.324784 1118.7677 82.349784 1119.7188 75.65625 C 1121.544 62.810923 1122.0097 43.872135 1120.75 33 C 1120.3831 29.833142 1120.2026 28.212216 1120.3125 27.75 z "/>
</svg>
