<?xml version="1.0" encoding="UTF-8"?>
<svg xmlns="http://www.w3.org/2000/svg" viewBox="1214.22 19.57 28.09 47.72">
  <path d="M 1216.2188,53.6875 1217.4688,56.78125 C 1219.9954,56.207502 1222.847,52.37822 1224.0312,47.625 1224.5957,45.359301 1225.4939,42.705037 1226.0312,41.75 1226.5685,40.794963 1227,39.332463 1227,38.5 1227,37.653098 1227.8809,37 1229,37 1231.4586,37 1231.4672,37.289171 1229.0938,44.71875 1226.6548,52.353393 1222.1031,61.272184 1219.9375,62.90625 L 1220.8438,65.125 C 1223.4863,63.699207 1225.7349,59.103218 1229.5938,49 1232.3242,41.85094 1233.1941,40.54965 1234.9375,40.75 1237.9952,41.101388 1237.4696,39.448828 1233.5625,36.46875 1229.9162,33.687611 1227.8438,33.757623 1223.2188,36.78125 1221.1577,38.128581 1221.1229,38.370368 1222.625,39.46875 1224.1618,40.59251 1224.1427,41.023896 1222.5938,45.6875 1220.353,52.433703 1218.9521,54.185788 1216.2188,53.6875 z M 1240.3125,28.3125 1240.125,25.28125 C 1237.3012,25.063935 1234.8239,24.601202 1233.0312,23.625 1229.5918,21.751965 1229.5403,21.740588 1225.2812,24 1222.9232,25.250987 1221,26.651428 1221,27.125 1221,28.405211 1222.3769,28.184328 1224.5625,26.53125 1227.4077,24.379248 1230.6335,24.671526 1234.75,27.46875 1237.9655,29.653729 1238.5831,29.782292 1240,28.5 1240.0751,28.43206 1240.2247,28.379745 1240.3125,28.3125 z M 1230.1562,29.34375 C 1229.1704,29.273451 1228.1505,29.539451 1226.5312,30.125 1224.5147,30.854163 1222.395,32.016821 1221.8125,32.71875 1221.0303,33.661175 1221.158,34 1222.3125,34 1223.1724,34 1224.1382,33.609329 1224.4375,33.125 1225.4023,31.56394 1229.7338,31.28165 1232.1562,32.625 1233.4514,33.343219 1235.0625,33.94926 1235.75,33.96875 1238.039,34.033638 1237.0313,32.476229 1233.5938,30.625 1232.0934,29.817006 1231.1421,29.414049 1230.1562,29.34375 z"/>
</svg>
