<?xml version="1.0" encoding="UTF-8"?>
<svg xmlns="http://www.w3.org/2000/svg" viewBox="353 19.71 36.34 90.53">
  <path d="M 387.34375,93.875 387.34375,89.15625 C 386.39761,90.806492 384.65722,93.649089 383.5625,95.59375 381.05418,100.04954 379,103.98704 379,104.34375 379,106.13145 382.35491,101.57307 387.34375,93.875 z M 387.34375,62.40625 387.34375,57.03125 C 371.17395,83.282052 359.90662,102.56288 360.75,103.40625 361.63929,104.29554 362.47205,103.16931 369.53125,91.5 380.90962,72.690833 382.94345,69.536918 387.34375,62.40625 z M 387.34375,30.03125 387.34375,26.46875 C 385.39783,28.837431 382.96366,32.27695 380.59375,36.125 378.43863,39.624305 373.85859,46.775 370.4375,52 367.0164,57.225 362.52974,64.65 360.46875,68.5 358.40775,72.35 356.35028,75.915 355.875,76.4375 355.39971,76.96 355,77.9725 355,78.6875 355,81.196762 356.69368,79.955534 359.65625,75.25 367.3698,62.998375 369,60.278144 369,59.6875 369,59.12542 381.31848,39.282418 387.34375,30.03125 z M 374.5,24.21875 C 374.09228,23.829201 372.94685,24.625 371.9375,26 363.26837,37.809685 359.07776,44.321349 359.59375,45.15625 359.93017,45.700583 360.34096,45.986592 360.5,45.8125 365.20909,40.657687 375.34247,25.023691 374.5,24.21875 z"/>
</svg>
