<?xml version="1.0" encoding="UTF-8"?>
<svg xmlns="http://www.w3.org/2000/svg" viewBox="1136.63 17.94 28.96 87.77">
  <path d="M1141.453 96.53519C1140.934 93.074088 1141.3194 90.226704 1143.0248 84.922904L1145.2842 77.8961L1142.9166 68.19805C1138.6255 50.621083 1140.0969 30.842192 1146.0998 25.409647C1149.9402 21.934148 1152.3135 25.68456 1155.6492 40.5C1156.516 44.35 1157.3747 53.269167 1157.5575 60.32037C1157.8412 71.26687 1158.2266 73.824731 1160.1949 77.82037C1163.2482 84.018882 1163.5881 98.581062 1160.7215 100.38242C1158.5823 101.72672 1157.0421 99.908092 1157.0102 96.0C1156.9989 94.625 1155.923 91.737619 1154.6191 89.583597L1152.2485 85.667194L1150.974 88.048535C1150.2731 89.358273 1148.9047 92.695654 1147.9331 95.464938C1146.6987 98.983661 1145.5605 100.59346 1144.1537 100.81034C1142.4609 101.0713 1142.0312 100.39116 1141.453 96.53519Z M1160.6587 91.008375C1160.3142 87.712982 1158.9001 82.326541 1157.5162 79.038508C1155.2906 73.750701 1154.9994 71.642013 1154.9944 60.780132C1154.9891 49.152198 1153.8181 41.0 1152.153 41.0C1151.7388 41.0 1150.9371 41.462906 1150.3713 42.02868C1149.6664 42.733587 1148.4853 42.382959 1146.6187 40.914676C1145.1205 39.736199 1143.606 39.060679 1143.2531 39.41352C1141.4084 41.258293 1144.3989 68.139797 1146.9869 72.975442C1148.475 75.756114 1148.2375 78.258104 1146.022 83.140796C1143.9454 87.717066 1143.239 95.588365 1145.0026 94.498373C1146.0758 93.835147 1150.0 85.730402 1150.0 84.177309C1150.0 83.664478 1150.6153 82.73424 1151.3673 82.110114C1153.1448 80.634908 1153.8931 81.63037 1157.4863 90.25C1159.0338 93.9625 1160.5216 97.0 1160.7925 97.0C1161.0633 97.0 1161.0031 94.303769 1160.6587 91.008375Z M1151.8366 36.627937C1152.2163 34.637348 1149.1729 27.0 1148.0 27.0C1147.6171 27.0 1146.4916 28.801033 1145.499 31.002296C1143.7536 34.872882 1143.755 35.071782 1145.5419 37.046316C1147.7497 39.485884 1151.337 39.247452 1151.8366 36.627937Z"/>
</svg>
