<?xml version="1.0" encoding="UTF-8"?>
<svg xmlns="http://www.w3.org/2000/svg" viewBox="1070.6 20.65 21.88 83.9">
  <path d="M1073.3581 97.709283C1076.2289 86.271344 1076.7988 45.098854 1074.2603 32.538323C1073.5083 28.817723 1073.1394 25.527295 1073.4404 25.226262C1074.2043 24.462317 1078.0 28.043205 1078.0 29.527869C1078.0 30.197711 1078.8897 32.757189 1079.9772 35.215598C1082.9601 41.9589 1086.9686 57.676414 1087.5732 65.0C1087.8684 68.575 1088.5352 74.795062 1089.0549 78.822359C1090.478 89.848221 1090.2625 96.594679 1088.4286 98.428571C1086.2011 100.65606 1084.4805 100.38234 1082.592 97.5C1081.691 96.125 1080.4665 95.0 1079.8709 95.0C1079.2752 95.0 1077.9029 96.125 1076.8213 97.5C1074.357 100.63285 1072.5977 100.73917 1073.3581 97.709283Z M1086.9707 92.75C1086.9102 86.027477 1084.0335 58.360929 1083.0456 55.0C1082.4797 53.075 1081.5334 49.542076 1080.9427 47.149058C1080.3519 44.75604 1079.5798 43.086901 1079.2268 43.43986C1078.8738 43.792818 1078.4421 54.863242 1078.2674 68.040801L1077.9498 92.0L1080.9075 92.0C1082.987 92.0 1084.0537 92.593874 1084.5 94.0C1085.4894 97.117305 1087.0032 96.35145 1086.9707 92.75Z"/>
</svg>
