<?xml version="1.0" encoding="UTF-8"?>
<svg xmlns="http://www.w3.org/2000/svg" viewBox="982.49 38.57 31.39 65.73">
  <path d="M 990.84375 41.5625 L 989.71875 44.46875 C 989.9416 44.47641 990.04806 44.4942 990.28125 44.5 C 993.78209 44.587074 997.11602 44.959305 997.6875 45.3125 C 998.25899 45.665695 998.97544 47.813817 999.28125 50.09375 C 999.65753 52.899108 1000.8588 55.290853 1003 57.5 C 1006.0969 60.695193 1006.1451 60.843638 1004.5938 63.84375 C 1002.5188 67.856102 1002.5472 68.34069 1005.4688 72.96875 C 1006.8328 75.129394 1008.2417 78.703966 1008.5938 80.90625 C 1009.3085 85.37546 1008.3756 92 1007.0312 92 C 1006.551 92 1005.2255 89.150874 1004.0625 85.65625 C 1002.8996 82.161625 1001.3251 78.449125 1000.5625 77.40625 C 999.21409 75.562228 999.09896 75.576434 996.71875 77.8125 C 995.37264 79.077094 992.96071 82.756681 991.375 86 C 989.78929 89.243319 988.18793 91.907913 987.8125 91.9375 C 984.90236 92.166837 987.07497 81.253411 991.03125 75.78125 C 993.42019 72.47697 993.45021 71.587597 991.3125 67.96875 C 989.70563 65.248521 989.73622 64.950588 992.0625 60.5625 C 994.32494 56.294833 994.39911 55.809469 992.96875 53.25 C 991.88782 51.315814 990.49864 50.730425 987.5 50.3125 L 986.71875 52.34375 C 988.64092 52.620287 990.18946 53.485487 991 55 C 991.77846 56.454553 991.43595 57.726159 989.46875 60.625 C 987.97636 62.824155 987.20772 65.021015 987.59375 65.9375 C 990.3864 72.567586 990.39488 72.452631 987.40625 76.96875 C 984.93179 80.707915 984.49317 82.318829 984.53125 87.9375 C 984.55575 91.552666 985.14612 95.786545 985.8125 97.34375 C 987.51368 101.31909 989.08654 100.25861 990.65625 94.125 C 991.9481 89.077077 996.22926 80.601756 998.0625 79.46875 C 999.17179 78.783174 1001.7757 84.864973 1003.4062 92 C 1004.3915 96.310755 1005.1122 97.570866 1006.75 97.8125 C 1008.8872 98.127807 1009.2595 97.459723 1010.4375 91.5 C 1011.8837 84.183186 1011.2825 77.997272 1008.625 72.875 C 1005.5922 67.029316 1005.4299 65.718055 1007.5 64 C 1009.7251 62.153342 1009.3469 60.611074 1005.625 56.15625 C 1003.6445 53.785725 1002.0278 50.510801 1001.6562 48.1875 C 1000.8927 43.412172 998.93003 41.630578 994.6875 41.78125 C 993.63778 41.81853 992.22801 41.663005 990.84375 41.5625 z "/>
</svg>
