<?xml version="1.0" encoding="UTF-8"?>
<svg xmlns="http://www.w3.org/2000/svg" viewBox="777.78 35.41 35.45 66.8">
  <path d="M 789.28125 39.90625 L 788.25 42.78125 C 795.25888 41.347666 795.62994 41.74511 796.625 50.5 C 797.22529 55.781563 797.77093 56.931075 801.15625 60.03125 C 805.32961 63.853091 805.89447 66.396721 803.5625 70.90625 C 802.23192 73.479304 802.31045 73.95175 804.5 77.09375 C 806.71297 80.269343 807.35383 83.227472 807.09375 88.75 C 806.93171 92.190711 805.68741 91.443139 803.75 86.75 C 802.78589 84.414561 800.95831 81.211746 799.6875 79.625 C 797.6879 77.128297 797.07056 76.883939 795.21875 77.875 C 794.04185 78.504855 791.44233 81.479603 789.4375 84.5 C 784.57309 91.828547 783.54162 92.343886 784.25 87.0625 C 784.57718 84.623205 786.34503 80.541908 788.40625 77.4375 C 790.37712 74.469152 792 71.385013 792 70.59375 C 792 69.802488 790.857 67.806091 789.46875 66.15625 L 786.9375 63.15625 L 789.03125 59.125 C 790.2743 56.740145 791.00148 53.780992 790.8125 51.8125 C 790.50297 48.588322 790.37916 48.49772 786.1875 48.6875 C 786.14413 48.689463 786.10584 48.716492 786.0625 48.71875 L 785.0625 51.375 C 789.38467 51.073736 789.91635 53.283646 786.5625 59.25 L 783.78125 64.15625 L 786.40625 66.875 C 787.8393 68.370776 789 70.100764 789 70.71875 C 789 71.336736 787.35265 74.627647 785.34375 78 C 780.99412 85.30175 779.77702 92.620778 782.46875 95.3125 C 784.701 97.544754 785.50338 96.928545 788.90625 90.1875 C 790.48329 87.063397 792.71479 83.37333 793.875 82 L 796 79.5 L 798.25 82.46875 C 800.90567 85.977238 802.97891 91.474835 803 95.09375 C 803.01926 98.397304 803.82578 99.180333 806.03125 98 C 810.22556 95.755275 811.22589 85.027707 807.9375 77.59375 C 806.1869 73.636217 806.03602 72.389644 807 69.46875 C 808.41367 65.185293 807.67886 62.761716 804.0625 59.71875 C 800.07753 56.36562 799 53.859581 799 48.0625 C 799 41.805277 796.34969 38.450236 792.15625 39.40625 C 790.52549 39.778028 790.38266 39.673919 789.28125 39.90625 z "/>
</svg>
