<?xml version="1.0" encoding="UTF-8"?>
<svg xmlns="http://www.w3.org/2000/svg" viewBox="236.39 20.27 118.74 84.52">
  <path d="M281.34834 98.465389C280.67986 96.723337 282.82424 88.22666 284.13717 87.415222C286.63109 85.873899 282.52669 74.0 279.5 74.0C276.96035 74.0 274.27295 81.072502 273.51319 89.755616C272.76736 98.279595 272.30263 99.423102 270.12994 98.080305C265.39078 95.151348 266.18038 71.28054 271.34672 61.294846C273.7886 56.575084 278.6927 55.869099 284.11419 59.456867C289.04117 62.71739 291.0 62.220318 291.0 57.709524C291.0 48.605244 284.8541 40.0 278.35178 40.0C275.03968 40.0 272.12457 42.704605 264.87885 52.5C256.19182 64.243903 255.30389 66.134049 253.42139 76.889685C251.91336 85.505772 251.82207 87.885684 252.85191 91.736133C254.26654 97.02526 253.41047 98.570822 249.59648 97.613571C247.71698 97.141847 246.35145 95.465216 244.40289 91.236787C241.83439 85.663077 241.78839 85.227596 242.78436 75.917277C243.64575 67.864996 244.46352 65.033717 247.90473 58.189475C251.8678 50.307325 252.98867 46.0 251.07673 46.0C250.56892 46.0 248.76892 44.834998 247.07673 43.411106C244.62928 41.35172 244.0 40.040455 244.0 37.0C244.0 33.959545 244.62928 32.64828 247.07673 30.588894C248.76892 29.165002 250.81438 28.0 251.62218 28.0C253.22593 28.0 256.54062 31.070787 259.17817 35.0L260.85633 37.5L265.87365 32.345544C268.64881 29.494526 272.53527 26.648421 274.57045 25.976749C280.22932 24.109155 286.79613 25.410064 290.67176 29.16648C293.37404 31.785631 294.172 32.102138 295.4335 31.055193C296.26699 30.363453 299.46939 28.773098 302.54993 27.521072C309.66373 24.629809 312.55788 25.222889 322.01491 31.509912L329.15965 36.259728L333.36768 32.129864C335.68209 29.858439 338.47104 28.0 339.56535 28.0C344.4777 28.0 349.73702 35.288315 347.83578 39.461085C347.31565 40.602639 345.35073 42.591423 343.46929 43.880606C338.53382 47.262447 338.06265 51.202956 341.37738 61.375834C346.18451 76.128866 345.06814 86.728291 337.99326 93.506458C334.23806 97.104169 332.14569 95.867419 334.46457 91.420728C336.25965 87.978469 336.49133 77.343446 334.89853 71.5C334.29886 69.3 332.47009 64.428287 330.83458 60.673972C328.88216 56.192165 327.97068 52.611808 328.18047 50.248498C328.47951 46.879866 328.27556 46.591157 325.0 45.746175C323.075 45.249592 319.39427 43.078555 316.82059 40.921648C314.24692 38.764742 311.46895 37.0 310.64732 37.0C308.55035 37.0 303.21054 41.692175 301.46408 45.069456C299.73036 48.422104 299.55133 54.30871 301.10732 56.800239C301.89499 58.061502 303.14715 58.464475 305.44503 58.196211C308.37413 57.854254 308.96969 58.277672 311.83072 62.736196C317.05315 70.874657 318.62965 84.905495 315.09517 91.789838C314.04752 93.830427 311.73582 96.349382 309.95808 97.387517L306.72582 99.275033L307.49663 95.387517C309.21369 86.727616 307.49192 78.565135 303.11207 74.601419C301.17625 72.849529 301.07267 72.92307 298.59808 77.806453L296.06537 82.804518L298.66638 88.832664C300.09693 92.148145 300.99635 95.567129 300.66508 96.430406C299.69197 98.966284 295.38579 98.305155 292.97666 95.25L290.80816 92.5L287.65408 96.250044C284.28945 100.25042 282.30135 100.94888 281.34834 98.465389Z M250.69398 83.091645C250.86777 73.336517 251.2033 71.507724 253.91754 65.521585C257.39018 57.862839 262.28055 50.826998 269.47886 43.1333C275.52881 36.666987 278.0962 35.475863 281.8062 37.414107C288.70603 41.018835 292.66959 48.064566 293.116 57.518722C293.39202 63.364247 293.33668 63.507228 290.67803 63.818467C289.16909 63.995112 286.46719 63.215791 284.61078 62.068467C279.64123 58.997115 275.3819 59.323674 273.17972 62.944876C270.56699 67.241156 268.64174 78.14593 269.504 83.764362L270.23078 88.5L272.45876 81.679363C275.13597 73.483444 279.00593 68.930106 281.52072 71.017199C283.82295 72.927873 288.0 81.475305 288.0 84.275627C288.0 85.563789 287.33931 87.491249 286.5318 88.55887C285.7243 89.626492 285.0493 91.327502 285.0318 92.338894C285.00383 93.956323 285.37054 93.865998 288.07673 91.588894C291.88418 88.38513 292.39521 88.377218 293.81805 91.5C295.10266 94.319431 297.5493 94.965062 296.66018 92.25C293.45382 82.458813 293.44956 82.272823 296.29838 76.464196C297.7904 73.422011 299.72706 70.658232 300.60205 70.322465C302.44999 69.613344 308.85664 76.246091 309.44086 79.473208C311.34191 89.974179 312.60053 91.698405 314.40758 86.277271C315.7617 82.214912 313.36137 69.289906 310.40972 64.75C307.72 60.61298 307.28848 60.455805 303.43751 62.210428C301.1414 63.256605 300.59223 63.16282 299.39045 61.519298C297.54276 58.99243 297.57178 47.72877 299.43526 44.125189C301.5346 40.065509 308.64487 34.0 311.30447 34.0C312.6763 34.0 315.47003 35.814489 318.23304 38.5C320.77947 40.975 323.68125 43.051309 324.68145 43.11402C332.77791 43.621657 333.95835 44.235791 332.21215 47.03191C330.45002 49.853523 330.75703 53.879561 333.12478 59.0C337.14111 67.685613 339.00074 74.368865 339.08122 80.40655C339.16092 86.386205 339.18809 86.443975 340.53611 83.5C343.05259 78.004215 341.98714 68.252314 337.88683 59.251579C335.99305 55.094481 335.94347 54.348359 337.21479 49.139408C338.23596 44.95539 339.21191 43.204138 341.02666 42.299389C343.76454 40.934408 346.0 38.259247 346.0 36.347826C346.0 34.44612 341.90175 31.0 339.64018 31.0C337.3754 31.0 334.0 33.712525 334.0 35.532543C334.0 36.204955 333.34242 37.300857 332.5387 37.96788C330.47041 39.684407 325.67215 37.92118 319.22131 33.074109C311.98963 27.640328 309.27252 27.230317 302.48897 30.5492C299.44873 32.036647 296.71843 33.646579 296.42162 34.126825C295.40037 35.779237 292.60367 34.994476 289.74154 32.252377C286.01141 28.67869 280.55276 27.096355 276.0 28.269028C273.86784 28.818218 270.23525 31.384378 266.70499 34.835269L260.90998 40.5L256.58642 35.529599C252.48334 30.812652 252.12577 30.621666 249.57417 31.784254C247.18287 32.873801 246.91945 33.478911 247.19273 37.254655C247.46723 41.047284 247.89989 41.695399 251.25 43.332358C256.17147 45.737129 256.12935 48.051329 250.9896 57.638784C248.05458 63.113649 246.56408 67.525124 245.43108 74.090516L243.88296 83.061427L246.55883 88.530713C248.03056 91.538821 249.51939 93.995524 249.86735 93.990053C250.21531 93.984582 250.58729 89.080299 250.69398 83.091645Z"/>
</svg>
