<?xml version="1.0" encoding="UTF-8"?>
<svg xmlns="http://www.w3.org/2000/svg" viewBox="482.32 20.54 48.58 82.81">
  <path d="M 526.1875 76.6875 C 521.82246 79.092066 517.48056 80.415034 516 79.5 C 515.52755 79.208007 514.85954 77.636987 514.5 76 C 514.0143 73.788637 514.40992 72.227086 516.0625 69.90625 C 518.25564 66.826274 518.27781 66.686196 516.59375 61.34375 L 514.875 55.9375 L 517.8125 52.21875 C 519.4204 50.172607 521.41876 47.15 522.25 45.5 C 524.32301 41.385135 525.44459 29.703352 524.03125 27.0625 C 522.74388 24.657035 520 24.299313 520 26.53125 C 520 29.49256 516.05689 39.241504 513.5 42.59375 C 508.17599 49.573898 503.57697 44.81168 503.53125 32.25 C 503.50954 26.285384 503.22104 25 501.90625 25 C 500.99334 25 499.49268 26.800808 498.40625 29.21875 C 495.63738 35.381119 495.93367 46.076936 499.03125 51.90625 L 501.375 56.3125 L 499.1875 60.09375 C 496.51701 64.733823 496.44712 66.638139 498.875 67.9375 C 501.38687 69.28181 503.37104 74.371776 502.59375 77.46875 C 501.43076 82.102473 494.96369 80.208305 490.78125 74 C 489.4287 71.992313 487.59315 70.5 486.46875 70.5 C 484.85376 70.5 484.52589 71.111943 484.6875 74.03125 C 485.02123 80.05973 486.69625 82.8183 491.96875 86.0625 C 494.734 87.763973 497 89.594863 497 90.125 C 497 90.655137 496.30135 92.454504 495.4375 94.125 C 493.96946 96.963868 493.96928 97.162612 495.625 96.84375 C 497.54578 96.473841 503.28846 85.995573 505.0625 79.625 C 506.40273 74.812237 505.74774 72.051301 502.3125 67.96875 L 499.65625 64.8125 L 502 60.5 L 504.34375 56.21875 L 501.75 51.3125 C 499.28364 46.595683 498.5159 43.141603 498.84375 38.25 C 499.09099 34.561065 500.64186 35.68046 502 40.53125 C 503.23295 44.934917 506.88539 49 509.59375 49 C 511.64424 49 516.96788 42.96712 519.3125 38 C 521.21321 33.973309 521.47624 33.771025 521.8125 35.96875 C 522.43544 40.040218 520.23271 45.441391 516 50.25 C 511.46045 55.407201 511.38301 55.828858 513.65625 61.78125 C 515.24466 65.940445 515.22552 66.263316 513.25 69.8125 C 511.45153 73.043619 511.31167 74.24417 512.125 79.34375 C 513.56554 88.375918 520 99.585498 520 93.0625 C 520 91.654362 521.62952 90.370804 525.9375 88.4375 C 526.89301 88.008691 527.77031 87.487114 528.6875 87 L 528.125 84.71875 C 524.19457 87.109377 519.07898 88.304486 517.28125 86.8125 C 514.97727 84.900367 515.73231 82 518.53125 82 C 520.82366 82 523.69269 80.991763 526.8125 79.28125 L 526.1875 76.6875 z M 489.03125 78 C 489.64786 78 490.83207 78.675825 491.65625 79.5 C 492.48042 80.324174 494.33846 81.273336 495.8125 81.625 C 499.13878 82.418556 501.16051 83.955152 500.4375 85.125 C 499.45394 86.716435 496.45192 86.038551 492.96875 83.46875 C 489.17476 80.66963 487.25544 78 489.03125 78 z M 507.375 90 C 506.31689 89.988422 501 96.192992 501 97.4375 C 501 98.575321 502.42661 97.936493 504.6875 95.8125 L 507 93.65625 L 509.5 96 C 510.87283 97.289708 512.24598 98.097769 512.5625 97.78125 C 513.37596 96.96779 508.74396 90.014979 507.375 90 z "/>
</svg>
