<?xml version="1.0" encoding="UTF-8"?>
<svg xmlns="http://www.w3.org/2000/svg" viewBox="1386.58 19.95 53.15 89.12">
  <path d="M 1437.3125,28.5625 C 1436.5342,29.713225 1435.823,30.684913 1435,32.03125 1431.975,36.979946 1426.9205,45.170392 1423.7812,50.25 1420.6419,55.329607 1416.9347,61.525 1415.5312,64 1410.6914,72.536102 1409.4744,74.517374 1406.0938,79.5 1401.3105,86.549654 1393,99.890266 1393,100.5 1393,102.18829 1396.1686,100.55376 1397.375,98.25 1398.167,96.7375 1402.5717,89.758087 1407.1562,82.75 1411.741,75.741912 1418.2,65.284612 1421.5,59.5 1424.8,53.715388 1429.9005,45.2823 1432.8438,40.75 1434.9067,37.5733 1435.9067,35.652635 1437.3125,33.25 L 1437.3125,28.5625 z M 1437.3125,58.375 C 1431.6584,66.956566 1429.3858,70.686221 1426.0938,76.875 1424.7779,79.348784 1422.6405,82.76618 1415.1562,94.40625 1413.4159,97.113044 1412,99.925549 1412,100.65625 1412,105.01908 1417.712,97.859148 1427.25,81.5 1430.4789,75.962113 1434.1826,69.914717 1437.3125,64.84375 L 1437.3125,58.375 z M 1437.3125,89.84375 C 1433.9774,95.548048 1431,100.83722 1431,101.34375 1431,101.70791 1431.6305,102 1432.4062,102 1433.0153,102 1434.8928,99.656766 1437.3125,96.125 L 1437.3125,89.84375 z M 1420.75,24 C 1420.0591,24 1415.8966,29.95557 1411.5,37.21875 1393.6972,66.629116 1389.0051,74.534306 1389,75.25 1388.9971,75.6625 1389.6395,76 1390.4062,76 1391.1731,76 1394.3499,71.6125 1397.4688,66.25 1400.5877,60.8875 1405.1192,53.35 1407.5625,49.5 1412.5911,41.576282 1422,25.31489 1422,24.53125 1422,24.246709 1421.4409,24 1420.75,24 z"/>
</svg>
