<?xml version="1.0" encoding="UTF-8"?>
<svg xmlns="http://www.w3.org/2000/svg" viewBox="573.34 12.7 56.22 91.07">
  <path d="M 581.65625,84.5 582.65625,85.34375 583.84375,89.40625 C 584.45956,90.060869 585,90.89865 585,91.5625 585,91.698841 584.7512,91.922601 584.65625,92.09375 L 586,96.65625 586,97.1875 C 586.06081,97.28083 586.12555,97.264293 586.1875,97.375 587.45406,99.638225 588.28732,99.430313 591.34375,96 593.59339,93.475155 593.91745,92.384357 593.40625,89.1875 592.84882,85.701481 593.10808,85.155464 596.34375,82.6875 600.91187,79.203221 603.15216,79.308413 606.96875,83.125 609.93903,86.095279 610.05659,86.496749 609.4375,91.96875 608.86981,96.986451 608.99607,97.776331 610.625,98.40625 612.00706,98.940706 613.21751,98.276571 615.3125,95.8125 622.17462,87.741462 622.28098,84.560062 615.90625,77 610.79468,70.937991 610.06613,66.095029 613.6875,62.1875 L 616.1875,59.5 618.09375,61.875 C 619.15008,63.17951 620.27979,65.432047 620.59375,66.875 621.55172,71.277802 621.9067,72 623.03125,72 624.72482,72 627,65.522313 627,60.71875 627,55.655192 624.50752,47.676083 622.375,45.90625 621.18836,44.921424 619.81458,45.128649 615.375,46.96875 611.50608,48.57233 609.55011,48.925103 608.8125,48.1875 607.30407,46.679065 609.64682,35.096486 612.09375,31.96875 613.91227,29.644257 614.11391,29.612507 615.375,31.25 617.19152,33.608699 619.37208,33.467401 622.53125,30.75 624.67007,28.910263 625.03783,27.954893 624.46875,25.6875 624.08334,24.151892 622.68569,22.1713 621.375,21.3125 619.37105,19.999462 618.49556,19.971666 615.9375,21.03125 613.13825,22.190738 612.66979,22.060436 610.0625,19.5625 L 607.25,16.84375 601.53125,19.90625 C 596.16874,22.767843 595.69175,22.852043 593.4375,21.375 591.34841,20.006176 590.49646,19.978276 586.78125,21.15625 582.32938,22.567795 581.33165,24.218433 582.40625,28.5 583.45841,32.692113 585.53623,33.968994 589.40625,32.78125 591.29217,32.202445 593.50884,31.992116 594.34375,32.3125 596.39171,33.098378 597.59412,41.400638 596.125,44.625 595.0634,46.954957 594.86885,47.024711 592.78125,45.5625 589.48375,43.252842 583.59569,43.577868 580.5,46.25 578.49807,47.978022 577.64178,50.088435 576.75,55.3125 575.92126,60.167298 575.89313,62.600656 576.65625,63.8125 578.19139,66.250313 581,66.572865 581,64.3125 581,63.299845 582.13642,60.771423 583.53125,58.71875 588.17651,51.882637 592.49206,54.879386 593.625,65.71875 594.24783,71.677693 594.19707,71.844741 591.375,73.3125 587.67106,75.238912 584.42177,78.775994 583.09375,82.28125 582.75053,83.187163 582.22759,83.880985 581.65625,84.5 z M 606.875,20.03125 609.03125,22.75 C 611.33791,25.682437 611.27966,26.300855 608.03125,35.3125 605.4945,42.349893 605.15154,49.557788 607.25,51.65625 608.58001,52.986259 609.31615,52.888058 613.84375,50.59375 616.64754,49.172964 619.38334,48 619.9375,48 622.10627,48 624.11164,54.064856 623.8125,59.78125 L 623.5,65.5 621.125,61.34375 C 617.09999,54.318641 613.70075,54.974642 610.46875,63.4375 608.34926,68.98731 608.87055,71.104371 613.96875,77.9375 618.73925,84.331417 619.00369,87.321778 615.21875,91.75 613.69091,93.5375 612.11463,95 611.71875,95 610.61159,95 610.8594,92.546854 612.09375,91.3125 614.33418,89.072075 612.00787,84.044203 606.8125,79.9375 601.83734,76.004868 601.80947,75.990986 598.9375,77.6875 592.63174,81.412406 591,83.737246 591,89.03125 591,91.831459 590.53093,94 589.9375,94 588.55636,94 586,87.78384 586,84.4375 586,81.499063 591.76404,75 594.375,75 596.49822,75 597.39222,71.020572 596.53125,65.25 594.4598,51.366339 587.49108,47.986973 581.09375,57.78125 578.1942,62.220459 577.17621,60.637844 579.0625,54.625 581.57877,46.603989 586.80245,43.8498 592.46875,47.5625 594.38337,48.81701 595.29477,48.898086 597.03125,47.96875 599.03173,46.898126 599.16877,46.280258 598.625,40.15625 598.29988,36.494775 597.77135,31.660073 597.4375,29.40625 596.83129,25.313802 596.81667,25.316092 601.84375,22.6875 L 606.875,20.03125 z M 589.25,23 C 589.99471,22.96422 590.77708,23.097589 591.5,23.375 593.3219,24.074129 593.47617,27.383092 591.75,28.71875 588.01712,31.607133 585,30.529937 585,26.3125 585,24.492874 587.01586,23.10734 589.25,23 z M 617.78125,23.375 C 619.31553,22.945101 620.98641,23.798 621.6875,25.625 622.08399,26.658221 621.61743,27.816311 620.46875,28.65625 617.96092,30.490022 617.26342,30.352501 615.9375,27.875 615.04234,26.202368 615.1113,25.451198 616.3125,24.25 616.74943,23.813067 617.26982,23.5183 617.78125,23.375 z"/>
</svg>
