<?xml version="1.0" encoding="UTF-8"?>
<svg xmlns="http://www.w3.org/2000/svg" viewBox="87.92 15.06 58.19 89.05">
  <path d="M 140.1875,62.21875 C 138.85109,61.574138 137.66749,59.714363 136.0625,56.59375 133.77296,52.14216 131.90655,51.025692 126.75,51 L 124.03125,51 124.15625,43.53125 C 124.29704,36.124196 124.34663,36.041383 127.96875,33.53125 132.65149,30.286111 133.61066,30.346413 135.5,34 137.55149,37.967145 141.67271,38.200483 142.625,34.40625 143.46389,31.063853 141.56821,24.827171 139.03125,22.53125 135.95497,19.747258 127.66327,20.280261 122.65625,23.59375 L 118.6875,26.25 116.875,23.875 C 115.87344,22.572643 115.04348,21.11411 115.03125,20.625 114.99338,19.110794 104.6565,20.869923 102,22.84375 98.75495,25.254883 98.391003,28.838295 100.8125,34.3125 102.83191,38.877711 105.055,40 112.0625,40 115.51043,40 116.3782,42.226964 115.4375,48.5 114.66235,53.669078 114.51355,53.703634 104.25,51.8125 97.919941,50.64614 97.746497,50.672522 95.9375,53.0625 93.141633,56.756294 90.566029,68.534345 90.65625,77.21875 90.718516,83.21222 91.279144,85.996555 93.125,89.71875 96.056028,95.629207 99.456152,96.973915 98.5,91.84375 97.405599,85.971818 97.406357,75.594888 98.5,72.5 100.01064,68.225046 101.94048,65 102.96875,65 104.34288,65 107.55398,70.867277 109.96875,77.78125 112.14614,84.015555 112.14845,84.094874 110.25,87.3125 107.86591,91.353237 106.80108,95.34059 107.59375,97.40625 108.42755,99.579096 109.27381,99.405921 112.0625,96.4375 113.8072,94.580346 113.97342,94.081039 112.71875,94.5625 110.39856,95.45284 110.50214,93.399389 113,88.5 L 115,84.59375 112.875,78.5625 C 109.01877,67.588611 105.51139,62 102.46875,62 101.69915,62 99.922363,64.40318 98.53125,67.34375 96.420809,71.804857 96,74.140455 96,81.5 96,90.961198 95.316559,91.663034 93.34375,84.1875 91.618216,77.648966 91.727324,72.645303 93.84375,64.5 96.659196,53.664435 97.492536,52.729343 103.5,53.46875 106.25,53.807224 110.00562,54.56758 111.84375,55.15625 113.70256,55.751541 115.55521,55.820922 116.03125,55.34375 117.29187,54.080136 118.69079,43.890516 118,41 117.49737,38.896804 116.65419,38.406731 112.5,37.8125 106.33657,36.930861 103.32692,35.356969 102.59375,32.625 100.99381,26.66327 102.93641,23.642098 109.09375,22.5 112.27412,21.910087 112.98553,22.177948 115.28125,24.90625 118.36477,28.570812 119.23027,28.674801 123.25,25.8125 125.10838,24.489221 128.34049,23.47817 131.46875,23.21875 136.03314,22.840236 136.80907,23.068291 138.15625,25.15625 140.25858,28.414584 140.93196,31.509073 139.875,33.125 139.18589,34.178549 138.32512,33.709138 136.09375,31.03125 133.54188,27.968739 132.9535,27.69498 130.84375,28.65625 129.53331,29.253325 127.06446,30.92217 125.375,32.34375 122.54895,34.721716 122.25778,35.573516 121.6875,42.96875 120.87479,53.507766 121.20953,54.309774 126.1875,53.46875 129.19887,52.959982 130.57798,53.219032 132.0625,54.5625 133.12814,55.526892 134,56.825417 134,57.4375 134,59.443847 138.79733,65.624185 140.5,65.90625 L 140.1875,62.21875 z M 141,71.9375 C 140.95715,71.940478 140.88415,72 140.84375,72 138.66836,72 131.33193,66.896499 129.28125,63.96875 128.50763,62.864248 127.42695,62.240689 126.90625,62.5625 125.41346,63.485096 123.20864,69.487427 122.0625,75.6875 121.14391,80.656597 121.23746,81.892399 122.96875,85.46875 124.05768,87.718189 125.25757,91.037822 125.625,92.875 126.25453,96.022649 126.1789,96.174043 124.21875,95.125 123.07467,94.512709 121.82388,92.988084 121.4375,91.75 121.05113,90.511917 120.22581,89.197176 119.625,88.8125 118.43116,88.048128 115,90.664472 115,92.34375 115,92.996238 115.4533,92.952949 116.1875,92.21875 117.08867,91.317578 118.21824,91.98421 121.03125,95.03125 124.96665,99.294053 127.5431,100.06541 128.40625,97.25 129.2015,94.656055 127.43765,88.076544 125.09375,84.90625 123.27258,82.442984 123.15492,81.519528 124.03125,76.8125 125.07573,71.202226 126.86924,66 127.78125,66 128.08089,66 129.03511,66.677895 129.90625,67.5 133.84853,71.220387 137.84273,73.919222 140.28125,74.53125 140.62573,74.617709 140.93625,74.607631 141.25,74.625 L 141,71.9375 z"/>
</svg>
