<?xml version="1.0" encoding="UTF-8"?>
<svg xmlns="http://www.w3.org/2000/svg" viewBox="632.51 16.9 27.93 81.65">
  <path d="M 658.4375,42.5 C 658.11802,40.958862 657.95285,39.054635 657.78125,35.25 657.12109,20.61358 655.76501,23.989967 655.625,40.65625 655.55493,48.998194 655.17612,56.167912 654.78125,56.5625 654.38639,56.957087 652.7346,56.729217 651.125,56.0625 648.56891,55.003732 648.13199,54.205163 647.59375,49.6875 647.25482,46.842686 647.16293,41.090832 647.40625,36.9375 647.64958,32.784169 647.50551,28.810552 647.0625,28.09375 646.61232,27.365337 645.93605,32.754603 645.53125,40.3125 644.86027,52.840232 644.61251,53.99171 642.375,56.09375 640.45871,57.894009 639.73127,58.104266 638.75,57.125 637.15441,55.53268 636.48004,36.28416 637.78125,29.125 638.87001,23.134802 637.9137,23.434812 636.15625,29.625 634.5067,35.435128 634.71352,50.895484 636.5625,61.5 638.9184,75.011883 642.03144,88.159893 643.625,91.25 645.1115,94.132509 647.37124,94.84113 648.625,92.8125 650.21669,90.237086 654.53514,72.559277 656.46875,60.75 656.7594,58.974913 657.30935,57.912489 658,57.40625 L 658,54.34375 C 657.38157,53.00447 656.98042,50.860023 657.53125,49.96875 657.65681,49.765591 657.84647,49.696301 658,49.5625 L 658,45.34375 658.4375,42.5 z M 646.03125,55.75 650,58.5 C 653.63404,61.018393 654.9635,63.692752 653.375,65.28125 653.03696,65.619291 651.73492,65.204628 650.46875,64.375 648.54772,63.116292 647.83213,63.101864 646.09375,64.1875 644.94796,64.903056 644,65.766145 644,66.125 644,68.085665 641.10595,67.52797 640.125,65.375 638.49506,61.797682 638.62652,61.391952 642.5,58.4375 L 646.03125,55.75 z M 647.8125,66.1875 C 648.60309,66.163201 649.37326,66.720295 650.875,67.875 L 653.28125,69.71875 651.53125,75.59375 C 650.56963,78.834262 649.34426,82.9625 648.8125,84.75 647.53382,89.048268 645.26744,88.923947 644.4375,84.5 644.07523,82.568925 643.36265,80.738884 642.875,80.4375 642.38735,80.136115 642,77.677622 642,75 642,70.931657 642.42315,69.794478 644.625,68.0625 646.21373,66.812807 647.02191,66.211799 647.8125,66.1875 z"/>
</svg>
