<?xml version="1.0" encoding="UTF-8"?>
<svg xmlns="http://www.w3.org/2000/svg" viewBox="369.75 11.84 55.73 88.72">
  <path d="M 411.8125,16 C 408.29502,16 401.91742,18.9 398.4375,22.09375 395.80266,24.511912 393.89386,24.497544 390.71875,22 382.92876,15.872396 372.28356,25.503984 376.65625,34.71875 378.68675,38.9977 381.59192,41 385.6875,41 388.58836,41 388.97447,41.365533 389.5625,44.5 390.44995,49.230526 389.62108,50.938284 386.03125,51.65625 379.62303,52.937893 374.64333,62.293865 376.65625,69.3125 377.85065,73.477119 380.61416,74.05328 381.46875,70.3125 382.65939,65.10075 385.97969,62.447246 390.8125,62.875 392.75315,63.046768 395,69.327575 395,74.53125 395,78.199328 394.46298,79.598459 392.34375,81.5625 390.88843,82.911238 389.28386,84 388.78125,84 387.2412,84 377.00754,94.207742 377.59375,95.15625 378.30025,96.299382 379.89461,95.268442 382.75,91.875 384.00381,90.384931 387.17845,87.924948 389.78125,86.40625 392.38406,84.887552 395.039,82.927881 395.6875,82.0625 399.08459,77.529235 397.82043,65.970644 393.53125,62.28125 389.89777,59.155864 387.6577,59.404979 383.125,63.5 379.68342,66.609262 379.18265,66.810702 378.75,65.15625 378.0361,62.426322 380.35702,57.644478 383.34375,55.6875 384.77276,54.751179 387.57836,54 389.59375,54 L 393.25,54 392.5625,47.9375 C 391.61551,39.56724 391.36862,39.189472 386.5625,38.46875 381.54632,37.716528 380.68107,37.20941 379.15625,34.3125 376.39177,29.060407 378.91748,23.676794 384.71875,22.5 387.38124,21.959912 388.3759,22.314156 390.34375,24.4375 391.65615,25.853602 393.13807,27.002354 393.625,27 394.11193,26.997645 396.525,25.649008 399,24 401.475,22.350992 405.37066,20.284782 407.65625,19.40625 411.21553,18.038133 412.21142,18.000136 414.5625,19.15625 417.60438,20.652053 419.05256,23.569737 418.09375,26.25 417.52385,27.843093 417.12041,27.781439 413.625,25.40625 409.25609,22.437501 408.39702,22.642133 401.5,28.4375 L 397.5,31.78125 399.5,34.03125 C 401.41167,36.175212 406.79282,39 408.96875,39 411.49936,39 409.60969,37.132007 405.5,35.5625 403.025,34.617289 401,33.478785 401,33.03125 401,31.605271 407.99828,25.998731 409.78125,26 410.72461,26.000672 412.8082,27.125672 414.40625,28.5 417.90195,31.506322 418.62293,31.577187 419.96875,29.0625 422.94328,23.50453 418.25508,16 411.8125,16 z M 391.0625,89.53125 C 389.85545,88.785248 384,93.499471 384,95.21875 384,96.178128 386.34612,94.94465 389.875,92.15625 391.57602,90.812166 391.93032,90.067589 391.0625,89.53125 z M 397.40625,39.9375 C 397.12958,39.949654 396.97318,40.028711 396.96875,40.21875 396.95252,40.915515 396.80772,44.569198 396.65625,48.3125 396.37212,55.333938 397.37179,58.020505 401.21875,60.8125 406.11956,64.369355 407.12399,72.048607 403.625,79.0625 401.7696,82.781733 402.7904,84.966514 407.84375,88.0625 L 408.875,85.25 C 408.57267,84.979611 408.29342,84.814349 407.96875,84.46875 405.86288,82.227157 405.74546,81.591039 406.75,78.71875 407.83608,75.613321 408.30788,71.123007 408.09375,66.15625 408.03802,64.86375 406.41544,62.196695 404.46875,60.25 399.83542,55.616676 399.16235,54.238706 398.875,48.6875 398.57652,42.921231 399.28986,42.157787 402.9375,44.3125 406.24289,46.265044 407,46.40298 407,45.03125 407,43.686194 399.34292,39.852421 397.40625,39.9375 z M 405.84375,93.40625 406.65625,91.28125 C 405.96117,90.860914 405.26479,90.500195 404.5625,89.96875 402.40202,88.33385 400.10755,87 399.4375,87 398.06356,87 392,93.54456 392,95.03125 392,96.530157 394.00675,96.173648 394.625,94.5625 394.92892,93.770496 396.293,92.393235 397.65625,91.5 400.02521,89.947799 400.3426,90.009012 404.90625,92.9375 405.26696,93.168968 405.50891,93.205958 405.84375,93.40625 z"/>
</svg>
