<?xml version="1.0" encoding="UTF-8"?>
<svg xmlns="http://www.w3.org/2000/svg" viewBox="1063.44 14.74 65.54 91.04">
  <path d="M 1082.9688 19.46875 C 1077.0643 18.876032 1070.212 24.753883 1068 32.96875 C 1066.4214 38.831066 1069.7058 47.151394 1074.8125 50.25 C 1077.2972 51.757585 1077.4068 52.160476 1077.5 62.15625 C 1077.5531 67.846883 1077.9604 73.295144 1078.4062 74.25 C 1079.0175 75.559188 1078.6171 76.186315 1076.8438 76.875 C 1072.8285 78.434323 1068.8841 83.456824 1068.3125 87.71875 C 1067.5826 93.160513 1070.0638 97.682262 1075.0312 99.90625 C 1078.6831 101.54126 1085 101.63663 1085 100.0625 C 1085 99.678356 1083.7068 98.419523 1082.125 97.25 C 1078.1002 94.274381 1077.3866 90.645483 1080.0938 86.84375 C 1082.5275 83.425876 1083.6263 83.420111 1092.8125 86.78125 C 1096.5254 88.139794 1098.8502 89.774405 1100.4688 92.15625 C 1103.0163 95.905352 1110.6196 99 1117.2812 99 C 1122.377 99 1122.6288 97.598341 1117.9062 95.46875 C 1109.3961 91.631252 1107.3333 83.669284 1113.0625 76.71875 C 1114.7525 74.668436 1117.0025 73 1118.0625 73 C 1120.6546 73 1120.5391 70.304341 1117.9062 69.46875 C 1115.0739 68.569809 1107.0328 69.826877 1104.2812 71.59375 C 1103.0553 72.381071 1101.3506 74.355179 1100.5 76 C 1099.6495 77.64482 1098.2784 79 1097.4688 79 C 1095.7249 79 1089.7289 73.421928 1088.125 70.3125 C 1085.4485 65.123345 1087.8456 53.133624 1092.3125 49.375 C 1095.9037 46.353204 1097.6922 46.374046 1100.5312 49.4375 C 1103.1044 52.214011 1111.9241 55.034149 1116.6562 54.59375 C 1120.3591 54.249134 1126 52.082092 1126 51 C 1126 50.588255 1123.9715 50.028573 1121.5 49.75 C 1115.8854 49.117159 1110.5539 45.207639 1109.0312 40.59375 C 1108.0688 37.677703 1108.1856 36.546319 1109.8438 33.3125 C 1112.4216 28.284998 1115.7063 25.379288 1120 24.28125 C 1121.9602 23.779964 1123.5 22.741982 1123.5 21.9375 C 1123.5 19.513324 1115.2031 19.56382 1109.625 22.03125 C 1105.4845 23.862806 1104.4689 24.951621 1102.3438 29.59375 C 1100.9814 32.5696 1099.2093 35 1098.4062 35 C 1096.33 35 1087.8994 39.429855 1085.2812 41.90625 C 1082.4168 44.615777 1081.5645 44.555823 1079.0625 41.375 C 1076.4437 38.045795 1076.4518 34.767956 1079.0625 29.375 C 1080.5943 26.210644 1082.0074 24.812 1084.5625 23.96875 C 1088.6729 22.612194 1088.8625 21.731072 1085.4062 20.15625 C 1084.6168 19.796558 1083.8122 19.553424 1082.9688 19.46875 z M 1078.2188 22.9375 C 1079.0516 22.94022 1078.8392 24.708812 1077.125 28.25 C 1074.1466 34.402508 1074.3603 38.821308 1077.875 43.03125 C 1079.458 44.927479 1080.5481 47.054506 1080.2812 47.75 C 1079.6713 49.339313 1076.9965 49.316628 1074.9688 47.71875 C 1069.1427 43.127692 1068.2581 34.709664 1072.9375 28.25 C 1075.5007 24.711584 1077.3859 22.93478 1078.2188 22.9375 z M 1112.6562 23.34375 C 1112.8696 23.557113 1111.471 26.086455 1109.5312 28.96875 C 1104.2364 36.836957 1105.1491 43.847185 1112.1875 49.15625 C 1115.4258 51.598887 1113.7323 52.536006 1108.75 51.0625 C 1104.1238 49.694279 1101 47.42914 1101 45.4375 C 1101 43.183265 1098.5808 43.224063 1093.8438 45.59375 C 1087.6835 48.675316 1085 54.022892 1085 63.15625 C 1085 68.764214 1085.3947 70.246568 1087.8438 73.59375 C 1091.3973 78.450421 1093.8655 80.571461 1096.7812 81.28125 C 1099.191 81.867846 1102 79.8181 1102 77.5 C 1102 75.929297 1107.9897 72 1110.375 72 C 1112.5877 72 1112.4296 73.502502 1109.8438 77 C 1106.8946 80.989009 1106.9196 87.680528 1109.9062 91.875 C 1111.9554 94.752671 1111.9795 94.989628 1110.3125 94.96875 C 1107.0118 94.927411 1102.0961 91.829076 1100.8438 89 C 1099.8723 86.805424 1098.419 85.884834 1094 84.65625 C 1086.9308 82.690845 1083.8026 80.227507 1081.125 74.53125 C 1078.9237 69.848208 1078.0566 56.717578 1079.875 55.59375 C 1080.354 55.297736 1080.9956 53.740903 1081.3125 52.15625 C 1082.4766 46.335578 1091.0427 39.261231 1098.4375 38 C 1100.586 37.633546 1101.5601 36.755205 1102.0938 34.75 C 1103.2838 30.27901 1107.0596 24.92912 1109.75 23.90625 C 1111.1316 23.38095 1112.4429 23.130388 1112.6562 23.34375 z M 1078.1875 79.625 C 1079.04 79.407973 1079.8482 79.374888 1080.5 79.625 C 1081.9062 80.164589 1081.7984 80.608757 1079.6875 82.875 C 1075.8093 87.038727 1074.8624 89.508128 1076 92.5 C 1076.55 93.946816 1077 95.548304 1077 96.0625 C 1077 97.796722 1074.9052 97.006472 1072.4375 94.34375 C 1069.5978 91.279729 1069.4673 90.17184 1071.4062 85.53125 C 1072.565 82.758061 1075.63 80.276081 1078.1875 79.625 z "/>
</svg>
