<?xml version="1.0" encoding="UTF-8"?>
<svg xmlns="http://www.w3.org/2000/svg" viewBox="1192.92 29.7 28.93 72.9">
  <path d="M 1203.9062 33.125 L 1202.5625 35.9375 C 1203.4546 36.042752 1204.2943 36.140036 1205.4688 36.21875 C 1211.0105 36.590165 1212.2825 39.252065 1211.5 48.84375 C 1210.9481 55.608638 1211.111 56.428297 1213.4062 59.4375 L 1215.875 62.71875 L 1213.2812 66.5 C 1211.2144 69.541709 1210.9484 70.634388 1211.875 71.90625 C 1216.0879 77.689287 1216.9795 79.841908 1216.9688 84 C 1216.9498 91.425023 1215.6853 91.701631 1212.5625 84.9375 C 1211.0146 81.584474 1209.103 78.603841 1208.3438 78.3125 C 1206.3346 77.541537 1203.9415 79.908867 1201.7812 84.78125 C 1199.7114 89.449831 1198 89.551188 1198 85 C 1198 81.037395 1199.8079 77.136048 1203.4375 73.21875 C 1206.4732 69.942421 1206.4806 69.890538 1204.75 66.875 C 1202.3569 62.705375 1202.5186 61.861899 1206.4062 58.09375 C 1209.4326 55.160578 1209.7341 54.365387 1209.3125 50.65625 C 1208.7965 46.116753 1207.1213 41.03777 1206.125 40.96875 C 1205.7792 40.944797 1203.6506 40.560157 1201.4062 40.125 C 1201.1124 40.068033 1200.9313 40.107752 1200.6562 40.0625 L 1199.5625 42.34375 C 1200.28 42.429517 1201.0105 42.513495 1201.75 42.6875 C 1204.962 43.44332 1205.644 44.100079 1206.4062 47.15625 C 1207.5902 51.903205 1206.6902 54.983855 1203.0312 58.8125 C 1199.4811 62.527474 1199.3009 63.858317 1201.9688 67.25 L 1203.9688 69.75 L 1201.1562 73.625 C 1196.1053 80.612201 1194.9229 86.671012 1197.1562 94.125 C 1198.5994 98.942156 1201 99.293387 1201 94.6875 C 1201 91.228062 1205.5302 81 1207.0625 81 C 1208.7493 81 1211.3004 86.136159 1212.4375 91.8125 C 1213.0651 94.945873 1214.0039 97.457107 1214.5312 97.40625 C 1215.0588 97.355394 1216.2884 95.780394 1217.25 93.90625 C 1219.8562 88.827147 1219.5642 80.429069 1216.5625 74.5 C 1214.1797 69.79339 1214.1383 69.606604 1215.875 67.09375 C 1216.8567 65.67339 1217.9656 64.011664 1218.3125 63.40625 C 1218.6594 62.800836 1217.8255 60.807691 1216.4688 58.96875 C 1214.2937 56.020619 1214 54.573127 1214 46.9375 C 1214 39.123002 1213.7522 38.021383 1211.5312 35.625 C 1209.5038 33.437433 1208.2952 33.016249 1204.5938 33.15625 C 1204.3263 33.166365 1204.157 33.12299 1203.9062 33.125 z "/>
</svg>
