<?xml version="1.0" encoding="UTF-8"?>
<svg xmlns="http://www.w3.org/2000/svg" viewBox="1368.9 21.28 27 83.58">
  <path d="M1378.0807 97.330042C1377.1168 93.839037 1375.6796 87.159266 1372.8533 73.033079C1371.6642 67.089983 1370.8976 38.959064 1371.7488 32.506463C1372.7285 25.080282 1373.6188 31.947554 1373.0444 42.5C1372.4901 52.681494 1373.0547 62.38808 1374.272 63.605378C1374.6429 63.976207 1375.8896 63.653281 1377.0425 62.887764C1378.9842 61.598518 1379.171 60.363983 1379.5766 46.140752C1379.8174 37.695411 1380.3373 30.27133 1380.732 29.642794C1381.9274 27.738661 1382.7136 35.47801 1381.9034 41.174832C1380.9642 47.778585 1380.8305 56.765796 1381.6273 59.738696C1382.2694 62.134114 1388.6526 66.680709 1389.7845 65.548804C1390.1582 65.175172 1390.605 56.911342 1390.7776 47.184737C1391.1333 27.131211 1391.2915 25.522884 1392.5977 28.683172C1393.9006 31.835543 1392.5167 63.122557 1390.6344 73.070301C1389.7571 77.706635 1388.582 84.161872 1388.023 87.415271C1386.6791 95.237717 1384.0853 100.41668 1381.3139 100.81118C1379.5348 101.06442 1378.9328 100.41631 1378.0807 97.330042Z M1380.3954 73.0C1381.3166 73.0 1383.2179 73.751918 1384.6205 74.670929C1386.7938 76.094932 1387.3036 76.131876 1388.07 74.920929C1390.2084 71.542354 1388.2627 68.084104 1382.4831 64.990966C1380.4179 63.885713 1379.582 63.885741 1377.5166 64.991132C1374.3024 66.7113 1373.5065 69.394266 1375.0819 73.197773C1376.191 75.875351 1376.4905 76.049646 1377.5329 74.624054C1378.1861 73.730824 1379.4742 73.0 1380.3954 73.0Z M1383.392 95.208916C1384.1858 93.673819 1385.4166 89.60338 1386.1271 86.163496L1387.4189 79.909161L1384.4595 77.490543C1380.8303 74.524645 1379.8078 74.449874 1377.5156 76.982769C1375.7945 78.884502 1375.7933 79.262547 1377.4841 86.232769C1379.4318 94.261735 1380.6915 98.0 1381.4496 98.0C1381.7241 98.0 1382.5981 96.744012 1383.392 95.208916Z"/>
</svg>
