<?xml version="1.0" encoding="UTF-8"?>
<svg xmlns="http://www.w3.org/2000/svg" viewBox="1425.66 20.24 27.84 83.2">
  <path d="M 1427.6562,86.3125 1428.1562,89.96875 C 1430.1645,89.929015 1433.1433,86.451185 1435,81.96875 1436.0997,79.313768 1436.0283,77.889588 1434.4375,72.1875 1432.2266,64.262073 1432.1336,52.865734 1434.2188,45.125 1435.4787,40.447796 1435.4874,39.194322 1434.25,35.625 1433.4659,33.363478 1433.0363,29.779716 1433.3125,27.6875 1433.6589,25.063307 1433.4579,24.017482 1432.6562,24.28125 1430.8885,24.862872 1430.6713,28.793292 1431.9688,36.09375 1432.9483,41.60644 1432.8686,43.709592 1431.5625,48.75 1429.4582,56.870748 1429.6027,62.466307 1432.0938,70.53125 1434.1051,77.04301 1434.1156,77.434984 1432.4375,81.15625 1430.5502,85.341549 1429.2209,86.802774 1427.6562,86.3125 z M 1437.4062,27.25 C 1436.2822,27.58055 1436.8168,35.774287 1438.125,38.21875 1438.6636,39.22511 1439.5447,39.776869 1440.0938,39.4375 1440.7579,39.02711 1440.7602,38.427911 1440.0938,37.625 1439.5427,36.961037 1438.9105,34.281255 1438.6875,31.6875 1438.4646,29.093746 1437.8964,27.105817 1437.4062,27.25 z M 1429.125,96.71875 1429.5625,99.65625 C 1431.9356,99.358651 1434.3066,97.240177 1439,91.75 1442.879,87.2125 1446.2906,82.546038 1446.5938,81.375 1446.9227,80.104065 1446.0617,77.080158 1444.4375,73.875 1441.3811,67.843439 1440.9817,62.152565 1442.9375,52.8125 1444.006,47.709738 1444.5067,46.928406 1447.8125,45.3125 1451.0197,43.744802 1451.5,43.041838 1451.5,40 1451.5,36.696448 1451.3235,36.526598 1448.375,36.75 1445.4633,36.970622 1445.1776,36.67493 1444,32.46875 1442.7822,28.119307 1441.4351,26.221223 1440.3438,27.3125 1439.4303,28.225991 1442.0641,38.808256 1443.5,40 1444.539,40.862256 1445.398,40.842888 1447.0312,39.96875 1449.2979,38.755745 1451.4449,39.783519 1450.2188,41.5 1449.8291,42.045403 1448.15,43.167274 1446.5,44 1442.1925,46.1739 1440.0106,51.451111 1439.3125,61.34375 1438.7517,69.289427 1438.8736,70.128879 1441.3438,74.34375 1442.7973,76.824011 1444,79.500618 1444,80.28125 1444,81.061881 1441.0601,85.134819 1437.4688,89.34375 1433.5732,93.90935 1431.202,96.221038 1429.125,96.71875 z"/>
</svg>
