<?xml version="1.0" encoding="UTF-8"?>
<svg xmlns="http://www.w3.org/2000/svg" viewBox="847.8 20.61 47.03 78.78">
  <path d="M 849.9375,34.5 849.9375,37.03125 850.5,37.84375 855.5625,33.3125 C 863.15666,26.506823 864.73329,26.003032 867.6875,29.4375 870.67446,32.910054 870.60641,33.982581 867,39.84375 865.35,42.525342 864,45.369166 864,46.15625 864,46.943335 865.575,49.240388 867.5,51.28125 871.2858,55.294913 871.55091,56.106207 869.96875,59.0625 869.19912,60.500572 868.28922,60.863157 866.46875,60.40625 863.81702,59.740708 862.99335,61.413107 865.5,62.375 867.72993,63.230705 867.36781,67.099554 865,67.71875 862.63219,68.337945 862.40087,69.569487 864.5,70.375 866.59687,71.179643 866.5037,77.621224 864.375,78.8125 862.89613,79.640119 862.9115,79.911494 864.71875,81.71875 867.16528,84.16528 868.55989,90.626847 867.03125,92.46875 866.16395,93.513782 866.818,93.89162 870.21875,94.25 872.57423,94.498226 875.075,94.234147 875.78125,93.6875 876.65166,93.013787 877.86076,93.137232 879.53125,94.03125 882.84498,95.804703 883.4647,94.87576 880.84375,92.0625 879.1066,90.197885 878.88369,89.259602 879.65625,87.125 880.45889,84.9073 881.1206,84.551042 883.9375,84.78125 886.82944,85.017591 887.12549,84.849737 886.03125,83.53125 885.33606,82.6936 883.90765,82 882.875,82 880.44155,82 880.33801,78.153108 882.75,77.375 887.4407,75.861784 887.49231,75.754423 884.25,74.375 882.4625,73.614518 881,72.822189 881,72.59375 881,70.631392 882.616,69 884.59375,69 887.84999,69 887.62519,67.37837 884.25,66.53125 882.74301,66.153019 881.19084,65.300144 880.78125,64.65625 879.40614,62.494509 880.02073,56.536586 881.875,54.125 883.70454,51.745578 883.72632,51.720985 886.84375,53.5625 890.54863,55.751026 891.73264,54.954516 892.0625,50 892.69376,40.518455 890.88507,37.87855 886.53125,41.96875 885.22355,43.197271 883.70486,44.040188 883.1875,43.84375 881.4808,43.195732 872.31954,32.548487 870.625,29.25 868.76855,25.636365 865.06131,24.188172 861.6875,25.75 860.49056,26.304097 857.29293,28.705002 854.59375,31.09375 851.92067,33.459407 850.72382,34.397519 849.9375,34.5 z M 871.875,38.0625 C 873.76489,37.823261 876.01501,39.869619 879.40625,44.40625 L 882.34375,48.3125 879.65625,53.0625 C 877.14261,57.53415 877.05345,58.15975 878.125,63.15625 879.55393,69.819114 878.6535,83.833529 876.53125,87.9375 874.60264,91.667034 872.57814,91.847607 870.34375,88.4375 867.63255,84.299683 867.90152,68.932025 870.78125,62.625 873.69069,56.252909 873.58887,54.841901 870,51 866.57226,47.330592 866.28252,45.03045 868.71875,40.90625 869.73711,39.182294 870.74107,38.206043 871.875,38.0625 z M 888.28125,44.4375 C 889.95898,43.793695 891.08422,46.929449 890.28125,50 889.62009,52.528292 888.36281,52.55054 887.03125,50.0625 886.00047,48.136468 885.61005,45 886.40625,45 886.63627,45 887.48355,44.743607 888.28125,44.4375 z"/>
</svg>
