<?xml version="1.0" encoding="UTF-8"?>
<svg xmlns="http://www.w3.org/2000/svg" viewBox="1041.27 16.66 69.48 90.76">
  <path d="M 1106.125,31.15625 C 1104.8622,30.939813 1103.4646,30.363598 1101.5625,28.9375 1099.402,27.317651 1097.1934,26 1096.6562,26 1095.2426,26 1098.9358,29.854755 1100.9688,30.5 1105.6615,31.989386 1105.1778,40.686605 1099.5938,55.25 1094.9456,67.372634 1094.1435,67.828338 1085.1562,63.28125 L 1079.7812,60.5625 1077.875,62.90625 C 1073.5794,68.211027 1074.4732,72.986263 1081.0625,79.84375 1085.5713,84.536104 1085.7987,85.969247 1082.9375,92.4375 1080.3487,98.289953 1078.3809,97.929056 1078.7812,91.6875 1079.0431,87.606192 1078.6908,86.663533 1075.4375,83.0625 1073.424,80.83377 1071.2468,79 1070.5938,79 1069.9406,79 1067.8329,80.596871 1065.9375,82.5625 1062.876,85.737436 1062.5,86.765629 1062.5,91.5625 1062.5,97.680855 1061.3148,98.58169 1058.8438,94.375 1056.2785,90.008057 1056.6413,86.338663 1060.0938,81.53125 1062.889,77.639011 1063.0817,76.798974 1062.4375,72.375 1060.7312,60.656824 1055.8735,58.12462 1049.0625,65.40625 1046.1189,68.553259 1047.6053,68.762972 1052.5,65.875 1056.7692,63.356119 1057.8364,63.961631 1059.6562,70.125 1061.0318,74.783633 1060.1939,78.100975 1056.6875,81.84375 1053.845,84.877804 1053.9089,90.868197 1056.875,97.25 1059.299,102.4655 1061.5149,103.29191 1064.4375,100.0625 1065.864,98.486257 1066.0732,97.136702 1065.5,92.96875 1064.8792,88.454796 1065.059,87.570127 1067.0625,85.4375 1069.8622,82.457321 1070.9846,82.405186 1073.9375,85.15625 1075.9205,87.003689 1076.1675,87.978688 1075.6875,92.03125 1075.1811,96.306752 1075.3957,97.007559 1078.0625,99.5625 1081.4985,102.85441 1081.9065,102.56975 1084.8438,94.65625 1087.8474,86.563734 1087.6973,82.687081 1084.2812,80 1078.5107,75.460886 1076.4629,69.470986 1079.3438,65.53125 1080.6029,63.809263 1080.8739,63.801655 1083.5938,65.3125 1085.1916,66.200065 1088.2276,67.36686 1090.3438,67.90625 1093.8247,68.793502 1094.4065,68.636292 1096.5312,66.34375 1099.6867,62.938864 1104.8545,49.156786 1105.5938,42.15625 1105.8673,39.566172 1106.6977,36.950266 1107.5938,35.0625 L 1106.125,31.15625 z M 1066.625,21.0625 C 1064.8999,20.786174 1063.1214,21.366619 1061.375,22.78125 1057.8302,25.652677 1056.7617,28.726118 1057.5,34.09375 1058.1854,39.077145 1060.6506,42.121041 1065.0938,43.53125 1067.37,44.253741 1067.7462,49.602244 1065.7188,52.375 1064.4965,54.046595 1064.1608,54.028503 1059.0938,52.03125 1054.2711,50.130323 1053.5289,50.08759 1051.4688,51.4375 1048.8515,53.152368 1044.4297,59 1045.75,59 1046.2346,59 1047.9192,57.65 1049.5,56 1052.9113,52.439387 1054.2442,52.326492 1060.5,55.09375 1066.3301,57.67267 1067.5255,56.860598 1068.9688,49.25 1070.1496,43.023634 1069.5464,41 1066.5625,41 1061.1606,41 1057.7706,32.518166 1061.0312,27.15625 1063.5487,23.016654 1066.8886,22.991795 1070.6562,27.0625 1075.3851,32.171517 1076.669,32.50101 1080.5625,29.53125 1084.0499,26.871315 1084.3539,26.940363 1084.0938,30.5 1083.7385,35.362062 1082.7006,37.144219 1078.9688,39.5 L 1075,42.03125 1075,49 C 1075,52.8431 1075.3375,55.986241 1075.75,55.96875 1076.1625,55.951258 1077.3699,55.276258 1078.4375,54.46875 1081.1481,52.418592 1081.6133,52.550877 1085.5625,56.5 1087.4875,58.425 1089.7314,60 1090.5312,60 1093.9735,60 1099.9633,45.672702 1098.0312,42.0625 1096.4574,39.121793 1093.2639,36.763981 1092.5,38 1092.1024,38.643253 1092.7622,39.851743 1094,40.71875 1095.9352,42.074191 1096.1076,42.823221 1095.5,46.875 1094.6637,52.451914 1092.4344,57 1090.5625,57 1089.8066,57 1087.5913,55.403885 1085.625,53.4375 1083.1016,50.914104 1081.5018,50.041711 1080.1562,50.46875 1078.8964,50.86859 1078.0204,50.486816 1077.5938,49.375 1076.7436,47.159325 1078.8123,41 1080.4062,41 1081.0927,41 1082.7085,39.874744 1084,38.5 1085.9006,36.476893 1086.3759,34.856915 1086.4375,30 1086.5242,23.161655 1085.5237,22.520977 1080.9062,26.40625 1077.3427,29.404742 1074.9292,28.902067 1071.5,24.40625 1070.0278,22.476079 1068.3501,21.338826 1066.625,21.0625 z M 1095.0625,33.6875 C 1094.7397,33.928428 1095.1213,34.62292 1096.4062,35.5625 1097.4489,36.324913 1098.7379,36.648264 1099.2812,36.3125 1099.8246,35.976736 1099.186,35.139113 1097.875,34.4375 1096.3935,33.644623 1095.3853,33.446572 1095.0625,33.6875 z"/>
</svg>
