<?xml version="1.0" encoding="UTF-8"?>
<svg xmlns="http://www.w3.org/2000/svg" viewBox="1239.07 18.29 91.62 86.17">
  <path d="M 1252.9062,88.75 1253.25,91.15625 C 1253.3186,91.141006 1253.5125,91 1253.5625,91 1254.2718,91 1257.2183,92.4625 1260.0938,94.25 1266.667,98.336162 1272.9312,98.692943 1277.5625,95.21875 L 1280.625,92.90625 1286.5625,96.5 C 1293.1064,100.4652 1294.9181,100.54342 1302.1875,97.03125 1306.8046,94.800482 1309.5398,94.446373 1310.5,96 1310.845,96.558334 1312.7302,97.713446 1314.6875,98.53125 1317.5895,99.743818 1319.0128,99.798401 1322.375,98.84375 1323.8824,98.415732 1324.66,98.04006 1325.5938,97.65625 L 1325.4375,93.46875 C 1324.9842,94.261939 1324.2116,94.886447 1322.8438,95.59375 1320.2194,96.950834 1319.0285,97.016656 1315.8438,96.0625 1313.733,95.430119 1312,94.526275 1312,94.0625 1312,91.980988 1307.2148,92.2154 1302.1562,94.53125 1295.224,97.704981 1293.3957,97.639923 1287.6562,94 1282.0895,90.469673 1280.6946,90.352111 1275.8125,92.96875 1271.0727,95.509135 1266.1739,94.914172 1259.8125,91 1257.1442,89.35814 1254.6434,88 1254.25,88 1254.1683,88 1253.186,88.62253 1252.9062,88.75 z M 1325.2188,87.28125 1325.125,85.125 1324.4375,84.6875 C 1323.6634,85.828915 1322.6349,86.652441 1320.875,87.5625 1317.2337,89.445485 1317.2051,89.432182 1312.0938,85.96875 1307.4173,82.8 1305.9612,82.417304 1304.4375,83.9375 1303.915,84.458812 1301.8516,85.567982 1299.8438,86.40625 1296.4183,87.836328 1296.0325,87.824634 1293.5938,85.90625 1291.4736,84.23846 1291,83.002109 1291,79.28125 1291,73.736876 1292.9033,66.98519 1294.6562,66.3125 1296.1626,65.73442 1301.7901,69.016314 1304.5625,72.09375 1308.0481,75.962895 1310.7057,76.290542 1316.4062,73.59375 1319.2488,72.249029 1322.7958,70.849422 1324.3125,70.46875 L 1326.0938,70 1326.25,66.0625 C 1325.5388,67.356345 1323.8761,68.183416 1319.1875,70.0625 1315.163,71.675436 1311.2242,73 1310.4375,73 1309.6508,73 1307.3138,71.380438 1305.25,69.40625 1301.3239,65.650536 1298.1902,64 1294.9688,64 1289.7342,64 1286.6134,82.07056 1291.0312,86.8125 1294.3481,90.372742 1297.5399,90.597956 1301.875,87.59375 1306.0584,84.69466 1307.4748,84.843549 1312.5938,88.6875 1316.388,91.536654 1318.9615,91.611287 1322.2812,89 1323.8446,87.77021 1324.6882,87.227619 1325.2188,87.28125 z M 1326.4375,61.09375 1326.5312,59.1875 1326.3438,58.21875 1321.625,60.9375 C 1313.7985,65.415358 1311.9888,65.085421 1306.4375,58.25 1300.9055,51.438373 1299.5875,50.804866 1295.0625,52.65625 1292.3425,53.769153 1291.4892,53.775033 1290.875,52.78125 1289.8285,51.087988 1290.7373,36.887762 1291.9688,35.65625 1292.6121,35.012979 1294.3201,35.104907 1296.9375,35.96875 1301.5013,37.474915 1304,36.339971 1304,32.71875 1304,27.673188 1297.8747,25.271023 1294.5,29 1292.1524,31.594017 1291.8619,31.552719 1288.4062,28.03125 1284.8327,24.389594 1283.9828,24.324907 1281,27.5 1278.0675,30.621532 1277.2679,30.621532 1274.8125,27.5 1270.6494,22.20747 1266.1073,26.180403 1268.0938,33.375 1269.3062,37.766206 1270.1143,38.291611 1273.5938,36.96875 1277.5221,35.475221 1278.0467,36.901119 1277.75,48 1277.5143,56.81888 1277.3404,57.532012 1275.375,57.8125 1274.0173,58.006252 1272.3909,57.063305 1270.8125,55.1875 1267.7416,51.537985 1264.8075,49.926842 1261.8125,50.25 1259.6549,50.482818 1259.4704,50.101659 1259.1875,44.625 1258.9451,39.93511 1259.2737,38.317702 1260.8125,36.625 1263.3306,33.855043 1265.2913,30 1264.1875,30 1263.7102,30 1261.8982,31.769751 1260.1562,33.9375 1257.2242,37.586098 1257,38.442511 1257,45.46875 1257,53.810551 1257.7241,54.811403 1262.4062,53.03125 1264.91,52.079346 1265.4712,52.347627 1268.75,56 1272.9686,60.699319 1276.1743,61.192629 1278.5938,57.5 1279.9908,55.368009 1280.1344,53.277976 1279.5312,43.625 L 1278.8125,32.28125 1281.6562,30.0625 1284.4688,27.84375 1287.1562,30.84375 C 1289.5368,33.507969 1289.7279,34.250488 1288.9375,37.65625 1288.4485,39.763582 1288.0444,44.551488 1288.0312,48.28125 1288.0032,56.221396 1289.1334,57.256711 1294.8438,54.53125 L 1298.5,52.78125 1304,58.84375 C 1310.8304,66.36514 1313.0877,67.015818 1320.5625,63.59375 1323.5561,62.223224 1326.0141,61.182292 1326.4375,61.09375 z M 1271.3438,27.1875 C 1272.0231,27.534998 1272.8151,28.667689 1273.7188,30.5625 1275.1942,33.656499 1275.2409,34.226616 1273.9688,35.03125 1273.1638,35.540324 1272.2024,35.991578 1271.8438,36 1270.7749,36.025099 1269.0457,30.060021 1269.6562,28.46875 1270.1158,27.27122 1270.6644,26.840002 1271.3438,27.1875 z M 1299.125,29.34375 C 1299.675,29.402315 1300.1494,29.711901 1300.75,30.3125 1301.5861,31.148543 1301.9892,32.569852 1301.6562,33.4375 1300.9765,35.208871 1300.4601,35.259069 1297.25,33.96875 1294.4293,32.834952 1294.3901,31.401134 1297.125,29.9375 1297.9613,29.489917 1298.575,29.285185 1299.125,29.34375 z M 1251.6562,80.59375 C 1251.8132,80.508196 1252.4068,80 1252.4688,80 1252.8322,80 1255.1932,81.418578 1257.7188,83.15625 1260.2444,84.893922 1263.7078,86.65647 1265.4062,87.0625 1267.1046,87.468529 1268.8763,87.849951 1269.3438,87.90625 1269.8113,87.962548 1271.6565,86.5375 1273.4375,84.75 1279.6718,78.493123 1278.9714,71.004883 1271.3438,62.09375 1267.4441,57.538019 1265.3704,57.096626 1259.4688,59.5625 1256.0877,60.975183 1255.5641,61.001608 1254.1875,59.625 1252.2328,57.670322 1251.0376,49.104768 1251.7188,41.9375 1252.223,36.633084 1252.0825,36.208725 1248.6562,32.46875 1246.1008,29.679269 1244.7628,28.86218 1244,29.625 1243.2371,30.38782 1243.77,31.524062 1245.8438,33.59375 1248.6204,36.365093 1248.7808,37.013217 1249.2812,47.375 1249.7617,57.322074 1250.0271,58.464738 1252.3438,60.78125 1254.86,63.297633 1254.9123,63.299701 1260.25,61.78125 L 1265.5938,60.25 1268.75,63.0625 C 1273.5604,67.360602 1275.3202,71.543532 1274.5938,76.84375 1273.372,85.757472 1269.3884,86.994986 1259.5625,81.5 1256.1203,79.575 1252.7957,78 1252.1562,78 1252.0591,78 1251.5164,78.409159 1251.3438,78.46875 L 1251.6562,80.59375 z M 1255.0625,27.3125 C 1252.2844,27.35441 1250,27.494325 1250,27.625 1250,27.755675 1250.6982,28.573215 1251.5625,29.4375 1253.6668,31.54182 1256.3279,31.421637 1258.4062,29.125 1260.057,27.30104 1259.9495,27.238776 1255.0625,27.3125 z"/>
</svg>
