<?xml version="1.0" encoding="UTF-8"?>
<svg xmlns="http://www.w3.org/2000/svg" viewBox="1480.91 23.78 46.18 79.72">
  <path d="M1490.414 77.249706C1490.3212 52.716822 1489.6042 47.855704 1485.5112 44.010556C1484.0586 42.645864 1483.014 40.565616 1483.0333 39.075686L1483.0665 36.5L1484.9436 38.75C1485.9759 39.9875 1487.2224 41.0 1487.7134 41.0C1488.2045 41.0 1490.5293 38.27321 1492.8796 34.940466C1497.5419 28.329267 1500.4103 27.406523 1502.599 31.813775C1504.1743 34.985925 1509.0971 40.0 1510.6362 40.0C1511.3303 40.0 1513.0861 38.442644 1514.5379 36.539209C1520.4348 28.807982 1525.0 31.649783 1525.0 43.051767C1525.0 46.808376 1524.5797 50.141756 1524.0659 50.459277C1523.5521 50.776798 1521.2991 50.08136 1519.0592 48.913859C1514.1046 46.331379 1511.5197 46.950237 1512.412 50.505282C1513.3626 54.293069 1513.2055 68.136997 1512.0602 81.5C1511.4945 88.1 1511.0245 94.0625 1511.0158 94.75C1511.0071 95.4375 1510.4921 96.0 1509.8713 96.0C1509.0616 96.0 1508.9319 92.962382 1509.4122 85.25C1509.7804 79.3375 1510.1276 68.094238 1510.1837 60.264974C1510.2962 44.55545 1509.94 43.4629 1502.0291 35.25C1498.4226 31.50584 1497.8368 31.363352 1495.8619 33.75C1491.9262 38.506151 1490.6787 43.604182 1492.0038 49.517002C1492.5241 51.838597 1492.9464 62.684514 1492.9422 73.619042C1492.9332 97.094491 1492.815 99.228738 1491.5 99.666515C1490.8545 99.881388 1490.4695 91.933794 1490.414 77.249706Z M1499.356 68.997583C1499.2768 54.148913 1499.5632 42.0 1499.9925 42.0C1501.2879 42.0 1501.5624 46.431657 1501.835 71.75C1502.0433 91.097002 1501.8336 95.999511 1500.798 95.997583C1499.7697 95.995669 1499.4701 90.386449 1499.356 68.997583Z M1523.0 42.571429C1523.0 38.439061 1521.1911 35.0 1519.0175 35.0C1517.6704 35.0 1512.883 41.141954 1513.2682 42.375891C1513.6622 43.638088 1519.8237 46.996051 1521.75 46.998446C1522.5621 46.999456 1523.0 45.448448 1523.0 42.571429Z"/>
</svg>
