<?xml version="1.0" encoding="UTF-8"?>
<svg xmlns="http://www.w3.org/2000/svg" viewBox="3.95 17.05 35.51 86.9">
  <path d="M6.0 42.563174C6.0 40.876288 18.671327 21.0 19.746733 21.0C21.663468 21.0 21.32601 21.761682 14.68312 32.429141C9.4027574 40.908593 6.0 44.879936 6.0 42.563174Z M6.0284359 67.75C6.0546578 66.597329 16.482972 50.077238 18.954705 47.272757C19.549602 46.597773 22.97326 41.197773 26.562834 35.272757C33.452469 23.900597 35.537208 21.203874 36.609797 22.276464C37.459618 23.126284 31.288493 33.562193 18.294042 53.25C8.7065798 67.775901 5.9538171 71.030127 6.0284359 67.75Z M6.6529871 99.247538C6.3613252 98.775619 11.717871 89.864366 18.556423 79.444752C25.394975 69.025138 30.992369 60.1625 30.995077 59.75C30.997785 59.3375 31.675 59.0 32.5 59.0C33.325 59.0 34.0 59.629855 34.0 60.399678C34.0 61.893738 9.293212 99.292735 7.9692422 99.802786C7.5369638 99.969319 6.9446491 99.719457 6.6529871 99.247538Z M26.0 99.353505C26.0 98.839833 32.262953 88.810696 33.662426 87.083333C33.848091 86.854167 34.302291 86.968958 34.671758 87.338425C35.89029 88.556956 29.636145 99.99523 27.75 99.997704C26.7875 99.998967 26.0 99.709077 26.0 99.353505Z"/>
</svg>
