<?xml version="1.0" encoding="UTF-8"?>
<svg xmlns="http://www.w3.org/2000/svg" viewBox="1443.71 25.54 30.62 76.18">
  <path d="M1454.3246 92.290999C1449.5371 84.121732 1447.1076 71.819975 1446.3626 51.976534C1445.7141 34.70329 1446.1101 29.0 1447.9576 29.0C1448.4912 29.0 1448.7225 34.980818 1448.5087 43.25C1448.306 51.0875 1448.4462 59.198094 1448.8201 61.273541L1449.5 65.047083L1453.3101 61.901235C1455.5958 60.013982 1456.9023 58.187825 1456.5757 57.336771C1455.5146 54.571421 1455.7985 32.801504 1456.9102 31.689775C1457.6966 30.903408 1458.0082 31.0037 1458.0294 32.05C1458.0455 32.8475 1458.2578 39.35 1458.5012 46.5C1458.9258 58.973831 1459.0483 59.591068 1461.5276 61.75C1462.9488 62.9875 1464.7257 64.0 1465.4763 64.0C1467.5974 64.0 1468.9886 54.672586 1469.1685 39.2452C1469.2606 31.347381 1469.5987 29.0 1470.644 29.0C1472.2137 29.0 1472.3317 29.879578 1472.1201 40.0C1471.6662 61.700177 1466.3884 90.212241 1461.8026 95.737856C1459.7169 98.250959 1457.1144 97.051377 1454.3246 92.290999Z M1454.0 71.0C1456.9495 68.441952 1459.0618 68.474172 1462.4365 71.12868C1464.2897 72.586477 1465.4666 72.933366 1466.1707 72.229343C1468.0001 70.39988 1466.049 67.303941 1461.5688 64.927172L1457.1936 62.606126L1453.0158 65.370841C1450.211 67.226977 1449.029 68.633112 1449.419 69.649566C1449.7386 70.482271 1450.0 71.576771 1450.0 72.081787C1450.0 73.559708 1451.5238 73.147603 1454.0 71.0Z M1460.8822 92.641966C1461.5021 91.895048 1462.7596 88.243158 1463.6768 84.526655C1465.5687 76.860171 1465.1742 75.607225 1459.9499 72.68862L1456.5689 70.799817L1454.2845 73.455672C1453.028 74.916393 1452.0004 77.098934 1452.0008 78.305764C1452.0023 82.232423 1457.3388 94.0 1459.1181 94.0C1459.4685 94.0 1460.2623 93.388885 1460.8822 92.641966Z"/>
</svg>
