<?xml version="1.0" encoding="UTF-8"?>
<svg xmlns="http://www.w3.org/2000/svg" viewBox="504 18.45 36.64 84.52">
  <path d="M 506,48.75 C 507.35312,46.383857 508.68909,43.993431 510.9375,40.5 514.12338,35.55 517.73059,29.540859 518.9375,27.15625 520.89346,23.291647 520.94369,22.857063 519.40625,23.15625 518.08693,23.412991 511.22978,33.908129 506,42.78125 L 506,48.75 z M 538.125,22.59375 C 537.6147,22.288122 536.55774,22.718462 535.46875,24.21875 532.86222,27.809726 515,58.35534 515,59.21875 515,59.646631 515.5625,60.006809 516.25,60 517.96234,59.983043 522.90058,52.145579 532.9375,33.59375 534.66256,30.405214 536.76045,26.771776 537.59375,25.5 538.60664,23.954133 538.6353,22.899378 538.125,22.59375 z M 525.9375,73.6875 C 525.29933,74.325666 525.25154,75.567368 525.84375,77.125 527.01883,80.215697 525.86023,82.83777 520,90.28125 515.26418,96.296537 514.0279,96.943469 512,94.5 510.50312,92.696364 511.95133,88.38197 515.8125,83.21875 517.16043,81.41628 518.02994,79.686189 517.71875,79.375 517.02957,78.685822 511.39804,86.223857 509.15625,90.84375 507.57899,94.094173 507.60132,94.252639 509.875,96.09375 513.61377,99.121225 516.61774,98.540062 519.34375,94.25 520.65431,92.1875 522.7411,89.598701 523.96875,88.5 526.50088,86.233834 529,81.835276 529,79.625 529,76.61551 526.96383,72.661168 525.9375,73.6875 z"/>
</svg>
