<?xml version="1.0" encoding="UTF-8"?>
<svg xmlns="http://www.w3.org/2000/svg" viewBox="1070.85 24.23 66.5 83.03">
  <path d="M 1074.125 54.375 L 1073.875 56.84375 L 1076.2188 64.84375 L 1074.3438 68.25 C 1074.9658 68.463332 1077.4866 70.198232 1080.5312 72.5625 C 1085.8376 76.682997 1086.7429 77.050706 1090.1875 76.46875 L 1094 75.8125 L 1094 80 C 1094 82.696261 1093.2181 85.276083 1091.8125 87.25 C 1090.4809 89.120179 1089.4828 92.348255 1089.2188 95.53125 C 1088.6148 102.81465 1090.3066 103.4857 1095.1875 97.90625 L 1099.0312 93.5 L 1102.5 97.40625 C 1105.4097 100.67653 1106.1893 101.09308 1107.4688 100.03125 C 1109.7858 98.108273 1109.4438 90.828263 1106.875 87.5625 C 1105.1437 85.361591 1104.8456 84.040885 1105.3438 80.40625 C 1105.6803 77.950762 1106.5732 74.786156 1107.3125 73.375 C 1108.483 71.141114 1108.8392 70.995462 1110.0938 72.25 C 1110.8863 73.042497 1112.5622 74.237097 1113.8125 74.90625 C 1115.835 75.98864 1116.4112 75.773563 1119.0312 72.96875 L 1121.9688 69.8125 L 1123.1562 72.65625 C 1124.1922 75.18092 1124.6223 90.206027 1123.8125 95.5 C 1123.5973 96.906681 1124.1433 97.596512 1125.6562 97.8125 C 1129.0018 98.290086 1133.0768 88.822107 1133.75 79 C 1134.3318 70.511481 1133.2209 65.809916 1129.2188 59.75 C 1126.1369 55.083707 1123.7436 54.951588 1117.0625 59.0625 C 1112.9281 61.606414 1111.7398 61.931096 1110 61 C 1107.3506 59.582091 1106 56.071539 1106 50.5625 C 1106 45.858317 1107.1373 44.643973 1114.4375 41.59375 L 1118.1875 40.03125 L 1119.7188 43.96875 C 1121.5717 48.68577 1123.2328 49.511796 1125.5625 46.9375 C 1127.8868 44.369147 1127.9214 35.035958 1125.625 31.53125 C 1123.4455 28.204838 1120.841 28.304323 1112.1562 32 C 1103.8319 35.54236 1100.986 35.7223 1098.4375 32.90625 C 1096.6672 30.950116 1090.8894 28 1088.8438 28 C 1088.3359 28 1086.8187 29.11875 1085.4688 30.46875 C 1082.2301 33.707387 1082.2463 38.415882 1085.5312 43.25 C 1087.876 46.700713 1089.1763 47.426893 1094.5 48.21875 C 1096.6408 48.537174 1097.6117 52.381555 1096.5938 56.4375 C 1095.8323 59.471106 1087.3061 63.736055 1085.0938 62.1875 C 1084.2163 61.573294 1081.5898 60.180654 1079.25 59.09375 C 1076.57 57.848777 1074.9751 56.550711 1074.125 54.375 z M 1089.4062 31 C 1091.9562 31.008042 1096.5868 33.965004 1098.625 36.875 C 1100.4139 39.428883 1102.2646 39.139969 1112.1562 34.875 C 1120.4865 31.283338 1122.7611 31.221621 1124.0312 34.5625 C 1125.2577 37.788613 1125.2506 43.040475 1124.0312 44.96875 C 1122.9553 46.669982 1122.9951 46.690236 1120.75 41.75 C 1119.8127 39.6875 1118.3905 38 1117.625 38 C 1114.7217 38 1105.0529 43.009497 1103.9375 45.09375 C 1103.2565 46.36615 1102.9654 49.779017 1103.2188 53.28125 C 1103.6065 58.643031 1103.9961 59.550929 1107.0625 62.09375 C 1108.9472 63.656593 1111.0042 64.953955 1111.625 64.96875 C 1112.2459 64.983546 1115.3855 63.431942 1118.5938 61.5 C 1121.802 59.568057 1124.8866 58.128892 1125.4375 58.3125 C 1125.9883 58.496107 1127.5064 60.787334 1128.8125 63.40625 C 1130.624 67.038729 1131.1875 69.818484 1131.1875 75.09375 C 1131.1875 83.191142 1130.2167 89.692327 1128.625 92.5 C 1127.6986 94.133971 1127.4016 92.761362 1126.9688 85 C 1126.4169 75.106631 1123.7623 66 1121.4375 66 C 1120.7321 66 1119.1897 67.575 1118 69.5 C 1116.8103 71.425 1115.6007 73 1115.3125 73 C 1115.0242 73 1113.4466 71.875 1111.8125 70.5 C 1110.1784 69.125 1108.4718 68 1108.0312 68 C 1106.5531 68 1105.282 70.456185 1103.125 77.4375 L 1101 84.375 L 1103.5 88 C 1104.8783 89.988899 1106 92.604562 1106 93.8125 C 1106 96.544695 1104.407 96.660235 1103 94.03125 C 1102.418 92.943855 1101.0143 91.547228 1099.875 90.9375 C 1098.186 90.033556 1097.404 90.205597 1095.5938 91.90625 C 1091.3749 95.869616 1090.5496 93.341265 1094.375 88.15625 C 1096.4856 85.295456 1096.6959 84.169017 1096.25 78.21875 C 1095.9732 74.525198 1095.4516 71.147024 1095.0625 70.71875 C 1094.6733 70.290476 1093.1685 70.852976 1091.75 71.96875 C 1088.6489 74.408063 1086.7244 74.529712 1083.5312 72.4375 C 1080.0084 70.129264 1075.7496 64.117295 1076.4062 62.40625 C 1076.8901 61.145031 1077.5493 61.240206 1080.9375 62.96875 C 1086.2961 65.702463 1088.6891 65.515447 1094 62 L 1098.5 59.03125 L 1099.0625 51.28125 C 1099.3657 47.009379 1099.292 43.12375 1098.9062 42.65625 C 1098.5206 42.18875 1097.2488 42.75125 1096.0938 43.90625 C 1093.5943 46.405681 1092.1726 46.515842 1089.25 44.46875 C 1084.4669 41.118549 1084.5863 30.9848 1089.4062 31 z "/>
</svg>
