<?xml version="1.0" encoding="UTF-8"?>
<svg xmlns="http://www.w3.org/2000/svg" viewBox="40.42 16.79 22.47 89.76">
  <path d="M52.663593 98.887585C47.811002 96.32744 45.62036 91.484123 43.99792 79.728544C42.417671 68.278658 43.5039 53.009911 46.645364 42.514342C49.948242 31.479491 57.198517 20.865183 59.714552 23.381219C60.060115 23.726782 59.183912 27.494874 57.767433 31.754758C52.443717 47.765176 51.755272 63.284167 55.701096 78.334334C56.590173 81.72545 57.24128 85.707461 57.148001 87.183248C57.054723 88.659034 57.679197 91.930633 58.535722 94.453468C60.886387 101.37719 59.445202 102.46545 52.663593 98.887585Z M55.090417 91.829526C54.490688 90.109141 54.0 86.997999 54.0 84.915876C54.0 82.833754 53.593621 80.061343 53.096936 78.754962C52.600251 77.448582 51.681439 72.165225 51.055132 67.014169C49.854996 57.143676 50.567644 48.732391 53.62864 36.639377C54.444536 33.416034 54.897824 30.56449 54.635946 30.302613C53.750247 29.416914 50.846115 34.866199 48.296229 42.198393C44.765752 52.350279 44.125109 66.156393 46.538681 80.074296C48.198494 89.645637 48.636248 90.776844 51.880561 93.878295C55.714748 97.543647 56.833454 96.829605 55.090417 91.829526Z"/>
</svg>
