<?xml version="1.0" encoding="UTF-8"?>
<svg xmlns="http://www.w3.org/2000/svg" viewBox="704.8 18.62 27.6 84.1">
  <path d="M725.73525 97.40192C725.33086 96.997531 725.0 95.89887 725.0 94.960452C725.0 92.220402 720.99097 83.933766 719.36315 83.309111C717.64055 82.64809 715.52233 85.330338 712.30236 92.25C710.94851 95.159407 709.43989 97.0 708.40909 97.0C706.9576 97.0 706.79552 96.140549 707.23041 90.75C707.50774 87.3125 708.55799 81.891998 709.5643 78.704439C711.3058 73.188155 711.31219 72.601988 709.69698 66.540305C708.76364 63.037589 708.0 57.424819 708.0 54.067482C708.0 43.96909 714.03845 24.689949 717.63347 23.310411C719.88775 22.445362 723.81783 27.389884 724.54027 32.0C724.84193 33.925 725.59833 37.210315 726.22116 39.300701C727.05533 42.100394 727.06791 46.175302 726.26892 54.772621C725.22983 65.953346 725.28231 66.704363 727.51757 72.642919C729.99317 79.219972 730.39201 81.718585 730.1508 89.139216C730.00174 93.724995 727.23523 98.901895 725.73525 97.40192Z M718.46609 80.033269C719.94154 80.080746 724.0 83.622956 724.0 84.86324C724.0 86.70695 726.28992 91.0 727.27336 91.0C727.82128 91.0 728.06164 88.096614 727.83937 84.162961C727.55998 79.218491 726.69806 75.870727 724.72562 72.068932C723.22553 69.177588 722.24932 66.405604 722.55626 65.908969C722.8632 65.412333 723.35671 60.909424 723.65296 55.902503L724.19158 46.799011L721.05515 47.487887C718.88432 47.964681 717.15287 47.674958 715.43111 46.546821C714.06293 45.650353 712.50622 45.187139 711.97175 45.517457C710.4794 46.439786 710.81561 55.104015 712.67152 63.550181C714.30474 70.98292 714.29328 71.311678 712.17152 77.899549C710.97718 81.607839 710.00229 86.184968 710.00508 88.070947L710.01016 91.5L713.72118 85.75C715.76223 82.5875 717.89745 80.014971 718.46609 80.033269Z M722.42857 43.428571C725.49732 40.359826 723.9655 35.816259 720.82144 38.661598C719.23438 40.097867 718.63743 40.143918 716.49179 38.995607C712.76625 37.001759 712.27745 38.603365 715.58333 41.972222C718.91568 45.368041 720.21308 45.644067 722.42857 43.428571Z M721.39455 35.46259C722.77777 34.079376 722.76635 33.577895 721.28077 30.46259C719.31663 26.343749 718.74071 26.220588 716.61501 29.464817C714.54941 32.617324 714.57891 33.959861 716.75 35.607954C719.01703 37.328875 719.54479 37.312357 721.39455 35.46259Z"/>
</svg>
