<?xml version="1.0" encoding="UTF-8"?>
<svg xmlns="http://www.w3.org/2000/svg" viewBox="565.75 11.95 67.68 88.69">
  <path d="M576.0 94.248446C573.87659 93.187686 571.77707 91.020396 570.66195 88.738095L568.82391 84.976191L571.52623 80.365031C573.42494 77.125122 575.3871 75.27006 578.12445 74.126936L582.02035 72.5L581.2666 68.0C580.85203 65.525 580.5993 60.394489 580.70498 56.598865C580.88593 50.099422 580.70347 49.471505 577.57033 45.811133C572.49425 39.880874 572.10176 33.50525 576.31161 25.364301C578.25876 21.598925 586.38498 16.98498 588.08152 18.681522C588.94101 19.54101 588.4205 20.545974 585.992 22.715842C583.09127 25.307641 582.74457 26.205045 582.62893 31.42073C582.52905 35.925619 582.88844 37.486127 584.22391 38.346383C585.64057 39.258937 586.62082 38.809866 589.72391 35.82672C593.58635 32.113577 600.44256 28.0 602.76892 28.0C603.48311 28.0 604.9816 26.45064 606.09888 24.556978C608.21728 20.966555 616.59904 15.980579 620.44634 16.022236C623.19011 16.051944 627.4715 19.428082 626.5848 20.862785C626.19824 21.488253 625.08952 22.0 624.12098 22.0C621.26569 22.0 614.0 28.826957 614.0 31.509829C614.0 34.82725 618.81295 38.0 623.84535 38.0C629.88812 38.0 630.34875 40.776309 624.66455 42.937439C619.73169 44.81291 613.99622 44.234496 610.41111 41.5C606.3567 38.407549 605.89902 38.407382 601.00542 41.496575C595.06372 45.247408 591.04889 52.549594 591.01506 59.667095C590.98186 66.650765 598.08787 77.0 602.91621 77.0C603.88573 77.0 605.19203 75.873966 605.81909 74.497703C608.40255 68.827628 619.57822 65.91499 624.77749 69.556704C628.69457 72.300334 627.57644 73.761804 621.97227 73.223314C616.15031 72.663897 613.52887 74.315593 612.45118 79.222296C611.52091 83.457761 613.41028 86.361175 619.11842 89.467933C621.80329 90.929223 624.0 92.538165 624.0 93.04336C624.0 96.573054 607.80773 94.468126 604.5 90.508441C603.39479 89.185393 600.63861 87.697846 598.33949 87.183527C596.05122 86.671633 592.11241 84.76871 589.5866 82.954808L584.99422 79.656806L582.49711 82.002717C579.02019 85.269111 579.36525 87.329211 584.00476 91.003767C586.20737 92.748271 587.75581 94.586084 587.44574 95.087796C586.50722 96.60635 579.72429 96.108937 576.0 94.248446Z M578.44686 89.25C576.3972 85.320815 576.58979 84.459813 580.48203 80.151574C582.39714 78.031771 583.67214 76.005475 583.31536 75.648693C581.76828 74.101617 578.54715 75.252853 575.27917 78.520833C572.26576 81.534236 571.84952 82.497605 572.39104 85.205216C573.15347 89.017356 575.65759 92.0 578.09568 92.0C579.72483 92.0 579.75562 91.758892 578.44686 89.25Z M583.97189 44.052527C584.81635 42.47464 584.51755 41.608464 582.39745 39.488356C579.92357 37.014476 579.81839 36.506753 580.47035 30.18583L581.15994 23.5L578.97416 25.633586C577.31953 27.248704 576.66098 29.354408 576.26408 34.298926C575.77921 40.339297 575.93421 41.025123 578.32443 43.41534C581.41817 46.509078 582.58663 46.640911 583.97189 44.052527Z M612.58889 87.923275C608.90801 83.548788 609.32788 75.429434 613.37074 72.804373C613.95998 72.421778 614.16143 71.828099 613.81842 71.485085C612.70496 70.371625 609.03876 73.398542 607.45279 76.740729C605.60257 80.639789 603.13812 80.93277 598.65437 77.786715C594.60129 74.942848 593.32139 73.396637 590.96711 68.5C585.97401 58.114926 591.19913 44.043258 602.25705 38.095261L606.7277 35.690523L610.20824 38.345261C612.12254 39.805368 614.88381 41.0 616.34439 41.0C619.4492 41.0 619.88284 39.414977 617.02609 38.508279C614.5556 37.724178 611.0 33.29753 611.0 31.005931C611.0 30.057538 612.90651 27.115673 615.23668 24.468453L619.47337 19.655327L616.08199 20.333602C611.82859 21.184282 610.3364 22.420268 607.9753 27.048426C606.56125 29.820182 605.28121 30.891811 602.79838 31.38245C598.05011 32.320769 589.79811 38.323608 586.65314 43.127151C582.49143 49.483642 581.20778 58.941321 583.33062 67.606889C584.25936 71.3981 585.84379 75.625 586.85157 77.0C589.66437 80.837746 594.68829 83.83071 599.53827 84.55801C602.3947 84.986358 604.98784 86.227505 606.95591 88.108296C608.70386 89.778732 611.07902 91.0 612.57979 91.0L615.17779 91.0L612.58889 87.923275Z"/>
</svg>
