<?xml version="1.0" encoding="UTF-8"?>
<svg xmlns="http://www.w3.org/2000/svg" viewBox="39.34 10.51 34.66 86.29">
  <path d="M 41.34375,69.125 41.34375,73.25 C 46.444127,65.516289 48.52205,61.655071 46.65625,62.25 46.260939,62.376049 44.002764,65.418711 41.34375,69.125 z M 62.96875,63.1875 C 60.697375,63.944625 46.856179,84.899668 44.4375,91.25 43.937696,92.562251 44.169608,92.876069 45.3125,92.4375 46.156212,92.113737 47.06455,91.258832 47.34375,90.53125 47.622949,89.803667 51.283618,83.985484 55.46875,77.59375 63.830689,64.822993 65.027989,62.501087 62.96875,63.1875 z M 72,82.375 72,77.78125 C 66.59785,86.287342 64.066365,90.722615 64.78125,91.4375 65.172732,91.828982 66.107273,91.350416 66.84375,90.34375 67.677897,89.203582 69.809331,85.69922 72,82.375 z M 52,14.6875 C 51.438546,15.217006 51.373152,16.534994 51,35.625 50.848047,43.398772 51.052651,50.28355 51.4375,50.90625 53.140489,53.661744 53.691948,50.218167 53.34375,38.78125 53.13808,32.025813 53.235256,24.552646 53.59375,22.15625 L 54.25,17.78125 58.34375,18.4375 C 60.58932,18.796581 62.55707,19.21332 62.71875,19.375 62.88043,19.53668 63.035932,26.280615 63.0625,34.34375 63.102388,46.449091 63.367395,49 64.5625,49 65.776431,49 65.961416,46.400093 65.75,32.8125 L 65.5,16.59375 59,15.40625 C 55.425,14.752399 52.267768,14.434968 52,14.6875 z"/>
</svg>
