<?xml version="1.0" encoding="UTF-8"?>
<svg xmlns="http://www.w3.org/2000/svg" viewBox="959.51 8.22 68.38 94.16">
  <path d="M 973.96875,19 C 975.53414,19 978.28979,23.849012 977.65625,25.5 976.86017,27.574531 975.27034,27.377752 974.03125,25.0625 972.72252,22.617118 972.6835,19 973.96875,19 z M 985.84375,17 C 987.3854,17 989.91221,20.53171 992.46875,26.3125 993.86602,29.47199 995,32.231986 995,32.4375 995,32.643014 993.64049,33.29223 991.96875,33.875 988.98171,34.916289 988.94166,35.0218 989.53125,40.21875 990.49544,48.717616 990.92732,50.002813 992.78125,49.96875 993.73327,49.951258 995.36988,49.276258 996.4375,48.46875 999.13385,46.429336 1001.74,46.645782 1003,49 1004.1516,51.151839 1008.9663,54 1011.4375,54 1013.1162,54 1016.9884,47.180927 1017.625,43.09375 1017.8461,41.674291 1018.303,36.716119 1018.6562,32.09375 1019.2201,24.712643 1019.4711,23.91049 1020.6562,25.53125 1023.2436,29.069721 1021.9701,49.189863 1018.75,55.75 1018.0586,57.158574 1016.2679,59.251579 1014.75,60.375 L 1011.9688,62.40625 1007.2188,57.6875 C 1004.5928,55.101043 1001.853,53 1001.1562,53 999.1056,53 997.01164,59.489089 997.03125,65.71875 997.04619,70.467145 997.58253,72.292485 1000.0312,75.90625 1003.5434,81.089291 1003.522,81.063481 1001.1562,87.78125 1000.1461,90.649335 999.08561,93.258134 998.78125,93.5625 998.47688,93.866866 998.2981,90.858661 998.375,86.875 998.51351,79.699247 998.46007,79.604475 995.09375,77.3125 993.22491,76.040097 991.34972,75 990.90625,75 990.46278,75 988.48144,77.102159 986.53125,79.65625 983.88601,83.120617 983,85.279452 983,88.15625 983,93.287381 981.56948,93.031929 979.46875,87.53125 977.87227,83.350933 977.85597,82.899544 979.40625,80.78125 985.81327,72.026706 985.90785,71.803057 985.375,68.65625 984.29228,62.262102 980.77077,54.060069 978.4375,52.53125 974.69852,50.081381 970.52359,50.561503 969.15625,53.5625 968.51796,54.963379 968,57.065879 968,58.25 968,59.76297 967.68045,60.086699 966.9375,59.34375 966.35603,58.762284 966.01853,55.910347 966.1875,53 966.44292,48.600492 966.96734,47.36287 969.21875,45.6875 L 971.90625,43.6875 976.90625,46.25 C 982.94114,49.381012 984.10403,48.577065 983.90625,41.375 983.74088,35.353237 981.79939,32 978.5,32 L 976.03125,32 977.96875,28.5625 C 981.76987,21.794925 985.02545,17 985.84375,17 z M 972.90625,12.5 C 971.0713,12.5 970.54246,18.617425 971.84375,24.71875 972.53053,27.938833 972.47783,29.828216 971.6875,31.09375 970.19327,33.486391 971.02142,34.139529 976.4375,34.75 981.19963,35.28676 981.71157,36.12153 981.125,42.4375 980.87637,45.114673 980.97264,45.105573 975.8125,43.25 969.37865,40.936399 966.58553,42.320008 964.6875,48.71875 962.6193,55.691162 964.82871,70 967.96875,70 968.45562,70 969.14449,66.9625 969.53125,63.25 969.91801,59.5375 970.65488,55.7125 971.15625,54.75 973.72597,49.816739 980.2834,56.05443 982.21875,65.28125 983.37413,70.789594 983.3631,70.81944 979.6875,76.15625 975.46051,82.293655 975.30417,83.410575 977.71875,91.25 979.1445,95.878976 979.90968,96.993107 981.625,97 984.75852,97.01259 985.99978,94.895988 985.78125,89.875 985.57856,85.217757 988.77125,79 991.375,79 995.56013,79 997.33,83.811975 995.65625,90.6875 995.02832,93.266967 995.27187,94.271876 997.03125,96.03125 999.03826,98.038269 999.33932,98.098204 1000.8438,96.59375 1002.5366,94.900997 1004.8952,86.45503 1004.9688,81.8125 1004.992,80.342199 1003.8338,77.759046 1002.4062,76.0625 999.23718,72.296322 997.90678,62.40716 1000.0312,58.4375 1000.753,57.088943 1001.6032,56 1001.9375,56 1002.2718,56 1004.346,57.786842 1006.5312,59.96875 1011.291,64.721248 1014.1423,65.013935 1018,61.15625 1021.334,57.822248 1023.0662,52.159282 1023.6562,42.59375 1023.8902,38.799233 1024.2811,35.373555 1024.5312,34.96875 1024.7815,34.563944 1024.575,32.950678 1024.0938,31.375 1023.6125,29.799322 1022.6967,26.5875 1022.0625,24.25 1021.2458,21.240059 1020.4069,20 1019.125,20 1017.5237,20 1017.2293,21.257832 1016.7188,30.9375 1016.1586,41.557248 1013.9672,49.657038 1011.1875,51.375 1010.6166,51.727853 1008.0499,50.206876 1005.5,48 1000.2906,43.491242 1000.4284,43.540158 997,45.5 992.72198,47.945536 992,47.420719 992,41.90625 992,37.26253 992.24465,36.738708 994.78125,35.78125 997.17768,34.8767 997.78445,33.760672 999.28125,27.625 1001.3561,19.119734 1001.466,16 999.65625,16 998.91649,16 997.49549,16.9 996.5,18 993.8427,20.936287 991.56556,20.451581 989.4375,16.5 988.40082,14.575 987.09367,13.016457 986.53125,13.03125 985.96882,13.046044 984.41057,14.846044 983.0625,17.03125 979.6297,22.595801 977.46209,22.164667 975.3125,15.5 974.78032,13.85 973.68541,12.5 972.90625,12.5 z M 997.1875,21 C 997.7084,21 997.98825,21.96183 997.8125,23.15625 997.45345,25.596387 995.53159,26.669151 994.5,25 993.76406,23.809223 995.65361,21 997.1875,21 z"/>
</svg>
