<?xml version="1.0" encoding="UTF-8"?>
<svg xmlns="http://www.w3.org/2000/svg" viewBox="1385.9 10.73 46.11 90.07">
  <path d="M1388.0 78.459507C1388.0 77.612237 1388.844 75.699737 1389.8755 74.209507C1390.9071 72.719278 1393.9818 67.675 1396.7083 63.0C1399.4347 58.325 1405.4959 47.975 1410.1776 40.0C1414.8592 32.025 1419.9035 23.3625 1421.387 20.75C1424.0129 16.125808 1425.3291 15.105486 1426.4108 16.85569C1426.7017 17.326319 1423.0768 24.413819 1418.3555 32.60569C1413.6343 40.79756 1408.8763 49.189747 1407.7822 51.254992C1406.688 53.320238 1405.3809 55.264584 1404.8774 55.575762C1404.3739 55.886939 1402.7873 58.472192 1401.3517 61.320769C1397.5394 68.884884 1390.2015 80.0 1389.0202 80.0C1388.4591 80.0 1388.0 79.306778 1388.0 78.459507Z M1388.2842 44.701869C1388.5581 43.987897 1391.0813 39.394281 1393.8912 34.493834C1396.701 29.593386 1399.0 25.208552 1399.0 24.749758C1399.0 23.890813 1399.2169 23.585746 1403.4436 18.5C1406.497 14.825963 1406.8733 17.055371 1403.9963 21.77417C1402.8983 23.574963 1402.0 25.751398 1402.0 26.610692C1402.0 27.469986 1400.7097 30.04661 1399.1327 32.336522C1397.5558 34.626435 1395.0618 38.6375 1393.5906 41.25C1392.1194 43.8625 1390.2115 46.0 1389.3509 46.0C1388.4789 46.0 1388.0066 45.425223 1388.2842 44.701869Z M1398.5884 95.143028C1397.7818 93.837953 1398.8563 91.269116 1400.4674 90.650894C1401.1894 90.373835 1402.4364 88.876541 1403.2384 87.323575C1406.1764 81.635252 1426.1016 47.498364 1427.0198 46.580188C1427.5406 46.059418 1428.2416 45.908238 1428.5776 46.244232C1429.9148 47.581435 1402.8918 94.869391 1400.296 95.734664C1399.684 95.938664 1398.9156 95.672428 1398.5884 95.143028Z M1419.4513 94.921244C1419.0735 94.309986 1419.6298 92.615145 1420.6875 91.154932C1421.7452 89.69472 1423.2028 87.0375 1423.9266 85.25C1424.6504 83.4625 1425.863 82.0 1426.6213 82.0C1428.3978 82.0 1428.4768 81.661263 1425.0518 88.731744C1421.9128 95.211851 1420.557 96.710257 1419.4513 94.921244Z"/>
</svg>
