<?xml version="1.0" encoding="UTF-8"?>
<svg xmlns="http://www.w3.org/2000/svg" viewBox="491.59 12.75 38.4 71.57">
  <path d="M 516,70.4375 519.46875,68.40625 C 519.39975,67.718215 519.35912,67.002291 519.40625,66 L 516.0625,65.4375 C 515.25596,68.288866 515.28349,69.353425 516,70.4375 z M 507.28125,64 509.59375,64.375 C 510.85806,57.0542 512.14107,38.521907 511.28125,36.28125 511.00871,35.571037 509.49741,35 507.90625,35 506.24731,35 505.01921,34.466788 505.03125,33.75 505.06865,31.525238 513.08862,19.856545 514.3125,20.25 515.98275,20.786955 524.1668,36.240954 523.25,37.125 522.83518,37.524999 521.15,38.007679 519.5,38.1875 517.10091,38.448959 516.57398,38.900606 516.90625,40.5 517.85471,45.065559 517.33503,60.824165 516.09375,65.1875 516.05685,65.317235 516.09675,65.314687 516.06255,65.4375 L 519.40625,66 C 519.48115,64.407661 519.67626,62.490914 520,60 520.64843,55.010881 521.03021,48.608422 520.84375,45.75 520.5119,40.662797 520.56346,40.516169 523.5,40 527.99136,39.210533 527.86509,36.104357 523.0625,28.5 520.82235,24.95297 518.98705,21.70723 518.96875,21.28125 518.91158,19.950343 515.24521,16 514.0625,16 512.78013,16 501,33.782445 501,35.71875 501,36.43033 502.806,37.254176 505.125,37.625 L 509.25,38.3125 508.78125,50.40625 C 508.52742,56.995317 508.13703,61.416369 507.28125,64 z M 493.59375,59.1875 493.78125,65.9375 C 493.81925,65.88619 493.79765,65.796108 493.84375,65.75 494.69097,64.902788 495.56122,65.149044 497.25,66.6875 502.57896,71.542135 506.31786,71.907126 508.875,67.8125 509.09242,67.464349 509.35937,65.732138 509.59375,64.375 L 507.28125,64 C 505.82485,68.396929 503.0815,67.465608 497.65625,62.71875 L 493.59375,59.1875 z M 506.625,78.9375 C 505.9395,77.553579 505.06482,76.989043 503.78125,76.96875 500.51463,76.91711 495.32188,71.985047 493.84375,68.53125 L 494.03125,75.21875 494.09375,75.6875 C 494.5077,75.472668 495.02705,75.60168 495.8125,76.3125 496.78366,77.19139 499.23888,78.615393 501.28125,79.46875 502.70428,80.063329 503.48794,80.500079 504.03125,81.0625 L 506.625,78.9375 z"/>
</svg>
