<?xml version="1.0" encoding="UTF-8"?>
<svg xmlns="http://www.w3.org/2000/svg" viewBox="1122.56 10.91 64.88 90.05">
  <path d="M1136.0325 94.539219C1132.1752 89.891381 1134.7999 80.733784 1141.0047 77.191512C1143.297 75.882821 1143.8105 75.047363 1143.2734 73.5C1142.8916 72.4 1142.6539 68.142419 1142.745 64.03871C1142.8977 57.165424 1142.6975 56.359838 1140.2054 53.816488C1138.7174 52.297975 1136.9491 51.043056 1136.2757 51.027778C1134.2975 50.982895 1131.912 56.706422 1131.18 63.254032C1129.8921 74.774356 1125.6378 70.424294 1125.5527 57.5C1125.5116 51.260551 1125.9593 48.619724 1127.587 45.5C1129.4675 41.895772 1134.9726 37.0 1137.145 37.0C1137.6121 37.0 1139.7376 38.575 1141.8683 40.5C1147.5719 45.652844 1148.3725 45.229346 1147.7434 37.392215C1147.0652 28.943233 1145.5726 27.19546 1141.1754 29.701413C1138.1128 31.446803 1137.9083 31.440846 1134.2597 29.5C1129.7871 27.120751 1129.101 24.412644 1132.0281 20.691393C1134.543 17.494269 1137.9786 17.213886 1140.5 20.0C1142.9661 22.724998 1143.992 22.550048 1149.2962 18.5C1151.8173 16.575 1154.2255 15.0 1154.6478 15.0C1155.0702 15.0 1157.1107 16.655125 1159.1823 18.678057C1162.6385 22.052933 1163.0954 22.229417 1164.7245 20.819085C1168.2645 17.75451 1170.8487 17.9351 1173.5171 21.433538C1176.6914 25.595303 1176.6471 27.715141 1173.3129 31.195281C1170.0897 34.559579 1167.4872 34.778928 1165.9035 31.819779C1164.776 29.712873 1164.6907 29.702487 1163.3684 31.510909C1161.8188 33.630064 1161.4346 47.0 1162.9233 47.0C1163.4311 47.0 1165.1835 45.875 1166.8176 44.5C1171.2297 40.7875 1174.195 41.262359 1179.7324 46.568125C1184.2454 50.892329 1184.4973 51.412943 1184.4489 56.318125C1184.3771 63.602673 1182.416 69.733178 1179.9023 70.530998C1176.9432 71.470196 1176.5016 70.554212 1176.8197 64.136458C1177.065 59.185718 1176.7623 58.035551 1174.5996 55.702006C1171.6992 52.572393 1169.0956 52.280968 1166.0943 54.75C1164.2365 56.278424 1164.0958 56.942315 1164.9836 59.993398C1165.5426 61.914767 1166.0 66.313405 1166.0 69.768149C1166.0 75.356334 1166.2483 76.146018 1168.25 76.92411C1169.4875 77.405145 1171.7986 79.16988 1173.3857 80.845743C1175.7845 83.378606 1176.1622 84.439153 1175.6238 87.130766C1174.9055 90.722614 1172.3991 94.0 1170.3707 94.0C1169.6451 94.0 1168.374 92.7625 1167.5461 91.25C1165.8004 88.06088 1162.0784 83.535492 1161.6723 84.108337C1161.5196 84.323752 1160.6205 85.7375 1159.6743 87.25C1157.4304 90.836788 1154.3213 90.770382 1151.0728 87.066288C1147.6385 83.150275 1144.9163 84.258218 1141.524 90.952672C1138.8053 96.317726 1137.9644 96.866942 1136.0325 94.539219Z M1130.0 59.988036C1130.0 55.002232 1133.8424 48.0 1136.5783 48.0C1137.2758 48.0 1139.2054 49.143396 1140.8662 50.540879C1143.8807 53.077384 1143.8878 53.078167 1145.0022 50.995938C1145.9384 49.246595 1145.6653 48.375746 1143.3092 45.597547C1138.8656 40.357682 1137.2523 39.604682 1134.4307 41.453464C1129.361 44.775247 1126.6446 52.128134 1127.6845 59.714636C1128.3242 64.382073 1130.0 64.579937 1130.0 59.988036Z M1140.0453 26.445475C1141.1205 25.149938 1141.0048 24.560338 1139.351 22.906529C1137.1815 20.73704 1134.5433 21.141916 1133.5229 23.800938C1133.1425 24.792168 1133.5857 25.955115 1134.6367 26.723619C1136.9467 28.412723 1138.4779 28.333976 1140.0453 26.445475Z M1140.0519 89.403045C1140.8163 87.97472 1142.7541 85.701786 1144.3582 84.35208C1146.9276 82.190019 1147.1418 81.606713 1146.1587 79.449035C1144.7561 76.370648 1143.888 76.381917 1140.1502 79.527032C1136.9721 82.201263 1135.4265 86.617661 1136.4929 89.977529C1137.3539 92.690295 1138.3814 92.524439 1140.0519 89.403045Z M1160.492 79.838433C1162.9392 74.385279 1163.1842 72.919373 1162.6225 67.088433C1162.2735 63.464795 1161.2656 58.475 1160.3828 56.0C1158.5074 50.741819 1158.3237 40.574637 1159.9616 32.684846C1160.9335 28.003397 1160.8681 26.645546 1159.5476 24.092038C1156.6456 18.480293 1152.9841 18.045073 1148.6807 22.800356C1147.0106 24.645785 1146.9943 25.050543 1148.4497 28.533811C1151.2194 35.162742 1151.4425 41.827918 1149.1154 48.429325C1147.9659 51.690454 1147.2462 54.579533 1147.5162 54.849499C1147.7861 55.119466 1147.2391 56.50127 1146.3005 57.920174C1142.6052 63.506618 1144.7782 73.564332 1151.6651 82.75C1155.3375 87.648202 1157.2738 87.009504 1160.492 79.838433Z M1181.752 58.785191C1182.1453 53.865354 1181.9211 53.206207 1178.5093 49.25C1175.9791 46.316045 1174.0533 45.0 1172.2901 45.0C1169.6376 45.0 1163.0 48.554221 1163.0 49.974571C1163.0 51.068495 1165.9586 52.14362 1167.0732 51.45474C1167.5642 51.151278 1169.5905 51.207749 1171.576 51.580231C1176.0264 52.415136 1178.9909 56.757707 1178.9963 62.45C1179.0018 68.349466 1181.2238 65.394591 1181.752 58.785191Z M1173.0 85.859762C1173.0 83.59058 1166.4841 78.60026 1164.5102 79.35771C1162.1917 80.247393 1162.6688 81.774623 1166.75 86.528189C1170.0853 90.412901 1170.6382 90.714686 1171.75 89.256854C1172.4375 88.355342 1173.0 86.82665 1173.0 85.859762Z M1171.9071 28.611923C1172.7777 27.562889 1172.7684 26.585874 1171.869 24.611923C1170.5111 21.631573 1168.8396 21.303273 1166.5714 23.571429C1164.6804 25.462503 1164.6768 25.509677 1166.2405 28.013569C1167.6841 30.325017 1170.2597 30.596984 1171.9071 28.611923Z"/>
</svg>
