<?xml version="1.0" encoding="UTF-8"?>
<svg xmlns="http://www.w3.org/2000/svg" viewBox="1336.46 29.12 40.59 69.42">
  <path d="M 1369.1915,81.697548 1365.9906,78.395096 1368.1595,73.947548 C 1371.0206,68.080432 1371.2246,58.75993 1368.588,54.367604 1366.7336,51.27838 1366.7371,51.174537 1368.8387,46.83326 1370.0107,44.412188 1371.1403,40.871767 1371.349,38.965656 1371.5577,37.059545 1372.127,35.603098 1372.6142,35.729107 1374.3162,36.169312 1374.1937,43.447949 1372.4289,46.743543 1370.799,49.787268 1370.7939,50.30258 1372.346,55.108377 1374.4737,61.696471 1374.4287,64.390055 1372.0715,71.535343 L 1370.1429,77.381137 1372.5781,80.275241 C 1374.794,82.90869 1375.0415,85 1373.1371,85 1372.7275,85 1370.9519,83.513897 1369.1915,81.697548 z M 1344.5569,87.092085 C 1343.5737,85.501273 1347.4077,81.374905 1351.8099,79.285924 1356.3847,77.11504 1358.0885,74.115899 1358.7231,67.116641 1359.1766,62.116323 1358.9071,60.585755 1357.0422,57.568243 1355.8207,55.591795 1353.9804,53.524672 1352.9526,52.974638 1350.2555,51.531191 1349.1942,54.126356 1348.6913,63.39473 1348.0457,75.294417 1344.4177,76.457049 1340.7554,65.93789 1338.4565,59.334909 1338.9408,52.656936 1342.13,46.982572 1345.0596,41.770031 1349.0901,40.351815 1355.0948,42.420614 1360.0642,44.132723 1360.6288,43.727428 1361.632,37.727837 1361.9789,35.653147 1362.7238,33.67072 1363.2873,33.322443 1364.9801,32.276258 1363.3199,44.108679 1361.5216,45.906967 1360.068,47.360578 1359.6697,47.346973 1356.8847,45.748587 1351.1248,42.442869 1346.7724,43.565678 1343.9574,49.083497 1341.4,54.096372 1341.345,61.969574 1343.8458,65.057916 L 1345.6916,67.3374 1346.2542,61.132951 C 1346.8779,54.254757 1349.0529,50 1351.9452,50 1352.9898,50 1355.711,52.1375 1357.9923,54.75 1362.0918,59.444561 1362.1341,59.572075 1361.6147,65.675394 1360.8474,74.691835 1359.0339,78.263198 1353.8692,80.928966 1351.4661,82.169286 1348.5603,84.342422 1347.4117,85.758159 1345.9053,87.614868 1345.1098,87.986615 1344.5569,87.092085 z M 1349.5292,89.967714 C 1352.2224,86.991751 1357.8043,83.761028 1358.9884,84.492849 1359.5521,84.841233 1357.7151,86.672863 1354.9062,88.563138 1349.1956,92.40607 1346.7427,93.046833 1349.5292,89.967714 z M 1356,94.118689 C 1356,92.573358 1363.1236,87.723554 1364.0429,88.642949 1365.2121,89.812139 1364.1446,91.142375 1360.3457,93.25 1356.7854,95.225256 1356,95.382254 1356,94.118689 z"/>
</svg>
