<?xml version="1.0" encoding="UTF-8"?>
<svg xmlns="http://www.w3.org/2000/svg" viewBox="779.6 15.31 24.18 79.31">
  <path d="M795.03949 88.055453C792.47245 84.450383 792.04954 84.373546 789.23037 87.0C785.78652 90.208435 784.68908 89.562781 785.40597 84.75C788.74451 62.336735 787.71835 32.27287 783.37627 25.285183C781.78968 22.731899 781.59783 20.366589 782.91147 19.554716C783.95366 18.910608 789.9841 22.092621 789.99368 23.291701C789.99715 23.727136 791.35699 26.985831 793.01554 30.533244C796.522 38.033092 799.42377 53.66802 800.52597 71.0C801.77306 90.610284 801.78194 90.459803 799.35758 90.805453C797.90107 91.013114 796.51861 90.132688 795.03949 88.055453Z M798.62164 78.75C798.2854 75.3125 797.75629 69.125 797.44584 65.0C796.26357 49.291001 791.11114 26.773197 787.96893 23.582783C786.06274 21.647363 785.8803 26.114232 787.65728 31.212812C789.24632 35.772121 789.49677 39.700792 789.47655 59.75L789.45309 83.0L792.16753 83.0C793.66047 83.0 795.16008 83.45 795.5 84.0C795.83992 84.55 796.8189 85.0 797.67551 85.0C798.98457 85.0 799.13548 84.003089 798.62164 78.75Z"/>
</svg>
