<?xml version="1.0" encoding="UTF-8"?>
<svg xmlns="http://www.w3.org/2000/svg" viewBox="964.98 25.2 40.02 61.6">
  <path d="M 979.875,28 C 979.62128,28 979.02236,28.462444 978.625,28.65625 L 980.90625,31.09375 C 982.16493,32.42276 984.53268,35.462078 986.1875,37.84375 989.19212,42.168107 989.20194,42.184614 988.125,49.84375 986.48993,61.472185 986.30056,84 987.84375,84 988.31576,84 988.93867,75.626194 989.21875,65.40625 989.81578,43.620539 990.32642,42.247601 996.53125,45.5625 1000.0965,47.467225 1000.15,47.480835 1001.5625,45.5625 1002.3486,44.494879 1003,41.984879 1003,40 1003,33.676833 999.28937,32.20706 994.1875,36.5 992.5534,37.875 990.98577,39 990.71875,39 990.45173,39 988.37765,36.525 986.09375,33.5 983.4267,29.96752 981.19369,28 979.875,28 z M 997.96875,37.15625 C 999.14279,37.169983 1000.1922,37.899508 1000.5625,39.375 1000.9087,40.754446 1000.8905,42.35624 1000.5312,42.9375 999.62675,44.401052 997.73386,44.267719 995.4375,42.5625 993.88702,41.411156 993.71342,40.757096 994.59375,39.3125 995.48392,37.851753 996.79471,37.142517 997.96875,37.15625 z M 978.59375,28.6875 C 977.09191,29.433375 974.96314,31.07228 972.5,33.71875 L 967.1875,39.4375 967.0625,61.71875 C 966.9815,76.451373 967.286,84 967.96875,84 968.83244,84 969.65916,53.20273 969.09375,42 969.00875,40.315998 970.53028,37.742228 973.78125,34.09375 L 978.59375,28.6875 z M 977.21875,44.375 C 977.06849,44.565742 977.00597,45.178531 977,46.25 976.99158,47.7625 977.45,49 978,49 979.26441,49 979.26441,46.956534 978,45 977.62231,44.415562 977.36901,44.184258 977.21875,44.375 z M 977.84375,50.5625 C 977.36677,50.030149 977.07735,52.448114 977.15625,56.0625 L 977.28125,62.5 978,57 C 978.3907,53.975 978.3119,51.085 977.84375,50.5625 z M 977.625,65.75 C 977.50835,65.259321 977.32356,66.640344 976.96875,69.5 976.55931,72.8 976.15345,77.1875 976.09375,79.25 976.03406,81.3125 976.45,83 977,83 977.60834,83 977.93319,79.181347 977.84375,73.25 977.77368,68.603059 977.74165,66.240679 977.625,65.75 z"/>
</svg>
