<?xml version="1.0" encoding="UTF-8"?>
<svg xmlns="http://www.w3.org/2000/svg" viewBox="995.82 21.84 99.81 68.22">
  <path d="M 1091.0938,42.71875 C 1090.1748,42.810894 1089.5131,42.738662 1088.4375,42.9375 1085.2466,43.527363 1082.4865,44 1082.3125,44 1081.4082,44 1082.2369,39.413327 1083.9375,34.9375 1086.3324,28.634851 1084.4688,28.728923 1081.2188,35.0625 1079.8109,37.80611 1079.0439,40.84212 1079.2188,43 1079.4844,46.279325 1079.7207,46.5 1083,46.5 1089.5147,46.5 1088.3527,48.392874 1079.5,52.21875 1077.2269,53.201101 1075.3854,55.639471 1071.9375,62.28125 1069.4348,67.102463 1066.2848,72.12223 1064.9375,73.4375 L 1062.5,75.84375 1056.5,73.9375 C 1048.5471,71.403466 1045.9202,72.409688 1043.0312,79.125 1041.8615,81.844323 1041.2148,84.531098 1041.5625,85.09375 1042.7133,86.955788 1044.4511,85.392681 1045.3125,81.75 1045.7795,79.775335 1047.0097,77.424435 1048.0312,76.5 1049.7723,74.924342 1050.3344,74.92386 1057.0625,76.65625 L 1064.2188,78.5 1067.4688,74.75 C 1069.2507,72.688723 1072.5894,67.247297 1074.9062,62.65625 1078.9318,54.679583 1079.3371,54.25962 1083.8125,52.875 1087.6121,51.699453 1088.8238,50.725345 1090.25,47.71875 1090.411,47.379399 1090.518,47.22279 1090.6562,46.9375 L 1091.0938,42.71875 z M 1038.2812,24.9375 1033.875,25.53125 C 1022.8904,27.025099 1020.6773,28.67991 1018.9062,36.59375 1017.876,41.197456 1017.9275,42.228344 1019.375,44.4375 1020.7024,46.463488 1021.8717,47 1025.0312,47 L 1029,47 1028.9062,54.25 C 1028.8515,58.2375 1028.514,62.545304 1028.1562,63.8125 L 1027.5,66.09375 1023.5,63.09375 C 1017.4712,58.532721 1011.8457,59.354931 1005.7188,65.75 1002.7691,68.828782 1000.3597,78.330769 1001.4375,82.625 1001.7643,83.927153 1002.6112,85 1003.3125,85 1004.222,85 1004.5938,83.019319 1004.5938,78.125 1004.5938,70.357728 1006.1413,67.121869 1011.3125,63.96875 1015.8295,61.214612 1018.0509,61.504584 1022.7188,65.5 1024.9677,67.425 1027.5023,69 1028.3438,69 1030.11,69 1030.9372,64.528987 1031.2812,53 L 1031.5,45.5 1027.0938,45 C 1021.2787,44.338957 1020.1892,42.529921 1021.8438,36.34375 1023.5903,29.813503 1024.4884,29 1030.125,29 1035.4247,29 1035.5387,29.165026 1033.875,33.9375 1032.0679,39.121207 1033.9822,39.841968 1039.5938,36.125 1042.198,34.399992 1044.7006,33 1045.1562,33 1045.612,33 1046,34.313976 1046,35.9375 1046,38.034231 1044.9137,39.943603 1042.25,42.53125 L 1038.5,46.1875 1038.5938,56.09375 C 1038.6475,61.549463 1038.9905,66.303075 1039.3438,66.65625 1039.6968,67.009425 1041.7905,66.496348 1044,65.5 1048.0056,63.693726 1048.0209,63.708916 1052.75,66.25 1056.2786,68.146002 1058.0761,68.578206 1059.75,67.9375 1060.9875,67.463839 1062,66.64968 1062,66.125 1062,65.600319 1064.0228,62.13175 1066.5,58.4375 1070.8729,51.916384 1070.9729,51.639949 1069.5312,48.75 1066.142,41.955972 1066.4703,36.446865 1070.8125,27.65625 1071.0426,27.190342 1070.3475,27.287637 1069.25,27.875 1066.835,29.167434 1064.0067,35.845474 1064,40.28125 1063.9972,42.05762 1064.7253,45.551874 1065.625,48.0625 L 1067.25,52.625 1062.9688,59.3125 C 1060.6081,62.989374 1058.1607,66 1057.5312,66 1056.9019,66 1054.8637,64.875 1053,63.5 1049.1537,60.662275 1047.31,60.443961 1044.5938,62.5 1043.5502,63.28989 1042.3128,63.696091 1041.8438,63.40625 1041.3748,63.116409 1041,59.559089 1041,55.5 1041,48.326749 1041.1121,47.992065 1045,43.5 1048.3544,39.624245 1049,38.173251 1049,34.5 1049,32.090911 1048.5306,29.847293 1047.9688,29.5 1047.4069,29.152706 1044.6955,30.24051 1041.9375,31.9375 L 1036.9375,35.03125 1037.5938,29.96875 1038.2812,24.9375 z M 1078.7188,28.28125 C 1078.2651,28.469129 1077.6464,28.906349 1076.875,29.59375 1073.1343,32.926887 1070.4842,42.171797 1072.6562,44.34375 1074.1311,45.818724 1074.7722,44.772795 1075.2188,40.125 1075.4906,37.296166 1076.6206,33.911915 1077.9375,32.0625 1079.9306,29.263535 1080.0798,27.717614 1078.7188,28.28125 z M 1015.5625,70.125 C 1014.8824,70.028345 1014.2614,70.072996 1013.7188,70.28125 1011.4107,71.166972 1008.9874,75.24709 1008.3125,79.40625 1007.471,84.591536 1009.2354,83.831745 1011,78.25 1011.8338,75.612397 1013.2006,73.377113 1014.0625,73.21875 1017.0332,72.672878 1022.4508,77.353455 1023.4375,81.3125 1024.3976,85.16457 1026.2326,85.783826 1026.875,82.46875 1027.6924,78.250479 1020.3233,70.801586 1015.5625,70.125 z"/>
</svg>
