<?xml version="1.0" encoding="UTF-8"?>
<svg xmlns="http://www.w3.org/2000/svg" viewBox="1177.27 26.87 47.55 49.38">
  <path d="M 1184.5625,29.21875 C 1184.1016,29.111401 1183.7091,29.175564 1183.3438,29.375 1182.8565,29.640915 1182.4445,30.165467 1182.0312,30.9375 1179.4277,35.802361 1181.6227,46.861832 1186.1562,51.6875 L 1188.25,53.875 1186.125,57.3125 C 1184.9599,59.197673 1184,61.719086 1184,62.9375 1184,66.268734 1186.266,64.892067 1187.2812,60.9375 1187.766,59.04991 1188.8157,56.774558 1189.5938,55.90625 1191.5243,53.751994 1191.3807,52.638843 1188.875,50.40625 1185.7379,47.611046 1183.9908,42.764938 1184,36.78125 L 1184.0312,31.5 1189.375,37.34375 C 1192.7624,41.031728 1195.3801,43.062476 1196.4688,42.84375 1198.5726,42.420993 1204.6499,34.306125 1203.625,33.28125 1203.2216,32.877792 1201.3428,34.344135 1199.4688,36.53125 L 1196.0625,40.5 1190.9375,34.75 C 1187.8701,31.302035 1185.9452,29.540797 1184.5625,29.21875 z M 1222.6562,31.9375 C 1221.5045,33.772789 1220.5215,35.202732 1219.0625,37.8125 1217.0022,41.497803 1213.6064,47.425 1211.5312,51 1209.4561,54.575 1206.9577,58.85 1206,60.5 1205.1811,61.910782 1201.5223,68.069614 1197.9688,74 L 1200.1875,74 C 1208.1824,60.802411 1219.9335,41.196039 1221.9062,37.5 1222.1198,37.100082 1222.4057,36.614357 1222.6562,36.15625 L 1222.6562,31.9375 z M 1218.1875,74 C 1219.6852,71.758705 1220.918,70.043959 1222.6562,67.28125 L 1222.6562,63.0625 C 1219.807,67.602424 1218.7963,69.523154 1216.0938,74 L 1218.1875,74 z"/>
</svg>
