<?xml version="1.0" encoding="UTF-8"?>
<svg xmlns="http://www.w3.org/2000/svg" viewBox="1083.55 39.91 24.7 43.09">
  <path d="M 1091.0938 42.71875 L 1090.6562 46.9375 C 1092.1857 43.781192 1092.5273 43.674414 1095.0625 45.03125 C 1096.6198 45.864654 1097 47.168256 1097 51.65625 C 1097 56.949673 1096.7478 57.492652 1092 62.6875 C 1085.7177 69.561361 1085.5495 71.941567 1091.0312 77.15625 C 1093.2545 79.27109 1095.6649 81 1096.375 81 C 1098.0272 81 1104.7683 74.278761 1105.5312 71.875 C 1106.2521 69.603771 1103.4155 63.385749 1100.8125 61.5625 C 1099.0715 60.343097 1098.9599 59.650644 1099.8438 54.84375 C 1101.6365 45.09317 1099.1656 41.909345 1091.0938 42.71875 z M 1096.75 60.53125 L 1099.875 63.875 C 1103.8415 68.121077 1103.9352 71.721956 1100.1875 75.3125 C 1098.6449 76.7904 1097.0497 78 1096.625 78 C 1095.0509 78 1090 72.094755 1090 70.25 C 1090 69.199328 1091.5183 66.585401 1093.375 64.4375 L 1096.75 60.53125 z "/>
</svg>
