<?xml version="1.0" encoding="UTF-8"?>
<svg xmlns="http://www.w3.org/2000/svg" viewBox="1757.18 13.38 19.3 89.69">
  <path d="M 1761.2046,85.75 C 1761.2225,78.4625 1760.8864,62.825 1760.4577,51 1759.2416,17.461156 1759.1756,19.426495 1761.5,19.953176 1764.0484,20.530609 1769.0719,20.527519 1770.9425,19.947368 1773.5311,19.144535 1774.2744,28.341554 1774.3891,62.596341 1774.479,89.420565 1774.238,96.008406 1773.1173,97.358672 1772.0713,98.619017 1771.4068,98.752581 1770.3882,97.907224 1769.4011,97.087999 1768.1958,97.084708 1765.8717,97.894893 1764.1281,98.502702 1762.3574,99 1761.9368,99 1761.5162,99 1761.1867,93.0375 1761.2046,85.75 z M 1770.1823,92.638174 C 1771.5582,90.546692 1771.9822,31.813875 1770.6584,26.691644 1770.0058,24.166364 1769.558,23.914369 1766.2163,24.191644 1762.5759,24.4937 1762.5024,24.581728 1762.6173,28.5 1762.6818,30.7 1763.1134,42.625 1763.5765,55 1764.0396,67.375 1764.3018,80.993946 1764.1591,85.264324 1764.0164,89.534703 1764.1477,93.429957 1764.4508,93.920444 1765.1194,95.002241 1769.2325,94.082047 1770.1823,92.638174 z"/>
</svg>
