<?xml version="1.0" encoding="UTF-8"?>
<svg xmlns="http://www.w3.org/2000/svg" viewBox="1265.55 15.66 85.86 90.18">
  <path d="M 1347.5 50.5 L 1344.5 52 C 1342.85 52.831782 1339.2856 54.769923 1336.5938 56.28125 L 1331.7188 59.03125 L 1328 55 C 1324.3906 51.09027 1322 49.925342 1322 52.0625 C 1322 52.644959 1321.5763 52.848762 1321.0625 52.53125 C 1320.5488 52.213738 1318.2903 52.689848 1316.0312 53.59375 C 1313.7723 54.497651 1311.6084 54.923769 1311.2188 54.53125 C 1309.939 53.242199 1310.6511 40.575966 1312.2188 36.90625 C 1313.711 33.412554 1313.9185 33.309431 1319.5625 33.125 C 1322.7539 33.020713 1325.9645 32.443771 1326.6875 31.84375 C 1328.4701 30.364314 1328.3379 25.931895 1326.4375 23.21875 C 1324.3126 20.185046 1321.0798 20.433455 1316.1562 24 C 1313.8785 25.65 1311.5862 27 1311.0625 27 C 1310.5388 27 1309.3184 25.65 1308.3438 24 C 1305.9274 19.909372 1302.8072 20.081025 1299.2812 24.5 C 1295.8606 28.787053 1293.7862 28.912796 1291 25 C 1287.2699 19.761575 1279.6562 21.650822 1279.6562 27.8125 C 1279.6562 33.635714 1284.0226 35.393734 1291.1875 32.5 C 1293.9941 31.366447 1297 38.601943 1297 46.46875 C 1297 53.294566 1295.7446 54.819857 1292.9375 51.4375 C 1290.7358 48.78467 1286.2393 46.808108 1285.6562 48.25 C 1285.365 48.970272 1285.1399 48.770507 1285.0938 47.75 C 1284.9684 44.968546 1282.5412 45.708707 1278.3125 49.8125 C 1273.412 54.568318 1269.8434 62.067888 1269.6562 67.9375 C 1269.4486 74.454236 1271.8529 74.494002 1276 68.03125 C 1280.4526 61.092422 1282.5189 59.717149 1285.9062 61.46875 C 1287.3427 62.211549 1289.5458 64.652331 1290.8125 66.90625 C 1292.0793 69.16017 1293.5777 71 1294.125 71 C 1294.6725 71 1294.7751 71.562178 1294.3438 72.25 C 1293.9124 72.9375 1293.6641 74.4 1293.8125 75.5 C 1294.0136 76.990528 1293.8705 77.163444 1293.1875 76.15625 C 1292.4786 75.110836 1291.686 75.563747 1289.75 78.15625 C 1284.5377 85.135889 1284.5302 85.296654 1289.125 93 C 1293.5406 100.40288 1296.0091 101.74306 1298.0625 97.90625 C 1298.7563 96.609853 1298.9248 93.651605 1298.5312 90.15625 C 1297.907 84.612552 1297.9647 84.444893 1301.3125 81.8125 L 1304.7188 79.125 L 1308.2812 81.53125 C 1312.8726 84.651166 1313.1084 85.627762 1310.625 90.78125 C 1308.2595 95.690017 1309.0675 98.328451 1313.0938 98.78125 C 1315.0174 98.997598 1316.2432 97.924984 1319.25 93.46875 C 1323.7911 86.738728 1323.9258 83.964779 1319.9688 78.96875 C 1315.4419 73.25304 1314.3317 69.399156 1316.5312 66.96875 C 1318.9091 64.34113 1320.0677 64.477667 1324.5 68 C 1329.2492 71.774174 1332.5129 71.789618 1338.0625 68.0625 L 1342.4375 65.125 L 1343.0938 66.53125 L 1343 65 L 1344.3438 60 C 1341.572 63.059594 1334.0115 68 1331.5 68 C 1330.5704 68 1327.9677 66.425 1325.7188 64.5 C 1323.4698 62.575 1320.8815 61 1319.9375 61 C 1318.0521 61 1311.9962 67.341178 1312.0312 69.28125 C 1312.0718 71.531826 1315.784 78.490744 1318.4062 81.21875 C 1321.7779 84.726352 1321.6791 86.157741 1317.75 91.5 C 1312.772 98.268507 1311.954 97.356895 1314.8438 88.1875 C 1315.8269 85.067543 1315.6402 84.590059 1311.8125 80.4375 C 1309.569 78.00364 1307.1063 76 1306.3125 76 C 1305.5188 76 1302.6312 77.889826 1299.9062 80.1875 C 1295.311 84.062311 1294.9733 84.629058 1295.375 88.125 C 1295.6131 90.198014 1296.1029 92.333693 1296.4375 92.875 C 1297.7772 95.042733 1294.712 95.073109 1293.1562 92.90625 C 1287.5853 85.147202 1287.6145 85.660921 1292.5312 79.625 C 1296.8498 74.323507 1298.0671 70.777547 1296 69.5 C 1295.45 69.160081 1295 68.221062 1295 67.40625 C 1295 65.23093 1290.8732 60.009014 1287.9688 58.5 C 1284.4529 56.673338 1280.4 58.540222 1275.7188 64.125 C 1272.8439 67.554717 1272.0294 68.066878 1272.0312 66.5 C 1272.0376 61.245021 1279.597 50 1283.125 50 C 1285.855 50 1289.964 52.391393 1293.4375 56 C 1296.0744 58.739487 1296.5369 58.900605 1297.9062 57.53125 C 1300.2326 55.204869 1300.6177 43.158511 1298.5625 36.875 C 1296.9206 31.85523 1296.919 31.729293 1299.1875 28.40625 C 1300.4555 26.548862 1302.0285 24.837172 1302.6562 24.59375 C 1303.284 24.350328 1305.2389 25.93357 1307 28.125 L 1310.1875 32.125 L 1308.5938 40.8125 C 1306.9218 49.985805 1307.3568 56.805154 1309.6562 57.6875 C 1310.4079 57.975934 1313.5743 57.201075 1316.6875 55.9375 L 1322.3438 53.625 L 1325.9375 57.8125 C 1327.9204 60.114785 1329.9575 62 1330.4375 62 C 1330.9175 62 1334.3687 60.228165 1338.125 58.0625 C 1342.777 55.380429 1345.0254 54.579876 1345.6875 55.59375 L 1347.5 50.5 z M 1322.1875 24.09375 C 1323.3763 24.104672 1324.1873 24.911862 1324.5938 26.53125 C 1324.9454 27.931864 1325.0229 29.320844 1324.75 29.59375 C 1323.6402 30.703533 1317.3987 30.988348 1316 30 C 1314.7306 29.103026 1314.9611 28.560255 1317.5 26.46875 C 1319.4396 24.870916 1320.9987 24.082828 1322.1875 24.09375 z M 1285.5625 25 C 1287.9306 25 1289.7092 28.043486 1288.5 30 C 1287.6131 31.435093 1283.2524 31.243241 1282.75 29.75 C 1281.9112 27.257098 1283.2526 25 1285.5625 25 z "/>
</svg>
