<?xml version="1.0" encoding="UTF-8"?>
<svg xmlns="http://www.w3.org/2000/svg" viewBox="2938.22 15.44 79.98 86.38">
  <path d="M 3014.5625,21.8125 C 3013.8042,21.970087 3012.8948,22.239145 3012.5938,22.15625 3012.1015,22.020721 3010.4522,23.112694 3008.9062,24.59375 L 3006.0938,27.28125 3004.875,24.65625 C 3002.6738,19.825186 3000.4049,21.88438 3002.1562,27.125 3003.9538,32.503722 3004.6899,32.711369 3008.75,28.8125 3010.4062,27.222073 3012.617,25.869599 3014.4062,25.125 L 3014.5625,21.8125 z M 3014.2188,29.34375 C 3013.563,29.416295 3012.9084,29.661732 3012.3125,30.15625 3009.9404,32.124914 3006.4691,37.979504 3005,42.5 3002.2573,50.938938 2994.1742,61.001961 2990.125,61 2989.2367,60.99957 2986.725,59.42457 2984.5625,57.5 2982.4001,55.57543 2980.245,54 2979.7812,54 2978.5114,54 2977.0812,58.496289 2976.4688,64.3125 2975.894,69.769106 2976.2471,70.823427 2981.2812,77.84375 L 2984.0625,81.71875 2982.1875,86.5625 C 2981.1407,89.22757 2979.7493,91.573134 2979.125,91.78125 2977.6495,92.273088 2977.651,87.75527 2979.125,86.28125 2979.7447,85.661519 2979.9905,84.090269 2979.6562,82.8125 2978.8535,79.743966 2972.3284,72.984967 2970.1875,73 2969.2597,73.006515 2966.8153,75.462204 2964.75,78.4375 2961.5034,83.114526 2961.131,84.214391 2962,86.5 2964.293,92.531161 2962.1646,92.684094 2959,86.71875 2956.7542,82.485359 2956.7446,82.387526 2958.5625,78.96875 2959.5752,77.064384 2960.2839,75.05 2960.125,74.5 2959.9661,73.95 2960.1547,73.842272 2960.5625,74.25 2962.2067,75.89429 2964,72.55884 2964,67.84375 2964,62.434276 2960.2459,53.690702 2957.4688,52.625 2955.2829,51.786179 2952.5883,53.365017 2950,57 2947.2967,60.79638 2945.9936,60.051896 2946,54.6875 2946.0034,51.818891 2946.7374,49.593457 2948.3125,47.625 2950.5511,44.827466 2950.6906,44.795054 2953.625,46.3125 2955.2841,47.170468 2957.2227,48.576235 2957.9375,49.4375 2961.2568,53.436993 2964.2493,49.50647 2964.3125,41.0625 2964.3354,38.010079 2964.0525,33.849166 2963.6562,31.8125 2963.0192,28.536959 2963.2163,27.902642 2965.5,26.40625 2967.7005,24.964421 2968.4533,24.887892 2970.5312,26 2973.6857,27.688203 2974.3624,30.037795 2973.0625,34.71875 2972.4845,36.80014 2972.003,41.0875 2972,44.25 2971.9947,49.639263 2972.1466,50 2974.375,50 2975.6826,50 2977.3257,49.31878 2978.0312,48.46875 2978.7367,47.61872 2979.8879,47.11612 2980.5625,47.375 2981.3598,47.680939 2981.6085,47.188825 2981.2812,45.9375 2980.6858,43.660622 2980.1229,43.585559 2977.5938,45.5 2976.5503,46.28989 2975.3128,46.696091 2974.8438,46.40625 2973.4528,45.546613 2973.8907,40.061064 2975.625,36.40625 2976.9231,33.670736 2977.8134,33 2980.1875,33 2984.2667,33 2986.6521,31.504579 2987.4062,28.5 2988.2334,25.204116 2986.4956,22 2983.875,22 2982.7417,22 2980.4918,22.942495 2978.875,24.09375 2975.7832,26.295331 2974.4782,25.936544 2971.2812,22 2970.313,20.807792 2970.0565,20.788794 2970.0312,21.875 2970.012,22.70117 2969.262,23.039137 2968.1562,22.75 2967.1503,22.486944 2965.493,22.876091 2964.4688,23.625 2961.7735,25.595896 2960.0262,25.327032 2957.4062,22.5 2954.5879,19.458888 2953.0546,19.364752 2949.625,22.0625 2946.2596,24.709657 2946.2499,28.343588 2949.5625,31.65625 2951.5788,33.672571 2952.6781,34.032982 2954.8125,33.46875 2960.4442,31.98002 2960.4651,32.035066 2960.7812,39.25 2960.9439,42.9625 2960.822,46 2960.5,46 2960.1779,46 2958.1562,45.1 2956,44 2949.3363,40.600421 2946.5555,41.762373 2944.1562,48.90625 2941.8528,55.764976 2943.4922,66.376733 2947.0312,67.5 2949.8741,68.402269 2951,67.30536 2951,63.65625 2951,60.157915 2953.3547,56 2955.3438,56 2956.9402,56 2961,64.2945 2961,67.5625 2961,68.936046 2959.3814,72.409926 2957.4062,75.28125 2953.2416,81.335634 2953.2538,84.278885 2957.4375,90.90625 2961.8499,97.89596 2966.761,95.304712 2965.4688,86.6875 2964.9544,83.258114 2965.2551,81.968293 2967,79.75 2969.7613,76.239544 2971.1103,76.280813 2973.9062,80.0625 2976.008,82.905331 2976.068,83.512006 2974.9688,88.09375 2974.0394,91.967836 2974.0707,93.37388 2975.0312,94.53125 2977.7016,97.748911 2981.0781,95.816958 2984.4375,89.1875 2987.1709,83.793134 2986.8845,78.524486 2983.6875,75.1875 2979.4683,70.783619 2977.4408,61.524944 2980.4375,60.375 2981.2248,60.072898 2983.2016,60.817131 2984.8438,62.03125 2989.2073,65.257448 2993.8694,64.148094 2998.5625,58.71875 3002.741,53.884623 3007.9862,45.176271 3008,43.0625 3008.0199,40.02478 3012.1805,33 3013.9688,33 3014.0055,33 3014.0264,33.029852 3014.0625,33.03125 L 3014.2188,29.34375 z M 2997.4375,22.0625 C 2997.1404,22.159806 2996.8282,22.469001 2996.5,23 2996.1572,23.554554 2996.6534,27.193659 2997.5938,31.0625 2999.0072,36.877991 2999.0782,38.777003 2998.0938,42.0625 2996.7802,46.447024 2991.5756,53 2989.4062,53 2988.645,53 2986.8888,51.2 2985.5,49 2984.1112,46.8 2982.8379,45 2982.6875,45 2981.6475,45 2982.9811,52.027227 2984.4375,54.25 2987.0223,58.194955 2989.7107,57.674981 2995,52.1875 3000.0638,46.933856 3002.7254,40.071479 3001.5625,35.28125 3001.1916,33.753126 3000.4195,30.1375 2999.8438,27.25 2999.0869,23.454111 2998.3287,21.770582 2997.4375,22.0625 z M 2953.1562,24.1875 C 2956.16,24.634381 2957.9909,27.730811 2956,29 2953.8392,30.377473 2953.1934,30.234013 2952.0312,28.0625 2950.4339,25.077766 2950.8043,23.837587 2953.1562,24.1875 z M 2982.6562,25.375 C 2983.1936,25.267715 2983.6772,25.281223 2984.0312,25.5 2984.6684,25.893815 2984.6422,26.804156 2983.9688,28.0625 2982.7581,30.32474 2979,30.677843 2979,28.53125 2979,27.236322 2981.0443,25.696856 2982.6562,25.375 z"/>
</svg>
