<?xml version="1.0" encoding="UTF-8"?>
<svg xmlns="http://www.w3.org/2000/svg" viewBox="2081.56 16.05 29.5 86.82">
  <path d="M 2094.5,96.070784 C 2092.85,95.013828 2089.7774,92.651191 2087.672,90.820481 L 2083.844,87.491917 2087.2637,82.995959 C 2090.9176,78.192149 2093,74.663518 2093,73.275717 2093,72.805045 2091.2,70.430973 2089,68 2084.6185,63.158448 2084.2282,61.88544 2086.5378,59.968641 2087.3836,59.266704 2089.4177,56.99776 2091.0582,54.926544 L 2094.0408,51.160696 2091.0024,46.830348 C 2089.3312,44.448657 2086.9725,41.246839 2085.7607,39.715199 L 2083.5575,36.930397 2087.409,29.715199 C 2092.129,20.87309 2092.8044,20 2094.9251,20 2097.0675,20 2103.9418,26.800167 2106.3326,31.284565 L 2108.1652,34.721917 2104.5826,41.835995 C 2102.6122,45.748737 2101,49.654126 2101,50.514636 2101,51.375146 2102.8138,53.857071 2105.0306,56.030025 L 2109.0613,59.98085 2107.3824,63.240425 C 2106.4591,65.033191 2104.6453,67.892476 2103.3518,69.594391 2100.3435,73.552624 2100.4307,74.738863 2104.0406,78.962226 2107.8203,83.384107 2107.7658,85.933582 2103.75,92.571345 2100.1823,98.468454 2098.963,98.929713 2094.5,96.070784 z M 2101.9685,41.907768 2105.2156,35.815536 2103.3578,32.308361 C 2101.5235,28.845545 2096.6472,24 2094.9967,24 2093.9959,24 2088,34.208322 2088,35.912219 2088,38.317258 2095.6379,48 2097.535,48 2098.1875,48 2100.1826,45.258496 2101.9685,41.907768 z M 2104.2401,63.188411 2105.9803,60.224776 2101.4379,56.502611 2096.8955,52.780447 2092.9477,57.056613 C 2090.7765,59.408505 2089,61.803371 2089,62.378538 2089,62.953706 2090.9125,65.38104 2093.25,67.772615 L 2097.5,72.120934 2100,69.136489 C 2101.375,67.495045 2103.2831,64.818409 2104.2401,63.188411 z M 2101.3671,91.02144 C 2104.8775,85.716918 2104.6905,83.49051 2100.372,79.172015 L 2096.744,75.54403 2094.0264,78.799361 C 2092.5316,80.589793 2090.7212,83.152418 2090.0032,84.494083 2088.818,86.708595 2088.9651,87.200082 2091.5988,89.825506 2093.8502,92.069757 2097.3619,94.643663 2098.6171,94.969591 2098.6815,94.986316 2099.919,93.209648 2101.3671,91.02144 z"/>
</svg>
