<?xml version="1.0" encoding="UTF-8"?>
<svg xmlns="http://www.w3.org/2000/svg" viewBox="2526.9 14.99 109.05 89.31">
  <path d="M 2618.2188,86.59375 C 2615.325,89.28068 2614.2275,91 2615.9688,91 2616.3782,91 2617.9236,89.811807 2619.3438,88.6875 L 2618.2188,86.59375 z M 2621,91.8125 C 2619.5901,92.134193 2618.261,92.411327 2616.5,92.90625 2607.7578,95.363166 2603.5492,95.197185 2599.25,92.21875 2594.7171,89.078353 2593.385,89.009561 2589.8438,91.625 2586.2546,94.27585 2582.983,94.172142 2579.8438,91.34375 2578.3704,90.016276 2577.8449,90.015901 2575.1562,91.40625 2573.4911,92.267324 2571.8423,93.446089 2571.5,94 2570.407,95.768432 2565.6512,95.042555 2561.0938,92.4375 2557.3295,90.285758 2556.2115,90.067092 2553.625,90.96875 2551.9547,91.551038 2549.5611,93.014517 2548.3125,94.1875 2545.4397,96.886311 2540.4982,96.820451 2537.5625,94.0625 2536.3544,92.927559 2534.5021,92.016368 2533.4375,92.03125 2531.8591,92.053315 2532.2038,92.699034 2535.25,95.53125 2539.9637,99.913806 2544.9333,100.23807 2550,96.5 2554.1293,93.453486 2555.7622,93.379948 2560.9688,96.09375 2565.3951,98.400872 2570.3141,98.158685 2574.5625,95.375 2576.589,94.047164 2577.1821,94.044941 2579.875,95.4375 2583.8558,97.496054 2585.7767,97.399834 2590.3125,94.96875 L 2594.0625,92.96875 2598.5938,95.625 C 2602.6692,98.013363 2603.7637,98.212701 2609.5,97.625 2613.0043,97.265972 2617.7571,96.282149 2620.0625,95.46875 2620.9382,95.159793 2621.7564,95.017505 2622.5938,94.8125 L 2621,91.8125 z M 2535.25,86.03125 C 2534.0384,85.926593 2533.9253,87.260054 2535.5,89 2536.4985,90.103372 2537.7136,91 2538.2188,91 2539.6941,91 2538.6721,87.827334 2536.8125,86.65625 2536.1851,86.261172 2535.6539,86.066136 2535.25,86.03125 z M 2577.4375,19.65625 C 2577.268,19.689507 2577.1327,19.816489 2577,20.03125 2576.5787,20.712889 2575.6903,20.938544 2575.0312,20.53125 2574.3172,20.089896 2572.438,21.124569 2570.4062,23.09375 L 2567,26.375 2564.1875,23.6875 C 2562.6343,22.199418 2561.0799,21.263924 2560.7188,21.625 2560.3577,21.986076 2559.3075,21.685501 2558.4062,20.9375 2556.984,19.757116 2556.4454,19.936757 2554.375,22.34375 2549.3791,28.151793 2552.5312,33.417808 2560.6562,32.84375 2565.3607,32.511365 2565.5058,32.575377 2566.6875,36 2568.106,40.110734 2568.3927,52.634655 2567.0938,53.4375 2566.6004,53.742355 2564.0341,52.197395 2561.375,50 2558.7158,47.802604 2555.541,46 2554.3125,46 2548.6492,46 2540.4254,58.733841 2541.1875,66.34375 2541.6512,70.974292 2543.493,70.558877 2546.875,65.0625 2550.2196,59.626743 2552.9571,58.274067 2557.25,59.90625 2560.7945,61.253865 2562.5949,65.133583 2563.375,73.0625 2563.8591,77.983568 2563.6706,80.096428 2562.5938,81.5625 2561.2244,83.426962 2561.0145,83.436484 2558.25,81.8125 2555.5062,80.200648 2555.1952,80.196654 2552.2812,81.96875 2550.5914,82.996342 2548.93,84.311671 2548.5625,84.90625 2547.5468,86.549726 2544.7823,86.176315 2542,84 2539.0117,81.662526 2538,81.504623 2538,83.40625 2538,84.185377 2539.2375,85.779603 2540.75,86.9375 2543.9127,89.358723 2549.0929,89.124888 2552.0625,86.4375 2553.5544,85.087274 2554.6581,84.981847 2558.4062,85.78125 2565.5836,87.312018 2566.5463,86.045594 2566.25,75.53125 2566.0103,67.025207 2564.7288,62.753281 2561.2188,58.75 2559.2391,56.492059 2551.8286,56.423549 2548.4688,58.625 2546.1151,60.167228 2546,60.127468 2546,58.09375 2546,56.922417 2547.4916,54.330759 2549.3125,52.34375 2553.258,48.038504 2554.6005,48.255018 2560.8438,54.0625 2565.8603,58.729019 2567.8948,58.774626 2570.0312,54.25 2571.5629,51.006239 2571.4442,46.89982 2569.5,33.5 2568.8326,28.899785 2569.0062,28.275079 2571.5312,25.75 2573.0417,24.239444 2574.6216,23 2575.0312,23 2575.441,23 2576.991,24.615407 2578.5,26.59375 2581.2181,30.157419 2581.2481,30.256997 2580.0625,37.34375 2578.9247,44.145294 2579.1628,54.506555 2580.5,55.84375 2580.8427,56.186392 2582.4972,55.670923 2584.1562,54.71875 2588.7061,52.107518 2592.2449,52.522052 2595.3438,56 2596.8139,57.65 2598.7319,59 2599.625,59 2602.4897,59 2609.7047,50.819112 2610.9688,46.125 2612.0142,42.242061 2611.9419,41.535287 2610.1875,39.625 2607.3487,36.533941 2606.3963,29.567615 2608.4062,26.5 2609.2827,25.162444 2610,23.600601 2610,23.03125 2610,20.944251 2607.909,22.086073 2605.9375,25.25 2603.6892,28.858298 2603.9667,35.107184 2606.5938,40.1875 2607.3656,41.679933 2608,43.709045 2608,44.6875 2608,46.89488 2601.8872,55.997361 2600.4062,56 2599.8096,56.001063 2598.0798,54.609122 2596.5625,52.90625 2593.7205,49.716562 2593.3304,49.653145 2584.5,51.15625 2582.6316,51.474283 2582.5056,50.965456 2582.5938,43.46875 2582.715,33.161707 2583.7308,31.211913 2589.2188,30.8125 2592.5278,30.571669 2593.7089,29.972268 2594.6562,28.0625 2597.3041,22.724419 2591.1469,19.046619 2585.9688,22.875 2582.2164,25.649221 2581.7733,25.564752 2579.5938,21.875 2578.6383,20.257606 2577.9459,19.556479 2577.4375,19.65625 z M 2616.4688,23 C 2613.7746,23 2610.1646,33.650775 2611.5938,37.375 2611.9387,38.273834 2613.0538,39 2614.0625,39 2616.216,39 2617.9023,36.790374 2616.1875,36.21875 2614.5535,35.674112 2614.7039,29.073172 2616.4375,25.75 2617.6695,23.388156 2617.6841,23 2616.4688,23 z M 2622.2188,23 C 2620.4896,23 2617.8369,31.057962 2618.5312,34.21875 2619.3144,37.784765 2621.3322,38.697502 2624.5625,36.96875 2625.8995,36.253172 2627.3248,35.981125 2627.7188,36.375 2628.9983,37.654559 2626.3621,40.479075 2623.4062,41 2621.1391,41.399537 2620.0204,42.577034 2618.1875,46.4375 2615.1798,52.772738 2607.4136,62.842941 2604.5312,64.15625 2602.7711,64.958238 2600.8874,64.626663 2595.875,62.5625 2588.5978,59.565696 2589.1998,59.718675 2586.375,59.875 2583.7002,60.023023 2580.3554,66.697848 2579.5,73.625 2578.8153,79.169948 2581.2152,85.265709 2584.3125,85.84375 2585.3056,86.029077 2588.17,85.214594 2590.6875,84.03125 L 2595.25,81.875 2598.375,84.8125 C 2600.0895,86.432111 2602.175,88.013399 2603,88.3125 2606.3709,89.534626 2610.0298,88.8813 2612.6875,86.59375 2614.2307,85.265539 2615.1592,83.847584 2614.75,83.4375 2614.3409,83.027416 2613.1967,83.430455 2612.1875,84.34375 2609.2222,87.027325 2605.4294,86.382674 2601.0625,82.4375 2598.394,80.026607 2596.3288,78.952025 2594.7812,79.1875 2593.5189,79.379572 2592.5645,79.994308 2592.6562,80.53125 2592.7478,81.068192 2591.8478,81.551013 2590.6562,81.625 2589.4645,81.698987 2587.5226,82.081454 2586.3438,82.46875 2584.5297,83.064819 2584.0242,82.634047 2583.0312,79.625 2581.4838,74.936429 2582.6015,68.033376 2585.4688,64.4375 2587.6145,61.746446 2587.8788,61.669363 2590.125,63.09375 2591.4357,63.924856 2594.6733,65.420507 2597.3125,66.40625 2601.3502,67.914361 2602.5764,68.011473 2605.0938,66.96875 2608.8399,65.417034 2613.454,60.065796 2618.5,51.4375 2621.1495,46.907032 2623.2733,44.457994 2625.125,43.8125 2628.4125,42.666483 2631,39.007594 2631,35.5 2631,32.37137 2628.6741,31.317986 2625.5312,33 2622.1697,34.799025 2620.6926,33.449501 2621.4688,29.3125 2621.8255,27.411429 2622.3547,25.223443 2622.6562,24.4375 2622.9579,23.651558 2622.7679,23 2622.2188,23 z M 2558.125,24.21875 C 2560.0363,23.854757 2563.2633,26.757607 2562.4375,28.09375 2562.125,28.599409 2560.5308,29 2558.875,29 2556.3286,29 2555.9173,28.644487 2556.1875,26.75 2556.3633,25.518118 2557.2293,24.38934 2558.125,24.21875 z M 2589.4375,24.34375 C 2590.6457,24.104929 2591.5169,24.819502 2591.8125,26.34375 2592.0281,27.455174 2591.4679,28 2590.125,28 2587.5692,28 2586.3135,26.05238 2588.125,24.90625 2588.5865,24.614277 2589.0348,24.423357 2589.4375,24.34375 z"/>
</svg>
