<?xml version="1.0" encoding="UTF-8"?>
<svg xmlns="http://www.w3.org/2000/svg" viewBox="691.35 17.39 67.2 87.29">
  <path d="M 707.05372,97.129682 C 705.63884,93.713863 707.54295,88.131994 711.55022,83.94823 713.81068,81.588221 713.97034,80.765639 713.67482,73.002132 713.37678,65.172112 713.16973,64.469731 710.59488,62.553902 L 707.83447,60.5 705.93029,62.844663 C 704.88299,64.134228 703.567,66.894308 703.00588,68.978175 702.44475,71.062041 701.33175,73.30971 700.53254,73.972993 699.34099,74.961891 698.70163,74.577863 696.98046,71.839481 694.40722,67.745443 694.81035,61.252224 698.02954,54.942093 700.32887,50.435033 704.5332,46 706.50648,46 707.17441,46 709.38964,47.132435 711.42921,48.516523 713.46878,49.90061 715.55657,50.774053 716.06876,50.457506 717.39512,49.63777 717.22247,40.582385 715.82188,37.508415 714.99882,35.701998 714.17003,35.130984 713.07188,35.613745 712.20735,35.993807 710.10288,36.502793 708.3953,36.744827 705.89825,37.098757 704.85965,36.637028 703.08877,34.385725 700.68063,31.324271 700.91077,27.881572 703.7329,24.75 706.02303,22.208755 708.46192,22.588662 712.4744,26.111671 L 716.0184,29.223342 719.62267,26.361671 C 725.80797,21.450748 726.02405,21.354881 727.01025,23.084091 727.50714,23.955341 729.71256,25.914804 731.91119,27.438452 L 735.90869,30.208723 740.30734,26.604361 C 742.72659,24.621963 745.13795,23 745.6659,23 747.30458,23 751.82405,28.36515 752.50381,31.117411 752.99043,33.087694 752.54704,34.385703 750.71046,36.367411 748.11408,39.168954 744.16727,39.774494 739.66375,38.062256 736.24632,36.762951 734.31427,39.150231 733.43815,45.75473 732.61666,51.947438 733.52206,52.368327 739.26715,48.464434 743.45027,45.621935 744.66396,45.897954 749.2697,50.73922 754.12301,55.840728 755.49474,64.988168 752.02892,69.139216 L 750.05783,71.5 747.45158,68.243796 C 743.7776,63.653587 741.83226,62.813911 737.98164,64.156246 L 734.76593,65.277246 735.4508,73.388623 C 735.96205,79.443844 736.59808,81.880236 737.95987,83 742.31855,86.584033 744.62754,96.40437 741.68562,98.845948 740.70144,99.66275 739.43663,99.301698 736.65088,97.408734 L 732.93051,94.880681 729.88853,97.440341 C 726.03123,100.68605 725.41094,100.65142 722,97 720.45867,95.35 718.79863,94 718.31102,94 717.82341,94 715.86645,95.331712 713.96223,96.959359 709.60789,100.68126 708.53578,100.70769 707.05372,97.129682 z M 702.662,63.511257 C 705.50412,58.472129 707.37104,57.496834 711.16591,59.068724 713.66557,60.104115 714.34059,60.076746 715.09111,58.909577 716.61876,56.533825 715.66927,54.714078 711.29957,51.642938 707.31736,48.844137 706.98864,48.77742 704.66912,50.297231 701.44336,52.410832 698,59.691796 698,64.399058 698,69.116823 699.68094,68.796715 702.662,63.511257 z M 711,33.019487 C 712.32199,32.182326 712.30081,31.739119 710.82149,29.2848 708.52126,25.468501 705.44216,25.102163 704.5788,28.542071 703.47907,32.923731 707.13054,35.469853 711,33.019487 z M 714.57237,92.691405 C 716.60034,90.947025 717.08629,89.847238 716.56075,88.191405 716.17821,86.986132 715.25725,86 714.51417,86 713.11559,86 709,91.872433 709,93.868034 709,95.72749 711.70731,95.155831 714.57237,92.691405 z M 729.69363,92.25 C 730.82768,90.1875 732.05828,86.799995 732.42829,84.72221 736.24232,76.906564 733.44414,80.495389 732.64609,76.380988 732.3304,74.246445 731.31257,67.647809 730.38423,61.717354 728.56914,50.122014 729.30331,42.46108 732.74815,37.05032 734.26198,34.672574 734.17846,34.489125 729.90389,30.803025 727.48175,28.714337 725.05,27.006428 724.5,27.007672 723.95,27.008916 722.1696,28.074415 720.54355,29.375448 L 717.58711,31.740962 719.44115,37.195457 C 721.12109,42.137769 721.17368,43.394119 720.00116,50.574976 719.28944,54.933739 718.65773,59.85 718.59736,61.5 718.53699,63.15 717.95162,65.438577 717.29653,66.585726 716.03665,68.791959 716.79372,76.609667 719.03136,84.5 720.36083,89.187947 724.75638,96 726.45186,96 727.10078,96 728.55958,94.3125 729.69363,92.25 z M 749.57781,59.76123 C 748.82782,55.071039 745.66727,51 742.77603,51 739.98626,51 735.2098,53.739461 733.97425,56.048123 732.32322,59.133087 733.69974,62.327161 736.3464,61.552501 742.75835,59.675772 744.79386,59.746303 745.93838,61.884866 746.56097,63.04819 747.78705,64 748.66299,64 749.97594,64 750.13659,63.255651 749.57781,59.76123 z M 740,94.149223 C 740,91.794297 737.62987,86.956082 736.63633,87.282884 735.01032,87.817727 734.6306,91.849972 736.04568,93.555042 737.3485,95.12484 740,95.523259 740,94.149223 z M 748.79737,33.419281 C 748.96092,32.274885 748.20866,30.249885 747.12569,28.919281 L 745.15664,26.5 742.07832,29.437091 C 737.24527,34.048408 738.19089,36.073752 745,35.694792 747.7053,35.544229 748.56752,35.02756 748.79737,33.419281 z"/>
</svg>
