<?xml version="1.0" encoding="UTF-8"?>
<svg xmlns="http://www.w3.org/2000/svg" viewBox="2770.24 15.5 38.15 88.94">
  <path d="M 2802.8164,29.672881 C 2803.1707,26.679939 2802.2849,26.339936 2799.4789,28.391787 2797.8444,29.586917 2797.768,30.015519 2798.9378,31.425092 2800.7856,33.651518 2802.4336,32.90703 2802.8164,29.672881 z M 2789.6382,94.75 C 2789.0286,92.445023 2789.9616,43.835672 2790.6299,43.083333 2790.8335,42.854167 2791.3375,43.00363 2791.75,43.415475 2792.4997,44.163988 2792.5897,51.648185 2792.2048,81.25 2792.0163,95.749794 2791.1323,100.39939 2789.6382,94.75 z M 2778.8,30.8 C 2780.2565,29.3435 2780.3819,25.354085 2778.9981,24.498843 2778.4471,24.158287 2777.5471,25.061025 2776.9981,26.504925 2775.1638,31.329565 2776.0819,33.518073 2778.8,30.8 z M 2798.5944,88.849235 C 2798.2604,83.707156 2797.8776,71.704629 2797.7436,62.176952 2797.5175,46.099786 2797.638,44.752485 2799.4182,43.443744 2800.9951,42.284437 2801.1463,41.616407 2800.2678,39.688453 2798.523,35.858943 2789.0478,25 2787.4511,25 2786.1158,25 2779.0312,34.784036 2778.9778,36.701963 2778.9655,37.140884 2778.0755,38.625 2777,40 2775.9245,41.375 2775.037,42.725 2775.0279,43 2775.0188,43.275 2776.8567,43.570464 2779.1122,43.656586 2781.3678,43.742709 2783.661,44.261041 2784.2084,44.808436 2785.3092,45.909241 2785.7545,67.255218 2785.0415,84.75 2784.7118,92.840879 2784.232,96 2783.3327,96 2782.3657,96 2782.0903,90.531747 2782.1177,71.876545 2782.1372,58.608645 2781.7811,47.393271 2781.3265,46.953492 2780.8719,46.513714 2779.1954,46.006768 2777.6009,45.826947 2773.6018,45.375957 2772.2353,42.928582 2773.9719,39.327659 2774.7658,37.681577 2775.2386,33.992816 2775.1035,30.5 2774.9415,26.313655 2775.3404,23.895448 2776.4232,22.5 2777.9604,20.518778 2777.9933,20.523352 2779.9207,22.987112 L 2781.8663,25.474223 2784.3388,23.151434 C 2787.0547,20.600004 2788.8765,20.996043 2792.4162,24.907376 2794.9866,27.747659 2796.9196,27.534735 2800.6958,23.995373 2805.4472,19.541924 2806.3808,20.02161 2805.705,26.569067 2805.3889,29.632053 2804.6007,32.77621 2803.9535,33.556081 2802.878,34.851891 2803.0801,37.439218 2804.5574,41.289024 2804.8719,42.10861 2803.9812,43.996237 2802.5526,45.537726 L 2799.9819,48.311602 2800.4772,62.905801 C 2801.3729,89.301701 2801.3283,96.071716 2800.2513,97.148742 2799.5183,97.881714 2799.0183,95.377328 2798.5944,88.849235 z"/>
</svg>
