<?xml version="1.0" encoding="UTF-8"?>
<svg xmlns="http://www.w3.org/2000/svg" viewBox="1341 15.66 27.51 88.36">
  <path d="M 1347.5 50.5 L 1345.6875 55.59375 C 1346.0136 56.093121 1345.9787 56.997173 1345.625 58.40625 C 1345.529 58.788782 1344.8583 59.432042 1344.3438 60 L 1343 65 L 1343.0938 66.53125 L 1345.8125 72.3125 C 1348.8436 78.79543 1349.1757 80.364322 1349.125 88.21875 C 1349.0749 95.981934 1349.9684 99.344089 1351.6562 97.65625 C 1352.8475 96.464972 1352.221 78.300618 1350.9062 75.9375 C 1348.9306 72.386119 1347.0172 66.798966 1347 64.5 C 1346.9917 63.397617 1348.0621 59.525974 1349.375 55.90625 C 1351.4797 50.10364 1351.6334 48.79829 1350.625 44.90625 C 1349.9959 42.478357 1349.0959 39.891672 1348.625 39.15625 C 1348.1163 38.361891 1348.2139 37.379878 1348.875 36.71875 C 1349.4871 36.106672 1350 34.506879 1350 33.1875 C 1350 30.078642 1352.8973 24 1354.375 24 C 1355.9028 24 1358.3281 27.799712 1359.1562 31.46875 C 1359.5241 33.098511 1359.2171 38.221345 1358.4688 42.84375 L 1357.125 51.25 L 1360.2188 57.78125 C 1363.0213 63.712893 1363.1777 64.653035 1362.0312 67.4375 C 1358.7402 75.431346 1357.8756 80.59777 1358.4375 88.65625 C 1359.0949 98.082879 1359.6441 100 1361.7188 100 C 1362.6345 100 1363.0042 99.406867 1362.6562 98.5 C 1362.3429 97.683111 1361.7941 93.070611 1361.4375 88.25 C 1360.8788 80.695364 1361.0838 78.671606 1362.9688 73.5 C 1366.5068 63.792527 1366.4958 62.868269 1362.9375 56.03125 C 1359.8465 50.09215 1359.7477 49.592243 1360.8438 44.84375 C 1363.9606 31.340648 1360.3591 19.677023 1353.5938 21.375 C 1351.9955 21.776153 1350.4241 23.556092 1348.9688 26.5625 C 1347.055 30.515745 1346.8089 32.39667 1347.125 40.8125 L 1347.5 50.5 z "/>
</svg>
