<?xml version="1.0" encoding="UTF-8"?>
<svg xmlns="http://www.w3.org/2000/svg" viewBox="1695.93 16.07 112.3 87.14">
  <path d="M 1701.0312,92.78125 C 1702.2588,92.956284 1703.4406,93.191143 1706.0312,94.03125 1718.6511,98.123644 1727.596,97.880993 1733.0625,93.28125 1735.6319,91.119292 1736.4965,90.866564 1737.8438,91.84375 1745.8382,97.642339 1749.0449,98.110122 1756.0938,94.59375 1760.2415,92.524538 1760.572,92.552671 1766.5,95.46875 1774.1871,99.250151 1777.3431,98.751745 1783.75,92.6875 1788.8792,87.832627 1787.5874,86.38426 1782.1875,90.9375 1776.351,95.858926 1773.8854,96.024471 1766.3438,92 L 1760.7188,89 1757.5625,90.96875 C 1755.8244,92.042937 1752.6434,93.184975 1750.4688,93.53125 1746.9821,94.086456 1745.9484,93.75535 1741.8125,90.59375 1739.233,88.621901 1736.7631,87 1736.3438,87 1735.9245,87 1734.1528,88.369733 1732.4062,90.0625 1730.6597,91.755267 1727.6081,93.51444 1725.5938,93.96875 1721.5805,94.873895 1712.0755,93.269429 1705.7812,90.59375 1704.2612,89.94759 1702.7967,89.576997 1701.4062,89.34375 L 1701.0312,92.78125 z M 1702.0312,83.9375 C 1703.3833,84.134765 1705.2013,84.736327 1708.0312,85.96875 1716.4342,89.628204 1720.9176,89.772363 1724.8438,86.46875 1728.8753,83.076382 1730.3672,78.190951 1729.5,71.25 1728.5814,63.89756 1728.2647,63.189331 1724.9375,61.46875 1720.8855,59.373365 1714.0277,59.631669 1711,62 1709.4677,63.198576 1708.1098,63.692461 1706.6875,63.71875 L 1706.8125,66.8125 C 1708.3673,66.699801 1709.9757,65.922194 1712.5625,64.40625 1716.422,62.144403 1717.3725,61.977537 1720.2812,62.9375 1722.6638,63.723814 1723.9356,64.928809 1724.75,67.25 1727.6475,75.508022 1727.1052,81.67225 1723.2188,84.625 1720.8578,86.418657 1716.2505,86.169575 1711.5938,84 1709.4403,82.996697 1707.0778,82.405832 1706.3438,82.6875 1705.6098,82.969168 1705,82.702594 1705,82.09375 1705,81.374672 1703.8583,81.067758 1702.375,81.0625 L 1702.0312,83.9375 z M 1706.4375,57.625 C 1708.3867,57.934324 1709.999,57.304905 1713.1562,55.5 1718.7329,52.311997 1719.8329,52.370191 1724.8438,56 1727.1216,57.65 1729.3963,59 1729.9062,59 1730.4162,59 1731.8291,57.413916 1733.0312,55.46875 1734.9389,52.381883 1735.1411,50.95109 1734.6875,44.21875 1734.4016,39.976416 1733.8757,35.305044 1733.5,33.84375 1732.943,31.677886 1733.4534,30.47659 1736.3438,27.34375 1740.2694,23.088678 1742.1192,23.288368 1744.9375,28.25 1746.2699,30.595843 1746.1321,31.330329 1743.1875,37.71875 1739.7857,45.09893 1739.2227,48.521165 1741.25,49.34375 1742.2466,49.748141 1742.2562,50.038372 1741.25,50.75 1740.2777,51.43769 1740.2387,52.359622 1741.0938,54.8125 1742.4035,58.569542 1742.7933,58.627957 1747.4062,55.90625 1751.3426,53.583823 1753.2486,53.888784 1759.2188,57.65625 1761.2703,58.9509 1763.782,60 1764.7812,60 1766.8664,60 1772.7107,54.16018 1775.7812,49 1778.531,44.378751 1780.3027,39.694897 1779,40.5 1778.4516,40.838891 1778,40.644959 1778,40.0625 1778,39.480041 1778.675,39 1779.5,39 1781.3874,39 1781.3741,35.788664 1779.4688,30.5 1778.6761,28.3 1778.0082,25.517541 1778,24.3125 1777.9791,21.278966 1776.3068,20.526915 1775,22.96875 1774.2618,24.348106 1774.2556,25.600881 1774.9375,26.875 1775.4889,27.905305 1776.3994,30.834644 1776.9688,33.375 1777.9106,37.577645 1777.7291,38.54006 1775.0312,44.25 1773.4005,47.701463 1770.542,52.0161 1768.6562,53.84375 L 1765.2188,57.1875 1759.4062,54.125 C 1755.0957,51.854945 1753.3882,51.375065 1752.8125,52.28125 1752.2078,53.233019 1752.0119,53.233333 1752,52.25 1751.9881,51.26527 1751.2441,51.285804 1748.5625,52.40625 1743.9574,54.330367 1742.5074,52.726596 1743.3438,46.625 1744.6598,37.023795 1747.9403,34.638574 1758.4062,35.71875 1763.3273,36.226658 1763.909,36.035168 1765.4062,33.75 1767.2846,30.883157 1766.6238,28.293267 1762.75,23.59375 1759.9163,20.156211 1757.0185,20.42853 1752.0312,24.625 L 1748.875,27.28125 1745.6562,24.125 C 1741.4364,20.034888 1738.7592,20.14124 1735.2812,24.5 1731.8656,28.780917 1730.213,28.875513 1726.5,25 1723.3239,21.684824 1718.6093,20.947057 1717.5938,23.59375 1715.432,29.227223 1718.5129,33.746257 1725,34.53125 1727.4707,34.830225 1729.8989,35.492558 1730.4062,36 1732.6731,38.266767 1732.2333,55 1729.9062,55 1729.3521,55 1727.2423,53.875 1725.2188,52.5 1720.5607,49.334724 1718.4118,49.369501 1712.5312,52.65625 L 1707.7812,55.28125 1706.3125,54.5625 1706.4375,57.625 z M 1783.6562,22.3125 C 1782.3871,22.759192 1782.5736,26.72864 1784.0312,30.5625 1785.3216,33.956529 1786.8918,33.620433 1791.3438,29.03125 1795.9179,24.316119 1795.893,21.520733 1791.3125,25.375 1787.3094,28.743363 1786.3196,28.669141 1785.5,24.9375 1785.1307,23.256189 1784.2945,22.087885 1783.6562,22.3125 z M 1757.9688,23.625 1760.5312,26.03125 C 1762.205,27.603602 1762.9746,29.268084 1762.7812,30.875 1762.425,33.835616 1761.7467,34.047985 1756.1875,32.8125 1752.6246,32.020672 1751.931,31.499684 1752.1875,29.78125 1752.3582,28.637852 1753.7443,26.776219 1755.25,25.65625 L 1757.9688,23.625 z M 1721.5312,25.53125 C 1722.8745,25.60522 1724.98,27.125481 1726,29.03125 1726.9228,30.755631 1726.7429,31 1724.5625,31 1721.9799,31 1719.3803,27.780504 1720.5,25.96875 1720.7058,25.635867 1721.0835,25.506593 1721.5312,25.53125 z M 1801.1562,25 C 1799.3798,25 1788.9678,36.24966 1788.375,38.8125 1787.5118,42.543634 1779.0023,57.10011 1778.0312,56.5 1777.5953,56.230521 1775.5548,58.030634 1773.5312,60.5 1769.2141,65.768539 1766.2793,66.241796 1757.75,63 1754.8566,61.900278 1751.7885,61.000278 1750.9062,61 1745.4865,60.998296 1740.5453,73.06305 1742.9688,80.40625 1743.8278,83.009145 1745.2017,84.607909 1747.5312,85.71875 1750.6668,87.213995 1751.0333,87.183204 1754.4688,85.15625 1758.7482,82.631366 1759.7902,82.509963 1761.9062,84.40625 1762.7746,85.184392 1765.075,86.270943 1767,86.8125 1768.925,87.354057 1771.4,87.574383 1772.5,87.28125 1774.7939,86.669952 1782,81.216983 1782,80.09375 1782,77.966814 1780.3358,78.436261 1776.4062,81.65625 1772.3759,84.958799 1771.8002,85.135281 1768.8125,84.09375 1767.038,83.475156 1764.6593,82.09104 1763.5312,81.03125 1761.1048,78.751787 1759.683,78.888218 1755,81.8125 1753.075,83.01456 1751.2266,83.997944 1750.875,84 1748.9241,84.011408 1745.8658,80.00953 1745.3438,76.75 1744.6699,72.541317 1747.3698,64 1749.375,64 1750.036,64 1753.1203,64.9 1756.25,66 1763.3958,68.511561 1767.0459,68.510755 1771.9062,66.03125 1777.5941,63.129477 1783.3327,55.993711 1788.5938,45.25 1791.6231,39.063787 1794.799,34.239046 1797.625,31.53125 1801.7019,27.624841 1803.1265,25 1801.1562,25 z M 1783.6562,83.34375 C 1782.9269,82.614522 1779,85.829837 1779,87.15625 1779,88.616116 1780.6133,88.084788 1782.5,86 1783.4986,84.896628 1784.0161,83.703673 1783.6562,83.34375 z"/>
</svg>
