<?xml version="1.0" encoding="UTF-8"?>
<svg xmlns="http://www.w3.org/2000/svg" viewBox="1136.8 16.27 106.43 90.67">
  <path d="M 1204.7039,32.830767 C 1206.0693,31.697627 1206.5367,24.997325 1205.25,25.003738 1203.6702,25.011612 1197.9043,29.085826 1197.3207,30.606648 1196.2816,33.314535 1202.0333,35.04718 1204.7039,32.830767 z M 1174.4825,32.028246 C 1175.2859,30.728365 1172.1182,26 1170.444,26 1168.4103,26 1167.8858,27.569425 1168.9681,30.416084 1169.9529,33.006334 1173.2774,33.97825 1174.4825,32.028246 z M 1156,96 C 1158.4232,93.576768 1158.5433,90.728379 1156.3769,87.060933 1154.8278,84.438485 1154.9011,83.907432 1157.9856,75.406641 1159.763,70.507989 1162.1849,65.493796 1163.3674,64.263991 1165.2563,62.299578 1165.959,62.149905 1169.1528,63.031753 1173.4215,64.210392 1180,71.578946 1180,75.181645 1180,76.471424 1178.425,79.865437 1176.5,82.723898 1174.575,85.582359 1173,88.522526 1173,89.257602 1173,89.992678 1174.7482,92.301213 1176.885,94.387679 1181.2308,98.631239 1183.0847,97.880756 1180.5933,92.886549 1178.8265,89.344977 1179.607,87.218475 1184.9069,81.134441 L 1187.8386,77.768882 1193.0072,82.603464 1198.1757,87.438046 1197.5164,92.71506 C 1196.9424,97.309227 1197.0652,97.912207 1198.4655,97.374856 1200.3412,96.655078 1203,91.909484 1203,89.281329 1203,88.281434 1201.1947,85.278617 1198.9881,82.608402 1196.7816,79.938186 1194.7255,76.754346 1194.419,75.533201 1193.6243,72.36698 1195.3441,66.557405 1197.1808,66.203689 1198.0358,66.039036 1201.6074,67.229995 1205.1177,68.850265 L 1211.5,71.79621 1213.7064,69.764713 C 1217.6713,66.114258 1224.6968,54.639456 1227.0321,48 1228.2895,44.425 1230.5967,40.128577 1232.1591,38.452393 1235.4265,34.947237 1235.8083,31.176916 1233.322,26.968037 1231.2225,23.413806 1227.5782,22.391104 1224.41,24.467021 1221.1284,26.617211 1220.3113,30.564126 1222.4117,34.119812 1225.8824,39.99523 1220.3771,56.157213 1212.8834,62.092371 L 1208.8727,65.268912 1205.2457,61.884456 C 1203.2509,60.023005 1200.9974,57.9375 1200.238,57.25 1198.4014,55.587462 1195.818,55.670396 1193.4411,57.468197 1186.5618,62.671461 1185.2544,55.540653 1190.2154,39.87449 L 1192.3135,33.248979 1190.0886,30.12449 C 1188.865,28.40602 1187.5397,27 1187.1437,27 1186.7476,27 1184.7203,29.037655 1182.6385,31.528122 1179.354,35.45742 1178.9493,36.482323 1179.5786,39.278122 1180.5874,43.759835 1180.1693,56.815226 1178.9436,59.105394 1177.6158,61.586332 1176.2686,61.498093 1169.8493,58.509769 1166.9072,57.140142 1163.806,56.015142 1162.9578,56.009769 1162.1096,56.004396 1159.7718,58.8125 1157.7628,62.25 1154.6208,67.626229 1154.0462,69.587613 1153.653,76.279591 1153.2021,83.952093 1152.0068,87 1149.449,87 1147.1669,87 1145.1478,89.84076 1145.73,92.232409 1147.0977,97.850441 1152.2569,99.743125 1156,96 z M 1177.2402,99.857261 C 1176.2831,98.678755 1174.2625,96.256848 1172.75,94.475246 1169.3904,90.517865 1169.311,88.489851 1172.3394,83.982135 1178.8187,74.337699 1178.6589,75.670161 1173.9484,70.55987 1169.1226,65.324491 1165.9137,64.675877 1163.4489,68.437616 1161.142,71.958461 1158.8124,82.873874 1159.6045,86.451056 1161.2916,94.070021 1159.5209,98.012933 1153.5231,99.992369 1148.9591,101.49862 1145.2605,99.867691 1143.4582,95.554193 1141.634,91.18823 1142.8391,87.573255 1146.8947,85.245658 1150.0038,83.461281 1150.9681,80.382799 1150.989,72.175106 1150.9977,68.757378 1151.9439,66.391041 1155.5002,60.893654 1157.9753,57.067548 1160.665,53.682034 1161.4774,53.370291 1162.2898,53.058547 1165.8651,53.84734 1169.4225,55.123163 1172.9799,56.398986 1176.1962,57.137102 1176.5699,56.76342 1177.564,55.769304 1177.1196,41.444806 1176.0036,38.509431 1175.2929,36.640244 1174.3223,36 1172.1991,36 1166.4452,36 1162.6109,27.531943 1166.5714,23.571429 1168.9715,21.171368 1170.6292,21.642327 1175.1194,26 1177.3864,28.2 1179.6305,30 1180.1064,30 1180.5823,30 1182.1628,28.2 1183.6187,26 1185.0746,23.8 1186.8365,22 1187.5341,22 1188.2317,22 1189.7317,23.575 1190.8675,25.5 1192.8393,28.84194 1194.4466,29.870087 1195.1667,28.25 1195.35,27.8375 1197.4369,26.239935 1199.8043,24.699857 1206.4237,20.393673 1210.0118,22.792883 1208.5562,30.55186 1207.7654,34.767344 1206.8416,35.354425 1200,35.989479 L 1194.5,36.5 1192.3095,42.5 C 1191.1046,45.8 1190.0921,50.01496 1190.0594,51.866577 1190.0033,55.045419 1190.1534,55.195392 1192.75,54.555979 1200.6357,52.614155 1200.5876,52.604157 1204.0436,56.904662 1205.8537,59.157098 1208.081,61 1208.9931,61 1212.6717,61 1218.1702,52.314237 1219.9652,43.66762 1220.962,38.866018 1220.9031,37.699791 1219.5677,35.793125 1217.0123,32.144855 1217.5937,27.795233 1221.1187,24.189838 1223.6756,21.574571 1225.0173,21 1228.5678,21 1232.2823,21 1233.248,21.462259 1235.3574,24.25 1237.6407,27.267438 1238.3852,29.962062 1238.1107,34.215204 1238.0498,35.158566 1236.7162,37.408566 1235.1471,39.215204 1233.578,41.021842 1231.0167,45.425 1229.4553,49 1225.67,57.666819 1217.5114,70.434892 1214.4963,72.410439 1211.3461,74.474568 1210.1995,74.418118 1204.5543,71.920973 1195.8288,68.061283 1194.83,70.919203 1201.5,80.660465 1203.975,84.275104 1206,87.798012 1206,88.48915 1206,91.330571 1201.908,98.711266 1199.6681,99.910057 1194.2924,102.78705 1192.6159,100.33527 1194.481,92.324017 1195.1189,89.584112 1194.7886,88.725957 1192.0757,86.074017 1190.3461,84.383308 1188.575,83 1188.1398,83 1187.7047,83 1186.2972,84.11918 1185.0122,85.487066 1182.8611,87.776719 1182.7707,88.291256 1183.8727,91.969359 1184.8709,95.301058 1184.8105,96.465769 1183.5092,98.982294 1181.6707,102.53739 1179.6463,102.81994 1177.2402,99.857261 z"/>
</svg>
