<?xml version="1.0" encoding="UTF-8"?>
<svg xmlns="http://www.w3.org/2000/svg" viewBox="2346.24 19.66 29.73 81.02">
  <path d="M 2373.875,29.0625 C 2373.2221,29.603936 2372.695,29.97357 2372,30.59375 2368.1356,34.041908 2365.3912,35.797462 2364.8125,35.21875 2364.2988,34.705031 2363.6056,31.704799 2363.2812,28.5625 2362.9063,24.928929 2362.4076,23.347473 2361.875,24.1875 2360.6276,26.154876 2360.8463,32.153391 2362.2812,35 2364.5181,39.437064 2367.5132,38.760525 2373.2188,32.53125 2373.4891,32.236097 2373.6508,32.175885 2373.9062,31.90625 L 2373.875,29.0625 z M 2373.9375,35.71875 C 2372.176,36.812858 2370.2564,38.460963 2368.25,40.84375 2363.4402,46.555581 2361.5801,51.747936 2362.4062,57.3125 2362.7473,59.608759 2363.0977,66.9 2363.1562,73.5 2363.2613,85.357546 2362.1644,90.686468 2358.8438,94.6875 2357.2206,96.643367 2355.2504,94.630626 2353.875,89.625 2352.4795,84.545827 2352.5782,53.896892 2354,49 2355.4103,44.142873 2355.204,38.833471 2353.5312,36.625 2352.7557,35.600992 2351.8077,32.338492 2351.4375,29.375 2351.0672,26.411508 2350.3135,24 2349.75,24 2348.2405,24 2349.5072,34.146273 2351.5,38 2353.0465,40.990473 2353.0456,41.83582 2351.5625,49.375 2350.5422,54.561414 2349.9939,62.212456 2350.0625,70.5 2350.1835,85.140224 2350.9651,90.790785 2353.375,94.46875 2354.4262,96.073005 2355.988,97 2357.5938,97 2359.6974,97 2360.5527,96.037928 2362.6875,91.375 2365.203,85.880485 2365.2503,85.400902 2364.7812,68.625 2364.3969,54.87831 2364.5765,50.90647 2365.75,48.5 2367.0043,45.927828 2371.1017,41.299522 2373.9688,38.78125 L 2373.9375,35.71875 z M 2356,24.5 C 2355.45,24.839919 2355,27.344959 2355,30.0625 2355,33.736029 2355.5449,35.544831 2357.0938,37.09375 2359.7212,39.721076 2360.7206,38.880158 2358.5938,35.84375 2357.6605,34.511354 2357,31.536266 2357,28.71875 2357,25.749053 2356.614,24.120517 2356,24.5 z"/>
</svg>
