<?xml version="1.0" encoding="UTF-8"?>
<svg xmlns="http://www.w3.org/2000/svg" viewBox="1957.5 17.75 51.75 84.07">
  <path d="M 1965.1818,94.786 C 1962.8818,93.018301 1961,91.031545 1961,90.370987 1961,89.71043 1963.025,87.387497 1965.5,85.208915 1967.975,83.030333 1969.9727,80.854589 1969.9392,80.373928 1969.9058,79.893268 1967.9142,77.925 1965.5135,76 1963.1127,74.075 1960.9041,71.937203 1960.6054,71.24934 1959.8541,69.519277 1965.7798,63 1968.1036,63 1969.1466,63 1970,63.375 1970,63.833333 1970,64.291667 1970.5625,64.697917 1971.25,64.736111 1971.9375,64.774306 1974.0333,65.144719 1975.9074,65.559252 L 1979.3147,66.312948 1978.6555,61.503516 C 1978.0247,56.900952 1973.9219,38.946501 1973.3048,38.087559 1973.1418,37.860717 1971.8906,38.184436 1970.5244,38.806935 1968.4087,39.770897 1967.6402,39.594575 1965.3423,37.618023 1963.1219,35.708114 1962.6315,34.430129 1962.5722,30.398647 1962.5083,26.063523 1962.7571,25.463465 1964.7351,25.182402 1966.1403,24.982734 1967.8538,25.818209 1969.3498,27.432402 1972.69,31.036538 1975.0927,30.645244 1979.4541,25.786842 L 1983.2364,21.573684 1985.0912,23.864342 C 1986.1114,25.124204 1987.81,27.341014 1988.866,28.790586 L 1990.7859,31.426171 1994.8958,27.713086 C 1999.8671,23.221875 2003.5919,22.796302 2005.0214,26.556202 2006.9041,31.508116 2002.0335,37.54572 1996.4588,37.170288 1992.0678,36.87457 1991.2273,38.53626 1990.1273,49.687411 1989.1112,59.989132 1989.6546,65.930226 1991.6843,66.709091 1992.5131,67.027141 1994.5671,65.873459 1996.4897,64.009946 L 1999.8477,60.755329 2002.9238,62.945759 C 2006.7298,65.655849 2006.7723,67.21912 2003.1661,71.856096 2001.6075,73.860243 2000.0692,76.228744 1999.7476,77.119431 1999.1019,78.907918 2002.3779,85 2003.9853,85 2004.5434,85 2005,85.947743 2005,87.106096 2005,89.513687 1999.422,97.015418 1997.666,96.969535 1997.0247,96.952779 1993.819,94.477779 1990.5423,91.469535 1987.2655,88.461291 1984.2545,86 1983.8512,86 1983.4479,86 1980.7413,88.7 1977.8365,92 1974.9317,95.3 1971.837,98 1970.9593,98 1970.0817,98 1967.4818,96.5537 1965.1818,94.786 z M 1971.3208,34.606453 C 1971.8966,33.106009 1968.1357,29 1966.1855,29 1964.7448,29 1964.6943,30.065722 1965.9752,33.4349 1967.0305,36.21052 1970.4202,36.953408 1971.3208,34.606453 z M 1977.387,88.5 C 1980.5452,84.925 1983.4376,82.006156 1983.8146,82.013681 1984.1916,82.021206 1987.425,84.720629 1991,88.012401 1997.4941,93.992038 1997.5016,93.995536 1999.25,91.887936 2001.8079,88.804616 2001.4258,86.868052 1997.422,82.623297 1994.2837,79.296133 1994.0135,78.625289 1995.2231,77.164958 1995.9816,76.249231 1998.0418,73.796842 1999.8011,71.715204 2001.5605,69.633566 2003,67.496066 2003,66.965204 2003,65.218099 1999.528,65.956692 1995.7852,68.5 1991.0497,71.717814 1989.2125,71.656389 1988.3075,68.25 1987.3177,64.52414 1987.3231,52.336304 1988.3192,41.996686 L 1989.1384,33.493372 1985.7233,29.54264 1982.3082,25.591908 1979.1541,29.945993 C 1975.4487,35.061162 1975.4427,35.140959 1977.9936,45.5 1979.077,49.9 1979.7164,54.2875 1979.4144,55.25 1979.1123,56.2125 1979.3097,57 1979.853,57 1981.196,57 1982.5142,69.885764 1981.2959,71.104106 1980.6916,71.708445 1979.3986,71.314813 1977.7636,70.02868 1976.3451,68.912906 1974.8055,67.997228 1974.3423,67.993839 1973.879,67.990451 1972.2572,67.339384 1970.7382,66.547023 1968.1473,65.195525 1967.8775,65.257315 1966.3783,67.545464 1964.2753,70.754954 1965.026,72.354651 1970.4186,76.155705 1975.1771,79.509797 1975.3351,81.218807 1971.1623,84.198715 1970.1601,84.914422 1968.5293,86.74903 1967.5383,88.275623 1965.8079,90.941188 1965.8073,91.129534 1967.5232,93.025623 1968.5059,94.11153 1969.8353,95 1970.4774,95 1971.1195,95 1974.2288,92.075 1977.387,88.5 z M 2001.4327,33.074404 C 2005.0569,29.069712 2000.9303,24.943139 1996.9256,28.567335 1994.532,30.733517 1994.471,32.592509 1996.75,33.919901 1999.1553,35.320877 1999.4474,35.26815 2001.4327,33.074404 z"/>
</svg>
