<?xml version="1.0" encoding="UTF-8"?>
<svg xmlns="http://www.w3.org/2000/svg" viewBox="2012.84 14.36 92.02 87.37">
  <path d="M 2038.4326,97.103419 C 2037.9197,96.629421 2035.8195,95.704668 2033.7656,95.048411 2025.3002,92.343544 2023.8179,84.702738 2029.1272,71.138748 2033.8133,59.166889 2031.914,54.912898 2024.4309,60.620488 2020.7596,63.420771 2018.7437,62.951949 2017.7263,59.061196 2017.0211,56.364777 2020.4024,49.433124 2024.0463,46.104924 2026.5092,43.855394 2027.2752,42.215095 2027.6564,38.374744 2028.2113,32.783358 2031.817,24.183022 2034.898,21.102038 2037.665,18.335013 2042.914,18.357908 2046.4667,21.152498 2049.0911,23.2168 2049.1831,23.595806 2048.7134,30.402498 2048.444,34.306124 2047.9006,38.494282 2047.5057,39.709514 2046.9487,41.424234 2047.4815,42.552489 2049.885,44.747755 2053.8972,48.412323 2056.5093,56.730188 2055.26,61.863595 2054.4285,65.280281 2054.1543,65.486945 2050.7224,65.283943 2047.1604,65.073247 2046.9944,65.225704 2044.0349,71.42691 2039.4799,80.971031 2040.1824,84.217857 2047.3959,86.960411 2054.4059,89.625612 2064.8447,81.534263 2071.1438,68.552897 2073.2647,64.181991 2075,59.511531 2075,58.174098 2075,56.799603 2073.4783,54.05811 2071.5,51.86832 2069.575,49.737575 2068,47.55468 2068,47.017443 2068,46.480206 2069.8407,45.101587 2072.0905,43.953845 L 2076.1809,41.867042 2075.5539,36.183521 C 2074.8269,29.592859 2076.8747,24.327728 2080.9442,22.324896 2084.3721,20.637811 2084.9281,21.373821 2083.8501,26.171475 2083.0384,29.784294 2083.185,30.629462 2084.9255,32.369945 L 2086.9408,34.385212 2092.4554,28.442606 C 2095.4884,25.174173 2097.9767,23.089058 2097.985,23.809017 2097.9932,24.528976 2098.45,24.839919 2099,24.5 2100.6776,23.463167 2100.1388,31.347094 2098.3489,34.027494 2097.4408,35.387372 2095.4129,37.874384 2093.8425,39.554188 2091.1542,42.429747 2091.041,42.896325 2091.907,47.531734 2092.9316,53.016233 2092.5008,54.226958 2088.0627,58.334766 2086.3782,59.893887 2085,61.637617 2085,62.20972 2085,64.119848 2079.5813,75.481843 2078.0302,76.824157 2077.1886,77.552444 2077.0241,77.88714 2077.6646,77.567927 2078.3051,77.248713 2079.0338,77.552843 2079.2839,78.243769 2079.7509,79.533773 2080.752,79.129969 2086.75,75.232146 2088.9031,73.832922 2089,73.895455 2089,76.684822 2089,84.366076 2078.9178,92.788819 2070.9951,91.726169 2068.1643,91.346482 2065.8945,91.831708 2062.5275,93.536293 2059.9974,94.81717 2055.3562,96.133947 2052.2137,96.462465 2049.0712,96.790983 2044.8947,97.263499 2042.9326,97.512501 2040.9706,97.761503 2038.9456,97.577416 2038.4326,97.103419 z M 2062.19,90.628817 C 2067.7598,87.364704 2071.4247,83.834547 2074.7817,78.5 2076.1662,76.3 2077.5692,74.275 2077.8995,74 2078.2298,73.725 2078.5792,72.825 2078.6761,72 2079.1688,67.8014 2084.5014,57.220784 2087.336,54.817207 L 2090.5,52.134415 2088.75,47.182994 C 2087.7875,44.459712 2087,41.99117 2087,41.697346 2087,41.403521 2088.5859,40.182973 2090.5242,38.985016 2094.0742,36.791053 2097,32.489611 2097,29.464673 2097,28.303811 2095.6549,29.014016 2092.3592,31.915013 2089.8068,34.161756 2087.0297,36 2086.188,36 2084.0029,36 2081,33.016133 2081,30.845012 2081,28.561072 2079.4349,28.42437 2078.5869,30.634243 2077.8254,32.618584 2078.883,38.809667 2080.1134,39.570062 2081.9636,40.713592 2080.846,42.579127 2076.9923,44.77986 2074.7965,46.033782 2073,47.461756 2073,47.953134 2073,48.444513 2074.1732,50.24087 2075.6072,51.94504 2078.8508,55.799851 2078.4028,59.264316 2073.3678,69.262498 2068.0568,79.808668 2059.1494,88.532755 2051.8548,90.332776 2046.2046,91.727004 2037.9755,85.648548 2038.022,80.115141 2038.034,78.676814 2038.9619,75.476243 2040.0838,73.002761 2041.3497,70.211687 2042.0053,66.986954 2041.8118,64.502761 2041.5231,60.796797 2041.6854,60.506826 2044,60.592065 2045.375,60.6427 2047.7333,61.027931 2049.2407,61.448134 2053.0164,62.500674 2053.7331,60.167044 2051.657,53.580676 2050.3051,49.292174 2049.3124,47.981831 2046.0084,46.1249 2043.8038,44.885822 2042,43.216176 2042,42.414576 2042,38.357966 2032.3975,38.763852 2031.3248,42.865804 2031.06,43.878751 2028.7699,46.440591 2026.2359,48.558782 2023.7018,50.676973 2021.9637,51.867779 2022.3733,51.205019 2022.7829,50.542259 2022.7393,50 2022.2765,50 2021.8137,50 2021.3449,52.070163 2021.2348,54.600363 2021.0601,58.613047 2021.2559,59.108816 2022.7673,58.481253 2023.7203,58.085544 2025.0625,57.74038 2025.75,57.714224 2026.4375,57.688067 2027,57.114812 2027,56.440322 2027,54.939386 2029.5081,53.874016 2031.3646,54.586397 2033.0603,55.23711 2035.002,59.362513 2034.9938,62.297053 2034.9905,63.508674 2034.3205,65.779211 2033.5051,67.342692 2031.234,71.69716 2029,79.952357 2029,83.990372 2029,91.504333 2033.6912,93.85748 2048.0398,93.541023 2056.3849,93.356975 2058.1571,92.992243 2062.19,90.628817 z M 2045,37.814451 C 2045,36.076693 2040.8961,32 2039.1467,32 2035.7562,32 2031,34.45255 2031,36.200888 2031,38.272474 2032.4239,38.445386 2036.8312,36.908998 2039.382,36.019798 2040.2551,36.112282 2041.5519,37.408998 2043.4331,39.290286 2045,39.474526 2045,37.814451 z M 2046,28.035184 C 2046,25.061933 2045.4874,23.796059 2043.9505,22.973533 2040.2011,20.966913 2036.7548,22.174767 2034.6193,26.243888 2032.4241,30.426709 2032.8308,31.696116 2035.8486,30.08102 2038.6763,28.567699 2041.5353,28.735204 2043,30.5 2045.0626,32.985307 2046,32.215151 2046,28.035184 z M 2079.5285,87.982389 C 2085.8443,84.079004 2088.0556,77.36855 2081.9929,80.503667 2080.4014,81.32665 2078.442,82 2077.6386,82 2075.809,82 2070.7868,87.84603 2071.5523,89.084672 2072.4955,90.610767 2076.0764,90.115897 2079.5285,87.982389 z"/>
</svg>
