<?xml version="1.0" encoding="UTF-8"?>
<svg xmlns="http://www.w3.org/2000/svg" viewBox="1251.04 17.71 31.78 89.34">
  <path d="M 1272.5 94.46875 L 1272.5 93.5 L 1273.625 89.25 C 1272.6925 87.866353 1272.9219 86.671544 1274 85 C 1274.2797 84.566386 1274.5814 84.35151 1274.9375 84.25 L 1275 84 L 1275.9062 78.59375 C 1275.401 77.430737 1275.3732 76.313775 1275.9375 75.28125 C 1276.4705 74.306082 1277.6197 69.628829 1278.5 64.90625 C 1280.3992 54.716778 1280.8198 25.413578 1279.0938 23.6875 C 1277.7672 22.360916 1277.8284 21.770318 1277.5312 36.5 C 1277.1358 56.105279 1277.3338 55 1274.5938 55 C 1272.9419 55 1271.5334 53.978244 1270.1562 51.75 C 1268.4169 48.935664 1268.1412 46.7848 1268.1562 36.15625 C 1268.172 25.058895 1267.7698 21.843678 1266.5938 23.09375 C 1265.806 23.93123 1265.406 46.857994 1266.1875 46.375 C 1266.631 46.100927 1267 46.355041 1267 46.9375 C 1267 47.519959 1266.5639 48 1266.0312 48 C 1265.4985 48 1265.3084 48.675 1265.625 49.5 C 1265.9416 50.325 1266.8853 51 1267.7188 51 C 1268.9124 51 1268.9881 51.290981 1268.0625 52.40625 C 1267.1316 53.527963 1267.2593 53.953986 1268.6875 54.4375 C 1271.468 55.378926 1276 59.709802 1276 61.4375 C 1276 63.394904 1274.2405 63.423344 1269.5625 61.46875 C 1265.4209 59.73825 1263.0945 60.129845 1260.4688 63.03125 C 1258.1143 65.632785 1257 65.51206 1257 62.6875 C 1257 60.489317 1262.0929 54.678632 1264.7188 53.875 C 1265.465 53.646576 1265.6036 52.976695 1265.0938 52.15625 C 1264.4497 51.119638 1263.4722 51.520002 1260.7188 53.9375 C 1258.7628 55.654852 1256.8968 56.677877 1256.5938 56.1875 C 1256.2907 55.697123 1256.2399 47.751263 1256.4688 38.5625 C 1256.7838 25.903177 1256.5927 21.98164 1255.6875 22.28125 C 1253.9774 22.84728 1253.0436 34.878909 1253.25 53.40625 C 1253.4973 75.601455 1256.098 89.371028 1261.7188 98.3125 C 1264.6575 102.98738 1266.7743 102.84092 1269.5 97.75 C 1270.4999 95.88255 1271.4567 94.880543 1272.5 94.46875 z M 1265.5625 63.125 C 1266.1624 63.124991 1266.8456 63.208933 1267.6875 63.34375 C 1273.1255 64.214634 1275.3265 67.269183 1274.5 72.78125 C 1273.8248 77.283765 1269.8326 91.436605 1267.875 96.25 C 1267.2599 97.7625 1266.42 99 1266 99 C 1263.5295 99 1258.8875 85.45011 1257.5938 74.46875 C 1257.0308 69.690423 1257.1712 69.228366 1260.4375 66.0625 C 1262.7256 63.844825 1263.7628 63.125026 1265.5625 63.125 z "/>
</svg>
