<?xml version="1.0" encoding="UTF-8"?>
<svg xmlns="http://www.w3.org/2000/svg" viewBox="2771.97 20.12 31.4 55.43">
  <path d="M 2773.9688,58.40625 2774,59 2774,61.8125 C 2775.3758,61.818115 2776.9125,60.931285 2778.7812,59.0625 2783.6467,54.19705 2786.5,45.047691 2786.5,34.3125 2786.5,28.354314 2786.0797,24.673393 2785.2812,23.875 2784.3042,22.897941 2784.169,24.274895 2784.6562,30.59375 2785.3492,39.579566 2783.6329,47.404315 2779.375,54.75 2777.3878,58.17824 2775.6977,59.241277 2773.9688,58.40625 z M 2774,67.90625 2774,70.8125 C 2777.8077,73.028572 2780.7672,71.921297 2785.6875,66.71875 2791.4818,60.592082 2792.1607,59.48836 2794.8125,51.46875 2799.7608,36.504342 2801.3707,26.773109 2799.3125,24.25 2797.9987,22.639355 2797.918,22.741868 2798.4375,25.1875 2799.1535,28.55787 2795.7253,43.149124 2791.875,53.15625 2789.5908,59.092767 2787.8265,61.826997 2784,65.40625 2781.2907,67.940487 2778.392,70 2777.5312,70 2776.9623,70 2775.5414,69.074459 2774,67.90625 z M 2790.375,23.28125 C 2789.5957,23.023482 2789.4805,24.111428 2789.9688,26.78125 2790.8424,31.558831 2788.6826,46.743994 2786.5625,50.84375 2785.6962,52.519049 2785,54.417842 2785,55.0625 2785,58.199045 2788.2221,53.090239 2790.0625,47.03125 2792.3059,39.645368 2792.5086,23.987065 2790.375,23.28125 z"/>
</svg>
