<?xml version="1.0" encoding="UTF-8"?>
<svg xmlns="http://www.w3.org/2000/svg" viewBox="1482.76 12.65 60.29 94.68">
  <path d="M 1486,95.960162 C 1486,94.192224 1489.6859,87.591626 1491.6802,85.788138 1493.977,83.711102 1501.4443,80.472057 1500.5317,81.948665 1499.7886,83.151049 1501.0109,83.328675 1502.5,82.234687 1508.7593,77.636059 1508.1448,60.078374 1501.6676,58.452712 1497.2303,57.339021 1494.5813,58.327284 1493,61.686331 1491.5373,64.79345 1487.8007,67.467393 1486.5998,66.266436 1485.4977,65.164364 1485.9834,57.975515 1487.3869,54.616538 1489.5573,49.422055 1494.1454,46.686454 1499.5725,47.351106 1502.0395,47.653235 1505.247,48.835741 1506.7003,49.978896 1508.2222,51.176036 1509.7159,51.684111 1510.2229,51.17711 1510.707,50.692972 1510.9674,47.486408 1510.8016,44.051412 L 1510.5,37.805964 1506.5132,36.439422 C 1501.6613,34.776332 1500,32.682883 1500,28.231947 1500,24.276244 1504.5555,19 1507.9708,19 1510.0059,19 1515,23.366619 1515,25.146023 1515,26.841422 1517.618,25.926274 1524,22 1531.4029,17.445677 1535.1512,16.950066 1537.4433,20.222506 1540.3047,24.307699 1538.9403,37 1535.6398,37 1534.8644,37 1533.4929,35.875 1532.592,34.5 1530.7591,31.702758 1527.2537,31.175179 1526.339,33.558902 1525.9657,34.531795 1526.9327,36.283116 1528.9115,38.217772 1531.2152,40.470003 1531.7808,41.616127 1530.9799,42.40887 1530.1809,43.19966 1528.7933,42.340822 1525.9388,39.288723 1523.7724,36.97252 1522,34.378406 1522,33.524024 1522,30.807296 1528.0209,27.835812 1532.25,28.465383 1536.2884,29.06657 1536.7258,28.313469 1535.3416,23.14264 1534.7917,21.088435 1534.2671,20.857241 1531.2623,21.344855 1529.3658,21.652621 1526.3934,22.984237 1524.657,24.304001 1522.9207,25.623766 1520.0921,27.428573 1518.3714,28.314683 1515.4688,29.809426 1515.135,29.802074 1513.7499,28.212897 1512.9288,27.270804 1511.7333,25.4875 1511.0933,24.25 1508.8194,19.85343 1502.75,23.046171 1502.75,28.638878 1502.75,32.212063 1505.5466,34.175688 1509.5625,33.422297 1513.3886,32.704521 1513.9658,34.108742 1513.9863,44.1849 1514.0105,56.023437 1511.3969,58.715453 1505.4628,52.963935 1501.1639,48.797299 1495.7412,47.955051 1492.5451,50.957584 1490.0899,53.2642 1488.518,57.411019 1489.4979,58.996541 1489.8053,59.494051 1491.6918,58.79161 1493.6901,57.435562 1500.5634,52.771196 1508.0492,56.339503 1509.9461,65.184419 1511.6983,73.354676 1509.1707,79.851922 1503.0192,82.990189 1500.8525,84.095585 1498.4334,85 1497.6434,85 1495.7281,85 1490.1884,91.401217 1489.406,94.51834 1488.8068,96.905786 1486,98.093954 1486,95.960162 z M 1493,96.954545 C 1493,94.778125 1497.1483,90 1499.0379,90 1500.3422,90 1500.2596,90.22798 1497.1354,95.25 1494.5426,99.417705 1493,100.05354 1493,96.954545 z M 1516.995,100.71873 C 1514.5173,99.498428 1511.0328,97.459044 1509.2518,96.186765 1505.6639,93.623681 1504.35,93.949157 1502.9012,97.759979 1502.2128,99.570571 1501.6131,100.01307 1500.8635,99.263503 1499.3646,97.764557 1500.7252,94.226136 1503.4996,92.408275 1505.6168,91.021048 1506.1254,91.024917 1508.6738,92.447636 1512.1797,94.404928 1514.4866,95.705907 1516.75,97.002388 1521.9922,100.00506 1523.2404,100.12279 1525.6667,97.843377 1529.0936,94.623975 1533,87.554372 1533,84.57193 1533,81.107721 1531.5235,81.32198 1529.9968,85.007729 1528.2943,89.118026 1521.4402,96 1519.0492,96 1516.9801,96 1511,88.30788 1511,85.64655 1511,84.825345 1512.0789,82.871291 1513.3975,81.304207 1520.0651,73.380164 1522.1053,63.971889 1518.6183,57.228674 1516.7414,53.599179 1516.5849,50.035145 1518.0678,44.694721 1519.3939,39.919456 1521.4094,39.096548 1524.5509,42.0478 1527.6951,45.001612 1527.6707,46.385151 1524.4886,45.586483 1522.4469,45.074062 1521.7572,45.438861 1520.8014,47.536614 1519.8589,49.604992 1519.9495,51.147312 1521.2577,55.30854 1522.1554,58.163843 1523.0907,61.486333 1523.3361,62.69185 1524.1491,66.685251 1521.8775,73.980496 1518.0461,79.680153 1515.9244,82.836482 1514.4684,86.075131 1514.7268,87.063353 1515.2434,89.038759 1518.6631,93 1519.8519,93 1521.5438,93 1526.1224,87.101848 1528.9305,81.304801 1532.2962,74.356748 1533.7868,72.987917 1535.4742,75.295669 1537.3361,77.841866 1535.6904,87.965784 1532.5412,93.339556 1529.7336,98.130238 1524.7193,103.02326 1522.6733,102.96873 1522.028,102.95153 1519.4728,101.93903 1516.995,100.71873 z"/>
</svg>
