<?xml version="1.0" encoding="UTF-8"?>
<svg xmlns="http://www.w3.org/2000/svg" viewBox="896.66 15.48 73.53 88.59">
  <path d="M 938.324,98.996213 C 937.1272,98.513854 935.13007,96.742378 933.88594,95.059599 932.64181,93.376819 930.83262,92 929.86552,92 928.89842,92 925.41982,93.575 922.13531,95.5 915.65922,99.295531 914.34564,99.570237 910.67331,97.897012 905.48799,95.534423 902.01244,84.333212 902.01732,70 902.01968,63.07908 905.0612,54.710766 909.16726,50.327965 910.82838,48.554885 911.07559,47.406897 910.51317,44.077965 909.92565,40.600481 909.46233,40 907.36665,40 904.22823,40 900,35.807436 900,32.695493 900,30.351549 904.15173,23.746534 907.20368,21.235111 908.0491,20.539422 910.48663,19.864422 912.6204,19.735111 916.3666,19.508084 916.49112,19.603153 916.2417,22.5 915.86014,26.931534 916.82912,30 918.61009,30 919.47468,30 922.0221,28.425 924.27103,26.5 926.51996,24.575 928.96812,23 929.71138,23 933.65765,23 932.17279,31.696101 927.30686,37.082103 923.91252,40.839231 923.75759,41.316156 924.32128,46.272438 924.83571,50.79557 925.47784,52.005324 929.08652,55.25 931.3804,57.3125 934.01107,59 934.93244,59 938.44394,59 947.04719,47.212708 946.96456,42.514809 946.94508,41.406664 946.28602,39.375 945.5,38 942.34966,32.489055 944.88548,23.598701 949.98992,22.258765 954.30049,21.127223 959.67191,21.482859 961.52859,23.022727 966.66186,27.280067 966.84667,35.856598 961.90711,40.588992 960.3082,42.120847 959,43.985799 959,44.73333 959,47.496171 952.04191,60.839476 948.82429,64.246971 941.386,72.124195 938.30975,72.449288 928.29184,66.416813 921.62247,62.400728 920.24079,62.225194 919.10751,65.25 917.53007,69.460287 916.7989,80.755723 917.96299,82.930855 919.34599,85.514999 920.45235,85.526153 924.01147,82.991832 928.74315,79.622581 932.28342,79.431392 935.45818,82.373661 939.66833,86.275499 941.63849,86.513115 945.48077,83.582462 949.39526,80.59674 950,80.450211 950,82.487455 950,84.17148 942.8926,89 940.41378,89 939.51949,89 937.08329,87.65 935,86 930.44414,82.391695 928.65548,82.274954 924.59439,85.320855 919.65971,89.021966 919.37095,89.07963 916.61754,86.913795 914.20408,85.015367 912.73562,80.100537 915,81.5 915.56481,81.849071 916,81.030057 916,79.618034 916,76.356178 914.26948,75.312227 913.70768,78.235169 913.45873,79.530379 913.21406,78.758192 913.13618,76.431501 912.95949,71.152815 915.46271,62.796214 917.87442,60.613648 919.67549,58.983706 920.0576,59.054742 925.63438,62.056218 928.86047,63.79253 932.01889,65.634095 932.65308,66.148584 933.28728,66.663074 935.23344,67.493356 936.97788,67.993657 939.85756,68.819538 940.54689,68.537089 944.46437,64.926081 948.92145,60.817687 955.27572,49.899536 956.45488,44.323531 956.82433,42.576473 958.17112,40.46267 959.44775,39.626192 962.71424,37.485906 963.35939,31.530979 960.78857,27.25 959.14286,24.509529 958.24988,24 955.09275,24 950.18117,24 947,27.246028 947,32.257747 947,34.813185 947.62259,36.322669 949.10477,37.360829 951.03595,38.713483 951.10726,39.151139 949.96944,42.667533 947.69771,49.68824 944.8617,54.463054 940.68368,58.301418 935.75756,62.827055 933.88557,62.678984 927.24623,57.238542 922.17473,53.082827 921,50.686286 921,44.49572 921,40.829565 921.64738,39.373646 925,35.5 928.47011,31.490597 930.26313,27 928.3939,27 928.06055,27 926.08329,28.35 924,30 921.91671,31.65 919.28997,33 918.1628,33 915.42498,33 913,29.333575 913,25.19416 913,23.345706 912.6625,21.997773 912.25,22.198754 907.44942,24.537731 906.08676,25.58311 904.63504,28.040679 903.56148,29.858067 903.17461,31.84751 903.58036,33.464171 904.18577,35.876294 905.18812,36.42117 910.49744,37.224267 912.13336,37.47172 912.62922,38.601965 913.2372,43.469165 913.91277,48.877434 913.76724,49.640739 911.61922,51.955964 906.08876,57.916908 905.49744,59.765633 905.54162,70.957222 905.59991,85.723297 909.16809,96 914.23672,96 915.29643,96 918.8508,94.425 922.13531,92.5 929.52777,88.167399 933.3084,87.957701 935.65698,91.75 939.31575,97.657882 942.21555,98.372398 946.81763,94.5 949.78985,91.999043 953,91.182071 953,92.926609 953,93.918421 942.84686,100.0426 941.37827,99.936614 940.89522,99.901751 939.5208,99.478571 938.324,98.996213 z M 947.01531,89.25 C 947.04614,87.740048 948.55475,86.252476 950.75,85.567394 953.6639,84.658038 953.68065,86.409847 950.77749,88.443296 948.36217,90.135056 946.99124,90.429017 947.01531,89.25 z"/>
</svg>
