<?xml version="1.0" encoding="UTF-8"?>
<svg xmlns="http://www.w3.org/2000/svg" viewBox="200.32 14.73 34.23 87.85">
  <path d="M 215.57143,96.428571 C 214.64741,95.504551 213.99707,93.135625 213.99289,90.678571 213.98898,88.380357 213.69949,83.46867 213.34957,79.763712 212.75573,73.476139 212.39411,72.68018 207.92081,67.814448 203.20251,62.682229 202.32464,60.033007 205.9928,61.996144 207.02208,62.546998 209.55214,65.057591 211.61516,67.575239 215.21396,71.967092 215.4094,72.598767 216.43306,83.147132 217.2796,91.870349 217.86314,94.344624 219.25792,95.124864 222.6293,97.010812 223.17807,95.250775 222.44456,84.904569 L 221.74357,75.017122 225.9934,69.508561 C 230.0715,64.222584 232,62.794309 232,65.059991 232,65.642986 230.37622,68.230486 228.3916,70.809991 L 224.7832,75.5 225.42564,85.079503 C 225.77898,90.348229 225.77962,95.410729 225.42705,96.329503 224.58496,98.52397 217.73568,98.592819 215.57143,96.428571 z M 209.72784,58.927196 C 207.67753,57.237154 206,55.437154 206,54.927196 206,53.295669 208.62974,53.933381 210.52139,56.023634 213.29607,59.089627 213.96728,56.943783 213.98469,44.951445 L 214,34.402891 209.88306,30.118384 C 207.08313,27.204494 206.0926,25.507399 206.78669,24.813314 208.25288,23.34712 210.36892,24.827652 214.02859,29.88026 L 217.20126,34.26052 216.63886,44.38026 C 216.32953,49.946117 216.05925,56.1875 216.03822,58.25 215.99113,62.870533 214.68221,63.011 209.72784,58.927196 z M 215.67463,25.478952 C 211.90876,20.912502 213.24449,18.727098 217.1727,23.027935 L 220.1107,26.244634 222.55141,23.951707 C 225.71986,20.975099 226.95822,22.236646 224.33271,25.766366 221.48239,29.598309 219.00393,29.516034 215.67463,25.478952 z M 222.66667,60.333333 C 222.3,59.966667 222,54.179356 222,47.472643 L 222,35.278618 225.71378,29.639309 C 227.75636,26.537689 230.00636,24 230.71378,24 232.55777,24 232.39542,24.477936 228.46349,30.624534 224.99203,36.051299 224.93224,36.321741 225.21349,45.326497 225.48969,54.169983 225.58094,54.49143 227.75,54.26179 230.75458,53.943691 230.58768,55.374133 227.26022,58.459531 224.36073,61.148087 223.73619,61.402852 222.66667,60.333333 z"/>
</svg>
