<?xml version="1.0" encoding="UTF-8"?>
<svg xmlns="http://www.w3.org/2000/svg" viewBox="845.03 16.17 27.47 89.46">
  <path d="M 847.40625 90.375 L 847.28125 93.4375 C 848.54532 93.661273 849.87157 93.578223 850.84375 92.84375 C 855.84173 89.067831 857.98798 83.514155 860.0625 69.0625 C 861.19646 61.163091 860.85797 39.218558 859.4375 28.65625 C 858.67539 22.989372 861.17725 24.410441 862.78125 30.5625 C 865.31978 40.298867 868.20103 64.744073 868.34375 77.6875 C 868.4932 91.241488 867.66872 94.709198 865.03125 91.53125 C 863.20193 89.327049 861.94568 89.604064 857.75 93.0625 C 855.70794 94.745739 852.41024 96.367369 850.4375 96.6875 C 847.26487 97.202348 847.02984 97.467335 848.34375 98.78125 C 850.22211 100.65961 854.68573 99.273126 859.28125 95.40625 L 862.4375 92.75 L 865.21875 96.09375 C 869.78283 101.56078 870.5 99.435671 870.5 80.6875 C 870.5 58.895328 869.00492 43.771436 865.4375 29.09375 C 863.97526 23.077545 863.34028 21.860534 861.28125 21.34375 C 856.85493 20.232814 856.61456 21.617073 858 40.28125 C 859.05329 54.470744 859.05032 59.500522 858 67.59375 C 856.03882 82.705583 851.75247 92.271359 847.625 90.6875 C 847.53679 90.653652 847.48897 90.433521 847.40625 90.375 z "/>
</svg>
