<?xml version="1.0" encoding="UTF-8"?>
<svg xmlns="http://www.w3.org/2000/svg" viewBox="2047.5 20.93 30.56 81.1">
  <path d="M 2049.5 34.4375 L 2049.5 36.5 L 2050.125 37.71875 L 2054.625 33.96875 C 2061.1515 28.508238 2064.9114 26.502846 2065.4375 28.21875 C 2065.6542 28.925483 2066.2948 30.995121 2066.875 32.8125 C 2067.818 35.765967 2067.6207 36.557927 2064.9688 40.21875 C 2061.4263 45.109121 2061.069 47.20331 2064.3125 44.15625 C 2067.1996 41.443946 2068 42.178348 2068 47.53125 C 2068 50.355567 2067.1836 52.92528 2065.5 55.40625 C 2062.5501 59.753098 2062.2106 62.004973 2064.875 59.59375 C 2066.6771 57.96289 2066.7783 58.048619 2067.4375 61.5625 C 2068.4277 66.840754 2067.1555 72.990842 2064.2812 76.8125 C 2061.7122 80.228148 2061.815 82.23904 2064.4375 80.0625 C 2067.3345 77.658235 2068.2077 80.365186 2067.0938 88.21875 C 2067.038 88.612112 2065.5982 90.537389 2063.875 92.5 C 2059.8237 97.114245 2061.0136 98.351272 2065.4062 94.09375 L 2068.7812 90.84375 L 2071.3438 93.625 C 2074.9448 97.508609 2075.8585 95.839631 2072.6562 91.21875 C 2068.5587 85.305907 2069.2618 75.487997 2073.5312 79.03125 C 2074.6795 79.984169 2075.1077 79.891654 2075.5938 78.625 C 2075.9916 77.588137 2075.1107 76.134707 2073.0938 74.4375 C 2070.1782 71.984227 2070 71.406979 2070 64.90625 C 2070 59.53495 2070.3103 58 2071.4375 58 C 2072.2352 58 2073.3389 58.792081 2073.875 59.75 C 2074.4111 60.707918 2075.1907 61.121798 2075.625 60.6875 C 2076.0593 60.253201 2075.8635 59.12362 2075.1875 58.1875 C 2070.8027 52.115294 2070.0035 50.193177 2070 45.75 C 2069.9966 41.349003 2070.1837 41 2072.5 41 C 2075.6642 41 2075.637 40.793259 2072 37.15625 C 2070.1129 35.269153 2068.9887 33.090726 2068.9688 31.3125 C 2068.9232 27.258497 2066.6438 24.619878 2063.8125 25.34375 C 2062.5469 25.667324 2059.1191 28.015488 2056.2188 30.5625 C 2052.8896 33.486037 2050.7704 34.743922 2049.5 34.4375 z "/>
</svg>
