<?xml version="1.0" encoding="UTF-8"?>
<svg xmlns="http://www.w3.org/2000/svg" viewBox="1517.58 30.59 16.94 73.91">
  <path d="M 1529.5681,78.336889 C 1529.0043,60.48633 1528.5489,53.806292 1526.7573,37.101209 1526.6158,35.781874 1527.0126,34.523504 1527.6391,34.304831 1528.6605,33.948338 1530.7817,40.871302 1530.9162,45 1530.943,45.825 1531.1821,50.55 1531.4474,55.5 1532.5181,75.472956 1532.467,96.933013 1531.3461,98.053892 1530.5196,98.880407 1530.0538,93.715238 1529.5681,78.336889 z M 1520.6562,42.90625 C 1519.7986,43.154926 1519.5759,45.446662 1520.2812,48.71875 1520.8466,51.341493 1521.2415,63.5125 1521.1562,75.75 1521.0155,95.919677 1521.5913,101.13594 1523.4062,96.40625 1524.9511,92.38038 1523.4459,45.10209 1521.7188,43.375 1521.3029,42.959097 1520.9421,42.823358 1520.6562,42.90625 z"/>
</svg>
