<?xml version="1.0" encoding="UTF-8"?>
<svg xmlns="http://www.w3.org/2000/svg" viewBox="2419.5 22.21 28.77 79.5">
  <path d="M 2421.5 33.65625 L 2421.5 34.5 L 2422.5 36.875 C 2423.7094 34.462061 2428.5766 30.12466 2431.7812 28.90625 C 2435.2215 27.598301 2436.5151 29.077999 2436.5 34.3125 C 2436.4911 37.405891 2435.6073 39.734865 2433.2188 43.1875 C 2431.4351 45.765768 2430.3823 48.13299 2430.875 48.4375 C 2431.3677 48.742011 2432.5084 47.870278 2433.4062 46.5 C 2436.0095 42.527026 2437 43.546479 2437 50.25 C 2437 55.79084 2436.5978 57.080323 2433.5 61.4375 C 2429.7096 66.768753 2429.614 68.630774 2433.3125 65.15625 C 2434.5833 63.962414 2436.0153 63 2436.4688 63 C 2436.9223 63 2437.0233 65.735246 2436.7188 69.09375 C 2436.2779 73.955198 2435.6053 75.798356 2433.4062 78.09375 C 2430.6351 80.986281 2430.6615 83.36636 2433.4375 81.0625 C 2437.2611 77.889206 2438.3329 85.092508 2434.875 90.6875 C 2432.4072 94.680569 2433.2976 96.603634 2435.9688 93.0625 L 2437.7812 90.65625 L 2440.25 93.3125 C 2444.6814 98.094006 2446.2683 95.4966 2441.9688 90.5 C 2439.885 88.078585 2438.5361 80.392841 2440.0312 79.46875 C 2440.6066 79.113205 2441.7168 79.344694 2442.4688 79.96875 C 2443.494 80.819693 2444.001 80.783459 2444.5625 79.875 C 2445.0192 79.136022 2444.0838 77.565997 2442.1562 75.84375 C 2439.4151 73.39446 2439 72.361439 2439 68.0625 C 2439 63.286057 2440.1957 60.858332 2441.5 62.96875 C 2442.3311 64.313463 2445 64.293637 2445 62.9375 C 2445 62.351992 2443.65 60.732134 2442 59.34375 C 2439.3689 57.129837 2439 56.162026 2439 51.5625 C 2439 45.524683 2439.5013 44.681762 2442.0625 46.28125 C 2445.3885 48.35833 2445.5173 45.95651 2442.2188 43.375 C 2439.6053 41.329742 2439 40.129443 2439 37.0625 C 2439 32.297516 2437.2811 27.313175 2435.4062 26.59375 C 2433.3966 25.822575 2430.1739 27.270319 2425.625 30.90625 C 2423.7293 32.421496 2422.4095 33.2654 2421.5 33.65625 z "/>
</svg>
