<?xml version="1.0" encoding="UTF-8"?>
<svg xmlns="http://www.w3.org/2000/svg" viewBox="1720.05 14.58 75.89 91.37">
  <path d="M 1724.5 72.53125 C 1724.5191 72.405853 1724.5797 71.140637 1724.5938 71.125 C 1724.7777 70.919587 1726.7593 71.707087 1729 72.875 C 1734.4654 75.723712 1736.9345 75.556174 1741.8438 72 C 1744.1216 70.35 1746.3944 69 1746.9062 69 C 1748.3707 69 1754.7465 76.902606 1755.4062 79.53125 C 1755.8111 81.144557 1755.2045 83.081918 1753.5 85.59375 C 1751.0339 89.227767 1750.1449 95.63047 1751.5938 99.40625 C 1752.5098 101.79339 1754.8929 101.31007 1756.1875 98.46875 C 1756.82 97.080563 1758.4907 95.659937 1759.875 95.3125 C 1761.9061 94.802728 1762.9231 95.324966 1765.1562 98 C 1767.4726 100.77475 1768.167 101.11692 1769.4375 100.0625 C 1772.2166 97.756024 1772.4363 92.539679 1769.9375 88.09375 L 1767.6562 84.03125 L 1771.5 76.5625 C 1773.6164 72.448411 1775.9296 68.841362 1776.6562 68.5625 C 1777.4663 68.251673 1778.8469 69.695894 1780.1875 72.28125 C 1782.0407 75.855412 1782.3808 78.216172 1782.4375 87.75 C 1782.5017 98.550299 1782.9573 100.09828 1785.5312 98.25 C 1788.9664 95.783203 1790.9552 89.809591 1791.5938 80.03125 C 1792.4924 66.269469 1787.0807 51.182382 1782.5938 54.90625 C 1781.8266 55.542892 1780.8142 55.963075 1780.3438 55.84375 C 1779.8734 55.724426 1777.591 56.230603 1775.25 56.96875 C 1772.9089 57.706898 1770.7941 58.137781 1770.5625 57.90625 C 1770.331 57.674719 1770.0293 53.593729 1769.875 48.84375 C 1769.6779 42.772994 1769.9711 39.7205 1770.9062 38.59375 C 1773.6789 35.252779 1778.1364 37.661223 1779.5312 43.25 C 1781.1395 49.694425 1786 43.262121 1786 34.6875 C 1786 22.457239 1779.7682 18.734113 1769.9062 25.0625 C 1767.2878 26.742707 1764.6283 28.767707 1763.9688 29.5625 C 1762.2018 31.691546 1761.4098 31.360312 1759.1875 27.59375 C 1756.838 23.611737 1752.3961 22.192026 1748.0312 24 C 1745.8562 24.900933 1744.9492 26.196615 1744.0938 29.59375 C 1743.4805 32.02954 1743.245 35.141756 1743.5938 36.53125 C 1744.3261 39.448859 1749.4361 42 1754.5625 42 C 1758.1785 42 1758.4763 42.468841 1759.5312 50 C 1760.3348 55.73741 1758.7679 60.226894 1756.2812 59.34375 C 1755.3012 58.995656 1753.825 58.13605 1753 57.4375 C 1749.3693 54.363296 1746.1906 54.623787 1740.5625 58.5 L 1735.1562 62.21875 L 1729.3125 58.9375 C 1726.4197 57.298541 1724.2316 55.802834 1723.5 55.125 L 1723.7812 63.1875 C 1724.6706 60.578131 1726.6632 60.45897 1730.5 63 C 1734.5462 65.679706 1735.4078 65.555257 1740.7188 61.5 C 1746.0518 57.427861 1746.7679 57.330792 1752 60 C 1760.174 64.170059 1762.3857 61.904309 1761.8438 49.96875 C 1761.4101 40.420356 1759.7197 37.856515 1754.4062 38.71875 C 1749.5285 39.510322 1747 37.015 1747 31.375 C 1747 27.628925 1747.3351 26.965165 1749.4375 26.4375 C 1753.1254 25.511908 1755.6572 26.719528 1757.9062 30.53125 C 1760.176 34.378166 1761.9876 34.85791 1764.5938 32.25 C 1767.8844 28.957113 1775.4952 24 1777.25 24 C 1780.1606 24 1782.8248 27.580562 1783.5625 32.5 C 1784.5023 38.766933 1782.9432 40.311443 1779.4688 36.5625 C 1777.3801 34.308807 1776.317 33.892872 1773.9062 34.375 C 1772.2663 34.702984 1769.9088 35.742694 1768.6562 36.6875 C 1766.4769 38.331404 1766.3739 38.863662 1766.7812 49.4375 C 1767.0153 55.51464 1767.578 60.889286 1768.0312 61.375 C 1768.4997 61.877174 1771.6974 61.122291 1775.4375 59.625 C 1779.0551 58.176786 1782.4164 57 1782.9062 57 C 1783.3962 57 1784.8138 58.6875 1786.0625 60.75 C 1787.8567 63.713429 1788.4286 66.436247 1788.7812 73.71875 C 1789.2544 83.496231 1788.5437 90 1786.9688 90 C 1786.4437 90 1786 88.586198 1786 86.84375 C 1786 79.228375 1783.8409 71.275468 1780.9062 68.0625 C 1776.4623 63.196965 1774.4349 64.110784 1769.8438 73 C 1764.2445 83.840957 1763.7939 85.98709 1766.6562 88.6875 C 1767.9401 89.898738 1769 92.036238 1769 93.4375 C 1769 96.488106 1769.213 96.469927 1765.5 93.9375 C 1763.1775 92.35348 1761.5278 92.013265 1758.1562 92.4375 C 1754.4721 92.901065 1753.8944 92.740345 1754.4062 91.40625 C 1754.7391 90.538859 1755 89.462818 1755 89 C 1755 88.537182 1756.1264 86.819915 1757.5 85.1875 C 1759.7432 82.521669 1759.8705 81.911384 1758.75 79.34375 C 1756.8182 74.916699 1748.7418 64 1747.4062 64 C 1746.7495 64 1744.0373 65.8 1741.375 68 C 1738.7127 70.2 1735.9785 72 1735.2812 72 C 1734.5839 72 1731.6378 70.7625 1728.75 69.25 C 1726.2167 67.923153 1724.4959 67.03277 1723.875 66.71875 L 1724 70.5 L 1724.5 72.53125 z "/>
</svg>
