<?xml version="1.0" encoding="UTF-8"?>
<svg xmlns="http://www.w3.org/2000/svg" viewBox="79 12.71 36.5 91.41">
  <path d="M 106.58339,96.455546 C 101.92385,92.344529 101.29849,92.25077 99.843111,95.444988 98.111139,99.246254 96.177904,99.339884 93.976346,95.729127 92.893467,93.953107 91.986607,92.05 91.961101,91.5 91.935594,90.95 90.178079,92.477593 88.055511,94.894652 83.70132,99.852955 81,99.966155 81,95.190316 81,91.318314 83.419431,83.518974 85.649641,80.201613 87.222862,77.861502 87.468176,75.258736 87.482947,60.750365 87.492326,51.538066 87.171646,44.000566 86.770324,44.000365 84.82163,43.99939 81.71536,35.267416 81.879276,30.25124 82.231623,19.468682 85.460852,16.865869 88.70449,24.75 L 90.658705,29.5 92.32906,25.990729 C 93.247756,24.06063 94.90266,21.917373 96.006626,21.227935 97.794173,20.111593 98.231543,20.331482 100.00318,23.237206 101.09732,25.031743 101.99421,27.0625 101.99626,27.75 102.00359,30.200056 104.55557,28.966352 108.16772,24.766536 110.18497,22.4211 112.20997,20.876633 112.66772,21.334387 113.12547,21.792141 113.5,24.506245 113.5,27.365729 113.5,32.8146 110.97334,39.974559 107.76484,43.617803 106.13767,45.465451 105.86573,47.780769 105.63304,61.768006 105.37262,77.422117 105.41993,77.84066 107.63808,79.506416 108.88754,80.444721 110.63231,83.38762 111.51534,86.046191 113.20577,91.135605 113.19672,99.1472 111.5,99.627826 110.95,99.783622 108.73753,98.356097 106.58339,96.455546 z M 89.973099,86.94113 C 89.987895,85.533751 89.380873,83.535552 88.624161,82.500688 87.319269,80.716142 87.164571,80.781074 85.624161,83.759898 84.730873,85.487328 84.012105,89.060527 84.026901,91.70034 L 84.053802,96.5 87,93 C 88.620409,91.075 89.958304,88.348508 89.973099,86.94113 z M 89.454981,37.204968 C 89.856902,35.375037 89.313629,32.702581 87.881608,29.465259 86.018669,25.253776 85.579146,24.815615 84.917456,26.510291 83.603924,29.874425 83.919708,35.440355 85.556704,37.777494 87.630409,40.738122 88.713922,40.57899 89.454981,37.204968 z M 100.04504,88.077634 C 104.16935,74.499243 104.20546,48.531452 100.12144,33.13383 96.520446,19.557308 94.979284,21.097176 91.505219,41.742817 88.114089,61.895593 91.587838,95 97.093661,95 97.560486,95 98.888605,91.884935 100.04504,88.077634 z M 109.98494,92.75 C 109.96938,90.423858 108.08898,84.44449 106.68289,82.25 105.30914,80.105993 104.3602,80.854386 103.09407,85.080365 101.91298,89.022477 101.97508,89.259655 104.92668,92.080365 108.59196,95.583104 110.00515,95.770189 109.98494,92.75 z M 108.87686,37.064619 C 110.04459,34.350159 111,30.727258 111,29.013727 L 111,25.898217 107.58687,28.501539 C 105.70965,29.933366 103.9057,31.803369 103.57809,32.657101 102.91256,34.391452 104.9135,42 106.03514,42 106.43036,42 107.70913,39.779078 108.87686,37.064619 z"/>
</svg>
