<?xml version="1.0" encoding="UTF-8"?>
<svg xmlns="http://www.w3.org/2000/svg" viewBox="2105.84 20.48 30.28 83.41">
  <path d="M 2107.8438 33.5 L 2108.5 35.5 L 2108.8438 35.71875 C 2109.0573 34.60719 2109.783 33.664222 2111.5 32 C 2115.5388 28.085415 2121.9676 25.594133 2123.625 27.3125 C 2124.2497 27.960158 2125.0785 31.66742 2125.4375 35.53125 C 2126.088 42.534354 2126.0736 42.569651 2122.4688 46.78125 C 2118.9658 50.873613 2119.4493 52.698476 2123.1562 49.34375 C 2124.9115 47.755296 2125 47.98416 2125 54.75 C 2125 61.149477 2124.7287 62.085591 2122.0938 64.90625 C 2120.4707 66.643665 2119.6342 68.283016 2120.1875 68.625 C 2120.7318 68.961367 2121.6692 68.737077 2122.2812 68.125 C 2124.4188 65.987394 2125 67.045214 2125 73.15625 C 2125 78.181521 2124.5409 79.917951 2122.5 82.59375 C 2119.5132 86.509641 2119.1081 89.128998 2121.875 86.625 C 2123.6502 85.018467 2123.7622 85.048249 2124.3438 87.21875 C 2125.369 91.046284 2125.0705 93.9435 2123.375 96.53125 C 2122.0443 98.562173 2122.0216 99 2123.1875 99 C 2123.9657 99 2125.1133 98.48044 2125.75 97.84375 C 2126.6268 96.966925 2127.2822 97.01524 2128.4688 98 C 2130.9994 100.10033 2131.3789 98.365378 2129.0938 95.15625 C 2126.0025 90.815085 2126.475 82.48474 2129.6562 85.125 C 2131.3957 86.568521 2132.7884 85.388204 2131.4688 83.59375 C 2127.0152 77.537489 2126.9001 77.211995 2127.5625 72.21875 C 2128.1247 67.980801 2128.5185 67.329891 2130.125 67.75 C 2132.5123 68.374302 2132.4977 67.534074 2130.0625 63.59375 C 2127.6956 59.764057 2126.7048 54.686487 2127.5625 50.78125 C 2128.152 48.097412 2128.3353 47.987468 2129.9375 49.4375 C 2133.6758 52.820639 2134.1204 50.370337 2130.625 45.6875 C 2128.8652 43.329744 2128.1268 40.749333 2127.75 35.75 C 2127.4702 32.037637 2126.5028 27.902256 2125.625 26.5625 C 2124.274 24.50063 2123.5938 24.26968 2121.1562 24.96875 C 2116.9535 26.17406 2113.8531 27.904841 2110.6562 30.875 L 2107.8438 33.5 z "/>
</svg>
