<?xml version="1.0" encoding="UTF-8"?>
<svg xmlns="http://www.w3.org/2000/svg" viewBox="3446.51 20.54 66.52 87.23">
  <path d="M 3454.8857,97.25 C 3455.4115,96.2875 3457.6773,93.721174 3459.9208,91.547052 3462.1644,89.372931 3464,87.090647 3464,86.475309 3464,85.859972 3461.7567,84.342666 3459.0149,83.10352 3453.2183,80.483799 3449.529,76.012814 3450.3767,72.635186 3451.0546,69.934216 3457.6868,61 3459.0139,61 3459.5211,61 3460.5845,62.2375 3461.377,63.75 3462.1695,65.2625 3463.086,66.382359 3463.4137,66.238575 3463.7414,66.094791 3465.6374,66.657291 3467.6269,67.488575 3469.6164,68.319859 3471.6616,69 3472.1718,69 3473.9013,69 3470.999,49.99826 3468.1807,42.870133 3467.1788,40.336136 3466.9888,40.28086 3462.9689,41.353831 3459.0868,42.390021 3458.6599,42.298187 3456.825,40.032166 3455.309,38.159994 3455.0063,36.776482 3455.516,34.048468 3455.8806,32.096811 3456.6678,29.908571 3457.2653,29.185714 3458.7271,27.417098 3462.8454,28.52046 3466.0101,31.528594 3468.8507,34.228702 3469.4867,33.990282 3473.4216,28.75 3474.9703,26.6875 3476.8207,25 3477.5337,25 3478.2467,25 3480.6548,27.07307 3482.8851,29.606822 L 3486.9402,34.213645 3489.8037,31.356822 C 3495.9222,25.252639 3501.9081,24.509465 3504.2129,29.567878 3506.8038,35.254375 3501.4027,41.16217 3493.416,41.377546 3489.0027,41.496559 3488.581,41.732576 3487.832,44.50314 3486.6228,48.975233 3485.6257,65.372357 3486.38,68.378013 3486.742,69.820106 3487.5318,71 3488.1352,71 3488.7386,71 3492.0954,68.75 3495.5947,66 3499.094,63.25 3502.1798,61 3502.452,61 3503.4112,61 3510,71.493223 3510,73.020812 3510,73.871941 3507.525,77.012576 3504.5,80 3501.475,82.987424 3499,86.008255 3499,86.712959 3499,87.417663 3500.575,89.737575 3502.5,91.86832 3506.3193,96.095775 3506.6983,97 3504.6512,97 3502.7154,97 3494,87.887769 3494,85.863867 3494,84.928456 3495.4625,83.256103 3497.25,82.147529 3499.0375,81.038954 3502.0339,78.544711 3503.9086,76.604767 L 3507.3171,73.077597 3504.6444,69.038798 C 3503.1744,66.817459 3501.5822,65 3501.1061,65 3500.6301,65 3497.6328,67.025 3494.4455,69.5 3491.2582,71.975 3488.0644,74 3487.3483,74 3486.6321,74 3485.2949,72.853478 3484.3767,71.452172 3482.9892,69.334525 3482.8161,67.3721 3483.3515,59.829327 3483.7058,54.838067 3484.5269,47.87094 3485.1763,44.346824 L 3486.3569,37.939339 3481.9702,33.469669 C 3479.5576,31.011351 3477.2885,29 3476.9278,29 3476.5671,29 3475.0368,30.782325 3473.5272,32.960722 3470.5351,37.278284 3470.5383,36.990241 3473.3118,52.5 3475.9172,67.06942 3476.1318,70.437448 3474.5894,72.546829 3473.1839,74.468925 3473.1197,74.464636 3470.1222,72.248479 3468.4495,71.011816 3466.7467,70 3466.3381,70 3465.9295,70 3464.1297,68.579597 3462.3386,66.843548 3459.5382,64.129347 3458.8568,63.87395 3457.475,65.020716 3455.3725,66.765674 3453,71.407401 3453,73.776026 3453,76.457868 3456.6275,79.503085 3463.3789,82.488874 L 3469.2377,85.079891 3467.3727,87.289946 C 3460.3973,95.556072 3452.2693,102.03919 3454.8857,97.25 z M 3464.5589,37.558569 C 3466.0795,36.429358 3466.2689,35.73987 3465.4332,34.3754 3462.6286,29.796651 3458,30.062263 3458,34.801949 3458,36.377544 3458.3,37.966667 3458.6667,38.333333 3459.7767,39.443317 3462.5036,39.084749 3464.5589,37.558569 z M 3465.4401,101.903 C 3464.4656,100.32637 3478.9742,87.052883 3480.8748,87.782199 3481.7027,88.099881 3485.0209,90.935959 3488.2487,94.084593 3495.4927,101.15094 3494.1652,103.00442 3486.5312,96.482517 L 3481.0873,91.831633 3477.7295,94.392751 C 3475.8827,95.801367 3473.1596,98.314249 3471.6781,99.976935 3468.8925,103.10328 3466.6162,103.80611 3465.4401,101.903 z M 3499.5957,36.671378 C 3501.761,34.808861 3502.1686,33.808043 3501.6324,31.671378 3500.8463,28.539617 3498.2076,28.162644 3494.4242,30.641617 3490.9218,32.936462 3489.5502,35.753047 3491.0531,37.563922 3492.8214,39.694667 3496.5315,39.307028 3499.5957,36.671378 z"/>
</svg>
