<?xml version="1.0" encoding="UTF-8"?>
<svg xmlns="http://www.w3.org/2000/svg" viewBox="693.44 13.9 79.67 93.46">
  <path d="M 701.6563,99.867465 C 699.16533,98.419495 697.06627,93.104174 697.69225,89.829551 698.33517,86.466325 701.50385,83 703.93536,83 704.95696,83 707.18293,81.416747 708.88196,79.48166 714.16209,73.46792 714.4087,67.694105 709.5,65.01173 705.52143,62.837629 702.47678,57.220814 703.36295,53.690011 704.12925,50.636829 705.81605,50.336393 710.01134,52.505863 712.71397,53.903451 712.99801,53.872226 713.96168,52.071605 715.42769,49.332328 715.2737,47.959727 713,43.5 710.807,39.19856 710.45227,34.570841 712.00291,30.492337 713.39859,26.821419 716.0326,27.632611 718.56536,32.513366 721.75233,38.654831 723.89835,37.912436 727.27602,29.5 729.99551,22.726845 733,18.152751 733,20.785714 733,21.453571 733.50383,21.8875 734.11963,21.75 735.52735,21.435672 737.82319,27.455039 737.92392,31.72432 737.98416,34.277106 738.64218,35.280725 741.08339,36.543124 744.11239,38.109479 744.2476,38.074648 748.7475,34.568804 753.50052,30.865762 755.41818,30.249579 756.5401,32.064885 757.6354,33.837113 756.09605,39.579376 753.50024,43.404508 751.53914,46.294356 751.24168,47.505478 752.00193,49.505087 753.15295,52.532478 753.26815,52.539291 758.03227,49.861707 763.02906,47.053356 765,47.867749 765,52.740771 765,55.511505 764.16562,57.556565 761.9272,60.272156 760.23715,62.32247 758.28439,64 757.58771,64 756.89104,64 755.78013,65.18715 755.11903,66.638111 754.07198,68.936123 754.2376,69.760649 756.40372,73.033869 757.7714,75.100575 760.69857,78.075925 762.90854,79.645758 767.63777,83.005127 769.49458,86.777103 768.60604,91.219814 767.74298,95.535095 763.33319,100 759.93423,100 756.62986,100 754.4692,95.693207 755.47535,91.112227 756.07048,88.402622 755.55962,87.522533 750.50309,82.546178 745.00254,77.132844 743.80207,76.220749 744.1905,77.75 744.29527,78.1625 744.05737,79.858459 743.66182,81.518797 743.26628,83.179136 743.3882,87.679136 743.93276,91.518797 744.73751,97.192991 744.65732,98.766088 743.50445,99.921271 742.27864,101.14954 741.53465,101.0939 738.02567,99.511575 734.59443,97.964303 733.59541,97.87857 731.57801,98.958252 727.62808,101.07219 727,99.652131 727,88.60765 727,82.956776 726.71583,78.049166 726.36852,77.70185 724.11646,75.449791 716.03804,85.366516 714.86386,91.824482 713.50381,99.304765 707.24506,103.11614 701.6563,99.867465 z M 709.06574,96.964816 C 710.37699,96.263057 711,94.868865 711,92.636261 711,88.862163 716.36744,80 718.65325,80 719.45888,80 719.86119,79.58441 719.54726,79.076467 718.88003,77.996873 724.14582,74 726.23539,74 728.67632,74 729.97057,78.170895 730.24037,86.90656 L 730.5,95.31312 733.5,95.536107 C 735.15,95.65875 737.51012,96.09016 738.74471,96.494795 740.96606,97.222841 740.9881,97.13593 740.86307,88.140627 740.76668,81.206283 741.12911,78.451903 742.39141,76.525379 743.30149,75.136421 744.45292,74 744.95015,74 745.44737,74 748.60093,76.789675 751.95806,80.199278 757.50861,85.836586 759.44123,88.980966 758.94342,91.564471 757.99944,96.463526 760.35917,98.497978 763.42707,95.430073 767.48309,91.374049 766.54578,85.118465 761.40606,81.941943 759.42755,80.719155 756.50179,77.914469 754.90438,75.709308 752.53217,72.434567 752,70.686835 752,66.170909 752,57.75149 748.28505,47.354738 743.5,42.382566 736.55502,35.16601 726.4562,35.441389 720.8572,43 718.04329,46.798756 716.00048,56.168755 715.99572,65.29879 715.99191,72.58823 715.68291,73.964997 713.21631,77.682563 710.02212,82.496716 705.46216,86.403663 704.05359,85.533119 703.52244,85.204852 702.36111,86.045432 701.47286,87.401077 699.75743,90.019148 700.35943,92.324584 703.78349,96.25 705.54946,98.274551 706.40273,98.390019 709.06574,96.964816 z M 712.98469,58.806704 C 713.00091,57.012331 709.42425,54 707.27749,54 705.11896,54 705.85751,57.241837 708.68946,60.19775 711.45265,63.081897 712.95041,62.596833 712.98469,58.806704 z M 719.01412,40.973614 C 719.87974,39.356188 719.67128,38.347099 717.98121,35.973614 715.20863,32.079887 714,32.21486 714,36.418213 714,42.826123 716.70665,45.285157 719.01412,40.973614 z M 722.53595,61.649949 C 721.0623,60.572387 720.81728,59.513406 721.32199,56.403229 722.32065,50.249194 726.29288,48.292883 730.08666,52.086658 732.57625,54.576245 732.03861,58.548997 728.84657,61.25 726.3617,63.352624 724.98392,63.439944 722.53595,61.649949 z M 728.57509,57.556835 C 729.28397,54.732443 728.48599,53 726.47617,53 724.70623,53 722.66653,56.688614 723.39161,58.578141 724.31198,60.976583 727.89392,60.27083 728.57509,57.556835 z M 733.58179,34 C 734.48208,34 735,32.934291 735,31.081787 735,24.5879 731.97098,22.775889 730.09783,28.149223 728.47885,32.79342 728.66975,35.340706 730.58179,34.606989 731.45177,34.273145 732.80177,34 733.58179,34 z M 733.63772,82.807959 C 733.28489,79.432327 733.22207,76.444597 733.49811,76.168557 734.571,75.095672 735.35398,77.223451 735.78096,82.372217 736.4112,89.972134 734.42865,90.375206 733.63772,82.807959 z M 734.95015,60.906859 C 733.01958,57.299543 735.53132,51 738.9002,51 742.8541,51 745.70495,58.895053 742.8,61.8 740.82324,63.776762 736.20485,63.251292 734.95015,60.906859 z M 741.53539,58.888493 C 742.29394,56.498506 739.85973,53.350626 738.09596,54.440693 736.89739,55.181449 736.59979,59.266456 737.66667,60.333333 738.99295,61.659618 740.87949,60.955059 741.53539,58.888493 z M 753.60069,37.246528 C 754.37306,33.384712 753.51035,33.201545 749.53396,36.383099 746.78039,38.586257 746.65896,38.956077 747.83879,41.545524 749.09221,44.29648 749.13604,44.308406 751.03052,42.41392 752.087,41.357444 753.24358,39.032118 753.60069,37.246528 z M 760.41111,57.923275 C 764.9419,52.538731 763.63145,50.12705 757.79323,53.105487 755.05222,54.503846 754.01346,55.592685 754.41705,56.64443 754.73767,57.47996 755,58.801771 755,59.581787 755,61.981879 757.6897,61.157482 760.41111,57.923275 z"/>
</svg>
