<?xml version="1.0" encoding="UTF-8"?>
<svg xmlns="http://www.w3.org/2000/svg" viewBox="1435.83 15.13 20.21 89.09">
  <path d="M 1441.6645,99.266433 1437.829,98.869073 1438.3977,92.684536 C 1439.5766,79.866833 1440.1838,31.407243 1439.2307,26.215481 1438.355,21.445823 1438.4503,20.829395 1440.2084,19.888478 1441.2797,19.315111 1442.9086,19.18398 1443.8281,19.597076 1444.7477,20.010171 1446.8321,20.382323 1448.4603,20.424079 1451.3516,20.49823 1451.4507,20.674893 1452.7098,28 1453.4189,32.125 1453.9666,37.3 1453.9271,39.5 1453.8876,41.7 1453.8916,49.35 1453.9361,56.5 1454.0399,73.184812 1452.9631,94.855451 1451.8864,97.75 1451.0186,100.08299 1450.4132,100.1728 1441.6645,99.266433 z M 1450.4196,82.23322 C 1451.7673,54.784913 1451.137,27.457684 1449.0794,24.128426 1448.6524,23.437645 1447.1724,23.21552 1445.3822,23.573558 L 1442.397,24.170605 1442.4098,46.335303 C 1442.4169,58.525886 1442.0628,74.444962 1441.6229,81.711026 L 1440.823,94.922052 1444.1615,96.321756 C 1446.1486,97.154886 1447.9544,97.366261 1448.6227,96.843951 1449.2913,96.32134 1450.0181,90.412198 1450.4196,82.23322 z"/>
</svg>
