<?xml version="1.0" encoding="UTF-8"?>
<svg xmlns="http://www.w3.org/2000/svg" viewBox="3128.2 18.38 91 88.66">
  <path d="M 3206.1875 54.28125 L 3206.25 54.4375 L 3202.9062 57.21875 C 3201.075 58.747648 3197.6411 60.743084 3195.25 61.65625 L 3190.875 63.3125 L 3186.0312 58.53125 C 3180.914 53.490903 3181.0311 53.523309 3172.75 55.5625 C 3169.4303 56.37997 3169.3107 55.416787 3171.4375 45.3125 C 3173.6657 34.726158 3173.3697 35.089266 3179.4688 35.71875 C 3184.3657 36.224152 3184.9171 36.055655 3186.4688 33.6875 C 3188.6802 30.312401 3188.1221 27.164986 3184.875 24.75 C 3181.7308 22.411631 3179.2523 22.942215 3174.8438 26.96875 L 3171.75 29.8125 L 3168.3438 26.40625 C 3166.4685 24.53101 3164.13 23 3163.1562 23 C 3162.1825 23 3159.8658 24.575 3158 26.5 C 3156.1342 28.425 3154.1142 30 3153.5 30 C 3152.8858 30 3151.0808 28.65 3149.5 27 C 3146.3239 23.684824 3141.6094 22.947057 3140.5938 25.59375 C 3139.344 28.85041 3140.0659 32.159643 3142.5625 34.65625 C 3144.7193 36.813051 3145.796 37.161064 3149.0938 36.71875 C 3153.726 36.097435 3154.5024 37.05749 3156.625 46.15625 C 3158.2982 53.328575 3157.1854 57.509551 3153.9062 56.46875 C 3152.7583 56.104402 3149.523 55.822027 3146.7188 55.84375 C 3140.1394 55.894714 3137.1244 58.147084 3134.3438 65.03125 C 3132.3781 69.897497 3132.3322 70.571387 3133.7188 72.6875 C 3135.6401 75.61977 3137.6048 75.637506 3139.0938 72.75 C 3141.514 68.056159 3144.2279 66 3148.0312 66 C 3154.9506 66 3159.1762 72.319603 3157.4688 80.09375 C 3156.6874 83.650708 3154.109 83.921149 3149.875 80.90625 C 3143.7078 76.514798 3142.0602 82.284146 3147.4688 89.375 C 3150.4388 93.269038 3150.515 93.757077 3148.3438 96.15625 C 3146.4754 98.220675 3147.9068 98.657657 3151.0625 96.96875 C 3153.7091 95.552331 3153.4919 92.368126 3150.5 88.8125 C 3146.8569 84.482888 3147.1292 82.938585 3151.1562 85.09375 C 3156.7807 88.103823 3161.3648 82.360351 3159.8438 74.21875 C 3158.3581 66.26644 3154.8924 63 3147.9062 63 C 3145.6996 63 3143.8002 64.168691 3140.5625 67.5 C 3137.448 70.704681 3136.0433 71.571198 3135.6562 70.5625 C 3134.7095 68.095261 3136.9615 62.150902 3139.6562 60.03125 C 3142.8487 57.520141 3151.0893 57.197707 3153 59.5 C 3155.0257 61.940875 3157.8654 61.319334 3158.7188 58.25 C 3160.0322 53.525451 3159.3195 44.725759 3157.1875 39.40625 C 3155.1888 34.419354 3155.2001 34.209729 3157 31.25 C 3158.0133 29.583912 3159.8717 27.479258 3161.1562 26.5625 C 3163.4343 24.936767 3163.5925 25.01806 3167.25 29.09375 C 3171.4733 33.79994 3171.5246 34.229528 3169.125 46 C 3168.172 50.675 3167.602 55.554683 3167.8438 56.84375 C 3168.227 58.888014 3168.6576 59.098533 3171.375 58.53125 C 3181.2576 56.468151 3181.34 56.482113 3185.375 61.40625 C 3187.4422 63.928972 3189.9066 66 3190.8438 66 C 3191.7808 66 3196.0063 63.952941 3200.25 61.46875 C 3206.9505 57.546463 3208.2372 57.137426 3209.9688 58.21875 C 3211.7464 59.328946 3213.5006 61.97061 3212.7812 62.46875 C 3212.6308 62.572942 3209.125 64.45802 3205 66.65625 C 3200.875 68.85448 3196.563 71.243039 3195.4062 71.96875 C 3193.656 73.066804 3192.775 73.065439 3190.1562 71.90625 C 3188.4255 71.140134 3187 70.212313 3187 69.84375 C 3187 68.840148 3177.1858 63 3175.5 63 C 3172.5477 63 3170.6413 67.848016 3170.5625 75.59375 C 3170.4912 82.597277 3170.3306 83.158759 3167.5 85.4375 L 3164.5 87.84375 L 3168.9688 92.4375 C 3171.4207 94.95185 3173.7832 97 3174.2188 97 C 3175.8283 97 3174.9293 95.14165 3171.8438 92.125 C 3168.936 89.282156 3168.771 88.902356 3170.1875 87.28125 C 3172.7083 84.39632 3174.2435 78.197542 3173.5625 73.65625 C 3173.1264 70.747721 3173.3821 68.857867 3174.375 67.5 C 3175.7686 65.594175 3175.9507 65.629436 3181.3438 69.34375 C 3189.1294 74.705921 3189.4036 75.125021 3187.5625 79.53125 C 3185.6612 84.081718 3185.5718 89.014226 3187.3438 91.4375 C 3190.5933 95.881622 3195.9138 87.030316 3194.6562 79.28125 C 3194.1536 76.184039 3194.463 75.782103 3199.5938 72.5 C 3202.5957 70.579728 3205.3815 69 3205.8125 69 C 3206.2435 69 3208.437 67.654972 3210.6875 66 C 3212.4522 64.70222 3213.907 64.094306 3215.0625 63.84375 L 3215 62.5 L 3206.5 54.5 L 3206.1875 54.28125 z M 3144.4062 26 C 3146.1994 26 3151.1913 31.873967 3150.4375 33.09375 C 3149.8415 34.058022 3146.3654 34.19732 3144.25 33.34375 C 3142.4676 32.624527 3142.6081 26 3144.4062 26 z M 3182.2188 26.03125 C 3184.2796 26.381493 3186 27.834455 3186 30.15625 C 3186 31.126899 3185.1264 32.399399 3184.0625 32.96875 C 3181.2673 34.464738 3178.1538 33.899706 3175.125 31.375 C 3174.913 31.198278 3175.4628 29.923415 3176.375 28.53125 C 3177.7439 26.442092 3180.1579 25.681007 3182.2188 26.03125 z M 3191.5 78.28125 C 3191.8717 78.168429 3192.2141 78.375371 3192.4688 79.03125 C 3192.7982 79.879738 3192.6938 82.332665 3192.25 84.46875 C 3191.1438 89.792576 3189 90.330835 3189 85.28125 C 3189 81.93633 3190.3848 78.619712 3191.5 78.28125 z M 3160.8125 94 C 3159.5151 94 3153.7694 100.11314 3154.4375 100.78125 C 3154.7506 101.09436 3156.1257 100.29108 3157.5 99 L 3160 96.65625 L 3164.25 99.71875 C 3168.2906 102.648 3170 103.00784 3170 100.9375 C 3170 99.892627 3162.1937 94 3160.8125 94 z "/>
</svg>
