<?xml version="1.0" encoding="UTF-8"?>
<svg xmlns="http://www.w3.org/2000/svg" viewBox="1605.3 21.25 71.89 86.69">
  <path d="M 1646.9167,103.75 C 1646.8708,103.6125 1646.7215,102.49407 1646.5849,101.26459 1646.2999,98.70058 1643.2763,95 1641.4663,95 1640.7933,95 1639.6763,96.367198 1638.9842,98.038217 1637.4078,101.84391 1634.6865,103.43779 1632.115,102.06156 1628.8721,100.32597 1628.6233,96.318571 1631.4582,91.481168 1634.6135,86.096971 1634.6102,84.85286 1631.4219,78.003254 1628.6032,71.947482 1626.33,69 1624.4783,69 1622.4386,69 1619.2607,78.300375 1617.9344,88.151007 1617.2421,93.292953 1616.1085,98.124035 1615.4154,98.886744 1613.0026,101.54162 1611.2968,99.373265 1610.2593,92.332438 1608.5726,80.886608 1611.2867,67.033582 1616.6687,59.617198 1620.7656,53.971828 1623.4867,53.654404 1630.3689,58.019019 1632.9872,59.679479 1635.5503,60.777922 1636.0647,60.460002 1636.5791,60.142082 1637,56.758524 1637,52.940983 1637,47.604185 1636.6711,46 1635.5767,46 1634.7939,46 1632.8235,44.880946 1631.1981,43.513214 1628.5162,41.256537 1628.2861,40.585674 1628.7113,36.263214 1629.0666,32.650824 1629.8868,30.835582 1632.1057,28.75 1633.7149,27.2375 1635.9245,26 1637.0158,26 1639.2906,26 1643,29.333384 1643,31.377555 1643,34.666605 1645.5705,34.978194 1649.0624,32.112419 1652.9909,28.888404 1657.3338,26.559517 1661.0945,25.660325 1663.0593,25.190512 1664.2475,25.634548 1665.9907,27.49013 1668.1469,29.785239 1668.2489,30.46385 1667.6025,38.213869 1667.223,42.764338 1666.5013,46.898701 1665.9987,47.401343 1664.634,48.765962 1662.3337,46.418345 1661.6408,42.953971 1661.3107,41.303324 1660.3838,39.70076 1659.581,39.392718 1657.3481,38.535873 1652.6674,41.20706 1651.2614,44.140504 1649.2213,48.396966 1648.1255,58.7894 1649.5162,60.691319 1650.5961,62.168111 1651.0329,62.076722 1654.1092,59.730264 1661.9992,53.7123 1665.9292,54.35427 1669.4478,62.235844 1673.9314,72.278907 1673.6015,94.33573 1668.904,98.586835 1667.8501,99.540665 1666.6982,100.03152 1666.3443,99.677617 1665.9904,99.323717 1664.908,93.906187 1663.939,87.638662 1661.7716,73.620472 1660.1274,70 1655.9283,70 1653.2618,70 1652.6217,70.614989 1650.4638,75.25 1647.4735,81.672904 1647.3731,84.70384 1650.0563,87.559915 1653.6902,91.428059 1652.4732,104 1648.4648,104 1647.6592,104 1646.9625,103.8875 1646.9167,103.75 z M 1640.7721,92.342346 C 1642.3699,91.941328 1643.8264,92.427697 1645.3698,93.877697 1648.3323,96.660772 1649,96.555378 1649,93.304719 1649,91.776851 1647.8934,89.45443 1646.4452,87.942798 L 1643.8904,85.276157 1646.448,77.888079 C 1649.5354,68.969673 1651.9418,66.588617 1656.9515,67.495118 1662.6493,68.526116 1664.5245,72.405555 1666.489,87.226692 1667.13,92.062241 1668.3874,94.038783 1669.3037,91.651028 1672.8426,82.428607 1668.7866,59.772159 1663.3478,58.382271 1661.8882,58.009282 1659.5189,58.985668 1655.9856,61.416139 1646.7653,67.758576 1644.8798,65.717532 1647.0247,51.715954 1648.727,40.602863 1649.3315,39.31241 1653.7145,37.435078 1657.2941,35.901836 1657.7006,35.921124 1661.1879,37.789755 1664.3076,39.461376 1664.9625,39.54017 1665.4379,38.301138 1666.5145,35.495692 1665.9898,30.236444 1664.511,29.009097 1661.9846,26.912371 1655.9777,28.765853 1651.2871,33.089436 1648.9538,35.240246 1646.4721,37.070301 1645.7723,37.156225 1645.0726,37.242148 1643.375,37.402289 1642,37.512094 1640.625,37.621899 1638.825,38.001774 1638,38.356261 1636.9936,38.788701 1636.0978,38.131799 1635.2778,36.359926 1633.7239,33.002408 1634.5479,31.669707 1637.69,32.458331 1639.6946,32.961454 1640.0973,32.740501 1639.8207,31.289358 1639.3126,28.623968 1635.5115,28.534578 1633.0925,31.131127 1629.0369,35.484273 1631.1538,43 1636.4355,43 1638.409,43 1638.8178,43.654017 1639.3722,47.698625 1640.4773,55.761182 1638.6297,65 1635.9124,65 1635.4488,65 1633.5914,63.750867 1631.7848,62.224149 1627.4828,58.588712 1623.6883,56.719095 1621.4893,57.151363 1616.4048,58.150844 1610.5307,78.66762 1612.6315,88.089282 L 1613.6151,92.5 1615.8704,83 C 1617.1109,77.775 1618.8874,71.925 1619.8183,70 1621.809,65.883243 1625.1654,64.953412 1628.2301,67.669642 1630.2796,69.486106 1637.0038,83.014636 1636.9958,85.305401 1636.9935,85.96243 1635.8807,88.689776 1634.5228,91.366169 1632.5544,95.245913 1632.2741,96.643727 1633.1401,98.261771 1634.1642,100.17538 1634.3463,100.08113 1636.3299,96.61025 1637.4869,94.585726 1639.4859,92.665169 1640.7721,92.342346 z"/>
</svg>
