<?xml version="1.0" encoding="UTF-8"?>
<svg xmlns="http://www.w3.org/2000/svg" viewBox="1179.47 23.29 25.53 81.58">
  <path d="M 1183.9062 28.65625 L 1183.9375 31.4375 C 1186.8618 29.515066 1188.7001 29.731814 1189.375 32.25 C 1189.7067 33.4875 1189.9925 43.878653 1190 55.34375 C 1190.0123 74.067086 1189.7967 76.45962 1188.125 78.84375 C 1181.4712 88.333132 1183.7785 99.500938 1192.625 100.6875 C 1196.1545 101.16091 1197.0098 100.83394 1199.8125 98.03125 C 1202.7836 95.060118 1203 94.365486 1203 87.84375 C 1203 79.32358 1201.9974 77.287064 1197.4688 76.4375 C 1195.5443 76.076482 1193.7251 75.359831 1193.4062 74.84375 C 1193.0873 74.327669 1192.7525 64.571569 1192.6562 53.1875 C 1192.4692 31.093111 1191.6828 27 1187.6875 27 C 1186.8296 27 1185.4447 27.704335 1183.9062 28.65625 z M 1196.9062 79 C 1199.2571 79 1201 81.750678 1201 85.4375 C 1201 86.848657 1200.5685 88 1200.0312 88 C 1198.8723 88 1196.4757 84.414639 1195.5312 81.25 C 1194.9894 79.434491 1195.2666 79 1196.9062 79 z M 1192.375 79.125 C 1193.3888 78.808937 1194.0287 79.30771 1193.5312 80.875 C 1192.778 83.247935 1194.1976 86.377316 1197.7188 90.15625 C 1199.4606 92.025657 1199.9989 93.432589 1199.5312 94.90625 C 1198.5248 98.077513 1196.5488 97.433221 1194.9688 93.40625 C 1194.1906 91.422835 1192.1932 88.712759 1190.5312 87.40625 C 1187.6154 85.113974 1187.5505 84.945792 1189.0312 82.28125 C 1189.9804 80.573121 1191.3612 79.441063 1192.375 79.125 z M 1187.9062 89 C 1189.1675 89 1192.9942 94.820832 1193 96.75 C 1193.0101 100.13238 1188.5562 96.106956 1187.4688 91.75 C 1187.0257 89.974984 1187.1813 89 1187.9062 89 z "/>
</svg>
