<?xml version="1.0" encoding="UTF-8"?>
<svg xmlns="http://www.w3.org/2000/svg" viewBox="543.83 15.88 44.18 90.63">
  <path d="M 553.11663,99.444687 C 549.17258,96.125988 546.52295,87.675729 547.31897,80.954643 547.62586,78.363411 549.50265,70.901067 551.48962,64.371656 L 555.10228,52.5 552.19186,50 C 546.3132,44.950328 545.83451,41.776986 549.37931,31.354834 552.27295,22.847192 553.96414,20 556.12392,20 558.26251,20 558.9696,22.880574 558.98635,31.661106 558.99924,38.422516 559.17173,38.966712 562.07673,41.411106 568.10754,46.485706 573.23565,43.884115 578.7619,32.94638 583.34254,23.88022 585.95841,25.450537 585.98635,37.283244 586.00082,43.41461 583.49292,49.571766 578.60017,55.417039 576.16116,58.330879 574.54073,58.640957 566.54253,57.724334 565.27842,57.579462 564.11653,58.45607 563.26234,60.199132 561.46375,63.869348 559.50617,77.896274 560.33287,81.190106 561.03908,84.0039 563.49255,87 565.0905,87 565.61171,87 568.7078,84.203236 571.97071,80.784969 575.23362,77.366702 578.11186,74.779202 578.36681,75.034969 578.62175,75.290736 578.98102,78.949613 579.16517,83.165806 579.34933,87.381999 579.78852,90.756999 580.14115,90.665806 580.94092,90.458979 585,95.013591 585,96.117826 585,99.034197 576.29348,99.87715 572.05169,97.371464 569.4236,95.819012 569.08936,95.86088 564.8974,98.267624 557.95312,102.25457 556.61489,102.38828 553.11663,99.444687 z M 566.32945,93.833807 570.1589,90.778056 572.88417,93.389028 C 577.81364,98.111763 580.85894,95.875851 577.5,90 576.71398,88.625 576.05492,86.0375 576.03544,84.25 575.99274,80.334171 574.82888,80.082702 572.95484,83.584389 570.86352,87.492047 566.37664,90.311347 563.42712,89.571064 559.91262,88.68898 557.00824,83.433827 557.00374,77.948641 556.99929,72.529774 561.22887,57.342562 563.32668,55.244745 564.60153,53.969901 565.52237,53.949056 569.98939,55.093917 575.03815,56.387878 575.22397,56.358456 577.14317,53.961192 580.54777,49.708507 583.09389,42.800409 583.71731,36.124302 584.43893,28.396687 583.11447,28.46629 579.57595,36.34194 578.30132,39.178873 575.87427,42.798725 574.18249,44.386057 571.461,46.939535 570.57308,47.211984 566.47726,46.750326 563.23837,46.385257 560.96977,45.387158 558.92399,43.427179 556.12511,40.745677 556,40.248747 556,31.812909 556,26.965809 555.58193,23 555.07096,23 553.80804,23 550.81553,33.316194 550.23715,39.663798 549.76748,44.818388 549.77415,44.832338 553.98061,47.487759 556.89738,49.329035 558.04254,50.663863 557.70067,51.823961 556.33053,56.473384 551.73019,72.935821 550.94481,76 549.28892,82.46044 549.80879,89.911386 552.15506,93.34563 556.55292,99.782788 558.77817,99.859427 566.32945,93.833807 z"/>
</svg>
