<?xml version="1.0" encoding="UTF-8"?>
<svg xmlns="http://www.w3.org/2000/svg" viewBox="2416.54 19.4 54.19 87.1">
  <path d="M 2434.7835,100.25 C 2430.2559,95.059471 2429.6726,89.103575 2432.9177,81.197315 2435.6733,74.483578 2436.2638,69.612574 2434.8815,64.99874 2432.8036,58.063452 2431.5826,57.844711 2420.75,62.467212 2419.2883,63.09094 2419,62.676431 2419,59.95138 2419,56.086282 2422.797,50.673454 2427.0517,48.473268 2429.0518,47.438988 2430,46.190095 2430,44.590115 2430,40.585325 2437.6416,26.484341 2440.5234,25.171291 2444.4916,23.36328 2448.7741,23.709355 2449.9648,25.934259 2451.7376,29.246734 2451.135,31.723584 2447,38.121295 2442.5452,45.013669 2442.456,45.303622 2444.3144,46.845948 2445.2979,47.662218 2446.5431,47.315481 2449.2613,45.468393 2454.4314,41.955237 2456,42.217631 2456,46.59563 2456,50.576941 2453.0074,55.545481 2450.0427,56.486443 2448.3997,57.0079 2448.1389,58.083196 2448.1485,64.295585 2448.1574,70.038845 2447.6082,72.695288 2445.4408,77.393524 2442.1231,84.585191 2441.0034,92 2443.2351,92 2444.8856,92 2448.4234,89.4228 2452.8515,84.99464 2456.0832,81.762977 2460.1049,80.377334 2462.7478,81.585002 2463.7115,82.025384 2465.1381,82.413324 2465.9181,82.44709 2466.698,82.480856 2467.523,83.069074 2467.7514,83.754241 2468.2595,85.278425 2464.6396,85.412676 2461.9433,83.96965 2459.5332,82.679821 2455.7412,84.506371 2451.5,89 2447.3431,93.404303 2444.041,94.962846 2441.1621,93.879338 2439.0499,93.084376 2438.8897,92.58928 2439.5015,88.749726 2440.3199,83.614324 2442.4557,76.953166 2444.6354,72.738084 2446.1011,69.903871 2446.1875,63.736679 2444.841,58.062855 2444.6457,57.23987 2445.8728,55.954656 2447.7124,55.055435 2451.3862,53.25958 2453.9219,50.298498 2453.9682,47.75 2454.0097,45.467295 2452.1161,45.562582 2449,48 2443.9197,51.973847 2438.3471,49.396394 2439.5438,43.626288 2440.2205,40.363359 2443.9689,34.018658 2445.2269,34.006833 2445.6268,34.003075 2446.6925,32.872747 2447.5952,31.494994 2448.8757,29.540776 2448.9772,28.677458 2448.0569,27.568588 2447.0698,26.379234 2446.2751,26.354372 2443.1886,27.416298 2440.1499,28.461803 2438.9274,29.785663 2436.25,34.930077 2434.3337,38.61204 2432.9937,42.677824 2432.9847,44.837372 2432.9673,48.992323 2431.7219,51.564201 2430.1867,50.615411 2428.5115,49.58007 2424.465,51.942781 2422.6494,55.016383 2420.6849,58.342014 2421.7213,59.436645 2425.4812,58.007154 2426.9381,57.453219 2429.4729,57 2431.114,57 2433.6551,57 2434.384,57.630602 2436.0269,61.25 2438.5401,66.78653 2438.508,73.649085 2435.941,79.637567 2433.234,85.952925 2433.1682,93.421108 2435.7892,96.881584 2437.3474,98.938904 2438.5689,99.473597 2441.4894,99.376786 2444.5665,99.274785 2446.0835,98.362567 2450.301,94.078213 2454.7863,89.521847 2455.8205,88.938564 2458.9478,89.201427 2463.0292,89.544479 2462.8759,91.482888 2458.7633,91.534036 2457.0275,91.555625 2454.6503,92.872486 2452.2633,95.134734 2450.1935,97.096398 2447.3874,99.443582 2446.0275,100.3507 2442.7416,102.54259 2436.7364,102.48881 2434.7835,100.25 z"/>
</svg>
