<?xml version="1.0" encoding="UTF-8"?>
<svg xmlns="http://www.w3.org/2000/svg" viewBox="972 17.18 31.62 86">
  <path d="M 980.52588,94.888583 C 977.11279,91.891845 975.27376,88.027545 975.8698,85.104898 976.02628,84.337592 978.01209,81.24919 980.28271,78.241783 984.73781,72.341039 984.76759,72.670576 979.46403,69.181534 977.22322,67.707378 974,62.61574 974,60.550146 974,59.268101 976.02609,56.356199 978.91837,53.481442 L 983.83673,48.592875 980.75174,46.316837 C 976.81454,43.412069 974.01501,39.169304 974.00659,36.094391 974.00042,33.843576 975.96935,30.686475 980.81004,25.185294 984.41376,21.089853 990.97106,22.292335 994.78463,27.747966 998.8469,33.559381 998.35899,38.893748 993.27799,44.220047 L 990.68321,46.940093 994.45609,50.395912 C 997.42678,53.116965 998.3293,54.771116 998.70088,58.175866 999.12314,62.04502 998.78482,62.950004 995.4855,66.776843 L 991.7982,71.053687 995.8991,76.369215 C 1001.6182,83.782202 1001.4393,88.55052 995.19072,95.25 991.4386,99.27289 985.34839,99.122795 980.52588,94.888583 z M 990.17662,69.221561 C 997.92706,64.110049 999.08179,57.810085 993.25,52.453795 991.1875,50.559463 988.70066,49.007405 987.72368,49.004778 985.10668,48.997739 976.99564,57.500981 977.02224,60.223684 977.04942,63.006297 979.57381,66.421311 983.53243,69.030695 987.13045,71.402395 986.88075,71.395222 990.17662,69.221561 z M 990.11072,43.921162 C 993.86922,41.244873 996.30599,36.554017 995.42033,33.700021 993.99071,29.093177 991.10313,26.230852 987.45569,25.805034 983.31869,25.322063 980.62779,26.885309 978.49429,31.011044 976.17076,35.504249 976.66233,38.499559 980.36808,42.428798 984.24614,46.540741 986.04491,46.816274 990.11072,43.921162 z M 995.31682,92.75 C 996.64705,90.9625 997.97956,87.887033 998.27796,85.915628 998.75068,82.792547 998.30139,81.723946 994.78682,77.612252 989.71734,71.681464 987.95165,71.847688 982.30342,78.787461 977.47793,84.716366 977.06009,86.985869 980.08399,90.842271 984.90052,96.984822 991.54597,97.817085 995.31682,92.75 z"/>
</svg>
