<?xml version="1.0" encoding="UTF-8"?>
<svg xmlns="http://www.w3.org/2000/svg" viewBox="2986.03 18.28 39 85.18">
  <path d="M 2992.5938 80.4375 L 2992.5 80.5 L 2990.75 85.40625 C 2991.4402 84.910863 2992.7403 85.20825 2995 86.5 C 2999.2171 88.910685 3002.8616 88.325972 3006.5 84.6875 C 3010.73 80.457506 3011.795 76.51012 3013.125 60.03125 C 3014.3896 44.363755 3017.0638 28.874361 3018.5 28.9375 C 3019.0832 28.963139 3019.6132 33.477955 3019.7812 39.75 C 3020.1053 51.851793 3017.1421 74.511821 3013.9062 84.5625 C 3012.8309 87.902787 3010.715 92.06831 3009.2188 93.8125 L 3006.5 97 L 2998.5 93.6875 C 2991.5366 90.82539 2990.4629 90.074414 2990.1875 87.71875 C 2990.1441 87.347522 2990.2116 87.135408 2990.2188 86.84375 L 2988.0312 92.875 L 2995.9062 95.71875 C 3006.3803 99.533151 3007.0937 99.58505 3009.75 96.75 C 3014.9657 91.183346 3018.7456 78.896689 3020.9062 60.5 C 3022.8828 43.670043 3023.0272 41.17575 3021.9375 40.8125 C 3021.2035 40.567859 3021.2123 39.535108 3022 37.46875 C 3022.6339 35.806012 3022.8787 32.670102 3022.5312 30.34375 C 3021.3582 22.486874 3016.8054 22.149497 3015.1562 29.8125 C 3012.9531 40.050057 3011.9668 47.081977 3010.9375 60 C 3010.3458 67.425 3009.3454 75.075 3008.7188 77 C 3006.247 84.593649 3001.4128 86.867466 2995.2188 83.3125 C 2993.7547 82.47226 2993.0322 81.926989 2992.5938 80.4375 z "/>
</svg>
