<?xml version="1.0" encoding="UTF-8"?>
<svg xmlns="http://www.w3.org/2000/svg" viewBox="419.92 16.3 46.4 90.51">
  <path d="M 429.22685,100.75 C 427.86089,99.072805 425.14347,92.576772 423.36581,86.739106 422.02871,82.348198 422.06781,81.635125 423.86891,77.563436 424.94299,75.135309 427.72241,71.086717 430.04541,68.566564 433.93653,64.345192 434.27813,63.532414 434.38452,58.242234 434.49959,52.52024 434.48943,52.499709 431.5,52.417506 424.14152,52.215162 423.63175,51.546111 426.72693,46.153069 428.24028,43.51621 428.28985,42.690472 427.1277,39.476605 425.50542,34.990257 426.30008,28.680055 429.05858,24.144065 431.18147,20.653263 433.26568,20.409535 433.85761,23.582866 434.61795,27.65903 436.06673,28.074148 438.6826,24.965367 440.05495,23.334415 441.77907,22 442.51397,22 443.24887,22 444.90313,23.9125 446.1901,26.25 449.47845,32.222544 451.97081,32.309553 456.17344,26.598518 458.00305,24.112233 459.8375,22.06045 460.25,22.039 461.81661,21.957536 460.90145,32.620374 458.97804,36.859204 456.53579,42.241434 456.53515,42.66533 458.96196,47.425382 461.29494,52.00139 460.30638,55 456.46482,55 454.47813,55 454,55.503505 454,57.59563 454,59.023226 454.81361,61.385726 455.80802,62.84563 458.80751,67.249218 463.25264,78.849469 463.62541,83.246341 464.21199,90.164983 457.54334,102 453.05832,102 449.9522,102 449.48276,99.482181 451.43449,93.290577 452.38683,90.269424 452.88773,86.688825 452.54761,85.333689 451.58694,81.506062 445.6774,73.037995 443.95295,73.017967 442.17908,72.997366 435.60883,79.582105 434.63274,82.358726 434.27336,83.381025 434.48134,87.100229 435.09491,90.623623 436.05266,96.123393 435.98011,97.381408 434.5822,99.514897 432.80047,102.23415 430.80955,102.69332 429.22685,100.75 z M 459.10641,92.789838 C 460.14788,90.749249 461,87.252807 461,85.019968 461,80.413784 457.20378,70.344563 453.39525,64.848841 451.61978,62.286844 450.78574,59.680646 450.66867,56.328885 450.50301,51.586278 450.5572,51.494466 453.70135,51.19027 456.77743,50.892659 456.85634,50.775277 455.71806,48.19027 451.82765,39.355261 443.2693,27 441.03981,27 440.44069,27 439.47549,28.0125 438.89492,29.25 438.31436,30.4875 436.29931,34.2 434.41704,37.5 432.53477,40.8 430.71843,44.2875 430.38073,45.25 430.04303,46.2125 429.14422,47 428.38337,47 427.62252,47 427,47.476558 427,48.059017 427,48.641476 427.45,48.839919 428,48.5 428.55,48.160081 429,48.38889 429,49.008464 429,49.716889 430.57728,50.017136 433.25,49.817481 L 437.5,49.5 437.4401,56.665018 C 437.38287,63.510147 437.20429,64.039067 433.4401,68.512032 427.15803,75.976982 425,79.298002 425,81.500626 425,84.240394 430.57491,97.358302 431.93143,97.810477 433.28562,98.261872 433.27212,97.331465 431.83411,91.101667 430.1773,83.923957 431.77734,79.246204 437.66073,74.067438 444.90016,67.695035 446.80109,68.358528 453.02032,79.428485 L 456.35102,85.35697 454.66711,91.928485 C 453.74096,95.542818 452.98698,98.907244 452.9916,99.404988 453.00705,101.06986 457.19008,96.544554 459.10641,92.789838 z M 432.42531,34.718703 C 433.0155,33.048968 432.97988,31.269977 432.32698,29.806774 431.31151,27.531003 431.28977,27.538972 429.60015,30.806336 427.83185,34.22584 428.27594,38.406776 430.33486,37.723333 430.97569,37.510614 431.91639,36.15853 432.42531,34.718703 z M 456.96482,36.065741 C 458.12536,33.897249 458.35918,30 457.32874,30 455.93201,30 453,33.37877 453,34.988321 453,38.361376 455.38882,39.010526 456.96482,36.065741 z"/>
</svg>
