<?xml version="1.0" encoding="UTF-8"?>
<svg xmlns="http://www.w3.org/2000/svg" viewBox="2729.28 17.99 17.78 88.18">
  <path d="M2733.75 101.31067C2732.7875 101.05915 2731.9389 100.32385 2731.8641 99.676676C2731.4609 96.185463 2731.2808 25.225152 2731.6714 23.75C2732.0093 22.47394 2733.1578 22.0 2735.9124 22.0C2742.3549 22.0 2742.6851 22.982682 2743.9756 46.0C2745.059 65.323322 2744.7479 98.980795 2743.4667 101.0538C2742.8783 102.0059 2737.0046 102.16118 2733.75 101.31067Z M2740.3641 93.360429C2741.1779 87.422666 2741.01 38.255458 2740.1511 31.0C2739.5483 25.907739 2739.2928 25.476224 2736.7055 25.179286L2733.9111 24.858573L2734.4266 57.179286C2734.7101 74.955679 2734.9551 91.4125 2734.971 93.75C2734.9969 97.54334 2735.254 98.0 2737.3641 98.0C2739.4184 98.0 2739.8115 97.392174 2740.3641 93.360429Z"/>
</svg>
