<?xml version="1.0" encoding="UTF-8"?>
<svg xmlns="http://www.w3.org/2000/svg" viewBox="2935.09 17.94 41.36 86.36">
  <path d="M 2967.2188,76.125 C 2966.4915,74.989042 2965.996,71.743466 2965.5938,64.84375 2965.2304,58.611777 2964.6845,50.899314 2964.375,47.71875 2963.8451,42.273016 2964.0362,41.545506 2967.9062,35.03125 2970.1666,31.226618 2972.4583,27.834764 2973,27.5 2974.4539,26.601431 2974.2245,25 2972.625,25 2971.3445,25 2963.6668,35.877026 2961.6875,40.5 2961.1933,41.654356 2961.3274,48.419505 2962.0312,56.5 2963.6059,74.57611 2963.5094,82.865119 2961.625,87.375 2957.692,96.788092 2951.9439,85.381435 2954.2812,72.8125 2955.2464,67.622732 2955.1638,66.81803 2953.4375,64.90625 2952.38,63.735031 2949.5945,61.884745 2947.25,60.78125 2942.1557,58.383547 2941.2999,57.262595 2943.1562,55.40625 2944.3484,54.214077 2945.1077,54.40723 2948.3125,56.6875 2950.7732,58.438259 2952.3845,59.021761 2953.0312,58.375 2954.6717,56.734413 2954.8533,43.928471 2953.3125,38.71875 2951.9152,33.994139 2945.9717,27.090163 2943.25,27.03125 2941.1119,26.984968 2941.8694,28.836302 2945.6875,33.0625 2949.4188,37.192629 2953.6585,47.232085 2951.9375,47.84375 2951.4217,48.027084 2951,49.489584 2951,51.09375 2951,54.77714 2950.3492,54.726925 2946.375,50.875 2943.1883,47.786268 2941,47.705344 2941,50.65625 2941,51.50143 2940.2512,53.432696 2939.3438,54.96875 2937.0898,58.784615 2937.8771,60.113518 2944.2188,63.21875 2951.738,66.900522 2951.9273,67.261038 2950.6875,75.34375 2948.4217,90.116428 2955.6379,100.37628 2962.5938,92.28125 L 2964.9062,89.59375 2965.5,89.875 2965.5,89.5 2966.1562,83.9375 C 2965.8902,83.372639 2965.8195,82.836759 2966.2188,82.4375 2966.2326,82.423673 2966.3242,82.447579 2966.3438,82.4375 L 2967,77 2967.2188,76.125 z M 2949.5625,22.03125 C 2949.0615,21.957825 2948.6158,22.040467 2948.3125,22.34375 2948.0234,22.632844 2948.9758,24.405711 2950.4062,26.28125 2951.8368,28.156788 2953,30.130665 2953,30.65625 2953,31.181835 2953.5275,32.1525 2954.1875,32.8125 2956.4136,35.038649 2958.7942,34.036415 2962.9062,29.125 2965.1575,26.43617 2967,23.96117 2967,23.625 2967,21.870113 2964.3064,23.460576 2961.25,27.03125 2957.4534,31.466665 2956.1914,31.290444 2954,26 2953.1548,23.959412 2951.0654,22.251524 2949.5625,22.03125 z"/>
</svg>
