<?xml version="1.0" encoding="UTF-8"?>
<svg xmlns="http://www.w3.org/2000/svg" viewBox="27.75 13.85 40.9 92.04">
  <path d="M 29.75,96.1875 C 30.461893,96.318616 32.816485,97.215358 35.625,98.5 42.617136,101.69827 44.851836,101.13526 50.4375,94.75 56.898767,87.363802 59.700774,81.534497 63.03125,68.4375 66.549773,54.601012 66.651306,51.716496 64,45.53125 62.904843,42.976352 61.309833,36.062356 60.4375,30.1875 59.565168,24.312645 58.637415,19.293666 58.375,19.03125 57.373061,18.029312 56.016295,21.613345 56.5,24 56.778672,25.375 57.436696,29.985902 57.96875,34.25 58.500804,38.514097 59.699449,43.464097 60.625,45.25 63.079251,49.985613 63.852586,54.354081 63,58.6875 61.37119,66.96621 57.80396,78.425428 55.375,83.21875 52.428532,89.033325 44.429708,98 42.1875,98 41.348584,98 38.692536,96.850607 36.28125,95.4375 34.022208,94.113613 32.085208,93.549164 30.28125,93.53125 L 29.75,96.1875 z M 31.5,87.21875 C 32.549462,87.168481 33.453834,87.854182 35,89.5 36.291745,90.875 37.876295,92 38.53125,92 43.127806,92 49.970928,80.510594 53.03125,67.625 55.35742,57.830577 54.958317,53.052067 51.53125,49.625 48.327038,46.420788 45.692389,36.98159 45.59375,28.40625 45.538163,23.57367 45.089801,21.004729 44.34375,21 42.400099,20.987679 41.892284,24.08913 42.59375,31.4375 43.414108,40.031351 46.05888,47.55585 50.0625,52.59375 53.31814,56.690441 53.3284,56.255253 50.3125,69 48.65812,75.991166 43.431084,86.917765 41.34375,87.71875 40.640609,87.988571 38.522631,87.247236 36.65625,86.09375 34.760966,84.9224 33.374839,84.379632 32.0625,84.25 L 31.5,87.21875 z M 51.21875,20.65625 C 51.023408,20.719715 50.76223,21.00151 50.4375,21.4375 48.167807,24.484844 48.516947,37.132813 51,42 52.1,44.156178 53,46.482287 53,47.15625 53,47.830212 53.991627,49.414552 55.1875,50.6875 59.043748,54.792288 60.469683,52.950997 57.15625,48.15625 53.339963,42.633842 51.796264,36.754722 51.84375,28 51.874816,22.272539 51.804775,20.465856 51.21875,20.65625 z"/>
</svg>
