<?xml version="1.0" encoding="UTF-8"?>
<svg xmlns="http://www.w3.org/2000/svg" viewBox="1316.9 11.42 64.75 97.01">
  <path d="M1320.26 93.385764C1321.0664 86.231206 1323.5842 83.62293 1330.4046 82.876766C1338.5357 81.987188 1341.0 79.451357 1341.0 71.973569C1341.0 65.177626 1337.9484 59.678498 1333.913 59.202427C1330.7987 58.835014 1326.2466 62.24648 1325.8169 65.269925C1325.6426 66.496466 1324.8574 67.5 1324.0719 67.5C1321.2932 67.5 1320.5416 59.823631 1322.626 52.73323C1323.169 50.88629 1329.8187 47.0 1332.436 47.0C1333.2696 47.0 1335.425 47.898318 1337.2258 48.996262C1339.0266 50.094206 1340.8375 50.994206 1341.25 50.996262C1342.4596 51.002291 1342.1099 42.148841 1340.8189 40.081569C1339.6608 38.227228 1339.5683 38.227494 1336.0837 40.095138C1334.1289 41.142812 1331.5953 42.0 1330.4534 42.0C1325.3799 42.0 1321.6746 33.635377 1324.0104 27.455133C1325.6337 23.160014 1329.9783 19.0 1332.8407 19.0C1334.4362 19.0 1336.6113 20.412587 1339.0 23.0C1341.031 25.2 1342.9823 27.0 1343.3362 27.0C1343.69 27.0 1347.1994 24.936117 1351.1348 22.413594C1360.4311 16.454795 1363.9319 15.826734 1366.8898 19.587073C1368.6628 21.841049 1369.0501 23.517626 1368.8809 28.20683C1368.6148 35.578905 1366.9896 37.198515 1364.0295 33.041441C1361.524 29.522801 1359.058 29.173483 1356.5201 31.977738C1354.7724 33.909018 1354.8392 34.002144 1359.3652 35.942201C1363.7367 37.816058 1364.7624 38.904222 1363.4214 40.245255C1362.5881 41.078604 1353.3868 37.084857 1351.6056 35.116702C1349.8517 33.178617 1350.3544 32.203306 1354.6544 29.20182C1358.1313 26.774877 1361.0682 26.430927 1364.1645 28.088058C1366.0705 29.10811 1366.1528 28.96748 1365.4812 25.838058C1365.0872 24.002126 1364.5341 22.110586 1364.2521 21.634636C1363.601 20.535752 1354.963 21.465632 1354.1263 22.724675C1353.7818 23.243032 1351.0614 25.296564 1348.0809 27.288079C1342.9847 30.693261 1341.0 31.152601 1341.0 28.926887C1341.0 27.454881 1334.6964 22.06231 1332.9371 22.029313C1330.4331 21.98235 1326.0 27.302454 1326.0 30.354379C1326.0 34.484963 1328.6935 39.0 1331.1576 39.0C1332.3161 39.0 1334.791 38.056238 1336.6574 36.902752C1341.0348 34.197311 1342.6282 34.907121 1344.0554 40.198503C1345.0507 43.888302 1344.8104 53.52297 1343.6953 54.638052C1343.4935 54.839806 1340.9452 53.70156 1338.0322 52.108617C1332.9419 49.32496 1332.5953 49.270917 1329.118 50.718569C1324.7543 52.535244 1324.0352 53.526067 1324.0153 57.75C1323.9985 61.315925 1324.544 61.675363 1326.9213 59.664695C1332.9805 54.539804 1340.6851 55.939746 1343.5237 62.681388C1344.7404 65.570978 1344.9716 68.118005 1344.4743 73.150578C1343.61 81.895799 1340.8264 84.852792 1332.6656 85.69506C1326.0678 86.376019 1324.0596 88.137077 1323.2836 93.922384C1322.9198 96.63497 1322.2351 98.0 1321.2383 98.0C1320.0484 98.0 1319.847 97.049829 1320.26 93.385764Z M1326.4307 98.68011C1325.7742 96.969224 1329.5526 89.0 1331.0203 89.0C1331.5591 89.0 1331.9801 89.1125 1331.9559 89.25C1331.9316 89.3875 1331.3251 91.727167 1330.6081 94.449259C1329.2777 99.500012 1327.4541 101.34697 1326.4307 98.68011Z M1351.5 102.31854C1349.85 101.43777 1346.8602 99.430791 1344.8561 97.858575C1340.4851 94.429577 1340.2581 94.408866 1337.3184 97.17061C1334.1799 100.11907 1333.2868 98.810291 1335.9169 95.116717C1339.218 90.480672 1341.3886 90.320823 1346.1142 94.365747C1350.4386 98.067264 1355.8138 101.0 1358.2738 101.0C1360.1832 101.0 1367.5574 92.996218 1368.5047 89.895575C1368.9072 88.578009 1369.8011 86.825 1370.4911 86.0C1372.4897 83.610255 1375.5464 68.0 1374.0157 68.0C1372.8318 68.0 1366.0 81.517012 1366.0 83.859225C1366.0 84.821292 1364.6599 87.72154 1363.022 90.304219C1359.7292 95.496517 1356.9375 96.315594 1352.4824 93.396529C1349.9709 91.750886 1346.0 86.109235 1346.0 84.186532C1346.0 83.593962 1347.2364 82.516553 1348.7475 81.79229C1350.9379 80.742472 1351.8788 79.140596 1353.3878 73.892552C1355.5962 66.212184 1355.0751 61.431136 1351.5763 57.273046C1349.4564 54.75369 1349.2818 53.794347 1349.7505 47.243609C1350.0796 42.643036 1350.6987 40.0 1351.4472 40.0C1352.0954 40.0 1355.0199 41.155006 1357.9462 42.566681C1361.8337 44.442067 1362.9687 45.431297 1362.1604 46.239555C1361.3522 47.047813 1360.3609 47.029854 1358.4801 46.172874C1354.8004 44.496282 1354.3152 44.657101 1353.1736 47.931815C1351.9711 51.381278 1352.6097 54.582526 1355.159 57.884859C1356.1715 59.196531 1357.0 61.642827 1357.0 63.321072C1357.0 67.827125 1352.9941 81.374472 1351.3881 82.29969C1349.9114 83.1504 1349.5416 86.833314 1350.7653 88.501594C1352.0455 90.246804 1356.7653 92.263099 1357.9118 91.554536C1358.5181 91.179788 1359.7187 89.510794 1360.5798 87.845661C1362.0015 85.096375 1362.0009 84.658442 1360.5727 83.080333C1358.0682 80.312914 1358.6576 78.965649 1362.25 79.246194C1365.1572 79.473232 1365.4812 79.23633 1365.322 77.0C1365.224 75.625 1364.8445 73.316861 1364.4785 71.870801C1363.8795 69.504041 1364.053 69.287479 1366.2173 69.701214C1367.6705 69.978997 1369.1467 69.528173 1369.9488 68.561655C1371.063 67.21919 1371.0131 66.67194 1369.638 65.152502C1367.3921 62.670818 1367.5851 61.658229 1370.1748 62.335458C1371.5758 62.701817 1372.7972 62.298545 1373.6075 61.202089C1375.4536 58.704006 1376.9417 60.71222 1377.6451 66.650908C1378.7142 75.677833 1369.9322 99.0 1365.4639 99.0C1364.6588 99.0 1364.0 99.398726 1364.0 99.886059C1364.0 100.92541 1357.8118 104.01823 1355.8489 103.95996C1355.107 103.93794 1353.15 103.1993 1351.5 102.31854Z"/>
</svg>
