<?xml version="1.0" encoding="UTF-8"?>
<svg xmlns="http://www.w3.org/2000/svg" viewBox="1751.24 15.97 41.14 55.72">
  <path d="M 1754.25 58.59375 L 1755.9062 61.625 C 1758.9253 59.905668 1765 53.241186 1765 51.4375 C 1765 50.778844 1765.6109 49.727892 1766.375 49.09375 C 1768.0467 47.706331 1768.9709 43.590208 1767.9688 41.96875 C 1767.419 41.079301 1766.7421 41.06989 1765.0625 41.96875 C 1763.8496 42.617887 1762.1762 42.901221 1761.375 42.59375 C 1760.1145 42.110047 1760.152 41.635948 1761.5312 38.96875 C 1763.4688 35.222083 1772.17 26 1773.7812 26 C 1776.9265 26 1778.5871 32.79456 1778.1562 43.875 L 1778 48.21875 L 1775.5 46.59375 C 1773.026 44.972701 1772.9744 44.98822 1771.2812 48.71875 C 1768.775 54.240714 1761.9923 63.880858 1758.75 66.84375 L 1760 69.15625 C 1760.9486 68.316589 1761.8584 67.495245 1762.9688 66.25 C 1765.7886 63.0875 1769.2426 58.1375 1770.6562 55.25 C 1772.0698 52.3625 1773.4377 50 1773.6875 50 C 1773.9372 50 1774.8312 50.675 1775.6562 51.5 C 1778.1809 54.024759 1779.8554 53.249924 1780.5625 49.25 C 1780.9485 47.066803 1782.5997 44.03765 1784.5 42 C 1786.2953 40.075 1788.2599 37.513843 1788.875 36.3125 C 1790.1831 33.757353 1790.3789 26.349383 1789.1562 25.59375 C 1788.6933 25.307692 1786.8243 26.617803 1785 28.5 C 1781.5906 32.017574 1780 32.22302 1780 29.125 C 1780 28.153332 1778.9287 26.349776 1777.625 25.125 L 1775.25 22.90625 L 1770.5 25.5625 C 1765.3942 28.413045 1764.0323 27.93852 1764 23.3125 C 1763.9839 21.007744 1762.0264 18.927125 1762 21.1875 C 1761.988 22.21008 1761.7789 22.207015 1761.0938 21.125 C 1759.4308 18.499327 1757.6189 24.14166 1757.5312 32.21875 C 1757.4809 36.859386 1756.9509 40.45543 1756.2188 41.1875 C 1753.2411 44.165127 1756.9269 46.82135 1762.5312 45.75 C 1763.8961 45.489095 1765 45.67159 1765 46.15625 C 1765 47.84422 1760.1197 54.765224 1757.4375 56.875 C 1756.2398 57.817103 1755.2059 58.307854 1754.25 58.59375 z M 1760.9375 28.53125 C 1762.0655 27.834141 1763.3737 31.586296 1762.5 33 C 1762.1571 33.554922 1761.455 34 1760.9375 34 C 1759.7195 34 1759.7213 29.282886 1760.9375 28.53125 z M 1787.2188 31 C 1788.4555 31 1787.1521 35.04841 1785.2188 37.25 C 1783.3552 39.37227 1782.3798 39.447908 1781.6562 37.5625 C 1781.1085 36.135238 1785.4694 31 1787.2188 31 z "/>
</svg>
