<?xml version="1.0" encoding="UTF-8"?>
<svg xmlns="http://www.w3.org/2000/svg" viewBox="933.83 17.06 23.95 86.59">
  <path d="M936.64446 98.233735C936.38399 97.812289 936.54232 95.449789 936.99631 92.983735C937.99939 87.534992 939.39186 60.795382 939.10451 52.5C938.73149 41.731684 938.14547 35.585764 937.00973 30.530731C935.82946 25.277527 936.32272 21.0 938.10876 21.0C939.58613 21.0 942.92615 25.15958 942.96673 27.05C942.98503 27.9025 943.45981 29.059808 944.0218 29.621796C944.58378 30.183783 945.73933 33.536283 946.58967 37.071796C947.44001 40.607308 948.53171 44.4 949.01566 45.5C949.49962 46.6 950.09196 49.525 950.33198 52.0C950.572 54.475 951.72043 63.475 952.88405 72.0C955.77888 93.208354 955.6597 99.0 952.32845 99.0C951.52679 99.0 949.71518 97.626532 948.30266 95.947849C945.18302 92.240363 942.06499 92.356705 940.2048 96.25C938.90507 98.970276 937.56211 99.718537 936.64446 98.233735Z M951.70526 86.122405C951.23564 81.011882 949.66879 68.061392 948.60528 60.5C947.86716 55.252159 946.18847 47.791426 943.43018 37.5C941.95608 32.0 940.52751 26.48085 940.25559 25.235222C939.70689 22.721662 937.98001 21.132013 938.03489 23.190983C938.05408 23.910942 938.73755 28.1 939.55372 32.5C942.27723 47.182593 942.79338 54.720006 941.86334 66.227833C940.35147 84.934826 940.12129 92.0 941.02369 92.0C941.49574 92.0 942.16008 91.55 942.5 91.0C943.43402 89.488729 947.59068 89.801872 948.99086 91.48899C951.16637 94.110311 952.24359 91.980558 951.70526 86.122405Z"/>
</svg>
