<?xml version="1.0" encoding="UTF-8"?>
<svg xmlns="http://www.w3.org/2000/svg" viewBox="3175.73 15.55 64.43 89.44">
  <path d="M3198.3375 97.507266C3197.3269 96.076691 3195.7609 93.925437 3194.8575 92.726701L3193.2149 90.547181L3188.6298 94.773591C3183.2434 99.738602 3181.6569 100.00017 3180.0762 96.183873C3178.655 92.752765 3179.913 88.773033 3183.6608 84.843865L3186.1943 82.187731L3183.5972 77.756008C3180.0476 71.699207 3180.4569 61.920849 3184.2909 61.182498C3185.5403 60.941872 3186.6957 62.472235 3188.6277 66.927247C3190.5036 71.252504 3191.7993 73.0 3193.1307 73.0C3194.8057 73.0 3194.9878 72.194376 3194.8831 65.25C3194.8188 60.9875 3194.4813 54.575 3194.1331 51.0C3193.5061 44.562235 3193.4709 44.5 3190.456 44.5C3186.5607 44.5 3182.2012 41.649787 3181.4365 38.603076C3180.7069 35.696165 3183.7117 29.533624 3187.6584 25.842354C3190.597 23.094022 3198.4915 20.15816 3199.6982 21.364914C3200.0752 21.741858 3199.8473 23.533406 3199.1918 25.346131C3197.6277 29.671655 3197.6843 32.493118 3199.3633 33.886525C3200.4377 34.778205 3201.8544 33.857472 3206.0496 29.541176C3211.8008 23.623946 3214.0 23.500231 3214.0 29.093931C3214.0 32.255808 3209.852 42.355392 3208.1116 43.431C3207.5002 43.808869 3207.0 45.693034 3207.0 47.618034C3207.0 49.696723 3206.5939 50.867057 3206.0 50.5C3203.9117 49.209333 3205.1226 51.745685 3207.9996 54.688434C3213.1776 59.984585 3220.6365 60.658695 3223.493 56.088679C3224.8334 53.944256 3226.9661 46.942758 3226.9848 44.625C3226.9973 43.078582 3226.4811 42.853787 3224.0388 43.342245C3219.848 44.180403 3219.2665 42.312258 3223.2043 40.661103C3227.2084 38.982103 3230.0 40.098418 3230.0 43.378633C3230.0 46.731925 3226.2722 57.041694 3224.253 59.272905C3221.1854 62.662612 3219.4713 63.046836 3214.3493 61.492873C3211.6822 60.6837 3209.1625 60.016778 3208.75 60.010824C3207.4822 59.992527 3207.9195 62.688315 3209.3811 63.901304C3211.846 65.946968 3221.7577 68.042632 3224.3345 67.062941C3227.7103 65.779428 3231.6455 55.558191 3233.0854 44.332825C3234.2109 35.55937 3234.0212 24.687892 3232.72 23.386684C3232.3814 23.048087 3230.1388 23.722567 3227.7365 24.885527C3222.6224 27.361188 3222.0 27.447203 3222.0 25.678257C3222.0 24.004728 3231.5597 19.617053 3233.5456 20.379108C3236.2577 21.419854 3237.2234 26.145847 3236.6353 35.5C3235.7217 50.033685 3234.9217 54.095048 3231.4876 61.633157C3228.6394 67.885409 3227.7839 68.916212 3224.5602 69.980118C3221.9111 70.854427 3220.1297 70.901643 3218.1912 70.148931C3216.711 69.574186 3213.8125 68.666827 3211.75 68.132577C3208.0284 67.168575 3208.0 67.184159 3208.0 70.189303C3208.0 72.521564 3209.2475 74.464874 3213.4288 78.646166C3218.8837 84.10109 3220.2581 87.130748 3219.6151 92.282748C3219.1595 95.933822 3218.2779 96.693765 3216.202 95.225103C3215.2659 94.562816 3212.823 93.112421 3210.7732 92.002003L3207.0465 89.983061L3204.7732 94.691187C3202.0318 100.36903 3200.7542 100.92807 3198.3375 97.507266Z M3189.0089 91.218103C3191.9095 88.539728 3192.9122 86.93488 3192.4453 85.718103C3191.4998 83.254062 3189.9485 83.588891 3186.25 87.055313C3184.297 88.885735 3183.0 91.078856 3183.0 92.550686C3183.0 95.907206 3184.2247 95.635595 3189.0089 91.218103Z M3191.0 77.90437C3191.0 76.751774 3190.159 74.614274 3189.1312 73.15437C3188.1034 71.694467 3186.948 69.4875 3186.5638 68.25C3185.4811 64.762881 3184.0 65.593688 3184.0 69.68812C3184.0 73.592609 3187.5647 79.981221 3189.75 79.993167C3190.4375 79.996925 3191.0 79.056967 3191.0 77.90437Z M3205.5872 85.507259C3206.7228 83.774053 3207.0396 81.869687 3206.6268 79.257259C3204.9327 68.536618 3204.1235 60.567319 3203.8832 52.237945C3203.6292 43.431104 3203.7389 42.881958 3206.2833 40.22622C3209.0466 37.341969 3211.6774 31.344107 3210.6361 30.30274C3210.3087 29.975398 3208.0168 31.573369 3205.5428 33.853787C3200.4246 38.571557 3198.7629 38.92729 3196.5567 35.777494C3194.8138 33.289201 3194.4634 27.449653 3196.0 26.5C3197.4807 25.584864 3197.2124 24.0 3195.5767 24.0C3193.5398 24.0 3188.1848 28.741968 3186.4641 32.069456C3183.388 38.017945 3185.5287 41.523533 3192.0779 41.262371C3194.2068 41.177474 3196.1584 41.447279 3196.4147 41.861937C3196.6709 42.276596 3197.1571 49.601784 3197.495 58.140135C3198.0224 71.467598 3197.8893 73.846987 3196.5546 74.954648C3194.2336 76.880972 3194.5827 82.926898 3197.1743 85.685549C3200.0332 88.72868 3203.5249 88.654682 3205.5872 85.507259Z M3202.9847 92.25C3202.9931 91.5625 3202.1 91.0 3201.0 91.0C3198.694 91.0 3198.5914 91.368041 3200.1075 94.200841C3200.9958 95.860624 3201.3886 95.996055 3202.0922 94.8851C3202.5746 94.123295 3202.9763 92.9375 3202.9847 92.25Z M3216.5113 88.981763C3217.3446 87.633463 3213.2021 81.0 3211.5268 81.0C3210.8063 81.0 3209.9125 82.212527 3209.5405 83.694504C3209.0091 85.811979 3209.3606 86.770895 3211.1821 88.172269C3213.8132 90.196462 3215.5934 90.466882 3216.5113 88.981763Z M3222.0 33.0C3225.4435 30.30642 3227.9377 30.30642 3225.5 33.0C3224.5045 34.1 3222.7473 34.989994 3221.595 34.977764C3219.6031 34.956623 3219.623 34.859292 3222.0 33.0Z"/>
</svg>
