<?xml version="1.0" encoding="UTF-8"?>
<svg xmlns="http://www.w3.org/2000/svg" viewBox="784.89 12.57 29.2 91.2">
  <path d="M 809.34375 82.9375 C 808.99966 82.800636 808.66721 82.770339 808.28125 82.5 C 804.93968 80.159472 802 73.438983 802 68.1875 C 802 54.147995 798.67232 36.550662 794.25 27.25 C 789.24148 16.716499 786.8915 17.840874 789 29.75 C 790.48429 38.133431 790.40788 71.825958 788.875 85.6875 C 788.25527 91.291616 788.01436 96.579116 788.34375 97.4375 C 789.18288 99.624213 791.03791 99.385526 796.3125 96.4375 C 800.63188 94.02335 801.04714 93.975156 803.875 95.4375 C 805.5207 96.288522 807.15767 97.446089 807.5 98 C 808.15259 99.055915 810.08958 99.177273 812.09375 98.71875 L 811.625 95.96875 C 811.61778 95.969039 811.60079 96 811.59375 96 C 810.88312 96 809.22791 95.058732 807.90625 93.90625 C 806.58459 92.753767 804.28847 91.174 802.8125 90.40625 C 800.34894 89.124786 799.90554 89.21292 797.1875 91.5 C 795.55907 92.870232 793.42382 94 792.46875 94 C 791.00647 94 790.85798 93.407856 791.4375 90.25 C 792.63619 83.718361 793.11611 47.84837 792.125 39 C 791.60136 34.325149 791.31525 30.341005 791.5 30.15625 C 792.14763 29.508625 794.16967 34.188824 795.59375 39.65625 C 796.38439 42.691731 797.66259 52.005851 798.4375 60.34375 C 799.21241 68.681649 800.51759 77.075 801.34375 79 C 803.08634 83.060272 808.59854 88.642837 810.25 88.15625 L 809.34375 82.9375 z "/>
</svg>
