<?xml version="1.0" encoding="UTF-8"?>
<svg xmlns="http://www.w3.org/2000/svg" viewBox="2283 18.26 23.26 82.38">
  <path d="M2285.0 43.36646C2285.0 42.068744 2298.2516 22.0 2299.1085 22.0C2300.8557 22.0 2299.9543 25.206027 2297.0 29.5C2295.35 31.898193 2294.0 34.13569 2294.0 34.472217C2294.0 35.852144 2287.4065 43.924916 2286.25 43.961C2285.5625 43.98245 2285.0 43.714907 2285.0 43.36646Z M2286.2949 94.326085C2285.9416 93.405432 2286.186 89.541111 2286.8381 85.738705C2287.5036 81.857927 2287.8384 73.770481 2287.6013 67.302161C2287.281 58.559319 2287.4591 56.058171 2288.3395 56.9358C2289.93 58.521117 2290.6705 71.82402 2289.6996 81.366222C2289.2593 85.692644 2289.1486 89.481918 2289.4535 89.786832C2289.7584 90.091745 2291.1295 89.287533 2292.5003 87.999694C2294.74 85.895607 2295.2465 85.793957 2297.4949 86.997258C2298.871 87.733757 2300.3049 88.028449 2300.6812 87.65213C2301.0575 87.275811 2300.8167 81.108912 2300.146 73.94791C2299.4753 66.786908 2299.2376 60.424599 2299.6178 59.809445C2300.0381 59.129343 2299.8565 58.970636 2299.1545 59.404508C2298.5195 59.796948 2298.0 59.641476 2298.0 59.059017C2298.0 58.476558 2298.6203 58.0 2299.3784 58.0C2300.3263 58.0 2301.1375 60.420807 2301.9753 65.75C2303.4005 74.815342 2304.2551 92.171765 2303.3875 94.432561C2302.4437 96.892157 2300.2767 96.277028 2298.3409 93.0C2296.1252 89.248989 2294.1838 89.260259 2291.0469 93.042347C2288.2454 96.420037 2287.2062 96.700797 2286.2949 94.326085Z"/>
</svg>
