<?xml version="1.0" encoding="UTF-8"?>
<svg xmlns="http://www.w3.org/2000/svg" viewBox="3777.8 11.71 30.87 91.94">
  <path d="M3790.156 95.159156C3788.0854 93.046692 3785.7407 90.909192 3784.9456 90.409156C3784.1505 89.90912 3782.6591 88.505598 3781.6314 87.290218C3779.7957 85.119278 3779.8072 85.005024 3782.2862 80.790218C3783.6741 78.430598 3785.9775 75.409059 3787.4048 74.075686C3788.8322 72.742313 3790.0 70.922282 3790.0 70.031172C3790.0 69.140062 3787.75 66.6951 3785.0 64.597923C3782.25 62.500746 3780.0 59.973686 3780.0 58.982234C3780.0 57.990783 3781.9125 54.829788 3784.25 51.957801C3786.5875 49.085814 3788.9458 46.123465 3789.4906 45.374802C3790.2347 44.352355 3789.177 42.872711 3785.2406 39.429252C3782.3583 36.907861 3780.0 34.27855 3780.0 33.586338C3780.0 32.894126 3782.25 29.524218 3785.0 26.097653C3787.75 22.671088 3790.0 19.22234 3790.0 18.433768C3790.0 15.886004 3792.8681 16.906998 3796.2257 20.650049C3798.0266 22.657576 3800.3325 25.095447 3801.35 26.067541C3804.0443 28.641571 3803.7002 33.98482 3800.5319 38.772447L3797.8638 42.804235L3801.4318 47.478544C3805.4619 52.758307 3805.4542 54.989754 3801.3848 61.053751C3798.041 66.036557 3798.322 69.121973 3802.5 73.3C3805.723 76.523008 3806.6653 79.301085 3806.0625 83.802866C3805.829 85.546737 3798.2426 97.226442 3796.7113 98.19958C3794.7208 99.46458 3794.0889 99.171526 3790.156 95.159156Z M3797.0973 62.040664C3798.3212 59.863029 3799.61 58.258953 3799.9613 58.476052C3801.5567 59.462083 3800.9609 51.614269 3799.3011 49.780195C3795.7116 45.813849 3794.3231 45.739722 3790.7946 49.326059C3788.9826 51.167819 3786.6965 54.08192 3785.7144 55.801838L3783.9289 58.928963L3788.7144 62.439691C3791.3465 64.370591 3793.8087 65.961574 3794.186 65.975209C3794.5633 65.988844 3795.8734 64.218299 3797.0973 62.040664Z M3797.4111 37.923275C3798.835 36.231076 3800.0 33.729689 3800.0 32.364636C3800.0 29.641711 3794.4097 22.0 3792.4178 22.0C3790.5862 22.0 3783.7066 31.793113 3784.3537 33.479345C3784.9246 34.967071 3792.7117 41.0 3794.0611 41.0C3794.4797 41.0 3795.9872 39.615474 3797.4111 37.923275Z M3799.9142 88.984977C3804.5156 81.506809 3803.9789 77.425829 3797.8906 73.59573C3795.3241 71.98119 3795.212 72.023298 3791.0808 76.154498C3784.1948 83.040446 3784.1623 83.382929 3789.857 89.047703C3792.5951 91.771466 3795.2838 94.0 3795.8319 94.0C3796.38 94.0 3798.217 91.74324 3799.9142 88.984977Z"/>
</svg>
