<?xml version="1.0" encoding="UTF-8"?>
<svg xmlns="http://www.w3.org/2000/svg" viewBox="3222.71 44.2 32.69 52.42">
  <path d="M 3245.3125 92.9375 L 3245.625 91.71875 L 3247.375 68.375 L 3253.4062 57.78125 L 3252.7812 55.15625 C 3252.6427 55.310326 3252.4468 55.684414 3252.3438 55.71875 C 3251.7906 55.903124 3249.3733 54.496441 3246.9688 52.59375 C 3244.5644 50.691059 3242.3658 49.167837 3242.0625 49.21875 C 3241.7592 49.269663 3240.6796 48.963761 3239.6875 48.53125 C 3235.2253 46.585888 3225 55.243991 3225 60.96875 C 3225 64.223968 3226.6287 63.314914 3229.4688 58.46875 C 3232.2215 53.771344 3236.905 50.92089 3240.375 51.8125 C 3241.3986 52.075504 3243.9469 53.925035 3246.0625 55.9375 C 3248.9716 58.704891 3249.778 60.152148 3249.3438 61.8125 C 3248.665 64.407821 3247.8809 64.506881 3244 62.5 C 3241.2071 61.0557 3240.9291 61.110368 3237.5312 64.09375 C 3235.584 65.803386 3234 67.825726 3234 68.59375 C 3234 70.637867 3235.0588 70.341265 3238.1875 67.34375 C 3240.6355 64.998369 3241.2615 64.792548 3243.5 65.8125 C 3245.9714 66.93853 3246.0518 67.193629 3245.4062 73.75 C 3245.0402 77.467097 3244.6881 80.563773 3244.625 80.65625 C 3244.5619 80.748727 3242.3484 80.351771 3239.7188 79.75 L 3234.9375 78.65625 L 3230.5625 82.9375 C 3225.8579 87.554698 3224.7114 89.963437 3226.1875 92.125 C 3226.939 93.225419 3227.3434 93.147132 3228.3125 91.59375 C 3230.9124 87.426028 3236.3328 82 3237.9062 82 C 3239.9002 82 3244 84.737704 3244 86.0625 C 3244 86.581313 3242.4435 87 3240.5312 87 C 3236.4145 87 3232.7265 91.13991 3234.9062 93.3125 C 3235.8415 94.2446 3236.4936 94.009575 3237.8125 92.3125 C 3239.0823 90.678517 3240.191 90.276482 3242.25 90.6875 C 3243.7625 90.989431 3245 91.631404 3245 92.125 C 3245 92.32133 3245.2323 92.678351 3245.3125 92.9375 z M 3235.4375 58 C 3233.5822 58 3229 62.745251 3229 64.65625 C 3229 66.902242 3230.8757 66.18436 3234 62.75 C 3237.3568 59.060049 3237.6543 58 3235.4375 58 z "/>
</svg>
