<?xml version="1.0" encoding="UTF-8"?>
<svg xmlns="http://www.w3.org/2000/svg" viewBox="2759.16 17.61 48.17 85.78">
  <path d="M2775.6578 94.99794C2772.0983 92.7406 2770.4331 90.775059 2768.6346 86.708532C2763.3972 74.865827 2761.3509 50.152941 2764.5767 37.703812C2766.3512 30.855983 2767.2283 29.345266 2771.5 25.778538C2776.454 21.642176 2778.3757 21.512991 2782.3994 25.045851L2785.9627 28.174469L2788.6162 26.087235C2791.5077 23.812799 2795.0418 23.416828 2798.0554 25.029644C2803.3998 27.889893 2805.1424 40.372852 2802.6049 57.620551C2800.6514 70.899296 2797.4255 80.882404 2792.7385 88.153714C2786.3552 98.056783 2782.7555 99.499166 2775.6578 94.99794Z M2788.4161 89.826956C2792.7349 84.781404 2797.3273 73.190425 2799.0451 63.0C2800.8387 52.359557 2800.8447 36.33599 2799.0568 32.0C2796.6104 26.067192 2794.7178 25.64186 2790.1574 30.0C2788.4308 31.65 2786.6766 32.999987 2786.2591 32.999971C2785.8416 32.999954 2784.2433 31.424954 2782.7074 29.499971C2777.948 23.535082 2772.8474 25.27822 2769.0187 34.178062C2766.0099 41.172313 2765.308 56.916014 2767.5428 67.281899C2768.3987 71.251854 2769.4656 76.525 2769.9136 79.0C2770.9932 84.964561 2773.0671 88.598402 2777.082 91.56048C2781.824 95.059061 2784.256 94.687096 2788.4161 89.826956Z M2777.7654 84.25C2774.9705 81.083397 2771.6611 53.254801 2773.1283 45.256551C2775.4367 32.67277 2779.4745 30.489771 2789.1491 36.594959C2792.3216 38.596958 2792.8888 39.555682 2793.4911 43.935022C2794.3203 49.964226 2791.6869 67.115886 2788.7982 74.5C2786.5275 80.304351 2782.4692 86.0 2780.6041 86.0C2779.8923 86.0 2778.6149 85.2125 2777.7654 84.25Z M2786.0704 74.113978C2789.0933 66.07993 2791.2853 53.453943 2790.759 47.107412C2790.3833 42.576638 2789.8168 41.26432 2787.4035 39.333217C2783.7279 36.392142 2779.4555 36.280282 2777.9541 39.085813C2777.3401 40.23301 2776.5921 43.551597 2776.2919 46.460452C2775.7012 52.183824 2777.5061 73.108292 2779.1286 79.346572C2780.0939 83.057813 2780.1965 83.132188 2782.0436 81.46055C2783.0966 80.507623 2784.9086 77.201666 2786.0704 74.113978Z"/>
</svg>
