<?xml version="1.0" encoding="UTF-8"?>
<svg xmlns="http://www.w3.org/2000/svg" viewBox="1449.93 15.04 69.94 80.71">
  <path d="M1469.3577 87.620883C1463.7579 82.021071 1464.0051 80.453934 1471.5934 73.449672L1477.0648 68.399344L1475.5697 64.820957C1474.2087 61.563817 1472.3755 60.0 1469.9182 60.0C1468.0407 60.0 1461.1903 67.893405 1460.0382 71.384245C1458.6719 75.524324 1457.8024 75.802377 1454.9965 72.99654C1453.2235 71.223497 1453.1113 70.465453 1454.0212 66.405401C1456.2407 56.501586 1460.2571 50.378801 1466.1299 47.946183C1469.4337 46.577708 1477.0615 48.164266 1479.1235 50.648807C1481.1125 53.045404 1479.3301 53.289979 1473.4209 51.431306C1467.0129 49.415734 1464.39 50.162165 1460.881 55.0C1458.8739 57.76717 1456.2678 66.601136 1457.1873 67.520653C1457.509 67.842368 1460.1437 65.831832 1463.0422 63.052795C1467.1794 59.086086 1469.0154 58.0 1471.5835 58.0C1475.3599 58.0 1478.4452 61.19749 1479.5581 66.26454C1480.2013 69.192774 1479.8233 69.819877 1474.6136 74.46758C1467.956 80.407117 1467.5101 82.76178 1472.3444 86.449109C1474.1838 87.852099 1475.9891 89.0 1476.3562 89.0C1476.7233 89.0 1476.7412 87.233851 1476.396 85.075224C1475.7987 81.339856 1476.038 80.874309 1481.355 75.42851C1487.7621 68.866076 1487.7203 68.858449 1493.5578 77.653022C1496.2305 81.679691 1497.0253 83.763014 1496.5743 85.560075C1495.7731 88.752215 1497.3293 88.668081 1499.9162 85.379401C1502.4772 82.12357 1501.9846 79.476595 1497.398 71.849273C1493.8491 65.947571 1493.2997 63.177083 1495.0352 59.934259C1497.2111 55.868581 1505.9251 58.063802 1509.1226 63.483134C1511.5701 67.631475 1513.0 67.232475 1513.0 62.401145C1513.0 57.69742 1509.5081 51.14369 1506.3653 49.94879C1504.0921 49.08453 1497.1742 49.199544 1494.5 50.146058C1492.3456 50.908599 1492.8624 48.425109 1495.1122 47.20433C1498.0692 45.599794 1506.32 46.324459 1509.6057 48.477283C1514.7653 51.857993 1516.6896 61.350291 1513.918 69.748566C1512.453 74.187479 1510.0924 73.658959 1508.3413 68.5C1506.6849 63.620181 1503.7321 61.0 1499.8892 61.0C1495.8649 61.0 1496.0485 64.177619 1500.5 71.570017C1505.2247 79.416189 1505.1697 83.061033 1500.25 88.132524C1497.9993 90.452668 1495.5629 91.998579 1494.1562 91.999112C1491.9191 91.99996 1491.8436 91.772655 1492.4985 87.010552C1493.1309 82.412706 1492.9355 81.706332 1490.0084 78.010552C1488.2613 75.804748 1486.5323 74.032489 1486.166 74.072197C1485.7997 74.111906 1484.15 75.766902 1482.5 77.749966C1480.0349 80.712704 1479.5 82.259862 1479.5 86.427769C1479.5 91.244007 1479.3582 91.516259 1476.6906 91.822156C1474.4697 92.076823 1472.9335 91.196678 1469.3577 87.620883Z M1455.6793 41.290054C1455.3264 40.719048 1456.8225 37.490287 1459.004 34.115031C1461.1856 30.739774 1463.8863 26.183106 1465.0056 23.9891C1466.9178 20.240864 1469.0 18.707252 1469.0 21.047104C1469.0 22.607216 1461.0009 36.88747 1458.4953 39.80038C1457.205 41.300443 1456.06 41.906129 1455.6793 41.290054Z M1478.1891 33.75C1478.9696 32.5125 1480.9327 29.367909 1482.5516 26.76202C1485.8295 21.48549 1488.5643 19.536868 1487.4716 23.256292C1486.3105 27.208737 1480.035 36.0 1478.3748 36.0C1476.9567 36.0 1476.9351 35.738151 1478.1891 33.75Z M1496.0 36.371146C1496.0 35.105535 1505.538 21.105684 1506.75 20.592268C1509.4436 19.451281 1507.7527 23.794249 1502.99 30.25C1498.6445 36.140203 1496.0 38.456014 1496.0 36.371146Z"/>
</svg>
