<?xml version="1.0" encoding="UTF-8"?>
<svg xmlns="http://www.w3.org/2000/svg" viewBox="2874.85 14.77 69.87 89.59">
  <path d="M2897.0878 93.011309C2894.8395 89.71753 2893.0 86.366901 2893.0 85.565469C2893.0 83.676886 2905.0212 70.895086 2906.1445 71.589314C2906.615 71.88011 2907.0 71.641476 2907.0 71.059017C2907.0 70.476558 2906.422 70.0 2905.7156 70.0C2905.0092 70.0 2903.6876 68.7625 2902.7786 67.25C2901.8697 65.7375 2899.7718 63.036151 2898.1167 61.247002C2895.4513 58.365855 2894.8277 58.121383 2892.6616 59.108327C2889.4742 60.5606 2887.056 66.715635 2886.3002 75.299995C2885.7581 81.457807 2885.5055 82.07166 2883.6252 81.799995C2880.9205 81.409222 2878.1276 74.232839 2878.0544 67.485883C2878.0245 64.728119 2878.875 60.077901 2879.9444 57.152065C2881.9704 51.609137 2886.3816 46.499756 2888.1809 47.611812C2888.7544 47.966242 2889.5789 47.681406 2890.0131 46.978842C2891.2446 44.986138 2898.5921 49.14743 2898.2083 51.620302C2897.9648 53.18916 2898.0857 53.251949 2898.9393 52.0C2899.8413 50.676828 2900.317 50.70038 2902.9745 52.199788C2905.933 53.869078 2905.9976 53.857603 2906.5742 51.560227C2906.8972 50.273585 2906.7756 47.270372 2906.3042 44.88642C2905.4988 40.814009 2905.1704 40.473846 2900.8723 39.259883C2897.3833 38.274439 2895.8768 37.186363 2894.5243 34.674992C2892.8633 31.59077 2892.8557 31.179759 2894.4034 28.186823C2896.5029 24.126904 2902.9106 19.852308 2907.1951 19.653414C2910.3244 19.50815 2910.5165 19.699223 2910.8104 23.25C2911.1451 27.294618 2912.0168 27.889559 2914.0387 25.45332C2919.5227 18.845607 2925.0 19.089087 2925.0 25.94057C2925.0 28.875027 2924.1805 30.791695 2921.6104 33.86782C2918.4921 37.600162 2918.2122 38.493453 2918.1127 45.029093C2918.0074 51.949825 2918.0626 52.115738 2920.2523 51.452639C2921.4885 51.078264 2923.9031 49.923268 2925.618 48.885979C2932.0528 44.993845 2936.8855 47.646324 2939.5618 56.539202C2941.5404 63.113355 2941.3682 65.667243 2938.5362 71.75C2936.1749 76.821855 2934.2951 78.346751 2933.6051 75.75C2933.4224 75.0625 2932.7347 72.255811 2932.0769 69.512914C2930.9795 64.937338 2928.6469 61.0 2927.0336 61.0C2925.3946 61.0 2922.0 65.305201 2922.0 67.383919C2922.0 68.652224 2923.8 72.474877 2926.0 75.878705C2930.6045 83.002699 2930.8022 84.818132 2927.6467 91.0C2925.1704 95.851146 2922.0219 98.079985 2918.8258 97.24419C2916.6578 96.67724 2916.7117 95.170798 2919.1114 89.267131C2920.367 86.178254 2920.2754 85.879347 2917.0544 82.55609C2913.3526 78.736817 2912.6392 78.833618 2908.5712 83.707274C2906.0599 86.715946 2905.9691 87.164715 2907.1045 90.954535C2908.1683 94.504969 2908.0953 95.237206 2906.5025 96.99726C2903.5251 100.28724 2901.4565 99.411461 2897.0878 93.011309Z M2884.5934 67.238544C2886.4528 60.550696 2888.3329 57.913455 2892.9394 55.531316C2896.1741 53.858629 2896.211 53.768473 2894.3795 52.011833C2889.5981 47.425597 2884.5711 50.144218 2882.1677 58.61602C2880.7408 63.645562 2880.6291 73.0 2881.9958 73.0C2882.5435 73.0 2883.7124 70.407345 2884.5934 67.238544Z M2904.4656 93.25C2902.2669 88.108841 2902.7234 86.18689 2907.4415 80.721977C2910.0002 77.758223 2912.7259 75.333333 2913.4986 75.333333C2914.2713 75.333333 2916.9844 77.445954 2919.5276 80.028045L2924.1517 84.722757L2923.0101 88.96232C2921.4532 94.744367 2922.5277 95.260416 2924.9603 89.898896C2927.4452 84.42204 2927.4605 83.457248 2925.1152 80.15437C2921.6004 75.204531 2918.0 68.123731 2918.0 66.161148C2918.0 63.609924 2924.4249 58.0 2927.3467 58.0C2929.4801 58.0 2934.0 62.644783 2934.0 64.837063C2934.0 65.341989 2934.675 66.315311 2935.5 67.0C2936.7985 68.077622 2936.9998 67.590212 2936.9984 63.372445C2936.9968 58.211003 2934.6092 52.326854 2931.8277 50.628989C2930.2136 49.643766 2928.7178 50.073297 2924.0 52.876852C2919.3989 55.611019 2916.9275 56.327539 2915.8421 55.242055C2915.1785 54.578483 2914.7303 50.390712 2914.7387 44.932865L2914.7529 35.741208L2918.3764 32.421587C2920.7267 30.268485 2922.0 28.205547 2922.0 26.550983C2922.0 23.051331 2920.6459 23.336316 2915.115 28.0C2912.506 30.2 2909.3367 32.0 2908.0721 32.0C2906.1162 32.0 2905.8435 31.589484 2906.2451 29.25C2906.5047 27.7375 2907.0539 25.7125 2907.4656 24.75C2908.0577 23.365405 2907.7197 23.0 2905.8468 23.0C2903.1389 23.0 2898.4751 26.92788 2897.4872 30.040466C2896.5193 33.090024 2899.543 36.0 2903.6797 36.0C2907.9413 36.0 2909.2085 38.740825 2909.3788 48.326487C2909.5148 55.985318 2907.8171 58.494156 2903.2705 57.353043C2900.9179 56.762578 2900.9406 56.868728 2904.2931 62.124572C2909.9758 71.033535 2909.9657 71.167395 2903.0713 78.347239C2899.7321 81.824682 2897.0 85.001511 2897.0 85.406861C2897.0 87.320372 2902.3652 95.0 2903.702 95.0C2904.7604 95.0 2904.9895 94.475042 2904.4656 93.25Z"/>
</svg>
