<?xml version="1.0" encoding="UTF-8"?>
<svg xmlns="http://www.w3.org/2000/svg" viewBox="3569 12.38 34.41 90.7">
  <path d="M3582.6875 96.354167C3582.3094 95.976042 3582.0 93.418563 3582.0 90.670881C3582.0 86.891046 3581.2978 84.558507 3579.115 81.087547C3574.4684 73.698642 3574.3541 70.383613 3578.478 62.610093C3580.8078 58.218627 3582.0 54.622068 3582.0 51.985637C3582.0 48.243464 3581.8207 48.0 3579.0651 48.0C3574.0269 48.0 3571.0 46.330674 3571.0 43.552086C3571.0 38.090252 3583.9445 16.5 3587.2192 16.5C3590.0039 16.5 3597.9103 29.511026 3599.6334 36.929264C3601.4096 44.575756 3600.8496 47.748649 3597.5793 48.569465C3593.8959 49.493935 3592.7142 57.126742 3595.5 62.0C3597.6154 65.700553 3597.4684 74.606275 3595.278 75.446806C3593.84 75.998612 3593.7912 76.252914 3594.9818 76.988759C3596.2103 77.748002 3596.2129 78.233629 3595.0008 80.498441C3594.2132 81.970201 3593.5734 86.069554 3593.547 89.813478C3593.5101 95.069476 3593.1791 96.5 3592.0 96.5C3589.6943 96.5 3588.8966 86.562657 3590.7959 81.5C3591.6212 79.3 3592.4815 74.8 3592.7076 71.5C3593.0479 66.535052 3592.6813 64.642102 3590.5825 60.526925C3588.9315 57.289851 3588.3872 55.212826 3589.0231 54.576925C3589.5604 54.039616 3590.0 52.141558 3590.0 50.359017C3590.0 47.023859 3591.1521 45.691394 3594.2319 45.464495C3595.2038 45.392893 3596.2881 45.045235 3596.6414 44.691922C3598.1123 43.221049 3594.5961 32.02355 3590.7773 26.017303L3586.755 19.690934L3582.4474 26.527241C3573.7076 40.397675 3573.1553 44.0 3579.7686 44.0C3584.8833 44.0 3586.0 45.392834 3586.0 51.77193C3586.0 55.759853 3585.3267 58.292734 3583.3867 61.603134C3581.9494 64.055734 3580.3642 67.883328 3579.8642 70.108898C3579.0436 73.761075 3579.2358 74.513239 3581.8361 77.827694C3583.4207 79.847462 3585.2025 83.075 3585.7956 85.0C3587.5496 90.692937 3585.288 98.954685 3582.6875 96.354167Z"/>
</svg>
