<?xml version="1.0" encoding="UTF-8"?>
<svg xmlns="http://www.w3.org/2000/svg" viewBox="1546.16 20.47 26.16 77.6">
  <path d="M1549.1414 88.25C1551.4729 74.816074 1554.0643 48.466302 1553.8053 40.827742C1553.5095 32.105861 1553.9423 30.22828 1555.961 31.4759C1557.7903 32.606462 1555.4042 71.916038 1552.9549 81.0C1551.4147 86.712106 1551.6822 87.120074 1555.4931 84.871572L1558.9862 82.810595L1562.0698 85.405297C1563.7658 86.832384 1565.5039 88.0 1565.9321 88.0C1566.3604 88.0 1566.9478 85.1875 1567.2375 81.75C1568.5055 66.704961 1563.6628 38.658579 1557.9159 27.763569C1556.6077 25.283421 1556.7824 24.0 1558.4282 24.0C1561.1834 24.0 1566.8442 43.884893 1568.9539 60.973766C1570.0944 70.212263 1570.3236 85.191089 1569.3784 88.716881C1568.3678 92.486292 1565.2084 92.594324 1561.4863 88.986736C1557.8734 85.484954 1557.0432 85.606718 1553.1731 90.206095C1549.5208 94.546657 1548.163 93.887879 1549.1414 88.25Z"/>
</svg>
