<?xml version="1.0" encoding="UTF-8"?>
<svg xmlns="http://www.w3.org/2000/svg" viewBox="1837.83 17.68 69.7 91.25">
  <path d="M1878.5714 101.42857C1876.5262 99.383386 1876.5886 98.229825 1879.0 93.5C1880.1 91.342414 1881.0 88.841295 1881.0 87.941959C1881.0 86.296318 1874.5752 79.0 1873.1262 79.0C1872.0579 79.0 1868.512 82.99261 1867.0264 85.868333C1866.0206 87.815453 1866.1029 88.901871 1867.4896 91.976879C1869.8102 97.123058 1869.2158 100.41689 1865.897 100.80224C1863.8727 101.03728 1862.2054 99.970742 1858.397 96.00465C1855.7037 93.199748 1853.3612 90.509857 1853.1916 90.027114C1852.6878 88.593473 1856.6045 81.687451 1859.4027 79.075686C1860.8312 77.742313 1862.0 75.814813 1862.0 74.792353C1862.0 72.858448 1855.8137 66.0 1854.0694 66.0C1852.5512 66.0 1848.0 73.18158 1848.0 75.577147C1848.0 78.03483 1845.0863 81.0 1842.6713 81.0C1841.2624 81.0 1841.0015 79.861866 1841.0098 73.75C1841.0211 65.331356 1843.7345 58.391157 1848.9196 53.5188L1852.0921 50.537599L1859.296 54.280071C1863.2582 56.338431 1866.9005 58.017471 1867.3899 58.011272C1868.9929 57.990968 1867.1912 47.045404 1865.0017 43.502762L1862.8626 40.04168L1859.9268 42.212275C1856.3676 44.843684 1852.8156 43.992634 1849.6584 39.752012C1844.9175 33.384215 1851.9862 28.356217 1859.3131 32.884519L1862.5737 34.899676L1868.2869 29.321413C1871.4291 26.253369 1874.0 24.095686 1874.0 24.526563C1874.0 24.95744 1874.8812 24.512515 1875.9582 23.537841C1877.8451 21.830253 1878.0545 21.871894 1881.7082 24.68112C1883.7937 26.284597 1886.6702 28.328613 1888.1005 29.223377C1891.8318 31.557634 1894.1679 37.103929 1893.8042 42.765278C1893.5319 47.003678 1893.2322 47.531198 1890.9449 47.797617C1889.1246 48.009639 1887.0695 46.933121 1883.7992 44.054485C1878.362 39.268447 1877.9925 39.669439 1878.0153 50.331787C1878.0375 60.696584 1878.7094 61.238909 1885.2639 56.182117C1890.8252 51.891665 1894.0 50.895489 1894.0 53.440983C1894.0 55.415384 1896.0542 56.530272 1896.968 55.051788C1897.8395 53.641666 1902.0 60.095209 1902.0 62.85716C1902.0 63.815722 1902.4966 65.096597 1903.1035 65.703549C1904.3664 66.966381 1902.7237 76.423102 1900.8491 78.681795C1899.1378 80.743774 1897.0022 80.229723 1896.978 77.75C1896.9436 74.22677 1893.2772 67.0 1891.5241 67.0C1890.6586 67.0 1889.4738 68.2375 1888.8911 69.75C1887.99 72.089089 1888.3077 73.441412 1891.017 78.800344L1894.2022 85.100689L1891.6341 88.806495C1890.2216 90.844688 1888.5374 94.084533 1887.8914 96.00615C1885.6719 102.60817 1881.9288 104.78592 1878.5714 101.42857Z M1866.0 96.19113C1866.0 95.746251 1865.3393 94.508751 1864.5318 93.44113C1861.5361 89.480405 1862.9509 85.102388 1869.8295 77.048606L1872.7772 73.597211L1876.6386 76.970503C1881.8822 81.551283 1885.0 85.922845 1885.0 88.69428C1885.0 91.918441 1886.4449 91.566456 1888.8586 87.75433L1890.9136 84.508661L1887.9568 79.269479C1884.4076 72.980585 1884.3269 71.61502 1887.25 67.310374C1890.6415 62.316003 1892.5681 62.181178 1896.5257 66.661251L1899.9167 70.5L1899.9584 67.710162C1900.0129 64.055272 1896.5578 57.368896 1893.8719 55.931419C1892.1303 54.999371 1891.28 55.170769 1889.1251 56.888211C1883.0222 61.752257 1877.9028 64.302752 1876.6838 63.086487C1875.0679 61.474278 1874.4595 39.878503 1875.9514 37.090875C1877.5327 34.136168 1878.4641 34.418598 1883.8965 39.5C1886.5425 41.975 1889.2232 44.0 1889.8537 44.0C1891.4031 44.0 1891.2989 40.651116 1889.6249 36.644757C1888.2049 33.2461 1879.4125 26.0 1876.7087 26.0C1874.9809 26.0 1866.0 35.577759 1866.0 37.420324C1866.0 38.082534 1866.9921 40.621364 1868.2047 43.062171C1869.7237 46.119786 1870.5342 49.910336 1870.8106 55.25C1871.1823 62.431048 1871.0671 63.0 1869.2407 63.0C1868.1567 63.0 1866.1965 62.160761 1864.8849 61.135025C1860.1358 57.421249 1852.5014 54.139877 1850.811 55.085881C1847.348 57.023888 1844.0 64.594438 1844.0 70.487087C1844.0 73.986408 1844.3786 75.884074 1845.0 75.5C1845.55 75.160081 1846.0 74.194589 1846.0 73.354461C1846.0 70.596567 1852.1947 62.998123 1854.4195 63.027058C1856.5352 63.054573 1862.4476 67.945565 1865.3166 72.041564C1866.708 74.028054 1866.7256 74.630026 1865.4637 77.070256C1864.6752 78.594893 1862.6745 80.807678 1861.0175 81.987555C1856.179 85.432862 1856.0586 88.45159 1860.5752 93.077021C1864.2885 96.879752 1866.0 97.862255 1866.0 96.19113Z M1858.0342 38.936078C1859.4433 36.303099 1857.7372 34.0 1854.3776 34.0C1850.1646 34.0 1851.9541 40.788337 1856.2148 40.969591C1856.608 40.986316 1857.4267 40.071235 1858.0342 38.936078Z M1885.0 94.377555C1885.0 93.0699 1884.6222 92.0 1884.1605 92.0C1882.9559 92.0 1880.8605 96.965229 1881.5763 98.123494C1882.551 99.70056 1885.0 97.021046 1885.0 94.377555Z M1901.0 61.559017C1901.0 61.316476 1900.55 60.839919 1900.0 60.5C1899.45 60.160081 1899.0 60.358524 1899.0 60.940983C1899.0 61.523442 1899.45 62.0 1900.0 62.0C1900.55 62.0 1901.0 61.801558 1901.0 61.559017Z"/>
</svg>
