<?xml version="1.0" encoding="UTF-8"?>
<svg xmlns="http://www.w3.org/2000/svg" viewBox="2947.58 12.9 73.77 86.94">
  <path d="M 3018 47.78125 C 3017.0771 48.895101 3006.3817 54 3004.9375 54 C 3004.484 54 3003.5342 52.755774 3002.8125 51.25 C 3001.1595 47.801241 2998.4914 47.263886 2994.2812 49.53125 C 2992.4688 50.50728 2990.6817 51.025438 2990.3125 50.65625 C 2989.9433 50.287061 2989.7373 46.746071 2989.8438 42.78125 C 2990.016 36.36856 2990.3402 35.22724 2992.875 32.53125 C 2996.2615 28.929412 2998.2043 23.679262 2997.375 20.375 C 2996.5624 17.13746 2993.9706 17.377436 2990.5 21 C 2986.5418 25.131427 2983.916 25.026307 2984.25 20.75 C 2984.4831 17.764594 2984.2394 17.470984 2981.3125 17.1875 C 2977.885 16.855536 2972.8725 18.968937 2969.25 22.28125 C 2967.6052 23.785235 2967 25.482331 2967 28.53125 C 2967 33.371929 2969.1522 35.876402 2974.1875 36.90625 C 2977.2296 37.528426 2977.5791 38.029078 2979.1875 44.03125 C 2981.6864 53.356901 2981.2086 53.848089 2973.4688 49.59375 C 2966.2658 45.634492 2964.2543 45.302162 2960.125 47.4375 C 2956.8816 49.114703 2952.3382 58.356851 2951.4062 65.15625 C 2950.932 68.615674 2951.2119 70.038022 2952.75 71.9375 C 2955.6648 75.537193 2957.4884 74.020411 2960.2188 65.8125 C 2963.3666 56.349443 2964.9933 55.949704 2972.1875 62.8125 L 2977.375 67.75 L 2975.5312 70.59375 C 2974.5066 72.157502 2972.1749 74.989552 2970.3438 76.875 C 2966.5061 80.826595 2966.1737 82.945237 2969.0312 85.53125 C 2970.1489 86.542806 2971.9973 88.86289 2973.125 90.6875 C 2975.4043 94.375474 2979.218 95.893842 2981.5 94 C 2983.2975 92.50821 2983.4095 89.760097 2981.8125 85.34375 C 2980.7146 82.307582 2980.8712 81.700381 2983.6875 77.8125 C 2985.3714 75.487945 2987.1548 73.448409 2987.6562 73.28125 C 2988.1577 73.114092 2990.2749 75.050144 2992.375 77.5625 L 2996.1875 82.125 L 2994.0312 87.15625 C 2991.7483 92.463207 2991.8955 95 2994.5 95 C 2997.5089 95 3001.1587 91.638932 3003.5625 86.65625 C 3006.5925 80.375264 3006.582 77.55455 3003.4688 72.5 C 3000.1835 67.165906 3000.1719 64.73904 3003.4062 65.96875 C 3006.6533 67.203251 3009.8057 66.295201 3014.1562 62.90625 L 3017.8125 60.0625 L 3017.875 60.53125 L 3018 60 L 3018 53.9375 C 3018 56.353803 3010.3341 63.005005 3007.5625 63 C 3006.424 62.997944 3003.98 62.068394 3002.125 60.9375 C 3000.27 59.806605 2998.1325 59.115561 2997.375 59.40625 C 2994.9071 60.353285 2995.8631 66.013028 2999.5 72 C 3001.425 75.168892 3003 78.665054 3003 79.78125 C 3003 82.154227 2997.7028 90.639756 2997.1875 89.09375 C 2996.9954 88.517634 2997.5713 87.049047 2998.4375 85.8125 C 2999.3036 84.575954 3000 82.708067 3000 81.6875 C 3000 79.713694 2990.1878 68.064078 2988.5 68.03125 C 2987.3486 68.008855 2979.3916 78.03443 2977.8125 81.5 C 2976.99 83.305363 2977.1181 84.330526 2978.375 86.125 C 2979.2658 87.396767 2980 88.791129 2980 89.21875 C 2980 91.026918 2977.2393 89.811529 2975.9688 87.4375 C 2975.2101 86.019915 2973.7656 84.401765 2972.7812 83.875 C 2970.034 82.404674 2970.5811 80.925409 2976 75 C 2978.75 71.992962 2981 68.899684 2981 68.125 C 2981 67.350317 2978.9498 64.315754 2976.4375 61.375 C 2971.1785 55.219314 2967.0761 53.521153 2962.75 55.6875 C 2961.2375 56.444911 2960.0025 57.157874 2960 57.28125 C 2959.9974 57.404626 2958.903 60.177909 2957.5625 63.46875 C 2955.7442 67.932624 2954.9412 69.03139 2954.4375 67.71875 C 2953.5264 65.344465 2957.7474 52.555064 2960.1562 50.375 C 2961.8639 48.829535 2962.4947 48.771196 2965.7812 49.9375 C 2967.8239 50.662334 2971.3 52.470572 2973.5 53.9375 C 2978.5221 57.286168 2980.3781 57.992228 2981.7812 57.125 C 2984.3889 55.51339 2984.5858 51.74915 2982.5 43.15625 L 2980.4062 34.5 L 2976.9375 34.15625 C 2969.4824 33.44731 2967.4936 27.02465 2973.3438 22.5625 C 2975.1831 21.15951 2977.4895 20 2978.4688 20 C 2979.9318 20 2980.1415 20.573485 2979.625 23.15625 C 2978.6812 27.875047 2980.3409 29.303048 2984.6562 27.5 C 2986.5588 26.705046 2989.28 25.13839 2990.6875 24.03125 C 2996.2105 19.686811 2995.448 25.557912 2989.6562 31.96875 C 2986.4154 35.555956 2986.3615 35.679718 2986.2188 46.28125 C 2986.1278 53.036309 2986.4764 57 2987.125 57 C 2987.6903 57 2990.1018 55.65 2992.5 54 C 2994.8982 52.35 2997.2908 51 2997.8125 51 C 2998.3341 51 2999.3017 52.32702 2999.9688 53.9375 C 3001.7257 58.179171 3003.4008 58.351761 3010.1562 55 C 3017.2526 51.47918 3018 51.388542 3018 53.9375 L 3018 47.78125 z "/>
</svg>
