<?xml version="1.0" encoding="UTF-8"?>
<svg xmlns="http://www.w3.org/2000/svg" viewBox="3393.21 15.13 40.43 90.91">
  <path d="M3395.5403 42.06518C3395.2225 41.551029 3396.546 39.922619 3398.4813 38.446491C3400.4166 36.970363 3402.0 35.318289 3402.0 34.775215C3402.0 34.232142 3400.65 32.083295 3399.0 30.0C3396.2222 26.492719 3395.2103 24.0 3396.5644 24.0C3397.8821 24.0 3406.9991 32.619349 3406.9995 33.865523C3407.0001 35.48461 3399.0276 43.0 3397.3095 43.0C3396.6542 43.0 3395.858 42.579331 3395.5403 42.06518Z M3408.0726 98.365141C3406.9327 96.915969 3405.9848 95.228469 3405.9663 94.615141C3405.9478 94.001814 3405.5015 88.775 3404.9746 83.0C3404.2076 74.594112 3404.3282 70.790571 3405.5793 63.928827C3408.2904 49.059531 3406.24 43.211899 3400.4906 49.415666C3398.3259 51.751421 3396.0 52.819419 3396.0 51.477657C3396.0 50.239698 3404.3826 42.0 3405.6421 42.0C3407.8764 42.0 3410.9939 48.134793 3410.9778 52.5C3410.9698 54.7 3410.3336 60.1 3409.5642 64.5C3407.9873 73.517047 3408.2058 88.063616 3409.9998 93.499393C3411.5987 98.343978 3414.6257 97.951441 3417.7065 92.5C3419.5905 89.166326 3419.9698 86.98398 3419.9835 79.399223C3419.9926 74.393796 3419.5871 68.993796 3419.0825 67.399223C3418.5779 65.80465 3417.9035 62.475 3417.5838 60.0C3417.0486 55.857004 3417.1214 55.653998 3418.5012 57.44113C3419.621 58.891394 3420.0356 59.017832 3420.1408 57.94113C3420.437 54.909536 3422.1171 67.942655 3422.6431 77.352024C3423.2329 87.90442 3422.0512 93.122643 3417.8668 98.442248C3415.1428 101.90521 3410.8305 101.87126 3408.0726 98.365141Z M3406.2082 26.712148C3403.8937 24.35383 3402.0 21.87883 3402.0 21.212148C3402.0 19.260615 3404.7593 19.818298 3406.3516 22.091653C3407.1574 23.242062 3408.761 24.844704 3409.9151 25.653079C3411.8539 27.011043 3412.3572 26.841181 3416.5321 23.420154C3419.0174 21.383671 3421.3497 20.016399 3421.7151 20.381772C3422.5076 21.174235 3413.051 31.0 3411.4958 31.0C3410.9021 31.0 3408.5227 29.070467 3406.2082 26.712148Z M3419.1802 54.781385C3419.0664 53.696133 3418.4472 53.274898 3417.5 53.638374C3416.3807 54.067899 3416.0037 53.488922 3416.0147 51.356989C3416.0383 46.797424 3418.2385 43.45595 3421.0084 43.773072C3423.782 44.090623 3427.0 46.7126 3427.0 48.654988C3427.0 50.459643 3424.5475 50.364616 3423.0 48.5C3420.9187 45.992231 3420.1269 46.780445 3419.735 51.75C3419.529 54.3625 3419.2794 55.726623 3419.1802 54.781385Z M3422.7029 39.207837C3420.6663 37.122148 3419.0 34.742732 3419.0 33.920246C3419.0 32.145431 3428.0316 23.0 3429.7843 23.0C3431.6356 23.0 3431.301 23.796108 3427.5 28.434695C3425.575 30.783904 3424.0 33.346929 3424.0 34.130308C3424.0 34.913686 3425.3835 36.768623 3427.0744 38.25239C3430.0163 40.833836 3430.2761 43.0 3427.6439 43.0C3426.963 43.0 3424.7396 41.293527 3422.7029 39.207837Z"/>
</svg>
