<?xml version="1.0" encoding="UTF-8"?>
<svg xmlns="http://www.w3.org/2000/svg" viewBox="1728.99 18.36 55.37 90.09">
  <path d="M1765.1148 101.36786C1762.6741 99.65834 1762.2841 94.621716 1764.1853 89.364072C1765.2428 86.439729 1765.0669 85.485928 1762.5553 80.521731C1759.081 73.654884 1758.212 73.079633 1755.8852 76.10618C1751.4726 81.845742 1750.6967 84.858645 1752.0224 91.105715C1753.1158 96.257926 1753.062 97.256424 1751.5682 99.53633C1749.4558 102.76018 1746.0243 102.5025 1744.4259 99.0C1743.7984 97.625 1742.0287 93.967115 1740.4932 90.871366C1736.9022 83.63131 1737.3785 81.221223 1744.4915 70.641242C1747.5212 66.134899 1749.9893 61.559615 1749.9762 60.473945C1749.9631 59.388275 1748.8941 54.9 1747.6007 50.5C1745.065 41.87423 1745.6266 42.277307 1737.9497 43.572975C1734.811 44.102722 1734.2604 43.866969 1733.1997 41.539035C1731.5057 37.82105 1731.6836 36.645886 1734.3145 34.174314C1737.1061 31.551701 1741.63 31.359247 1744.2885 33.75C1746.1705 35.442352 1746.407 35.310585 1751.4702 29.75C1756.0601 24.709059 1759.9158 22.459781 1760.041 24.75C1760.0636 25.1625 1761.8354 27.438626 1763.9784 29.808057C1767.8565 34.095918 1767.8889 34.10881 1770.8877 32.558057C1775.204 30.326015 1776.7465 30.609088 1778.4743 33.95034C1781.8424 40.463557 1778.5243 45.954857 1772.008 44.651603C1768.2493 43.899865 1766.7994 46.26103 1766.6243 53.419106C1766.498 58.581119 1767.5738 61.324796 1774.4938 73.490159L1777.3324 78.480318L1775.0187 87.490159C1771.4141 101.52727 1769.3905 104.3627 1765.1148 101.36786Z M1741.0657 39.964816C1743.6083 38.604106 1743.5242 36.350926 1740.8782 34.934796C1739.141 34.00508 1738.4088 34.146757 1736.8392 35.716335C1733.3225 39.233104 1736.4878 42.414871 1741.0657 39.964816Z M1769.5793 96.25C1769.9189 94.7375 1771.1543 90.421509 1772.3246 86.658908L1774.4523 79.817816L1771.6038 74.658908C1770.0372 71.821509 1767.2118 66.453054 1765.3252 62.729009L1761.8951 55.958018L1763.5866 49.729009C1766.6921 38.292303 1766.6534 37.915206 1761.8261 32.583295L1757.4784 27.781116L1752.6948 32.895225C1747.2929 38.67031 1747.2409 39.316412 1751.161 51.963712C1753.6992 60.152424 1753.2 62.556294 1747.0 72.0C1740.8282 81.400824 1740.0084 84.798653 1742.9241 88.893381C1744.1061 90.553372 1745.5508 93.281449 1746.1344 94.955773C1746.7181 96.630098 1747.6158 98.0 1748.1292 98.0C1750.0312 98.0 1750.1577 94.880076 1748.4484 90.126696L1746.6897 85.235747L1751.4759 78.036179C1758.498 67.473528 1759.167 67.532559 1765.4455 79.2688L1769.0665 86.0376L1767.5042 90.639447C1765.9758 95.141179 1766.227 99.0 1768.0483 99.0C1768.5508 99.0 1769.2397 97.7625 1769.5793 96.25Z M1775.8 40.8C1777.4496 39.150396 1777.3042 36.497342 1775.4812 34.984433C1774.2384 33.952924 1773.6026 34.049654 1771.9812 35.516975C1768.7901 38.404883 1769.5783 41.62243 1773.55 41.921053C1774.1275 41.964474 1775.14 41.46 1775.8 40.8Z"/>
</svg>
