<?xml version="1.0" encoding="UTF-8"?>
<svg xmlns="http://www.w3.org/2000/svg" viewBox="42.77 14.36 81.6 93.69">
  <path d="M 98.922661,91.418622 C 98.925542,90.266061 104.97874,85.954762 105.64872,86.628093 106.71162,87.69631 102.8614,92.24041 100.89758,92.235502 99.810255,92.232785 98.921545,91.865189 98.922661,91.418622 z M 64.836735,103.51487 C 60.182922,102.1823 58.078608,89.540495 61.406951,82.910207 63.077919,79.581524 63.454247,76.141877 62.147824,76.138612 61.700725,76.137494 60.038166,77.483344 58.453247,79.129388 56.430006,81.230658 54.620827,82.11982 52.379998,82.114219 47.801824,82.102778 46.481122,78.400899 47.315757,67.919338 48.014662,59.14231 50.457205,52.805837 53.344738,52.278884 55.765432,51.837127 59.016082,54.887631 58.346847,56.973009 57.957753,58.185448 58.063721,58.285189 58.743304,57.346175 59.253422,56.641319 60.349565,56.327037 61.179176,56.647769 63.349596,57.486867 64.679229,55.318497 65.261951,49.989568 65.95666,43.636523 65.185764,42.614351 60.785726,44.054312 58.117763,44.927431 56.668948,44.913451 54.667037,43.99527 50.559097,42.111156 51.04396,36.437182 56.025368,28.099751 61.135472,19.546922 62.285433,18.614552 66.293152,19.774798 69.410766,20.677357 70.060284,21.752372 71.511618,28.411864 72.277381,31.925595 73.495441,31.879696 77.733423,28.177412 81.449595,24.930981 83.035018,24.535909 84.885118,26.39528 87.573366,29.096997 85.960977,34.439712 80.827612,39.839986 78.627563,42.154426 77.512505,44.684492 76.614054,49.400548 75.942076,52.927821 75.566056,56.339488 75.778454,56.982028 76.200434,58.258593 84.399093,62.194177 86.648177,62.199798 88.430914,62.204253 95.822296,50.688921 96.59361,46.705405 97.022767,44.488986 96.367129,42.136914 94.124518,37.847661 90.79506,31.479686 90.265343,26.673928 92.560186,23.655582 93.686628,22.174002 94.043433,22.071098 94.076596,23.21824 94.115145,24.551674 94.233912,24.551971 95.145497,23.220912 95.888091,22.136606 95.993657,22.736066 95.52813,25.3937 94.805534,29.518906 95.74203,35.22244 97.142543,35.22594 97.648841,35.227205 98.072885,33.76576 98.084862,31.978285 98.118393,26.974157 99.101762,24.29793 100.68243,24.909027 101.70285,25.303527 101.90836,26.489887 101.44757,29.326055 100.99756,32.095767 101.29201,33.931776 102.47805,35.751821 104.20014,38.394447 103.86232,40.242749 101.65823,40.237241 100.90858,40.235367 100.38082,41.471008 100.3764,43.238369 100.36818,46.529236 99.540565,48.412373 93.678505,58.478581 88.796699,66.861516 87.028595,67.483302 79.270722,63.545338 76.152212,61.962354 73.168657,59.936648 72.640601,59.043768 72.007745,57.973687 72.141017,54.768032 73.031601,49.63879 74.226833,42.754957 74.88386,41.295787 78.72675,36.990616 81.115976,34.31398 83.071817,31.715584 83.073064,31.216403 83.078495,29.043455 80.803058,29.238648 77.911822,31.659147 75.932383,33.316303 73.85737,34.162539 72.253627,33.966683 69.727765,33.658212 69.110984,32.571748 67.638584,25.837258 66.762596,21.830648 63.394227,22.611453 59.89256,27.632824 56.88409,31.946953 54.594635,38.566351 55.564924,40.145121 56.351974,41.425741 60.753473,41.419774 61.550703,40.137007 62.635286,38.391883 65.884558,39.068711 67.490926,41.374362 69.725495,44.581686 69.473094,52.899542 67.019786,56.900727 64.64898,60.767358 60.680319,61.246093 56.751083,58.139428 53.290428,55.403249 52.090434,57.052762 50.793753,66.32837 49.75656,73.747773 50.668565,79.109933 52.968638,79.115681 53.554318,79.117145 55.808492,77.210272 57.977912,74.878187 61.276379,71.332396 62.21271,70.819101 63.695638,71.743743 66.082619,73.232084 66.438493,78.955043 64.496797,84.627566 63.633995,87.148178 62.924322,90.70908 62.919745,92.540681 62.910339,96.304205 66.176703,101.14876 68.727906,101.15513 69.654385,101.15745 72.889328,99.118718 75.916671,96.624607 78.944012,94.130502 82.680632,91.829274 84.22027,91.510765 L 87.019612,90.931662 84.838679,88.598508 82.657746,86.265354 76.74588,89.462863 C 70.900852,92.624221 70.81675,92.637717 69.307057,90.656549 67.002741,87.632597 68.360832,79.935951 72.238114,74.045511 73.985918,71.390216 75.949233,69.014584 76.601036,68.76633 77.252841,68.518076 79.893673,68.954984 82.469553,69.737236 86.520331,70.967389 87.5295,70.965992 89.940401,69.726894 94.016736,67.631834 100.49393,59.48279 104.52432,51.378664 106.60772,47.189479 109.17135,43.602645 110.79812,42.600873 114.38191,40.393955 116.05541,38.321098 116.06101,36.082092 116.06616,34.021093 113.56916,33.637577 112.36211,35.513976 108.95691,40.807479 104.05235,39.532194 104.06778,33.357281 104.08051,28.264908 105.9325,23.24787 107.79785,23.252531 108.83213,23.255116 109.08787,23.806429 108.61058,25.004568 107.30222,28.288968 106.99566,32.748859 107.97669,34.226808 108.81126,35.484107 109.3085,35.374115 111.32926,33.485184 114.49075,30.529967 117.82146,30.627823 119.21968,33.717003 120.66469,36.909593 117.62605,43.019372 113.45963,45.298706 111.55001,46.343398 109.31241,49.308861 107.01661,53.837558 102.68963,62.372921 96.912041,69.978161 92.921663,72.391216 89.615492,74.390517 81.994215,74.818327 80.28501,73.100557 78.182579,70.987591 71.951191,79.969117 71.93829,85.130988 71.932327,87.517296 75.059784,87.925974 76.855273,85.773511 78.990202,83.214121 82.898974,82.966532 86.590228,85.15688 91.065769,87.812615 92.684561,87.747017 97.149986,84.728967 99.741205,82.977638 101.04298,82.585779 101.54676,83.405462 102.41915,84.82496 97.703272,88.780263 93.175122,90.426914 91.38599,91.077528 89.921373,91.922831 89.920417,92.305365 89.919461,92.6879 91.527006,94.420146 93.492738,96.154801 97.386614,99.590941 99.127117,99.571261 104.17572,96.034037 108.75138,92.828171 109.81015,94.539935 105.75477,98.586951 102.73136,101.60411 101.38381,102.23675 97.998525,102.22829 94.696891,102.22004 93.127331,101.51518 89.914462,98.597934 85.172454,94.292245 83.180885,94.456252 76.910006,99.668868 74.5967,101.59178 72.184059,103.16992 71.548579,103.17584 70.9131,103.18176 69.492725,103.36062 68.39219,103.57329 67.291655,103.78597 65.691701,103.75968 64.836735,103.51487 z"/>
</svg>
