<?xml version="1.0" encoding="UTF-8"?>
<svg xmlns="http://www.w3.org/2000/svg" viewBox="3071.57 14.17 129.37 90.94">
  <path d="M 3077.6337,93.899023 C 3078.7316,93.869463 3080.412,94.323408 3082.9127,95.313658 3089.359,97.866398 3093.4732,97.862589 3098.4439,95.338321 3103.7349,92.651422 3106.04,92.822134 3112.2861,96.360303 3119.2852,100.32504 3124.6329,100.26034 3131.2239,96.140375 L 3136.01,93.147971 3141.1003,95.281057 C 3147.5049,97.954672 3147.5656,97.952577 3152.1324,94.798575 L 3155.9178,92.179582 3159.3817,95.247587 C 3161.6119,97.212032 3163.5283,98.113656 3164.7839,97.787418 3165.8555,97.509012 3168.0243,97.972196 3169.5947,98.826309 3173.546,100.97524 3174.3926,100.86859 3177.6278,97.714064 3179.185,96.195644 3181.6971,94.136293 3183.2287,93.160452 3184.7603,92.18461 3185.7435,90.969513 3185.4206,90.445179 3184.7764,89.399184 3181.114,91.159143 3176.7577,94.618928 L 3174.0356,96.770858 3166.7591,93.6968 C 3162.7463,92.003748 3158.6709,90.368991 3157.7024,90.057414 3155.7757,89.4376 3150.9505,91.233655 3150.9484,92.577942 3150.946,94.099178 3145.9375,93.449532 3141.9502,91.407402 3136.9076,88.824769 3136.7048,88.844656 3131.7925,92.391273 3126.5834,96.152052 3121.3205,96.364477 3115.5414,93.021718 3109.023,89.251469 3105.6864,89.012907 3098.7932,91.901371 3091.9114,94.78502 3088.9887,94.558866 3082.2014,90.593772 3079.9977,89.306348 3078.7629,88.005393 3078.3323,86.900124 L 3077.4479,92.804977 3077.6337,93.899023 z M 3182.4925,84.471772 C 3180.769,84.469035 3174.9556,88.075388 3174.9539,89.147307 3174.951,90.928303 3175.6402,90.799701 3179.5801,88.373402 3182.4559,86.602315 3184.0507,84.474246 3182.4925,84.471772 z M 3078.6797,84.619422 C 3079.4008,84.275609 3080.6932,84.796863 3082.8643,86.407319 3084.6683,87.745547 3087.864,88.686343 3091.7664,89.046459 3096.823,89.513061 3098.4482,89.236559 3101.4564,87.468094 3106.1243,84.723973 3108.1224,84.799412 3112.9558,87.861355 3117.477,90.725476 3120.814,91.028185 3124.923,88.91161 3128.2865,87.178984 3130.3804,81.916836 3129.3781,77.73117 3128.3186,73.305641 3124.0694,65.16721 3121.1531,61.99934 L 3118.5014,59.151375 3121.7815,59.844085 C 3128.3648,61.255023 3129.7046,56.067937 3125.7437,44.381607 L 3123.5352,37.878092 3118.2228,37.838406 C 3112.322,37.785351 3111.0616,36.737972 3111.0448,31.79575 3111.0381,29.80421 3111.9209,27.89289 3113.5222,26.393427 3114.8822,25.119765 3115.8255,23.792133 3115.6206,23.459256 3115.4158,23.126378 3116.8458,22.867451 3118.809,22.870568 3123.0032,22.877228 3123.6393,24.083245 3122.0182,28.969422 3120.3737,33.925319 3121.7575,35.065651 3126.5745,32.789162 3128.6313,31.817146 3131.9945,29.279546 3134.0523,27.144779 3137.1253,23.956812 3137.9141,23.580078 3138.4308,24.932979 3139.6285,28.068994 3139.0295,29.287973 3134.9819,32.083761 L 3130.915,34.889807 3131.5553,44.890836 C 3131.9091,50.390523 3132.6383,55.693058 3133.1616,56.674652 3134.0633,58.366051 3134.2424,58.351745 3136.6933,56.43026 3140.7959,53.213647 3145.5464,53.944701 3150.6585,58.608689 3151.9921,59.82536 3153.8525,60.441948 3155.5935,60.241527 3158.537,59.902658 3159.3672,58.617501 3169.0953,39.450441 3175.5957,26.642683 3178.8221,24.281925 3184.457,28.099821 3189.4656,31.49329 3191.7921,40.689059 3188.7117,44.887848 3187.5232,46.507804 3187.291,46.25939 3186.122,42.321232 3184.1456,35.663228 3181.7058,34.820167 3177.2207,39.213344 3175.679,40.723397 3173.8535,43.860113 3173.1783,46.175683 3171.7204,51.175518 3164.8118,63.391231 3162.0219,65.907992 3160.4656,67.31192 3159.1352,67.525326 3155.614,66.991568 3153.1629,66.62003 3150.6221,65.656684 3149.9612,64.857589 3149.3002,64.058494 3147.6773,63.416461 3146.3697,63.414384 3144.2415,63.411005 3143.8036,63.912763 3144.0843,66.035758 3144.1308,66.386841 3143.7239,66.978133 3143.176,67.315568 3141.3421,68.444916 3139.515,79.977877 3140.5243,84.092628 3141.2954,87.23601 3141.9569,87.954685 3144.2678,88.223578 3145.8257,88.404846 3148.5946,87.63407 3150.5519,86.483554 3155.2348,83.730478 3158.3814,83.905705 3162.5509,87.096359 3166.4273,90.062808 3167.8135,89.800121 3175.1796,84.77266 3180.2398,81.31885 3178.9116,79.831242 3173.5575,82.957582 3168.5371,85.88897 3166.2881,86.064627 3163.7436,83.754499 3161.0336,81.294134 3155.3919,81.176285 3150.3066,83.483161 3147.8816,84.583232 3145.4615,85.210865 3144.9294,84.880874 3144.3972,84.550882 3143.9671,80.773287 3143.9739,76.473096 3143.9878,67.754392 3145.19,65.478968 3148.5502,67.824102 3151.6507,69.988038 3156.5136,70.631637 3160.8601,69.468652 3164.5017,68.494255 3165.3276,67.60981 3169.2804,60.607012 3171.6927,56.333334 3174.4659,50.60921 3175.4569,47.866804 3176.448,45.124398 3178.1628,41.773557 3179.25,40.435318 3181.1739,38.067029 3181.262,38.069424 3182.6258,39.940678 3183.3963,40.998059 3184.0271,43.039278 3184.0248,44.474155 3184.016,50.028307 3188.0772,51.047898 3191.022,46.235268 3195.0548,39.644474 3192.7359,30.278176 3185.9295,25.758406 3178.6522,20.925842 3174.4542,24.248917 3164.8405,42.474938 3157.2099,56.941045 3156.3875,57.954523 3153.6003,55.957107 3152.4552,55.136496 3149.5485,53.565969 3147.1371,52.446839 3143.0982,50.572362 3142.5096,50.507942 3139.7005,51.903779 3138.0232,52.737144 3136.3186,53.069396 3135.918,52.647774 3135.2692,51.964819 3134.6034,41.776375 3134.9114,37.114906 3134.9762,36.133958 3136.6157,34.409637 3138.5425,33.276917 3141.574,31.494785 3142.0467,30.681288 3142.0519,27.376232 3142.0642,19.655982 3139.454,18.300302 3134.527,23.426778 3132.9293,25.088932 3130.1736,27.308439 3128.3941,28.354546 L 3125.1723,30.255682 3125.6805,25.068982 C 3126.0762,21.23783 3125.9453,20.273134 3125.1552,21.380644 3124.4296,22.397427 3124.0701,22.4772 3124.061,21.628906 3124.0537,20.941394 3122.9647,20.377164 3121.6255,20.375037 3114.8543,20.364285 3108.0534,26.387623 3108.0439,32.415985 3108.0357,37.556561 3110.7426,40.337206 3115.7812,40.365782 3120.0381,40.389924 3121.0042,40.911736 3122.8377,44.189492 3124.5482,47.247531 3125.606,56.381404 3124.2558,56.379259 3123.6964,56.378371 3121.5858,55.686266 3119.5708,54.840568 3117.5557,53.99487 3115.5048,53.571654 3114.9786,53.895774 3114.4521,54.219895 3114.0096,54.007945 3114.0105,53.425487 3114.0114,52.84245 3112.063,52.359893 3109.6684,52.35609 3106.492,52.351046 3104.1307,53.138487 3100.9137,55.310942 3098.4908,56.947088 3095.8638,58.292918 3095.0965,58.301708 3094.3293,58.310498 3090.6281,56.407527 3086.8532,54.069863 3084.096,52.36238 3082.4355,51.18323 3081.5155,50.248882 L 3081.5058,56.342624 C 3082.2315,55.690991 3083.8499,56.299976 3086.9401,58.382506 3089.3361,59.997206 3092.3545,61.328608 3093.6541,61.330672 3095.834,61.334133 3099.8165,59.668336 3101.0028,58.248587 3103.3637,55.423251 3110.1303,54.546594 3114.4431,56.519927 3118.2138,58.245152 3117.573,59.052067 3112.0007,59.578553 3108.5985,59.900015 3105.1196,61.206509 3101.088,63.686229 3097.8345,65.687273 3095.0244,67.283627 3094.8323,67.2388 3091.0265,66.350377 3082.806,60.803684 3081.5025,58.467622 L 3081.494,63.811365 3081.8364,64.65566 C 3082.3024,64.497897 3082.8859,64.796907 3083.8972,65.690184 3084.7643,66.456025 3087.8383,68.101736 3090.704,69.325997 3095.7075,71.463611 3095.9853,71.488306 3097.7033,69.774612 3104.4098,63.084946 3114.7952,60.221289 3118.2435,64.119722 3120.4586,66.623825 3124.8181,76.110641 3125.5309,79.943814 3125.9972,82.451452 3125.6694,83.674659 3124.0537,85.285225 3121.3871,87.943452 3118.3769,87.910118 3113.96,85.206697 3107.3282,81.14756 3105.1305,80.827804 3102.3066,83.469439 3100.1555,85.481666 3098.7802,85.84221 3092.959,85.829599 3087.2484,85.817228 3085.7055,85.443153 3083.7126,83.564913 3082.3997,82.327503 3080.8406,81.31035 3080.2474,81.309408 3079.8529,81.308781 3079.525,81.121109 3079.2481,80.83907 L 3078.6797,84.619422 z"/>
</svg>
