<?xml version="1.0" encoding="UTF-8"?>
<svg xmlns="http://www.w3.org/2000/svg" viewBox="555.2 14.91 97.94 89.19">
  <path d="M 585.19499,20.570596 C 584.37509,20.608095 583.66583,21.105112 582.3475,22.063484 575.46002,27.070387 574.43661,36.854521 580.42635,40.52749 582.14042,41.578578 584.57307,42.442054 585.82782,42.447245 588.8211,42.45963 589.41007,44.320207 588.55641,51.016591 587.90904,56.094764 587.67822,56.486346 585.70056,55.853219 584.51717,55.474365 582.43374,54.332158 581.05065,53.310341 579.66756,52.288523 576.4933,51.168822 573.99435,50.823948 567.84543,49.975357 563.87321,53.123255 562.22087,60.200804 559.65473,71.19251 567.03281,80.228405 569.91609,69.626315 571.02826,65.536774 574.63685,62.682664 577.36833,63.738671 578.20386,64.06169 580.02,66.030654 581.38863,68.123732 583.32425,71.083904 583.92397,73.485772 584.14293,78.911899 584.41472,85.647464 584.35649,85.949848 581.71592,87.218359 579.51922,88.273632 578.18566,88.278105 574.93445,87.295162 569.64896,85.697183 568.15323,86.952738 570.33095,91.189919 573.80583,97.950934 580.06579,100.05077 587.53536,96.951683 589.738,96.037819 591.73076,95.816075 592.75565,96.339727 593.66724,96.805487 596.60882,97.727803 599.28181,98.387293 601.48858,98.931758 603.01761,99.082758 604.56164,98.96299 L 604.88413,94.963783 C 603.40199,95.294169 601.93797,95.342018 599.69704,94.79457 592.73964,93.094907 592.43935,93.001131 591.79745,92.118569 591.4591,91.653355 589.80594,91.986725 588.10809,92.859351 584.14951,94.89389 579.91538,94.931494 579.92038,92.93264 579.92244,92.107642 580.56355,91.434242 581.33037,91.436159 582.09721,91.438075 584.18064,90.073063 585.96293,88.416477 589.19886,85.408772 589.20787,85.40332 588.51964,78.235334 587.68972,69.591612 585.2143,64.36163 580.65512,61.528128 576.15018,58.728339 574.71391,58.861685 570.65288,62.409384 568.76952,64.054682 566.90146,65.400018 566.48915,65.398987 565.36607,65.396181 566.64434,57.549774 568.04421,55.871594 570.32427,53.138225 576.79603,54.083682 582.13284,57.93806 584.80748,59.86975 587.48479,61.451446 588.06158,61.452887 591.39255,61.461212 594.00617,43.550915 591.17741,40.116857 590.40542,39.179685 588.36767,38.45358 586.49406,38.448898 579.97868,38.432615 578.01429,31.331472 583.11828,26.252923 585.93186,23.453379 586.31458,23.336715 588.37217,24.703549 589.81901,25.664665 590.75784,27.551489 591.07748,30.085326 591.5148,33.551969 591.838,33.923042 594.06864,33.624063 595.44411,33.439706 597.98172,32.433544 599.69925,31.388127 603.76711,28.912137 604.08024,28.97673 604.07213,32.242808 604.06744,34.129599 602.98795,35.931786 600.62027,37.9842 597.19577,40.952697 597.16685,41.062748 596.83904,50.474789 596.54929,58.794063 596.71333,59.995771 598.22076,60.290773 599.16598,60.475751 600.93927,59.684655 602.16262,58.550618 604.92699,55.988096 606.09111,55.987076 611.0065,58.51022 613.15993,59.615605 615.53873,60.521553 616.28274,60.523412 619.30594,60.530968 627.32717,49.501017 626.2859,46.767118 625.92927,45.830769 626.10807,45.490091 626.75683,45.893293 628.00892,46.671456 629.04182,44.402322 629.05065,40.867759 629.05482,39.196937 629.72698,38.18609 631.05822,37.841517 633.53638,37.200076 633.54073,36.852838 631.07087,32.779033 629.86584,30.791442 629.08346,27.736987 629.09024,25.024059 629.10138,20.568485 627.70965,18.968163 626.72205,22.299382 625.30633,27.074607 624.97276,31.35963 625.97909,31.985056 626.57756,32.356998 627.06983,33.191772 627.06823,33.831533 627.06663,34.471294 626.16329,34.081211 625.07034,32.982788 622.95387,30.855709 622.29546,27.341017 623.40526,24.009848 623.92125,22.461015 623.6385,21.931908 622.19198,21.819309 618.11421,21.50189 618.03731,30.15565 622.0627,36.037781 623.7067,38.44009 625.04946,41.338364 625.0466,42.482758 625.03826,45.819915 621.066,53.264531 618.35898,55.028584 616.02118,56.552032 615.63959,56.511908 611.76657,54.480857 609.14315,53.105107 606.65417,52.529029 604.92683,52.870009 601.81164,53.484953 601.02211,52.250974 601.03582,46.766516 601.04244,44.117384 601.93307,42.255912 604.55432,39.369036 608.29684,35.247263 609.15869,30.462158 607.12133,25.062906 605.8092,21.585582 604.13682,21.832103 600.80651,25.984628 597.32397,30.326933 594.63471,30.490964 593.24278,26.465726 592.58494,24.56335 590.92382,22.852891 588.66076,21.766761 586.95233,20.94682 586.01488,20.533096 585.19499,20.570596 z M 591.0453,42.960286 C 591.59445,43.301579 592.04212,44.23274 592.04014,45.025279 592.03816,45.817817 591.58655,46.46165 591.03655,46.460275 590.48656,46.458901 590.03888,45.527738 590.04171,44.395283 590.04454,43.262827 590.49615,42.618994 591.0453,42.960286 z M 605.43178,88.402632 605.65779,85.496937 C 603.97355,85.760565 602.79227,85.113526 601.94397,83.5189 600.54512,80.889357 602.35466,73.77598 605.38403,69.996205 607.612,67.216337 607.77398,67.168203 612.20049,68.419485 616.02217,69.499797 617.15405,69.480095 619.60727,68.219245 623.58446,66.175139 632.1553,56.159293 635.43478,49.727492 637.42345,45.827234 639.05385,44.039502 641.57663,42.99282 646.25695,41.050982 648.68937,37.285412 647.47465,33.788781 646.44004,30.810593 642.85501,29.679893 640.51131,31.615122 639.37876,32.550287 638.73468,32.528825 637.48038,31.482547 636.27476,30.476865 635.98194,28.94962 636.33952,25.323427 636.85613,20.084397 635.54521,19.371295 633.34367,23.659685 631.43713,27.373425 631.82567,31.172651 634.4111,34.193635 636.61886,36.773325 636.94754,36.875196 639.93874,35.644954 641.68817,34.925431 643.44088,34.622042 643.81536,34.99839 645.05985,36.249123 642.39732,39.076654 639.4914,39.581348 637.17115,39.984323 635.84481,41.450701 632.56588,47.282815 628.29701,54.87568 620.31704,63.988364 617.02149,65.025273 615.94498,65.363986 614.16826,65.161112 613.08509,64.577934 610.08184,62.960969 605.49883,63.304685 603.70833,65.273252 600.83797,68.42907 598.01682,75.861394 597.98305,80.383991 597.9419,85.894741 600.02652,88.482873 604.5878,88.494273 604.89706,88.495046 605.14229,88.416374 605.43178,88.402632 z"/>
</svg>
