<?xml version="1.0" encoding="UTF-8"?>
<svg xmlns="http://www.w3.org/2000/svg" viewBox="3773.64 15.03 83.67 91.57">
  <path d="M 3853.5083,55.381027 3847.1904,58.777249 C 3843.3692,60.833337 3839.3187,62.514754 3838.1845,62.512953 3837.0341,62.511126 3835.1915,61.182769 3834.0018,59.506307 3830.7342,54.901939 3828.5317,54.092941 3823.2892,55.551791 3817.6809,57.112414 3817.0543,56.316204 3817.7378,48.605467 3818.2705,42.595218 3820.6087,37.485012 3822.8179,37.48852 3823.5599,37.489698 3825.3025,38.842467 3826.6881,40.494669 3832.0278,46.860943 3835.3905,42.178137 3834.6119,29.475988 3834.1702,22.267895 3831.9281,19.1939 3827.8766,20.246531 3825.0074,20.991957 3818.197,25.596945 3815.1129,28.882524 3813.7772,30.305375 3811.8936,31.471165 3810.9212,31.469621 3809.9488,31.468077 3807.0368,28.98845 3804.43,25.959306 3800.9316,21.894093 3798.9981,20.450674 3797.0637,20.447602 3792.0648,20.439664 3786.596,27.93318 3787.6683,33.338949 3788.4072,37.06459 3795.5377,42.183352 3801.2778,43.110572 3805.8726,43.852798 3806.7492,45.304628 3807.1067,52.49484 3807.37,57.795871 3807.3078,57.963253 3804.9422,57.61641 3803.5978,57.419304 3801.3812,56.687044 3800.0073,55.983571 3795.7092,53.782817 3791.0718,53.133458 3789.3846,54.529201 3785.8826,57.426308 3781.7303,64.939476 3779.6065,72.201196 3777.6397,78.926545 3777.4435,81.096421 3778.1113,88.855093 3778.5335,93.758214 3779.3164,98.201953 3779.8456,98.732859 3782.0686,100.96274 3783.5749,98.390128 3784.859,90.27206 3787.4316,74.009371 3791.2786,65.438472 3795.9611,65.445908 3799.0794,65.45086 3800.7765,67.088707 3804.2608,73.459097 3808.4641,81.143778 3808.4713,81.927115 3804.5204,87.084527 3802.1714,90.150799 3800.9488,92.813747 3800.9455,94.89136 3800.9365,100.55781 3805.092,102.43919 3807.1911,97.713781 3810.1621,91.025518 3815.2556,90.645825 3820.3176,96.734624 3823.2965,100.31774 3824.1493,100.82492 3825.6564,99.899356 3829.5022,97.53743 3828.5202,91.309863 3823.4598,85.9271 3819.2743,81.475015 3819.1498,79.277918 3822.6372,72.582027 3825.5687,66.953627 3827.2635,66.349087 3831.2983,69.533277 3837.8425,74.697817 3838.7653,74.791895 3846.1713,70.806896 3849.6167,68.953029 3852.5135,67.820635 3853.2696,67.943164 L 3853.4898,67.037263 3853.4966,62.787268 C 3852.9553,63.726897 3851.9252,64.564723 3849.961,65.562907 3847.5395,66.793409 3846.1996,68.043952 3846.6122,68.713843 3847.0236,69.381961 3846.8461,69.567547 3846.174,69.150648 3845.5557,68.767209 3843.7547,69.110663 3842.1727,69.925545 3839.4275,71.339627 3839.0534,71.240131 3834.1759,67.944094 3828.7937,64.307102 3825.8968,63.672596 3824.2106,65.740767 3822.3742,67.993072 3818.7387,74.903526 3817.3774,78.729933 3816.1039,82.310032 3816.1586,82.550788 3818.5252,84.106762 3823.0301,87.068686 3827.6442,95.496257 3824.7571,95.491672 3824.0274,95.490514 3822.8957,94.621531 3822.2289,93.550155 3820.7237,91.131405 3814.5296,89.296318 3811.6089,90.408287 3810.4174,90.861867 3808.5914,92.177878 3807.5418,93.339333 3805.188,95.944071 3803.9437,96.056314 3803.9476,93.614875 3803.9492,92.592311 3805.7967,89.643674 3808.0517,87.090134 L 3812.1528,82.440391 3808.3843,74.371897 C 3806.3078,69.928411 3803.49,65.419248 3802.1502,64.361984 3798.5854,61.54865 3793.6182,61.863716 3791.1179,65.031967 3788.1444,68.799794 3785.076,77.555427 3783.8034,86.020378 3783.1907,90.095341 3782.306,93.424259 3781.8228,93.423492 3781.3397,93.422725 3780.9018,92.634529 3780.8568,91.671956 3780.812,90.709384 3780.4776,87.333848 3780.0875,84.170725 3779.6975,81.007602 3779.7177,78.42013 3780.1592,78.420831 3780.6007,78.421533 3780.9738,77.079586 3780.9764,75.422125 3780.979,73.764665 3781.3571,71.627762 3781.8278,70.673471 3782.2982,69.71918 3783.5399,67.131754 3784.5868,64.959095 3785.6337,62.786437 3787.5212,59.784663 3788.7848,58.278253 L 3791.1018,55.531929 3795.6299,57.507872 C 3798.1249,58.582068 3800.9448,59.453814 3801.8768,59.455294 3802.8088,59.456774 3804.5934,60.186497 3805.8742,61.086644 3807.8302,62.461311 3808.3669,62.502178 3809.155,61.341854 3810.2409,59.743477 3809.3851,47.799383 3807.871,43.433543 3806.7956,40.332903 3806.4202,40.173792 3801.5008,40.423423 3794.9306,40.756816 3788.4951,33.152895 3790.8957,27.906567 3792.9981,23.311642 3800.0629,21.003298 3800.0566,24.92111 3800.0537,26.797758 3808.6957,34.466091 3810.8227,34.469468 3811.8322,34.471071 3813.9908,33.061841 3815.6089,31.352065 3818.8764,27.899475 3824.394,24.147478 3827.7471,23.090079 3830.8544,22.110197 3832.3702,25.494134 3832.1379,32.847064 3831.8777,41.07952 3830.9399,42.479622 3828.0971,38.840655 3823.8565,33.41257 3820.3822,33.937787 3817.0319,40.479336 3814.1704,46.066461 3814.2405,60.474928 3817.1252,60.479509 3817.6223,60.480299 3820.1118,59.493666 3822.6599,58.300795 L 3827.2883,56.151892 3831.0944,60.251691 C 3833.1926,62.508249 3835.7856,64.612799 3836.8369,64.948316 3838.0235,65.327034 3841.324,64.239163 3845.5289,62.055865 3849.2543,60.121625 3852.6877,58.535978 3853.1595,58.536728 3853.2942,58.536941 3853.3892,58.781746 3853.5027,58.943523 L 3853.5083,55.381027 z"/>
</svg>
