<?xml version="1.0" encoding="UTF-8"?>
<svg xmlns="http://www.w3.org/2000/svg" viewBox="3400.13 12.47 84.08 96.79">
  <path d="M 3431.8558,101.72134 C 3430.1121,98.450747 3431.3443,91.350812 3434.3333,87.444791 3435.7793,85.555272 3436.9631,83.516444 3436.9641,82.914064 3436.9676,80.671196 3431.0519,70.229955 3427.5856,66.360946 L 3423.9967,62.355242 3420.598,66.142381 C 3418.7286,68.225308 3416.9761,71.147528 3416.7037,72.636206 3416.4311,74.124882 3415.2611,78.716391 3414.1037,82.839558 3412.9463,86.962725 3411.9862,91.937699 3411.9701,93.895054 3411.9358,98.088617 3409.8429,101.3953 3407.737,100.58335 3406.0578,99.935943 3403.9515,90.797606 3403.962,84.205464 3403.9682,80.308737 3405.0784,75.153943 3407.884,65.995393 3409.1234,61.949508 3413.5337,54.162455 3416.3242,51.093044 3419.1056,48.033681 3421.6081,48.258909 3430.6108,52.378825 3434.8476,54.317756 3438.5434,55.675529 3438.8238,55.396097 3439.1041,55.116664 3438.8122,53.739134 3438.175,52.334917 3437.538,50.9307 3437.0184,48.714774 3437.0205,47.410638 3437.0275,42.949629 3436.1276,41.984235 3432.5045,42.566289 3427.5718,43.358704 3424.7303,42.314419 3422.7737,38.990143 3420.4264,35.002004 3420.5991,30.52477 3423.2791,25.88518 3428.2739,17.238328 3435.0504,16.870971 3440.0207,24.977612 L 3443.0628,29.939246 3448.3117,26.03708 C 3458.6818,18.327758 3463.5208,17.13474 3466.9062,21.452765 3469.3184,24.529444 3470.2337,30.049206 3469.2233,35.427026 3468.529,39.123066 3468.2472,39.403318 3465.5031,39.128408 3456.5507,38.231558 3455.8176,38.354002 3453.7532,41.090744 3451.5159,44.056895 3449.7156,52.87972 3451.0579,54.299876 3451.5583,54.82923 3454.4432,54.109658 3458.0299,52.560944 3461.395,51.107866 3464.958,49.920271 3465.9476,49.921842 3471.0465,49.929939 3475.9532,58.283461 3478.9313,72.025789 3480.3247,78.455929 3480.3911,80.665236 3479.367,86.526499 3477.8355,95.291624 3476.3944,98.938493 3474.4635,98.935427 3473.6248,98.934095 3472.9379,99.420505 3472.937,100.01633 3472.936,100.61217 3472.3731,100.9109 3471.6859,100.68018 3470.8244,100.39091 3470.5374,98.424376 3470.7614,94.345369 3471.2467,85.506742 3466.75,70.438642 3462.6017,67.002453 3460.3742,65.157324 3459.2069,66.32213 3455.0598,74.528289 3451.2775,82.012732 3451.2469,83.092108 3454.6884,87.618991 3456.8964,90.523369 3457.4163,92.264623 3457.4239,96.781121 3457.4368,104.49448 3455.3138,104.79381 3448.8456,97.99062 3446.1767,95.183648 3443.1801,92.885742 3442.1864,92.884164 3439.9794,92.88066 3436.9405,97.739134 3436.9349,101.28013 3436.9297,104.56816 3433.531,104.86341 3431.8558,101.72134 z M 3451.47,87.913002 3447.8431,84.186956 3451.7719,75.796274 C 3456.5618,65.56661 3459.8881,62.085848 3463.357,63.673072 3466.35,65.0425 3469.2768,71.079988 3472.0873,81.681632 3473.2907,86.221048 3474.6252,89.935672 3475.0529,89.936351 3476.6126,89.938828 3477.1966,80.549919 3476.0666,73.639167 3475.4289,69.739049 3473.5588,63.711395 3471.9109,60.24438 3468.0541,52.130135 3466.2717,51.59125 3457.3411,55.839699 3453.6991,57.572287 3449.9956,58.851725 3449.1112,58.682895 3444.7784,57.855837 3447.9839,41.792237 3453.3859,37.261434 3456.3587,34.768021 3458.7359,34.522802 3465.0002,36.063317 3468.2586,36.864613 3465.7119,22.769457 3462.3652,21.479067 3460.4962,20.75848 3453.2521,24.794834 3447.1368,29.964212 3444.7072,32.017944 3442.1738,33.487898 3441.5069,33.230775 3440.84,32.973654 3439.5034,31.001866 3438.5367,28.849025 3437.5701,26.696185 3435.9106,24.146211 3434.8489,23.182419 3433.0081,21.511132 3432.7502,21.520916 3429.2733,23.393927 3424.5211,25.953882 3422.5358,31.735852 3424.6636,36.818918 L 3426.0543,40.141066 3432.0735,39.521589 C 3437.8603,38.926041 3438.1301,39.00078 3439.0593,41.456492 3439.5909,42.861401 3440.0237,45.361158 3440.0211,47.011509 3440.0185,48.66186 3440.4949,50.909719 3441.0798,52.006749 3442.3311,54.354049 3441.3533,59.8828 3439.6871,59.880154 3439.052,59.879146 3436.277,58.783406 3433.5203,57.445178 3419.1179,50.453303 3418.0344,50.53945 3413.5589,59.032183 3409.4471,66.834847 3406.9724,76.344953 3406.9771,84.325061 3406.9826,93.463365 3408.2376,95.518789 3409.9236,89.15088 3417.7759,59.495093 3423.191,54.015476 3432.2048,66.604171 3436.1343,72.092095 3442.9139,85.597924 3442.131,86.378347 3441.8523,86.656052 3440.912,86.896274 3440.041,86.912175 3438.0616,86.948318 3435.2657,90.696397 3434.3876,94.491175 L 3433.7211,97.370728 3437.0871,93.619573 C 3438.9384,91.556438 3441.0334,89.872263 3441.7428,89.876961 3443.9199,89.891381 3450.3347,93.603636 3452.4432,96.069248 L 3454.4395,98.403629 3454.7682,95.021338 C 3455.0373,92.251885 3454.4396,90.963924 3451.47,87.913002 z"/>
</svg>
