<?xml version="1.0" encoding="UTF-8"?>
<svg xmlns="http://www.w3.org/2000/svg" viewBox="777.9 15.47 60.67 87.33">
  <path d="M 807.50794,97.10893 C 806.24995,95.711857 805.58285,92.816982 805.20691,87.123476 804.69072,79.306117 804.58316,79.029302 800.90853,76.061144 798.78593,74.346633 796.62003,71.429185 795.95016,69.382307 794.60075,65.258948 795.33367,57.524221 797.5796,52.186507 799.67775,47.199998 799.43486,40.119583 797.02956,36.152103 795.26082,33.234623 794.64535,32.903668 792.03999,33.46908 787.92418,34.362287 783.25185,33.148116 782.04022,30.8705 780.65987,28.275734 784.17053,21.424444 787.3066,20.592805 790.70404,19.691856 790.74604,19.706062 794.51255,23.029803 798.28622,26.359883 799.9082,26.168061 804.71184,21.823583 807.34364,19.443345 808.41623,19.669343 814.343,23.852895 L 819.08391,27.199374 822.84193,24.290279 C 828.14144,20.187927 829.59989,19.872213 832.53414,22.192187 835.57919,24.599772 835.81318,27.94939 833.16371,31.204548 831.5618,33.172651 830.31889,33.560041 825.61453,33.557476 821.72476,33.555354 819.69065,34.014208 819.03784,35.041045 817.51426,37.43756 817.90182,42.522494 819.98019,47.404781 823.16321,54.882026 823.4899,62.585244 820.89752,69.034796 819.54621,72.39667 818.40335,78.099334 817.95306,83.727158 817.2549,92.452661 815.3118,98.020927 812.96714,98.015067 812.47481,98.013837 811.44369,98.252131 810.67577,98.544609 809.90785,98.837088 808.48233,98.191033 807.50794,97.10893 z M 793.14641,28.843482 C 794.0842,27.101693 793.93596,26.371412 792.31368,24.741001 790.71803,23.137358 789.94619,22.967052 788.28323,23.851699 785.6252,25.2657 784.41528,28.906962 786.22115,30.057547 788.64928,31.604599 791.97359,31.021815 793.14641,28.843482 z M 814.35025,83.946458 C 814.59583,78.11878 815.366,74.030223 816.84707,70.691773 819.55749,64.582272 819.62547,57.185934 817.03681,50.048391 814.81155,43.912837 814.39964,39.412169 815.51714,33.444379 816.22269,29.67657 816.04125,29.167325 813.11006,26.688343 809.15341,23.342115 807.66731,23.333 802.89053,26.625663 798.67973,29.528207 798.00218,32.414614 800.59698,36.396449 803.73255,41.208132 804.12036,44.934776 801.99945,49.873638 797.13617,61.198578 797.68945,68.979495 803.75513,74.564344 807.06587,77.612625 807.42435,78.487346 807.99738,84.91572 809.21836,98.612981 813.7614,97.919847 814.35025,83.946458 z M 829.51313,30.080957 C 832.29848,29.029929 832.94846,26.023471 830.78119,24.21563 829.8058,23.401999 828.6627,23.686491 826.29567,25.33198 822.9607,27.650349 822.22875,29.52801 824.32747,30.380966 826.23396,31.155798 826.74267,31.126367 829.51313,30.080957 z"/>
</svg>
