<?xml version="1.0" encoding="UTF-8"?>
<svg xmlns="http://www.w3.org/2000/svg" viewBox="2875.04 16.34 85.91 88.76">
  <path d="M 2902.7865,96.777627 C 2901.5291,94.988128 2899.4772,92.702206 2898.2265,91.6978 2894.853,88.988731 2895.438,86.07644 2900.5189,80.286876 2904.2399,76.04671 2904.8953,74.747858 2904.0825,73.223452 2902.6445,70.526161 2895.233,64.015591 2893.5975,64.012994 2891.8243,64.010179 2891.4531,65.040688 2889.8736,74.350234 2888.2806,83.739581 2886.497,84.389175 2881.9273,77.244479 2879.2716,73.092316 2878.9471,71.82659 2879.3672,67.258421 2880.5544,54.348822 2889.4021,48.38452 2898.3385,54.469667 2903.3371,57.87337 2905.5666,58.134535 2905.2691,55.281517 2905.1401,54.043811 2905.412,53.031741 2905.8733,53.032474 2906.7099,53.033802 2905.6364,43.829605 2904.6046,42.154208 2904.3057,41.668825 2902.0741,41.492473 2899.6454,41.762315 2895.7369,42.196572 2895.0376,41.958929 2893.5585,39.693742 2891.9815,37.278363 2891.9991,36.883509 2893.8721,32.667316 2896.3381,27.116284 2904.7297,21.030618 2909.9068,21.038839 2913.3985,21.044383 2913.5849,21.736284 2911.5667,27.198581 2911.2939,27.936745 2911.4766,29.18076 2911.9727,29.963059 2912.7354,31.165889 2913.3126,31.099592 2915.7129,29.533515 2917.2739,28.514966 2919.373,26.641379 2920.3774,25.369988 2922.4691,22.722359 2926.5542,22.305565 2927.449,24.648486 2928.7458,28.044004 2927.877,30.334665 2923.5396,34.95705 L 2919.032,39.760763 2919.0182,48.407047 C 2919.0107,53.162503 2919.3938,57.053949 2919.8696,57.054704 2920.3455,57.05546 2921.8803,56.157896 2923.2806,55.060118 2926.6664,52.405509 2927.1299,52.487475 2932.0495,56.611069 2934.3749,58.560127 2936.7736,59.990313 2937.38,59.78926 2940.3826,58.793677 2942.8958,50.999265 2947.1125,29.605644 2948.1614,24.28397 2951.0708,20.373072 2953.062,21.60809 2955.0667,22.851457 2957.0494,28.784964 2957.0419,33.518237 2957.0309,40.458942 2952.3956,57.580263 2948.4916,65.100558 2945.9823,69.934211 2941.8779,74.089674 2939.6165,74.086083 2938.4157,74.084176 2935.7143,72.661248 2933.6136,70.924021 2930.5367,68.379557 2929.621,68.037846 2928.9039,69.16654 2927.4336,71.480641 2927.8477,74.338224 2930.3403,79.079316 2934.4379,86.872895 2934.4636,87.690474 2930.7825,93.134458 2928.099,97.103074 2926.9461,98.027393 2924.9398,97.818759 2922.6115,97.57665 2922.4207,97.140405 2922.1559,91.453358 2921.9125,86.225556 2921.4559,84.948325 2918.9797,82.568406 2915.5305,79.253339 2913.8514,79.665064 2911.6066,84.3763 2910.2397,87.244971 2910.1487,88.370821 2911.1119,90.493837 2912.0742,92.614839 2911.9852,93.737143 2910.6305,96.566568 2908.5121,100.99075 2905.7979,101.06378 2902.7865,96.777627 z M 2908.12,89.887061 C 2907.8203,84.82469 2908.0706,84.094633 2911.5156,79.984566 2913.5612,77.544107 2915.5138,75.547811 2915.8549,75.548353 2916.196,75.548894 2918.7691,78.027983 2921.5728,81.057439 2926.1953,86.052147 2926.6264,86.914999 2926.1986,90.314797 2925.6537,94.64591 2926.9772,95.190403 2929.3346,91.604961 2931.6246,88.122191 2931.3754,85.955673 2927.9685,79.724379 2924.802,73.932875 2924.3459,70.866786 2926.0045,66.524922 2927.2908,63.157726 2930.3013,63.687658 2935.023,68.112444 2936.8185,69.79508 2938.9916,71.037369 2939.852,70.873087 2941.9304,70.476238 2946.3289,63.828756 2948.9892,57.06361 2953.9383,44.478656 2955.8941,33.222538 2954.0877,27.719832 2951.9111,21.08943 2950.2459,23.363854 2947.5871,36.598693 2943.3315,57.782399 2941.1346,63.08848 2936.623,63.081316 2935.3807,63.079343 2932.8824,61.520175 2931.0005,59.572383 2929.1378,57.644423 2927.067,56.066132 2926.3988,56.065071 2925.7306,56.06401 2924.0457,57.411336 2922.6548,59.05913 2919.868,62.360377 2917.5363,62.903382 2916.6061,60.467739 2916.2736,59.597226 2916.0088,54.363619 2916.0175,48.837499 L 2916.0335,38.790009 2920.5401,34.606563 C 2923.2199,32.118997 2925.0482,29.539347 2925.0503,28.243008 2925.0549,25.326585 2922.5024,25.445902 2920.5242,28.45458 2918.6619,31.28703 2914.1765,33.343343 2910.8878,32.872404 2908.7629,32.568108 2908.5668,32.092172 2908.7935,27.787079 2908.9309,25.174794 2908.6849,23.036901 2908.2467,23.036205 2906.4545,23.033359 2898.0572,29.077773 2896.4433,31.532273 2895.1162,33.550744 2894.9324,34.79727 2895.6601,36.843732 2896.5344,39.302632 2896.9894,39.491652 2901.3157,39.193344 2907.1478,38.791222 2907.6644,39.801583 2908.1536,52.567102 L 2908.4974,61.536652 2905.9979,61.180508 C 2904.6232,60.98463 2901.5655,59.517272 2899.203,57.919714 2891.8461,52.944948 2886.1578,54.566647 2884.1707,62.205325 2882.3249,69.301181 2882.2789,70.377747 2883.6979,73.279982 2885.4998,76.965559 2886.3892,76.192842 2887.8615,69.6625 2889.4329,62.692678 2891.8667,60.293585 2895.7212,61.914712 2899.3448,63.438718 2908.9801,72.429169 2908.9771,74.283559 2908.9759,75.076484 2906.7211,78.068371 2903.9666,80.932196 2901.212,83.796022 2898.9575,86.609081 2898.9566,87.18344 2898.9542,88.71169 2906.2683,96.014513 2907.4432,95.656896 2908.0057,95.48568 2908.302,92.959746 2908.12,89.887061 z"/>
</svg>
