<?xml version="1.0" encoding="UTF-8"?>
<svg xmlns="http://www.w3.org/2000/svg" viewBox="194.07 15.12 37.68 90.91">
  <path d="M 216.02183,100.61968 C 215.26502,100.13767 213.47114,97.690125 212.03541,95.180686 210.59969,92.671248 207.68372,88.557893 205.55548,86.039896 L 201.68594,81.46172 203.40684,76.989164 C 204.35334,74.529258 205.55151,72.256166 206.06945,71.937848 208.10533,70.686627 211.7697,61.725892 212.37682,56.513991 213.34075,48.239038 210.86016,40.273892 207.88801,42.100523 206.7247,42.815481 200.47362,39.906096 198.14521,37.566014 196.71959,36.133256 196.06597,34.196472 196.07289,31.425418 196.09486,22.634634 206.34141,19.256874 213.58798,25.651592 L 217.15032,28.795176 221.44452,24.141313 C 225.66752,19.564611 225.76808,19.520067 227.51006,21.45463 229.74243,23.933794 228.94243,28.505519 225.35492,33.770528 222.89216,37.38487 222.85619,37.67417 224.06343,44.161241 226.27447,56.042147 225.80213,60.053234 221.04459,69.797773 L 216.77189,78.549201 218.9055,82.186135 C 221.54377,86.683311 222.79687,97.763235 220.92149,100.01148 219.4921,101.72504 218.04035,101.90526 216.02183,100.61968 z M 218.3904,91.289473 C 218.00125,88.40668 216.61884,84.473753 215.31839,82.549633 214.01793,80.625514 212.95497,78.632593 212.95625,78.120919 212.95753,77.609246 214.40817,74.943966 216.17991,72.198075 221.80335,63.482712 222.91899,58.735241 221.48398,49.627274 220.80357,45.308744 219.73634,40.815707 219.11236,39.642747 218.14389,37.822225 218.44867,36.927197 221.19482,33.527425 224.49868,29.437178 224.53969,26.917165 221.25424,29.875557 218.62693,32.241329 216.7249,31.94401 211.69776,28.381717 208.35501,26.013002 206.63038,25.397568 204.68741,25.880066 201.50877,26.669416 198.96158,30.328169 199.67413,33.081077 200.38513,35.827947 205.07884,38.495696 209.21899,38.506043 213.69081,38.517218 215.08557,40.963415 215.74243,49.94713 216.33613,58.066963 214.51106,65.954868 210.73531,71.587823 205.55946,79.309566 205.56416,79.685605 210.92018,86.393611 213.58593,89.732272 216.05457,93.377827 216.40603,94.494843 216.75749,95.61186 217.50695,96.526936 218.07149,96.528347 218.73451,96.530004 218.84743,94.67512 218.3904,91.289473 z"/>
</svg>
