<?xml version="1.0" encoding="UTF-8"?>
<svg xmlns="http://www.w3.org/2000/svg" viewBox="3551.99 13.81 110.3 93.28">
  <path d="M 3605.1422,99.016915 C 3602.3314,93.839446 3598.8885,90.132997 3596.887,90.129819 3594.7835,90.126478 3592.5167,93.197322 3591.5412,97.371339 3590.7449,100.77891 3587.6967,101.0401 3585.4972,97.889236 3582.6466,93.805553 3583.3098,91.195327 3589.3565,82.70218 3590.8321,80.629478 3591.0278,79.543679 3590.2392,77.805445 3588.7139,74.443723 3577.8017,62.099477 3576.3532,62.097176 3573.6536,62.09289 3570.3222,66.969632 3568.7726,73.193971 3566.5543,82.104606 3564.9512,91.140895 3564.9454,94.766854 3564.9398,98.31327 3562.4677,101.0074 3560.7763,99.310541 3557.5709,96.094982 3557.0064,75.360586 3559.8748,66.195913 3562.0242,59.328387 3565.7702,52.514617 3568.9965,49.604158 3571.1819,47.632713 3571.1937,47.633273 3574.8497,49.88269 3581.0981,53.727036 3589.0139,57.229879 3590.0337,56.601821 3590.569,56.272142 3591.0119,52.900167 3591.018,49.108545 L 3591.0289,42.214686 3586.2781,42.734351 C 3582.1487,43.186044 3581.1741,42.916979 3578.827,40.677276 3574.6408,36.682551 3574.294,32.243861 3577.6834,26.040006 3579.2423,23.186432 3581.5297,20.190999 3582.7664,19.383486 3584.8013,18.054796 3585.3497,18.122904 3588.5377,20.100235 3590.4753,21.301959 3592.0599,22.667843 3592.0592,23.135533 3592.0585,23.603223 3593.398,24.943363 3595.036,26.113621 L 3598.0141,28.241365 3605.0683,24.136466 C 3614.2668,18.783821 3617.7353,18.903587 3620.4362,24.667131 3623.1583,30.47547 3623.7643,40.405573 3621.5979,43.700493 3619.1579,47.411559 3615.8071,46.698822 3614.9157,42.279122 3613.9193,37.338682 3610.3987,35.705483 3606.6439,38.441857 3605.3815,39.361962 3604.5612,42.114113 3603.8041,47.970454 3603.2186,52.499596 3602.9984,56.464869 3603.3147,56.782169 3603.631,57.09947 3605.2293,56.408439 3606.8665,55.246545 3612.1903,51.468351 3614.9455,51.571186 3620.2811,55.747253 L 3625.0487,59.478805 3627.6279,57.080745 C 3630.1915,54.697152 3634.0746,47.900616 3635.5208,43.265767 3636.1407,41.279263 3635.7046,40.372766 3633.1055,38.244556 3629.7957,35.534464 3627.6388,29.453624 3628.6489,25.680174 3629.6416,21.971947 3631.3953,19.184527 3632.7345,19.186653 3634.4575,19.189389 3634.4114,19.730584 3632.4311,22.742464 3629.9376,26.534859 3631.1373,32.984623 3634.9765,36.426139 3638.6383,39.70886 3638.7381,41.865718 3635.567,49.191189 3632.6417,55.948847 3627.5444,62.178466 3624.9437,62.174336 3623.8764,62.172641 3621.2622,60.593488 3619.1345,58.665107 3617.0068,56.736726 3614.3425,55.157493 3613.2138,55.155701 3612.0851,55.153908 3609.1318,56.696654 3606.6511,58.584023 3600.3431,63.383216 3599.6675,62.25396 3600.9332,49.026862 3601.973,38.162394 3602.6785,36.770026 3607.7896,35.495225 3611.8827,34.474345 3615.0777,36.007531 3616.6291,39.737008 3617.4314,41.665882 3618.5246,42.975046 3619.0586,42.646262 3621.3359,41.243759 3619.5261,26.208805 3616.7439,23.417777 3614.8801,21.548027 3612.8218,22.217225 3605.0599,27.216453 3601.4929,29.51396 3598.1524,30.982643 3597.1912,30.675944 3596.2728,30.382817 3593.3151,28.111011 3590.6186,25.627488 3587.9222,23.143965 3585.1592,21.111108 3584.4786,21.110028 3582.9704,21.107633 3578.0472,30.668676 3578.0426,33.609076 3578.0407,34.773186 3579.2783,36.916605 3580.7929,38.372232 3583.3716,40.850592 3583.8227,40.949203 3587.8905,39.923548 3593.386,38.537944 3593.9975,39.368538 3594.0041,48.225965 3594.009,55.056847 3592.5202,61.122848 3590.8391,61.120178 3589.3422,61.117801 3578.9401,56.040231 3574.6644,53.224721 L 3570.8213,50.694185 3568.8445,53.138145 C 3563.5213,59.719326 3559.9396,72.115836 3560.063,83.531434 3560.1755,93.943243 3561.7619,99.794206 3562.4472,92.325132 3563.449,81.406976 3568.3131,65.402585 3571.7007,61.877858 3575.743,57.671995 3578.4471,58.240611 3584.391,64.546373 3588.5286,68.935758 3594.971,78.65954 3594.9681,80.510548 3594.9678,80.729692 3593.164,83.084379 3590.9598,85.743186 3587.0789,90.42442 3585.8843,94.338077 3587.946,95.616785 3588.4965,95.958215 3589.3702,95.129371 3589.8876,93.77491 3591.2407,90.233141 3594.9402,87.126723 3597.7998,87.131264 3599.3997,87.133805 3601.5783,88.562558 3604.0078,91.202502 3606.0665,93.439531 3608.0039,94.861649 3608.3133,94.362764 3608.6228,93.86388 3607.5699,90.928571 3605.9736,87.839856 L 3603.0712,82.22401 3605.5715,76.098625 C 3606.9467,72.729664 3609.274,68.101868 3610.7434,65.814635 3612.2127,63.527401 3613.5008,61.514148 3613.6059,61.340739 3613.7109,61.16733 3616.3223,62.455968 3619.4088,64.204379 3623.4197,66.476382 3625.7372,67.204718 3627.5318,66.757318 3631.4038,65.79202 3637.263,59.083338 3640.8252,51.536511 3646.2282,40.089469 3646.47,39.750811 3650.0684,38.589546 3652.9212,37.668951 3653.593,36.915996 3653.8549,34.345554 3654.2396,30.568495 3653.7101,30.484761 3649.8601,33.713866 3646.5549,36.486125 3645.018,36.786543 3643.2441,35.007109 3642.3173,34.077298 3641.7122,34.244308 3640.5423,35.75282 3639.0645,37.658438 3638.9935,37.647663 3636.9362,35.205115 3634.4544,32.258504 3634.7278,25.864183 3637.5171,21.621915 3639.6843,18.325794 3640.3924,18.963721 3638.9947,22.952995 3638.4013,24.646447 3638.0572,27.49672 3638.2301,29.286935 3638.6152,33.275344 3641.0412,34.536228 3641.0472,30.751083 3641.0522,27.559026 3643.4017,21.729411 3645.1062,20.679753 3646.0471,20.100269 3646.1796,20.624312 3645.6442,22.808533 3643.8521,30.120006 3643.8191,31.179792 3645.3652,31.775867 3646.2133,32.102914 3648.3086,31.337999 3650.0212,30.076056 3653.8389,27.262828 3656.3954,28.36797 3656.8535,33.029613 3657.277,37.339525 3655.5546,40.032467 3651.7578,40.996317 3648.3633,41.858045 3647.5344,43.09542 3642.7273,54.475323 3641.387,57.648215 3639.098,61.57819 3637.6406,63.208598 3634.2864,66.961142 3634.3188,67.63414 3637.9843,70.353175 3639.6323,71.575692 3640.9795,73.391305 3640.9779,74.387871 3640.9745,76.493372 3639.4336,76.78288 3638.2768,74.895345 3636.918,72.678317 3631.0566,69.022654 3629.9516,69.703123 3629.375,70.05822 3627.7611,72.15163 3626.3652,74.355148 3623.4225,79.000326 3622.0414,78.867464 3624.4782,74.173612 3625.3871,72.42283 3625.9853,70.865413 3625.8074,70.712686 3624.1938,69.326659 3614.4067,65.401369 3613.6802,65.848802 3612.3552,66.66477 3606.9689,78.738605 3606.9773,80.873873 3606.9811,81.848456 3608.1336,85.122671 3609.5384,88.149906 3612.1332,93.741833 3612.2218,97.905387 3609.8075,100.80504 3608.0978,102.85839 3606.999,102.43723 3605.1422,99.016915 z M 3628.2569,79.92962 C 3630.6706,77.046605 3632.4886,75.764573 3633.925,75.932545 3636.24,76.203272 3641.9688,80.090664 3641.9668,81.38945 3641.9643,82.923016 3638.8814,82.194206 3635.8459,79.942451 L 3632.8071,77.688401 3629.8989,80.933008 C 3625.58,85.751177 3624.1265,84.862961 3628.2569,79.92962 z"/>
</svg>
