<?xml version="1.0" encoding="UTF-8"?>
<svg xmlns="http://www.w3.org/2000/svg" viewBox="3488.56 13.81 62.28 93.43">
  <path d="M 3501.9745,100.58003 C 3501.4749,99.259736 3500.0318,97.45255 3498.7676,96.56406 3495.935,94.573361 3496.9992,92.221377 3501.747,89.97874 3503.4878,89.156504 3504.9228,87.873741 3504.9359,87.128157 3504.949,86.382572 3506.0868,84.43735 3507.4643,82.805441 3508.8419,81.173532 3509.9697,79.425511 3509.9705,78.92095 3509.9713,78.41639 3506.1509,75.504379 3501.4808,72.449817 3496.8106,69.395254 3492.99,66.613428 3492.9906,66.267984 3492.9932,64.634924 3499.3766,55.974933 3500.5763,55.976839 3501.3249,55.978027 3503.4135,57.265352 3505.2176,58.837562 3508.8858,62.034192 3512.2531,63.995391 3514.0783,63.998289 3515.8231,64.00106 3514.6638,43.459443 3512.6453,38.606813 3511.1142,34.925965 3511.0924,34.915242 3508.1888,36.410929 3505.3871,37.854118 3499.6706,43.322206 3496.6663,47.432872 3495.4476,49.100378 3494.9941,49.193304 3493.6277,48.055602 3491.39,46.192381 3491.6451,42.325662 3494.3925,36.466994 3497.3357,30.19084 3501.0751,25.747761 3506.6063,21.955213 3512.298,18.052524 3515.6558,18.186344 3522.1548,22.574867 L 3527.4449,26.147077 3531.1477,24.484447 C 3534.3487,23.047118 3535.2321,23.005997 3537.667,24.180994 3541.7614,26.156814 3543.0315,31.256199 3540.3216,34.83888 3538.2582,37.566764 3535.9102,38.00581 3531.3198,36.522099 L 3529.1028,35.805532 3529.2406,48.972831 C 3529.3164,56.214846 3529.7024,62.341089 3530.0984,62.586706 3530.4944,62.832322 3532.6058,61.009223 3534.7903,58.535377 3536.9749,56.06153 3539.4102,54.038502 3540.2022,54.03976 3541.5776,54.041944 3548.0103,60.534983 3547.9879,61.89852 3547.982,62.257999 3545.0517,65.591483 3541.4761,69.306261 3537.9005,73.021041 3534.9745,76.448799 3534.9737,76.9235 3534.973,77.398203 3535.7233,78.40539 3536.641,79.161692 3538.7247,80.878927 3543.9545,89.043008 3543.9521,90.574932 3543.9511,91.200616 3542.4453,93.447983 3540.6058,95.56908 L 3537.2614,99.425623 3529.1069,90.967425 3520.9525,82.509228 3518.7045,85.140693 C 3512.356,92.571962 3508.9411,97.450753 3508.9385,99.092903 3508.9357,100.8568 3506.2177,102.98586 3503.9733,102.98229 3503.3735,102.98134 3502.474,101.90032 3501.9745,100.58003 z M 3513.0129,88.496628 C 3516.957,83.827885 3520.875,80.009102 3521.7193,80.010443 3522.5636,80.011784 3526.2709,83.167675 3529.9577,87.023534 3533.6445,90.879393 3537.1202,94.034916 3537.6814,94.035808 3538.2426,94.036699 3539.2174,93.417982 3539.8478,92.660883 3541.5037,90.672093 3539.8192,86.929008 3534.8198,81.487951 L 3530.625,76.922641 3537.903,69.618979 C 3544.6258,62.872405 3545.0806,62.153872 3543.8639,60.198713 3541.6765,56.68383 3540.1348,56.889977 3536.2257,61.220082 3529.4558,68.718857 3529.5406,68.661953 3527.2793,67.219742 3526.4079,66.664017 3526.086,61.606462 3526.1258,49.094697 L 3526.1809,31.740461 3522.3694,27.790485 C 3517.0442,22.27169 3513.6644,20.611688 3510.8017,22.108932 3506.1808,24.525726 3499.4832,30.914959 3497.6799,34.626554 3496.6532,36.740039 3495.3964,39.274397 3494.8872,40.258462 3493.1298,43.654495 3495.176,44.212211 3498.3931,41.214044 3512.2591,28.291554 3516.1108,30.237368 3517.6028,50.918299 3518.3233,60.906874 3518.2686,59.418419 3518.1114,64.754695 3518.0426,67.092088 3517.5675,69.003836 3517.0556,69.003023 3515.7739,69.000988 3509.5359,65.062559 3505.5436,61.734734 3503.7256,60.219345 3501.9197,58.978975 3501.5305,58.978357 3500.5351,58.976777 3497.0688,63.251932 3497.0266,64.533155 3496.9878,65.713608 3500.8966,68.825154 3505.4827,71.264266 3507.1313,72.141098 3509.7199,74.036913 3511.235,75.477188 3514.558,78.635812 3514.1112,79.853019 3506.802,87.55697 3504.1326,90.370407 3501.9481,93.029221 3501.9474,93.465444 3501.9464,94.100791 3504.8295,96.822565 3505.6418,96.953131 3505.7517,96.970796 3509.0687,93.165371 3513.0129,88.496628 z M 3538.5013,33.169115 C 3539.3839,30.403431 3537.4049,26.035283 3535.2678,26.031889 3534.2579,26.030286 3532.3793,27.006292 3531.0931,28.200792 L 3528.7544,30.37261 3531.4531,32.701369 C 3534.7094,35.511295 3537.6907,35.709146 3538.5013,33.169115 z"/>
</svg>
