<?xml version="1.0" encoding="UTF-8"?>
<svg xmlns="http://www.w3.org/2000/svg" viewBox="2278.4 19.06 58.27 88.54">
  <path d="M 2333.4496,91.18604 2333.4505,90.62354 2331.6437,86.995667 C 2331.294,88.01084 2328.4579,90.383121 2325.0726,92.422739 2319.7809,95.610934 2317.8197,96.254976 2313.3165,96.247826 2310.3417,96.243102 2306.3485,95.709599 2304.4433,95.077484 2300.6022,93.802995 2297.6523,94.393659 2294.065,97.186006 2291.4792,99.198783 2286.936,99.715239 2286.9387,97.987191 2286.9396,97.400495 2288.0035,95.489682 2289.2892,93.740918 2294.04,87.278813 2295.2671,76.021278 2292.9675,60.215467 2292.2973,55.610328 2291.9726,47.377216 2292.2466,41.870549 2292.7019,32.717475 2292.9807,31.685005 2295.4229,29.250577 2297.4976,27.182443 2298.4281,26.82298 2299.7066,27.632377 2302.7494,29.558356 2303.7022,35.909063 2303.232,51.106755 2302.3378,80.002837 2302.6482,84.159022 2306.0164,88.454973 2307.1242,89.86801 2309.5279,91.305188 2311.355,91.650955 2315.1346,92.366197 2322.9917,90.096579 2327.1749,87.08232 2329.8766,85.135533 2331.411,84.77194 2331.708,85.870767 L 2334.0309,79.343198 C 2332.1865,80.869089 2329.8842,82.419668 2326.4607,84.143683 2317.0096,88.903133 2311.9062,89.48885 2308.6449,86.209145 2306.5071,84.059336 2306.4825,83.512889 2306.8079,62.299947 2307.2133,35.865017 2306.7405,31.064374 2303.3951,27.075734 2300.0499,23.087291 2296.9994,23.222556 2293.2068,27.528306 2289.457,31.785486 2288.6307,36.702008 2289.4536,49.241123 2291.6965,83.418748 2291.2194,88.687428 2285.4139,93.953515 2281.2357,97.74347 2281.0537,99.507108 2284.6831,101.48361 2288.5339,103.58062 2289.7443,103.43007 2295.404,100.18814 2300.1389,97.47597 2300.5887,97.392809 2304.2814,98.702231 2312.0232,101.44759 2318.5361,100.24885 2327.8507,94.364653 L 2333.2624,90.966992 2333.4496,91.18604 z"/>
</svg>
