<?xml version="1.0" encoding="UTF-8"?>
<svg xmlns="http://www.w3.org/2000/svg" viewBox="3899.67 14.64 56.4 91.66">
  <path d="M 3902.5017,79.271357 3902.6806,84.709148 C 3903.1241,83.924202 3904.7723,84.081971 3907.6485,85.217037 3911.1622,86.603707 3912.1389,86.641509 3914.5231,85.477954 3921.2107,82.214319 3924.5796,71.555766 3923.4743,57.242133 3922.7433,47.778602 3920.6136,37.848797 3918.9764,36.203714 3917.2335,34.452437 3918.0278,31.060196 3921.1476,26.832149 3922.8487,24.526496 3924.6015,22.650129 3925.0604,22.650858 3925.5194,22.651586 3927.7201,25.194204 3929.9264,28.314842 3934.1359,34.26856 3934.3196,35.912991 3931.809,43.1616 3931.238,44.810695 3930.4248,52.009413 3930.0024,59.158751 3929.0673,74.98772 3926.8846,84.681601 3922.6381,91.772098 3920.6638,95.068761 3918.6684,97.225733 3917.4418,97.357604 3913.657,97.764475 3908.2339,94.577317 3904.9534,89.994014 3902.9878,87.247653 3902.2371,85.494093 3902.6806,84.709148 L 3902.9493,92.615834 3903.416,93.929077 C 3903.4933,93.846738 3903.5345,93.616765 3903.6352,93.616925 3904.0075,93.617516 3906.5925,95.161638 3909.3797,97.063551 3914.7686,100.7407 3918.7723,102.13492 3920.4361,100.89361 3922.151,99.614361 3928.9347,84.866848 3930.565,78.847169 3931.4118,75.720129 3932.3449,67.762482 3932.6555,61.162967 3933.0122,53.585305 3933.9518,46.677755 3935.2165,42.41701 3936.3181,38.706255 3937.3809,35.670438 3937.5709,35.67074 3937.761,35.671042 3939.5757,36.666693 3941.5988,37.864639 3944.6708,39.683797 3945.7601,39.838903 3948.1596,38.937559 3950.0913,38.211904 3951.0264,38.191459 3951.5029,39.224118 L 3951.5342,39.192918 3953.5058,37.414796 C 3952.7273,31.539862 3950.7874,26.905684 3948.3992,25.812923 3945.3057,24.397495 3944.7599,24.395937 3945.6492,25.839806 3946.0923,26.559336 3945.9354,26.725855 3945.2109,26.27661 3944.5712,25.879768 3942.0091,26.561201 3939.521,27.798827 3935.0443,30.025714 3934.9785,30.026202 3933.1143,28.101154 3932.0781,27.031279 3930.3624,24.584279 3929.3104,22.657606 3928.2583,20.730933 3926.7504,19.060325 3925.9725,18.933551 3925.1947,18.806779 3923.1863,20.603592 3921.4975,22.92645 3919.8086,25.249309 3917.3273,28.649888 3915.9855,30.480207 3913.7443,33.537175 3913.6941,33.884806 3915.2283,35.01026 3919.8961,38.434909 3923.2274,63.18987 3920.479,73.924897 3918.9885,79.746226 3915.5616,83.635851 3911.9323,83.630088 3908.848,83.62519 3903.0695,80.936998 3902.5017,79.271357 z M 3945.1769,27.995308 C 3946.0015,28.005683 3946.8182,28.163682 3947.5511,28.499079 3950.4853,29.841627 3951.0979,35.081239 3948.4453,36.094259 3944.1795,37.723463 3938.1207,34.541799 3939.3591,31.329824 3940.1419,29.299503 3942.7032,27.964184 3945.1769,27.995308 z"/>
</svg>
