<?xml version="1.0" encoding="UTF-8"?>
<svg xmlns="http://www.w3.org/2000/svg" viewBox="531.68 16.38 27.61 88.4">
  <path d="M 534.36044,91.168882 C 534.76321,87.127316 535.58006,81.571792 536.17567,78.823272 536.88435,75.552989 537.0709,64.766267 536.71544,47.610903 536.34542,29.752364 536.50743,21.189863 537.22367,20.74967 537.80194,20.394275 539.7166,21.507694 541.47848,23.223932 545.35343,26.998505 547.96666,27.171494 551.09291,23.860381 552.38809,22.488613 554.06473,21.3678 554.81878,21.369684 556.32313,21.373444 556.02581,24.310575 553.50174,34.380236 550.41708,46.686331 551.04115,79.622541 554.56805,90.656462 557.28666,99.161655 554.63598,100.75493 548.41673,94.353913 546.27399,92.148551 544.01256,90.342894 543.39133,90.341341 542.7701,90.339789 541.16958,92.017161 539.83461,94.068836 538.49964,96.12051 536.55706,97.960709 535.51776,98.158168 533.75296,98.493466 533.6765,98.031771 534.36044,91.168882 z M 549.30151,80.106079 C 547.99408,68.656014 547.63365,41.984798 548.79585,42.687735 549.20773,42.936854 549.63259,40.307256 549.73999,36.844183 L 549.93526,30.547687 545.49719,30.183549 C 542.18154,29.911504 540.95093,30.200515 540.63136,31.326303 540.39609,32.155094 540.2129,40.933244 540.22427,50.833303 540.23563,60.733362 539.90037,73.445064 539.47922,79.081529 539.05808,84.717994 538.99316,89.330346 539.33495,89.331201 539.67674,89.332055 540.85724,88.773287 541.95828,88.089494 543.60703,87.065552 544.44238,87.139715 546.69368,88.509903 548.19711,89.424921 549.66232,90.215303 549.94971,90.266305 550.23711,90.317307 549.94542,85.745206 549.30151,80.106079 z"/>
</svg>
