<?xml version="1.0" encoding="UTF-8"?>
<svg xmlns="http://www.w3.org/2000/svg" viewBox="1517.46 14.63 29.73 84.87">
  <path d="M 1544.5625 90.15625 L 1544.5 89.5 L 1544.75 84.25 C 1544.4012 86.506404 1543.2686 88.612324 1542.4688 87.8125 C 1542.1153 87.458907 1539.6005 88.486728 1536.875 90.09375 C 1531.0669 93.518315 1530.7895 93.543519 1528.8125 91.25 C 1525.6912 87.62907 1524.5137 77.280973 1524.5625 54 C 1524.6081 32.214652 1525.7315 22 1528.125 22 C 1528.6035 22 1529.0308 34.0375 1529.0625 48.75 C 1529.0942 63.4625 1529.4317 77.266104 1529.8125 79.40625 C 1530.8116 85.021074 1532.698 85.817887 1538.8125 83.1875 C 1543.3485 81.236206 1544.5292 80.731696 1544.8438 81.65625 L 1545 78.5 L 1545.1875 78.25 C 1544.2955 78.420173 1542.4735 79.046735 1540.5 80 C 1534.8105 82.748201 1533.3581 82.540715 1532.625 78.875 C 1532.2813 77.15625 1532 63.705017 1532 48.96875 C 1532 34.232484 1531.7401 21.463734 1531.4062 20.59375 C 1530.6826 18.707994 1527.4431 18.485447 1526.3125 20.25 C 1519.4613 30.942698 1519.626 85.401011 1526.5312 93.03125 C 1528.8883 95.635723 1531.5673 95.512803 1537.8125 92.5 C 1541.8268 90.563433 1543.7828 89.861884 1544.5625 90.15625 z "/>
</svg>
