<?xml version="1.0" encoding="UTF-8"?>
<svg xmlns="http://www.w3.org/2000/svg" viewBox="3633.18 17 73.66 90.26">
  <path d="M3660.2566 100.75C3659.1806 99.388962 3658.1211 95.4829 3657.3408 90.0C3656.9619 87.337392 3657.4597 85.592169 3659.4214 82.705591C3660.8396 80.618666 3662.0 78.550303 3662.0 78.109229C3662.0 76.406245 3658.8598 71.132501 3656.3532 68.625958C3653.2956 65.568335 3651.493 65.297704 3650.5187 67.75C3647.4264 75.533153 3645.1038 82.833591 3645.1895 84.500745C3645.3496 87.617136 3643.0983 98.301654 3642.0635 99.336488C3640.1833 101.21665 3638.1263 99.036143 3637.32 94.308249C3636.869 91.663712 3636.526 84.775 3636.5578 79.0C3636.6246 66.853159 3639.072 58.563536 3644.4168 52.380543C3647.0656 49.316356 3647.8992 48.888134 3649.5401 49.748559C3661.1733 55.848208 3662.0039 56.15339 3662.6179 54.553477C3663.5374 52.157074 3662.0413 44.0 3660.6821 44.0C3660.0247 44.0 3658.0425 44.414226 3656.2772 44.920502C3652.0282 46.139092 3648.4564 43.408651 3646.9419 37.78424C3645.6766 33.085311 3646.5068 30.804724 3651.0765 26.426714C3655.4474 22.239167 3658.6411 22.83085 3663.9804 28.817332L3668.5 33.884664L3672.5 30.440776C3680.9824 23.137638 3688.7106 21.102465 3691.5433 25.425799C3694.8771 30.513698 3693.7691 46.0 3690.0714 46.0C3689.5045 46.0 3688.1224 44.2 3687.0 42.0C3685.8776 39.8 3684.7647 38.0 3684.5267 38.0C3682.3876 38.0 3678.6326 40.964874 3677.6361 43.440706C3676.2788 46.812752 3676.6462 57.0 3678.125 57.0C3678.6376 57.0 3681.7732 55.628881 3685.093 53.953069C3691.6034 50.666608 3693.8523 50.722251 3697.7248 54.265607C3701.8053 57.999266 3703.2031 63.808707 3703.3573 77.675329C3703.4903 89.626775 3703.3252 90.840447 3700.9335 95.5C3699.3171 98.64905 3697.6159 100.61079 3696.3381 100.79929C3694.4112 101.08353 3694.2745 100.40798 3693.62 87.365248C3693.1092 77.186882 3692.4366 72.514698 3691.0216 69.315957C3689.9716 66.94218 3688.7285 65.0 3688.2592 65.0C3687.79 65.0 3685.7011 68.358249 3683.6172 72.462777L3679.8284 79.925553L3681.9142 85.500289C3684.4747 92.343873 3684.5333 96.748492 3682.1057 99.906091C3679.6092 103.15339 3677.7206 102.14341 3676.2905 96.796167C3672.9643 84.359995 3667.6526 85.991896 3663.4212 100.75C3663.2241 101.4375 3662.6537 102.0 3662.1538 102.0C3661.6539 102.0 3660.8002 101.4375 3660.2566 100.75Z M3680.7015 91.396811C3680.3834 88.315057 3679.4205 85.017124 3678.5616 84.06807C3676.3707 81.647153 3676.514 80.922123 3680.9135 72.172033C3685.7765 62.500059 3687.2915 61.048823 3689.9828 63.484452C3693.1456 66.346694 3694.9098 72.798659 3695.7295 84.5C3696.538 96.043074 3697.6703 98.01997 3699.6731 91.385808C3702.0786 83.418167 3700.7394 64.973865 3697.2699 58.288397C3694.5532 53.053461 3692.332 52.637471 3685.4991 56.084026C3679.5568 59.081374 3676.543 59.687687 3675.5526 58.08507C3675.2416 57.581859 3674.7087 54.506106 3674.3683 51.250063C3673.616 44.051759 3675.7362 38.704873 3680.2735 36.35859C3683.825 34.522032 3687.4394 35.65847 3688.4807 38.939042C3688.8404 40.072569 3689.5545 41.0 3690.0674 41.0C3691.3138 41.0 3691.2436 34.417247 3689.9474 29.75C3689.101 26.702034 3688.4408 26.0 3686.4209 26.0C3682.4598 26.0 3677.8126 28.467269 3673.5 32.859932C3671.3 35.100786 3668.7757 36.949014 3667.8905 36.967106C3667.0053 36.985198 3664.5222 34.6421 3662.3725 31.760223C3657.859 25.70945 3655.7652 24.932508 3652.4261 28.069427C3649.0859 31.207391 3648.343 36.079174 3650.6175 39.92965C3652.6246 43.327454 3653.7434 43.538934 3659.2735 41.56585C3662.7074 40.340698 3663.1358 40.385184 3664.0321 42.05997C3664.5738 43.072237 3665.3034 47.28699 3665.6532 51.426088C3666.5419 61.938461 3666.5774 61.93451 3650.2806 53.136856C3647.9415 51.874097 3647.5852 51.984559 3645.4419 54.636856C3642.0509 58.83317 3638.9542 68.07781 3638.3642 75.765896C3637.7787 83.396445 3639.0308 93.604762 3640.5138 93.292028C3641.0562 93.177644 3641.9971 89.802644 3642.6048 85.792028C3644.2298 75.065893 3649.3981 63.0 3652.3675 63.0C3654.2945 63.0 3658.2482 66.827476 3661.8504 72.180175C3665.6484 77.823826 3665.6856 78.39652 3662.5 82.182369C3660.094 85.041749 3659.0001 91.666742 3660.6599 93.326547C3661.0228 93.689482 3662.8579 92.189482 3664.7378 89.993214C3666.843 87.533709 3669.0192 86.0 3670.4036 86.0C3673.1483 86.0 3676.5736 89.478313 3678.0777 93.793019C3679.8986 99.01656 3681.351 97.690143 3680.7015 91.396811Z"/>
</svg>
