<?xml version="1.0" encoding="UTF-8"?>
<svg xmlns="http://www.w3.org/2000/svg" viewBox="227.08 16.41 127.02 90.58">
  <path d="M279.66667 101.33333C278.09746 99.764125 279.1433 92.291469 281.51205 88.147926C282.88042 85.754286 284.0 83.153953 284.0 82.36941C284.0 80.420959 278.49459 69.655362 276.76345 68.218645C274.92075 66.689339 271.5906 68.957228 269.36815 73.254969C266.92822 77.973282 264.00198 88.975943 263.98469 93.496818C263.95352 101.64461 260.26726 102.16744 257.62044 94.399465C253.89944 83.478929 257.77237 65.913808 265.68878 57.80667C269.72942 53.66868 270.15138 53.644375 277.79953 57.109074C280.16427 58.180329 282.52677 58.79247 283.04953 58.469388C284.12819 57.802743 284.34506 52.678397 283.33728 51.670609C282.97278 51.306111 282.52577 49.648811 282.34392 47.987721C281.44693 39.794235 276.97114 35.037475 271.46009 36.420662C268.48495 37.167372 259.46599 45.816456 256.77865 50.5C255.8319 52.15 254.64251 54.175 254.13554 55.0C253.18225 56.551335 248.76562 66.859105 246.42298 73.0C245.65382 75.016213 245.06918 80.646712 245.04389 86.281385C244.99539 97.089549 244.09669 98.603823 239.51309 95.600534C235.5775 93.021836 233.9308 88.704238 233.83784 80.720204C233.75145 73.300884 235.07826 68.009032 239.10073 59.729577L241.34055 55.119347L237.67027 51.056793C233.57567 46.524557 232.85326 42.08222 235.57817 38.191858C236.89624 36.310052 237.7615 36.038629 240.82817 36.545001C242.84768 36.878465 245.72678 37.617409 247.22617 38.187101C249.76439 39.15149 250.36837 38.800367 255.98661 33.094227C259.66074 29.362603 264.0734 26.057824 267.26869 24.644716C272.17682 22.474107 273.89022 22.313643 282.49487 23.218738C284.24761 23.403102 287.02119 26.005935 290.59283 30.818176C291.51619 32.062261 292.63666 31.61993 297.81822 27.965796C308.37035 20.524229 316.00625 21.469038 326.3815 31.5L330.51879 35.5L335.11308 33.068074C339.23022 30.888722 340.03068 30.770069 342.82043 31.92562C344.53261 32.63483 346.15956 33.954197 346.43587 34.857546C347.4818 38.277032 345.17181 44.200618 341.47021 47.591151C337.21298 51.490626 337.25253 52.498741 342.05366 62.463747C347.2337 73.215171 348.32823 84.474939 344.92305 91.982017C342.24214 97.892387 340.21951 100.0 337.22838 100.0C335.13155 100.0 334.87211 99.666552 335.47779 97.75C335.86887 96.5125 336.65758 92.606832 337.23049 89.070738C338.45482 81.513877 338.04421 80.005562 330.89247 65.788895C326.82509 57.703527 326.04851 55.290529 326.25363 51.375194C326.48729 46.915146 326.28187 46.504398 322.2709 43.411536C319.64907 41.389833 315.92141 39.710282 312.46251 38.992218C307.06972 37.872679 306.8042 37.91923 304.51919 40.384792C301.98937 43.114514 299.50073 52.53535 300.572 55.327031C301.27784 57.166431 303.2191 57.466778 305.81574 56.138332C310.83226 53.571877 312.88409 53.872474 316.49735 57.703209C321.84222 63.369773 324.25869 70.737635 324.31582 81.541816C324.3527 88.516183 323.92192 91.488687 322.43182 94.541816C319.60291 100.33808 317.64552 99.748016 317.31723 93.0C316.73253 80.981445 312.74777 69.689497 308.63013 68.382607C305.90682 67.518262 302.45549 71.932832 300.95076 78.205235C299.71061 83.374771 298.34285 85.05704 297.39283 82.581308C295.85867 78.583354 303.26123 65.0 306.97417 65.0C311.08303 65.0 314.887 69.840298 317.49323 78.384803C318.87195 82.904925 320.03163 87.704986 320.07029 89.051604C320.13523 91.314062 320.20584 91.348114 321.0 89.5C322.46273 86.096045 322.08418 74.942832 320.31547 69.331854C318.27386 62.855111 312.85688 56.455706 310.26268 57.455878C305.76266 59.190821 300.15541 60.273615 298.6542 59.697547C297.35662 59.199619 297.00211 57.708583 297.00977 52.781385C297.02269 44.47496 300.4831 36.630414 304.64111 35.481584C311.41276 33.610624 319.59449 35.741346 324.82143 40.737035C325.54821 41.431666 326.50451 42.0 326.94653 42.0C328.59415 42.0 330.83671 48.299283 329.98582 50.537284C328.76329 53.752804 330.12961 58.436573 335.07994 68.0C339.14405 75.851352 339.52009 77.224959 340.00755 86.0L340.53529 95.5L342.36334 91.5C343.8459 88.255961 344.09367 85.886351 343.67435 78.961728C343.23852 71.764552 342.59521 69.303446 339.57865 63.292749C334.88594 53.942208 334.7239 48.697934 339.00291 44.659237C342.85989 41.018867 343.92313 37.148175 341.54398 35.408502C339.58103 33.973154 335.79335 34.972052 332.74777 37.728267C331.30467 39.034251 330.52945 39.106632 328.39602 38.134577C326.9683 37.484064 325.5905 36.15008 325.33425 35.170168C325.078 34.190256 322.3479 31.880974 319.26737 30.03843C311.02476 25.108307 304.74981 25.587044 298.28209 31.639469C296.75194 33.071364 294.44292 34.944225 293.15093 35.801382C290.90165 37.293639 290.66799 37.206113 287.65093 33.741141C285.91792 31.750852 282.925 29.196568 281.0 28.064955C277.33699 25.911649 270.56048 25.284112 269.5 27.0C269.16008 27.55 268.12102 28.016896 267.19098 28.037547C264.14053 28.105279 253.0 39.799069 253.0 42.933278C253.0 44.560466 248.88286 44.203962 246.8946 42.404611C245.92501 41.527147 243.63958 40.739647 241.81586 40.654611C238.94638 40.520813 238.45957 40.847725 238.19969 43.083043C237.98858 44.898845 238.94703 46.829537 241.42649 49.583043C243.3664 51.737369 244.96288 53.95 244.97423 54.5C244.98557 55.05 243.47339 58.023084 241.61383 61.106853C237.17218 68.472557 235.11745 79.093422 236.94382 85.246101C239.47193 93.762814 241.91899 94.258921 241.80518 86.23167C241.71852 80.120023 243.97086 70.937597 247.02516 64.950675C248.03795 62.965441 249.04977 59.375846 249.27364 56.973799C249.49751 54.571751 250.18288 52.439041 250.79667 52.234444C251.41046 52.029846 254.18922 48.791539 256.97168 45.038206C259.75414 41.284873 263.60777 37.011074 265.5353 35.540874C269.32908 32.647214 274.84079 31.285519 277.70631 32.533966C278.69284 32.963776 280.0625 33.224738 280.75 33.113883C281.4375 33.003027 282.0 33.45912 282.0 34.127423C282.0 34.795725 282.62141 36.052952 283.3809 36.921259C284.85712 38.608965 287.0 49.398337 287.0 55.143352C287.0 58.167664 284.17285 63.0 282.40349 63.0C282.11826 63.0 279.86982 61.875 277.40696 60.5C274.9441 59.125 272.13043 58.0 271.15436 58.0C267.65841 58.0 263.40315 63.6229 261.15245 71.216516C258.99636 78.49092 258.18858 91.380481 259.82539 92.392088C260.27936 92.672654 261.44374 90.111712 262.41291 86.701105C265.4415 76.043125 265.80926 75.137584 268.98162 70.526717C272.36264 65.61257 275.04737 63.697213 277.32784 64.57231C279.00702 65.21667 285.37829 75.239176 286.49947 79.0C286.90939 80.375 287.67939 82.043935 288.21059 82.708744C288.8854 83.553286 288.09526 85.03071 285.58821 87.612145C283.02794 90.248369 282.00318 92.193905 282.01109 94.403401L282.02218 97.5L284.64184 94.175536C288.78169 88.921905 291.52485 88.375624 295.6368 91.985969C301.17551 96.849022 302.74479 95.559198 298.88593 89.315435C296.16566 84.913943 297.43338 83.579786 300.61096 87.5C303.54102 91.114837 304.43371 94.13581 303.57861 97.54282C302.49301 101.86819 300.27775 101.61219 295.55837 96.615973C290.56694 91.331734 289.15373 91.365593 285.82302 96.849224C282.93712 101.60053 281.1995 102.86616 279.66667 101.33333Z"/>
</svg>
