<?xml version="1.0" encoding="UTF-8"?>
<svg xmlns="http://www.w3.org/2000/svg" viewBox="2062.16 17.25 30.63 86.18">
  <path d="M2071.9661 94.474963C2065.2546 89.523437 2064.2712 83.875119 2068.9162 76.958851L2071.8324 72.61674L2069.0532 68.55837C2064.1555 61.406418 2064.2524 58.65604 2069.68 50.767151L2072.2482 47.034302L2068.9878 43.988617C2065.8447 41.052465 2065.747 40.72689 2066.2721 34.935717C2066.951 27.448579 2068.8849 24.414368 2073.9442 22.898581C2079.7101 21.171059 2083.6984 23.063885 2086.1977 28.714138C2087.8732 32.501828 2087.9815 33.772292 2087.0223 38.392378C2086.4151 41.317393 2084.9659 44.732872 2083.8018 45.982332L2081.6854 48.254079L2083.7347 49.877039C2089.3432 54.318612 2090.7862 64.723828 2086.5 69.817631C2085.125 71.451725 2084.0 73.026636 2084.0 73.317433C2084.0 73.608229 2085.35 75.196154 2087.0 76.846154C2090.2836 80.129778 2090.5632 81.877734 2088.8762 88.57721C2086.8265 96.717642 2078.8001 99.516979 2071.9661 94.474963Z M2083.2484 42.0C2085.5846 37.323595 2085.5384 29.886406 2083.1549 26.942932C2079.3296 22.218915 2069.8724 25.418975 2068.5773 31.875582C2067.6126 36.685385 2069.3305 41.306075 2073.0037 43.781462C2077.7285 46.965491 2081.0571 46.386681 2083.2484 42.0Z M2084.0399 92.960066C2090.2252 86.774771 2087.9153 76.024349 2080.0766 74.514758C2078.8466 74.277877 2077.0132 73.821589 2076.0025 73.500784C2074.7024 73.088153 2073.432 73.880429 2071.6602 76.20875C2066.6569 82.783776 2067.3341 87.582055 2073.9547 92.466595C2078.1083 95.531028 2081.3122 95.687794 2084.0399 92.960066Z M2084.9274 68.365141C2088.2346 64.160739 2086.9785 54.499215 2082.7386 51.529483C2080.1082 49.687032 2072.6376 49.505252 2071.2528 51.25C2068.8598 54.265007 2067.7753 60.043344 2069.0327 63.079057C2072.1322 70.561724 2080.9047 73.479201 2084.9274 68.365141Z"/>
</svg>
