<?xml version="1.0" encoding="UTF-8"?>
<svg xmlns="http://www.w3.org/2000/svg" viewBox="2361.2 12.71 116.6 94.39">
  <path d="M 2472.5,86.15625 2472.5,79.6875 C 2466.4927,90.290412 2462.0369,99.279129 2462.6562,100.28125 2463.5996,101.80754 2466.2192,97.889836 2472.5,86.15625 z M 2472.5,51.5 2472.5,46 C 2471.232,48.427586 2469.5131,51.559229 2468.3125,53.5 2464.3563,59.895144 2442,99.009489 2442,99.53125 2442,99.791934 2442.3616,100 2442.8125,100 2444.1881,100 2448.0503,95.053209 2451.2812,89.125 2452.9671,86.031818 2455.3736,81.83282 2456.6562,79.78125 2457.9388,77.729679 2459,75.776026 2459,75.4375 2459,75.098975 2459.8964,73.549845 2461,72 2462.1036,70.450156 2464.7074,65.878809 2466.7812,61.84375 2467.7504,59.957944 2470.4658,55.183146 2472.5,51.5 z M 2439.8438,17 C 2438.3681,16.999563 2434.7684,20.69365 2430.5938,26.5 2429.2004,28.437879 2429.0445,28.373439 2425.0625,24.1875 2419.6826,18.532 2417.6051,18.851728 2417.1875,25.4375 2416.7466,32.390204 2417.4708,34.391769 2422.0938,38.96875 2424.3339,41.186634 2426.5333,42.800309 2426.9688,42.53125 2427.4039,42.262191 2428.2792,39.903099 2428.9375,37.28125 2430.27,31.974532 2434.9289,23.294104 2437.8438,20.65625 2439.6651,19.007857 2439.8785,19.137984 2443.5625,23.96875 2447.1386,28.658013 2450,30.418338 2450,27.9375 2450,26.078945 2441.5704,17.000511 2439.8438,17 z M 2468.6875,18.34375 C 2468.0026,17.658841 2464.0926,24.297729 2451.25,48 2449.313,51.575 2446.2978,56.75 2444.5312,59.5 2442.7648,62.25 2439.1822,68.325 2436.5938,73 2434.0052,77.675 2430.972,83.075 2429.8438,85 2423.7966,95.317524 2421.0644,100.75192 2421.6562,101.34375 2423.12,102.80742 2424.1142,101.56291 2429.6875,91.375 2432.8799,85.539217 2436.7002,78.676717 2438.1562,76.125 2439.6123,73.573283 2441.738,69.7 2442.875,67.5 2444.0119,65.3 2446.7636,60.35 2449,56.5 2451.2364,52.65 2453.7622,47.925 2454.625,46 2455.4879,44.075 2456.7924,41.825 2457.5,41 2459.5322,38.630841 2469.2642,18.920441 2468.6875,18.34375 z M 2420.8125,24 C 2421.2546,24 2423.0866,25.528893 2424.9062,27.40625 2427.7849,30.376093 2428.1171,31.180096 2427.3125,33.59375 2426.0556,37.364549 2424.6288,37.589331 2422.125,34.40625 2420.0571,31.777329 2419.0743,24 2420.8125,24 z M 2429.6875,51 C 2428.9943,51 2427.7177,52.4625 2426.875,54.25 2426.0322,56.0375 2422.9536,61.325 2420.0312,66 2413.9154,75.784276 2408.7964,84.349954 2405,90.90625 L 2405,96.125 C 2405.9805,94.591002 2406.986,93.007752 2408,91.5 2409.4795,89.3 2411.3659,86.15 2412.2188,84.5 2415.9632,77.255834 2417.7141,74.184374 2419.7812,71.28125 2420.9957,69.575863 2422,67.758672 2422,67.21875 2422,66.678828 2423.7265,63.600174 2425.8438,60.375 2430.4369,53.377989 2431.421,51 2429.6875,51 z M 2411.4062,52.09375 C 2410.6492,51.296555 2407.5808,54.902793 2405,59.40625 L 2405,63.6875 C 2408.3704,58.246436 2411.7214,52.425436 2411.4062,52.09375 z M 2375.4688,17.96875 C 2375.1764,18.070328 2375,18.346057 2375,18.8125 2375,19.263501 2376.5947,21.513501 2378.5625,23.8125 2380.5304,26.1115 2382.7607,28 2383.5,28 2385.3259,28 2392.3936,19.63124 2390.9688,19.15625 2390.3488,18.94964 2388.6234,19.939436 2387.125,21.375 2383.6385,24.715305 2382.5592,24.672771 2379.8438,21 2378.293,18.902447 2376.3459,17.664015 2375.4688,17.96875 z M 2397.5,21.375 C 2397.1399,20.972806 2395.5543,22.028172 2393.0312,24.84375 2389.8427,28.402085 2389.1271,29.998895 2388.8438,34.15625 2388.6557,36.915488 2388.711,39.3675 2388.9688,39.625 2389.6647,40.320166 2390.8571,36.866583 2390.9375,33.90625 2390.9762,32.48401 2392.6498,29.231678 2394.6562,26.65625 2397.0031,23.643934 2397.8601,21.777194 2397.5,21.375 z M 2366.5,88.9375 2366.5,94.40625 C 2367.5836,92.769215 2369.6097,89.242987 2371.2188,86.21875 2372.8897,83.077901 2375.4634,78.7 2376.9375,76.5 2382.5066,68.188204 2389.1482,55.976141 2388.75,54.78125 2388.6242,54.404121 2388.3973,54.347083 2388.0625,54.5625 2387.7277,54.777917 2387.3016,55.27852 2386.8438,56.03125 2383.0261,62.305336 2376.7765,72.345072 2371,81.5 2368.8301,84.939096 2367.9573,86.53219 2366.5,88.9375 z M 2405,96.125 2405,90.90625 C 2402.4014,95.393944 2400,99.595776 2400,100 2400,101.93135 2401.9663,100.9791 2403.625,98.25 2403.9143,97.774079 2404.5498,96.829299 2405,96.125 z M 2405,63.6875 2405,59.40625 C 2404.8465,59.674119 2404.6806,59.819323 2404.5312,60.09375 2403.0176,62.874895 2396.6735,72.813773 2390.4062,82.1875 2384.1391,91.561228 2379,99.641968 2379,100.125 2379,101.73374 2382.0526,101.0267 2382.7812,99.25 2383.1761,98.2875 2386.0772,93.587804 2389.2188,88.8125 2392.3602,84.037195 2395.7352,78.6395 2396.7188,76.8125 2397.7022,74.9855 2399.625,71.912785 2401,70 2402.1001,68.469657 2403.5924,65.959827 2405,63.6875 z M 2370.5625,23.09375 C 2370.0137,23.013496 2369.5778,23.109858 2369.2812,23.40625 2368.9626,23.724805 2370.7838,25.809094 2373.3438,28.0625 2377.8681,32.045059 2378,32.318608 2378,37.90625 2378,41.067841 2378.3094,43.965625 2378.6875,44.34375 2379.9423,45.598576 2381.5099,44.354647 2381.4375,42.15625 2381.118,32.465969 2380.9797,31.952041 2377.4375,28.03125 2374.8355,25.151096 2372.2089,23.334513 2370.5625,23.09375 z"/>
</svg>
