<?xml version="1.0" encoding="UTF-8"?>
<svg xmlns="http://www.w3.org/2000/svg" viewBox="1837.42 14.64 47.69 91.52">
  <path d="M1857.7943 97.785891C1849.9445 89.615871 1848.234 81.076442 1852.1791 69.753982C1854.5368 62.987322 1855.0671 54.667059 1853.2559 52.855944C1852.6352 52.235175 1850.261 51.727273 1847.9799 51.727273C1843.3595 51.727273 1842.1038 50.213873 1843.8041 46.694785C1844.7003 44.840098 1844.8751 44.78032 1844.9323 46.309017C1844.9695 47.303976 1845.4189 47.859136 1845.9309 47.542705C1846.4429 47.226274 1847.1445 47.424717 1847.4899 47.983688C1847.8354 48.54266 1849.1666 49.0 1850.4482 49.0C1851.7298 49.0 1853.8347 49.85528 1855.1256 50.900622C1857.1418 52.533231 1857.4531 53.62608 1857.3332 58.650622C1857.2564 61.86778 1856.2502 66.975 1855.0973 70.0C1852.4367 76.980644 1852.4364 82.822735 1855.0963 88.481577C1857.6242 93.859333 1864.1341 100.0 1867.3075 100.0C1870.5298 100.0 1877.0 93.846398 1877.0 90.781796C1877.0 87.070747 1876.1353 86.882083 1871.918 89.672973C1867.1204 92.847895 1863.7596 92.252595 1860.9105 87.723163C1858.4302 83.780109 1858.8862 76.728425 1862.0993 69.336146C1863.8324 65.348899 1864.1082 63.209286 1863.67 57.14685L1863.1386 49.793701L1867.5693 50.458123C1871.9849 51.120274 1872.0 51.112145 1872.0 48.080491C1872.0 43.09274 1862.501 24.0 1860.0195 24.0C1859.1402 24.0 1850.4021 37.812256 1849.0777 41.295569C1847.9693 44.211072 1845.0 45.020907 1845.0 42.407729C1845.0 41.53198 1844.1 39.671294 1843.0 38.272871C1839.5912 33.939301 1840.8755 19.0 1844.6568 19.0C1845.4605 19.0 1845.8399 19.45 1845.5 20.0C1845.1601 20.55 1845.3585 21.0 1845.941 21.0C1846.5234 21.0 1847.0 22.280256 1847.0 23.845012C1847.0 26.546291 1849.5771 30.0 1851.5927 30.0C1852.107 30.0 1853.6466 28.164603 1855.0139 25.921341C1859.3519 18.804477 1861.126 18.864809 1866.5271 26.312854C1869.0478 29.788728 1870.926 29.221258 1874.431 23.924945C1877.3928 19.44925 1878.5666 19.059148 1879.569 22.217324C1881.0872 27.00088 1880.2889 32.016133 1877.2246 36.94554C1874.62 41.135555 1874.2946 42.372558 1874.9884 45.448452C1876.298 51.255192 1875.3726 53.0 1870.9834 53.0L1867.2 53.0L1867.2 58.87972C1867.2 62.678991 1866.4569 66.439234 1865.1 69.506838C1863.945 72.117907 1863.0 75.30791 1863.0 76.595733C1863.0 78.266221 1862.5701 78.772278 1861.5 78.361626C1860.675 78.045044 1860.0 78.284167 1860.0 78.893011C1860.0 79.501855 1860.5625 80.000318 1861.25 80.000706C1861.9375 80.001095 1862.5665 81.152367 1862.6478 82.559089C1862.8236 85.600164 1865.6386 89.0 1867.9807 89.0C1868.8996 89.0 1870.7083 87.875 1872.0 86.5C1878.3122 79.780937 1882.9469 87.198923 1877.4713 95.257015C1874.437 99.722443 1870.3838 102.0 1865.4713 102.0C1862.515 102.0 1861.0935 101.21968 1857.7943 97.785891Z M1849.0141 34.973614C1849.8797 33.356188 1849.6713 32.347099 1847.9812 29.973614C1845.2086 26.079887 1844.0 26.21486 1844.0 30.418213C1844.0 36.826123 1846.7067 39.285157 1849.0141 34.973614Z M1876.537 33.928479C1878.1783 30.754592 1878.3775 28.143771 1877.1288 26.174149C1876.5031 25.187284 1875.48 25.868775 1873.127 28.839615C1870.3507 32.345036 1870.1048 33.135935 1871.1074 35.336324C1872.4916 38.374414 1874.5083 37.851507 1876.537 33.928479Z"/>
</svg>
