<?xml version="1.0" encoding="UTF-8"?>
<svg xmlns="http://www.w3.org/2000/svg" viewBox="3333.93 15.08 71.29 93.1">
  <path d="M3380.0311 102.53747C3379.2036 101.54035 3378.9627 99.6345 3379.3546 97.183827C3379.8856 93.863483 3379.4238 92.564356 3375.7316 86.990639C3373.4042 83.47732 3370.9527 80.434714 3370.2837 80.229293C3369.6147 80.023872 3367.4217 82.428398 3365.4104 85.572684C3362.0288 90.858875 3361.8359 91.558674 3362.8496 94.861605C3363.7287 97.726062 3363.6495 98.885913 3362.4499 100.71682C3361.6271 101.97257 3360.3329 103.0 3359.5739 103.0C3358.815 103.0 3355.9059 100.6375 3353.1093 97.75C3346.3112 90.73085 3346.4015 89.049856 3354.0 81.163035C3357.3 77.737827 3360.0 74.096538 3360.0 73.071284C3360.0 71.230907 3353.8151 65.0 3351.9883 65.0C3350.2601 65.0 3347.8601 69.818976 3347.1637 74.687304C3346.6051 78.592459 3346.1005 79.5 3344.4876 79.5C3339.772 79.5 3337.1702 65.528625 3340.6142 58.70034C3342.8934 54.181322 3347.0419 50.0 3349.2461 50.0C3350.4064 50.0 3350.8468 50.438882 3350.4045 51.154508C3349.9492 51.891132 3350.1317 52.036654 3350.9085 51.556547C3351.5781 51.142689 3352.8852 51.468895 3353.813 52.28145C3356.641 54.75805 3361.9939 57.121797 3363.1526 56.40566C3364.6586 55.474909 3363.6068 47.525981 3360.8416 38.940187L3358.6012 31.984019L3353.7754 32.624184C3347.8841 33.405691 3345.0 31.407723 3345.0 26.545012C3345.0 20.494035 3349.3693 19.314242 3356.083 23.552409L3360.1263 26.104817L3364.6874 23.083698C3368.2598 20.717406 3369.655 20.280173 3371.1242 21.066473C3372.1559 21.618615 3373.0 22.428494 3373.0 22.866204C3373.0 23.303914 3374.0988 24.250112 3375.4418 24.968865C3377.6305 26.140205 3378.2087 26.002211 3381.0185 23.637845C3384.6306 20.5985 3388.6895 20.222706 3390.608 22.75C3393.8176 26.978182 3390.8957 33.0 3385.6344 33.0C3380.3924 33.0 3379.3713 34.577999 3378.2349 44.434988C3377.6683 49.349231 3377.4162 53.920994 3377.6746 54.594461C3378.2633 56.128469 3382.0641 55.11143 3387.2443 52.033762C3390.9637 49.823982 3391.0102 49.821834 3394.2437 51.710329C3399.2857 54.655016 3401.983 60.294638 3401.2901 66.443114C3400.5031 73.426781 3398.467 77.207372 3395.7057 76.811985C3394.0251 76.571334 3393.3814 75.599578 3392.8903 72.561924C3392.2619 68.674517 3389.1376 65.0 3386.4606 65.0C3384.1819 65.0 3382.0 68.022738 3382.0 71.179636C3382.0 73.296239 3383.4648 76.077443 3386.8343 80.358207C3389.4931 83.736193 3391.9154 87.187045 3392.2172 88.026766C3392.8935 89.90862 3384.8382 103.38861 3382.7958 103.79289C3381.9819 103.95398 3380.7378 103.38904 3380.0311 102.53747Z M3359.0938 94.69378C3357.3666 92.966553 3357.7568 91.587379 3361.5928 85.862212C3366.2024 78.982472 3369.4406 76.040951 3371.7421 76.642797C3372.745 76.905062 3374.8747 79.230223 3376.4748 81.809821C3378.075 84.389419 3380.4341 87.785547 3381.7174 89.356772C3383.5587 91.611254 3383.9164 92.928934 3383.414 95.606772C3383.0639 97.473047 3383.0206 99.0 3383.3179 99.0C3383.6151 99.0 3385.2423 96.949334 3386.9338 94.442964C3390.5037 89.153433 3390.4765 89.055341 3383.0307 80.356576C3377.8808 74.339946 3377.0506 71.591135 3379.2038 67.684259C3379.8658 66.482916 3380.4283 64.825 3380.4538 64.0C3380.4866 62.93573 3381.8373 62.4132 3385.1036 62.20119C3389.2995 61.928838 3389.9857 62.219695 3392.8536 65.485986C3394.5841 67.45697 3396.0 69.530492 3396.0 70.093813C3396.0 70.657135 3396.45 70.839919 3397.0 70.5C3397.55 70.160081 3398.0 67.950071 3398.0 65.588866C3398.0 60.95053 3394.6514 54.749139 3391.8562 54.210829C3390.9908 54.04417 3387.3043 55.330575 3383.6638 57.069507C3374.2156 61.582686 3373.6261 61.111483 3374.4963 49.740922C3374.8853 44.658415 3375.5621 38.521092 3376.0002 36.102426C3376.7587 31.916118 3376.612 31.507764 3372.9481 27.602426C3368.7306 23.106997 3367.4455 23.183334 3363.7377 28.149531C3361.9085 30.599551 3361.9219 30.829651 3364.4871 40.949122C3365.99 46.877976 3366.972 53.217018 3366.7996 55.876921C3366.5063 60.40313 3366.4333 60.494869 3363.3158 60.255124C3360.2617 60.020249 3354.276 57.15246 3350.8946 54.304109C3347.017 51.037672 3342.6805 56.963034 3342.156 66.244522C3341.705 74.227222 3343.1366 75.180118 3345.8989 68.735836C3349.428 60.502886 3352.855 59.591834 3358.6178 65.354613C3365.1515 71.888378 3364.4129 75.387076 3354.2795 85.903401C3352.4758 87.775271 3351.0049 89.575271 3351.0108 89.903401C3351.0167 90.23153 3352.9289 92.494808 3355.26 94.932907C3358.6699 98.49922 3359.5658 99.016055 3359.843 97.576687C3360.0325 96.592668 3359.6954 95.295359 3359.0938 94.69378Z M3353.9602 29.045737C3355.2099 28.255268 3355.1515 27.82494 3353.5552 26.06105C3352.5294 24.927472 3351.0706 24.0 3350.3136 24.0C3348.35 24.0 3347.5538 26.757468 3349.0106 28.512735C3350.4224 30.213848 3351.8675 30.369463 3353.9602 29.045737Z M3387.0657 29.964816C3389.4271 28.701073 3389.6045 25.445962 3387.3591 24.584303C3385.3849 23.826717 3381.0 26.485183 3381.0 28.43972C3381.0 30.775883 3384.0958 31.554262 3387.0657 29.964816Z"/>
</svg>
