<?xml version="1.0" encoding="UTF-8"?>
<svg xmlns="http://www.w3.org/2000/svg" viewBox="2165.15 18.14 65.84 86.14">
  <path d="M2209.0 99.287238C2208.175 98.982062 2205.6243 97.217588 2203.3317 95.366186C2198.1647 91.193516 2195.4218 91.143649 2188.9832 95.105329C2183.233 98.643474 2178.7809 98.560794 2175.6096 94.856968C2168.1458 86.139907 2168.3922 67.81953 2176.173 52.97605C2177.8668 49.7447 2179.0012 46.445605 2178.6939 45.64473C2178.3866 44.843854 2176.751 43.884582 2175.0593 43.513014C2169.7711 42.351544 2168.643 37.585617 2171.9382 30.327957C2174.2873 25.15395 2177.7172 22.826178 2183.6458 22.382341C2187.9681 22.058751 2188.1875 22.163818 2187.5874 24.269839C2185.7571 30.692543 2185.7509 31.967187 2187.5465 32.656216C2189.2143 33.296211 2190.8693 32.627913 2196.7805 28.927579C2202.2667 25.493251 2200.8161 34.831127 2194.7734 41.847026C2191.3853 45.780829 2191.5087 47.997951 2195.2146 49.774135C2196.6942 50.483284 2198.7785 52.174211 2199.8463 53.531749C2200.9142 54.889287 2202.5172 56.0 2203.4086 56.0C2205.6944 56.0 2208.6909 50.684662 2211.0193 42.5C2215.9425 25.193842 2216.8359 23.0 2218.9608 23.0C2222.8523 23.0 2224.1562 32.250744 2221.5559 41.412108C2220.7616 44.210449 2219.3404 49.2 2218.3976 52.5C2216.5196 59.073769 2214.933 62.075806 2211.1308 66.25C2207.6262 70.097456 2203.3614 69.921346 2197.8266 65.700616C2195.447 63.885955 2192.7548 62.116303 2191.844 61.768055C2186.3238 59.657459 2181.4736 78.902183 2186.3074 83.736017C2187.5886 85.017153 2188.5496 84.815695 2194.1193 82.098434C2197.6123 80.394295 2201.0048 79.0 2201.6581 79.0C2202.3115 79.0 2204.6105 80.8 2206.767 83.0C2208.9236 85.2 2211.1298 87.0 2211.6697 87.0C2212.2096 87.0 2213.7083 85.875 2215.0 84.5C2217.334 82.015587 2220.0 81.168384 2220.0 82.911106C2220.0 84.369436 2214.0834 88.940968 2211.2879 89.642586C2209.1694 90.174306 2208.0748 89.575058 2204.916 86.154099C2200.7686 81.662496 2200.8106 81.66396 2193.1377 85.743699C2185.9569 89.561768 2183.1521 87.683838 2181.4625 77.926765C2180.2427 70.882676 2186.0325 58.0 2190.4181 58.0C2192.5987 58.0 2200.0759 62.695727 2201.4592 64.93395C2201.8215 65.520278 2203.6608 66.0 2205.5465 66.0C2208.4291 66.0 2209.3442 65.403016 2211.2949 62.25C2212.5709 60.1875 2214.355 56.475 2215.2597 54.0C2219.0171 43.720691 2221.352 28.0 2219.1213 28.0C2218.1318 28.0 2217.2496 30.228023 2213.9736 41.0C2210.3128 53.037476 2206.3673 60.0 2203.2068 60.0C2202.3911 60.0 2199.8366 58.3125 2197.5302 56.25C2195.2238 54.1875 2192.361 51.716904 2191.1684 50.759787C2188.1978 48.375758 2188.45 44.70275 2191.8533 40.784796C2194.5766 37.649772 2197.0 33.778756 2197.0 32.563799C2197.0 32.251573 2195.3192 32.896989 2193.2648 33.998057C2188.6238 36.485508 2186.7757 36.514669 2184.6217 34.134445C2183.3329 32.710338 2183.09 31.289169 2183.5954 28.128586L2184.2575 23.988281L2180.8787 25.353854C2176.3062 27.201927 2172.1904 34.927745 2173.8445 38.558044C2174.568 40.145936 2175.7848 41.0 2177.3236 41.0C2179.9377 41.0 2183.0 43.801983 2183.0 46.193882C2183.0 47.038902 2182.201 48.803469 2181.2246 50.115141C2175.591 57.682429 2172.1034 70.622552 2173.3937 79.170556C2174.4195 85.966066 2178.9513 94.422155 2181.7826 94.823828C2183.0417 95.00245 2186.9803 93.545382 2190.5661 91.574375C2196.7858 88.155577 2197.2059 88.064004 2200.2834 89.456246C2202.0525 90.25658 2205.3966 92.350266 2207.7148 94.108881C2213.3202 98.36137 2216.9009 98.225674 2222.0594 93.565275C2225.5662 90.397109 2228.0 89.124718 2228.0 90.459531C2228.0 91.511039 2222.2344 96.273782 2218.7898 98.067736C2215.1301 99.973765 2211.9327 100.37206 2209.0 99.287238Z M2217.0 90.023053C2217.0 88.62778 2221.9209 85.586989 2222.7812 86.450621C2223.1765 86.847467 2222.4376 88.033423 2221.1392 89.08608C2218.5498 91.185333 2217.0 91.53616 2217.0 90.023053Z"/>
</svg>
