<?xml version="1.0" encoding="UTF-8"?>
<svg xmlns="http://www.w3.org/2000/svg" viewBox="2550.31 12.6 33.6 91.05">
  <path d="M 2552.4688 78.0625 L 2552.5 78.5 L 2552.5 86.9375 C 2552.5504 87.162304 2552.5708 87.358632 2552.5 87.53125 L 2552.5 94.5 L 2552.3125 94.9375 C 2552.6759 95.671038 2552.8785 96.456521 2552.75 97.5 C 2552.5307 99.281464 2553.0805 99.506411 2557.75 99.46875 C 2563.8159 99.419826 2564.8425 98.645647 2566.0312 93.375 C 2566.8183 89.885044 2567.4749 62.419185 2567.1562 46 C 2567.0868 42.425 2567.4724 38.825 2568.0312 38 C 2568.8871 36.736882 2569.4357 36.962853 2571.4688 39.4375 C 2573.6224 42.058785 2574.1327 42.240405 2576.375 41.21875 C 2577.7576 40.588789 2579.6031 38.705095 2580.4688 37.03125 C 2581.9072 34.249536 2581.9086 33.720595 2580.4062 30.75 C 2575.5423 21.13278 2569.3187 16.737973 2564.25 19.375 C 2560.255 21.453425 2557.47 24.899791 2555.6875 30 C 2554.1151 34.499009 2552.9682 50.397338 2552.875 68.96875 C 2552.8515 73.637331 2552.6687 76.977964 2552.4688 78.0625 z M 2566.75 22.15625 C 2568.4573 22.221252 2570.3207 23.215418 2572.5312 25.15625 C 2577.0602 29.132634 2579.0698 33.65254 2577.6875 36.75 C 2576.7298 38.895931 2574 39.937371 2574 38.15625 C 2574 36.432799 2570.1899 33 2568.2812 33 C 2564.6494 33 2564.0895 36.904218 2563.4375 66.71875 C 2562.9972 86.85694 2562.468 95.70223 2561.6562 96.21875 C 2561.0181 96.624842 2559.4099 96.991578 2558.0938 97 L 2555.7188 97 L 2556.2812 65.75 C 2556.8922 32.681608 2557.3067 29.607151 2561.8125 24.75 C 2563.476 22.956662 2565.0427 22.091248 2566.75 22.15625 z "/>
</svg>
