<?xml version="1.0" encoding="UTF-8"?>
<svg xmlns="http://www.w3.org/2000/svg" viewBox="2007 16.11 25.63 85.62">
  <path d="M2009.0 96.162871C2009.0 95.70245 2009.6747 90.86495 2010.4994 85.412871C2012.4783 72.330203 2012.5499 38.968889 2010.6184 30.0C2009.2399 23.599187 2009.7677 20.0 2012.0848 20.0C2014.4353 20.0 2019.0696 23.233925 2020.3967 25.800174C2022.271 29.424807 2023.6802 40.470051 2025.0266 62.08966C2025.9986 77.697207 2027.2766 86.727337 2029.4935 93.653596C2030.6331 97.213951 2026.6653 97.706058 2021.9545 94.588619C2017.1451 91.405861 2016.9093 91.403234 2014.0 94.5C2011.7089 96.938808 2009.0 97.839705 2009.0 96.162871Z M2015.5 90.0C2017.7788 87.481907 2018.4034 87.499028 2022.0282 90.178966C2023.6492 91.377397 2025.169 92.164291 2025.4057 91.927619C2025.6424 91.690948 2025.2224 89.131589 2024.4723 86.240156C2023.7223 83.348723 2022.829 74.799329 2022.4873 67.241503C2021.6984 49.795411 2021.4054 46.129718 2020.0964 37.329825C2018.8112 28.689432 2017.4088 25.340179 2014.7896 24.65524C2012.9567 24.175919 2012.8633 24.526922 2013.4151 29.820486C2015.3978 48.841773 2014.9422 74.081111 2012.3514 88.75C2011.6967 92.457026 2012.8589 92.918415 2015.5 90.0Z"/>
</svg>
