<?xml version="1.0" encoding="UTF-8"?>
<svg xmlns="http://www.w3.org/2000/svg" viewBox="-0.61 16.67 93.98 89.66">
  <path d="M26.288174 96.75C22.36278 90.654478 21.0 87.970764 21.0 86.336033C21.0 84.153229 23.486546 79.803791 27.438993 75.07302C29.397547 72.728784 31.0 70.144893 31.0 69.33104C31.0 68.517187 28.796327 65.541215 26.102948 62.717769C21.79217 58.198816 21.008404 57.748136 19.556268 58.953302C16.473149 61.512063 13.838043 66.027842 12.667439 70.75868C10.765387 78.445564 5.6716141 77.66145 4.4467117 69.493215C3.6656074 64.284438 5.1720562 59.135068 9.2031535 53.23466C14.939076 44.838862 18.864887 44.30992 28.131661 50.684338C33.292326 54.23425 35.237925 54.059744 34.468357 50.11598C34.294923 49.227191 34.118592 47.548636 34.076511 46.385858C34.020494 44.838013 32.822326 43.821958 29.603422 42.592647C20.279484 39.031803 21.393622 28.362815 31.594928 23.521978C34.504582 22.141257 35.743443 22.017705 37.707105 22.91241C39.919273 23.920341 40.101467 24.439945 39.497081 28.01728C39.126999 30.207776 39.177071 32.0 39.608352 32.0C40.890249 32.0 48.0 26.801327 48.0 25.863999C48.0 25.3888 48.891427 25.0 49.980948 25.0C52.256406 25.0 53.555856 28.649156 52.615118 32.397355C52.284185 33.7159 50.435401 36.683476 48.50671 38.991968C45.535851 42.547856 45.0 43.945247 45.0 48.136767L45.0 53.084308L49.446631 50.478408C54.521867 47.504122 55.496407 47.753234 60.946167 53.417923C62.841559 55.388065 65.227021 57.0 66.247193 57.0C68.333678 57.0 70.395896 52.812971 71.441647 46.45343C71.989959 43.118969 71.745681 42.079819 70.053529 40.548443C64.41211 35.443029 71.75077 20.742891 78.423209 23.783058C80.126981 24.559348 81.10461 26.267597 82.013598 30.056681C84.631204 40.968087 80.706972 57.770145 73.481493 66.587891C70.103561 70.710211 69.386809 71.127362 66.629318 70.575864C64.935524 70.237105 61.939324 68.843952 59.971096 67.479969C55.644541 64.481665 55.359471 64.459806 53.988636 67.021233C53.129151 68.627196 53.453286 70.259964 55.566288 74.96836C57.028949 78.227602 59.026736 81.619209 60.005816 82.505263C61.627642 83.972996 62.117614 83.977698 65.515104 82.558136C70.657965 80.409311 73.708327 80.586487 75.060235 83.11255C76.01861 84.903291 76.785632 85.129989 80.095419 84.600733C85.895273 83.673299 84.779624 87.013271 78.787177 88.517279C76.638134 89.056655 75.580783 88.650701 73.617756 86.53256C71.160835 83.881499 71.129673 83.876666 66.540038 85.434887C60.089612 87.624864 59.715792 87.524618 56.229411 82.66992C51.456334 76.023529 49.488711 70.417572 50.867137 67.392257C51.490212 66.024757 52.0 64.082168 52.0 63.075392C52.0 59.028223 54.493047 58.832515 59.299328 62.502383C61.82428 64.430328 65.077628 66.459215 66.52899 67.011022C70.295827 68.443171 72.349771 65.841175 77.983585 52.5C79.853692 48.071487 80.413908 32.069815 78.803552 29.078969C76.854261 25.458635 75.284232 25.485211 73.033653 29.176638C70.437087 33.435559 70.458411 36.794602 73.099861 39.606297C75.03073 41.661613 75.108098 42.27038 74.061224 47.170748C72.642331 53.812524 68.713557 60.0 65.915218 60.0C64.784195 60.0 61.724119 58.2 59.11505 56.0C56.50598 53.8 53.863469 52.0 53.242803 52.0C52.622138 52.0 50.521124 52.940009 48.573885 54.088908C43.998488 56.788458 42.794865 56.282888 42.292645 51.450536C41.644562 45.214686 42.772645 41.540902 46.520494 37.681865C48.646517 35.492768 50.0 33.107384 50.0 31.549566C50.0 28.511729 48.932969 28.311599 46.582693 30.908625C44.315932 33.413368 39.450091 35.386694 37.441348 34.615867C36.278608 34.169682 35.924195 32.931714 36.132652 30.044584C36.289884 27.86692 36.113404 25.78007 35.740473 25.407139C34.963732 24.630399 30.096436 27.578524 28.281803 29.924861C25.786058 33.151882 27.564 39.652846 31.071429 40.125C31.582143 40.19375 32.486275 40.30625 33.080611 40.375C36.691696 40.792713 38.544122 52.506029 35.629473 56.492047C34.318741 58.28458 34.013538 58.203461 28.634026 54.632745C21.31934 49.777533 17.743416 48.531768 15.132439 49.929121C12.137538 51.531943 6.785856 63.04418 7.1769163 67.042593C7.5023475 70.369979 10.0 72.5739 10.0 69.533673C10.0 67.047227 12.720623 62.314999 16.651694 57.963773C20.080269 54.168751 20.277408 54.092093 22.994754 55.497287C26.406749 57.261698 32.870137 64.634404 33.618339 67.615478C34.236479 70.078342 31.915665 75.099784 28.413729 78.876466C24.018269 83.616772 23.801964 86.181716 27.315806 91.895628C29.042255 94.703032 30.824819 97.0 31.277059 97.0C31.729299 97.0 31.793598 94.29784 31.419947 90.995199C30.806408 85.572235 30.995205 84.605637 33.368406 81.019487C34.81371 78.835486 37.13361 76.303336 38.523739 75.392489C40.887478 73.843707 41.176718 73.849953 42.98771 75.488877C44.052764 76.452739 46.973354 80.268061 49.477909 83.96737C55.30565 92.575136 57.577223 93.698137 63.605806 90.9518C69.114803 88.442161 71.134392 88.975642 75.97644 94.219542L79.663323 98.212408L83.940232 96.030491C89.046013 93.425716 89.104709 95.308262 84.025024 98.75C79.140354 102.05961 76.70721 101.66706 73.671377 97.079604C70.366759 92.085989 67.895637 91.283709 63.73485 93.853589C61.280666 95.369398 59.655345 95.67926 57.0 95.137565C53.57013 94.437866 51.959065 92.671855 42.41065 79.145067L40.748328 76.790134L37.624164 79.918656C34.664786 82.882162 34.5 83.454714 34.5 90.773589C34.5 95.023115 34.135942 99.0625 33.690983 99.75C32.071997 102.25147 29.039648 101.02261 26.288174 96.75Z M80.0 91.11501C80.0 89.923979 85.022811 86.689478 85.7473 87.413966C86.567079 88.233745 82.951724 92.0 81.345012 92.0C80.605256 92.0 80.0 91.601754 80.0 91.11501Z"/>
</svg>
