<?xml version="1.0" encoding="UTF-8"?>
<svg xmlns="http://www.w3.org/2000/svg" viewBox="361.5 15.58 30.04 87.87">
  <path d="M 364.1875 95.96875 C 364.88258 95.655272 365.73155 95.627016 367.25 96.0625 C 368.96547 96.554488 370.8154 97.409151 371.375 97.96875 C 372.86093 99.454686 377.63546 99.239543 379.28125 97.59375 C 381.08075 95.794255 384.26114 85.090506 386.40625 73.6875 C 388.6965 61.512971 389.53814 34.011242 387.8125 27.59375 C 385.97445 20.758204 383.71673 19.575128 380.09375 23.59375 C 376.15585 27.961678 375.09894 35.223492 374.59375 61.875 C 374.146 85.496011 373.90088 86.677896 369.5 85.375 C 368.4 85.049341 366.50788 83.874339 365.3125 82.78125 C 364.53751 82.072582 364.13091 81.19742 363.8125 79.6875 L 363.5 80.5 L 363.71875 86.875 C 364.25505 86.260586 364.98086 86.12876 365.5 86.96875 C 366.39677 88.419755 374.56657 88.251252 375.8125 86.75 C 376.43315 86.002158 377.11705 75.566937 377.5 61.03125 C 377.85433 47.58216 378.56998 34.324342 379.09375 31.5625 C 380.21533 25.648453 382.31449 22.908242 384.25 24.84375 C 385.17575 25.769507 385.49454 31.041867 385.4375 44.8125 C 385.3733 60.314276 384.91845 65.942346 382.78125 77.78125 C 381.36328 85.636036 379.45211 93.173536 378.5625 94.53125 C 376.7193 97.344342 374.80788 97.678358 373 95.5 C 372.31531 94.675 371.09746 94 370.3125 94 C 368.24027 94 365.27818 92.355119 363.84375 90.71875 L 364 95 L 364.1875 95.96875 z "/>
</svg>
