<?xml version="1.0" encoding="UTF-8"?>
<svg xmlns="http://www.w3.org/2000/svg" viewBox="4021.39 15.58 79.35 71.57">
  <path d="M 4081.9272,45.394721 C 4093.2686,26.152413 4097.1374,20.581026 4096.9574,23.75 4096.8592,25.479441 4082.2891,48.403646 4081.019,48.826984 4080.0938,49.13539 4080.3964,47.992046 4081.9272,45.394721 z M 4058.0173,52.25 C 4058.0268,51.8375 4060.9497,46.775 4064.5127,41 4068.0757,35.225 4071.9317,28.610408 4073.0817,26.300907 4074.9087,22.631411 4078,18.831691 4078,20.255431 4078,22.480158 4071.3403,34.789213 4062.3127,49.25 4060.2004,52.633508 4057.9726,54.189454 4058.0173,52.25 z M 4059.1789,70.411928 C 4058.432,65.60787 4058.3416,62.214107 4058.9323,61.161928 4060.235,58.841992 4060.7873,60.590121 4061.8036,70.25 4062.9028,80.697252 4060.7981,80.8271 4059.1789,70.411928 z M 4048.5307,72.568759 C 4048.0874,66.655284 4048.2045,62.459137 4048.8446,61.318759 4049.691,59.810792 4049.9481,59.756322 4050.3487,61 4051.1718,63.555249 4051.9697,78.915346 4051.3617,80.49982 4050.0586,83.895507 4049.1995,81.488531 4048.5307,72.568759 z M 4037.7102,53.376837 C 4036.9177,52.584393 4041.827,42.935227 4047.2751,34.577039 4049.3985,31.31941 4052.0144,26.93191 4053.0882,24.827039 4054.1621,22.722167 4055.3053,21 4055.6287,21 4057.0713,21 4054.3965,27.081194 4047.7911,38.819046 4040.1304,52.432047 4038.7536,54.420272 4037.7102,53.376837 z M 4025,43.316681 C 4025,42.507244 4035.9682,23.950237 4037.3038,22.5 4039.4758,20.141646 4036.3742,27.103249 4031.6234,35.25 4027.1276,42.959558 4025,45.550781 4025,43.316681 z"/>
</svg>
