<?xml version="1.0" encoding="UTF-8"?>
<svg xmlns="http://www.w3.org/2000/svg" viewBox="1783.63 58.71 45.68 41.29">
  <path d="M 1812.9445,92.393272 C 1818.2117,87.961215 1823.9337,73.313121 1821.0854,71.552802 1820.4612,71.166998 1820.0572,71.222289 1820.1877,71.67567 1821.0653,74.725138 1811.8745,84.745326 1807.4361,85.57797 1804.1051,86.202871 1799.1754,84.123741 1793.7664,79.812682 1792.2629,78.614371 1790.7701,77.896555 1790.4491,78.217534 1789.1231,79.543567 1795.1665,89.079584 1798.7654,91.339996 1805.8685,95.801318 1808.6488,96.007847 1812.9445,92.393272 z M 1799.3086,94.840487 C 1793.7227,91.936076 1792.9855,91.14885 1790.1779,85.090487 1786.7023,77.590341 1785.7073,73.059771 1787.0729,70.952905 1787.8605,69.737848 1788.3,69.860638 1789.7574,71.702974 1792.6184,75.319836 1804.3116,83 1806.9573,83 1808.755,83 1815.9148,75.923969 1818.161,71.927358 1824.466,60.709181 1827.2365,72.688828 1821.3239,85.603619 1818.3633,92.070464 1812.0809,98 1808.1897,98 1806.6473,98 1802.6508,96.578219 1799.3086,94.840487 z"/>
</svg>
