<?xml version="1.0" encoding="UTF-8"?>
<svg xmlns="http://www.w3.org/2000/svg" viewBox="3864.57 17.73 35.8 87.12">
  <path d="M3872.14 98.25C3870.1277 94.464747 3873.9853 80.987083 3877.463 79.652566C3879.4365 78.895264 3879.4076 76.121861 3877.3609 69.864411C3875.8507 65.247362 3875.5206 64.903498 3873.1662 65.494418L3870.6107 66.135808L3873.0421 64.167007C3875.2913 62.345736 3875.3808 61.941924 3874.2367 58.778105C3873.5565 56.897049 3873.0 54.002453 3873.0 52.345669C3873.0 48.550199 3872.249 47.796353 3869.7829 49.116204C3866.5662 50.837735 3866.6186 49.338385 3869.8417 47.434461C3872.2104 46.035219 3872.9615 44.742456 3873.5027 41.133195C3874.5921 33.868991 3879.1012 23.911019 3881.8731 22.648062C3883.9659 21.694515 3884.5019 21.873023 3885.8939 23.987009C3886.7773 25.328557 3888.4 27.196096 3889.5 28.137097C3890.6 29.078098 3892.625 30.805991 3894.0 31.97686C3896.3369 33.966821 3896.3587 34.066989 3894.3342 33.512179C3893.1429 33.185735 3891.904 33.346329 3891.5809 33.869053C3890.4372 35.719675 3893.3478 45.51568 3895.8538 48.25C3898.3529 50.976818 3898.3557 51.0 3896.1871 51.0C3893.298 51.0 3893.2964 54.125521 3896.1833 58.796521L3898.3665 62.32911L3896.218 61.767271C3893.9105 61.163843 3893.605 61.686103 3892.4497 68.208874C3891.8759 71.448633 3892.1538 72.240179 3894.6464 74.466921L3897.5 77.016095L3894.6661 76.000893C3889.1222 74.014902 3888.6622 76.681176 3893.0314 85.474539C3895.9752 91.399114 3896.5626 94.370192 3895.393 97.418213C3894.4383 99.906095 3891.9929 99.269386 3890.9063 96.25C3890.3619 94.7375 3888.8387 92.712865 3887.5212 91.750811C3884.2602 89.369408 3881.134 90.68795 3877.6853 95.899419C3874.7064 100.40082 3873.5451 100.89306 3872.14 98.25Z M3877.5927 92.897621C3880.2802 89.927931 3884.7775 87.794597 3886.9181 88.474004C3887.9181 88.791384 3889.5403 89.939571 3890.5231 91.025529C3894.9607 95.929022 3895.2762 90.663921 3890.9489 83.920363L3887.8978 79.16563L3890.0168 72.832815C3892.8238 64.443996 3893.1748 45.172421 3890.6108 40.214307C3888.7607 36.636483 3887.8329 36.29153 3886.0 38.5C3885.3153 39.325 3883.9653 40.0 3883.0 40.0C3882.0347 40.0 3880.6847 39.325 3880.0 38.5C3877.6536 35.672787 3876.0098 36.756614 3875.8291 41.25C3875.7351 43.5875 3875.5891 47.3 3875.5046 49.5C3875.3245 54.193039 3877.0988 62.996086 3879.2538 68.10185C3880.09 70.082868 3881.0642 73.457868 3881.4187 75.60185C3882.0072 79.160537 3881.7981 79.674166 3879.0182 81.5C3876.0229 83.467294 3874.0174 87.968195 3874.0056 92.75C3873.9986 95.561791 3875.1391 95.608728 3877.5927 92.897621Z M3886.1713 36.345012C3888.5131 34.225712 3888.4747 32.290902 3886.011 28.25C3883.475 24.090675 3881.3829 24.12915 3879.3595 28.372328C3877.8174 31.60615 3877.8463 31.873113 3880.0637 34.872328C3882.7034 38.442627 3883.6115 38.661594 3886.1713 36.345012Z"/>
</svg>
