<?xml version="1.0" encoding="UTF-8"?>
<svg xmlns="http://www.w3.org/2000/svg" viewBox="1854.6 15.07 24.38 90.24">
  <path d="M 1873.0938 48.21875 C 1870.9666 47.515738 1870.9674 50.483597 1871.5 60.75 C 1871.8638 67.7625 1872.5633 76.2 1873.0625 79.5 C 1874.1677 86.805451 1874.2684 94.011936 1873.25 93.96875 C 1872.8375 93.951258 1871.6358 93.280397 1870.5625 92.46875 C 1869.2378 91.466971 1867.4925 91.186702 1865.1562 91.625 C 1861.913 92.233441 1861.7606 92.125475 1862.3125 89.875 C 1865.8371 75.503402 1865.2029 43.911447 1861.0938 29.15625 C 1859.5809 23.724073 1860.4728 22.660314 1863.5625 26.25 C 1865.8945 28.959469 1870 40.353276 1870 44.09375 C 1870 45.135816 1870.45 46 1871 46 C 1872.5161 46 1872.2209 43.449394 1869.75 35.21875 C 1867.1351 26.508652 1861.6115 19.173715 1858.5625 20.34375 C 1856.6007 21.096543 1856.6332 21.342536 1859.5625 32 C 1862.2111 41.636257 1862.2645 79.984816 1859.6562 91.84375 C 1858.6481 96.427307 1858.132 100.47731 1858.5 100.84375 C 1858.8681 101.21019 1860.5316 99.8125 1862.1875 97.75 C 1865.7365 93.329633 1866.8088 93.166065 1870.4062 96.5 C 1873.4768 99.345737 1875.7979 99.705749 1876.6562 97.46875 C 1876.9796 96.625936 1876.6475 91.113436 1875.9375 85.21875 C 1875.2275 79.324065 1874.6369 72.045689 1874.5938 69.03125 C 1874.5514 66.074615 1874.8937 64.432223 1875.7188 63.6875 L 1875 62.5 L 1874.4062 58.03125 C 1873.7255 57.313757 1873.5312 56.685831 1873.7188 55.96875 C 1873.8108 55.616595 1873.9276 55.438576 1874.0312 55.1875 L 1873.0938 48.21875 z "/>
</svg>
