<?xml version="1.0" encoding="UTF-8"?>
<svg xmlns="http://www.w3.org/2000/svg" viewBox="1947.17 14.98 85.2 90.32">
  <path d="M 2022.9375 44.71875 L 2018.7188 48.8125 C 2012.9462 54.425018 2007.8384 55.412655 2003.4375 51.75 C 1998.8934 47.96811 1996.0378 46.769062 1993.25 47.46875 L 1990.7188 48.125 L 1991.4062 42.3125 C 1992.3665 34.141777 1993.7869 32.333231 1998.8125 32.8125 C 2002.2155 33.137026 2003.0786 32.82393 2004.4375 30.75 C 2006.1359 28.157944 2005.7545 25.738871 2003.1875 22.75 C 2000.9588 20.155054 1997.4623 20.590574 1995.1562 23.75 L 1993.1562 26.5 L 1987.75 23.59375 C 1982.2047 20.600395 1981.7249 20.600675 1976.5 23.9375 C 1972.4204 26.542853 1971.5284 26.459609 1966.5 23 C 1961.0338 19.239172 1957.384 19.082042 1955.8125 22.53125 C 1954.8865 24.563543 1954.9679 25.742792 1956.3125 28.5625 C 1958.4386 33.02081 1961.4353 34.200306 1965.875 32.375 C 1967.7297 31.612482 1969.6766 31 1970.1875 31 C 1972.6172 31 1975.637 45.675531 1973.625 47.6875 C 1973.2482 48.064255 1970.8187 47.619378 1968.2188 46.6875 C 1962.2031 44.53141 1959.7092 44.547256 1957.6875 46.78125 C 1955.3884 49.321741 1952.1342 57.018874 1951.625 61.125 C 1951.0468 65.786763 1954.5546 74 1957.125 74 C 1958.6872 74 1959 73.233421 1959 69.34375 C 1959 64.189559 1963.0086 56 1965.5312 56 C 1967.2366 56 1971.5974 62.347551 1972.5312 66.1875 C 1972.9529 67.920994 1972.2641 71.746269 1970.5938 76.90625 C 1969.1672 81.31313 1968 86.26179 1968 87.90625 C 1968 94.479629 1979.2788 101.18969 1985.75 98.46875 C 1987.5172 97.725723 1989.8838 95.631105 1991 93.8125 C 1993.3505 89.983082 1992.953 84.427132 1989.8438 77.15625 C 1987.4492 71.556242 1987.5187 68.510166 1990.0938 64.34375 C 1993.5986 58.672683 1995.0981 58.506292 2000.7812 63.03125 C 2003.5301 65.219828 2006.649 67 2007.7188 67 C 2008.7886 67 2013.8144 64.019907 2018.875 60.375 C 2023.2391 57.23181 2026.5908 55.12872 2027.75 54.6875 L 2028.5 53.5 L 2027.125 51.3125 C 2024.776 54.12416 2010.3948 64 2008.3438 64 C 2007.5068 64 2004.9117 62.425 2002.5625 60.5 C 1996.7316 55.72204 1993.8162 55.856926 1990 61.125 C 1985.1476 67.823586 1984.6062 71.460795 1987.5 77.4375 C 1991.1942 85.067311 1991.6681 89.897753 1989.0312 93.25 C 1987.3429 95.396313 1986.0607 95.967931 1983.1875 95.90625 C 1978.8411 95.812939 1977.4201 95.35098 1973.75 92.78125 C 1971.3449 91.097268 1971.0121 90.21941 1971.0312 85.6875 C 1971.0433 82.837452 1971.8473 78.7 1972.8438 76.5 C 1976.6372 68.124572 1976.1201 63.904537 1970.3438 56.25 C 1967.3522 52.285907 1966.1202 52.203543 1962.8125 55.75 C 1959.475 59.328318 1958 62.273736 1958 65.375 C 1958 68.338213 1956.1477 69.834843 1954.9062 67.875 C 1954.4262 67.117037 1954.0084 64.573916 1954 62.21875 C 1953.9684 53.389565 1959.389 46.390783 1965 48 C 1966.614 48.462887 1968.9477 49.537861 1970.1875 50.40625 C 1971.4273 51.27464 1973.3006 52 1974.3438 52 C 1976.1111 52 1976.1952 51.368847 1975.6562 42.75 C 1975.338 37.6625 1974.7915 32.059972 1974.4375 30.3125 C 1973.8419 27.372481 1974.0904 27.007933 1977.7812 25.125 L 1981.7812 23.0625 L 1986.375 26.125 C 1991.6096 29.592252 1991.9262 30.960996 1989.5 40 C 1988.6881 43.025 1988.0065 46.782906 1988 48.34375 C 1987.9884 51.098403 1988.1143 51.15121 1991.9688 50.5 C 1995.379 49.923838 1996.5439 50.272149 2000.2188 52.875 C 2002.5721 54.541931 2005.6761 56.183886 2007.125 56.53125 C 2010.234 57.276651 2017.1001 54.109347 2019.3438 50.90625 C 2020.1546 49.748477 2021.7347 48.183 2022.8438 47.40625 C 2023.48 46.9606 2023.8478 46.861997 2024.25 46.75 L 2022.9375 44.71875 z M 1959.4062 22.40625 C 1961.7485 21.507477 1968.9395 25.766387 1969 28.09375 C 1969.0084 28.417967 1967.8384 29.205467 1966.4375 29.84375 C 1962.9348 31.439714 1961.5837 31.285987 1959.6562 29.15625 C 1957.6319 26.91939 1957.4896 23.141771 1959.4062 22.40625 z M 1999.8125 24.15625 C 2000.3305 24.198528 2000.8322 24.461061 2001.4062 24.9375 C 2003.4428 26.627664 2003.4418 29.625117 2001.4062 30.40625 C 1996.6442 32.23362 1993.8841 27.346445 1998.1562 24.65625 C 1998.7602 24.275957 1999.2945 24.113972 1999.8125 24.15625 z "/>
</svg>
