<?xml version="1.0" encoding="UTF-8"?>
<svg xmlns="http://www.w3.org/2000/svg" viewBox="3589.11 17 32.18 88">
  <path d="M3591.1406 69.0C3591.1406 68.175 3591.5273 66.6 3592.0 65.5C3592.5417 64.239361 3592.8594 64.054521 3592.8594 65.0C3592.8594 65.825 3592.4727 67.4 3592.0 68.5C3591.4583 69.760639 3591.1406 69.945479 3591.1406 69.0Z M3591.666 75.647816C3591.2288 73.529115 3591.1145 71.552207 3591.412 71.254688C3592.3181 70.348568 3593.1702 73.657937 3592.8051 76.665527C3592.4846 79.306013 3592.4066 79.236363 3591.666 75.647816Z M3592.0 51.0C3592.0 50.45 3592.45 50.0 3593.0 50.0C3593.55 50.0 3594.0 50.45 3594.0 51.0C3594.0 51.55 3593.55 52.0 3593.0 52.0C3592.45 52.0 3592.0 51.55 3592.0 51.0Z M3592.1949 55.5C3592.2153 53.85 3592.4394 53.296064 3592.693 54.269032C3592.9465 55.241999 3592.9299 56.591999 3592.6559 57.269032C3592.382 57.946064 3592.1746 57.15 3592.1949 55.5Z M3600.3203 98.219319C3597.3202 94.161569 3593.8018 86.995061 3592.932 83.170776C3591.9531 78.86625 3592.5347 79.532273 3596.4504 87.199828C3599.8603 93.876775 3602.3545 95.576479 3603.3207 91.881623C3603.6393 90.663248 3603.9113 81.866457 3603.925 72.333198C3603.9544 51.929167 3603.9645 51.766671 3605.0 55.0C3605.4404 56.375 3605.8455 60.3125 3605.9003 63.75C3605.9742 68.385231 3606.3608 70.0 3607.3964 70.0C3609.056 70.0 3615.0 63.481083 3615.0 61.660984C3615.0 60.962802 3613.6292 58.229983 3611.9537 55.588053C3609.4284 51.606119 3608.4963 50.863133 3606.5038 51.244023C3603.9324 51.735574 3603.0 50.484604 3603.0 46.543213C3603.0 44.787786 3603.7139 44.107216 3606.0443 43.641144C3612.5119 42.347612 3613.545 29.927836 3607.315 28.364203C3605.7387 27.968591 3604.4901 28.207002 3604.002 28.996781C3603.4378 29.909685 3603.0293 29.667801 3602.5419 28.132128C3601.5153 24.897459 3600.1161 25.55419 3598.0296 30.25C3596.991 32.5875 3596.1139 33.825 3596.0804 33.0C3595.9592 30.011843 3600.8744 21.0 3602.6254 21.0C3604.8779 21.0 3612.7839 29.290833 3613.5886 32.496851C3614.4531 35.941275 3613.3142 39.882426 3610.3159 43.822508L3607.7876 47.145017L3609.7888 49.322508C3616.5733 56.704704 3617.5828 62.733294 3613.0 68.5C3609.6983 72.654633 3609.2435 75.127307 3611.4451 76.954418C3612.2399 77.614037 3614.3307 80.398635 3616.0914 83.142414L3619.2926 88.131103L3617.3073 90.815551C3614.7285 94.302523 3605.9474 100.98848 3603.9381 100.99496C3603.079 100.99773 3601.451 99.748693 3600.3203 98.219319Z M3593.0997 43.809017C3593.1545 43.089058 3593.5596 41.375 3594.0 40.0C3594.7646 37.61251 3594.8051 37.643607 3594.9003 40.690983C3594.9551 42.446024 3594.55 44.160081 3594.0 44.5C3593.45 44.839919 3593.0449 44.528976 3593.0997 43.809017Z M3612.8942 93.09879C3614.6024 91.503125 3616.0 89.288108 3616.0 88.17653C3616.0 85.616614 3609.9629 77.616534 3607.7026 77.181244C3606.1949 76.890879 3606.0 77.949017 3606.0 86.426676C3606.0 95.155174 3606.1672 96.0 3607.8942 96.0C3608.9361 96.0 3611.1861 94.694456 3612.8942 93.09879Z"/>
</svg>
