<?xml version="1.0" encoding="UTF-8"?>
<svg xmlns="http://www.w3.org/2000/svg" viewBox="893.52 18.52 30.29 85.41">
  <path d="M905.53523 95.802566C902.1847 87.440686 901.13221 83.388892 899.61204 73.0C897.76583 60.382969 895.51792 27.148744 896.44783 26.218834C897.91399 24.752676 898.73405 28.737768 899.45138 40.814617C899.86579 47.791578 900.30544 54.85 900.42837 56.5C900.55131 58.15 900.73022 60.7375 900.82595 62.25C901.05322 65.84093 902.45235 65.723032 906.02459 61.811936L908.93644 58.623871L908.41106 41.811936C908.09249 31.617543 908.25556 25.0 908.82536 25.0C909.91071 25.0 910.90279 35.22037 911.1793 49.250174C911.35195 58.009964 911.60614 59.220813 913.68179 61.170784C914.95247 62.364524 916.26899 63.064341 916.6074 62.725934C917.74963 61.583703 918.51264 45.569524 917.90461 35.5C917.31948 25.809823 917.8823 22.400566 919.61113 25.162868C921.80766 28.672462 920.04269 60.977525 916.60768 80.136462C914.31813 92.906494 911.91661 99.440552 909.37961 99.802566C907.70215 100.04193 906.8991 99.206373 905.53523 95.802566Z M906.58351 69.921551C908.68291 67.949259 908.95527 67.925507 911.91592 69.456521C914.79026 70.9429 915.08501 70.942034 915.65928 69.445517C916.05929 68.403117 915.20207 66.740534 913.26681 64.805268C910.33501 61.873474 910.17976 61.836108 907.69497 63.464205C904.57228 65.510275 901.7003 69.706059 902.51746 71.028246C903.39082 72.441381 904.10948 72.245777 906.58351 69.921551Z M912.89045 88.181901C914.0507 83.881946 915.0 79.116577 915.0 77.592193C915.0 74.636498 911.68331 71.090617 908.86501 71.033269C906.57711 70.986714 904.00276 75.303166 903.98551 79.214817C903.96588 83.667573 908.07099 96.0 909.57283 96.0C910.23727 96.0 911.7302 92.481855 912.89045 88.181901Z"/>
</svg>
