<?xml version="1.0" encoding="UTF-8"?>
<svg xmlns="http://www.w3.org/2000/svg" viewBox="694.86 18.36 32.64 89.29">
  <path d="M 725.28125 81.75 C 725.04065 82.276846 724.7427 82.535141 724.34375 82.6875 C 723.32455 83.076724 721.70671 84.145126 720.71875 85.0625 C 717.63919 87.922017 712.32156 90.350523 710.59375 89.6875 C 709.68447 89.338575 708.67373 88.285104 708.3125 87.34375 C 707.23666 84.540156 709.8506 64.434599 713.125 50.5 C 716.7341 35.141065 716.70664 27.819901 713.03125 24.84375 C 710.03766 22.41969 709.3344 22.503189 706.09375 25.75 C 702.17992 29.671269 698.92562 44.47112 698 62.53125 C 696.85719 84.829298 698.14209 94.93157 702.78125 100.25 C 705.69392 103.58916 714.53922 101.43421 720.5625 95.90625 C 721.9864 94.599447 723.11385 94.013207 723.875 94.125 L 724 93.5 L 724.75 87.96875 C 724.1279 90.564736 719.66771 94.567055 713.4375 97.90625 C 711.28232 99.061357 708.98016 100 708.3125 100 C 705.93463 100 701.99792 93.297938 700.90625 87.40625 C 698.50752 74.460477 701.81433 35.821006 706 28 C 707.27516 25.617354 711.54429 25.347528 712.40625 27.59375 C 713.49573 30.432899 713.04528 39.234617 711.46875 45.9375 C 710.61963 49.547639 709.50697 54.3 709 56.5 C 706.83478 65.895873 704.86902 82.625676 705.46875 86.625 C 706.04771 90.485725 706.45761 91.040319 709.59375 91.90625 C 712.67589 92.757271 713.62658 92.510231 717.53125 89.875 C 719.96483 88.232598 722.20942 86.458233 722.53125 85.9375 C 723.5077 84.357573 724.67964 84.934156 724.90625 86.78125 L 725.5 82.5 L 725.28125 81.75 z "/>
</svg>
