<?xml version="1.0" encoding="UTF-8"?>
<svg xmlns="http://www.w3.org/2000/svg" viewBox="1998 15.77 35.41 83.91">
  <path d="M 2000,39.875 2000,45.625 C 2002.3377,41.437027 2005.0234,36.682631 2006.7812,33.84375 2011.2981,26.548966 2013.1403,21.442817 2011,22.15625 2009.8004,22.556119 2007.9648,25.549327 2000,39.875 z M 2030.25,20.09375 C 2029.5565,20.397684 2027.8924,22.634069 2025.25,27.25 2022.9674,31.2375 2019.5144,36.962297 2017.5625,39.96875 2015.6107,42.975203 2014,46.012703 2014,46.71875 2014,50.835685 2018.5228,45.201354 2025.4375,32.5 2029.8271,24.436988 2031.4059,19.587193 2030.25,20.09375 z M 2006.5625,51.625 C 2006.1915,51.681254 2006.0371,53.060947 2006.0312,56 2006.0252,59.025 2005.4682,68.355855 2004.8125,76.75 2003.9014,88.412397 2003.8863,92.292497 2004.7812,93.1875 2006.6562,95.062484 2007.2795,93.459149 2007.1875,86.96875 L 2007.125,80.90625 2012.5,77.4375 C 2015.4679,75.538977 2018.4016,74 2019,74 2019.7163,74 2020.0151,77.090023 2019.9062,83.0625 2019.7523,91.509604 2019.5893,92.193759 2017.4688,93 2016.2162,93.476258 2014.8745,94.362779 2014.5,94.96875 2014.0317,95.726454 2014.7075,95.872809 2016.6562,95.40625 2022.1792,94.084028 2023.2499,93.062499 2022.5938,89.78125 2022.2601,88.113217 2021.9559,78.59375 2021.9062,68.625 2021.8456,56.447546 2021.528,51.502297 2020.9375,53.53125 2020.3164,55.665718 2018.4857,57.498221 2014.7188,59.78125 2011.7874,61.557802 2009.0733,63 2008.6875,63 2008.3017,63 2008.0084,60.8625 2008,58.25 2007.9916,55.6375 2007.5332,52.825 2007,52 2006.8273,51.732813 2006.6862,51.606249 2006.5625,51.625 z M 2020.1875,59 C 2021.4723,59 2020.1187,70.185769 2018.6562,71.625 2018.0289,72.242536 2015.3625,73.971525 2012.75,75.46875 L 2008,78.1875 2007.8438,75.34375 C 2007.5915,70.583523 2008.1307,66.564474 2009.1875,65.28125 2010.3839,63.828586 2018.838,59 2020.1875,59 z"/>
</svg>
