<?xml version="1.0" encoding="UTF-8"?>
<svg xmlns="http://www.w3.org/2000/svg" viewBox="3016.23 20.51 50.25 91.75">
  <path d="M3022.2264 105.75C3018.5188 101.19952 3019.2679 93.120072 3023.9932 86.694671L3026.8039 82.87268L3024.8657 77.358215C3023.2377 72.726299 3023.088 70.975457 3023.9305 66.418357C3024.4821 63.434391 3025.4164 60.090534 3026.0067 58.987564C3026.8918 57.333576 3026.5431 56.314116 3024.0162 53.169813C3020.6145 48.936777 3020.0468 45.019041 3021.8733 38.380547C3023.336 33.064592 3026.5637 29.0 3029.3226 29.0C3031.3769 29.0 3031.5 29.450352 3031.5 36.964286C3031.5 43.046091 3031.8917 45.320276 3033.1572 46.585773C3034.7001 48.128709 3035.2155 47.955722 3040.6322 44.076948C3044.9751 40.967057 3046.84 38.855081 3047.9885 35.746058C3050.0107 30.271735 3057.0167 24.682468 3060.2739 25.944965C3061.4983 26.419524 3062.3134 27.413544 3062.0854 28.1539C3061.8574 28.894255 3061.1274 33.044366 3060.4633 37.376369C3059.4649 43.889138 3059.5033 46.200111 3060.6848 50.724909C3062.4589 57.518482 3062.1107 61.367015 3059.6803 61.8282C3057.0788 62.321851 3050.1091 57.408723 3048.872 54.209156L3047.8245 51.5L3044.4031 55.427228C3042.5213 57.587203 3040.4772 61.187203 3039.8606 63.427228C3038.3293 68.990215 3040.0909 77.441684 3043.5299 81.031259L3046.0902 83.703592L3052.1276 77.795972C3055.4482 74.546781 3058.6904 72.068803 3059.3325 72.289354C3060.5227 72.698169 3060.5314 73.604228 3059.4543 85.0C3058.9122 90.735954 3059.1397 92.057924 3061.39 96.24645C3064.2013 101.47941 3063.9411 104.0 3060.5894 104.0C3057.0881 104.0 3048.5817 99.286122 3045.0202 95.372262C3042.1399 92.207032 3041.3333 91.846507 3038.2511 92.346678C3033.7278 93.080708 3031.5878 95.099187 3028.3786 101.65869C3025.7618 107.00707 3024.1332 108.09019 3022.2264 105.75Z M3029.5205 95.577242L3034.3044 89.654484L3031.4022 87.302189L3028.5 84.949894L3025.8422 88.076738C3022.7067 91.765615 3021.4562 97.115296 3023.0383 100.07163C3023.6564 101.22645 3024.2913 102.02025 3024.4493 101.83565C3024.6073 101.65104 3026.8894 98.834759 3029.5205 95.577242Z M3030.6191 51.523721C3031.9208 50.222015 3031.9124 49.508368 3030.5477 45.488773C3029.6965 42.981506 3029.0 39.145832 3029.0 36.965053C3029.0 31.887755 3027.6534 31.909666 3025.6086 37.020236C3023.5912 42.06226 3023.5645 46.257102 3025.5257 50.04966C3027.2305 53.346337 3028.445 53.697835 3030.6191 51.523721Z M3060.0 100.45034C3060.0 100.14803 3059.3591 98.661294 3058.5758 97.14649C3057.0053 94.109482 3056.3177 82.789323 3057.4888 79.25C3057.9025 77.999633 3057.8215 77.0 3057.3065 77.0C3055.8897 77.0 3050.1652 82.904139 3049.4757 85.076517C3048.5958 87.848956 3046.6262 87.456239 3042.6625 83.718053C3037.879 79.206609 3035.2574 70.421875 3036.9794 64.67436C3038.4357 59.81357 3040.3661 56.571207 3044.3763 52.25C3048.1233 48.212294 3049.469 48.171136 3051.1662 52.042319C3051.8998 53.715595 3054.0233 55.986306 3055.8852 57.088345L3059.2703 59.092052L3058.3852 54.796026C3057.8983 52.433212 3057.6059 45.650212 3057.7353 39.722694C3057.9567 29.579012 3057.8637 29.002576 3056.153 29.918097C3053.4704 31.353799 3052.3353 33.004984 3050.3172 38.407486C3049.0364 41.835853 3047.5762 43.765954 3045.3707 44.945522C3043.6495 45.866028 3040.8394 47.798761 3039.126 49.240484C3037.4127 50.682208 3035.1885 52.122793 3034.1834 52.441785C3031.6112 53.258169 3027.7772 60.519965 3026.8621 66.308575C3025.3482 75.885836 3030.8044 85.237606 3039.9342 88.713622C3042.4454 89.66972 3045.9712 91.919013 3047.7694 93.712051C3051.9079 97.838766 3060.0 102.29699 3060.0 100.45034Z"/>
</svg>
