<?xml version="1.0" encoding="UTF-8"?>
<svg xmlns="http://www.w3.org/2000/svg" viewBox="3689.52 11.8 76.46 93.97">
  <path d="M3719.1611 99.161052C3718.1244 98.12442 3716.4421 95.864107 3715.4225 94.138134C3714.403 92.41216 3713.2274 91.0 3712.8101 91.0C3711.9486 91.0 3709.0 85.636551 3709.0 84.06959C3709.0 83.503239 3711.7 80.060517 3715.0 76.419098C3718.3 72.777678 3721.0 69.207253 3721.0 68.484819C3721.0 66.168283 3713.6101 58.996043 3710.2513 58.052734C3707.7582 57.352568 3706.6479 57.494966 3705.4779 58.664908C3702.4843 61.658514 3700.7009 66.562512 3700.5557 72.199844C3700.3858 78.800208 3699.9357 79.571149 3697.1294 78.069254C3694.8292 76.838227 3693.0139 71.38808 3693.0056 65.688075C3692.9939 57.691407 3701.7679 44.98544 3707.2848 45.009769C3708.5032 45.015142 3711.9072 46.140142 3714.8493 47.509769C3723.9289 51.736532 3725.3195 50.910644 3723.9294 42.117158C3722.0419 30.176707 3719.433 26.611484 3715.1316 30.09453C3712.2583 32.421186 3710.1589 32.500043 3707.1525 30.394245C3705.1571 28.996634 3704.9485 28.251295 3705.543 24.644245C3706.7833 17.11964 3709.7814 16.0748 3716.0 21.0C3718.0833 22.65 3720.0307 24.0 3720.3275 24.0C3720.6243 24.0 3723.0941 22.615616 3725.816 20.923592L3730.7649 17.847183L3735.6371 20.316095L3740.5092 22.785006L3745.3722 20.313597C3751.8521 17.020391 3754.5361 17.719511 3756.1548 23.122268C3757.1722 26.518148 3757.1355 27.662563 3755.942 29.763777C3753.3541 34.319715 3751.558 34.718409 3747.3135 31.67909L3743.5 28.94846L3741.2419 31.72423C3738.3631 35.263 3737.0126 40.087159 3737.0056 46.856989C3737.0015 50.770991 3737.3367 52.0657 3738.25 51.663508C3750.5505 46.246665 3751.9095 45.901858 3754.8882 47.442176C3759.9767 50.073535 3762.5 55.456949 3762.5 63.681645C3762.5 70.254155 3762.2524 71.121992 3759.5804 73.913358C3757.3438 76.249906 3756.3496 76.705124 3755.3304 75.859268C3754.5987 75.251982 3754.0 73.887864 3754.0 72.827895C3754.0 70.208965 3751.6935 65.970092 3748.7963 63.26483C3746.5848 61.19972 3746.2352 61.146971 3744.2013 62.571534C3741.0161 64.802558 3741.4466 67.343998 3746.4911 76.089662L3750.9821 83.875852L3749.1198 88.187926C3748.0956 90.559567 3745.4327 94.525 3743.2022 97.0L3739.147 101.5L3736.9159 99.314657L3734.6849 97.129313L3736.9057 91.038451L3739.1265 84.947589L3735.8391 80.723794C3731.2853 74.872943 3730.8923 74.731926 3727.6708 77.792729C3722.3653 82.83362 3721.747 85.12461 3724.1389 90.880101C3726.4241 96.378971 3726.2015 98.286618 3723.0794 99.957504C3721.4543 100.82724 3720.6673 100.66727 3719.1611 99.161052Z M3720.9495 89.8921L3718.6954 85.079569L3722.9142 79.611228C3725.2345 76.60364 3728.1752 73.459987 3729.4491 72.625333C3732.2801 70.770374 3733.129 71.35585 3738.5057 78.871304C3742.25 84.105069 3742.3168 84.348328 3741.115 88.371304C3738.3711 97.555411 3738.5052 97.899638 3742.9564 93.100609C3745.2007 90.680944 3747.3194 87.57562 3747.6647 86.199889C3748.3148 83.609448 3746.4672 79.158761 3742.3924 73.5C3738.0964 67.534029 3738.4726 62.886051 3743.5191 59.579472C3746.216 57.812373 3746.227 57.815784 3750.125 61.622072C3752.2725 63.719033 3754.8402 66.996852 3755.831 68.906115C3758.8406 74.705404 3760.0026 73.984478 3759.978 66.333333C3759.9552 59.231642 3757.832 52.753748 3754.6694 50.136653C3752.4721 48.318353 3747.2344 49.351684 3742.5562 52.526444C3737.7842 55.76481 3735.2205 55.726824 3734.3869 52.405399C3733.4887 48.8265 3735.3749 38.262439 3737.9031 32.712702C3739.0564 30.181066 3740.0 27.679488 3740.0 27.15364C3740.0 26.627791 3738.3621 25.231164 3736.3602 24.050023C3732.0147 21.486134 3728.3144 21.97203 3724.9553 25.547599L3722.6594 27.991452L3724.9022 34.745726C3726.4324 39.353836 3727.0426 43.24762 3726.8225 47.0L3726.5 52.5L3722.8268 52.805784C3720.3863 53.008956 3717.4612 52.253919 3714.1101 50.555784C3711.3361 49.150103 3708.0107 48.0 3706.7203 48.0C3704.1569 48.0 3700.3837 51.531946 3697.1057 57.0C3693.8227 62.476252 3694.4843 76.0 3698.0352 76.0C3698.5658 76.0 3699.0 73.801386 3699.0 71.114192C3699.0 64.858951 3703.5125 55.656842 3706.8146 55.178175C3712.7507 54.317684 3723.965 62.582069 3723.9892 67.835108C3723.9959 69.285907 3721.6945 72.764338 3717.912 77.020268C3713.2081 82.313039 3711.9731 84.339739 3712.4794 85.935161C3712.8399 87.070822 3713.5457 88.0 3714.048 88.0C3714.5503 88.0 3716.6574 90.27734 3718.7306 93.060755C3723.2425 99.118346 3724.4579 97.382689 3720.9495 89.8921Z M3714.5589 27.580592C3716.4605 26.190075 3716.4507 26.108656 3714.0757 23.580592C3711.1673 20.48476 3709.3581 20.296366 3708.5 23.0C3706.9339 27.934479 3710.4449 30.588859 3714.5589 27.580592Z M3753.393 29.418213C3754.486 26.569932 3754.0303 22.270021 3752.5009 21.00075C3751.3113 20.013473 3750.3891 20.010406 3748.0341 20.985892C3742.9533 23.090407 3742.5711 24.417244 3746.0449 27.891051C3749.4335 31.279684 3752.439 31.904313 3753.393 29.418213Z"/>
</svg>
