<?xml version="1.0" encoding="UTF-8"?>
<svg xmlns="http://www.w3.org/2000/svg" viewBox="3169.72 11.81 88.29 92.17">
  <path d="M 3253.5312,44.21875 C 3252.7979,46.045759 3251.6877,47.151106 3249.6562,48.1875 3247.4118,49.332557 3244.4232,51.081627 3243.0312,52.0625 3238.0439,55.577131 3236.4223,55.426859 3231.6875,51.0625 3226.9186,46.666622 3222.9376,45.821458 3219.4375,48.46875 3218.3699,49.276258 3217.1625,49.951258 3216.75,49.96875 3215.3908,50.026386 3215.967,38.012842 3217.5,34.34375 3218.9609,30.847328 3219.1141,30.76488 3223.125,31.40625 3229.1895,32.375991 3232,30.256341 3232,24.6875 3232,22.335179 3231.4725,19.8475 3230.8125,19.1875 3228.9517,17.326676 3224.547,17.777331 3221.5625,20.125 L 3218.8438,22.25 3215.625,19.125 C 3213.85,17.40463 3211.7027,16 3210.8438,16 3209.9848,16 3207.1522,17.876694 3204.5625,20.15625 L 3199.875,24.28125 3197.1875,22.125 C 3190.3308,16.606263 3187.2154,16.920678 3185.5938,23.3125 3183.6721,30.886706 3188.9081,35.071178 3195.3438,31.09375 3199.8873,28.285658 3200.6775,28.432371 3201.8438,32.25 3203.1701,36.591441 3203.9419,48.475911 3203,50 3202.0733,51.49946 3198.9034,50.576062 3193.7812,47.34375 3191.7296,46.0491 3189.1625,45 3188.0938,45 3182.4903,45 3174.0339,58.413265 3173.875,67.5625 3173.7373,75.498846 3177.2904,82.095339 3178.5625,76.28125 3179.7044,71.061891 3181.0534,68.444347 3184.7812,64.28125 3190.3468,58.065565 3192.306,57.934888 3195,63.5 3197.4784,68.619494 3197.6694,68.096704 3190.3125,75.71875 3188.0116,78.10259 3185.9724,81.0566 3185.7812,82.28125 3185.4181,84.608204 3187.2329,88.173702 3190.3438,91.3125 3191.3502,92.328 3192.6276,94.487672 3193.1875,96.09375 3194.3753,99.501189 3196.2058,99.794236 3198.9688,97.03125 3201.9048,94.095149 3202.5707,90.28489 3200.5312,88.03125 3198.3375,85.607253 3199.1111,83.253875 3203.5,79 L 3206.9688,75.625 3209.5625,78.0625 C 3210.9917,79.401789 3212.8774,81.714191 3213.75,83.1875 3215.7331,86.536072 3217.7322,87.06389 3222.2812,85.5 3225.7578,84.304796 3225.9642,84.375996 3229.625,88.125 3231.6955,90.245378 3234.1747,92.229629 3235.125,92.53125 3237.6592,93.335551 3244,90.41574 3244,88.4375 3244,87.099391 3243.7065,86.988089 3242.5625,87.9375 3241.7756,88.590547 3239.7061,89.169354 3237.9688,89.21875 3235.4222,89.291156 3234.086,88.453121 3231.0312,84.90625 3227.3,80.574007 3227.2023,80.524247 3223.8125,81.75 3218.827,83.552795 3218.5976,83.477316 3213.3125,78 3210.6619,75.252968 3207.9154,73.002968 3207.2188,73 3205.628,72.993224 3197.2176,81.69836 3196.4375,84.15625 3196.1186,85.161186 3196.5773,86.990598 3197.4375,88.21875 3199.1496,90.663043 3199.4916,93.580917 3198.1562,94.40625 3196.9572,95.147288 3189,85.127935 3189,82.875 3189,81.851818 3191.2453,78.719552 3194,75.90625 3196.7547,73.092948 3199.2805,69.748012 3199.5938,68.5 3200.2367,65.938681 3195.9241,56.56507 3193.7188,55.71875 3191.3292,54.801843 3184.2615,61.263625 3180.3125,67.96875 L 3176.5,74.4375 3176.1875,69.96875 C 3175.7616,64.130714 3177.3855,58.627853 3181.3125,52.75 3184.8699,47.425273 3187.3277,46.138477 3189.8125,48.28125 3191.7265,49.931847 3202.3706,55 3203.9062,55 3206.5585,55 3206.3712,46.405889 3203.3438,28.40625 3202.922,25.898904 3203.4246,24.731666 3206,22.15625 3207.7418,20.414483 3209.7683,19 3210.5312,19 3212.1487,19 3217.0214,25.744126 3217,27.96875 3216.992,28.803576 3216.3339,31.31813 3215.5625,33.53125 3214.791,35.744369 3213.849,40.704894 3213.4688,44.5625 3212.906,50.274392 3213.0806,51.826686 3214.3438,52.875 3215.6393,53.950205 3216.5224,53.713264 3219.6875,51.5625 3221.7717,50.146281 3223.798,49 3224.2188,49 3224.6394,49 3226.6859,50.498124 3228.75,52.34375 3234.6767,57.643144 3236.4794,58.335627 3239.9688,56.53125 3241.6085,55.683281 3244.608,53.868725 3246.625,52.5 3250.9942,49.534956 3253.4366,49.390828 3253.8438,51.8125 L 3253.5312,44.21875 z M 3225.75,20.46875 C 3226.4096,20.301772 3227.0399,20.47384 3227.9062,20.9375 3230.2128,22.171923 3230.7101,25.914858 3228.8125,27.8125 3227.5291,29.095897 3222.761,29.448588 3221.6562,28.34375 3220.3045,26.992089 3221.0659,24.292368 3223.4062,22.09375 3224.4014,21.158873 3225.0904,20.635728 3225.75,20.46875 z M 3189.9062,21.09375 C 3191.008,21.046107 3192.368,21.774907 3193.8125,23.3125 3196.4955,26.168454 3196.5673,27.628253 3194.0625,28.96875 3189.2136,31.563839 3186.189,29.066319 3187.5625,23.59375 3187.9685,21.976139 3188.8045,21.141393 3189.9062,21.09375 z M 3253.875,52.96875 C 3253.6242,54.577082 3252.2692,55.902052 3248.25,58.3125 3245.0875,60.209127 3240.7789,62.319307 3238.6562,63 3235.1671,64.118909 3234.5437,64.016484 3232.1562,62.09375 3224.2905,55.75893 3219.6496,55.683766 3216.1875,61.84375 3213.7238,66.227321 3213.4192,69.656387 3215.1562,73.46875 3216.6453,76.736812 3219.755,77.521275 3224.0938,75.71875 3227.4628,74.319048 3227.5406,74.354012 3231.0938,78.15625 3233.0717,80.272942 3235.0911,82 3235.5938,82 3236.9408,82 3242.2252,76.881517 3241.5625,76.21875 3241.2506,75.906907 3239.8529,76.259246 3238.4688,77 3236.1379,78.247467 3235.724,78.126777 3232.5625,75.0625 3229.7275,72.314731 3228.6535,71.854746 3226.3125,72.4375 3220.3942,73.910755 3218.6749,73.59386 3217.0625,70.75 3215.6064,68.181826 3215.6388,67.718194 3217.875,63.5 3219.2022,60.99633 3220.9799,58.994608 3221.875,59 3222.761,59.005338 3225.4914,60.580338 3227.9062,62.5 3233.6278,67.048201 3236.0224,67.279325 3243.2812,63.90625 3248.6741,61.400214 3251.1069,59.876582 3252.7812,58 3253.0042,57.75009 3253.1951,57.727283 3253.3438,57.875 L 3254,56 3253.875,52.96875 z M 3244.0625,81.1875 C 3243.7369,81.212025 3243.2719,81.35752 3242.6562,81.59375 3241.7526,81.94054 3241,82.898601 3241,83.75 3241,85.05843 3241.3044,85.034551 3243,83.5 3244.6908,81.969867 3245.0392,81.113924 3244.0625,81.1875 z"/>
</svg>
