<?xml version="1.0" encoding="UTF-8"?>
<svg xmlns="http://www.w3.org/2000/svg" viewBox="2254.34 21.51 69.83 85.33">
  <path d="M2276.748 99.414706C2276.4261 99.092806 2277.7011 96.204592 2279.5814 92.996452C2281.4616 89.788313 2283.0 86.445584 2283.0 85.568167C2283.0 82.837556 2280.7994 80.239702 2278.9058 80.73489C2277.9261 80.991074 2276.0964 80.480527 2274.8398 79.60034C2271.675 77.383639 2269.3756 77.589852 2264.3379 80.542154C2261.952 81.940338 2260.0 82.653811 2260.0 82.127648C2260.0 80.705638 2268.8918 76.0 2271.5789 76.0C2272.8587 76.0 2275.054 76.523098 2276.4572 77.162441C2277.8604 77.801783 2279.2104 78.122891 2279.4573 77.876014C2279.7042 77.629137 2279.232 75.127438 2278.4081 72.316683C2277.2075 68.221035 2276.1023 66.671695 2272.8424 64.514429L2268.7749 61.822638L2264.3266 65.017146C2258.9355 68.888719 2257.5176 68.306909 2262.1545 64.125921C2267.9545 58.896339 2269.4189 58.450022 2272.8235 60.874309C2274.4654 62.043439 2276.0403 63.0 2276.3234 63.0C2276.6064 63.0 2277.3124 60.8625 2277.8923 58.25C2278.9156 53.63931 2278.8556 53.416427 2275.8461 50.650441C2272.2386 47.334926 2268.4929 47.507129 2264.8438 51.15625C2263.3337 52.666309 2262.4924 52.977218 2262.2099 52.129636C2261.6497 50.449139 2264.4967 47.451132 2268.0505 45.979067C2270.5442 44.946156 2271.5364 45.077662 2275.0441 46.905986C2279.9151 49.444862 2281.0 49.003505 2281.0 44.48309C2281.0 41.885213 2280.0573 40.093268 2277.0 36.87934C2274.8 34.56666 2273.0 32.297712 2273.0 31.837233C2273.0 29.90559 2275.7512 31.260684 2279.3397 34.95985C2284.1916 39.961408 2285.0924 44.931763 2282.3844 51.758117C2279.6073 58.75834 2280.033 70.832005 2283.3113 78.046668C2287.2361 86.684104 2287.2594 86.384709 2282.1135 93.443176C2279.4844 97.049418 2277.0699 99.736606 2276.748 99.414706Z M2284.0792 33.75C2277.824 28.185724 2276.3436 25.388044 2280.25 26.513426C2281.4875 26.869937 2283.4254 28.137761 2284.5564 29.330814C2285.6874 30.523866 2287.6054 32.362157 2288.8185 33.415905C2291.0235 35.331267 2291.0252 35.330611 2294.6463 31.10013C2297.0321 28.312885 2298.6057 27.205738 2299.2566 27.856584C2299.9074 28.50743 2298.7523 30.577746 2295.8724 33.921868C2293.4676 36.714301 2291.1582 38.999239 2290.7405 38.999509C2290.3229 38.999779 2287.3252 36.6375 2284.0792 33.75Z M2289.8507 99.571665C2288.7169 97.083139 2288.5995 97.052083 2286.7201 98.743115C2284.8512 100.42477 2284.7832 100.41895 2285.1338 98.607183C2285.7719 95.309048 2288.3944 94.459349 2291.3429 96.595377C2294.0324 98.543721 2294.4737 101.01009 2292.2644 101.74568C2291.5847 101.97196 2290.4986 100.99365 2289.8507 99.571665Z M2297.4937 99.915015C2296.9402 99.136757 2295.3919 96.394147 2294.053 93.820327L2291.6186 89.140653L2295.2435 81.320327C2300.0374 70.978187 2300.7266 64.626799 2298.4784 51.510474L2296.7069 41.175779L2299.2958 36.758168C2302.1427 31.900327 2305.0 28.974945 2305.0 30.918048C2305.0 31.557663 2304.0876 33.315139 2302.9723 34.823549C2300.3031 38.43382 2299.5449 43.596012 2300.9288 48.73548L2302.0498 52.898713L2306.5214 49.880862C2309.5202 47.857037 2311.6547 47.073024 2313.0019 47.500606C2315.9053 48.422106 2321.0 52.937272 2321.0 54.588894C2321.0 56.786147 2319.4229 56.269074 2316.1538 53.0C2312.5522 49.398342 2311.3294 49.304187 2306.8979 52.287265C2303.6246 54.490654 2303.4721 54.881394 2302.7387 62.942642C2302.32 67.545104 2302.1685 71.501791 2302.4019 71.73528C2302.6354 71.968769 2303.878 71.496114 2305.1632 70.684936C2306.4485 69.873757 2308.2158 69.500301 2309.0908 69.855033C2312.0669 71.061703 2317.0 75.864815 2317.0 77.555902C2317.0 78.832894 2315.8817 78.324568 2312.3818 75.456691L2307.7637 71.672457L2304.2661 73.556022C2302.3425 74.591983 2300.5737 76.128181 2300.3355 76.969794C2300.0974 77.811407 2298.7096 80.84994 2297.2514 83.72209L2294.6003 88.94418L2296.8687 92.980121C2299.1216 96.988622 2299.6598 102.96095 2297.4937 99.915015Z"/>
</svg>
