<?xml version="1.0" encoding="UTF-8"?>
<svg xmlns="http://www.w3.org/2000/svg" viewBox="213.68 28.4 30.34 68.73">
  <path d="M224.44941 90.757513C220.36726 85.906145 217.96206 79.421635 216.9356 70.5C215.67911 59.578986 215.72424 34.0 217.0 34.0C217.6062 34.0 218.0 38.341893 218.0 45.02568L218.0 56.05136L220.75 54.610539C226.66714 51.510343 228.0 49.36867 228.0 42.961045C228.0 39.68247 228.43345 37.0 228.96323 37.0C229.49301 37.0 229.87987 39.8125 229.82292 43.25C229.72926 48.904482 230.0092 49.809669 232.76091 52.75C234.43374 54.5375 236.26655 56.0 236.83382 56.0C238.58322 56.0 239.20969 52.159362 238.84742 43.655384C238.4629 34.629104 240.27606 31.520443 240.8413 40.236877C242.0143 58.325515 233.87074 94.0 228.56857 94.0C227.80364 94.0 225.95002 92.540881 224.44941 90.757513Z M223.65278 62.0C227.81239 58.347812 228.67534 58.306624 233.05572 61.551207C236.2307 63.902937 236.52306 63.956697 236.79497 62.23877C237.13667 60.079882 230.87887 53.0 228.62895 53.0C227.80101 53.0 225.08502 54.2375 222.59341 55.75C218.73254 58.093694 218.05855 58.98018 218.03161 61.75C217.99237 65.784312 219.27759 65.841472 223.65278 62.0Z M232.15096 83.425321C233.60898 79.616394 235.23807 74.572114 235.77115 72.215808C236.71445 68.046267 236.6441 67.852247 233.14235 64.965808C231.16343 63.334614 228.9241 62.0 228.16606 62.0C227.40802 62.0 225.03555 63.387813 222.8939 65.084029C219.74544 67.577656 219.0 68.814921 219.0 71.547009C219.0 77.780405 225.79885 91.553844 228.45031 90.691886C229.02764 90.504201 230.69293 87.234247 232.15096 83.425321Z"/>
</svg>
