<?xml version="1.0" encoding="UTF-8"?>
<svg xmlns="http://www.w3.org/2000/svg" viewBox="115.54 11.43 53.05 90.85">
  <path d="M150.5 97.267236C149.4 96.991818 147.36814 95.963595 145.98475 94.982297C143.72677 93.380615 143.18594 93.346688 140.69732 94.650607C139.17262 95.449476 135.80449 96.350943 133.21257 96.653869C121.03397 98.077221 117.94653 85.241813 126.48878 68.701076C128.41995 64.961668 130.0 61.08104 130.0 60.077457C130.0 59.073874 128.18748 56.28339 125.97218 53.876381C121.41334 48.923019 120.53245 46.52253 121.26618 41.052154C121.81061 36.993111 127.85813 24.015415 130.95354 20.263517C133.58412 17.075038 137.89269 15.556767 138.65714 17.548892C139.2147 19.001895 137.47145 24.779846 134.39663 31.670165C131.7005 37.711873 131.63674 40.618161 134.08918 45.684224C137.13156 51.968939 140.49403 55.0 144.42352 55.0C150.58666 55.0 153.93049 50.623869 157.9968 37.236445C159.20619 33.254802 160.67453 29.701149 161.25979 29.339438C161.84506 28.977727 163.20504 29.765881 164.28198 31.090891C165.99723 33.20124 166.1723 34.554109 165.6937 42.0C165.06442 51.790078 162.65561 58.746791 157.95727 64.343047C154.7797 68.127889 154.57529 68.208387 149.60002 67.634137C146.79501 67.31038 143.4363 66.922754 142.13622 66.772744C137.04487 66.18528 130.0029 80.488607 134.10475 83.085904C137.13782 85.006444 140.07843 83.913324 145.09625 79.0C151.46075 72.76805 153.46773 72.476179 152.74183 77.888117C152.21398 81.823563 154.59419 89.013126 156.89587 90.435646C158.36432 91.343196 158.30479 95.295214 156.8 96.8C155.56957 98.030435 154.01008 98.146093 150.5 97.267236Z M155.24088 94.425788C155.5567 94.109971 154.5067 91.364275 152.90755 88.324242C151.3084 85.284208 149.98213 81.380104 149.96029 79.648454L149.92059 76.5L145.71029 81.055096C140.75226 86.419167 139.43633 87.041162 134.97586 86.128899C132.43565 85.60937 131.45083 84.778099 130.88966 82.679801C129.84956 78.790731 132.33741 72.372445 136.90512 67.160807L140.70817 62.821613L145.38903 64.410807C151.72962 66.563491 152.93357 66.437822 156.23049 63.279174C159.97455 59.692142 164.22741 46.062965 163.8031 39.011178C163.6364 36.240595 163.05 33.929362 162.5 33.875106C161.95 33.820849 160.56847 36.414255 159.42992 39.638229C154.95821 52.300623 152.15796 56.169299 146.42227 57.608864C140.5528 59.082009 131.49354 50.064862 130.39041 41.651522C129.9915 38.609091 130.53452 35.690619 132.42304 30.727171C133.84037 27.002115 135.0 22.964615 135.0 21.754949C135.0 19.569067 134.98837 19.567672 133.10634 21.527778C132.06482 22.6125 129.58982 26.679247 127.60634 30.564994C124.80635 36.050315 124.0 38.815476 124.0 42.932015C124.0 47.798386 124.32657 48.550968 127.97444 52.091109C133.69732 57.644971 133.88079 59.600036 129.42654 67.564976C123.33186 78.463278 122.08595 87.783856 126.08043 92.596918C127.92409 94.818388 137.18505 94.428882 140.27287 92.0C143.35072 89.578961 144.35035 89.512295 146.09284 91.611862C148.23418 94.19202 153.7714 95.895263 155.24088 94.425788Z"/>
</svg>
