<?xml version="1.0" encoding="UTF-8"?>
<svg xmlns="http://www.w3.org/2000/svg" viewBox="825.39 17.11 56.66 87.65">
  <path d="M866.39028 98.420264C864.67993 97.576457 861.25539 94.774203 858.7802 92.193034C853.2597 86.436179 844.21379 82.748431 841.37927 85.099194C839.25308 86.862514 837.0 92.166703 837.0 95.408864C837.0 100.77849 832.9773 99.650284 829.96956 93.437113C828.05962 89.491718 827.96187 88.50066 828.99279 83.534713C829.72488 80.008263 830.88751 77.491773 832.21386 76.562761C833.95348 75.34428 834.34359 73.846085 834.62458 67.304517C834.80896 63.012033 835.48186 57.839837 836.11992 55.810749C837.18432 52.425844 837.06552 51.866572 834.6798 49.031312C831.14288 44.827925 830.41849 40.154872 832.40161 34.33473C834.21078 29.025122 837.81529 23.296417 839.84024 22.512415C842.008 21.673122 843.10593 22.933557 842.0027 24.994947C840.90596 27.044232 840.68496 34.223512 841.6122 37.680825C843.00425 42.871287 848.34093 40.920686 854.46023 32.98476C856.68211 30.103286 860.075 26.931672 862.0 25.936729C868.75166 22.447112 872.50153 21.09497 872.82891 22.032006C873.0098 22.549791 872.05525 25.34191 870.70768 28.236716C867.2686 35.624408 866.55239 45.202287 869.07001 50.137232C870.36423 52.674116 870.63517 54.107446 869.9057 54.558284C868.72121 55.290335 862.03593 52.652321 857.83086 49.793549C855.18838 47.997088 855.14092 48.005387 853.08086 50.624339C849.60485 55.043358 850.59239 70.449529 854.60912 74.466259C857.01557 76.872717 859.20603 76.303328 863.51028 72.152479C868.96763 66.88963 871.83954 65.41827 872.63064 67.479853C872.96118 68.341209 872.7817 70.818463 872.23181 72.984863C870.70248 79.009948 873.39363 90.387481 877.39901 94.830592C879.47074 97.128729 879.47297 97.180949 877.55887 98.580592C875.04194 100.42104 870.30799 100.35308 866.39028 98.420264Z M835.59129 89.75C836.49475 87.9625 838.19381 85.447623 839.36697 84.161384L841.5 81.822768L838.5 79.416351C836.85 78.092822 835.23473 77.007699 834.91052 77.004967C832.7836 76.987045 831.10342 87.499982 832.60699 91.418213C833.44686 93.606882 833.71871 93.45492 835.59129 89.75Z M841.42739 45.8002C842.77475 43.876573 842.78803 43.325435 841.53313 41.410225C840.74385 40.205629 839.79304 36.920539 839.42021 34.110025C838.36991 26.192491 835.49374 27.947732 834.41013 37.167523C833.40337 45.733478 837.73859 51.066696 841.42739 45.8002Z M874.18369 97.482972C874.46806 97.198606 873.42115 93.261106 871.85723 88.732972C869.53865 82.019841 869.12851 79.511013 869.6355 75.142663L870.25727 69.785325L867.60276 71.524623C866.14279 72.481237 864.02926 74.554539 862.90604 76.131961C860.47823 79.541493 857.3291 79.833307 853.70725 76.984363C850.27102 74.281421 848.67358 68.988784 848.6698 60.294251C848.66707 54.026433 849.03147 52.562084 851.46933 49.044251C853.0108 46.819913 854.68468 45.0 855.18905 45.0C855.69343 45.0 857.76169 46.125 859.78519 47.5C861.80868 48.875 863.95681 50.0 864.5588 50.0C865.2189 50.0 865.71233 47.519312 865.80198 43.75C865.88374 40.3125 866.57766 34.9125 867.34403 31.75C868.62313 26.471703 868.59905 26.0 867.0505 26.0C864.27297 26.0 857.0471 32.221202 855.34578 36.077328C854.38178 38.262298 852.35837 40.426356 850.19359 41.587665C842.03537 45.964182 838.10441 53.316412 837.82403 64.722935C837.71889 69.000321 837.95234 73.4 838.3428 74.5C839.20262 76.922243 849.18423 83.373577 854.58978 85.000788C856.99392 85.724496 859.46291 87.467099 861.0 89.525101C862.375 91.366082 864.4 93.36888 865.5 93.975763C866.6 94.582646 868.625 95.729736 870.0 96.524852C872.73667 98.107376 873.406 98.260662 874.18369 97.482972Z"/>
</svg>
