<?xml version="1.0" encoding="UTF-8"?>
<svg xmlns="http://www.w3.org/2000/svg" viewBox="195.83 13.36 99.6 94.33">
  <path d="M 290.90625,22.25 C 289.79616,22.18555 288.22905,23.373252 285.875,25.5 283.74426,27.425 281.56554,29 281.03125,29 280.17664,29 276.69207,34.574726 277.125,35.25 278.10385,36.776794 269.51609,54.405623 264.65625,60.84375 259.14679,68.142466 257.39284,68.659751 250.03125,65.09375 246.76622,63.51215 242.87956,61.252657 241.40625,60.09375 236.86896,56.524713 235.24577,57.276687 233.4375,63.75 232.55408,66.9125 231.60215,70.347428 231.3125,71.375 230.96443,72.609779 231.24174,73.096505 232.09375,72.8125 232.80279,72.576154 234.10265,70.182451 235,67.5 235.89735,64.817549 237.16919,62.433185 237.8125,62.21875 238.4558,62.004314 240.22949,62.732262 241.75,63.8125 243.27052,64.892739 247.30488,66.958145 250.75,68.40625 256.54892,70.843741 257.25529,70.933368 259.90625,69.5625 261.48119,68.748071 264.98435,65.014505 267.71875,61.28125 272.63462,54.569676 279.99905,39.067982 280,35.40625 280.00041,33.833748 286.65457,27.317963 289.34375,25.84375 L 290.90625,22.25 z M 268.71875,17.84375 C 267.61793,17.642869 267.89314,19.861436 270.25,23.5 273.02066,27.777406 274.52284,27.859781 279.28125,23.9375 284.36712,19.745297 283.96954,18.34958 278.59375,21.5 L 274.1875,24.0625 272.03125,21.03125 C 270.54645,18.94604 269.37924,17.964278 268.71875,17.84375 z M 245.15625,18.625 C 244.52451,19.131892 243.84294,20.873222 243,23.96875 241.57732,29.193287 234.60221,38.616425 230.84375,40.40625 229.2907,41.145837 228.34179,40.657902 225.96875,37.90625 224.34707,36.025834 222.77126,33.375 222.46875,32 222.16623,30.625 221.49967,28.126549 220.96875,26.4375 220.43782,24.748451 220,22.175886 220,20.75 220,18.417543 219.72414,18.240673 217.25,18.875 210.8866,20.506465 208.24615,33.458929 212.46875,42.3125 214.25394,46.055541 214.24313,46.144574 212.21875,47.5625 207.43437,50.913614 202.61458,63.650585 205.03125,66.5625 205.91828,67.6313 207.04324,67.191011 210.8125,64.3125 216.38502,60.056884 219.73659,58.392844 220.75,59.40625 221.15797,59.814222 221.56906,63.39988 221.65625,67.34375 221.74344,71.28762 221.85374,74.69 221.90625,74.9375 221.95877,75.185 222.56268,74.843571 223.25,74.15625 224.73892,72.667332 224.46404,59.252015 222.90625,57.375 221.61159,55.815028 217.68516,56.901157 212.28125,60.3125 210.05024,61.72087 207.99004,62.677541 207.71875,62.40625 207.44746,62.134958 207.61107,60.222464 208.0625,58.1875 208.87794,54.511655 214.92662,48 217.53125,48 218.19727,48 219.29229,47.37119 219.9375,46.59375 220.88155,45.456242 220.52575,44.81162 218.09375,43.375 214.70532,41.373404 213,37.54726 213,31.875 213,28.327212 215.65738,20.991826 216.9375,21 217.24814,21.001984 218.3017,24.264484 219.28125,28.25 221.26012,36.301522 225.633,43.309 228.96875,43.8125 231.54788,44.201795 239.28396,36.721079 242.71875,30.5 L 244.90625,26.5 244.96875,32.09375 C 245.00251,36.370772 244.30139,39.092617 242.0625,43.53125 L 239.125,49.375 243.71875,53.4375 C 250.53474,59.462134 254.18662,62 256,62 258.76434,62 262.74129,56.777889 264.8125,50.40625 265.90291,47.051868 267.52414,42.893305 268.40625,41.1875 271.34705,35.500628 270.11211,29.44668 264.71875,23.0625 261.43824,19.179318 259.70165,19.753612 262.65625,23.75 265.55672,27.673157 268,32.627531 268,34.59375 268,37.713299 260.87173,54.484032 258.53125,56.875 L 256.21875,59.21875 252.875,56.875 C 251.03861,55.5749 247.9824,53.068658 246.0625,51.3125 L 242.5625,48.125 244.96875,43.84375 C 247.73875,38.915199 248.96966,25.520314 247.09375,20.6875 246.37772,18.842849 245.78799,18.118108 245.15625,18.625 z M 207.4375,89.8125 C 206.87661,89.836794 205.72713,91.339808 203.8125,94.46875 201.80194,97.754471 200.36124,100.79197 200.625,101.21875 201.39367,102.46248 201.62091,102.24841 204.96875,97.03125 206.72034,94.301635 208.00249,91.264135 207.8125,90.28125 207.75219,89.969254 207.62446,89.804402 207.4375,89.8125 z M 225.875,90.25 C 225.53239,89.930417 224.36782,91.478606 220.59375,96.75 217.98881,100.38842 217.27924,102 218.3125,102 219.98497,102 226,93.492647 226,91.125 226,90.674682 225.9892,90.356528 225.875,90.25 z M 248.09375,92 C 247.02492,92 242,99.266915 242,100.8125 242,103.39602 243.8401,101.76544 246.3125,97 247.73925,94.25 248.54262,92 248.09375,92 z M 265.0625,95 C 263.72966,95 259.92556,100.58182 260.71875,101.375 261.08317,101.73942 262.4067,100.80776 263.65625,99.28125 266.11337,96.279518 266.52834,95 265.0625,95 z"/>
</svg>
