<?xml version="1.0" encoding="UTF-8"?>
<svg xmlns="http://www.w3.org/2000/svg" viewBox="79.52 14.63 57.35 95.78">
  <path d="M82.517067 103.02762C82.1273 102.39696 82.984972 100.22025 84.423005 98.190483C85.861038 96.160717 88.263371 92.5875 89.761523 90.25C92.440102 86.070734 94.0 84.917141 94.0 87.115517C94.0 88.074327 86.037247 100.92786 83.950725 103.33713C83.551981 103.79756 82.906835 103.65827 82.517067 103.02762Z M115.95094 79.95C115.92396 79.7025 115.86 72.3 115.80881 63.5L115.71572 47.5L119.25758 47.816762C121.20561 47.990981 123.10271 47.642826 123.47337 47.043084C124.34807 45.627794 120.35291 33.639253 117.61902 29.475517C116.45356 27.700517 115.02127 25.437098 114.43616 24.445697C113.77958 23.3332 112.74836 22.882584 111.74242 23.268602C109.18732 24.249085 95.185159 41.678416 95.035435 44.064788C94.987992 44.820959 101.72378 48.0 103.37341 48.0C105.59954 48.0 107.04478 52.866056 107.67694 62.489745C108.30401 72.036004 107.71143 77.0 105.94476 77.0C105.34041 77.0 104.99052 74.260707 105.08261 70.25C105.16784 66.5375 104.9047 60.891897 104.49785 57.704215L103.75811 51.90843L97.801384 49.250697C92.541413 46.903839 91.898796 46.309749 92.30751 44.171698C92.597055 42.657043 91.877264 40.434374 90.385182 38.235669C87.739821 34.337512 87.362389 29.860196 89.170423 23.825516C90.619984 18.987311 93.00711 19.069731 94.268327 24.001529C95.099225 27.250632 98.50318 32.0 100.00097 32.0C100.35976 32.0 102.60932 29.3 105.0 26.0C108.76057 20.809059 109.78084 20.0 112.56635 20.0C114.33717 20.0 116.01248 20.5625 116.28927 21.25C116.56605 21.9375 118.1995 24.422821 119.91914 26.772935C123.54343 31.725983 125.34224 31.474862 128.85225 25.525838C131.47231 21.085167 132.60391 21.07512 133.43124 25.485184C134.26308 29.919238 132.45173 36.816291 129.66058 39.842692C128.28437 41.3349 127.5 43.48614 127.5 45.768374C127.5 49.02463 127.18083 49.433673 124.0 50.253965C122.075 50.750395 120.11046 51.533374 119.63436 51.993919C119.15826 52.454463 118.59288 58.587123 118.37795 65.622053C118.16302 72.656982 117.54005 78.859946 116.99358 79.406417C116.44711 79.952887 115.97792 80.1975 115.95094 79.95Z M96.616324 36.462811C98.19018 34.060803 98.170892 33.807724 96.254312 31.712811C95.140869 30.495765 93.922825 28.4875 93.547547 27.25C92.346988 23.291085 91.0 24.835669 91.0 30.171259C91.0 33.579846 91.564118 35.965862 92.654988 37.171259C94.736735 39.471564 94.632726 39.490165 96.616324 36.462811Z M103.57477 103.12098C102.92469 102.06912 109.84963 91.0 111.15777 91.0C112.16112 91.0 106.5275 102.55595 105.09148 103.44346C104.56717 103.7675 103.88465 103.62238 103.57477 103.12098Z M121.0 103.54534C121.0 102.7798 122.05814 100.88142 123.35143 99.326725C124.64472 97.772026 126.23555 95.4875 126.88662 94.25C128.14193 91.863979 130.0 91.21493 130.0 93.162453C130.0 93.801802 128.62875 96.46181 126.95278 99.073583C123.83431 103.9333 121.0 106.06245 121.0 103.54534Z M131.07029 32.287017C132.8249 26.970504 130.90075 26.29566 127.18191 30.923267C123.66804 35.295807 123.44903 36.049025 125.18635 37.786346C126.81379 39.413794 129.5677 36.839899 131.07029 32.287017Z"/>
</svg>
