<?xml version="1.0" encoding="UTF-8"?>
<svg xmlns="http://www.w3.org/2000/svg" viewBox="1890.93 18.38 89.63 89.7">
  <path d="M 1895,92.125 1895,96.59375 C 1897.0532,92.899408 1899,89.177821 1899,88.625 1899,88.28693 1898.5915,88 1898.0938,88 1897.8066,88 1896.4989,89.852439 1895,92.125 z M 1913.4375,93.8125 C 1912.4186,94.407815 1910.7216,97.107922 1907.3125,103.25 1907.0836,103.6625 1907.572,104 1908.4062,104 1910.4852,104 1915.5977,95.191425 1914.2812,93.875 1914.0608,93.654414 1913.7771,93.614062 1913.4375,93.8125 z M 1915.6875,23.625 C 1914.7899,23.944215 1913.5244,24.98173 1911.0938,27.03125 L 1906.0625,31.25 1906.0312,31.21875 1902,41.5 1901.8125,42.03125 C 1902.5077,42.47485 1903,42.95878 1903,43.4375 1903,45.132372 1907.3545,46.986536 1909.8125,46.34375 1910.9116,46.056321 1912.7501,46.318705 1913.9062,46.9375 1915.5744,47.830262 1916,49.009551 1916,52.65625 L 1916,57.25 1912.25,56.53125 C 1904.5937,55.028677 1903.7272,55.238981 1901.4062,59.34375 1895.1891,70.339526 1899.4974,81.598916 1906.4375,72.5 1910.4585,67.228248 1911.4004,67.669885 1914.875,76.3125 1915.4935,77.850879 1916,80.663379 1916,82.5625 1916,85.291283 1916.4009,86 1917.9062,86 1919.5573,86 1919.7362,85.433649 1919.3125,81.75 1918.7186,76.585827 1916.3798,70.122243 1914.25,67.75 1911.9804,65.221919 1909.552,65.583291 1905.625,69.03125 1901.5501,72.609007 1900.4098,71.651871 1902.0938,66.03125 1903.9472,59.844676 1906.0109,58.465636 1911.2188,59.9375 1919.6288,62.314444 1919.5278,62.384739 1919.1562,54.53125 1918.7202,45.312991 1918.086,44.345635 1911.9375,43.5 1909.059,43.104108 1906.6143,42.192564 1906.3125,41.40625 1905.2009,38.509479 1912.3268,28.136064 1915.5,28.03125 1916.0784,28.012146 1916.3555,29.871393 1916.1562,32.375 1915.8585,36.118312 1916.1317,36.809006 1917.9375,37.28125 1919.45,37.676763 1921.2039,36.729814 1924.25,33.9375 1926.5799,31.801711 1928.8375,30.045953 1929.25,30.03125 1930.8947,29.972626 1929.8371,33.382277 1926.875,37.6875 L 1923.75,42.21875 1925.3438,47.375 C 1926.2217,50.201299 1927.1991,53.7375 1927.5,55.25 1928.1639,58.586938 1929.1079,58.616321 1935.4062,55.53125 L 1940.3125,53.125 1943.875,55.5625 C 1948.4368,58.662321 1950.3621,58.621337 1952.4688,55.40625 1955.2695,51.131453 1955.588,46.276971 1953.25,43.71875 1950.6912,40.91895 1947.6592,34.997061 1948.4062,34.25 1948.7184,33.937877 1951.0561,34.757278 1953.5938,36.0625 1958.0981,38.379165 1958.2347,38.389784 1959.5938,36.53125 1960.3592,35.484142 1961,33.34339 1961,31.78125 1961,28.205914 1962.9569,27.42751 1966.8438,29.4375 1970.6671,31.414628 1973,34.676685 1973,38.09375 1973,41.663525 1971.0889,43.036538 1966.4688,42.75 1962.7079,42.51676 1962.5697,42.615555 1960.6875,47.5 1959.6278,50.25 1958.1633,53.925011 1957.4375,55.65625 1956.3722,58.197318 1956.3876,59.138139 1957.4062,60.53125 1958.5926,62.153687 1958.9301,62.11523 1963.5,60.09375 1969.5472,57.418793 1971.0652,58.485741 1971.7812,65.9375 1972.3713,72.075826 1971.2084,72.435515 1966.875,67.5 1962.1543,62.123436 1958.8978,63.193031 1955.5312,71.25 1953.404,76.341466 1953.5692,77.436309 1957,81.34375 1958.65,83.222996 1960,85.533025 1960,86.46875 1960,89.06397 1962.4461,87.688928 1962.7812,84.90625 1962.9819,83.240698 1962.1064,81.519384 1960.0312,79.53125 1958.3569,77.927119 1957,75.860428 1957,74.9375 1957,72.863315 1960.7109,68.02106 1962.3125,68 1962.9601,67.991485 1965.1581,69.903985 1967.1875,72.25 1970.6208,76.219065 1971.0072,76.376236 1972.5625,74.84375 1975.2697,72.176235 1975.5361,65.036351 1973.1562,59.65625 1970.8777,54.505257 1969.0529,53.886019 1963.9375,56.53125 1961.2047,57.944439 1961.011,57.926006 1961.0312,56.28125 1961.0433,55.304626 1961.9112,52.579816 1962.9688,50.25 1964.7198,46.392498 1965.1477,46.067035 1967.7812,46.59375 1972.1586,47.469204 1976.2076,43.594086 1976.3438,38.40625 1976.4795,33.225126 1973.5503,29.164886 1967.2188,25.71875 1961.2176,22.45259 1959.169,23.395656 1958.3125,29.78125 1958.0016,32.099453 1957.286,34 1956.75,34 1956.2141,34 1954.0833,32.65 1952,31 1947.5372,27.465405 1946.4469,27.296421 1945,30 1943.5325,32.742143 1944.9761,37.5864 1948.875,42.96875 1952.3998,47.834597 1952.6702,49.593528 1950.4375,52.78125 L 1948.875,55 1945.2188,52.5 C 1940.7588,49.469416 1940.7912,49.482509 1935.375,52.1875 1932.9811,53.383051 1930.8852,54.170551 1930.7188,53.9375 1930.5521,53.70445 1929.7034,51.209018 1928.8438,48.40625 1927.2938,43.35293 1927.3215,43.265105 1930.1562,37.90625 1933.3438,31.880385 1933.7791,27.886128 1931.4688,25.96875 1930.1658,24.887426 1929.2925,25.328991 1925.8125,28.84375 1920.6608,34.046966 1918.5335,34.308784 1919.4062,29.65625 1919.8884,27.08614 1919.5736,25.929996 1918.0625,24.5625 1917.1148,23.70487 1916.5851,23.305785 1915.6875,23.625 z M 1938.2812,60.90625 C 1936.209,61.034468 1934.2073,62.424806 1932.0625,65.09375 1929.304,68.526269 1928.8616,69.747622 1929.3438,72.71875 1929.9646,76.545079 1932.3229,79.732188 1935.5,81.0625 1939.0515,82.54955 1941.3559,81.604849 1944.7188,77.1875 1948.8981,71.697557 1948.9176,68.547814 1944.8125,64.3125 1942.4933,61.91975 1940.3536,60.778032 1938.2812,60.90625 z M 1937.7812,64 C 1939.6224,64 1945,68.825549 1945,70.46875 1945,71.063176 1943.8637,73.228577 1942.4688,75.28125 1941.0738,77.333924 1939.4475,79 1938.875,79 1937.0774,79 1932,73.251631 1932,71.21875 1932,68.653341 1935.7295,64 1937.7812,64 z M 1951.5938,81.53125 C 1950.5496,81.288404 1949.155,81.97546 1946,84 1943.2432,85.769035 1941,87.601085 1941,88.09375 1941,89.53697 1944.6459,89.125045 1945.9688,87.53125 1948.3056,84.715356 1950.9692,84.665534 1953.125,87.40625 1954.9695,89.751099 1957,90.817992 1957,89.4375 1957,88.215659 1954.0478,83.269218 1952.5938,82.0625 1952.2677,81.791978 1951.9417,81.612199 1951.5938,81.53125 z M 1971.5312,95.3125 C 1971.2311,95.416472 1970.7545,95.931857 1969.9688,96.875 1968.887,98.173431 1968,99.635935 1968,100.125 1968,100.61407 1968.6401,101 1969.4062,101 1970.9008,101 1972.0228,98.860874 1971.9688,96.15625 1971.9554,95.489792 1971.8315,95.208528 1971.5312,95.3125 z M 1931.1562,96 C 1930.4455,96 1929.5491,97.402838 1927.1875,102.25 1926.9865,102.6625 1927.4674,103 1928.25,103 1929.0325,103 1930.2054,101.83838 1930.8438,100.4375 1932.2159,97.425521 1932.3115,96 1931.1562,96 z M 1950.7188,97.21875 C 1950.4606,97.200036 1949.9676,97.624334 1949,98.5 1947.9,99.495486 1947,100.91649 1947,101.65625 1947,102.396 1947.3725,103 1947.8125,103 1949.2706,103 1951,100.6406 1951,98.65625 1951,97.710428 1950.9769,97.237464 1950.7188,97.21875 z"/>
</svg>
