<?xml version="1.0" encoding="UTF-8"?>
<svg xmlns="http://www.w3.org/2000/svg" viewBox="48.89 14.76 44.16 93.34">
  <path d="M79.23496 100.05524C76.999146 98.435629 74.898291 96.254904 74.566394 95.209189C73.770695 92.702165 66.467245 90.215499 64.164976 91.667733C63.252826 92.243102 61.916398 94.803241 61.195137 97.35693C59.711299 102.61058 58.353258 103.06809 54.382033 99.652188C52.128776 97.714018 51.639231 96.449049 51.576269 92.402188C51.527756 89.284001 52.268141 85.963489 53.610745 83.277881C55.561292 79.376206 55.619908 78.664151 54.383062 73.895986C52.976224 68.472483 53.70896 58.983718 56.052881 52.272238C57.027637 49.481165 56.897377 48.684995 55.090073 46.38738C50.897308 41.057143 52.988614 30.284114 59.475336 23.797392C63.555872 19.716855 64.852215 20.971962 64.254031 28.42408C63.913268 32.669273 64.132057 34.963582 64.924345 35.453243C66.867106 36.653935 73.086194 33.030629 74.850923 29.669914C76.834253 25.892901 83.317927 19.0 84.887372 19.0C85.682089 19.0 85.833773 21.848135 85.406629 28.75C85.029226 34.848159 85.234259 40.185465 85.954044 43.0C87.794923 50.198281 87.749839 50.471396 84.662347 50.82488C82.860605 51.03116 80.404285 50.209778 77.933788 48.57488C75.793789 47.158696 73.847574 46.0 73.608865 46.0C73.370156 46.0 72.01374 49.038589 70.594605 52.75242C67.892947 59.82258 67.739081 63.868397 69.876544 71.633512C71.733746 78.380478 73.405076 78.986823 77.939794 74.55879C80.936722 71.632368 82.277377 70.953261 83.98665 71.495763C85.662927 72.027792 86.034154 72.702639 85.554762 74.346404C83.700889 80.703058 83.845529 86.579881 85.976943 91.5C87.168253 94.25 88.847901 97.279059 89.709493 98.231242C90.98401 99.639767 91.041065 100.24559 90.015567 101.48124C88.046891 103.85335 83.680861 103.27584 79.23496 100.05524Z M60.040411 91.913722L62.422696 86.827443L59.961348 84.929648C57.532858 83.057189 57.476638 83.059819 55.75 85.126711C53.787358 87.476114 53.525528 90.621845 54.975249 94.4349C56.380416 98.13077 57.355924 97.645213 60.040411 91.913722Z M62.044673 37.6175C61.470103 36.106265 61.0 33.549096 61.0 31.9349C61.0 27.963793 59.219225 28.231074 57.448973 32.467881C55.719256 36.607677 55.597277 40.378988 57.102148 43.190866C58.197945 45.23838 58.218373 45.236172 60.646822 42.807724C62.745394 40.709151 62.942237 39.978272 62.044673 37.6175Z M84.0 97.178139C84.0 96.726115 83.271904 94.219433 82.382008 91.607734C81.345092 88.564551 80.925722 84.90924 81.214281 81.429595C81.461926 78.443318 81.402523 75.99998 81.082273 75.999956C80.762023 75.999931 79.097889 77.669936 77.384198 79.711077L74.268397 83.422243L71.215292 80.369138C67.584342 76.738188 65.683606 70.713747 65.577505 62.5C65.513459 57.541941 66.107799 55.291731 69.0 49.542203C72.540296 42.5043 75.80089 39.241388 76.730605 41.806105C77.333852 43.470229 81.097078 47.0 82.268017 47.0C82.760876 47.0 82.822586 45.547961 82.406138 43.75C81.992114 41.9625 81.733916 37.2375 81.832365 33.25C81.93581 29.060195 81.59771 26.0 81.031362 26.0C79.743966 26.0 77.0 31.35865 77.0 33.872788C77.0 35.229684 75.937168 36.195662 73.593015 36.969302C68.710145 38.580795 61.693148 46.531462 59.146462 53.338092C56.324507 60.880443 56.282734 70.8222 59.047393 76.916007C61.502354 82.32718 67.368495 87.689869 71.806856 88.580407C73.832614 88.986867 75.744692 90.262036 76.742437 91.871957C79.332298 96.050852 84.0 99.463523 84.0 97.178139Z"/>
</svg>
