<?xml version="1.0" encoding="UTF-8"?>
<svg xmlns="http://www.w3.org/2000/svg" viewBox="3048.2 21.15 59.8 79.68">
  <path d="M 3103.4062 31.03125 C 3098.7562 33.972332 3095.9916 33.465156 3091.4375 30.03125 C 3089.2771 28.402186 3085.1541 26.530167 3082.2812 25.875 C 3077.4494 24.77303 3076.7171 24.870642 3072.4375 27.09375 C 3066.5117 30.171964 3062.0957 35.296584 3057.0312 45.03125 C 3052.9676 52.842006 3052.1157 56.335443 3054 57.5 C 3055.6813 58.539103 3057.6681 64.217857 3058.4062 70.125 C 3059.2298 76.717174 3057.1681 83.279574 3053.2188 86.65625 C 3051.5662 88.069195 3050.9204 89.396967 3051.3438 90.5 C 3052.3399 93.095992 3053.8841 91.946394 3057.75 85.71875 C 3061.1003 80.321843 3061.3182 79.499727 3061.2188 71.84375 C 3061.1331 65.247852 3060.5938 62.718418 3058.4688 58.375 L 3055.875 53.03125 L 3059.5 46.25 C 3063.7011 38.434029 3068.9306 32.636096 3074.2188 29.90625 C 3079.3371 27.264043 3080.449 27.439785 3088.125 32 C 3092.7092 34.723423 3096.0242 36 3098.5312 36 C 3101.478 36 3102.0795 36.327858 3101.5938 37.59375 C 3101.2598 38.463734 3101 39.742537 3101 40.46875 C 3101 43.384013 3095.4063 43.997418 3087.7812 41.875 C 3083.5984 40.710719 3079.0801 40.06773 3077.1562 40.375 C 3072.5596 41.109191 3067.6734 45.100487 3065.1875 50.125 L 3063.0938 54.3125 L 3065.5312 57.25 C 3068.7136 61.032031 3069.3079 63.567181 3068.8438 71.78125 C 3068.4268 79.158638 3065.0393 87.53465 3060.4375 92.5 C 3058.5292 94.55907 3058.1576 95.541335 3059 96.375 C 3059.84 97.206145 3060.8868 96.594046 3063.0625 94 C 3070.3671 85.29082 3074.033 71.671688 3071.75 61.78125 C 3071.1436 59.154217 3070.3112 57 3069.875 57 C 3069.4388 57 3068.5763 56.072886 3067.9688 54.9375 C 3067.0555 53.231314 3067.3253 52.267134 3069.5312 49.375 C 3070.9991 47.450423 3073.6571 45.19279 3075.4375 44.34375 C 3078.4136 42.924574 3079.3186 42.942543 3086.5938 44.78125 C 3091.3286 45.977936 3094.9403 46.435231 3095.5938 45.90625 C 3096.1943 45.419995 3096.9683 45.311991 3097.3125 45.65625 C 3097.6568 46.000509 3099.2101 45.762879 3100.75 45.125 C 3101.8765 44.658395 3103.4691 44.489976 3105.2812 44.5 L 3103.4062 31.03125 z "/>
</svg>
