<?xml version="1.0" encoding="UTF-8"?>
<svg xmlns="http://www.w3.org/2000/svg" viewBox="122.6 16.03 72.38 92.2">
  <path d="M 181.09375,73 C 180.59807,73 179.27663,74.4625 178.15625,76.25 177.03587,78.0375 174.40895,81.989408 172.3125,85.03125 168.01291,91.269742 162,100.90619 162,101.5625 162,101.80095 162.63473,102 163.40625,102 164.17777,102 166.50357,99.4125 168.5625,96.25 170.62143,93.0875 174.48671,87.162797 177.15625,83.09375 181.84256,75.950672 182.98518,73 181.09375,73 z M 141.96875,26.65625 C 144.00728,26.756393 145.95864,27.576246 146.75,28.65625 147.91373,30.244461 147.80887,30.731458 145.9375,32.25 144.75137,33.2125 143.19354,34 142.46875,34 140.32526,34 137.86079,30.915072 138.1875,28.625 138.43559,26.886087 139.14219,26.517396 141.96875,26.65625 z M 181.875,25.125 C 182.69573,25.028928 183.25267,25.622524 183.90625,26.84375 184.61712,28.172022 184.49249,29.292914 183.40625,30.84375 181.62857,33.381736 180.09301,33.548956 177.4375,31.5 175.5442,30.03916 175.57588,29.94059 178.3125,27.5 179.98749,26.006201 181.05427,25.221072 181.875,25.125 z M 163.28125,21 C 162.37814,21 159.31752,22.600477 156.46875,24.5625 L 151.28125,28.125 147.5,25.5625 C 139.6245,20.218046 132.37183,23.981371 135.15625,31.96875 136.78327,36.636026 142.31129,38.526045 147.03125,36 148.7355,35.087911 149.16932,35.752259 151.46875,43.03125 152.86945,47.46524 154,51.778858 154,52.59375 154,53.408642 152.83248,56.372969 151.40625,59.1875 149.08632,63.765662 146.02857,72.270966 146,74.25 145.96894,76.402698 148.22386,74.520831 149.59375,71.25 150.45756,69.1875 152.50718,64.8 154.125,61.5 157.58962,54.432905 157.89506,48.647277 155.09375,43.15625 154.03967,41.090079 152.87032,37.786499 152.5,35.8125 151.86255,32.414634 152.08107,32.046825 156.5625,28.625 159.166,26.637082 161.79907,25 162.4375,25 163.07592,25 165.2381,26.498294 167.21875,28.3125 L 170.8125,31.59375 169.40625,37.03125 C 167.31082,45.109316 167.5784,50.240934 170.25,53.21875 171.4875,54.598089 172.9838,56.586526 173.59375,57.625 174.98818,59.999126 176.36743,60.029842 176.8125,57.71875 177.00086,56.7407 175.72687,54.314892 173.96875,52.3125 170.99181,48.921955 170.80081,48.291712 171.375,43.40625 172.37746,34.876848 172.42704,34.82946 178.90625,35.5625 185.39469,36.296584 186.73029,35.393521 187.65625,29.6875 188.09402,26.989899 187.76419,25.764185 186.125,24.125 183.33341,21.333408 180.79373,21.452663 176,24.625 L 172.03125,27.25 168.46875,24.125 C 166.51415,22.408837 164.18436,21 163.28125,21 z M 137.46875,85.53125 C 137.03451,85.732788 136.2914,86.42994 135.21875,87.6875 130.82632,92.837109 125.88912,100.99225 126.53125,102.03125 127.73709,103.98233 128.91683,102.82502 133.40625,95.28125 137.2768,88.777378 138.77147,84.926637 137.46875,85.53125 z M 161.0625,78 C 159.9814,78 145,99.424906 145,100.96875 145,104.04076 148.26449,101.13955 152.03125,94.75 154.38196,90.7625 157.59427,85.611596 159.15625,83.3125 162.21213,78.814488 162.49917,78 161.0625,78 z M 191.6875,83 C 190.27512,85.087862 189,87.08205 189,87.3125 189,87.569692 187.2,90.753726 185,94.375 182.8,97.996273 181,101.18381 181,101.46875 181,101.75369 181.6131,102 182.375,102 183.1369,102 185.68227,98.7375 188.03125,94.75 189.35675,92.499896 190.41102,90.802867 191.6875,88.6875 L 191.6875,83 z"/>
</svg>
