<?xml version="1.0" encoding="UTF-8"?>
<svg xmlns="http://www.w3.org/2000/svg" viewBox="2976.49 17.73 34.81 88.28">
  <path d="M2980.0244 99.058809C2978.4882 95.350204 2979.8666 90.701248 2984.0708 85.410896C2987.2945 81.354363 2987.3101 80.572483 2984.4013 68.855655C2981.5997 57.57094 2983.2434 35.231296 2987.4778 27.042872C2988.3679 25.321603 2990.2274 23.397869 2991.61 22.767908C2993.8503 21.747163 2994.3921 21.942312 2996.5886 24.561263C3001.171 30.024882 3003.8246 36.801848 3005.0987 46.295546C3006.5944 57.439921 3006.3848 65.269957 3004.3488 74.303276C3002.8318 81.033981 3002.8425 81.161987 3005.3468 86.303276C3008.8173 93.427942 3009.2975 95.575608 3007.9732 98.050013C3006.4306 100.93237 3002.8015 99.956824 2997.6063 95.263306L2993.6277 91.668898L2988.878 96.834449C2986.2657 99.675502 2983.479 102.0 2982.6855 102.0C2981.8919 102.0 2980.6944 100.67646 2980.0244 99.058809Z M2994.5641 89.0C2995.8194 89.0 2998.1835 90.125 2999.8176 91.5C3005.5904 96.357454 3006.6297 94.229059 3001.866 87.305236L2998.732 82.750121L3000.866 73.884382C3003.2496 63.981748 3003.5835 54.680235 3001.8283 47.07629C3000.5815 41.674884 2999.9806 41.113551 2998.0 43.5C2996.3746 45.45852 2992.5553 45.409985 2989.475 43.391665C2987.2038 41.903494 2986.9715 41.9107 2986.3662 43.488112C2985.2755 46.330482 2986.892 63.997061 2989.0095 72.37663C2990.1043 76.708777 2991.0 80.822279 2991.0 81.517746C2991.0 82.213214 2989.2 84.960481 2987.0 87.622785C2984.8 90.28509 2983.0 93.522331 2983.0 94.816656C2983.0 97.038985 2983.2583 96.942599 2987.6408 93.084987C2990.1932 90.838244 2993.3087 89.0 2994.5641 89.0Z M2997.1713 40.345012C2999.3074 38.411868 2999.5008 35.868852 2997.75 32.736431C2994.0147 26.05336 2991.5724 25.385915 2989.449 30.467881C2987.268 35.687685 2987.6155 38.298385 2990.75 40.241774C2994.2015 42.381726 2994.9082 42.393087 2997.1713 40.345012Z"/>
</svg>
