<?xml version="1.0" encoding="UTF-8"?>
<svg xmlns="http://www.w3.org/2000/svg" viewBox="2583.81 15.2 89.77 93.28">
  <path d="M 2666.7812 46.59375 C 2666.1683 48.168507 2665.2367 49.168746 2663.375 50.78125 C 2658.0487 55.394643 2655.4846 55.833039 2652.1875 52.6875 C 2648.2516 48.932501 2644.0294 47.044108 2640.9688 47.65625 C 2637.9763 48.254753 2636.7548 46.603184 2637.6562 43.15625 C 2638.0671 41.58551 2639.1749 41.044939 2642.3438 40.8125 C 2649.5018 40.287465 2650.2389 35.390881 2644.4688 27 C 2641.8147 23.14056 2635.9061 19.441843 2633.7188 20.28125 C 2632.9502 20.57614 2631.5624 22.430744 2630.625 24.40625 C 2628.6037 28.665883 2627.7387 28.803688 2623.8125 25.5 C 2620.2445 22.497704 2618.4169 22.348402 2617.0312 24.9375 C 2614.6727 29.344637 2615.7757 33.056864 2620.9688 38.25 C 2626.4814 43.762558 2627.3911 45.606617 2626.4375 49.40625 C 2625.5773 52.833674 2623.2825 52.718845 2618.0625 48.9375 L 2613.8125 45.84375 L 2609.9375 48.4375 C 2607.7995 49.852342 2605.6455 51 2605.1562 51 C 2604.1172 51 2601 40.479647 2601 36.96875 C 2601 35.64822 2601.7295 32.657333 2602.625 30.3125 C 2604.1385 26.349375 2604.1321 25.864172 2602.5625 23.46875 C 2600.2601 19.954871 2594.5999 20.291173 2591.75 24.125 C 2587.8877 29.32081 2588.5709 42.830879 2593.2188 53 C 2594.3499 55.475 2595.7488 58.556405 2596.3438 59.84375 C 2597.3176 61.951056 2603.5472 66 2605.8125 66 C 2606.3077 66 2608.3952 64.854662 2610.4375 63.46875 L 2614.1562 60.96875 L 2616.0312 63.21875 C 2617.0729 64.467162 2618.4382 66.983078 2619.0625 68.8125 C 2620.0478 71.699456 2619.9534 72.425793 2618.2188 74.3125 C 2615.2895 77.498366 2610 86.161944 2610 87.78125 C 2610 88.549946 2611.902 92.070125 2614.2188 95.59375 C 2617.3304 100.32673 2619.0233 102 2620.6875 102 C 2623.8321 102 2625.1767 98.86932 2624.4688 93.25 C 2623.912 88.831177 2624.1101 88.220245 2627.4375 84.5 L 2631.0312 80.5 L 2634 83.78125 C 2637.1622 87.23934 2637.783 90.810167 2636 95.5 C 2635.3249 97.27556 2635.3325 98.756758 2636.0312 100.0625 C 2638.2669 104.23976 2642.8146 101.4361 2646.875 93.34375 L 2648.9688 89.15625 L 2644.9062 80.0625 C 2640.6262 70.419823 2640.118 65.546452 2643.1875 63.625 C 2644.4896 62.80988 2645.8505 63.10487 2649 64.875 C 2653.6852 67.508229 2655.9322 67.043996 2663.6875 61.8125 C 2665.9866 60.261597 2668.5741 59 2669.4375 59 C 2669.4549 59 2669.4517 59.030744 2669.4688 59.03125 L 2669.5 59 L 2668.5312 54.53125 C 2667.2105 56.54288 2656.5826 62.947041 2654.2812 62.96875 C 2653.0571 62.980298 2650.582 62.097944 2648.7812 61 C 2643.9094 58.029617 2641.6529 58.409765 2639.6875 62.53125 C 2637.0726 68.014711 2637.5961 72.142969 2642.0938 81.34375 L 2646.1875 89.71875 L 2643.5938 93.875 C 2642.1582 96.149104 2640.5431 98 2640 98 C 2638.7668 98 2638.7458 97.852991 2640.0938 92.5 C 2641.0879 88.551541 2640.9758 87.782651 2638.9375 84.8125 C 2636.2674 80.921639 2631.8821 76 2631.0625 76 C 2630.3143 76 2622.6865 85.801673 2621.0938 88.8125 C 2620.1762 90.547031 2620.1257 91.921231 2620.9375 94.25 C 2622.8442 99.719527 2620.4455 99.244329 2616.6562 93.40625 C 2614.64 90.299988 2613 87.403722 2613 86.9375 C 2613 86.471277 2614.9685 83.673218 2617.375 80.71875 C 2623.8293 72.794515 2624.3057 71.652668 2622.6875 67.78125 C 2621.935 65.98119 2620.5664 63.879845 2619.6562 63.125 C 2618.746 62.370156 2618 61.190311 2618 60.5 C 2618 59.809689 2617.3459 58.707311 2616.5312 58.03125 C 2615.323 57.028567 2614.1698 57.372009 2610.3438 59.90625 C 2607.7641 61.614966 2605.3001 63 2604.875 63 C 2602.8054 63 2598.7514 57.925334 2596.875 53 C 2591.9952 40.191066 2590.9901 33.217874 2593.125 27.09375 C 2594.1005 24.295309 2594.6142 23.921409 2597.3438 24.1875 C 2601.3059 24.573758 2601.8296 26.81099 2599.125 32 C 2597.483 35.150198 2597.282 36.483638 2598.0938 38.8125 C 2598.6494 40.406345 2598.9984 42.102351 2598.875 42.59375 C 2598.4481 44.292764 2601.0544 51.929445 2602.5938 53.46875 C 2604.6769 55.551953 2605.5806 55.40152 2609.3438 52.53125 L 2612.5625 50.09375 L 2618.4375 53.03125 C 2621.6587 54.656033 2625.1202 56 2626.1562 56 C 2630.6576 56 2631.1186 41.201976 2626.6875 38.84375 C 2624.1184 37.476479 2619.0322 31.933873 2619.0312 30.5 C 2619.0309 29.95 2619.3911 28.901034 2619.8438 28.1875 C 2620.4975 27.15699 2620.9365 27.249783 2622 28.53125 C 2623.7421 30.630296 2628.8313 33.222909 2630.25 32.75 C 2630.8597 32.546785 2631.8417 30.654858 2632.4375 28.53125 C 2633.0333 26.407642 2634.012 24.485585 2634.625 24.28125 C 2636.3661 23.700864 2641.5727 28.598113 2643.4688 32.59375 C 2645.6364 37.161873 2644.4834 38.728645 2640.0625 37.1875 C 2637.2871 36.219987 2636.8073 36.360194 2635.3438 38.59375 C 2634.124 40.455493 2633.887 42.362486 2634.3438 46.21875 C 2635.0678 52.333165 2636.016 53.590413 2638.8125 52.09375 C 2642.1759 50.293699 2644.6645 50.848354 2647.6562 54.03125 C 2649.2154 55.689924 2652.0254 57.454618 2653.875 57.96875 C 2656.8497 58.795643 2657.8085 58.512057 2662.2812 55.5 C 2665.3791 53.413766 2667.199 52.61756 2668.1562 52.84375 L 2667 47.5 L 2666.7812 46.59375 z "/>
</svg>
