<?xml version="1.0" encoding="UTF-8"?>
<svg xmlns="http://www.w3.org/2000/svg" viewBox="2060 21.25 29.84 82.5">
  <path d="M2072.1741 98.409406C2067.832 95.368076 2062.0499 88.486741 2062.025 86.330966C2062.0113 85.137997 2064.246 81.537997 2066.9911 78.330966C2069.7362 75.123935 2071.9682 72.05 2071.951 71.5C2071.9338 70.95 2069.6878 68.738801 2066.9599 66.586224C2064.232 64.433647 2062.003 61.958647 2062.0066 61.086224C2062.0161 58.805918 2065.1829 54.327787 2069.0966 51.060503L2072.4752 48.239911L2068.2376 44.002309C2065.9069 41.671627 2064.0 39.104643 2064.0 38.297899C2064.0 35.993239 2073.1015 25.0 2075.0096 25.0C2075.9526 25.0 2078.8095 26.6875 2081.3582 28.75C2087.646 33.838229 2087.6444 37.761761 2081.3514 45.326725C2078.1987 49.116671 2078.3753 50.208783 2082.5 52.430067C2087.8448 55.308435 2087.5993 58.322763 2081.4057 65.864881C2078.9825 68.815565 2077.0 71.743087 2077.0 72.370484C2077.0 72.997881 2078.6248 74.858685 2080.6107 76.505603C2085.4557 80.52363 2086.3699 83.178849 2084.4722 87.720729C2082.9165 91.444192 2076.4249 100.0 2075.1556 100.0C2074.7648 100.0 2073.4231 99.284233 2072.1741 98.409406Z M2079.7714 90.595311C2081.9829 87.292676 2082.8493 85.028045 2082.4458 83.604997C2081.7966 81.315806 2076.2398 76.0 2074.496 76.0C2073.1578 76.0 2065.0 84.210564 2065.0 85.557406C2065.0 87.492712 2073.3177 96.085518 2074.8999 95.784774C2075.7799 95.617494 2077.9721 93.282235 2079.7714 90.595311Z M2078.6838 65.75C2080.3757 63.9625 2082.3079 61.435001 2082.9776 60.133335C2084.3743 57.418556 2083.8532 56.710621 2077.8053 53.106826L2074.1106 50.905256L2070.0553 54.56899C2067.8249 56.584044 2065.993 58.967862 2065.9845 59.866362C2065.9711 61.286963 2073.5441 68.888812 2075.0538 68.970158C2075.3584 68.986571 2076.9919 67.5375 2078.6838 65.75Z M2082.5416 39.271083L2084.1959 35.784935L2080.395 31.892467C2078.3045 29.75161 2076.0432 28.0 2075.3699 28.0C2073.6078 28.0 2068.0 35.109496 2068.0 37.343367C2068.0 38.381591 2069.8977 40.965716 2072.2171 43.085869L2076.4342 46.940691L2078.6608 44.848961C2079.8854 43.698509 2081.6317 41.188464 2082.5416 39.271083Z"/>
</svg>
