<?xml version="1.0" encoding="UTF-8"?>
<svg xmlns="http://www.w3.org/2000/svg" viewBox="2146.33 20.15 58.82 85.75">
  <path d="M 2201.3438,45.96875 C 2201.0757,47.049598 2200.7441,47.892032 2200.2188,48.5 2196.9809,52.247144 2189.1807,58.003749 2187.3438,58 2185.2564,57.99574 2179.5829,54.783999 2176.25,51.71875 2173.1624,48.879075 2173.4108,46.648431 2177.3438,42.25 2182.9592,35.969755 2184.4567,31.454538 2181.6875,29.15625 2180.711,28.345821 2178.8997,29.064563 2174.4375,32.03125 2171.1659,34.206337 2167.9375,35.99825 2167.25,36 2165.5646,36.004291 2165.7221,32.954313 2167.5312,30.5625 2169.6822,27.718803 2169.3346,26.074616 2166.3438,24.9375 2164.0079,24.049423 2163.1538,24.388085 2159.25,27.71875 2154.3508,31.898777 2149,40.711579 2149,44.59375 2149,47.529921 2152.9275,51.501495 2156.7812,52.46875 2158.2688,52.842092 2160.0594,53.614372 2160.75,54.1875 2162.9314,55.997871 2162.1237,62.213469 2158.9688,67.9375 2155.1503,74.865119 2152,85.417462 2152,91.28125 2152,94.733924 2152.6358,96.610697 2154.5938,98.9375 2156.1931,100.83821 2158.1048,102 2159.625,102 2162.501,102 2168,99.375861 2168,98 2168,97.478248 2169.4212,96.303523 2171.1562,95.40625 2175.1421,93.345084 2180.4223,94.120127 2183.7188,97.21875 2185.7334,99.11262 2187.2395,99.486513 2192.3438,99.4375 2195.7377,99.404911 2199.5125,99.006558 2200.75,98.5625 2201.6248,98.248586 2202.1329,98.204987 2202.4688,98.34375 L 2202.2812,92.84375 C 2200.4709,97.164992 2191.3737,98.878775 2186.2812,94.59375 2183.1082,91.923737 2177.3048,90.443608 2173.5938,91.375 2172.2716,91.706841 2169.3085,93.571309 2167,95.5 2164.6915,97.42869 2161.7605,99 2160.4688,99 2157.6337,99 2155,95.558681 2155,91.84375 2155,85.667 2158.1975,74.27313 2161.4062,69 2167.6858,58.680393 2166.6505,52.726149 2158.0938,49.71875 2151.4834,47.395467 2150.7695,44.997079 2154.4375,37.5 2158.711,28.765329 2166.1935,25.065567 2163.0938,33.21875 2162.3937,35.060128 2162.4886,36.27622 2163.4062,37.53125 2164.9929,39.701232 2168.6813,38.966728 2173.875,35.4375 2178.1732,32.516828 2179,32.409951 2179,34.78125 2179,35.766736 2176.975,38.570971 2174.5,41 2167.8024,47.573149 2168.5965,50.863624 2178.4062,57.375 2185.8608,62.32311 2188.69,62.182702 2195.7812,56.40625 2198.5723,54.132672 2200.7904,52.782358 2201.5,52.875 L 2201.5,47 2201.3438,45.96875 z M 2201.5,55.59375 C 2200.666,58.008406 2198.5301,61.11127 2195.8125,63.4375 2191.5265,67.106146 2190.853,67.092182 2180.6562,63.46875 2173.1329,60.795343 2171.2816,62.391537 2164.2812,77.5 2160.8474,84.911271 2160.2204,88.845442 2162.1875,90.8125 2164.2455,92.870547 2166.8938,92.141526 2172.5,88 2175.478,85.8 2178.3752,84 2178.9375,84 2179.4998,84 2182.3202,85.802367 2185.2188,88 2191.2338,92.560304 2195.2838,93.113198 2199.2812,89.96875 2201.3377,88.351172 2201.7777,88.118108 2202.1875,89.09375 L 2202,83.90625 C 2201.4978,84.991163 2200.646,85.675249 2199.0938,86.71875 2194.626,89.722223 2193.5115,89.540655 2187.0938,84.90625 2184.1123,82.753305 2180.9623,81.017172 2180.0938,81.03125 2179.2251,81.045328 2176.0309,82.620328 2173.0312,84.53125 2166.6912,88.570355 2165.3869,88.767531 2164.4688,85.875 2163.6053,83.154634 2171.6231,67.162367 2174.5312,65.8125 2175.9698,65.144807 2177.8935,65.378472 2181.0312,66.5625 2189.6269,69.806077 2192.3989,69.608819 2197.375,65.53125 L 2201.5,62.15625 2201.5,55.59375 z"/>
</svg>
