<?xml version="1.0" encoding="UTF-8"?>
<svg xmlns="http://www.w3.org/2000/svg" viewBox="817.31 19.01 77.38 87.78">
  <path d="M 826.09375 23 C 822.89386 23 820.82373 31.288402 822.8125 36.15625 C 823.18634 37.071298 825.92256 39.747801 828.875 42.09375 L 834.25 46.34375 L 833.625 51.4375 C 833.0103 56.629555 830.98187 59.300856 828.40625 58.3125 C 826.38342 57.536268 826.66776 59.305106 828.78125 60.625 C 830.1401 61.473616 830.47781 62.70588 830.1875 65.75 C 829.85562 69.230142 829.39813 69.880544 826.65625 70.75 L 823.5 71.78125 L 826.5625 72.46875 C 829.02644 73.035382 829.94361 74.037664 831.25 77.5625 C 833.02496 82.351568 832.97697 82.455008 828.25 83.46875 C 824.64342 84.242215 822.86146 86 825.6875 86 C 826.6861 86 828.96354 85.597138 830.71875 85.09375 C 835.20205 83.807959 835.99757 85.202732 834.875 92.28125 C 834.26301 96.140231 834.32773 98.716703 835.03125 100.03125 C 836.51505 102.80375 838.56079 102.47701 839.9375 99.25 C 840.58277 97.7375 842.59761 94.721487 844.4375 92.5625 L 847.78125 88.65625 L 851.03125 91.375 C 854.85906 94.595894 855.77281 94.409237 858.78125 89.96875 C 865.40111 80.197785 860.10245 72.865495 851.28125 79.59375 L 847.84375 82.21875 L 845.53125 80.03125 C 844.26081 78.837734 842.95853 76.179528 842.625 74.09375 C 841.84115 69.191781 844.47284 60 846.65625 60 C 847.52046 60 850.8447 61.409932 854.0625 63.125 C 857.92427 65.183304 860.69416 66.038898 862.21875 65.65625 C 863.19416 65.411439 864.0158 65.576208 864.96875 66.25 L 865 64 L 866.21875 62.59375 C 866.14095 61.652608 866.48729 60.856417 867.40625 60.09375 C 867.74041 59.816424 868.13698 59.747401 868.59375 59.84375 L 871.5 56.5 L 871.875 56.46875 C 872.03434 56.059531 872.27298 55.648734 872.625 55.09375 C 876.47109 49.03002 879.30684 45.893515 882.3125 44.375 C 887.2924 41.859067 891.16737 37.186322 890.8125 34.125 C 890.53649 31.744041 890.09543 31.5 886.21875 31.5 C 881.63998 31.5 880.02652 30.146421 880 26.25 C 879.99158 25.0125 879.57218 24 879.0625 24 C 876.53404 24 877.88582 32.396615 880.78125 34.71875 C 881.8078 35.54204 882.84168 35.622115 884.0625 34.96875 C 888.98321 32.335267 889.44457 35.78527 884.65625 39.4375 C 882.81683 40.84049 880.58347 42 879.6875 42 C 878.79152 42 876.5701 44.203553 874.75 46.90625 C 871.59465 51.591677 863.17984 61.160158 861.0625 62.46875 C 860.0849 63.072939 852.5935 59.51097 848.34375 56.4375 C 846.32835 54.979943 846.07851 55.081687 844.15625 57.78125 C 841.30076 61.791421 839.63677 69.239012 840.375 74.625 C 840.83204 77.959453 841.84 79.961295 844.15625 82.125 L 847.3125 85.09375 L 844.09375 88.375 C 842.33491 90.189662 840.57416 92.968629 840.15625 94.53125 C 839.73835 96.093871 838.84501 97.562079 838.1875 97.78125 C 836.66982 98.287143 836.66947 94.899925 838.15625 89.9375 C 839.21834 86.39254 839.04583 85.746514 836 81 C 833.23835 76.69635 832.71551 74.957784 832.65625 69.71875 C 832.61685 66.235326 833.39194 61.086208 834.40625 58 C 835.40044 54.975 836.44382 51.052752 836.71875 49.28125 C 837.24163 45.912132 836.35673 44.723842 828.21875 37.75 C 825.4933 35.414424 825 34.317144 825 30.5625 C 825 28.124202 825.44296 25.856206 825.96875 25.53125 C 827.65553 24.488762 833.73484 27.715654 836.09375 30.90625 C 837.35103 32.606814 838.81712 34 839.375 34 C 839.93289 34 841.84757 32.597755 843.625 30.875 C 845.71219 28.852017 847.44412 27.969823 848.5 28.375 C 850.82478 29.267102 849.50671 32.638095 845.3125 36.59375 C 842.00902 39.709327 841.92373 39.999112 842.59375 45.15625 C 843.34647 50.949971 844.16494 51.976648 848.0625 52 C 849.46815 52.008422 852.13629 53.125 854 54.5 C 858.97044 58.167072 861.21407 57.739163 865.75 52.25 C 867.90882 49.6375 869.9486 46.825 870.3125 46 C 870.67639 45.175 871.50728 43.775319 872.15625 42.875 C 873.12404 41.532364 872.79049 40.505293 870.1875 37.21875 C 866.87119 33.031566 866.07881 28.585666 868.03125 24.9375 C 868.6006 23.873657 868.70935 23 868.25 23 C 864.51187 23 863.71238 33.376307 867.09375 38.125 C 868.44357 40.020649 868.9974 41.891222 868.625 43.375 C 867.86644 46.39733 861.18408 54 859.28125 54 C 858.46437 54 856.4466 52.875 854.8125 51.5 C 853.17841 50.125 850.84781 49 849.625 49 C 843.96075 49 843.37286 42.800128 848.5 37.125 C 852.38431 32.825537 853.03993 28.822996 850.34375 25.84375 C 847.94309 23.191052 846.52696 23.553672 843.09375 27.71875 L 840.03125 31.40625 L 836.75 28.28125 C 833.4169 25.066187 829.26759 23 826.09375 23 z M 873 23.5 C 872.45 23.839919 872 26.763647 872 30 C 872 34.964555 872.35607 36.14219 874.25 37.46875 C 876.98283 39.382901 877.93624 37.713426 875.59375 35.125 C 874.55359 33.97563 874 31.51966 874 28.125 C 874 24.892793 873.61798 23.118067 873 23.5 z M 856.59375 80.21875 C 857.2204 80.201609 857.77575 80.369494 858.15625 80.75 C 859.50298 82.096727 858.56602 86.308976 856.4375 88.4375 C 855.57404 89.30096 854.46011 90 853.96875 90 C 852.4448 90 850.85593 86.033994 851.53125 83.90625 C 852.16067 81.923094 854.71381 80.270174 856.59375 80.21875 z "/>
</svg>
