<?xml version="1.0" encoding="UTF-8"?>
<svg xmlns="http://www.w3.org/2000/svg" viewBox="623.74 17.12 137.27 89.77">
  <path d="M 736.6875,21.28125 C 735.90501,21.197452 735.09866,22.683575 734.59375,25.375 733.57842,30.787196 731.62685,31.719472 727.875,28.5625 724.01704,25.316246 721.61534,25.567803 721.1875,29.28125 720.94674,31.370986 721.74672,32.934212 724.4375,35.625 726.40066,37.588157 728,40.083937 728,41.15625 728,46.053357 721.12654,55 717.375,55 716.1451,55 713.82159,53.875 712.1875,52.5 708.81815,49.664876 705.82599,49.299819 704,51.5 703.31531,52.325 701.90765,53 700.875,53 699.30023,53 698.99076,52.233984 699,48.25 699.00605,45.6375 699.30715,41.76918 699.65625,39.65625 L 700.28125,35.8125 704.59375,36.46875 C 710.46796,37.349642 713,35.853968 713,31.53125 713,24.429635 710.85384,23.442053 703.375,27.0625 700.01085,28.691055 698.68273,28.898371 697.0625,28.03125 695.93335,27.426947 695,26.511298 695,26 695,25.488702 694.16561,24.63394 693.15625,24.09375 691.7116,23.320596 690.63366,23.74265 688.09375,26.0625 686.31916,27.683338 684.5342,29 684.125,29 683.7158,29 681.86371,27.875 680,26.5 675.39976,23.106051 672.5619,23.242192 671.03125,26.9375 670.10236,29.180029 670.06852,30.710716 670.9375,33.34375 672.29483,37.456511 674.8935,38.392271 679.0625,36.3125 683.00847,34.343991 684.321,35.46284 686.71875,42.8125 689.91404,52.606761 687.85742,55.961524 681.03125,52.125 676.11459,49.36168 673.8421,49.443318 669,52.5 663.30357,56.095996 661.63413,55.729321 657.03125,49.90625 652.72468,44.458021 652.07975,42.284476 654.53125,41.34375 656.38057,40.634097 659,35.865435 659,33.1875 659,29.464082 656.65562,28.876111 652.65625,31.59375 650.61943,32.977809 648.50902,33.833902 647.96875,33.5 647.42849,33.166098 647,30.85 647,28.375 647,25.629644 646.61008,24.12295 646,24.5 644.52809,25.409691 644.78491,34.305652 646.34375,36.4375 647.62657,38.191851 647.85674,38.172286 651.59375,35.625 655.0169,33.291659 655.52955,33.163516 655.84375,34.65625 656.04106,35.59363 655.36606,36.951155 654.34375,37.65625 650.29772,40.446833 649.8001,41.28179 650.375,44.15625 651.07399,47.651228 658.48285,57.696448 660.8125,58.3125 661.7333,58.555998 662.83274,58.811199 663.25,58.875 663.66726,58.9388 665.87849,57.65 668.15625,56 673.00699,52.486143 675.7297,52.263023 680.21875,55 689.97903,60.950845 693.8301,53.71255 688.46875,39.46875 L 685.90625,32.71875 688.125,30.375 C 690.97138,27.345166 692.05932,27.389699 695.25,30.75 697.62845,33.254889 697.77081,33.90109 696.96875,38 695.9395,43.259962 695.72053,53.130672 696.59375,55.40625 697.43653,57.602513 701.20986,57.39561 703.78125,55 706.52278,52.445873 706.6609,52.476954 711.90625,56.03125 714.32652,57.671242 717.04128,59 717.9375,59 721.61899,59 730.98999,45.567512 731,40.28125 731.00246,38.983177 729.34978,36.549096 727,34.375 720.76412,28.60535 722.11153,26.512044 728.46875,32.09375 730.41436,33.802025 732.56087,34.983197 733.25,34.71875 734.72639,34.152207 738.28281,23.273994 737.4375,21.90625 737.19363,21.511667 736.94833,21.309183 736.6875,21.28125 z M 742.5625,21.84375 C 742.02156,21.619639 741.49848,22.215471 741.40625,23.78125 741.35018,24.733099 741.23768,26.267199 741.15625,27.1875 741.07482,28.107801 739.875,30.178405 738.5,31.8125 737.125,33.446594 736,35.298146 736,35.90625 736,38.383608 738.66771,36.64309 741.3125,32.46875 743.25848,29.397352 744.03019,27.042309 743.8125,24.78125 743.65165,23.11062 743.10344,22.067861 742.5625,21.84375 z M 674.90625,27 C 676.34867,27 680,30.18044 680,31.4375 680,32.172469 679.27624,33.072406 678.40625,33.40625 675.96282,34.343884 675.18217,34.121116 674.1875,32.34375 673.24045,30.651458 673.73378,27 674.90625,27 z M 709.28125,28.1875 C 709.89688,28.444499 709.98419,29.25786 709.8125,30.75 709.59442,32.645359 708.87844,33.556857 707.5,33.6875 702.66908,34.145355 701.22111,30.619342 705.5625,28.96875 707.523,28.223367 708.66562,27.930501 709.28125,28.1875 z M 749.3125,23 C 748.31355,23 748.07141,23.618381 748.5,24.96875 749.46848,28.020167 746.19535,33.722763 740.9375,38.15625 738.31429,40.368172 735.89254,43.34179 735.53125,44.78125 734.57275,48.600235 728.31741,58.988463 724.71875,62.75 720.79953,66.846606 716.59592,67.039013 710.34375,63.375 706.33884,61.027966 705.67909,60.883408 704.34375,62.21875 703.51792,63.044579 702.61401,65.564551 702.3125,67.8125 701.79901,71.640818 702.06582,72.25447 706.9375,77.6875 714.4226,86.035084 714.41163,85.91038 710.71875,92.03125 706.03813,99.789261 704.65474,99.736628 705.5,91.84375 L 706.1875,85.5 700.84375,78.8125 C 697.90659,75.135583 694.83358,72.095251 694,72.0625 692.28828,71.995245 684.42387,83.445465 683.40625,87.5 682.92972,89.398648 683.35008,90.968686 684.875,93.03125 687.16102,96.123261 687.59732,98 686.03125,98 684.57119,98 676,89.134004 676,87.625 676,86.904611 678.25,83.520315 681,80.09375 685.0584,75.036891 686,73.129805 686,70 686,66.63799 685.39152,65.643557 681.25,62.09375 678.6375,59.854508 675.73307,58.003551 674.78125,58 673.82943,57.996449 670.57176,59.575 667.5625,61.5 664.55324,63.425 661.44241,65 660.65625,65 658.96365,65 653,59.132246 653,57.46875 653,56.833404 652.1,55.495486 651,54.5 649.9,53.504514 649,52.120281 649,51.4375 649,49.948794 643.53706,45.188059 639.09375,42.78125 635.28372,40.717472 631.71219,33.404998 632.1875,28.6875 632.36447,26.931045 632.05,25.275 631.5,25 630.90946,24.70473 630.38947,26.752026 630.21875,30 629.97537,34.63047 630.3688,36.211434 632.78125,40 634.35725,42.475 636.95451,45.168805 638.5625,45.96875 642.00375,47.680699 646,51.017286 646,52.1875 646,52.640354 647.575,55.195541 649.5,57.875 651.425,60.55446 653,63.40012 653,64.21875 653,64.249587 652.8794,64.492414 652.875,64.53125 L 655.5,65 663.3125,69.15625 C 663.3967,68.991903 663.79859,68.177124 663.84375,68.09375 664.26345,67.318831 666.02822,65.908912 667.78125,64.96875 669.53428,64.028588 671.65702,62.704926 672.46875,62.03125 674.10401,60.674098 677.37745,62.525569 681.84375,67.3125 684.77574,70.454976 684.17556,72.786126 678.9375,78.46875 674.76356,82.996944 672.58968,87.501917 673.6875,89.34375 674.06977,89.985096 676.65333,93.069043 679.4375,96.21875 684.71463,102.18874 685.8189,102.8061 687.8125,100.8125 689.57437,99.050625 689.26346,96.169719 686.9375,92.40625 684.67814,88.750529 684.73816,88.546959 689.875,80.25 691.32159,77.913484 692.90901,76.000984 693.40625,76 693.90349,75.999017 695.92849,77.892968 697.90625,80.1875 704.41887,87.743226 704.35705,87.543758 702.59375,92.71875 701.17483,96.883067 701.16504,97.602398 702.53125,99.6875 703.44306,101.0791 705.02324,102 706.5,102 708.58198,102 709.60836,100.74529 713.03125,93.9375 L 717.09375,85.875 715.09375,82.625 C 713.993,80.84395 711.25401,77.712823 709.03125,75.65625 706.04359,72.891965 705,71.148707 705,68.9375 705,65.008298 706.89014,64.409185 711.28125,67 713.28997,68.185174 716.68198,69.155509 719,69.1875 720.82925,69.212746 721.8423,69.321991 722.625,69.8125 L 722.5,69 730,61 730.5,60.9375 C 731.02276,59.571496 732.05701,57.604808 733.53125,55.53125 735.46822,52.806855 737.55912,48.878577 738.1875,46.78125 738.93484,44.28685 740.43659,42.263317 742.53125,40.96875 749.65204,36.567858 754.77023,23 749.3125,23 z M 638.65625,23.0625 C 638.25185,23.053436 637.83202,23.866109 637.40625,25.5625 636.51238,29.123997 637.50584,35.599604 639.40625,38.5 640.37674,39.981146 641.58683,40.725416 642.5,40.375 644.43082,39.634075 644.39826,38.993895 642.3125,37.46875 641.10625,36.586718 640.48753,34.337026 640.1875,29.625 639.91671,25.372429 639.33026,23.077607 638.65625,23.0625 z"/>
</svg>
