<?xml version="1.0" encoding="UTF-8"?>
<svg xmlns="http://www.w3.org/2000/svg" viewBox="414.63 20.96 37.76 84.46">
  <path d="M 422.28125,25 C 419.32848,25.003341 419.52513,41.099575 422.53125,45.6875 424.74735,49.069686 424.34961,51.614227 420.3125,59.5625 L 416.625,66.8125 418.5625,71.125 C 420.07886,74.484448 420.49129,77.631008 420.46875,85.46875 420.45287,90.988839 420.06903,96.550774 419.59375,97.84375 418.8716,99.808309 419.02329,100.13696 420.53125,99.84375 425.25254,98.925738 426.39537,83.934442 422.5625,73.375 L 420.125,66.6875 423.59375,59.8125 C 427.7419,51.575366 428.02683,48.174467 425.0625,41.3125 423.3991,37.461983 422.89928,34.692644 423.15625,30.5625 423.39672,26.697477 423.11808,24.999053 422.28125,25 z M 430.8125,25.125 C 430.45766,25.232522 430.02547,25.56828 429.46875,26.125 428.60663,26.987125 427.70469,30.447366 427.34375,34.3125 426.81821,39.940486 426.98872,41.33005 428.5,43 430.89512,45.646578 432.38846,45.533343 431.625,42.75 430.07838,37.111507 429.8822,32.918224 431,29.53125 432.02604,26.422322 431.87703,24.802435 430.8125,25.125 z M 436.875,25.46875 C 436.35678,25.242952 435.40433,26.167095 434.46875,28.40625 432.35128,33.474077 432.61191,37.569219 435.1875,39.96875 437.92488,42.519008 439.20579,42.531795 441.46875,40.03125 442.4525,38.94422 443.64145,38.282965 444.09375,38.5625 445.75343,39.588241 443.14541,43.567921 438.875,46.5625 436.29738,48.370026 433.04609,52.079432 430.96875,55.5625 424.76269,65.968151 424.77626,65.93254 428.5625,71.9375 430.40082,74.853072 432.18566,78.5203 432.53125,80.09375 433.475,84.390591 431.1784,93.631207 428.34375,97 426.96947,98.633242 426.12507,100.41266 426.46875,100.96875 426.84966,101.58507 428.1949,101.17965 429.875,99.9375 431.16083,98.986847 431.98363,98.559781 433.03125,98.46875 L 433,98 434.59375,93.65625 C 434.49017,93.281471 434.49325,92.893519 434.65625,92.46875 434.74864,92.228 435.02645,92.152117 435.21875,92 L 436.5,88.5 437.03125,87.03125 C 436.4347,85.903387 435.97638,84.152419 435.71875,81.65625 435.35651,78.146517 434.09991,74.58075 432.03125,71.21875 L 428.875,66.09375 431.5,60.8125 C 434.77727,54.172595 436.57171,52.035185 441.15625,49.21875 447.54507,45.293878 450.38474,34.913447 445.28125,34.1875 443.98876,34.003649 442.34813,34.727981 441.3125,35.9375 440.34066,37.072529 438.97354,38 438.28125,38 436.40927,38 435.59475,33.272234 436.78125,29.40625 437.49776,27.071643 437.39322,25.694548 436.875,25.46875 z"/>
</svg>
