<?xml version="1.0" encoding="UTF-8"?>
<svg xmlns="http://www.w3.org/2000/svg" viewBox="1231.86 16.65 24.51 88.32">
  <path d="M1236.427 97.920056C1234.9286 96.264887 1234.4226 93.949955 1234.1522 87.511978C1233.8616 80.595276 1234.2608 77.799592 1236.5774 70.526863L1239.3506 61.821218L1237.1011 52.490479C1234.9124 43.411413 1234.8976 42.996316 1236.5517 37.100847C1239.514 26.543324 1246.8946 20.664818 1251.9985 24.79773L1254.3706 26.718523L1252.1414 32.832436C1249.0244 41.380898 1248.5677 47.287519 1250.3662 55.787846C1251.2143 59.796161 1251.6436 63.846161 1251.3203 64.787846C1250.997 65.729531 1248.7105 71.675 1246.2392 78.0C1243.768 84.325 1241.4657 91.71318 1241.123 94.418177C1240.4109 100.03987 1239.1782 100.95908 1236.427 97.920056Z M1240.252 86.25C1246.6408 70.850624 1248.1778 65.71868 1247.6138 61.67065C1245.6091 47.284587 1245.7095 43.636632 1248.3161 36.141237C1250.9881 28.457787 1250.9279 26.0 1248.0673 26.0C1244.2359 26.0 1239.2822 34.376457 1238.8175 41.640844C1238.6818 43.76338 1239.4068 48.976187 1240.4288 53.224859C1242.2842 60.938563 1242.2837 60.959074 1240.0987 67.427967C1236.3836 78.426423 1235.2852 90.0 1237.9565 90.0C1238.3634 90.0 1239.3963 88.3125 1240.252 86.25Z"/>
</svg>
