<?xml version="1.0" encoding="UTF-8"?>
<svg xmlns="http://www.w3.org/2000/svg" viewBox="396.93 14.58 130.31 88.76">
  <path d="M 458.5625,18.625 C 454.9124,18.630954 451.05826,19.331678 448.875,20.375 442.48212,23.429981 432.34897,32.644211 427.84375,39.5 L 423.5,46.125 416.5,45.46875 C 411.32708,44.997432 408.58646,45.233687 406,46.34375 403.27208,47.514526 402.85319,47.992023 404.15625,48.5 405.07577,48.858462 406.70731,48.668504 407.78125,48.09375 409.10051,47.387708 411.6553,47.381147 415.625,48.03125 424.39712,49.467826 424.44976,49.446527 428.28125,43.25 435.48773,31.595252 448.89929,20.986233 456.4375,21 464.24261,21.014255 472.70756,26.37978 475.75,33.25 476.84692,35.726994 480.9947,37.308106 481,35.25 481.00322,34.002475 490.24995,28.273601 494.3125,27 501.50962,24.743714 505.5908,27.959252 506.875,36.875 507.4573,40.917791 507.8646,41.524985 510.03125,41.625 511.39693,41.688041 513.2516,42.039405 514.1875,42.4375 518.08711,44.096241 518.52765,55.011835 514.78125,57.375 513.47917,58.196334 512.40994,57.931188 510.09375,56.21875 506.43319,53.512381 504.37405,53.393105 503.0625,55.84375 501.77151,58.255998 497.20332,61.263005 495.96875,60.5 495.42243,60.162354 496.3325,57.302119 498.0625,53.875 502.11221,45.852569 501.96363,39.228525 497.6875,37.1875 495.25798,36.027877 494.37336,36.057555 491.1875,37.53125 489.15924,38.46947 486.28179,40.381603 484.78125,41.78125 L 482.03125,44.34375 485.09375,49.65625 488.15625,55 485.65625,60.25 C 483.53322,64.745489 481,74.707779 481,78.53125 481,79.172716 482.34655,81.561228 484,83.84375 486.52494,87.329327 487.56751,88 490.46875,88 494.18282,88 494.19426,87.995722 499.78125,80.5 501.83098,77.75 504.17586,74.986281 505,74.34375 505.82413,73.701219 506.16381,72.820054 505.75,72.40625 504.69444,71.350689 500.28166,75.724217 497.34375,80.71875 493.62566,87.03961 488.94809,87.623031 485.40625,82.21875 482.76585,78.1899 484.07306,68.566969 488.40625,60.1875 490.52019,56.099597 490.4123,53.867924 487.875,49 485.85412,45.122859 485.84036,44.833885 487.5,43 488.4579,41.941537 490.77647,40.557884 492.65625,39.9375 499.82639,37.57114 500.98109,43.109361 495.46875,53.5 493.26251,57.658705 492.15306,60.902188 492.53125,62.09375 493.56766,65.359212 498.77049,64.22242 503.78125,59.65625 506.01882,57.617213 506.14971,57.635658 509.4375,59.40625 515.17713,62.497241 519.2865,59.547833 520.5,51.5 521.31746,46.078675 518.50406,40.907444 513.90625,39.375 511.40941,38.542809 510.37821,37.498199 509.90625,35.375 508.65532,29.747442 507.0116,26.969549 503.78125,25 500.24641,22.84481 496.49243,22.394214 495.5,24 495.16008,24.55 494.13795,25 493.21875,25 492.29956,25 488.9109,26.635406 485.6875,28.625 L 479.8125,32.25 476.84375,28.625 C 475.20161,26.632801 471.76304,23.563021 469.21875,21.8125 465.2641,19.091635 463.73219,18.616568 458.5625,18.625 z M 509.65625,76.34375 C 508.9248,75.612302 503,80.813794 503,82.1875 503,83.769041 504.67074,82.953103 507.5,80 509.0753,78.355737 510.03439,76.721891 509.65625,76.34375 z M 456.03125,28.375 C 453.58113,28.640465 450.8984,29.563648 447.875,31.09375 443.5214,33.297048 439.05386,38.697078 436.125,45.375 433.66825,50.976516 433.97821,51.742623 440.21875,55.25 445.66398,58.31039 447,61.366256 447,70.84375 447,72.457819 447.15511,73.574691 447.25,74.875 L 449.46875,74.21875 C 449.3742,72.81344 449.23887,71.457726 449.28125,69.84375 449.50756,61.225334 447.82879,57.537166 441.6875,53.28125 438.19113,50.858267 437.84748,50.276913 438.34375,47.21875 439.22396,41.794702 445.12998,35.469215 451.5625,33.0625 454.83675,31.837446 458.11522,31.230505 459.5625,31.59375 462.53404,32.339558 466.38376,37.175896 471.40625,46.4375 475.54295,54.065662 475.54663,54.014589 472.5,68.5 471.08284,75.237994 471.00906,77.367629 472.03125,82 473.55779,88.917957 476.04748,92.470875 481.25,95.125 489.4534,99.310066 497.91995,96.512029 508.75,86.03125 515.3611,79.633359 513.7367,79.317382 506.375,85.5625 499.44924,91.437813 492.60759,95 488.25,95 486.83142,95 483.77013,93.867013 481.4375,92.5 477.84635,90.395451 476.89828,89.12961 475.21875,84.15625 472.8426,77.12011 473.07783,70.428077 475.96875,63.09375 478.73779,56.068654 478.54675,53.958033 474.46875,45.25 468.5929,32.70289 463.38162,27.578606 456.03125,28.375 z M 439.6875,77.15625 442.3125,76.34375 C 442.78017,70.748884 441.09703,67.403893 436.53125,64.125 430.13735,59.533245 429.51505,59.654692 429.5,65.625 429.4909,69.238332 428.58234,72.612006 426.5,76.96875 423.77582,82.668395 423.69503,83.237306 425.28125,84.125 427.02506,85.100885 427.6443,90.179936 426.40625,93.40625 425.44182,95.919513 423.10672,95.255626 422.375,92.25 422.00678,90.7375 420.41101,88.025388 418.84375,86.21875 417.27649,84.412112 416,82.259046 416,81.4375 416,80.615954 417.35,77.268632 419,74 422.65954,66.75049 423.05348,60.053483 420,57 418.35556,55.355556 416.66667,55 410.5,55 406.16667,55 403,55.422222 403,56 403,57.11052 403.31998,57.149111 410.6875,57.15625 416.62396,57.162002 418.31793,58.201919 419.8125,62.71875 420.7642,65.594948 420.46604,66.766978 417,73.625 412.779,81.976835 412.77882,82.155206 417.65625,88.59375 418.94551,90.295665 420,92.18147 420,92.78125 420,93.38103 420.43236,95.026696 420.96875,96.4375 421.50514,97.848305 422.20648,99 422.53125,99 424.48638,99 427.35107,96.368116 428.5625,93.46875 429.95552,90.134783 429.84263,88.614484 427.75,84.25 426.87727,82.429794 427.15806,80.714907 429.3125,75.46875 430.78308,71.887804 432,68.05786 432,66.96875 432,64.488792 432.49037,64.509916 436.03125,67.03125 438.76262,68.976154 440.00883,72.848099 439.6875,77.15625 z"/>
</svg>
