<?xml version="1.0" encoding="UTF-8"?>
<svg xmlns="http://www.w3.org/2000/svg" viewBox="3296.89 16.56 21.68 86.46">
  <path d="M 3316.2188 76.375 L 3316.125 51.375 C 3316.036 23.140199 3315.7044 20.491385 3312.1875 21.71875 C 3309.7345 22.574824 3304.041 28.067223 3302.4062 31.1875 C 3300.0184 35.745558 3300.7044 38.440395 3305.5625 43.84375 L 3310.0938 48.90625 L 3305.625 54.375 C 3298.9573 62.561073 3298.8865 63.564289 3304.375 68.75 C 3306.9193 71.153874 3309 73.358397 3309 73.65625 C 3309 73.954104 3307.2 76.250668 3305 78.75 C 3302.8 81.249332 3301 84.148542 3301 85.21875 C 3301 86.288958 3303.4817 89.616392 3306.5312 92.59375 C 3312.456 98.37812 3314.3368 99.088647 3315.9062 96.15625 C 3316.1242 95.748981 3316.3247 95.471446 3316.5625 95.25 L 3316.5 94.5 L 3316.3438 89.25 C 3316.1084 88.632112 3316 87.917083 3316 87.03125 C 3316 86.028098 3316.033 85.289619 3316.1875 84.75 L 3316 78.5 L 3316.2188 76.375 z M 3312.2812 25.28125 C 3313.2902 25.66839 3313.6077 28.250947 3313.5625 35.5625 C 3313.5265 41.378782 3313.088 45.478536 3312.4688 45.6875 C 3310.9969 46.184069 3304.4235 39.931568 3303.5625 37.21875 C 3302.3813 33.497122 3309.2416 24.114806 3312.2812 25.28125 z M 3312.7188 51.625 C 3313.0882 51.802801 3313.3118 52.407958 3313.5938 53.53125 C 3313.9427 54.921245 3313.8513 59.402428 3313.375 63.46875 L 3312.5 70.84375 L 3309.4375 69.5625 C 3307.7613 68.852913 3305.5966 67.04529 3304.625 65.5625 C 3302.8891 62.913151 3302.939 62.793818 3305.9062 58.1875 C 3307.567 55.609432 3309.823 52.935872 3310.9375 52.25 C 3311.8381 51.695728 3312.3493 51.447199 3312.7188 51.625 z M 3312.3125 76 C 3313.1833 76 3313.2204 84.648026 3312.375 88.875 C 3312.0313 90.59375 3311.1563 92 3310.4375 92 C 3308.7239 92 3305 86.708009 3305 84.28125 C 3305 82.509534 3310.7532 76 3312.3125 76 z "/>
</svg>
