<?xml version="1.0" encoding="UTF-8"?>
<svg xmlns="http://www.w3.org/2000/svg" viewBox="3506.28 13.95 51.04 91.48">
  <path d="M3520.75 99.919901C3519.7875 99.359296 3518.9981 98.36048 3518.9957 97.70031C3518.9934 97.040139 3517.6453 94.475 3516.0 92.0C3514.3547 89.525 3513.0066 86.792666 3513.0043 85.928147C3513.0019 85.063628 3515.9141 80.851106 3519.4759 76.566988C3525.6324 69.161837 3525.9377 68.547072 3525.6665 64.101768C3525.2764 57.707783 3524.7599 57.160026 3519.6622 57.734605C3513.6957 58.40712 3510.7811 56.766265 3511.6253 53.209994C3511.9791 51.719497 3512.8832 49.789567 3513.6343 48.921259C3515.4607 46.809934 3515.3639 46.016257 3512.969 43.467005C3510.5341 40.875131 3508.6015 30.318088 3509.5425 24.74866C3510.3794 19.795153 3511.76 20.336316 3514.1083 26.538272C3516.042 31.645047 3518.216 34.013443 3520.9411 33.982033C3522.8394 33.960154 3529.0 24.809331 3529.0 22.011615C3529.0 18.109156 3531.5823 20.087773 3536.8154 28.0C3539.7255 32.4 3542.5672 36.0 3543.1302 36.0C3545.1893 36.0 3549.8529 30.22314 3551.0681 26.167141C3552.9894 19.75436 3555.0 20.760114 3555.0 28.13398C3555.0 35.875159 3553.3029 41.616615 3550.3214 43.961861C3547.3651 46.287257 3547.4029 47.501623 3550.5476 51.238991C3554.5331 55.975417 3553.5658 57.448192 3546.24 57.797717L3540.0 58.095435L3540.0 61.968633C3540.0 65.27783 3541.0921 67.224646 3547.5 75.33813C3551.625 80.561095 3555.0 85.306056 3555.0 85.882487C3555.0 86.458918 3553.65 89.059272 3552.0 91.661052C3550.35 94.262832 3549.0 96.962627 3549.0 97.660597C3549.0 99.780234 3545.2913 101.22626 3543.0 100.0C3540.7885 98.81645 3540.422 95.948564 3542.085 92.841118C3543.5305 90.140144 3542.602 87.161683 3539.14 83.394308C3534.461 78.302591 3532.084 78.358018 3528.065 83.65255C3525.1566 87.483942 3524.8116 88.468727 3525.815 90.075323C3527.3489 92.531515 3527.3401 98.259932 3525.8 99.8C3524.3547 101.24533 3523.0777 101.27565 3520.75 99.919901Z M3518.8 40.8C3520.8614 38.7386 3520.1055 36.584369 3516.5016 34.25C3514.5912 33.0125 3512.7405 32.0 3512.389 32.0C3511.2289 32.0 3512.9915 38.333114 3514.6669 40.184383C3516.6 42.320517 3517.1914 42.408598 3518.8 40.8Z M3548.9822 92.377526C3552.8054 85.603256 3552.556 84.169096 3546.4115 77.592742C3538.7395 69.381499 3537.1744 66.240903 3537.753 60.219062L3538.2545 55.0L3543.6272 55.0C3547.6386 55.0 3549.0 54.63486 3549.0 53.559017C3549.0 52.766476 3548.5232 51.823378 3547.9405 51.463242C3547.3578 51.103106 3545.4024 47.770123 3543.5951 44.056612C3539.952 36.5707 3533.2091 26.0 3532.0771 26.0C3530.4963 26.0 3527.014 30.942732 3522.0436 40.241486C3519.1797 45.599303 3516.4233 50.238361 3515.9183 50.550503C3515.4132 50.862645 3515.0 52.05 3515.0 53.189069C3515.0 55.050733 3515.4529 55.209056 3519.48 54.755149C3525.608 54.064426 3527.1231 55.44288 3528.0953 62.593438C3529.0117 69.334005 3528.7396 69.944904 3520.675 79.256037L3515.6896 85.012073L3518.5948 90.676461C3520.1927 93.791874 3522.0625 96.526658 3522.75 96.753758C3524.5222 97.339154 3524.3374 92.926758 3522.4787 90.272986C3521.0344 88.21096 3521.2646 87.743889 3527.0255 81.050479C3530.363 77.172716 3533.4753 74.0 3533.9419 74.0C3534.8952 74.0 3537.2257 76.423732 3542.5457 82.947909C3546.2513 87.49238 3546.5348 89.360741 3544.4876 95.75C3543.1145 100.03583 3545.7954 98.024171 3548.9822 92.377526Z M3549.9011 40.398553C3552.0787 37.630178 3553.7035 31.37014 3552.545 30.211702C3552.1628 29.82943 3551.3532 30.412912 3550.7459 31.50833C3550.1387 32.603749 3548.346 34.717722 3546.7622 36.206049C3544.3411 38.481222 3544.0568 39.23755 3544.9765 40.956049C3546.418 43.649543 3547.4344 43.534478 3549.9011 40.398553Z"/>
</svg>
