<?xml version="1.0" encoding="UTF-8"?>
<svg xmlns="http://www.w3.org/2000/svg" viewBox="2517.26 14.99 82.24 93.35">
  <path d="M2544.0318 103.19098C2544.0143 102.47102 2543.6189 102.11752 2543.153 102.40543C2541.2781 103.56417 2534.0 93.514832 2534.0 89.767318C2534.0 87.783061 2538.0671 80.483781 2539.9995 79.0C2540.3576 78.725 2541.4674 77.094812 2542.4657 75.377361C2544.7532 71.441915 2543.9555 67.80167 2539.9217 63.767869C2537.1709 61.01702 2536.7778 60.902179 2534.7229 62.249054C2533.4203 63.102892 2531.5195 66.457894 2530.1317 70.35305C2527.6691 77.264686 2526.2569 78.270048 2522.75 75.607954C2521.441 74.614252 2521.0 72.833508 2521.0 68.540887C2521.0 61.713952 2522.9683 57.113038 2527.6458 53.006086C2531.7906 49.366927 2535.2433 49.172527 2541.5254 52.22461C2547.117 54.941211 2548.3246 53.861805 2547.3707 47.0C2546.5607 41.173281 2546.7222 41.360201 2541.9468 40.719685C2531.9637 39.38067 2531.1964 31.37227 2540.3554 24.108644C2544.2288 21.036712 2549.951 19.23367 2551.9351 20.459899C2552.5208 20.821873 2553.0 23.116476 2553.0 25.559017C2553.0 31.094089 2554.2271 31.236336 2560.5224 26.431013C2565.3563 22.741232 2568.0 22.534575 2568.0 25.846491C2568.0 28.663388 2565.1126 35.077442 2562.3857 38.318249C2560.4133 40.662254 2560.0 42.266278 2560.0 47.576725C2560.0 51.109526 2560.3375 53.997035 2560.75 53.993411C2561.1625 53.989787 2562.85 53.092752 2564.5 52.0C2566.15 50.907248 2567.8012 50.010213 2568.1694 50.006589C2568.5376 50.002965 2571.368 52.31152 2574.4592 55.13671C2579.8022 60.019922 2580.1501 60.180311 2581.508 58.38671C2582.9557 56.474494 2583.0543 55.807822 2583.3399 46.0C2583.4799 41.190619 2583.2592 40.499467 2581.5819 40.495759C2580.527 40.493426 2579.477 39.930926 2579.2486 39.245759C2578.6404 37.421187 2584.4737 37.660883 2586.0199 39.524001C2587.7675 41.629721 2586.6367 52.77228 2584.0914 58.526275C2581.4339 64.533897 2579.1322 64.425596 2572.9062 58.0C2570.2417 55.25 2567.7913 53.0 2567.461 53.0C2567.1306 53.0 2564.9133 54.33963 2562.5335 55.976955C2556.8001 59.92164 2556.1138 58.901596 2556.9059 47.612215C2557.4516 39.833057 2557.8147 38.534995 2559.8167 37.205744C2562.2333 35.601148 2565.3514 29.37762 2564.4607 27.936477C2564.1715 27.468397 2561.8363 28.416202 2559.2716 30.042711C2552.046 34.625051 2549.5341 33.84196 2549.5115 27.0C2549.4943 21.756195 2546.0853 21.679373 2540.9575 26.80723C2534.7401 33.024623 2536.0316 38.0 2543.8628 38.0C2548.821 38.0 2550.0 40.120069 2550.0 49.036245C2550.0 55.969487 2549.7507 57.063041 2547.9507 58.02639C2546.2584 58.932063 2545.0961 58.589738 2541.2792 56.061574C2534.8627 51.811464 2531.9393 52.026197 2527.9689 57.039251C2526.2094 59.260838 2524.3577 62.912598 2523.854 65.154272C2522.0435 73.212275 2525.8296 76.251973 2528.0039 68.486057C2529.2789 63.932143 2534.6273 58.0 2537.4581 58.0C2539.8979 58.0 2544.7277 62.862147 2546.3733 66.974934C2548.3102 71.815805 2547.8196 73.338896 2541.6127 81.752809C2539.0757 85.191853 2537.0 88.673347 2537.0 89.48946C2537.0 91.617787 2542.2532 98.916988 2543.8174 98.962049C2545.214 99.002284 2544.5905 95.372557 2542.8876 93.55C2541.0503 91.583544 2542.1294 88.015879 2546.069 83.03194C2551.3856 76.305932 2552.4941 75.980561 2555.9982 80.117478C2560.4876 85.417737 2562.6296 90.762136 2561.1891 93.068883C2560.5351 94.116072 2560.0 95.653968 2560.0 96.486431C2560.0 99.410219 2562.5284 97.889951 2565.3264 93.283836C2568.5116 88.040265 2568.284 86.696328 2563.2242 80.873089C2558.0365 74.90264 2557.7017 73.612804 2560.0457 68.626186C2561.1919 66.187694 2563.0112 63.394887 2564.0885 62.41995C2565.9773 60.710552 2566.3126 60.785748 2573.4911 64.528457L2580.9351 68.409579L2583.5964 65.95479C2586.8745 62.931074 2588.7245 58.716812 2591.0391 49.0C2592.7863 41.665171 2593.0983 27.586042 2591.5684 25.11069C2590.8519 23.951293 2587.6276 24.356397 2582.6944 26.225649C2580.715 26.975662 2579.576 26.976019 2578.8269 26.226863C2578.0777 25.477706 2579.7421 24.571838 2584.4788 23.150819C2591.8751 20.931849 2593.7737 21.160775 2594.5091 24.360301C2595.5915 29.069309 2595.7596 42.490257 2594.7666 44.917402C2594.1855 46.337831 2593.3682 49.525 2592.9505 52.0C2591.4026 61.17165 2586.727 69.52844 2582.558 70.574799C2581.0567 70.951603 2578.1161 70.077781 2574.1529 68.077188C2566.8872 64.409481 2565.5998 64.305635 2563.5567 67.222506C2560.9562 70.935277 2561.6561 74.623731 2566.0051 80.125677C2571.2169 86.719096 2571.7498 89.05071 2569.0452 93.426881C2562.849 103.45259 2553.8312 104.10146 2557.0698 94.288568C2558.393 90.279234 2557.1856 86.462483 2553.4985 82.998558L2551.1577 80.799562L2548.0789 85.04982C2544.4658 90.037477 2544.4013 90.571734 2546.9451 94.430658C2548.9282 97.438975 2548.7696 98.3942 2545.6051 102.5C2544.6677 103.71621 2544.0511 103.987 2544.0318 103.19098Z M2581.0 32.0C2583.7745 29.829762 2585.0 29.512605 2585.0 30.964816C2585.0 32.097472 2581.7096 34.00977 2579.8157 33.977764C2579.0921 33.965534 2579.625 33.075541 2581.0 32.0Z"/>
</svg>
