<?xml version="1.0" encoding="UTF-8"?>
<svg xmlns="http://www.w3.org/2000/svg" viewBox="1022.52 13.42 24.95 90.66">
  <path d="M 1045.4688 84.15625 C 1042.7496 83.301195 1041.0633 79.258904 1039.5312 70.75 C 1038.0774 62.675593 1037.9687 59.64338 1038.875 51.3125 C 1039.4663 45.877057 1040.7292 38.435115 1041.6875 34.78125 C 1043.3339 28.504121 1043.3347 27.920013 1041.7188 24.53125 C 1038.9366 18.697078 1032.6091 17.539978 1029.5625 22.3125 C 1028.7991 23.508287 1027.4047 31.25 1026.4688 39.5 C 1024.5193 56.682476 1025.0059 73.648338 1027.6562 81.5625 C 1029.6591 87.543079 1036.2835 97.348943 1039.3125 98.8125 C 1040.5198 99.395857 1041.9883 99.900276 1042.5938 99.9375 C 1042.9044 99.956598 1043.4228 99.821187 1043.8438 99.75 L 1044.1562 96.75 C 1044.073 96.770416 1043.6027 96.943136 1043.5938 96.9375 C 1043.5383 96.902637 1042.6002 96.50913 1041.5 96.0625 C 1038.6689 94.913224 1031.2051 81.399152 1030.125 75.46875 C 1029.6264 72.73123 1029.1544 66.702826 1029.0625 62.0625 C 1028.9705 57.422174 1028.6971 53.33826 1028.4688 52.96875 C 1028.2405 52.59924 1028.7218 47.860994 1029.5312 42.46875 C 1030.3407 37.076507 1031 30.971688 1031 28.90625 C 1031 23.890897 1031.8514 22 1034.0625 22 C 1036.672 22 1039 25.831208 1039 30.09375 C 1039 32.095812 1038.08 37.471656 1036.9375 42.0625 C 1032.7408 58.924258 1035.3627 82.437647 1041.8438 85.90625 C 1042.894 86.468333 1044.0289 86.736953 1045.1875 86.84375 L 1045.4688 84.15625 z "/>
</svg>
