<?xml version="1.0" encoding="UTF-8"?>
<svg xmlns="http://www.w3.org/2000/svg" viewBox="2921.26 15.68 124.63 89.39">
  <path d="M 2975.1562,19.90625 C 2972.2074,20.406784 2968.8415,23.196639 2964.1875,28.90625 2960.1846,33.817162 2959.8211,34.71139 2960.3125,38.375 2960.9596,43.199051 2963.3805,45.321033 2967.5,44.65625 2969.15,44.389981 2971.4,44.02597 2972.5,43.84375 2974.2643,43.551494 2974.5415,44.149134 2974.8125,48.90625 2975.2239,56.128106 2974.0835,57.022886 2969,53.5 2966.7548,51.944125 2963.6253,50.65625 2962.0625,50.65625 2958.7277,50.65625 2947.6696,57.865216 2947.1875,60.34375 2946.7416,62.635926 2949.3008,62.430018 2951.5,60 2954.4186,56.774958 2961.8673,53.025649 2963.7812,53.8125 2964.7212,54.198915 2967.6878,55.82898 2970.375,57.4375 2975.0728,60.249572 2975.3132,60.262687 2976.625,58.46875 2978.3177,56.153769 2978.7561,46.484929 2977.375,41.75 2976.7911,39.747959 2972.0747,39.331566 2970.2812,41.125 2969.6475,41.758724 2968.0324,41.986081 2966.5938,41.625 2962.7355,40.656623 2962.1849,36.783091 2965.2812,32.21875 2968.3688,27.667452 2972.7812,23 2973.9688,23 2976.6784,23 2978,24.452472 2978,27.4375 2978,33.619699 2983.8467,35.48516 2987.9062,30.59375 2989.7648,28.354442 2991,28.615958 2991,31.21875 2991,32.433061 2989.3925,35.060448 2987.4375,37.0625 2984.4733,40.09821 2983.7405,41.754654 2982.9688,47.09375 2982.4599,50.614887 2982.0423,54.2875 2982.0312,55.25 2982.0066,57.402285 2984.8947,57.549061 2987.5625,55.53125 2990.467,53.334377 2993.3542,53.69829 2996.0625,56.59375 2999.645,60.423798 3001.4203,61.114409 3004.6562,59.9375 3007.7099,58.826902 3013.7785,51.616255 3016.5312,45.84375 3018.2106,42.322271 3018.2123,42.290422 3015.0312,37.90625 3011.8119,33.469514 3011.3345,29.536854 3013.4375,24.75 3013.9937,23.484202 3013.774,23 3012.5938,23 3008.262,23 3008.1329,33.866267 3012.4062,39.46875 3013.8308,41.336463 3015,43.311549 3015,43.84375 3015,45.415751 3006.1339,56.731283 3004.375,57.40625 3003.3165,57.812423 3001.2303,56.627009 2998.3125,53.9375 2994.632,50.544893 2993.383,49.948958 2991.1875,50.5 2989.7264,50.866703 2988.0916,51.217415 2987.5312,51.3125 2986.9242,51.415526 2986.6391,49.702407 2986.8438,47.03125 2987.1016,43.665757 2988.0159,41.621232 2990.4688,38.90625 2993.6065,35.433078 2995.7692,29.022343 2994.5,26.96875 2993.4143,25.212053 2989.8703,25.931924 2986.7812,28.53125 2985.12,29.929003 2983.2433,30.921996 2982.625,30.71875 2982.0067,30.515503 2981.3533,28.275583 2981.1875,25.75 2980.9214,21.698055 2980.5606,21.048884 2978,20.15625 2977.0691,19.831722 2976.1392,19.739405 2975.1562,19.90625 z M 3019.4062,23 C 3016.1917,23 3016.2676,37.42828 3019.5,41 3021.6478,43.373316 3024,43.628037 3024,41.5 3024,40.675 3023.5601,40 3023.0312,40 3021.4965,40 3019.7566,31.905004 3020.2812,27.25 3020.6373,24.091709 3020.413,23 3019.4062,23 z M 2964.4062,59.40625 C 2962.4025,59.219903 2960.0609,59.931325 2957.2812,61.53125 2951.1957,65.033911 2948.9006,67.015509 2949.625,68.1875 2949.9478,68.709795 2950.9181,68.476937 2951.8438,67.65625 2955.4249,64.480968 2961.3357,61.862907 2963.625,62.4375 2964.9051,62.758775 2966.7176,64.464071 2967.625,66.21875 2969.8556,70.532179 2970.5987,80.942798 2968.8438,83.25 2967.5811,84.910026 2967.2218,84.867988 2962.7812,82.5 2956.7351,79.275794 2953.5149,79.281949 2951.4062,82.5 2949.4862,85.430442 2947.3646,85.617414 2942.5312,83.3125 2940.5945,82.388927 2938.7949,81.892647 2938.5,82.1875 2937.3886,83.298917 2939.1909,85.742216 2942.2812,87.28125 2946.8924,89.577701 2948.5066,89.369137 2952.3438,86 2956.4942,82.355859 2957.516,82.304455 2962.2188,85.5 2968.9283,90.059307 2971.0475,88.773521 2972.8125,79.0625 2973.6165,74.638794 2973.4705,72.677092 2971.9688,68.125 2970.1331,62.560587 2967.7458,59.716828 2964.4062,59.40625 z M 3025.75,23.21875 C 3025.0967,23.562785 3024.379,25.195365 3024.1875,27.78125 3023.6538,34.990194 3028.6082,41.34819 3032.9375,39.03125 3037.3101,36.691077 3038.5894,39.410624 3034.875,43.125 3033.2538,44.746236 3031.9761,45.109598 3029.375,44.6875 3026.2588,44.181816 3025.7019,44.502904 3022.4375,48.8125 3020.4847,51.390596 3016.0953,56.352173 3012.6875,59.84375 3006.7725,65.904003 3006.3214,66.187488 3002.5938,65.6875 3000.4461,65.399435 2997.4183,64.203512 2995.875,63.0625 2992.4518,60.531622 2991.4632,60.484325 2989.0312,62.75 2984.4645,67.004602 2983.2201,79.710976 2986.875,84.84375 2989.8608,89.036894 2992.299,89.576638 2997.0625,87.09375 3002.2622,84.383519 3004.5706,84.456591 3008.1875,87.5 3009.8216,88.875 3012.0671,90 3013.1875,90 3015.5148,90 3023,86.042466 3023,84.8125 3023,83.496841 3019.6683,83.938511 3017.5625,85.53125 3014.8163,87.608349 3012.9256,87.365455 3009.5938,84.5 3005.9892,81.400174 3002.0223,81.294522 2996.875,84.1875 L 2992.9375,86.40625 2990.8438,84.28125 C 2987.8813,81.318807 2987.0655,75.539748 2988.7812,69.5 2989.5624,66.75 2990.3361,64.361978 2990.5,64.1875 2990.6639,64.013022 2992.9891,64.971752 2995.6562,66.3125 3003.8094,70.410964 3004.7209,70.479935 3009.1562,67.40625 3011.3596,65.879265 3016.3434,60.996933 3020.25,56.5625 3026.3063,49.68794 3027.9647,48.399542 3031.4375,47.78125 3036.6899,46.846105 3040.2343,42.962483 3039.8125,38.625 3039.577,36.203836 3038.9541,35.41505 3037.125,35.15625 3035.824,34.972184 3034.284,35.309684 3033.6875,35.90625 3033.0909,36.502816 3032.0201,37 3031.3125,37 3029.5835,37 3027,30.572537 3027,26.28125 3027,23.796185 3026.4033,22.874715 3025.75,23.21875 z M 2935.3438,87.59375 C 2934.4878,88.029366 2935.2406,89.812144 2937.25,90.78125 2940.0867,92.149324 2941,92.233659 2941,91.125 2941,90.057036 2939.113,88.529892 2936.75,87.6875 2936.0947,87.453877 2935.6291,87.448545 2935.3438,87.59375 z M 2981.7812,89.96875 2978.3438,93 C 2976.4582,94.655503 2974.3872,96.005373 2973.7188,96 2973.0503,95.994627 2970.0983,94.869627 2967.1562,93.5 2960.3539,90.333356 2956.9638,90.345035 2950.9375,93.625 2946.4545,96.06492 2945.7622,96.171199 2941.7812,95.03125 2930.2217,91.721118 2926.9298,93.316303 2936.5312,97.5625 2943.4652,100.62904 2945.3908,100.59445 2950.9688,97.40625 2956.4524,94.271936 2959.1843,94.17935 2965,96.875 2970.8522,99.587581 2975.7307,99.595984 2978.5938,96.90625 L 2980.8438,94.8125 2984.6562,97.40625 C 2989.4448,100.6602 2992.6835,100.6846 2997,97.5 3001.4206,94.238557 3003.9026,94.346469 3008.5,98 3010.7965,99.824991 3013.4596,101 3015.2812,101 3018.442,101 3025,97.5163 3025,95.84375 3025,94.763485 3021.0994,95.689034 3019.5625,97.125 3017.7335,98.833879 3013.0948,97.989389 3010.375,95.46875 3005.7254,91.159656 3000.3264,91.020192 2995.1875,95.0625 2991.8226,97.709294 2990.8462,97.548889 2986,93.5 L 2981.7812,89.96875 z M 3023.5625,90.34375 C 3021.8056,90.656002 3019,92.114313 3019,93.03125 3019,93.698588 3019.8752,93.884123 3021.25,93.46875 3023.9048,92.666662 3025.5788,91.26624 3024.8125,90.5 3024.6001,90.28755 3024.1481,90.239666 3023.5625,90.34375 z"/>
</svg>
