<?xml version="1.0" encoding="UTF-8"?>
<svg xmlns="http://www.w3.org/2000/svg" viewBox="864.83 13.49 58.64 92.46">
  <path d="M 905.53125 89.46875 C 901.22634 88.02287 900.78563 83.135132 904.5 75.15625 C 907.74711 68.181098 907.91456 60.426681 904.875 56.5625 C 902.91712 54.073464 902.82859 53.519074 904.03125 49.875 C 906.07803 43.673193 907.32513 42.508524 912.03125 42.4375 C 914.98781 42.392881 916.66109 41.798092 917.65625 40.4375 C 920.80668 36.130187 920.42019 34.419868 914.5 27 C 908.39349 19.346619 905.79238 17.695791 902.3125 19.28125 C 900.24275 20.224246 897 25.479012 897 27.90625 C 897 29.567254 896.07419 29.234623 892.75 26.4375 C 888.45722 22.825369 886.57108 23.535214 886.1875 28.875 C 885.8933 32.970457 886.18561 33.544789 890.9375 38.125 C 896.40178 43.391869 897.0268 45.517522 894.15625 49.0625 L 892.3125 51.34375 L 888.8125 48.65625 C 880.34416 42.197134 872.3505 48.042212 869 63.125 C 867.49995 69.877717 868.33789 75.573086 871.0625 77.03125 C 872.64596 77.878691 873.14265 77.72122 873.65625 76.28125 C 878.53671 62.597953 881.86678 59.332667 887.75 62.375 C 892.48072 64.82135 893.56328 68.752423 891.625 76.46875 C 889.61003 84.490387 889.57758 88.282445 891.5 92 C 893.26725 95.417493 898.71615 99.776718 902.6875 100.96875 C 903.96938 101.35352 905.0131 101.61296 905.6875 101.75 L 905.65625 98.90625 C 902.69801 98.801745 900.29333 97.54333 897.375 94.625 C 893.52496 90.774962 892.99986 89.736634 893.03125 85.875 C 893.05084 83.465132 893.66362 78.949603 894.40625 75.84375 C 895.62399 70.750887 895.60176 69.803708 893.96875 66.15625 C 892.67255 63.261107 890.94305 61.48676 887.90625 59.9375 C 884.00381 57.94662 883.40471 57.894642 880.5625 59.25 C 878.55359 60.207979 876.6512 62.450601 875.09375 65.625 C 872.19085 71.54169 872.35112 71.324843 871.21875 70.625 C 869.86786 69.790101 871.7204 59.498382 874.03125 54.96875 C 876.75585 49.628085 879.37932 47.949975 883.34375 49.0625 C 885.08331 49.550668 887.50537 51.138854 888.75 52.5625 C 889.99463 53.986147 891.77903 54.988955 892.6875 54.8125 C 895.90299 54.187937 899.90793 43.538319 898.40625 39.625 C 898.06134 38.726166 896.80647 38 895.59375 38 C 893.05288 38 889 33.104315 889 30.03125 C 889 27.254799 889.84113 27.457531 893.625 31.125 C 897.67079 35.046335 899.57731 34.404697 900.5 28.8125 C 901.89783 20.340666 904.68802 19.942781 910.78125 27.3125 C 917.70447 35.686097 917.5353 39.581696 910.25 39.1875 C 907.00029 39.011663 906.22546 39.430377 904.4375 42.25 C 903.30145 44.041558 901.57696 47.462606 900.625 49.875 C 898.92717 54.177498 898.94154 54.304843 901.0625 56.5625 C 904.51631 60.238913 904.78121 66.874158 901.71875 73.75 C 897.94109 82.231604 897.33538 86.617039 899.625 89.1875 C 900.65283 90.341412 902.91571 91.888149 904.65625 92.625 C 904.96069 92.753884 905.25964 92.717812 905.5625 92.8125 L 905.53125 89.46875 z "/>
</svg>
