<?xml version="1.0" encoding="UTF-8"?>
<svg xmlns="http://www.w3.org/2000/svg" viewBox="2640.3 14.09 82.79 93.39">
  <path d="M2667.75 101.9199C2666.7875 101.3593 2666.0 100.34348 2666.0 99.662536C2666.0 98.981589 2664.6683 96.86645 2663.0406 94.962226C2659.0096 90.246167 2659.1884 87.21628 2663.8123 81.89079C2668.7458 76.20884 2671.0 72.873219 2671.0 71.255151C2671.0 70.54024 2669.1427 67.940368 2666.8726 65.477657C2663.6625 61.995063 2662.0513 61.003793 2659.6226 61.017066C2656.3566 61.034917 2656.3086 61.11078 2650.8946 74.821205C2649.8614 77.437578 2647.2992 77.428765 2645.6458 74.803151C2644.0643 72.291661 2646.417 57.679353 2649.1026 53.334034C2652.4592 47.902856 2654.9461 47.486091 2662.8022 51.038142C2666.486 52.703723 2670.239 54.475031 2671.1422 54.97438C2673.4404 56.244985 2674.0 55.32334 2674.0 50.267592C2674.0 43.614827 2672.7375 42.0 2667.5362 42.0C2657.6675 42.0 2657.3111 33.372328 2666.8247 24.777322C2673.9535 18.336897 2677.1714 18.823535 2679.1395 26.639687C2679.7434 29.037859 2680.4151 31.0 2680.6323 31.0C2681.5584 31.0 2685.7042 28.31924 2688.2138 26.097548C2690.4716 24.098809 2691.1858 23.909333 2692.4638 24.969993C2693.3087 25.671186 2694.0 27.332716 2694.0 28.662283C2694.0 31.777929 2690.5156 38.612073 2688.2929 39.855969C2686.9028 40.633916 2686.6195 42.029331 2686.8202 47.110574C2686.9568 50.570834 2687.2491 53.582416 2687.4696 53.802977C2687.6902 54.023539 2688.8999 53.483098 2690.1578 52.601999C2693.452 50.294707 2697.404 50.627636 2700.8176 53.5C2702.4517 54.875 2704.2345 56.0 2704.7793 56.0C2706.2947 56.0 2708.5464 51.986216 2709.7602 47.121331C2711.1974 41.360855 2709.9746 38.0 2706.4414 38.0C2703.0863 38.0 2703.707 35.855964 2707.3438 34.883355C2709.5632 34.289773 2710.3499 34.604393 2711.6651 36.611656C2714.8785 41.515846 2711.0849 56.278644 2705.898 59.054587C2704.1372 59.996951 2703.2194 59.712077 2700.1513 57.270761C2695.0004 53.172248 2693.4967 52.821483 2690.6561 55.055876C2688.0649 57.094086 2685.4722 57.573029 2684.6071 56.173274C2684.3261 55.718574 2683.9623 51.861061 2683.7987 47.601022C2683.5067 39.995502 2683.5582 39.807093 2686.6498 37.177748C2694.0981 30.843059 2693.173 25.926259 2685.5063 31.100417C2679.7599 34.978623 2678.2717 34.427988 2676.3092 27.697436C2675.5558 25.113846 2674.7058 23.0 2674.4201 23.0C2670.4485 23.0 2662.605 32.181454 2663.1699 36.169361C2663.467 38.267333 2664.0211 38.501954 2668.7196 38.519577C2671.5903 38.530344 2674.4232 39.023186 2675.0148 39.614782C2676.6598 41.259768 2677.4748 54.244218 2676.095 56.822537C2674.4718 59.855555 2672.4953 59.580546 2663.1718 55.02441C2658.6973 52.837835 2654.4419 51.276948 2653.7153 51.555771C2651.1609 52.53598 2648.7461 58.294171 2648.2387 64.614835C2647.9568 68.126676 2648.1253 70.985124 2648.6131 70.966942C2649.1009 70.948759 2650.7155 68.242399 2652.2011 64.952806C2655.1723 58.37365 2657.6163 56.742764 2662.4338 58.124419C2666.0227 59.153692 2672.4399 65.233565 2674.0563 69.135959C2675.3846 72.342815 2674.5316 74.160442 2668.5673 80.83239C2663.7933 86.172721 2662.5823 88.791745 2664.0623 90.57504C2664.7229 91.370998 2666.0441 93.479733 2666.9983 95.261118C2667.9525 97.042503 2669.5225 98.655954 2670.4873 98.846565C2671.9553 99.136615 2672.1571 98.647403 2671.7249 95.846565C2671.4409 94.005954 2670.897 91.536544 2670.5161 90.358987C2669.9774 88.693016 2670.8972 86.991613 2674.6619 82.690783C2679.9457 76.654426 2682.2982 75.797836 2684.1115 79.25C2684.7615 80.4875 2686.6189 83.025579 2688.2392 84.890174C2690.8575 87.903349 2691.1123 88.765178 2690.5313 92.640174C2690.1209 95.376705 2690.2592 97.0 2690.9027 97.0C2692.279 97.0 2697.0 89.956297 2697.0 87.902836C2697.0 87.004744 2695.2011 83.621705 2693.0024 80.384971C2688.3656 73.559143 2687.6506 67.878846 2690.9222 63.860784L2692.8445 61.5L2697.6722 63.305606C2707.9489 67.149117 2707.7635 67.140846 2710.0996 63.860096C2712.583 60.372503 2716.4422 36.387241 2715.6823 29.163035C2715.0361 23.019746 2714.0046 22.344605 2708.4857 24.452326C2705.9517 25.420049 2703.6372 25.970554 2703.3423 25.675672C2702.2352 24.56856 2711.2375 20.893015 2714.3236 21.19213L2717.5 21.5L2717.4023 35.0C2717.3278 45.281896 2716.7839 50.590058 2715.1206 57.267827L2712.9366 66.035654L2715.5403 70.478511C2718.8289 76.090161 2719.3308 81.926947 2716.8722 85.9697C2715.8587 87.636365 2714.6034 89.0 2714.0828 89.0C2712.1539 89.0 2708.4964 82.354708 2706.9627 76.063406L2705.381 69.575425L2699.9405 67.382051C2696.1049 65.835706 2694.1313 65.491961 2693.25 66.216783C2691.333 67.793508 2691.7293 74.076178 2693.8947 76.435549C2696.2897 79.045198 2700.0 86.015452 2700.0 87.905211C2700.0 89.826311 2692.8488 100.82841 2691.1776 101.47845C2690.4502 101.76136 2688.9877 101.52861 2687.9276 100.96123C2685.8732 99.861773 2685.3406 95.590501 2686.9423 93.059133C2688.405 90.747413 2683.3022 82.0 2680.491 82.0C2679.8316 82.0 2678.0744 83.128451 2676.5862 84.507668C2673.9912 86.912681 2673.9082 87.297523 2674.5596 93.90856C2675.1807 100.21122 2675.0629 100.89595 2673.1852 101.90089C2670.698 103.23201 2670.0069 103.23442 2667.75 101.9199Z M2706.5 30.0C2706.8399 29.45 2707.5415 29.0 2708.059 29.0C2708.5766 29.0 2709.0 29.45 2709.0 30.0C2709.0 30.55 2708.2984 31.0 2707.441 31.0C2706.5835 31.0 2706.1601 30.55 2706.5 30.0Z M2715.7724 79.422279C2716.1013 74.687066 2712.9037 68.715989 2710.5274 69.627862C2709.6873 69.950226 2709.0049 70.728333 2709.0108 71.356989C2709.0246 72.811842 2711.7218 81.740793 2712.5544 83.088064C2713.8276 85.148079 2715.5077 83.234205 2715.7724 79.422279Z"/>
</svg>
