<?xml version="1.0" encoding="UTF-8"?>
<svg xmlns="http://www.w3.org/2000/svg" viewBox="63.16 13.94 52.22 92.45">
  <path d="M 67.25,57.125 66.78125,60.53125 C 68.156098,60.564647 69.491609,60.213083 70.84375,59.125 72.308371,57.946403 74.969309,55.980544 76.75,54.75 78.530692,53.519457 79.993192,52.028576 80,51.46875 80.006809,50.908923 78.769521,48.658923 77.28125,46.46875 74.994336,43.103276 74.589744,41.49343 74.65625,36 74.699531,32.425 75.427582,27.925 76.25,26 L 77.75,22.5 78.375,26.5 C 80.526994,39.730554 82.371986,44.333942 85.875,45.25 88.321729,45.889834 92.796082,42.787169 97.125,37.40625 L 100.25,33.5 99.78125,38.625 C 99.301555,43.869335 94.793073,51.924279 92.3125,51.96875 90.227806,52.006123 89.753508,54.079991 91.40625,55.90625 93.382944,58.090472 93.495547,64.583975 91.625,69.125 90.861021,70.979668 89.912128,74.817859 89.53125,77.65625 87.854588,90.151112 98.196099,92.860995 106.28125,82.03125 110.44182,76.458337 110.61684,76 108.5,76 107.675,76 107,76.385265 107,76.84375 107,78.428449 99.296584,86 97.6875,86 96.79944,86 95.132519,84.9875 93.96875,83.75 91.479664,81.103217 91.815916,76.433192 95.0625,69.09375 96.649221,65.506705 96.936021,63.463803 96.40625,58.78125 95.837535,53.75447 96.024331,52.614534 97.75,50.71875 100.81383,47.352889 101.76081,44.95162 103.03125,37.65625 103.94284,32.42149 103.92887,30.625617 102.96875,29.46875 101.11226,27.23181 100.24649,27.636295 97.53125,31.9375 94.340128,36.992565 89.438287,42 87.6875,42 85.348892,42 82.433455,34.395746 81.4375,25.75 81.072355,22.580231 80.294553,19.668365 79.71875,19.3125 77.830056,18.145223 74.332639,23.639358 72.625,30.4375 71.128934,36.393369 71.11478,37.619899 72.40625,41.96875 73.201866,44.647878 74.363685,47.811035 75,49 75.947355,50.770149 75.840066,51.53409 74.34375,53.1875 73.338711,54.298056 71.362037,55.779504 69.96875,56.5 68.990821,57.005707 68.127527,57.171782 67.25,57.125 z M 65.96875,66.625 65.53125,69.8125 C 67.54119,69.992759 69.681148,69.360606 72.75,67.875 75.884822,66.357459 77.450133,66.043883 78.21875,66.8125 79.983651,68.577401 80.764379,76.709894 79.6875,82.15625 78.837094,86.457209 78.954294,87.786048 80.5,90.65625 86.711532,102.19037 103.8165,99.801979 110.5625,86.46875 112.20679,83.218875 113.00436,80.445012 112.59375,79.375 112.06477,77.996478 111.39907,78.692252 109.53125,82.5625 105.37867,91.16692 101.29583,94.364683 93.875,94.875 91.001117,95.072632 89.468469,94.461536 86.59375,91.9375 L 82.9375,88.75 83.34375,80.125 C 83.780456,70.880383 82.77453,66.822651 79.21875,63.65625 77.208175,61.865844 77.05275,61.88467 72.75,64.40625 70.322557,65.828826 67.58332,67 66.6875,67 66.565527,67 66.164307,66.696995 65.96875,66.625 z"/>
</svg>
