<?xml version="1.0" encoding="UTF-8"?>
<svg xmlns="http://www.w3.org/2000/svg" viewBox="1168.98 16.08 110.46 91.32">
  <path d="M 1258.5,22 C 1257.4578,22 1257,23.050922 1257,25.4375 1257,33.212426 1253.5443,36.806996 1249.625,33.125 1245.705,29.442342 1242,30.982385 1242,36.28125 1242,38.684629 1242.6415,39.411294 1245.9688,40.8125 1248.1573,41.734156 1250.1796,43.104199 1250.4688,43.84375 1251.0752,45.394566 1248.0149,52.384029 1245.2188,55.84375 L 1243.3125,58.21875 1237.9062,54.125 C 1231.8031,49.498134 1231.3345,49.377027 1228.125,51.625 1225.2829,53.615708 1224.4072,52.72438 1223.7188,47.21875 1223.249,43.462837 1223.4998,42.725421 1225.6562,41.3125 1228.9959,39.124247 1231,34.91603 1231,30.125 1231,25.180557 1228.0986,23.649744 1224.6562,26.78125 1221.9893,29.207309 1218.0028,31.346537 1217.3438,30.6875 1216.7867,30.130494 1216.1756,27.33557 1216.0625,24.75 1215.8648,20.22875 1206.6244,24.453582 1202.5312,30.9375 1197.8966,38.279154 1200.2926,44 1208,44 1211.1043,44 1212.0151,44.391886 1212.0938,45.75 1212.2602,48.623367 1211.8435,54.458419 1211.4375,54.875 1211.2297,55.088256 1208.5489,53.963256 1205.5,52.375 L 1199.9688,49.5 1196,51.75 1192.0625,54.03125 1190,50 C 1187.4289,44.960121 1187.2072,40.412928 1189.3438,36.28125 1191.2612,32.573449 1191.3677,32 1190.0312,32 1188.0541,32 1184.7502,40.232781 1185.25,43.9375 1185.9235,48.930268 1189.9334,57 1191.7188,57 1192.5357,57 1194.5614,56.014906 1196.25,54.8125 L 1199.3438,52.625 1205.4062,55.84375 C 1208.7524,57.611682 1211.7792,59.046776 1212.125,59.03125 1213.7035,58.960368 1215.0872,52.742143 1214.8125,46.90625 L 1214.5,40.5 1209.625,40.84375 C 1204.3507,41.217196 1203.0269,40.28266 1203,36.125 1202.9845,33.731481 1209.7443,26 1211.8438,26 1212.4336,26 1213.1885,27.6875 1213.5312,29.75 1214.8025,37.399325 1215.6101,37.654024 1222.0938,32.5 1227.2686,28.386307 1228,28.250044 1228,31.28125 1228,34.313768 1225.3711,37.899603 1222.3125,39.0625 1219.9142,39.974319 1219.8618,40.222621 1220.5,46.75 1220.8626,50.459588 1221.3883,54.2875 1221.6562,55.25 1222.2455,57.367382 1224.7988,57.464557 1227.4375,55.46875 1230.296,53.306698 1232.5418,53.650298 1236.2188,56.84375 1238.0253,58.412846 1240.175,59.968767 1241,60.28125 1243.391,61.186876 1243.4803,61.138842 1246.1875,58.25 1251.7534,52.310631 1254.6552,43.030171 1251.8125,40.1875 1250.8792,39.254167 1250.9383,39 1252.125,39 1252.9641,39 1254.5678,37.9875 1255.6875,36.75 1259.6034,32.421994 1261.5906,22 1258.5,22 z M 1264.625,24.03125 C 1264.1459,24.005845 1263.6673,25.744465 1263.5625,27.90625 1263.4447,30.334423 1262.3133,33.393624 1260.5938,35.875 1259.0628,38.084151 1258.1089,40.355204 1258.4688,40.9375 1259.4659,42.55077 1259.7031,42.32581 1262.5312,37.5 1265.1103,33.099061 1266.5083,24.131106 1264.625,24.03125 z M 1246.5312,35.0625 C 1247.3778,35.18596 1248.3863,35.853363 1249,37 1249.814,38.521059 1249.7586,38.966291 1248.7812,38.90625 1246.4047,38.760265 1245,37.83261 1245,36.40625 1245,35.349105 1245.6847,34.93904 1246.5312,35.0625 z M 1272.4375,24.84375 C 1271.8564,25.173438 1271.2424,26.521898 1270.9062,28.71875 1269.9989,34.648326 1267.6276,39.235639 1263.625,42.75 1261.5989,44.528907 1259.5494,46 1259.0938,46 1258.6379,46 1257.0055,48.8125 1255.4688,52.25 1251.9281,60.169628 1248.3332,65.940807 1246.4688,66.65625 1245.6708,66.962416 1243.1894,66.25119 1240.9688,65.09375 1238.7481,63.936311 1235.6116,63 1234,63 1227.2951,63 1224.5702,71.985062 1229.5,77.84375 1230.8825,79.486785 1232.6405,82.319586 1233.4062,84.15625 1234.7078,87.277659 1234.6361,87.832325 1232.0312,92.46875 1227.9757,99.687402 1225.3047,99.597298 1228.0625,92.34375 1228.8452,90.285051 1228.7949,88.913214 1227.8438,87.03125 1225.8698,83.125788 1219.6948,77.000992 1217.75,77 1216.7929,76.999512 1214.4212,79.1375 1212.4688,81.75 1209.1841,86.145325 1208.9609,86.89201 1209.4688,91.75 1209.7705,94.6375 1209.6673,97.003478 1209.25,97 1208.5616,96.994263 1206.8999,94.547992 1203.25,88.25 1202.0506,86.180364 1202.3078,85.604724 1206.4688,81.15625 1211.8101,75.445892 1212.2348,72.281959 1208.5938,65.78125 1206.4751,61.998673 1205.759,61.453536 1202.25,61.1875 1199.1775,60.954554 1197.5977,61.462097 1195.25,63.4375 1193.5827,64.840439 1191.5218,66 1190.6875,66 1187.6202,66 1182.0336,56.777209 1182,51.65625 1181.9969,51.189371 1181.3967,49.389371 1180.6562,47.65625 1176.6559,38.29296 1176.6094,37.238908 1179.875,32.21875 1183.7384,26.279592 1182.8639,25.284698 1178.375,30.5 1173.9967,35.586744 1174.0634,36.665607 1180.0625,55.5 1181.531,60.110573 1182.2064,62.880137 1182.0312,65.28125 L 1182.75,65.3125 1190.4062,70.84375 C 1190.857,70.473965 1191.2207,70.001869 1191.7188,69.6875 1193.8202,68.360929 1196.1283,66.524804 1196.875,65.625 1197.6218,64.725197 1199.4561,64 1200.9375,64 1203.0253,64 1204.1194,64.86263 1205.8125,67.875 1208.8146,73.216519 1208.6019,74.632532 1204,79.625 1199.2503,84.777772 1198.9026,87.924763 1202.5,93.21875 1203.875,95.242244 1205,97.280821 1205,97.75 1205,98.21918 1205.5275,99.1525 1206.1875,99.8125 1207.8771,101.50211 1209.4277,101.30796 1211.375,99.15625 1212.7,97.69205 1212.9146,96.158598 1212.4375,91.90625 1211.8782,86.92254 1212.0802,86.234357 1214.875,83 L 1217.875,79.5 1221.4375,83.4375 C 1225.136,87.527643 1225.971,91.321331 1223.9688,95.0625 1221.5593,99.564466 1227.8461,103.24395 1231.125,99.25 1231.9152,98.2875 1233.6225,95.544518 1234.9062,93.15625 1237.8346,87.708614 1237.2957,83.385537 1233.0625,78.25 1226.2083,69.934638 1232.0988,62.015947 1240.4062,68.375 1241.2095,68.989885 1242.3731,70.396284 1243.5625,72.0625 L 1251,67.25 1250.7812,66.9375 1253.2188,63.21875 C 1254.5556,61.172304 1256.4321,57.475 1257.4062,55 1258.528,52.149737 1261.1433,48.742516 1264.5312,45.71875 1270.2257,40.636474 1274.4126,32.253817 1273.8125,27.09375 1273.5937,25.21179 1273.0186,24.514062 1272.4375,24.84375 z"/>
</svg>
