<?xml version="1.0" encoding="UTF-8"?>
<svg xmlns="http://www.w3.org/2000/svg" viewBox="2496.58 14.9 34.57 90.22">
  <path d="M2500.2801 95.30472C2499.2014 93.658481 2498.5771 90.980244 2498.6761 88.423582C2498.8464 84.022437 2502.3011 76.059922 2504.6301 74.70031C2506.4719 73.625171 2506.3551 71.01089 2504.282 66.903638C2502.0329 62.447527 2501.2773 44.813907 2503.0039 37.074734C2504.8302 28.888862 2509.735 19.0 2511.9688 19.0C2514.1425 19.0 2519.608 24.965171 2521.4669 29.366492C2525.9435 39.965654 2526.6656 54.305147 2523.2781 65.335535L2520.8326 73.298804L2522.9097 75.899402C2526.5124 80.41023 2528.1736 84.123472 2528.4919 88.377692C2529.1427 97.076354 2523.4817 101.01971 2521.0259 93.578404C2520.4369 91.793797 2518.5451 88.891532 2516.8218 87.128927L2513.6886 83.92419L2510.862 86.632178C2509.3074 88.121572 2507.2914 91.288629 2506.3819 93.670083C2504.4757 98.661275 2502.7775 99.116228 2500.2801 95.30472Z M2525.9847 88.70034C2526.0045 85.071388 2523.5055 80.190809 2519.9045 76.825953L2517.0429 74.151905L2519.6829 68.325953C2522.8525 61.331328 2524.0535 46.722314 2521.9764 40.428405L2520.7239 36.63353L2517.3485 40.316765C2515.492 42.342544 2513.7769 44.0 2513.5372 44.0C2513.2975 44.0 2511.7217 42.5375 2510.0353 40.75C2505.8827 36.348192 2505.0291 37.927758 2505.0364 50.0C2505.041 57.544375 2505.5516 60.940987 2507.5167 66.5C2508.8777 70.35 2509.9932 73.848638 2509.9956 74.274751C2509.998 74.700864 2508.8532 75.485501 2507.4516 76.01839C2503.3964 77.560194 2499.6143 88.729211 2502.0399 92.0C2502.8975 93.156403 2503.2705 93.20748 2503.6685 92.222978C2504.8916 89.197168 2512.1855 81.0 2513.6548 81.0C2516.1823 81.0 2523.9978 89.387232 2524.0153 92.118421C2524.0276 94.023019 2524.2248 94.199581 2525.0 93.0C2525.5332 92.175 2525.9763 90.240153 2525.9847 88.70034Z M2517.0988 36.894245C2518.6945 35.186079 2520.0 33.186801 2520.0 32.451405C2520.0 29.227784 2514.2524 22.0 2511.6889 22.0C2511.0807 22.0 2507.0 31.595224 2507.0 33.025191C2507.0 34.385131 2512.1083 40.0 2513.3455 40.0C2513.8142 40.0 2515.5031 38.60241 2517.0988 36.894245Z"/>
</svg>
