<?xml version="1.0" encoding="UTF-8"?>
<svg xmlns="http://www.w3.org/2000/svg" viewBox="1414.09 17.7 30.2 86.64">
  <path d="M 1416.25 83.03125 L 1416.0938 83.6875 L 1416.0938 91.3125 C 1416.3336 90.132334 1417.2738 90.246189 1421 90.6875 L 1426 91.28125 L 1427.6562 87.375 C 1429.6235 82.830897 1429.7191 82.004177 1430.4375 54.65625 C 1431.0097 32.874318 1431.92 26.624461 1434.6875 25.5625 C 1438.7096 24.019073 1438.9295 27.348586 1436.9375 57.5 C 1435.6129 77.54978 1433.3981 89.208583 1429.7812 95 C 1428.7807 96.602047 1427.4889 96.969114 1423.5 96.90625 C 1417.4776 96.811339 1416.2781 96.326108 1416.0938 93.71875 L 1416.0938 99.25 L 1416.1875 99.78125 C 1417.5927 99.631428 1419.5244 99.60412 1422 99.78125 C 1430.6338 100.399 1431.6885 99.612416 1435.25 90.21875 C 1438.4413 81.801374 1439.6661 73.426096 1441.0938 50 C 1442.2934 30.315439 1441.8063 25.632507 1438.4062 23.375 C 1435.7836 21.633661 1432.7496 23.606535 1430.0938 28.8125 C 1428.4785 31.978557 1428.1637 35.212557 1427.9375 51.5 C 1427.4483 86.722578 1425.5176 93.171631 1417.5938 85.8125 C 1416.9747 85.237557 1416.5544 84.363622 1416.25 83.03125 z "/>
</svg>
