<?xml version="1.0" encoding="UTF-8"?>
<svg xmlns="http://www.w3.org/2000/svg" viewBox="2431.56 13.91 59.89 88.11">
  <path d="M2459.6629 95.130933L2454.8258 92.5L2455.3681 87.730052C2455.6664 85.10658 2456.6494 81.709294 2457.5524 80.180527C2459.0429 77.657393 2459.0532 77.063105 2457.6643 73.739042C2456.4325 70.790866 2454.9407 69.508633 2450.0104 67.160352L2443.8865 64.243569L2442.2939 66.674166C2440.8026 68.950147 2440.8426 69.295897 2442.9228 72.109452C2445.6539 75.803442 2446.5095 80.594029 2445.0958 84.275626C2443.6182 88.123824 2441.3707 88.696902 2438.4644 85.966582C2435.2769 82.972009 2434.2842 77.741449 2436.3151 74.641786C2437.1618 73.349622 2438.1568 70.681024 2438.5263 68.711568C2438.8958 66.742111 2440.0606 64.35012 2441.1149 63.396032C2442.939 61.745245 2443.2418 61.766271 2447.3754 63.830663C2454.1324 67.205265 2455.3226 66.854995 2454.4458 61.75C2454.0444 59.4125 2453.7403 50.908885 2453.7702 42.853079L2453.8246 28.206157L2450.972 25.473182C2447.5113 22.157617 2445.9504 22.606657 2442.4266 27.93161L2439.7594 31.96195L2442.8797 35.515771C2446.4443 39.575583 2446.9515 43.828894 2444.1713 46.345012C2439.8186 50.28414 2435.0 46.977834 2435.0 40.05207C2435.0 36.89711 2435.9683 34.139073 2438.6586 29.630811C2445.1693 18.720466 2446.7954 17.912307 2452.0 23.0C2453.6879 24.65 2455.234 26.0 2455.4357 26.0C2455.6374 26.0 2456.7317 24.425 2457.8675 22.5C2459.0033 20.575 2460.5673 19.0 2461.3431 19.0C2462.119 19.0 2463.7216 21.25 2464.9047 24.0C2466.0877 26.75 2467.2531 29.0 2467.4944 29.0C2467.7358 29.0 2470.2133 26.975 2473.0 24.5C2475.7867 22.025 2478.6941 20.0 2479.4608 20.0C2481.3632 20.0 2485.0153 24.82665 2485.6989 28.244266C2486.0066 29.78281 2486.6502 31.283812 2487.1292 31.579826C2488.7284 32.568181 2488.0173 39.459426 2485.9695 42.818171C2483.6267 46.660771 2481.5887 46.675452 2478.7504 42.870173C2476.5129 39.870241 2476.8506 37.972855 2480.6073 32.437015C2482.8235 29.171309 2482.9847 28.3773 2481.9426 25.861409C2480.3119 21.924538 2478.3175 22.267332 2472.5789 27.470862L2467.6578 31.933087L2469.0789 36.216543C2470.02 39.053229 2470.5 44.975291 2470.5 53.75C2470.5 61.937473 2470.8821 66.988076 2471.5 66.96879C2472.05 66.951625 2474.3 65.828931 2476.5 64.473914C2482.7273 60.638404 2483.5109 61.030976 2486.0028 69.234969C2488.654 77.963789 2488.2418 83.21274 2484.6206 86.833993C2482.3662 89.088306 2481.8021 89.230851 2479.4235 88.147115C2476.962 87.025565 2476.8071 86.604901 2477.4235 82.715704C2477.791 80.397067 2479.1961 76.900812 2480.5458 74.946249C2483.1317 71.201749 2483.5857 68.474707 2482.0321 66.017769C2481.2339 64.755341 2480.2197 64.977778 2475.1927 67.517769C2469.3386 70.475731 2469.2915 70.534499 2469.4123 74.739258C2469.4947 77.608023 2470.22 79.664437 2471.6558 81.100232C2473.491 82.935469 2473.6442 83.713295 2472.7905 86.860974C2471.3093 92.32218 2467.8351 98.015464 2466.0659 97.880933C2465.2046 97.815446 2462.3233 96.577946 2459.6629 95.130933Z M2442.8203 42.148271C2443.17 38.507924 2440.3734 34.226558 2438.7236 35.876371C2437.6449 36.955116 2437.4831 43.354603 2438.4932 44.989057C2439.8909 47.250486 2442.4945 45.5412 2442.8203 42.148271Z M2442.7609 80.422279C2443.0982 75.351737 2441.7904 73.09912 2439.5762 74.936747C2437.7573 76.446319 2437.5219 80.238068 2439.0677 83.126507C2440.6791 86.137425 2442.4679 84.827662 2442.7609 80.422279Z M2467.8813 92.818391C2470.9609 87.887176 2471.1181 84.843658 2468.4724 81.374895L2465.9813 78.108987L2467.605 68.804493C2470.0435 54.830474 2468.4335 38.461666 2463.4466 26.526352C2460.283 18.954928 2458.595 21.501368 2456.922 36.36887C2455.5587 48.485163 2456.5656 59.347632 2460.1545 71.239598L2462.1885 77.979196L2460.0942 82.305322C2457.0498 88.594324 2457.3504 90.497154 2461.75 92.787141C2466.6378 95.331226 2466.3131 95.329571 2467.8813 92.818391Z M2483.8 84.8C2485.1453 83.454744 2485.4636 75.0 2484.169 75.0C2482.4664 75.0 2479.427 83.263928 2480.4945 84.991051C2481.3181 86.323784 2482.335 86.265013 2483.8 84.8Z M2485.0136 39.458759C2486.2225 35.795684 2485.8085 33.0 2484.0571 33.0C2482.4426 33.0 2479.8392 38.918066 2480.5159 41.049979C2481.4918 44.124984 2483.7356 43.331181 2485.0136 39.458759Z"/>
</svg>
