<?xml version="1.0" encoding="UTF-8"?>
<svg xmlns="http://www.w3.org/2000/svg" viewBox="625.09 11.94 73.56 93.78">
  <path d="M 628.4375,60.75 628.59375,64.90625 C 628.65054,64.910555 628.79083,65 628.84375,65 629.38778,65 631.9756,63.380879 634.5625,61.40625 L 639.25,57.8125 644.5,59.84375 C 648.37735,61.327529 650.04831,61.545442 650.875,60.71875 652.26555,59.328197 652.33432,50.035842 651,43 649.51245,35.156142 652.20272,32.849718 658.03125,37 660.57902,38.814171 660.77093,39.343998 659.9375,42.25 658.36449,47.734749 658.753,58.566061 660.59375,60.09375 661.95479,61.223311 662.8081,61.091742 666.0625,59.21875 668.17534,58.002753 670.41137,57 671.03125,57 671.65113,57 675.23798,58.827528 679,61.0625 L 685.84375,65.125 689.875,63.0625 C 692.09973,61.927528 694.17184,61 694.46875,61 694.57831,61 694.57088,61.918328 694.65625,62.28125 L 694.375,57.78125 694.09375,56.28125 C 693.22901,58.095575 691.7403,58.912987 688.96875,60.4375 686.61656,61.731341 686.03154,61.543566 680.5,57.90625 673.89381,53.562296 671.69074,53.227115 666.53125,55.6875 664.5945,56.611073 662.83948,57.15198 662.59375,56.90625 661.64359,55.956091 661.16671,48.034009 661.90625,45.34375 662.54305,43.02723 663.16853,42.545591 665.34375,42.78125 666.80508,42.939567 668,42.693533 668,42.21875 668,41.232422 655.65969,31 654.46875,31 653.26813,31 641.06722,39.398288 641.03125,40.25 640.98502,41.344722 644.77354,41.156121 645.46875,40.03125 645.79382,39.505271 646.61136,39.304183 647.28125,39.5625 648.07861,39.869973 648.62132,43.180407 648.84375,49.15625 649.16179,57.700897 649.06591,58.229165 647.34375,57.5 646.33188,57.071575 643.85677,56.262282 641.84375,55.6875 638.45308,54.719354 637.92048,54.864147 634.5625,57.8125 632.13376,59.944961 630.423,60.944952 628.4375,60.75 z M 628.8125,69.9375 628.9375,73.46875 C 631.98227,73.738236 634.67739,72.743466 637.25,70.25 639.09423,68.4625 641.03868,66.993191 641.5625,67 642.62018,67.013747 645.33666,71.092944 649,78.15625 L 651.40625,82.8125 648.25,85.75 C 646.52092,87.365202 644.82083,89.847181 644.46875,91.25 642.52908,98.978239 646.89004,101.4536 652.0625,95.5625 655.64404,91.483352 657.88109,91.096289 660.59375,94.09375 663.21892,96.994524 667.56062,99.095227 669.4375,98.375 672.00985,97.387897 671.44775,90.690707 668.5,87.1875 666.82778,85.200183 666,82.984558 666,80.53125 666,76.57928 668.69515,67.301884 670.09375,66.4375 670.56399,66.146878 672.86752,67.653174 675.21875,69.78125 683.5782,77.347332 683.66628,77.376505 689.59375,74.03125 L 694.8125,71.09375 695.21875,72.875 695.3125,72.375 694.875,65.78125 C 694.64864,67.713526 693.78292,68.636402 690.65625,70.46875 688.27043,71.866935 685.45793,73.004452 684.40625,73 683.35457,72.995548 679.86322,70.53673 676.625,67.5625 673.38678,64.588271 670.15495,62.392928 669.46875,62.65625 667.67714,63.343753 663.91503,73.62914 663.3125,79.5 662.88648,83.650967 663.15529,84.872199 664.90625,86.71875 666.06625,87.942082 667.47184,90.079582 668,91.46875 669.35237,95.025761 667.01133,94.823808 662.65625,91 660.77701,89.35 658.4438,88 657.46875,88 656.4937,88 653.92949,89.835482 651.78125,92.09375 649.63301,94.352018 647.62015,95.963904 647.3125,95.65625 646.048,94.391749 648.23986,89.907135 651.71875,86.625 L 655.4375,83.125 653.0625,78.8125 C 651.76503,76.443579 650.04382,73.15 649.21875,71.5 645.37771,63.818609 641.11332,62.104814 636.9375,66.59375 634.02816,69.721245 631.86683,70.707591 628.8125,69.9375 z M 655.65625,16.375 C 654.78342,16.549987 653.71533,17.269964 651.71875,18.65625 649.40308,20.264088 646.375,22.145923 645,22.84375 640.3683,25.194387 635.6445,29.654414 636.4375,30.9375 636.99594,31.84108 637.69866,31.622454 639.09375,30.125 640.13532,29.007008 643.13712,26.866469 645.75,25.375 648.36289,23.883532 651.27841,22.015877 652.21875,21.21875 654.86647,18.974267 657.93834,20.39866 664.5,26.875 670.52882,32.825434 673,34.176667 673,31.59375 673,30.176469 662.76233,20.207664 658.34375,17.3125 657.19148,16.557502 656.52908,16.200013 655.65625,16.375 z M 655.3125,24.28125 C 653.15981,23.768126 651.19863,24.778402 647.34375,27.78125 644.68186,29.854787 641.24878,32.336875 639.71875,33.3125 638.18873,34.288125 637.18986,35.498183 637.5,36 638.33686,37.354062 640.82869,36.177095 647.34375,31.34375 650.56075,28.95715 653.58613,27 654.0625,27 654.53886,27 656.41212,28.263371 658.21875,29.8125 662.76336,33.709348 668.9742,37.369549 669.75,36.59375 670.41913,35.924615 661.27674,27.413955 657.59375,25.28125 656.75397,24.794961 656.03006,24.452291 655.3125,24.28125 z"/>
</svg>
