<?xml version="1.0" encoding="UTF-8"?>
<svg xmlns="http://www.w3.org/2000/svg" viewBox="2526.77 14.79 98.92 91.01">
  <path d="M2571.25 95.385575C2564.5114 89.525409 2564.4004 87.294282 2570.5 80.321473C2572.975 77.492176 2575.0 74.551056 2575.0 73.785651C2575.0 71.225707 2568.9208 64.0 2566.767 64.0C2565.634 64.0 2562.3342 65.575 2559.434 67.5C2553.6104 71.365543 2550.6158 71.820017 2547.1169 69.369307C2543.3441 66.72678 2542.0582 61.975583 2541.4152 48.302845C2540.8677 36.66039 2540.5751 35.149151 2538.1867 31.628998C2536.7422 29.499947 2534.5111 27.070553 2533.2288 26.230345C2531.8695 25.339707 2531.2678 24.332195 2531.7858 23.814186C2533.1973 22.40266 2537.462 24.528053 2539.5001 27.658804C2540.5174 29.221462 2542.0286 31.004363 2542.8584 31.620806C2544.0265 32.488564 2544.4415 35.523202 2544.6965 45.061833C2545.0538 58.429134 2546.2593 64.710446 2548.8449 66.677312C2551.4223 68.637991 2553.1532 68.266875 2559.0 64.5C2566.238 59.836848 2568.3671 59.981712 2573.6516 65.496851C2580.1453 72.274124 2580.1948 73.912288 2574.1067 80.573664C2571.298 83.646795 2569.0 86.758007 2569.0 87.487469C2569.0 89.155052 2578.8432 97.490123 2579.7462 96.587158C2580.1125 96.220796 2579.5711 94.358987 2578.5429 92.449804C2576.91 89.417769 2576.8452 88.65772 2578.0306 86.442808C2580.4386 81.943353 2586.1039 76.0 2587.9848 76.0C2588.9907 76.0 2591.7064 78.260577 2594.0197 81.023504C2598.2154 86.034775 2598.2228 86.058204 2597.0678 90.645143C2595.8254 95.579173 2596.5172 97.693162 2598.3673 94.616036C2598.9903 93.579855 2600.5125 91.489895 2601.75 89.97168C2602.9875 88.453464 2604.0 86.115898 2604.0 84.777089C2604.0 82.203912 2599.4218 74.596717 2596.021 71.51903C2593.1708 68.939574 2593.5008 66.897332 2597.25 63.913641C2605.6164 57.255567 2608.8986 57.530517 2611.3414 65.094078C2612.2536 67.918653 2613.0 71.276436 2613.0 72.555818C2613.0 75.785148 2614.6652 76.494066 2616.0728 73.863973C2617.7731 70.68684 2616.5724 61.75578 2613.7711 56.744042C2611.5926 52.846648 2611.0968 52.517961 2607.7011 52.719902C2605.6674 52.840848 2601.5967 54.078348 2598.6552 55.469902C2592.3248 58.464647 2591.1785 58.580868 2590.9609 56.25C2590.4733 51.026329 2590.7681 37.943165 2591.4553 34.307789C2592.136 30.707193 2591.9128 29.691865 2589.8739 27.113119C2586.821 23.251893 2584.6737 23.245165 2581.9372 27.088251C2580.0061 29.800227 2579.8734 30.62265 2580.8484 33.838251C2584.462 45.756641 2584.9216 52.317133 2582.4743 57.04966C2580.6884 60.503305 2579.0624 60.665035 2573.1408 57.978038C2567.6599 55.491004 2565.3389 55.49601 2561.2258 58.003738C2557.5714 60.231829 2552.0319 60.631883 2550.2 58.8C2549.4253 58.025316 2549.0013 54.037981 2549.0037 47.55C2549.0067 39.548014 2549.3826 36.888652 2550.8481 34.5C2554.41 28.694381 2564.0 20.689366 2564.0 23.521739C2564.0 23.808696 2561.5965 26.447025 2558.6588 29.384693L2553.3176 34.725907L2552.6648 43.112954C2551.6018 56.769842 2551.6329 57.0 2554.5398 57.0C2555.9367 57.0 2558.8438 56.1 2561.0 55.0C2565.9445 52.477484 2568.6321 52.484729 2574.5854 55.036625C2580.4371 57.544923 2580.9657 56.963143 2580.9791 48.0C2580.9907 40.285368 2579.4672 34.116502 2577.3497 33.303955C2576.5105 32.981937 2574.3133 33.182096 2572.467 33.748752C2567.9981 35.120294 2565.4228 32.635976 2566.3755 27.872446C2567.6293 21.603518 2570.1416 20.548383 2574.4055 24.5C2575.8891 25.875 2577.3628 27.0 2577.6803 27.0C2577.9978 27.0 2580.0115 25.415493 2582.1551 23.478873C2585.374 20.570721 2586.3921 20.139499 2588.0033 21.001791C2589.0763 21.576016 2590.4303 22.935523 2591.0123 24.022918C2592.2895 26.409393 2593.7605 26.52669 2596.0806 24.427049C2597.0366 23.561926 2599.1398 22.645886 2600.7545 22.391403C2606.5722 21.474523 2611.0124 28.987551 2607.0152 32.98477C2604.5695 35.430527 2601.7689 35.54988 2598.4135 33.351347C2594.44 30.747845 2593.5 32.68369 2593.5 43.469932C2593.5 48.620766 2593.8213 53.15602 2594.2141 53.548272C2594.6068 53.940525 2597.3068 53.318724 2600.2141 52.166493C2609.6585 48.423409 2610.6451 48.408538 2613.962 51.959282C2615.6492 53.765522 2617.8481 58.015477 2619.0622 61.817186L2621.1964 68.5L2619.0006 74.318839C2615.4893 83.623745 2611.8539 82.922549 2610.466 72.672653C2609.7428 67.332408 2607.5725 62.0 2606.1222 62.0C2604.4969 62.0 2598.5084 66.598749 2598.2263 68.063502C2598.0681 68.884743 2599.7456 71.97848 2601.9541 74.938472C2607.9163 82.929673 2608.065 85.462421 2603.0067 92.872803C2597.9369 100.30013 2597.3973 100.66949 2594.9078 98.416604C2593.2362 96.903745 2593.032 95.803361 2593.5447 91.068643C2594.1077 85.868543 2593.9484 85.285387 2591.1368 82.257222C2589.4808 80.473694 2587.5149 79.248922 2586.7681 79.535507C2585.1903 80.140954 2580.0 87.842132 2580.0 89.577724C2580.0 90.225286 2580.675 91.315311 2581.5 92.0C2582.325 92.684689 2583.0 94.052985 2583.0 95.040657C2583.0 101.52849 2578.4667 101.66156 2571.25 95.385575Z M2543.5025 26.359689C2540.843 23.700178 2538.6789 19.987804 2539.3795 19.287145C2539.7373 18.929403 2541.5545 20.114365 2543.4179 21.920394L2546.8058 25.204082L2550.635 22.602041C2554.6972 19.841689 2556.0 19.431665 2556.0 20.91349C2556.0 22.097654 2547.9829 28.0 2546.3744 28.0C2545.6971 28.0 2544.4047 27.26186 2543.5025 26.359689Z M2574.1492 31.0C2575.3823 31.0 2574.1434 26.772038 2572.6152 25.765313C2570.7469 24.534478 2570.0649 24.893128 2569.4249 27.443165C2568.6715 30.444904 2569.7024 32.32817 2571.6829 31.568174C2572.4973 31.255678 2573.6071 31.0 2574.1492 31.0Z M2605.9847 29.633369C2605.9554 25.555606 2602.349 23.207647 2598.9276 25.03877C2596.1693 26.514946 2596.5413 29.695787 2599.6635 31.331683C2603.1188 33.142082 2606.0043 32.366827 2605.9847 29.633369Z"/>
</svg>
