<?xml version="1.0" encoding="UTF-8"?>
<svg xmlns="http://www.w3.org/2000/svg" viewBox="423.54 14.54 70.51 93.45">
  <path d="M 489.96875 60.84375 L 487.65625 59.53125 C 485.92682 58.551931 482.84275 56.454964 480.8125 54.875 C 476.44048 51.472643 474.72348 51.334373 469.75 54 C 467.69763 55.1 465.552 56 465 56 C 463.70128 56 463.73277 50.911004 465.0625 43.4375 C 466.78376 33.763506 466.71072 33.851627 470.5 34.5625 C 474.54649 35.321625 479.80515 32.610268 480.625 29.34375 C 481.18212 27.124007 479.55947 23.06255 477.59375 21.75 C 475.53571 20.375814 472.46408 20.997455 468.78125 23.5 C 464.58409 26.352043 462.10237 25.930721 458.15625 21.6875 C 455.4634 18.791915 454.03177 19.007734 449.21875 23.15625 C 447.41212 24.713457 445.60164 26 445.1875 26 C 444.77336 26 442.87297 24.658897 440.96875 23.03125 C 439.06452 21.403602 436.74382 20.053602 435.8125 20.03125 C 431.22249 19.921085 429.15255 30.995758 433.09375 34.5625 C 435.13426 36.409134 435.24377 36.407986 439.15625 34.15625 C 442.26771 32.365522 443.43617 32.122419 444.53125 33.03125 C 446.17132 34.392386 451 49.601047 451 53.40625 C 451 56.534619 449.69481 56.650261 444.75 54 C 442.69763 52.9 440.38799 52 439.625 52 C 437.7494 52 431.13571 59.447905 429.46875 63.4375 C 427.33961 68.533237 426.74355 76.141146 428.25 79 C 430.26751 82.828718 432.14246 82.035946 433.46875 76.8125 C 434.77759 71.657749 439.30447 65 441.5 65 C 442.66026 65 446.40573 69.611126 449.3125 74.625 C 449.67347 75.247649 447.74238 78.816223 445 82.53125 C 442.25762 86.246277 440 89.719041 440 90.28125 C 440 90.843459 442.1375 93.684213 444.75 96.5625 C 450.18828 102.55405 453.40524 103.41773 455.21875 99.4375 C 456.10378 97.495083 456.08886 96.117662 455.1875 93.625 C 453.48649 88.920915 453.68225 87.464236 456.5 84.3125 L 459.03125 81.5 L 462.34375 85.375 C 465.55481 89.09296 465.62643 89.3723 464.375 92.875 C 462.75031 97.422467 462.71139 99.305138 464.125 100.71875 C 467.15211 103.74586 476.04536 95.191887 476.21875 89.09375 C 476.26412 87.497992 474.87337 83.660439 473.125 80.5625 C 469.9745 74.98013 469.95313 74.898186 471.625 71.375 C 472.5528 69.419805 473.91175 67.586199 474.625 67.3125 C 475.33824 67.038802 478.59108 68.473047 481.875 70.5 C 485.68116 72.849295 488.34829 73.715868 490.84375 73.4375 L 490.59375 69.71875 C 487.65741 70.187401 485.08705 69.081555 480.1875 65.75 C 477.81975 64.139998 475.23379 63.069435 474.4375 63.375 C 472.71798 64.034838 467 72.780087 467 74.75 C 467 75.505725 468.27701 78.013403 469.84375 80.3125 C 474.31675 86.876346 474.47253 89.041226 470.8125 94.09375 C 467.24962 99.012168 465.56307 97.801771 468.46875 92.40625 C 470.16907 89.248951 470.18476 89.042326 468.21875 86.3125 C 464.86972 81.662333 459.26008 76.735983 458.125 77.4375 C 456.24151 78.601563 450 88.654752 450 90.53125 C 450 91.531014 450.71487 93.1226 451.59375 94.09375 C 452.47263 95.0649 452.8609 96.396748 452.46875 97.03125 C 451.99682 97.794858 450.44651 96.88601 447.875 94.375 C 445.73827 92.288534 444 90.24612 444 89.8125 C 444 88.951204 450.04329 80.831708 452.53125 78.34375 C 454.4476 76.427401 453.69267 73.72869 449.96875 69 C 444.8335 62.479195 443.40349 61.574144 440.1875 62.90625 C 438.6149 63.55764 436.06366 66.119976 434.5 68.59375 C 430.58172 74.792635 429.64595 75.096105 430.5 69.875 C 431.37644 64.516958 434.59136 58.508196 437.65625 56.5 C 439.7556 55.124454 440.4368 55.225564 445.90625 57.875 C 450.15625 59.933729 452.16829 60.456705 452.9375 59.6875 C 454.88546 57.73954 454.04847 51.271684 450.46875 40.34375 L 446.9375 29.59375 L 450.34375 26.1875 L 453.71875 22.8125 L 458.78125 26.4375 C 461.56881 28.440162 464.04313 30.598139 464.25 31.21875 C 464.45687 31.839362 463.82975 35.995154 462.875 40.4375 C 460.91126 49.574501 461.33664 60 463.65625 60 C 464.40262 60 467.13721 58.801729 469.75 57.34375 L 474.5 54.6875 L 481.21875 59.78125 C 485.3565 62.914167 487.68004 64.253862 490.1875 64.03125 L 489.96875 60.84375 z M 474.09375 24.09375 C 475.33033 24.124526 476.3367 24.795974 477.03125 26.09375 C 477.92068 27.755656 477.82138 28.564573 476.4375 30.09375 C 474.18346 32.584433 471.76665 32.514465 469.40625 29.90625 C 467.53743 27.841231 467.55699 27.783259 469.875 25.90625 C 471.40919 24.663943 472.85717 24.062974 474.09375 24.09375 z M 435.28125 24.125 C 436.09719 23.988621 437.22949 24.4756 438.78125 25.5625 C 441.51748 27.479029 441.62353 29.598131 439.0625 30.96875 C 434.79386 33.253256 432.38151 31.236209 433.59375 26.40625 C 433.94643 25.001032 434.46531 24.261379 435.28125 24.125 z "/>
</svg>
