<?xml version="1.0" encoding="UTF-8"?>
<svg xmlns="http://www.w3.org/2000/svg" viewBox="2741.27 15.85 76.72 91.3">
  <path d="M 2810.625 52.96875 C 2810.427 53.078798 2810.2605 53.213114 2810 53.28125 C 2808.9 53.568906 2808 54.508988 2808 55.375 C 2808 57.933552 2803.1339 58.613935 2801.5 56.28125 C 2800.7436 55.201326 2798.5131 53.112756 2796.5625 51.625 L 2793.0312 48.90625 L 2789.3438 51.40625 C 2787.3213 52.7806 2785.302 53.689385 2784.8438 53.40625 C 2783.6728 52.682567 2783.7831 46.048405 2785.0938 39.9375 L 2786.2188 34.78125 L 2790.1875 35.3125 C 2795.4207 36.014424 2798 33.609681 2798 28.03125 C 2798 24.834231 2797.4706 23.706093 2795.3438 22.3125 C 2792.78 20.632697 2792.5626 20.643778 2788.0625 23.15625 L 2783.4062 25.75 L 2780.1875 22.875 C 2778.4132 21.289695 2776.3532 20 2775.5938 20 C 2774.8345 20 2772.8152 21.575 2771.125 23.5 C 2767.4859 27.644756 2766.1333 27.831302 2763.0625 24.5625 C 2761.7992 23.217808 2759.4475 21.652843 2757.8438 21.09375 C 2755.4232 20.249914 2754.5969 20.403047 2752.9688 22.03125 C 2750.3917 24.608326 2750.4806 27.93325 2753.25 32 C 2756.6101 36.934148 2758.1913 37.614797 2763.1875 36.28125 C 2768.4028 34.889207 2768.5658 35.086364 2769.4688 44.25 C 2770.2201 51.875446 2769.4402 53.828066 2766.375 52.09375 C 2765.3477 51.512468 2762.7418 50.346599 2760.5938 49.5 C 2756.9953 48.081828 2756.5232 48.110093 2754.5938 49.71875 C 2748.1866 55.060522 2744.7544 64.793596 2745.2188 76.25 C 2745.5019 83.23343 2745.5904 83.5 2748 83.5 C 2750.2506 83.5 2750.5665 83.001219 2751.125 78.5 C 2752.2599 69.354139 2756.724 62.180751 2760.4062 63.59375 C 2761.3362 63.950645 2763.1965 66.397148 2764.5312 69.03125 L 2766.9375 73.84375 L 2762.4375 79.625 C 2759.957 82.819372 2757.6785 86.446893 2757.375 87.65625 C 2756.8408 89.784542 2760.3688 97.189915 2763.875 101.3125 C 2764.7851 102.38258 2766.418 102.98953 2767.9375 102.8125 C 2770.4262 102.52257 2770.5 102.29389 2770.5 94.8125 C 2770.5 88.638483 2770.9127 86.619407 2772.5625 84.40625 C 2775.8251 80.029566 2777.41 79.393592 2779.5938 81.65625 C 2785.3235 87.593111 2785.314 87.532321 2783.9688 92.78125 C 2783.2787 95.473453 2783.008 98.881317 2783.375 100.34375 C 2783.937 102.58272 2784.5808 103 2787.5 103 C 2790.4262 103 2791.3681 102.37842 2793.5625 99.0625 C 2794.9923 96.901828 2796.3858 93.414328 2796.6562 91.3125 C 2797.1821 87.227535 2795.1994 81.224915 2792.5938 79.0625 C 2790.5072 77.330738 2789.6404 72.079419 2790.9062 68.75 C 2792.2189 65.297631 2792.8598 65.312444 2797.5 69 C 2801.6147 72.269947 2804.4778 72.747278 2807.5312 70.65625 C 2808.6162 69.913307 2810.6883 69.012591 2812.1562 68.65625 C 2812.9415 68.465614 2813.5045 68.440063 2813.9688 68.5625 L 2814.5 67.5 L 2813.625 64.21875 C 2813.4201 64.683873 2813.1572 65 2812.75 65 C 2812.0543 65 2809.7394 65.929276 2807.625 67.0625 L 2803.7812 69.125 L 2799.8438 66.3125 C 2797.6754 64.766776 2795.3157 63.093781 2794.5938 62.59375 C 2792.4592 61.115177 2790.0081 62.704094 2788.3438 66.6875 C 2786.2753 71.637816 2787.0497 76.436851 2790.875 82.46875 C 2794.5841 88.317296 2794.791 91.543028 2791.75 96.03125 C 2787.3545 102.51864 2784.5476 100.10579 2787.5 92.375 C 2789.2091 87.899942 2789.199 87.756002 2787.0938 85.15625 C 2785.9133 83.6986 2783.7173 80.822877 2782.2188 78.78125 C 2780.7203 76.739624 2778.7767 75.052124 2777.9062 75.03125 C 2776.0189 74.985995 2771.1228 80.875096 2768.0938 86.8125 C 2766.3121 90.305052 2766.0928 91.698548 2766.875 94.53125 C 2767.4021 96.440433 2767.444 98.237515 2766.9688 98.53125 C 2765.8319 99.233839 2761 90.906432 2761 88.25 C 2761 87.108917 2763.2849 83.423993 2766.0938 80.0625 L 2771.2188 73.9375 L 2768.4062 68.375 C 2765.6006 62.829953 2761.9081 59 2759.4062 59 C 2758.6833 59 2756.742 60.4625 2755.0625 62.25 C 2752.2139 65.281889 2750.7687 68.291542 2748.0938 77 C 2747.0997 80.235923 2747.0559 80.085022 2747.5 75 C 2748.1067 68.054593 2751.3493 57.386302 2753.5938 54.90625 C 2755.8144 52.452599 2758.5303 52.489094 2765.5 55.15625 C 2770.3001 56.993148 2771.3014 57.108668 2772.0625 55.90625 C 2773.2296 54.062152 2773.2066 48.526889 2772 38.03125 C 2771.1932 31.013312 2771.2841 29.184672 2772.5312 27.28125 C 2774.3622 24.486778 2777.5732 24.329907 2778.9688 26.9375 C 2779.5345 27.994613 2780.7266 29.570348 2781.625 30.46875 C 2783.036 31.879794 2783.0985 32.871495 2782.125 37.71875 C 2781.5052 40.804965 2781 46.636968 2781 50.6875 C 2781 59.436706 2782.0556 60.399516 2787.6562 56.59375 C 2789.7457 55.173987 2792.0093 54 2792.6875 54 C 2793.3656 54 2795.862 55.998099 2798.2188 58.4375 C 2802.4127 62.778745 2802.5636 62.855166 2805.5 61.46875 C 2807.15 60.689705 2809.303 59.479107 2810.2812 58.78125 C 2811.0802 58.211237 2811.5768 58.031481 2812 58.125 L 2810.625 52.96875 z M 2756.5 24 C 2758.6241 24 2764 28.992393 2764 30.96875 C 2764 35.118205 2757.4391 33.925261 2755.5625 29.4375 C 2754.1673 26.100866 2754.5214 24 2756.5 24 z M 2791.9375 25.21875 C 2792.5126 25.192691 2792.961 25.52355 2793.6562 26.21875 C 2794.6283 27.190874 2794.9535 28.544533 2794.5312 29.875 C 2793.6954 32.508372 2790.8556 32.627594 2788.5625 30.09375 C 2786.8966 28.252999 2786.936 28.096982 2789.4688 26.4375 C 2790.6602 25.656806 2791.3624 25.244809 2791.9375 25.21875 z "/>
</svg>
