<?xml version="1.0" encoding="UTF-8"?>
<svg xmlns="http://www.w3.org/2000/svg" viewBox="2545 16.58 28.71 91.11">
  <path d="M 2547,49.96875 C 2546.9977,49.978329 2547.0023,49.990488 2547,50 L 2547.9062,55.25 C 2548.6851,55.146423 2549,55.792782 2549,57.5 2549,58.027114 2548.7136,58.473164 2548.5312,58.9375 L 2549.5,64.5 2549.4062,64.6875 C 2549.5598,64.707854 2549.9036,64.610844 2549.9688,64.6875 2550.3525,65.13908 2551.1853,68.873624 2551.8438,73 2552.8744,79.459082 2552.8084,81.165843 2551.4062,85.28125 2550.4219,88.170085 2550.0334,91.356813 2550.4062,93.34375 2551.6919,100.19712 2561.4488,103.54057 2565.75,98.59375 2570.173,93.506906 2570.5608,90.250747 2567.3438,85.53125 2565.8026,83.270282 2565.5981,79.829161 2566.9062,78.4375 2567.3974,77.915 2568.5224,74.271073 2569.4062,70.3125 2571.6213,60.391479 2571.7081,25.323633 2569.5312,22.4375 2568.2335,20.716917 2568.1374,22.289482 2568.6875,36.25 2569.1314,47.514233 2568.9829,52 2568.1875,52 2567.5758,52 2565.4324,50.875 2563.4062,49.5 2558.9529,46.477912 2557.8458,46.407967 2555.5,49 2554.5045,50.1 2553.0836,51 2552.3438,51 2550.8962,51 2550.8086,50.420511 2550.4688,36.34375 2550.2242,26.215761 2549.4356,21.632079 2548.0312,22.5 2547.516,22.818468 2547.221,29.131839 2547.375,36.78125 2547.5336,44.661704 2547.477,47.964302 2547,49.96875 z M 2558.4688,50.65625 C 2558.9536,50.613697 2559.4038,50.683515 2559.8125,50.90625 2562.3385,52.283032 2568.4318,58.880711 2567.7812,59.53125 2567.4683,59.844127 2565.7375,59.207385 2563.9062,58.09375 2560.5869,56.075128 2560.5491,56.06635 2557.2188,58.03125 2553.4284,60.267643 2553.552,60.239625 2552.6562,59.34375 2550.3938,57.081375 2555.0751,50.954123 2558.4688,50.65625 z M 2559.6562,60.15625 C 2561.1837,60.332228 2562.8333,61.402702 2564.7188,63.34375 2567.7622,66.477057 2567.8806,66.849224 2566.875,70.5625 2566.2901,72.721962 2565.141,75.945442 2564.3125,77.71875 2562.9194,80.70036 2562.9626,81.266378 2564.9062,85.28125 2567.5118,90.663432 2567.5121,91.478008 2564.9375,95.09375 2562.5094,98.503756 2559.2953,98.864039 2555.875,96.09375 2553.985,94.562952 2553.5177,93.266446 2553.5938,89.625 2553.6459,87.123279 2554.2703,84.404064 2554.9688,83.5625 2555.7741,82.592141 2555.981,80.816873 2555.5625,78.75 2553.2464,67.310003 2553.2162,64.559022 2555.3125,62.25 2556.7294,60.689394 2558.1288,59.980272 2559.6562,60.15625 z M 2554.8438,21.75 C 2554.363,21.554851 2554,24.213086 2554,29.8125 2554,37.236466 2554.2836,39 2555.4688,39 2556.6899,39 2556.8401,37.609452 2556.3438,30.75 2555.9264,24.981181 2555.3245,21.945149 2554.8438,21.75 z M 2561.875,22 C 2560.8574,22 2560.6512,38.338735 2561.6562,39.34375 2563.3821,41.069643 2564.0126,39.469036 2564,33.25 2563.9851,25.858439 2563.2417,22 2561.875,22 z"/>
</svg>
