<?xml version="1.0" encoding="UTF-8"?>
<svg xmlns="http://www.w3.org/2000/svg" viewBox="2339.07 13.19 79.55 92.91">
  <path d="M 2411.75 50.53125 L 2409.9375 52.21875 C 2405.3525 56.523114 2402.6091 56.728969 2398.4688 53.09375 C 2394.5867 49.685205 2391.0244 49.199472 2387 51.5 C 2382.2337 54.224683 2382 53.772478 2382 42.09375 C 2382 30.642079 2382.4801 29.471972 2386.5 31.0625 C 2389.8663 32.394418 2395.6608 32.107167 2396.9688 30.53125 C 2397.9032 29.405164 2397.9446 28.284531 2397.0938 25.84375 C 2394.706 18.994191 2391.0565 17.408436 2385.9688 21.03125 L 2383.0938 23.0625 L 2378.2188 20.34375 L 2373.3438 17.625 L 2368.625 20.8125 C 2363.0597 24.568468 2362.6222 24.611444 2357.5 22 C 2355.3424 20.9 2352.8227 20 2351.9062 20 C 2347.974 20 2346.3294 26.509822 2349 31.5 C 2350.6212 34.529248 2353.3679 34.69082 2357.7812 32 C 2361.2482 29.886203 2363.5423 29.465221 2364.375 30.8125 C 2364.6528 31.262033 2365.8079 35.097144 2366.9375 39.3125 C 2368.9898 46.970875 2369.5457 52.141712 2368.4062 53.28125 C 2368.0738 53.613626 2365.1617 52.502573 2361.9375 50.8125 C 2356.8142 48.126961 2355.7139 47.864866 2353.2812 48.875 C 2349.0356 50.637917 2346.3139 55.631359 2344.375 65.125 C 2342.7002 73.325668 2342.6861 73.876249 2344.3438 76.40625 C 2345.3023 77.869227 2346.5064 78.793106 2347.0312 78.46875 C 2347.556 78.144393 2349.6291 74.53067 2351.625 70.4375 C 2355.9517 61.564433 2357.695 61.057473 2363.4062 66.90625 C 2367.6033 71.204515 2367.6503 73.520251 2363.6562 76.71875 C 2360.6485 79.127398 2357 84.441711 2357 86.40625 C 2357 87.288609 2358.35 89.878492 2360 92.15625 C 2361.65 94.434009 2363 96.805022 2363 97.4375 C 2363 98.069979 2363.5275 99.1525 2364.1875 99.8125 C 2366.2448 101.86978 2369.8534 101.17407 2371.6875 98.375 C 2373.3068 95.903557 2373.2852 95.564985 2371.6875 92.78125 C 2369.1874 88.425031 2369.606 85.778563 2373.4375 81.40625 L 2376.875 77.5 L 2381.5625 82.34375 C 2386.2282 87.159908 2386.2328 87.233158 2385 90.96875 C 2383.5765 95.281845 2384.3179 98.564568 2387 100 C 2389.8467 101.52354 2391.3367 100.43339 2394.9062 94.21875 C 2398.8854 87.290998 2398.6721 84.721315 2393.5625 77 C 2391.0581 73.215652 2390.0241 70.576446 2390.2188 68.5625 C 2390.6088 64.526251 2392.2106 64.363454 2396.2812 67.9375 C 2400.664 71.78555 2403.4746 71.804417 2409.3125 67.9375 C 2411.7201 66.342798 2413.397 65.615456 2414.5 65.625 L 2415 64.5 L 2413.8438 58.25 C 2413.9877 59.925977 2412.9198 61.542024 2410.25 63.6875 C 2404.2668 68.495721 2402.7984 68.592061 2397.4375 64.5 C 2392.1656 60.475896 2390.1642 60.359067 2388.25 64 C 2386.3526 67.609063 2387.3893 72.401229 2391.4375 78.5 C 2393.3909 81.443016 2395 85.022144 2395 86.46875 C 2395 89.514106 2392.8697 94.033303 2390.5 96 C 2387.9169 98.143834 2386.8024 95.400123 2388.5625 91.1875 C 2389.3496 89.303862 2390 87.336162 2390 86.8125 C 2390 85.334802 2378.8601 74 2377.4062 74 C 2375.6947 74 2367.6587 83.37574 2366.9062 86.25 C 2366.5811 87.491884 2366.9187 89.702313 2367.6562 91.1875 C 2368.3939 92.672687 2369 94.585187 2369 95.4375 C 2369 98.08901 2367.4543 97.158191 2365.1875 93.125 C 2363.9912 90.99648 2362.3982 88.735451 2361.625 88.09375 C 2359.4531 86.291243 2360.6973 83.729421 2366.5938 77.90625 C 2369.5742 74.962901 2372 72.048743 2372 71.40625 C 2372 69.512818 2362.0562 60.227709 2359.2812 59.53125 C 2356.0038 58.708648 2353.1086 61.363 2350 68 C 2348.7276 70.71663 2347.2913 72.670932 2346.8125 72.375 C 2345.5383 71.587503 2346.9405 62.186197 2349.0625 57.25 C 2351.788 50.910315 2355.0052 50.467485 2362.375 55.46875 C 2364.4217 56.85769 2366.7042 58 2367.4375 58 C 2371.9471 58 2372.548 49.351375 2369 35.59375 L 2366.6875 26.65625 L 2369.4062 24.34375 C 2372.6915 21.517947 2374.0825 21.41138 2377.125 23.875 C 2379.4048 25.721067 2379.4365 26.11536 2379.1875 40.625 C 2379.0472 48.797686 2379.3432 56.125289 2379.8438 56.875 C 2380.5822 57.981159 2381.6003 57.74553 2385.2188 55.625 C 2390.8483 52.325845 2392.1683 52.352574 2396.2188 55.84375 C 2401.2365 60.168786 2402.7115 60.358998 2407.75 57.40625 C 2411.3755 55.281552 2412.3965 55.024514 2413.0938 56.125 C 2413.4247 56.647453 2413.5886 57.139293 2413.7188 57.625 L 2412.5 51 L 2411.75 50.53125 z M 2390.7188 22.6875 C 2391.2787 22.824117 2391.8169 23.24512 2392.5 24 C 2393.4609 25.061817 2393.9806 26.623265 2393.6562 27.46875 C 2393.0124 29.146638 2389.3135 29.499266 2387.0938 28.09375 C 2385.3668 27.000311 2386.2365 24.472386 2388.8125 23.09375 C 2389.5674 22.689741 2390.1588 22.550883 2390.7188 22.6875 z M 2354.0938 24.34375 C 2355.9638 24.708658 2358.1072 26.14709 2357.75 27.21875 C 2357.2039 28.857012 2353.6781 30.84954 2352.25 30.3125 C 2350.5349 29.667538 2350.6841 25.07909 2352.4375 24.40625 C 2352.8966 24.230087 2353.4704 24.222114 2354.0938 24.34375 z "/>
</svg>
