<?xml version="1.0" encoding="UTF-8"?>
<svg xmlns="http://www.w3.org/2000/svg" viewBox="81.06 16.78 76.18 87.49">
  <path d="M 153.78125 59.15625 C 151.83344 59.694355 150.64555 58.967898 145.46875 55.25 C 134.09724 47.083167 134.87807 47.335062 130.125 49.8125 C 127.82971 51.008874 125.72681 52 125.46875 52 C 124.41631 52 125.09159 44.070945 126.5 39.9375 C 128.00582 35.518169 128.01589 35.5 132.84375 35.5 C 135.50437 35.5 138.43421 34.879845 139.34375 34.125 C 142.88028 31.189933 140.25253 22 135.875 22 C 134.76662 22 131.83903 23.180984 129.375 24.625 L 124.90625 27.25 L 122.6875 25.1875 C 119.91845 22.59375 115.20084 20.7522 113.6875 21.6875 C 113.05276 22.079788 111.47742 23.654515 110.1875 25.1875 L 107.84375 28 L 103.59375 25.5 C 96.636206 21.422607 93 22.533743 93 28.75 C 93 30.96863 93.840951 32.90345 95.46875 34.53125 C 98.417673 37.480172 99.455597 37.569328 104.25 35.125 C 108.54789 32.933815 109.04702 33.264475 111.40625 40.28125 C 113.15202 45.473526 113.53408 52.566643 112.125 53.4375 C 111.64149 53.736326 109.30605 52.436803 106.9375 50.5625 C 104.56894 48.688197 101.0734 46.853795 99.1875 46.5 C 95.254937 45.762246 92.824498 47.54016 87.8125 54.78125 C 85.216158 58.532319 84.846342 60.015566 84.6875 66.78125 C 84.522499 73.809204 84.6768 74.5 86.4375 74.5 C 87.885346 74.5 88.830814 73.117348 90.25 69 C 91.29267 65.975 92.900052 62.669693 93.8125 61.65625 C 97.27033 57.815689 98.374763 57.902176 104.3125 62.5625 C 107.4346 65.012927 110 67.503289 110 68.09375 C 110 68.684211 107.28645 72.179753 103.96875 75.84375 C 95.81428 84.84937 95.699866 85.741492 101.65625 92.4375 C 104.32655 95.439375 107.30696 97.907095 108.28125 97.9375 C 110.95499 98.02094 112.60497 93.623178 111.125 90.375 C 109.82879 87.530137 110.23608 86.584333 115.40625 80.5 L 117.96875 77.5 L 122.46875 82.1875 L 126.96875 86.84375 L 125.53125 90.875 C 124.22552 94.575825 124.2775 95.120647 126 97.21875 C 128.52167 100.29029 130.59117 98.957753 134.21875 91.9375 C 137.80991 84.987726 137.72409 82.952751 133.59375 76.125 C 129.72185 69.724468 128.90577 65.997772 130.875 63.625 C 132.8245 61.275997 133.85093 61.530805 140.53125 65.96875 C 145.32346 69.152372 148.76259 70.204919 152.75 69.625 L 153.0625 66.46875 C 152.89563 66.497672 152.62478 66.605424 152.46875 66.625 C 149.09976 67.047681 147.65577 66.566145 143.0625 63.5 C 135.64114 58.546019 132.82306 58.08319 129.5625 61.34375 C 127.29953 63.606721 127.0349 64.469538 127.625 68.21875 C 127.99542 70.5722 129.81762 74.757341 131.65625 77.5 C 133.49488 80.242658 135 82.998595 135 83.625 C 135 84.251405 133.86806 87.281563 132.5 90.375 C 130.15174 95.684837 128.78146 97.058684 127.625 95.1875 C 127.34723 94.738055 127.76126 92.45063 128.5625 90.125 C 129.58218 87.165354 129.72511 85.35899 129.03125 84.0625 C 127.89552 81.940371 119.11624 74 117.90625 74 C 117.4639 74 115.06772 76.518333 112.5625 79.59375 C 107.92376 85.288286 106.77628 89.401285 109.1875 91.8125 C 110.02101 92.646008 110.06871 93.306295 109.34375 94.03125 C 108.6188 94.756205 107.19587 93.724269 104.65625 90.625 C 102.6453 88.170893 101 85.764226 101 85.28125 C 101 84.798274 103.46808 81.518211 106.5 77.96875 C 114.89269 68.143463 114.81991 66.082147 105.78125 58.9375 C 101.70897 55.718547 100.10763 54.992789 98.0625 55.5 C 94.162542 56.467225 91.227131 59.768175 89.4375 65.15625 C 87.328579 71.505618 85.523631 71.55251 86.46875 65.25 C 87.273466 59.883771 88.685831 56.974676 92.8125 52.09375 C 96.287367 47.98376 98.516812 48.24075 105.09375 53.46875 C 109.5564 57.016103 113.29687 57.94215 114.59375 55.84375 C 116.41745 52.89294 115.95438 45.485976 113.5 38.375 C 111.11524 31.465731 111.0458 30.812114 112.5 28 C 114.41767 24.291637 115.09562 24.289868 119.21875 27.84375 C 121.02539 29.400957 123.27238 30.936906 124.21875 31.28125 C 125.79944 31.856392 125.82564 32.247904 124.46875 36.09375 C 123.65636 38.396302 122.69305 43.3667 122.34375 47.125 C 121.58407 55.298891 122.74208 56.323294 129.28125 53.375 C 134.26707 51.127059 135.57717 51.340378 139.5 54.90625 C 144.7253 59.656077 149.80924 62.987159 151.6875 62.9375 C 152.08634 62.926955 152.9193 62.476141 153.46875 62.3125 L 153.78125 59.15625 z M 134.4375 25.78125 C 136.72651 25.648725 138.23309 27.304184 137.84375 30.0625 C 137.57527 31.964587 136.83483 32.559242 134.5 32.75 C 131.17279 33.021836 127.43525 30.734742 128.46875 29.0625 C 128.83371 28.471995 130.39526 27.32877 131.9375 26.53125 C 132.83351 26.067903 133.6745 25.825425 134.4375 25.78125 z M 96.8125 26.625 C 97.868378 25.972432 104 29.646747 104 30.9375 C 104 31.476233 103.12634 32.399399 102.0625 32.96875 C 99.556438 34.309955 99.59348 34.296866 97.65625 32.15625 C 95.889205 30.203688 95.463532 27.458709 96.8125 26.625 z "/>
</svg>
