<?xml version="1.0" encoding="UTF-8"?>
<svg xmlns="http://www.w3.org/2000/svg" viewBox="2005.13 12.91 72.19 94.83">
  <path d="M2050.75 100.9199C2048.7148 99.734505 2048.5155 97.157531 2050.1769 93.511031C2051.2679 91.116606 2050.9968 90.565421 2046.4645 85.963978C2043.7754 83.23379 2041.2236 81.0 2040.7939 81.0C2040.3641 81.0 2038.6262 82.9125 2036.9317 85.25C2034.2332 88.972521 2033.9309 90.035227 2034.496 93.812428C2035.7299 102.05923 2031.1207 103.4246 2025.4419 96.494462C2021.1088 91.20647 2020.7791 87.933741 2024.2017 84.185191C2028.549 79.423942 2033.0 72.655433 2033.0 70.805878C2033.0 69.815814 2031.352 67.18162 2029.3378 64.952113C2025.2724 60.452228 2021.3942 59.879801 2019.4997 63.5C2018.9241 64.6 2017.792 66.625 2016.984 68.0C2016.1759 69.375 2015.0615 72.488528 2014.5074 74.918952C2013.5886 78.949249 2011.0 81.896328 2011.0 78.912074C2011.0 78.222048 2010.3719 76.947048 2009.6043 76.078741C2008.4252 74.745115 2008.4075 73.073936 2009.4899 65.314974C2010.7953 55.957632 2012.1594 52.967908 2017.3205 48.152504L2019.8365 45.805008L2026.8997 49.516617C2035.9208 54.25707 2037.4156 53.82702 2036.5317 46.745608C2035.7169 40.217976 2032.1914 31.0 2030.5096 31.0C2029.8176 31.0 2027.4729 31.627512 2025.2991 32.394471C2023.1253 33.16143 2020.1308 33.556492 2018.6446 33.272387C2012.9274 32.179482 2011.1302 24.778926 2015.5166 20.392442C2018.4243 17.484762 2020.9893 17.812823 2025.0547 21.612344C2028.3446 24.687117 2029.2216 24.62236 2033.3472 21.0C2037.6419 17.229245 2040.3425 17.215564 2044.5879 20.943058L2047.9399 23.886116L2053.7495 20.889857C2056.9448 19.241915 2060.2594 18.162321 2061.1153 18.49076C2063.0629 19.238116 2066.0 25.261511 2066.0 28.508247C2066.0 30.199253 2065.094 31.41714 2063.0497 32.47432C2059.0788 34.527714 2056.7725 34.395463 2053.6445 31.935015C2050.5016 29.462772 2049.5183 29.897588 2048.4567 34.229191L2047.655 37.5L2047.0775 33.0C2046.4124 27.817527 2043.9905 23.772343 2040.6384 22.245017C2038.7225 21.37206 2037.7991 21.585051 2035.4788 23.435167L2032.6528 25.688551L2035.3561 32.981562C2038.2476 40.782486 2039.6754 50.172794 2038.6134 54.404225C2037.7275 57.93377 2034.4073 57.811305 2027.654 54.0C2024.7304 52.35 2021.4022 51.0 2020.258 51.0C2017.3925 51.0 2013.1994 56.286956 2012.502 60.779437C2012.1843 62.825747 2011.5538 66.649494 2011.1008 69.276653C2010.2998 73.922674 2011.4262 76.972293 2012.5918 73.313382C2015.6575 63.690786 2019.8956 58.0 2023.9962 58.0C2026.1202 58.0 2027.9462 59.258559 2031.4073 63.108154C2037.8036 70.222371 2037.8023 71.607856 2031.3906 80.038635C2028.9205 83.286649 2026.4721 86.208247 2025.9497 86.531075C2024.3005 87.550342 2024.9117 90.195397 2027.6154 93.740198C2029.495 96.204474 2030.536 96.864042 2031.3154 96.084589C2032.0949 95.305137 2032.0624 94.662394 2031.2 93.8C2029.1784 91.778432 2029.8188 89.922527 2034.5 84.236346C2036.975 81.229987 2039.0 78.371935 2039.0 77.885119C2039.0 75.530936 2042.7778 77.559348 2048.2578 82.85585L2054.3165 88.7117L2053.2631 92.861641C2051.9269 98.125715 2053.3375 99.12256 2056.0053 94.799498C2059.5016 89.133866 2059.4806 87.542093 2055.8423 82.459955C2049.9992 74.298181 2049.0107 72.549695 2049.0053 70.367647C2048.9988 67.738812 2056.5424 60.0 2059.1114 60.0C2061.2454 60.0 2067.0 67.3612 2067.0 70.091022C2067.0 73.36667 2068.8653 73.091785 2069.1852 69.768984C2069.699 64.433427 2067.3426 55.888058 2064.6018 53.147223C2062.3006 50.846031 2061.8071 50.741212 2058.2675 51.801704C2056.1563 52.434252 2053.4512 53.862638 2052.2562 54.975895C2049.6585 57.396055 2046.4479 57.609628 2045.607 55.418213C2044.3979 52.267374 2044.9548 40.282379 2046.3647 39.112284C2047.499 38.170916 2047.6829 39.135471 2047.4537 44.824874C2047.0847 53.987084 2047.7405 54.854592 2052.6207 51.660638C2054.7543 50.264242 2057.7408 48.819739 2059.2573 48.450632C2067.7199 46.390879 2074.0387 61.884173 2070.1187 75.082369C2068.3732 80.959111 2067.5552 82.447462 2065.8928 82.771411C2064.8216 82.980152 2064.4692 81.462181 2064.3667 76.197388C2064.216 68.458953 2062.0223 63.0 2059.0632 63.0C2056.8462 63.0 2051.9853 68.411823 2052.0332 70.826725C2052.0515 71.747026 2053.3927 74.3 2055.0136 76.5C2056.6346 78.7 2058.9463 82.385799 2060.1508 84.690665L2062.3409 88.88133L2059.9204 93.49588C2057.4135 98.275377 2054.4466 102.02243 2053.211 101.96959C2052.82 101.95287 2051.7125 101.48051 2050.75 100.9199Z M2024.6579 28.449119C2025.3956 26.526738 2021.3266 22.0 2018.8609 22.0C2016.3018 22.0 2014.6467 25.471265 2016.0 28.0C2017.3402 30.504122 2023.7419 30.836204 2024.6579 28.449119Z M2061.3808 29.710798C2062.6938 28.75073 2062.965 27.70891 2062.4433 25.630035C2061.5678 22.141819 2059.8021 21.425124 2055.982 23.007439C2052.4148 24.485039 2052.0887 27.248287 2055.2225 29.443296C2057.9253 31.336398 2059.0886 31.386929 2061.3808 29.710798Z"/>
</svg>
