<?xml version="1.0" encoding="UTF-8"?>
<svg xmlns="http://www.w3.org/2000/svg" viewBox="2125.52 14.62 26.71 90.31">
  <path d="M2128.0 99.062053C2128.0 98.546182 2128.6405 95.283682 2129.4233 91.812053C2132.2001 79.497694 2133.2409 61.310957 2132.0709 45.550323C2131.4447 37.115697 2130.3906 29.721468 2129.5948 28.181521C2128.8326 26.706685 2128.1101 24.6 2127.9893 23.5C2127.5209 19.234155 2127.8878 18.727555 2130.9957 19.349145C2136.144 20.378798 2138.819 22.900278 2141.0287 28.806362C2143.9884 36.716659 2144.8074 41.795464 2146.5321 62.930919C2147.3655 73.143913 2148.4671 83.525 2148.9801 86.0C2150.2194 91.97875 2150.2339 97.737411 2149.0115 98.492876C2148.4679 98.828877 2145.9357 98.180434 2143.3844 97.051893C2137.3887 94.39972 2135.8502 94.466111 2133.0 97.5C2130.6508 100.00058 2128.0 100.82872 2128.0 99.062053Z M2146.667 90.75C2145.5617 84.334892 2143.1232 63.274072 2142.1224 51.5C2141.0567 38.960997 2138.1287 27.948766 2134.9777 24.628644C2132.4123 21.925463 2130.6465 23.401809 2132.3727 26.806751C2134.8525 31.698509 2136.4639 59.91342 2135.1013 74.587063C2134.4419 81.689178 2133.6687 88.714179 2133.3831 90.198176C2132.8852 92.785347 2133.006 92.873282 2136.3195 92.335576C2138.2201 92.027149 2140.6133 92.261786 2141.6376 92.856991C2142.6619 93.452196 2144.3386 93.952867 2145.3635 93.969591C2146.9177 93.994953 2147.1341 93.460625 2146.667 90.75Z"/>
</svg>
