<?xml version="1.0" encoding="UTF-8"?>
<svg xmlns="http://www.w3.org/2000/svg" viewBox="1063.5 22.37 35.09 81.26">
  <path d="M 1068,82.46875 1068,82.5 1068,88.90625 C 1068.8811,88.051078 1070.4442,87.367468 1072.875,87.1875 1075.8471,86.967458 1077.43,86.252145 1078.4375,84.6875 1080.9897,80.723768 1082.8425,70.766884 1084.4375,52.5 1086.5965,27.774779 1086.6566,27 1085.8438,27 1084.4743,27 1083.7264,29.278969 1083.4375,34.375 1083.2777,37.192825 1082.4509,45.97647 1081.5938,53.90625 1078.6867,80.797094 1077.5864,84 1071.375,84 1069.4696,84 1068.6516,83.49633 1068,82.46875 z M 1067.4062,91.3125 1065.5,95.5 1065.5,95.78125 C 1066.7179,95.893435 1068.1916,96.325875 1070.5,97.46875 1073.25,98.830285 1075.95,99.937793 1076.5,99.9375 1079.9212,99.935683 1085.2786,91.52356 1089.1562,80.0625 1094.3566,64.691937 1096.5883,27.693202 1092.4062,26.3125 1091.6614,26.066608 1091.2995,30.648633 1091.2188,40.90625 1091.0525,62.050872 1086.7213,82.835754 1080.6875,91.5 1077.8209,95.616255 1077.2922,95.849163 1073.25,94.9375 1069.8384,94.168051 1067.9546,92.741366 1067.4062,91.3125 z"/>
</svg>
