<?xml version="1.0" encoding="UTF-8"?>
<svg xmlns="http://www.w3.org/2000/svg" viewBox="3016.24 17.46 33.91 92.97">
  <path d="M 3048.1562,37.4375 3048,32.5 3047.8125,30.46875 C 3047.3839,30.382953 3047.0549,30.094072 3046.6875,29.4375 3044.3604,25.279263 3041.2339,23.2339 3036.125,22.53125 3029.9734,21.685189 3027.5064,22.923516 3022.9688,29.1875 3018.2416,35.712992 3019.183,44.05551 3025.375,50.8125 3027.2182,52.823909 3027.5877,54.79405 3028.125,65.3125 3028.7161,76.882641 3028.6277,77.673151 3026.4375,81 3022.448,87.059964 3021.7052,89.554015 3022.4375,94.4375 3023.2815,100.06566 3026.4081,103.88171 3031.0312,104.96875 3036.2678,106.20002 3036.3544,106.18154 3040.0312,103.46875 3042.0476,101.98123 3044.1723,99.101503 3045.2188,96.4375 3046.9445,92.043975 3046.9393,91.773272 3044.9375,86.21875 3041.7689,77.426203 3041.0784,73.308747 3041.0312,62.6875 3040.9892,53.214337 3041.1089,52.737909 3044.0625,49.0625 3046.3696,46.191715 3047.2465,43.867188 3047.6875,39.59375 3047.7949,38.553252 3048.0265,38.181031 3048.1562,37.4375 z M 3032.5938,25.15625 C 3034.5,24.744512 3036.5968,25.224488 3039.5,26.4375 3042.645,27.751538 3044.5505,30.830181 3043.9062,33.5625 3043.7849,34.077041 3044.0148,35.283358 3044.4375,36.25 3045.8778,39.543195 3044.0111,45.080399 3040.3125,48.46875 3037.1307,51.38368 3036.8615,52.049176 3037.5312,55.09375 3037.9417,56.958999 3038.3571,63.225 3038.4688,69 3038.6338,77.526645 3039.0887,80.29984 3040.8438,83.71875 3043.8358,89.547489 3043.6713,95.057256 3040.4062,98.9375 3035.0423,105.31209 3025,100.90321 3025,92.1875 3025,90.0126 3026.2351,86.959499 3028.5312,83.5 L 3032.0938,78.15625 3031.4062,66.3125 C 3030.718,54.367118 3030.1102,52.168591 3025.5,45.375 3021.6069,39.638249 3022.0345,34.365647 3026.8438,29.15625 3028.9655,26.857901 3030.6875,25.567988 3032.5938,25.15625 z M 3034.4062,30.4375 C 3032.5467,30.366833 3030.4704,31.158012 3028.5938,33 3025.9765,35.569069 3025.4434,41.714299 3027.625,44.125 3031.6791,48.604651 3040,44.068035 3040,37.375 3040,33.110198 3037.5055,30.555278 3034.4062,30.4375 z M 3035.1562,33.375 C 3035.7176,33.566581 3036.2391,33.949177 3036.6875,34.5625 3038.5179,37.065744 3038.3376,38.662422 3036,41 3033.6316,43.368411 3030.1638,43.60587 3029.3438,41.46875 3028.4682,39.187158 3030.9332,34.151492 3033.2812,33.40625 3033.9799,33.18448 3034.5949,33.183419 3035.1562,33.375 z M 3034.3125,85 C 3029.6136,85 3026.851,87.99487 3027.6875,92.21875 3028.0437,94.017708 3029.0365,96.048741 3029.9062,96.71875 3032.0459,98.366925 3033.128,98.299321 3036.0312,96.3125 3039.3015,94.074519 3039.9817,92.983208 3040,89.9375 3040.0206,86.504383 3038.2758,85 3034.3125,85 z M 3034.7188,87 C 3037.7913,87 3038.623,89.402973 3036.5938,92.5 3035.6956,93.870754 3034.3899,95 3033.6875,95 3031.9211,95 3030,92.921673 3030,91 3030,88.711863 3032.0122,87 3034.7188,87 z"/>
</svg>
