<?xml version="1.0" encoding="UTF-8"?>
<svg xmlns="http://www.w3.org/2000/svg" viewBox="476.42 15.39 54.25 91.38">
  <path d="M 484.4375 51.3125 L 485 51.5 L 488 54 L 487.875 55.6875 C 488.88026 55.998141 488.8851 57.180134 488.0625 59.34375 C 487.91883 59.721628 487.69892 59.866667 487.53125 60.15625 L 487.5 60.5 L 485.5 63 L 484.59375 64.34375 C 484.59884 64.34692 484.65216 64.308411 484.65625 64.3125 C 484.96092 64.617169 484.26054 67.340014 483.125 70.375 C 481.98947 73.409986 480.76455 78.752769 480.40625 82.25 C 478.88906 97.058607 487.99937 102.60893 502.78125 95.875 L 507.3125 93.8125 L 511.15625 95.96875 C 513.6745 97.384087 516.28552 98.016382 518.75 97.8125 C 522.128 97.533045 522.54313 97.193397 522.8125 94.4375 C 523.03105 92.201516 522.39844 90.648438 520.46875 88.71875 C 518.15715 86.40715 517.89827 85.561598 518.5 82 C 519.22882 77.686192 517.24239 73 514.6875 73 C 513.9897 73 511.44498 75.009336 509.03125 77.46875 C 501.17394 85.47477 494.96823 86.6609 493.40625 80.4375 C 492.57771 77.136315 494.64651 69.447825 497.65625 64.71875 L 500.0625 60.9375 L 506.9375 64.59375 C 515.14449 68.9593 519.30329 68.782333 523.40625 63.90625 C 526.96329 59.678944 528.20411 54.097834 528.15625 42.5 C 528.11246 31.888812 527.00459 27 524.59375 27 C 522.58484 27 522.25027 27.734309 520.53125 35.90625 C 518.78353 44.214583 515.83312 50.467037 512.96875 52 C 510.32358 53.415651 502.05648 49.074952 497.8125 44.03125 C 494.9418 40.619597 494.8665 40.252483 495.46875 33.21875 C 495.81182 29.211893 496.30005 25.371425 496.5625 24.6875 C 496.82494 24.003575 496.37075 22.552969 495.53125 21.46875 C 494.0372 19.539164 493.93836 19.56349 491.5 22.5 C 487.61853 27.174417 483.74874 39.926691 484.15625 46.71875 L 484.4375 51.3125 z M 494.1875 24 C 494.80363 24 494.96819 24.9347 494.59375 26.25 C 492.51542 33.550486 491.79807 38.013365 492.34375 40.1875 C 493.32167 44.083863 500.31895 51.231568 506.25 54.375 C 511.6281 57.225376 511.69503 57.223659 514.46875 55.40625 C 518.07044 53.046333 522.97888 42.747375 523 37.5 C 523.02791 30.568593 524.94459 29.680481 525.15625 36.5 C 525.25867 39.8 525.42959 44.3 525.53125 46.5 C 525.77788 51.837535 523.47285 60.241317 521.21875 62.28125 C 518.04062 65.157423 513.88963 64.682896 507.3125 60.6875 C 503.96518 58.654112 500.73366 57 500.125 57 C 496.71574 57 489.4019 74.965459 490.46875 80.71875 C 491.11583 84.208255 495.15291 88 498.1875 88 C 501.20678 88 507.21671 84.490672 510.84375 80.59375 C 512.67594 78.625235 514.62201 77 515.1875 77 C 516.17355 77 515.93845 80.321887 514.53125 86 C 514.01856 88.068739 514.44021 88.800968 517.03125 90.25 C 518.7534 91.213108 519.95894 92.563108 519.71875 93.25 C 519.20794 94.710822 516.66661 94.400175 512.59375 92.40625 C 508.79989 90.548908 507.37808 90.647748 502.125 93.03125 C 499.71665 94.124001 496.01128 95.288394 493.90625 95.625 C 490.55982 96.160117 489.69268 95.848928 487.03125 93.1875 C 484.18404 90.340294 484 89.657996 484 82.6875 C 484 75.954217 484.44911 74.326476 488.53125 65.53125 L 493.03125 55.78125 L 489.59375 51.96875 C 486.30096 48.324027 486.16045 47.862105 486.65625 42.3125 C 487.19482 36.284246 492.24846 24 494.1875 24 z "/>
</svg>
