<?xml version="1.0" encoding="UTF-8"?>
<svg xmlns="http://www.w3.org/2000/svg" viewBox="1681.83 14.69 34.28 94.92">
  <path d="M1694.4821 100.35761C1684.5865 93.791248 1683.8262 91.081912 1690.0 84.384174C1692.2 81.997456 1694.0 79.657839 1694.0 79.185026C1694.0 78.712213 1691.975 76.427383 1689.5 74.107626C1687.025 71.78787 1685.0 69.195171 1685.0 68.346073C1685.0 65.730502 1687.9439 60.427893 1691.0461 57.4558C1692.6708 55.899309 1694.0 54.213627 1694.0 53.709838C1694.0 53.20605 1692.0298 50.602533 1689.6218 47.924246C1685.1191 42.916185 1683.9221 39.858295 1684.7563 35.494732C1685.2978 32.662045 1697.4938 19.0 1699.4811 19.0C1700.1927 19.0 1701.838 20.402588 1703.1374 22.116862C1704.4368 23.831136 1706.6731 26.643636 1708.1069 28.366862C1711.4705 32.409389 1713.2804 38.0347 1712.3763 41.636832C1711.9845 43.197845 1709.4531 46.812724 1706.7509 49.669898L1701.8378 54.864758L1704.8224 56.408135C1708.158 58.133046 1712.0 63.670546 1712.0 66.753224C1712.0 69.148705 1710.2145 73.433525 1707.6165 77.272785L1705.7401 80.045571L1709.2306 83.435479C1713.535 87.615823 1714.1093 89.635326 1712.4085 94.609077C1709.5973 102.83006 1701.9189 105.29234 1694.4821 100.35761Z M1704.138 48.75C1709.8426 44.551245 1711.5075 38.334518 1708.2983 33.214817C1704.4755 27.116256 1700.7274 23.0 1698.997 23.0C1697.9601 23.0 1695.1729 25.500717 1692.5884 28.75C1686.3797 36.555799 1686.4657 38.883546 1693.2158 45.718555C1696.0846 48.62335 1699.0278 51.0 1699.7563 51.0C1700.4849 51.0 1702.4566 49.9875 1704.138 48.75Z M1704.7591 75.75C1707.1234 73.22603 1709.0 68.866407 1709.0 65.897596C1709.0 63.470595 1700.4825 55.0 1698.042 55.0C1695.8223 55.0 1689.0025 63.602066 1688.9928 66.41411C1688.9845 68.821175 1698.5158 78.0 1701.0237 78.0C1701.9189 78.0 1703.5998 76.9875 1704.7591 75.75Z M1706.0031 98.498398C1707.9326 97.500628 1709.2411 95.786452 1709.9029 93.389534C1710.7492 90.324609 1710.5828 89.35472 1708.7964 86.938474C1706.8528 84.309579 1700.6639 81.0 1697.6915 81.0C1696.9941 81.0 1694.6808 83.084864 1692.5508 85.633031C1687.9457 91.142205 1688.2209 92.019095 1696.04 96.75C1702.2324 100.49665 1702.1626 100.4844 1706.0031 98.498398Z"/>
</svg>
