<?xml version="1.0" encoding="UTF-8"?>
<svg xmlns="http://www.w3.org/2000/svg" viewBox="2225.53 16.71 36.61 86.21">
  <path d="M 2227.5312,81.875 2228.125,87.09375 C 2228.4174,86.213158 2229.8001,86.012588 2234.25,86.21875 L 2240.5,86.5 2242.5,82.5 C 2244.3354,78.829197 2244.4882,76.524818 2244.4688,54.5 2244.4541,38.00688 2244.064,29.160143 2243.1875,26.21875 2241.5217,20.62817 2239.666,21.707795 2240.4062,27.84375 2240.7142,30.396935 2241.1982,40.461081 2241.5,50.1875 2242.0705,68.575087 2241.0019,80.376238 2238.5312,82.875 2236.9875,84.436388 2229.4639,83.67282 2227.5312,81.875 z M 2228.3125,88.78125 2229,95 2229.6562,96.78125 C 2231.1236,96.137026 2232.5505,96.3331 2236.8125,97.4375 2240.1071,98.291217 2243.2571,99 2243.8438,99 2248.2008,99 2256.567,80.156801 2259.375,64 2259.7096,62.075 2260.0138,53.075 2260.0625,44 2260.1445,28.729435 2259.306,22 2257.2812,22 2256.855,22 2256.4894,31.3375 2256.4688,42.75 2256.4365,60.699831 2256.115,64.686919 2254.2188,72.25 2250.8221,85.796477 2245.7159,95.010973 2241.5938,95 2236.0688,94.985293 2229.7924,91.88668 2228.3125,88.78125 z M 2248.5625,22.3125 C 2248.3846,22.252169 2248.2006,22.393187 2247.9688,22.625 2247.4165,23.177346 2247.4955,26.314078 2248.1562,30.53125 2249.5736,39.57671 2248.5878,68.530678 2246.5938,76.4375 2245.7719,79.696497 2245.3464,82.748574 2245.6562,83.25 2249.1598,88.918756 2253.6521,44.19913 2250.9062,31 2249.5455,24.458911 2249.0962,22.493492 2248.5625,22.3125 z"/>
</svg>
