<?xml version="1.0" encoding="UTF-8"?>
<svg xmlns="http://www.w3.org/2000/svg" viewBox="2198.4 14.76 33.26 89.09">
  <path d="M 2227.5312 81.875 C 2227.4588 81.807564 2227.2745 81.757869 2227.2188 81.6875 C 2226.3784 80.627012 2222.7703 57.195587 2221.3438 43.5 C 2220.7794 38.0829 2216.7728 25.636826 2214.8438 23.3125 C 2212.5244 20.517767 2207.8691 18.813251 2204.375 19.46875 C 2200.6037 20.176247 2200.3951 20.812953 2202.4062 25.34375 C 2206.4651 34.487549 2208.7901 54.130003 2208.8125 79.5 C 2208.8212 89.4 2208.8562 97.8375 2208.9062 98.25 C 2209.0949 99.805105 2211.2924 98.90914 2213.1875 96.5 C 2215.555 93.490157 2218.0563 93.303098 2220.4688 95.96875 C 2223.0628 98.835144 2225.5588 99.324782 2228.3438 97.5 C 2228.8333 97.179204 2229.2441 96.962209 2229.6562 96.78125 L 2229 95 L 2228.3125 88.78125 C 2228.3077 88.771254 2228.3172 88.759996 2228.3125 88.75 C 2228.1102 88.316355 2228 87.894238 2228 87.46875 C 2228 87.312157 2228.0832 87.219549 2228.125 87.09375 L 2227.5312 81.875 z M 2205.2812 23 L 2207.4688 23 C 2213.2796 23 2216.3016 31.171984 2218.9688 54 C 2220.8311 69.938776 2223.4147 86.807625 2224.6562 91.25 C 2225.1973 93.186123 2222.5889 93.749966 2221.4688 91.9375 C 2221.1054 91.349482 2218.9325 90.991906 2216.6562 91.15625 C 2213.6045 91.376595 2212.4679 91.059887 2212.3125 89.96875 C 2212.1966 89.154924 2211.8692 80.175 2211.5938 70 C 2210.9906 47.719194 2209.8047 36.425468 2207.2188 28.75 L 2205.2812 23 z "/>
</svg>
