<?xml version="1.0" encoding="UTF-8"?>
<svg xmlns="http://www.w3.org/2000/svg" viewBox="41.49 11.95 42.01 89.1">
  <path d="M 81.21875,78.375 C 79.804258,78.811418 77.367421,79.946935 74.75,81.5625 65.926836,87.008466 65.511347,86.631615 65.34375,72.96875 65.211391,62.178447 67.308374,45.586757 69.03125,43.65625 69.441155,43.196946 71.161767,43.536463 72.84375,44.40625 75.140108,45.593743 76.07399,45.704053 76.625,44.8125 77.028591,44.159476 76.947378,43.486396 76.4375,43.3125 75.927622,43.138604 72.368595,40.973624 68.53125,38.5 64.693905,36.026376 60.734094,33.74984 59.75,33.4375 57.880496,32.844143 45.576275,41.232525 46.6875,42.34375 47.005872,42.662121 48.117199,42.462333 49.15625,41.90625 50.195301,41.350167 51.47255,41.174018 52,41.5 52.557416,41.844502 52.961571,50.119241 52.96875,61.28125 52.981823,81.609117 53.956605,90.743289 56.5,94.625 57.488127,96.133072 59.005118,97 60.6875,97 62.91595,97 72.909814,93.187699 79.25,89.90625 80.045052,89.49476 80.755462,89.255912 81.5,89.15625 L 81.4375,86.65625 C 79.282674,87.097821 76.668938,88.110013 72.40625,90.0625 68.616007,91.798588 64.055801,93.430677 62.28125,93.71875 59.478433,94.173747 58.91744,93.893356 58.03125,91.5625 56.333281,87.096503 55.093309,72.438236 54.90625,54.5625 54.733074,38.013437 54.77861,37.630815 56.90625,36.84375 59.69959,35.810426 65.982219,39.676484 66,42.4375 66.006809,43.494639 65.310334,48.008752 64.46875,52.5 63.449442,57.939697 63.032126,65.159365 63.21875,74.09375 63.494863,87.312345 63.530596,87.516279 65.84375,87.84375 67.24723,88.042439 70.529442,86.7359 74,84.59375 76.907893,82.798896 79.881084,81.439903 81.28125,81.1875 L 81.21875,78.375 z M 61.375,16 C 60.104568,16 44,27.730198 44,28.65625 44,30.112236 47.775159,28.18102 53.3125,23.90625 57.803282,20.439412 60.46107,19.021052 61.6875,19.4375 62.676419,19.773298 66.425,22.733639 70,26 76.538043,31.973598 78.409689,33.0875 77.8125,30.6875 77.327504,28.738384 63.071447,16 61.375,16 z M 60.625,25.5 C 58.728735,25.893517 54.987408,28.090868 50.0625,31.75 43.489802,36.633417 45.315586,37.185851 52.875,32.59375 56.115836,30.625046 59.146946,28.998339 59.625,29 60.103054,29.001661 63.425,30.789832 67,32.96875 73.997386,37.233571 74.583409,37.456385 75.40625,36.125 75.703084,35.644713 72.920624,33.311328 69.21875,30.9375 65.516875,28.563673 62.214514,26.216501 61.875,25.71875 61.681475,25.435029 61.257088,25.368828 60.625,25.5 z"/>
</svg>
