<?xml version="1.0" encoding="UTF-8"?>
<svg xmlns="http://www.w3.org/2000/svg" viewBox="439.48 14.19 69.69 88.88">
  <path d="M454.33282 96.42493C453.1035 93.22137 455.94169 87.255489 460.51223 83.435786C464.95633 79.721753 465.0 79.624043 465.0 73.393522C465.0 67.433882 464.82347 66.967138 461.65561 64.550891C457.88584 61.675548 453.51799 61.207753 452.60699 63.581787C452.27314 64.451771 452.0 66.956354 452.0 69.147529C452.0 76.942477 448.34139 79.494635 445.37906 73.766131C442.64926 68.48728 443.04215 60.498016 446.38799 53.25C448.87383 47.864986 449.64253 47.0 451.94228 47.0C454.69852 47.0 458.95147 49.678744 463.6416 54.368869C467.35211 58.079383 468.41253 56.599519 468.8435 47.109393C469.13281 40.738786 468.82101 38.569466 467.14339 35.281059L465.08899 31.254109L461.01585 32.341292C457.63431 33.243875 456.48064 33.14402 454.22136 31.753202C452.04227 30.411753 451.52241 29.376362 451.61245 26.557167C451.83611 19.554322 455.50381 18.234824 461.5 23.0C463.57626 24.65 465.60034 26.0 465.99796 26.0C466.39558 26.0 468.37869 24.875 470.40486 23.5C474.38621 20.798188 476.49805 20.378804 477.55009 22.081052C477.91756 22.675631 479.59921 24.001932 481.28708 25.028388L484.35593 26.894671L487.71276 23.947335C491.83679 20.326389 494.32207 20.231159 497.6572 23.566288C499.72722 25.636313 500.10461 26.748234 499.60873 29.316288C498.40647 35.5426 492.57031 37.404789 487.65968 33.128966C485.9668 31.654927 485.71746 31.665915 484.54735 33.266125C482.70417 35.786832 481.71632 48.887799 483.07546 52.786621C484.42069 56.645561 485.88677 56.807603 489.78421 53.528121C491.39992 52.168588 494.0164 50.564064 495.5986 49.962512C498.08816 49.015984 498.70916 49.157557 500.21276 51.014414C504.09306 55.80639 506.00655 68.152861 503.59244 72.821242C501.02184 77.792226 498.71187 76.537651 497.47725 69.5C496.10328 61.668099 493.48571 59.916474 488.58122 63.546965C486.9841 64.729209 486.61907 66.436932 486.4038 73.733661C486.18543 81.135512 486.43551 82.811302 488.01046 84.5C489.03637 85.6 490.44633 88.634871 491.14371 91.244158C492.91853 97.884681 491.52278 99.036107 486.07143 95.428571C482.92228 93.344562 481.6391 92.960903 480.75961 93.840387C478.85551 95.744491 472.53633 95.209714 469.59427 92.895492C467.22606 91.032657 466.57008 90.935438 463.88195 92.048899C462.21167 92.740752 460.15318 94.36278 459.30753 95.653406C457.53792 98.354171 455.21159 98.71496 454.33282 96.42493Z M450.0 67.440983C450.0 64.333333 450.60047 62.399532 452.0 61.0C454.51718 58.482816 456.56106 58.481984 461.49242 60.996136C464.1133 62.332335 465.73969 62.660308 466.41183 61.988167C467.71692 60.683082 457.72029 50.446744 453.80919 49.083328C451.38893 48.239621 450.78059 48.414569 449.58236 50.298889C446.86512 54.57196 444.84552 62.362992 445.5213 65.965234C447.02487 73.979943 450.0 74.96026 450.0 67.440983Z M461.01149 29.19178L463.24455 27.38356L459.99638 24.65041C458.20989 23.147178 456.24237 22.083624 455.62411 22.286958C453.75559 22.901477 453.72546 27.03916 455.57463 29.082465C457.71585 31.448484 458.21225 31.458465 461.01149 29.19178Z M461.98693 90.198748C465.87161 88.299047 467.08205 85.352452 464.40047 84.323433C463.1577 83.846538 461.83691 84.630609 459.82656 87.038683C455.45011 92.280976 456.02109 93.116182 461.98693 90.198748Z M479.47954 90.427578C480.94784 88.843252 482.52632 85.043966 483.58896 80.536466C485.29274 73.30942 485.2842 73.081802 482.90717 62.358888C480.41304 51.107717 479.99057 37.785191 481.96338 32.59631C482.80193 30.390768 482.46305 29.742783 479.06252 27.049516C476.94484 25.372282 474.82695 24.016183 474.3561 24.035963C473.88524 24.055743 472.15893 25.167729 470.51985 26.507045C467.6751 28.831526 467.59959 29.091139 468.85808 32.221082C471.91516 39.82424 472.03834 42.5808 469.90722 55.698551C465.95046 80.053622 466.29653 85.547389 472.09479 90.426304C475.89515 93.624099 476.517 93.624206 479.47954 90.427578Z M489.0 92.45034C489.0 90.764042 485.76679 86.026095 484.95741 86.526321C483.62299 87.351042 483.76146 90.361465 485.2 91.8C486.4162 93.016201 489.0 93.458398 489.0 92.45034Z M501.73047 62.964251C501.13336 56.379153 498.93392 51.998465 496.22695 52.002705C494.28793 52.005742 485.19313 59.480585 486.05085 60.366243C486.35382 60.679081 488.22671 60.43631 490.21283 59.826753C495.11179 58.32322 496.71697 59.173897 498.99089 64.478758C500.05681 66.965441 501.23242 69.0 501.60335 69.0C501.97429 69.0 502.03149 66.283913 501.73047 62.964251Z M496.84045 30.618563C497.45845 27.359993 494.90953 23.868492 492.15638 24.202345C488.67641 24.624332 487.31013 27.190492 488.81129 30.485163C489.8069 32.67029 490.57219 33.071698 493.249 32.812823C495.47342 32.597697 496.59506 31.912412 496.84045 30.618563Z"/>
</svg>
