<?xml version="1.0" encoding="UTF-8"?>
<svg xmlns="http://www.w3.org/2000/svg" viewBox="4 14.24 32.84 86.78">
  <path d="M23.0 95.2C23.0 94.76 23.400179 93.9725 23.889287 93.45C24.378394 92.9275 25.545929 89.8 26.483808 86.5C27.421687 83.2 28.604048 79.994807 29.111276 79.377348C30.235959 78.008251 28.338488 68.446232 26.335513 65.389304C24.619642 62.770555 24.535043 60.689887 25.519547 45.321057C26.093078 36.367821 25.95883 31.924604 25.012682 28.545296C22.654954 20.124319 20.922302 21.156792 17.315202 33.132161C13.584293 45.518568 13.578392 45.586445 15.500768 54.003361C17.260268 61.707149 17.255576 61.871479 15.017442 70.929412C12.858794 79.665656 12.831257 80.26963 14.403848 84.387401C15.309414 86.758591 17.164007 89.744899 18.525166 91.023642C21.311499 93.641266 21.674978 95.0 19.588894 95.0C18.812785 95.0 16.954407 93.5375 15.459164 91.75C13.963922 89.9625 11.598544 88.275 10.202769 88.0C6.9624658 87.361585 6.0484517 85.0 9.0416667 85.0C10.981667 85.0 11.174057 84.620283 10.625 81.875C10.28125 80.15625 10.0 77.958734 10.0 76.991631C10.0 76.024529 9.1 74.997907 8.0 74.710251C6.9 74.422595 6.0 73.686537 6.0 73.074568C6.0 72.409504 6.9349865 72.196563 8.3242028 72.545234C10.992207 73.21486 12.029762 72.129228 13.852112 66.761181C14.913153 63.635701 14.865345 62.023003 13.560685 56.930414C12.702308 53.579843 12.0 50.104215 12.0 49.206798C12.0 48.30938 10.7625 46.561908 9.25 45.323527L6.5 43.071926L9.1705447 43.035963C11.379185 43.00622 11.947986 42.437871 12.459122 39.75C12.79904 37.9625 13.573732 34.568015 14.180661 32.2067C15.179091 28.322213 15.080197 27.723371 13.142084 25.917745C11.108879 24.023526 10.213372 21.0 11.685549 21.0C12.062601 21.0 13.377522 21.945487 14.607597 23.101082L16.844096 25.202164L18.447728 22.101082C20.328052 18.464938 22.164439 18.186758 24.900522 21.123598C26.394312 22.726994 27.567429 23.090697 29.689478 22.608328L32.5 21.96946L30.25 23.895023C27.973587 25.843189 27.426061 29.254363 28.653767 33.839793C29.138268 35.649383 29.814982 36.077361 31.640113 35.728465C34.835932 35.117545 34.626539 36.589355 31.289139 38.195434C29.064611 39.265959 28.549236 40.217607 28.416401 43.5C28.232721 48.038761 29.368749 50.0 32.181462 50.0C33.246576 50.0 33.839919 50.45 33.5 51.0C33.160081 51.55 31.832307 52.0 30.549391 52.0C26.574237 52.0 26.13388 59.128942 29.762799 64.73413C32.681334 69.242067 31.007783 86.169333 26.990445 92.775315C25.177677 95.756173 23.0 97.079379 23.0 95.2Z"/>
</svg>
