<?xml version="1.0" encoding="UTF-8"?>
<svg xmlns="http://www.w3.org/2000/svg" viewBox="3701.77 12.94 86.62 94.41">
  <path d="M 3772.4375 53.03125 C 3772.2396 53.784635 3772.0255 54.555708 3771.75 54.78125 C 3771.0625 55.343993 3766.9248 57.009523 3762.5625 58.46875 L 3754.625 61.09375 L 3751.8438 59.0625 C 3750.3159 57.932875 3748.6881 57 3748.2188 57 C 3747.7493 57 3746.148 55.713253 3744.6562 54.15625 L 3741.9375 51.34375 L 3745 47.5 C 3751.2275 39.66372 3753.6388 30 3749.375 30 C 3748.5104 30 3745.9812 31.594583 3743.7188 33.53125 C 3741.4561 35.467917 3737.8828 37.53596 3735.8125 38.15625 C 3732.3577 39.19132 3731.8967 39.108009 3730.0625 36.90625 C 3727.1124 33.364887 3725.69 28.343235 3726.25 23.375 C 3726.5226 20.956528 3726.3735 18.726287 3725.9062 18.4375 C 3723.9573 17.233009 3719.1417 21.146203 3716.9375 25.71875 C 3713.946 31.924432 3713.9774 36.515408 3717 42.96875 L 3719.4375 48.21875 L 3716.6875 50.1875 C 3710.5179 54.681719 3705.7084 65.485039 3708.9688 67.5 C 3709.505 67.831378 3712.3248 66.480169 3715.2188 64.53125 C 3720.7056 60.83615 3723.7813 60.156334 3725.8125 62.1875 C 3727.7549 64.1299 3727.188 68.320189 3723.9688 76.15625 C 3722.3072 80.200737 3720.4333 86.559983 3719.7812 90.28125 C 3718.6478 96.750867 3718.6763 97.145032 3720.8125 99.28125 C 3724.1103 102.57903 3730.6222 102.33344 3734.8438 98.78125 C 3738.2789 95.890697 3739.5255 95.953621 3744.2812 99.25 C 3745.8164 100.31415 3748.2914 101.55093 3749.7812 102 C 3751.271 102.44908 3752.8143 102.85897 3753.1875 102.90625 C 3754.4 103.05983 3757 99.907237 3757 98.28125 C 3757 96.862544 3756.7946 96.861052 3755.1562 98.34375 C 3752.6087 100.64927 3751.343 100.43973 3747 97 C 3742.1365 93.148031 3737.3229 92.962894 3734 96.5 C 3731.4318 99.233706 3725.9758 99.932828 3724.25 97.75 C 3721.306 94.026214 3722.2722 85.608094 3726.75 76 C 3729.4599 70.185353 3730.01 62.909752 3727.9062 60.375 C 3726.0999 58.198408 3720.2618 58.766499 3715.4375 61.59375 C 3711.38 63.971559 3711 64.019457 3711 62.3125 C 3711 59.235053 3715.5087 53.566091 3719.625 51.46875 C 3724.899 48.781536 3725.2853 47.908002 3722.5 45 C 3719.6894 42.065587 3716.9999 36.03901 3717.0312 32.78125 C 3717.0587 29.92992 3720.5701 22 3721.8125 22 C 3722.3194 22 3722.9624 24.17538 3723.2188 26.84375 C 3723.7398 32.266792 3727.4996 40.867213 3729.7188 41.71875 C 3732.037 42.60836 3738.4084 40.251594 3742.5 37 C 3746.743 33.62805 3748 33.286632 3748 35.53125 C 3748 38.441422 3744.1245 44.651718 3739.9688 48.40625 C 3737.68 50.473989 3735.9699 52.248847 3736.1562 52.375 C 3736.3427 52.501153 3738.4785 54.157446 3740.9062 56.03125 C 3751.2025 63.978114 3754.1296 64.438485 3765.6562 60 C 3773.7543 56.88169 3776.5148 56.382059 3777.4375 57.875 C 3777.7368 58.359329 3779.0537 58.966153 3780.375 59.21875 C 3781.7772 59.486789 3782.3279 58.841223 3782.6562 56.9375 L 3772.4375 53.03125 z M 3781.9375 61.21875 C 3780.6305 60.971259 3780.4502 61.653649 3780.9688 65.21875 C 3781.6076 69.612042 3780.4944 75 3778.9375 75 C 3778.4585 75 3778.3172 74.333568 3778.625 73.53125 C 3779.3474 71.648782 3777.3177 65.503193 3775.4688 63.96875 C 3774.3241 63.018734 3772.4793 63.717588 3766.1875 67.40625 C 3761.866 69.939761 3757.8071 72 3757.1875 72 C 3756.099 72 3749.8682 68.771456 3743.3438 64.84375 L 3740.1875 62.9375 L 3738.0625 65.65625 C 3735.7855 68.550957 3732.719 74.94146 3730.4062 81.65625 C 3729.3766 84.646064 3729.2613 86.545399 3729.9688 88.40625 C 3731.1621 91.544814 3733.1624 91.683619 3737.6562 88.90625 C 3740.9929 86.844099 3746 86.856028 3746 88.9375 C 3746 89.437736 3746.6982 90.573215 3747.5625 91.4375 C 3749.2845 93.159468 3756 93.605224 3756 92 C 3756 91.45 3755.3668 91 3754.5938 91 C 3753.8208 91 3751.3041 89.425 3749 87.5 C 3744.1466 83.445062 3742.7273 83.25672 3738.125 86.0625 C 3734.3319 88.375007 3732 88.025211 3732 85.125 C 3732 81.795763 3738.1098 68.332257 3740.2812 66.875 C 3740.7883 66.534661 3743.7344 67.781372 3746.8438 69.65625 C 3756.0113 75.184131 3757.7763 75.098344 3768.3438 68.5625 C 3773.1108 65.614085 3773.2417 65.601867 3774.6875 67.53125 C 3776.148 69.480203 3776.0634 74.331155 3774.4062 84.25 C 3773.9015 87.270686 3774.0972 88 3775.375 88 C 3777.5342 88 3779.4628 84.769477 3782 76.84375 C 3784.4505 69.188638 3784.4189 61.68864 3781.9375 61.21875 z "/>
</svg>
