<?xml version="1.0" encoding="UTF-8"?>
<svg xmlns="http://www.w3.org/2000/svg" viewBox="921.42 15.2 96.01 90.72">
  <path d="M 1012.25 49.53125 C 1009.8721 51.540421 1005.4035 54.642697 1001.5938 56.75 C 995.50942 60.115496 993.11271 59.718445 987.96875 54.4375 C 981.71977 48.022107 980.99725 47.739538 975.0625 49.65625 C 972.26005 50.561342 969.7329 51.076651 969.4375 50.78125 C 968.16704 49.510793 968.37148 41.09074 969.78125 36.34375 L 971.3125 31.1875 L 977.21875 31.5 C 982.70859 31.781774 983.19272 31.631444 984.0625 29.34375 C 985.25629 26.203836 983.74317 23.22247 980.28125 21.90625 C 978.27285 21.142658 976.79776 21.383204 973.65625 22.9375 L 969.625 24.9375 L 966.375 22.46875 C 962.24889 19.321616 961.47891 19.365463 957.375 22.96875 C 953.98673 25.943684 951.72374 26.080186 949.5 23.4375 C 947.81152 21.43092 942.51197 20.974988 940.15625 22.625 C 937.46809 24.507861 937.45414 26.019282 940.09375 29.375 C 941.98729 31.782243 942.66893 31.994028 947.59375 31.59375 C 953.85847 31.084568 953.65853 30.769735 954.34375 42.71875 L 954.75 49.9375 L 952.125 48.625 C 946.88792 46.042931 938.50325 44.662501 936.0625 45.96875 C 932.8341 47.696539 926.73099 61.102408 926.1875 67.65625 C 925.78001 72.57005 925.91796 73 927.84375 73 C 929.34986 73 930.51685 71.774765 931.9375 68.65625 C 933.95682 64.22355 939.08656 58 940.71875 58 C 942.20013 58 951 67.68652 951 69.3125 C 951 70.137914 949.2 73.197075 947 76.125 C 944.8 79.052924 943 82.208076 943 83.15625 C 943 84.525812 950.48551 95.56586 953.9375 99.28125 C 955.14726 100.58332 958.08712 98.877934 959.0625 96.3125 C 959.7018 94.631008 959.54137 92.836089 958.5 90.34375 C 957.67862 88.37789 957 85.840931 957 84.71875 C 957 82.882739 962.58521 73 963.625 73 C 964.13772 73 969.92403 79.508347 971.90625 82.3125 C 973.14794 84.069066 973.02695 85.130694 970.9375 91.15625 C 968.73798 97.499233 968.70369 98.109945 970.21875 99.625 C 972.39042 101.79667 974.59334 100.82211 977.125 96.53125 C 978.26852 94.593137 979.58095 93 980.0625 93 C 980.54404 93 981.69421 91.583261 982.59375 89.84375 C 984.75762 85.65928 983.94153 79.948714 980.46875 74.9375 C 977.20597 70.229302 975.96133 62.620976 978.3125 61.71875 C 979.15949 61.393728 980.40494 61.770192 981.0625 62.5625 C 981.72006 63.354807 982.75485 64.018249 983.375 64.03125 C 983.99516 64.04425 985.81949 65.84425 987.4375 68.03125 C 990.84825 72.641435 992.16532 72.85971 996.40625 69.625 C 998.11097 68.324744 1002.7843 65.637824 1006.7812 63.625 C 1009.8579 62.075632 1011.8219 61.124014 1013.0625 61 L 1013.0625 57.59375 C 1011.7908 58.646341 1009.5734 59.879924 1005.5 61.96875 C 1000.55 64.507101 995.51714 67.219933 994.3125 68 C 992.29296 69.307759 991.8444 69.152835 988.59375 65.96875 C 980.10987 57.658604 978.30258 57.144141 975.46875 62.40625 L 973.625 65.84375 L 977.8125 74.25 C 980.11377 78.873621 982 83.647396 982 84.875 C 982 86.173893 980.09587 89.082164 977.4375 91.8125 C 972.51458 96.868688 972.16773 96.068311 975.6875 87.78125 L 977.25 84.09375 L 973.21875 79.28125 C 971.00175 76.643664 967.97895 73.375 966.5 72 L 963.8125 69.5 L 961.5 72.40625 C 960.21696 74.01107 957.91451 77.768984 956.40625 80.75 C 953.76713 85.966123 953.74264 86.28955 955.34375 89 C 956.25878 90.549024 957 92.72357 957 93.84375 C 957 96.999232 955.4399 97.234749 953.375 94.375 C 952.34323 92.946069 950.0375 89.969007 948.25 87.78125 C 946.4625 85.593494 945 83.496283 945 83.125 C 945 82.753717 947.03078 79.757929 949.5 76.46875 C 951.96922 73.179571 953.98016 69.825 953.96875 69 C 953.93241 66.373055 943.72003 55.992443 941.1875 56 C 938.52245 56.007952 934.91642 59.612381 931.15625 66 L 928.5 70.5 L 928.1875 67.21875 C 927.85556 63.769647 933.43419 50.535044 936.1875 48.25 C 937.33282 47.299466 939.35258 47.581101 945.90625 49.59375 C 950.45972 50.992134 954.82381 51.889202 955.59375 51.59375 C 957.28523 50.944668 957.44813 43.32721 955.96875 34.5 C 954.9746 28.56806 955.00464 28.474431 957.96875 25.78125 L 960.96875 23.0625 L 964.40625 25.0625 C 968.67581 27.581599 969.04619 28.546982 967.84375 34.0625 C 965.95057 42.746436 965.73469 50.359689 967.34375 52.5 C 968.79621 54.432009 968.96647 54.440508 971.84375 52.75 C 976.90691 49.775215 979.60302 50.479854 986.53125 56.5625 C 992.78607 62.053931 992.90652 62.105857 996.78125 61.0625 C 998.93825 60.481681 1002.2231 58.89338 1004.0938 57.53125 C 1005.9643 56.169121 1008.4721 54.623865 1009.6562 54.09375 C 1010.8403 53.563635 1012.1078 52.646426 1012.4688 52.0625 C 1012.6749 51.728999 1012.8628 51.616273 1013.0625 51.4375 L 1013.0625 49.75 L 1012.25 49.53125 z M 977.75 24.25 C 979.20943 24.376886 980.64943 25.028464 981.375 26.1875 C 981.96102 27.12362 982.22542 28.118326 981.96875 28.375 C 980.56752 29.77623 976.28191 29.937747 974.53125 28.65625 C 972.83516 27.414704 972.74758 26.996273 973.9375 25.5625 C 974.78585 24.540304 976.29057 24.123114 977.75 24.25 z M 942.84375 24.46875 C 944.66451 24.499979 947.5 26.050174 947.5 27.5 C 947.5 29.49321 946.46277 29.99634 943.84375 29.3125 C 942.04644 28.843211 940.67581 26.333565 941.5 25 C 941.73768 24.61543 942.23683 24.45834 942.84375 24.46875 z "/>
</svg>
