<?xml version="1.0" encoding="UTF-8"?>
<svg xmlns="http://www.w3.org/2000/svg" viewBox="1003.16 14.99 38.92 90.81">
  <path d="M 1012.25,49.53125 1013.0625,49.75 1013.0625,51.4375 C 1014.1532,50.461303 1015.0694,51.556563 1014.8125,54.15625 1014.6684,55.613779 1014.3545,56.524353 1013.0625,57.59375 L 1013.0625,61 C 1015.246,60.781728 1015.1573,63.156032 1014.6875,69.6875 1014.4181,73.432419 1013.9253,80.775 1013.5938,86 1013.2623,91.225 1012.7749,96.677431 1012.5312,98.125 1012.2875,99.57257 1012.3601,101.01634 1012.6875,101.34375 1013.0149,101.67117 1014.8225,100.60623 1016.6875,98.96875 1018.5525,97.331268 1020.4801,96 1020.9688,96 1021.4574,96 1023.2343,97.160568 1024.9375,98.59375 1027.4618,100.71776 1028.3249,100.9699 1029.5312,99.96875 1030.3451,99.293224 1031,98.132656 1031,97.375 1031,96.617345 1031.8423,96 1032.875,96 1033.9076,96 1035.2887,95.375479 1035.9375,94.59375 1036.9093,93.422758 1036.7479,93.253488 1034.9688,93.71875 1030.2031,94.964989 1030.3453,86.917324 1035.125,84.9375 1039.5047,83.123399 1039.7695,81.779133 1035.5938,82.5625 L 1032,83.21875 1032,79.3125 C 1032,75.715597 1032.3446,75.219081 1036.25,73.21875 1039.8929,71.352886 1040.0714,71.135075 1037.5,71.65625 1035.85,71.990669 1034.1082,72.308018 1033.625,72.375 1033.1418,72.441981 1032.7545,69.799049 1032.7812,66.5 1032.8177,62.005636 1033.2512,60.250573 1034.5,59.5 1035.4166,58.949049 1036.9289,57.888649 1037.8438,57.15625 1039.3809,55.925697 1039.3672,55.868766 1037.75,56.40625 1036.7875,56.726149 1035.3791,57.255891 1034.625,57.5625 1033.871,57.869108 1032.9985,57.466699 1032.6875,56.65625 1031.7493,54.211196 1033.1596,44 1034.4375,44 1035.0804,44 1036.4948,43.338525 1037.5625,42.53125 1039.3484,41.18084 1039.2277,41.146142 1036.25,41.96875 1034.4699,42.460505 1032.8265,42.532765 1032.5938,42.15625 1032.361,41.779735 1032.0396,39.303065 1031.875,36.625 1031.6064,32.257804 1031.8773,31.498482 1034.5312,29.375 1037.741,26.806801 1037.5184,26.476619 1033.5938,27.96875 1031.8524,28.63078 1030.8499,28.580882 1030.375,27.8125 1029.956,27.134511 1030.1426,26.972888 1030.8438,27.40625 1032.2367,28.267168 1032.3951,25.168736 1031.0625,23.0625 1030.3179,21.885635 1029.6667,21.839507 1027.5312,22.8125 1023.612,24.59819 1019.6357,24.245312 1017.125,21.90625 1014.1281,19.114194 1011.5742,20.091458 1012.3125,23.75 1012.6161,25.25403 1013.0985,27.175 1013.4062,28 1013.714,28.825 1013.5732,30.16562 1013.0625,30.96875 1012.2678,32.218783 1011.8269,32.159223 1010.0625,30.5625 1008.8557,29.470304 1008,29.180799 1008,29.875 1008,30.527046 1009.575,32.434827 1011.5,34.125 1014.1432,36.445783 1015,37.998375 1015,40.4375 1015,44.803555 1014.2296,45.290661 1010.9688,42.96875 1009.4468,41.885 1007.6254,41 1006.9375,41 1005.156,41 1008.9605,45.026926 1011.75,46.09375 1012.9875,46.567018 1013.9805,47.292637 1013.9688,47.71875 1013.9609,48.003703 1013.2412,48.693771 1012.25,49.53125 z M 1028.0312,25.40625 C 1028.7475,25.574025 1029.065,26.831426 1029.4375,30.1875 1031.2385,46.415705 1030.1371,93.206768 1027.9062,95.4375 1027.6086,95.735117 1025.9625,95.427633 1024.25,94.78125 1021.8882,93.889765 1020.5166,93.905178 1018.5938,94.78125 1017.1968,95.417775 1015.831,95.516183 1015.5312,95.03125 1015.2321,94.547322 1015.44,90.948775 1016,87 1018.1785,71.639781 1017.2366,33.215454 1014.5312,26.8125 1013.892,25.299247 1014.2248,25.234651 1017.5625,26.15625 1021.1988,27.160273 1023.7486,27.000967 1027.1562,25.5625 1027.5067,25.414551 1027.7925,25.350325 1028.0312,25.40625 z M 1013,80.375 C 1013,79.991759 1012.1,80.504514 1011,81.5 1009.9,82.495486 1009,83.775284 1009,84.34375 1009,84.912216 1009.9,84.399461 1011,83.21875 1012.1,82.038038 1013,80.75824 1013,80.375 z"/>
</svg>
