<?xml version="1.0" encoding="UTF-8"?>
<svg xmlns="http://www.w3.org/2000/svg" viewBox="1855.59 16.64 29.63 91.02">
  <path d="M 1881.3125 82.8125 C 1880.2295 82.21287 1879.1389 81.607686 1878.25 80.75 C 1874.2262 76.867427 1874.1695 74.413633 1877.9688 69.96875 C 1882.6903 64.444829 1881.9575 59.832106 1875.25 52.8125 L 1871.7188 49.125 L 1876.2812 43.9375 C 1878.7877 41.072186 1881.0604 37.932921 1881.3125 36.96875 C 1882.0213 34.258446 1879.2069 29.446436 1874.2812 24.90625 L 1869.8125 20.78125 L 1866.375 24.125 C 1862.3716 28.005248 1858 35.068142 1858 37.65625 C 1858 38.639419 1860.0961 41.556983 1862.6562 44.15625 L 1867.3125 48.875 L 1864.0938 52.5625 C 1859.749 57.511062 1857.5855 62.266769 1858.375 65.15625 C 1858.7289 66.451787 1861.0297 69.077554 1863.5 71 C 1868.2293 74.680574 1869.0275 76.887139 1866.4062 79.0625 C 1863.6551 81.345707 1859.278 88.377742 1858.5625 91.65625 C 1857.9561 94.434456 1858.2972 95.122786 1861.25 97.375 C 1863.094 98.781497 1866.1306 100.613 1868.0312 101.4375 C 1872.8419 103.52432 1872.9356 103.47661 1877.6562 98.84375 L 1881.375 95.21875 L 1881.375 94.53125 L 1883.2188 89.90625 C 1883.2153 89.843875 1883.2198 89.782109 1883.2188 89.71875 L 1881.3125 82.8125 z M 1872.1875 26.15625 C 1874.4957 26.837674 1880 33.438553 1880 36.03125 C 1880 36.625293 1878.5897 38.86626 1876.875 41 C 1873.8519 44.76189 1871.1092 46.687455 1870.875 45.21875 C 1870.633 43.7014 1871.1146 26.541727 1871.4062 26.25 C 1871.5795 26.076735 1871.8578 26.058904 1872.1875 26.15625 z M 1866.9375 26.96875 C 1868.4858 26.316964 1869.0009 28.979128 1868.7812 35.15625 C 1868.4938 43.2423 1867.6495 45.062825 1865.25 42.71875 C 1864.5693 42.053702 1863.1068 40.621231 1862 39.5625 C 1859.4469 37.12013 1859.4329 37.262898 1862.9688 31.6875 C 1864.7094 28.942759 1866.0085 27.359822 1866.9375 26.96875 z M 1872.0312 53 C 1872.4468 53 1874.1992 54.587112 1875.9062 56.53125 C 1880.1647 61.381382 1880.0791 65.555968 1875.6875 69.8125 C 1872.012 73.374927 1871.4513 73.596526 1870.7188 71.6875 C 1869.9723 69.742383 1871.1463 53 1872.0312 53 z M 1867.5312 53.15625 C 1868.8092 52.985875 1868.9862 55.392637 1868.7812 61.15625 C 1868.6216 65.649481 1868.05 69.464319 1867.5 69.625 C 1866.95 69.785681 1865.2625 68.924572 1863.75 67.6875 C 1859.9942 64.615662 1860.0565 60.214961 1863.9062 56.09375 C 1865.6086 54.271371 1866.7645 53.258475 1867.5312 53.15625 z M 1872.2812 78.3125 C 1873.6753 77.450973 1880.9847 86.301274 1881 88.875 C 1881.0077 90.185081 1880.0555 92.796874 1878.9062 94.65625 C 1876.3673 98.764537 1873.4609 100.55784 1872.3125 98.75 C 1871.2475 97.073576 1871.22 78.968328 1872.2812 78.3125 z M 1868 81 C 1869.1588 81 1869.8417 85.473725 1869.6562 91.90625 C 1869.5703 94.88547 1869.0553 97.471206 1868.5 97.65625 C 1867.9447 97.841294 1865.9197 97.139293 1864 96.09375 C 1861.2515 94.596812 1860.5356 93.638419 1860.6875 91.5625 C 1860.8784 88.953696 1866.386 81 1868 81 z "/>
</svg>
