<?xml version="1.0" encoding="UTF-8"?>
<svg xmlns="http://www.w3.org/2000/svg" viewBox="3749.52 15.36 122.55 94.3">
  <path d="M3843.2356 104.02099C3841.4402 103.59513 3838.1873 102.0662 3836.007 100.62335C3831.3031 97.51045 3830.0438 97.402448 3826.8849 99.841028C3822.317 103.36725 3820.0771 103.21694 3813.6963 98.956009C3810.438 96.780204 3807.1829 95.0 3806.4628 95.0C3805.7426 95.0 3803.8315 96.112345 3802.2158 97.471879C3796.1216 102.59983 3790.7242 103.24371 3785.2148 99.5C3783.1913 98.125 3780.4946 97.0 3779.2221 97.0C3777.9495 97.0 3774.7951 98.125 3772.2122 99.5C3766.1046 102.75127 3761.6577 102.74858 3758.4007 99.491618C3755.09 96.180951 3756.2506 94.330225 3759.9746 96.981897C3763.7205 99.6492 3766.8731 99.527519 3772.1479 96.512045C3777.7286 93.321743 3781.5804 93.350808 3786.3907 96.61952C3790.023 99.087698 3790.4841 99.163595 3794.3728 97.933182C3796.6428 97.214961 3799.6996 95.807501 3801.1658 94.805494C3806.4116 91.220577 3809.1129 91.44076 3814.7727 95.914574C3817.6154 98.161558 3820.3629 100.0 3820.8783 100.0C3821.3937 100.0 3824.0923 98.818702 3826.8752 97.374894L3831.935 94.749787L3836.8812 97.923759C3843.5791 102.22178 3847.9228 102.8331 3852.5145 100.12393C3856.9262 97.521002 3857.342 97.492396 3856.0644 99.879747C3855.2769 101.35104 3847.7958 105.37258 3846.7298 104.89764C3846.6034 104.84134 3845.031 104.44685 3843.2356 104.02099Z M3836.0 57.833333C3836.0 57.191667 3835.7291 56.937615 3835.3979 57.268773C3835.0667 57.599932 3832.5964 56.324932 3829.9081 54.43544C3824.2816 50.480653 3822.6311 50.26759 3818.5354 52.967359C3815.7973 54.772222 3815.4344 54.798081 3813.7854 53.305782C3811.5387 51.27252 3811.4058 43.529851 3813.4993 36.629356L3814.977 31.758712L3811.9044 27.879356C3810.2146 25.74571 3808.2789 24.0 3807.6031 24.0C3806.112 24.0 3801.0 29.179619 3801.0 30.690412C3801.0 31.284948 3801.6339 32.993203 3802.4086 34.486534C3804.3749 38.27651 3805.3972 49.844155 3804.0728 53.317141C3802.8708 56.468935 3800.7957 56.353949 3795.8342 52.860636C3791.1596 49.569365 3787.5932 49.4623 3782.4786 52.459689C3778.5056 54.787996 3777.4633 55.008564 3774.808 54.082915C3771.5543 52.948677 3759.173 42.614489 3758.2802 40.287792C3757.0458 37.071117 3759.3262 38.135259 3765.7018 43.751181C3775.648 52.512227 3775.8758 52.586988 3783.4238 49.56732C3788.8947 47.378625 3790.2426 47.1826 3793.1381 48.154602C3794.9871 48.775335 3797.2104 49.894486 3798.0787 50.641604C3801.8481 53.884906 3803.405 51.160674 3802.4192 43.046844C3801.3562 34.298641 3798.346 29.901611 3794.9093 32.077207C3794.1342 32.567899 3792.1072 32.976265 3790.405 32.984687C3786.2687 33.005152 3783.7683 30.136926 3784.1797 25.84354C3784.4575 22.94351 3784.8994 22.4608 3787.5108 22.204481C3789.6051 21.998925 3791.7289 22.809163 3794.4875 24.866016L3798.4534 27.82307L3802.2296 24.411535C3806.7739 20.306023 3808.5257 20.171445 3812.1555 23.649008L3814.9205 26.298016L3818.3935 23.649008C3823.6373 19.649407 3826.0427 20.337589 3827.5298 26.26288C3828.6281 30.638512 3825.9316 33.817774 3820.805 34.191764C3815.9086 34.548954 3815.2635 35.799356 3815.0997 45.25C3815.012 50.309293 3815.2332 51.0 3816.941 51.0C3818.0085 51.0 3819.1269 50.603731 3819.4262 50.119402C3819.7255 49.635073 3821.2146 48.997511 3822.7352 48.702598C3825.576 48.151651 3830.3098 50.365789 3834.7207 54.30854C3836.4805 55.881554 3837.2387 56.046778 3838.374 55.104595C3840.0285 53.731449 3844.2426 45.216886 3845.9635 39.769754C3847.1121 36.134296 3847.0259 35.896917 3842.571 30.428085C3838.5832 25.532556 3837.144 23.0 3838.35 23.0C3838.5426 23.0 3841.0295 25.678224 3843.8766 28.951608L3849.0532 34.903217L3847.888 39.701608C3846.4013 45.824384 3842.6623 53.911944 3839.9947 56.775277C3837.7303 59.205888 3836.0 59.664174 3836.0 57.833333Z M3766.3591 89.077314C3764.6316 88.023949 3762.8991 86.645692 3762.509 86.014521C3761.1279 83.779948 3763.0647 83.67173 3765.9718 85.821034C3769.6123 88.512542 3771.6484 88.550787 3775.5 86.0C3779.2754 83.499627 3781.0989 83.499627 3786.0 86.0C3791.1641 88.634518 3794.1589 88.524225 3796.9077 85.598293C3800.0753 82.226465 3800.6448 76.286102 3798.4208 69.813272C3795.1301 60.23575 3790.2775 57.557683 3784.2095 61.970387C3782.7193 63.054101 3779.7962 64.118859 3777.7138 64.336517C3774.3439 64.688758 3773.1924 64.129582 3767.2388 59.249504C3758.4271 52.026696 3756.1271 49.0 3759.4503 49.0C3760.248 49.0 3761.2605 49.612959 3761.7003 50.362132C3763.5095 53.443723 3775.0255 62.0 3777.3639 62.0C3778.7122 62.0 3782.0873 60.821292 3784.8641 59.380649C3793.1874 55.062372 3797.2085 57.39976 3800.9232 68.715569C3803.2646 75.848171 3803.0779 78.88795 3799.9139 85.139631C3797.1591 90.583092 3793.8581 91.332851 3786.1771 88.259734L3779.9448 85.766231L3776.1687 88.383116C3771.6646 91.504411 3770.4773 91.588437 3766.3591 89.077314Z M3760.4427 91.581761C3759.3759 90.80173 3758.838 89.828631 3759.2473 89.41932C3760.1915 88.475128 3765.0 90.614317 3765.0 91.978561C3765.0 93.438675 3762.7094 93.239238 3760.4427 91.581761Z M3793.7424 29.0C3794.0268 27.355785 3788.1639 22.780657 3786.8294 23.605429C3785.5698 24.383915 3785.8386 28.438633 3787.243 29.842976C3788.888 31.488004 3793.4135 30.901041 3793.7424 29.0Z M3838.0097 91.016601C3836.09 89.298313 3833.84 88.111823 3833.0097 88.379956C3832.1793 88.648089 3829.6039 89.564441 3827.2863 90.416294C3822.8262 92.055721 3821.123 91.797953 3816.8436 88.835861C3811.5595 85.178256 3812.1997 69.77873 3817.9208 62.925753L3820.7702 59.512636L3828.7036 62.756318C3833.067 64.540343 3837.339 66.0 3838.1969 66.0C3840.1064 66.0 3847.1973 56.796932 3848.9839 52.0C3849.7008 50.075 3852.1274 44.743281 3854.3762 40.151736C3857.8644 33.029635 3859.055 31.516639 3862.4825 29.850582L3866.5 27.897691L3862.318 31.698846C3858.9591 34.751828 3857.2267 37.748248 3853.5167 46.92242C3850.5343 54.297426 3847.4389 60.086995 3844.7811 63.261466C3841.0093 67.766476 3840.3647 68.140692 3837.0823 67.731371C3835.112 67.485674 3831.1177 66.222915 3828.2059 64.925238C3822.144 62.223601 3820.7145 62.648294 3817.5015 68.105573C3814.8302 72.642679 3814.8059 83.023081 3817.4597 85.955513C3820.0324 88.798288 3825.0858 89.524121 3828.8289 87.588501C3833.184 85.336394 3836.2894 85.614692 3839.0 88.5C3841.6885 91.361737 3844.8138 91.664744 3849.0497 89.47432C3852.5238 87.677794 3853.0429 89.270527 3849.6977 91.462402C3845.0251 94.524056 3841.7904 94.400681 3838.0097 91.016601Z M3824.4785 30.378622C3827.9532 26.903981 3823.6966 22.154668 3820.0585 25.447026C3817.539 27.72716 3817.435 29.571559 3819.75 30.919901C3822.1302 32.306261 3822.6053 32.251884 3824.4785 30.378622Z M3848.4243 27.75C3847.3659 26.5125 3845.9337 24.4875 3845.2415 23.25C3843.4003 19.958037 3846.4188 20.183268 3848.592 23.5C3850.5527 26.492432 3852.634 26.632911 3856.0 24.0C3858.605 21.962307 3861.0 21.402117 3861.0 22.83048C3861.0 23.809065 3852.5902 30.0 3851.2608 30.0C3850.7591 30.0 3849.4827 28.9875 3848.4243 27.75Z M3849.0 95.88163C3849.0 95.369507 3850.1543 94.511636 3851.5651 93.975249C3855.0022 92.668467 3855.4576 92.74364 3854.0897 94.391935C3852.6791 96.091561 3849.0 97.168399 3849.0 95.88163Z"/>
</svg>
