<?xml version="1.0" encoding="UTF-8"?>
<svg xmlns="http://www.w3.org/2000/svg" viewBox="1052.31 16.81 34.1 85.86">
  <path d="M 1054.3125 82.65625 L 1054.5 85.03125 C 1055.1976 85.142041 1055.7717 85.348346 1056.5938 85.375 C 1059.9126 85.482604 1060.6943 85.02631 1063.1562 81.5 C 1067.1475 75.782971 1067.6798 71.84064 1065.0938 67.65625 C 1063.9364 65.783534 1063 63.769174 1063 63.15625 C 1063 62.543327 1065.025 59.926803 1067.5 57.34375 C 1069.975 54.760697 1072 52.575592 1072 52.5 C 1072 52.424408 1071.5154 49.813513 1070.9375 46.6875 C 1069.7991 40.528972 1070.7416 32.970891 1073.4062 26.59375 C 1075.3165 22.021984 1077.3113 22.66769 1079.5625 28.5625 C 1081.8239 34.48393 1081.2142 48.133714 1078.4688 52.78125 C 1076.5561 56.019246 1076.5463 56.034172 1078.9688 60.46875 L 1081.4062 64.90625 L 1077.7812 70.1875 C 1075.7954 73.10301 1072.8582 78.444731 1071.25 82.03125 C 1068.4333 88.313079 1064.1511 93.059648 1059.3438 95.25 C 1058.1354 95.800541 1056.8256 95.887092 1055.4688 95.78125 L 1055.7188 98.65625 C 1058.319 98.769923 1060.3805 97.749123 1063.9375 94.9375 C 1067.431 92.175997 1069.8337 89.230017 1071.4375 85.6875 C 1076.2538 75.048839 1077.1052 73.409471 1080.1875 69.09375 L 1083.3438 64.65625 L 1081.1562 60.84375 L 1078.9688 57.03125 L 1080.9688 51.0625 C 1084.4097 40.847996 1083.3423 28.818301 1078.5 23.25 C 1076.6081 21.074424 1075.7747 20.713915 1074.4375 21.53125 C 1071.2089 23.504585 1068.7516 31.893715 1068.375 42.3125 C 1068.0275 51.922441 1067.9488 52.225549 1064.3438 56.625 C 1059.9976 61.928958 1059.5856 65.867544 1062.9688 69.46875 C 1065.4778 72.139468 1065.3691 72.907471 1061.5625 78.9375 C 1059.4892 82.221833 1058.4071 83 1056 83 C 1055.4847 83 1054.8872 82.806637 1054.3125 82.65625 z "/>
</svg>
