<?xml version="1.0" encoding="UTF-8"?>
<svg xmlns="http://www.w3.org/2000/svg" viewBox="812.84 16.23 96.76 85.67">
  <path d="M 897.25,72.65625 C 896.96388,72.518935 896.35967,72 896.21875,72 893.87029,72 893.03898,69.371465 894.65625,67.0625 900.27767,59.036791 902.58611,51.77453 904.625,35.5 905.19651,30.938162 903.95989,23.983814 902.53125,23.6875 902.00414,23.578173 900.85597,25.75 899.96875,28.5 899.08152,31.25 897.04709,37.488996 895.46875,42.375 892.72228,50.877172 886.01127,62.683135 883.3125,63.71875 882.60842,63.988931 879.64364,62.072957 876.75,59.46875 869.25668,52.724934 867.9155,52.271073 863.5,55 861.18774,56.429057 859.51075,56.917 858.90625,56.3125 857.61358,55.019822 856.57648,45.77529 857.375,42.59375 858.0153,40.042576 864.19506,36 867.4375,36 869.1755,36 871,38.987086 871,41.8125 871,44.52295 873.42712,46.415984 874.75,44.75 878.95676,39.45216 878.58989,28.789512 874.03125,23.6875 871.25253,20.577578 871.11384,20.543241 867.34375,21.875 865.22891,22.622053 862.825,23.829701 862,24.53125 861.175,25.232798 858.83326,26.720776 856.8125,27.84375 L 853.15625,29.875 851.71875,27.6875 C 848.85854,23.356378 844.88973,20.121509 843.1875,20.71875 840.0101,21.833569 834.99443,26.110081 833.5,29 831.39571,33.06925 831.58241,39.260053 833.90625,42.125 835.44051,44.016511 836.78227,44.5 840.65625,44.5 L 845.5,44.5 845.8125,49.90625 C 845.98147,52.872284 845.71253,55.693725 845.21875,56.1875 844.68839,56.717863 841.8547,56.018515 838.28125,54.46875 832.56108,51.987984 832.05319,51.924347 829.1875,53.40625 825.10412,55.51785 821.28008,63.835566 819.375,74.75 817.23367,87.017949 818.87053,97.570317 822.8125,96.8125 824.11571,96.561968 824.757,94.573523 825.65625,88 826.70059,80.365855 829.22839,71.61302 831.34375,68.25 833.54037,64.757782 836.83731,67.659842 842.84375,78.3125 845.6342,83.261456 845.58065,84.037873 842.0625,87.125 837.40329,91.213378 836.6182,98 840.8125,98 841.84724,98 844.56599,96.65 846.84375,95 849.12151,93.35 851.24604,92 851.5625,92 851.87896,92 853.64516,93.147739 855.5,94.5625 857.71692,96.253426 859.83977,97.024362 861.6875,96.8125 864.03394,96.543456 864.55459,95.976327 864.8125,93.3125 865.02704,91.096695 864.47751,89.47751 863,88 860.20953,85.209528 860.17543,81.299431 862.9375,75.59375 866.02055,69.225023 868.02909,68.335064 872.9375,71.09375 877.7292,73.786835 878.66638,76.567548 875.96875,80.25 874.86074,81.7625 874.28979,83.003758 874.71875,83 876.225,82.986804 880.18133,76.121225 879.4375,74.8125 876.41198,69.489234 870.12264,66.714974 865.65625,68.75 863.05673,69.934421 858,79.426904 858,83.125 858,84.549294 859.125,86.922601 860.5,88.40625 865.09311,93.362302 862.34663,96.182193 857,92 853.57151,89.318196 851.66723,89.505891 846.84375,93 844.56599,94.65 842.08623,96 841.34375,96 837.98281,96 841.35837,89.901354 846.0625,87.46875 849.66106,85.607862 849.76802,83.409453 846.5,78.59375 845.125,76.567574 844,74.551575 844,74.125 844,72.519 836.79058,65 835.25,65 833.28094,65 829,68.873144 829,70.65625 829,71.370664 828.1142,73.866536 827.03125,76.21875 825.94829,78.570963 824.57479,83.0875 823.96875,86.25 823.36271,89.4125 822.49874,92 822.0625,92 820.61402,92 820.01697,83.13193 820.96875,75.625 821.95196,67.870246 825.53055,58.448452 828.34375,56.125 830.55763,54.296536 838.02768,55.442838 841.4375,58.125 845.99321,61.708519 847.42279,60.401988 847.78125,52.4375 847.95519,48.572716 847.63791,44.16969 847.0625,42.65625 846.17699,40.327181 845.70767,40.088281 844.0625,40.96875 842.99346,41.540883 840.76055,42 839.09375,42 835.44983,42 834,39.772327 834,34.1875 834,30.848377 834.61564,29.682564 838,26.625 840.20159,24.636001 842.64207,23 843.4375,23 844.92718,23 849.21985,28.148382 850.3125,31.25 851.06851,33.396014 852.3544,33.482829 854,31.5 854.68469,30.675 855.72191,30 856.3125,30 856.9031,30 859.04622,28.866031 861.0625,27.46875 863.07877,26.07147 866.30329,24.659656 868.25,24.34375 871.21658,23.86234 872.04648,24.142885 873.34375,26.125 875.74526,29.794298 876.42814,36.13508 874.65625,38.5 873.15778,40.5 873.12967,40.5 872.40625,38.5 871.37065,35.636943 868.91842,33 867.28125,33 864.67615,33 856.06675,39.385808 854.90625,42.1875 854.15606,43.99862 854.00223,47.300012 854.46875,51.65625 855.6013,62.231869 855.89,62.50321 861.78125,58.5 863.80474,57.125 866.03611,56 866.75,56 867.46388,56 871.02178,58.505795 874.625,61.5625 878.22821,64.619205 881.87756,66.981705 882.75,66.8125 884.13246,66.544378 890.80289,57.248649 892.65625,53 893.01613,52.175 893.97138,49.925 894.8125,48 895.65362,46.075 897.34125,41.383272 898.53125,37.5625 901.34781,28.519244 903.43631,27.476329 902.46875,35.625 900.86889,49.098755 897.90553,57.925739 892.0625,66.5 890.93808,68.15 890.00362,69.836362 890,70.25 889.99409,70.924294 892.86834,73.220928 896.03125,75.40625 L 897.25,72.65625 z M 892.375,83.46875 C 885.44841,78.833233 885.06535,78.880989 881.28125,84.65625 878.97341,88.17846 880.57404,88.787522 883.875,85.625 L 886.75,82.875 891.34375,85.6875 892.375,83.46875 z"/>
</svg>
