<?xml version="1.0" encoding="UTF-8"?>
<svg xmlns="http://www.w3.org/2000/svg" viewBox="1.75 16.18 30.69 86.76">
  <path d="M10.960838 93.960215C7.696281 90.643705 6.0 88.070816 6.0 86.435704C6.0 85.069105 7.8 81.10088 10.0 77.617427C12.2 74.133973 14.0 70.84321 14.0 70.30462C14.0 69.76603 11.975 67.427383 9.5 65.107626C3.8370463 59.799879 3.7455891 57.475846 8.9991121 52.37948C11.198624 50.245766 12.998624 47.747115 12.999112 46.826923C12.9996 45.906731 11.653264 43.80711 10.007253 42.161099C5.0734811 37.227327 4.6423328 34.78485 7.9181082 30.325988C14.97716 20.717474 17.892774 20.124277 24.970008 26.856688C28.421649 30.140156 29.0 31.289801 29.0 34.867507C29.0 38.36661 28.335761 39.7653 24.908067 43.48391L20.816134 47.923133L24.908067 52.775923C30.274382 59.140056 30.431729 62.806184 25.5 66.567798C21.264528 69.798349 21.100375 72.01074 24.814254 75.809985C28.461422 79.540984 30.393362 84.296585 29.579393 87.539694C28.595739 91.458884 21.195696 99.0 18.333478 99.0C16.759667 99.0 14.198011 97.248905 10.960838 93.960215Z M16.0 57.377555C16.0 48.948465 16.219598 49.03597 9.75 54.88708C6.2256504 58.074505 6.2819068 58.915056 10.240985 62.223099C15.382035 66.518749 16.0 65.998803 16.0 57.377555Z M16.0 85.5C16.0 76.072516 14.897559 74.772186 11.050852 79.662482C7.3571824 84.358222 7.3613092 86.745824 11.069708 90.57192C12.897152 92.457364 14.754059 94.0 15.196167 94.0C15.638275 94.0 16.0 90.175 16.0 85.5Z M16.56723 39.493326C17.325828 35.44965 16.284539 27.0 15.027621 27.0C13.464477 27.0 9.0 33.126826 9.0 35.272006C9.0 37.295622 13.533521 43.0 15.141778 43.0C15.563956 43.0 16.205409 41.421997 16.56723 39.493326Z M22.644616 65.910623C24.503991 64.761465 26.516832 62.902808 27.117594 61.780273C28.055229 60.028287 27.631159 59.160571 24.122592 55.652003C19.971816 51.501228 18.378376 51.461852 17.971304 55.5C17.567514 59.505595 18.016468 68.0 18.631966 68.0C18.979547 68.0 20.78524 67.05978 22.644616 65.910623Z M22.879715 93.371698C26.180818 91.059515 28.032823 86.220914 26.833009 83.04321C25.639841 79.883107 21.074319 75.0 19.312909 75.0C17.880281 75.0 17.495599 84.315217 18.641848 91.25C19.342834 95.490948 19.640963 95.640208 22.879715 93.371698Z M25.632488 38.743796C27.48861 35.154453 26.896587 32.391912 23.49078 28.75C18.932583 23.87581 18.0 24.909036 18.0 34.833333C18.0 39.691667 18.276578 43.943245 18.614619 44.281285C19.6504 45.317067 24.013706 41.874176 25.632488 38.743796Z"/>
</svg>
