<?xml version="1.0" encoding="UTF-8"?>
<svg xmlns="http://www.w3.org/2000/svg" viewBox="2072.5 20.12 27.81 85.78">
  <path d="M 2074.5,55.25 2074.6562,55.875 2074.6562,58.84375 C 2074.9295,59.413135 2074.9292,60.340468 2074.8125,61.75 2074.7799,62.144313 2074.7001,62.393695 2074.6562,62.71875 L 2074.6562,68.625 2074.6562,68.75 C 2074.7383,68.76968 2075.0526,68.646339 2075.0938,68.6875 2075.5647,69.15851 2076.433,73.147408 2077.0312,77.53125 2078.9366,91.494101 2083.0196,102 2086.5,102 2090.3805,102 2093.8255,94.747638 2096,82 2097.4968,73.225573 2098.3108,25.589228 2096.9062,29 2096.3399,30.375 2095.7077,38.876477 2095.5,47.875 2095.2923,56.873522 2094.8705,64.442036 2094.5938,64.71875 2094.3171,64.995465 2092.4531,64.214453 2090.4375,62.96875 L 2086.7812,60.6875 2087.0312,45.09375 C 2087.1727,36.514216 2087.1664,28.6 2087,27.5 2086.4738,24.020901 2085.2543,39.056768 2085.125,50.6875 2085.0044,61.543799 2084.9383,61.927858 2082.3438,63.96875 2080.7079,65.255483 2079.2849,65.691238 2078.7188,65.125 2077.9938,64.400079 2077.6539,44.839201 2078.2188,37 2078.4567,33.697854 2077.9632,26.692979 2077.5312,27.125 2077.2779,27.378326 2076.8196,33.180409 2076.5,40.03125 2076.0214,50.293787 2075.7009,53.725569 2074.5,55.25 z M 2086.125,64 C 2088.4176,64 2094,69.382417 2094,71.59375 2094,73.321165 2094.0493,73.325262 2089.5312,71.4375 2086.171,70.03353 2085.5802,70.03353 2083.4375,71.4375 2080.3875,73.435935 2079.3574,73.403035 2078.5312,71.25 2077.7018,69.088405 2083.0386,64 2086.125,64 z M 2084.8438,72.1875 C 2085.8372,72.18788 2087.0309,72.900119 2089.5,74.3125 2093.4873,76.593295 2093.4979,76.634323 2093.1562,82.0625 2092.9677,85.057516 2092.0676,89.75 2091.1562,92.5 2089.8901,96.319882 2088.9561,97.565961 2087.2188,97.8125 2085.3584,98.076493 2084.5965,97.313011 2082.9375,93.5625 2081.8221,91.040951 2080.4103,86.206105 2079.8125,82.8125 2078.7454,76.754654 2078.7607,76.588173 2081.4062,74.3125 2083.0465,72.90169 2083.8503,72.18712 2084.8438,72.1875 z"/>
</svg>
