<?xml version="1.0" encoding="UTF-8"?>
<svg xmlns="http://www.w3.org/2000/svg" viewBox="2256.63 25.69 30.97 79.9">
  <path d="M 2258.75 33.4375 C 2259.4937 33.014958 2260.2293 32.658619 2261.0938 32.46875 C 2268.0204 30.947409 2269.7744 33.66308 2271.0312 47.96875 L 2271.8438 57.4375 L 2267.9375 61.6875 C 2263.0572 66.982066 2262.9536 71.539322 2267.5312 80.0625 C 2268.7735 82.375495 2268.6412 83.147089 2266.4375 87.5 C 2263.7549 92.798743 2263.4543 95.116051 2265.0312 98.0625 C 2266.406 100.63127 2267.6175 100.51444 2269.5312 97.59375 C 2271.9646 93.879945 2273.9724 93.603219 2277.0938 96.59375 C 2282.6928 101.95787 2285.5977 96.539331 2281.6875 88.03125 C 2279.7278 83.767193 2279.4465 82.043646 2280.125 79.125 C 2281.7758 72.023384 2281.1864 68.484014 2277.5 63.125 C 2274.369 58.573248 2273.8678 56.964668 2272.875 47.78125 C 2271.2778 33.007204 2268.8936 29.323302 2261.875 30.90625 C 2260.6241 31.188369 2259.6125 31.567537 2258.625 32 L 2258.75 33.4375 z M 2273.1562 61.375 C 2274.4007 61.605187 2275.5721 62.87683 2277 65.21875 C 2279.3825 69.126334 2279.573 74.695045 2277.5 79.65625 C 2276.041 83.148144 2276.087 83.414657 2279 87.8125 C 2282.1476 92.564487 2282.8852 96 2280.75 96 C 2280.0573 96 2278.9056 95.1 2278.2188 94 C 2277.5317 92.9 2276.0541 92 2274.9062 92 C 2273.7583 92 2271.5059 92.923432 2269.9062 94.0625 C 2267.452 95.810057 2266.8897 95.915966 2266.4062 94.65625 C 2265.7458 92.935193 2267.3576 89.494145 2270.3125 86.25 L 2272.3438 84 L 2270.25 79.75 C 2269.0983 77.413624 2267.6389 73.514545 2267 71.09375 C 2265.8805 66.851664 2265.9621 66.600369 2268.8438 63.71875 C 2270.5972 61.965265 2271.9118 61.144813 2273.1562 61.375 z "/>
</svg>
