<?xml version="1.0" encoding="UTF-8"?>
<svg xmlns="http://www.w3.org/2000/svg" viewBox="1478.01 26.21 21.17 65.51">
  <path d="M 1488.0625 29.1875 L 1487.2812 30.4375 L 1486.1875 32.40625 C 1486.5734 32.963169 1487.1063 36.242251 1487.4688 40.59375 L 1488.1875 49.21875 L 1484.4062 53.09375 C 1480.0136 57.592257 1480.5491 59.764227 1485 55.5 L 1488 52.625 L 1488 60.25 C 1488 67.574177 1487.8839 67.946472 1485 70 C 1483.35 71.174904 1482 72.774952 1482 73.5625 C 1482 75.45287 1483.8923 75.409279 1484.625 73.5 C 1484.9416 72.675 1485.8464 72 1486.625 72 C 1488.9586 72 1487.6108 81.712862 1484.875 84.625 C 1482.2961 87.370111 1482.7457 88.622225 1485.5625 86.5625 C 1487.2236 85.347866 1487.8581 85.386774 1490.2188 86.78125 C 1493.544 88.745501 1495.2502 87.55144 1492.1875 85.40625 C 1490.3906 84.147672 1490 82.904343 1490 78.4375 C 1490 75.443687 1490.2369 73 1490.5312 73 C 1490.8256 73 1492.1755 73.736744 1493.5312 74.625 C 1497.1876 77.020716 1496.7561 74.275653 1492.9688 71.0625 C 1490.3541 68.844322 1489.926 67.80491 1489.8438 63.375 C 1489.7373 57.651499 1490.5221 55.59203 1492.5625 56.375 C 1495.1411 57.364504 1495.2197 54.824324 1492.6875 52.15625 C 1490.441 49.789279 1490.091 48.369247 1489.5312 39.5 C 1489.2155 34.497472 1488.5749 30.371526 1488.0625 29.1875 z "/>
</svg>
