<?xml version="1.0" encoding="UTF-8"?>
<svg xmlns="http://www.w3.org/2000/svg" viewBox="3397.74 13.75 105.94 93.63">
  <path d="M3476.5 101.65712C3474.3 100.99264 3470.4452 99.398458 3467.9338 98.114506L3463.3676 95.780047L3458.217 98.390024C3452.0316 101.52444 3450.5889 101.59448 3445.5132 99.006746C3441.608 97.01574 3441.5989 97.01574 3437.4861 99.006746C3432.2442 101.54431 3428.592 101.529 3424.4223 98.951986L3421.1086 96.903972L3416.9576 99.021617C3414.6746 100.18632 3411.4988 101.17645 3409.9003 101.2219C3407.1463 101.3002 3403.0 98.670224 3403.0 96.845012C3403.0 95.453529 3405.6636 95.889677 3407.0 97.5C3408.7022 99.551045 3410.6601 99.348842 3416.4215 96.526968C3421.1162 94.227569 3421.5079 94.189244 3424.9215 95.695349C3431.5303 98.611224 3435.1613 98.408083 3440.1104 94.845584C3441.3796 93.931924 3442.6644 94.143231 3446.1761 95.843196C3451.6568 98.496365 3452.5785 98.509128 3457.5 96.0C3462.9305 93.231365 3466.83 93.491364 3473.6454 97.076506C3478.6266 99.696769 3480.1618 100.05596 3483.997 99.498581C3486.4736 99.138644 3489.5649 98.159506 3490.8665 97.32272C3494.0844 95.253869 3493.2649 97.735238 3489.9369 100.13719C3486.6396 102.51711 3481.3341 103.11723 3476.5 101.65712Z M3464.0632 52.556153C3461.2417 50.050269 3458.2257 48.0 3457.361 48.0C3456.4962 48.0 3454.4517 49.125 3452.8176 50.5C3451.1835 51.875 3449.2418 53.0 3448.5027 53.0C3446.4346 53.0 3445.7321 47.702303 3446.5051 37.936021L3447.2083 29.050812L3444.0201 25.025406C3440.4489 20.516322 3439.2273 20.18559 3435.9491 22.840164C3433.6783 24.678928 3433.6778 24.685366 3435.3383 31.29568C3437.2294 38.824273 3437.5533 52.046733 3435.8874 53.712647C3434.5809 55.019131 3425.5114 52.703861 3422.9213 50.402635C3420.1739 47.961712 3415.6246 48.742682 3410.7038 52.5C3405.6614 56.35012 3402.5594 57.249307 3405.4897 54.011425C3408.2735 50.935353 3416.4394 46.0 3418.7453 46.0C3419.8839 46.0 3422.9945 47.102599 3425.6577 48.45022C3434.4333 52.890692 3434.5084 52.839832 3434.4438 42.5C3434.4129 37.55 3433.8558 32.527149 3433.2058 31.338109C3432.0437 29.212407 3431.9383 29.203609 3426.9071 30.812525L3421.7902 32.448832L3418.8951 29.208639C3415.6514 25.578255 3415.2412 22.901687 3417.5714 20.571429C3419.7357 18.407185 3421.1111 18.586179 3425.5705 21.612398C3428.5929 23.663465 3429.751 23.982674 3430.96 23.097978C3435.3085 19.91611 3438.6395 18.007089 3439.8488 18.003738C3440.5906 18.001682 3442.4587 19.35 3444.0 21.0C3447.2871 24.51881 3447.7038 24.578341 3451.0 22.0C3453.4526 20.081555 3459.4738 19.272487 3460.3027 20.75C3463.4838 26.42023 3460.2526 31.645178 3454.2602 30.520999C3451.7973 30.058944 3450.4507 30.260204 3449.8693 31.177289C3448.8931 32.716959 3448.6946 47.361233 3449.6371 48.303788C3449.9875 48.654205 3451.5195 48.054205 3453.0415 46.970455C3454.5635 45.886705 3456.453 45.0 3457.2405 45.0C3458.0279 45.0 3461.4758 47.25 3464.9023 50.0C3468.3289 52.75 3471.803 55.0 3472.6225 55.0C3474.2602 55.0 3477.2238 48.999784 3479.0456 41.99562C3480.132 37.818673 3479.9976 37.021525 3477.1493 30.75C3473.2456 22.154698 3474.6755 21.921004 3479.045 30.440182C3482.2761 36.739925 3482.3202 36.996944 3481.0656 42.226359C3480.3603 45.166656 3478.8194 49.581074 3477.6416 52.036177C3475.8569 55.756131 3474.9745 56.551019 3472.3466 56.806153C3469.7953 57.053854 3468.2138 56.242422 3464.0632 52.556153Z M3408.3523 90.006691C3404.525 88.462468 3404.4337 86.80314 3408.2151 87.512526C3410.7728 87.992357 3412.5738 87.593985 3415.4087 85.921351C3418.5518 84.066892 3419.3406 83.92735 3420.0799 85.095045C3420.5691 85.86777 3420.9763 86.110746 3420.9847 85.63499C3420.9931 85.159235 3422.1092 85.496735 3423.4648 86.38499C3429.9057 90.60522 3432.6914 86.775166 3430.9072 76.152548C3429.5257 67.927678 3426.2244 61.974297 3421.691 59.532908L3418.2354 57.671982L3413.6896 60.335991C3411.1895 61.801196 3408.774 62.998843 3408.3219 62.997429C3407.8699 62.996015 3410.11 61.421015 3413.3001 59.497429C3420.031 55.438699 3421.7604 55.237055 3425.3851 58.088296C3434.0523 64.905907 3437.0468 88.695229 3429.4769 90.595144C3427.9749 90.97214 3425.6876 90.390371 3423.2206 89.003815L3419.3319 86.818241L3415.4307 88.909121C3411.0825 91.239634 3411.3177 91.203162 3408.3523 90.006691Z M3425.7227 28.877331C3427.3108 27.289175 3425.4102 23.507909 3422.3148 22.097568C3417.5058 19.906429 3416.1997 24.438749 3420.6349 27.92742C3423.6698 30.314668 3424.1885 30.411517 3425.7227 28.877331Z M3473.5 87.0C3470.1688 83.522994 3467.4313 83.242168 3462.8072 85.903096C3460.9882 86.949798 3458.0384 88.110348 3456.2521 88.482095C3453.4979 89.055238 3452.5477 88.701581 3450.0021 86.155922C3447.4836 83.637476 3447.0 82.365201 3447.0 78.258424C3447.0 71.280614 3449.4429 63.977738 3453.2504 59.573115L3456.5334 55.775166L3463.0167 59.2633C3466.5825 61.181773 3470.9664 63.068978 3472.7587 63.457088C3474.551 63.845199 3475.7507 64.594431 3475.4246 65.122049C3474.5964 66.46208 3468.3491 64.298426 3458.8636 59.386421C3455.8048 57.802418 3455.4612 58.081925 3451.9813 64.983979C3448.8726 71.149971 3448.6108 82.240663 3451.522 84.44124C3454.1848 86.454034 3456.8563 86.367469 3461.253 84.125932C3468.4402 80.461708 3470.2986 80.635745 3476.1782 85.523616C3479.07 87.927651 3483.0348 87.867889 3485.0919 85.389261C3485.726 84.625167 3486.949 84.0 3487.8095 84.0C3488.9381 84.0 3488.573 84.836213 3486.5 87.0C3484.3412 89.253268 3482.7233 90.0 3480.0 90.0C3477.2767 90.0 3475.6588 89.253268 3473.5 87.0Z M3458.8201 25.245529C3459.0064 23.934041 3458.5162 22.751584 3457.6483 22.418526C3455.4169 21.562256 3452.0 23.788449 3452.0 26.098542C3452.0 27.784351 3452.5486 28.073821 3455.25 27.813358C3457.7431 27.57298 3458.5746 26.974943 3458.8201 25.245529Z M3480.1623 59.5C3481.9408 55.398663 3486.2185 47.0 3486.5289 47.0C3487.4422 47.0 3483.847 55.373814 3481.8857 57.815059C3480.6993 59.291777 3479.9238 60.05 3480.1623 59.5Z M3483.0681 27.09563C3480.202 23.070633 3480.469 20.823973 3483.3809 24.463306L3485.7519 27.426612L3489.4416 24.612319C3491.471 23.064457 3493.3268 21.99347 3493.5657 22.232346C3494.1005 22.767171 3486.964 30.0 3485.9014 30.0C3485.4805 30.0 3484.2055 28.693033 3483.0681 27.09563Z M3484.0 94.206233C3484.0 93.073443 3490.0326 90.69928 3490.8455 91.512158C3491.6848 92.351465 3489.7175 93.804747 3486.75 94.537645C3485.1161 94.941173 3484.0 94.806668 3484.0 94.206233Z M3487.0 45.822124C3487.0 44.803424 3490.0106 38.0 3490.4614 38.0C3491.091 38.0 3488.885 44.326222 3487.8635 45.45C3487.3886 45.9725 3487.0 46.139956 3487.0 45.822124Z M3491.0312 36.184259C3490.9637 33.339268 3496.2231 26.0 3498.3293 26.0C3498.8687 26.0 3498.4847 26.911952 3497.476 28.026559C3496.4673 29.141167 3494.6116 31.728667 3493.3522 33.776559C3492.0928 35.824452 3491.0484 36.907916 3491.0312 36.184259Z"/>
</svg>
