<?xml version="1.0" encoding="UTF-8"?>
<svg xmlns="http://www.w3.org/2000/svg" viewBox="3184.57 43.47 21.59 51.52">
  <path d="M3187.506 91.885472C3189.1719 88.969463 3192.4135 86.000271 3193.9243 86.006589C3196.1627 86.015949 3201.3869 89.642864 3200.2098 90.370312C3199.6708 90.703467 3197.7907 90.474405 3196.0319 89.861286C3193.2512 88.891913 3192.4351 89.041565 3189.7743 91.008734C3188.0914 92.25295 3187.0707 92.647482 3187.506 91.885472Z M3198.0063 71.011807C3196.4575 68.117798 3192.3548 67.368965 3189.9536 69.542015C3187.1674 72.063469 3186.5741 70.811104 3189.0586 67.652662C3190.207 66.192729 3192.1525 65.0 3193.3855 65.0C3195.7166 65.0 3201.0 69.7215 3201.0 71.804719C3201.0 73.684436 3199.1785 73.201981 3198.0063 71.011807Z M3199.0401 53.541328C3195.2673 49.648806 3193.8721 49.244261 3192.0 51.5C3189.6647 54.313852 3188.9328 53.009855 3191.1581 50.0C3194.2518 45.815628 3197.1091 46.106903 3200.4644 50.948684C3204.168 56.292985 3203.2777 57.913505 3199.0401 53.541328Z"/>
</svg>
