<?xml version="1.0" encoding="UTF-8"?>
<svg xmlns="http://www.w3.org/2000/svg" viewBox="746.85 15.97 65.4 88.55">
  <path d="M760.5082 98.025849C759.62614 95.246715 762.69148 89.331429 766.65079 86.172293L769.99994 83.5L769.99997 74.41898C770.0 65.83697 769.86707 65.266816 767.58089 64.043289C765.46575 62.911303 764.77494 63.02407 762.08327 64.940703C760.3901 66.146349 758.73829 68.34041 758.41258 69.816394C757.05552 75.966028 755.74196 79.081142 754.65536 78.726677C751.33922 77.644904 749.82545 62.543954 752.44912 56.717881C753.24613 54.948047 754.99889 52.201859 756.34413 50.615243C759.39249 47.019933 762.34244 47.5077 767.89641 52.52538C770.01171 54.436421 771.97658 56.0 772.26279 56.0C774.58402 56.0 773.15532 39.411867 770.35091 33.801659C769.10851 31.316256 768.75788 31.188442 765.90776 32.182001C761.29881 33.78869 755.22664 31.751183 754.36245 28.30799C752.8223 22.171549 759.5065 20.000001 766.02673 24.518524C770.2906 27.473386 771.75258 27.335744 777.49503 23.438811L781.14127 20.964405L783.90945 22.935522C785.43195 24.019637 787.25526 25.602646 787.96126 26.45332C789.75076 28.60954 791.52772 28.393023 795.78519 25.5C799.7469 22.80795 803.87242 22.272424 805.8 24.2C807.5026 25.902597 807.28593 30.146765 805.35573 32.902507C803.88063 35.008509 803.1641 35.193533 798.39111 34.700917C793.21106 34.166289 793.02944 34.234611 791.50438 37.291668C790.0295 40.24815 788.12012 55.0 789.21234 55.0C789.49054 55.0 792.36907 53.6557 795.60908 52.012667C798.84909 50.369635 802.20415 49.019635 803.06479 49.012667C805.1167 48.996057 807.99284 55.143888 808.69102 61.038918C809.28239 66.032189 807.74346 72.358791 805.23993 75.226419C803.28877 77.461332 801.8287 76.530685 802.58136 73.531855C803.30603 70.644562 801.72691 67.522394 798.45892 65.381123C796.45925 64.070889 795.46503 63.978833 793.2441 64.89827L790.5 66.034293L790.84901 75.267147C791.18998 84.287255 791.27572 84.571618 794.56983 87.608138C798.14691 90.905504 800.41661 95.471937 799.5722 97.672449C798.90165 99.419873 796.08729 99.352247 791.60901 97.481101C788.32328 96.108235 787.67117 96.118684 784.82639 97.589777C781.93009 99.087511 781.40989 99.089019 778.30558 97.608676C773.81458 95.467072 770.19203 95.585546 766.22583 98.003738C762.13672 100.49687 761.29351 100.50013 760.5082 98.025849Z M756.0 71.634859C756.0 66.833153 763.89448 60.196958 768.04103 61.513022C772.95937 63.074042 772.06508 58.69221 766.37048 53.327616C761.44556 48.688104 757.16933 49.965391 753.40499 57.20034C751.66354 60.547347 751.5848 67.707234 753.25 71.292833C754.79525 74.620146 756.0 74.769984 756.0 71.634859Z M766.56234 28.899134C767.67745 27.094843 763.52226 23.836253 759.88427 23.662052C757.02164 23.524978 756.44798 23.867909 756.16251 25.88691C755.97689 27.19971 756.42689 28.65532 757.16251 29.121597C759.09939 30.3493 765.76356 30.19158 766.56234 28.899134Z M768.05221 94.973367C771.58885 93.169103 771.95308 92.647916 771.37169 90.223367C770.49462 86.565729 770.38931 86.50159 767.45566 87.838248C764.06768 89.381915 760.86071 97.0 763.59886 97.0C763.86331 97.0 765.86731 96.088015 768.05221 94.973367Z M786.31396 92.793382C789.06348 89.094192 789.61537 77.401467 787.64965 64.494625C785.97328 53.487653 786.65112 43.164094 789.49748 36.351793L791.06183 32.607784L786.78091 28.846529C781.93001 24.584477 780.51104 24.311794 775.53393 26.685212C771.82726 28.4528 771.42988 29.431823 772.88842 33.202947C774.59721 37.62108 775.97571 49.765237 775.09658 52.656098C771.61333 64.110142 770.81438 82.758028 773.57311 88.214842C777.67107 96.320679 782.42297 98.028317 786.31396 92.793382Z M797.0 95.464817C797.0 93.238094 793.99764 89.0 792.42017 89.0C791.24274 89.0 789.0 91.886772 789.0 93.402321C789.0 94.150989 794.23763 96.911521 795.75 96.959962C796.4375 96.981983 797.0 96.309168 797.0 95.464817Z M806.56567 68.893738C807.7233 67.020657 807.15546 59.307819 805.58282 55.543963C803.94954 51.634973 801.5028 50.0972 799.73278 51.867217C799.10975 52.490248 797.7971 53.0 796.81578 53.0C795.83445 53.0 793.61398 54.266597 791.8814 55.81466C789.13835 58.265575 788.88039 58.907996 789.88532 60.785721C790.80684 62.5076 791.63758 62.822484 794.00801 62.348397C797.52875 61.64425 801.55082 63.92004 803.20605 67.55289C804.41393 70.203891 805.49042 70.633528 806.56567 68.893738Z M803.47852 31.378622C805.3994 29.457745 805.142 27.118625 802.85099 25.676002C800.98707 24.502308 796.33835 26.95471 795.30054 29.659192C794.07243 32.859588 800.62076 34.236382 803.47852 31.378622Z"/>
</svg>
