<?xml version="1.0" encoding="UTF-8"?>
<svg xmlns="http://www.w3.org/2000/svg" viewBox="2149.64 19.73 114.3 84.1">
  <path d="M 2166.875,60.09375 2167.0938,63.40625 C 2169.2966,63.531051 2171.8076,62.444342 2175.6562,60.03125 2179.205,57.806205 2182.9225,56 2183.9062,56 2185.9784,56 2191.6815,58.687513 2192.5312,60.0625 2193.5738,61.749312 2196.9108,61.05828 2198.0625,58.90625 2199.7739,55.708564 2197.5599,41.520649 2194.4688,35.875 2193.0862,33.349999 2193.1608,33.124259 2196.4375,30.625 2198.3207,29.188647 2200.2632,28 2200.75,28 2201.2368,28 2203.3451,29.513466 2205.4375,31.375 L 2209.25,34.78125 2208.125,41.21875 C 2206.7625,49.042987 2206.6966,54.987695 2207.9688,57 2208.8026,58.319139 2209.5271,58.29631 2213.9688,56.71875 L 2219,54.90625 2223.25,57.78125 C 2229.6528,62.119489 2230.6787,62.287775 2233.4375,59.3125 2236.4753,56.036384 2242,43.037531 2242,39.1875 2242,37.528087 2240.9254,35.087806 2239.4375,33.40625 2238.0235,31.808204 2236.3789,29.375 2235.7812,28 2234.8259,25.80191 2234.6382,25.719579 2234.25,27.375 2233.9996,28.442784 2235.1487,31.162908 2236.9062,33.65625 2238.6106,36.074293 2240,38.797548 2240,39.6875 2240,42.814378 2235.7804,52.85052 2233.125,56.03125 L 2230.4375,59.25 2225.1875,56 C 2221.4277,53.686567 2219.2305,52.970213 2217.4688,53.40625 2209.151,55.464817 2210,56.037141 2210,48.3125 2210,39.734524 2211.3324,37.400501 2215.375,38.9375 2218.8851,40.272015 2222.806,38.628932 2224.875,34.9375 2226.1096,32.734913 2226.0846,31.972217 2224.875,29.4375 2223.0817,25.67979 2219.0194,25.04615 2215.3438,27.9375 2211.9895,30.575934 2208.8088,30.56112 2206.4062,27.90625 2202.6524,23.758366 2201.0741,23.548774 2197.6562,26.78125 2192.0222,32.109528 2190.364,32.531404 2186.125,29.59375 2182.1342,26.828145 2178.128,26.246971 2176.1875,28.1875 2174.2728,30.102247 2174.7832,34.726682 2177.1562,36.9375 2179.4543,39.078467 2182.7528,39.066753 2188.3125,36.84375 2191.9508,35.389 2193.8646,37.152144 2195.1562,43.15625 2196.3407,48.661508 2197.3877,58 2196.8125,58 2196.5723,58 2193.9636,56.852165 2191.0312,55.4375 2184.7671,52.415574 2182.9061,52.648926 2175.6562,57.53125 2172.8355,59.430865 2169.7489,61 2168.8125,61 2168.4579,61 2167.657,60.533947 2166.875,60.09375 z M 2254.6562,25.3125 C 2254.3989,25.055114 2252.3859,25.846505 2250.2188,27.09375 L 2246.2812,29.375 2243.4062,27.125 C 2239.8292,24.311267 2239.1208,25.874087 2242.125,29.9375 2243.3652,31.614879 2244.8163,33 2245.3438,33 2246.6442,33 2255.2448,25.90094 2254.6562,25.3125 z M 2219.6875,28.3125 C 2220.3096,28.20513 2220.8279,28.436845 2221.4688,28.96875 2223.5922,30.731096 2223.3913,33.608682 2221,36 2218.5767,38.423311 2217.6413,38.485012 2215.5312,36.375 2213.3889,34.232634 2213.9173,32.150064 2217.2188,29.6875 2218.3395,28.851539 2219.0654,28.41987 2219.6875,28.3125 z M 2179,29 C 2181.2907,29 2185,32.319703 2185,34.375 2185,36.073983 2180.7726,37.000568 2178.5938,35.78125 2177.6955,35.278583 2177,33.598603 2177,31.9375 2177,29.653857 2177.4519,29 2179,29 z M 2167.4375,69.5 2167.625,72.3125 C 2170.101,72.179267 2173.1532,70.93496 2178.0625,67.96875 2186.1862,63.060335 2187.3016,63.192313 2190.4688,69.5625 2192.5997,73.848645 2192.8229,82.309121 2190.875,84.65625 2189.3973,86.436747 2186.5813,86.339036 2182.8438,84.40625 2179.9405,82.904951 2179.675,82.964256 2177.375,85.125 2175.1328,87.231436 2174.5678,87.31812 2169.7188,86.3125 2161.5118,84.610522 2161.8478,86.919318 2170.125,89.125 2174.3313,90.24587 2174.9775,90.173762 2177.3438,88.3125 2179.7947,86.384646 2180.2161,86.349989 2184.4688,87.75 2190.0403,89.584247 2191.6737,88.976947 2193.5312,84.53125 2195.3216,80.246325 2195.3948,74.682743 2193.6875,69.78125 2190.9573,61.943234 2186.5486,60.144979 2180,64.15625 2172.6885,68.634798 2170.0163,70.003811 2167.4375,69.5 z M 2245.0625,89.0625 C 2244.4482,89.161778 2243.5393,89.635394 2242.4375,90.46875 2241.3699,91.276258 2241.0138,91.951258 2241.6562,91.96875 2243.5561,92.020469 2246,90.868083 2246,89.90625 2246,89.250967 2245.6768,88.963222 2245.0625,89.0625 z M 2258.75,33.4375 2258.625,32 C 2254.7858,33.681266 2252.3635,36.979922 2247.5625,46.21875 2241.3719,58.131729 2235.9107,66.399805 2233.2188,67.90625 2232.1333,68.513724 2229.9827,68.180451 2226.75,66.90625 2224.0925,65.858747 2220.8601,65 2219.5625,65 2215.6731,65 2208,75.247912 2208,80.4375 2208,81.261027 2209.3868,83.524612 2211.0938,85.46875 2214.8025,89.692772 2218.2762,90.052824 2223.9062,86.8125 L 2227.6875,84.625 2231.4062,86.8125 C 2235.9236,89.477831 2237.7759,89.508437 2241,87.03125 2244.0396,84.69575 2243.2157,83.486214 2239.6875,85.09375 2237.597,86.046232 2236.4535,85.952399 2233.6562,84.625 2229.3997,82.605106 2225.637,82.540346 2224.0625,84.4375 2223.4072,85.227147 2221.506,86.166156 2219.8438,86.53125 2217.3814,87.072063 2216.2759,86.676546 2213.9062,84.40625 2209.5703,80.25213 2210.4438,74.640917 2216.25,69.21875 L 2218.6562,66.96875 2225.3125,69.03125 C 2231.3035,70.881666 2232.2328,70.911559 2234.7812,69.59375 2238.398,67.723416 2243.6384,59.865457 2249.5312,47.375 2253.6743,38.593453 2255.9605,35.022329 2258.75,33.4375 z M 2160.3438,89.6875 C 2159.2614,90.102792 2159.6067,90.69476 2161.6875,91.96875 2163.3455,92.983913 2164.6461,93.28439 2164.875,92.6875 2165.4287,91.243693 2162.0797,89.021312 2160.3438,89.6875 z M 2203.375,90.21875 C 2202.122,90.446292 2200.9217,91.507921 2198.9375,93.5625 2195.0582,97.579452 2192.2152,97.694067 2187.2188,94 2183.4021,91.178189 2177.4382,90.313751 2175.2188,92.25 2174.2686,93.078802 2171.8837,94.488737 2169.9062,95.40625 2166.5799,96.949599 2165.9564,96.960517 2161.5625,95.46875 2158.9504,94.581902 2156.5464,94.109889 2156.2188,94.4375 2154.8386,95.817704 2159.2182,98.308551 2163.8125,98.75 2167.9779,99.150243 2169.3901,98.823141 2172.625,96.625 2177.2955,93.451287 2180.3861,93.331771 2185,96.15625 2186.925,97.334669 2189.625,98.640249 2191,99.0625 2192.375,99.484751 2193.7587,99.858976 2194.0938,99.90625 2194.4289,99.953524 2196.7186,98.239457 2199.1562,96.09375 L 2203.5938,92.1875 2207.5312,94.59375 C 2212.0445,97.325516 2220.2634,97.865967 2223.5312,95.65625 2227.5385,92.946497 2228.8094,93.076426 2233.375,96.5625 2236.5984,99.023772 2238.9076,100 2241.5,100 2245.4187,100 2249,98.542997 2249,96.9375 2249,96.28296 2248.3286,96.291181 2247.0625,96.96875 2243.7467,98.743338 2240.4163,98.105928 2236.4688,94.96875 2231.1343,90.729518 2228.655,90.334464 2223.5938,92.9375 2218.7218,95.443271 2213.8437,95.106295 2208.1875,91.875 2205.9372,90.58938 2204.628,89.991208 2203.375,90.21875 z"/>
</svg>
