<?xml version="1.0" encoding="UTF-8"?>
<svg xmlns="http://www.w3.org/2000/svg" viewBox="1145.91 73.11 36.08 31.85">
  <path d="M 1148.8438,86.71875 1147.9062,88.34375 1148.6562,88.625 C 1152.4149,90.060392 1153.5883,91.119494 1154.7812,94.15625 1157.4643,100.98683 1165.7931,102.96111 1172.625,98.40625 1177.8162,94.945219 1179.9419,92.086228 1179.9688,88.625 1179.989,86.006966 1179.7616,85.824962 1177.25,86.40625 1175.7375,86.756309 1172.7502,87.311362 1170.625,87.65625 1166.9199,88.257516 1166.7991,88.204584 1167.4375,85.90625 1168.0762,83.607122 1168.0347,83.566579 1166.5625,85.40625 1165.42,86.83392 1165.3021,87.664715 1166.125,88.65625 1167.323,90.099739 1171.5911,90.486983 1172.375,89.21875 1173.0123,88.187546 1179.0117,87.731159 1178.9688,88.71875 1178.8318,91.872759 1168.7052,98 1163.625,98 1160.7134,98 1157.0191,95.304339 1157,93.1875 1156.9727,90.169225 1155.3695,88.863242 1149.4375,86.90625 L 1148.8438,86.71875 z M 1151.6875,81.875 C 1152.2758,82.388897 1152.7385,82.864127 1153.5312,83.46875 L 1157.1875,86.25 1160.0625,82.75 C 1162.9211,79.281931 1168.4891,76.176601 1169.6875,77.375 1170.0342,77.721707 1169.815,79.122676 1169.1875,80.5 1167.6834,83.801193 1168.1283,83.641517 1170.8438,79.96875 L 1173.0938,76.96875 1170.7812,76.09375 C 1168.1703,75.110766 1164.9852,76.446592 1160.0938,80.5625 L 1156.9688,83.21875 1153.4688,80.5625 C 1153.1772,80.340136 1153.03,80.19815 1152.7812,80 L 1151.6875,81.875 z"/>
</svg>
