<?xml version="1.0" encoding="UTF-8"?>
<svg xmlns="http://www.w3.org/2000/svg" viewBox="704.88 17.1 42.96 85.8">
  <path d="M725.43361 86.75C725.61996 80.0125 726.10944 65.421358 726.52135 54.325239L727.27027 34.150479L722.62933 29.575239C720.07681 27.058858 717.61631 25.0 717.16156 25.0C716.7068 25.0 714.91662 26.764641 713.18339 28.921426L710.03204 32.842851L710.91581 48.171426C711.40189 56.602141 712.0903 64.802652 712.44561 66.394783C713.4257 70.786565 713.83626 98.0 712.92242 98.0C711.83582 98.0 711.08243 91.723058 710.52192 78.0C710.26358 71.675 709.61998 63.125 709.0917 59.0C708.56342 54.875 707.84859 47.410451 707.5032 42.412113L706.87522 33.324227L712.02416 27.162113C714.85607 23.772951 717.32848 21.0 717.51839 21.0C717.7083 21.0 720.46016 23.475 723.63364 26.5C726.80711 29.525 729.65488 32.0 729.96201 32.0C730.26914 32.0 731.66651 30.937303 733.06726 29.638452C734.46801 28.3396 736.62968 26.733373 737.87096 26.069058C740.65781 24.577585 742.66641 25.960792 744.66832 30.75C745.83247 33.535012 745.8108 34.517066 744.51682 37.613998C743.19723 40.772215 742.65955 41.164982 740.2534 40.728345C738.73903 40.453538 736.05467 39.635065 734.28817 38.909516C732.52166 38.183967 730.84691 37.819761 730.5665 38.100169C730.28609 38.380577 729.81645 45.110252 729.52286 53.055001C729.22927 60.99975 728.54913 70.185696 728.01144 73.468213C727.47375 76.75073 727.3084 81.772623 727.64399 84.627975C728.32955 90.461027 727.34455 99.0 725.98613 99.0C725.49443 99.0 725.24671 93.507679 725.43361 86.75Z M718.07076 78.466598C718.1021 67.723227 717.84827 52.985727 717.50668 45.716598C717.07927 36.620899 717.20201 32.99429 717.90033 34.085294C718.78226 35.463151 720.26175 60.940865 720.21818 74.0C720.15572 92.720011 719.88924 98.0 719.00689 98.0C718.38136 98.0 718.03487 90.770103 718.07076 78.466598Z M743.0 34.654988C743.0 32.594437 742.24185 30.623861 741.02562 29.523189C739.19646 27.867823 738.87106 27.854464 736.60147 29.34156C731.12627 32.929048 732.94113 37.901567 739.75 37.968197C742.77527 37.997801 743.0 37.768705 743.0 34.654988Z"/>
</svg>
