<?xml version="1.0" encoding="UTF-8"?>
<svg xmlns="http://www.w3.org/2000/svg" viewBox="1329.15 16.88 62.72 90.54">
  <path d="M1366.9908 100.48893C1365.9757 99.265809 1366.0643 98.120036 1367.4559 94.47621C1369.1615 90.010304 1369.155 89.940275 1366.6452 85.657556C1362.5417 78.65549 1361.8457 78.462007 1358.1061 83.283678C1355.0465 87.228537 1354.8755 87.860574 1355.4507 93.100392C1356.4789 102.46707 1352.5816 103.3099 1346.0975 95.123084C1342.3473 90.388139 1342.1809 87.175912 1345.5 83.594501C1346.875 82.110851 1348.0 80.652108 1348.0 80.352849C1348.0 80.053589 1348.9304 78.502083 1350.0676 76.905057C1352.643 73.288216 1352.0513 71.389548 1347.0594 67.252692L1343.1409 64.005384L1341.0487 66.665174C1339.898 68.128058 1338.7413 70.376847 1338.4783 71.662482C1338.2152 72.948117 1337.7664 75.125 1337.4809 76.5C1337.1955 77.875 1336.3113 79.0 1335.5161 79.0C1333.2518 79.0 1332.0 75.627172 1332.0 69.525903C1332.0 63.379645 1334.1985 57.999296 1338.2573 54.212291C1340.412 52.201896 1341.2044 52.035852 1344.7946 52.842512C1347.0416 53.347373 1350.0849 54.708211 1351.5575 55.866596C1355.0751 58.633491 1356.0029 57.863492 1355.9863 52.190983C1355.9651 44.903383 1355.1693 43.002087 1352.1334 42.986345C1345.4054 42.951459 1343.2459 40.709662 1344.4889 35.050454C1345.4201 30.810808 1356.0421 21.0 1359.7011 21.0C1361.2897 21.0 1364.3761 27.582434 1363.4728 29.044018C1362.088 31.284598 1365.8672 29.748007 1368.5 27.0C1371.5568 23.809336 1374.7156 23.095187 1375.5982 25.395185C1376.744 28.38121 1373.8859 34.933851 1369.4442 39.503972L1364.9268 44.152126L1365.9634 49.759723C1366.5335 52.843901 1367.0 55.509672 1367.0 55.683659C1367.0 56.63784 1369.9341 55.784318 1370.978 54.526462C1372.5043 52.687394 1378.3269 51.523393 1380.3436 52.654175C1381.1733 53.119379 1383.071 55.296768 1384.5607 57.492818C1388.3258 63.043136 1389.0152 72.090299 1386.0337 76.823362C1383.0035 81.633625 1381.4988 80.439972 1381.5066 73.232213C1381.5103 69.888874 1381.3603 67.306397 1381.1733 67.493375C1380.9863 67.680352 1379.9708 66.970833 1378.9167 65.916667C1376.2391 63.239068 1374.4788 63.518827 1371.9872 67.017974L1369.8382 70.035947L1373.3317 74.898668C1379.2092 83.079739 1380.2847 85.744604 1379.0908 89.169333C1377.6771 93.224774 1371.1432 102.0 1369.5373 102.0C1368.8265 102.0 1367.6806 101.32002 1366.9908 100.48893Z M1373.579 95.231974C1378.9432 88.730155 1378.6616 85.037382 1372.112 75.995945C1370.4004 73.633133 1369.0 70.901967 1369.0 69.926687C1369.0 67.225055 1373.8764 62.0 1376.3978 62.0C1380.6672 62.0 1382.3211 64.291551 1382.7967 70.865622C1383.4968 80.544892 1385.9581 77.906953 1385.9863 67.447003C1385.9974 63.361587 1385.409 61.590335 1382.9135 58.197003C1379.2927 53.273511 1377.2073 52.95868 1371.5 56.473914C1369.3 57.828931 1367.1944 58.951625 1366.821 58.96879C1365.7696 59.017111 1363.0 48.6177 1363.0 44.621773C1363.0 41.739677 1363.5302 40.776025 1365.75 39.623149C1369.2199 37.821046 1372.8657 32.921703 1373.6482 29.009155C1374.5074 24.712956 1372.3554 25.112068 1367.802 30.093387C1365.7441 32.344749 1363.4842 33.99491 1362.7802 33.760411C1362.0466 33.516091 1361.4609 31.623481 1361.4083 29.327738C1361.2357 21.779936 1358.4671 21.014654 1352.083 26.75C1344.8556 33.242932 1345.4564 41.858711 1353.031 40.343796C1355.2455 39.900898 1356.0803 40.269329 1357.1087 42.143442C1358.4833 44.648636 1358.8188 59.866169 1357.5448 61.927475C1357.0523 62.724314 1355.4072 61.935776 1352.3702 59.447186C1349.5752 57.156856 1346.4784 55.605604 1344.0515 55.280081C1340.4208 54.793105 1339.9969 55.021586 1337.0927 59.030796C1334.7796 62.223903 1334.0 64.381712 1334.0 67.591022C1334.0 72.978189 1335.2748 73.894478 1336.8209 69.618662C1337.4722 67.81749 1339.1114 65.304557 1340.4634 64.034366C1342.6846 61.947704 1343.2166 61.847078 1345.9788 62.991217C1347.6602 63.687677 1350.4103 65.992818 1352.0901 68.113753C1355.7144 72.689759 1355.4754 74.131663 1349.8602 81.568881C1347.7371 84.380952 1346.0122 87.540846 1346.0271 88.590869C1346.0531 90.424865 1352.7561 98.577267 1353.5693 97.764002C1353.7871 97.546264 1353.4543 96.014649 1352.8299 94.360413C1351.4235 90.634259 1352.1844 87.379252 1355.3703 83.493574C1356.7202 81.847108 1358.7529 79.375 1359.8874 78.0L1361.95 75.5L1365.4911 79.5C1371.5736 86.370731 1372.2569 88.233424 1370.5219 93.214484C1368.0263 100.37893 1368.8721 100.93709 1373.579 95.231974Z"/>
</svg>
