<?xml version="1.0" encoding="UTF-8"?>
<svg xmlns="http://www.w3.org/2000/svg" viewBox="2322 20.85 39.53 84.87">
  <path d="M2337.2534 99.75C2336.7081 99.0625 2335.6914 96.025 2334.994 93.0C2333.6274 87.071583 2330.7232 80.746714 2326.5937 74.705591C2325.1672 72.618666 2324.0 70.182056 2324.0 69.290901C2324.0 67.622758 2331.2584 53.672845 2333.5171 51.0C2334.32 50.049979 2334.6263 47.666737 2334.3525 44.5C2333.3453 32.847798 2333.5062 27.091512 2334.8753 25.7987C2336.0318 24.706635 2336.1376 24.977327 2335.5402 27.5C2334.4335 32.173039 2334.7906 36.031525 2336.5831 38.767209C2339.0158 42.479924 2337.8953 47.368797 2332.6098 56.102914C2326.2813 66.560532 2325.9421 68.876504 2329.9904 73.98793C2333.8301 78.835929 2336.6451 85.843642 2337.5781 92.877213C2338.0281 96.26983 2338.7291 98.0 2339.6536 98.0C2341.3545 98.0 2343.0 93.964416 2343.0 89.792713C2343.0 85.271303 2339.1089 72.979004 2337.4797 72.353839C2334.3306 71.145405 2334.8297 67.984404 2339.2369 61.226458C2341.6495 57.526906 2344.1667 53.15 2344.8306 51.5C2345.6821 49.383631 2347.5785 47.763641 2351.2688 46.0C2356.6729 43.417379 2358.7502 39.724625 2355.8375 37.878403C2354.8072 37.225325 2354.8975 37.027109 2356.2309 37.015313C2358.4617 36.995579 2359.5263 41.148032 2358.0147 43.972547C2357.3792 45.159903 2354.9007 46.970945 2352.5068 47.997084C2349.1285 49.445176 2347.7019 50.829459 2346.1331 54.181396C2345.0215 56.556628 2342.863 60.603956 2341.3365 63.175458L2338.561 67.850915L2341.2269 73.675458C2346.7664 85.778277 2347.1349 90.809602 2342.9747 97.541006C2340.7392 101.15805 2338.9257 101.85827 2337.2534 99.75Z M2340.1407 42.669583C2338.8045 41.059526 2340.0762 28.523844 2341.745 26.854997C2342.5406 26.059381 2342.5772 26.935625 2341.8782 30.046628C2341.0082 33.918819 2341.2117 37.169778 2342.642 42.25C2343.2233 44.314369 2341.7157 44.567265 2340.1407 42.669583Z M2347.2 40.8C2345.3622 38.962172 2345.7695 33.372176 2348.0698 28.863257C2349.2081 26.63187 2350.3599 25.026537 2350.6292 25.29585C2350.8985 25.565164 2350.1921 27.514607 2349.0594 29.627946C2347.9267 31.741286 2347.0 34.174546 2347.0 35.035191C2347.0 37.168033 2348.9972 39.0 2351.3224 39.0C2352.9179 39.0 2353.0331 39.255134 2352.0 40.5C2350.4971 42.310876 2348.8159 42.415948 2347.2 40.8Z"/>
</svg>
