<?xml version="1.0" encoding="UTF-8"?>
<svg xmlns="http://www.w3.org/2000/svg" viewBox="3325.83 15.18 47.64 92.54">
  <path d="M 3331.0312 79.625 L 3332.3438 88.40625 L 3332.375 90.6875 C 3332.9823 91.237557 3333.5807 92.018915 3334 93.03125 C 3335.3532 96.298088 3338.7326 99.049381 3343.5 100.8125 C 3350.79 103.50855 3359.9974 98.104995 3360.3438 90.90625 C 3360.45 88.697564 3360.0763 87.593364 3359.2812 87.75 C 3358.6088 87.88249 3355.9501 88.058846 3353.375 88.15625 C 3347.1802 88.390565 3345.0001 85.885996 3345.0312 78.625 C 3345.0553 72.996428 3348.0945 65 3350.2188 65 C 3350.9479 65 3353.9471 66.8 3356.875 69 C 3359.8029 71.2 3362.7076 73 3363.3438 73 C 3363.9799 73 3366.9789 70.953523 3370 68.46875 C 3370.3629 68.170267 3370.669 67.997988 3371.0312 67.71875 L 3371.0938 65.25 C 3369.7291 66.530866 3367.9612 67.992559 3366.625 68.6875 C 3363.8292 70.141548 3363.5277 70.058151 3357.9062 66.09375 C 3354.7102 63.839796 3351.6998 62 3351.2188 62 C 3350.0546 62 3346.5685 65.885548 3344.9375 69 C 3342.8243 73.035 3342.0882 80.140177 3343.3438 84.25 C 3344.6469 88.515088 3347.5894 90 3354.6562 90 C 3359.9649 90 3360.3613 91.763721 3356.0625 96.0625 C 3352.3529 99.772167 3346.8367 100.05152 3341.9375 96.75 C 3333.8742 91.316124 3332.6584 82.424634 3337.9688 68 C 3344.015 51.576826 3344.4314 47.525343 3340.25 45.875 C 3335.5226 44.00918 3334.6675 43.412622 3332.6562 40.71875 C 3330.7703 38.192718 3330.7533 37.952984 3332.4062 33.625 C 3334.3275 28.594334 3340.9384 22 3344.0625 22 C 3345.9768 22 3346.0521 22.385097 3345.4062 28.09375 C 3344.8744 32.795094 3345.0224 34.415341 3346.0938 35.09375 C 3348.2926 36.486215 3349.4051 36.208344 3354.0938 33.03125 C 3356.514 31.391259 3358.8375 30.041259 3359.25 30.03125 C 3359.6625 30.021242 3360 31.319197 3360 32.9375 C 3360 35.261785 3358.8446 36.874102 3354.5 40.625 C 3350.2231 44.317392 3349 46.02685 3349 48.25 C 3349 52.491165 3351.5704 56.664066 3356.2188 60.03125 C 3361.1327 63.590947 3362.7665 63.3302 3368.625 57.96875 C 3369.4251 57.236549 3370.2973 56.776568 3371.25 56.03125 L 3371.3125 54.09375 C 3369.6073 55.265288 3367.8005 56.512531 3366.5 57.40625 C 3364.4424 58.820236 3362.1663 59.586221 3361 59.28125 C 3358.1884 58.54598 3352 51.384877 3352 48.875 C 3352 47.659098 3354.0571 44.839818 3356.875 42.15625 C 3362.4468 36.850142 3364.4257 30.988165 3361.5938 28.15625 C 3360.1815 26.743948 3359.5829 26.912667 3355.4688 29.8125 C 3352.9707 31.573329 3350.0575 33 3348.9688 33 C 3347.1622 33 3347.0461 32.519674 3347.625 27.59375 C 3348.1872 22.810208 3348.0131 22.070763 3346.1875 21.09375 C 3342.9903 19.382656 3342.2729 19.66968 3336.875 24.71875 C 3331.6711 29.586406 3328 35.429274 3328 38.875 C 3328 41.806763 3332.6341 46.77138 3336.0938 47.53125 C 3341.2961 48.673859 3341.2007 50.322331 3334.6875 69.5 L 3331.2812 79.5 L 3331.0312 79.625 z "/>
</svg>
