<?xml version="1.0" encoding="UTF-8"?>
<svg xmlns="http://www.w3.org/2000/svg" viewBox="2458.79 18.99 43.45 87.58">
  <path d="M2474.6179 99.386301C2470.0654 96.292851 2466.1822 88.494658 2462.891 75.836628C2460.9477 68.362533 2460.7901 65.93887 2461.3678 52.411234C2462.0601 36.199699 2464.2038 26.790059 2467.3445 26.176676C2468.6455 25.92258 2469.0123 26.671975 2469.0573 29.676676C2469.1922 38.666239 2470.046 49.855446 2470.9516 54.5C2471.4879 57.25 2472.4383 63.167831 2473.0638 67.650736C2474.2208 75.942815 2477.0732 82.432559 2479.2799 81.793241C2481.4286 81.170723 2487.439 67.645148 2489.3585 59.112783C2490.7041 53.131524 2491.041 49.008957 2490.5791 44.175712C2490.0856 39.012694 2490.1962 37.915451 2491.0669 39.333437C2492.6762 41.954067 2491.6368 57.101129 2489.3056 65.0C2488.2506 68.575 2486.0504 74.2 2484.4163 77.5C2481.7921 82.799643 2481.102 83.5 2478.5044 83.5C2474.5241 83.5 2471.8013 78.529769 2470.1796 68.304035C2469.499 64.011816 2468.4601 58.349177 2467.871 55.720392C2467.282 53.091608 2466.783 45.891608 2466.7623 39.720392C2466.7147 25.553204 2465.1794 29.443614 2464.4814 45.5C2464.2184 51.55 2463.7661 58.304791 2463.4762 60.510647C2462.3082 69.399889 2470.3195 92.514651 2476.225 97.294354C2479.6796 100.09045 2479.874 100.12868 2482.3582 98.500979C2485.7306 96.2913 2491.2853 81.610427 2494.6035 66.136974C2496.7011 56.355434 2497.0692 33.498093 2495.1823 30.189235C2493.3964 27.057487 2491.569 27.919169 2491.1787 32.077012C2491.002 33.959655 2490.4025 35.95 2489.8464 36.5C2489.1657 37.173367 2489.0605 35.866834 2489.5243 32.5C2490.5596 24.98455 2494.5787 22.969828 2496.8617 28.821855C2500.1068 37.14031 2500.2394 40.658818 2498.055 60.5C2496.3777 75.735306 2489.0361 95.466654 2483.393 99.905474C2479.9851 102.58619 2479.2642 102.54354 2474.6179 99.386301Z"/>
</svg>
