<?xml version="1.0" encoding="UTF-8"?>
<svg xmlns="http://www.w3.org/2000/svg" viewBox="1026.22 21.06 83.2 89.99">
  <path d="M 1055.8438,25.25 C 1055.7136,25.148448 1055.4461,25.243634 1055.0312,25.5 1053.9362,26.17672 1039,48.418228 1039,49.375 1039,52.547331 1046.7417,42.808934 1052.875,31.90625 1055.324,27.552927 1056.2343,25.554656 1055.8438,25.25 z M 1076.5312,25.53125 C 1076.5767,25.210047 1075.9771,25.784813 1074.7812,27 1071.6048,30.2278 1059.6252,49.081463 1053.8125,60 1051.3236,64.675 1048.252,70.3 1047,72.5 1045.7481,74.7 1042.5031,80.512538 1039.7812,85.40625 1037.0593,90.299962 1033.7369,96.017142 1032.4062,98.125 1031.0757,100.23285 1030,102.18282 1030,102.46875 1030,102.75468 1030.4222,103 1030.9375,103 1032.6113,103 1042.8265,86.434661 1051.125,70.28125 1055.583,61.603508 1060.317,53.063303 1061.625,51.3125 1062.933,49.561697 1064,47.911735 1064,47.65625 1064,47.400765 1065.7179,44.337462 1067.8125,40.84375 1069.9071,37.350038 1072.89,32.25 1074.4375,29.5 1075.8051,27.069626 1076.4858,25.852453 1076.5312,25.53125 z M 1094.7812,25.8125 C 1094.5927,25.246648 1093.2746,26.501409 1091.875,28.625 1088.9607,33.046722 1071.5431,61.809455 1064.625,73.59375 1063.0373,76.298282 1060.2932,80.75 1058.5312,83.5 1056.7693,86.25 1053.4,91.9875 1051.0625,96.25 1048.725,100.5125 1047.2356,104 1047.75,104 1049.3681,104 1051.3195,101.08099 1065,78 1072.3349,65.625 1080.1579,52.607819 1082.4062,49.0625 1090.1127,36.910431 1095.262,27.254634 1094.7812,25.8125 z M 1101.1562,48.59375 C 1100.669,48.292685 1097.9705,52.209403 1095.125,57.28125 1086.5363,72.58963 1084.9724,75.231845 1080.5312,82 1073.7625,92.315681 1067,103.77191 1067,104.9375 1067,106.95339 1068.5008,105.97242 1070.75,102.5 1071.9875,100.58952 1073,98.808165 1073,98.53125 1073,98.254334 1074.8007,95.418299 1077,92.25 1079.1993,89.081702 1080.9993,85.9375 1081,85.25 1081.0007,84.5625 1081.4299,84 1081.9688,84 1082.5075,84 1083.8854,82.3125 1085.0312,80.25 1086.1771,78.1875 1088.2723,74.475 1089.6562,72 1098.1676,56.779054 1101.9322,49.073301 1101.1562,48.59375 z M 1104.0312,75 C 1102.7357,75 1085,102.63786 1085,104.65625 1085,104.92614 1085.7379,104.99033 1086.6562,104.8125 1087.5746,104.63468 1089.2937,102.7 1090.4688,100.5 1094.836,92.323205 1098.1074,86.75634 1101.5,81.71875 1105.1437,76.308153 1105.6399,75 1104.0312,75 z"/>
</svg>
