<?xml version="1.0" encoding="UTF-8"?>
<svg xmlns="http://www.w3.org/2000/svg" viewBox="817.71 17.39 20.81 88.64">
  <path d="M 833.0625 46.15625 C 833.02123 46.044635 832.83165 45.850151 832.8125 45.75 C 832.56329 44.446304 832.65163 40.789959 833 37.625 C 833.34837 34.46004 833.3701 29.992095 833.0625 27.6875 C 832.50419 23.504567 832.49136 23.498539 827.15625 22.59375 C 820.20764 21.415328 819.71464 22.179885 820.625 32.5 C 821.66965 44.342485 821.80664 49.146607 822 75.5 C 822.10818 90.244831 822.58511 99.98204 823.21875 100.75 C 823.78601 101.4375 826.43045 102 829.09375 102 C 834.58119 102 836.52713 99.944759 835.59375 95.1875 C 835.30333 93.707259 834.78789 86.371545 834.4375 78.875 C 834.02661 70.083916 834.0299 66.097634 834.96875 64.84375 L 834.84375 64.375 L 834 56.25 L 832.96875 46.46875 L 833.0625 46.15625 z M 821.71875 24.6875 L 825.9375 25.25 C 828.26086 25.561628 830.34327 25.999521 830.5625 26.21875 C 830.78173 26.43798 830.99042 37.833602 831.03125 51.53125 C 831.07209 65.228898 831.43048 75.948613 831.8125 75.34375 C 832.19451 74.738887 832.59167 80.040771 832.71875 87.125 L 832.96875 100 L 828.9375 100 C 826.60804 100 824.76401 99.4757 824.53125 98.75 C 824.31074 98.0625 823.87719 83.55 823.5625 66.5 C 823.24781 49.45 822.69423 33.064122 822.34375 30.09375 L 821.71875 24.6875 z "/>
</svg>
