<?xml version="1.0" encoding="UTF-8"?>
<svg xmlns="http://www.w3.org/2000/svg" viewBox="3532.24 16.85 84.78 92.35">
  <path d="M3576.2388 102.62473C3575.4991 101.00139 3575.464 98.881261 3576.1277 95.927378C3577.0695 91.735575 3576.9896 91.505288 3573.4777 88.28794C3571.4861 86.463399 3569.4778 85.204704 3569.0148 85.490839C3568.5518 85.776975 3567.1991 88.023089 3566.0086 90.482205C3562.8808 96.943433 3558.5058 100.34377 3554.2161 99.647641C3549.5286 98.88696 3548.0 97.331979 3548.0 93.324126C3548.0 89.816453 3552.3676 83.000089 3554.6151 83.000029C3556.726 82.999974 3560.7591 79.04062 3561.2467 76.489753C3561.9873 72.615719 3555.3316 64.097067 3550.3912 62.595703C3547.4872 61.713194 3546.3706 63.476255 3545.5534 70.234237C3544.4688 79.203652 3541.736 78.985321 3538.666 69.683982C3536.0961 61.897777 3538.1894 54.23383 3543.5895 51.658707C3548.0174 49.54718 3550.1409 49.567532 3553.1151 51.75C3557.2398 54.776691 3561.6942 56.972429 3562.3597 56.306983C3563.5175 55.149118 3563.0276 47.135352 3561.75 46.334338C3561.0625 45.903305 3559.375 45.397415 3558.0 45.210137C3554.4737 44.729852 3551.0 41.139801 3551.0 37.975724C3551.0 34.850225 3555.924 27.628745 3559.2186 25.922368C3561.3569 24.814874 3561.3347 24.92135 3558.8642 27.62039C3551.6683 35.481768 3552.3695 42.239661 3560.4768 43.161515C3564.2871 43.594763 3565.9659 46.83138 3565.9853 53.781385C3566.0011 59.470172 3564.2694 61.393687 3561.1141 59.192105C3554.2867 54.428426 3548.7056 51.857076 3546.432 52.427705C3541.9678 53.548149 3540.0 56.49682 3540.0 62.065741C3540.0 67.903933 3541.6709 72.129269 3543.0922 69.8851C3543.5746 69.123295 3543.9763 67.314254 3543.9847 65.86501C3544.0073 61.969123 3548.1079 59.546355 3552.3053 60.94889C3555.6261 62.058524 3560.8787 66.904841 3562.8568 70.684259C3565.4072 75.557276 3563.4547 80.947668 3558.1581 83.655877C3551.408 87.10729 3548.413 92.588944 3551.4462 95.9406C3555.6626 100.59959 3560.2265 98.324225 3564.6015 89.381981C3566.1004 86.318404 3567.8931 83.594526 3568.5852 83.328917C3570.2461 82.691581 3573.3134 84.396276 3577.013 88.012724C3579.8887 90.823808 3579.9747 91.150905 3578.9909 95.5408C3577.9821 100.04228 3578.2777 102.0 3579.9664 102.0C3580.433 102.0 3582.1805 99.221948 3583.8498 95.826552C3586.1388 91.170303 3586.6445 89.204206 3585.9072 87.826552C3585.3695 86.821948 3584.5765 86.0 3584.1448 86.0C3583.7132 86.0 3581.479 84.389935 3579.18 82.422077C3575.4229 79.20615 3575.0 78.388968 3575.0 74.345154C3575.0 70.705908 3575.5586 69.287557 3577.9231 66.923077C3581.5861 63.260066 3583.3425 63.265764 3590.2712 66.963131C3595.7292 69.875677 3595.8639 69.89484 3598.162 68.085641C3600.4758 66.264052 3605.7875 55.761205 3607.8143 49.0C3610.3294 40.609778 3610.4006 25.179111 3607.906 29.117872C3607.2591 30.139303 3607.0266 29.893678 3607.0153 28.176676C3607.0045 26.532219 3607.4923 25.948167 3608.685 26.177844C3610.852 26.595178 3613.1659 35.247958 3612.3812 40.0C3610.9183 48.859482 3604.3384 64.758636 3600.278 69.245327C3598.0385 71.719947 3594.3504 71.428639 3588.3863 68.306051C3583.423 65.707422 3583.1488 65.672487 3580.6364 67.318701C3574.8175 71.13138 3576.7873 78.927193 3584.7485 83.592738C3588.9287 86.042538 3589.1494 86.38994 3588.5512 89.578577C3588.202 91.440382 3586.5725 95.671849 3584.9303 98.981838C3582.5682 103.74267 3581.4614 105.0 3579.6327 105.0C3578.1697 105.0 3576.9237 104.12797 3576.2388 102.62473Z M3571.6924 60.25C3571.3133 59.582084 3571.4047 50.357729 3571.8361 45.748337C3571.9262 44.784922 3574.25 42.38021 3577.0 40.404532C3580.6796 37.760985 3582.0 36.160492 3582.0 34.343783L3582.0 31.875176L3577.1162 34.533286C3570.534 38.115776 3568.4825 37.623052 3568.5596 32.478131C3568.5924 30.290159 3568.9962 27.192676 3569.457 25.594835C3570.1983 23.023903 3570.0764 22.757524 3568.3974 23.279459C3562.4747 25.120499 3561.5121 25.259061 3562.5675 24.118592C3564.2557 22.294286 3569.6491 21.049132 3570.8146 22.214619C3571.4004 22.800374 3571.596 25.514608 3571.2759 28.615796C3570.7881 33.341762 3570.9405 34.0 3572.5222 34.0C3573.5134 34.0 3576.2826 32.852337 3578.6761 31.449639C3583.5078 28.61809 3585.0 28.895373 3585.0 32.624758C3585.0 36.263202 3583.7496 38.080749 3578.5945 41.935855C3574.1752 45.240689 3574.0 45.568 3574.0 50.519188C3574.0 53.350301 3574.2709 55.93752 3574.6019 56.268563C3574.9329 56.599607 3576.7793 56.119147 3578.705 55.200874C3582.1287 53.56818 3582.3143 53.591707 3587.1036 56.265644C3595.206 60.789374 3594.5964 61.347191 3602.146 42.5C3604.7898 35.9 3606.9634 31.22035 3606.9764 32.100777C3607.0312 35.820581 3599.2982 55.801208 3596.6625 58.75C3594.0392 61.684906 3590.3473 61.600054 3585.7852 58.5C3583.7617 57.125 3581.7197 56.0 3581.2473 56.0C3580.775 56.0 3578.8637 57.125 3577.0 58.5C3573.43 61.133828 3572.3888 61.477132 3571.6924 60.25Z"/>
</svg>
