<?xml version="1.0" encoding="UTF-8"?>
<svg xmlns="http://www.w3.org/2000/svg" viewBox="359.64 17.48 20.05 86.6">
  <path d="M 376.28125 48.09375 L 375.875 47.75 L 376.5625 36.4375 L 377.25 25.09375 L 374.875 24.625 C 361.77173 21.943638 362.05895 21.419938 361.8125 48.0625 C 361.63764 66.966113 362.65157 97.609683 363.5 99 C 364.19738 100.1428 375.31248 99.12571 376.125 97.84375 C 376.59246 97.106211 376.99158 89.1875 377 80.25 C 377.008 71.754542 377.30243 65.165601 377.6875 64.5 L 377.59375 63.90625 L 377.1875 59.1875 C 376.88301 58.809072 376.57326 58.39568 376.59375 58.15625 C 376.69388 56.986054 376.77638 56.185209 376.90625 55.53125 L 376.28125 48.09375 z M 369.625 27.1875 L 373.5 27.5 L 373.5 61.15625 C 373.5 79.673191 373.27613 95.067897 373 95.34375 C 371.96016 96.382554 367.20505 97.140975 366.71875 96.34375 C 364.4967 92.700978 362.72068 29.904315 364.78125 27.84375 C 365.3119 27.313097 367.49002 27.012478 369.625 27.1875 z "/>
</svg>
