<?xml version="1.0" encoding="UTF-8"?>
<svg xmlns="http://www.w3.org/2000/svg" viewBox="3973.56 19.01 70.09 87.67">
  <path d="M3998.3499 101.23469C3997.1466 100.46593 3996.682 98.720085 3996.8815 95.716667C3996.9467 94.735833 3998.575 92.358333 4000.5 90.433333C4002.425 88.508333 4004.0 86.269058 4004.0 85.457166C4004.0 83.002278 3995.218 67.589439 3993.0594 66.255717C3991.2608 65.144483 3990.865 65.35834 3989.3577 68.255717C3988.0351 70.79808 3987.6315 74.585047 3987.4925 85.759125C3987.3949 93.601644 3987.0491 100.2842 3986.7241 100.60926C3985.5735 101.75982 3983.8651 99.751927 3981.5603 94.540371C3976.745 83.652189 3977.4035 69.695905 3983.2515 58.694903C3988.0092 49.744944 3990.1786 49.338192 3999.3838 55.67026C4002.0956 57.535648 4004.8061 58.897953 4005.4072 58.697604C4006.0572 58.480946 4006.5 55.530511 4006.5 51.416667L4006.5 44.5L4001.7163 44.842921C3995.841 45.264091 3992.5175 43.337456 3991.6517 39.008515C3990.5504 33.501971 3997.2305 23.0 4001.8343 23.0C4002.5985 23.0 4005.4934 25.478101 4008.2676 28.506892L4013.3115 34.013784L4016.6557 32.040617C4018.4951 30.955376 4020.0 30.405251 4020.0 30.818118C4020.0 31.879982 4014.5021 35.0 4012.6309 35.0C4011.7726 35.0 4010.5496 33.9875 4009.913 32.75C4007.8877 28.812604 4003.7006 25.0 4001.4018 25.0C4000.1268 25.0 3998.0273 26.367228 3996.4818 28.203962C3994.1786 30.941252 3993.8599 32.06433 3994.2938 35.914502C3994.6315 38.910483 3995.5336 41.013635 3996.9849 42.188858C3998.976 43.801158 3999.4807 43.825996 4002.723 42.471256C4007.5309 40.462393 4008.6977 41.663956 4009.5355 49.486589C4010.3135 56.751427 4009.2199 61.203676 4006.5618 61.593808C4005.5554 61.741512 4001.7596 59.86833 3998.1267 57.431181C3994.4938 54.994031 3991.0382 53.0 3990.4478 53.0C3988.0788 53.0 3984.1966 58.860212 3982.498 65.0C3979.7905 74.786917 3980.7159 91.0 3983.982 91.0C3984.7861 91.0 3985.9774 82.65687 3985.9913 76.928139C3986.0028 72.203792 3988.7472 64.310988 3990.6295 63.588661C3993.9198 62.326074 3997.4908 65.779777 4002.25 74.827542C4004.8625 79.79415 4007.0 84.768542 4007.0 85.881746C4007.0 87.03271 4005.3144 89.260326 4003.0923 91.046106C3998.7859 94.50678 3997.5094 97.347968 3999.5137 99.011333C4000.4985 99.828699 4001.6769 99.344613 4004.2924 97.0481C4008.0669 93.73412 4011.405 93.235376 4014.4411 95.531803C4016.7262 97.260119 4020.0 97.47364 4020.0 95.894356C4020.0 95.286252 4018.9034 93.485494 4017.5631 91.892673C4014.8804 88.704386 4014.8866 84.934657 4017.5865 77.730759C4021.6358 66.926577 4027.4569 62.655597 4029.8267 68.75C4032.0681 74.514163 4032.989 79.74705 4032.9944 86.75C4032.9975 90.7375 4033.3418 94.0 4033.7595 94.0C4035.6165 94.0 4037.2508 89.096123 4037.7269 82.095159C4038.1337 76.114977 4037.7907 73.011573 4036.1138 67.5C4032.2113 54.6731 4031.1855 53.947108 4024.2112 59.076061C4018.6488 63.166689 4016.6623 62.686364 4015.9105 57.069014C4015.0598 50.7134 4016.6021 44.061214 4019.8638 40.017616C4023.857 35.067224 4027.1464 34.882785 4029.9697 39.450974C4031.1803 41.409792 4032.5824 42.7581 4033.0854 42.447214C4034.5007 41.572523 4034.1647 31.607476 4032.6501 29.536116C4031.6219 28.129985 4030.5493 27.840131 4028.1501 28.319987C4026.4175 28.666494 4025.0 28.5675 4025.0 28.1C4025.0 27.6325 4026.4625 26.952668 4028.25 26.589262C4034.5889 25.300536 4037.6601 32.482018 4034.9474 42.25C4034.3746 44.3125 4033.4828 46.0 4032.9655 46.0C4032.4483 46.0 4030.8888 44.2 4029.5 42.0C4028.1112 39.8 4026.3713 38.0 4025.6335 38.0C4023.6534 38.0 4019.1379 42.510009 4017.9123 45.711691C4016.7989 48.620166 4017.533 58.593337 4018.9237 59.452847C4019.3548 59.719251 4021.8139 58.601344 4024.3884 56.968609C4026.963 55.335874 4029.7113 54.0 4030.4958 54.0C4035.4032 54.0 4040.4631 68.243313 4039.7814 80.138674C4039.2951 88.624004 4035.1701 99.0 4032.283 99.0C4030.9226 99.0 4030.8035 97.801312 4031.3908 90.021834C4032.0664 81.072538 4030.4874 71.65581 4027.7359 68.224772C4026.3981 66.556532 4023.9447 68.712237 4020.5089 74.574978C4017.1295 80.341621 4017.1262 86.623499 4020.5 91.595138C4025.655 99.191414 4022.7324 102.70155 4014.7156 98.542321C4012.0205 97.144044 4009.4688 96.0 4009.0452 96.0C4008.6216 96.0 4006.5763 97.35 4004.5 99.0C4000.4381 102.22795 4000.0982 102.35149 3998.3499 101.23469Z"/>
</svg>
