<?xml version="1.0" encoding="UTF-8"?>
<svg xmlns="http://www.w3.org/2000/svg" viewBox="1747.23 17.48 94.54 86.45">
  <path d="M 1837.2188,26.28125 C 1836.7734,26.309774 1836.3781,26.256616 1835.9062,26.3125 1831.7988,26.798979 1830.9662,26.588971 1829.6875,24.6875 1827.8186,21.908522 1826.6509,22.916976 1827.9062,26.21875 1829.0787,29.302532 1831.5012,30.34393 1834.1875,28.90625 1835.0313,28.454679 1836.1091,28.312508 1837.25,28.3125 L 1837.2188,26.28125 z M 1837.4375,39.46875 C 1834.0993,38.096241 1830.4046,42.801464 1827.0938,53 1822.0205,68.627241 1817.7245,70.722676 1806.5,63 1800.9989,59.215196 1798.8329,59.212985 1795.5938,63.0625 1792.4793,66.7637 1792.358,69.729971 1795,78 1796.1,81.443299 1797,85.246735 1797,86.46875 1797,88.929046 1793.3915,94.768501 1790.9062,96.3125 1788.4414,97.843856 1784.0323,96.219903 1780.2188,92.40625 1776.9443,89.131754 1776.7892,88.648466 1777.2188,83.46875 1777.5764,79.156119 1777.3529,78 1776.2188,78 1775.1689,78 1774.9649,78.710913 1775.4375,80.59375 1775.858,82.269181 1775.7057,82.948071 1775.0312,82.53125 1774.3789,82.12805 1774,83.327989 1774,85.78125 1774,90.689045 1777.3601,95.903067 1782.0312,98.25 1783.9454,99.211645 1786.4617,99.999145 1787.625,100 1792.3937,100.0035 1799,91.374159 1799,85.15625 1799,83.551507 1798.2767,80.55223 1797.4062,78.46875 1794.9955,72.699188 1795.0607,66.470464 1797.5625,63.96875 L 1799.6562,61.90625 1807.6875,66.09375 C 1814.5362,69.654017 1816.1638,70.114143 1818.625,69.3125 1822.5488,68.03446 1827.0041,61.131957 1829.9688,51.78125 1831.3071,47.559972 1833.1796,43.097059 1834.125,41.84375 1835.6263,39.853335 1836.006,39.85405 1837.4688,41.125 L 1837.4375,39.46875 z M 1803,22 C 1802.062,22 1799.6268,23.110325 1797.625,24.46875 L 1794,26.9375 1790.375,24.46875 C 1785.9839,21.488894 1785.5903,21.460085 1781.5312,23.96875 1778.3431,25.939145 1778.3337,25.939145 1774.4688,23.96875 1769.4508,21.410477 1766.5567,21.47661 1764.0312,24.1875 1761.4235,26.986649 1761.4665,29.466491 1764.125,32.125 1766.2266,34.22658 1768.3963,34.295751 1774.625,32.46875 1776.4578,31.931135 1776.8861,32.447965 1777.875,36.375 1779.0862,41.185178 1779.4234,51.264154 1778.4062,52.28125 1778.0713,52.616108 1776.0317,51.719022 1773.9062,50.3125 1768.514,46.744078 1761.0998,46.64104 1757.4375,50.0625 1756.0007,51.404894 1754.1789,53.702313 1753.4062,55.1875 1751.9119,58.059661 1751.5241,67.838043 1752.75,72 1753.251,73.701085 1753.6495,71.623906 1754,65.5 1754.4273,58.035187 1754.9341,55.937282 1756.9375,53.25 1758.2661,51.468034 1760.2328,49.739023 1761.2812,49.40625 1764.238,48.467797 1770.1883,49.934157 1773.5,52.40625 1782.0867,58.815919 1783.3608,55.303159 1779.875,34.65625 1779.0259,29.627255 1779.1178,28.537135 1780.5938,26.90625 1783.0438,24.198866 1786.4599,24.547794 1790.2188,27.90625 L 1793.4688,30.8125 1791.7188,36.15625 C 1789.4305,43.049957 1788.7423,52.267212 1790.375,54.5 1791.5288,56.078035 1791.9068,56.053091 1795.5625,54.09375 1797.7203,52.937196 1799.8132,52 1800.25,52 1800.6868,52 1803.2957,53.775202 1806.0312,55.9375 1809.058,58.329983 1811.8826,59.772053 1813.25,59.625 1819.1102,58.994758 1824.7215,51.590185 1826.9688,41.5625 1827.9339,37.25552 1827.8121,36.682935 1824.75,32 1820.646,25.72365 1818.9592,25.457585 1822.4062,31.625 1825.7406,37.590798 1825.6636,41.071869 1822.0312,48.75 1817.5296,58.26556 1814.8801,58.87796 1806.0938,52.46875 1802.1943,49.624286 1798.4257,49.316306 1795.2188,51.5625 1793.1882,52.984717 1792.9431,52.980471 1792.375,51.5 1791.5738,49.412173 1792.7822,37.271392 1794.0312,34.9375 1794.8347,33.436119 1795.8755,33.231776 1800.5938,33.71875 1806.8383,34.363247 1807.9737,33.602711 1808,28.59375 1808.0174,25.278227 1805.5373,22 1803,22 z M 1802.9062,24.03125 C 1803.4794,24.092901 1803.9045,24.572776 1804.5938,25.5 1805.4085,26.596009 1805.9395,28.396009 1805.7812,29.5 1805.5524,31.096588 1804.6255,31.565104 1801.1875,31.8125 1796.9889,32.114626 1796.8744,32.043654 1797.1875,29.34375 1797.3985,27.524466 1798.4755,26.033704 1800.3125,25.03125 1801.6183,24.318623 1802.3331,23.969599 1802.9062,24.03125 z M 1767.8125,24.1875 C 1769.0803,24.00778 1770.7678,24.371685 1771.5625,25.03125 1773.1482,26.347246 1773.563,31 1772.0938,31 1771.5888,31 1770.5763,31.165375 1769.8438,31.375 1766.6555,32.287444 1764.8756,30.872465 1765.1875,27.65625 1765.4233,25.22552 1766.0426,24.438401 1767.8125,24.1875 z M 1766.0625,57 C 1762.9677,57 1758.2633,61.034297 1757.4375,64.40625 1756.3043,69.032822 1755.3402,76.996422 1755.8438,77.5 1757.4182,79.074374 1758.5543,76.616573 1759,70.6875 1759.415,65.167083 1759.9742,63.586689 1762.2188,61.34375 1765.3797,58.185214 1767.2634,58.64925 1773.5,64.125 1776.9897,67.189042 1777.1978,67.696435 1776.7812,72.03125 1776.2092,77.984106 1778.5424,78.449161 1780.0938,72.6875 1781.0166,69.260546 1780.9026,68.324543 1779.25,66.09375 1776.0908,61.829307 1769.0819,57 1766.0625,57 z"/>
</svg>
