<?xml version="1.0" encoding="UTF-8"?>
<svg xmlns="http://www.w3.org/2000/svg" viewBox="460.85 23.64 55.65 80.8">
  <path d="M480.19868 97.25C476.97029 92.667795 473.99985 86.214931 474.00257 83.789838C474.00398 82.530427 475.57898 78.889964 477.50257 75.69992C481.79004 68.589654 481.90298 65.107042 478.06322 58.412537C475.37592 53.72733 474.89783 53.361381 472.01661 53.784254C469.70585 54.123402 468.24915 53.643242 466.44401 51.947403C463.4296 49.115508 463.37576 47.659479 466.18856 45.038955C469.01656 42.404278 471.79062 42.454668 474.70616 45.193676C476.86451 47.22134 477.16457 47.264001 478.67117 45.757403C480.17777 44.250804 480.1339 43.73874 478.09147 38.990991C476.87616 36.165937 476.07441 33.32476 476.3098 32.677264C476.54519 32.029769 477.33266 32.85 478.05973 34.5C479.76535 38.370667 482.97819 42.0 484.69906 42.0C486.49088 42.0 488.15904 37.414195 487.96342 33.026261C487.73805 27.971052 487.90813 27.310448 489.0 29.0C489.53316 29.825 489.97627 32.154839 489.98469 34.17742C489.9962 36.942064 490.6497 38.365895 492.61754 39.913795C494.05718 41.04622 495.58697 41.755269 496.01706 41.489458C496.44715 41.223648 497.34787 38.718392 498.01866 35.922222C498.75913 32.835587 499.59894 31.198937 500.1563 31.7563C500.70528 32.305275 500.71364 33.644286 500.17712 35.087161C499.68366 36.414222 498.97611 39.163195 498.60478 41.195988C498.03226 44.330178 498.25333 45.065212 500.05917 46.031666C501.82895 46.978826 502.58083 46.802967 504.50994 44.990658C506.61221 43.015684 507.09858 42.937731 509.6656 44.164347C512.67881 45.604174 513.96983 49.430165 512.08013 51.319871C511.48107 51.918931 508.92416 52.65453 506.3981 52.954536C502.11169 53.463609 501.71049 53.76686 500.3845 57.5C497.8168 64.728994 498.22012 67.991881 502.34776 73.383174C504.404 76.06892 506.78796 79.623059 507.64544 81.281259C509.14592 84.182863 509.07519 84.544283 505.76336 90.898085C503.34875 95.530565 501.7521 97.5 500.41111 97.5C498.80192 97.5 498.45124 96.641391 498.19133 92.065195C497.94747 87.771549 497.25776 85.881798 494.90655 83.065195C493.26969 81.104338 491.49274 78.952908 490.95778 78.28424C489.57311 76.553504 487.16864 77.773198 485.46301 81.071521C483.60875 84.657275 483.61024 87.102435 485.4682 89.55887C487.2031 91.852616 487.40835 95.368475 485.96482 98.065741C484.51939 100.76655 482.47221 100.47693 480.19868 97.25Z M473.00734 48.013706C471.6572 45.490946 470.51218 44.866227 468.59024 45.603744C466.56563 46.380661 466.55686 48.414005 468.56945 50.426589C470.85231 52.709448 474.46825 50.743456 473.00734 48.013706Z M482.57266 89.470548C481.7077 88.150448 481.0 86.436475 481.0 85.661719C481.0 83.763927 488.20835 74.034314 489.62853 74.015194C490.24922 74.006837 492.82216 76.417235 495.34618 79.371633C498.55111 83.123045 500.13609 85.998848 500.60096 88.905985C501.22526 92.81016 501.37639 92.969346 503.03427 91.468983C504.00649 90.589137 505.09216 88.322277 505.44687 86.431516C505.97299 83.62705 505.54624 82.200839 503.13029 78.689368C501.50146 76.321947 499.49098 73.822444 498.66256 73.134915C495.88347 70.828476 495.6391 64.594513 498.04443 57.366493L500.26036 50.707604L496.08673 46.853802C493.79123 44.734211 491.023 43.0 489.9351 43.0C488.01167 43.0 479.83531 47.745563 479.16667 49.25C478.98333 49.6625 478.08333 50.006891 477.16667 50.015313C475.91434 50.026819 475.82118 50.234384 476.79192 50.850235C478.72295 52.07531 484.00038 63.786311 483.99743 66.839788C483.99602 68.302905 482.46999 72.028733 480.60627 75.119406C478.74254 78.21008 476.92051 81.675089 476.55731 82.819428C475.87426 84.971521 477.5862 89.11406 481.38439 94.5L483.5 97.5L483.82266 94.685365C484.00012 93.137316 483.43762 90.790648 482.57266 89.470548Z M509.72186 49.878145C511.07389 48.52611 510.28808 46.0 508.51546 46.0C507.81664 46.0 506.65623 46.709297 505.93675 47.576215C504.85262 48.88251 504.87446 49.308003 506.0643 50.060903C507.93547 51.244931 508.37714 51.222862 509.72186 49.878145Z"/>
</svg>
