<?xml version="1.0" encoding="UTF-8"?>
<svg xmlns="http://www.w3.org/2000/svg" viewBox="2951.5 21.19 79.26 90.6">
  <path d="M2999.0504 104.57255C2997.7031 103.82643 2996.0737 103.41824 2995.4294 103.66546C2994.7852 103.91267 2993.9817 103.39467 2993.6439 102.51435C2993.1648 101.26578 2992.601 101.14317 2991.0806 101.95688C2987.5727 103.83424 2987.4354 102.97402 2990.7853 100.10704L2994.0707 97.295359L2993.7853 86.397679L2993.5 75.5L2990.0 75.740513C2986.347 75.991541 2986.6202 75.43483 2991.6348 72.409053C2993.1002 71.524856 2993.3964 70.209624 2993.198 65.46903C2992.9148 58.699038 2992.5995 58.14452 2989.9681 59.787855C2987.7085 61.19901 2986.0 61.358149 2986.0 60.157471C2986.0 59.694079 2987.6275 58.456579 2989.6167 57.407471L2993.2334 55.5L2992.731 42.697652C2992.4547 35.65636 2991.9837 29.650372 2991.6843 29.351011C2991.1737 28.840327 2979.2861 33.055622 2976.0 34.912638C2974.7758 35.604455 2974.554 37.850733 2974.7936 47.130152C2975.0767 58.093179 2975.184 58.582096 2977.7936 60.794423L2980.5 63.088846L2977.75 62.436015L2975.0 61.783184L2975.0 71.784603C2975.0 79.752263 2975.305 81.90307 2976.5 82.361626C2977.325 82.678209 2978.0 83.433496 2978.0 84.040044C2978.0 84.646591 2977.325 85.817857 2976.5 86.642857C2975.5793 87.563546 2975.0 90.014722 2975.0 92.989641C2975.0 99.123127 2975.728 101.0 2978.107 101.0C2979.1481 101.0 2980.0 101.65204 2980.0 102.44897C2980.0 103.70353 2979.516 103.69573 2976.393 102.39084C2973.101 101.01534 2972.6201 101.03382 2970.8868 102.6024C2969.8423 103.54767 2968.6706 104.00392 2968.2829 103.61628C2967.8953 103.22865 2968.7588 101.91891 2970.2019 100.70575C2972.373 98.880493 2972.9295 97.378746 2973.4279 92.0C2974.2022 83.642983 2973.0939 81.623686 2969.5566 84.946815C2968.1548 86.263737 2966.7596 87.092928 2966.4561 86.789461C2966.1527 86.485994 2967.6758 84.721435 2969.8409 82.868218L2973.7773 79.498734L2973.25 70.249367C2972.9599 65.162215 2972.5412 61.0 2972.3195 61.0C2972.0978 61.0 2970.9503 61.9 2969.7696 63.0C2968.5889 64.1 2967.1452 64.983104 2966.5614 64.962453C2965.9776 64.941803 2967.1875 63.479303 2969.25 61.712453C2972.7583 58.707155 2973.0001 58.137272 2973.0 52.875C2973.0 49.78125 2972.7101 45.800481 2972.3558 44.028846C2971.7759 41.129672 2971.431 40.863799 2968.905 41.368996C2959.686 43.212799 2955.099 33.876831 2963.1097 29.573591C2966.6877 27.651511 2966.7026 27.652073 2969.7523 29.823591C2971.4333 31.020616 2973.6716 32.0 2974.7262 32.0C2976.9443 32.0 2985.2125 29.293542 2988.9449 27.345763C2992.8533 25.306084 2994.7282 25.670053 3002.6176 30.0C3009.9176 34.006476 3013.3434 34.871405 3014.5 33.0C3015.5457 31.308056 3022.6122 31.865388 3025.04 33.831282C3026.8042 35.259862 3027.1518 36.25894 3026.6208 38.374573C3025.7081 42.011321 3022.4798 43.077334 3017.594 41.355325C3015.4457 40.598151 3013.5328 40.133863 3013.3431 40.323573C3013.1534 40.513283 3012.938 43.279758 3012.8644 46.471296C3012.7358 52.04956 3012.8809 52.400613 3016.6153 55.543875C3020.5454 58.851866 3020.922 61.21727 3017.1429 58.857143C3014.4518 57.176564 3013.8898 57.902211 3013.6798 63.328152C3013.5415 66.899843 3014.0272 68.414226 3016.0025 70.570246C3018.4877 73.282898 3018.4889 73.293575 3016.2458 72.740683C3011.6977 71.619621 3012.3612 80.463395 3017.0728 83.763549C3019.5975 85.531886 3019.5502 87.309392 3017.0 86.5C3015.8527 86.135858 3015.0 86.3203 3015.0 86.932612C3015.0 88.642843 3012.5722 87.677122 3011.74 85.635855C3011.1132 84.098327 3010.7147 83.991887 3009.4658 85.028356C3006.9794 87.091923 3006.6275 85.331934 3008.8909 82.153205C3010.2338 80.267315 3011.0 77.660971 3011.0 74.978998C3011.0 71.259067 3010.7662 70.827867 3009.0 71.289749C3006.3844 71.973742 3006.4737 71.217115 3009.3198 68.579425C3011.3384 66.708657 3011.565 65.784875 3011.0651 61.464754C3010.5716 57.200444 3010.209 56.548591 3008.4953 56.844412C3006.6158 57.168834 3006.6333 57.046131 3008.7966 54.730406C3010.8315 52.552012 3011.0593 51.435742 3010.7966 44.930327L3010.5 37.588665L3003.9189 33.876945C2995.3817 29.062078 2993.4578 28.710982 2993.6336 32.0C2994.7744 53.34266 2995.2155 56.306394 2997.6066 58.697503C3000.5408 61.631699 3000.5483 61.78199 2997.7797 62.180449C2995.7774 62.468633 2995.5883 62.990804 2995.8533 67.5C2996.0149 70.25 2996.7721 73.470847 2997.5359 74.657438C2998.7307 76.513315 2998.7204 76.893316 2997.4624 77.376053C2996.3232 77.813219 2996.0 80.007937 2996.0 87.307586C2996.0 95.984439 2996.2035 96.946199 2998.75 100.30253C3000.2625 102.29605 3002.0891 103.94351 3002.809 103.96356C3003.529 103.9836 3003.8399 104.45 3003.5 105.0C3002.7036 106.28859 3002.0327 106.22414 2999.0504 104.57255Z M2969.8853 38.092021C2971.6113 36.998971 2970.5953 32.165656 2968.468 31.349333C2965.6023 30.249676 2962.0 31.903648 2962.0 34.319052C2962.0 38.365724 2966.2456 40.397133 2969.8853 38.092021Z M3016.9125 105.45796C3015.5698 104.11521 3013.2401 102.91471 3011.7356 102.79019C3008.6133 102.53178 3008.5044 102.2394 3010.5318 99.55887C3011.3393 98.491249 3012.0 96.128749 3012.0 94.30887C3012.0 92.488992 3012.45 91.0 3013.0 91.0C3013.9612 91.0 3014.4148 93.640144 3014.063 97.186897C3013.971 98.11469 3014.8145 99.36553 3015.9375 99.966541C3018.2981 101.2299 3021.3859 106.6435 3020.1733 107.39291C3019.7226 107.67144 3018.2553 106.80071 3016.9125 105.45796Z M3012.6831 71.8125C3012.3639 71.014767 3012.1269 71.251724 3012.0789 72.416667C3012.0355 73.470833 3012.2719 74.061458 3012.6042 73.729167C3012.9365 73.396875 3012.972 72.534375 3012.6831 71.8125Z M3023.476 39.381146C3024.9678 37.88934 3024.9612 37.614658 3023.3924 35.881146C3021.5817 33.88034 3018.4032 33.458716 3016.1043 34.914388C3014.2448 36.091828 3015.3938 38.822395 3018.2278 39.960638C3021.3954 41.232838 3021.6527 41.204421 3023.476 39.381146Z"/>
</svg>
