<?xml version="1.0" encoding="UTF-8"?>
<svg xmlns="http://www.w3.org/2000/svg" viewBox="3251.72 12.92 29.73 94.37">
  <path d="M 3253.7188,80.3125 3255.3438,86.53125 C 3255.3472,86.539322 3255.3403,86.55438 3255.3438,86.5625 L 3256.9375,92.65625 3257.0625,94.90625 3260.4688,98.40625 C 3262.9234,100.93182 3265.5495,103 3266.3125,103 3269.3316,103 3273.9073,88.184211 3277.5938,66.5 3279.156,57.311446 3279.4519,27.246651 3278,25 3276.9096,23.312719 3276.9743,22.572804 3276.6875,41.5 3276.5754,48.895991 3276.0993,53.5 3275.4688,53.5 3274.9061,53.5 3273.0214,52.375 3271.2812,51 3268.356,48.68868 3268.1008,48.009431 3267.9375,42 3267.3872,21.754766 3265,17.205682 3265,36.40625 L 3265,48.8125 3261.75,50.84375 C 3259.9658,51.973478 3258.2088,52.606967 3257.8438,52.21875 3257.4788,51.830533 3256.9394,45.492873 3256.6562,38.15625 3256.3731,30.819627 3255.9373,24.624793 3255.6875,24.375 3254.8895,23.576919 3253.8155,54.024899 3254.1562,67.8125 3254.3268,74.714649 3254.4348,78.023347 3253.7188,80.3125 z M 3266.3125,51.59375 C 3268.6957,51.309891 3270.4811,52.586137 3273.4062,56.0625 3275.8593,58.977711 3276.6963,61.959981 3275.4375,63.21875 3275.1313,63.524928 3272.6345,62.822098 3269.875,61.65625 L 3264.8438,59.53125 3260.9375,61.8125 3257,64.0625 3257,61.25 C 3257,57.475931 3259.5404,54.094734 3263.6562,52.375 3264.6488,51.960287 3265.5181,51.68837 3266.3125,51.59375 z M 3263.75,62 C 3266.822,62 3271.5113,64.230933 3273.2188,66.5 3274.8438,68.659543 3274.8043,69.354653 3272.4688,80.625 3271.1166,87.150204 3269.3485,93.9625 3268.5312,95.75 3266.6105,99.950761 3265.0512,99.843678 3262.0938,95.28125 3260.237,92.416895 3259.3426,88.781962 3258.125,79.1875 L 3256.5625,66.78125 3259.3438,64.375 C 3260.8716,63.060723 3262.8572,62 3263.75,62 z"/>
</svg>
