<?xml version="1.0" encoding="UTF-8"?>
<svg xmlns="http://www.w3.org/2000/svg" viewBox="1292.21 19.78 31.01 84.09">
  <path d="M1303.7842 97.451672C1295.4319 93.10311 1294.7618 88.307177 1301.5 81.103454C1303.975 78.457479 1306.0 75.836556 1306.0 75.279181C1306.0 74.721806 1304.3124 73.149005 1302.2499 71.784066C1300.1873 70.419128 1297.8574 68.102111 1297.0723 66.635141C1295.8195 64.29422 1295.8413 63.555956 1297.2507 60.600453C1298.1339 58.748345 1300.2388 55.658656 1301.9283 53.734477C1303.6177 51.810298 1305.0 50.053793 1305.0 49.831131C1305.0 49.60847 1302.9501 47.256289 1300.4448 44.604063C1294.2119 38.0058 1294.5102 35.441321 1302.3002 28.653333L1308.1003 23.599232L1311.6392 25.505004C1319.498 29.737281 1321.2268 36.603625 1316.1951 43.599962C1314.6524 45.744983 1313.0868 48.004415 1312.7159 48.620923C1312.1044 49.637262 1313.483 51.843707 1317.3262 56.0C1320.8729 59.835644 1319.8224 67.231167 1315.138 71.404988C1312.2745 73.956423 1312.4108 74.930765 1316.5 81.139912C1318.425 84.062876 1320.0 87.554292 1320.0 88.898613C1320.0 91.477457 1312.0464 100.04086 1309.7324 99.953439C1309.0546 99.92783 1306.3779 98.802035 1303.7842 97.451672Z M1308.0 36.5C1308.0 29.743532 1307.6512 27.0 1306.7922 27.0C1304.6983 27.0 1298.0 34.303566 1298.0 36.586585C1298.0 38.725264 1304.9575 46.0 1307.0029 46.0C1307.5957 46.0 1308.0 42.148369 1308.0 36.5Z M1309.0 67.139571C1309.0 59.569237 1307.8521 53.0 1306.5294 53.0C1305.1766 53.0 1300.8 57.63676 1299.0286 60.946497C1297.5962 63.623072 1299.7785 67.585077 1303.4552 68.982952C1304.748 69.474477 1306.101 70.354391 1306.4619 70.938317C1307.933 73.318714 1309.0 71.721828 1309.0 67.139571Z M1309.2016 91.25C1309.8156 84.853582 1309.0473 79.0 1307.5935 79.0C1306.9403 79.0 1304.6821 80.765341 1302.5752 82.922979C1299.4416 86.132095 1298.8636 87.320543 1299.3991 89.453998C1300.0144 91.905508 1305.1461 95.988016 1307.6228 95.996262C1308.2403 95.998318 1308.9507 93.8625 1309.2016 91.25Z M1315.259 41.967509C1317.9082 37.391818 1317.0635 31.742915 1313.3679 29.321504C1310.153 27.215003 1309.3704 28.333016 1309.593 34.714324C1309.6848 37.346446 1309.814 40.995496 1309.88 42.823324C1310.0372 47.177838 1312.466 46.791408 1315.259 41.967509Z M1315.9771 67.042823C1316.5397 65.991586 1317.0 64.011426 1317.0 62.642467C1317.0 59.864328 1312.3302 53.677891 1310.9002 54.561654C1310.3956 54.873515 1310.172 57.687222 1310.4032 60.814337C1310.6344 63.941451 1310.8633 67.528333 1310.9118 68.785184C1310.9874 70.744388 1311.282 70.91943 1312.9771 70.012265C1314.0645 69.430309 1315.4145 68.09406 1315.9771 67.042823Z M1315.8 92.8C1317.6074 90.992634 1317.2469 87.135492 1314.9184 83.368034C1312.1239 78.846376 1310.5751 79.01254 1311.3582 83.75C1311.6991 85.8125 1311.9829 88.9625 1311.989 90.75C1312.0005 94.137055 1313.6016 94.998355 1315.8 92.8Z"/>
</svg>
