<?xml version="1.0" encoding="UTF-8"?>
<svg xmlns="http://www.w3.org/2000/svg" viewBox="3293.87 19.08 40.5 86.26">
  <path d="M 3331.0312 79.625 L 3325.375 82.75 C 3317.5784 87.047682 3314.4608 86.76402 3310.75 81.46875 C 3308.0484 77.613785 3307.9289 76.972203 3307.9688 65.96875 C 3308.0244 50.579293 3308.7315 47.675422 3312.5312 46.96875 L 3315.5 46.40625 L 3312.75 45.84375 C 3311.2381 45.533827 3309.3267 45.763893 3308.5 46.375 C 3305.4384 48.638295 3303.8378 74.271308 3306.375 80.34375 C 3307.1252 82.139265 3309.2194 84.850413 3311.0312 86.375 C 3314.8693 89.604529 3316.5394 89.425066 3325.25 85.03125 C 3328.4125 83.436023 3331 82.534827 3331 83 C 3331 83.465173 3331.2501 84.498593 3331.5625 85.3125 C 3331.9695 86.373302 3329.5815 88.248965 3323.0938 91.90625 C 3318.1159 94.712327 3313.1917 97 3312.1562 97 C 3309.6212 97 3305.3154 93.477309 3303.4688 89.90625 C 3301.8396 86.755746 3300.4434 80.517132 3298.9688 69.5 C 3297.8724 61.309856 3299.3722 40.219665 3301.5938 32.34375 C 3303.5397 25.444615 3305.2172 24.103555 3309.0625 26.375 C 3311.4126 27.76325 3312 27.836795 3312 26.71875 C 3312 25.314239 3308.0091 23 3305.5938 23 C 3303.5564 23 3301.2814 26.098229 3299.6875 31 C 3297.6697 37.205263 3297.0413 42.084574 3296.4062 56.8125 C 3295.872 69.206802 3297.0131 79.777627 3300 90.1875 C 3302.3128 98.248148 3311.0641 101.4158 3318.125 96.75 C 3323.6954 93.069055 3329.6554 90 3331.25 90 C 3331.5716 90 3331.9839 90.333268 3332.375 90.6875 L 3332.3438 88.40625 L 3331.0312 79.625 z M 3309.25 35.03125 C 3306.9387 34.990135 3307.9733 36.613146 3311.25 38.1875 C 3313.0375 39.04635 3314.7332 39.559182 3315 39.3125 C 3315.671 38.692034 3310.7871 35.058594 3309.25 35.03125 z "/>
</svg>
