<?xml version="1.0" encoding="UTF-8"?>
<svg xmlns="http://www.w3.org/2000/svg" viewBox="2.87 16.3 41.93 93.01">
  <path d="M17.401069 101.14967C7.1787568 96.369827 4.8666345 83.928753 11.39455 68.82978L14.943296 60.621583L11.485383 55.412016C9.5835304 52.546754 7.5712887 49.002603 7.0137346 47.536125C5.2855302 42.990603 5.868142 36.435867 8.5500209 30.251973C11.932986 22.451511 15.06965 20.528751 22.832005 21.497188C27.676207 22.101554 29.039514 22.771169 32.212053 26.104381C38.398444 32.604084 39.522362 42.323174 34.955929 49.832071C32.931859 53.160388 31.0 53.300568 31.0 50.119122C31.0 49.149558 30.297407 46.29428 29.438682 43.77406C28.287287 40.394903 27.110529 38.87421 24.956642 37.982041C20.330554 36.065852 19.0 37.198333 19.0 43.051949C19.0 46.710132 18.644034 48.042216 17.75 47.729649C16.017665 47.124 16.355432 37.031095 18.147102 35.863773C22.96208 32.72668 28.54397 35.129386 31.65071 41.676356C33.247772 45.041914 33.426128 45.139839 34.74266 43.373968C36.44646 41.088654 35.684583 34.874063 33.165003 30.505098C30.974144 26.706137 25.665116 23.99387 20.5 24.034823C14.183042 24.084909 10.703468 27.911174 9.0820007 36.590467C8.0197065 42.276651 9.2655654 47.324297 12.848202 51.849378C19.025984 59.652281 19.097649 59.883908 16.574355 63.892554C11.280015 72.303439 9.8512539 77.079812 10.560432 83.997206C10.942033 87.719384 12.098951 91.93877 13.26602 93.864732C16.710108 99.548357 25.504544 101.86573 31.606281 98.697468C37.247633 95.768259 40.862434 88.284394 39.417216 82.526183L38.7319 79.79567L36.905186 82.680769C35.900492 84.267573 33.668508 86.608297 31.945221 87.882379C29.330683 89.81539 28.081478 90.089347 24.399475 89.537196C20.882343 89.00977 19.683928 88.289464 18.49349 85.987411C17.67207 84.398961 17.0 82.186079 17.0 81.069896C17.0 77.672646 20.098654 70.630524 22.619868 68.297966C25.343222 65.778392 25.696057 62.390917 23.475435 60.083888C20.86397 57.370808 17.142025 51.191308 17.751999 50.581335C18.91579 49.417543 19.675659 50.080261 21.958472 54.25C23.238187 56.5875 25.433775 59.741188 26.837557 61.258197L29.389888 64.016393L25.850949 67.758197C21.481719 72.377884 19.767427 76.567937 20.181965 81.614254C20.438066 84.731849 21.055225 85.750666 23.351103 86.845921C25.857851 88.041771 26.620646 87.982239 29.666705 86.353023C31.572181 85.33386 34.038386 83.0375 35.147162 81.25C37.244086 77.869469 37.786936 77.597273 40.418213 78.606989C42.793461 79.518457 42.433209 86.728301 39.75 91.980144C34.971382 101.33333 25.822016 105.08722 17.401069 101.14967Z"/>
</svg>
