<?xml version="1.0" encoding="UTF-8"?>
<svg xmlns="http://www.w3.org/2000/svg" viewBox="3153.93 26.75 25.42 49.54">
  <path d="M 3170.5075,66.8078 C 3174.4934,66.957646 3175.133,65.062648 3172.4092,61.173792 3170.9796,59.132721 3170.9712,58.578175 3172.3271,55.701286 3174.02,52.109126 3173.5441,47.424343 3171.2144,44.75 3169.2223,42.46303 3168.1158,42.542607 3165.3145,45.174314 3162.5889,47.734827 3162.3763,50.893314 3164.6356,55.262144 3166.1945,58.276745 3166.1654,58.624262 3164.0152,62.677512 3162.7523,65.058093 3162.0415,67.665667 3162.4004,68.601147 3162.9922,70.143143 3163.1952,70.133349 3165.0283,68.47437 3166.2301,67.386812 3168.3948,66.728376 3170.5075,66.8078 z M 3160.607,71.418213 C 3159.5318,68.61623 3159.9571,64.881128 3161.6845,61.956944 3163.0689,59.61332 3163.158,58.642171 3162.1845,56.505599 3160.1521,52.045027 3160.7486,48.050334 3164,44.347219 3165.65,42.467973 3167,39.921194 3167,38.68771 3167,35.368531 3164.3972,32.246149 3161.0102,31.502246 3157.7382,30.783593 3155.9298,29 3158.4731,29 3162.9365,29 3167.1157,32.007423 3169.1959,36.716226 3170.3582,39.347302 3172.4243,43.187303 3173.7872,45.249563 3176.018,48.625097 3176.1699,49.481015 3175.31,53.829962 3174.7847,56.486922 3174.6934,59.524619 3175.1071,60.580399 3177.3451,66.291043 3174.9314,74.0321 3172.0102,70.512331 3170.4095,68.583619 3167.5995,68.572689 3166.0091,70.48899 3165.3295,71.307934 3164.3744,71.731376 3163.8867,71.429973 3163.399,71.128569 3163,71.358524 3163,71.940983 3163,73.56962 3161.2891,73.195871 3160.607,71.418213 z"/>
</svg>
