<?xml version="1.0" encoding="UTF-8"?>
<svg xmlns="http://www.w3.org/2000/svg" viewBox="2924.84 18.76 21.56 93.2">
  <path d="M 2944.125 88.28125 C 2943.1375 85.311401 2943.0006 79.767026 2943.0625 69 C 2943.1751 49.426984 2942.1392 28.664159 2940.875 25.25 C 2940.1264 23.228131 2939.3676 23 2933.4375 23 L 2926.8438 23 L 2927.4062 55.65625 C 2927.8967 84.751613 2928.3828 91.856554 2929.6562 88.5 C 2930.9343 85.130745 2931.604 84.888571 2936.3438 86.15625 C 2940.9489 87.387965 2941 87.46349 2941 91.5625 C 2941 93.846663 2940.7194 97.768893 2940.375 100.28125 C 2939.7041 105.17618 2939.2197 105.43022 2932.625 104.28125 C 2929.7684 103.78356 2929.7321 103.74274 2930.25 98.03125 C 2930.7381 92.647991 2929.8844 88.771801 2928.5 90.15625 C 2927.6106 91.045678 2927.3603 104.69525 2928.2188 105.5625 C 2928.6206 105.96842 2931.4881 106.42146 2934.5938 106.59375 C 2937.6994 106.76605 2940.4894 107.14557 2940.7812 107.4375 C 2941.0732 107.72943 2941.9145 107.4906 2942.6562 106.875 C 2942.9458 106.63467 2943.6059 106.46921 2944.4062 106.375 L 2944.4062 106.34375 L 2944.25 101.28125 C 2943.4421 100.34663 2943 99.286394 2943 97.46875 C 2943 95.6239 2943.3669 94.50751 2944.0625 93.875 L 2943.9062 88.875 L 2944.125 88.28125 z M 2929.0625 25 L 2933.4688 25 C 2935.8901 25 2938.0703 25.3375 2938.3125 25.75 C 2938.5547 26.1625 2939.0741 31.7875 2939.4688 38.25 C 2940.2838 51.602269 2940.1746 51.797556 2933.4062 47 L 2929.2812 44.09375 L 2929.1875 34.53125 L 2929.0625 25 z M 2930.75 49.6875 C 2931.1625 49.458877 2933.4041 50.124256 2935.7188 51.15625 C 2939.1442 52.683538 2940.0199 53.648768 2940.5312 56.375 C 2940.8769 58.217125 2941.029 60.815454 2940.8438 62.125 C 2940.2933 66.016823 2934.6631 65.465663 2931.25 61.1875 C 2929.9061 59.503008 2929.5094 50.375086 2930.75 49.6875 z M 2931.375 64.3125 L 2935.9375 65.96875 L 2940.5 67.59375 L 2940.7812 75.4375 C 2940.9434 79.760944 2940.7184 83.633219 2940.2812 84.03125 C 2938.8751 85.311537 2932.6155 82.420941 2931 79.75 C 2929.7112 77.619271 2929.6096 76.034858 2930.4062 70.75 L 2931.375 64.3125 z "/>
</svg>
