<?xml version="1.0" encoding="UTF-8"?>
<svg xmlns="http://www.w3.org/2000/svg" viewBox="150.3 13.54 63.42 87.84">
  <path d="M167.00112 88.624144C164.83543 83.936502 162.78759 79.001865 162.45037 77.658284C161.87971 75.384595 164.16992 69.226564 166.04235 68.0C168.30166 66.519995 176.94607 54.522037 177.46922 52.140122C178.25863 48.545991 173.70479 33.947799 171.04268 31.538624C169.63152 30.261546 168.2774 29.948093 166.28504 30.437322C158.889 32.253438 158.28198 32.219046 156.08359 29.859348C153.18178 26.744623 153.66532 22.828528 157.09995 21.628135C158.94698 20.982599 161.33996 21.235323 165.36339 22.500848L171.02689 24.282237L176.17044 21.084829C181.88615 17.531747 183.50272 17.706462 190.12624 22.593138C194.11364 25.534944 196.37209 25.627913 199.03993 22.960066C200.1619 21.838103 202.20979 20.490538 203.5908 19.965478C205.66505 19.176848 206.52672 19.435812 208.54545 21.454545C210.63625 23.545343 210.83986 24.291002 209.95527 26.617639C208.30497 30.958273 206.10634 32.122232 200.75 31.490942C197.64776 31.125317 196.0 31.308992 196.0 32.020421C196.0 32.61954 195.16875 34.997539 194.15278 37.304864C193.13681 39.612189 191.72095 44.728992 191.00643 48.675539L189.70729 55.851077L194.93516 61.675539C202.52453 70.131011 204.02946 73.460195 202.92783 79.35691C201.81319 85.323282 195.96887 96.382314 193.69953 96.819349C190.75896 97.385652 189.85668 92.814932 191.72029 86.793046C192.62123 83.881871 193.24413 80.825 193.10453 80.0C192.52 76.545712 185.00386 67.091389 182.78726 67.022236C182.39525 67.010006 180.21278 69.741541 177.93731 73.092314C173.498 79.629487 173.31481 81.302762 176.29825 88.063171C178.19652 92.364613 176.79992 96.306345 173.19435 96.823564C171.24271 97.103526 170.40814 95.998608 167.00112 88.624144Z M163.06574 28.964816C165.73878 27.53425 165.48464 25.541849 162.45295 24.160515C156.77205 21.572125 153.8747 23.994094 157.65499 28.171259C159.55994 30.276205 160.38836 30.397705 163.06574 28.964816Z M175.57105 93.675441C175.8506 92.946934 175.16148 90.209627 174.03967 87.592536C172.91785 84.975445 172.0 81.792503 172.0 80.519331C172.0 79.226958 174.47506 75.041236 177.60342 71.04306L183.20684 63.881647L186.76231 68.035418C194.97413 77.629077 196.51422 81.615758 193.5318 85.55887C191.91404 87.697748 191.48736 93.565136 192.88669 94.429973C194.08988 95.173584 195.87793 92.856871 198.54683 87.096318C203.29071 76.857149 202.88672 74.401679 194.97771 65.402912C192.12428 62.15631 189.38419 58.450879 188.88863 57.168621C187.81019 54.378141 189.41159 42.913108 191.51022 38.399664C192.30309 36.694479 193.07514 33.836326 193.2259 32.048212C193.47263 29.121757 192.9354 28.394542 187.84621 24.765993C181.49408 20.236982 179.24276 20.192139 174.59235 24.501992L171.84058 27.05225L174.23053 31.276125C175.545 33.599256 177.44354 38.791069 178.44951 42.813486C180.89643 52.597669 179.97636 55.359083 170.9263 65.393043C163.22096 73.936081 162.93257 75.025631 166.39837 82.5C167.16346 84.15 168.37991 86.85 169.10159 88.5C171.57785 94.161546 174.49041 96.491536 175.57105 93.675441Z M207.30365 27.796181C208.97656 25.554615 209.10216 24.828023 208.03833 23.546181C206.22899 21.366059 203.02648 21.626498 200.31445 24.174314C197.59538 26.728753 197.37144 28.548859 199.62132 29.807955C202.38311 31.353531 205.1991 30.616108 207.30365 27.796181Z"/>
</svg>
