<?xml version="1.0" encoding="UTF-8"?>
<svg xmlns="http://www.w3.org/2000/svg" viewBox="1461.55 21.23 64.99 89.86">
  <path d="M1481.5615 103.91986C1479.6321 102.22579 1478.1539 100.37195 1478.2767 99.800234C1478.3995 99.228515 1477.15 98.252078 1475.5 97.630373C1472.8755 96.64148 1472.477 95.975377 1472.3165 92.30847C1472.0647 86.557555 1470.5145 84.013655 1467.2148 83.936614C1464.6706 83.87721 1464.6359 83.818443 1466.6621 83.001369C1469.3231 81.928305 1469.9403 79.939241 1469.6105 73.5C1469.391 69.214189 1469.0413 68.454078 1467.1624 68.178506C1464.6522 67.810345 1465.231 66.0 1467.8589 66.0C1469.1857 66.0 1469.8999 64.547511 1470.8609 59.894357C1471.5546 56.536253 1471.9821 53.687596 1471.811 53.564008C1471.64 53.440419 1469.925 52.858898 1468.0 52.271739L1464.5 51.204176L1468.0 51.086775C1472.7064 50.928909 1473.368 50.334674 1475.4906 44.359025C1477.3043 39.252904 1477.302 39.199449 1475.1583 36.474167C1472.9116 33.617861 1472.3254 31.0 1473.9326 31.0C1474.4455 31.0 1475.151 31.900478 1475.5003 33.001061C1475.8496 34.101645 1476.9547 35.440566 1477.956 35.976442C1480.4602 37.316683 1485.3374 32.545331 1484.727 29.352298C1484.4933 28.129644 1484.6206 26.613904 1485.0099 25.983985C1485.4251 25.31211 1485.9578 26.039224 1486.2986 27.742995C1486.7742 30.12124 1487.6602 30.880568 1491.1897 31.935069C1500.9128 34.839975 1509.2726 41.385859 1510.7834 47.27722C1511.3785 49.597984 1512.6975 51.069959 1515.4958 52.536386C1522.3801 56.144007 1523.5823 64.966468 1517.0105 63.652107C1514.4525 63.140493 1514.1486 63.394177 1513.5597 66.533396C1511.9916 74.892383 1505.4111 71.875215 1503.6295 61.980342C1503.2316 59.770546 1502.0907 57.909767 1500.5637 56.980342C1499.2261 56.166154 1497.0741 53.925 1495.7815 52.0C1492.7796 47.529484 1489.3329 46.825407 1488.412 50.494593C1487.3545 54.707923 1488.5635 61.629601 1490.8688 64.560281C1494.7214 69.45816 1492.9262 79.061475 1488.3995 77.76919C1487.3548 77.470935 1485.7125 76.902708 1484.75 76.506465C1480.7807 74.872376 1484.0113 87.774445 1488.226 90.388873C1489.5344 91.200465 1490.6963 91.0199 1493.0278 89.642645C1497.111 87.23064 1498.4508 87.939911 1500.3522 93.520105C1501.7368 97.583774 1501.7636 98.629989 1500.5573 101.51722C1498.7928 105.74018 1496.3901 107.0 1490.1005 107.0C1485.9075 107.0 1484.4853 106.48702 1481.5615 103.91986Z M1497.7552 102.75C1499.7801 100.21899 1500.0559 97.069665 1498.5652 93.501889C1497.0955 89.984399 1496.9639 89.911911 1494.7986 91.428485C1491.8327 93.505923 1487.6816 93.42381 1485.7756 91.25C1482.6888 87.72953 1480.744 82.48564 1480.6234 77.358401C1480.4609 70.445723 1482.3033 68.366783 1485.1505 72.25C1487.4088 75.330047 1489.4821 75.792046 1490.393 73.418213C1491.4781 70.59051 1491.0404 68.321052 1488.8802 65.574855C1483.9565 59.315367 1484.489 47.915689 1489.8004 45.874951C1492.2992 44.91484 1492.8347 45.215602 1497.0 49.919214C1500.3714 53.726258 1502.1959 55.000636 1504.2748 55.000363C1507.8124 54.9999 1509.4939 51.339441 1507.8349 47.25L1506.7194 44.5L1506.0869 46.90536C1505.7391 48.228308 1504.6509 49.803308 1503.6687 50.40536C1501.2649 51.878791 1498.8021 48.61991 1499.2059 44.5C1499.439 42.122125 1499.9139 41.572636 1501.4957 41.850265C1503.49 42.200281 1503.49 42.198956 1501.4957 39.993856C1498.2076 36.358135 1492.2988 33.859319 1487.7853 34.195751C1481.912 34.633547 1478.7565 38.964576 1475.5422 51.0C1471.9348 64.507385 1471.9314 79.661084 1475.5337 89.088134C1476.9272 92.734942 1479.6623 97.581987 1481.6116 99.859347C1485.0105 103.83017 1485.3937 104.0 1490.9555 104.0C1494.3952 104.0 1497.162 103.49136 1497.7552 102.75Z M1502.9973 45.995005C1501.7463 43.657488 1500.0 42.499061 1500.0 44.006724C1500.0 46.032185 1502.0787 49.069396 1503.0529 48.46732C1503.6506 48.097901 1503.6299 47.177012 1502.9973 45.995005Z M1511.324 64.351293C1510.8083 60.140086 1510.9309 59.757485 1512.6273 60.285917C1518.8411 62.221506 1519.0 62.231789 1519.0 60.698419C1519.0 57.672923 1517.6512 55.756777 1514.626 54.484806C1511.829 53.308742 1511.3622 53.396106 1509.4565 55.452391C1508.3044 56.695599 1506.732 57.922674 1505.9623 58.179226C1504.7734 58.575529 1504.7655 59.259577 1505.91 62.727392C1506.9972 66.021614 1508.7736 67.926377 1511.6967 68.93232C1511.8048 68.969544 1511.6371 66.908082 1511.324 64.351293Z"/>
</svg>
