<?xml version="1.0" encoding="UTF-8"?>
<svg xmlns="http://www.w3.org/2000/svg" viewBox="453.16 15.72 21.89 89.36">
  <path d="M465.18706 98.349527C464.20471 96.513984 463.57563 94.411317 458.6501 76.5C456.17857 67.512473 455.15608 58.8342 456.23474 56.0C456.54873 55.175 457.55749 50.225 458.47643 45.0C460.41724 33.964823 463.64333 23.129908 465.60888 21.045495C466.80355 19.778577 467.1687 19.843061 468.44015 21.545495C470.95235 24.909239 472.12569 32.92458 472.60551 50.0C473.04524 65.648545 472.18169 76.515836 469.16486 93.298883C468.12045 99.109043 466.61592 101.01937 465.18706 98.349527Z M467.42248 89.75C469.85213 74.360804 470.48499 66.18343 470.3893 51.414896C470.28021 34.57916 468.81255 23.562483 466.76947 24.243509C464.88578 24.871408 461.18557 36.72528 460.09336 45.630881C458.46276 58.926442 458.74902 67.734485 461.0995 76.590037C462.25423 80.940517 463.64067 86.4125 464.18049 88.75C465.3504 93.815959 466.71414 94.236605 467.42248 89.75Z"/>
</svg>
