<?xml version="1.0" encoding="UTF-8"?>
<svg xmlns="http://www.w3.org/2000/svg" viewBox="1843.81 15.38 20.47 90.69">
  <path d="M 1862.1562 80.625 C 1861.2675 76.52024 1861.4041 68.529219 1861.6875 52.25 C 1862.0914 29.050709 1861.9318 23.171763 1860.8438 21.78125 C 1859.8476 20.508301 1857.7068 19.985178 1852.6562 19.78125 L 1845.8125 19.5 L 1845.9688 59.90625 C 1846.0421 82.135268 1846.3262 100.73527 1846.625 101.21875 C 1846.9238 101.70224 1849.9279 101.94375 1853.3125 101.78125 C 1858.9118 101.51241 1859.6151 101.2566 1860.8125 98.75 C 1861.2609 97.811285 1861.7057 97.266563 1862.2812 96.90625 L 1862.0625 95.96875 L 1862.0625 92.5625 C 1861.9546 92.023696 1862 91.359003 1862 90.40625 L 1862 86.875 L 1862.0625 86.875 L 1862.0625 80.875 L 1862.1562 80.625 z M 1850.625 21.53125 C 1851.5944 21.506479 1852.8018 21.571373 1854.0312 21.78125 C 1858.4639 22.537974 1858.4814 22.584288 1859.25 27.53125 C 1859.675 30.266837 1859.7545 36.6625 1859.4062 41.75 C 1859.0581 46.8375 1858.4721 50.949482 1858.125 50.90625 C 1857.7779 50.863019 1855.475 49.59834 1853 48.09375 C 1848.5507 45.388924 1848.4908 45.295203 1847.6875 38.4375 C 1846.8028 30.883912 1847.2367 23.357127 1848.6562 21.9375 C 1848.9039 21.689878 1849.6556 21.556021 1850.625 21.53125 z M 1851.1875 49.15625 C 1852.1641 49.300907 1853.5743 50.404554 1855.6562 52.3125 L 1859.2812 55.625 L 1858.5625 63.3125 C 1858.1061 68.182243 1857.3945 70.97096 1856.6562 70.90625 C 1853.6283 70.640839 1849.0631 68.5858 1848.5625 67.28125 C 1848.2559 66.482246 1848.3003 62.036807 1848.6562 57.40625 C 1849.1211 51.359192 1849.5599 48.915155 1851.1875 49.15625 z M 1851.4062 71 C 1852.2711 71.137992 1853.3878 71.653356 1854.8438 72.40625 C 1857.6212 73.842525 1857.8646 74.443462 1858.4688 81.21875 C 1858.8252 85.216909 1858.7633 90.975 1858.3125 94 C 1857.5017 99.441526 1857.4496 99.509292 1853.8125 99.8125 C 1848.5826 100.2485 1847.9661 98.492694 1848.2812 83.84375 C 1848.5017 73.591705 1848.8117 70.586025 1851.4062 71 z "/>
</svg>
