<?xml version="1.0" encoding="UTF-8"?>
<svg xmlns="http://www.w3.org/2000/svg" viewBox="2778.02 18.6 23.89 93.31">
  <path d="M 2799.9062 92.4375 C 2799.3166 89.430625 2798.834 79.430105 2798.5625 60.5 C 2798.2583 39.292939 2797.7175 27.311223 2797.0312 26.625 C 2795.7477 25.341499 2784.0572 22.843798 2782.8438 23.59375 C 2782.3701 23.886448 2782.0511 37.035615 2782.125 52.8125 C 2782.206 70.068349 2781.7518 85.978703 2781 92.71875 C 2780.3126 98.881122 2780.0176 104.61862 2780.3438 105.46875 C 2781.1898 107.67349 2792.6998 107.59897 2795.875 105.375 C 2796.7563 104.75771 2797.6896 104.39777 2798.8125 104.25 L 2798.7188 103.03125 L 2798.9375 100.8125 C 2798.3935 100.41839 2798 99.90742 2798 99.40625 C 2798 98.792645 2798.3097 98.437391 2799.2188 98.25 L 2799.6562 94.0625 L 2799.9062 92.4375 z M 2785.25 25.90625 L 2789.875 26.59375 C 2792.4212 26.968839 2794.8459 27.763837 2795.25 28.375 C 2795.6541 28.986162 2795.9364 33.325 2795.9062 38 C 2795.8273 50.20566 2795.5444 50.614529 2789.8438 46.90625 C 2784.4916 43.424735 2783.4432 40.333535 2784.5625 31.375 L 2785.25 25.90625 z M 2785.75 47.625 C 2785.9487 47.494158 2786.1878 47.505206 2786.5 47.625 C 2787.325 47.941582 2788 48.609975 2788 49.09375 C 2788 49.577525 2789.5672 50.629953 2791.5 51.4375 C 2795.4934 53.106062 2795.6461 53.393401 2796.3438 61.25 C 2796.937 67.929631 2796.5946 68.074681 2789.75 64.1875 L 2785.0312 61.5 L 2785 54.28125 C 2784.991 49.774249 2785.1538 48.017525 2785.75 47.625 z M 2786.25 65.4375 C 2786.6165 65.070984 2788.9204 65.93652 2791.375 67.375 L 2795.8438 70 L 2796.1562 76.75 C 2796.339 80.465842 2796.3633 84.5125 2796.1875 85.75 C 2795.7926 88.530695 2794.0374 88.610451 2790.7188 86 C 2789.3204 84.9 2787.7294 84 2787.1875 84 C 2786.6456 84 2785.9549 83.29736 2785.625 82.4375 C 2785.295 81.57764 2784.5538 81.15768 2784 81.5 C 2783.4461 81.842319 2783 81.389919 2783 80.5 C 2783 79.610081 2783.45 79.160081 2784 79.5 C 2784.5524 79.841372 2785.0346 79.087891 2785.0625 77.8125 C 2785.219 70.668972 2785.662 66.025457 2786.25 65.4375 z M 2786.375 86.03125 C 2786.9865 86.040298 2789.3 87.051725 2791.5 88.3125 L 2795.5 90.625 L 2795.2812 96.53125 C 2795.1267 100.81535 2794.5919 102.83724 2793.3438 103.75 C 2791.6357 104.99897 2786.6696 105.32007 2784.25 104.34375 C 2783.5625 104.06634 2783 102.38118 2783 100.59375 C 2783 95.371622 2785.1645 86.013343 2786.375 86.03125 z "/>
</svg>
