<?xml version="1.0" encoding="UTF-8"?>
<svg xmlns="http://www.w3.org/2000/svg" viewBox="1052.24 19.73 46.09 90.21">
  <path d="M1056.75 103.92012C1054.8072 102.78832 1054.3373 96.572809 1056.0 94.0C1056.7376 92.858625 1056.973 93.262911 1056.9847 95.690983C1056.9931 97.446024 1057.3436 99.094346 1057.7636 99.353922C1058.1836 99.613498 1060.6991 97.914925 1063.3536 95.579316L1068.18 91.332755L1066.9317 87.166377C1066.2451 84.87487 1065.0986 83.0 1064.3839 83.0C1063.6691 83.0 1061.8976 85.025 1060.4471 87.5C1058.9967 89.975 1057.6162 92.0 1057.3793 92.0C1056.7555 92.0 1059.9841 85.940655 1062.2175 82.919788C1063.8359 80.730741 1064.1793 78.181976 1064.4825 66.107546L1064.84 51.875516L1061.7113 46.842534C1057.9793 40.838896 1056.8211 30.922578 1059.4607 27.573001C1060.296 26.513151 1061.1131 25.838151 1061.2765 26.073001C1061.4399 26.30785 1062.8558 28.4125 1064.4228 30.75C1065.9899 33.0875 1067.776 35.0 1068.3919 35.0C1069.0078 35.0 1070.1481 33.5375 1070.9259 31.75C1073.6837 25.411838 1075.0943 23.833396 1076.7631 25.21835C1077.5937 25.907678 1079.1158 28.437161 1080.1455 30.839423C1081.4535 33.890794 1082.4627 35.036412 1083.4942 34.640587C1084.6902 34.181647 1084.7573 34.415797 1083.8472 35.873013C1082.598 37.873425 1083.5379 47.0 1084.9932 47.0C1086.6845 47.0 1090.0016 41.145797 1091.1642 36.109034C1092.5324 30.181632 1091.8806 28.917252 1088.8342 31.589464C1086.3482 33.770217 1087.0422 32.252667 1090.8506 27.180761C1092.961 24.370252 1093.4809 24.107895 1094.2426 25.468995C1096.2389 29.036163 1091.46 47.484197 1088.6419 47.089822C1088.2888 47.04042 1087.9679 47.3375 1087.9287 47.75C1087.8895 48.1625 1087.2594 49.175 1086.5283 50.0C1085.5239 51.133537 1085.258 55.16463 1085.44 66.5C1085.6669 80.626785 1085.8451 81.845769 1088.5006 87.439582C1090.3726 91.383071 1091.3249 95.004507 1091.3341 98.215536C1091.3534 104.88047 1090.0463 105.84504 1085.8728 102.24595C1080.8874 97.946778 1079.1508 97.57501 1077.8091 100.51971C1076.1175 104.23222 1073.7473 103.52916 1071.0 98.5C1069.648 96.025 1068.2472 94.0 1067.8872 94.0C1067.1505 94.0 1061.0358 100.77943 1059.5 103.29901C1058.7443 104.53878 1058.0724 104.69053 1056.75 103.92012Z M1067.0 41.297382C1067.0 39.928629 1066.1732 37.614274 1065.1627 36.15437C1064.1522 34.694467 1063.0413 32.7125 1062.6941 31.75C1062.3469 30.7875 1061.5429 30.0 1060.9076 30.0C1059.0801 30.0 1060.3249 40.59652 1062.4249 42.917064C1064.6522 45.378187 1067.0 44.547019 1067.0 41.297382Z M1077.8772 93.063894C1082.9433 81.287461 1084.2205 65.538458 1081.5319 48.0C1079.9232 37.506132 1077.078 27.837767 1075.442 27.305537C1074.2714 26.924705 1070.5629 35.52545 1069.5372 41.0C1067.3763 52.533379 1066.9523 56.428428 1066.9444 64.819769C1066.9394 70.135615 1067.6215 76.794665 1068.532 80.319769C1072.334 95.039872 1073.4022 98.0 1074.912 98.0C1075.375 98.0 1076.7093 95.778752 1077.8772 93.063894Z M1089.2376 96.443772C1088.9662 91.436366 1086.1722 84.34659 1084.6107 84.702964C1083.6923 84.912546 1079.6284 95.961783 1080.2435 96.576818C1081.9672 98.300509 1087.7118 101.76139 1088.5 101.55099C1089.05 101.40417 1089.3819 99.105924 1089.2376 96.443772Z"/>
</svg>
