<?xml version="1.0" encoding="UTF-8"?>
<svg xmlns="http://www.w3.org/2000/svg" viewBox="782.12 15.93 79.19 91.22">
  <path d="M833.93879 100.88563C833.27936 99.653476 833.06728 97.037005 833.43051 94.614845C834.01523 90.715637 833.79841 90.212188 829.9268 86.479215L825.79979 82.5L823.4389 85.5C822.1404 87.15 819.59795 90.483191 817.789 92.90709C815.98005 95.33099 813.27347 98.223162 811.77438 99.33414C809.12811 101.29529 808.98982 101.30077 807.02438 99.522062C802.46416 95.395123 805.10292 88.404579 814.63566 79.358427C817.03605 77.080562 819.0 74.415924 819.0 73.43701C819.0 71.140122 810.52673 63.0 808.13584 63.0C807.12987 63.0 804.74877 64.513144 802.8445 66.362541C797.36081 71.688236 795.89971 72.172182 792.26068 69.868114C787.24198 66.690497 785.72282 60.522229 786.18377 45.193956C786.50819 34.405697 786.90515 31.854649 788.82793 28.201278C791.50042 23.123427 793.53931 22.042336 795.57343 24.624575C796.65341 25.995563 796.88314 27.84486 796.42755 31.5C796.08477 34.25 795.64116 38.75 795.44174 41.5C795.24232 44.25 794.81714 47.956194 794.4969 49.735986C794.17665 51.515778 794.4121 53.901491 795.02011 55.037571C795.62812 56.17365 795.95845 58.092456 795.75418 59.301585C795.39995 61.398289 795.32026 61.372842 794.03158 58.751561C792.90725 56.464561 792.89216 53.549506 793.9417 41.388784C795.04723 28.57945 795.01727 26.588701 793.69913 25.270558C792.36061 23.932041 792.06283 24.014076 790.99113 26.01658C787.67861 32.206072 786.41032 53.67179 788.9103 61.234363C790.12482 64.908344 794.11098 69.0 796.47572 69.0C797.13902 69.0 799.518 67.2 801.76234 65.0C807.20687 59.663013 810.21945 59.680553 816.35921 65.084987C822.23286 70.255183 822.69947 74.322382 817.9197 78.687148C808.62383 87.175913 806.40708 90.50149 807.40205 94.465773C808.90337 100.4475 813.43024 97.991895 819.58766 87.855689C821.47508 84.748668 823.75993 81.922363 824.66512 81.575011C826.59465 80.834582 833.49834 85.304742 835.76285 88.760819C836.97376 90.608893 837.051 91.592661 836.14185 93.588017C834.61941 96.929403 834.67781 100.26842 836.25 99.771881C837.352 99.423837 843.89888 88.492317 843.97188 86.878425C843.98735 86.536558 841.51379 83.829332 838.47509 80.862367C834.36646 76.85072 832.79622 74.519122 832.34957 71.766737C831.79514 68.3502 832.1076 67.71703 836.41286 63.532796C843.83493 56.319376 849.82826 58.10507 851.50497 68.029437C852.27657 72.596478 853.4915 73.162177 854.43707 69.394696C855.41861 65.483949 854.04059 58.357419 851.60018 54.723498C848.6268 50.295945 845.21322 50.08195 838.95779 53.930954C832.8835 57.668503 831.23972 57.760723 829.97525 54.4349C828.62403 50.880934 828.78179 45.693834 830.48566 37.651909L831.93659 30.803817L828.77233 26.866323C825.24905 22.482063 823.60186 22.306844 820.83126 26.021595C818.98572 28.496045 818.98903 28.654963 821.00834 34.521595C823.5189 41.815422 824.60363 53.465989 823.12447 57.25C822.02811 60.054723 818.01502 61.225909 817.98469 58.75C817.97264 57.766683 817.80264 57.762481 817.18784 58.730307C816.60624 59.645881 815.47255 59.32611 812.75621 57.480307C807.94031 54.207821 805.00322 54.343425 801.5 58.0C798.27177 61.369548 796.75744 61.865125 797.6804 59.25C799.92295 52.895886 805.56997 51.468845 814.04477 55.114605C821.55331 58.344693 822.41554 57.544558 821.68166 48.027725C821.34563 43.670208 820.38072 38.453622 819.53742 36.435311C818.22122 33.2852 817.68529 32.871743 815.75207 33.514974C812.67694 34.538147 808.06805 34.472519 807.01127 33.390509C806.53291 32.900729 805.8823 31.15 805.56548 29.5L804.98943 26.5L806.49758 29.75C807.98627 32.958056 809.97074 33.71593 813.41821 32.393011C817.77267 30.72205 813.06642 24.469716 808.01253 25.211469C806.08994 25.493645 805.07867 25.258385 805.30141 24.580758C805.88019 22.819947 809.78232 22.744926 813.1595 24.429681C817.34101 26.515693 817.6161 26.472114 821.95395 23.036474L825.69571 20.072947L828.53494 23.036474C831.89106 26.5395 833.15892 26.68171 836.8308 23.966975C840.73098 21.083449 844.83433 20.973974 846.6871 23.704015C848.06978 25.741379 847.98419 26.106722 845.55513 28.535779C843.2943 30.796611 842.38306 31.071564 839.02911 30.504918C835.4177 29.894774 835.01564 30.069069 833.56542 32.873495C832.48319 34.9663 832.0 38.693974 832.0 44.95034C832.0 55.318035 832.15841 55.45462 839.59602 51.5C842.18204 50.125 845.32133 49.0 846.57221 49.0C850.47841 49.0 854.5512 53.402047 856.28551 59.498546C857.70554 64.490299 857.71522 65.595969 856.37829 70.097888C855.12134 74.330494 854.54321 75.074845 852.71681 74.812059C851.02777 74.569035 850.39004 73.570091 849.83407 70.296539C848.72036 63.738924 847.41366 62.0 843.59967 62.0C838.75353 62.0 835.0 65.309025 835.0 69.581268C835.0 72.354413 836.06117 74.171662 840.5 79.0C843.525 82.290444 846.0 85.682731 846.0 86.538417C846.0 89.097179 837.93004 103.0 836.4448 103.0C835.68886 103.0 834.56116 102.04853 833.93879 100.88563Z M844.81955 26.25C845.08724 24.365157 844.6734 24.0 842.26955 24.0C839.18907 24.0 837.0 25.562125 837.0 27.760365C837.0 28.720852 838.10231 29.029499 840.75 28.810365C843.76222 28.561062 844.56287 28.057329 844.81955 26.25Z"/>
</svg>
