<?xml version="1.0" encoding="UTF-8"?>
<svg xmlns="http://www.w3.org/2000/svg" viewBox="3186.16 10.75 74.03 93.59">
  <path d="M3215.1233 94.42962C3210.7799 88.907868 3211.3595 79.170102 3216.4807 71.623516C3218.8898 68.073584 3218.9182 67.836129 3217.3916 64.020574C3215.6453 59.65615 3209.0483 55.0 3204.6109 55.0C3202.1467 55.0 3198.0 58.370099 3198.0 60.372837C3198.0 60.92048 3198.9054 63.23881 3200.0119 65.524683C3201.9003 69.425472 3201.9294 69.951729 3200.4856 74.090407C3198.642 79.3753 3196.4736 81.323831 3193.9431 79.96957C3189.5294 77.607422 3191.1928 66.198109 3197.1258 58.138932C3200.2611 53.880164 3200.4439 53.790459 3204.9182 54.314812C3207.4382 54.610134 3210.5729 55.178389 3211.8842 55.577601C3214.2679 56.303313 3214.2682 56.302409 3213.4503 50.40172C3213.0004 47.155774 3212.6025 40.329779 3212.5662 35.232842C3212.5025 26.318085 3212.3817 25.833244 3209.39 22.482842C3207.6795 20.567279 3205.7416 19.0 3205.0836 19.0C3203.0585 19.0 3198.0418 25.260241 3197.4228 28.559703C3197.0108 30.755944 3197.4537 32.69526 3198.9147 35.09167C3201.8952 39.980734 3201.6945 45.498819 3198.459 47.618798C3195.3313 49.668175 3191.0 48.188531 3191.0 45.07066C3191.0 41.060356 3193.3166 32.367298 3195.5491 28.0C3198.0045 23.19682 3203.2511 17.0 3204.8624 17.0C3205.3987 17.0 3207.3231 18.575 3209.1388 20.5C3210.9545 22.425 3212.9759 24.0 3213.6308 24.0C3214.2858 24.0 3215.8019 21.975 3217.0 19.5C3218.1981 17.025 3219.7766 15.0 3220.5076 15.0C3222.0771 15.0 3225.5549 20.341324 3226.5305 24.25C3227.2852 27.274102 3227.9912 27.608789 3229.8 25.8C3230.6644 24.935633 3231.0 24.919126 3231.0 25.740983C3231.0 26.368524 3230.5549 27.157055 3230.0109 27.493275C3229.4251 27.855319 3229.0914 33.486036 3229.1925 41.302292C3229.2864 48.561031 3229.0333 55.905443 3228.63 57.623208C3227.6012 62.005505 3229.3452 62.30142 3236.3137 58.926951C3241.6974 56.319945 3245.0 55.994958 3245.0 58.072193C3245.0 58.544211 3246.2894 60.408566 3247.8654 62.215204C3255.1263 70.538791 3256.8295 78.672324 3252.4111 83.923275C3249.1894 87.75203 3247.6265 87.780322 3243.9231 84.076923C3240.4791 80.632954 3240.24 77.680501 3242.6673 68.571218C3245.2243 58.975089 3243.3461 56.922718 3235.7388 61.0C3233.6865 62.1 3231.1322 63.0 3230.0626 63.0C3227.4454 63.0 3226.7941 64.328331 3227.9372 67.334811C3229.4577 71.334042 3229.9768 81.123294 3228.9191 85.852346C3226.7316 95.632893 3219.5715 100.08456 3215.1233 94.42962Z M3196.4182 46.393011C3198.5208 45.58619 3198.5915 37.735823 3196.5118 36.009821C3195.3207 35.021299 3194.9388 35.046762 3194.5984 36.137376C3193.5848 39.38468 3193.0992 44.094902 3193.6342 45.489062C3194.2953 47.211936 3194.2893 47.20997 3196.4182 46.393011Z M3197.9648 76.065741C3199.5205 73.158831 3199.2142 67.42262 3197.4238 65.936747C3195.2129 64.10188 3194.0349 66.226241 3194.0153 72.083333C3193.9949 78.178945 3195.8388 80.038187 3197.9648 76.065741Z M3224.4578 90.662142C3227.4967 85.476679 3227.8897 77.263965 3225.3969 71.034047C3223.9976 67.536832 3223.9641 66.358599 3225.1333 61.76381C3227.1764 53.73406 3226.8247 32.895205 3224.5238 25.654567C3223.5021 22.439578 3222.0447 19.570637 3221.285 19.279142C3219.6359 18.646302 3217.2216 21.523035 3216.4839 25.0C3216.1922 26.375 3215.4863 29.583133 3214.9153 32.129185C3213.5039 38.422568 3216.1748 52.500088 3221.0816 64.629787C3222.2507 67.519631 3222.1058 68.124799 3219.1922 72.523534C3215.295 78.407174 3214.3716 82.947391 3215.9739 88.346461C3218.3506 96.354857 3220.7396 97.006926 3224.4578 90.662142Z M3246.4929 50.011454C3246.8322 49.462477 3246.4673 49.267176 3245.6723 49.572243C3244.8401 49.891616 3243.3103 48.944934 3242.0181 47.310788C3240.1611 44.962486 3239.8901 43.689901 3240.3711 39.576575C3240.6878 36.868692 3241.4088 34.191192 3241.9734 33.626575C3244.5018 31.098245 3240.7601 18.794139 3237.9846 20.509519C3237.4431 20.844202 3237.0 20.689621 3237.0 20.166006C3237.0 19.351286 3239.2424 18.0 3240.5944 18.0C3240.8313 18.0 3242.0845 20.3625 3243.3792 23.25C3244.6739 26.1375 3246.9183 31.058665 3248.3666 34.185923C3251.3545 40.637241 3251.7157 45.533126 3249.4433 48.777494C3247.9495 50.910217 3245.2361 52.045064 3246.4929 50.011454Z M3248.393 46.418213C3250.1408 41.863419 3248.0795 35.0 3244.9638 35.0C3241.8323 35.0 3241.7128 42.70951 3244.7893 46.25C3246.6719 48.416499 3247.6094 48.46026 3248.393 46.418213Z M3251.9984 78.095012C3251.9966 73.793115 3249.122 67.6214 3246.9306 67.214402C3245.7847 67.001569 3245.0427 68.302913 3244.1806 72.037755C3242.4993 79.321668 3242.6716 80.596518 3245.6543 82.942738C3248.1434 84.900627 3248.4236 84.92663 3250.1543 83.360331C3251.2974 82.325914 3251.9994 80.321395 3251.9984 78.095012Z"/>
</svg>
