<?xml version="1.0" encoding="UTF-8"?>
<svg xmlns="http://www.w3.org/2000/svg" viewBox="3915.25 17.62 33.75 52.35">
  <path d="M 3917.25,57.65625 3918.7812,59.59375 C 3920.4421,59.287636 3921.9025,58.627757 3923.1875,57.25 3926.6128,53.577539 3928.1338,50.492749 3929.5,44.5 3930.4829,40.188337 3930.9719,39.5 3933.0625,39.5 3934.7641,39.5 3935.6019,40.118801 3935.8125,41.59375 3936.208,44.363264 3927.0218,64.913539 3924.875,66.0625 3924.7005,66.155911 3924.2089,66.131009 3923.9375,66.1875 L 3925.0312,67.59375 C 3927.4515,66.093143 3929.3945,62.646813 3933.0625,55.15625 3937.6929,45.700105 3938.3361,44.824403 3940.5625,45.25 3943.9126,45.890415 3943.6346,45.161174 3938.625,40.1875 3935.0244,36.612745 3933.8486,35.988843 3931.6875,36.53125 3930.256,36.890525 3928.5462,37.822712 3927.9062,38.59375 3927.2664,39.364788 3925.4277,40 3923.8125,40 3921.941,40 3921.1315,40.396404 3921.5625,41.09375 3921.9344,41.695543 3923.3145,41.969273 3924.625,41.71875 3926.6759,41.326699 3927,41.655763 3927,44.0625 3927,49.655931 3921.767,58 3918.25,58 3918.1584,58 3917.4218,57.693225 3917.25,57.65625 z M 3936.5938,20 C 3935.9261,20 3933.8318,21.171282 3931.9375,22.59375 3930.0431,24.016217 3927.375,25.650659 3926,26.21875 3924.3896,26.884089 3923.9858,27.402176 3924.8438,27.71875 3925.5763,27.989052 3928.1444,26.799042 3930.5625,25.0625 3935.6219,21.42906 3936.313,21.586117 3942.4375,27.90625 3946.9039,32.515168 3947,32.580944 3947,30.46875 3947,28.672943 3938.3783,20 3936.5938,20 z M 3935.375,28 C 3935.0457,28 3922.5041,34.256286 3922.0938,34.625 3921.8646,34.830944 3921.9045,35.217085 3922.1875,35.5 3922.4704,35.782914 3925.2577,34.847685 3928.4062,33.40625 3934.0702,30.813242 3934.1579,30.822042 3936.3125,32.71875 3937.5102,33.773118 3939.625,35.349695 3941,36.25 3943.7053,38.021313 3945,38.382761 3945,37.34375 3945,36.803166 3935.9321,28 3935.375,28 z"/>
</svg>
