<?xml version="1.0" encoding="UTF-8"?>
<svg xmlns="http://www.w3.org/2000/svg" viewBox="1906.97 15.22 79.26 94.21">
  <path d="M1945.993 102.49154C1944.8142 101.07115 1944.9932 97.651272 1946.5169 92.482619C1947.248 90.002644 1942.3083 83.089883 1939.7668 83.036444C1937.2784 82.984118 1932.8787 91.921818 1934.3006 94.140773C1935.7823 96.453036 1933.942 102.38749 1931.6037 102.83781C1929.4867 103.24551 1922.2907 96.724943 1920.8822 93.122681C1919.7962 90.345011 1921.7222 86.560126 1928.0264 79.083746C1930.443 76.217827 1932.0 73.346838 1932.0 71.756845C1932.0 68.862906 1926.223 62.0 1923.7869 62.0C1921.0898 62.0 1918.7419 65.882418 1917.6087 72.216148C1916.2942 79.563243 1914.1157 80.974332 1912.2126 75.711384C1910.5688 71.165543 1910.7595 61.174959 1912.5602 57.5C1913.3687 55.85 1913.8146 55.282019 1913.5511 56.237821C1911.5904 63.350924 1912.2403 75.807181 1914.5448 75.282514C1915.0701 75.162897 1915.745 73.031614 1916.0444 70.546329C1917.0113 62.521796 1922.5201 58.067265 1927.9099 60.951779C1929.0147 61.543073 1931.0889 63.561071 1932.5191 65.436219C1936.1863 70.244128 1935.2065 74.36848 1928.3838 82.843696C1925.4366 86.504663 1923.0196 90.193806 1923.0127 91.041792C1922.9976 92.880434 1931.3404 101.32623 1932.2617 100.40495C1932.6138 100.0529 1932.6573 97.230262 1932.3585 94.132427C1931.8457 88.815888 1932.0192 88.233602 1935.4534 83.75C1937.4544 81.1375 1939.4297 79.0 1939.8429 79.0C1940.9315 79.0 1947.5659 86.114148 1948.8922 88.703725C1949.7752 90.427777 1949.6628 91.802395 1948.3757 95.01902C1947.2545 97.821133 1947.0563 99.456327 1947.7534 100.15338C1948.4504 100.85042 1949.9265 99.44312 1952.3881 95.734575C1956.5581 89.452221 1956.7227 88.233643 1954.0037 83.77417C1951.9829 80.459721 1951.3212 77.462465 1952.814 78.385057C1953.2617 78.661757 1954.6665 80.907343 1955.9358 83.375247C1958.5472 88.452635 1958.206 90.564071 1953.6529 97.501054C1948.957 104.65564 1948.1989 105.14952 1945.993 102.49154Z M1948.8893 73.25C1948.2813 63.636826 1952.4011 61.549324 1959.0855 68.083583C1960.7264 69.687612 1962.4884 71.0 1963.0011 71.0C1964.5042 71.0 1971.0 64.070138 1971.0 62.466667C1971.0 60.714027 1970.5128 60.655171 1967.8411 62.085031C1964.9952 63.608097 1962.1251 62.613884 1957.5683 58.52661C1953.3298 54.724766 1950.5052 54.150643 1947.4411 56.468197C1942.6921 60.060162 1941.1355 57.610119 1941.5481 47.193072C1941.7052 43.227156 1942.3383 41.268802 1944.0535 39.443072C1945.3158 38.099382 1946.8482 37.0 1947.4587 37.0C1948.8118 37.0 1952.0 31.801776 1952.0 29.595708C1952.0 27.411985 1951.6355 27.518921 1945.8902 31.38799C1938.3771 36.447606 1934.8807 34.285082 1936.3121 25.464037C1936.618 23.578972 1936.4356 21.769225 1935.9068 21.442377C1934.179 20.374578 1925.9972 25.104751 1924.4727 28.052752C1922.5878 31.69773 1922.568 38.396612 1924.4376 39.94819C1925.3813 40.73139 1927.4328 40.907683 1930.4092 40.461343C1934.5961 39.833488 1935.0316 39.975253 1936.0965 42.312485C1937.4083 45.191534 1936.4681 57.592669 1934.8628 58.584786C1934.3237 58.917993 1932.2215 58.122903 1930.1913 56.81792C1923.8483 52.74074 1922.1252 52.002371 1918.7636 51.921053L1915.5 51.842105L1918.1655 50.865883C1920.3647 50.060429 1921.8325 50.424096 1926.5563 52.94483C1929.7052 54.625174 1932.6194 56.0 1933.0324 56.0C1934.3618 56.0 1935.0067 51.327677 1934.3442 46.494598L1933.6997 41.792404L1929.7233 42.428263C1924.1967 43.311987 1921.0 41.138467 1921.0 36.497183C1921.0 32.742831 1923.7153 25.0 1925.0319 25.0C1925.4799 25.0 1927.2395 23.827939 1928.9419 22.395421C1930.7178 20.901095 1933.4147 19.728853 1935.2686 19.645421L1938.5 19.5L1938.7977 25.75C1939.1574 33.300135 1939.9104 33.509755 1946.8808 28.0C1953.0657 23.111109 1955.0 22.884702 1955.0 27.04966C1955.0 31.351312 1952.7102 35.26942 1948.0301 38.976159C1944.1453 42.052945 1944.0 42.379285 1944.0 48.025012C1944.0 51.246337 1944.3953 54.126301 1944.8785 54.424932C1945.3617 54.723563 1947.1116 54.292187 1948.7671 53.466317C1952.2305 51.738546 1954.1553 52.316318 1960.5 56.988194C1962.7 58.608144 1965.2379 59.948507 1966.1399 59.966779C1968.2662 60.009856 1972.0 52.114878 1972.0 47.575626C1972.0 44.545005 1971.578 43.976873 1968.5007 42.864075C1966.576 42.168116 1965.3841 41.215871 1965.852 40.747975C1966.3199 40.28008 1968.6098 40.660298 1970.9406 41.592906C1975.1046 43.259017 1975.1703 43.360078 1974.7108 47.394278C1974.4536 49.652425 1973.9325 52.625 1973.5528 54.0C1973.0309 55.889722 1973.1098 56.11852 1973.8761 54.937269C1975.3444 52.673716 1978.6775 39.44855 1979.4653 32.760329C1980.6232 22.929868 1979.0593 21.167516 1971.274 23.529778C1965.6884 25.224618 1964.1985 25.375826 1965.55 24.110713C1966.0725 23.621606 1969.1353 22.470134 1972.3563 21.551888C1977.859 19.983141 1978.3268 19.985814 1980.1063 21.596163C1982.6226 23.873432 1982.5996 30.809928 1980.0351 43.090901C1977.5074 55.194918 1976.3814 58.392153 1972.4735 64.560314C1967.1933 72.8945 1962.3491 74.198061 1956.5915 68.834065C1953.5511 66.001489 1951.5512 66.89899 1951.1896 71.258317C1950.879 75.003758 1949.0978 76.545946 1948.8893 73.25Z M1966.5897 33.854931C1967.2397 32.803176 1972.0009 32.710797 1971.9977 33.75C1971.9965 34.1625 1970.6603 34.547219 1969.0284 34.604931C1967.3965 34.662642 1966.2991 34.325142 1966.5897 33.854931Z"/>
</svg>
