<?xml version="1.0" encoding="UTF-8"?>
<svg xmlns="http://www.w3.org/2000/svg" viewBox="2695.97 17.56 71.35 93.01">
  <path d="M2720.6485 105.31512C2719.6348 104.30144 2719.8879 98.0779 2721.0296 95.944609C2721.5959 94.88646 2723.4258 93.314062 2725.0959 92.450392C2727.8092 91.047319 2728.059 90.540349 2727.442 87.690042C2725.4597 78.533034 2717.5928 67.295326 2715.2432 70.26436C2712.5493 73.668435 2711.6592 77.372955 2710.896 88.356131C2710.4382 94.945292 2709.6183 100.78166 2709.0742 101.32583C2707.631 102.76895 2705.2539 100.4476 2702.9132 95.309494C2699.2135 87.188046 2700.5076 74.104217 2706.1263 62.824804C2709.3415 56.370139 2711.6462 55.129699 2716.3108 57.343173C2723.7394 60.868273 2729.3173 63.016079 2729.7971 62.536189C2730.0799 62.253448 2729.9037 58.529639 2729.4056 54.261058L2728.5 46.5L2721.8857 45.414692C2718.0326 44.782468 2713.915 43.363584 2712.0224 42.015931C2709.0117 39.872153 2708.8101 39.377071 2709.2735 35.265627C2709.6407 32.007982 2710.6532 29.921313 2713.083 27.414387C2718.5385 21.785691 2723.1693 23.230418 2732.065 33.336519L2736.1428 37.969136L2742.4812 34.546796C2750.051 30.459624 2754.8473 29.360827 2757.1155 31.194207C2759.1997 32.878924 2761.231 45.26228 2759.968 48.584248C2758.3119 52.940135 2754.7004 50.96492 2752.0434 44.25C2750.6858 40.819264 2747.6594 39.839365 2746.6384 42.5C2746.3218 43.325 2745.4085 44.0 2744.6089 44.0C2743.8093 44.0 2742.6459 45.542839 2742.0236 47.428531C2740.4442 52.214005 2742.6036 63.0 2745.1411 63.0C2746.0986 63.0 2747.1643 62.543182 2747.5094 61.984849C2747.8544 61.426515 2749.79 60.27894 2751.8106 59.434682C2755.9001 57.725966 2760.0 58.749199 2760.0 61.478561C2760.0 62.315353 2760.4019 63.0 2760.893 63.0C2762.4031 63.0 2763.0892 66.085693 2763.6229 75.277527C2764.077 83.100219 2763.8399 84.876505 2761.5375 90.901906C2756.2634 104.70406 2754.206 104.30817 2754.1532 89.480991C2754.116 79.036919 2752.5657 71.65882 2750.5438 72.303723C2748.8392 72.847445 2743.0 83.221068 2743.0 85.705763C2743.0 87.961683 2741.6148 88.803844 2740.6014 87.164078C2739.2971 85.053604 2748.6729 69.0 2751.2099 69.0C2753.6363 69.0 2756.4724 80.041252 2756.9895 91.5C2757.0538 92.925473 2757.6644 92.350947 2759.1153 89.5C2760.8288 86.132744 2761.0896 84.076327 2760.7637 76.5C2760.1538 62.316932 2757.2419 58.686346 2749.7003 62.705603C2747.9402 63.643684 2746.1625 64.318684 2745.75 64.205603C2745.3375 64.092521 2745.0 64.481298 2745.0 65.069551C2745.0 65.657804 2743.9875 65.995304 2742.75 65.819551C2740.7549 65.536203 2740.4004 64.68792 2739.621 58.33213C2738.3557 48.014961 2739.4839 45.158268 2746.75 40.280439C2748.7695 38.924729 2749.2561 38.937802 2751.5 40.408043C2752.875 41.308978 2754.0 42.849724 2754.0 43.831923C2754.0 46.068658 2756.5987 49.734625 2757.5265 48.806784C2758.6234 47.709918 2758.1595 36.166518 2756.9259 33.861542C2756.0396 32.205528 2755.1495 31.879414 2752.6532 32.296201C2749.3357 32.8501 2742.3394 35.889871 2737.8208 38.740631L2735.1416 40.430926L2728.8208 33.773434C2721.0352 25.573061 2717.7045 24.383372 2714.3319 28.598157C2710.1596 33.812416 2711.8035 39.2553 2718.5123 42.438797C2720.7456 43.498586 2723.1588 43.904396 2724.9232 43.516877C2729.0859 42.602579 2730.4475 44.651359 2731.8752 53.977721C2732.9938 61.284507 2732.9536 62.393753 2731.5132 63.98537C2729.9572 65.704732 2729.7474 65.702496 2726.1966 63.928735C2717.7813 59.724843 2712.8843 57.830435 2711.6535 58.302727C2710.2182 58.8535 2705.8189 67.449085 2704.095 73.070998C2702.5266 78.185711 2702.7447 87.144776 2704.5423 91.447095C2706.5849 96.335547 2708.1675 95.560359 2708.6024 89.458499C2709.5799 75.740626 2710.8647 71.017032 2714.4211 68.0655C2718.6545 64.552062 2725.4303 71.707195 2729.0899 83.555563C2731.4222 91.106756 2731.2263 92.301558 2727.3504 94.164704C2723.6556 95.94083 2721.0594 100.45935 2722.7578 102.15779C2723.7291 103.1291 2724.5634 102.96077 2726.7431 101.3537C2730.5664 98.534924 2734.6523 97.96604 2739.2991 99.605529C2744.2958 101.36847 2744.0 101.43866 2744.0 98.490213C2744.0 97.109829 2743.1 95.209821 2742.0 94.267972C2739.9887 92.545873 2739.2882 90.0 2740.8257 90.0C2742.4423 90.0 2745.7947 94.550231 2746.4443 97.626288C2746.9156 99.857865 2746.6399 101.21727 2745.4809 102.37629C2743.5094 104.34771 2743.756 104.34273 2739.3458 102.5C2734.5376 100.49102 2731.0598 100.60997 2728.5645 102.86876C2726.3054 104.91366 2721.6773 106.34395 2720.6485 105.31512Z"/>
</svg>
