<?xml version="1.0" encoding="UTF-8"?>
<svg xmlns="http://www.w3.org/2000/svg" viewBox="633.58 17.1 21.93 85.8">
  <path d="M640.62402 95.620113C636.8911 87.753571 635.58199 79.809248 635.66065 65.5C635.70298 57.8 636.24985 49.25 636.87591 46.5C637.50197 43.75 638.48851 38.802709 639.06823 35.506021C640.26357 28.708419 643.375 21.0 644.92345 21.0C646.9428 21.0 649.86303 28.740005 651.54627 38.5536C653.51585 50.03665 653.07033 72.618444 650.68911 82.0C648.97145 88.767261 644.44488 99.0 643.16897 99.0C642.65137 99.0 641.50615 97.479051 640.62402 95.620113Z M646.4707 88.653509C647.86182 85.712938 649.0 81.962938 649.0 80.320175C649.0 78.677412 649.27672 77.056609 649.61494 76.718391C650.56432 75.769015 650.62978 65.80638 649.78063 51.5C649.0408 39.035288 647.46601 30.42389 645.18833 26.387991C644.2215 24.674846 643.99045 24.824133 642.6934 28.0C637.46991 40.789917 636.73015 80.00797 641.47205 92.75C642.39012 95.216955 643.98341 93.911223 646.4707 88.653509Z"/>
</svg>
