<?xml version="1.0" encoding="UTF-8"?>
<svg xmlns="http://www.w3.org/2000/svg" viewBox="2228.12 15.77 92.34 92.01">
  <path d="M2252.8084 101.25C2248.9629 96.768066 2245.0 89.912218 2245.0 87.741269C2245.0 85.197847 2249.5974 77.579285 2252.979 74.51903C2254.0905 73.513077 2255.0 72.201166 2255.0 71.603672C2255.0 69.709991 2247.8147 60.0 2246.4134 60.0C2244.3974 60.0 2242.8867 63.540628 2241.571 71.349436C2240.9203 75.211129 2239.897 78.534342 2239.2969 78.734352C2237.3897 79.370115 2233.9352 73.248465 2233.3333 68.166115C2232.3146 59.565177 2238.1487 47.0 2243.1608 47.0C2245.4958 47.0 2254.0 51.782021 2254.0 53.095022C2254.0 53.59276 2255.125 54.0 2256.5 54.0C2258.3213 54.0 2259.0 53.464772 2259.0 52.028421C2259.0 48.164951 2255.6786 34.475728 2254.4051 33.090373C2253.6666 32.286999 2251.0577 31.641878 2248.339 31.590373C2244.331 31.514444 2243.3737 31.110563 2242.349 29.063328C2241.4532 27.273432 2241.4174 26.078978 2242.2144 24.563328C2244.4944 20.227438 2247.1203 19.947794 2250.5729 23.673201C2253.0072 26.299839 2253.1065 26.317365 2256.2752 24.679367C2258.0488 23.762498 2260.2699 22.460492 2261.2108 21.78602C2262.6428 20.759498 2263.669 21.086568 2267.5095 23.793587L2272.0974 27.027464L2275.3931 24.513732C2277.2057 23.131179 2279.4017 22.0 2280.273 22.0C2282.5482 22.0 2285.017 24.792109 2284.3284 26.586513C2283.858 27.812501 2283.5199 27.673917 2282.6209 25.886543C2280.9856 22.63522 2279.3859 22.523152 2276.4545 25.454545C2273.4793 28.429781 2273.6331 29.977131 2277.079 31.735258C2279.4962 32.96857 2279.4951 32.97054 2276.3666 32.985258C2272.6964 33.002526 2272.0264 34.549334 2272.029 43.0C2272.031 49.864671 2272.9665 51.62347 2275.8071 50.103245C2278.7199 48.544365 2278.9556 48.60583 2285.0 52.5C2287.9879 54.425 2291.1741 56.0 2292.0804 56.0C2293.7888 56.0 2295.5133 52.215708 2298.4482 42.026688L2300.0248 36.553375L2296.5124 31.453503C2292.9242 26.243551 2292.3989 25.0 2293.7865 25.0C2295.3505 25.0 2302.0 35.006625 2302.0 37.360257C2302.0 40.723876 2297.097 55.12932 2295.2304 57.25C2292.9204 59.874321 2290.2171 59.393076 2284.2733 55.299445L2278.9003 51.598891L2275.3438 53.514205C2271.8295 55.406788 2271.7696 55.406201 2270.2969 53.46476C2269.0874 51.870265 2268.9255 49.400832 2269.4374 40.361061L2270.0683 29.222122L2266.9572 26.111061C2263.2295 22.383338 2261.9607 22.269564 2258.388 25.342643L2255.6646 27.685286L2258.3831 36.222899C2260.4288 42.64732 2261.0272 46.337122 2260.8008 51.130256C2260.5049 57.396937 2260.4554 57.496937 2257.7424 57.31069C2256.2257 57.20657 2253.0757 55.579287 2250.7424 53.694505C2245.6827 49.607424 2244.0725 48.975832 2241.7533 50.168563C2237.2887 52.464615 2233.6181 66.188989 2236.4046 70.167327C2237.5498 71.802221 2238.0361 71.990599 2238.3549 70.922699C2241.3046 61.040828 2244.3905 56.0 2247.4903 56.0C2249.0018 56.0 2254.4639 62.82812 2257.6795 68.737371L2259.4412 71.974742L2255.3684 76.237371C2250.0306 81.823939 2248.0 84.95926 2248.0 87.614368C2248.0 89.702426 2253.7108 97.842458 2255.25 97.948386C2256.3559 98.024494 2256.1614 94.170124 2254.9446 91.896486C2253.4488 89.101523 2254.3154 87.302038 2260.4331 80.5L2265.8295 74.5L2266.9581 77.5C2268.955 82.808051 2276.4096 92.991126 2278.7573 93.617868C2280.1017 93.976763 2281.9216 93.572041 2283.2573 92.61714C2284.4908 91.735306 2286.5058 90.285242 2287.7352 89.394774C2290.7464 87.21362 2294.3081 88.231745 2298.7467 92.542467C2302.6009 96.285642 2306.8455 97.096007 2309.0 94.5C2309.6847 93.675 2310.9345 93.0 2311.7774 93.0C2313.0368 93.0 2312.9708 93.374745 2311.4073 95.102379C2309.2711 97.462903 2304.7904 100.0 2302.7577 100.0C2302.0198 100.0 2299.185 97.976944 2296.4581 95.504319C2293.7311 93.031694 2291.005 91.006694 2290.4 91.004319C2289.7951 91.001944 2287.3996 92.376708 2285.0768 94.059352C2278.7813 98.61976 2276.5918 97.929039 2270.8244 89.563165C2268.1941 85.747906 2265.8655 82.147906 2265.6496 81.563165C2265.0478 79.932925 2261.8697 82.144707 2259.218 86.039215C2257.8827 88.000285 2257.2154 90.035747 2257.6094 90.945386C2259.1574 94.518868 2259.1504 98.121573 2257.5907 100.50188C2255.652 103.46082 2254.8174 103.59138 2252.8084 101.25Z M2250.5055 28.991051C2252.4556 25.835817 2247.3347 21.647409 2244.452 24.039826C2242.6707 25.518172 2242.5512 28.652243 2244.25 29.337719C2246.4441 30.223062 2249.8611 30.033698 2250.5055 28.991051Z M2294.37 84.510329C2291.8127 82.494367 2290.2729 82.084665 2285.955 82.271418C2280.8045 82.494184 2280.5852 82.389885 2277.335 78.172261C2273.5862 73.307519 2273.0137 68.807919 2275.5257 63.95034C2276.6068 61.859685 2277.7904 61.0 2279.5878 61.0C2282.2611 61.0 2291.3092 63.509707 2294.2105 65.055955C2295.1512 65.557344 2296.6137 65.701727 2297.4604 65.376806C2300.4717 64.221294 2308.0 45.310183 2308.0 38.90155C2308.0 35.850345 2310.5924 31.497103 2313.572 29.544773C2316.2627 27.78176 2316.1897 28.747544 2313.3835 32.039452C2312.6617 32.88615 2310.9346 38.272426 2309.5456 44.008954C2306.7767 55.444344 2301.3008 67.302259 2298.5388 67.844043C2297.5741 68.033266 2293.2864 67.177208 2289.0106 65.941692C2280.3727 63.445733 2278.4399 63.712737 2276.9595 67.606456C2275.6763 70.981572 2276.4184 73.267961 2280.1918 77.565706C2283.1514 80.93645 2286.2777 81.977788 2287.5 80.0C2288.5786 78.25473 2291.912 78.913358 2296.131 81.705393C2300.1407 84.358876 2300.2772 84.377464 2303.245 82.674169C2307.2855 80.355216 2308.2031 81.565016 2304.6942 84.585072C2301.138 87.645916 2298.3216 87.625527 2294.37 84.510329Z M2301.0726 26.365141C2297.7066 22.085965 2298.9313 20.056652 2302.5 24.0C2304.8672 26.615685 2306.2251 26.522899 2309.8176 23.5C2313.2056 20.649179 2314.0 20.434009 2314.0 22.367114C2314.0 23.920052 2306.7962 29.0 2304.594 29.0C2303.7971 29.0 2302.2125 27.814314 2301.0726 26.365141Z M2307.5 88.131314C2310.8667 86.046012 2311.9174 86.189653 2310.0201 88.475834C2309.3243 89.314125 2307.7977 89.997631 2306.6276 89.994735C2304.7685 89.990135 2304.8786 89.754988 2307.5 88.131314Z"/>
</svg>
