<?xml version="1.0" encoding="UTF-8"?>
<svg xmlns="http://www.w3.org/2000/svg" viewBox="742.34 18.53 78.74 91.89">
  <path d="M762.50555 96.877978C760.3009 93.306168 758.52997 89.009544 758.25427 86.563531C757.81271 82.646048 758.14958 81.937504 763.39086 75.75937C766.50881 72.084106 769.0 68.168151 769.0 66.942238C769.0 64.809997 761.23022 55.983202 759.38158 56.015313C756.28544 56.069092 754.07495 61.446949 754.02386 69.05C753.99805 72.890825 752.55687 75.0 749.95829 75.0C747.56926 75.0 745.92361 68.488696 746.66227 61.958726C747.6388 53.325878 750.70388 48.805703 756.75867 47.069211C759.20415 46.367859 760.97462 46.761829 765.88263 49.099499C773.29136 52.628244 774.0 52.666888 774.0 49.542154C774.0 47.685163 772.89583 46.437218 769.48329 44.437338C761.33321 39.661073 759.69211 33.972534 764.8387 28.337744C769.97709 22.711926 776.88852 23.22893 781.9117 29.614879C785.13179 33.708561 784.60324 37.390251 780.09298 42.283306C776.97228 45.668861 776.29133 47.073184 776.70955 49.260963C776.99753 50.767433 777.56318 52.0 777.96654 52.0C778.3699 52.0 780.56354 50.65 782.8413 49.0C785.11906 47.35 787.32408 46.00155 787.74134 46.003445C788.1586 46.00534 791.6176 48.70534 795.42801 52.003445C799.23841 55.30155 802.69325 58.0 803.10543 58.0C804.58569 58.0 807.90785 52.79351 809.51495 47.954977C810.41591 45.242453 811.17102 40.430415 811.19297 37.261558C811.24568 29.654418 811.75574 28.0 814.04834 28.0C816.6538 28.0 817.50134 31.566805 817.49378 42.5C817.48819 50.593627 817.16244 52.170198 814.25928 58.154857C810.77588 65.335607 806.52491 71.014233 804.66111 70.976482C804.0225 70.963547 800.13675 68.687222 796.0261 65.917982C789.62658 61.606785 788.22501 61.032079 786.2761 61.920061C782.48265 63.648475 783.36966 67.647549 789.5 76.454876C792.525 80.800831 794.99963 85.063874 794.99919 85.928306C794.99784 88.522173 791.66586 96.278899 789.06194 99.75C784.18511 106.25095 779.21793 102.50934 782.45142 94.770504C784.7655 89.232141 784.38809 87.336388 780.05067 82.711277L776.10135 78.5L773.06602 82.0C769.24856 86.401871 768.39692 89.443302 769.8537 93.471965C771.51739 98.072817 771.26552 100.78753 769.06574 101.96482C768.0019 102.53417 766.94086 103.0 766.70788 103.0C766.47489 103.0 764.58385 100.24509 762.50555 96.877978Z M787.26599 98.25C788.13278 97.2875 789.72917 94.243498 790.81354 91.485551C792.78201 86.479026 792.78192 86.464802 790.75705 82.485551C789.64162 80.293498 786.9544 76.259055 784.78547 73.520121C780.36114 67.933075 780.20809 64.536306 784.1897 60.298075C786.89599 57.41736 790.12419 57.360997 792.59501 60.151319C795.12262 63.005769 802.98761 68.0 804.95523 68.0C809.57844 68.0 817.21786 47.373115 815.3045 40.056397C814.61121 37.405271 813.0 38.429616 813.0 41.521504C813.0 45.323143 809.29811 54.218461 806.14342 57.997276L803.25945 61.451801L799.37973 58.733898C797.24588 57.239051 793.9743 54.437396 792.10956 52.507997C790.24481 50.578599 787.93281 49.0 786.97177 49.0C786.01073 49.0 782.87376 50.616975 780.00072 52.593278L774.77701 56.186555L770.13851 54.444578C767.58733 53.486491 764.24089 51.823488 762.70199 50.749017C755.9914 46.063664 748.55035 52.341387 748.77341 62.5C748.8338 65.25 748.90948 68.5125 748.9416 69.75C748.97372 70.9875 749.61339 72.0 750.36309 72.0C751.31894 72.0 751.88028 70.080289 752.24196 65.574484C752.79784 58.649352 755.75875 52.992051 758.81809 53.009706C760.91966 53.021834 769.08385 59.418724 770.71456 62.330958C773.07728 66.550437 772.2477 69.820874 767.53726 74.856708C759.63192 83.308156 758.98884 86.666352 764.06289 93.0L766.0657 95.5L765.45866 91.947776C764.92427 88.82063 765.40914 87.653892 769.51058 82.197776C772.073 78.788999 774.79073 76.0 775.54997 76.0C777.72829 76.0 783.93118 81.944772 786.01516 86.029708C787.88317 89.691326 787.88226 89.808048 785.95624 93.58583C782.95489 99.472813 783.71788 102.18992 787.26599 98.25Z M773.17726 39.607366C773.3951 37.741417 773.40099 34.407567 773.19035 32.198811C772.69461 27.000454 769.86393 25.964764 766.39173 29.711329C762.55456 33.851697 763.29071 37.604992 768.60654 41.003801C772.55295 43.527029 772.72583 43.474211 773.17726 39.607366Z M780.9536 38.112018C781.7087 36.289058 781.77441 34.536845 781.14933 32.892776C780.08448 30.09199 777.26017 27.406497 776.34351 28.323157C775.61258 29.054082 775.76983 39.818567 776.52939 41.047554C777.44268 42.525292 779.76338 40.985473 780.9536 38.112018Z"/>
</svg>
