<?xml version="1.0" encoding="UTF-8"?>
<svg xmlns="http://www.w3.org/2000/svg" viewBox="2814.75 18.47 86.39 91.35">
  <path d="M 2890.9375 48.90625 C 2890.7902 50.765837 2889.1865 52.322392 2885.0625 54.96875 C 2879.3863 58.611154 2878.8416 58.462151 2870.875 51.84375 C 2868.3237 49.724187 2865.591 48 2864.8125 48 C 2864.034 48 2861.258 49.35 2858.6562 51 C 2856.0544 52.65 2853.8001 54 2853.625 54 C 2852.9573 54 2854.1203 43.330259 2855.1875 39.75 C 2856.3087 35.988718 2857.3473 35.134926 2858.5 37 C 2859.3181 38.323636 2864.2953 38.266773 2867.2812 36.90625 C 2869.9777 35.677687 2873 31.121172 2873 28.28125 C 2873 23.901907 2867.8059 22.625412 2863.1562 25.84375 C 2858.3573 29.165411 2857.053 29.202807 2853.2812 26.09375 C 2849.5725 23.036768 2849.5415 23.037082 2842.8438 26.4375 C 2839.2237 28.275399 2839.1625 28.2751 2836.4688 26.15625 C 2833.0961 23.503334 2829.8617 23.400246 2827.5938 25.90625 C 2825.0491 28.718037 2825.8782 33.17269 2829.25 34.78125 C 2831.5905 35.897818 2832.4958 35.84669 2835.5312 34.40625 C 2838.9225 32.796955 2839.1896 32.825666 2840.8125 34.625 C 2842.9185 36.959999 2843.9442 52 2842 52 C 2841.3482 52 2838.9677 50.425 2836.7188 48.5 C 2834.4698 46.575 2831.8093 45 2830.8125 45 C 2828.2958 45 2823.9187 50.21408 2821.7188 55.8125 C 2818.6795 63.546895 2820.5692 75.512367 2825.2812 78.40625 C 2827.9953 80.073044 2829.0616 77.532854 2828.875 69.78125 C 2828.7259 63.585389 2829.8592 60 2831.9688 60 C 2832.3599 60 2834.5523 61.728235 2836.8438 63.84375 C 2839.7562 66.532508 2841 68.516571 2841 70.40625 C 2841 72.893385 2838.5872 78.821432 2837.0938 80 C 2835.6877 81.109547 2833 86.030422 2833 87.5 C 2833 89.316211 2837.3331 98.222436 2840.2188 102.3125 C 2842.5853 105.66689 2843.8509 105.41553 2846.375 101.09375 C 2848.1701 98.020037 2848.2069 97.626649 2846.6562 94.375 C 2845.7524 92.479637 2845 90.306152 2845 89.53125 C 2845 87.759878 2848.9369 81 2849.9688 81 C 2851.1656 81 2858 90.147145 2858 91.75 C 2858 92.537379 2857.2772 94.441438 2856.375 95.96875 C 2853.9512 100.07203 2855.1833 104 2858.9062 104 C 2861.353 104 2862.3153 103.10635 2865.4688 97.8125 C 2868.5617 92.620333 2869.0522 91.039933 2868.5 88.0625 C 2868.1375 86.108122 2867.1525 83.748822 2866.3125 82.8125 C 2863.8155 80.029258 2860 71.827452 2860 69.25 C 2860 66.188939 2861.716 63 2863.3438 63 C 2864.0374 63 2867.0318 64.557828 2870.0312 66.46875 C 2873.0309 68.379672 2876.3226 69.954672 2877.3125 69.96875 C 2879.7472 70.003378 2884.461 67.474023 2890.5938 62.84375 C 2893.3969 60.727308 2896.2061 59 2896.8438 59 C 2897.0049 59 2897.0912 59.083607 2897.2188 59.125 L 2895.0625 55.375 C 2894.7779 56.335458 2893.9718 57.562924 2892.4062 58.9375 C 2888.9791 61.946617 2880.0186 67 2878.0938 67 C 2877.5531 67 2874.5025 65.423586 2871.3125 63.5 C 2868.1224 61.576414 2864.9577 60.001414 2864.3125 60 C 2861.9856 59.994901 2857 66.095327 2857 68.9375 C 2857 71.508803 2859.9813 78.143479 2864.4688 85.5625 C 2865.6665 87.542584 2866.0986 89.487222 2865.6875 91.125 C 2864.9807 93.941146 2859 101.96311 2859 100.09375 C 2859 99.440814 2859.724 97.525674 2860.5938 95.84375 C 2862.4752 92.205213 2861.8082 88.687593 2858.6875 85.65625 C 2857.4618 84.465627 2855.1821 81.785445 2853.625 79.6875 C 2850.8602 75.962202 2850.738 75.916649 2848.7812 77.6875 C 2847.6792 78.684777 2845.6596 81.429212 2844.2812 83.78125 C 2841.7951 88.023556 2841.7547 88.908461 2843.5625 96.25 C 2844.6803 100.78946 2842.6527 99.382677 2839.2812 93.25 L 2836.125 87.46875 L 2839.5 82 C 2843.6069 75.341616 2845.4839 68.745525 2844.0312 66.03125 C 2842.4467 63.070436 2834.5179 57 2832.25 57 C 2831.1301 57 2829.188 57.837188 2827.9062 58.875 C 2825.905 60.495518 2825.5885 61.589728 2825.7188 66.625 L 2825.875 72.5 L 2824.3125 69 C 2820.1818 59.750568 2829.8244 43.565393 2835.1875 50.75 C 2837.2027 53.449682 2843.9088 58.159605 2844.875 57.5625 C 2846.6849 56.44391 2846.9693 47.401999 2845.4375 40.0625 C 2844.585 35.977823 2843.6449 32.23748 2843.3438 31.75 C 2842.544 30.456126 2846.0037 27 2848.0938 27 C 2849.0778 27 2851.0989 28.022302 2852.5625 29.28125 L 2855.2188 31.5625 L 2853.0938 38.40625 C 2850.9449 45.36314 2850.2557 56.417409 2851.9062 57.4375 C 2852.4098 57.748637 2854.1611 56.894461 2855.7812 55.53125 C 2857.4012 54.168039 2859.8642 52.620635 2861.25 52.09375 C 2863.896 51.087757 2864.8856 51.611014 2873.3125 58.3125 C 2876.669 60.981719 2876.9699 61.044966 2880.2188 59.6875 C 2882.0936 58.904124 2885.5243 57.069496 2887.8125 55.625 C 2890.8236 53.724166 2892.6426 53.004372 2893.8438 53.21875 L 2891.5938 49.28125 L 2890.9375 48.90625 z M 2832 26.0625 C 2833.1683 26.079425 2834.3571 26.779728 2835.0938 28.15625 C 2836.0566 29.955191 2835.9438 30.554789 2834.4375 31.65625 C 2832.2162 33.280489 2831.9502 33.301106 2829.6562 31.5625 C 2828.1705 30.436406 2828.0637 29.785002 2828.9688 28.09375 C 2829.6942 26.738409 2830.8317 26.045575 2832 26.0625 z M 2867.9375 27 C 2869.8741 27 2869.657 30.956326 2867.625 32.78125 C 2863.7367 36.273215 2860 36.372956 2860 33 C 2860 31.374495 2865.7918 27 2867.9375 27 z "/>
</svg>
