<?xml version="1.0" encoding="UTF-8"?>
<svg xmlns="http://www.w3.org/2000/svg" viewBox="2885.16 17.93 29.84 88.61">
  <path d="M 2890.9375 48.90625 L 2891.5938 49.28125 L 2893.8438 53.21875 C 2894.5164 53.338799 2895.0542 53.683098 2895.3438 54.4375 C 2895.4251 54.649352 2895.1555 55.061252 2895.0625 55.375 L 2897.2188 59.125 C 2899.0306 59.713216 2897.5219 64.303893 2893.5 70.0625 C 2888.841 76.733284 2887.901 80.842988 2890.5 83 C 2891.3223 83.682457 2894.316 88.024677 2897.1562 92.65625 C 2899.9965 97.287822 2902.7812 101.37107 2903.3438 101.71875 C 2904.6293 102.51331 2910.8616 95.384861 2911.6562 92.21875 C 2912.0763 90.545489 2911.5433 89.090037 2909.8125 87.1875 C 2903.5925 80.350412 2902.7264 76.739258 2906.25 72.3125 C 2911.062 66.267102 2913 62.991209 2913 60.875 C 2913 58.642848 2908.5484 50.909502 2904.2188 45.59375 C 2901.3543 42.077035 2901.8184 39.27375 2906.0625 34.125 C 2907.6799 32.162809 2909 29.995855 2909 29.34375 C 2909 27.560409 2900.8817 21.954429 2899.5 22.78125 C 2897.1145 24.208818 2892.0502 30.746887 2889.625 35.53125 L 2887.1562 40.40625 L 2889.5312 44.46875 C 2890.6596 46.401904 2891.033 47.700395 2890.9375 48.90625 z M 2901.25 26 C 2902.1766 26 2903.428 26.935379 2904.0312 28.0625 C 2904.9369 29.754764 2904.5906 30.901919 2902.0625 34.71875 C 2900.3786 37.260923 2899 39.998055 2899 40.78125 C 2899 41.564445 2901.7 46.222696 2905 51.15625 C 2908.3 56.089803 2910.9779 60.436043 2910.9688 60.8125 C 2910.9402 62.001344 2906.6133 68.726343 2903.25 72.8125 L 2900.0312 76.75 L 2902.4688 81.3125 C 2903.8032 83.822273 2905.8045 86.804457 2906.9375 87.9375 C 2909.4045 90.404501 2909.5055 91.828736 2907.4375 94.78125 C 2905.4435 97.628145 2903.211 97.613164 2901.9688 94.75 C 2901.4318 93.5125 2899.2121 89.8 2897.0312 86.5 C 2894.8503 83.2 2892.7509 79.873807 2892.375 79.125 C 2891.5453 77.472241 2894.1322 72.851853 2898.7812 67.625 C 2901.8063 64.223918 2902.1524 63.247469 2901.6875 59.78125 C 2901.3703 57.416161 2899.0833 52.594097 2896 47.75 L 2890.875 39.625 L 2892.5 36 C 2894.7075 31.104813 2899.174 26 2901.25 26 z "/>
</svg>
