<?xml version="1.0" encoding="UTF-8"?>
<svg xmlns="http://www.w3.org/2000/svg" viewBox="3088 18.15 38.83 92.52">
  <path d="M3100.2443 102.46897C3094.8995 98.700622 3093.76 92.219946 3096.9979 84.005301C3099.0847 78.711132 3099.0735 78.53794 3095.9062 67.121228C3095.0202 63.927766 3094.9791 61.897558 3095.7542 59.621228C3096.3387 57.904553 3097.1135 54.343974 3097.4759 51.708832C3098.0805 47.31331 3097.8761 46.622867 3095.0005 43.347741C3091.1953 39.01385 3090.0 36.073309 3090.0 31.045684C3090.0 26.581964 3092.872 22.353187 3095.2769 23.276018C3096.1505 23.611263 3098.465 26.386304 3100.4202 29.442777C3102.3754 32.49925 3104.4896 35.0 3105.1183 35.0C3105.7471 35.0 3108.7563 32.525 3111.8056 29.5C3117.7874 23.565683 3120.0658 22.828146 3122.3485 26.087157C3124.8268 29.625472 3122.5206 35.149045 3115.6209 42.200434C3112.7726 45.111288 3112.0 46.694123 3112.0 49.618521C3112.0 51.66323 3111.5032 56.189031 3110.896 59.675855C3109.2829 68.938776 3109.964 69.777593 3115.6031 65.473188C3118.1636 63.518679 3120.7629 62.084795 3121.3793 62.28678C3121.9957 62.488764 3122.6358 64.011984 3122.8018 65.671713C3123.0303 67.957364 3122.1226 69.930425 3119.0597 73.80529C3116.8355 76.619028 3114.171 79.373318 3113.1384 79.925935C3111.6141 80.741693 3111.175 82.415846 3110.8039 88.825991C3110.0965 101.04605 3105.9057 106.46054 3100.2443 102.46897Z M3106.0738 98.411037C3106.8601 97.463698 3107.5646 93.223796 3107.8186 87.911037C3108.0529 83.009967 3108.6301 79.0 3109.1011 79.0C3110.6022 79.0 3120.0 68.914258 3120.0 67.303237C3120.0 65.972661 3119.7541 65.947974 3118.25 67.127555C3117.2875 67.8824 3116.05 69.056438 3115.5 69.736529C3114.95 70.41662 3113.0591 71.256048 3111.298 71.601926C3108.4479 72.161679 3108.0238 71.943053 3107.4389 69.612683C3107.0775 68.172722 3107.0582 65.308293 3107.3959 63.247286C3107.7337 61.186279 3108.2914 55.999069 3108.6352 51.720154C3109.1843 44.887361 3109.5793 43.693943 3111.8802 41.916464C3116.1168 38.643636 3120.0 32.859463 3120.0 29.821861C3120.0 25.712674 3117.5198 26.257411 3114.338 31.065429C3112.8583 33.301414 3110.3426 35.805702 3108.7476 36.630512C3106.1536 37.971938 3105.5941 37.964041 3103.4446 36.555666C3102.123 35.68969 3100.4033 33.74684 3099.6232 32.238222C3098.8431 30.729603 3097.2681 28.647587 3096.1232 27.61152C3094.2147 25.884361 3093.9883 25.866958 3093.3992 27.402177C3091.9797 31.101234 3094.0252 37.429239 3097.9562 41.5L3101.8189 45.5L3100.3402 52.5C3098.724 60.151194 3098.9156 65.961173 3101.0231 73.207958C3102.2805 77.531475 3102.2081 78.477772 3100.1366 84.796528C3097.6321 92.435923 3097.9574 96.156321 3101.3368 98.523329C3103.9872 100.3798 3104.449 100.36885 3106.0738 98.411037Z"/>
</svg>
