<?xml version="1.0" encoding="UTF-8"?>
<svg xmlns="http://www.w3.org/2000/svg" viewBox="3332.25 17.96 36.52 87.01">
  <path d="M 3334.5625,74.90625 3334.25,75.21875 3335.6562,81.8125 3337.0625,93.125 3337.0938,93.25 C 3337.7796,93.201092 3338.9115,93.617619 3341.1875,94.75 3343.6748,95.9875 3346.1353,97.01902 3346.625,97.03125 3347.1148,97.04348 3348.625,97.924459 3350,99 3351.375,100.07554 3353.0536,100.95652 3353.7188,100.96875 3356.4604,101.01916 3360.0682,95.172467 3363.0938,85.75 3366.1007,76.385086 3366.2467,74.980712 3366.4688,58.1875 3366.7744,35.076523 3364.8012,24.035259 3360.0625,22.53125 3358.1313,21.918289 3349.3069,25.650597 3350.3125,26.65625 3350.5937,26.937442 3351.7329,26.688311 3352.8438,26.09375 3353.9547,25.499189 3356.2003,25 3357.8438,25 3361.057,25 3362.0496,26.770814 3363.5,35.375 3364.7857,43.001956 3364.0914,70.206503 3362.4062,78.46875 3360.7879,86.403696 3357.0815,96.199844 3355.2812,97.3125 3354.7619,97.633456 3350.6684,96.01658 3346.1875,93.71875 3339.8378,90.46262 3337.8265,88.906145 3337.0312,86.625 3335.3995,81.944355 3335.7835,81.602804 3339.5,84.4375 3343.2407,87.290686 3349.0373,90 3351.375,90 3352.1987,90 3353.9092,87.223707 3355.4375,83.40625 3357.8635,77.346127 3358.0878,75.476817 3358.2812,60.9375 3358.4764,46.262105 3358.3513,44.919689 3356.5,43.0625 3354.7853,41.342292 3354.1694,41.23619 3352.0938,42.28125 3350.7622,42.951654 3349.4633,44.102841 3349.2188,44.84375 3348.8585,45.934828 3349.1994,45.963626 3351,45 3354.9339,42.894596 3355.4987,44.895367 3355.4375,60.3125 3355.3797,74.875429 3353.9439,83.961817 3351.375,86.09375 3349.4054,87.728403 3344.2986,84.890976 3338.5625,79 L 3334.5625,74.90625 z M 3353.6562,32.46875 C 3353.2484,32.380992 3352.465,32.69137 3351.4375,33.46875 3349.7456,34.748725 3349.7028,34.940827 3351.1875,34.96875 3352.1175,34.986241 3353.1688,34.524092 3353.5312,33.9375 3354.076,33.05621 3354.0641,32.556508 3353.6562,32.46875 z"/>
</svg>
