<?xml version="1.0" encoding="UTF-8"?>
<svg xmlns="http://www.w3.org/2000/svg" viewBox="1480.53 23.6 61.26 82.16">
  <path d="M 1502.7188,27.46875 C 1500.8659,27.604624 1499.0318,28.4203 1497,29.96875 1494.9041,31.566064 1494.5,32.717484 1494.5,37.03125 1494.5,43.131438 1497.0916,46 1502.625,46 1505.409,46 1506.2302,46.498407 1507.0625,48.6875 1508.4134,52.240542 1507.8828,55.557679 1506,55.28125 1505.1753,55.16016 1502.0834,54.528308 1499.125,53.875 1491.9193,52.283742 1487.8045,54.325812 1485.375,60.6875 1483.3099,66.094878 1484.65,71.863228 1488.5312,74.40625 1490.9579,75.996329 1491.0439,75.983467 1492,73.46875 1492.543,72.040654 1493.0138,70.339196 1493.0312,69.6875 1493.0891,67.53117 1495.6865,65 1497.8438,65 1499.012,65 1501.4316,66.309557 1503.2188,67.90625 1506.2149,70.583416 1506.4688,71.285638 1506.4688,76.9375 1506.4688,83.032567 1506.4303,83.084624 1501.5938,87.21875 1496.8404,91.281704 1493.3519,97.122884 1494.5312,99.03125 1495.3972,100.43234 1497,100.21543 1497,98.6875 1497,96.798183 1503.1872,89 1504.6875,89 1507.0241,89 1509.3825,82.780872 1509.2812,76.90625 1509.1599,69.853067 1507.0802,65.735955 1502.5,63.5625 1497.232,61.062678 1494.891,61.82593 1492.0938,66.90625 1489.851,70.979443 1489.5888,71.171478 1488.3438,69.46875 1486.4236,66.842822 1486.6895,63.017435 1489.0625,59.125 1491.063,55.843653 1491.263,55.776678 1496.5938,56.21875 1500.1432,56.513096 1503.1238,57.449832 1505.0938,58.90625 1510.1107,62.615457 1511.4059,61.214822 1510.625,52.8125 1510.2593,48.878508 1509.4483,45.040911 1508.8438,44.3125 1508.2361,43.58033 1505.7776,43 1503.3438,43 1499.5383,43 1498.8118,42.654831 1497.9688,40.4375 1495.5452,34.063002 1498.7604,29.372387 1504.875,30.34375 1508.3406,30.894303 1513.0916,34.840466 1514.25,38.125 1514.6238,39.185014 1515.3947,38.970303 1517.625,37.21875 1521.2071,34.405591 1528.5308,31 1531,31 1534.2543,31 1536,33.796941 1536,39.0625 1536,41.773214 1535.7396,44 1535.4062,44 1535.073,44 1533.8941,42.875 1532.8125,41.5 1530.4134,38.450012 1527.8061,38.335854 1523.3438,41.09375 1517.0351,44.992764 1515.6317,50.982819 1518.625,61.0625 1520.6689,67.944949 1519.8899,75.160353 1516.4688,81.28125 1513.428,86.721898 1514.3547,91.160078 1518.375,93.03125 L 1519.9375,90 C 1518.8437,89.086903 1518,87.950808 1518,86.78125 1518,85.592578 1518.923,82.697724 1520.0625,80.34375 1521.8305,76.691498 1522.0811,74.778493 1521.6562,67.28125 1521.3826,62.449076 1520.8428,56.592855 1520.4688,54.25 1519.5198,48.307016 1520.3952,45.863889 1524.5,43.09375 L 1528.0625,40.71875 1530.5312,43.03125 C 1531.8908,44.308553 1533,46.299623 1533,47.46875 1533,49.496114 1534.6696,52 1536.0312,52 1537.5651,52 1539,46.397207 1539,40.375 1539,34.521398 1538.6931,33.536865 1536.125,30.96875 1534.0459,28.889636 1532.606,28.245704 1530.875,28.625 1527.9059,29.275577 1521.12,32.779604 1518.6562,34.90625 1516.94,36.387698 1516.6527,36.319998 1514.6562,33.9375 1513.4733,32.525738 1510.7644,30.349604 1508.625,29.125 1506.4578,27.884478 1504.5716,27.332876 1502.7188,27.46875 z M 1515.2188,99.15625 1516.6875,96.28125 C 1514.3339,95.024199 1511.2633,94 1509.625,94 1505.9666,94 1499,98.346922 1499,100.625 1499,101.47601 1499.3319,102.02709 1499.75,101.84375 1500.168,101.66042 1502.657,100.40611 1505.2812,99.0625 L 1510.0625,96.625 1515.2188,99.15625 z"/>
</svg>
