<?xml version="1.0" encoding="UTF-8"?>
<svg xmlns="http://www.w3.org/2000/svg" viewBox="3443.68 16.2 95.11 92.34">
  <path d="M3466.8967 99.25C3465.6502 97.1875 3463.5885 94.227974 3462.3152 92.673275C3461.0418 91.118576 3460.0 88.713043 3460.0 87.327645C3460.0 84.473969 3463.1413 79.626505 3467.2362 76.161106C3468.7709 74.862327 3469.965 72.861161 3469.9214 71.661106C3469.8027 68.396963 3464.6482 60.539667 3462.4088 60.209162C3459.1191 59.723634 3456.0033 67.516654 3455.9847 76.276751C3455.974 81.309593 3455.6754 83.045134 3455.0 82.0C3454.2386 80.821825 3454.0273 80.794458 3454.0153 81.872445C3454.003 82.977618 3453.7085 83.002968 3452.5032 82.002619C3450.4123 80.267334 3448.0 71.57583 3448.0 65.777535C3448.0 57.103203 3455.3616 46.0 3461.1128 46.0C3461.7795 46.0 3464.5591 47.433701 3467.2899 49.186003C3472.125 52.288704 3472.2924 52.321386 3473.6921 50.436003C3474.7645 48.991453 3474.9625 46.976905 3474.4721 42.5C3474.1107 39.2 3473.7441 35.470991 3473.6575 34.213314C3473.4184 30.741374 3471.2639 29.997967 3466.5279 31.753256C3461.268 33.702706 3457.2481 32.836702 3456.4302 29.577911C3455.6104 26.311441 3457.3083 23.52917 3461.0731 21.969709C3463.8257 20.829566 3464.6621 20.901779 3467.7089 22.54259C3471.7708 24.730046 3475.0573 24.669931 3479.0085 22.335902C3482.0451 20.542139 3481.6161 20.401524 3488.6626 25.5C3489.6466 26.211924 3491.1756 25.85183 3493.9705 24.25C3498.7304 21.521889 3501.1586 21.412776 3503.345 23.828741C3505.4401 26.143829 3505.455 29.37598 3503.385 32.535183C3501.4961 35.417965 3498.2816 35.714092 3493.8354 33.414902C3492.1496 32.543098 3490.4217 32.205598 3489.9958 32.664902C3487.6756 35.167052 3484.5626 54.0 3486.4692 54.0C3486.7273 54.0 3488.7392 53.061375 3490.9402 51.914167C3495.8136 49.373987 3499.19 49.906227 3505.0274 54.134816C3508.6482 56.757672 3509.5441 57.005966 3512.1323 56.103736C3513.7612 55.535902 3516.2584 54.155266 3517.6818 53.035655C3519.1052 51.916045 3521.0248 51.0 3521.9478 51.0C3523.7428 51.0 3528.1176 55.208592 3529.7438 58.5C3534.4628 68.050896 3529.4674 93.057042 3521.7624 98.453898C3516.3316 102.25774 3515.8688 99.914845 3519.5 87.0C3522.1794 77.470259 3522.578 72.65055 3521.0248 68.5651C3519.7583 65.233973 3518.1187 65.329558 3513.4949 69.004073C3509.3787 72.275197 3509.7511 72.361509 3503.7252 66.739757C3499.4521 62.753198 3496.1057 62.151248 3493.8313 64.96003C3491.0202 68.431626 3491.4945 74.054704 3495.1168 80.198079C3500.2114 88.838521 3500.2433 89.146933 3496.7383 95.887969C3492.9478 103.17802 3491.3038 104.05446 3488.1962 100.44169C3486.196 98.116375 3485.9711 97.069276 3486.5179 92.628265C3487.1241 87.704417 3487.0055 87.361456 3483.5442 84.024321C3480.6271 81.21196 3479.6109 80.752753 3478.2196 81.61815C3475.1607 83.520664 3471.8356 89.303263 3472.5481 91.481226C3473.9299 95.704932 3474.2129 100.0 3473.1094 100.0C3472.4992 100.0 3472.0 98.923145 3472.0 97.606989C3472.0 96.290833 3471.325 94.954956 3470.5 94.638374C3469.675 94.321791 3469.0182 93.036146 3469.0405 91.781385C3469.0931 88.819913 3477.0219 78.585245 3479.5519 78.213053C3480.8004 78.029374 3483.2515 79.701935 3486.3626 82.8605C3491.166 87.737281 3491.2088 87.83744 3490.0202 91.438689C3487.776 98.23879 3491.2782 100.52198 3494.9184 94.631966C3496.0633 92.779547 3497.0 90.634906 3497.0 89.866096C3497.0 89.097286 3495.2 85.388 3493.0 81.623239C3488.717 74.293981 3488.1735 70.913783 3490.4153 65.548373C3493.2539 58.754837 3499.7456 58.77684 3505.9555 65.601045C3509.0022 68.949167 3509.2807 69.05055 3511.3343 67.559092C3516.6374 63.707562 3517.6122 63.13901 3519.4445 62.829001C3524.177 62.028296 3525.3942 73.844494 3521.9766 87.408662C3519.1365 98.681068 3521.1942 99.568604 3525.0084 88.716346C3530.3064 73.642684 3529.1624 56.455865 3522.7251 54.412741C3521.6611 54.075036 3519.0774 55.085027 3516.3012 56.923915C3510.3345 60.876063 3507.8107 60.798172 3502.5653 56.5C3497.5964 52.428336 3494.5951 52.126324 3489.4236 55.177581C3485.7946 57.318746 3485.7089 57.322927 3484.3022 55.427581C3482.5864 53.115801 3482.9477 46.830729 3485.4188 36.002605L3487.1298 28.505211L3483.9931 25.702511L3480.8563 22.899812L3477.6782 24.770371C3474.1359 26.855212 3473.8466 28.932884 3475.9753 37.0C3477.3267 42.121766 3476.9336 53.466386 3475.3498 55.05022C3474.2916 56.108372 3468.2468 53.257341 3465.1256 50.228033C3464.3453 49.470695 3462.185 49.02505 3460.1277 49.19705C3457.0715 49.45257 3456.1553 50.126247 3454.2758 53.5C3449.6071 61.880668 3448.8597 66.430512 3451.0974 72.84959C3452.4744 76.799553 3454.0 76.005239 3454.0 71.338363C3454.0 67.241621 3458.6646 58.250165 3461.2122 57.436239C3463.918 56.571774 3466.5633 58.569004 3469.9044 63.999037C3474.2438 71.051506 3473.9872 73.625869 3468.4047 79.041792C3465.8773 81.493806 3463.4632 84.4 3463.0401 85.5C3462.262 87.5228 3463.6738 92.0 3465.0897 92.0C3466.0159 92.0 3472.0 100.70311 3472.0 102.05013C3472.0 104.34278 3468.9698 102.68012 3466.8967 99.25Z M3466.0497 29.47432C3469.42 27.731471 3469.7589 26.296543 3467.25 24.392046C3463.1033 21.244225 3456.8125 24.912565 3459.0827 29.154606C3460.2842 31.399548 3462.1602 31.485638 3466.0497 29.47432Z M3501.4553 30.140877C3502.9724 25.360734 3498.0232 23.106902 3494.517 26.981242C3493.0497 28.602614 3492.9529 29.23835 3493.9844 30.481242C3495.8007 32.669733 3500.7238 32.44544 3501.4553 30.140877Z"/>
</svg>
