<?xml version="1.0" encoding="UTF-8"?>
<svg xmlns="http://www.w3.org/2000/svg" viewBox="3676.37 17.59 43.14 87.17">
  <path d="M3694.5643 99.819012C3688.9254 98.579794 3684.1478 94.513637 3681.4022 88.61703C3678.3682 82.101216 3678.3889 77.862419 3681.5 68.594737C3684.56 59.479069 3684.5857 58.032327 3681.7823 52.710162C3679.0454 47.514241 3678.777 37.151 3681.2569 32.424849C3683.2673 28.593534 3690.4127 22.040216 3692.7529 21.881517C3697.6642 21.548453 3703.5655 25.197829 3707.225 30.831107C3714.8742 42.605995 3717.5127 64.958022 3713.1232 80.798038C3710.5744 89.995774 3708.7829 93.22216 3704.2801 96.724322C3699.0811 100.76793 3698.9999 100.7938 3694.5643 99.819012Z M3703.5015 93.563366C3705.9645 91.240489 3707.4826 88.245048 3709.5381 81.652197C3712.1123 73.395853 3712.2453 72.082142 3711.6627 60.672165C3710.712 42.056322 3707.2978 32.402668 3699.7228 26.912646C3696.449 24.539893 3694.8366 23.98454 3692.5481 24.441435C3686.9279 25.563467 3682.6953 31.180617 3681.509 39.091495C3680.9314 42.942893 3681.3072 44.721367 3683.9122 50.466636C3688.0007 59.48356 3687.9181 61.5172 3683.018 72.5C3680.717 77.657416 3680.8304 79.213179 3683.9727 85.596128C3689.351 96.521007 3697.0396 99.657741 3703.5015 93.563366Z M3691.2409 86.75C3686.2216 81.391794 3685.873 75.885566 3690.0008 67.160212C3693.7222 59.293787 3693.7327 57.394498 3690.0947 50.187679C3687.6194 45.284096 3687.3044 43.804206 3687.9657 40.187512C3689.5087 31.749786 3694.9655 29.466077 3699.4707 35.372648C3706.3401 44.379001 3707.0165 68.464109 3700.8067 82.950892C3697.9532 89.608009 3695.0123 90.775986 3691.2409 86.75Z M3699.1558 81.380713C3704.172 70.040773 3703.7983 46.826923 3698.47 38.775254C3692.3774 29.568834 3686.6438 38.94958 3692.5261 48.5C3695.7464 53.728516 3695.6842 58.489012 3692.2697 68.128929C3689.7525 75.235261 3689.6453 76.136316 3690.8967 79.668573C3693.6727 87.504428 3696.2139 88.031241 3699.1558 81.380713Z"/>
</svg>
