<?xml version="1.0" encoding="UTF-8"?>
<svg xmlns="http://www.w3.org/2000/svg" viewBox="1719.78 12.57 24.15 94.32">
  <path d="M1727.0 99.710851C1725.5001 98.955094 1723.9317 96.817124 1723.0793 94.366367C1721.7768 90.621345 1721.843 89.708339 1723.8742 83.390774C1726.0321 76.678907 1726.0497 76.253349 1724.5489 67.0C1722.3292 53.314785 1722.5291 38.720567 1725.0657 29.254956C1727.8705 18.788467 1729.7502 16.856524 1733.306 20.785671C1738.6846 26.728898 1741.9237 57.337947 1738.6405 71.195278C1737.5096 75.968341 1737.2315 80.190216 1737.6718 85.900513L1738.2895 93.910469L1734.7448 97.455235C1730.7901 101.4099 1730.5252 101.48706 1727.0 99.710851Z M1733.4298 96.077616C1735.6825 93.588401 1736.5445 87.000584 1735.1433 82.981367C1734.2565 80.437262 1734.4273 78.432771 1736.0211 72.681357C1739.2802 60.920373 1738.1709 36.16201 1733.9582 26.638329C1730.7884 19.472442 1729.2436 20.548509 1726.5803 31.777782C1724.6405 39.956692 1724.9504 49.985357 1727.6894 67.661662C1729.2508 77.738685 1729.2452 77.862113 1727.0095 82.480347C1722.4614 91.875434 1727.5259 102.60132 1733.4298 96.077616Z"/>
</svg>
