<?xml version="1.0" encoding="UTF-8"?>
<svg xmlns="http://www.w3.org/2000/svg" viewBox="3777.86 16.69 46.67 92.04">
  <path d="M 3819.25,82.5 C 3819.2056,82.381558 3819,82.231052 3819,82.125 3819,81.224962 3819.6534,77.349795 3820.4688,73.5 3822.3807,64.473657 3822.4021,53.391157 3820.5,48 3819.675,45.661701 3819,42.911845 3819,41.875 3819,38.813673 3815.0479,31.287214 3811.6562,27.90625 3807.7072,23.969489 3802.8846,21.831626 3796.6875,21.25 3792.644,20.87051 3791.434,21.177508 3789.2812,23.15625 3783.0297,28.902798 3780.6601,41.005914 3783.9375,50.40625 3786.6546,58.199414 3786.5346,60.89504 3783,71 3781.3647,75.675 3780.0073,81.196839 3780,83.28125 3779.9763,89.98825 3785.9266,98.69667 3792.5,101.59375 3799.1981,104.54582 3806.096,102.88853 3811.25,97.09375 3812.8266,95.321109 3814.5324,94.295349 3815.6875,94.09375 L 3817.1875,89.25 C 3817.1434,89.01664 3817,88.743814 3817,88.53125 3817,87.757236 3817.2918,87.398917 3817.7812,87.25 L 3819.25,82.5 z M 3793.4375,24.15625 C 3794.4356,24.086569 3795.641,24.14044 3797.0938,24.3125 3804.1413,25.147176 3809.8628,28.614841 3813.1562,34 3819.637,44.597228 3820.7965,67.892474 3815.625,83.6875 3813.2109,91.060612 3812.4469,92.272517 3807.8438,95.9375 3805.0342,98.174555 3801.7906,99.980829 3800.625,99.96875 3794.2769,99.902968 3785.286,92.429178 3782.9062,85.21875 3781.9337,82.271676 3782.2396,80.68156 3785.5312,71.90625 3789.5834,61.103503 3789.8489,55.448984 3786.5625,49.09375 3784.3382,44.792428 3784.5358,34.864047 3786.9375,30.15625 3789.1105,25.89693 3790.4432,24.365293 3793.4375,24.15625 z M 3797,31.59375 C 3795.9275,31.907126 3794.9362,32.844569 3793.75,34.46875 3791.1017,38.094677 3791.3554,44.625778 3794.375,51 3795.808,54.025 3796.9949,57.175 3797,58 3797.005,58.825 3795.1994,62.425 3793,66 3789.5817,71.556291 3789.0004,73.325099 3789,78.125 3788.9994,84.165683 3791.2359,88.358877 3795.375,90.03125 3802.3733,92.858864 3806.7891,87.379099 3810.9375,70.75 3813.4378,60.72773 3813.1865,56.663034 3809.2812,45 3806.5712,36.90664 3804.9892,34.566093 3800.8125,32.40625 3799.2339,31.589937 3798.0725,31.280374 3797,31.59375 z M 3797.1562,34.1875 C 3802.3868,33.196056 3810,48.215603 3810,59.53125 3810,66.692626 3807.5922,76.202394 3804.1875,82.5 3802.7098,85.23315 3800.7741,87.608757 3799.875,87.78125 3796.8135,88.368578 3793.043,83.864155 3792.375,78.8125 3791.8079,74.522974 3792.1022,73.554624 3795.9062,67.53125 3800.9509,59.543535 3801.2521,56.102303 3797.5938,48.625 3794.4497,42.198946 3794.2207,34.743912 3797.1562,34.1875 z"/>
</svg>
