<?xml version="1.0" encoding="UTF-8"?>
<svg xmlns="http://www.w3.org/2000/svg" viewBox="1357.64 21.72 29.69 84.02">
  <path d="M1360.0187 101.35841C1360.029 100.88628 1361.604 97.408322 1363.5187 93.629605C1365.4334 89.850888 1367.0 85.80072 1367.0 84.629232C1367.0 83.457743 1367.6274 79.500582 1368.3942 75.835541C1369.4521 70.779603 1369.5826 66.414154 1368.9354 57.742149C1368.0399 45.743787 1366.4877 39.73568 1362.3847 32.386442C1359.6372 27.465352 1360.0222 25.537761 1363.5742 26.429273C1366.3358 27.122384 1373.8241 32.023587 1376.1546 34.663283C1380.0201 39.041625 1383.1073 46.891307 1383.688 53.818365C1385.3296 73.399997 1374.204 98.761581 1362.75 101.54786C1361.2375 101.91578 1360.0084 101.83053 1360.0187 101.35841Z M1371.3706 91.75C1378.2357 82.725986 1382.8791 65.685295 1381.6577 53.998719C1380.6 43.879494 1374.6627 34.151839 1367.75 31.212282C1364.4876 29.825003 1364.4481 29.986489 1366.8732 34.789838C1370.3814 41.738345 1374.1095 58.0 1372.1942 58.0C1371.5523 58.0 1371.5526 59.339249 1372.1951 61.87057C1372.8669 64.517103 1372.8169 67.758584 1372.0371 72.12057C1371.4098 75.629257 1370.5384 80.75 1370.1006 83.5C1369.6628 86.25 1368.7861 89.766795 1368.1523 91.3151C1366.7561 94.726155 1366.741 95.0 1367.9491 95.0C1368.4711 95.0 1370.0108 93.5375 1371.3706 91.75Z"/>
</svg>
