<?xml version="1.0" encoding="UTF-8"?>
<svg xmlns="http://www.w3.org/2000/svg" viewBox="245.5 20.04 34.23 85.41">
  <path d="M 251.875 86.78125 L 251.71875 87 L 249.84375 92.25 C 250.45241 91.255503 251.79292 91.142745 256.5 91.625 C 262.35963 92.225337 262.89772 92.092936 264.34375 89.875 C 266.76167 86.16634 268.14589 75.881327 268.53125 59 C 269.13166 32.697777 270.28628 24.880024 273.09375 27.6875 C 277.10881 31.702553 270.66222 94.61121 265.9375 97.53125 C 263.89689 98.792418 259.36396 98.735184 254.8125 97.375 C 250.17324 95.988578 249.04732 95.095376 249.5 93.21875 L 247.5 98.78125 L 247.53125 99.5625 C 248.87182 98.998852 250.69757 99.196331 256.03125 100.0625 C 265.29155 101.56635 266.59364 101.16694 269.21875 95.90625 C 273.19129 87.945337 277.734 46.250802 276.09375 32.75 C 275.2331 25.666045 273.83891 23.92488 271.0625 26.4375 C 268.29046 28.946162 267.181 35.947705 266.46875 55 C 265.91743 69.747514 263.97497 85.606073 262.4375 88.09375 C 261.79668 89.130625 255.97365 89.312237 253.53125 88.375 C 253.10513 88.211483 252.51572 87.580908 251.875 86.78125 z "/>
</svg>
