<?xml version="1.0" encoding="UTF-8"?>
<svg xmlns="http://www.w3.org/2000/svg" viewBox="3590.54 17.79 28.96 86.12">
  <path d="M3601.7595 97.75C3595.1326 87.61001 3592.5441 76.267796 3592.5738 57.5C3592.5977 42.430351 3593.7864 35.468776 3597.6538 27.75C3600.0665 22.934614 3602.2896 21.706364 3603.3922 24.579637C3603.8454 25.760573 3604.8189 26.00695 3607.2492 25.555774C3610.4745 24.957005 3610.4824 24.965174 3608.25 26.598109C3604.4705 29.362734 3606.0602 40.0 3610.2528 40.0C3612.2809 40.0 3612.283 40.029792 3610.405 42.107805C3608.5486 44.161888 3608.4759 44.99704 3609.566 51.75C3610.0204 54.564995 3610.4861 55.0 3613.0453 55.0C3614.6704 55.0 3616.0 55.45 3616.0 56.0C3616.0 56.55 3615.1158 57.0 3614.0352 57.0C3611.4576 57.0 3610.0 59.889867 3610.0 65.0C3610.0 70.223069 3611.4545 72.972282 3614.2852 73.09968C3616.3639 73.193236 3616.3479 73.241739 3614.0238 73.889141C3612.0876 74.428513 3611.3625 75.515095 3610.6986 78.872247C3609.6218 84.317508 3610.1925 85.724848 3614.2347 87.591802L3617.5 89.099952L3613.3551 88.554961C3608.8734 87.965694 3608.0 88.796297 3608.0 93.647529C3608.0 96.84934 3606.3037 100.0 3604.5798 100.0C3603.8374 100.0 3602.5683 98.9875 3601.7595 97.75Z M3605.3453 92.25C3607.8087 83.270123 3608.2205 78.595628 3607.6918 65.610722C3607.3758 57.849825 3606.6766 49.7 3606.138 47.5C3605.5994 45.3 3604.641 40.8 3604.0082 37.5C3602.4456 29.351271 3602.0132 28.0 3600.9678 28.0C3596.4891 28.0 3593.6032 56.635362 3596.4327 73.0C3598.7962 86.669558 3599.112 87.791384 3601.1047 89.594709C3602.1471 90.538105 3603.0 91.915231 3603.0 92.654988C3603.0 94.611352 3604.7819 94.303648 3605.3453 92.25Z"/>
</svg>
