<?xml version="1.0" encoding="UTF-8"?>
<svg xmlns="http://www.w3.org/2000/svg" viewBox="1218.79 21.23 41.24 86.71">
  <path d="M1224.0 51.088894C1224.0 50.587785 1225.2573 49.119875 1226.7939 47.826872C1231.3057 44.030451 1231.3178 43.405067 1226.9661 38.965416C1220.7926 32.667187 1222.3197 31.078643 1229.25 36.589633C1232.4125 39.104454 1235.0 41.730466 1235.0 42.425216C1235.0 44.083434 1226.9821 52.0 1225.3027 52.0C1224.5862 52.0 1224.0 51.590002 1224.0 51.088894Z M1237.5682 100.75C1234.8622 98.028815 1234.1395 96.270046 1233.1263 89.940928C1232.4608 85.783438 1232.1584 81.733438 1232.4543 80.940928C1233.5696 77.953822 1236.7376 57.479652 1236.2721 56.266591C1235.588 54.483954 1234.7812 54.659237 1230.5951 57.5C1224.8569 61.394086 1224.6012 60.453182 1230.0202 55.384327C1233.031 52.568069 1235.5324 50.990337 1236.4366 51.337293C1238.9497 52.301661 1239.7182 57.8582 1238.3208 64.961356C1235.4745 79.429634 1235.1947 83.335314 1236.5382 89.837141C1237.8479 96.175013 1240.1424 100.0 1242.6347 100.0C1245.0838 100.0 1248.2726 92.015867 1248.0094 86.542894C1247.8761 83.769302 1247.7979 80.375 1247.8358 79.0C1247.8737 77.625 1247.2781 74.25 1246.5124 71.5C1244.0741 62.743033 1244.0863 53.287854 1246.5371 52.347372C1248.3474 51.652728 1256.0 58.990981 1256.0 61.421472C1256.0 63.812146 1254.6265 63.332139 1251.5332 59.860382C1248.9902 57.006289 1248.6453 56.882475 1247.7407 58.498918C1247.0482 59.736323 1247.2566 62.743824 1248.426 68.388536C1250.9222 80.438111 1250.9538 91.429022 1248.5088 97.199399C1246.8299 101.16162 1243.8433 104.0 1241.3529 104.0C1241.0488 104.0 1239.3457 102.5375 1237.5682 100.75Z M1234.0932 32.594979C1231.7155 30.172218 1229.9624 27.612843 1230.1975 26.907479C1230.5072 25.978393 1231.1626 26.16261 1232.576 27.57601C1233.6491 28.649066 1236.0207 30.590594 1237.8462 31.890518L1241.1655 34.254016L1245.3706 30.127008C1249.8656 25.715529 1251.0 25.169006 1251.0 27.415013C1251.0 29.275597 1242.1896 37.0 1240.0674 37.0C1239.1594 37.0 1236.471 35.017741 1234.0932 32.594979Z M1251.1695 48.863789C1247.8539 45.735202 1246.9786 44.276352 1247.4347 42.638793C1248.1669 40.010084 1255.7997 31.466386 1256.6534 32.320019C1257.2686 32.935234 1255.995 35.02017 1251.8068 40.254467L1249.6028 43.008934L1253.3014 46.79663C1256.7297 50.307564 1258.0311 53.034375 1256.25 52.974996C1255.8375 52.961244 1253.5513 51.111201 1251.1695 48.863789Z"/>
</svg>
