<?xml version="1.0" encoding="UTF-8"?>
<svg xmlns="http://www.w3.org/2000/svg" viewBox="2496.5 17.8 36.19 87.16">
  <path d="M 2530.5625 87.40625 C 2529.0323 87.348496 2527.0338 85.635729 2524.6875 82.25 C 2521.6481 77.86418 2521.4068 75.214762 2523.625 69.5 C 2526.2443 62.752239 2527.3819 54.078362 2527.4375 40.34375 C 2527.4843 28.772866 2527.2704 26.944758 2525.5938 25.09375 C 2522.5773 21.7635 2518.759 22.399623 2514.6875 26.90625 C 2509.7752 32.343547 2509.3499 33.39677 2507.4688 44.0625 C 2506.1712 51.418818 2505.9486 56.502057 2506.4688 67.15625 C 2507.1878 81.879855 2506.6708 84.126921 2500.625 92.3125 L 2498.5 95.1875 L 2500.875 97.09375 C 2502.1734 98.146084 2503.7484 99.002056 2504.375 99 C 2505.4054 98.996619 2508.8259 96.982907 2513.0938 93.875 C 2515.3818 92.208817 2519.171 93.465471 2524 97.5 C 2526.3085 99.42869 2528.9416 101 2529.875 101 C 2530.0569 101 2530.4352 100.73055 2530.6875 100.625 L 2530.6562 97.4375 C 2528.9656 98.281146 2528.2914 97.72316 2520.5 92 C 2518.3 90.383994 2515.9763 89.049522 2515.3438 89.03125 C 2514.7113 89.012979 2512.6125 90.575 2510.6875 92.5 C 2508.4824 94.705128 2506.2319 96 2504.5938 96 C 2501.2893 96 2501.3183 94.869808 2504.7812 89.6875 C 2509.514 82.60499 2509.7363 81.439381 2509.2812 64.71875 C 2508.7307 44.488281 2510.6768 34.437463 2516.3125 28.25 C 2519.1686 25.114196 2521.6993 25.442195 2524.0312 29.25 C 2525.8072 32.149793 2525.9479 33.631438 2525.4062 43 C 2524.8639 52.380223 2523.6667 58.808374 2519.9062 72.71875 C 2519.2783 75.041835 2519.0493 78.109328 2519.4062 79.53125 C 2520.2622 82.941272 2527.7503 91 2530.0625 91 C 2530.1664 91 2530.4532 90.741894 2530.5938 90.6875 L 2530.5625 87.40625 z "/>
</svg>
