<?xml version="1.0" encoding="UTF-8"?>
<svg xmlns="http://www.w3.org/2000/svg" viewBox="2528.56 19.44 34.99 85.05">
  <path d="M 2530.5625,87.40625 2530.5938,90.6875 C 2532.8587,89.810926 2539.493,82.367038 2542.7188,76.90625 2543.6672,75.300806 2544.7362,74 2545.125,74 2545.5137,74 2546.3334,72.517788 2546.9375,70.6875 2547.7766,68.144892 2547.6962,65.728216 2546.5938,60.46875 2545.7937,56.651853 2545.2737,49.917378 2545.4375,45.34375 2545.6907,38.271325 2545.4776,36.822274 2543.8438,35.34375 2542.7958,34.395349 2541.0021,32.136186 2539.875,30.3125 2538.7479,28.488813 2537.4115,27 2536.9062,27 2534.9828,27 2536.124,30.461756 2539.3438,34.40625 2542.6067,38.403772 2542.7096,38.808466 2543.375,50.5 2543.7507,57.1 2544.3205,64.111264 2544.625,66.0625 2545.1198,69.233092 2544.5153,70.508656 2538.9375,78.0625 2535.5048,82.711264 2532.2285,86.813376 2531.6562,87.1875 2531.3306,87.400383 2530.9547,87.421051 2530.5625,87.40625 z M 2530.6562,97.4375 2530.6875,100.625 C 2532.9736,99.66872 2537.8905,94.715183 2543.5312,87.5 2545.6812,84.75 2547.7235,82.275 2548.0625,82 2548.4014,81.725 2550.357,78.575 2552.4375,75 2556.7162,67.647844 2556.908,65.699468 2554.625,53 2552.5028,41.19534 2552.5229,41.140054 2557,34.25 2561.2503,27.708877 2561.5534,27 2560.0625,27 2559.5428,27 2557.2928,29.541714 2555.0625,32.65625 2551.357,37.830992 2551.008,38.843669 2551.0625,44.40625 2551.0953,47.754214 2551.5429,52.75 2552.0625,55.5 2554.3749,67.738336 2554.422,67.134907 2550.625,73.5 2545.5768,81.962655 2534.8457,95.253147 2531.7188,96.90625 2531.2551,97.151374 2530.9806,97.275638 2530.6562,97.4375 z M 2540.5312,23.9375 C 2540.0873,24.479783 2540.6399,26.133509 2542.4688,28.53125 2544.0356,30.58552 2545.9714,32 2547.25,32 2549.3019,32 2556,26.500692 2556,24.8125 2556,23.309131 2553.1245,23.993941 2551.8125,25.8125 2549.2904,29.308308 2547.9574,29.351968 2544.5312,26.03125 2542.417,23.982079 2540.9752,23.395217 2540.5312,23.9375 z"/>
</svg>
