<?xml version="1.0" encoding="UTF-8"?>
<svg xmlns="http://www.w3.org/2000/svg" viewBox="2618 72.26 41.25 32.04">
  <path d="M 2642.9139,97.88018 C 2646.3756,96.673411 2649.8934,91.935656 2651.9269,85.741285 2653.7085,80.314345 2652.9683,79.532258 2648.756,82.390822 2642.7997,86.432882 2637.7698,87.561856 2632.7472,85.984036 2630.4112,85.250213 2627.571,83.828604 2626.4355,82.824906 2625.3001,81.821208 2624.0626,81 2623.6855,81 2622.2918,81 2623.0643,84.998368 2625.1718,88.69284 2628.2505,94.089875 2630.055,96.003176 2633.4916,97.514147 2637.3256,99.199857 2638.9475,99.262864 2642.9139,97.88018 z M 2632.5,99.833022 C 2626.563,96.549372 2620.0024,85.776726 2620.0008,79.309017 2619.9997,74.747245 2621.6962,74.309605 2625.2582,77.952839 2628.8235,81.599603 2633.9496,84 2638.1718,84 2641.8025,84 2645.4001,82.178567 2650.9844,77.513037 2653.3602,75.528099 2655.6619,74.263146 2656.0992,74.70203 2657.2471,75.854067 2653.7402,88.500904 2651.3727,91.7471 2650.2684,93.261195 2649.0642,95.307819 2648.6965,96.295153 2647.2981,100.05087 2636.9721,102.30643 2632.5,99.833022 z"/>
</svg>
