<?xml version="1.0" encoding="UTF-8"?>
<svg xmlns="http://www.w3.org/2000/svg" viewBox="643.9 16.04 54.7 87.03">
  <path d="M673.04609 97.319727C671.13333 95.979981 670.17206 95.897612 667.54324 96.848204C661.26044 99.120093 661.16721 98.777547 663.6571 82.569927C664.69599 75.80742 658.42524 67.742344 654.59801 70.918658C652.64493 72.539568 649.50193 70.871308 647.60772 67.208317C646.38799 64.849601 646.39094 64.101483 647.62931 61.737961C649.31456 58.52155 651.78175 58.253884 655.17088 60.919775L657.61148 62.83955L660.29394 58.398544C662.70709 54.40342 663.00853 52.830157 663.29636 42.728769C663.55555 33.63243 664.02162 30.721901 665.75055 27.402755C668.3976 22.321024 671.81588 20.0 676.65294 20.0C681.80695 20.0 686.39194 23.444569 689.5523 29.690907C691.94783 34.425587 692.0768 35.246564 690.96758 38.700149C688.56252 46.188376 684.0 48.667415 684.0 42.485976C684.0 38.415142 680.26115 32.030526 677.86663 32.012379C675.72764 31.996168 675.0303 34.889302 675.01365 43.848871C674.9984 52.056652 676.47282 56.162691 680.98909 60.489545L683.8859 63.264871L687.58746 61.080899C692.22057 58.347296 693.57743 58.857554 695.08873 63.901808C696.11271 67.319573 696.04398 68.283938 694.62165 70.454675C692.70578 73.378677 689.14052 73.793403 685.63959 71.499508C683.53004 70.117273 683.19046 70.176383 681.33091 72.249508C676.87032 77.222405 676.24101 78.860393 677.09519 83.274426C678.35375 89.778162 678.15964 96.622618 676.68185 97.849078C675.70721 98.657957 674.75973 98.520008 673.04609 97.319727Z M654.53894 66.936987C655.22476 65.827312 652.33677 62.0 650.81363 62.0C649.26581 62.0 648.73603 64.977015 650.01057 66.512735C651.45295 68.250695 653.60256 68.452087 654.53894 66.936987Z M671.75572 92.93456C673.13222 93.561736 674.49003 93.843308 674.77306 93.560274C675.05609 93.27724 674.85116 89.821021 674.31766 85.879788L673.34765 78.713908L676.67921 74.106954C682.1239 66.577922 682.1224 66.545376 675.95467 58.390895C673.03184 54.526557 672.83638 53.722405 672.67335 44.890895C672.45984 33.324565 673.97286 28.739904 677.8525 29.197387C680.60694 29.52219 685.90675 36.088011 685.96678 39.25C686.01222 41.643494 687.71909 41.460419 688.50713 38.977529C689.58392 35.584868 687.97175 30.974497 684.2795 26.88761C681.38771 23.686751 680.10505 23.0 677.0185 23.0C668.76739 23.0 665.70646 29.056649 666.11992 44.564996C666.31579 51.911983 666.03122 54.318812 664.80136 55.717002C663.93878 56.697651 662.28888 59.378338 661.13492 61.674085L659.03681 65.848169L663.01841 71.147173C665.20828 74.061625 667.05625 77.020787 667.125 77.723088C667.19375 78.42539 667.33357 79.5625 667.43572 80.25C667.53786 80.9375 667.03648 83.525 666.32154 86.0C664.35277 92.815556 664.52781 94.323074 667.12649 92.932303C668.71667 92.081268 669.8842 92.081837 671.75572 92.93456Z M693.0 67.059017C693.0 63.374777 691.50128 62.393761 688.40465 64.051031C684.52973 66.124826 686.02492 70.0 690.7 70.0C692.57863 70.0 693.0 69.461202 693.0 67.059017Z"/>
</svg>
