<?xml version="1.0" encoding="UTF-8"?>
<svg xmlns="http://www.w3.org/2000/svg" viewBox="3132.72 19.84 56.98 86.37">
  <path d="M 3135.3438,38.4375 3135.3125,39.375 3136.7188,42.1875 C 3137.1219,39.974278 3138.5781,38.669136 3142.375,36.125 3157.6819,25.86864 3160.8804,24.93439 3163.5,30 3165.4633,33.796593 3168.1644,51.515515 3167.4062,55.59375 3166.7957,58.878096 3162.0412,62.58553 3160.4062,61.0625 3158.096,58.910407 3155.1388,58.961137 3153.0938,61.15625 3148.9235,65.632439 3151.9533,70.345506 3158.6562,69.8125 3162.4577,69.510218 3162.5,69.551717 3162.5,73 3162.5,76.217773 3162.2379,76.52441 3159.25,76.8125 3155.5358,77.170612 3154.8888,78.710134 3158.25,79.1875 3159.4875,79.363253 3160.4612,80.0625 3160.4062,80.75 3160.3512,81.4375 3160.2387,83.999564 3160.1562,86.4375 3160.0385,89.915734 3159.5694,91.001897 3158,91.5 3155.1674,92.399018 3155.5022,94 3158.5312,94 3160.3243,94 3161.5819,94.899326 3162.7812,97.03125 3165.7365,102.28425 3172.3419,101.90335 3174.875,96.34375 3175.7923,94.330464 3176.3256,94.106083 3177.9375,94.96875 3181.1126,96.668022 3181.5981,94.100592 3178.625,91.34375 3174.0001,87.055337 3175.4629,78.692087 3180.5,80.625 3181.4225,80.978992 3182,80.64124 3182,79.71875 3182,78.081719 3179.9471,77 3176.8438,77 3175.2105,77 3174.9293,76.428682 3175.1875,73.75 3175.4921,70.590887 3175.6289,70.524253 3179.6875,70.84375 3183.2596,71.124949 3184.0858,70.799866 3185.5312,68.59375 3187.1,66.199464 3187.1146,65.821224 3185.5938,63.5 3183.6968,60.604887 3182.0454,60.390846 3177.9062,62.53125 3172.6047,65.272823 3169.7435,61.554389 3169.4688,51.59375 3169.0989,38.192047 3165.9439,26.31378 3162.4062,24.96875 3159.233,23.762273 3154.5287,24.779648 3152.4062,27.125 3151.4679,28.161873 3150.1961,29.022465 3149.5938,29.03125 3148.9916,29.040035 3147.0457,30.277535 3145.25,31.78125 3139.3812,36.69563 3136.7595,38.693319 3135.3438,38.4375 z M 3167.5,62.375 C 3168.4711,62.543406 3169.5701,63.114317 3170.6875,64.15625 3172.9514,66.267111 3173.1416,67.020608 3172.5938,71.75 3172.2591,74.638938 3172.479,80.058288 3173.0938,83.78125 3174.0303,89.451919 3173.9612,91.157855 3172.6562,94.28125 3171.6211,96.758427 3170.4688,98 3169.1875,98 3166.6025,98 3165.3443,96.305739 3163.875,90.8125 3162.8414,86.947767 3162.8982,84.999016 3164.3125,78.5625 3165.5025,73.146854 3165.7108,70.328036 3165,69 3162.7999,64.889054 3164.5868,61.869782 3167.5,62.375 z M 3156.5,62.40625 C 3157.5292,62.327803 3158.5,63.010931 3158.5,64.5 3158.5,65.833333 3157.7096,66.623723 3156.1562,66.84375 3154.2174,67.118374 3153.8816,66.782564 3154.1562,64.84375 3154.3694,63.338429 3155.4708,62.484697 3156.5,62.40625 z M 3180.8438,64.375 C 3182.6345,64.078919 3184,64.858048 3184,66.46875 3184,68.154695 3180.4056,68.538057 3178.125,67.09375 3177.0231,66.395934 3177.1769,65.973517 3178.9375,65.03125 3179.5926,64.680651 3180.2468,64.473694 3180.8438,64.375 z"/>
</svg>
