<?xml version="1.0" encoding="UTF-8"?>
<svg xmlns="http://www.w3.org/2000/svg" viewBox="1879.61 18.15 35.36 84.7">
  <path d="M 1910.6562 80.25 C 1910.6157 80.321831 1910.5716 80.499267 1910.5312 80.5625 C 1909.2874 82.509807 1903.1762 85 1899.6562 85 C 1898.7717 85 1897.2559 83.5375 1896.2812 81.75 C 1894.7128 78.873016 1894.5066 75.404681 1894.4688 51.5 C 1894.4452 36.647775 1894.0797 23.935275 1893.6562 23.25 C 1893.2327 22.564726 1891.7484 22 1890.375 22 C 1886.353 22 1884.2483 28.186057 1883.4062 42.5 C 1881.6062 73.103612 1883.7432 90.461039 1890.0312 96.25 C 1891.6742 97.7625 1893.8399 99 1894.8438 99 C 1898.0751 99 1905.7596 96.303114 1908.9062 94.0625 L 1911.9688 91.875 L 1912.9688 92.90625 L 1912.9688 92.65625 L 1911.9375 87.09375 C 1911.7381 89.289315 1906.7638 93.241516 1902.0938 94.84375 C 1893.8056 97.687335 1890.4986 95.466912 1887.4062 85 C 1885.3708 78.110014 1884.9706 62.201603 1886.2812 40.4375 C 1886.9526 29.290535 1888.1625 25 1890.5625 25 C 1891.9962 25 1892.0973 27.095305 1891.5312 45.25 C 1890.8587 66.826825 1891.774 77.854408 1894.7812 84 C 1896.8982 88.325784 1899.8462 88.880112 1906 86.125 C 1909.3653 84.618284 1910.9076 84.30224 1911.5625 85.1875 L 1910.6562 80.25 z "/>
</svg>
