<?xml version="1.0" encoding="UTF-8"?>
<svg xmlns="http://www.w3.org/2000/svg" viewBox="3577.93 62.79 31.6 45.27">
  <path d="M 3593.1732,101.25 C 3595.3771,98.649714 3599,92.064216 3599,90.658447 3599,88.979934 3593.7354,86 3590.77,86 3588.3258,86 3583.477,90.15827 3584.1486,91.678518 3586.0688,96.025284 3590.2045,103 3590.8619,103 3591.3173,103 3592.3575,102.2125 3593.1732,101.25 z M 3587.4307,102.75 C 3582.2797,96.65592 3580.6749,91.459022 3580.2124,79.374981 3579.9325,72.062684 3580.1558,68.021755 3580.864,67.584083 3582.1898,66.764676 3583.1764,70.347594 3582.9155,75.034131 3582.5731,81.184253 3582.98,87.000961 3583.75,86.964037 3584.1625,86.944257 3585.7887,85.874034 3587.3638,84.585763 3590.052,82.387005 3590.2305,81.774082 3590.2769,74.584839 3590.3396,64.847199 3592.2623,65.950751 3592.8331,76.052007 3593.2013,82.568905 3593.431,83.171495 3596.0651,84.533659 3600.1004,86.620398 3600.5492,86.441407 3601.7905,82.25 3603.741,75.66409 3603.9761,73.403617 3603.0474,70.16523 3602.3544,67.748956 3602.4527,67 3603.4628,67 3607.5321,67 3606.1247,80.276698 3600.6814,93.238949 3598.4222,98.618816 3593.1352,106 3591.5409,106 3590.7912,106 3588.9416,104.5375 3587.4307,102.75 z"/>
</svg>
