<?xml version="1.0" encoding="UTF-8"?>
<svg xmlns="http://www.w3.org/2000/svg" viewBox="154.98 12.78 110.12 92.53">
  <path d="M169.57685 85.25C170.01181 84.2875 170.5516 81.1375 170.77639 78.25C171.10462 74.033833 170.8849 73.0 169.66064 73.0C167.86842 73.0 164.37979 77.612074 162.84778 82.00682C162.25432 83.70922 161.53522 84.868551 161.24978 84.583111C160.5477 83.881034 162.89269 78.161981 165.33456 74.620974C167.00357 72.200722 167.11994 71.421708 166.06488 69.732286C159.98739 60.000669 160.33862 28.961207 166.63682 19.188731C167.60136 17.692125 168.89719 16.987176 170.3132 17.188731C172.47074 17.495835 172.5 17.743469 172.5 35.695146C172.5 56.950292 172.83765 57.880675 178.82919 53.135285C181.00643 51.410878 183.70108 50.0 184.81731 50.0C185.93353 50.0 188.94311 51.600141 191.50525 53.555868C194.06739 55.511595 197.25186 57.525457 198.58184 58.031117C201.62531 59.18824 201.72812 61.00121 198.75 60.996262C196.56749 60.992636 194.17774 59.656655 187.10773 54.487691L183.71546 52.007563L179.34772 56.033606C175.73481 59.363866 174.64777 59.881858 173.05771 59.030886C172.00047 58.465066 170.85692 57.124546 170.51649 56.051952C169.29348 52.198584 169.1297 40.317869 170.16695 30.695246C170.74823 25.302632 170.95934 20.626006 170.63608 20.302745C169.24845 18.915112 167.07711 22.564474 165.52711 28.889373C162.66234 40.579333 165.35773 67.048836 169.5778 68.668227C171.02257 69.222639 180.0 64.489576 180.0 63.173454C180.0 62.306567 185.36123 59.0 186.76679 59.0C187.2938 59.0 189.47437 60.39705 191.6125 62.104556C193.75062 63.812062 196.38167 65.83289 197.45927 66.595286C198.80791 67.549444 199.09641 68.303591 198.38494 69.015061C197.67347 69.726531 195.91281 68.95027 192.73566 66.524332C190.19704 64.585949 187.14294 63.0 185.94877 63.0C184.75461 63.0 181.64306 64.787103 179.03423 66.971339C174.56486 70.713311 174.25423 71.29353 173.65597 77.017434C173.30675 80.35855 172.55046 83.971448 171.97533 85.046095C170.65785 87.507832 168.47258 87.693611 169.57685 85.25Z M197.1692 94.871541C193.04203 88.561437 192.15004 83.946154 194.39535 80.519367C195.30327 79.133715 196.56417 78.0 197.19737 78.0C197.83056 78.0 197.40426 79.0125 196.25003 80.25C194.33264 82.305724 194.26971 82.779331 195.52116 85.735052C197.03874 89.319319 202.07336 95.999924 203.25698 95.999971C203.67332 95.999987 203.74736 92.9625 203.42151 89.25L202.82905 82.5L207.41498 77.5L212.00092 72.5L217.07733 78.0C222.44538 83.815974 222.37224 83.500783 220.38743 92.264407C219.41077 96.576705 222.02732 94.830381 225.32046 88.972033L228.13259 83.969368L225.3732 78.234684C223.85553 75.080608 222.30181 71.533077 221.92047 70.351283C221.14604 67.951223 223.41575 63.797952 226.79545 61.430718C228.66831 60.118917 229.41497 60.222185 234.18934 62.453344C237.1102 63.818321 240.47008 65.651438 241.65573 66.526937C243.65984 68.006799 243.9475 67.972728 245.74578 66.042497C252.20704 59.107151 260.09666 32.850695 257.12618 28.168792C256.5579 27.273093 256.05547 28.254552 255.59043 31.168792C254.51698 37.895642 249.34269 51.861933 246.58392 55.478858C243.30757 59.774383 240.76669 60.327619 236.75115 57.619789C230.80709 53.611491 227.34438 52.614714 224.07229 53.970055C222.46206 54.637037 220.36731 56.041631 219.41731 57.091375C216.58812 60.217592 215.34112 59.319652 214.04771 53.224832C212.98064 48.196549 213.06969 46.404414 214.73628 39.36745L216.65043 31.285237L213.72822 27.642618C210.32896 23.405337 209.12986 23.171635 206.58287 26.25C205.55898 27.4875 204.10265 29.217417 203.34658 30.094261C202.17759 31.449983 202.19845 32.2307 203.48595 35.312142C205.1482 39.290446 205.54257 45.453359 204.07694 44.547549C203.56925 44.233783 202.83418 42.521529 202.44345 40.74254C202.05272 38.963551 201.03906 36.052733 200.19086 34.274056C198.653 31.049124 198.66033 31.028345 202.81735 26.829767C205.11012 24.514085 207.24448 21.805063 207.56039 20.809718C208.37835 18.232563 209.10715 18.501315 213.5 23.0C215.64824 25.2 217.81766 27.0 218.32093 27.0C218.8242 27.0 220.77354 25.65 222.65278 24.0C226.93416 20.240904 228.0967 20.25055 231.92308 24.076923C236.62506 28.778909 235.82142 34.489629 230.03678 37.480981C227.3009 38.89576 226.96151 38.838489 224.17207 36.491331C222.54364 35.121099 220.52604 34.0 219.68851 34.0C217.25655 34.0 214.88118 47.92083 216.56458 52.307704C217.25684 54.111698 220.38435 53.473569 224.32915 50.723444C227.51024 48.505736 229.31688 48.955429 236.22077 53.683404C240.88073 56.874675 244.30098 56.252434 246.60656 51.793933C248.93516 47.290924 252.08072 36.559952 253.43469 28.5C254.46865 22.344997 255.01986 21.0 256.50837 21.0C258.56415 21.0 258.9914 22.219903 259.60798 29.850101C260.04101 35.208916 259.67643 38.621616 258.02965 44.624173C256.85186 48.917247 255.46939 52.934416 254.95749 53.551215C254.4456 54.168015 253.33692 56.627917 252.49377 59.017664C250.57255 64.462978 246.41769 70.0 244.25286 70.0C243.34791 70.0 240.9287 68.836591 238.87683 67.414646C232.34271 62.886495 224.0 63.278036 224.0 68.112847C224.0 69.266727 226.85276 76.086158 229.07164 80.236431C230.6626 83.212222 230.11134 86.00131 226.85673 91.442657C222.92196 98.021153 220.39083 99.819399 218.17911 97.607682C216.81346 96.242032 216.77814 95.390389 217.90482 90.994301C219.15612 86.111988 219.11037 85.833478 216.49323 82.402232C212.90986 77.704191 211.39756 77.280884 208.35226 80.123486C205.94871 82.367044 205.84358 82.882899 206.47296 89.344104C207.02848 95.046981 206.85204 96.506008 205.41484 98.094104C202.69167 101.10317 200.74827 100.34366 197.1692 94.871541Z M198.56062 74.0C199.3803 70.914664 201.0 68.995009 201.0 71.10887C201.0 71.938749 200.3017 73.491249 199.44822 74.55887C197.9569 76.424371 197.92232 76.402597 198.56062 74.0Z M204.13966 54.414933C204.7279 52.26172 205.43969 50.275 205.72141 50.0C206.60254 49.139897 204.83614 56.450136 203.92971 57.414933C203.45695 57.918146 203.55142 56.568146 204.13966 54.414933Z M230.06574 34.964816C231.40291 34.249187 232.0 32.867184 232.0 30.487869C232.0 23.944268 225.04428 22.311704 221.93306 28.125076C220.97429 29.916559 221.28251 30.59974 224.16014 33.061517C228.07848 36.413604 227.62921 36.268808 230.06574 34.964816Z"/>
</svg>
