<?xml version="1.0" encoding="UTF-8"?>
<svg xmlns="http://www.w3.org/2000/svg" viewBox="734.18 16.37 57.95 90.09">
  <path d="M 737.21875,48.6875 737.28125,50.21875 737.625,56.59375 C 737.67705,56.765751 737.64524,57.029177 737.65625,57.25 L 737.75,58.71875 736.8125,66.71875 736.84375,67.28125 C 737.54594,68.572097 738.04392,71.051305 738.90625,76 740.21589,83.515704 743.42143,90.316202 747.09375,93.40625 750.93827,96.641203 753.41373,96.67542 757.1875,93.5 760.95695,90.328218 764.02027,90.328218 767,93.5 771.75667,98.563244 778.2588,95.659061 782.375,86.65625 786.96744,76.611829 788.1784,68.618444 786.8125,57.0625 784.56118,38.015565 777.90454,26.72279 766.25,22.0625 762.25313,20.464271 754.91742,21.388459 752.65625,23.78125 744.90594,31.982688 738.77922,41.849385 737.53125,48.15625 737.49715,48.328562 737.27812,48.514602 737.21875,48.6875 z M 759.4375,24.34375 C 762.63132,23.904845 766.23664,25.060984 770.28125,27.84375 777.68154,32.935277 781.15932,39.498173 784.03125,53.78125 786.51712,66.144333 783.45022,82.742873 777.34375,90 774.28343,93.636986 772.40453,93.749562 768,90.5 766.13629,89.125 763.60094,88 762.375,88 761.14905,88 758.82159,89.125 757.1875,90.5 755.5534,91.875 753.52774,93 752.6875,93 750.27921,93 744.22628,85.205942 742.28125,79.59375 739.84053,72.551293 739.91456,47.034091 742.375,42.5 743.27038,40.85 743.99661,38.929813 744,38.21875 744.00878,36.376087 752.88222,27.118685 756.375,25.3125 757.34882,24.808919 758.37289,24.490052 759.4375,24.34375 z M 788.8125,89.34375 C 788.5858,89.259855 788.15548,89.450684 787.53125,89.96875 786.09324,91.162194 781,99.331621 781,100.4375 781,102.36608 783.40869,100.32676 785.96875,96.25 788.43096,92.329077 789.4926,89.595435 788.8125,89.34375 z M 762.5,31 C 760.52901,30.852074 758.46767,32.292757 755.53125,35.25 748.78485,42.04422 746.63901,48.885564 746.5625,64 746.50315,75.724247 746.65515,76.744337 749,80.25 751.83764,84.492411 753.642,84.862632 757.28125,82 760.44249,79.513372 760.16585,79.49515 764.59375,82.5 769.11398,85.567512 770.34357,85.599044 772.96875,82.78125 780.54871,74.645113 778.2737,48.925508 768.84375,36.25 766.33995,32.88446 764.47099,31.147926 762.5,31 z M 761.90625,34 C 765.7265,34 772.7483,47.02109 774.46875,57.28125 774.81716,59.359034 775.54029,60.791494 776.0625,60.46875 776.58471,60.146006 777,60.610081 777,61.5 777,62.389919 776.6282,62.885426 776.15625,62.59375 775.68431,62.302075 775.01375,64.859534 774.6875,68.28125 774.36125,71.702967 773.58399,75.912846 772.96875,77.65625 772.35351,79.399654 771.33657,81.034424 770.6875,81.28125 769.05658,81.901454 765.70016,80.560608 764.09375,78.625 762.3962,76.57958 758.64136,76.547132 756.96875,78.5625 756.26203,79.414041 754.74187,79.976541 753.59375,79.8125 748.47938,79.081774 747.21612,59.12456 751.5,46.71875 754.09759,39.19631 758.3588,34 761.90625,34 z"/>
</svg>
