<?xml version="1.0" encoding="UTF-8"?>
<svg xmlns="http://www.w3.org/2000/svg" viewBox="1852.71 16.02 129.78 88.82">
  <path d="M 1976.5312,51.15625 C 1975.5163,52.770454 1974.1482,54 1972.9375,54 1972.3574,54 1969.8823,54.917497 1967.4375,56.03125 1959.1446,59.80912 1957.9682,59.673346 1951.9375,54.5 1946.905,50.182961 1946.2039,49.88973 1942.5,50.46875 1940.3,50.81267 1938.085,51.540652 1937.5625,52.0625 1937.04,52.584348 1935.6241,53 1934.4375,53 1932.5457,53 1932.2178,52.292164 1931.6875,47.21875 1931.056,41.176498 1931.4275,38.027659 1933.25,34.25 1934.5452,31.565515 1935.7094,31.413615 1938.1875,33.65625 1939.6719,34.999668 1940.7828,35.152949 1943.7812,34.40625 1947.3677,33.513095 1947.4853,33.337931 1947.4062,29.3125 1947.361,27.009081 1946.7408,24.417506 1946.0312,23.5625 1944.262,21.430648 1940.1425,21.607728 1936.2188,24 1931.9898,26.578375 1931.7009,26.558909 1927.7188,23.0625 1924.5005,20.236753 1924.2408,20.170603 1921.4375,21.625 1919.8288,22.459571 1917.807,23.775583 1916.9375,24.5625 1914.5964,26.681173 1912.8574,26.343417 1908.6875,22.90625 1906.5739,21.164037 1904.3018,20.055346 1903.4688,20.375 1900.9594,21.337929 1899.5878,25.58001 1900.625,29.21875 1901.4374,32.068537 1902.0421,32.542131 1905.2812,32.8125 1907.3263,32.983201 1909,32.706695 1909,32.21875 1909,31.730805 1910.2688,31.523425 1911.8125,31.75 1914.1268,32.089664 1914.8161,32.909756 1915.7812,36.34375 1916.425,38.634419 1917.2483,43.209213 1917.5938,46.53125 1918.478,55.034428 1917.1623,55.980822 1908.7188,53 L 1902.4375,50.78125 1896.8438,53.8125 1891.2188,56.84375 1889.2188,54.6875 C 1883.0168,47.898786 1882.0037,39.422459 1886.375,31.0625 1887.8908,28.163742 1888.8725,25.528699 1888.5625,25.21875 1888.2526,24.9088 1887.8894,24.864584 1887.75,25.09375 1887.6107,25.322917 1886.5539,26.85 1885.4062,28.5 1882.0474,33.328613 1879.8726,41.036153 1880.875,44.53125 1883.7026,54.39066 1891.1014,62.880942 1893.5,59 1893.8424,58.445942 1895.9384,57.102855 1898.1562,56.03125 1902.4579,53.952937 1906.8494,54.182385 1910.4688,56.65625 1911.5537,57.397793 1913.9265,58 1915.7188,58 1918.4606,58 1919.0554,57.564074 1919.5625,55.25 1919.8939,53.7375 1920.3024,52.037891 1920.4688,51.46875 1920.6351,50.89961 1919.9497,45.566153 1918.9375,39.625 1917.4735,31.031437 1917.3232,28.426503 1918.2812,26.875 1920.2014,23.765266 1923.5502,23.492154 1926.9062,26.15625 1930.8445,29.282359 1931.2154,30.450775 1929.875,35.34375 1928.4536,40.532411 1928.5698,51.30449 1930.0625,54.09375 1931.2748,56.358963 1932.5519,56.34228 1940.75,53.875 1944.8748,52.633608 1945.0812,52.675652 1948.25,55.65625 1950.0421,57.341984 1952.9354,59.531929 1954.6875,60.53125 1957.5051,62.138303 1958.3715,62.198496 1962.1875,61.0625 1964.5604,60.356099 1968.2717,58.947516 1970.4375,57.90625 1972.8883,56.727956 1974.2481,56.179614 1975,56.1875 L 1975.1875,54.9375 1976.5938,51.1875 1976.5312,51.15625 z M 1904.8438,24 C 1907.1192,24 1910.4278,27.487063 1909.5312,28.9375 1908.5227,30.56939 1904.2767,30.186073 1903.5938,28.40625 1902.5063,25.572628 1902.9624,24 1904.8438,24 z M 1942.4375,24.75 C 1943.898,25.082941 1945.0799,26.138461 1945.5,27.8125 1945.972,29.692867 1945.6452,30.789989 1944.375,31.71875 1941.9623,33.483002 1941.5159,33.375037 1938.3125,30.40625 L 1935.5,27.8125 1937.7188,26.03125 C 1939.2397,24.799698 1940.977,24.417059 1942.4375,24.75 z M 1974.2188,61.34375 C 1973.2679,63.428041 1972.2425,65 1971.3125,65 1970.5784,65 1968.3023,65.9 1966.25,67 1961.1346,69.741661 1957.4785,69.512157 1950.875,66.03125 1947.7799,64.399697 1943.5049,62.77406 1941.375,62.4375 1937.9534,61.896802 1937.1411,62.200222 1934.5312,64.9375 1932.0267,67.564353 1931.534,68.997159 1931.1875,74.4375 1930.8161,80.271601 1931.0097,81.103457 1933.3438,83.4375 1936.5818,86.675521 1941.3056,86.791633 1947.4375,83.8125 L 1951.9062,81.65625 1957.5625,83.5625 1962.1875,85.125 1962.4688,81.34375 1962.4688,81.3125 C 1961.3602,81.649646 1960.1362,81.481202 1958.4062,80.65625 1953.7216,78.422262 1951.805,78.558403 1946,81.5 1940.3137,84.38145 1940.315,84.389498 1937,82.71875 1934.8537,81.637047 1934.4713,80.655177 1934.2188,75.90625 1933.9655,71.142024 1934.2505,70.016013 1936.4375,67.65625 1938.6371,65.282774 1939.4823,64.998322 1942.6562,65.59375 1944.6713,65.971789 1948.2326,67.583861 1950.5625,69.15625 1955.6052,72.559525 1960.3792,72.839633 1966.0625,70.09375 1968.0301,69.143106 1969.0066,68.854681 1969.4375,69.15625 L 1969.5312,69.09375 1973.7812,64.375 1974.2188,61.34375 z M 1961.5,94.46875 C 1959.9039,94.535848 1958.2976,93.600935 1956,91.53125 1952.1126,88.0295 1949.726,87.925004 1944.3438,91.09375 1937.8474,94.918373 1933.7783,94.818289 1923.9375,90.59375 1922.9591,90.173764 1920.6756,91.290068 1917.7188,93.59375 1913.6118,96.793436 1912.6135,97.132944 1909.4062,96.53125 1907.3967,96.154246 1903.4407,94.802415 1900.625,93.5 L 1895.5,91.125 1890.25,94.0625 C 1883.7915,97.687073 1881.1157,97.740355 1874.875,94.34375 1872.1853,92.879839 1869.6943,91.96188 1869.3438,92.3125 1868.2684,93.387875 1871.0621,95.945397 1875.3438,97.8125 1881.3921,100.44997 1883.7598,100.33174 1889.7188,96.96875 L 1895.125,93.90625 1899.7188,96.46875 C 1907.2381,100.67144 1911.0058,100.79642 1917.125,97.03125 L 1922.3438,93.8125 1927.2812,95.40625 C 1934.4978,97.736945 1939.6472,97.425862 1945.5938,94.3125 L 1950.7188,91.625 1955.5312,94.8125 C 1957.9146,96.391148 1960.2202,97.566935 1961.25,97.8125 L 1961.5,94.46875 z M 1882.2812,23.75 C 1881.7867,23.930114 1881.0359,24.482015 1879.9375,25.40625 1876.2414,28.51625 1874.0709,28.663412 1871,26 1866.0015,21.664798 1865.5971,24.365735 1870.4688,29.53125 L 1873.9375,33.1875 1878.4688,29.46875 C 1880.965,27.423188 1883,25.088888 1883,24.28125 1883,23.75702 1882.7758,23.569886 1882.2812,23.75 z M 1860.1562,30.0625 C 1858.6121,29.868631 1859.6878,31.914368 1863.25,35.25 1866.6079,38.394282 1868.2156,40.908238 1869.375,44.84375 1871.7798,53.007386 1877.6887,64.627816 1880.625,66.9375 1884.4458,69.942986 1889.5776,69.604586 1895,66 1899.89,62.749295 1904.9992,62.095696 1906.9688,64.46875 1907.6389,65.276167 1908.7027,65.838667 1909.3125,65.71875 1909.9222,65.598834 1910.4437,66.014583 1910.4688,66.65625 1910.4937,67.297916 1910.8375,68.18125 1911.25,68.59375 1911.6625,69.00625 1912,72.210417 1912,75.71875 1912,81.150816 1911.6442,82.449582 1909.5625,84.53125 1906.862,87.231766 1905.6472,87.06629 1900.0312,83.3125 1895.9327,80.573116 1892.7807,80.358406 1890.875,82.65625 1890.1202,83.566447 1888.0503,84.916739 1886.2812,85.65625 1883.5273,86.807432 1882.4,86.782821 1878.4375,85.4375 1875.892,84.573276 1873.5424,84.113817 1873.2188,84.4375 1872.3128,85.34359 1874.7278,87.386354 1878.2812,88.6875 1883.533,90.610567 1886.4801,90.194585 1890.5,87 1892.5763,85.35 1894.4452,84 1894.6562,84 1894.8675,84 1896.7733,85.151002 1898.9062,86.5625 1901.7547,88.447462 1903.8281,89.044861 1906.6562,88.8125 1910.0916,88.530242 1910.7479,88.014938 1912.8125,84 1914.6831,80.362323 1915.0437,78.295393 1914.75,73.21875 1914.4381,67.827355 1913.9819,66.513207 1911.4062,63.9375 1906.2668,58.798041 1900.2815,58.888277 1893.125,64.21875 1891.8134,65.195746 1889.2767,66 1887.5,66 1881.1277,66 1877.7149,61.205483 1872.4062,44.84375 1869.9161,37.169307 1867.3616,33.599666 1862.5625,31.03125 1861.4589,30.440614 1860.671,30.127123 1860.1562,30.0625 z"/>
</svg>
