<?xml version="1.0" encoding="UTF-8"?>
<svg xmlns="http://www.w3.org/2000/svg" viewBox="69.12 16.83 29.69 91.63">
  <path d="M 77.964463,98.417095 C 76.884008,95.896497 76,92.836497 76,91.617095 76,90.397693 75.620512,88.9725 75.156693,88.45 73.363564,86.430009 71.838522,69.77969 71.453649,48.020394 71.123056,29.329886 71.307193,24.97396 72.494184,23.40559 74.049457,21.350609 74.288234,25.687158 74.00342,50.815555 73.893947,60.474079 74.001578,61.069091 75.69325,60.157378 76.686963,59.621825 78.625,57.980512 80,56.510016 82.486763,53.850543 82.498331,53.749453 82.184874,37.418193 82.002867,27.93554 82.255977,21 82.784051,21 83.723742,21 84.985634,35.675655 84.994826,46.711045 84.99911,51.85311 85.387246,53.287081 87.25,55.042784 92.237978,59.744107 92.784993,59.542355 93.485496,52.742988 93.839246,49.309345 93.984828,40.9875 93.809011,34.25 93.565521,24.919174 93.788489,22 94.744672,22 96.134528,22 96.113532,21.808301 96.49702,38 96.814459,51.40297 95.575707,71.713968 93.875732,80.979538 92.509983,88.423436 88.786649,97.473945 85.742262,100.75 82.440932,104.30255 80.199019,103.6301 77.964463,98.417095 z M 86.366806,95.25 C 88.771241,90.492209 92,79.456435 92,75.995958 92,73.273102 87.416801,68.312831 84.361225,67.728721 82.367002,67.347501 81.086593,67.881375 79.249596,69.860048 76.312128,73.024064 73.240057,78.587705 75.047135,77.470869 75.826913,76.98894 76.086395,77.217265 75.774397,78.110804 75.50761,78.874862 75.89436,81.525 76.633841,84 77.373322,86.475 77.983222,89.461062 77.989176,90.635693 78.004717,93.702172 81.403036,100 83.042171,100 83.550447,100 85.046532,97.8625 86.366806,95.25 z M 79.001185,66.998336 C 80.756597,64.533087 81.617619,64.107582 83.819279,64.617303 85.293676,64.958651 87.496668,65.8594 88.714817,66.618967 91.893997,68.601322 93,68.334205 93,65.584029 93,63.069864 86.518791,56.991643 83.856096,57.008674 83.110243,57.013444 80.8125,58.616785 78.75,60.571652 76.074651,63.107387 75,64.96763 75,67.062978 75,70.811673 76.300814,70.790657 79.001185,66.998336 z"/>
</svg>
