<?xml version="1.0" encoding="UTF-8"?>
<svg xmlns="http://www.w3.org/2000/svg" viewBox="443 17.81 32.66 85.55">
  <path d="M 447.875,85.625 448.96875,89.8125 C 449.67063,89.773173 450.35395,89.678121 450.90625,89.34375 451.78362,88.812579 454.8625,84.834411 457.75,80.53125 462.71575,73.130931 464.16667,68.843638 462.09375,67.5625 461.58701,67.249318 459.88311,63.281778 458.34375,58.75 456.19342,52.419538 455.52889,48.53053 455.46875,42 L 455.40625,33.5 451.34375,29.25 C 447.73409,25.460159 445,23.901944 445,25.625 445,25.96117 446.80789,28.406944 449.03125,31.0625 452.88616,35.666769 453.0609,36.113073 452.4375,40.8125 451.64733,46.769091 453.05379,53.7698 457,63.625 458.68143,67.824171 459.65182,71.752862 459.28125,72.75 458.19392,75.675877 450.93885,85.082673 449.28125,85.71875 448.94252,85.848732 448.38798,85.694993 447.875,85.625 z M 450.84375,96.9375 451.5,99.46875 C 452.41706,99.136421 453.29317,98.641346 454.09375,97.75 457.72369,93.708491 467.66408,80.57269 468.96875,78.09375 470.73966,74.72895 470.3655,67.83761 467.90625,59 466.75838,54.875 465.3664,48.399829 464.8125,44.625 L 463.8125,37.78125 468.40625,31.03125 C 473.18922,24.031126 473.65888,23 472.03125,23 470.43225,23 461,37.134276 461,39.53125 461,40.74947 462.18913,46.191976 463.625,51.625 465.06088,57.058024 466.64813,64.612013 467.15625,68.40625 468.03692,74.982354 467.94767,75.4966 465.375,79.40625 461.57101,85.187115 452.00596,96.715032 450.84375,96.9375 z M 452.46875,21.96875 C 452.17274,22.058431 452,22.298692 452,22.71875 452,23.108061 453.65088,25.133061 455.6875,27.21875 457.72412,29.30444 459.86162,30.9902 460.4375,30.96875 461.88639,30.914782 468.34741,22 466.9375,22 466.31173,22 464.89408,23.125 463.8125,24.5 462.73092,25.875 460.9849,27 459.9375,27 458.8901,27 457.30719,25.875 456.40625,24.5 455.28072,22.782222 453.35678,21.699708 452.46875,21.96875 z"/>
</svg>
