<?xml version="1.0" encoding="UTF-8"?>
<svg xmlns="http://www.w3.org/2000/svg" viewBox="958.75 11.32 23.48 90.81">
  <path d="M 977.53125 60.46875 L 977.34375 60 L 977.0625 55.8125 C 977.0151 55.769114 976.98692 55.729819 976.9375 55.6875 C 974.90557 53.947702 974.28944 49.549808 975.9375 48.53125 C 976.01792 48.481547 976.39555 48.694539 976.5625 48.71875 L 976.21875 43.84375 C 975.96369 43.6961 975.11743 43 975.03125 43 C 974.62184 43 974.02479 39.740091 973.6875 35.75 C 972.87602 26.150107 971.53826 22.642632 967.5 19.5625 C 962.10176 15.445062 960.75428 16.421236 962.15625 23.46875 C 964.47965 35.148054 964.04664 72.060189 961.34375 93.25 C 960.85107 97.112461 961.03609 98 962.28125 98 C 963.12345 98 964.73922 96.425 965.875 94.5 C 968.07712 90.767679 970.90845 89.979834 973 92.5 C 973.67967 93.318944 974.6628 93.699283 975.1875 93.375 C 975.71221 93.050717 976.38537 93.750912 976.6875 94.90625 C 976.98963 96.061589 977.65313 97 978.15625 97 C 980.08531 97 980.23514 93.484284 978.6875 84.15625 C 976.53143 71.161156 975.60171 60 976.6875 60 C 976.75261 60 977.38716 60.415349 977.53125 60.46875 z M 964.78125 21.5 L 966.8125 23.5 C 968.52669 25.172205 969.18436 28.286254 970.84375 42.5 C 971.93531 51.85 973.36312 65.125 974 72 C 974.63687 78.875 975.41844 85.7375 975.71875 87.25 C 976.30333 90.194196 975.57927 90.574273 972.65625 88.875 C 971.64475 88.286974 969.74052 87.994938 968.40625 88.25 C 966.50845 88.612788 965.85928 88.21129 965.40625 86.40625 C 965.08773 85.137199 965.09104 83.654321 965.4375 83.09375 C 966.29821 81.701081 966.32589 36.054507 965.46875 28 L 964.78125 21.5 z "/>
</svg>
