<?xml version="1.0" encoding="UTF-8"?>
<svg xmlns="http://www.w3.org/2000/svg" viewBox="2147.72 20.38 24.36 70.84">
  <path d="M 2150,85.721817 C 2150,85.434128 2150.9,79.93431 2152,73.5 2153.1,67.06569 2154,58.081659 2154,53.535486 2154,46.601358 2153.6549,44.831033 2151.8581,42.54671 L 2149.7162,39.823703 2152.0831,40.161852 C 2157.3627,40.916133 2158.4319,51.554204 2155.003,69.214542 2153.9047,74.871544 2153.0047,80.4574 2153.003,81.627555 2153.0014,82.797711 2152.325,84.315311 2151.5,85 2150.675,85.684689 2150,86.009507 2150,85.721817 z M 2159.2225,80.25 C 2162.4467,67.419078 2165.376,48.938068 2165.3645,41.5 2165.3525,33.694627 2163.537,29.053193 2159.448,26.373959 2156.3398,24.337405 2156.9007,23.599646 2160.8909,24.476047 2167.5834,25.945952 2170.0805,35.899287 2167.5573,51.047212 2166.0157,60.302215 2165.5999,62.285923 2162.6411,74.5 2161.2542,80.225271 2158.3649,88 2157.6241,88 2157.4321,88 2158.1514,84.5125 2159.2225,80.25 z"/>
</svg>
