<?xml version="1.0" encoding="UTF-8"?>
<svg xmlns="http://www.w3.org/2000/svg" viewBox="4 14.38 35.34 90.51">
  <path d="M 37.34375,89.3125 37.34375,83.0625 C 35.000196,87.123416 32.158609,92.0589 31.15625,93.75 28.838789,97.659833 28.42619,99 29.53125,99 31.24893,99 33.502773,95.870868 37.34375,89.3125 z M 28.09375,18.5625 C 27.327109,18.628035 26.397756,19.399356 25.875,20.8125 25.332128,22.280024 25.370731,22.88891 26,22.5 27.407049,21.630396 27.226306,24.715641 25.5,30.40625 24.680953,33.106162 24,37.718662 24,40.65625 24,43.593838 24.45,46 25,46 25.55,46 26,44.191937 26,41.96875 26,39.745563 26.751183,34.458063 27.65625,30.21875 28.561317,25.979437 29.348817,21.6 29.40625,20.5 29.47802,19.125407 28.860391,18.496965 28.09375,18.5625 z M 18.09375,31.5 15.5625,34.3125 C 14.073929,35.950772 13.047653,38.239348 13.09375,39.8125 13.13971,41.380972 13.39282,41.873237 13.71875,41 14.026675,40.175 15.136687,37.7 16.1875,35.5 L 18.09375,31.5 z M 14.75,58 C 13.521943,58.010818 6,69.240587 6,71.0625 6,73.829486 9.2065624,71.256376 12.375,65.9375 16.270503,59.398097 16.695677,57.982861 14.75,58 z M 30.78125,62.125 C 29.721896,62.690711 27.816005,65.986503 22.40625,76 18.692056,82.875 14.182937,90.700745 12.375,93.40625 10.567064,96.111754 9.2949069,98.692025 9.5625,99.125 10.583649,100.77725 13.075257,98.614649 15.8125,93.65625 17.376559,90.823021 19.556855,86.925 20.65625,85 26.648352,74.508056 32.25948,62.91573 31.65625,62.3125 31.386794,62.043044 31.134368,61.93643 30.78125,62.125 z"/>
</svg>
