<?xml version="1.0" encoding="UTF-8"?>
<svg xmlns="http://www.w3.org/2000/svg" viewBox="2057.51 17.55 42.51 86.34">
  <path d="M 2083.7812,21.53125 C 2083.0624,21.589906 2082.4322,21.720982 2082.0312,21.96875 2080.8877,22.675453 2081.2047,23.120534 2083.5312,23.9375 2091.9934,26.90895 2093.1499,28.957488 2092.8438,40.34375 2092.2748,61.510862 2083.6374,86.604883 2074.375,93.9375 2071.9496,95.85755 2070.702,96.139342 2066.25,95.6875 2060.9039,95.144922 2059.981,96.239739 2064.3438,98 2069.2075,99.962375 2073.5466,98.387222 2078.5,92.84375 2086.623,83.753184 2090.5144,74.101127 2094.125,54.0625 2098.0278,32.401333 2095.9099,23.937304 2086,21.65625 2085.3102,21.497477 2084.5001,21.472594 2083.7812,21.53125 z M 2080.0938,30.28125 C 2079.5691,30.327394 2079.1295,30.495496 2078.8125,30.8125 2078.149,31.476034 2078.7619,32.26662 2080.6562,33.21875 2083.8844,34.841227 2085.1786,34.594132 2084.375,32.5 2083.8345,31.091269 2081.6677,30.142819 2080.0938,30.28125 z M 2078.9062,37.625 C 2077.4587,37.620777 2077.9723,39.414679 2080.625,41.53125 2083.3437,43.700468 2083.4872,44.204438 2083.375,51.15625 2083.1686,63.952654 2077.526,81.5277 2072.7812,84.15625 2071.5222,84.853779 2068.3003,85.672871 2065.5938,85.96875 2062.7395,86.280798 2060.4783,87.057877 2060.2188,87.84375 2059.5143,89.976805 2070.2033,88.652744 2074.3438,86.09375 2077.2891,84.27347 2078.1883,82.713485 2080.8125,74.75 2082.4881,69.664928 2084.6095,61.350848 2085.5312,56.28125 2087.1363,47.454195 2087.1134,46.896035 2085.3438,43.28125 2084.3275,41.205189 2082.375,38.956884 2081,38.28125 2080.0863,37.832276 2079.3888,37.626408 2078.9062,37.625 z"/>
</svg>
