<?xml version="1.0" encoding="UTF-8"?>
<svg xmlns="http://www.w3.org/2000/svg" viewBox="912.72 11.37 42.56 89.73">
  <path d="M 914.71875,47.75 915,53.03125 C 915.13078,53.218359 915.31063,53.34458 915.40625,53.59375 915.7401,54.463734 916,55.317159 916,55.5 916,55.549586 915.27848,55.949115 915.15625,56.0625 L 915.34375,59.34375 915.375,60.65625 C 915.73474,61.097751 916,61.696614 916,62.5625 916,63.969959 916.3375,64.905541 916.75,64.65625 917.1625,64.406959 917.54,67.258839 917.59375,70.96875 917.68003,76.9235 918.19385,78.587281 921.90625,85.3125 925.88671,92.523307 929.89536,97.019287 932.375,97 932.98833,96.99523 935.20623,95.372928 937.28125,93.40625 951.83406,79.613272 953.27682,47.616229 940.40625,23.96875 936.4787,16.752547 934.72609,15.445878 931.125,16.9375 927.50339,18.43762 920.35333,27.920577 918.96875,33.0625 918.39976,35.175579 917.5038,37.200569 916.96875,37.53125 916.43369,37.861931 916.00842,40.007459 916,42.3125 915.98961,45.155639 915.75095,46.557466 914.71875,47.75 z M 932.59375,19.15625 C 935.05563,19.635259 940.67122,30.393475 943,39.09375 946.00024,50.302589 946.69101,65.12941 944.59375,73.6875 942.47946,82.315018 937.79343,90.743448 934.40625,92.03125 931.33219,93.200007 930,93.246068 930,92.1875 930,91.74686 928.17636,88.570533 925.9375,85.125 921.57973,78.418532 920.69477,75.131602 918.9375,58.5 917.68071,46.605248 918.11473,43.374347 922.65625,30.5 924.46453,25.373853 930.30323,18.710583 932.59375,19.15625 z M 930.75,27.1875 C 929.7875,27.002805 929,27.341178 929,27.9375 929,28.533823 928.13845,30.918495 927.09375,33.25 921.8862,44.871868 921.62449,62.685928 926.5,73.5 927.24439,75.151083 928.81835,78.751083 930,81.5 L 932.15625,86.5 934.40625,83.90625 C 939.1979,78.357635 941.83254,55.545062 939.125,43 937.66497,36.235106 933.11011,27.640387 930.75,27.1875 z M 931.15625,32 C 931.67784,32 933.19412,34.3625 934.5,37.25 937.64538,44.204901 938.72772,57.951271 936.9375,67.96875 936.22389,71.961849 934.86447,76.198898 933.90625,77.375 L 932.15625,79.5 931.0625,76.5 C 930.46045,74.85 929.21729,71.793638 928.3125,69.71875 924.73512,61.515063 926.96105,32 931.15625,32 z"/>
</svg>
