<?xml version="1.0" encoding="UTF-8"?>
<svg xmlns="http://www.w3.org/2000/svg" viewBox="2387.24 18.08 51.88 83.99">
  <path d="M 2389.5938,55.15625 2390.0625,58.4375 C 2390.8761,58.652448 2391,59.23143 2391,60.40625 2391,61.003316 2390.8518,61.521495 2390.5938,62 L 2391.3438,67.34375 2391.125,67.75 C 2391.806,68.836899 2392.4275,71.093537 2393.5312,76 2394.7067,81.225 2396.4122,86.921849 2397.3125,88.65625 2400.6188,95.02574 2409.9641,98.255306 2414.9688,94.75 2427.1869,86.191988 2436.7612,44.872377 2429.75,30.96875 2427.2364,25.984126 2424.4307,24.88134 2420.7812,27.4375 2417.5399,29.70789 2415.0759,29.374298 2410,26 2404.1142,22.087313 2398.7552,21.898711 2396.375,25.53125 2394.1773,28.885357 2392.0498,38.153786 2391.9062,45 2391.7833,50.864568 2391.2793,53.571273 2389.5938,55.15625 z M 2402.2812,25.21875 C 2404.2939,25.592789 2406.9403,26.849373 2410.25,29 2413.6357,31.2 2416.6662,33 2417,33 2417.3337,33 2419.1433,31.869854 2421,30.5 2424.1257,28.193947 2424.5075,28.132876 2426.1562,29.625 2429.3574,32.521975 2430.3316,37.716014 2429.6875,48.4375 2428.469,68.718226 2424.3356,81.339225 2416.1562,89.9375 2411.3142,95.027497 2407.7537,95.342698 2403.3438,91.03125 2400.5362,88.286259 2399.3205,85.75681 2396.125,75.875 2393.9334,69.097734 2393.6402,51.305056 2395.5,39.4375 2396.442,33.427103 2397.6105,27.7125 2398.125,26.75 2398.8715,25.353218 2400.2686,24.844711 2402.2812,25.21875 z M 2405.5,32.03125 C 2401.3122,31.307534 2399.9107,36.266084 2399.4688,49.40625 2398.8193,68.718838 2401.9695,82.559294 2407.8125,85.96875 2410.3935,87.474739 2411.0249,87.245263 2414.4688,83.59375 2418.9518,78.840365 2423.8334,63.874032 2424.6562,52.28125 2425.2136,44.429181 2425.0165,42.955095 2423.0625,39.125 2421.3814,35.829727 2420.4789,34.998266 2419.1875,35.53125 2415.3375,37.120196 2414.2834,37.002783 2410.6875,34.5625 2408.6,33.145924 2406.8959,32.272489 2405.5,32.03125 z M 2404.2812,36 C 2404.8737,36 2407.3638,36.970839 2409.8125,38.15625 2413.3751,39.880868 2414.6448,40.080689 2416.125,39.15625 2418.8053,37.482427 2419.5464,37.714949 2420.8438,40.5625 2422.4434,44.073403 2422.2827,51.646465 2420.4062,62.40625 2418.8063,71.581219 2418.4026,72.723115 2414.1562,79.34375 2411.4324,83.590688 2410.1225,83.856817 2407.3438,80.75 2403.0986,76.00397 2400.722,63.605647 2401.375,49.5 2401.8616,38.99054 2402.5029,36 2404.2812,36 z"/>
</svg>
