<?xml version="1.0" encoding="UTF-8"?>
<svg xmlns="http://www.w3.org/2000/svg" viewBox="2047.34 43.29 21.56 58.64">
  <path d="M 2062.6875 90.25 L 2062.9062 87.59375 C 2061.7364 86.579516 2061.0472 85.634554 2061.1875 84.6875 C 2061.45 82.915682 2062.1348 82.321332 2063.3438 82.65625 L 2065.4062 78.75 C 2065.0106 77.700146 2065.2374 76.470572 2065.8438 73.84375 C 2066.8999 69.268444 2066.8154 68.641762 2064.4375 64.875 C 2063.0313 62.647453 2061.2625 57.681273 2060.5312 53.84375 C 2059.8 50.006227 2058.9239 46.611285 2058.5938 46.28125 C 2058.2638 45.951215 2056.8571 46.179917 2055.4688 46.8125 C 2051.5802 48.58424 2050.8982 51.793594 2052.6875 59.65625 C 2055.4029 71.588564 2055.3945 73.343212 2052.5938 80.34375 C 2049.3409 88.474732 2049.3392 90.446055 2052.625 95.1875 C 2054.1378 97.370472 2056.11 99 2057.2188 99 C 2059.0872 99 2059.0764 98.903224 2057.0312 96.03125 C 2055.8683 94.397882 2054.4932 92.792842 2053.9688 92.46875 C 2052.1972 91.373801 2052.9706 85.405798 2055.625 79.9375 C 2058.7139 73.574232 2058.7985 70.308219 2056.0312 62.09375 C 2053.3782 54.218301 2053.3255 49 2055.875 49 C 2057.3724 49 2057.8468 50.023388 2058.3438 54.21875 C 2058.6833 57.086087 2060.1671 62.308635 2061.6562 65.8125 L 2064.375 72.15625 L 2060.5938 79.5 L 2056.8438 86.8125 L 2058.6562 92.40625 C 2060.7078 98.649078 2062.656 99.264173 2062.1875 93.53125 L 2061.875 89.78125 L 2062.6875 90.25 z "/>
</svg>
