<?xml version="1.0" encoding="UTF-8"?>
<svg xmlns="http://www.w3.org/2000/svg" viewBox="1115.05 55.6 33.95 49.57">
  <path d="M 1145,93.769724 C 1145,92.420044 1142.0207,89 1140.845,89 1139.4133,89 1139.9102,92.243275 1141.6336,94.147678 1143.2935,95.981819 1145,95.790226 1145,93.769724 z M 1142.8395,70.452947 C 1144.3587,67.118635 1144.3042,66 1142.6224,66 1140.4733,66 1138.7675,68.692161 1139.4848,70.952012 1140.3549,73.693608 1141.4362,73.532746 1142.8395,70.452947 z M 1136.2062,93.433979 C 1139.303,84.478842 1137.7338,68.876706 1133.2894,64.432257 1131.7418,62.88461 1131.5675,62.932515 1130.731,65.135761 1130.2373,66.436092 1129.2337,70.320061 1128.5009,73.766801 1126.3516,83.876226 1129.5015,99.956222 1133.3892,98.72091 1134.0001,98.526786 1135.2678,96.147667 1136.2062,93.433979 z M 1123.0405,96.811942 C 1126.0466,94.589398 1126.8972,91.672511 1124.8991,90.437661 1123.4128,89.519085 1120.282,92.861444 1119.4546,96.25 1118.6435,99.571959 1119.1913,99.657796 1123.0405,96.811942 z M 1129.0025,99.50262 1126.6563,97.00524 1123.1722,99.060925 C 1120.1663,100.83444 1119.4936,100.92216 1118.2714,99.699977 1117.0492,98.477798 1117.076,97.74915 1118.4666,94.391672 1119.353,92.251252 1121.0169,89.780652 1122.1641,88.90145 1123.6979,87.725951 1124.3545,85.890861 1124.6453,81.967343 1124.8627,79.032787 1125.722,73.902134 1126.5547,70.565893 1129.296,59.583833 1131.1473,57.853965 1135.1869,62.5 1137.8131,65.520314 1138.4602,65.569785 1141.7271,63 1145.5386,60.001883 1147,60.431373 1147,64.54966 1147,68.593305 1144.5826,73.878515 1141.8511,75.806704 1138.7081,78.025392 1139.4429,83.266879 1143.5,87.568677 1146.2353,90.468903 1147,92.110282 1147,95.080862 1147,100.0423 1145.4765,100.83068 1142.114,97.609239 1140.6161,96.174157 1139.18,95 1138.9227,95 1138.6654,95 1137.6066,96.575 1136.5699,98.5 1134.3421,102.63676 1132.212,102.91899 1129.0025,99.50262 z"/>
</svg>
