<?xml version="1.0" encoding="UTF-8"?>
<svg xmlns="http://www.w3.org/2000/svg" viewBox="1741.13 14.18 23.4 91.89">
  <path d="M 1743.8438 97.15625 C 1745.0278 97.159366 1746.4956 97.818287 1749.0625 99.15625 C 1754.3089 101.89083 1757.7846 100.92013 1760.25 96 C 1762.5218 91.46647 1762.4597 84.903736 1760.0312 71.4375 C 1758.2254 61.423839 1758.1936 59.86632 1759.5 52.375 C 1762.1441 37.212831 1760.8818 22.458189 1756.7188 19.8125 C 1754.4233 18.353776 1751.3365 19.014865 1749.0312 21.46875 C 1747.1518 23.469357 1746.8145 24.659374 1747.25 27.90625 C 1747.5445 30.102343 1748.8204 33.318112 1750.0625 35.0625 C 1753.0523 39.261256 1753.0546 49.998028 1750.0625 58 C 1747.8325 63.96408 1747.4733 67.082931 1748.9062 68.5625 C 1750.3407 70.043393 1754 81.142905 1754 84.03125 C 1754 85.457691 1753.3467 87.494879 1752.5625 88.5625 C 1751.1893 90.432174 1751.0251 90.43558 1748.1562 88.75 C 1745.8007 87.366044 1744.5292 86.987123 1743.125 87.4375 L 1743.2812 89.4375 L 1743.5312 89.21875 L 1746.9688 91 C 1748.8658 91.98101 1751.0224 92.529186 1751.75 92.25 C 1753.5783 91.548416 1756 86.626595 1756 83.59375 C 1756 81.188392 1753.2432 73.03499 1750.7812 68.1875 C 1749.8854 66.423618 1749.8916 64.915248 1750.8438 61.6875 C 1753.5309 52.578903 1753.9458 50.280283 1753.9688 44.1875 C 1753.9877 39.176192 1753.4722 36.940828 1751.4375 33.46875 C 1747.9617 27.537831 1748.3311 22.64143 1752.2812 22.1875 C 1754.6345 21.917086 1755.277 22.404481 1756.5312 25.40625 C 1758.511 30.144625 1758.4342 43.842854 1756.375 54.0625 C 1755.0626 60.575669 1754.9647 62.646209 1755.9375 64.78125 C 1757.6033 68.437258 1759.9917 87.31443 1759.3125 91.5 C 1758.5829 95.99604 1756.0042 98.277792 1752.6562 97.4375 C 1751.2392 97.081826 1749.5462 96.177288 1748.9062 95.40625 C 1747.7941 94.066253 1745.8213 93.804148 1743.6562 94.34375 L 1743.8438 97.15625 z "/>
</svg>
