<?xml version="1.0" encoding="UTF-8"?>
<svg xmlns="http://www.w3.org/2000/svg" viewBox="1765.33 13.27 93.38 90.54">
  <path d="M 1813.9421,30.569788 C 1815.5649,28.614467 1814.9105,21.5 1813.1079,21.5 1812.3423,21.5 1810.8111,22.711742 1809.7054,24.19276 1807.8003,26.744493 1807.7827,27.019449 1809.3705,29.44276 1811.2819,32.35981 1812.257,32.600207 1813.9421,30.569788 z M 1786.2861,27.014077 C 1786.8697,24.782206 1784.4745,21.679039 1782.6339,22.282476 1781.3497,22.703505 1780.564,27.421334 1781.4106,29.627597 1782.1711,31.609432 1785.5593,29.793157 1786.2861,27.014077 z M 1808.8576,92.25 C 1812.3338,85.383058 1812.3612,82.94324 1809.0416,75.92604 1805.6781,68.81624 1805.2307,64.543292 1807.5092,61.290283 1809.5108,58.432681 1815.2831,58.909513 1821.2878,62.428482 1823.7011,63.842817 1826.8984,65 1828.3929,65 1830.7386,65 1831.4585,64.213881 1833.6588,59.25 1835.0606,56.0875 1837.2703,48.806565 1838.5693,43.070145 1839.8683,37.333725 1841.5417,32.02969 1842.288,31.283401 1844.1015,29.469904 1846.8773,30.66287 1847.6067,33.569283 1847.931,34.861058 1848.8085,36.426135 1849.5569,37.047232 1851.78,38.89222 1852.3476,34.082787 1850.449,29.488385 1846.9009,20.902297 1842.8301,19.636121 1838.7237,25.841329 1836.0447,29.889635 1835.3571,31.87389 1831.475,46.759438 1828.2634,59.074561 1827.5348,60.346944 1824.1678,59.521672 1822.7005,59.162027 1819.683,57.097523 1817.4621,54.933886 1813.0474,50.63278 1810.5724,50.135516 1805.8176,52.594302 1803.2701,53.911708 1802.5866,53.955128 1801.8826,52.844302 1800.6727,50.935187 1800.8664,44.703712 1802.4063,36 1803.7788,28.242965 1803.3742,25.38538 1800.5746,23.061881 1799.3201,22.020758 1798.3798,21.961574 1796.5243,22.80696 1793.1923,24.325157 1792.3608,29.361956 1794.5422,34.813931 1796.3782,39.402385 1796.2724,51.127641 1794.3779,53.022074 1793.6744,53.725598 1791.5447,53.223104 1787.6256,51.42888 1781.7528,48.740214 1779.1278,48.722551 1775.5388,51.347552 1773.987,52.482575 1773.4929,54.282966 1773.1713,59.973474 1772.9173,64.468831 1773.1839,67.583947 1773.8825,68.282492 1774.7058,69.105836 1775.001,68.360233 1775.0037,65.45 1775.0081,60.832483 1777.9471,55.46895 1781.0047,54.498501 1784.8075,53.291551 1788.914,55.896687 1791.617,61.230913 1794.538,66.995211 1794.2006,70.523447 1790.3857,74.10736 1789.0049,75.404548 1786.9686,77.932709 1785.8606,79.725495 1783.6594,83.287186 1783.4083,82.151033 1788.5732,92 1790.4153,95.512566 1792.4584,96.006319 1791.6767,92.75 1789.6528,84.319333 1789.742,83.625509 1793.4781,78.732445 1795.4655,76.1296 1797.6676,74 1798.3715,74 1802.0923,74 1808.3771,84.877992 1806.9004,88.762074 1805.9467,91.270454 1805.6718,96 1806.4797,96 1806.7435,96 1807.8136,94.3125 1808.8576,92.25 z M 1788.291,97.75 C 1787.7664,97.0625 1785.8888,93.662757 1784.1186,90.195015 1780.3436,82.799712 1780.4983,81.815381 1786.6178,74.302384 1789.028,71.343268 1791,68.692337 1791,68.411427 1791,67.400456 1787.7262,61.462802 1786.2244,59.75 1784.0213,57.237289 1779.3452,57.486414 1777.8963,60.193693 1777.2506,61.400225 1776.7588,64.962047 1776.8034,68.108854 1776.9453,78.114713 1771.3704,75.988639 1770.3012,65.629134 1769.5756,58.598905 1771.4632,51.567415 1774.7755,48.961979 1777.4849,46.830763 1787.35,46.139295 1788.5,48 1788.8399,48.55 1789.9915,49 1791.059,49 1792.7208,49 1793,48.282803 1793,44.014351 1793,37.486337 1790.9702,30 1789.2003,30 1788.4386,30 1786.6713,30.9 1785.2729,32 1782.021,34.557896 1780.3528,34.527774 1778.9388,31.88563 1777.5422,29.276109 1778.5485,21.619594 1780.501,19.999151 1782.1042,18.668643 1785.6371,19.478739 1788.2541,21.776945 1790.1129,23.409318 1791.9307,22.909612 1796.6261,19.475557 1798.6001,18.031796 1798.968,18.102217 1801.7704,20.460299 1805.5243,23.618984 1806.4704,23.623449 1810.1824,20.5 1813.8857,17.383833 1814.5513,17.385519 1816.6026,20.516264 1818.7645,23.815771 1818.0648,32.748227 1815.4974,34.625594 1814.0461,35.686741 1813.1092,35.654648 1810.2132,34.444594 1808.277,33.635628 1806.4977,33.169003 1806.259,33.40765 1804.5348,35.131885 1803.1675,51.039332 1804.75,50.964565 1805.1625,50.945075 1806.625,50.286021 1808,49.5 1811.6288,47.425591 1814.404,47.682492 1817.1136,50.34366 1821.326,54.480628 1824.873,56.350249 1826.2855,55.178041 1826.987,54.595844 1828.1189,51.280113 1828.801,47.809751 1831.682,33.149625 1837.5468,20.8748 1842.2588,19.642571 1847.6536,18.23181 1853.0072,25.149213 1853.7574,34.5 1854.4669,43.342617 1849.9293,45.867974 1846.4616,38.560384 1845.5324,36.602173 1844.4215,35 1843.993,35 1842.9552,35 1842,37.620092 1842,40.466953 1842,44.94508 1835.7379,63.260093 1833.1845,66.25 1830.9971,68.811379 1826.5365,68.398201 1819.2599,64.960197 1808.6158,59.931095 1806.2388,62.768358 1811.0434,74.767453 1814.4384,83.246041 1814.5849,84.833224 1812.435,89.848871 1809.2538,97.270595 1808.3821,98.507333 1806.1012,98.834665 1802.4768,99.354828 1801.8277,97.902048 1803.0785,92.069661 1804.0436,87.569561 1803.9554,86.227567 1802.4798,82.955189 1799.7038,76.799199 1796.5571,76.82664 1793.9879,83.029244 1793.0396,85.318493 1793.0238,87.0374 1793.9181,90.589185 1794.5548,93.117539 1794.8033,96.044299 1794.4705,97.093096 1793.7797,99.269415 1789.7753,99.695102 1788.291,97.75 z"/>
</svg>
