<?xml version="1.0" encoding="UTF-8"?>
<svg xmlns="http://www.w3.org/2000/svg" viewBox="362.71 10.07 45.63 96.62">
  <path d="M 365.96875 96.375 C 366.96168 96.006818 368.75625 96.676843 372.65625 98.71875 C 379.48631 102.29475 382.33053 101.38702 386.5625 94.3125 C 391.25196 86.473189 392.69808 74.484992 392.9375 41.25 C 392.97098 36.602295 393.41986 33 393.96875 33 C 395.27049 33 398 38.366681 398 40.9375 C 398 43.757936 401.64192 43.649047 404 40.75 C 406.25891 37.972861 405.8009 34.75389 401.9375 26.375 C 397.3662 16.460829 393.34846 14.460315 387 18.9375 C 382.70546 21.96618 382.09724 26.105139 381.71875 54.25 C 381.42309 76.235859 381.07132 81.110737 379.65625 84.25 C 377.50079 89.03181 374.4957 89.203229 368.46875 84.875 C 366.71205 83.61343 365.5802 82.752103 364.78125 81 L 365.1875 86.15625 C 366.03575 86.041414 367.20726 86.581375 368.40625 87.90625 C 370.30681 90.006348 375.82707 91.383984 378.375 90.40625 C 379.27418 90.0612 380.95039 87.709771 382.09375 85.15625 C 383.99355 80.913361 384.19634 78.168318 384.5625 53.5625 C 384.96875 26.262245 385.66169 20.617751 388.78125 19.71875 C 389.72024 19.448151 391.24992 18.90594 392.15625 18.53125 C 394.40278 17.602504 397.67286 21.208268 400.6875 27.90625 C 403.06442 33.187324 403.51437 39.602451 401.5 39.375 C 400.95 39.312897 399.48216 37.175397 398.25 34.625 C 397.01785 32.074603 395.388 30 394.625 30 C 391.19544 30 390.59216 32.97594 389.84375 53.84375 C 389.43629 65.204568 388.83521 76.694967 388.5 79.375 C 387.76742 85.23198 384.76104 93.522984 382.40625 96.125 C 380.10413 98.668812 377.36923 98.468625 372 95.40625 C 368.77994 93.569669 366.79108 92.166764 365.5625 90.90625 L 365.96875 96.375 z "/>
</svg>
