<?xml version="1.0" encoding="UTF-8"?>
<svg xmlns="http://www.w3.org/2000/svg" viewBox="535.45 13.13 52.03 70.71">
  <path d="M 553.25,74.227416 C 549.32711,68.471363 549.27352,67.533374 552.58889,62.654373 555.43503,58.465909 555.29705,56.056117 551.98642,52.132242 549.20707,48.838064 547.36244,50.624866 545.81671,58.108509 545.14744,61.348829 544.26106,64 543.84698,64 543.4329,64 541.90063,63.456216 540.44194,62.791591 537.94967,61.656037 537.81417,61.245797 538.19455,55.987128 538.42604,52.786871 539.64838,48.280026 541.04967,45.460134 543.99615,39.53077 546.76901,38.46248 552.21016,41.16038 557.47044,43.768597 558,43.536363 558,38.62132 558,34.68669 557.69189,34.115017 554.96178,32.98417 547.33286,29.824167 548.70905,21.327534 557.38208,18.041146 561.85444,16.346477 564.25843,17.546884 563.48099,21.086571 562.91699,23.65442 563.1174,23.999557 565.17054,23.996262 566.45175,23.994206 569.02258,23.064284 570.88351,21.92977 572.9821,20.650363 574.62205,20.22205 575.20191,20.801912 576.60158,22.201578 573.71023,28.296176 570.41795,30.885877 568.13128,32.684579 567.47819,34.155651 566.9876,38.612693 566.65432,41.64052 566.71123,44.321527 567.11405,44.570487 567.51688,44.819446 569.43202,44.087634 571.36994,42.944237 576.4692,39.935597 580.88896,40.616882 583.31408,44.785371 584.90619,47.522027 585.11005,49.148044 584.53466,54.520978 583.43064,64.830139 578,69.077757 578,59.632113 578,57.294693 577.40217,54.564672 576.67148,53.565399 575.41711,51.849945 575.22176,51.902617 573.17148,54.509128 570.57145,57.814534 570.51695,58.752273 572.61953,64.007125 574.54969,68.831073 573.89608,73.417267 570.8103,76.701925 567.12371,80.626117 563.23432,79.134677 565.0681,74.5 566.39051,71.157746 566.09014,67.232998 564.38115,65.524003 562.88934,64.032197 562.60896,64.043909 560.80857,65.673242 559.1254,67.196486 558.94774,68.241669 559.52561,73.220668 560.12876,78.417438 560.01007,78.999805 558.34819,78.998067 557.26459,78.996934 555.15549,77.02334 553.25,74.227416 z M 571.37124,71.893792 C 571.77736,69.863225 571.28631,67.211742 569.91287,64.019104 567.98954,59.548198 567.95313,58.991308 569.40114,56.191181 570.25853,54.533157 572.19758,52.20314 573.71014,51.013366 L 576.46023,48.850141 578.23012,51.035854 C 579.20355,52.237997 580,53.846715 580,54.610784 580,55.374853 580.45,56 581,56 582.67123,56 582.18776,46.330622 580.42857,44.571429 578.28486,42.427722 576.75668,42.582871 570.92926,45.535845 568.17693,46.93056 565.49189,47.804002 564.96251,47.476828 564.43313,47.149654 563.99303,43.646024 563.98452,39.690983 L 563.96903,32.5 568.23452,28.687894 C 570.58053,26.591236 571.51708,25.353736 570.31574,25.937894 569.1144,26.522052 566.5269,27 564.56574,27 561.15728,27 561,26.845625 561,23.5 561,20.46124 560.68011,20 558.57258,20 555.27517,20 551.84223,24.399294 552.90268,27.265953 553.69317,29.402847 554.95659,30.378768 558.25,31.396464 559.67546,31.836944 560,33.111398 560,38.268615 560,46.714586 559.00999,47.545491 552.73524,44.365838 544.55885,40.222547 541.89946,42.235725 540.48131,53.642155 540.06211,57.013869 540.22857,59.023231 540.9648,59.478245 542.34925,60.333882 545.2139,58.108828 544.67051,56.599915 544.13856,55.122762 546.32956,50.916715 548.79169,48.688522 550.73407,46.93069 550.87147,46.970945 553.86606,50.175148 558.41851,55.046255 558.72031,58.022958 555.16004,62.937762 552.12797,67.123421 551.92183,70.372289 554.62257,71.40866 555.40658,71.709515 556.46202,72.978143 556.96799,74.227834 557.64994,75.912171 557.75358,75.335811 557.36862,72 556.91525,68.071541 557.22368,67.058213 559.797,64.021615 562.41233,60.93543 562.93566,60.70171 564.43829,61.948782 567.73474,64.684597 569.23165,68.896718 568.08075,72.198204 567.49951,73.865548 567.28363,75.649898 567.601,76.163427 568.54076,77.683982 570.70291,75.235433 571.37124,71.893792 z"/>
</svg>
