<?xml version="1.0" encoding="UTF-8"?>
<svg xmlns="http://www.w3.org/2000/svg" viewBox="279.58 10.79 33.79 89.59">
  <path d="M 286.22808,94.75 C 285.66884,94.0625 284.50556,90.8 283.64302,87.5 281.57892,79.602995 282.09342,48.417784 284.43107,39.733199 289.70978,20.122342 300.8186,14.858234 307.88895,28.617268 311.14899,34.961363 311.36513,37.26609 308.98394,40.293281 306.76817,43.110185 303.21883,43.914063 302.55214,41.75 302.34034,41.0625 301.89589,39.2625 301.56447,37.75 300.8528,34.502106 298.06199,34.069836 296.27531,36.930758 294.56783,39.66487 292.67868,60.25535 293.42475,68 293.76914,71.575 294.28145,78.649363 294.56321,83.720807 L 295.0755,92.941614 291.41563,94.470807 C 287.02781,96.304154 287.47282,96.280203 286.22808,94.75 z M 291.48085,91.376288 C 292.50884,90.348298 292.91542,88.789019 292.58904,87.126288 292.30549,85.68183 291.78889,78.2 291.44103,70.5 290.41254,47.734244 293.46687,32.5 299.05969,32.5 301.31966,32.5 303.04789,34.67601 304.40729,39.233141 305.0569,41.410811 307.69556,40.534565 308.54469,37.859197 309.37158,35.25388 305.23568,27.137872 301.81658,24.656435 299.25211,22.795243 298.97517,22.783898 295.56846,24.400487 293.60788,25.330847 291.36421,27.328794 290.58255,28.840369 286.52938,36.678334 283.68545,57.558845 284.52801,73.293616 285.08784,83.74846 285.35939,85.479236 287.18837,90.25 288.40404,93.420996 289.22162,93.635519 291.48085,91.376288 z"/>
</svg>
