<?xml version="1.0" encoding="UTF-8"?>
<svg xmlns="http://www.w3.org/2000/svg" viewBox="922.64 14.64 17.26 85.23">
  <path d="M 924.80075,59.250162 C 924.96616,39.037573 925.31696,21.866047 925.5803,21.091216 925.94129,20.02904 926.74188,20.336582 928.83427,22.341216 932.15313,25.520892 933.56985,25.672263 935,23 937.40073,18.514202 937.89585,21.52507 937.5078,38.25 937.28768,47.7375 937.00026,63.825 936.8691,74 936.73794,84.175 936.20022,93.072638 935.67417,93.77253 934.91137,94.787413 934.22092,94.719545 932.264,93.437326 929.96253,91.929343 929.67258,91.958967 927.5907,93.914796 926.36992,95.061658 925.1751,96.000073 924.93555,96.000162 924.696,96.000251 924.63534,79.462751 924.80075,59.250162 z M 931.96822,89.281439 C 934.72404,90.002102 934.8918,88.353802 935.40643,55.5 L 935.84502,27.5 931.42251,27.5 927,27.5 926.84247,32 C 926.75582,34.475 926.76475,37.175 926.86231,38 927.13401,40.297591 926.99923,74.555047 926.6861,82.787786 926.38532,90.695679 926.62429,91.556698 928.65266,89.8733 929.38784,89.263158 930.87984,88.996821 931.96822,89.281439 z"/>
</svg>
