<?xml version="1.0" encoding="UTF-8"?>
<svg xmlns="http://www.w3.org/2000/svg" viewBox="1439.13 17.81 28 84.88">
  <path d="M 1443.6875,83.4375 1444.2812,87.21875 C 1445.7899,88.108433 1445.7941,88.841991 1444.5938,89.34375 L 1445.25,93.40625 C 1446.4848,93.887248 1447.3719,94.520828 1447.875,95.625 1449.2392,98.619051 1453.4496,98.832889 1455.2188,96 1456.0356,94.691903 1456.9832,94.060254 1458.375,94.125 L 1459,90.9375 C 1458.4461,90.833209 1458,90.473064 1458,90 1458,89.325509 1458.5999,89.034078 1459.375,89.0625 L 1460,86 1460.0625,85.65625 1459.5,85.25 1459.25,62.375 C 1459.1073,49.795863 1458.993,38.396181 1459,37.0625 1459.007,35.728819 1459.6181,33.928819 1460.375,33.0625 1462.6004,30.515263 1465.1234,25 1464.0625,25 1463.5253,25 1461.4144,27.978224 1459.375,31.625 1456.43,36.891108 1455.8913,38.624967 1456.75,40 1457.4571,41.132202 1457.7752,49.137883 1457.625,63.125 1457.4394,80.408216 1457.0627,85.171747 1455.75,88 1454.8565,89.925 1453.9874,92.320949 1453.8125,93.3125 1453.4385,95.433693 1451.7622,95.704878 1450.8438,93.8125 1448.684,89.361864 1448.042,80.934671 1448.4688,63.1875 1448.7241,52.571644 1449.1577,42.446644 1449.4375,40.6875 1450.3643,34.859663 1443.9902,21.666031 1441.4688,24.1875 1441.1277,24.528583 1441.939,26.541786 1443.25,28.65625 1447.7635,35.935919 1448.17,37.957304 1447.0938,47.0625 1446.5462,51.695189 1445.8542,61.536848 1445.5312,68.90625 1445.2083,76.275652 1444.6956,82.688152 1444.4062,83.15625 1444.3358,83.270269 1443.9275,83.337704 1443.6875,83.4375 z M 1451.3438,23.25 C 1450.135,22.66559 1450.265,24.051599 1451.7812,27.28125 1452.7274,29.296403 1453.7778,30.950839 1454.125,30.96875 1455.1788,31.023108 1460.2321,23.919483 1459.5938,23.28125 1459.2666,22.954079 1458.1034,23.501462 1457,24.5 1455.0618,26.254031 1454.9382,26.254031 1453,24.5 1452.3006,23.867049 1451.7467,23.444803 1451.3438,23.25 z"/>
</svg>
