<?xml version="1.0" encoding="UTF-8"?>
<svg xmlns="http://www.w3.org/2000/svg" viewBox="1900.58 47.22 14.51 56.9">
  <path d="M 1904.9613,97.398316 C 1903.2007,92.767578 1902.576,71.586857 1903.968,63.722258 1906.0106,52.181853 1906.5324,50.521149 1908.2175,50.19663 1910.2662,49.802087 1911.6953,54.239705 1912.5823,63.75 1913.0823,69.111743 1912.9447,71 1912.0538,71 1911.3503,71 1910.9456,69.856214 1911.0809,68.25 1911.3994,64.467803 1909.9643,56.095943 1908.8827,55.427529 1906.8643,54.18007 1905.7197,61.205787 1905.6125,75.5 1905.4535,96.700977 1907.2317,101.53372 1910.3879,88.478775 1911.4625,84.034014 1911.8548,83.295587 1911.9167,85.600777 1911.9625,87.306204 1911.5872,90.006204 1911.0827,91.600777 1910.5781,93.19535 1909.8946,95.7375 1909.5636,97.25 1908.8029,100.72682 1906.258,100.80883 1904.9613,97.398316 z M 1912.1579,74 C 1912.1579,72.625 1912.3849,72.0625 1912.6623,72.75 1912.9397,73.4375 1912.9397,74.5625 1912.6623,75.25 1912.3849,75.9375 1912.1579,75.375 1912.1579,74 z"/>
</svg>
