<?xml version="1.0" encoding="UTF-8"?>
<svg xmlns="http://www.w3.org/2000/svg" viewBox="1614.49 16.47 44.15 89.98">
  <path d="M 1616.5,54.78125 1617.125,58.21875 C 1617.8087,58.428679 1618,59.250161 1618,60.8125 1618,61.362031 1617.9479,61.810199 1617.8438,62.21875 L 1618.6562,66.65625 C 1618.661,66.66072 1618.6515,66.682958 1618.6562,66.6875 1618.8952,66.914467 1619.1416,67.158636 1619.4375,67.5625 1620.2136,68.621849 1621.1197,71.398035 1621.4688,73.71875 1622.4642,80.338044 1629.1748,95.245088 1632.3438,97.875 1637.7418,102.35498 1647.4266,95.65036 1649.5,85.96875 1649.9068,84.069391 1650.5794,82.05 1651,81.5 1652.5733,79.442619 1655.2334,63.049294 1656.0312,50.46875 1656.6401,40.867212 1656.5202,35.80796 1655.5625,31.21875 1653.4792,21.23572 1652.0838,20.556035 1641.875,24.53125 L 1637.2188,26.34375 1631.625,23.59375 C 1628.1322,21.884866 1625.2575,21.100875 1624,21.5 1619.8321,22.822846 1617.7983,30.853943 1617.9062,45.5625 1617.9525,51.866097 1617.8571,53.443468 1616.5,54.78125 z M 1650.5938,24 C 1650.7882,24 1651.7421,25.4625 1652.7188,27.25 1654.2454,30.044218 1654.4638,32.884088 1654.3125,47.5 1654.1862,59.695564 1653.7151,65.91307 1652.5938,69.5 1651.7341,72.25 1651.006,75.455936 1651,76.625 1650.9855,79.474288 1646.4368,89.711748 1643.375,93.75 1637.074,102.06065 1628.668,93.520031 1623.3438,73.375 1621.0477,64.687404 1620.7498,61.653386 1620.8125,48 1620.8965,29.731929 1621.6082,25.653618 1624.8438,25.1875 1626.0927,25.00758 1628.1068,25.496807 1629.3125,26.28125 1633.8179,29.212525 1638.6734,29.301551 1644.6562,26.5625 1647.7239,25.158102 1650.3993,24 1650.5938,24 z M 1645.4062,30.25 C 1644.1954,30.172119 1642.6974,30.605006 1640.9062,31.53125 1638.8333,32.603243 1636.5691,32.980711 1634.375,32.59375 1632.5227,32.267058 1629.5249,31.727564 1627.7188,31.40625 1624.4388,30.822786 1624.4367,30.827553 1624.2812,35.15625 L 1624.125,39.5 1626.0625,37.125 C 1627.7498,35.071411 1628.5964,34.836987 1632.1562,35.40625 1635.0009,35.861109 1637.6439,35.529994 1640.75,34.34375 1645.0721,32.693114 1645.3067,32.697147 1646.625,34.5 1648.7416,37.394701 1648.2798,49.040182 1645.5312,62.25 1643.0898,73.983826 1639.9211,83 1638.2188,83 1636.4969,83 1634.2507,79.468718 1632.5,74 1631.5315,70.975 1630.3983,68.05 1630,67.5 1628.607,65.576824 1626.8076,53.442072 1626.9062,46.75 1626.9635,42.865029 1626.5736,40 1626,40 1625.4518,40 1624.946,40.7875 1624.875,41.75 1624.804,42.7125 1624.5835,45.525 1624.4062,48 1624.0791,52.572112 1626.0419,62.646816 1628.4688,69 1629.2041,70.925 1630.3302,74.443478 1630.9688,76.8125 1631.6073,79.181522 1633.0227,82.022701 1634.125,83.125 1637.4243,86.42431 1640.15,85.193211 1643.25,79 1646.7764,71.955226 1649.0686,60.403575 1649.6875,46.59375 1650.1868,35.450843 1649.0388,30.483643 1645.4062,30.25 z"/>
</svg>
