<?xml version="1.0" encoding="UTF-8"?>
<svg xmlns="http://www.w3.org/2000/svg" viewBox="1259.09 17.1 35.91 85.8">
  <path d="M 1267.7602,97.25 C 1266.908,96.2875 1265.9735,93.475 1265.6835,91 1265.2394,87.20942 1263.8163,81.586708 1261.3672,73.946305 1261.0933,73.091773 1262.0671,69.266773 1263.5311,65.446305 1268.1562,53.377048 1268.1843,53.1527 1265.8776,46.655732 1264.4096,42.52114 1263.9056,39.186683 1264.209,35.615953 1264.6477,30.451468 1267.5172,23 1269.0672,23 1269.529,23 1269.1766,24.4625 1268.2841,26.25 1267.3916,28.0375 1266.3196,30.230105 1265.9018,31.122457 1264.2698,34.608076 1266.6424,45.521578 1269.8499,49.283653 1271.2163,50.886217 1271.1814,51.596906 1269.5061,56.283653 1268.4805,59.152644 1266.5479,63.688184 1265.2114,66.362632 1263.1088,70.570199 1262.9471,71.580555 1264.0117,73.862632 1265.7016,77.485157 1268.9736,90.890024 1268.988,94.25 1268.9953,95.955608 1269.54,97 1270.4222,97 1272.1734,97 1274.395,90.642991 1273.681,87.675123 1273.3932,86.478806 1272.4645,82.739165 1271.6172,79.36481 L 1270.0766,73.22962 1273.8141,64.86481 C 1278.8914,53.501384 1278.8989,53.491864 1283.9821,51.901959 1287.3358,50.853028 1288.7047,49.812435 1289.4183,47.769513 1290.7311,44.011638 1289.8077,43.537181 1285.8626,45.942375 1281.2314,48.765835 1278.2286,48.596169 1276.7857,45.429512 1275.8751,43.430814 1275.9015,42.151761 1276.9045,39.679512 1277.614,37.93078 1278.8747,34.25 1279.706,31.5 1280.5373,28.75 1281.9024,25.825 1282.7397,25 1284.4404,23.324125 1284.396,23.602745 1281.3859,33.5 1278.8517,41.832324 1278.7059,43.511236 1280.3953,44.913254 1281.7063,46.001278 1282.6558,45.811142 1286.2304,43.744832 1291.0275,40.971892 1293.0005,41.143461 1292.9982,44.333333 1292.995,48.867611 1289.7012,53.226653 1284.9998,54.918568 1280.8893,56.39783 1280.174,57.185544 1276.7361,64.019002 1272.7404,71.960991 1272.7431,71.927047 1275.094,84.154809 1276.7387,92.709772 1275.2645,99 1271.6146,99 1270.347,99 1268.6125,98.2125 1267.7602,97.25 z M 1270.3452,44.457703 C 1268.7978,40.425196 1274.4215,21 1277.1364,21 1278.4991,21 1278.1615,22.76784 1275.9334,27.298306 1274.7252,29.755094 1273.627,34.510826 1273.2891,38.75 1272.7382,45.660742 1271.6308,47.807827 1270.3452,44.457703 z"/>
</svg>
