<?xml version="1.0" encoding="UTF-8"?>
<svg xmlns="http://www.w3.org/2000/svg" viewBox="278.39 16.36 65.05 89.56">
  <path d="M 283.75,64.21875 C 283.83968,63.942551 283.89943,63 284,63 284.55,63 285,63.382033 285,63.84375 285,64.305467 286.13306,65.20669 287.53125,65.84375 289.85231,66.901294 290.40279,66.650056 293.875,63 295.96665,60.801223 298.44718,59 299.375,59 302.40825,59 310.27886,63.130652 312.71875,66 313.81197,67.285646 313.90468,67.214195 313.34375,65.5 312.33045,62.403353 309.86977,59.95786 306.15625,58.40625 300.94562,56.229112 298.34366,56.688691 294.125,60.5 291.99426,62.425 289.81187,64 289.28125,64 288.46535,64 284.86122,60.290822 282.6875,57.5625 L 283.34375,62.65625 283.75,64.21875 z M 282.28125,54.125 C 283.12988,54.197632 284.26627,54.645377 285.4375,55.53125 288.39805,57.770497 291.22037,57.305512 294.28125,54.0625 298.3669,49.733747 300.52236,49.389869 304.875,52.40625 310.53871,56.331207 312.37953,55.883667 314.9375,49.9375 316.32632,46.709102 317.00668,43.35849 316.8125,40.6875 L 316.5,36.5 311.59375,36.375 C 306.4633,36.258296 304,34.467762 304,30.84375 304,27.682924 306.29554,23.951814 308.59375,23.375 311.21275,22.717674 316.09995,25.926684 318.0625,29.59375 318.76763,30.911298 319.7382,32 320.21875,32 320.6993,32 323.56927,30.171816 326.59375,27.9375 333.59699,22.763903 337.32179,22.74203 337.8125,27.875 338.11492,31.038426 337.98747,31.217942 335.625,30.625 332.50218,29.841221 323.81916,34.707987 324.25,37 324.40509,37.825 326.86779,39.765092 329.75,41.3125 332.6322,42.859908 335,44.547408 335,45.0625 335,46.548251 330.99432,46.150569 329.34375,44.5 326.75021,41.906457 323.5273,42.654013 321.8125,46.25 319.20027,51.727896 318.7342,55.604479 320.3125,58.6875 323.78749,65.475497 322.82142,74.417757 317.53125,84.5625 315.51598,88.427098 315.60057,89.636284 318.0625,93.09375 321.29516,97.633602 319.35983,98.477094 314.75,94.53125 312.48955,92.596391 310.21046,91 309.6875,91 308.12448,91 309.71583,84.168144 311.9375,81.34375 314.10466,78.588655 314.90976,70 313,70 312.45,70 312,71.587966 312,73.53125 312,75.474534 310.875,79.286568 309.5,82 308.125,84.713432 307,87.81006 307,88.875 307,89.939939 309.3625,93.109685 312.25,95.90625 317.92053,101.39821 319.06087,101.84931 321.0625,99.4375 322.14499,98.133177 322.06715,96.957851 320.5625,92.53125 318.60503,86.772477 318.84188,84.290922 322.0625,77.625 324.47247,72.636941 324.69253,62.237817 322.46875,57.9375 320.7112,54.538761 321.32004,48.804958 323.71875,46.40625 325.04161,45.083396 325.47718,45.102396 327.5625,46.46875 330.13472,48.154132 334.70522,48.480034 336.84375,47.125 339.18342,45.642519 337.22271,42.615351 332,39.6875 329.2454,38.143273 327,36.729665 327,36.53125 327,36.332835 328.5996,35.181885 330.5625,33.96875 L 334.125,31.75 335.71875,34.03125 C 337.23955,36.20249 337.37164,36.225549 338.65625,34.46875 340.47897,31.976023 340.34224,25.951507 338.40625,23.1875 336.47443,20.429431 334.80069,20.77643 326.625,25.71875 L 320.71875,29.28125 318.875,26.90625 C 317.86209,25.588843 317.04348,24.230467 317.03125,23.90625 316.99625,22.978568 312.11776,21 309.875,21 308.75858,21 306.48876,22.386238 304.8125,24.0625 302.08499,26.790009 301.79213,27.562735 302.25,31.625 302.90661,37.450404 304.07095,38.498086 309.8125,38.5 L 314.5,38.5 314.28125,43 C 314.10599,46.68301 313.03352,50.255854 311.3125,52.875 311.17175,53.089197 309.49702,52.076697 307.59375,50.625 302.89759,47.043065 298.98223,47.2208 294.5,51.15625 291.36817,53.906034 290.63645,54.136795 288.6875,53.09375 285.99241,51.651384 283.25634,49.110502 281.34375,46.6875 L 282.28125,54.125 z"/>
</svg>
