<?xml version="1.0" encoding="UTF-8"?>
<svg xmlns="http://www.w3.org/2000/svg" viewBox="133.97 12.54 20.43 86.55">
  <path d="M 136.625,53.46875 136.25,59.4375 C 136.55347,59.75199 136.53163,60.132502 136.1875,60.59375 L 136,64 135.96875,64.84375 C 137.11091,65.517973 137.93259,67.220201 138.40625,70.28125 139.42983,76.896319 143.95076,89.381338 146.4375,92.5 148.04182,94.512004 149.18949,95.147147 150.46875,94.65625 152.40118,93.914706 152.39107,92.902276 150.03125,76.5 148.78521,67.839241 149.41433,36.889132 151.03125,27.65625 151.92123,22.574321 151.93472,20.559722 151.09375,19.71875 147.84446,16.469467 140.76271,31.460574 139.03125,45.25 138.53478,49.203953 137.81835,51.727571 136.625,53.46875 z M 148.125,23.5625 C 148.64552,23.005752 148.68979,28.818317 148.25,37.5625 147.37264,55.007043 147.56443,68.907441 148.84375,81.5 149.34663,86.45 149.62774,90.663071 149.46875,90.84375 148.52503,91.91616 143.4261,80.643045 142.34375,75.09375 141.63566,71.463321 140.7858,67.375 140.46875,66 139.60181,62.240161 139.71498,58.412445 140.96875,48.5 142.04289,40.007798 146.17405,25.649262 148.125,23.5625 z"/>
</svg>
