<?xml version="1.0" encoding="UTF-8"?>
<svg xmlns="http://www.w3.org/2000/svg" viewBox="2120.27 15.28 65.29 91.82">
  <path d="M 2180.5623,50.3125 C 2179.8861,51.342443 2179.002,52.158762 2177.4373,53.25 2172.1531,56.935201 2168.6018,58.715718 2165.031,59.5 2162.4464,60.067674 2161.4032,59.527059 2157.031,55.4375 2150.0078,48.868042 2150.4032,45.691738 2159.6248,34.6875 2162.3267,31.463246 2162.8599,25.549899 2160.531,24.65625 2159.7059,24.339612 2157.2721,25.580592 2154.9373,27.53125 2152.6637,29.430738 2150.4528,31 2149.9998,31 2149.5468,31 2148.5051,31.248696 2147.6873,31.5625 2146.6377,31.965301 2145.9775,31.237368 2145.4998,29.0625 2144.5879,24.910508 2142.2447,20.304398 2140.7186,19.71875 2140.0333,19.455785 2137.7865,19.906422 2135.7498,20.71875 2129.3986,23.251947 2123.2401,35.831001 2125.906,40.8125 2126.973,42.805959 2128.2794,43.241366 2136.8123,44.53125 2141.0267,45.168326 2141.1069,45.259937 2140.4686,48.34375 2140.1097,50.077517 2137.7946,54.113181 2135.3436,57.3125 2129.2427,65.275855 2126.952,69.98708 2126.0936,76.3125 2124.8634,85.378325 2128.2483,97.020109 2132.5936,98.6875 2135.109,99.652762 2135.4623,98.111871 2133.2498,95.75 2130.0268,92.309366 2128.9998,88.589423 2128.9998,80.1875 2128.9998,71.319008 2131.4653,65.395909 2138.031,58.5 2141.9473,54.386785 2144.5986,47.426014 2143.531,44.0625 2143.112,42.741885 2141.5342,42.056227 2137.8123,41.5625 2128.8462,40.373112 2127.552,38.704458 2130.406,31.875 2132.6281,26.557335 2135.8844,23 2138.531,23 2140.492,23 2141.1141,23.759207 2142.0623,27.25 2142.6972,29.5875 2143.4035,32.118668 2143.6248,32.875 2144.1957,34.825508 2151.8748,33.462316 2154.5623,30.9375 2156.819,28.817478 2158.9998,28.371596 2158.9998,30.03125 2158.9998,30.604813 2157.0616,33.192313 2154.6873,35.78125 2150.8166,40.001927 2147.9998,46.076721 2147.9998,50.21875 2147.9998,51.043595 2150.4286,54.276156 2153.406,57.375 2158.1928,62.356777 2159.2872,63 2162.781,63 2165.2184,63 2167.7128,62.233613 2169.281,61 2170.6795,59.9 2172.1159,59 2172.4998,59 2172.8836,59 2174.5532,57.875 2176.1873,56.5 2178.7057,54.380919 2180.3485,53.723802 2181.3436,54.40625 L 2180.5623,50.3125 z M 2151.3123,94.375 C 2146.7316,95.002862 2137.6283,100.03241 2139.781,100.75 2140.4841,100.98434 2142.0612,100.53971 2143.281,99.75 2145.9536,98.019893 2150.8712,96.616502 2153.1873,96.90625 2154.114,97.022193 2157.264,98.454649 2160.1873,100.09375 2164.2475,102.37042 2166.326,102.9293 2168.9998,102.53125 2170.9248,102.24468 2173.4299,102.00605 2174.5623,102 2175.6946,101.99394 2177.4237,101.40588 2178.406,100.6875 2179.9387,99.56687 2179.1998,99.378123 2173.3123,99.40625 2167.6776,99.43317 2165.4853,98.954024 2161.031,96.625 2156.6131,94.314881 2154.8108,93.89549 2151.3123,94.375 z M 2182.031,58.125 C 2180.2121,63.01906 2169.9068,68.203104 2164.1248,66.1875 2162.372,65.576479 2160.2781,65.345615 2159.4686,65.65625 2158.6028,65.988457 2157.9998,65.639561 2157.9998,64.8125 2157.9998,63.125438 2152.5687,61 2148.2498,61 2144.1264,61 2140.1283,65.851659 2137.031,74.625 2132.0246,88.806435 2135.9522,95.813321 2146.3123,91.09375 2152.2853,88.372704 2155.5532,88.463457 2159.1248,91.46875 2163.8586,95.451965 2172.502,95.875368 2180.2498,92.53125 2180.4813,92.431324 2180.6359,92.418565 2180.8123,92.375 L 2180.6873,89.375 C 2180.0564,89.884846 2179.1987,90.373553 2177.7498,91.03125 2171.2113,93.999202 2165.4323,93.117498 2159.656,88.3125 2156.3683,85.577483 2151.8933,85.865227 2146.1873,89.125 2144.3684,90.164145 2142.4559,91 2141.9373,91 2140.1084,91 2136.9998,86.960498 2136.9998,84.59375 2136.9998,81.520997 2142.3348,68.402117 2144.5936,65.90625 2146.6797,63.601083 2150.5034,63.469729 2155.4373,65.53125 2157.4537,66.373747 2159.5766,66.752476 2160.1873,66.375 2160.8129,65.988361 2161.0156,66.136947 2160.656,66.71875 2160.0181,67.751179 2164.2356,69 2168.3748,69 2171.0793,69 2177.6924,65.53707 2181.0936,62.34375 L 2182.5936,60.96875 2182.031,58.125 z"/>
</svg>
