<?xml version="1.0" encoding="UTF-8"?>
<svg xmlns="http://www.w3.org/2000/svg" viewBox="1430.52 18.06 22.04 86.65">
  <path d="M 1450.5623,64.09375 1449.6248,58.25 C 1448.5857,57.116778 1447.9998,56.02364 1447.9998,54.96875 1447.9998,54.1496 1448.3459,53.693763 1448.8436,53.40625 L 1447.5936,45.59375 C 1446.4654,43.588316 1446.0067,41.155266 1445.9998,37.78125 1445.9931,34.494488 1442.0087,22 1440.9686,22 1438.134,22 1435.4854,30.983427 1434.0936,45.21875 1432.5207,61.30466 1435.1917,92.301126 1438.6248,97.75 1440.5319,100.77668 1442.5351,100.58541 1443.8436,97.25 1446.1531,91.362481 1448.9998,76.518524 1448.9998,70.40625 1448.9998,65.243618 1449.1513,64.287854 1450.5623,64.09375 z M 1440.1248,28.59375 C 1440.7907,28.285937 1441.1642,29.002103 1441.906,31.25 1443.7012,36.68918 1446.0099,57.49079 1445.9686,67.96875 1445.9479,73.214654 1445.1604,81.501659 1444.2186,86.40625 1442.5389,95.153631 1440.5186,98.408731 1439.6248,93.8125 1439.3765,92.535929 1438.6269,88.822907 1437.9686,85.5625 1436.4619,78.101433 1435.8661,47.938241 1437.031,38.09375 1437.5142,34.011806 1438.5564,30.005848 1439.3436,29.21875 1439.6539,28.908387 1439.9028,28.696354 1440.1248,28.59375 z"/>
</svg>
