<?xml version="1.0" encoding="UTF-8"?>
<svg xmlns="http://www.w3.org/2000/svg" viewBox="343.96 15.36 20.22 87.67">
  <path d="M 351.54457,96.75 C 347.70689,84.533033 345.95747,72.939027 346.04608,60.309475 346.13396,47.782199 348.18591,32.47859 350.44525,27.5 351.19404,25.85 352.06498,23.702293 352.38066,22.727319 352.97211,20.900677 355.67568,19.342344 356.61816,20.28483 356.91071,20.577379 357.24146,21.420471 357.35316,22.158369 357.46485,22.896266 357.90113,24.051963 358.32267,24.726583 360.06731,27.518705 362.17537,50.527485 361.53106,59.745093 360.467,74.967546 359.72131,80.582598 357.97792,86.5 357.00568,89.8 355.92934,93.7375 355.58605,95.25 354.95292,98.039545 352.26324,99.037823 351.54457,96.75 z M 354.9177,88.75 C 359.59556,76.718846 359.68013,24 355.02158,24 352.20196,24 349.0525,42.935807 348.92597,60.649228 348.81736,75.855611 349.39311,82.679691 351.20823,87.699294 352.60542,91.563159 353.70303,91.874058 354.9177,88.75 z"/>
</svg>
