<?xml version="1.0" encoding="UTF-8"?>
<svg xmlns="http://www.w3.org/2000/svg" viewBox="2623.95 18.88 29.6 86.03">
  <path d="M 2646.817,95.31914 C 2645.0639,91.356096 2644.8193,89.244098 2645.2219,81.546872 2645.5015,76.202519 2646.3291,71.249985 2647.23,69.530633 2648.6476,66.824879 2648.6074,66.308443 2646.6932,62.635862 2643.5075,56.523957 2643.1458,44.04412 2645.9172,35.863872 2647.1031,32.363743 2648.7488,28.375 2649.5743,27 2651.0646,24.517906 2651.0706,24.525069 2650.4172,28 2650.0553,29.925 2649.077,32.833762 2648.2433,34.463916 2646.1947,38.469316 2647.2259,55.461665 2649.8819,61.465897 2651.4689,65.053578 2651.5476,66.015843 2650.4287,68.151406 2649.7098,69.523448 2648.6134,74.464739 2647.9923,79.132052 2646.959,86.897207 2647.0387,88.080274 2648.931,93.059038 2651.2972,99.284563 2651.4016,100 2649.9438,100 2649.3628,100 2647.9558,97.893613 2646.817,95.31914 z M 2637.8775,97.75 C 2636.0998,93.517876 2636.0927,75.05254 2637.8663,68.866267 2638.8578,65.408155 2638.9146,63.708888 2638.0902,62.16857 2634.9238,56.252063 2635.9589,33.992232 2639.6715,28.163236 2641.7822,24.849268 2642.1495,25.90374 2640.4988,30.538281 2638.8649,35.125657 2638.678,48.910591 2640.14,57 2641.5317,64.700343 2641.4724,66.561712 2639.5824,74.5 2638.1635,80.459341 2638.0893,82.654878 2639.083,89.268296 2639.7249,93.540859 2640.6439,97.279917 2641.1251,97.577313 2642.5161,98.436991 2642.1388,101 2640.6213,101 2639.863,101 2638.6283,99.5375 2637.8775,97.75 z M 2627.25,56.28125 2628,58 2628.625,60.78125 C 2629.0234,60.922693 2629.3697,61.173342 2629.75,61.6875 2631.1138,63.531475 2631.1729,64.403357 2629.125,65.71875 L 2628.6562,69.34375 2627.875,70.53125 C 2627.9797,70.534392 2628.6243,70.280537 2628.6562,70.3125 2628.9237,70.579805 2628.6503,73.413898 2628.0625,76.59375 2625.9508,88.017076 2627.3349,101 2630.6562,101 2631.7545,101 2631.9848,100.48207 2631.4688,99.25 2629.6807,94.981279 2629.8698,82.282601 2631.875,72.125 2633.6535,63.115279 2633.7572,61.43523 2632.5625,59.125 2628.9858,52.208265 2628.4956,36.836852 2631.5938,29.09375 2633.8639,23.420049 2632.686,22.790422 2629.8438,28.15625 2627.8242,31.968847 2627.5272,34.036461 2627.4062,45 L 2627.25,56.28125 z"/>
</svg>
