<?xml version="1.0" encoding="UTF-8"?>
<svg xmlns="http://www.w3.org/2000/svg" viewBox="1372.48 17.36 92.1 86.16">
  <path d="M 1427.9648,34.065741 C 1429.2412,31.680735 1429.2775,27.987097 1428.0436,26.036252 1426.836,24.12703 1422.3018,25.633132 1420.3471,28.592785 1419.1291,30.436888 1419.2132,31.001324 1421.055,33.342785 1423.5151,36.470259 1426.5102,36.783636 1427.9648,34.065741 z M 1418.75,87.948505 C 1413.4707,80.83992 1413.9331,75.739504 1420.6563,66.923508 1425.6607,60.361211 1427.1211,60.047709 1432.6435,64.350175 1435.327,66.440859 1437.8438,67.657838 1438.833,67.343044 1443.5261,65.849523 1447.0412,64.273273 1452.3912,61.263395 1458.4088,57.877884 1460.3968,57.455739 1457.2561,60.230371 1454.3409,62.805836 1439.4285,70 1437.0052,70 1435.7607,70 1432.9991,68.425 1430.8683,66.5 1428.7376,64.575 1426.5762,63 1426.0652,63 1423.6186,63 1418,74.528833 1418,79.549001 1418,80.812653 1419.0125,83.120245 1420.25,84.676984 1422.577,87.604224 1425,91.58794 1425,92.486431 1425,92.768894 1424.4375,92.999515 1423.75,92.998922 1423.0625,92.998328 1420.8125,90.725641 1418.75,87.948505 z M 1400.7132,98.379911 C 1399.9725,97.639159 1408.0399,90.127761 1410.376,89.383195 1411.6813,88.967139 1413.315,89.848311 1415.7468,92.280132 1420.3272,96.860544 1419.6596,99.603409 1415.0391,95.187791 1413.2044,93.434506 1411.254,92 1410.7047,92 1410.1554,92 1407.8049,93.557781 1405.4814,95.461734 1403.1579,97.365688 1401.0122,98.678868 1400.7132,98.379911 z M 1391,95.460838 C 1391,94.614299 1393.1966,91.759476 1395.8814,89.116786 1402.7894,82.316989 1403.2504,81.183865 1401.4801,75.357052 1396.6508,59.462461 1388.1861,55.692683 1385.2065,68.10957 1383.2317,76.338743 1383.2974,76.229523 1381.0488,75.026118 1378.479,73.650825 1376.6682,66.80513 1377.256,60.687896 1377.6446,56.643544 1378.4245,55.143161 1382.0681,51.430631 1386.693,46.718193 1388.3755,46.175411 1391.5275,48.378978 1399.3591,53.854072 1404.8053,55.152424 1403.5912,51.254926 1403.2906,50.289717 1402.5751,46.159786 1402.0014,42.077301 1400.7902,33.45922 1399.7682,31.769081 1396.2952,32.640747 1393.9974,33.217467 1393.9125,33.11291 1395.1153,31.18702 1396.2237,29.412229 1396.1362,28.807937 1394.5108,27.011919 1390.7557,22.862569 1386.975,25.78013 1388.4568,31.683867 1388.9394,33.60688 1389.5707,34.084013 1391.1025,33.683459 1392.3702,33.351939 1392.9717,33.590569 1392.7288,34.328686 1392.1684,36.031649 1387.8722,36.405292 1386.8784,34.837492 1385.3408,32.411772 1385.9021,26.398613 1387.8287,24.654988 1390.378,22.347981 1392.5875,22.583589 1396.518,25.581545 L 1399.9026,28.163091 1404.3815,25.081545 C 1409.8056,21.349632 1411.0093,21.275414 1413.8131,24.5 1416.4406,27.521945 1417.9476,27.61218 1422.2258,25.003738 1426.1798,22.593012 1427.3782,22.521081 1429.4286,24.571429 1432.6768,27.819609 1430.5485,36.573257 1426.2481,37.652571 1424.6096,38.063815 1422.8741,37.543711 1420.8218,36.026369 1416.685,32.967917 1415.7699,34.261822 1415.2083,43.963245 1414.6806,53.077596 1414.6353,53.036657 1422.2421,50.310254 L 1426.9841,48.610617 1429.7421,51.14615 C 1433.3649,54.476828 1439.3255,58 1441.3376,58 1443.0901,58 1449.5704,54.62056 1452.0787,52.398521 1453.8557,50.824434 1455,50.598463 1455,51.821661 1455,52.273574 1451.6368,54.567584 1447.5263,56.91946 L 1440.0526,61.195598 1436.2763,58.93864 C 1434.1993,57.697314 1431.2784,55.559371 1429.7854,54.187655 1426.9379,51.571502 1421.6783,50.921677 1419.663,52.937012 1417.7744,54.825553 1413.1983,54.200264 1412.4861,51.956354 1411.6894,49.446002 1412.6827,38.820601 1414.1841,33.792254 1415.1849,30.440592 1415.0612,29.842015 1412.8956,27.559531 1409.7984,24.295123 1407.7557,24.352938 1403.8814,27.81466 1401.16,30.246222 1400.8856,30.917814 1401.8656,32.748918 1402.4895,33.914698 1403.0065,36.360601 1403.0146,38.184259 1403.0226,40.007916 1403.7292,43.510777 1404.5849,45.968392 1406.3102,50.923829 1405.737,57 1403.5442,57 1402.7934,57 1398.9258,55.156476 1394.9495,52.903279 1388.7918,49.413941 1387.3697,48.966135 1385.3577,49.882887 1380.0518,52.300396 1377.2837,62.355677 1379.9752,69.4349 1381.3655,73.091604 1383,72.605217 1383,68.534796 1383,64.320245 1388.044,58 1391.4074,58 1395.878,58 1402.3961,67.744524 1405.095,78.462899 L 1406.2638,83.104682 1399.3819,90.050705 C 1392.2444,97.254759 1391,98.057932 1391,95.460838 z"/>
</svg>
