<?xml version="1.0" encoding="UTF-8"?>
<svg xmlns="http://www.w3.org/2000/svg" viewBox="493.92 14.68 85.11 86.06">
  <path d="M518.0 92.544006C518.0 92.29321 519.35 89.798407 521.0 87.0C524.5668 80.950694 524.58767 80.645712 521.92232 73.521915C516.19299 58.208916 507.72964 58.480193 505.51493 74.047824C504.63796 80.212166 503.56605 81.817288 501.27847 80.39163C500.17714 79.705267 499.23195 77.420792 498.79598 74.39163C497.78935 67.397514 500.27211 59.509233 504.95774 54.81428C508.28732 51.478082 508.9616 51.203924 512.06807 51.923276C513.95563 52.36037 517.21968 53.44693 519.32152 54.337853L523.14304 55.957714L522.87805 50.228857C522.66622 45.649485 519.64302 32.645185 518.44868 31.175973C518.30381 30.997759 515.91619 31.657857 513.14286 32.642857C510.36952 33.627858 507.79954 34.132878 507.43179 33.765124C507.06404 33.39737 506.70394 30.584498 506.63157 27.514297C506.5377 23.531407 506.92975 21.659726 508.0 20.98137C510.47163 19.414776 511.99984 19.845997 515.15385 23.0C518.89723 26.743382 519.91361 26.743382 523.5 23.0C525.0808 21.35 526.89747 20.0 527.53705 20.0C528.17663 20.0 530.49692 21.301736 532.69324 22.892748L536.68657 25.785495L540.99376 22.892748C543.36272 21.301736 545.65058 20.0 546.0779 20.0C547.73745 20.0 551.0 25.415415 551.0 28.170042C551.0 31.591671 548.37375 36.0 546.33533 36.0C545.54627 36.0 543.51331 35.282564 541.81764 34.405698C539.45604 33.184467 538.55863 33.096115 537.98261 34.028132C537.15061 35.37435 535.7731 45.114932 535.46866 51.804653C535.30429 55.416709 535.53239 56.001455 536.88639 55.438988C544.21207 52.395797 549.08448 53.120903 553.40735 57.897621C554.45379 59.053929 555.88459 60.0 556.58689 60.0C560.47474 60.0 567.0 43.325088 567.0 33.389947C567.0 22.321256 570.15614 18.594589 573.52242 25.688493C574.95572 28.708945 575.15799 30.927603 574.63923 37.938493C573.85941 48.477608 572.20703 54.802737 568.00241 63.343545C566.2188 66.966563 565.03079 70.637856 565.36238 71.501972C565.69398 72.366089 567.31605 73.844147 568.96698 74.786547C571.91882 76.471536 573.55311 78.78022 572.52315 79.810182C572.23499 80.098341 570.22579 78.908933 568.05825 77.167054C565.89072 75.425174 563.66251 74.0 563.10668 74.0C562.55085 74.0 560.68109 76.056624 558.95165 78.570275C557.22221 81.083927 555.58015 82.913482 555.30262 82.635955C555.02509 82.358427 555.96847 80.596827 557.39901 78.721288C560.49441 74.663011 560.59775 74.0 558.13486 74.0C557.10903 74.0 555.12053 73.09605 553.71597 71.991222C552.31141 70.886395 549.80032 69.710065 548.13578 69.377156C545.48475 68.84695 544.85483 69.189161 543.05758 72.135934C539.64703 77.727863 539.4947 81.142415 542.41136 86.62133C545.20153 91.862656 545.50181 93.0 544.09546 93.0C542.95868 93.0 537.0 82.546877 537.0 80.552661C537.0 78.054027 540.93434 68.633769 543.01605 66.148027L544.98573 63.796054L550.41233 67.398027C553.39696 69.379112 556.69402 71.0 557.73913 71.0C561.83658 71.0 567.75287 60.620141 570.4565 48.687947C572.16118 41.16456 572.49127 28.32524 571.03906 26.02896C569.57799 23.718667 568.89398 25.32607 568.86521 31.137457C568.83776 36.681641 567.33008 46.206755 566.04728 48.94038C561.96309 57.643715 560.27611 60.428204 558.30488 61.719805C556.131 63.144186 555.7745 63.028995 552.10968 59.718052C546.25074 54.424857 544.54425 54.296833 534.87338 58.424948C532.23836 59.549731 531.88175 55.371015 533.50331 42.370922C534.3177 35.841915 534.98762 29.960401 534.99201 29.300891C534.9964 28.641381 533.445 26.915726 531.54444 25.466101L528.08889 22.83042L524.63131 25.46764C522.72965 26.918112 520.95857 28.665588 520.69558 29.350922C520.43259 30.036256 521.29625 33.81364 522.61482 37.745109C524.8855 44.51541 526.25804 58.075292 524.81838 59.514956C524.47958 59.853754 521.41791 58.725355 518.01467 57.007403C509.7212 52.820877 507.37911 53.213747 503.75402 59.399528C501.51711 63.216552 500.86422 65.604387 500.79895 70.20712C500.70548 76.799205 502.48613 80.231615 503.49011 75.394645C505.8892 63.836328 508.59937 60.0 514.36565 60.0C518.25542 60.0 522.52753 64.079273 523.60999 68.827072C523.94517 70.297182 524.84503 73.428226 525.6097 75.784947C527.50722 81.633164 527.45591 81.902058 523.49029 86.890731C521.57063 89.305633 520.0 91.668133 520.0 92.140731C520.0 92.613329 519.55 93.0 519.0 93.0C518.45 93.0 518.0 92.794803 518.0 92.544006Z M513.99585 29.505006C514.9957 28.300254 514.91793 27.523684 513.59524 25.505006C511.20857 21.862493 509.0 22.260605 509.0 26.333333C509.0 31.143766 511.38118 32.655486 513.99585 29.505006Z M524.0 95.077923C524.0 94.033105 531.94833 87.0 533.12911 87.0C534.35139 87.0 539.34808 93.985257 538.63551 94.697828C538.28164 95.051693 536.95239 94.364445 535.68161 93.17061C532.73278 90.400328 531.87213 90.442756 529.0 93.5C526.65979 95.991043 524.0 96.830431 524.0 95.077923Z M547.6246 31.359568C548.44438 28.093311 546.97278 23.61844 544.95082 23.229045C543.36505 22.923655 539.0 26.422143 539.0 27.998486C539.0 29.316858 544.24437 34.0 545.72073 34.0C546.40337 34.0 547.26011 32.811805 547.6246 31.359568Z M559.0 86.263208C559.0 84.872181 564.75837 80.0 566.40241 80.0C567.95171 80.0 572.0 84.205126 572.0 85.814451C572.0 86.466503 571.325 87.0 570.5 87.0C569.675 87.0 569.0 86.540353 569.0 85.978561C569.0 85.41677 567.87055 84.44251 566.49011 83.813539C564.3326 82.830511 563.63062 82.998389 561.49011 85.009292C560.12055 86.295927 559.0 86.860189 559.0 86.263208Z"/>
</svg>
