<?xml version="1.0" encoding="UTF-8"?>
<svg xmlns="http://www.w3.org/2000/svg" viewBox="124.03 13.95 36.28 89.1">
  <path d="M128.90984 80.75C128.774 53.251692 127.84076 33.538648 126.38885 27.497932C126.02568 25.986976 127.1391 24.576489 130.92784 21.747932C133.68896 19.68657 136.27827 18.0 136.68186 18.0C137.08546 18.0 139.04282 19.588867 141.03156 21.530815L144.64744 25.06163L148.50867 21.993109C150.63235 20.305423 153.07417 19.058971 153.93495 19.223215C154.79573 19.38746 156.16729 21.447324 156.98287 23.800691C158.30589 27.618293 158.29816 28.371695 156.91115 30.78977C155.15401 33.853111 151.83797 34.068331 148.79712 31.316392C145.68827 28.50293 145.80647 27.224768 146.63014 54.75C146.99234 66.853907 146.8325 73.0 146.15552 73.0C144.35222 73.0 144.10177 69.887089 144.24095 49.203469L144.37753 28.906937L140.19103 24.720437L136.00452 20.533937L132.80094 23.737519L129.59736 26.941101L130.71474 54.22055C131.3293 69.224248 131.66213 84.875 131.45437 89.0C131.24661 93.125 131.05938 97.0625 131.03831 97.75C131.01724 98.4375 130.55 99.0 130.0 99.0C129.37316 99.0 128.96636 92.189894 128.90984 80.75Z M136.57511 87.582479C136.19131 81.852842 135.95653 69.140342 136.05339 59.332479C136.15025 49.524615 135.90135 38.745897 135.50027 35.379772C135.05095 31.608774 135.15067 29.024915 135.76007 28.648288C136.34141 28.288999 136.97976 30.193518 137.30866 33.268515C138.12312 40.883153 138.64803 98.0 137.90355 98.0C137.55671 98.0 136.95892 93.312115 136.57511 87.582479Z M144.95509 93.309017C144.93039 90.664058 144.66548 85.46131 144.36641 81.747356C143.89203 75.856319 144.02535 75.072498 145.41132 75.604344C146.72108 76.106944 147.0 78.028319 147.0 86.547972C147.0 92.358612 146.56228 97.152489 146.0 97.5C145.38835 97.878023 144.98256 96.250475 144.95509 93.309017Z M154.98635 28.143011C154.96557 24.121729 153.90417 21.0 152.55768 21.0C151.8927 21.0 150.2889 22.12803 148.99367 23.506734L146.63872 26.013467L149.43417 28.931291C152.65532 32.29344 155.00606 31.959689 154.98635 28.143011Z"/>
</svg>
