<?xml version="1.0" encoding="UTF-8"?>
<svg xmlns="http://www.w3.org/2000/svg" viewBox="2228.56 17.02 18.68 87.58">
  <path d="M 2230.5625 52.6875 L 2230.6562 54 L 2232.0312 60.40625 C 2232.2483 60.782705 2232.4828 61.089699 2232.625 61.65625 C 2232.8931 62.724532 2232.8274 63.485215 2232.4062 64.3125 L 2231.3438 68.65625 L 2230.6562 70.8125 C 2231.3506 71.8072 2231.4983 74.33502 2231.5 79.25 C 2231.5027 86.961285 2231.878 89.24829 2233.8125 93 C 2235.0886 95.475 2236.8814 98.055087 2237.7812 98.75 C 2240.2008 100.6186 2241.5322 99.702477 2241.1875 96.40625 C 2241.0198 94.80251 2240.756 92.325044 2240.5938 90.875 C 2240.1638 87.033663 2241.7458 76.327012 2243.6562 70.1875 C 2245.2428 65.088341 2245.2435 64.606891 2243.2812 58.6875 C 2239.0544 45.937034 2238.8131 44.496196 2239.1562 32.71875 C 2239.3439 26.278249 2239.2073 20.99928 2238.8438 21 C 2238.4801 21.00072 2237.0495 22.318898 2235.6875 23.9375 C 2232.8016 27.367229 2231 36.125132 2231 46.625 C 2231 49.725869 2230.9321 51.370461 2230.5625 52.6875 z M 2235.9062 27.25 C 2236.4558 27.041579 2236.6651 29.844507 2237.0312 38.5 C 2237.5524 50.820067 2238.6081 55.791552 2242.0938 62.5625 C 2242.9058 64.14013 2242.6702 66.038336 2241.1562 70.5625 C 2240.0645 73.824872 2238.907 79.205787 2238.5625 82.5 C 2237.7311 90.45181 2236.5086 91.288487 2235 85 C 2233.2551 77.726338 2233.5434 72.880659 2235.9688 68.5625 C 2238.1479 64.682529 2238.0421 63.409382 2234.7812 55 C 2233.3907 51.414039 2233.71 31.779132 2235.2188 28.34375 C 2235.4971 27.70988 2235.7231 27.319474 2235.9062 27.25 z "/>
</svg>
