<?xml version="1.0" encoding="UTF-8"?>
<svg xmlns="http://www.w3.org/2000/svg" viewBox="981.28 15.83 33.89 91.66">
  <path d="M986.38654 99.467179C983.2814 94.728144 986.83099 80.490006 992.80884 73.705965C994.49548 71.791858 994.12323 69.532227 990.63332 60.5C989.78328 58.3 989.06856 54.25 989.04507 51.5C988.98936 44.978188 991.2388 33.351338 993.34017 29.29966C994.25308 27.539473 995.0 25.471717 995.0 24.704647C995.0 22.879987 998.22035 20.0 1000.2606 20.0C1005.5659 20.0 1012.0439 43.721142 1009.9013 55.302403C1009.3725 58.161081 1008.9128 61.175 1008.8799 62.0C1008.847 62.825 1008.3599 65.010052 1007.7976 66.855671C1007.0888 69.181807 1007.1027 70.869231 1007.8427 72.355671C1010.9408 78.578243 1012.2215 83.22501 1012.7057 90.0C1013.1675 96.461833 1012.9697 97.834533 1011.2766 99.916759C1008.5043 103.32626 1006.0 102.13327 1006.0 97.403111C1006.0 93.304245 1000.67 83.0 998.54975 83.0C997.19397 83.0 993.65742 90.292604 992.48788 95.5C991.18946 101.28127 990.85418 102.0 989.45567 102.0C988.68041 102.0 987.2993 100.86023 986.38654 99.467179Z M1010.8103 89.828505C1010.5049 85.362481 1009.4541 81.660658 1007.2398 77.25012C1004.3403 71.475031 1004.2021 70.753335 1005.4202 67.75012C1006.1453 65.962554 1006.9795 62.5875 1007.2741 60.25C1007.8558 55.634455 1006.3117 54.545428 1003.3646 57.49258C1002.0411 58.81602 1001.5449 58.81602 998.98565 57.49258C992.75235 54.269216 990.16797 56.469119 993.22537 62.395894C997.92112 71.498617 997.88361 70.909137 994.03531 75.122488C989.41095 80.185507 985.42847 95.675001 988.5 96.651553C989.05 96.826418 990.81524 94.056767 992.42275 90.496772C994.03026 86.936778 996.35278 83.077761 997.5839 81.921178L999.82231 79.818302L1003.4112 85.428568C1005.385 88.514215 1007.0 91.450802 1007.0 91.954318C1007.0 92.457833 1007.4667 94.097373 1008.0372 95.59774C1009.7746 100.16744 1011.3002 96.993501 1010.8103 89.828505Z M1006.4433 51.777494C1007.9829 49.579432 1008.5445 42.582644 1007.4172 39.64493C1006.7686 37.954588 1004.5201 38.426811 1001.7095 40.843666C1000.0968 42.230355 999.64973 42.228423 997.20947 40.824222C993.30702 38.578634 992.0 39.499466 992.0 44.49444C992.0 48.09943 992.51385 49.254585 995.07673 51.411106C999.04669 54.751609 1004.2428 54.9191 1006.4433 51.777494Z M1003.25 37.516365C1004.7625 36.185127 1006.0 34.518306 1006.0 33.812319C1006.0 31.487395 1000.6711 21.94309 999.574 22.303076C997.82039 22.878482 994.03421 30.286831 994.01645 33.17742C994.00592 34.89194 994.94759 36.600217 996.63486 37.92742C999.88241 40.481946 999.88049 40.482066 1003.25 37.516365Z"/>
</svg>
