<?xml version="1.0" encoding="UTF-8"?>
<svg xmlns="http://www.w3.org/2000/svg" viewBox="893.69 13.69 44.29 87.35">
  <path d="M918.77037 93.897712C916.12468 91.925436 915.94816 91.91755 913.03018 93.641243C908.64194 96.233444 907.6222 94.706287 908.85071 87.382051C909.39334 84.146923 909.89612 78.291261 909.96799 74.369469L910.09866 67.238938L904.69152 62.619469C901.71759 60.078761 898.77039 58.0 898.14219 58.0C895.69915 58.0 897.48515 49.680549 900.32488 47.83272C900.88889 47.465716 902.82707 48.291793 904.63196 49.668446C907.90781 52.167065 910.0 52.104951 910.0 49.509077C910.0 48.753988 908.65 47.174904 907.0 46.0C905.35 44.825096 904.0 43.219454 904.0 42.431906C904.0 40.803046 906.56465 40.486564 907.5 42.0C908.5816 43.750063 910.0 43.077429 910.0 40.814451C910.0 39.612399 909.05285 37.620712 907.89523 36.388479C905.5338 33.874845 906.03906 31.935948 908.86309 32.674448C911.76228 33.432604 912.28152 30.299797 909.8106 26.957696C907.33141 23.604408 908.08188 21.945529 911.19776 23.891431C912.98491 25.007524 913.43654 24.971339 914.17435 23.65294C917.09977 18.425499 920.87267 17.665308 923.6188 21.75C925.1834 24.077228 925.47012 26.536993 925.48381 37.75C925.49272 45.0375 925.64464 51.0 925.82143 51.0C925.99821 51.0 926.84033 50.302523 927.69281 49.450051C928.54528 48.597579 929.93922 48.035079 930.79046 48.200051C932.36243 48.5047 935.79349 53.512236 935.92691 55.696546C935.96711 56.354646 933.55561 58.515587 930.56801 60.498638C926.78399 63.010327 924.98165 64.922682 924.62717 66.802093C922.86725 76.132952 921.81996 87.226774 922.40475 90.343967C923.56971 96.553763 923.03486 97.076749 918.77037 93.897712Z M918.75 89.447862C919.54009 89.204456 920.00729 87.119599 920.01981 83.781385C920.0307 80.876623 920.49316 75.361623 921.04749 71.525828C922.14227 63.950219 924.63247 60.223306 930.11748 57.951338C933.26401 56.648004 933.54066 55.878749 931.9391 52.886201C930.68709 50.546812 927.27748 51.182283 925.1933 54.143459C923.93135 55.936411 919.98768 56.778617 920.01187 55.25C920.0184 54.8375 920.68806 52.025 921.5 49.0C923.24136 42.512346 923.45884 29.614681 921.90217 25.149223C919.36095 17.859471 915.37771 23.71187 913.90547 36.898418C913.24042 42.855181 913.25884 46.550608 913.96283 48.402247C915.47818 52.387913 915.23172 55.697103 913.36621 56.412965C912.42052 56.775863 909.48524 55.771674 906.39675 54.028638C901.22842 51.111812 901.02822 51.078745 900.01374 52.97432C899.1336 54.618892 899.40807 55.162865 901.73321 56.382121C903.25494 57.180088 906.45154 59.779315 908.83675 62.158181L913.17351 66.483391L912.46359 78.791659L911.75368 91.099927L914.62684 90.466441C916.20708 90.118023 918.0625 89.659663 918.75 89.447862Z"/>
</svg>
