<?xml version="1.0" encoding="UTF-8"?>
<svg xmlns="http://www.w3.org/2000/svg" viewBox="1213.48 14.97 22.65 88.55">
  <path d="M 1234.125 60.84375 L 1234 59.34375 L 1234 54.40625 C 1233.1766 52.96088 1232.7585 51.585212 1233.5938 50.75 C 1233.6322 50.711522 1233.9105 50.794989 1234 50.78125 L 1234 44.71875 C 1233.0531 42.921261 1232.53 40.031944 1231.5 33 C 1230.7363 27.785645 1227.888 19 1226.9688 19 C 1225.4399 19 1221.9971 23.881409 1220.625 28 C 1216.803 39.472779 1215.4751 63.040369 1217.7188 79.375 C 1218.9259 88.164248 1221.6678 95.357535 1224.7188 97.71875 C 1227.0248 99.503424 1227.5638 98.769297 1229.3125 91.28125 C 1232.6567 76.960756 1233.2323 72.825984 1232.0938 71.6875 C 1231.4925 71.086299 1230.9916 70.14 1231 69.5625 C 1231.0084 68.985 1231.4668 69.175 1232 70 C 1232.6962 71.077284 1232.989 70.057044 1233 66.40625 C 1233.0084 63.610416 1233.2348 61.077694 1233.5312 60.78125 C 1233.591 60.721499 1233.9474 60.834484 1234.125 60.84375 z M 1225.0938 24.4375 C 1226.487 23.5764 1227.7919 27.310763 1229.1562 36.03125 C 1231.5666 51.438656 1230.4664 76.830376 1226.8438 88.75 C 1226.3005 90.5375 1225.4568 92 1224.9688 92 C 1219.6553 92 1217.5242 46.399013 1222.1562 31.71875 C 1223.3335 27.987776 1224.6537 24.70943 1225.0938 24.4375 z "/>
</svg>
