<?xml version="1.0" encoding="UTF-8"?>
<svg xmlns="http://www.w3.org/2000/svg" viewBox="245.93 9.97 50.81 93.46">
  <path d="M260.66667 97.333333C259.64327 96.309936 259.87502 90.460982 261.06362 87.3151C261.64861 85.766795 263.26563 83.306515 264.657 81.847812L267.18676 79.195624L265.60728 71.558032C263.96391 63.611569 262.54283 60.0 261.05943 60.0C260.58082 60.0 258.30407 61.575 256.0 63.5C253.69593 65.425 251.41918 67.0 250.94057 67.0C249.00245 67.0 248.23809 63.318899 249.07178 58.0C249.79228 53.403251 250.60268 51.872171 254.00638 48.677078L258.07891 44.854156L255.53945 38.506523C251.68708 28.877107 252.5362 18.656548 257.40505 16.050814C260.82664 14.219637 261.72168 15.24444 261.85463 21.145463C261.99898 27.55276 262.54213 29.386578 265.86962 34.701243C268.89968 39.540856 270.62279 40.552151 272.79754 38.767253C275.02835 36.936343 280.0 28.874257 280.0 27.087652C280.0 24.324102 283.24931 17.0 284.47534 17.0C286.16057 17.0 288.03888 21.532645 288.71326 27.226768C289.08333 30.351429 288.6681 34.322771 287.53278 38.516972L285.78142 44.98702L288.84863 48.48038C292.1657 52.258319 293.90908 57.312265 294.16715 63.898471C294.4285 70.568162 292.60575 71.220546 288.15332 66.050892C283.43007 60.566799 281.5932 61.006762 280.09763 67.980372C278.5252 75.312371 278.6943 77.09057 281.55902 83.347955C283.33898 87.235886 284.02397 90.23834 283.80902 93.210172C283.37882 99.158236 281.24613 99.182335 275.58727 93.303075L270.96425 88.5L266.87806 93.25C262.78822 98.004247 261.91296 98.579631 260.66667 97.333333Z M273.72224 87.804213C275.25001 88.893176 277.35724 90.732713 278.40499 91.892073C279.45273 93.051433 280.69023 94.0 281.15499 94.0C283.03778 94.0 281.81245 88.416387 278.88588 83.660111C276.0595 79.066646 275.83046 78.086273 276.40708 73.049512C277.22064 65.94307 279.82185 58.005595 281.55512 57.340474C282.29598 57.05618 284.51141 58.051023 286.47829 59.551236C288.44517 61.05145 290.29676 62.03657 290.59294 61.740391C292.06012 60.273213 288.51187 52.243872 284.93788 48.943552C281.14037 45.436823 281.10831 45.345954 282.64475 42.443552C285.45917 37.126984 286.92509 30.674346 286.15324 27.0C285.74886 25.075 285.05159 23.5 284.60374 23.5C284.1559 23.5 282.70788 26.2 281.38592 29.5C278.22732 37.384827 273.09156 43.084346 269.86032 42.290798C268.56214 41.971984 266.89495 41.235713 266.15544 40.654641C264.19928 39.117588 260.35804 30.755324 259.57134 26.321249C257.89817 16.890828 255.98587 16.884229 256.02705 26.309017C256.04706 30.886964 256.82049 34.296848 258.99555 39.396472C261.89612 46.197131 262.03971 48.0 259.68076 48.0C257.89759 48.0 253.01379 52.833522 251.93801 55.663051C250.93784 58.293683 250.66244 63.0 251.50866 63.0C251.78842 63.0 253.88094 61.65 256.1587 60.0C263.44118 54.724599 263.98635 55.34 268.48945 73.919145L270.04528 80.33829L266.53501 83.231754C263.09315 86.068827 260.83153 91.159555 261.80999 93.867423C262.14261 94.787926 263.71608 93.697004 266.62429 90.529563L270.94448 85.824281L273.72224 87.804213Z"/>
</svg>
