<?xml version="1.0" encoding="UTF-8"?>
<svg xmlns="http://www.w3.org/2000/svg" viewBox="1347 15.17 33.44 87.2">
  <path d="M 1358.1875 51.5625 L 1358.6562 52 L 1357.9688 60.125 C 1357.9686 60.150242 1357.969 60.162049 1357.9688 60.1875 C 1357.9657 60.464464 1357.9242 60.662639 1357.9062 60.90625 L 1357.3438 67.34375 L 1357.2188 67.59375 C 1357.611 68.351808 1358.0989 71.18051 1358.4375 75.0625 C 1359.3143 85.114259 1361.3588 92.139461 1364.4375 95.71875 C 1366.717 98.368789 1366.8841 98.407326 1368.75 96.71875 C 1372.4462 93.373748 1373.3417 87.56902 1373.5 66.03125 C 1373.5828 54.766701 1373.2491 43.621539 1372.75 41.28125 C 1371.9825 37.682879 1372.1494 36.579677 1373.875 34.15625 C 1376.7062 30.180203 1378.4412 22.230975 1376.875 20.34375 C 1375.8716 19.134826 1375.0345 19.530054 1371.5625 22.9375 C 1369.2937 25.164186 1366.9458 27 1366.375 27 C 1365.8042 27 1364.2709 25.831752 1362.9375 24.40625 C 1359.2099 20.421099 1357.2186 19.648534 1354.0312 20.96875 C 1351.0229 22.214843 1349 25.654537 1349 29.5 C 1349 32.352585 1354.3525 38.809516 1357.8125 40.125 C 1360.1114 40.999063 1360.2001 41.334156 1359.5312 46.6875 C 1359.2885 48.630637 1358.7875 50.195656 1358.1875 51.5625 z M 1355 23.0625 C 1355.6914 22.977239 1356.5922 23.398437 1358.3125 24.21875 C 1360.2463 25.140949 1362.1098 26.806188 1362.4688 27.9375 C 1363.359 30.742631 1366.5855 30.542446 1370.6562 27.4375 C 1374.8102 24.269187 1375.095 25.903344 1371.5938 32.78125 C 1369.3128 37.261811 1369.2142 38.057073 1369.9688 48 C 1371.0391 62.105981 1370.5834 87.840588 1369.1875 91.25 C 1368.5682 92.7625 1367.6522 94 1367.1562 94 C 1366.6604 94 1365.2202 91.6375 1363.9688 88.75 C 1361.9813 84.164491 1361.679 81.728024 1361.5938 69.5 C 1361.54 61.8 1361.725 51.73298 1362 47.125 C 1362.5331 38.192549 1362.8146 38.839444 1357.25 36.15625 C 1355.52 35.322043 1351 29.4025 1351 27.96875 C 1351 27.561017 1351.8621 26.164442 1352.9062 24.875 C 1353.835 23.728018 1354.3086 23.147761 1355 23.0625 z "/>
</svg>
