<?xml version="1.0" encoding="UTF-8"?>
<svg xmlns="http://www.w3.org/2000/svg" viewBox="628.29 11.78 21.97 90.22">
  <path d="M 633.34375 49.5 L 633.34375 54.15625 C 633.95687 54.205644 634.00413 54.888894 634 56.25 C 633.99793 56.930805 633.75699 57.513031 633.34375 58.125 L 633.34375 62.65625 L 633.21875 63.03125 L 633.5 62.875 L 633.8125 67.5 C 633.98127 70.036544 633.41877 76.830049 632.5625 82.59375 C 630.41578 97.043559 630.2864 96.311769 634.90625 95.53125 C 637.29978 95.126867 639.06241 95.280029 639.46875 95.9375 C 640.67962 97.89672 643.95101 97.112113 644.4375 94.75 C 646.89761 82.805216 648.2582 63.284603 647.71875 47.65625 C 646.96801 25.906725 645.05212 15.882518 642.46875 20.0625 C 642.10948 20.643815 639.94194 20.981315 637.65625 20.8125 L 633.5 20.5 L 633.65625 24 C 634.63415 45.594804 634.68877 47.888741 633.34375 49.5 z M 642.75 24.40625 C 644.91605 26.572299 646.38688 64.844534 644.65625 74 C 644.39634 75.375 643.88892 78.975 643.53125 82 C 643.17358 85.025 642.63695 88.49251 642.34375 89.6875 C 641.91644 91.429055 641.15815 91.825937 638.46875 91.6875 C 634.49619 91.483013 633.79411 89.860873 635.125 83.9375 C 636.5086 77.779532 636.90471 69.729984 637 46.34375 L 637.09375 25.1875 L 639.65625 24.5625 C 641.07001 24.20767 642.46477 24.121025 642.75 24.40625 z "/>
</svg>
