<?xml version="1.0" encoding="UTF-8"?>
<svg xmlns="http://www.w3.org/2000/svg" viewBox="849.3 14.87 45 90.75">
  <path d="M 852.3125 95.65625 C 853.22977 95.729167 854.36726 96.077393 856 96.71875 C 868.1746 101.50107 881.38885 88.210181 884.0625 68.5 C 885.9199 54.807171 886.81828 50.724745 889.46875 43.28125 C 891.12476 38.630571 892.06297 33.790718 892.125 29.65625 C 892.25161 21.216241 891.46538 19 888.4375 19 C 885.38372 19 883.10489 23.354519 880.125 34.84375 C 877.4867 45.015938 873.65331 52 870.71875 52 C 867.98419 52 865 54.79671 865 57.34375 C 865 60.121777 868.86701 64 871.625 64 C 873.6707 64 873.8086 64.359814 873.3125 67.75 C 872.48508 73.404401 868.5039 81.623372 865.6875 83.46875 C 863.88605 84.649108 862.37564 84.89128 860.25 84.3125 C 857.89341 83.670835 853.83391 80.621648 851.75 78.375 L 851.34375 79.34375 L 851.625 84.21875 C 852.08354 84.0987 852.85249 84.501938 854.28125 85.40625 C 857.61153 87.514103 862.32165 88.223381 865.375 87.0625 C 867.36293 86.306691 868.95166 84.192701 871.25 79.28125 C 874.13044 73.125885 877.34023 60.683981 876.3125 59.65625 C 876.07652 59.420275 874.55366 59.702468 872.9375 60.3125 C 870.56229 61.209042 869.71383 61.15133 868.46875 59.90625 C 866.56566 58.003162 867.53754 55 870.0625 55 C 871.0814 55 873.06144 53.7625 874.46875 52.25 C 877.38147 49.119585 882.42022 36.707142 883.5 30 C 884.38549 24.499749 885.63991 22 887.46875 22 C 891.30193 22 890.35422 35.860319 885.8125 46.5 C 883.73096 51.376325 882.5757 56.230439 881.96875 62.5 C 880.68741 75.735559 876.94174 85.02961 870.34375 91.4375 C 867.31996 94.374172 865.97659 94.986084 862.59375 94.9375 C 858.13235 94.873426 853.81788 92.596774 851.96875 89.78125 L 852.3125 95.65625 z "/>
</svg>
