<?xml version="1.0" encoding="UTF-8"?>
<svg xmlns="http://www.w3.org/2000/svg" viewBox="2292.1 13.08 24.81 94.03">
  <path d="M2306.0964 97.061182C2302.6715 93.310211 2298.616 84.122905 2296.0461 74.293403C2294.0979 66.841777 2294.508 51.471479 2296.9613 39.995312C2300.0124 25.722545 2304.7068 18.0 2310.3319 18.0C2312.3713 18.0 2312.3431 19.962173 2310.1807 28.5C2307.9908 37.146833 2306.945 48.964787 2307.4817 59.0C2308.2864 74.046417 2310.675 92.28645 2312.3727 96.349653C2314.9117 102.42613 2311.3623 102.82851 2306.0964 97.061182Z M2308.5998 92.399501C2308.262 91.519226 2307.2586 84.881726 2306.37 77.649501C2304.4536 62.0526 2304.985 37.718105 2307.4323 29.0C2310.4132 18.381246 2308.8477 17.35102 2304.124 26.822847C2301.2243 32.637118 2300.9192 33.746907 2298.4552 47.441023C2296.6752 57.33303 2298.0195 71.467187 2301.6068 80.578461C2302.9231 83.921614 2304.0 87.199946 2304.0 87.863644C2304.0 89.581034 2307.0404 94.0 2308.222 94.0C2308.7676 94.0 2308.9376 93.279775 2308.5998 92.399501Z"/>
</svg>
