<?xml version="1.0" encoding="UTF-8"?>
<svg xmlns="http://www.w3.org/2000/svg" viewBox="2811 15.85 41.23 91.3">
  <path d="M2832.6318 97.75C2831.3431 94.8625 2829.3067 91.627303 2828.1064 90.560672C2825.9365 88.632313 2825.9098 88.635691 2823.3874 91.158091C2821.8189 92.726527 2820.638 95.279932 2820.2936 97.847418C2819.8952 100.81781 2819.2662 102.0 2818.0839 102.0C2816.1559 102.0 2813.0 97.116589 2813.0 94.133221C2813.0 91.13365 2816.7543 81.582133 2819.1108 78.586325L2821.1399 76.006663L2818.5818 69.612426C2815.0855 60.873094 2813.7188 50.520041 2815.0014 42.491064C2816.9638 30.207148 2822.3257 20.0 2826.8163 20.0C2830.0934 20.0 2837.0 32.26105 2837.0 38.078932C2837.0 39.278928 2838.5207 40.579107 2841.429 41.865569C2846.5327 44.123175 2848.5807 47.358756 2849.555 54.703396C2850.2274 59.771777 2849.0044 64.0 2846.866 64.0C2846.281 64.0 2844.5413 62.65 2843.0 61.0C2841.4587 59.35 2839.7904 58.0 2839.2927 58.0C2838.4148 58.0 2834.9815 73.731536 2835.0182 77.586264C2835.0282 78.638819 2836.4159 81.525 2838.102 84.0C2840.8524 88.037418 2841.1014 89.01398 2840.524 93.5C2839.8689 98.589648 2837.7521 103.0 2835.9643 103.0C2835.4201 103.0 2833.9204 100.6375 2832.6318 97.75Z M2838.1829 95.25C2838.5766 89.329546 2837.8373 86.578696 2834.9766 83.320539C2831.4691 79.32576 2831.4184 78.425945 2834.0 66.0C2836.3309 54.780995 2836.5931 48.0 2834.6962 48.0C2833.9791 48.0 2831.8658 49.575 2830.0 51.5C2828.1342 53.425 2826.1064 55.0 2825.4937 55.0C2824.881 55.0 2822.9814 53.632901 2821.2723 51.962002C2819.5633 50.291104 2817.8932 49.363801 2817.561 49.90133C2816.1435 52.194845 2819.5261 66.059661 2823.258 73.253008L2825.2051 77.006016L2822.1922 79.820414C2818.7376 83.047558 2816.0 88.928214 2816.0 93.122124C2816.0 97.043892 2817.0771 96.725128 2819.7721 92.005807C2823.7646 85.014206 2829.5485 85.811498 2834.2234 93.997898C2836.9039 98.691812 2837.9324 99.017049 2838.1829 95.25Z M2831.6 47.6C2835.5919 43.608073 2835.6764 42.699744 2832.8803 33.840055C2830.7474 27.081851 2827.0794 22.214869 2825.0597 23.46308C2823.1998 24.612599 2820.1702 31.436664 2818.7059 37.774724L2817.3051 43.838408L2820.8859 47.419204C2822.8553 49.388642 2825.3067 51.0 2826.3333 51.0C2827.36 51.0 2829.73 49.47 2831.6 47.6Z M2847.0 55.4C2847.0 51.482578 2846.4844 50.284406 2843.5253 47.325329C2841.6143 45.41426 2839.6006 44.128838 2839.0504 44.468837C2838.4714 44.826667 2838.2973 47.069176 2838.6369 49.793508C2839.0879 53.411807 2839.9492 55.129611 2842.3618 57.223099C2844.0878 58.720804 2845.8375 59.958304 2846.25 59.973099C2846.6625 59.987895 2847.0 57.93 2847.0 55.4Z"/>
</svg>
