<?xml version="1.0" encoding="UTF-8"?>
<svg xmlns="http://www.w3.org/2000/svg" viewBox="2168.78 14.12 124.33 92.79">
  <path d="M2222.0 99.871727C2222.0 99.251176 2223.3331 96.413454 2224.9624 93.565677L2227.9248 88.387901L2224.3851 83.44395C2218.5983 75.361639 2214.8469 66.475094 2215.1961 61.676411L2215.5 57.5L2220.75 57.19774C2225.9703 56.89719 2226.0 56.87667 2226.0 53.569864C2226.0 51.740775 2225.3517 48.692667 2224.5594 46.796291C2222.583 42.066185 2214.6109 33.408619 2211.1069 32.18712C2207.8852 31.064018 2205.0263 32.415224 2199.3556 37.741122C2196.5353 40.389927 2196.2617 41.14817 2196.7014 45.097168C2197.1701 49.307303 2192.8707 70.092233 2191.033 72.5C2190.6132 73.05 2189.2686 76.64427 2188.045 80.487268C2185.8957 87.237576 2185.8245 90.398265 2187.6562 97.75C2188.4381 100.88803 2185.0758 100.77399 2182.0564 97.560068C2177.1697 92.358374 2177.4221 78.087027 2182.6463 64.207657C2184.1717 60.155004 2185.332 54.526959 2185.6655 49.562734L2186.2073 41.5L2182.1244 37.685352C2175.2627 31.274467 2174.4349 23.245949 2180.3112 20.101031C2183.6048 18.338372 2187.0959 19.267323 2191.4086 23.053907L2194.8539 26.078916L2199.177 24.136598C2208.6742 19.869527 2212.1458 19.18927 2217.511 20.544018C2221.5105 21.553922 2223.4447 22.855633 2227.2634 27.107309L2232.0268 32.410846L2237.7634 26.819141C2244.6286 20.127369 2246.6483 19.0 2251.7715 19.0C2254.7343 19.0 2257.0346 19.974036 2261.3213 23.043675C2267.2328 27.276773 2268.811 27.342481 2272.0094 23.48866C2274.232 20.810573 2279.0367 18.792393 2281.6364 19.444879C2284.9319 20.272001 2287.4585 25.742619 2286.6169 30.22882C2285.9142 33.974296 2282.6774 37.586376 2279.5076 38.162399C2275.7386 38.847306 2274.888 42.784015 2276.6094 51.575769C2277.4628 55.934096 2278.8261 60.973625 2279.6391 62.774722C2283.7642 71.913371 2280.1395 91.368 2273.3464 96.549331C2270.2007 98.948684 2269.65 99.078537 2268.3086 97.737125C2266.9671 96.395712 2266.9683 95.972458 2268.3187 93.865533C2271.1235 89.489726 2271.4534 79.237924 2269.0491 71.164931C2267.8696 67.204195 2267.2231 63.409284 2267.6126 62.731796C2268.002 62.054308 2267.9553 61.83069 2267.5088 62.234866C2266.5604 63.09334 2264.4482 59.362334 2263.5926 55.31736C2263.2649 53.767812 2263.3928 50.058348 2263.8768 47.074108L2264.7569 41.648215L2259.6285 36.862229C2256.8078 34.229937 2253.7151 32.059089 2252.7558 32.038122C2250.6277 31.991609 2242.5151 39.801736 2241.5575 42.818926C2241.1767 44.018517 2240.558 44.999386 2240.1826 44.998637C2239.0342 44.996343 2240.1312 56.450064 2241.3545 57.234687C2241.9845 57.638765 2243.6894 57.976265 2245.143 57.984687C2246.5967 57.993109 2248.028 58.630541 2248.3237 59.401201C2249.1405 61.529586 2246.4367 77.889356 2244.4032 83.123264L2242.6069 87.746528L2246.8035 92.514054C2249.1116 95.136193 2251.0 97.668224 2251.0 98.14079C2251.0 100.35559 2248.1448 98.420131 2244.652 93.837606C2240.4856 88.371445 2240.4792 88.286837 2243.458 78.0C2244.334 74.975 2245.3214 69.979151 2245.6523 66.898112L2246.254 61.296225L2242.2066 60.649033C2238.7015 60.088545 2238.0683 59.587451 2237.4799 56.908688C2235.59 48.303777 2241.3632 35.742434 2249.9725 29.727446C2253.4202 27.31866 2254.2071 27.498296 2258.8319 31.75C2261.0754 33.8125 2264.0881 36.507012 2265.5267 37.737804C2267.3689 39.31381 2267.957 40.560083 2267.5152 41.951955C2265.9879 46.76427 2266.7846 55.58439 2269.3033 61.745763C2273.0263 70.853381 2274.2653 78.009318 2273.4451 85.667936C2272.5511 94.015958 2274.0094 93.486759 2277.0462 84.361126C2279.4572 77.116007 2279.3421 71.903758 2276.5961 63.980157C2273.8014 55.916076 2272.5113 44.574515 2273.8721 40.032542C2274.7097 37.236905 2275.6401 36.0 2276.9053 36.0C2277.909 36.0 2279.916 35.067339 2281.3651 33.92742C2283.3697 32.350656 2284.0 30.963142 2284.0 28.12742C2284.0 20.864113 2279.531 20.019961 2272.7373 26.0C2270.238 28.2 2267.5334 30.0 2266.7272 30.0C2265.9209 30.0 2263.0569 28.244869 2260.3627 26.099709C2255.931 22.571138 2252.8915 21.538242 2248.0 21.898572C2247.175 21.959345 2243.35 24.924366 2239.5 28.487508C2235.65 32.05065 2231.9629 34.97361 2231.3065 34.982974C2230.65 34.992338 2228.625 33.17778 2226.8065 30.950621C2222.941 26.216609 2216.9724 22.796907 2212.5938 22.807447C2209.455 22.815003 2199.2885 26.372437 2197.55 28.071518C2195.8289 29.753588 2193.9103 29.047247 2190.5648 25.5C2186.9397 21.65633 2182.253 20.785337 2179.9737 23.531732C2177.8436 26.09828 2180.3607 32.325613 2185.0196 36.015541C2188.5225 38.78985 2188.9991 39.667852 2188.9924 43.334029C2188.9811 49.618272 2187.1267 60.073311 2185.344 63.904076C2181.6342 71.876214 2179.9737 86.392549 2182.1663 91.6849C2183.3174 94.463427 2183.3416 94.435042 2184.0286 89.5C2184.4114 86.75 2186.3202 80.225 2188.2703 75.0C2193.4948 61.001978 2194.2753 57.461152 2194.4057 47.166667L2194.5239 37.833334L2201.2675 32.809654C2209.5233 26.659442 2210.8484 26.80634 2219.231 34.801141C2226.6886 41.913676 2227.983 44.409097 2228.7095 53.075013L2229.2901 60.0L2223.54 60.0L2217.7899 60.0L2218.1714 64.0C2218.3812 66.2 2218.1769 68.0 2217.7174 68.0C2217.2579 68.0 2217.1646 68.45734 2217.5101 69.016312C2217.8555 69.575283 2218.5133 69.800817 2218.9717 69.517499C2219.4301 69.23418 2220.2385 70.245541 2220.7682 71.764967C2221.2979 73.284394 2223.5917 77.183462 2225.8656 80.429564C2228.1395 83.675665 2230.0 87.201832 2230.0 88.26549C2230.0 89.329148 2228.5375 92.616783 2226.75 95.571345C2223.6086 100.76375 2222.0 102.2201 2222.0 99.871727Z M2228.0 101.12861C2228.0 100.64934 2229.7353 98.301767 2231.8562 95.911772L2235.7125 91.566327L2239.3562 95.003209C2241.3603 96.893494 2243.0 98.79107 2243.0 99.220045C2243.0 100.6066 2240.8798 100.05062 2238.2356 97.970676L2235.6557 95.941352L2232.5303 98.970676C2229.3518 102.05136 2228.0 102.69527 2228.0 101.12861Z"/>
</svg>
