<?xml version="1.0" encoding="UTF-8"?>
<svg xmlns="http://www.w3.org/2000/svg" viewBox="306.8 11.26 57.83 92.06">
  <path d="M327.22017 98.327775C325.63808 97.691976 319.0 84.205172 319.0 81.626587C319.0 80.592384 320.8 76.485419 323.0 72.5C327.54598 64.264706 327.82428 62.31762 324.97339 58.693305C321.69296 54.52291 320.0 49.428122 320.0 43.726398C320.0 39.520465 319.44687 37.658189 317.39154 34.94428C311.95674 27.768037 309.42971 19.539808 312.31994 18.430721C313.04591 18.152141 315.32795 19.516264 317.39114 21.462106C319.45434 23.407948 321.44786 24.982922 321.8212 24.962049C322.19454 24.941175 323.73322 23.141175 325.2405 20.962049C329.05584 15.446046 332.42699 15.510206 336.786 21.181785C339.11335 24.209936 340.0 26.416905 340.0 29.181785C340.0 33.42242 337.28143 37.0 334.05902 37.0C331.45582 37.0 330.88559 38.177931 331.64665 41.983242C332.54684 46.484214 334.45554 46.752918 340.88266 43.283473C351.66064 37.465375 355.00556 38.130648 359.49227 46.984744C361.49137 50.929783 362.0 53.420871 362.0 59.266756C362.0 66.495632 361.04799 69.0 358.3 69.0C357.585 69.0 356.99749 68.2125 356.99442 67.25C356.97599 61.465966 352.70241 54.0 349.41002 54.0C348.57838 54.0 347.26535 55.514026 346.49217 57.364502C344.693 61.670511 345.92934 66.540753 350.61452 73.603505C354.38869 79.292941 354.69027 81.620209 352.48945 88.071861C350.26396 94.595811 346.91531 98.425284 344.19185 97.56089C341.70792 96.772523 341.36277 93.834612 343.04321 87.783932C343.90061 84.696742 343.74281 83.416181 342.11072 80.217035C341.03022 78.099078 339.41836 75.762173 338.52881 75.023912C337.12734 73.860792 336.51896 74.136686 333.97107 77.09081C329.92267 81.784689 329.55291 83.905898 331.63289 90.504336C333.38579 96.065177 333.38302 96.246757 331.52476 97.60555C329.4983 99.087337 329.22452 99.133271 327.22017 98.327775Z M330.0 94.467881C330.0 93.625216 329.325 91.32026 328.5 89.345757C326.44197 84.420199 326.48933 84.18358 330.88791 77.414304C335.3067 70.61394 337.82059 68.143573 338.82622 69.61343C347.80829 82.741928 347.3878 81.71175 346.263 87.832802C345.69023 90.949761 345.40924 93.7 345.63858 93.944444C346.55194 94.917972 349.74578 90.261626 350.8508 86.345457C352.20851 81.533756 351.51352 79.032658 346.93265 72.245101C343.21221 66.732459 342.1848 60.477106 344.32124 56.345688C347.93749 49.352629 352.40898 49.428984 356.58516 56.555105C358.04697 59.049487 359.44427 60.889067 359.69027 60.643061C360.64789 59.685442 357.91695 48.601695 355.93207 45.390095C353.35872 41.226312 350.22716 40.976724 344.5 44.478947C337.85361 48.543294 335.74408 49.212918 332.5 48.288094C329.82556 47.525666 329.40098 46.852574 328.58759 42.085684C327.46237 35.491394 328.44343 33.626145 333.07516 33.553624C336.0786 33.506598 336.53997 33.150851 336.82488 30.662347C337.19958 27.389534 332.81613 20.0 330.5 20.0C329.69061 20.0 327.83719 21.8 326.3813 24.0C323.65937 28.113119 320.57662 29.176618 318.21667 26.816667C317.56583 26.165833 316.76765 25.899015 316.44293 26.223736C315.61549 27.051175 318.37908 32.1281 320.89762 34.407348C322.21708 35.601441 322.97383 37.462551 322.92971 39.404988C322.86988 42.039908 322.73167 42.202688 322.0 40.5C321.24404 38.740794 321.13211 38.838197 321.07029 41.309017C321.02945 42.94123 321.41894 43.859116 322.0 43.5C322.59304 43.133482 323.0 44.289453 323.0 46.340494C323.0 48.655637 324.19143 51.567887 326.60384 55.149511C331.46056 62.360101 331.4095 65.351337 326.30268 72.792961C320.53194 81.202028 320.468 81.741703 324.50084 88.001306C326.42538 90.988493 328.0 94.010231 328.0 94.716278C328.0 95.422325 328.45 96.0 329.0 96.0C329.55 96.0 330.0 95.310547 330.0 94.467881Z"/>
</svg>
