<?xml version="1.0" encoding="UTF-8"?>
<svg xmlns="http://www.w3.org/2000/svg" viewBox="1982.86 14.03 39.14 87.43">
  <path d="M1998.8489 92.255505C1996.6846 88.753642 1996.5335 87.473902 1996.5173 72.505505C1996.5078 63.702477 1996.8958 53.054199 1997.3795 48.842665L1998.2591 41.18533L1994.8795 39.475692C1987.3093 35.646077 1984.8601 30.984029 1987.0046 24.486071C1988.2284 20.778057 1992.1387 18.0 1996.1342 18.0C1997.5051 18.0 2000.2289 19.930936 2003.187 23.0C2005.8377 25.75 2008.4171 28.0 2008.9192 28.0C2009.4212 28.0 2011.2576 26.2 2013.0 24.0C2016.789 19.215974 2020.0013 18.642147 2019.9974 22.75C2019.9948 25.534529 2014.4771 35.69396 2010.8113 39.663862C2009.0049 41.620102 2008.89 42.5796 2009.6137 49.663862C2010.725 60.541951 2010.5458 67.0 2009.1327 67.0C2008.6557 67.0 2008.0474 61.0375 2007.7809 53.75L2007.2963 40.5L2010.6269 36.422898C2014.7226 31.409252 2017.7619 24.770409 2015.5777 25.608563C2014.795 25.908904 2013.918 26.771316 2013.6288 27.525034C2013.3395 28.278751 2011.6974 29.62223 2009.9796 30.510542C2006.7044 32.204233 2004.0 31.286407 2004.0 28.481147C2004.0 26.613598 1997.2498 21.0 1995.0042 21.0C1991.7606 21.0 1988.8472 24.984706 1989.5412 28.471603C1990.1075 31.31665 1992.13 33.56273 1998.6813 38.622238L2001.4293 40.744476L2000.2147 51.668309C1998.893 63.554801 1998.6962 82.136653 1999.8246 88.5C2000.3582 91.508874 2001.0032 92.5 2002.4277 92.5C2005.0739 92.5 2006.8275 87.058411 2006.9392 78.5C2006.9895 74.65 2007.5072 70.825 2008.0896 70.0C2009.7818 67.603105 2008.3993 85.699276 2006.4662 91.25C2004.4045 97.169955 2002.0761 97.477309 1998.8489 92.255505Z"/>
</svg>
