<?xml version="1.0" encoding="UTF-8"?>
<svg xmlns="http://www.w3.org/2000/svg" viewBox="969.6 12.49 93.04 89.21">
  <path d="M1007.6605 95.737773C1006.1735 94.647556 1006.105 93.784734 1007.0862 88.5C1009.6665 74.601108 1005.7353 63.594687 998.8114 65.332488C992.42678 66.934926 987.75 76.371909 987.75 87.652616C987.75 91.163738 987.28817 94.3219 986.72372 94.670753C984.47115 96.062914 977.15852 84.551175 975.5007 77.003194C973.82571 69.376995 980.37256 58.643393 989.84298 53.488944C994.52027 50.943242 994.582 50.843424 995.64219 44.110393C996.98918 35.555957 1000.5978 27.600514 1005.3443 22.72141C1010.6641 17.253017 1013.1904 16.548268 1018.7141 18.991681C1021.2112 20.096256 1023.8666 21.0 1024.615 21.0C1025.3634 21.0 1027.6687 22.79926 1029.7379 24.998356C1031.807 27.197452 1034.3352 28.997452 1035.3561 28.998356C1036.3769 28.99926 1038.9615 27.614551 1041.0995 25.921224C1050.6059 18.391948 1058.4042 20.701278 1056.5657 30.501301C1055.9259 33.911784 1050.0804 40.522329 1046.7773 41.570668C1043.977 42.459459 1043.5558 46.705738 1045.3431 56.029369C1046.2544 60.783106 1047.0 66.314751 1047.0 68.321913C1047.0 79.031812 1039.6728 96.0 1035.048 96.0C1032.2404 96.0 1032.1631 95.230544 1034.2758 88.309196C1036.1612 82.132091 1036.2079 81.027406 1034.9817 71.597435C1034.2596 66.043846 1033.5708 57.743733 1033.451 53.152741L1033.2333 44.805481L1028.1873 39.992531C1025.4119 37.345408 1022.1672 34.870446 1020.9767 34.492615C1017.7284 33.461638 1013.8441 37.830655 1011.6161 45.021272L1009.7323 51.101335L1012.8666 54.800667C1018.624 61.59593 1020.3144 65.837158 1020.7182 74.5C1021.0546 81.718164 1020.8178 83.019977 1018.2955 87.82057C1014.976 94.138405 1010.2638 97.646392 1007.6605 95.737773Z M1015.8046 86.422258C1017.8283 82.978057 1018.0564 81.515485 1017.676 74.422471C1017.2085 65.703803 1014.8318 60.372692 1009.5661 56.230648C1006.3917 53.733699 1006.2416 50.107851 1008.9889 42.29136C1011.5813 34.915349 1015.3004 31.0 1019.7143 31.0C1022.3744 31.0 1024.3531 32.170694 1029.4327 36.75L1035.811 42.5L1035.9055 49.917582C1035.9575 53.997253 1036.746 62.521821 1037.6578 68.861067C1038.9403 77.777172 1039.0782 81.53191 1038.2666 85.443485C1037.6896 88.224568 1037.3823 90.676191 1037.5836 90.891535C1038.5125 91.884939 1042.3436 80.75601 1043.3175 74.235145C1044.2486 68.001408 1044.1115 65.473031 1042.3522 56.421186C1041.2245 50.619179 1040.5156 44.753385 1040.777 43.386088C1041.0899 41.749239 1043.029 39.763492 1046.4541 37.57253C1052.214 33.88794 1055.1371 28.98838 1053.2796 26.131756C1051.4566 23.328313 1047.1779 24.62422 1040.676 29.948967C1037.2839 32.727035 1034.2615 35.0 1033.9597 35.0C1033.6579 35.0 1031.7617 32.837344 1029.7459 30.194097C1026.8559 26.404474 1024.6888 24.816485 1019.4976 22.684623C1013.8224 20.353992 1012.5863 20.154788 1010.5371 21.240526C1004.3406 24.523658 999.44651 34.542003 998.28366 46.323601C997.71029 52.13283 997.69578 52.154594 992.40164 55.14242C981.44923 61.32358 976.62824 69.256398 978.81433 77.5C980.3977 83.470802 982.89743 89.0 984.01342 89.0C984.55604 89.0 985.0 86.801676 985.0 84.114835C985.0 73.358506 991.342 62.881601 998.74999 61.400002C1001.4958 60.85084 1002.4468 61.246776 1005.3464 64.146378C1009.2629 68.062929 1011.0 74.357291 1011.0 84.632554C1011.0 92.184166 1012.1643 92.617851 1015.8046 86.422258Z"/>
</svg>
