<?xml version="1.0" encoding="UTF-8"?>
<svg xmlns="http://www.w3.org/2000/svg" viewBox="46.59 12.1 32.83 93.25">
  <path d="M 51.69377,93.25 C 48.589558,86.52869 48.66082,68.061991 51.820962,60.289849 53.828285,55.352983 53.85632,54.854686 52.355459,50.789849 50.364322,45.397182 50.067711,27.111329 51.884409,21.75 53.717005,16.341753 55.287446,16.976906 54.356951,22.75 53.008808,31.114323 53.504265,43.408534 55.448236,49.829035 L 57.280607,55.880946 54.944651,61.63637 C 51.693639,69.646349 51.629352,84.229243 54.813624,91.358685 56.007161,94.030962 56.735804,96.618462 56.432829,97.108685 55.26132,99.004226 53.802899,97.816736 51.69377,93.25 z M 61.575052,96.145134 C 58.049483,89.327435 57.764266,69.574332 61.056501,60.232121 61.974051,57.628435 61.867247,55.246436 60.531015,48.512504 59.124759,41.425683 59.036523,38.804269 59.984645,32.280383 61.444278,22.236868 62.806954,18 64.577552,18 66.319194,18 66.33782,17.535486 64.334227,24.068499 62.102807,31.344374 62.15566,44.951396 64.440357,51.39197 66.029641,55.872171 66.04492,56.587637 64.621876,59.89197 62.595833,64.596476 60.927096,74.313393 61.551028,77.773259 61.821476,79.272966 62.204638,82.3 62.402499,84.5 62.905314,90.090756 64.099533,94.943481 65.129162,95.579826 65.608123,95.875841 66,96.766476 66,97.559017 66,100.04824 63.117074,99.127077 61.575052,96.145134 z M 70.47118,94.252865 C 68.118304,86.159259 68.093893,71.108584 70.421801,63.808909 71.889025,59.208101 72.02247,57.503213 71.118361,54.909686 68.683087,47.923855 70.379546,26.76488 73.902737,20.181737 75.453104,17.284849 77.421381,17.334717 76.597042,20.25 72.838019,33.543815 71.990042,46.647067 74.5,52.654243 76.417487,57.243434 76.386711,58.917543 74.308268,63.083882 71.668184,68.376054 71.41511,80.914296 73.750268,90.729254 74.827108,95.255344 75.473823,99.192844 75.187412,99.479254 73.553508,101.11316 71.948443,99.334474 70.47118,94.252865 z"/>
</svg>
