<?xml version="1.0" encoding="UTF-8"?>
<svg xmlns="http://www.w3.org/2000/svg" viewBox="2170.08 18.25 31.92 82.5">
  <path d="M2179.6471 90.280858C2176.5412 86.58533 2174.0 83.075158 2174.0 82.480476C2174.0 81.885793 2176.228 78.899475 2178.9511 75.844212L2183.9022 70.28919L2179.1459 65.894595C2172.0815 59.367351 2172.0917 59.482617 2178.0443 53.455111L2183.3274 48.105565L2179.8069 43.802782C2175.2114 38.186022 2174.6274 36.096262 2176.7637 32.911814C2180.533 27.293142 2185.7879 22.0 2187.5967 22.0C2189.6832 22.0 2200.0 34.299573 2200.0 36.787055C2200.0 37.597802 2198.425 40.453425 2196.5 43.132885C2194.575 45.812344 2193.0 48.254975 2193.0 48.560953C2193.0 48.866931 2194.3865 50.842615 2196.0812 52.951362C2199.0244 56.613883 2199.0949 56.913302 2197.6566 59.642724C2196.8284 61.214226 2194.9919 64.049926 2193.5754 65.94428C2192.1589 67.838633 2191.0 70.0129 2191.0 70.775983C2191.0 71.539066 2192.575 74.085486 2194.5 76.434695C2196.425 78.783904 2198.0 81.463608 2198.0 82.389594C2198.0 84.454154 2188.0973 97.0 2186.4677 97.0C2185.8223 97.0 2182.753 93.976386 2179.6471 90.280858Z M2186.3282 80.75C2186.7953 75.464408 2186.6327 74.0 2185.5787 74.0C2184.1223 74.0 2177.0 81.414021 2177.0 82.930077C2177.0 83.43845 2178.6721 85.232687 2180.7158 86.917271C2185.1345 90.559558 2185.4964 90.161927 2186.3282 80.75Z M2187.3697 64.75C2188.3981 60.912555 2188.0831 51.0 2186.9327 51.0C2185.0692 51.0 2178.0368 57.431496 2178.018 59.153005C2178.002 60.618917 2184.5053 66.880281 2186.1334 66.96647C2186.4817 66.984911 2187.0381 65.9875 2187.3697 64.75Z M2187.9259 39.75C2187.8851 36.3125 2187.5476 31.517999 2187.1759 29.095552L2186.5 24.691105L2182.75 29.509662C2180.6875 32.159868 2179.0 35.153073 2179.0 36.161229C2179.0 38.056762 2185.5527 46.0 2187.1164 46.0C2187.6024 46.0 2187.9666 43.1875 2187.9259 39.75Z M2192.3813 87.566722C2195.6243 83.314987 2195.6836 80.990795 2192.6224 78.115005L2190.2448 75.881382L2189.6885 79.190691C2187.4445 92.538305 2187.784 93.59414 2192.3813 87.566722Z M2194.4776 60.739181L2196.4551 57.113355L2193.9816 54.480441L2191.5081 51.847526L2190.8537 54.173763C2190.4938 55.453193 2190.1545 58.45 2190.0997 60.833333C2189.979 66.081644 2191.5825 66.047157 2194.4776 60.739181Z M2197.0 37.132165C2197.0 35.09657 2191.91 28.655233 2191.0997 29.665411C2190.7315 30.124435 2190.6028 33.875 2190.8136 38.0L2191.1969 45.5L2194.0984 42.037774C2195.6943 40.13355 2197.0 37.926026 2197.0 37.132165Z"/>
</svg>
