<?xml version="1.0" encoding="UTF-8"?>
<svg xmlns="http://www.w3.org/2000/svg" viewBox="378.22 9.75 92.11 93.42">
  <path d="M404.62442 95.549552C403.74135 94.201806 402.50367 91.164306 401.87403 88.799552C400.82313 84.852676 400.98641 83.896721 403.86461 77.145291C405.58908 73.100201 407.0 68.467246 407.0 66.849836C407.0 63.334299 403.07412 59.0 399.88985 59.0C396.59692 59.0 391.63219 63.271644 389.54464 67.901001C387.38918 72.680973 386.73656 72.911993 385.16052 69.452947C382.40303 63.400923 385.04702 54.617398 390.82494 50.635328C394.35752 48.200725 402.98368 45.526602 403.01531 46.856297C403.06329 48.8733 404.972 44.050563 404.98469 41.880272C405.00954 37.628927 408.82328 26.920476 411.61697 23.257763C415.60253 18.032422 421.76304 14.0 425.76047 14.0C428.6893 14.0 430.43725 15.144294 437.13939 21.449187L445.05792 28.898373L448.27896 27.046091C450.05053 26.027336 452.94996 24.892202 454.72212 24.523572C462.32428 22.94224 466.13708 34.016764 460.07692 40.076923C458.46923 41.684615 456.46006 43.0 455.61211 43.0C452.01668 43.0 450.98244 49.864475 453.50195 57.005524C457.93179 69.561025 450.61546 94.294847 441.58085 97.306383C437.18059 98.773138 436.81089 96.605538 440.18293 89.110168C443.33543 82.102803 444.14048 73.129899 442.09856 67.759227C440.30452 63.04056 439.74062 53.436394 440.93203 47.891338C442.03096 42.776649 441.97263 42.405405 439.7952 40.656522C438.53284 39.642608 435.69795 37.167608 433.49545 35.156522C426.37523 28.655107 426.59542 28.743804 423.54081 31.146555C420.73149 33.356373 417.80134 39.075036 416.54311 44.803736C416.02995 47.140124 416.40598 49.207193 417.90895 52.311924C419.04963 54.66824 420.24375 58.599505 420.56256 61.048067C421.06542 64.910163 420.60284 66.551221 417.07111 73.434337C412.65981 82.031691 412.19458 85.136604 414.49336 90.638353C415.31471 92.604116 415.73815 94.614663 415.43434 95.106234C414.21011 97.087087 412.08812 95.797047 410.96302 92.387935C409.0224 86.507813 410.19333 79.314334 414.44711 70.983704C418.09293 63.843727 418.21475 63.298159 417.09941 59.105476C416.45644 56.688488 415.03397 53.452075 413.93837 51.913447L411.94637 49.115942L414.49884 41.810212C417.63989 32.81984 421.60547 27.611192 425.61929 27.203894C427.965 26.965867 429.90666 28.092994 435.51867 32.950449C439.3584 36.273912 443.29354 38.99466 444.26342 38.996555C445.88686 38.999727 445.91202 39.274792 444.58043 42.461749C441.86816 48.953128 441.71079 54.1858 443.90883 64.793079C445.05897 70.343412 445.99513 76.148061 445.98918 77.692297C445.97928 80.260203 444.35832 86.508848 442.40732 91.5C441.70052 93.308186 441.79436 93.362556 443.38586 92.066898C447.27065 88.904232 452.0084 75.566089 451.98918 67.846093C451.98322 65.455742 451.30822 61.290981 450.48918 58.591069C448.68845 52.655154 448.58455 46.790914 450.20089 42.320998C451.22702 39.483276 451.87675 39.0 454.6657 39.0C459.86722 39.0 462.0701 32.183392 458.0456 28.541267C455.79966 26.508721 452.1584 27.326898 446.95247 31.033848L443.99338 33.1409L436.48398 25.85309C432.35381 21.844794 428.28811 18.181112 427.44909 17.711574C423.4725 15.48616 415.40269 20.29891 412.08294 26.875791C409.41344 32.164428 407.0 41.199214 407.0 45.903907L407.0 50.0L401.22251 50.0C395.28272 50.0 392.19983 51.361467 388.83803 55.469243C387.32029 57.323773 385.44752 64.780857 386.28836 65.621692C386.48344 65.816771 388.97187 63.731695 391.81821 60.98819C395.9399 57.01541 397.67906 56.0 400.36182 56.0C408.09899 56.0 412.13957 64.586586 408.5122 73.320281C403.68301 84.947646 403.71287 84.693081 406.47133 90.718344C407.8621 93.756182 409.0 96.637307 409.0 97.120843C409.0 98.927717 406.17261 97.912389 404.62442 95.549552Z"/>
</svg>
