<?xml version="1.0" encoding="UTF-8"?>
<svg xmlns="http://www.w3.org/2000/svg" viewBox="2302.3 15.55 24.33 90.32">
  <path d="M 2324 64.3125 L 2323.7812 57.78125 C 2322.8906 56.163619 2322.8082 54.611431 2323.6562 54.21875 L 2323.4688 47.53125 C 2322.2513 46.061694 2321.8423 44.582998 2321.4375 41.34375 C 2320.2234 31.626086 2315.9711 24.551938 2309.25 21.09375 C 2306.4508 19.65351 2305.4723 21.372061 2306.375 26.25 C 2308.5615 38.0646 2309.0233 43.044801 2309.0312 55.625 C 2309.0403 69.83214 2308.3549 76.819917 2305.5625 91.375 C 2304.7308 95.710347 2304.2988 99.647845 2304.5938 100.125 C 2305.6044 101.76025 2307.079 100.99466 2308.7812 97.96875 C 2311.3162 93.462808 2314.3413 93.11533 2318.2188 96.90625 C 2321.9698 100.57361 2324.6244 100.60901 2324.2188 96.96875 C 2323.7456 92.723544 2322.9286 64 2323.2812 64 C 2323.3108 64 2323.8832 64.269249 2324 64.3125 z M 2309.2188 26.15625 C 2309.6644 25.49594 2311.7809 27.092505 2313.6875 29.90625 C 2318.2718 36.671455 2319.2897 42.962735 2319.9062 68.34375 C 2320.2248 81.459865 2320.275 92.339897 2320 92.5 C 2319.725 92.660103 2318.5352 92.154489 2317.375 91.375 C 2315.7593 90.289456 2314.6288 90.190659 2312.5 91 C 2310.9715 91.581159 2309.6204 91.934138 2309.5 91.78125 C 2309.3796 91.628362 2309.6679 88.35 2310.125 84.5 C 2312.4743 64.710568 2312.0855 34.53685 2309.4062 27.625 C 2309.1136 26.870087 2309.0702 26.376353 2309.2188 26.15625 z "/>
</svg>
