<?xml version="1.0" encoding="UTF-8"?>
<svg xmlns="http://www.w3.org/2000/svg" viewBox="2466.85 14.19 109.06 84.78">
  <path d="M2491.1901 87.251563C2491.3753 86.289922 2493.2272 84.702483 2495.3054 83.723921C2497.3836 82.745358 2499.3549 81.238731 2499.686 80.375861C2500.8369 77.376588 2493.2623 60.736472 2490.4847 60.162347C2486.3961 59.317221 2481.0193 68.633627 2480.5811 77.322559C2480.2943 83.007998 2478.0581 84.845538 2476.0323 81.06033C2475.4258 79.927149 2474.2126 79.0 2473.3363 79.0C2471.9747 79.0 2471.8094 77.853204 2472.1997 71.111326C2472.7354 61.857447 2476.1001 53.875353 2481.4423 49.184792C2485.0828 45.988374 2486.8569 45.968338 2496.7564 49.011841C2499.0975 49.73157 2501.3154 50.017936 2501.6851 49.648211C2502.4864 48.846933 2502.2762 37.44555 2501.4098 34.715828C2500.8877 33.070807 2500.1865 32.894902 2496.4092 33.461344C2492.487 34.049522 2491.7469 33.829994 2489.5079 31.41406C2485.1374 26.698192 2486.6113 20.415677 2492.5075 18.627844C2494.0027 18.174493 2495.2215 18.904498 2497.283 21.487978C2501.8957 27.268995 2503.4208 27.583156 2507.1228 23.514933C2510.9333 19.327573 2512.0916 19.205337 2516.4512 22.530538L2519.7689 25.061077L2524.9244 21.856218C2529.4835 19.022144 2530.2517 18.82313 2531.5646 20.136051C2532.3812 20.95263 2533.3127 23.845052 2533.6347 26.563654C2534.1163 30.630134 2533.8552 31.949264 2532.1618 34.003284L2530.1035 36.5L2526.0885 34.353224C2523.1603 32.787542 2521.832 32.516859 2521.1811 33.353224C2518.9666 36.198777 2516.8164 51.689465 2518.7547 50.833333C2519.1698 50.65 2521.6585 49.646105 2524.2853 48.602456L2529.0612 46.704911L2533.4441 49.852456C2535.8547 51.583605 2538.3095 53.0 2538.8993 53.0C2540.737 53.0 2544.7553 45.782478 2546.5418 39.272772C2548.2247 33.140626 2548.2162 32.960309 2545.985 27.463125C2542.7026 19.375814 2544.8474 18.040247 2548.401 25.958688C2551.1036 31.980846 2551.1081 32.029853 2549.5304 38.252474C2547.3088 47.014913 2543.0971 55.012597 2540.1052 56.150121C2538.0857 56.917922 2536.8816 56.535866 2533.3676 54.012287C2528.6775 50.64415 2526.1693 50.656103 2520.4705 54.073746C2518.8043 55.073003 2516.9539 55.577697 2516.3586 55.195288C2514.3475 53.903374 2514.2566 47.544992 2516.1198 38.5C2517.1395 33.55 2517.9796 29.193142 2517.9869 28.818094C2517.9941 28.443046 2516.6619 27.183359 2515.0264 26.018789C2511.575 23.561215 2509.3822 24.241516 2506.4805 28.670056C2504.9742 30.969037 2504.7146 33.261154 2504.9015 42.612981C2505.045 49.794524 2504.7374 54.044255 2504.0431 54.473378C2503.448 54.841185 2500.3823 54.250705 2497.2305 53.161199C2486.4184 49.423689 2484.9248 49.438125 2481.1722 53.316398C2479.342 55.207995 2477.3641 58.498141 2476.7769 60.627833C2475.2354 66.218771 2475.2194 75.22678 2476.75 75.744147C2477.4375 75.976533 2478.0 75.402063 2478.0 74.467547C2478.0 70.843237 2481.6412 62.77494 2484.5 60.064728C2488.67 56.111411 2491.171 55.56007 2494.1838 57.929935C2497.1677 60.277063 2504.3183 76.717865 2503.8356 80.121657C2503.6042 81.753857 2501.8065 83.499146 2498.0442 85.744277C2491.8137 89.46233 2490.7179 89.703309 2491.1901 87.251563Z M2496.9602 29.045737C2498.2061 28.257723 2498.1326 27.782752 2496.4602 25.81105C2493.4931 22.312895 2492.6299 21.942488 2491.0727 23.499224C2489.9342 24.637327 2489.8793 25.439578 2490.8012 27.46306C2491.987 30.065612 2494.3769 30.679745 2496.9602 29.045737Z M2513.1336 91.981809C2508.2938 88.475876 2508.2358 88.468883 2505.0 91.0C2502.2878 93.121492 2500.0 93.584797 2500.0 92.012545C2500.0 90.678773 2507.5299 86.0 2509.6764 86.0C2511.9901 86.0 2519.0 90.944868 2519.0 92.576984C2519.0 95.11218 2517.2033 94.929896 2513.1336 91.981809Z M2521.0 88.137505C2521.0 87.663132 2519.65 85.576255 2518.0 83.5C2516.35 81.423745 2515.0 78.717862 2515.0 77.486926C2515.0 73.85416 2519.6449 64.424467 2522.5663 62.126508C2525.9437 59.469823 2527.6087 59.464091 2531.9231 62.09429C2537.9737 65.782953 2539.6225 66.084744 2542.2846 63.990785C2544.9627 61.884191 2552.9275 46.24194 2555.5904 37.85922C2557.3293 32.385134 2560.4151 28.0 2562.5283 28.0C2563.1771 28.0 2564.9487 26.850077 2566.4653 25.444616C2567.9818 24.039154 2569.4386 23.105242 2569.7026 23.369255C2570.9524 24.619092 2568.6035 27.754043 2564.6098 30.166354C2561.2913 32.170771 2560.0149 33.660042 2559.4673 36.166282C2559.0667 37.999827 2556.9976 43.221148 2554.8694 47.769218C2552.7413 52.317288 2551.0 56.391687 2551.0 56.823438C2551.0 57.255188 2549.6056 59.80721 2547.9013 62.494597L2544.8026 67.380756L2547.3238 69.21733C2553.7193 73.87611 2554.539 74.818396 2553.2961 76.08289C2552.3487 77.046867 2551.3902 76.780072 2548.7961 74.830256C2542.9101 70.40611 2542.1162 70.460748 2536.8449 75.652744C2531.0771 81.333827 2529.3029 80.800654 2534.3508 74.90325C2536.3245 72.59744 2537.7278 70.368563 2537.4692 69.95019C2537.2106 69.531816 2534.9387 67.982027 2532.4204 66.506214C2526.3691 62.959938 2523.5146 63.651974 2520.9573 69.285288C2518.3582 75.010513 2518.5105 78.629542 2521.5 82.182369C2524.2849 85.492042 2524.7994 89.0 2522.5 89.0C2521.675 89.0 2521.0 88.611877 2521.0 88.137505Z M2530.2608 30.75C2530.8793 29.121767 2529.9695 23.0 2529.109 23.0C2527.6365 23.0 2524.0 26.202998 2524.0 27.5C2524.0 28.799958 2527.6377 32.0 2529.1155 32.0C2529.4843 32.0 2529.9997 31.4375 2530.2608 30.75Z M2538.0785 82.25C2540.0503 79.64251 2542.2194 78.0 2543.6911 78.0C2545.9242 78.0 2545.1301 80.000049 2542.5 81.0C2541.125 81.522774 2540.0 82.411636 2540.0 82.975249C2540.0 83.538862 2539.2699 84.0 2538.3776 84.0C2536.9949 84.0 2536.9507 83.74136 2538.0785 82.25Z M2552.1841 24.113845C2549.6359 19.579887 2549.5392 19.0 2551.331 19.0C2552.0631 19.0 2553.2641 20.125 2554.0 21.5C2555.6218 24.53033 2557.3566 24.651223 2560.7636 21.97132C2562.5034 20.602811 2563.672 20.271968 2564.3547 20.954653C2564.9113 21.511261 2565.1717 22.109259 2564.9333 22.283538C2564.695 22.457818 2563.003 23.815318 2561.1733 25.300205C2556.6587 28.964026 2554.77 28.714766 2552.1841 24.113845Z"/>
</svg>
