<?xml version="1.0" encoding="UTF-8"?>
<svg xmlns="http://www.w3.org/2000/svg" viewBox="1561.16 12.24 100.41 89.26">
  <path d="M1600.0 93.196167C1600.0 92.204059 1601.575 89.865783 1603.5 88.0C1607.3464 84.271891 1607.4899 83.477185 1605.932 74.530899C1604.3586 65.495788 1604.0232 65.2103 1598.669 68.348079C1591.9397 72.291707 1587.9574 71.9364 1583.7463 67.016666C1580.7593 63.527092 1580.1171 63.193883 1578.5653 64.328558C1576.8195 65.605142 1576.5387 69.234237 1577.2829 80.904822C1577.5793 85.553463 1575.6338 85.887048 1571.8365 81.838657C1566.812 76.481761 1565.7212 72.797793 1566.5126 63.85775C1567.6951 50.498855 1574.6419 42.796588 1580.1857 48.697676C1582.8564 51.540494 1590.253 55.0 1593.6604 55.0C1594.9837 55.0 1598.2838 53.8764 1600.9939 52.50311C1605.1602 50.391852 1606.0887 49.384397 1607.0054 45.980037C1608.1873 41.590529 1607.7362 40.0 1605.309 40.0C1603.2762 40.0 1596.9916 36.135397 1594.7833 33.527414C1592.2486 30.534054 1592.5105 24.124078 1595.3105 20.625C1598.7732 16.297677 1602.1799 16.767372 1607.8519 22.354171L1612.5264 26.958342L1615.5132 25.337196C1622.866 21.346341 1626.4796 19.796426 1629.6198 19.286848C1632.7421 18.780167 1633.1051 19.007234 1634.4966 22.337593C1636.0263 25.998795 1636.4613 33.676762 1635.3697 37.75C1634.5545 40.792097 1632.0463 40.583602 1629.3548 37.25C1626.5536 33.780481 1624.4562 34.75745 1621.25 41.025243C1618.2846 46.822298 1618.2766 51.542459 1621.2294 53.122752C1622.4555 53.778968 1624.1042 54.961318 1624.8931 55.750198C1626.8222 57.679301 1630.5541 56.816185 1636.6389 53.033661C1643.2203 48.942456 1648.4693 48.681694 1651.5745 52.291685C1653.8149 54.896374 1657.0 63.987756 1657.0 67.778181C1657.0 69.639562 1655.0288 76.098786 1653.1175 80.5C1652.6399 81.6 1651.7365 83.772847 1651.1102 85.32855C1649.3008 89.822463 1647.5178 88.04242 1647.356 81.580562C1647.1792 74.52308 1645.1759 67.004719 1643.278 66.276441C1642.4531 65.959888 1640.6919 67.140053 1639.0382 69.117478C1636.0278 72.717166 1636.3514 72.702851 1628.882 69.56668C1627.7164 69.077285 1626.6821 69.873651 1625.1827 72.414873C1622.0103 77.791817 1621.4796 82.31051 1623.5993 85.898883C1625.9961 89.956244 1624.4533 91.224286 1621.4149 87.694236C1618.3208 84.099374 1618.3436 80.2636 1621.4988 73.594169C1624.941 66.317888 1627.2524 64.338329 1630.5511 65.841336C1634.4237 67.605783 1635.9021 67.26979 1638.6535 64.0C1643.4536 58.295371 1647.3071 61.127419 1649.026 71.622919C1649.5553 74.855313 1650.0253 77.725 1650.0703 78.0C1650.1153 78.275 1650.7587 76.925 1651.5 75.0C1654.1508 68.116635 1652.8392 59.076459 1648.6138 55.106953C1646.4597 53.083244 1645.8245 52.970158 1642.1578 53.957511C1639.921 54.55981 1636.7377 56.19126 1635.0838 57.582953C1631.0465 60.980074 1626.1131 61.720117 1623.5 59.320589C1622.4 58.310498 1620.2116 56.656408 1618.6368 55.644832C1615.9389 53.911724 1615.7973 53.478612 1616.1836 48.138337C1617.0252 36.503222 1623.6852 28.598066 1629.4589 32.381124C1633.0143 34.710708 1633.3262 34.46893 1632.7084 29.862417C1631.6339 21.851885 1628.2182 21.252789 1619.1572 27.485654C1616.3472 29.418544 1613.2329 31.0 1612.2365 31.0C1611.2401 31.0 1608.2086 28.75 1605.5 26.0C1602.7914 23.25 1600.0509 21.0 1599.41 21.0C1597.8178 21.0 1596.2895 22.998384 1595.5117 26.097261C1594.6018 29.722585 1598.8851 34.606727 1604.3237 36.145478C1610.7939 37.976089 1611.2027 38.657079 1609.8563 45.361363C1609.0893 49.180406 1607.9862 51.631784 1606.5984 52.601438C1601.3173 56.29109 1597.0389 58.852893 1595.1641 59.447905C1592.7203 60.223552 1581.3953 55.19929 1578.5831 52.091814C1574.2129 47.262815 1570.5111 50.865981 1568.8445 61.570911C1567.6643 69.151309 1568.8192 74.621428 1572.2565 77.732151C1574.1457 79.441876 1574.195 79.405863 1573.945 76.496603C1573.5221 71.575183 1575.1021 64.139899 1577.1144 61.581666C1579.5269 58.514639 1582.2401 59.154499 1585.8137 63.633267C1589.0955 67.746266 1592.2403 67.985507 1598.5902 64.605225C1606.3397 60.479842 1607.4168 61.713786 1609.9954 77.671621C1611.1246 84.659462 1610.4104 89.0 1608.1315 89.0C1607.6925 89.0 1606.0208 90.3375 1604.4167 91.972222C1601.0337 95.419578 1600.0 95.70605 1600.0 93.196167Z M1607.0 95.674314C1607.0 93.585236 1611.2941 90.091188 1614.6982 89.410367C1617.3064 88.888717 1618.413 89.352772 1621.6501 92.325712C1625.1296 95.521309 1625.3154 95.932737 1623.5816 96.602347C1622.3973 97.05972 1620.5486 96.703561 1618.7505 95.671616C1615.1367 93.597571 1611.6359 93.528911 1610.0 95.5C1608.4601 97.355412 1607.0 97.440254 1607.0 95.674314Z"/>
</svg>
