<?xml version="1.0" encoding="UTF-8"?>
<svg xmlns="http://www.w3.org/2000/svg" viewBox="2320.42 15.9 67.08 78.12">
  <path d="M 2362,19.9375 C 2360.2296,19.451107 2358.6591,19.995686 2357.0312,21.46875 2352.4417,25.622287 2353.6781,33.324536 2359.9062,39.40625 2363.419,42.836257 2363.6748,43.463302 2362.9688,46.59375 2362.1359,50.28618 2359.4368,55 2358.1562,55 2357.726,55 2355.8637,53.875 2354,52.5 2349.7466,49.36197 2347.4955,49.36197 2341.5938,52.5 2339.0077,53.875 2335.9396,55 2334.7812,55 2333.6229,55 2330.3026,53.217931 2327.4062,51.03125 2325.3918,49.510312 2324.2897,48.522247 2323.4688,47.53125 L 2323.6562,54.21875 C 2323.776,54.163308 2323.8073,54 2323.9688,54 2324.4943,54 2326.6318,55.14626 2328.7188,56.5625 2332.8587,59.371964 2336.8667,59.326598 2340.0938,56.40625 2341.0495,55.541172 2343.5855,54.598621 2345.7188,54.3125 2348.7955,53.899809 2350.3923,54.33973 2353.4375,56.40625 2355.5487,57.838981 2357.6512,59 2358.0938,59 2359.9041,59 2363.8577,54.218803 2365.375,50.21875 2367.9855,43.33707 2367.5561,41.540621 2361.9375,36.125 2357.5879,31.932517 2356.9114,30.756829 2357.1875,27.96875 2357.3783,26.04192 2358.3597,24.15811 2359.5938,23.34375 2361.4378,22.1268 2361.9595,22.247882 2364.1562,24.25 2365.5204,25.493302 2367.403,27.7375 2368.3438,29.25 2370.5815,32.847711 2371.8022,32.717167 2376.875,28.375 2379.2003,26.384631 2381.2692,24.956663 2381.5,25.1875 2382.7529,26.440331 2379.1514,33.579527 2375.8125,36.4375 2372.6073,39.18102 2372,40.323776 2372,43.625 2372,47.717719 2369.2576,53.90372 2365.75,57.71875 2363.7397,59.90533 2363.7142,60.046776 2365.4688,63.9375 2367.6057,68.67676 2367.0944,72.295445 2363.5625,77.5 2360.8748,81.460582 2359.8409,85.669106 2360.5938,88.625 L 2364.25,88.0625 C 2363.7007,87.720566 2363.6012,86.889184 2363.7188,84.84375 2363.8351,82.8182 2365.2923,78.943467 2366.9688,76.21875 2370.3591,70.708821 2370.499,69.824162 2368.875,63.75 2367.8233,59.816168 2367.9214,59.193658 2370.3438,55.625 2372.8202,51.976606 2374.9876,46.168441 2375,43.125 2375.0031,42.372608 2376.4062,40.176358 2378.125,38.21875 2379.8438,36.261141 2381.8688,33.153585 2382.625,31.34375 2384.2932,27.351235 2384.4519,21 2382.875,21 2382.249,21 2379.7013,22.86802 2377.2188,25.15625 L 2372.6875,29.3125 2368.1875,24.53125 C 2365.7404,21.941256 2363.7704,20.423893 2362,19.9375 z M 2348.9062,90.46875 2353,89.84375 C 2353.1508,88.17448 2353.8836,85.974773 2355.4688,82.21875 2357.5799,77.216285 2357.9886,75.028904 2357.4688,71.5625 2355.7658,60.206797 2347.2594,55.916923 2339.8125,62.65625 2336.5703,65.590398 2330.3306,64.315029 2325.25,59.6875 2324.6381,59.130141 2324.1593,58.467967 2323.7812,57.78125 L 2324,64.3125 C 2324.613,64.539444 2325.8377,65.076081 2327.75,66 2333.5355,68.795246 2337.0445,68.540798 2341.5,65 2345.8574,61.537187 2345.1686,61.749667 2348.375,62.96875 2351.1094,64.008366 2353.3488,67.61412 2354.4688,72.8125 2355.0167,75.356451 2354.5765,77.351174 2352.5312,81.53125 2351.0708,84.51668 2349.4673,88.386833 2348.9688,90.125 2348.9299,90.260536 2348.9401,90.342896 2348.9062,90.46875 z"/>
</svg>
