<?xml version="1.0" encoding="UTF-8"?>
<svg xmlns="http://www.w3.org/2000/svg" viewBox="819.11 10.37 86.83 96.25">
  <path d="M850.79827 99.638443C847.09132 97.993171 843.3911 94.35842 841.99709 90.992973C840.98152 88.541162 841.23726 87.312504 844.00598 81.34175C847.75819 73.250098 848.34353 66.455582 845.46946 64.354012C841.10989 61.166217 832.43569 63.918897 829.46646 69.432418C827.38809 73.291723 825.41605 74.037508 824.66033 71.25C823.06338 65.35959 823.05994 63.675936 824.63806 60.350293C826.85491 55.678632 834.50085 50.057365 838.68261 50.024791C842.1858 49.997503 842.42995 49.564357 843.4877 41.5C844.57284 33.226885 845.07023 31.8134 846.48357 32.986368C847.41085 33.755941 847.50106 35.258567 846.83037 38.763243C846.33182 41.36846 845.82853 45.485572 845.71195 47.912382L845.5 52.324764L839.27929 53.593602C832.21601 55.0343 828.72166 57.249747 827.21444 61.242837C825.96302 64.558239 826.74563 64.672645 831.49753 61.868959C834.02834 60.375742 836.72782 59.75246 840.51677 59.786507C847.03969 59.84512 847.62291 60.161745 849.50495 64.666084C851.13589 68.569473 850.36976 73.498675 846.83677 81.832905C844.34009 87.722521 844.4898 88.933867 848.25 93.267424C851.82633 97.389075 853.71616 98.206677 851.92325 94.856585C849.79642 90.882573 851.27727 83.002449 855.23103 77.254687C857.2154 74.369935 859.12768 70.69516 859.48056 69.08852C860.47878 64.543659 858.36604 58.431429 854.84413 55.675114C851.95224 53.411869 851.7827 52.934759 852.40225 48.803296C853.19071 43.545473 857.97792 33.022079 860.91944 30.080564C864.31378 26.686219 869.22092 27.332041 875.79275 32.038023L881.43178 36.076046L881.55775 46.288023C881.63047 52.182736 882.23372 57.768294 882.98468 59.5C883.7002 61.15 884.31399 66.325 884.34865 71.0C884.40139 78.113389 883.9545 80.612555 881.60919 86.320025C880.06783 90.071039 879.00935 93.342687 879.25702 93.590353C879.90032 94.233651 884.28776 87.375731 886.99198 81.5C889.82315 75.348434 890.45499 62.677325 888.41314 53.0C886.71018 44.928878 886.61949 37.780507 888.2 36.2C888.86 35.54 890.45545 35.0 891.74545 35.0C895.0901 35.0 899.0 30.731789 899.0 27.080638C899.0 21.120923 892.81014 20.856484 885.41098 26.500098L882.14394 28.991996L879.32197 26.636692C874.00691 22.200574 869.78012 20.603266 863.21675 20.550507C857.07068 20.501103 856.8467 20.593951 852.9576 24.803363C848.41537 29.719705 845.53716 29.605082 849.2671 24.656391C855.54848 16.322582 867.68552 14.748453 877.77829 20.958596L883.02157 24.184823L886.76079 21.966602C894.41378 17.426604 902.0 19.785247 902.0 26.704647C902.0 31.839008 899.55468 35.610581 894.89201 37.667746L890.75361 39.493602L891.62681 47.496801C892.10706 51.89856 892.46212 60.675 892.41583 67.0C892.33751 77.700862 892.11507 78.960013 889.2149 85.119814C885.04805 93.969975 877.66096 100.06096 874.69342 97.093423C873.88642 96.286421 874.34521 94.493062 876.39362 90.447607C880.62988 82.081262 882.21827 74.061609 881.00112 67.184685C878.50263 53.068173 877.8498 47.218177 878.35552 43.477589C879.0037 38.683341 878.6557 38.03423 873.61045 34.626856C867.72494 30.652 864.75359 31.093346 861.11639 36.482644C859.45248 38.948098 857.38799 43.036234 856.52864 45.567392L854.96618 50.169496L858.06187 54.078115C864.09661 61.697596 864.24701 69.485772 858.54314 79.0C853.89868 86.747093 853.53493 88.493704 855.49635 93.629627C858.09191 100.42599 856.67005 102.24454 850.79827 99.638443Z"/>
</svg>
