<?xml version="1.0" encoding="UTF-8"?>
<svg xmlns="http://www.w3.org/2000/svg" viewBox="525.74 12.26 29.73 87.03">
  <path d="M 545.84375 88.34375 L 548.21875 83.5625 C 547.94756 83.015377 548.04359 82.765017 548.5625 82.875 L 550.84375 78.34375 C 550.0284 76.456352 550.18159 73.956475 551.46875 63.84375 C 553.47851 48.053778 553.3419 19.000846 551.25 19 C 550.30768 18.999619 550 22.551111 550 33.4375 C 550 41.380041 549.59462 48.127942 549.09375 48.4375 C 548.59287 48.747058 546.86896 47.20144 545.25 45 C 542.45693 41.202004 542.27838 40.46628 542.15625 30.4375 C 542.08546 24.624496 541.75989 19.427877 541.4375 18.90625 C 539.77603 16.217922 539.02017 20.322337 539.1875 31.0625 C 539.37289 42.962675 539.36844 43.005991 536.5 46 C 534.91708 47.652217 533.2884 49 532.875 49 C 531.81304 49 530.05478 31.778695 530 20.75 C 529.99249 19.2375 529.55 18 529 18 C 527.74394 18 527.75187 27.824019 529 43.5 C 530.70279 64.886236 533.19135 79.743781 535.9375 84.875 C 536.52779 85.977962 537.01295 87.688842 537.03125 88.6875 C 537.07299 90.965674 540.63862 95.338558 541.84375 94.59375 C 542.3375 94.288595 543.31166 92.69305 544 91.03125 C 544.55163 89.699493 545.26769 88.743132 545.84375 88.34375 z M 540.59375 47 C 541.13958 47 543.48006 48.732919 545.8125 50.84375 C 548.75689 53.508383 549.88034 55.189737 549.4375 56.34375 C 548.53876 58.685834 546.53525 58.39986 543.40625 55.5 L 540.71875 53 L 537.5 55 C 533.53254 57.452023 533 57.47085 533 55.1875 C 533 53.311713 538.85724 47 540.59375 47 z M 539.5 57.375 C 540.5558 57.478406 541.92858 58.288653 544.5 59.84375 C 548.71824 62.394788 549.01483 68.4146 545.46875 79.0625 C 544.01871 83.416571 542.5281 87.188373 542.125 87.4375 C 541.25086 87.977751 536.70203 78.189588 535.125 72.375 C 533.30106 65.650054 533.68287 61.650339 536.4375 59.0625 C 537.69378 57.882293 538.4442 57.271594 539.5 57.375 z "/>
</svg>
