<?xml version="1.0" encoding="UTF-8"?>
<svg xmlns="http://www.w3.org/2000/svg" viewBox="753.06 13.96 31.71 90.7">
  <path d="M 774.0625,91.71875 775.25,86.53125 C 775.11281,86.14609 775,85.777324 775,85.4375 775,84.370804 775.44556,83.735374 775.96875,83.375 L 777.34375,77.34375 777.5625,77.0625 C 777.26667,75.784703 777.36853,74.514852 778.3125,71.90625 781.09456,64.218241 782.76747,24.656899 780.46875,20.9375 778.70632,18.085818 778.32482,21.539217 778.78125,35.84375 779.34436,53.491437 778.79796,55.228608 774.15625,50.59375 771.60015,48.041417 771.48301,47.466377 771,33.71875 770.725,25.891603 770.08897,19.5 769.59375,19.5 769.09852,19.5 768.64374,25.196396 768.5625,32.15625 768.45984,40.951393 768.00723,45.305569 767.09375,46.40625 765.4879,48.341176 759.06527,52.377768 758.5,51.8125 758.2753,51.587796 757.9958,44.785209 757.90625,36.6875 757.7565,23.14431 756.95077,18.307959 755.59375,22.75 755.05865,24.501601 755.6436,49.997806 756.46875,61.5 757.56191,76.738157 759.20958,84.701905 763.25,94.25 765.81414,100.30942 768.1908,100.53649 771.03125,94.96875 L 773.09375,90.90625 774.0625,91.71875 z M 767.625,50 C 769.69102,50 777,57.718453 777,59.90625 777,62.707572 774.85811,62.542317 772,59.5 770.70825,58.125 768.90825,57 768,57 767.09175,57 765.29175,58.125 764,59.5 760.62815,63.089175 758.7515,62.785534 759.375,58.75 759.87378,55.521726 765.0805,50 767.625,50 z M 767.5,60.0625 C 768.05,60.061259 770.24419,61.676126 772.375,63.65625 L 776.25,67.25 774,76.875 C 772.75624,82.167494 770.87949,88.1875 769.84375,90.25 768.80802,92.3125 767.74969,94 767.5,94 765.6487,94 760,75.405676 760,69.3125 760,66.833508 760.82748,65.203817 763.25,63 765.0375,61.373875 766.95,60.063741 767.5,60.0625 z"/>
</svg>
