<?xml version="1.0" encoding="UTF-8"?>
<svg xmlns="http://www.w3.org/2000/svg" viewBox="1668.57 15.13 24.93 84.59">
  <path d="M 1691.2812 89.59375 L 1691.3438 85.1875 C 1689.7783 85.071738 1688.1831 85.86789 1685.7812 87.5 C 1683.7577 88.875 1681.4801 90 1680.7188 90 C 1674.4939 90 1671.3268 49.422815 1675.9688 29.25 C 1677.3227 23.366241 1678.213 22.340451 1680.0312 24.53125 C 1681.0176 25.719689 1681.0241 28.790595 1680.125 39.25 C 1679.4993 46.529337 1678.9963 57.225 1679 63 C 1679.0056 71.763936 1679.3467 74.049443 1681.0312 76.8125 C 1682.6616 79.486796 1683.4814 79.981012 1685.2812 79.4375 C 1686.5067 79.067465 1687.915 78.363183 1688.4375 77.875 C 1689.4381 76.940095 1690.4073 76.889429 1691.4375 77.5625 L 1691.5 73.375 C 1690.406 73.357342 1688.9661 73.704947 1686.4375 74.5 C 1681.8481 75.943038 1681.1762 69.186158 1683.0938 41 C 1684.3418 22.656049 1683.7936 18.97582 1679.7812 19.03125 C 1673.3818 19.119654 1670.5747 33.127024 1671.2812 61.5 C 1671.767 81.00354 1672.6084 86.658791 1675.9688 92.9375 C 1677.5431 95.879122 1681.466 95.52417 1685.8125 92.03125 C 1687.8504 90.393513 1689.7468 89.577551 1691.2812 89.59375 z "/>
</svg>
