<?xml version="1.0" encoding="UTF-8"?>
<svg xmlns="http://www.w3.org/2000/svg" viewBox="2149.7 12.44 42.5 89.54">
  <path d="M2153.9268 95.411749C2151.6954 92.723163 2152.6173 87.361157 2156.5312 80.263826C2160.1457 73.709368 2160.2228 73.360706 2159.0214 69.0C2157.1646 62.26049 2156.5921 47.199379 2157.8962 39.39839C2159.4892 29.870005 2162.7891 21.311059 2165.7757 18.961832C2168.8986 16.505331 2170.0892 17.345106 2173.1803 24.184706C2174.9825 28.172534 2176.222 29.505129 2179.2589 30.720255C2181.7203 31.705129 2184.1922 33.872492 2186.2269 36.829782C2188.9971 40.856163 2189.433 42.418525 2189.8146 49.690075C2190.1982 56.997465 2190.0365 58.048767 2188.4345 58.663504C2187.2652 59.112205 2186.451 58.851334 2186.1449 57.92991C2185.4748 55.91263 2179.9534 50.910756 2179.028 51.48267C2178.6053 51.743938 2177.9925 55.454721 2177.6663 59.728852C2177.34 64.002983 2176.6247 69.920073 2176.0766 72.877941C2175.3261 76.92822 2175.4018 79.026629 2176.3831 81.377941C2178.2274 85.796722 2179.2152 91.746451 2178.4861 94.043713C2177.7149 96.473523 2174.152 96.615994 2173.3272 94.25C2171.948 90.293591 2167.3925 84.003456 2165.905 84.001788C2163.6962 83.999312 2161.5026 86.660904 2159.107 92.25C2156.9242 97.342753 2155.9983 97.907835 2153.9268 95.411749Z M2174.8733 86.471925C2172.4884 77.150276 2172.0218 72.402032 2173.009 67.5C2174.1279 61.944222 2174.5892 54.255832 2173.8481 53.51476C2173.5841 53.250772 2171.9506 53.569818 2170.2182 54.223752C2167.4228 55.278903 2166.8039 55.164395 2164.7197 53.206361C2163.428 51.992863 2162.0626 51.0 2161.6855 51.0C2160.4433 51.0 2160.9714 60.587702 2162.4892 65.591069C2164.6349 72.664402 2164.4348 73.852944 2159.9976 80.384971C2157.7989 83.621705 2156.0143 87.221705 2156.0317 88.384971C2156.0601 90.284086 2156.2898 90.194634 2158.2817 87.508723C2164.5288 79.084818 2167.4653 78.784567 2171.972 86.108902C2173.7009 88.918798 2175.2897 91.043665 2175.5025 90.830827C2175.7153 90.61799 2175.4322 88.656484 2174.8733 86.471925Z M2172.0 50.0C2173.5511 48.44886 2174.0 46.666667 2174.0 42.059017C2174.0 35.366142 2173.1065 34.119892 2170.429 37.078436C2169.1006 38.546361 2167.6075 39.025162 2165.0454 38.804855C2161.7234 38.519209 2161.4807 38.69857 2161.194 41.651417C2160.9632 44.028754 2161.6641 45.686749 2164.0476 48.401417C2167.6583 52.513833 2169.1802 52.819763 2172.0 50.0Z M2170.0297 33.75C2171.5846 32.089993 2171.9844 30.72705 2171.5541 28.552274C2170.8986 25.238815 2168.3977 21.0 2167.0983 21.0C2166.0225 21.0 2164.2759 25.377879 2163.4483 30.148667C2162.9425 33.064562 2163.1854 34.012411 2164.6577 34.868258C2167.2432 36.371194 2167.6546 36.285547 2170.0297 33.75Z M2187.0 48.122124C2187.0 46.539292 2186.3587 43.709323 2185.5748 41.833304C2184.128 38.370573 2179.4397 33.0 2177.8636 33.0C2177.3886 33.0 2177.0 35.497942 2177.0 38.550983C2177.0 43.686476 2177.2807 44.359766 2180.75 47.546205C2185.3404 51.762343 2187.0 51.915268 2187.0 48.122124Z"/>
</svg>
