<?xml version="1.0" encoding="UTF-8"?>
<svg xmlns="http://www.w3.org/2000/svg" viewBox="4.18 14.75 32.94 80">
  <path d="M21.601742 89.927541C19.708404 84.19815 19.423707 79.154977 20.78474 75.454997C22.543056 70.674997 22.638548 60.069552 20.97827 53.961435C19.065607 46.924804 18.128312 37.364952 18.980574 33.586134C19.636738 30.676788 19.393253 29.778619 17.454688 27.957432C15.023861 25.673788 14.1093 25.848402 10.236756 29.335522C8.652478 30.762122 7.6577244 31.057724 6.9208752 30.320875C6.1840259 29.584026 7.2864176 28.056015 10.595554 25.227452C15.463613 21.066362 17.477455 20.778245 18.529321 24.092381C19.364552 26.723961 20.186295 26.521736 25.0 22.5C29.82067 18.472445 30.160032 18.390083 32.210703 20.75C34.439981 23.315457 35.124772 27.343633 33.919426 30.801291C32.507089 34.852723 30.458444 35.446453 26.446644 32.967024L23.118778 30.91029L22.16624 34.3601C21.498893 36.777032 21.635242 40.009028 22.621646 45.154955C26.151019 63.567189 26.497437 68.580636 24.646122 74.453686C23.179431 79.106563 23.098425 80.596474 24.125716 84.025265C25.173122 87.521197 25.114999 88.313573 23.707942 89.72063C22.340593 91.087978 21.996395 91.121792 21.601742 89.927541Z M31.5 27.595291C31.5 23.574854 28.760745 22.00156 26.043018 24.461069L23.968965 26.338062L26.190422 28.702695C29.107901 31.808209 31.5 31.309296 31.5 27.595291Z"/>
</svg>
