<?xml version="1.0" encoding="UTF-8"?>
<svg xmlns="http://www.w3.org/2000/svg" viewBox="120.58 16.04 56.65 71.19">
  <path d="M 174.65625,61.625 C 174.13887,62.40287 174.03791,62.476845 173.40625,63.4375 167.26323,72.779982 164,78.758361 164,80.625 164,82.640301 166.22459,81.866126 167.53125,79.40625 168.09249,78.349683 169.77999,75.60782 171.28125,73.28125 172.78251,70.954679 174,68.760328 174,68.40625 174,68.348092 174.56533,67.502337 174.65625,67.3125 L 174.65625,61.625 z M 148.4375,19.5625 C 147.42942,19.277459 146.47481,20.377081 144.125,22.5 138.39127,27.680085 137.61206,29.351798 139.34375,32.75 140.11704,34.267467 141.07234,39.047646 141.46875,43.375 142.07155,49.955373 142.41633,51.019064 143.53125,49.875 144.53035,48.849792 144.63269,47.372602 143.96875,44 143.4815,41.525 143.0552,36.497406 143.03125,32.84375 142.98428,25.679387 144.24792,23.989748 148.0625,26.03125 151.25176,27.73809 152.93201,32.421883 153.625,41.4375 154.10251,47.649699 154.67605,50 155.65625,50 156.67539,50 157,48.095396 157,42.3125 L 157,34.65625 159.25,36.6875 C 163.38914,40.413277 164.9474,40.346531 166.59375,36.40625 168.52675,31.779938 168.11019,23.089224 165.875,21.6875 164.6208,20.900975 163.11147,21.39352 159.375,23.875 L 154.5,27.125 153,25.03125 C 150.49882,21.536673 149.44558,19.847541 148.4375,19.5625 z M 163.8125,24.34375 C 164.39098,24.27833 164.73281,24.555188 165.09375,25.125 166.10197,26.716678 166.29115,32.10024 165.40625,34.40625 164.48174,36.815477 162.44183,36.316368 159.625,32.96875 156.64915,29.432153 156.94732,28.048775 161.15625,25.5625 162.43472,24.807286 163.23402,24.40917 163.8125,24.34375 z M 159.875,55.15625 C 159.52557,55.248267 159.09828,55.546363 158.625,56.0625 157.15777,57.6626 143,80.711969 143,81.5 143,81.773923 143.68067,82 144.53125,82 145.38183,82 146.84433,80.587777 147.78125,78.875 148.71817,77.162224 150.50402,74.259348 151.71875,72.40625 152.93349,70.553152 155.00944,67.077467 156.34375,64.6875 157.67805,62.297533 159.3636,59.387895 160.09375,58.21875 161.27766,56.323002 160.9233,54.8802 159.875,55.15625 z M 139.53125,57.875 C 138.52281,58.399089 136.75743,60.543394 134.125,64.40625 131.30168,68.549212 129,72.140106 129,72.40625 129,72.672395 127.62307,74.93996 125.9375,77.4375 124.25193,79.93504 123.15697,82.444968 123.5,83 123.84302,83.555033 124.31014,84 124.53125,84 125.51044,84 129.18402,79.270657 131.09375,75.5625 133.83571,70.238388 134.96824,68.361503 138.4375,63.21875 140.41646,60.285188 140.98299,58.607987 140.28125,57.90625 140.10582,57.730816 139.8674,57.700304 139.53125,57.875 z"/>
</svg>
