<?xml version="1.0" encoding="UTF-8"?>
<svg xmlns="http://www.w3.org/2000/svg" viewBox="1839.78 14.88 22.22 90.66">
  <path d="M 1860 64.28125 L 1859.7188 56.21875 C 1859.4156 55.527208 1859.1065 54.805573 1859.1875 54.40625 C 1859.2683 54.007909 1859.4215 53.83196 1859.6562 53.75 L 1859.4062 45.53125 C 1858.7889 43.715932 1858.2308 41.351447 1857.375 37.21875 C 1855.1327 26.389272 1852.6041 19 1851.1875 19 C 1849.8933 19 1847.2652 24.199218 1845.625 30 C 1841.7805 43.595804 1842.0108 80.216616 1846 92 C 1846.4655 93.375 1847.1073 95.7375 1847.4375 97.25 C 1848.3477 101.41944 1851.5804 100.89072 1853.5625 96.25 C 1856.0956 90.319049 1858.1426 81.797124 1857.8438 78.3125 C 1857.693 76.5545 1857.885 74.771167 1858.2812 74.375 C 1858.6774 73.978833 1859 71.502084 1859 68.84375 C 1859 66.358449 1859.3929 64.857094 1860 64.28125 z M 1850.1562 23.5 L 1851.4688 26.625 C 1856.9387 39.56018 1857.6362 72.839974 1852.7812 89.25 C 1852.1711 91.3125 1851.3664 93 1850.9688 93 C 1850.1207 93 1847.8714 84.829645 1847.5312 80.5 C 1847.4016 78.85 1846.7903 71.875 1846.1562 65 C 1845.2185 54.829357 1845.2418 50.356992 1846.4062 41 C 1847.1934 34.675 1848.3663 28.15 1849 26.5 L 1850.1562 23.5 z "/>
</svg>
