<?xml version="1.0" encoding="UTF-8"?>
<svg xmlns="http://www.w3.org/2000/svg" viewBox="1605.61 12.95 60.12 89.1">
  <path d="M 1608.3438 90.84375 C 1610.5658 90.553699 1612.7809 91.566025 1616.4688 93.96875 C 1619.8687 96.18396 1623.8117 98 1625.25 98 C 1636.0965 98 1642.3072 87.403103 1643.6562 66.625 C 1644.3501 55.93933 1644.8244 54.31532 1649.3125 46.8125 C 1651.6506 42.903981 1652.5866 42.150132 1655 42.21875 C 1659.2782 42.34039 1663 39.519184 1663 36.15625 C 1663 31.249343 1660.1635 23.603424 1657.0938 20.25 C 1655.4575 18.4625 1653.7145 17 1653.2188 17 C 1651.9592 17 1649.5386 19.912602 1647.5625 23.8125 C 1646.6424 25.628296 1645.2041 27.369353 1644.375 27.6875 C 1642.7216 28.321978 1637 23.418736 1637 21.375 C 1637 20.00962 1634.3117 17 1633.0938 17 C 1631.9451 17 1630 21.75215 1630 24.5625 C 1630 28.104469 1633.5848 35.229405 1637.0312 38.53125 C 1640.4223 41.780136 1640.6081 42.660783 1638.4062 45.09375 C 1636.9644 46.686953 1636.4505 46.732044 1632.7812 45.4375 C 1624.7153 42.591641 1619.2318 44.453583 1616.625 50.96875 C 1613.4682 58.858336 1615.6382 63.575001 1620.375 59.125 C 1621.7014 57.878952 1623.9538 57 1625.8125 57 C 1628.513 57 1629.2116 57.541474 1630.5 60.625 C 1633.5718 67.976976 1631.9429 76.859227 1626.5625 82.1875 C 1623.3808 85.338404 1621.1351 84.896979 1615.1562 79.96875 C 1612.8464 78.064717 1610.6123 77.186284 1608.4688 77.15625 L 1608.4375 80.78125 C 1609.833 81.082707 1611.4635 82.082351 1614 84.03125 C 1619.4316 88.204516 1621.1437 88.791098 1624.75 87.8125 C 1631.7828 85.90411 1636.6028 72.34139 1633.5312 63.09375 C 1631.1071 55.794935 1628.6381 53.653253 1623.3438 54.25 C 1618.481 54.798109 1617.7961 53.706249 1620.75 50.09375 C 1624.3561 45.683633 1633.8042 47.659272 1636.5312 53.40625 C 1637.4488 55.339612 1639.126 57.205736 1640.25 57.5625 C 1642.1729 58.172775 1642.2477 58.791203 1641.7188 67.65625 C 1641.2638 75.284043 1640.5889 78.301716 1638.1562 83.5 C 1635.6888 88.773031 1634.4719 90.20091 1631.4375 91.46875 C 1626.236 93.642091 1624.4663 93.427057 1618.3125 89.90625 C 1614.3286 87.626885 1611.5162 87.02227 1608.375 87.84375 L 1608.3438 90.84375 z M 1653.4375 22.34375 C 1655.9151 23.116985 1658.3773 28.23887 1658.4375 32.75 L 1658.5 37.5 L 1654 38 C 1649.596 38.489333 1649.4147 38.653318 1645.5 45.71875 C 1643.3 49.689452 1641.1625 52.951952 1640.75 52.96875 C 1639.3949 53.023934 1639.9618 49.632668 1642.2188 44.1875 C 1644.1272 39.583123 1644.2324 38.697767 1642.9688 37.9375 C 1638.4434 35.21495 1634 29.46164 1634 26.3125 C 1634 23.856488 1634.1438 23.899513 1638.0625 27.9375 C 1643.2566 33.289639 1645.509 33.073714 1649.5 26.78125 C 1651.15 24.179728 1652.9209 22.182549 1653.4375 22.34375 z "/>
</svg>
