<?xml version="1.0" encoding="UTF-8"?>
<svg xmlns="http://www.w3.org/2000/svg" viewBox="2683.35 62.93 61.06 38.1">
  <path d="M 2686.125 89.375 L 2686.4062 97.375 L 2693.6562 97.25 C 2701.4381 97.109672 2708.8632 97.419535 2710.1562 97.9375 C 2711.4492 98.455466 2713.3012 98.902637 2714.2812 98.9375 C 2716.6552 99.021934 2722.9682 96.346244 2725.25 94.28125 C 2726.9671 92.727259 2727.2492 92.784048 2729.5938 95.3125 C 2730.9676 96.794022 2732.9136 98 2733.9375 98 C 2736.5597 98 2738.1912 92.985231 2736.7812 89.25 C 2735.8848 86.875084 2736.142 85.284667 2738.3438 79.78125 C 2741.6007 71.640261 2741.6355 69.951192 2738.5938 67.09375 C 2736.3452 64.981393 2736.0239 64.925507 2733.2812 66.34375 C 2729.659 68.216899 2728.9127 69.128355 2725.4375 76 C 2720.0692 86.615079 2716.2074 88.603945 2707.4688 85.21875 C 2701.8522 83.043034 2699.3495 83.417711 2691.8438 87.5 C 2689.3814 88.839249 2687.4983 89.396396 2686.125 89.375 z M 2734.5312 68.5625 C 2735.1456 68.404106 2735.6203 68.745314 2736.375 69.5 C 2738.5864 71.711407 2738.4263 73.221659 2735.4375 78.9375 C 2732.6263 84.313806 2732.2969 86.14917 2733.3438 90.25 C 2734.1715 93.493318 2732.6221 93.947521 2730.7812 91 C 2729.09 88.291988 2727.2829 88.515076 2722.0938 92.03125 C 2717.6385 95.05013 2713.4162 95.712027 2709.5 94 C 2708.4 93.519118 2703 93.339022 2697.5 93.625 L 2687.5 94.15625 L 2690 92.09375 C 2693.3213 89.366352 2698.3356 87 2700.7812 87 C 2701.8685 87 2704.4838 87.712136 2706.5938 88.59375 C 2711.0215 90.443799 2716.8068 90.012513 2720.5938 87.53125 C 2721.9817 86.621823 2724.4232 83.090098 2726 79.6875 C 2727.5768 76.284901 2730.1645 72.23333 2731.7812 70.6875 C 2733.1405 69.387817 2733.9169 68.720894 2734.5312 68.5625 z "/>
</svg>
