<?xml version="1.0" encoding="UTF-8"?>
<svg xmlns="http://www.w3.org/2000/svg" viewBox="879.1 15.34 39.22 92.46">
  <path d="M889.04142 103.0256C888.08742 102.43599 887.5426 100.03955 887.40351 95.821061C887.28888 92.344477 886.26077 86.730118 885.11882 83.344707C883.0447 77.195768 883.04457 77.183542 884.99902 71.502848C888.45294 61.463855 888.58545 56.931167 885.64011 49.573832C881.10276 38.239734 881.20101 32.015684 886.04164 24.13722C888.86285 19.545497 889.67837 20.935203 887.50388 26.62901C884.66431 34.064315 885.06289 40.360004 888.89819 48.65255L892.20624 55.8051L889.51081 66.366578C886.93386 76.463792 886.88305 77.13844 888.35499 81.714029C889.20178 84.346313 890.19931 88.75 890.57171 91.5C891.58558 98.986776 892.44409 99.975689 894.49191 96.015649C896.75951 91.630593 896.86098 82.24366 894.67682 78.910208C893.11182 76.521714 893.20214 75.915463 896.60735 65.95224C898.9328 59.148272 900.93368 54.980865 902.33985 54.012688C905.74071 51.671121 910.0 46.918129 910.0 45.464641C910.0 44.540103 908.66013 44.889661 905.55788 46.623543L901.11575 49.106294L899.42541 46.526512C898.10598 44.512806 897.84486 42.471437 898.23539 37.223365C898.76633 30.088519 902.38746 21.0 904.69927 21.0C906.36766 21.0 906.34663 22.056273 904.62903 24.527494C901.64513 28.820611 900.36847 44.0 902.9913 44.0C903.39258 44.0 905.41679 42.849144 907.48953 41.442543C909.56227 40.035941 911.87507 39.121818 912.62908 39.411158C916.32037 40.82764 912.42118 50.901028 906.28783 55.793513C903.27675 58.19541 901.93261 60.44114 899.73309 66.744899C897.11435 74.250105 897.04741 74.869221 898.48309 78.305276C901.77401 86.181556 899.11135 98.86279 893.47555 102.15427C891.52773 103.29186 889.96812 103.59833 889.04142 103.0256Z M891.00165 49.003084C890.37808 47.837938 889.78512 43.413665 889.68395 39.171366C889.52816 32.638813 889.89158 30.696306 892.05806 26.481561C893.46499 23.744468 895.36637 21.360542 896.28335 21.183948C897.70287 20.910573 897.56685 21.727375 895.36782 26.681434C893.12269 31.739371 892.85797 33.415072 893.34277 39.5C893.6495 43.35 894.03536 47.351567 894.20023 48.392371C894.6273 51.088344 892.35032 51.523092 891.00165 49.003084Z"/>
</svg>
