<?xml version="1.0" encoding="UTF-8"?>
<svg xmlns="http://www.w3.org/2000/svg" viewBox="1505.92 26.7 26.87 72.57">
  <path d="M 1527.875 63.03125 L 1527.3438 62 L 1526.2188 57.03125 C 1526.1215 56.764928 1526.0717 56.532566 1526.0625 56.28125 L 1524.7188 50.3125 C 1524.0464 49.173459 1523.4745 47.2201 1522.5312 43.59375 C 1520.246 34.808414 1516.8038 30 1512.75 30 C 1508.4942 30 1507.9202 31.868411 1510.2188 38.5 C 1513.0271 46.602593 1513.9174 74.439958 1511.75 86.78125 C 1510.8597 91.850419 1510.6406 95.298934 1511.2188 95.65625 C 1511.7381 95.977208 1513.6089 94.83683 1515.375 93.125 C 1519.2713 89.348582 1521.547 89.19319 1525.0312 92.53125 C 1527.472 94.869669 1527.7879 94.941982 1529.0625 93.40625 C 1530.7926 91.321608 1530.5375 82.47513 1528.4062 71.71875 C 1527.5582 67.438349 1526.9976 63.47598 1527.1875 62.90625 C 1527.2291 62.781347 1527.6608 63.000984 1527.875 63.03125 z M 1512.625 33.15625 C 1513.0922 32.906806 1513.9652 33.264112 1515.2812 34.25 C 1518.1736 36.416796 1522.0398 51.030564 1524.9375 70.78125 C 1526.006 78.064398 1526.2912 89.598222 1525.3438 87.25 C 1525.0664 86.5625 1524.0729 85.997944 1523.1562 86 C 1522.2396 86.002056 1520.0641 86.869452 1518.3125 87.9375 C 1514.6623 90.163209 1513.8161 89.241466 1515.1562 84.5 C 1517.228 77.170386 1515.6313 48.287117 1512.4688 35.75 C 1512.0934 34.261887 1512.1578 33.405694 1512.625 33.15625 z "/>
</svg>
