<?xml version="1.0" encoding="UTF-8"?>
<svg xmlns="http://www.w3.org/2000/svg" viewBox="1634.9 30.12 68.24 68.12">
  <path d="M 1638,61.125 C 1638.0441,61.109305 1638.0806,61 1638.125,61 1638.7008,61 1640.3203,61.9 1641.7188,63 1645.5204,65.990389 1651.8162,65.626386 1659,62 1667.9106,57.501953 1669.4157,57.818615 1672.0312,64.75 1674.615,71.597149 1674.2918,78.575229 1671.0938,84.84375 1668.845,89.251739 1668.3979,92 1669.9688,92 1671.3395,92 1675.5847,83.269927 1676.4062,78.75 1677.1719,74.538103 1675.5249,63.915773 1673.5,60 1672.7668,58.58219 1671.0422,56.835461 1669.6562,56.09375 1667.367,54.868626 1666.4245,55.077236 1659.375,58.46875 1650.5042,62.736491 1647.2487,62.749125 1640.875,58.53125 1639.3954,57.552085 1638.5766,56.844126 1638,56.0625 L 1638,61.125 z M 1638,49.15625 C 1638.5604,49.300117 1640.6055,50.671086 1642.9062,52.5 1648.4906,56.939043 1652.692,57.43468 1656.5,54.0625 1657.6,53.088387 1660.8625,51.00939 1663.75,49.46875 1666.6375,47.92811 1669,46.081339 1669,45.34375 1669,43.338873 1668.155,43.645372 1660.0312,48.53125 1655.9313,50.997082 1651.9391,53 1651.1562,53 1649.5479,53 1641.7287,47.325458 1638,43.84375 L 1638,49.15625 z M 1679.125,47.3125 C 1678.5232,47.713482 1678.7978,49.317556 1680.4062,51.8125 1687.9317,63.485994 1687.2435,77.337257 1678.5625,88.9375 1677.1449,90.831853 1676,92.744353 1676,93.1875 1676,95.145436 1679.1024,93.707984 1681.4062,90.6875 1685.0686,85.886033 1687.6846,79.278968 1688.4375,72.90625 1689.3355,65.305117 1686.8026,54.405271 1683.125,50 1681.2117,47.708209 1679.7268,46.911518 1679.125,47.3125 z M 1695.75,33.5 C 1694.3292,33.220551 1693.6614,34.959299 1694.9375,37.34375 1697.7434,42.586561 1691.1947,46.570624 1687.2812,42 1685.3301,39.721243 1683,39.34201 1683,41.3125 1683,43.037902 1686.943,46.662674 1689.5,47.28125 1692.7642,48.070914 1693.4244,47.988187 1695.2188,46.625 1698.8445,43.870321 1700.0387,37.163736 1697.375,34.5 1696.7791,33.904071 1696.2236,33.59315 1695.75,33.5 z"/>
</svg>
