<?xml version="1.0" encoding="UTF-8"?>
<svg xmlns="http://www.w3.org/2000/svg" viewBox="112.76 44.11 27.82 58.09">
  <path d="M122.0 99.271927C120.625 99.025939 118.43255 97.851624 117.12788 96.662338C114.77907 94.521252 114.764 94.377146 115.59416 82.0C116.05527 75.125 116.36104 65.983604 116.27364 61.685786C116.16266 56.229094 116.45809 53.986029 117.25284 54.250946C119.27562 54.925206 120.10668 60.311504 119.45136 68.5C118.32112 82.622763 118.0809 91.514287 118.79967 92.621643C120.14996 94.701936 124.14356 96.12738 126.9157 95.518515C128.45482 95.180468 131.40999 93.35051 133.48274 91.451942C137.86391 87.438952 138.0 87.391703 138.0 89.883638C138.0 91.999253 130.76524 99.0 128.57891 99.0C127.80047 99.0 126.56427 99.161815 125.83179 99.359589C125.0993 99.557363 123.375 99.517915 122.0 99.271927Z M128.79699 80.259789C126.26818 79.683143 125.6796 76.504045 127.04664 70.805595C127.77704 67.760938 128.05572 62.374403 127.74255 57.354623C127.45525 52.74965 127.56966 48.765963 127.99679 48.501983C130.83858 46.745662 132.19881 58.408125 130.53333 70.25C129.66932 76.393348 130.17867 77.045111 134.1731 74.907359C137.60843 73.068825 138.58891 75.45278 135.32704 77.713079C131.3825 80.446435 130.73054 80.700698 128.79699 80.259789Z M128.46833 86.948756C127.69139 85.691634 129.7579 83.0 131.5 83.0C132.19031 83.0 133.31531 82.325 134.0 81.5C135.72477 79.421782 137.0 79.625681 137.0 81.979676C137.0 84.306402 129.52571 88.659635 128.46833 86.948756Z"/>
</svg>
