<?xml version="1.0" encoding="UTF-8"?>
<svg xmlns="http://www.w3.org/2000/svg" viewBox="958.44 19.43 78.41 80.22">
  <path d="M966.71747 93.75C964.74825 92.271422 962.0 84.876159 962.0 81.055775C962.0 75.482459 965.07996 68.154894 970.02027 61.974637C976.97311 53.276758 977.78654 49.0 972.48804 49.0C968.71099 49.0 965.00499 46.868044 964.36762 44.328561C962.92118 38.565504 967.18768 32.900112 977.35491 27.083012C983.519 23.556276 986.53721 23.071848 985.66018 25.75C981.91474 37.187374 982.20944 39.544519 987.24917 38.459198C989.03713 38.074157 991.77812 37.105762 993.34026 36.307208C996.96568 34.45392 999.0 35.245128 999.0 38.508453C999.0 41.941836 995.6888 48.183992 993.00715 49.805945C991.165 50.92014 991.04267 51.347782 992.17399 52.718461C992.90329 53.602075 995.44047 55.185328 997.81215 56.236803C1001.9303 58.062555 1002.2452 58.070313 1004.8122 56.409237C1009.0864 53.643321 1011.964 50.631248 1011.9827 48.903638C1011.9922 48.025639 1011.2717 45.847305 1010.3815 44.062896C1008.2736 39.837532 1008.9541 31.237951 1011.5463 29.342459C1014.1767 27.419104 1014.494 28.439205 1012.5438 32.548997C1010.6712 36.495252 1010.9544 38.932446 1014.024 45.285721L1015.9182 49.20626L1010.8348 54.581126C1004.3045 61.485948 1001.0657 62.249117 994.1852 58.504283C991.4636 57.023001 988.66202 54.736988 987.95946 53.424255C986.77286 51.207075 987.01316 50.729163 991.34105 46.698847C993.90347 44.312605 996.0 41.604175 996.0 40.680113C996.0 38.620301 995.38035 38.6017 990.0 40.5C983.64805 42.741098 981.15656 42.471981 980.40141 39.463209C979.77304 36.959591 980.21703 33.161829 981.53696 29.75C981.9275 28.740504 981.75339 28.0 981.12549 28.0C979.31838 28.0 971.43535 34.291406 969.14462 37.56188C966.21829 41.739805 966.40114 43.84084 969.75 44.517798C975.81315 45.74344 977.55238 46.665506 978.83029 49.33179C980.00858 51.790205 979.91812 52.608914 978.05945 56.308526C976.90126 58.613837 973.76025 63.120374 971.07942 66.323053C965.67847 72.775336 964.33308 77.554816 965.96272 84.5C966.92148 88.586008 970.01112 92.0 972.75019 92.0C973.59092 92.0 976.53288 90.613051 979.28787 88.917891C982.61669 86.869644 985.7566 85.779465 988.64845 85.667891C993.51271 85.480217 993.38411 85.586225 991.96482 82.934259C990.41923 80.046299 984.50312 80.379337 979.8307 83.617328C975.32246 86.741536 973.0 86.214896 973.0 82.068405C973.0 74.381609 980.80051 62.0 985.64325 62.0C986.88126 62.0 990.01001 63.125 992.59602 64.5C995.18204 65.875 997.83672 67.0 998.4953 67.0C1001.396 67.0 1006.9853 63.098776 1013.3924 56.602119C1019.7052 50.20102 1020.645 49.600736 1024.1361 49.739951C1027.0359 49.855586 1028.3296 49.367574 1029.4809 47.72375C1031.6283 44.65791 1031.3941 44.0 1028.155 44.0C1023.8748 44.0 1021.6136 40.917359 1022.2753 35.984341C1022.9203 31.175049 1026.22 25.469747 1026.7787 28.197593C1026.97 29.131268 1026.648 30.789185 1026.0632 31.881851C1024.4599 34.877778 1024.7518 39.690785 1026.5795 40.392119C1027.4482 40.725473 1029.3141 40.708298 1030.7259 40.353953C1033.2582 39.718376 1033.2857 39.772867 1032.7647 44.395424C1032.0904 50.377758 1029.7701 52.990445 1025.095 53.031803C1021.4579 53.063979 1018.0 54.87116 1018.0 56.739781C1018.0 57.968197 1011.1677 63.641648 1005.1009 67.451073C1000.0065 70.64995 996.29897 70.497522 989.33446 66.802862L985.08222 64.54705L982.08602 67.417583C980.43812 68.996377 978.39462 72.328453 977.54492 74.822197C975.15515 81.835788 975.39398 82.349815 979.96016 80.020324C985.71639 77.083716 991.87932 77.315811 994.47158 80.566821C996.2366 82.780362 996.86112 82.988033 999.00915 82.07569C1000.3791 81.493816 1002.7387 80.02497 1004.2527 78.811588C1006.2723 77.192968 1007.3015 76.901517 1008.1172 77.717202C1008.9329 78.532887 1007.4476 79.972668 1002.5401 83.12352C996.39523 87.068827 995.99963 87.528361 997.67563 88.774209C999.52492 90.148866 1006.2133 90.014738 1010.75 88.512015C1014.1924 87.371777 1013.5242 89.709798 1009.75 92.01096C1005.2414 94.759937 999.72697 94.566088 995.21481 91.5C990.04687 87.98829 984.67091 88.169684 979.57186 92.02782C975.31727 95.247005 969.71149 95.998045 966.71747 93.75Z M1005.0 85.519052C1005.0 84.704531 1006.0924 83.763919 1007.4276 83.428805C1008.7628 83.09369 1010.0987 82.185116 1010.3963 81.409753C1011.1728 79.386124 1013.0 79.670361 1013.0 81.814788C1013.0 82.907572 1011.594 84.300028 1009.4661 85.314788C1005.1616 87.367449 1005.0 87.37484 1005.0 85.519052Z M1017.0062 43.516183C1016.4528 42.060673 1016.0 39.526749 1016.0 37.88524C1016.0 34.294902 1018.7033 28.69861 1020.0389 29.524055C1020.6034 29.872914 1020.3372 31.381082 1019.3867 33.219115C1018.0276 35.847363 1017.969 36.953042 1019.0054 40.412364C1020.4556 45.252724 1020.4569 45.347686 1019.0812 45.806282C1018.4933 46.002238 1017.5595 44.971693 1017.0062 43.516183Z"/>
</svg>
