<?xml version="1.0" encoding="UTF-8"?>
<svg xmlns="http://www.w3.org/2000/svg" viewBox="143.2 36.4 68.01 61.58">
  <path d="M167.0 89.180335C167.0 88.17952 168.18153 86.333344 169.62562 85.077723C172.06422 82.957387 172.20473 82.392515 171.59821 77.147387C170.91517 71.240524 167.36755 62.85149 165.28729 62.223996C163.26352 61.613544 156.00706 69.237723 154.55514 73.5C152.73739 78.836178 150.65203 79.086857 148.69832 74.204043C146.28964 68.184157 149.17395 58.244139 155.35893 51.25C157.88999 48.387813 161.65414 48.372124 167.47374 51.199506C173.13123 53.948126 174.5 52.925483 174.5 45.95C174.5 40.167235 176.34647 39.199358 176.82916 44.729107C177.24823 49.530016 175.4548 55.611499 173.38581 56.405447C172.50805 56.742273 169.12492 55.821895 165.86775 54.360162L159.94561 51.702466L157.35228 54.101233C153.98529 57.215617 150.99157 64.193344 151.0318 68.832905C151.06159 72.267608 151.15265 72.373255 152.46873 70.5C159.1792 60.948577 163.63029 57.579171 167.59836 59.047102C170.28706 60.041749 173.54662 66.985095 174.94495 74.696433C176.15454 81.366921 175.82775 82.980478 172.30123 87.75C169.66463 91.315919 167.0 92.034869 167.0 89.180335Z M173.60807 94.174861C172.8671 92.975944 181.5423 85.989646 183.69046 86.055329C186.02326 86.126658 190.45948 91.597992 188.94395 92.53464C188.34335 92.905833 186.76026 92.18395 185.42597 90.930455L183.0 88.651372L180.75 90.700723C177.67346 93.502905 174.22847 95.178693 173.60807 94.174861Z M187.62296 84.42364C183.66858 80.351945 183.43406 79.191111 185.15198 72.19282C186.65585 66.066549 189.53709 62.0 192.37381 62.0C195.05336 62.0 200.96694 66.16917 202.69278 69.275037C203.79346 71.255843 203.93302 70.881178 203.96456 65.860784C204.02251 56.639149 199.47643 53.587168 190.66981 56.935439C189.21097 57.49009 187.38269 57.700348 186.60698 57.402678C183.43254 56.18453 183.50138 42.0 186.68174 42.0C187.89761 42.0 188.06968 42.914933 187.5751 46.75C186.71539 53.416234 187.56508 54.330044 193.4061 53.021043C199.38915 51.680214 202.80828 53.118074 205.24845 58.001147C208.1147 63.736861 207.20186 78.0 203.96852 78.0C203.37398 78.0 201.99869 75.990601 200.91231 73.53467C197.64678 66.152391 192.11606 63.680441 190.20714 68.75C187.08202 77.049409 186.69014 81.0 188.99198 81.0C190.51509 81.0 193.21721 86.182792 192.21606 87.183943C191.58921 87.810795 189.96392 86.834052 187.62296 84.42364Z"/>
</svg>
