<?xml version="1.0" encoding="UTF-8"?>
<svg xmlns="http://www.w3.org/2000/svg" viewBox="1119.67 16.85 46.11 88.66">
  <path d="M 1126.1314,95.084091 C 1121.7649,84.933724 1122.4866,73.539872 1128.3221,60.5 1130.415,55.823411 1130.4767,55.090473 1129.2772,49.168618 1128.1364,43.537075 1128.2056,42.013657 1129.9034,35.386387 1131.8752,27.689273 1134.2361,23 1136.1396,23 1136.8133,23 1136.9658,23.863756 1136.5367,25.25 1132.5038,38.279553 1131.8494,47.603849 1134.5031,54.224616 1134.9178,55.259255 1134.3833,57.26159 1133.1671,59.229507 1132.052,61.033659 1129.9833,66.052522 1128.5698,70.382536 1125.5201,79.725237 1125.2618,87.957905 1127.8652,92.842217 L 1129.6466,96.184433 1130.9298,88.842217 C 1131.6356,84.803997 1133.3951,77.956539 1134.8399,73.625643 1139.972,58.241084 1150.6889,51.007158 1156.358,59.100894 1157.7588,61.100864 1158.0017,61.158989 1158.5867,59.634403 1159.4154,57.474793 1158.2627,50.021524 1156.8336,48.299614 1156.1893,47.523236 1153.5522,47 1150.2836,47 L 1144.8122,47 1145.5198,41.855097 C 1146.3108,36.103802 1148.3366,31.099159 1151.8729,26.160172 1155.6546,20.878277 1156.4374,23.855068 1153.0324,30.569808 1151.3784,33.831414 1150.0209,38.075 1150.0155,40 1150.0063,43.316059 1150.1884,43.503892 1153.4797,43.574061 1160.334,43.72019 1163.6797,50.179013 1162.0591,60.136513 1161.5616,63.193217 1160.5144,67.225472 1159.7321,69.097079 1157.0203,75.584725 1152.2717,77.025961 1154.0512,70.821285 1155.5189,65.703666 1152.8698,59 1149.3797,59 1146.6754,59 1140.6269,65.645584 1138.0198,71.481517 1135.2431,77.696882 1132.0969,89.869272 1131.6849,95.991115 1131.3158,101.47567 1128.697,101.04796 1126.1314,95.084091 z M 1138.6972,48.25 C 1137.341,45.832647 1137.1134,41.417578 1138.1307,37.259256 1139.4421,31.8985 1143.6601,24 1145.2116,24 1146.3059,24 1146.1763,24.547293 1143.0799,33 1141.9718,36.025 1141.0505,40.8625 1141.0325,43.75 1141.0037,48.382666 1139.9311,50.449492 1138.6972,48.25 z"/>
</svg>
