<?xml version="1.0" encoding="UTF-8"?>
<svg xmlns="http://www.w3.org/2000/svg" viewBox="861.46 16.37 29.31 87.47">
  <path d="M 863.79293,92.75 C 863.5285,89.3125 863.45778,76.15 863.63578,63.5 863.9911,38.248019 865.61178,28.17093 870.08314,23.411385 872.9651,20.343681 874.77318,20.37517 879.05561,23.567649 880.94996,24.979856 883.13191,26.499151 883.90438,26.943859 884.73274,27.420743 885.04013,28.452765 884.65372,29.459717 884.07875,30.958069 883.5221,30.789643 880.10533,28.083507 875.91397,24.763888 873.8202,24.275017 872.25266,26.25 868.68473,30.745327 866.92072,47.561284 866.95516,76.75 866.97646,94.806514 866.72625,99 865.62756,99 864.68479,99 864.12773,97.102275 863.79293,92.75 z M 872.5592,99.095961 C 872.18666,98.493183 872.1385,97.584742 872.45217,97.077205 872.76585,96.569667 873.24107,85.244075 873.50823,71.909223 873.92338,51.186881 874.23486,47.397844 875.65191,45.832019 877.75594,43.507088 879.84567,43.541805 882.98495,45.953843 885.9318,48.218024 885.1473,49.684443 881.9147,47.954408 878.38836,46.067168 876.82068,49.023995 877.39032,56.487907 878.13566,66.253825 876.04822,97.292093 874.54158,98.845961 873.63085,99.785249 873.03188,99.860785 872.5592,99.095961 z M 881.99989,39.12132 C 881.99989,38.638047 880.63293,37.676427 878.9622,36.984389 875.48229,35.542963 875.55963,33.363775 879.07605,33.776468 884.33039,34.393128 888.76635,40 883.99989,40 882.89989,40 881.99989,39.604594 881.99989,39.12132 z"/>
</svg>
