<?xml version="1.0" encoding="UTF-8"?>
<svg xmlns="http://www.w3.org/2000/svg" viewBox="2659.11 17.33 53.73 93.75">
  <path d="M 2710.2499,28.875 C 2709.2499,29.161502 2708.45,28.967378 2707.0624,27.84375 2704.1731,25.504155 2702.5821,25.558391 2697.0624,28.0625 L 2692.6249,30.0625 2688.3124,25.84375 2683.9999,21.59375 2680.5937,24.9375 2677.1561,28.25 2672.6249,26.0625 C 2667.2488,23.459975 2664.8001,24.261119 2663.0937,29.15625 2661.5571,33.563908 2663.7307,36.786165 2668.7811,37.59375 L 2672.5311,38.1875 2672.1874,70.59375 C 2671.8539,101.09191 2672.2644,106.82145 2674.4687,101.25 2674.8494,100.2875 2675.3436,84.7075 2675.5624,66.625 2675.9849,31.713915 2675.8428,32.680709 2681.1874,28.875 L 2684.0624,26.8125 2687.4999,30.5625 C 2692.3335,35.839514 2692.8462,40.103472 2692.6561,72.25 2692.532,93.255718 2692.7963,100.08358 2693.7187,100.4375 2694.3885,100.69455 2695.149,100.57222 2695.4061,100.15625 2695.6632,99.740275 2695.9699,86.088349 2696.0937,69.8125 L 2696.3124,40.21875 2701.1561,39.5625 C 2703.8133,39.210002 2706.5579,38.218301 2707.2499,37.34375 2708.3081,36.006537 2709.3464,35.029516 2710.4061,33.90625 L 2710.2499,28.875 z M 2668.7811,28.0625 C 2669.4268,28.045704 2670.3119,28.51474 2671.5311,29.40625 2673.1484,30.588769 2673.2277,31.039849 2672.0937,32.40625 2669.5185,35.509091 2665.9211,33.288632 2667.3749,29.5 2667.7327,28.567461 2668.1355,28.079296 2668.7811,28.0625 z M 2701.4999,30.25 C 2704.7282,29.804229 2707.2053,31.85477 2704.9061,34.625 2703.4214,36.413921 2698.5586,36.396643 2697.0624,34.59375 2696.1341,33.475296 2696.3865,32.855146 2698.1874,31.59375 2699.2893,30.821958 2700.4238,30.39859 2701.4999,30.25 z M 2684.6249,35 C 2682.49,35 2682.1448,39.002512 2681.4061,71.375 2680.8284,96.699767 2680.9119,101.20374 2682.0937,100.8125 2683.6027,100.31289 2684.3781,89.775635 2685.4687,53.75 2685.9432,38.076289 2685.795,35 2684.6249,35 z"/>
</svg>
