<?xml version="1.0" encoding="UTF-8"?>
<svg xmlns="http://www.w3.org/2000/svg" viewBox="2076.64 18.9 18.51 86.01">
  <path d="M 2091.9999,98.28125 2091.9999,93.90625 C 2090.8754,92.914278 2090.4305,91.892041 2090.9687,91.03125 2091.283,90.528254 2091.6108,90.350534 2091.9999,90.25 L 2091.9999,86.21875 2090.8437,85.5 2091.4374,79.5 C 2092.6381,67.120725 2093.1514,25.516679 2092.1249,24.03125 2091.5657,23.222179 2090.8425,22.813709 2090.5311,23.125 2090.2198,23.436291 2089.8029,35.120969 2089.5937,49.09375 2089.3845,63.066531 2088.8789,79.512921 2088.4687,85.65625 2088.0584,91.799578 2088.0374,97.632609 2088.4061,98.59375 2088.9173,99.925673 2089.3291,100.04587 2090.2187,99.15625 2090.6347,98.740155 2091.29,98.469302 2091.9999,98.28125 z M 2078.804,62.779534 C 2078.9713,41.757893 2079.2789,24.387674 2079.4875,24.179049 2079.6961,23.970423 2080.3979,24.12797 2081.0471,24.529153 2081.9334,25.076943 2082.1069,34.252996 2081.7437,61.379288 2081.297,94.746165 2080.8865,100.9994 2079.1429,101.00035 2078.7893,101.00054 2078.6368,83.801175 2078.804,62.779534 z"/>
</svg>
