<?xml version="1.0" encoding="UTF-8"?>
<svg xmlns="http://www.w3.org/2000/svg" viewBox="935.74 16.62 30.27 88.99">
  <path d="M 939.09437,99.613847 C 937.74154,97.983783 939.234,54.651279 941.10671,41.18698 942.41384,31.789074 945.51653,23.329052 948.17857,21.904376 950.49199,20.666268 956.04217,21.453386 960.21533,23.611411 963.1746,25.141706 964.01123,28 961.49989,28 960.67489,28 959.99989,27.608482 959.99989,27.129961 959.99989,26.65144 957.94524,25.684657 955.43401,24.981555 950.06825,23.479234 949.24373,24.026091 946.62295,30.82541 944.56732,36.158531 942.7321,60.095803 941.61353,96.164527 941.47837,100.52291 940.71561,101.56731 939.09437,99.613847 z M 948.78717,99.792264 C 948.30303,98.429622 948.40662,95.178566 949.92196,64.176285 951.09926,40.089866 952.25866,37.496853 960.04955,41.52568 963.97735,43.556825 963.76925,44.225264 959.33273,43.828204 953.99572,43.350553 954.08206,42.849255 952.17,85.419533 951.7375,95.048955 951.10036,100.47123 950.3731,100.7118 949.75336,100.9168 949.03969,100.50301 948.78717,99.792264 z M 957.74989,34.919901 C 955.96656,33.881209 955.30562,31 956.85067,31 959.2774,31 963.99989,33.37658 963.99989,34.597825 963.99989,36.228058 960.32132,36.417622 957.74989,34.919901 z"/>
</svg>
