<?xml version="1.0" encoding="UTF-8"?>
<svg xmlns="http://www.w3.org/2000/svg" viewBox="1243.81 17.97 35.39 88.63">
  <path d="M 1247.9751,98.4349 C 1245.8139,92.750476 1247.9038,82.436432 1252.2872,77.153528 1253.1565,76.105838 1253.4061,71.275359 1253.1686,60.095967 1252.8556,45.365703 1252.9889,44.028181 1255.5695,36 1258.8615,25.758722 1261.2637,22 1264.5171,22 1272.934,22 1277.199,48.389051 1271.6122,65.899978 L 1269.2513,73.299955 1271.7982,78.209063 C 1274.787,83.969791 1275.8045,92.643346 1274.002,96.994952 1272.1337,101.5055 1270.2269,100.65514 1267.3536,94.030035 1264.0991,86.525639 1261.7433,85.484364 1257.858,89.83282 1256.34,91.531688 1254.6086,94.739295 1254.0104,96.960835 1252.7081,101.79731 1249.5471,102.56937 1247.9751,98.4349 z M 1250.9999,94.080587 C 1250.9999,92.635914 1261.0595,82 1262.4259,82 1264.2402,82 1267.5675,85.955447 1269.5761,90.5 1271.1772,94.122751 1271.3832,94.273936 1271.7607,92.103026 1272.3638,88.634581 1270.0451,81.207181 1267.3648,78.021768 L 1265.0548,75.276503 1267.4653,67.888251 C 1271.5834,55.266295 1271.74,41.473011 1267.9029,29.338428 1267.0085,26.509865 1264.4007,24.265864 1263.2941,25.372499 1263.0633,25.603266 1261.5305,29.551359 1259.8879,34.146038 1257.1588,41.779673 1256.8914,43.681396 1256.7876,56.201181 1256.7199,64.369993 1257.0941,70.42681 1257.7146,71.201181 1258.2869,71.915532 1259.0581,73.489103 1259.4284,74.698006 1259.9649,76.4496 1259.5192,77.19722 1257.2337,78.379075 1255.466,79.29321 1253.6783,81.518953 1252.5736,84.181069 1248.5564,93.861597 1248.2856,95 1249.9999,95 1250.5499,95 1250.9999,94.586264 1250.9999,94.080587 z"/>
</svg>
