<?xml version="1.0" encoding="UTF-8"?>
<svg xmlns="http://www.w3.org/2000/svg" viewBox="974.6 19.64 22.47 84.99">
  <path d="M 990.06438,99.577707 C 989.19997,98.536159 989.1581,95.14458 989.90094,86.338718 990.45022,79.827423 990.70233,64.825 990.4612,53 990.22007,41.175 990.01763,30.2625 990.01134,28.75 990.0028,26.69847 989.5069,26 988.05891,26 986.99137,26 985.89339,26.363299 985.61897,26.807331 985.04385,27.737894 983.1945,53.519026 982.3527,72.341392 981.6185,88.757696 979.87032,99.5 977.93295,99.5 977.08587,99.5 976.59887,98.6822 976.74195,97.5 977.58044,90.572205 980.02298,55.214306 980.47231,43.5 980.76766,35.8 981.37706,28.15 981.82655,26.5 982.57755,23.743126 983.00155,23.5 987.05836,23.5 990.7836,23.5 991.65855,23.890377 992.66161,26 995.07156,31.068561 994.45287,98.983974 991.98285,100.51053 991.56686,100.76763 990.70355,100.34786 990.06438,99.577707 z"/>
</svg>
