<?xml version="1.0" encoding="UTF-8"?>
<svg xmlns="http://www.w3.org/2000/svg" viewBox="2124.71 19.72 62.8 85.15">
  <path d="M 2183.3438,95.0625 2183.3438,89.21875 C 2182.9213,90.370978 2182.3979,91.443826 2181.75,92.0625 2179.4526,94.256288 2171.8155,98 2169.625,98 2168.9573,98 2166.6482,96.2 2164.5,94 2160.403,89.804294 2157.7554,89.103283 2154.4688,91.34375 2149.1155,94.992986 2143.2947,97.64846 2141.5,97.25 2138.785,96.647203 2135,93.026001 2135,91.03125 2135,90.137123 2134.5752,88.96 2134.0625,88.4375 2132.8345,87.185952 2132.7272,74.945557 2133.875,68 2134.3749,64.975 2136.1483,59.927566 2137.8125,56.78125 2141.2462,50.289437 2141.0612,47.340279 2137.125,45.84375 2132.5269,44.095534 2131,41.995415 2131,37.375 2131,34.215092 2131.5989,32.48876 2133.25,30.90625 2135.9025,28.36393 2141.1053,26 2144,26 L 2146.0312,26 2144.0312,29.96875 C 2140.7097,36.479565 2141.1314,37.361709 2147.1562,36.5625 L 2152.3125,35.90625 2150.5,38.6875 C 2149.5078,40.229936 2148.0844,42.383872 2147.3438,43.46875 2146.6031,44.553629 2146,46.691129 2146,48.21875 2146,51.035321 2149.0362,55 2151.1875,55 2151.8348,55 2154.733,56.642869 2157.6562,58.65625 2162.8437,62.228981 2163.0943,62.299447 2167.25,61.0625 2169.5919,60.365431 2174.3042,58.49756 2177.7188,56.90625 2181.1009,55.330045 2184.0599,54.055644 2184.4062,54.03125 L 2184.6562,48 2184.625,47.84375 C 2184.264,49.390664 2183.5589,50.028581 2182.2188,51.15625 2180.6871,52.445057 2176.1289,54.844348 2172.0938,56.46875 L 2164.75,59.40625 2161.125,57.15625 C 2159.1293,55.920369 2155.5875,54.010424 2153.25,52.90625 2147.9632,50.408923 2147.6602,47.528331 2152,41 2154.7305,36.892539 2156.0725,30.945144 2154.25,31.03125 2153.8375,31.05074 2152.375,31.713979 2151,32.5 2147.3677,34.576407 2144.6134,34.450154 2145.5312,32.25 2148.4042,25.362729 2148.4844,24.902646 2147.125,24.0625 2146.357,23.587844 2143.3409,23.790973 2140.1562,24.53125 2133.6748,26.037924 2130.6443,28.90271 2128.9688,35.125 2127.5653,40.337352 2128.9392,43.957205 2133.8438,48 L 2137.4062,50.9375 2134.6875,56.71875 C 2131.2098,64.177845 2130.0676,69.733411 2130.0312,79 2129.9791,92.307543 2134.4895,99.989726 2142.375,100 2143.953,100.00206 2147.8311,98.425 2151,96.5 2154.1689,94.575 2157.1147,93 2157.5312,93 2157.9478,93 2160.2383,94.8 2162.625,97 2165.0117,99.2 2167.8882,101 2169.0312,101 2170.1744,101 2173.8306,99.65 2177.1562,98 2180.4154,96.382987 2183.0923,95.114988 2183.3438,95.0625 z M 2184.2188,58.59375 C 2182.2433,61.894092 2176.3286,65.567048 2167.75,68.59375 2164.0228,69.908775 2163.5631,69.844735 2159.1562,67.3125 2156.5943,65.840474 2153.4367,63.808958 2152.125,62.8125 2148.6367,60.162468 2144.5798,60.483743 2142.5625,63.5625 2139.7856,67.800726 2138.5486,77.404536 2139.9688,83.75 L 2141.1875,89.21875 2145.1875,88.59375 C 2147.3847,88.242404 2150.9349,87.05418 2153.0625,85.96875 2158.5923,83.147678 2161.0977,83.473887 2165,87.5 2166.8658,89.425 2168.9686,91 2169.6562,91 2170.3439,91 2173.5905,89.425 2176.875,87.5 2180.1285,85.593146 2182.9779,84.060555 2183.3438,84.03125 L 2183.3438,79.34375 2183.125,79.09375 C 2183.0547,79.25404 2183.0096,79.634535 2182.9375,79.75 2182.2727,80.814528 2179.7313,82.882712 2177.3125,84.34375 2171.7861,87.681827 2170.3281,87.641458 2166.0312,83.96875 2161.7301,80.292392 2158.0475,80.164285 2151.7812,83.5 2143.5466,87.883626 2142,86.902319 2142,77.375 2142,71.421356 2144.0714,65.290249 2146.375,64.40625 2147.179,64.097741 2151.4797,65.960034 2155.9375,68.53125 L 2164.0312,73.1875 2168.2812,71.53125 C 2170.6069,70.608939 2174.9523,68.545164 2177.9375,66.9375 2180.7445,65.425814 2183.1813,64.33175 2183.9375,64.1875 L 2184,64 2184.2188,58.59375 z"/>
</svg>
