<?xml version="1.0" encoding="UTF-8"?>
<svg xmlns="http://www.w3.org/2000/svg" viewBox="841.52 15.42 54.55 87.56">
  <path d="M 893.40625,81.15625 892.875,80.96875 888.5625,84.5 884.28125,88.03125 879.53125,83.46875 C 875.04084,79.166325 874.86549,78.823304 876.28125,76.71875 877.36402,75.109179 878.58334,74.569462 880.71875,74.78125 882.47782,74.955714 884.61844,74.337473 886,73.21875 890.72723,69.390872 885.58306,63.016432 880.125,65.9375 878.29304,66.917936 877.84039,66.609936 876.0625,63.125 L 874.0625,59.1875 876.65625,51.84375 C 880.69416,40.375376 880.08065,27.053282 875.28125,21.75 873.66433,19.963323 868.45754,19.398018 866.28125,20.78125 864.24529,22.07529 859.9539,32.566915 859.34375,37.71875 858.94158,41.114417 859.39843,44.961617 860.875,50.34375 L 863,58.0625 861.03125,61.96875 C 858.37647,67.172533 857.55716,67.512022 853.59375,65.0625 848.05795,61.641189 844,64.150415 844,71.03125 844,74.754057 846.85997,76.368402 852,75.5 855.74811,74.866761 855.93056,74.973572 857.96875,78.96875 L 860.09375,83.09375 856.53125,87.21875 C 854.58325,89.49456 853.01374,92.298999 853.03125,93.4375 853.05654,95.082409 854.07738,94.370529 858,90 860.71499,86.975 862.95125,83.745897 862.96875,82.8125 862.98626,81.879103 861.87598,78.99411 860.5,76.40625 L 858,71.6875 860.0625,68.59375 C 861.20273,66.890008 863.02798,63.580091 864.125,61.21875 866.07172,57.028461 866.09634,56.800421 864.34375,51.71875 861.70201,44.059022 861.89421,32.710222 864.78125,27.25 866.66929,23.679184 867.51613,23 870.0625,23 872.61908,23 873.33286,23.586653 874.65625,26.75 876.96295,32.263766 876.6947,44.19077 874.09375,50.78125 871.37387,57.673104 871.45656,61.519994 874.5,66.84375 877.39172,71.902126 877.41235,72 875.65625,72 873.86513,72 871.82047,78.823174 872.96875,80.96875 874.14003,83.157301 882.69594,91 883.90625,91 884.42641,91 886.85417,89.470232 889.3125,87.59375 891.37801,86.017109 892.52556,85.21708 893.46875,84.9375 L 893.40625,81.15625 z M 849.28125,67.25 C 850.44118,67.418018 851.68948,68.124611 852.40625,69.28125 853.25729,70.654547 853.15827,71.261625 852,72 848.48313,74.241937 845.25415,72.091317 846.65625,68.4375 847.03898,67.440127 848.12132,67.081982 849.28125,67.25 z M 882.84375,68 C 885.20293,68 885.98681,68.836516 885.3125,70.59375 884.74712,72.067094 882.78823,72.475731 881.65625,71.34375 880.32915,70.01665 881.05217,68 882.84375,68 z M 893.53125,91.3125 C 892.22014,91.541156 890.87283,92.221314 888.9375,93.5625 L 885.25,96.09375 881.84375,93.78125 C 879.9733,92.51193 877.35613,90.484314 876.03125,89.25 874.70637,88.015687 872.43371,87 870.96875,87 868.09299,87 862.33845,90.43221 860.625,93.1875 858.72001,96.250781 860.73688,96.195967 865.0625,93.0625 867.39618,91.371991 869.93918,90 870.71875,90 871.49833,90 874.61793,92.025 877.65625,94.5 880.69458,96.975 883.73967,99 884.4375,99 885.13533,99 887.38008,97.875 889.40625,96.5 891.29554,95.217894 892.45352,94.59491 893.59375,94.375 L 893.53125,91.3125 z"/>
</svg>
