<?xml version="1.0" encoding="UTF-8"?>
<svg xmlns="http://www.w3.org/2000/svg" viewBox="721.28 14.39 35.72 90.95">
  <path d="M 752.45808,31.132082 C 753.20125,28.790569 751.45176,24 749.85349,24 748.20785,24 745,27.029439 745,28.583559 745,32.322903 751.38738,34.505554 752.45808,31.132082 z M 734.87154,94.436176 C 736.88639,91.874719 736.82842,90.867758 734.39442,86.147938 733.35338,84.129243 733.5951,82.924505 736.09984,77.647938 738.91622,71.714889 739.01429,71.010658 738.90551,57.5 738.84352,49.8 739.34066,40.724652 740.01026,37.33256 741.20256,31.292618 741.17124,31.091057 738.49517,27.58256 735.3142,23.412086 734.78318,23.306141 730.90437,26.068094 727.47,28.513582 727.32861,30.222637 730,37 732.5284,43.414591 732.53768,49.520164 730.02989,56.655269 728.94634,59.738186 727.76818,65.478624 727.41176,69.411799 726.81194,76.031109 726.95847,76.84999 729.38187,80.421059 730.82184,82.542978 731.99945,84.553798 731.99878,84.889547 731.99811,85.225296 730.87311,86.807493 729.49878,88.405539 726.55497,91.828556 726.54385,91.903743 728.5567,94.777494 730.59178,97.682977 732.39424,97.585554 734.87154,94.436176 z M 727.86061,97.211056 C 723.32585,92.98108 723.27878,92.259899 727.18339,86.835984 728.14021,85.50686 728.0014,84.32951 726.49366,80.985951 724.08265,75.63927 724.31449,65.406372 727.03994,56.874975 729.63582,48.749167 729.51345,44.770857 726.401,36.10279 724.97155,32.12182 723.95905,28.753815 724.151,28.618334 724.34295,28.482853 726.57135,26.713304 729.10299,24.686002 734.53011,20.340054 736.17758,20.139001 738.82134,23.5 741.30273,26.65458 743.03643,26.65458 746,23.5 750.67335,18.525442 755,21.06339 755,28.779271 755,33.911179 752.52032,36.219842 747.45187,35.806816 744.02273,35.527376 743.60912,35.76768 742.8164,38.5 742.33769,40.15 741.84465,48.7 741.72075,57.5 741.51403,72.182136 741.29996,73.867118 739.12175,77.957125 737.0813,81.788454 736.90611,82.851449 737.87401,85.528123 739.71552,90.620727 739.1982,93.275555 735.56997,97.352121 L 732.14151,101.20424 727.86061,97.211056 z"/>
</svg>
