<?xml version="1.0" encoding="UTF-8"?>
<svg xmlns="http://www.w3.org/2000/svg" viewBox="2016.79 14.77 73.48 91.99">
  <path d="M 2085.9375 58.15625 L 2081.875 59.875 C 2075.0607 62.706918 2073.5503 62.558791 2070 58.84375 C 2066.8746 55.573328 2063.8928 54.953425 2058.75 56.4375 L 2056 57.21875 L 2056 51.75 C 2056 47.757035 2056.697 44.989254 2058.625 41.40625 C 2061.7595 35.580973 2063.0608 30.692549 2061.9375 28.875 C 2061.2901 27.827535 2060.2906 28.019701 2057.1562 29.78125 C 2054.9873 31.000234 2052.9627 32 2052.625 32 C 2051.4048 32 2052.0433 29.754591 2054.0938 26.875 C 2055.7745 24.514544 2055.945 23.644919 2054.9688 22.46875 C 2052.0493 18.950973 2044.8704 21.703595 2040.125 28.15625 C 2034.2737 36.112841 2035.2076 42.494265 2042.3438 43.1875 L 2045.5 43.5 L 2045.2188 49.4375 C 2045.0668 52.706057 2044.7631 55.580596 2044.5312 55.8125 C 2044.2994 56.044404 2042.1523 55.28796 2039.75 54.125 C 2037.3476 52.96204 2034.6586 52 2033.7812 52 C 2030.2263 52 2022.8519 63.933063 2021.4375 72 C 2020.1265 79.477241 2020.7094 93.566601 2022.4688 96.96875 C 2023.8675 99.673515 2026.9288 101.20198 2027.0312 99.25 C 2027.4672 90.951212 2028.3288 82.363586 2029.1562 78 C 2030.3042 71.946734 2033.5797 65.703644 2035.3125 66.28125 C 2036.9441 66.825113 2041.0448 77.615717 2041.625 82.90625 C 2042 86.325081 2041.6063 88.513706 2040.0625 91.46875 C 2037.916 95.577511 2037.5586 97.70879 2038.5938 100.40625 C 2039.4179 102.5541 2039.7483 102.4559 2042.6562 99 C 2044.0446 97.35 2046.0304 96 2047.0625 96 C 2048.0947 96 2050.3121 97.35 2052 99 C 2055.6504 102.56835 2055.6172 102.57963 2057.0312 99.9375 C 2057.8515 98.404895 2057.8355 96.108575 2056.9688 91.1875 C 2055.8943 85.088004 2055.9925 84.006986 2058 78.6875 C 2059.2078 75.487138 2060.8713 72.594449 2061.6875 72.28125 C 2062.5037 71.968051 2064.9537 72.717163 2067.125 73.9375 L 2071.0625 76.15625 L 2077.6562 73.09375 C 2081.2768 71.399473 2084.8959 70 2085.7188 70 C 2086.0182 70 2086.2371 70.116709 2086.4062 70.28125 L 2086.6562 70 L 2086.6562 58.65625 L 2085.9375 58.15625 z M 2049.375 24.25 C 2050.0154 24.131842 2050.4672 24.154692 2050.625 24.3125 C 2050.9406 24.628115 2050.4052 26.966055 2049.4375 29.5 C 2047.0486 35.755364 2048.3107 37.043897 2054.5 34.75 C 2058.7116 33.189066 2059.0011 33.215399 2059 34.8125 C 2058.9993 35.748665 2057.8743 37.808204 2056.5 39.40625 C 2055.0807 41.056617 2053.9558 43.648574 2053.9062 45.40625 C 2053.8583 47.108204 2053.6474 50.75 2053.4375 53.5 C 2052.8809 60.794611 2053.7285 61.656423 2059.375 59.5 L 2064 57.71875 L 2068.5625 61.9375 C 2071.7241 64.851806 2073.6482 65.965526 2074.8125 65.5 C 2079.8968 63.466997 2086.0883 61.775742 2086.5938 62.28125 C 2086.9128 62.600333 2086.9232 63.711776 2086.5938 64.75 C 2086.0092 66.591685 2073.746 73 2070.8125 73 C 2070.0287 73 2068.0707 71.640756 2066.4688 69.96875 C 2061.826 65.122742 2060.0311 66.151631 2056.0938 76 C 2052.8686 84.066441 2052.768 84.783127 2053.8438 89.9375 C 2054.4673 92.924777 2054.7378 95.574692 2054.4688 95.84375 C 2054.1997 96.112809 2052.9583 95.350085 2051.6875 94.15625 C 2050.4167 92.962414 2048.5291 92 2047.5 92 C 2046.4709 92 2044.5854 92.991627 2043.3125 94.1875 C 2040.2727 97.043199 2040.3454 94.950219 2043.4062 91.3125 L 2045.7812 88.46875 L 2043.5312 79.3125 C 2041.0354 69.197005 2037.6845 62.737862 2035.1875 63.21875 C 2031.6828 63.893689 2027.9233 72.370369 2026.125 83.65625 C 2024.2093 95.678233 2023.2043 95.318791 2022.8438 82.5 C 2022.583 73.23046 2024.5756 65.576155 2028.8125 59.5 C 2030.3447 57.30278 2032.4462 55.359193 2033.5 55.15625 C 2035.4929 54.772452 2044 58.868722 2044 60.21875 C 2044 60.642737 2044.6543 61 2045.4688 61 C 2047.195 61 2047.7094 58.973573 2048.3125 49.78125 C 2048.8387 41.760995 2047.7206 39.641862 2042.875 39.5625 C 2039.931 39.514284 2039.4712 39.134844 2039.1875 36.65625 C 2038.7706 33.014941 2043.0852 26.629143 2047.0938 24.96875 C 2047.9075 24.631667 2048.7346 24.368158 2049.375 24.25 z "/>
</svg>
