<?xml version="1.0" encoding="UTF-8"?>
<svg xmlns="http://www.w3.org/2000/svg" viewBox="221.73 14.05 100.86 86.9">
  <path d="M245.35642 94.783311C243.37485 92.08879 240.81493 82.873516 241.40021 80.541591C241.73596 79.203838 243.76578 76.081442 245.91091 73.602934C249.37724 69.59791 249.72692 68.723091 249.05406 65.739714C247.35989 58.227944 242.07451 53.866364 238.28862 56.855889C235.84705 58.783878 232.0 66.093819 232.0 68.805174C232.0 69.841842 231.11144 71.494159 230.02543 72.476989C228.11326 74.207475 228.01981 74.182291 227.06851 71.680195C226.52822 70.259127 226.31925 66.572969 226.60412 63.488731C227.4782 54.025346 231.96931 46.102764 237.69348 43.926437C240.47937 42.867244 247.09655 44.253792 250.44342 46.59803C253.42753 48.688183 254.0 48.350483 254.0 44.5C254.0 41.49502 253.66834 41.0 251.65499 41.0C248.76295 41.0 246.24376 38.336749 244.98536 33.948951C244.18333 31.152441 244.42708 29.946956 246.51494 26.384295C249.92116 20.572015 253.46019 18.0 258.05153 18.0C262.46916 18.0 263.19348 19.259883 261.33877 23.717881C258.81705 29.779123 259.83915 30.389177 266.0 26.5C271.25736 23.181177 272.0 23.329241 272.0 27.696249C272.0 31.293199 267.81653 39.0 265.864 39.0C265.3888 39.0 265.0 41.025 265.0 43.5C265.0 48.119676 265.87865 49.056065 267.91318 46.604607C268.55012 45.837141 270.66218 44.910755 272.60664 44.545972C274.5511 44.181188 276.71685 43.662148 277.41942 43.392548C278.12198 43.122949 281.20968 44.949335 284.28096 47.451184C287.35224 49.953033 290.32256 52.0 290.88166 52.0C292.04556 52.0 296.3819 46.410672 297.35842 43.651777C297.71823 42.635254 297.33478 39.807028 296.50631 37.36683C295.67784 34.926631 295.0 31.431518 295.0 29.599911C295.0 26.004757 298.24299 21.0 300.57258 21.0C302.63924 21.0 302.32375 22.780865 300.0 24.232073C297.16444 26.002909 297.26592 32.797045 300.18332 36.505921L302.36664 39.28156L299.52785 44.703561C295.62926 52.149782 293.21731 55.0 290.81466 55.0C289.69256 55.0 286.12319 53.006994 282.88274 50.571097C276.38429 45.686127 274.19199 45.590911 268.09965 49.92904C262.97905 53.575233 262.0 52.853554 262.0 45.432848C262.0 39.222945 262.1904 38.686127 265.5 35.564771C267.425 33.749262 269.0 31.529481 269.0 30.631923C269.0 28.562979 268.87753 28.574705 264.0149 31.109252C260.63686 32.869986 259.70866 33.003097 258.39739 31.914845C256.79637 30.586115 256.84849 26.470285 258.51545 22.591433C259.24956 20.883236 259.00638 20.748724 256.19909 21.310183C250.29697 22.490606 246.39764 28.943904 248.39273 34.229513C249.18565 36.330193 250.10226 37.0 252.18405 37.0C255.85438 37.0 257.34947 40.011153 256.75436 46.204673C256.17012 52.284956 254.76337 54.000819 252.23709 51.714566C246.7679 46.765014 236.86645 45.046138 233.96472 48.54251C231.89668 51.034341 229.00058 60.498655 229.086 64.485883L229.172 68.5L232.05356 62.329425C235.18141 55.63144 237.99688 53.0 242.03542 53.0C244.99039 53.0 249.32446 57.048807 250.93638 61.3151C253.05166 66.913654 252.28275 70.529075 248.0 75.121906C245.8 77.481193 244.0 80.394785 244.0 81.596555C244.0 83.549286 247.78809 93.229092 248.07128 92.0C248.13464 91.725 248.32955 89.534905 248.50442 87.133123C248.75808 83.649074 249.59737 81.972561 252.65593 78.840317C258.14449 73.219521 260.31263 73.791801 264.62672 82.0C269.20908 90.71864 270.77209 91.740659 276.29671 89.630787C281.83459 87.51585 283.30527 87.574849 285.5 90.0C286.78803 91.423259 288.57997 92.0 291.714 92.0C296.80031 92.0 296.65887 93.598169 291.48669 94.568476C288.67365 95.096205 287.47649 94.737281 284.94504 92.607208C281.41547 89.637273 280.48527 89.507641 277.0 91.5C271.08068 94.883791 266.07745 91.895104 261.5 82.24104C260.3131 79.737822 258.80922 78.018282 257.80089 78.011473C255.13858 77.993496 251.0 84.175358 251.0 88.170077C251.0 92.299266 246.98748 97.001202 245.35642 94.783311Z M289.5 83.0C287.64361 80.94871 283.14435 80.317636 281.45 81.870892C280.9275 82.349882 279.31677 83.019835 277.8706 83.359675C274.22152 84.217186 270.79316 81.271236 268.06798 74.936395C265.52088 69.015488 265.89989 63.668283 269.16048 59.523116C273.08047 54.53965 274.36622 54.484536 283.54277 58.906619C288.16576 61.134388 292.52236 62.717176 293.2241 62.423926C294.998 61.682637 301.9914 52.562356 305.0 47.066655C306.77015 43.833198 308.22985 42.400397 310.0 42.158825C312.9087 41.761875 316.0 39.281717 316.0 37.345012C316.0 35.772943 314.39524 35.551477 313.5 37.0C312.52126 38.583628 307.99939 38.161977 307.33282 36.42493C306.45917 34.148244 308.646 27.630337 310.9975 25.502267C313.45781 23.275713 314.92592 24.299008 312.77882 26.743869C310.85166 28.938278 309.67275 32.661483 310.4876 33.979936C310.87094 34.600191 312.01392 34.381761 313.50817 33.402689C316.59321 31.381293 318.00812 32.303304 317.9682 36.309017C317.92821 40.320707 316.22713 42.588392 311.89751 44.401753C309.77904 45.289028 307.55884 47.422456 306.0 50.068792C302.28412 56.37697 294.02346 65.0 291.69625 65.0C290.58875 65.0 286.43909 63.375268 282.47479 61.389485C275.45656 57.873941 275.19841 57.823892 272.66055 59.486762C267.91439 62.596565 268.12095 72.070162 273.07216 78.364601C275.58651 81.561082 276.67837 81.616104 282.4031 78.834816L286.8597 76.669631L290.46465 79.834816C292.81217 81.895971 295.12445 83.0 297.09381 83.0C298.85532 83.0 299.85998 83.417535 299.5 84.0C298.36536 85.835893 291.43968 85.143326 289.5 83.0Z M301.36077 34.497764C300.48221 32.208273 301.7479 28.404417 304.42207 25.297464C307.49322 21.729283 308.95697 22.967948 306.04457 26.670465C304.38527 28.779922 304.00871 30.232872 304.47588 32.723127C304.95931 35.300011 304.75382 36.0 303.51393 36.0C302.64674 36.0 301.67782 35.323994 301.36077 34.497764Z"/>
</svg>
