<?xml version="1.0" encoding="UTF-8"?>
<svg xmlns="http://www.w3.org/2000/svg" viewBox="472.74 13.78 86.87 84.79">
  <path d="M 476.6875,55.6875 477.09375,59.625 C 477.33775,58.716857 478.25076,59.069175 481.75,60.53125 488.52451,63.361821 501.65943,61.72018 504.25,57.71875 507.14885,53.241146 507.16992,50.271088 504.40625,44.25 502.95833,41.095464 501.55045,36.025 501.28125,33 500.85712,28.234159 501.14227,26.976028 503.4375,23.625 506.30016,19.445505 506.14928,17.63509 503.15625,20.34375 502.13727,21.265911 500.51473,24.627616 499.5625,27.78125 497.93078,33.185285 497.93444,33.787627 499.53125,38.5 500.4631,41.25 502.08902,45.178161 503.125,47.21875 504.16098,49.259339 505,51.568008 505,52.375 505,54.839181 500.41383,57.647432 494.1875,58.96875 488.76487,60.119509 487.86709,60.02552 483.5,58.09375 480.87959,56.934617 478.07538,56 477.25,56 476.99271,56 476.8568,55.803978 476.6875,55.6875 z M 512.625,23.9375 C 510.6675,25.130775 506.75599,33.940438 507.40625,36.53125 507.69333,37.675064 509.29965,40.508364 510.96875,42.8125 513.96177,46.944246 517.98834,48.445918 519.5,46 519.83992,45.45 519.2126,45 518.125,45 515.83532,45 512.32217,39.829634 511.375,35.09375 510.93851,32.911306 511.32269,30.828958 512.59375,28.46875 513.94516,25.959325 514.15004,24.74379 513.34375,23.9375 513.1624,23.756146 512.90464,23.767032 512.625,23.9375 z M 477.34375,62.125 477.84375,67.03125 C 478.32267,67.057288 481.08595,67.652364 484.15625,68.375 488.97738,69.509715 490.39585,69.47408 493.65625,68.25 503.3121,64.624824 504.88902,64.45152 507.03125,66.59375 508.22949,67.791989 509.46525,71.098272 510.125,74.84375 511.40278,82.097803 513.69052,82.890841 513.1875,75.90625 512.49164,66.244047 507.2089,60.18863 501.6875,62.75 492.66681,66.934694 491.29596,67.222827 486.03125,66.09375 480.48657,64.904628 478.07429,63.791865 477.34375,62.125 z M 530.9375,79.53125 C 530.17832,79.429615 529.29904,79.843055 527.59375,80.65625 525.67633,81.570601 522.71471,84.268554 521,86.65625 517.60241,91.387304 514.13755,92.329827 510.4375,89.53125 509.36988,88.723742 507.9375,88.048742 507.25,88.03125 505.20853,87.97931 505.82699,90.622293 508.25,92.3125 511.69056,94.712509 516.76385,94.385767 520.15625,91.53125 L 523.0625,89.0625 527.09375,91.15625 C 530.37599,92.867052 531.57372,93.062396 533.5625,92.15625 536.97806,90.600015 536.95576,84.862012 533.53125,81.4375 532.32878,80.235033 531.69668,79.632885 530.9375,79.53125 z M 555.65625,28.28125 555.34375,26 C 552.00061,29.023516 548.33782,34.440754 543.5625,43.71875 537.90467,54.711371 536.20691,57.183248 532.34375,59.90625 526.86412,63.768653 527.30805,65.3821 532.84375,61.71875 537.31157,58.762086 550,39.763994 550,36.03125 550,34.275566 552.77268,30.879364 555.65625,28.28125 z M 530.75,82.1875 C 531.36435,82.33602 531.87233,82.773935 532.46875,83.5625 533.27687,84.630958 533.95125,86.5125 533.96875,87.75 534.01069,90.71715 529.82866,90.828664 526.9375,87.9375 524.40947,85.409471 524.84054,83.80063 528.34375,82.5625 529.42642,82.179857 530.13565,82.03898 530.75,82.1875 z"/>
</svg>
