<?xml version="1.0" encoding="UTF-8"?>
<svg xmlns="http://www.w3.org/2000/svg" viewBox="688.4 17.18 32.06 81.49">
  <path d="M 717.34375 80.34375 C 716.86273 80.367664 716.74691 80.5 716.09375 80.5 C 713.23411 80.5 711.4299 79.982263 710.90625 79 C 706.33835 70.431456 704 64.339816 704 61.09375 C 704 58.985043 705.6497 53.037344 707.65625 47.875 C 709.66281 42.712657 711.47949 36.20601 711.71875 33.40625 C 712.12282 28.677905 711.89985 28.036734 708.59375 24.53125 C 705.57787 21.333487 704.63172 20.885316 702.28125 21.46875 C 698.61392 22.379053 695.33417 25.530665 694.71875 28.75 C 694.44549 30.179494 695.14903 33.91574 696.28125 37.0625 L 698.3125 42.8125 L 694.59375 52.71875 C 690.40449 63.88715 690.44982 65.384096 695.28125 73.15625 C 696.92395 75.798795 699.50016 81.438264 701 85.6875 L 703.75 93.4375 L 709.625 93.5625 C 712.86035 93.643709 716.625 94.188676 718 94.78125 C 718.21202 94.872623 718.26025 94.882608 718.46875 94.96875 L 718.21875 91.53125 C 717.52148 91.374194 716.91358 91.292579 716 91 C 714.625 90.559648 711.8835 90.148574 709.90625 90.09375 C 706.35594 89.99531 703 87.607328 703 85.15625 C 703 83.136792 698.18596 72.349436 695.53125 68.4375 C 692.57711 64.084324 692.70258 62.973117 697.71875 51 L 701.28125 42.5 L 699.03125 36.21875 C 696.09502 28.011867 696.74479 25 701.4375 25 C 706.00219 25 709 28.735902 709 34.4375 C 709 36.728327 708.59264 39.04 708.09375 39.5625 C 707.59486 40.085 706.70289 42.075 706.125 44 C 705.5471 45.925 704.16777 49.975 703.0625 53 C 700.06672 61.199157 700.41214 65.422294 704.65625 73.53125 C 709.81549 83.388711 710.46801 84 716.125 84 C 716.72818 84 717.11397 83.883985 717.625 83.84375 L 717.34375 80.34375 z "/>
</svg>
