<?xml version="1.0" encoding="UTF-8"?>
<svg xmlns="http://www.w3.org/2000/svg" viewBox="2281.79 15.88 92.56 92.31">
  <path d="M2321.1612 101.49509C2318.2249 100.12814 2314.5127 98.077116 2312.9119 96.937258C2309.5397 94.536085 2307.7597 94.853973 2300.735 99.111802C2298.1142 100.70031 2295.1892 101.99832 2294.235 101.99626C2291.5817 101.99055 2286.0 98.228954 2286.0 96.446604C2286.0 95.114276 2286.4596 95.191072 2288.9044 96.931906C2292.9528 99.81467 2295.3174 99.547571 2303.6298 95.268557L2310.8784 91.537113L2313.1892 93.569162C2316.2624 96.271621 2325.3401 101.0 2327.4552 101.0C2328.3816 101.0 2331.0207 99.713282 2333.3198 98.140627C2338.8793 94.337776 2343.5321 92.0 2345.5414 92.0C2346.4438 92.0 2349.0221 93.575 2351.271 95.5C2356.1478 99.674349 2357.3839 99.782698 2362.2679 96.463949C2365.064 94.563899 2366.0 94.296038 2366.0 95.395855C2366.0 96.874788 2362.0004 100.13307 2358.7413 101.30922C2356.4738 102.12753 2352.4947 100.59405 2348.7842 97.471879C2347.1685 96.112345 2345.1313 95.0 2344.2572 95.0C2343.3831 95.0 2339.4189 97.025 2335.4479 99.5C2331.4769 101.975 2327.8392 103.9956 2327.364 103.99023C2326.8888 103.98486 2324.0975 102.86205 2321.1612 101.49509Z M2292.25 90.325576C2291.0125 89.46234 2290.0 88.135943 2290.0 87.378028C2290.0 85.63086 2290.9861 85.674928 2293.4411 87.531803C2296.2539 89.659272 2297.8172 89.367643 2301.6528 86.0C2305.7423 82.409323 2306.925 82.321604 2311.9849 85.23368C2314.1195 86.462204 2316.1986 87.13478 2316.605 86.728292C2317.6505 85.682822 2317.1318 69.731842 2316.0161 68.616096C2315.4517 68.051743 2313.4096 68.335649 2310.763 69.346416C2308.3816 70.255887 2304.7541 71.0 2302.7019 71.0C2299.5679 71.0 2298.6515 70.479766 2296.9769 67.75C2294.1521 63.145336 2293.0329 58.701217 2292.3247 49.278011C2291.8365 42.780605 2292.0696 40.10626 2293.4362 36.528011C2294.3872 34.037605 2295.782 32.0 2296.5357 32.0C2297.7112 32.0 2299.9774 37.53917 2299.9944 40.454164C2299.9975 40.978954 2301.0033 44.748785 2302.2296 48.831567C2303.7308 53.829592 2305.2017 56.741253 2306.7317 57.743752C2308.8086 59.104602 2309.4634 59.00796 2314.3434 56.620441C2317.28 55.183698 2320.4568 53.152776 2321.4029 52.10728C2323.4043 49.895813 2324.5766 40.887187 2323.5649 35.494208C2322.927 32.093912 2322.6511 31.84259 2320.1851 32.415716C2309.9994 34.783062 2307.6128 33.913264 2307.7839 27.896035C2307.9599 21.705139 2312.0619 20.284377 2317.5889 24.5C2319.3916 25.875 2321.0597 27.0 2321.2958 27.0C2321.5318 27.0 2323.4237 25.65 2325.5 24.0C2330.4388 20.075121 2332.8557 20.19252 2336.3127 24.525231L2339.1255 28.050402L2345.1023 24.86478C2351.7096 21.343123 2352.7381 21.61119 2353.6266 27.08662C2354.043 29.652623 2353.6434 31.18362 2352.0177 33.250313C2350.1927 35.570483 2349.1019 36.0 2345.0344 36.0C2339.3454 36.0 2339.0 36.539562 2339.0 45.4268C2339.0 52.943593 2340.1317 54.277219 2347.8944 55.90774C2355.2587 57.454606 2356.7703 56.265218 2362.6833 44.270647C2365.3325 38.896791 2367.95 34.5 2368.5 34.5C2369.05 34.5 2369.6357 37.111945 2369.8015 40.304322C2370.1444 46.904864 2367.9762 53.758266 2362.9721 61.890981C2357.3892 70.964305 2351.5957 73.553612 2345.162 69.850875C2342.9466 68.575846 2340.7664 67.899888 2340.317 68.348748C2339.5927 69.07227 2338.0284 84.006168 2338.5912 84.823736C2338.7138 85.001791 2340.2284 84.416105 2341.957 83.522211C2345.4995 81.690325 2348.3737 82.199468 2351.7077 85.249508C2353.4768 86.867947 2354.7127 87.14165 2357.9291 86.627329C2361.2129 86.102226 2361.8403 86.252679 2361.379 87.45469C2360.7157 89.183285 2357.3087 90.502805 2354.5583 90.096306C2353.4903 89.938467 2351.1979 88.727227 2349.4639 87.404663C2345.8456 84.644845 2344.2819 84.472188 2341.5589 86.531803C2340.4912 87.339312 2338.8037 88.0 2337.8089 88.0C2336.1921 88.0 2336.0 87.002638 2336.0 78.610784C2336.0 67.267573 2337.5204 64.296482 2342.7386 65.442596C2344.4564 65.819875 2346.398 66.774632 2347.0533 67.564279C2349.9318 71.03262 2356.0814 68.233374 2360.8814 61.269816C2363.3685 57.66166 2368.0 45.136611 2368.0 42.018781C2368.0 38.65238 2366.1425 39.757078 2365.0632 43.765376C2363.7651 48.586002 2358.7988 56.432412 2355.8127 58.380478C2353.7305 59.738882 2352.8035 59.701737 2346.5103 58.007711C2336.5295 55.321051 2335.5945 53.886195 2336.4765 42.610718C2336.8593 37.717522 2337.3768 33.181626 2337.6265 32.530949C2337.8762 31.880273 2336.3749 29.466962 2334.2902 27.168035L2330.5 22.988169L2328.07 24.884134C2325.7451 26.698171 2325.637 27.298771 2325.57 38.783064C2325.49 52.494512 2325.2049 53.101909 2316.5 58.106602C2305.4025 64.486826 2301.334 61.06325 2297.3591 42.0C2296.3667 37.240633 2295.9974 36.602553 2294.8815 37.718523C2293.0488 39.551199 2295.5778 59.504876 2298.2604 64.377376C2300.9953 69.345102 2303.232 69.875673 2309.5874 67.06435C2315.7755 64.327087 2317.5337 64.456688 2318.8894 67.75C2320.1833 70.893367 2320.6488 84.382316 2319.5796 87.75C2318.6839 90.570952 2315.2268 90.716661 2310.9468 88.113849C2307.3141 85.90465 2305.0254 86.279628 2301.9115 89.594186C2299.3208 92.351912 2295.5627 92.636403 2292.25 90.325576Z M2316.0818 31.0C2318.2601 31.0 2316.8029 26.949432 2314.1268 25.565563C2310.9187 23.906572 2310.0 24.329771 2310.0 27.466667C2310.0 30.104346 2311.9844 32.219968 2313.8036 31.521855C2314.5516 31.234835 2315.5768 31.0 2316.0818 31.0Z M2349.0657 32.964816C2350.3968 32.252437 2351.0 30.867591 2351.0 28.523833C2351.0 26.650644 2350.6454 24.898905 2350.2121 24.631081C2349.7787 24.363257 2347.6767 25.61127 2345.5408 27.404443C2342.8336 29.677239 2341.8512 31.169865 2342.2973 32.332379C2343.0201 34.216018 2346.1767 34.510969 2349.0657 32.964816Z"/>
</svg>
