<?xml version="1.0" encoding="UTF-8"?>
<svg xmlns="http://www.w3.org/2000/svg" viewBox="1156.4 17.15 53.2 84.7">
  <path d="M 1207.0938 25.5625 C 1206.4478 25.54386 1205.8516 25.27962 1205.0938 24.59375 C 1202.5346 22.277753 1199.8124 22.623833 1195.2812 25.90625 L 1191.25 28.84375 L 1187.4062 24.90625 C 1185.3022 22.751588 1183.1527 21 1182.625 21 C 1182.0973 21 1179.4987 22.390069 1176.8438 24.09375 L 1172.0312 27.1875 L 1168.9375 24.59375 C 1165.3116 21.542697 1164.6993 21.456886 1162.5 23.65625 C 1160.2191 25.937093 1158.8213 29.887918 1159.5312 32.125 C 1160.2906 34.517481 1164.2053 35.495695 1167 34 C 1170.3486 32.207888 1171.5822 33.335854 1173.875 40.125 C 1176.5421 48.022772 1176.5238 48.660689 1173.5 55.15625 C 1170.5265 61.543666 1170.2076 69.342653 1172.625 76.4375 C 1174.1369 80.874767 1174.1523 81.484759 1172.625 84.6875 C 1170.8431 88.424246 1170.8963 88.651516 1175.25 94.25 C 1176.854 96.3125 1178.76 98 1179.4688 98 C 1180.1775 98 1182.6255 95.974276 1184.9062 93.5 C 1189.2307 88.808481 1189.3498 87.951367 1186.8438 81.15625 C 1186.2235 79.474832 1186.5712 77.511214 1188.0938 74.15625 C 1190.5818 68.673955 1190.6761 63.285506 1188.4375 53.5 C 1186.9307 46.913077 1186.9323 46.175439 1188.6562 41 L 1190.5 35.5 L 1195 35.75 C 1201.9585 36.142551 1203.9651 35.335724 1205.5938 31.4375 C 1205.9967 30.473 1206.5382 29.599286 1207.1875 28.875 L 1207.0938 25.5625 z M 1180.5625 24.8125 C 1181.9716 24.562133 1183.2304 25.17868 1184.875 26.5625 C 1188.8023 29.867136 1189.431 32.052546 1187.625 36.375 C 1185.2038 42.169665 1184.7188 48.396975 1186.0938 56.1875 C 1187.7956 65.829768 1187.4809 70.470945 1184.875 74.6875 C 1182.9956 77.72835 1182.8823 78.624218 1183.875 81.9375 C 1185.5766 87.617212 1185.2748 89.65657 1182.375 91.9375 C 1178.9541 94.628395 1178.5455 94.561999 1176.0312 91.03125 L 1173.9062 88.0625 L 1176.1875 84.09375 C 1178.3187 80.390655 1178.3439 80.039255 1176.7812 78.3125 C 1175.8644 77.299336 1174.5403 74.354279 1173.8438 71.75 C 1172.3447 66.145482 1173.8121 56.961781 1176.7188 53.75 C 1179.133 51.08224 1178.7507 45.114653 1175.625 36.875 L 1173.125 30.25 L 1175.3125 28.25 C 1177.6009 26.167385 1179.1534 25.062867 1180.5625 24.8125 z M 1166 26.09375 C 1166.6849 26.294452 1167.3914 26.760309 1168.0312 27.53125 C 1169.082 28.797378 1168.976 29.311858 1167.4062 30.5 C 1164.9555 32.355004 1162 32.411376 1162 30.59375 C 1162 27.309226 1163.9453 25.491644 1166 26.09375 z M 1199.9062 26.4375 C 1201.9559 25.917055 1203.1161 27.110539 1202.8125 29.75 C 1202.5683 31.873022 1201.926 32.538939 1200 32.6875 C 1194.5787 33.105658 1193.2976 30.346231 1197.5938 27.53125 C 1198.4507 26.969736 1199.223 26.610982 1199.9062 26.4375 z "/>
</svg>
