<?xml version="1.0" encoding="UTF-8"?>
<svg xmlns="http://www.w3.org/2000/svg" viewBox="1371 18.1 41.07 85.8">
  <path d="M 1400.5938,76.84375 C 1400.5175,76.776764 1400.0742,76.582977 1400.0312,76.53125 1398.8366,75.09179 1396.7184,58.240718 1397.5625,56.875 1397.9501,56.247884 1399.3239,56.894206 1401,58.5 1404.8759,62.213388 1405.8999,59.933456 1402.5938,54.9375 1399.5996,50.413055 1398.9859,50.246489 1396.4375,53.0625 1394.4974,55.20621 1394.0816,59.802376 1395.2188,66 1397.81,80.121841 1396.8236,93.011303 1392.9062,96.25 1390.3027,98.402455 1390.0868,98.402406 1387.125,96.125 1382.1316,92.285507 1382.713,80.751553 1388.4688,69.59375 1391.3227,64.061367 1391.6524,59.520786 1389.5938,54.59375 1387.4243,49.401407 1386.2576,49.333145 1381.375,54.125 1376.922,58.495347 1377.069,61.160723 1381.5312,56.96875 1382.8929,55.68958 1384.5494,55.002935 1385.4375,55.34375 1387.7073,56.214763 1387.4452,63.834391 1384.9062,70.21875 1379.3412,84.211931 1379.1923,93.180119 1384.4688,97.71875 1385.922,98.968866 1388.2232,100 1389.5938,100 1392.2028,100 1396.4935,96.144549 1397.5312,92.875 1397.8516,91.865825 1398.6695,91.07764 1399.375,91.03125 L 1399.7188,86.84375 C 1399.1761,86.243294 1399,85.553626 1399,84.5625 1399,83.252336 1399.3675,82.560295 1400.125,82.28125 L 1400.5938,76.84375 z M 1384.875,22 C 1383.2593,22 1383.9596,25.008205 1387,31.03125 1388.6579,34.315566 1390.6416,37 1391.375,37 1392.8206,37 1404,26.233787 1404,24.84375 1404,22.951391 1401.8885,24.247613 1397.5938,28.75 L 1393.0625,33.5 1390.5625,30.5 C 1389.2017,28.85 1387.5817,26.2625 1386.9375,24.75 1386.2933,23.2375 1385.3583,22 1384.875,22 z M 1409.875,28.1875 C 1409.6763,27.698472 1408.0175,28.825967 1405.0625,31.84375 1398.5125,38.533142 1397.791,40.016956 1399.5312,43.0625 1400.2971,44.40267 1401.3946,46.611774 1402,47.96875 1402.6054,49.325726 1403.602,51.013226 1404.1875,51.71875 1404.773,52.424274 1405.5778,53 1405.9688,53 1407.9722,53 1407.7066,51.199293 1405,46.46875 1403.3577,43.598282 1402,40.721877 1402,40.0625 1402,39.403123 1403.8,36.734069 1406,34.125 1408.8215,30.778868 1410.0737,28.676528 1409.875,28.1875 z M 1377.4688,28.0625 C 1377.1644,28.187871 1377,28.6851 1377,29.5625 1377,30.416679 1378.125,32.757756 1379.5,34.78125 1380.875,36.804745 1382,39.322211 1382,40.375 1382,41.427788 1379.975,44.447775 1377.5,47.09375 1375.025,49.739725 1373,52.395187 1373,52.96875 1373,54.741141 1373.8899,54.167514 1378.7812,49.25 1386.635,41.354421 1386.4676,41.82296 1383.5938,36.34375 1380.5923,30.621152 1378.3817,27.686386 1377.4688,28.0625 z"/>
</svg>
