<?xml version="1.0" encoding="UTF-8"?>
<svg xmlns="http://www.w3.org/2000/svg" viewBox="136.5 19.29 19.73 83.19">
  <path d="M148.45539 96.927818C148.08707 96.331871 145.72895 95.998741 143.14637 96.177818L138.5 96.5L138.50693 76.5C138.51565 51.318962 139.04399 29.220714 139.72212 25.673283C140.16052 23.379976 140.58488 23.067394 142.37205 23.721351C143.54242 24.149608 146.68982 24.452014 149.36627 24.393365L154.23255 24.28673L153.60838 28.840525C153.26509 31.345112 152.73408 46.918098 152.42835 63.44716C152.12263 79.976222 151.66761 94.5125 151.41719 95.75C150.93254 98.145095 149.54799 98.695685 148.45539 96.927818Z M149.09419 89.25C149.14599 87.1875 149.2889 77.625 149.41178 68.0C149.53465 58.375 150.00992 45.4375 150.46793 39.25L151.30068 28.0L146.75442 28.0L142.20816 28.0L141.61505 35.75C140.64175 48.4676 139.78308 90.840002 140.47594 91.961064C140.82909 92.532479 142.89148 93.0 145.05902 93.0C148.92963 93.0 149.00168 92.933041 149.09419 89.25Z"/>
</svg>
