<?xml version="1.0" encoding="UTF-8"?>
<svg xmlns="http://www.w3.org/2000/svg" viewBox="871.38 14.5 23.11 87.28">
  <path d="M879.29408 95.618062C873.83475 93.714128 873.52816 92.910425 875.40738 85.429221C877.43655 77.351052 878.33515 56.967058 877.05739 48.0C873.38489 22.227101 873.44444 21.37702 878.9335 21.220954C880.55127 21.174957 882.78415 20.650705 883.89546 20.055949C886.86299 18.467772 887.67399 20.678388 889.9917 36.673172C892.47955 53.842066 892.49194 61.256204 890.05824 76.5C887.0734 95.195874 885.59789 97.81651 879.29408 95.618062Z M883.90393 92.615751C885.6591 90.500913 887.99572 75.823325 888.61867 63.0C889.03834 54.361222 888.68148 48.061317 887.18436 37.679031C886.08823 30.077498 884.97268 23.639345 884.70536 23.372023C884.43804 23.104702 882.70747 23.28558 880.85966 23.773975C877.03559 24.784711 877.13026 24.037393 878.99425 38.5C880.74062 52.050042 880.5445 72.670726 878.58052 82.0C876.55576 91.618 876.57252 91.892623 879.25 92.968838C882.34009 94.210901 882.5962 94.19147 883.90393 92.615751Z"/>
</svg>
