<?xml version="1.0" encoding="UTF-8"?>
<svg xmlns="http://www.w3.org/2000/svg" viewBox="1484.96 17.39 70.96 87.67">
  <path d="M 1544.625 28.53125 C 1544.167 28.204356 1543.6205 27.474808 1542.7812 26 C 1540.5106 22.009459 1537.9279 22.175967 1532.9688 26.65625 L 1528.9062 30.3125 L 1524.5625 26.0625 C 1519.7892 21.377949 1519.3936 21.399982 1512.5 26.5625 L 1509.5 28.8125 L 1506.0312 26.40625 C 1502.178 23.73967 1499.9859 23.389118 1498.1875 25.1875 C 1496.3186 27.056363 1496.7662 32.472424 1498.9375 34.4375 C 1500.6331 35.971997 1501.2892 36.013416 1504.4375 34.875 C 1507.5113 33.763503 1508.2314 33.825122 1509.5625 35.15625 C 1510.9988 36.592541 1513.666 50.646578 1512.6875 51.625 C 1512.4488 51.863689 1510.2851 51.575757 1507.875 50.96875 C 1505.4649 50.361743 1502.5086 49.611748 1501.2812 49.3125 C 1497.0831 48.288902 1494.1257 49.838236 1491.875 54.25 C 1488.1819 61.489058 1489.3971 71.109236 1494.7812 77.25 C 1497.7553 80.641862 1498.753 79.359775 1498.6562 72.25 C 1498.541 63.773145 1499.5092 59.989506 1501.7812 60.03125 C 1508.3345 60.151656 1511.5292 71.306863 1506.375 76.0625 C 1504.9299 77.395873 1503.165 79.815554 1502.4688 81.4375 C 1501.3153 84.124733 1501.5206 85.034546 1504.8125 91.6875 C 1506.7995 95.703054 1508.9958 99 1509.6875 99 C 1510.3792 99 1511.6441 97.931261 1512.5 96.625 C 1513.7269 94.752524 1513.8715 93.353635 1513.125 90.03125 C 1512.331 86.497433 1512.4998 85.266574 1514.1875 82.40625 C 1516.4916 78.501035 1518.1598 78.159829 1521 81 C 1523.2318 83.231799 1523.2278 83.118379 1523.0312 91.5625 C 1522.9255 96.109109 1523.2992 98.008717 1524.5312 99.03125 C 1526.9977 101.07825 1529.0389 99.218837 1531.2812 92.9375 C 1534.3338 84.386177 1534.5497 79.63012 1532.0938 75.65625 C 1529.5639 71.56297 1529.4543 69.276923 1531.6562 66.84375 C 1533.682 64.605391 1536.307 64.48501 1538.0312 66.5625 C 1540.6143 69.674956 1543.0657 70.30815 1547.2188 68.9375 C 1549.2389 68.270787 1550.4925 68.171952 1551.375 68.625 L 1552 56 L 1550.9688 54.65625 C 1550.2162 55.460051 1548.9822 55.931848 1546.4688 56.59375 C 1543.7315 57.314631 1541.4363 57.944477 1541.3438 57.96875 C 1541.2511 57.993023 1540.1902 56.425923 1539 54.5 C 1536.8421 51.00854 1533.948 49.57186 1530.375 50.1875 C 1528.7493 50.467627 1528.4542 49.761545 1528.1875 45.0625 C 1527.6573 35.718173 1528.0488 35.110909 1534.875 35.3125 C 1539.3617 35.445001 1541.2595 35.05794 1542.8125 33.65625 C 1543.5122 33.024763 1543.9365 32.711123 1544.2812 32.59375 L 1544.625 28.53125 z M 1519.1875 24.78125 L 1522.5625 28.0625 L 1525.9375 31.34375 L 1525.875 43.28125 C 1525.8174 56.839016 1526.5781 58.681172 1530.5938 54.9375 L 1533.1875 52.5 L 1537.0625 56.96875 L 1540.9375 61.4375 L 1545.5312 59.1875 C 1548.0619 57.957992 1550.5975 57.248465 1551.1562 57.59375 C 1552.6955 58.545078 1551.1606 63.267023 1548.6875 65.21875 C 1545.6081 67.64884 1543.9326 67.419405 1539.9688 64.03125 C 1538.0645 62.403602 1535.9588 61.053602 1535.2812 61.03125 C 1534.6037 61.008897 1532.4662 62.527104 1530.5312 64.40625 C 1527.8429 67.017065 1527 68.636586 1527 71.28125 C 1527 73.18476 1527.6407 75.30741 1528.4375 75.96875 C 1529.2344 76.630091 1530.3791 78.619667 1530.9688 80.40625 C 1531.8779 83.161104 1531.6584 84.5337 1529.5312 89.34375 C 1528.1516 92.463172 1526.7329 95 1526.375 95 C 1526.0171 95 1526.0203 92.181368 1526.375 88.71875 L 1527 82.40625 L 1522.8438 78.21875 C 1520.5542 75.906368 1518.3529 74 1517.9375 74 C 1516.8841 74 1512.2235 79.671215 1510.4375 83.125 C 1509.5773 84.788395 1509.1929 87.151983 1509.5312 88.75 L 1510.125 91.5 L 1507.0625 88.03125 C 1505.3779 86.127026 1504 84.222296 1504 83.78125 C 1504 83.340203 1506.0568 80.451344 1508.5625 77.375 C 1512.5024 72.53794 1513.0351 71.373861 1512.4688 68.65625 C 1509.9748 56.689539 1498.9203 53.093647 1496.7188 63.53125 C 1496.2569 65.720286 1495.6662 68.521256 1495.4062 69.78125 C 1494.6998 73.205913 1493.1953 71.553542 1492.4375 66.5 C 1491.5935 60.87195 1492.457 57.4493 1495.4375 54.46875 C 1498.01 51.896254 1500.7273 51.919404 1508.2188 54.5625 C 1516.1891 57.374593 1516.3648 57.199277 1515.5625 47.3125 C 1515.1745 42.530361 1514.2027 37.062694 1513.4062 35.15625 C 1511.5871 30.802476 1512.1898 28.899853 1516.0938 26.59375 L 1519.1875 24.78125 z M 1538.1562 26 C 1540.848 26 1541.8267 30.932031 1539.4688 32.65625 C 1537.5095 34.088983 1537.32 34.117504 1535 33.34375 C 1534.175 33.068595 1532.8685 32.653925 1532.0938 32.40625 C 1530.1889 31.797364 1535.6726 26 1538.1562 26 z M 1501.2188 27.09375 C 1501.9808 27.121948 1503.0714 27.64909 1504.6562 28.6875 C 1507.0763 30.273161 1507.0983 30.450269 1505.4062 31.6875 C 1501.7735 34.34391 1498.1493 32.345642 1499.625 28.5 C 1499.9957 27.533946 1500.4567 27.065552 1501.2188 27.09375 z "/>
</svg>
