<?xml version="1.0" encoding="UTF-8"?>
<svg xmlns="http://www.w3.org/2000/svg" viewBox="2523.4 15.75 77.11 89.08">
  <path d="M2545.9743 97.432294C2544.777 94.283319 2545.755 87.448246 2547.6248 85.896434C2548.3812 85.268706 2549.0 83.927091 2549.0 82.915068C2549.0 79.532617 2545.0085 70.356615 2542.5204 68.019139L2540.0612 65.708857L2539.0922 68.257615C2537.2802 73.02332 2535.2595 87.479498 2535.0394 97.25C2534.9802 99.877488 2533.2298 99.356994 2531.6765 96.25C2526.9032 86.702715 2526.9599 65.56934 2531.7828 56.570022C2535.136 50.313297 2538.4837 49.481766 2544.3346 53.452293C2546.3994 54.853532 2548.4831 56.0 2548.965 56.0C2550.3326 56.0 2551.1928 50.54463 2550.4498 46.583838C2549.8017 43.129284 2549.6217 43.0 2545.4601 43.0C2540.7553 43.0 2538.3793 41.359473 2537.3931 37.430073C2536.0717 32.165082 2540.9047 22.926077 2545.8893 21.188441C2549.8629 19.803224 2553.1959 22.327521 2555.5573 28.510752C2556.5658 31.151561 2557.9076 33.0 2558.816 33.0C2559.6653 33.0 2562.3326 30.881974 2564.7433 28.293276C2568.2561 24.521141 2569.3094 23.875805 2570.0479 25.043276C2571.9122 27.99043 2571.0749 34.027558 2568.2067 38.319825C2566.6703 40.618921 2564.8703 43.758674 2564.2067 45.297053C2562.9653 48.174546 2562.5259 56.0 2563.6056 56.0C2563.9387 56.0 2565.5483 54.875 2567.1824 53.5C2568.8165 52.125 2570.6814 51.002965 2571.3267 51.006589C2572.8037 51.014884 2576.6524 53.666376 2580.468 57.304369L2583.4094 60.108738L2585.182 57.804369C2588.2633 53.798723 2591.0128 43.866295 2591.088 36.469217C2591.1651 28.889511 2591.7988 25.0 2592.9565 25.0C2594.5513 25.0 2597.0 35.593278 2597.0 42.492169C2597.0 50.665544 2594.4435 63.687484 2592.3694 66.078741C2591.6162 66.947048 2591.0 68.076646 2591.0 68.588959C2591.0 69.735182 2586.2063 75.0 2585.1626 75.0C2584.7466 75.0 2581.3014 72.960771 2577.5067 70.468381C2573.712 67.97599 2570.0682 66.143598 2569.4094 66.396399C2567.3659 67.180567 2563.2447 73.321828 2562.2158 77.116207C2561.4406 79.974643 2561.6359 81.860581 2563.1479 86.116207C2565.1726 91.814678 2565.2722 98.092039 2563.348 98.723357C2562.7144 98.931234 2560.8658 97.67793 2559.2399 95.938239C2555.7148 92.166406 2552.8054 92.541874 2550.4634 97.070869C2548.5978 100.67846 2547.2497 100.787 2545.9743 97.432294Z M2553.1301 90.714764C2555.3038 89.133235 2556.1428 89.006041 2557.9657 89.981643C2561.022 91.617337 2561.6316 90.547859 2559.8149 86.737443C2558.4924 83.963631 2558.4556 82.783955 2559.558 78.5C2561.4653 71.088543 2562.519 68.725111 2565.4905 65.19363C2568.7985 61.26231 2570.796 61.185451 2574.9691 64.828923C2576.7511 66.384831 2579.7882 68.508215 2581.7182 69.547554L2585.2271 71.437261L2587.5233 68.767771C2591.4544 64.197651 2593.7881 56.165753 2594.5681 44.5225C2595.1065 36.483999 2594.9981 33.883128 2594.1465 34.409466C2593.5122 34.801448 2593.0 37.54426 2593.0 40.54829C2593.0 43.534932 2592.1214 48.290772 2591.0476 51.116824C2589.0447 56.388111 2584.2939 64.0 2583.0069 64.0C2582.6102 64.0 2580.0357 61.75 2577.2857 59.0C2574.5357 56.25 2571.5656 54.0 2570.6855 54.0C2569.8054 54.0 2567.8286 55.574987 2566.2926 57.499971C2563.6212 60.848076 2561.5701 61.861021 2560.7242 60.25C2560.5077 59.8375 2560.6215 55.849584 2560.9773 51.387964C2561.5352 44.390799 2562.0622 42.680155 2564.812 38.940961C2567.628 35.11183 2569.0973 30.0 2567.382 30.0C2567.0421 30.0 2565.1975 31.375448 2563.2828 33.056551C2558.4013 37.342545 2556.3209 36.680783 2553.6738 30.0C2551.7667 25.186969 2551.1162 24.462896 2548.4658 24.20294C2544.0507 23.769906 2540.845 27.558185 2540.2325 33.932369C2539.789 38.547314 2539.9497 39.019976 2542.3311 40.104986C2544.3359 41.018468 2545.5947 40.996301 2547.987 40.005383C2549.6794 39.30436 2551.3872 39.053611 2551.7821 39.448162C2552.1769 39.842714 2552.6453 43.840785 2552.8229 48.332764C2553.0648 54.451059 2552.7677 57.001747 2551.6388 58.5C2550.1759 60.441512 2550.0495 60.447607 2547.3159 58.70843C2540.9478 54.65684 2537.9393 53.548519 2536.2323 54.625272C2531.6718 57.501987 2528.7121 76.31849 2531.2974 86.0L2532.7661 91.5L2533.4487 86.5C2535.5043 71.442615 2538.3444 62.0 2540.8176 62.0C2542.1183 62.0 2549.0 71.608567 2549.0 73.424695C2549.0 74.363429 2549.4346 75.943607 2549.9659 76.936203C2550.4971 77.9288 2551.3553 80.626232 2551.873 82.930498C2552.7515 86.840088 2552.6535 87.181236 2550.4072 88.035286C2548.7215 88.676177 2548.0 89.724944 2548.0 91.534266C2548.0 94.283719 2548.2879 94.237732 2553.1301 90.714764Z"/>
</svg>
