<?xml version="1.0" encoding="UTF-8"?>
<svg xmlns="http://www.w3.org/2000/svg" viewBox="1025.22 16.86 59.53 91.02">
  <path d="M1037.5256 97.284555C1037.1422 95.24106 1036.1689 92.29357 1035.3627 90.734576C1033.6264 87.376802 1034.2971 84.492158 1037.6474 80.908728L1040.07 78.317455L1035.8611 74.908728C1028.7472 69.147268 1027.9286 68.003232 1029.2054 65.60625C1031.3883 61.508056 1035.5209 57.000059 1037.095 57.000029C1037.9723 57.000013 1039.508 57.903886 1040.5078 59.008635C1042.3989 61.09828 1049.5797 63.753674 1050.5946 62.738684C1051.6783 61.655069 1052.1268 43.53195 1051.1072 42.029361C1050.2461 40.760462 1049.5916 40.745895 1046.3359 41.923171C1044.2606 42.673619 1040.3445 44.65241 1037.6336 46.320484L1032.7045 49.353347L1030.8523 47.065889C1028.195 43.784266 1028.5232 42.450913 1032.75 39.356062C1034.8125 37.845915 1036.9169 36.258647 1037.4264 35.828799C1037.9684 35.371551 1037.5905 34.205028 1036.5158 33.017498C1034.0512 30.294161 1035.3036 29.313683 1038.539 31.433573C1040.9205 32.994009 1041.3434 33.004995 1043.5433 31.563559C1045.6104 30.209192 1045.8064 29.620897 1044.9452 27.355839C1043.7825 24.2977 1044.687 22.689261 1046.1247 25.25833C1047.2467 27.263166 1052.0013 27.598715 1053.8 25.8C1054.46 25.14 1055.0 23.79 1055.0 22.8C1055.0 21.81 1055.45 21.0 1056.0 21.0C1056.55 21.0 1057.0057 21.5625 1057.0126 22.25C1057.0196 22.9375 1059.443 25.620162 1062.398 28.21147L1067.7707 32.92294L1072.3231 29.376165C1079.1417 24.063843 1081.6402 25.577531 1081.9003 35.178571C1082.0455 40.535755 1079.9511 42.195053 1074.0347 41.41021C1071.4065 41.061578 1069.0245 41.164159 1068.7412 41.638167C1068.458 42.112175 1067.9026 46.6625 1067.507 51.75C1066.6891 62.268332 1067.4719 63.248229 1072.5 58.0C1074.0808 56.35 1075.8852 55.0 1076.5098 55.0C1077.8447 55.0 1082.0 62.927246 1082.0 65.473744C1082.0 66.438819 1079.7058 69.876616 1076.9019 73.113292C1072.1368 78.613672 1071.8727 79.196158 1072.8602 82.028715C1073.7001 84.438113 1073.4971 86.436713 1071.8698 91.779636C1069.2049 100.52952 1067.9208 101.92083 1065.1071 99.107143C1063.9482 97.948214 1063.0 95.754461 1063.0 94.232135C1063.0 90.604101 1058.5827 84.184363 1055.5653 83.42703C1052.9032 82.758882 1050.2834 83.906088 1046.5321 87.382682C1044.623 89.151986 1044.0 90.729194 1044.0 93.793242C1044.0 100.90658 1038.7374 103.7444 1037.5256 97.284555Z M1069.0355 92.417095C1071.3893 86.926102 1071.4679 85.130439 1069.519 81.374063C1068.0564 78.554891 1068.1073 78.449551 1073.6238 72.874907C1078.6342 67.81166 1079.1406 66.916579 1078.5405 64.184249C1077.3441 58.737122 1075.5172 58.30006 1071.0006 62.380467C1066.9649 66.026465 1065.5284 66.663945 1064.6286 65.208066C1064.3594 64.772502 1064.4785 58.135002 1064.8933 50.458066C1065.6369 36.694766 1065.6136 36.453696 1063.2206 33.181604C1059.6114 28.246282 1056.9957 27.38445 1051.8611 29.43888C1048.6392 30.728055 1037.0764 38.089508 1031.1075 42.65167C1030.8916 42.816669 1031.2439 43.588926 1031.8903 44.367796C1032.8824 45.56319 1034.2379 45.177277 1040.5866 41.891962C1049.6675 37.192776 1051.4663 37.067183 1053.4952 40.990643C1054.7328 43.383883 1054.9105 45.930791 1054.3849 53.740643C1053.7215 63.597181 1052.8163 67.0 1050.8578 67.0C1050.2683 67.0 1046.87 65.608332 1043.306 63.907404L1036.826 60.814808L1034.413 63.081718C1033.0859 64.328519 1032.0 65.880609 1032.0 66.530807C1032.0 67.181005 1034.6873 69.669925 1037.9718 72.06174C1041.2562 74.453554 1044.1484 76.944244 1044.3987 77.596606C1044.649 78.248968 1043.0867 80.202812 1040.9269 81.938482C1036.5852 85.427624 1036.0789 87.640952 1038.8422 91.053406L1040.6843 93.32838L1041.3379 90.41419C1042.0386 87.289634 1051.4493 79.0 1054.2957 79.0C1055.1597 79.0 1058.1467 81.220784 1060.9333 83.935076C1065.3819 88.268092 1066.0 89.366057 1066.0 92.935076C1066.0 95.170784 1066.241 97.0 1066.5355 97.0C1066.8301 97.0 1067.9551 94.937693 1069.0355 92.417095Z M1079.3395 37.557665C1080.3158 35.013555 1078.848 29.0 1077.2508 29.0C1076.4327 29.0 1074.469 30.4625 1072.887 32.25L1070.0106 35.5L1072.1161 37.25C1074.6669 39.370162 1078.58 39.53683 1079.3395 37.557665Z"/>
</svg>
