<?xml version="1.0" encoding="UTF-8"?>
<svg xmlns="http://www.w3.org/2000/svg" viewBox="545.8 18.31 18.7 85.58">
  <path d="M548.51136 99.018382C547.82403 97.906257 547.7958 77.082517 548.47542 72.5C548.72012 70.85 548.94596 60.275 548.97729 49.0C549.00862 37.725 549.38589 27.18938 549.81567 25.587512C550.54288 22.877062 550.95926 22.662281 555.81809 22.491321C561.98732 22.274254 561.9476 22.196275 562.18919 35.0C562.49655 51.289221 560.86228 96.388807 559.89947 98.187848C559.16547 99.55933 557.73666 100.0 554.02383 100.0C551.32564 100.0 548.84503 99.558272 548.51136 99.018382Z M557.69264 96.469872C558.55891 96.206148 558.90383 90.862014 558.95307 76.941037C558.99035 66.399873 559.22149 57.45064 559.46672 57.053854C560.09397 56.038933 560.55793 26.224596 559.95584 25.622504C559.68407 25.350738 557.53619 25.386651 555.18277 25.70231L550.90383 26.276237L551.09501 43.388119C551.20015 52.799653 550.93488 68.430302 550.50552 78.122893C550.07615 87.815484 550.03934 96.254636 550.42371 96.876563C551.03982 97.873441 553.54211 97.73344 557.69264 96.469872Z"/>
</svg>
