<?xml version="1.0" encoding="UTF-8"?>
<svg xmlns="http://www.w3.org/2000/svg" viewBox="331.58 15.22 68.94 92.78">
  <path d="M380.27685 98.508487C376.59752 94.352615 374.80807 94.117786 372.59196 97.5C370.29544 101.00493 363.73496 100.98798 358.54163 97.46369C354.34857 94.6182 352.55163 94.823508 347.97984 98.670421C341.90553 103.78161 340.13552 98.81734 344.63843 89.298957C346.52517 85.310723 348.09214 83.414036 350.13843 82.641645C352.82009 81.629433 353.0 81.207826 353.0 75.93575C353.0 69.841841 350.84508 66.498022 347.35146 67.170832C345.86888 67.45635 342.71824 71.797221 340.58026 76.5C340.33022 77.05 339.42237 76.626492 338.56282 75.55887C334.71738 70.782575 338.42775 56.957723 344.30328 54.169899C346.73564 53.015788 347.46337 53.069694 349.80328 54.577313C351.28647 55.532946 352.85986 56.918991 353.29969 57.657414C354.85004 60.260274 356.92212 59.002899 358.09092 54.75C359.8348 48.404582 359.66472 41.029067 357.65305 35.761578L355.86188 31.071461L352.01583 32.610344C346.58422 34.783642 342.81538 34.130081 341.19511 30.733906C337.70402 23.416402 346.60043 19.44033 352.30101 25.770343C354.099 27.766864 354.11017 27.766281 358.96901 25.422301C361.64585 24.13095 364.12445 22.607653 364.47701 22.037195C365.54315 20.312145 367.77048 20.861386 370.40909 23.5C373.53788 26.628787 375.88215 26.643844 381.6522 23.572212C387.40341 20.510608 392.0 21.766712 392.0 26.399938C392.0 30.629066 389.42702 32.716643 383.2763 33.477864C380.09934 33.87105 376.9375 34.65448 376.25 35.218819C373.88405 37.160925 375.4911 59.0 377.99996 59.0C378.45879 59.0 380.88621 58.1204 383.39424 57.045332L387.9543 55.090665L390.79701 57.482647C395.33339 61.299763 397.38794 66.845601 396.07374 71.726154C394.30903 78.27979 392.67635 78.80403 389.34524 73.886618C385.65546 68.43972 384.18054 67.583573 380.75 68.897347C378.25459 69.853 378.0 70.415679 378.0 74.975249C378.0 79.472822 378.40454 80.404544 381.85587 83.855871C386.11661 88.116612 387.15599 91.374478 385.95437 96.702324C384.74469 102.0659 383.71605 102.39313 380.27685 98.508487Z M348.36335 64.0C349.33582 64.0 350.97459 64.451217 352.00505 65.002704C354.59255 66.387493 355.51796 64.577576 353.613 61.857865C351.0335 58.175109 346.9034 55.981334 344.73468 57.141993C342.4701 58.353962 340.0 63.843351 340.0 67.664048L340.0 70.392334L343.29761 67.196167C345.11129 65.438275 347.39087 64.0 348.36335 64.0Z M350.41821 31.393011C352.73023 30.505807 352.3523 28.460854 349.53518 26.61501C344.72195 23.46126 341.36868 25.094646 343.09918 29.75C343.94077 32.014026 347.00645 32.702226 350.41821 31.393011Z M350.21162 94.286534C353.7838 92.710491 354.07141 92.289431 353.79764 89.036534C353.56151 86.230879 353.0307 85.433396 351.22917 85.17772C348.96754 84.856745 347.67017 86.815859 345.5524 93.75C344.72743 96.451178 345.18572 96.503953 350.21162 94.286534Z M371.23334 95.75C375.038 89.900111 376.63448 72.771638 374.47226 61.0C372.62739 50.95611 372.49153 39.048135 374.1689 34.409473C375.33421 31.186863 375.24654 30.99017 370.93333 27.149673C366.55353 23.249887 366.46599 23.222134 363.68291 24.851113C358.09881 28.119581 357.84616 28.896425 360.04217 36.045771C362.18434 43.019828 362.1668 43.22892 358.03174 60.0C355.50091 70.264653 354.76166 83.929918 356.3869 90.405413C358.10355 97.245071 367.95454 100.79134 371.23334 95.75Z M384.0 93.95034C384.0 91.619239 381.25466 85.843532 379.65821 84.815983C376.18165 82.578305 376.08467 89.533294 379.54047 93.260218C382.56593 96.523045 384.0 96.74497 384.0 93.95034Z M394.0 69.147883C394.0 63.498423 390.29098 58.458372 386.26571 58.638036C382.5294 58.804802 378.07469 61.840847 378.03142 64.25C377.99499 66.278792 378.42241 66.379483 381.06574 64.964816C383.5576 63.631216 386.54913 65.141078 390.3228 69.636965C391.87535 71.486634 393.33785 73.0 393.5728 73.0C393.80776 73.0 394.0 71.266547 394.0 69.147883Z M388.75 29.722321C390.71813 28.199446 390.21087 25.288406 387.87074 24.676448C384.76199 23.863492 377.82914 26.874271 378.21355 28.870346C378.74565 31.633344 385.56736 32.184945 388.75 29.722321Z"/>
</svg>
