<?xml version="1.0" encoding="UTF-8"?>
<svg xmlns="http://www.w3.org/2000/svg" viewBox="2030.18 16.93 62.7 88.68">
  <path d="M2046.2448 99.75C2045.6948 99.0625 2044.9012 97.375 2044.4812 96.0C2044.0612 94.625 2042.6562 91.933039 2041.3588 90.017865C2037.8241 84.799854 2038.2486 81.763141 2043.0438 77.965335C2045.2678 76.203837 2046.9294 74.253523 2046.7361 73.631305C2046.5427 73.009087 2044.1609 71.345312 2041.4432 69.934026C2038.2364 68.268812 2036.1701 66.42502 2035.557 64.68166C2034.7379 62.352475 2035.05 61.543642 2037.9043 58.598783L2041.1963 55.202299L2047.0505 58.689628C2050.292 60.620627 2053.4306 61.851934 2054.0831 61.448664C2055.689 60.456111 2054.7333 44.146992 2052.8968 41.206302C2051.181 38.459003 2050.5099 38.459532 2045.3126 41.212286C2040.2525 43.892365 2036.242 42.991857 2034.1923 38.715381C2033.0323 36.29499 2033.122 35.637379 2034.966 33.047786C2036.1133 31.436559 2037.9178 29.843483 2038.976 29.507616C2041.0742 28.841671 2045.8799 30.945444 2047.9453 33.434063C2049.7781 35.642516 2051.3787 35.393693 2055.0134 32.335233C2057.6384 30.126477 2058.1137 29.099721 2057.791 26.335233C2057.3759 22.779886 2059.1712 21.69662 2060.7634 24.541705C2061.4334 25.738889 2062.581 25.930734 2065.8988 25.400195C2068.2487 25.024427 2070.406 24.105659 2070.6927 23.35849C2071.6128 20.960604 2073.0 21.906971 2073.0 24.932612C2073.0 28.064148 2075.3296 29.578227 2078.3591 28.415686C2079.6012 27.93904 2080.0 28.37311 2080.0 30.201882C2080.0 31.530604 2080.6447 33.491249 2081.4327 34.55887C2082.581 36.114689 2083.1169 36.251877 2084.1327 35.25C2086.1217 33.288125 2087.0 33.765607 2087.0 36.80887C2087.0 38.353749 2087.6607 40.491249 2088.4682 41.55887C2089.2757 42.626492 2089.9507 44.707176 2089.9682 46.182612C2090.0282 51.240488 2084.7271 50.552229 2080.0087 44.889532C2078.9282 43.592774 2073.0037 41.0 2071.1211 41.0C2068.7266 41.0 2065.9271 43.591112 2066.498 45.278939C2066.7251 45.950522 2067.1444 49.600912 2067.4297 53.390915C2067.7151 57.180918 2068.1803 60.513592 2068.4635 60.796857C2068.7468 61.080122 2071.7087 59.166991 2075.0455 56.545455C2078.3823 53.923918 2081.2548 51.941244 2081.429 52.139512C2082.6453 53.524216 2085.0 59.24121 2085.0 60.80955C2085.0 61.859429 2083.2 64.763328 2081.0 67.26266C2076.4859 72.390963 2076.1614 74.213919 2079.0 78.5C2081.7281 82.619319 2081.5091 85.760474 2077.9592 93.43023C2074.8045 100.24591 2073.3582 101.22053 2070.807 98.25C2068.4341 95.487131 2068.0012 93.295012 2069.1677 89.948843C2070.1749 87.059649 2069.982 86.56589 2066.4225 82.920667C2064.3169 80.7643 2061.8378 79.0 2060.9134 79.0C2059.989 79.0 2057.5617 80.849616 2055.5194 83.110259C2052.1165 86.876837 2051.8588 87.572626 2052.4375 91.43157C2052.9461 94.823338 2052.659 96.163776 2050.9619 98.321311C2048.6124 101.30825 2047.7101 101.58151 2046.2448 99.75Z M2045.5456 38.590319C2047.449 37.198508 2047.4489 37.153522 2045.5378 35.041795C2041.7833 30.893038 2035.4849 33.609419 2037.384 38.558413C2038.0921 40.40354 2043.0394 40.422881 2045.5456 38.590319Z M2050.1674 91.750142C2049.9845 89.234971 2050.3728 86.172022 2051.0302 84.943589C2052.5784 82.050771 2056.773 78.399402 2060.2363 76.929821C2062.7054 75.882087 2063.34 76.087947 2066.7363 79.038299C2071.8343 83.466963 2072.3639 84.59846 2072.2029 90.716725C2072.0218 97.601769 2074.0066 97.748822 2076.7878 91.056419C2078.9808 85.779553 2078.7984 83.393076 2075.8284 78.5C2073.142 74.074205 2073.5293 72.360837 2078.5 66.678527C2080.975 63.849231 2083.0 61.238975 2083.0 60.87796C2083.0 60.516944 2082.198 59.231189 2081.2179 58.020726L2079.4357 55.819884L2074.4679 59.938579C2066.6411 66.427503 2065.6791 65.70817 2064.6134 52.569797C2063.7499 41.924101 2063.7854 41.592226 2065.9742 39.819797C2067.2103 38.818909 2069.0862 38.0 2070.1429 38.0C2073.1429 38.0 2078.7525 40.650379 2082.7814 43.97136C2086.5267 47.058523 2088.0 47.672081 2088.0 46.144624C2088.0 44.337822 2075.5509 31.81154 2071.9084 29.953294C2067.34 27.622671 2063.4321 27.431577 2062.6384 29.5C2062.3218 30.325 2061.4861 31.014221 2060.7814 31.031601C2060.0766 31.048982 2058.1961 32.209514 2056.6024 33.61056L2053.7049 36.157918L2055.4902 39.828959C2057.7666 44.509536 2058.6356 56.544203 2057.0452 61.36313C2055.5274 65.961934 2053.3485 66.0738 2046.8252 61.887819C2042.7841 59.294672 2041.7191 58.988222 2040.4394 60.050313C2037.7799 62.25749 2039.179 65.311463 2044.0 67.822462C2048.7366 70.289503 2052.0 72.82203 2052.0 74.030788C2052.0 74.427236 2049.7616 76.269991 2047.0258 78.125801C2041.1383 82.119487 2040.8571 83.767873 2045.0 90.0C2046.6453 92.475 2047.9934 95.1 2047.9957 95.833333C2047.9981 96.566667 2048.5625 96.976882 2049.25 96.744923C2050.0754 96.466433 2050.387 94.769867 2050.1674 91.750142Z"/>
</svg>
