<?xml version="1.0" encoding="UTF-8"?>
<svg xmlns="http://www.w3.org/2000/svg" viewBox="2228.02 16.46 18.57 86.47">
  <path d="M 2244.5938 87.3125 L 2243.2188 84 C 2242.1027 81.329736 2241.7683 76.351318 2241.875 63 C 2242.0368 42.770312 2240.7317 24.592914 2238.9688 22.46875 C 2237.2476 20.394909 2234.3596 20.640378 2231.9375 23.0625 C 2230.2936 24.706344 2230.0234 25.777376 2230.625 28.3125 C 2231.0407 30.064169 2231.2635 43.874815 2231.125 59 C 2230.8682 87.051808 2231.4657 93.640597 2234.5625 97.0625 C 2235.5223 98.123136 2237.0837 99 2238.0312 99 C 2239.3803 99 2241.7724 98.167106 2244.4375 96.9375 L 2244.4688 95.15625 C 2239.2735 97.507675 2238.489 97.448669 2236.2188 94.5625 C 2234.5677 92.463619 2234.2025 89.700747 2233.5938 75.0625 C 2233.2036 65.683273 2233.1491 57.579583 2233.4688 57.0625 C 2234.3185 55.687505 2234.3146 36.394721 2233.4688 29.625 C 2232.7548 23.910631 2232.7891 23.825856 2235.125 24.15625 C 2237.263 24.458648 2237.5744 25.151058 2238.1875 31 C 2238.5623 34.575 2238.8922 46.95 2238.9375 58.5 C 2239.0259 81.032775 2240.0895 88.559395 2243.25 89.5625 C 2243.6169 89.678944 2244.112 89.474777 2244.5625 89.40625 L 2244.5938 87.3125 z "/>
</svg>
