<?xml version="1.0" encoding="UTF-8"?>
<svg xmlns="http://www.w3.org/2000/svg" viewBox="1258.03 15.63 93.62 89.22">
  <path d="M1285.2138 98.813814C1283.2303 96.830306 1283.8263 91.719899 1286.5 87.785188C1289.6079 83.211451 1289.6027 82.877954 1286.3274 76.860218C1283.7281 72.084405 1277.9499 67.294895 1276.1383 68.414519C1275.1249 69.040868 1272.531 76.712983 1271.5452 82.0C1269.2819 94.13889 1267.1255 98.439059 1265.0144 95.023283C1262.5692 91.066808 1262.2864 70.274139 1264.589 63.747708C1266.5376 58.224871 1270.6562 53.0 1273.0611 53.0C1274.1388 53.0 1277.2613 54.575 1280.0 56.5C1282.7387 58.425 1285.1516 60.0 1285.3619 60.0C1286.2449 60.0 1287.0037 51.536683 1286.4062 48.351858C1285.8785 45.538921 1284.9826 44.532011 1281.5874 42.936092C1276.26 40.431889 1273.7374 36.402331 1274.9187 32.283364C1276.7377 25.9409 1279.5386 23.045443 1285.204 21.650671C1288.4159 20.859937 1291.5379 23.619452 1292.5272 28.123667C1292.8719 29.693036 1293.53 31.209494 1293.9896 31.493574C1294.4493 31.777653 1298.4797 29.74354 1302.9463 26.973322C1314.3072 19.927063 1317.6424 19.686751 1320.8367 25.684259C1322.657 29.102151 1322.3374 41.519741 1320.3786 43.47852C1317.903 45.954094 1315.6716 44.908159 1314.7045 40.818963C1313.6365 36.303224 1311.9578 35.572945 1307.2078 37.557663C1300.7992 40.235345 1299.0 42.657868 1299.0 48.609214C1299.0 54.106329 1300.3304 59.0 1301.8248 59.0C1302.3056 59.0 1304.6793 57.658189 1307.0995 56.018197C1309.5198 54.378206 1312.2333 53.028206 1313.1295 53.018197C1314.0258 53.008189 1316.4184 55.025 1318.4465 57.5C1320.4746 59.975 1322.8913 61.998318 1323.8169 61.996262C1325.7413 61.991988 1331.1454 58.874079 1334.2635 55.9691C1338.7215 51.815836 1342.6289 54.032688 1345.3957 62.284947C1347.3798 68.202614 1347.3948 70.760482 1345.5038 80.644201C1343.61 90.54202 1339.6246 99.0 1336.8545 99.0C1335.0337 99.0 1334.9098 98.533493 1335.4603 93.75C1336.3601 85.930653 1336.3752 82.090238 1335.5299 76.0C1334.6294 69.512191 1334.4302 69.199237 1332.202 70.77265C1326.7379 74.631238 1324.9532 75.139416 1321.1888 73.9086C1319.1599 73.245251 1315.933 71.644447 1314.0179 70.351256C1309.8757 67.554338 1306.879 67.359835 1304.7544 69.75C1301.9211 72.93737 1299.677 85.0 1301.9173 85.0C1302.4218 85.0 1303.6048 87.016783 1304.5462 89.481739C1305.9847 93.248554 1306.0583 94.44495 1305.0076 96.981739C1303.4307 100.78852 1301.9625 100.7931 1299.1581 97.0C1296.1302 92.904533 1291.998 92.910036 1288.7863 97.013814C1286.9369 99.376947 1286.1656 99.765566 1285.2138 98.813814Z M1303.0 93.139547C1303.0 92.666298 1301.8443 90.576118 1300.4318 88.494704L1297.8637 84.710313L1299.518 77.274512C1300.6518 72.178153 1302.0368 68.871219 1303.9199 66.763585C1306.5035 63.872017 1306.8689 63.75865 1310.0408 64.864364C1311.896 65.511112 1314.3333 66.868873 1315.457 67.881611C1316.5806 68.89435 1319.0069 70.227359 1320.8487 70.843854C1324.6409 72.113215 1326.7677 71.370728 1331.2138 67.225362C1336.0275 62.737291 1337.5917 66.133889 1338.9388 84.0L1339.5797 92.5L1341.8875 85.5C1344.8304 76.573692 1344.9021 66.688489 1342.0641 61.125584C1340.9757 58.992181 1339.4645 57.008498 1338.7059 56.7174C1337.9473 56.426301 1335.3407 57.768515 1332.9133 59.700096C1324.7682 66.18167 1320.6065 66.387978 1317.1224 60.482896C1315.9767 58.541078 1314.4125 56.711787 1313.6464 56.417806C1312.8803 56.123824 1310.0833 57.259552 1307.431 58.941647C1304.7786 60.623741 1301.7854 62.0 1300.7795 62.0C1298.1636 62.0 1296.7774 57.683661 1296.652 49.148343C1296.5489 42.132718 1296.6854 41.670328 1299.6379 39.032268C1303.285 35.773533 1311.2628 32.503148 1313.485 33.355861C1314.3432 33.685188 1315.2468 34.527344 1315.493 35.227319C1317.8874 42.034737 1318.1241 42.417503 1319.0421 40.966116C1319.5521 40.159752 1319.9763 37.391795 1319.9847 34.8151C1320.0266 21.981252 1314.2042 20.987492 1300.4557 31.481943C1297.8534 33.468324 1295.0143 34.956814 1294.1465 34.789697C1292.6599 34.503398 1292.121 33.671902 1288.8832 26.667614C1287.748 24.211841 1287.17 23.915887 1284.5369 24.441837C1281.2035 25.107666 1277.5379 28.37459 1276.6136 31.50335C1276.2703 32.66561 1276.8467 34.863191 1277.9867 36.737656C1279.4929 39.214527 1280.8705 40.11556 1283.8889 40.598228C1286.7661 41.058302 1287.9807 41.803044 1288.3995 43.363922C1289.1637 46.211872 1289.159 59.422183 1288.393 61.418213C1287.6059 63.469393 1283.623 63.455631 1281.9135 61.395824C1281.1813 60.513528 1279.6637 59.389602 1278.5411 58.898212C1277.4185 58.406822 1275.7737 57.482085 1274.8859 56.84324C1273.9982 56.204396 1272.5127 55.973006 1271.5849 56.329041C1269.3281 57.195057 1266.0429 64.842527 1265.3254 70.899919C1264.6225 76.83492 1265.8015 89.0 1267.0796 89.0C1267.5858 89.0 1268.0 87.984337 1268.0 86.742971C1268.0 82.888405 1272.8183 66.753141 1274.4594 65.112031C1275.8696 63.701824 1276.3478 63.732487 1279.5109 65.435956C1283.3485 67.502637 1286.4564 71.228061 1289.8095 77.780794C1292.4726 82.985168 1292.4898 83.816986 1290.0 87.0C1286.8971 90.966779 1287.4425 91.759982 1292.9115 91.234486C1296.429 90.896494 1298.4788 91.221963 1300.134 92.381279C1302.8013 94.249583 1303.0 94.302142 1303.0 93.139547Z"/>
</svg>
