<?xml version="1.0" encoding="UTF-8"?>
<svg xmlns="http://www.w3.org/2000/svg" viewBox="2600.88 18.01 82.37 85.7">
  <path d="M2628.607 97.418213C2627.4619 94.434246 2628.0149 90.497472 2630.0 87.5C2631.0928 85.85 2631.9898 83.849188 2631.9934 83.053751C2632.0081 79.828872 2620.5599 65.535919 2618.8223 66.609798C2617.0917 67.679402 2615.161 74.006753 2614.5356 80.658066C2613.4877 91.805243 2612.0305 97.151593 2610.1379 96.794058C2606.2052 96.051176 2604.6209 72.490912 2607.8461 62.714608C2609.894 56.507021 2612.4256 52.157656 2614.4411 51.384243C2615.1696 51.104695 2618.5048 52.02888 2621.8527 53.437987C2625.2006 54.847094 2628.1783 56.0 2628.4699 56.0C2628.7614 56.0 2629.0 53.608346 2629.0 50.685212C2629.0 45.610105 2628.8444 45.296209 2625.5489 43.724732C2618.0312 40.139761 2617.4268 34.657621 2623.6507 26.506427C2627.1136 21.971212 2627.2455 21.905819 2632.3335 22.200636L2637.5 22.5L2637.8023 27.75C2637.9916 31.03951 2638.5586 33.0 2639.3206 33.0C2639.9894 33.0 2642.7149 31.2 2645.3772 29.0C2648.0395 26.8 2650.6284 25.0 2651.1303 25.0C2651.6322 25.0 2652.5249 26.057821 2653.1139 27.350713C2653.9868 29.266449 2653.7094 30.639943 2651.6148 34.773386C2650.2012 37.562964 2647.9096 41.51794 2646.5223 43.56222C2644.692 46.259378 2644.0 48.596642 2644.0 52.081568L2644.0 56.884042L2648.25 54.454067C2650.5875 53.11758 2653.0516 52.01867 2653.7257 52.012045C2654.3999 52.00542 2656.3847 53.575 2658.1364 55.5C2659.8881 57.425 2661.9834 59.0 2662.7926 59.0C2663.6018 59.0 2665.7493 57.425 2667.5648 55.5C2671.9534 50.846712 2674.0667 51.013535 2677.0659 56.25C2679.2882 60.130244 2679.5 61.587518 2679.5 73.0C2679.5 84.83537 2679.3445 85.806946 2676.5749 91.272866C2673.5808 97.181961 2671.4195 99.752846 2670.3473 98.680674C2670.015 98.348293 2669.6883 92.246911 2669.6215 85.122047C2669.5547 77.997182 2669.1652 71.832694 2668.756 71.423184C2668.3468 71.013675 2666.4415 71.524351 2664.5221 72.558021L2661.0323 74.437421L2657.1271 70.624132C2651.6361 65.262316 2649.3635 66.677053 2645.5151 77.85263C2644.1112 81.92977 2644.1407 82.363418 2645.9819 84.704078C2648.5315 87.945363 2649.5457 93.506841 2648.1471 96.576526C2646.6697 99.819135 2644.8612 99.622138 2642.7965 95.993677C2640.6089 92.149264 2637.7715 92.151386 2634.3424 96.0C2631.3686 99.337558 2629.519 99.794918 2628.607 97.418213Z M2634.5 91.0C2635.3557 89.615379 2642.3414 89.741429 2643.7672 91.167217C2644.6568 92.056841 2645.1012 91.8999 2645.6356 90.507319C2646.1409 89.19053 2645.5414 88.046034 2643.4892 86.409697C2640.7074 84.191534 2640.6715 84.039607 2641.9347 79.819595C2644.4821 71.308839 2649.4025 63.0 2651.8952 63.0C2652.3446 63.0 2654.8361 64.621541 2657.4317 66.603424L2662.1509 70.206848L2664.3899 68.103424C2667.3096 65.360548 2668.5938 65.450439 2670.6177 68.539344C2671.895 70.488619 2672.2579 73.268957 2672.1798 80.504442C2672.1238 85.688606 2672.4969 90.189042 2673.0088 90.50541C2674.568 91.469054 2677.0072 84.070105 2677.431 77.091132C2678.0424 67.024281 2675.3408 55.0 2672.4676 55.0C2671.7582 55.0 2670.0899 56.29291 2668.7602 57.873133C2667.4305 59.453356 2665.3142 61.296665 2664.0572 61.969374C2661.9982 63.071352 2661.3622 62.798685 2657.6359 59.216097C2653.8524 55.578492 2653.2444 55.325543 2650.5 56.247137C2648.85 56.801221 2646.5208 58.144431 2645.324 59.232049C2642.3238 61.958573 2640.999 60.718838 2641.0056 55.190983C2641.0134 48.60126 2642.7073 43.246919 2646.1327 38.984493C2647.7498 36.972244 2649.3585 33.565935 2649.7075 31.414917L2650.3422 27.503975L2647.0148 30.831312C2642.0794 35.766722 2639.4061 37.263672 2636.9307 36.478016C2635.026 35.873476 2634.8242 35.252323 2635.2641 31.348887C2635.6135 28.249465 2635.3255 26.468355 2634.3109 25.453799C2632.5782 23.721093 2633.0018 23.754799 2629.2771 25.053253C2627.2433 25.762232 2625.6948 27.35033 2624.5398 29.911799C2622.0146 35.511564 2622.77 38.068046 2627.762 40.816513L2632.024 43.16308L2631.9088 48.83154C2631.6694 60.615895 2630.1324 62.366687 2623.9139 57.938671C2620.1047 55.22632 2614.1088 54.227125 2612.898 56.102917C2612.402 56.871313 2611.1214 60.425 2610.0521 64.0C2608.5314 69.084087 2608.2304 72.242662 2608.6704 78.5C2608.9798 82.9 2609.6305 86.9275 2610.1165 87.45C2610.6516 88.02541 2611.0329 87.631104 2611.0833 86.45C2611.1762 84.27664 2611.3424 82.903783 2612.4578 75.097262C2613.631 66.885407 2616.4166 61.075588 2619.2095 61.015313C2620.4612 60.9883 2624.9655 66.30885 2629.568 73.250918C2636.2947 83.397087 2636.6216 84.378447 2634.1103 86.889728C2631.9416 89.058418 2631.2685 92.0 2632.941 92.0C2633.4585 92.0 2634.1601 91.55 2634.5 91.0Z"/>
</svg>
