<?xml version="1.0" encoding="UTF-8"?>
<svg xmlns="http://www.w3.org/2000/svg" viewBox="697.52 14.36 65.42 92.27">
  <path d="M702.2851 96.75C700.9513 94.295742 700.51654 91.173985 700.50942 84.0C700.49799 72.471621 702.6874 64.947724 708.18113 57.636261C711.12225 53.721996 712.00273 51.628258 712.01187 48.526912C712.02821 42.981337 714.24316 35.161213 717.48413 29.206484C722.00714 20.896225 730.31736 18.554758 739.50436 23.002112C743.91648 25.137982 744.1601 25.151911 747.70266 23.470854C752.57177 21.16031 755.93524 22.356189 758.32952 27.249224C759.86382 30.384798 759.97407 31.548539 759.01276 34.461325C756.92746 40.779861 748.94082 45.27213 746.0545 41.75C745.49111 41.0625 743.84983 39.027356 742.40721 37.227458C738.80104 32.728171 736.73502 31.770048 733.3854 33.043572C728.02422 35.081886 725.8177 38.401991 725.26731 45.258646L724.76122 51.563417L729.39613 55.361372C735.6514 60.487093 737.28417 63.982601 737.39924 72.494797C737.48255 78.656777 737.08634 80.252319 734.10765 85.75C732.24518 89.1875 730.33405 92.0 729.86067 92.0C729.3873 92.0 729.0 88.610547 729.0 84.467881C729.0 79.920937 728.38449 75.46227 727.44695 73.217881C725.71574 69.07349 721.28504 64.0 719.39694 64.0C717.56957 64.0 711.91356 71.571907 710.34917 76.112586C709.59777 78.293544 708.47328 84.560422 707.8503 90.038982C706.60916 100.95383 705.37714 102.4395 702.2851 96.75Z M705.54125 89.487387C706.8444 79.309068 709.16604 72.46182 713.06489 67.297828C716.27886 63.040954 717.63385 62.0 719.96097 62.0C725.57499 62.0 731.92231 72.017136 732.00026 81.0C732.03682 85.213488 733.39659 83.684826 735.10289 77.512022C737.28983 69.600412 733.77815 61.372304 725.70837 55.5C723.2605 53.718704 722.94833 52.83783 722.85366 47.444607C722.69679 38.507401 727.64933 30.934866 734.44108 29.727238C738.12073 29.072965 740.649 30.693008 744.99004 36.486707C748.87603 41.673084 751.07378 42.102454 754.54775 38.353977C757.30754 35.376109 757.82842 29.675099 755.60795 26.75C753.97998 24.60541 749.68938 24.464419 748.0 26.5C746.29177 28.558289 743.41773 28.380633 738.29343 25.9C725.53718 19.724809 715.93418 27.958649 715.42422 45.508593C715.20062 53.203709 715.04979 53.667444 711.57109 57.355945C706.82325 62.390123 705.15639 65.771509 703.44709 73.836226C701.76552 81.770186 701.62129 87.87373 703.02798 91.573589C704.29489 94.905812 704.91324 94.392538 705.54125 89.487387Z"/>
</svg>
