<?xml version="1.0" encoding="UTF-8"?>
<svg xmlns="http://www.w3.org/2000/svg" viewBox="124.92 16.45 21.75 87.05">
  <path d="M129.04949 97.04949C126.92025 94.920253 126.93424 96.652693 128.61485 43.210702C129.309 21.137629 129.5675 20.410395 136.39399 21.32602C138.6137 21.623745 140.95624 22.587256 141.59964 23.467154C142.8719 25.207078 144.67207 65.29989 143.62659 68.610756C143.29848 69.64984 142.37667 76.120351 141.57814 82.989669C140.34578 93.591027 139.79759 95.745481 137.95235 97.239669C135.09813 99.550876 131.47345 99.473447 129.04949 97.04949Z M136.94976 95.56054C137.60681 94.768837 138.55383 90.156337 139.05423 85.31054C139.55464 80.464743 140.38492 73.410964 140.89929 69.635476C141.87402 62.48099 141.34545 34.078618 140.12445 28.0C139.5435 25.107766 138.92956 24.443013 136.58889 24.171822C132.53225 23.70182 131.51667 25.284516 131.37324 32.299934C131.30352 35.70997 130.94036 51.282586 130.56623 66.905747C129.8529 96.692772 129.88273 96.94475 134.12756 96.984687C135.02271 96.993109 136.2927 96.352243 136.94976 95.56054Z"/>
</svg>
