<?xml version="1.0" encoding="UTF-8"?>
<svg xmlns="http://www.w3.org/2000/svg" viewBox="203.41 18.04 20.71 87.2">
  <path d="M 221.5625 78.8125 C 220.53875 75.83857 220.21084 70.710891 219.96875 58.5 C 219.64759 42.300754 219.27545 26.989704 219.125 24.25 C 219.01272 22.205371 218.51192 22 213.53125 22 C 208.63314 22 207.98884 22.240321 207.46875 24.3125 C 206.71593 27.311982 205.41118 81.1086 205.84375 91.3125 C 206.13666 98.221981 206.42556 99.238393 208.34375 100.03125 C 211.34212 101.27059 215.26248 100.76623 215.8125 99.09375 C 216.15313 98.057987 215.61931 97.882427 213.78125 98.34375 C 207.89672 99.820673 207.29684 96.591223 208.34375 68.9375 C 208.62636 61.472395 208.97351 49.385185 209.09375 42.09375 C 209.38622 24.358034 209.48288 24 213.46875 24 L 216.6875 24 L 217.34375 56.90625 C 217.7048 75.000651 217.74727 91.988151 217.4375 94.65625 L 216.875 99.5 L 219.28125 96.65625 L 221.71875 93.8125 L 222.125 94.03125 L 222 92.65625 L 221.84375 89.53125 C 221.35866 88.977932 221 88.454664 221 88.03125 C 221 87.410665 221.2346 87.044827 221.71875 86.78125 L 221.34375 79.34375 L 221.5625 78.8125 z "/>
</svg>
