<?xml version="1.0" encoding="UTF-8"?>
<svg xmlns="http://www.w3.org/2000/svg" viewBox="79 15.9 36.3 90.27">
  <path d="M89.39952 98.490429C86.00902 95.099929 84.0 89.968091 84.0 84.697902C84.0 81.252365 84.809978 79.175284 87.840832 74.848597C91.812819 69.178398 93.696402 61.331338 92.330948 56.14264C91.799026 54.121348 91.247617 53.86041 88.463069 54.31228C84.430346 54.966701 81.0 52.766198 81.0 49.524859C81.0 48.225906 83.466282 42.236482 86.480627 36.215028C91.841447 25.506258 96.547037 20.0 100.33782 20.0C101.14701 20.0 103.13438 22.3625 104.75418 25.25C108.21436 31.418211 113.2994 46.20684 112.81859 48.703454C112.61671 49.751747 110.90137 50.883549 108.49205 51.558165L104.5 52.675944L103.68104 59.392031C102.91337 65.687506 103.05734 66.525376 105.97986 72.770655C111.71672 85.030044 111.03284 92.790479 103.75076 98.065586C98.450402 101.90515 92.97629 102.0672 89.39952 98.490429Z M101.64292 97.365155C108.86635 93.937413 109.77915 85.434304 104.06859 74.768896C100.88636 68.825555 100.1723 62.640764 101.64185 53.75C102.18535 50.461818 102.60495 50.0 105.04905 50.0C109.93186 50.0 110.97383 49.143486 110.32933 45.659547C109.52015 41.285419 101.57982 23.0 100.48956 23.0C100.29191 23.0 99.028901 23.418713 97.68287 23.930473C95.456184 24.777058 89.0 32.951473 89.0 34.924179C89.0 35.377332 87.910357 37.717273 86.578572 40.124047C85.246786 42.530821 84.009286 46.075 83.828572 48.0L83.5 51.5L88.184542 51.5C94.660464 51.5 95.399983 52.562506 95.215611 61.60192C95.078614 68.318618 94.726997 69.64978 92.279986 72.715673C85.07595 81.741708 84.360847 85.527282 88.519394 92.623306C92.39987 99.244837 95.398515 100.32832 101.64292 97.365155Z"/>
</svg>
