<?xml version="1.0" encoding="UTF-8"?>
<svg xmlns="http://www.w3.org/2000/svg" viewBox="1873.34 19.18 18.35 89.22">
  <path d="M 1875.3438 55.34375 L 1875.3438 55.375 L 1875.5625 59.5 C 1875.8628 59.830906 1876 60.526676 1876 61.90625 C 1876 62.268118 1875.7839 62.591999 1875.7188 62.9375 L 1875.9688 68.25 C 1877.0281 68.770389 1877.0646 71.728047 1876.75 78.53125 C 1876.482 84.325979 1876.0844 89.178419 1875.875 89.3125 C 1875.8483 89.329618 1875.4217 89.522372 1875.3438 89.5625 L 1875.3438 94.28125 C 1876.1515 94.872775 1876.0747 96.076221 1875.3438 97.59375 L 1875.3438 102.8125 C 1877.3025 104.34811 1886.8769 103.02374 1887.4375 101.125 C 1888.7912 96.54004 1889.6905 31.586425 1888.4688 26.71875 C 1887.9447 24.630837 1887.0896 24.17392 1882.7188 23.65625 C 1879.1781 23.236912 1877.3507 23.434171 1876.8125 24.28125 C 1876.3837 24.956196 1876.0084 32.076499 1876 40.125 L 1876 54.78125 L 1875.3438 55.34375 z M 1877.8125 27 L 1881.7812 27 C 1884.7525 27 1885.8819 27.444762 1886.1875 28.75 C 1886.7865 31.308673 1886.1927 98.886678 1885.5625 99.90625 C 1884.8065 101.12947 1879.0237 101.83086 1878.375 100.78125 C 1878.0783 100.30114 1878.1789 93.084438 1878.5938 84.71875 C 1879.575 64.934628 1879.5736 66.382743 1878.625 45.25 L 1877.8125 27 z "/>
</svg>
