<?xml version="1.0" encoding="UTF-8"?>
<svg xmlns="http://www.w3.org/2000/svg" viewBox="680.38 11.04 27.52 95.13">
  <path d="M 682.375 91 L 682.5625 93.5625 C 683.97495 93.027089 686.38804 91.170401 689 88.3125 C 697.77713 78.708923 697.53903 79.420629 695.5 67.8125 C 692.93636 53.217724 693.73691 35.723874 697.3125 27.75 C 698.7306 24.5875 700.35724 22 700.9375 22 C 702.32888 22 702.28327 22.399484 700.375 26.78125 C 696.86018 34.851937 697.48545 56.235841 701.65625 70.53125 C 703.73951 77.67164 702.17652 80.740936 688.9375 95.78125 C 686.01807 99.097901 685.18869 99.955909 683 99.90625 L 683.125 101.84375 C 685.49999 101.60756 687.21406 100.2049 693.15625 93.84375 C 697.37208 89.330684 701.86354 83.443281 703.125 80.75 L 705.40625 75.84375 L 703.5625 67.15625 C 699.59859 48.560551 699.39288 38.55823 702.6875 26.8125 C 705.89913 15.362683 701.5361 15.428586 696.21875 26.90625 C 692.95835 33.943925 692.64645 35.372662 692.21875 46.5 C 691.8899 55.055441 692.2225 60.946835 693.375 67.0625 C 694.26409 71.780361 695 76.392961 695 77.28125 C 695 79.333044 684.26241 91 682.375 91 z "/>
</svg>
