<?xml version="1.0" encoding="UTF-8"?>
<svg xmlns="http://www.w3.org/2000/svg" viewBox="192.02 12.85 72.04 89.93">
  <path d="M215.11839 97.642652C214.518 96.919226 213.32862 94.348548 212.47531 91.930035C211.62201 89.511522 210.22784 86.470487 209.37716 85.17218C207.38958 82.138753 208.26185 78.604733 212.06814 74.269608C213.68066 72.433048 214.97344 70.608566 214.94097 70.215204C214.90851 69.821842 213.89601 67.51664 212.69097 65.092534C208.31644 56.29252 205.05262 57.228217 202.36574 68.052652C200.35493 76.15346 199.56662 76.9964 197.5851 73.164562C195.29557 68.737094 195.61221 61.933899 198.40134 55.627175C202.85063 45.566538 206.99694 43.666228 212.61599 49.112419C214.38215 50.824249 216.32851 51.915002 216.94124 51.536315C219.49311 49.959175 217.22022 28.0 214.50511 28.0C214.26117 28.0 212.27575 28.930829 210.09306 30.06851C206.9424 31.71073 205.69954 31.909565 204.06227 31.033326C201.3057 29.558057 201.29286 24.136145 204.03896 21.188561C206.54325 18.500516 207.07485 18.484436 210.27287 21.0C213.57626 23.598448 214.90335 23.522416 219.0 20.5C220.86371 19.125 222.63863 18.00055 222.94428 18.001221C223.24993 18.001893 224.80749 19.126893 226.40554 20.501221C229.9083 23.513614 230.06304 23.524853 233.27287 21.0C234.67129 19.9 236.52042 19.0 237.38205 19.0C239.34609 19.0 242.22504 24.407132 241.81068 27.317685C241.49959 29.502889 239.42606 29.886555 233.5571 28.844852C230.97137 28.385902 229.18025 34.15736 229.07685 43.281385C228.98863 51.066494 229.74938 51.838316 235.24697 49.541276C239.40525 47.803834 241.37255 48.251897 245.23061 51.815111L247.96123 54.337038L249.38899 50.918519C251.44661 45.991916 253.71148 36.437285 254.46613 29.5C255.66957 18.437135 257.1766 16.933396 258.91882 25.057052C260.78744 33.770143 258.41367 53.622888 254.41191 62.75C253.14589 65.6375 251.61737 68.0 251.01519 68.0C250.41301 68.0 248.15618 67.1 246.0 66.0C240.783 63.338486 238.38758 63.478843 236.36578 66.564508C234.77342 68.994754 234.79681 69.400493 236.81251 74.314508C238.54327 78.533888 238.7666 80.245243 238.01121 83.5C236.96461 88.009498 233.49843 95.573917 232.0758 96.453153C230.04148 97.71043 228.15816 92.875935 228.64489 87.645977C229.02032 83.611827 228.68148 81.797813 227.0766 79.25C225.95064 77.4625 224.65255 76.0 224.19195 76.0C223.73136 76.0 222.42764 77.9125 221.2948 80.25C219.66023 83.62277 219.33741 85.77027 219.73081 90.654201C220.16768 96.077864 219.98813 96.935984 218.21827 97.883187C216.71295 98.688808 215.93663 98.628569 215.11839 97.642652Z M217.95435 89.750314C217.26853 87.853705 216.98543 85.194201 217.32523 83.840305C218.05246 80.942782 223.61138 73.0 224.91204 73.0C225.40676 73.0 227.24051 75.1375 228.98705 77.75C231.63846 81.716034 232.0869 83.201443 231.70412 86.75C231.45198 89.0875 231.59084 91.0 232.01271 91.0C232.43458 91.0 233.74833 88.939418 234.93216 86.420928C237.13778 81.728692 237.01423 79.354514 234.3653 75.527494C231.59093 71.519245 233.67057 63.317042 238.05633 60.969851C239.69473 60.093006 240.9857 60.379931 244.67194 62.440206C247.19092 63.848093 249.66122 65.0 250.16149 65.0C251.57022 65.0 254.79228 56.703634 255.87665 50.284233C257.5613 40.311229 258.00639 33.121985 256.97852 32.486726C256.43976 32.153751 256.0 33.010085 256.0 34.392193C256.0 37.868059 253.53147 47.010091 251.12231 52.456403C248.75251 57.813728 246.87003 58.187426 243.34655 54.0C240.41659 50.517944 237.76196 50.237999 233.32535 52.943215L230.15071 54.878953L228.57647 52.476365C226.56681 49.409238 226.28165 39.332817 227.99203 31.824559L229.28489 26.149119L226.39244 23.606161C222.86823 20.507766 220.88454 20.365114 218.4672 23.03624C216.83792 24.83658 216.77225 25.48126 217.90036 28.601005C219.50155 33.02901 219.98679 37.400442 219.98285 47.361881C219.97832 58.828829 219.44604 59.190999 212.56609 52.408378C208.20216 48.106183 207.76964 47.907663 205.70429 49.258952C201.52183 51.995399 196.48332 64.883322 198.72111 67.121112C199.35007 67.750071 200.28879 66.532346 201.38235 63.668879C205.11538 53.894079 210.27072 53.840933 214.55704 63.533065C217.64461 70.514595 217.62486 70.938701 214.0 75.5C210.34472 80.099575 210.20897 83.271206 213.5 87.182369C214.875 88.816464 216.0 90.943924 216.0 91.910059C216.0 94.193319 217.12252 95.277484 218.28399 94.116014C218.84041 93.559589 218.71073 91.842026 217.95435 89.750314Z M210.55887 27.557672C212.46647 26.140259 212.46089 26.075722 210.2361 23.821553C208.43725 21.998945 207.61558 21.751046 206.2361 22.614743C205.28125 23.212582 204.35761 24.893836 204.18358 26.350862C203.91951 28.561663 204.26018 29.0 206.24245 29.0C207.54886 29.0 209.49125 28.350952 210.55887 27.557672Z M240.0 26.122445C240.0 23.670218 237.68479 21.799992 235.62675 22.589736C233.51279 23.400938 233.56017 24.945635 235.75 26.607954C238.24666 28.503192 240.0 28.302895 240.0 26.122445Z"/>
</svg>
