<?xml version="1.0" encoding="UTF-8"?>
<svg xmlns="http://www.w3.org/2000/svg" viewBox="1602.66 20.38 58.76 86.51">
  <path d="M1625.5 100.48274C1623.3 99.683795 1621.4242 99.023337 1621.3316 99.015056C1621.2389 99.006775 1620.1827 97.413577 1618.9843 95.474616C1616.4106 91.310287 1616.9514 89.0 1620.5 89.0C1624.2057 89.0 1624.3915 87.16292 1621.3111 80.97776C1617.3458 73.015524 1617.5103 64.21493 1621.8185 53.833414C1624.9445 46.30059 1625.5492 42.649444 1624.3878 38.319175C1623.4836 34.947781 1621.5258 34.869685 1617.3398 38.038032C1612.7992 41.474777 1610.932 41.687293 1608.5362 39.039994C1605.3273 35.49422 1608.7615 26.0 1613.253 26.0C1614.4297 26.0 1617.0755 27.166338 1619.1326 28.591862L1622.8726 31.183724L1627.3665 28.091862C1629.8381 26.391338 1632.0357 25.0 1632.2501 25.0C1632.4644 25.0 1634.1519 26.35 1636.0 28.0C1637.8481 29.65 1639.7157 31.0 1640.1502 31.0C1640.5847 31.0 1643.725 29.584838 1647.1288 27.855196C1654.1073 24.30893 1655.8958 24.654161 1657.3814 29.834341C1658.7449 34.588346 1656.8777 36.15922 1650.0748 35.981684C1642.1716 35.775436 1642.2122 35.764836 1641.3943 38.25C1640.388 41.307883 1640.7352 51.948672 1642.1287 60.757479C1643.4322 68.997195 1642.8743 76.109912 1640.5801 80.5C1638.5254 84.431805 1638.5952 85.712981 1640.9323 86.963755C1643.7894 88.492834 1644.2806 91.343772 1642.3753 95.339205C1639.8383 100.6593 1632.3071 102.95479 1625.5 100.48274Z M1615.0275 37.295891C1619.7825 34.018642 1620.2173 32.737761 1617.4192 30.25C1616.0273 29.0125 1614.2156 28.0 1613.3932 28.0C1611.4957 28.0 1608.7137 34.52261 1609.5233 37.073404C1610.2774 39.44952 1611.8127 39.511579 1615.0275 37.295891Z M1637.3427 98.889728C1639.8541 97.745455 1642.0 94.200963 1642.0 91.197058C1642.0 90.257199 1640.65 88.890655 1639.0 88.160294C1635.354 86.546395 1635.2715 84.952524 1638.5042 78.580522C1641.3797 72.912719 1641.6728 67.628469 1639.5148 60.361769C1637.7466 54.40773 1637.2078 45.228802 1638.2607 39.0C1638.9613 34.855689 1638.7794 34.243113 1635.96 31.25C1634.2762 29.4625 1632.001 28.0 1630.9039 28.0C1628.0026 28.0 1623.6395 32.67065 1624.5567 34.79447C1624.9619 35.732511 1625.5042 39.303531 1625.7619 42.730068C1626.1702 48.158865 1625.8691 49.637921 1623.4205 54.230068C1621.0311 58.711394 1620.6042 60.697141 1620.5679 67.5C1620.5311 74.382626 1620.9184 76.250155 1623.3407 80.870839C1626.467 86.834652 1626.3434 91.0 1623.04 91.0C1620.2789 91.0 1619.6463 92.656999 1621.4335 95.208451C1624.5835 99.705759 1631.8575 101.38892 1637.3427 98.889728Z M1654.8201 31.245529C1655.2605 28.144608 1652.5855 27.350358 1648.4091 29.341953C1643.0046 31.919175 1644.284 34.068571 1651.0 33.694792C1653.798 33.539071 1654.5642 33.047806 1654.8201 31.245529Z"/>
</svg>
