<?xml version="1.0" encoding="UTF-8"?>
<svg xmlns="http://www.w3.org/2000/svg" viewBox="1231.39 8.54 28.92 98.88">
  <path d="M1242.0985 98.334952C1237.2268 90.980126 1234.994 82.269236 1234.3229 68.000311C1233.3935 48.239921 1237.5712 30.145576 1245.492 19.624575C1250.4537 13.034088 1256.3892 28.822141 1257.6045 51.843065C1258.3113 65.231245 1257.2628 76.238667 1254.2577 86.979714C1252.5562 93.0611 1247.9513 102.18291 1246.3058 102.73139C1245.7223 102.92591 1243.829 100.94751 1242.0985 98.334952Z M1241.0 67.5C1243.8518 64.464377 1248.0074 64.245664 1250.5 67.0C1253.8252 70.674345 1255.676 69.278966 1255.1279 63.51084C1254.8965 61.076288 1248.1683 54.0 1246.0849 54.0C1245.2548 54.0 1242.6462 55.893694 1240.2879 58.208208C1236.7311 61.69885 1236.0 63.062976 1236.0 66.208208C1236.0 70.715307 1237.5928 71.126816 1241.0 67.5Z M1242.0 53.899704C1244.6 50.77819 1249.773 50.720052 1253.25 53.773268C1254.8615 55.188365 1255.0 55.105956 1255.0 52.731911C1255.0 49.622768 1249.7307 44.0 1246.817 44.0C1245.7009 44.0 1243.0356 45.387813 1240.8939 47.084029C1237.5114 49.76301 1237.0 50.702729 1237.0 54.239017L1237.0 58.309975L1239.25 56.404988C1240.4875 55.357244 1241.725 54.229867 1242.0 53.899704Z M1243.1783 80.873051L1246.1653 78.746101L1249.201 80.990515C1252.5702 83.481432 1253.9557 82.645121 1253.9847 78.102992C1254.0036 75.14771 1247.5052 67.0 1245.1292 67.0C1244.1739 67.0 1241.8978 68.541984 1240.0711 70.426631C1237.0843 73.508191 1236.822 74.237519 1237.4657 77.669015C1238.6222 83.833678 1238.845 83.958624 1243.1783 80.873051Z M1242.1824 43.5C1245.5206 40.691055 1246.7843 40.488949 1250.4801 42.172874C1256.5207 44.925172 1255.9969 38.201511 1249.8896 34.593855C1246.9527 32.858985 1246.9148 32.867495 1243.218 36.092291C1239.799 39.074692 1238.3579 41.512408 1238.0997 44.75C1237.954 46.576645 1238.8531 46.301359 1242.1824 43.5Z M1249.5659 93.872493C1251.5957 89.947395 1251.3545 87.523647 1248.6175 84.34171C1246.4847 81.862173 1245.9636 81.695563 1243.6451 82.751938C1239.0688 84.837053 1239.3509 90.641592 1244.3748 97.762331C1245.5004 99.357788 1247.5069 97.854299 1249.5659 93.872493Z M1249.316 31.569406C1252.2522 32.214306 1252.2606 32.202769 1251.5632 28.485256C1250.6654 23.699271 1248.8968 20.878357 1247.0191 21.237109C1245.2877 21.567886 1239.6912 32.691299 1240.5538 34.087077C1240.8782 34.611933 1242.307 34.117098 1243.7543 32.978643C1245.6732 31.469217 1247.1529 31.0943 1249.316 31.569406Z"/>
</svg>
