<?xml version="1.0" encoding="UTF-8"?>
<svg xmlns="http://www.w3.org/2000/svg" viewBox="1392.15 16.01 70.18 90.93">
  <path d="M 1397.0625 84.9375 L 1400.0625 91.375 C 1400.964 90.949079 1402.3908 91.259502 1405.125 92.34375 C 1412.0563 95.092332 1419.8692 92.133942 1423.6875 85.3125 C 1427.6126 78.300158 1429.2104 67.172165 1429.4062 45.5 C 1429.5641 28.02368 1429.8148 25.457865 1431.2188 25.1875 C 1432.1023 25.01736 1433.0452 25.298162 1433.3438 25.78125 C 1434.4055 27.499215 1434.8019 51.646786 1433.9062 60.34375 C 1433.0081 69.064986 1429.0794 86.154085 1427.1562 89.6875 C 1425.5456 92.64669 1419.715 97.796074 1416.6875 98.9375 C 1413.1101 100.28621 1409.7098 100.20525 1403.7188 98.59375 C 1399.1631 97.368331 1398.3 97.105247 1398.4375 95.4375 L 1395.3438 99.34375 L 1395.3438 99.4375 C 1396.1696 99.435805 1396.9506 99.50116 1398.1562 99.9375 C 1403.6118 101.91199 1412.1499 102.80554 1415.9688 101.78125 C 1420.8295 100.47748 1427.6644 93.611754 1430.7188 87 C 1432.1161 83.975 1434.4378 80.351432 1435.875 78.9375 C 1441.4879 73.415629 1448.0386 68.794967 1449.4688 69.34375 C 1451.5114 70.127594 1452.4975 74.68389 1451.1875 77.3125 C 1446.7112 86.294378 1445.8472 92.319301 1448.8125 93.90625 C 1451.7179 95.461157 1453.1039 93.701093 1454.5938 86.59375 C 1456.1026 79.395806 1455.2876 72.667264 1452.4062 68.25 C 1450.4022 65.177549 1448.9108 65.408778 1443.8438 69.5625 C 1441.4543 71.521338 1438.671 73.794455 1437.6562 74.625 C 1435.0086 76.79202 1434.7175 75.926791 1435.9375 69.34375 C 1436.5336 66.127411 1437.3323 56.828516 1437.6875 48.65625 C 1438.3087 34.363696 1438.4157 33.675684 1440.9062 31.3125 C 1446.1648 26.322802 1452 24.715504 1452 28.25 C 1452 28.975969 1451.1 31.342414 1450 33.5 C 1446.9249 39.531574 1447.4512 46.561188 1451.1562 48.875 C 1452.8583 49.937925 1453.4836 49.866403 1455.0625 48.4375 C 1459.1461 44.74188 1458.3431 34.607526 1453.3438 26.75 C 1450.3885 22.105157 1448.491 22.036354 1442.9688 26.40625 L 1438.6562 29.8125 L 1437 26.71875 C 1433.4742 20.144497 1429.773 20.549974 1427.125 27.8125 C 1426.2859 30.114027 1425.345 32 1425.0312 32 C 1424.7174 32 1422.9628 30.65 1421.1562 29 C 1419.3497 27.35 1417.5452 26 1417.125 26 C 1414.1097 26 1407 40.500775 1407 46.65625 C 1407 49.974504 1409.8872 56 1411.4688 56 C 1413.6809 56 1416.0523 52.376109 1416.1875 48.78125 C 1416.265 46.719116 1415.4198 43.794525 1414.1562 41.75 C 1411.3877 37.270445 1411.4534 35.862124 1414.5 33 L 1416.9688 30.6875 L 1420.5625 32.59375 C 1422.534 33.646234 1424.6147 35.067593 1425.1875 35.75 C 1426.275 37.045401 1426.4458 58.879111 1425.4375 67 C 1423.3033 84.188654 1419.7897 90 1411.5312 90 C 1407.6321 90 1401.8057 87.851149 1397.0625 84.9375 z M 1453.375 34.09375 C 1454.2546 34.759102 1454.944 37.522458 1454.75 40.4375 C 1454.4679 44.677942 1452.7384 46.1528 1451.2188 43.4375 C 1450.3022 41.799579 1451.1516 35.504741 1452.4688 34.1875 C 1452.7777 33.878545 1453.0818 33.871966 1453.375 34.09375 z M 1411.375 43.3125 C 1412.7253 43.741126 1414 45.767076 1414 48 C 1414 49.515311 1413.3472 51.322875 1412.5312 52 C 1411.3006 53.021349 1410.8745 52.749425 1410.0312 50.53125 C 1408.725 47.095573 1408.7087 44.286175 1410.0312 43.46875 C 1410.4536 43.207728 1410.9249 43.169625 1411.375 43.3125 z M 1452.6562 81.4375 C 1452.8935 81.766555 1452.8492 83.225872 1452.5312 85.5 C 1451.792 90.787262 1450.6819 92.904942 1449.5625 91.09375 C 1448.8464 89.935017 1450.7737 83.185919 1452.3125 81.5 C 1452.4509 81.348392 1452.5772 81.327815 1452.6562 81.4375 z "/>
</svg>
