<?xml version="1.0" encoding="UTF-8"?>
<svg xmlns="http://www.w3.org/2000/svg" viewBox="396.79 13.6 40.43 89.89">
  <path d="M 433.8125 80.0625 C 433.11278 79.006366 433.05666 77.810609 433.40625 75.09375 C 433.73229 72.559817 434.2903 64.59109 434.625 57.375 C 435.21975 44.552532 435.14283 44.039388 432 34.1875 C 428.28166 22.531574 426.77214 19.878889 424.875 21.75 C 423.95118 22.661139 423.73685 26.012822 424.0625 34.25 C 424.30722 40.440275 424.40158 50 424.28125 55.5 C 423.96266 70.062468 420.04276 85 416.53125 85 C 415.10625 85 409.95878 78.208496 408.625 74.5625 C 407.31418 70.979246 407.91826 50.689086 409.53125 44 C 410.39331 40.425 411.49788 35.475 411.96875 33 C 412.43962 30.525 413.11209 26.867577 413.5 24.875 C 413.92158 22.70951 413.79717 21.001794 413.1875 20.625 C 408.4347 17.687608 401.61793 35.67144 400.53125 54 C 400.18886 59.775 399.68757 65.676098 399.40625 67.125 C 398.79343 70.281233 402.32965 85.065321 404.875 90 C 405.87179 91.932476 408.17901 94.5125 410 95.75 C 415.37448 99.402355 420.44043 98.606206 426.21875 93.21875 L 428.9375 90.6875 L 430.65625 91.46875 L 430.65625 91.34375 L 431.6875 87.65625 C 431.26131 86.969538 431.05783 86.276349 431.34375 85.53125 C 431.65062 84.73156 431.9683 84.469146 432.5625 84.53125 L 433.8125 80.0625 z M 411.4375 23.125 C 411.62162 23.324529 410.69484 28.45 409.375 34.5 C 405.12028 54.003214 404.88744 55.76768 405.375 66.5625 C 405.80816 76.15268 406.1483 77.602552 408.6875 81.34375 C 412.1619 86.462831 413.89869 87.927837 416.59375 87.96875 C 419.20391 88.008373 421.40009 85.550185 422.84375 81 C 425.15555 73.713584 426.88208 54.483181 426.5 40 C 426.07495 23.887761 426.60002 23.621632 431.09375 37.53125 C 434.11217 46.874282 434.10301 60.621731 431.09375 74.90625 C 428.58371 86.821037 427.30667 89.724882 422.96875 93.375 C 419.29281 96.4681 416.61718 96.654789 412.46875 94.125 C 408.09943 91.460504 406.53163 88.574155 404 78.46875 C 401.68506 69.228313 401.68088 69.059704 403.5625 46 C 403.85421 42.425 404.75068 37.229201 405.5625 34.46875 C 406.98216 29.641405 410.74483 22.374364 411.4375 23.125 z "/>
</svg>
