<?xml version="1.0" encoding="UTF-8"?>
<svg xmlns="http://www.w3.org/2000/svg" viewBox="2143.94 13.24 76.18 94.64">
  <path d="M 2216.6562 55.71875 C 2215.8708 57.171288 2214.7801 57.84426 2212.5938 58.96875 L 2208.125 61.25 L 2202.9375 57.125 C 2197.1189 52.492147 2194.9639 52.103174 2191.2812 55 C 2186.1733 59.017859 2185.9735 58.430728 2187.4375 43.75 C 2187.6507 41.612199 2189.1339 38.222568 2190.9062 35.8125 C 2193.0676 32.873441 2194 30.487867 2194 27.875 C 2194 22.917565 2192.6294 22.280476 2188.5312 25.40625 C 2186.6668 26.828399 2184.5367 27.989623 2183.8125 27.96875 C 2183.0883 27.947876 2181.2672 26.130555 2179.75 23.9375 C 2176.4005 19.095903 2173.2886 17.543076 2168.6875 18.40625 C 2158.1134 20.389963 2154.635 33.052626 2163.0312 39.03125 C 2164.685 40.208782 2167.4169 41 2169.8125 41 C 2173.4362 41 2173.8908 41.27509 2174.4688 43.90625 C 2175.1459 46.989189 2174.2069 54.021616 2173.125 53.96875 C 2172.7737 53.951585 2170.7 52.823767 2168.5 51.46875 C 2162.3448 47.677665 2160.6117 48.132265 2155.625 54.90625 C 2151.8532 60.029953 2151.0585 62.073902 2149.5625 70.15625 C 2147.6812 80.319623 2147.4013 94.048133 2149.0312 97.09375 C 2150.2473 99.365929 2152.4762 99.68702 2151.625 97.46875 C 2149.9 92.973522 2159.619 65 2162.9062 65 C 2165.4312 65 2169.9433 71.441924 2172.75 79.03125 C 2174.7858 84.536024 2174.8088 84.552529 2172.8438 87.25 C 2170.3727 90.642227 2169.1575 100.35387 2171.0625 101.53125 C 2171.9009 102.04936 2172.76 101.70702 2173.4375 100.5625 C 2176.716 95.024015 2177.3257 94.685905 2181.2188 96.3125 C 2183.216 97.147008 2185.6002 98.985315 2186.5312 100.40625 C 2188.4235 103.29405 2189.3037 103.57936 2190.75 101.75 C 2193.3827 98.419886 2192.5626 89.473693 2189.2812 85.78125 C 2185.7579 81.816682 2191.1287 67 2196.0938 67 C 2197.2308 67 2200.0883 68.575 2202.4375 70.5 C 2207.5197 74.664487 2209.2269 74.830847 2213.5938 71.5 L 2216.6562 69.15625 L 2216.6562 63.5625 C 2215.7251 66.011271 2210.3347 71.98036 2208.8125 72 C 2208.4428 72.004771 2206.1928 70.419799 2203.8125 68.5 C 2197.2757 63.227743 2195.3907 62.425568 2193.375 64.09375 C 2190.6068 66.384824 2186.0008 77.174348 2186 81.375 C 2185.9996 83.510081 2186.8457 86.660081 2187.875 88.375 C 2188.9044 90.089919 2190.0273 92.708707 2190.375 94.1875 C 2191.2541 97.926752 2190.09 98.203365 2185.4688 95.40625 C 2180.8038 92.582624 2177.3911 92.350946 2174.8438 94.65625 C 2173.1181 96.217953 2173 96.15791 2173 93.78125 C 2173 92.396007 2174.1178 90.163475 2175.4688 88.8125 C 2177.8322 86.449091 2177.8484 86.189015 2176.5312 81.8125 C 2174.9053 76.40991 2171.4011 69.241028 2169.125 66.65625 C 2166.7612 63.971798 2162.3945 61.910021 2160.5312 62.625 C 2158.3981 63.44354 2154.6759 70.966562 2152.4375 78.96875 C 2150.8298 84.716335 2150.5448 85.106279 2149.9062 82.71875 C 2148.8917 78.925159 2153.5562 62.503561 2157.125 57.3125 C 2158.7068 55.011689 2160.8562 52.864519 2161.9062 52.53125 C 2164.1145 51.830395 2169.4364 54.750403 2171.625 57.875 C 2174.3142 61.714342 2175.6674 60.437801 2176.4688 53.25 C 2177.9499 39.96315 2177.1136 38 2170 38 C 2164.8613 38 2159.5691 32.873659 2160.4062 28.6875 C 2160.7278 27.07956 2161 25.405143 2161 24.96875 C 2161 24.532358 2162.6027 23.179934 2164.5625 21.96875 C 2170.6756 18.190643 2175.733 20.058126 2179.5312 27.5 C 2180.9736 30.325969 2184.4538 30.519977 2188.5312 28 L 2192 25.84375 L 2192 28.15625 C 2191.9947 29.438607 2190.4197 32.491348 2188.5 34.90625 C 2186.4528 37.481537 2185 40.411452 2185 42 C 2185 43.489615 2184.6983 48.117795 2184.3438 52.3125 C 2183.569 61.477068 2184.8869 62.858601 2190.4375 58.625 C 2192.3202 57.189002 2194.6779 56 2195.6562 56 C 2196.6346 56 2199.356 57.899854 2201.7188 60.21875 C 2205.9002 64.322604 2206.0945 64.407407 2209.25 63.125 C 2213.8429 61.258474 2215.9141 60.744783 2216.6562 61.5625 L 2216.6562 55.71875 z "/>
</svg>
