<?xml version="1.0" encoding="UTF-8"?>
<svg xmlns="http://www.w3.org/2000/svg" viewBox="2363 11.84 31 92.7">
  <path d="M 2368.7188,57.78125 2368.9062,61.6875 C 2369.2196,61.798974 2369.4676,62.039656 2369.6562,62.53125 2370.1114,63.71748 2369.8178,65.048128 2369.0938,66.34375 L 2369.3438,72 2369.2188,72.5 C 2369.8381,72.867862 2370.278,73.517638 2370.5312,74.75 2372.6679,85.149486 2377.5021,97.958977 2379.8438,99.40625 2381.3329,100.32662 2383.8671,96.670273 2386.0625,90.4375 2387.7897,85.534278 2388.1335,82.28394 2388.0625,71.65625 2388.0152,64.586644 2387.7377,58.392091 2387.4375,57.90625 2387.1372,57.420408 2386.4603,51.789978 2385.9375,45.375 L 2385,33.6875 2388.5,27.4375 C 2390.4259,23.993559 2392,20.466883 2392,19.59375 2392,16.056637 2389.8578,18.418582 2386.4375,25.75 2382.4274,34.34599 2382.3443,36.480915 2385.0312,58 2387.1764,75.179828 2384.793,95 2380.5938,95 2378.7769,95 2373.933,79.712143 2373.0312,71.125 2372.2831,64.000241 2373.0305,54.803803 2375.5312,40.21875 2375.9957,37.510211 2375.2792,35.632611 2371.4375,29.46875 2367.0703,22.46198 2365,20.439645 2365,23.1875 2365,23.836655 2366.8549,27.203234 2369.125,30.6875 2373.1614,36.882814 2373.2282,37.152814 2372.5625,43.25 2371.3988,53.909876 2371.0721,56.113482 2368.7188,57.78125 z M 2372.5,19 C 2370.3872,19 2370.6315,21.679713 2373.0625,25.09375 2374.1999,26.691153 2375.8052,28 2376.625,28 2378.6515,28 2386,22.00139 2386,20.34375 2386,18.122681 2383.9631,18.819178 2380.875,22.125 2378.0407,25.159082 2377.8818,25.20005 2375.9688,23.46875 2374.8824,22.485669 2374,21.083507 2374,20.34375 2374,19.603994 2373.325,19 2372.5,19 z"/>
</svg>
