<?xml version="1.0" encoding="UTF-8"?>
<svg xmlns="http://www.w3.org/2000/svg" viewBox="573.85 13.53 20.23 89.51">
  <path d="M576.60084 86.75C577.08786 80.5625 577.48941 63.23741 577.49317 48.249799C577.5006 18.625401 577.72251 17.601367 582.55311 24.900895C587.06915 31.725089 589.87963 44.474888 590.48776 60.896588C590.7852 68.928465 591.25512 80.3375 591.53203 86.25C592.07887 97.926105 591.55672 98.971777 587.41242 94.5C584.36606 91.212926 582.50007 91.344864 580.34093 95.0C579.36625 96.65 577.92676 98.0 577.14207 98.0C575.93851 98.0 575.85385 96.240283 576.60084 86.75Z M588.0 70.571181C588.0 49.238916 586.15964 35.820391 582.32202 29.171494C580.94793 26.790816 579.5747 25.091965 579.2704 25.39627C578.96609 25.700574 579.29014 32.148402 579.99051 39.724775C580.92797 49.865994 581.01493 58.11663 580.32016 71.0C579.8011 80.625 579.48308 88.7401 579.61345 89.033555C579.74382 89.32701 581.68413 89.392244 583.92525 89.178519L588.0 88.789929L588.0 70.571181Z"/>
</svg>
