<?xml version="1.0" encoding="UTF-8"?>
<svg xmlns="http://www.w3.org/2000/svg" viewBox="984.22 16.78 61.09 88.83">
  <path d="M997.0 99.972241C997.0 99.681973 997.9 98.673878 999.0 97.732028C1001.7883 95.344629 1001.6872 91.774617 998.84295 92.187142C995.74694 92.636188 995.49028 90.553273 998.4741 89.193753C1000.4792 88.280159 1001.0 87.316847 1001.0 84.521439C1001.0 81.551784 1000.6474 80.991781 998.75 80.947548L996.5 80.895096L998.75 79.325576C1000.3443 78.213463 1001.0 76.751954 1001.0 74.31064C1001.0 71.3203 1000.7358 70.949067 999.0 71.5C996.45359 72.308199 996.46648 71.489041 999.0437 68.722718C1001.8086 65.754954 1001.3326 61.47062 998.25 61.579401C995.29844 61.68356 995.39634 60.441641 998.5 58.408043C1000.1518 57.325736 1001.0 55.847718 1001.0 54.051657C1001.0 50.579571 1000.2031 49.820921 997.86852 51.070368C995.42212 52.379641 995.51071 51.721759 998.38588 47.22856C1000.1762 44.430723 1000.6494 42.574838 1000.2816 39.793718L999.7914 36.087436L995.04957 36.293718C989.8494 36.51994 987.0 34.93343 987.0 31.811814C987.0 28.684908 988.90837 26.0 991.13089 26.0C993.42017 26.0 999.0 28.989206 999.0 30.215608C999.0 31.796779 1001.9246 30.934319 1004.8176 28.5C1006.4517 27.125 1008.1491 26.0 1008.5896 26.0C1009.0301 26.0 1010.6081 24.833515 1012.0962 23.407811L1014.8019 20.815621L1020.4399 25.407811C1026.761 30.556478 1027.9163 30.854951 1030.4949 28.005612C1032.8751 25.375574 1038.9146 23.68425 1040.6836 25.152362C1042.5326 26.686876 1042.3528 33.46235 1040.4205 35.06598C1039.5518 35.786959 1036.9698 36.467596 1034.6828 36.578507C1030.8293 36.765391 1030.4724 37.026306 1029.8114 40.140082C1029.162 43.198858 1029.4522 43.798724 1033.049 46.832935C1035.2221 48.666049 1037.0 50.578549 1037.0 51.082935C1037.0 52.571856 1034.3535 52.130901 1032.9195 50.40305C1031.7161 48.952994 1031.5273 48.975991 1030.8674 50.65305C1029.5399 54.026532 1029.9744 55.667287 1032.5 56.818046C1034.0746 57.535463 1035.0 58.779447 1035.0 60.178561C1035.0 61.906347 1034.7333 62.133333 1033.8 61.2C1032.0094 59.409449 1031.2856 59.725399 1030.7492 62.531728C1030.3976 64.370708 1030.913 65.573002 1032.6326 66.925648C1035.5494 69.220027 1035.7643 71.433125 1033.0 70.710251C1031.3199 70.270905 1031.0 70.679569 1031.0 73.264879C1031.0 74.957581 1031.7123 77.129639 1032.583 78.091674C1034.0372 79.698543 1033.9965 79.931513 1032.083 80.955599C1029.4717 82.353096 1029.4497 84.03067 1032.0 87.272871C1034.3269 90.231095 1034.6213 92.452402 1032.5828 91.670131C1030.3982 90.831835 1029.8016 93.895863 1031.4902 97.280874C1033.2791 100.86666 1032.9295 101.56781 1030.1062 100.05682C1028.9703 99.448946 1026.7943 99.217369 1025.2705 99.542202L1022.5 100.13281L1025.25 97.77884C1026.9955 96.284679 1028.0 94.43413 1028.0 92.712435C1028.0 89.793071 1027.1009 89.299116 1025.2167 91.183333C1024.5658 91.834167 1023.6883 92.020884 1023.2667 91.598262C1022.845 91.175639 1023.7375 89.764724 1025.25 88.462894C1027.2885 86.708315 1028.0 85.177998 1028.0 82.547966C1028.0 80.596585 1027.55 79.0 1027.0 79.0C1026.45 79.0 1026.0 79.45 1026.0 80.0C1026.0 80.55 1025.325 81.0 1024.5 81.0C1022.263 81.0 1022.6831 79.394415 1025.5 77.17866C1026.875 76.097085 1028.0 74.228669 1028.0 73.026625C1028.0 71.08658 1027.6349 70.918288 1024.75 71.528365L1021.5 72.21564L1024.75 68.810213C1026.7748 66.688573 1028.0 64.38603 1028.0 62.702393C1028.0 59.696943 1027.7197 59.544485 1024.9343 61.035184C1022.3433 62.421817 1022.3292 60.353734 1024.9106 57.564451C1025.9614 56.429003 1026.9739 54.375 1027.1606 53.0C1027.4502 50.866485 1027.1504 50.549203 1025.1155 50.835642L1022.731 51.171285L1024.8669 47.715441C1026.0416 45.814727 1027.2784 42.248333 1027.6153 39.790121C1028.2187 35.387555 1028.1551 35.262585 1023.3639 31.442339C1020.6888 29.30927 1017.6857 26.752147 1016.6904 25.759842C1014.6758 23.751263 1014.6537 23.759661 1007.13 29.397504L1001.76 33.421483L1002.2704 39.779599C1002.6396 44.378896 1003.3643 46.758905 1004.8904 48.383309C1007.1608 50.800019 1008.0246 54.424594 1005.8 52.2C1003.8076 50.207572 1003.0 50.826233 1003.0 54.345012C1003.0 56.420033 1003.7593 58.377213 1005.0 59.5C1006.1 60.495486 1007.0 61.742715 1007.0 62.271619C1007.0 62.800523 1006.1 62.997907 1005.0 62.710251C1003.4178 62.2965 1003.0 62.679569 1003.0 64.54393C1003.0 65.840109 1003.7875 67.37265 1004.75 67.949575C1006.3669 68.918755 1006.375 69.096147 1004.8559 70.282082C1003.0418 71.698344 1003.161 76.563771 1005.0985 80.184023C1006.0086 81.884554 1005.9146 82.468268 1004.6137 83.196329C1002.5269 84.36414 1002.5475 87.842522 1004.655 90.171259C1006.1974 91.875581 1006.1881 92.134652 1004.5189 93.979151C1002.8867 95.782691 1002.8729 96.01401 1004.3639 96.58614C1005.2637 96.931451 1006.0 97.953333 1006.0 98.856989C1006.0 100.13759 1005.0074 100.5 1001.5 100.5C999.025 100.5 997.0 100.26251 997.0 99.972241Z M996.98301 32.350324C997.25092 32.082413 996.38139 31.041983 995.05072 30.038257C993.13667 28.594488 992.25207 28.450142 990.81566 29.347196C988.71549 30.658772 988.44191 32.598855 990.25 33.358514C991.53859 33.899907 996.11934 33.213992 996.98301 32.350324Z M1039.817 30.744314C1040.2242 27.203893 1038.128 26.365312 1034.0903 28.453326C1029.0092 31.080855 1030.1339 34.288315 1035.9643 33.797592C1038.9915 33.542797 1039.5456 33.103703 1039.817 30.744314Z"/>
</svg>
