<?xml version="1.0" encoding="UTF-8"?>
<svg xmlns="http://www.w3.org/2000/svg" viewBox="32.89 17.84 21.8 88.01">
  <path d="M36.479712 99.336855C34.997296 97.854439 34.887198 95.599593 35.466551 78.586855C35.824043 68.089085 36.202815 51.180977 36.308268 41.013282C36.471245 25.299154 36.729935 22.482344 38.033132 22.231723C40.051461 21.843572 47.630109 28.38403 49.619314 32.230727C51.06119 35.019009 51.042292 35.589348 49.382411 39.380358C48.390336 41.646161 46.548445 44.892476 45.28932 46.594391C42.347055 50.571343 42.395071 51.182238 46.046066 56.22229C48.544645 59.671478 49.038919 61.229076 48.796066 64.888329C48.545421 68.665004 48.039757 69.603483 45.5 71.005611C43.85 71.91653 42.366352 73.351395 42.203004 74.194202C42.039656 75.037008 43.952156 78.123701 46.453004 81.053519C52.688834 88.358982 52.620806 91.103352 46.063918 96.75C40.666591 101.39806 38.992711 101.84985 36.479712 99.336855Z M45.288723 94.062941L49.5 90.125882L47.549584 86.483195C45.33188 82.341311 40.285163 77.705725 38.915328 78.55233C38.411898 78.863467 38.0 83.366476 38.0 88.559017C38.0 99.667134 38.715925 100.20775 45.288723 94.062941Z M45.629708 40.769872C48.87452 35.663512 48.633003 33.005864 44.565913 29.063885C39.252068 23.913504 38.206587 25.116069 38.08692 36.516351C38.031201 41.824594 38.258524 46.609283 38.592083 47.148994C39.387745 48.436401 42.619497 45.50704 45.629708 40.769872Z M43.764691 69.365908C46.793027 67.056083 47.151322 66.319914 46.67519 63.385858C46.090685 59.783971 41.486925 53.0 39.627107 53.0C38.875251 53.0 38.415458 56.20979 38.266258 62.5C38.014779 73.102313 38.337566 73.505378 43.764691 69.365908Z"/>
</svg>
