<?xml version="1.0" encoding="UTF-8"?>
<svg xmlns="http://www.w3.org/2000/svg" viewBox="0.36 17.62 22.76 88.51">
  <path d="M8.1970026 97.91349C5.1340776 95.660989 4.0 94.123995 4.0 92.225369C4.0 89.688747 7.779041 83.020467 9.2243199 83.006833C9.6226958 83.003075 10.67568 81.594059 11.564285 79.875687L13.179929 76.751375L8.5899647 72.091338C2.355949 65.762152 2.4451343 63.384639 9.1619895 56.842217L14.323979 51.814283L9.6619895 47.829335C5.6168528 44.371658 5.0 43.337303 5.0 40.011992C5.0 37.064185 5.8923908 35.062479 8.8661951 31.339798C14.499607 24.287754 17.638126 21.647158 19.525638 22.371465C20.999286 22.936956 21.111037 26.468192 20.708477 59.747978C20.463968 79.96159 19.92705 97.5125 19.515326 98.75C18.396488 102.11284 13.40566 101.74398 8.1970026 97.91349Z M18.0 64.5C18.0 56.415152 17.75903 55.0 16.382353 55.0C14.250636 55.0 7.0 62.29585 7.0 64.440861C7.0 66.688961 14.049224 73.960408 16.25 73.982463C17.79509 73.997947 18.0 72.887633 18.0 64.5Z M17.393011 96.418213C17.726855 95.548229 18.0 91.498229 18.0 87.418213C18.0 81.931513 17.655479 80.0 16.676826 80.0C14.892617 80.0 7.0 89.817151 7.0 92.036421C7.0 93.95288 12.481385 97.955862 15.143011 97.983153C16.046667 97.992419 17.059167 97.288196 17.393011 96.418213Z M18.984687 38.75C18.96925 28.416464 18.1924 25.145022 16.066059 26.459173C13.503782 28.042747 7.0 37.32163 7.0 39.393631C7.0 41.579393 12.087728 47.24245 15.0 48.298285C18.814907 49.681367 19.000354 49.236991 18.984687 38.75Z"/>
</svg>
