<?xml version="1.0" encoding="UTF-8"?>
<svg xmlns="http://www.w3.org/2000/svg" viewBox="2040.69 14.2 22.54 88.84">
  <path d="M 2042.6875 51.8125 L 2042.9062 56.78125 C 2042.9545 56.80046 2043.1595 56.753255 2043.1875 56.78125 C 2043.7521 57.34587 2043.5314 58.273624 2043.0312 59.25 L 2043.3438 66 L 2043.2812 66.15625 C 2043.68 66.964337 2044 68.533349 2044 70.46875 C 2044 79.906707 2049.3343 99 2051.9688 99 C 2052.7734 99 2055.3025 89.232297 2057.9375 76 C 2061.2257 59.488252 2060.3545 37.103957 2056 26 C 2053.2313 18.939921 2052.5215 18.23436 2050.1562 20.375 C 2048.1724 22.170337 2045.5789 32.846163 2044.2188 44.9375 L 2043.5 51.375 L 2042.6875 51.8125 z M 2050.6875 23.0625 C 2051.8681 22.552352 2053.3159 25.080163 2054.9062 30.4375 C 2058.8809 43.826345 2058.6905 65.420789 2054.4375 82.71875 C 2051.9216 92.951622 2051.5851 92.890419 2047.8438 81.5 C 2045.3808 74.001332 2046.6605 32.237747 2049.5938 24.59375 C 2049.9189 23.746601 2050.294 23.232549 2050.6875 23.0625 z "/>
</svg>
