<?xml version="1.0" encoding="UTF-8"?>
<svg xmlns="http://www.w3.org/2000/svg" viewBox="655.71 55.52 30.29 45.37">
  <path d="M 684 90.65625 L 682.40625 85.5625 C 681.14004 87.685137 677.47032 90.811698 673.5 92.90625 C 668.22367 95.689785 664.42557 95.62874 662.78125 92.75 C 661.08652 89.782992 660.98141 62.611347 662.65625 60.9375 C 664.20946 59.385206 664.79147 62.984328 664.90625 74.75 C 665.04516 88.988074 667.8647 91.526128 677.46875 86.03125 C 679.58409 84.820975 680.98667 84.142455 681.875 83.90625 L 680.75 80.34375 C 678.5347 82.375184 675.40643 84.215028 672.6875 84.65625 C 669.30344 85.205406 669.12821 85.10054 668.09375 81.375 C 667.50306 79.247638 666.96414 74.35 666.90625 70.5 C 666.77897 62.035701 665.91982 58.618564 663.84375 58.21875 C 660.54126 57.582749 658.60877 62.923689 658.1875 73.75 C 657.71121 85.990391 658.38533 91.470656 660.96875 95.71875 C 662.71836 98.595756 663.23207 98.825241 666.6875 98.3125 C 668.7765 98.002521 673.22415 96.009742 676.5625 93.875 C 679.90084 91.740258 682.89959 90 683.21875 90 C 683.27921 90 683.84038 90.551544 684 90.65625 z "/>
</svg>
