<?xml version="1.0" encoding="UTF-8"?>
<svg xmlns="http://www.w3.org/2000/svg" viewBox="1403.01 14.77 43.71 89.85">
  <path d="M1421.1931 97.976932C1418.2067 94.771412 1416.6146 86.208939 1417.3978 77.565907C1417.7749 73.404658 1417.7921 70.0 1417.4361 70.0C1417.08 70.0 1415.3986 71.16968 1413.6996 72.59929L1410.6106 75.198579L1407.8322 71.84929C1406.3041 70.00718 1405.0417 67.796135 1405.0269 66.935855C1405.0121 66.075575 1407.0183 63.859492 1409.485 62.011227C1411.9518 60.162962 1415.1577 56.937 1416.6092 54.842423C1418.952 51.461696 1419.2315 50.164753 1419.0985 43.291334C1419.016 39.032811 1418.5101 35.110138 1417.9743 34.574282C1417.4384 34.038427 1417.0 33.020025 1417.0 32.311167C1417.0 30.327013 1426.0711 18.857045 1427.313 19.270985C1427.9167 19.472231 1429.3477 21.49803 1430.493 23.77276C1433.3317 29.410906 1433.5255 29.518438 1436.5542 27.136018C1438.5615 25.55705 1439.6643 25.285179 1441.0512 26.027391C1443.5207 27.349062 1444.119 28.479867 1444.2195 32.016349C1444.3378 36.175371 1441.3775 39.186326 1437.5462 38.803985L1434.5 38.5L1434.2093 46.766004L1433.9186 55.032008L1439.0439 58.218062C1444.5244 61.624923 1444.7259 62.353023 1442.0975 69.25C1440.8885 72.422591 1439.8836 72.625068 1436.4648 70.38499C1434.4918 69.092245 1433.9825 69.042359 1433.9123 70.13499C1433.864 70.885746 1433.6421 75.253043 1433.4192 79.840095C1433.0051 88.359899 1430.9252 94.931956 1427.5861 98.271078C1425.3188 100.53834 1423.5016 100.45473 1421.1931 97.976932Z M1428.9557 89.629081C1430.2432 85.721356 1430.4818 76.299474 1429.4843 68.75C1428.6068 62.108193 1429.3347 61.628033 1434.4111 65.5C1438.2194 68.404746 1439.5522 68.609324 1440.393 66.418213C1441.4429 63.682346 1441.0966 63.091775 1437.25 61.056872C1430.5791 57.527911 1429.774 55.440488 1430.4066 43.313722C1430.8808 34.223453 1430.684 32.074018 1429.0364 28.349375C1427.9782 25.957219 1426.6739 24.0 1426.1378 24.0C1425.6017 24.0 1424.2612 25.4625 1423.1589 27.25C1421.3846 30.127323 1421.2186 31.651373 1421.7113 40.540758C1422.2926 51.029761 1421.4667 54.38815 1417.1968 58.898868C1408.7033 67.871371 1408.8611 67.639834 1410.3798 68.900208C1411.5819 69.897896 1412.4276 69.476845 1415.0834 66.558294C1418.2866 63.038188 1420.3656 62.164457 1421.4321 63.890111C1421.7347 64.379673 1421.458 68.486951 1420.8173 73.017396C1419.6167 81.507369 1420.7571 91.782962 1423.232 94.775228C1424.6545 96.495094 1427.5517 93.890247 1428.9557 89.629081Z M1441.0 32.559017C1441.0 29.156559 1439.1707 28.384836 1436.7778 30.777778C1434.3848 33.170719 1435.1566 35.0 1438.559 35.0C1440.4803 35.0 1441.0 34.480328 1441.0 32.559017Z"/>
</svg>
