<?xml version="1.0" encoding="UTF-8"?>
<svg xmlns="http://www.w3.org/2000/svg" viewBox="1877.44 14.96 28.94 88.9">
  <path d="M 1904.375 82.4375 C 1903.1967 81.92578 1902.0357 81.160699 1900.9375 80.0625 C 1899.3298 78.454808 1898 76.500194 1898 75.6875 C 1898 74.874805 1896.8696 71.785863 1895.5 68.84375 C 1892.4259 62.240389 1892.4334 61.170592 1895.1875 47.40625 C 1897.2029 37.333773 1897.2617 35.785444 1896.0312 30.65625 C 1894.1964 23.007858 1891.6535 19 1888.625 19 C 1884.6717 19 1882.053 21.98569 1881.3438 27.3125 C 1880.8132 31.297633 1881.0672 32.628298 1882.8438 35.03125 C 1885.5772 38.728342 1885.5496 40.321639 1882.5 49.40625 C 1879.439 58.524939 1879.4424 58.686403 1882.375 65.21875 C 1886.1569 73.642831 1888.3311 84.291262 1887.75 91.53125 C 1887.4691 95.030673 1887.4801 98.136273 1887.7812 98.4375 C 1889.1647 99.820823 1894.1226 98.763433 1896.8125 96.5 L 1899.7812 94 L 1903.5625 95.71875 L 1903.8125 91.8125 L 1898.8438 89.09375 L 1895.6875 92.5625 C 1893.9445 94.461691 1892.1663 96 1891.75 96 C 1891.3337 96 1891 93.32281 1891 90.0625 C 1891 83.818051 1887.3712 68.560632 1884.625 63.25 C 1882.4824 59.10684 1882.5483 57.761001 1885.4688 49.5 C 1888.4988 40.928246 1888.6086 37.657391 1885.9375 33.90625 C 1884.2615 31.552457 1884.0131 30.163336 1884.5625 26.5 C 1885.3599 21.182345 1887.6591 20.47413 1890.875 24.5625 C 1894.7088 29.43638 1894.7432 37.454728 1890.9688 55.90625 C 1889.9359 60.95575 1890.0803 61.946211 1893.0938 70.40625 C 1897.226 82.007592 1898.2627 83.547596 1903.375 85.5 C 1903.6648 85.610674 1903.9079 85.657492 1904.1875 85.75 L 1904.375 82.4375 z "/>
</svg>
