<?xml version="1.0" encoding="UTF-8"?>
<svg xmlns="http://www.w3.org/2000/svg" viewBox="1356.34 13.43 45.66 92.79">
  <path d="M1381.4942 82.25C1382.6265 52.398314 1383.0837 48.529913 1385.5 48.356299C1386.6 48.277264 1388.1188 48.164764 1388.875 48.106299C1390.9643 47.944782 1389.7763 43.871553 1384.212 32.118606L1379.2971 21.737212L1375.9721 27.618606C1374.1433 30.853373 1370.9265 36.062809 1368.8235 39.195131C1364.3147 45.911015 1364.1392 47.0 1367.5657 47.0C1371.6729 47.0 1373.7173 48.67969 1374.4657 52.668982C1375.1151 56.130688 1373.4472 93.725387 1372.4213 98.75C1372.1686 99.9875 1371.3556 101.0 1370.6145 101.0C1369.1127 101.0 1369.1831 97.009263 1371.1173 72.5C1371.725 64.8 1372.0597 56.925 1371.8611 55.0C1371.5181 51.675572 1371.2907 51.484766 1367.3279 51.196308C1361.851 50.797641 1360.4714 49.131689 1361.938 44.687763C1362.8761 41.845338 1362.7293 40.534204 1361.0284 36.566156C1358.7504 31.252002 1358.4184 25.370539 1360.1783 21.508063C1361.7199 18.124471 1364.2247 18.676087 1365.5258 22.685716C1366.5096 25.71743 1369.6604 30.00111 1370.905 29.998983C1371.2322 29.998424 1372.8144 27.635924 1374.4208 24.748983C1376.0273 21.862042 1377.803 19.193899 1378.3669 18.819775C1380.1368 17.645606 1382.7833 19.836807 1384.6181 23.995371C1386.605 28.498896 1388.2132 28.98875 1390.7598 25.866083C1396.5922 18.714117 1396.9257 18.442692 1397.9667 20.0C1399.9275 22.933275 1399.0736 29.081959 1395.8711 35.090479C1393.4865 39.56438 1392.8905 41.702477 1393.3656 44.078136C1394.4093 49.296748 1393.2443 51.845329 1389.6557 52.193672C1386.7539 52.47535 1386.4424 52.862105 1385.7838 57.0C1385.3899 59.475 1384.758 70.6125 1384.3796 81.75C1383.8068 98.60869 1383.4448 102.0 1382.2183 102.0C1380.9451 102.0 1380.8467 99.318596 1381.4942 82.25Z M1367.9346 35.122238C1368.7224 33.650191 1368.3519 32.469715 1366.2198 29.658681C1362.8927 25.27218 1362.0 25.122885 1362.0 28.952947C1362.0 35.331366 1365.7412 39.220557 1367.9346 35.122238Z M1393.9797 32.039838C1395.0909 29.861749 1396.0 27.349249 1396.0 26.456505C1396.0 24.243153 1393.7261 25.128797 1392.5129 27.814693C1391.97 29.016612 1391.1825 30.0 1390.7629 30.0C1390.3433 30.0 1390.0 31.35 1390.0 33.0C1390.0 37.13447 1391.5744 36.754628 1393.9797 32.039838Z"/>
</svg>
