<?xml version="1.0" encoding="UTF-8"?>
<svg xmlns="http://www.w3.org/2000/svg" viewBox="258.73 11.13 21.94 98.29">
  <path d="M261.70762 104.37429C260.73388 103.40055 260.87336 90.979194 261.95325 82.5C262.44358 78.65 262.94888 63.35 263.07615 48.5C263.35568 15.883123 263.38938 15.600208 266.89285 16.465027C268.32678 16.818987 271.075 17.427075 273.0 17.816333C276.11776 18.446781 276.62866 19.014218 277.67803 23.012038C278.34145 25.539525 278.67253 31.213051 278.43594 36.0C278.20488 40.675 277.76433 56.2 277.45696 70.5C277.14958 84.8 276.57738 98.3 276.1854 100.5L275.47272 104.5L268.94398 104.79096C265.35318 104.95098 262.09682 104.76348 261.70762 104.37429Z M273.3875 97.8125C274.15384 93.980822 273.41859 93.104464 268.81011 92.356611C265.50976 91.821038 265.25464 91.97679 264.6736 94.88198C263.72658 99.617076 264.70046 101.0 268.98199 101.0C272.41792 101.0 272.80618 100.71908 273.3875 97.8125Z M274.0 82.440983L274.0 76.0L270.125 76.0C266.585 76.0 266.19597 76.270161 265.625 79.125C264.30453 85.727361 264.79729 87.917188 267.75 88.568419C269.2625 88.902007 270.95 89.299855 271.5 89.452526C273.53978 90.018735 274.0 88.72799 274.0 82.440983Z M275.64286 55.5C276.46786 54.675 276.66071 54.0 276.07143 54.0C275.42122 54.0 275.0 51.485899 275.0 47.605035L275.0 41.210071L270.94805 40.823655C268.71947 40.611126 266.69447 40.63886 266.44805 40.885286C266.20162 41.131712 266.0 44.600337 266.0 48.593343C266.0 54.666752 266.28603 55.928098 267.75 56.310674C271.33839 57.248419 274.18702 56.955837 275.64286 55.5Z M275.60929 35.420564C276.14776 33.275149 275.4363 22.080329 274.7179 21.394428C274.59806 21.280003 272.71852 21.035133 270.54116 20.850274L266.58233 20.514166L266.22697 28.67912C265.88454 36.547102 265.95579 36.860142 268.18581 37.285855C273.74715 38.347519 274.95057 38.045138 275.60929 35.420564Z M275.0 66.600694L275.0 60.201387L270.67161 59.850694L266.34321 59.5L266.17985 65.446076C265.9987 72.03918 266.67967 72.960798 271.75 72.984687L275.0 73.0L275.0 66.600694Z"/>
</svg>
