<?xml version="1.0" encoding="UTF-8"?>
<svg xmlns="http://www.w3.org/2000/svg" viewBox="1843.7 17.96 32.54 84.89">
  <path d="M1856.9725 97.348876C1846.6373 90.447075 1845.7035 86.369494 1852.7363 78.850861L1857.4725 73.787404L1852.7363 69.789636C1849.5985 67.141162 1848.0 65.009109 1848.0 63.47266C1848.0 61.171494 1851.3965 56.391286 1855.7843 52.516971L1858.0686 50.5L1853.7129 45.5C1851.3173 42.75 1849.0885 39.771256 1848.7601 38.880569C1848.0372 36.920011 1850.3245 33.135835 1856.1824 26.600807C1860.1512 22.173241 1860.7866 21.815398 1862.7825 22.883587C1863.9972 23.533672 1866.568 26.407302 1868.4955 29.269431C1873.1408 36.167307 1873.1418 39.900554 1868.5 45.565305C1866.575 47.914514 1865.0 50.160536 1865.0 50.556466C1865.0 50.952396 1866.8 53.229108 1869.0 55.615826C1873.9932 61.032787 1874.2465 64.510761 1870.0 69.347219C1868.35 71.226465 1867.0 73.095217 1867.0 73.5C1867.0 73.904783 1868.35 75.773535 1870.0 77.652781C1871.65 79.532027 1873.0 82.071197 1873.0 83.295381C1873.0 86.019338 1863.0936 98.930336 1860.9725 98.970835C1860.1324 98.986876 1858.3324 98.256994 1856.9725 97.348876Z M1859.8169 61.427705C1859.8988 56.622069 1859.5833 55.0 1858.5668 55.0C1857.1435 55.0 1851.0 61.439304 1851.0 62.931204C1851.0 63.40509 1852.6362 65.229435 1854.636 66.985303C1859.0412 70.853069 1859.6678 70.180926 1859.8169 61.427705Z M1858.9863 88.25C1858.9653 80.933152 1858.1729 78.837117 1855.8896 80.059076C1852.989 81.61145 1850.7478 85.629889 1851.4857 87.95508C1852.063 89.773747 1856.223 92.851753 1858.25 92.959962C1858.6625 92.981983 1858.9939 90.8625 1858.9863 88.25Z M1860.4407 35.948132L1860.9443 25.5L1856.4927 30.5C1854.0443 33.25 1852.0319 36.381027 1852.0206 37.457837C1852.0028 39.150532 1858.8773 47.456065 1859.6536 46.679776C1859.8095 46.523845 1860.1637 41.694605 1860.4407 35.948132Z M1866.952 88.569825C1868.6284 86.133228 1870.0 83.636644 1870.0 83.021859C1870.0 81.597347 1864.9023 77.073372 1863.25 77.031601C1862.5625 77.014221 1861.9658 77.7875 1861.9239 78.75C1861.8821 79.7125 1861.6602 83.3125 1861.4308 86.75C1860.913 94.509592 1862.5044 95.034124 1866.952 88.569825Z M1866.7024 67.803833C1870.5557 64.069096 1870.7269 62.829591 1867.9319 58.90437C1865.2536 55.143001 1863.406 55.219811 1862.625 59.125C1861.7816 63.341924 1861.8315 71.0 1862.7024 71.0C1863.0887 71.0 1864.8887 69.561725 1866.7024 67.803833Z M1868.9667 37.562909C1868.9322 34.386171 1865.4857 29.18092 1864.241 30.425636C1863.8511 30.815565 1863.3657 34.591813 1863.1624 38.817299L1862.7926 46.5L1865.8963 43.562909C1868.0804 41.496058 1868.9901 39.718298 1868.9667 37.562909Z"/>
</svg>
