<?xml version="1.0" encoding="UTF-8"?>
<svg xmlns="http://www.w3.org/2000/svg" viewBox="191.66 8.47 19.83 98.46">
  <path d="M 207 99.4375 L 206.65625 98.65625 L 206.84375 93.6875 C 206.50256 93.212697 206.28924 92.630398 206.1875 91.75 C 205.98788 90.0226 206.17551 89.189917 207.03125 89.1875 L 207.21875 84.4375 L 205.75 83.53125 L 206.40625 71.03125 C 206.76504 64.144906 207.26969 53.775 207.53125 48 C 207.79281 42.225 208.26826 35.383091 208.59375 32.78125 C 209.48804 25.63256 208.27432 20 205.84375 20 C 203.56261 20 199.81501 18.187285 198.78125 16.59375 C 196.41374 12.94423 195.43734 23.649253 194.46875 63 C 193.65613 96.014565 193.68106 98.917178 194.96875 100.46875 C 196.58471 102.41587 202.02604 102.44973 204.5625 100.53125 C 205.2693 99.996651 206.08755 99.671522 207 99.4375 z M 202 23 C 204.98398 23 205.36431 23.839139 205.21875 30 C 205.21225 30.275 204.91049 38.825 204.53125 49 C 204.15201 59.175 203.65235 73.946017 203.4375 81.8125 C 203.22265 89.678983 202.79076 96.541483 202.46875 97.0625 C 201.86136 98.045274 197.70749 98.363735 196.84375 97.5 C 196.16241 96.818654 196.6529 60.680182 197.375 58.375 C 197.8401 56.890257 198.68122 39.547492 198.96875 25.25 C 199.00542 23.426722 199.56896 23 202 23 z "/>
</svg>
