<?xml version="1.0" encoding="UTF-8"?>
<svg xmlns="http://www.w3.org/2000/svg" viewBox="927.22 10.7 21.56 95.28">
  <path d="M929.53815 101.06173C929.21738 100.54271 929.46012 93.003996 930.07758 84.30903C930.69503 75.614063 931.49268 56.575 931.85011 42.0L932.5 15.5L938.39575 15.195747C941.63841 15.028408 944.66028 15.260277 945.11101 15.711011C946.27821 16.87821 946.58999 52.996 945.44002 53.823547C944.92301 54.195596 944.35259 55.4 944.17243 56.5C943.84666 58.489052 943.85297 58.489176 945.32521 56.522712C946.69461 54.693624 946.77757 54.881003 946.43207 59.022712C946.22664 61.48522 945.81798 68.0 945.52392 73.5C944.58499 91.061934 943.9032 97.411715 942.81577 98.721979C942.23241 99.42489 939.98063 100.0 937.81181 100.0C935.643 100.0 933.02541 100.45122 931.99495 101.0027C930.83242 101.62487 929.90004 101.64727 929.53815 101.06173Z M941.46156 92.640126C943.75869 78.52293 943.91388 20.191648 941.65803 18.791609C940.78453 18.249496 936.34992 18.670506 935.34789 19.390676C935.26423 19.450804 934.93052 30.75 934.60632 44.5C934.02607 69.109186 933.3774 82.936945 932.46353 90.17823C931.87818 94.816318 933.6961 96.844987 937.88656 96.229957C940.41359 95.859067 941.04015 95.229913 941.46156 92.640126Z"/>
</svg>
