<?xml version="1.0" encoding="UTF-8"?>
<svg xmlns="http://www.w3.org/2000/svg" viewBox="796.89 10.32 59.53 97.23">
  <path d="M814.01726 100.54541C813.45777 99.073825 813.0 97.291613 813.0 96.584939C813.0 95.878265 811.65 93.436456 810.0 91.158697C805.85348 85.434594 806.09065 82.314652 811.10539 76.61761L815.21078 71.95364L812.43866 69.72682C810.914 68.502069 808.90796 67.05 807.9808 66.5C807.05365 65.95 804.81374 64.236911 803.00323 62.693136L799.71139 59.886273L802.05737 54.877512C803.34766 52.122693 804.78168 49.634927 805.24409 49.349142C805.7065 49.063357 808.55153 50.936895 811.56638 53.51256C814.83511 56.305123 817.64378 57.966937 818.52396 57.629179C821.48131 56.494337 819.53084 32.130842 816.21737 28.817373C815.54595 28.145948 814.32855 28.393842 812.53903 29.566381C809.58003 31.505194 803.5339 31.687991 801.3839 29.903642C799.59698 28.420637 799.61861 24.638215 801.43406 21.127507C804.63908 14.929695 807.83128 14.738132 812.0 20.493449C814.38372 23.784409 816.44544 24.88142 817.16667 23.242561C817.78228 21.843697 825.7737 16.0 827.07108 16.0C827.77688 16.0 829.56624 17.451655 831.04745 19.225901L833.74055 22.451801L837.67403 19.725901C843.88928 15.418728 850.0 16.37408 850.0 21.652947C850.0 27.996961 844.35767 32.219218 838.9006 29.958826C837.15119 29.234198 835.55544 29.086153 835.09359 29.605635C834.32866 30.466004 831.96564 44.845243 831.74206 50.0C831.47342 56.193632 832.03255 59.0 833.53518 59.0C835.70904 59.0 840.05704 56.093877 843.06863 52.628016L845.63725 49.671934L848.80856 52.016587C853.71457 55.643756 853.62613 57.066858 848.03564 64.452918C845.26604 68.112067 843.0 71.711151 843.0 72.450884C843.0 73.190617 844.11958 75.754286 845.48795 78.147926C848.62516 83.635714 848.62742 86.045842 845.5 91.0C844.125 93.178141 843.0 95.554199 843.0 96.280128C843.0 98.309909 840.94002 99.907085 839.12814 99.282118C836.24073 98.286171 835.0 95.727327 835.0 90.768378C835.0 86.206959 832.65083 81.080187 829.5 78.765313C827.83323 77.54076 827.38227 77.827504 823.47415 82.596854C819.84946 87.020302 819.74515 87.358817 820.70896 91.570657C821.84406 96.531072 820.88294 99.374446 817.26726 101.75252C815.17868 103.12621 814.96885 103.04827 814.01726 100.54541Z M811.76612 26.63236C812.78341 25.639249 812.47108 24.767789 810.17692 22.198165C808.6065 20.439174 807.06094 19.0 806.74236 19.0C806.42378 19.0 805.15068 20.638158 803.91326 22.640351C801.70848 26.207762 801.70183 26.308838 803.5817 27.684943C805.65643 29.203691 809.65956 28.688855 811.76612 26.63236Z M817.76078 92.608592C817.47861 89.093318 817.53967 85.744837 817.89646 85.167525C819.90904 81.91111 825.5392 76.0 826.62827 76.0C827.32806 76.0 828.27928 75.323379 828.74208 74.496399C829.40534 73.311218 830.34121 73.999479 833.16131 77.746399C838.19307 84.431828 839.18309 86.653427 838.85057 90.513048C838.41373 95.583453 839.53189 95.654914 842.41184 90.740648C845.72893 85.080456 845.66811 83.22238 842.0 78.158697C840.35 75.880939 839.0 73.500686 839.0 72.869248C839.0 72.23781 841.475 68.657919 844.5 64.913935C847.525 61.169952 850.0 57.648519 850.0 57.08853C850.0 56.528541 849.12093 55.599905 848.04652 55.024894C846.46253 54.177172 845.4695 54.514989 842.79652 56.810869C834.79044 63.687461 832.00063 64.491568 830.16052 60.452947C828.49834 56.804873 828.72943 44.236256 830.6372 34.52665C832.26162 26.259161 832.25719 26.169927 830.06911 23.097053C827.38305 19.324832 825.70177 19.227353 821.29527 22.588355C818.40155 24.795508 818.09309 25.406683 819.20088 26.738229C822.54788 30.761269 824.10032 53.122307 821.46974 59.418189C819.76085 63.508123 819.92033 63.536848 812.29505 57.765654C806.88075 53.667847 805.61248 53.549862 804.69492 57.058629C804.08095 59.406457 804.82048 60.198852 813.25 66.2252C816.4125 68.486104 819.0 71.001182 819.0 71.814263C819.0 72.627343 816.975 75.457479 814.5 78.103454C812.025 80.749429 810.0 83.431136 810.0 84.062803C810.0 84.69447 811.125 86.548275 812.5 88.182369C813.875 89.816464 815.0 91.764629 815.0 92.511626C815.0 94.456893 816.82901 99.0 817.61216 99.0C817.97607 99.0 818.04295 96.123866 817.76078 92.608592Z M844.83439 26.403443C847.73926 24.368796 847.40335 20.628411 844.27583 20.183834C841.89746 19.845748 837.08352 22.778444 837.03142 24.597186C837.00492 25.522751 840.27827 27.707885 842.02749 27.93232C842.31762 27.969544 843.58072 27.281549 844.83439 26.403443Z"/>
</svg>
