<?xml version="1.0" encoding="UTF-8"?>
<svg xmlns="http://www.w3.org/2000/svg" viewBox="2495.94 3.09 25.08 103.53">
  <path d="M2504.0199 92.704222C2499.6827 83.138723 2497.9755 72.99976 2497.9625 56.728987C2497.9375 25.620389 2505.8869 7.8006346 2512.8847 23.278839C2518.5829 35.88269 2519.0215 71.629689 2513.6788 88.0C2509.3123 101.37904 2508.1991 101.92122 2504.0199 92.704222Z M2505.3002 48.514741C2508.4042 46.935814 2509.4552 46.803188 2511.0367 47.790829C2513.865 49.557178 2514.0 49.415249 2514.0 44.674314C2514.0 41.393854 2513.4165 39.800436 2511.5851 38.079924C2508.6415 35.31455 2505.2871 36.00805 2504.3939 39.56665C2504.058 40.904993 2503.157 42.0 2502.3916 42.0C2501.5207 42.0 2501.0 43.09195 2501.0 44.918213C2501.0 46.523229 2500.7033 48.609632 2500.3407 49.554662C2499.978 50.499693 2500.0905 51.087258 2500.5907 50.860362C2501.0908 50.633466 2503.2101 49.577937 2505.3002 48.514741Z M2515.0 60.744734C2515.0 57.347706 2510.5343 50.0 2508.4698 50.0C2507.7777 50.0 2505.8139 51.305544 2504.1058 52.90121C2501.5951 55.2465 2501.0 56.59868 2501.0 59.957914C2501.0 64.052369 2501.0326 64.090542 2503.2225 62.556704C2506.2434 60.44079 2509.6769 60.599806 2511.6882 62.948773C2513.8379 65.459481 2515.0 64.686099 2515.0 60.744734Z M2505.7336 74.99488C2507.6668 73.474254 2508.6079 73.259658 2509.6286 74.106756C2510.3689 74.721103 2511.6553 74.96253 2512.4873 74.64326C2514.1213 74.016224 2514.612 70.0 2513.0546 70.0C2512.5346 70.0 2511.516 68.7625 2510.7911 67.25C2507.8332 61.078555 2500.4296 65.933268 2501.6409 73.25C2501.9823 75.3125 2502.4693 77.0 2502.7231 77.0C2502.9769 77.0 2504.3316 76.097696 2505.7336 74.99488Z M2504.9537 34.555828C2505.6129 33.761533 2507.6664 32.974033 2509.517 32.805828L2512.8818 32.5L2510.6821 27.0C2509.4722 23.975 2508.0363 21.540695 2507.4912 21.590434C2506.0951 21.717811 2503.0047 28.196057 2502.3163 32.438229C2501.7089 36.181271 2502.8466 37.094731 2504.9537 34.555828Z M2510.7497 87.074584C2511.9218 82.44819 2511.8933 81.486028 2510.5218 79.392872C2508.6193 76.489407 2507.8338 76.421201 2505.5362 78.960006C2504.1851 80.452912 2503.9255 81.789093 2504.4465 84.566769C2506.294 94.414563 2508.6523 95.352868 2510.7497 87.074584Z"/>
</svg>
