<?xml version="1.0" encoding="UTF-8"?>
<svg xmlns="http://www.w3.org/2000/svg" viewBox="2157.79 30.84 43.06 58.81">
  <path d="M 2166.8923,81.696573 C 2159.7901,74.201173 2163.3412,50.470273 2170.4434,39.578873 2170.4434,36.603473 2173.9944,35.641273 2173.9944,34.865573 2181.0966,33.515473 2184.6477,34.723373 2188.1988,39.858173 2195.3009,47.326673 2198.852,58.826173 2198.852,68.851473 2198.852,76.892673 2195.3009,79.832573 2191.7498,78.830073 2188.1988,77.705273 2188.1988,75.480273 2188.1988,69.311573 2184.6477,62.453073 2188.1988,57.129573 2188.1988,53.171373 2191.7498,49.683473 2191.7498,47.168773 2188.1988,43.256573 2184.6477,39.819573 2184.6477,39.890373 2181.0966,43.976673 2181.0966,47.068673 2181.0966,47.102073 2173.9944,45.456473 2170.4434,43.601673 2170.4434,42.945373 2166.8923,52.062073 2166.8923,54.332073 2166.8923,55.954573 2170.4434,59.592373 2173.9944,65.500173 2173.9944,72.761673 2173.9944,74.720673 2173.9944,75.555973 2173.9944,77.006673 2173.9944,77.944473 2173.9944,81.465173 2170.4434,86.975873 2166.8923,85.352873 2166.8923,85.000973 2166.8923,83.355673 2166.8923,81.696573 z M 2170.4434,80.188773 C 2170.4434,77.798573 2170.4434,71.399673 2170.4434,66.734973 2166.8923,64.279073 2166.8923,62.334373 2166.8923,62.413273 2166.8923,62.717673 2166.8923,71.463873 2166.8923,75.683773 2166.8923,80.496673 2170.4434,82.401473 2170.4434,80.188773 z M 2195.3009,68.421573 C 2195.3009,62.334573 2195.3009,52.830773 2191.7498,53.266073 2191.7498,53.600673 2188.1988,63.128473 2188.1988,66.714273 2191.7498,77.163273 2195.3009,78.197473 2195.3009,68.421573 z M 2177.5455,42.403573 C 2177.5455,42.895573 2181.0966,40.543573 2181.0966,38.511873 2181.0966,36.922873 2173.9944,37.536873 2173.9944,39.332973 2170.4434,41.162273 2173.9944,41.705373 2177.5455,42.403573 z"/>
</svg>
