<?xml version="1.0" encoding="UTF-8"?>
<svg xmlns="http://www.w3.org/2000/svg" viewBox="651.28 9.57 60.03 98.3">
  <path d="M 693.25335,101.55547 C 691.26269,100.63317 689.68921,96.842773 689.22235,91.844973 688.91385,88.542673 688.73581,88.301873 685.03503,86.180673 681.77596,84.312673 680.76625,84.236173 678.59562,85.692673 673.4599,89.138773 672.16588,90.682773 671.90702,93.673473 671.43615,99.113673 668.51068,103.08707 664.80583,103.31827 663.39739,103.40617 663.01863,102.78447 662.33465,99.262073 661.89038,96.974073 661.90685,93.650073 662.37125,91.875473 663.18891,88.750873 663.10277,88.567473 659.64658,86.072173 655.71781,83.235773 654.00827,79.493473 655.24364,76.433773 656.28141,73.863473 659.12902,73.468773 660.72582,75.674073 664.43841,80.801373 673.65665,77.335373 673.12648,71.011573 672.87597,68.023673 672.64106,67.755973 668.65542,65.918173 662.01395,62.855773 657.75605,55.481573 660.34023,51.517273 661.59233,49.596373 664.03149,50.187073 668.06138,53.386973 671.37284,56.016373 674.55854,57.265973 673.21299,55.407673 672.91777,54.999973 672.74285,52.045073 672.8243,48.841073 L 672.97236,43.015873 666.61765,39.587773 660.26295,36.159773 659.77191,31.093173 C 658.99344,23.061173 661.35336,21.023073 666.02339,25.694273 670.33147,30.003373 671.34546,30.092673 672.67439,26.280073 675.30087,18.744773 681.31605,14.038273 682.91108,18.270573 683.25068,19.171673 684.28763,21.442673 685.21543,23.317273 687.08826,27.101273 686.76046,27.147273 693.1814,22.200573 697.63379,18.770473 699.20449,18.807273 700.63294,22.375273 702.49967,27.038073 700.9589,30.121773 694.32135,35.007273 L 688.23146,39.489773 687.68008,47.679873 C 687.37681,52.184473 687.42709,56.282173 687.79181,56.785873 688.19656,57.344873 690.03282,56.559173 692.50473,54.769273 697.38318,51.236873 698.81898,52.307173 698.34836,59.125173 698.03677,63.639373 697.22731,64.557473 689.75363,68.873173 686.17043,70.942373 687.76633,73.636373 693.23731,74.753973 696.27139,75.373673 698.51066,75.015973 701.5946,73.418773 706.41702,70.921273 708.57929,71.682473 708.1378,75.722273 707.67767,79.932573 705.4464,83.671773 701.83279,86.288373 698.858,88.442373 698.62862,89.032073 699.2409,92.951373 699.61034,95.316273 699.48506,97.907073 698.9625,98.708773 697.30223,101.25577 695.04049,102.38347 693.25335,101.55547 z M 695.96399,93.787373 C 695.62052,89.099273 695.0004,88.037573 692.92806,88.589573 691.38851,88.999573 691.45228,92.431873 693.08896,97.249473 694.29286,100.79327 696.30018,98.375973 695.96399,93.787373 z M 704.46894,77.761073 C 704.38073,76.349173 700.22916,76.454773 698.10037,77.923073 697.39976,78.406373 694.38323,78.380773 691.39698,77.866373 686.00049,76.936773 685.95805,76.905473 684.42573,72.728473 682.86154,68.464673 682.85251,66.646973 684.30331,48.101173 685.36385,34.544173 683.85277,24.878273 680.20364,21.876873 678.67962,20.623373 678.50338,20.719173 676.89025,23.678173 675.3775,26.453073 675.17996,39.368273 676.61985,41.356873 676.88795,41.727073 676.80122,43.598573 676.42713,45.515673 676.05304,47.432773 675.98444,51.329473 676.2747,54.174973 676.56497,57.020473 676.7171,59.688273 676.61279,60.103273 676.50849,60.518373 676.48568,62.757173 676.56213,65.078473 676.8498,73.814073 676.06151,76.552573 672.52144,79.115873 668.70614,81.878573 664.99851,82.200173 660.18782,80.186073 L 656.8027,78.768673 658.43134,81.024273 C 661.0672,84.674873 666.09133,87.162273 669.72419,86.615173 673.65306,86.023573 679.21999,82.294873 679.58565,80.010073 680.04633,77.131373 682.9447,77.373073 685.19264,80.477573 687.91614,84.238873 690.46972,85.428473 695.09252,85.089373 697.93865,84.880573 699.50908,84.132573 701.68956,81.947173 703.26351,80.369673 704.51422,78.485973 704.46894,77.761073 z M 668.18478,95.275773 C 668.71645,91.953573 667.6127,88.843373 666.25179,89.828873 665.33724,90.491073 664.82224,95.930573 665.46745,98.113173 666.21987,100.65847 667.54476,99.275073 668.18478,95.275773 z M 694.91541,59.886373 C 695.01821,58.331373 694.34399,58.281573 690.90567,59.590273 687.24154,60.984873 686.77103,61.422473 686.76074,63.445373 686.75048,65.462573 687.00897,65.632273 688.98879,64.908473 692.80388,63.513673 694.78669,61.833473 694.91541,59.886373 z M 673.19401,61.379073 C 673.1481,60.752373 671.99075,59.784773 670.62214,59.228773 669.25352,58.672773 667.16089,57.371673 665.97184,56.337473 663.54947,54.230573 662.26349,55.631573 664.18453,58.284673 667.43595,62.775073 673.44756,64.839773 673.19401,61.379073 z M 697.95347,25.881973 C 697.75949,22.843973 696.53136,23.208573 691.86943,27.688273 688.81827,30.620173 687.81548,32.203273 688.32185,33.288873 689.36341,35.521773 698.13814,28.773873 697.95347,25.881973 z M 667.57143,31.275573 C 665.09534,29.436873 662.94775,28.020673 662.79901,28.128373 662.65026,28.236073 662.59137,29.668973 662.66813,31.312473 662.79752,34.082873 663.044,34.422073 666.04848,35.963873 671.40821,38.714473 672.56594,38.826873 672.30189,36.570673 672.14511,35.231073 670.66085,33.569673 667.57143,31.275573 z"/>
</svg>
