<?xml version="1.0" encoding="UTF-8"?>
<svg xmlns="http://www.w3.org/2000/svg" viewBox="1883.29 16.52 52.82 88.42">
  <path d="M 1890.1626,88.977473 C 1887.8642,81.528073 1887.4416,79.409573 1886.5796,71.011873 1885.688,62.327373 1887.7222,53.270373 1893.6168,39.679373 1896.0527,34.063173 1897.4107,32.071273 1901.7749,27.713273 1908.9264,20.572073 1909.1377,20.542873 1915.9203,25.761273 1924.1648,32.104273 1928.5373,41.096273 1932.0059,58.840773 1933.7054,67.535473 1931.0893,85.314473 1927.2032,91.478873 1921.7012,100.20677 1917.271,98.948573 1917.4774,88.716473 1917.6808,78.628473 1919.474,71.786673 1923.9622,63.972773 L 1928.0051,56.934373 1925.1173,47.798473 C 1922.5132,39.559873 1919.8701,34.786773 1918.1306,35.181173 1917.7807,35.260473 1916.0198,37.234973 1914.2173,39.568873 1912.4148,41.902873 1910.4727,43.930873 1909.9015,44.075773 1909.3304,44.220673 1907.1466,42.662373 1905.0488,40.612873 1899.5658,35.256373 1898.3629,35.256373 1895.9982,40.612873 1892.8567,47.728873 1890.5959,55.593073 1891.2735,57.047373 1891.6205,57.792173 1892.907,59.518473 1894.1324,60.883473 1899.6605,67.041873 1902.6742,80.883773 1900.4502,89.901773 1897.7311,100.92767 1893.739,100.56897 1890.1626,88.977473 z M 1896.7777,90.987973 C 1898.6345,88.042373 1898.6993,81.191473 1896.9333,74.510573 1895.247,68.130773 1891.9123,62.151073 1890.2508,62.527673 1889.1655,62.773773 1889.5735,74.436473 1890.8396,79.353773 1892.609,86.226673 1894.4535,91.864873 1895.071,92.288773 1895.4114,92.522373 1896.1794,91.936973 1896.7777,90.987973 z M 1925.6471,88.292973 C 1928.3681,84.042173 1930.8179,64.027073 1928.775,62.739273 1927.2117,61.753773 1922.7453,72.657773 1921.9231,79.467473 1920.5717,90.658273 1921.9867,94.011573 1925.6471,88.292973 z M 1910.9936,38.476573 C 1914.1227,36.697673 1916.704,30.997873 1915.0697,29.475673 1912.499,27.081373 1908.9962,26.666273 1906.0358,28.405073 1901.6205,30.998373 1901.3267,32.907673 1904.8705,35.976573 1906.5487,37.429873 1908.1598,38.844473 1908.4508,39.120173 1908.7418,39.395873 1909.886,39.106173 1910.9936,38.476573 z"/>
</svg>
