<?xml version="1.0" encoding="UTF-8"?>
<svg xmlns="http://www.w3.org/2000/svg" viewBox="1765.24 64.23 36.98 40.14">
  <path d="M 1787.2457,74.694173 C 1787.6791,74.045673 1788.6562,73.074873 1789.4171,72.537073 1791.6625,70.949773 1787.0466,68.536073 1784.0174,69.713473 1781.6829,70.620973 1781.563,70.828773 1782.5504,72.256873 1784.3551,74.866773 1786.4157,75.936473 1787.2457,74.694173 z M 1795.2175,95.162473 C 1796.0819,93.868973 1796.7996,90.187173 1796.8126,86.980873 1796.8348,81.458273 1796.7382,81.240273 1794.9796,82.843873 1792.3769,85.216973 1790.576,90.859873 1791.4397,93.935373 1792.4612,97.572373 1793.4029,97.878273 1795.2175,95.162473 z M 1775.7855,93.823473 C 1776.7764,90.000773 1775.8765,83.235473 1774.2308,82.135773 1772.8292,81.199273 1772.1632,82.249273 1771.2724,86.800973 1769.6053,95.318273 1773.7331,101.74127 1775.7855,93.823473 z M 1768.964,96.350373 C 1767.2371,90.398873 1768.7243,84.195973 1773.7118,76.546073 1778.4118,69.337173 1781.0828,67.167373 1785.7897,66.734173 1791.3046,66.226673 1797.79,73.538473 1799.0349,81.667273 1800.2221,89.418373 1796.8591,99.470673 1792.8093,100.27617 1790.4708,100.74137 1788.2284,95.565873 1788.872,91.188673 1789.155,89.264273 1790.7775,85.608073 1792.4775,83.063773 1794.965,79.341073 1795.3669,78.059773 1794.5354,76.502373 1792.6868,73.039273 1791.3192,72.943673 1788.0735,76.050973 1785.8422,78.187073 1784.6292,78.725973 1783.8966,77.906473 1780.5049,74.112173 1779.3754,73.357373 1778.0008,73.966573 1775.2631,75.180073 1775.1199,76.565873 1777.1943,81.773073 1778.3248,84.610773 1779.1809,88.591473 1779.0967,90.618873 1778.849,96.585473 1773.8898,102.36897 1770.8061,100.28727 1770.3274,99.964173 1769.4985,98.192573 1768.964,96.350373 z"/>
</svg>
