<?xml version="1.0" encoding="UTF-8"?>
<svg xmlns="http://www.w3.org/2000/svg" viewBox="2047.81 26.75 47.2 65.47">
  <path d="M 2055.5003,82.444673 C 2049.9567,68.757773 2052.3657,52.628073 2061.9655,39.157373 2066.8146,32.352873 2070.8803,29.727773 2074.4155,31.118873 2081.0188,33.717173 2091.3503,50.416673 2091.8614,59.317773 2092.8697,76.874873 2090.3797,86.867273 2084.6059,88.434973 L 2081.6335,89.241973 2080.7171,82.439773 C 2079.2654,71.664373 2079.7683,67.523273 2083.4592,59.859973 2085.3158,56.004973 2086.786,52.646073 2086.7261,52.395773 2086.4931,51.420973 2081.1209,42.773873 2080.4505,42.294573 2080.06,42.015273 2078.4012,43.659673 2076.7644,45.948673 L 2073.7883,50.110573 2068.9059,45.763473 2064.0235,41.416373 2062.199,43.967973 C 2061.1954,45.371273 2059.6408,48.387873 2058.7443,50.671573 2057.2795,54.402573 2057.3848,55.187673 2059.7824,58.412473 2063.901,63.952073 2066.4487,76.874573 2064.6,82.848673 2063.4011,86.723273 2062.7004,87.846873 2061.2449,88.229873 2058.6506,88.912473 2057.7546,88.010073 2055.5003,82.444673 z M 2061.5657,81.960473 C 2062.9053,78.743773 2060.1664,63.441373 2057.9698,61.870573 2055.1773,59.873673 2054.8989,62.410873 2056.7545,72.946073 2058.7104,84.051373 2059.825,86.139773 2061.5657,81.960473 z M 2088.0934,78.070173 C 2089.1457,73.763273 2089.2333,59.639373 2088.2124,58.909373 2087.2768,58.240273 2083.1683,65.798373 2082.7083,69.035073 2082.5392,70.224573 2082.7958,74.215273 2083.2784,77.903373 2084.0722,83.969473 2084.3052,84.454573 2085.7214,82.990473 2086.5824,82.100373 2087.6498,79.886273 2088.0934,78.070173 z M 2073.3931,43.465573 C 2074.124,43.941273 2075.0455,43.231373 2076.1305,41.356773 2077.5211,38.953973 2077.4379,38.234773 2075.5751,36.553473 2073.2235,34.431173 2068.6948,34.996373 2066.7398,37.656173 2065.9265,38.762673 2066.3655,39.387373 2069.0114,40.888173 2070.8153,41.911373 2072.7871,43.071173 2073.3931,43.465573 z"/>
</svg>
