<?xml version="1.0" encoding="UTF-8"?>
<svg xmlns="http://www.w3.org/2000/svg" viewBox="2353.34 36.08 32.87 47.56">
  <path d="M 2358.6593,76.353773 C 2355.3447,66.933873 2358.3087,49.603273 2364.4295,42.614973 2368.2599,38.241573 2370.0104,38.413773 2375.4368,43.697273 2380.9299,49.045873 2383.2104,54.584973 2383.7459,63.879973 2384.2132,71.991473 2382.3782,77.768073 2379.3072,77.852173 2377.5197,77.901173 2377.1152,77.493673 2376.1207,74.642073 2374.5372,70.101373 2374.7424,63.779773 2376.6728,57.641273 2377.7237,54.299373 2377.8601,51.715773 2377.0542,50.421973 2375.3237,47.643873 2374.3081,47.921473 2372.4439,51.682273 2371.564,53.457173 2370.4905,54.918973 2370.0583,54.930873 2369.6261,54.942673 2368.0197,53.766573 2366.4886,52.317073 2363.3688,49.363773 2363.4193,49.356473 2362.1913,52.936173 2361.6295,54.573673 2361.9684,56.498973 2363.1088,58.149073 2367.2667,64.165273 2367.4677,74.799073 2363.5028,78.987473 2361.1452,81.478073 2360.3007,81.018873 2358.6593,76.353773 z M 2363.6415,73.011573 C 2364.3036,70.587373 2362.5088,61.504173 2361.3739,61.535273 2359.8556,61.576873 2359.3201,65.095673 2360.2128,69.164973 2361.3915,74.537973 2362.7948,76.112173 2363.6415,73.011573 z M 2380.7253,72.431173 C 2381.6382,71.466873 2381.0927,59.256973 2380.0945,58.312073 2379.1252,57.394473 2377.7076,63.174573 2377.8277,67.555073 2377.9378,71.570973 2379.3268,73.908473 2380.7253,72.431173 z M 2370.5902,49.659173 C 2372.5654,47.535673 2372.5027,45.349673 2370.4244,43.873673 2368.9788,42.847073 2367.898,42.948573 2366.3386,44.257373 2364.3763,45.904273 2364.4113,46.219573 2366.8083,48.488773 2368.795,50.369473 2369.6759,50.642073 2370.5902,49.659173 z"/>
</svg>
