<?xml version="1.0" encoding="UTF-8"?>
<svg xmlns="http://www.w3.org/2000/svg" viewBox="1410.23 13.76 74.28 92.63">
  <path d="M 1433.2023,99.265173 C 1433.1227,98.506573 1433.0279,96.732373 1432.9917,95.322673 1432.9504,93.719573 1431.3248,91.193373 1428.6513,88.578173 1424.1678,84.192573 1423.9035,83.005473 1426.5852,79.294373 1428.6681,76.411973 1430.498,76.777173 1431.9377,80.362773 1433.986,85.463773 1435.9176,86.203473 1440.035,83.463373 L 1443.7007,81.023973 1440.7073,76.407873 C 1438.6088,73.171573 1436.8798,71.624273 1434.9231,71.231273 1433.3881,70.922973 1431.0063,69.768773 1429.6303,68.666373 1427.261,66.768073 1426.9047,66.776673 1422.8971,68.829073 1416.8056,71.948573 1415.888,69.916573 1421.7974,66.394473 1424.5027,64.782173 1426.8433,63.488673 1426.9989,63.519973 1427.1546,63.551173 1429.0247,64.615273 1431.1548,65.884573 1433.2848,67.153873 1435.178,68.222573 1435.3618,68.259473 1435.5456,68.296373 1438.38,66.761173 1441.6604,64.847873 1447.3778,61.513173 1447.829,61.428273 1452.561,62.797273 1455.2759,63.582773 1458.7883,65.107473 1460.3662,66.185573 1463.0847,68.042873 1463.3724,68.028873 1465.8491,65.916873 1468.6748,63.507273 1471.5191,63.502973 1472.815,65.906273 1473.262,66.735173 1473.5354,71.494673 1473.4226,76.482973 1473.1096,90.326473 1473.1558,91.170573 1474.2074,90.780373 1475.5338,90.288173 1477.6056,79.350173 1477.4516,73.653073 1477.3178,68.705473 1474.8698,58.169773 1473.5721,56.956473 1473.1387,56.551273 1470.4662,57.629873 1467.633,59.353373 1464.7999,61.076673 1461.785,62.346773 1460.9333,62.175773 1458.0728,61.601173 1450.6367,57.811873 1449.7639,56.483873 1448.527,54.601973 1447.8569,42.336773 1448.9011,40.688373 1449.8558,39.180973 1451.5129,39.713573 1457.5842,43.478973 1461.0228,45.611573 1463.7852,45.614073 1464.2128,43.484973 1464.3599,42.752173 1459.2353,38.985173 1455.5474,37.115073 1452.6947,35.668573 1453.0959,34.817873 1458.3812,31.106973 1463.1302,27.772573 1467.7058,27.509473 1469.6681,30.457973 1471.281,32.881673 1472.0876,31.021973 1470.9007,27.616173 1470.2733,25.816273 1468.8411,23.679473 1467.7178,22.867773 1465.9517,21.591673 1464.8585,21.826773 1459.6323,24.607073 1456.3085,26.375373 1451.8722,29.137673 1449.7739,30.745573 1445.262,34.202973 1442.7432,33.963973 1439.0179,29.724973 1437.5213,28.021873 1435.3657,26.441473 1434.2279,26.212973 1431.0167,25.568073 1426.2719,29.255473 1425.5244,32.977073 1424.3662,38.743973 1427.705,40.746873 1434.8651,38.580573 1439.9035,37.056173 1440.6555,37.202773 1441.4596,39.866573 1442.4884,43.274673 1442.046,56.705773 1440.8576,58.143673 1440.2611,58.865273 1438.3969,60.306873 1436.7148,61.346973 1433.5384,63.311273 1433.6458,63.336673 1427.4102,59.136473 1426.5769,58.575273 1424.3753,59.253073 1421.6419,60.912373 1419.2105,62.388473 1416.5472,63.460673 1415.7235,63.295273 1413.604,62.869573 1414.4322,62.036573 1420.7678,58.220873 1426.1081,55.004573 1426.4723,54.938173 1429.3132,56.661173 1433.3642,59.118173 1434.9358,59.307773 1437.223,57.615273 1438.9226,56.357773 1439.1968,55.317173 1439.3289,49.623473 1439.4124,46.023273 1439.226,42.629273 1438.9147,42.081473 1438.6034,41.533673 1436.1913,41.448073 1433.5545,41.891573 1425.2777,43.283373 1421.1109,39.716673 1422.5637,32.483173 1423.7806,26.424273 1428.3923,22.995373 1434.5928,23.539173 1438.4663,23.878873 1439.3227,24.339873 1440.9366,26.953473 1441.9629,28.615373 1443.3629,30.087673 1444.0478,30.225173 1444.7326,30.362773 1448.677,28.223273 1452.813,25.470773 1461.1622,19.914473 1466.4013,17.973673 1469.0673,19.449373 1471.7976,20.960573 1475.3855,28.483673 1474.7899,31.448773 1473.5839,37.453473 1471.4492,38.176473 1467.7464,33.834173 1465.891,31.658373 1465.0726,31.317573 1462.9132,31.821573 1461.4834,32.155373 1460.1838,33.074673 1460.0252,33.864473 1459.646,35.752173 1462.9091,39.113273 1465.6567,39.665073 1468.7915,40.294673 1468.9189,41.720773 1466.1683,45.390673 1463.8276,48.513673 1463.5911,48.581673 1459.3853,47.339273 1456.9885,46.631173 1454.2673,45.514173 1453.3381,44.857173 1451.7911,43.763073 1451.6412,43.997073 1451.5598,47.633973 1451.4067,54.471573 1451.6239,54.941773 1455.8699,56.966073 1462.0487,59.911873 1462.9479,59.867673 1467.9257,56.372473 1472.6822,53.032973 1476.0994,52.978273 1477.0207,56.227073 1480.7635,69.427673 1481.1327,77.124873 1478.488,86.813973 1477.5881,90.110873 1475.8854,94.014473 1474.7043,95.488773 1471.0602,100.03727 1469.5145,98.215373 1470.0638,90.018773 1470.3746,85.382273 1470.5724,76.013573 1470.4766,70.467273 1470.4235,67.392773 1468.2492,67.120273 1465.1123,69.795173 L 1462.5492,71.980673 1458.962,69.409773 C 1456.8082,67.866173 1454.9617,67.129573 1454.3412,67.566373 1452.7862,68.661173 1447.5953,79.972373 1447.7751,81.873973 1447.8836,83.021373 1446.6573,83.838473 1443.8035,84.520573 1439.7983,85.477873 1438.114,87.288273 1437.2317,91.584373 1436.8712,93.339673 1437.1137,93.314573 1439.561,91.344173 1443.9278,87.828173 1446.606,88.549273 1450.41,94.265173 1452.6922,97.694473 1453.2444,98.095973 1453.5546,96.551273 1454.0616,94.027373 1452.6045,87.022173 1451.5276,86.805873 1451.0532,86.710573 1450.5476,85.940473 1450.404,85.094373 1450.1862,83.811973 1450.5158,83.825673 1452.3858,85.176973 1456.4707,88.128873 1456.9654,98.436073 1453.1215,100.50857 1451.5,101.38297 1451.1421,101.23157 1450.5362,99.415073 1449.2461,95.547073 1445.9939,91.720773 1443.8963,91.602873 1442.4021,91.518973 1441.0935,92.765873 1439.2156,96.062673 1436.7,100.47897 1433.5079,102.17907 1433.2023,99.265173 z M 1436.2505,94.765973 C 1436.0946,93.920973 1435.8156,94.106573 1435.5392,95.239373 1435.289,96.264273 1435.4045,96.889973 1435.7957,96.629573 1436.187,96.369273 1436.3916,95.530573 1436.2505,94.765973 z M 1432.1017,85.980473 C 1429.2251,82.197573 1427.637,81.181373 1427.899,83.291073 1428.0571,84.563873 1432.3956,88.870273 1433.9795,89.326673 1434.4491,89.461973 1433.604,87.956173 1432.1017,85.980473 z M 1447.8154,74.075673 C 1448.7831,72.166273 1449.7715,69.638073 1450.0118,68.457173 1450.9205,63.991673 1446.6248,63.577573 1442.0811,67.692673 L 1439.2227,70.281573 1441.4811,73.571673 C 1444.554,78.048373 1445.7536,78.143773 1447.8154,74.075673 z"/>
</svg>
