<?xml version="1.0" encoding="UTF-8"?>
<svg xmlns="http://www.w3.org/2000/svg" viewBox="2223.59 30.84 36.8 59.55">
  <path d="M 2227.6842,78.457073 C 2225.7667,70.692873 2225.5936,68.611873 2226.156,60.092673 2226.8148,50.115373 2229.116,42.665273 2232.8731,38.346973 2236.6734,33.978973 2239.2441,33.547273 2243.7504,36.520273 2252.3278,42.179073 2258.3958,60.043673 2256.2715,73.383673 2255.0046,81.339673 2253.2573,83.058373 2249.8866,79.664073 2246.4507,76.204273 2245.6359,66.882873 2247.9426,57.424673 2249.6529,50.411273 2249.6231,49.128773 2247.6689,45.691673 2245.4839,41.848273 2241.6423,38.524073 2238.5099,37.766273 2236.5404,37.289773 2233.1067,41.875473 2230.8918,47.939973 2229.6,51.476873 2229.7618,52.644873 2232.1298,56.879073 2235.7242,63.306273 2237.2156,74.413673 2235.2519,80.131973 2232.6573,87.687973 2229.8081,87.057373 2227.6842,78.457073 z M 2233.3555,78.116773 C 2233.8022,76.921673 2234.0289,74.364973 2233.8594,72.435373 2233.6898,70.505773 2233.6351,68.531473 2233.7375,68.047873 2234.0386,66.628773 2230.3772,59.014573 2229.4736,59.180573 2228.4217,59.373673 2228.3264,66.919173 2229.2928,73.492673 2230.1474,79.304973 2232.0864,81.511973 2233.3555,78.116773 z M 2253.4043,75.544773 C 2254.7749,70.185273 2253.5835,54.752773 2251.824,55.075773 2250.5209,55.315173 2248.8165,65.466773 2249.2996,70.111473 2249.8502,75.405273 2252.5321,78.955373 2253.4043,75.544773 z"/>
</svg>
