<?xml version="1.0" encoding="UTF-8"?>
<svg xmlns="http://www.w3.org/2000/svg" viewBox="358.14 28.92 62.9 54.29">
  <path d="M 377,74.178139 C 377,73.176115 377.72005,70.243049 378.60011,67.660213 379.48017,65.077378 379.94975,62.311435 379.64362,61.513674 379.20453,60.369412 373.05144,57 371.40093,57 370.35947,57 367.57801,62.659241 367.06338,65.825312 365.8695,73.170216 361,69.400284 361,61.131086 361,55.68326 363.84303,48.148957 366.57395,46.359592 368.52118,45.083715 369.80161,45.006186 374.01226,45.909209 381.77438,47.573886 381.77081,47.575494 381.03393,42.75 380.67698,40.4125 379.56236,37.248456 378.55701,35.718792 376.58591,32.719736 376.96105,31.387341 379.50202,32.362403 382.60467,33.553 384.21138,39.90289 384.21048,50.970777 384.20976,59.985221 383.81823,62.543016 381.48896,68.75 378.8693,75.730806 377,77.991199 377,74.178139 z M 372.49653,54 C 373.1891,54 375.37125,54.675 377.34576,55.5 381.97336,57.433536 382.2005,57.403162 381.81955,54.90177 381.5898,53.3932 379.83635,52.128577 375.58013,50.40177 372.3242,49.080796 369.29825,48 368.85581,48 367.4419,48 365,53.788513 365,57.140178 L 365,60.379676 368.11866,57.189838 C 369.83392,55.435427 371.80396,54 372.49653,54 z M 397.79251,72.976668 C 397.54208,68.650664 396.8717,64.523685 396.30279,63.805603 395.73387,63.087522 395.0286,61.375 394.73553,60 394.44245,58.625 393.62692,56.086549 392.92324,54.358997 391.22319,50.185382 393.48488,34 395.76813,34 396.56749,34 396.9835,34.600607 396.69853,35.343229 396.41504,36.082004 395.86504,39.232004 395.47632,42.343229 394.80917,47.682944 394.88997,48 396.91802,48 398.09968,48 401.25876,46.889093 403.9382,45.531317 L 408.80991,43.062634 411.52613,45.199217 C 413.02006,46.374338 414.86283,48.820792 415.62118,50.635782 418.1833,56.767788 416.9676,69.783655 413.61104,72.15748 411.91315,73.358257 410.13096,71.872744 409.42762,68.670468 408.26157,63.361461 405.72985,58.889689 404.21852,59.46964 403.45837,59.761338 402.21705,60 401.46005,60 400.34419,60 400.19712,61.862289 400.68308,69.838812 401.1857,78.089032 401.03749,79.771636 399.76516,80.259876 398.50952,80.741708 398.1693,79.48558 397.79251,72.976668 z M 414.27793,61.964535 C 415.17443,55.280655 411.9583,47 408.46586,47 406.14072,47 396.00005,52.150186 396.01531,53.323307 396.05275,56.199936 397.78808,57.125996 402.56002,56.815878 L 407.42057,56.5 409.70057,61.25 C 410.95457,63.8625 412.37569,66 412.85862,66 413.34154,66 413.98023,64.184041 414.27793,61.964535 z"/>
</svg>
