<?xml version="1.0" encoding="UTF-8"?>
<svg xmlns="http://www.w3.org/2000/svg" viewBox="1.9 11.55 90.13 91.41">
  <path d="M 87.9375 24.5 C 86.791248 25.20932 85.502896 26.137752 84.21875 27.21875 C 79.994693 30.774574 78.734159 32.616906 76.9375 38 C 73.985268 46.845389 66.192379 61.839001 63.90625 63.0625 C 61.244895 64.486814 57.917415 63.352731 54.0625 59.75 L 50.71875 56.625 L 47.84375 59.84375 C 44.371719 63.729627 44.328143 65.32544 47.375 71.34375 C 51.913293 80.308026 53.22611 84.704883 52.03125 86.9375 C 50.458649 89.875931 49 89.473199 49 86.09375 C 49 84.201211 47.397321 81.072753 44.40625 77.09375 C 41.88463 73.739254 39.52213 70.991523 39.15625 71 C 38.79037 71.008478 36.475 73.989212 34 77.59375 C 27.070931 87.685098 25.897832 89.050332 24.90625 88.4375 C 22.962177 87.235997 24.176363 83.237889 28.5 76.53125 C 30.971294 72.697886 33 68.623887 33 67.46875 C 33 66.313613 31.405358 63.486499 29.4375 61.1875 C 24.360787 55.256503 20.804898 55.356108 14.59375 61.65625 C 10.586187 65.721233 10 66.053284 10 64.125 C 10 62.907962 11.559873 59.452805 13.46875 56.46875 C 18.002707 49.381035 20.436446 48.744061 26.40625 53.03125 C 32.798843 57.622062 34 56.778053 34 47.75 C 34 39.506082 32.34725 36 28.5 36 C 26.439546 36 23 33.752635 23 32.40625 C 23 28.977873 30.27567 20 33.0625 20 C 33.570301 20 34 21.478628 34 23.28125 C 34 25.083871 34.689151 27.547735 35.53125 28.75 C 36.794713 30.553846 37.503885 30.751434 39.5625 29.96875 C 40.934569 29.44709 43.029208 28.108226 44.21875 27 C 45.408292 25.891773 47.031585 25 47.8125 25 C 50.28158 25 48.240935 30.220069 44.46875 33.59375 L 41 36.71875 L 41 45.71875 C 41 56.603432 41.958972 58.068482 47.4375 55.46875 L 51 53.78125 L 54.5625 56.9375 C 57.207483 59.259825 58.746208 59.895351 60.34375 59.40625 C 63.762984 58.359423 64.627551 57.309582 68.0625 50.1875 C 71.995719 42.032296 72.807629 36.2535 70.71875 31.21875 C 69.871869 29.177543 68.637525 26.0375 67.96875 24.25 C 67.299976 22.4625 66.344285 21 65.84375 21 C 63.740134 21 63.976447 24.262954 66.46875 29.53125 C 67.932236 32.624805 69.161422 36.377744 69.1875 37.84375 C 69.239169 40.748399 65.953523 49.595927 63.375 53.53125 C 61.258626 56.761245 59.494591 56.644486 55.34375 53 C 52.054934 50.112382 51.819739 50.063482 48.53125 51.4375 L 45.09375 52.84375 L 44.3125 48.1875 C 43.245448 41.841256 43.549617 40.345847 46.84375 36.125 C 50.169631 31.863473 51.695883 27.586085 51.21875 23.75 C 50.771976 20.157991 48.88066 20.260902 43.5 24.125 C 41.118073 25.835571 38.649396 26.913285 38.03125 26.53125 C 37.384754 26.131694 37.051244 23.839971 37.21875 21.15625 C 37.469678 17.135966 37.223403 16.465006 35.5 16.21875 C 31.912404 15.706121 24.529839 21.294155 22.15625 26.34375 C 20.961843 28.88474 20 31.675256 20 32.53125 C 20 34.92918 24.618658 39 27.34375 39 C 30.2233 39 31 40.616345 31 46.59375 C 31 51.683367 30.149309 51.974694 25.59375 48.5 C 21.268174 45.200722 19.729208 45.33434 15.1875 49.4375 C 10.182283 53.959413 6 62.299109 6 67.75 C 6 71.55673 6.2448089 72 8.40625 72 C 10.187638 72 11.483203 70.884358 13.375 67.65625 C 15.962595 63.240855 19.76408 60 22.375 60 C 23.782374 60 30.007038 66.382408 29.96875 67.78125 C 29.957984 68.174612 28.177096 71.425 26 75 C 19.322538 85.965033 19.440756 85.600564 21.40625 89.78125 C 22.369059 91.829183 23.798959 94.5125 24.59375 95.75 C 26.199792 98.250628 30.47488 98.807803 31.3125 96.625 C 31.603092 95.867729 31.635325 93.505229 31.375 91.375 C 30.992677 88.246468 31.5189 86.45483 34.1875 82.09375 C 36.004559 79.124273 37.950983 76.703368 38.5 76.6875 C 39.049018 76.671631 40.820962 78.514889 42.4375 80.8125 C 45.301316 84.882889 45.349373 85.132065 44.09375 90.03125 C 43.147992 93.721402 43.094657 95.397091 43.90625 96.375 C 45.700448 98.536876 49.709769 97.112442 51.5 93.65625 C 52.396186 91.926089 53.85956 89.31768 54.75 87.875 C 56.293652 85.37399 56.206492 84.885445 53.09375 77.375 C 51.298198 73.04268 49.342045 68.254819 48.71875 66.75 C 47.857505 64.670703 47.863893 63.729857 48.78125 62.8125 C 49.724051 61.869699 50.669425 62.105723 53.0625 63.875 C 57.601261 67.230651 62.220017 67.683073 65.8125 65.125 C 68.923157 62.910016 78.191332 45.345581 79.46875 39.25 C 80.078303 36.341334 84.482266 30.748087 87.4375 28.40625 L 87.6875 27.59375 L 87.9375 24.5 z M 69.90625 19.15625 C 69.27748 18.904614 69 19.379894 69 20.53125 C 69 22.177984 71.83191 27.061496 73.4375 28.1875 C 73.973944 28.563709 74.86124 28.591151 75.4375 28.25 C 78.136031 26.652448 84 21.58716 84 20.84375 C 84 19.271038 81.796517 20.008935 78.6875 22.625 L 75.5625 25.25 L 72.96875 22.125 C 71.525287 20.395964 70.53502 19.407886 69.90625 19.15625 z "/>
</svg>
