<?xml version="1.0" encoding="UTF-8"?>
<svg xmlns="http://www.w3.org/2000/svg" viewBox="1173.8 15.93 73 94.52">
  <path d="M 1196.6011,101.00322 C 1195.6288,99.580377 1193.3708,96.828555 1191.5833,94.888052 1189.7958,92.947549 1188.3333,90.353873 1188.3333,89.124326 1188.3333,87.89478 1190.8083,83.148474 1193.8333,78.57698 1196.8583,74.005486 1199.3333,69.771835 1199.3333,69.168867 1199.3333,67.276867 1191.557,60.366835 1190.07,60.937459 1189.2976,61.233861 1186.9769,64.894188 1184.9128,69.071519 1182.8487,73.24885 1180.8041,76.666667 1180.3691,76.666667 1178.1688,76.666667 1177.1168,73.336839 1177.5267,67.670326 1177.8852,62.713265 1178.6457,60.674195 1181.897,55.952022 1184.062,52.807691 1187.0123,49.575189 1188.4532,48.768686 1190.9159,47.390321 1191.3328,47.493296 1195.4002,50.484491 1201.4916,54.964167 1202.5566,54.720491 1201.8839,49.000955 1201.2323,43.460404 1201.0589,43.238948 1197.22,43.04588 1193.5365,42.860628 1190.3333,40.095715 1190.3333,37.101477 1190.3333,32.227483 1201.3269,21.666667 1206.4006,21.666667 1206.8533,21.666667 1207.3609,23.768991 1207.5285,26.338498 1207.6961,28.908005 1208.319,31.169893 1208.9126,31.364915 1209.5061,31.559938 1211.7055,30.357614 1213.8001,28.693085 1218.4595,24.990228 1220.3333,24.842372 1220.3333,28.177565 1220.3333,31.348956 1216.8129,38.922662 1214.2684,41.225373 1212.8322,42.525178 1212.3372,44.290098 1212.3486,48.071655 1212.3688,54.787649 1213.5164,56.715954 1216.101,54.376904 1218.5224,52.185582 1219.5613,52.225424 1223.5591,54.662929 1225.3599,55.760873 1227.4069,56.660873 1228.1081,56.662929 1230.1893,56.669032 1231.2805,52.209197 1231.8479,41.378326 1232.6925,25.25377 1235.4939,20.230669 1239.0766,28.416667 1243.4846,38.488419 1238.9467,64.444022 1231.6456,70.91966 1229.7415,72.60849 1229.4992,72.540196 1225.0243,69.053832 1220.3579,65.418313 1217.856,65.140873 1216.7084,68.131666 1216.3852,68.973774 1218.165,73.115325 1220.731,77.492237 1223.2623,81.809852 1225.3333,86.152123 1225.3333,87.141728 1225.3333,89.080686 1216.7677,102.67669 1215.562,102.65136 1212.0304,102.57715 1211.6184,98.780947 1214.4061,92.001675 1215.5854,89.133967 1215.485,88.511826 1213.3378,85.378132 1212.0344,83.475929 1210.0638,81.354948 1208.9588,80.664841 1207.1981,79.565315 1206.656,79.76615 1204.5764,82.288384 1201.0054,86.619286 1200.3959,88.86013 1201.5811,93.300642 1203.5839,100.80411 1200.1231,106.15703 1196.6011,101.00322 z M 1220.2502,92.465047 C 1223.776,87.670713 1223.6558,86.541087 1218.8821,79.601284 1213.7417,72.128526 1212.6997,68.888692 1214.4363,65.779435 1216.4807,62.119281 1220.9473,61.841869 1224.7388,65.139566 1228.9977,68.843685 1231.0831,68.419898 1233.2172,63.416667 1236.0944,56.671017 1237.4691,49.533032 1237.658,40.358127 1237.8295,32.026605 1237.037,28.910066 1235.4144,31.535364 1234.9689,32.256291 1234.3783,37.968254 1234.102,44.228616 1233.3889,60.389077 1231.1568,63.336896 1223.5481,58.166667 1219.0765,55.128146 1218.9853,55.124757 1215.2859,57.859801 1213.449,59.217906 1211.9753,59.69384 1211.4155,59.109801 1210.9182,58.591077 1210.2048,54.791667 1209.8301,50.666667 1209.1657,43.353647 1209.2248,43.070989 1212.2015,39.328911 1215.1936,35.56738 1216.9224,31.922423 1216.103,31.10303 1215.8759,30.875926 1214.1724,31.809838 1212.3174,33.17839 1210.4624,34.546942 1208.373,35.666667 1207.6742,35.666667 1205.8304,35.666667 1204.3333,32.335289 1204.3333,28.232408 1204.3333,26.271251 1203.977,24.666667 1203.5415,24.666667 1203.106,24.666667 1200.8204,26.632476 1198.4624,29.035131 1195.0688,32.492998 1194.2437,34.004245 1194.5042,36.285131 1194.8017,38.889981 1195.2349,39.195876 1199.0157,39.470864 1202.8133,39.747065 1203.2634,40.069182 1203.9066,42.970864 1204.7812,46.916537 1204.8538,59.47954 1204.0068,60.326513 1203.6654,60.66786 1201.5501,59.288382 1199.306,57.261005 1197.062,55.233629 1194.063,53.045005 1192.6417,52.397395 1190.2415,51.3038 1189.7741,51.538581 1186.0803,55.693295 1181.9442,60.345398 1180.3333,63.439577 1180.3333,66.731767 1180.3333,69.649894 1181.6641,69.064844 1183.7231,65.241504 1184.7376,63.357664 1186.8328,60.604191 1188.3792,59.122675 L 1191.1908,56.429009 1194.1832,58.559804 C 1198.6733,61.757049 1202.3333,66.525993 1202.3333,69.179392 1202.3333,70.476994 1199.8583,75.23635 1196.8333,79.755739 1193.8083,84.275128 1191.3333,88.265653 1191.3333,88.623572 1191.3333,89.656222 1198.2505,96.082773 1198.7858,95.547461 1199.0512,95.282086 1198.7624,93.416609 1198.1441,91.401955 1197.0587,87.865438 1197.1894,87.514108 1201.9266,81.227713 1204.6253,77.646533 1207.1362,74.70527 1207.5064,74.691572 1208.4824,74.655458 1213.6584,79.987753 1215.7584,83.192724 1217.1139,85.261474 1217.4485,87.263984 1217.1135,91.303193 1216.8689,94.253104 1216.7793,96.666667 1216.9145,96.666667 1217.0497,96.666667 1218.5507,94.775938 1220.2502,92.465047 z"/>
</svg>
