<?xml version="1.0" encoding="UTF-8"?>
<svg xmlns="http://www.w3.org/2000/svg" viewBox="1106.91 19.24 32.53 83.42">
  <path d="M 1118.6771,56.291667 1120.8021,57.385417 1120.8958,59.166667 C 1121.5213,59.017479 1122.0375,58.964556 1122.3645,59.166667 1124.0573,60.2129 1123.3829,61.906446 1121.1145,63.166667 L 1121.2708,66.354167 1120.9895,66.791667 C 1121.7314,66.528294 1122.3333,66.339138 1122.3333,66.510417 1122.3333,66.989795 1120.5411,70.644672 1118.3645,74.604167 1112.7025,84.904714 1111.9622,87.41555 1112.9895,92.604167 1113.4711,95.036307 1114.487,97.228322 1115.2395,97.479167 1116.3298,97.842591 1116.5149,96.725632 1116.1145,92.041667 1115.5885,85.888599 1115.975,84.818549 1125.0521,68.229167 1128.6579,61.639179 1128.1518,59.744002 1120.3333,50.666667 1116.4833,46.196815 1113.3333,42.109902 1113.3333,41.572917 1113.3333,40.098531 1116.8649,33.612189 1119.7708,29.729167 1121.1884,27.834814 1122.3333,25.864657 1122.3333,25.354167 1122.3333,23.813159 1119.5342,26.621477 1114.8021,32.916667 1108.9148,40.748486 1108.9296,43.261368 1114.8333,49.572917 1117.3083,52.218892 1119.3333,54.880965 1119.3333,55.510417 1119.3333,55.676172 1118.8816,56.034317 1118.6771,56.291667 z M 1130.3333,23.447917 C 1129.9973,23.585842 1129.4468,24.140591 1128.6771,25.166667 1126.1708,28.507677 1121.3333,38.512724 1121.3333,40.354167 1121.3333,41.306167 1122.6015,43.427983 1124.1458,45.104167 1125.69,46.780351 1128.6567,51.011808 1130.7395,54.479167 1134.8229,61.27659 1134.9308,63.596898 1131.3958,68.604167 1125.7928,76.540668 1119.2288,94.051369 1120.8645,96.697917 1122.2079,98.871607 1123.9896,96.073928 1125.1458,89.979167 1126.0242,85.348898 1128.1022,80.311447 1131.9895,73.385417 1136.5164,65.319966 1137.4474,62.858055 1137.0208,60.229167 1136.4199,56.526449 1130.8252,47.321088 1126.9583,43.729167 1125.5229,42.395794 1124.3306,40.595794 1124.3333,39.729167 1124.336,38.86254 1125.9225,35.076091 1127.8645,31.291667 1130.4217,26.308636 1131.3413,23.034143 1130.3333,23.447917 z"/>
</svg>
