<?xml version="1.0" encoding="UTF-8"?>
<svg xmlns="http://www.w3.org/2000/svg" viewBox="1808.2 17.33 37.86 85.07">
  <path d="M 1810.2605,30.739583 1810.1979,30.927083 1810.1979,32.927083 C 1810.386,32.652081 1810.6116,32.504851 1810.9167,32.614583 1811.6042,32.861819 1814.1141,31.488525 1816.5105,29.552083 1821.7562,25.313052 1827.6002,23.051475 1829.4167,24.552083 1830.9404,25.810828 1831.0438,28.795474 1829.6355,31.427083 1828.3245,33.876537 1829.5153,36.319725 1830.8542,33.927083 1831.3619,33.019886 1832.213,32.545555 1832.7292,32.864583 1834.2548,33.807464 1833.7894,41.197274 1832.0417,43.864583 1830.5109,46.20084 1830.5538,46.333333 1832.4479,46.333333 1835.6036,46.333333 1835.985,50.132209 1833.1042,52.802083 1829.9923,55.6861 1830.011,56.719124 1833.1667,55.927083 1835.5557,55.327481 1835.6667,55.505695 1835.6667,59.802083 1835.6667,63.494332 1835.2198,64.581857 1833.1667,65.927083 1829.8945,68.071122 1829.9824,69.546752 1833.3229,68.708333 L 1835.9479,68.052083 1835.2605,74.427083 C 1834.7551,79.114864 1834.0694,81.202616 1832.6355,82.208333 1830.1184,83.973715 1830.1249,85.333333 1832.6667,85.333333 1835.8097,85.333333 1835.1119,88.867473 1831.1355,93.083333 1827.4828,96.95585 1828.0614,98.534832 1832.2917,96.270833 1834.1521,95.275166 1834.979,95.239442 1835.8855,96.145833 1837.389,97.649423 1839.6667,97.695996 1839.6667,96.208333 1839.6667,95.581466 1838.9688,94.528027 1838.1042,93.895833 1835.9207,92.299183 1837.1686,87.333333 1839.7605,87.333333 1842.1945,87.333333 1842.1739,85.801919 1839.6667,82.614583 1836.4925,78.579244 1837.2179,69.15839 1840.6355,70.052083 1843.9634,70.922365 1844.0584,68.202338 1840.7917,65.645833 1838.1217,63.556172 1837.6667,62.543762 1837.6667,58.770833 1837.6667,54.607255 1838.7738,53.079497 1840.1667,55.333333 1841.0829,56.815732 1842.6667,56.534868 1842.6667,54.895833 1842.6667,54.110752 1841.5417,52.602408 1840.1667,51.520833 1837.7327,49.606275 1836.3988,43.424328 1838.7292,44.864583 1839.3055,45.220779 1840.5062,45.21397 1841.4167,44.864583 1842.7835,44.340111 1842.5738,43.899098 1840.1355,42.302083 1835.7977,39.460925 1834.0278,32.333333 1837.6667,32.333333 1840.2632,32.333333 1840.2634,29.65748 1837.6667,28.833333 1836.5664,28.48409 1834.4608,26.619513 1832.9792,24.677083 1830.6073,21.567321 1829.8671,21.198292 1826.9167,21.677083 1825.0738,21.976147 1820.7092,24.265286 1817.1979,26.770833 1813.6868,29.276379 1810.5982,31.333333 1810.3542,31.333333 1810.3257,31.333333 1810.2932,30.799114 1810.2605,30.739583 z"/>
</svg>
