<?xml version="1.0" encoding="UTF-8"?>
<svg xmlns="http://www.w3.org/2000/svg" viewBox="2065.6 14.4 19.66 91.13">
  <path d="M 2068.0417,79.645833 2067.8855,83.739583 C 2068.3569,84.056066 2068.6667,84.510261 2068.6667,85.270833 2068.6667,85.728372 2068.2934,86.257691 2067.7605,86.833333 L 2067.6042,91.583333 C 2068.2786,91.880957 2068.6667,93.134923 2068.6667,95.739583 2068.6667,98.337243 2069.1815,100.38043 2069.9167,100.67708 2071.6948,101.39455 2072.6725,101.37858 2076.9167,100.67708 L 2080.6979,100.08333 2080.6355,72.177083 C 2080.6048,56.837063 2080.8175,43.89104 2081.1042,43.427083 2081.391,42.963126 2081.6893,40.226358 2081.7917,37.333333 L 2081.9792,32.083333 2082.6667,31.645833 2082.6667,28.114583 2083.2605,26.770833 C 2082.9355,26.161343 2082.6667,24.897475 2082.6667,23.083333 L 2082.6667,18.833333 2076.1979,18.645833 C 2072.6338,18.546797 2069.4503,18.886263 2069.1355,19.395833 2068.8204,19.905403 2068.572,33.548825 2068.6042,49.739583 L 2068.6667,79.177083 2068.0417,79.645833 z M 2071.9167,22.333333 C 2072.3292,22.330947 2074.2758,22.333333 2076.2605,22.333333 L 2079.8855,22.333333 2079.1667,41.083333 C 2078.7661,51.395833 2078.3349,61.871182 2078.2292,64.364583 2078.1236,66.857985 2078.3595,74.896107 2078.7605,82.239583 2079.1613,89.583059 2079.2673,96.20771 2078.9792,96.958333 2078.6693,97.766128 2076.9793,98.334071 2074.8229,98.333333 L 2071.1667,98.333333 2071.1667,60.333333 C 2071.1667,39.436406 2071.5042,22.33572 2071.9167,22.333333 z"/>
</svg>
