<?xml version="1.0" encoding="UTF-8"?>
<svg xmlns="http://www.w3.org/2000/svg" viewBox="638.93 14.95 34.51 85.31">
  <path d="M 641.27083,71.135417 640.92708,72.947917 640.92708,80.822917 C 641.52616,80.280507 642.70061,80.597984 645.23958,81.854167 647.35869,82.902618 650.37054,83.835372 651.92708,83.947917 657.31002,84.33713 659.1593,76.233784 659.55208,50.322917 L 659.70833,39.479167 655.86458,36.260417 C 652.48979,33.427112 652.0993,32.682094 652.73958,30.104167 653.76345,25.981771 657.18003,22.666667 660.39583,22.666667 666.99428,22.666667 670.22099,30.440212 666.55208,37.479167 665.04799,40.364838 664.51175,43.297013 664.48958,48.947917 664.47317,53.132694 664.1671,58.714387 663.80208,61.354167 661.99934,74.391165 660.26761,82.654135 658.42708,86.947917 655.94449,92.739572 654.21561,92.937405 646.08333,88.385417 643.27145,86.811485 641.69258,85.62324 640.92708,84.541667 L 640.92708,90.385417 640.95833,90.635417 C 641.02558,90.53332 641.07319,90.305312 641.14583,90.260417 641.60125,89.978948 644.63875,91.075976 647.89583,92.697917 655.16055,96.315563 656.63659,96.377867 658.80208,93.072917 663.18756,86.379831 667.68647,61.774245 666.92708,48.666667 666.62218,43.403991 666.96221,41.505588 668.64583,38.729167 671.06613,34.737869 671.43535,26.730693 669.33333,24.197917 664.9498,18.916081 656.8122,18.824542 652.89583,24.041667 651.61176,25.752222 650.24776,28.641025 649.86458,30.447917 649.24286,33.379559 649.5574,34.114031 652.95833,37.229167 L 656.77083,40.729167 656.98958,52.260417 C 657.17579,62.716096 656.39351,70.716401 654.48958,77.666667 653.11122,82.698365 644.96388,80.899992 642.05208,74.916667 641.76002,74.316519 641.49599,73.033012 641.27083,71.135417 z"/>
</svg>
