<?xml version="1.0" encoding="UTF-8"?>
<svg xmlns="http://www.w3.org/2000/svg" viewBox="1399.57 17.04 31.35 85.3">
  <path d="M 1412.4142,95.593703 C 1410.6027,93.782241 1408.7041,90.309993 1407.7722,87.104456 1406.1524,81.532595 1406.1521,81.66846 1407.8499,47.166667 L 1408.4896,34.166667 1405.4659,29.733111 C 1401.5714,24.022851 1402.6146,22.217842 1406.8804,27.285553 1411.0227,32.206652 1411.5858,35.878934 1410.3535,49.936291 1408.9019,66.494961 1408.8435,80.573176 1410.2064,85.400722 1411.6446,90.494905 1415.7339,95.630614 1417.1862,94.166667 1418.1927,93.152123 1421.1168,82.414968 1421.135,79.666667 1421.1404,78.841667 1421.4728,73.662579 1421.8736,68.157583 1422.3707,61.331091 1422.2089,56.40255 1421.365,52.657583 1418.8149,41.341398 1418.8859,35.911994 1421.6574,30.303733 1423.0536,27.478347 1424.4377,24.379167 1424.7332,23.416667 1425.0287,22.454167 1426.0084,21.666667 1426.9103,21.666667 1428.9211,21.666667 1428.1652,25.66491 1425.4094,29.605672 1422.4361,33.857365 1421.6597,37.637963 1422.5369,43.59282 1424.9339,59.865602 1425.0992,63.991917 1423.774,74.474752 1422.361,85.651692 1420.7699,94.15128 1419.7953,95.728109 1419.4799,96.238401 1418.3798,97.106578 1417.3506,97.657391 1415.8473,98.461931 1414.8766,98.056108 1412.4142,95.593703 z M 1412.0833,27.485143 C 1410.5708,25.865843 1409.3333,24.119246 1409.3333,23.603815 1409.3333,22.136772 1411.9548,22.505649 1413.3333,24.166667 1415.0162,26.19438 1416.5705,26.054562 1419.6984,23.594087 1423.1043,20.915058 1423.1492,22.908231 1419.7824,27.322276 1416.7312,31.322651 1415.6883,31.344711 1412.0833,27.485143 z"/>
</svg>
