<?xml version="1.0" encoding="UTF-8"?>
<svg xmlns="http://www.w3.org/2000/svg" viewBox="1111 18 34.13 80.83">
  <path d="M 1113 34.15625 L 1113 37.8125 L 1119.75 32.75 C 1123.9647 29.5875 1128.1993 27 1129.1562 27 C 1133.0759 27 1134.6262 44.21833 1131 47.5 C 1128.6401 49.635725 1128.3774 52 1130.5 52 C 1131.325 52 1131.9916 51.4375 1132 50.75 C 1132.012 49.768596 1132.2094 49.781584 1132.8438 50.78125 C 1134.2555 53.005701 1132.9025 57.833158 1130.4062 59.46875 C 1129.09 60.331161 1128 61.718929 1128 62.53125 C 1128 64.210621 1129.5716 64.502245 1130.5 63 C 1131.8812 60.765231 1133 62.247464 1133 66.3125 C 1133 69.799247 1132.4253 71.176383 1130 73.5 C 1126.2988 77.045952 1126.0744 78.826442 1129.625 76.5 L 1132.25 74.78125 L 1131.5938 80.65625 C 1131.0177 85.673817 1130.4161 86.953118 1127.4062 89.65625 C 1123.5212 93.145377 1124.2689 95.15612 1128.2812 92 C 1131.0317 89.836503 1133.5283 89.427735 1134.5 91 C 1135.2637 92.235635 1139 92.341117 1139 91.125 C 1139 90.638255 1137.8147 89.443318 1136.375 88.5 C 1134.0039 86.946381 1133.8216 86.333404 1134.25 81.875 C 1134.8173 75.971073 1135.1859 75.476902 1137.875 77.15625 C 1139.3801 78.096207 1140.265 78.141296 1141.0625 77.34375 C 1141.8601 76.546204 1141.1559 75.653291 1138.5312 74.03125 C 1135.1741 71.956336 1134.9421 71.479514 1135.1562 67.34375 C 1135.4015 62.606951 1136.4657 61.059409 1138.2812 62.875 C 1138.8933 63.487078 1139.9725 64 1140.6875 64 C 1143.1286 64 1141.993 61.512634 1138.5 59.25 C 1135.4025 57.243524 1135 56.496685 1135 52.65625 C 1135 47.535218 1135.6018 46.707686 1138.25 48.125 C 1142.0388 50.152684 1142.3986 47.400533 1138.7188 44.59375 C 1135.4724 42.117584 1135.266 41.556971 1134.6562 34.34375 C 1133.7468 23.585288 1131.5079 21.677923 1125.1875 26.25 C 1116.4898 32.541781 1113.9756 34.307021 1113 34.15625 z "/>
</svg>
