<?xml version="1.0" encoding="UTF-8"?>
<svg xmlns="http://www.w3.org/2000/svg" viewBox="2675.59 17.09 59.92 85.89">
  <path d="M 2732.75,32.9375 C 2732.737,32.939563 2732.6028,33 2732.5938,33 2732.3217,33 2731.7997,31.431075 2731.4375,29.5 2729.8463,21.018406 2726.5269,24.652017 2724,37.6875 2722.1526,47.217431 2718.8625,57.464887 2717.0312,59.34375 2715.7723,60.635373 2712.872,59.36522 2706.9375,54.9375 2699.4583,49.35721 2699.2876,48.819126 2703.8125,44.0625 2707.964,39.698358 2710,36.039343 2710,32.9375 2710,30.368736 2707.0158,30.406504 2703.7188,33 2700.7811,35.310735 2696.1901,35.636225 2695.4062,33.59375 2695.1108,32.823894 2695.5748,29.81122 2696.4375,26.90625 2697.3002,24.001281 2698,21.442268 2698,21.21875 2698,20.995232 2696.0875,21.122664 2693.75,21.5 2688.5342,22.341965 2681.4624,28.732917 2679.875,34.03125 2678.3089,39.258611 2680.6623,44.277557 2685.9375,46.96875 2690.566,49.330068 2690.917,50.956753 2687.9375,55.84375 2686.8128,57.68852 2686.0736,59.720684 2686.2812,60.34375 2686.8662,62.098746 2691.8405,53.858125 2692.1875,50.5625 2692.4415,48.149033 2691.8823,47.231098 2689,45.375 2681.0109,40.230302 2680.0423,36.905524 2684.75,30.71875 2686.8629,27.942047 2691.3432,25 2693.4688,25 2693.5593,25 2693.4256,27.707887 2693.1875,31 2692.6423,38.53688 2693.8484,39.180631 2701.5625,35.53125 2704.6609,34.065495 2707.4057,33.062023 2707.6562,33.3125 2708.942,34.598228 2706.1827,39.866211 2702.2188,43.71875 2696.7523,49.031549 2696.9484,49.79362 2706,57.46875 2713.1527,63.533752 2715.8912,64.219554 2718.7188,60.625 2720.7072,58.097143 2724.0866,48.154732 2726.0625,39 2727.8462,30.735404 2728.9439,29.610138 2728.9688,36 2728.992,41.994552 2725.0259,58.878177 2722,65.71875 2719.573,71.20528 2717.8848,71.211329 2708.2188,65.90625 2698.7717,60.72145 2696.7586,61.049941 2693.4688,68.28125 2689.1089,77.864741 2689.8328,88 2694.875,88 2695.8506,88 2698.8046,86.895428 2701.4375,85.5625 2705.8831,83.311819 2709,83.104971 2709,85.03125 2709,86.425828 2715.7124,90.046807 2717.2188,89.46875 2719.7381,88.502001 2726.3204,79.914194 2725.3125,78.90625 2724.7308,78.324562 2723.1311,79.472368 2721.125,81.96875 2717.8021,86.103659 2714.3956,87.209829 2713.3438,84.46875 2713.0194,83.623408 2711.5001,82.291841 2709.9688,81.5 2707.3902,80.16652 2706.7645,80.266004 2701.4062,82.96875 2698.2244,84.573683 2695.278,85.686557 2694.875,85.4375 2694.472,85.188444 2693.841,83.60067 2693.4688,81.90625 2691.73,73.989672 2696.6678,63.165851 2701.375,64.5625 2702.5493,64.91092 2706.2242,66.950166 2709.5625,69.09375 2712.9009,71.237335 2716.553,73 2717.6562,73 2721.4127,73 2727,64.448218 2727,58.71875 2727,57.436084 2727.4905,55.915765 2728.0938,55.3125 2728.6971,54.709235 2729.5735,51.562985 2730.0312,48.34375 2730.9399,41.953333 2731.6358,38.912584 2732.7812,36.9375 L 2732.75,32.9375 z M 2684.875,63 C 2683.9056,63 2683.5125,64.522594 2681.625,75.90625 2680.6985,81.494318 2680.5557,85.387089 2681.1562,87.5625 2682.042,90.769903 2687.887,96.906908 2690.2812,97.125 2693.3018,97.40014 2696.0999,96.734695 2699.625,94.9375 2704.4413,92.481983 2705.5097,92.515215 2709.2188,95.15625 2710.8793,96.338615 2713.6506,97.651163 2715.375,98.0625 2717.0994,98.473836 2718.6881,98.849951 2718.9062,98.90625 2719.581,99.080454 2729.8802,92.010232 2730.5625,90.90625 2731.761,88.967003 2730.0702,88.712488 2727.4375,90.4375 2723.8189,92.808508 2723.5485,91.974272 2726.5,87.625 2729.2533,83.567807 2729.6807,81.804779 2727.75,82.5625 2725.6216,83.397815 2721.7898,90.12626 2722.3125,92.125 2723.3949,96.263923 2717.128,96.577687 2711.7812,92.65625 2708.0781,89.940295 2704.7097,89.765546 2699.7188,92.03125 2697.4004,93.083695 2694.375,93.945201 2693,93.9375 2689.8442,93.919826 2685.4488,90.358276 2684.0625,86.6875 2682.5993,82.813334 2682.7213,74.473189 2684.3438,68.21875 2685.0882,65.34889 2685.3339,63 2684.875,63 z"/>
</svg>
