<?xml version="1.0" encoding="UTF-8"?>
<svg xmlns="http://www.w3.org/2000/svg" viewBox="2974.29 15.99 91.2 86.42">
  <path d="M 2999.6667,97.333333 C 2997.3291,94.995786 3000.1219,85.428873 3003.918,82.769965 3005.8065,81.447245 3005.809,81.279853 3004.0383,74.893904 3001.5162,65.79847 2998.2704,59.682267 2996.3556,60.417049 2995.52,60.737672 2994.657,61 2994.4377,61 2994.2184,61 2992.6122,64.0375 2990.8684,67.75 2987.4777,74.96854 2984.0452,86.741936 2984.0171,91.25 2983.9926,95.192365 2981.6446,94.671652 2980.0926,90.379639 2978.436,85.798411 2979.4432,71.995078 2981.9306,65.189802 2984.628,57.810161 2990.5633,49.147714 2993.4122,48.43268 2994.8789,48.064565 2998.0969,48.64084 3001.3304,49.850677 3004.3265,50.971652 3007.0528,51.613831 3007.3889,51.27774 3007.725,50.94165 3008,49.166667 3008,47.333333 3008,44.33665 3007.7127,44 3005.155,44 3000.078,44 2997.6493,39.507496 2999.1396,32.873126 3000.2963,27.723822 3002.9953,24.550668 3008.5,21.868386 L 3012.5,19.919296 3014.75,22.515412 C 3015.9875,23.943275 3017,25.931334 3017,26.933319 3017,30.98708 3019.5637,31.401269 3026.7421,28.507221 3030.4589,27.008724 3034.4,25.446307 3035.5,25.035182 3036.6,24.624058 3038.6812,24.697345 3040.1249,25.198042 3042.3244,25.960875 3042.9541,27.071719 3044.0112,32.052879 3045.1193,37.274507 3045.0612,38.551219 3043.5332,42.552142 3041.3998,48.138596 3038.9317,48.221303 3037.5767,42.751753 3036.5148,38.465666 3034.6536,37.544832 3028.9873,38.502152 3022.7311,39.559122 3020,42.315505 3020,47.57258 3020,52.299836 3021.0647,53.023688 3024.3535,50.53229 3026.5808,48.844956 3029.8192,49.828676 3034.2158,53.528121 3038.0058,56.717231 3040.2985,56.648912 3043.549,53.25 3048.2565,48.327509 3050.8524,43.657237 3053.9311,34.57176 3055.5951,29.661228 3057.435,25.16499 3058.0199,24.580119 3061.2741,21.325924 3061.3491,33.892417 3058.1375,44.290262 3055.3671,53.259684 3051.9312,59.745602 3047.3559,64.642345 3041.3325,71.088948 3039.7974,71.55161 3034.5786,68.493217 3032.1537,67.072124 3029.6264,65.254794 3028.9624,64.454706 3027.2207,62.356123 3024.6511,62.663935 3022.3233,65.25 3018.0648,69.980967 3016.4856,78.918946 3019.0264,83.909671 3021.1578,88.096109 3022.0495,97.114293 3020.3889,97.689305 3019.7778,97.900914 3017.3728,96.482387 3015.0443,94.537024 3012.7159,92.591661 3010.381,91 3009.8558,91 3009.3306,91 3007.2791,92.575 3005.297,94.5 3001.5952,98.095199 3000.8191,98.485748 2999.6667,97.333333 z M 3006.1824,90.5 C 3009.7647,87.48569 3012.0917,87.338832 3014.4787,89.976419 3017.9689,93.833081 3019.374,89.134607 3016.2912,83.915751 3014.8036,81.397454 3014.7352,80.293927 3015.7633,75.392352 3017.0164,69.418366 3022.0058,60.595486 3024.7201,59.553916 3025.738,59.163305 3027.683,60.071511 3029.9229,61.983282 3031.8903,63.662536 3034.9296,65.770933 3036.6769,66.668607 3039.7733,68.259327 3039.9364,68.231318 3043.1054,65.564787 3048.1956,61.281656 3052.5382,53.757114 3055.9655,43.281545 3059.6299,32.081224 3058.1999,29.468728 3054.2444,40.137396 3053.0948,43.237963 3050.1008,48.47492 3047.591,51.775077 3041.014,60.42331 3038.6928,60.938508 3031.3968,55.369398 L 3026.6405,51.738796 3023.3458,53.513085 C 3018.8031,55.959498 3017,54.371115 3017,47.92301 3017,41.80429 3019.75,38.795999 3027.368,36.581411 3034.9381,34.380713 3035.7918,34.532879 3038.1325,38.5 3041.1938,43.68848 3042.307,42.921306 3041.8042,35.969714 3041.2139,27.809252 3039.5891,26.18832 3033.7908,27.975441 3031.4308,28.7028 3027.0967,30.388369 3024.1593,31.721149 3021.222,33.053929 3018.2723,33.934717 3017.6045,33.678456 3016.9366,33.422194 3015.773,31.342149 3015.0185,29.056133 3014.2641,26.770116 3013.2283,24.641099 3012.7168,24.324984 3012.2053,24.008869 3010.0309,24.329742 3007.8848,25.038035 3004.6699,26.099034 3003.7853,26.984639 3002.8619,30.06646 3002.2431,32.131881 3002.0499,35.452547 3002.4305,37.481316 3003.1146,41.127657 3003.1497,41.1505 3007.0599,40.489879 L 3011,39.824204 3011,45.720973 C 3011,48.984858 3010.4188,52.412571 3009.6983,53.397892 3008.4554,55.097747 3008.1096,55.083815 3002.0332,53.089022 2998.5333,51.94006 2995.1815,51.000013 2994.5848,51.000029 2993.0161,51.000072 2988.1586,57.384878 2985.9968,62.288244 2983.8524,67.15224 2981.8863,79.85706 2982.9681,81.859994 2983.4437,82.740681 2983.9017,81.993223 2984.2675,79.739147 2984.5782,77.824683 2985.7701,74.199875 2986.9162,71.684016 2988.0623,69.168158 2989,66.807829 2989,66.438841 2989,64.927969 2996.2692,56 2997.4994,56 2999.245,56 3005.1137,65.537074 3006.1144,70 3006.546,71.925 3007.4662,75.718546 3008.1593,78.430103 3009.1058,82.133443 3009.1309,83.45638 3008.2599,83.746709 3005.3103,84.729901 3002,88.339504 3002,90.57258 3002,93.613337 3002.4925,93.604789 3006.1824,90.5 z"/>
</svg>
