<?xml version="1.0" encoding="UTF-8"?>
<svg xmlns="http://www.w3.org/2000/svg" viewBox="2760.85 19.71 77.29 79.92">
  <path d="M 2833.2812 37.375 C 2832.0181 37.941086 2830.8552 37.793813 2828.6875 37.46875 C 2826.1137 37.082784 2823.4124 37.238331 2822.2812 37.84375 C 2820.0016 39.063725 2818 37.677947 2818 34.84375 C 2818 32.657551 2813.1606 27.065782 2809.3438 24.84375 C 2806.8443 23.388728 2806.0108 23.345057 2802.5625 24.53125 C 2796.6513 26.564683 2791.5527 32.375658 2788.125 40.96875 L 2785.125 48.46875 L 2779.125 48.46875 C 2773.8544 48.487441 2772.7686 48.845187 2770.0625 51.4375 C 2766.3273 55.015675 2764.3619 61.266679 2765.9062 64.65625 C 2767.1237 67.328122 2769.1917 67.678926 2771 65.5 C 2771.6847 64.675 2772.6048 64 2773.0625 64 C 2773.5201 64 2775.0312 62.875 2776.4062 61.5 C 2779.5979 58.308344 2782.4117 58.317989 2785.6562 61.5625 C 2787.8774 63.78369 2788.1588 64.784371 2787.7188 68.6875 C 2787.3021 72.383625 2786.3902 74.052315 2782.625 77.875 C 2780.0888 80.449913 2778 83.222589 2778 84.03125 C 2778 84.839912 2780.0042 87.077554 2782.4375 89 C 2784.8707 90.922446 2787.0786 93.2875 2787.3438 94.25 C 2787.6684 95.427776 2788.7952 96 2790.8438 96 C 2795.0686 96 2796.1222 93.722732 2794.4375 88.125 C 2792.9631 83.225738 2792.8969 83.452669 2798.3438 74.625 C 2802.1177 68.508591 2802.1596 63.206642 2798.5312 56.0625 C 2796.0002 51.079054 2795.8937 50.305165 2797 46.5625 C 2799.2805 38.847342 2804.224 36.570258 2807.7188 41.59375 C 2808.7069 43.014228 2810.693 45.616405 2812.1562 47.375 C 2814.7798 50.527918 2814.7971 50.637929 2813.4062 56 C 2811.4979 63.357384 2811.6321 66.914826 2814.0625 73.9375 C 2816.5804 81.213381 2816.771 86.760875 2814.625 91.0625 C 2812.6946 94.93216 2813.1539 95.693144 2816.6875 94.4375 C 2818.3962 93.830345 2820.5146 91.391275 2822.7188 87.5 C 2826.3685 81.05625 2826.414 80.168855 2824.375 61.25 C 2823.8567 56.441105 2824.0028 55.931074 2826.1562 55.03125 C 2827.4464 54.49215 2829.85 52.916353 2831.5 51.53125 C 2834.061 49.38144 2834.5 48.316021 2834.5 44.25 C 2834.5 43.026102 2834.5086 42.114379 2834.625 41.3125 C 2834.6265 41.30234 2834.6235 41.291369 2834.625 41.28125 L 2833.2812 37.375 z M 2804.8125 27 C 2808.8617 27 2813.5779 31.36298 2815.5938 36.96875 C 2817.0367 40.981568 2817.8372 42 2819.625 42 C 2820.8589 42 2822.1851 41.485617 2822.5625 40.875 C 2823.4441 39.448618 2830.0572 40.486776 2831.1562 42.21875 C 2833.2662 45.544299 2831.9954 48.029667 2826.375 51.625 L 2820.7812 55.21875 L 2821.375 60.84375 C 2823.3405 79.410373 2823.3274 81.389848 2821.2812 83.90625 L 2819.3125 86.3125 L 2818.6875 81.65625 C 2818.3346 79.08181 2817.3655 75.644459 2816.5312 74.03125 C 2814.7864 70.657094 2814.5711 62.32463 2816.0938 56.5 C 2818.3692 47.796591 2818.376 47.907919 2816.2188 47.34375 C 2815.0932 47.04945 2813.6316 45.506411 2812.9688 43.90625 C 2811.5002 40.361062 2805.5939 35 2803.1562 35 C 2799.3766 35 2794.8817 42.076398 2793.5625 50.09375 C 2793.0886 52.974252 2793.4599 54.229736 2795.4375 56.53125 C 2800.5303 62.458018 2799.4207 70.360057 2792.25 79.25 L 2789.2188 83 L 2791.0938 86.71875 C 2792.1342 88.759421 2793 91.010043 2793 91.71875 C 2793 94.202346 2790.4622 92.888075 2786.25 88.25 C 2783.9125 85.676182 2782 83.322676 2782 83 C 2782 82.677323 2783.7557 80.693841 2785.9062 78.59375 C 2793.0873 71.581763 2793.2559 61.247909 2786.25 57.625 C 2782.6806 55.779219 2776.8734 56.82515 2773.5938 59.90625 C 2770.2817 63.017836 2767.7939 62.697216 2768.5938 59.25 C 2770.1667 52.470518 2775.2662 49.367806 2781.6562 51.3125 C 2786.1809 52.689466 2787.3925 51.865501 2788.8125 46.375 C 2791.6082 35.565583 2798.687 27 2804.8125 27 z "/>
</svg>
