<?xml version="1.0" encoding="UTF-8"?>
<svg xmlns="http://www.w3.org/2000/svg" viewBox="1762 19.72 24.06 74.89">
  <path d="M 1764.2188 25.40625 L 1764 29.78125 C 1769.4472 26.138292 1772.3404 27.227397 1773.4688 33.90625 C 1774.0125 37.124199 1773.7554 38.244596 1772.0625 39.9375 C 1769.8743 42.12569 1769.3583 44 1770.9375 44 C 1771.455 44 1772.1601 43.55 1772.5 43 C 1774.0117 40.554005 1774.9893 42.44531 1774.9688 47.75 C 1774.9526 51.912557 1774.4157 54.190193 1773 56 C 1769.7315 60.178478 1770.5632 62.595366 1774.1562 59.34375 C 1775.9069 57.759485 1776 57.922531 1776 63.1875 C 1776 67.417508 1775.5382 69.107962 1774 70.5 C 1772.9 71.495486 1772 72.691493 1772 73.15625 C 1772 73.621006 1772.9 74 1774 74 C 1775.7101 74 1776 74.661627 1776 78.59375 C 1776 82.458799 1775.5116 83.661956 1772.875 86.125 C 1769.2294 89.530493 1769.8448 91.205931 1773.9062 88.875 C 1775.8661 87.750222 1777.2301 87.543065 1778.4375 88.21875 C 1780.7667 89.522242 1781.7015 88.34282 1780.2188 85.96875 C 1779.5521 84.901226 1779 81.532463 1779 78.5 C 1779 73.653098 1779.2418 73 1781 73 C 1782.1 73 1783 72.545339 1783 72 C 1783 71.454661 1782.1 70.468211 1781 69.78125 C 1777.9889 67.900756 1778.1567 59.82288 1781.25 57.75 L 1783.5 56.21875 L 1780.75 53.65625 C 1778.5261 51.580785 1778 50.224378 1778 46.53125 C 1778 42.15934 1778.1067 41.993067 1780.5 42.59375 C 1784.0647 43.488437 1783.7996 40.669235 1780.0625 37.90625 C 1777.9936 36.376624 1776.7727 34.262475 1775.9375 30.78125 C 1774.5067 24.816605 1771.9278 23.124476 1766.9062 24.875 C 1765.64 25.316414 1764.8976 25.453775 1764.2188 25.40625 z "/>
</svg>
