<?xml version="1.0" encoding="UTF-8"?>
<svg xmlns="http://www.w3.org/2000/svg" viewBox="1703.72 15.71 63.38 89.86">
  <path d="M 1764.2188 25.40625 C 1763.3819 25.347667 1762.68 24.964713 1761.7812 24 C 1759.2353 21.267306 1755.0231 21.471846 1750.4688 24.5625 L 1746.6875 27.15625 L 1744.0938 25.09375 C 1742.6681 23.954946 1740.2092 22.286095 1738.625 21.40625 C 1735.9667 19.929841 1735.4502 19.933127 1731.9062 21.53125 C 1729.7942 22.48363 1727.3015 24.10118 1726.375 25.125 C 1724.1113 27.62633 1723.3444 27.504971 1719.2812 23.9375 C 1714.5638 19.7955 1712.1171 20.345291 1709.0312 26.1875 C 1706.6078 30.775599 1706.5978 30.904625 1708.4375 32.9375 C 1710.8425 35.594946 1715.3163 35.581162 1719.5938 32.9375 L 1722.9062 30.90625 L 1723.9375 34.75 C 1724.5062 36.862239 1725.0739 42.421262 1725.2188 47.125 C 1725.4759 55.474179 1725.413 55.827599 1721.875 61.15625 C 1716.811 68.783259 1714.0013 74.532434 1714.0312 77.21875 C 1714.0454 78.478161 1715.6204 81.969236 1717.5312 84.96875 C 1719.4422 87.968265 1721 91.292821 1721 92.375 C 1721 93.457178 1721.7459 95.150443 1722.6562 96.15625 C 1727.4763 101.48241 1732.3333 94.705685 1728.5 88 C 1727.714 86.625 1727.0508 84.478161 1727.0312 83.21875 C 1726.9731 79.458219 1733.3478 68.972554 1735.6562 69.03125 C 1736.7489 69.059036 1741.6847 76.01757 1742.9375 79.3125 C 1743.6715 81.243123 1743.3907 83.38791 1741.8438 87.96875 C 1739.3327 95.404396 1739.8356 97.238188 1744.2188 96.8125 C 1747.0731 96.53527 1747.6698 95.926699 1749.25 91.65625 C 1750.2339 88.997071 1752.2181 85.291798 1753.6562 83.40625 C 1756.9425 79.097595 1756.5175 75.746738 1751.4375 65.1875 C 1748.4225 58.920675 1747.7398 56.235961 1747.375 49.5625 C 1746.7814 38.701698 1748.6529 34.639865 1754.5 34.1875 C 1757.0304 33.991732 1759.7767 32.864031 1762 31.09375 C 1762.7648 30.484758 1763.3216 30.234939 1764 29.78125 L 1764.2188 25.40625 z M 1734.625 24.46875 C 1736.267 24.16653 1737.4331 24.997492 1741.4375 28.125 C 1744.4913 30.510051 1747 32.774405 1747 33.125 C 1747 33.475595 1746.325 35.661701 1745.5 38 C 1743.6195 43.329887 1743.5898 54.237275 1745.4375 59.5 C 1746.2099 61.7 1747.9834 65.521639 1749.375 68 C 1752.135 72.915306 1753.9219 81 1752.25 81 C 1751.6939 81 1749.9517 83.690033 1748.375 86.96875 C 1746.7983 90.247466 1745.1625 92.947466 1744.75 92.96875 C 1743.6232 93.026889 1743.8045 91.856078 1745.9375 85.65625 C 1747.6907 80.56064 1747.7581 79.648436 1746.4688 76.5625 C 1745.6809 74.677155 1744.5688 72.851532 1744 72.5 C 1743.4312 72.148467 1741.8426 69.648577 1740.4688 66.9375 C 1739.095 64.226423 1737.3794 62 1736.6562 62 C 1735.3984 62 1731.7247 66.91249 1725.6875 76.71875 C 1723.567 80.163127 1723.0503 82.015567 1723.5 84.375 C 1724.0904 87.47223 1724.0794 87.476711 1721.5312 83.5 C 1716.7448 76.030349 1716.7393 76.099364 1725.125 61 L 1728.1562 55.5 L 1727.6562 42.125 C 1727.0977 27.594631 1727.1448 27.359986 1732.6875 25.09375 C 1733.4562 24.779446 1734.0777 24.56949 1734.625 24.46875 z M 1715.2812 25.46875 C 1715.8585 25.53068 1716.4567 25.706999 1717.0625 26.03125 C 1719.5337 27.353776 1719.5373 29.644297 1717.0625 30.96875 C 1713.0528 33.114682 1710.3198 31.713696 1711.4688 28.09375 C 1712.0563 26.242676 1713.5494 25.282959 1715.2812 25.46875 z M 1756.1875 26 C 1758.6718 26 1759.0818 26.353355 1758.8125 28.25 C 1758.4626 30.713036 1754.6324 31.76355 1752.0625 30.09375 C 1749.8676 28.667647 1752.5517 26 1756.1875 26 z M 1725.2812 90.375 C 1725.3864 90.26986 1725.5279 90.413634 1725.6875 90.8125 C 1725.9764 91.534375 1725.9261 92.386458 1725.5938 92.71875 C 1725.2614 93.051041 1725.0503 92.460416 1725.0938 91.40625 C 1725.1178 90.823779 1725.1761 90.48014 1725.2812 90.375 z "/>
</svg>
