<?xml version="1.0" encoding="UTF-8"?>
<svg xmlns="http://www.w3.org/2000/svg" viewBox="1565.14 15.27 110.84 88.93">
  <path d="M 1670.875,25.84375 C 1666.3538,28.12609 1660.1658,34.413003 1659.5,37.625 1657.3541,47.976361 1651.4646,61.152398 1648.1875,62.90625 1646.8244,63.635732 1644.9488,63.233456 1640.9375,61.375 1634.616,58.44621 1632.1695,59.027031 1629.0312,64.1875 1624.8985,70.983361 1625.2007,80.724394 1629.7188,86.09375 1632.4215,89.305873 1634.6806,89.564206 1641.5312,87.5 1642.8368,87.10659 1644.7797,87.781436 1647.0312,89.40625 1650.8842,92.186806 1654.2944,92.171564 1658.5625,89.375 1661.9119,87.180368 1660.3055,85.687966 1656.25,87.21875 1653.4732,88.266863 1652.5797,88.136902 1649,86.125 1645.4884,84.151369 1644.0724,83.914909 1639.0312,84.5 1633.5693,85.133929 1633.0598,85.018516 1631.5938,82.78125 1628.0048,77.303677 1629.0713,65.053023 1633.2812,63.4375 1634.0345,63.148416 1636.7892,63.846934 1639.4062,64.96875 1645.1806,67.443924 1647.8151,67.488598 1650.7188,65.21875 1653.2257,63.258912 1662,45.34135 1662,42.1875 1662,37.583811 1665.523,32.815699 1670.9375,29.4375 L 1670.875,25.84375 z M 1589.25,19.90625 C 1588.9705,19.309605 1587.5012,20.057628 1585,22.5 1582.6551,24.789755 1580.9818,25.772124 1580.5625,25.09375 1579.6622,23.637053 1577,23.679139 1577,25.15625 1577,25.800443 1577.7459,27.150443 1578.6562,28.15625 1581.1335,30.893496 1582.3803,30.462278 1586.3438,25.375 1588.6203,22.452965 1589.5295,20.502895 1589.25,19.90625 z M 1604.4062,20.09375 C 1603.6228,20.026934 1603.1332,20.429287 1602.3125,21.25 1600.7758,22.786671 1600.724,23.532095 1601.8438,27.71875 1603.7067,34.684212 1604.4115,35.229703 1609.125,33.34375 1611.3,32.473473 1613.3048,31.992195 1613.5938,32.28125 1614.5511,33.238477 1616.9325,44.433037 1616.9688,48.1875 1616.9883,50.217541 1616.5881,52.131999 1616.0938,52.4375 1615.5994,52.743001 1613.3319,52.154997 1611.0312,51.125 1606.399,49.051056 1600.8084,49.601127 1598.6875,52.34375 1594.9338,57.197615 1590.4268,52.312447 1589.375,42.25 1588.5873,34.713021 1589.192,32.411624 1593.0312,28.09375 1596.0123,24.740857 1596.4691,22.5 1594.1875,22.5 1593.5541,22.5 1591.4054,24.975 1589.4062,28 1585.8192,33.42738 1585.7648,33.596094 1586.3438,41.21875 1586.9576,49.30086 1589.5587,56.106546 1592.7188,57.875 1594.6266,58.942633 1595.0451,58.774536 1599.6875,55.34375 1603.6949,52.382236 1604.915,52.414864 1610.875,55.53125 1613.5322,56.920692 1616.4198,57.780046 1617.3125,57.4375 1620.0167,56.399798 1620.4689,50.255427 1618.5938,40 1616.2131,26.980641 1616.2278,26.971072 1618.6875,25.3125 1620.7145,23.945799 1621.125,24.107615 1624.6562,27.34375 L 1628.4688,30.8125 1627.0938,35.15625 C 1625.4922,40.285999 1624.5753,51.158602 1625.4375,54.59375 1626.1766,57.53881 1627.3869,57.620854 1630.7188,55 1633.9379,52.467769 1636.4995,52.467769 1639.7188,55 1642.3366,57.059253 1644.6299,57.464391 1647.4688,56.375 1649.5292,55.584361 1653.7906,47.214927 1655.5,40.625 1656.7279,35.891253 1656.6434,35.185275 1654.2188,29.28125 1652.7972,25.819814 1651.0399,23 1650.3125,23 1648.4708,23 1648.6499,24.64074 1651.1562,30.6875 1653.1072,35.394457 1653.225,36.442835 1652.1562,41.21875 1650.7269,47.605802 1647.6379,53 1645.4062,53 1644.5105,53 1642.0224,52.019383 1639.875,50.8125 1636.4628,48.894746 1635.5427,48.768704 1632.6562,49.8125 1627.9689,51.50747 1628,51.531079 1628,45.96875 1628,39.784352 1631.3207,32.51729 1633.7188,33.4375 1638.2792,35.187509 1642.2301,29.322645 1639.8438,24.34375 1638.09,20.684682 1635.8119,20.338013 1632,23.15625 1629.8451,24.749443 1628.5137,25.14475 1627.5938,24.46875 1620.848,19.511612 1621.3131,19.636139 1618.125,21.90625 1614.4302,24.537207 1613.4893,24.539724 1608.2812,21.78125 1606.2769,20.719592 1605.1897,20.160566 1604.4062,20.09375 z M 1668.25,21.25 C 1667.5552,21.018664 1665.7402,22.20799 1664.25,23.90625 1661.0607,27.540822 1659.6329,27.772846 1657.625,24.90625 1655.8041,22.306502 1653.531,23.223873 1655,25.96875 1655.5479,26.992484 1656.6867,28.530482 1657.5312,29.375 1659.3314,31.175202 1661.5368,30.556924 1664.7812,27.3125 1666.0453,26.048551 1667.7847,25 1668.625,25 1670.4311,25 1670.1194,21.872449 1668.25,21.25 z M 1571.8125,24.625 C 1570.1772,25.63567 1571.0994,27.98625 1574.8438,32.3125 1578.3149,36.323224 1578.7579,37.474215 1579.375,44.125 1580.641,57.770461 1585.5679,68 1590.875,68 1592.013,68 1595.4001,66.875 1598.4062,65.5 1606.7746,61.672274 1609.5063,62.087898 1612.375,67.6875 1616.2862,75.322125 1612.6196,86.86425 1606.5,86.1875 1604.9231,86.013114 1601.7521,84.775614 1599.4688,83.4375 1594.2508,80.379583 1593.4769,80.390137 1588.7188,83.6875 1585.4756,85.935017 1584.5303,86.182217 1582.9375,85.1875 1580.3659,83.581485 1580,83.681506 1580,85.9375 1580,89.451607 1588.2523,89.823692 1591.0625,86.4375 1592.6882,84.478718 1593.8902,84.606145 1600.125,87.4375 1606.8906,90.509957 1609.115,90.57438 1611.6875,87.75 1618.8287,79.909632 1619.0657,68.871753 1612.2188,61.6875 1609.8454,59.197228 1609.0207,58.922152 1605.5625,59.46875 1603.3898,59.812166 1601.0936,60.512735 1600.4688,61.03125 1599.844,61.549764 1597.3772,62.661281 1595,63.5 1591.0965,64.877228 1590.5133,64.86359 1588.9375,63.4375 1587.2853,61.942294 1582.7101,51.22258 1582.3438,48 1580.6606,33.193029 1580.7623,33.622222 1576.625,28.8125 1574.4074,26.234589 1572.254,24.352129 1571.8125,24.625 z M 1607.25,25.1875 C 1608.6896,25.391953 1609.5,26.179944 1609.5,27.40625 1609.5,29.745695 1607.861,30.454691 1606.2188,28.8125 1604.212,26.805827 1604.7707,24.835383 1607.25,25.1875 z M 1634.7812,25.34375 C 1636.0392,25.096024 1637,26.143268 1637,28.0625 1637,30.305566 1634.7836,30.623467 1633.125,28.625 1632.2634,27.586803 1632.3224,26.956651 1633.4375,26.03125 1633.8958,25.650874 1634.3619,25.426325 1634.7812,25.34375 z M 1592.9375,90.40625 C 1592.2789,90.54786 1591.7237,90.855497 1591.2188,91.3125 1588.1274,94.110105 1583.4667,95.305647 1580.9688,93.96875 1577.5518,92.14006 1576.1683,94.409717 1579.4062,96.53125 1582.482,98.546542 1586.9382,97.975881 1590.5625,95.125 1592.9155,93.274145 1593.0062,93.301567 1598.1875,95.78125 1601.0789,97.165009 1604.5803,98.66065 1605.9688,99.09375 1609.3801,100.15781 1613.1801,99.262118 1615,97 1617.1968,94.269354 1618.934,94.268554 1624.4062,96.9375 1629.2772,99.313196 1629.3556,99.318466 1635.5938,97.65625 1641.3801,96.114421 1642.1616,96.12101 1645.25,97.59375 1648.0325,98.920635 1649.3419,98.982611 1652.875,98.03125 1658.0393,96.640662 1657.9476,94.395947 1652.75,94.84375 1650.7778,95.01366 1647.7234,94.40739 1645.9688,93.5 1643.0374,91.984126 1642.4084,91.95409 1637.9688,93.40625 1631.5992,95.489642 1630.6547,95.434373 1624.8125,92.5 1619.5045,89.833925 1618.0997,90.032177 1614.5938,93.90625 1612.2535,96.492272 1609.5365,96.549592 1604.4375,94.125 1597.9562,91.043108 1594.9133,89.981419 1592.9375,90.40625 z"/>
</svg>
