<?xml version="1.0" encoding="UTF-8"?>
<svg xmlns="http://www.w3.org/2000/svg" viewBox="2630.31 20.51 33.69 76.72">
  <path d="M 2632.4375 32.15625 L 2632.3125 32.78125 L 2633.0938 37.75 C 2633.4098 35.949257 2637.9746 31 2639.4062 31 C 2639.8412 31 2641.4052 30.140335 2642.875 29.09375 C 2647.485 25.81116 2649.2849 26.03907 2650.125 30 C 2650.725 32.828795 2650.4478 33.934676 2648.75 35.75 C 2646.5286 38.125211 2646.9876 40.085764 2649.3125 38.15625 C 2652.8328 35.234705 2652.9717 42.657661 2649.4688 46.4375 C 2647.0642 49.032064 2646.9172 52.489019 2649.3125 50.09375 C 2649.9104 49.495828 2650.7475 49 2651.1875 49 C 2652.3455 49 2652.1798 54.770838 2651 55.5 C 2650.4529 55.83809 2649.5915 56.917722 2649.0625 57.90625 C 2648.2366 59.44944 2648.422 59.653196 2650.5312 59.25 C 2652.737 58.828333 2653 59.110218 2653 62.0625 C 2653 63.87081 2652.2441 66.189273 2651.3125 67.21875 C 2649.7206 68.977791 2649.7206 69.048373 2651.3125 68.4375 C 2652.754 67.884325 2653 68.467426 2653 72.40625 C 2653 76.372819 2652.6425 77.21131 2650.5 78.1875 C 2647.3127 79.639742 2647.2472 81.417878 2650.4062 80.625 C 2654.7718 79.529317 2655.4246 85.78045 2651.3438 89.5625 C 2647.9976 92.66363 2648.9092 93.748917 2652.875 91.40625 C 2655.3897 89.920796 2656.1377 89.864168 2657.4688 90.96875 C 2659.9999 93.069382 2660.5485 91.233839 2658.1562 88.6875 C 2656.8437 87.290407 2656 85.067996 2656 83.09375 C 2656 79.986209 2656.1447 79.872867 2659 80.5 C 2661.2928 81.003594 2662 80.802674 2662 79.65625 C 2662 78.814791 2660.7177 77.887915 2659.0938 77.53125 C 2656.8382 77.035822 2656.1229 76.234321 2655.7812 73.90625 C 2655.3356 70.870576 2656.3563 69.118144 2657.5 70.96875 C 2658.4121 72.444461 2660 72.232141 2660 70.625 C 2660 69.867085 2659.1327 68.629585 2658.0625 67.875 C 2656.9922 67.120415 2655.8277 64.837685 2655.4688 62.8125 C 2654.8689 59.428402 2654.9775 59.183136 2656.9062 59.6875 C 2659.9482 60.48297 2659.6133 57.60601 2656.5 56.1875 C 2654.6363 55.338332 2654 54.283698 2654 52.03125 C 2654 49.449058 2654.3861 49 2656.5938 49 C 2659.6629 49 2659.3992 46.649086 2656.2812 46.1875 C 2654.8847 45.980779 2654.0152 44.888582 2653.5938 42.78125 C 2652.8373 38.999249 2653.4891 38.213161 2656 39.78125 C 2659.1155 41.726918 2659.1569 39.539947 2656.0625 36.375 C 2654.1101 34.377982 2652.9499 31.927522 2652.4688 28.71875 C 2651.9056 24.963508 2651.385 24 2649.8438 24 C 2647.1988 24 2642.3247 26.565997 2637.3125 30.625 C 2635.0117 32.488297 2632.9357 33.669287 2632.6875 33.25 C 2632.6305 33.153633 2632.5171 32.414495 2632.4375 32.15625 z "/>
</svg>
