<?xml version="1.0" encoding="UTF-8"?>
<svg xmlns="http://www.w3.org/2000/svg" viewBox="2112.87 18.22 39.27 89.11">
  <path d="M 2115.25 91.375 L 2115.3125 94.59375 C 2117.9993 95.059001 2120.4392 92.183791 2123.4688 85.625 C 2127.529 76.834773 2129.2355 68.664404 2128.8125 60 C 2128.5071 53.742926 2128.3972 53.492096 2125.75 53.1875 C 2123.6449 52.945282 2123 52.342398 2123 50.59375 C 2123 47.727824 2124.5034 43.005809 2127.5938 36.21875 C 2128.9153 33.316215 2130 30.481544 2130 29.90625 C 2130 29.330957 2130.7875 29.009672 2131.75 29.1875 C 2134.3011 29.658842 2140.5998 43.329487 2141.4375 50.21875 L 2142.125 55.96875 L 2138.3125 55.71875 C 2134.6159 55.497956 2134.4801 55.612359 2134.2188 59 C 2134.0702 60.925 2133.3362 65.65 2132.5625 69.5 C 2131.7889 73.35 2130.8729 78.180149 2130.5312 80.25 C 2129.7634 84.901442 2124.8413 96.06644 2122.8125 97.75 C 2120.5542 99.623956 2118.3192 99.996766 2115.375 99.0625 L 2115.4062 102.1875 C 2118.3116 103.28432 2119.6681 102.89005 2122.5625 101.125 C 2127.1117 98.350928 2132.6411 86.309616 2133.625 77 C 2133.8865 74.525 2134.5054 71.188323 2135.0312 69.59375 C 2135.5572 67.999177 2136 65.460444 2136 63.9375 C 2136 59.37654 2136.7955 58.320095 2139.9375 58.78125 C 2144.1996 59.40679 2145.4586 56.467531 2143.9062 49.53125 C 2142.7415 44.32665 2142.8002 43.986876 2145.8438 38.59375 C 2149.1826 32.677839 2150.1372 26 2147.625 26 C 2146.8653 26 2145.0308 27.575 2143.5625 29.5 C 2142.0942 31.425 2140.347 33.006809 2139.6875 33 C 2139.028 32.993192 2137.4528 31.390308 2136.1875 29.4375 C 2133.2769 24.945083 2130.1275 25.058486 2128.0625 29.75 C 2127.2758 31.5375 2126.0832 33 2125.4062 33 C 2124.2262 33 2120.8388 29.347053 2118.3125 25.375 C 2116.3404 22.27439 2114.8687 25.616789 2115.2812 32.25 C 2115.5729 36.938609 2116.1677 38.565553 2118.5 41 C 2121.284 43.905888 2121.3307 44.109972 2120.1875 49.0625 C 2118.419 56.724317 2118.4902 56.968882 2122.75 56.71875 C 2126.4568 56.501085 2126.5079 56.544221 2126.75 60.5 C 2127.1335 66.764832 2124.2844 79.938064 2121.25 86 C 2118.8621 90.770569 2117.2465 92.554898 2115.25 91.375 z M 2118.8125 31 C 2120.4398 31 2124 35.669408 2124 37.8125 C 2124 40.375102 2121.813 40.688018 2119.5625 38.4375 C 2117.9382 36.813204 2117.3512 31 2118.8125 31 z M 2145.875 31.875 C 2146.1222 32.338292 2145.6594 33.760079 2144.4688 36.0625 C 2142.8122 39.266133 2141.5223 39.800276 2140.6875 37.625 C 2140.3952 36.863147 2141.454 34.978548 2143.0625 33.4375 C 2144.6633 31.903848 2145.6278 31.411708 2145.875 31.875 z "/>
</svg>
