<?xml version="1.0" encoding="UTF-8"?>
<svg xmlns="http://www.w3.org/2000/svg" viewBox="1181.22 14.93 40.84 89.52">
  <path d="M 1183.5312 80.0625 L 1183.2188 80.40625 L 1183.375 86.40625 C 1183.6885 86.063377 1184.2539 86.147269 1185.25 86.4375 C 1190.7399 88.037013 1193.5776 88.091306 1195.5 86.65625 C 1197.4168 85.225342 1197.5 83.993094 1197.5 57.15625 C 1197.5 30.264798 1197.5749 29.027641 1199.5938 26.3125 C 1202.1666 22.852359 1206.4137 21.151266 1208.75 22.625 C 1211.0736 24.09064 1217.1338 33.083286 1216.6875 34.40625 C 1216.0928 36.169138 1211.6109 35.734199 1210.1875 33.78125 C 1208.6625 31.688851 1206.6605 31.479902 1205.25 33.25 C 1204.6818 33.963065 1203.9959 45.842969 1203.6562 60.90625 C 1203.0958 85.76046 1202.9281 87.593098 1200.7812 91.875 C 1197.8285 97.763782 1197.9624 97.732006 1189.3125 93.875 C 1187.0051 92.846169 1184.6426 92 1184.0625 92 C 1183.8543 92 1183.6952 91.654559 1183.5312 91.34375 L 1183.6875 96.53125 C 1185.0499 95.878869 1187.6896 96.497547 1193.1875 98.625 C 1197.7214 100.37941 1197.9269 100.38507 1199.9062 98.59375 C 1201.0302 97.576528 1202.8593 94.854165 1203.9688 92.5625 C 1205.7783 88.8246 1206.0433 85.872586 1206.4375 63.9375 C 1206.6792 50.489348 1206.8996 38.7125 1206.9375 37.75 C 1207.0441 35.039559 1209.6362 35.680349 1212 39 C 1213.1749 40.65 1214.5105 42 1214.9688 42 C 1215.4269 42 1216.7654 40.361609 1217.9375 38.375 L 1220.0625 34.78125 L 1217.0625 30.125 C 1213.3382 24.347697 1208.4906 19 1206.9688 19 C 1204.1994 19 1199.7735 22.799788 1197.7188 26.96875 C 1195.6216 31.223372 1195.4962 33.014822 1195.1875 57 C 1194.9709 73.827304 1194.4553 82.924935 1193.7188 83.8125 C 1192.3394 85.474477 1187.3805 84.667735 1184.8125 82.34375 C 1184.2017 81.790927 1183.8134 81.055084 1183.5312 80.0625 z "/>
</svg>
