<?xml version="1.0" encoding="UTF-8"?>
<svg xmlns="http://www.w3.org/2000/svg" viewBox="297.22 15.85 80.19 91.27">
  <path d="M 304.75 65.8125 L 302.9375 71.15625 C 301.14896 76.428677 300.86738 79.025236 301.28125 86.5 C 301.82604 96.339358 302.39159 98.549212 304.625 99.40625 C 306.67075 100.19128 308.58091 95.27882 309.90625 85.75 C 310.49802 81.495313 311.38338 77.214302 311.875 76.25 C 312.36662 75.285698 313.35539 73.2625 314.0625 71.75 C 315.54348 68.582195 318.19037 68.205939 323.53125 70.4375 C 325.77248 71.373945 327 72.577935 327 73.8125 C 327 74.863142 328.33085 78.24313 329.96875 81.3125 L 332.96875 86.875 L 331.0625 91.125 C 328.97029 95.798088 329.40623 97.767101 333.21875 100.4375 C 336.83302 102.96902 342.50563 102.46662 344.9375 99.375 C 347.29431 96.378797 347.51584 94.201103 345.84375 90.53125 C 344.87389 88.402653 345.03114 87.192736 346.8125 83.25 C 347.99004 80.643704 349.32064 76.925 349.78125 75 C 350.67835 71.250829 353.89302 68.906256 357 69.71875 C 358.92593 70.222392 362.746 82.113113 363.75 90.71875 C 364.88521 100.44898 369.84091 97.880272 372 86.4375 C 373.76488 77.084016 372.82085 69.633441 369.28125 65.125 C 367.7206 63.137187 365.67209 60.285018 364.71875 58.78125 C 362.29086 54.951582 358.94467 54.376427 353.71875 56.90625 C 351.33073 58.062269 349.06912 59 348.71875 59 C 347.31711 59 344.14315 45.784917 345 43.53125 C 345.9653 40.992319 350.57976 37 352.5625 37 C 354.11307 37 357.62449 41.704439 358.15625 44.5 C 358.36429 45.593685 359.24377 46.611541 360.125 46.78125 C 362.1092 47.163372 365 41.438322 365 37.125 C 365 33.26594 360.55804 23.029024 358.8125 22.875 C 356.10498 22.636091 353.37493 23.237446 349.5 24.9375 C 341.90717 28.268716 342.03971 28.282626 338.125 24 C 335.88215 21.546355 333.56294 20 332.15625 20 C 328.59784 20 320.17771 27.672615 318.84375 32.125 C 316.65733 39.422591 320.75901 44.110699 328.03125 42.65625 C 330.28716 42.205069 331.18726 42.508514 331.96875 43.96875 C 333.58426 46.98735 333.15434 52.216629 331 55.75 C 328.96645 59.08526 327.60256 59.783986 326.5 58 C 326.15522 57.442141 324.02377 56.050298 321.78125 54.90625 C 318.53467 53.249965 317.24063 53.024964 315.375 53.875 C 314.4904 54.27805 313.71622 54.314022 312.96875 54.3125 L 313 54.9375 L 310.40625 58.34375 C 310.39696 58.767833 310.28667 59.148188 309.96875 59.53125 C 309.62899 59.940636 309.23293 60.179175 308.84375 60.40625 L 304.75 65.8125 z M 332.34375 23.375 C 333.41396 23.649171 334.8814 24.796602 336.78125 26.875 C 338.84856 29.136613 341.44329 31.005373 342.53125 31 C 343.61922 30.994627 346.90163 29.869627 349.84375 28.5 C 352.78586 27.130373 355.84652 26 356.625 26 C 358.9411 26 361.99593 32.115909 362 36.75 C 362.00409 41.402904 360.71854 42.225927 358.875 38.78125 C 357.17338 35.601732 353.89121 33.207843 351.9375 33.71875 C 351.01098 33.96104 348.14205 36.318091 345.53125 38.96875 L 340.78125 43.8125 L 344.03125 54.09375 C 348.65002 68.669692 348.32281 77.51815 342.90625 85.125 C 341.02843 87.762153 340.99755 88.162939 342.4375 90.21875 C 344.30105 92.879345 344.46979 96.155206 342.8125 97.8125 C 339.68003 100.94497 332.59108 97.255219 333.6875 93.0625 C 333.98807 91.913112 334.64139 90.736388 335.125 90.4375 C 336.82761 89.385229 335.96797 84.905604 333 79.34375 C 328.9118 71.682631 329.28524 62.736589 333.96875 56 C 336.78007 51.956301 337.08655 47.893807 334.9375 43.09375 L 333 38.78125 L 328.5625 39.4375 C 324.51211 40.044892 323.95683 39.882939 322.375 37.46875 C 320.72794 34.955018 320.73708 34.653445 322.40625 31.65625 C 324.18943 28.454349 328.46817 24.533698 331.40625 23.40625 C 331.67812 23.301924 331.98701 23.28361 332.34375 23.375 z M 318.75 56 C 320.8789 56.010652 326.04068 60.265131 326.59375 62.46875 C 327.62355 66.571817 326.52225 68.160938 323.46875 67 C 319.34969 65.433937 315.46488 65.825547 313.46875 68.03125 C 311.39339 70.324492 307.04478 82.877323 306.9375 86.875 C 306.84592 90.287817 305.63143 93.28768 304.71875 92.375 C 303.58837 91.244623 303.86614 77.374422 305.125 72.375 C 305.75109 69.888595 307.10109 67.326946 308.125 66.6875 C 309.14892 66.048054 310 65.0037 310 64.375 C 310 63.160344 317.48671 55.993679 318.75 56 z M 358.9375 58.09375 C 360.9476 58.246912 362.38732 59.886033 365.5625 64.65625 C 369.36978 70.376086 369.44946 70.680228 369.46875 79.6875 C 369.48143 85.606315 369.06436 89.341851 368.28125 90.125 C 366.86938 91.536959 366.77553 91.337936 364.9375 83 C 364.27067 79.975 362.8887 75.176393 361.84375 72.34375 C 359.77061 66.723902 357.20957 65.218212 352.6875 66.9375 C 350.52582 67.759369 350.1636 67.569861 349.75 65.40625 C 349.23101 62.691301 352.41761 59.438828 356.65625 58.375 C 357.53794 58.15371 358.26747 58.042696 358.9375 58.09375 z "/>
</svg>
