<?xml version="1.0" encoding="UTF-8"?>
<svg xmlns="http://www.w3.org/2000/svg" viewBox="622.45 60 22.63 43.48">
  <path d="M 626.2,99.8 C 624.45259,98.052595 624.71655,95.636931 627.21733,90.489573 629.09418,86.626447 629.23911,85.612522 628.16117,83.886467 624.8743,78.623354 625.87422,67.233777 629.94672,63.548219 631.6278,62.026861 632.10734,62.004149 634.66143,63.324921 638.67219,65.398962 640.61391,67.861434 642.039,72.681093 643.07951,76.200064 643.01822,77.648119 641.652,81.825097 640.32654,85.877451 640.22221,87.834722 641.08334,92.493032 641.66339,95.630796 641.89605,98.828494 641.60037,99.599029 640.8774,101.48306 638.06649,101.37014 635.85436,99.368201 634.18687,97.859136 633.86393,97.859136 631.56081,99.368201 628.5871,101.31665 627.78153,101.38153 626.2,99.8 z M 632.32645,95.897119 C 634.10399,95.087218 635.31191,95.096564 636.87351,95.932303 638.82755,96.978074 639,96.82137 639,94 639,92.311299 638.26569,89.808935 637.3682,88.439194 635.84142,86.109037 635.85751,85.814927 637.6182,83.869389 638.97885,82.365893 639.5,80.271928 639.5,76.308429 639.5,71.542204 639.13384,70.511872 636.69424,68.413416 632.59267,64.885396 630.23308,65.240646 629.43277,69.506674 628.56665,74.123486 629.72417,81.526195 631.54901,83.040675 633.50475,84.663793 633.37486,86.550778 631.08438,89.790493 628.68744,93.1808 627.52263,97 628.88556,97 629.44674,97 630.99515,96.503704 632.32645,95.897119 z"/>
</svg>
