<?xml version="1.0" encoding="UTF-8"?>
<svg xmlns="http://www.w3.org/2000/svg" viewBox="1310.99 13.11 38.46 89.98">
  <path d="M 1328.1407,94.219274 C 1326.4534,91.589874 1324.332,86.302374 1323.4265,82.469274 1321.3572,73.709852 1321.3733,59.027582 1323.4587,53.116947 1325.3808,47.669311 1325.4552,37.779237 1323.601,34.20034 1322.8316,32.715153 1320.3566,29.794362 1318.101,27.709694 1314.2734,24.172095 1312.9921,21.991323 1314.75,22.006456 1316.3538,22.020262 1325.1381,30.365354 1326.6906,33.350102 1328.7661,37.340061 1328.6093,46.649432 1326.3523,53.444689 1324.3535,59.462426 1324.1405,71.708137 1325.9151,78.577247 1327.802,85.880917 1333.2045,96.103792 1335,95.767943 1339.2802,94.96732 1342.3724,58.422117 1339.4554,43.112855 1338.3861,37.501204 1338.3421,35.314195 1339.2562,33.205746 1341.2333,28.644958 1344.9704,23 1346.0125,23 1347.4478,23 1347.2245,25.699874 1345.7423,26.268663 1345.0505,26.534115 1343.6439,29.089023 1342.6164,31.946236 1340.9522,36.57446 1340.8782,37.946134 1341.9387,44.520156 1344.2981,59.146081 1342.142,90.855944 1338.3872,96.75 1337.4453,98.228544 1335.9689,99 1334.0812,99 1331.746,99 1330.6345,98.105508 1328.1407,94.219274 z M 1326.0324,24.659131 C 1323.8146,21.721654 1322,19.021654 1322,18.659131 1322,17.196785 1324.9041,18.120391 1325.43,19.75 1326.6184,23.432496 1333.9015,29.775387 1334.0416,27.25 1334.0645,26.8375 1335.6395,24.737526 1337.5416,22.58339 1339.8643,19.953011 1341,19.213156 1341,20.330509 1341,22.689894 1334.1325,30 1331.916,30 1330.8488,30 1328.3571,27.738138 1326.0324,24.659131 z"/>
</svg>
