<?xml version="1.0" encoding="UTF-8"?>
<svg xmlns="http://www.w3.org/2000/svg" viewBox="2652.84 17.2 21.56 88.84">
  <path d="M 2672.4062 86.21875 C 2672.2549 86.143957 2671.7633 86.103917 2671.6875 86.03125 C 2671.2327 85.595248 2670.9082 77.880152 2670.9688 68.875 C 2671.0292 59.869848 2670.7504 46.517936 2670.375 39.1875 C 2669.6324 24.688224 2668.7537 22.330701 2664.3438 23.4375 C 2663.0365 23.765591 2661.0401 23.544286 2659.9062 22.9375 C 2656.7255 21.235247 2654.8447 24.299165 2655.5625 30.03125 C 2657.0252 41.711885 2657.4592 53.436818 2657.2812 76.75 L 2657.0938 102 L 2663.5625 102 C 2668.5903 102 2670.2115 101.64654 2670.6875 100.40625 C 2670.9071 99.834016 2671.3154 99.519875 2672.0312 99.34375 L 2671.9062 98.3125 L 2672.0938 94.03125 C 2672.0629 93.982101 2671.9644 93.956431 2671.9375 93.90625 C 2671.0741 92.293006 2671.2002 91.314999 2672.2188 90.71875 L 2672.4062 86.21875 z M 2658.5 26.5 L 2662.4688 26.5 C 2666.1074 26.5 2666.4698 26.758146 2667.0625 29.65625 C 2668.2384 35.405713 2668.2088 97.74099 2667.0312 98.46875 C 2664.8603 99.810436 2661.2264 99.964859 2660.2812 98.75 C 2659.6861 97.985168 2659.6105 94.597449 2660.0938 90 C 2661.184 79.628422 2661.1782 57.274763 2660.0938 51.375 C 2659.5998 48.68743 2659.0373 42 2658.8438 36.5 L 2658.5 26.5 z "/>
</svg>
