<?xml version="1.0" encoding="UTF-8"?>
<svg xmlns="http://www.w3.org/2000/svg" viewBox="2706.14 17.17 57.05 92.19">
  <path d="M 2756.5046,99.818145 C 2757.2529,94.827959 2754.3152,84.87071 2751.1652,81.720766 2749.1974,79.75294 2749.5924,79.677479 2737.4736,84.336502 2732.8652,86.108177 2728.6002,89.544101 2729.401,90.839853 2729.9181,91.676449 2731.062,91.583111 2733.6756,90.491068 2741.2723,87.316958 2745.3214,89.943381 2744.5294,97.531439 2744.3016,99.714148 2744.0893,101.9275 2744.0576,102.45 2743.8925,105.17261 2741.8272,100.67406 2741.5674,97.025752 2741.1892,91.717181 2739.8135,90.841334 2734.8906,92.77509 2731.8921,93.95294 2731,94.847527 2731,96.676441 2731,98.319329 2730.1901,99.357414 2728.3679,100.05022 2725.2149,101.249 2722.8859,100.63634 2720.4769,97.974471 2718.186,95.443072 2716.6144,95.485895 2712.9718,98.178966 2711.3508,99.377397 2709.7302,100.06354 2709.3704,99.703733 2709.0106,99.343924 2709.3426,96.225889 2710.1081,92.774767 2711.9595,84.428595 2711.7753,46.686986 2709.8286,35.5 2708.8639,29.955944 2708.7357,26.655769 2709.4113,24.75 2710.6051,21.38225 2711.0338,21.364972 2715.9769,24.485402 2720.1879,27.143683 2721.9788,29.709279 2722.9634,34.493962 2723.8628,38.864737 2725.9403,38.625727 2731.5283,33.508559 2738.2368,27.365367 2741.485,25.653993 2743.9411,26.968498 2746.5349,28.35664 2752.6331,35.904877 2753.9419,39.347191 2755.2816,42.87083 2755.3189,50.684848 2754,51.5 2753.3935,51.874815 2752.9914,50.422276 2752.978,47.809017 2752.966,45.439058 2752.1077,41.7 2751.0709,39.5 2748.9378,34.974062 2743.552,29 2741.6049,29 2740.8934,29 2737.7453,31.245319 2734.6093,33.989597 2731.4732,36.733876 2728.0282,39.449708 2726.9537,40.024781 2725.8051,40.639506 2725,42.113828 2725,43.602571 2725,45.764399 2725.3291,46.034809 2727.25,45.451321 2728.4875,45.075422 2730.9325,43.695097 2732.6833,42.383934 2737.5021,38.775137 2738.5698,39.269734 2740.9082,46.194172 2743.2323,53.076334 2743.3803,54 2742.1583,54 2741.6953,54 2740.7489,52.0875 2740.055,49.75 2738.15,43.332221 2737.2874,42.659153 2733.9831,45.012002 2732.4476,46.105401 2730.768,47 2730.2506,47 2729.7333,47 2728.6101,47.7875 2727.7548,48.75 2726.3987,50.275901 2726.314,52.729494 2727.0933,67.910195 2727.5849,77.485802 2728.1567,85.490053 2728.3641,85.697418 2728.5715,85.904784 2732.8695,84.257696 2737.9154,82.037223 2748.8781,77.21301 2751.0322,77.061121 2754.2502,80.885442 2758.4567,85.884685 2760.5972,102.65587 2757.1723,103.78192 2756.1402,104.12126 2755.9916,103.23889 2756.5046,99.818145 z M 2727,96.125727 C 2727,95.644876 2726.3851,93.507376 2725.6334,91.375727 2724.766,88.915411 2724.2401,82.752414 2724.1934,74.5 2724.0561,50.219855 2720.8553,32.738952 2715.7622,28.45339 2711.965,25.258248 2710.708,25.343694 2711.3987,28.75 2714.84,45.720686 2716.1666,70.269273 2714.5121,86.361979 L 2713.7038,94.223958 2716.6019,93.604587 C 2718.6291,93.171336 2720.4015,93.586457 2722.5,94.986018 2725.7686,97.165984 2727,97.47785 2727,96.125727 z M 2746.6232,53.813382 C 2746.4237,53.091022 2745.7618,49.846356 2745.1522,46.603014 2744.5427,43.359672 2743.2868,39.869413 2742.3614,38.846883 2740.1264,36.377245 2741.4509,35.193062 2743.9343,37.440553 2746.1822,39.474853 2749,47.083618 2749,51.119122 2749,54.042209 2747.2379,56.039621 2746.6232,53.813382 z M 2748,99.467881 C 2748,97.525216 2747.325,94.32026 2746.5,92.345757 2744.6707,87.96764 2744.6715,88 2746.393,88 2748.6468,88 2751.3511,96.723842 2750.3453,100.75 2749.4783,104.22059 2748,103.41245 2748,99.467881 z"/>
</svg>
