<?xml version="1.0" encoding="UTF-8"?>
<svg xmlns="http://www.w3.org/2000/svg" viewBox="2005.31 27.02 35.92 76.54">
  <path d="M 2009.2812 77.78125 L 2008.7812 81.375 C 2009.9717 82.021612 2010.7907 82.384945 2012.1562 83.21875 C 2014.7137 84.780389 2019.2024 86.757078 2022.125 87.625 C 2027.4325 89.201161 2027.4359 89.196209 2029.5938 86.6875 C 2032.0572 83.823632 2032.9225 76.144906 2033.1875 55 C 2033.2736 48.125 2033.8131 40.925 2034.375 39 L 2035.375 35.5 L 2036.0938 40.5 C 2038.5187 57.39598 2035.4052 88.974136 2030.6562 95.46875 C 2029.3093 97.31097 2028.9594 97.228741 2020.875 93.1875 C 2016.2687 90.884928 2010.7 88.752252 2008.5 88.4375 C 2008.1969 88.39414 2008.0417 88.409223 2007.7812 88.375 L 2007.3125 91.71875 C 2009.8956 91.4594 2013.6191 92.745384 2020.5938 96.25 C 2025.5355 98.733071 2029.3702 100.08502 2030.4062 99.6875 C 2032.8728 98.740999 2035.0113 92.922141 2037.2812 81 C 2038.8886 72.557283 2039.2304 67.10944 2039.0312 53.15625 C 2038.7672 34.654075 2038.1881 30.5 2035.9375 30.5 C 2032.8615 30.5 2031.5992 36.118324 2031.3438 51 C 2030.9996 71.062299 2030.0973 83.170692 2028.8125 84.71875 C 2027.1589 86.711234 2021.7667 85.290926 2014.0312 80.8125 C 2011.6627 79.441218 2010.3104 78.587009 2009.2812 77.78125 z "/>
</svg>
