<?xml version="1.0" encoding="UTF-8"?>
<svg xmlns="http://www.w3.org/2000/svg" viewBox="853.13 18.27 27.5 88.45">
  <path d="M 855.125 27.125 L 855.125 29.96875 L 855.1875 30.84375 C 855.77107 30.05852 856.55965 29.269656 857.90625 28.1875 C 861.24178 25.506995 861.96891 25.257612 863 26.5 C 864.54642 28.363318 865.44597 38.400049 865.375 53.09375 C 865.32706 63.018486 864.99506 65.382847 863.0625 69.375 C 861.23467 73.150777 860.94066 75.011658 861.4375 79.25 C 862.45013 87.888331 862.35366 89.307256 860.4375 94.15625 C 858.92594 97.981389 858.81859 99.070856 859.875 100.34375 C 861.03225 101.73816 861.49295 101.74502 864.5625 100.28125 C 867.40795 98.924349 868.35152 98.840036 870.34375 99.90625 C 875.55611 102.69582 878.62865 99.022503 875.71875 93.46875 C 874.5377 91.214644 874.55915 90.033445 875.71875 85.65625 C 877.56786 78.676377 876.6292 74.562533 872.125 69.875 C 868.48488 66.086716 868.37146 65.765356 868.25 58.25 C 867.9966 42.570182 866.7224 28.439256 865.34375 25.75 C 863.60254 22.353527 861.9999 22.287116 858.21875 25.46875 C 856.69874 26.747758 855.76425 27.241883 855.125 27.125 z M 867.875 69.875 C 868.56396 70.119757 869.32596 70.678974 870.3125 71.59375 C 873.52819 74.575509 874.44376 77.751031 873.53125 82.75 C 872.51569 88.313498 872.49758 93.27358 873.46875 95.40625 C 874.25381 97.130241 874.0117 97.217374 870.6875 96.59375 C 868.59743 96.20165 866.15413 96.382329 865 97 C 863.32804 97.894807 863 97.77554 863 96.28125 C 863 95.291254 863.88521 92.802901 864.96875 90.78125 C 866.89877 87.180263 866.9041 87.034336 865.09375 82.8125 C 862.92284 77.749836 863.3403 71.42123 865.9375 70.03125 C 866.57123 69.69209 867.18604 69.630243 867.875 69.875 z "/>
</svg>
