<?xml version="1.0" encoding="UTF-8"?>
<svg xmlns="http://www.w3.org/2000/svg" viewBox="2763.03 20.17 58.31 92.67">
  <path d="M 2818.6875 72.15625 L 2818.5625 68.9375 L 2814.375 66.59375 C 2811.8271 65.169728 2808.7175 64 2807.4688 64 C 2804.5158 64 2799 70.277007 2799 73.625 C 2799 75.022974 2800.6109 79.863358 2802.5625 84.40625 L 2806.0938 92.6875 L 2803.375 96.84375 C 2800.2363 101.63776 2798.3989 102.31696 2799.5938 98.25 C 2801.0657 93.240085 2800.3863 89.58369 2797.0938 84.75 C 2795.3141 82.1375 2793.4518 80 2792.9688 80 C 2791.9988 80 2787.919 85.216491 2786.0625 88.8125 C 2785.1622 90.556331 2785.1652 91.938186 2786.0312 94.5625 C 2787.9169 100.27576 2786.647 100.49785 2783.125 95.0625 L 2779.8125 89.9375 L 2783.9062 83.15625 C 2786.1579 79.429688 2788.0158 75.954438 2788.0312 75.4375 C 2788.0713 74.10559 2781.7024 61.632058 2780.5625 60.8125 C 2778.1007 59.042572 2775.5316 62.361651 2771.1562 73 C 2770.2902 75.105732 2770.1195 74.493659 2770.0625 69.1875 C 2769.9386 57.661136 2774.4734 53.61311 2782.625 57.9375 C 2784.9633 59.177952 2787.3072 59.925299 2787.8438 59.59375 C 2789.0562 58.844381 2788.6509 46.501818 2787.1562 38.53125 C 2786.1162 32.985225 2786.1804 32.417713 2788.1875 30.28125 C 2790.8777 27.417596 2791.1891 27.451113 2794.8125 30.5 L 2797.75 32.96875 L 2796.4688 39.25 C 2794.8613 46.999045 2794.5411 52.51624 2795.5 56.75 C 2796.2933 60.252738 2797.4208 60.744528 2799.9062 58.6875 C 2800.7745 57.968849 2802.7044 56.88116 2804.1875 56.25 C 2806.638 55.207166 2807.3391 55.437916 2811.6875 59.03125 C 2814.3193 61.206061 2816.7467 63 2817.0938 63 C 2817.1919 63 2818.0187 62.348584 2818.3438 62.15625 L 2818.25 58.65625 C 2816.9769 58.982686 2815.4016 58.129512 2812.0938 55.5 C 2809.6788 53.580338 2807.3073 52 2806.8125 52 C 2806.3176 52 2804.6193 52.950921 2803.0312 54.125 C 2798.8041 57.250207 2796.9965 56.080311 2797.0938 50.28125 C 2797.1379 47.651488 2797.9252 43.25 2798.8438 40.5 C 2800.4766 35.61177 2800.5897 35.5 2804.5 35.5 C 2809.7982 35.5 2811 34.547549 2811 30.40625 C 2811 27.683421 2810.466 26.708264 2808.5 25.8125 C 2805.9532 24.652094 2803.9795 25.205529 2799.7812 28.21875 C 2798.3702 29.231585 2797.6714 29.053197 2795.7188 27.21875 C 2792.7046 24.387138 2791.4573 24.433069 2787.8125 27.5 L 2784.8438 30 L 2781.5625 27.46875 C 2778.8447 25.395738 2777.7982 25.135032 2775.6875 25.9375 C 2770.7599 27.810972 2769.8254 33.746942 2774.0938 36.03125 C 2775.4271 36.744881 2777.1989 36.758292 2779.7188 36.0625 C 2781.7424 35.503768 2783.5889 35.27643 2783.8438 35.53125 C 2785.3291 37.016668 2786.6206 54.035718 2785.3438 55.3125 C 2784.9844 55.671877 2783.2068 55.038368 2781.375 53.90625 C 2779.5432 52.774131 2777.0651 52.010592 2775.875 52.1875 C 2772.4133 52.702055 2768.123 58.894587 2767 65.03125 C 2765.6764 72.26375 2767.5368 80.5 2770.4688 80.5 C 2771.9508 80.5 2772.6166 79.531904 2773.2188 76.5 C 2774.352 70.794432 2776.9907 64 2778.0938 64 C 2779.3884 64 2785 73.013042 2785 75.09375 C 2785 76.023397 2783.2 79.455474 2781 82.75 C 2778.8 86.044526 2777 89.433602 2777 90.25 C 2777 91.066397 2778.1313 93.358071 2779.5 95.375 C 2780.8687 97.391928 2782.6546 100.39642 2783.5 102.03125 C 2786.9132 108.63178 2790.9903 103.79644 2789 95.5 C 2787.7621 90.339746 2788.0777 89.029834 2791.7188 84.0625 C 2792.1191 83.516165 2794.6148 86.720633 2796.5312 90.21875 C 2797.7704 92.480606 2797.8257 93.680289 2796.8125 97.46875 C 2795.7795 101.33106 2795.8231 102.22939 2797.125 103.53125 C 2799.2867 105.69298 2801.7488 104.41149 2804.0312 99.9375 C 2805.1 97.842651 2806.4422 95.844776 2807 95.5 C 2808.6732 94.465911 2808.1592 91.452885 2805 83.5 C 2801.3535 74.320521 2801.2533 71.809226 2804.4688 68.59375 L 2806.9688 66.125 L 2813 69.25 L 2818.6875 72.15625 z M 2804.9375 28.3125 C 2806.4589 28.017604 2808 28.873151 2808 30.40625 C 2808 32.258818 2807.097 32.687969 2804.25 32.21875 C 2801.6379 31.788241 2801.4021 30.741098 2803.5 29 C 2803.9483 28.627947 2804.4304 28.410799 2804.9375 28.3125 z M 2778.9062 29.21875 C 2779.4925 29.354903 2780.0719 29.665973 2780.625 30.125 C 2782.005 31.27024 2782.0002 31.521993 2780.4062 32.6875 C 2777.4822 34.825644 2774.8171 34.346717 2775.1875 31.75 C 2775.4674 29.788316 2777.1476 28.810291 2778.9062 29.21875 z "/>
</svg>
