<?xml version="1.0" encoding="UTF-8"?>
<svg xmlns="http://www.w3.org/2000/svg" viewBox="1387.27 16.88 51.05 83.95">
  <path d="M 1410.3354,96.000431 C 1409.1449,95.520393 1407.7949,94.456337 1407.3354,93.635861 1406.2,91.608303 1398.3471,86 1396.6435,86 1395.8879,86 1394.084,85.067339 1392.6349,83.92742 1390.4972,82.245946 1390,81.019363 1390,77.42742 1390,72.388197 1390.6898,72.122333 1398.4082,74.186698 1404.3586,75.778167 1406,74.43123 1406,67.957048 L 1406,63.158986 1398.5,59.402114 C 1390.4373,55.363369 1389.5928,53.831365 1391.9752,47.5651 1393.245,44.225447 1394.0575,44.318529 1400.1363,48.5 1406.0405,52.56138 1406.5893,52.678562 1407.2829,50.026076 1408.2342,46.388551 1405.9188,39.574216 1401.9419,34.306856 1399.7739,31.435283 1398.0022,28.504006 1398.005,27.792907 1398.0077,27.081808 1399.1308,25.15 1400.5007,23.5 1402.6627,20.895939 1403.1583,20.697969 1404.2557,22 1406.2237,24.334861 1413.7658,30 1414.9062,30 1415.4691,30 1416.4612,28.9875 1417.1108,27.75 1417.7604,26.5125 1418.9013,25.140139 1419.646,24.70031 1420.3907,24.26048 1421,23.24798 1421,22.45031 1421,21.652639 1421.8303,21 1422.845,21 1425.0106,21 1428,24.001063 1428,26.175103 1428,28.349667 1425.1394,33.906403 1421.8385,38.143904 1419.0416,41.734345 1418.4524,44.754947 1419.855,48.311779 1420.5054,49.961076 1420.915,49.848974 1424.4223,47.061779 1426.5413,45.377801 1428.6847,44 1429.1855,44 1430.652,44 1434.9339,49.343525 1434.9684,51.216667 1435.0113,53.549054 1428.5035,59.891667 1424.2394,61.673344 L 1420.7686,63.123544 1421.1966,69.040726 C 1421.432,72.295177 1421.8999,75.233218 1422.2364,75.569708 1422.5729,75.906197 1425.1337,75.03356 1427.9271,73.630514 L 1433.006,71.079522 1434.6065,73.522188 C 1435.838,75.40169 1436.0027,76.828881 1435.3207,79.712492 1434.3963,83.621394 1434.1564,83.802616 1424.25,88.076752 1421.3625,89.32257 1419,90.735407 1419,91.216392 1419,92.344899 1414.338,97.019691 1413.2955,96.936614 1412.858,96.901751 1411.5259,96.480469 1410.3354,96.000431 z M 1406.2459,83.222292 C 1405.9205,81.004869 1404.7101,79.957884 1399.8116,77.656468 1393.4067,74.647311 1391.2398,75.029427 1392.4837,78.948674 1392.9067,80.281531 1395.1762,81.987657 1398.455,83.437693 1401.3639,84.724153 1404.0828,86.324995 1404.497,86.995119 1405.639,88.842971 1406.7266,86.496952 1406.2459,83.222292 z M 1407,56.538808 C 1407,54.800761 1406.1718,53.906942 1403.793,53.077691 1402.0292,52.462813 1399.5179,50.956292 1398.2124,49.729866 1395.8786,47.537385 1395.815,47.532544 1394.4194,49.44113 1392.1108,52.598357 1392.688,53.505311 1399.1159,56.820472 1405.7071,60.219777 1407,60.173586 1407,56.538808 z M 1415.5477,92.922883 C 1415.9138,92.330469 1416.8817,89.067969 1417.6985,85.672883 1419.4364,78.449891 1419.549,66.076865 1418.0047,52.042347 1416.7859,40.966781 1416.9186,40.434827 1422.6555,33.397008 1426.0708,29.207161 1427.072,25 1424.6538,25 1423.9134,25 1421.4647,27.025 1419.2122,29.5 1416.9598,31.975 1414.7276,34 1414.2518,34 1413.7761,34 1411.1991,31.962721 1408.5253,29.472713 1405.8514,26.982705 1403.1769,25.107495 1402.5819,25.305579 1400.3664,26.043117 1400.9357,29.162789 1403.9025,32.54177 1410.5806,40.147646 1410.5055,39.536838 1408.5675,70.5 1408.2104,76.205037 1410.0067,91.267764 1411.2209,92.75 1412.4784,94.285032 1414.6521,94.371888 1415.5477,92.922883 z M 1426.9546,57.25 C 1431.9497,53.799798 1432.8581,51.413649 1430.1916,48.747181 L 1428.1739,46.729424 1424.6386,48.914363 C 1420.6834,51.358759 1419.6104,53.599589 1420.568,57.414958 1421.383,60.662073 1422.0393,60.64512 1426.9546,57.25 z M 1425.1008,84.917566 C 1431.5243,82.872073 1433.0007,81.779112 1432.9847,79.08102 1432.9557,74.201817 1431.8368,73.776909 1426.1901,76.500942 1423.3355,77.878026 1420.9666,79.566166 1420.9257,80.252365 1420.8848,80.938564 1420.6626,82.5125 1420.432,83.75 1419.9545,86.311242 1420.3856,86.419045 1425.1008,84.917566 z"/>
</svg>
