<?xml version="1.0" encoding="UTF-8"?>
<svg xmlns="http://www.w3.org/2000/svg" viewBox="1586.74 16.71 60.71 87.26">
  <path d="M 1635.9375,30.65625 C 1636.4051,30.746945 1636.985,30.944162 1637.6562,31.25 1639.2994,31.998722 1639.9799,33.023382 1639.7812,34.40625 1639.2274,38.260489 1634,36.961977 1634,32.96875 1634,31.102031 1634.5346,30.384165 1635.9375,30.65625 z M 1604.875,27.65625 C 1606.4889,28.237757 1608.7747,30.439346 1608.3438,31.5625 1608.043,32.345992 1606.7224,33 1605.4062,33 1603.5659,33 1603,32.450653 1603,30.65625 1603,29.372916 1603.287,28.05679 1603.625,27.71875 1603.8956,27.448138 1604.337,27.462414 1604.875,27.65625 z M 1592.9062,85.46875 1591.875,88.96875 C 1601.4566,94.598219 1608.4468,88.171138 1613.1875,69.1875 1613.8309,66.610921 1614.3991,56.965555 1614.4375,47.75 L 1614.5,31 1618,28 C 1619.925,26.354345 1622.04,25.001291 1622.6875,25 1623.335,24.99871 1625.2286,26.652201 1626.9062,28.6875 L 1629.9688,32.40625 1627.5938,36.4375 C 1624.9234,41.029088 1623.3433,47.943872 1623.0938,56 1622.7348,67.589337 1616.6545,86.101609 1611.1562,92.375 1610.246,93.413409 1608.0383,94.899443 1606.25,95.65625 1602.6333,97.186837 1596.6003,96.134171 1590.6562,93.09375 L 1589.5,96.90625 C 1592.9096,98.441483 1599.426,100 1603.3438,100 1607.8239,100 1608.6754,99.619873 1612,96.125 1619.0333,88.731459 1624.2263,71.917964 1625.625,52 1626.5186,39.275798 1629.1596,35.456432 1634.8438,38.71875 1637.704,40.360243 1637.9558,40.355943 1639.9375,38.5625 1644.6923,34.259469 1640.9911,27.264204 1634.5312,28.3125 1631.5812,28.791231 1630.7017,28.453137 1628.9688,26.25 1624.7356,20.868309 1623.6887,20.673371 1618.875,24.5 1613.7171,28.600207 1612.8367,28.702015 1607.1875,25.75 1602.9399,23.530427 1602.8552,23.524981 1601.4375,25.4375 1599.156,28.515372 1599.6124,33.699548 1602.3125,35.46875 1604.2234,36.720801 1605.1567,36.764213 1607.8438,35.75 1610.5257,34.737686 1611.2387,34.787518 1611.9688,35.96875 1613.1976,37.957066 1612.5317,60.133958 1611,68 1609.4643,75.886546 1605.3539,84.725989 1602.3125,86.71875 1599.8359,88.341564 1596.0979,87.7729 1592.9062,85.46875 z"/>
</svg>
