<?xml version="1.0" encoding="UTF-8"?>
<svg xmlns="http://www.w3.org/2000/svg" viewBox="2453.2 19.96 28.76 88.56">
  <path d="M 2455.5272,102.04402 C 2455.2022,101.51823 2455.592,99.518798 2456.3934,97.60084 2459.7261,89.624717 2460.311,80.537722 2459.1037,55.5 2458.4672,42.3 2457.6842,29.8125 2457.3638,27.75 2456.8253,24.283824 2456.9655,24 2459.2163,24 2460.5556,24 2462.7083,25.125 2464,26.5 2466.9644,29.655444 2467.7187,29.629701 2471.3249,26.25 2473.5464,24.168022 2474.0073,23.988552 2473.2222,25.511189 2472.6519,26.617343 2471.2436,28.374587 2470.0926,29.416176 2467.5704,31.698773 2467.5421,32.234118 2469.6518,37.758248 L 2471.3036,42.083361 2474.1518,39.354589 C 2477.861,35.800912 2477.7995,37.202714 2474.0378,41.952247 2471.1226,45.63297 2471.0852,45.833554 2471.6809,54.596151 2472.2486,62.946868 2472.4792,63.673397 2475.3931,66.291205 L 2478.5,69.082411 2475.25,68.46175 2472,67.841089 2472,73.2981 C 2472,76.928825 2472.502,79.171735 2473.5,80 2475.0849,81.315311 2475.5547,84 2474.2,84 2473.76,84 2472.9108,83.51079 2472.3129,82.912868 2471.0345,81.634452 2470.2687,82.576218 2469.0056,86.980462 2468.4003,89.091022 2468.5602,90.220014 2469.5848,91.070336 2471.6402,92.776233 2471.3184,94.235845 2469.0459,93.514565 2467.5312,93.033807 2466.5226,93.795954 2464.5605,96.904181 2461.2924,102.08119 2457.0441,104.49842 2455.5272,102.04402 z M 2464.4289,91.354773 C 2465.843,88.524898 2467,85.457815 2467,84.539032 2467,83.620249 2467.4738,81.983143 2468.053,80.901018 2470.0023,77.258681 2469.7245,57.462544 2467.5,41.5 2466.8491,36.829549 2463.0553,28.757763 2461.2551,28.21327 2460.2875,27.920593 2460.1761,29.914892 2460.7551,37.16837 2461.7778,49.980291 2461.6937,86.28127 2460.6258,93 2459.5961,99.477816 2460.5832,99.050828 2464.4289,91.354773 z M 2475.3058,52.468399 C 2476.8489,51.110779 2478.6489,50.016183 2479.3058,50.035963 2479.9626,50.055743 2479.15,51.178507 2477.5,52.530996 2473.5875,55.738048 2471.652,55.682833 2475.3058,52.468399 z"/>
</svg>
