<?xml version="1.0" encoding="UTF-8"?>
<svg xmlns="http://www.w3.org/2000/svg" viewBox="1087.82 17.82 40.99 85.04">
  <path d="M 1106.7188 21.84375 C 1103.8351 22.310157 1100.2902 24.947777 1098.75 28.21875 C 1096.788 32.385583 1097.3069 34.4701 1101.4688 39.5625 L 1103.9375 42.59375 L 1101.4062 47.375 C 1100.0084 50.000778 1097.3267 54.181273 1095.4375 56.65625 C 1090.0492 63.715267 1089.8157 67.088113 1094.1875 74 C 1096.7367 78.030396 1099.9127 86.568947 1099.9688 89.5 C 1099.9898 90.6 1100.4897 93.1875 1101.0625 95.25 C 1101.9629 98.492134 1102.5005 99 1105.0312 99 C 1110.9248 99 1112.8898 88.449532 1108.9375 78 C 1106.6993 72.082419 1105 66.875126 1105 65.90625 C 1105 65.574045 1107.5093 61.302676 1110.5938 56.40625 C 1113.6782 51.509824 1116.8093 45.558912 1117.5312 43.1875 C 1118.2532 40.816088 1120.4799 36.464365 1122.5 33.53125 C 1126.8038 27.282398 1126.794 24.644556 1122.4688 24.21875 C 1120.031 23.978777 1119.1495 24.493886 1117.6875 26.96875 C 1116.6981 28.643656 1115.542 30 1115.125 30 C 1114.7079 30 1113.6213 28.455124 1112.7188 26.5625 C 1111.8161 24.669876 1110.2681 22.682088 1109.2812 22.15625 C 1108.5639 21.773969 1107.68 21.688281 1106.7188 21.84375 z M 1106.1562 24 C 1107.9441 24 1111.0953 28.710007 1111.6562 32.21875 C 1112.016 34.467854 1112.8102 36 1113.625 36 C 1114.3797 36 1115 35.562112 1115 35.03125 C 1115 33.743364 1120.9552 27 1122.0938 27 C 1123.7146 27 1123.0279 29.262228 1120.3438 32.78125 C 1118.8913 34.685588 1116.8498 38.552423 1115.7812 41.375 C 1114.7128 44.197577 1111.7432 49.65 1109.1875 53.5 C 1103.1419 62.607182 1101.8456 66.243421 1103.2188 70.34375 C 1103.7998 72.078966 1104.8958 74.210783 1105.6562 75.09375 C 1107.3284 77.035336 1108.5343 88.361919 1107.5938 93.375 C 1107.2204 95.365209 1106.6064 96.949671 1106.2188 96.90625 C 1104.0621 96.664645 1103.4044 95.662149 1103.7812 93.09375 C 1104.3529 89.199296 1099.4267 75.344749 1096 71.1875 C 1094.1371 68.92755 1093.424 67.104494 1093.7812 65.65625 C 1094.0747 64.466461 1097.1636 59.231576 1100.6562 54 C 1104.1487 48.768424 1107 43.864277 1107 43.125 C 1107 42.385724 1105.5926 40.012378 1103.875 37.84375 C 1101.232 34.506648 1100.8358 33.348248 1101.3438 30.21875 C 1101.8846 26.885766 1104.1197 24 1106.1562 24 z "/>
</svg>
