<?xml version="1.0" encoding="UTF-8"?>
<svg xmlns="http://www.w3.org/2000/svg" viewBox="483.85 16.88 60.54 84.89">
  <path d="M 516.74536,95.803655 C 513.45106,93.871568 512.58411,93.748611 509.67436,94.80079 502.49072,97.398429 500.47194,95.330365 506.96016,92.020324 511.96912,89.464946 512.2127,89.477912 517.09465,92.559751 522.49443,95.968482 525.02705,95.469171 527.4424,90.519667 529.41119,86.485258 532.9779,73.058438 532.9922,69.627555 533.00558,66.415772 530.15613,69.700168 528.87898,74.368627 528.25735,76.640882 527.13028,79.918008 526.37438,81.651129 525.61847,83.38425 525,85.227006 525,85.746142 525,86.265277 524.19978,87.414214 523.22173,88.299335 521.58109,89.784092 521.11673,89.74271 517.22173,87.764642 512.52729,85.380573 512.11866,84.049404 514.88561,80.15437 520.15976,72.729947 521.20923,65.726546 517.95695,59.658499 516.5935,57.114588 516.16247,55.123695 516.66116,53.673309 517.07215,52.477989 517.42902,49.925 517.4542,48 517.49455,44.916858 517.83593,44.461502 520.32055,44.17677 521.87186,43.998993 524.54345,44.342399 526.25743,44.939895 528.48962,45.718041 529.67537,45.719718 530.43687,44.945805 531.76451,43.596538 528.57493,41.006854 525.55887,40.985258 522.65964,40.964499 518.5,38.691202 518.5,37.127494 518.5,36.405102 520.075,35.228905 522,34.513723 523.925,33.798542 526.94715,32.622517 528.71589,31.900335 531.65213,30.701457 532.14043,30.783299 534.33131,32.841524 L 536.73085,35.095771 537.3568,31.966023 C 538.0338,28.58102 536.66942,24.991137 534.71482,25.014553 532.54709,25.040522 524.54183,28.117154 522.97944,29.524771 522.14313,30.278232 520.34851,31.305449 518.9914,31.807477 516.8191,32.611063 515.9781,32.138866 511.96101,27.860127 509.4514,25.187057 506.86889,23 506.22209,23 504.39882,23 501.87497,27.513279 501.29966,31.802561 500.84946,35.159063 501.14903,35.972065 503.52456,37.84066 505.0344,39.028297 507.32247,40 508.60918,40 512.92349,40 515.33038,49.025856 513.12274,56.925861 512.17211,60.327645 510.72131,60.47782 507.2255,57.536292 500.90735,52.219915 495.46579,53.384701 492.36198,60.717881 490.49956,65.118132 490.5836,65.266691 493.95034,63.52568 497.93554,61.464851 498.04252,61.488509 503.46696,65.630378 L 508.22152,69.260757 507.78604,75.281235 C 507.32488,81.656743 507.47574,81.439719 498.8728,88.103394 496.08635,90.261722 495.72297,90.961275 496.74721,92.195403 498.18566,93.928633 497.44256,95 494.80195,95 490.17587,95 492.72335,87.204098 498.26693,84.396338 503.82622,81.580616 505,80.020756 505,75.448605 505,71.831483 504.47055,70.742321 501.40297,68.048954 496.98749,64.172105 495.08516,64.430682 492.5,69.259101 490.12659,73.692033 489.28994,73.892805 487.9439,70.352435 486.60174,66.822293 489.19014,58.991967 493.21427,54.408741 496.75854,50.372039 500.72926,49.927858 505.77417,53.003738 507.57496,54.101682 509.48746,55 510.02417,55 511.15269,55 511.32999,46.051892 510.23469,44.375632 509.83061,43.75723 508.07306,42.941784 506.32902,42.563531 501.54428,41.525804 497.98501,37.745355 498.07608,33.797749 498.194,28.686341 500.4111,23.646041 503.24597,22.04468 505.5537,20.741089 506.17926,20.781595 509.24611,22.433203 511.1292,23.447317 513.53168,25.563417 514.58496,27.135648 516.89422,30.582705 517.32156,30.621573 521.33945,27.75 524.48261,25.503594 529.46589,23.319507 533.78504,22.295302 539.19129,21.013313 541.636,28.568864 538.94742,38.25 537.60865,43.070683 536.23077,42.997071 534.26786,38 532.5538,33.636408 530.10658,32.848155 526.573,35.521471 524.25053,37.27853 524.47021,37.551438 529.54052,39.208004 534.18752,40.726267 535.09262,43.429098 532.16484,47.044758 530.44466,49.169093 529.9454,49.296154 527.57042,48.214039 522.59427,45.946752 521.29198,46.567249 520.54291,51.562428 520.09995,54.516265 520.26845,56.618533 521.02081,57.525069 521.65995,58.295187 522.42398,61.584194 522.71866,64.833973 523.20105,70.153867 522.92276,71.36496 519.92594,76.987568 516.71267,83.016278 516.66296,83.280379 518.48985,84.616237 521.76835,87.013537 522.68812,86.191897 525.05671,78.75 529.28103,65.47753 535.57871,59.274312 535.44058,68.521869 535.32083,76.53912 533.13192,86.638004 530.35174,92 527.79141,96.937965 527.14234,97.52584 524,97.752865 521.81415,97.910786 519.09024,97.178912 516.74536,95.803655 z"/>
</svg>
