<?xml version="1.0" encoding="UTF-8"?>
<svg xmlns="http://www.w3.org/2000/svg" viewBox="982.47 15.07 39.53 50.8">
  <path d="M 991.8125 63.5625 C 994.06079 61.234739 996.29143 58.374596 997.9375 55.5 C 1002.811 46.989233 1003.2925 46.545164 1005.875 48.125 C 1007.8525 49.334708 1008.3018 49.262703 1009.5625 47.5625 C 1010.347 46.504446 1011.2689 44.085255 1011.625 42.1875 C 1012.0418 39.965774 1013.6361 37.498577 1016.125 35.25 C 1019.1368 32.528982 1020 31.02797 1020 28.4375 C 1020 23.897783 1018.8213 23.531955 1015.4688 27.03125 C 1013.9068 28.661693 1012.2794 30 1011.875 30 C 1011.4705 30 1010.6367 28.429222 1010 26.5 C 1008.2327 21.145157 1006.1041 20.542025 1000.75 23.9375 C 995.70049 27.139785 994 26.621783 994 21.8125 C 994 17.379233 991.16107 18.355065 988.84375 23.59375 C 987.12172 27.486679 987.00691 28.620765 988.03125 31.09375 C 988.99961 33.431565 988.98069 34.330385 987.90625 35.625 C 986.7546 37.012662 986.93953 37.539502 989.21875 39.5 C 990.67645 40.753864 992.46307 41.998004 993.1875 42.25 C 994.11515 42.57269 993.31717 44.435956 990.5 48.53125 C 987.66949 52.645932 986.09161 54.742502 984.46875 55.34375 L 986.15625 57.25 C 988.30868 55.508321 990.86665 52.546869 993.71875 48.25 C 997.49846 42.555633 997.45849 40.633118 993.53125 38.84375 C 992.14082 38.210226 991 37.23186 991 36.6875 C 991 35.288219 999.79199 27.178276 1003.2188 25.40625 C 1006.0408 23.946845 1006.0846 23.974939 1007.5312 27.4375 C 1009.2138 31.464143 1009.5278 43.567738 1007.9688 44.53125 C 1007.3947 44.886059 1006.2627 44.627631 1005.4688 43.96875 C 1003.1517 42.045793 1001.4004 43.449653 997.5625 50.3125 C 995.30808 54.343773 992.43468 58.364988 989.84375 61.34375 L 991.8125 63.5625 z M 991.3125 21.6875 L 992.46875 25.09375 C 993.20525 27.245981 993.2804 28.959066 992.6875 29.75 C 990.31482 32.91519 988.57048 29.513594 990.1875 24.875 L 991.3125 21.6875 z M 1016.75 29.40625 C 1016.993 29.475852 1016.9653 29.89376 1016.8125 30.6875 C 1016.6218 31.677611 1015.7062 32.628355 1014.75 32.8125 C 1012.3646 33.27189 1012.5606 31.769538 1015.0938 30.1875 C 1016.0132 29.613323 1016.507 29.336648 1016.75 29.40625 z "/>
</svg>
