<?xml version="1.0" encoding="UTF-8"?>
<svg xmlns="http://www.w3.org/2000/svg" viewBox="158 16.91 31.91 88.32">
  <path d="M 185.875,90.59375 C 184.71513,90.981576 183.71895,90.329741 182,88.5 180.70825,87.125 179.0999,86 178.4375,86 175.77283,86 174.90183,80.187528 174.90625,62.90625 174.91089,44.789596 174.48086,40 172.90625,40 171.58437,40 171.86395,78.622068 173.21875,83.25 173.95656,85.77035 175.77036,88.129889 178.8125,90.5 181.29295,92.4325 184.09156,94 185.03125,94 185.33726,94 185.92596,93.592898 186.4375,93.28125 L 185.875,90.59375 z M 168.4375,21.125 C 168.15739,20.922089 167.35123,21.515546 166,23.09375 164.0208,25.405411 160,32.367004 160,33.46875 160,35.501112 162.40077,33.090838 165.53125,27.9375 167.90694,24.026688 168.90436,21.463185 168.4375,21.125 z M 163.6875,37.3125 C 162.81859,37.047037 162.3046,38.605695 162.9375,40.8125 163.37859,42.350493 163.84244,51.320907 163.9375,60.75 164.08096,74.97807 163.76261,79.372884 162.0625,86.53125 160.93582,91.275174 160,95.812176 160,96.59375 160,98.625525 162.78423,98.339615 163.375,96.25 165.86716,87.435059 166.87248,41.749344 164.65625,38.21875 164.31681,37.678004 163.97714,37.400988 163.6875,37.3125 z M 187.375,97.90625 C 187.35608,97.909175 187.26656,98 187.25,98 186.38215,98 183.26738,96.65 180.34375,95 177.42011,93.35 174.15989,92 173.09375,92 170.66164,92 165,96.680406 165,98.6875 165,99.784891 165.81158,99.487769 168.0625,97.59375 169.75469,96.169858 171.50721,95 171.9375,95 172.3678,95 175.35374,96.356967 178.59375,98 183.78231,100.63116 185.75405,101.2144 187.90625,100.46875 L 187.375,97.90625 z"/>
</svg>
