<?xml version="1.0" encoding="UTF-8"?>
<svg xmlns="http://www.w3.org/2000/svg" viewBox="2078 17.98 40 88.35">
  <path d="M 2108.5625 81.0625 C 2108.1347 80.10779 2108 79.026631 2108 77.34375 C 2108 75.051848 2107.0737 70.994562 2105.9375 68.34375 C 2103.6953 63.113128 2103.3703 59.213269 2104.5 51 C 2105.466 43.976303 2107.061 40.356657 2111.9375 34.1875 C 2114.1656 31.36872 2116 28.397478 2116 27.59375 C 2116 26.790022 2114.6955 25.203076 2113.0938 24.0625 L 2110.1875 22 L 2106.5938 26.25 L 2103.0312 30.5 L 2099.0625 26.25 C 2096.8787 23.9125 2094.8594 22 2094.5938 22 C 2094.3281 22 2092.5083 22.945738 2090.5625 24.09375 C 2087.0882 26.14367 2087.0659 26.229047 2088.5312 29.0625 C 2089.3517 30.649311 2091.0863 33.507158 2092.375 35.40625 C 2094.4698 38.493121 2094.6697 39.692256 2094.25 46.6875 C 2093.9917 50.991086 2093.3858 54.922284 2092.9062 55.4375 C 2092.3767 56.006599 2091.1016 55.516 2089.6875 54.1875 C 2088.4073 52.984784 2086.8326 52 2086.1875 52 C 2084.9772 52 2080 59.191161 2080 60.9375 C 2080 61.478093 2082.5875 63.185913 2085.75 64.71875 L 2091.5 67.5 L 2091.3438 72.5 C 2091.2609 75.25 2090.8868 79.746004 2090.5 82.5 C 2089.6294 88.698895 2091.303 95.396613 2094.5312 98.625 C 2098.2237 102.31746 2102.5103 101.74039 2104.875 97.25 C 2105.532 96.002377 2106.2204 95.429636 2107.2188 95.3125 L 2107.1875 95 L 2107.5625 89.71875 C 2107.2998 89.219721 2107.0014 88.719687 2107 88.25 C 2106.9966 87.117198 2107.3105 86.548533 2107.8125 86.3125 L 2108.125 81.8125 L 2108.5625 81.0625 z M 2093.4062 26 C 2095.0362 26 2097.3626 28.076781 2099.6875 31.625 C 2101.823 34.884123 2102.8924 34.618035 2107.0312 29.8125 C 2109.2211 27.269991 2111.0912 25.929244 2111.8125 26.375 C 2113.7552 27.575669 2113.209 29.209496 2108.9375 34.84375 C 2103.7765 41.651141 2103.3416 42.823856 2102.0938 54 C 2101.1591 62.372396 2101.2668 63.629312 2103.0312 67.28125 C 2104.1021 69.497505 2105.2188 72.703305 2105.5312 74.40625 C 2106.2902 78.542504 2104.3615 94.840337 2102.9062 96.59375 C 2101.1232 98.742219 2098.3477 98.271684 2096.0938 95.40625 C 2093.4496 92.044796 2092.5509 87.044014 2093.5312 81.1875 C 2093.9616 78.61673 2094.3345 74.357986 2094.375 71.75 C 2094.4617 66.166661 2092.1507 63.172749 2086.875 62.09375 C 2083.1645 61.334869 2082.2481 58.50225 2085.125 56.6875 C 2086.3352 55.924176 2087.5111 56.227232 2089.7812 57.84375 C 2095.3262 61.792108 2096.0208 60.687802 2096.7188 47 C 2097.199 37.57888 2097.1791 37.461095 2094.0312 33.15625 C 2090.8705 28.833782 2090.6276 26 2093.4062 26 z "/>
</svg>
