<?xml version="1.0" encoding="UTF-8"?>
<svg xmlns="http://www.w3.org/2000/svg" viewBox="1747.84 13.93 41.03 91.73">
  <path d="M 1754.4375,87.25 1752.4062,93 C 1753.2301,91.975448 1754.1313,91.505214 1756.1562,91.71875 1760.8739,92.216253 1765.4242,89.041936 1768.375,83.21875 1772.4359,75.205044 1772.633,71.923611 1769.375,65.9375 L 1766.5625,60.75 1769.2812,55.84375 C 1771.4899,51.887804 1771.8395,50.533372 1770.9688,48.90625 1770.3741,47.795088 1769.8411,45.201062 1769.8125,43.125 1769.7596,39.295732 1766.0776,32.600168 1766.0312,36.25 1766.0177,37.325921 1765.2296,38 1764,38 1761.5202,38 1761.3535,40.021399 1763.7812,40.65625 1765.5625,41.12207 1767.2898,44.287947 1768.3438,49 1768.736,50.753839 1768.0339,52.784655 1766,55.8125 1762.8639,60.481258 1762.9385,61.327246 1766.8125,67.25 1768.81,70.303859 1769.123,71.721223 1768.5938,75.03125 1766.9995,85.001122 1758.5303,91.526986 1754.4375,87.25 z M 1750.4375,98.53125 1749.8438,100.1875 1749.8438,101.34375 C 1751.9381,101.36524 1753.5846,101.48559 1755.9062,101.34375 1764.1937,100.83744 1770.0068,98.433417 1772.625,94.4375 1775.5571,89.962659 1778.9955,78.654821 1779,73.4375 1779.0034,69.585532 1779.6158,67.561706 1781.5625,64.9375 1783.6153,62.170332 1783.9827,60.811933 1783.4688,58 1783.117,56.075 1782.1331,53.730632 1781.2812,52.78125 1779.8778,51.217044 1779.9216,50.607224 1781.75,46.28125 1782.8598,43.655632 1784.1057,38.8 1784.5,35.5 1784.8943,32.2 1785.6112,28.7125 1786.125,27.75 1786.8695,26.355078 1786.6582,26 1785.0625,26 1783.9615,26 1781.4875,24.425 1779.5625,22.5 1775.6681,18.605676 1774,18.099106 1774,20.8125 1774,23.34259 1768.4398,27.284306 1765.9688,26.5 1763.4531,25.701576 1763.4806,26.170756 1766.3125,30.34375 L 1768.6562,33.75 1769.7188,30.96875 C 1770.2988,29.431856 1772.2127,27.424217 1774,26.5 1777.1057,24.893972 1777.357,24.888243 1779.25,26.78125 1782.5408,30.072063 1782.6896,36.837453 1779.625,43.53125 1776.4812,50.398356 1776.3736,52.379811 1779,55.71875 1781.6186,59.047808 1781.5308,61.428885 1778.625,65.3125 1776.763,67.80113 1776.1187,70.136634 1775.75,76 1775.1387,85.720372 1772.3836,91.648635 1766.7812,95.28125 1764.4751,96.776527 1761.3791,98 1759.875,98 1758.3709,98 1756.0379,98.404685 1754.7188,98.90625 1753.3779,99.416021 1751.7089,99.445486 1750.9375,98.96875 1750.7084,98.827154 1750.5724,98.686421 1750.4375,98.53125 z"/>
</svg>
