<?xml version="1.0" encoding="UTF-8"?>
<svg xmlns="http://www.w3.org/2000/svg" viewBox="2.29 13.39 59.52 91.37">
  <path d="M 35.415074,95.51765 C 35.072407,94.152358 35.242179,91.744043 35.792344,90.165839 36.634186,87.750929 36.373439,86.6404 34.146322,83.155385 32.690845,80.87784 31.193142,79.011155 30.818094,79.007197 30.443046,79.003239 29.164251,80.36496 27.976328,82.033244 26.001973,84.80597 25.917826,85.488992 26.996588,89.985776 27.645653,92.691385 27.88539,95.376425 27.529336,95.952533 26.766454,97.186903 21,97.380237 21,96.171445 21,95.715739 19.601613,93.23171 17.892473,90.65138 14.150609,85.002195 14.406042,82.034484 19.510648,71.850838 L 22.843576,65.201675 20.477151,62.978534 C 17.039222,59.748768 13.854102,60.913891 10.900363,66.481744 7.1087518,73.629002 5,72.217113 5,62.531227 5,58.188963 5.5899002,56.362042 8.25,52.465974 10.0375,49.847944 13.102805,46.795999 15.061789,45.683872 L 18.623579,43.661825 21.79949,46.009878 C 23.546242,47.301307 25.291205,48.042129 25.677185,47.656148 26.063166,47.270167 25.317578,43.702133 24.020323,39.727182 22.723069,35.752232 21.739026,31.411787 21.833562,30.08175 22.080291,26.610515 19.28038,23.779577 16.874133,25.067362 14.408576,26.386888 14.498257,29.08432 17.100551,31.877554 19.663801,34.628879 18.893643,35.728201 15.489498,34.177169 11.432524,32.328688 10.362957,28.777346 12.670125,24.815852 15.109487,20.627376 17.899299,20.202942 21.741315,23.435785 L 24.758441,25.974529 28.628166,23.348462 C 37.178037,17.546363 39.675457,18.011554 47.634264,26.888698 51.766485,31.497722 51.769589,31.499045 53.915392,29.566842 55.879669,27.798095 56.197775,27.769203 57.655699,29.227127 59.113623,30.685052 59.111295,31.225128 57.628331,35.57739 55.853983,40.784815 53.447849,44 51.325141,44 49.304503,44 42.190976,39.278663 40.760509,36.988122 38.559788,33.464208 36.998893,34.614773 37.013655,39.75 37.036519,47.703846 37.714357,48.997895 41.866631,49.014742 47.211589,49.036428 50.224282,50.960453 52.75,55.965291 55.264039,60.946986 55.769707,69.21657 53.82172,73.491937 52.065733,77.345909 49.566625,76.298039 49.177897,71.544794 48.835014,67.352133 45.703023,62 43.592421,62 42.274143,62 40,66.080258 40,68.445507 40,69.188778 41.35,72.3633 43,75.5 46.29503,81.763953 46.621912,84.628114 44.678523,90.207357 42.145553,97.479216 36.692033,100.60546 35.415074,95.51765 z M 24.183353,86.70188 C 23.325713,83.595763 23.590666,82.835924 27.166581,78.146503 29.325036,75.315926 31.242966,73 31.428647,73 32.175503,73 39.158945,85.509998 39.216765,86.951478 39.250927,87.803165 38.942347,89.7375 38.531031,91.25 37.96551,93.329546 38.136725,94 39.233304,94 40.723942,94 43,88.014301 43,84.094142 43,81.692182 39.610175,74.495143 38.01429,73.508832 35.299292,71.830871 38.329281,60.974607 42.166177,58.632877 44.475024,57.223744 46.76203,59.310482 49.69235,65.5 L 52.059513,70.5 51.602942,64.011327 C 51.215255,58.501607 50.738234,57.171589 48.441165,55.195734 46.232071,53.295551 45.040394,52.986329 41.943174,53.509601 36.126603,54.492304 34,51.829891 34,43.5651 34,36.404333 35.257115,32 37.300991,32 38.043763,32 41.3174,34.01301 44.575742,36.473355 47.834084,38.9337 51.085462,40.9587 51.801027,40.973355 53.059003,40.999118 56,35.314918 56,32.857805 56,32.194267 54.888192,32.695862 53.529315,33.97246 51.479707,35.897966 50.79799,36.077236 49.529315,35.024329 48.688192,34.326259 48,33.320163 48,32.78856 48,31.110177 40.77408,24.116894 38.063526,23.17199 35.917287,22.423807 34.53338,22.864554 30.103798,25.70701 L 24.741993,29.14767 25.364921,34.447818 C 25.707532,37.3629 26.662811,41.042174 27.487764,42.623983 29.05241,45.624119 29.43048,49.714612 28.393011,52.418213 27.387966,55.037319 24.398023,54.210616 21.597839,50.539386 18.819477,46.896766 17.278265,46.773266 13.64359,49.902 9.8701618,53.150173 6.2916469,63 8.8849901,63 9.3717346,63 10.502427,61.882145 11.39764,60.515877 14.058004,56.455649 17.272122,56.320816 21.941888,60.073542 24.17385,61.867195 25.980483,64.046915 25.956628,64.917365 25.932773,65.787814 24.812562,68.3 23.467271,70.5 17.41288,80.400945 17.065803,83.289275 21.184636,89.495827 23.993461,93.728365 24.547714,94.156986 24.812294,92.301204 24.984056,91.096456 24.701032,88.57676 24.183353,86.70188 z"/>
</svg>
