<?xml version="1.0" encoding="UTF-8"?>
<svg xmlns="http://www.w3.org/2000/svg" viewBox="1089.95 18.8 44.44 82.97">
  <path d="M 1091.9688 54.46875 L 1092 54.65625 L 1092.4062 58.59375 C 1092.7672 58.968359 1093 59.497828 1093 60.3125 C 1093 60.578133 1092.7685 60.87672 1092.6875 61.15625 L 1093.25 66.46875 C 1094.2393 66.570121 1094.982 67.641306 1095.5 70 C 1095.8596 71.637386 1096.5549 73.248734 1097.0625 73.5625 C 1097.5702 73.876267 1098.0192 75.107459 1098.0312 76.3125 C 1098.0877 81.944569 1108.4707 98 1112.0625 98 C 1113.3932 98 1115.1296 96.310403 1117.1875 93 C 1118.897 90.25 1120.5639 88 1120.9062 88 C 1120.9627 88 1121.4881 88.43004 1121.625 88.5 L 1123.3438 84.65625 L 1123.5 84.40625 C 1122.8796 82.321082 1123.3261 79.914066 1125.0312 76.15625 C 1126.1191 73.758688 1127 70.072883 1127 67.96875 C 1127 65.864617 1127.4699 62.913743 1128.0312 61.4375 C 1130.2997 55.470872 1132.3646 27.020854 1130.6562 25.3125 C 1130.3891 25.045433 1129.2534 25.333585 1128.125 25.9375 C 1125.8438 27.158364 1124.4427 31.454777 1122.4375 43.5 C 1120.5991 54.542607 1119.6017 58.408731 1116.5 66.5 C 1115.0242 70.35 1113.3677 74.7375 1112.8125 76.25 C 1112.2574 77.7625 1111.5177 79 1111.1562 79 C 1110.7948 79 1109.4619 76.1875 1108.1875 72.75 C 1106.9131 69.3125 1105.2507 64.925 1104.5 63 C 1103.1263 59.477619 1102.5517 54.744569 1101.3438 36.65625 C 1100.8615 29.433976 1100.2137 26.249292 1098.9062 24.65625 C 1097.1975 22.574341 1097.0545 22.56963 1095.3125 24.28125 C 1093.7668 25.799989 1093.4652 28.146043 1093.1875 40.0625 L 1092.8438 54.03125 L 1091.9688 54.46875 z M 1097 27 C 1097.8271 27 1098.7563 34.546216 1099.5625 48 C 1100.1159 57.235499 1101.9081 64.882686 1105.9375 75 C 1108.0912 80.407734 1108.9304 81.5 1110.875 81.5 C 1112.8297 81.5 1113.5905 80.453461 1115.5938 75.125 C 1116.9111 71.620542 1118 68.093671 1118 67.28125 C 1118 66.468828 1118.6682 64.389371 1119.4688 62.65625 C 1121.3511 58.580853 1124.9805 44.372571 1125 41.0625 C 1125.0168 38.205029 1127.1661 31.46851 1128.4375 30.28125 C 1129.5767 29.217407 1128.3154 46.684723 1126.5 57 C 1125.6772 61.675 1125.0007 66.932459 1125 68.6875 C 1124.9992 70.442541 1124.5428 72.164547 1124 72.5 C 1123.4573 72.835452 1122.3465 75.494435 1121.5 78.40625 C 1120.6535 81.318065 1118.6236 85.783558 1117 88.34375 C 1115.0872 91.359924 1113.3333 93 1112.0312 93 C 1109.7149 93 1105.7586 87.27962 1102.75 79.5625 C 1101.6668 76.784327 1100.4355 73.6 1100 72.5 C 1097.4406 66.034826 1096.8898 63.648897 1096.1562 55.5 C 1095.2575 45.517279 1095.8072 27 1097 27 z "/>
</svg>
