<?xml version="1.0" encoding="UTF-8"?>
<svg xmlns="http://www.w3.org/2000/svg" viewBox="1468.16 18.43 69.32 89.65">
  <path d="M 1481.2448,101.75 C 1479.1266,99.102318 1478.9352,95.881293 1480.5852,90.646853 L 1482.2889,85.242213 1479.2046,81.371106 C 1471.3068,71.458595 1473.5118,58.532102 1484.4108,50.84976 1487.9721,48.339507 1489.0525,46.839663 1489.9805,43.117695 1492.3481,33.62189 1499.8891,24.674239 1506.5828,23.418492 1511.4653,22.502533 1516.7133,26.229783 1522.1199,34.453174 1525.3207,39.321552 1527.0048,41 1528.689,41 1531.8834,41 1534.3287,45.212338 1534.2476,50.575315 1534.1585,56.470495 1527.9823,66.281167 1524.6584,65.807541 1522.994,65.570387 1522.4265,64.698956 1522.1787,62 1521.6999,56.784657 1520.4496,56.195105 1516.9593,59.539029 1514.393,61.997644 1513.7476,62.228142 1512.9178,60.982436 1511.6736,59.11482 1512.6377,52.208025 1514.5505,49.285183 1516.5237,46.270153 1516.365,43.110923 1514.0498,39.313822 1508.3995,30.047122 1500.4012,33.483806 1499.2978,45.65244 1498.7952,51.195623 1498.9323,51.72561 1501.2644,53.2537 1504.412,55.316048 1508,62.591492 1508,66.911432 1508,70.532856 1505.2317,76 1503.3979,76 1502.754,76 1501.9138,73.8625 1501.5309,71.25 1500.348,63.179634 1493.6352,58.318867 1489.7923,62.75 1486.2234,66.864996 1487.5119,78.43833 1491.99,82.490983 1494.7987,85.032818 1494.5113,86.923721 1490.6584,91.252768 1488.8213,93.31679 1486.7246,96.80429 1485.9991,99.002768 1484.6571,103.06889 1483.0452,104.00034 1481.2448,101.75 z M 1490.0018,89 C 1491.77,89 1491.0665,85.186769 1488.638,81.608239 1485.7778,77.39352 1484.7748,71.822913 1485.9496,66.676887 1487.1934,61.22843 1489.5605,59 1494.1041,59 1497.2156,59 1498.3388,59.584709 1500.3472,62.25 1501.6942,64.0375 1502.9608,66.4 1503.1618,67.5 1503.6394,70.112723 1505.4044,69.69702 1505.8419,66.868779 1506.3497,63.586191 1502.5386,56.749356 1499.0532,54.690515 1495.507,52.595734 1495.284,50.776045 1497.6117,42.931501 1500.5854,32.909881 1505.0269,29.411215 1510.9121,32.454538 1516.5336,35.361521 1520.7235,45.438032 1517.7,48.778968 1515.622,51.075163 1513.8326,55.920173 1514.6025,57.165914 1514.9531,57.733185 1516.4412,56.993437 1518.05,55.4521 1521.8351,51.825748 1524,52.719908 1524,57.909598 1524,63.125066 1525.2399,63.692004 1528.4091,59.925611 1531.4813,56.274503 1532.2509,53.674755 1531.8196,48.404677 1531.5189,44.730357 1531.2919,44.482475 1527.9733,44.202948 1524.9616,43.949274 1524.1146,43.279937 1522.1726,39.619215 1518.9786,33.598457 1514.1748,28.016962 1511.2202,26.893624 1504.9643,24.515134 1495.4618,32.462492 1493.1579,42 1492.4271,45.025 1491.6123,48.2875 1491.3472,49.25 1491.0821,50.2125 1490.0112,51 1488.9674,51 1486.3494,51 1480.3374,56.48666 1478.3376,60.701026 1476.5109,64.550484 1476.4074,71.975736 1478.1336,75.336979 1478.7445,76.526641 1480.2638,78.625 1481.5098,80 1484.7037,83.524519 1485.2748,86.244056 1483.5255,89.598491 1481.9243,92.668865 1481.542,96.208627 1482.6878,97.354474 1483.0661,97.732768 1484.6419,96.007768 1486.1896,93.521141 1487.7374,91.034513 1489.4528,89 1490.0018,89 z"/>
</svg>
