<?xml version="1.0" encoding="UTF-8"?>
<svg xmlns="http://www.w3.org/2000/svg" viewBox="2646.48 15.66 77.52 93.31">
  <path d="M 2720.4688,74.15625 C 2720.2779,74.465964 2720.0878,74.833522 2719.9062,75.125 2715.4502,82.277926 2706,100.2364 2706,101.5625 2706,101.89432 2706.5683,101.97722 2707.25,101.75 2707.9317,101.52277 2710.425,97.537357 2712.8125,92.90625 2714.8577,88.939261 2717.9985,83.463192 2720.4688,79.28125 L 2720.4688,74.15625 z M 2673.2812,20.125 C 2670.1933,20.501967 2667.6916,23.385678 2668.1875,27.59375 2668.6687,31.676318 2672.8524,32.780743 2678.0938,30.1875 L 2682.125,28.1875 2683.1562,30.84375 C 2683.7177,32.30384 2684.1346,37.02227 2684.0938,41.34375 2684.0527,45.66523 2684.2534,49.625008 2684.5625,50.125 2684.8715,50.624991 2685.5392,50.772799 2686.0312,50.46875 2687.3176,49.673834 2686.3774,31.922372 2684.875,28.625 2683.8204,26.310382 2683.8592,25.698802 2685.0625,24.9375 2687.4835,23.405684 2690.3428,23.892583 2693.4062,26.34375 L 2696.3438,28.6875 2695.0312,36.375 C 2694.3088,40.599605 2693.9631,44.306765 2694.2812,44.625 2695.5377,45.881297 2696.8059,43.795253 2697.4688,39.375 2698.4988,32.504753 2698.8603,32 2702.6562,32 2704.9736,32 2706.8769,31.185511 2708.5312,29.53125 2711.6629,26.39967 2711.6437,24.475748 2708.4375,22.375 2706.01,20.784449 2705.6982,20.800372 2702.0625,22.84375 2697.3174,25.510646 2695.8001,25.541569 2693.5,23 2691.2318,20.4937 2688.9871,20.48749 2684.625,22.9375 L 2681.2188,24.84375 2678.9375,22.4375 C 2677.2122,20.60097 2675.1341,19.89882 2673.2812,20.125 z M 2674.6562,57 C 2673.9149,57 2672.4999,58.9125 2671.5312,61.25 2668.8417,67.74078 2663.9131,77.212866 2661.8438,79.875 2660.824,81.186672 2660,82.580709 2660,82.96875 2660,83.356791 2657.75,87.424427 2655,92 2652.25,96.575573 2650,100.91904 2650,101.65625 2650,102.39347 2650.3882,103 2650.875,103 2652.0669,103 2654.1244,99.742785 2659.875,88.75 2662.5372,83.660881 2665.7406,77.7 2667,75.5 2669.8327,70.551382 2676,58.247542 2676,57.53125 2676,57.240998 2675.3977,57 2674.6562,57 z M 2710.6875,56.15625 C 2710.5824,56.351042 2709.1107,59.2 2707.4062,62.5 2705.7021,65.8 2701.9076,72.775 2699,78 2688.3162,97.198787 2686.4826,100.51544 2686.1562,101.25 2685.9729,101.6625 2686.5136,102 2687.3438,102 2688.2827,102 2691.6828,96.426637 2696.3438,87.25 2700.4639,79.1375 2705.9107,68.897873 2708.4375,64.5 2711.0092,60.023923 2712.5388,56.356669 2711.9375,56.15625 2711.3467,55.959332 2710.7927,55.961459 2710.6875,56.15625 z M 2675.1562,22.5625 C 2675.7469,22.638311 2676.2843,22.821617 2676.6875,23.15625 2678.4825,24.646022 2678.3203,27.671752 2676.4062,28.40625 2672.256,29.998892 2669.274,28.03268 2670.5938,24.59375 2671.1372,23.177482 2673.3844,22.335067 2675.1562,22.5625 z M 2705.5938,24 C 2707.3102,24 2708.0458,26.547841 2706.7188,27.875 2705.2625,29.33117 2702.3145,29.313197 2701.4062,27.84375 2700.659,26.634611 2703.5338,24 2705.5938,24 z M 2693.7188,59.375 C 2693.4209,59.077113 2691.2826,62.157446 2688.9688,66.1875 2686.655,70.217553 2683.7328,75.075 2682.4688,77 2681.2047,78.925 2678.6346,83.425 2676.75,87 2674.8653,90.575 2672.341,95.075 2671.1562,97 2669.9716,98.925 2669.0021,101.11042 2669,101.84375 2668.992,104.72599 2671.5182,102.05776 2675.0625,95.4375 2677.1075,91.617627 2681.438,83.775 2684.7188,78 2691.8954,65.367122 2694.4436,60.099874 2693.7188,59.375 z"/>
</svg>
