<?xml version="1.0" encoding="UTF-8"?>
<svg xmlns="http://www.w3.org/2000/svg" viewBox="700.02 11.24 31.79 88.78">
  <path d="M 728.34375,84.4375 C 726.81468,84.246456 724.71912,84.062865 724.5625,83.90625 724.30111,83.64486 723.79004,81.61096 723.4375,79.40625 722.85641,75.772343 723.0536,75.290687 725.40625,74.21875 728.75287,72.693924 728.82167,70.760065 725.5,71.59375 723.20339,72.170162 722.98746,71.928928 723,68.84375 723.02164,63.523034 723.98278,61.331766 726.84375,59.90625 L 729.5,58.59375 726.75,58.21875 C 724.65772,57.944601 724,57.331754 724,55.59375 724,52.153997 725.94706,47.2449 727.5625,46.625 729.80606,45.764062 729.28057,43.776175 727,44.5 725.28834,45.043259 724.98422,44.651613 724.875,41.8125 724.8048,39.987936 724.63135,37.45917 724.5,36.1875 724.36865,34.91583 724.87345,33.251545 725.625,32.5 727.48281,30.642188 727.35115,30 725.09375,30 722.25264,30 720.97291,20.456057 723.5625,18.5625 725.10113,17.437428 724.55921,17.26741 719.4375,17.21875 715.339,17.179811 712.94864,17.640801 711.71875,18.75 710.07427,20.233097 709.81853,20.203808 708.40625,18.1875 706.79773,15.891013 705,15.272148 705,17.03125 705,17.60352 705.96126,19.363468 707.125,20.9375 709.82935,24.595327 708.60618,29.637544 705.125,29.25 702.47665,28.955172 702.38802,30.638653 704.90625,32.84375 706.19326,33.970728 706.95154,36.34636 707.3125,40.25 707.83861,45.939525 707.83942,46.009093 705.4375,45.40625 702.01625,44.547571 702.30946,46.716976 705.90625,48.78125 708.98668,50.549171 710,53.319972 710,60.125 710,64.141878 709.24179,64.866794 707.1875,62.8125 706.25417,61.879167 706,61.9614 706,63.21875 706,64.107877 707.18375,65.70012 708.625,66.75 710.62495,68.206859 711.27613,69.567277 711.375,72.5625 711.50008,76.351924 711.39672,76.499667 708.5,76.1875 L 705.5,75.84375 708.25,78.71875 C 711.37333,81.987477 711.66507,84.863532 709.5,91 708.675,93.338299 708,95.419149 708,95.625 708,95.83085 708.3375,95.982939 708.75,95.96875 709.1625,95.954561 710.3242,94.1479 711.34375,91.9375 714.36345,85.390695 713.91673,64.572305 710.34375,45.21875 708.66333,36.116551 709.15034,28.933645 711.8125,22.71875 713.75191,18.191119 716.74849,17.964154 718.78125,22.21875 722.08427,29.131978 723.0827,39.65275 721.84375,54.875 720.51258,71.230207 720.35473,80.246922 721.34375,84.1875 721.93309,86.535586 722.64624,86.924813 727.5,87.53125 727.84862,87.574807 728.07404,87.55753 728.40625,87.59375 L 728.34375,84.4375 z M 728.5,92.34375 C 727.60041,92.132208 726.66629,91.97291 725.90625,91.59375 722.2707,89.7801 716.84395,90.290208 714.90625,92.625 713.0868,94.817304 714.70315,95.517907 718.46875,94.15625 721.29669,93.133652 722.50318,93.190487 725.5625,94.46875 726.43695,94.834117 727.49158,95.051326 728.53125,95.28125 L 728.5,92.34375 z"/>
</svg>
