<?xml version="1.0" encoding="UTF-8"?>
<svg xmlns="http://www.w3.org/2000/svg" viewBox="2164.73 15.27 76 85.91">
  <path d="M 2236.5 54.03125 C 2235.8635 58.015172 2234.4461 59.224755 2230.8438 61.0625 C 2225.4831 63.797362 2223.9126 63.51892 2219.5 59 C 2215.2558 54.653578 2213.9059 54.203585 2212 56.5 C 2209.3452 59.69881 2208.4046 58.108246 2208.125 49.90625 L 2207.8438 41.8125 L 2211.7812 38.4375 C 2214.918 35.752556 2215.9102 34.057483 2216.7188 29.96875 C 2218.0468 23.252369 2216.4101 22.487345 2211 27.375 C 2205.4298 32.407369 2203.5295 32.141205 2201.5 26.03125 C 2199.6486 20.456995 2197.4823 19.17222 2193.3438 21.1875 C 2189.4731 23.072278 2183.804 31.501097 2184.1875 34.8125 C 2184.4654 37.211976 2185.1125 37.628711 2190.625 38.8125 C 2196.2766 40.026165 2196.811 40.367364 2197.375 43.1875 C 2198.2628 47.626602 2198.0962 56.261678 2197.0938 57.84375 C 2196.4235 58.901657 2195.3596 58.403092 2192.25 55.59375 C 2187.8465 51.615469 2185.5197 51.194959 2182.4688 53.78125 C 2173.3735 61.491106 2168.1872 81.321905 2172.5312 91.71875 C 2174.5946 96.65702 2175.8272 95.123751 2177.6562 85.4375 C 2179.7919 74.127095 2184.858 64.979629 2188.25 66.28125 C 2189.4274 66.733081 2195 79.501716 2195 81.75 C 2195 82.289877 2193.855 83.58546 2192.4688 84.625 C 2189.8719 86.572246 2187.7107 92.117385 2188.625 94.5 C 2189.6884 97.271149 2192.3312 97.071271 2195.5 94 L 2198.625 90.96875 L 2202.9062 94.03125 C 2205.2455 95.72577 2207.8902 96.988202 2208.8125 96.8125 C 2211.4975 96.300992 2211.3542 92.298584 2208.4688 87.375 C 2205.8439 82.896062 2205.8187 82.719185 2207.4062 78.5625 C 2208.2954 76.23429 2210.3074 73.128181 2211.8438 71.65625 L 2214.625 69 L 2220 73 C 2222.9533 75.203386 2225.5806 77 2225.8438 77 C 2226.1069 77 2228.7111 75.2 2231.625 73 C 2234.4186 70.890863 2236.7692 69.296504 2237.2812 69.15625 L 2237.2812 63.15625 C 2236.2544 65.410724 2233.9539 68.317382 2231.2812 70.15625 C 2226.1102 73.714008 2223.7481 73.49813 2218.625 69 C 2216.7548 67.357947 2214.7767 66 2214.2188 66 C 2212.6306 66 2207.1564 72.691902 2205.5 76.65625 C 2203.5102 81.418453 2203.5959 82.735367 2206.2188 87.6875 C 2208.8984 92.74669 2208.0318 94.145264 2204.0312 91.1875 C 2200.3339 88.453874 2196.4241 88.369579 2194.7812 91 C 2194.0944 92.1 2192.9172 93 2192.1875 93 C 2190.0671 93 2191.7562 88.846279 2195.0625 85.9375 C 2196.6709 84.522446 2198 82.795575 2198 82.09375 C 2198 79.286019 2190.2701 63 2188.9375 63 C 2185.0383 63 2178.8484 71.602676 2176.875 79.75 C 2175.4528 85.621665 2174.2853 87.052901 2173.5 83.90625 C 2172.9049 81.521481 2174.9823 69.821929 2176.875 64.84375 C 2178.3034 61.086708 2183.9029 55 2185.9375 55 C 2186.8902 55 2189.7599 56.636295 2192.3125 58.625 C 2199.1422 63.946012 2200 63.11183 2200 51.25 C 2200 39.150187 2199.1168 37.533681 2192.0312 36.59375 C 2187.8961 36.045205 2187 35.568738 2187 33.9375 C 2187 30.868162 2191.9998 24.034005 2194.75 23.34375 C 2197.5597 22.638558 2198.5046 23.67601 2200.0312 29.1875 C 2201.489 34.45022 2204.1256 34.958211 2209.5938 31.03125 L 2214 27.875 L 2214 30.28125 C 2214 33.042345 2209.8738 38 2207.5625 38 C 2206.2557 38 2206 39.777533 2206 49.4375 C 2206 56.648294 2206.4035 61.135947 2207.0938 61.5625 C 2207.6961 61.934734 2209.487 61.289775 2211.0625 60.125 C 2212.6379 58.960225 2214.3011 58 2214.7812 58 C 2215.2615 58 2217.107 59.8 2218.875 62 C 2221.0807 64.744754 2222.8766 66 2224.5938 66 C 2227.2944 66 2232.4221 63.698566 2235.25 61.21875 C 2236.029 60.535709 2236.8006 60.260054 2237.2812 60.3125 L 2237.2812 56.375 L 2236.5 54.03125 z "/>
</svg>
