<?xml version="1.0" encoding="UTF-8"?>
<svg xmlns="http://www.w3.org/2000/svg" viewBox="2979.62 22.36 44.15 80.08">
  <path d="M 2981.625,80.53125 2981.7812,84.4375 C 2982.8078,83.822244 2985.0694,84.03977 2989.9062,85.15625 2999.7278,87.423346 3002.4021,83.760151 3003.8438,66 3004.3571,59.675 3004.7858,53.6 3004.7812,52.5 3004.7767,51.4 3004.8594,45.775 3004.9688,40 3005.2251,26.46034 3005.1964,26 3004.0312,26 3003.428,26 3003.0508,32.336689 3003.0625,42.4375 3003.0811,58.609621 3001.1591,75.9467 2998.9062,80.15625 2997.7486,82.319202 2993.3785,84.335501 2991.875,83.40625 2991.3437,83.07792 2988.7726,82.294355 2986.1875,81.65625 L 2981.625,80.53125 z M 3012.9688,28.8125 C 3012.0321,28.744717 3011.3947,32.706536 3010,46 3009.3942,51.775 3008.2298,59.425 3007.4062,63 3004.5282,75.491236 3004,77.884345 3004,78.4375 3004,80.108828 3005.9073,78.61196 3006.7812,76.25 3009.074,70.053827 3014.6453,30.406241 3013.4062,29.09375 3013.2569,28.935578 3013.1026,28.822183 3012.9688,28.8125 z M 2981.9375,88.15625 2982.0938,92.1875 2982.2812,92.84375 2983,92.09375 2990.75,94.90625 C 2995.0112,96.467896 2998.7459,97.808203 2999.0625,97.875 2999.9205,98.056007 3003.3972,93.981872 3005.8125,89.9375 3009.1191,84.400474 3013.8338,72.154906 3015.0312,66.03125 3015.6276,62.981196 3016.493,59.15 3016.9688,57.5 3018.5685,51.952798 3020.8808,39.547348 3021.375,33.75 3021.7624,29.205989 3021.5658,28 3020.4375,28 3019.4292,28 3019,29.215467 3019,32.15625 3019,37.393695 3016.4614,51.658441 3013.3438,63.9375 3008.7166,82.161637 2999.4832,98.800118 2996.5938,94.125 2996.3013,93.651663 2993.2338,92.492051 2989.7812,91.53125 2985.1488,90.242052 2982.9923,89.324407 2981.9375,88.15625 z"/>
</svg>
