<?xml version="1.0" encoding="UTF-8"?>
<svg xmlns="http://www.w3.org/2000/svg" viewBox="1724.27 16.29 19.15 85.38">
  <path d="M 1729.3827,96.2865 1726.2654,95.893075 1726.4961,59.072016 C 1726.623,38.820434 1727.0467,21.733424 1727.4377,21.100882 1727.9148,20.328776 1729.8494,20.167735 1733.3242,20.610871 1736.1709,20.973907 1738.6577,21.405145 1738.8504,21.569178 1739.0431,21.733212 1739.3558,32.359751 1739.5452,45.18371 1739.7347,58.00767 1740.19,74.243042 1740.5571,81.262315 1741.4127,97.624618 1741.2902,97.789307 1729.3827,96.2865 z M 1737.4186,31.663242 C 1738.451,23.980165 1737.9021,23.042328 1732.357,23.015313 1728.436,22.996209 1727.8093,24.487052 1728.6521,31.830038 1729.3634,38.028467 1730.2289,39.149809 1734,38.75905 1736.2936,38.52139 1736.5759,37.935477 1737.4186,31.663242 z M 1738,54.19113 C 1738,43.938258 1737.2574,41.720534 1733.4475,40.596285 1729.257,39.359675 1728.1925,41.737968 1728.737,51.121248 L 1729.2373,59.742496 1732.8686,61.848278 C 1734.8659,63.006457 1736.8375,63.964396 1737.25,63.977029 1737.6625,63.989663 1738,59.586008 1738,54.19113 z M 1737.8,93.8 C 1738.46,93.14 1739,90.455833 1739,87.835184 1739,82.62667 1737.4613,81 1732.5344,81 1729.5336,81 1729.1732,81.718145 1728.7854,88.469191 1728.5101,93.263282 1728.6057,93.461727 1731.5,94.100876 1736.077,95.111621 1736.509,95.090989 1737.8,93.8 z M 1738.0822,77.75 C 1738.1275,77.0625 1738.3766,75.19688 1738.636,73.604177 1739.0176,71.26008 1738.43,70.069301 1735.5514,67.354177 1730.0752,62.188874 1729,62.759878 1729,70.833333 1729,74.591667 1729.3,77.966667 1729.6667,78.333333 1730.8885,79.55515 1737.9959,79.062493 1738.0822,77.75 z"/>
</svg>
