<?xml version="1.0" encoding="UTF-8"?>
<svg xmlns="http://www.w3.org/2000/svg" viewBox="771.25 50.7 37.31 48.75">
  <path d="M 802.78125 85.03125 C 802.23244 85.56442 801.44999 85.915341 800.15625 86.25 C 797.84393 86.848139 796.37775 86.733138 795.34375 85.875 C 792.48007 83.498357 789.22477 75.450603 788.53125 69 C 788.14689 65.425 787.42486 60.841831 786.90625 58.8125 C 785.70442 54.109677 782.64673 52.911058 779.625 55.9375 C 777.68868 57.876841 777.50956 58.979995 777.75 68.15625 C 777.99231 77.404164 777.83048 78.639171 775.53125 82.5625 C 774.14937 84.920501 773.25071 87.499991 773.5625 88.3125 C 774.43102 90.575813 778.18502 91.10629 780.875 89.34375 C 783.19869 87.821207 783.41247 87.922256 786.71875 91.53125 C 790.87962 96.073084 796.72116 97.227658 801.875 94.5625 C 804.26381 93.3272 805.81577 93.186625 806.53125 94.03125 L 806.5625 93.59375 L 805.34375 90.09375 C 804.64553 90.76991 803.46549 91.518427 801.25 92.3125 C 798.6375 93.248869 796.05 94.010829 795.5 94 C 793.16696 93.954068 789.36111 91.208988 787.5 88.25 C 785.2898 84.735975 782.60466 84.151723 779.90625 86.59375 C 776.91816 89.297936 775.89581 87.271301 778.25 83.28125 C 780.14891 80.062824 780.39621 78.385492 780.15625 69.25 C 779.89604 59.343013 780.63473 56 783.09375 56 C 784.12274 56 785.58405 61.647552 786.46875 69 C 787.49335 77.51517 789.9058 83.753499 793.28125 86.59375 C 795.96267 88.850017 796.89308 89.055085 801.15625 88.46875 C 802.73702 88.251338 803.89624 88.255168 804.71875 88.375 L 803.75 85.59375 L 802.78125 85.03125 z "/>
</svg>
