<?xml version="1.0" encoding="UTF-8"?>
<svg xmlns="http://www.w3.org/2000/svg" viewBox="3136.84 70.06 18.45 32.88">
  <path d="M 3138.8438,72.0625 3139.375,75.78125 C 3139.669,77.82315 3140.2038,84 3140.5625,89.5 3140.9211,95 3141.3644,99.764667 3141.5625,100.09375 3142.0756,100.94619 3150.7996,100.54413 3151.7188,99.625 3152.1401,99.203676 3152.6425,94.037286 3152.8438,88.15625 3153.2919,75.065137 3152.4077,73.536266 3144.1562,72.65625 L 3138.8438,72.0625 z M 3141.9688,76 3145.4375,76 C 3147.884,76 3149.2582,76.582746 3150,77.96875 3151.141,80.100697 3150.8448,94.83886 3149.625,96.8125 3148.6452,98.397891 3144.0553,98.346954 3143.5625,96.75 3143.3503,96.0625 3142.8942,91.1125 3142.5625,85.75 L 3141.9688,76 z"/>
</svg>
