<?xml version="1.0" encoding="UTF-8"?>
<svg xmlns="http://www.w3.org/2000/svg" viewBox="1007.26 9.56 60.36 94.74">
  <path d="M 1047.6872,97.25 C 1045.6692,95.7375 1043.3144,93.488703 1042.4542,92.252674 1040.9753,90.127378 1040.7304,90.088047 1037.9452,91.528354 1036.3253,92.366008 1035,93.387472 1035,93.798276 1035,94.20908 1033.4536,95.377974 1031.5636,96.395818 1027.1112,98.79359 1022.1182,97.920662 1017.6013,93.954803 1012.7984,89.737799 1011.9268,85.24056 1013.1014,70.736294 1014.141,57.899092 1016.0598,52.314019 1020.6785,48.680936 1022.6836,47.103751 1022.9895,46.221644 1022.4285,43.63482 1021.6428,40.011482 1020.4914,39.036632 1016.9725,39.015313 1013.1654,38.992248 1010,36.324523 1010,33.139077 1010,30.03142 1014.0747,23.332356 1019.3761,17.724106 1022.3864,14.539673 1023.3805,14.052624 1025.7227,14.614782 1027.2502,14.981396 1028.6448,15.400379 1028.8218,15.545857 1028.9989,15.691334 1028.4304,17.91134 1027.5586,20.479205 1025.2384,27.313188 1026.727,28.52843 1033.4761,25.310013 1035.987,24.112627 1037.331,23.931032 1038.087,24.687008 1039.6954,26.295387 1037.0949,33.891697 1034.3116,35.715373 1032.5074,36.897529 1032.0034,38.137722 1032.0153,41.36501 1032.0237,43.639254 1032.3612,46.019218 1032.7653,46.653819 1034.005,48.600804 1045.226,51.9494 1047.1178,50.936936 1049.0374,49.909609 1052,41.994486 1052,37.89329 1052,35.207683 1049.7839,32 1047.9286,32 1047.4179,32 1047,31.55 1047,31 1047,29.122675 1050.8829,29.994734 1052.4433,32.222506 1055.6151,36.750942 1053.0385,49.618222 1048.3439,52.694254 1046.1011,54.163803 1045.4326,54.144873 1039.8468,52.453614 1030.8359,49.725343 1029,47.926956 1029,41.82863 1029,37.533378 1029.4363,36.394865 1032,34 1033.65,32.458669 1035,30.241569 1035,29.07311 1035,27.090826 1034.8159,27.040117 1032.25,28.315446 1030.6913,29.09016 1028.417,29.402478 1027,29.036411 1024.9073,28.495782 1024.5198,27.829302 1024.6214,24.945284 1024.6882,23.050378 1025.0782,20.4875 1025.488,19.25 1027.27,13.869926 1020.6699,18.601031 1015.1587,26.65437 1011.3063,32.283669 1012.5008,35.19941 1019.1495,36.396072 1023.6018,37.197402 1024.579,38.317694 1025.4533,43.622499 1026.0889,47.479394 1025.9039,47.9336 1022.5814,50.672317 1017.8176,54.599033 1015.2452,62.182421 1015.1489,72.5836 1015.0162,86.909093 1017.3479,92.336007 1024.6894,94.788321 1027.6065,95.762757 1028.3468,95.518523 1033.3625,91.926844 1036.3786,89.76708 1039.8322,88 1041.0373,88 1042.3042,88 1044.7617,89.658702 1046.8641,91.9329 1051.8576,97.334296 1053.8536,97.692461 1058.4786,94.016969 1063.5266,90.005383 1064.8712,90.191742 1061.3485,94.41471 1058.9266,97.318022 1054.4515,100 1052.0289,100 1051.659,100 1049.7052,98.7625 1047.6872,97.25 z M 1043.3813,85 C 1041.9254,82.8 1040.589,81 1040.4115,81 1040.234,81 1038.4142,82.136406 1036.3675,83.525346 1031.0665,87.122713 1028.3251,87.603057 1025.8483,85.368521 1023.9286,83.636664 1023.8085,82.658889 1024.206,72 1024.806,55.913191 1027.0159,52.124991 1034.1849,54.894298 1035.4582,55.386161 1037.6041,56.755885 1038.9535,57.938128 1040.9499,59.687095 1042.4407,60.032906 1046.9535,59.79383 L 1052.5,59.5 1055.229,51.05184 C 1058.1457,42.022818 1059.8258,26.540476 1058.1539,24.098189 1057.5882,23.271829 1055.3279,22.65607 1052.6476,22.598189 1046.7514,22.470857 1048.1132,21.106349 1054.4782,20.763931 1058.8182,20.530452 1059.5405,20.788449 1060.738,23 1062.3825,26.0373 1061.5378,42.043381 1059.5252,45.979562 1058.8164,47.365803 1057.9314,50.337708 1057.5584,52.583796 1057.1855,54.829883 1056.0139,58.092383 1054.9549,59.833796 1053.327,62.510587 1052.4319,63 1049.1639,63 1044.533,63 1039.3764,61.356027 1036.1151,58.839952 1029.3381,53.611394 1026.0684,60.747503 1026.8122,79.143011 1027.0531,85.100349 1028.5735,85.656321 1034.4436,81.933641 1040.2822,78.230875 1042.437,78.238271 1044.6405,81.968639 1047.098,86.128827 1048.7488,86.432016 1053.1357,83.528908 1058.9416,79.686724 1061.3624,80.312937 1056.3333,84.35608 1049.1452,90.13497 1046.8548,90.248837 1043.3813,85 z M 1056,89.774625 C 1056,89.035749 1057.35,87.63375 1059,86.659071 1062.2527,84.737668 1063.0846,85.758545 1060.25,88.192908 1057.3108,90.717091 1056,91.204918 1056,89.774625 z"/>
</svg>
