<?xml version="1.0" encoding="UTF-8"?>
<svg xmlns="http://www.w3.org/2000/svg" viewBox="2508.14 17.64 26.83 86.05">
  <path d="M 2513.4688 54.84375 L 2513.5312 54.9375 L 2513.5312 59.71875 C 2514.0645 59.590722 2514.395 59.838005 2514.625 60.4375 C 2515.2266 62.0054 2514.8874 63.171243 2513.5312 64.40625 L 2513.5312 68.15625 L 2513.5 68.1875 L 2513.8125 71.59375 C 2513.9859 73.557232 2513.6202 78.176831 2513 81.84375 C 2510.14 98.752907 2510.4161 99.776864 2516.1562 93.46875 C 2517.9235 91.526767 2520.0788 90.013433 2520.9375 90.09375 C 2523.9625 90.376699 2524.3052 89.981632 2522.625 88.125 C 2521.0401 86.3737 2521.0209 85.977735 2522.5625 82.125 C 2524.4148 77.495677 2524.6669 77.381101 2527.7812 79.5625 C 2530.9693 81.795518 2530.8031 79.106871 2527.5625 76.0625 C 2525.6152 74.233101 2525.2159 73.107641 2525.6875 70.625 C 2526.4441 66.642238 2526.2838 66.762212 2529.375 67.9375 C 2532.9673 69.303283 2532.7565 67.621061 2529 64.84375 C 2526.336 62.874196 2526 62.052314 2526 57.4375 C 2526 52.99759 2526.3642 51.993201 2528.5 50.59375 C 2531.5761 48.578218 2531.9465 46.420843 2528.9375 48.03125 C 2525.7339 49.745749 2524 48.499365 2524 44.46875 C 2524 41.821043 2524.7158 40.270175 2526.75 38.46875 L 2529.5 36.03125 L 2526.1562 36.65625 C 2520.5401 37.709526 2519.0406 32.613723 2523.75 28.46875 C 2526.772 25.808872 2525.9056 25.292595 2522.0312 27.4375 C 2519.71 28.722531 2519.3419 28.584354 2516.2812 25.15625 C 2513.1009 21.594057 2512.9934 21.547935 2511.5 23.46875 C 2510.6571 24.552969 2510.1901 26.023648 2510.4688 26.75 C 2511.332 28.999418 2514 48.135963 2514 52.0625 C 2514 53.225902 2513.7587 54.020905 2513.4688 54.84375 z M 2514.125 26 C 2514.6042 26 2516.5405 29.2625 2518.4375 33.25 C 2526.7022 50.622308 2526.2438 74.703778 2517.4062 88.25 C 2516.0606 90.3125 2514.7218 92 2514.4062 92 C 2514.0908 92 2514.0961 90.3125 2514.4375 88.25 C 2516.8716 73.545792 2517.2642 48.699447 2515.1875 40 C 2513.6722 33.652162 2513.0925 26 2514.125 26 z "/>
</svg>
