<?xml version="1.0" encoding="UTF-8"?>
<svg xmlns="http://www.w3.org/2000/svg" viewBox="655.19 16.49 19.05 89.33">
  <path d="M 658.23787,100.72412 C 657.65862,99.988595 657.25704,84.085268 657.23177,60.880287 L 657.18971,22.260575 662.84486,21.731532 C 665.95519,21.440558 669.15492,21.044429 669.95539,20.851244 671.18646,20.554135 671.44124,23.505401 671.60845,40 671.71717,50.725 671.93146,68.605784 672.08465,79.735076 672.23784,90.864368 672.16896,100.13889 671.93159,100.34511 671.69422,100.55134 668.73293,100.99641 665.35096,101.33415 661.05166,101.76351 658.91192,101.58 658.23787,100.72412 z M 666.89116,52.25 C 668.73259,50.724719 668.9213,49.823737 668.36071,45.233605 667.81885,40.796799 667.34632,39.874041 665.361,39.375758 660.8911,38.253884 660,39.420662 660,46.395291 660,52.867841 660.1628,53.162381 664.13922,53.883999 664.49078,53.947799 665.72916,53.2125 666.89116,52.25 z M 668.53707,85.708332 C 668.85341,84.447915 668.97449,80.735415 668.80612,77.458332 668.51316,71.756186 668.37916,71.486144 665.68953,71.177742 661.05044,70.64581 660,72.389552 660,80.622445 L 660,88 663.98095,88 C 667.2968,88 668.05799,87.617129 668.53707,85.708332 z M 668.65167,30.75957 C 667.68323,24.746134 667.14836,24.317575 662.25,25.630286 660.26669,26.161792 660,26.877336 660,31.667102 L 660,37.100941 664.78961,36.810041 669.57922,36.51914 668.65167,30.75957 z M 666.58179,68 C 668.87211,68 669,67.681028 669,61.968615 669,55.320902 668.28828,54.525481 663.5,55.821794 660.76045,56.563461 660.4731,57.051216 660.19019,61.439927 659.81021,67.334389 660.50371,69.404422 662.59022,68.603754 663.45556,68.271689 665.25177,68 666.58179,68 z M 666.75,97.369714 C 668.53057,96.89254 669,96.04885 669,93.325871 669,89.896224 668.98614,89.886007 664.75,90.192502 660.62463,90.490983 660.4909,90.609965 660.18963,94.25 659.91288,97.593941 660.12944,97.998521 662.18963,97.986345 663.46034,97.978835 665.5125,97.701351 666.75,97.369714 z"/>
</svg>
