<?xml version="1.0" encoding="UTF-8"?>
<svg xmlns="http://www.w3.org/2000/svg" viewBox="2827.47 20.31 30.65 87.27">
  <path d="M 2839.2975,100.75 C 2834.9401,95.970126 2834.5034,87.566074 2837.9856,75.5 2839.4271,70.504947 2840.1358,40.122509 2838.8662,37.75 2838.3041,36.699694 2836.7678,36 2835.0238,36 2829.4718,36 2830.3096,31.900245 2836.7571,27.519083 2841.5299,24.275896 2845.0386,24.311351 2848.3636,27.636364 2851.2598,30.532535 2851.1143,29.377301 2851.4317,52 2851.5988,63.913305 2852.0463,67.833968 2853.94,73.977705 2855.8144,80.058974 2856.1264,82.730088 2855.6105,88.281121 2854.909,95.829309 2853.1187,99.37013 2848.9012,101.55111 2844.9075,103.61634 2841.6638,103.34576 2839.2975,100.75 z M 2851.7949,92.136003 C 2852.8986,87.676779 2852.8499,85.618925 2851.4652,78.202049 2848.4884,62.257403 2848.2116,59.376929 2848.5051,47.400751 2848.8225,34.45562 2847.7141,29.678807 2844.1291,28.540963 2842.0146,27.869864 2838.8189,29.106532 2835.75,31.783487 2833.1004,34.094648 2833.6356,34.933392 2837.3729,34.326918 2839.5564,33.972585 2841.0256,34.232361 2841.5393,35.063602 2842.9388,37.328012 2842.1408,72.501195 2840.5825,77.235422 2837.1868,87.551814 2837.7879,95.337188 2842.2197,98.441341 2843.9354,99.643028 2844.814,99.674798 2847.3932,98.628396 2849.9925,97.573818 2850.7115,96.513236 2851.7949,92.136003 z"/>
</svg>
