<?xml version="1.0" encoding="UTF-8"?>
<svg xmlns="http://www.w3.org/2000/svg" viewBox="1707.99 20 20.69 36.67">
  <path d="M 1719,53.290565 C 1714.684,51.703609 1709.9924,44.017416 1710.0098,38.562171 1710.0235,34.260044 1714.2161,25.743649 1717.3222,23.708425 1718.7563,22.768791 1720.9074,22 1722.1025,22 1724.1354,22 1724.2356,22.338095 1723.6583,27.25053 1723.0506,32.420424 1724.1617,45.953665 1725.4537,49.121061 1726.6795,52.125816 1722.7451,54.667629 1719,53.290565 z M 1721.6359,45.360429 C 1721.2862,42.808665 1721,37.375669 1721,33.287105 1721,26.803696 1720.7808,25.895571 1719.2852,26.183598 1716.5742,26.705684 1713,32.853385 1713,36.994245 1713,43.008013 1716.9022,50 1720.2584,50 1722.0784,50 1722.2108,49.554242 1721.6359,45.360429 z"/>
</svg>
