<?xml version="1.0" encoding="UTF-8"?>
<svg xmlns="http://www.w3.org/2000/svg" viewBox="2449.65 16.16 68.66 92.02">
  <path d="M 2454.8835,102.35965 C 2453.9785,101.2692 2453.3968,97.056285 2453.1482,89.792466 2452.766,78.628243 2454.1554,70.64723 2457.7254,63.5 2459.6414,59.664095 2464.7579,54.218346 2468.084,52.474822 2470.1012,51.417431 2471.2586,49.266401 2473.36,42.669463 2477.87,28.511257 2483.7796,22.255873 2491.5,23.46817 2498.9057,24.631056 2507,35.16973 2507,43.648943 2507,51.019939 2509.1492,59.357644 2511.7828,62.203248 2513.5064,64.065627 2514.4299,66.418152 2514.7516,69.766201 2515.1809,74.234968 2514.9388,74.922508 2511.7412,78.312952 2505.9434,84.460386 2501.6959,83.170449 2497.5869,74.014369 L 2494.856,67.928971 2497.098,63.297558 2499.34,58.666145 2497.0477,51.932924 C 2494.4226,44.22228 2490.9627,37.694648 2489.5,37.693042 2488.2621,37.691683 2485.1953,42.832367 2484.0485,46.830936 2483.3066,49.417662 2483.7095,50.498036 2487.0968,55.006189 2490.8555,60.00847 2490.9985,60.484076 2490.9588,67.850411 2490.9274,73.671643 2490.3896,76.563317 2488.7088,79.948768 2485.6047,86.200725 2484.0056,86.330679 2483.9766,80.333333 2483.9604,76.964445 2483.1174,73.985057 2481.1946,70.5 2478.7157,66.007231 2478.1066,65.515262 2475.1903,65.650448 2473.4053,65.733195 2471.2563,66.37232 2470.4148,67.070727 2465.7318,70.957219 2460.0269,86.988951 2460.0078,96.315741 2459.9998,100.24512 2458.5727,104 2457.0873,104 2456.624,104 2455.6323,103.26184 2454.8835,102.35965 z M 2458.0844,91.855037 C 2459.9934,76.651521 2466.3162,65.183986 2474.0707,62.86066 2477.2163,61.918242 2478.3242,61.982423 2480.2071,63.216117 2482.6324,64.805255 2486.0133,72.813832 2486.0049,76.95 2485.995,81.852759 2488.163,77.29366 2488.71,71.261454 2489.3828,63.842286 2487.7662,58.626325 2483.9105,55.775699 2481.6436,54.099697 2481.0002,52.83626 2481.0008,50.061942 2481.0016,46.487588 2485.8661,34.818811 2487.8723,33.578913 2489.3904,32.640677 2493.7968,35.767885 2494.5802,38.33946 2494.9421,39.527757 2496.0285,42.3 2496.9944,44.5 2497.9602,46.7 2499.3275,50.807334 2500.0328,53.62741 2501.1445,58.072217 2501.0957,59.303652 2499.6657,62.87741 2498.1373,66.697255 2498.1362,67.312101 2499.6503,71.25 2500.5491,73.5875 2502.1014,76.368424 2503.0998,77.42983 2504.6477,79.075242 2505.2976,79.185447 2507.5096,78.177594 2510.8665,76.648087 2513.3224,70.978124 2512.0629,67.665371 2511.5547,66.32871 2509.7576,64.251543 2508.0694,63.049445 2505.0955,60.931846 2505,60.622556 2505,53.113407 2505,42.863177 2502.7672,35.476905 2498.2531,30.794404 2488.1758,20.341044 2478.3665,28.461673 2473.5439,51.25 2473.1461,53.129738 2472.3344,54 2470.979,54 2468.7698,54 2461.7155,60.910415 2459.3235,65.417922 2455.467,72.684941 2453.1712,103.16215 2456.7498,99.583525 2456.9789,99.354464 2457.5794,95.876644 2458.0844,91.855037 z"/>
</svg>
