<?xml version="1.0" encoding="UTF-8"?>
<svg xmlns="http://www.w3.org/2000/svg" viewBox="1516.29 17.74 98.23 90.01">
  <path d="M 1521.1875,49.40625 1520.75,51.1875 1520.875,55.53125 C 1521.2919,55.055854 1521.8288,55.420537 1523.3438,56.84375 1526.3874,59.703047 1530.1834,59.563969 1535.625,56.375 1539.9814,53.821949 1540.2216,53.80573 1543.8125,55.375 1548.7598,57.536976 1555.8675,57.826393 1557.0625,55.9375 1558.5653,53.562048 1558.1359,42.369676 1556.375,37.96875 1554.4437,33.141805 1555.3219,30.248404 1559.4062,28.0625 1561.926,26.713932 1562.2655,26.796707 1565.2188,29.75 L 1568.3438,32.875 1567.0625,41.4375 C 1566.361,46.152545 1566.0863,51.163185 1566.4375,52.5625 1567.0343,54.940499 1567.3548,55.080991 1571.4375,54.46875 1575.1222,53.916195 1576.1471,54.147045 1578,56 1580.7462,58.746152 1584.8438,59.969783 1587.7188,58.90625 1593.7414,56.678301 1601.3953,29.5 1596,29.5 1594.8641,29.5 1594.3717,31.199297 1593.9375,36.5 1593.6221,40.35 1592.9837,44.625 1592.5312,46 1591.1214,50.284137 1587.0487,56 1585.4062,56 1584.5432,56 1581.8223,54.349161 1579.375,52.34375 1575.4414,49.120472 1574.6509,48.849448 1572.4688,49.84375 1570.1837,50.884842 1569.9833,50.744333 1569.8438,48.21875 1569.3383,39.071476 1570.7683,36.174833 1575.625,36.3125 1579.9233,36.43434 1583,33.361118 1583,29 1583,24.288532 1580.6099,23.315622 1575.4062,25.84375 1569.5494,28.689186 1568.6017,28.589961 1565.7188,24.90625 1563.3708,21.906079 1563.21,21.83137 1560.4062,23.28125 1558.8125,24.105477 1556.6402,25.749941 1555.5938,26.90625 1553.218,29.531463 1551.8046,29.546566 1549.5,27 1547.4888,24.777629 1543.0377,24.337313 1541.1875,26.1875 1539.4017,27.973272 1539.787,34.169931 1541.8438,36.84375 1543.5441,39.054291 1543.8735,39.127026 1547.8438,37.9375 1553.5171,36.237743 1554.3578,37.28324 1554.4375,46.25 1554.501,53.40631 1554.4561,53.507103 1551.8125,53.8125 1550.3365,53.983009 1547.7842,53.420509 1546.125,52.5625 1541.8753,50.364915 1539.0331,50.609614 1534.6875,53.5625 1531.3767,55.812292 1530.5344,55.992 1527.7188,55.03125 1525.9538,54.429043 1523.7296,53.345736 1522.7812,52.625 1522.0813,52.093005 1521.5728,50.866908 1521.1875,49.40625 z M 1579.8125,27.625 C 1581.1184,28.000444 1580.9942,29.592085 1579.0625,31.15625 1576.4735,33.252713 1575.3881,33.456204 1574.4688,31.96875 1573.6349,30.619422 1575.519,28.344475 1578.0312,27.6875 1578.7714,27.493933 1579.3772,27.499852 1579.8125,27.625 z M 1544.7188,29.25 C 1546.2499,29.008448 1547.5674,29.886653 1547.8125,31.59375 1547.9765,32.73626 1547.4695,34.19476 1546.6875,34.84375 1545.5461,35.791049 1544.9216,35.5283 1543.5312,33.40625 1542.1042,31.228279 1542.0394,30.594283 1543.1562,29.875 1543.6875,29.53283 1544.2084,29.330517 1544.7188,29.25 z M 1609.0938,31.03125 C 1608.7754,31.057307 1608.2689,31.345966 1607.5938,31.90625 1606.0191,33.213173 1600.6559,43.968162 1599.5625,48 1597.2723,56.444824 1591.6164,66 1588.9062,66 1587.8997,66 1584.7368,65.065526 1581.875,63.9375 1574.8066,61.151392 1571.1314,61.644975 1568.375,65.75 1564.1716,72.009961 1564.1174,87.223853 1568.2812,91.75 1569.4197,92.9875 1571.0709,93.981191 1571.9375,93.96875 1574.6389,93.929971 1589.2598,87.553834 1589.0625,86.5 1588.815,85.178038 1585.2826,85.669237 1581.1875,87.59375 1579.3719,88.447002 1576.375,89.388315 1574.5312,89.6875 1570.3674,90.363218 1569.3135,88.723851 1568.9375,81 1568.4973,71.956806 1568.9059,69.475752 1571.125,67.09375 1573.4787,64.567331 1575.3368,64.72813 1582.6562,68.0625 1587.5807,70.305837 1589.9866,70.484872 1592.2812,68.75 1594.4895,67.080451 1601.5611,53.365741 1603.0312,47.90625 1603.6767,45.509442 1605.5247,40.919532 1607.1562,37.6875 1609.389,33.264572 1610.0488,30.953078 1609.0938,31.03125 z M 1520.9688,58.65625 1521.2188,67.1875 1521.375,67.53125 C 1521.3814,67.520072 1521.3686,67.318888 1521.375,67.3125 1521.6169,67.07059 1523.5883,67.38358 1525.75,68.03125 1529.3048,69.096281 1530.2279,68.949703 1535.4062,66.5 1543.4031,62.716894 1547.0698,63.480287 1549.9688,69.46875 1552.8267,75.372404 1553.0024,83.188961 1550.3438,86.75 1547.2325,90.91714 1543.5285,91.930915 1536.7188,90.53125 1533.5432,89.878527 1530.4281,88.834366 1529.7812,88.1875 1529.1345,87.540634 1527.8353,87 1526.9062,87 1525.9771,87 1524.2001,86.184662 1522.9688,85.1875 1522.5746,84.868313 1522.2991,84.545325 1522.0312,84.21875 L 1521.6875,84.65625 1521.3125,90.65625 C 1522.8812,89.914176 1526.7256,90.802332 1536.0312,94.15625 1537.998,94.865071 1543.5,94.745848 1543.5,94 1543.5,93.921235 1544.8158,93.679974 1546.4375,93.46875 1550.4883,92.941132 1554.2233,89.948589 1555.1875,86.4375 1557.1929,79.134987 1553.0616,65.261047 1547.7812,61.5625 1544.6604,59.376535 1542.0441,59.60201 1536.5938,62.5 1534.0077,63.875 1530.871,65 1529.625,65 1527.1551,65 1522.6512,61.383732 1520.9688,58.65625 z M 1521.1562,93.09375 1520.7812,98.53125 C 1522.0305,97.789545 1523.7718,97.790527 1524.5,98.96875 1524.8345,99.509993 1527.227,100.63804 1529.8125,101.46875 1536.641,103.66273 1546.8566,102.82147 1552.6875,99.5625 1557.1695,97.057465 1561,96.229556 1561,97.78125 1561,99.199121 1566.752,102.00473 1569.6562,102 1574.3314,101.99239 1590,94.935804 1590,92.84375 1590,91.389431 1587.0408,92.179344 1578.1875,95.90625 L 1570.8438,98.96875 1565.4688,96 C 1559.1614,92.490711 1556.1778,92.245284 1553.1875,95.03125 1550.7341,97.316945 1541.9067,99.27538 1536.8438,98.65625 1533.5065,98.248138 1524.0247,94.873393 1521.1562,93.09375 z"/>
</svg>
