<?xml version="1.0" encoding="UTF-8"?>
<svg xmlns="http://www.w3.org/2000/svg" viewBox="1804.67 16.22 45.09 88.08">
  <path d="M 1810.8438 56.65625 L 1811.5938 57.3125 L 1810.6562 69.5625 L 1809.7812 70.3125 C 1811.2819 70.077806 1812.0265 70.768883 1812.8438 72.5625 C 1814.4184 76.018406 1814.3 78.001311 1812.4062 80.09375 C 1808.2807 84.652378 1806.7168 95.507888 1809.7812 98.28125 C 1812.001 100.29002 1813.2036 99.549659 1815.8125 94.5 C 1818.9952 88.339868 1822.7623 84.790332 1825.3438 85.53125 C 1827.9596 86.282001 1832 90.564071 1832 92.5625 C 1832 94.952426 1839.9192 100 1843.6562 100 C 1847.5155 100 1847.7121 99.216159 1845.4375 92.875 C 1842.5358 84.785757 1841.908 78.091202 1843.5312 72.625 C 1845.6342 65.543696 1845.5184 64.660035 1842.75 66.125 C 1841.5125 66.779857 1838.5596 68.878417 1836.1875 70.8125 L 1831.875 74.34375 L 1829.625 71.9375 C 1828.3928 70.605412 1826.8258 67.44652 1826.125 64.9375 C 1824.9496 60.729088 1825.0192 60.070527 1827.125 56.4375 C 1829.9853 51.502616 1831.0532 50.761227 1832.9688 52.40625 C 1835.6655 54.72227 1841.0075 56.054043 1843.0938 54.9375 C 1845.4421 53.680735 1845.458 53.947945 1842.7812 48.8125 C 1839.87 43.22695 1839.2305 33.769801 1841.4062 28.5625 C 1842.6188 25.660592 1842.7257 24.399998 1841.875 23.375 C 1840.2504 21.417493 1839.3276 21.634916 1835.0625 25.0625 C 1831.7404 27.732193 1826 37.106202 1826 39.84375 C 1826 41.379522 1823.2279 41.988061 1822.1875 40.6875 C 1820.8676 39.037455 1818 28.738439 1818 25.65625 C 1818 20.220315 1814.9069 22.330947 1810.6562 30.65625 C 1808.1059 35.651433 1808.1932 44.818433 1810.8125 49.84375 C 1812.0241 52.168201 1813 54.505613 1813 55.03125 C 1813 55.274644 1812.1274 55.889254 1810.8438 56.65625 z M 1837.125 27 C 1837.5584 27 1837.671 29.869481 1837.3438 33.375 C 1836.9069 38.053092 1837.1959 41.260059 1838.5 45.40625 C 1839.4773 48.513191 1840.0314 51.31224 1839.7188 51.625 C 1838.5461 52.797639 1835.2471 50.874818 1834.0938 48.34375 L 1832.9062 45.71875 L 1829.875 48.59375 C 1828.1982 50.185745 1825.7287 53.627147 1824.4062 56.21875 C 1822.2269 60.489878 1822.1064 61.396358 1823.0938 66 C 1823.8774 69.653737 1825.1877 72.042723 1827.75 74.53125 C 1829.709 76.433785 1831.8503 78 1832.5 78 C 1833.1497 78 1834.8736 76.65 1836.3438 75 C 1839.9884 70.909473 1840.8377 71.223517 1840.25 76.4375 C 1839.963 78.983736 1840.4868 83.836501 1841.4688 87.84375 C 1843.7887 97.309936 1843.4666 98.568853 1839.3125 96.03125 C 1837.5518 94.955622 1835.3535 92.593072 1834.4375 90.78125 C 1832.1607 86.278036 1828.9844 83 1826.9375 83 C 1826.0007 83 1824.6847 82.325 1824 81.5 C 1823.3153 80.675 1822.2451 80.003758 1821.625 80 C 1821.0048 79.996242 1819.5036 78.51437 1818.2812 76.71875 C 1810.7427 65.644345 1813.1878 53.771249 1824.6562 45.6875 C 1827.1062 43.960573 1829 41.815948 1829 40.78125 C 1829 36.568199 1834.6365 27 1837.125 27 z M 1815.4062 28.5 L 1816.0625 31.5 C 1816.4224 33.15 1817.4361 36.85968 1818.3125 39.75 C 1819.8658 44.872369 1819.8296 45.06135 1817.6875 47.46875 C 1815.6766 49.728713 1815.3441 49.813955 1813.5312 48.4375 C 1810.7209 46.303827 1810.6531 35.695989 1813.4375 31.46875 L 1815.4062 28.5 z M 1816.0312 81.0625 C 1817.1027 81.085824 1818.1951 81.518041 1818.9062 82.375 C 1819.7942 83.444839 1819.2457 84.937279 1816.4375 89.125 C 1812.4847 95.019678 1811.2944 95.920668 1810.4375 93.6875 C 1809.7841 91.984983 1811.699 84.103904 1813.2188 82.25 C 1813.8964 81.423275 1814.9598 81.039176 1816.0312 81.0625 z "/>
</svg>
