<?xml version="1.0" encoding="UTF-8"?>
<svg xmlns="http://www.w3.org/2000/svg" viewBox="2800.5 29.25 23.98 78.06">
  <path d="M 2802.5 90.53125 L 2802.5 94.71875 C 2804.9189 96.52729 2806.7958 96.097778 2808.9375 93.375 C 2813.3449 87.77193 2815.7825 73.361794 2816.2812 50.28125 C 2816.5421 38.20827 2817.113 34.769303 2818.5312 36.1875 C 2818.8168 36.473066 2819.3187 44.525149 2819.6562 54.09375 C 2820.1635 68.475792 2819.9733 72.973262 2818.5312 80 C 2816.7154 88.848594 2813.3142 95.991014 2809.6875 98.53125 C 2807.8495 99.818649 2804.991 100.14527 2802.5 99.6875 L 2802.5 102.65625 C 2810.0931 103.76226 2816.4859 96.990602 2820.5938 83 C 2822.1797 77.598725 2822.4795 73.541895 2822.375 59 C 2822.2222 37.720852 2821.5042 33.623708 2817.7812 33.1875 C 2814.4464 32.79678 2814.2573 33.699815 2813.5938 56 C 2813.1047 72.436609 2811.6879 82.122416 2808.6875 89.25 C 2806.908 93.47703 2805.1149 93.764726 2802.5 90.53125 z "/>
</svg>
