<?xml version="1.0" encoding="UTF-8"?>
<svg xmlns="http://www.w3.org/2000/svg" viewBox="3147.17 20.11 49.1 82.64">
  <path d="M 3153.6107,96.467854 C 3149.4013,92.258468 3150.2593,78.197856 3155.384,67.406669 3159.5724,58.587043 3159.6727,57.5424 3157.1034,49.5 3153.1324,37.070299 3151.7951,26.862719 3153.9621,25.52345 3154.4912,25.196428 3156.7941,27.889741 3159.0796,31.50859 3161.3651,35.127438 3163.7356,37.921476 3164.3473,37.717563 3164.959,37.513651 3166.3901,34.908306 3167.5275,31.927909 3170.6045,23.864939 3173.4086,24.162141 3175.8841,32.813601 3176.5642,35.190441 3177.629,36.956989 3178.2557,36.748099 3178.8812,36.539593 3180.9232,34.148472 3182.7935,31.434498 3185.4095,27.638434 3186.7998,26.5 3188.8194,26.5 3191.1425,26.5 3191.5391,27.017902 3192.2657,31 3193.4591,37.540723 3192.3155,44.578269 3188.82,52.203125 L 3185.7471,58.906251 3187.8151,62.411274 C 3194.0355,72.953947 3192.8059,98 3186.0679,98 3183.9514,98 3183.5203,96.924207 3182.6613,89.5 3182.4068,87.3 3181.2857,83.475 3180.1699,81 L 3178.1413,76.5 3178.0706,81.038387 C 3177.9955,85.867628 3175.0955,95.31595 3173.0781,97.304541 3171.3703,98.987987 3169,95.574156 3169,91.430994 3169,87.955598 3166.6438,81.515933 3165.0006,80.500398 3163.7981,79.757165 3159.0242,89.461434 3159.0098,92.678571 3159.0016,94.511467 3156.7007,98 3155.5,98 3155.3036,98 3154.4534,97.310534 3153.6107,96.467854 z M 3157.9549,87.221483 C 3158.0235,85.276933 3163.9125,74 3164.8594,74 3167.5069,74 3170.9896,81.863631 3171.0153,87.899223 3171.0342,92.336603 3172.5124,95.230404 3173.3053,92.382128 3174.4155,88.394064 3175.993,80.296203 3176.5454,75.75 3177.1708,70.603164 3179.0973,69.444723 3181.0289,73.053996 3182.9104,76.569566 3184.9772,84.339503 3185.0045,88 3185.0375,92.419551 3186.4152,94.966338 3187.3937,92.41653 3190.2627,84.939844 3188.6324,69.223282 3184.2979,62.574021 3182.0774,59.167598 3181.9103,58.37357 3183.0351,56.574021 3188.4571,47.899977 3190.5148,39.868916 3189.1931,32.53976 L 3188.479,28.579519 3184.8223,33.560875 C 3182.8112,36.300621 3180.6062,39.770229 3179.9223,41.271116 3177.749,46.041163 3175.6172,44.693981 3173.1329,36.980504 3171.8895,33.119782 3170.5099,30.184895 3170.0671,30.458533 3169.6243,30.732171 3168.9449,34.592538 3168.5572,39.037125 3167.9636,45.842153 3167.5878,47.067274 3166.1778,46.79573 3164.5674,46.485584 3161.7646,42.256565 3158.4388,35.118404 3157.3792,32.84423 3156.5328,32.067192 3155.8543,32.745659 3154.8707,33.729275 3156.1756,38.0446 3162.0367,53.190491 L 3164.2388,58.880981 3162.09,61.612706 C 3156.6998,68.465277 3153.6206,80.022393 3154.7216,89.268888 L 3155.3444,94.5 3156.6271,91.5 C 3157.3326,89.85 3157.9301,87.924667 3157.9549,87.221483 z M 3168.5567,67.777494 C 3167.6777,66.522519 3167,63.48522 3167,60.800547 3167,56.867572 3167.4204,55.770675 3169.4329,54.451981 3173.7996,51.590819 3178,55.820982 3178,63.079798 3178,65.334409 3177.2342,66.496295 3174.75,68.01096 3170.6781,70.493628 3170.4532,70.48515 3168.5567,67.777494 z M 3173.5,62 C 3173.5,60.166667 3172.9912,58.497068 3172.3693,58.28978 3170.9967,57.832223 3169.7593,62.209045 3170.6241,64.462801 3171.6539,67.146293 3173.5,65.565329 3173.5,62 z"/>
</svg>
