<?xml version="1.0" encoding="UTF-8"?>
<svg xmlns="http://www.w3.org/2000/svg" viewBox="717.87 14.78 60.71 91.38">
  <path d="M 775.59375 27.53125 C 775.41502 27.272544 775.21028 27.076192 775.0625 26.6875 C 774.58741 25.437902 773.57117 23.874327 772.78125 23.21875 C 769.55222 20.538889 766.70435 25.933731 762 43.59375 C 759.12227 54.396696 758.37989 54.986204 751.9375 51.96875 C 746.60083 49.469187 744 46.059501 744 41.59375 C 744 39.678585 745.26792 38.257105 749.46875 35.46875 C 753.69551 32.663189 755.18204 30.9887 755.96875 28.15625 C 758.31253 19.717791 756.39922 18.928706 748.65625 25.09375 C 743.53675 29.169959 743.50461 29.179543 742 27.0625 C 738.01104 21.449864 737.53868 21.09477 734.65625 21.6875 C 732.78372 22.072556 730.34095 24.130332 727.5 27.75 C 720.62588 36.50834 720.76157 40.806773 728 44.875 C 734.03833 48.268732 735.45862 50.595185 735.125 56.5625 C 735.06167 57.695373 733.02319 60.935088 730.59375 63.78125 C 723.48638 72.107748 723.63217 75.66402 731.46875 84.5 C 735.28908 88.807541 735.72914 91.10053 733.5 95 C 732.71398 96.375 732.05073 98.5125 732.03125 99.75 C 732.00471 101.43509 732.57558 102 734.28125 102 C 737.55628 102 740.42687 99.677678 743.40625 94.59375 C 746.78932 88.820983 746.68335 84.937819 743 78.5 C 739.68292 72.702346 739.69467 68.485345 743.0625 65.4375 C 745.08572 63.606511 747.88738 63.950612 754 66.78125 C 758.48177 68.85667 758.98145 69.631751 759 74.6875 C 759.02103 80.419836 760.91745 88.249282 762.96875 90.96875 C 764.98338 93.639606 767.77346 93.149996 769.9375 89.75 C 772.69155 85.423037 770.56757 67.069551 766.75 62.25 C 766.10978 61.441742 766.0926 60.558258 766.71875 59.75 C 768.2283 57.801396 774 39.670098 774 36.875 C 774 35.499113 774.5625 33.6866 775.25 32.84375 C 775.35662 32.713038 775.66301 32.520612 775.8125 32.375 L 775.59375 27.53125 z M 754.625 24.28125 C 755.90609 25.56234 751.66513 30.992852 747.125 33.90625 C 741.87113 37.277647 740.99402 38.57896 741 42.84375 C 741.00578 46.973177 744.33867 51.44156 749.53125 54.34375 C 758.28898 59.238536 760.67835 57.762355 763.8125 45.5 C 767.14809 32.449507 768.91436 27.31596 770.5 26 C 771.8004 24.920759 772.01031 25.523225 772 30.625 C 771.99347 33.854845 771.26311 38.975 770.40625 42 C 769.54939 45.025 768.44218 49.136939 767.9375 51.15625 C 766.88418 55.370782 763.28305 61.930812 761.03125 63.71875 C 758.8161 65.477594 757.50935 65.309945 751.4375 62.4375 L 746 59.84375 L 742.9375 62.03125 C 737.40611 65.969947 736.24882 74.039613 740.4375 79.53125 C 741.78315 81.295495 743.18215 83.859067 743.53125 85.25 C 744.17715 87.823454 742.2053 92.84381 739.21875 96.25 C 737.06226 98.709511 735.62559 98.444538 736.5 95.75 C 738.7185 88.913563 738.27086 86.697172 733.625 81.71875 C 727.11537 74.743124 726.80732 72.021591 731.9375 65.9375 C 737.30881 59.567445 739.03269 55.40999 738.125 50.96875 C 737.55548 48.182165 736.24833 46.69405 731.46875 43.4375 C 728.00197 41.075418 725.3624 38.53358 725.1875 37.34375 C 724.74552 34.336999 731.0217 26.560369 734.1875 26.1875 C 736.23802 25.945991 737.23034 26.624694 738.96875 29.4375 C 740.17725 31.392891 741.40684 33 741.6875 33 C 742.17297 33 744.25895 31.463977 751.0625 26.125 C 752.72668 24.819063 754.33268 23.988924 754.625 24.28125 z M 764.90625 65 C 766.57311 65 768.26225 70.92151 768.71875 78.5 C 769.07457 84.407096 768.81161 86.984896 767.78125 88.34375 C 766.47008 90.072933 766.29948 90.072183 764.96875 88.46875 C 762.48932 85.481216 761.01551 79.686956 761 72.84375 C 760.98537 66.388391 761.68225 65 764.90625 65 z "/>
</svg>
