<?xml version="1.0" encoding="UTF-8"?>
<svg xmlns="http://www.w3.org/2000/svg" viewBox="622.19 34.3 17.36 59.4">
  <path d="M 632.875 37 L 631.21875 37.96875 L 629.71875 37.96875 C 629.85342 38.745887 630 39.362973 630 40.84375 C 630 44.219447 629.38068 46.525995 628 48.28125 C 625.51051 51.446118 625.48537 51.945575 627.90625 51.3125 C 629.65682 50.854715 629.85288 51.494739 630.15625 58.65625 C 630.4783 66.25871 630.40721 66.596236 627.5 69.375 L 624.5 72.25 L 627.21875 71.59375 C 629.554 71.053617 630.04067 71.358884 630.59375 73.5625 C 631.74741 78.15906 630.3279 84.308803 627.5625 86.6875 C 625.02069 88.873875 624.18966 91 625.875 91 C 626.35765 91 627.34293 90.304532 628.0625 89.4375 C 629.00127 88.306353 630.30947 88.02263 632.6875 88.46875 C 635.30126 88.959095 636 88.743498 636 87.5 C 636 86.632816 635.325 85.691583 634.5 85.375 C 633.3978 84.952048 633 83.211459 633 78.8125 C 633 73.666873 633.28096 72.730789 635 72.28125 C 637.55106 71.614133 637.53188 70.199085 634.9375 67.4375 C 633.32197 65.717847 632.82707 63.705352 632.625 58.125 C 632.39948 51.89716 632.58545 51 634.125 51 C 637.10471 51 637.31124 49.018487 634.59375 46.5 C 632.00516 44.10098 631.49679 41.001582 632.875 37 z "/>
</svg>
