<?xml version="1.0" encoding="UTF-8"?>
<svg xmlns="http://www.w3.org/2000/svg" viewBox="1152.66 15.33 93.77 93.52">
  <path d="M 1204.3306,94.75 C 1203.99,92.9625 1202.9345,89.925 1201.9852,88 1200.0819,84.140754 1200.5631,81.697075 1204.9004,73.195323 1207.2022,68.683407 1209.6794,67.822237 1212.4336,70.576486 1215.263,73.405809 1221.0198,87.072818 1220.4084,89.508884 1220.0947,90.758994 1220.3112,92.074308 1220.8897,92.431804 1223.7269,94.1853 1223.5551,76.907898 1220.68,71.348146 1217.8899,65.952714 1213.2147,62 1209.6231,62 1207.8504,62 1205.9119,62.488099 1205.3153,63.084665 1204.7188,63.681231 1203.1663,64.018731 1201.8653,63.834665 1199.778,63.539333 1199.4023,62.771112 1198.6691,57.298205 1197.5944,49.2768 1199.2211,41.0804 1202.4988,38.001123 L 1204.9114,35.734635 1209.7932,38.867318 C 1212.4783,40.590293 1215.0162,42 1215.4332,42 1217.4,42 1222.031,46.450356 1225.8401,52.00103 1229.9073,57.927657 1234.8732,70.290996 1236.4839,78.5 L 1237.2688,82.5 1238.1398,79.5 C 1239.1323,76.081517 1236.6318,57.872248 1234.6918,54.390667 1234.0363,53.214272 1232.6901,50.824181 1231.7003,49.079354 1229.92,45.941243 1229.9273,45.875064 1232.3812,42.958866 1235.6248,39.10399 1236.2715,36.844271 1235.0502,33.632082 1233.7085,30.103122 1231.7624,30.316428 1227.1317,34.5 1225.0009,36.425 1222.8621,37.999987 1222.3788,37.999971 1221.8955,37.999954 1220.2224,36.398711 1218.6608,34.441652 1209.9029,23.465397 1201.0147,22.169803 1194.5534,30.927599 1191.9195,34.497623 1191.9088,34.778968 1193.3721,61.867562 1193.5751,65.625898 1190.3054,66.158902 1184.4916,63.315184 1173.4616,57.920011 1165.7508,64.158255 1161.7051,81.75 1160.9145,85.1875 1160.59,88 1160.9839,88 1161.3777,88 1162.9446,85.071549 1164.4658,81.492332 1169.4236,69.827047 1178.7567,65.356883 1184.3288,71.978851 1187.0492,75.21188 1193,87.153954 1193,89.380224 1193,90.136411 1192.325,91.315311 1191.5,92 1190.675,92.684689 1190,94.120432 1190,95.190539 1190,97.089966 1190.069,97.087057 1192.9044,95.068094 1197.0139,92.141866 1201.3745,92.331846 1202.818,95.5 1204.3946,98.96012 1205.0692,98.62561 1204.3306,94.75 z M 1187.3297,97.75 C 1187.6129,94.8625 1188.147,91.095958 1188.5167,89.379908 1189.7636,83.592205 1181.7208,71.028594 1176.7529,71.003738 1175.0507,70.995222 1167.9245,78.453261 1167.3178,80.878225 1165.171,89.458059 1160.2787,95.678651 1157.7031,93.103108 1156.9269,92.326877 1157.2357,89.826965 1158.7954,84.260468 1159.9913,79.99221 1161.2253,75.375 1161.5375,74 1162.3699,70.334501 1168.5803,62.226606 1172.2865,59.966852 1176.2146,57.571767 1179.1208,57.498797 1184.763,59.653584 1187.3136,60.627663 1189.4387,60.93586 1189.9345,60.403584 1190.3974,59.906613 1190.3497,54.125187 1189.8284,47.555972 1189.3071,40.986757 1189.139,34.582509 1189.4547,33.324312 1190.2278,30.244301 1195.5977,24.259398 1199.3112,22.339077 1204.6432,19.581775 1209.122,21.018318 1216.6232,27.891773 L 1223.2632,33.976111 1226.6664,30.988055 C 1228.8358,29.083286 1231.1631,28 1233.0858,28 1235.6247,28 1236.3494,28.59202 1237.6649,31.740519 1238.9681,34.859511 1239.0223,36.064177 1237.9909,38.990519 1237.3106,40.920734 1236.1227,43.223383 1235.351,44.107517 1234.1325,45.503556 1234.2869,46.368349 1236.5244,50.681077 1241.2747,59.837118 1242.1757,80.091582 1238.0588,85.175722 1235.5882,88.226798 1234.3379,86.87224 1233.5243,80.263215 1232.1084,68.760238 1225.4337,54.270937 1218.8496,48.40758 1215.5793,45.495242 1207.1217,41 1204.9126,41 1202.2928,41 1200.6636,47.79352 1201.518,55.154782 1201.8911,58.369652 1202.5472,61 1202.9761,61 1203.4049,61 1205.2732,60.376122 1207.1279,59.613604 1211.4232,57.847634 1213.7692,58.729423 1218.9338,64.051207 1223.4851,68.741013 1224.8356,72.442007 1225.666,82.5 1226.2531,89.611212 1224.4289,97 1222.0862,97 1220.7345,97 1219,93.648836 1219,91.03729 1219,88.32707 1212.5316,74.68608 1210.4125,72.927372 1208.3227,71.192994 1207.2169,72.593398 1204.6178,80.265998 1202.7444,85.796161 1202.7456,85.843007 1204.8678,90.226871 1207.2553,95.158809 1207.5945,99.005547 1205.8,100.8 1203.9864,102.61357 1203.198,102.28352 1201.5,99 1199.4705,95.075338 1197.1566,95.211446 1193,99.5 1188.0572,104.59971 1186.6991,104.18058 1187.3297,97.75 z"/>
</svg>
