<?xml version="1.0" encoding="UTF-8"?>
<svg xmlns="http://www.w3.org/2000/svg" viewBox="1361.19 12.24 36.38 91.74">
  <path d="M 1363.1875,85.5 1363.375,90.5625 C 1363.6218,90.666304 1364.1145,91 1364.25,91 1366.8808,91 1385.5141,67.605339 1384.5625,65.5 1379.2956,53.846406 1377.7502,48.095739 1377.875,40.8125 1378.002,33.400557 1377.8441,32.886276 1373.8125,26.5625 1367.3401,16.410221 1365.3491,18.232184 1371.625,28.5625 1374.9117,33.972663 1375.2302,35.215023 1375.375,42.5 1375.4972,48.645075 1376.2327,52.313633 1378.5,58.34375 L 1381.4375,66.1875 1379.4688,69.59375 C 1376.0748,75.413134 1366.5699,85.950949 1364.7188,85.96875 1364.4121,85.9717 1363.7589,85.699077 1363.1875,85.5 z M 1363.5938,95.65625 1363.75,99.8125 C 1367.0998,99.361475 1370.6171,95.793067 1377.7812,87.5 1391.9913,71.050626 1392.5393,70.080032 1391.0312,64.1875 1390.3703,61.604644 1389.1433,57.871233 1388.3125,55.875 1387.4346,53.76554 1386.7449,48.726706 1386.6562,43.84375 L 1386.5,35.4375 1390.75,30.09375 C 1395.1409,24.566842 1395.566,21.938184 1391.6562,24.5 1388.274,26.71612 1385.0507,31.516996 1383.4375,36.78125 1381.9707,41.567987 1382.1741,43.939423 1385.125,55.5 1388.584,69.050727 1388.5853,68.634125 1385.8125,72.53125 1384.3973,74.520129 1379.2514,80.597879 1374.375,86.03125 1368.8141,92.227407 1365.9345,95.026243 1363.5938,95.65625 z M 1373.3125,18.0625 C 1373.1064,18.196485 1373,18.50108 1373,19.03125 1373,20.855249 1376.8934,27.810948 1378.2188,28.34375 1378.9209,28.626064 1380.167,28.862829 1380.9688,28.90625 1382.7531,29.002873 1390,22.110848 1390,20.3125 1390,18.024783 1387.442,18.908356 1385.1562,22 1382.1862,26.017314 1379.4423,25.851272 1376.875,21.5 1375.3728,18.953901 1373.9308,17.660544 1373.3125,18.0625 z"/>
</svg>
