<?xml version="1.0" encoding="UTF-8"?>
<svg xmlns="http://www.w3.org/2000/svg" viewBox="2807.53 23.14 19.13 79.46">
  <path d="M 2810 74.96875 L 2809.8438 80.4375 C 2809.9003 80.789347 2810 81.04173 2810 81.5 C 2810 81.735827 2809.8314 81.979486 2809.7812 82.21875 L 2809.5625 89.34375 L 2809.5312 89.6875 C 2809.7901 90.372364 2810 91.598594 2810 93.34375 C 2810 95.727084 2810.3375 98.01823 2810.75 98.4375 C 2811.1625 98.856769 2813.4215 98.981308 2815.7812 98.71875 C 2820.1825 98.229051 2824 95.732474 2824 93.34375 C 2824 93.22282 2824.1832 93.197641 2824.2188 93.09375 L 2824.1875 92.65625 L 2824.375 86.09375 C 2823.9318 85.459848 2823.6847 84.771696 2823.7812 83.9375 C 2823.9126 82.803403 2824.146 82.061691 2824.5 81.53125 L 2824.6562 75.90625 L 2824.0938 75.625 L 2824.2812 52.15625 C 2824.4255 35.862473 2824.1668 28.569041 2823.4062 28.3125 C 2822.6468 28.056328 2822.2971 32.472736 2822.25 42.71875 C 2822.2127 50.848776 2821.8646 65.375 2821.5 75 C 2820.8979 90.899792 2820.6611 92.660021 2818.8125 94.25 C 2817.6935 95.2125 2816.1957 96 2815.4688 96 C 2814.7418 96 2813.9169 95.2125 2813.6562 94.25 C 2813.3956 93.2875 2813.2949 78.55 2813.4375 61.5 C 2813.5801 44.45 2813.5029 29.9375 2813.25 29.25 C 2812.33 26.7491 2810.9077 28.082859 2811.125 31.25 C 2811.2477 33.0375 2811.2863 43.535488 2811.1875 54.5625 L 2811 74.59375 L 2810 74.96875 z "/>
</svg>
