<?xml version="1.0" encoding="UTF-8"?>
<svg xmlns="http://www.w3.org/2000/svg" viewBox="1771.91 34.87 33.17 64.01">
  <path d="M 1774.25 43.8125 L 1774.375 44.5625 L 1774.1562 49.96875 C 1774.3295 50.299875 1774.3383 50.735006 1774.0938 51.34375 L 1773.9062 55.875 L 1773.9062 56.15625 C 1774.5384 56.654164 1774.979 57.72595 1774.9062 59.25 C 1774.4673 68.450317 1779.3939 91.643946 1782.4688 94.84375 C 1783.5531 95.972234 1784.8933 95.546922 1790.625 92.1875 C 1802.5255 85.21251 1803.0715 84.015532 1797.5 76.71875 C 1795.575 74.197653 1794 71.484695 1794 70.71875 C 1794 69.952805 1795.8 67.892969 1798 66.125 C 1800.2286 64.334035 1802 62.036626 1802 60.9375 C 1802 58.628552 1798.1799 52.326337 1795.125 49.59375 C 1792.3635 47.123584 1792.454 46.18753 1795.6875 42.8125 C 1798.7821 39.582403 1798.2206 37.779346 1795.0938 40.90625 C 1792.6433 43.35681 1791 43.60048 1791 41.5 C 1791 40.675 1790.6625 39.997714 1790.25 40 C 1789.8375 40.002287 1789.4111 45.82047 1789.3125 52.90625 C 1789.1553 64.195392 1785.973 88.370799 1784.4375 89.90625 C 1783.3292 91.014591 1781.7371 87.774694 1779.9375 80.75 C 1778.1788 73.884601 1777.249 62.80101 1777.0625 46.25 C 1776.9899 39.807115 1775.7053 37.898972 1774.6875 42.75 C 1774.6084 43.127204 1774.4144 43.467196 1774.25 43.8125 z M 1793.4688 53 C 1795.4261 53 1799 57.843489 1799 60.5 C 1799 61.986046 1797.6842 63.598249 1795.0938 65.3125 C 1792.9536 66.728779 1790.9798 67.636059 1790.6875 67.34375 C 1790.1901 66.846376 1790.4132 64.059677 1791.5938 56.25 C 1791.8752 54.387968 1792.677 53 1793.4688 53 z M 1790.25 73.34375 C 1791.2974 72.696386 1795.1212 76.828681 1797.5312 81.21875 C 1798.9591 83.819932 1798.8895 84.025074 1796.25 85.625 C 1794.7318 86.545227 1792.2714 88.135095 1790.7812 89.15625 C 1787.0812 91.691595 1786.6347 91.514407 1787.375 87.8125 C 1787.7267 86.054031 1788.3116 82.213245 1788.6562 79.28125 C 1789.0009 76.349255 1789.7166 73.673402 1790.25 73.34375 z "/>
</svg>
