<?xml version="1.0" encoding="UTF-8"?>
<svg xmlns="http://www.w3.org/2000/svg" viewBox="1805.94 37.1 59.81 66.98">
  <path d="M 1824.3381,94.266794 C 1823.4802,92.213531 1821.9282,89.452844 1820.8891,88.131935 1818.1782,84.685471 1818.5148,82.493359 1822.8127,75.608063 1829.0891,65.553149 1829.5813,63.705299 1826.9364,60.127836 1822.967,54.758991 1820.5962,55.116438 1817.5463,61.543573 1816.4449,63.864641 1816.1237,66.14232 1816.5655,68.497577 1817.1376,71.547034 1816.9654,72 1815.2337,72 1810.2026,72 1808.6627,63.923965 1811.9948,55.014026 1815.863,44.670525 1823.5629,40.149182 1828.8776,45.100551 1831.8804,47.898151 1831.0165,48.487599 1827.1471,46.281223 1824.3213,44.669922 1823.7665,44.643094 1821.3312,46 1818.7085,47.461387 1813.9387,54.467074 1812.5173,58.945636 1811.6555,61.660909 1812.7253,68 1814.0453,68 1814.5704,68 1815,66.30253 1815,64.227844 1815,59.957661 1819.8833,53 1822.8803,53 1825.1956,53 1831.4084,61.87564 1831.1826,64.860707 1831.0844,66.159095 1828.9782,70.471865 1826.502,74.44464 1824.0259,78.417414 1822,82.186018 1822,82.819316 1822,84.797508 1828.4031,96.290589 1828.8157,95.052908 1829.0309,94.407294 1828.6981,91.858192 1828.0762,89.388237 1827.4542,86.918281 1827.2568,84.357992 1827.6374,83.698704 1829.1621,81.057498 1837.5472,71.007223 1838.2289,71.003732 1838.6299,71.00168 1840.9924,74.032696 1843.4789,77.739324 1847.8245,84.217079 1849.1855,89.1493 1847,90.5 1845.8433,91.214903 1845.632,95.006449 1846.75,94.986856 1847.7293,94.969694 1853.0034,83.96369 1853.0015,81.941172 1853.0007,81.083816 1851.4844,77.865452 1849.632,74.789252 1847.7796,71.713052 1845.7926,67.843794 1845.2164,66.1909 1843.9005,62.416231 1845.161,56.394519 1847.8246,53.730978 1849.7483,51.807257 1849.8606,51.804591 1852.9171,53.610091 1857.8085,56.499534 1862.711,68.5 1859,68.5 1857.9958,68.5 1857.3163,67.123736 1856.9443,64.336545 1856.352,59.899541 1854.8941,57.548878 1851.6614,55.818792 1850.0656,54.964734 1849.3881,55.116352 1848.3292,56.564518 1845.8982,59.88908 1846.8165,64.712156 1851.5673,73.572473 L 1856.1346,82.090473 1854.1432,86.295236 C 1853.048,88.607856 1851.4656,92.1875 1850.6269,94.25 1847.8666,101.03812 1841.4587,98.184051 1844.0656,91.327579 1845.4978,87.560456 1845.2033,85.397799 1842.75,81.668532 1841.5125,79.787374 1839.9642,77.40489 1839.3094,76.374123 1838.2043,74.634462 1837.8287,74.822861 1834.0751,79 1829.716,83.850834 1829.3856,85.217223 1831.1488,91.102248 1832.0469,94.099791 1832.0201,95.2708 1831.0263,96.468268 1828.7628,99.195619 1826.0203,98.292906 1824.3381,94.266794 z M 1861.1187,59.204395 C 1860.8048,51.057085 1858.456,46.736125 1853.703,45.562154 1850.6768,44.814688 1849.3066,44.978413 1846.953,46.36869 1844.5327,47.798414 1844,47.854385 1844,46.678981 1844,43.06221 1851.1379,40.985691 1855.6139,43.30032 1860.9847,46.077668 1862.2624,48.408538 1862.7727,56.359349 1863.0391,60.511059 1862.8292,63.987501 1862.2921,64.319455 1861.7385,64.661594 1861.2464,62.516086 1861.1187,59.204395 z"/>
</svg>
