<?xml version="1.0" encoding="UTF-8"?>
<svg xmlns="http://www.w3.org/2000/svg" viewBox="2226.41 15.73 35.47 91.12">
  <path d="M 2241.4062,96.896357 C 2240.3591,95.739354 2237.6303,93.695589 2235.3422,92.354658 2228.4087,88.291331 2228.6267,86.40526 2236.9122,78.773024 2239.7105,76.195342 2242,73.62329 2242,73.057353 2242,72.491416 2240.0875,70.809081 2237.75,69.31883 2232.6032,66.037554 2229,62.94691 2229,61.813576 2229,61.352788 2231.7328,58.217445 2235.0728,54.846147 L 2241.1456,48.716515 2236.5728,44.073908 C 2230.8424,38.256031 2230.7191,35.796623 2235.8339,29.339798 2243.3344,19.871283 2244.5703,19.96406 2246.034,30.105532 2247.688,41.566263 2248.7265,74.114726 2248.0327,92.75 2247.8189,98.491599 2247.6174,99 2245.555,99 2244.3202,99 2242.4533,98.053361 2241.4062,96.896357 z M 2245.1857,60.50211 C 2245.0128,54.725949 2244.6071,50 2244.2843,50 2243.2667,50 2233,60.820072 2233,61.892535 2233,62.455271 2234.9868,64.080044 2237.4151,65.50314 2239.8435,66.926237 2242.3736,68.745206 2243.0376,69.545294 2243.7016,70.345382 2244.5273,71.000949 2244.8724,71.00211 2245.2176,71.00327 2245.3585,66.27827 2245.1857,60.50211 z M 2244.2248,37.176706 C 2243.9065,31.198691 2243.3792,28.699004 2242.3535,28.305425 2240.5159,27.60024 2237.5236,30.321616 2235.9443,34.134551 2234.7648,36.982106 2234.9089,37.331433 2238.9696,41.468981 2241.7568,44.308933 2242.971,46.278633 2242.4758,47.156724 2241.9882,48.021299 2242.2439,47.965447 2243.1932,47 2244.3349,45.838812 2244.5679,43.61998 2244.2248,37.176706 z M 2245.625,91.875 C 2245.2813,90.15625 2244.985,85.31875 2244.9667,81.125 L 2244.9335,73.5 2242.9548,76 C 2241.8665,77.375 2239.5905,80.206086 2237.8969,82.291302 2234.5579,86.402557 2234.6496,88.533187 2238.2244,89.900245 2239.476,90.378871 2241.3572,91.722117 2242.405,92.885237 2245.1273,95.907299 2246.3545,95.522286 2245.625,91.875 z M 2259.875,80 C 2258.3926,76.922118 2258.046,70.448759 2257.7188,48.8125 2257.4599,31.701656 2257.0462,25.754157 2256.0312,24.53125 2253.7841,21.823439 2253.2021,24.126731 2254.1562,32 2254.9269,38.358411 2255.6568,96.531345 2255,99.5 2254.8783,100.05 2254.8098,100.89516 2254.875,101.375 2255.0559,102.70818 2258,99.941041 2258,98.4375 2258,97.295927 2258.4407,96.669797 2259.4688,96.53125 L 2259.5938,91.34375 C 2259.1211,90.663463 2259,89.799884 2259,88.3125 2259,86.213357 2259.1556,85.424269 2259.75,85.34375 L 2259.875,80 z"/>
</svg>
