<?xml version="1.0" encoding="UTF-8"?>
<svg xmlns="http://www.w3.org/2000/svg" viewBox="1400.03 13.15 95.01 97.31">
  <path d="M 1441.2448,100.75 C 1440.6948,100.0625 1439.9383,98.500007 1439.5638,97.277792 1439.1893,96.055578 1437.1092,93.53741 1434.9414,91.681864 1430.4729,87.856997 1430.1507,86.349458 1433.0214,82.699918 1437.9379,76.449559 1439.3188,66.675139 1436.044,61.304334 1433.4721,57.086322 1430.3346,55.141591 1424.935,54.418702 1421.3069,53.932967 1419.6533,54.301497 1415.846,56.444288 1413.2864,57.884929 1410.6438,59.724318 1409.9736,60.531818 1409.3034,61.339318 1407.9102,62 1406.8776,62 1405.4513,62 1405,61.267039 1405,58.95034 1405,54.407828 1407.3432,50.69312 1413.0995,46.109849 1418.3197,41.95346 1420.2518,41.442611 1429,41.905732 1432.3979,42.085612 1432.6021,41.882259 1436,34.936226 1441.8299,23.018508 1450.001,17.576829 1458.5926,19.890297 1463.5174,21.216408 1470.4218,26.966131 1472.9074,31.811129 1474.6626,35.232273 1474.9893,35.403054 1479.2751,35.139499 1483.3851,34.886753 1484.0276,35.169658 1486.3964,38.275235 1490.7251,43.950557 1489.42,50.475534 1483.38,53.355822 1478.9356,55.475237 1478.0857,57.981683 1478.1838,68.679787 1478.3214,83.664704 1472.7362,96 1465.8137,96 1462.9087,96 1462.8037,95.854985 1463.4611,92.75 1463.8396,90.9625 1464.4854,82.3 1464.8963,73.5 1465.4526,61.583675 1466.1092,56.390746 1467.4687,53.1539 L 1469.2941,48.807801 1465.253,45.1539 C 1463.0303,43.144255 1459.9858,39.8125 1458.4872,37.75 1453.9784,31.544273 1447.8524,33.329957 1444.4462,41.84286 L 1442.8102,45.931728 1446.347,50.247955 C 1450.8342,55.723955 1451.9958,58.82968 1452.1858,65.858879 1452.3388,71.51786 1450.3892,77.474611 1447.132,81.300166 1445.7525,82.920345 1445.7635,83.420264 1447.2425,86.300166 1450.795,93.217983 1445.4744,106.03668 1441.2448,100.75 z M 1445,93.622445 C 1445,90.062346 1444.493,87.824153 1443.5,87 1441.3739,85.235491 1441.6388,82.602839 1444.2721,79.326725 1451.8896,69.849692 1451.6205,60.471843 1443.4948,52.229641 1439.3741,48.049937 1439.2382,47.718487 1440.1957,44.185162 1442.2692,36.533504 1448.0148,30 1452.67,30 1456.0265,30 1459.5827,32.570243 1462.1528,36.853471 1463.3562,38.859062 1466.3666,42.325783 1468.8427,44.557296 L 1473.3446,48.614593 1471.2278,52.557296 C 1468.2072,58.183448 1467.1928,64.614337 1468.1511,72.061869 1469.1042,79.468223 1468.3806,87.298731 1466.3828,91.20034 1464.6345,94.614491 1464.6485,95.072117 1466.4798,94.369392 1471.1043,92.594779 1474.8979,79.933352 1474.9796,66 1475.0382,56.00983 1476.2052,53.141922 1481.2093,50.690871 1483.2407,49.69585 1485.1611,48.067787 1485.4768,47.072953 1487.0039,42.26153 1481.2123,36.745622 1477.0003,38.999857 1473.9441,40.635446 1473.1456,40.209288 1470.9103,35.75 1466.6112,27.173364 1460.9708,23 1453.6783,23 1449.9585,23 1448.6127,23.594832 1445.1941,26.75 1440.52,31.063928 1436,39.196169 1436,43.2917 L 1436,46.099313 1430.0594,45.427215 C 1421.0067,44.403017 1417.7415,45.407593 1412.0249,50.975711 1404.3494,58.451874 1405.7925,60.942893 1414,54.385063 1418.3005,50.948968 1418.773,50.810934 1424.6558,51.272051 1431.3358,51.79566 1433.2686,52.776544 1437.4674,57.774017 1439.8815,60.647292 1440.2317,61.935275 1440.3285,68.296711 1440.4152,73.987796 1439.962,76.460369 1438.2194,79.803489 1435.3106,85.384178 1435.4175,87.067713 1438.8917,90.396202 1440.4821,91.919914 1442.0458,94.479105 1442.3667,96.083294 1443.337,100.93512 1445,99.381071 1445,93.622445 z"/>
</svg>
