<?xml version="1.0" encoding="UTF-8"?>
<svg xmlns="http://www.w3.org/2000/svg" viewBox="62.45 13.96 102.5 88.8">
  <path d="M 150,26.059017 C 150,23.891476 150.45,21.839919 151,21.5 151.61081,21.122498 152,22.656282 152,25.440983 152,27.948442 151.55,30 151,30 150.45,30 150,28.226558 150,26.059017 z M 149.5,39 C 148.52213,37.417773 149.90993,36 152.43657,36 155.09156,36 157.42044,33.638366 157.46771,30.898105 157.51372,28.230312 159.43831,28.066428 159.81279,30.698415 160.28731,34.033481 158.31998,36.839462 154.34181,38.50165 150.08626,40.279732 150.27868,40.259927 149.5,39 z M 144.53647,27.114909 C 143.86572,25.001566 145.79822,20 147.28552,20 147.8324,20 147.97939,21.353038 147.625,23.125 147.28125,24.84375 147,26.86875 147,27.625 147,29.659972 145.22778,29.29302 144.53647,27.114909 z M 143.49529,52.25 C 143.88539,51.2875 144.66444,49.228406 145.22652,47.674236 145.78864,46.119944 146.63144,45.231436 147.09958,45.699584 148.35019,46.950187 145.9089,54 144.22523,54 143.25102,54 143.01518,53.434583 143.49529,52.25 z M 138.67137,28.851314 C 137.88535,25.845586 138.94927,21.284655 140.78917,19.772426 142.14973,18.654171 142.25629,18.908925 141.66865,21.875 141.30089,23.73125 141,26.54375 141,28.125 141,31.489017 139.48474,31.961636 138.67137,28.851314 z M 138.00081,48.75 C 138.00601,47.155641 141.89121,38.912076 142.5794,39.03524 143.68419,39.232964 143.46587,40.313382 141.32359,45.25 140.42855,47.3125 139.31459,49 138.84813,49 138.38166,49 138.00037,48.8875 138.00081,48.75 z M 132.55324,61.273901 C 130.69865,60.302186 130.1118,59.488202 130.78236,58.81764 131.45292,58.147078 132.50483,58.199807 133.95656,58.976753 135.62041,59.867217 136.46911,59.855564 137.58809,58.926893 139.29239,57.512447 140.4846,58.29478 139.70817,60.318108 138.88668,62.458883 135.64208,62.892312 132.55324,61.273901 z M 130,84.941564 C 130,83.854411 133.98554,81.65221 134.68578,82.352449 134.96875,82.635418 134.93722,83.292559 134.61572,83.812762 133.82282,85.095694 130,86.030589 130,84.941564 z M 130.75,52.428025 C 128.013,50.94318 127.04916,49 129.04966,49 131.11981,49 136.05336,52.104647 135.47368,53.042588 134.69753,54.298429 134.04001,54.212884 130.75,52.428025 z M 123.49884,94.998127 C 122.89475,94.020684 125.59399,92.641973 130.5441,91.399575 134.53312,90.398395 133.36213,92.637944 128.97976,94.39142 124.23788,96.288744 124.29274,96.282672 123.49884,94.998127 z M 123.5,29 C 123.16008,28.45 123.35852,27.94375 123.94098,27.875 124.52344,27.80625 125.5625,27.69375 126.25,27.625 126.9375,27.55625 127.5,26.6 127.5,25.5 127.5,23.939209 126.89609,23.541344 124.75,23.688264 121.97515,23.878228 120.88671,21.806085 123.05684,20.464874 126.79865,18.152308 132.13067,24.018815 129.96496,28.065475 128.8749,30.102263 124.56617,30.7251 123.5,29 z M 118.7246,75.266312 C 118.17503,74.248058 121.18438,62.990816 122.675,60.488859 124.53017,57.375001 125.26956,59.419081 123.67151,63.243765 122.8764,65.146729 121.91088,68.56801 121.52592,70.84661 120.84993,74.847728 119.58004,76.85127 118.7246,75.266312 z M 118,50.306989 C 118,48.661724 120.3617,47 122.7,47 125.40213,47 125.77614,48.543574 123.25,49.269915 122.2875,49.546663 120.7125,50.097292 119.75,50.493535 118.7875,50.889779 118,50.805833 118,50.306989 z M 119.65499,84.171259 C 118.74474,83.165452 118,81.506261 118,80.484168 118,78.898774 118.44064,79.047981 121,81.5 122.65,83.0808 124,84.739991 124,85.187091 124,86.657209 121.34246,86.035895 119.65499,84.171259 z M 113,45.414135 C 113,41.854623 116.23713,30 117.20912,30 118.44064,30 118.14473,33.338334 116.5,38 115.675,40.338299 115,43.544876 115,45.125727 115,46.706577 114.55,48 114,48 113.45,48 113,46.836361 113,45.414135 z M 104.68583,42.179163 C 104.36179,40.558953 103.80113,38.055828 103.43992,36.616663 103.06295,35.114668 103.20478,34 103.77288,34 105.17625,34 107.32405,43.07595 106.18923,44.210768 105.63692,44.763077 105.04176,43.958814 104.68583,42.179163 z M 104.5283,68.5 C 100.56481,58.87496 100.59742,59 102.05103,59 103.52716,59 106.19004,65.765416 105.73209,68.352266 105.36059,70.450806 105.33302,70.45419 104.5283,68.5 z M 101.63948,30.306147 C 99.908256,28.574923 101.3175,24.945882 105.01991,21.600978 108.96866,18.033522 109.09349,17.996983 112.07136,19.536901 115.10836,21.107394 116.78761,23.545719 115.62967,24.703664 115.2901,25.043238 114.12764,24.520496 113.04643,23.542015 109.66688,20.483571 102.24418,24.001745 103.32847,28.14808 103.82942,30.063709 102.76152,31.428189 101.63948,30.306147 z M 99,95.084029 C 99,94.580245 100.81391,92.731414 103.03092,90.975515 106.81225,87.980642 107.26115,87.862416 110.28092,89.066081 114.91205,90.912026 119.11685,94.001918 118.45501,95.0728 117.86376,96.029463 112.68503,93.793768 109.94092,91.397201 108.5998,90.225939 107.90078,90.446822 104.94092,92.977149 101.49812,95.920324 99,96.806255 99,95.084029 z M 98.024217,85.014967 C 97.051734,84.413939 97.260007,83.931216 98.861634,83.074051 100.03414,82.446544 101.98331,80.035675 103.19311,77.716564 104.68982,74.847484 105.50858,74.035144 105.75518,75.174581 106.20898,77.27139 102.56025,84.571034 100.70191,85.284145 99.941109,85.576093 98.736145,85.454963 98.024217,85.014967 z M 98.442702,48.581761 C 97.375945,47.80173 96.781785,46.884881 97.122346,46.54432 97.904004,45.762663 103,48.030934 103,49.160515 103,50.459361 100.59232,50.153597 98.442702,48.581761 z M 90,60.068094 C 90,58.952727 95.360404,55 96.872986,55 98.713037,55 97.059107,57.53387 94.064347,59.302918 90.78798,61.238315 90,61.386665 90,60.068094 z M 89.881538,29.639348 C 88.19865,25.945812 89.497713,22 92.396607,22 94.973443,22 97.520534,24.348741 96.585094,25.862315 96.262197,26.384774 95.098456,26.577002 93.999004,26.289489 92.570851,25.916018 92,26.259353 92,27.491777 92,28.846895 92.553455,29.077908 94.580904,28.56905 96.698664,28.037526 97.100892,28.242385 96.822353,29.710642 96.614703,30.805225 95.421726,31.622544 93.749903,31.815607 91.642235,32.059 90.757127,31.561058 89.881538,29.639348 z M 88,51.364671 C 88,50.312868 93.181735,45.848402 93.746741,46.413408 94.634876,47.301542 91.043877,52 89.476947,52 88.664626,52 88,51.714102 88,51.364671 z M 90.568564,85.110939 C 90.032771,84.244007 88.659684,84.028863 86.385479,84.455506 82.894699,85.110381 82.104814,84.295186 84.2,82.2 86.832526,79.567474 92.857755,81.926735 91.777625,85.167124 91.458019,86.125943 91.18812,86.113401 90.568564,85.110939 z M 81,94.174314 C 81,92.979089 85.427403,89 86.757291,89 88.438859,89 95,93.058591 95,94.098776 95,95.281637 94.874202,95.263212 90.515104,93.441864 87.13847,92.031016 86.623209,92.031016 85.064239,93.441864 83.211343,95.118713 81,95.517237 81,94.174314 z M 78.75,60.428025 C 76.013003,58.94318 75.049164,57 77.04966,57 78.829279,57 84,59.994914 84,61.02568 84,62.401795 81.960197,62.169586 78.75,60.428025 z M 75.044365,85.4417 C 71.167755,84.122987 69.786964,82 72.805883,82 74.79977,82 79.923976,85.493167 79,86.222525 78.725,86.439601 76.944964,86.08823 75.044365,85.4417 z M 73.9375,47.84375 74,48.8125 74.5625,52.09375 C 75.024246,51.167413 75.586555,51.253029 77.9375,52.46875 81.117917,54.113407 84,54.488161 84,53.25 84,52.070273 79.82185,49.711014 76.5,49.03125 75.153264,48.755662 74.393181,48.508922 73.9375,47.84375 z M 70.634518,93.397617 C 67.868925,91.518348 67.10785,90.49215 67.895518,89.704482 68.683186,88.916814 69.752309,89.172427 71.743134,90.624396 73.25941,91.730262 75.2875,92.92805 76.25,93.286146 77.2125,93.644242 78,94.401354 78,94.968615 78,96.800332 74.56334,96.06732 70.634518,93.397617 z M 138.97994,86.475834 C 138.28422,85.637543 137.96558,84.701084 138.27185,84.394814 139.16412,83.502551 143.11624,86.002901 142.46899,87.050173 141.62331,88.418511 140.42907,88.221925 138.97994,86.475834 z M 140.96987,96.702468 C 136.88807,94.54396 134.64163,92 136.81737,92 137.35859,92 140.10132,93.065563 142.91232,94.367918 146.98029,96.25264 147.74564,96.966207 146.66294,97.86477 145.62555,98.725733 144.2742,98.449842 140.96987,96.702468 z"/>
</svg>
