<?xml version="1.0" encoding="UTF-8"?>
<svg xmlns="http://www.w3.org/2000/svg" viewBox="509.22 13.8 31.05 85.47">
  <path d="M 512.34334,93.452342 C 511.22221,90.530735 512.75226,84.494242 516.00651,79 519.14099,73.707986 519.21673,73.32983 518.00952,69 513.79352,53.878705 513.13256,44.66056 515.55542,34.773844 517.34412,27.47491 521.38946,19.448263 523.73249,18.549159 525.97732,17.687737 531.78539,23.834859 533.41474,28.796627 537.97615,42.687183 538.26913,54.37766 534.36676,66.784292 532.7257,72.001656 532.73022,72.546574 534.46298,78.379469 535.46299,81.745761 536.33042,86.510709 536.39059,88.968243 536.49002,93.028876 536.23769,93.529436 533.62454,94.455405 530.98117,95.392085 530.47258,95.15445 527.32322,91.511183 524.94133,88.755738 523.66562,87.922999 523.1369,88.778492 521.97858,90.652699 515.78583,95 514.27434,95 513.53893,95 512.66998,94.303554 512.34334,93.452342 z M 520.97415,86.75 525.02053,82.5 527.26027,85.106047 C 528.49212,86.539373 530.01589,88.564373 530.64643,89.606047 531.52822,91.062799 532.07511,91.23012 533.01555,90.330882 533.97598,89.41253 533.7837,87.81581 532.11912,82.88671 529.6087,75.452945 529.50172,72.204902 531.54646,65.5 532.38511,62.75 533.34301,56.415037 533.67514,51.422305 534.2171,43.275301 534.00034,41.507852 531.56098,34.183121 529.7222,28.661739 527.99449,25.35423 526.22006,23.958458 L 523.59716,21.895284 521.86312,25.275269 C 520.9094,27.134261 519.39375,32.579505 518.495,37.375811 516.71191,46.891555 517.41252,55.765618 520.61847,64.271895 523.46415,71.822292 523.46688,74.521338 520.63258,78.237294 518.07674,81.58817 515,87.995888 515,89.967881 515,92.003936 516.99503,90.929343 520.97415,86.75 z"/>
</svg>
