<?xml version="1.0" encoding="UTF-8"?>
<svg xmlns="http://www.w3.org/2000/svg" viewBox="327.28 16.47 22.78 81.91">
  <path d="M 344.625 49.03125 C 344.17371 47.922252 343.93881 46.529391 343.6875 44.125 C 342.89857 36.576999 340.95254 31.006138 337.375 25.84375 C 334.10298 21.122229 332.39993 20.193823 330.46875 22.125 C 329.2825 23.311251 329.27796 24.380856 330.5 29.5 C 332.25159 36.837467 332.56741 77.620495 330.9375 86.4375 C 329.68707 93.201713 330.45536 94.660909 334.375 92.875 C 336.42444 91.941214 337.32158 91.915334 338.21875 92.8125 C 339.78416 94.377918 342.20334 94.29596 344.53125 92.59375 C 346.16095 91.402085 346.51183 89.477869 346.96875 79.34375 C 347.26893 72.685935 347.54411 69.812533 348.0625 68.625 L 347.90625 67.6875 L 346.5625 60.1875 C 346.17234 59.781852 345.60657 59.335764 345.5 59 C 344.94689 57.257301 345.00083 56.500306 345.90625 56.53125 L 344.59375 49.28125 L 344.625 49.03125 z M 333.125 25.25 C 333.24261 25.04329 333.61836 25.32684 334.3125 26 C 338.87506 30.424649 343.39545 55.566862 343.46875 76.96875 C 343.50421 87.321601 343.24405 89.503715 342 89.6875 C 341.175 89.809378 339.825 89.516484 339 89.03125 C 338.175 88.546015 336.7885 87.942134 335.9375 87.6875 C 334.67108 87.308564 334.5155 86.098711 335 81.03125 C 335.68778 73.837516 334.46072 31.927409 333.4375 27.5 C 333.12636 26.153681 333.00739 25.45671 333.125 25.25 z "/>
</svg>
