<?xml version="1.0" encoding="UTF-8"?>
<svg xmlns="http://www.w3.org/2000/svg" viewBox="2760.44 15.84 34.62 83.21">
  <path d="M 2764.3125 76.125 L 2764.3125 76.15625 L 2763.75 80.28125 C 2764.0775 80.263521 2764.5269 80.325003 2765.1875 80.53125 C 2766.4635 80.929625 2768.3839 81.874085 2769.4688 82.625 C 2772.1363 84.47133 2774.4071 84.351719 2776.1875 82.25 C 2778.0093 80.099429 2780 73.302545 2780 69.28125 C 2780 67.639633 2780.4127 65.000823 2780.9062 63.40625 C 2781.8743 60.278353 2783.3069 51.509057 2785.0625 38 C 2786.4726 27.149476 2786.7849 26.060393 2788.0312 28.03125 C 2789.1959 29.872997 2789.2166 41.413861 2788.0625 50 C 2787.5819 53.575 2786.6823 60.55 2786.0625 65.5 C 2784.7997 75.586176 2783.8459 79.360042 2780.7812 86.25 C 2778.3729 91.664374 2777.9124 91.758807 2769.5 88.6875 C 2764.4387 86.839668 2763.6456 86.231518 2763.3125 83.8125 L 2762.4375 90.3125 C 2762.4375 90.3125 2762.5552 91.431859 2762.5625 91.5 C 2762.9402 91.170084 2763.5257 91 2764.4375 91 C 2765.78 91 2767.113 91.400446 2767.4062 91.875 C 2768.2616 93.258928 2776.6109 95.262742 2778.7188 94.59375 C 2782.9283 93.257677 2788.2859 77.950586 2789.4375 64 C 2789.7326 60.425 2790.6472 52.775 2791.4688 47 C 2793.0536 35.859112 2792.1946 24.963489 2789.4062 21.21875 C 2788.2153 19.619248 2787.9601 19.630241 2785.9688 21.59375 C 2784.4606 23.080768 2783.5756 25.716747 2782.9375 30.59375 C 2782.4411 34.387132 2781.0931 43.35 2779.9375 50.5 C 2778.7818 57.65 2777.653 64.85 2777.4062 66.5 C 2776.3302 73.694708 2774.5942 80 2773.7188 80 C 2773.197 80 2770.6488 79.013327 2768.0312 77.8125 L 2764.3125 76.125 z "/>
</svg>
