<?xml version="1.0" encoding="UTF-8"?>
<svg xmlns="http://www.w3.org/2000/svg" viewBox="340.85 14.35 82.34 87.21">
  <path d="M 344.625 49.03125 L 344.59375 49.28125 L 345.90625 56.53125 C 346.68903 56.558003 348.10311 57.177694 350.53125 58.46875 C 353.15812 59.865468 355.81684 61 356.46875 61 C 357.12065 61 360.10933 59.278097 363.09375 57.1875 C 370.29856 52.140515 371.59515 51.739285 375 53.5 C 376.58784 54.321108 379.03519 55 380.4375 55 C 382.78438 55 383.00289 54.622229 383.1875 50.25 C 383.50135 42.817199 383.02303 37.733449 381.84375 36.3125 C 381.24851 35.595277 378.99367 35 376.84375 35 C 372.30152 35 371.20584 33.368111 372.9375 29.1875 C 374.13461 26.297427 378.6412 23 381.40625 23 C 382.27651 23 383.59656 24.4625 384.34375 26.25 C 386.83981 32.221376 388.24371 32.606942 394.46875 29.09375 C 402.90038 24.335228 405 25.038309 405 32.53125 C 405 36.971895 403.38039 37.778839 400.875 34.59375 C 398.34851 31.38184 396.56616 31.328672 392.53125 34.40625 C 389.41719 36.781463 389.35012 36.934553 389.53125 44.6875 C 389.83041 57.492167 391.03508 59.010296 397.625 54.9375 C 401.74371 52.391998 404.73118 52.718731 407.15625 56 C 409.54527 59.232505 411.98535 68.724492 412.125 75.3125 C 412.24252 80.856181 410.46378 89 409.125 89 C 408.67772 89 408.01656 85.5171 407.6875 81.25 C 406.99732 72.299944 405.31934 67.612853 401.15625 63.15625 C 396.28059 57.936842 394.45596 58.866504 391.1875 68.1875 C 387.80712 77.827674 387.51101 81.579942 389.90625 84.625 C 391.73731 86.952814 392.79444 91 391.5625 91 C 391.31894 91 389.4836 90.045354 387.5 88.875 L 383.90625 86.75 L 381.625 88.875 C 376.8663 93.34557 375.0291 89.640838 379.625 84.84375 L 382.28125 82.09375 L 380.59375 75.4375 C 378.65858 67.733572 375.55093 61.142756 373.46875 60.34375 C 372.67529 60.03927 369.55461 61.199973 366.53125 62.90625 C 363.50789 64.612527 359.99583 66.005373 358.75 66 C 355.50339 65.985998 348.92508 62.643853 346.5625 60.1875 L 347.90625 67.6875 L 348.0625 68.625 C 348.31099 68.055763 348.59623 67.750983 349 67.84375 C 360.87934 70.573032 360.89013 70.573585 365.96875 67.71875 C 368.62917 66.223259 371.33138 65 371.96875 65 C 373.3614 65 376.59367 72.060765 377.53125 77.15625 C 378.08019 80.139611 377.70715 81.546106 375.59375 84.65625 C 372.84399 88.702893 372.19322 93.81822 374.1875 95.8125 C 375.96795 97.592949 377.50985 97.278999 380.8125 94.5 C 384.5424 91.361496 385.73245 91.37211 389.0625 94.5625 C 391.53432 96.930655 391.86563 97.009372 393.375 95.5 C 395.45363 93.421369 395.46585 87.406724 393.40625 83.5 C 390.89064 78.728287 393.90461 65 397.46875 65 C 398.26318 65 400.13193 67.077265 401.625 69.625 C 404.0459 73.755954 404.37187 75.352166 404.53125 84.375 C 404.62955 89.939765 404.76194 94.8375 404.84375 95.25 C 405.12582 96.672182 408.6996 96.000986 410.3125 94.21875 C 419.44714 84.125088 415.25202 52.120521 404.4375 49.40625 C 402.68207 48.965665 400.76239 49.536824 397.9375 51.40625 C 393.10888 54.601676 392.76702 54.106737 393.1875 44.40625 C 393.46198 38.074085 393.67392 37.48632 395.78125 37.1875 C 397.31285 36.97032 398.77384 37.719779 400.125 39.4375 C 402.73154 42.751176 404.58539 42.685692 406.34375 39.25 C 408.97575 34.107304 409.23928 28.824495 407.03125 25.25 C 404.52066 21.185707 401.38142 21.018811 395.28125 24.59375 C 390.85273 27.189034 388 27.238287 388 24.71875 C 388 23.972361 386.90705 22.325639 385.5625 21.0625 C 382.63657 18.313725 379.31082 18.796173 374.15625 22.71875 C 366.84993 28.278795 366.66786 37.373593 373.84375 38.5625 C 380.15944 39.608887 380.13872 39.579055 379.8125 45.25 C 379.48533 50.93737 379.83566 50.709114 372.78125 49.3125 C 370.69865 48.90019 368.63937 49.759284 363.9375 52.96875 C 356.96482 57.72826 355.38653 57.738058 348.5 53 C 346.23937 51.444651 345.2283 50.513784 344.625 49.03125 z "/>
</svg>
