<?xml version="1.0" encoding="UTF-8"?>
<svg xmlns="http://www.w3.org/2000/svg" viewBox="1606.23 19 39.75 88.53">
  <path d="M 1611.607,100.41821 C 1610.1329,96.576809 1611.1271,90.581264 1614.3014,84.16898 1618.2785,76.135058 1618.1445,73.989933 1613.6839,74.287558 1609.9532,74.536485 1608.8273,72.75967 1612.191,71.931492 1614.212,71.4339 1614.475,70.810187 1614.2999,66.931492 1613.9196,58.507292 1613.1512,56.147694 1610.9735,56.717168 1608.2294,57.434781 1608.5061,55.533946 1611.4662,53.333407 1613.1489,52.082496 1614.1511,50.096908 1614.6206,47.083766 1615.2541,43.018466 1615.1574,42.726362 1613.4044,43.407858 1610.3561,44.592888 1609.777,44.573492 1609.2984,43.270329 1609.0482,42.588875 1610.4835,41.260207 1612.5179,40.290079 1615.43,38.901397 1616.7681,37.262123 1618.9906,32.360526 1622.3593,24.930998 1625.0199,23.019932 1627.9356,25.935591 1629.0254,27.025376 1630.8417,29.729633 1631.972,31.945051 1633.316,34.579609 1635.406,36.676659 1638.0135,38.006866 1642.7597,40.428224 1643.1405,42 1638.9809,42 1636.2057,42 1636.0113,42.222114 1636.5739,44.75 1637.7858,50.195801 1638.074,50.712681 1640.5192,51.826804 1643.6691,53.261998 1643.981,56.446144 1640.8752,55.460375 1638.1253,54.587611 1637.0349,56.344031 1637.0153,61.677522 1637.0024,65.207579 1637.5037,66.252029 1640.25,68.416433 1643.4816,70.963299 1643.1429,71.430053 1638.3384,71.050709 1635.2306,70.80533 1632.5346,80.063384 1633.9195,86.225048 1635.7738,94.475077 1635.8793,97.727326 1634.3629,99.892224 1631.9977,103.26902 1629.6303,102.47699 1627.2123,97.5 1626.0098,95.025 1624.5609,93 1623.9924,93 1623.4239,93 1621.5314,95.025 1619.7869,97.5 1616.481,102.19005 1612.7919,103.50615 1611.607,100.41821 z M 1619.9143,92.25 C 1622.187,89.3625 1624.458,87 1624.9608,87 1625.4637,87 1627.0926,89.236798 1628.5805,91.970662 1630.0685,94.704526 1631.612,96.739783 1632.0106,96.493455 1632.8136,95.997176 1631.2702,86.306551 1630.0371,84.102309 1629.5925,83.307546 1630.1086,80.287925 1631.2336,77.102309 1633.6768,70.183939 1635.1337,54.465561 1633.9855,47.411098 1633.0392,41.596894 1628.8387,31.940933 1626.3612,29.884798 1625.0085,28.762186 1624.4889,28.912937 1622.8854,30.893217 1621.8484,32.17381 1620.9972,33.959215 1620.9938,34.860784 1620.9905,35.762353 1620.226,37.85 1619.295,39.5 1617.9518,41.880616 1617.5949,45.183997 1617.5661,55.5 1617.5346,66.815142 1617.8146,69.120869 1619.7266,73.290488 L 1621.9234,78.080975 1618.3191,83.715274 C 1616.0915,87.197651 1614.5231,91.051786 1614.2126,93.806416 1613.5869,99.357336 1614.5209,99.102372 1619.9143,92.25 z"/>
</svg>
