<?xml version="1.0" encoding="UTF-8"?>
<svg xmlns="http://www.w3.org/2000/svg" viewBox="66 15.93 28.25 87.15">
  <path d="M 75.5625 48.375 L 76.375 48.8125 L 76.375 64.75 C 77.333004 67.10261 77.232427 74.742878 75.90625 75.5625 C 74.093706 76.682714 70.883331 85.216577 70.71875 89.34375 C 70.594477 92.46015 71.120748 93.712855 73.34375 95.625 C 77.398826 99.11303 81.162577 98.732557 84.90625 94.46875 C 89.846435 88.84219 88.936545 80.99295 82.6875 75.15625 C 80.352934 72.975732 80.164545 71.970126 79.5 59.5625 C 78.525406 41.366008 78.978777 39.157527 84.5625 35.625 C 89.364083 32.587291 92.252311 29.220083 91.34375 27.75 C 91.033663 27.248269 89.835727 27.739866 88.65625 28.8125 C 87.476773 29.885133 85.513843 31.25627 84.3125 31.875 C 77.969208 35.141999 78.620267 30.76862 85 27.25 C 88.012012 25.588782 89.991296 23.807251 90 22.75 C 90.019234 20.413845 89.140282 20.537962 84.78125 23.5 C 80.336843 26.520053 79.545026 26.567287 76.28125 24 C 71.052543 19.887099 68.995969 22.421539 74 26.8125 C 75.65 28.26035 77 30.016227 77 30.71875 C 77 32.228764 74.389674 32.439523 73.5 31 C 72.758307 29.799915 68 29.635922 68 30.8125 C 68 31.92288 71.93799 35.451327 74.875 36.96875 C 77.084728 38.110418 77.200641 38.590605 76.59375 43.84375 C 76.35027 45.951275 76.025655 47.211292 75.5625 48.375 z M 80.15625 77.5 L 81.96875 79.71875 C 84.694748 83.078839 85.429186 88.697134 83.53125 91.59375 C 81.333979 94.947209 76.372894 94.918605 74.84375 91.5625 C 73.288623 88.149369 74.566239 82.745595 77.59375 79.90625 L 80.15625 77.5 z "/>
</svg>
