<?xml version="1.0" encoding="UTF-8"?>
<svg xmlns="http://www.w3.org/2000/svg" viewBox="242.35 15.62 79.41 88.98">
  <path d="M 275.2,96.8 C 272.91711,94.517106 273.79783,88.700951 277.01799,84.794344 279.91644,81.278025 279.98332,80.981829 278.70654,77.3165 276.94435,72.257679 272.27736,65 270.78652,65 268.17138,65 258.19546,76.825562 254.49596,84.311005 251.34037,90.695897 250.28994,92 248.30261,92 246.0961,92 245.95662,91.707416 246.51496,88.25 249.23531,71.404516 254.50514,59.512822 262.67905,51.774731 L 265.55781,49.049462 271.94255,50.982607 C 275.45416,52.045837 278.70366,52.68315 279.16365,52.398859 280.12969,51.801811 280.29047,44.920515 279.39301,42.581787 279.05917,41.711804 277.70256,41 276.37833,41 272.80541,41 267.04403,35.213828 266.36609,30.944678 265.90729,28.055532 266.30519,26.790755 268.48964,24.194678 272.00482,20.017127 274.99513,20.097365 279.86832,24.5 281.99906,26.425 284.37312,28 285.144,28 285.91489,28 288.88478,26.459471 291.74377,24.576601 294.60277,22.693732 297.83801,20.868802 298.9332,20.521202 301.63321,19.664252 304.66626,21.453944 306.48965,24.979984 308.38892,28.652764 308.45964,37.98914 306.60739,40.522251 305.27255,42.347753 305.04531,42.273659 301.12975,38.736185 296.48813,34.542757 294.5447,34.689332 293.14464,39.338428 292.12892,42.711251 292.09809,53.432613 293.10122,54.434999 293.73499,55.068299 296.67561,53.691247 301.24271,50.622452 306.02823,47.406898 312.03694,50.888938 315.69925,59 318.14904,64.425642 318.09474,85.001998 315.61414,91.25 314.00883,95.293366 313.32286,96 311.00303,96 308.40944,96 308.25235,95.719534 307.75137,90.194739 307.0538,82.501782 304.19419,73.27113 301.26105,69.244356 297.99521,64.760838 295.55926,66.141909 293.93551,73.397589 292.83585,78.311365 292.92012,79.203539 294.86298,83.216946 299.69024,93.188738 295.55287,100.55287 288.875,93.875 286.37342,91.373423 285.65593,91.485186 281.65278,95 277.8778,98.31448 276.96821,98.568209 275.2,96.8 z M 294,90.076725 C 294,89.018924 292.84907,86.785643 291.44237,85.113878 288.95598,82.158972 288.91812,81.899176 290.08331,75.787152 292.11922,65.107751 296.04566,60.48945 300.56932,63.453464 301.89087,64.319379 303.62569,66.034087 304.42447,67.263927 306.21475,70.020351 311,84.536517 311,87.210978 311,88.329839 311.53487,88.989377 312.25,88.752335 315.27349,87.750155 314.95754,65.68135 311.83271,59.605171 309.03948,54.173784 303.33277,51.034523 301.53637,53.941159 301.21645,54.458797 298.93306,55.891971 296.46218,57.12599 293.04528,58.832474 291.69098,59.090982 290.8057,58.205701 290.13968,57.539678 289.49015,52.9403 289.28739,47.454346 L 288.93305,37.866952 292.36652,34.433476 C 294.25494,32.545064 296.26047,31 296.82327,31 297.38608,31 299.18354,32.125 300.81763,33.5 302.45173,34.875 304.06125,36 304.39436,36 304.72746,36 305,34.2 305,32 305,27.874279 302.39162,24 299.61395,24 298.85163,24 295.53238,25.8 292.23786,28 288.94333,30.2 285.31019,32 284.16421,32 283.01683,32 280.41767,30.202681 278.37967,28 274.26018,23.547628 272.5673,23.07148 271.03518,25.934259 268.29096,31.061886 272.03509,37 278.01241,37 279.5209,37 281.21825,37.5625 281.7843,38.25 283.68291,40.555948 283.65229,53.72568 281.74225,56.337818 280.56634,57.945969 280.01273,57.883717 273.23432,55.381132 266.16268,52.770284 265.93391,52.74984 263.94378,54.550882 260.71303,57.474668 255.46001,66.746807 251.57566,76.381941 247.62251,86.187722 247.67683,86 248.79222,86 249.22795,86 251.32274,82.9625 253.44732,79.25 258.05181,71.204082 267.58294,60.993559 270.4687,61.015313 273.4321,61.037652 274.44496,61.944803 277.70905,67.5 281.31824,73.642536 284.20122,81.859469 283.27889,83.374863 282.90224,83.993688 281.56041,85.320161 280.29704,86.32258 279.03367,87.324999 278,88.787499 278,89.57258 278,91.413186 278.56359,91.370864 282.13328,89.262199 284.96903,87.587081 285.20905,87.601204 288.78757,89.653747 293.52603,92.3716 294,92.410062 294,90.076725 z"/>
</svg>
