<?xml version="1.0" encoding="UTF-8"?>
<svg xmlns="http://www.w3.org/2000/svg" viewBox="2744.92 17.13 21.4 84.72">
  <path d="M 2764.3125 76.125 L 2763.25 75.625 L 2763.5625 49.5 C 2763.723 35.128448 2763.5156 22.807649 2763.0938 22.125 C 2762.5853 21.302505 2760.3209 20.985653 2756.4062 21.1875 L 2750.5 21.5 L 2749.9062 33 C 2747.4315 80.695695 2746.9174 93.552974 2747.4375 95.625 C 2747.9772 97.775401 2748.5652 98 2753.8125 98 C 2760.0613 98 2762 96.902484 2762 93.3125 C 2762 92.399787 2762.1612 91.850494 2762.5625 91.5 C 2762.5552 91.431859 2762.4375 90.3125 2762.4375 90.3125 L 2763.3125 83.8125 C 2763.2804 83.579558 2763.2135 83.427528 2763.1875 83.15625 C 2762.9829 81.021481 2763.0147 80.321049 2763.75 80.28125 L 2764.3125 76.15625 L 2764.3125 76.125 z M 2753.5 25.5 L 2757 25.5 L 2760.5 25.5 L 2760.5625 53 C 2760.6379 80.426382 2760.1008 92.242994 2758.6875 93.65625 C 2757.6487 94.695075 2752.5075 94.943616 2751.0312 94.03125 C 2750.1367 93.478357 2749.9779 90.617381 2750.4062 83.375 C 2750.7277 77.937458 2751.2809 67.425 2751.625 60 C 2751.9692 52.575 2752.5297 41.775 2752.875 36 L 2753.5 25.5 z "/>
</svg>
