<?xml version="1.0" encoding="UTF-8"?>
<svg xmlns="http://www.w3.org/2000/svg" viewBox="432.09 19.18 35.86 84.06">
  <path d="M 434.09375 42.46875 L 434.625 43.625 L 437.46875 45.25 C 437.54814 45.286367 437.62909 45.31289 437.6875 45.375 L 441.25 47.40625 L 441.125 47.71875 C 442.48264 46.69424 445.02975 46.929868 445.65625 48.5625 C 445.9848 49.41868 445.1032 53.80618 443.6875 58.3125 C 436.93209 79.815711 438.96365 99 448 99 C 451.45724 99 453.29517 96.818717 455.59375 90 C 457.11332 85.492208 457.37463 82.244982 457.0625 72 C 456.32613 47.830452 456.16849 49.250872 460.84375 41.5 C 465.32837 34.065173 465.95773 29.782905 462.65625 29.15625 C 461.56616 28.94934 459.36322 30.198901 457.34375 32.15625 C 454.48801 34.924143 453.75046 35.236402 452.96875 34 C 452.45116 33.181357 452.00842 31.524121 452 30.3125 C 451.97611 26.875575 449.84817 23 447.96875 23 C 443.56204 23 435 33.877409 435 39.46875 C 435 40.746695 434.79529 41.605274 434.09375 42.46875 z M 447.03125 27.21875 C 447.42265 27.329407 447.73569 27.603587 448 28.03125 C 448.41982 28.710533 449.07862 31.48208 449.4375 34.1875 C 450.26492 40.424916 451.97208 41.089132 456.59375 37.03125 C 458.57799 35.289066 460.45825 34.114503 460.75 34.40625 C 461.04174 34.697997 459.59457 37.713747 457.5625 41.125 C 455.53043 44.536254 453.62758 48.643331 453.3125 50.21875 C 452.99742 51.794168 453.33773 58.715043 454.0625 65.625 C 455.4846 79.183396 454.88448 85.087089 451.34375 92.5 C 448.03918 99.418465 445.54052 97.85829 443.875 87.84375 C 442.3629 78.75175 443.486 66.198748 446.5 58.78125 C 447.87001 55.409644 449 51.720297 449 50.5625 C 449 47.479149 446.43992 44.324027 443.28125 43.53125 C 439.99237 42.705795 439.02056 41.428404 439 37.8125 C 438.97171 32.837336 444.29148 26.444148 447.03125 27.21875 z "/>
</svg>
