<?xml version="1.0" encoding="UTF-8"?>
<svg xmlns="http://www.w3.org/2000/svg" viewBox="1721.28 16.97 59.7 82.79">
  <path d="M 1759.8438 21.1875 C 1755.9627 20.737982 1748.0614 24.820697 1745.875 28.40625 C 1743.2428 32.722663 1743.5166 34.756231 1747.1562 38.15625 C 1750.3142 41.106104 1750.3353 41.106947 1748.6875 44.5625 L 1747.0312 48.03125 L 1741.5938 47.375 C 1734.0537 46.488812 1731.6552 47.344818 1728.0938 52.1875 C 1725.0359 56.345589 1723.9904 62.227994 1725.5938 66.40625 C 1726.3473 68.369993 1730 68.52905 1730 66.59375 C 1730 64.898613 1737.1843 59 1739.25 59 C 1740.0499 59 1741.5133 60.780632 1742.5 62.96875 C 1744.7311 67.916569 1744.1238 75.909091 1741.0938 81.5625 C 1738.258 86.853534 1738.3216 92.269753 1741.25 94.3125 C 1742.4875 95.175736 1745.169 95.908652 1747.2188 95.9375 C 1751.7984 96.001951 1753.068 94.315441 1757.0938 82.75 C 1760.1717 73.907144 1760.6419 68.455683 1758.9062 61.5625 C 1757.8768 57.473992 1758.0448 56.834946 1761.625 50.1875 C 1764.4199 44.998299 1766.3978 42.585512 1769.2188 41 C 1775.1846 37.646979 1778.2669 31.12458 1775.5938 27.46875 C 1774.2775 25.668545 1774.0656 25.673466 1770.125 28.28125 C 1764.2346 32.179315 1763.1745 31.890991 1762.8125 26.25 C 1762.5367 21.951261 1762.2346 21.464413 1759.8438 21.1875 z M 1758.0625 24.65625 C 1759.8576 24.560567 1760.1149 25.899176 1759.4688 29.34375 C 1758.5948 34.002115 1760.8059 36.207447 1765.125 34.96875 C 1766.85 34.474 1769.0387 33.372908 1769.9688 32.53125 C 1772.0467 30.65083 1773 30.572226 1773 32.3125 C 1773 33.965453 1769.4116 37.303156 1765.6562 39.125 C 1763.8384 40.00694 1761.5476 42.844152 1759.3125 47 C 1757.3898 50.575 1755.3498 54.06232 1754.7812 54.75 C 1754.0581 55.624825 1754.3074 58.067269 1755.5625 62.90625 C 1757.2908 69.570106 1757.2829 70.071743 1755.5312 76.65625 C 1754.5313 80.414764 1752.6472 85.6375 1751.3438 88.25 C 1748.7932 93.36227 1747.6707 93.855283 1744.2188 91.4375 C 1741.4314 89.485186 1741.4397 88.853365 1744.4688 81.5 C 1745.9719 77.851061 1746.9543 73.490514 1746.9688 70.375 C 1746.9944 64.839892 1743.8468 56.268303 1741.4375 55.34375 C 1739.0372 54.422679 1735.2874 55.844369 1731.8125 59.03125 C 1728.7879 61.805156 1728.4717 61.895446 1728.1875 60.09375 C 1727.7115 57.076014 1730.7956 52.041173 1733.8125 50.875 C 1735.7319 50.133073 1738.0491 50.168962 1741.8125 51 C 1747.241 52.198712 1750 51.402472 1750 48.625 C 1750 47.995018 1751.125 45.804745 1752.5 43.78125 C 1755.7619 38.98087 1755.6687 38.3004 1751.5 36.3125 C 1745.6319 33.514189 1747.7734 27.842916 1755.7188 25.1875 C 1756.6819 24.865606 1757.4641 24.688144 1758.0625 24.65625 z "/>
</svg>
