<?xml version="1.0" encoding="UTF-8"?>
<svg xmlns="http://www.w3.org/2000/svg" viewBox="1850.26 16.71 25.3 89.57">
  <path d="M 1854.125 50.03125 L 1854.375 55.4375 C 1854.517 55.384426 1855.1251 55 1855.1875 55 C 1855.6298 55 1856 56.739147 1856 58.875 C 1856 61.1919 1855.5492 62.292097 1854.7188 62.90625 L 1854.9688 68.15625 L 1854.75 68.6875 C 1856.2755 69.956313 1856.4334 81.192991 1854.9375 88 C 1854.3936 90.475 1853.6724 94.4125 1853.3438 96.75 C 1852.6349 101.79125 1853.7828 102.2063 1858.1875 98.5 C 1861.7401 95.510676 1862.6351 95.429846 1866.3438 97.875 C 1869.2722 99.805787 1872.5182 99.69482 1873.3125 97.625 C 1873.5604 96.978852 1872.6948 92.855905 1871.4062 88.46875 C 1869.4698 81.875578 1869.0633 78.150888 1869.0312 66.9375 C 1868.9678 44.771559 1866.1694 33.456662 1858.7812 25.5625 C 1854.9063 21.422243 1853.8686 20.777981 1853.0625 22 C 1852.5213 22.820431 1852.2629 24.395431 1852.5 25.5 C 1853.6063 30.654677 1855.1073 47.453232 1854.625 49.375 C 1854.5852 49.533709 1854.2495 49.834612 1854.125 50.03125 z M 1857.5312 29.3125 C 1857.8276 29.298613 1858.2373 29.602197 1858.75 30.25 C 1863.5091 36.263001 1865.9818 48.664628 1866 66.78125 C 1866.0114 78.074467 1866.3915 83.003299 1867.5 85.65625 C 1870.1241 91.936485 1868.8072 96.400878 1865.3438 92.9375 C 1864.5858 92.179627 1863.2011 92.298649 1860.625 93.375 C 1856.5607 95.073192 1856.4603 94.898683 1858 88.5 C 1859.4295 82.559411 1859.2232 49.872559 1857.6875 39.1875 C 1856.7181 32.443267 1856.6421 29.35416 1857.5312 29.3125 z "/>
</svg>
