<?xml version="1.0" encoding="UTF-8"?>
<svg xmlns="http://www.w3.org/2000/svg" viewBox="2195.16 16.17 44.16 84.68">
  <path d="M 2199.3828,95.98281 C 2198.7106,95.310602 2198.6746,92.512598 2199.2767,87.73281 2200.2413,80.074699 2199.5409,51.92035 2198.052,38.5 L 2197.1644,30.5 2202.8322,25.29593 C 2205.9495,22.433692 2208.8476,20.071192 2209.2723,20.04593 2209.6971,20.020669 2212.0705,21.867296 2214.5464,24.149548 2219.3988,28.622358 2218.8549,28.606896 2226,24.475148 2229.9402,22.19668 2232.774,22.634013 2234.2608,25.75 2237.3096,32.139627 2233.3268,37.5 2225.5305,37.5 L 2221.5,37.5 2220.8858,46 C 2220.548,50.675 2220.6277,59.45 2221.063,65.5 2221.8506,76.446902 2222.3895,90.914039 2222.134,94.25 2222.0603,95.2125 2221.3944,96 2220.6543,96 2219.1347,96 2217.6927,68.995232 2217.9577,45.5 L 2218.1044,32.5 2213.632,28.120116 2209.1596,23.740231 2205.018,28.120116 2200.8764,32.5 2201.6306,45.5 C 2202.7241,64.349803 2202.5834,94.816626 2201.3973,96.002679 2200.7342,96.665774 2200.0591,96.659115 2199.3828,95.98281 z M 2210.0996,77.75 C 2210.0942,58.551033 2209.4544,42.856653 2208.3873,35.75 2207.9456,32.80837 2208.1533,32 2209.3508,32 2210.3995,32 2211.0386,33.330653 2211.392,36.25 2212.2966,43.721082 2213.3288,65.21812 2213.2047,74 2213.1386,78.675 2213.0655,85.7625 2213.0423,89.75 2213.0094,95.391558 2212.6789,97 2211.5524,97 2210.3394,97 2210.104,93.88199 2210.0996,77.75 z M 2230.8,32.8 C 2232.3771,31.222889 2232.3277,28.516835 2230.697,27.163518 2229.7374,26.367077 2228.5517,26.59443 2226.197,28.026375 2222.429,30.317855 2222.1591,31.726444 2225.25,32.968838 2228.3639,34.220491 2229.4114,34.188626 2230.8,32.8 z"/>
</svg>
