<?xml version="1.0" encoding="UTF-8"?>
<svg xmlns="http://www.w3.org/2000/svg" viewBox="766.52 16.57 19.64 94.17">
  <path d="M 770.49545,103.25 C 770.10027,102.2875 769.62777,86.65 769.44547,68.5 769.26316,50.35 768.98081,32.410307 768.81802,28.634016 L 768.52204,21.768032 774.62063,21.362389 C 782.36446,20.847314 783.42863,21.965375 783.7012,30.902844 784.16047,45.962087 783.96814,99.91944 783.45038,101.2687 782.06118,104.8889 771.81195,106.4564 770.49545,103.25 z M 780.98635,31.25 C 780.94732,26.248868 779.85105,24.885468 776.11962,25.197408 773.20295,25.441235 772.43609,25.951084 772.17092,27.822726 771.5997,31.854529 772.66119,33 776.96862,33 780.14656,33 780.99711,32.629529 780.98635,31.25 z M 780.80435,41.189847 781.10869,35.879693 776.80435,36.189847 C 772.59366,36.493251 772.49311,36.583889 772.18337,40.355161 771.70601,46.167225 772.41332,47.168887 776.74196,46.810844 L 780.5,46.5 780.80435,41.189847 z M 781.19535,62.75 C 781.42048,62.0625 781.42698,58.9125 781.20979,55.75 L 780.8149,50 776.46569,50 772.11647,50 772.30824,56.25 772.5,62.5 776,63.118359 C 777.925,63.458456 779.78936,63.795956 780.14301,63.868359 780.49667,63.940761 780.97022,63.4375 781.19535,62.75 z M 780.78753,92.25 781.07505,83 777.09654,83 C 774.90836,83 772.85404,83.427149 772.53138,83.94922 772.20873,84.471292 772.24513,88.50042 772.61227,92.90284 773.30761,101.24052 773.82278,102.00602 778.5,101.65157 780.32222,101.51347 780.52556,100.67777 780.78753,92.25 z M 781,74.045313 781,67.090626 777.4253,66.420009 C 775.45922,66.05117 773.45527,66.144727 772.97209,66.627913 772.4889,67.1111 772.36083,70.096029 772.6875,73.261088 773.24308,78.644142 773.48221,79.073984 776.39072,79.917683 778.10082,80.41375 779.8375,80.860208 780.25,80.909812 780.6625,80.959415 781,77.870391 781,74.045313 z"/>
</svg>
