<?xml version="1.0" encoding="UTF-8"?>
<svg xmlns="http://www.w3.org/2000/svg" viewBox="2103.97 16.08 21.32 87.36">
  <path d="M 2106.25 47.84375 L 2106.25 51.21875 C 2106.8533 51.213406 2107 51.844281 2107 53.28125 C 2107 54.302453 2106.7041 55.276012 2106.25 56.21875 L 2106.25 61.53125 L 2105.9688 62.15625 C 2106.597 62.218548 2106.8757 63.411768 2107.375 67 C 2107.8598 70.483148 2107.4748 72.615372 2106.5 73.40625 L 2106.7188 73.8125 L 2106.875 79.4375 C 2107.0803 79.667928 2107.4678 79.925001 2107.5312 80.125 C 2108.0811 81.857492 2107.9646 82.807097 2107 83 L 2107.1875 89.71875 C 2107.5068 90.439825 2107.7143 91.276697 2107.8125 92.5625 C 2107.9836 94.801944 2108.8469 97.045486 2109.8125 97.78125 C 2112.0386 99.477471 2118.8759 98.408933 2121.4062 95.96875 C 2123.2046 94.234535 2123.2891 92.306799 2123.125 58.34375 C 2123.0299 38.651762 2122.6163 22.261071 2122.2188 21.90625 C 2121.8212 21.551428 2118.9232 20.972607 2115.7812 20.625 C 2110.6375 20.055904 2109.9603 20.213871 2108.9375 22.125 C 2108.2911 23.332769 2107.7807 29.140229 2107.75 35.625 L 2107.6875 47.03125 L 2106.25 47.84375 z M 2113.4062 24 C 2119.6871 24 2120 24.403123 2120 33.09375 C 2120 37.558311 2119.5831 41 2119.0312 41 C 2117.3647 41 2111.54 33.966408 2110.875 31.15625 C 2109.4098 24.964172 2109.7387 24 2113.4062 24 z M 2111.5625 39 C 2111.8698 39 2113.8948 40.414199 2116.0625 42.15625 C 2119.5572 44.964632 2120 45.814666 2120 49.65625 C 2120 54.742866 2118.9068 55.076343 2114.25 51.40625 C 2111.3696 49.136136 2111 48.304676 2111 43.9375 C 2111 41.227363 2111.2553 39 2111.5625 39 z M 2111 53.125 L 2115.4375 55.28125 C 2119.2317 57.136112 2119.9945 58.010879 2120.5312 61.1875 C 2120.8776 63.237521 2120.8837 65.398566 2120.5312 65.96875 C 2119.7612 67.214746 2116.3426 67.211806 2113.25 65.96875 C 2111.2688 65.172388 2111 64.352976 2111 59.09375 L 2111 53.125 z M 2112.125 68.25 C 2112.5054 68.300841 2112.8961 68.489846 2113.2812 68.875 C 2113.8934 69.487078 2115.1265 70 2116.0312 70 C 2118.4749 70 2121.221 73.493016 2120.8438 76.15625 C 2120.0373 81.849623 2110 77.425733 2110 71.375 C 2110 69.347528 2110.9839 68.097478 2112.125 68.25 z M 2111.9688 80.21875 C 2112.283 80.174689 2112.699 80.270541 2113.25 80.4375 C 2114.4875 80.812463 2116.625 81.210817 2118 81.3125 C 2120.3062 81.483048 2120.5108 81.926325 2120.75 87 C 2120.8926 90.025 2120.6169 93.119878 2120.125 93.875 C 2119.6331 94.630123 2117.3882 95.401867 2115.125 95.59375 L 2111 95.9375 L 2111 87.84375 C 2111 81.901225 2111.026 80.350933 2111.9688 80.21875 z "/>
</svg>
