<?xml version="1.0" encoding="UTF-8"?>
<svg xmlns="http://www.w3.org/2000/svg" viewBox="1772.82 19.62 70 93.64">
  <path d="M 1837.8125,24.0625 C 1836.778,24.630247 1834.3891,28.214282 1825.6562,41.5 1820.595,49.2 1814.6065,58.2 1812.3438,61.5 1804.9527,72.278391 1793.8482,90.101069 1791.875,94.34375 1789.6703,99.084037 1788.4339,101.16949 1785.1875,105.75 1783.3931,108.28182 1783.2378,109 1784.4062,109 1786.3802,109 1789.5548,104.67177 1796.5312,92.5 1799.6836,87 1803.9492,80.025 1806,77 1808.0508,73.975 1810.5856,70.064823 1811.625,68.3125 1812.6644,66.560177 1818.2689,58.010177 1824.0938,49.3125 1836.4242,30.9008 1839.6389,25.301531 1838.5625,24.25 1838.328,24.020875 1838.1573,23.873251 1837.8125,24.0625 z M 1830.625,73 C 1829.8961,73 1827.7173,75.3625 1825.8125,78.25 1823.9076,81.1375 1820.5189,86.2 1818.2812,89.5 1811.0192,100.20975 1808,105.09385 1808,106.0625 1808,108.49251 1810.1733,106.31884 1815.8125,98.25 1831.5566,75.722594 1833.1547,73 1830.625,73 z M 1819.125,25.4375 C 1817.3257,25.917267 1812.6047,32.195135 1803.6875,45.78125 1796.9342,56.070477 1790.0249,66.75 1788.3438,69.5 1783.0769,78.115229 1776,90.652599 1776,91.34375 1776,93.214162 1778.0263,91.488698 1780.8125,87.25 1782.5298,84.6375 1786.8911,78.075269 1790.5,72.65625 1794.1089,67.237231 1797.7974,61.387231 1798.6875,59.65625 1801.3202,54.536656 1816.6227,31.548087 1818.375,30.09375 1819.2627,29.357081 1820,27.895756 1820,26.84375 1820,25.769539 1819.7248,25.277578 1819.125,25.4375 z M 1795.5,26 C 1794.5621,26 1794.2018,28.624396 1794.125,35.96875 1794.0677,41.449034 1793.978,46.286534 1793.9062,46.71875 1793.8346,47.150966 1793.8098,48.110417 1793.875,48.84375 1793.9401,49.577084 1794.5625,49.977314 1795.25,49.75 1796.0401,49.488773 1796.7522,46.228167 1797.1875,40.90625 1797.9697,31.344359 1797.3613,26 1795.5,26 z M 1783.4375,28.21875 C 1782.6589,28.997392 1781.6838,57.761365 1782.375,59.5625 1783.8837,63.494183 1784.8293,58.806863 1785.4688,44.34375 1785.9516,33.421708 1785.8242,29.009348 1785,28.5 1784.3716,28.111571 1783.6695,27.98675 1783.4375,28.21875 z M 1836.0938,97 C 1834.8546,97 1831,103.33456 1831,105.375 1831,107.87091 1831.7596,107.3723 1834.5,103.03125 1837.1393,98.850201 1837.626,97 1836.0938,97 z"/>
</svg>
