<?xml version="1.0" encoding="UTF-8"?>
<svg xmlns="http://www.w3.org/2000/svg" viewBox="2722.1 14.94 29.9 92.51">
  <path d="M 2733.2549,101.51118 C 2731.47,100.73538 2728.8825,98.97345 2727.5049,97.595774 2725.3091,95.399995 2725,94.227615 2725,88.094676 2725,80.664253 2726.1643,73.578302 2728.6905,65.633944 2730.1509,61.041157 2730.1261,60.563814 2728.2478,57.133944 2727.1533,55.135275 2725.9825,52.327412 2725.646,50.894248 2724.0972,44.296758 2732.39,25.401067 2738.1389,22.428169 2744.4901,19.143814 2745.4146,22.290723 2741.493,33.84579 2738.4795,42.725307 2738.3404,47.869877 2740.9963,52.22583 2743.6203,56.529594 2743.519,58.77195 2740.5,63.214812 2738.4739,66.196451 2738,68.11294 2738,73.324501 2738,77.640314 2738.464,80.140211 2739.411,80.926114 2740.3755,81.726623 2741.027,81.765363 2741.47,81.048558 2741.8264,80.471851 2743.104,80.014312 2744.309,80.031803 2746.4814,80.063337 2746.483,80.076683 2744.5,81.605078 2740.1379,84.967094 2739.14,85.140026 2736.9189,82.918872 2735.0579,81.057919 2734.8377,79.885335 2735.158,73.543138 2735.4571,67.619545 2736.0283,65.566597 2738.2828,62.313435 L 2741.0416,58.332503 2738.4172,52.600048 C 2735.4593,46.139299 2735.6137,41.591216 2739.0899,32.771824 2741.4535,26.775534 2741.4647,26 2739.1881,26 2736.8057,26 2733.4644,30.631944 2731.1041,37.206454 2727.6429,46.847606 2727.7764,50.505507 2731.8569,57.828473 2732.9342,59.761879 2732.9059,60.779885 2731.6899,63.828473 2729.1205,70.270039 2726.7459,84.129745 2727.3974,88.882407 2728.1015,94.019887 2730.0617,96.581127 2734.8068,98.563751 2737.6292,99.743006 2738.6591,99.751457 2741.3727,98.617629 2743.1429,97.878008 2745.3685,96.086469 2746.3186,94.636432 2748.1618,91.823356 2750,91.15797 2750,93.303833 2750,95.147618 2744.0375,100.67469 2740.6849,101.93867 2737.2256,103.24287 2737.2409,103.24375 2733.2549,101.51118 z M 2739,90.068094 C 2739,89.555546 2740.307,88.205546 2741.9044,87.068094 2747.1282,83.348394 2749.1728,85.017489 2744.0405,88.811942 2740.9038,91.131024 2739,91.605466 2739,90.068094 z"/>
</svg>
