<?xml version="1.0" encoding="UTF-8"?>
<svg xmlns="http://www.w3.org/2000/svg" viewBox="1704.09 15.51 22.88 95.85">
  <path d="M 1706.9076,104.25708 C 1706.2567,102.54507 1706.0915,96.625557 1706.468,88.507083 1706.7998,81.353188 1707.2458,66.95 1707.4591,56.5 1708.1328,23.499676 1709.0437,19.862666 1716.0614,22.154169 1724.974,25.064408 1724.0899,22.568774 1723.8865,44.243877 1723.7872,54.834745 1723.154,72.472224 1722.4795,83.438275 1721.3307,102.11601 1721.1118,103.49109 1719.0158,105.18828 1717.6112,106.32568 1715.1356,107 1712.3645,107 1708.4721,107 1707.8273,106.67585 1706.9076,104.25708 z M 1718.4114,100.75 C 1719.4779,95.41231 1721.026,63.034269 1721.0135,46.327552 L 1721,28.155104 1717.5196,27.006452 C 1715.6053,26.374694 1713.6118,26.121888 1713.0895,26.444663 1711.5903,27.371238 1711.0082,35.563026 1710.4211,64 1710.1201,78.575 1709.7013,92.525 1709.4904,95 1708.9018,101.90773 1709.5241,103 1714.0483,103 1717.307,103 1718.0371,102.62347 1718.4114,100.75 z"/>
</svg>
