<?xml version="1.0" encoding="UTF-8"?>
<svg xmlns="http://www.w3.org/2000/svg" viewBox="2259.63 19.91 48.07 89.87">
  <path d="M 2264.422,102.51292 C 2262.0945,100.18538 2261.8181,99.245281 2262.2228,95.033183 2262.4774,92.3835 2263.618,88.426976 2264.7574,86.240909 2266.506,82.886144 2266.7518,81.036758 2266.3331,74.38312 2265.9355,68.064247 2266.2473,65.336114 2267.9044,60.634524 2269.9376,54.86584 2269.9405,54.725246 2268.0817,52.114672 2265.5868,48.610936 2264.5674,41.32045 2265.887,36.419568 2267.3177,31.106356 2272.0492,24 2274.1561,24 2276.1312,24 2276.583,25.276096 2277.5193,33.5 2277.895,36.8 2278.6373,40.314808 2279.1688,41.310684 2280.8871,44.529889 2284.1742,42.924649 2286.9458,37.512746 2290.6044,30.36914 2296.9672,24 2300.4452,24 2302.8703,24 2303.1452,24.292894 2302.5567,26.25 2299.7221,35.676392 2299.121,40.099465 2299.9677,45.301748 2300.4608,48.331083 2301.4157,51.692854 2302.0899,52.77235 2305.1438,57.662408 2299.3906,59.754895 2293.2258,55.996262 2291.425,54.898318 2289.3224,54 2288.5534,54 2287.0344,54 2285.4238,58.134525 2284.4262,64.595144 2283.7499,68.975589 2285.5138,79.581486 2287.0797,80.549264 2287.5995,80.87054 2290.4303,79.078387 2293.3702,76.566701 2296.3102,74.055016 2299.6796,72 2300.8578,72 2303.4231,72 2303.4069,71.877026 2301.3766,75.946898 2300.4837,77.736694 2299.6962,81.559439 2299.6266,84.441886 2299.5081,89.347607 2300.0233,91.151974 2303.5925,98.33104 2305.5155,102.19888 2305.3609,103.75067 2302.9775,104.50713 2299.2162,105.70094 2294.9534,103.85816 2289.9864,98.891131 2285.6133,94.518077 2284.5263,93.936113 2280.3952,93.75632 2276.1978,93.573642 2275.4518,93.894025 2272.868,96.988998 2271.2906,98.878498 2270,100.94885 2270,101.58978 2270,102.23071 2269.3439,103.2996 2268.5421,103.96508 2267.3607,104.94551 2266.5791,104.67002 2264.422,102.51292 z M 2270.8163,94.970225 2274.1327,90.976502 2271.8163,88.04358 C 2270.5423,86.430473 2269.1741,85.08576 2268.7757,85.055329 2267.3159,84.943817 2265,91.013062 2265,94.95034 2265,100.13027 2266.5272,100.13549 2270.8163,94.970225 z M 2275.2022,48.593873 C 2276.8017,46.391869 2276.8031,45.760733 2275.2242,38.125298 2274.3001,33.656384 2273.207,30 2272.7951,30 2270.744,30 2268.5351,35.703262 2268.5615,40.930584 2268.6069,49.910429 2271.6744,53.450339 2275.2022,48.593873 z M 2299.9871,100.25 C 2299.98,99.8375 2299.0807,96.649728 2297.9887,93.166062 2296.6501,88.895835 2296.2072,85.556199 2296.6294,82.916062 2297.4473,77.801093 2295.2873,77.623537 2291.5678,82.5 2290.0995,84.425 2288.2553,86 2287.4694,86 2284.7569,86 2281.784,78.084876 2281.2437,69.424281 2280.7979,62.279008 2281.0232,60.672575 2283.0368,56.640706 2284.3035,54.104463 2286.3991,51.034221 2287.6938,49.817945 L 2290.0477,47.606533 2292.9675,50.803267 C 2296.6524,54.837701 2298.5296,55.027766 2297.3798,51.25 2296.3135,47.746561 2296.3319,38.744353 2297.4166,33.25 2297.9879,30.355993 2297.9111,29 2297.1758,29 2295.6219,29 2289.9629,37.55051 2288.8506,41.579064 2288.331,43.460579 2287.404,45 2286.7905,45 2284.4974,45 2276.4131,51.069034 2274.0631,54.554712 2271.1055,58.941675 2269.0555,68.209103 2269.7372,74.110982 2270.6842,82.309208 2275.6484,88.484168 2282.1689,89.574653 2284.001,89.881057 2286.4555,90.321383 2287.6234,90.553155 2288.8081,90.788257 2290.2934,92.294124 2290.9831,93.95932 2292.4383,97.472328 2300.0306,102.77673 2299.9871,100.25 z"/>
</svg>
