<?xml version="1.0" encoding="UTF-8"?>
<svg xmlns="http://www.w3.org/2000/svg" viewBox="770.81 22.16 30.19 85.74">
  <path d="M 777,101.77285 C 777,100.54791 777.75031,96.054067 778.66736,91.786522 780.22385,84.543331 780.22385,83.90483 778.66736,82.184934 777.75031,81.171606 777,79.956955 777,79.485711 777,79.014466 776.0573,77.625446 774.90511,76.398998 L 772.81023,74.169094 776.88624,67.308142 C 780.74029,60.820821 780.90236,60.230799 779.8624,56.473595 777.50609,47.960666 781.08987,33.838205 786.95045,28.542038 789.70487,26.052883 791.78192,27.185069 794.3772,32.590315 796.73784,37.506891 796.77846,51.637213 794.45164,58.490691 792.89475,63.076413 792.90129,63.118377 795.94395,68.063325 797.62478,70.795021 799,73.405768 799,73.864984 799,74.324201 797.59071,76.645395 795.86824,79.023194 792.85014,83.189564 792.77755,83.524407 793.86824,88.249523 795.50632,95.34608 795.33,100.93614 793.44526,101.65938 792.59016,101.98751 790.32313,101.41189 788.40742,100.38021 786.08635,99.130229 784.68672,98.856651 784.21216,99.56018 783.31272,100.89356 778.81054,104 777.77749,104 777.34987,104 777,102.99778 777,101.77285 z M 784.02664,95.47589 C 785.69448,93.966516 789,94.385973 789,96.106989 789,96.598145 789.675,97 790.5,97 792.39866,97 792.40264,94.102309 790.51373,87.003925 789.07735,81.606141 789.09407,81.468099 791.44831,79.285123 795.30564,75.708404 795.37811,73.74114 791.86095,68.083219 L 788.6606,62.934936 790.4889,59.217468 C 792.83487,54.44743 793.78073,39.299063 792.0009,35.002162 788.76405,27.187737 782.83888,35.372742 782.6271,47.951068 782.55719,52.10298 782.82831,56.666732 783.22958,58.092737 783.7951,60.10244 783.16071,62.011436 780.40846,66.581994 776.97225,72.288388 776.908,72.575594 778.41578,75.489258 779.27269,77.145166 780.87265,79.625 781.97124,81 783.8624,83.366986 783.89159,83.819235 782.51996,89.5 780.4846,97.929629 780.63893,98.541726 784.02664,95.47589 z"/>
</svg>
