<?xml version="1.0" encoding="UTF-8"?>
<svg xmlns="http://www.w3.org/2000/svg" viewBox="1457.58 23.13 45.68 80.77">
  <path d="M 1497.75,71.34375 C 1497.524,69.879708 1497.8023,68.024042 1498.5625,64 1499.3418,59.875 1500.2653,51.1 1500.5938,44.5 1501.1832,32.657569 1501.1386,32.481495 1498.6875,30.1875 L 1496.2188,27.84375 1492.1875,29.90625 C 1489.9664,31.039376 1487.8448,32.442141 1487.5,33 1486.4583,34.685524 1483.4257,34.137669 1481.4062,31.90625 1478.6878,28.902336 1474.2014,26.801297 1472,27.5 1470.9084,27.846477 1468.4197,31.567524 1466.0625,36.3125 1462.8245,42.830576 1461.7455,46.348261 1460.875,53.5 1459.6594,63.486771 1460.1884,78.505948 1461.9375,84.1875 1463.1879,88.249228 1469.0186,95.811781 1472.375,97.71875 1476.7871,100.22547 1479.7756,99.291512 1485.0312,93.78125 1487.7688,90.910996 1490,88.210996 1490,87.78125 1490,87.275681 1490.2713,87.126424 1490.6562,87.125 L 1490.5938,86.53125 1497.6562,71.4375 1497.75,71.34375 z M 1473.625,31.125 C 1474.9776,31.332005 1476.6267,32.517131 1479,34.5 1481.3041,36.425 1483.6627,38 1484.25,38 1484.8373,38 1487.5201,36.586699 1490.1875,34.875 1494.3531,32.201983 1495.2632,31.968925 1496.6562,33.125 1499.0107,35.079106 1497.9904,56.286467 1494.9688,68.5 1491.705,81.692129 1486.1175,91.332666 1479.8125,94.59375 1476.6345,96.237447 1477.036,96.242728 1474.4062,94.71875 1470.8532,92.659804 1466.5084,86.742329 1464.7188,81.5 1460.8891,70.282697 1462.065,49.826863 1467.1562,39 1469.91,33.143838 1471.3707,30.779992 1473.625,31.125 z M 1488.9062,39.15625 C 1488.109,39.291081 1487.1686,40.040497 1485.5938,41.5 1482.1868,44.657537 1481.2816,44.634668 1477.7812,41.28125 1474.1515,37.803671 1472.2107,38.836577 1469.75,45.59375 1465.4961,57.275372 1467.2074,80.86873 1472.7812,87.25 1474.5782,89.307345 1474.2236,89.241299 1477.4062,88.03125 1479.1493,87.368586 1481.0689,84.792801 1483.5938,79.78125 1487.7232,71.584807 1488.4717,69.427548 1490.4375,59.5 1492.831,47.412164 1493.0801,42.236339 1491.375,40.53125 1490.3544,39.510683 1489.7035,39.021419 1488.9062,39.15625 z M 1487.875,43.4375 C 1490.019,42.790351 1489.9751,46.18145 1488.4375,55.65625 1487.1084,63.845983 1485.6363,68.76656 1482.4062,75.75 1479.6367,81.737889 1477.5593,85 1476.5312,85 1471.8775,85 1468.2002,58.90331 1471.4688,49.0625 1472.3931,46.279711 1473.631,44 1474.1875,44 1474.7441,44 1476.3203,44.9 1477.7188,46 1480.9589,48.548648 1481.2062,48.540929 1484.9688,45.375 1486.196,44.342364 1487.1603,43.653216 1487.875,43.4375 z"/>
</svg>
