<?xml version="1.0" encoding="UTF-8"?>
<svg xmlns="http://www.w3.org/2000/svg" viewBox="808.35 23.18 31.3 85.9">
  <path d="M 820.77314,103.89292 C 817.22413,101.90679 812.94335,96.96676 812.39488,94.224375 811.88564,91.678181 812.38933,90.719258 815.9892,87.381607 818.29181,85.246723 820.81121,83.140139 821.58788,82.70031 823.85158,81.418365 823.23786,79.421574 819.75,76.720629 814.12122,72.361794 812,69.982365 812,68.027264 812,66.985111 814.475,63.617564 817.5,60.543829 820.525,57.470093 823,54.353326 823,53.617682 823,52.882037 821.81433,51.429613 820.36517,50.390073 810.73777,43.483947 810.35268,41.622077 817.08038,34.508529 823.63138,27.581815 827.28537,27.085374 832.6,32.4 837.65523,37.455227 837.09428,40.033792 829.13441,48.33055 L 824.5,53.1611 828.62962,56.83055 C 830.90092,58.848747 833.22242,61.406314 833.78852,62.514031 835.09952,65.079329 833.40129,69.334425 829.12071,74.209735 827.40432,76.164597 826,78.510148 826,79.42207 826,80.333992 827.8,82.792409 830,84.885219 833.30039,88.024801 834,89.356438 834,92.498774 834,95.668578 833.31986,96.935119 829.94411,100.05159 825.4866,104.16674 823.07066,105.17868 820.77314,103.89292 z M 823,92.940983 C 823,89.123442 822.6625,86.004792 822.25,86.010648 821.36206,86.023255 815,92.438769 815,93.321565 815,94.675576 821.26504,100.95423 822.10074,100.43774 822.59533,100.13206 823,96.758524 823,92.940983 z M 822.83776,67.5 C 822.67721,63.925 822.19414,61 821.76427,61 820.22965,61 815.00032,66.35978 815.01728,67.915298 815.03363,69.414405 820.52265,74 822.30075,74 822.75666,74 822.99831,71.075 822.83776,67.5 z M 823,41.166667 C 823,37.958333 822.6937,35.027033 822.31933,34.652666 821.37677,33.710103 816,39.025211 816,40.899527 816,42.354129 820.67297,46.888418 822.25,46.964037 822.6625,46.983817 823,44.375 823,41.166667 z M 829.65469,69.166451 C 832.16882,65.456719 831.76681,62.732453 828.37754,60.511716 825.23569,58.453097 824.63668,59.87891 824.88152,68.833333 825.01985,73.892524 826.38711,73.987945 829.65469,69.166451 z M 833,38.587265 C 833,36.962734 828.38697,33 826.49586,33 825.15912,33 824.43988,44.284686 825.65165,46.245371 826.45174,47.539955 833,40.715672 833,38.587265 z M 829.8,96.8 C 831.53306,95.066942 831.27407,89.960325 829.34501,87.828741 826.65133,84.85226 826,85.664481 826,92 826,98.109149 827.10061,99.499391 829.8,96.8 z"/>
</svg>
