<?xml version="1.0" encoding="UTF-8"?>
<svg xmlns="http://www.w3.org/2000/svg" viewBox="1729 19.34 41.66 92.88">
  <path d="M 1731,37.136001 C 1731,35.583639 1749.8818,23.565488 1752.0626,23.729765 1752.9599,23.797355 1755.2865,24.898309 1757.2329,26.176328 1759.1792,27.454348 1762.1731,29.26657 1763.8859,30.20349 1765.5986,31.140409 1767,32.602909 1767,33.45349 1767,35.14264 1764.4745,35.576772 1763.5308,34.049842 1763.2078,33.527255 1760.237,31.724322 1756.9291,30.043325 L 1750.9145,26.986966 1742.4663,32.493483 C 1734.4905,37.692101 1731,39.105331 1731,37.136001 z M 1732.4589,44.933469 C 1731.6541,43.63132 1731.5506,43.724512 1736.668,41.144435 1738.9604,39.988663 1742.8506,37.683349 1745.313,36.021515 1747.7754,34.359682 1750.335,33 1751.0011,33 1751.6672,33 1753.8519,34.269696 1755.8561,35.821548 1757.8602,37.373399 1761.075,39.245523 1763,39.981823 1767.6781,41.77115 1768.6642,42.735761 1767.2556,44.144365 1765.8925,45.507496 1761.9742,44.105957 1754.8736,39.715389 L 1750.2472,36.85473 1742.8995,41.427365 C 1735.2846,46.166221 1733.5755,46.740176 1732.4589,44.933469 z M 1739.2,106.8 C 1737.4616,105.06156 1737.7155,103.15313 1740.4734,97.229295 1742.6321,92.592453 1742.9904,90.138447 1743.4525,76.823725 1743.7414,68.49955 1744.1899,61.476814 1744.449,61.217646 1745.037,60.629675 1742.0653,54.722568 1740.7559,53.876343 1740.2251,53.533331 1738.5051,53.738005 1736.9336,54.331174 1733.998,55.439227 1732.3346,54.885674 1733.4033,53.156386 1734.5687,51.270811 1747.0971,45 1749.6989,45 1753.3645,45 1767.2811,51.736103 1766.4371,53.101825 1766.0677,53.699408 1764.6774,53.980319 1763.3474,53.726073 1760.3914,53.161006 1759.3564,54.832573 1758.4551,61.62727 1757.56,68.374207 1759.7729,88.354024 1762.093,94.474903 1763.6839,98.672033 1763.7659,99.662655 1762.6173,100.81126 1761.4687,101.95986 1761.0658,101.65111 1760.0402,98.836357 1756.7357,89.767257 1755.0232,77.734472 1755.4591,66.647877 1755.7002,60.516545 1756.033,54.378554 1756.1987,53.007898 1756.4552,50.886045 1755.9633,50.381974 1752.8872,49.615052 1745.6945,47.821753 1741.7474,50.853431 1745.6543,55.170515 1746.8082,56.445522 1747.2592,58.586918 1747.1452,62.249255 1747.0554,65.137165 1746.8232,73.125 1746.6292,80 1746.3517,89.839921 1745.8262,93.607497 1744.1598,97.704246 1741.004,105.46262 1744.1449,105.64189 1748.6813,97.962329 1750.5299,94.832878 1754.1573,92.971877 1754.7781,94.834387 1754.9798,95.439266 1756.2655,97.585673 1757.6353,99.604182 1759.4971,102.34768 1759.8367,103.55516 1758.9807,104.3871 1758.1327,105.21118 1757.104,104.6323 1755.0168,102.15647 L 1752.1982,98.812934 1749.8491,102.00394 C 1747.6892,104.93789 1743.2976,108 1741.2497,108 1740.7823,108 1739.86,107.46 1739.2,106.8 z"/>
</svg>
