<?xml version="1.0" encoding="UTF-8"?>
<svg xmlns="http://www.w3.org/2000/svg" viewBox="558.99 19.74 29.1 88.08">
  <path d="M 583.3125 78.875 C 583.01496 77.664374 583.48112 76.355613 584.65625 74 C 586.05055 71.205062 586.09019 70.371868 584.96875 68.59375 C 580.44101 61.414688 580.4724 61.57273 582.03125 54.84375 C 582.83871 51.358191 583.5 44.811029 583.5 40.3125 C 583.5 33.582523 583.12589 31.633562 581.40625 29.3125 C 578.94286 25.987587 574.82409 23.742613 572.6875 24.5625 C 570.11451 25.549848 565.91654 32.907249 564.75 38.46875 C 563.78102 43.08838 563.90403 44.59409 565.78125 50.3125 L 567.9375 56.84375 L 564.46875 62.625 C 562.56036 65.794195 560.99466 69.305144 561 70.4375 C 561.00533 71.569855 562.62524 74.525 564.59375 77 C 567.64452 80.835739 568.10401 82.016647 567.59375 85 C 565.97292 94.47659 565.74452 99.99365 566.96875 101.46875 C 568.91846 103.81802 578.63353 103.56149 579.9375 101.125 C 580.4875 100.09732 580.66734 99.011095 580.34375 98.6875 C 580.02015 98.363905 580.01793 97.380316 580.34375 96.53125 C 580.39665 96.393404 580.49446 96.352869 580.5625 96.25 L 580.3125 95.5 L 579.75 88.25 C 579.32114 87.10386 579.04454 85.621369 579.1875 84.53125 C 579.23932 84.136103 579.30369 83.90423 579.375 83.65625 L 579.34375 83.21875 L 583.3125 78.875 z M 573.78125 28.5625 C 574.46331 28.439106 575.17791 28.547704 575.90625 28.9375 C 581.27035 31.80828 582.44696 41.635839 578.875 53.6875 L 576.75 60.875 L 579.90625 66.03125 C 583.44935 71.789525 583.34168 73.059762 578.90625 77.78125 L 575.8125 81.09375 L 576.53125 90.53125 L 577.25 100 L 573.46875 100 L 569.71875 100 L 570.375 89.6875 L 571.03125 79.375 L 567.40625 74.71875 L 563.78125 70.0625 L 566.875 65.0625 C 571.27448 57.912422 571.50931 56.009384 568.96875 48.375 C 566.81848 41.913454 566.79715 41.505541 568.375 36.5 C 569.92128 31.594639 571.73506 28.932683 573.78125 28.5625 z "/>
</svg>
