<?xml version="1.0" encoding="UTF-8"?>
<svg xmlns="http://www.w3.org/2000/svg" viewBox="1172.51 19.54 29.98 82.19">
  <path d="M 1183.3652,95.75 C 1181.3542,93.468811 1179,88.712383 1179,86.930604 1179,86.394194 1180.7668,84.03859 1182.9262,81.695927 1187.3545,76.891719 1188.872,72.797796 1186.8298,71.164166 1175.1174,61.794817 1174.5117,59.755323 1182,54.90306 1186.6922,51.862601 1188.7864,48.005506 1185.75,47.996147 1184.298,47.991672 1177,39.285597 1177,37.557866 1177,35.636161 1182.6188,27.380397 1185.1182,25.629777 1188.4719,23.28074 1189.5821,23.558524 1193.5916,27.75 1200.3608,34.826295 1200.4872,37.495738 1194.3632,44.042841 L 1189.7263,49 1194.3632,53.957159 C 1196.9134,56.683596 1199,59.538581 1199,60.30157 1199,61.064558 1196.718,64.296647 1193.9288,67.48399 L 1188.8576,73.279159 1192.9069,77.405126 C 1197.889,82.48152 1198.9785,86.767789 1196.4706,91.424771 1194.5343,95.020289 1190.3648,98 1187.27,98 1186.2133,98 1184.4561,96.9875 1183.3652,95.75 z M 1187.2857,61.321429 C 1187.2857,58.722024 1186.8625,56.454157 1186.3452,56.281725 1185.8279,56.109293 1184.1632,57.263994 1182.6459,58.847728 L 1179.8871,61.727243 1183.0691,64.40472 C 1184.8192,65.877332 1186.4839,66.849417 1186.7684,66.564908 1187.0529,66.280399 1187.2857,63.920833 1187.2857,61.321429 z M 1186.6418,40.25 C 1186.3009,38.1875 1186.0171,35.0375 1186.011,33.25 1185.9962,28.88878 1184.4734,29.151791 1182.032,33.937198 L 1180.0234,37.874395 1182.6006,40.937198 C 1186.0976,45.093104 1187.4056,44.87068 1186.6418,40.25 z M 1186.8745,87.287088 1187.06,81.5 1184.4535,84.099169 C 1181.9103,86.635331 1181.8848,86.788582 1183.4026,90.421137 1184.2581,92.468677 1185.3475,93.903241 1185.8235,93.609057 1186.2995,93.314872 1186.7725,90.469986 1186.8745,87.287088 z M 1194.0298,40.958139 C 1196.5496,37.419377 1196.1661,34.467257 1192.6566,30.38722 1189.0085,26.146002 1187.6537,27.93333 1188.4984,35.872883 1189.5006,45.292143 1190.3728,46.093962 1194.0298,40.958139 z M 1193.3554,90.989462 C 1195.5345,88.399753 1195.7458,87.569156 1194.8667,85.047515 1193.8796,82.215859 1191.3482,79.30241 1190.5745,80.107499 1190.367,80.323375 1189.8755,83.5375 1189.4821,87.25 1188.6732,94.88499 1189.4481,95.633059 1193.3554,90.989462 z M 1194.7776,62.78706 C 1196.3471,60.191799 1196.3161,59.965408 1194.0638,57.56788 1192.7688,56.189449 1191.3247,55.299329 1190.8546,55.589837 1190.3846,55.880345 1190,58.374472 1190,61.132341 1190,65.157486 1190.3094,66.082867 1191.5684,65.823324 1192.4311,65.645496 1193.8752,64.279177 1194.7776,62.78706 z"/>
</svg>
