<?xml version="1.0" encoding="UTF-8"?>
<svg xmlns="http://www.w3.org/2000/svg" viewBox="2279.65 18.43 97.76 91.17">
  <path d="M 2372.5938 35.125 C 2371.3519 34.987906 2369.586 34.929748 2369.375 34.71875 C 2368.9961 34.33986 2367.2056 34.962381 2365.375 36.09375 C 2363.5444 37.225118 2361.5491 37.846777 2360.9375 37.46875 C 2359.8177 36.776675 2360.0932 31.590535 2361.5 27.25 C 2362.0762 25.472015 2361.903 25.108081 2360.7188 25.5625 C 2358.7712 26.309807 2356.5855 34.167326 2357.4062 37.4375 C 2358.2425 40.76914 2361.9851 41.699629 2365.4375 39.4375 C 2368.5845 37.37551 2369.6429 38.0254 2367.8438 40.90625 C 2367.106 42.087665 2364.9771 43.269759 2363 43.625 C 2358.4601 44.440718 2357.6869 45.147709 2354.1875 51.34375 C 2350.4057 58.039929 2342.4509 66.860968 2339.5312 67.59375 C 2338.1627 67.937203 2335.54 67.311189 2333.0312 66.03125 C 2330.7254 64.854881 2327.8828 64.016945 2326.6875 64.1875 C 2323.3886 64.65823 2324.2227 69.968914 2329.125 79.625 L 2333.25 87.75 L 2331.5625 92.8125 C 2330.6406 95.588163 2329.1591 98.427809 2328.2812 99.15625 C 2326.8448 100.34846 2326.7726 100.03799 2327.4062 95.8125 C 2327.9317 92.30845 2327.6879 90.278377 2326.4375 87.8125 C 2322.8751 80.787351 2319.4389 76.066247 2317.8438 76.03125 C 2316.9143 76.010859 2314.7067 78.27401 2312.8438 81.15625 C 2306.7304 90.614457 2306.6155 90.985611 2307.6875 96.21875 C 2308.6786 101.0572 2307.5495 103.08622 2306.4062 98.53125 C 2306.0669 97.17881 2305.1773 95.546155 2304.4062 94.90625 C 2302.4873 93.313722 2302.6217 87.537557 2304.625 85.875 C 2306.957 83.939602 2310.5638 77.972025 2311.375 74.6875 C 2312.324 70.845122 2307.6733 62.673778 2303.1875 60.28125 L 2299.8438 58.5 L 2297.4688 61.28125 C 2295.2913 63.799513 2292 72.456601 2292 75.6875 C 2292 78.569896 2290.1962 76.757413 2289.2188 72.90625 C 2288.3697 69.560991 2288.5145 67.808729 2290.0938 63.21875 C 2294.1246 51.502662 2297.2681 49.812656 2304.5938 55.40625 C 2307.1817 57.382356 2309.8392 59 2310.5312 59 C 2313.0737 59 2314.8581 49.784078 2313.375 44.25 C 2312.8679 42.357764 2312.095 42 2308.4688 42 C 2304.3631 42 2301 40.166209 2301 37.90625 C 2301 35.551068 2304.0039 30.110624 2306.125 28.625 C 2310.3395 25.673063 2311.8481 26.461098 2312.1875 31.75 C 2312.47 36.151769 2312.6833 36.49335 2315 36.25 C 2316.375 36.105569 2319.4277 34.643069 2321.7812 33 C 2326.8606 29.454082 2327 29.411741 2327 32.03125 C 2327 34.677686 2324.1512 39 2322.4062 39 C 2319.7614 39 2317.8881 43.704859 2317.4688 51.40625 C 2317.0143 59.751378 2317.4019 60.224021 2322.625 57.5 C 2326.7714 55.337503 2328.501 55.610086 2332.4688 59.09375 C 2337.7989 63.773648 2341.9621 62.019427 2348.7188 52.21875 C 2352.2974 47.027918 2352.4519 44.757746 2349.5625 40.5 C 2346.6889 36.265472 2346.1982 30.910344 2348.5 29 C 2350.4133 27.412142 2350.4323 26 2348.5312 26 C 2347.7189 26 2346.3127 27.147614 2345.4062 28.53125 C 2343.3613 31.652073 2344.149 38.117213 2347.0312 41.78125 C 2348.1128 43.156353 2349 44.89363 2349 45.65625 C 2349 47.735454 2344.132 54.671995 2341.4375 56.4375 C 2338.7902 58.172126 2335 58.531517 2335 57.03125 C 2335 56.492428 2333.2944 55.183846 2331.2188 54.125 C 2327.8769 52.420091 2327.0867 52.338509 2324.25 53.53125 C 2322.4883 54.272011 2320.8551 54.568093 2320.625 54.1875 C 2320.3949 53.806907 2320.3866 51.52404 2320.5938 49.125 C 2320.9081 45.483911 2321.7007 44.079288 2325.4062 40.625 C 2330.3399 36.02588 2331.6342 32.770316 2330.0938 28.71875 C 2328.695 25.039549 2326.9377 25.29373 2321.5 30 C 2315.4478 35.238181 2314.0196 35.190164 2314 29.75 C 2313.9799 24.164601 2312.8878 22.571768 2309.6875 23.375 C 2303.7628 24.862005 2298 32.558954 2298 39 C 2298 42.701337 2300.0912 44.210492 2306.0312 44.78125 L 2311 45.25 L 2311 50.125 C 2311 56.035094 2310.0471 56.232454 2304.0938 51.5 C 2299.0206 47.467211 2299.0815 47.457273 2295.25 49.65625 C 2289.439 52.991337 2284.0974 66.956384 2285.9688 73.90625 C 2287.2082 78.509175 2289.0626 80.25635 2292.1875 79.8125 C 2294.1483 79.534001 2294.6433 78.613767 2295.5625 73.5 C 2297.6534 61.867847 2301.0526 60.103748 2305.9688 68.09375 L 2309.0938 73.1875 L 2306.9375 77.34375 C 2305.7497 79.627916 2304.4727 81.725 2304.0938 82 C 2302.2723 83.322205 2299 89.043704 2299 90.90625 C 2299 93.121997 2303.804 102.95834 2305.5 104.21875 C 2307.1638 105.45523 2308.595 105.10829 2310.5312 102.96875 C 2312.1217 101.21135 2312.2126 100.4912 2311.1875 97.65625 C 2310.5342 95.849633 2310 93.556763 2310 92.59375 C 2310 90.697273 2314.5779 82.381729 2316.1562 81.40625 C 2317.2487 80.731084 2321 83.752108 2321 85.3125 C 2321 85.871449 2321.7875 87.215616 2322.75 88.28125 C 2324.0164 89.683308 2324.5 91.899733 2324.5 96.34375 C 2324.5 101.85934 2324.7321 102.53817 2326.6562 102.8125 C 2330.2018 103.31801 2335 94.62538 2335 87.71875 C 2335 86.077107 2333.222 81.205803 2331.0312 76.90625 C 2328.8405 72.606697 2327.4522 68.850477 2327.9688 68.53125 C 2328.4853 68.212023 2330.4267 68.568896 2332.2812 69.34375 C 2334.1356 70.118603 2337.3259 70.655656 2339.375 70.53125 C 2344.0605 70.246778 2349.24 65.440813 2354.4688 56.5 C 2358.8774 48.961559 2360.4186 47.45891 2364.7812 46.53125 C 2367.072 46.044167 2368.8713 44.649948 2370.625 42 C 2371.4366 40.773512 2372.2013 39.897884 2372.9688 39.1875 L 2372.5938 35.125 z M 2354.4375 26.125 C 2353.247 26.902285 2351.8509 29.911902 2351.4062 33.15625 C 2350.8759 37.026174 2351.0944 38.094417 2352.875 39.875 C 2354.0407 41.040746 2355.45 42 2356 42 C 2357.4786 42 2357.2138 40.057573 2355.5 38.34375 C 2353.7523 36.596078 2353.578 33.259898 2355.0312 29.4375 C 2355.5967 27.950417 2355.8035 26.459734 2355.5 26.15625 C 2355.1925 25.848769 2354.8343 25.865905 2354.4375 26.125 z "/>
</svg>
