<?xml version="1.0" encoding="UTF-8"?>
<svg xmlns="http://www.w3.org/2000/svg" viewBox="1139.69 19.66 28.05 83.92">
  <path d="M 1148.7914,96.494511 C 1146.7517,95.135352 1144.5719,93.068668 1143.9475,91.90188 1142.2431,88.71715 1145.1185,82.096438 1149.4982,79.121098 1151.4242,77.812702 1153,76.163015 1153,75.455127 1153,74.74724 1151.0875,72.679373 1148.75,70.859868 1143.3586,66.663222 1143.0338,66.177432 1143.0153,62.281692 1143.0027,59.623229 1143.774,58.492513 1147.4491,55.781692 1149.8962,53.976761 1152.1747,51.826319 1152.5126,51.002931 1153.1924,49.346142 1148.8156,45 1146.4673,45 1144.2562,45 1141.6935,40.357183 1142.3847,37.603544 1143.2109,34.31147 1150.4602,25.3061 1152.91,24.528579 1156.227,23.475796 1160.5563,26.524583 1162.9373,31.590095 1165.5497,37.147709 1164.8583,39.806566 1159.4331,45.064881 1157.5449,46.89498 1156,48.887732 1156,49.493219 1156,50.098706 1157.8,52.351757 1160,54.5 1163.3203,57.742192 1164,59.071095 1164,62.320595 1164,65.561268 1163.304,66.931323 1159.9575,70.27778 1157.7341,72.501147 1156.0517,75.029683 1156.2186,75.89675 1156.3856,76.763817 1157.9363,78.379257 1159.6647,79.486617 1163.4253,81.89602 1165.7428,85.698987 1165.248,88.648455 1165.0497,89.830105 1163.4503,92.422714 1161.6938,94.409808 1157.5015,99.152243 1153.7014,99.766249 1148.7914,96.494511 z M 1152.7264,38.75 C 1152.9643,33.500217 1152.2717,30 1150.9951,30 1149.378,30 1144.726,37.843698 1145.3613,39.499254 1145.9176,40.948902 1149.2209,42.793501 1151.5169,42.936614 1152.0762,42.971476 1152.6205,41.0875 1152.7264,38.75 z M 1153.144,62.407875 C 1152.9482,59.158544 1152.6034,56.305135 1152.3777,56.066968 1152.1519,55.8288 1150.7371,56.548292 1149.2336,57.665839 1145.3058,60.585378 1145.0646,64.974426 1148.7084,67.221759 1152.8341,69.766303 1153.5412,68.998899 1153.144,62.407875 z M 1152.5792,87.618871 C 1152.6698,81.081018 1151.9132,80.086776 1149.0365,82.963525 1146.4426,85.557359 1146.2723,91.477517 1148.75,92.918071 1151.7115,94.639877 1152.4969,93.552909 1152.5792,87.618871 z M 1161.5554,90.494934 1163.5,86.851928 1160.64,84.379301 C 1159.067,83.019357 1157.267,82.075147 1156.64,82.281058 1155.3425,82.707174 1154.5714,90.156125 1155.4588,93.691816 1156.2496,96.842761 1158.9122,95.446562 1161.5554,90.494934 z M 1160.4172,40.519698 C 1162.8855,37.283612 1162.9711,36.84488 1161.6382,34.267338 1160.3029,31.68514 1156.1227,27.187929 1155.901,28.095012 1155.8466,28.317756 1155.6365,31.60468 1155.4343,35.399289 1154.9118,45.200852 1155.9965,46.315493 1160.4172,40.519698 z M 1160.4433,66.777494 C 1162.5666,63.746031 1162.3975,60.397502 1160,58 1156.8164,54.816426 1156,55.598834 1156,61.833333 1156,69.472316 1157.4363,71.070547 1160.4433,66.777494 z"/>
</svg>
