<?xml version="1.0" encoding="UTF-8"?>
<svg xmlns="http://www.w3.org/2000/svg" viewBox="1214.93 18.1 54.19 82.66">
  <path d="M 1260.1875,43.3125 C 1259.5031,44.479422 1258.2516,45.6186 1255.875,47.5 1246.6115,54.833461 1247.2511,54.596259 1244.375,51.90625 1240.0642,47.874284 1239.705,46.409715 1242.3438,43.5625 1246.2598,39.336887 1249.6378,32.231482 1248.3438,30.9375 1247.2466,29.84026 1246.6514,30.069941 1238.7188,34.65625 1234.0648,37.346949 1232.7566,33.89291 1236,27.53125 1237.0917,25.389974 1237.8086,23.464825 1237.5938,23.25 1236.1988,21.855117 1230.6262,22.104217 1227.9375,23.6875 1224.4471,25.742909 1219,33.405234 1219,36.25 1219,39.189133 1220.877,42.002744 1223.5,43 1224.8128,43.499123 1226.6279,45.027611 1227.5312,46.40625 1228.9042,48.501577 1228.9761,49.511254 1228,52.46875 1227.3578,54.41466 1226.5162,56 1226.125,56 1224.9001,56 1219.2037,66.330929 1218.4062,70 1217.392,74.666476 1217.7917,85.272098 1219.0938,88.71875 1220.5105,92.468728 1224.9677,97 1227.25,97 1229.388,97 1234.393,94.557351 1237.875,91.84375 1241.0699,89.353804 1242.1231,89.491035 1247.6562,93 1253.3826,96.631551 1256.588,96.778668 1261.2812,93.59375 1262.7708,92.58292 1263.5093,92.185034 1264.1562,92 L 1262.3125,89.9375 C 1261.7502,90.721513 1260.5103,91.3791 1258.125,92.09375 1254.6927,93.122073 1253.9278,92.977969 1250.25,90.65625 1243.4611,86.370635 1241.71,86.322005 1234.9062,90.375 1231.5724,92.361005 1228.5606,94.008422 1228.1875,94 1226.6359,93.964973 1225.0975,92.256719 1223.0625,88.34375 1218.8818,80.30477 1220.5476,66.312093 1226.4375,60 1229.6081,56.602171 1232,51.642984 1232,48.46875 1232,45.612202 1227.1541,40 1224.6875,40 1223.1755,40 1222,37.962803 1222,35.34375 1222,34.526742 1223.4625,32.090595 1225.25,29.9375 1227.5733,27.138989 1229.2841,26.044136 1231.25,26.03125 1234.4617,26.010198 1234.4407,25.968169 1232.4688,30.6875 1230.0491,36.478696 1231.8476,38.880737 1237.9062,38.03125 1238.6735,37.923693 1240.5614,36.90604 1242.125,35.75 1243.6887,34.59396 1245.2402,33.896431 1245.5625,34.21875 1246.5846,35.240861 1243.1566,40.737506 1239.9062,43.28125 1237.5611,45.116555 1236.9538,46.226099 1237.4375,47.75 1238.3245,50.544865 1244.533,57 1246.3438,57 1247.1566,57 1251.1294,54.32143 1255.1562,51.03125 1259.6681,47.344682 1261.5245,46.039091 1262.6875,46 L 1260.1875,43.3125 z M 1264.3438,47.75 C 1264.2599,48.768256 1263.1386,50.259172 1260.0625,53.625 1250.6811,63.889712 1247.8003,65.276267 1242.4062,62.09375 1237.697,59.315246 1236.6611,59.436204 1233.4375,63.25 1227.9163,69.782025 1224.4196,82.432838 1227.4375,84.9375 1228.6634,85.954931 1230.1218,85.620089 1235.4688,83.09375 1239.0663,81.393958 1242.4312,80 1242.9375,80 1243.4439,80 1245.3007,81.205062 1247.0625,82.6875 1249.5241,84.758793 1251.597,85.489495 1256.0625,85.8125 1258.3686,85.97931 1259.8435,86.308473 1260.9062,86.71875 L 1262.7188,80.96875 C 1260.8368,82.302023 1259.2284,83 1256.7188,83 1253.4259,83 1251.401,82.273532 1248.4375,80.03125 1243.6467,76.406315 1242.6729,76.346358 1237.1562,79.5 1234.7627,80.868375 1231.9047,82 1230.8125,82 1229.0356,82 1228.8881,81.552825 1229.5,77.75 1230.2787,72.911378 1234.3981,65.147751 1236.6562,64.28125 1237.4882,63.961971 1239.7314,64.440723 1241.625,65.34375 1243.5187,66.246777 1246.1404,67 1247.4688,67 1250.4733,67 1263.2211,56.603162 1264.9375,52.75 1265.3661,51.787848 1265.8608,51.165103 1266.375,50.71875 L 1266.6562,50.21875 1264.3438,47.75 z"/>
</svg>
