<?xml version="1.0" encoding="UTF-8"?>
<svg xmlns="http://www.w3.org/2000/svg" viewBox="2493.05 20.93 41.71 85.6">
  <path d="M 2502.609,100.17634 C 2502.2186,99.544757 2503.0002,97.109208 2504.3458,94.764005 2508.4453,87.61905 2508.4781,86.574661 2504.6466,85.189158 2501.2195,83.949926 2496.7776,80 2498.8111,80 2499.4277,80 2501.5168,80.755651 2503.4535,81.679224 2505.3903,82.602797 2507.2706,83.062715 2507.6321,82.701264 2507.9935,82.339812 2506.9867,77.691535 2505.3946,72.371758 2502.9042,64.049915 2502.048,62.406268 2499.2624,60.599719 2495.3917,58.089407 2495.0498,56.585211 2498.5,57.244751 2500.9307,57.709402 2501,57.564238 2501,52.010551 2501,48.868894 2501.5057,44.847716 2502.1238,43.0746 2503.1669,40.082473 2503.009,39.604548 2499.9277,36.425377 2497.6244,34.049048 2497.0896,33 2498.1814,33 2499.0469,33 2500.3153,33.675 2501,34.5 2502.8619,36.743468 2503.5869,36.402151 2506.972,31.688554 2508.9074,28.993574 2511.4368,26.882224 2513.7185,26.057151 2517.1279,24.824309 2517.4912,24.888422 2519.2242,27.028587 2520.2447,28.288854 2521.4468,29.975935 2521.8954,30.777657 2522.5975,32.032219 2523.0797,31.9939 2525.3556,30.502657 2528.4831,28.453431 2528.9707,30.206654 2525.8761,32.374199 2523.9783,33.703503 2523.8263,34.454437 2524.4481,39.430903 2524.8308,42.493906 2525.3524,45 2525.6071,45 2525.8619,45 2527.1936,44.264044 2528.5664,43.364542 2532.6444,40.692543 2532.7568,42.860395 2528.7191,46.309907 2525.4243,49.124824 2524.8879,50.235041 2524.1581,55.75 2523.5186,60.582193 2523.6204,62 2524.6065,62 2525.308,62 2526.1601,61.55 2526.5,61 2526.8399,60.45 2527.879,60.018732 2528.809,60.041627 2529.9962,60.07085 2529.3557,61.094068 2526.6595,63.475805 2522.9419,66.759869 2521.0834,71.137384 2521.0239,76.75 2520.9953,79.44249 2523.0477,79.670057 2526.5664,77.364542 2527.9392,76.46504 2529.3456,76.012281 2529.6917,76.358411 2530.7987,77.465339 2526.8865,80.876285 2524.146,81.193609 2521.2092,81.533667 2521.0559,82.623348 2522.5197,92.75 2523.1238,96.929286 2522.9952,97.998835 2521.8893,97.994288 2520.9917,97.990598 2519.8806,95.404834 2518.75,90.688702 2516.5467,81.498137 2516.5591,80.726864 2519.1135,68 2520.3937,61.621608 2521.252,53.378392 2521.3002,47 2521.368,38.019205 2521.0597,35.885084 2519.1694,32.25 2517.9539,29.9125 2516.2341,28 2515.3478,28 2512.3236,28 2507.4818,34.446514 2505.7044,40.839361 2504.767,44.211104 2504,48.297178 2504,49.919526 2504,54.14857 2506.5128,65.283371 2509.4342,74 2510.8168,78.125 2511.9596,82.75246 2511.974,84.283244 2512.0206,89.265058 2504.1356,102.64646 2502.609,100.17634 z"/>
</svg>
