<?xml version="1.0" encoding="UTF-8"?>
<svg xmlns="http://www.w3.org/2000/svg" viewBox="2429.22 19.12 62.56 86.27">
  <path d="M 2436.9375,75.53125 2436.6875,75.6875 2432.0625,87.0625 C 2432.5992,87.114731 2436.6199,89.558468 2441.1562,92.625 2445.7406,95.72392 2450.85,98.864198 2452.5,99.59375 2456.7209,101.46002 2456.8638,101.43304 2460.75,97.3125 2467.0994,90.5802 2470.8392,78.108419 2471.5938,61.1875 2472.0691,50.529308 2473.7086,40.305466 2475.0625,39.46875 2475.4538,39.226875 2476.8924,39.907494 2478.2812,41 2481.3922,43.447126 2483.2236,43.523579 2485.2812,41.25 2488.2665,37.951422 2488.9375,34.605216 2487.3125,31.25 2485.3329,27.162528 2483.9117,26.748151 2479.5938,29.0625 2477.6141,30.123513 2475.6645,30.989623 2475.25,30.96875 2474.8355,30.947876 2473.2573,29.147876 2471.75,26.96875 2470.2427,24.789623 2468.6677,23.036551 2468.25,23.0625 2467.8323,23.088448 2464.6681,25.703976 2461.2188,28.875 L 2454.9688,34.625 2456.5312,39.0625 C 2458.9028,45.78025 2458.6121,62.489259 2455.9688,72.5 2453.1673,83.110131 2451.7834,85.260217 2448.4688,84 2447.081,83.472362 2444.7099,81.882605 2443.2188,80.5 2441.7277,79.117395 2440.2227,78 2439.8438,78 2439.4649,78 2438.4709,77.346 2437.6562,76.53125 2437.3213,76.196324 2437.101,75.882156 2436.9375,75.53125 z M 2467.4375,27 C 2468.0134,27.003758 2469.5293,28.504868 2470.7812,30.34375 2473.0125,33.620916 2473.0271,33.810921 2471.4688,39.59375 2470.5943,42.83861 2469.4827,51.493126 2469,58.8125 2467.9806,74.269834 2466.6201,81.540862 2463.5,88.5 2462.2666,91.250877 2460.1774,94.493953 2458.8438,95.71875 2456.4865,97.883425 2456.3317,97.897397 2453.25,96.21875 2439.7794,88.880955 2432.6559,82.937863 2434.7812,80.8125 2436.1042,79.489586 2438.1501,80.344834 2443.9375,84.5625 2448.8104,88.113654 2451.9972,88.737585 2453.6562,86.46875 2455.577,83.841883 2458.9741,74.424349 2460.125,68.53125 2461.4114,61.943675 2461.3592,46.93799 2460.0312,40.0625 L 2458.9688,34.59375 2462.6875,30.8125 C 2464.7304,28.720429 2466.8617,26.996242 2467.4375,27 z M 2481.875,31.1875 C 2484.7259,30.968763 2486.8999,33.9459 2485.0312,37.4375 2483.461,40.371673 2482.4118,40.518076 2479.25,38.3125 2476.494,36.390019 2476.4183,34.842381 2478.9375,32.5625 2479.9131,31.67963 2480.9247,31.260412 2481.875,31.1875 z"/>
</svg>
