<?xml version="1.0" encoding="UTF-8"?>
<svg xmlns="http://www.w3.org/2000/svg" viewBox="1338.15 17.26 86.11 88">
  <path d="M 1420.1562,51.59375 C 1419.1762,53.780445 1417.5682,54.910141 1414.5,56.5625 L 1411.0312,58.4375 1406.5312,54.03125 1402,49.59375 1397.4688,51.8125 C 1394.9758,53.023725 1392.7291,54 1392.4688,54 1391.7722,54 1391.8831,38.445872 1392.5938,36.59375 1393.4035,34.483761 1395.2693,34.591989 1399.2188,37 1401.0196,38.097944 1403.2373,38.997944 1404.125,39 1405.5994,39.003415 1411,32.419804 1411,30.625 1411,30.205365 1409.8153,28.325803 1408.375,26.4375 1405.1944,22.267529 1402.6306,22.079682 1397.4062,25.625 L 1393.5625,28.25 1390.9688,25.125 C 1389.5368,23.40974 1387.8766,22 1387.2812,22 1386.6859,22 1384.2907,23.591359 1381.9688,25.53125 1377.1126,29.588416 1374.8583,29.438014 1371.1875,24.875 1368.4571,21.480961 1366.2273,21.264791 1362.75,24 1360.5185,25.755337 1360.3093,26.424265 1361.0312,29.625 1361.4816,31.622037 1362.2393,33.645454 1362.7188,34.125 1363.8817,35.28789 1367.7852,35.507902 1371.625,34.625 1375.3115,33.77734 1375.3271,33.79694 1377.0625,44.125 1378.3664,51.885132 1377.8265,57.016386 1375.7188,56.96875 1375.0418,56.953449 1372.7229,55.603449 1370.5625,53.96875 1365.9155,50.452704 1363.8712,50.283667 1359.375,53.0625 1357.5326,54.201159 1355.5803,54.870627 1355.0312,54.53125 1353.9924,53.889258 1354.3684,38.382994 1355.5312,33.75 1356.1623,31.235543 1354.6823,29.094392 1353.5625,30.90625 1352.3956,32.794408 1351.2569,46.630717 1351.875,51.40625 1352.7283,57.999069 1354.6476,59.143056 1359.9062,56.1875 L 1363.9062,53.9375 1369.4062,57.03125 C 1376.8733,61.245323 1379.2113,60.810539 1380.2188,55 1380.973,50.650029 1380.897,49.307785 1379,38.5 1378.1318,33.55374 1378.1674,33.459695 1382.0312,29.75 1384.1796,27.6875 1386.3803,26 1386.9375,26 1389.1599,26 1390.9099,31.504396 1389.9688,35.5625 1389.468,37.72201 1389.0444,43.154845 1389.0312,47.625 1389.0015,57.714298 1390.0536,59.065346 1395.6562,56.0625 1400.6335,53.394865 1401.0883,53.443299 1404.5625,57.09375 1409.2101,61.977102 1410.1863,62.166402 1415.3125,59.4375 1417.7848,58.121429 1419.9555,57.114755 1420.3438,57.0625 L 1420.3438,53.0625 1420.1562,51.59375 z M 1403.4688,26.15625 C 1404.1607,26.268395 1404.6218,27.001821 1405.5625,28.4375 1406.8026,30.330051 1406.8918,31.329566 1406.0312,32.9375 1404.7329,35.363642 1403.4905,35.466769 1399.75,33.4375 1396.1906,31.506516 1396.2479,29.439249 1399.9375,27.53125 1401.8269,26.554252 1402.7768,26.044105 1403.4688,26.15625 z M 1366.0938,26.4375 C 1367.5282,25.550972 1371.4491,29.471817 1370.5625,30.90625 1369.8534,32.053586 1368.3782,32.202516 1366.25,31.34375 1364.7061,30.720754 1364.5969,27.362592 1366.0938,26.4375 z M 1420.3438,61.9375 C 1419.9176,63.062771 1419.4002,64.095324 1418.75,64.6875 1412.8493,70.061979 1410.1194,70.146475 1404.3438,65.0625 1401.8817,62.895214 1399.2247,61.366186 1398.4688,61.65625 1397.7128,61.946314 1395.8879,63.776306 1394.4062,65.71875 1391.9494,68.939855 1391.8119,69.606939 1392.75,73.375 1393.3157,75.647278 1394.7878,79.803238 1396.0312,82.625 L 1398.2812,87.75 1394.9688,92.375 C 1391.8026,96.783617 1389.1798,98.595648 1390.3438,95.5625 1392.6801,89.473988 1392.2323,87.485579 1387.4688,82.1875 1384.9014,79.331958 1382.2599,77 1381.5938,77 1380.1551,77 1374.7144,82.587804 1373.125,85.6875 1372.509,86.888842 1372,89.476342 1372,91.4375 1372,93.398657 1371.55,95 1371,95 1370.45,95 1370,94.405646 1370,93.6875 1370,92.969353 1368.8992,90.905505 1367.5625,89.09375 1364.6925,85.203655 1364.929,84.299121 1370.6875,77.21875 1373.0533,74.309848 1375.0036,71.384848 1375,70.71875 1374.9871,68.345244 1371.245,63.892173 1367.6562,61.96875 1363.0372,59.493029 1359.7917,59.47424 1357.5625,61.9375 1354.7201,65.07831 1350.4326,66.149089 1348.75,64.15625 1344.7886,59.464523 1343.9271,47.006951 1346.9062,37.5 1347.9404,34.2 1348.5636,31.121528 1348.2812,30.65625 1347.2218,28.910024 1345.1869,32.720794 1343.5625,39.53125 1342.1618,45.404036 1342.0654,47.983081 1342.9375,54.9375 1344.2139,65.117616 1345.9698,67.945461 1351,67.96875 1352.375,67.975116 1354.9805,67.097944 1356.7812,66 1361.3936,63.187867 1364.0864,63.505663 1368.5625,67.375 L 1372.4688,70.75 1368.4688,75.4375 C 1366.2804,78.030498 1363.8786,81.313729 1363.125,82.71875 1361.6725,85.427177 1362.0353,86.540251 1366.8438,94.5 1370.3415,100.29017 1377.0523,97.996565 1375.4375,91.5625 1375.0067,89.846087 1375.5013,88.060786 1377.0938,85.78125 1380.5046,80.898883 1381.1898,80.771994 1384.8438,84.28125 1388.0528,87.363332 1388.1517,87.727832 1387.5625,93.0625 1387.225,96.118114 1387.2431,98.930614 1387.625,99.3125 1389.5805,101.268 1392.9529,99.7138 1396.4062,95.28125 1401.3999,88.871787 1401.6525,87.118713 1398.5938,80.4375 1395.5308,73.74731 1395.3369,70.06466 1397.8438,66.96875 L 1399.6562,64.6875 1403.5938,68.21875 C 1409.2158,73.26472 1411.3829,73.710084 1415.4688,70.59375 1417.331,69.173396 1419.3508,68 1419.9375,68 1420.068,68 1420.1137,68.302151 1420.2188,68.40625 L 1420.3438,68.15625 1420.3438,61.9375 z"/>
</svg>
