<?xml version="1.0" encoding="UTF-8"?>
<svg xmlns="http://www.w3.org/2000/svg" viewBox="212.24 21.05 58.68 82">
  <path d="M 219.59457,98.153025 C 219.30667,97.687189 220.40511,96.027998 222.03556,94.465934 224.42424,92.177428 225,90.78816 225,87.312909 225,82.649125 224.84126,82.479405 221.93426,84.035184 220.40697,84.852565 220,84.742855 220,83.513745 220,82.657603 221.10408,81.45407 222.45351,80.839229 225.18223,79.595941 225.71632,78.076225 225.1483,73.171355 224.80754,70.228789 224.48661,69.912036 222.38141,70.440408 219.13196,71.255969 219.21811,68.756412 222.5,67 224.68671,65.829706 225,64.993986 225,60.33102 225,55.387009 223.97563,53.612381 222.5,56 221.68243,57.322849 219,57.287203 219,55.95349 219,55.377909 220.36287,54.140409 222.0286,53.20349 224.84456,51.619598 225.03763,51.148963 224.7786,46.5 L 224.5,41.5 220.50968,41 C 215.90232,40.422682 214.91194,38.309534 217.44026,34.450831 219.20418,31.758754 221.55214,31.383186 225.46699,33.166915 227.77981,34.220704 228.70625,33.870468 235.02342,29.554134 L 242.01875,24.774438 246.59263,28.52239 C 249.10826,30.583763 251.40219,32.884514 251.69024,33.63517 252.47489,35.679931 253.54635,35.291067 254.81805,32.5 255.7504,30.453703 256.66683,30 259.86778,30 262.18719,30 264.71098,30.75513 266.07026,31.855811 268.18296,33.566569 268.25906,33.960364 267.0439,36.894028 265.59057,40.402654 262.8997,42.25249 259.03156,42.402091 256.72629,42.491248 256.47225,42.937071 256.18951,47.389511 256.01874,50.078742 256.33518,52.73518 256.89271,53.292707 257.57762,53.97762 257.56755,54.939523 256.86166,56.258493 255.504,58.79531 256.69316,65.052158 258.8329,66.630309 260.36197,67.758056 260.3137,68.034484 258.25,69.968885 255.64929,72.406646 255.34968,75.215396 257.5,77 259.39466,78.572429 259.42936,81.398773 257.57292,82.939482 255.60266,84.574656 256.67694,91.039422 259.2625,93.106911 261.75346,95.09876 260.79707,95.738432 254.77429,96.108803 248.94065,96.467542 248.16978,95.798214 251.44734,93.220084 253.64188,91.493855 254,90.425673 254,85.60608 254,80.423354 252.9977,78.576677 251.5,81 251.16008,81.55 250.12102,81.987895 249.19098,81.973099 247.9848,81.953911 248.45445,81.154361 250.82911,79.184293 253.62134,76.867798 254.10514,75.864205 253.82911,72.961194 253.50084,69.508852 253.05824,69.245369 249.75,70.532897 246.78279,71.687703 247.77429,69.035375 250.99461,67.20349 253.85923,65.573946 253.96187,65.282956 253.35914,60.5 252.61944,54.630078 252.19354,53.902772 250.87531,56.25833 249.56775,58.594808 248,58.466524 248,56.023053 248,54.935732 249.04454,53.3617 250.32119,52.525204 252.17487,51.310625 252.68881,49.986856 252.87288,45.952672 253.08354,41.335934 252.74465,40.472571 248.93635,35.923975 242.52459,28.265832 242.16236,28.211143 233.96304,33.663323 L 226.88073,38.372742 227.57844,44.887887 C 228.08931,49.658332 228.81942,51.84294 230.30484,53.045758 231.64033,54.127174 232.10165,55.292731 231.65493,56.456866 231.10218,57.897303 230.70035,57.996206 229.48817,56.990179 228.20436,55.924712 228,56.441719 228,60.755111 228,63.979604 228.53265,66.197172 229.5,67 230.325,67.684689 231,68.878912 231,69.65383 231,70.428747 230.325,71.321791 229.5,71.638374 226.92889,72.624999 227.59969,78.50769 230.5,80.408043 233.93524,82.658898 233.71398,84.315726 230.0846,83.518582 227.02997,82.847673 226.92249,83.191061 227.8576,90.633369 227.93592,91.256721 228.94741,92.014491 230.10536,92.3173 233.29931,93.152538 231.80942,95.415779 227.61702,96.097233 225.57173,96.429686 223.38119,97.218812 222.74915,97.850847 221.386,99.213999 220.31377,99.316709 219.59457,98.153025 z M 222.5,37 C 222.83992,36.45 222.64148,36 222.05902,36 221.47656,36 221,36.45 221,37 221,37.55 221.19844,38 221.44098,38 221.68352,38 222.16008,37.55 222.5,37 z M 263.42798,37.079585 C 265.08449,35.249162 265.0714,35.10858 263.14871,34.079585 259.85404,32.316335 258,32.767808 258,35.333333 258,39.445258 260.54586,40.264293 263.42798,37.079585 z"/>
</svg>
