<?xml version="1.0" encoding="UTF-8"?>
<svg xmlns="http://www.w3.org/2000/svg" viewBox="786.8 17.45 64.48 87.46">
  <path d="M 821.27981,95.245701 818.05962,91.5 814.9868,94.813915 C 810.8377,99.288548 807.61963,98.924883 807.20061,93.934019 806.9701,91.18857 807.71127,89.190426 810.42166,85.250207 813.66748,80.531616 813.85296,79.87368 812.79939,76.816188 811.50474,73.059069 807.83775,67.031049 806.83549,67.012379 805.66242,66.990526 800.89759,76.337325 799.44996,81.5 795.82395,94.431418 795.58734,95 793.83195,95 791.58419,95 790.07792,89.617264 789.90149,80.954303 789.73228,72.64579 791.35897,66.804691 795.63688,60.359738 800.65729,52.796172 801.31634,52.402339 806.59177,53.813302 814.68857,55.978865 815,55.800586 815,49 815,42.346786 814.25237,41.783895 809.01369,44.492923 803.80805,47.184861 801.05771,43.836375 802.43672,36.485602 803.62294,30.162537 815.46608,21.429929 820.32599,23.294851 821.13707,23.606091 822.11008,25.692076 822.48824,27.930372 822.8678,30.176961 823.74115,32 824.43786,32 825.13199,32 827.45494,30.759901 829.59996,29.244225 835.55192,25.03856 838.56989,23.728713 840.72908,24.414014 844.61808,25.648335 846.05269,32.669507 843.9574,40.213867 842.50645,45.438181 841.12626,45.830448 837.93841,41.924533 L 835.17938,38.544035 831.63864,40.232497 C 826.9163,42.484424 824.79373,45.918482 825.18508,50.673557 825.46252,54.044643 825.79751,54.485221 828,54.375811 829.375,54.307508 831.94633,53.652453 833.71407,52.920135 838.22074,51.053166 842.03741,52.565915 844.25783,57.099182 848.35304,65.460055 848.22091,84.834 844.01119,93.263134 840.17941,100.93554 837.2074,100.49893 838.99415,92.526092 840.90907,83.981331 836.67163,68 832.49106,68 830.21603,68 825.70815,78.778903 826.47471,82.385847 826.83871,84.098631 827.21832,88.415418 827.31827,91.978706 827.5409,99.915494 826.00761,100.74505 821.27981,95.245701 z M 813.58382,91.907376 C 816.90131,88.241598 818.55068,87.858726 821.39313,90.094593 L 824,92.14516 824,90.02292 C 824,88.855688 823.36161,86.666161 822.58135,85.157305 821.26109,82.604217 821.42269,81.862014 824.91107,74.456965 830.56674,62.451245 832.53358,61.612524 837.84324,68.942295 839.7711,71.603632 840.99106,74.772905 841.42521,78.247709 842.36932,85.804139 843.67551,87.379904 844.46833,81.918895 845.34588,75.874214 843.5827,61.53826 841.58712,58.492624 839.43649,55.210341 836.07637,55.284157 829.8713,58.75 824.25783,61.885409 823.12306,61.273765 822.914,55 822.53837,43.727539 823.219,41.518116 827.99621,38.502394 833.70615,34.897869 836.25372,34.517888 838.44874,36.943357 841.35603,40.155873 842.12871,39.420096 841.80226,33.75 841.51857,28.822592 841.32715,28.480183 838.68691,28.17749 836.63545,27.942297 834.41342,28.95759 830.47981,31.92749 827.51311,34.16737 824.48151,36 823.74291,36 821.56958,36 820,33.806231 820,30.768615 820,27.293365 817.95661,26.361117 813.96409,28.014873 810.60172,29.407612 805,35.913678 805,38.426129 805,40.775574 808.81468,41.869674 812.77184,40.65519 817.27722,39.272447 817.96541,40.522956 817.98469,50.127555 818.00394,59.718049 817.33828,60.383395 809.8181,58.290259 806.7138,57.426222 803.47854,56.986126 802.62863,57.312267 801.77872,57.638407 799.44947,60.366033 797.45252,63.373657 794.2514,68.194901 793.75681,69.78878 793.2734,76.841647 792.97183,81.241417 793.04409,85.664453 793.43397,86.670615 794.1127,88.422205 794.20359,88.417453 795.57142,86.55887 796.35714,85.491249 797,83.724114 797,82.631903 797,79.516025 804.74342,64.312438 806.71588,63.555531 808.75403,62.773421 812.27502,66.58769 814.03825,71.4878 814.63439,73.14451 815.76966,75.773968 816.56107,77.33104 818.44705,81.041638 818.37635,82.603467 816.25,84.20309 813.62159,86.180401 811.31896,89.229606 810.55089,91.75 809.69067,94.572799 811.10522,94.646198 813.58382,91.907376 z"/>
</svg>
