<?xml version="1.0" encoding="UTF-8"?>
<svg xmlns="http://www.w3.org/2000/svg" viewBox="2042 21.09 38.59 79.28">
  <path d="M 2044.4375 73.5625 L 2044 73.8125 L 2044.3438 79.53125 C 2044.9399 78.115272 2046.2518 77.906438 2047.8125 79.28125 C 2051.2608 82.318804 2059.9234 86.160577 2061.9062 85.53125 C 2064.6469 84.661419 2065.6272 80.651123 2066.9375 65 C 2069.357 36.099588 2070.5026 29 2072.8438 29 C 2074.3929 29 2074.9859 33.09057 2075 44.40625 C 2075.0182 58.893926 2071.9225 75.451544 2067.2188 86.25 C 2064.1777 93.231598 2063.6076 93.306968 2052.25 87.9375 C 2047.3489 85.620425 2045.3712 84.446975 2044.5625 83.25 L 2044.9375 89.34375 L 2044.9375 89.46875 C 2047.2387 89.471181 2051.245 90.788123 2055.0938 93.15625 C 2060.3838 96.411202 2064.0397 96.769152 2066.2188 94.25 C 2073.0664 86.333737 2078.5908 60.971941 2077.7812 41.3125 C 2077.2453 28.302338 2076.1119 24.697893 2072.6875 25.1875 C 2068.0931 25.844389 2066.4947 32.387759 2064.5 58.84375 C 2063.6719 69.827855 2062.7417 79.532291 2062.4062 80.40625 C 2061.3864 83.063869 2057.8511 82.210072 2050.5938 77.53125 L 2044.4375 73.5625 z "/>
</svg>
