<?xml version="1.0" encoding="UTF-8"?>
<svg xmlns="http://www.w3.org/2000/svg" viewBox="508.81 21.14 32.19 84.85">
  <path d="M 510.96875 52.875 L 511 55.40625 L 510.8125 56.25 C 510.88192 56.226726 511.35041 56 511.375 56 C 511.61183 56 512.3158 59.0375 512.9375 62.75 C 513.5592 66.4625 515.02045 72.341483 516.21875 75.8125 C 517.9888 80.939656 518.18788 82.440269 517.1875 83.8125 C 514.2983 87.775666 512.11228 93.725781 512.6875 96.0625 C 514.18278 102.13675 517.24537 101.75803 521.53125 94.96875 C 523.72303 91.496756 526.9244 89.61578 527.03125 91.75 C 527.0519 92.1625 528.55441 94.223128 530.34375 96.3125 C 533.9378 100.50919 536.40526 100.55029 537.4375 96.4375 C 537.73281 95.260887 538.25505 94.651326 539 94.375 L 536.6875 82.4375 C 535.7894 81.827361 535.03958 81.180417 534.59375 80.5 C 532.69826 77.607119 532.59686 75.711317 534.1875 71.3125 C 535.95952 66.412044 533.7154 45.170224 530.5625 37.125 C 527.52465 29.373355 524.38544 25 521.90625 25 C 518.21501 25 513.65177 35.712002 512.53125 46.96875 C 512.23656 49.929158 511.88675 52.414392 511.75 52.5 C 511.67107 52.549412 511.12519 52.788518 510.96875 52.875 z M 521.5625 28 C 523.14001 28 527.20654 34.79933 526.8125 36.78125 C 526.64916 37.602803 525.5724 38.872823 524.4375 39.625 C 522.62696 40.824967 522.10603 40.756134 520.1875 38.96875 C 518.9849 37.848361 518 36.052695 518 35 C 518 32.186151 520.13241 28 521.5625 28 z M 517.0625 41.25 C 517.79222 40.884653 518.76973 41.407405 520.21875 42.71875 C 521.7461 44.100989 522.44361 44.170244 523.8125 43.1875 C 528.94757 39.500953 530.502 41.093558 531.5 51.03125 C 532.57276 61.713327 532.29014 69.091512 530.625 73.71875 C 529.67554 76.357185 529.48264 78.184814 530.09375 78.5625 C 531.01722 79.133232 534.07622 85.33714 535.40625 89.34375 C 536.07025 91.34399 535.18441 96.03701 534.15625 95.96875 C 533.80338 95.945323 531.72532 93.615306 529.5625 90.8125 L 525.625 85.71875 L 523.5625 88.125 C 522.42532 89.44914 520.2564 92.116655 518.75 94.03125 L 516.03125 97.5 L 516 93.8125 C 515.99254 91.341632 516.81835 89.186031 518.5 87.1875 C 521.41715 83.720667 521.66773 80.481461 519.34375 75.84375 C 518.42569 74.011678 517.35808 71.815525 516.96875 70.96875 C 515.82468 68.480443 514.74914 49.538038 515.5 45.09375 C 515.87591 42.868721 516.33278 41.615347 517.0625 41.25 z "/>
</svg>
