<?xml version="1.0" encoding="UTF-8"?>
<svg xmlns="http://www.w3.org/2000/svg" viewBox="2171.53 19.73 33.71 79.8">
  <path d="M 2177.0312 77.78125 L 2176 78.53125 L 2175.75 81.3125 C 2176.3404 81.082474 2177.1445 81.462416 2178.8438 82.71875 C 2183.0532 85.831009 2186.3526 86.484951 2188 84.5 C 2188.7468 83.600127 2190.3804 78.960484 2191.625 74.1875 C 2193.6488 66.426128 2194.6258 55.732572 2195.4062 32.59375 C 2195.5732 27.644516 2197.6893 28.53103 2199.0312 34.125 C 2201.8276 45.781448 2197.5922 77.916508 2192.0312 87.25 C 2189.4639 91.559197 2188.3719 91.690712 2181.4688 88.53125 C 2177.9704 86.930148 2176.0602 85.665151 2175.2188 84.46875 L 2173.5312 88.96875 L 2179.875 91.84375 C 2188.837 95.910742 2190.4601 95.829796 2193.3125 91.25 C 2198.5128 82.900471 2201.792 68.380079 2202.625 50 C 2203.2431 36.360751 2203.1593 35.188349 2201.0312 30.25 C 2198.6041 24.617502 2195.9446 23.362326 2194.0312 26.9375 C 2193.4602 28.004398 2192.5405 37.116898 2191.9688 47.1875 C 2191.0117 64.042392 2188.3636 79.594862 2186 82.3125 C 2185.2224 83.20658 2180 81.110298 2180 79.90625 C 2180 79.481596 2179.1285 78.869592 2178.0625 78.53125 C 2177.6814 78.410282 2177.3612 78.072356 2177.0312 77.78125 z "/>
</svg>
