<?xml version="1.0" encoding="UTF-8"?>
<svg xmlns="http://www.w3.org/2000/svg" viewBox="795.88 16.98 77.16 88.88">
  <path d="M 839.34606,99.180225 C 837.47556,97.964022 837.23223,95.567854 838.6299,92.127876 840.49351,87.5411 840.35828,85.725192 837.92245,82.628538 834.12276,77.798021 832.42961,77.568802 829.96807,81.551671 828.11365,84.552182 827.88557,85.928573 828.469,90.598184 829.65732,100.10921 825.65359,101.82073 820.07118,94.188102 814.08407,86.002144 814.0054,85.004792 818.80677,78.15996 824.35441,70.251253 824.25143,68.361189 818.01935,63.70851 L 813.0387,59.990111 810.51935,64.961812 C 809.13371,67.696247 808,70.793372 808,71.844312 808,74.706817 805.38493,76.564355 803.52646,75.021962 799.39021,71.589174 801.23539,61.335927 807.53454,52.75 811.7969,46.940295 813.66977,46.764611 820.86009,51.5 823.78305,53.425 826.36029,55 826.58728,55 826.81428,55 827,52.525 827,49.5 827,44.113757 826.94077,44 824.13636,44 821.51374,44 816,39.932983 816,37.998495 816,35.544924 826.43786,24.475489 830.23422,22.902984 833.91492,21.378386 834.96263,22.654923 834.98469,28.690983 834.99311,30.996024 835.40087,33.129715 835.89082,33.43252 836.38076,33.735325 838.57782,32.186883 840.77317,29.991537 842.96851,27.796192 845.26765,26 845.88235,26 848.80429,26 845.8411,34.748648 840.80931,40.977844 838.60854,43.702334 838,45.489409 838,49.227844 838,53.229595 838.30311,54 839.87756,54 840.91021,54 842.31531,53.325 843,52.5 844.88994,50.222756 845.99845,50.638189 849.76091,55.033778 853.81579,59.770999 855.01576,59.336814 857.42711,52.259913 859.57502,45.956137 859.4326,41.701477 857,39.5 854.4677,37.208301 854.45555,36 856.96482,36 861.67333,36 862.7724,47.00918 858.95076,55.89283 855.9111,62.958707 852.85721,63.756234 848.43397,58.639303 845.08487,54.764958 843.4497,54.625082 839.65968,57.888724 837.96837,59.345137 837.70522,59.317354 836.40968,57.545595 833.80561,53.984315 835.21279,40 838.17521,40 839.11985,40 842.99034,34.039519 842.99626,32.575686 842.99832,32.067313 841.9585,32.629813 840.68555,33.825686 836.04746,38.18294 832,36.07397 832,29.3 832,26.935 831.73613,25 831.41362,25 830.63553,25 819.99565,36.093504 820.01531,36.884262 820.06811,39.007108 822.34065,40.441573 825.69433,40.468942 L 829.5,40.5 829.81082,46.5 C 830.24585,54.897766 829.34871,59 827.07713,59 826.0694,59 824.66316,58.299064 823.95217,57.442364 823.24117,56.585664 820.63651,54.69921 818.16403,53.250243 L 813.66863,50.615758 810.01511,54.732758 C 805.36211,59.976026 802.45147,68.924923 804.90574,70.441743 805.4039,70.749621 806.53068,68.890784 807.4097,66.310995 808.94559,61.803412 812.43982,57 814.18297,57 815.86201,57 823.53113,63.211105 825.29828,66.002117 827.02176,68.724171 827.02798,69.046649 825.41766,72.186953 824.48326,74.009129 822.40781,77.416282 820.80555,79.758404 819.18001,82.134553 818.20471,84.565606 818.59903,85.258404 820.67569,88.906991 825.39134,96 825.74037,96 825.96232,96 825.83909,93.560243 825.46652,90.578317 824.82885,85.474623 825.00629,84.829459 828.4918,79.578317 830.52827,76.510243 832.76841,74 833.46988,74 835.33076,74 842.82564,82.457117 843.56088,85.38655 843.95512,86.957337 843.59488,88.740302 842.59477,90.168162 840.86899,92.632054 840.4034,96.486753 841.94679,95.532887 843.45022,94.603715 849,86.030136 849,84.636732 849,83.94208 847.2,80.389288 845,76.741638 840.60122,69.448368 840.0563,66.16401 842.82874,63.654988 845.51888,61.220445 846.99146,61.586306 851.26108,65.75 L 855.10649,69.5 857.03083,67 C 864.22799,57.649839 869.02254,30.997355 864.42191,25.91371 863.49285,24.887109 862.35215,24.282361 861.88702,24.569826 860.76726,25.261878 857,23.209432 857,21.907318 857,21.325729 858.7891,21.017568 861.15003,21.192502 867.51097,21.663818 869.5349,25.01893 869.37447,34.826321 869.25274,42.267829 866.77122,53.82512 863.73476,61.09239 862.10424,64.994767 856.36949,72 854.80537,72 854.26228,72 851.99384,70.438648 849.7644,68.530329 843.31385,63.008897 841.82288,66.431691 847.0079,74.858414 852.58307,83.919225 852.64191,84.89216 848.03417,91.829252 843.86359,98.108179 841.18408,100.3753 839.34606,99.180225 z"/>
</svg>
