<?xml version="1.0" encoding="UTF-8"?>
<svg xmlns="http://www.w3.org/2000/svg" viewBox="941.3 19.19 33.95 83.85">
  <path d="M 972.125 86.65625 C 971.13656 86.256882 969.15657 84.899308 967.03125 83.0625 C 962.89305 79.486063 962.56595 78.876714 962.78125 74.84375 C 962.90917 72.447585 963.06248 64.2 963.125 56.5 C 963.22311 44.415047 962.95045 41.679266 961.0625 36.5 C 959.85958 33.2 958.39572 28.8125 957.8125 26.75 C 956.97813 23.799358 956.26245 23 954.4375 23 C 953.16186 23 951.76894 23.5625 951.34375 24.25 C 950.91856 24.9375 950.48876 34.95 950.375 46.5 C 950.1729 67.017593 950.08442 67.810119 946.625 81 C 943.61778 92.465762 943.29922 94.703242 944.46875 95.875 C 946.20456 97.61411 949.49828 96.840685 954.375 93.53125 C 956.42172 92.14231 958.70163 91 959.46875 91 C 960.23587 91 962.9581 92.8 965.5 95 C 968.80927 97.864154 970.88562 99.226104 973.25 98.78125 L 972.96875 95.90625 C 972.93971 95.909549 972.83897 96 972.8125 96 C 971.72452 96 969.48857 94.644813 967.84375 93 C 961.25263 86.408879 957.95654 85.499655 954.375 89.28125 C 951.98377 91.806038 947.23962 94.583361 946.53125 93.875 C 946.09983 93.443572 948.64623 82.709122 951.34375 73.5 C 952.08079 70.983799 952.5 61.43157 952.5 47.75 C 952.5 34.18246 952.86523 26.111599 953.46875 26.3125 C 955.03823 26.834951 958.85792 37.31057 959.96875 44.15625 C 961.2977 52.346139 961.27615 63.133572 959.9375 70.375 C 958.47965 78.26124 959.88913 82.137617 965.59375 86.0625 C 968.02485 87.735139 970 89.538922 970 90.0625 C 970 90.586077 970.83517 91 971.84375 91 C 971.9915 91 972.28456 90.792954 972.5 90.6875 L 972.125 86.65625 z "/>
</svg>
