<?xml version="1.0" encoding="UTF-8"?>
<svg xmlns="http://www.w3.org/2000/svg" viewBox="1619.93 17.48 32.99 85.86">
  <path d="M 1631.6163,92.654255 C 1628.6715,86.42953 1625.7909,78.569702 1623.8633,71.5 1622.0183,64.733257 1621.9263,27.675462 1623.75,25.850719 1624.75,24.850115 1625,27.927813 1625,41.240983 1625,50.393524 1625.3444,58.094808 1625.7653,58.354948 1626.1862,58.615088 1628.4228,57.062906 1630.7355,54.905656 L 1634.9404,50.983382 1635.2202,38.488431 C 1635.6033,21.378484 1637.3615,21.742233 1638,39.063564 1638.4759,51.972922 1638.6295,52.780818 1641.1854,55.813564 1642.6624,57.566104 1644.3499,59 1644.9354,59 1645.6247,59 1646.0524,54.505694 1646.1487,46.25 1646.3694,27.325565 1646.4292,26.244963 1647.3044,25.365886 1650.0599,22.59807 1650.912,38.99349 1648.8705,55.5 1648.2583,60.45 1647.7963,66.3 1647.8438,68.5 1647.8914,70.7 1647.5141,73.85 1647.0055,75.5 1646.4968,77.15 1645.5,81.422659 1644.7903,84.994797 1643.9037,89.457359 1642.6071,92.508153 1640.6464,94.744797 1636.5377,99.431724 1634.6116,98.985811 1631.6163,92.654255 z M 1645,67.002881 C 1645,64.939867 1638.9785,57.594048 1635.9657,55.981646 1632.5089,54.131646 1623.8936,64.560219 1626.6234,67.290087 1626.9663,67.632968 1628.7617,66.758039 1630.6133,65.3458 1634.5341,62.355275 1637.8721,62.693795 1641.3238,66.431983 1644.0583,69.393426 1645,69.539673 1645,67.002881 z M 1640.4105,88.839134 C 1641.88,85.450658 1643.3553,80.687209 1643.6888,78.253691 1644.3379,73.517809 1643.239,71.823638 1636.7678,67.58353 1634.1487,65.867429 1633.9758,65.881043 1630.9406,68.042296 1627.5943,70.425076 1627.58,70.588675 1629.9184,79.728072 1631.1356,84.485145 1636.0647,95 1637.0776,95 1637.4411,95 1638.9409,92.22761 1640.4105,88.839134 z"/>
</svg>
