<?xml version="1.0" encoding="UTF-8"?>
<svg xmlns="http://www.w3.org/2000/svg" viewBox="2658.04 17.55 75.29 86.75">
  <path d="M 2729.9062,85.15625 C 2725.9406,91.484582 2722.1564,98.812582 2722.7188,99.375 2723.6983,100.35456 2724.9283,98.617536 2729.9062,89.9375 L 2729.9062,85.15625 z M 2695.4375,22.25 C 2690.0601,22.856114 2683.994,27.459023 2680.3438,33.6875 2677.6747,38.24193 2677.6092,38.736711 2677.0312,60.53125 2677.0159,61.106789 2674.5266,64.481789 2671.5,68.03125 2664.1088,76.69959 2661.4623,82.104073 2663.0938,85.1875 2665.0552,88.894586 2673.1373,98 2674.4688,98 2675.1404,98 2676.5377,96.434111 2677.5625,94.53125 2679.1759,91.535226 2679.2805,90.385901 2678.3438,85.8125 2677.023,79.365332 2677.2743,78.62924 2681.7812,75.84375 L 2685.3438,73.625 2689.6562,78.40625 C 2694.1957,83.420183 2694.9154,86.202769 2692.4688,89.4375 2690.5546,91.968141 2690.5903,95.465222 2692.5625,97.4375 2694.9938,99.868807 2696.2584,99.358478 2700.5312,94.3125 2709.8774,83.27549 2709.8753,83.236168 2696,63.8125 2691.7242,57.826902 2691.4935,57.174101 2691.5625,50.90625 2691.6193,45.748784 2692.1496,43.623404 2693.9062,41.15625 2697.4691,36.152849 2699.4151,35.538392 2703.9062,38.0625 2708.8924,40.864858 2712,46.947497 2712,53.875 2712,56.702258 2712.45,59 2713,59 2713.5563,59 2714,56.328642 2714,52.96875 2714,45.784072 2711.5398,40.276043 2706.75,36.6875 2701.9121,33.062844 2699.4756,32.60405 2695.9062,34.6875 2691.7505,37.113147 2689.057,42.736818 2688.3438,50.375 2687.6635,57.660949 2687.9445,58.369439 2696,69 2702.7237,77.873049 2704,80.121857 2704,83.09375 2704,85.536903 2696.575,96 2694.8438,96 2693.5873,96 2694.1535,91.985585 2696.0625,87.34375 2697.3149,84.298296 2697.1737,83.925986 2692.375,77.34375 2689.6349,73.585345 2686.6255,70.342919 2685.6562,70.15625 2684.5818,69.949322 2681.8957,71.791791 2678.8125,74.875 2674.8654,78.822105 2673.8855,80.441085 2674.3125,82.21875 2675.7246,88.0978 2675.9426,91.625171 2675,93 2674.1453,94.246559 2673.2337,93.711562 2669.5,89.8125 2662.9431,82.965232 2663.188,81.66856 2673.4688,69.0625 L 2679.4375,61.75 2679.5312,51.125 C 2679.6225,41.704788 2679.927,39.920985 2682.2812,35.34375 2685.4033,29.274058 2689.137,26.318783 2694.8438,25.40625 2700.7278,24.465358 2704.5947,26.319655 2711.1875,33.21875 2715.487,37.718025 2717.3573,39.024342 2718.8125,38.5625 2719.8719,38.226239 2722.3774,37.887597 2724.375,37.8125 2726.8382,37.719899 2728,37.21352 2728,36.21875 2728,35.042537 2727.0519,34.858235 2723.1562,35.375 L 2718.2812,36.03125 2712.7812,30.15625 C 2706.6283,23.556717 2702.1409,21.494437 2695.4375,22.25 z M 2721.125,48 C 2719.8783,48 2719.0159,51.696028 2719,57.25 2718.9845,62.617621 2720.4295,63.602568 2721.375,58.875 2722.2881,54.309319 2722.1466,48 2721.125,48 z"/>
</svg>
