<?xml version="1.0" encoding="UTF-8"?>
<svg xmlns="http://www.w3.org/2000/svg" viewBox="1660 17.72 38.13 85.24">
  <path d="M 1674.3941,94.795187 C 1671.3068,88.825035 1671.6974,75.334006 1675.6112,52.753411 1676.239,49.131593 1676.1314,48.954106 1672.3803,47.423847 1667.0165,45.235687 1662,39.668677 1662,35.904511 1662,30.895795 1665.4938,25.27008 1669.0958,24.47895 1673.0993,23.599633 1675.7441,25.039405 1679.3054,30.03685 1682.0017,33.820547 1682.2017,33.913932 1684.4522,32.439344 1685.7401,31.595521 1688.0393,29.107756 1689.5617,26.910977 1693.2465,21.593852 1695.4044,22.03836 1695.8022,28.196441 1696.1255,33.199675 1693.6659,39.437189 1689.6377,43.830007 1687.6104,46.040732 1687.5165,46.98781 1687.8035,62.330007 1688.0646,76.285055 1687.8143,79.59583 1685.9767,86.5 1684.8056,90.9 1683.137,95.2875 1682.2687,96.25 1679.7101,99.086281 1676.286,98.453688 1674.3941,94.795187 z M 1681.8445,91.441972 C 1685.1065,84.282526 1686.3884,64.60287 1684.4937,50.769955 1684.0629,47.62512 1684.5288,46.324568 1687.4631,42.480435 1691.0025,37.843548 1693.8738,30.540493 1692.6419,29.308529 1692.2686,28.935313 1690.2651,30.288214 1688.1895,32.314977 1686.1139,34.34174 1683.7014,36 1682.8283,36 1681.9552,36 1679.5816,33.975 1677.5535,31.5 1673.2241,26.216492 1670.1866,25.675964 1667.0726,29.634859 1662.576,35.35134 1666.0834,42.803673 1674.3439,45.084497 1677.5851,45.979445 1677.9987,46.457495 1677.9881,49.297004 1677.9816,51.058652 1677.3988,54.75 1676.6929,57.5 1675.118,63.636279 1675.1996,87.372572 1676.809,91.25 1678.239,94.695099 1680.326,94.774664 1681.8445,91.441972 z"/>
</svg>
