<?xml version="1.0" encoding="UTF-8"?>
<svg xmlns="http://www.w3.org/2000/svg" viewBox="970.13 16.58 34.26 86.12">
  <path d="M 972.125,86.65625 972.5,90.6875 C 975.93039,89.008348 987.19719,74.895366 986.375,73 986.01712,72.175 985.54334,70.15 985.3125,68.5 985.08166,66.85 984.21904,61.9 983.40625,57.5 982.33681,51.710596 982.17922,47.781768 982.8125,43.25 983.45564,38.647697 983.33941,36.394681 982.40625,34.75 981.70791,33.519185 980.14177,30.3625 978.9375,27.75 976.94142,23.419784 974,21.297106 974,24.1875 974,25.945773 977.91202,33.671463 979.4375,34.9375 980.42257,35.755031 980.63776,38.281334 980.28125,44.78125 979.85236,52.600783 980.94783,62.050578 983.53125,72.34375 984.00334,74.224683 983.05079,76.045035 979.03125,80.875 976.2209,84.251983 973.3862,86.985163 972.71875,86.96875 972.62825,86.966525 972.28004,86.718893 972.125,86.65625 z M 972.96875,95.90625 973.25,98.78125 C 975.86799,98.28868 978.82772,95.569668 984.3125,89.9375 995.85952,78.080179 998.14903,72.57543 994.40625,65.5 993.53343,63.85 992.20677,58.532234 991.46875,53.6875 989.85432,43.089564 990.78542,39.410759 996.90625,32.25 1002.3854,25.839879 1000.7813,24.561522 994.9375,30.6875 991.82674,33.948482 989.74768,37.21431 988.96875,40.09375 986.95939,47.521668 988.88558,61.014507 993.1875,69.6875 994.07104,71.468772 993.79779,72.680301 991.6875,76.28125 987.98046,82.606827 975.53781,95.614344 972.96875,95.90625 z M 981.4375,20.5 C 981.21998,20.492183 981.02941,20.564342 980.84375,20.75 980.10112,21.492631 980.71867,23.181293 982.9375,26.40625 984.67441,28.930762 986.65142,31.004771 987.3125,31 988.78041,30.989407 996,24.260249 996,22.90625 996,21.672355 992.81547,23.28765 991.03125,25.4375 988.90789,27.995998 986.31877,27.220812 984.03125,23.34375 982.89737,21.421961 982.09006,20.523452 981.4375,20.5 z"/>
</svg>
