<?xml version="1.0" encoding="UTF-8"?>
<svg xmlns="http://www.w3.org/2000/svg" viewBox="2750.63 17.24 83.07 85.65">
  <path d="M 2754.4062,77.4375 C 2755.5587,75.487102 2755.6328,75.282158 2757.0625,72.875 2770.3618,50.483403 2773.9534,43.525927 2771.7812,44.25 2770.5341,44.665724 2767.5613,49.369918 2761.2188,61 2759.7485,63.695931 2756.9283,68.45104 2754.4062,72.6875 L 2754.4062,77.4375 z M 2779.0938,66 C 2777.906,66 2760,95.54191 2760,97.5 2760,97.783332 2760.425,98 2760.9375,98 2762.1773,98 2765.7025,92.970731 2767.5312,88.59375 2768.3397,86.658746 2771.4732,81.254375 2774.5,76.5625 2779.9376,68.133539 2780.8556,66 2779.0938,66 z M 2823.2812,21.1875 C 2820.4502,21.33609 2816.8981,22.673161 2814.0938,24.78125 2811.184,26.968576 2809.6025,27.364318 2803.0625,27.46875 2796.9025,27.567114 2794.7822,28.000469 2792.2812,29.78125 2788.5874,32.411577 2787.1352,32.501507 2782.2188,30.40625 2777.467,28.381205 2767.092,28.36958 2763.3438,30.375 2759.0431,32.675942 2754.4099,36.74653 2755.1875,37.53125 2755.5665,37.913755 2757.8663,36.787984 2760.3125,35.03125 2764.2916,32.173625 2765.5129,31.8125 2771.7188,31.8125 2776.7569,31.8125 2779.9192,32.419628 2783.2812,34 L 2787.9062,36.1875 2791.625,33.34375 C 2795.0801,30.711609 2795.9789,30.504666 2803.8125,30.625 2812.0032,30.750818 2812.3083,30.657664 2814.9062,27.75 2816.961,25.450389 2818.5328,24.726083 2821.5625,24.625 2825.094,24.507178 2825.5467,24.780623 2825.8125,27.0625 2825.9978,28.65233 2825.3379,30.314577 2824.0625,31.46875 2821.4748,33.810651 2821.4435,36.186415 2824,38.5 2826.5816,40.836282 2826.5236,41.870791 2823.75,42.9375 2821.9646,43.624168 2820.8806,43.235333 2818.5,41.03125 2812.6224,35.589445 2808.7954,34.821157 2800.75,37.5625 2794.6744,39.632655 2793.7229,40.97776 2793.7812,47.46875 2793.8725,57.621545 2801.5817,67 2809.8125,67 2813.9246,67 2819.7468,61.14457 2820.5,56.25 2821.5442,49.464352 2822.4626,47.519776 2824.7812,47.1875 2826.7136,46.910577 2827,47.29975 2827,50.25 2827,54.43988 2823.531,65.335236 2820.75,69.875 2818.5334,73.493564 2813.8112,76 2809.2188,76 2807.6497,76 2803.94,74.7625 2800.9688,73.25 2796.8339,71.145049 2794.8852,69.367908 2792.7188,65.625 2791.1622,62.935556 2789.6358,59.335556 2789.3125,57.625 2788.624,53.981875 2787.1336,51.784668 2785.875,52.5625 2784.6826,53.299482 2785.6996,57.218918 2789,64.59375 2792.1505,71.633723 2796.7501,75.67593 2803.8125,77.625 2808.0516,78.794921 2812.6429,78.726398 2817.1562,77.40625 2822.0248,75.982262 2828.9037,60.849034 2829.0312,51.28125 2829.1867,39.622854 2829.0653,38.880813 2826.7812,37.03125 L 2824.5625,35.21875 2827.3125,31.25 C 2829.7349,27.754482 2829.9229,26.956203 2828.875,24.65625 2828.2189,23.216435 2826.8414,21.764058 2825.8125,21.4375 2825.0858,21.206842 2824.2249,21.13797 2823.2812,21.1875 z M 2809.7188,39.09375 C 2811.0003,39.194219 2812.0206,39.635983 2813.625,40.5 2817.587,42.633639 2819.4157,45.950977 2819.0938,50.5 2818.7484,55.377921 2817.1017,60.665431 2815.5312,61.96875 2814.7257,62.637223 2812.4911,63.540823 2810.5938,63.96875 2807.6239,64.638562 2806.6612,64.335471 2803.5625,61.78125 2801.5828,60.149419 2799.246,57.43429 2798.375,55.75 2796.5286,52.17956 2796.0187,43.578076 2797.5625,42.03125 2798.1476,41.445077 2801.2009,40.440472 2804.3438,39.78125 2806.9058,39.243859 2808.4372,38.993281 2809.7188,39.09375 z M 2786.7812,85.0625 C 2785.525,85.119877 2779,94.396504 2779,96.125 2779,99.003224 2783.0554,94.66955 2786.375,88.25 2787.6204,85.841742 2787.7265,85.019322 2786.7812,85.0625 z"/>
</svg>
