<?xml version="1.0" encoding="UTF-8"?>
<svg xmlns="http://www.w3.org/2000/svg" viewBox="1258.62 17.96 105.3 88.88">
  <path d="M 1267.8125,48.15625 1267.125,49.75 1266.9062,52.875 1267.1875,52.03125 1272.9375,55.21875 1278.6875,58.40625 1283.0312,55.1875 C 1288.2618,51.34098 1289.7024,51.291413 1299.0938,54.46875 1308.8321,57.76348 1309.4556,57.24168 1308.625,46.53125 1308.2829,42.120359 1307.5847,37.028251 1307.0625,35.21875 1306.1854,32.179686 1306.4024,31.671103 1309.8125,28.5 1311.843,26.611882 1313.9605,25.046131 1314.5312,25.03125 1315.102,25.016368 1317.0824,26.258613 1318.9062,27.78125 L 1322.2188,30.53125 1320.625,39.03125 C 1317.1927,57.588834 1318.1928,60.356452 1326.2812,54.75 1329.0718,52.81577 1329.0781,52.809485 1334.5625,55.40625 1337.5799,56.83488 1340.9096,58 1341.9375,58 1342.7631,58 1343.818,57.262449 1344.9688,56.21875 L 1343.7812,54.15625 C 1343.0843,54.660052 1342.4103,55 1341.8125,55 1341.1107,55 1338.1717,53.7625 1335.2812,52.25 1330.9082,49.961711 1329.7148,49.720453 1328.25,50.75 1327.2818,51.430505 1325.2625,52.65388 1323.75,53.5 L 1321,55.0625 1321.0312,51.28125 C 1321.0698,47.139137 1323.4069,35.249408 1324.375,34.28125 1324.7093,33.947 1326.8425,34.288258 1329.0938,35.03125 1334.633,36.859378 1336.4231,35.615201 1336.8125,29.71875 1337.0646,25.900981 1336.7796,25.056402 1335.125,24.53125 1332.9812,23.850854 1326.6703,26.094563 1325.5312,27.9375 1325.0588,28.701752 1323.2123,27.906433 1319.9062,25.53125 1317.1996,23.586671 1314.7249,22 1314.4062,22 1314.0876,22 1311.9117,23.575 1309.5625,25.5 1307.2133,27.425 1304.8074,29 1304.2188,29 1303.6302,29 1301.7686,27.6124 1300.0625,25.90625 1296.7039,22.547731 1293.6855,22.470781 1290.5,25.65625 1288.554,27.602218 1289.2357,31.81623 1291.8125,33.8125 1293.4225,35.059768 1294.9161,34.991811 1301.2188,33.4375 1304.5653,32.612188 1305.4737,34.437884 1306.5312,44.3125 1307.4998,53.357535 1306.4977,54.575435 1300.3438,51.9375 1292.1663,48.432204 1289.1084,48.44828 1283.6875,52.0625 L 1278.875,55.28125 1273.9062,52.96875 C 1269.896,51.09044 1268.3133,50.025135 1267.8125,48.15625 z M 1295.3125,25.46875 C 1295.9007,25.52234 1296.5189,26.087792 1297.6562,27.15625 1298.9482,28.370006 1300,29.634156 1300,30 1300,31.063932 1295.666,32.651966 1293.8438,32.25 1291.0482,31.633296 1290.6484,28.698888 1293.0938,26.71875 1294.1648,25.851489 1294.7243,25.41516 1295.3125,25.46875 z M 1332.9375,27 C 1334.2443,27.203951 1335.2468,28.086763 1335.625,29.59375 1336.0582,31.319751 1335.7921,32.51296 1334.875,33.09375 1332.8379,34.383882 1331.7787,34.180879 1329,31.96875 1326.554,30.021457 1326.5383,29.955376 1328.4375,28.5 1330.0074,27.297047 1331.6307,26.796049 1332.9375,27 z M 1348.5312,62.25 C 1348.4334,62.373165 1348.3828,62.498369 1348.2812,62.625 L 1345.1875,66.46875 1338.0312,62.71875 C 1329.3427,58.180323 1328.4025,58.489561 1324.4375,67.1875 1320.3962,76.052806 1320.5302,80.891318 1324.9062,85.40625 1329.4588,90.103319 1332.8978,90.756278 1337.9688,87.90625 1342.2761,85.485417 1341.4985,85.352743 1350,90.09375 1353.5555,92.07655 1357.8637,92.322537 1357.0312,90.5 1356.78,89.95 1355.0608,88.987756 1353.1875,88.34375 1351.3142,87.699744 1348.464,85.896116 1346.8438,84.34375 L 1343.875,81.5 1338.9688,84.125 C 1332.897,87.362625 1329.8089,86.906141 1326.2812,82.28125 1323.7746,78.99479 1323.7012,78.607551 1324.875,74.21875 1326.7027,67.385485 1329.0076,63 1330.8125,63 1331.6906,63 1335.2183,64.467535 1338.6562,66.25 L 1344.9375,69.46875 1348.9688,65.53125 C 1349.3235,65.184844 1349.5466,64.878189 1349.875,64.53125 L 1348.5312,62.25 z M 1266.2812,61.25 1269.5,63.4375 C 1275.5196,67.522514 1277.9645,67.557636 1284.7812,63.5625 1291.6938,59.511111 1293.3872,59.266392 1297.3438,61.875 1300.6577,64.05985 1303.323,68.173487 1306,75.21875 1307.7215,79.749328 1307.7686,80.549 1306.4688,83.0625 1304.7124,86.458793 1301.2799,89.023845 1298.5312,88.96875 1297.4162,88.946398 1294.9354,87.596398 1293.0312,85.96875 1288.767,82.323951 1287.0316,82.263875 1283,85.65625 1279.9847,88.193398 1279.6306,88.244347 1274.7812,87.125 1269.1862,85.833491 1267.4821,86.401487 1270.4375,88.5625 1274.1167,91.252802 1279.0962,91.492936 1283.1562,89.15625 1287.8722,86.442113 1288.4171,86.457366 1292.4062,89.5 1297.4584,93.353406 1300.9755,92.846673 1305.875,87.53125 1310.63,82.372694 1310.827,80.776529 1307.75,72.59375 1305.1571,65.698512 1298.8928,58.500939 1294.5312,57.40625 1291.5759,56.664513 1290.5878,57.060747 1281.375,62.53125 1278.5699,64.196914 1277.8325,64.265461 1274.1875,63.0625 1271.9503,62.324176 1269.8801,61.090188 1269.5938,60.34375 1269.3073,59.597312 1268.1484,59 1267.0312,59 1266.7687,59 1266.6425,59.001663 1266.4375,59 L 1266.2812,61.25 z M 1317.9062,91 C 1317.398,91 1314.348,92.8 1311.125,95 1307.902,97.2 1304.316,99 1303.1562,99 1300.371,99 1293.1803,96.13077 1289.7812,93.65625 L 1287.0625,91.6875 1283.0625,94.46875 C 1279.7093,96.792552 1278.4357,97.117169 1275.3125,96.53125 1273.2592,96.146044 1270.3023,94.738827 1268.7188,93.40625 1265.5284,90.721777 1263.4031,91.043068 1264.9688,93.96875 1266.1977,96.264968 1273.7756,100 1277.1875,100 1278.5896,100 1280.8827,99.1 1282.2812,98 1285.4828,95.481581 1285.7977,95.492633 1291.6562,98.375 1294.3139,99.682568 1297.175,101.01349 1298,101.3125 1302.0929,102.79592 1306.0283,101.85218 1311.6562,98.0625 L 1317.5,94.125 1320.5,96.0625 C 1322.15,97.12761 1325.4419,98.920371 1327.8125,100.0625 L 1332.125,102.15625 1337.0312,99.5625 C 1342.7281,96.583675 1343.6671,96.496079 1347.5938,98.4375 1349.51,99.384911 1351.6771,99.625671 1353.9375,99.15625 1358.8598,98.134059 1359.1333,96.007698 1354.3438,96 1352.2355,95.996612 1349.2004,95.321612 1347.625,94.5 1343.7812,92.495348 1343.4719,92.52983 1337.7812,96.03125 1335.0628,97.703971 1332.0785,98.855208 1331.1562,98.5625 1330.234,98.269791 1327.0867,96.430012 1324.1562,94.5 1321.2257,92.569987 1318.4144,91 1317.9062,91 z"/>
</svg>
