<?xml version="1.0" encoding="UTF-8"?>
<svg xmlns="http://www.w3.org/2000/svg" viewBox="875.62 17.12 31.23 85.55">
  <path d="M 903.9375 85.25 C 903.07912 84.724897 901.58975 83.598129 899.4375 81.59375 L 894.71875 77.1875 L 895.90625 60.25 C 897.51903 36.974193 896.36417 30.664056 889.59375 25.5 C 883.70226 21.006342 883.49687 21.60911 883.375 45.25 C 883.27021 65.576886 882.16204 76.844275 879.09375 88.5 C 877.61825 94.105064 877.74251 97 879.4375 97 C 880.22596 97 883.08575 95.601293 885.8125 93.90625 C 890.51595 90.982424 890.94416 90.914552 893.65625 92.34375 C 895.22854 93.172306 898.04315 95.021013 899.9375 96.4375 C 901.53995 97.635724 903.48814 98.497229 904.84375 98.78125 L 904.625 95.4375 C 903.23605 94.831414 901.20554 93.635503 898.9375 91.9375 C 892.87125 87.395923 890.28463 87.249155 885 91.15625 C 881.36067 93.846927 880.48249 93.174766 881.875 88.8125 C 884.93625 79.22264 886.34246 65.911148 886.375 46.8125 C 886.40669 28.220485 886.52608 27.21911 888.21875 28.125 C 890.38669 29.285249 892.43274 33.965237 893.375 39.90625 C 893.7586 42.324857 893.54787 51.865128 892.90625 61.125 L 891.75 77.96875 L 895.53125 82.21875 C 897.62442 84.565271 900.5393 87.292545 902 88.25 L 904.25 89.71875 L 903.9375 85.25 z "/>
</svg>
