<?xml version="1.0" encoding="UTF-8"?>
<svg xmlns="http://www.w3.org/2000/svg" viewBox="870 20.21 43.62 83.35">
  <path d="M 887.64255,99.023607 C 883.8941,97.832328 881.5665,95.642372 878.51556,90.436338 876.31372,86.679176 876.08484,85.406052 876.6094,79.833246 876.93728,76.349961 878.56674,68.775 880.23044,63 881.89414,57.225 883.46177,51.558525 883.71408,50.407834 884.24916,47.967453 881.67198,45 879.01747,45 876.73258,45 872,39.531397 872,36.891156 872,31.999817 876.92241,24 879.93213,24 881.78459,24 888,29.349304 888,30.943629 888,31.524633 889.41481,32 891.14402,32 893.53131,32 895.06431,31.101991 897.51323,28.269009 900.32509,25.016167 900.94742,24.711469 902.36921,25.891454 905.57925,28.555552 903.68334,35.874254 898.15084,42.175424 895.32623,45.392479 894.18013,48.301385 888.93307,65.570998 886.20266,74.557559 889.50229,88 894.43856,88 897.50702,88 901.07025,82.880257 903.16595,75.460255 904.94101,69.175515 907.42015,68.367985 909.51887,73.390923 911.61755,78.413775 911.3629,82.356439 908.58929,87.783244 904.908,94.986004 900.04686,99.155148 894.83561,99.579048 892.45103,99.773018 889.21415,99.52307 887.64255,99.023607 z M 900.02086,94.272839 C 905.88246,90.167211 909.47866,83.729066 908.59454,78.923683 908.34928,77.590657 908.11518,76.1625 908.07431,75.75 907.83744,73.359285 905.98303,75.781497 904.10325,80.93697 901.97256,86.780597 897.41311,92 894.43905,92 893.66493,92 891.56718,90.691581 889.77739,89.092403 886.68195,86.326627 886.50488,85.780888 886.14716,77.903731 885.58009,65.41671 890.44828,47.335368 895.94843,41.5 900.59107,36.574405 903.67651,29 901.04031,29 900.51247,29 898.42551,30.788841 896.40262,32.975201 L 892.72462,36.950403 889.79432,35.225201 C 888.18265,34.276341 885.7467,32.0375 884.38111,30.25 883.01552,28.4625 881.31586,27 880.6041,27 878.4651,27 875.95208,30.520463 875.32274,34.398595 874.61985,38.730036 876.57417,41.464833 881.00574,42.351147 882.60266,42.670532 884.6811,44.109858 885.62449,45.549648 887.26486,48.053171 887.23813,48.480286 885.01218,55.333724 879.83955,71.259652 878.53406,84.366418 881.65613,89.027494 885.70661,95.074631 887.13938,96 892.45181,96 895.66781,96 898.46688,95.361287 900.02086,94.272839 z"/>
</svg>
