<?xml version="1.0" encoding="UTF-8"?>
<svg xmlns="http://www.w3.org/2000/svg" viewBox="924.56 13.8 101.1 93.91">
  <path d="M 1008.6562 50.6875 C 1007.9483 49.725075 1008.1324 48.915196 1009.3438 46.375 C 1010.2504 44.473714 1011.0002 42.38759 1011 41.71875 C 1010.9998 41.04991 1013.3414 38.447247 1016.1875 35.9375 C 1019.4337 33.075012 1021.0607 30.911791 1020.5938 30.15625 C 1020.0776 29.321024 1018.2536 30.3375 1014.625 33.4375 C 1010.4562 36.999032 1009.0389 39.020038 1007.6562 43.40625 C 1005.7757 49.371801 999.98147 57.466135 995.0625 60.96875 C 991.58856 63.442413 987.72951 63.120615 983.8125 60.0625 C 978.55577 55.95843 974.26791 56.616197 971.5 61.96875 C 968.88579 67.024067 969.61704 70.465195 975 78.59375 C 977.75 82.746398 980 86.497147 980 86.9375 C 980 88.535064 974.79452 97 973.8125 97 C 973.18031 97 973.07781 95.163446 973.5 92.09375 C 974.15054 87.363758 974.00315 87.013244 969.40625 81.09375 C 966.78911 77.723622 964.15161 75.117725 963.5625 75.3125 C 962.97338 75.507274 960.54428 78.042894 958.15625 80.96875 C 953.62973 86.51471 953.50412 87.146462 955.53125 95.25 C 955.92612 96.828517 955.83638 98 955.28125 98 C 953.92048 98 948 88.245417 948 86 C 948 84.50565 951.26341 79.622363 954 77 C 956.62134 74.488074 960 68.660908 960 66.65625 C 960 65.09547 958.27201 62.245861 955.375 59.0625 C 951.19541 54.469789 950.34069 54 946.46875 54 C 942.69707 54 941.64594 54.545997 937.59375 58.65625 C 932.43293 63.891011 931.6923 62.94025 935.625 56.09375 C 939.06647 50.102432 941.9583 47 944.0625 47 C 946.47938 47 954.50996 50.704611 956 52.5 C 959.28117 56.453571 964 52.316363 964 45.5 C 964 40.763444 961.72945 37 958.875 37 C 955.77099 37 953 35.124683 953 33.03125 C 953 30.348908 959.28143 24 961.9375 24 C 963.87064 24 964.07169 24.365862 963.5 26.96875 C 962.64331 30.869224 963.70447 34 965.875 34 C 966.82958 34 969.50999 32.591263 971.84375 30.875 C 974.1775 29.158737 976.3634 28.019651 976.6875 28.34375 C 977.47515 29.131402 974.31071 33.871073 970.8125 37.15625 C 968.32566 39.491648 968 40.516806 968 45.78125 C 968 53.494185 969.72018 55.32046 974 52.15625 C 977.74202 49.389658 979.18064 49.439036 982.78125 52.46875 C 987.39963 56.35486 990.82509 57.324872 993.5625 55.53125 C 996.25505 53.767023 1001.5034 46.446944 1003.5312 41.59375 C 1004.8777 38.371221 1004.7975 38.029948 1001.9688 34.125 C 1000.3358 31.870966 999 29.104762 999 28 C 999 26.013091 996.60845 25.201935 995.59375 26.84375 C 995.30486 27.311186 996.60765 30.123686 998.5 33.09375 C 1000.3923 36.063815 1001.9547 38.942659 1001.9688 39.5 C 1001.9998 40.728191 995.11536 51.218313 993.59375 52.25 C 991.40672 53.732858 988.18316 52.927008 984.5 50 C 980.31586 46.674863 977.87257 46.243694 976 48.5 C 974.16445 50.7117 971.3227 50.329772 970.65625 47.78125 C 969.7791 44.427045 970.94083 40.833501 974 37.5 C 977.53202 33.651238 979 30.761797 979 27.625 C 979 23.628407 977.22232 23.562268 972.53125 27.40625 C 966.80765 32.096307 965.58989 32.046488 966.25 27.125 C 966.53568 24.995071 966.41955 22.710112 966 22.03125 C 963.55234 18.070869 950 27.892629 950 33.625 C 950 36.829969 953.92633 40 957.875 40 C 960.55053 40 961.87138 42.65953 961.25 46.75 C 960.61984 50.898305 959.402 51.664871 956.90625 49.40625 C 955.01975 47.698987 949.8252 45.40282 945.46875 44.34375 C 942.34179 43.583573 938.62741 47.210624 933.59375 55.9375 C 929.72139 62.651025 929.15379 64.293995 929.96875 66.4375 C 930.6123 68.13016 931.44574 68.767566 932.46875 68.375 C 933.31135 68.051661 934 67.378445 934 66.875 C 934 66.371555 935.81678 63.996159 938.03125 61.59375 C 943.87269 55.256538 947.10374 55.041234 952.6875 60.625 C 955.29069 63.228186 957 65.860624 957 67.25 C 957 68.581826 954.64449 72.38634 951.4375 76.25 C 944.61118 84.474075 943.76816 88.026029 947.40625 93 C 948.81424 94.925 950.47494 97.5125 951.125 98.75 C 953.5884 103.43952 959.85275 100.49213 958.5625 95.25 C 956.75921 87.923457 956.80286 87.247888 959.53125 83.125 C 961.03185 80.857444 962.76058 79.032743 963.375 79.0625 C 963.98941 79.092257 965.90777 81.232445 967.625 83.84375 C 970.37432 88.024497 970.68625 89.209933 970.25 93.75 C 969.97752 96.585737 970.01826 99.620546 970.34375 100.46875 C 971.3017 102.96514 973.57219 102.23717 976.375 98.5625 C 977.81528 96.674197 979 94.831196 979 94.46875 C 979 94.106304 979.93142 92.625446 981.0625 91.1875 C 983.68226 87.857021 983.16066 85.848706 977.46875 76.96875 C 972.96554 69.943283 972.12392 66.501382 974.03125 62.9375 C 975.43542 60.313782 978.28854 60.490068 983.53125 63.5625 C 988.86861 66.690403 992.26799 66.508506 997.15625 62.78125 C 999.1604 61.253106 1001.1199 60 1001.5312 60 C 1001.5722 60 1002.1273 60.342031 1002.2188 60.375 L 1004.625 56.75 C 1003.8938 55.728304 1004.2461 55.014714 1005.4688 54 C 1005.8418 53.690406 1006.2667 53.569058 1006.7188 53.5625 L 1008.6562 50.6875 z M 1004.3125 25.3125 C 1003.0451 24.612017 1002.8231 26.376588 1004.3125 29.5 C 1006.2425 33.547204 1006.3361 33.584098 1009.8438 31.15625 C 1011.3037 30.145749 1013.2875 29.034737 1014.25 28.6875 C 1016.1428 28.004654 1016.6528 26 1014.9375 26 C 1014.3602 26 1012.4936 26.739568 1010.7812 27.625 C 1007.7793 29.17743 1007.6119 29.13626 1005.9062 26.875 C 1005.281 26.046056 1004.735 25.545994 1004.3125 25.3125 z "/>
</svg>
