<?xml version="1.0" encoding="UTF-8"?>
<svg xmlns="http://www.w3.org/2000/svg" viewBox="1619.44 16.16 78.3 94.2">
  <path d="M 1640.6662,100.67682 C 1635.6879,93.448502 1635.8263,90.624222 1641.5,83.659115 1643.975,80.620792 1646,77.256905 1646,76.183809 1646,73.784559 1638.6953,67 1636.1121,67 1633.8065,67 1631.5309,70.314594 1630.043,75.840403 1627.9593,83.578745 1623,79.873739 1623,70.578674 1623,62.352421 1627.4948,54.410741 1633.2565,52.456791 1634.2225,52.129177 1637.5019,52.792375 1640.544,53.930565 1643.586,55.068754 1646.4778,56 1646.9701,56 1648.3901,56 1649.2091,52.228363 1648.4951,48.977529 1647.9809,46.636333 1647.3034,46 1645.3249,46 1639.0707,46 1634.8732,39.357291 1636.7942,32.5 1637.7839,28.967515 1646.3695,22.012606 1649.75,22.005038 1651.8112,22.000423 1652,22.46147 1652,27.5 1652,34.320643 1653.1184,34.523223 1659.6352,28.882976 L 1664.3921,24.765952 1666.196,26.99376 C 1667.1882,28.219054 1668,30.004565 1668,30.961561 1668,34.438703 1665.6563,39.560651 1662.8603,42.193629 1659.9496,44.934742 1659.4831,47.165418 1660.6258,52.878832 L 1661.2515,56.007663 1664.6494,53.907642 1668.0473,51.807621 1672.0226,55.90381 C 1674.2089,58.156715 1676.6117,60 1677.362,60 1679.1368,60 1682.2339,50.151281 1681.8191,45.826361 1681.5515,43.036483 1681.0565,42.448967 1678.75,42.183578 1675.5494,41.815305 1675.1348,40.409378 1677.9622,39.511989 1683.5491,37.73879 1685.8813,44.350241 1683.2493,54.5 1681.6171,60.794523 1679.6173,64 1677.3227,64 1676.5706,64 1673.9688,62.168931 1671.5409,59.930957 1666.6348,55.408619 1664.9714,55.52269 1661.2459,60.636978 1658.0215,65.063312 1656.927,62.912267 1657.0834,52.456667 L 1657.2239,43.066633 1660.5702,40.514261 C 1662.8174,38.800257 1664.1356,36.793978 1664.5836,34.406248 1665.6726,28.601432 1663.7946,28.130628 1658.4204,32.86117 1655.8343,35.137526 1653.0956,37 1652.3345,37 1650.6665,37 1649,32.969293 1649,28.9349 1649,25.073191 1647.1804,25.186904 1643.1962,29.297607 1640.8373,31.731297 1640,33.512783 1640,36.097607 1640,40.463801 1641.4775,42 1645.6769,42 1650.5868,42 1652.4239,45.388709 1651.7203,53.147673 1651.4169,56.493679 1650.7932,59.59589 1650.3343,60.041476 1649.2699,61.075073 1639.4797,58.879698 1637.8396,57.239636 1635.7653,55.165349 1632.5251,55.842428 1629.5212,58.977873 1627.2782,61.31903 1626.5703,63.136465 1626.2103,67.477873 1625.9041,71.169917 1626.1248,73 1626.8762,73 1627.4943,73 1628,72.399974 1628,71.66661 1628,70.933245 1629.476,68.625745 1631.28,66.538832 1634.2488,63.104416 1634.8766,62.813993 1637.8977,63.477536 1641.8778,64.351697 1650.0018,72.376889 1649.9963,75.428901 1649.9918,77.897024 1647.4073,82.220849 1643.1216,86.930108 1639.1512,91.292859 1639.2093,93.532508 1643.4217,98.5 1647.2427,103.0059 1649.5538,102.59285 1646.1653,98.009653 1644.0273,95.117875 1644.0166,94.962289 1645.7363,91.771747 1648.4589,86.720569 1653.1009,81 1654.4771,81 1655.159,81 1657.4026,83.538867 1659.4629,86.641926 1663.0528,92.048709 1663.1689,92.486327 1662.2483,97.141926 1661.1369,102.76308 1662.361,103.5962 1664.611,98.75 1665.4409,96.9625 1666.7231,94.43511 1667.4602,93.133577 1668.6401,91.05033 1668.5151,90.19893 1666.4155,86.018654 1665.1037,83.406979 1663.3486,80.704269 1662.5152,80.012632 1661.6818,79.320995 1661,78.315719 1661,77.778684 1661,77.24165 1660.2849,75.295275 1659.4109,73.453406 1657.8459,70.155515 1657.8713,70.04289 1661.0782,66.052277 1662.8693,63.823525 1664.856,62 1665.4931,62 1666.1301,62 1667.7423,63.167756 1669.0757,64.595014 1672.4746,68.233263 1676.7879,70.270039 1679.5995,69.564392 1685.1061,68.182311 1690.7463,50.378048 1690.927,33.806704 1690.9894,28.087281 1690.6936,26.898796 1688.8941,25.63841 1687.0598,24.353596 1686.27,24.346285 1682.7684,25.581706 1680.5575,26.361768 1678.1301,27 1677.3743,27 1674.8552,27 1675.9582,25.258118 1679.25,24.037906 1681.0375,23.375301 1683.2929,22.413498 1684.2621,21.900566 1687.0149,20.443621 1690.4721,21.83627 1692.461,25.203309 1693.9894,27.7907 1694.1831,29.646435 1693.6804,36.889565 1692.4978,53.928078 1687.5112,68.67454 1681.8423,71.897339 1678.5567,73.765179 1672.9273,72.65119 1669.0147,69.358888 1667.3404,67.950046 1665.3021,67.053829 1664.4852,67.367294 1661.5105,68.508792 1662.8201,74.031974 1668,82.190748 1670.75,86.522251 1673,90.287159 1673,90.557211 1673,91.15795 1666.7965,100.60199 1664.2484,103.88057 1662.8998,105.6157 1661.827,106.07985 1660.2914,105.5925 1657.4335,104.68541 1656.7261,102.35993 1658.0698,98.288568 1659.3485,94.413967 1658.1672,90.366233 1654.8927,87.402914 1653.0595,85.743891 1652.8981,85.752324 1651.4913,87.58062 1649.2316,90.51726 1648.6281,93.88845 1649.8731,96.620795 1652.2357,101.80609 1650.7123,106 1646.4662,106 1645.0142,106 1643.161,104.29913 1640.6662,100.67682 z M 1676,33.535184 C 1676,33.279535 1676.8674,32.606149 1677.9276,32.03877 1680.045,30.905547 1683.3163,31.679174 1682.4352,33.104785 1681.8777,34.006917 1676,34.400026 1676,33.535184 z"/>
</svg>
