<?xml version="1.0" encoding="UTF-8"?>
<svg xmlns="http://www.w3.org/2000/svg" viewBox="333.78 27.78 65.71 81.79">
  <path d="M 340,101.89436 C 340,101.28625 341.125,99.451725 342.5,97.817631 343.875,96.183536 345,93.587326 345,92.048275 345,90.509224 345.28125,87.84375 345.625,86.125 346.15751,83.462461 345.95548,83 344.25986,83 341.80025,83 336.77047,79.180401 337.55612,77.909201 337.88145,77.382796 339.06816,77.634763 340.28815,78.489276 344.19853,81.228213 345.13201,80.470639 344.80226,74.82581 344.53518,70.253773 344.15087,69.458818 341.5,67.994897 339.85,67.083699 338.3545,65.587084 338.17668,64.669087 337.76943,62.566766 339.65369,62.510832 341.70714,64.564286 343.65445,66.511589 344.37955,65.712363 345.9413,59.897263 347.12038,55.507072 347.05792,55.165538 344.58873,52.50124 343.16493,50.964933 342.01829,48.761165 342.04064,47.603977 342.07686,45.728704 342.38371,45.853277 344.86347,48.75 346.39367,50.5375 347.944,52 348.30864,52 349.76142,52 354.35378,43.836684 353.2758,43.170451 352.67507,42.799182 351.88876,40.696448 351.52844,38.497708 L 350.87331,34.5 352.93666,36.860784 C 354.07149,38.159215 355,39.87704 355,40.678172 355,42.204683 358.5159,41.694673 360.45,39.887605 360.9725,39.399422 362.18284,39 363.13963,39 364.41814,39 364.97629,38.005981 365.24529,35.25 L 365.61132,31.5 366.91408,34.780385 C 368.73265,39.359609 372.63773,41.230892 377.35439,39.783306 381.40806,38.539199 382.91199,39.19619 381.0756,41.40891 379.36112,43.474733 382.28677,47.684439 386.00443,48.500974 387.57599,48.846145 389.45391,49.842 390.17759,50.713984 391.34291,52.118103 391.11623,52.244057 388.19543,51.815376 L 384.89749,51.33134 385.54476,56.91567 C 385.98677,60.729049 386.79584,62.935092 388.09602,63.871972 390.71812,65.76141 390.48676,67.338986 387.69049,66.637166 385.7479,66.149608 385.18154,66.609066 384.12563,69.529108 382.59254,73.768797 378.33146,79 376.41111,79 374.94575,79 374.69652,77.460248 374.98609,70.196325 375.24912,63.598325 374.1191,58.682208 371.61864,55.546332 369.8122,53.280832 368.82432,52.827277 366.80192,53.334867 363.58015,54.143481 360.293,61.389876 359.56144,69.29626 359.10907,74.185239 359.44207,75.691269 362.14178,80.966092 365.87658,88.263311 368.27515,89.291721 374.19277,86.133071 379.44244,83.330952 379.93268,83.394554 384.72897,87.5 387.54007,89.9062 389.80996,91 391.9923,91 396.50483,91 395.32093,93.417941 390.61456,93.813832 387.50728,94.075209 386.22154,93.529432 382.92195,90.548447 379.07956,87.077087 378.87229,87.014681 376.0435,88.477504 374.43933,89.307054 372.84673,90.438977 372.5044,90.992888 371.27076,92.988957 366.30126,92.028189 363.48944,89.25 354.58709,80.454102 354.49183,61.919773 363.29928,52.25 369.2663,45.69875 377,54.255529 377,67.408864 377,70.96907 377.40921,74.134869 377.90935,74.443973 379.50354,75.429242 383.17664,66.318409 383.02212,61.762132 382.72534,53.011103 382.27391,51.522243 378.65646,47.363751 375.43002,43.654745 374.31897,43.058824 369.51008,42.457992 366.49948,42.081843 362.83457,42.075689 361.36584,42.444317 357.76259,43.348675 353.67532,47.92207 350.32038,54.8035 347.63,60.321806 347.54245,61.016141 347.52156,77 347.50034,93.241641 347.45628,93.574376 344.70785,98.25 342.06782,102.7412 340,104.34191 340,101.89436 z M 349.04539,104.25 C 349.07036,103.8375 351.2718,101.10602 353.93748,98.180035 L 358.78418,92.860071 362.81367,96.930035 C 367.48256,101.64582 369.70261,101.96256 373.81763,98.5 377.41013,95.477114 379.37144,95.385312 384.5,98 386.65759,99.1 389.73284,100 391.33389,100 393.88554,100 394.08142,100.19696 392.9207,101.59555 391.3324,103.50933 385.742,102.90675 381.26906,100.33964 378.46532,98.730512 378.24243,98.763162 374.45313,101.33806 369.32348,104.82375 365.99666,104.73344 362,101 360.23367,99.35 358.47435,98 358.09041,98 357.70647,98 355.86578,99.575 354,101.5 350.74969,104.85346 348.94836,105.85328 349.04539,104.25 z"/>
</svg>
