<?xml version="1.0" encoding="UTF-8"?>
<svg xmlns="http://www.w3.org/2000/svg" viewBox="586.8 21.23 35.76 87.76">
  <path d="M 620.5625 89.59375 C 618.71575 88.764142 616.66945 87.257576 614.65625 85.15625 C 611.86229 82.239983 611.86323 82.254951 612.9375 74.53125 C 613.52839 70.282924 614.21982 66.465286 614.46875 66.0625 C 614.71769 65.659714 614.53474 61.984749 614.0625 57.90625 C 613.32768 51.560049 613.44501 50.139519 614.9375 48 C 617.76849 43.94173 619.24032 38.206622 618.65625 33.4375 C 618.35637 30.988879 617.83602 28.543692 617.5 28 C 616.29912 26.056938 614.02544 27.053453 612.40625 30.25 C 610.09003 34.822598 607.9783 37 605.875 37 C 603.8453 37 599 30.504451 599 27.78125 C 599 25.219047 594.85655 25.548172 592.875 28.28125 C 588.80218 33.898751 589.93141 42.689328 595.5 48.59375 L 598.625 51.875 L 596.625 60.0625 C 594.85 67.319397 594.75398 69.139399 595.78125 76.1875 C 596.88803 83.781062 596.82811 84.28918 594.625 87.8125 C 590.64387 94.17932 589.8458 97.709492 591.46875 101.59375 C 592.25344 103.47179 593.61204 105 594.46875 105 C 595.92354 105 597.07083 103.92189 601.6875 98.25 C 603.70164 95.775505 604.40196 95.910732 615.15625 100.75 C 616.7033 101.44615 618.22371 101.98705 619.6875 102.4375 L 619.9375 98.53125 C 618.45533 98.112186 616.99123 97.663792 615.9375 97.1875 C 609.51133 94.282823 604.5124 92.860184 602.90625 93.5 C 602.13481 93.807309 600.20754 95.894542 598.625 98.125 C 596.08781 101.70096 595.5831 101.98935 594.28125 100.6875 C 592.25947 98.665717 593.35778 94.193026 597.1875 88.90625 C 600.19563 84.753656 600.21631 84.587509 599.1875 78.09375 C 597.95004 70.283019 598.26196 65.918806 600.65625 56.6875 C 602.40433 49.947714 602.38449 49.79249 600.4375 48.15625 C 594.68937 43.325569 592.10396 36.460741 594.09375 31.3125 L 595.1875 28.5 L 597.0625 32 C 598.09911 33.925 599.21502 36.281864 599.5625 37.21875 C 599.90998 38.155637 601.2762 39.605458 602.59375 40.46875 C 604.7794 41.900843 605.2267 41.916252 607.53125 40.40625 C 608.92048 39.495993 610.97053 37.452422 612.09375 35.875 C 615.19167 31.524379 616.37284 32.213402 615.6875 38 C 615.32507 41.06017 614.13563 44.266802 612.625 46.25 C 610.33749 49.253102 610.18251 50.094394 610.6875 57.5 C 611.16258 64.467154 610.13243 75.596355 608.34375 82.75 C 607.94467 84.346065 608.33415 85.184496 609.65625 85.6875 C 610.67709 86.075886 612.3052 87.391785 613.28125 88.625 C 614.74404 90.473209 617.70081 92.347643 620.3125 93.3125 L 620.5625 89.59375 z "/>
</svg>
