<?xml version="1.0" encoding="UTF-8"?>
<svg xmlns="http://www.w3.org/2000/svg" viewBox="2335.28 17.94 74.16 89.39">
  <path d="M 2365.1801,98.160801 C 2362.8604,96.089769 2362,94.455644 2362,92.120963 2362,88.63384 2364.9225,82.139141 2367.4269,80.060658 2368.2921,79.342607 2369,77.86961 2369,76.787331 2369,74.16283 2363.8919,67.045134 2362,67.033397 2361.175,67.028278 2358.5416,68.14367 2356.1479,69.512045 2353.7543,70.88042 2350.9744,72 2349.9705,72 2345.7056,72 2341.9908,63.468932 2339.9485,48.984644 2338.6496,39.772819 2338.9701,26.630168 2340.5317,25.067983 2341.1561,24.443265 2341.5086,28.964347 2341.5243,37.799635 2341.5455,49.703193 2341.8608,52.352477 2343.9283,58 2346.693,65.551911 2348.7359,69 2350.4455,69 2351.1141,69 2353.8748,67.876883 2356.5805,66.504185 2359.2862,65.131487 2362.2453,64.006487 2363.1562,64.004185 2365.1308,63.999195 2372,73.210011 2372,75.862768 2372,76.884744 2370.8801,79.37112 2369.5114,81.388049 2363.1489,90.763797 2362.9766,92.819505 2368.2067,96.95507 L 2371.3116,99.41014 2370.7844,96.95507 C 2370.4944,95.604781 2369.9506,93.776064 2369.5758,92.891253 2368.8718,91.229183 2376.791,78.5 2378.529,78.5 2379.0169,78.5 2381.1411,80.75 2383.2495,83.5 2386.0352,87.133475 2386.9542,89.183263 2386.6121,91 2385.5423,96.680932 2385.5532,97.303512 2386.7297,97.718928 2387.406,97.95773 2388.7217,96.554335 2389.6536,94.600271 2391.1126,91.540642 2391.1783,90.384731 2390.127,86.273714 2386.7988,73.25973 2386.8013,73.284844 2388.4608,70.075718 2389.668,67.74132 2390.733,67 2392.8797,67 2395.6882,67 2401,70.893574 2401,72.952251 2401,73.528513 2401.45,74 2402,74 2402.55,74 2403,71.75 2403,69 2403,60.587468 2398.0894,57.979839 2389.0547,61.594807 2382.7973,64.098508 2382.5112,63.674516 2382.4115,51.749407 2382.3267,41.600767 2382.4204,41.11296 2384.6885,39.899115 2387.193,38.558763 2388.3832,35.595906 2387.8329,32.071863 2387.5146,30.034068 2387.3298,30.081074 2383.6317,33.140437 2378.9763,36.991775 2377.1584,36.352212 2375.1551,30.158248 2374.4154,27.871212 2373.4068,26 2372.9138,26 2372.4208,26 2370.7197,27.357881 2369.1337,29.017514 2364.0707,34.315493 2366.0237,42.236076 2372.2735,41.750624 L 2375.5,41.5 2375.7922,49.255983 C 2376.2472,61.335841 2372.5468,64.774172 2364.7749,59.493006 L 2361.0855,56.986013 2357.6497,60.002672 C 2355.7574,61.66419 2353.5659,62.770632 2352.7712,62.465705 2350.5136,61.599361 2348.1136,55.615184 2346.9083,47.846953 2345.5948,39.381462 2345.1732,21.998522 2346.2814,21.999389 2347.5471,22.000379 2347.8291,23.88216 2348.3792,36 2349.0073,49.833124 2349.694,53.636353 2352.216,57.249322 L 2354.1352,59.998643 2357.3176,57.646853 C 2362.3181,53.951447 2362.5121,53.9267 2366.045,56.533223 2372.2036,61.076855 2374,59.695939 2374,50.418213 2374,45.738716 2373.7378,45 2372.0767,45 2371.0189,45 2368.7689,43.834998 2367.0767,42.411106 2364.5387,40.275459 2364,39.085476 2364,35.614054 2364,32.04396 2364.5882,30.831495 2367.8796,27.617613 2372.8287,22.784938 2375.9795,22.913253 2377.2692,28 2378.6302,33.368003 2379.4971,33.586338 2384.0332,29.703586 2386.3238,27.742911 2388.8284,26.380655 2389.599,26.67635 2392.0779,27.627594 2391.3398,35.223562 2388.3423,39.610453 2386.2681,42.645971 2385.5242,45.256562 2384.9542,51.5 2384.5525,55.9 2384.3956,59.684599 2384.6055,59.910219 2384.8154,60.13584 2386.7297,59.79834 2388.8596,59.160219 2394.1708,57.568933 2399.1353,57.706061 2401.7185,59.515405 2405.8903,62.437397 2406.0663,77 2401.9299,77 2400.7783,77 2399.5808,76.027536 2399.0664,74.674764 2398.5802,73.395884 2396.9862,71.565778 2395.5243,70.607861 2389.8079,66.862379 2388.6109,72.62919 2392.4934,85.208967 L 2394.2553,90.917935 2391.7461,95.708967 C 2389.6382,99.733642 2388.778,100.5 2386.3684,100.5 2383.9956,100.5 2383.4462,100.03343 2383.1883,97.799453 2383.0169,96.314153 2383.3661,94.184546 2383.9641,93.066994 2384.8487,91.414268 2384.5554,90.285345 2382.3929,87.017541 2380.9306,84.807893 2379.1254,83 2378.3813,83 2377.6372,83 2375.8174,84.829902 2374.3373,87.066449 2371.906,90.74039 2371.7616,91.45187 2372.8412,94.437498 2375.2652,101.14097 2370.8963,103.26425 2365.1801,98.160801 z"/>
</svg>
