<?xml version="1.0" encoding="UTF-8"?>
<svg xmlns="http://www.w3.org/2000/svg" viewBox="797.97 20.67 36.21 86.6">
  <path d="M 803.78125 81.34375 L 801.84375 82.75 L 801.46875 85.25 C 802.38527 85.407059 803.76331 86.266562 806.15625 88 C 808.43401 89.65 810.86892 91 811.5625 91 C 813.34231 91 817.2009 86.155803 819.15625 81.46875 C 824.60188 68.415367 824.91436 62.560038 821.0625 46.78125 C 818.59266 36.663753 819.84758 30.313203 824.71875 28.09375 C 828.63258 26.310488 829.16935 28.07346 828.28125 39.5 C 827.85378 45 827.64569 54.9 827.8125 61.5 C 828.06313 71.415642 827.78742 74.488807 826.15625 79.15625 C 823.70628 86.16661 819.4571 93.870895 816.75 96.21875 C 814.0515 98.559149 812.39177 98.423645 807 95.375 C 803.72543 93.523475 801.70424 92.14772 800.59375 90.875 L 799.96875 95 L 800.4375 96.65625 C 801.42788 95.639233 802.82811 96.20717 806.5 98.46875 C 814.40011 103.33456 817.93905 101.60906 824.4375 89.6875 C 830.65299 78.285022 831.89827 72.169324 830.71875 59 C 830.07884 51.855436 830.13089 46.10326 830.875 41 C 832.17934 32.05458 831.28162 25.6931 828.65625 25.1875 C 825.64648 24.607872 821.6361 26.827233 819.125 30.5 C 815.98095 35.098524 815.37144 41.313284 817.5 47 C 820.67852 55.491815 821.34963 63.730136 819.46875 71.46875 C 818.53721 75.301446 817.06853 79.575277 816.21875 80.96875 C 815.36896 82.362223 814.06618 84.534447 813.3125 85.78125 C 812.1387 87.723042 811.61682 87.884358 809.71875 86.90625 C 806.59929 85.29873 804.73102 83.472295 803.78125 81.34375 z "/>
</svg>
