<?xml version="1.0" encoding="UTF-8"?>
<svg xmlns="http://www.w3.org/2000/svg" viewBox="1873.34 11.67 83.34 91.82">
  <path d="M 1905.8889,97.75 C 1902.3864,94.81819 1897,84.651867 1897,80.97288 1897,80.675701 1898.575,77.987906 1900.5,75 1902.425,72.012094 1904,68.901893 1904,68.088441 1904,67.274989 1902.7908,65.347314 1901.3129,63.804719 1895.8943,58.148929 1888.718,61.058378 1884.4865,70.626508 1881.9874,76.277265 1879.6427,77.527862 1878.6303,73.75 1877.1277,68.143059 1878.5937,59.463602 1881.6416,55.921259 1882.3887,55.052952 1883,53.630454 1883,52.760153 1883,50.530314 1888.6926,46 1891.4946,46 1892.7822,46 1896.1361,47.155414 1898.9476,48.567587 1906.3779,52.299605 1907.5092,51.755702 1907.4581,44.475763 1907.4308,40.584489 1906.6698,36.852884 1905.2767,33.778086 1903.1973,29.188554 1903.0541,29.085172 1900.1701,30.090542 1898.5382,30.659445 1895.2531,30.984306 1892.87,30.812456 1889.2332,30.550199 1888.3906,30.080751 1887.6249,27.890432 1886.5287,24.754387 1887.3335,21.044643 1889.7604,18.047554 L 1891.5462,15.84221 1896.749,19.421105 C 1899.6105,21.389497 1902.2398,23 1902.5919,23 1902.944,23 1905.3776,21.425 1908,19.5 1910.6224,17.575 1913.3002,16 1913.9507,16 1915.7052,16 1926,25.16416 1926,26.725909 1926,27.46536 1925.2276,29.249234 1924.2835,30.690072 1922.3039,33.71128 1918.7645,46.809934 1919.5738,48.119479 1920.4339,49.511091 1923.6342,49.145732 1925,47.5 1926.9201,45.186403 1931.3494,45.678543 1934,48.5 1935.2917,49.875 1936.7145,51 1937.1618,51 1940.2344,51 1946.0413,33.530662 1946.0128,24.372445 1946,20.244352 1948.1618,16.834809 1949.4601,18.935504 1951.4668,22.182272 1952.8915,30.190422 1952.4983,36.012499 1951.3125,53.571512 1949.7834,59.215654 1944.7128,64.75 1941.8944,67.826211 1938.6948,67.574111 1933.2809,63.849266 1929.8135,61.463655 1928.3128,60.942066 1927.1007,61.701393 1924.9061,63.076314 1924.4764,66.861852 1926.4299,67.61146 1927.2934,67.942844 1928,68.678563 1928,69.24639 1928,69.814217 1929.35,72.472832 1931,75.154424 1932.65,77.836016 1934,80.745634 1934,81.620242 1934,83.959539 1923.8845,99.128179 1922.6082,98.702748 1922.0088,98.502931 1920.6622,96.873553 1919.6158,95.081909 1917.8207,92.008197 1917.8061,91.629909 1919.3567,88.37826 1921.5722,83.732282 1921.4277,81.750398 1918.6855,79.174314 1915.7412,76.408241 1913.864,76.427539 1911.3231,79.25 1908.1161,82.812327 1907.9182,83.614723 1909.4991,86.645922 1911.4407,90.368606 1911.4074,95.449704 1909.4286,97.428571 1907.5428,99.314373 1907.7368,99.296755 1905.8889,97.75 z M 1927.4073,88.44174 C 1929.5779,85.172593 1930.8716,82.186755 1930.5485,81.19174 1930.2464,80.261283 1927.9744,76.363611 1925.4996,72.530247 1923.0248,68.696883 1921,65.311913 1921,65.008091 1921,64.034943 1927.1147,57 1927.9606,57 1928.4088,57 1931.0652,58.575 1933.8637,60.5 1939.627,64.464458 1941.0496,64.730416 1943.2244,62.25 1947.1041,57.825177 1948.2018,53.712282 1948.7345,41.604406 1949.0274,34.946983 1949.0093,29.735158 1948.6943,30.022573 1948.3793,30.309988 1947.4331,33.846624 1946.5918,37.881764 1945.0845,45.110827 1941.6484,52.387072 1938.5131,54.989153 1937.1319,56.135392 1936.371,55.791662 1932.9979,52.497944 L 1929.0849,48.677027 1924.635,51.037726 C 1920.8808,53.029306 1919.936,53.19177 1918.5925,52.076767 1915.9023,49.844127 1916.9728,40.621228 1921.1219,30.284301 1922.3747,27.163009 1922.2964,26.966063 1918.4563,23.575928 1916.2803,21.654957 1913.9446,20.064521 1913.2658,20.041627 1912.587,20.018732 1910.5784,21.298428 1908.8022,22.885396 L 1905.5729,25.770792 1908.2905,34.135396 C 1911.4038,43.718286 1911.6963,48.560831 1909.363,51.892106 1907.9494,53.91033 1907.1165,54.160523 1903.2589,53.725718 1900.802,53.448789 1897.469,52.244219 1895.8523,51.048895 1891.0231,47.478555 1888.0298,48.547752 1884.7908,55 1881.8173,60.923411 1880.0635,69 1881.7509,69 1882.3044,69 1883.3279,67.622605 1884.0252,65.939122 1886.0061,61.15691 1890.8757,58 1896.2716,58 1900.3462,58 1901.1951,58.413351 1903.9272,61.727844 1907.8105,66.438934 1907.7921,68.98839 1903.8333,74.742242 1899.9056,80.450936 1899.8504,83.563659 1903.5833,88.837009 1907.6602,94.596292 1909.9029,93.952705 1906.5,88 1904.3102,84.169299 1904.6496,82.959261 1909.6923,76.619051 L 1914.3698,70.738103 1919.2658,76.091237 C 1923.5238,80.746874 1924.0799,81.838885 1923.5334,84.472185 1921.1623,95.898242 1921.9325,96.687473 1927.4073,88.44174 z M 1898,26.998463 C 1899.2535,26.187089 1899.007,25.620405 1896.5,23.549739 1892.8181,20.508711 1891.3301,20.384593 1890.4848,23.047988 1889.2451,26.953814 1894.1145,29.51346 1898,26.998463 z"/>
</svg>
