<?xml version="1.0" encoding="UTF-8"?>
<svg xmlns="http://www.w3.org/2000/svg" viewBox="2637.32 17.77 74.04 87.76">
  <path d="M 2668.1219,99.721855 C 2667.5048,99.104835 2667,98.049526 2667,97.376725 2667,95.338381 2662.2329,90.339092 2659.0202,89.008387 2655.2175,87.433242 2655.2142,85.696988 2659,78.5 2663.1171,70.67326 2663.0862,65.306658 2658.8964,60.534796 2654.9217,56.007903 2651.4263,55.865203 2646.9496,60.047071 2645.1556,61.722959 2643.1075,62.871475 2642.3982,62.599327 2640.6898,61.943747 2641.58,55.864127 2644.2104,50.222721 2646.823,44.619582 2650.6317,42.638873 2657.671,43.22262 L 2663.0148,43.665771 2666.6184,37.221849 C 2668.6004,33.677692 2671.9721,29.027894 2674.111,26.888964 2679.0003,21.999682 2682.5217,21.763177 2687.3472,26 2691.2713,29.445433 2691.7504,29.532483 2695.6357,27.506161 2702.0485,24.161648 2708,27.14827 2708,33.710905 2708,36.21532 2706.996,38.133889 2703.9643,41.422929 L 2699.9286,45.801172 2703.5743,52.433773 C 2706.8257,58.349001 2707.2328,59.901015 2707.3379,66.783187 2707.4712,75.502157 2705.4303,81.05418 2699.9982,86.75 2694.5903,92.420439 2692.3225,90.259109 2695.5572,82.517444 2698.1972,76.198874 2697.7786,72.000925 2693.6994,63.887871 2691.6564,59.824542 2689.5336,54.051357 2688.982,51.058571 2686.8304,39.384185 2681.4508,37.860458 2675.514,47.243907 2673.8987,49.797022 2673.89,50.267776 2675.389,54.014143 2677.5596,59.438936 2677.4181,66.860482 2675.0137,73.701447 2673.2298,78.776923 2673.1638,79.81907 2674.3665,83.926465 2675.7746,88.735532 2675.7495,89.035432 2673.3862,95.661827 2671.8011,100.10648 2669.941,101.54101 2668.1219,99.721855 z M 2671.393,92.418213 C 2672.4594,89.639218 2672.048,85.88982 2670.3638,83.038704 2668.8028,80.396187 2668.8488,80.012594 2671.3638,74.696338 2674.5232,68.017983 2674.9197,59.764538 2672.3004,55.200752 2670.8069,52.598363 2670.7623,51.750372 2671.9325,48.204613 2673.6364,43.04178 2679.4265,37 2682.6704,37 2686.5744,37 2690.4896,42.15385 2691.7552,48.958852 2692.357,52.195319 2694.4584,58.188306 2696.4247,62.2766 2699.0987,67.835917 2700,71.006949 2700,74.854932 2700,77.684719 2700.3817,80 2700.8481,80 2701.3146,80 2702.5029,78.211235 2703.4887,76.024967 2705.6689,71.190304 2705.0152,62.904805 2701.981,56.912273 2700.8914,54.760523 2699.0642,51.14773 2697.9205,48.883844 L 2695.8411,44.767688 2701.0043,39.996068 2706.1674,35.224449 2704.4976,31.995357 C 2702.9919,29.083742 2702.4906,28.82098 2699.3983,29.322785 2697.5121,29.628872 2694.7384,30.847682 2693.2344,32.031252 L 2690.5,34.183198 2687.5,30.730608 C 2683.408,26.021318 2680.7435,25.334363 2676.9757,28.017268 2673.7882,30.287034 2667,40.079867 2667,42.408633 2667,43.162023 2666.1649,44.809755 2665.1442,46.070261 2663.4427,48.17154 2663.0283,48.254382 2660.1609,47.066628 2655.7048,45.220889 2650.6466,46.442892 2647.5603,50.11073 2643.7956,54.584791 2644.1067,56.106536 2648.3157,53.806321 2653.3711,51.043587 2660.4598,54.234406 2663.5,60.641253 2665.6558,65.184289 2665.0944,72.737559 2662.0972,79.513069 L 2660.0345,84.176274 2664.7672,88.978842 C 2670.1091,94.399468 2670.5457,94.626142 2671.393,92.418213 z"/>
</svg>
