<?xml version="1.0" encoding="UTF-8"?>
<svg xmlns="http://www.w3.org/2000/svg" viewBox="2345.27 13.58 62.57 89.83">
  <path d="M 2371,96.5 C 2366.6709,93.550369 2365.359,93.48376 2361.2258,96.003738 2357.3467,98.368854 2354,98.5987 2354,96.5 2354,94.801831 2352.4341,94.488645 2351.5,96 2351.1601,96.55 2350.4585,97 2349.941,97 2348.1149,97 2349.0341,94.842176 2351.8805,92.447062 2355.304,89.566428 2358.2476,83.808841 2357.4112,81.6293 2357.0834,80.775059 2356.0103,79.820644 2355.0264,79.508378 2352.2671,78.632617 2349,75.447211 2349,73.632705 2349,71.510644 2349.643,71.574008 2352.7271,74 2356.9758,77.341981 2357.3121,76.703508 2356.5462,66.75 2356.004,59.703105 2355.3778,57.008302 2353.9172,55.435549 2350.9953,52.289234 2351.7476,49.147565 2354.7129,52.112868 2356.418,53.817961 2357.4193,52.660385 2360.4908,45.433362 2362.9687,39.603066 2363.1763,38.376404 2362.1603,35.566659 2361.5221,33.801899 2361,31.564953 2361,30.595669 2361,28.279435 2363.3997,29.1115 2363.8471,31.582866 2364.5016,35.198376 2365.8553,35.334262 2369.4835,32.148665 2371.4558,30.416899 2373.7289,29 2374.5348,29 2375.487,29 2376,27.978286 2376,26.081787 2376,19.688472 2378.6824,17.666719 2379.1896,23.677691 2379.4958,27.306138 2379.5837,27.375168 2385.7497,28.832974 2391.2916,30.143224 2392.1976,30.140326 2393.7497,28.807387 2398.4187,24.797609 2399.6711,26.093795 2395.4884,30.606969 2393.2262,33.047954 2393.1269,33.482791 2394.4884,34.987232 2395.3198,35.905869 2396,37.129448 2396,37.706296 2396,38.283144 2396.6882,39.326259 2397.5293,40.024329 2398.798,41.077236 2399.4797,40.897966 2401.5293,38.97246 2403.5898,37.036753 2404,36.930464 2404,38.332299 2404,39.256809 2402.875,40.991402 2401.5,42.186949 2397.2946,45.843484 2398.3924,54.915177 2402.8976,53.737018 2404.0539,53.43464 2405,53.525366 2405,53.938632 2405,55.258185 2401.4026,58 2399.6713,58 2398.6249,58 2398,58.808433 2398,60.162142 2398,62.626433 2393.3773,71 2392.0169,71 2390.3584,71 2389.5409,68.556486 2387.8417,58.520749 2385.9407,47.293802 2384.1085,44.659407 2378.5769,45.199551 2376.0003,45.451149 2375.1015,46.304372 2373.0489,50.447162 2371.0148,54.552524 2370.5714,57.01982 2370.443,64.947162 2370.3455,70.969676 2370.7564,75.423894 2371.5549,77 2373.2141,80.275038 2377.9166,84.599074 2380.75,85.455043 2385.7994,86.980495 2380.823,99.331534 2375.3157,98.942354 2374.8671,98.910649 2372.925,97.81159 2371,96.5 z M 2378.3945,92.847231 C 2379.8243,90.805891 2379.6255,90.430627 2374.554,85.597231 2371.6125,82.793754 2368.8677,79.375 2368.4545,78 2368.0414,76.625 2367.7224,71.225 2367.7457,66 2367.7933,55.305269 2370.212,47.028339 2374.4543,43.042929 2376.393,41.22161 2377.576,40.885468 2380.2689,41.390671 2385.6964,42.408869 2388.5718,46.372574 2390.4007,55.356964 2391.2803,59.678295 2392,63.390795 2392,63.606964 2392,63.823134 2392.4611,64 2393.0248,64 2396.0942,64 2397.195,51.345672 2394.8312,43.234635 2393.2043,37.652031 2385.6179,31 2380.8781,31 2373.446,31 2367.011,36.610125 2362.5254,47 2359.8473,53.203381 2359.7142,54.252955 2359.6096,70 2359.509,85.148529 2359.3179,86.80817 2357.2764,90.262428 L 2355.0528,94.024856 2357.7764,93.359937 C 2359.2744,92.994232 2361.5732,91.863639 2362.8849,90.847509 2365.8919,88.517995 2367.538,88.512658 2369.1933,90.827054 2370.6539,92.869232 2373.8769,94.923304 2375.6933,94.969591 2376.3496,94.986316 2377.5651,94.031254 2378.3945,92.847231 z"/>
</svg>
