<?xml version="1.0" encoding="UTF-8"?>
<svg xmlns="http://www.w3.org/2000/svg" viewBox="1491.31 11.2 55.56 96.5">
  <path d="M 1537,97.174314 C 1537,96.720187 1535.875,95.291745 1534.5,94 1533.125,92.708255 1532,91.232273 1532,90.720042 1532,90.20781 1533.125,88.451725 1534.5,86.817631 1537.401,83.370002 1537.6056,82.169603 1535.4341,81.336333 1534.4546,80.960479 1532.5786,81.985304 1530.4249,84.072767 1526.5148,87.862591 1520.1999,89.20825 1513.6821,87.640542 1505.9524,85.781358 1505.3814,79.959043 1511.8463,68.922435 1516.5077,60.964818 1518.0105,59.984251 1521.9649,62.320178 1525.8493,64.61476 1534.281,64.353388 1537.4771,61.839319 1540.1953,59.701188 1541.4512,55 1539.3041,55 1538.524,55 1535.894,55.501507 1533.4597,56.114461 1526.3313,57.909424 1522.4712,56.66011 1519.5045,51.597898 1518.1127,49.222969 1516.2417,45.130838 1515.3468,42.504273 1513.7389,37.785571 1513.7518,37.664996 1516.4281,32.37945 1519.255,26.796589 1519.1543,25 1516.0145,25 1514.7464,25 1513.2933,26.745058 1511.4868,30.437504 1507.96,37.645979 1507.3307,42.870106 1509.3741,47.977018 1512.1205,54.840994 1511.5552,57.355733 1505.392,65.689615 1502.3076,69.860355 1499.1036,74.898903 1498.2719,76.886389 1496.8971,80.172086 1496.9207,80.97351 1498.5315,85.718081 1499.5059,88.588025 1501.3319,91.902644 1502.5893,93.0839 1505.826,96.124615 1512.8479,96.716454 1519.373,94.498508 L 1524.603,92.720789 1529.0515,95.288844 C 1533.5355,97.877385 1537,98.699202 1537,97.174314 z M 1529.3635,99.015879 C 1524.6321,96.695788 1523.1667,96.392132 1520.5916,97.198202 1512.2604,99.806058 1510.5032,99.948162 1505.7627,98.397409 1500.0888,96.541297 1497.9003,93.991766 1495.5402,86.48845 1493.8348,81.066619 1493.8364,80.683453 1495.5801,76.673182 1496.5782,74.377932 1500.0026,68.834596 1503.1899,64.354657 L 1508.9851,56.209315 1507.4926,51.978931 C 1506.6717,49.65222 1506,45.572005 1506,42.911786 1506,30.152005 1517.0306,15.583061 1521.0314,23.058652 1522.2737,25.379969 1521.4633,30.46671 1519.3722,33.472506 1517.3741,36.34471 1517.6821,40.224194 1520.3954,46.359416 1523.3782,53.104058 1527.3547,55.00324 1533.296,52.52081 1538.4988,50.346917 1542.7173,50.533973 1543.4914,52.972894 1544.3394,55.644732 1540.7468,63.481998 1537.8435,65.293811 1534.4071,67.438337 1529.9055,68.009483 1525.4387,66.867679 1523.2724,66.313923 1520.5443,65.625561 1519.3763,65.337987 1517.6345,64.909169 1516.6903,65.797928 1514.1263,70.279289 1508.2755,80.505391 1510.5689,85.738106 1520.3951,84.582463 1523.8957,84.170759 1526.2414,83.093256 1529.2578,80.511288 1534.193,76.286989 1537.6452,75.936491 1539.0081,79.521342 1539.7055,81.355605 1539.5274,83.140754 1538.3544,86.072214 1536.854,89.822249 1536.864,90.37193 1538.4987,93.997095 1541.7913,101.2989 1538.126,103.31264 1529.3635,99.015879 z"/>
</svg>
