<?xml version="1.0" encoding="UTF-8"?>
<svg xmlns="http://www.w3.org/2000/svg" viewBox="594.94 15.17 94.34 88.48">
  <path d="M 614.65517,93.515918 C 610.4514,90.499673 605.43427,87.372635 603.50598,86.566944 599.44542,84.870334 599.23318,83.885636 602.06954,79.902336 605.41074,75.210055 607.74223,74.433304 611.07945,76.900622 615.04912,79.835525 619.06342,79.600675 622.20056,76.25 628.17755,69.866181 627.3039,58.86613 620.46394,54.384418 616.78562,51.974287 613.65489,52.371267 608.06825,55.956206 605.3202,57.71962 602.60565,58.874312 602.0359,58.522189 599.85383,57.173592 601.01353,51.453219 604.52657,46.236652 607.71675,41.4995 608.54103,40.804746 610.6382,41.08541 610.9892,41.132386 611.64794,40.569886 612.10206,39.83541 612.65318,38.944036 615.13669,38.489759 619.57107,38.469202 625.91957,38.43977 626.28125,38.30663 627.72062,35.469202 632.1152,26.806127 643.87927,19.191966 650.84914,20.499522 655.44701,21.362086 661.56672,26.218703 663.90917,30.863991 665.90451,34.820924 667.99095,45.348246 668.01531,51.581913 668.03484,56.578835 669.20886,58.440149 671.89764,57.737018 673.05394,57.43464 674,57.533532 674,57.956778 674,58.958874 664.33643,68 663.26535,68 662.81416,68 661.3875,67.259291 660.09499,66.35398 658.80248,65.44867 656.41692,64.553333 654.79376,64.364344 650.03795,63.810612 649.17657,62.849707 650.9391,60.064302 651.67295,58.904556 652.13712,58.868914 653.35405,59.878869 654.59482,60.908624 655.04919,60.7766 655.93026,59.130308 657.52419,56.152031 657.21979,53.246775 654.50216,45.5 650.46376,33.988323 646.73301,32.296272 639.75,38.809278 636.56218,41.782534 636.38931,43.317645 638.6443,48.627876 642.31455,57.270874 640.2101,72.92478 634.34399,80.615653 632.5626,82.951174 632.0869,84.498076 632.56469,86.401712 633.35488,89.550096 631.19291,89.975637 628.65499,87.171259 626.27905,84.54588 626.57349,83.313377 630.37372,79.976728 635.74381,75.261733 638.33041,68.050128 637.77205,59.349733 637.4938,55.014 636.64579,51.108359 635.65401,49.594699 634.7443,48.206316 634,46.357187 634,45.485523 634,41.573685 639.70857,34.113706 642.76357,34.033269 643.45853,34.014971 644.90583,33.451246 645.97979,32.780548 650.80703,29.76589 658.56597,44.061562 658.31072,55.5 658.16429,62.062451 659.10154,64 662.42244,64 665.55805,64 666.89293,62.217565 666.44258,58.632017 663.33277,33.872653 663.01273,32.763946 657.46539,27.532125 653.19342,23.503144 649.27914,22.422742 644.57676,23.974667 639.33673,25.704033 632.78686,31.413999 629.95248,36.723649 L 627.40278,41.5 621.59984,41.184245 C 614.80855,40.814711 610.40084,42.546488 606.58226,47.084607 605.16202,48.772471 604,51.243924 604,52.576725 604,55.046141 605.37589,55.818853 606.50883,53.98571 607.46397,52.440264 614.65897,49 616.93599,49 620.49975,49 625.18005,52.686267 627.12123,57.022034 630.07005,63.608437 629.63408,70.699832 625.9372,76.281101 624.25265,78.824295 621.96592,81.193428 620.85557,81.54584 619.74522,81.898251 615.72348,81.873935 611.91838,81.491803 608.0794,81.106269 605,81.188376 605,81.676268 605,82.985129 608.80839,86 610.46174,86 611.25312,86 612.26048,86.565157 612.70031,87.255904 613.14014,87.946652 616.09947,90.445263 619.27659,92.808374 622.45371,95.171485 624.78966,97.531328 624.46757,98.05247 623.4932,99.629032 622.59869,99.215472 614.65517,93.515918 z M 659.5,86.368758 C 650.30755,82.856817 646,80.573408 646,79.212485 646,77.467751 647.84169,77.827454 657.29549,81.418627 661.03301,82.838382 665.09113,84 666.31354,84 667.53595,84 671.22798,81.761427 674.51805,79.025393 677.80812,76.28936 681.0625,74.03936 681.75,74.025393 684.00268,73.979631 683.05943,76.916258 680.25,78.695385 678.7375,79.653205 675.15671,82.138579 672.2927,84.218438 666.54136,88.395082 665.33475,88.597902 659.5,86.368758 z M 662.99413,97.378417 C 653.00511,93.243915 646,89.498211 646,88.291489 646,85.589929 648.70985,86.032004 656.33404,89.977346 660.60951,92.189806 664.97385,94 666.03257,94 667.09129,94 671.04129,91.75 674.81035,89 681.33134,84.242134 685,82.803819 685,85.005108 685,85.98791 674.58377,94.042512 669.20033,97.222591 666.7925,98.644932 666.09628,98.662413 662.99413,97.378417 z M 654.57145,75.198836 C 643.66194,69.262464 644.5874,66.398151 655.60908,71.987333 658.84909,73.630365 662.4,74.976343 663.5,74.978394 664.6,74.980445 668.39366,72.736145 671.93036,69.991061 678.00975,65.272419 681,63.912591 681,65.866613 681,67.430298 665.57759,79.000375 663.51444,78.984492 662.4065,78.975963 658.38215,77.272418 654.57145,75.198836 z"/>
</svg>
