<?xml version="1.0" encoding="UTF-8"?>
<svg xmlns="http://www.w3.org/2000/svg" viewBox="1809.59 10.96 31.54 90.4">
  <path d="M 1839.125,33.625 1835.8125,35.46875 1833.8125,33 C 1832.0964,30.88074 1831.8945,29.646457 1832.4688,24.5 1833.1801,18.123823 1832.1418,17.873896 1830.125,23.90625 1828.4479,28.92228 1828.7343,32.415173 1831.0625,35.375 1833.0776,37.936844 1835.0111,38.39584 1838.4375,37.09375 L 1839.125,33.625 z M 1837.25,43.40625 C 1836.0045,43.702619 1834.7765,44.187996 1833.625,45.09375 1828.6044,49.042967 1827.791,52.078638 1827.5938,67.90625 1827.4454,79.801322 1827.0552,83.427456 1825.4375,87.5 1821.5633,97.253045 1816.9118,93.175623 1816.1875,79.375 1815.7459,70.961548 1817.3385,61.217536 1820.5,52.90625 1822.2569,48.287296 1821.4144,41.341985 1819.0312,40.71875 1814.877,39.632379 1814.6197,27.497549 1818.5938,19.8125 1820.2927,16.527064 1819.8334,15.068104 1817.6562,16.875 1812.7127,20.977835 1811.5889,36.256066 1815.8125,41.96875 1818.5535,45.676143 1818.5402,48.116906 1815.7812,57.78125 1812.9231,67.793281 1812.6882,87.342835 1815.3438,93.25 1816.7124,96.294748 1817.5603,97 1819.8438,97 1823.3543,97 1826.3927,93.851035 1828.5938,87.96875 1829.8305,84.663345 1830.3408,79.557858 1830.5312,68.375 1830.7345,56.446148 1831.1312,52.727156 1832.4062,50.78125 1833.5026,49.108049 1834.9591,47.865279 1836.5312,47.1875 L 1837.25,43.40625 z M 1826.625,17 C 1824.3002,17 1822.8212,19.694655 1821.375,26.59375 1820.2838,31.799507 1820.2381,34.029183 1821.1562,37.09375 1822.0796,40.175435 1822.8015,41 1824.6562,41 1827.4069,41 1827.7169,39.249824 1825.2812,37.46875 1822.7332,35.605565 1823.1926,24.598611 1825.9688,20.84375 1828.3766,17.5868 1828.4699,17 1826.625,17 z"/>
</svg>
