<?xml version="1.0" encoding="UTF-8"?>
<svg xmlns="http://www.w3.org/2000/svg" viewBox="2275.64 15.01 37.83 86.94">
  <path d="M 2310.5625,76.09375 C 2309.8027,75.721072 2308.9965,75.360458 2308.5,74.875 2307.4,73.799481 2304.3625,71.323399 2301.75,69.34375 L 2297,65.71875 2297,58.125 2297,50.5 2303,45.65625 C 2309.7325,40.21508 2310.8457,37.625614 2308.9375,31.84375 2307.5097,27.517444 2298.9873,18.961368 2296.1562,19.03125 2293.8078,19.089221 2283.9129,26.986062 2281.25,30.9375 2280.011,32.776128 2279,35.072062 2279,36.03125 2279,38.058577 2284.797,45.619972 2287,46.46875 2291.4796,48.194676 2294.0484,51.664443 2294.5938,56.71875 L 2295.125,61.8125 2289.0625,68.15625 C 2282.1313,75.409234 2277.6395,83.430748 2279.0312,86.03125 2279.5246,86.95293 2280.9589,88.386807 2282.2188,89.21875 2283.4785,90.050694 2286.2675,92.379054 2288.4375,94.375 2290.6075,96.370946 2292.4621,98 2292.5625,98 2293.7659,98 2301.099,94.261503 2303.5312,92.40625 2305.2682,91.08148 2307.1673,90 2307.75,90 2307.8077,90 2308.361,90.314087 2308.4688,90.34375 L 2310.9062,85.40625 C 2310.8657,85.317501 2310.5875,85.128809 2310.5938,85.0625 2310.6488,84.482929 2310.7613,83.325 2310.8438,82.5 2310.8805,82.132536 2311.1265,81.877865 2311.4688,81.65625 L 2310.5625,76.09375 z M 2291.9688,24.625 C 2292.5515,24.496947 2292.7795,24.90054 2293.0938,25.75 2293.4678,26.761013 2293.9599,31.750975 2294.1562,36.8125 2294.4126,43.419857 2294.1598,46.000363 2293.3125,46 2292.6633,45.999722 2289.7383,43.794817 2286.8125,41.09375 L 2281.5,36.1875 2283.3125,32.84375 C 2284.3074,31.007317 2286.7714,28.253511 2288.7812,26.71875 2290.4698,25.429234 2291.386,24.753053 2291.9688,24.625 z M 2292.7188,68.34375 C 2293.2914,68.141525 2293.6395,68.411675 2294.0312,69.03125 2295.0808,70.691096 2295.1361,77.738109 2294.1562,86 2293.3256,93.003047 2291.6119,93.407173 2285.8438,88.0625 L 2281.5,84.03125 2284.3125,78.65625 C 2285.8522,75.696219 2288.4449,71.985941 2290.0938,70.40625 2291.3467,69.205847 2292.1461,68.545975 2292.7188,68.34375 z M 2298.0625,24.75 C 2298.906,24.528294 2299.8405,25.095357 2301.625,26.75 2304.7624,29.658952 2307,33.915395 2307,36.9375 2307,37.947621 2305.2016,40.386 2303,42.375 2300.7984,44.363999 2298.8035,46 2298.5625,46 2296.1714,46 2294.9485,27.102894 2297.2188,25.21875 2297.5106,24.976559 2297.7813,24.823902 2298.0625,24.75 z M 2298.5,71.71875 2303,75.15625 C 2308.9584,79.703837 2309.2379,82.135842 2304.3438,87.1875 2300.1342,91.532483 2297.3097,93.413914 2296.75,92.25 2296.5509,91.836013 2296.8593,87.064412 2297.4375,81.625 L 2298.5,71.71875 z"/>
</svg>
