<?xml version="1.0" encoding="UTF-8"?>
<svg xmlns="http://www.w3.org/2000/svg" viewBox="2715.31 30.57 59.23 79.29">
  <path d="M 2771.8438,79.0625 2771.8438,72.40625 C 2767.9906,78.762817 2763.6536,86.145765 2761.375,89.5625 2757.3156,95.649762 2754,101.16226 2754,101.8125 2754,106.25603 2761.0287,97.147678 2771.8438,79.0625 z M 2771.8438,44.96875 2771.8438,38.875 C 2769.1812,42.938706 2767,46.652279 2767,47.09375 2767,47.535222 2764.349,52.067678 2761.125,57.1875 2755.8702,65.532094 2750.633,74.465145 2745.8438,83.15625 2744.9284,84.817185 2742.3918,88.951651 2740.2188,92.34375 2735.5074,99.698155 2734,102.50519 2734,103.9375 2734,105.77427 2735.79,105.11383 2737.6875,102.5625 2738.6899,101.21468 2741.525,96.681936 2744,92.5 2746.475,88.318065 2750.1306,82.277222 2752.125,79.09375 2755.6254,73.506482 2765.3046,56.77881 2771.5,45.59375 2771.6865,45.257114 2771.6617,45.297608 2771.8438,44.96875 z M 2754.875,34.25 C 2754.178,34.177073 2753.2544,34.220701 2752.125,34.46875 2748.2361,35.322883 2741.4061,42.941529 2739.8438,48.15625 2738.5768,52.384781 2738.3911,52.48383 2734.4062,50.96875 2732.8998,50.396036 2730.335,50.207509 2728.7188,50.5625 2725.3782,51.29622 2718,57.535821 2718,59.625 2718,61.565706 2718.2919,61.433524 2723,57.5 2727.7993,53.490279 2730.4724,53.18003 2736,56 2739.8725,57.975634 2739.9462,57.973253 2740.9688,56.0625 2741.5387,54.997632 2742,53.19472 2742,52.03125 2742,46.795711 2748.2642,38.716714 2753.75,36.90625 2756.9325,35.85595 2756.9659,34.468781 2754.875,34.25 z M 2734.5312,73.09375 C 2733.7227,73.348277 2732.7733,74.208331 2732.1562,75.5625 2731.5115,76.977535 2728.0685,82.783919 2724.5,88.46875 2720.9314,94.153581 2718,99.306116 2718,99.90625 2718,102.98276 2721.0507,100.11734 2725.75,92.625 2728.6375,88.021286 2731,84.008453 2731,83.6875 2731,83.366547 2732.125,81.432426 2733.5,79.40625 2734.875,77.380074 2736,75.123249 2736,74.375 2736,73.215059 2735.3398,72.839223 2734.5312,73.09375 z"/>
</svg>
