<?xml version="1.0" encoding="UTF-8"?>
<svg xmlns="http://www.w3.org/2000/svg" viewBox="2220.31 12.41 41.42 90.42">
  <path d="M 2229.9375 80.65625 L 2229.25 84.75 C 2229.9393 84.540879 2230.8032 84.647548 2232.25 85.0625 C 2234.0303 85.573081 2236.3153 86 2237.3125 86 C 2239.8017 86 2244.4581 80.657944 2245.875 76.1875 C 2246.5184 74.157441 2247.5186 62.003162 2248.0938 49.15625 C 2249.0801 27.122181 2249.8622 21 2251.75 21 C 2253.4401 21 2255.2642 30.496979 2255.625 41.28125 C 2256.2957 61.329151 2253.5566 80.62135 2248.8438 89.0625 C 2245.5269 95.003025 2243.4814 95.441366 2233.3125 92.40625 C 2229.383 91.233427 2227.5348 90.216891 2227 89 L 2222.3125 93.03125 C 2222.3259 93.030678 2222.3623 93 2222.375 93 C 2223.2467 93 2227.3102 94.125 2231.4062 95.5 C 2240.8063 98.655478 2245.0079 98.719937 2247.6875 95.75 C 2252.8939 89.979655 2255.7029 82.104114 2257.5312 68.15625 C 2259.7349 51.34608 2258.4278 25.827519 2255.0312 19 C 2253.7992 16.523592 2250.2909 16.625884 2248.625 19.1875 C 2246.7991 21.995033 2245.3728 37.85343 2245.125 58 C 2244.9682 70.74115 2244.6689 73.04585 2242.7188 77 C 2240.8219 80.846147 2240.0211 81.535852 2237.125 81.8125 C 2233.7245 82.137344 2231.454 81.761704 2229.9375 80.65625 z "/>
</svg>
