<?xml version="1.0" encoding="UTF-8"?>
<svg xmlns="http://www.w3.org/2000/svg" viewBox="1367.31 16.55 32.12 90.61">
  <path d="M 1371.607,100.41821 C 1370.1609,96.649701 1371.0715,89.249219 1373.6075,84.160053 L 1376.2151,78.927418 1374.0003,73.779102 C 1369.3076,62.870602 1370.9392,43.912028 1377.8899,28.582462 1380.9898,21.745785 1381.9862,20.673757 1384.3852,21.594315 1386.8035,22.522291 1392.4601,33.668576 1394.0526,40.643552 1395.4939,46.956635 1395.4334,63.591094 1393.9387,71.954971 1392.9331,77.582086 1393.003,79.242455 1394.4215,83.420582 1396.5437,89.671309 1397.4289,96.154967 1396.6072,99.429092 1395.6983,103.05044 1391.7828,102.94363 1390.0417,99.25 1384.5408,87.580038 1382.6072,86.686655 1379.7142,94.478452 1378.6975,97.2166 1377.3908,100.0291 1376.8104,100.72845 1375.3422,102.49752 1372.3361,102.31829 1371.607,100.41821 z M 1377,94.549 C 1377,93.885639 1378.3891,91.245806 1380.0868,88.682703 1383.8836,82.950584 1385.3118,83.385289 1390.0898,91.727214 1392.6236,96.150928 1393.4933,97.042874 1393.8112,95.543921 1394.347,93.017623 1392.1208,83.028339 1390.5059,80.712789 1389.4972,79.266259 1389.5549,78.122531 1390.8089,74.712789 1391.911,71.71621 1392.3601,66.746967 1392.3645,57.5 1392.3698,46.546224 1392.014,43.483213 1390.1041,38.040182 1387.5803,30.847668 1384.5401,26 1382.5532,26 1381.137,26 1380.2259,27.970064 1377.0032,38 1372.5006,52.013313 1372.6956,63.931956 1377.6108,75.144192 1379.1534,78.662995 1379.121,78.938258 1376.6701,83.144192 1374.1293,87.504514 1373.5534,89.996835 1373.8445,95.372445 1373.9762,97.805972 1374.2292,98.054667 1375.5,97 1376.325,96.315311 1377,95.212361 1377,94.549 z"/>
</svg>
