<?xml version="1.0" encoding="UTF-8"?>
<svg xmlns="http://www.w3.org/2000/svg" viewBox="2570.92 10.23 62.26 90.94">
  <path d="M 2600.7155,92.799281 C 2599.8389,90.434677 2598.6498,86.7 2598.073,84.5 2597.4963,82.3 2595.9548,79.172821 2594.6474,77.550712 L 2592.2705,74.601425 2588.0434,82.303316 C 2582.2237,92.907152 2580.5884,94.78311 2578.3549,93.417651 2573.7547,90.605327 2574.6444,80.970958 2580.6481,68.584712 2584.567,60.499571 2584.6444,59.794493 2582.0057,56.209507 2578.8939,51.981782 2575.9978,42.575504 2576.022,36.774983 2576.0449,31.272733 2579.0442,23 2581.0162,23 2581.6289,23 2583.6563,26.2625 2585.5217,30.25 2587.3871,34.2375 2590.0083,38.841451 2591.3467,40.481003 L 2593.7801,43.462005 2595.2104,39.981003 C 2595.997,38.066451 2597.4372,33.575 2598.4108,30 2602.6688,14.364273 2606.9126,15.353356 2611.2123,32.983617 2612.4254,37.957671 2613.8864,41.877815 2614.459,41.695049 2615.0315,41.512283 2617.7677,36.925225 2620.5394,31.501588 2623.311,26.07795 2626.056,21.481345 2626.6393,21.286909 2628.9022,20.532588 2630.2183,24.131255 2630.2768,31.233174 2630.3389,38.782862 2628.6628,45.626882 2625.0779,52.461442 2623.935,54.640235 2623,57.014942 2623,57.738569 2623,58.462195 2624.6233,62.153113 2626.6074,65.940609 2629.7631,71.96468 2630.223,73.745616 2630.28,80.163482 2630.3574,88.884364 2628.2099,95 2625.0701,95 2623.6643,95 2622.8547,94.152478 2622.4429,92.25 2620.6902,84.152247 2617.8237,76.150383 2616.1245,74.612675 2613.7508,72.464496 2613.4187,72.979342 2611.9718,81.051104 2610.4642,89.461205 2607.1221,96.408068 2604.3953,96.799281 2602.7448,97.036095 2601.9767,96.201193 2600.7155,92.799281 z M 2607.3591,87.739658 C 2608.1933,85.407846 2609.6094,80.0125 2610.5061,75.75 2611.4028,71.4875 2612.6007,68 2613.1682,68 2615.4099,68 2620.8554,74.803742 2622.0122,79.04991 2624.9964,90.004189 2626.4011,91.176833 2627.5289,83.65559 2628.4125,77.763678 2626.582,71.578005 2621.9251,64.718606 2617.5945,58.339996 2617.2427,56.873394 2619.578,54.935259 2624.084,51.195633 2628.9356,36.253381 2627.3917,30.870177 L 2626.4472,27.576885 2624.0339,31.538443 C 2622.7066,33.717299 2620.52,37.525 2619.1747,40 2612.6864,51.937239 2610,53.139288 2610,44.105335 2610,37.453182 2606.5506,24.998045 2604.7098,25.003748 2603.2884,25.008152 2600.6294,31.136556 2598.5075,39.29879 2596.1464,48.380964 2596.2069,48.53397 2602.25,48.770897 2606.8357,48.950683 2607.9113,49.419236 2610.75,52.473679 2613.4204,55.346956 2614,56.775814 2614,60.485315 2614,63.616169 2613.4069,65.593133 2612.0649,66.935067 2609.2864,69.713642 2603.7078,71.034226 2599.5724,69.892377 2596.802,69.127427 2595.8368,68.136278 2594.5387,64.722984 2593.1018,60.945115 2593.0874,59.987688 2594.4017,55.639485 2595.7867,51.057284 2595.7636,50.750934 2593.9984,50.289343 2592.9687,50.020048 2591.1571,47.932279 2589.9728,45.649858 2583.6177,33.402366 2581.4043,29.716087 2580.5,29.873525 2579.9475,29.969712 2579.5288,32.912485 2579.5643,36.448882 2579.6301,42.989072 2581.2696,48.00013 2585.7094,55.230128 2588.6004,59.938043 2588.5774,61.125158 2585.5,66 2584.125,68.178141 2583,70.23869 2583,70.578999 2583,70.919308 2582.3695,72.61575 2581.5988,74.348871 2579.0636,80.050331 2578.2085,83.639929 2578.7326,86.381273 2579.465,90.212802 2581.01,89.20807 2584.8267,82.418177 2589.1817,74.670608 2592.7859,70 2594.4096,70 2595.5666,70 2602,84.325859 2602,86.902348 2602,88.788644 2604.291,92.938194 2605.0675,92.458301 2605.4937,92.19486 2606.525,90.07147 2607.3591,87.739658 z M 2608.7775,65.443296 C 2611.7997,63.326459 2611.7854,58.06452 2608.75,55.297863 2607.5125,54.169942 2604.8326,52.949889 2602.7948,52.586634 2599.4027,51.981987 2598.959,52.178624 2597.5448,54.913426 2595.4708,58.924127 2595.599,61.220481 2598.0726,64.365141 2600.4868,67.434272 2605.2501,67.914011 2608.7775,65.443296 z"/>
</svg>
