<?xml version="1.0" encoding="UTF-8"?>
<svg xmlns="http://www.w3.org/2000/svg" viewBox="1410.55 19.82 28.28 87.99">
  <path d="M 1417.25 50.53125 L 1417.5 50.71875 L 1416.25 58 C 1416.4462 58.154578 1416.5842 58.368088 1416.7188 58.71875 C 1417.2113 60.002321 1416.5315 61.730362 1415.5312 62.625 L 1415.1562 66.25 L 1414.5938 67.1875 C 1414.8534 68.145756 1414.8636 69.619415 1414.5625 72.25 C 1413.5589 81.015107 1413.8901 93.950927 1415.1875 96.375 C 1418.7183 102.97235 1426.037 103.80889 1429.4375 98 C 1431.352 94.729622 1431.4919 93.122267 1431.25 73.5 C 1431.1076 61.95 1431.4337 50.475 1431.9688 48 C 1432.5039 45.525 1433.6328 40.125 1434.5 36 C 1435.3672 31.875 1436.2995 27.4875 1436.5625 26.25 C 1436.8256 25.0125 1436.5777 24 1436.0312 24 C 1434.52 24 1432 29.513964 1432 32.8125 C 1432 36.898488 1428.9521 50 1428 50 C 1426.3017 50 1425.905 46.043521 1426.5625 35.875 C 1427.0258 28.708708 1426.8782 25.039911 1426.1562 24.59375 C 1424.907 23.821693 1424.3162 27.152795 1423.625 38.40625 C 1423.2989 43.714001 1422.6148 46.822714 1421.5625 47.875 C 1420.1413 49.296189 1420 49.121801 1420 46.1875 C 1420 42.73835 1415.6468 29.240563 1414 27.59375 C 1412.5474 26.141153 1412.7418 29.441121 1414.3438 33.28125 C 1416.7222 38.983093 1418.2031 46.830251 1417.5 50.03125 C 1417.4627 50.200845 1417.3062 50.361406 1417.25 50.53125 z M 1424 51.125 C 1424.7468 51.32222 1425.5966 51.991971 1426.5938 53.09375 C 1428.335 55.017737 1428.5 56.939698 1428.5 75.4375 C 1428.5 91.118703 1428.1884 96.059432 1427.125 97.34375 C 1425.21 99.656428 1422.7414 99.395058 1419.7188 96.59375 C 1415.2855 92.485148 1415.0019 84.471125 1418.5938 64.5 C 1420.4233 54.327449 1421.7595 50.53334 1424 51.125 z "/>
</svg>
