<?xml version="1.0" encoding="UTF-8"?>
<svg xmlns="http://www.w3.org/2000/svg" viewBox="499.64 14.74 82.31 93.67">
  <path d="M 527.28177,102.34831 C 525.30954,101.54889 519,92.399577 519,90.339111 519,89.297997 520.8525,85.983287 523.11667,82.973088 530.0823,73.71234 530.33502,70.882787 524.58801,66.49933 519.48591,62.607768 516.74129,63.151442 513.22601,68.75 511.58565,71.3625 509.94714,74.769468 509.58489,76.321039 508.82508,79.575322 507.07845,79.416127 505.19612,75.921031 503.38637,72.560713 504.33716,61.214356 506.83705,56.338802 507.91962,54.227461 509.98335,51.400424 511.42311,50.056497 513.86092,47.780948 514.2972,47.70081 517.77043,48.890589 519.82169,49.593265 523.4076,51.030341 525.7391,52.084091 531.76676,54.808358 532.97156,54.591655 533.15622,50.75 533.24215,48.9625 533.3837,46.15 533.47079,44.5 533.66273,40.863421 532.27783,35.289741 530.98354,34.489829 530.46522,34.169488 528.17268,34.467196 525.889,35.151401 521.89866,36.346936 521.64458,36.288117 519.36843,33.641942 517.04524,30.941062 516.26916,26.068101 517.60699,22.581787 518.59754,20.000451 521.99822,20.765666 526.13168,24.5 528.26242,26.425 530.4058,28 530.89473,28 531.38366,28 534.03598,25.975 536.78878,23.5 539.54157,21.025 542.13005,19 542.54095,19 542.95185,19 544.74863,20.6875 546.53379,22.75 549.53915,26.222267 549.91731,26.38598 551.63977,24.960485 554.91468,22.250191 560.40192,20.321165 563,20.966826 564.9488,21.451132 565.6933,22.499371 566.3767,25.72116 568.21363,34.380992 565.15035,37.691968 557.03462,35.818634 554.27012,35.180511 551.72424,34.942429 551.3771,35.289563 550.74618,35.920483 549.32191,41.700874 548.32865,47.661712 548.03888,49.400653 548.19136,51.519517 548.66748,52.370299 549.42825,53.729719 549.8341,53.74366 552.01658,52.485341 563.59033,45.812413 569.7458,46.491782 573.85769,54.895908 574.82754,56.878158 576.25088,59.490586 577.02067,60.701303 578.19532,62.548808 578.21465,63.914944 577.1409,69.201303 575.77501,75.926017 573.18347,79.668119 570.58328,78.67033 569.67293,78.320997 568.99067,76.880618 568.97804,75.281385 568.94532,71.13754 565.49325,64.291328 563.04466,63.514175 560.62625,62.7466 555.07743,66.426 552.33009,70.618966 550.80441,72.947458 550.82565,73.275472 552.66584,75.802381 557.86284,82.938824 558.88984,84.734081 559.50067,87.75 560.4656,92.514241 557.51389,92.100609 555.93264,87.25 555.26028,85.1875 554.43662,83.275 554.10228,83 553.76793,82.725 552.23557,80.64325 550.69704,78.373889 547.21415,73.236562 547.74225,70.273831 553.05375,65.152394 558.30057,60.093332 560.86151,58 561.80383,58 563.38029,58 568.92529,64.563907 570.46274,68.25 572.30619,72.669743 573.936,73.110747 574.15844,69.25 574.65944,60.554521 569.3766,51 564.06773,51 561.41207,51 552.86639,55.046375 549.74387,57.782342 547.54568,59.708406 546.93241,59.098974 546.01383,54.075619 545.34923,50.441234 546.72982,38.844705 548.47061,33.439301 548.94673,31.96088 548.19696,30.209441 545.81713,27.240915 543.99271,24.965187 542.0338,23.080002 541.464,23.051614 539.62493,22.959991 533.89348,31.30435 534.65546,32.964095 535.04328,33.808843 535.54624,38.614006 535.77315,43.642236 536.29522,55.211173 535.33251,57.442065 530.11971,56.742883 528.09399,56.471176 524.33804,55.292874 521.77315,54.124435 516.10468,51.542146 513.76777,51.454032 511.84261,53.75 508.82839,57.344819 504.94537,70 506.85659,70 507.30021,70 509.12073,67.750598 510.9022,65.001329 514.97479,58.716247 517.75578,57.843376 523.68542,60.989043 529.27399,63.953772 532.42929,68.898142 531.58948,73.374725 531.24889,75.190229 529.17692,79.648974 526.98511,83.283046 524.7933,86.917119 523,90.269598 523,90.733 523,92.299768 528.79894,98.505857 529.56267,97.756447 529.97944,97.347493 529.7697,95.174709 529.09659,92.928037 528.06302,89.47829 528.11469,88.473903 529.42895,86.468089 531.40082,83.458643 539.35808,78.75 542.47195,78.75 544.83645,78.75 549.53821,83.223621 553.29372,89.046684 556.05576,93.329321 553.37502,94.054223 550.12973,89.902264 543.5329,81.462415 543.59994,81.508857 540.10452,82.956706 538.35202,83.682618 535.82109,85.139488 534.48025,86.194195 532.23438,87.960798 532.09111,88.578351 532.6614,94.034507 533.44355,101.51776 531.73747,104.15438 527.28177,102.34831 z M 526,30.038955 C 526,29.51038 524.9875,28.131195 523.75,26.974099 521.80542,25.155867 521.45458,25.090636 521.16543,26.493557 520.62341,29.123291 521.7908,31 523.96862,31 525.08588,31 526,30.56753 526,30.038955 z M 563.63923,31.497764 C 563.95629,30.671534 563.93359,28.871534 563.58879,27.497764 562.75713,24.184134 558.56789,24.150404 554.5,27.424586 L 551.5,29.839237 554,30.776038 C 555.375,31.291278 557.175,31.966923 558,32.277472 560.78077,33.324218 563.05924,33.009185 563.63923,31.497764 z"/>
</svg>
