<?xml version="1.0" encoding="UTF-8"?>
<svg xmlns="http://www.w3.org/2000/svg" viewBox="1152.52 14.39 115.71 94.83">
  <path d="M 1159.5312,51.71875 1159.0625,56.9375 C 1159.7609,55.927788 1160.404,55.859284 1162.1875,56.78125 1163.4607,57.439491 1166.5051,58.66209 1168.9375,59.5 1173.265,60.990775 1173.4305,60.969005 1177.2188,58.34375 1179.348,56.868189 1181.3104,55.302258 1181.5938,54.84375 1182.4773,53.414134 1187.8195,53.915588 1193.75,56 1201.2772,58.645589 1203.6134,58.538712 1205.625,55.46875 1207.4326,52.709976 1206.8907,47.399189 1203.6562,36.09375 1202.1788,30.9294 1202.1958,30.553054 1204.125,27.84375 1207.3643,23.294527 1209.7767,22.448661 1212.875,24.78125 1214.9171,26.3187 1215.456,27.499047 1215.2812,30.125 1214.5949,40.442772 1214.5835,50.839191 1215.2812,53.34375 1215.9671,55.805294 1216.4512,56.14746 1218.7812,55.65625 1220.2685,55.342707 1222.8871,54.783244 1224.5938,54.4375 1226.7476,54.001171 1229.1947,54.50951 1232.5938,56.0625 1239.8925,59.397283 1244.9651,59.661746 1252.0938,57.0625 1254.9559,56.018906 1256.8576,55.566259 1257.6875,55.53125 L 1259.4688,50.125 C 1257.5143,51.334791 1254.2955,52.837845 1251.1875,53.84375 1245.0541,55.828797 1244.0867,55.884124 1239.5,54.625 1236.75,53.870088 1233.0693,52.432696 1231.3125,51.40625 1228.2426,49.612683 1227.9349,49.60282 1223.4062,51.28125 1220.8145,52.241804 1218.5168,52.860562 1218.3125,52.65625 1217.4362,51.780016 1216.9708,44.124404 1217.5312,39.9375 1218.4605,32.994587 1219.1991,32.329799 1222.9375,35.09375 1225.86,37.254396 1226.3136,37.329679 1228.6875,35.96875 1230.1037,35.15683 1231.9183,32.762602 1232.75,30.65625 L 1234.2812,26.84375 1230.7812,23.4375 1227.25,20.03125 1222.4688,22.5625 1217.6562,25.125 1215.25,22.0625 C 1213.9309,20.377041 1212.2023,19 1211.4062,19 1209.763,19 1202.5074,23.38923 1201.5312,24.96875 1200.5073,26.625463 1199.4451,26.213822 1195,22.5 1190.4493,18.698005 1188.6322,18.836102 1185.5625,23.21875 1183.2828,26.473418 1183.6494,29.567457 1186.75,33.03125 L 1189.5,36.125 1193.3438,34.5 C 1195.4574,33.615227 1197.6309,33.033229 1198.1875,33.21875 1200.2609,33.9099 1204.4699,48.970381 1203.4688,52.125 1202.7084,54.520345 1201.4825,54.490028 1192.375,51.84375 L 1184.9375,49.65625 1180.2812,52.9375 C 1176.3464,55.711051 1174.9989,56.151425 1171.4375,55.75 1169.1249,55.48933 1165.3718,54.411935 1163.125,53.375 L 1159.5312,51.71875 z M 1189.5312,24.34375 C 1191.2227,23.694674 1195,26.584465 1195,28.53125 1195,30.139155 1190.4169,31.01071 1189.0625,29.65625 1187.506,28.099783 1187.7704,25.019468 1189.5312,24.34375 z M 1225.1562,25.09375 C 1226.1336,25.08767 1227.159,25.556227 1228.4062,26.5 1230.0302,27.728784 1230.1583,28.337992 1229.1875,30.46875 1227.7441,33.636598 1225.9918,33.680607 1223.0625,30.5625 1220.9843,28.350284 1220.9084,27.966565 1222.3125,26.5625 1223.27,25.60501 1224.1789,25.09983 1225.1562,25.09375 z M 1158.7188,60.6875 1158.25,65.78125 1158.4062,66.375 C 1158.415,66.363065 1158.4286,66.258855 1158.4375,66.25 1158.6248,66.062761 1161.4969,66.810029 1164.8438,67.9375 1173.1214,70.726022 1174.3861,70.59756 1182.125,66 1191.3563,60.515781 1192.7292,60.699533 1198.375,68.1875 1200.6498,71.204507 1201.1562,72.895615 1201.1562,77.5 1201.1562,81.018041 1200.5186,84.070373 1199.5,85.625 1196.5469,90.131913 1196.0322,90.04513 1183.9688,83.15625 1181.6174,81.813464 1181.1095,81.904091 1177.2812,84.4375 1170.6802,88.805874 1160.5891,89.720964 1158.25,86.28125 L 1157.7812,86.53125 1158.1875,92.84375 C 1159.107,92.483645 1161.3821,92.211069 1164.2812,92.28125 1169.1987,92.400289 1171.7644,91.847588 1176.5,89.65625 L 1182.5,86.875 1188.625,90.15625 C 1194.0159,93.034075 1195.0747,93.266874 1197.375,92.21875 1201.6713,90.261233 1203.9957,85.38077 1204,78.21875 1204.0055,68.960874 1201.0633,62.905513 1194.625,58.9375 1191.3068,56.892479 1189.9506,57.288286 1181.125,62.84375 1176.2417,65.917641 1175.276,66.167048 1170.7188,65.5625 1165.8931,64.92236 1160.3546,62.532717 1158.7188,60.6875 z M 1158.3125,94.90625 1158.7188,101.625 1158.75,101.84375 C 1159.9877,101.63649 1161.9128,101.54734 1164.4375,101.75 1170.0366,102.19944 1171.4429,101.93687 1175.1875,99.78125 1179.3417,97.389879 1179.684,97.358537 1184.5,98.75 1197.9991,102.65021 1198.69,102.66839 1204.5625,99.59375 L 1209.9688,96.78125 1214.4688,98.875 C 1220.1142,101.52867 1225.4422,101.57684 1230.25,99 1235.123,96.388199 1235.387,96.419547 1243,100.46875 1250.237,104.31796 1255.351,104.90619 1260.125,102.4375 1261.4633,101.74542 1262.2353,101.41757 1262.9688,101.40625 L 1259.5625,96.84375 C 1259.5346,97.448294 1259.3781,98.056403 1258.9062,98.625 1256.9205,101.01777 1250.8477,100.12412 1243.125,96.3125 L 1235.7812,92.6875 1230.375,95.34375 C 1223.7153,98.609974 1223.1235,98.606285 1216.0625,95.4375 L 1210.375,92.90625 1205.2812,95.4375 C 1199.1619,98.511041 1197.0751,98.580248 1188.8438,96 1180.6106,93.419178 1178.7641,93.492538 1174,96.5 1168.6131,99.900598 1162.9713,99.877475 1159.5312,96.4375 1159.0095,95.915719 1158.6618,95.404302 1158.3125,94.90625 z M 1258.25,94.59375 1259.0625,89.6875 C 1255.7476,92.099697 1248.4936,90.394509 1243.8438,86.0625 1240.6182,83.05739 1235.3601,82.344285 1231.5312,84.40625 1227.9271,86.347222 1222.4035,86.809744 1220.875,85.28125 1219.9769,84.383183 1218.0853,78.409378 1217.7812,75.5 1217.3715,71.578461 1218.2713,66.884927 1219.6875,65.46875 1221.6725,63.483712 1228.5648,64.033642 1232.2812,66.46875 1236.2864,69.092984 1247.3047,68.19239 1256.1875,64.53125 1256.9398,64.221165 1257.5125,64.46164 1258.0625,65 L 1257.5,59.3125 C 1256.578,60.584437 1254.8979,61.557215 1251.8125,62.59375 1244.1982,65.151781 1237.3778,64.992247 1231.25,62.125 1225.4973,59.433285 1222.6198,59.69257 1218.375,63.34375 1215.8069,65.552777 1215.6667,66.17 1215.75,73.875 1215.9043,88.16361 1219.5913,92.023934 1229.75,88.5625 1236.3808,86.303165 1238.4463,86.58902 1243.4062,90.375 1247.9145,93.816168 1253.6426,95.576991 1256.9375,94.53125 1257.4417,94.371217 1257.8588,94.448322 1258.25,94.59375 z"/>
</svg>
