<?xml version="1.0" encoding="UTF-8"?>
<svg xmlns="http://www.w3.org/2000/svg" viewBox="176.96 38.42 23.41 54.61">
  <path d="M 183,88.068094 C 183,87.005546 184.35,85.174904 186,84 188.80979,81.999252 189,81.449138 189,75.323498 189,68.846507 188.9758,68.789259 186.5,69.410644 183.36178,70.198286 183.33951,69.307835 186.41606,66.054719 187.74489,64.649623 188.95639,62.825 189.1083,62 189.60248,59.316033 187.86881,47.036953 186.9122,46.445738 186.40023,46.129321 185.19804,47.246741 184.24067,48.928894 183.2833,50.611047 182.1625,51.9902 181.75,51.993677 178.96092,52.01719 184.73932,42.534901 188.17943,41.443051 189.88347,40.902211 190.90638,41.396634 192.68688,43.621722 195.51449,47.155373 195.5749,48 193,48 190.79523,48 190.62935,49.016675 191.63592,56.360429 192.11566,59.860488 192.69961,61 194.01348,61 196.3523,61 198.37145,63.589633 197.60004,65.599889 197.10356,66.893696 196.6817,66.980726 195.53197,66.026534 192.90329,63.844925 192,65.971947 192,74.343409 192,82.395489 192.06229,82.605583 194.95673,84.315368 196.8241,85.41845 197.70576,86.603189 197.34974,87.530975 196.65329,89.345904 196.02773,89.335544 193.55887,87.468197 190.90048,85.45749 188.64732,85.62724 186.5,88 184.21727,90.522393 183,90.546075 183,88.068094 z"/>
</svg>
