<?xml version="1.0" encoding="UTF-8"?>
<svg xmlns="http://www.w3.org/2000/svg" viewBox="62.56 18.11 66.83 84.74">
  <path d="M 72.665312,93.581362 C 67.041194,88.41701 66.811073,88.008034 66.288862,82.248995 65.59331,74.578325 66.932898,73.601248 71.840267,78.199879 75.236136,81.382105 79.831707,84 82.02206,84 83.081268,84 87,75.855144 87,73.65364 87,72.852791 85.487688,71.305266 83.639306,70.214694 78.675793,67.286149 75.13928,62.027087 73.864308,55.678533 72.88093,50.781937 72.960674,49.708964 74.480339,47.389662 L 76.225972,44.72549 81.692866,50.862745 C 84.699657,54.238235 87.734708,57 88.437423,57 89.262638,57 89.937123,54.875674 90.342091,51.001148 90.866161,45.987117 90.609993,44.313342 88.78169,40.805666 86.259175,35.966116 86.060354,25.512047 88.445455,23.126329 89.609977,21.961506 90.227949,22.400838 92.510087,26.015979 93.990311,28.360806 95.643699,31.548071 96.184283,33.09879 98.395205,39.441046 102.55452,37.39672 107.11313,27.727205 108.35069,25.102167 109.844,23.119183 110.43161,23.320572 111.04592,23.531112 111.48345,26.409622 111.46106,30.093368 111.43147,34.961555 110.7711,37.843903 108.71106,42.096491 105.65518,48.404797 104.80204,59 107.34996,59 108.88479,59 115.80551,54.176847 117.87244,51.666724 119.89477,49.210772 120.5392,49.573731 121.99654,53.989519 123.93645,59.867491 121.37833,64.959065 113.80009,70.303382 107.6812,74.61854 107.39451,75.279578 109.05258,81.25 110.3687,85.989107 111.99551,86.031159 118.7239,81.5 121.58236,79.575 124.38885,78 124.96055,78 126.34345,78 126.28953,83.566836 124.88001,86.315741 122.06438,91.806884 112.26511,99 107.60008,99 106.96995,99 103.99891,97.382875 100.99777,95.406388 94.50856,91.132737 91.381908,91.233817 84.265836,95.947307 81.731037,97.626288 79.396761,98.986291 79.078555,98.969535 78.76035,98.952779 75.874391,96.528102 72.665312,93.581362 z M 79.8,91.8 C 82.097939,89.502061 81.002994,87.400053 76.25,84.984925 73.6375,83.657441 71.05,82.555272 70.5,82.535659 68.383702,82.460194 70.244742,86.646029 73.707526,89.75 77.759813,93.382389 78.102353,93.497647 79.8,91.8 z M 88.813358,64.172988 C 88.985706,62.427845 88.706815,61 88.193602,61 87.680388,61 85.428734,59.39436 83.189926,57.431912 77.360797,52.322333 76.6569,52.884279 79.11142,60.687931 80.090591,63.801009 85.482035,68.278893 87.5,67.655098 88.05,67.485081 88.641011,65.918132 88.813358,64.172988 z M 108.19419,91.464458 C 108.02599,89.834006 106.78849,83.893784 105.44419,78.263965 103.55905,70.369171 103,65.293528 103,56.072982 103,49.415279 103.43048,43.85198 103.97153,43.517597 104.78986,43.01184 109,34.518073 109,33.372882 109,31.892347 106.82432,33.645998 104.5,37 102.9754,39.2 100.97405,41 100.05256,41 97.772988,41 94.614039,37.896635 93.049962,34.120618 92.33903,32.404278 91.361953,31 90.87868,31 89.474425,31 89.861096,35.740461 91.595021,39.782119 92.684095,42.320673 93.143126,46.138509 93.042136,51.818019 92.878173,61.039083 89.741507,77.461154 87.674815,79.918726 86.383397,81.454395 84,88.563251 84,90.87944 84,91.666098 85.178999,91.530733 87.75,90.448888 93.371962,88.083239 96.277247,88.381489 101.11496,91.820904 106.5038,95.652147 108.61522,95.545835 108.19419,91.464458 z M 112.50538,66.995726 C 117.38342,63.119148 118.92893,61.027697 118.9682,58.25 118.98569,57.0125 118.82022,56 118.60049,56 118.38076,56 115.86054,57.575 113,59.5 110.13946,61.425 107.39424,63 106.89951,63 105.86348,63 105.66738,68.334044 106.66667,69.333333 107.77603,70.442692 108.56584,70.126481 112.50538,66.995726 z M 118.28274,89.077347 C 123.21713,84.474593 122.78928,83.018103 117.34691,85.891558 111.43832,89.011161 110.88376,89.533508 111.57312,91.32995 112.51832,93.793095 113.62581,93.421278 118.28274,89.077347 z"/>
</svg>
