<?xml version="1.0" encoding="UTF-8"?>
<svg xmlns="http://www.w3.org/2000/svg" viewBox="737.89 15.74 48.48 90.12">
  <path d="M 740.53125,79.0625 740.375,83.5 C 740.96834,82.754336 742.42886,83.164829 745.78125,84.84375 751.14281,87.528896 754.75975,88.203347 757.125,86.9375 760.04568,85.374401 763.71866,76.594204 764.4375,69.5 766.33542,50.769652 765.78063,22.095898 763.5,21.34375 762.85258,21.130233 762.49815,29.550622 762.46875,45.25 762.43047,65.686831 762.13008,70.460481 760.59375,75.6875 757.83649,85.06847 757.06396,85.444627 747.75,81.84375 L 740.53125,79.0625 z M 740.28125,85.6875 740.09375,90.78125 740.15625,91.53125 C 741.16487,90.859422 742.6671,91.410379 745.3125,93.40625 748.85733,96.080701 754.85449,98.832364 759.6875,100 767.01145,101.76944 771.94086,94.587515 776.875,75 781.36251,57.185545 784.1663,27.952436 781.90625,22.5 780.8036,19.839804 780.50316,21.538821 779.40625,37.5 778.72589,47.4 777.89529,57.075 777.53125,59 776.31868,65.411956 772.85785,79.473018 772,81.5 771.53447,82.6 770.88823,84.716337 770.5625,86.21875 769.80913,89.69356 764.47318,95.831968 761.5625,96.5625 759.23767,97.145996 752.83701,94.375127 747.5,90.46875 745.85,89.261046 743.4875,87.9537 742.25,87.5625 741.24504,87.244811 740.59383,86.51416 740.28125,85.6875 z M 771.375,21 C 770.3816,21 770.05213,21.598318 770.4375,22.8125 772.9224,30.641746 771.14961,60.300376 767.3125,75 765.94859,80.225 764.60429,85.7375 764.3125,87.25 763.57298,91.083219 765.53346,90.713133 766.96875,86.75 771.21904,75.014092 773.16619,64.052248 773.71875,48.46875 774.37713,29.900449 773.62444,21 771.375,21 z"/>
</svg>
