<?xml version="1.0" encoding="UTF-8"?>
<svg xmlns="http://www.w3.org/2000/svg" viewBox="602 21 39.28 43.97">
  <path d="M 604,36.233975 C 604,35.208908 621.71368,23 623.20093,23 623.64042,23 624.83071,23.830707 625.84601,24.846015 626.86132,25.861323 629.89882,28.194123 632.59601,30.030016 638.14211,33.805064 639.28385,35.116146 638.07658,36.323418 637.61451,36.785493 633.96226,34.827262 629.96047,31.971793 L 622.68449,26.780031 619.59225,28.426187 C 617.89151,29.331574 614.25515,31.631067 611.51144,33.536172 606.70717,36.872037 604,37.844341 604,36.233975 z M 615.63079,61.833158 C 615.42715,61.099921 614.7618,57.846356 614.15224,54.603014 612.9978,48.460585 610.54224,44.577947 608.34512,45.421059 606.28161,46.212901 605.89441,44.401748 607.77358,42.747647 610.47547,40.369365 619.70867,36 622.0325,36 625.9622,36 634,41.834556 634,44.687091 634,46.650105 632.49187,46.284762 629.21579,43.528121 624.6578,39.692827 621.9287,38.990154 618.0025,40.640996 616.12641,41.429834 614.4121,42.254571 614.19292,42.473745 613.97375,42.692919 614.73147,45.713488 615.87674,49.186121 618.42117,56.901169 618.95103,62.122835 617.25053,62.724346 616.56332,62.96743 615.83444,62.566395 615.63079,61.833158 z"/>
</svg>
