<?xml version="1.0" encoding="UTF-8"?>
<svg xmlns="http://www.w3.org/2000/svg" viewBox="726.09 8.84 64.13 95.39">
  <path d="M 729,29.42807 C 729,28.355778 734.32628,19.506778 736.31152,17.28082 739.81892,13.348143 739.93974,15.857771 736.51668,21.542322 734.68782,24.579433 732.6433,27.724865 731.9733,28.532171 730.76273,29.990822 729,30.521958 729,29.42807 z M 741.17304,94.708499 C 738.75393,91.793647 735.01924,82.266803 735.01503,79 735.01015,75.207748 736.20922,72.996306 742.80683,64.629606 746.3075,60.190254 747.31696,57.941038 748.19979,52.613309 749.37431,45.525351 750.84337,44.414466 750.42861,50.927905 749.96276,58.243888 748.874,60.984612 744.33581,66.26539 735.93307,76.043059 735.61165,78.330461 741.10187,89.279909 742.69584,92.458858 744,95.271358 744,95.529909 744,96.481041 742.21325,95.961878 741.17304,94.708499 z M 775.96842,97.461948 C 774.51284,95.708077 774.34279,92.198587 775.4331,86.413692 776.19206,82.386841 776.09791,82.208602 768.96258,74.163692 764.9802,69.673661 761.18343,66 760.52532,66 759.8672,66 756.55477,68.664247 753.16437,71.920549 746.46156,78.358238 746.2023,79.182026 748.09766,88.019783 749.09563,92.673131 748.82797,95.161304 747.47498,93.808314 746.43735,92.770684 744.79758,80.942645 745.37333,78.64866 746.18144,75.428889 758.00814,64.013278 760.54336,64.005926 761.82859,64.002199 765.53882,67.183705 770.54336,72.580885 774.91951,77.300372 778.64796,81.310832 778.8288,81.493017 779.00964,81.675202 778.37484,84.307452 777.41814,87.34246 775.7978,92.482777 775.79164,93.033055 777.32822,95.378181 779.13764,98.139706 777.9902,99.898047 775.96842,97.461948 z M 750,28.171445 C 750,26.903119 755.69973,18.581711 757.9851,16.513482 761.66964,13.179022 761.16365,15.670632 756.80027,22.347854 753.03118,28.115642 750,30.711474 750,28.171445 z M 780.2194,97.25 C 782.72958,92.373535 784.22145,87.925813 784.69876,83.895664 785.36958,78.231666 783.49058,74.702274 775.64431,66.888365 773.0974,64.351965 770.38544,60.751965 769.61773,58.888365 767.67981,54.184106 766.75137,45.815629 767.96594,44 769.12527,42.266958 769.07806,42.154778 769.59094,47.861434 770.31522,55.920202 771.88757,59.540314 777.06502,65.069426 785.31923,73.884284 787.29918,77.534617 786.77651,82.974082 786.30043,87.928767 782.25335,98 780.73841,98 780.24062,98 780.00706,97.6625 780.2194,97.25 z M 769.01509,29.75 C 769.03572,28.040938 778.74331,15 779.99489,15 781.48634,15 781.21272,16.578565 779.47068,18.024337 778.62955,18.722412 776.31559,21.927512 774.32854,25.146782 770.85544,30.773644 768.98315,32.395673 769.01509,29.75 z"/>
</svg>
