<?xml version="1.0" encoding="UTF-8"?>
<svg xmlns="http://www.w3.org/2000/svg" viewBox="329.34 19.74 32.51 81.5">
  <path d="M 331.375,81.0625 331.34375,81.34375 331.5,84.75 C 331.76621,84.499266 332.13111,84.468018 332.75,84.6875 333.7125,85.028838 335.23942,85.930468 336.125,86.6875 338.27966,88.529401 342.32692,86.961262 344.65625,83.40625 346.76342,80.190304 347.76147,64.542554 347,46.90625 346.55756,36.658952 346.21219,34.928515 344,31.6875 340.42003,26.442596 339.28981,27.147222 342.5,32.625 345.18623,37.208706 345.2038,37.35172 345.0625,55.375 344.87271,79.584049 343.99111,85.038713 340.21875,84.96875 339.2756,84.951258 337.63012,84.276258 336.5625,83.46875 335.49488,82.661241 333.81371,82 332.84375,82 332.23201,82 331.76816,81.699196 331.375,81.0625 z M 331.78125,91.3125 331.9375,94.625 C 332.04797,94.606153 332.13303,94.617143 332.25,94.59375 333.84655,94.274441 337.11494,94.458493 339.53125,95 350.84264,97.534935 354.61159,88.430066 355.0625,57.5 355.19653,48.305879 356.70197,35.710415 358.53125,28.59375 359.85505,23.443609 357.18772,26.65838 355.46875,32.28125 354.39802,35.783653 353.55002,44.685452 352.90625,59.46875 351.51248,91.47488 350.62918,93.628207 339.1875,92.4375 335.52963,92.056835 332.21599,91.553477 331.78125,91.3125 z"/>
</svg>
