<?xml version="1.0" encoding="UTF-8"?>
<svg xmlns="http://www.w3.org/2000/svg" viewBox="308.37 24.45 25.56 77.04">
  <path d="M 331.375 81.0625 C 330.30687 79.332712 329.90478 74.578616 329.46875 62.5 C 328.88028 46.198561 328.95452 35.149433 329.65625 32.3125 C 329.95462 31.10626 329.80032 29.53126 329.34375 28.8125 C 328.7971 27.951953 328.34075 28.907179 327.96875 31.625 C 327.25376 36.848626 327.62324 72.135151 328.5 81.75 C 328.91127 86.260119 328.7961 89 328.1875 89 C 327.64942 89 326.94159 88.325 326.625 87.5 C 325.67397 85.021644 322.59921 85.795242 318.125 89.625 C 315.79971 91.615369 313.65778 93.001533 313.375 92.71875 C 313.09221 92.435966 312.8678 88.213835 312.875 83.34375 C 312.91366 57.196663 312.8648 51.277918 312.53125 49 C 312.3299 47.625 312.13959 43.2375 312.09375 39.25 C 312.04792 35.2625 311.6625 32.000015 311.25 32 C 310.69338 31.999979 310.37336 91.74843 310.90625 96.25 C 311.11158 97.984538 313.48907 96.746582 317.125 93 C 319.26003 90.8 321.70138 89 322.5625 89 C 323.42362 89 325.28789 90.393273 326.71875 92.09375 C 328.7568 94.515835 329.78973 94.991422 331.9375 94.625 L 331.78125 91.3125 C 331.77946 91.311506 331.75169 91.313485 331.75 91.3125 C 331.3375 91.072734 331 89.344029 331 87.46875 C 331 85.857566 331.1443 85.085027 331.5 84.75 L 331.34375 81.34375 L 331.375 81.0625 z "/>
</svg>
