<?xml version="1.0" encoding="UTF-8"?>
<svg xmlns="http://www.w3.org/2000/svg" viewBox="528 8.25 31.73 95.53">
  <path d="M 530,23.695781 C 530,21.827771 535.75928,13 536.97798,13 538.60216,13 538.19522,14.64499 535.25,19.98507 532.65281,24.694117 530,26.56913 530,23.695781 z M 547.5,95.951269 C 542.56647,92.393178 541.3163,92.328172 538.82134,95.5 536.00037,99.086279 533.35338,98.763756 532.66599,94.75 531.23968,86.421569 532.28924,32.955905 533.84844,34.515102 534.17062,34.837282 534.51436,47.565685 534.61232,62.800442 534.71027,78.035199 534.83757,91.2875 534.89521,92.25 535.03641,94.608111 537.22747,94.46667 538.76793,92 539.45489,90.9 540.9562,90 542.10418,90 544.41428,90 550,92.982235 550,94.215608 550,94.647023 550.64743,95 551.43873,95 554.40528,95 554.58212,84.646679 552.3312,42.75 551.90763,34.866217 552.04266,31 552.74155,31 554.54641,31 554.85378,34.747391 555.57458,65.539689 556.22011,93.116174 556.13752,95.719621 554.56745,97.289689 552.41262,99.444519 552.31905,99.426798 547.5,95.951269 z M 550,21.647883 C 550,19.853476 554.16658,13.763661 555.75,13.243759 557.72617,12.594902 557.21972,14.710867 554.36711,19.02144 551.6879,23.070006 550,24.085132 550,21.647883 z"/>
</svg>
