<?xml version="1.0" encoding="UTF-8"?>
<svg xmlns="http://www.w3.org/2000/svg" viewBox="373.34 23.15 41.66 80.57">
  <path d="M 375.34375 42.21875 L 379.1875 43.5 L 381.40625 39.78125 C 384.37061 34.758386 390.32982 29.734928 392.78125 30.1875 C 393.7267 30.362046 395.81585 33.09962 397.40625 36.28125 L 400.28125 42.0625 L 398.15625 44.34375 C 395.4529 47.221332 395.38498 48.390109 398.03125 46.75 C 400.59988 45.158014 401.50796 46.424266 402.375 52.75 C 402.91851 56.715354 402.69213 57.562153 400.5 59.59375 C 399.12529 60.867794 398 62.452866 398 63.125 C 398 63.797135 399.15853 63.25646 400.5625 61.9375 C 402.71495 59.915379 403.24536 59.788524 404.03125 61.03125 C 405.68689 63.649304 405.1339 70.037179 403 72.75 C 400.84953 75.483875 401.04458 77.038457 403.3125 75.15625 C 405.24638 73.551278 406 74.734003 406 79.375 C 406 82.384471 405.31982 84.092308 403.3125 86.1875 C 401.24549 88.344996 400.99763 89 402.25 89 C 403.14544 89 404.15454 88.527722 404.5 87.96875 C 404.84546 87.409779 405.58081 87.257419 406.125 87.59375 C 407.73172 88.586757 405.94458 94.30804 403.25 96.8125 C 401.88579 98.080462 401.04216 99.385917 401.375 99.71875 C 401.70783 100.05158 402.8363 99.565006 403.875 98.625 C 405.16843 97.454454 406.58223 97.112545 408.375 97.5625 C 411.33031 98.304236 411.71706 97.44982 409.5 95 C 407.39823 92.677564 408.54878 87 411.125 87 C 412.15625 87 413 86.325 413 85.5 C 413 84.675 412.35504 84 411.5625 84 C 409.65182 84 409.32634 83.333923 408.5 77.8125 C 407.83869 73.393826 407.92162 73.168506 409.90625 73.6875 C 412.52954 74.373505 412.69169 72.436152 410.125 71.0625 C 407.5178 69.667172 406.66742 62.974888 408.875 61.1875 C 410.3486 59.994384 410.25691 59.662525 407.84375 57.6875 C 405.94246 56.131406 404.95916 54.152659 404.46875 50.8125 C 403.80885 46.317998 403.88408 46.157252 406.03125 46.71875 C 409.11483 47.525124 408.19331 44.899541 404.8125 43.25 C 403.19557 42.461084 401.34673 39.915377 399.75 36.25 C 398.36989 33.081888 396.31138 29.659989 395.15625 28.625 C 393.13991 26.818362 392.94602 26.808758 390.28125 28.5 C 388.75466 29.468881 384.86252 33.121392 381.65625 36.625 C 379.11593 39.400897 376.80542 41.35149 375.34375 42.21875 z "/>
</svg>
