<?xml version="1.0" encoding="UTF-8"?>
<svg xmlns="http://www.w3.org/2000/svg" viewBox="518.14 14.6 33.83 89.07">
  <path d="M 521.60699,96.418213 C 520.14281,92.602636 521.11799,88.346006 524.62178,83.258659 L 528.24355,78 524.5786,72.678655 C 520.57375,66.863782 520.62994,65.137185 525.02491,58.965023 527.36656,55.676467 527.45472,53.845774 525.52884,48.5 523.31355,42.350924 523.55496,29.24215 525.956,25.304334 528.51596,21.105874 532.3313,18.652989 534.98953,19.496676 537.75876,20.375596 541.60018,26.367475 543.15141,32.227634 544.20606,36.21185 544.1386,38.325985 542.72242,45.672094 541.33032,52.893267 541.26709,54.655823 542.35391,55.94446 543.07546,56.800007 545.08419,60.068584 546.81774,63.207964 L 549.96965,68.915929 546.90293,73.849253 C 544.0234,78.481449 543.92457,78.957072 545.28391,81.641289 547.91579,86.838327 549.36883,94.850661 547.98239,96.521222 546.28734,98.563634 544.25276,98.371728 543.53221,96.101471 542.56132,93.04248 537.09853,85.995185 535.74373,86.053914 535.05968,86.083566 532.59192,88.783566 530.25983,92.053914 525.99077,98.040514 522.83945,99.629965 521.60699,96.418213 z M 526.4365,93.25 C 527.19339,90.931397 534.8296,83.004228 536.32519,82.984517 536.97134,82.976002 539.17407,84.888502 541.22016,87.234517 544.4606,90.949959 544.94416,91.214435 544.97016,89.285483 544.98657,88.067499 543.88614,85.075853 542.52476,82.637382 540.33579,78.716566 540.22553,78.057715 541.57144,76.940713 542.40849,76.246016 543.98886,74.42002 545.08335,72.882943 L 547.07334,70.088258 544.11827,64.234297 C 542.49298,61.014618 540.45148,57.78966 539.5816,57.067723 537.74069,55.539899 537.52382,51.758271 539.10742,48.799276 539.71651,47.661193 540.44017,43.678577 540.71556,39.949018 541.1618,33.905605 540.91528,32.614991 538.4492,28.084001 536.36007,24.245578 535.11812,23 533.38003,23 530.72158,23 527.18695,26.406968 526.33858,29.78711 525.562,32.88128 526.72455,42.709455 528.62354,49.104057 530.29735,54.740371 529.92095,57.936195 527.27123,60.585917 524.73036,63.126785 525.00039,69.420065 527.76062,71.991612 531.35119,75.336737 531.6655,78.695464 528.6799,81.815079 525.50721,85.130186 523.09861,90.661082 523.74733,93.141796 524.35966,95.483339 525.68997,95.536866 526.4365,93.25 z"/>
</svg>
