<?xml version="1.0" encoding="UTF-8"?>
<svg xmlns="http://www.w3.org/2000/svg" viewBox="906.02 11.72 73.31 94.09">
  <path d="M 976,69.25 976,63.5625 C 968.75954,75.457843 960.30305,89.329638 958.25,92.46875 956.45965,95.206208 955,98.018708 955,98.71875 955,101.5341 957.67148,99.727499 960.125,95.25 964.446,87.364517 972.21821,74.628933 974,72.5 974.54444,71.849493 975.28419,70.464117 976,69.25 z M 976,31.96875 976,27.3125 C 974.85038,29.335204 973,32.344354 973,32.6875 973,33.341564 968.14002,40.887079 967,42 965.68311,43.285596 961,51.06184 961,51.96875 961,52.530542 961.9,53 963,53 964.1564,53 965,52.320115 965,51.40625 965,50.536957 966.52637,47.499457 968.40625,44.65625 970.19197,41.955468 973.23328,36.776518 976,31.96875 z M 943.28125,16 C 942.53253,16 941.15567,17.37132 940.21875,19.0625 936.60572,25.584179 936.88568,25.496651 931.21875,22.625 928.38626,21.189673 925.59954,20 925.03125,20 923.00806,20 924.03719,24.713862 927.0625,29.28125 L 930.15625,33.9375 927,37.875 C 924.98359,40.384162 923.94333,42.651929 924.15625,44.15625 924.45678,46.279676 925.08709,46.539919 930.34375,46.8125 L 936.15625,47.09375 935.46875,51.3125 C 934.4695,57.463004 933.72178,57.785525 927.46875,54.71875 920.79334,51.444827 918.03876,51.329595 915.875,54.3125 911.24349,60.69741 909.35412,76.918603 912.53125,83.0625 915.50412,88.811399 918,85.506346 918,75.84375 918,70.624757 920.30352,65.34591 922.96875,64.5 925.47662,63.704032 926.55185,64.851216 930.625,72.84375 933.26631,78.026662 933.2957,78.277969 931.625,80.84375 928.87225,85.071303 926.89026,89.994094 927.53125,91.03125 928.61639,92.78703 929.73472,92.013866 930.3125,89.125 930.62714,87.551793 932.03339,84.918688 933.4375,83.25 936.51629,79.591058 936.528,79.432022 933.9375,73.34375 931.15387,66.801575 927.06887,61 925.21875,61 922.12001,61 917.09091,65.935155 916.53125,69.53125 916.23329,71.445769 915.74029,74.590965 915.4375,76.53125 914.62353,81.747207 913,79.698002 913,73.46875 913,67.904182 916.05589,58.018442 918.375,56.09375 919.33913,55.293597 921.28467,55.660181 925.8125,57.5 933.21011,60.505918 933.08057,60.513925 935.8125,57.96875 937.77912,56.136567 938,54.923638 938,46.03125 938,31.779403 940.08393,27.94426 944.96875,33.1875 947.15139,35.530287 947.69643,40.456107 945.90625,41.5625 945.1234,42.046323 945.1234,42.529657 945.90625,43.3125 946.50417,43.910422 947.02384,46.435 947.0625,48.9375 947.11596,52.398588 947.34625,53.021357 948,51.5 948.47269,50.4 948.89885,48.035915 948.9375,46.25 948.98546,44.034646 950.07238,41.810411 952.375,39.25 956.29045,34.896194 960,28.307242 960,25.71875 960,22.912966 957.35779,22.593225 953.4375,24.90625 949.75237,27.080534 948,26.936742 948,24.46875 948,21.961036 944.68136,16 943.28125,16 z M 943.34375,19.9375 C 944.17312,20.211431 944.91265,21.952517 945.8125,25.25 946.90258,29.244605 946.28681,30.423685 943.9375,28.9375 941.24912,27.236815 938.36592,27.913664 937.1875,30.5 935.70098,33.762556 933.04447,33.574977 930.25,30.03125 925.40979,23.89329 926.31159,22.587828 933,26 935.15618,27.1 937.15113,28 937.4375,28 937.72386,28 939.00049,25.926362 940.28125,23.40625 941.58687,20.837209 942.51438,19.663569 943.34375,19.9375 z M 956.125,26.0625 C 957.70127,26.21317 957.235,29.286099 953.90625,33.8125 952.20867,36.120852 950.46955,38 950.03125,38 949.59294,38 948.9852,36.7625 948.6875,35.25 948.26516,33.10431 948.84619,31.785815 951.28125,29.25 953.50853,26.930563 955.17924,25.972098 956.125,26.0625 z M 933,37 C 934.60704,37 935,37.679906 935,40.40625 935,42.577742 934.41858,44.017784 933.40625,44.40625 929.97761,45.721943 927,45.059847 927,43 927,40.424436 930.42444,37 933,37 z M 943.78125,83.625 C 942.3484,83.767388 941.06922,84.680772 938.78125,86.96875 936.6996,89.050399 935,91.260294 935,91.875 935,93.994343 936.90864,92.998821 939.625,89.4375 941.5601,86.90045 942.8897,86.031613 944.1875,86.4375 950.54411,88.42554 950.30983,88.436728 949.15625,86.28125 948.5605,85.168084 946.82252,84.007408 945.3125,83.71875 944.75927,83.612993 944.25887,83.577537 943.78125,83.625 z"/>
</svg>
