<?xml version="1.0" encoding="UTF-8"?>
<svg xmlns="http://www.w3.org/2000/svg" viewBox="566.27 15.5 25.73 88.22">
  <path d="M 573.11977,97.223789 C 571.72793,94.623118 570.16009,85.024902 569.06786,72.418265 568.26588,63.161641 568.41943,59.208951 570.00021,48.418265 571.81096,36.057727 575.03908,23.910448 577.22013,21.25 578.64656,19.510047 581.72611,19.68817 582.78013,21.571594 583.31027,22.518913 583.146,25.796013 582.36657,29.821594 581.65539,33.494717 581.05697,42.638915 581.03676,50.142034 581.00456,62.090496 581.36661,65.196029 583.9531,75.157674 585.57731,81.413158 587.60231,88.197289 588.4531,90.233522 589.3039,92.269754 590,94.625216 590,95.467881 590,97.524121 586.08331,97.447079 583.06279,95.331425 580.76973,93.725306 580.60092,93.762736 578.55272,96.331425 576.07377,99.440326 574.44886,99.707218 573.11977,97.223789 z M 580.57565,91 C 580.84775,91 582.19358,91.735956 583.56639,92.635458 584.93921,93.53496 586.26184,94.071492 586.50558,93.827751 586.74932,93.58401 585.15994,87.560554 582.97362,80.442293 579.56466,69.343334 578.91441,65.719661 578.40816,55 577.986,46.060898 578.24771,39.936154 579.32688,33.5 581.03331,23.322841 580.10427,20.566457 577.17563,27.117436 574.31161,33.523894 574.10418,34.319556 572.48144,45.123572 570.59883,57.657758 570.59883,70.342242 572.48144,82.876428 574.52032,96.451047 574.69423,96.809318 577.68122,93.587987 579.00107,92.164594 580.30356,91 580.57565,91 z"/>
</svg>
