<?xml version="1.0" encoding="UTF-8"?>
<svg xmlns="http://www.w3.org/2000/svg" viewBox="805.38 11.87 33.63 61.16">
  <path d="M 812.8125 70.25 C 816.13703 66.999039 822.56081 57.174718 826.09375 49.625 C 829.60296 42.125982 830.20166 41.508971 832.8125 42.90625 C 836.00241 44.613441 837.00168 42.301803 837 33.0625 C 836.9975 19.336162 833.44267 14.650176 825.9375 18.53125 C 822.04342 20.544959 811 31.701008 811 33.625 C 811 34.385385 812.8 35.744734 815 36.625 C 819.41551 38.391737 819.9054 39.946299 817.65625 45.28125 C 816.17705 48.789884 810.08354 56.655983 807.375 58.84375 L 808.46875 61.15625 C 813.34404 57.784471 820.98478 44.685625 821 39.1875 C 821.00768 36.414053 820.51977 35.722148 818 34.84375 C 816.35 34.268557 815 33.334196 815 32.75 C 815 32.165804 817.63175 29.05575 820.84375 25.84375 C 828.6591 18.028405 831.3025 17.892933 833.46875 25.1875 C 836.2172 34.442553 835.16049 41.24688 831.3125 39.1875 C 828.78867 37.836784 827.32863 38.8181 826.4375 42.5 C 825.59664 45.974183 820.00591 56.662255 816 62.46875 C 814.38215 64.813788 812.99207 66.562348 811.65625 67.8125 L 812.8125 70.25 z "/>
</svg>
