<?xml version="1.0" encoding="UTF-8"?>
<svg xmlns="http://www.w3.org/2000/svg" viewBox="449.75 12.45 27.09 90.67">
  <path d="M 455.66861,97.186316 C 451.75526,92.862109 451.75181,86.945018 455.65731,77.832788 457.09177,74.485957 457.08803,73.882831 455.61454,70.92915 453.30072,66.290993 453.62023,59.172004 456.50059,51.186986 458.90173,44.530448 458.93855,44.080703 457.42641,39.877389 455.5037,34.532814 456.1523,28.10768 459.0952,23.345957 461.1888,19.958445 466.21081,16.570271 468.17018,17.223392 468.76512,17.421705 469.2675,21.378336 469.35239,26.534128 469.48082,34.334811 469.84708,36.072388 472.1707,39.904395 L 474.84141,44.308789 471.2332,51.388868 C 468.22627,57.289128 467.625,59.512958 467.625,64.734047 467.625,70.170863 467.9803,71.370004 470.3125,73.804292 473.21394,76.83274 473.78731,79 471.68709,79 469.48978,79 465.40585,73.748111 464.14144,69.296371 463.1039,65.643394 463.22407,64.267955 465.05883,58.796371 466.22006,55.333367 468.03187,51.096885 469.08508,49.381966 471.52286,45.412566 471.49014,44.58197 468.75,40.875727 466.81245,38.255046 466.5,36.594288 466.5,28.91622 466.5,24.012299 466.11804,20 465.65121,20 465.18438,20 463.49688,21.39759 461.90121,23.105755 459.46019,25.71888 459.00665,27.027484 459.04192,31.355755 459.06599,34.310616 459.84754,37.933137 460.87828,39.867344 462.64282,43.178582 462.63088,43.336869 460.16155,49.367344 458.7804,52.740305 457.44723,58.125127 457.19895,61.333615 456.82209,66.203664 457.108,67.654807 458.92994,70.119112 L 461.11236,73.070994 458.57204,78.285497 C 454.98055,85.65771 454.40239,89.438983 456.40039,92.488319 458.39674,95.53514 460,95.73426 460,92.935381 460,89.934446 463.94485,81.23514 465.59237,80.602929 467.22275,79.977292 470,80.852532 470,81.991979 470,82.41988 468.9141,83.481487 467.5869,84.351106 465.15734,85.943015 463.71404,89.954023 463.57514,95.5 463.5102,98.092739 463.0858,98.540526 460.4489,98.798524 458.42973,98.996083 456.81297,98.450811 455.66861,97.186316 z"/>
</svg>
