<?xml version="1.0" encoding="UTF-8"?>
<svg xmlns="http://www.w3.org/2000/svg" viewBox="3429.29 15.61 42.24 91">
  <path d="M 3432.25,79.40625 3431.5,86.96875 C 3432.2917,84.474185 3433.4046,84.50488 3436.9062,87.09375 3438.6159,88.3578 3440.8252,89.044534 3442.5312,88.84375 3444.9729,88.556392 3445.619,87.704366 3447.5312,82.375 3449.9565,75.61596 3450.7962,67.125677 3451.5625,41.625 3452.0706,24.716385 3451.7598,21 3449.8438,21 3449.2171,21 3448.97,23.052918 3449.2188,26.25 3449.4435,29.1375 3449.0795,41.193716 3448.4062,53.03125 3446.4358,87.67723 3445.6351,89.665952 3436.6875,82.75 3434.4453,81.016933 3432.5503,79.601186 3432.25,79.40625 z M 3458.0938,22.5625 C 3457.6025,23.085 3456.9594,33.625 3456.6562,46 3456.1757,65.627243 3455.8134,69.649103 3453.6875,77.5 3452.3472,82.45 3450.8991,87.2875 3450.5,88.25 3450.0833,89.25496 3450.2198,90 3450.8125,90 3452.6377,90 3458.008,71.310101 3458.5625,63 3459.5019,48.922573 3459.1748,21.412842 3458.0938,22.5625 z M 3431.5,86.96875 3431.3438,88.40625 3431.375,88.84375 C 3431.3094,88.243776 3431.289,87.633487 3431.5,86.96875 z M 3431.375,89.28125 3431.8125,97.375 3432.0312,97.8125 C 3432.7678,96.659153 3434.0767,97.135351 3439.1562,99.5 3445.4157,102.41391 3446.1814,102.47361 3449.9375,100.53125 3453.9449,98.45896 3457.538,93.856187 3459.5,88.28125 3460.4271,85.64703 3461.7671,82.089216 3462.5,80.375 3464.7879,75.023374 3469.2398,48.906304 3469.375,40 3469.5279,29.919115 3468.2315,19.743499 3466.9062,20.5625 3466.3878,20.882931 3466.2188,21.556994 3466.5312,22.0625 3467.9492,24.356916 3467.0048,48.923857 3465.125,58.5 3464.0453,64 3462.8543,70.5149 3462.4688,72.96875 3462.0833,75.4226 3461.402,78.1226 3460.9688,78.96875 3460.5356,79.8149 3459.4231,82.658714 3458.5,85.28125 3457.5769,87.903787 3456.0659,90.777817 3455.1562,91.6875 3454.2465,92.597183 3453.0534,94.244402 3452.5,95.34375 3451.9465,96.443097 3450.1925,97.781989 3448.5938,98.3125 3446.1383,99.127275 3444.6842,98.734841 3439.25,95.875 3434.1751,93.204275 3431.8502,91.352247 3431.375,89.28125 z"/>
</svg>
