<?xml version="1.0" encoding="UTF-8"?>
<svg xmlns="http://www.w3.org/2000/svg" viewBox="3405.49 13.85 39.51 91.3">
  <path d="M 3432.25 79.40625 C 3432.2416 79.400768 3432.1307 79.315859 3432.125 79.3125 C 3431.7002 79.062632 3431.6811 72.588402 3432.0938 50.25 L 3432.375 35 L 3435.0625 35 C 3436.532 35 3438.9273 34.038349 3440.4062 32.875 C 3442.6681 31.095866 3443.0007 30.261778 3442.4375 27.625 C 3442.0692 25.900849 3441.3038 23.9375 3440.75 23.25 C 3439.3757 21.544035 3435.7893 21.686545 3433.4375 23.53125 C 3431.6258 24.952361 3431.7366 25.014061 3435.1562 24.4375 C 3438.2293 23.919368 3439.0113 24.148498 3439.9688 25.9375 C 3441.5517 28.895235 3440.3619 31.883024 3437.2812 32.65625 C 3433.9505 33.492205 3431.5742 31.961068 3431.1875 28.75 C 3430.9686 26.932401 3430.3993 26.349279 3429.1875 26.65625 C 3428.025 26.950744 3426.6065 25.645102 3424.6562 22.53125 C 3423.0933 20.03569 3421.1992 18 3420.4375 18 C 3419.6758 18 3417.1616 20.3625 3414.875 23.25 C 3407.486 32.580955 3407.6452 32.181124 3408.9688 39.75 C 3410.0442 45.899881 3410.8899 67.83782 3410.9688 91.75 C 3410.9855 96.8375 3411.379 101 3411.8438 101 C 3413.2148 101 3414.0717 75.000112 3413.0625 63.8125 C 3412.5506 58.138371 3411.8535 48.366404 3411.5312 42.09375 L 3410.9375 30.6875 L 3415.7188 26.25 L 3420.4688 21.8125 L 3423.25 25.125 C 3424.7681 26.943443 3426 29.022373 3426 29.75 C 3426 30.477627 3426.7694 32.269847 3427.7188 33.71875 C 3429.6219 36.623277 3429.8625 44.364693 3429.0938 80.28125 C 3428.828 92.689371 3429.0513 99.457558 3429.75 100.15625 C 3430.4943 100.9005 3430.9997 100.5712 3431.4688 99.09375 C 3431.6516 98.517513 3431.8266 98.13299 3432.0312 97.8125 L 3431.8125 97.375 L 3431.375 89.28125 C 3431.3434 89.143405 3431.3903 88.98358 3431.375 88.84375 L 3431.3438 88.40625 L 3431.5 86.96875 L 3432.25 79.40625 z M 3420.75 34.5 L 3420.0625 37 C 3419.6907 38.375 3419.2508 52.949958 3419.0938 69.375 C 3418.8684 92.950127 3419.0739 99.142013 3420.0625 98.8125 C 3421.2476 98.417451 3422.1837 83.964448 3422.2188 65.5 C 3422.225 62.2 3422.2356 56.125 3422.25 52 C 3422.2894 40.791041 3422.2641 40.212196 3421.4688 37.25 L 3420.75 34.5 z "/>
</svg>
