<?xml version="1.0" encoding="UTF-8"?>
<svg xmlns="http://www.w3.org/2000/svg" viewBox="948.93 14.81 114.82 90.73">
  <path d="M 1058.5312,34.21875 C 1058.3092,34.034941 1057.9185,33.885956 1057.75,33.71875 1056.309,32.288781 1055.541,32.185429 1053.8438,33.09375 1050.4252,34.923318 1049.0438,31.633633 1051.0312,26.40625 1051.6594,24.753921 1051.7112,23.30496 1051.1562,22.75 1050.6013,22.19504 1049.5991,23.703795 1048.625,26.5625 1046.5659,32.605681 1048.019,36.530517 1052.2812,36.46875 1054.2093,36.44081 1055,36.929164 1055,38.15625 1055,39.363751 1053.5857,40.29426 1050.3125,41.21875 1045.6381,42.538986 1045.5942,42.586638 1038.9688,55 1030.8994,70.118603 1026.3841,73.68839 1020.4688,69.65625 1017.5669,67.678165 1013.9238,66.98492 1011.9688,68.03125 1009.547,69.327313 1007,76.235004 1007,81.53125 1007,87.857376 1009.528,90.243492 1015.25,89.34375 1017.5819,88.977076 1020.4414,88.09019 1021.5938,87.34375 1023.4692,86.129006 1024.0935,86.299304 1027.5312,89.03125 1030.6463,91.506803 1031.9524,91.938456 1034.4375,91.40625 1040.2942,90.151944 1040.8849,88 1035.375,88 1032.7806,88 1030.7953,87.15247 1028.3438,85 L 1024.9375,82 1021,84 C 1018.8421,85.100895 1015.7319,86 1014.0938,86 1011.3415,86 1011.0766,85.679178 1010.4688,81.625 1009.3284,74.020507 1014.2273,69.590418 1019.4375,73.53125 1020.5052,74.338759 1022.8693,75 1024.6875,75 1029.7817,75 1034.6234,69.842396 1041.4688,57.09375 1047.0477,46.703629 1047.7624,45.826489 1052.2188,43.8125 1054.8411,42.627307 1057.2437,40.848432 1057.5625,39.84375 1057.711,39.375829 1057.9068,39.242667 1058.0938,39.03125 L 1058.5312,34.21875 z M 1045.1875,19.0625 C 1044.6173,19.191204 1043.7564,20.137477 1043.0625,21.8125 1041.2364,26.221107 1041.0905,33.23912 1042.7812,35.21875 1044.9178,37.72022 1046.0444,36.439986 1044.8125,32.90625 1043.8158,30.047088 1044.0407,26.473325 1045.5625,21.25 1046.036,19.624702 1045.7577,18.933796 1045.1875,19.0625 z M 1039.5,19.53125 C 1038.8715,19.756843 1038.0429,21.04636 1037.0312,23.40625 1034.5018,29.307189 1034.5019,30.589076 1037,35.25 1038.1,37.302361 1039,39.432596 1039,39.96875 1039,41.408304 1030.179,56.136738 1027.75,58.75 1024.9721,61.738504 1023.4493,61.597152 1019.2812,57.9375 1016.2011,55.233057 1015.2866,54.939036 1011.7812,55.53125 L 1007.8125,56.21875 1008.5312,49.46875 C 1009.1514,43.677093 1009.7199,42.31543 1012.5,39.625 1017.4655,34.819638 1019.4249,27.306097 1016.6875,23.5625 1015.4364,21.851499 1015.1365,21.92902 1011.7812,24.875 1009.8254,26.592235 1007.7325,28 1007.125,28 1006.5175,28 1005.3669,26.425 1004.5625,24.5 1003.7582,22.575 1002.414,21 1001.5625,21 998.69009,21 992.20964,27.915912 990.5625,32.75 989.03569,37.230962 989.07713,37.576475 991.25,41.9375 992.78999,45.02833 994.29525,46.652391 996,47.03125 998.81508,47.656865 999.56619,50.202002 998.53125,55.71875 997.96762,58.723111 997.58072,59.120722 995.6875,58.53125 989.96791,56.750403 988.73558,56.831593 984.0625,59.375 981.40725,60.820172 978.73069,62 978.125,62 976.19161,62 973.76627,54.703628 973.625,48.4375 973.50988,43.331055 973.94659,41.706643 976.3125,38.125 980.10289,32.386907 979.21347,30.681637 975.125,35.84375 972.64856,38.970506 971.70764,41.306166 971.28125,45.4375 970.68252,51.238646 972.18681,59.035285 974.59375,62.75 975.39559,63.9875 976.68231,65 977.46875,65 979.38908,65 984.1079,62.947116 986.21875,61.1875 987.86477,59.81537 989.40493,59.88212 996.21875,61.5625 998.56988,62.14232 999.11895,61.836935 1000.0312,59.4375 1000.6142,57.904164 1000.9416,53.678863 1000.7812,50.0625 1000.4933,43.572922 1000.4541,43.503626 997.78125,43.78125 995.64522,44.003114 994.74738,43.445494 993.53125,41.09375 991.51724,37.199082 991.59193,35.720197 994,31 997.39513,24.344995 1001.5637,23.899361 1003.5,30 1004.3813,32.776741 1008.1383,32.544087 1010.9688,29.53125 1012.2446,28.173202 1013.6843,27.301994 1014.1562,27.59375 1015.8002,28.609721 1013.7398,33.526919 1010,37.5 1006.3713,41.355125 1006.1847,41.838184 1005.5312,50.65625 1005.1045,56.415801 1005.2464,60.017771 1005.875,60.40625 1006.4242,60.745668 1008.4347,60.26899 1010.375,59.34375 L 1013.9062,57.65625 1018.5312,61.28125 C 1023.0946,64.836562 1024.7302,65.055764 1027.9062,62.59375 1029.8908,61.055418 1040.9222,43.95501 1041.5938,41.375 1041.899,40.202434 1041.237,37.197259 1040.0938,34.6875 1037.6188,29.254642 1037.5121,27.465815 1039.5312,23.59375 1040.5407,21.658077 1040.7214,20.315101 1040.0625,19.65625 1039.8978,19.491537 1039.7095,19.456052 1039.5,19.53125 z M 964.15625,22.1875 C 963.87871,22.097837 963.56156,22.151191 963.25,22.34375 961.66734,23.321885 964.21913,29.169917 966.65625,30.15625 968.31704,30.828391 972.93427,30.409472 973.84375,29.5 974.75015,28.593593 972.62298,27 970.5,27 968.13567,27 965.53553,25.106586 964.78125,22.84375 964.67172,22.51515 964.43379,22.277163 964.15625,22.1875 z M 955.4375,22.96875 C 955.2134,22.9042 955.02189,22.937882 954.90625,23.125 954.15198,24.345446 955.51825,28.394969 957.5625,31 958.2099,31.825 959.0394,37.75543 959.40625,44.1875 960.37958,61.252591 963.6775,70.297442 970.28125,73.96875 972.83727,75.38975 973.33866,75.340809 977.28125,73.125 987.60619,67.322207 986.85129,67.456019 990.09375,70.5625 992.59378,72.957673 993,74.117856 993,78.59375 993,81.470866 992.7401,84.536266 992.40625,85.40625 991.64207,87.397675 988.09911,87.442259 984.375,85.5 980.3388,83.394976 978.51919,83.607159 975.3125,86.59375 972.78632,88.946549 971.93489,89.182602 966.75,88.71875 961.66586,88.26391 961,88.389135 961,90 961,91.002012 961.5625,92.066338 962.25,92.34375 962.9375,92.621163 965.77087,92.862829 968.5625,92.90625 972.74246,92.971265 974.06584,92.558816 976,90.5 978.63869,87.691241 981.3156,87.393807 985,89.5 991.56561,93.253244 994.95152,90.676481 996,81.125 996.98957,72.110265 996.69281,71.156777 992.25,67.75 987.67901,64.244928 985.35623,64.275799 979.90625,67.96875 972.64821,72.886861 970.05495,71.760028 965.4375,61.59375 963.60657,57.562562 962.98325,53.906445 962.4375,44 961.79604,32.356165 961.52945,31.160012 958.6875,26.71875 957.23085,24.442359 956.10979,23.162399 955.4375,22.96875 z M 1020.875,92.125 C 1019.2016,92.056741 1017.12,92.57442 1013.8125,93.65625 1009.0172,95.224708 1008.5437,95.223273 1005.3438,93.5 1002.0153,91.707521 1001.9543,91.714199 999.6875,93.84375 997.04023,96.330735 992.66413,96.594607 989,94.5 985.51823,92.509641 981.56911,92.669648 977.0625,94.96875 972.28611,97.405484 967.30519,97.793993 963.125,96.0625 961.36249,95.332445 959.62542,95.030839 959.25,95.40625 958.14357,96.512683 960.49269,99.397172 963.09375,100.125 967.71748,101.4188 973.11082,100.98411 977,99 981.17054,96.872348 985.50822,96.383324 986.46875,97.9375 986.78903,98.455723 989.0488,99.19492 991.5,99.5625 994.99372,100.08642 996.67931,99.803622 999.3125,98.25 1002.1237,96.591361 1003.0351,96.450627 1004.9375,97.46875 1007.1208,98.637223 1008.6012,98.53887 1017.6875,96.5 1020.1256,95.952931 1021.5746,96.259235 1023.8438,97.875 1027.4201,100.42155 1034.534,100.71189 1037.7812,98.4375 1041.3969,95.905045 1040.352,95.148433 1034.0625,95.71875 1029.0314,96.174956 1027.7393,95.935563 1025.4375,94.125 1023.8061,92.841708 1022.5484,92.193259 1020.875,92.125 z"/>
</svg>
