<?xml version="1.0" encoding="UTF-8"?>
<svg xmlns="http://www.w3.org/2000/svg" viewBox="3219.01 13.92 62.66 89.76">
  <path d="M3248.5416 96.894297C3245.4505 95.237595 3243.7479 94.944595 3240.5564 95.520201C3232.5114 96.971178 3229.8761 96.544925 3227.0016 93.327786C3221.859 87.572286 3222.5177 72.370863 3228.3256 62.772889C3229.5215 60.796486 3231.8061 57.069973 3233.4024 54.491749C3235.9206 50.42474 3236.1854 49.32319 3235.4024 46.172179C3234.7011 43.349469 3233.8316 42.342655 3231.5 41.653241C3226.4403 40.157181 3225.5123 39.40232 3225.1696 36.503997C3224.3103 29.237635 3232.4566 18.0 3238.5833 18.0C3242.1631 18.0 3243.1323 19.364184 3241.9079 22.67973C3240.8786 25.466874 3241.9127 32.003027 3243.3808 31.990294C3243.9964 31.984956 3246.4758 30.409956 3248.8907 28.490294C3251.3056 26.570632 3253.9073 25.0 3254.6721 25.0C3258.9527 25.0 3255.9392 34.516974 3249.8905 40.101121C3246.3641 43.356639 3246.0552 44.015114 3246.9503 46.369385C3247.5004 47.816223 3247.7208 49.0 3247.4401 49.0C3247.1593 49.0 3247.4318 49.938257 3248.0455 51.085014C3249.2159 53.271978 3256.2206 56.940446 3259.2977 56.978038C3260.2865 56.990117 3262.2705 55.7625 3263.7066 54.25L3266.3177 51.5L3264.4936 54.664788C3261.3545 60.110909 3258.7931 60.530304 3251.6719 56.764136L3245.5 53.5L3245.197 47.645344C3244.902 41.945611 3244.9998 41.692941 3248.8951 38.096823C3252.9054 34.394559 3255.5068 29.628963 3254.4504 27.919751C3253.7387 26.768176 3249.1177 29.107492 3246.5927 31.897621C3243.7045 35.088987 3240.3819 34.659402 3239.65 31.0C3239.32 29.35 3239.3186 26.65693 3239.6469 25.0154C3240.8235 19.132606 3233.6354 20.438789 3229.2873 26.897883C3224.9333 33.365955 3226.7178 40.0 3232.8118 40.0C3235.481 40.0 3237.0886 42.219666 3237.6721 46.710781C3238.0898 49.925914 3237.3894 51.841141 3233.0497 59.352122C3230.2367 64.220789 3227.4607 70.416453 3226.8808 73.120264C3225.3873 80.084341 3226.4515 88.78723 3229.1475 91.657051C3232.2143 94.921492 3234.1251 95.273298 3239.2811 93.522789C3244.0617 91.899741 3246.0185 92.203754 3249.8849 95.170217C3251.3921 96.326686 3253.968 97.005635 3256.8849 97.015313C3260.2332 97.026422 3261.0883 97.296704 3260.0 98.0C3257.5293 99.596667 3252.7173 99.132316 3248.5416 96.894297Z M3254.0 90.299544C3253.175 90.001135 3251.0776 89.104429 3249.3392 88.306865C3246.9548 87.212945 3245.3027 87.098534 3242.6134 87.841084C3237.8425 89.158396 3235.2176 88.32147 3233.46 84.922556C3231.4972 81.127072 3231.5967 79.968879 3234.4374 73.54568C3239.1014 62.999456 3242.8709 61.241564 3252.7607 65.000504C3255.6541 66.100227 3259.0574 67.0 3260.3236 67.0C3264.7551 67.0 3269.3538 60.190688 3274.3772 46.190403C3278.653 34.273988 3277.6304 28.269645 3270.8642 25.56234C3266.1979 23.695245 3265.9843 23.0 3270.0769 23.0C3272.1234 23.0 3274.1043 23.950482 3275.992 25.838154C3278.6897 28.535883 3278.819 29.075635 3278.6043 36.747123C3278.4217 43.271222 3277.863 45.811284 3275.6892 50.001255C3274.2101 52.85208 3273.0 55.577416 3273.0 56.057558C3273.0 56.5377 3271.6418 59.072239 3269.9817 61.689868C3265.1571 69.297441 3261.5619 70.455753 3253.5 67.0C3245.0997 63.399224 3241.6217 64.7989 3236.1057 74.0C3233.5818 78.210069 3233.4571 80.77986 3235.6264 83.87693C3237.1089 85.993522 3237.736 86.138488 3242.7175 85.516093C3247.231 84.952168 3249.1209 85.239493 3253.5741 87.166656C3256.5396 88.449995 3258.9735 89.8375 3258.9829 90.25C3259.0021 91.09399 3256.2714 91.121141 3254.0 90.299544Z M3269.0 45.099486C3269.0 43.989285 3267.7671 41.937727 3266.2602 40.540469C3264.3133 38.735146 3263.9734 38.0 3265.0859 38.0C3268.6087 38.0 3272.5955 44.895911 3270.0 46.5C3269.45 46.839919 3269.0 46.209687 3269.0 45.099486Z M3268.25 35.337719C3267.5625 35.060307 3267.0 34.180001 3267.0 33.381483C3267.0 32.23951 3267.4269 32.158088 3269.0 33.0C3272.1941 34.709413 3271.5635 36.674759 3268.25 35.337719Z"/>
</svg>
