<?xml version="1.0" encoding="UTF-8"?>
<svg xmlns="http://www.w3.org/2000/svg" viewBox="1967.06 16.04 34.66 83.76">
  <path d="M 1996.3438,45.59375 C 1994.9621,46.420171 1993.8227,47 1993.3438,47 1991.1362,47 1989.0698,44.047354 1989.0312,40.84375 1988.9944,37.786163 1992.7511,24.969709 1994.0938,23.5625 1994.5924,23.04 1994.9862,21.915 1994.9688,21.0625 1994.9438,19.845178 1994.6061,19.929262 1993.375,21.5 1991.0182,24.507089 1988.3758,30.977388 1987,37.125 1985.8797,42.131149 1985.9569,42.990223 1987.875,46.75 1989.0314,49.0167 1990.386,51.116019 1990.9062,51.4375 1991.3305,51.69976 1994.0759,50.080928 1997.1875,47.90625 L 1996.3438,45.59375 z M 1998.8438,52.53125 C 1992.99,57.365924 1986.9531,63.19892 1985.4062,66.1875 1983.3281,70.202926 1981.0583,82.510257 1981.0312,89.84375 1981.017,93.684137 1981.3499,95.034859 1982.25,94.71875 1983.0644,94.432725 1983.4281,92.59512 1983.2812,89.40625 1982.994,83.168554 1984.6673,74.587577 1987.1562,69.6875 1988.2231,67.586958 1992.5201,62.299458 1996.6875,57.9375 1997.898,56.670502 1998.7345,55.952533 1999.7188,55 L 1998.8438,52.53125 z M 1975.125,21 C 1974.6428,21 1973.237,23.343306 1972,26.21875 1969.0554,33.063671 1969.6499,43.018518 1973.375,49.375 L 1975.8438,53.5625 1973.9062,59.28125 C 1969.9506,70.998448 1969.1975,85.931681 1972.2188,92.5625 1973.7827,95.994994 1975.3606,94.05061 1973.9688,90.40625 1971.369,83.599576 1973.4879,63.496522 1977.4375,57.46875 1979.4401,54.41236 1979.435,51.595338 1977.4375,49.9375 1972.974,46.233131 1971.415,33.727148 1974.5,26.34375 1976.2194,22.228546 1976.3648,21 1975.125,21 z M 1984.5312,22 C 1982.7008,22 1980.0557,28.040161 1978.9375,34.78125 1978.0701,40.009828 1978.2443,43.317387 1979.6562,48.3125 1980.3327,50.705388 1982.6272,49.841577 1982.0625,47.40625 1980.9088,42.430384 1981.9446,30.024711 1983.8438,26.09375 1985.2911,23.098315 1985.4809,22 1984.5312,22 z"/>
</svg>
