<?xml version="1.0" encoding="UTF-8"?>
<svg xmlns="http://www.w3.org/2000/svg" viewBox="253.88 15.95 49.61 89.2">
  <path d="M284.37236 96.527963C284.00126 95.560901 284.00708 83.458993 284.38528 69.634834C285.39299 32.801251 285.36402 32.226151 282.31734 28.574831C277.95897 23.351518 277.20676 23.31799 272.40842 28.133156L268.05684 32.5L267.93573 64.25C267.82622 92.957605 267.20839 101.08791 265.73199 93.25C265.44709 91.7375 265.39089 77.757159 265.60711 62.182575C265.98597 34.892847 265.93244 33.886666 264.1322 34.458041C263.10478 34.784132 261.07973 34.600611 259.63208 34.050217C256.36473 32.807974 256.13603 29.368077 259.07258 25.634859C261.71087 22.280817 264.31346 22.28653 266.76485 25.651745L268.69651 28.30349L272.84826 24.151745C275.13171 21.868285 277.45634 20.0 278.0141 20.0C278.57185 20.0 280.3462 21.4625 281.95709 23.25C284.48729 26.057586 285.13198 26.328853 286.693 25.242742C292.74392 21.032692 297.37195 21.217904 299.09083 25.738896C301.23544 31.379642 298.01042 36.0 291.92857 36.0L288.0 36.0L287.84378 42.75C287.75785 46.4625 287.58978 50.625 287.47028 52.0C287.35078 53.375 286.97876 64.12982 286.64357 75.899601C286.30838 87.669382 285.81204 97.521289 285.5406 97.792729C285.26916 98.064169 284.74345 97.495024 284.37236 96.527963Z M265.60839 30.578141C266.41271 28.482112 264.21104 25.0 262.08145 25.0C259.88629 25.0 258.60236 28.81595 260.1643 30.697964C261.60274 32.431187 264.92537 32.358056 265.60839 30.578141Z M275.91105 94.5C275.84528 93.95 275.81211 91.25 275.83734 88.5C275.86256 85.75 275.90948 72.3625 275.9416 58.75C275.97887 42.955599 276.36184 34.0 277.0 34.0C278.33185 34.0 278.33185 91.939116 277.0 94.0C276.46684 94.825 275.97682 95.05 275.91105 94.5Z M295.8 32.8C298.47108 30.128916 296.61064 24.0 293.12874 24.0C290.81937 24.0 288.0 27.081346 288.0 29.605297C288.0 33.244554 293.21819 35.381807 295.8 32.8Z"/>
</svg>
