<?xml version="1.0" encoding="UTF-8"?>
<svg xmlns="http://www.w3.org/2000/svg" viewBox="3375.5 14.29 22.81 92.55">
  <path d="M3385.5 102.09016L3378.5 101.5L3378.18 65.0C3378.004 44.925 3377.779 26.29668 3377.68 23.603732L3377.5 18.707465L3386.3272 18.574173C3391.1822 18.500862 3395.3275 18.72086 3395.539 19.063055C3395.7505 19.405251 3396.0123 38.318553 3396.1209 61.092615C3396.3122 101.21738 3396.2592 102.50279 3394.4092 102.59016C3393.3591 102.63975 3389.35 102.41475 3385.5 102.09016Z M3393.5182 93.75C3393.1112 90.3125 3392.9023 79.175 3393.054 69.0C3393.4602 41.748664 3393.4578 42.305274 3393.2199 31.610709L3393.0 21.721418L3387.8941 22.326134C3385.0859 22.658727 3382.2186 23.403608 3381.5224 23.981424C3380.5717 24.770396 3380.355 28.700888 3380.652 39.765999C3381.4533 69.623254 3381.4794 91.597054 3380.7177 95.180464C3379.9757 98.671481 3380.0787 98.882532 3382.7177 99.280632C3384.248 99.511469 3387.4706 99.76776 3389.8792 99.850168L3394.2583 100.0L3393.5182 93.75Z"/>
</svg>
