<?xml version="1.0" encoding="UTF-8"?>
<svg xmlns="http://www.w3.org/2000/svg" viewBox="212.84 18.3 38.68 81.47">
  <path d="M 220.90625 82.6875 L 218.96875 86.6875 C 219.90992 86.542611 221.41566 86.730663 224.1875 87.375 C 228.75662 88.437127 230.38615 88.470846 232.84375 87.4375 C 238.86525 84.90565 239.62345 81.131353 240.65625 48.21875 C 241.14043 32.78908 241.68196 26.471217 242.65625 25.21875 C 243.92628 23.586117 244.06478 23.593657 245.375 25.28125 C 247.13605 27.549545 248.30005 39.550913 247.5625 48 C 247.25043 51.575 246.55479 60.8 246.03125 68.5 C 245.06718 82.678966 243.18001 91.654501 240.8125 93.15625 C 239.44886 94.021229 236.61721 94.261817 235.90625 93.59375 C 235.56984 93.277638 223.52298 92.212225 218.25 92.03125 C 217.61338 92.0094 217.25448 91.366211 217.125 90.53125 L 214.84375 95.28125 C 217.05975 95.062262 220.95306 95.061228 227.59375 95.375 C 241.85013 96.048615 241.90306 96.060607 243.4375 93.71875 C 246.84627 88.516317 248.81219 73.226252 249.1875 48.9375 C 249.52754 26.93082 248.68025 22 244.46875 22 C 243.05678 22 241.61136 22.865876 240.9375 24.125 C 240.28007 25.353403 239.22748 37.476009 238.46875 52.78125 C 236.89656 84.495337 236.86199 84.572909 227.53125 84.375 C 223.38311 84.287017 221.49186 83.854823 220.90625 82.6875 z "/>
</svg>
