<?xml version="1.0" encoding="UTF-8"?>
<svg xmlns="http://www.w3.org/2000/svg" viewBox="1201.23 37.52 22.03 60.69">
  <path d="M 1213.4375 40.28125 L 1211 41.75 C 1212.8663 43.397164 1212.2237 49.998856 1209.75 52.0625 L 1207.5 53.9375 L 1210.2188 53.96875 C 1212.8902 54.001296 1212.9569 54.103245 1212.375 58.75 C 1212.0008 61.737602 1211.0613 64.012072 1209.875 64.875 C 1207.618 66.51685 1207.3326 69.206705 1209.5 68.375 C 1211.9932 67.418262 1211.5188 74.65196 1209 76 C 1207.9 76.588702 1207 77.725601 1207 78.53125 C 1207 79.336899 1207.9 80 1209 80 C 1212.1451 80 1211.4428 83.591433 1207.3438 88.59375 C 1203.2282 93.616227 1203.5516 95.453187 1207.9688 92.1875 C 1211.4553 89.609801 1212.3416 89.50178 1214 91.5 C 1215.4518 93.249252 1218 93.512534 1218 91.90625 C 1218 91.297906 1216.875 89.894075 1215.5 88.8125 C 1214.0076 87.638556 1213 85.826316 1213 84.3125 C 1213 82.123954 1213.3328 81.877996 1215.4375 82.40625 C 1219.0278 83.307366 1219.3507 81.636529 1216.4375 77.34375 C 1214.3696 74.296453 1214.0062 72.811647 1214.5312 70 C 1215.3293 65.726364 1215.6968 65.290576 1217.2188 66.8125 C 1218.8904 68.484141 1221 68.300859 1221 66.46875 C 1221 65.618169 1219.6349 64.155669 1217.9688 63.21875 C 1215.2112 61.668156 1214.9644 61.096105 1215.2188 57 C 1215.4651 53.031573 1215.7502 52.549834 1217.6562 52.8125 C 1221.1227 53.290182 1221.2532 51.383725 1217.9375 48.59375 C 1215.4939 46.53762 1214.061 43.834264 1213.4375 40.28125 z "/>
</svg>
