<?xml version="1.0" encoding="UTF-8"?>
<svg xmlns="http://www.w3.org/2000/svg" viewBox="3666.65 14.22 51.91 87.98">
  <path d="M3683.4364 72.965666C3683.3532 65.094688 3681.8374 63.5 3674.4391 63.5C3670.1095 63.5 3669.0104 63.184566 3669.2371 62.007151C3669.5423 60.422821 3675.2636 60.0964 3680.3504 61.373105C3684.0259 62.295579 3686.1683 66.952378 3685.8006 73.219566C3685.3729 80.508497 3683.514 80.308857 3683.4364 72.965666Z M3692.6593 95.25C3689.4482 88.906312 3689.674 85.655877 3693.9648 76.454564C3698.4392 66.859646 3699.2315 60.203233 3696.3833 56.136816C3694.2666 53.114892 3694.9085 44.727929 3697.6634 39.409828C3700.2857 34.347741 3703.9965 32.887511 3708.1623 35.278374C3712.3076 37.657436 3713.0 37.463457 3713.0 33.923077C3713.0 29.879565 3708.2512 24.997442 3704.3269 25.006589C3702.7721 25.010213 3700.15 25.907248 3698.5 27.0C3694.3766 29.730837 3692.311 29.50214 3690.5627 26.121181C3686.8303 18.903622 3679.0 21.530386 3679.0 30.0C3679.0 35.132554 3681.3501 38.0 3685.5567 38.0L3689.0 38.0L3688.9847 45.25C3688.9645 54.784508 3688.4073 55.600476 3682.8746 54.196138C3679.5001 53.339596 3678.2138 53.383757 3677.0245 54.396987C3673.8935 57.064484 3672.5851 57.229119 3674.9243 54.66125C3676.6976 52.714682 3678.3223 52.0 3680.9743 52.0C3685.7852 52.0 3687.0 50.548499 3687.0 44.8C3687.0 40.238368 3686.8634 39.998348 3684.25 39.966731C3682.7375 39.948433 3680.4506 39.058957 3679.1681 37.990119C3677.2396 36.382935 3676.8273 35.059103 3676.7849 30.337005C3676.7381 25.131188 3677.0196 24.371703 3679.9738 21.732074C3683.9005 18.223577 3687.1407 18.598641 3691.2359 23.035693C3692.7407 24.666062 3694.3157 26.00125 3694.7359 26.002778C3695.1562 26.004305 3697.3267 25.038119 3699.5592 23.855698C3707.1143 19.854347 3714.2513 23.611639 3715.6671 32.335711C3716.2012 35.627115 3713.885 42.0 3712.1547 42.0C3711.718 42.0 3710.3583 40.847159 3709.1332 39.43813C3705.8519 35.66431 3702.033 36.408933 3699.6498 41.287246C3696.9346 46.845382 3696.43 52.348172 3698.3804 55.13268C3700.5842 58.279085 3700.5343 68.097521 3698.2931 72.29966C3697.3543 74.059847 3695.5704 77.946565 3694.3288 80.936812L3692.0714 86.373624L3694.4195 92.186812C3696.2013 96.598128 3696.44 98.0 3695.4094 98.0C3694.6625 98.0 3693.4249 96.7625 3692.6593 95.25Z M3681.0726 94.365141C3678.7054 91.355817 3678.4409 86.637829 3680.4371 83.032282C3681.7134 80.727143 3681.7687 80.872445 3681.2767 85.237775C3680.8695 88.850506 3681.2245 90.715331 3682.8412 93.455493C3685.2806 97.589918 3684.0906 98.201951 3681.0726 94.365141Z"/>
</svg>
