<?xml version="1.0" encoding="UTF-8"?>
<svg xmlns="http://www.w3.org/2000/svg" viewBox="3286.14 11.64 33.49 93.3">
  <path d="M3309.1557 96.171118C3306.4057 93.23189 3302.9153 91.0 3301.0686 91.0C3300.484 91.0 3298.2624 92.575 3296.1317 94.5C3289.2682 100.70071 3288.1446 98.425378 3293.0008 88.160212C3296.3983 80.978527 3296.5899 78.755806 3294.4801 71.0C3291.3001 59.309697 3290.8647 52.412124 3292.6263 41.626832C3293.536 36.057074 3294.9131 30.375 3295.6866 29.0C3297.0592 26.559982 3297.0792 26.587587 3296.5198 30.150537C3296.0219 33.322296 3296.3919 34.273153 3299.3414 37.400537C3303.3689 41.670952 3305.5554 41.894828 3309.3024 38.420455C3312.2931 35.647238 3312.2782 35.134197 3308.9848 27.5C3308.0357 25.3 3306.2961 22.638488 3305.1191 21.58553C3303.0028 19.692286 3302.9492 19.69783 3300.2852 22.08553L3297.5913 24.5L3299.131 22.055144C3303.0188 15.881816 3305.7948 16.719976 3310.874 25.600736C3314.3024 31.59516 3317.6328 45.430789 3316.5037 48.98827C3316.2026 49.937149 3315.7378 53.921755 3315.4709 57.842948C3315.204 61.764142 3314.3644 66.891103 3313.6052 69.236196C3311.1515 76.815069 3310.9415 79.931401 3312.6231 83.812186C3314.84 88.928207 3315.892 93.697165 3315.3016 95.95483C3314.4692 99.137811 3312.0122 99.224278 3309.1557 96.171118Z M3311.7563 89.60624C3311.1846 87.897808 3310.05 85.728269 3309.2351 84.785041C3307.6563 82.957645 3307.6882 82.697144 3310.8976 71.188305C3314.7811 57.262544 3315.1118 41.0 3311.5114 41.0C3310.802 41.0 3309.1592 41.85955 3307.8608 42.910112C3305.5773 44.757684 3305.4889 45.368809 3305.1612 61.57538C3304.9748 70.790717 3304.468 77.757238 3304.0349 77.05654C3303.6019 76.355841 3303.18 68.74397 3303.0973 60.141271L3302.947 44.5L3299.1135 40.919388L3295.28 37.338776L3294.3358 43.656821C3293.2766 50.744094 3294.6907 63.455423 3297.6408 73.366107C3299.4718 79.517094 3299.421 79.888305 3295.2644 90.75C3294.5119 92.71629 3297.1466 92.210937 3299.5835 89.921551C3301.6243 88.004284 3302.0173 87.95757 3304.6503 89.319172C3306.2202 90.13101 3308.3705 91.751948 3309.4287 92.921255C3311.9184 95.6723 3313.1833 93.870713 3311.7563 89.60624Z"/>
</svg>
