<?xml version="1.0" encoding="UTF-8"?>
<svg xmlns="http://www.w3.org/2000/svg" viewBox="3536.44 13.4 41.69 92.35">
  <path d="M3550.5011 99.001828C3550.1507 98.434891 3549.7348 91.495254 3549.5767 83.580413L3549.2894 69.189794L3545.5969 64.68353C3543.566 62.205085 3541.2509 59.926505 3540.4522 59.620018C3538.443 58.849039 3538.6262 57.0 3540.7117 57.0C3541.6531 57.0 3544.8187 59.573774 3547.7462 62.719497L3553.0691 68.438995L3552.8264 83.789139C3552.6 98.104089 3552.0738 101.54653 3550.5011 99.001828Z M3547.25 55.046843C3541.1501 48.066941 3541.4786 45.163834 3547.6874 51.181647C3549.4929 52.931553 3551.3143 54.017861 3551.735 53.595666C3552.1558 53.17347 3552.4155 49.233406 3552.3122 44.839969C3552.1452 37.737831 3551.8125 36.459475 3549.3122 33.31356C3544.4817 27.235743 3543.7004 25.966269 3544.3752 25.291493C3545.2379 24.428801 3551.7827 30.759556 3553.5853 34.20034C3555.4031 37.670207 3555.5721 57.027918 3553.8 58.8C3552.0915 60.508512 3551.9545 60.430026 3547.25 55.046843Z M3552.1684 26.110304C3550.4258 23.420972 3549.0 20.720972 3549.0 20.110304C3549.0 17.59432 3551.6738 19.349646 3554.2115 23.531608C3555.7029 25.989224 3557.3362 28.0 3557.8411 28.0C3558.346 28.0 3560.4184 25.975 3562.4465 23.5C3564.4746 21.025 3566.8648 19.0 3567.7581 19.0C3569.1866 19.0 3569.2025 19.15055 3567.89 20.25C3567.0692 20.9375 3564.7031 23.6375 3562.6319 26.25C3560.5607 28.8625 3558.072 31.0 3557.1015 31.0C3556.0879 31.0 3553.9883 28.918936 3552.1684 26.110304Z M3563.607 96.418213C3562.5884 93.763837 3562.9315 74.310262 3564.0488 71.371725C3565.451 67.68366 3575.4024 54.707128 3575.8344 56.003328C3576.1374 56.912092 3574.8963 59.191321 3568.8388 68.850968C3566.7621 72.162537 3566.0859 76.966853 3566.0378 88.75C3566.0028 97.316592 3565.0749 100.24363 3563.607 96.418213Z M3563.621 48.25C3564.3554 32.089898 3565.18 28.892631 3569.761 24.443622C3574.2869 20.048178 3575.3425 21.745926 3571.2501 26.838404C3569.6189 28.868226 3567.9822 31.480735 3567.613 32.64398C3566.5525 35.985193 3566.255 54.039537 3567.2502 54.654635C3567.744 54.959831 3569.1562 54.262391 3570.3885 53.104769C3574.4724 49.268137 3574.2503 50.923521 3570.0 56.0C3563.4634 63.80725 3562.9428 63.174704 3563.621 48.25Z"/>
</svg>
