<?xml version="1.0" encoding="UTF-8"?>
<svg xmlns="http://www.w3.org/2000/svg" viewBox="1646.41 17.04 57.01 87.08">
  <path d="M1652.75 96.426606C1650.6875 95.075958 1649.0 93.359745 1649.0 92.612801C1649.0 91.865856 1651.025 89.38814 1653.5 87.106765C1655.975 84.82539 1658.0 82.527345 1658.0 82.0C1658.0 81.472655 1655.975 79.17461 1653.5 76.893235C1650.8547 74.454891 1649.0 71.861286 1649.0 70.600484C1649.0 68.090669 1654.531 61.0 1656.4888 61.0C1657.2275 61.0 1659.2576 62.8 1661.0 65.0C1665.0681 70.136456 1667.0028 70.21718 1666.9914 65.25C1666.9805 60.431619 1665.1538 39.491003 1664.3746 35.25C1663.7024 31.591616 1661.609 30.993464 1660.0 34.0C1658.6333 36.553744 1653.899 36.650901 1651.655 34.171259C1649.4184 31.699843 1649.5167 25.747323 1651.8287 23.654988C1654.3335 21.388174 1656.0025 21.574573 1659.4055 24.501221C1661.0036 25.87555 1662.7388 27.0 1663.2616 27.0C1663.7844 27.0 1665.9167 25.65 1668.0 24.0C1670.0833 22.35 1672.0923 21.0 1672.4645 21.0C1672.8367 21.0 1675.2759 22.8 1677.885 25.0C1680.494 27.2 1682.8947 29.0 1683.2197 29.0C1683.5448 29.0 1685.6959 27.425 1688.0 25.5C1692.5875 21.667214 1695.0257 21.168511 1697.4286 23.571429C1700.8282 26.971103 1698.2806 34.00934 1692.9816 35.856556C1690.6248 36.67816 1689.6374 36.502628 1687.5997 34.899778C1685.1256 32.95362 1685.0952 32.95353 1684.0592 34.889337C1681.7092 39.280471 1678.768 68.0 1680.6684 68.0C1681.1454 68.0 1683.1913 66.875 1685.2148 65.5C1687.2383 64.125 1689.3515 63.0 1689.9109 63.0C1690.4702 63.0 1692.0671 64.676491 1693.4595 66.725535L1695.991 70.451069L1690.2821 76.220213L1684.5731 81.989357L1688.7866 86.28253C1691.104 88.643775 1692.9868 91.00867 1692.9707 91.537852C1692.9546 92.067033 1691.5741 94.003648 1689.9031 95.84144C1685.9729 100.16376 1684.0457 99.672632 1677.179 92.598788C1674.2524 89.583956 1671.315 87.325636 1670.6513 87.5803C1669.9877 87.834964 1667.2715 90.508577 1664.6153 93.521662C1661.9591 96.534748 1659.0466 98.973524 1658.1429 98.941165C1657.2393 98.908806 1654.8125 97.777254 1652.75 96.426606Z M1665.3356 90.0C1668.5444 86.7 1671.694 84.003681 1672.3348 84.008179C1673.55 84.01671 1681.1076 91.123754 1683.3563 94.372551C1684.974 96.709721 1688.6072 95.813053 1689.5495 92.844076C1690.0332 91.320184 1689.2725 89.8393 1686.6006 87.103066C1684.6203 85.075001 1683.0 82.714176 1683.0 81.856788C1683.0 80.999401 1685.2921 78.186555 1688.0935 75.606019C1692.928 71.152641 1693.1112 70.801942 1691.698 68.707068C1689.7417 65.807043 1687.3442 66.345112 1682.8403 70.695014C1677.3093 76.036849 1676.6224 74.821558 1677.4242 61.112214C1677.7978 54.725496 1678.7992 45.697597 1679.6496 41.050215L1681.1959 32.60043L1676.4455 28.300215C1673.8327 25.935097 1671.3921 24.0 1671.0218 24.0C1670.6516 24.0 1669.2822 25.135116 1667.9789 26.52248C1665.7012 28.946919 1665.657 29.276717 1666.8407 35.007763C1668.0078 40.658062 1668.3597 43.899824 1669.4288 58.847105C1670.0356 67.330598 1669.08 75.0 1667.4162 75.0C1666.6983 75.0 1664.1735 72.750221 1661.8055 70.000491C1659.4375 67.250761 1656.9893 65.000761 1656.365 65.000491C1655.7408 65.000221 1654.4899 66.129586 1653.5853 67.51019C1651.4976 70.696385 1652.4297 72.579394 1658.5959 77.632077L1663.1941 81.399941L1658.097 86.185888C1655.2937 88.818158 1653.0 91.280238 1653.0 91.657176C1653.0 93.032039 1656.3527 96.0 1657.9058 96.0C1658.7835 96.0 1662.1269 93.3 1665.3356 90.0Z M1660.7943 29.32809C1661.1371 27.06523 1656.9898 24.406193 1654.5675 25.335739C1652.3886 26.171863 1652.5204 31.628767 1654.75 32.892518C1656.9438 34.135982 1660.3722 32.114194 1660.7943 29.32809Z M1693.3682 32.878102C1697.1782 31.142151 1697.8094 25.908322 1694.3681 24.587751C1692.7844 23.980031 1687.0 27.725999 1687.0 29.359318C1687.0 30.257742 1689.9094 34.0 1690.6079 34.0C1690.7718 34.0 1692.0139 33.495146 1693.3682 32.878102Z"/>
</svg>
