<?xml version="1.0" encoding="UTF-8"?>
<svg xmlns="http://www.w3.org/2000/svg" viewBox="70.34 19.85 27.12 84.42">
  <path d="M 90.470523,95.5 C 89.061879,92.597144 89.306637,77.293363 90.785357,75.814643 92.409976,74.190024 92.250679,67.439495 90.471164,62.5 87.409859,54.002577 89.12467,29.73698 93.081183,25.566667 94.866249,23.685139 95.099892,25.906151 93.452101,29.092627 91.078382,33.682893 91.01228,54.262952 93.346624,61.931501 95.318429,68.409073 95.456531,73.333738 93.75,76.315741 93.0625,77.517084 92.261735,82.775 91.970523,88 91.573619,95.121338 91.198041,96.999229 90.470523,95.5 z M 81.547999,98.077664 C 81.23448,97.57038 81.095422,94.450197 81.238982,91.143925 81.469175,85.842434 81.18967,84.799938 78.872186,82.316261 72.897748,75.913379 72.335924,69.36655 77,60.5 79.709763,55.348658 79.996981,53.911835 79.96879,45.648454 79.941699,37.707167 79.612492,35.972188 77.473914,32.5 74.33579,27.404955 74.147546,24.918564 77.102379,27.592652 80.72325,30.869495 81.783703,34.209994 82.525752,44.676644 L 83.24542,54.827598 80.003222,60.494368 C 75.860644,67.734839 76.05398,73.839609 80.586396,78.908642 84.42024,83.196396 84.556209,83.691224 84.167941,91.942902 83.862969,98.424326 83.004539,100.4344 81.547999,98.077664 z"/>
</svg>
