<?xml version="1.0" encoding="UTF-8"?>
<svg xmlns="http://www.w3.org/2000/svg" viewBox="2165.19 21.45 21.94 83.64">
  <path d="M 2167.1875 29.15625 L 2167.3438 31.6875 C 2167.5792 31.56743 2167.7194 31.536642 2167.9688 31.40625 C 2173.4133 28.559344 2175.9765 28.794879 2178.2812 32.3125 C 2181.0908 36.600545 2181.3223 42.465176 2179 49.96875 L 2176.8438 56.9375 L 2179.5938 65.34375 C 2182.2385 73.464511 2182.2852 73.981771 2181.0312 81.3125 C 2179.826 88.357867 2176.6018 95.945402 2175.3438 94.6875 C 2175.0436 94.387322 2175.3268 92.538547 2175.9688 90.59375 C 2176.6106 88.648954 2177.3064 83.822163 2177.5 79.84375 C 2177.8609 72.430243 2176.7915 67.843843 2172.75 59.21875 L 2170.75 54.9375 L 2173.375 49.09375 C 2176.3961 42.361921 2176.6426 39.767612 2174.4375 37.5625 C 2172.4696 35.594645 2170.2314 35.631261 2167.7188 37.53125 L 2167.875 40.03125 C 2168.7843 39.383943 2169.6548 39 2170.4688 39 C 2173.9655 39 2174.3101 41.680306 2171.5312 47.75 C 2168.3304 54.741645 2168.3552 55.882055 2172.0938 65.53125 C 2174.9431 72.885611 2175.1153 74.114264 2174.5 81.34375 C 2174.1329 85.656706 2173.2456 90.918136 2172.5 93.03125 C 2171.3239 96.364584 2171.3409 97.033348 2172.6562 98.125 C 2176.46 101.2819 2181.3068 93.916804 2183.5312 81.5625 C 2185.1263 72.703813 2185.1253 71.837502 2183.5312 67.3125 C 2182.5988 64.665377 2181.4075 61.705037 2180.9062 60.75 C 2179.574 58.211696 2179.7864 54.738765 2181.5312 50.5625 C 2183.7801 45.180586 2183.6255 37.121306 2181.1562 32.28125 C 2178.1815 26.450279 2173.1657 25.247746 2167.5 29 C 2167.3823 29.077941 2167.3012 29.083128 2167.1875 29.15625 z "/>
</svg>
