<?xml version="1.0" encoding="UTF-8"?>
<svg xmlns="http://www.w3.org/2000/svg" viewBox="2581.87 14.99 73.35 90.16">
  <path d="M2617.2 98.8C2615.7078 97.3078 2615.6693 94.247209 2617.0913 90.167941C2617.9802 87.617998 2617.8411 86.293168 2616.3413 83.024208C2614.1537 78.256118 2612.1622 78.181383 2609.8626 82.781084C2608.5889 85.328808 2608.4292 86.964064 2609.1435 90.143168C2610.2729 95.169894 2609.4801 98.0 2606.9426 98.0C2605.5411 98.0 2604.204 96.20064 2602.01 91.361685C2598.2626 83.097152 2598.2582 81.336688 2601.9722 76.428139C2605.8451 71.309497 2605.8837 67.765405 2602.0956 65.068094C2597.2382 61.609294 2593.6483 62.512527 2591.4627 67.743409C2590.6582 69.668871 2590.0 72.287734 2590.0 73.563107C2590.0 76.676893 2588.6196 77.342122 2586.6574 75.17393C2585.2854 73.657927 2585.1993 72.442142 2586.0745 66.947511C2587.3022 59.239207 2589.5774 54.302348 2593.0802 51.746068C2595.6104 49.899508 2595.7688 49.901174 2601.2629 51.832187C2604.3442 52.915202 2607.1207 53.546012 2607.4327 53.233986C2607.7447 52.92196 2608.0099 49.254167 2608.022 45.083333C2608.0751 26.735014 2618.4511 19.08875 2631.4197 27.841152L2635.6464 30.693687L2638.5732 28.351811C2644.2377 23.81939 2648.1051 25.643336 2650.8976 34.164245C2651.882 37.167804 2651.8284 38.475025 2650.6003 41.414245C2649.7763 43.38641 2648.8111 45.0 2648.4554 45.0C2648.0997 45.0 2646.5524 44.105401 2645.0169 43.012002C2642.5566 41.260175 2642.0769 41.202431 2640.9785 42.525941C2640.1579 43.51465 2639.9438 45.573387 2640.3519 48.55073C2640.8172 51.945575 2640.6214 53.208058 2639.5667 53.612778C2637.0902 54.563084 2633.1544 50.977223 2631.3964 46.168885C2626.6617 33.219531 2619.8817 35.270495 2618.3295 50.121662C2617.6884 56.255254 2617.6993 56.290104 2620.0922 55.748073C2621.4165 55.448097 2623.9377 54.617761 2625.6949 53.90288C2628.2926 52.846087 2629.3359 52.841794 2631.2756 53.879913C2636.2658 56.550573 2639.8377 66.943799 2637.7608 72.75C2636.3422 76.715663 2635.5464 76.805643 2633.3384 73.25C2630.1249 68.075031 2627.6986 66.0 2624.8609 66.0C2621.9478 66.0 2620.0 68.299269 2620.0 71.738092C2620.0 72.766358 2621.5703 75.129679 2623.4896 76.989916C2628.7513 82.089722 2628.976 85.562491 2624.556 93.466224C2620.9018 100.00064 2619.4519 101.05191 2617.2 98.8Z M2622.8159 91.113845C2625.7914 85.819612 2625.5802 83.883631 2621.4933 78.991968C2617.4277 74.125742 2616.393 71.002668 2617.9084 68.171117C2621.277 61.87687 2626.2147 61.260837 2631.3029 66.5C2633.1724 68.425 2635.0145 70.0 2635.3963 70.0C2636.3981 70.0 2634.9813 62.990994 2633.314 59.698407C2631.1636 55.451956 2628.3301 54.880754 2623.1303 57.645501C2616.7631 61.030992 2615.6361 59.790122 2616.2153 50.031423C2616.67 42.369729 2618.8471 36.379651 2621.5545 35.340705C2625.815 33.705795 2632.9774 38.925253 2633.0318 43.704545C2633.0664 46.746287 2635.0451 50.0 2636.8602 50.0C2637.5666 50.0 2638.0058 48.003548 2638.0153 44.75C2638.0374 37.177669 2638.9494 36.187572 2643.38 38.925861C2647.4376 41.433586 2649.0 41.006978 2649.0 37.391323C2649.0 29.93277 2643.1222 26.607104 2638.5876 31.5C2637.3133 32.875 2635.9887 34.0 2635.644 34.0C2635.2993 34.0 2633.0058 32.46457 2630.5473 30.587934C2625.2734 26.562333 2621.0156 25.386086 2617.8501 27.080248C2614.8263 28.698511 2612.0743 32.090594 2612.0333 34.25C2612.015 35.2125 2611.5387 36.0 2610.9749 36.0C2610.3132 36.0 2610.077 40.092497 2610.3086 47.54317C2610.5585 55.583768 2610.3386 58.938675 2609.5837 58.599689C2600.0082 54.299626 2595.4337 52.867088 2594.0517 53.735745C2591.4 55.402591 2589.0288 60.459628 2588.4948 65.586853L2587.9831 70.5L2589.4632 67.326583C2593.2519 59.203179 2602.6537 58.856628 2606.3952 66.702472C2608.3559 70.814207 2607.8923 72.874188 2603.6783 78.774706L2600.6255 83.049412L2602.7997 87.524706C2605.4713 93.023668 2606.9826 93.288918 2606.2916 88.137601C2605.7676 84.230838 2607.0989 81.128871 2611.2751 76.525963C2613.586 73.978864 2615.58 75.150684 2618.807 80.952462C2620.414 83.841455 2620.985 86.049549 2620.563 87.741934C2620.219 89.12137 2619.6741 91.31875 2619.3522 92.625C2618.4504 96.283922 2620.3843 95.440191 2622.8159 91.113845Z"/>
</svg>
