<?xml version="1.0" encoding="UTF-8"?>
<svg xmlns="http://www.w3.org/2000/svg" viewBox="2184.99 28.92 51.42 75.03">
  <path d="M 2218.6124,81.5 C 2218.1899,79.85 2217.1011,77.675605 2216.1929,76.668011 2214.6559,74.9628 2214.6613,74.769055 2216.2708,73.868321 2218.4738,72.635482 2218.5027,68.213006 2216.3236,65.805112 2215.0385,64.385051 2214.9218,63.6782 2215.8236,62.776371 2217.6194,60.980564 2217.2624,53.94742 2215.2633,51.738422 2213.6143,49.916335 2213.6143,49.755192 2215.2633,48.549439 2217.4288,46.965963 2217.5528,40.314984 2215.4682,37.55887 2214.6607,36.491249 2214,35.253749 2214,34.80887 2214,33.369464 2217.7679,33.952818 2218.3552,35.483141 2218.679,36.327074 2219.5871,36.711947 2220.4621,36.376152 2222.4892,35.59828 2222.4156,36.883285 2220.299,39.222064 2218.4108,41.308493 2218.3539,47.516571 2220.2025,49.744026 2221.0219,50.731287 2221.01,51.389961 2220.1576,52.242382 2218.3193,54.080731 2218.7147,60.740981 2220.7292,61.868321 2222.3681,62.785504 2222.3681,62.935771 2220.7292,64.746752 2218.5748,67.127298 2218.4856,72.342779 2220.5638,74.420901 2221.4238,75.280967 2221.802,76.51133 2221.4042,77.155039 2221.0063,77.798748 2220.3883,79.7147 2220.0307,81.41271 L 2219.3805,84.5 2218.6124,81.5 z M 2221.5889,95.923275 C 2220.165,94.231076 2219,92.200227 2219,91.410278 2219,90.620329 2221.0107,88.997146 2223.4682,87.803205 2227.814,85.691849 2227.992,85.682757 2229.9682,87.471189 2234.0713,91.184474 2231.5576,99 2226.2602,99 2225.1149,99 2223.0128,97.615474 2221.5889,95.923275 z M 2228.4563,95.655591 C 2231.3955,93.506388 2229.8024,89 2226.1034,89 2222.3724,89 2220.4909,91.180303 2221.9191,93.848925 2222.8535,95.5947 2224.3073,96.673624 2226.0589,96.921053 2226.3662,96.964474 2227.4451,96.395016 2228.4563,95.655591 z M 2189.0859,98.08593 C 2187.5313,96.531297 2187.3249,95.493149 2187.987,92.557582 2189.2395,87.004298 2190.764,85.706638 2195.2017,86.416269 2198.9141,87.009901 2199,86.953442 2199,83.919547 2199,82.212298 2198.1061,79.679089 2197.0136,78.290192 2195.9211,76.901295 2195.3285,75.277482 2195.6967,74.681717 2196.1611,73.930306 2196.4888,73.966309 2196.7664,74.799254 2197.6115,77.334371 2198.754,75.811107 2199.3682,71.330693 2199.8281,67.97471 2199.5851,66.015734 2198.5041,64.365876 2196.7838,61.740432 2196.5264,59 2198,59 2199.7778,59 2199.0602,52.346259 2197,49.727129 2194.5516,46.614456 2194.5196,46.184096 2196.75,46.361111 2199.5237,46.581247 2199.7782,39.502971 2197.0577,37.803968 2194.4912,36.20115 2194.4466,34.826719 2196.9111,33.28761 2198.4494,32.326906 2198.9309,32.37751 2199.3797,33.547063 2199.6863,34.346178 2200.6961,35 2201.6236,35 2203.1918,35 2203.1891,35.133584 2201.5847,36.90646 2199.252,39.483958 2199.7445,45.626854 2202.25,45.206163 2204.3642,44.851178 2204.4313,45.845724 2202.4682,48.44113 2201.6054,49.581852 2201,52.571323 2201,55.69113 2201,60.333333 2201.2512,61 2203,61 2204.1,61 2205,61.266522 2205,61.592271 2205,61.91802 2204.1,63.328706 2203,64.727129 2200.5463,67.846455 2200.1113,77 2202.4167,77 2203.1958,77 2204.0603,76.4375 2204.3377,75.75 2204.7166,74.811146 2204.8618,74.83495 2204.9211,75.84563 2204.9645,76.585726 2204.0724,78.49395 2202.9387,80.086128 2201.8049,81.678306 2200.6172,84.584326 2200.2992,86.54395 2199.8469,89.330931 2199.3702,89.95836 2198.1105,89.424855 2192.7976,87.174821 2190.7743,88.066833 2189.4783,93.230508 2188.9044,95.517147 2189.2098,96.138472 2191.3979,97.135429 2194.6176,98.602433 2198.9356,96.962431 2199.7165,93.975913 2200.1709,92.238489 2202,91.096023 2202,92.54966 2202,94.122014 2198.8605,98.839564 2197.4552,99.378819 2194.4368,100.53709 2191.0073,100.0073 2189.0859,98.08593 z"/>
</svg>
