<?xml version="1.0" encoding="UTF-8"?>
<svg xmlns="http://www.w3.org/2000/svg" viewBox="1695.32 17.05 85.72 86.86">
  <path d="M1731.0 99.0C1730.175 98.466844 1728.2782 98.023735 1726.7848 98.015313C1723.6068 97.99739 1717.6665 93.149543 1715.2497 88.601556C1714.0634 86.369205 1713.641 83.219104 1713.7423 77.361149C1713.839 71.770075 1713.4467 68.639685 1712.4892 67.361149C1711.1393 65.558795 1710.9667 65.572466 1707.0232 67.793919C1704.7836 69.055575 1702.5121 69.816517 1701.9756 69.484902C1699.2123 67.777129 1702.3725 57.683873 1706.9731 53.523056C1708.8712 51.806445 1709.06 50.950494 1708.4068 47.023056C1707.4665 41.368459 1707.8049 33.805647 1709.0546 32.55C1709.5745 32.0275 1710.0 30.944976 1710.0 30.144391C1710.0 27.809477 1714.9333 22.0 1716.916 22.0C1722.8688 22.0 1726.4441 30.37163 1725.3802 41.818715C1724.752 48.578047 1724.7865 48.711808 1727.6928 50.781236C1731.7538 53.672954 1734.4316 59.886081 1733.5779 64.436443C1732.8786 68.163782 1732.597 68.319908 1727.1235 68.013799L1723.747 67.824964L1724.1982 74.063339C1724.5779 79.312151 1725.0813 80.673214 1727.3722 82.643717C1731.7353 86.396742 1734.3761 86.577642 1738.5315 83.408161C1741.9349 80.812282 1747.723 72.887344 1749.326 68.628613C1749.7652 67.461751 1749.0835 64.755639 1747.5152 61.440538C1744.2173 54.46945 1744.3304 53.041342 1748.5 49.0C1752.5589 45.065933 1752.7005 44.197282 1750.0037 39.77417C1747.0445 34.920601 1747.3032 27.98157 1750.5889 24.076725C1752.0128 22.384526 1754.0378 21.0 1755.0889 21.0C1756.7603 21.0 1757.0 21.760714 1757.0 27.065741C1757.0 33.98731 1758.2159 37.0 1761.0095 37.0C1763.3267 37.0 1768.2509 32.01263 1771.2997 26.577742C1772.5099 24.420501 1774.0088 22.488402 1774.6307 22.284189C1776.3187 21.729868 1777.1441 26.403304 1776.3978 32.290118C1775.8242 36.815699 1775.0979 38.124317 1770.8687 42.253197C1765.5005 47.49409 1765.2596 48.470836 1767.6244 55.411177L1769.2489 60.178632L1764.7284 64.839316C1762.2422 67.402692 1759.0124 72.2 1757.5512 75.5C1752.8871 86.033169 1751.6657 88.103271 1747.7102 92.179225C1743.9625 96.040937 1737.0785 99.949079 1734.0 99.962725C1733.175 99.966382 1731.825 99.533156 1731.0 99.0Z M1742.5133 93.640655C1747.9119 90.003846 1753.9097 81.031054 1757.2138 71.648842C1758.1956 68.861075 1759.6496 66.21597 1760.445 65.770831C1761.2404 65.325692 1762.8149 63.664318 1763.9438 62.078888C1765.9609 59.246237 1765.9661 59.079609 1764.2482 52.462878L1762.5 45.729468L1765.411 43.614734C1772.4075 38.532157 1773.1883 37.509143 1773.7284 32.717004C1774.3276 27.401129 1773.2344 26.675976 1770.763 30.75C1767.7175 35.770606 1762.8986 40.127747 1760.7473 39.806045C1757.2064 39.276548 1754.7216 34.759309 1754.8495 29.083995C1754.9895 22.868716 1752.7042 22.07031 1750.4203 27.536565C1748.6545 31.762587 1749.8188 37.621057 1752.9958 40.496183C1754.0981 41.493769 1755.0 42.74028 1755.0 43.266207C1755.0 43.792135 1753.1511 46.430725 1750.8914 49.129742L1746.7827 54.037044L1749.089 59.719398C1750.3575 62.844692 1751.3353 66.199075 1751.2619 67.173582C1751.1885 68.148088 1749.5353 71.794085 1747.5883 75.275796C1740.0787 88.704092 1732.2763 91.737807 1724.7098 84.171305C1722.2329 81.694423 1721.8081 80.386839 1721.3782 73.916226C1720.7642 64.674291 1721.6198 63.040566 1726.1736 64.759439C1733.4597 67.509611 1733.2578 59.895164 1725.8444 52.341475L1721.6635 48.081443L1722.8786 42.651646C1724.4755 35.516245 1722.6152 26.934794 1719.059 25.031559C1716.7893 23.816866 1715.6541 24.74003 1713.0129 29.948199C1711.0201 33.87787 1710.8299 35.335 1711.3814 42.448199C1712.0404 50.947318 1712.0636 50.865633 1706.6894 58.933124C1702.4669 65.271671 1702.1961 66.414207 1705.0863 65.695668C1713.1519 63.690451 1713.2988 63.688133 1714.6563 65.54467C1715.413 66.579491 1716.0 69.898417 1716.0 73.141909C1716.0 87.26471 1720.0295 94.036522 1729.5 95.829635C1737.0591 97.26084 1737.1663 97.242807 1742.5133 93.640655Z"/>
</svg>
