<?xml version="1.0" encoding="UTF-8"?>
<svg xmlns="http://www.w3.org/2000/svg" viewBox="2396.1 17.59 52.77 86.33">
  <path d="M 2446.4688 61.09375 C 2445.9093 60.793059 2445.3523 60.498317 2444.7188 60 C 2441.6323 57.572251 2439.7158 57.477009 2436.4375 59.625 C 2435.0647 60.524502 2433.7532 61.096947 2433.5312 60.875 C 2433.111 60.454733 2432.6321 49.060381 2432.875 45.40625 C 2432.9516 44.25312 2434.575 41.669609 2436.5 39.6875 C 2440.2397 35.836828 2441.0449 31.806391 2438.7188 28.625 C 2437.5318 27.00171 2437.1487 27.090669 2433.2188 29.9375 C 2430.6421 31.80396 2428.9459 32.516278 2428.875 31.75 C 2428.8111 31.059051 2428.6986 28.475 2428.625 26 C 2428.5032 21.899399 2428.3026 21.515936 2426.1562 21.75 C 2419.9269 22.429359 2412.6321 31.94981 2413.1875 38.6875 C 2413.4924 42.385325 2413.6275 42.513914 2417.9375 43 C 2421.8337 43.439412 2422.4754 43.86353 2423.2188 46.5 C 2424.0034 49.282948 2423.4155 57.489659 2422.3125 59.28125 C 2422.0476 59.711693 2420.4003 59.189499 2418.6562 58.125 C 2413.4827 54.967074 2407.9338 53.80075 2405.5312 55.375 C 2402.0454 57.65906 2398.5669 65.884772 2398.5312 71.90625 C 2398.4992 77.344309 2400.3979 80.127208 2401.5625 76.34375 C 2403.8336 68.965616 2407.5346 63.869146 2409.9375 64.8125 C 2411.7264 65.514769 2418 72.228706 2418 73.4375 C 2418 73.809643 2416.6779 75.782251 2415.0625 77.8125 C 2410.522 83.518886 2410.331 85.962064 2413.8438 93.46875 C 2415.5218 97.054576 2417.5061 100 2418.25 100 C 2421.6739 100 2423.1275 94.963035 2420.9062 90.8125 C 2420.0694 89.248999 2420.2175 87.733122 2421.5 84.375 C 2423.3858 79.437151 2424.7457 78.981864 2427.6875 82.25 C 2430.5427 85.421973 2430.8567 86.85501 2430 92.5 C 2429.161 98.028527 2429.5611 100 2431.5312 100 C 2433.5757 100 2436.4774 95.731784 2438.875 89.15625 L 2441.0625 83.15625 L 2438.5312 79.4375 C 2433.3094 71.742546 2437.2573 68.069624 2446.2188 71.25 L 2446.3125 68.375 C 2444.3173 67.61424 2442.0534 67 2440.5312 67 C 2437.5941 67 2436.6374 67.564533 2435 70.25 C 2433.9102 72.0375 2433.0021 73.775545 2433 74.09375 C 2432.998 74.411956 2434.3517 76.699139 2436 79.1875 L 2439 83.71875 L 2437 89.5 C 2435.9047 92.683569 2434.4833 95.916825 2433.8438 96.6875 C 2431.7946 99.156642 2430.888 96.559888 2432 91.375 C 2433.2066 85.748797 2432.6663 83.711703 2428.7188 79.0625 C 2425.1944 74.911898 2423.6844 75.520814 2420.4688 82.3125 C 2418.3808 86.72254 2418.1154 88.161658 2418.9688 90.40625 C 2420.2198 93.697016 2420.3067 97 2419.1562 97 C 2418.6963 97 2417.0755 94.552871 2415.5625 91.5625 C 2412.3536 85.220125 2412.6789 83.258613 2417.625 78.3125 C 2419.4872 76.450321 2421 74.110155 2421 73.09375 C 2421 71.218732 2416.4036 66.055114 2412.2188 63.25 C 2409.0392 61.118806 2406.1231 62.827922 2403.0312 68.65625 C 2401.0404 72.409099 2400.4893 72.906467 2399.9375 71.375 C 2399.2543 69.478646 2403.9225 58.78395 2406 57.5 C 2407.7599 56.412318 2414.7292 58.011762 2417.0938 60.0625 C 2422.0892 64.395033 2425.1197 61.724592 2425.3438 52.78125 C 2425.5922 42.870177 2424.8002 41.178021 2419.75 40.8125 C 2414.5565 40.436602 2413.8773 38.299734 2416.8438 31.59375 C 2418.3391 28.213137 2419.8271 26.627819 2422.9375 25.125 L 2427.0625 23.15625 L 2426.7812 29.21875 C 2426.439 36.554964 2427.4919 37.256171 2432.375 32.96875 C 2434.3353 31.247566 2436.4516 30.153661 2437.0625 30.53125 C 2438.8939 31.663072 2437.1568 36.288256 2433.8438 39.15625 L 2430.7812 41.84375 L 2430.875 52.0625 C 2431.0033 64.336676 2431.8988 66.108658 2436.1875 62.5 C 2439.8441 59.423146 2440.0775 59.415085 2443.4062 62.5 C 2444.3099 63.337458 2445.386 63.951961 2446.4062 64.40625 L 2446.4688 61.09375 z "/>
</svg>
