<?xml version="1.0" encoding="UTF-8"?>
<svg xmlns="http://www.w3.org/2000/svg" viewBox="1113 17.71 33.45 87.48">
  <path d="M1132.3811 99.945291C1129.2165 98.774615 1125.3672 93.595206 1123.3407 87.781036C1121.7719 83.280172 1121.5625 80.210173 1121.9228 67.0C1122.7675 36.040148 1122.9618 38.190009 1118.75 31.896495C1116.6875 28.814567 1115.0 25.777067 1115.0 25.146495C1115.0 22.566408 1117.7296 24.308737 1121.4303 29.251078C1126.7688 36.380582 1127.7685 43.021697 1125.3816 55.5C1124.1112 62.141781 1123.8341 79.988295 1124.946 83.556656C1128.3293 94.414305 1132.3781 99.590933 1135.4761 97.019866C1139.694 93.51932 1141.0765 61.662555 1137.5383 49.5C1134.0985 37.675748 1134.3781 35.960996 1141.0254 28.108337C1144.4486 24.06452 1144.4429 26.634742 1141.0169 31.973714C1137.5006 37.453349 1137.4873 37.930164 1140.5568 48.5C1141.8211 52.853518 1142.3078 58.204585 1142.3304 68.0C1142.3586 80.253782 1141.8602 84.338544 1138.8976 96.135377C1137.928 99.996175 1135.8318 101.22176 1132.3811 99.945291Z M1125.5889 28.923275C1124.165 27.231076 1123.0183 24.868576 1123.0406 23.673275C1123.0777 21.690009 1123.3245 21.784147 1125.8635 24.75C1129.2293 28.681774 1130.5704 28.785774 1134.1149 25.389885C1135.6133 23.954321 1137.3136 22.941821 1137.8933 23.139885C1139.2407 23.600226 1131.2965 32.0 1129.5137 32.0C1128.7789 32.0 1127.0128 30.615474 1125.5889 28.923275Z"/>
</svg>
