<?xml version="1.0" encoding="UTF-8"?>
<svg xmlns="http://www.w3.org/2000/svg" viewBox="1981.5 19.18 38.25 86.21">
  <path d="M 1983.5 23.09375 L 1987.4375 34.21875 L 1987.7812 35.5 C 1988.6182 35.074433 1989.7028 35.021423 1991.7812 35.03125 C 1997.1091 35.056439 1999.9556 36.809991 2002.4062 41.6875 C 2004.5877 46.029228 2004.4081 51.863925 2002 55.5 C 1999.4504 59.34981 1999.4673 64.58463 2002.0312 69 C 2003.144 70.916419 2004.969 74.448342 2006.0938 76.8125 L 2008.125 81.09375 L 2005.9375 88.21875 C 2003.684 95.500026 2003.9539 99.821536 2006.75 100.75 C 2008.9077 101.46647 2014.7512 94.669929 2016.0312 89.9375 C 2017.7465 83.596904 2016.7719 73.157464 2014.0312 68.28125 C 2011.5358 63.841142 2011.5019 57.361024 2013.9375 49 C 2016.027 41.826874 2013.9302 33.678006 2008.625 28.40625 C 2005.1946 24.997437 2003.608 24.163799 1999.2188 23.59375 C 1996.3133 23.216403 1993.5388 23.174362 1993.0625 23.46875 C 1991.2766 24.572506 1984 24.994638 1984 24 C 1984 23.36401 1983.8012 23.141681 1983.5 23.09375 z M 1996.5 26.25 C 1999.7402 26.324746 2002.4751 26.700598 2003.7188 27.34375 C 2011.4669 31.350506 2014.8362 41.955895 2011.5312 51.90625 C 2009.1853 58.969387 2009.3578 64.572837 2012.0938 70.5 C 2015.1938 77.216039 2015.3386 88.010292 2012.4062 93.03125 C 2010.5711 96.173517 2007.0313 98.323107 2007 96.3125 C 2006.9929 95.859672 2007.7296 92.243523 2008.6562 88.28125 C 2010.6425 79.788437 2009.8192 75.564214 2005 69.5 C 2001.4812 65.07222 2001.2344 61.869792 2003.9688 55.84375 C 2006.4972 50.271529 2006.5303 44.929555 2004.0312 40.03125 C 2001.2832 34.644539 1996.9526 31.741204 1992.7812 32.46875 C 1990.9799 32.782941 1988.9884 32.705407 1988.375 32.28125 C 1987.3325 31.56039 1985.49 27.050168 1986.1875 26.9375 C 1989.5164 26.39983 1993.2598 26.175254 1996.5 26.25 z "/>
</svg>
