<?xml version="1.0" encoding="UTF-8"?>
<svg xmlns="http://www.w3.org/2000/svg" viewBox="3482.3 12.76 103.4 93.59">
  <path d="M3508.0107 95.364902C3503.1249 86.70775 3503.1116 84.484098 3507.9075 78.092873C3513.0432 71.248816 3513.4709 69.811217 3511.503 66.005756C3509.2477 61.644575 3504.3929 58.89376 3499.5405 59.227595C3495.6405 59.495902 3495.5427 59.600393 3493.0405 66.172803C3491.6432 69.842844 3490.138 73.204812 3489.6956 73.643842C3488.1862 75.141765 3487.0306 71.508658 3487.0153 65.216756C3487.0037 60.452911 3487.6128 57.724206 3489.5342 53.932604C3494.551 44.032249 3497.0883 43.206441 3507.7027 48.019244C3511.6759 49.820777 3514.7265 50.673487 3515.2665 50.133489C3516.2755 49.124526 3514.3742 34.588694 3512.8619 31.75C3512.2678 30.634848 3510.7534 30.0 3508.6873 30.0C3502.1176 30.0 3498.6619 24.425945 3502.8703 20.617346C3504.4335 19.202687 3505.1725 19.121483 3507.3703 20.122874C3508.8167 20.78186 3510.0 21.698798 3510.0 22.160515C3510.0 23.972861 3514.396 22.864777 3516.5876 20.5C3517.8619 19.125 3519.7475 18.0 3520.7779 18.0C3521.8083 18.0 3523.7083 19.125 3525.0 20.5C3527.8399 23.522927 3529.3921 23.623364 3532.7271 21.0C3534.1256 19.9 3535.9045 19.0 3536.6803 19.0C3538.951 19.0 3543.0 23.697638 3543.0 26.332101C3543.0 29.767749 3540.4718 31.438797 3535.1252 31.537139L3530.5 31.622211L3529.1253 36.736524C3527.5204 42.707052 3528.3221 51.0 3530.5041 51.0C3531.264 51.0 3533.476 50.061676 3535.4198 48.914835C3538.499 47.098062 3539.4106 46.980408 3542.5023 48.000771C3544.454 48.644877 3547.396 50.303796 3549.0402 51.687257C3550.6843 53.070719 3552.6945 53.947479 3553.5072 53.635612C3554.3199 53.323745 3556.4064 50.185908 3558.1438 46.662641L3561.3027 40.2567L3558.9903 35.479933C3556.0504 29.406945 3555.3069 22.213134 3557.3389 19.501572C3559.2031 17.013882 3560.8707 18.37618 3559.2121 21.03191C3558.5455 22.099434 3558.0 24.118422 3558.0 25.51855C3558.0 28.471314 3560.4456 34.729945 3562.4762 36.973751C3563.6906 38.315572 3563.3562 39.57428 3559.9544 46.466253C3557.7974 50.836309 3555.1784 55.266 3554.1344 56.310012C3552.2702 58.174282 3552.1654 58.144254 3548.2758 54.630222C3542.2911 49.22336 3540.3644 48.810903 3534.619 51.706532C3530.2857 53.890432 3529.57 53.998582 3528.2417 52.670238C3526.0349 50.463427 3525.5037 38.622834 3527.3456 32.692902L3528.8386 27.885804L3525.8157 24.442902C3524.1531 22.549306 3521.9794 21.0 3520.9853 21.0C3518.2514 21.0 3513.7147 26.877772 3514.4909 29.414279C3515.9767 34.27001 3518.2463 49.915645 3517.6793 51.393308C3516.7871 53.718334 3512.6717 53.374089 3507.0 50.5C3499.7687 46.835606 3496.1211 47.163697 3492.8655 51.771351C3490.0386 55.772386 3488.0146 61.802319 3488.0056 66.25C3487.9964 70.778756 3489.8016 69.393695 3492.9456 62.459664L3495.9111 55.919328L3501.2056 56.612825C3507.3702 57.420311 3509.8844 58.848577 3513.5112 63.603525C3516.9484 68.109956 3516.2799 71.245404 3510.323 78.558215C3505.5212 84.45287 3505.2427 86.573771 3508.5908 91.75C3510.5913 94.842888 3511.8824 94.568478 3511.783 91.07153C3511.6989 88.115158 3516.3472 79.805783 3519.8668 76.620537C3522.4625 74.271459 3524.2727 75.331059 3528.4741 81.658892C3532.4081 87.583889 3532.7223 88.787181 3531.6062 93.6548C3530.4457 98.716588 3532.4765 98.361202 3535.8655 92.909451C3539.6285 86.856052 3539.6894 85.672746 3536.5036 80.5C3533.2193 75.167229 3530.0491 68.759941 3530.022 67.400038C3529.9833 65.462288 3535.9808 57.965879 3538.4813 56.826582C3540.542 55.887652 3541.6167 56.187213 3545.7863 58.862849C3548.6186 60.680381 3552.0001 62.0 3553.825 62.0C3557.4128 62.0 3559.8648 58.886901 3566.0 46.542304C3568.3629 41.787944 3570.1498 39.400556 3571.5 39.19391C3575.9568 38.51182 3579.0 36.717452 3579.0 34.771691C3579.0 33.262133 3578.5804 32.965473 3577.25 33.53444C3572.8574 35.413028 3570.1914 35.226218 3568.9757 32.954636C3567.2154 29.665493 3568.5527 18.219337 3570.4729 20.139562C3570.733 20.399655 3570.4676 22.34446 3569.8831 24.461353C3567.9916 31.311563 3571.6822 35.22032 3576.5589 31.531803C3579.7271 29.135476 3581.0 29.688429 3581.0 33.461045C3581.0 37.624284 3577.8448 41.0 3573.9535 41.0C3571.598 41.0 3570.722 42.087532 3566.5031 50.25C3559.5564 63.690062 3558.4898 65.0 3554.4935 65.0C3552.6194 65.0 3548.6612 63.648825 3545.5773 61.956394C3539.4644 58.60156 3537.6412 58.84627 3534.6416 63.424209C3532.4646 66.746735 3532.5631 71.174853 3534.8795 74.119669C3535.9132 75.433831 3537.7904 78.703317 3539.051 81.385193L3541.3431 86.261332L3537.4215 93.652063C3534.3444 99.451381 3533.0693 100.98436 3531.5 100.7714C3529.7082 100.52825 3529.5297 99.854856 3529.7852 94.301288C3530.0495 88.555954 3529.8049 87.73312 3526.4414 83.051288C3524.4454 80.27308 3522.4446 78.0 3521.9951 78.0C3520.7099 78.0 3516.4867 83.410792 3515.0335 86.919196C3513.9499 89.53518 3513.9451 90.803538 3515.0065 94.019624C3516.0526 97.18941 3516.0565 98.227005 3515.0269 99.467572C3512.8458 102.09568 3511.2988 101.19108 3508.0107 95.364902Z M3508.6642 24.567217C3508.0107 22.864411 3504.4732 22.425388 3503.5423 23.931578C3502.7134 25.272811 3507.2029 28.197107 3508.3421 27.057947C3508.85 26.550015 3508.9949 25.429187 3508.6642 24.567217Z M3513.7708 96.8125C3513.5531 96.159375 3512.8403 95.446773 3512.1868 95.22894C3511.4561 94.985357 3511.2326 95.442526 3511.6063 96.41644C3512.3038 98.234154 3514.3708 98.612361 3513.7708 96.8125Z M3538.4182 29.393011C3540.7549 28.496326 3540.4573 23.315106 3537.9933 21.996419C3536.3462 21.114917 3535.5329 21.376206 3533.4545 23.454545C3531.3762 25.532885 3531.1149 26.346208 3531.9964 27.99331C3533.0735 30.005787 3535.4637 30.526765 3538.4182 29.393011Z M3562.934 30.326276C3561.9419 27.716928 3562.4828 22.436137 3563.8269 21.608505C3564.1971 21.380568 3564.5158 23.850408 3564.5351 27.097037C3564.5544 30.343667 3564.4307 33.0 3564.2603 33.0C3564.0899 33.0 3563.4931 31.796824 3562.934 30.326276Z"/>
</svg>
