<?xml version="1.0" encoding="UTF-8"?>
<svg xmlns="http://www.w3.org/2000/svg" viewBox="329.15 19.11 32.59 85.41">
  <path d="M339.8727 97.134221C331.60104 91.88849 331.4488 85.708748 339.44105 79.612758C341.39847 78.119761 342.98372 76.358619 342.96382 75.699109C342.94392 75.039599 340.58142 72.897292 337.71382 70.938427C331.14858 66.453694 331.19905 64.38879 338.04331 57.457116L343.02259 52.414232L339.42598 48.957116C334.82722 44.536732 332.67985 40.411727 333.42725 37.433851C334.2782 34.043366 343.7613 22.99395 345.78646 23.033269C348.05034 23.077224 350.88149 25.593729 354.25 30.556211C358.45483 36.750751 357.67725 45.703267 352.56594 49.945277C350.38072 51.758843 350.61366 54.746663 353.0568 56.241526C354.18803 56.933687 356.03545 58.979833 357.16216 60.788519C358.88778 63.558608 359.02979 64.513867 358.06298 66.847948C357.43172 68.371948 355.47181 70.458224 353.70762 71.484116C351.94343 72.510008 350.16805 73.833265 349.76234 74.424687C349.33512 75.047452 351.29471 77.610658 354.41855 80.515192C359.06724 84.837516 359.73781 85.920744 359.27229 88.355933C358.9225 90.18574 357.28162 92.196652 354.61608 94.062159C352.35223 95.646531 349.78725 97.630698 348.91611 98.471418C346.67043 100.63869 345.012 100.39347 339.8727 97.134221Z M345.43854 42.645629C345.80648 39.700725 345.79952 34.969432 345.42308 32.131644C344.82796 27.645409 344.53816 27.136992 343.20259 28.236015C340.94052 30.097444 336.0 37.116107 336.0 38.468254C336.0 40.184164 342.23084 48.0 343.59878 48.0C344.26408 48.0 345.05838 45.68829 345.43854 42.645629Z M345.75321 65.450673C345.50468 61.848542 344.83879 58.438786 344.27344 57.873436C342.96539 56.56539 335.9819 62.486843 336.04136 64.853592C336.07915 66.357881 343.34696 71.916558 345.35254 71.97511C345.82143 71.9888 346.00174 69.052803 345.75321 65.450673Z M346.0 86.852089L346.0 77.822213L342.83646 80.484158C337.58316 84.904515 335.73339 87.801587 336.41931 90.53453C336.75965 91.890539 337.52105 93.0 338.11132 93.0C338.70159 93.0 340.32091 93.893869 341.70981 94.986375C343.0987 96.078881 344.63218 96.727324 345.11754 96.427358C345.60289 96.127392 346.0 91.818522 346.0 86.852089Z M351.77714 47.056371C356.21397 43.003948 356.24636 37.967737 351.86972 32.65812C350.14807 30.569458 348.40212 29.229428 347.98984 29.680276C347.57755 30.131124 346.93402 34.8875 346.55978 40.25C345.78757 51.314721 346.33415 52.027769 351.77714 47.056371Z M352.68555 68.825686C353.9585 67.629813 355.0 65.970159 355.0 65.137566C355.0 63.105024 350.78709 57.01541 349.375 57.006833C347.8288 56.997442 347.01905 61.723163 347.69866 66.790031C348.33604 71.542031 349.35248 71.956943 352.68555 68.825686Z M353.4288 91.631923C355.39296 89.779481 357.0 87.807891 357.0 87.250612C357.0 85.861331 350.02401 80.642655 349.22927 81.437397C348.07562 82.591047 347.69412 95.0 348.8123 95.0C349.38721 95.0 351.46464 93.484365 353.4288 91.631923Z"/>
</svg>
