<?xml version="1.0" encoding="UTF-8"?>
<svg xmlns="http://www.w3.org/2000/svg" viewBox="2067.47 22.15 24.26 82.22">
  <path d="M 2082.7645,98.335903 C 2081.3778,96.949227 2080.8379,96.889628 2079.526,97.978403 2077.0058,100.07004 2076.5767,98.35357 2078.886,95.417804 2081.5026,92.091273 2081.7995,86 2079.345,86 2077.8238,86 2077.8281,85.847379 2079.3983,84.11241 2081.4919,81.798977 2081.3646,70.327079 2079.25,70.75 2077.5343,71.093141 2077.678,69.512105 2079.5,68 2081.3784,66.441037 2081.5791,57.378993 2079.75,56.708333 2078.75,56.341667 2078.75,55.985 2079.75,54.925 2080.4375,54.19625 2081,51.904123 2081,49.831385 2081,46.764035 2080.6977,46.178764 2079.3756,46.686127 2077.909,47.248886 2077.9157,47.058286 2079.4442,44.725517 2081.7244,41.245439 2081.2118,35.439942 2078.6433,35.656667 2077.2863,35.771178 2077.0844,35.515556 2077.8933,34.706667 2079.6296,32.970404 2079.1945,30.249645 2076.9266,28.661112 2075.7862,27.862349 2075.2628,26.955598 2075.7636,26.64611 2076.9942,25.885555 2081,28.784316 2081,30.435384 2081,31.16247 2082.35,32.316548 2084,33 2087.3964,34.406826 2088.293,37.545173 2085,36.5 2083.2551,35.9462 2083,36.3203 2083,39.432612 2083,41.754257 2083.4697,43 2084.345,43 2086.0196,43 2089.5508,46.782536 2088.6847,47.648631 2088.3347,47.998635 2087.3822,47.732136 2086.568,47.056411 2084.4905,45.332268 2083,46.595552 2083,50.080456 2083,52.269952 2083.6523,53.340074 2085.5,54.181954 2086.875,54.808446 2088,55.978898 2088,56.78296 2088,57.949525 2087.7058,58.00072 2086.5438,57.036355 2084.0477,54.964779 2083.0658,56.760169 2083.7118,62.214669 2084.1669,66.057274 2084.9833,67.942142 2086.9114,69.601738 2089.7292,72.027161 2089.0568,74.141074 2086.0623,72.271 2083.5464,70.699769 2083,71.54463 2083,77.006152 2083,81.020071 2083.3525,81.839587 2085.5,82.818046 2086.875,83.444538 2088,84.465553 2088,85.086969 2088,85.792795 2087.0618,85.981336 2085.5,85.589356 2083.2375,85.021505 2082.9826,85.272459 2082.8168,88.230948 2082.49,94.06294 2082.8791,96.208873 2084.6099,98.12141 2086.7097,100.44168 2085.0618,100.63322 2082.7645,98.335903 z M 2069.5938,26.90625 2069.4688,29.5 2069.5,30.25 C 2069.6059,30.158172 2069.6876,30 2069.8125,30 2070.2573,30 2071.4948,29.276149 2072.5625,28.40625 2074.338,26.959548 2074.3313,26.874424 2072.6562,27.40625 2071.8439,27.664201 2070.6376,27.395435 2069.5938,26.90625 z"/>
</svg>
