<?xml version="1.0" encoding="UTF-8"?>
<svg xmlns="http://www.w3.org/2000/svg" viewBox="4430.25 16.95 31.91 89.04">
  <path d="M4436.7833 100.44994C4436.4807 100.1474 4436.6647 98.2349 4437.192 96.199936C4440.4309 83.701736 4440.2741 79.130563 4436.2481 68.672761C4433.8932 62.555645 4433.7557 61.515514 4434.9263 58.672761C4438.5793 49.801218 4439.1306 45.498173 4437.5717 38.022059C4436.7509 34.085361 4435.1248 29.31993 4433.9581 27.432213C4432.7914 25.544496 4432.2538 24.0 4432.7635 24.0C4434.504 24.0 4436.8458 27.495977 4439.0409 33.371352C4440.8896 38.319591 4441.1247 40.356578 4440.5364 46.327362C4440.1524 50.223923 4439.1997 54.646968 4438.4191 56.15635C4436.4875 59.891798 4436.637 63.256972 4438.9095 67.19284C4441.831 72.252705 4443.2688 80.870002 4442.0637 86.097646C4441.5056 88.518941 4441.0511 91.85 4441.0538 93.5L4441.0586 96.5L4443.9783 93.291312C4447.2045 89.745716 4450.0 81.672858 4450.0 75.901552C4450.0 73.574652 4448.7143 69.742632 4446.5904 65.739086L4443.1808 59.312065L4445.2213 54.906033C4448.3669 48.114068 4448.0897 39.772877 4444.4994 33.176274C4442.9179 30.270415 4439.9072 26.341993 4437.809 24.446447C4434.745 21.678299 4434.3763 21.0 4435.9354 21.0C4437.003 21.0 4439.3546 22.35 4441.1611 24.0C4442.9677 25.65 4445.1329 27.001324 4445.9729 27.002943C4447.0384 27.004997 4447.523 28.070795 4447.5761 30.529058C4447.6754 35.126638 4449.3425 36.89169 4452.0114 35.224959C4454.2471 33.828727 4456.0 33.633514 4456.0 34.780762C4456.0 35.210182 4454.6241 36.080865 4452.9425 36.715615C4450.0605 37.803447 4449.9257 38.088741 4450.5946 41.684853C4451.2197 45.045421 4452.2517 46.377124 4456.4146 49.195627C4458.2942 50.468143 4455.9425 51.445215 4453.9681 50.212145C4450.8216 48.247153 4450.1901 48.721149 4448.4036 54.388514C4446.7274 59.706086 4446.7347 59.818726 4448.9603 62.94429C4450.8774 65.636539 4451.6494 66.016283 4454.1078 65.476321C4457.3762 64.758456 4458.1546 66.46479 4454.942 67.304915C4453.165 67.76962 4452.9261 68.5012 4453.192 72.663643C4453.4558 76.792839 4453.8944 77.672425 4456.25 78.796663C4460.1672 80.666195 4459.7235 82.226362 4455.5 81.434022C4452.5036 80.871895 4452.0 81.049191 4452.0 82.666203C4452.0 83.705034 4451.3393 85.498295 4450.5317 86.651227C4449.2226 88.520327 4449.2497 88.907213 4450.7817 90.221734C4451.7268 91.032581 4453.2875 91.975278 4454.25 92.316616C4455.2125 92.657954 4456.0 93.415477 4456.0 94.0C4456.0 95.898187 4452.9722 96.284777 4451.134 94.621281C4448.6088 92.336024 4448.1132 92.507728 4444.268 97.0C4441.1795 100.60824 4438.2787 101.94532 4436.7833 100.44994Z M4448.5 25.0C4448.8399 24.45 4449.568 24.0 4450.118 24.0C4450.668 24.0 4450.8399 24.45 4450.5 25.0C4450.1601 25.55 4449.432 26.0 4448.882 26.0C4448.332 26.0 4448.1601 25.55 4448.5 25.0Z"/>
</svg>
