<?xml version="1.0" encoding="UTF-8"?>
<svg xmlns="http://www.w3.org/2000/svg" viewBox="3144.07 17.69 52.84 87.09">
  <path d="M3153.655 98.171259C3151.1422 95.394679 3151.6236 93.180295 3156.0 87.383775C3158.2 84.469896 3160.0 81.763888 3160.0 81.370423C3160.0 80.976959 3157.5625 78.27524 3154.5834 75.366605C3148.5226 69.449242 3148.3361 67.968318 3153.0791 63.424177L3155.9776 60.647274L3159.9302 63.823637C3162.1041 65.570637 3164.1341 67.0 3164.4414 67.0C3166.4442 67.0 3163.742 38.977656 3161.3797 35.25C3159.9118 32.933534 3155.6389 32.157188 3154.5 34.0C3152.4758 37.275171 3146.4735 32.293124 3147.4681 28.163342C3148.8116 22.584442 3153.1004 21.980791 3158.1102 26.665456L3160.7203 29.106223L3163.6102 26.713096C3168.8085 22.40825 3170.1791 21.992728 3173.2319 23.796068C3174.7544 24.695399 3176.0 25.736047 3176.0 26.108619C3176.0 28.022453 3179.5458 27.701208 3182.7956 25.492953C3188.455 21.647237 3192.0 22.630127 3192.0 28.045012C3192.0 31.766626 3188.7087 34.373501 3183.8563 34.495241C3181.1985 34.561924 3179.4851 35.168612 3178.8748 36.259171C3177.5676 38.595078 3176.4341 67.0 3177.6482 67.0C3178.1759 67.0 3180.1342 65.425 3182.0 63.5C3183.8658 61.575 3185.8936 60.0 3186.5063 60.0C3187.119 60.0 3189.0474 61.395216 3190.7916 63.100481C3194.506 66.732014 3194.3076 67.402148 3187.5769 73.958208C3185.0596 76.410222 3183.0 78.967822 3183.0 79.641762C3183.0 81.220545 3189.0636 91.0 3190.0425 91.0C3191.6877 91.0 3191.8817 94.250972 3190.3737 96.552396C3187.9787 100.20771 3184.9979 99.597387 3179.9582 94.419795C3177.5062 91.900682 3174.2635 89.189647 3172.7522 88.395273C3169.363 86.61377 3167.4742 87.720625 3161.5 94.989054C3157.0412 100.41383 3156.0488 100.81638 3153.655 98.171259Z M3156.1487 30.920415C3158.0714 29.89142 3158.0845 29.750838 3156.428 27.920415C3154.3449 25.618589 3151.7047 25.445915 3150.0 27.5C3149.0068 28.696716 3149.0068 29.303284 3150.0 30.5C3151.4717 32.273241 3153.3774 32.403549 3156.1487 30.920415Z M3164.827 89.308116C3169.7705 83.672287 3169.8931 83.604812 3172.5772 85.04087C3174.0772 85.843391 3177.5813 88.6375 3180.3642 91.25C3183.1471 93.8625 3185.977 96.0 3186.653 96.0C3189.4882 96.0 3188.8466 93.676782 3184.5573 88.411177C3182.0508 85.334194 3180.0 81.994178 3180.0 80.988919C3180.0 79.98366 3182.25 76.699316 3185.0 73.690378C3190.1531 68.052098 3190.8676 66.267595 3188.8 64.2C3186.8158 62.215832 3185.1989 62.80109 3180.9635 67.036475C3178.7435 69.256535 3176.4935 70.804978 3175.9635 70.477458C3174.6153 69.64419 3174.7446 52.407115 3176.1865 40.75948L3177.3923 31.018961L3174.5091 28.00948C3172.9233 26.354266 3171.1475 25.018288 3170.5629 25.040641C3169.9783 25.062993 3167.9614 26.396784 3166.0809 28.004621C3162.7187 30.879369 3162.6822 30.995792 3163.8845 35.008897C3165.1369 39.188865 3166.6014 49.455696 3167.5921 61.0C3168.0081 65.847286 3167.7768 67.999217 3166.6824 69.463381C3165.2559 71.37177 3165.0997 71.322756 3161.1045 67.713381C3158.8439 65.671021 3156.6935 64.0 3156.3259 64.0C3155.1158 64.0 3152.0 67.284372 3152.0 68.559871C3152.0 69.247313 3154.805 72.286568 3158.2334 75.313769L3164.4667 80.817773L3160.3947 85.658886C3154.9437 92.139503 3153.7906 94.390614 3155.2 95.8C3156.8094 97.409444 3159.0406 95.904897 3164.827 89.308116Z M3188.0657 30.964816C3189.1296 30.395465 3190.0 29.045465 3190.0 27.964816C3190.0 25.309274 3184.9522 25.2904 3182.557 27.936987C3179.5029 31.311714 3183.4075 33.457831 3188.0657 30.964816Z"/>
</svg>
