<?xml version="1.0" encoding="UTF-8"?>
<svg xmlns="http://www.w3.org/2000/svg" viewBox="2857.33 15.82 106.15 90.08">
  <path d="M 2958.6562,41.84375 C 2955.0414,34.942604 2954.8499,34.840771 2951.5312,36.5625 2949.9227,37.397006 2947.776,37.942712 2946.7812,37.78125 2945.132,37.513586 2945.2344,36.948535 2947.9375,31.25 2949.5681,27.8125 2950.4828,25 2949.9688,25 2948.7297,25 2946.543,28.491013 2944.4375,33.8125 2942.8483,37.829305 2942.8453,38.282747 2944.375,39.8125 2945.9048,41.342252 2946.2632,41.322419 2949.5312,39.5625 2953.3766,37.491677 2955.4863,38.320104 2954.8438,41.65625 2954.5894,42.97678 2952.7615,43.950047 2948.5625,45.0625 2944.1477,46.232136 2941.9698,47.484476 2939.8438,50.03125 2938.2817,51.902183 2937,53.865037 2937,54.40625 2937,55.591119 2932.8104,61.918033 2928.1562,67.75 2925.8286,70.666616 2923.9906,72 2922.3125,72 2919.9503,72 2916.0283,70.407374 2915,69.03125 2914.725,68.663217 2912.6485,67.644566 2910.375,66.75 2905.0767,64.665246 2904.1903,65.371272 2900.5312,74.71875 2898.1652,80.763201 2897.8897,82.372653 2898.8125,84.71875 2900.125,88.055751 2901.4108,95 2900.7188,95 2900.4498,95 2898.544,94.304563 2896.4688,93.4375 2892.8729,91.935071 2892.5677,91.939937 2889.7812,94 L 2886.8438,96.15625 2887.1875,93.34375 C 2887.3885,91.60249 2888.3984,90.091677 2889.8438,89.375 2894.3246,87.153292 2894.3441,86.625006 2890.3438,77.0625 2883.3538,60.354379 2878.8658,57.964117 2873.6875,68.21875 2870.2873,74.952177 2868.222,84.628246 2869.8438,86.25 2870.7083,87.114551 2871,86.745889 2871,84.75 2871,76.878917 2876.73,63.608156 2879.875,64.1875 2880.8047,64.358767 2883.6226,68.701303 2886.4062,74.21875 L 2891.3125,83.9375 2887.6562,87.96875 C 2884.079,91.92819 2883.1017,95.518302 2884.5938,99.40625 2885.517,101.81223 2887.3882,101.32137 2889.8438,98 2892.6144,94.252377 2894.0783,94.247223 2898.2812,97.9375 2902.5691,101.70228 2904.4913,100.77827 2903.625,95.375 2902.6802,89.481422 2902.2673,87.377023 2901.5625,85.15625 2900.874,82.986967 2903.5202,72.387637 2905.3125,70.15625 2906.7593,68.354982 2911.1134,69.31812 2915.75,72.46875 2921.5935,76.439551 2923.9112,75.878648 2929.8125,69.09375 2932.6308,65.853503 2936.3816,60.566003 2938.125,57.34375 2942.4297,49.387542 2942.6624,49.178587 2947.375,47.9375 2949.6484,47.338784 2952.5618,46.165774 2953.8438,45.34375 2955.3037,44.407611 2956.4494,44.147316 2957.3125,44.28125 L 2958.6562,41.84375 z M 2881.8125,22.125 C 2879.9679,21.978714 2878.3628,22.960019 2876.5938,25.0625 2873.537,28.695268 2872.9801,35.855101 2875.5625,38.4375 2877.4521,40.327101 2881.4208,41.442107 2883.4688,40.65625 2884.3629,40.313119 2885.4124,40.914286 2886.0938,42.1875 2887.3498,44.534576 2887.783,53.560667 2886.6875,54.65625 2886.3037,55.039975 2883.9109,54.297758 2881.375,53.03125 2876.9555,50.824045 2876.6131,50.80106 2873.3125,52.375 2865.9352,55.893011 2862.153,72.55914 2865.4375,87 2866.3586,91.049858 2867.3469,94.737448 2867.625,95.1875 2868.4246,96.481218 2869.7378,96.129437 2870.375,94.46875 2870.6964,93.631275 2870.11,92.109976 2869.0938,91.09375 2866.5726,88.572622 2865.4871,76.531481 2867,67.84375 2869.1638,55.418258 2877.3106,50.065076 2884.125,56.59375 2885.6229,58.028831 2887.3115,58.93004 2887.9062,58.5625 2889.4998,57.577598 2889.2395,41.917972 2887.5938,39.75 2886.7337,38.61716 2884.8929,38.009913 2882.375,38 2877.1271,37.979341 2875.8394,36.915939 2875.7188,32.65625 2875.6069,28.707643 2879.0125,24 2882,24 2882.9147,24 2885.5482,26.019523 2887.8438,28.46875 L 2892.0312,32.90625 2896.9062,30.46875 C 2899.5925,29.119523 2902.1861,27.98098 2902.6562,27.96875 2903.1264,27.95652 2904.625,27.075541 2906,26 2911.4569,21.731563 2915,24.267839 2915,32.4375 2915,37.187451 2914.2881,37.766341 2910.8125,35.90625 2908.0789,34.443258 2900.51,37.287566 2898.3438,40.59375 2896.5165,43.382628 2895.5219,56.712189 2896.9688,58.96875 2897.782,60.237282 2898.6952,60.056676 2903.3125,57.71875 2906.2809,56.215726 2909.0509,55 2909.4688,55 2909.8867,55 2912.6785,57.25 2915.6875,60 2918.6964,62.75 2921.5051,65 2921.9062,65 2923.3504,65 2928.9716,58.765425 2931.6562,54.1875 2934.1764,49.890038 2934.3896,48.628881 2934.4375,38.625 2934.4861,28.483629 2934.6522,27.643517 2936.75,26.25 2939.3014,24.55514 2939.685,23 2937.5625,23 2936.7774,23 2935.1707,24.2375 2933.9688,25.75 2931.9399,28.303048 2931.8232,29.251999 2932.3438,39 L 2932.9062,49.5 2928.6875,55.5 C 2926.3677,58.794572 2923.6822,61.626948 2922.7188,61.8125 2921.6788,62.012783 2919.0689,60.279981 2916.3125,57.5625 2911.0967,52.420435 2909.6322,52.126009 2903.9375,55.03125 2898.5525,57.778477 2897.6198,56.957286 2898.3438,50.03125 2899.1579,42.242471 2899.7191,41.152976 2903.75,39.46875 2909.379,37.116821 2911.7388,37.534302 2912.5,41 2914.0898,48.238285 2917,43.680988 2917,33.96875 2917,21.531766 2913.8254,19.917181 2901.3438,25.90625 L 2892.75,30.03125 2888.4062,26 C 2885.7441,23.546094 2883.6571,22.271286 2881.8125,22.125 z M 2943.0625,24 C 2939.5125,24 2935.4358,37.403829 2938.0312,40.53125 2938.9274,41.610983 2939.6206,41.754425 2940.3438,41.03125 2941.0669,40.308074 2941.02,39.645027 2940.1875,38.8125 2938.2515,36.87648 2938.8129,32.553362 2941.5,28.59375 2944.2566,24.531648 2944.4329,24 2943.0625,24 z"/>
</svg>
