<?xml version="1.0" encoding="UTF-8"?>
<svg xmlns="http://www.w3.org/2000/svg" viewBox="883 13.18 24 89.61">
  <path d="M 904.875 85.5 C 903.97599 85.079436 903.28152 84.360737 902.59375 82.75 C 899.4388 75.361144 898.69549 70.556101 898.59375 56.15625 L 898.5 41.21875 L 901.75 36.6875 C 903.5375 34.198394 905 31.425749 905 30.53125 C 905 27.761591 901.24405 21.392794 898.59375 19.65625 C 894.92299 17.251074 893.53134 17.562911 889.03125 21.84375 C 885.51989 25.184021 885 26.260783 885 30.03125 C 885 32.961785 885.649 35.032686 886.96875 36.4375 C 888.83689 38.426037 888.84786 39.265212 887.84375 54.84375 C 886.86733 69.992753 886.95486 71.671567 888.84375 78.8125 C 892.33775 92.021546 894.87492 96.090593 901 98.25 C 901.74699 98.513352 902.80142 98.652005 903.9375 98.71875 L 904.09375 96.5 C 901.85836 96.314208 899.85121 95.469653 898.28125 93.75 C 895.82471 91.059225 892.3067 83.237346 891.40625 78.4375 C 890.42695 73.217383 890.32233 62.86044 891.09375 50 C 891.61245 41.352647 891.4813 38.127916 890.53125 37 C 886.44942 32.154025 886.81743 26.399047 891.5 22 C 893.77442 19.863291 894.23644 19.769658 896.59375 21.03125 C 899.46058 22.565533 902 26.780012 902 29.96875 C 902 31.106992 900.78707 33.954679 899.3125 36.28125 C 895.67959 42.013229 894.96159 47.779885 895.96875 62.78125 C 896.97801 77.813811 899.86161 86.321937 904.65625 88.3125 L 904.875 85.5 z "/>
</svg>
