<?xml version="1.0" encoding="UTF-8"?>
<svg xmlns="http://www.w3.org/2000/svg" viewBox="1566.75 15.38 44.6 90.74">
  <path d="M 1568.7812,85.65625 C 1568.8361,86.2921 1569.0021,88.529854 1569.0938,89.59375 1569.2622,89.649797 1569.6351,89.965414 1569.75,89.96875 1570.4312,89.98853 1573.0187,87.222546 1575.5,83.8125 1579.94,77.710673 1580,77.48439 1580,69.75 1580,64.757949 1579.6361,62.106865 1579,62.5 1578.3907,62.876558 1578.252,65.742089 1578.625,69.8125 L 1579.2188,76.5 1575.0312,81.25 C 1572.7231,83.8625 1570.2383,86 1569.5,86 1569.2645,86 1569.0207,85.742685 1568.7812,85.65625 z M 1569.7188,97.34375 C 1569.8795,99.222646 1569.9155,99.718834 1570.0938,101.8125 1570.1249,101.81978 1570.3211,101.96832 1570.3438,101.96875 1571.7238,101.99519 1580.3018,92.640866 1584.5312,86.5 1588.2434,81.110001 1588.479,80.32009 1588.5625,73.125 1588.6439,66.100482 1590.5574,56.385096 1593.125,49.84375 1594.6368,45.992189 1597.9608,43.327608 1602.25,42.5625 1606.4905,41.806071 1609.3295,38.45946 1608.8125,34.8125 1608.5241,32.777449 1608.0114,32.519183 1604.25,32.6875 L 1599.9688,32.875 1600.4375,26.1875 C 1600.8549,20.175361 1600.7394,19.693283 1599.4375,21.4375 1598.6407,22.505121 1598,24.61258 1598,26.125 1598,27.637419 1597.6012,29.111917 1597.125,29.40625 1595.9436,30.136423 1596.9089,34.684736 1598.5312,36.03125 1599.5003,36.835409 1600.6575,36.709245 1602.875,35.5625 1605.093,34.415552 1606.0672,34.304193 1606.5938,35.15625 1607.5494,36.702518 1603.3855,40 1600.4688,40 1596.6242,40 1594.993,41.060836 1593.0312,44.90625 1589.6079,51.616435 1586,66.075426 1586,73.03125 1586,79.121034 1585.6981,80.024136 1582.2188,84.6875 1580.1409,87.472557 1576.746,91.655577 1574.6562,93.96875 1572.7174,96.11483 1571.2136,97.10156 1569.7188,97.34375 z M 1594.875,19.5 1593.4375,22.875 C 1592.006,26.2119 1591.4452,35.101572 1592.5938,36.25 1592.9224,36.578771 1593.8373,36.614738 1594.625,36.3125 1595.6202,35.930609 1595.8231,35.106337 1595.2812,33.625 1594.8524,32.452634 1594.5811,28.8 1594.6875,25.5 L 1594.875,19.5 z M 1588.7812,20 C 1587.4269,19.98974 1586.7705,25.005067 1587.4375,30.34375 1587.9998,34.844007 1587.7267,36.410007 1585.5625,40.71875 1584.1603,43.51041 1583,46.124452 1583,46.53125 1583,47.662318 1586.4018,42.878736 1588,39.5 1589.474,36.383806 1590.1317,20.010231 1588.7812,20 z M 1582.6562,48.84375 C 1582.4482,49.047626 1581.9718,50.228998 1581.0938,52.5 1580.0306,55.25 1579.1539,58.4 1579.1562,59.5 1579.1623,62.506988 1582.1321,55.234053 1582.625,51 1582.8103,49.407641 1582.8643,48.639874 1582.6562,48.84375 z"/>
</svg>
