<?xml version="1.0" encoding="UTF-8"?>
<svg xmlns="http://www.w3.org/2000/svg" viewBox="3088.09 20.8 32.04 83.21">
  <path d="M 3090.4062,85.09375 3090.3438,86.78125 C 3092.1753,86.462305 3093.8672,85.67524 3095.1875,84.25 3098.874,80.270562 3102.9908,73.792847 3102.9688,72.03125 3102.9583,71.196424 3101.668,72.525 3100.0938,75 3098.5194,77.475 3095.8494,80.81205 3094.1562,82.40625 L 3091.0938,85.3125 3090.4062,85.09375 z M 3090.1875,92.65625 3090.0938,95.25 C 3092.1517,96.221321 3094.6797,97.013257 3095.9688,97.03125 3097.365,97.05074 3099.5852,97.67411 3100.9062,98.40625 3104.1823,100.2217 3106.8977,99.287349 3107.5938,96.125 3107.912,94.678221 3108.545,92.15 3109,90.5 3109.7488,87.78461 3110.2105,83.715131 3111.5,68.375 3111.7307,65.630182 3112.585,60.908064 3113.375,57.875 3114.165,54.841936 3115.3479,48.892766 3116.0312,44.65625 3116.6113,41.060498 3117.0674,39.013397 3117.875,37.3125 L 3117.875,37.03125 3118.125,32.65625 C 3118.1166,32.639051 3118.1323,32.582129 3118.125,32.5625 3118.0461,32.350132 3118,32.032417 3118,31.5625 3118,30.773304 3117.5286,28.860804 3116.9375,27.3125 3115.9145,24.632925 3115.7863,24.580724 3114.4688,26.375 3113.7074,27.411764 3112.8241,30.336764 3112.5,32.875 3111.7871,38.457271 3110.137,45.772391 3108.9688,48.5 3107.8751,51.053695 3104.9754,62.80294 3105.0625,64.34375 3105.132,65.573375 3111.3047,46.556354 3112.4375,41.625 3112.7999,40.047601 3113.347,39.003126 3113.6562,39.3125 3114.4648,40.12108 3111.9904,56.78546 3110.375,61.375 3109.6247,63.506649 3108.99,67.106649 3108.9688,69.375 3108.9475,71.64335 3108.1346,78.675 3107.1562,85 3105.8045,93.739327 3105.0261,96.444185 3103.9375,96.28125 3098.8898,95.525747 3092.4821,93.845069 3090.1875,92.65625 z M 3114.5,31.84375 C 3114.5547,31.875195 3114.6246,32.009375 3114.6875,32.25 3114.9391,33.2125 3114.9391,34.7875 3114.6875,35.75 3114.436,36.7125 3114.2188,35.925 3114.2188,34 3114.2188,32.55625 3114.336,31.749414 3114.5,31.84375 z"/>
</svg>
