<?xml version="1.0" encoding="UTF-8"?>
<svg xmlns="http://www.w3.org/2000/svg" viewBox="4259.47 14.65 33.4 89.41">
  <path d="M 4261.4688,79.375 4261.5,79.46875 4261.5,84.78125 C 4262.4271,84.969279 4262.9905,85.502242 4262.9688,86.71875 4262.9479,87.887901 4262.3784,88.932522 4261.5,89.9375 L 4261.5,93.6875 C 4262.196,93.838517 4262.7697,94.626659 4263.875,96.5 4265.0103,98.424261 4266.3381,100 4266.8438,100 4269.5403,100 4284.268,89.236161 4286,86 4287.7141,82.79705 4287.1214,79.569689 4283.9062,74.5 L 4280.8125,69.625 4284.7812,65.96875 C 4290.7315,60.474565 4290.8664,59.043397 4285.9688,50.9375 4283.6533,47.105317 4281.3576,43.704519 4280.875,43.40625 4279.8607,42.779381 4280.7177,38.777088 4282.6562,35.0625 4285.4644,29.681434 4283.5256,25.346276 4276.8438,21.9375 4270.5312,18.717064 4267.8978,19.54866 4265.6562,25.5 4264.056,29.748662 4263.722,34.179956 4263.3438,54.9375 4263.067,70.130011 4263.2759,76.060216 4261.4688,79.375 z M 4272.25,24.03125 C 4273.2124,23.992176 4274.9129,24.471301 4277.375,25.5 4281.6339,27.279474 4282.283,30.025832 4279.875,36.1875 4278.0232,40.925999 4276.4522,40.212797 4274.3125,33.65625 4273.2078,30.271076 4271.983,26.7125 4271.5625,25.75 4271.078,24.641016 4271.2876,24.070324 4272.25,24.03125 z M 4268.5312,26.03125 C 4270.8196,26.83257 4273.8067,39.440036 4274.6875,55 4275.2555,65.033674 4273.8486,78.992321 4271.4062,87.75 4270.2729,91.813576 4269.4951,93 4267.9688,93 4266.32,93 4265.9938,92.303141 4265.9688,88.75 4265.7639,59.669453 4266.0368,32.302137 4266.5625,29.5 4267.0656,26.818583 4267.7685,25.764143 4268.5312,26.03125 z M 4278.9375,47 C 4280.1126,47 4286,56.901646 4286,58.875 4286,60.884081 4279.4554,67.595901 4278.7188,66.34375 4277.9031,64.957392 4278.1076,47 4278.9375,47 z M 4278.0938,72 C 4279.5615,72 4284,79.795267 4284,82.375 4284,83.888985 4282.6836,85.96161 4280.4688,87.90625 4275.128,92.595451 4272.8902,92.06043 4274.9688,86.59375 4275.5008,85.194504 4276.0015,82.355309 4276.0938,80.28125 4276.3276,75.022994 4277.0601,72 4278.0938,72 z"/>
</svg>
