<?xml version="1.0" encoding="UTF-8"?>
<svg xmlns="http://www.w3.org/2000/svg" viewBox="2971.07 14.22 64.94 91.84">
  <path d="M2985.0 92.249556C2985.0 91.836812 2986.7968 89.533482 2988.9928 87.131044C2993.4213 82.286316 2992.8355 82.299733 3003.5 86.798756C3009.954 89.521495 3010.6993 89.636689 3013.055 88.275517C3016.196 86.460537 3019.984 79.5444 3020.6761 74.360515C3021.3253 69.499016 3019.8416 63.593184 3017.8761 63.21466C3017.0525 63.056041 3013.7407 64.716617 3010.5166 66.90483C2999.5289 74.362189 2991.3892 74.310003 2985.6192 66.745206C2982.9055 63.187318 2980.3949 55.775786 2980.1365 50.559601C2980.0564 48.942382 2979.0554 46.623376 2977.9119 45.406256C2975.472 42.809087 2974.0211 37.30525 2974.1141 31.0C2974.1735 26.971622 2974.3203 27.272012 2975.5145 33.866188C2976.5124 39.376944 2977.5332 41.947134 2979.5671 44.070009C2981.7756 46.375227 2982.4073 48.18278 2982.9339 53.70382C2983.643 61.137731 2986.7106 67.086346 2990.7971 68.95154C2995.8394 71.25304 3001.1874 70.226728 3008.7828 65.5C3019.8432 58.616899 3022.5104 59.668746 3022.4852 70.903695C3022.473 76.331114 3021.9414 78.460779 3019.4852 82.921908C3017.8433 85.903957 3015.2843 89.238067 3013.7984 90.331041L3011.0968 92.318265L3005.2984 90.08375C2992.5711 85.179058 2993.3462 85.21631 2989.4725 89.323114C2986.0033 93.00115 2985.0 93.657619 2985.0 92.249556Z M2983.0049 41.505884C2980.197 38.12254 2979.5768 25.0 2982.2248 25.0C2982.8417 25.0 2982.9749 26.681789 2982.5712 29.373891C2982.1132 32.427679 2982.4186 35.005623 2983.5828 37.915378C2985.3653 42.37028 2985.0984 44.028437 2983.0049 41.505884Z M3025.5565 94.75L3022.7578 90.5L3026.0456 81.110803C3031.1035 66.666465 3030.4211 59.132609 3023.2801 50.579113C3021.3055 48.213984 3020.9619 46.977226 3021.4741 44.079113C3022.5327 38.088974 3022.8864 37.481362 3025.9975 36.307043C3028.4539 35.37985 3029.0 34.604037 3029.0 32.04141C3029.0 30.049071 3028.1067 28.01578 3026.5455 26.454545C3024.0522 23.961331 3021.0 23.168463 3021.0 25.014024C3021.0 26.567555 3016.6244 32.973615 3015.5538 32.987621C3015.0333 32.99443 3012.8877 31.808151 3010.7856 30.351447C3008.6836 28.894742 3006.6464 28.020257 3006.2585 28.408146C3005.0287 29.637989 3008.3912 34.329519 3012.5048 37.123193L3016.4733 39.818314L3016.7407 47.3649C3016.9923 54.463614 3016.8447 55.067097 3014.2541 57.533514C3010.7373 60.881651 3008.5554 61.724712 3001.2752 62.548369C2995.9592 63.149812 2995.084 62.976343 2992.5836 60.82558C2990.5109 59.042696 2989.6685 57.238689 2989.2739 53.737538C2988.7963 49.500712 2989.0322 48.769918 2991.6836 46.270535C2993.3002 44.746741 2994.9322 42.676842 2995.3104 41.670759C2995.9018 40.097513 2995.6094 39.926889 2993.2206 40.451542C2991.1891 40.897745 2989.8339 40.493876 2988.1742 38.947646C2986.2484 37.153492 2985.9501 35.988472 2986.2026 31.245868C2986.3662 28.172545 2986.9623 25.505863 2987.5273 25.319906C2988.1564 25.11287 2988.406 26.539714 2988.1713 29.00064C2987.9605 31.210999 2988.0785 34.176649 2988.4335 35.590972C2989.0268 37.954857 2989.3904 38.109846 2992.9368 37.510675C2995.3287 37.106576 2997.0508 37.273145 2997.4685 37.948991C2998.4367 39.51564 2996.2664 45.448963 2993.9624 47.534068C2991.614 49.659307 2991.3193 55.689611 2993.4236 58.55887C2995.7045 61.668909 3005.9443 61.003631 3011.1323 57.408336L3015.081 54.671868L3014.7905 47.595745C3014.5227 41.071664 3014.2949 40.421623 3011.8715 39.263468C3006.6725 36.778908 3001.7745 28.181556 3004.018 25.478348C3005.0384 24.248751 3005.6343 24.273984 3008.3506 25.661816C3010.0828 26.546845 3011.8599 27.884994 3012.2997 28.63548C3014.2 31.878038 3019.0 28.039677 3019.0 23.277494C3019.0 18.390528 3028.0693 21.836731 3030.4966 27.64603C3033.0619 33.785789 3032.5451 35.171733 3025.5952 40.789427C3023.8224 42.222383 3023.4278 47.528353 3025.0208 48.512874C3025.5823 48.859873 3027.3781 51.473931 3029.0114 54.321891C3032.998 61.272909 3032.9383 66.712312 3028.7325 79.719589L3025.4649 89.825035L3027.7325 93.134298C3030.0432 96.506535 3030.6575 99.0 3029.1776 99.0C3028.7253 99.0 3027.0958 97.0875 3025.5565 94.75Z M3005.0 97.513695C3001.1971 95.36059 2994.2614 94.538202 2992.4668 96.027595C2991.6335 96.719168 2990.6738 97.007128 2990.3342 96.667505C2989.579 95.912294 2994.0271 92.079513 2995.7125 92.033269C2998.4968 91.956871 3008.0 96.24042 3008.0 97.571849C3008.0 99.279104 3008.1223 99.281475 3005.0 97.513695Z M3009.0 100.05902C3009.0 99.541476 3009.45 98.839919 3010.0 98.5C3010.55 98.160081 3011.0 98.583524 3011.0 99.440983C3011.0 100.29844 3010.55 101.0 3010.0 101.0C3009.45 101.0 3009.0 100.57656 3009.0 100.05902Z M3015.5605 101.09781C3014.7044 99.71277 3015.802 96.0 3017.0674 96.0C3018.2321 96.0 3018.2587 99.043461 3017.1097 100.85676C3016.505 101.81112 3016.0455 101.88262 3015.5605 101.09781Z"/>
</svg>
