<?xml version="1.0" encoding="UTF-8"?>
<svg xmlns="http://www.w3.org/2000/svg" viewBox="1055 14.95 30.6 89.1">
  <path d="M 1082.3438 79.46875 L 1081.25 78.5 L 1082.1562 71 C 1082.6444 66.875 1083.2115 63.051568 1083.4062 62.5 C 1083.6011 61.948431 1083.3442 54.748431 1082.8438 46.5 C 1082.1244 34.643619 1081.4868 30.557591 1079.8125 27 C 1077.1327 21.306008 1075.1675 19 1072.9688 19 C 1069.8021 19 1059 30.718832 1059 34.15625 C 1059 34.958943 1060.575 37.134217 1062.5 39 C 1064.425 40.865783 1066.0053 43.307892 1066 44.4375 C 1065.9947 45.567108 1064.43 48.455216 1062.5312 50.84375 C 1060.6325 53.232284 1058.7914 56.103689 1058.4375 57.21875 C 1057.651 59.696693 1060.5865 63.969823 1064.3438 65.8125 C 1067.9534 67.582759 1067.6745 69.959807 1063.4062 74.0625 C 1060.3444 77.005506 1057 81.853505 1057 83.34375 C 1057 83.586295 1059.1718 85.970336 1061.8438 88.65625 C 1064.5155 91.342163 1067.4577 95.007396 1068.375 96.78125 C 1069.2922 98.555104 1070.6165 100 1071.3125 100 C 1072.0084 100 1073.8433 97.525 1075.375 94.5 C 1077.5186 90.266635 1078.6612 88.742935 1079.6875 89.21875 L 1080.875 84.90625 C 1080.6738 84.175067 1080.8061 83.714957 1081.25 83.53125 L 1082.3438 79.46875 z M 1073.2812 23.1875 C 1074.5703 22.937856 1075.6217 24.132764 1077.125 27.53125 C 1081.4911 37.40167 1080.2932 78.708008 1075.375 88.21875 C 1073.8479 91.171949 1072.4271 91.792956 1071.8438 89.75 C 1071.6473 89.0625 1071.5 73.866416 1071.5 56 C 1071.5 25.705117 1071.6288 23.507526 1073.2812 23.1875 z M 1068.375 26.0625 C 1068.899 26.601678 1069.233 31.320998 1069.0938 36.25 C 1069.0355 38.3125 1068.5703 40 1068.0625 40 C 1066.5856 40 1061 34.927897 1061 33.59375 C 1061 32.239723 1067.7142 25.382614 1068.375 26.0625 z M 1067.4688 51 C 1068.7899 51 1070.2241 60.293062 1069.2812 62.75 C 1069.0155 63.442714 1068.0078 64 1067.0625 64 C 1065.1843 64 1061 60.026201 1061 58.25 C 1061 56.591313 1065.9928 51 1067.4688 51 z M 1068 75.5 C 1068.545 75.836864 1069 78.989919 1069 82.5 C 1069 86.010081 1068.6692 89.084679 1068.25 89.34375 C 1067.8309 89.602821 1065.7405 88.251222 1063.625 86.3125 C 1060.2286 83.199889 1059.9043 82.512082 1060.9375 80.625 C 1062.4744 77.818107 1066.7443 74.723967 1068 75.5 z "/>
</svg>
