<?xml version="1.0" encoding="UTF-8"?>
<svg xmlns="http://www.w3.org/2000/svg" viewBox="2485.29 29.93 18.04 71.86">
  <path d="M2489.0 97.545455C2489.0 97.295455 2490.125 95.965909 2491.5 94.590909C2493.6153 92.475621 2494.0 91.160606 2494.0 86.045455C2494.0 80.223498 2492.8983 78.216568 2491.5835 81.643128C2491.2367 82.546849 2490.7143 83.047599 2490.4226 82.755908C2490.1309 82.464216 2490.8148 80.712309 2491.9424 78.86278C2494.4582 74.736159 2494.6783 68.479001 2492.3535 67.177935C2490.8248 66.322428 2490.8248 66.088275 2492.3535 63.905739C2495.4157 59.53373 2493.8862 53.189685 2490.4562 56.036355C2488.3167 57.811977 2488.6738 56.569429 2491.5 52.404862C2495.5162 46.486606 2494.3653 40.634689 2490.0365 44.963525C2487.2908 47.709176 2487.4588 46.403958 2490.3415 42.594391C2491.6292 40.892476 2492.9878 38.2625 2493.3605 36.75C2494.2366 33.194404 2495.9949 33.194404 2496.0173 36.75C2496.0275 38.376444 2497.0687 40.4812 2498.5657 41.901571C2500.2633 43.512242 2500.7655 44.63446 2500.0908 45.309189C2499.4161 45.983919 2498.5768 45.893679 2497.5424 45.035174C2494.9272 42.864732 2495.4411 51.776168 2498.094 54.600058L2500.188 56.829018L2498.094 57.949693C2495.4133 59.384386 2495.3668 63.366751 2498.0 66.0C2500.4666 68.46662 2500.5799 70.185036 2498.25 69.793837C2495.5886 69.346962 2496.059 76.058957 2498.8873 78.887309C2501.3354 81.335419 2500.8133 83.392905 2497.9727 82.491342C2496.3246 81.968264 2496.1182 82.476001 2496.153 86.966921C2496.1834 90.898371 2496.6185 92.260641 2498.0961 93.05144C2499.1433 93.61185 2500.0 94.729535 2500.0 95.535184C2500.0 97.204669 2498.4255 97.497419 2497.5 96.0C2496.5947 94.53513 2494.0773 94.779876 2492.3571 96.5C2490.9338 97.923352 2489.0 98.525557 2489.0 97.545455Z"/>
</svg>
