<?xml version="1.0" encoding="UTF-8"?>
<svg xmlns="http://www.w3.org/2000/svg" viewBox="1481.98 16 29.92 88">
  <path d="M 1509.9062,28.09375 C 1509.8485,28.09262 1509.5871,28.243376 1509.5625,28.21875 1509.2576,27.913881 1509,26.657124 1509,25.40625 1509,24.155376 1508.55,22.839919 1508,22.5 1507.3567,22.1024 1506.9624,26.090405 1506.9062,33.6875 1506.795,48.757763 1506.2214,56.153572 1505.0938,57.28125 1503.8914,58.483585 1499.0264,55.23073 1498,52.53125 1497.5553,51.361532 1497.507,46.514676 1497.875,41.78125 1498.2431,37.047823 1498.3004,30.556985 1498,27.34375 1497.5781,22.831766 1497.2633,25.029304 1496.6562,37 L 1495.875,52.5 1492.4688,55.96875 C 1490.1458,58.323168 1488.6922,59.098378 1488,58.40625 1486.9234,57.329572 1486.4264,35.614867 1487.25,25.75 1487.514,22.5875 1487.376,20 1486.9375,20 1483.9828,20 1484.6315,67.056948 1487.7812,81.0625 1489.7565,89.845296 1490.8341,92.484984 1494.3438,97.25 1495.4578,98.7625 1496.7484,100 1497.1875,100 1499.108,100 1504.1785,82.912298 1505.5,72 1505.8664,68.975 1506.5744,64.845397 1507.0938,62.8125 1507.6132,60.779603 1508.2844,54.254603 1508.5625,48.3125 1508.9172,40.735074 1509.2137,36.6104 1509.8125,33.96875 L 1509.9062,28.09375 z M 1496.625,57 C 1499.3154,57 1504.4316,62.416777 1503.6562,64.4375 1502.8974,66.414855 1500.6158,66.446943 1499,64.5 1497.2353,62.373713 1495.696,62.630275 1493,65.5 1490.0651,68.624108 1488,68.69646 1488,65.6875 1488,62.8708 1493.8361,57 1496.625,57 z M 1496.25,66.15625 C 1497.4781,66.057418 1498.6838,66.752138 1500.4688,68.15625 1502.5501,69.793425 1503.0651,70.91816 1502.6875,72.90625 1502.4155,74.338942 1501.6903,78.361982 1501.0625,81.875 1500.4347,85.388018 1499.2727,89.775518 1498.5,91.625 1497.7272,93.474482 1496.6978,95 1496.1875,95 1494.9909,95 1491,85.773382 1491,83 1491,81.83301 1490.4815,78.814298 1489.8438,76.28125 1488.7057,71.761579 1488.7275,71.628126 1491.8438,68.84375 1493.7475,67.142792 1495.0219,66.255082 1496.25,66.15625 z"/>
</svg>
