<?xml version="1.0" encoding="UTF-8"?>
<svg xmlns="http://www.w3.org/2000/svg" viewBox="1384.95 17.82 18.9 81.65">
  <path d="M 1388.5312 51.9375 L 1389.2188 53.53125 L 1388.625 57.375 C 1388.8585 57.837625 1389 58.490743 1389 59.46875 C 1389 60.319656 1388.6697 61.118785 1387.9062 62 L 1387.0938 67.15625 C 1388.8499 67.890587 1388.9335 73.003837 1387.4375 85.90625 C 1386.9454 90.150164 1387.0485 92.101749 1387.7188 91.6875 C 1389.7058 90.459438 1391.056 73.092788 1391.3125 45.8125 C 1391.5026 25.604168 1391.9915 24.123813 1394.7188 35.375 C 1397.3695 46.310667 1398.6391 60.569039 1398.4375 76.96875 C 1398.2599 91.419065 1398.7951 95.763137 1400.4062 93.15625 C 1400.7049 92.672941 1401.1843 85.133053 1401.4688 76.40625 C 1401.8477 64.773744 1401.582 58.14456 1400.4688 51.53125 C 1397.1802 31.994457 1393.5046 21.531828 1390.1875 22.21875 C 1389.1963 22.424018 1388.5754 23.385722 1388.6875 24.53125 C 1388.793 25.610177 1388.9686 32.090801 1389.0625 38.90625 L 1389.2188 51.28125 L 1388.5312 51.9375 z "/>
</svg>
