<?xml version="1.0" encoding="UTF-8"?>
<svg xmlns="http://www.w3.org/2000/svg" viewBox="1222.6 14.25 24.61 88.14">
  <path d="M 1240.0312 46.8125 C 1240.0261 46.806128 1239.9734 46.787436 1239.9688 46.78125 C 1239.6744 46.389981 1238.8511 43.239981 1238.125 39.78125 C 1235.6925 28.194633 1234.9508 26.092433 1232.375 23.03125 C 1228.3562 18.255168 1226.481 19.219952 1230 24.25 C 1231.6354 26.5875 1233.4911 30.975 1234.0938 34 C 1237.0644 48.909623 1237.9747 54.959732 1238 60 C 1238.0152 63.025 1238.6801 70.864272 1239.5 77.4375 C 1241.1381 90.570986 1240.7698 92.113153 1236.4062 90.125 C 1234.2177 89.127829 1233.3161 89.197922 1231.2812 90.53125 C 1229.9261 91.419186 1228.6016 91.945335 1228.3438 91.6875 C 1228.0858 91.429664 1228.438 85.448611 1229.125 78.375 C 1231.1164 57.87101 1230.2588 31.328812 1227.4062 25.8125 C 1226.556 24.168235 1225.6761 22.980109 1225.4688 23.1875 C 1225.2614 23.394891 1225.5702 28.275029 1226.1562 34.03125 C 1227.2098 44.377917 1226.6837 85.139273 1225.4062 91.75 C 1224.6032 95.905476 1226.9354 97.065334 1230.125 94.09375 C 1232.9308 91.479747 1235.0403 91.45076 1238.2812 94 C 1243.8545 98.383923 1245.2175 95.554712 1243.9062 82.40625 C 1243.3625 76.954132 1242.4828 70.536489 1241.9375 68.125 C 1241.3922 65.713511 1241.13 63.526208 1241.375 63.28125 C 1241.4447 63.211525 1241.9734 63.551006 1242.1875 63.59375 L 1241.6875 62.03125 L 1240.0312 46.8125 z "/>
</svg>
