<?xml version="1.0" encoding="UTF-8"?>
<svg xmlns="http://www.w3.org/2000/svg" viewBox="3779.7 13.91 50.57 90.05">
  <path d="M3787.7075 96.048018C3783.4868 92.342236 3782.0 87.448308 3782.0 77.261625C3782.0 71.454698 3782.6791 67.175022 3784.472 61.682654C3786.8403 54.427537 3786.8758 53.950475 3785.3183 50.305009C3783.3007 45.582681 3783.305 35.926275 3785.3271 30.364254C3787.7401 23.727096 3791.7777 18.0 3794.0439 18.0C3797.195 18.0 3797.3706 20.21578 3795.1209 31.587751C3792.7245 43.700645 3792.9898 44.851203 3799.3378 49.880443C3805.1704 54.501427 3806.976 54.76231 3809.704 51.378278C3814.0708 45.961582 3814.8488 39.430194 3811.9617 32.426356C3809.5624 26.606054 3813.8211 19.243324 3818.8634 20.494191C3826.1516 22.302218 3827.972 29.175009 3823.5 38.0C3822.125 40.713432 3821.0 44.170927 3821.0 45.683323C3821.0 49.354008 3818.2124 56.761872 3815.3749 60.631722C3812.4155 64.667836 3809.2455 65.399144 3803.3646 63.402497C3798.9833 61.915012 3798.5331 61.917979 3797.419 63.441684C3794.3344 67.660036 3794.0444 82.379868 3796.9865 85.388945C3799.5901 88.051777 3801.3421 86.973634 3805.2336 80.313722C3810.2286 71.765378 3813.9528 71.93794 3813.9847 80.719206C3813.9931 83.03977 3814.936 86.734251 3816.0801 88.929165C3819.5751 95.634537 3816.5257 99.404365 3809.6251 96.909077C3806.7966 95.886261 3805.5639 95.957339 3802.1009 97.342932C3795.7906 99.86784 3791.6319 99.493702 3787.7075 96.048018Z M3802.0992 94.886493C3806.9922 93.193169 3808.6922 92.994361 3810.6502 93.886493C3815.9822 96.315908 3817.742 93.92017 3814.2598 88.972506C3813.3028 87.612628 3812.2903 84.285617 3812.0098 81.579148C3811.7294 78.87268 3811.0161 76.498866 3810.4246 76.304006C3809.8331 76.109146 3808.1875 78.641933 3806.7677 81.932422C3804.0098 88.324188 3801.6109 89.872106 3796.4646 88.580479C3792.8532 87.674059 3791.7213 83.84139 3792.2797 74.40964C3792.7593 66.310891 3793.622 63.520842 3796.5533 60.589561C3797.9704 59.17247 3798.4714 59.170686 3801.8098 60.57084C3806.3422 62.471723 3810.9804 61.753845 3813.6734 58.73469C3815.9784 56.150362 3819.0 48.465032 3819.0 45.186435C3819.0 43.95075 3820.125 40.266854 3821.5 37.0C3824.6712 29.465614 3824.6686 26.671073 3821.4881 24.169309C3818.4365 21.768883 3815.6279 22.326499 3814.1219 25.631807C3812.583 29.009308 3812.7137 31.146198 3814.626 33.876493C3816.5432 36.613588 3815.9216 45.317159 3813.4705 50.057124C3811.5324 53.804874 3808.0656 57.0 3805.9372 57.0C3803.2352 57.0 3793.245 49.036108 3791.601 45.571534C3790.2266 42.675267 3790.2748 41.75578 3792.1581 34.950385C3794.7447 25.603216 3795.4573 20.400645 3794.2529 19.656302C3791.8224 18.154153 3785.6667 31.653585 3785.6667 38.485867C3785.6667 40.711267 3786.4388 44.999837 3787.3825 48.016024C3789.0801 53.442036 3789.0713 53.582242 3786.5491 61.280897C3783.8252 69.595398 3783.4888 74.656895 3784.9728 85.0C3785.7415 90.357516 3786.4438 91.983358 3788.9685 94.25C3792.6501 97.555352 3794.1739 97.629213 3802.0992 94.886493Z"/>
</svg>
