<?xml version="1.0" encoding="UTF-8"?>
<svg xmlns="http://www.w3.org/2000/svg" viewBox="1110.56 30.07 26.44 73.26">
  <path d="M 1112.6562,34.6875 1112.5625,37.59375 C 1113.1351,37.17739 1113.7392,36.764131 1114.3125,36.5625 1116.6655,35.735023 1117.4003,35.964134 1119.375,38.09375 1120.6496,39.468397 1122.0134,42.312201 1122.4062,44.40625 1122.799,46.500299 1123.386,47.957764 1123.6875,47.65625 1123.989,47.354736 1123.6735,44.807291 1123,42 1121.563,36.009792 1118.5406,33.403548 1114.25,34.4375 1113.8311,34.538446 1113.1975,34.58593 1112.6562,34.6875 z M 1124.625,54.90625 C 1124.2874,54.210601 1124.195,56.309253 1124.125,62.21875 1124.0213,70.975525 1123.7836,72.026472 1121.9062,73.03125 1118.8878,74.64665 1115.0165,83.654863 1115.0312,89 1115.0451,94.00285 1117.0639,97.361807 1121,98.90625 1122.375,99.44577 1124.4617,99.902637 1125.625,99.9375 1127.9396,100.00687 1133,96.490246 1133,94.8125 1133,94.181132 1132.3698,94.257548 1131.4375,95.03125 1130.1669,96.085791 1129.652,96.065345 1128.5938,94.90625 1117.2764,82.511347 1117.8614,83.398337 1119.125,80.625 1119.78,79.187417 1120.6817,78 1121.125,78 1121.9744,78 1131.6171,90.35109 1132.25,92.25 1133.0871,94.761065 1135.0052,91.578922 1135,87.6875 1134.9913,81.150339 1133.3146,76.697294 1129.5,73 1126.5282,70.119603 1125.9863,68.918345 1125.9375,65.0625 1125.9058,62.557892 1125.5175,58.7 1125.0625,56.5 1124.8947,55.688937 1124.7375,55.138133 1124.625,54.90625 z M 1126.9062,74.125 C 1129.1396,74.65047 1131.6637,78.469161 1132.8438,83.75 1133.3661,86.0875 1133.4085,88 1132.9375,88 1132.4664,88 1130.2147,85.259557 1127.9375,81.90625 1125.0817,77.700919 1124.1292,75.495732 1124.8438,74.78125 1125.4656,74.159366 1126.1618,73.949843 1126.9062,74.125 z M 1117.1875,86.375 C 1118.5261,85.547669 1127.2355,94.800111 1126.6875,96.46875 1125.8808,98.925008 1122.1934,97.959115 1119.1562,94.5 1115.896,90.786859 1115.1279,87.647875 1117.1875,86.375 z"/>
</svg>
