<?xml version="1.0" encoding="UTF-8"?>
<svg xmlns="http://www.w3.org/2000/svg" viewBox="2248.06 11.62 24.46 91.55">
  <path d="M 2250.6875,50.09375 2250.9688,50.71875 2250.625,55.71875 C 2250.8573,56.307857 2250.9968,57.043007 2250.8438,58.125 2250.7752,58.609573 2250.6249,59.031444 2250.4062,59.40625 L 2250.0625,64.5625 C 2250.594,64.974519 2251.0539,68.859873 2251.125,73.3125 2251.3148,85.204511 2252.3787,96.091117 2253.3125,95.78125 2254.2605,95.466649 2254.2849,36.436098 2253.3438,27.21875 2252.1754,15.776774 2251,19.654296 2251,34.90625 L 2251,49.9375 2250.6875,50.09375 z M 2259.2018,58.377334 C 2259.1188,29.170885 2259.3743,19.974338 2260.2446,20.844582 2261.8368,22.43683 2261.9936,96.16461 2260.4058,96.696339 2259.6274,96.95703 2259.28,85.899449 2259.2018,58.377334 z M 2267.2202,67.75 C 2267.3741,50.5625 2267.3239,32.9 2267.1087,28.5 2266.8934,24.1 2267.1184,20.377481 2267.6087,20.227736 2269.2179,19.736191 2270.1095,34.038769 2270.3063,63.5 2270.5251,96.256915 2270.3748,99 2268.3608,99 2267.1579,99 2266.9832,94.214339 2267.2202,67.75 z"/>
</svg>
