<?xml version="1.0" encoding="UTF-8"?>
<svg xmlns="http://www.w3.org/2000/svg" viewBox="1633 12.4 38.69 90.23">
  <path d="M 1669.6875 85.15625 C 1669.6532 85.128658 1669.6291 85.123103 1669.5938 85.09375 C 1668.7168 84.366015 1668 83.184206 1668 82.46875 C 1668 81.753293 1666.785 79.718761 1665.3125 77.96875 C 1662.6807 74.841088 1662.6645 74.679486 1663.75 67.65625 C 1665.0391 59.315957 1664.9703 60.425534 1665.0938 47 C 1665.1468 41.225 1664.6951 34.088444 1664.0938 31.125 C 1662.7347 24.426541 1658.0473 16.5 1655.4375 16.5 C 1653.2768 16.5 1649.8429 22.108356 1647.0312 30.25 C 1645.8187 33.761344 1644.22 36.162859 1642.2188 37.5 C 1637.9774 40.333795 1635 45.057149 1635 48.9375 L 1635 52.28125 L 1639.4062 51.65625 L 1643.8438 51.0625 L 1644.5625 58.78125 C 1644.9582 63.027011 1645.8371 68.119571 1646.5312 70.09375 C 1647.6977 73.411428 1647.5929 74.009154 1645.0312 78.125 C 1641.5505 83.717243 1639.6628 91.963268 1641.0312 95.5625 C 1642.159 98.528531 1643.9796 98.365053 1645.5938 95.15625 C 1646.1997 93.951656 1647.9142 91.608222 1649.375 89.96875 C 1653.142 85.740935 1656.1404 86.057037 1660.1875 91.09375 C 1662.823 94.373632 1665.4045 96.4575 1667.9062 97.40625 L 1668.375 94.0625 C 1666.6969 93.146411 1664.8304 91.642888 1662.5938 89.40625 C 1657.7005 84.512898 1656.6496 83.877513 1654.25 84.46875 C 1652.7374 84.841452 1650.1137 86.450546 1648.4375 88.0625 C 1644.5524 91.798758 1644 91.763685 1644 87.65625 C 1644 85.355858 1645.1153 82.820397 1647.5312 79.65625 C 1650.9153 75.224298 1651.0089 74.912421 1649.6875 71.75 C 1646.7645 64.754193 1645.1876 43.470105 1647.375 40.5 C 1648.8399 38.510839 1648.8366 38.512194 1651.2188 40.75 C 1654.0446 43.404696 1656.6956 43.611253 1659.8438 41.40625 C 1661.1016 40.525151 1662.3725 40.060053 1662.6875 40.375 C 1663.6163 41.303862 1663.183 58.552248 1662.125 62.6875 C 1661.5899 64.778711 1660.8612 68.804867 1660.5 71.625 C 1659.8901 76.386426 1660.0617 77.001482 1662.9688 80.3125 C 1664.6907 82.273575 1666.37 85.481208 1666.6875 87.4375 C 1667.0049 89.393792 1667.8117 91 1668.5 91 C 1668.588 91 1668.7751 90.833959 1668.875 90.8125 L 1669.6875 85.15625 z M 1654.9688 20 C 1656.5262 20 1659.7855 25.732641 1661.5312 31.5 C 1662.9918 36.324741 1662.9715 36.561341 1660.9062 38.25 C 1657.68 40.888052 1654.5368 40.415622 1651.5312 36.84375 C 1649.5312 34.466691 1649.0168 33.044318 1649.5 31.09375 C 1650.6254 26.550532 1653.8602 20 1654.9688 20 z M 1643.5938 41 C 1644.2292 41 1644.0945 45.612967 1643.4062 47.40625 C 1642.8514 48.852054 1637 49.793733 1637 48.4375 C 1637 45.775318 1641.242 41 1643.5938 41 z "/>
</svg>
