<?xml version="1.0" encoding="UTF-8"?>
<svg xmlns="http://www.w3.org/2000/svg" viewBox="1819.13 12.87 59.64 90.53">
  <path d="M1826.149 97.679567C1822.7094 93.535063 1822.3453 70.911337 1825.593 63.127876C1827.3914 58.817649 1827.3744 55.979489 1825.5342 53.352286C1823.911 51.034832 1821.8371 43.0 1822.8622 43.0C1823.2195 43.0 1824.0534 44.2375 1824.7153 45.75C1825.3772 47.2625 1826.8114 50.531957 1827.9024 53.015461C1829.872 57.49894 1829.8723 57.572639 1827.943 63.420687C1826.4793 67.857678 1826.0 72.108763 1826.0 80.655226C1826.0 92.261587 1827.3736 95.897093 1828.4916 87.25C1829.9296 76.128523 1831.4129 68.817585 1832.5455 67.26864C1833.6727 65.727094 1833.9387 65.729828 1836.3469 67.307713C1839.8005 69.570632 1849.0 81.815211 1849.0 84.149131C1849.0 85.167109 1849.5125 86.0 1850.1389 86.0C1850.9241 86.0 1851.1095 84.144618 1850.736 80.02516C1850.2365 74.516367 1847.9385 69.145912 1844.6165 65.723477C1841.4548 62.466161 1836.767 54.892377 1834.9455 50.098604C1833.0342 45.068685 1833.0082 44.497369 1834.4913 40.131421C1837.1444 32.321302 1838.0632 31.614531 1844.5692 32.379184C1851.2901 33.169094 1853.1628 34.063593 1858.7277 39.141948C1863.5089 43.505203 1865.6634 43.893871 1868.8114 40.961045C1873.1128 36.953725 1870.6416 27.185562 1864.9499 25.697153C1863.6035 25.34507 1862.1076 25.892375 1860.7756 27.224377C1859.1068 28.893219 1858.3859 29.069751 1857.0998 28.124561C1853.5711 25.531219 1844.631 21.760189 1840.7902 21.245031C1833.4353 20.258529 1826.2672 26.394897 1824.1364 35.501924L1823.2009 39.5L1823.1005 35.863953C1822.9788 31.460902 1829.5038 21.002766 1833.5119 19.176525C1838.3171 16.987157 1846.8929 18.563694 1855.0175 23.13002C1858.2281 24.934427 1859.1804 25.095145 1860.4447 24.045883C1861.4403 23.219598 1863.2261 23.007435 1865.5367 23.440914C1876.0598 25.415059 1875.071 45.0 1864.4482 45.0C1861.8489 45.0 1860.2048 44.11078 1857.2871 41.126888C1852.6968 36.432359 1850.8411 35.449903 1844.9532 34.597024C1841.0186 34.027082 1840.1284 34.245482 1838.3413 36.219205C1837.2054 37.473642 1836.0227 39.544505 1835.7131 40.821122C1834.8691 44.300481 1837.5091 51.957484 1841.4768 57.538093C1843.4145 60.263625 1845.0 62.797928 1845.0 63.169879C1845.0 63.54183 1846.3106 65.156735 1847.9124 66.758556C1849.5409 68.387005 1851.5364 72.057987 1852.4389 75.085479C1855.1394 84.144256 1851.8088 99.28386 1848.3329 93.75C1847.901 93.0625 1847.4471 90.991027 1847.324 89.146726C1847.1935 87.189933 1845.4068 83.233631 1843.0337 79.646726C1835.5409 68.321213 1833.4946 66.791628 1832.4696 71.75C1832.157 73.2625 1831.4124 76.154041 1830.815 78.175647C1830.2177 80.197253 1829.9932 82.539779 1830.3161 83.381261C1831.0103 85.190431 1829.233 97.14748 1828.0996 98.292382C1827.6682 98.728192 1826.7904 98.452425 1826.149 97.679567Z"/>
</svg>
