<?xml version="1.0" encoding="UTF-8"?>
<svg xmlns="http://www.w3.org/2000/svg" viewBox="3954.47 13.85 25.1 92.01">
  <path d="M3961.7814 99.25C3957.2974 94.116353 3956.4689 77.432126 3960.1674 66.74504C3962.0691 61.249965 3962.1796 59.93198 3961.1544 54.968542C3958.9886 44.482668 3960.2459 34.121072 3964.9425 23.75C3967.2344 18.689022 3968.7835 18.032987 3973.4363 20.152942C3976.9487 21.753265 3977.5731 26.307679 3975.6136 36.032558C3973.606 45.996095 3973.5982 48.621558 3975.56 54.124273C3977.2822 58.954696 3976.9425 62.247924 3974.0877 68.400801C3968.9971 79.372347 3967.8062 83.520978 3967.4851 91.400238C3967.3036 95.855107 3967.1202 99.8375 3967.0775 100.25C3966.93 101.67751 3963.3037 100.99281 3961.7814 99.25Z M3964.3649 88.552479C3965.0414 82.796701 3969.255 70.066598 3971.7381 66.27699C3972.7623 64.713795 3973.0224 62.72468 3972.5898 59.763289C3970.7571 47.217392 3970.8014 42.292055 3972.8106 35.191983C3974.7976 28.170717 3974.7265 24.209958 3972.5877 22.765313C3970.0746 21.067832 3967.9597 22.158597 3965.8871 26.221277C3963.7274 30.454759 3963.2633 38.887269 3964.083 59.002586C3964.2372 62.785263 3963.7288 65.598336 3962.4565 68.002586C3961.092 70.580988 3960.5918 73.733537 3960.5529 80.0C3960.4695 93.405196 3963.1007 99.308505 3964.3649 88.552479Z"/>
</svg>
