<?xml version="1.0" encoding="UTF-8"?>
<svg xmlns="http://www.w3.org/2000/svg" viewBox="2438.91 13.26 36.77 86.68">
  <path d="M 2440.9062 82.34375 L 2441.4688 85.375 C 2441.9359 85.396244 2442.3958 85.452709 2442.8125 85.34375 C 2445.1776 84.72526 2451 76.613162 2451 73.9375 C 2451 72.998963 2451.6128 70.729668 2452.375 68.875 C 2453.1525 66.983052 2454.071 59.540332 2454.4688 51.90625 C 2455.0915 39.954438 2454.9946 38.225041 2453.5938 37.6875 C 2451.2693 36.795523 2451.6497 32.654384 2454.5625 26.90625 C 2456.2048 23.665402 2457.6373 21.98531 2458.625 22.1875 C 2460.0988 22.489211 2466 34.761063 2466 37.53125 C 2466 38.27181 2464.7625 39.494596 2463.25 40.21875 C 2460.8265 41.379064 2460.4063 42.282419 2459.6875 48 C 2456.3628 74.443729 2452.8988 86.579166 2447.4375 90.875 C 2445.5941 92.325014 2444.4131 92.982255 2442.8125 92.75 L 2443.375 95.8125 C 2443.5381 95.838741 2443.8776 96 2444 96 C 2451.5439 96 2460.0113 75.756601 2461.5938 53.90625 C 2462.3054 44.080924 2463.0555 42 2466 42 C 2467.9895 42 2469 40.085143 2469 36.25 C 2469 34.825791 2469.6892 32.899127 2470.5312 31.96875 C 2472.6238 29.656443 2473.6757 20.523707 2471.9688 19.46875 C 2471.1603 18.969053 2470.0373 19.485473 2468.9375 20.84375 C 2466.6342 23.68811 2464.228 23.57071 2461.8125 20.5 C 2459.2161 17.199157 2457.2953 17.350556 2455.2188 21 C 2454.2818 22.646523 2453.1703 23.996523 2452.75 24 C 2452.3298 24.003478 2450.6742 22.549966 2449.0938 20.78125 C 2446.6124 18.00408 2446.0176 17.750515 2444.625 18.90625 C 2442.1723 20.941845 2442.4329 29.179692 2445.0312 31.53125 C 2446.1488 32.542533 2446.9363 34.258273 2446.7812 35.34375 C 2446.5928 36.663549 2447.4938 37.874251 2449.5 39 C 2452.3814 40.616885 2452.5 40.957527 2452.5 47.59375 C 2452.5 65.22358 2450.1762 75.536837 2445.0938 80.40625 C 2443.4503 81.980724 2442.2467 82.650164 2440.9062 82.34375 z M 2446.4688 23 C 2448.4263 23 2451.3891 27.590481 2450.6562 29.5 C 2449.9608 31.312266 2447.8373 31.462277 2446.1875 29.8125 C 2444.4435 28.068458 2444.6537 23 2446.4688 23 z M 2470.8125 23.40625 C 2471.35 23.976283 2471.0884 25.705807 2469.8438 28.4375 C 2468.503 31.379972 2467.7321 31.593585 2465.9688 29.46875 C 2464.9159 28.200075 2465.1057 27.518358 2467.0312 25.46875 C 2468.938 23.439188 2470.275 22.836217 2470.8125 23.40625 z "/>
</svg>
