<?xml version="1.0" encoding="UTF-8"?>
<svg xmlns="http://www.w3.org/2000/svg" viewBox="97.29 17.12 26.08 82.66">
  <path d="M 114.71875 78.03125 C 114.69974 76.806512 115.07731 75.178927 116.03125 72.40625 C 117.60979 67.81815 117.89983 65.18179 117.40625 59.3125 C 117.04079 54.966633 117.19333 51.482283 117.78125 50.75 C 119.99786 47.989131 121.37324 31.535972 119.78125 26.84375 C 119.2862 25.384647 118.00766 23.405976 116.9375 22.4375 C 115.30691 20.961828 114.62745 20.87271 112.75 21.90625 C 110.24906 23.283028 105.51 30.184854 103.875 34.875 C 102.65929 38.362381 103.09397 46.70117 104.9375 55.5 C 106.4475 62.706973 105.89142 67.510819 102.5625 75.5 C 99.906405 81.874427 99.289484 89.012557 101.03125 93.59375 C 101.75904 95.50797 102.38436 96.02189 103.125 95.28125 C 103.86564 94.54061 103.84358 93.580342 103.03125 92.0625 C 101.65332 89.487807 102.6019 80.024518 104.625 76.125 C 107.90416 69.80441 108.38859 63.65537 106.59375 51 C 105.64984 44.344467 105.16479 37.44565 105.53125 35.6875 C 106.33542 31.829395 112.00399 23.067288 113.71875 23.03125 C 118.13368 22.938466 119.58616 36.179097 116.5 48.375 C 115.53417 52.191804 114.99504 56.959903 115.28125 59.09375 C 115.90611 63.752461 114.76735 69.341777 111.40625 78 C 108.70804 84.950606 108.35585 93.961912 110.75 94.75 C 111.64096 95.043279 111.81728 94.305127 111.375 92.09375 C 111.03359 90.38672 111.0477 89.477027 111.71875 89.28125 L 111.71875 83.21875 L 114.09375 78.53125 L 114.71875 78.03125 z "/>
</svg>
