<?xml version="1.0" encoding="UTF-8"?>
<svg xmlns="http://www.w3.org/2000/svg" viewBox="2049.55 10.55 48.76 91.65">
  <path d="M 2058.9062,45.9375 2059.5625,46 2058.875,54.15625 C 2058.8782,54.203537 2058.8424,54.294067 2058.8438,54.34375 L 2058.1562,62.5 2057.9062,62.84375 C 2057.9398,62.857941 2058.1056,62.790728 2058.125,62.8125 2058.4628,63.190758 2059.2798,65.725372 2059.9375,68.4375 2061.0323,72.951491 2060.9475,73.585953 2059.0312,75.9375 2054.82,81.104962 2051.767,88.88466 2052.4688,92.625 2053.3564,97.35639 2055.6556,98.032532 2058.5,94.40625 2064.9145,86.228637 2064.5599,86.484326 2067.4062,87.78125 2069.1362,88.56944 2070.2505,90.033358 2070.6562,92.0625 2070.9969,93.765852 2071.9203,95.424317 2072.6875,95.71875 2074.3821,96.369009 2077.9029,93.332595 2079.0938,90.21875 2079.9498,87.980347 2080.0642,88.015743 2085.5312,92.46875 2088.5861,94.957048 2091.5203,97 2092.0625,97 2092.6047,97 2093.53,95.7625 2094.125,94.25 2095.2446,91.404002 2094.054,84.222616 2092.0312,81.6875 2091.5062,81.029359 2089.6957,78.86736 2088.0312,76.875 L 2085.0312,73.25 2086.125,65.375 C 2086.7372,61.04236 2087.3824,54.158938 2087.5625,50.0625 2087.8123,44.383486 2088.5089,41.476003 2090.4688,37.875 2094.6861,30.126197 2096.0981,18 2092.7812,18 2092.1838,18 2090.031,19.8 2088,22 2085.969,24.2 2083.7834,26 2083.1562,26 2082.5292,26 2081.4035,24.5375 2080.6562,22.75 2077.299,14.718572 2071.5567,15.031679 2066.2812,23.53125 2065.1139,25.411879 2064.887,25.330609 2061.6562,21.75 2057.8031,17.479531 2055.4995,16.98666 2054.625,20.25 2053.272,25.298502 2054.0241,29.659649 2057.0938,34.5 2059.6685,38.559919 2060.1062,40.083668 2059.6562,43.4375 2059.5398,44.305493 2059.2583,45.133354 2058.9062,45.9375 z M 2073.4375,19.25 C 2079.6772,19.087038 2087.4122,44.092082 2085,58.71875 2082.4462,74.203634 2081.5343,77.962589 2078.9375,83.75 2077.395,87.1875 2075.5345,90.00274 2074.8125,90 2073.7325,89.995902 2067.8679,82.130746 2064.4375,76.0625 2061.5366,70.930833 2061.2296,52.236071 2063.7812,37.28125 2064.9044,30.69832 2069.3656,21.378221 2072.2188,19.625 2072.618,19.379636 2073.0215,19.260864 2073.4375,19.25 z M 2091.5,21.59375 2091.8438,24.46875 C 2092.0262,26.039755 2091.8944,28.705614 2091.5625,30.40625 2091.2306,32.106886 2090.083,34.631388 2089.0312,36 L 2087.125,38.46875 2086.0625,35.6875 C 2083.5738,29.141701 2083.6897,28.48877 2087.6875,24.96875 L 2091.5,21.59375 z M 2057.2812,22.53125 C 2058.1301,22.231497 2059.4005,22.931676 2061.0938,24.625 2063.7926,27.323748 2063.8918,27.733329 2062.8125,31.25 2062.1798,33.311508 2061.3241,35 2060.9062,35 2059.1534,35 2056,29.502313 2056,26.4375 2056,24.146214 2056.4324,22.831003 2057.2812,22.53125 z M 2061.6562,79.125 C 2062.4844,79.176163 2063.1105,79.959221 2063.8125,81.5 2064.7669,83.594879 2064.6701,84.304442 2063.1562,85.75 2062.1568,86.7044 2060.1236,88.604127 2058.6562,89.9375 L 2056,92.34375 2056,87.84375 C 2056,84.432921 2056.5582,82.835547 2058.3125,81.1875 2059.8081,79.782483 2060.8281,79.073837 2061.6562,79.125 z M 2074.25,29.6875 C 2073.1916,29.519976 2072.0487,30.56514 2070.6562,32.78125 2067.3654,38.018721 2066.7779,40.925221 2066.3125,54.0625 2065.9557,64.135011 2066.1692,66.338646 2068.0312,71.0625 2069.2076,74.047122 2070.6471,77.061127 2071.2188,77.75 2073.1355,80.059449 2075.0644,79.0325 2076.875,74.75 2078.8336,70.117324 2080.8513,60.261503 2080.8125,55.5 2080.7658,49.767039 2078.7763,37.502194 2077.3125,33.84375 2076.2716,31.242486 2075.3084,29.855024 2074.25,29.6875 z M 2073.1562,33 C 2077.0963,33 2079.5266,57.254709 2076.5938,67.34375 2074.2646,75.3557 2071.9898,75.11692 2069.7188,66.59375 2067.6333,58.76709 2067.5502,52.279227 2069.4375,43.3125 2071.171,35.076729 2071.917,33 2073.1562,33 z M 2084.9375,78.28125 C 2085.4581,78.405647 2086.1151,79.109287 2087.375,80.46875 2090.0898,83.398056 2092.5624,90.312332 2091.5,92.03125 2090.4713,93.695723 2089.2388,93.129055 2085.5625,89.34375 2081.7932,85.462537 2081.1386,82.558495 2083.375,79.5 2084.0338,78.59902 2084.4169,78.156853 2084.9375,78.28125 z"/>
</svg>
