<?xml version="1.0" encoding="UTF-8"?>
<svg xmlns="http://www.w3.org/2000/svg" viewBox="1254.28 18.92 42.41 85.28">
  <path d="M 1256.375 77.25 L 1256.2812 78.03125 L 1257.25 95.96875 L 1257.4062 96.375 C 1258.3049 94.935466 1260.1257 95.156574 1263.25 97 C 1268.875 100.31881 1274.8105 97.843603 1278.8438 90.5 C 1280.5387 87.413624 1280.6119 83.673352 1279.7812 51 C 1279.4969 39.813001 1279.5496 39.491685 1281.6875 39.1875 C 1283.3907 38.945158 1284.3624 39.788875 1285.9688 42.9375 C 1287.1087 45.171983 1288.4165 47 1288.875 47 C 1289.3335 47 1290.8619 45.909201 1292.2812 44.59375 C 1294.0602 42.944991 1294.6925 41.547107 1294.3125 40.09375 C 1294.0092 38.934201 1293.469 38 1293.0938 38 C 1292.7184 38 1291.8733 36.5375 1291.2188 34.75 C 1290.5641 32.9625 1288.4654 29.8125 1286.5625 27.75 C 1281.9878 22.791473 1278.9548 22.795178 1273.9688 27.78125 C 1268.4385 33.311395 1267.438 37.975079 1269 51 C 1270.7131 65.284921 1271.3413 77.380282 1270.5625 81.53125 C 1269.351 87.989375 1264.7972 88.126922 1258.75 81.875 C 1257.2938 80.369467 1256.7043 78.951642 1256.375 77.25 z M 1279.9688 26 C 1281.7235 26 1287.842 32.525641 1289.3438 36 C 1289.7003 36.825 1290.5152 38.237258 1291.1562 39.125 C 1292.51 40.999902 1291.6499 44.024092 1289.7812 43.96875 C 1289.0764 43.947876 1287.2573 42.147876 1285.75 39.96875 C 1282.7397 35.616631 1279.709 34.83397 1278.0312 37.96875 C 1277.3556 39.231465 1277.1099 47.95709 1277.375 62.6875 C 1277.8053 86.59354 1277.5718 88.280291 1273.125 93.34375 C 1270.4048 96.441116 1268.5494 96.999778 1265.7188 95.53125 C 1258.2108 91.636114 1257 90.558605 1257 87.78125 C 1257 84.44608 1256.8961 84.449759 1261.9688 87.09375 C 1266.4491 89.429007 1270.3156 89.090484 1271.5312 86.25 C 1273.9796 80.529432 1273.6602 61.895704 1270.875 47.8125 C 1269.2205 39.446516 1270.3898 33.672804 1274.5938 29.46875 C 1276.5008 27.561828 1278.9238 26 1279.9688 26 z "/>
</svg>
