<?xml version="1.0" encoding="UTF-8"?>
<svg xmlns="http://www.w3.org/2000/svg" viewBox="430.16 75.03 44.36 29.94">
  <path d="M 454.03125 77.03125 L 451.96875 77.0625 C 451.96978 77.193987 452 77.20383 452 77.34375 C 452 81.425142 451.81761 81.702318 447.28125 83.90625 C 444.68085 85.169621 440.39104 88.007547 437.75 90.21875 C 432.53573 94.584381 432.17871 96.78371 436.1875 100.25 C 439.33707 102.97335 442.32632 102.35028 447.375 97.90625 L 452.03125 93.8125 L 455.75 95.78125 C 457.80623 96.866296 460.94541 98.595284 462.71875 99.625 L 465.9375 101.5 L 468.34375 99 C 472.42486 94.759623 472.50681 91.658279 468.625 88.25 C 466.78032 86.630353 462.72719 84.254538 459.625 82.96875 C 454.40269 80.804223 454.05989 80.493661 454.03125 77.03125 z M 455.4375 83.125 L 461.34375 86.25 C 468.23968 89.925493 470.64567 92.912707 469.09375 95.8125 C 467.3993 98.978616 465.43194 99.020267 460.71875 96.03125 C 453.842 91.670147 452.21948 91.431648 449.15625 94.25 C 447.69537 95.594097 445.39113 97.434401 444.03125 98.34375 C 442.67138 99.253098 441.09638 99.985475 440.53125 99.96875 C 438.42965 99.906553 436 97.850815 436 96.125 C 436 93.66864 443.17234 88.099167 449.875 85.375 L 455.4375 83.125 z "/>
</svg>
