<?xml version="1.0" encoding="UTF-8"?>
<svg xmlns="http://www.w3.org/2000/svg" viewBox="2567.88 16.64 50.82 86.76">
  <path d="M2583.0091 96.510962C2581.1282 94.24461 2582.6472 88.506614 2586.0214 85.132485C2588.9063 82.247543 2588.9459 82.067334 2587.9527 76.343576C2587.3949 73.129609 2586.4584 69.375 2585.8714 68.0L2584.8042 65.5L2580.4426 70.5C2576.769 74.711192 2575.8019 75.327182 2574.3119 74.40456C2570.1948 71.855067 2571.8265 60.082081 2577.0794 54.435549C2579.4983 51.835426 2579.4967 50.449481 2577.0715 47.84636C2574.7547 45.359595 2572.5172 33.386853 2573.445 28.441226C2574.3563 23.583683 2576.4344 24.020431 2583.4197 30.53758C2586.6756 33.575222 2589.637 35.709439 2590.0007 35.280283C2590.3644 34.851127 2591.4907 31.666002 2592.5037 28.202226C2594.5146 21.326552 2595.1058 20.581411 2597.8572 21.454674C2600.0713 22.157412 2602.0 26.0686 2602.0 29.855923C2602.0 31.374923 2602.5994 33.437503 2603.3321 34.439434C2604.5676 36.129123 2604.9842 35.88939 2609.0821 31.131054C2615.5063 23.671264 2616.3918 24.059558 2616.1679 34.238132C2616.0589 39.19298 2614.4082 43.303084 2610.3494 48.725986L2607.9349 51.951972L2609.9409 55.88422C2612.7067 61.305571 2613.5274 67.312457 2612.0047 70.988699C2610.3383 75.011644 2608.2278 74.789498 2606.3929 70.398021C2605.2649 67.698303 2604.4245 66.917224 2603.038 67.279824C2601.6882 67.632797 2601.0636 67.113136 2600.7281 65.357936C2600.4752 64.034817 2600.6538 62.713947 2601.1251 62.42267C2602.3679 61.654618 2606.6771 65.099502 2607.9795 67.902126C2609.7821 71.781349 2611.3786 69.01035 2610.5447 63.449626C2610.0891 60.411228 2608.937 57.846113 2607.2869 56.196032C2604.801 53.710092 2604.6978 53.693723 2603.3481 55.571588C2599.9578 60.288562 2598.9128 61.0 2595.3745 61.0C2588.0963 61.0 2584.1748 53.019822 2588.0578 46.110873L2590.2659 42.182164L2588.1285 39.180493C2586.953 37.529574 2583.6889 34.251275 2580.875 31.895385L2575.759 27.611948L2576.4625 33.055974C2577.5004 41.086842 2579.1514 46.077601 2581.1916 47.351728C2583.6083 48.860992 2583.4792 51.550964 2580.9034 53.355111C2577.7487 55.564768 2573.7933 64.782439 2574.5403 68.183705C2575.4061 72.125336 2577.2077 71.706972 2581.7911 66.5C2583.9697 64.025 2585.9609 62.0 2586.216 62.0C2587.1646 62.0 2591.0 77.213428 2591.0 80.976153C2591.0 82.125936 2589.425 84.641667 2587.5 86.566667C2585.575 88.491667 2584.0 90.700109 2584.0 91.474316C2584.0 94.086108 2585.9599 94.118145 2588.7278 91.551599C2592.0438 88.476819 2594.3309 88.357514 2599.2648 91.001943C2603.9318 93.503273 2604.2697 91.872776 2600.1571 86.697647C2597.3393 83.151954 2597.3254 83.065826 2598.5818 76.96872C2600.2582 68.834095 2600.6767 68.713441 2600.1804 76.507889C2599.8116 82.299005 2600.0311 83.24823 2602.3854 86.04623C2604.3425 88.372029 2605.0 90.26584 2605.0 93.576725C2605.0 98.871986 2603.1696 99.451281 2600.0925 95.129877C2596.4171 89.96831 2588.3606 90.630175 2586.4578 96.25C2585.7325 98.392068 2584.639 98.474816 2583.0091 96.510962Z M2600.8121 56.195267C2602.7162 53.735148 2601.4645 48.882514 2598.2481 46.254967C2596.7367 45.020199 2595.0454 44.007699 2594.4898 44.004967C2593.4577 43.999893 2588.0 48.682097 2588.0 49.572588C2588.0 51.387238 2591.1342 56.986922 2592.6563 57.891642C2594.9775 59.271334 2599.094 58.415109 2600.8121 56.195267Z M2613.0876 40.789838C2615.0144 37.051691 2615.7629 28.547423 2614.1106 29.166667C2613.6214 29.35 2611.1217 32.0875 2608.5556 35.25C2605.9896 38.4125 2603.2671 41.0 2602.5056 41.0C2601.5241 41.0 2600.9208 38.967139 2600.433 34.016564C2599.4623 24.165984 2596.2028 22.008161 2594.0426 29.786133C2592.036 37.011107 2592.6102 39.476293 2596.9721 42.362848C2599.1568 43.80859 2601.6699 46.39473 2602.5568 48.109827L2604.1694 51.228184L2607.6723 47.864092C2609.5989 46.013841 2612.0358 42.830427 2613.0876 40.789838Z"/>
</svg>
