<?xml version="1.0" encoding="UTF-8"?>
<svg xmlns="http://www.w3.org/2000/svg" viewBox="610.99 19.09 55.43 85.98">
  <path d="M630.60699 97.418213C629.38232 94.226773 630.06306 91.078508 632.64001 88.015976C635.09897 85.093667 635.19543 84.622194 634.04657 81.141101C632.38103 76.094465 629.5888 72.560077 627.80745 73.243646C627.0108 73.549352 624.36571 76.77989 621.92949 80.422621C618.63426 85.349781 616.98786 86.97589 615.5 86.772884C613.79633 86.540431 613.50624 85.759187 613.54214 81.5C613.59718 74.969565 618.80772 65.826366 625.06427 61.281564C634.2215 54.629686 635.0 53.854848 635.0 51.392557C635.0 50.042127 634.4375 48.77595 633.75 48.578829C622.53846 45.364242 618.90117 41.530352 620.86678 34.999244L621.91992 31.5L621.85864 35.0C621.82494 36.925 621.84296 39.069114 621.89868 39.764698C622.03199 41.428771 627.52806 44.758546 632.2939 46.062613C638.6065 47.789916 639.75227 54.911051 634.10815 57.338406C628.53149 59.736749 621.10948 67.162475 617.89476 73.559925C615.04888 79.223368 614.57735 83.006496 616.71862 82.996268C617.14838 82.994215 619.68077 80.294215 622.34616 76.996268C628.89508 68.893119 630.71518 68.94786 634.86272 77.372715C636.58823 80.877708 638.0 84.218093 638.0 84.795792C638.0 85.373491 636.65 87.196154 635.0 88.846154C633.35 90.496154 632.0 92.780769 632.0 93.923077C632.0 96.480123 632.70899 96.508318 636.36689 94.096741C638.6147 92.614812 639.90894 92.400291 642.36029 93.10333C644.07987 93.596499 645.82727 94.0 646.2434 94.0C647.74913 94.0 646.9544 88.855989 645.03981 86.209507C643.09058 83.515155 643.09103 83.46644 645.11961 77.5C646.2416 74.2 647.498 71.148182 647.91162 70.718182C648.82651 69.767037 653.25605 74.060198 656.08867 78.643479C661.05287 86.675709 661.46793 78.843161 656.58778 69.225036C654.71105 65.526266 652.23605 61.933687 651.08778 61.241526C649.9395 60.549365 649.0 59.33642 649.0 58.546092C649.0 57.755764 647.7625 56.518753 646.25 55.797178C644.36974 54.900153 643.39624 53.579611 643.17192 51.621783C642.55978 46.279174 643.7216 44.271737 648.47686 42.455689C653.56086 40.514091 658.93032 34.530321 657.16905 32.769047C656.42001 32.020014 654.49018 32.525444 650.61718 34.485007C644.28967 37.686435 642.46286 37.383865 641.49429 32.974002C640.70577 29.383896 637.12377 25.845741 633.192 24.773345C631.17181 24.222336 629.5576 24.686443 626.51392 26.693388C623.4386 28.721193 622.83928 28.891111 623.95092 27.420043C626.56153 23.965344 628.3277 23.0 632.03773 23.0C634.87973 23.0 636.51577 23.798873 639.38957 26.589874C641.42258 28.564305 643.34786 31.489305 643.66797 33.089874C644.32694 36.384695 644.71829 36.527652 647.44113 34.468197C648.50875 33.660688 650.01277 33.0 650.7834 33.0C651.55403 33.0 653.32871 32.1 654.72713 31.0C657.87213 28.526143 658.7058 28.497706 659.44888 30.838939C661.14082 36.169759 652.46336 46.0 646.06574 46.0C644.45362 46.0 644.0 46.635945 644.0 48.896014C644.0 51.106189 645.32301 53.05997 649.58653 57.146014C656.85595 64.112844 659.94874 69.511541 661.58252 78.08596C663.89394 90.216744 661.39837 91.309765 654.92924 81.0C652.51346 77.15 649.98417 74.0 649.3086 74.0C648.63302 74.0 647.56602 75.716471 646.93747 77.81438C646.00921 80.91263 646.09554 82.51502 647.39733 86.349327C650.30815 94.922966 649.04703 101.16251 645.12137 97.609838C642.09812 94.873833 637.71081 94.557083 635.57203 96.920404C633.32786 99.400186 631.44017 99.589451 630.60699 97.418213Z M628.22251 40.443296C624.37744 37.750107 626.01219 31.0 630.5095 31.0C633.82215 31.0 636.39852 35.821603 635.02137 39.443798C633.91185 42.362048 631.47365 42.720487 628.22251 40.443296Z M632.83749 39.121597C634.93236 37.793755 633.85798 33.550997 631.33589 33.191704C628.72172 32.819293 627.21075 36.344087 629.03983 38.547988C630.42275 40.214308 630.98064 40.298573 632.83749 39.121597Z"/>
</svg>
