<?xml version="1.0" encoding="UTF-8"?>
<svg xmlns="http://www.w3.org/2000/svg" viewBox="3615.68 17.97 47.76 88.56">
  <path d="M 3621,56.15625 3622.75,57.78125 3623.1562,61.21875 C 3624.0093,62.562825 3624.095,63.616124 3623.5312,64.46875 L 3623.6875,65.78125 3619.9062,70.5 3619.4062,71.21875 C 3619.8564,71.925764 3619.8238,73.334157 3619.4375,75.75 3618.966,78.698106 3619.1987,79.919965 3620.5,81 3622.0087,82.252112 3622.4378,82.120717 3624.1875,79.71875 3626.9336,75.948893 3628.7905,76.301531 3629.625,80.75 3630.1108,83.339158 3629.7654,85.876383 3628.5625,89 3625.7603,96.276881 3625.573,97.909538 3627.4375,98.625 3628.5098,99.036479 3630.1166,98.309708 3631.875,96.625 3633.3848,95.178557 3635.2171,94 3635.9688,94 3637.9896,94 3641,97.043982 3641,99.09375 3641,101.96534 3643.1638,102.50849 3645.0938,100.125 3647.312,97.385614 3646.6246,91.484827 3643.7188,88.28125 3641.9077,86.284687 3641.8207,85.535306 3642.7812,80.78125 3644.2947,73.290118 3645.7328,70 3647.4688,70 3648.2963,70 3650.7587,70.709477 3652.9688,71.59375 3655.1788,72.478022 3657.6739,72.942011 3658.5,72.625 3661.2693,71.562302 3660.1864,66.583246 3655.875,60.5625 L 3651.7188,54.78125 3654.375,48.375 C 3657.2686,41.329131 3657.7576,36.224585 3655.625,35.40625 3654.8669,35.115317 3652.5044,36.481933 3650.375,38.4375 3648.2457,40.393067 3645.9724,41.997373 3645.3438,42 3643.9949,42.005639 3642.9859,39.691528 3643,36.65625 3643.016,33.228019 3638.7559,22 3637.4375,22 3635.2058,22 3633.8735,24.857402 3633.375,30.6875 3632.3801,42.323074 3631.796,42.896232 3626.0312,37.96875 3621.955,34.48454 3620.4698,34.284888 3619,37.03125 3617.8538,39.172917 3618.8283,46.833768 3620.9688,52.4375 3621.5772,54.03041 3621.5433,55.205291 3621,56.15625 z M 3637.4375,29.5 C 3638.6072,29.426413 3639.8561,33.019962 3640.625,39.5625 3641.1694,44.19398 3641.0195,45 3639.625,45 3637.2491,45 3633.8245,41.172861 3634.4062,39.1875 3634.68,38.253133 3635.1959,35.818575 3635.5625,33.75 3636.0628,30.927486 3636.7357,29.544152 3637.4375,29.5 z M 3621.6562,39.25 C 3622.3265,38.833027 3623.6567,39.674594 3625.9375,41.59375 3629.6126,44.6862 3629.8055,46.883383 3626.6875,49.8125 3622.8999,53.370821 3622.1218,52.613365 3621.2812,44.46875 3620.9575,41.332091 3620.986,39.666973 3621.6562,39.25 z M 3653.0625,40.1875 C 3653.7661,39.969236 3653.9973,40.50462 3653.9688,41.75 3653.9468,42.7125 3652.9096,45.877929 3651.6562,48.78125 3649.4733,53.837752 3649.2978,53.966795 3647.6875,52.1875 3645.1636,49.398606 3645.6506,46.736741 3649.3125,43.1875 3651.1887,41.369009 3652.3589,40.405764 3653.0625,40.1875 z M 3624.625,68.125 C 3625.1979,67.98368 3625.9005,68.293243 3626.9688,68.96875 3628.2114,69.75464 3628.0846,70.285051 3626.0625,72.4375 3624.7435,73.841468 3623.2666,75 3622.8125,75 3621.6663,75 3621.7891,72.258471 3623.0312,69.9375 3623.6103,68.855655 3624.0521,68.26632 3624.625,68.125 z M 3637.6562,47.34375 C 3641.0061,47.625746 3643.954,50.377035 3645.4688,54.9375 3647.4073,60.774108 3646.1275,65.364558 3641.9375,67.53125 3636.9889,70.090309 3633.1485,69.442355 3629.3125,65.375 3626.1897,62.063862 3625.9217,61.36479 3626.5312,57.625 3627.2941,52.943902 3629.8482,49.716617 3634.2188,47.90625 3635.3798,47.425354 3636.5396,47.249751 3637.6562,47.34375 z M 3648.875,58.75 C 3649.4732,58.310724 3650.3791,58.835824 3651.6562,60.28125 3653.7867,62.692522 3657,67.608769 3657,68.46875 3657,69.28353 3653.8259,68.967148 3650.75,67.84375 3648.3988,66.985026 3648,66.266941 3648,62.96875 3648,60.585563 3648.2768,59.189276 3648.875,58.75 z M 3640.125,72.09375 C 3642.5064,72.286701 3642.0798,73.818024 3640.625,80.59375 3639.3648,86.463114 3639.3974,86.748946 3641.6562,89.375 3642.9441,90.872093 3644,92.76817 3644,93.5625 3644,95.49294 3642.9617,95.331986 3640.125,92.96875 3638.8266,91.887048 3636.4777,91 3634.9062,91 3632.1352,91 3632.0704,90.84143 3632,85.75 3631.9601,82.8625 3631.834,78.7 3631.7188,76.5 L 3631.5,72.5 3636.75,72.1875 C 3638.2386,72.101798 3639.3312,72.029433 3640.125,72.09375 z"/>
</svg>
