<?xml version="1.0" encoding="UTF-8"?>
<svg xmlns="http://www.w3.org/2000/svg" viewBox="700.38 16.2 38.2 87.47">
  <path d="M714.38726 97.25C712.4348 91.037289 712.20474 90.81974 709.47721 92.606888C705.90149 94.949791 704.99462 93.376794 708.36959 90.685686C710.63711 88.877626 711.09899 87.806751 710.83051 84.979939C710.56407 82.174599 710.07416 81.494177 708.3033 81.469964C704.9573 81.424213 704.67142 80.44531 707.46879 78.612405C709.55317 77.246666 710.0 76.163593 710.0 72.476947C710.0 69.316926 709.59024 68.0 708.60699 68.0C707.84083 68.0 706.95496 68.675 706.63837 69.5C706.32179 70.325 705.59865 71.0 705.03138 71.0C702.99862 71.0 704.05473 68.131737 707.0 65.653454C710.60122 62.623227 710.8441 59.599181 707.65413 57.50903C705.25407 55.936454 702.3815 51.0 703.86645 51.0C704.31942 51.0 705.50451 51.9 706.5 53.0C709.25943 56.049133 710.0 55.447151 710.0 50.154988C710.0 46.579967 709.47575 44.835538 708.0 43.5C706.9 42.504514 706.0 41.084769 706.0 40.345012C706.0 38.774079 708.59231 38.531323 709.51008 40.016312C709.85554 40.575283 710.50565 40.805528 710.95475 40.527967C712.06976 39.838851 712.9908 45.113801 712.08295 46.989357C710.86876 49.497775 711.97574 79.258573 713.56189 86.75C714.38202 90.623541 716.66954 90.999368 718.00746 87.480382C722.51755 75.61794 724.10322 53.227138 721.60829 36.63387C720.7097 30.657499 719.69084 25.308785 719.34416 24.747838C718.39118 23.205891 715.04786 28.106865 715.02224 31.083333C715.01001 32.504167 714.7119 33.954768 714.35977 34.306893C713.53141 35.135254 709.99023 28.545999 710.0318 26.253624C710.06208 24.583934 710.12719 24.58376 711.39205 26.25C713.20001 28.631702 714.72873 28.447911 715.55089 25.75C715.92801 24.5125 716.91171 22.730585 717.7369 21.79019C719.15031 20.179437 719.44762 20.188128 722.86862 21.940195C730.87136 26.038806 734.09085 35.376027 730.12488 42.984914C727.4833 48.052891 727.45919 49.645311 730.0 51.232073C731.1 51.919034 732.01001 52.935348 732.02224 53.490547C732.03447 54.045746 732.92446 55.625 734.0 57.0C736.27797 59.912214 736.58364 63.555919 734.64598 64.70031C733.90128 65.140139 732.76044 66.5125 732.1108 67.75C731.46116 68.9875 730.32557 70.0 729.58726 70.0C728.84896 70.0 727.72347 70.628267 727.08619 71.396148C726.17748 72.49108 726.55544 73.73163 728.83805 77.146148C730.43886 79.540767 732.06749 82.534533 732.45723 83.798963C733.3003 86.534112 730.94685 90.621946 727.6977 92.066051C726.48897 92.60328 723.7 94.368245 721.5 95.988194C716.87481 99.393908 715.1568 99.698684 714.38726 97.25Z M712.07895 37.416667C712.12693 36.251724 712.36389 36.014767 712.68311 36.8125C712.97198 37.534375 712.93646 38.396875 712.60417 38.729167C712.27188 39.061458 712.03553 38.470833 712.07895 37.416667Z M724.4989 91.744007C727.23571 89.953211 729.6321 87.671839 729.82421 86.674291C730.26993 84.359865 725.44789 77.0 723.48581 77.0C722.5057 77.0 722.0 78.008462 722.0 79.96298C722.0 81.592618 721.1 85.209278 720.0 88.0C716.7517 96.240991 717.13668 96.561372 724.4989 91.744007Z M729.36037 40.239064C730.45711 36.414936 729.70396 33.164664 726.89305 29.591162C724.08272 26.018409 722.28153 27.500236 723.87576 32.07346C724.49409 33.847202 725.0 36.544492 725.0 38.067436C725.0 44.433511 727.76279 45.809486 729.36037 40.239064Z M727.5 67.178943C728.6 66.213957 730.34087 64.447027 731.36859 63.25243C733.20461 61.118293 733.19081 61.001301 730.57644 56.540218C727.98418 52.116867 726.65633 51.129024 725.60006 52.838097C724.76613 54.187423 724.03116 69.003268 724.79997 68.966731C725.18498 68.948433 726.4 68.143928 727.5 67.178943Z"/>
</svg>
