<?xml version="1.0" encoding="UTF-8"?>
<svg xmlns="http://www.w3.org/2000/svg" viewBox="3248.15 14.45 62.64 89.59">
  <path d="M3251.0 97.934259C3251.0 97.348101 3251.4648 95.999948 3252.033 94.938364C3253.7106 91.803698 3256.167 59.471974 3255.5992 48.0C3255.3133 42.225 3254.3866 33.9 3253.5399 29.5C3251.4272 18.521865 3251.4093 18.631868 3255.1844 19.386877C3256.9358 19.737159 3259.1818 20.759517 3260.1755 21.658784C3262.5822 23.836841 3267.0 31.455603 3267.0 33.42807C3267.0 35.624458 3268.7369 35.387342 3271.9669 32.75C3274.6015 30.598858 3281.7171 25.978234 3286.6924 23.18772C3287.9793 22.465967 3289.8125 22.123095 3290.7662 22.425784C3294.3959 23.577819 3301.7096 39.188771 3300.4617 43.120647C3299.4715 46.240598 3298.0 45.234849 3298.0 41.438075C3298.0 36.6832 3293.3982 27.138557 3290.4603 25.799979C3288.5849 24.945465 3287.4864 25.153386 3284.8159 26.868351C3282.9921 28.039507 3280.196 29.785737 3278.6023 30.748862C3272.8119 34.248069 3269.0 38.172637 3269.0 40.634977C3269.0 44.596729 3271.5577 44.438005 3277.7537 40.091741C3280.962 37.841284 3284.1183 36.0 3284.7678 36.0C3286.6788 36.0 3289.1388 41.835359 3288.8068 45.581034C3288.3854 50.334365 3286.5 49.884279 3286.5 45.030361C3286.5 38.845384 3285.2069 38.531931 3278.4923 43.089192C3275.2169 45.312168 3272.1783 47.663999 3271.7398 48.315483C3271.3013 48.966967 3271.2571 52.65 3271.6415 56.5C3272.5101 65.198076 3272.6483 67.181083 3272.8438 73.75C3272.9935 78.781193 3273.1154 79.0 3275.7679 79.0C3277.2902 79.0 3280.1702 77.889371 3282.1678 76.531936C3287.3087 73.0386 3293.3593 70.795964 3296.6196 71.175386C3302.7367 71.887279 3307.9493 89.907843 3303.3643 94.492857C3300.9344 96.922756 3299.3911 94.884224 3300.901 91.239062C3302.2709 87.93178 3300.9508 80.127184 3298.3463 76.135114C3296.3854 73.129584 3292.132 73.626816 3285.8573 77.595117C3283.4608 79.110743 3279.7 80.883379 3277.5 81.534308C3273.3656 82.757574 3271.6529 85.545845 3274.3906 86.596393C3275.2367 86.921082 3277.2096 86.274845 3278.7749 85.16031C3280.3401 84.045775 3283.3687 82.99126 3285.5051 82.816942C3288.7965 82.548382 3289.5903 82.881631 3290.7051 85.0C3292.1811 87.804789 3292.0392 94.910019 3290.5 95.267648C3289.95 95.395442 3289.3619 93.33854 3289.193 90.696755C3288.7958 84.480908 3287.3468 83.988545 3279.9108 87.542643C3274.5654 90.097518 3274.0 90.665794 3274.0 93.483869C3274.0 99.472493 3271.0748 99.960789 3265.8421 94.845651C3264.241 93.280543 3262.7641 92.0 3262.5601 92.0C3262.3561 92.0 3260.3041 93.575 3258.0 95.5C3253.832 98.982251 3251.0 99.967088 3251.0 97.934259Z M3260.183 91.177069L3262.8661 88.754117L3266.3011 90.877058C3268.1903 92.044676 3270.0627 93.0 3270.4619 93.0C3270.8611 93.0 3270.9229 90.8625 3270.5992 88.25C3270.2756 85.6375 3269.7773 78.1 3269.4919 71.5C3268.623 51.409274 3267.4502 43.069723 3264.2179 34.0C3260.83 24.493465 3254.0329 18.914042 3255.3857 26.75C3257.6095 39.631892 3258.1827 47.347574 3257.5553 55.954548C3257.1726 61.204546 3256.9232 68.545973 3257.0011 72.26883C3257.079 75.991686 3256.7013 80.491686 3256.1619 82.26883C3255.6225 84.045973 3254.9317 87.904092 3254.6268 90.842428C3254.0147 96.739789 3254.0227 96.740267 3260.183 91.177069Z M3292.2771 43.25C3291.6191 40.6375 3290.7852 37.4875 3290.4238 36.25C3290.052 34.977011 3290.2016 34.0 3290.7683 34.0C3291.8938 34.0 3295.0 42.762584 3295.0 45.937897C3295.0 49.60369 3293.5057 48.128601 3292.2771 43.25Z M3294.6395 92.306147C3293.6535 91.320214 3293.8828 82.0 3294.893 82.0C3296.1581 82.0 3297.0 84.606182 3297.0 88.52277C3297.0 91.817496 3295.9053 93.571999 3294.6395 92.306147Z"/>
</svg>
