<?xml version="1.0" encoding="UTF-8"?>
<svg xmlns="http://www.w3.org/2000/svg" viewBox="738.9 14.4 105.24 88.63">
  <path d="M744.5717 90.116011C743.68145 88.675553 745.08758 87.80057 756.27352 82.834424C757.49661 82.291417 758.69458 82.694576 760.13342 84.133419C762.57345 86.573449 769.35699 87.778543 771.34846 86.125769C773.13533 84.6428 774.1531 74.574346 773.02126 69.577394C772.09748 65.498995 769.51715 61.359575 766.84986 59.677095C763.09184 57.306591 755.0 64.960844 755.0 70.886155C755.0 73.885156 753.14598 73.506113 751.88836 70.25C749.55034 64.196611 753.84295 52.027561 759.35731 49.076363C762.41786 47.43841 767.07539 48.205429 770.98853 50.991832C772.53965 52.096324 774.24365 53.0 774.7752 53.0C776.22551 53.0 777.06432 42.135464 776.01051 37.0C775.50264 34.525 775.0675 32.1625 775.04355 31.75C774.96299 30.362683 772.21992 30.984522 771.62915 32.524025C770.76238 34.782796 766.92267 35.869005 763.73407 34.757453C758.86348 33.059554 757.55928 27.976243 760.93838 23.860784L762.87676 21.5L768.48766 24.398398L774.09857 27.296795L777.34689 24.148398C779.13347 22.416779 780.97744 21.0 781.44462 21.0C781.91179 21.0 784.26258 22.613087 786.6686 24.584639L791.04317 28.169277L794.55638 25.084639C799.84503 20.441143 804.0 21.354713 804.0 27.161045C804.0 30.74688 800.57172 33.884944 795.82502 34.643971C791.61609 35.317005 790.62206 37.192533 789.4088 46.75C788.6606 52.64391 789.03235 52.90595 794.46607 50.314788C797.77157 48.738508 798.21008 48.737661 801.25 50.301688C803.0375 51.221351 805.69258 52.934018 807.15017 54.107617C810.30596 56.648541 811.19582 56.22837 814.46193 50.655179C816.15688 47.762955 817.14628 44.200708 817.57221 39.456863C818.16603 32.843016 818.04496 32.278122 815.11661 28.0C813.42249 25.525 812.02821 22.9375 812.0182 22.25C811.99091 20.375797 813.97034 20.745186 814.69753 22.75C815.04665 23.7125 816.56863 26.090647 818.07971 28.03477C820.80774 31.5446 820.81838 31.618684 819.58758 38.53477C818.25714 46.010697 813.53485 56.743951 810.86702 58.35563C809.61801 59.110181 808.05815 58.478958 804.23304 55.67107C798.72424 51.627238 796.8936 51.285508 792.63569 53.506161C788.90145 55.453704 788.2822 55.395803 786.98829 52.978128C786.18263 51.472735 786.33312 48.806709 787.5774 42.541385C788.49654 37.913206 788.97202 33.085549 788.63402 31.813257C788.29602 30.540966 786.23398 28.246892 784.05171 26.715315C780.61222 24.301393 779.81207 24.100419 778.04197 25.205862C775.58741 26.738758 775.52988 27.630592 777.57046 32.514403C778.82693 35.521543 779.00111 38.245174 778.44164 46.136527C777.65793 57.190922 777.33668 57.523863 771.22856 53.612244C765.22838 49.769752 762.88775 49.643855 758.87925 52.948005C755.52345 55.71414 751.93024 63.263569 753.31187 64.645206C753.66127 64.994605 755.74769 63.653791 757.94836 61.665618C764.15154 56.06142 766.3998 55.929514 771.35143 60.879259L775.5 65.026249L775.84102 74.35154C776.15646 82.97729 776.00433 83.883444 773.81292 86.431103C770.90396 89.812973 766.02419 90.216533 760.13762 87.562058C755.84228 85.625131 755.40785 85.709024 746.81069 90.135602C745.84256 90.634082 744.88672 90.625718 744.5717 90.116011Z M762.37005 97.559609C760.64857 96.810449 758.93452 95.703063 758.56103 95.09875C757.54769 93.459137 754.91317 93.762677 750.73882 96.0C746.82095 98.099848 744.97384 98.504919 745.03885 97.25C745.09236 96.217085 754.10712 91.961748 756.19709 91.982858C757.13048 91.992286 760.01001 93.125 762.59602 94.5C768.52169 97.650708 769.22366 97.629058 775.47168 94.102892L780.60507 91.205784L785.55254 93.54525C788.27364 94.831956 791.44535 95.910655 792.60078 95.942358C795.37672 96.018526 801.10014 94.060844 803.07874 92.358396C804.84549 90.838232 808.0 90.528377 808.0 91.875C808.0 92.58387 811.34419 93.757312 815.16667 94.389706C816.77904 94.656459 817.15284 96.004121 815.76244 96.537667C814.92434 96.859276 812.14525 96.13841 809.58669 94.935743C805.46968 93.000521 804.73727 92.917049 803.21738 94.209843C801.40033 95.755392 797.17169 97.477227 792.96912 98.382774C791.41021 98.718679 788.45909 98.011162 785.28481 96.540498C780.62556 94.381835 776.0 94.090705 776.0 95.956116C776.0 97.126372 771.12968 99.003241 768.20295 98.960858C766.71633 98.93933 764.09152 98.308768 762.37005 97.559609Z M770.06574 31.964816C772.8236 30.488854 772.46151 28.703838 768.98805 26.652013C765.27682 24.459732 762.0 25.2641 762.0 28.367388C762.0 32.531491 765.82184 34.236083 770.06574 31.964816Z M811.50167 90.000852C809.345 88.90132 807.20249 87.32632 806.74054 86.500852C805.56535 84.400905 804.18948 84.618096 800.41111 87.5C796.3494 90.598019 794.83944 90.626125 791.4001 87.667729C788.96754 85.575328 788.64084 84.509166 788.22359 77.301373C787.91539 71.977517 788.13658 69.033625 788.87925 68.574627C789.49566 68.193663 790.0 67.19049 790.0 66.345354C790.0 65.500217 790.93064 63.501774 792.06809 61.90437C794.58211 58.37376 798.29981 58.09198 804.0 61.0C808.7311 63.413629 813.28626 63.570881 815.46147 61.39567C817.85785 58.999291 820.62403 53.155947 825.00946 41.226247C827.17594 35.332757 829.7476 29.937335 830.72426 29.236419C831.70092 28.535503 833.19449 27.379608 834.04332 26.667765C839.33143 22.233046 839.35646 24.408241 834.07807 29.686639C830.47835 33.286357 827.00037 40.548102 825.30697 48.0C824.99451 49.375 824.20963 51.175 823.56279 52.0C822.91595 52.825 821.84493 54.625 821.18274 56.0C816.53759 65.645366 812.85262 67.473454 804.92745 64.064136C802.28843 62.928861 799.0058 62.0 797.63271 62.0C792.17413 62.0 788.82926 72.169945 791.21922 81.5C792.77115 87.558517 795.05017 88.312305 801.48874 84.89665L805.76764 82.626699L809.07745 85.411718C810.89785 86.943479 813.42513 88.591334 814.69363 89.073618C815.96213 89.555902 817.0 90.411636 817.0 90.975249C817.0 92.447823 815.92897 92.258018 811.50167 90.000852Z M799.97732 30.022681C801.98005 28.01995 801.76251 25.0 799.61552 25.0C797.44224 25.0 794.0 28.099698 794.0 30.056704C794.0 32.636384 797.38287 32.617129 799.97732 30.022681Z M821.59676 25.361271C818.48042 21.455693 819.26881 18.429575 822.47862 21.976371C824.78931 24.52966 826.09276 24.521435 829.07524 21.934746C832.19025 19.233113 832.83248 21.239463 829.822 24.267642C824.97854 29.139573 824.64674 29.18369 821.59676 25.361271Z"/>
</svg>
