<?xml version="1.0" encoding="UTF-8"?>
<svg xmlns="http://www.w3.org/2000/svg" viewBox="3495.41 18.42 43.2 88.55">
  <path d="M 3497.4062,56.40625 3497.7812,60.71875 C 3498.6868,60.6092 3499.404,60.01323 3500.2188,58.75 3501.5942,56.617444 3509.9848,36.041892 3511.4375,31.25 3512.2611,28.533448 3514.6916,26 3516.4375,26 3517.9078,26 3523.7468,34.821244 3525.7188,40 3530.8423,53.455166 3532.1336,59.05408 3533.125,72.5 3533.6928,80.2 3533.8698,89.7625 3533.5312,93.75 3533.1441,98.310951 3533.2794,101 3533.9062,101 3536.1137,101 3536.605,93.434789 3535.75,72.5 3535.2217,59.564425 3534.4078,55.166433 3531.125,47.5 3530.654,46.4 3529.4657,43.025 3528.4688,40 3526.5711,34.242185 3520.0311,24.605723 3517.3125,23.5625 3514.4018,22.445563 3511.3909,25.742741 3508.0938,33.65625 3506.2967,37.969124 3503.7523,43.975 3502.4688,47 3501.185,50.025 3499.8969,53.306276 3499.5938,54.28125 3499.1773,55.620806 3498.4191,56.248331 3497.4062,56.40625 z M 3518.25,36.28125 C 3517.6934,36.59814 3518.1476,39.127326 3519.5625,43.125 3524.3373,56.615496 3527.7578,82.409921 3526.0312,91.75 3525.4593,94.844057 3525,98.188513 3525,99.1875 3525,102.87108 3526.758,100.8518 3527.5625,96.25 3529.0379,87.810537 3528.3715,70.147215 3526.1562,59.3125 3523.8533,48.048232 3520.8632,38.456926 3519.125,36.71875 3518.7133,36.307091 3518.4355,36.17562 3518.25,36.28125 z M 3498.3125,67.375 3498.625,70.71875 C 3500.0049,70.693331 3500.8571,69.744449 3502.875,66.5625 3504.4948,64.008378 3507.287,58.548517 3509.0938,54.4375 3510.9005,50.326483 3512.8217,47.096833 3513.375,47.28125 3515.9779,48.148911 3517.9816,63.658587 3518.0625,83.6875 3518.122,98.403539 3519.0341,102.94955 3520.4375,95.46875 3521.6612,88.945792 3520.7896,64.793571 3519,55.4375 3517.3021,46.560896 3514.6882,40.603915 3512.75,41.25 3512.2158,41.428039 3510.1973,45.601478 3508.25,50.53125 3504.7528,59.385064 3501.0134,66.231786 3499.0625,67.4375 3498.9356,67.515932 3498.593,67.426267 3498.3125,67.375 z"/>
</svg>
