<?xml version="1.0" encoding="UTF-8"?>
<svg xmlns="http://www.w3.org/2000/svg" viewBox="2871.39 17.56 35.61 85.45">
  <path d="M 2902.7812,79.375 C 2900.6772,79.33266 2898.9342,79.669945 2896.9062,80.90625 2892.2734,83.730542 2889.0535,83.669206 2888.875,80.75 2888.5066,74.723407 2889.147,68.581815 2890.5,65.34375 2891.7693,62.305846 2892.3402,61.876904 2894.25,62.46875 2900.6984,64.467076 2900.7573,64.454133 2903,59.53125 2904.9801,55.184557 2905.0021,54.651071 2903.5312,52.40625 2901.3877,49.134976 2897.0732,49.223994 2893.0312,52.625 2890.8432,54.466088 2889.575,54.950009 2888.8438,54.21875 2887.1136,52.48859 2887.7574,30.287787 2889.625,27.4375 2890.4793,26.133719 2890.998,24.486374 2890.75,23.78125 2889.9268,21.441477 2886.8151,30.397068 2885.8438,37.9375 2884.7277,46.603247 2885.1602,52.049738 2887.3125,57.1875 2888.6815,60.455595 2888.6843,61.489102 2887.4062,66.1875 2885.2118,74.254339 2885.2934,82.997056 2887.5625,84.65625 2890.055,86.478839 2891.375,86.346703 2896.2812,83.84375 2898.6636,82.628374 2900.8127,82.002936 2902.75,81.90625 L 2902.7812,79.375 z M 2899.6562,53 C 2902.7921,53 2903.2962,54.3942 2901.5938,58.46875 2900.7794,60.41796 2899.9781,62.002056 2899.8125,62 2898.72,61.986433 2893,57.840089 2893,57.0625 2893,55.563061 2897.2022,53 2899.6562,53 z M 2902.625,87.5625 C 2900.1035,87.825244 2897.3674,88.62678 2893.7812,90.375 2889.7067,92.36135 2885.4902,94 2884.4062,94 2880.7468,94 2878.2202,91.189937 2877.0938,85.9375 2875.4822,78.422834 2875.7406,74.937834 2878.5938,65.90625 L 2881.1875,57.71875 2879.0938,52.28125 C 2876.3567,45.129072 2876.5325,35.885987 2879.625,25.5 2880.0378,24.113527 2879.8916,23.806763 2879.1562,24.5 2877.5095,26.052317 2875,36.881777 2875,42.40625 2875,45.142113 2875.7369,49.959855 2876.625,53.125 2878.1236,58.465952 2878.1022,59.222672 2876.5312,63.6875 2874.1885,70.345317 2873.3935,83.762317 2875,89.5 2877.1087,97.031496 2882.9877,99.124207 2890,94.84375 2891.925,93.668688 2895.382,91.895863 2897.6875,90.90625 L 2901.875,89.125 2902.5625,89.46875 2902.625,87.5625 z"/>
</svg>
