<?xml version="1.0" encoding="UTF-8"?>
<svg xmlns="http://www.w3.org/2000/svg" viewBox="2027.99 11.37 34.37 93.9">
  <path d="M2039.0752 99.735258C2036.0682 98.203444 2032.0659 90.581611 2032.0282 86.3151C2031.988 81.774183 2033.3864 78.684997 2037.5864 74.036079C2041.2426 69.989107 2041.2614 69.922566 2041.1459 61.445824C2041.082 56.758845 2040.6158 52.153634 2040.1098 51.212022C2039.6038 50.27041 2037.1255 47.475 2034.6025 45.0C2030.2322 40.713047 2030.0147 40.233555 2030.0075 34.872124C2029.9949 25.395964 2033.871 18.962935 2040.7435 17.054379C2045.8387 15.639389 2045.8762 15.64616 2051.0895 18.920962C2056.344 22.221593 2059.9149 28.192744 2058.0082 30.490171C2057.0416 31.65475 2056.2479 31.645912 2052.808 30.432272C2047.2787 28.481405 2046.3043 28.605883 2044.4042 31.505901C2040.8687 36.90178 2047.4418 43.160061 2054.9196 41.517656C2057.081 41.042939 2058.0769 41.315062 2058.7807 42.572611C2060.36 45.394663 2058.4168 51.248491 2054.9265 54.183313C2051.7422 56.860871 2051.7363 56.88361 2052.1937 64.784609C2052.5471 70.889565 2053.1661 73.42449 2054.897 75.85532C2058.1262 80.390302 2058.8723 83.907495 2057.9126 90.07121C2056.761 97.46696 2052.9739 101.00624 2046.2342 100.98526C2043.6304 100.97715 2040.4088 100.41465 2039.0752 99.735258Z M2052.7374 95.75C2054.0524 94.331754 2055.0723 91.464648 2055.4965 87.994115C2056.1236 82.863052 2055.9594 82.223982 2053.0847 78.60661C2051.3881 76.47172 2049.9881 73.774368 2049.9737 72.612495C2049.9592 71.450623 2049.6915 67.070145 2049.3787 62.878101C2048.7754 54.790672 2048.6405 55.122045 2054.25 50.916537C2055.7625 49.782603 2057.0 47.951746 2057.0 46.847965C2057.0 45.138345 2056.5556 44.938687 2054.0 45.5C2052.0376 45.931024 2051.0 45.765165 2051.0 45.020438C2051.0 44.394279 2050.5228 44.176868 2049.9396 44.537303C2047.8075 45.855057 2043.1107 42.801243 2041.1383 38.814771C2038.7694 34.026751 2039.6779 30.096301 2043.7739 27.412518C2045.9166 26.008512 2047.0954 25.879191 2050.199 26.707603C2055.1426 28.027104 2055.3507 26.132019 2050.6556 22.550891C2044.5974 17.930102 2038.0233 20.034069 2034.115 27.844526C2031.177 33.715805 2032.2776 37.854783 2038.4792 44.257614L2043.7626 49.712443L2044.5032 61.048347C2045.2322 72.208651 2045.207 72.412097 2042.8718 74.18179C2037.0787 78.572194 2036.0 80.31667 2036.0 85.29471C2036.0 90.178303 2036.9915 93.049179 2039.7835 96.25C2042.1353 98.946191 2050.0576 98.640403 2052.7374 95.75Z M2044.0 92.306019C2039.6778 90.761287 2038.4444 82.555624 2042.0 79.0C2044.7325 76.26751 2046.6393 76.485428 2050.0769 79.923077C2056.1916 86.037711 2051.7552 95.077659 2044.0 92.306019Z M2049.825 86.661566C2050.1943 83.435739 2047.6492 80.0 2044.8903 80.0C2042.1012 80.0 2041.085 86.857751 2043.6014 88.69782C2046.5853 90.87967 2049.4493 89.942593 2049.825 86.661566Z"/>
</svg>
