<?xml version="1.0" encoding="UTF-8"?>
<svg xmlns="http://www.w3.org/2000/svg" viewBox="1940.09 11.72 24.68 90.1">
  <path d="M1948.1905 92.518767C1943.8885 83.076893 1942.0903 39.820438 1945.4669 27.0C1947.9912 17.415414 1949.8216 15.820529 1952.4543 20.911617C1953.5735 23.07592 1954.4784 23.68765 1955.98 23.294986C1958.3029 22.687539 1958.7577 24.495256 1956.5 25.361626C1955.517 25.738833 1955.0 27.298565 1955.0 29.886828C1955.0 35.949615 1955.6976 37.0949 1958.5883 35.777818C1962.0343 34.207721 1962.7744 35.603051 1959.7552 37.977912L1957.2051 39.983833L1957.5938 59.571098C1957.9066 75.331297 1957.6642 80.425982 1956.3529 85.646148C1954.0553 94.792708 1950.5654 97.731169 1948.1905 92.518767Z M1953.8266 84.423475C1954.689 81.872817 1955.138 75.601424 1955.11 66.5C1955.0472 46.11828 1953.9161 35.292755 1950.7824 25.08079L1949.7332 21.661579L1948.1845 24.58079C1946.0963 28.516738 1945.4106 51.431654 1946.8695 68.523008C1948.5746 88.498762 1950.7599 93.493365 1953.8266 84.423475Z"/>
</svg>
