<?xml version="1.0" encoding="UTF-8"?>
<svg xmlns="http://www.w3.org/2000/svg" viewBox="3315 12.58 30 91.38">
  <path d="M 3317,83.75 3319.0312,89.375 C 3319.0518,89.367984 3319.1391,89.416844 3319.1562,89.40625 3319.5636,89.154429 3320.8646,86.818791 3322.0625,84.21875 3324.3703,79.209584 3324.8371,78.32602 3329.0938,70.625 3331.5809,66.125269 3331.6832,65.4814 3330.4375,62.5 3328.5906,58.079717 3326.0127,46.369847 3325.8125,41.5 3325.722,39.3 3325.985,35.700904 3326.4062,33.5 3327.0864,29.947918 3326.8311,29.061399 3324.125,25.65625 3322.4483,23.546388 3320.8027,20.957983 3320.4688,19.90625 3319.7394,17.608273 3318.1526,17.423189 3317.3438,19.53125 3317.0187,20.378134 3318.0347,22.892727 3319.625,25.1875 3322.3076,29.05854 3322.5165,30.002439 3322.6562,39.90625 3322.7512,46.634323 3323.422,52.504253 3324.5,56 3327.5959,66.039784 3327.5625,66.416154 3322.875,75.53125 3320.4768,80.194732 3318.0951,84 3317.5938,84 3317.4643,84 3317.1754,83.806578 3317,83.75 z M 3321.8125,96.96875 3322.8438,99.8125 C 3324.3224,99.432666 3325.3374,97.972308 3326.4062,95 3327.3926,92.257277 3328.9974,88.994777 3329.9688,87.75 3332.8153,84.102322 3337.7811,74.845535 3339.4688,70.0625 3340.9345,65.907792 3340.9043,65.25352 3338.9688,59.4375 3334.0612,44.690202 3333.4546,34.302539 3337.25,30.125 3340.317,26.749177 3343,22.400705 3343,20.8125 3343,18.571905 3333.0544,29.302259 3331.9062,32.78125 3330.3895,37.376823 3331.5688,47.592521 3334.75,57.5 3337.2312,65.227447 3337.2554,65.631122 3335.6875,70 3334.7965,72.483072 3331.5734,79.206424 3328.5312,84.96875 3325.4892,90.731076 3323,95.793576 3323,96.21875 3323,96.755317 3322.521,96.962699 3321.8125,96.96875 z M 3338.6875,17.0625 C 3338.0024,16.736014 3335.8749,17.533401 3334,19 3330.9996,21.34693 3328.4114,21.549304 3327.625,19.5 3327.0895,18.104633 3324,17.304626 3324,18.5625 3324,19.544275 3326.2014,23.4384 3327.7812,25.25 3329.2028,26.880014 3329.5983,26.715452 3333.9062,22.78125 3336.4377,20.46938 3338.6605,18.214732 3338.8438,17.78125 3339.0009,17.409682 3338.9159,17.171329 3338.6875,17.0625 z"/>
</svg>
