<?xml version="1.0" encoding="UTF-8"?>
<svg xmlns="http://www.w3.org/2000/svg" viewBox="905.34 33.5 16.87 48.77">
  <path d="M 907.46875 35.71875 L 907.34375 36 C 907.34375 36 907.98923 38.12058 908.65625 40.84375 C 908.98976 42.205335 909.34388 43.708689 909.59375 45.1875 C 909.84362 46.666311 910.00072 48.123424 910 49.34375 C 909.99874 51.501137 909.42677 54.90393 908.84375 57.78125 C 908.26073 60.65857 907.65625 63 907.65625 63 C 907.65625 63 908.50384 65.399107 909.375 68.4375 C 909.81058 69.956697 910.23294 71.639398 910.59375 73.25 C 910.95456 74.860602 911.25275 76.399704 911.34375 77.65625 C 911.37709 78.116586 911.35354 78.701203 911.375 79.1875 C 911.43906 78.899401 911.50065 78.798445 911.5625 78.46875 C 912.32456 74.406592 914 73.827327 914 77.625 C 914 79.842679 914.23152 80.052745 915.5 79 C 917.92967 76.983554 917.25366 74.41472 913 69.5 C 910.8 66.958099 909 64.153262 909 63.28125 C 909 62.409239 911.025 59.552225 913.5 56.90625 C 920.21524 49.727117 920.01205 47.418956 911.9375 40.15625 C 909.59891 38.052791 908.32575 36.843509 907.46875 35.71875 z M 911.71875 45.25 C 912.25044 44.863771 913.1187 45.476955 914.46875 46.96875 C 916.14195 48.817608 916.14339 49.10369 914.59375 51.46875 C 912.1515 55.196093 911 54.56352 911 49.5 C 911 47.027499 911.18706 45.636229 911.71875 45.25 z "/>
</svg>
