<?xml version="1.0" encoding="UTF-8"?>
<svg xmlns="http://www.w3.org/2000/svg" viewBox="2812.55 16.03 48.89 88.33">
  <path d="M2835.0 98.831078C2830.2976 97.502923 2826.2421 93.547108 2823.3833 87.5C2820.2048 80.776511 2820.0293 65.115372 2823.0023 53.491192C2824.8582 46.23442 2824.8851 45.530537 2823.3704 43.856759C2822.4716 42.863624 2820.9853 41.812726 2820.0675 41.521431C2816.6344 40.43181 2814.7692 29.795324 2817.1103 24.657325C2818.4851 21.639955 2821.7935 20.046707 2825.2946 20.715982C2827.9053 21.215059 2836.0 28.974195 2836.0 30.977657C2836.0 32.635622 2838.9509 32.155542 2843.1027 29.822146C2847.4719 27.366513 2847.7416 27.457873 2848.5859 31.67955C2849.2186 34.843033 2849.2336 34.823749 2837.7328 45.677455C2836.2108 47.113792 2834.7221 49.461457 2834.4244 50.894488C2834.1268 52.32752 2833.1521 55.975 2832.2585 59.0C2829.6862 67.707281 2831.2794 77.456883 2836.2624 83.502186C2840.9832 89.229299 2846.1901 87.647065 2849.0995 79.601392C2850.5012 75.724939 2852.5919 74.518177 2851.4407 78.25C2848.8707 86.581411 2843.2901 91.825891 2838.8155 90.114906C2835.5993 88.885122 2833.4899 86.309543 2831.0645 80.650701C2828.2887 74.174589 2828.2829 67.436425 2831.0434 56.0C2833.4405 46.068982 2834.524 44.439022 2842.8929 38.173942C2844.6018 36.894609 2846.0 34.982109 2846.0 33.923942C2846.0 31.530857 2845.8312 31.535321 2840.884 34.059201C2836.7068 36.190224 2834.0 35.54555 2834.0 32.419662C2834.0 30.325921 2826.5237 22.99828 2824.4048 23.015313C2817.5789 23.070185 2815.9667 34.269825 2822.048 39.386944C2823.631 40.718911 2825.4839 41.99462 2826.1656 42.221853C2827.1125 42.537509 2826.9133 44.742896 2825.3214 51.567502C2821.4928 67.98102 2823.0671 84.130787 2829.021 89.518965C2830.1094 90.504021 2831.0 91.854095 2831.0 92.51913C2831.0 93.184165 2833.0749 94.520698 2835.6109 95.489203C2839.5629 96.998473 2840.8114 97.073473 2844.3476 96.014017C2850.3634 94.211627 2854.6434 89.228242 2855.4953 83.034243C2855.8759 80.266638 2856.666 77.706414 2857.251 77.344857C2859.2114 76.133275 2857.1093 86.137796 2854.45 90.675455C2852.6751 93.704165 2850.4234 95.765208 2846.9873 97.506422C2841.6764 100.1977 2840.3554 100.34367 2835.0 98.831078Z"/>
</svg>
