<?xml version="1.0" encoding="UTF-8"?>
<svg xmlns="http://www.w3.org/2000/svg" viewBox="1453.97 17.43 32.33 89.3">
  <path d="M 1480,84.65625 1480.0312,76.65625 C 1480.0537,71.474777 1480.5926,67.587307 1481.5,66 1484.2986,61.104366 1482.5794,60.369957 1479.1562,65 1477.2116,67.63022 1476.9095,69.399655 1476.7188,79.25 1476.5407,88.448309 1476.1212,91.228583 1474.4062,94.5 1473.253,96.7 1471.5867,98.642601 1470.7188,98.8125 1468.197,99.30607 1465.6582,92.86771 1466.375,87.78125 1468.2779,74.277451 1468.2839,73.599141 1466.0312,69.78125 1463.887,66.146871 1457.4432,61.213095 1456.3125,62.34375 1455.9962,62.660056 1457.8298,65.231585 1460.375,68.0625 1465.4285,73.683162 1465.9623,76.1823 1463.9375,84.96875 1462.5939,90.79918 1463.6438,96.737643 1466.5625,99.65625 1469.5835,102.67733 1472.3523,102.62766 1474.8125,99.5 1475.9129,98.101074 1477.0038,97.310871 1478.0312,97.125 L 1478.75,92.59375 C 1477.9402,91.486845 1477.9877,90.548873 1478.8125,89.25 1478.9487,89.03549 1479.1409,88.912619 1479.3438,88.8125 L 1480,84.65625 z M 1463.6875,22.78125 C 1463.247,23.292541 1463.6291,24.955113 1465.0938,27.4375 1467.7393,31.921218 1469.7234,31.912344 1474,27.5 1478.1113,23.258167 1477.1832,21.493515 1472.9688,25.53125 L 1469.9688,28.40625 1467.1562,25.03125 C 1465.3829,22.907142 1464.128,22.269959 1463.6875,22.78125 z M 1481.2812,27 C 1480.8103,27 1478.9092,29.484165 1477.0625,32.53125 1473.8451,37.839841 1473.7029,38.53249 1473.5938,48.625 1473.5311,54.418012 1473.6731,59.329433 1473.9062,59.5625 1474.1394,59.795567 1475.7103,59.177943 1477.4062,58.1875 1480.9747,56.103441 1482.2503,52.855308 1479.1875,53.65625 1477.5051,54.096206 1477.1948,53.452809 1476.625,48.34375 1475.9464,42.259012 1476.7405,37.895345 1479.2812,33.875 1481.2626,30.739773 1482.3557,27 1481.2812,27 z M 1458.25,26.0625 C 1455.9734,25.946392 1456.9562,28.828884 1460.5,32.6875 1462.4224,34.780608 1464.0012,36.725 1464.0312,37 1464.0613,37.275 1464.2025,41.775 1464.3125,47 1464.5237,57.029455 1464.3233,57.376539 1459.75,55.5 1456.4804,54.158402 1457.8649,57.561281 1461.25,59.1875 1466.6551,61.784151 1467.5375,61.183259 1467.3438,54.96875 1467.2498,51.954706 1467.0829,46.245619 1467,42.25 1466.8589,35.447495 1466.6319,34.702647 1463.1875,30.5625 1461.1643,28.130682 1458.9375,26.097563 1458.25,26.0625 z"/>
</svg>
