<?xml version="1.0" encoding="UTF-8"?>
<svg xmlns="http://www.w3.org/2000/svg" viewBox="2106.71 12.87 27.29 90.79">
  <path d="M2112.4359 87.75C2110.0786 80.414493 2109.7257 77.423254 2109.2526 60.76487C2108.7126 41.755239 2109.292 35.715526 2112.7313 24.5C2114.4894 18.767113 2115.6533 17.0 2117.6713 17.0C2119.2528 17.0 2122.9436 24.337559 2122.978 27.55C2123.0141 30.917139 2125.0543 32.260869 2127.1925 30.325811C2130.1501 27.649158 2130.5914 29.773317 2127.7038 32.787318C2125.4482 35.141631 2125.1466 36.128328 2125.6792 39.410388C2126.1041 42.029154 2126.9139 43.426225 2128.202 43.763072C2130.0514 44.246693 2130.0498 44.304972 2128.139 46.085162C2126.6886 47.43635 2125.9939 49.886106 2125.4673 55.505986C2124.8353 62.249923 2124.9653 63.259631 2126.6278 64.518592C2127.6575 65.298383 2129.2875 65.950705 2130.25 65.968197C2131.2125 65.985688 2132.0 66.725081 2132.0 67.611291C2132.0 68.911167 2131.3236 69.09568 2128.5 68.565978C2125.1071 67.929469 2125.0 68.004931 2125.0 71.031667C2125.0 72.748928 2123.5596 79.069318 2121.7991 85.07698C2117.6831 99.12261 2116.2243 99.539075 2112.4359 87.75Z M2119.5304 82.75C2121.1823 78.246276 2121.4591 74.728117 2121.478 58.0C2121.5002 38.348307 2120.201 27.024683 2117.5003 23.331325C2116.3245 21.723228 2116.0718 21.892283 2114.6827 25.217039C2111.4575 32.935855 2109.6207 57.239955 2111.7516 64.0C2112.3584 65.925 2113.1129 70.959325 2113.4284 75.187389C2114.0155 83.057388 2115.3076 88.0 2116.7777 88.0C2117.2327 88.0 2118.4714 85.6375 2119.5304 82.75Z"/>
</svg>
