<?xml version="1.0" encoding="UTF-8"?>
<svg xmlns="http://www.w3.org/2000/svg" viewBox="4274.88 13.91 45.01 92.45">
  <path d="M4293.4678 98.732723C4292.3501 97.504726 4290.6325 95.232385 4289.6509 93.683079C4287.5284 90.332937 4285.7768 91.209877 4283.8283 96.598194C4282.2888 100.8556 4280.5284 100.92256 4278.399 96.804708C4277.0055 94.109981 4276.9242 92.840292 4277.8799 88.699802C4278.5032 85.999515 4279.817 82.599896 4280.7993 81.145094C4282.3641 78.827801 4282.5757 76.182223 4282.5068 59.797377C4282.4635 49.510934 4282.0671 40.735934 4281.6259 40.297377C4278.381 37.072113 4277.1004 27.879099 4279.0978 22.149223C4280.5045 18.113898 4282.5249 18.148657 4284.9554 22.25C4288.672 28.521559 4288.8183 28.544355 4293.3902 23.564577C4295.6951 21.054059 4298.0727 19.0 4298.6737 19.0C4299.2747 19.0 4301.0565 21.5875 4302.6332 24.75C4306.245 31.99436 4308.2008 32.205278 4312.4113 25.804492C4316.5268 19.547952 4317.8444 19.663717 4317.4817 26.25C4317.1124 32.955566 4315.2541 39.553622 4312.4825 44.0C4310.5651 47.07615 4310.235 49.369973 4309.7572 62.941547L4309.2136 78.383094L4312.0234 81.941547C4314.6838 85.310839 4316.9822 91.447767 4316.9944 95.214816C4316.9975 96.157965 4316.0407 97.443049 4314.8682 98.070558C4312.9839 99.078995 4312.2972 98.716553 4308.9551 94.949404L4305.1739 90.687324L4302.0012 95.843662C4298.5213 101.49913 4296.583 102.15536 4293.4678 98.732723Z M4284.1713 91.345012C4286.3654 89.359303 4286.5281 86.096679 4284.5652 83.44113C4283.1979 81.591257 4283.0568 81.674787 4281.5652 85.217881C4278.7193 91.977772 4280.0403 95.083498 4284.1713 91.345012Z M4285.9648 36.065741C4287.5987 33.012818 4287.1897 30.332078 4284.6374 27.364814C4282.381 24.741627 4282.2292 24.70539 4281.2613 26.559051C4280.5444 27.931898 4280.6594 29.890292 4281.6542 33.25C4283.1684 38.364234 4284.329 39.122349 4285.9648 36.065741Z M4301.995 88.95C4301.9978 87.5475 4302.4733 85.92673 4303.0517 85.348289C4303.6302 84.769848 4304.9279 79.706448 4305.9355 74.096288C4308.0267 62.453513 4307.8743 50.15449 4305.5439 42.5C4304.7067 39.75 4304.0168 36.541879 4304.0108 35.370843C4303.999 33.04151 4299.2307 22.0 4298.2367 22.0C4297.0799 22.0 4290.004 30.411087 4289.4383 32.458709C4289.1281 33.581419 4288.4988 35.4 4288.0398 36.5C4284.958 43.885386 4283.9135 63.998156 4286.0317 75.167165C4287.1978 81.315736 4293.3648 94.532256 4295.7046 95.897015C4297.1534 96.742096 4297.9334 96.418763 4299.745 94.222133C4300.9798 92.72496 4301.9923 90.3525 4301.995 88.95Z M4294.899 84.331282C4290.3474 72.756661 4288.9076 61.062171 4290.4888 48.510841C4291.3583 41.609023 4295.748 31.638426 4298.1084 31.203949C4302.6003 30.377131 4303.9802 59.255705 4300.1678 74.304457C4298.9411 79.146908 4298.0639 83.825224 4298.2187 84.700713C4298.721 87.542762 4296.0447 87.244936 4294.899 84.331282Z M4298.0979 74.25C4299.9861 68.309553 4300.415 43.318346 4298.7115 38.5L4297.2973 34.5L4295.0249 38.952713C4293.022 42.877388 4292.7491 44.906242 4292.7241 56.061129C4292.6973 67.956768 4294.2754 78.0 4296.1713 78.0C4296.5754 78.0 4297.4424 76.3125 4298.0979 74.25Z M4314.0 91.837858C4314.0 90.083052 4309.0513 82.0 4307.9769 82.0C4307.4606 82.0 4306.7484 83.154285 4306.3943 84.565079C4305.8975 86.544548 4306.3925 87.800202 4308.5623 90.065079C4311.4442 93.073098 4314.0 93.906333 4314.0 91.837858Z M4312.8609 38.558559C4314.6422 34.90199 4315.4857 28.418213 4314.2773 27.671408C4313.7542 27.348072 4311.9027 29.102887 4310.1631 31.570998C4306.5325 36.72179 4306.7038 36.090683 4308.0062 39.516183C4309.2169 42.700762 4311.016 42.345888 4312.8609 38.558559Z"/>
</svg>
