<?xml version="1.0" encoding="UTF-8"?>
<svg xmlns="http://www.w3.org/2000/svg" viewBox="1264.05 18.2 28.41 88.99">
  <path d="M 1286.6562 87.96875 C 1286.5373 86.719759 1286.5999 85.384513 1287 84 C 1288.3103 79.465527 1288.262 66.099132 1286.9062 48.84375 C 1285.8531 35.439854 1285.899 34.925782 1288.0938 30.53125 C 1290.4578 25.797814 1290.0552 23.253797 1287.4688 26.5625 C 1283.3375 31.847593 1282.7553 35.017924 1284.0312 45 C 1285.8131 58.939647 1284.8837 83.895832 1282.3125 91 C 1277.917 103.14525 1273.7854 95.967513 1271.9688 73 C 1271.0957 61.962161 1272.2189 44.56571 1274.125 39.78125 C 1275.0521 37.454173 1274.7802 36.067783 1272.125 30.5625 C 1269.0981 24.286461 1267.4467 22.24086 1266.3438 23.34375 C 1266.049 23.638601 1267.2214 26.8954 1268.9688 30.59375 L 1272.1562 37.3125 L 1270.4375 46.40625 C 1267.6502 61.224287 1268.6429 84.174209 1272.5312 94.5 C 1272.9454 95.6 1274.1873 97.502516 1275.2812 98.71875 C 1276.8319 100.44283 1277.6733 100.71444 1279.125 99.9375 C 1280.5656 99.166521 1283.269 95.821129 1284.5 93.28125 C 1284.5034 93.274288 1284.7347 93.37584 1284.75 93.375 L 1286.6562 87.96875 z M 1271.9062 24.34375 C 1271.6364 24.862127 1272.5075 26.458084 1274.5938 28.9375 C 1276.0176 30.629699 1277.508 32 1277.9062 32 C 1278.3045 32 1279.9247 30.644263 1281.5 29 C 1284.6578 25.704021 1284.2325 23.574607 1281 26.5 C 1279.0301 28.282748 1278.8889 28.300276 1276.0312 26.1875 C 1273.5927 24.384664 1272.1761 23.825373 1271.9062 24.34375 z "/>
</svg>
