<?xml version="1.0" encoding="UTF-8"?>
<svg xmlns="http://www.w3.org/2000/svg" viewBox="2713.99 14.87 28.94 89.19">
  <path d="M2720.0988 97.75C2718.3628 93.199099 2715.9864 74.227928 2715.9965 65.0C2716.0185 44.841353 2718.737 27.611006 2722.9284 21.064302C2724.3014 18.91979 2726.7449 21.33902 2728.0314 26.116488C2729.0994 30.083022 2731.389 31.21102 2733.6938 28.90622C2734.2954 28.304641 2735.6229 28.008815 2736.6438 28.248829C2738.2082 28.616618 2738.0773 28.859638 2735.8108 29.794742C2731.9006 31.408053 2730.6219 34.324316 2731.9974 38.492108C2732.9693 41.436877 2733.6063 41.926908 2736.8088 42.193139L2740.5 42.5L2737.1967 44.303233L2733.8934 46.106466L2734.275 54.265244C2734.6364 61.993828 2734.8043 62.505908 2737.4585 63.977011C2740.9217 65.896481 2740.4854 67.5 2736.5 67.5C2733.6495 67.5 2733.4543 67.769544 2732.583 72.908015C2731.7101 78.056684 2731.794 78.426041 2734.333 80.610049C2737.9218 83.696983 2737.7289 85.199311 2733.7933 84.81397C2730.7508 84.516076 2730.55 84.70958 2729.8722 88.593288C2728.5614 96.103457 2726.3948 100.0 2723.5296 100.0C2721.7828 100.0 2720.6816 99.2778 2720.0988 97.75Z M2725.8802 93.223789C2727.0767 90.988128 2728.8479 81.324759 2729.4971 73.490824C2729.7702 70.195871 2730.2363 65.662941 2730.5329 63.417647C2731.8926 53.126173 2726.6384 23.299232 2723.6386 24.279778C2722.5302 24.642049 2718.7553 37.251786 2719.0073 39.75C2719.1468 41.133686 2719.1222 42.89149 2718.7091 61.0C2718.5335 68.695317 2718.9078 75.421873 2719.6827 78.5C2720.375 81.25 2721.212 86.0875 2721.5426 89.25C2722.1656 95.207108 2723.9459 96.838121 2725.8802 93.223789Z"/>
</svg>
