<?xml version="1.0" encoding="UTF-8"?>
<svg xmlns="http://www.w3.org/2000/svg" viewBox="4007.2 13.17 27.4 90.54">
  <path d="M 4032.5938 83.78125 C 4032.0874 83.742292 4031.5695 83.584702 4030.5938 83.0625 C 4028.3256 81.848577 4027.9981 81.025539 4027.9688 76.59375 C 4027.8028 51.470965 4025.7799 31.332882 4022.8438 25.625 C 4020.1388 20.366136 4015.1636 17.284428 4013.5625 19.875 C 4013.2644 20.35728 4013.9712 24.29478 4015.125 28.625 C 4019.0203 43.244922 4017.6342 73.440019 4012.3438 88.84375 C 4009.1966 98.006955 4010.0075 99.541668 4016.2812 96.21875 C 4021.6375 93.381828 4021.8519 93.404572 4026.5625 96.96875 C 4028.6077 98.516249 4030.4011 99.30106 4032.1875 99.59375 L 4032.2812 96.15625 C 4030.9157 95.488544 4029.3085 94.544498 4027.625 93.28125 L 4022.7188 89.625 L 4019 91.75 C 4016.9423 92.934244 4015.0233 93.6796 4014.75 93.40625 C 4014.4766 93.132901 4015.2583 89.427213 4016.5 85.15625 C 4017.7417 80.885286 4019.2323 72.682625 4019.8125 66.9375 C 4020.8843 56.325005 4020.6822 35.958878 4019.4375 30.5 C 4018.8892 28.095508 4019.0116 27.728337 4020.0312 28.6875 C 4022.4369 30.950765 4024.1222 43.535953 4024.6875 63.28125 L 4025.25 83.0625 L 4028.8438 86.03125 C 4030.1852 87.137013 4031.4667 87.9273 4032.4688 88.4375 L 4032.5938 83.78125 z "/>
</svg>
