<?xml version="1.0" encoding="UTF-8"?>
<svg xmlns="http://www.w3.org/2000/svg" viewBox="2370.05 14.68 22.01 65.15">
  <path d="M 2374.0625,61.1875 2374.6875,64.9375 C 2376.0774,64.856945 2377.3915,63.909351 2378.4375,61.8125 2380.6944,57.288282 2382.3712,41.125962 2380.9688,37.4375 2379.2421,32.896009 2377.9873,31.771672 2376.2812,33.1875 2375.0483,34.210844 2375.2013,34.623296 2377.1875,36.125 2379.3234,37.739879 2379.486,38.61023 2379.4375,46.6875 2379.3861,55.259918 2377.4733,62 2375.0625,62 2374.9403,62 2374.4038,61.462439 2374.0625,61.1875 z M 2376.125,73.4375 2376.7188,76.875 C 2384.5431,75.857923 2390.0533,50.10868 2387,28.15625 2385.6873,18.718229 2384.8376,17.644402 2379.1875,18.28125 2374.7811,18.777907 2372.0467,20.359124 2373.3438,21.65625 2373.7288,22.04125 2374.5678,21.838334 2375.2188,21.1875 2375.8696,20.536667 2377.8624,20 2379.6562,20 2382.6399,20 2383.0361,20.362033 2384.125,24.25 2385.8176,30.293822 2385.8342,55.47671 2384.1562,60.5 2381.8008,67.551499 2378.9804,73.064185 2377.4375,73.65625 2377.1935,73.749883 2376.6045,73.541323 2376.125,73.4375 z M 2376.5,27 C 2375.125,27 2374,27.45 2374,28 2374,28.55 2375.125,29 2376.5,29 2377.875,29 2379,28.55 2379,28 2379,27.45 2377.875,27 2376.5,27 z"/>
</svg>
