<?xml version="1.0" encoding="UTF-8"?>
<svg xmlns="http://www.w3.org/2000/svg" viewBox="763.84 14.61 33.17 89.31">
  <path d="M776.36725 98.514656C775.76324 96.940633 776.29905 95.510553 779.55744 90.0C781.62073 86.510575 780.53384 78.957392 776.90831 71.590278C773.43572 64.533941 773.43551 64.530369 776.10828 58.48811C779.12398 51.670628 778.2528 48.017896 772.04585 41.454961C766.40426 35.489818 765.84278 32.932641 768.63974 25.942356C771.30087 19.291537 776.60295 18.673524 781.92431 24.393901C784.94842 27.644763 785.72023 27.642215 789.13558 24.370103C793.173 20.502009 795.0094 21.715552 794.95936 28.218615C794.92571 32.590898 794.40931 34.095964 791.95936 36.962226C788.80715 40.650067 788.39392 43.277638 790.0362 49.190656C790.86929 52.190214 790.67417 54.030295 788.99421 59.017197L786.92718 65.153082L789.57556 70.751301C794.0404 80.189209 792.00889 87.332146 782.56524 95.400115C777.98861 99.310051 776.88524 99.864505 776.36725 98.514656Z M787.5797 84.430487C789.51142 79.372349 789.0542 75.544428 785.77397 69.312609C783.69221 65.357653 783.65765 64.941119 785.15145 61.808602C787.73141 56.398357 788.11183 52.802 786.68319 47.32785C785.23312 41.771589 785.51041 40.685931 789.65998 35.673275C791.08211 33.955351 792.0 31.536336 792.0 29.506354L792.0 26.166158L788.05137 28.329036L784.10274 30.491914L780.75376 27.245957C776.05356 22.690339 773.37097 22.953013 771.02234 28.198839C768.78056 33.20601 769.09605 34.000811 776.10912 41.013878L781.1765 46.081261L780.49451 51.290631C780.11942 54.155784 779.1797 57.806637 778.40626 59.403638C776.45028 63.44233 776.58445 64.42681 780.10692 71.882117C782.40286 76.741497 783.2278 79.940024 783.26732 84.136023C783.33179 90.980817 785.03372 91.09703 787.5797 84.430487Z"/>
</svg>
