<?xml version="1.0" encoding="UTF-8"?>
<svg xmlns="http://www.w3.org/2000/svg" viewBox="394.45 16.51 29.55 87.53">
  <path d="M406.5 96.887326C404.3 95.265502 401.4875 93.225627 400.25 92.354268C396.45169 89.679771 397.88079 84.295792 403.91072 78.562909C405.60983 76.947509 407.0 74.893643 407.0 73.998763C407.0 73.103884 404.99753 70.87132 402.55006 69.037512C400.1026 67.203703 397.83821 65.020778 397.5181 64.186567C397.03077 62.916611 399.93025 57.886431 405.48054 50.372873C406.1976 49.402163 405.32433 47.887247 402.23054 44.734898C397.60088 40.017627 397.09492 37.668317 399.63867 32.70034C401.46284 29.137711 406.55115 22.948588 408.7063 21.671009C410.69585 20.491589 412.51473 22.320161 417.0126 30.021581C420.52111 36.028972 420.82059 37.065889 419.95382 40.205096C419.42304 42.127394 418.04962 44.550107 416.90176 45.588903C415.75391 46.627699 414.38338 48.283649 413.85615 49.268792C412.88446 51.084412 412.96975 51.238422 419.75 59.910812C420.9875 61.493657 422.0 63.928591 422.0 65.321776C422.0 66.73289 421.00343 68.675669 419.75 69.708053C418.5125 70.727321 416.68689 72.511212 415.69309 73.672256C413.93034 75.731657 413.97311 75.919126 417.44309 81.343586C419.39939 84.401773 421.0 87.92101 421.0 89.164112C421.0 91.490865 413.45578 100.06861 411.54179 99.918047C410.96881 99.872973 408.7 98.509149 406.5 96.887326Z M409.0 61.5C409.0 57.375 408.60236 54.0 408.11636 54.0C407.12886 54.0 400.0 61.62397 400.0 62.680055C400.0 63.752722 406.37075 68.914517 407.75 68.959359C408.6425 68.988377 409.0 66.855008 409.0 61.5Z M409.51059 86.908775C409.92738 83.317701 409.82182 80.421821 409.25342 79.853419C407.9079 78.507902 403.0 79.909911 403.0 81.639793C403.0 82.42243 402.325 83.321791 401.5 83.638374C399.13833 84.54463 399.74257 87.869349 402.75 90.516365C407.35614 94.570496 408.70488 93.850782 409.51059 86.908775Z M409.36971 42.75C410.2453 39.482747 410.10598 27.715154 409.17434 26.247845C408.60515 25.351392 407.68627 25.90761 405.93965 28.205864C400.09303 35.899037 399.63473 38.89428 403.75 42.516365C407.19909 45.552103 408.60314 45.610476 409.36971 42.75Z M416.44848 67.635329C419.61117 64.704242 419.608 64.485917 416.3406 60.202135C413.84427 56.929265 413.59901 56.827898 412.3406 58.548873C410.91538 60.49799 410.64062 64.057066 411.63029 67.75C412.39387 70.599316 413.27286 70.578397 416.44848 67.635329Z M416.60165 92.666227L419.31482 90.332453L416.95407 86.132063C413.98956 80.857434 411.62666 80.972406 411.18041 86.412994C410.80706 90.964854 411.64486 95.0 412.96329 95.0C413.47214 95.0 415.1094 93.949802 416.60165 92.666227Z M417.0 38.276026C417.0 35.522386 414.36688 30.0 413.05391 30.0C411.92205 30.0 410.53823 42.443823 411.49749 43.995936C412.57553 45.740239 417.0 41.14096 417.0 38.276026Z"/>
</svg>
