<?xml version="1.0" encoding="UTF-8"?>
<svg xmlns="http://www.w3.org/2000/svg" viewBox="4378.93 14.87 62.17 94.42">
  <path d="M 4383.2188 91 L 4383.625 93.71875 C 4385.5265 93.545935 4387.5709 92.764563 4390.1562 91.125 C 4394.9614 88.077675 4397.404 85.140278 4400.875 78.28125 C 4403.1915 73.703733 4403.8456 62.346179 4402.0625 57.65625 C 4399.9285 52.043338 4392.9698 53.540605 4388.5312 60.5625 C 4386.9852 63.00865 4385.314 65 4384.8438 65 C 4384.3735 65 4384 62.391627 4384 59.1875 C 4384 52.527382 4385.7572 50.13119 4392.2188 48.0625 C 4396.7358 46.616369 4399.0639 47.23393 4403.5312 51.15625 C 4405.4038 52.800305 4407.3565 53.88297 4407.875 53.5625 C 4409.8782 52.324444 4410.1375 44.909671 4408.4688 36.5 C 4406.9007 28.59781 4406.8945 27.807234 4408.4062 25.5 C 4410.5989 22.153743 4413.131 22.340079 4415.9062 26.09375 C 4418.0241 28.958382 4418.1512 29.640967 4417.1875 34.84375 C 4415.3057 45.003108 4414.7702 52.73544 4415.9062 53.4375 C 4416.4933 53.800371 4418.6564 52.963943 4420.7188 51.5625 C 4426.105 47.902478 4428.4257 48.241336 4432.0312 53.21875 C 4434.7751 57.006572 4435.0432 58.043742 4434.7812 63.71875 C 4434.6211 67.185096 4434.05 70.117481 4433.5 70.25 C 4432.95 70.382519 4431.9572 68.270115 4431.2812 65.53125 C 4429.6118 58.765855 4423.2609 54.132443 4419.0938 56.65625 C 4416.9507 57.954195 4414.3155 63.581514 4413.5312 68.53125 C 4412.8198 73.021686 4413.7047 74.429298 4420.1875 79.25 C 4425.5416 83.23136 4425.7027 84.976034 4421.625 93.5625 C 4419.6804 97.657208 4417.7521 101.00054 4417.3125 101 C 4416.8729 100.99946 4416.4647 98.612952 4416.4375 95.6875 C 4416.4009 91.75482 4415.684 89.14774 4413.6562 85.6875 C 4410.3696 80.079392 4408.1416 79.737734 4405.5938 84.46875 C 4402.36 90.473638 4395.535 96.793268 4390.9375 98.03125 C 4389.0462 98.540519 4386.674 98.613509 4384.3438 98.53125 L 4384.9062 102.375 C 4386.9724 102.61704 4388.7725 102.55356 4391.1562 101.84375 C 4395.3665 100.59007 4397.492 98.725695 4406.3438 88.53125 L 4409.7812 84.59375 L 4411.9375 88.03125 C 4413.7085 90.853257 4414.0195 92.453284 4413.5625 96.6875 C 4413.0683 101.26563 4413.2574 102.06365 4415.2188 103.4375 C 4416.4422 104.29442 4417.7516 105 4418.125 105 C 4419.5445 105 4427 88.53936 4427 85.40625 C 4427 82.236522 4424.9708 79.597043 4418.0625 73.75 C 4416.9253 72.7875 4416 70.835629 4416 69.40625 C 4416 65.698613 4418.8617 60.197018 4421.1562 59.46875 C 4423.2183 58.814257 4427.8677 61.267164 4428.4375 63.3125 C 4428.6202 63.967953 4429.2926 66.441565 4429.9375 68.8125 C 4430.9873 72.671728 4431.4028 73.090736 4433.8125 72.8125 C 4436.3819 72.515816 4436.5517 72.161409 4437.4062 64.84375 C 4438.2747 57.407106 4438.213 57.043363 4435.4375 52.65625 C 4431.1766 45.92118 4426.4181 44.303471 4421.7188 48 C 4420.3203 49.1 4418.9194 50 4418.5938 50 C 4417.4369 50 4418.1991 42.424249 4419.8438 37.5 C 4421.4412 32.71653 4421.6732 32.49732 4425.5 32.1875 C 4432.4887 31.621693 4435.3382 26.33816 4431 22 C 4428.4314 19.431424 4427.7768 19.479811 4424.1875 22.5 C 4420.8404 25.316336 4418.4789 25.706284 4417.6562 23.5625 C 4417.3507 22.766257 4415.7923 21.423645 4414.1875 20.59375 C 4411.4245 19.164964 4411.1541 19.205069 4408.9688 21.53125 C 4406.1374 24.545203 4403.9647 24.63542 4398.4375 21.875 C 4393.1783 19.248437 4391.4585 19.796714 4390.5938 24.40625 C 4389.3211 31.189647 4392.4704 33.402319 4399.7188 30.78125 C 4402.5383 29.761697 4403.2726 29.802882 4404.0625 31.03125 C 4405.2916 32.942722 4406.712 38.292752 4407.5625 44.25 C 4408.3017 49.427667 4407.1902 50.378198 4403.9062 47.40625 C 4400.8268 44.619391 4395.4825 44.01415 4390.2812 45.875 C 4383.8917 48.161031 4381.7593 51.92908 4381.7812 60.8125 C 4381.807 71.269036 4384.7114 76.401798 4387.125 70.25 C 4390.054 62.784351 4392.1466 58.894346 4393.5 58.375 C 4394.3203 58.060214 4394.7726 57.441076 4394.5 57 C 4393.5953 55.536189 4398.4772 57.220532 4399.75 58.8125 C 4401.7352 61.295588 4401.2398 71.838727 4398.9062 77 C 4395.5977 84.317512 4388.1395 91 4383.25 91 C 4383.2421 91 4383.2267 91.000094 4383.2188 91 z M 4393.75 23 C 4396.9992 23.059155 4399.0869 24.451941 4398.8125 26.375 C 4398.5128 28.474749 4395.1433 29.799435 4393.7188 28.375 C 4392.7735 27.429721 4392.7976 22.98266 4393.75 23 z M 4428.4062 23.34375 C 4430.6118 24.190076 4430.3972 27.719292 4428.0625 28.96875 C 4425.6965 30.235007 4424.9238 30.2233 4423 29 C 4421.7314 28.193284 4421.9039 27.634211 4424.1562 25.375 C 4425.7949 23.731398 4427.4298 22.969054 4428.4062 23.34375 z "/>
</svg>
