<?xml version="1.0" encoding="UTF-8"?>
<svg xmlns="http://www.w3.org/2000/svg" viewBox="2684.96 17.85 95.07 87.43">
  <path d="M 2761.125,22 C 2759.5396,22 2757,28.705017 2757,32.90625 2757,37.030684 2755.7213,38.344651 2754.5938,35.40625 2753.6422,32.926521 2753.8915,27.067286 2755.0312,24.9375 2755.6076,23.860709 2755.6644,23 2755.1562,23 2751.5421,23 2749.843,34.156992 2752.875,37.96875 2754.6542,40.205631 2755.0531,40.302952 2757.3125,39.09375 2758.6814,38.361146 2760.3113,38.081729 2760.9375,38.46875 2761.5637,38.855771 2763.6042,38.0159 2765.4688,36.59375 2769.4662,33.544772 2769.5896,33.528151 2770.4062,35.65625 2771.436,38.339976 2768.3532,42 2765.0625,42 2760.3115,42 2759.2629,42.848156 2753.8438,51.0625 2748.815,58.685161 2745.8217,61.014671 2741.0938,61 2739.927,60.99638 2740.2145,60.386166 2742.125,58.75 2746.0717,55.369975 2749.5382,50.071256 2751.3125,44.71875 2752.8242,40.15839 2752.8034,39.803529 2750.9688,37.96875 2747.773,34.773008 2747.2382,30.056761 2749.4688,24.75 2749.9413,23.625767 2749.7697,23 2748.9688,23 2747.259,23 2745.0521,26.072247 2745.0312,28.5 2745.0137,30.526335 2747.3702,37.950761 2748.9688,40.9375 2750.3419,43.503227 2742.7789,57 2739.9688,57 2739.6001,57 2738.0044,55.847227 2736.4062,54.4375 2734.0087,52.322447 2732.757,51.94917 2729.25,52.3125 L 2725,52.75 2725,47.875 C 2725,43.808598 2725.4319,42.617922 2727.6562,40.75 2733.0743,36.199985 2734,34.935473 2734,32 2734,28.276708 2732.677,28.211239 2726.625,31.59375 2722.6309,33.826116 2721.9288,33.955194 2721.4062,32.59375 2721.0736,31.726727 2721.7512,29.385486 2722.9375,27.375 2725.5704,22.912419 2724.7314,21.824432 2719.5,23 2714.436,24.13796 2708.4149,30.331606 2707.4688,35.375 2706.5872,40.074367 2707.2133,41.476476 2710.9375,43.125 2713.4047,44.217061 2714,45.080683 2714,47.53125 2714,52.193266 2712.7074,52.889079 2706.75,51.34375 2700.9488,49.83893 2697.0828,49.667629 2695.2812,50.8125 2691.0902,53.475982 2689.2824,67.792868 2692.375,73.75 2695.3493,79.479366 2697.6646,77.315913 2698.375,68.15625 2698.9784,60.376091 2700.0874,58.771958 2703.9688,60.125 2708.1226,61.573024 2709.932,64.092004 2710.5312,69.1875 2711.2836,75.583476 2709.7951,78.535227 2704.0625,82.0625 2700.2704,84.395789 2698.4665,86.385613 2696.4688,90.46875 2693.8512,95.818841 2693.5098,100.02316 2695.625,100.71875 2696.2885,100.93693 2696.9219,99.289585 2697.2188,96.65625 2697.7289,92.130873 2702.1511,85 2704.4375,85 2705.0928,85 2707.0091,83.67221 2708.6875,82.03125 2711.6893,79.096462 2713,74.461216 2713,66.9375 2713,63.012422 2708.6386,58.21198 2704.3438,57.40625 2699.3409,56.467718 2697.072,59.016533 2696.3125,66.375 2695.501,74.238293 2693.5,73.174856 2693.5,64.875 2693.5,60.274544 2694.021,57.611594 2695.3438,55.59375 2697.1055,52.906316 2697.4903,52.775189 2702.5938,53.375 2705.5494,53.722392 2709.5393,54.767393 2711.4688,55.6875 2713.3983,56.607608 2715.2512,57.092509 2715.5938,56.75 2715.9362,56.407491 2716.2981,52.875719 2716.375,48.90625 2716.5139,41.737963 2716.4887,41.666444 2713.5938,40.875 2711.9906,40.436734 2710.3407,39.558648 2709.9375,38.90625 2708.7834,37.038907 2710.7798,32.573661 2714.2812,29.25 2717.8636,25.849507 2722.6194,23.874363 2721.6875,26.15625 2719.2653,32.087448 2718.7038,35.194346 2719.9062,35.9375 2721.1005,36.675533 2726.0547,35.414504 2728.75,33.6875 2731.497,31.927385 2729.8095,35.466898 2726.5,38.40625 2723.1834,41.351886 2722.957,41.925893 2722.3438,49.75 2721.6381,58.752231 2722.0504,59.329472 2727,56.5 2730.8238,54.314114 2733.351,54.713143 2736.5,58 2739.0912,60.704644 2739.1745,61 2737.375,61 2736.2772,61 2734.5052,60.338759 2733.4375,59.53125 2730.2458,57.11712 2727.6901,57.750415 2725.0938,61.5625 2722.1191,65.93019 2720,73.794393 2720,80.5 2720,84.501151 2720.3248,85.597127 2722.8438,87.875 L 2724.3438,84.59375 C 2723.3499,83.151165 2723.2479,81.721153 2723.4375,78.125 2723.7872,71.491536 2725.7449,64.450702 2727.7188,62.8125 2728.7879,61.92521 2729.8963,61.916167 2732.375,62.8125 2740.9703,65.920576 2749.2822,63.501716 2753.5938,56.59375 2755.1907,54.035365 2757.4194,50.502351 2758.5312,48.75 2760.0471,46.36067 2761.6022,45.341259 2764.75,44.71875 2771.5162,43.38068 2775.7052,35.489982 2771.5,32 2770.2624,30.972887 2769.2681,31.201693 2766.0312,33.34375 2762.4696,35.700777 2761.9646,35.808278 2760.5625,34.40625 2758.6192,32.462962 2758.5894,30.28835 2760.5,26.625 2762.2039,23.357779 2762.4007,22 2761.125,22 z M 2708.5625,88 C 2706.7122,88 2702.3636,93.664234 2701.4688,97.25 2700.4566,101.30547 2702.627,100.6917 2704,96.53125 2704.6325,94.61485 2706.2273,92.175256 2707.5625,91.125 2710.3327,88.945972 2710.6497,88 2708.5625,88 z M 2719.125,96 2720.3438,93.3125 C 2716.3117,89.681771 2714.7971,89.359154 2712.5,91.65625 2709.5946,94.561646 2707.868,101 2710,101 2710.55,101 2711,99.939069 2711,98.625 2711,97.310931 2711.8519,95.173431 2712.9062,93.875 L 2714.8438,91.5 2718.6562,95.59375 C 2718.7866,95.73345 2718.9856,95.860055 2719.125,96 z"/>
</svg>
