<?xml version="1.0" encoding="UTF-8"?>
<svg xmlns="http://www.w3.org/2000/svg" viewBox="1440.35 15.43 44.68 87.16">
  <path d="M1443.0 46.470582C1443.0 46.179402 1444.8 43.663993 1447.0 40.880784C1449.2 38.097576 1451.0 35.290065 1451.0 34.641872C1451.0 33.993678 1449.2 31.28509 1447.0 28.622785C1442.8965 23.656933 1442.3775 22.502746 1443.8415 21.597929C1445.6532 20.478289 1454.0 31.350769 1454.0 34.830194C1454.0 37.148016 1446.1662 47.0 1444.3232 47.0C1443.5954 47.0 1443.0 46.761762 1443.0 46.470582Z M1457.3114 96.04828C1451.1439 92.287697 1450.266 80.327178 1455.0039 64.612081C1457.4042 56.650635 1457.8623 53.679462 1457.3548 49.362081C1457.0082 46.412936 1456.4491 44.018288 1456.1123 44.040641C1455.7755 44.062993 1453.942 45.412993 1452.0378 47.040641C1448.5503 50.021621 1446.0 50.849221 1446.0 49.0C1446.0 48.45 1446.4988 48.0 1447.1084 48.0C1447.7181 48.0 1450.1393 45.906216 1452.4889 43.347148C1458.2334 37.090639 1459.5554 37.763267 1460.4586 47.401963C1461.1473 54.75127 1460.7449 59.397159 1459.0643 63.5C1456.0525 70.852309 1454.6659 83.693371 1456.3647 88.5C1458.6886 95.075141 1466.0452 97.148543 1468.7831 92.0C1470.401 88.957578 1469.7524 76.294115 1467.5451 67.828542C1465.6216 60.451375 1464.6914 44.445073 1466.0398 41.925566C1467.5601 39.084891 1469.0221 39.670161 1473.8417 45.048851C1479.0088 50.815391 1478.599 53.942137 1473.3437 48.848464C1470.9685 46.546396 1469.6856 45.890614 1469.1747 46.717373C1467.9167 48.752834 1468.6646 58.27149 1471.0068 70.03438C1473.586 82.987311 1473.3779 92.819934 1470.4563 96.048301C1468.1204 98.629411 1461.5445 98.629401 1457.3114 96.04828Z M1458.0542 28.392139C1454.1394 25.098108 1452.4738 22.126208 1453.7994 20.800624C1454.4456 20.154415 1455.9075 21.05062 1458.0527 23.407984C1459.8505 25.383593 1461.9228 27.0 1462.6578 27.0C1463.3928 27.0 1465.8153 25.354773 1468.0411 23.34394C1470.6487 20.98812 1472.432 20.032006 1473.0555 20.655504C1474.1738 21.773802 1464.8129 31.0 1462.56 31.0C1461.7864 31.0 1459.7588 29.826462 1458.0542 28.392139Z M1475.25 40.495108C1472.4145 37.620592 1471.0 35.309307 1471.0 33.550617C1471.0 29.992569 1478.7894 19.389391 1480.2963 20.896251C1481.0829 21.682942 1480.776 22.823011 1479.1931 24.993134C1477.9869 26.64691 1476.0346 29.324011 1474.8546 30.942248L1472.7093 33.884495L1476.0475 36.692248C1480.9932 40.852023 1482.9946 43.199727 1482.4064 44.151444C1481.4073 45.76808 1479.4802 44.783502 1475.25 40.495108Z"/>
</svg>
