<?xml version="1.0" encoding="UTF-8"?>
<svg xmlns="http://www.w3.org/2000/svg" viewBox="1095.91 19.68 33.09 69">
  <path d="M 1097.9062 37.03125 L 1097.9062 37.5 L 1098.8438 41.28125 L 1098.875 41.5 L 1098.9688 39.5 L 1104.625 34.125 C 1107.7351 31.16445 1111.4524 28.144324 1112.875 27.40625 C 1115.2293 26.184836 1115.5623 26.256315 1116.6875 28.28125 C 1118.7598 32.010625 1118.2364 36.135636 1115.3125 39.1875 C 1112.5665 42.053667 1112.7189 44.308084 1115.5 42 C 1116.3516 41.293249 1117.311 40.967236 1117.625 41.28125 C 1117.939 41.595265 1118.1459 45.808838 1118.0938 50.625 C 1118.0149 57.924063 1117.6675 59.725087 1116 61.5 C 1113.6124 64.041554 1113.4757 65 1115.5 65 C 1116.6685 65 1117 66.336525 1117 71.0625 C 1117 75.992958 1116.5318 77.74247 1114.5 80.40625 C 1113.125 82.208968 1112 83.983165 1112 84.34375 C 1112 85.540856 1114.727 85.014616 1115.9062 83.59375 C 1116.8229 82.489323 1117.6915 82.441146 1120 83.3125 C 1123.9804 84.814952 1124.978 83.409239 1121.8438 80.71875 C 1119.4037 78.624203 1119.3056 78.109296 1119.75 70.75 C 1120.0853 65.19742 1120.6084 63 1121.5625 63 C 1122.2949 63 1123.1601 63.45 1123.5 64 C 1124.4695 65.568689 1127 65.159099 1127 63.4375 C 1127 62.58389 1125.65 61.418943 1124 60.84375 L 1121 59.8125 L 1121 50.84375 C 1121 42.329263 1121.1015 41.89743 1123 42.5 C 1125.5922 43.322738 1125.5922 41.31396 1123 38 C 1121.9245 36.625 1121.0435 34.698916 1121.0312 33.71875 C 1121.0005 31.256616 1118.1574 24.713599 1116.75 23.84375 C 1115.08 22.811648 1112.3705 24.478988 1104.7188 31.21875 L 1097.9688 37.1875 L 1097.9062 37.03125 z "/>
</svg>
