<?xml version="1.0" encoding="UTF-8"?>
<svg xmlns="http://www.w3.org/2000/svg" viewBox="1665.07 15.33 39.67 89.84">
  <path d="M1673.5128 98.020667C1673.1799 97.482033 1673.4198 96.084077 1674.046 94.914097C1675.5506 92.102649 1674.8 85.867831 1672.0815 78.596187C1670.1293 73.374528 1670.0082 72.134408 1671.0328 67.863372C1671.6699 65.20742 1673.5058 61.380151 1675.1126 59.358328C1677.1519 56.79222 1677.8417 55.050893 1677.3972 53.591143C1675.8006 48.347888 1674.0155 45.07867 1672.2263 44.121099C1671.1576 43.549162 1669.5178 41.91305 1668.5823 40.485293C1667.154 38.305362 1667.0671 37.326656 1668.0403 34.377847C1669.1153 31.120614 1669.4622 30.889268 1672.8311 31.183162C1676.4164 31.495943 1676.4759 31.439768 1677.4815 26.796277C1678.9378 20.070559 1679.9322 19.414618 1684.8604 21.928789C1691.9812 25.561556 1693.9752 32.721607 1689.5 38.588887C1686.5567 42.44774 1686.5088 42.90214 1688.5864 47.258776C1689.6093 49.403855 1691.6516 51.289232 1694.3364 52.56701C1700.2093 55.362128 1702.7402 60.583393 1701.0161 66.347677C1698.4171 75.037403 1692.7477 79.582474 1693.6537 72.25C1694.165 68.111434 1691.3512 61.715303 1688.796 61.208C1687.9871 61.0474 1686.253 61.784274 1684.9425 62.845498C1682.3137 64.974188 1682.1584 66.972479 1683.5185 81.176707C1683.9228 85.398895 1683.9824 89.933967 1683.6509 91.254644C1682.3459 96.454216 1675.4068 101.08526 1673.5128 98.020667Z M1681.1495 89.571212C1681.9893 87.728118 1681.8665 84.836287 1680.6404 77.579196C1679.1576 68.802588 1679.1565 67.739581 1680.6271 64.655831C1681.5084 62.807756 1683.5489 60.516247 1685.1616 59.563588C1687.8395 57.981738 1688.3006 57.966933 1690.4769 59.392915C1691.7876 60.251704 1693.6635 62.31462 1694.6456 63.977174C1696.8057 67.633907 1697.7662 67.77988 1698.5709 64.573729C1699.6976 60.084384 1696.8046 56.168862 1690.7864 54.037992C1688.9888 53.401512 1687.2166 51.387578 1685.5364 48.071834C1682.2685 41.623024 1682.3483 39.878005 1686.0063 37.79651C1688.4594 36.400618 1689.0 35.444423 1689.0 32.501056C1689.0 28.646654 1685.4548 24.0 1682.5141 24.0C1680.6652 24.0 1680.1867 25.086172 1679.6507 30.5C1679.2346 34.70192 1678.9346 34.855356 1673.0 33.901723C1670.9105 33.565956 1670.4493 33.938996 1670.1909 36.17381C1669.9439 38.310578 1670.6343 39.358915 1673.6281 41.393247C1676.4545 43.313818 1677.9296 45.415837 1679.6356 49.953999L1681.8969 55.969124L1679.6556 58.734562C1673.4 66.452963 1672.436 71.859539 1676.0 79.236136C1677.1 81.512873 1678.0 85.316136 1678.0 87.687829C1678.0 92.455421 1679.4424 93.317953 1681.1495 89.571212Z"/>
</svg>
