<?xml version="1.0" encoding="UTF-8"?>
<svg xmlns="http://www.w3.org/2000/svg" viewBox="4102.37 14.35 64.66 90.78">
  <path d="M 4105.3125,63.9375 4105.75,66.78125 C 4107.4901,65.586933 4109.4683,63.928399 4111.9062,61.46875 4115.4377,57.905759 4118.7798,55 4119.3125,55 4119.8451,55 4122.5127,56.378212 4125.25,58.0625 4127.9874,59.746789 4130.8245,60.896236 4131.5312,60.625 4133.3481,59.927858 4134.6512,41.693482 4133.125,38.34375 4132.2327,36.385433 4131.5157,36.000793 4129.75,36.53125 4127.4052,37.23566 4120,43.807767 4120,45.1875 4120,46.844215 4122.2627,45.89351 4125.1562,43 4126.8063,41.35 4128.7501,40 4129.4688,40 4131.1768,40 4132.085,43.624719 4131.0625,46.34375 4130.6193,47.522223 4130.4843,49.968836 4130.75,51.75 4131.3469,55.750362 4129.1208,56.976925 4125.5312,54.625 4120.6269,51.411616 4117.3654,52.431212 4110.1562,59.5 4108.3985,61.223529 4106.7115,62.771048 4105.3125,63.9375 z M 4106.875,73.625 4107.3438,76.5625 C 4109.311,75.750889 4110.7623,74.436944 4112.375,72 4115.9615,66.580491 4119.562,65.726776 4122.6562,69.59375 4125.7507,73.461087 4125.6264,74.915232 4121.6562,79.5625 4116.6021,85.478525 4116.4016,87.108834 4119.875,94.53125 4121.9989,99.069963 4123.4496,101 4124.75,101 4128.0862,101 4128.9726,99.017389 4128.3438,93 4127.8359,88.141582 4128.0862,86.83311 4130.125,83.6875 4132.8945,79.414478 4133.902,79.191706 4136.6875,82.25 4140.2011,86.107534 4141.1926,88.744587 4139.9688,91.03125 4139.3676,92.154535 4139.0181,94.742035 4139.1875,96.78125 4139.4685,100.1658 4139.7614,100.5 4142.5,100.5 4144.8199,100.5 4145.5728,99.996249 4145.8125,98.3125 4145.9831,97.114941 4146.7706,95.594786 4147.5625,94.9375 4149.6506,93.204543 4149.3605,85.985886 4146.9688,80.40625 4144.6565,75.012045 4145.4084,71.234126 4149.3438,68.71875 4153.671,65.95289 4154.7886,66.065397 4159.1875,69.5625 4160.3547,70.49042 4161.453,71.123195 4162.5312,71.6875 L 4162.9375,68.53125 C 4162.8775,68.489232 4162.8092,68.48064 4162.75,68.4375 4160.9589,67.133177 4158.4811,65.297852 4157.2188,64.375 4154.4667,62.363199 4151.9896,63.388287 4146.4688,68.75 4142.4787,72.62517 4142.2503,74.515477 4145,81.75 4146.0997,84.643399 4147,87.946488 4147,89.0625 4147,91.201162 4143.3685,99 4142.375,99 4142.0553,99 4142.0949,95.942324 4142.4688,92.21875 L 4143.1562,85.46875 4139,80.71875 C 4136.7102,78.117324 4134.5108,76 4134.125,76 4133.7391,76 4131.6749,78.347355 4129.5312,81.21875 4125.5351,86.571508 4124.8094,89.814882 4126.4062,95.25 4127.0084,97.299751 4126.8562,97.983905 4125.8438,97.96875 4124.4751,97.948263 4120,89.308933 4120,86.6875 4120,85.9116 4121.8548,82.913808 4124.125,80.0625 L 4128.25,74.90625 4126.4375,70.875 C 4122.6293,62.429821 4117.9867,61.88389 4111.625,69.15625 4109.365,71.739749 4108.1389,73.003414 4106.875,73.625 z M 4163.75,62.15625 4164.0938,59.4375 C 4162.8874,58.872779 4161.2562,57.888271 4159.4375,56.5 4153.981,52.33501 4152.4543,52.229329 4146,55.5 L 4141.0938,58 4141.6562,48.75 C 4141.967,43.666592 4142.5836,38.822398 4143.0312,38 4143.479,37.177602 4145.8099,36.04301 4148.1875,35.46875 4151.6126,34.6415 4152.9112,33.694413 4154.4375,30.875 L 4156.3438,27.3125 4154.0938,24.15625 C 4151.4639,20.462945 4148.4249,20.084817 4144.7188,23 4141.3862,25.621415 4140.8864,25.537301 4137.4375,21.9375 4134.1175,18.472152 4132.1772,18.571914 4126.1562,22.4375 4121.629,25.344087 4114.398,32.741766 4115.25,33.59375 4115.595,33.938826 4117.9807,32.24123 4120.5312,29.84375 4125.1003,25.5489 4130.4149,22.113264 4132.625,22.03125 4133.2463,22.008196 4135.3814,24.004543 4137.375,26.4375 4140.4035,30.133272 4140.8584,31.238645 4140.0938,33.25 4139.5903,34.574092 4138.9628,40.807363 4138.6875,47.09375 4138.2894,56.184825 4138.4844,58.917816 4139.6562,60.5 4140.9845,62.29328 4141.2414,62.345345 4142.3125,60.90625 4143.8882,58.789364 4149.3732,56 4151.9688,56 4153.1093,56 4156.3266,57.575 4159.125,59.5 4161.0854,60.848506 4162.5169,61.624434 4163.75,62.15625 z M 4149.25,23.21875 C 4149.7515,23.350058 4150.3003,23.887782 4151.125,24.90625 4153.4964,27.83483 4153.4728,28.527204 4151,31 4148.9063,33.09368 4144.5596,33.695376 4143.5312,32.03125 4142.7927,30.836422 4145.282,25.861418 4147.5625,23.96875 4148.2976,23.358665 4148.7485,23.087442 4149.25,23.21875 z M 4127.3438,30 C 4125.191,30 4117.9826,37.567609 4118.0312,39.78125 4118.0583,41.009208 4118.9715,40.491939 4121.2812,37.875 4123.0482,35.873142 4125.5125,33.692493 4126.75,33.0625 4129.3843,31.721417 4129.7185,30 4127.3438,30 z"/>
</svg>
