<?xml version="1.0" encoding="UTF-8"?>
<svg xmlns="http://www.w3.org/2000/svg" viewBox="566.32 15.91 17.45 84.92">
  <path d="M568.71563 96.299159C568.46088 95.859622 568.32484 78.656937 568.41331 58.070972C568.53504 29.746283 568.8692 20.5436 569.78708 20.237639C571.19804 19.76732 571.28476 22.903801 571.0317 65.25C570.86505 93.134383 570.91852 94.0 572.8075 94.0C573.87868 94.0 575.2068 93.4375 575.75886 92.75C576.33463 92.032968 577.03333 80.255737 577.39756 65.128212C577.74678 50.623729 578.30385 38.317372 578.6355 37.780752C578.96715 37.244132 579.17387 33.248937 579.09488 28.90254C579.01374 24.437633 579.36755 21.0 579.90825 21.0C580.43458 21.0 581.07086 21.7875 581.32218 22.75C581.77574 24.486991 581.7145 27.308178 580.49189 61.0C580.14261 70.625 579.77655 82.55 579.67842 87.5L579.5 96.5L574.3394 96.799159C571.50107 96.963697 568.97037 96.738697 568.71563 96.299159Z"/>
</svg>
