<?xml version="1.0" encoding="UTF-8"?>
<svg xmlns="http://www.w3.org/2000/svg" viewBox="1282.9 11.55 90.23 93.45">
  <path d="M1303.6829 98.392874C1302.1335 97.552996 1299.996 95.996013 1298.9329 94.932912C1296.5901 92.590095 1296.0742 92.559293 1293.1761 94.589191C1291.9282 95.463246 1290.16 95.891645 1289.2467 95.54119C1287.9463 95.04217 1288.4623 94.381586 1291.6262 92.494849C1295.1388 90.400202 1295.6101 89.703692 1295.2367 87.159448C1294.7763 84.022348 1291.1874 81.607129 1288.5118 82.633827C1287.5492 83.003216 1287.0 82.630178 1287.0 81.606989C1287.0 79.98421 1288.2826 79.643732 1293.1917 79.963288C1295.5331 80.1157 1295.9703 79.674987 1296.5516 76.576781C1297.4754 71.652237 1296.6059 70.0 1293.0904 70.0C1291.4556 70.0 1289.838 69.546822 1289.4956 68.992937C1288.4544 67.308241 1292.1023 66.599953 1295.3975 67.847012C1298.0382 68.846414 1298.6861 68.767893 1299.75 67.319459C1302.0733 64.156566 1301.2256 61.946218 1297.0102 60.175738C1294.8158 59.254082 1293.0158 58.1625 1293.0102 57.75C1292.993 56.482627 1297.3417 56.929769 1300.3643 58.506161C1304.2788 60.547713 1304.722 60.438362 1306.5047 56.990969C1309.0266 52.114128 1306.7234 49.330108 1300.6868 49.958418C1298.0093 50.237098 1294.3345 47.468747 1293.6239 44.637744C1291.4863 36.120637 1310.2677 15.797961 1315.0033 21.503972C1316.0739 22.793994 1315.8466 23.865773 1313.6445 27.911878C1311.1282 32.535145 1310.2645 36.0 1311.6283 36.0C1311.9738 36.0 1314.6896 34.607925 1317.6634 32.906499C1320.6372 31.205074 1323.7295 30.065951 1324.5351 30.375114C1326.9747 31.311262 1326.1849 36.184926 1322.6412 42.061421L1319.2875 47.622842L1321.6388 50.561421C1322.932 52.177639 1323.9923 53.992756 1323.995 54.595012C1323.9978 55.197269 1324.8885 56.494079 1325.9744 57.476811C1327.8707 59.192949 1328.0585 59.191808 1330.7244 57.447964C1335.4225 54.374773 1344.0 45.796164 1344.0 44.170667C1344.0 43.324097 1342.9955 40.576873 1341.7678 38.065724C1339.0914 32.591365 1338.8054 25.766043 1341.154 23.41739C1343.5143 21.057118 1345.6545 22.619311 1343.4293 25.078157C1341.9328 26.731763 1341.8798 27.499079 1342.9888 31.459878C1343.682 33.936043 1344.8682 36.475647 1345.6246 37.103443C1346.3811 37.731238 1347.0 39.72438 1347.0 41.532647C1347.0 45.452267 1340.6437 54.098649 1335.995 56.502584C1334.3478 57.354411 1333.0 58.413763 1333.0 58.8567C1333.0 60.338783 1328.2628 62.218179 1326.1874 61.559472C1325.0594 61.201453 1323.0274 59.016062 1321.6719 56.703047C1320.3163 54.390032 1318.2606 51.640869 1317.1036 50.593795C1314.4011 48.14801 1314.4213 48.001318 1318.0974 43.387505C1319.801 41.249377 1321.8682 38.203108 1322.6913 36.618017L1324.1879 33.736033L1321.4049 34.434506C1319.8743 34.818666 1317.4001 36.003058 1315.9066 37.066489C1313.0648 39.090027 1308.5182 39.647467 1307.5558 38.090337C1307.0205 37.224197 1309.7924 29.585632 1312.0691 25.652621C1314.0578 22.21726 1312.104 22.726724 1307.0445 26.962776C1299.9246 32.923877 1297.8474 36.203226 1297.6592 41.779696L1297.5 46.495527L1302.3743 47.057526C1311.119 48.065774 1312.1569 52.633833 1305.8942 62.550077C1300.5679 70.983689 1298.0843 77.655633 1297.8545 84.148005C1297.6777 89.143106 1297.863 89.550778 1301.9633 93.189482C1307.3446 97.964966 1310.067 98.023402 1316.4292 93.5C1322.1228 89.452046 1323.6487 89.269965 1329.0 92.0C1333.4812 94.286148 1336.0778 94.5222 1337.8 92.8C1338.7333 91.866667 1339.0 91.933333 1339.0 93.1C1339.0 97.252212 1333.1024 98.25236 1327.7742 95.003738C1323.3255 92.291377 1322.1263 92.449537 1316.4292 96.5C1311.0806 100.30271 1308.0393 100.75435 1303.6829 98.392874Z M1307.9922 91.194793C1302.6927 86.903497 1304.0289 72.072988 1310.4766 63.619533C1313.7751 59.295023 1316.1084 59.051028 1319.0008 62.72815C1320.1811 64.228633 1322.3176 66.224387 1323.7487 67.163159C1326.0793 68.691989 1326.6462 68.717208 1329.1838 67.404948C1332.6318 65.621942 1341.9123 56.328983 1347.1248 49.439959C1350.3024 45.2404 1351.9016 44.081044 1356.5289 42.622398C1362.3604 40.784196 1364.9153 37.827684 1363.6106 34.42765C1363.006 32.85195 1362.8262 32.847291 1361.1504 34.363881C1358.8867 36.412506 1354.4034 36.493744 1353.6384 34.5C1353.3218 33.675 1352.4861 33.035526 1351.7814 33.078947C1350.7777 33.140783 1350.7709 33.267222 1351.75 33.662281C1353.056 34.189271 1353.4588 37.207902 1352.3685 38.29815C1350.9705 39.696133 1348.0037 36.727567 1346.9729 32.899315C1345.7127 28.219477 1346.4222 23.723298 1348.7211 21.819098C1350.1459 20.638971 1350.2395 20.896427 1349.6091 24.262827C1349.1219 26.865199 1349.3407 28.648282 1350.3187 30.044552C1351.6403 31.9315 1351.7668 31.761583 1352.2533 27.44476C1352.7332 23.187252 1354.3277 19.994362 1355.4256 21.09231C1355.6781 21.344747 1355.9808 23.789747 1356.0983 26.525643C1356.2158 29.261539 1356.4837 31.822095 1356.6938 32.215767C1356.9039 32.609439 1358.6764 32.16823 1360.6328 31.235302C1364.0411 29.609999 1364.2485 29.619423 1365.5949 31.460665C1369.0292 36.157348 1365.557 42.893253 1358.3347 45.545058C1355.6756 46.521383 1352.9381 48.03565 1352.2513 48.910097C1348.6594 53.483306 1331.4555 70.038027 1329.7237 70.587705C1326.8414 71.502499 1320.1776 69.041303 1317.9832 66.251459C1316.4227 64.267608 1315.7682 64.0537 1314.0584 64.968722C1309.2583 67.537685 1306.4577 78.813366 1308.9752 85.4349C1310.2977 88.913096 1311.5386 88.680053 1316.6158 84.0C1319.0025 81.8 1321.6105 80.0 1322.4112 80.0C1323.212 80.0 1326.0961 81.385612 1328.8204 83.079137C1333.1456 85.767845 1334.0359 85.994542 1335.8414 84.866992C1339.1576 82.795994 1339.6876 84.845498 1336.5361 87.553472C1333.273 90.357354 1331.1435 90.100354 1326.6733 86.363167C1325.1186 85.063425 1323.1868 84.0 1322.3804 84.0C1321.5741 84.0 1318.7494 86.025 1316.1035 88.5C1313.4575 90.975 1311.0516 93.0 1310.7571 93.0C1310.4625 93.0 1309.2184 92.187657 1307.9922 91.194793Z"/>
</svg>
