<?xml version="1.0" encoding="UTF-8"?>
<svg xmlns="http://www.w3.org/2000/svg" viewBox="228.18 13.41 97.8 90.49">
  <path d="M 232.625,87.34375 232.9375,90.3125 C 233.68118,90.368419 234.59662,90.424906 235,90.46875 238.62949,90.863242 244.07296,86.407575 252,76.53125 257.02179,70.274584 257.17518,66.996447 252.75,60.375 248.61017,54.180515 245.5872,53.56905 241.125,58.03125 237.69661,61.45964 237.02446,60.274993 239.53125,55.25 241.14215,52.020889 246.7939,46 248.21875,46 248.68051,46 251.34179,47.8 254.125,50 259.88153,54.55028 262.21283,54.957408 264.4375,51.78125 267.63733,47.212846 265.75444,38 261.625,38 258.8894,38 256.62671,35.095302 255.5625,30.25 254.95666,27.491615 255.28259,26.561158 257.84375,24 259.62654,22.217212 261.90719,21 263.4375,21 265.76943,21 266,21.382419 266,24.9375 266,27.161863 266.68002,29.523777 267.5625,30.40625 268.97395,31.817699 269.58916,31.735138 274,29.5 276.67885,28.142521 279.15362,26.591708 279.5,26.03125 280.46555,24.468958 282,24.811807 282,26.59375 282,27.468475 279.75,30.34945 277,33 L 272,37.8125 272,45.90625 C 272,55.047017 272.75802,55.77441 277.875,51.46875 L 280.90625,48.90625 285.90625,51.46875 C 293.206,55.167817 294.46074,54.876894 298.5,48.5625 304.63995,38.964215 304.72091,38.591181 301.15625,34.53125 297.84504,30.759989 296.74609,27.889635 297.21875,24.3125 297.66066,20.968032 295.60547,21.45982 294.59375,24.9375 293.82428,27.582451 294.22555,28.827482 297.4375,34.03125 301.58856,40.756504 301.67156,40.212989 295.34375,48.71875 L 292.96875,51.90625 288.34375,49.46875 C 282.88538,46.566508 281.75055,46.454209 278.4375,48.625 277.06468,49.524502 275.72421,50.067968 275.46875,49.8125 275.21328,49.557031 274.72737,47.227101 274.375,44.65625 273.76167,40.181549 273.90456,39.831091 277.625,36.34375 283.31167,31.013383 284.99259,28.027683 285,23.25 285.00362,20.9125 284.7277,19 284.40625,19 284.0848,19 281.21184,21.070389 278,23.59375 270.74666,29.292299 268.34637,29.209241 268.8125,23.3125 269.08719,19.837635 268.82041,19.089188 267.0625,18.53125 263.88826,17.523784 258.39051,19.771805 255.4375,23.28125 253.21627,25.921034 252.86659,27.102422 253.28125,30.78125 253.78707,35.268899 257.96064,41 260.71875,41 262.0173,41 264,44.857814 264,47.375 264,48.059074 263.4375,49.380119 262.75,50.3125 261.60912,51.859751 261.00767,51.654569 255.75,48 252.5817,45.797741 249.38987,44 248.6875,44 247.17752,44 238.72878,52.547409 237.125,55.6875 234.99942,59.849245 236.28964,67.160337 238.875,65.5625 239.48649,65.184578 240,64.374945 240,63.75 240,62.079822 245.12223,57 246.8125,57 248.51324,57 250.24903,59.02744 253.0625,64.3125 L 255.125,68.125 252.53125,72.5 C 249.94205,76.918133 237.89663,88.010326 235.6875,88 235.27756,87.998084 233.82571,87.618519 232.625,87.34375 z M 233.4375,94.71875 233.71875,97.28125 C 235.26585,97.242034 236.6631,97.103978 237.71875,96.8125 241.95474,95.642887 253.96583,86.913652 258.65625,81.59375 260.39681,79.619588 262.42181,78.010599 263.15625,78.03125 263.89068,78.0519 266.28333,79.598774 268.46875,81.46875 272.33218,84.774532 272.40835,84.960222 271.21875,88.25 269.66639,92.542978 269.64949,96.274493 271.1875,97.8125 273.16361,99.788607 274.68682,99.196703 277.8125,95.25 282.47264,89.36578 285.17898,83.51774 284.5,80.8125 284.16962,79.496124 282.33223,76.456869 280.4375,74.0625 276.48626,69.069334 276.51173,69.133607 278.5,64.375 280.13948,60.451186 279.31064,60.546839 292.625,62.5625 L 296.75,63.1875 301.4375,56.625 C 304.01562,53.012097 307.14603,48.132454 308.375,45.78125 309.75155,43.147726 311.93993,40.847651 314.0625,39.78125 315.95752,38.829169 318.2875,37.0776 319.25,35.90625 321.41292,33.274001 321.53056,28.679899 319.46875,26.96875 318.1901,25.907565 317.41969,26.054795 315,27.84375 313.39527,29.03018 311.61714,30 311.03125,30 309.52535,30 308.03122,25.603334 308.6875,23.09375 309.00495,21.879785 308.76826,21 308.125,21 306.94271,21 306.57038,23.41328 306.9375,28.75 307.06046,30.5375 306.76427,32 306.28125,32 304.27521,32 302.99863,29.337324 302.96875,25.0625 302.93926,20.844472 302.82982,20.637996 301.46875,22.4375 299.2718,25.34212 299.6815,29.176669 302.53125,32.25 303.92851,33.75688 305.39101,35.003067 305.78125,35 308.66015,34.977372 314.21461,32.540531 315.46875,30.75 316.67626,29.026034 317.23636,28.830108 318.21875,29.8125 319.95568,31.54943 318.22588,33.999629 313.46875,36.5 311.03838,37.777414 308.87184,39.987727 307.5625,42.5625 306.42619,44.796994 303.32779,49.634494 300.6875,53.3125 295.40959,60.664795 294.89785,60.87598 286.09375,58.84375 281.61895,57.810843 280.81043,57.855651 279.0625,59.4375 274.14203,63.890465 274.35822,72.17144 279.53125,77.03125 283.36851,80.63617 282.86263,84.827914 277.9375,90.125 273.66742,94.717559 273.63114,94.676746 275.59375,87.34375 276.26121,84.849901 270.14909,77.400564 266.21875,75.90625 263.58873,74.906317 260.27685,76.208406 258.25,79.0625 256.12827,82.050222 244.41997,90.892222 239.84375,92.96875 237.56736,94.001696 235.48235,94.499771 233.4375,94.71875 z"/>
</svg>
