<?xml version="1.0" encoding="UTF-8"?>
<svg xmlns="http://www.w3.org/2000/svg" viewBox="1561 15.59 33.63 86.36">
  <path d="M 1590.2188 84.09375 C 1588.4751 82.042911 1587.8754 76.336108 1588.4062 66.65625 C 1588.7428 60.519628 1589.4311 52.990482 1589.9375 49.90625 C 1592.627 33.524396 1589.9078 19.519151 1584.1562 20.1875 C 1579.1587 20.768259 1577.5463 28.707082 1576.5312 57.6875 C 1575.898 75.765178 1574.6336 82.589813 1571.6562 84.40625 C 1570.1698 85.313089 1569.4466 84.99849 1567.5312 82.625 C 1566.2526 81.040436 1564.7367 80.05946 1564.125 80.4375 C 1563.5012 80.823008 1563 83.876324 1563 87.40625 C 1563 94.033925 1564.3008 96.337133 1568.5 97.1875 C 1571.4002 97.774813 1573.6376 97.067687 1575.5938 94.90625 C 1577.7957 92.473136 1578.1728 92.499901 1582.5938 95.5 C 1584.8718 97.045932 1586.7049 97.911281 1588.5625 98.03125 L 1588.9688 94.75 C 1587.0834 94.707008 1585.4502 93.637736 1583.3125 91.5 C 1581.3875 89.575 1579.6822 88 1579.5312 88 C 1579.3804 88 1577.5415 89.572809 1575.4375 91.5 C 1572.6671 94.037605 1571.0473 94.828623 1569.5625 94.375 C 1566.2988 93.377887 1564.8665 91.840855 1565.1875 89.59375 C 1565.4283 87.908695 1566.2258 87.494789 1569.25 87.46875 C 1571.3106 87.451008 1573.6003 86.776008 1574.3438 85.96875 C 1577.2207 82.844813 1578.874 73.442753 1579.5312 56.5 C 1580.392 34.312567 1581.4386 25.12392 1583.3125 23.25 C 1584.6555 21.906998 1584.9896 22.072896 1586.4062 24.8125 C 1588.2204 28.320797 1588.6164 45.674056 1587.0312 52.5 C 1585.3213 59.863084 1584.6231 79.361216 1585.9375 83.34375 C 1586.7505 85.807229 1588.1333 87.424042 1589.7188 88.1875 L 1590.2188 84.09375 z "/>
</svg>
