<?xml version="1.0" encoding="UTF-8"?>
<svg xmlns="http://www.w3.org/2000/svg" viewBox="3577.97 13.16 79.48 92.49">
  <path d="M 3653.25 46.375 C 3652.5142 47.545187 3651.124 48.861437 3648.5625 50.5 C 3645.564 52.418169 3642.6366 54 3642.0938 54 C 3641.5507 54 3639.0331 52.1881 3636.4688 49.96875 C 3630.8353 45.092921 3630.1371 45.157965 3621.375 51.53125 C 3619.2614 53.068654 3619.2306 53.019691 3618.5312 44.625 C 3617.718 34.861903 3618.652 32 3622.6562 32 C 3625.97 32 3630.999 35.093694 3633.9688 38.96875 C 3638.5841 44.991137 3641.1021 41.357132 3638.5 32.40625 C 3636.6954 26.198669 3634.369 23.524444 3627.75 20.21875 C 3622.3225 17.508135 3617.0666 17.366658 3613.875 19.84375 C 3612.5633 20.861748 3610.4252 22.267113 3609.0938 22.96875 C 3607.0063 24.068725 3606.4743 24.015001 3605.3438 22.46875 C 3604.5864 21.433136 3602.7667 20.65625 3601.0312 20.65625 C 3594.1326 20.65625 3591.3012 28.550922 3597.125 31.5625 C 3598.9882 32.526007 3601.4281 32.958117 3603.0938 32.625 C 3606.5231 31.939135 3606.8888 32.880975 3607.0938 42.5 C 3607.3355 53.859594 3607.0823 54.101841 3600.8125 48.4375 C 3597.5595 45.498596 3596.2267 44.934249 3593.1875 45.1875 C 3590.0179 45.45162 3589.0594 46.181821 3586.2812 50.4375 C 3582.9482 55.542964 3581.5848 61.01722 3582.1562 67.03125 C 3582.4359 69.974714 3582.8646 70.5 3584.9688 70.5 C 3587.0286 70.5 3587.5782 69.903567 3588.0625 67 C 3588.8605 62.215413 3591.9455 56 3593.5312 56 C 3595.2278 56 3600.6782 62.913118 3601.4688 66.0625 C 3601.9741 68.075799 3601.2288 69.345686 3597.1875 73.21875 C 3594.3273 75.959842 3592.0289 79.168155 3591.6875 80.875 C 3591.1046 83.789514 3593.6782 94.626357 3595.9688 98.90625 C 3597.3291 101.44799 3600.7274 101.42297 3602.3438 98.84375 C 3603.085 97.660693 3602.9921 96.004817 3602.0312 93.09375 C 3600.9491 89.814871 3600.9216 88.454773 3601.9062 86.25 C 3603.7647 82.088716 3608.1481 76 3609.2812 76 C 3610.547 76 3612.4882 78.447797 3615.0625 83.28125 C 3616.8088 86.559979 3616.9172 87.562819 3615.9062 90.9375 C 3614.5605 95.429324 3615.2935 99.523541 3617.5938 100.40625 C 3619.9219 101.29965 3620.7215 100.49658 3623.9062 94.1875 C 3626.5503 88.949542 3626.6978 88.069089 3625.8125 83 C 3625.2845 79.976642 3624.6813 76.36896 3624.4688 74.96875 C 3624.2563 73.56854 3623.6629 71.31854 3623.1562 69.96875 C 3622.1289 67.231942 3624.9548 60.35169 3627.5 59.375 C 3628.272 59.078739 3631.34 60.433192 3634.3125 62.40625 C 3637.285 64.379307 3640.6037 66 3641.6875 66 C 3642.7712 66 3645.8382 64.446024 3648.5312 62.53125 C 3651.3041 60.559861 3652.5907 59.85136 3653.375 59.9375 L 3653.5938 53.4375 C 3652.6022 56.363383 3648.0807 60.727103 3644.25 62.0625 C 3641.5407 63.006975 3640.6303 62.881897 3638.2812 61.25 C 3635.0687 59.018113 3629.0648 56 3627.8438 56 C 3627.3838 56 3625.3614 58.492574 3623.3438 61.53125 L 3619.6875 67.0625 L 3621.8438 76 C 3624.5116 87.083496 3624.5037 88.422292 3621.9062 92.625 C 3619.2303 96.95486 3617.6125 97.019119 3618.5625 92.75 C 3620.242 85.201796 3619.3416 82.21883 3613.2188 75.03125 C 3609.6912 70.890436 3609.265 71.103673 3603.0312 80.1875 C 3599.4007 85.477873 3598.8901 86.883756 3599.25 90.40625 C 3599.4799 92.655957 3600.0101 95.2875 3600.4375 96.25 C 3601.0018 97.52078 3600.7522 98 3599.5625 98 C 3598.6614 98 3597.7627 97.4375 3597.5625 96.75 C 3597.3623 96.0625 3596.4384 92.896165 3595.5 89.71875 C 3593.3112 82.308159 3593.9581 79.952662 3600.0312 73.53125 C 3602.7557 70.650506 3605 67.723706 3605 67 C 3605 64.585854 3598.7718 55.933343 3596 54.5 C 3593.4905 53.202264 3593.0937 53.256598 3591.25 55.28125 C 3590.1448 56.494888 3588.4536 59.192349 3587.5 61.25 C 3585.2186 66.172488 3584.0312 65.229698 3585.125 59.375 C 3586.0079 54.649256 3590.1088 48.08663 3592.3125 47.875 C 3595.7682 47.543133 3597.895 48.537329 3601.6875 52.21875 C 3604.259 54.715031 3606.4176 56.042942 3607.3438 55.6875 C 3609.4944 54.862227 3610.3609 47.345866 3609.5625 36.46875 C 3608.7998 26.077837 3609.3358 24.958965 3616.625 21.5 C 3619.718 20.032309 3620.3032 20.04692 3623.75 21.5625 C 3631.394 24.923565 3632.3625 25.564364 3634.1562 28.5 C 3635.9006 31.354591 3636.6149 35 3635.4375 35 C 3634.211 35 3629.2773 32.026178 3628.0625 30.5625 C 3626.1456 28.252706 3619.7254 28.537659 3617.4688 31.03125 C 3615.9044 32.759797 3615.6684 34.591182 3615.8438 43.21875 C 3616.032 52.478211 3616.9111 56 3619.0312 56 C 3619.4619 56 3621.6959 54.425 3624 52.5 C 3626.3041 50.575 3628.9228 49 3629.8125 49 C 3630.7021 49 3633.3907 50.9125 3635.7812 53.25 L 3640.125 57.5 L 3647.0625 53.8125 C 3651.7505 51.312785 3653.1936 50.612146 3653.6875 51.09375 L 3653.8438 46.46875 L 3653.25 46.375 z M 3600.8125 23 C 3602.7242 23 3605.1811 25.783979 3604.8438 27.5625 C 3604.377 30.021891 3598.881 30.778575 3597.0938 28.625 C 3596.093 27.419247 3596.2583 26.741698 3597.9375 25.0625 C 3599.0743 23.925699 3600.3676 23 3600.8125 23 z "/>
</svg>
