<?xml version="1.0" encoding="UTF-8"?>
<svg xmlns="http://www.w3.org/2000/svg" viewBox="4304.94 15.32 43.36 91.34">
  <path d="M 4310.2188,90 4311,94.40625 C 4311.5488,94.527519 4312.2055,94.738013 4312.5,94.625 4313.3183,94.311023 4314,93.087194 4314,91.90625 4314,90.725306 4314.6446,87.673817 4315.4375,85.125 4317.2586,79.27062 4320.7227,63.835514 4321.4688,58.21875 4322.1385,53.176188 4320.657,52.076356 4315.9375,54.03125 4314.2797,54.717916 4312.712,55.055788 4312.4375,54.78125 4311.8723,54.216045 4314.8517,48.294852 4316.75,46.21875 4318.2406,44.588593 4318.3886,42 4317,42 4315.8235,42 4311.4713,35.432585 4310.5312,32.25 4309.5993,29.09515 4311.5306,29.377574 4315.6562,33 4320.442,37.201933 4322.3455,36.881209 4324.875,31.5 4326.0355,29.030995 4327,26.555995 4327,26 4327,25.444006 4327.3725,25 4327.8125,25 4329.3408,25 4331,27.419436 4331,29.625 4331,32.61915 4332.0061,35 4333.25,35 4333.812,35 4336.0049,33.412443 4338.1562,31.46875 4342.6278,27.429052 4344.1862,27.667563 4343.3125,32.28125 4342.4587,36.790072 4341.1712,39.117289 4337.8438,42 L 4334.9375,44.5 4337.0312,48.65625 C 4338.4121,51.409281 4339.0186,54.260444 4338.8125,57.03125 L 4338.5,61.21875 4334.6562,57.46875 C 4329.5852,52.530302 4328.6654,53.65401 4327.0625,66.46875 4326.3772,71.947135 4324.964,79.147135 4323.9375,82.46875 4322.1219,88.343201 4316.8938,97.768303 4314.625,99.25 4313.9501,99.690813 4313.0117,99.911623 4311.9688,100 L 4312.4375,102.5 C 4315.3133,101.69201 4317.9204,99.740623 4320.1562,96.5 4323.4059,91.790051 4328.9168,75.622987 4328.2188,72.8125 4327.826,71.231694 4330.0846,61.603859 4331.1562,60.3125 4332.1151,59.157187 4332.875,59.458677 4335.5938,62.09375 4340.0525,66.415451 4342,65.544358 4342,59.21875 4342,56.549464 4341.2635,52.232481 4340.375,49.625 4338.8224,45.068211 4338.8626,44.789836 4340.8125,42.6875 4343.2686,40.039457 4346.3032,31.106961 4345.8438,27.875 4345.368,24.529388 4342.2639,24.374325 4338.9688,27.53125 4335.6537,30.707348 4334.9594,30.409099 4332.5625,25.09375 4330.8359,21.264695 4328.6828,19.467381 4327.0625,20.46875 4326.642,20.728641 4325.3031,23.651856 4324.0938,26.96875 4321.8149,33.218598 4320.0972,34.355791 4317.8125,31.15625 4315.7661,28.290512 4311.177,25.714769 4309.375,26.40625 4306.9461,27.338304 4308.1542,33.878514 4311.8438,39.875 L 4314.8438,44.78125 4311.4375,50.125 C 4308.1366,55.248453 4306.9383,60 4308.9688,60 4309.5054,60 4311.418,59.097944 4313.2188,58 4315.0195,56.902056 4317.0625,56.002056 4317.75,56 4319.241,55.995541 4319.4089,61.038264 4318.0625,65.4375 4317.5456,67.126549 4316.6043,71.2 4315.9688,74.5 4314.2641,83.351182 4312.159,88.97097 4310.2188,90 z M 4325.4062,38.125 C 4324.0002,38.257123 4323.4497,39.058593 4322.4688,41.40625 4320.6093,45.85652 4320.6304,46.474151 4322.625,48.46875 4326.4026,52.246311 4333.0729,46.754743 4331.2812,41.34375 4330.5432,39.114884 4329.6532,38.433639 4327.1562,38.1875 4326.4482,38.117698 4325.8749,38.080959 4325.4062,38.125 z M 4327.6875,41 C 4328.6719,41 4329.0282,41.881006 4328.8125,43.75 4328.4567,46.833116 4325.3486,48.099672 4324.375,45.5625 4323.6593,43.697362 4325.6208,41 4327.6875,41 z"/>
</svg>
