<?xml version="1.0" encoding="UTF-8"?>
<svg xmlns="http://www.w3.org/2000/svg" viewBox="3762.76 57.47 31.27 45.61">
  <path d="M 3782.4912,94.027707 C 3782.8359,92.941778 3783.0311,88.778801 3782.925,84.776646 3782.8189,80.774491 3783.0502,76.364974 3783.4391,74.977721 3784.434,71.428183 3780.8524,67 3776.9864,67 3773.0451,67 3772.6226,68.189897 3774.3968,74.293018 3775.973,79.714852 3775.6859,83.037648 3773.3445,86.472506 3771.6534,88.953441 3771.5978,94.428541 3773.25,95.769947 3776.55,98.449152 3781.3767,97.539184 3782.4912,94.027707 z M 3769.1948,96.556825 C 3769.229,93.641771 3768.6563,92.140105 3766.9982,90.797457 L 3764.7553,88.981265 3767.7975,87.920757 C 3772.1282,86.411072 3772.6514,84.106633 3769.2884,81.354137 L 3766.5,79.071926 3769.8666,79.035963 C 3772.912,79.003432 3773.1604,78.785285 3772.4701,76.75 3768.6534,65.497662 3778.3581,59.539546 3784.7558,69.207246 3787.124,72.785773 3787.2441,73.435994 3786.1142,76.560619 3784.5877,80.782072 3785.1747,81.880418 3788.6066,81.224365 3790.5708,80.848896 3791.142,81.078797 3790.8034,82.108475 3790.5517,82.873814 3789.1076,83.645803 3787.5943,83.824006 3785.6198,84.05652 3785.0062,84.573777 3785.4214,85.655793 3785.7396,86.485073 3786,87.954539 3786,88.921272 3786,89.888006 3787.125,91.191554 3788.5,91.818046 3792.0283,93.425669 3791.7342,95.39684 3788.0752,94.665031 3785.5262,94.15523 3784.8876,94.525329 3783.1058,97.545223 3781.1019,100.94161 3780.9431,101.00532 3775.1049,100.75519 L 3769.1485,100.5 3769.1948,96.556825 z"/>
</svg>
