<?xml version="1.0" encoding="UTF-8"?>
<svg xmlns="http://www.w3.org/2000/svg" viewBox="3409.86 28.58 25.57 72.45">
  <path d="M 3422.6562 31.875 L 3422.4062 34.21875 L 3422.1875 36.65625 C 3422.6847 36.56555 3423.1173 36.672335 3423.625 37.09375 C 3424.7862 38.057469 3424.9502 40.012912 3424.4062 46.90625 C 3423.7639 55.049082 3423.5228 55.730199 3419.9375 59.65625 C 3415.4264 64.595986 3414.066 70.641798 3415.9688 77.4375 C 3417.0838 81.420308 3417.0183 82.062395 3415.0312 84.75 C 3413.8338 86.369543 3412.6116 89.519788 3412.3125 91.75 C 3411.8637 95.095598 3412.1209 96.003131 3413.75 96.875 C 3415.3623 97.737859 3416.0986 97.475933 3417.8438 95.46875 C 3420.3662 92.567798 3421.2542 92.461958 3424.9688 94.65625 C 3426.5048 95.563619 3428.4887 96.027608 3429.375 95.6875 C 3431.2247 94.977718 3431.5395 90.517807 3430 86.46875 C 3429.2238 84.427037 3429.4452 82.266248 3431.0312 77.15625 C 3433.4328 69.419003 3433.0796 65.844896 3429.3125 60.34375 C 3426.8746 56.783634 3426.6794 55.766417 3426.8438 46.9375 C 3427.0179 37.592266 3426.9721 37.298504 3423.8125 33.1875 C 3423.3781 32.622369 3423.0355 32.314699 3422.6562 31.875 z M 3424.625 60.1875 C 3425.7658 60.213909 3426.7881 61.224348 3428.0625 63.25 C 3430.6359 67.340738 3430.0943 75.031563 3426.9062 79.34375 C 3424.8591 82.112644 3424.8244 82.404743 3426.375 85.65625 C 3429.2405 91.66528 3428.556 92.914811 3423.4375 90.96875 C 3421.3656 90.181017 3420.1941 90.297344 3418.4062 91.46875 C 3417.1249 92.308362 3415.8256 93 3415.5312 93 C 3414.2162 93 3415.2405 89.998932 3418.0938 85.5 C 3421.116 80.734347 3421.1518 80.548676 3419.5938 77.28125 C 3417.1516 72.159965 3417.54 66.691657 3420.5938 63.0625 C 3422.2413 61.104487 3423.4842 60.161091 3424.625 60.1875 z "/>
</svg>
