<?xml version="1.0" encoding="UTF-8"?>
<svg xmlns="http://www.w3.org/2000/svg" viewBox="2239.54 17.83 66.87 87.13">
  <path d="M 2277,40 C 2278.2521,38.747858 2279,36.666667 2279,34.434259 2279,29.262374 2277.4677,27 2273.9648,27 L 2271,27 2271,33.833333 C 2271,37.591667 2271.3,40.966667 2271.6667,41.333333 2272.8821,42.548773 2274.9743,42.025732 2277,40 z M 2269,34.581787 C 2269,28.042852 2268.3773,25 2267.039,25 2266.6282,25 2265.1013,26.103513 2263.646,27.452251 2258.609,32.120433 2260.9156,40.75769 2267.25,40.947548 2268.7403,40.992217 2269,40.047686 2269,34.581787 z M 2257.5376,93.645068 C 2255.5919,89.599856 2254.0099,85.212356 2254.022,83.895068 2254.0498,80.853867 2257.1573,73.971429 2260.4539,69.649263 2261.8543,67.813338 2263,65.432521 2263,64.358557 2263,61.950274 2256.0627,55 2253.6589,55 2251.2016,55 2248.049,62.410447 2248.022,68.25 2247.9995,73.110523 2246.7091,74.309095 2244.2,71.8 2242.5846,70.184565 2242.7563,60.229298 2244.4639,56.5 2245.6647,53.877425 2245.8478,53.777149 2245.9188,55.702947 2245.9635,56.914568 2245.4929,59.018884 2244.8731,60.379205 2244.1956,61.866109 2244.0605,63.978683 2244.5344,65.676258 2245.2755,68.331305 2245.3677,68.216824 2246.077,63.759983 2246.8032,59.196786 2250.0861,53.74152 2252.8059,52.578356 2256.7337,50.898553 2266,59.019226 2266,64.141284 2266,65.49016 2263.9367,69.722684 2261.4149,73.546893 2256.1943,81.463632 2255.9577,84.702379 2260.1249,91.207674 2263.2643,96.108536 2264.3561,95.954701 2263.3731,90.75 2262.0747,83.875571 2262.6433,80.215003 2265.5515,76.726929 2268.9442,72.657611 2272.8506,70.45063 2274.2261,71.826097 2275.5493,73.149325 2277.4504,76.473923 2280.0437,82 2281.8277,85.801549 2281.9882,87.061247 2281.0777,90.11602 2279.7921,94.429681 2279.6804,98 2280.8311,98 2281.2883,98 2282.8777,95.27581 2284.3633,91.946244 2287.5186,84.874259 2287.1404,81.971246 2282.111,74.661315 2279.5995,71.011052 2279.1361,69.537189 2279.6494,66.832251 2280.511,62.291352 2281.6561,60.271458 2284.3805,58.486375 2286.4295,57.143802 2287.0916,57.14032 2290.2394,58.455569 2292.1913,59.27112 2294.7662,61.189751 2295.9613,62.719194 L 2298.1344,65.5 2297.6289,61.000601 C 2296.7775,53.422117 2289.0099,47.958926 2283.2364,50.877916 2275.1971,54.942501 2273.9812,55.153157 2268.6307,53.408412 2265.8088,52.488236 2263.05,51.403583 2262.5,50.998073 2259.6939,48.92913 2253.9813,48.968886 2249.831,51.086241 L 2245.5903,53.249671 2247.1472,50.874836 C 2250.6029,45.603775 2256.1186,44.994972 2264.5,48.959518 2267.9763,50.603889 2268.6091,50.656982 2269.3337,49.36506 2270.6101,47.089073 2269.4724,45.318013 2265.5332,43.448724 2260.1364,40.887757 2257.8344,37.451862 2258.5961,33.094598 2259.3799,28.610726 2261.2816,25.516803 2264.5836,23.353267 2266.974,21.786988 2267.4744,21.787219 2272.3197,23.356842 2275.1689,24.279832 2278.308,25.654243 2279.2956,26.41109 2281.3183,27.961197 2282.5502,33.67171 2281.6423,37.289093 2280.8651,40.385855 2276.2457,45 2273.9227,45 2271.5889,45 2270.9545,46.110042 2271.6872,48.911688 2272.2074,50.901158 2272.7084,51.091865 2275.8889,50.511253 2277.875,50.14869 2280.4967,49.210336 2281.7148,48.426024 2286.2511,45.505303 2293.8943,47.85666 2297.4364,53.262633 2301.3409,59.22156 2303.3781,72.257205 2300.5731,73.33357 2298.9917,73.940427 2298.3645,73.237293 2295.5719,67.726374 2293.4774,63.593084 2288.0817,59.647686 2285.7482,60.543132 2283.9347,61.239017 2282,65.293043 2282,68.397015 2282,69.663614 2283.3783,72.602623 2285.0629,74.928145 2288.76,80.031898 2289.8651,86.575872 2287.7233,90.682825 2286.9152,92.232271 2285.5292,95.1875 2284.6432,97.25 2283.3844,100.18046 2282.4756,101 2280.4848,101 2277.1704,101 2276.4887,98.975677 2277.6485,92.577164 2278.7945,86.254572 2277.9033,82.595646 2274.1113,78.055808 L 2271.2345,74.611616 2268.0022,77.843982 2264.7698,81.076348 2265.4777,89.573954 C 2266.2007,98.253448 2265.4645,101 2262.4151,101 2261.6781,101 2259.4832,97.690281 2257.5376,93.645068 z"/>
</svg>
