<?xml version="1.0" encoding="UTF-8"?>
<svg xmlns="http://www.w3.org/2000/svg" viewBox="4514.84 19 43.56 41.66">
  <path d="M 4518.1875 55.0625 L 4520.9375 58.65625 C 4522.2154 55.56803 4522.9544 46.176357 4522.1875 40 L 4521.25 32.5 L 4525.875 28.28125 L 4530.5 24.03125 L 4534.8438 28.78125 L 4539.1875 33.5 L 4538.625 44.75 C 4538.316 50.944151 4538.3422 56.681651 4538.6562 57.5 C 4538.7848 57.835083 4539.0219 58.003368 4539.2188 58.21875 L 4541.1562 56.03125 C 4541.0033 55.88257 4540.8673 55.734121 4540.7188 55.46875 C 4540.1573 54.465375 4540.2288 52.159365 4540.9062 49.46875 C 4541.5098 47.071985 4541.9916 43.631449 4542 41.8125 C 4542.0225 36.953577 4543.068 35.964224 4547.9688 36.15625 C 4551.4593 36.293028 4552.6997 35.883281 4554.25 33.96875 C 4556.4026 31.310378 4556.0408 26.603299 4553.5 24.0625 C 4551.9612 22.523767 4550.3112 23.097789 4542.7188 27.78125 L 4539.9375 29.5 L 4536.375 25.25 C 4534.4235 22.9125 4532.1986 21 4531.4375 21 C 4530.6764 21 4528.5584 22.504108 4526.7188 24.34375 C 4524.879 26.183392 4522.7287 28.095892 4521.9375 28.59375 C 4521.1463 29.091608 4519.6094 30.541422 4518.5312 31.8125 C 4516.9664 33.657342 4516.8438 34.280853 4517.9062 34.9375 C 4518.8533 35.522789 4519.2831 38.604879 4519.375 45.625 C 4519.4551 51.73935 4519.4387 54.411724 4518.1875 55.0625 z M 4550.9688 24.78125 L 4552.0625 27.625 C 4552.7325 29.375053 4552.7995 31.057249 4552.25 31.9375 C 4551.0496 33.860167 4550.0159 34.02103 4546.6875 32.8125 C 4543.3367 31.595838 4543.5626 30.472033 4547.7812 27.21875 L 4550.9688 24.78125 z M 4529.9062 31.8125 C 4529.3969 31.620992 4529 35.753845 4529 44.3125 C 4529 56.275614 4529.2101 58 4530.625 58 C 4532.0713 58 4532.1682 56.630954 4531.5312 45.25 C 4531.0419 36.507378 4530.4156 32.004008 4529.9062 31.8125 z "/>
</svg>
