<?xml version="1.0" encoding="UTF-8"?>
<svg xmlns="http://www.w3.org/2000/svg" viewBox="1701.3 13.84 122.92 89.44">
  <path d="M1745.4489 98.234687C1743.9309 97.173693 1738.0 86.296338 1738.0 84.57334C1738.0 83.772014 1740.25 80.545181 1743.0 77.402602C1745.75 74.260023 1748.0 71.123838 1748.0 70.433304C1748.0 68.85707 1742.3175 64.0 1740.4734 64.0C1739.7182 64.0 1737.0999 65.35 1734.6551 67.0C1728.8198 70.938234 1725.923 70.828714 1721.1186 66.488207C1716.321 62.153817 1715.0 57.488814 1715.0 44.880365C1715.0 35.882038 1714.9064 35.510505 1711.3336 30.322919C1706.8916 23.873371 1707.6661 22.152836 1712.5909 27.529541C1717.7724 33.186373 1717.9995 33.905785 1718.0056 44.684259C1718.0124 56.703365 1719.1494 61.1065 1723.106 64.435724C1727.0627 67.765093 1729.1678 67.668681 1734.6341 63.907727C1737.8668 61.683613 1739.8073 60.985793 1741.5459 61.422177C1745.2065 62.340915 1751.0 67.872 1751.0 70.448003C1751.0 71.708481 1748.8125 75.188555 1746.0 78.402602C1743.25 81.545181 1741.01 84.427697 1741.0222 84.808191C1741.0345 85.188686 1741.9245 86.625 1743.0 88.0C1744.0755 89.375 1744.9655 90.976492 1744.9778 91.55887C1744.99 92.141249 1745.7057 93.491249 1746.5683 94.55887C1748.0394 96.379758 1748.102 96.245146 1747.5782 92.385754C1747.0067 88.17484 1748.2862 85.506225 1754.6439 77.649432C1757.3374 74.320916 1758.1316 74.3342 1760.657 77.75C1764.9209 83.517302 1765.986 86.562102 1764.9739 90.090897C1764.3818 92.155532 1764.3744 93.774354 1764.9543 94.354317C1765.5343 94.93428 1766.131 94.190191 1766.5259 92.394645C1766.8761 90.80259 1767.6402 88.239274 1768.224 86.698386C1769.0505 84.516807 1768.8777 82.550251 1767.4432 77.812541C1765.6284 71.818643 1765.6309 71.676897 1767.6094 68.265437C1768.7139 66.360856 1770.8441 64.059486 1772.3432 63.151281C1774.933 61.582198 1775.2634 61.612001 1778.9824 63.75C1784.6742 67.022116 1789.2007 66.738635 1792.4238 62.90821C1795.8124 58.881064 1799.6379 50.477327 1802.6243 40.5C1805.3191 31.49699 1806.7501 29.203776 1812.7793 24.225792C1818.6331 19.392642 1818.4289 22.473633 1812.4841 28.677899C1809.0382 32.274312 1807.491 34.993505 1805.9538 40.155203C1804.8458 43.87556 1803.5374 47.167897 1803.0461 47.471507C1802.5549 47.775116 1801.4043 50.277447 1800.4893 53.032241C1799.5743 55.787036 1797.0715 60.260106 1794.9276 62.972399C1790.3105 68.813429 1786.4493 70.050207 1780.5395 67.580964C1775.6364 65.532314 1773.6839 65.586766 1771.655 67.828741C1769.7287 69.957273 1769.5267 74.688194 1771.1332 80.050101C1772.6596 85.144804 1769.6913 95.727887 1766.303 97.271707C1762.5751 98.970243 1760.842 96.671627 1761.5914 91.022697C1762.2726 85.887744 1760.1209 80.0 1757.5632 80.0C1755.9293 80.0 1751.4149 85.117282 1750.4967 88.010304C1750.1439 89.121907 1750.3904 91.652803 1751.0444 93.634518C1752.0113 96.564127 1751.978 97.399488 1750.8668 98.103505C1749.1948 99.162731 1746.8576 99.219321 1745.4489 98.234687Z M1716.1962 26.702393C1714.4383 24.888709 1713.0 23.088709 1713.0 22.702393C1713.0 21.271388 1715.7477 22.063699 1717.5 24.0C1718.4955 25.1 1719.8455 26.0 1720.5 26.0C1721.1545 26.0 1722.5045 25.1 1723.5 24.0C1725.1644 22.160819 1728.0 21.249298 1728.0 22.553429C1728.0 24.000263 1722.3167 29.999944 1720.9462 29.999971C1720.0916 29.999987 1717.9541 28.516077 1716.1962 26.702393Z M1726.0726 58.365141C1724.9327 56.915969 1723.9827 54.328469 1723.9615 52.615141C1723.9403 50.901814 1723.6758 46.6312 1723.3737 43.124888C1722.534 33.379954 1723.3487 30.806745 1728.4291 27.158306C1734.8052 22.579324 1736.0738 23.286218 1730.6591 28.400913L1726.0 32.801826L1726.0596 39.650913C1726.1338 48.175219 1727.334 55.734004 1728.8548 57.254798C1729.7308 58.130839 1731.3343 57.742213 1735.4573 55.654552L1740.9027 52.897275L1745.2014 54.879507C1747.5656 55.969735 1749.8695 56.500881 1750.321 56.059831C1750.7726 55.618781 1751.2226 50.724966 1751.321 45.184685C1751.5195 34.016467 1750.7372 31.999896 1746.9855 34.007747C1743.9735 35.619724 1741.3153 32.943706 1740.4433 27.42177C1739.2835 20.07673 1745.1776 17.906231 1748.2101 24.561704C1749.6825 27.793427 1751.4681 27.638467 1754.1222 24.048617C1757.3356 19.702197 1758.8552 19.548914 1763.3022 23.122618L1767.2696 26.310933L1771.5837 23.954254C1775.7297 21.689433 1775.9743 21.666753 1777.859 23.372384C1783.0282 28.050469 1780.5484 34.660071 1774.0136 33.621702C1772.0811 33.314637 1769.9309 33.417299 1769.2352 33.849838C1767.9805 34.630045 1765.004 48.971833 1765.0014 54.25C1764.9997 57.673371 1765.9743 57.685427 1771.6951 54.332802C1775.2724 52.236339 1776.5944 51.904278 1777.8732 52.780992C1783.1858 56.423458 1786.8764 57.8538 1787.8708 56.655707C1789.9584 54.140297 1795.1105 41.473047 1795.6516 37.525427C1796.1486 33.898856 1795.8079 32.95932 1792.6056 29.126427C1789.1949 25.044059 1788.0049 22.0 1789.8197 22.0C1790.7551 22.0 1793.4601 24.993419 1796.8664 29.798014C1799.7972 33.931897 1799.3214 37.328951 1794.2473 48.5C1788.5433 61.057837 1787.2719 61.907837 1780.7852 57.5C1778.7617 56.125 1776.6008 55.0 1775.9832 55.0C1775.3656 55.0 1772.842 56.388647 1770.3752 58.085883C1765.3543 61.540351 1763.3803 61.363456 1762.3778 57.369206C1761.7101 54.708622 1763.2313 42.308831 1765.1684 34.622732C1766.0821 30.99739 1765.9332 30.52632 1762.8766 27.372732C1761.0787 25.517729 1759.1334 24.024898 1758.5538 24.055329C1757.9742 24.08576 1756.4362 25.45638 1755.136 27.10115C1752.9223 29.901539 1752.832 30.517819 1753.7154 36.795821C1754.8329 44.737281 1754.0002 57.399805 1752.245 59.155038C1751.2565 60.143504 1750.0356 60.04943 1746.2518 58.693248C1740.1813 56.517456 1738.8332 56.556746 1735.7271 59.0C1732.1857 61.785694 1728.5765 61.548363 1726.0726 58.365141Z M1747.6822 29.454751C1748.0487 28.353904 1744.0916 23.575052 1743.3925 24.274162C1743.169 24.497679 1743.2748 26.123772 1743.6275 27.887703C1744.2475 30.987339 1746.8387 31.988785 1747.6822 29.454751Z M1777.3005 29.659316C1777.5834 28.92194 1777.4549 27.736034 1777.0148 27.023969C1775.979 25.347961 1771.0 26.516589 1771.0 28.435719C1771.0 30.909824 1776.4169 31.961829 1777.3005 29.659316Z M1796.5337 26.756925C1792.9084 23.429806 1791.9765 21.0 1794.3257 21.0C1795.0548 21.0 1796.7083 22.125 1798.0 23.5C1800.9962 26.689295 1801.8245 26.641957 1806.0378 23.040641C1809.504 20.077839 1812.0 19.190991 1812.0 20.922194C1812.0 22.189035 1802.7897 29.98555 1801.2837 29.993544C1800.6147 29.997095 1798.4772 28.540616 1796.5337 26.756925Z"/>
</svg>
