<?xml version="1.0" encoding="UTF-8"?>
<svg xmlns="http://www.w3.org/2000/svg" viewBox="1586.56 15.72 42.99 86.45">
  <path d="M 1590.2188,84.09375 1589.7188,88.1875 C 1590.7242,88.671667 1591.7957,88.883728 1592.9062,88.53125 1595.5962,87.677526 1604.7314,78.112227 1606.5938,74.1875 1607.8845,71.467698 1607.9725,69.990725 1607.125,66.625 1604.8582,57.622699 1604.5895,46.386318 1606.5,40.3125 1608.2806,34.651377 1608.2909,34.552897 1606.1562,30.84375 1604.1065,27.282091 1603.3402,24 1604.5625,24 1604.873,24 1606.2679,25.35 1607.6562,27 1609.0446,28.65 1610.7052,29.991645 1611.3438,29.96875 1611.9824,29.945856 1614.2735,28.34812 1616.4375,26.4375 1619.1635,24.030708 1620.0648,22.658632 1619.3438,21.9375 1618.6227,21.216368 1617.3648,21.689216 1615.25,23.46875 L 1612.1875,26.03125 1609.125,23.4375 C 1607.1036,21.736586 1605.3664,21.064841 1604.0938,21.46875 1603.0299,21.806426 1601.885,21.603623 1601.5312,21.03125 1600.6745,19.644776 1599,19.709136 1599,21.125 1599,21.745007 1600.4418,25.141535 1602.1875,28.6875 1604.9742,34.348251 1605.2108,35.524356 1604.25,38.3125 1602.1879,44.296222 1601.9478,51.426154 1603.4688,60.5 1604.2983,65.45 1604.9591,70.30917 1604.9688,71.3125 1604.9916,73.692989 1594.2331,85 1591.9375,85 1591.2695,85 1590.7054,84.666113 1590.2188,84.09375 z M 1588.9688,94.75 1588.5625,98.03125 C 1591.7982,98.240216 1595.0907,96.131462 1600.75,91.125 1614.6717,78.809278 1614.903,78.242138 1613.6875,61.375 1612.5151,45.106063 1613.0566,42.556216 1619.4062,33.8125 1622.3227,29.796342 1625.2578,25.4875 1625.9062,24.25 1627.5482,21.116828 1625.5186,21.35447 1623.2812,24.5625 1622.2931,25.97936 1619.432,29.943817 1616.9062,33.34375 1610.8111,41.548777 1609.4376,47.243104 1610.9062,58.15625 1613.3035,75.969938 1612.2371,78.810208 1599.375,89.03125 1594.3347,93.036566 1591.4409,94.806373 1588.9688,94.75 z"/>
</svg>
