<?xml version="1.0" encoding="UTF-8"?>
<svg xmlns="http://www.w3.org/2000/svg" viewBox="3535.71 13.89 95.97 93.91">
  <path d="M 3625.25,25.96875 C 3622.4899,26.937965 3620.8399,25.91165 3618.625,22.53125 3617.0304,20.097697 3613,18.954826 3613,20.9375 3613,22.495683 3620.1786,28.995417 3622.5625,29.59375 3623.4255,29.810343 3624.5436,29.543936 3625.8438,28.90625 L 3625.25,25.96875 z M 3626.625,32.90625 C 3625.8787,33.587389 3625.1424,34.255972 3624.1562,35.28125 3621.3175,38.232855 3620.7262,39.81042 3619.9688,45.84375 3618.5235,57.353395 3613.5662,66 3608.4375,66 3606.3469,66 3601,64.149351 3596.3125,61.8125 3593.0632,60.192681 3590.5881,61.473833 3591.5938,64.25 3592.0397,65.480817 3592.4616,70.325 3592.5312,75 3592.7195,87.661257 3592.5061,87.055456 3596.25,86.34375 3598.0375,86.003949 3600.7024,85.090199 3602.1875,84.34375 3603.6727,83.5973 3605.1254,83 3605.4062,83 3605.6872,83 3608.4178,85.0463 3611.4688,87.53125 3616.9659,92.008704 3618.4857,92.364313 3623.25,90.46875 3625.1645,89.707017 3625.642,88 3623.9375,88 3623.3513,88 3621.9507,88.470013 3620.8438,89.0625 3619.1064,89.992326 3618.047,89.376495 3613,84.5625 3609.7841,81.495013 3606.7659,78.996376 3606.3125,79 3605.8592,79.003624 3604.15,79.907248 3602.5,81 3600.85,82.092752 3598.5428,82.996376 3597.375,83 3595.3547,83.00627 3595.2849,82.599508 3595.625,74.84375 3595.8216,70.360765 3596.1997,66.456522 3596.5,66.15625 3596.8003,65.855977 3599.4269,66.394177 3602.3125,67.375 3610.5553,70.176845 3613.6311,68.945006 3617.8125,61.03125 3619.8244,57.223516 3621.6715,51.686313 3622.4375,47.28125 3623.4235,41.611322 3624.3931,39.201828 3626.5625,36.9375 3626.8684,36.618196 3627.0369,36.552608 3627.3125,36.28125 L 3626.625,32.90625 z M 3589.7188,18.4375 C 3588.892,18.716154 3587.8683,19.677101 3585.9375,21.5625 3581.1565,26.231011 3580.4297,28.215744 3582.375,31.21875 3584.5342,34.551793 3585.4102,44.904224 3583.7812,48 3582.131,51.13626 3573.3285,56.083206 3570,55.75 3567.737,55.523467 3567.4526,54.9785 3567,50 3566.0782,39.860315 3567.3675,32.726703 3571.0312,27.625 3574.2366,23.161711 3574.4895,21.198762 3571.75,22.25 3571.0195,22.53033 3569.0995,24.680542 3567.4688,27.03125 3564.6754,31.05788 3564.4739,31.9639 3564.1562,42.6875 3563.8841,51.877341 3564.1375,54.547214 3565.4375,56.53125 3567.5387,59.738089 3569.4114,59.628844 3577.5,55.84375 3586.3035,51.72409 3588.1802,48.805754 3587.5312,40.21875 3587.2705,36.768737 3586.5939,33.082578 3586.0312,32.03125 3584.3747,28.935872 3584.8213,26.46281 3587.625,23.4375 L 3590.2812,20.59375 3592.7188,23.4375 C 3594.4297,25.426522 3594.9421,26.934385 3594.4688,28.40625 3592.4721,34.61341 3590.9054,43.929883 3591.3125,47.09375 3591.9128,51.758344 3594.4621,54.741221 3599.8438,57.09375 3603.7174,58.787104 3608.6241,58.956513 3611.0312,57.46875 3614.7706,55.157751 3617.4754,34.912649 3614.625,30.5625 3613.7258,29.190038 3613,27.412222 3613,26.59375 3613,24.060405 3610.7526,20 3609.3438,20 3607.6768,20 3607.614,19.505933 3610.125,26 3614.2018,36.543307 3614.2345,50.234251 3610.1875,54.28125 3606.787,57.681787 3597.1827,53.946975 3594,48 3593.0001,46.131547 3594.6298,36.477477 3597.0625,29.75 3598.1798,26.66012 3598.1153,25.820497 3596.6562,23.59375 3595.73,22.179958 3593.8345,20.290337 3592.4375,19.375 3591.1934,18.559795 3590.5455,18.158846 3589.7188,18.4375 z M 3555.625,19.25 C 3555.3864,19.304979 3555.1661,19.431424 3554.9375,19.65625 3554.2822,20.30077 3553.171,20.613266 3552.4688,20.34375 3551.7663,20.074235 3550.9156,20.334906 3550.5625,20.90625 3549.8419,22.072251 3552.6114,28 3553.875,28 3556.0983,28 3556.9002,33.555275 3556.5,46.1875 3556.1377,57.625728 3556.3284,60.086619 3557.9375,63.65625 3559.343,66.774043 3560.538,67.951665 3562.75,68.4375 3566.4513,69.250429 3570.5116,68.561531 3573.5625,66.5625 3574.8615,65.711346 3576.2869,65.000257 3576.7188,65 3577.1506,64.999744 3577.4361,69.387244 3577.3438,74.75 3577.1532,85.819964 3577.2496,85.71033 3568.8125,82.4375 L 3564.1562,80.625 3560.3125,83.375 C 3558.2088,84.880936 3555.2779,87.050801 3553.7812,88.21875 3551.4214,90.060401 3550.7001,90.184398 3548.375,89.125 3544.7649,87.480123 3543.0319,89.208507 3546.125,91.375 3549.8936,94.014635 3553.5913,93.374351 3559.3438,89.03125 L 3564.625,85.03125 3570.0625,87.03125 C 3576.3086,89.314288 3579.55,89.526353 3580.6562,87.75 3581.8255,85.872405 3581.6829,61.064984 3580.5,60.625 3579.95,60.420432 3578.825,60.822041 3578,61.5 3575.3456,63.681321 3567.1555,66.252163 3564.7812,65.65625 3560.2313,64.514299 3559,60.402492 3559,46.34375 3559,32.926161 3558.1957,28.070711 3555.5625,25.4375 3554.6994,24.574466 3554,23.448215 3554,22.9375 3554,21.19128 3555.7668,21.99782 3557.4062,24.5 3558.3072,25.875 3559.7584,27 3560.625,27 3561.9589,27 3568,21.600507 3568,20.40625 3568,19.283243 3565.3579,20.262215 3563.375,22.125 L 3561.125,24.25 3558.625,21.375 C 3557.1936,19.722361 3556.3408,19.085063 3555.625,19.25 z M 3599.7812,89.75 C 3599.2468,89.753009 3598.7928,89.912642 3598.2188,90.125 3596.9878,90.580403 3595.0114,91.849637 3593.8438,92.9375 3587.1435,99.179648 3579.0653,99.897039 3569.8125,95.125 3563.7287,91.987365 3563.654,92.002574 3561.5938,93.90625 3560.4496,94.963574 3557.5774,96.813711 3555.2188,98.03125 3551.0267,100.19506 3550.8265,100.18809 3546.4062,98.5 3543.9191,97.550142 3541.6013,97.055041 3541.2812,97.375 3540.0697,98.586582 3543.3418,100.95988 3547.3438,101.78125 3551.0431,102.5405 3552.2211,102.25394 3557.9062,99.21875 L 3564.2812,95.78125 3568.25,98 C 3570.4185,99.218796 3574.441,100.82975 3577.2188,101.5625 3582.7428,103.01974 3581.1712,103.53015 3596.375,95.34375 L 3600.375,93.1875 3608.625,97.65625 C 3616.8692,102.11381 3616.8883,102.09895 3621.1562,100.65625 3623.5062,99.861902 3625.6103,98.668952 3625.8438,97.96875 3626.1431,97.070747 3625.7057,96.912956 3624.375,97.46875 3619.9178,99.330466 3617.9459,99.098462 3612.8125,96.1875 3603.7764,91.063495 3601.3845,89.740973 3599.7812,89.75 z"/>
</svg>
