<?xml version="1.0" encoding="UTF-8"?>
<svg xmlns="http://www.w3.org/2000/svg" viewBox="725.22 13.86 79.45 91.03">
  <path d="M770.15913 96.923012C766.1669 93.009648 766.00443 92.950991 763.57197 94.544803C762.20028 95.443567 760.80512 97.038663 760.47161 98.08946C759.74959 100.36432 755.79235 100.65965 754.05661 98.568208C752.54952 96.75228 753.93676 91.301918 757.00153 86.997849L759.18013 83.938292L754.98472 75.469146C752.67724 70.811116 750.19235 67.0 749.46275 67.0C747.04786 67.0 743.7609 73.06895 740.87891 82.848944C739.31471 88.157025 738.02706 93.526623 738.01746 94.781385C737.99422 97.817572 735.10547 98.864725 733.35539 96.47135C728.82897 90.281095 736.2226 61.176379 743.53946 56.382185C746.92073 54.166694 751.45566 54.426662 754.75939 57.025373C759.47213 60.732422 760.10702 59.880347 759.78893 50.275249L759.5 41.550499L755.10994 40.803485C748.73143 39.718117 747.0 37.737208 747.0 31.525011C747.0 27.046228 747.47537 25.804637 750.57792 22.179999C752.83833 19.539218 754.99635 18.0 756.43838 18.0C758.83095 18.0 764.744 21.555921 769.01323 25.562121C771.15639 27.573237 771.83538 27.7423 773.62433 26.710255C786.29105 19.402844 790.30845 18.473374 793.58366 22.092444C795.14878 23.821886 795.47927 25.769596 795.48865 33.31957C795.49845 41.204079 795.262 42.501342 793.761 42.79833C792.0394 43.138968 791.73296 42.656178 788.96987 35.25C787.36281 30.942461 785.38074 31.108653 779.14476 36.073811L774.02827 40.147623L774.50184 47.249798C774.7623 51.155994 775.2528 55.830602 775.59183 57.637817L776.20826 60.923661L782.07561 57.96183C789.11351 54.409111 791.01962 54.291975 793.65897 57.25C798.67554 62.872279 801.06066 79.781624 798.32481 90.328597C796.82318 96.117519 795.92103 97.326963 793.46499 96.84378C792.02733 96.560945 791.72608 95.436331 791.7657 90.5C791.86321 78.34973 788.71035 68.0 784.91148 68.0C783.2218 68.0 777.43658 74.307992 776.19879 77.5C774.42422 82.076253 774.4735 87.155277 776.32686 90.70034C778.54086 94.935225 778.45937 98.683786 776.12615 99.932485C774.59245 100.7533 773.50931 100.20701 770.15913 96.923012Z M765.86333 90.0C766.335 90.0 768.41146 91.147241 770.47769 92.549425C772.54393 93.951609 774.36762 94.964109 774.53033 94.799425C774.69305 94.634741 773.96529 92.732148 772.91309 90.571439C770.45474 85.523187 770.50284 84.181183 773.37491 77.686939C776.06144 71.612223 782.11109 65.0 784.98244 65.0C789.11169 65.0 794.0 75.539727 794.0 84.44282C794.0 88.894963 795.97125 89.186252 796.07878 84.75C796.35717 73.265289 795.7259 68.29674 793.35031 63.275166C791.97776 60.373824 790.1907 58.0 789.37907 58.0C787.83588 58.0 782.10318 60.602165 778.24654 63.053236C776.5491 64.132041 775.56215 64.214091 774.24654 63.385775C772.77008 62.456187 772.45671 60.424549 772.22006 50.247837L771.94012 38.209534L777.72006 33.612199C784.75894 28.013509 787.09636 27.801808 790.0 32.5C793.07534 37.476007 794.34736 36.96689 793.77305 30.989869C792.83314 21.208091 788.48195 19.91814 778.58514 26.487271C775.67446 28.419272 772.50568 30.0 771.54342 30.0C770.58116 30.0 767.54157 27.975 764.78878 25.5C761.93689 22.935905 758.79928 21.0 757.49544 21.0C754.3313 21.0 749.0 27.25177 749.0 30.962216C749.0 34.659602 753.07042 38.0 757.57584 38.0C759.39421 38.0 761.22425 38.553825 761.64259 39.230723C762.72792 40.986816 763.07523 62.260243 762.04577 63.925947C761.36616 65.025582 760.32039 64.574128 757.03701 61.763673C752.91734 58.237388 748.87947 56.725285 746.2634 57.729165C744.05923 58.574985 738.17686 68.527649 737.42857 72.677245C737.04943 74.77976 736.3254 77.02321 735.81963 77.66269C735.31385 78.302169 735.03503 81.677169 735.20002 85.16269L735.5 91.5L737.84736 84.0C741.44984 72.489792 741.79805 71.75005 745.5326 67.673566C750.93725 61.774073 752.45961 62.595366 758.7954 74.828685L764.14476 85.15737L760.57238 88.626823C758.30381 90.83003 757.0 93.0336 757.0 94.6645L757.0 97.232725L761.00288 93.616362C763.20447 91.627363 765.39167 90.0 765.86333 90.0Z M754.75 32.943657C752.0646 31.343103 752.54904 27.526499 755.61491 26.129598C759.90165 24.176429 762.16386 25.530507 761.8053 29.83494C761.54859 32.916729 761.10214 33.538727 759.0 33.743348C757.625 33.877189 755.7125 33.517328 754.75 32.943657Z M760.0 30.0C760.0 27.839621 758.39343 27.444128 756.0 29.015313C754.66667 29.89059 754.66667 30.10941 756.0 30.984687C758.39343 32.555872 760.0 32.160379 760.0 30.0Z"/>
</svg>
