<?xml version="1.0" encoding="UTF-8"?>
<svg xmlns="http://www.w3.org/2000/svg" viewBox="2949.93 55.99 18.07 44.18">
  <path d="M 2966 85.0625 C 2965.2547 84.042667 2964.9402 81.844806 2964.5938 76.5 C 2963.7869 64.051419 2962.7862 58 2961.5 58 C 2959.7544 58 2953 66.935346 2953 69.25 C 2953 70.314074 2954.35 72.458669 2956 74 C 2957.65 75.541331 2959 77.102718 2959 77.46875 C 2959 77.834781 2957.8727 79.606489 2956.5 81.40625 C 2955.1273 83.206012 2953.4898 86.111379 2952.875 87.875 C 2951.9269 90.594711 2952.0537 91.388786 2953.625 93.125 C 2956.2819 96.060901 2958.8792 97.316497 2964 98.09375 C 2964.4317 98.159277 2964.7952 98.107293 2965.2188 98.15625 L 2965.4375 94.40625 C 2964.1575 93.063108 2964.5725 91.063419 2965.7188 89.625 L 2966 85.0625 z M 2960.2812 62.28125 C 2960.834 62.543266 2961.1546 63.862975 2961.5312 66.375 C 2962.5267 73.013298 2962.0469 74.212103 2959 72.6875 C 2955.8623 71.11748 2955.3275 67.803892 2957.6875 64.5625 C 2958.9506 62.827744 2959.7285 62.019234 2960.2812 62.28125 z M 2961.1875 82 C 2961.6416 82 2962 84.669959 2962 87.9375 C 2962 94.532168 2961.2805 95.600693 2958.2812 93.5 C 2957.1639 92.717354 2956.0403 92.272217 2955.7812 92.53125 C 2955.5222 92.790284 2955.4012 91.66192 2955.5 90 C 2955.6683 87.171806 2959.3477 82 2961.1875 82 z "/>
</svg>
