<?xml version="1.0" encoding="UTF-8"?>
<svg xmlns="http://www.w3.org/2000/svg" viewBox="3944.72 17.1 51.64 89.47">
  <path d="M 3947.0625,81.34375 3947.4375,88.84375 C 3947.6766,88.397657 3947.9343,88 3948.2812,88 3948.8672,88 3950.9735,88.497395 3952.9375,89.09375 3954.9016,89.690104 3957.7388,90.544626 3959.25,91 3964.0186,92.436933 3965.6915,89.897752 3968.5625,77 3974.1626,51.842025 3974.4349,44.124796 3970,34.34375 3968.35,30.704753 3967,27.123926 3967,26.375 3967,25.626073 3966.55,25 3966,25 3964.273,25 3964.8871,28.733064 3967.625,34.71875 3970.1362,40.208597 3970.2381,41.056633 3969.6875,52 3969.1328,63.024555 3964.5096,84.896649 3962.25,87.15625 3960.9121,88.494054 3951.0175,85.754371 3948.375,83.3125 3947.7221,82.709226 3947.4276,82.018419 3947.0625,81.34375 z M 3947.75,95.53125 3948,100.6875 3948.0312,100.875 C 3949.0054,100.59927 3951.0554,100.58473 3954.5,101.03125 3965.8301,102.49999 3967.3024,102.30961 3970.6875,99 3973.6993,96.055491 3974.5595,93.700106 3978.625,77.5 3979.4532,74.2 3980.5401,68.8 3981.0312,65.5 3981.5225,62.2 3982.3987,57.921369 3982.9688,56 3983.5387,54.078631 3984,51.281699 3984,49.78125 3984,46.280668 3988.2166,36.708632 3991.4688,32.84375 3992.8533,31.198208 3994.0082,29.107801 3994,28.1875 3993.9783,25.742789 3987.6759,33.39511 3984.5938,39.625 3982.0341,44.798746 3978.3313,59.228187 3976.0312,73 3974.3308,83.180706 3971.2367,92.583736 3968.5938,95.65625 3966.4561,98.141417 3966.2157,98.212991 3957.6562,97.5 3952.8977,97.103614 3948.6168,96.239003 3947.75,95.53125 z M 3972.25,22.25 C 3970.405,21.641448 3970.7456,24.390405 3972.8438,27.125 3973.8501,28.436673 3974.9611,30.2875 3975.3125,31.25 3976.3719,34.152111 3979.2306,33.239163 3984.2812,28.375 3990.0059,22.861811 3989.7966,21.166404 3984.0312,26.375 3981.8152,28.377132 3979.606,30 3979.125,30 3978.0819,30 3975.9713,27.579799 3974.5312,24.71875 3973.9598,23.583341 3972.9375,22.476767 3972.25,22.25 z"/>
</svg>
