<?xml version="1.0" encoding="UTF-8"?>
<svg xmlns="http://www.w3.org/2000/svg" viewBox="-0.27 13.04 102.64 87.19">
  <path d="M 96.28125 33.90625 C 96.36881 33.270826 96.411245 32.193918 96.5 31.75 C 97.700246 25.746848 93.316367 22.838735 88.4375 26.40625 C 85.815804 28.323281 84 26.702953 84 22.4375 C 84 18.287205 82.441581 17.122462 81.5625 20.625 C 79.858152 27.415665 84.576053 32.817536 89.3125 29.5 C 92.60062 27.19691 94.176123 27.611942 93.8125 30.65625 C 93.474709 33.48429 92.151387 34.542171 87.75 35.46875 C 85.660758 35.908576 83.677761 38.047178 79.625 44.28125 C 76.68269 48.807194 73.574852 53.85 72.71875 55.5 C 70.499709 59.776848 65.090742 65 62.875 65 C 61.838268 65 59.302361 64.1 57.25 63 C 52.117165 60.248965 49.45071 60.494471 44.90625 64.09375 C 40.706682 67.41987 39.90697 70.351257 42.8125 71.90625 C 43.8139 72.442183 45.460216 74.700971 46.46875 76.9375 C 48.170038 80.710283 48.194576 81.239928 46.71875 84.25 C 45.843872 86.034389 44.886543 88.2875 44.59375 89.25 C 44.300956 90.2125 43.603316 91 43.03125 91 C 42.36099 91 42.215521 89.077781 42.625 85.59375 C 43.28377 79.988649 43.182996 79.717464 38.28125 74.375 C 36.371454 72.293494 35.760885 72.126841 34.0625 73.1875 C 30.271281 75.555156 28.644168 80.162519 29.25 86.84375 C 29.55625 90.221122 29.421221 93 28.9375 93 C 27.584287 93 25.129617 87.67994 24.40625 83.15625 C 23.849191 79.672596 24.199541 78.414208 26.875 74.375 C 28.591704 71.78325 29.981543 69.186956 29.96875 68.59375 C 29.935779 67.064963 18.434422 57 16.71875 57 C 14.607238 57 12.04577 60.279248 10.90625 64.40625 C 9.5201413 69.426322 7.9243731 67.941574 8.59375 62.25 C 9.932341 50.868238 15.130882 48.301393 24.1875 54.53125 C 27.010695 56.473265 29.805203 57.885448 30.40625 57.6875 C 33.474383 56.677042 34.802329 48.185915 33.09375 40.5 C 32.523634 37.935373 32.014905 37.535511 29.53125 37.71875 C 26.262591 37.959906 24 36.507617 24 34.1875 C 24 33.332596 25.67007 30.224592 27.71875 27.25 C 32.92742 19.687243 38.028547 17.141154 34.5625 23.84375 C 32.651617 27.53899 32.537787 31.881479 34.3125 32.5625 C 35.810274 33.13725 42.564003 30.514476 43.5 29 C 44.593991 27.229886 46 27.928669 46 30.21875 C 46 31.433061 44.395555 34.05727 42.4375 36.0625 C 38.997975 39.584893 38.870969 39.993032 38.6875 47.8125 C 38.477128 56.778604 39.652667 59.459535 42.78125 57.21875 C 43.728612 56.540221 45.932625 55.251667 47.6875 54.34375 C 50.812478 52.726983 50.991953 52.756569 55.59375 55.75 C 59.674036 58.404191 60.68185 58.676512 63.25 57.78125 C 66.380884 56.689818 71.561356 49.501224 74.9375 41.625 L 76.78125 37.3125 L 73.78125 32.46875 C 71.295167 28.474501 70.878208 26.888281 71.28125 23.3125 C 71.809941 18.621966 69.755126 17.03295 68.625 21.25 C 67.576755 25.161514 67.922909 26.956761 70.84375 32.84375 L 73.6875 38.59375 L 71.59375 42.65625 C 67.814316 49.977503 64.018909 55.005216 62.25 55 C 61.2944 54.997182 58.7 53.886267 56.5 52.53125 C 51.883973 49.688162 49.174046 49.39893 46.4375 51.46875 C 42.845751 54.185412 42 53.364783 42 47.21875 C 42 42.287738 42.419924 40.935917 44.96875 37.84375 C 48.323185 33.774239 50 30.014918 50 26.5 C 50 22.724833 48.154204 22.532603 43.5 25.875 C 36.706582 30.753664 34.191773 29.718239 37.5 23.375 C 39.747927 19.064795 39.428686 17 36.53125 17 C 31.624544 17 21 29.424863 21 35.15625 C 21 37.248659 21.735006 38.329796 23.9375 39.46875 C 25.560187 40.307874 27.595666 41 28.4375 41 C 30.393914 41 31.396236 45.024551 30.5625 49.46875 C 29.694866 54.093636 28.714368 54.472619 25.21875 51.53125 C 20.560558 47.61164 17.44984 46.800209 13.53125 48.4375 C 9.2784863 50.214418 7.2551416 53.278413 5.8125 60.15625 C 4.3924656 66.926307 6.2692835 74.5 9.375 74.5 C 10.664995 74.5 11.375518 73.691267 11.5625 71.9375 C 12.120289 66.705804 14.149042 60.878878 15.625 60.3125 C 17.17052 59.719428 26 67.460263 26 69.40625 C 26 69.943787 25.081885 71.346372 23.96875 72.53125 C 20.332816 76.401525 19.973418 80.085125 22.46875 87.5 C 23.711822 91.193787 25.361397 94.610179 26.125 95.09375 C 27.973772 96.264534 28.084793 96.2273 30.0625 94.4375 C 31.443874 93.187373 31.682251 91.698764 31.28125 86.6875 C 30.864311 81.477039 31.106942 80.10009 32.8125 78 L 34.84375 75.5 L 37.46875 77.96875 C 39.937756 80.284409 40.076862 80.852785 39.46875 86.53125 C 38.951482 91.361428 39.1133 92.853817 40.34375 93.875 C 43.20394 96.248747 45.366004 94.66088 48.78125 87.59375 C 52.499686 79.899235 52.285293 77.88266 47.125 71.75 L 44.59375 68.75 L 47.34375 66.375 C 50.689006 63.497532 51.59958 63.447348 57.15625 65.96875 C 59.553812 67.056671 62.492199 67.956671 63.6875 67.96875 C 66.629146 67.998477 71.661475 63.581396 74.0625 58.875 C 75.145389 56.752361 78.488681 51.244772 81.5 46.625 C 86.052849 39.640313 87.475674 38.151742 90 37.78125 C 91.507522 37.559992 92.258341 37.749923 92.78125 38.21875 L 94.28125 36.5625 L 96.28125 33.90625 z M 77.65625 18.25 C 77.277136 18.435986 76.836588 18.842338 76.34375 19.5 C 74.583489 21.84896 74.976394 30.068108 76.96875 32.46875 C 78.342215 34.123674 81 34.556344 81 33.125 C 81 32.642344 80.383717 31.723429 79.625 31.09375 C 77.62579 29.434553 76.868084 24.395803 78.1875 21.5 C 79.277173 19.108429 78.793591 17.692041 77.65625 18.25 z "/>
</svg>
