<?xml version="1.0" encoding="UTF-8"?>
<svg xmlns="http://www.w3.org/2000/svg" viewBox="3717.97 11.44 40.24 96.41">
  <path d="M 3719.9688 79.71875 L 3720.2188 85.125 C 3720.4218 84.417258 3720.8599 84.375859 3722.25 85.375 C 3731.5586 92.065499 3733.7886 91.464437 3737.8438 81.25 C 3743.9543 65.858161 3744.586 63.295869 3749.3438 33.0625 C 3749.9876 28.971122 3750.95 25.724952 3751.5 25.84375 C 3752.9669 26.160598 3752.2596 48.50935 3750.5938 54.5 C 3749.8289 57.25 3748.8976 61.3 3748.5312 63.5 C 3747.195 71.526819 3742.8686 88.048922 3740.9688 92.34375 C 3739.8965 94.767859 3737.89 97.484674 3736.5312 98.375 C 3735.1725 99.265326 3733.9381 99.949671 3733.7812 99.90625 C 3727.3108 98.115025 3721.8517 93.63695 3720.4062 89.3125 L 3720.7188 96.1875 C 3721.2827 96.048389 3722.2542 96.817112 3723.9375 98.375 C 3727.1929 101.38791 3735.2899 103.46715 3738.0312 102 C 3739.111 101.42212 3740.6698 99.572053 3741.5312 97.90625 C 3744.1789 92.786447 3749.5951 74.909788 3750.875 67 C 3751.5424 62.875 3752.8166 57.25 3753.7188 54.5 C 3755.7308 48.366039 3756.2078 28.16064 3754.4688 23 C 3752.0495 15.820671 3748.4108 20.298888 3746.9062 32.28125 C 3744.5178 51.3021 3739.2638 74.490541 3735.6562 82 C 3732.7894 87.968052 3730.6452 88.15391 3724.125 83 L 3719.9688 79.71875 z "/>
</svg>
