<?xml version="1.0" encoding="UTF-8"?>
<svg xmlns="http://www.w3.org/2000/svg" viewBox="333 11.28 31.97 94.22">
  <path d="M 362.5,80.40625 C 361.76948,79.630181 361.01202,78.69762 360.21875,77.5 357.73189,73.745528 357.20335,71.819609 356.71875,64.3125 355.94158,52.272979 356.36035,49.536791 359.65625,44.78125 362.13597,41.20335 362.5,39.766101 362.5,33.53125 362.5,27.409894 362.09103,25.759845 359.75,22.21875 357.67095,19.07392 356.02679,17.817441 352.875,16.96875 347.64791,15.561241 344.8224,16.261373 341.09375,19.90625 338.31626,22.621329 335,30.946376 335,35.21875 335,37.942945 337.7993,43.1954 340.5,45.5 342.68031,47.360536 342.86849,48.304427 343.09375,59.1875 343.33087,70.643642 343.27339,70.970309 340.4375,75.0625 338.11038,78.420546 337.49139,80.559476 337.1875,85.9375 336.82566,92.341227 336.93757,92.78132 339.96875,95.8125 341.71111,97.554863 344.56087,99.373873 346.3125,99.875 350.98394,101.21147 356.89436,99.434488 359.34375,95.9375 360.08269,94.882509 360.76337,94.452401 361.6875,94.3125 L 361.5625,93.59375 362.96875,88.875 362.9375,88.28125 362.5,80.4375 C 362.49512,80.432331 362.50488,80.411437 362.5,80.40625 z M 347.28125,19.875 C 355.5628,19.443389 360.25439,24.471973 360.125,33.59375 360.05362,38.626354 358.74579,42.254207 355.96875,45.03125 354.03046,46.969541 353.84375,48.255423 353.84375,59.6875 353.84375,71.94728 353.90875,72.315262 356.9375,77.1875 361.78092,84.97894 361.24919,91.316863 355.375,95.9375 351.40058,99.063782 347.41433,98.601833 343.40625,94.59375 340.61924,91.806739 340,90.441853 340,87 340,82.308474 342.42153,76.360282 345,74.75 346.4958,73.815856 346.64545,72.099097 346.25,60.09375 345.81185,46.792082 345.74753,46.433653 342.96875,43.5 341.40586,41.85 339.6121,39.185419 339,37.5625 336.65875,31.354948 341.89852,20.155532 347.28125,19.875 z M 348.78125,25.53125 C 346.86597,25.468133 344.88065,26.327975 343.46875,28.34375 341.55971,31.069288 341.61829,33.468624 343.625,36.53125 346.9386,41.588437 355,38.757251 355,32.53125 355,28.317508 351.97338,25.636445 348.78125,25.53125 z M 348.65625,28.3125 C 349.59398,28.086061 350.61219,28.268503 351.53125,29.03125 353.28089,30.483324 352.73726,34.894995 350.65625,36.21875 348.96338,37.295601 347.55506,37.180059 346.1875,35.8125 343.63682,33.261815 345.84307,28.991817 348.65625,28.3125 z M 347.125,77.4375 C 345.31087,77.414554 344.20895,79.21527 343.59375,83.0625 343.11126,86.079849 343.39154,87.675417 344.71875,89.5 348.17602,94.252865 355,91.60195 355,85.5 355,82.265333 353.43162,80.259639 349.1875,78.0625 348.4102,77.660101 347.72971,77.445149 347.125,77.4375 z M 349,80.71875 C 349.59289,80.867953 350.24657,81.203554 350.9375,81.6875 352.42971,82.732682 353.02349,84.020788 352.8125,85.84375 352.57862,87.864519 351.87212,88.5809 349.875,88.8125 347.08016,89.13661 346,87.660058 346,83.53125 346,81.302239 347.22133,80.271141 349,80.71875 z"/>
</svg>
