<?xml version="1.0" encoding="UTF-8"?>
<svg xmlns="http://www.w3.org/2000/svg" viewBox="1189.16 14.69 18.22 89.26">
  <path d="M 1204.6875 74.40625 L 1204.3125 47.96875 C 1204.1171 32.926924 1203.7539 20.441353 1203.5 20.1875 C 1203.2462 19.933647 1200.7812 19.482983 1198.0312 19.21875 L 1193.0312 18.75 L 1193.0938 45.625 C 1193.1158 60.406307 1192.683 77.022631 1192.1562 82.5625 C 1191.1586 93.057188 1191.5386 97.959844 1193.4062 99.25 C 1194.0119 99.668286 1196.525 99.893286 1199 99.75 C 1203.3104 99.500459 1203.5217 99.352508 1204.0312 96 C 1204.2889 94.305147 1204.6152 93.493135 1205.375 93.21875 L 1205.375 93.125 L 1205 86.21875 C 1204.8614 85.770944 1204.7413 85.344366 1204.5938 84.71875 C 1204.3194 83.555157 1204.5016 82.785342 1204.8125 82.1875 L 1204.4375 75.21875 L 1204.6875 74.40625 z M 1196 21.875 L 1198.75 22.1875 L 1201.5 22.5 L 1201.5 50.5 C 1201.5 65.9 1201.275 82.775 1201 88 C 1200.5119 97.274095 1200.4458 97.492377 1197.9688 97.78125 C 1196.5731 97.944 1195.1064 97.762635 1194.7188 97.375 C 1194.331 96.987364 1194.2338 93.718865 1194.5 90.09375 C 1195.3476 78.552797 1195.9416 58.057596 1195.9688 39.6875 L 1196 21.875 z "/>
</svg>
