<?xml version="1.0" encoding="UTF-8"?>
<svg xmlns="http://www.w3.org/2000/svg" viewBox="1586.57 12.64 111.13 91.63">
  <path d="M1614.4249 93.25C1612.9049 89.692003 1612.9298 89.310653 1614.9114 85.801882C1617.3795 81.431782 1617.5615 78.710852 1615.5 77.0C1614.675 76.315311 1613.9857 75.022711 1613.9682 74.127555C1613.9507 73.2324 1613.2809 71.633656 1612.4798 70.57479C1611.1621 68.83311 1610.7703 68.784974 1608.3695 70.069848C1604.1363 72.335402 1598.0 84.042297 1598.0 89.852984C1598.0 93.110922 1593.8352 92.415621 1592.8907 89.0C1591.6175 84.395675 1591.9841 74.726201 1593.6299 69.505214C1595.7596 62.748964 1601.9061 53.584933 1604.5629 53.204973C1605.6974 53.042708 1609.1472 54.236305 1612.2289 55.857412L1617.8322 58.804877L1618.5294 56.152438C1618.9128 54.693597 1619.5722 50.474474 1619.9946 46.77661C1620.4624 42.680943 1621.8272 37.990945 1623.4865 34.77661C1631.7453 18.778629 1643.1552 16.805991 1656.4655 29.074959L1661.0504 33.30115L1664.4922 29.280184C1671.0459 21.623675 1677.6893 20.543836 1681.5924 26.50069C1683.9673 30.125171 1682.208 35.514082 1676.8462 41.039029C1673.4408 44.548041 1672.9095 45.591211 1673.8593 46.903628C1674.4947 47.781632 1675.483 49.4 1676.0557 50.5C1676.6283 51.6 1679.2056 53.175 1681.7829 54.0C1688.1365 56.033821 1689.9496 59.196644 1687.6001 64.147913C1685.9169 67.694892 1685.9181 67.70079 1688.9577 70.954739C1692.3298 74.564607 1692.6481 76.513084 1690.6477 81.300786C1689.2373 84.676319 1683.1629 90.0 1680.7217 90.0C1679.9453 90.0 1678.4955 90.9 1677.5 92.0C1675.4675 94.245857 1672.3892 94.646423 1671.7363 92.75C1671.4996 92.0625 1671.7477 90.214872 1672.2877 88.64416C1674.1103 83.342439 1672.3807 74.158548 1667.9292 65.5C1665.667 61.1 1663.4273 57.027673 1662.952 56.450386C1662.4766 55.873098 1661.7824 53.491318 1661.4092 51.157541C1660.8476 47.645253 1660.194 46.688189 1657.6153 45.601633C1655.9019 44.87966 1652.1839 42.198939 1649.3531 39.644477C1643.4868 34.350908 1641.0752 33.942534 1636.4616 37.461502C1633.7857 39.502481 1632.9581 41.146416 1631.6172 47.084167C1629.9625 54.411165 1629.525 60.0 1630.6061 60.0C1630.9394 60.0 1632.8519 58.710082 1634.8561 57.133516C1641.0057 52.295907 1642.5994 52.253345 1646.9349 56.810933C1651.3139 61.414227 1656.5585 73.191078 1657.5466 80.639846C1658.015 84.171083 1657.7146 87.469976 1656.5641 91.427646C1654.042 100.1033 1652.2313 98.849012 1648.4294 85.792539C1645.3824 75.328987 1641.0414 67.486188 1638.7243 68.258569C1638.123 68.45899 1636.0955 71.470571 1634.2186 74.950973C1631.3273 80.312519 1630.9736 81.646676 1631.903 83.686541C1633.6887 87.60561 1633.3115 95.943246 1631.3138 96.70981C1630.2522 97.117216 1629.2337 96.703155 1628.5638 95.591804C1625.8715 91.124844 1625.3018 90.707435 1622.7662 91.343836C1621.1658 91.745496 1619.9875 92.913776 1619.5915 94.491295C1618.6754 98.14158 1616.2674 97.563057 1614.4249 93.25Z M1626.421 89.260914L1630.0 90.967643L1630.0 88.312562C1630.0 86.852268 1629.2848 84.867139 1628.4106 83.901166C1626.9443 82.280924 1627.1052 81.636767 1630.4885 75.586961C1635.8112 66.069154 1637.2007 64.582581 1640.0957 65.309173C1643.2539 66.101827 1648.2942 74.51703 1650.5583 82.777129C1652.5232 89.946181 1653.5056 91.105844 1654.4446 87.364741C1656.1142 80.712594 1649.4862 62.782614 1643.5219 57.816512C1641.6159 56.229545 1641.2993 56.252624 1638.0 58.219038C1630.5122 62.681823 1629.6831 62.981858 1628.2121 61.761104C1625.3622 59.395833 1629.9283 39.289439 1634.2308 35.259005C1635.4788 34.089826 1637.7948 32.642604 1639.3773 32.042957C1642.7038 30.78251 1645.9487 32.329147 1653.8519 38.941997C1656.4084 41.08106 1659.625 42.981682 1661.0 43.165601C1663.1184 43.448956 1663.5157 44.049872 1663.6031 47.102283C1663.6598 49.083539 1664.3973 52.008539 1665.2422 53.602283C1668.5587 59.859013 1670.6872 63.690423 1673.3246 68.151487C1675.7458 72.246802 1676.2613 74.309242 1676.8638 82.309017C1677.1262 85.794236 1678.7201 83.010753 1679.309 78.0389C1680.3597 69.166851 1677.073 56.124433 1671.9863 48.980755C1669.2523 45.141153 1669.4936 43.197622 1672.9508 41.21348C1676.1975 39.350095 1680.0 33.393347 1680.0 30.170549C1680.0 28.060128 1676.5892 25.0 1674.237 25.0C1671.8584 25.0 1666.8375 29.426702 1664.8797 33.25C1663.8235 35.3125 1662.3469 37.0 1661.5984 37.0C1660.8498 37.0 1659.0567 35.4521 1657.6137 33.560221C1653.882 28.667634 1643.1925 23.544797 1638.3537 24.330023C1630.9068 25.538499 1624.9135 34.583431 1622.4932 48.266505C1621.6922 52.794927 1621.0286 58.1875 1621.0184 60.25C1621.0083 62.3125 1620.5284 64.0 1619.952 64.0C1619.3755 64.0 1616.4418 62.425 1613.4325 60.5C1610.4233 58.575 1607.0915 57.0 1606.0286 57.0C1602.033 57.0 1595.0 70.891427 1595.0 78.783433C1595.0 84.412931 1596.4692 84.114122 1598.4745 78.076791C1600.1611 72.998784 1607.4721 65.0 1610.4268 65.0C1611.9896 65.0 1617.0 70.9358 1617.0 72.787231C1617.0 73.391378 1617.9407 75.479989 1619.0904 77.428588L1621.1807 80.971497L1619.0904 84.353783C1617.9407 86.21404 1617.0 88.449523 1617.0 89.321524C1617.0 90.748042 1617.2928 90.738925 1619.921 89.230583C1622.6579 87.659762 1623.0673 87.661673 1626.421 89.260914Z M1684.9331 63.625C1686.4713 60.75085 1685.1162 57.525148 1682.0317 56.718532C1679.6617 56.098783 1679.3827 57.930891 1681.0978 62.850777C1682.4118 66.620002 1683.2407 66.787329 1684.9331 63.625Z M1685.4667 83.466667C1689.4977 79.435658 1690.0009 76.000862 1687.0 73.0C1683.4121 69.412148 1682.5705 70.445459 1681.7057 79.5C1681.4956 81.7 1680.9777 84.2875 1680.5549 85.25C1679.2861 88.137842 1681.6559 87.27746 1685.4667 83.466667Z"/>
</svg>
