<?xml version="1.0" encoding="UTF-8"?>
<svg xmlns="http://www.w3.org/2000/svg" viewBox="2563.99 13.85 44.36 90.34">
  <path d="M2568.4967 96.587647C2566.2889 94.379818 2566.0086 93.450086 2566.5863 90.250119C2567.4371 85.536871 2568.4554 83.506443 2572.4794 78.5C2575.5638 74.662533 2575.7227 74.020961 2576.3904 62.710656L2577.0863 50.921311L2572.6165 45.81168C2569.1249 41.820329 2568.0013 39.644608 2567.4822 35.870405C2566.7545 30.579686 2567.641 23.224436 2569.2457 21.237669C2570.5781 19.58815 2573.0 21.462974 2573.0 24.143885C2573.0 26.524495 2577.9786 34.173805 2579.2518 33.749403C2579.7708 33.576393 2581.2039 30.524501 2582.4365 26.96742C2583.7592 23.150007 2585.2522 20.5 2586.0801 20.5C2587.6204 20.5 2591.791 27.463826 2591.9194 30.25C2592.0565 33.22734 2595.5037 32.202999 2598.6499 28.25C2600.2914 26.1875 2601.9276 23.7125 2602.2859 22.75C2604.0699 17.956724 2606.3396 23.52572 2606.1438 32.216159C2606.0094 38.182046 2602.7957 44.694817 2599.2093 46.269642C2597.7192 46.923949 2596.2031 47.879236 2595.8403 48.392502C2595.4775 48.905767 2595.161 55.097847 2595.1371 62.15268C2595.0981 73.622671 2595.2886 75.084101 2596.9383 75.966993C2597.953 76.510033 2600.0465 79.102112 2601.5905 81.727169C2604.7745 87.140293 2605.1778 94.269388 2602.4518 96.951417C2601.0293 98.350942 2600.7374 98.307491 2599.42 96.5C2596.6443 92.692077 2592.8254 89.000013 2591.6652 89.002894C2591.0244 89.004486 2589.375 91.141986 2588.0 93.752894C2584.7196 99.981853 2582.2616 100.08677 2579.3977 94.120074L2577.2954 89.740149L2575.6477 92.092581C2574.7415 93.386418 2574.0 94.964785 2574.0 95.600062C2574.0 96.235339 2573.3439 97.299598 2572.5421 97.965083C2571.3617 98.944697 2570.5915 98.682458 2568.4967 96.587647Z M2578.5353 40.791066C2579.0235 37.90114 2578.8785 36.459501 2578.0725 36.19082C2577.4268 35.975598 2575.7581 33.992908 2574.3642 31.78484C2571.1813 26.742801 2569.5588 27.875052 2570.5448 34.450202C2571.1956 38.790248 2574.9958 45.0 2577.001 45.0C2577.4538 45.0 2578.1442 43.10598 2578.5353 40.791066Z M2576.7514 83.0C2576.3701 77.691436 2573.8704 78.536135 2571.6456 84.725407C2570.6124 87.599381 2570.0749 90.749381 2570.451 91.725407C2571.0424 93.25979 2571.5321 93.026239 2574.0689 90.0C2576.2821 87.359804 2576.9411 85.640196 2576.7514 83.0Z M2586.8979 90.200205C2592.1501 79.904944 2594.1488 54.369212 2590.9315 38.665776C2588.9729 29.10607 2586.3958 24.541435 2584.684 27.600261C2581.7373 32.865681 2578.8333 55.108579 2578.9526 71.5C2578.9959 77.444618 2580.3463 88.343098 2581.5857 92.75C2582.2824 95.227225 2584.9983 93.923593 2586.8979 90.200205Z M2601.0 89.448118C2601.0 86.042789 2596.8653 78.908268 2595.0829 79.237915C2594.3034 79.382062 2593.2323 80.800846 2592.7026 82.39077C2591.8251 85.024666 2592.0843 85.576705 2595.6197 88.603223C2600.3226 92.629088 2601.0 92.735465 2601.0 89.448118Z M2601.235 40.346514C2603.3199 36.76623 2604.8279 27.0 2603.2958 27.0C2602.7553 27.0 2600.3968 29.272598 2598.0547 32.050218C2594.2653 36.544176 2593.8688 37.487253 2594.4551 40.612305C2594.9925 43.477092 2595.5087 44.06667 2597.2563 43.812087C2598.4346 43.640439 2600.2251 42.080931 2601.235 40.346514Z"/>
</svg>
