<?xml version="1.0" encoding="UTF-8"?>
<svg xmlns="http://www.w3.org/2000/svg" viewBox="1856.15 16.02 24.66 89.09">
  <path d="M 1876.1875 80.875 C 1875.8149 79.988361 1875.6855 78.921976 1875.9062 77.65625 C 1875.9858 77.200743 1876.2734 70.57841 1876.5625 62.90625 C 1876.8516 55.23409 1877.4989 45.501927 1877.9688 41.3125 L 1878.8125 33.71875 L 1873.7812 26.8125 C 1871.0206 23.017043 1868.3241 20.069044 1867.7812 20.25 C 1867.2385 20.430957 1865.3082 23.024656 1863.4688 26.03125 L 1860.125 31.5 L 1859.5625 63.3125 C 1859.2644 80.815764 1858.7835 95.553264 1858.4688 96.0625 C 1858.1541 96.571736 1858.1601 97.45 1858.5 98 C 1860.3905 101.05895 1862.2261 96.245924 1861.9375 89 C 1861.8608 87.075 1862.0692 73.707264 1862.375 59.28125 C 1862.9046 34.305604 1863.0364 32.852645 1865.2188 29.03125 C 1866.4793 26.824 1867.725 25.003173 1868 25 C 1868.275 24.996827 1869.9173 27.138563 1871.6562 29.75 L 1874.8125 34.5 L 1873.9688 55 C 1872.6123 87.553102 1872.722 96 1874.5 96 C 1875.3381 96 1876 95.096796 1876 93.96875 C 1876 93.226261 1876.1495 92.890873 1876.4375 92.65625 L 1876.1875 91.71875 L 1876.1875 80.9375 C 1876.1797 80.919674 1876.1951 80.892979 1876.1875 80.875 z M 1868.9375 33.21875 C 1868.4796 33.381496 1867.8772 46.346488 1867.5938 62.0625 C 1867.3104 77.778512 1866.7852 92.599097 1866.4062 94.96875 C 1865.8541 98.421736 1865.9724 99.18505 1867.0938 98.8125 C 1868.8615 98.225154 1869.5792 92.436966 1870.5 71.5625 C 1871.2538 54.474793 1870.3692 32.709998 1868.9375 33.21875 z "/>
</svg>
