<?xml version="1.0" encoding="UTF-8"?>
<svg xmlns="http://www.w3.org/2000/svg" viewBox="2679.7 22.35 23.3 29.26">
  <path d="M 2693.2188 24.4375 C 2692.7245 24.35079 2692.2564 24.37181 2691.8125 24.5 C 2686.0917 26.151947 2681.6952 35.435883 2684 41 C 2684.7044 42.700701 2686.4384 44.719239 2687.875 45.5 C 2695.4367 49.609729 2701 45.147845 2701 34.9375 C 2701 30.517765 2696.6786 25.044472 2693.2188 24.4375 z M 2693.1875 27.1875 C 2693.9205 27.440764 2694.6477 28.293996 2696.0625 29.96875 C 2699.3416 33.850546 2699.711 36.726519 2697.4688 41.0625 C 2695.7491 44.387987 2692.7538 44.910387 2689.3125 42.5 C 2684.8972 39.407422 2685.5581 30.64057 2690.4062 28 C 2691.7384 27.274418 2692.4545 26.934236 2693.1875 27.1875 z "/>
</svg>
