<?xml version="1.0" encoding="UTF-8"?>
<svg xmlns="http://www.w3.org/2000/svg" viewBox="85.06 30.99 19.84 64.26">
  <path d="M 96.28125 33.90625 L 94.28125 36.5625 L 92.78125 38.21875 C 93.141667 38.54189 93.450874 38.900465 93.65625 39.71875 C 94.539086 43.236251 93.412827 49.896192 91.59375 51.90625 C 89.643991 54.060709 89.478768 55.667483 91.375 54.09375 C 92.490658 53.167836 92.86346 53.516749 93.21875 55.9375 C 93.570448 58.333769 92.99797 59.582718 90.375 62.125 C 88.568658 63.875776 87.344629 65.714536 87.65625 66.21875 C 87.967872 66.722965 89.235013 66.188394 90.5 65 L 92.8125 62.84375 L 93.46875 64.9375 C 94.338889 67.679066 93.261949 72.548342 91.4375 74.0625 C 89.573334 75.60962 89.602085 77 91.5 77 C 93.91185 77 93.284554 81.975167 90.34375 86.21875 C 87.055142 90.964213 88.010539 92.323457 91.96875 88.53125 C 94.394256 86.207468 95.184126 85.923227 96.40625 86.9375 C 97.224714 87.616765 98.698578 87.974033 99.6875 87.75 C 101.13185 87.422794 100.85349 86.984028 98.21875 85.4375 C 95.274343 83.709206 94.967448 83.090807 95.21875 79.5 C 95.49683 75.52655 96.074314 75.103905 99.875 76.125 C 102.68014 76.878632 101.9599 74.213086 99.03125 73 C 96.364786 71.895515 96 71.255635 96 67.75 L 96 63.78125 L 98.59375 65.46875 C 100.3455 66.616539 101.5414 66.864849 102.21875 66.1875 C 102.89609 65.510152 101.89008 64.308018 99.125 62.5625 C 95.610382 60.343819 95 59.459538 95 56.53125 C 95 54.645609 95.45 52.839919 96 52.5 C 96.55 52.160081 97 52.355041 97 52.9375 C 97 53.519959 97.675 54 98.5 54 C 100.79914 54 100.27583 51.216416 97.65625 49.5 C 95.572533 48.134696 95.336195 47.314119 95.53125 41.75 C 95.625631 39.05769 95.962914 36.216428 96.28125 33.90625 z "/>
</svg>
