<?xml version="1.0" encoding="UTF-8"?>
<svg xmlns="http://www.w3.org/2000/svg" viewBox="3470.17 13.9 64.08 88.96">
  <path d="M 3531.3438 95.03125 L 3530.9375 91.84375 C 3527.3415 93.575835 3523.5458 95 3522.3438 95 C 3517.0216 95 3515.1047 86.022198 3516.0625 65.71875 C 3517.2123 41.343319 3515.3849 32 3509.5312 32 C 3505.1677 32 3498.5037 41.544655 3495.2812 52.40625 C 3494.4503 55.20713 3492.6885 59.68797 3491.3438 62.34375 C 3489.2859 66.407142 3488.8344 68.86374 3488.5938 77.84375 C 3488.285 89.362149 3486.8925 94 3483.75 94 C 3481.9289 94 3481.8581 93.426328 3482.5 83.25 L 3483.1875 72.5 L 3480.125 68 C 3476.673 62.949315 3476.3926 61.738993 3478.375 60.09375 C 3479.3681 59.269488 3480.5415 59.243486 3482.5312 60 C 3485.9718 61.308078 3488.5981 59.314237 3489.5312 54.65625 C 3491.1838 46.406138 3497.495 33.911057 3503.2812 27.5 C 3509.7267 20.358684 3512.242 19.505227 3515.75 23.25 C 3520.3699 28.181864 3520.9238 31.434101 3521.8438 60.5 C 3522.643 85.75503 3523.1352 88 3527.9688 88 C 3528.8461 88 3529.6474 87.802451 3530.4062 87.46875 L 3530 84.03125 C 3529.212 84.646716 3528.4502 84.994715 3527.8125 84.75 C 3525.6273 83.911477 3525.0102 78.627277 3525 60 C 3524.9885 38.853926 3523.0676 27.292542 3518.75 22.375 C 3516.712 20.053881 3514.806 18.733395 3512.7812 18.4375 C 3509.4066 17.944341 3505.7851 20.320587 3501.0312 25.71875 C 3496.8686 30.445728 3489.5523 44.271081 3486.625 53 C 3485.757 55.588304 3484.5959 57.367243 3483.875 57.1875 C 3478.6857 55.89353 3477.1889 55.936109 3475.6562 57.46875 C 3473.0851 60.039871 3473.6557 64.290966 3477.125 68.625 L 3480.2188 72.5 L 3479.5625 82.34375 C 3479.0175 90.421779 3479.1761 92.621012 3480.4688 94.59375 C 3482.0725 97.041411 3484.476 97.638385 3486.8125 96.15625 C 3488.8866 94.840623 3491.0526 85.117336 3491.0625 77.15625 C 3491.0703 70.842156 3491.7077 68.202094 3495.625 58.15625 C 3502.7226 39.95442 3503.1838 39.038902 3506.3125 36.40625 C 3512.7404 30.997571 3513.8756 35.395837 3513.3125 63.1875 C 3512.8445 86.280306 3513.4987 91.701633 3517.25 95.75 C 3520.0907 98.815579 3524.2324 98.612399 3531.3438 95.03125 z "/>
</svg>
