<?xml version="1.0" encoding="UTF-8"?>
<svg xmlns="http://www.w3.org/2000/svg" viewBox="2161.46 14.5 54.4 90.63">
  <path d="M 2191.8,59.8 C 2194.3162,57.283808 2192.6456,51 2189.4605,51 2187.2165,51 2186.1248,55.390653 2187.6467,58.295203 2189.2155,61.289483 2190.0193,61.580694 2191.8,59.8 z M 2188.3154,62.925006 C 2185.8361,62.00326 2184,59.099275 2184,56.099668 2184,52.848419 2187.2205,47 2189.0109,47 2191.9147,47 2195,51.317129 2195,55.380193 2195,61.737477 2192.5523,64.500182 2188.3154,62.925006 z M 2195.0732,89.365901 C 2193.9329,87.916311 2193,85.453759 2193,83.893562 2193,79.138958 2196.274,65.832077 2197.5658,65.336372 2199.0503,64.766728 2202.925,68.524583 2206.0249,73.540259 2208.1744,77.01832 2208.42,77.146121 2209.6695,75.43724 2210.4065,74.42946 2210.7663,72.681308 2210.4693,71.552457 2208.33,63.422615 2206.0853,58.343022 2203.5264,55.84119 2201.0106,53.381565 2200.7428,52.668844 2201.7887,51.216711 2202.4688,50.27252 2203.9195,47.475 2205.0125,45 2206.1055,42.525 2207.4498,39.718606 2207.9999,38.763569 2209.1634,36.743508 2209.3581,29 2208.2454,29 2207.8303,29 2205.9178,31.051052 2203.9954,33.557893 2196.0579,43.908187 2196.5951,43.452275 2194.6402,41.497324 2193.6776,40.534726 2192.9944,38.791539 2193.122,37.623573 2193.4727,34.412739 2191.9626,27.094931 2190.8012,26.377125 2189.4444,25.538603 2188.4507,27.248017 2185.9338,34.75 2182.8464,43.952425 2180.2623,43.269766 2175.524,32 2172.5728,24.980605 2171.6776,24.788694 2172.3071,31.310326 2172.6321,34.677329 2174.1573,39.875835 2175.934,43.672599 2177.6203,47.276171 2179,50.896768 2179,51.71837 2179,52.539972 2177.6987,54.855273 2176.1081,56.863484 2171.4575,62.735399 2167.6201,71.350036 2168.3534,74.272007 2168.9816,76.774958 2169.0852,76.723897 2175.1796,70.90676 2178.5831,67.658042 2181.6932,65 2182.0908,65 2183.0304,65 2186.9246,77.336935 2187.6148,82.5 2188.1053,86.169225 2187.8952,86.640868 2185.0748,88.20349 2183.2096,89.236853 2182,90.706262 2182,91.938791 2182,93.947914 2182.0345,93.949635 2185.0875,92.092982 2188.1514,90.229733 2188.2069,90.23353 2192.3375,92.589046 2195.7337,94.525753 2196.5595,94.690162 2196.8232,93.482126 2197.0009,92.667792 2196.2134,90.815491 2195.0732,89.365901 z M 2179.3449,98.456313 C 2178.2446,95.58913 2179.9083,89.705109 2182.6194,86.875373 L 2185.3139,84.062943 2183.5428,77.519926 C 2182.5687,73.921267 2181.3647,70.725369 2180.8672,70.417932 2180.3698,70.110494 2177.499,72.423149 2174.4877,75.557165 2169.8917,80.3405 2168.7708,81.05466 2167.5063,80.005243 2163.9311,77.038063 2166.2938,67.411471 2173.5688,55.304385 L 2176.0898,51.108771 2173.1007,44.715455 C 2168.2842,34.413609 2167.618,21 2171.9229,21 2174.3646,21 2175.5445,22.579344 2177.5441,28.524519 2179.3681,33.947354 2180.8137,36.233155 2181.9681,35.519705 2182.3759,35.267654 2183.6808,32.39785 2184.8678,29.142362 2188.6095,18.880529 2191.9322,18.617169 2194.8,28.355142 2195.9232,32.169202 2197.1514,34.5 2198.0381,34.5 2198.8237,34.5 2201.245,31.9125 2203.4187,28.75 2205.754,25.352477 2208.1055,23 2209.1664,23 2213.3894,23 2212.7951,34.13482 2207.9796,45.235404 L 2204.6239,52.970808 2206.7313,55.235404 C 2210.3629,59.138138 2212.9872,73.273387 2211.0339,78.410965 2209.4988,82.448385 2207.499,81.49911 2204.3747,75.25 2202.3268,71.153673 2200.8529,69.408099 2199.25,69.180449 2198.0125,69.004696 2196.9487,69.229696 2196.886,69.680449 2196.8233,70.131202 2196.6302,71.85 2196.457,73.5 2196.2837,75.15 2195.9034,78.341009 2195.6119,80.591131 2195.2309,83.531506 2195.6329,85.71041 2197.0409,88.337506 2201.0829,95.879042 2198.5277,100.30475 2192.8769,95.549842 2188.8417,92.154514 2185.9168,92.553094 2184.0695,96.75 2182.5488,100.20508 2180.3242,101.00849 2179.3449,98.456313 z"/>
</svg>
