<?xml version="1.0" encoding="UTF-8"?>
<svg xmlns="http://www.w3.org/2000/svg" viewBox="2390.49 16.75 119.88 91.14">
  <path d="M 2395.9375,47.90625 2396.7812,54.3125 C 2397.7286,54.140945 2399.8236,55.026985 2404.9375,57.625 L 2412.0625,61.21875 2415.9688,58.53125 C 2419.0536,56.393495 2421.1213,55.795345 2425.8125,55.6875 2429.2509,55.608457 2432.8619,56.127723 2434.375,56.9375 2435.8134,57.707275 2437.3023,58.010213 2437.6875,57.625 2439.0482,56.264304 2438.1257,39.816035 2436.375,34.25 L 2434.625,28.71875 2436.9375,26.84375 C 2440.0211,24.346762 2440.8733,24.519666 2445.3438,28.46875 L 2449.1875,31.875 2447.9688,37.21875 C 2447.3086,40.16821 2447.0078,43.455407 2447.2812,44.53125 2447.6455,45.964669 2447.79,45.740725 2447.875,43.6875 2447.9388,42.146465 2449.0125,39.080628 2450.25,36.875 2452.3719,33.093112 2452.7187,32.907069 2456.1875,33.4375 2461.6067,34.266175 2465.4478,29.546541 2463.0312,25.03125 2461.57,22.300667 2457.5298,22.413563 2452.4062,25.34375 L 2448.3438,27.6875 2444.5938,24.28125 C 2440.9317,20.925155 2440.8319,20.891269 2438.2812,22.5625 2429.6007,28.250231 2429.1943,28.358082 2426.3438,26.34375 2424.8987,25.322693 2423.0925,24.05 2422.3125,23.5 2419.9952,21.866155 2417.8758,25.750285 2418.2188,31 2418.4688,34.828018 2418.8575,35.535298 2420.8125,35.8125 2422.0765,35.991724 2424.9152,35.214286 2427.125,34.0625 2431.2006,31.938152 2433,32.050716 2433,34.4375 2433,35.162696 2433.675,36.315311 2434.5,37 2435.601,37.91378 2436,40.342679 2436,46.125 2436,54.911028 2435.9577,54.956355 2428.6875,52.9375 2425.2915,51.994488 2424.1414,52.209823 2418.3125,54.9375 L 2411.7812,58 2407.5,56.09375 C 2405.1405,55.05002 2402.3162,53.361709 2401.25,52.34375 2400.1838,51.325791 2398.4578,50.016154 2397.4062,49.40625 2396.9151,49.121394 2396.4154,48.579891 2395.9375,47.90625 z M 2486.7188,24 C 2486.2941,24.027097 2485.8371,24.846195 2485.4062,26.5625 2484.7551,29.156895 2485.514,37.397396 2486.5625,39.09375 2487.2861,40.264625 2491,40.289448 2491,39.125 2491,38.642344 2490.325,37.684689 2489.5,37 2488.478,36.151822 2488,33.879543 2488,29.875 2488,26.103926 2487.4265,23.954838 2486.7188,24 z M 2481.0312,24.375 C 2480.5179,24.410602 2479.9762,24.615364 2479.4375,25.0625 2476.8016,27.250057 2478.0869,36.675625 2481.4062,39.40625 2485.277,42.5905 2486.0958,45.859322 2484,50 2481.8513,54.24508 2479.4413,56.482162 2475.5312,57.96875 2472.845,58.990035 2472.066,58.752432 2466.7188,55.0625 2460.2278,50.583442 2458.8954,50.310975 2453.6562,52.5 2449.0559,54.422149 2449.4089,54.529331 2447.9062,50.75 L 2446.625,47.5 2446.25,51.40625 C 2445.7022,57.101905 2447.4569,58.385926 2452.4375,55.9375 2457.7472,53.32721 2458.7261,53.446279 2465.0312,57.53125 2469.6188,60.503358 2471.1722,61.005356 2474.7812,60.65625 2480.0454,60.147053 2481.8891,58.536765 2485.9062,51 L 2489.0625,45.125 2486.1562,41.8125 C 2484.5732,39.990234 2482.7869,37.513843 2482.1562,36.3125 2480.6617,33.465747 2480.6675,28.70749 2482.1875,27.1875 2483.6485,25.726465 2482.5713,24.268193 2481.0312,24.375 z M 2458.1875,26 C 2460.6718,26 2461.0818,26.353355 2460.8125,28.25 2460.4519,30.788357 2457.5125,31.581641 2454.6875,29.90625 2452.1526,28.402879 2454.3076,26 2458.1875,26 z M 2421.7812,27 C 2423.37,27 2427.024,30.164068 2426.4688,31.0625 2426.1521,31.574868 2424.78,32 2423.4375,32 2421.5004,32 2421,31.483882 2421,29.5 2421,28.125 2421.3537,27 2421.7812,27 z M 2397.2812,58.21875 2398.0312,63.90625 2398.25,64.5 C 2398.2547,64.494163 2398.2453,64.410966 2398.25,64.40625 2398.5558,64.100446 2401.0886,65.025522 2403.875,66.4375 2406.6614,67.849478 2409.5608,69 2410.3438,69 2411.1267,69 2415.3021,67.239467 2419.625,65.09375 2428.613,60.632373 2428.8875,60.697293 2433.625,68.78125 2435.9749,72.79103 2436.1936,74.019555 2435.75,80.21875 2435.4352,84.619342 2434.6759,87.730361 2433.6875,88.71875 2432.2738,90.132441 2431.6626,90.007843 2427.2188,87.15625 2422.2679,83.979299 2419.5642,83.254216 2418.5625,84.875 2417.5311,86.543785 2409.0304,90 2405.9375,90 2403.8957,90 2402.9929,90.425161 2403.2812,91.25 2404.0392,93.417951 2413.7539,92.556161 2416.375,90.09375 2419.2347,87.407253 2424.3778,87.372038 2427.7188,90 2434.2989,95.175978 2438.6815,89.888184 2437.6875,77.96875 2437.3877,74.374034 2436.5857,70.099034 2435.875,68.46875 2433.8691,63.86782 2429.9298,59 2428.2188,59 2427.3672,59 2423.8146,60.575 2420.3125,62.5 2412.9406,66.552094 2412.1863,66.640598 2405.5625,64.125 2402.1006,62.810227 2398.9517,60.436152 2397.2812,58.21875 z M 2493.5312,57.28125 2493,56.9375 2495.125,52.75 C 2496.3028,50.44124 2498.4593,47.419998 2499.9062,46.03125 2503.3984,42.67983 2504.9222,39.005423 2503.9375,36.34375 2502.7646,33.173392 2501.3639,32.706444 2498.5312,34.5625 2495.0895,36.81763 2493,35.058384 2493,29.875 2493,27.742345 2492.586,26 2492.0938,26 2490.9332,26 2490.2337,33.412533 2491.1562,35.90625 2492.0769,38.395155 2495.3562,39.398147 2497.9688,38 2499.1008,37.394096 2500.4505,37.167768 2500.9375,37.46875 2502.4227,38.38669 2500.8673,42.106101 2498.5625,43.15625 2496.7339,43.989441 2494.7967,47.442048 2490.2188,58.0625 2490.1272,58.274795 2490.535,58.724103 2491.1875,59.25 L 2492.3125,57.78125 2493.5312,57.28125 z M 2488.1562,63.25 2487.0938,62.71875 2481.9688,66.03125 C 2475.0232,70.488273 2472.4983,70.27864 2465.1875,64.71875 L 2459.1562,60.125 2454.75,63.0625 C 2450.8369,65.654438 2450.1779,66.638298 2449,71.75 2445.5313,86.802641 2449.7539,95.764308 2459,92.96875 2468.1794,90.193349 2472.2289,90.09966 2479.5,92.53125 2483.35,93.81876 2486.9833,94.902654 2487.5625,94.9375 2487.5763,94.938333 2487.6717,94.875681 2487.6875,94.875 L 2487.25,90.8125 C 2485.592,90.722983 2483.5271,90.151821 2480.25,89 2473.4637,86.614801 2468.5249,86.46574 2463.6562,88.5 2454.8142,92.194493 2450.9576,89.599574 2450.8438,79.875 2450.738,70.851915 2453.8412,64 2458.0312,64 2458.9862,64 2461.9627,65.8 2464.625,68 2468.4121,71.129476 2470.3129,72 2473.3125,72 2477.2011,72 2480.3791,70.777158 2482.8125,68.34375 2483.4903,67.665925 2484.2567,67.36955 2485.125,67.25 L 2488.1562,63.25 z M 2488.2188,99.84375 2479.4375,97.46875 2469.875,94.84375 2465.6875,97.0625 C 2459.6035,100.27622 2453.7472,100.0913 2450.0312,96.53125 L 2447.0938,93.6875 2443.6875,96.3125 C 2438.1916,100.50442 2435.8161,100.60859 2429.0625,97.09375 2422.0426,93.44026 2420.6797,93.351074 2414.5,96 2411.1592,97.432068 2408.7142,97.824017 2405.9062,97.375 2401.6503,96.694434 2400.5487,98.15514 2403.9375,99.96875 2406.9138,101.56162 2411.1822,101.20135 2415.5,99 2420.589,96.405491 2421.1065,96.458727 2427.2812,100 2433.6609,103.65877 2436.6051,103.74813 2441.4375,100.46875 L 2445.1875,97.9375 2450.5312,100.5625 C 2456.2052,103.33851 2459.478,103.29191 2465.1875,100.375 2468.9371,98.459416 2473.0285,98.640297 2480.2188,101.0625 2483.5338,102.17927 2486.0149,102.69611 2488.5,102.5625 L 2488.2188,99.84375 z"/>
</svg>
