<?xml version="1.0" encoding="UTF-8"?>
<svg xmlns="http://www.w3.org/2000/svg" viewBox="2034.56 18.53 35.19 84.02">
  <path d="M 2037.6562,82.1875 2037.4375,84.84375 2043.25,87.28125 C 2050.7668,90.437838 2051.2904,90.479953 2053.2188,88.25 2056.6912,84.234705 2058.5719,72.227091 2058.4375,55.09375 2058.3729,46.856748 2058.3185,46.652533 2055,43.6875 2052.6336,41.573094 2051.4651,41.073111 2051.1562,42 2050.9134,42.728229 2051.3766,43.80829 2052.1875,44.40625 2055.5024,46.850911 2056.3854,50.408091 2056.2188,60.6875 2056.0467,71.296452 2053.7364,84.143316 2051.6875,85.84375 2050.8748,86.518244 2048.9103,86.080935 2045.5,84.46875 2042.3137,82.962513 2039.891,82.214987 2037.6562,82.1875 z M 2036.8125,92.3125 2036.5625,95.125 C 2040.3381,95.081051 2044.2393,95.642494 2047.1562,96.96875 2049.5539,98.05887 2052.101,98.737824 2052.8438,98.46875 2058.0556,96.580779 2063.0205,89.279063 2065.625,79.65625 2066.9943,74.59712 2067.7556,41.379175 2066.625,35.875 2066.3564,34.567044 2065.8722,32.283759 2065.5625,30.8125 2065.1461,28.833828 2063.5228,27.342847 2059.3125,25.0625 2055.8715,23.198728 2053.2405,22.353212 2052.6875,22.90625 2051.7349,23.85885 2054.0698,25.642487 2059.4688,28.125 2063.4405,29.951308 2063.9574,32.961506 2064.125,56 2064.2703,75.968775 2063.1903,82.428227 2058.6562,89.15625 2055.5915,93.704141 2052.5936,95.089647 2048.625,93.75 2045.3273,92.636829 2040.9903,92.206782 2036.8125,92.3125 z M 2052.5312,33 C 2051.088,33 2052.2549,36.061956 2054.2188,37.4375 2056.7389,39.202648 2057.6609,39.362166 2058.4062,38.15625 2058.873,37.401102 2053.8558,33 2052.5312,33 z"/>
</svg>
