<?xml version="1.0" encoding="UTF-8"?>
<svg xmlns="http://www.w3.org/2000/svg" viewBox="1534 17.49 51.86 90.63">
  <path d="M1555.5938 98.997685C1553.6172 96.246412 1552.0 93.667609 1552.0 93.267011C1552.0 92.866414 1552.9408 90.268912 1554.0906 87.494785L1556.1811 82.450917L1552.3187 78.225459C1550.1943 75.901456 1547.7089 74.0 1546.7955 74.0C1544.306 74.0 1543.7714 77.208743 1545.5513 81.468621C1546.8402 84.553274 1546.9138 85.794008 1545.9463 88.129682C1543.9312 92.994451 1539.5938 91.682022 1538.5049 85.878078C1537.8123 82.186028 1540.1795 75.8359 1543.7715 71.75C1545.9627 69.257575 1547.0794 69.53485 1551.2792 73.614046C1553.4903 75.761744 1555.0465 76.67465 1555.1145 75.864046C1555.1775 75.113821 1555.29 68.092858 1555.3645 60.261907C1555.4651 49.691327 1555.178 45.900039 1554.25 45.543292C1553.5625 45.279005 1553.0 44.568622 1553.0 43.964663C1553.0 41.85293 1547.7457 36.0 1545.8499 36.0C1543.0687 36.0 1542.561 38.445655 1544.3922 43.022266C1546.5087 48.311928 1546.4212 51.265197 1544.0626 54.139216C1542.5103 56.030833 1541.7753 56.286061 1540.3641 55.423489C1536.3561 52.973597 1536.8903 42.434708 1541.3594 35.786554C1544.6724 30.858235 1547.1776 31.027866 1551.0671 36.443874C1554.0786 40.637317 1555.9888 42.108967 1556.0076 40.25C1556.0117 39.8375 1556.4781 36.646623 1557.044 33.159162C1558.2849 25.511865 1560.4837 21.611704 1562.8178 22.917898C1564.4471 23.829709 1566.8807 32.254703 1566.9576 37.25C1567.0143 40.92954 1568.7984 40.700807 1572.8904 36.489352C1574.7552 34.570208 1576.6448 33.0 1577.0896 33.0C1577.5343 33.0 1579.1586 34.652471 1580.6991 36.672158C1583.1303 39.859583 1583.5 41.239005 1583.5 47.122158C1583.5 50.894497 1582.9903 54.409651 1582.3507 55.049337C1580.6727 56.727261 1577.4825 55.354353 1576.1223 52.368976C1575.1023 50.130383 1575.2968 49.169225 1577.547 45.329503C1580.0039 41.137134 1580.0615 40.742879 1578.5535 38.441305C1577.6737 37.098587 1576.6056 36.0 1576.1799 36.0C1575.7542 36.0 1573.6999 37.747095 1571.6148 39.882433L1567.8237 43.764865L1568.9318 52.878701C1570.0358 61.95791 1569.901 64.12448 1567.7889 71.254968C1567.1771 73.3202 1566.9301 75.263481 1567.24 75.57337C1567.5499 75.883259 1569.9303 74.513385 1572.5297 72.529205C1577.1364 69.01279 1577.3095 68.966829 1579.3779 70.710803C1582.6811 73.495815 1582.9683 74.17851 1582.9847 79.282119C1583.0157 88.961604 1578.2154 94.310762 1574.5366 88.69619C1572.6985 85.890877 1573.8297 80.874622 1577.0809 77.4139C1578.2516 76.167685 1578.9108 74.664743 1578.5458 74.074028C1577.2277 71.941337 1573.7022 73.073784 1570.3849 76.695417C1566.7327 80.682679 1566.1464 83.997405 1568.1254 89.470154C1569.1705 92.360286 1568.9462 92.989567 1564.9814 98.291152C1562.6333 101.43102 1560.3691 104.0 1559.9498 104.0C1559.5306 104.0 1557.5704 101.74896 1555.5938 98.997685Z M1544.0 50.649223C1544.0 47.240807 1541.958 41.907946 1540.9026 42.560204C1539.8636 43.202342 1539.6673 51.333957 1540.6667 52.333333C1542.1379 53.80455 1544.0 52.863747 1544.0 50.649223Z M1545.0 86.081787C1545.0 83.10129 1543.922 81.0 1542.393 81.0C1541.4677 81.0 1541.0 82.175028 1541.0 84.5C1541.0 87.333333 1541.381 88.0 1543.0 88.0C1544.3049 88.0 1545.0 87.333333 1545.0 86.081787Z M1564.0988 95.861275C1566.1209 93.021501 1566.207 92.426215 1565.0034 89.611275C1563.4082 85.880539 1563.387 82.195499 1564.9224 75.5C1566.3205 69.403619 1566.3873 53.216534 1565.0573 42.855936C1564.0495 35.005678 1561.9653 27.0 1560.9294 27.0C1559.2446 27.0 1557.9312 42.002374 1558.0547 59.83628C1558.2267 84.686683 1558.2924 83.533859 1556.5084 86.983673C1554.4627 90.939765 1554.6055 92.683487 1557.25 96.03651C1560.1572 99.722679 1561.3713 99.691614 1564.0988 95.861275Z M1579.393 86.418213C1579.7269 85.548229 1580.0 83.453485 1580.0 81.763225C1580.0 78.753367 1579.9588 78.72733 1578.0 80.5C1576.9 81.495486 1576.0 83.290231 1576.0 84.488321C1576.0 88.024186 1578.2793 89.320595 1579.393 86.418213Z M1581.0 49.5C1581.0 45.663776 1579.5138 44.805809 1578.4848 48.047988C1577.9392 49.766922 1579.3348 53.0 1580.6224 53.0C1580.8301 53.0 1581.0 51.425 1581.0 49.5Z"/>
</svg>
