<?xml version="1.0" encoding="UTF-8"?>
<svg xmlns="http://www.w3.org/2000/svg" viewBox="843.69 13.23 101.06 92.19">
  <path d="M 893.2,32.8 C 890.29346,29.893455 894.12321,25.907169 897.4706,28.354844 899.39301,29.760545 899.23797,33.088546 897.21875,33.760884 896.51406,33.995523 896.00485,33.807812 896.08717,33.34375 896.52164,30.894488 895.82941,29 894.5,29 892.69973,29 892.53146,31.131461 894.2,32.8 894.86,33.46 895.175,34 894.9,34 894.625,34 893.86,33.46 893.2,32.8 z M 856.16052,38.452947 C 853.70695,33.067958 856.14413,21 859.68521,21 861.46469,21 861.35059,23.464148 859.5,25 857.33571,26.796201 857.4244,36.565145 859.61262,37.404844 860.91861,37.906 860.9904,38.306635 859.99018,39.511833 858.26195,41.594227 857.49518,41.38222 856.16052,38.452947 z M 896.92108,97.852533 C 895.46786,95.137172 897.09353,89.130319 899.99136,86.507815 902.66274,84.090251 902.5142,79.677293 899.55835,73.643611 897.33904,69.113392 892.65135,65 889.70796,65 889.02393,65 886.84267,66.101904 884.86072,67.448675 876.95805,72.818678 872.46426,72.109262 867.72314,64.743238 861.74653,55.457695 861.18106,54.386122 860.05921,50.219906 859.40735,47.799069 858.21039,45.884161 857.13586,45.543121 854.44264,44.688327 851.56478,41.055637 849.74325,36.211516 848.29803,32.368139 848.28358,31.408072 849.60407,26.961516 850.41445,24.232682 851.51005,22 852.03874,22 853.27815,22 853.25209,23.41566 851.93046,27.88398 851.03554,30.90961 851.19691,32.253966 852.91881,36.117892 855.02121,40.835631 856.59929,42.617241 860.31773,44.471085 861.47516,45.048128 862.70806,46.865697 863.05751,48.510127 864.17197,53.754586 871.07997,65.437245 873.98629,66.992664 876.17022,68.161465 880.95437,66.88074 884.90035,64.07096 886.49996,62.931932 888.83643,62 890.09249,62 896.16885,62 903.02923,70.663938 904.40192,80.071311 904.94745,83.809951 904.69837,85.113742 903.03448,87.22904 901.1725,89.596163 900.27543,93 901.51357,93 901.79603,93 902.93137,92.4375 904.03654,91.75 905.69951,90.715509 906.57317,90.801712 909.10401,92.25 913.70114,94.880737 915.36031,94.574982 914.5305,91.25 914.15302,89.7375 913.24752,87.825 912.51826,87 911.43169,85.77077 911.41344,83.980284 912.41716,77.081129 913.53375,69.406196 913.94165,68.412084 917.03322,65.831129 920.63807,62.821665 924.09738,62.19619 925.77795,64.25 927.5135,66.371002 932,78.212611 932,80.672408 932,84.300289 933.83309,83.406604 934.5822,79.413511 935.3575,75.280835 934.53692,66.838646 932.90486,62.156934 932.25394,60.289692 930.53764,58.295147 928.8155,57.404592 926.02208,55.960058 925.55982,56.020555 920.94233,58.434977 918.24429,59.84574 915.33057,61 914.46738,61 912.07025,61 909.9936,54.777063 910.05644,47.782119 910.13595,38.932641 911.71406,35.079957 916.20967,32.760087 919.80879,30.902829 919.99252,30.900231 922.37526,32.672892 923.72603,33.677802 925.5743,35.745437 926.48255,37.267637 928.99039,41.47072 930.3331,39.610105 929.71458,32.788954 929.21186,27.244843 927.08625,23 924.81275,23 923.70251,23 910.20421,31.86057 909.44632,33.086851 908.21075,35.08605 905.70878,33.74787 900.77899,28.451125 896.15334,23.481155 895.24342,22.93343 892.05727,23.201125 888.86038,23.469722 888.4686,23.824567 888.19009,26.703794 887.76084,31.141216 889.19187,33.339907 895.58136,38.060107 901.67981,42.565291 902.99022,44.968191 903.14715,51.933422 903.35763,61.276109 901.41035,62.780476 894,59 889.13099,56.516015 888.43075,56.516015 885.27287,59 883.74564,60.201321 881.21609,61 878.93853,61 875.40154,61 874.94029,60.639086 872.07339,55.628273 867.95202,48.424868 868.04905,45.258811 872.50003,41.707368 874.42501,40.171421 876,38.258921 876,37.457368 876,35.577747 872.93263,35.583723 870.44113,37.468197 866.43099,40.501313 862.82201,39.062333 861.74283,34 861.07576,30.870787 864.01999,21.800792 865.90164,21.188406 866.96231,20.843209 867.12673,21.31216 866.57752,23.116119 865.18995,27.673829 864.75441,34.730183 865.82002,35.388765 866.39725,35.745512 868.96297,35.020324 871.52162,33.777235 876.09721,31.55424 876.19695,31.548854 877.58685,33.449667 879.95981,36.694879 879.27971,39.923035 875.5222,43.249682 871.66796,46.661967 871.62508,48.555371 875.26247,54.720283 877.54883,58.595368 879.6556,58.833457 884.90833,55.810372 L 888.71289,53.620744 893.60644,55.746982 C 896.47367,56.992783 898.87392,57.504849 899.403,56.983612 899.89965,56.494327 900.34965,54.140764 900.403,51.753471 900.5135,46.808855 898.10901,42.372144 894.59462,41.035976 893.3292,40.554861 890.65273,38.243948 888.64692,35.900612 884.53991,31.102496 884.00382,27.494982 886.71561,22.904292 889.95724,17.416645 897.88934,19.658931 904.89974,28.044675 L 907.5,31.155067 911.01351,28.768156 C 923.51032,20.27842 928.42689,19.280817 930.93467,24.726023 932.7251,28.613644 933.39592,37.96928 932.11946,41.25 930.73828,44.799887 926.47432,45.119668 925.45245,41.75 924.51609,38.662287 921.00475,35 918.98067,35 918.06179,35 916.45273,35.947244 915.40499,37.104988 913.83505,38.839744 913.5,40.759796 913.5,48.021654 913.5,52.868078 913.85012,57.183453 914.27804,57.611376 914.70597,58.0393 917.49382,57.155081 920.47327,55.646445 L 925.89046,52.903471 929.79866,54.897286 C 932.83426,56.445932 934.21451,58.071162 935.98051,62.176327 940.15536,71.881038 937.20362,88.947178 931.19936,89.819551 929.16008,90.115843 929,89.736449 929,84.607064 929,79.698589 926.56501,70.950029 924.15476,67.19883 922.83585,65.146144 918.29101,67.726458 917.07342,71.21923 914.92584,77.379771 914.70367,83.657199 916.46955,88.281097 919.74162,96.848886 916.77914,101.22154 910.79482,96.657073 906.38097,93.290467 905.55823,93.325943 902.84188,97 900.22009,100.54615 898.49555,100.79447 896.92108,97.852533 z"/>
</svg>
