<?xml version="1.0" encoding="UTF-8"?>
<svg xmlns="http://www.w3.org/2000/svg" viewBox="269.94 14.33 45.38 89.66">
  <path d="M 312.96875 26.21875 C 312.08764 26.222675 311.3248 25.917959 310.4375 24.9375 C 308.12222 22.37914 306.82481 22.49313 304 25.5 C 302.70825 26.875 301.35285 28 301 28 C 300.64715 28 299.39148 26.235944 298.1875 24.09375 C 295.32692 19.004035 293.49013 18.409504 290.71875 21.625 C 289.49523 23.044586 287.44564 25.347161 286.15625 26.75 C 284.33249 28.734235 283.95361 29.997204 284.4375 32.40625 C 288.18415 51.059012 289.10217 59.040735 288.5 67.5 C 287.37668 83.280341 285.83557 85.341302 277 82.75 L 272.9375 81.53125 L 272.65625 85.3125 C 273.05387 85.120513 273.62594 85.146092 274.75 85.40625 C 286.00312 88.010722 287.39055 87.416344 288.46875 79.71875 C 289.04072 75.63523 289.38873 74.939187 290.03125 76.5 C 290.62961 77.953561 290.91339 76.997293 291.09375 73 C 291.82105 56.880919 291.58719 53.642443 288.09375 35.0625 C 287.1348 29.962339 287.22524 29.396256 289.625 26.25 C 291.03394 24.402783 292.68612 23.072457 293.3125 23.28125 C 293.93887 23.490043 295.59558 25.831656 296.96875 28.5 C 299.41143 33.246582 299.44752 33.778326 299.15625 52.4375 C 298.79875 75.340006 297.94934 82.238671 294.625 89.5 C 291.72271 95.839425 290.77919 96.069737 280.5 93.125 C 274.9219 91.527012 273.02745 90.803641 272.375 89.375 L 272 95 L 272.1875 95.21875 C 272.59295 94.56211 273.08096 94.222175 273.875 94.5625 C 274.76964 94.945942 277.3 95.720133 279.5 96.25 C 281.7 96.779867 285.11063 97.662419 287.09375 98.21875 C 293.14889 99.917418 295.55156 97.395956 299.625 85 C 301.0758 80.585054 301.51229 75.307745 301.8125 58.25 C 302.07989 43.056359 302.51145 36.957334 303.34375 36.875 C 303.98398 36.811665 305.27786 36.843252 306.21875 36.9375 C 309.4105 37.257209 312 35.066727 312 32.0625 C 312 30.576958 312.39073 29.561738 313.25 28.90625 L 312.96875 26.21875 z M 306.84375 27.40625 C 308.36813 27.339045 309.19339 28.673234 308.84375 31.0625 C 308.45014 33.752372 307.17046 34.313506 304.75 32.90625 C 302.38423 31.530789 302.53067 29.309221 305.09375 27.9375 C 305.74587 27.588497 306.33562 27.428652 306.84375 27.40625 z "/>
</svg>
