<?xml version="1.0" encoding="UTF-8"?>
<svg xmlns="http://www.w3.org/2000/svg" viewBox="694.5 14.36 67.91 88.5">
  <path d="M732.85956 93.578882C730.56762 91.060497 728.32076 89.0 727.86653 89.0C727.41229 89.0 726.12236 90.8 725.0 93.0C722.75588 97.398835 721.16392 97.943602 718.65499 95.171259C716.10788 92.356735 716.66721 88.70821 720.5 83.136319C722.425 80.337861 724.0 77.668592 724.0 77.20461C724.0 75.913266 713.40746 65.0 712.15407 65.0C709.19039 65.0 706.70578 75.245131 706.5762 88.0C706.50498 95.010196 706.3517 95.521047 704.22917 95.82228C702.45005 96.074777 701.647 95.399389 700.52043 92.70314C698.59546 88.096044 697.58588 77.470107 698.43068 70.708491C699.20555 64.506683 703.90232 55.840249 708.2079 52.667683L710.91579 50.672367L716.00303 53.311719L721.09026 55.951071L720.79513 49.310902C720.50215 42.719049 720.47116 42.654617 716.53597 40.455842C711.45394 37.616271 709.75071 34.980013 709.81863 30.058768C709.88396 25.324387 711.22839 22.551682 714.49717 20.4099C717.59619 18.379343 722.6045 19.835837 727.59738 24.219642L731.02321 27.227567L736.4062 23.52016C742.37456 19.409596 745.31813 19.236888 745.84655 22.966268C746.49098 27.514378 744.24072 32.365326 740.2685 34.991074C738.19582 36.361165 736.16939 37.936165 735.76531 38.491074C734.80574 39.808824 734.7768 57.0 735.73415 57.0C736.13793 57.0 738.80579 55.776167 741.66272 54.280371C746.84744 51.565823 746.86121 51.564422 749.03498 53.530371C752.15892 56.355654 755.10262 62.584854 756.48591 69.297413C759.32408 83.069911 757.55114 97.52707 753.31473 95.156255C751.42526 94.098857 749.11064 85.771197 749.04237 79.784947C748.99758 75.857494 746.45475 67.183265 744.85586 65.503713C743.75591 64.348267 736.30006 72.293719 735.43159 75.54684C735.10809 76.758645 735.92358 79.410404 737.43054 82.04684C738.83049 84.496078 739.98133 87.84304 739.98795 89.484533C739.9997 92.395755 739.93813 92.35891 737.48111 87.984533C736.09572 85.51804 733.99544 81.617112 732.81382 79.315804L730.66541 75.131608L736.40258 68.119079C741.73859 61.596879 742.30863 61.1835 744.55512 62.207066C748.15126 63.845577 750.80257 70.398947 751.95594 80.5C752.52115 85.45 752.98728 89.8375 752.9918 90.25C752.99631 90.6625 753.45 91.0 754.0 91.0C755.52879 91.0 755.17955 75.386925 753.4905 68.222874C751.90431 61.495111 749.76867 57.481745 746.98084 55.989745C745.65916 55.282406 743.86818 56.025103 739.47576 59.102007C735.04125 62.208391 733.51274 62.837558 732.86862 61.821656C731.92302 60.330294 731.71447 40.666307 732.60887 37.331879C732.92873 36.139413 734.55187 34.599836 736.21584 33.910597C740.44956 32.15693 743.0 29.112134 743.0 25.811439C743.0 22.262939 742.17406 22.285523 737.54975 25.960465C731.80994 30.521887 730.52045 30.601329 725.93462 26.676033C720.90899 22.374278 717.43123 21.568768 714.88358 24.116417C710.7748 28.225203 714.25882 38.0 719.8321 38.0C722.95508 38.0 723.71834 40.000474 724.2198 49.5C724.90143 62.412397 724.41332 63.079446 718.0 58.0C715.91671 56.35 713.34864 55.0 712.29319 55.0C709.86306 55.0 705.82731 59.24283 702.95175 64.82076C700.88629 68.82729 700.77568 69.953465 701.43076 80.306034C701.81931 86.446517 702.33134 91.664675 702.56861 91.901941C703.60945 92.942781 703.99503 90.771056 704.33897 81.930634C704.65745 73.74463 705.12312 71.675141 707.86733 66.25C709.60613 62.8125 711.36833 60.0 711.78332 60.0C713.43846 60.0 727.02194 74.239237 727.61289 76.593754C728.09435 78.512038 727.48153 80.061697 725.04005 83.099792C721.85271 87.066009 719.40188 93.0 720.95112 93.0C721.39744 93.0 722.96393 91.425 724.4322 89.5C725.90047 87.575 727.64158 86.0 728.30134 86.0C728.96109 86.0 731.46445 87.794875 733.86436 89.98861C736.26428 92.182346 738.66442 93.7074 739.19802 93.377619C739.7469 93.03839 740.02311 93.769245 739.8341 95.060681C739.2815 98.836221 737.25169 98.40497 732.85956 93.578882Z M718.25 33.779505C715.24315 32.329355 715.39453 29.232995 718.54239 27.798731C720.70827 26.811893 721.38957 26.945121 723.14278 28.698335C724.84254 30.398093 725.0031 31.125682 724.0652 32.878165C722.81273 35.218427 721.61765 35.403662 718.25 33.779505Z M721.55385 30.087132C720.77866 28.832851 718.0 28.60835 718.0 29.8C718.0 30.24 718.54 31.14 719.2 31.8C720.59799 33.197992 722.58351 31.753156 721.55385 30.087132Z"/>
</svg>
