<?xml version="1.0" encoding="UTF-8"?>
<svg xmlns="http://www.w3.org/2000/svg" viewBox="1870.63 15.96 31.47 88.97">
  <path d="M1887.3642 96.148854C1881.6993 92.04526 1878.4652 87.834777 1875.9322 81.265598C1872.6853 72.845048 1872.6297 53.927276 1875.8172 42.123799C1879.5215 28.406335 1884.9425 20.0 1890.084 20.0C1892.245 20.0 1893.0 20.474703 1893.0 21.833333C1893.0 22.841667 1892.6909 23.975814 1892.313 24.353661C1891.9352 24.731508 1890.8799 28.004391 1889.9681 31.626735L1888.3102 38.212815L1892.4051 43.22515C1899.5463 51.966254 1900.1042 53.103588 1899.4076 57.5C1899.0591 59.7 1898.4148 61.95 1897.976 62.5C1897.5372 63.05 1895.6249 66.362638 1893.7265 69.861418L1890.2748 76.222835L1891.5905 83.127665C1892.3141 86.925322 1893.6696 91.325024 1894.6028 92.904781C1898.1843 98.967745 1893.9038 100.88611 1887.3642 96.148854Z M1891.0 93.080767C1891.0 92.575189 1890.3735 89.537689 1889.6077 86.330767C1886.7539 74.379002 1884.9913 65.440037 1885.1061 63.5C1885.1712 62.4 1884.8853 58.247758 1884.4707 54.272795C1883.6981 46.863799 1884.6859 39.344327 1887.7009 29.685217C1888.5275 27.037087 1888.9236 24.590259 1888.5812 24.247822C1888.2387 23.905384 1886.6647 25.172037 1885.0833 27.062604C1878.2107 35.279005 1874.5709 58.872961 1877.5503 75.892961C1878.3566 80.498676 1883.5644 89.504969 1886.8322 91.944767C1889.7751 94.142056 1891.0 94.475912 1891.0 93.080767Z M1894.5798 61.783244C1895.9109 59.189028 1897.0 56.344761 1897.0 55.46265C1897.0 53.813198 1889.2609 44.0 1887.9601 44.0C1887.5603 44.0 1886.9965 44.905554 1886.707 46.012342C1886.0678 48.456803 1887.644 67.614889 1888.6134 69.183405C1889.4558 70.546546 1891.1814 68.406356 1894.5798 61.783244Z"/>
</svg>
