<?xml version="1.0" encoding="UTF-8"?>
<svg xmlns="http://www.w3.org/2000/svg" viewBox="1016.09 14.84 107.81 89.02">
  <path d="M 1074.229,90.330706 C 1071.9468,89.412502 1070,84.204381 1070,79.017541 1070,66.084362 1078.7343,58.885374 1086.6733,65.275115 1088.228,66.526428 1090.7497,68.184003 1092.2771,68.958615 1098.1336,71.928646 1103.4547,66.717779 1105.8242,55.692076 1106.4379,52.836434 1107.4736,48.025 1108.1257,45 1109.0046,40.922798 1110.1765,38.70556 1112.6557,36.428995 1114.8517,34.412476 1116,32.438108 1116,30.678995 1116,27.31683 1114.5382,27.248913 1112.4003,30.511745 1111.4952,31.893205 1109.6848,33.291989 1108.3773,33.620153 1107.0698,33.948318 1106,34.872923 1106,35.67483 1106,38.100196 1100.9167,36.794556 1098.6887,33.796914 1096.4408,30.772632 1095.7594,22.960748 1097.6849,22.289692 1098.4368,22.027646 1098.8387,22.970028 1098.7847,24.868661 1098.6594,29.273676 1100.904,34 1103.1213,34 1105.4619,34 1105.4562,33.796598 1103.0037,29.77417 1100.8932,26.312492 1100.3289,22 1101.9866,22 1102.5292,22 1103.6339,23.581326 1104.4414,25.514058 1106.4299,30.273262 1108.5967,30.914496 1111.6313,27.641839 1115.7268,23.225053 1119,24.773885 1119,31.128571 1119,34.820025 1117.5603,37.094589 1114.0268,38.985672 1112.9282,39.57362 1111.7474,42.04274 1111.0411,45.229124 1110.3984,48.128106 1109.2829,52.3 1108.5621,54.5 1107.8412,56.7 1106.7339,60.388868 1106.1013,62.697484 1104.7056,67.791108 1099.7873,73 1096.3734,73 1093.6938,73 1088.9078,70.814337 1085.1151,67.858605 1081.9317,65.37764 1079.1083,65.523179 1075.575,68.35038 1073.0597,70.362954 1072.5897,71.524692 1072.2194,76.643229 1071.835,81.958471 1072.0728,82.933104 1074.4417,85.748306 1077.3877,89.249435 1078.4639,89.178024 1083.8566,85.123616 1088.1103,81.92556 1092.6227,81.883119 1097,85 1098.9279,86.372767 1101.7892,87.4 1103.6852,87.4 1107.6171,87.4 1108.0057,88.667135 1104.4844,90.005922 1102.4276,90.787941 1101.0854,90.41873 1097.1238,87.981172 1091.0905,84.268858 1088.4364,84.28092 1084.0378,88.040641 1080.8074,90.801864 1077.3856,91.600752 1074.229,90.330706 z M 1029.1115,88.241462 C 1027.2479,87.283658 1025.7854,86.05 1025.8615,85.5 1026.0221,84.340111 1026.2586,84.336166 1031.2339,85.410368 1034.2194,86.054956 1035.684,85.793967 1038.5411,84.108272 1042.7032,81.652533 1045.724,81.47664 1048.4411,83.531803 1050.817,85.328837 1055.3844,85.446719 1056.7947,83.747407 1058.5562,81.624885 1055.4684,69 1053.1877,69 1052.7796,69 1050.927,67.61283 1049.0707,65.917401 1043.6608,60.976189 1041.1865,60.447098 1037.9573,63.540905 1036.3374,65.092915 1034.9837,67.700465 1034.6212,69.967186 1033.4367,77.374776 1028.417,75.851005 1028.6468,68.153599 1028.8718,60.615719 1034.7721,50 1038.7368,50 1040.7326,50 1045.9959,52.877531 1049.9778,56.14563 1051.8907,57.715534 1054.2359,59 1055.1895,59 1056.6779,59 1056.8694,58.185746 1056.5421,53.25 1056.3323,50.0875 1055.9511,46.825 1055.6949,46 1050.9649,30.769662 1051.0162,30.344812 1058.4682,23.031164 L 1062.6941,18.883849 1067.8347,24.191925 C 1073.4495,29.989632 1073.7428,30.977928 1071.4658,36.427672 1070.047,39.82329 1069.1532,56.486542 1070.3269,57.660232 1070.5793,57.912584 1073.0253,56.868658 1075.7625,55.340396 L 1080.7394,52.561738 1084.9891,55.530869 C 1094.2219,61.981387 1093.771,61.874744 1096.9438,58.358164 1099.1307,55.934352 1099.9427,53.801984 1100.4968,49.027634 1101.1558,43.349287 1101.0327,42.711182 1099.0032,41.289693 1095.565,38.881486 1091,30.974048 1091,27.426664 1091,25.676688 1091.7335,23.636118 1092.6301,22.892064 1094.0933,21.677673 1094.1914,21.852026 1093.5888,24.595895 1092.4293,29.87499 1096.506,37.056266 1101.829,39.111394 1104.0548,39.970711 1104.1265,40.309714 1103.4468,46.755295 1103.0556,50.464883 1102.3174,54.625 1101.8064,56 1100.7158,58.934678 1095.107,65 1093.4838,65 1092.8657,65 1090.5915,63.49473 1088.43,61.654956 1084.3452,58.178138 1080.7937,56 1079.2095,56 1078.7025,56 1076.2606,57.547722 1073.7832,59.439381 1070.4129,62.012797 1068.9919,62.59189 1068.1394,61.739381 1066.4355,60.035526 1066.7127,43.330332 1068.5474,37.15241 1070.0108,32.224644 1069.9895,31.79413 1068.1553,29.220909 1067.0886,27.724409 1065.2595,25.635738 1064.0907,24.579418 1061.9833,22.674869 1061.9411,22.68228 1059.0343,25.467169 1055.321,29.024697 1055.0344,31.093263 1057.2447,38.384838 1058.2258,41.6215 1058.9864,45.8965 1058.9351,47.884838 1058.8837,49.873177 1059.1501,53.542698 1059.5271,56.039329 1060.0676,59.618638 1059.865,60.867153 1058.569,61.942772 1057.1603,63.111823 1056.2157,62.974509 1051.9626,60.982506 1049.2332,59.704097 1047,58.321749 1047,57.910622 1047,57.499495 1045.4431,56.2009 1043.5402,55.024854 1040.876,53.378261 1039.6375,53.123626 1038.1542,53.917456 1035.3596,55.413097 1032.0926,61.453003 1031.4559,66.300935 L 1030.9044,70.5 1033.0718,66.56345 C 1036.0224,61.204356 1038.8459,59.068822 1043,59.05432 1045.8887,59.044235 1047.5686,60.042635 1052.6187,64.771051 1057.903,69.718776 1058.8917,71.222624 1059.8687,75.799221 1061.4516,83.213772 1061.3105,84.630776 1058.75,87.033181 1056.208,89.41825 1052.7974,89.315954 1046.8492,86.676237 1043.3865,85.139527 1043.0687,85.158101 1040.6803,87.036813 1037.0953,89.856769 1033.0701,90.275914 1029.1115,88.241462 z M 1025.5,97.792183 C 1022.8251,96.258148 1021.0706,93.885574 1021.0318,91.75 1020.9871,89.290202 1021.7548,89.555181 1024.6535,93 1027.5796,96.47749 1030.2381,96.762005 1034.6527,94.070131 1036.3867,93.012816 1039.5286,91.671938 1041.6348,91.090403 1045.0005,90.161072 1046.0607,90.344992 1050.3917,92.609613 1055.9868,95.535216 1060.1123,95.317854 1062.8362,91.953941 L 1064.5067,89.891038 1071.326,93.445519 C 1079.6431,97.780671 1082.6024,97.892109 1087.4344,94.052103 1090.6172,91.522794 1091.5239,91.248686 1093.8201,92.121706 1095.292,92.681331 1097.1722,93.741856 1097.9982,94.478428 1098.8242,95.215 1100.625,95.98107 1102,96.180805 1104.456,96.537575 1104.4632,96.564677 1102.4088,97.722164 1100.6572,98.709042 1099.7321,98.502487 1096.7119,96.450184 1092.2212,93.398701 1091.4985,93.402748 1087.8176,96.5 1083.8872,99.807206 1078.4701,99.771882 1070.934,96.389906 L 1065.118,93.779813 1062.1546,95.889906 C 1058.1896,98.71325 1053.793,98.549028 1048.3774,95.375302 L 1043.8987,92.750604 1037.1196,95.875302 C 1029.6993,99.295532 1028.4739,99.497695 1025.5,97.792183 z"/>
</svg>
