<?xml version="1.0" encoding="UTF-8"?>
<svg xmlns="http://www.w3.org/2000/svg" viewBox="1277.57 28.35 31.65 80.35">
  <path d="M 1307.2188,45.4375 1304,46.59375 C 1297.9124,48.784685 1296.7027,48.383135 1294.0625,43.40625 1291.7251,39.00025 1285.5837,32 1284.0625,32 1281.8794,32 1282.4804,33.743098 1286.0625,37.8125 1288.2615,40.31077 1290.9475,44.362556 1292.0312,46.8125 1293.933,51.111702 1294.1235,51.233616 1297.5,50.625 1303.7205,49.503757 1306.1769,49.040395 1307.2188,49.25 L 1307.2188,45.4375 z M 1307.2188,53.90625 C 1306.7154,54.505123 1305.9567,55.003498 1304.75,55.53125 1302.9625,56.313002 1300.4099,57.804402 1299.0938,58.84375 1296.5172,60.878482 1296.533,60.938988 1299.4062,71 1302.951,83.412336 1299.6538,100.06815 1293.5,100.8125 1287.3744,101.55343 1283.5609,92.966226 1286.0312,83.9375 1289.4751,71.350634 1288.9091,51.58514 1284.8438,42.75 1283.6417,40.1375 1282.0747,38 1281.3438,38 1279.5718,38 1279.6512,38.919628 1281.8125,42.5 1286.5931,50.419431 1287.8006,67.345807 1284.5625,81 1283.7147,84.575 1283.0081,89.882692 1283,92.8125 1282.9873,97.377232 1283.4326,98.557668 1285.9375,101.0625 1289.6813,104.80638 1297,105.04329 1297,101.40625 1297,100.6401 1297.4302,100 1297.9375,100 1298.4449,100 1299.3981,98.3125 1300.0625,96.25 1300.7268,94.1875 1301.6574,91.974727 1302.1562,91.34375 1303.3406,89.845421 1302.4409,70.835961 1300.9688,66.375 1300.0266,63.520663 1300.106,62.500739 1301.4375,60.46875 1302.39,59.014945 1303.9946,58 1305.375,58 1306.2279,58 1306.7549,58.182504 1307.1562,58.625 L 1307.2188,57.78125 1307.2188,53.90625 z"/>
</svg>
