<?xml version="1.0" encoding="UTF-8"?>
<svg xmlns="http://www.w3.org/2000/svg" viewBox="1400.06 22.09 64.69 88.96">
  <path d="M 1461.8125 62.65625 C 1459.894 64.776301 1457.1966 64.176406 1453.25 60.65625 C 1450.0986 57.845404 1449.0504 57.440452 1446.6875 58.09375 C 1445.1398 58.52165 1443.2344 59.395739 1442.4688 60.03125 C 1439.6384 62.380165 1438.8507 60.088698 1439.5625 51.65625 C 1440.4532 41.104742 1441.0667 40 1446 40 C 1450.425 40 1452.3497 37.793665 1451.8125 33.3125 C 1451.3017 29.051839 1448.6115 28.116354 1444.125 30.6875 L 1440.2812 32.90625 L 1437.4375 29.9375 C 1435.8832 28.315087 1434.3013 27 1433.9062 27 C 1433.5112 27 1431.31 28.570047 1429 30.5 L 1424.7812 34.03125 L 1420.6875 31 C 1414.0646 26.129451 1410 27.316234 1410 34.09375 C 1410 36.201237 1410.8118 38.749532 1411.875 40.0625 L 1413.7188 42.375 L 1418.625 40.25 C 1422.7378 38.458533 1423.7185 38.331123 1424.875 39.46875 C 1426.4668 41.034683 1428.6169 59.825616 1427.3438 61.0625 C 1426.8882 61.505016 1424.025 60.781185 1421 59.46875 C 1414.4025 56.606327 1410.838 56.396799 1408.7188 58.75 C 1406.494 61.220455 1403 70.539624 1403 73.96875 C 1403 81.087504 1405.9637 82.066977 1407.875 75.59375 C 1408.5899 73.172501 1410.2254 70.195477 1411.5312 68.96875 L 1413.9062 66.75 L 1419 70 C 1426.7124 74.949018 1429.0185 80.622364 1424.5312 83.5625 C 1423.1801 84.447802 1421.2039 86.577245 1420.125 88.28125 L 1418.1562 91.375 L 1422.0938 99.1875 C 1424.2549 103.48587 1426.3738 107 1426.8125 107 C 1427.2513 107 1428.3836 106.4375 1429.3125 105.75 C 1431.1871 104.36251 1431.5328 101.34215 1430.4688 95.8125 C 1429.8646 92.673609 1430.1466 91.759631 1432.3438 89.5625 C 1433.7592 88.147094 1435.3139 87 1435.8125 87 C 1436.3111 87 1437.7776 88.984123 1439.0625 91.40625 C 1441.097 95.241185 1441.2468 96.259926 1440.2812 99.40625 C 1439.3802 102.34214 1439.4513 103.32618 1440.6562 104.53125 C 1442.9007 106.77573 1444.8971 106.30526 1446.2188 103.25 C 1446.873 101.7375 1448.4598 99.242199 1449.7188 97.6875 C 1453.5762 92.9238 1452.8764 88.177796 1447.4062 82.09375 C 1443.5132 77.763617 1442.8893 76.558622 1443.4688 74.25 C 1444.5619 69.89502 1445.7533 68.969554 1448.8125 70.125 C 1450.2824 70.680179 1452.6624 72.259817 1454.0938 73.625 C 1456.3992 75.823885 1456.9946 75.945327 1459.3438 74.875 C 1460.2722 74.451981 1460.7207 74.473311 1461.3125 74.375 L 1461.3438 74.28125 L 1461.4688 70.875 C 1460.4508 72.091032 1459.0842 73 1457.8125 73 C 1456.9786 73 1455.4992 72.104087 1454.5 71 C 1453.5008 69.895913 1451.3309 68.319867 1449.6875 67.5 C 1446.2735 65.796906 1444.8191 66.519469 1442.4375 71.125 C 1439.9908 75.85625 1440.6797 78.29891 1446.0625 84.0625 C 1451.7001 90.099044 1451.9338 92.332865 1447.4375 97.0625 C 1446.1017 98.467595 1445 100.12506 1445 100.75 C 1445 101.37495 1444.5745 102.15232 1444.0625 102.46875 C 1442.4504 103.46506 1442.0227 101.39844 1443.1875 98.3125 C 1444.6489 94.440743 1443.7313 91.367161 1439.7188 86.71875 L 1436.4375 82.9375 L 1432.3125 86.46875 C 1427.3298 90.733811 1425.5346 94.980364 1427.5625 97.65625 C 1429.1657 99.771644 1429.4094 102 1428.0625 102 C 1427.5528 102 1425.9859 99.452919 1424.5625 96.34375 C 1422.1838 91.148061 1422.1078 90.499753 1423.5 88.375 C 1424.3331 87.103521 1425.9065 85.585227 1427 85 C 1433.35 81.601576 1428.0892 71.008268 1417.2188 65.28125 C 1414.1138 63.64541 1410.6541 65.079185 1408.375 68.9375 C 1407.3809 70.620302 1406.2126 72 1405.7812 72 C 1404.8033 72 1404.7695 72.183811 1406.2812 68 C 1409.6008 58.813224 1412.1166 58.011193 1421.9375 62.96875 C 1426.5876 65.31613 1428.0394 65.663046 1428.875 64.65625 C 1430.12 63.156023 1429.5301 44.16082 1428.0938 39.28125 C 1427.3149 36.635619 1427.5128 35.597805 1429.1875 33.46875 C 1431.7059 30.267175 1434.5723 30.534798 1437.3125 34.21875 C 1439.2078 36.766905 1439.2627 37.449369 1438.1562 44.71875 C 1436.7422 54.009168 1436.6456 63.670283 1437.9375 64.46875 C 1438.4497 64.785297 1440.5229 63.915337 1442.5625 62.53125 C 1444.6021 61.147162 1446.7833 60 1447.4062 60 C 1448.0292 60 1450.2413 61.386464 1452.3125 63.09375 C 1455.491 65.713753 1456.6092 66.110672 1459.5312 65.5625 C 1460.6924 65.344668 1461.1714 65.391438 1461.6875 65.4375 L 1461.8125 62.65625 z M 1413.9375 30.5625 C 1414.1935 30.528189 1414.4978 30.580703 1414.9062 30.6875 C 1417.6685 31.409833 1421.5775 35.822682 1420.4375 36.9375 C 1419.0885 38.256567 1414.5657 39.221961 1413.7188 38.375 C 1413.3228 37.979063 1413 35.994342 1413 33.9375 C 1413 31.543884 1413.1694 30.665432 1413.9375 30.5625 z M 1448.0312 31.84375 C 1449.5459 32.091651 1450.2278 33.738067 1449.5 36.03125 C 1448.8938 37.941316 1446.0282 38.715666 1444.6562 37.34375 C 1443.2065 35.894047 1444.1208 32.894384 1446.25 32.09375 C 1446.9166 31.843106 1447.5264 31.761116 1448.0312 31.84375 z "/>
</svg>
