<?xml version="1.0" encoding="UTF-8"?>
<svg xmlns="http://www.w3.org/2000/svg" viewBox="2184.26 13.84 31.74 91.46">
  <path d="M2194.801 94.886336C2192.0138 91.917631 2190.0 88.832027 2190.0 87.530138C2190.0 86.296745 2191.575 83.22489 2193.5 80.703794C2195.425 78.182697 2197.0 75.593388 2197.0 74.949772C2197.0 74.306157 2194.975 71.783209 2192.5 69.343222C2190.025 66.903235 2188.0 64.327436 2188.0 63.619224C2188.0 62.911012 2189.8 59.761981 2192.0 56.621377C2194.2 53.480774 2196.0 50.310315 2196.0 49.575914C2196.0 48.841513 2193.975 45.63284 2191.5 42.445529C2186.7058 36.27153 2186.2593 34.656226 2188.2739 30.77309C2189.9864 27.472413 2197.9701 18.0 2199.0397 18.0C2200.064 18.0 2206.1311 27.030472 2208.5599 32.170258L2210.2944 35.840516L2207.2105 39.73419C2201.6742 46.724402 2201.3587 48.270797 2204.5734 52.660024C2206.1203 54.772011 2207.9049 56.95 2208.5393 57.5C2210.1122 58.863719 2213.0 64.575637 2213.0 66.32298C2213.0 67.105245 2210.9089 69.672793 2208.3531 72.028641C2204.5448 75.538967 2203.9624 76.509441 2205.1258 77.406001C2208.1433 79.731288 2214.0 87.799149 2214.0 89.630486C2214.0 92.330053 2211.5821 95.477119 2207.6327 97.91798C2202.4069 101.14769 2200.187 100.62322 2194.801 94.886336Z M2197.5073 27.22221C2196.7767 23.285542 2195.8428 23.705676 2192.4481 29.498315C2189.5705 34.408531 2189.8911 35.972316 2194.8722 41.322607L2197.5 44.145213L2197.8078 37.322607C2197.9771 33.570173 2197.8418 29.024995 2197.5073 27.22221Z M2199.3361 66.069449C2199.6585 64.457646 2199.6517 60.854842 2199.3211 58.063218C2198.6421 52.330392 2198.053 52.42997 2193.4629 59.053478L2190.6851 63.061888L2193.5296 66.030944C2197.1133 69.771472 2198.5937 69.781289 2199.3361 66.069449Z M2201.0 87.059017C2201.0 82.691476 2200.6396 78.895271 2200.199 78.623005C2199.4908 78.185295 2195.6759 82.321757 2193.6337 85.741634C2192.8876 86.991069 2198.5396 95.0 2200.1674 95.0C2200.6253 95.0 2201.0 91.426558 2201.0 87.059017Z M2205.9963 35.194236C2205.9942 34.262406 2205.0643 31.977422 2203.9298 30.116492C2200.9198 25.179241 2199.6511 27.228509 2200.5458 35.582636L2201.274 42.38279L2203.637 39.635631C2204.9366 38.124694 2205.9983 36.126066 2205.9963 35.194236Z M2207.3237 69.065153C2210.003 66.333148 2210.0722 66.040313 2208.6761 63.34057C2207.8669 61.77566 2206.2701 59.649452 2205.1278 58.615663C2203.0794 56.761891 2203.0368 56.773131 2202.0254 59.433123C2200.8857 62.430876 2200.674 67.986993 2201.607 70.418213C2202.4883 72.714906 2204.1241 72.327743 2207.3237 69.065153Z M2207.6855 93.825686C2208.9585 92.629813 2210.0 90.995429 2210.0 90.19372C2210.0 87.961945 2205.92 81.86001 2204.6997 82.266772C2202.7777 82.907449 2202.7823 96.0 2204.7046 96.0C2205.0712 96.0 2206.4126 95.021559 2207.6855 93.825686Z"/>
</svg>
