<?xml version="1.0" encoding="UTF-8"?>
<svg xmlns="http://www.w3.org/2000/svg" viewBox="2152 11.27 27.65 92.48">
  <path d="M2156.6667 98.333333C2155.2823 96.948946 2156.0903 90.383498 2158.0 87.5C2160.6293 83.529839 2160.4781 82.154392 2156.9594 78.037774C2155.3317 76.13355 2154.0 74.22781 2154.0 73.802797C2154.0 73.377784 2155.3961 70.761089 2157.1025 67.98792C2160.4354 62.571161 2160.4171 62.932049 2158.0872 48.599612C2156.817 40.785741 2158.1413 26.786019 2160.6638 21.359792C2163.3988 15.476725 2167.9304 19.27936 2171.8589 30.753982C2174.5059 38.485617 2174.8465 53.729895 2172.4977 59.351162C2171.052 62.811347 2171.1084 63.155284 2173.9977 68.495826C2177.6269 75.203793 2177.6524 75.727143 2174.5552 79.925166C2172.3433 82.923211 2172.2475 83.448046 2173.549 85.434407C2174.3402 86.641941 2175.2765 89.73819 2175.6297 92.314961C2176.2456 96.808627 2176.1705 97.0 2173.7909 97.0C2172.4264 97.0 2170.4955 96.1 2169.5 95.0C2166.8625 92.085612 2163.5061 92.480483 2161.0 96.0C2158.8416 99.031149 2157.8815 99.548151 2156.6667 98.333333Z M2168.7301 90.922876C2172.5738 92.674197 2173.3978 90.865269 2170.6205 86.772714L2168.1921 83.194307L2171.0554 79.847153C2172.6302 78.006219 2173.937 75.798527 2173.9594 74.941172C2173.9817 74.083816 2172.4964 70.885344 2170.6586 67.833457L2167.3173 62.284572L2169.3701 59.466482C2170.9884 57.244871 2171.5074 54.716552 2171.8221 47.521349C2172.1782 39.379436 2171.925 37.644463 2169.4761 31.447153C2164.2488 18.219082 2162.2516 18.718527 2160.165 33.775595C2159.1823 40.867438 2159.4783 43.637898 2162.631 56.857238C2164.0751 62.912484 2164.0546 63.316265 2162.1985 65.357238C2159.8058 67.988344 2158.0 71.396373 2158.0 73.280858C2158.0 74.057645 2159.575 76.314924 2161.5 78.297033C2165.6662 82.58683 2165.7819 83.546023 2162.5 86.58758C2161.125 87.861887 2160.0 89.57758 2160.0 90.400232C2160.0 91.636305 2160.5343 91.709694 2163.0779 90.822982C2165.3296 90.038055 2166.847 90.064873 2168.7301 90.922876Z"/>
</svg>
