<?xml version="1.0" encoding="UTF-8"?>
<svg xmlns="http://www.w3.org/2000/svg" viewBox="1835.73 11.78 21.84 97.46">
  <path d="M1845.8939 98.25C1840.6944 91.824276 1838.9607 84.120482 1838.2986 64.5C1837.7298 47.641773 1839.3008 31.004966 1842.1696 23.508481C1844.9633 16.20807 1846.8721 16.265312 1850.2234 23.75C1854.7267 33.807767 1855.5681 40.353578 1855.2684 63.0C1854.8993 90.894361 1851.1994 104.80669 1845.8939 98.25Z M1851.0471 85.422253C1852.7127 75.313648 1852.4636 46.138755 1850.6322 36.819069C1848.9595 28.307332 1846.3382 22.261841 1844.9304 23.669562C1843.2956 25.30443 1841.7894 37.284188 1841.3168 52.411358C1840.7514 70.50891 1842.8306 87.548984 1846.1778 92.249713C1848.8075 95.942751 1849.4658 95.019689 1851.0471 85.422253Z"/>
</svg>
