<?xml version="1.0" encoding="UTF-8"?>
<svg xmlns="http://www.w3.org/2000/svg" viewBox="276 13.93 89.79 89.54">
  <path d="M 292.00982,97.511833 C 290.99979,96.294815 291.11413,95.910901 292.63738,95.40477 293.66182,95.064378 295.97321,94.13286 297.77379,93.33473 300.17356,92.271006 302.86073,92.062248 307.83898,92.552792 314.11535,93.17125 314.84775,93.035029 317.49666,90.75653 320.11296,88.506083 320.41252,87.558855 320.93147,79.89553 321.36425,73.504663 322.1742,70.12703 324.32355,65.75 325.8765,62.5875 327.54734,60 328.03653,60 328.52572,60 331.20928,60.9 334,62 344.31248,66.064802 348.35049,63.845512 351.85094,52.189123 354.11806,44.639694 357,31.12457 357,28.042158 357,23.120082 349.10946,20.033392 345.57143,23.571429 343.23638,25.906481 343.64305,27.864137 347.14219,31.132823 L 350.28438,34.068066 349.18906,40.678086 C 347.87658,48.598664 343.67509,57.650959 340.903,58.530787 339.75992,58.893587 337.85125,58.487217 336.45104,57.582928 328.67058,52.558152 329.73182,52.710631 324.93978,55.929005 318.94639,59.95421 318,58.945539 318,48.532543 318,40.00089 318.76519,38.273863 323.25,36.683384 327.95031,35.016479 321.92817,21 316.51168,21 313.50595,21 313.13239,21.614467 313.89748,25.300064 314.79119,29.605182 314.16561,33 312.47859,33 311.71832,33 309.47317,31.328737 307.48936,29.286081 304.55078,26.260319 303.71089,25.843414 302.95654,27.036081 301.81496,28.840973 301.74765,30 302.78439,30 303.21581,30 304.37719,31.368527 305.36525,33.041171 306.48123,34.930372 308.26245,36.302491 310.06764,36.663527 313.60118,37.370236 314.98604,41.338594 314.99442,50.781385 315.00128,58.50453 313.50479,59.528412 308.55804,55.185102 304.98629,52.049062 302.18901,51.862408 299.91031,54.608065 298.31082,56.535334 294.61681,56.349946 292.77558,54.25 288.67247,49.57036 285,36.422247 285,26.412032 285,23.985414 284.60625,22 284.125,22 282.79416,22 282.11629,26.871043 282.59419,33 283.58513,45.708438 284.25031,48.820785 287.2961,55 291.09629,62.709738 294.19714,64.496189 298.92824,61.701463 302.83967,59.39092 305.24058,59.562729 307.84957,62.339872 310.72323,65.398746 312,70.078432 312,77.552268 312,86.581397 310.01416,88.270417 301.5,86.48284 298.50299,85.853608 298.24145,85.983654 289.29896,92.549732 287.94707,93.542369 286.28622,93.90823 284.99392,93.498069 282.34581,92.657592 282.9206,90.607787 285.92788,90.167403 287.17706,89.984475 290.26515,88.257763 292.79031,86.330266 297.45933,82.766322 299.43709,82.4878 305.73218,84.507704 307.55649,85.093071 308.15293,84.727966 308.99637,82.509543 310.94918,77.373275 307.89014,64.662544 304.37674,63.314326 303.43427,62.952669 301.35249,63.408995 299.75054,64.328384 295.4254,66.810674 291.76951,66.446086 288.93709,63.25 283.2186,56.797285 281.32955,50.557893 280.60627,35.733909 280.07984,24.944527 280.19498,23.805015 281.99341,22.00659 285.03597,18.964034 286.99052,20.450102 287.05765,25.856989 287.11545,30.51271 290.0246,43.357933 291.31301,44.646339 291.69085,45.024186 292,46.108481 292,47.055883 292,48.003285 292.86431,49.840785 293.92068,51.139216 295.80289,53.452708 295.90113,53.464943 298.82497,51.75 302.95322,49.328625 306.23948,49.561564 308.97105,52.46918 312.01461,55.708908 313.00297,54.901987 312.98635,49.190983 312.96586,42.152054 312.2176,40.480464 308.48272,39.129913 304.96345,37.857326 301.75263,33.601147 300.58806,28.664958 298.95744,21.753313 303.4362,19.614269 307.24081,25.487621 308.48336,27.405813 309.85162,28.980813 310.28138,28.987621 311.7417,29.010756 312.33087,25.714919 311.33707,23.082049 309.87197,19.200542 310.7251,18 314.94847,18 319.26616,18 322.88622,20.422526 325.80689,25.266397 329.79444,31.879669 329.39783,40 325.08726,40 321.3053,40 319.41092,45.0986 321.00009,51.000334 L 322.10375,55.099 325.41991,53.0495 C 329.68703,50.412276 331.12849,50.468854 335.51519,53.445745 337.49739,54.790905 339.70649,55.666124 340.4243,55.390675 342.6143,54.550291 346.96717,44.440868 347.14324,39.786117 347.27722,36.243985 346.79836,34.889272 344.65457,32.745478 341.01208,29.10299 341.00334,23.92913 344.63486,21.07258 347.8902,18.511928 351.48364,18.438184 355.96231,20.840122 360.09336,23.055629 361.70936,27.019781 360.2749,31.419159 359.0659,35.127058 357.72119,40.142715 355.42739,49.5 351.46706,65.655733 346.41209,69.49274 334.44227,65.428882 330.16753,63.97757 329.67195,63.986908 327.94326,65.551345 324.68276,68.502064 322.66126,75.388802 323.40653,81.006888 324.78771,91.418759 319.35077,96.698921 308.45053,95.531605 303.22495,94.971993 301.52261,95.202897 298.13586,96.930689 293.29795,99.398807 293.55559,99.374367 292.00982,97.511833 z"/>
</svg>
