<?xml version="1.0" encoding="UTF-8"?>
<svg xmlns="http://www.w3.org/2000/svg" viewBox="1800.19 13.66 29.28 88.49">
  <path d="M 1802.6875 80.375 L 1802.1875 81.34375 L 1802.875 88.8125 C 1803.7261 88.060563 1805.1363 88.059716 1808.25 88.84375 C 1819.1985 91.600613 1822.311 86.557262 1821.4688 67.4375 C 1819.6773 26.76909 1820.0237 17.677688 1823.0938 25.75 C 1824.7691 30.154931 1825.4143 62.045327 1824.125 77 C 1823.051 89.455676 1822.7427 90.674054 1820.4062 92.75 C 1817.5517 95.286421 1815.5823 95.41611 1808.6875 93.5625 C 1805.9497 92.826444 1804.1403 92.117149 1803.125 91.375 L 1803.5938 96.4375 L 1803.6562 96.6875 C 1804.8519 96.054988 1806.2875 96.225184 1810.5 97.0625 C 1815.8192 98.119783 1817.4472 98.096337 1820.6562 96.875 C 1826.4188 94.681787 1827.1119 90.506997 1827.3125 56.5 C 1827.4708 29.67064 1827.3684 28.301409 1825.2812 23.75 C 1822.9842 18.741078 1821.2236 17.932694 1818.5 20.65625 C 1817.3585 21.797764 1817.0168 23.269248 1817.4062 25.40625 C 1817.7164 27.109129 1818.055 40.292681 1818.1562 54.6875 C 1818.322 78.226435 1818.1532 81.103441 1816.5625 83.53125 C 1814.9389 86.00922 1814.4222 86.192417 1810.1562 85.625 C 1805.826 85.049021 1803.6982 83.599535 1802.6875 80.375 z "/>
</svg>
