<?xml version="1.0" encoding="UTF-8"?>
<svg xmlns="http://www.w3.org/2000/svg" viewBox="405.88 15.83 37.1 88.67">
  <path d="M 408.6875,84.8125 408.3125,90.9375 C 408.99513,90.309764 410.31994,90.152008 413.25,90.21875 417.29735,90.310941 418.63323,89.913977 420.03125,88.1875 422.86247,84.691084 425.41835,66 423.0625,66 422.5462,66 421.8644,68.1375 421.53125,70.75 420.61071,77.968778 418.20843,86.25051 416.78125,87.15625 414.66965,88.496341 411.26155,88.105299 409.46875,86.3125 409.049,85.892752 408.90153,85.333943 408.6875,84.8125 z M 408.09375,94.5625 407.875,98.71875 C 408.55139,98.8422 409.365,98.959162 410.5,99.09375 422.11872,100.47149 424.52602,99.715662 427.5625,93.84375 429.45651,90.181149 433.97091,61.004031 433.15625,57.65625 432.63678,55.521524 435.33135,44.475232 437.53125,39.75 440.81206,32.703031 440.97473,20 437.78125,20 437.15349,20 436.99187,21.98121 437.375,25.25 437.87145,29.485719 437.48604,31.852375 435.375,37.5 432.30279,45.719025 430.63004,54.804615 429.03125,72 427.67068,86.633321 426.52013,91.127716 423.25,94.65625 421.00266,97.081166 420.47799,97.186369 414.6875,96.53125 410.75571,96.086419 408.8965,95.551237 408.09375,94.5625 z M 430.1875,20.15625 C 429.11864,19.858652 428.81028,21.263024 429.84375,23.53125 430.48309,24.934453 431,28.788379 431,32.0625 431,37.990881 432.07618,39.579596 433.84375,36.25 435.06798,33.943903 433.35235,22.961226 431.46875,21.0625 430.96223,20.551911 430.54379,20.255449 430.1875,20.15625 z M 423.15625,22 C 421.27354,22 421.17283,23.427036 422.90625,25.875 423.92386,27.312083 425.07361,31.3125 425.46875,34.75 425.99803,39.354362 426.60115,41 427.71875,41 428.98188,41 429.09709,40.02894 428.5,35.25 427.79281,29.589868 424.73993,22 423.15625,22 z M 417.3125,34.53125 C 417.00198,34.913237 417.45566,36.658047 418.875,39.5 420.52143,42.796649 421.27497,46.435892 421.65625,53.25 421.94128,58.344102 422.4065,63.175 422.71875,64 423.031,64.825 423.69195,63.297994 424.1875,60.59375 425.44926,53.708305 423.59705,42.542274 420.375,37.65625 418.70458,35.123167 417.62302,34.149263 417.3125,34.53125 z"/>
</svg>
