<?xml version="1.0" encoding="UTF-8"?>
<svg xmlns="http://www.w3.org/2000/svg" viewBox="373.61 11.45 49.51 88.67">
  <path d="M 381.3125 49.6875 L 382.3125 50.21875 L 382.3125 55.0625 L 382.3125 61.0625 L 381.8125 61.625 C 382.6233 62.298548 383.38936 63.347839 383.875 64.96875 C 384.96536 68.60807 384.84449 69.25446 382.53125 72.75 C 380.86788 75.263529 379.79179 78.637324 379.375 82.625 C 378.77762 88.340353 378.92127 88.869079 381.71875 92 C 385.2002 95.896427 387 95.363428 387 90.40625 C 387 86.596465 388.91791 82.14295 391.5 80 C 393.94316 77.972356 401.70821 82.329179 402.5625 86.21875 C 403.33908 89.754464 408.29815 93.608616 413.65625 94.8125 C 419.34404 96.090463 420.86632 95.000026 418.46875 91.34375 C 416.52181 88.374677 413.87176 78.642326 414.46875 76.65625 C 414.65962 76.021248 415.09505 73.3625 415.40625 70.75 C 415.92906 66.360989 415.79859 66 413.78125 66 C 412.58045 66 410.16488 67.389215 408.40625 69.09375 C 404.47622 72.902886 402.61851 72.470471 398.40625 66.71875 C 394.63501 61.569223 393.72642 55.772771 395.5625 48.8125 C 397.28188 42.294656 400.24426 38.961202 402.75 40.78125 C 406.44545 43.465452 412.89336 45.991523 414.5 45.375 C 416.33458 44.671005 416.32304 44.47619 413.40625 33.8125 C 411.58805 27.165199 411.57304 27.067273 413.6875 22.0625 C 416.07677 16.407257 415.54641 15.484925 410.46875 16.4375 C 407.0337 17.081918 400 23.955414 400 26.65625 C 400 28.635865 393.9881 35 392.125 35 C 389.5299 35 387.76942 31.172624 387.21875 24.3125 C 386.6396 17.097529 385.51463 16.408689 381.625 21.03125 C 376.34489 27.306308 375.85832 38.70649 380.59375 45.125 C 381.92337 46.927208 383 48.515022 383 48.65625 C 383 48.692744 381.66798 49.457191 381.3125 49.6875 z M 410.0625 19.53125 C 410.46513 19.780089 410.35761 21.86923 409.84375 24.15625 C 409.00371 27.894984 409.93258 36.064064 411.71875 40.71875 C 412.59483 43.001793 409.54365 42.079319 405.65625 38.875 L 401.84375 35.75 L 397.96875 39.53125 C 395.14266 42.290851 393.82752 44.651595 393.0625 48.21875 C 390.63475 59.538968 392.11998 64.97347 399.59375 72.21875 L 404.46875 76.9375 L 407.53125 73.96875 C 409.22006 72.331896 410.92618 71 411.3125 71 C 411.69881 71 412 73.501343 412 76.5625 C 412 79.623658 412.37122 82.886158 412.84375 83.8125 C 413.31628 84.738843 414.00503 86.9625 414.34375 88.75 C 414.84702 91.40591 414.62843 91.998139 413.21875 91.96875 C 410.55637 91.913245 406.18974 87.842181 404.9375 84.25 C 404.22476 82.205426 402.64115 80.456725 400.625 79.5 C 392.10563 75.457295 387.73337 69.503077 385.5625 58.96875 C 383.82865 50.555054 385.60516 46.139565 394 38 C 397.68712 34.425 401.78898 29.325807 403.09375 26.65625 C 405.41689 21.903122 408.60699 18.631696 410.0625 19.53125 z M 382.96875 24.125 C 383.31895 24.053614 383.62584 24.35872 384.03125 25 C 384.55111 25.822321 384.98795 27.625 385 29 C 385.01204 30.375 385.90725 32.85 387 34.5 C 389.47262 38.23353 389.4773 38.133426 386.71875 41.34375 C 383.94789 44.568402 383.54199 44.60736 381.5625 41.78125 C 379.50111 38.838197 379.49602 28.234596 381.5625 25.5 C 382.20916 24.644264 382.61855 24.196386 382.96875 24.125 z M 385.90625 72.5625 C 387.01159 71.879361 390.00946 74.62074 390 76.3125 C 389.99638 76.960714 389.09275 78.85 388 80.5 C 386.90725 82.15 386.00362 84.205122 386 85.0625 C 385.99638 85.919879 385.44485 87.393482 384.75 88.34375 C 382.97921 90.765458 381 88.607757 381 84.25 C 381 80.980511 384.05652 73.705696 385.90625 72.5625 z "/>
</svg>
