<?xml version="1.0" encoding="UTF-8"?>
<svg xmlns="http://www.w3.org/2000/svg" viewBox="1633.06 13.96 37.77 88.92">
  <path d="M1636.0 40.720838C1636.0 39.925632 1637.35 37.576255 1639.0 35.5C1640.65 33.423745 1642.0 31.243341 1642.0 30.654658C1642.0 30.065975 1640.3337 27.877852 1638.2971 25.792163C1635.6153 23.045838 1635.0571 22.0 1636.2728 22.0C1637.7914 22.0 1643.4555 27.337633 1645.2023 30.414824C1645.6131 31.138441 1644.2225 33.696117 1641.8525 36.576022C1637.4452 41.931636 1636.0 42.955115 1636.0 40.720838Z M1648.3024 97.009741C1642.3721 94.563419 1640.8382 81.794818 1644.8647 68.392187C1647.8226 58.546078 1647.5742 46.541321 1644.3872 45.318345C1643.6566 45.037978 1641.8519 45.757957 1640.3767 46.918298C1636.0524 50.319824 1636.1653 48.200551 1640.5024 44.559331C1645.0393 40.750335 1646.4126 40.891927 1647.9789 45.330175C1650.2915 51.883523 1650.3842 60.368431 1648.2226 67.631136C1644.041 81.680574 1644.494 91.311884 1649.4903 94.585602C1652.9542 96.855205 1655.5397 95.582214 1658.0661 90.363365C1660.564 85.203505 1660.3577 78.057521 1657.478 69.9904C1654.3215 61.147929 1654.2983 47.70941 1657.4321 43.423733C1658.8052 41.546026 1658.9006 41.558003 1661.4194 43.924314C1665.3599 47.62613 1664.7666 50.908764 1660.8051 47.323629C1659.3561 46.012313 1658.6893 45.910689 1657.743 46.856962C1656.0556 48.544396 1656.4469 58.346533 1658.5106 66.085556C1662.4144 80.724793 1662.5821 85.242507 1659.4345 90.965445C1656.1249 96.983123 1652.7197 98.831962 1648.3024 97.009741Z M1647.75 23.459484C1644.2701 20.224168 1643.0285 18.0 1644.7024 18.0C1645.0887 18.0 1646.8724 19.422488 1648.6662 21.161085L1651.9276 24.322169L1655.9819 21.512531C1658.2118 19.96723 1660.2777 18.944405 1660.5729 19.239587C1661.0563 19.722997 1652.8499 27.037885 1651.897 26.972942C1651.6787 26.958061 1649.8125 25.377005 1647.75 23.459484Z M1663.4949 37.640268C1658.5057 30.821466 1658.629 31.215109 1660.5593 28.269136C1662.4468 25.388426 1665.9866 22.089314 1667.25 22.033269C1668.8287 21.963241 1667.883 24.050721 1665.0 27.0C1661.4415 30.64032 1661.4622 30.500849 1664.0 33.727129C1666.0099 36.282264 1666.6515 39.0 1665.2449 39.0C1664.8296 39.0 1664.0421 38.38812 1663.4949 37.640268Z"/>
</svg>
