<?xml version="1.0" encoding="UTF-8"?>
<svg xmlns="http://www.w3.org/2000/svg" viewBox="760.22 12.91 17.28 92.2">
  <path d="M 762.21875 54.4375 L 762.25 54.46875 L 762.25 58.15625 C 762.28583 58.146934 762.57798 58 762.59375 58 C 762.80869 58 763 59.382072 763 61.0625 C 763 62.282739 762.82124 63.043612 762.25 63.75 L 762.25 67.59375 C 762.30164 67.592352 762.73401 67.390259 762.75 67.40625 C 763.07149 67.727748 763.02666 89.13161 762.6875 96 C 762.52188 99.353977 762.66688 99.51103 766.5 100.09375 C 768.7 100.42821 770.95 100.77413 771.5 100.84375 C 772.05 100.91338 773.175 100.55565 774 100.03125 C 775.27683 99.219655 775.49876 95.077978 775.40625 72.28125 C 775.27716 40.470214 774.0991 30.111439 769.90625 23.5 C 766.867 18.707595 764.49639 17.097367 762.90625 18.6875 C 762.32443 19.269323 762.26855 26.140829 762.75 36.5625 C 763.38088 50.21882 763.38122 52.855235 762.21875 54.4375 z M 764.6875 21 C 764.84918 21 766.05498 22.6875 767.375 24.75 C 772.04956 32.053878 773.42357 47.860275 773.0625 89.75 L 773 98 L 770.25 97.875 C 764.696 97.640719 764.01123 97.131952 764.78125 93.6875 C 765.58898 90.074395 765.67085 55.394168 764.90625 34.75 C 764.62616 27.1875 764.52583 21 764.6875 21 z "/>
</svg>
