<?xml version="1.0" encoding="UTF-8"?>
<svg xmlns="http://www.w3.org/2000/svg" viewBox="1358.13 17.27 20.87 24.79">
  <path d="M 1372.6874,36.214335 C 1375.021,34.730553 1376.1137,30.004839 1374.7603,27.249957 1373.0414,23.750983 1370.8321,22.57434 1367.535,23.401855 1364.8435,24.077383 1364.7742,24.264067 1365.2201,29.641148 1365.6735,35.10752 1366.8879,36.969374 1370,36.969374 1370.825,36.969374 1372.0343,36.629607 1372.6874,36.214335 z M 1367,39.33343 C 1362.1701,37.934148 1360.1259,27.99641 1363.6834,23.210146 1366.4345,19.50879 1369.9834,19.273688 1373.8604,22.535947 1376.3824,24.658111 1377,25.937884 1377,29.041841 1377,34.07072 1375.3742,37.508475 1372.3427,38.889728 1369.8237,40.037467 1369.5178,40.062868 1367,39.33343 z"/>
</svg>
