<?xml version="1.0" encoding="UTF-8"?>
<svg xmlns="http://www.w3.org/2000/svg" viewBox="779.44 10.95 57.16 97.22">
  <path d="M809.68148 102.25C809.44138 101.8375 808.51095 98.942426 807.61386 95.816502C806.71678 92.690578 804.86167 88.800618 803.4914 87.172146C800.82618 84.004719 800.31797 81.539554 802.10278 80.43648C803.94081 79.300516 807.98128 69.700308 807.96827 66.5C807.95036 62.094241 804.47156 55.17198 801.62311 53.874137C797.85483 52.157196 794.50533 53.54672 790.43321 58.516206C787.51022 62.083326 786.45091 62.789182 785.36858 61.89093C782.03494 59.124256 785.35399 49.530408 791.51674 44.119449C795.11478 40.960321 795.67718 40.790085 800.77691 41.316424C803.76312 41.624628 806.98288 42.579516 807.93193 43.438397C810.4372 45.70564 811.75441 45.375592 813.47432 42.04966C815.61205 37.915737 815.41475 36.771534 812.0 33.5C808.34382 29.997157 808.01752 25.32576 811.0826 20.366356C813.4335 16.562514 816.60207 15.367283 820.70709 16.735851C823.15286 17.551244 823.5036 18.178088 823.52897 21.779122C823.5449 24.040803 823.83376 26.167094 824.17088 26.504215C824.508 26.841336 826.45527 26.418788 828.49815 25.56522C832.19486 24.020636 834.0 24.204759 834.0 26.126405C834.0 26.681009 833.1755 26.87309 832.16778 26.553252C831.03303 26.193095 829.64169 26.738443 828.51279 27.985864C827.4897 29.116372 825.42677 30.0 823.81057 30.0C820.93731 30.0 820.93253 29.989348 821.58779 25.049731C822.21684 20.307697 822.13362 20.071639 819.60925 19.438063C816.58233 18.678355 814.56425 20.008182 812.40371 24.186198C810.79254 27.301869 811.37621 29.220519 814.90738 32.416176C817.64253 34.891461 817.55398 38.495207 814.62335 43.97435C811.73988 49.365325 810.7792 49.779197 807.87961 46.879606C805.19871 44.198708 796.44415 43.154771 793.95931 45.219681C790.89264 47.768097 787.0 53.737879 787.0 55.892529C787.0 57.915918 787.30121 57.803745 790.68041 54.521911C795.45804 49.881933 798.42094 49.174292 802.94001 51.593902C807.02664 53.781974 810.89433 60.636939 810.95878 65.806087C810.98145 67.624436 809.65 71.833116 808.0 75.158711C804.89446 81.417966 804.29896 84.448699 805.97153 85.482403C807.15989 86.216852 811.0 94.727772 811.0 96.627118C811.0 99.492932 812.93857 97.84437 813.57825 94.43457C814.08207 91.748987 813.69296 89.791645 812.00143 86.502775L809.75572 82.136411L814.33798 75.243714C820.06017 66.636309 821.00895 61.868676 818.08179 56.430874C815.61074 51.840373 815.92869 49.039607 819.80517 41.25C821.94138 36.957388 822.88622 36.0 824.9864 36.0C826.39912 36.0 828.55512 35.299483 829.77749 34.443296C831.14369 33.486374 832.0 33.315394 832.0 33.999526C832.0 34.61164 830.0679 35.96712 827.70645 37.011704C824.74881 38.320009 822.90192 39.982469 821.77065 42.354755C819.0827 47.991453 818.60826 52.472497 820.40852 55.220038C821.55573 56.97091 821.84364 58.98181 821.43932 62.419672C820.73059 68.445852 819.65114 71.282861 815.74519 77.384934C812.68172 82.170848 812.65261 82.329587 814.30917 85.215974C816.62573 89.252343 816.45567 95.526644 813.91844 99.631966C811.87991 102.93038 810.55429 103.74949 809.68148 102.25Z"/>
</svg>
