<?xml version="1.0" encoding="UTF-8"?>
<svg xmlns="http://www.w3.org/2000/svg" viewBox="76.59 12.14 86.13 94.38">
  <path d="M 158.8125,51.0625 152.03125,54.5 C 148.19498,56.431915 144.57991,58 144,58 143.42009,58 140.65821,56.2 137.875,54 135.0918,51.8 132.11479,50 131.25,50 130.38521,50 127.78216,51.113003 125.46875,52.46875 123.15534,53.824497 120.97242,54.659914 120.625,54.3125 119.744,53.431497 119.85181,38.723751 120.75,37.4375 121.56839,36.265541 128.24928,33 129.8125,33 130.36354,33 132.0904,34.578581 133.65625,36.5 137.96164,41.783061 139.5,40.116584 139.5,30.15625 139.5,23.759951 139.13002,21.791304 137.59375,20.09375 134.83794,17.048614 129.57937,17.393843 123.5,21 117.24776,24.7087 115.86288,24.706638 112.21875,21.0625 108.9441,17.787849 103.80043,16.431409 98.4375,17.4375 95.548056,17.979563 94.55988,18.808141 93.34375,21.71875 90.241263,29.144047 94.200243,36.51395 102,37.8125 L 106.5,38.5625 106.8125,44.90625 C 107.25411,54.238076 106.9009,54.682236 101.375,51.59375 98.831366,50.172088 95.715236,49 94.4375,49 91.534862,49 88.208387,53.233673 83.8125,62.53125 80.833525,68.831972 80.509358,70.36934 80.53125,78.5 80.556187,87.762111 82.692228,94.613007 85.28125,93.75 85.91931,93.537313 86.973057,90.022392 87.625,85.9375 89.211441,75.997304 94.147796,65 97.03125,65 97.950398,65 105.4738,76.06105 108.3125,81.59375 109.78819,84.469901 109.74658,84.868956 107.9375,87.84375 105.63132,91.63595 105.41747,97.271648 107.5,99 108.72436,100.01612 109.61556,99.685012 112.53125,97.125 114.48146,95.412694 116.57893,94 117.1875,94 117.79608,94 119.69646,95.565367 121.40625,97.46875 125.68235,102.22902 127.51502,101.69938 127.4375,95.75 127.38893,92.02217 126.7197,90.244725 124.1875,87.09375 122.43364,84.911309 121,82.509275 121,81.75 121,76.233731 128.36221,64 131.6875,64 132.53802,64 135.8597,65.585649 139.0625,67.53125 144.73726,70.978483 144.97109,71.042108 148.4375,69.59375 150.39392,68.776303 153.57478,66.905933 155.5,65.4375 L 157.96875,63.53125 158.25,59.375 C 157.50725,60.497155 156.17542,61.704548 153.75,63.375 147.50832,67.673807 144.5956,67.885426 139.46875,64.40625 134.39773,60.964961 129.54812,60.188041 127.0625,62.4375 124.38669,64.85907 120.04626,74.40545 119.375,79.34375 118.88706,82.933308 119.22136,84.012785 121.875,87.34375 123.56426,89.464196 125.23868,92.76355 125.59375,94.65625 125.94882,96.548949 126.06759,98.276163 125.84375,98.5 125.61992,98.723836 124.17188,97.368232 122.65625,95.46875 119.49956,91.512598 116.87752,91.093044 112.5625,93.9375 110.94681,95.00256 109.30143,95.681733 108.90625,95.4375 107.83644,94.77632 109.0346,90.891226 111.3125,87.625 112.75314,85.559313 113.06148,84.288041 112.375,83.125 111.84878,82.233464 108.95178,77.338927 105.96875,72.25 102.98571,67.161073 99.717847,62.73327 98.6875,62.40625 94.136752,60.961899 87.218859,72.533997 86.25,83.21875 85.667121,89.646843 84.458379,91.529877 83.65625,87.25 82.185905,79.404747 82.015715,74.702927 83.0625,70.8125 84.613557,65.047921 91.723674,53.220983 94.09375,52.46875 95.252381,52.101015 98.281031,53.099027 101.90625,55.03125 105.17354,56.772694 108.29466,57.933105 108.84375,57.59375 110.13819,56.793742 110.16807,39.166126 108.875,36.75 108.19395,35.477452 107.2604,35.09154 105.875,35.53125 102.91379,36.4711 98.100862,34.122838 96.4375,30.90625 93.194951,24.635852 95.44824,20.092294 101.8125,20.03125 105.67207,19.994231 108.2255,21.202608 112.8125,25.1875 L 116.125,28.0625 122.65625,24.53125 C 131.68757,19.653459 134.84221,19.844269 136.96875,25.4375 138.0809,28.362674 137.48345,34 136.0625,34 135.64145,34 134.49549,33.1 133.5,32 132.50451,30.9 130.87863,30 129.875,30 126.77801,30 119.99174,33.151018 118.96875,35.0625 117.63169,37.560819 117.71236,57.696816 119.0625,58.53125 119.64716,58.892588 120.88466,58.531305 121.8125,57.71875 124.93669,54.982758 130.18569,52.827878 132.34375,53.40625 133.52202,53.722031 136.30601,55.571024 138.5,57.5 140.69399,59.428976 143.04556,61 143.75,61 144.45444,61 146.71511,59.929301 148.78125,58.625 150.8474,57.320699 154.00833,55.9519 155.78125,55.5625 157.29683,55.229623 158.10269,55.11018 158.53125,55.375 L 158.8125,51.0625 z M 102.5,24.5 C 100.12884,24.5 99.44577,24.990623 99.1875,26.8125 99.00778,28.080273 99.371686,29.767773 100.03125,30.5625 102.39343,33.408754 108,31.951946 108,28.5 108,25.673329 106.37171,24.5 102.5,24.5 z M 103.71875,26.375 C 104.00637,26.404044 104.25809,26.608579 104.5,27 104.89915,27.645846 104.76875,28.6375 104.21875,29.1875 103.55208,29.854166 102.98382,29.782843 102.5,29 102.10085,28.354154 102.23125,27.3625 102.78125,26.8125 103.11458,26.479167 103.43113,26.345956 103.71875,26.375 z"/>
</svg>
