<?xml version="1.0" encoding="UTF-8"?>
<svg xmlns="http://www.w3.org/2000/svg" viewBox="510 13.01 40.36 89.92">
  <path d="M512.0 42.66639C512.0 41.932904 513.8 39.383029 516.0 37.0C518.2 34.616971 520.0 32.148095 520.0 31.513609C520.0 30.879122 518.425 28.519964 516.5 26.271034C512.74903 21.888873 512.13052 20.0 514.44655 20.0C515.9874 20.0 523.0 29.831442 523.0 31.991675C523.0 32.69824 521.2 35.229108 519.0 37.615826C516.8 40.002544 515.0 42.415368 515.0 42.977657C515.0 43.539946 514.325 44.0 513.5 44.0C512.675 44.0 512.0 43.399875 512.0 42.66639Z M525.58651 97.13998C525.22894 96.561411 525.62018 94.451459 526.45594 92.451197C527.90355 88.986593 527.8577 88.613317 525.48776 84.569321C522.42684 79.346262 522.27809 73.920817 524.9995 66.760727C526.09922 63.867327 526.99922 59.513709 526.9995 57.08602C527.00005 52.277312 524.28755 45.0 522.49464 45.0C521.87839 45.0 520.07796 46.352967 518.49368 48.006593C516.57586 50.008374 515.27942 50.679418 514.61449 50.014487C513.33037 48.730373 522.34639 39.535164 524.19419 40.244391C526.21829 41.021284 529.51119 51.93368 529.40121 57.5C529.34688 60.25 528.32742 65.318949 527.13576 68.764332C524.72658 75.729809 524.99357 78.469156 528.62068 84.0C530.56113 86.95891 530.77924 88.101493 530.03156 91.39071C529.0476 95.719376 526.63616 98.83835 525.58651 97.13998Z M523.19669 25.295495C520.39166 21.474454 519.34075 19.259245 520.01378 18.586224C520.6868 17.913204 521.54211 18.328958 522.60429 19.845432C523.47645 21.090618 525.22074 23.307665 526.48048 24.772205C528.53077 27.155804 528.95447 27.282673 530.52147 25.982182C531.48427 25.18313 533.3741 22.783543 534.72109 20.649766C536.40187 17.987248 537.4934 17.093398 538.2005 17.800497C538.9076 18.507596 538.33521 20.033779 536.37595 22.665411C533.50179 26.525903 528.97732 30.996512 527.94219 30.998779C527.63539 30.99945 525.49992 28.432973 523.19669 25.295495Z M535.94509 92.75C533.78641 89.28634 533.8317 87.895526 536.39278 79.0C538.60529 71.315177 538.39835 67.637725 535.37418 60.898994C533.24475 56.153975 532.83576 53.994065 533.21067 49.47318C533.48035 46.221185 534.34348 43.22795 535.28225 42.289178C536.88884 40.682588 538.05964 41.216267 544.93333 46.68836C545.17167 46.878095 544.91126 47.488739 544.35465 48.045347C543.67197 48.728032 542.47648 48.376041 540.68098 46.963696C539.21706 45.81218 537.51503 45.181691 536.89869 45.56261C535.11999 46.66191 536.38626 56.918176 538.96476 62.296895C541.5429 67.674858 541.36804 73.900625 538.39273 82.6642C536.93412 86.960457 536.93471 87.639881 538.39981 90.712224C541.28774 96.768264 539.41719 98.32109 535.94509 92.75Z M539.28538 37.959258L534.07076 32.095835L537.53538 26.947428C539.44092 24.115805 541.0 21.394242 541.0 20.899511C541.0 20.40478 541.45 20.0 542.0 20.0C543.74256 20.0 543.087 23.175833 540.39692 27.766111L537.79383 32.207937L542.39692 36.556148C546.82917 40.742985 548.35788 44.096312 545.75 43.91134C545.0625 43.862577 542.15342 41.18414 539.28538 37.959258Z"/>
</svg>
