<?xml version="1.0" encoding="UTF-8"?>
<svg xmlns="http://www.w3.org/2000/svg" viewBox="391.52 14.35 16.34 89.89">
  <path d="M394.47616 99.413105C393.81645 99.13668 393.52043 91.784985 393.64383 78.742053C393.74916 67.608924 393.87239 49.660645 393.91767 38.856989C393.98161 23.600571 394.29384 19.101222 395.31579 18.709063C396.03947 18.431359 398.70233 18.437552 401.23326 18.722825L405.83495 19.241501L405.84897 58.854075C405.85936 88.24165 405.55801 98.660593 404.68149 99.218011C403.4385 100.00848 396.22613 100.14636 394.47616 99.413105Z M402.48653 97.021788C402.81905 96.483772 403.1831 79.271272 403.29555 58.771788L403.5 21.5L400.60851 21.169924C399.00614 20.987008 397.3641 21.410882 396.92542 22.120668C395.94839 23.701536 395.66912 96.335789 396.63636 97.303022C397.67587 98.342539 401.79257 98.144638 402.48653 97.021788Z"/>
</svg>
