<?xml version="1.0" encoding="UTF-8"?>
<svg xmlns="http://www.w3.org/2000/svg" viewBox="1407.09 17.91 31.78 67.64">
  <path d="M 1428.8438 31.65625 C 1428.2593 31.116582 1427.6762 29.781781 1427.0938 27.46875 C 1425.7903 22.291886 1423.7824 20.981933 1421 23.5 C 1416.6823 27.40741 1413.237 44.871691 1414.7812 55 C 1415.6431 60.653464 1415.5313 61.988362 1413.875 65.25 C 1412.8286 67.310741 1411.6794 71.135741 1411.3438 73.75 C 1411.0317 76.181098 1410.0587 79.303873 1409.0938 81.125 L 1413.7188 82.46875 C 1413.7956 82.182907 1413.8256 81.938902 1413.9688 81.5625 C 1414.5026 80.158374 1414.6526 79 1414.2812 79 C 1413.9099 79 1414.1525 78.4725 1414.8125 77.8125 C 1416.2636 76.361384 1416.4002 74.634641 1415 75.5 C 1414.4175 75.859983 1414 74.855253 1414 73.09375 C 1414 71.140578 1415.1002 68.83303 1417.0938 66.5625 L 1420.1875 63.03125 L 1418.5 58 C 1415.4137 48.708083 1418.5397 26 1422.9062 26 C 1423.2704 26 1424.4031 28.1375 1425.4062 30.75 C 1427.6343 36.552295 1428.6601 52.912029 1427.1562 58.34375 C 1426.164 61.927831 1426.354 62.554489 1429.5625 67.21875 C 1433.9851 73.64809 1434.162 76.148419 1429.9375 72.59375 C 1427.6458 70.66541 1425.7959 70.033254 1422.6875 70.09375 L 1418.5 70.15625 L 1421.5 71.53125 C 1423.15 72.286772 1425.0824 72.943943 1425.7812 72.96875 C 1426.4801 72.993557 1428.4521 75.006699 1430.1875 77.46875 C 1432.6353 80.941511 1433.6603 81.696259 1434.6875 80.84375 C 1436.8701 79.032377 1436.2085 75.171707 1432.5938 68.59375 C 1430.1871 64.214103 1429.4326 61.942945 1430.0938 60.9375 C 1431.2574 59.167638 1431.0271 40.145928 1429.8125 37.75 C 1429.329 36.796303 1429.4176 35.866705 1429.7812 34.9375 L 1429.3125 34.6875 L 1428.8438 31.65625 z "/>
</svg>
