<?xml version="1.0" encoding="UTF-8"?>
<svg xmlns="http://www.w3.org/2000/svg" viewBox="1426.84 20.56 38.7 75.68">
  <path d="M 1428.8438,31.65625 1429.3125,34.6875 1429.7812,34.9375 C 1430.4299,33.280033 1432.3153,31.613433 1435.9688,29.625 1439.9654,27.449702 1442.1035,26.893403 1445.7812,27.15625 1449.7972,27.443281 1450.761,27.939866 1452.2188,30.5 1454.6808,34.824293 1454.435,35.897419 1450.25,39.53125 1446.3061,42.955712 1446.2328,45.341901 1450.1562,42.59375 1454.2662,39.715029 1455,40.476987 1455,47.53125 1455,53.517031 1454.7947,54.141985 1452.5,55.1875 1449.481,56.563042 1449.2406,58 1452.0312,58 1453.2041,58 1454.4468,58.951457 1454.9688,60.25 L 1455.875,62.5 1455.9375,60.21875 C 1456.0103,57.598011 1458.6083,56.202123 1460.2812,57.875 1461.9856,59.579362 1463,59.229408 1463,56.96875 1463,55.729149 1462.0306,54.581918 1460.5,54 1459.125,53.477226 1457.9459,52.257363 1457.875,51.28125 1457.3984,44.722012 1457.3878,43.365305 1457.7812,42.25 1458.0236,41.5625 1458.8275,41 1459.5938,41 1461.5374,41 1461.3585,39.370013 1459.2188,37.8125 1458.2313,37.093813 1456.6085,34.363421 1455.625,31.75 1453.4852,26.063737 1450.8455,24 1445.75,24 1442.2069,24 1431.8583,28.794897 1430.4375,31.09375 1429.8829,31.991133 1429.3655,32.138003 1428.8438,31.65625 z M 1455.8125,69.6875 C 1455.08,69.646202 1454.4185,69.983286 1453.3438,70.6875 1450.0077,72.873305 1450.4235,74 1454.5625,74 1456.5268,74 1458.8584,74.702143 1459.7188,75.5625 1460.7372,76.580974 1461.6138,76.792455 1462.25,76.15625 1463.5442,74.862012 1462.4509,73.250674 1458.75,71 1457.3638,70.157041 1456.545,69.728798 1455.8125,69.6875 z M 1455.875,81.625 C 1455.6433,81.349153 1455.079,81.976694 1454.125,83.5 1453.0917,85.15 1451.2896,87.292883 1450.125,88.25 1448.9604,89.207116 1448,90.444616 1448,91 1448,92.799731 1450.7013,92.066199 1452.1562,89.875 1453.5136,87.830663 1453.7305,87.813552 1456.75,89.375 1460.9543,91.549165 1462.1457,89.608345 1458.625,86.34375 1457.1813,85.005096 1456.002,83.158992 1456,82.21875 1455.9994,81.929401 1455.9522,81.716949 1455.875,81.625 z"/>
</svg>
