<?xml version="1.0" encoding="UTF-8"?>
<svg xmlns="http://www.w3.org/2000/svg" viewBox="1884.22 52.07 34.28 53.48">
  <path d="M 1894.8125,54.5 1892.4375,57.21875 C 1901.7973,67.040972 1902.0004,67.734169 1903.5938,77.0625 1905.5502,88.516288 1906.0905,89.579255 1910.6875,91.5 1914.7969,93.217034 1916.5001,92.563859 1913.5,90.40625 1908.987,87.160553 1908,85.894087 1908,83.375 1908,81.920928 1907.5801,79.11381 1907.0625,77.125 1906.545,75.136189 1905.5777,71.300157 1904.9062,68.625 1903.9394,64.773324 1901.9075,62.022417 1894.8125,54.5 z M 1888.3438,61.875 1886.2188,64.28125 C 1886.4109,64.495859 1886.4255,64.463892 1886.625,64.6875 1895.7597,74.926343 1900.5166,86.776482 1898.5938,94.4375 1898.2477,95.816383 1897.6243,96.922124 1897.1875,96.96875 L 1897.4062,100.15625 C 1898.0949,99.514688 1898.9885,99 1899.625,99 1903.5218,99 1900.7513,80.048209 1895.5,70.75 1894.4537,68.897269 1891.5073,65.392816 1888.3438,61.875 z M 1906.375,93.21875 C 1905.1573,93.59603 1904.1273,94.820344 1903.0312,96.96875 1901.92,99.146839 1901,101.17184 1901,101.46875 1901,103.1189 1903.1846,101.60204 1904.0312,99.375 1905.0388,96.724775 1906.6321,96.527682 1911.25,98.46875 1913.8672,99.568836 1913.4949,96.463202 1910.7812,94.5625 1908.9908,93.308429 1907.5927,92.84147 1906.375,93.21875 z"/>
</svg>
