<?xml version="1.0" encoding="UTF-8"?>
<svg xmlns="http://www.w3.org/2000/svg" viewBox="728.88 16.51 54.75 86.16">
  <path d="M742.0 97.588418C742.0 95.344842 747.99945 91.574543 751.18346 91.817156C754.55009 92.073684 754.72448 90.826174 751.88034 86.831947C746.96844 79.933824 745.89118 70.283837 748.57989 57.26694C751.74373 41.949798 757.95272 34.855712 765.0037 38.501911C768.80354 40.466885 770.7296 43.439158 771.55522 48.612102C772.43277 54.110496 773.65326 56.035742 774.97082 54.0C776.80702 51.162907 777.22709 44.164926 775.87733 38.898409C774.43812 33.282937 771.9543 31.022308 764.84059 28.85342C759.83848 27.328333 756.66155 28.349016 751.44551 33.15699C747.78121 36.534629 746.57414 38.623533 744.50887 45.161273C741.22876 55.544644 740.57062 62.066235 742.0022 70.0C742.64727 73.575 743.4145 78.839538 743.70713 81.698972C744.23336 86.840956 744.18388 86.955937 739.19241 92.18845C732.99537 98.684757 731.36364 98.14058 737.19057 91.520839C741.93705 86.128557 741.9322 86.17835 739.49685 67.83584C739.04887 64.46173 739.22699 58.874077 739.93741 54.015457C741.12075 45.922566 741.1097 45.832603 738.51411 42.429617C736.66981 40.011614 736.31956 39.0 737.32666 39.0C738.11231 39.0 739.31531 39.675 740.0 40.5C741.81146 42.682672 742.75894 42.366845 744.5 39.0C745.90665 36.279839 745.90217 35.711493 744.45194 32.90707C742.56449 29.257141 743.23622 27.998817 745.82261 30.339464C746.83179 31.252759 748.09627 32.0 748.63257 32.0C750.47554 32.0 756.0 25.403124 756.0 23.202393C756.0 20.506219 756.67766 20.430413 758.83971 22.88473C760.72981 25.030342 768.71419 27.271463 769.56481 25.89514C771.00639 23.562614 772.44042 25.278212 776.87356 34.638954C777.95165 36.915379 779.29635 38.940379 779.86178 39.138954C781.13402 39.585759 777.62454 53.202942 775.12968 57.5C772.14476 62.641149 770.63756 61.372055 769.43894 52.708264C768.31546 44.587561 766.71309 41.869574 762.26665 40.542402C759.1536 39.613221 755.84542 43.180996 752.97555 50.56257C751.09163 55.40819 750.65178 58.526047 750.58357 67.517953C750.50211 78.258275 750.58028 78.661443 753.68602 83.517953C757.72509 89.833919 759.21068 93.760838 758.45808 96.132082C757.73516 98.409787 755.71473 98.514412 752.54607 96.438226C750.34706 94.997383 749.84648 95.037672 746.08125 96.95855C742.80229 98.63135 742.0 98.755169 742.0 97.588418Z"/>
</svg>
