<?xml version="1.0" encoding="UTF-8"?>
<svg xmlns="http://www.w3.org/2000/svg" viewBox="1597.42 30.34 13.9 60.58">
  <path d="M 1605.9062,33.09375 1604.1875,33.71875 1603.2188,35.25 C 1603.8818,35.481082 1604,36.233551 1604,38.21875 1604,40.471473 1603.2666,42.362625 1601.9062,43.59375 L 1599.8125,45.46875 1602.1562,46.03125 C 1605.4507,46.800821 1605.9232,52.076858 1602.9688,55.03125 1601.7905,56.209512 1600.9729,57.252084 1601.1562,57.34375 1601.3395,57.435417 1602.4656,58.055881 1603.6562,58.71875 1605.4161,59.698498 1606.0522,59.623682 1607.0625,58.40625 1608.004,57.271912 1608.0331,56.626825 1607.1562,55.75 1605.2812,53.874967 1605.7013,45.28524 1607.7188,44.15625 1609.3195,43.26046 1609.3122,42.977489 1607.75,39.84375 1607.0499,38.439322 1606.3812,35.731477 1605.9062,33.09375 z M 1605.0625,67.03125 1602.5312,69.375 C 1599.4716,72.210474 1599.4224,72.60719 1602,73.28125 1604.7045,73.988504 1604.6811,79.287137 1601.9375,84.40625 1600.1634,87.716225 1600.0835,88.168533 1601.5,87.625 1602.411,87.275404 1603.793,87 1604.5625,87 1605.6349,87 1605.8252,86.00327 1605.375,82.71875 1605.052,80.362115 1605.2204,76.855446 1605.75,74.9375 1606.2818,73.01159 1606.3587,70.473154 1605.9062,69.25 L 1605.0625,67.03125 z"/>
</svg>
