<?xml version="1.0" encoding="UTF-8"?>
<svg xmlns="http://www.w3.org/2000/svg" viewBox="1292.1 75.07 37.49 26.47">
  <path d="M 1318.928,92.75859 C 1321.8886,89.590691 1324.6825,84.34913 1323.8526,83.519306 1323.6235,83.290195 1320.1474,84.0621 1316.1278,85.234649 1309.7336,87.099937 1308.2513,87.214555 1304.2753,86.151137 1301.7759,85.482656 1299.5305,85.136137 1299.2856,85.381095 1298.1827,86.483953 1302.7309,91.338501 1306.9036,93.512333 1313.0985,96.739644 1315.3386,96.599225 1318.928,92.75859 z M 1309.9333,98.049563 C 1305.1185,96.589095 1298.8601,91.646182 1296.8587,87.723039 1294.9156,83.91422 1294.0984,78.568246 1295.2789,77.387779 1295.6001,77.066552 1297.9835,78.422891 1300.5753,80.401865 1306.5952,84.998405 1311.0933,85.140572 1319.5,81 1322.8,79.374647 1325.895,78.03473 1326.3778,78.022406 1327.5891,77.991487 1326.2697,85.577721 1324.4527,89.091475 1323.6331,90.676316 1321.5744,93.554078 1319.8777,95.486502 1316.7503,99.048395 1314.8451,99.539435 1309.9333,98.049563 z"/>
</svg>
