<?xml version="1.0" encoding="UTF-8"?>
<svg xmlns="http://www.w3.org/2000/svg" viewBox="0.38 13.36 70.34 93.06">
  <path d="M9.4895973 97.689597C5.4303426 93.630343 3.5736448 87.308384 4.3919422 80.33235C5.1585461 73.797007 10.353643 58.978219 13.762437 53.603423C17.457731 47.776887 17.099371 41.0 13.095971 41.0C12.113673 41.0 10.565231 40.177067 9.6549876 39.171259C4.0258686 32.951153 14.359934 19.0 24.596484 19.0C27.539456 19.0 28.967644 21.815331 26.825823 23.394608C24.951568 24.776594 23.0 28.367548 23.0 30.434259C23.0 32.489539 28.881883 32.556575 31.55887 30.531803C35.583979 27.487364 38.484159 29.3245 37.276307 34.153548C36.537856 37.105906 31.198814 44.70973 29.372055 45.410724C25.663596 46.833793 30.498465 53.557845 36.544835 55.386205C39.249264 56.203996 44.570652 50.633033 49.089547 42.253143C52.429829 36.058884 52.443665 35.978895 50.732745 32.753143C47.644328 26.930272 47.527437 23.660915 50.292726 20.446075C52.361932 18.040479 53.467712 17.593665 57.003004 17.734643C62.044867 17.935699 64.626018 19.993904 65.988811 24.899909C67.521802 30.418622 67.221744 32.583021 64.470371 35.852843C63.079075 37.506304 61.113538 41.263445 60.102512 44.202044C55.302112 58.154647 47.900384 67.165239 40.166062 68.471944C36.101536 69.158641 33.867156 68.500468 28.305939 64.978352C26.367472 63.750652 25.859785 63.816591 23.947854 65.544388C20.558258 68.607538 17.0 76.505915 17.0 80.966756C17.0 84.356575 17.324674 85.0 19.035183 85.0C20.154534 85.0 22.067034 84.375508 23.285183 83.612241C24.503332 82.848974 27.155463 81.934593 29.178807 81.580284C32.36346 81.022617 33.343045 81.3623 36.471489 84.109111C39.663171 86.911444 40.37794 87.148829 42.589735 86.141068C45.702246 84.722913 46.0 84.722798 46.0 86.139757C46.0 87.90336 42.77907 89.932947 39.924314 89.968197C38.438797 89.986539 36.354562 88.941865 35.0 87.5C32.063684 84.374435 28.140576 84.269444 22.176086 87.156804C16.297017 90.002812 14.599498 88.967901 14.202903 82.295861C13.950508 78.049756 14.552367 76.033978 18.202903 68.898855C23.163015 59.204109 24.936536 58.298017 30.884389 62.419882C36.37453 66.224552 41.532109 65.948316 46.640162 61.576013C51.19266 57.679244 56.017896 49.158419 58.397164 40.81447C59.516299 36.889727 60.634931 34.933256 62.009193 34.497082C63.477727 34.030988 64.0 32.981783 64.0 30.497712C64.0 23.211826 60.086958 19.008407 54.588971 20.388314C50.983375 21.293261 50.298386 25.004349 52.802678 30.065973C55.166578 34.843841 54.78684 36.900616 50.045436 45.0C45.838874 52.185753 39.190588 59.0 36.386406 59.0C34.319938 59.0 26.923138 53.68461 24.318684 50.328053C22.618427 48.136804 23.701251 46.148998 29.692544 40.462934C35.370007 35.074711 36.634751 32.208779 32.75 33.534686C31.5125 33.957058 28.258964 34.347042 25.51992 34.401317C19.396406 34.522658 18.618457 32.690207 22.093122 26.329533C23.369662 23.992714 24.121605 21.788271 23.764105 21.430771C22.528331 20.194998 15.518233 24.512252 13.263197 27.897883C9.7842426 33.121062 10.234824 36.408042 14.75 38.744071C18.143553 40.499803 18.528408 41.113176 18.798867 45.197053C19.03781 48.805045 18.488818 50.691368 16.060815 54.604944C14.390509 57.297225 11.677398 63.325 10.031678 68.0C5.0042772 82.281351 6.3293845 93.025475 13.638285 97.242789L16.77657 99.053613L21.263013 95.629034C29.494385 89.345885 29.526381 89.341371 35.698472 93.592253C40.630639 96.989166 41.475666 97.258931 44.09141 96.271598C47.531734 94.973021 47.930393 96.234919 44.777494 98.443296C41.514499 100.72879 38.835152 100.36233 34.428139 97.02782C32.267663 95.393121 29.793499 94.043121 28.929999 94.02782C28.066498 94.012519 25.519964 95.575 23.271034 97.5C17.846533 102.14317 13.996143 102.19614 9.4895973 97.689597Z"/>
</svg>
