<?xml version="1.0" encoding="UTF-8"?>
<svg xmlns="http://www.w3.org/2000/svg" viewBox="1222.52 13.58 68.9 100">
  <path d="M1275.3324 99.264048C1274.3246 97.209275 1272.2699 94.84859 1270.7664 94.018081C1268.1806 92.58965 1267.9407 92.639639 1266.3271 94.943316C1260.7942 102.84268 1256.9324 103.11458 1250.8335 96.034202L1246.5561 91.068403L1244.1907 93.284202C1242.8898 94.502891 1241.2126 96.9625 1240.4637 98.75C1238.8389 102.62813 1236.8192 102.89927 1234.615 99.535183C1230.7777 93.678733 1233.742 84.91695 1240.9505 80.808952C1245.3065 78.326557 1245.5484 77.896506 1246.5381 70.873383C1247.1638 66.433077 1247.0457 66.136658 1243.6052 63.512478C1238.9945 59.995679 1237.0 60.717664 1237.0 65.903516C1237.0 68.084972 1236.5611 71.024096 1236.0248 72.4349C1232.8615 80.754862 1225.6548 67.094602 1228.1585 57.524444C1229.3043 53.144573 1235.0331 47.0 1237.9708 47.0C1238.9764 47.0 1242.1888 48.795543 1245.1095 50.990095C1248.0302 53.184647 1250.7873 54.612688 1251.2365 54.163519C1253.2583 52.141731 1253.1931 43.460567 1251.1118 37.558314C1249.9595 34.290387 1248.6115 31.211482 1248.1163 30.716304C1247.5825 30.182538 1245.6275 30.730207 1243.3144 32.061466C1239.7602 34.106992 1239.1495 34.181341 1236.4564 32.896374C1234.1051 31.774516 1233.438 30.745146 1233.197 27.867276C1232.6348 21.151167 1237.8255 19.087885 1245.0579 23.152704L1248.8881 25.305408L1252.4789 22.152704C1257.0678 18.123543 1259.0924 18.18528 1263.8683 22.5C1265.9991 24.425 1268.2158 26.0 1268.7945 26.0C1269.3731 26.0 1271.2504 24.81875 1272.9662 23.375C1276.3293 20.5451 1280.0917 20.001293 1282.4969 21.997445C1284.7899 23.900459 1284.4239 30.576147 1281.8874 33.112574C1279.7519 35.248143 1279.0091 35.267749 1270.8252 33.404563C1268.3962 32.851565 1268.0521 33.149604 1267.0808 36.647802C1265.7911 41.292507 1265.6867 51.956807 1266.9119 53.891719C1267.644 55.047809 1268.2763 54.9549 1270.6466 53.342963C1274.8648 50.474336 1278.7263 49.0 1282.0214 49.0C1286.1925 49.0 1288.2941 53.459344 1288.2941 62.309884C1288.2941 67.917823 1287.9171 69.527357 1286.2016 71.24286C1283.5605 73.88391 1281.8171 72.670669 1280.1217 67.011875C1279.1843 63.882956 1278.4273 63.0 1276.6824 63.0C1272.6404 63.0 1269.9926 65.72568 1270.0703 69.806704C1270.1683 74.957859 1270.9871 76.526037 1274.9817 79.213001C1277.212 80.713226 1279.0794 83.16248 1280.1773 86.027487C1284.4552 97.19057 1280.1219 109.02928 1275.3324 99.264048Z M1235.0 66.610784C1235.0 63.832326 1235.678 61.38429 1236.8475 59.940039L1238.6949 57.65851L1243.5218 60.356269C1248.3167 63.036222 1249.9389 62.784557 1249.9847 59.353592C1250.0067 57.707844 1243.9726 52.645509 1240.0545 51.022588C1236.7892 49.670025 1236.6457 49.718948 1233.3588 53.305518C1230.5994 56.316536 1230.0 57.764724 1230.0 61.420215C1230.0 66.949588 1231.4694 71.0 1233.4752 71.0C1234.61 71.0 1235.0 69.877309 1235.0 66.610784Z M1243.3754 29.516241C1245.6753 27.774699 1245.0798 25.915864 1241.6308 24.070009C1239.3104 22.828155 1238.7955 22.875084 1237.0097 24.491207C1234.7118 26.570804 1234.4814 28.081388 1236.2 29.8C1237.7974 31.397396 1241.0617 31.268307 1243.3754 29.516241Z M1242.6466 92.18397C1245.9128 88.39119 1246.6842 86.798992 1246.28 84.684461C1245.5931 81.090931 1242.9405 81.213344 1239.1399 85.013969C1235.6182 88.535669 1234.5829 91.202054 1235.4288 94.572172C1236.3222 98.131948 1238.0034 97.575685 1242.6466 92.18397Z M1262.725 95.75C1268.2013 89.807703 1269.4998 77.707379 1266.0929 64.363993C1263.067 52.512521 1262.6283 46.379288 1264.3144 39.5C1265.1232 36.2 1266.0875 32.762065 1266.4572 31.860144C1267.2196 30.000427 1260.2738 21.996591 1257.9048 22.004967C1257.1322 22.007699 1255.15 23.094982 1253.5 24.421153L1250.5 26.832371L1252.7502 33.166185C1255.98 42.257437 1255.7486 49.991413 1251.9066 61.352495C1247.0453 75.727916 1247.6632 87.881016 1253.6152 94.954531C1256.666 98.580183 1259.8597 98.859057 1262.725 95.75Z M1286.3251 65.75C1287.6971 60.054102 1283.8697 50.994892 1280.095 51.003738C1276.532 51.012088 1268.1148 57.772249 1268.0333 60.690983C1267.9753 62.767473 1269.9193 63.169949 1272.2208 61.557933C1273.4441 60.70107 1275.6857 60.0 1277.2022 60.0C1279.4121 60.0 1280.3644 60.793925 1282.0 64.0C1284.309 68.526051 1285.5368 69.022829 1286.3251 65.75Z M1279.3895 94.427287C1280.2236 92.253799 1276.1497 83.150502 1273.774 81.87907C1271.4317 80.625474 1271.1994 80.817818 1269.9982 85.006272C1269.1186 88.073207 1269.3297 88.532457 1273.2786 92.142084C1278.0072 96.464445 1278.5324 96.660854 1279.3895 94.427287Z M1281.2964 29.904777C1282.8977 27.345559 1281.3236 23.0 1278.7954 23.0C1276.4791 23.0 1272.0 26.60834 1272.0 28.474314C1272.0 32.01412 1279.2761 33.133715 1281.2964 29.904777Z"/>
</svg>
