<?xml version="1.0" encoding="UTF-8"?>
<svg xmlns="http://www.w3.org/2000/svg" viewBox="973.69 14.38 89.47 93.7">
  <path d="M991.07339 97.628273C986.71074 90.003153 986.92198 86.12483 992.0 80.615826C994.2 78.229108 996.0 75.616312 996.0 74.809614C996.0 73.160024 990.17201 63.982517 989.15576 64.031803C987.25079 64.124191 984.7853 67.273839 983.37267 71.419674C980.40175 80.138838 977.75689 74.30768 980.0073 64.0C981.6112 56.653541 984.5095 52.0 987.48107 52.0C988.75594 52.0 992.13946 53.575 995.0 55.5C997.86054 57.425 1000.6581 59.0 1001.2169 59.0C1001.7756 59.0 1004.0205 57.101812 1006.2055 54.781803L1010.1782 50.563607L1009.8391 41.33014C1009.433 30.27357 1008.6935 29.120964 1003.1744 30.942456C1000.1645 31.935803 998.79356 31.959886 997.09212 31.049299C995.23066 30.053079 994.94168 29.160123 995.19779 25.195867C995.57967 19.284803 997.68195 18.635551 1002.5631 22.921231C1004.4917 24.614554 1006.6642 26.0 1007.391 26.0C1008.1178 26.0 1010.8729 24.350367 1013.5134 22.334149L1018.3144 18.668299L1021.1431 21.834149C1024.5132 25.60595 1024.9652 25.652535 1030.0295 22.75C1034.7234 20.059763 1036.9748 20.929749 1038.4275 25.995159C1039.7177 30.493601 1036.7682 33.04685 1031.1517 32.293524C1026.5474 31.675949 1026.0233 32.772237 1026.0342 43.0C1026.0408 49.219673 1026.2254 49.710596 1030.3134 54.383133C1035.2383 60.012138 1036.3962 60.017277 1043.0721 54.439755C1045.3365 52.54789 1047.7519 51.0 1048.4396 51.0C1053.9666 51.0 1059.0968 70.320369 1054.7312 74.694061C1052.5416 76.887798 1049.3791 75.317846 1049.7208 72.206719C1049.8423 71.101063 1049.2798 69.647137 1048.4708 68.975773C1044.7988 65.92831 1042.1933 74.975633 1045.4174 79.578563C1047.9295 83.165134 1048.3791 88.550611 1046.4706 92.194573C1045.5184 94.012558 1043.8875 97.1875 1042.8463 99.25C1041.629 101.66159 1040.2546 103.0 1038.9957 103.0C1036.5077 103.0 1035.329 98.768084 1036.8731 95.379205C1038.468 91.878702 1038.2699 86.830417 1036.4349 84.21048L1034.8697 81.975947L1029.1849 86.861905C1019.8697 94.868006 1020.2926 94.827532 1011.1317 88.589697C1003.8122 83.605644 1003.0439 83.299196 1001.7097 84.831574C998.71554 88.270411 997.77049 91.308879 998.35918 95.603861C998.79199 98.761541 998.53733 100.31981 997.40314 101.45401C995.03991 103.81723 994.3894 103.42405 991.07339 97.628273Z M995.53816 95.173724C994.74347 91.555527 996.06911 88.12982 999.99356 83.660117C1002.7895 80.475701 1003.3797 80.215891 1005.5605 81.209541C1006.9022 81.82086 1008.0 82.998798 1008.0 83.827182C1008.0 84.655565 1008.2792 85.05416 1008.6204 84.712948C1008.9616 84.371736 1011.7059 85.669474 1014.7188 87.596811C1021.04 91.640455 1020.7079 91.738522 1029.9551 83.097525C1032.9555 80.293886 1035.7588 78.0 1036.1848 78.0C1036.6108 78.0 1037.9224 79.887729 1039.0995 82.194954C1040.8019 85.532101 1041.1262 87.488685 1040.685 91.763287C1040.1865 96.593346 1040.2911 97.003366 1041.7201 95.818333C1042.5944 95.09325 1043.9028 93.081469 1044.6275 91.347709C1045.7454 88.673372 1045.7077 87.498484 1044.379 83.598875C1043.5176 81.070776 1042.4049 78.75025 1041.9064 78.442149C1039.9658 77.242776 1040.9539 70.341795 1043.4523 67.646023C1046.2254 64.65375 1048.1833 64.31106 1050.0 66.5C1051.7457 68.603457 1054.0 68.368394 1054.0 66.082905C1054.0 63.155586 1050.3821 55.36061 1048.729 54.726266C1047.9229 54.416901 1045.0998 55.701933 1042.4556 57.581892C1036.1237 62.083681 1033.9199 61.9502 1028.8828 56.759818C1023.5238 51.237685 1023.0007 49.63162 1022.9963 38.6849C1022.9933 31.293063 1022.6057 28.86554 1021.011 26.25C1018.5916 22.282015 1017.156 22.183922 1013.7367 25.752955C1011.3563 28.237548 1011.1895 28.895546 1012.0257 32.502955C1014.4701 43.047873 1012.9569 50.966177 1007.3863 56.779989C1003.4688 60.868484 1002.7568 61.22222 999.50625 60.694728C997.54085 60.375787 994.09705 58.660891 991.85334 56.883847C986.8485 52.919934 985.21201 53.59256 982.83017 60.592548C980.06889 68.707682 980.49623 70.130609 984.33281 65.595896C987.12107 62.300268 988.04822 61.795286 990.2816 62.355829C993.36388 63.129433 998.0 70.280522 998.0 74.261261C998.0 75.683312 996.425 78.91017 994.5 81.432057C990.62124 86.513504 990.07167 90.304125 992.52568 95.04966C994.4904 98.849003 996.36232 98.926095 995.53816 95.173724Z M1001.9252 27.590095C1002.8531 26.472077 1002.6299 25.854189 1000.8472 24.605504C998.18663 22.741995 996.54911 24.288992 998.10496 27.196118C999.26623 29.365976 1000.3579 29.478562 1001.9252 27.590095Z M1012.0686 76.25C1007.5976 72.100385 1007.5876 67.314531 1012.0375 61.263686L1015.0749 57.133366L1018.7875 58.666269C1023.6695 60.682046 1025.9748 62.788113 1027.661 66.772837C1029.1806 70.363831 1028.5347 72.54066 1024.7007 76.75C1021.6954 80.049614 1015.916 79.820858 1012.0686 76.25Z M1024.4433 74.777494C1026.814 71.392831 1026.3596 67.718676 1023.1953 64.687091C1019.5035 61.150106 1014.8509 61.052364 1012.615 64.464817C1010.1294 68.258339 1010.6042 71.489173 1014.0767 74.411106C1017.933 77.655955 1022.3186 77.810955 1024.4433 74.777494Z M1035.7983 27.402279C1036.2576 24.202798 1033.8369 22.725546 1031.1818 24.585181C1028.5542 26.425683 1028.3487 28.679257 1030.75 29.321113C1033.8539 30.150754 1035.4931 29.527692 1035.7983 27.402279Z"/>
</svg>
