<?xml version="1.0" encoding="UTF-8"?>
<svg xmlns="http://www.w3.org/2000/svg" viewBox="71.57 9.84 30.04 89.21">
  <path d="M78.991451 89.669143C80.646153 86.737172 82.0 83.404748 82.0 82.263757C82.0 81.122766 80.425 78.304075 78.5 76.0C76.575 73.695925 75.0 71.120626 75.0 70.277113C75.0 69.4336 76.39739 66.30107 78.105311 63.315936C80.267053 59.537605 81.051974 57.069765 80.688508 55.194209C79.360895 48.343468 76.585063 39.351533 75.356306 37.921259C73.568461 35.840207 73.620078 33.640232 75.440359 34.33874C76.421192 34.715121 77.243054 33.793568 78.016442 31.450181C79.006587 28.450011 78.886051 27.670596 77.076083 25.369594C74.89472 22.596441 74.346966 20.0 75.943296 20.0C76.462109 20.0 77.573379 20.980525 78.412785 22.178945L79.938977 24.35789L82.288641 21.822561C83.580956 20.42813 85.194191 19.101936 85.873608 18.875464C86.553025 18.648992 87.225109 17.671992 87.367128 16.704354C87.778937 13.898523 89.249754 14.249261 90.301355 17.404066C91.910784 22.232352 95.334974 26.563019 97.25 26.192208C99.347503 25.786064 99.607237 27.553004 97.565217 28.3366C96.451194 28.764091 96.130435 31.122838 96.130435 38.887471C96.130435 44.387632 95.651087 49.783433 95.065217 50.87814C93.484998 53.830806 93.762424 57.279946 96.0 62.5C98.551635 68.452724 98.524166 69.114466 95.394279 77.092025L92.788557 83.733571L94.829619 88.34773C96.101116 91.22216 96.492934 93.19535 95.868809 93.58108C94.637531 94.342052 94.715434 94.431298 92.12292 89.289838C89.38227 83.854598 89.447309 82.044443 92.624553 75.3283L95.249105 69.780451L92.695155 63.343375C90.393787 57.542917 90.272922 56.58951 91.473047 53.703149C94.587669 46.212325 94.242462 32.451045 90.757533 25.179984C88.833838 21.166327 85.17933 21.568793 82.853565 26.050436C79.777142 31.97856 79.400971 40.669173 81.869078 48.794879C84.532374 57.563198 84.524691 57.947731 81.600117 62.257331C77.52869 68.256914 77.512727 69.48182 81.438949 74.623837C83.431831 77.233836 84.995868 80.435288 84.990616 81.893802C84.978435 85.276825 79.399977 95.0 77.471223 95.0C76.343578 95.0 76.711986 93.708132 78.991451 89.669143Z"/>
</svg>
