<?xml version="1.0" encoding="UTF-8"?>
<svg xmlns="http://www.w3.org/2000/svg" viewBox="1805.74 15.05 36.94 86.86">
  <path d="M1818.1042 94.190169C1815.6865 92.705128 1812.8281 90.311013 1811.7522 88.869911C1809.8092 86.267467 1809.8095 86.219131 1811.7947 81.731126C1812.8941 79.245896 1815.19 76.180081 1816.8968 74.918204C1820.3748 72.346785 1820.8617 70.41836 1818.25 69.558867C1817.2875 69.242118 1814.7432 67.493724 1812.5959 65.673547C1807.7424 61.559346 1808.0302 59.668288 1814.6587 52.119632L1819.3832 46.739264L1815.7465 43.4065C1810.1113 38.242236 1809.5922 36.692665 1811.8377 31.738122C1814.1818 26.565919 1821.3815 19.0 1823.9592 19.0C1824.9959 19.0 1827.3645 20.776241 1829.2228 22.947202C1840.1271 35.686404 1840.681 74.955259 1830.1968 92.0C1826.8136 97.500316 1824.2493 97.964743 1818.1042 94.190169Z M1825.5151 65.931151C1825.8858 64.243283 1825.8744 59.727943 1825.4897 55.897062C1824.8348 49.375851 1824.6534 48.972799 1822.6451 49.574601C1819.9318 50.387645 1813.204 56.781829 1812.4015 59.310246C1811.6963 61.532142 1813.2492 63.323203 1818.6681 66.538087C1823.8298 69.600436 1824.7267 69.52094 1825.5151 65.931151Z M1824.4837 34.624562C1824.0548 28.902938 1823.2533 24.625203 1822.4919 23.993301C1820.2337 22.119104 1813.0 30.779029 1813.0 35.356761C1813.0 36.790232 1818.95 43.309326 1821.6461 44.829884C1824.7091 46.557349 1825.2362 44.661533 1824.4837 34.624562Z M1824.1399 87.489235C1825.3997 79.991565 1825.5247 73.681396 1824.4207 73.310124C1823.0296 72.842273 1815.8663 78.512616 1814.2854 81.333096C1812.2527 84.959687 1812.8301 86.859049 1816.75 89.439819C1821.7684 92.743827 1823.326 92.332674 1824.1399 87.489235Z M1831.6798 83.146954C1836.971 65.856787 1836.1428 41.220046 1829.8513 28.75C1826.9451 22.989689 1825.6207 23.930397 1826.4401 31.172927C1827.3129 38.887598 1827.3242 83.860166 1826.4542 87.326533C1826.1008 88.734421 1826.1261 90.394955 1826.5103 91.016608C1827.4865 92.596245 1829.9234 88.886644 1831.6798 83.146954Z"/>
</svg>
