<?xml version="1.0" encoding="UTF-8"?>
<svg xmlns="http://www.w3.org/2000/svg" viewBox="1749.95 14.76 50.94 87.1">
  <path d="M1763.7315 94.375738C1762.9342 90.205212 1764.7742 85.405432 1768.3858 82.234438L1771.723 79.304344L1769.8539 71.944635C1768.826 67.896794 1767.5614 64.161423 1767.0438 63.643809C1765.7134 62.313361 1761.4548 65.3255 1758.7396 69.517472C1756.0456 73.676774 1754.2734 73.93767 1753.3627 70.30905C1752.2698 65.95456 1754.7248 58.896592 1758.7837 54.723907C1761.9246 51.495027 1762.2759 50.697995 1761.2083 49.223907C1756.1317 42.214425 1754.6678 31.800167 1757.7724 24.781693C1759.3137 21.29727 1760.4121 20.154369 1762.6265 19.731058C1766.1434 19.05877 1767.0 19.533557 1767.0 22.15511C1767.0 29.965649 1773.3162 41.0 1777.7871 41.0C1781.1577 41.0 1787.0 30.93359 1787.0 25.12603C1787.0 21.623082 1789.0986 18.716876 1791.0793 19.476936C1796.5124 21.561817 1797.8142 33.77162 1793.5357 42.516487C1792.1411 45.367058 1791.0 48.243378 1791.0 48.90831C1791.0 49.573242 1792.34 51.784757 1793.9778 53.822788C1797.2178 57.854526 1798.5827 62.542107 1797.6263 66.352908C1796.7408 69.880798 1794.1797 70.488451 1792.8155 67.494311C1791.4194 64.430285 1787.1255 61.474464 1785.88 62.720033C1785.3815 63.218458 1784.321 66.745906 1783.5233 70.558806L1782.0728 77.491351L1785.0364 83.574702C1788.3797 90.43749 1788.5798 91.824762 1786.6143 94.512811C1785.2828 96.333763 1785.0859 96.282571 1781.5795 93.203941C1776.8842 89.081421 1774.2165 89.149627 1770.0 93.5C1765.9474 97.68127 1764.4046 97.896801 1763.7315 94.375738Z M1770.5951 89.5C1774.7885 86.654291 1777.7546 86.347139 1780.5589 88.468197C1785.4237 92.147733 1786.4981 89.201875 1781.8686 84.877273L1778.7372 81.952126L1781.117 70.349377C1782.4913 63.648482 1784.047 58.535469 1784.7992 58.246813C1785.5156 57.971914 1787.8524 59.153923 1789.9922 60.873499C1792.132 62.593074 1794.3894 64.0 1795.0087 64.0C1797.6823 64.0 1792.6188 55.290699 1788.3002 52.461022C1785.3249 50.511584 1785.3986 49.643602 1788.9174 45.191362C1790.522 43.161113 1792.3576 39.7 1792.9966 37.5C1795.2712 29.668299 1792.5185 20.670699 1789.9889 27.668718C1786.9228 36.150668 1781.0072 44.0 1777.6809 44.0C1774.2985 44.0 1769.3773 40.172745 1767.7378 36.267058C1766.868 34.195176 1765.573 30.3625 1764.8599 27.75C1764.1468 25.1375 1763.2814 23.0 1762.9367 23.0C1762.592 23.0 1761.4999 23.895113 1760.5098 24.98914C1758.9926 26.665696 1758.7979 28.144242 1759.2708 34.397898C1759.8692 42.310401 1760.8552 44.946125 1764.628 48.718939C1767.1143 51.205178 1767.6907 53.0 1766.0029 53.0C1763.9202 53.0 1757.1061 60.2404 1756.4721 63.127121C1755.494 67.580391 1756.4896 67.693811 1760.9765 63.640239C1768.0238 57.273365 1770.0434 58.745334 1773.1107 72.484306L1774.9003 80.5L1770.4501 84.590962C1768.0026 86.840991 1766.0 89.428491 1766.0 90.340962C1766.0 92.500564 1766.2377 92.457071 1770.5951 89.5Z"/>
</svg>
