<?xml version="1.0" encoding="UTF-8"?>
<svg xmlns="http://www.w3.org/2000/svg" viewBox="1945.73 12.17 33.96 88.96">
  <path d="M 1958.375 46.40625 L 1958.6875 46.46875 L 1958.5 52.21875 C 1959.1278 53.472102 1959.0688 56.095361 1958.3438 56.71875 L 1958.2188 60.125 L 1957.6875 60.84375 C 1957.8943 61.800445 1957.9739 64.052437 1957.7188 67.25 C 1957.063 75.466473 1954.1348 84.678268 1950.4062 90.3125 C 1949.0156 92.413769 1948.0619 94.888069 1948.2812 95.8125 C 1948.5836 97.086086 1950.0632 96.074455 1954.375 91.625 C 1974.0698 71.301352 1977.6904 39.921084 1962.1562 24.25 C 1954.1867 16.210199 1947.728 18.3458 1953 27.28125 C 1954.9948 30.662194 1957.2719 37.612932 1958.3438 43.625 C 1958.5424 44.739545 1958.5593 45.660169 1958.375 46.40625 z M 1954.9375 23.53125 C 1956.3999 22.627465 1961.986 27.645634 1964.9688 32.5625 C 1971.5198 43.361816 1971.4244 58.819561 1964.7188 73.21875 C 1962.8506 77.23047 1960.267 81.4 1959 82.5 L 1956.6875 84.5 L 1957.4375 81.5 C 1962.7979 59.87702 1962.5559 44.621052 1956.625 29.9375 C 1955.2995 26.656038 1954.543 23.775079 1954.9375 23.53125 z "/>
</svg>
