<?xml version="1.0" encoding="UTF-8"?>
<svg xmlns="http://www.w3.org/2000/svg" viewBox="802.74 15.72 49.79 90.39">
  <path d="M808.61636 97.997119C806.62736 95.795535 805.0 93.558734 805.0 93.02645C805.0 92.494166 807.925 89.714713 811.5 86.849888C815.075 83.985062 818.0 81.113121 818.0 80.467798C818.0 79.822474 815.525 76.990949 812.5 74.17552C809.475 71.360091 807.0 68.66135 807.0 68.178318C807.0 66.505247 813.01859 59.0 814.36025 59.0C815.10149 59.0 816.94734 60.148622 818.46214 61.552494C823.19863 65.942125 824.554 64.613217 824.1569 55.968889C823.9682 51.861 823.64513 48.326929 823.43897 48.115398C823.23281 47.903867 821.67466 48.306331 819.97643 49.009763C815.63624 50.807527 814.50672 49.378454 816.09028 44.093C817.20098 40.385806 817.11502 39.540657 815.28951 36.219995C812.63449 31.390448 811.62271 25.57349 812.9925 23.014014C814.51365 20.171727 815.65215 20.491394 818.24081 24.487621C821.10701 28.912317 823.38607 28.91937 826.24081 24.512379C827.48336 22.594187 829.24492 21.019187 830.15539 21.012379C831.06585 21.00557 833.71587 22.591661 836.04431 24.537024C838.37276 26.482387 840.77784 27.913221 841.38893 27.716654C842.00002 27.520088 843.4 25.947205 844.5 24.221359C847.30149 19.825953 848.54137 20.773645 848.253 27.089939C848.11716 30.065473 847.89216 36.398614 847.753 41.163587C847.61385 45.92856 847.20611 50.122453 846.84691 50.483349C846.4877 50.844244 844.33477 50.191111 842.06261 49.031941C839.79045 47.872771 837.49609 47.193402 836.96403 47.522233C836.40898 47.865272 836.24607 50.545369 836.58183 53.810054C837.37653 61.537292 837.77019 62.629809 839.23278 61.167217C841.41202 58.987976 844.81386 59.889398 847.44911 63.344391C848.8521 65.183806 850.0 67.384808 850.0 68.235507C850.0 69.086206 848.2 71.960481 846.0 74.622785C843.8 77.28509 842.0 79.805193 842.0 80.223016C842.0 80.640839 843.57512 83.046208 845.50026 85.56828C847.4254 88.090352 849.275 91.247524 849.61049 92.584218C850.26244 95.181791 847.94358 99.700684 845.47201 100.64912C844.64492 100.9665 840.92963 98.460128 836.49832 94.595372C832.3391 90.967917 828.32182 88.0 827.57103 88.0C826.82025 88.0 823.41328 91.15 820.0 95.0C816.58672 98.85 813.44274 102.0 813.01338 102.0C812.58402 102.0 810.60536 100.1987 808.61636 97.997119Z M821.0 91.5C824.54322 87.925 827.94771 85.0 828.56552 85.0C829.51113 85.0 835.63536 89.791433 843.32732 96.549238C845.75587 98.682852 848.0 97.682565 848.0 94.466461C848.0 92.666911 846.46559 90.375594 843.0 87.0C840.25 84.321416 838.0 81.516959 838.0 80.767872C838.0 80.018785 839.83562 77.627069 842.07916 75.452948C848.10036 69.618053 848.61099 68.279274 845.91136 65.405651C843.13268 62.447879 841.29485 62.374374 838.38848 65.104769C834.6161 68.648736 833.82432 66.804514 834.11405 55.148754C834.37649 44.59119 834.35818 44.497088 831.75761 43.037426C829.38392 41.705109 828.94309 41.741531 827.08451 43.423518C825.82745 44.56114 825.20472 46.098079 825.47725 47.390351C825.72194 48.550658 826.181 52.875 826.49736 57.0C826.81373 61.125 827.3103 65.283473 827.60084 66.241051C828.57261 69.443856 827.04881 70.065551 823.12868 68.065649C821.05932 67.009939 818.77871 65.438286 818.06066 64.573088C815.63522 61.650612 811.0 63.309267 811.0 67.099657C811.0 68.034469 813.50666 71.090261 816.57036 73.890306C822.74291 79.531674 823.06212 81.68447 818.17416 84.706737C813.80903 87.405729 809.0 92.27519 809.0 93.996167C809.0 96.043489 810.94432 98.0 812.97889 98.0C813.84728 98.0 817.45678 95.075 821.0 91.5Z M819.97776 32.127555C819.94483 29.716963 816.4562 25.600016 815.13721 26.415197C813.57525 27.380541 813.71234 29.543048 815.56227 33.120423C816.83528 35.582149 817.39075 35.920595 818.56227 34.948318C819.35302 34.292054 819.98999 33.022711 819.97776 32.127555Z M843.94405 39.300173C842.61829 34.56503 835.29845 25.546886 831.90712 24.470521C829.42315 23.682141 827.45556 25.247474 823.89169 30.847259C820.87423 35.588477 817.33584 45.669169 818.3375 46.67083C818.68154 47.01487 821.07019 45.654677 823.64562 43.648179C826.22105 41.64168 828.95402 40.0 829.71888 40.0C830.48375 40.0 834.1224 41.821191 837.80477 44.047091C844.26195 47.950286 844.51205 48.016171 844.83881 45.900117C845.02516 44.693382 844.62252 41.723407 843.94405 39.300173Z M846.99256 31.01796C847.67192 29.377839 847.91808 27.240339 847.53959 26.26796C846.91455 24.662201 846.67474 24.716589 844.92571 26.860784C842.98745 29.236948 842.43099 32.097656 843.66667 33.333333C844.91818 34.584847 845.75699 34.000899 846.99256 31.01796Z"/>
</svg>
