<?xml version="1.0" encoding="UTF-8"?>
<svg xmlns="http://www.w3.org/2000/svg" viewBox="1755.84 11.95 18.45 93.88">
  <path d="M1758.2896 99.552968C1757.8442 98.757101 1757.8509 92.119601 1758.3045 84.802968C1758.7581 77.486336 1758.8867 59.478415 1758.5902 44.785367C1758.1131 21.137891 1758.2322 17.969425 1759.6279 17.188352C1761.3589 16.219636 1768.6378 17.237807 1770.0456 18.645574C1771.275 19.875046 1772.1921 41.054957 1772.2476 69.5C1772.294 93.331908 1771.7197 98.286239 1768.6874 100.21434C1766.5591 101.56762 1759.1534 101.09657 1758.2896 99.552968Z M1768.8034 28.775045C1769.2024 22.584757 1767.7679 20.0 1763.9334 20.0C1760.2784 20.0 1759.5583 21.568803 1760.4583 27.570397C1760.9618 30.928341 1761.7096 32.348912 1763.32 33.006666C1767.3633 34.658191 1768.4797 33.796663 1768.8034 28.775045Z M1769.5467 95.669787C1769.8684 94.388171 1769.9895 91.350671 1769.8158 88.919787L1769.5 84.5L1765.25 84.192502C1762.2731 83.977118 1760.9893 84.276676 1760.9642 85.192502C1760.9445 85.911626 1760.7915 89.0875 1760.6242 92.25L1760.3199 98.0L1764.6409 98.0C1768.332 98.0 1769.0472 97.660318 1769.5467 95.669787Z M1769.5 75.0L1769.5 68.5L1765.5 68.5L1761.5 68.5L1761.2029 75.309797L1760.9059 82.119594L1765.2029 81.809797L1769.5 81.5L1769.5 75.0Z M1769.0 43.0C1769.0 37.005202 1768.7487 35.998039 1767.25 35.986345C1766.2875 35.978835 1764.4875 35.701351 1763.25 35.369714C1761.0728 34.786242 1761.0 34.994252 1761.0 41.800035C1761.0 49.265227 1761.3327 49.779886 1766.25 49.921053C1768.9956 49.999874 1769.0 49.988836 1769.0 43.0Z M1770.0 59.519052C1770.0 53.496495 1769.8288 52.995129 1767.5791 52.430496C1762.6163 51.184918 1761.5234 52.111102 1761.1949 57.840542C1760.8312 64.184664 1762.0388 66.0 1766.6224 66.0L1770.0 66.0L1770.0 59.519052Z"/>
</svg>
