<?xml version="1.0" encoding="UTF-8"?>
<svg xmlns="http://www.w3.org/2000/svg" viewBox="824.25 18.01 33.75 41.77">
  <path d="M 840.71875 56.78125 L 842.1875 57.78125 C 843.85762 54.551727 845.66093 47.817788 846.25 42.03125 C 846.45468 40.020609 847.05552 39.557675 849.5 39.53125 C 852.2429 39.5016 852.54285 39.157195 853 35.5 C 853.3778 32.477565 853.04842 31.048425 851.65625 29.65625 C 850.61005 28.610049 850.02904 26.990195 850.3125 25.90625 C 850.58705 24.856341 850.41026 24.250999 849.90625 24.5625 C 849.40223 24.874 847.78761 24.198241 846.34375 23.0625 C 842.93711 20.382841 842.19381 20.45449 838.75 23.75 L 835.875 26.5 L 833.1875 23.25 C 831.71297 21.457542 829.825 20.009567 829 20.03125 C 827.81902 20.062289 827.87217 20.29124 829.25 21.09375 C 831.02883 22.12982 834 27.026239 834 28.9375 C 834 30.663603 831.78039 30.130961 829.3125 27.8125 C 826.41831 25.09355 826.2452 27.245201 829.125 30.125 C 830.9379 31.937898 831.05507 32.528583 830 34.5 C 828.40099 37.487789 829.28076 38.765103 833.53125 39.5625 C 836.68434 40.154024 837 40.536256 837 43.65625 C 837 46.128118 835.61696 49.79948 834.15625 52.3125 L 836.15625 53.65625 C 836.93155 52.310439 837.57642 50.597176 838.03125 48.40625 C 839.48249 41.415685 838.74888 38.221667 835.5 37.40625 C 832.26584 36.594528 832.3403 34.807928 835.90625 29.625 C 839.60549 24.248335 841.34589 22.819832 843.28125 23.5625 C 845.42066 24.383466 849.92272 31.426104 850.65625 35.09375 C 851.22893 37.957133 851.11337 38.104229 848.40625 37.8125 C 845.58405 37.50837 845.53352 37.614088 844.84375 43.71875 C 844.23596 49.097943 842.71671 53.463255 840.71875 56.78125 z M 854.5625 22 C 853.76996 22 852.89207 22.349107 852.625 22.78125 C 852.35792 23.213393 853.00288 23.5625 854.0625 23.5625 C 855.12212 23.5625 856 23.213393 856 22.78125 C 856 22.349107 855.35504 22 854.5625 22 z "/>
</svg>
