<?xml version="1.0" encoding="UTF-8"?>
<svg xmlns="http://www.w3.org/2000/svg" viewBox="371.56 16.95 59.17 82.82">
  <path d="M382.04014 93.380323C376.06042 88.348721 374.25462 78.202921 377.70675 69.033433C379.64621 63.881872 385.54808 53.397337 387.02088 52.487097C387.55939 52.154275 388.0 50.323876 388.0 48.419544C388.0 45.593126 387.49486 44.741855 385.25 43.7852C380.42601 41.729439 379.0 39.925732 379.0 35.879809C379.0 31.628998 383.0925 26.037768 388.09878 23.448917C393.39513 20.71007 394.22654 21.338687 393.45673 27.5C392.85508 32.315448 392.98528 33.0 394.50276 33.0C395.45603 33.0 397.80154 31.625413 399.71501 29.945361C403.67299 26.470214 406.34624 26.438879 406.83288 29.861928C407.36123 33.578367 406.25886 36.50768 402.45814 41.486892L398.91577 46.12765L400.93333 49.392119C402.04298 51.187578 404.15007 53.202979 405.61576 53.870788C407.94723 54.93308 408.57474 54.808684 410.63147 52.876489C413.2369 50.428811 417.0 43.26566 417.0 40.753827C417.0 39.861317 416.02868 38.996177 414.82833 38.819551C411.38231 38.312486 411.35434 36.0 414.79422 36.0C419.30736 36.0 420.51226 38.098727 419.0328 43.38285C417.80797 47.757505 409.88524 58.0 407.7262 58.0C405.64317 58.0 398.86941 52.648144 397.43041 49.865436C395.35565 45.853293 395.61022 44.708141 399.45753 40.746694C402.75736 37.348974 404.89485 32.561518 403.66233 31.328998C403.34451 31.011174 401.65262 31.955955 399.90259 33.428511C397.63868 35.333463 395.82337 36.018487 393.61036 35.802943C390.5825 35.508036 390.50429 35.374007 390.6619 30.75C390.86167 24.889359 389.43838 24.597741 385.04677 29.599511C380.81018 34.424723 381.16181 37.868332 386.1291 40.199057C389.31855 41.695593 389.84243 42.463579 390.45349 46.538388C391.10871 50.907738 390.87721 51.579654 386.43569 58.199627C380.17052 67.537706 377.98781 73.434273 378.70916 79.072834C379.37975 84.314722 381.4365 88.702093 384.37399 91.156838C387.32849 93.625794 388.11876 93.47678 393.10927 89.509706C398.05076 85.581604 402.44426 84.963255 405.61236 87.75C410.40708 91.967572 415.38635 93.21365 417.8 90.8C418.73333 89.866667 419.0 89.940227 419.0 91.13102C419.0 91.973081 417.92255 93.238673 416.60567 93.943447C413.90148 95.390684 408.11319 94.046238 405.97951 91.47531C405.33025 90.692998 403.36281 89.783487 401.60742 89.454175C399.02637 88.969967 397.40032 89.538806 393.10742 92.427713C390.1878 94.392471 387.20377 96.0 386.47624 96.0C385.7487 96.0 383.75246 94.821145 382.04014 93.380323Z M387.98681 83.484107C385.92848 81.003967 387.28841 70.324085 390.42684 64.321953C394.0911 57.314189 396.97857 56.376724 403.73882 60.0C409.16047 62.905832 411.69536 62.542976 415.96425 58.25C422.58243 51.594484 427.01706 34.283818 423.98137 26.955023C422.84713 24.216723 422.28948 23.873995 419.59105 24.256767C417.89097 24.497924 415.7125 25.036951 414.75 25.454606C413.52094 25.987928 413.0 25.764731 413.0 24.704814C413.0 23.078732 417.84158 21.0 421.6289 21.0C423.3512 21.0 424.50626 22.072024 426.05511 25.108016C427.81116 28.550169 428.04902 30.279547 427.52257 35.777349C426.73441 44.008234 421.87021 56.814228 418.24915 60.191537C412.52893 65.526701 409.14525 66.135073 402.90329 62.950663C398.13276 60.51692 396.1465 60.958007 393.05661 65.137302C390.90279 68.0505 388.82792 77.983751 389.77791 80.833743C390.17941 82.038245 397.32094 78.90776 398.49117 77.01429C399.69451 75.06724 403.95643 76.022852 407.34722 79.0C409.22646 80.65 411.75462 82.0 412.96535 82.0C416.18412 82.0 414.91259 84.433715 411.48436 84.834614C409.29772 85.090321 407.98787 84.441831 405.92979 82.084614C404.44855 80.388076 402.62088 79.001927 401.86831 79.004281C401.11574 79.006636 398.475 80.354709 396.0 82.0C390.87964 85.403832 389.75319 85.61246 387.98681 83.484107Z M412.56593 31.106674C411.90619 30.039199 416.67224 28.679398 418.0623 29.538504C418.59598 29.868335 418.77373 30.557102 418.45729 31.069098C417.72304 32.257149 413.29442 32.285395 412.56593 31.106674Z"/>
</svg>
