<?xml version="1.0" encoding="UTF-8"?>
<svg xmlns="http://www.w3.org/2000/svg" viewBox="517.73 18.77 27.27 81.47">
  <path d="M528.14671 95.390208C524.91695 93.127995 522.29514 87.84897 521.69255 82.394738C521.16155 77.588491 522.14166 71.386281 525.03851 61.221221C526.0762 57.579975 526.02596 56.685983 524.70129 55.221221C521.82525 52.041011 519.72987 43.914793 520.26571 38.019323C520.87334 31.333979 522.96565 24.0 524.26528 24.0C524.78706 24.0 524.9048 24.7875 524.52692 25.75C522.94375 29.782534 521.8261 39.354667 522.45149 43.525102C522.88028 46.384428 524.41263 49.697455 526.68062 52.668686C530.06852 57.107077 530.1654 57.450953 528.7219 59.914112C526.38388 63.903631 524.0 72.889823 524.0 77.71362C524.0 84.529692 528.24946 93.0 531.66901 93.0C533.79679 93.0 539.92902 88.690777 540.56306 86.75C541.20414 84.787689 543.0 84.361312 543.0 86.171417C543.0 87.838218 534.69191 95.5858 532.20796 96.235367C531.06474 96.534324 529.23718 96.154003 528.14671 95.390208Z M530.48492 77.975601C529.53732 76.442351 530.89445 71.266321 534.11996 64.111685C535.70398 60.598111 537.0 57.320611 537.0 56.828351C537.0 56.336091 535.49156 54.424896 533.64792 52.58125C528.39873 47.332067 527.50308 38.720151 531.25 29.524635C533.43449 24.163556 535.0 22.470539 535.0 25.469206C535.0 26.27727 534.06436 28.733478 532.9208 30.927448C531.3061 34.025315 530.96311 36.042791 531.38552 39.958055C532.0551 46.164453 533.30637 48.738115 537.31094 52.145691L540.42014 54.791381L536.61083 64.415891C532.32055 75.255625 532.33231 78.456963 536.64995 75.060711C540.26979 72.213344 541.19848 73.568963 537.69424 76.585072C534.76321 79.107812 531.56581 79.724525 530.48492 77.975601Z M535.05533 83.25C535.08576 82.8375 536.43576 81.453274 538.05533 80.173942C540.17557 78.49912 541.0 78.245747 541.0 79.268954C541.0 80.050543 540.17707 81.434769 539.17126 82.345012C537.28075 84.055896 534.9582 84.566565 535.05533 83.25Z"/>
</svg>
