<?xml version="1.0" encoding="UTF-8"?>
<svg xmlns="http://www.w3.org/2000/svg" viewBox="1226.52 15.03 51.83 87.24">
  <path d="M1229.541 92.75C1230.3886 88.814228 1232.3992 84.72638 1234.1841 83.310226C1234.9078 82.735966 1237.9174 81.958455 1240.8721 81.582423C1243.8267 81.206392 1246.8806 80.262286 1247.6584 79.484409C1253.9065 73.236395 1251.9639 60.795264 1243.7872 54.69044C1241.2533 52.798588 1241.1432 52.797269 1238.6321 54.628651C1237.2208 55.657893 1235.3552 57.9625 1234.4862 59.75C1231.6208 65.643966 1228.8758 62.695715 1230.9093 55.908349C1232.2731 51.356311 1237.3038 45.215185 1240.7387 43.909228C1243.4055 42.895349 1250.6718 45.981025 1251.6557 48.54518C1253.0784 52.25258 1257.0 48.617524 1257.0 43.591422C1257.0 41.783748 1256.1399 40.606573 1254.0169 39.508753C1252.3762 38.660319 1250.3512 36.64611 1249.5169 35.032733C1247.5576 31.243767 1247.55 24.618363 1249.5032 22.997386C1250.7599 21.954375 1251.6314 22.45431 1254.8199 26.047234C1259.423 31.234342 1261.0 30.696893 1261.0 23.940983C1261.0 19.626763 1261.26 19.0 1263.0497 19.0C1268.506 19.0 1273.9136 24.059052 1275.0397 30.21719C1275.9926 35.428126 1274.3801 39.865714 1270.6442 42.313584C1269.1984 43.260899 1266.8394 46.356815 1265.402 49.193398C1263.093 53.75005 1262.9173 54.780729 1263.8943 58.04143C1265.494 63.380927 1265.2667 67.271313 1262.9539 74.13676C1261.1695 79.433689 1261.0856 80.484717 1262.2974 82.355214C1263.0617 83.534846 1263.9896 86.423884 1264.3594 88.775298C1265.2178 94.234049 1263.6009 95.026157 1258.5695 91.611723C1254.2341 88.66966 1251.2241 89.227637 1249.1954 93.349412C1246.7564 98.304903 1244.7853 95.760046 1247.1103 90.657325C1249.1304 86.223666 1256.1291 85.163827 1258.4619 88.938317C1258.8228 89.522243 1259.7665 90.0 1260.559 90.0C1262.8673 90.0 1262.2245 86.49727 1259.3975 83.670234L1256.795 81.067742L1258.9079 77.649078C1260.0699 75.768813 1261.516 71.764295 1262.1213 68.75015C1263.0575 64.088628 1262.9643 62.727094 1261.4978 59.636697C1259.7909 56.039524 1259.8058 55.924193 1262.9989 48.002613C1265.3216 42.240545 1266.9365 39.6517 1268.7698 38.750859C1272.832 36.754867 1273.5 34.857649 1272.0121 29.543187C1271.0422 26.079149 1270.0275 24.580752 1268.1744 23.876189C1264.7647 22.579852 1263.0 23.441805 1263.0 26.403516C1263.0 30.055485 1261.2492 34.0 1259.6283 34.0C1258.8467 34.0 1256.8243 32.425 1255.1341 30.5C1251.5717 26.442582 1250.0 26.068235 1250.0 29.277139C1250.0 31.953342 1255.1817 38.0 1257.475 38.0C1258.3483 38.0 1259.3016 38.622254 1259.5934 39.382787C1260.2251 41.028879 1257.4674 50.983872 1255.7244 53.349526C1254.6188 54.85017 1254.1279 54.67964 1250.6653 51.591927C1248.5562 49.71121 1245.4564 47.603261 1243.7769 46.907597C1240.8426 45.69218 1240.5724 45.80453 1236.8617 49.782654C1232.1141 54.872249 1231.822 57.000272 1236.3444 53.550891C1240.5458 50.346309 1242.4559 50.347612 1246.6648 53.557932C1250.7444 56.669545 1254.0084 62.764352 1253.9761 67.210162C1253.8994 77.788659 1249.3522 83.971477 1241.0632 84.767953C1235.1995 85.331376 1232.0 88.28509 1232.0 93.134859C1232.0 95.079043 1231.4923 96.0 1230.4205 96.0C1229.1617 96.0 1228.9832 95.340301 1229.541 92.75Z M1238.4672 92.063412C1240.0201 89.060447 1242.0 87.1988 1242.0 88.741618C1242.0 90.69483 1239.4085 94.984955 1238.2243 94.992198C1237.2457 94.998183 1237.3023 94.316096 1238.4672 92.063412Z"/>
</svg>
