<?xml version="1.0" encoding="UTF-8"?>
<svg xmlns="http://www.w3.org/2000/svg" viewBox="716.3 19.14 51.61 84.98">
  <path d="M 765.1875,49.75 C 764.24112,48.958423 763.81887,47.69844 763.21875,44.75 762.6312,41.863297 761.47631,37.925 760.65625,36 758.58516,31.138351 752.22249,24 749.96875,24 748.9396,24 746.90577,25.575 745.4375,27.5 743.03252,30.653095 740.01191,32.180607 740,30.25 739.99347,29.191096 734.06793,23 733.0625,23 732.60498,23 730.39744,25.810094 728.15625,29.25 723.46969,36.443218 721.54789,43.562431 720.09375,59 718.6451,74.379313 721.49356,90.889855 726.6875,97.0625 L 729.375,100.25 731.9375,97.3125 C 733.34336,95.692261 735.4,93.141591 736.5,91.65625 L 738.5,88.96875 743.65625,93.96875 C 747.0437,97.272182 749.34383,98.801946 750.375,98.40625 753.39013,97.249236 761,83.063184 761,78.59375 761,75.488701 763.3221,67.134461 764.6875,64.78125 L 764.625,63.90625 765.125,58 C 765.05361,57.643399 765,57.283034 765,56.84375 765,56.202795 765.19875,55.802196 765.375,55.375 L 765.5625,53.0625 765.1875,49.75 z M 749.4375,27 C 751.61328,27 757.57609,35.17726 759.28125,40.5 762.06439,49.187706 762.90427,56.177772 761.96875,63.03125 760.26637,75.502482 758.00369,83.444421 754.59375,88.9375 752.72231,91.952196 750.76346,94.56843 750.21875,94.75 749.67404,94.931571 747.94801,93.961089 746.375,92.59375 743.92655,90.465426 743.68751,89.862547 744.75,88.3125 754.50024,74.088021 756.48641,56.747539 749.875,43.625 748.24999,40.39962 746.27016,37.113905 745.46875,36.3125 744.66735,35.511094 744,34.274042 744,33.5625 744,31.703308 747.8931,27 749.4375,27 z M 733.46875,27.5625 C 734.07353,27.712559 734.79904,28.354652 736.125,29.625 739.21618,32.586543 739.84838,35.447317 737.59375,36.3125 735.35032,37.173383 730.06822,48.921494 728.875,55.71875 727.62452,62.842116 729.32642,72.834081 733.59375,83.40625 L 736,89.3125 733.4375,92.65625 C 730.63923,96.324963 729.80139,96.669779 728.15625,94.6875 724.9027,90.767216 723.38254,84.827423 721.90625,70 721.09736,61.875768 721.28382,58.907006 723.0625,49.5 725.05564,38.958818 727.70851,32.416488 731.625,28.5 732.37921,27.745788 732.86397,27.412441 733.46875,27.5625 z M 741,37.25 C 741.49203,37.12698 741.95852,37.171938 742.40625,37.34375 743.22825,37.659181 744.97479,39.598726 746.28125,41.6875 752.25562,51.239293 753.39708,62.70093 749.5625,74.6875 747.75722,80.330628 746.13841,83.525822 744.34375,84.9375 741.15523,87.445591 739.7619,87.520668 737.78125,85.25 735.19302,82.282801 734.079,79.416515 731.96875,70.53125 730.09839,62.65601 730.02733,61.428139 731.3125,55.21875 733.25568,45.830139 737.55579,38.111143 741,37.25 z"/>
</svg>
