<?xml version="1.0" encoding="UTF-8"?>
<svg xmlns="http://www.w3.org/2000/svg" viewBox="1654.43 12.51 50.63 91.66">
  <path d="M1670.4405 95.622657C1664.18 88.132997 1659.9895 73.738789 1658.0322 53.0C1656.7268 39.16819 1660.4981 19.0 1664.39 19.0C1666.5965 19.0 1666.9054 19.993455 1667.0612 27.58938C1667.2581 37.192277 1669.7136 58.018434 1671.7079 67.0C1673.3415 74.35714 1675.9505 79.383291 1678.6795 80.43051C1682.6111 81.939191 1690.4236 57.347964 1692.4772 37.0C1693.8493 23.404479 1697.1499 16.674613 1699.9133 21.838073C1701.6611 25.103792 1702.7582 39.245482 1702.0206 49.0C1701.1595 60.386941 1699.1364 67.833702 1692.2306 85.035194C1691.6708 86.42955 1688.876 90.36705 1686.0199 93.785194C1681.5422 99.143965 1680.3636 100.0 1677.4632 100.0C1674.7145 100.0 1673.4306 99.199679 1670.4405 95.622657Z M1684.1295 92.75C1691.0169 85.521106 1698.4038 66.750742 1699.5522 53.560027C1699.7945 50.777012 1700.215 46.475 1700.4866 44.0C1701.2271 37.252168 1699.8255 28.5 1698.0045 28.5C1697.0401 28.5 1696.2667 29.920528 1695.8268 32.5C1695.4516 34.7 1694.6216 39.65 1693.9824 43.5C1690.9565 61.725376 1684.3952 81.767262 1680.3576 85.118217C1678.9899 86.253259 1678.4256 86.019237 1676.3847 83.470582C1671.7371 77.666837 1670.806 74.57476 1666.5537 50.820403C1665.6992 46.046625 1664.982 37.496625 1664.96 31.820403C1664.9207 21.690306 1664.8897 21.555319 1663.2785 24.5C1660.4539 29.662668 1659.2389 43.810134 1660.5838 55.879144C1661.9879 68.48063 1663.0811 73.40654 1666.5512 82.768431C1669.4254 90.522443 1674.6022 97.0 1677.925 97.0C1679.1587 97.0 1681.8116 95.182863 1684.1295 92.75Z"/>
</svg>
