<?xml version="1.0" encoding="UTF-8"?>
<svg xmlns="http://www.w3.org/2000/svg" viewBox="437.83 11.24 48.6 92.72">
  <path d="M455.0283 95.030295C452.03341 91.82425 447.70711 81.168182 445.44963 71.437146C440.03653 48.103589 442.88241 15.453836 449.73228 22.303713C450.94976 23.521186 451.56132 26.927795 452.14042 35.717811C452.81251 45.919236 453.98982 53.291418 458.01438 72.5C460.41163 83.941642 462.86808 85.428875 466.27286 77.5C470.9755 66.548738 474.83631 49.005106 475.59904 35.121629C476.25626 23.158596 476.68406 21.0 478.39773 21.0C481.54228 21.0 484.22105 34.237419 483.43869 45.910431C482.95064 53.192271 480.85303 65.099203 478.91814 71.570998C478.41316 73.260047 478.0 75.341553 478.0 76.196568C478.0 78.414264 473.38139 88.562638 470.73682 92.155793C466.03907 98.538579 459.4345 99.74715 455.0283 95.030295Z M463.79736 94.920798C471.1249 92.366404 479.22413 69.867741 481.00583 47.117786C481.74596 37.667284 480.5221 24.96532 479.03573 26.6708C478.63826 27.12686 477.79169 32.675 477.15447 39.0C476.51725 45.325 475.57767 52.075 475.06652 54.0C471.04158 69.157875 469.60475 73.836709 467.54351 78.497535C465.09821 84.026788 462.34239 86.44768 460.08303 85.051315C458.55706 84.108216 453.54019 64.882106 451.98048 54.0C451.38925 49.875 450.58927 41.55 450.20276 35.5C449.65737 26.963268 449.18021 24.5 448.07195 24.5C447.28652 24.5 446.23525 25.85 445.7358 27.5C444.37232 32.004389 444.55864 57.924727 445.99899 64.115422C449.40368 78.748901 453.42132 89.081386 457.32758 93.25C460.30822 96.43083 459.82422 96.30584 463.79736 94.920798Z"/>
</svg>
