<?xml version="1.0" encoding="UTF-8"?>
<svg xmlns="http://www.w3.org/2000/svg" viewBox="2114.55 15.7 23.65 85.42">
  <path d="M2121.7181 94.076805C2117.6316 89.220312 2116.5488 83.833987 2117.9836 75.5C2118.6465 71.65 2120.3127 66.077803 2121.6864 63.117341C2124.0515 58.020551 2124.1034 57.542566 2122.6646 54.117341C2119.3353 46.191506 2120.0119 34.02141 2124.1571 27.267893C2126.362 23.675796 2131.5224 19.586824 2132.8307 20.395338C2133.295 20.682333 2132.9936 23.706265 2132.1608 27.115187C2130.5088 33.877232 2131.2366 41.321919 2134.5526 51.581426L2136.1949 56.662852L2132.7288 63.581426C2128.9538 71.116735 2126.9028 80.825955 2127.5325 88.180449C2127.827 91.619743 2127.4626 93.442124 2126.1584 95.052723L2124.3836 97.244547L2121.7181 94.076805Z M2126.2465 82.25C2126.7363 72.309036 2127.0593 70.94651 2130.5378 64.145552L2134.2994 56.791104L2132.7447 51.645552C2129.6131 41.281111 2128.7809 35.909395 2129.462 30.457563C2130.2693 23.996076 2129.2434 23.51894 2125.7904 28.75C2121.6071 35.087457 2121.3361 45.395268 2125.1078 54.708653C2126.2816 57.607046 2126.15 58.477298 2123.7465 63.708653C2119.3358 73.308856 2118.5522 82.462925 2121.5685 89.151997C2124.5361 95.732964 2125.6641 94.068729 2126.2465 82.25Z"/>
</svg>
