<?xml version="1.0" encoding="UTF-8"?>
<svg xmlns="http://www.w3.org/2000/svg" viewBox="3938.48 14.95 96.93 89.1">
  <path d="M 4019.8139,27.243125 C 4020.026,25.041482 4019.6378,23.798249 4018.6156,23.406004 4016.8696,22.735986 4011,25.903382 4011,27.515608 4011,29.590756 4013.5093,31.088284 4016.4951,30.79508 4019.0818,30.541067 4019.5437,30.046729 4019.8139,27.243125 z M 3971.1313,91.875 C 3970.9284,91.11875 3970.5365,88.623413 3970.2602,86.329807 3969.8077,82.572809 3970.1897,81.60675 3974.1158,76.579807 3976.5126,73.510913 3979.1546,71.033132 3979.9868,71.073626 3980.8191,71.11412 3983.4125,73.380768 3985.75,76.110623 3989.7996,80.839991 3990,81.378699 3990,87.536997 3990,91.091649 3990.4173,94 3990.9274,94 3991.8484,94 3997,83.979475 3997,82.187878 3997,80.671822 3991.8182,71.654926 3989.8299,69.711045 3988.8234,68.72712 3988,67.175052 3988,66.262005 3988,64.082444 3997.7074,55 4000.0369,55 4002.4259,55 4007.6877,59.495364 4009.5785,63.151812 4011.6041,67.068848 4013,65.886121 4013,60.252863 4013,54.988456 4010.2794,50.186956 4005.7957,47.538395 4002.4631,45.569749 4002.4833,45.839296 4004.9894,36.795653 4007.1375,29.044064 4007.2154,29.420098 4002.1407,23.049291 3999.8927,20.22715 3998.456,20.90227 3995.0899,26.362418 3993.4192,29.072538 3993.2999,30.128429 3994.2149,34.112676 3996.23,42.887802 3993.5881,47.777518 3984.1452,52.75 3980.9,54.458866 3980.9531,54.471368 3973.8217,50.320097 3962.7875,43.897033 3962.6987,43.762636 3963.3616,34.5 3963.9273,26.594427 3963.9002,26.473527 3961.0675,24.257188 3956.5279,20.705276 3955.4311,20.643018 3951.9644,23.740467 L 3948.7393,26.622153 3950.8058,31.293831 C 3951.9424,33.863253 3953.1809,38.023371 3953.558,40.538537 3954.1207,44.290769 3953.8928,45.505398 3952.2881,47.305783 3948.5332,51.518553 3945,58.849621 3945,62.42807 3945,67.189683 3946.2647,66.930348 3949.4364,61.518392 3953.6529,54.323367 3957.8047,53.206638 3964.1051,57.572832 3966.147,58.98789 3968.3682,61.474811 3969.0411,63.099323 3970.5889,66.835844 3969.7034,73.677989 3966.8747,79.840618 3964.2543,85.549314 3964.339,88.667457 3967.1969,91.709611 3969.4835,94.143514 3971.7653,94.239438 3971.1313,91.875 z M 3966,93.457527 C 3964.075,91.000808 3962.3398,88.512217 3962.144,87.927323 3961.9482,87.342429 3962.966,84.238952 3964.4057,81.030708 3965.8455,77.822463 3967.4271,73.03713 3967.9204,70.396634 3968.7066,66.1881 3968.551,65.263807 3966.6587,62.905603 3965.4714,61.426032 3962.9597,59.462189 3961.0772,58.541508 3957.8309,56.953858 3957.5247,56.96438 3955.139,58.74556 3951.2365,61.659178 3948.8444,65.395311 3947.5057,70.66747 3946.8308,73.325362 3945.8785,75.399907 3945.3893,75.277571 3944.9002,75.155236 3944.1367,71.422802 3943.6926,66.983274 L 3942.8853,58.911405 3947.5093,51.218072 C 3952.4128,43.059953 3952.7341,40.36034 3949.5546,34.034555 3946.5775,28.111491 3946.7606,26.352874 3950.7474,22.574128 3952.8113,20.617899 3955.4546,19.013444 3956.6214,19.008674 3957.7882,19.003903 3960.5998,20.6875 3962.8694,22.75 L 3966.9961,26.5 3965.7994,33.224072 C 3964.6537,39.661201 3964.6991,40.050774 3966.862,42.353089 3969.4149,45.070556 3980.2077,51 3982.6011,51 3984.803,51 3992.8485,45.052631 3993.5235,42.926031 3993.8307,41.957922 3993.3821,38.147304 3992.5265,34.457992 L 3990.9708,27.750152 3994.7354,23.46927 C 3996.8059,21.114785 3999.1009,19.146001 3999.8353,19.094194 4000.5698,19.042387 4002.5651,20.575 4004.2693,22.5 4007.2899,25.91181 4010.2825,26.969971 4011.4712,25.046561 4011.7953,24.522169 4013.3602,23.16764 4014.9487,22.036495 4017.5822,20.161282 4017.9765,20.119371 4019.4185,21.561363 4021.3926,23.535481 4021.4969,30.34274 4019.5774,31.935772 4018.7811,32.596637 4016.0295,32.980739 4013.3274,32.808217 L 4008.5,32.5 4006.6982,37.934083 4004.8964,43.368166 4008.0734,45.854557 C 4013.7616,50.306268 4016.8956,61.589562 4013.9648,67.065741 4012.3108,70.156347 4010.7252,69.315368 4007.1885,63.471638 4002.9951,56.542818 4000.1964,56.166356 3994.7029,61.792163 3992.6663,63.877852 3991,65.880293 3991,66.242031 3991,66.603769 3992.2915,68.834795 3993.8699,71.199868 3995.4483,73.564941 3997.3213,77.139157 3998.0319,79.142572 3999.2463,82.565874 3999.1066,83.243084 3995.7113,90.392572 3992.8946,96.323902 3991.6337,98 3989.9887,98 3987.9996,98 3987.9037,97.594101 3988.3147,90.914245 3988.7285,84.187626 3988.5899,83.617429 3985.5806,79.664245 3981.3131,74.058172 3979.0449,73.892875 3975.08,78.899008 3971.9634,82.834029 3971.9199,83.036114 3972.5919,90.452043 3973.2245,97.433276 3973.1341,97.997158 3971.3879,97.962144 3970.3496,97.941323 3967.925,95.914245 3966,93.457527 z M 4007,98.736652 C 4007,98.04181 4008.4799,95.22931 4010.2888,92.486652 4012.0976,89.743993 4015.0865,84.575 4016.9307,81 4018.775,77.425 4020.8494,73.825 4021.5404,73 4022.2315,72.175 4024.2351,68.8 4025.9928,65.5 4029.6278,58.675708 4031.0003,56.907419 4030.9993,59.05 4030.9989,59.8475 4028.8052,64.186883 4026.1245,68.693073 4023.4437,73.199262 4019.5555,80.174262 4017.4839,84.193073 4013.7423,91.451887 4008.3172,100 4007.452,100 4007.2034,100 4007,99.431493 4007,98.736652 z"/>
</svg>
