<?xml version="1.0" encoding="UTF-8"?>
<svg xmlns="http://www.w3.org/2000/svg" viewBox="3612.6 13.44 61.23 88.9">
  <path d="M3618.0926 84.173101C3615.3822 79.108508 3618.2556 67.023883 3623.624 60.910263C3624.833 59.533391 3624.6292 58.458953 3622.1024 52.886049C3620.4977 49.347087 3618.6933 43.792321 3618.0924 40.542126C3616.9081 34.135427 3616.63 22.127813 3617.607 19.581787C3618.3554 17.631392 3621.0 17.482146 3621.0 19.390303C3621.0 23.284822 3633.4017 44.994253 3635.6287 44.998067C3636.2495 44.99913 3637.2109 43.7625 3637.7653 42.25C3638.3196 40.7375 3640.2942 35.225 3642.1533 30.0C3644.8764 22.346627 3645.9174 20.5 3647.5089 20.5C3649.5169 20.5 3650.2812 23.038908 3652.7732 37.988364C3653.9159 44.843537 3656.046 44.359871 3660.2312 36.294923C3662.1705 32.557715 3664.3162 27.7 3664.9994 25.5C3667.3892 17.80444 3669.4515 18.267436 3670.5672 26.75C3671.046 30.390576 3670.9116 32.0 3670.1288 32.0C3669.508 32.0 3669.0 30.65 3669.0 29.0C3669.0 27.35 3668.6401 26.0 3668.2002 26.0C3667.7603 26.0 3665.6228 29.703516 3663.4502 34.230035C3659.7766 41.883771 3655.1468 48.0 3653.0268 48.0C3652.5295 48.0 3651.8479 45.8625 3651.5122 43.25C3650.2407 33.354057 3648.4053 24.905922 3647.4836 24.706749C3646.2636 24.443105 3642.3337 32.41574 3641.4241 37.0C3640.5753 41.277575 3637.2926 48.0 3636.0525 48.0C3634.2111 48.0 3628.8177 40.238694 3624.4022 31.234676C3619.2994 20.82893 3617.3941 20.087649 3618.3688 28.887168C3619.5677 39.711694 3620.8391 44.617721 3624.3504 51.967978L3627.8916 59.381102L3625.6639 61.608862C3619.8359 67.436819 3616.3125 80.721016 3619.9916 82.994834C3621.115 83.689122 3621.1996 84.200385 3620.3343 85.065719C3619.4689 85.931052 3618.9155 85.710681 3618.0926 84.173101Z M3621.0 81.693418C3621.0 80.370575 3625.4289 72.0 3626.1289 72.0C3626.5306 72.0 3625.6898 74.1375 3624.2606 76.75C3621.3426 82.083762 3621.0 82.603223 3621.0 81.693418Z M3632.6667 97.333333C3630.676 95.342689 3632.6699 88.916464 3636.1703 86.041404C3637.9758 84.558409 3637.9847 84.191799 3636.4045 76.366557C3634.2839 65.865131 3633.576 64.764298 3630.9547 67.891663C3629.8521 69.207077 3628.7544 70.087717 3628.5153 69.848641C3627.6279 68.961256 3632.9872 63.781095 3634.2795 64.277025C3635.5344 64.75855 3640.0 80.781674 3640.0 84.80262C3640.0 85.804315 3638.65 87.621981 3637.0 88.841879C3635.35 90.061777 3634.0 91.946403 3634.0 93.029937C3634.0 95.420768 3634.7426 95.47396 3638.9335 93.383296C3640.9746 92.365047 3643.4376 91.971604 3645.5871 92.320425C3649.0998 92.890451 3650.148 91.547956 3647.9255 89.325481C3647.1595 88.559456 3647.6984 85.702817 3649.8028 79.375481C3651.4263 74.493967 3653.3359 68.575346 3654.0463 66.222991C3654.7567 63.870636 3655.6568 62.070636 3656.0465 62.222991C3657.8194 62.916182 3666.0 73.573624 3666.0 75.190231C3666.0 77.470992 3666.8849 77.490677 3668.6869 75.25C3669.9423 73.688976 3670.0238 73.877951 3669.4418 77.0C3669.0829 78.925 3668.3564 80.95 3667.8273 81.5C3666.5745 82.802338 3664.0 79.396942 3664.0 76.437479C3664.0 73.5275 3656.3728 64.906729 3655.6502 67.0C3650.1148 83.035798 3648.8952 89.199155 3651.0 90.5C3651.55 90.839919 3652.0 92.268936 3652.0 93.675594C3652.0 95.965762 3651.7125 96.161232 3649.25 95.545231C3642.0337 93.740057 3640.0948 93.79631 3637.1455 95.896413C3633.8867 98.216856 3633.6319 98.298597 3632.6667 97.333333Z M3642.0 62.0C3639.6118 59.611802 3639.4405 55.982609 3641.5257 51.95034C3643.33 48.461101 3644.8046 48.271859 3648.3651 51.07258C3651.1961 53.299374 3651.7657 56.855949 3650.0248 61.4349C3648.8147 64.617555 3644.8937 64.893673 3642.0 62.0Z M3649.5431 58.803789C3650.1353 56.107412 3649.8263 55.247303 3647.5668 53.303789C3644.1583 50.371934 3643.1761 50.406552 3642.0 53.5C3640.9321 56.308812 3642.0987 60.481397 3644.1854 61.316178C3647.4098 62.60612 3648.857 61.927454 3649.5431 58.803789Z M3668.1362 67.783927C3667.8729 64.465648 3664.6965 59.182743 3662.3113 58.095961L3659.9002 56.997404L3662.3592 53.748702C3663.7116 51.961916 3665.4974 48.925 3666.3275 47.0C3667.3944 44.526011 3667.859 44.086292 3667.9123 45.5C3667.9537 46.6 3667.3155 48.788938 3666.4938 50.364307C3664.5168 54.15502 3664.6057 55.808335 3667.0597 60.887411C3668.1925 63.232099 3668.9288 66.129123 3668.6959 67.32524C3668.4123 68.78154 3668.2274 68.933073 3668.1362 67.783927Z M3668.5689 38.348435C3669.493 33.241838 3670.0 32.861316 3670.0 37.274316C3670.0 39.258524 3669.5213 41.177819 3668.9362 41.539418C3668.2119 41.987084 3668.0947 40.968876 3668.5689 38.348435Z"/>
</svg>
