<?xml version="1.0" encoding="UTF-8"?>
<svg xmlns="http://www.w3.org/2000/svg" viewBox="3525.65 12.86 83.26 91.02">
  <path d="M 3530.9375 54.71875 L 3530.8125 54.9375 L 3530.25 59.59375 C 3530.8176 58.673524 3532.6088 59.129629 3535 61 C 3536.375 62.075541 3538.175 62.958576 3539 62.96875 C 3540.8484 62.991545 3546.8637 59.42236 3549.2812 56.875 C 3551.4675 54.571334 3553.4541 54.513993 3559.125 56.59375 C 3571.4216 61.103448 3572.5967 60.47475 3571.6875 49.71875 C 3571.3514 45.743268 3570.6495 41.147408 3570.125 39.5 C 3569.6005 37.852591 3568.8892 34.209674 3568.5625 31.40625 C 3568.0702 27.181879 3568.3331 25.854875 3570.0625 23.65625 C 3572.7389 20.253792 3574.956 20.307674 3578.3438 23.84375 L 3581.0625 26.65625 L 3579.9375 38.5625 C 3578.8425 50.329272 3579.2822 58.419075 3581.0312 59.5 C 3581.5272 59.806452 3582.7339 59.649388 3583.7188 59.125 C 3594.5629 53.351179 3596.6709 52.968387 3599.8125 56.3125 C 3601.5565 58.168869 3602 59.836049 3602 64.75 C 3602 71.442143 3600.9069 73.305107 3599.1875 69.53125 C 3596.5804 63.809378 3586.825 61.424462 3582.9375 65.5625 C 3580.2295 68.445051 3580.7022 72.001819 3584.5312 77.625 C 3587.6358 82.184019 3587.4084 86.895154 3583.875 90.65625 C 3581.0936 93.616877 3575.7731 93.770078 3571.2812 91.03125 C 3567.4216 88.677891 3566.1895 84.81007 3567.9688 80.5625 C 3568.677 78.871996 3569.4938 75.818688 3569.75 73.78125 C 3570.1375 70.699121 3569.7456 69.672518 3567.4688 67.5625 C 3562.427 62.889991 3555.129 61.873236 3549 65 C 3546.8438 66.1 3543.5868 67 3541.75 67 C 3538.2 67 3530.5971 62.668825 3530.1562 60.5 L 3529.4375 66.34375 C 3530.222 65.811626 3531.1566 66.236318 3534.25 67.78125 C 3540.0925 70.69914 3543.9422 70.567332 3549.9688 67.3125 C 3554.4619 64.885825 3555.2613 64.748537 3558.8125 65.8125 C 3566.9975 68.264776 3570.1861 73.52266 3566.4688 78.4375 C 3565.6612 79.505121 3565 82.131371 3565 84.28125 C 3565 87.363778 3565.6995 88.886956 3568.2812 91.46875 C 3576.5576 99.745039 3587.8622 95.385766 3588.3125 83.75 C 3588.4701 79.678936 3587.8859 78.252619 3583.6875 72.625 C 3583.2322 72.014648 3583.327 70.2625 3583.9062 68.75 C 3584.7394 66.57469 3585.5993 66 3588.0312 66 C 3592.7904 66 3596.8428 68.566076 3597.7812 72.1875 C 3598.952 76.705235 3600.7829 76.78356 3602.625 72.375 C 3605.124 66.393981 3604.1258 57.784466 3600.5 54 C 3598.9198 52.350559 3597.1471 50.984277 3596.5625 50.96875 C 3595.9779 50.953224 3592.7112 52.422793 3589.3125 54.21875 C 3585.9137 56.014708 3582.7637 57.112487 3582.3125 56.65625 C 3581.1278 55.458498 3581.5686 35.004273 3582.8438 31.8125 C 3583.7873 29.450629 3584.3204 29.180848 3587.25 29.65625 C 3591.4202 30.332985 3593.2529 28.400149 3592.8125 23.8125 C 3592.4213 19.736179 3589.3844 18.929682 3584.4375 21.59375 L 3581.1562 23.375 L 3578.1875 20.1875 C 3576.5502 18.434821 3574.9214 17 3574.5938 17 C 3574.266 17 3572.1644 18.678657 3569.9062 20.71875 C 3565.8083 24.420949 3565.7851 24.424756 3562.8125 22.71875 C 3556.6579 19.186491 3551.8005 22.101537 3553.375 28.375 C 3554.2076 31.692507 3557.0242 32.445712 3561.5312 30.5625 C 3563.555 29.716902 3565.5893 29.226865 3566.0312 29.5 C 3566.755 29.947304 3567.3758 33.139372 3570 49.4375 C 3570.4371 52.15225 3570.5585 54.96475 3570.2812 55.6875 C 3569.6146 57.42475 3566.1721 57.333771 3562.6562 55.5 C 3561.0981 54.687267 3558.0485 53.554011 3555.875 52.96875 C 3552.114 51.956025 3551.736 52.088184 3547.75 55.5 C 3542.0011 60.420832 3540.0307 60.69402 3535.0625 57.40625 L 3530.9375 54.71875 z M 3589.7188 22.21875 C 3590.7874 22.481412 3591.5 23.428048 3591.5 25 C 3591.5 27.917659 3588.5206 28.821637 3585.6875 26.75 C 3583.9522 25.481121 3583.9331 25.354157 3585.8438 23.625 C 3587.2097 22.388789 3588.6501 21.956088 3589.7188 22.21875 z M 3557.9062 23 C 3560.595 23 3563.271 26.322728 3561.7812 27.8125 C 3560.3325 29.261241 3556.3552 29.383782 3555.5 28 C 3554.4463 26.295053 3556.0266 23 3557.9062 23 z "/>
</svg>
