<?xml version="1.0" encoding="UTF-8"?>
<svg xmlns="http://www.w3.org/2000/svg" viewBox="556.82 15.84 35.77 85.65">
  <path d="M 590.59375 31.15625 C 589.80188 31.508082 589.24264 31.153835 588.3125 30.1875 C 580.54683 22.119673 571.75386 19.735187 566.46875 24.28125 C 562.69446 27.527759 561.9339 36.975985 564.78125 45.625 C 567.20963 53.001355 566.86027 56.905988 562.90625 65.71875 C 559.16507 74.057142 558.82461 84.934372 562.09375 91.6875 C 563.96269 95.548214 567 97.598822 567 95 C 567 94.45 566.62272 94 566.15625 94 C 564.09524 94 561.78125 85.951756 561.78125 78.78125 C 561.78125 72.488962 562.22916 70.460118 564.875 65.21875 C 568.41557 58.20491 568.97866 51.052357 566.5625 43.78125 C 562.55443 31.719464 565.00751 24 572.8125 24 C 579.64949 24 590.17213 32.461619 588.5625 36.65625 C 588.01202 38.090764 587.47823 37.900816 584.71875 35.28125 C 580.40943 31.190424 577.54002 30.405725 574.34375 32.5 C 571.58585 34.307046 571.55251 34.675545 573.53125 50.5 C 574.06015 54.729678 573.69616 56.625655 571.03125 62.84375 C 569.29861 66.886554 568.09486 70.438615 568.375 70.71875 C 568.85504 71.198792 570.28465 68.266987 574.53125 58.1875 C 576.28492 54.025081 576.28159 53.590885 574.53125 44.96875 C 572.55839 35.250511 573.11489 32.951746 577.375 33.03125 C 579.17991 33.064934 585.49097 38.202334 587.875 41.15625 L 590.59375 31.15625 z M 569 74 C 567.33275 74 567.85358 78.461187 570.53125 86.9375 C 571.93017 91.365892 573.57133 95 574.15625 95 C 574.7773 95 574.92138 94.271966 574.5 93.25 C 571.6968 86.451368 570 80.544793 570 77.53125 C 570 75.592509 569.55 74 569 74 z "/>
</svg>
