<?xml version="1.0" encoding="UTF-8"?>
<svg xmlns="http://www.w3.org/2000/svg" viewBox="953.59 15.42 63.64 89.23">
  <path d="M958.21567 94.25C957.03946 91.628096 956.53536 87.79257 956.53996 81.5C956.54554 73.856111 956.94906 71.633596 959.21794 66.75C961.68639 61.43686 962.14048 61.001669 965.19468 61.021962C967.0126 61.034041 970.46164 61.934041 972.8592 63.021962C978.54274 65.600929 979.83211 65.517121 980.58438 62.519832C981.57199 58.584863 980.62596 43.224999 979.31529 41.914838C978.40259 41.002485 977.17636 41.112397 973.97442 42.393559C968.92966 44.412073 963.58359 43.671279 961.47554 40.661614C959.49774 37.837915 959.5142 28.648069 961.5 27.0C962.325 26.315311 963.0 25.145585 963.0 24.400608C963.0 22.245681 967.68142 19.703225 970.39516 20.384331C971.72051 20.716973 974.8539 23.26813 977.35825 26.053567L981.91161 31.117998L987.58071 27.308999C998.46585 19.9954 999.61311 19.476806 1002.5747 20.531247C1009.0608 22.840502 1012.1103 34.206294 1008.4777 42.532171L1006.7465 46.5L1004.2432 40.807097C1001.4698 34.499748 1000.1376 33.52455 996.53634 35.165395C992.09119 37.190744 991.07638 41.211517 991.71869 54.253432C992.3687 67.451606 992.49368 67.607263 999.09465 63.440249C1003.8761 60.421823 1006.6179 60.574599 1009.1402 64.0C1014.3352 71.055222 1014.0417 94.796624 1008.747 95.811726C1006.7537 96.193882 1006.6852 96.024411 1004.9835 86.5C1002.823 74.408225 999.86384 71.322676 995.19445 76.293019C991.60851 80.110076 990.54164 84.500428 992.28412 88.269579C994.8261 93.768149 995.12804 95.648843 993.66395 96.863937C992.59714 97.749305 991.70248 97.553811 989.73364 96.00512C986.49806 93.460016 983.80017 93.458339 981.5 96.0C980.50451 97.1 979.09334 98.0 978.36406 98.0C976.20361 98.0 975.65762 93.392692 977.40336 89.89326C978.28151 88.132965 979.0 86.14138 979.0 85.467516C979.0 83.731654 972.23787 72.712624 970.61541 71.804647C967.47241 70.045737 964.61645 76.655806 963.40199 88.5C962.30264 99.221465 961.06264 100.59624 958.21567 94.25Z M981.5 94.0C983.39281 91.908469 988.4358 91.278095 989.5 93.0C989.83992 93.55 990.81093 94.0 991.65779 94.0C992.93937 94.0 992.84564 93.403546 991.09878 90.44284C988.43345 85.925455 988.46467 84.959308 991.46152 79.216756C994.33485 73.710883 998.17482 70.603322 1000.9978 71.499317C1002.8701 72.093533 1005.5112 78.738272 1007.4571 87.75C1009.1805 95.730812 1011.678 87.709234 1010.5564 77.795747C1010.1777 74.44879 1009.1738 69.975537 1008.3254 67.855185C1006.4336 63.127162 1004.1559 62.873849 996.8452 66.578443C994.04663 67.996587 991.3943 68.784087 990.95114 68.328443C990.50798 67.872799 990.07288 62.775 989.98425 57.0C989.69616 38.228195 989.70816 38.137991 992.92308 34.923077C997.22708 30.619074 1001.1825 30.911924 1004.0921 35.75C1007.0817 40.721165 1006.9871 40.638967 1007.9421 39.093638C1008.9747 37.422857 1008.2387 30.30459 1006.7087 27.164686C1006.0828 25.880264 1004.3132 24.179106 1002.7763 23.384336C999.54509 21.713399 998.99814 21.924745 989.13373 28.655877C985.63228 31.045145 982.40053 33.0 981.95206 33.0C981.50359 33.0 978.98606 30.728563 976.35756 27.952362C972.40029 23.772742 971.06417 22.955907 968.58786 23.202362C966.41938 23.418179 965.06533 24.414284 963.66227 26.825873C961.51283 30.520326 961.09871 37.209081 962.88606 39.362714C965.03815 41.955823 969.72901 42.105665 974.60436 39.737038C979.04591 37.579163 979.21201 37.569459 980.54326 39.390045C983.26911 43.117867 984.07528 50.955502 982.59257 59.313442C981.8302 63.610835 980.95117 67.382164 980.63916 67.694171C980.32715 68.006179 977.6932 67.339747 974.78594 66.213212C966.62611 63.051362 964.49116 62.794798 962.74463 64.766174C958.72605 69.302133 956.48431 84.600131 959.2008 88.949923C960.30865 90.723873 960.501 90.587361 961.68574 87.186354C962.39202 85.158859 962.97666 82.189536 962.98494 80.587858C963.00549 76.61381 967.58403 69.0 969.95326 69.0C971.79023 69.0 977.0 74.247787 977.0 76.098166C977.0 76.617759 978.19727 78.852079 979.6606 81.063322L982.3212 85.083763L980.1606 88.928036C976.73199 95.028426 977.59879 98.310785 981.5 94.0Z M967.70885 35.375516C966.3684 34.035062 967.00261 30.307614 968.85662 28.629759C970.47757 27.162821 970.86754 27.135472 971.92888 28.4143C973.82311 30.696718 972.87682 35.44606 970.45885 35.792183C969.33622 35.952883 968.09872 35.765383 967.70885 35.375516Z M971.5 32.5C971.5 31.491667 970.9375 30.479167 970.25 30.25C969.45833 29.986111 969.0 30.811111 969.0 32.5C969.0 34.188889 969.45833 35.013889 970.25 34.75C970.9375 34.520833 971.5 33.508333 971.5 32.5Z"/>
</svg>
