<?xml version="1.0" encoding="UTF-8"?>
<svg xmlns="http://www.w3.org/2000/svg" viewBox="2461.09 15.05 32.53 85.85">
  <path d="M 2463.5312 79.1875 L 2463.3125 84.875 C 2463.3765 83.861767 2464.6215 83.432168 2467 83.78125 C 2468.7457 84.037463 2471.2448 83.673957 2472.5625 82.96875 C 2477.3409 80.41144 2480.1409 67.131054 2479.125 51.96875 C 2478.5548 43.458678 2478.1564 41.949075 2475.25 37.5625 C 2471.353 31.680703 2471.0204 27.24656 2474.25 24.25 C 2478.0983 20.679307 2482.0519 20.926832 2486.0625 24.9375 C 2489.7034 28.578372 2489.826 31.970788 2486.5 38.21875 C 2484.2705 42.406808 2484 44.088987 2484 53.875 C 2484 72.223904 2481.8315 83.185293 2476.8125 90.25 C 2474.2205 93.898517 2471.3697 93.690659 2466.625 89.5 C 2464.3513 87.491816 2463.2485 85.888233 2463.3125 84.875 L 2463.0938 90.15625 L 2466.1875 92.84375 C 2470.2525 96.412856 2474.7964 97.000837 2477.2188 94.25 C 2480.1851 90.881364 2483.8416 82.309338 2484.9688 76.09375 C 2485.5941 72.645227 2486.1419 63.684539 2486.1875 56.1875 C 2486.2623 43.877555 2486.5267 42.130108 2488.6562 38.125 C 2491.548 32.686472 2491.6247 28.766261 2488.9688 24.46875 C 2487.0585 21.377995 2482.6744 18.956832 2479.0938 19.03125 C 2475.6202 19.103443 2469.9974 25.867953 2470 29.96875 C 2470.0014 32.328579 2470.8315 34.251319 2475.2188 41.84375 C 2477.5519 45.881382 2478.5118 58.809662 2477.0625 67 C 2474.6619 80.566467 2472.7776 83.061474 2466.5312 81 C 2465.3382 80.60626 2464.4147 80.057019 2463.5312 79.1875 z "/>
</svg>
