<?xml version="1.0" encoding="UTF-8"?>
<svg xmlns="http://www.w3.org/2000/svg" viewBox="3850.31 12.36 83.83 90.16">
  <path d="M 3856.7812,52.71875 3856.0312,55.875 3856.8125,56.21875 3861.4062,53.0625 C 3866.9023,49.281106 3868.5739,46.705894 3866.5938,45.0625 3862.9685,42.053795 3860.8501,28.661205 3863.1875,23.53125 3864.96,19.641145 3866.4221,21.021042 3867.2188,27.34375 3868.7183,39.246009 3871.2568,44 3876.1562,44 3878.5568,44 3885.6483,33.745003 3887.6562,27.375 3888.5736,24.464619 3889.6988,22.311079 3890.1562,22.59375 3892.6086,24.109375 3889.4996,39.551959 3885.5,45.65625 3883.0881,49.337258 3883.6993,51.371039 3888.1875,54.28125 3894.317,58.255697 3896.7461,57.884073 3901.625,52.21875 3903.8907,49.587729 3906.702,45.549312 3907.875,43.25 L 3910,39.0625 3907.9062,35.0625 C 3904.9945,29.476361 3904.3645,23.791703 3906.4062,21.75 3907.2905,20.865792 3907.9861,19.539285 3907.9688,18.8125 3907.915,16.565834 3903.0107,22.981853 3903,25.3125 3902.9944,26.51933 3903.971,30.348799 3905.1875,33.8125 3907.33,39.912479 3907.3326,40.21065 3905.625,43.3125 3904.6553,45.073799 3902.0821,48.487211 3899.9062,50.90625 L 3895.9688,55.28125 3891.375,52.9375 C 3888.8467,51.637168 3886.5843,50.064228 3886.3438,49.4375 3886.1032,48.810772 3886.8578,46.676425 3888.0312,44.6875 3892.6784,36.811226 3894.1244,22.013329 3890.5312,19.03125 3889.4526,18.135984 3888.898,18.313957 3888.0625,19.875 3887.4742,20.974354 3887,22.603302 3887,23.5 3887,26.896688 3882.604,35.632027 3879.2812,38.84375 L 3875.8125,42.1875 3873.4375,39.9375 C 3870.5302,37.206191 3870.2293,36.386288 3869.0625,27.09375 3867.9094,17.910301 3866.6926,16.460032 3863.4688,20.46875 3859.5687,25.318599 3859.2624,32.282144 3862.5625,40.53125 L 3865.2812,47.40625 3861.9375,50.1875 C 3859.9178,51.873637 3858.3788,52.675929 3856.7812,52.71875 z M 3914.7812,19.46875 C 3914.4924,19.179957 3913.4785,20.162924 3912.5,21.65625 3910.2545,25.083356 3909.4026,32.034132 3910.9062,34.84375 3912.0537,36.987897 3914,37.799188 3914,36.125 3914,35.637869 3913.3556,33.966179 3912.5625,32.4375 3910.9214,29.274305 3911.4958,24.420876 3913.8125,21.75 3914.6503,20.784128 3915.0701,19.757543 3914.7812,19.46875 z M 3854.5625,62.125 3854.125,63.96875 3854.875,64.34375 3860.9375,61.125 C 3864.27,59.348776 3867.4043,58.127269 3867.9062,58.4375 3870.0135,59.739887 3870.0813,66.811986 3868.0625,74.71875 3865.3772,85.236045 3866.2649,91.188523 3871.1562,95.34375 3874.1105,97.853417 3875.0426,98.112197 3879.375,97.625 3882.063,97.322731 3884.988,96.433175 3885.875,95.65625 3889.1091,92.823762 3891.4264,92.885174 3895.0312,95.90625 3897.3359,97.837571 3898.6993,98.422719 3899.125,97.65625 3900.2444,95.641254 3901.2951,76 3900.2812,76 3899.763,76 3897.1975,78.25 3894.5938,81 3889.104,86.7983 3886.1569,87.357096 3882.4375,83.34375 3879.617,80.300434 3879.2214,74.986036 3881.5,71 3882.286,69.625 3882.9493,67.102083 3882.9688,65.40625 3882.9882,63.710416 3883.2696,62.07412 3883.5938,61.75 3883.9178,61.42588 3886.7303,62.512712 3889.8438,64.15625 3896.6219,67.734398 3901.0776,68.119904 3904.0938,65.4375 3906.23,63.537566 3913.048,53.510264 3917.625,45.53125 3919.142,42.886746 3921.0351,41.161412 3923.2188,40.4375 3925.3679,39.725043 3927.1976,38.103953 3928.5,35.71875 3930.2836,32.452318 3930.3302,31.89275 3928.9688,30.53125 3927.6072,29.169751 3927.0433,29.23492 3923.75,31 L 3920.0938,32.96875 3918.5312,30.75 C 3917.037,28.616703 3917,28.625595 3917,30.59375 3917,31.711007 3917.5754,33.40957 3918.2812,34.375 3919.4953,36.035381 3919.7052,36.015044 3922.1875,34.0625 3926.6506,30.551778 3930.2509,31.782349 3927.4062,35.84375 3926.573,37.033383 3924.8637,38 3923.625,38 3920.4492,38 3918.0796,40.02213 3915.625,44.78125 3912.7435,50.368168 3904.727,62.200623 3902.6875,63.875 3900.6532,65.545184 3897.9568,64.913168 3889.3438,60.84375 3885.7777,59.158875 3882.6211,58.035208 3882.3125,58.34375 3882.004,58.652292 3881.6122,61.043045 3881.4375,63.65625 3881.2628,66.269454 3880.3618,70.106511 3879.4375,72.15625 3878.3146,74.646461 3877.9722,77.030402 3878.4062,79.34375 3880.1169,88.462133 3887.7252,90.973966 3894,84.5 3895.8658,82.575 3897.7454,81 3898.1875,81 3899.2702,81 3899.1907,91.143403 3898.0938,92.875 3897.3708,94.016177 3896.7299,93.952187 3894.2188,92.46875 3891.2818,90.733869 3891.0378,90.743724 3886.1562,92.84375 3879.2398,95.81908 3875.7474,95.614903 3871.7812,92.0625 3868.6506,89.25838 3868.5126,88.861808 3868.6875,82.3125 3868.7878,78.55491 3869.3503,74.231884 3869.9375,72.6875 3871.4456,68.720845 3871.2718,58.740516 3869.6562,56.53125 3868.3728,54.775973 3867.9518,54.892075 3861.1562,58.5625 L 3854.5625,62.125 z"/>
</svg>
