<?xml version="1.0" encoding="UTF-8"?>
<svg xmlns="http://www.w3.org/2000/svg" viewBox="3154.35 10.78 58.11 90.01">
  <path d="M3172.9412 93.890224C3172.0582 92.240199 3172.1893 90.769275 3173.5429 87.140224C3174.4949 84.588101 3175.8631 81.816111 3176.5835 80.980246C3177.9217 79.427425 3177.7084 77.774996 3174.9721 68.5C3172.3735 59.691629 3169.7198 60.841072 3165.4169 72.638706C3163.4891 77.924423 3162.2558 80.003287 3161.1718 79.794409C3156.9869 78.988055 3158.1268 66.89052 3163.4432 55.687151C3165.7497 50.826778 3166.885 47.213009 3166.4932 45.978725C3166.0214 44.492091 3166.2417 44.155521 3167.3965 44.598673C3170.2201 45.682164 3170.295 48.86069 3167.5733 52.095284C3166.158 53.777275 3165.0 55.744782 3165.0 56.467521C3165.0 57.19026 3164.1099 59.743234 3163.022 62.140796C3161.0056 66.58435 3160.2896 74.0 3161.8769 74.0C3162.3591 74.0 3163.7062 71.8625 3164.8704 69.25C3166.0346 66.6375 3168.084 63.181599 3169.4245 61.57022C3172.8402 57.464367 3174.3217 59.055608 3177.9802 70.75981L3180.9523 80.267952L3178.4762 83.210701C3177.1143 84.829213 3176.0 87.295679 3176.0 88.691735C3176.0 91.204701 3176.0263 91.212781 3178.6376 89.501797C3180.4685 88.302175 3182.4566 87.932029 3185.1376 88.291631C3188.5992 88.755923 3189.0 88.583204 3189.0 86.62735C3189.0 85.427064 3188.3558 83.525244 3187.5684 82.401084C3186.2883 80.573579 3186.4943 79.316977 3189.5133 70.533629C3193.4479 59.086713 3194.3509 57.806262 3196.5511 60.553747C3198.983 63.590503 3201.9538 70.266934 3201.978 72.75C3202.0145 76.4863 3203.7775 75.276372 3204.4963 71.021726C3205.3524 65.954904 3204.4328 61.593779 3201.3938 56.307926L3198.9836 52.115851L3201.8037 47.307926C3205.2672 41.402885 3207.2623 34.504873 3206.8274 29.937843C3206.4706 26.191412 3205.0847 25.642638 3203.4796 28.612198C3199.3275 36.293534 3194.3916 42.36007 3192.9958 41.497429C3192.5322 41.210905 3191.4097 38.619269 3190.5012 35.738238C3186.7939 23.980835 3185.8465 22.847947 3183.8207 27.75C3183.1956 29.2625 3181.5958 32.975 3180.2654 36.0L3177.8465 41.5L3174.3471 37.5C3172.4224 35.3 3169.2369 31.049606 3167.2682 28.054679C3163.8188 22.80728 3163.6561 22.697254 3162.7941 25.027593C3161.8097 27.688689 3162.5316 33.420904 3164.5835 39.23679C3166.1141 43.574906 3164.9451 44.344637 3163.0447 40.25C3160.3542 34.452832 3160.5238 17.341257 3163.2627 18.25423C3163.8941 18.464692 3165.3733 20.548928 3166.5499 22.885867C3169.2971 28.342207 3175.8639 36.212049 3177.2766 35.741117C3177.8761 35.541313 3179.7474 31.617547 3181.4351 27.021638C3185.8982 14.868016 3186.5123 15.047818 3190.9539 29.808585C3193.7409 39.070786 3195.0398 38.963083 3200.6955 29.00081C3203.0316 24.885812 3205.4031 21.365644 3205.9654 21.178215C3206.5276 20.990786 3207.4822 22.111512 3208.0865 23.668718C3209.8127 28.116308 3208.3407 38.59783 3204.9737 45.833954L3202.0265 52.167909L3204.1408 56.809099C3206.8467 62.748827 3207.0453 70.342694 3204.6231 75.25C3202.11 80.341363 3200.0 80.182134 3200.0 74.901129C3200.0 70.851003 3197.6868 64.542524 3195.7666 63.35575C3194.3867 62.502899 3193.2986 64.468685 3190.9516 72.054842C3189.0681 78.142967 3189.028 79.009885 3190.3877 84.230325C3191.7792 89.572314 3191.6208 94.0 3190.0384 94.0C3189.6377 94.0 3188.4955 93.1 3187.5 92.0C3184.7628 88.975477 3180.4903 89.417858 3177.8419 93.0C3175.2112 96.558232 3174.4437 96.69764 3172.9412 93.890224Z M3181.655 58.171259C3179.4832 55.771502 3179.541 49.788454 3181.7623 47.045175C3183.2346 45.227036 3183.9551 45.032437 3186.1396 45.862983C3190.1125 47.373459 3192.5636 56.036438 3189.8 58.8C3188.0068 60.59324 3183.5344 60.248005 3181.655 58.171259Z M3188.7998 54.913731C3188.9678 53.473792 3188.249 51.294151 3187.1644 49.954715C3185.5039 47.904091 3185.0 47.755073 3183.6146 48.904878C3181.4552 50.697032 3181.5384 55.628192 3183.75 56.933339C3186.4649 58.535497 3188.4708 57.733285 3188.7998 54.913731Z"/>
</svg>
