<?xml version="1.0" encoding="UTF-8"?>
<svg xmlns="http://www.w3.org/2000/svg" viewBox="1307.65 18.02 36.34 81.59">
  <path d="M1315.4035 91.0C1315.8748 83.88084 1314.533 76.546267 1311.8155 71.387265L1309.6491 67.274529L1312.1875 62.887265C1313.5836 60.474269 1315.6969 55.658563 1316.8838 52.185696C1318.727 46.792242 1318.8743 45.312414 1317.8934 42.038452C1316.4693 37.28529 1317.5522 25.61657 1319.573 23.939443C1321.2462 22.550761 1321.4093 23.366789 1319.9888 26.02092C1318.5272 28.751949 1318.5823 40.023448 1320.0732 43.277007C1321.4001 46.172901 1320.2814 50.154817 1314.9226 61.609531C1312.5001 66.787685 1312.512 68.619939 1315.0 73.5C1316.5037 76.449415 1316.9826 79.293586 1316.9297 84.961442C1316.8911 89.107649 1316.4499 93.4 1315.9494 94.5C1315.31 95.905301 1315.1477 94.864576 1315.4035 91.0Z M1322.643 93.25C1323.1144 92.2875 1323.4796 87.62402 1323.4546 82.88671C1323.42 76.330766 1322.9789 73.616779 1321.6079 71.524325C1319.2172 67.875676 1320.1058 61.957253 1324.1947 54.29481C1327.6786 47.766203 1328.4363 47.061516 1335.75 43.547989C1340.0214 41.495983 1341.0 40.557495 1341.0 38.512943C1341.0 35.412802 1339.1707 35.291257 1335.5365 38.149923C1333.2813 39.923858 1332.6483 40.055021 1331.917 38.899923C1330.9053 37.302067 1330.7309 29.606119 1331.6303 26.25C1332.8418 21.729196 1333.9524 24.161966 1333.3422 30.0C1332.6603 36.523962 1333.2598 37.18636 1337.394 34.47747C1339.4259 33.14614 1339.8696 33.137937 1340.9271 34.412146C1341.5922 35.213609 1341.9933 37.355379 1341.8182 39.171634C1341.5794 41.64989 1340.681 42.976236 1338.218 44.486958C1328.6792 50.337794 1328.5377 50.488038 1325.1653 58.347496C1321.869 66.029379 1321.8493 66.166074 1323.456 70.18155C1326.7737 78.473384 1326.4153 95.0 1322.9178 95.0C1322.1801 95.0 1322.0844 94.390626 1322.643 93.25Z M1324.0352 41.065741C1323.4658 40.001899 1323.0 37.607062 1323.0 35.74388C1323.0 31.564459 1325.8233 23.0 1327.201 23.0C1327.7581 23.0 1327.9104 23.7875 1327.5393 24.75C1325.2467 30.696223 1324.666 34.971505 1325.8099 37.482207C1327.9941 42.275897 1326.4026 45.489342 1324.0352 41.065741Z"/>
</svg>
