<?xml version="1.0" encoding="UTF-8"?>
<svg xmlns="http://www.w3.org/2000/svg" viewBox="3003 16.3 30.44 88.02">
  <path d="M 3031.4375,88.65625 C 3028.9685,87.744745 3021.7405,82.229892 3020.5,80.15625 3019.9357,79.212915 3019.419,69.350456 3019.3125,57.5 3019.2087,45.95 3018.8455,34.247398 3018.5,31.5 3017.4498,23.149989 3013.0256,20.299229 3010.5,26.34375 3009.3986,28.97972 3009.1127,35.848813 3009.2188,58.59375 3009.3488,86.492626 3009.2961,87.654521 3007.1875,91.71875 3005.9861,94.034339 3005,96.699339 3005,97.65625 3005,100.31471 3006.423,98.186065 3009.0938,91.5 3011.4596,85.577162 3011.4864,85.10564 3011.2188,55.71875 3010.9774,29.212014 3011.1087,25.889598 3012.5312,25.34375 3015.5765,24.175191 3016.4004,26.79788 3016.6875,38.75 3016.8428,45.213736 3017.1107,57.039931 3017.3125,65.03125 3017.5173,73.145294 3018.1833,80.480728 3018.8125,81.65625 3019.4321,82.813992 3022.223,85.674969 3025,88 3028.6083,91.021082 3029.7549,91.812404 3031.3125,91.53125 L 3031.4375,88.65625 z M 3031.0312,97.46875 C 3030.7593,97.599721 3030.2468,98 3030.0938,98 3029.1953,98 3026.1297,96.408086 3023.25,94.46875 3018.3213,91.149572 3017.8416,91.034847 3015.25,92.375 3011.4456,94.342334 3008.1512,98 3010.1875,98 3011.0125,98 3012.5045,97.1 3013.5,96 3015.9084,93.338732 3017.13,93.472206 3023.2812,97 3026.1492,98.644839 3029.414,99.994839 3030.5312,100 3030.6063,100.00035 3030.8447,99.801663 3030.9375,99.78125 L 3031.0312,97.46875 z"/>
</svg>
