<?xml version="1.0" encoding="UTF-8"?>
<svg xmlns="http://www.w3.org/2000/svg" viewBox="810.22 23.41 31.29 77.1">
  <path d="M 812.21875,32.25 812.21875,34.40625 C 812.75512,34.095347 812.98235,34.052918 813.625,33.65625 820.35126,29.504568 824.75483,28.966615 827.5,32 829.82924,34.573775 830.74946,47.925484 829.0625,54.625 827.95156,59.036925 828.0547,59.445329 830.40625,61.90625 834.71525,66.415661 836.95179,72.777612 836.96875,80.5 836.9851,87.947299 835.44051,91.601954 830.78125,95.1875 828.9662,96.58428 828.83809,96.951105 830.15625,96.96875 832.56736,97.001026 836.7737,91.586895 838.09375,86.71875 839.50909,81.49916 838.65426,71.173713 836.4375,66.78125 835.52757,64.978246 833.67775,62.334092 832.34375,60.90625 830.13099,58.53784 830.01135,57.923968 830.9375,53.90625 832.4023,47.551827 832.2366,37.46316 830.59375,33.53125 829.81468,31.666695 828.00309,29.392184 826.59375,28.46875 824.2387,26.925664 823.67569,26.910301 819.46875,28.34375 817.07522,29.159307 813.95667,30.882411 812.21875,32.25 z M 812.21875,39.84375 812.21875,41.59375 C 812.68603,41.342757 812.834,41.170112 813.34375,40.90625 818.90955,38.025216 819.2857,37.957493 821.09375,39.59375 823.44643,41.722899 823.62615,47.97386 821.5,54 819.39558,59.964552 819.60012,61.611031 822.9375,65.8125 828.09005,72.299121 828.96934,85.854894 824.65625,92.4375 823.7533,93.81558 823.01387,95.286899 823.03125,95.71875 823.04863,96.150601 824.15414,95.274423 825.46875,93.78125 826.78336,92.288078 828.35,88.636764 828.96875,85.65625 830.38868,78.816478 828.53272,69.819209 824.5,64 L 821.71875,60 823.375,54.1875 C 825.70884,45.86974 825.49736,41.67298 822.5625,38.3125 L 820.09375,35.5 815.3125,38.09375 C 813.65742,38.98603 813.49488,39.144564 812.21875,39.84375 z"/>
</svg>
