<?xml version="1.0" encoding="UTF-8"?>
<svg xmlns="http://www.w3.org/2000/svg" viewBox="3028.94 19.01 34.6 84.62">
  <path d="M 3031.4375,88.65625 3031.3125,91.53125 C 3031.795,91.444162 3032.323,91.298729 3032.9688,91.03125 3036.8349,89.429829 3047.3297,78.369173 3046.4062,76.875 3046.0147,76.241611 3045.1291,71.376988 3044.4375,66.09375 3043.3899,58.091183 3043.4104,55.106934 3044.5938,48.1875 L 3046.0312,39.875 3042.8125,33.4375 C 3041.0485,29.893162 3039.2568,27 3038.8125,27 3037.6805,27 3037.6516,26.924868 3041.125,34.0625 3044.2252,40.433204 3044.2506,40.565941 3043.0938,48 3042.1447,54.097773 3042.2049,57.650082 3043.4375,67 L 3044.9688,78.5 3039.2188,83.75 C 3036.0692,86.636507 3032.908,88.999007 3032.1875,89 3032.0549,89.000183 3031.6553,88.73664 3031.4375,88.65625 z M 3051.3438,45.90625 C 3051.2535,46.129363 3051.1977,46.675 3051.1875,47.5 3051.1672,49.15 3051.3823,49.958282 3051.6562,49.28125 3051.9302,48.604217 3051.941,47.254217 3051.6875,46.28125 3051.5607,45.794766 3051.434,45.683137 3051.3438,45.90625 z M 3050.3438,54.90625 C 3050.2535,55.129363 3050.1977,55.675 3050.1875,56.5 3050.1672,58.15 3050.3823,58.958282 3050.6562,58.28125 3050.9302,57.604217 3050.941,56.254217 3050.6875,55.28125 3050.5607,54.794766 3050.434,54.683137 3050.3438,54.90625 z M 3051.2812,64.375 C 3051.1761,64.48014 3051.1178,64.823779 3051.0938,65.40625 3051.0503,66.460416 3051.2614,67.051041 3051.5938,66.71875 3051.9261,66.386458 3051.9764,65.534375 3051.6875,64.8125 3051.5279,64.413634 3051.3864,64.26986 3051.2812,64.375 z M 3052.25,70.15625 C 3052.1137,70.120851 3052.0926,70.627532 3052.0625,71.65625 3052.0276,72.848766 3052.3225,74.648766 3052.7188,75.65625 3053.3114,77.163219 3053.4895,77.222818 3053.75,75.9375 3053.9242,75.078202 3053.6293,73.278202 3053.0938,71.9375 3052.6317,70.780952 3052.3863,70.191649 3052.25,70.15625 z M 3031.0312,97.46875 3030.9375,99.78125 C 3032.2909,99.48367 3035.3147,97.203496 3038.5312,93.9375 3041.8141,90.604225 3046.6375,86.223492 3049.25,84.21875 3051.8625,82.214008 3054,79.999562 3054,79.28125 3054,77.720447 3044.6397,85.122633 3037.125,92.625 3034.6701,95.075798 3032.3557,96.830859 3031.0312,97.46875 z M 3043.5625,23.375 C 3042.6235,22.85812 3043.1512,24.277495 3045.1875,28.46875 3046.3971,30.958463 3047.8516,33 3048.4062,33 3049.7241,33 3057,25.881842 3057,24.59375 3057,24.04748 3055.4513,25.106853 3053.5625,26.9375 3050.1522,30.242884 3047,30.603206 3047,27.6875 3047,26.930482 3046.1,25.495486 3045,24.5 3044.3624,23.922953 3043.8755,23.547293 3043.5625,23.375 z M 3061.4375,28.71875 C 3061.3769,28.574013 3060.7474,29.155738 3059.5625,30.5 3056.4931,33.982238 3052,40.639535 3052,41.6875 3052,42.646446 3052.9789,41.458808 3057.125,35.5 3060.0908,31.23745 3061.5385,28.959979 3061.4375,28.71875 z"/>
</svg>
