<?xml version="1.0" encoding="UTF-8"?>
<svg xmlns="http://www.w3.org/2000/svg" viewBox="2.57 14.72 29.35 90.29">
  <path d="M14.205855 96.192297C8.4824681 90.845853 6.6595985 76.454752 9.451471 58.657621C11.941241 42.786281 11.76497 36.669448 8.6176108 29.721487C4.5685192 20.782904 5.5948515 20.479611 10.407868 29.192444C13.477821 34.74987 13.569794 37.217414 11.399535 55.797817C8.5973852 79.788086 10.788131 93.012746 18.063641 96.026361C20.634971 97.091441 21.325256 97.015622 23.019909 95.481983C25.698429 93.057955 26.989449 87.85524 26.985734 79.5C26.982332 71.850801 24.615944 50.86775 23.038567 44.5C21.348553 37.677544 21.833307 33.825963 25.020837 28.75C26.661397 26.1375 28.504601 24.0 29.116847 24.0C29.834254 24.0 29.714074 24.799941 28.778816 26.25C27.980654 27.4875 26.506167 29.769517 25.502177 31.32115C23.758501 34.015943 23.750888 34.575804 25.332202 43.82115C29.367652 67.414916 29.916277 84.999294 26.840047 92.150183C23.685655 99.482765 19.248126 100.90248 14.205855 96.192297Z M12.708318 27.477846C11.218743 24.440661 10.0 21.460561 10.0 20.855401C10.0 18.824475 12.608136 21.804595 14.497406 25.994247C16.827046 31.160466 17.877224 31.122738 21.296151 25.75C22.934046 23.176099 25.0 22.060775 25.0 23.750444C25.0 24.870172 17.374155 33.0 16.323841 33.0C15.824878 33.0 14.197893 30.515031 12.708318 27.477846Z"/>
</svg>
