<?xml version="1.0" encoding="UTF-8"?>
<svg xmlns="http://www.w3.org/2000/svg" viewBox="3670.76 14.12 28.99 85.38">
  <path d="M3687.1659 92.890633C3682.5777 89.516444 3680.0 84.67524 3680.0 79.432442C3680.0 76.820894 3679.4268 75.82973 3677.3238 74.804566C3674.1044 73.235172 3672.7628 70.424114 3675.6161 71.226452C3676.6523 71.517806 3678.1491 71.923545 3678.9425 72.128094C3679.9804 72.39568 3680.5862 71.181721 3681.1024 67.800277C3681.497 65.215429 3682.098 62.650507 3682.4379 62.10045C3683.1873 60.887849 3679.9163 59.0 3677.0657 59.0C3675.9296 59.0 3675.0 58.55 3675.0 58.0C3675.0 57.45 3676.8 57.0 3679.0 57.0C3683.6958 57.0 3684.0069 55.893936 3680.9797 49.960162C3679.3086 46.684674 3678.4442 46.0 3675.9797 46.0C3674.3409 46.0 3673.0 45.501216 3673.0 44.891592C3673.0 44.208634 3673.9596 44.024028 3675.5 44.410644C3678.3465 45.12507 3678.4466 44.711901 3676.8685 38.764351C3674.7468 30.768668 3679.1425 18.0 3684.0168 18.0C3685.0462 18.0 3687.1511 19.089373 3688.6942 20.420829C3691.4186 22.771408 3691.4922 23.095973 3691.2299 31.605389C3691.0212 38.376555 3691.4368 41.802559 3693.0578 46.673698C3694.2117 50.141215 3695.5708 53.234721 3696.0779 53.548155C3697.754 54.584009 3697.0401 58.634898 3694.0 65.339727C3690.7134 72.588121 3690.3163 77.193093 3692.0541 87.90345C3692.6256 91.425348 3692.7116 94.688419 3692.2453 95.15472C3691.779 95.621021 3689.4933 94.602182 3687.1659 92.890633Z M3689.4983 80.972734C3688.9949 72.796673 3689.1881 71.358711 3691.5468 65.722734C3692.9792 62.30023 3694.375 58.787518 3694.6486 57.916706C3694.9222 57.045894 3693.7227 53.445894 3691.9831 49.916706C3688.9307 43.724256 3688.8401 43.173119 3689.3901 34.146858C3689.7298 28.57129 3689.55 24.027607 3688.9448 22.896858C3687.5266 20.246857 3684.3754 20.533734 3681.3179 23.591188C3678.8516 26.057483 3678.7555 26.551526 3679.3243 33.841188C3679.7685 39.534561 3680.696 43.039747 3682.9385 47.5C3686.3435 54.27228 3686.6268 56.972033 3684.5502 62.857814C3682.7988 67.821616 3682.3318 82.47215 3683.8078 86.145125C3684.8469 88.731012 3686.2037 89.76197 3688.7771 89.921053C3689.763 89.982002 3689.9274 87.941957 3689.4983 80.972734Z"/>
</svg>
