<?xml version="1.0" encoding="UTF-8"?>
<svg xmlns="http://www.w3.org/2000/svg" viewBox="2290.42 15.28 115.85 91.27">
  <path d="M 2302.9062,52.5 2301.5,55.59375 C 2302.0051,55.553358 2302.6345,55.794945 2303.9375,56.46875 2308.0076,58.57345 2312.8787,58.379025 2318.4688,55.90625 L 2323.1875,53.84375 2328.0938,55.9375 C 2332.7901,57.957835 2333.2197,58.00895 2336.5312,56.4375 2338.9068,55.310224 2340.004,54.083615 2340,52.625 2339.9898,48.86226 2338.0811,38.678824 2336.375,33.25 2334.8087,28.266202 2334.7994,27.879191 2336.5,26 2338.942,23.301644 2339.9,23.451258 2344.3438,27.40625 L 2348.1562,30.8125 2347,38.46875 C 2345.7454,46.744887 2346.4271,53.848812 2348.5312,54.65625 2349.256,54.934348 2351.0897,54.491901 2352.625,53.6875 2355.2987,52.286599 2355.6695,52.412098 2361.3125,56.375 L 2367.1875,60.5 2370.7188,56.5 C 2372.6599,54.3 2375.5848,49.72158 2377.1875,46.34375 L 2380.0938,40.21875 2377.5312,36.46875 C 2374.8502,32.51799 2374.2609,28.145287 2376.125,26.28125 2377.7878,24.618439 2376.2017,22.57232 2374.4062,24.0625 2372.1979,25.895175 2372.664,33.506658 2375.25,38 L 2377.5,41.90625 2374.5,47.5 C 2372.854,50.573476 2370.5228,54.004263 2369.3438,55.125 L 2367.2188,57.15625 2362.5312,53.5625 C 2357.5579,49.766246 2355.1671,49.240882 2352,51.21875 2348.4102,53.460597 2347.6409,51.170129 2348.875,42 2349.4796,37.507772 2350.2741,33.38032 2350.625,32.8125 2350.9759,32.24468 2352.7638,32.015527 2354.5938,32.3125 2359.282,33.073291 2363.2707,29.942174 2362.375,26.1875 2360.9779,20.331144 2357.517,19.429662 2352,23.5 2347.7571,26.630311 2347.2661,26.619914 2343.7812,23.28125 2341.3975,20.997386 2340.6566,20.749882 2339.2188,21.78125 2334.5694,25.116267 2333.1104,25.362623 2329.5938,23.46875 2326.3702,21.732723 2326.0469,21.736394 2323.5938,23.34375 2318.5241,26.66546 2321.0229,33.960573 2326.75,32.5625 2332.8552,31.072103 2333.2873,31.255719 2335.0938,36.25 2336.0403,38.867062 2336.9666,43.817062 2337.1562,47.25 L 2337.5,53.5 2334,53.34375 C 2332.075,53.25657 2328.3387,52.869961 2325.6875,52.46875 2321.7478,51.872539 2319.9625,52.144083 2316,54 2311.1593,56.267288 2311.1578,56.254896 2306.5312,54.375 2304.5314,53.562398 2303.4923,53.074381 2302.9062,52.5 z M 2357.875,23.03125 C 2358.5219,23.051371 2358.9088,23.512214 2359.5625,24.40625 2360.5366,25.738373 2360.6478,26.797687 2359.9375,28.125 2358.8308,30.192903 2356.6417,30.416996 2353.25,28.78125 2350.1212,27.272267 2350.4259,26.237474 2354.5938,24.25 2356.3137,23.429798 2357.2281,23.011129 2357.875,23.03125 z M 2388.75,23.40625 C 2387.7271,22.383423 2386.8434,27.255785 2387.1875,32.0625 2387.5557,37.206047 2389.6786,38.321412 2392.9375,35.0625 2395.3788,32.621244 2397.8342,32.389371 2398.6562,34.53125 2399.494,36.714275 2396.1646,39.981879 2393.0938,40 2389.3542,40.022066 2388.7332,40.642765 2383.5312,49.5 2374.9145,64.171599 2371.421,66.179422 2362,61.90625 L 2357.5,59.875 2355.3438,62.59375 C 2350.5676,68.583665 2350.2142,78.373322 2354.4062,88.40625 2356.1589,92.60097 2357.7289,92.849145 2363.1875,89.78125 L 2367.125,87.5625 2371.5312,89.90625 C 2376.3785,92.477714 2381.7169,92.270103 2384.0938,89.40625 2385.2356,88.030388 2384.9401,87.934742 2381.5938,88.5625 2378.6714,89.110746 2376.6984,88.711681 2372.8438,86.90625 L 2367.8438,84.59375 2363.6875,86.78125 C 2361.3926,87.99674 2358.9877,89.001527 2358.375,89 2356.4645,88.995237 2354,80.700418 2354,74.3125 2354,69.847616 2354.5135,67.618929 2355.875,65.9375 2357.7147,63.665632 2357.7876,63.644109 2362.1562,65.3125 2364.588,66.241225 2368.2175,67 2370.2188,67 2373.258,67 2374.4524,66.305144 2377.4688,62.78125 2379.4549,60.460865 2383.0829,55.104571 2385.5625,50.875 2390.0335,43.248639 2391.3929,42 2395.0938,42 2397.8992,42 2401,38.410876 2401,35.1875 2401,30.073251 2396.839,28.310406 2393.5,32 2390.2791,35.559086 2388.8306,34.577363 2389.125,29.03125 2389.2702,26.294084 2389.1027,23.758984 2388.75,23.40625 z M 2382.0312,24.1875 C 2381.7069,23.632435 2381.1692,24.219519 2380.625,26.25 2379.638,29.932776 2379.9043,34.529305 2381.1875,35.8125 2382.5915,37.216492 2385,37.384318 2385,36.09375 2385,35.602594 2384.2691,34.936844 2383.375,34.59375 2382.0789,34.096401 2381.8369,32.941751 2382.2188,28.96875 2382.4632,26.425346 2382.3556,24.742565 2382.0312,24.1875 z M 2327.1562,25 C 2329.883,25 2330.727,28.004905 2328.4688,29.65625 2326.0363,31.434901 2324.0636,31.375624 2323.3438,29.5 2322.5868,27.527504 2324.7303,25 2327.1562,25 z M 2299.25,60.5 2297.5625,64.25 2298.2188,63.75 2302,65.875 C 2306.9562,68.660559 2310.9293,68.564021 2315.0938,65.53125 2321.0747,61.175772 2322.8513,60.743922 2326.875,62.71875 2331.7051,65.089313 2334.5686,69.717059 2335.3438,76.3125 2336.0132,82.008778 2334.6701,87.931528 2332.6562,88.125 2329.6382,88.414952 2326.2031,87.636028 2322.8125,85.90625 2317.9145,83.407494 2317.3661,83.45236 2313.2188,87.09375 2309.6111,90.261223 2308.155,90.449321 2301.25,88.4375 2297.5893,87.370925 2298.5927,89.943028 2302.4688,91.5625 2307.6321,93.719911 2310.4336,93.331541 2314,90 2317.8089,86.441916 2318.706,86.351974 2323.9062,89.0625 2333.2999,93.958791 2338.4506,89.274925 2337.7188,76.5 2337.1998,67.442911 2335.0874,63.364073 2329.6875,61.03125 2322.0224,57.719837 2321.6271,57.716206 2316.9062,61.46875 2311.736,65.578676 2307.2433,66.044505 2302.25,63 2300.2386,61.773634 2299.4224,61.252718 2299.25,60.5 z M 2345.4688,91 C 2345.1782,91 2343.5732,92.538813 2341.9062,94.4375 2337.5517,99.397018 2335.8951,99.61082 2328.3125,96.0625 2321.3514,92.805039 2319.3698,92.797309 2315.1875,96.0625 2311.5352,98.914015 2307.494,99.356651 2302.4688,97.4375 2297.8464,95.672231 2295.6828,96.078409 2297.875,98.28125 2298.5501,98.959583 2300.5179,100.04184 2302.2812,100.6875 2306.9565,102.39947 2308.1526,102.26044 2313.5938,99.5 2319.5762,96.464879 2322.2645,96.386789 2326.5938,99.0625 2328.4191,100.19056 2331.7192,101.16154 2333.9375,101.25 2337.2422,101.38178 2338.5661,100.85041 2341.2812,98.21875 2345.2711,94.351718 2346.287,94.259977 2349.7812,97.5 2353.7544,101.18418 2358.0412,101.65765 2363.5312,99 2368.0212,96.82648 2368.1955,96.796405 2372.6562,98.5 2376.4632,99.953882 2377.8761,100.06716 2381.125,99.09375 2383.264,98.452888 2385,97.496673 2385,96.96875 2385,95.770865 2382.9569,95.726777 2381.0938,96.90625 2380.1881,97.479614 2377.766,97.083502 2374.2812,95.75 L 2368.875,93.65625 2364.4062,95.84375 C 2358.3772,98.772856 2356.5596,98.583949 2350.875,94.5 2348.1956,92.575 2345.7594,91 2345.4688,91 z"/>
</svg>
