<?xml version="1.0" encoding="UTF-8"?>
<svg xmlns="http://www.w3.org/2000/svg" viewBox="1301.09 19.99 29.25 88.33">
  <path d="M 1327.2188 85.5625 C 1326.0872 84.971875 1325.1071 84.285075 1324.5312 83.40625 C 1322.3176 80.027779 1320.6408 80.400614 1322.4375 83.875 C 1326.4205 91.577256 1323.1567 100 1316.1875 100 C 1314.5117 100 1307 92.998382 1307 91.4375 C 1307 90.201824 1310.3642 84.346537 1312.2812 82.25 C 1313.4855 80.932902 1315.5334 80 1317.1875 80 C 1319.0254 80 1320 79.470138 1320 78.5 C 1320 77.679661 1320.9228 76.442161 1322.0625 75.75 C 1324.2916 74.396246 1327 68.982015 1327 65.84375 C 1327 63.133501 1324.2452 58.135797 1321.375 55.625 L 1318.9688 53.5 L 1322.4688 49.71875 C 1326.9657 44.855326 1328.0331 42.796629 1328.1875 38.6875 C 1328.3441 34.52384 1321.4037 24 1318.5 24 C 1317.8669 24 1315.0335 26.867202 1312.1875 30.375 C 1305.7715 38.282851 1305.4847 41.167829 1310.5 48 C 1312.425 50.622375 1314 53.465995 1314 54.3125 C 1314 55.159005 1312.7709 57.132692 1311.25 58.6875 C 1303.0915 67.027943 1303.1375 72.821838 1311.4062 77.5 C 1313.0452 78.427245 1312.9409 78.793213 1310.2188 82.21875 C 1308.5957 84.261024 1306.7103 87.266811 1306.0312 88.90625 C 1304.9139 91.603945 1305.0849 92.31239 1307.6875 96.1875 C 1309.7234 99.218866 1311.8635 100.97355 1315.0312 102.1875 C 1320.2908 104.20297 1321 104.2982 1321 103.09375 C 1321 102.13048 1322.5038 101.36571 1324.6562 100.96875 L 1324.6562 100.1875 L 1325.1875 97.15625 C 1324.6309 96.831545 1324.4226 96.500013 1324.5938 96.09375 C 1324.9597 95.224782 1325.5393 93.15 1325.9062 91.5 C 1326.0678 90.773635 1326.2241 90.747701 1326.4062 90.25 L 1327.2188 85.5625 z M 1317.7188 27.0625 C 1319.269 26.981943 1327 36.663701 1327 38.6875 C 1327 41.491162 1323.7673 47.0386 1320.9688 49.03125 C 1319.4392 50.120418 1317.7472 51 1317.1875 51 C 1316.6277 51 1314.5304 49.1115 1312.5625 46.8125 C 1307.7294 41.166055 1307.7853 37.588659 1312.75 31.625 C 1314.8125 29.147493 1317.044 27.097563 1317.7188 27.0625 z M 1317.0938 55 C 1317.5137 55 1319.4733 56.522558 1321.4375 58.375 C 1324.242 61.019947 1325 62.497306 1325 65.3125 C 1325 70.187236 1323.1466 73.854471 1319.8438 75.5625 C 1318.3281 76.346252 1316.9773 76.9792 1316.8125 76.96875 C 1315.5234 76.887014 1306.792 70.636742 1306.3438 69.46875 C 1305.6328 67.615989 1315.0059 55 1317.0938 55 z "/>
</svg>
