<?xml version="1.0" encoding="UTF-8"?>
<svg xmlns="http://www.w3.org/2000/svg" viewBox="3431.38 8.5 20.12 96.69">
  <path d="M 3449.5 78.40625 C 3449.0088 75.340619 3448.8518 69.404086 3448.5625 55 C 3447.8371 18.886224 3446.9785 12.893478 3443.4375 18.59375 C 3442.4453 20.190999 3441.1399 21.95 3440.5312 22.5 C 3438.0293 24.760675 3435 29.947522 3435 31.96875 C 3435 34.940936 3436.7207 37.88548 3440.125 40.75 C 3443.7307 43.783991 3443.7143 44.938793 3440.0625 48.4375 C 3433.6672 54.56454 3433.6394 60.198041 3439.9688 64.6875 C 3442.1495 66.234332 3444.1695 68.049797 3444.4375 68.71875 C 3444.7055 69.387703 3443.1275 72.198195 3440.9375 74.96875 C 3433.5543 84.309288 3433.3848 86.980699 3439.75 94.40625 C 3444.6834 100.16155 3446.2889 100.79271 3446.8125 97.25 C 3446.9868 96.070363 3447.5396 95.444214 3448.3125 95.0625 L 3448.3125 95 L 3448.6875 89.8125 C 3448.2442 89.275286 3448 88.556118 3448 87.46875 C 3448 85.905296 3448.3506 85.470665 3449 85.40625 L 3449.2812 81.34375 L 3449.5 78.40625 z M 3445.0938 22.5625 C 3445.5883 22.868175 3446 27.144959 3446 32.0625 C 3446 36.980041 3445.6259 41 3445.1875 41 C 3444.7492 41 3442.6858 39.236125 3440.5938 37.09375 C 3437.6504 34.079466 3436.9669 32.710852 3437.5 31.03125 C 3438.4422 28.06264 3443.9851 21.877345 3445.0938 22.5625 z M 3444.4375 49 C 3445.733 49 3447 55.195758 3447 61.625 C 3447 63.661024 3446.5074 64.985049 3445.75 64.96875 C 3443.4405 64.919049 3437.9908 59.529676 3438 57.3125 C 3438.0103 54.830985 3442.522 49 3444.4375 49 z M 3445.9375 74.5 L 3445.9688 79 C 3445.9778 81.475 3445.6906 85.8625 3445.3438 88.75 C 3444.9969 91.6375 3444.433 94 3444.0625 94 C 3443.692 94 3442.1654 92.730096 3440.6875 91.1875 C 3436.8323 87.163546 3437.1744 83.79806 3441.9688 78.71875 L 3445.9375 74.5 z "/>
</svg>
