<?xml version="1.0" encoding="UTF-8"?>
<svg xmlns="http://www.w3.org/2000/svg" viewBox="3193.8 12.11 104.88 93.13">
  <path d="M 3203.8438,18 C 3202.7594,18 3201.8376,18.90975 3201.5625,20.25 3201.3086,21.4875 3200.5208,24.975 3199.8125,28 3199.0954,31.062192 3198.5691,38.865532 3198.625,45.59375 3198.7157,56.53216 3198.9874,58.24505 3201.5,63.84375 3203.0755,67.354505 3203.6699,68.920442 3203.6562,70.53125 L 3206.5,70.96875 3213.0938,72.375 3215.2188,71.3125 C 3215.8392,70.386932 3216.4547,69.536634 3217.0625,69 3226.8596,60.349651 3230.3298,59.384505 3234.125,64.21875 3238.6463,69.977643 3238.5658,71.192182 3233.5312,78.03125 3231.0307,81.428013 3229,84.721626 3229,85.34375 3229,85.965873 3230.6211,89.757628 3232.5938,93.75 3234.5664,97.742372 3236.7979,101 3237.5625,101 3240.2119,101 3241.9268,96.831806 3241.0938,92.375 3240.299,88.122697 3241.2638,85.062831 3245.4062,78.78125 3247.6283,75.411609 3249.4326,76.099463 3253.5,81.96875 3256.2981,86.006433 3256.2953,86.12525 3254.6562,89.5625 3252.5355,94.009482 3252.5213,97.880209 3254.625,98.6875 3257.091,99.633783 3259.2038,97.888849 3262.1562,92.4375 3265.5774,86.120528 3265.6277,82.610543 3262.3438,75.4375 L 3259.6875,69.625 3261.5938,66.0625 C 3264.0663,61.459774 3265.9382,61.232868 3269.9375,64.96875 3271.7297,66.642898 3273.7306,68 3274.375,68 3275.5854,68 3276.9148,68.741922 3278.0938,69.96875 L 3278.625,69.5625 3288.8125,61.21875 C 3289.0367,59.284477 3289.3959,57.281612 3290.0625,55.375 3292.6682,47.922612 3293.913,28.59232 3292.0625,24.125 3291.3821,22.482142 3290.1753,20.888858 3289.4062,20.59375 3287.8555,19.998655 3287.7521,20.482209 3286.0938,32.40625 3285.0271,40.076474 3281.0299,50.900318 3278.5,53 3276.9667,54.272506 3274.1038,53.126283 3268.5,49 3263.5858,45.38148 3262.5753,45.33378 3258.8125,48.5 3257.174,49.878678 3255.4097,50.748637 3254.9062,50.4375 3253.4369,49.529364 3253.8346,35.305129 3255.4375,31.46875 3256.7782,28.260096 3257.0845,28.081372 3259.375,29.125 3262.7532,30.66424 3266.8481,29.439521 3268.1875,26.5 3270.4604,21.511466 3263.4592,16.338484 3260.0312,20.46875 3257.7606,23.204775 3255.1517,23.228688 3251.6562,20.5625 3247.3865,17.305745 3246.2731,17.375081 3242.125,21.03125 3238.0939,24.58427 3238.0407,24.57347 3232.8125,21.90625 3229.5318,20.23258 3228.2256,20.017588 3226.3438,20.875 3223.0024,22.397466 3223.1204,27.358844 3226.5312,29.59375 3228.7148,31.024451 3229.6148,31.09652 3233.5312,30 3236.0132,29.305089 3238.3308,28.986961 3238.6562,29.3125 3239.651,30.307259 3241.9834,41.283365 3242,45.0625 3242.0086,47.019879 3241.3999,49.451728 3240.6562,50.46875 3239.3636,52.236621 3239.0626,52.186894 3233.6562,49.09375 L 3228,45.84375 3224.25,48.09375 C 3222.1913,49.336031 3218.8141,51.862257 3216.75,53.6875 3214.6859,55.512744 3212.4237,57 3211.7188,57 3211.0139,57 3209.5878,55.57935 3208.5625,53.84375 3206.8925,51.016543 3206.7797,49.242335 3207.3438,36.84375 3208.0134,22.120905 3207.227,18 3203.8438,18 z M 3204.4062,20.1875 C 3204.6182,20.217069 3204.843,20.436704 3205.1562,20.75 3205.9543,21.548041 3205.918,25.841796 3205.0312,36.40625 3203.815,50.893971 3203.8418,50.958457 3206.1875,55.21875 3209.314,60.897371 3212.0678,61.285143 3216.875,56.71875 3218.8713,54.822505 3221.9885,52.413189 3223.8125,51.375 L 3227.125,49.5 3232.0625,52.25 C 3239.6904,56.501242 3241.617,55.956961 3243.875,48.9375 3244.802,46.055902 3244.6853,43.677649 3243.1875,36.375 3241.2364,26.862543 3241.4779,24.651901 3244.8438,21.625 3246.8879,19.786749 3246.9631,19.806864 3250.0625,22.90625 3252.4033,25.247053 3253.0516,26.632313 3252.5938,28.28125 3250.2735,36.638238 3250.9077,52.656786 3253.5938,53.6875 3254.3805,53.989415 3256.5775,53.036207 3258.4688,51.59375 L 3261.9062,48.96875 3265.6875,51.09375 C 3267.7782,52.264604 3270.7877,54.145946 3272.3438,55.25 3275.6983,57.630185 3278.8582,56.675088 3281.5938,52.5 3284.2465,48.451402 3287.9851,37.295903 3288.0625,33.21875 3288.1011,31.181269 3288.486,28.605506 3288.9062,27.53125 3291.162,21.7653 3291.0546,41.689746 3288.7812,51 3286.5899,59.974516 3282.3325,66 3278.1875,66 3276.7869,66 3274.0856,64.497114 3271.875,62.5 3267.2048,58.280707 3265.1734,58.130196 3261.8125,61.75 3256.5906,67.37438 3256.6229,69.282822 3262,80.5 L 3263.9062,84.5 3260.9062,90.75 C 3259.2494,94.1875 3257.4864,97 3257,97 3255.1872,97 3254.9749,94.982679 3256.4688,92.09375 3259.4944,86.242905 3257.9538,80.992358 3251.5,75.125 3247.1673,71.185972 3247.0129,71.29287 3241.4688,80.5 3238.086,86.117495 3237.9038,86.844384 3238.5312,92.25 3238.8991,95.418944 3238.9937,98 3238.75,98 3237.6391,98 3235.1771,94.075226 3233.5938,89.78125 L 3231.875,85.09375 3234.5312,80.53125 C 3236.0025,78.02065 3238.0534,75.494294 3239.0938,74.9375 3240.1342,74.380706 3241,72.904219 3241,71.65625 3241,69.21829 3236.4008,61.379558 3233.6562,59.125 3231.4034,57.274353 3226.5734,58.335405 3222.8125,61.5 3221.1751,62.877793 3219.4051,64 3218.875,64 3218.3449,64 3216.6415,64.949494 3215.0938,66.09375 3210.412,69.555135 3206.9431,68.423256 3204,62.5 3201.8608,58.194714 3201.4664,55.832687 3201.1562,45.5 3200.9443,38.43605 3201.2915,31.237644 3202,28 3203.3636,21.767756 3203.7704,20.098792 3204.4062,20.1875 z M 3263.5312,21.1875 C 3264.6441,21.50627 3265.5,22.511447 3265.5,24 3265.5,25.985174 3264.9382,26.560803 3262.75,26.8125 3259.5413,27.181585 3258.0895,24.814899 3260.0625,22.4375 3261.0606,21.234858 3262.4184,20.86873 3263.5312,21.1875 z M 3229.4062,24.03125 C 3230.6769,23.980707 3232.0759,24.337659 3232.5625,25.125 3232.9404,25.736492 3232.633,26.613664 3231.875,27.09375 3229.26,28.750075 3227,27.945255 3227,25.34375 3227,24.537053 3228.1356,24.081793 3229.4062,24.03125 z"/>
</svg>
