<?xml version="1.0" encoding="UTF-8"?>
<svg xmlns="http://www.w3.org/2000/svg" viewBox="2116.28 17.69 115.51 92.72">
  <path d="M 2129.0312,56.78125 2128.875,56.84375 2127,59.71875 C 2127.5858,60.186598 2128.2325,60.714326 2129.75,61.34375 2135.3701,63.674841 2137.6817,63.346121 2142.7188,59.5 2148.2705,55.260914 2150.9701,55.106261 2159.6875,58.59375 2163.7977,60.238103 2166.5262,60.84886 2167.125,60.25 2167.647,59.72797 2167.9423,55.559148 2167.7812,50.96875 L 2167.5,42.625 2164.25,41.78125 C 2160.8059,40.891701 2157.4072,36.009862 2158.4062,33.40625 2158.8508,32.248052 2159.5308,32.361151 2162.2188,34 2164.0227,35.099901 2166.2667,35.997944 2167.2188,36 2169.1642,36.004201 2170.2903,32.790662 2169.8125,28.5625 2169.5711,26.426698 2170.017,25.563581 2171.75,24.90625 2173.6335,24.191824 2174.7619,24.76206 2178.5,28.34375 2182.2136,31.90201 2183,33.290614 2183,36.3125 2183,39.351709 2182.5955,40.052248 2180.5625,40.5625 2179.2188,40.899758 2177.72,40.946738 2177.25,40.65625 2176.78,40.365762 2175.7858,40.502403 2175.0312,40.96875 2173.2658,42.059852 2172.488,56.147895 2174.0312,59.03125 L 2175.125,61.09375 2178.4375,59.03125 C 2182.5712,56.476472 2184.6269,56.482479 2190.5,59 2196.8264,61.711815 2202.0626,61.61986 2204.75,58.75 2206.7036,56.663811 2211,47.904821 2211,46 2211,45.540478 2209.2305,43.318997 2207.0625,41.0625 2202.7123,36.534838 2200.7036,29.302053 2202.8438,25.875 2204.219,23.67295 2202.2987,21.992939 2200.8438,24.125 2199.3394,26.329352 2200.5403,38.197993 2202.4062,39.5625 2203.2863,40.205919 2204,41.093794 2204,41.5625 2204,42.031206 2205.178,43.377511 2206.625,44.53125 L 2209.25,46.625 2207.2188,51.21875 C 2206.0983,53.751782 2203.9878,56.60809 2202.5312,57.5625 2199.6947,59.421051 2198.9255,59.301637 2188.875,55.4375 2184.367,53.704311 2184.1659,53.719471 2180.125,55.71875 2177.8465,56.846049 2175.8454,57.472356 2175.6875,57.125 2175.5296,56.777643 2175.5667,53.6875 2175.7812,50.25 2176.1334,44.605878 2176.3985,44 2178.375,44 2182.6824,44 2185,41.291151 2185,36.28125 2185,32.071314 2184.568,31.261156 2179.9688,26.78125 2175.3533,22.285548 2174.5948,21.90646 2170.7188,22.1875 2167.5668,22.416029 2166.5772,22.880284 2166.8438,24 2167.0401,24.825 2167.4614,27.1875 2167.75,29.25 2168.2056,32.506505 2168.0153,33 2166.2812,33 2165.183,33 2163.1172,32.1 2161.7188,31 2157.9637,28.046256 2156,28.400782 2156,32.03125 2156,37.257739 2158.552,41.771586 2162.5938,43.71875 2166.2154,45.463498 2166.2939,45.657009 2166.6562,51.75 2166.8607,55.1875 2166.6467,58 2166.1562,58 2165.6657,58 2163.2824,57.139049 2160.875,56.09375 2158.4676,55.048451 2154.5759,53.881376 2152.2188,53.5 2148.2364,52.855695 2147.5465,53.120925 2142.4375,57.0625 2137.071,61.202758 2136.8394,61.253426 2132.9688,60.09375 2130.0716,59.225761 2129,58.393512 2129,56.9375 2129,56.898468 2129.0299,56.821733 2129.0312,56.78125 z M 2208.9688,23.5 2207.4688,26.90625 C 2205.9012,30.452966 2206.1872,32.90132 2208.6562,36.8125 2210.1406,39.163804 2212.0647,39.337417 2212.7812,37.1875 2212.999,36.534375 2212.4765,36 2211.625,36 2209.2034,36 2207.7158,32.189526 2208.375,27.625 L 2208.9688,23.5 z M 2123.8438,64.53125 2121.7812,67.6875 2121.5312,68.1875 C 2123.7575,67.977018 2126.446,68.363575 2128.625,69.5 2130.2004,70.321612 2133.3447,70.996612 2135.5938,71 2138.9979,71.005129 2140.2237,70.413589 2142.875,67.5 2145.9706,64.098156 2150.175,62.844334 2151.4688,64.9375 2152.2034,66.126323 2157.9026,69 2159.5312,69 2163.3023,69 2166.1206,80.930408 2163.5312,85.9375 2161.2834,90.284502 2157.8115,90.851059 2153.1562,87.625 2148.5804,84.453965 2145.3714,84.325284 2140,87.125 2137.1335,88.619076 2134.9003,89.082083 2132.4688,88.6875 2128.4872,88.041381 2127.4373,90.353242 2131.25,91.375 2135.0713,92.399076 2137.3745,92.077142 2141.25,90 2146.0478,87.428504 2146.7978,87.485896 2152.9688,90.6875 2157.113,92.83758 2158.6472,93.167175 2160.8125,92.40625 2166.0939,90.550261 2168.5278,80.239804 2165.625,72 2164.6202,69.147648 2163.094,67.814607 2157.4375,64.8125 2153.62,62.786433 2149.825,61.093595 2149,61.0625 2148.175,61.031405 2145.5448,62.569954 2143.1562,64.46875 2140.7677,66.367546 2137.8785,68.204332 2136.75,68.5625 2134.5691,69.254704 2124,66.119813 2124,64.78125 2124,64.659417 2123.8875,64.62404 2123.8438,64.53125 z M 2217.5,57.53125 C 2217.3182,56.851566 2217.5077,54.582037 2218.0625,51.84375 2218.8991,47.714545 2219.9393,45.808611 2222.6875,43.40625 2225.4957,40.951434 2226.2745,39.507782 2226.375,36.53125 2226.5424,31.576765 2224.069,29.72262 2221,32.5 2218.0981,35.126168 2215.6526,33.461265 2215,28.40625 2214.6193,25.457427 2214.3149,24.957971 2213.75,26.34375 2212.4627,29.50146 2212.9168,32.543007 2215.0312,34.8125 2217.5168,37.480495 2217.5819,37.467531 2220.7188,35 2223.4907,32.819603 2225,33.150556 2225,35.90625 2225,37.802197 2222.5947,40.310038 2219.8438,41.28125 2218.8594,41.628826 2217.5172,44.238005 2216.5625,47.6875 2215.6772,50.886286 2214.5079,54.294963 2213.9688,55.25 2212.6544,57.577685 2212.8213,58.533076 2215.6562,60.1875 L 2217,57.78125 2217.5,57.53125 z M 2212.75,65.375 2211,64.65625 2208.75,66.75 C 2204.6815,70.535312 2200.0486,70.604614 2193.0625,66.96875 2187.9014,64.282684 2186.4724,63.913814 2184.5,64.8125 2178.9782,67.328411 2174.0046,81.760441 2176.5625,87.84375 2178.2438,91.842504 2183.918,93.628179 2188.0938,91.46875 2192.0259,89.435416 2193.7689,89.623505 2197.1875,92.5 2198.8216,93.875 2201.0671,95 2202.1875,95 2205.0596,95 2212,90.910857 2212,89.21875 2212,88.168271 2210.9144,88.452203 2207.75,90.28125 2202.9673,93.045697 2201.8617,92.879957 2197.25,88.875 2193.8471,85.919865 2192.2346,85.965265 2187.125,89.15625 2184.3026,90.918847 2179.7856,89.175133 2178.625,85.875 2178.1258,84.455674 2178.0171,81.751297 2178.375,79.84375 2179.1,75.978914 2183.6777,68.326482 2185.75,67.53125 2186.4871,67.248415 2189.6436,68.407184 2192.7812,70.09375 2199.353,73.62624 2204.338,73.61666 2209.1875,70.03125 L 2210.8438,68.78125 2212.75,65.375 z M 2217.4062,92.03125 C 2216.2438,92.072103 2213,94.537464 2213,95.375 2213,96.644944 2214.7272,95.95893 2216.5,94 2217.4955,92.9 2217.9039,92.013759 2217.4062,92.03125 z M 2211,68.6875 2211.4375,68.34375 2211.3438,68.15625 2211,68.6875 z M 2172.0938,93.71875 2168.4062,96.9375 C 2164.1017,100.71697 2160.7674,100.75254 2152.4375,97.03125 L 2147.375,94.75 2141.8438,97.375 C 2135.4031,100.4219 2134.4736,100.52587 2129.625,98.5 2126.6595,97.260918 2126,97.204837 2126,98.3125 2126,99.981604 2130.1918,102 2133.6875,102 2135.1176,102 2138.9242,101.0421 2142.125,99.875 L 2147.9375,97.75 2152.9375,100.375 C 2160.0063,104.0712 2165.5984,103.58103 2170.6562,98.84375 L 2172.7812,96.84375 2177.0312,99.03125 C 2180.0185,100.55522 2182.2207,101.00507 2184.4062,100.5625 2186.1157,100.21634 2188.7364,99.661146 2190.25,99.34375 2192.034,98.969641 2193.9684,99.394455 2195.75,100.5625 2197.2614,101.55347 2199.625,102.96929 2201,103.6875 2205.798,106.19367 2214.7027,104.46092 2218.0938,100.375 2220.0892,97.970553 2218.2602,97.630062 2215.4062,99.875 2211.2268,103.16252 2203.6994,102.76715 2198.0938,98.96875 2192.996,95.514501 2192.3967,95.465659 2187,97.625 2183.0589,99.201916 2182.8535,99.161544 2177.5312,96.46875 L 2172.0938,93.71875 z"/>
</svg>
