<?xml version="1.0" encoding="UTF-8"?>
<svg xmlns="http://www.w3.org/2000/svg" viewBox="1541.58 17.99 40.41 89.56">
  <path d="M1548.0 99.195781C1548.0 98.75346 1549.2664 96.39096 1550.8142 93.945781C1554.7506 87.727148 1556.1712 79.635347 1555.8082 65.5L1555.5 53.5L1552.6058 53.708008C1546.8785 54.119629 1544.3495 50.615695 1547.1441 46.140855C1548.0654 44.665566 1547.8737 43.743313 1546.1594 41.404424C1544.7169 39.436498 1543.9749 36.82067 1543.8581 33.291784C1543.5764 24.778383 1547.6068 22.060761 1550.3493 28.914946C1552.2274 33.608819 1553.3593 34.47695 1555.0091 32.48899C1557.7609 29.173322 1557.8993 31.287723 1555.1899 35.25C1553.5915 37.5875 1551.091 41.75 1549.6333 44.5C1547.1696 49.147563 1547.1033 49.58864 1548.6928 50.757526C1549.7077 51.503842 1551.6873 51.774085 1553.5625 51.422297C1556.2729 50.913827 1556.8111 51.161595 1557.3474 53.164771C1558.3638 56.960669 1558.0874 77.15965 1556.9338 83.40046C1555.7588 89.756629 1548.0 103.47449 1548.0 99.195781Z M1550.3851 32.569133C1548.0604 26.890061 1545.6431 26.781112 1545.1851 32.33476C1544.9912 34.685268 1545.5108 37.130709 1546.537 38.696771L1548.2038 41.240655L1550.237 39.207457C1552.2508 37.19362 1552.2522 37.130409 1550.3851 32.569133Z M1556.0318 98.44113C1556.0493 97.923508 1556.7243 96.626492 1557.5318 95.55887C1558.3393 94.491249 1558.9857 94.041249 1558.9682 94.55887C1558.9507 95.076492 1558.2757 96.373508 1557.4682 97.44113C1556.6607 98.508751 1556.0143 98.958751 1556.0318 98.44113Z M1573.2632 94.374067C1572.583 92.79333 1570.6862 89.7 1569.0481 87.5L1566.0698 83.5L1566.4203 68.83992C1566.6131 60.776876 1567.0739 53.689376 1567.4444 53.08992C1567.8149 52.490464 1569.6665 52.0 1571.559 52.0C1574.4783 52.0 1574.9911 51.658847 1574.941 49.75C1574.877 47.311086 1572.2329 41.991164 1567.5 34.778877C1565.85 32.264492 1563.9947 29.373132 1563.3771 28.353634C1562.2863 26.552989 1562.1934 26.554488 1560.1259 28.406098L1557.9975 30.312197L1559.572 27.156098C1561.8093 22.671426 1563.1137 23.044957 1566.8843 29.25C1568.1377 31.3125 1569.9139 33.006967 1570.8316 33.015483C1571.7492 33.023998 1574.1741 31.111498 1576.2202 28.765483L1579.9403 24.5L1579.9702 29.124273C1579.9866 31.667624 1579.293 35.717624 1578.429 38.124273C1577.398 40.995661 1577.0599 44.086238 1577.4453 47.113949C1578.1024 52.274917 1577.3426 53.375552 1572.393 54.432585L1569.2859 55.096115L1568.5851 68.607406L1567.8843 82.118696L1571.5091 87.5796C1573.5339 90.630227 1574.9939 93.969064 1574.8169 95.144319C1574.5341 97.021525 1574.3668 96.938559 1573.2632 94.374067Z M1565.6476 95.362014C1562.3612 91.57684 1561.5659 91.114171 1560.2339 92.212519C1558.8524 93.351723 1558.8106 93.240871 1559.8715 91.25C1561.6173 87.973597 1563.0495 88.500775 1567.2678 93.972567C1572.0488 100.17416 1570.7745 101.26694 1565.6476 95.362014Z M1577.3878 37.680825C1577.7095 36.481371 1577.9788 33.953309 1577.9863 32.062909L1578.0 28.625818L1575.0 31.5C1571.791 34.574443 1571.4083 36.025918 1573.0153 39.028503C1574.2591 41.352693 1576.5962 40.63237 1577.3878 37.680825Z"/>
</svg>
