<?xml version="1.0" encoding="UTF-8"?>
<svg xmlns="http://www.w3.org/2000/svg" viewBox="237.96 14.29 67.61 83.8">
  <path d="M 241.03125,78.6875 241.8125,80.25 C 245.70806,76.156307 250.51529,69.899885 254.5,63.21875 L 260.03125,53.96875 258.3125,50.71875 C 254.20207,43.038403 251.57878,33.009955 252.46875,28.25 253.43864,23.062621 255.30896,24.430767 258.4375,32.625 261.08435,39.557574 266.62313,47 269.125,47 270.07298,47 275,36.595489 275,34.59375 275,32.174511 278.03525,25.911133 278.9375,26.46875 279.42122,26.767708 280.3752,30.264286 281.0625,34.25 281.7498,38.235713 282.99948,42.837201 283.8125,44.46875 L 285.28125,47.4375 288.21875,43.96875 C 289.83552,42.062201 292.96212,36.7875 295.15625,32.25 297.35038,27.7125 299.62381,24 300.21875,24 302.15085,24 300.342,39.768746 297.875,44.40625 292.3103,54.866885 292.5038,53.639878 295.46875,59.5 296.94972,62.427076 298.62417,67.670241 299.21875,71.15625 300.33859,77.721907 299.555,87.355986 297.9375,86.8125 297.43021,86.642047 294.87212,82.274766 292.25,77.09375 289.62789,71.912734 286.97813,67.482294 286.375,67.28125 285.25374,66.907495 280.30113,76.479801 278.0625,83.3125 277.37742,85.403482 276.33642,86.945473 275.75,86.75 275.16358,86.554526 274.03937,84.158009 273.25,81.4375 272.46064,78.716991 271.49184,76.05 271.09375,75.5 270.69566,74.95 269.7397,72.595372 269,70.25 267.44225,65.310826 265.70619,63.472331 263.65625,64.65625 262.86678,65.112195 257.67816,71.001155 252.125,77.71875 249.57733,80.800649 247.025,83.637212 244.78125,86.03125 L 245.5625,87.53125 C 250.7639,82.115673 257.4241,74.316137 260.375,69.8125 263.45596,65.110365 264.86666,65.474717 267.65625,71.75 270.85249,78.940075 272.96602,85.749904 273,89 273.01437,90.375 273.44889,92.177679 273.96875,93 274.77941,94.282311 275.12646,94.211141 276.40625,92.5 277.22695,91.402679 278.20453,89.197849 278.5625,87.625 279.52486,83.39658 283.59158,74.605742 285.1875,73.28125 287.63226,71.252278 288.62254,72.722589 295.46875,88.5 L 297.1875,92.46875 298.96875,90.28125 C 301.10387,87.64448 302.24576,79.495442 301.5,72.21875 300.99284,67.270207 300.05593,64.050134 296.90625,56.34375 295.7124,53.422737 295.89706,52.696701 299,46.875 302.04589,41.160318 302.36774,39.770379 302.4375,31.84375 302.49756,25.02033 302.14917,22.717686 300.875,21.4375 299.36352,19.918887 299.028,20.242708 296.5625,25.65625 292.75302,34.020775 287.78794,42 286.375,42 285.02409,42 283.49959,37.733492 282.46875,31.09375 281.63238,25.7066 279.33288,20 278,20 277.45738,20 277.00097,20.7875 277,21.75 276.99652,25.190453 270.30783,42.501777 268.875,42.78125 266.45791,43.252698 262.4154,37.881374 259.625,30.5 258.16957,26.65 256.58158,22.861394 256.09375,22.09375 253.55719,18.102271 249.59512,26.442158 250.65625,33.53125 251.57318,39.656958 254.96367,49.73559 256.5625,51.0625 258.61907,52.769301 258.45596,53.349169 253.8125,61.3125 249.97371,67.895863 244.71533,74.959107 241.03125,78.6875 z M 275.21875,51.375 C 274.43957,51.520826 273.72115,51.838462 273.09375,52.40625 270.23364,54.994621 269.48626,59.553278 271.4375,62.53125 272.64524,64.374489 273.91836,65 276.5625,65 279.69354,65 280.26683,64.575357 281.65625,61.25 283.01185,58.005586 283.05385,57.187195 281.84375,55.03125 280.32076,52.317867 277.5563,50.937523 275.21875,51.375 z M 276.71875,53.125 C 277.7107,53.284033 278.66982,54.073462 279.625,55.53125 280.95825,57.566046 281.05347,58.562062 280.15625,60.53125 278.93782,63.205414 275.26561,63.890614 273.1875,61.8125 271.50475,60.129751 271.69745,56.427547 273.5625,54.5625 274.68688,53.438115 275.7268,52.965967 276.71875,53.125 z"/>
</svg>
