<?xml version="1.0" encoding="UTF-8"?>
<svg xmlns="http://www.w3.org/2000/svg" viewBox="660.58 14.96 55.6 91.79">
  <path d="M689.82659 96.026834L685.15318 93.091668L682.65888 95.053686C681.28701 96.132795 678.18553 97.286962 675.76669 97.6185C672.0673 98.125558 670.93709 97.846366 668.65064 95.860649C665.86639 93.442603 664.18116 87.576244 665.37618 84.462084C665.93338 83.010023 666.36647 83.063374 669.43954 84.962636C676.47585 89.311313 682.99485 84.136894 682.99845 74.20034C683.00203 64.293408 676.40979 59.714063 670.83368 65.75C669.43641 67.2625 668.01634 69.2875 667.67798 70.25C666.77284 72.824726 665.09787 72.382447 663.89084 69.25C663.10299 67.205405 663.18403 65.345701 664.20676 62.0C665.36677 58.20521 666.35946 57.066093 670.54117 54.731202C674.63757 52.443947 676.26352 52.066943 679.89013 52.563488C684.85288 53.242975 685.96937 52.313035 685.96937 47.5C685.96937 43.315321 684.71166 41.760515 681.09655 41.476129C676.31935 41.100326 674.70491 39.236724 675.30175 34.786979C675.90243 30.308545 679.96528 25.120285 685.29547 22.024988C690.26901 19.1368 692.0 19.881553 692.0 24.909598C692.0 30.009045 693.11822 30.61285 696.80968 27.506687C700.9515 24.02158 702.0 24.336526 702.0 29.065741C702.0 33.641984 700.8719 36.301649 697.3082 40.127383C693.66922 44.033926 692.72244 52.542452 695.30087 58.166851C697.66107 63.315224 697.20642 73.402258 694.34358 79.405697C692.58848 83.086183 692.59168 83.228263 694.46066 84.594896C695.51754 85.367703 696.96367 86.0 697.67428 86.0C699.33251 86.0 703.0492 78.494512 705.95641 69.275059C708.26751 61.946033 710.06734 59.305548 711.9562 60.472927C713.64606 61.517319 713.15473 70.960119 711.01805 78.503182C705.40322 98.32503 700.25894 102.57894 689.82659 96.026834Z M702.29775 94.591885C705.44357 91.152 708.9511 81.808408 710.5879 72.508072C711.36305 68.103632 711.99788 64.3875 711.99863 64.25C711.99938 64.1125 711.41819 64.0 710.70709 64.0C709.99598 64.0 708.60675 66.5875 707.6199 69.75C706.63305 72.9125 704.51906 78.3125 702.92215 81.75C700.34677 87.293736 699.69385 88.0 697.1442 88.0C695.56323 88.0 693.0793 87.063615 691.62434 85.919145L688.97896 83.838289L691.15139 80.787394C695.71886 74.372973 696.6985 62.029391 692.88133 58.990015C691.19705 57.648931 691.05878 56.606428 691.64512 49.66995C692.26988 42.27911 692.5113 41.662334 696.1426 38.179935C699.7344 34.73541 702.4986 28.0 700.32042 28.0C699.80915 28.0 697.67134 29.575 695.56972 31.5C690.05524 36.551069 688.73854 36.191688 689.15808 29.75C689.48509 24.728984 689.38582 24.486755 686.88222 24.196337C684.8274 23.957976 683.37582 24.902208 680.13222 28.587127C675.65949 33.668415 675.47999 34.159835 677.03518 37.065741C677.78609 38.468826 679.13786 39.0 681.95763 39.0C685.52083 39.0 685.94215 39.294686 687.0115 42.534831C689.3495 49.619054 686.20678 59.606776 682.73278 56.132783C682.10975 55.509752 679.7775 55.006695 677.55 55.014877C672.73613 55.032559 666.46399 59.810216 665.42607 64.25C664.5693 67.914898 666.42546 67.836258 669.59159 64.073518C674.40812 58.349399 681.71577 59.590547 683.87827 66.5C686.04697 73.429278 685.92347 76.760897 683.30297 82.019554C680.4937 87.657025 677.76248 89.305082 672.04544 88.81253C668.0061 88.464521 666.7962 90.653347 669.52148 93.378622C671.94835 95.805488 680.17835 95.565394 682.5 93.0C684.86555 90.386096 686.56205 90.564675 692.0 94.0C697.59674 97.535637 699.50533 97.645337 702.29775 94.591885Z"/>
</svg>
