<?xml version="1.0" encoding="UTF-8"?>
<svg xmlns="http://www.w3.org/2000/svg" viewBox="3489.78 13.54 29.63 90.58">
  <path d="M 3515.8438,81.09375 C 3515.4593,80.805616 3514.9722,80.48273 3514.9688,80.3125 3514.96,79.873109 3513.61,77.98703 3511.9688,76.125 3508.37,72.041955 3508.302,70.969022 3511.3438,67.3125 3516.9798,60.53739 3517.4059,56.164214 3512.9688,50.78125 L 3509.9688,47.125 3512.2188,42.8125 C 3516.7326,34.223932 3515.0385,27.384021 3506.6875,20.625 L 3503,17.65625 3500.4375,20.0625 C 3495.9602,24.268739 3492,31.130474 3492,34.6875 3492,37.223721 3493.0039,39.145209 3496.125,42.53125 L 3500.25,47 3496.5625,51.5 C 3494.5355,53.973765 3492.6213,57.534601 3492.3125,59.4375 3491.8406,62.34585 3492.2084,63.36808 3494.6562,65.71875 3496.2578,67.256765 3498.4525,69.00896 3499.5312,69.625 3501.3896,70.686239 3501.2703,71.028861 3497.0938,76 3493.5583,80.208029 3492.588,82.188626 3492.2188,86.03125 3491.7769,90.62936 3491.9366,90.999182 3496.3438,95.40625 3498.9775,98.040025 3501.8807,100 3503.125,100 3504.387,100 3506.7477,98.373023 3508.7812,96.09375 L 3512.2812,92.15625 3512.5938,92.375 3514.4375,89.3125 C 3514.2312,88.68962 3514.4162,88.0677 3514.9375,87.09375 3515.2653,86.48134 3515.6019,86.233711 3515.9375,85.9375 L 3516.2188,85.125 3515.8438,81.09375 z M 3501.7812,22.21875 C 3502.5915,21.873363 3503.0131,22.553463 3503.0312,24.25 3503.0445,25.4875 3503.3237,30.4375 3503.6562,35.25 3504.3652,45.508758 3503.7694,45.988085 3497.7812,40 3493.1473,35.366059 3493.1721,33.497243 3498.0938,26.34375 3499.7529,23.93228 3500.971,22.564137 3501.7812,22.21875 z M 3506.4688,50.1875 C 3506.7549,49.901441 3508.004,50.151003 3509.25,50.71875 3512.3543,52.133147 3514.4025,56.246627 3513.5938,59.46875 3513.2313,60.912995 3511.4259,63.747956 3509.5625,65.78125 L 3506.1562,69.5 3505.4375,66.65625 C 3504.7149,63.777205 3505.5067,51.14962 3506.4688,50.1875 z M 3502.8438,50.40625 C 3503.5868,50.865485 3503.7072,57.421543 3503.125,65.25 3502.9461,67.656784 3501.6698,67.441573 3498.0625,64.40625 3493.9406,60.937858 3494.0641,57.717066 3498.4688,53.3125 3500.3798,51.401431 3502.3529,50.102859 3502.8438,50.40625 z M 3506.3438,74.0625 C 3508.0112,74.136939 3514,81.880515 3514,83.96875 3514,84.939679 3512.3125,88.032512 3510.25,90.84375 3508.1054,93.766842 3505.7132,95.991311 3504.6562,96 3502.9875,96.01372 3502.8666,95.393532 3503.4375,89.75 3504.7967,76.315814 3505.2236,74.012496 3506.3438,74.0625 z M 3501.2188,75.78125 C 3501.7608,75.513522 3502.1924,75.485845 3502.375,75.78125 3502.6928,76.295376 3502.4994,80.510264 3501.9688,85.125 3501.4382,89.739737 3501.0042,93.8375 3501,94.25 3500.9836,95.872827 3499.0586,94.866927 3496.5938,91.9375 3493.665,88.456904 3493.3764,86.088848 3495.4062,82.1875 3496.7967,79.515036 3499.5926,76.584433 3501.2188,75.78125 z M 3506.625,23.875 C 3507.4588,23.860455 3508.7131,25.058061 3510.5312,27.21875 3512.7988,29.913572 3513.1271,31.096485 3512.7188,34.71875 3512.4517,37.087397 3511.1794,40.584584 3509.875,42.5 3508.5706,44.415415 3507.0275,45.996242 3506.4688,46 3505.8589,46.004102 3505.3558,41.603649 3505.1875,35 3504.9901,27.255716 3505.2353,23.899242 3506.625,23.875 z"/>
</svg>
