<?xml version="1.0" encoding="UTF-8"?>
<svg xmlns="http://www.w3.org/2000/svg" viewBox="2821.25 31.03 35.95 61.35">
  <path d="M 2824.5625 37 L 2824.4688 39.9375 C 2826.2585 39.026723 2828.428 38.109004 2830.3438 37.53125 C 2834.5937 36.249576 2835.4448 36.225561 2837.4375 37.53125 C 2840.1694 39.321232 2841.9916 44.994578 2842 51.625 C 2842.0033 54.311189 2842.7308 57.85 2843.5938 59.5 C 2846.1136 64.317715 2846.6097 75.13959 2844.5625 80.5 C 2841.5352 88.42695 2836.3494 88.672281 2831.875 81.09375 C 2829.0299 76.274864 2829.7099 68.042893 2833.4062 62.1875 C 2836.4896 57.303113 2836.7646 51.283015 2834.1875 46 C 2832.1673 41.85875 2829.8297 41.391771 2824.375 44.1875 L 2824.3125 46.0625 C 2824.4308 45.996836 2824.5744 45.873284 2824.6875 45.8125 C 2828.7077 43.652469 2828.9592 43.638264 2830.8438 45.34375 C 2832.9211 47.223745 2835.4632 55.453634 2834.4688 57.0625 C 2834.145 57.586306 2832.8182 57.729272 2831.5312 57.40625 C 2830.1898 57.06959 2827.9767 57.51175 2826.3438 58.4375 L 2823.5 60.0625 L 2827.75 59.4375 C 2830.9423 58.972364 2832.005 59.151308 2832 60.15625 C 2831.9908 62.036477 2828.5026 67.093326 2825.7812 69.1875 L 2823.5 70.96875 L 2825.75 70.96875 C 2827.807 70.989078 2828 71.458059 2828 76.46875 C 2828 81.477054 2827.7781 82.021984 2825.5 82.59375 C 2824.1288 82.9379 2823.2526 83.58044 2823.5312 84.03125 C 2823.8098 84.482059 2825.3421 84.488825 2826.9375 84.03125 C 2829.3252 83.346478 2830.2112 83.593906 2832.0312 85.53125 C 2834.9664 88.655481 2839.434 89.593976 2842.3438 87.6875 C 2843.5912 86.87007 2845.7719 86.416887 2847.1875 86.6875 C 2848.6031 86.958113 2850.0656 86.695543 2850.4375 86.09375 C 2850.8598 85.410403 2850.1607 85 2848.5625 85 C 2847.0801 85 2846 84.438719 2846 83.65625 C 2846 80.873531 2848.2862 75.904239 2849.375 76.3125 C 2853.9386 78.023723 2855.207 78.152368 2854.7812 76.875 C 2854.5356 76.138011 2852.9007 75.12529 2851.1562 74.625 C 2848.102 73.749084 2848 73.500671 2848 68.34375 C 2848 63.948066 2848.3136 62.988068 2849.75 62.90625 C 2850.8509 62.843543 2850.5727 62.559711 2849 62.125 C 2846.0339 61.305146 2844.1543 56.662308 2844.0625 50 C 2843.9741 43.588496 2842.3802 38.707734 2839.5312 36.03125 C 2837.4073 34.035948 2836.4273 33.819576 2832.375 34.375 C 2830.1496 34.680019 2826.9694 35.805836 2824.5625 37 z "/>
</svg>
