<?xml version="1.0" encoding="UTF-8"?>
<svg xmlns="http://www.w3.org/2000/svg" viewBox="1978.97 12.45 93.26 91.72">
  <path d="M2011.1194 93.439035L2007.8541 86.878071L2010.5918 81.689035C2012.0975 78.835066 2013.9275 75.375 2014.6586 74.0C2016.5621 70.419591 2016.3315 69.053193 2012.971 64.0C2007.9279 56.416595 2006.7636 55.0 2005.5739 55.0C2003.6233 55.0 1997.9635 63.259356 1996.8303 67.759499C1995.4972 73.053685 1994.2967 73.91066 1992.9981 70.495075C1990.999 65.2369 1991.834 59.217193 1995.6471 51.397206L1999.2943 43.917746L1998.2368 36.381895C1997.6552 32.237177 1996.9186 28.585272 1996.5999 28.26655C1996.2812 27.947829 1994.24 28.4899 1992.064 29.471153C1989.8879 30.452406 1987.3981 30.983025 1986.5311 30.650306C1983.2139 29.377362 1983.3532 24.255285 1986.8216 19.972011C1988.6586 17.70341 1988.6856 17.701197 1991.8343 19.56117C1993.5754 20.589695 1995.0 21.784192 1995.0 22.215608C1995.0 23.960885 1998.4432 22.817075 2002.2388 19.810906L2006.2653 16.621811L2009.7469 20.42088C2013.1089 24.089466 2013.2002 24.396489 2012.4043 29.359974C2010.8577 39.006015 2011.2842 43.116023 2014.017 44.898541C2015.3673 45.779343 2018.8457 48.6375 2021.7467 51.25C2024.6476 53.8625 2027.3539 55.984054 2027.7606 55.964565C2030.9336 55.812502 2040.7295 46.925869 2041.6155 43.395678C2041.951 42.058957 2041.4459 37.654675 2040.493 33.608384L2038.7605 26.251492L2041.4031 23.285588C2042.8566 21.654341 2044.6321 19.517744 2045.3489 18.537595C2046.5675 16.87098 2046.8898 16.964343 2050.3227 19.978465L2053.9934 23.201423L2057.5539 21.100712C2063.6582 17.499049 2068.0 18.736324 2068.0 24.077555C2068.0 27.642041 2065.7002 29.363789 2060.8391 29.438498C2057.6407 29.487654 2056.5597 30.001866 2055.4541 32.0C2053.4889 35.55176 2053.683 41.148056 2056.0 47.740324C2059.3111 57.161078 2058.0621 72.984712 2053.9451 73.773564C2052.8028 73.992448 2051.8736 72.2747 2050.4429 67.299013C2049.1604 62.838687 2047.932 60.418002 2046.8448 60.20863C2044.8797 59.830175 2038.0 65.597569 2038.0 67.623464C2038.0 69.366699 2042.1372 76.039048 2044.364 77.887125C2045.2638 78.633895 2045.9961 79.977289 2045.9914 80.872445C2045.9763 83.723424 2038.0984 99.0 2036.6432 99.0C2033.8716 99.0 2032.7773 96.254645 2033.4883 91.085044C2034.1084 86.576534 2033.879 85.684547 2031.0382 81.555475C2029.3143 79.049964 2027.6528 77.0 2027.3459 77.0C2027.0389 77.0 2025.0063 78.411007 2022.8288 80.13557L2018.8698 83.27114L2019.5402 89.530342C2020.1337 95.07294 2019.9694 96.030567 2018.1052 97.894772C2016.9474 99.052647 2015.6366 100.0 2015.1924 100.0C2014.7481 100.0 2012.9153 97.047566 2011.1194 93.439035Z M1991.7775 27.443296C1994.5137 25.526767 1994.6268 23.405803 1992.0657 22.035184C1989.1164 20.456748 1988.3473 20.747326 1987.025 23.939643C1985.0431 28.724285 1987.4331 30.486226 1991.7775 27.443296Z M2017.6225 94.541241C2017.9304 93.738924 2017.6485 91.465026 2016.9961 89.488134C2015.271 84.261105 2016.3996 81.521107 2022.1498 76.975851C2026.9957 73.145326 2027.3649 73.020243 2029.1244 74.612537C2033.3109 78.401298 2036.0 84.665085 2036.0 90.62807C2036.0 94.890808 2036.2931 96.106939 2037.1208 95.279183C2038.206 94.193987 2042.986 83.221731 2042.9954 81.794406C2042.9979 81.406329 2041.2 78.519226 2039.0 75.378623C2036.8 72.238019 2035.0 68.894824 2035.0 67.9493C2035.0 66.06652 2041.893 58.930407 2045.6579 56.915486C2047.7077 55.818497 2048.2105 55.905614 2049.4263 57.568362C2050.198 58.623692 2051.3358 61.177536 2051.9548 63.243572C2053.2484 67.561147 2054.5591 68.086563 2055.2337 64.557924C2055.7847 61.675696 2054.8935 55.923006 2052.5351 47.138527C2051.0534 41.619586 2050.9938 39.939114 2052.0848 34.450244C2053.2936 28.36873 2053.2485 27.985608 2050.9212 24.56855C2049.5895 22.613364 2047.9604 21.010591 2047.3009 21.006833C2046.6414 21.003075 2044.9226 22.546048 2043.4813 24.435662C2041.406 27.156518 2041.0744 28.270514 2041.8876 29.789998C2042.4524 30.845269 2043.2238 34.72833 2043.6019 38.419023L2044.2894 45.129374L2039.8947 49.644502C2037.4776 52.127823 2033.6009 55.283618 2031.2798 56.657382C2026.4681 59.505199 2027.6936 59.994474 2016.2008 50.637361L2009.0 44.774722L2009.0 39.401712C2009.0 36.446557 2009.5554 31.952165 2010.2342 29.414175C2011.4348 24.925408 2011.3923 24.734155 2008.6746 22.396532C2006.4512 20.484076 2005.4846 20.205449 2003.9404 21.031892C2000.2531 23.005266 1999.1083 26.07069 2000.031 31.5C2001.729 41.490935 2001.2368 45.645836 1997.5 52.866711C1995.575 56.586513 1994.0 60.16324 1994.0 60.814994C1994.0 63.405109 1996.6789 61.701773 2000.0 57.0C2001.925 54.274717 2004.1536 52.034829 2004.9524 52.02247C2006.7499 51.99466 2013.0 57.927303 2013.0 59.661371C2013.0 60.359341 2014.367 62.487369 2016.0378 64.390323C2019.5978 68.444866 2019.4085 70.745337 2014.8995 78.223078C2010.7259 85.144709 2010.4487 87.246712 2013.0894 91.94536C2015.501 96.236132 2016.7071 96.926818 2017.6225 94.541241Z M2063.4349 27.024751C2066.2732 25.945617 2066.9344 22.572534 2064.4913 21.635041C2062.679 20.939604 2058.4894 22.39918 2057.4444 24.090021C2057.0071 24.797547 2057.4632 25.865512 2058.5384 26.651704C2060.7351 28.257992 2060.282 28.223475 2063.4349 27.024751Z"/>
</svg>
