<?xml version="1.0" encoding="UTF-8"?>
<svg xmlns="http://www.w3.org/2000/svg" viewBox="3228.53 12.98 29.42 86.94">
  <path d="M 3232.125 78.15625 L 3233.375 87.9375 L 3230.5312 94.53125 L 3230.5625 95.34375 C 3232.1543 95.03941 3234.302 95.096014 3238.4062 95.40625 C 3245.8061 95.965586 3246.8537 95.8126 3248.4375 94.0625 C 3250.2405 92.070216 3251.8594 84.259414 3254 67.25 C 3255.1615 58.0208 3255.9532 19.658404 3255 18.6875 C 3254.7238 18.406261 3253.2841 17.869343 3251.8125 17.5 C 3249.5547 16.933327 3248.9014 17.279636 3247.6562 19.6875 C 3245.7272 23.41791 3245.1445 28.444079 3244.5 46 C 3243.8954 62.470474 3242.462 76.674584 3241.0312 80.4375 C 3240.3543 82.218221 3239.2991 83 3237.5938 83 C 3236.0539 83 3234.4753 81.397778 3232.125 78.15625 z M 3251.0625 20.21875 C 3251.5525 20.156055 3252.094 20.195207 3252.5625 20.375 C 3254.0924 20.962066 3254.2015 22.402452 3253.6562 34.28125 C 3253.3223 41.557193 3252.8157 49.525 3252.5312 52 C 3252.2467 54.475 3251.5167 61.45 3250.9062 67.5 C 3249.6429 80.018314 3247.6916 89.448944 3245.9375 91.5625 C 3245.2787 92.356382 3244.0201 92.908589 3243.125 92.8125 C 3242.2298 92.716411 3239.5875 92.491785 3237.25 92.28125 C 3232.4626 91.850056 3232.5869 92.006876 3234.1562 88.5625 C 3235.0001 86.7107 3236.0773 86 3238.125 86 C 3240.0078 86 3241.4928 85.195063 3242.5625 83.5625 C 3244.3519 80.831419 3246.2722 64.40669 3247.875 38.125 C 3248.4245 29.114302 3249.3251 21.268582 3249.875 20.71875 C 3250.1499 20.443834 3250.5725 20.281445 3251.0625 20.21875 z "/>
</svg>
