<?xml version="1.0" encoding="UTF-8"?>
<svg xmlns="http://www.w3.org/2000/svg" viewBox="1275.77 18.86 27.12 69.13">
  <path d="M 1295.0938,83.03125 C 1295.1716,82.448671 1295.9508,80.557956 1297,78.5 1299.5735,73.452209 1299.5102,70.692267 1296.75,65.78125 L 1294.5312,61.8125 1297.25,56.90625 C 1300.8852,50.395253 1300.8249,47.395244 1297,45.21875 1293.5753,43.270007 1293.359,42.37891 1295.625,39.875 1296.515,38.891511 1297.4472,36.097454 1297.7188,33.6875 1298.1923,29.486976 1298.0304,29.163782 1293.75,25.65625 1291.2941,23.643884 1288.6092,22 1287.7812,22 1285.9356,22 1279,32.221457 1279,34.9375 1279,36.017971 1280.575,38.094231 1282.5,39.5625 1284.425,41.030769 1286,42.761115 1286,43.40625 1286,44.051385 1284.425,46.240388 1282.5,48.28125 1277.8501,53.211036 1277.7699,57.000039 1282.25,60.09375 1284.0375,61.328091 1285.6344,62.466797 1285.8125,62.59375 1285.9905,62.720703 1284.753,64.728821 1283.0625,67.0625 1279.0533,72.596908 1279.149,75.640861 1283.4688,80.6875 L 1286.9375,84.75 1286.8438,84.84375 1295.0938,83.03125 z M 1290.875,26.53125 C 1291.4743,26.683463 1292.2879,27.388231 1293.8125,28.8125 1296.7103,31.51946 1296.912,32.093251 1295.9375,34.65625 1295.3441,36.217222 1294.1533,38.286494 1293.2812,39.25 1291.1825,41.569093 1290.3604,41.442584 1289.6562,38.75 1289.105,36.641742 1288.991,36.646564 1287.75,38.34375 1286.4936,40.061998 1286.3129,40.04054 1283.7188,38 1280.3812,35.374731 1280.3298,33.902473 1283.4062,29.375 1285.5912,26.159497 1285.8968,25.984696 1286.8438,27.65625 1287.8536,29.439142 1287.9318,29.439442 1289.25,27.65625 1289.8954,26.783168 1290.2757,26.379037 1290.875,26.53125 z M 1292.2188,46.1875 C 1292.7991,46.16876 1293.6154,46.43403 1294.9062,46.96875 1297.2759,47.95028 1298,48.881935 1298,50.9375 1298,53.739024 1291.9894,60.645738 1290.6875,59.34375 1289.6913,58.347562 1289.8896,48.748933 1290.9375,47.09375 1291.31,46.505311 1291.6384,46.20624 1292.2188,46.1875 z M 1286.3125,47.28125 C 1287.9988,46.975785 1289.0114,49.456604 1288.75,54.40625 1288.4579,59.935552 1287.6995,60.576713 1283.75,58.4375 1280.5711,56.71564 1280.3151,54.95354 1282.6875,50.9375 1284.0368,48.65329 1285.3007,47.464529 1286.3125,47.28125 z M 1292.4062,65.15625 C 1293.202,64.893407 1294.2514,65.734263 1295.5312,67.6875 1297.8367,71.206121 1297.6464,75.283461 1295,79 1293.8258,80.649025 1292.486,82 1292.0312,82 1290.9412,82 1290.2397,74.6048 1290.8125,69.25 1291.076,66.787012 1291.6105,65.419093 1292.4062,65.15625 z M 1286.7812,66.34375 C 1288.3161,65.949197 1289,68.264769 1289,73.5625 1289,80.871463 1287.6485,81.879913 1284.0312,77.28125 1281.6196,74.215421 1281.9565,70.695137 1284.9688,67.625 1285.6786,66.90157 1286.2696,66.475268 1286.7812,66.34375 z M 1288.5,30.84375 C 1288.336,30.749414 1288.2188,31.55625 1288.2188,33 1288.2188,34.925 1288.436,35.7125 1288.6875,34.75 1288.9391,33.7875 1288.9391,32.2125 1288.6875,31.25 1288.6246,31.009375 1288.5547,30.875195 1288.5,30.84375 z"/>
</svg>
