<?xml version="1.0" encoding="UTF-8"?>
<svg xmlns="http://www.w3.org/2000/svg" viewBox="142.99 18.66 62.48 82.3">
  <path d="M152.34422 95.208359C151.71774 94.818762 150.19952 91.185978 148.9704 87.135507C145.83121 76.790522 146.47406 64.459953 150.51178 57.570107C152.04125 54.960262 153.89507 52.593761 154.63137 52.311215C155.36767 52.028669 158.94805 53.191048 162.58777 54.894279C166.22749 56.597509 169.60922 57.741515 170.10272 57.436514C170.59623 57.131512 171.0 53.983524 171.0 50.440983L171.0 44.0L167.49889 44.0C164.71083 44.0 163.18335 43.160786 159.99889 39.879418C155.40861 35.149449 154.86744 31.70953 158.07258 27.634859C161.04604 23.854713 167.16712 23.971151 173.04636 27.919695L177.39368 30.839391L181.44684 28.448325C191.70326 22.397792 190.99672 22.607282 193.88418 24.760629C197.70005 27.60634 199.209 37.233424 196.88438 43.901834C195.53131 47.783243 192.33673 47.847115 192.77809 43.983935C193.18746 40.400794 191.06039 36.0 188.91915 36.0C187.90813 36.0 185.93773 37.232902 184.54047 38.739782C182.6071 40.824837 181.99674 42.557371 181.98635 45.989782C181.97884 48.470402 181.74798 51.4 181.47334 52.5C181.1987 53.6 181.36441 55.09568 181.84158 55.823733C182.53778 56.885968 183.37992 56.738547 186.10459 55.077471C192.60499 51.114538 196.20862 53.181054 199.92006 63.0C202.43788 69.661107 202.62681 78.526305 200.41004 85.990982C198.8279 91.318605 196.35559 96.0 195.12412 96.0C194.7689 96.0 194.47826 91.610656 194.47826 86.245903C194.47826 77.382719 194.22423 76.058327 191.69698 71.745903C190.16727 69.135656 188.49105 67.0 187.97203 67.0C186.22551 67.0 181.83368 74.821088 181.2856 78.907389C180.90855 81.718445 181.24072 83.718435 182.37116 85.443712C183.26702 86.810969 184.0 89.534589 184.0 91.496202C184.0 96.492112 181.50406 97.2181 178.31917 93.148568C175.19435 89.155792 172.40701 89.112657 170.20349 93.022975C167.98221 96.964813 164.64248 96.746761 164.17192 92.629171C163.67904 88.316299 164.78804 85.100937 167.69894 82.403212L170.31699 79.976885L168.40849 74.259678C166.5708 68.754566 164.00539 65.0 162.08156 65.0C160.40423 65.0 157.18428 71.434514 156.57697 76.0C156.24773 78.475 155.80407 83.581657 155.59105 87.348127C155.19336 94.379803 154.33876 96.44872 152.34422 95.208359Z M174.30122 87.31248C175.51055 87.601809 177.5125 88.152347 178.75 88.535898C181.57385 89.411123 181.70808 87.71564 179.0795 84.373935C176.74408 81.404931 177.47743 77.968387 181.99843 70.695618C183.6493 68.039938 185.0 65.473567 185.0 64.992571C185.0 62.742542 187.4439 63.048778 190.17284 65.640761C194.34351 69.60211 197.0 75.173876 197.0 79.960162C197.0 82.182073 197.44143 84.0 197.98095 84.0C200.9208 84.0 200.345 68.829033 197.12923 61.559249C194.29817 55.159157 192.57522 54.612217 186.07514 58.050194C183.0999 59.623839 180.29084 60.679752 179.8328 60.396666C179.37476 60.113581 179.0 55.724174 179.0 50.642428L179.0 41.402891L183.03713 37.201445C185.25755 34.89065 187.53713 33.0 188.10287 33.0C190.04246 33.0 193.0 35.0704 193.0 36.428195C193.0 37.175 193.675 38.045044 194.5 38.361626C197.06105 39.344393 196.96066 30.718994 194.37783 27.865C192.05202 25.295009 191.33633 25.449697 184.5 30.0C181.2 32.196499 178.13611 33.995067 177.69136 33.996817C177.24661 33.998568 175.22161 32.681301 173.19136 31.069559C168.33878 27.217267 162.62604 26.123466 159.96001 28.536194C157.02014 31.196734 157.56704 33.802332 161.99465 38.229942C165.54158 41.776871 166.36917 42.153325 169.37862 41.588748C173.37968 40.838145 174.00552 41.821362 173.98899 48.831787C173.97182 56.116169 172.90698 61.0 171.33591 61.0C170.56459 61.0 167.81097 59.939376 165.21676 58.643057C157.30851 54.69134 155.44296 54.569186 153.10673 57.850106C150.30012 61.791636 148.78768 69.351547 149.48459 75.9554C150.21486 82.875319 151.81732 89.0 152.89759 89.0C153.34886 89.0 153.95594 85.187441 154.24666 80.527647C154.84006 71.016168 157.10114 65.395201 161.28722 63.025058C163.69039 61.664391 164.07559 61.72238 166.25893 63.773527C168.38335 65.769313 174.0 78.143044 174.0 80.827441C174.0 81.416368 172.46409 83.069712 170.58687 84.501539C166.98717 87.24716 165.60156 89.546296 166.5863 91.139641C166.91234 91.667178 168.28685 90.903515 169.64076 89.442613C171.36117 87.586263 172.76454 86.944833 174.30122 87.31248Z"/>
</svg>
