<?xml version="1.0" encoding="UTF-8"?>
<svg xmlns="http://www.w3.org/2000/svg" viewBox="3386.68 11.29 36.68 91.29">
  <path d="M3393.9249 97.75C3393.8836 97.6125 3393.7233 95.025 3393.5686 92.0C3393.4139 88.975 3392.3229 83.816242 3391.1442 80.536093C3388.7224 73.797022 3388.6805 74.03499 3394.6317 60.743727C3399.3824 50.133368 3399.7733 47.443093 3397.5 41.0C3396.675 38.661701 3396.0 35.186882 3396.0 33.278181C3396.0 28.660827 3398.728 19.470642 3400.5466 17.961319C3402.363 16.453838 3402.3545 17.260023 3400.4892 23.408931C3398.5932 29.658914 3398.5968 35.605862 3400.5 41.0C3402.7041 47.247134 3402.4812 48.567478 3396.9516 62.019582C3392.059 73.922235 3391.9473 74.411987 3393.3306 77.900491C3395.1697 82.538646 3397.36 95.608496 3396.5246 96.96017C3395.9601 97.873571 3394.1291 98.429854 3393.9249 97.75Z M3402.3603 90.25C3402.2942 87.0875 3401.4724 82.301343 3400.5342 79.614096C3398.7242 74.429714 3398.948 71.116387 3401.6563 63.0C3404.8522 53.422423 3408.3696 47.564359 3412.0 45.773023C3416.8139 43.397745 3419.9674 39.59142 3419.2846 36.980447C3418.7469 34.92428 3418.6762 34.936041 3415.9665 37.53211C3412.9779 40.395325 3410.3419 40.496533 3408.652 37.812943C3407.2653 35.610817 3409.2898 27.522506 3412.7996 21.242878C3416.0434 15.439013 3416.8608 17.224973 3413.9132 23.676048C3411.1712 29.677052 3410.1556 37.0 3412.0652 37.0C3412.7942 37.0 3414.6557 35.787967 3416.2019 34.306593C3419.5391 31.109306 3420.9844 31.965015 3421.1833 37.255961C3421.3573 41.88314 3418.9819 45.458401 3414.0684 47.965092C3410.0013 50.040004 3407.135 54.785672 3403.6076 65.284947C3401.762 70.778154 3401.6297 73.12644 3402.9233 77.429002C3406.1529 88.171224 3406.4517 96.0 3403.6319 96.0C3402.9109 96.0 3402.4357 93.850739 3402.3603 90.25Z M3402.6667 40.333333C3402.3 39.966667 3402.0 37.051636 3402.0 33.855487C3402.0 27.484446 3406.2245 17.0 3408.7917 17.0C3409.5479 17.0 3409.9937 17.3375 3409.7823 17.75C3405.3361 26.425563 3404.7699 28.544909 3405.2618 34.672432C3405.6298 39.257635 3405.4343 41.0 3404.5515 41.0C3403.8815 41.0 3403.0333 40.7 3402.6667 40.333333Z"/>
</svg>
