<?xml version="1.0" encoding="UTF-8"?>
<svg xmlns="http://www.w3.org/2000/svg" viewBox="4481.15 11.41 59.56 95.44">
  <path d="M4501.5199 96.144803C4500.7748 90.72746 4502.7483 84.417544 4505.5204 83.353791C4506.798 82.863552 4506.9971 81.883911 4506.4833 78.617849C4505.7898 74.209748 4500.2725 65.005134 4498.3218 65.001933C4495.8964 64.997953 4492.6704 76.099148 4492.5832 84.749565C4492.4659 96.377527 4489.6741 95.365046 4486.1336 82.410588C4483.8526 74.06463 4487.1321 55.269977 4491.3519 52.505098C4493.289 51.235863 4494.2824 51.297614 4499.8616 53.034054C4508.9612 55.866159 4509.0022 55.851384 4508.9863 49.75C4508.9638 41.074234 4508.4772 40.253308 4502.9031 39.486671C4497.1396 38.693994 4494.0 35.529474 4494.0 30.513025C4494.0 26.310167 4497.6746 20.974809 4501.696 19.33864C4504.6366 18.142259 4505.1319 18.240146 4507.8926 20.563072C4509.5429 21.951695 4511.1725 23.968076 4511.5139 25.04392C4512.3492 27.675464 4514.54 27.507451 4517.7092 24.568816C4524.593 18.185847 4533.2412 15.74405 4534.3938 19.857971C4536.5334 27.494432 4535.6989 37.525789 4532.7703 39.373104C4531.3877 40.245189 4530.4005 39.811263 4527.607 37.103691L4524.1531 33.756024L4521.5765 36.332558C4519.2612 38.647864 4519.0 39.677285 4519.0 46.48593C4519.0 55.23057 4520.1287 56.468706 4524.9624 53.026746C4528.3218 50.634696 4532.8709 50.621274 4534.0278 53.0C4537.3238 59.777047 4537.9994 62.722222 4537.9924 70.283927C4537.9789 85.058417 4535.0571 96.525929 4532.0883 93.457143C4531.579 92.930714 4530.6331 88.007479 4529.9862 82.516619C4528.8166 72.589163 4527.4767 68.470453 4524.655 66.128609C4522.8816 64.656823 4522.834 64.731424 4520.1355 73.209097C4517.4876 81.528106 4517.4899 82.081769 4520.1869 85.510514C4521.7617 87.512493 4522.3067 89.428915 4522.1339 92.356749C4521.7614 98.670966 4520.2877 99.673982 4516.7299 96.03494C4515.0979 94.365723 4513.3365 93.0 4512.8156 93.0C4510.7297 93.0 4507.9391 95.217001 4506.4847 98.029644C4504.1697 102.50634 4502.2971 101.79542 4501.5199 96.144803Z M4507.7271 93.0C4510.4115 90.888455 4515.4575 90.31327 4516.5 92.0C4516.8399 92.55 4517.7665 93.0 4518.559 93.0C4520.8786 93.0 4520.2391 88.568583 4517.5868 86.262419C4515.5197 84.465094 4515.2937 83.686286 4516.0107 80.832083C4519.2888 67.783709 4521.8464 61.0 4523.4877 61.0C4525.0034 61.0 4529.397 68.168933 4530.3739 72.236042C4530.7354 73.740865 4531.2674 77.525949 4531.5562 80.647339C4532.6041 91.972273 4534.6755 90.042104 4535.6008 76.878524C4536.147 69.107746 4535.9351 66.163173 4534.4859 61.391692C4531.8473 52.703927 4531.4273 52.457225 4524.598 55.583749C4516.8942 59.110682 4516.4083 58.523025 4516.8391 46.199861C4517.1478 37.366787 4517.4103 36.254258 4519.7762 33.75C4521.2051 32.2375 4523.3775 31.0 4524.6037 31.0C4525.8687 31.0 4527.7263 32.189644 4528.8977 33.75C4530.6356 36.06494 4531.121 36.262695 4531.9658 35.0C4533.4066 32.846539 4533.2322 23.699872 4531.7108 21.619171C4529.8129 19.023679 4526.3936 20.285939 4519.586 26.095105C4516.3724 28.837366 4513.2535 30.917825 4512.655 30.718345C4512.0566 30.518866 4510.1643 28.363133 4508.4499 25.927828C4506.7354 23.492522 4504.5934 21.356529 4503.6897 21.181176C4500.7941 20.619285 4496.9982 25.466747 4497.0153 29.704545C4497.0369 35.057033 4498.1902 36.315153 4503.6538 36.946302C4507.4653 37.3866 4508.7053 38.01201 4509.7087 40.0C4511.3479 43.247624 4511.374 55.106208 4509.747 57.331351C4508.5769 58.931513 4508.0638 58.875933 4501.997 56.491841C4493.2833 53.067603 4491.984 53.387971 4489.7971 59.5C4487.9088 64.777382 4487.245 80.415332 4488.8666 81.417583C4489.3433 81.712173 4490.246 79.400225 4490.8727 76.279921C4492.5639 67.858563 4495.7441 61.81914 4498.289 62.195591C4501.0699 62.606952 4506.4972 70.567748 4508.4271 77.066315C4510.4929 84.022933 4510.4635 84.229167 4507.1346 86.122607C4504.4769 87.6343 4502.4649 92.325093 4503.651 94.244303C4504.3489 95.373508 4504.9385 95.193504 4507.7271 93.0Z"/>
</svg>
