<?xml version="1.0" encoding="UTF-8"?>
<svg xmlns="http://www.w3.org/2000/svg" viewBox="337.88 21.43 36.13 54.42">
  <path d="M 339.875,59.65625 340.0625,66.15625 C 340.13821,64.601053 340.65894,64.004659 342.25,64 347.25082,63.985355 352.78132,58.35744 355.40625,50.625 357.89697,43.287936 356.1159,40.259851 350.9375,43.03125 348.11385,44.542422 348.50796,46.344704 351.5,45.59375 353.67881,45.046902 354,45.301111 354,47.53125 354,50.930059 350.57122,57.483329 347.78125,59.4375 346.55151,60.298845 344.31332,61 342.78125,61 341.41009,61 340.59156,60.541415 339.875,59.65625 z M 340.09375,67.21875 340.28125,73.375 346.03125,71.84375 C 353.52556,69.88421 356.83266,66.817463 359.46875,59.375 362.46672,50.910873 362.98733,49.881512 363.9375,50.46875 365.98088,51.731632 366.10714,48.664835 364.09375,46.65625 361.38318,43.95216 360.69776,44.85278 358.625,54.03125 357.80263,57.672817 356.17824,62.24349 355.03125,64.1875 353.23483,67.2322 352.19314,67.876131 347.375,68.84375 341.59377,70.004789 340.30155,69.745857 340.09375,67.21875 z M 359.46875,24.25 C 358.04218,24.600197 356.27202,25.67503 353.65625,27.59375 347.67581,31.980516 348.25422,33.196902 354.5625,29.5 360.07784,26.2678 361.87309,26.832908 366.3125,33.0625 368.88007,36.665429 372,38.321678 372,36.09375 372,35.019853 365.53415,27.040567 363.21875,25.25 361.96573,24.281 360.89532,23.899803 359.46875,24.25 z M 360.15625,32 C 359.69149,32 358.47408,32.948345 357.4375,34.09375 356.40092,35.239154 354.07992,36.779719 352.28125,37.53125 350.48259,38.282781 349,39.359436 349,39.9375 349,41.630195 350.35473,41.189735 355.40625,37.84375 L 360.15625,34.6875 363.8125,38.34375 C 365.91461,40.445859 367.80139,41.604861 368.3125,41.09375 369.1904,40.21585 361.82297,32 360.15625,32 z"/>
</svg>
