<?xml version="1.0" encoding="UTF-8"?>
<svg xmlns="http://www.w3.org/2000/svg" viewBox="3263.41 11.39 58.07 91.36">
  <path d="M3283.7546 95.300033L3281.0546 92.600067L3278.7129 94.800033C3276.0844 97.26931 3274.0 97.661644 3274.0 95.687091C3274.0 94.069143 3279.1633 89.0 3280.8113 89.0C3281.4724 89.0 3282.9914 90.125 3284.1869 91.5C3288.0854 95.98361 3289.7127 93.447017 3285.9812 88.703177C3281.8662 83.471844 3280.7072 60.125054 3283.9767 48.326473C3287.3851 36.027007 3291.2687 31.738257 3297.335 33.574539C3302.276 35.070153 3307.0092 42.077677 3306.9924 47.872124C3306.9882 49.317456 3306.1024 53.401735 3305.024 56.948299C3303.9456 60.494864 3303.2381 63.571408 3303.4517 63.785063C3304.4277 64.761015 3307.5115 58.172536 3308.6736 52.628763C3310.3487 44.63753 3310.3164 41.896128 3308.4721 35.552006C3306.7239 29.538426 3303.8456 26.399209 3298.3448 24.506785C3295.114 23.395299 3293.9615 23.408912 3291.1279 24.592029C3289.2732 25.366413 3287.6295 26.0 3287.4751 26.0C3287.3208 26.0 3285.6512 28.3625 3283.765 31.25C3279.2644 38.139642 3277.2455 47.682661 3276.4134 66.0C3275.7249 81.153433 3274.0234 90.211643 3271.3002 93.220752C3269.5547 95.149486 3267.0 95.612434 3267.0 94.0C3267.0 93.45 3267.3987 93.0 3267.8861 93.0C3269.0912 93.0 3272.0208 86.646425 3272.6753 82.613372C3273.1528 79.671237 3272.8848 79.194918 3270.1042 78.043142C3266.0496 76.363671 3266.13 74.788011 3270.25 75.18603C3273.3365 75.484204 3273.5153 75.315819 3273.8051 71.839058C3274.0694 68.666486 3273.7026 67.937374 3271.0551 66.373451C3267.2914 64.150206 3267.1195 62.750541 3270.6627 63.178434C3272.8429 63.441723 3273.5022 62.972022 3274.3005 60.586684C3275.174 57.976908 3274.9477 57.403859 3272.1288 55.086684C3268.2893 51.930602 3268.1108 50.56001 3271.6551 51.449582C3274.8164 52.243019 3275.9628 50.875592 3275.9847 46.285184C3275.9952 44.083405 3275.3698 42.733078 3274.0 42.0C3272.9 41.411298 3272.0 40.254632 3272.0 39.429632C3272.0 38.256504 3272.4215 38.155214 3273.9343 38.964816C3276.9799 40.594797 3277.5176 40.259299 3278.6482 36.023565C3279.5651 32.58847 3279.4571 31.818616 3277.8548 30.368577C3276.0549 28.739678 3275.3126 26.0 3276.6713 26.0C3277.0405 26.0 3278.1918 26.768583 3279.2298 27.707962C3282.0654 30.274169 3284.5627 28.247395 3284.2799 23.609373C3284.055 19.921408 3284.7668 19.166839 3286.6728 21.072796C3288.4778 22.877841 3295.6472 20.423591 3296.4018 17.742321C3297.0199 15.545986 3297.0633 15.539809 3298.5164 17.44113C3299.3324 18.508751 3300.0 19.940926 3300.0 20.623742C3300.0 22.479857 3303.3677 23.190888 3306.5066 21.997488C3310.0516 20.649689 3311.1819 21.760166 3308.2627 23.722828C3306.0927 25.181803 3306.0777 25.306433 3307.7627 27.867806C3308.7182 29.320232 3309.9954 31.40665 3310.6009 32.50429C3311.2063 33.601931 3312.8938 34.64239 3314.3509 34.816422C3317.4785 35.190003 3317.835 36.548367 3315.0 37.289749C3313.4277 37.700927 3313.0 38.653765 3313.0 41.745865C3313.0 44.970757 3313.4502 45.884077 3315.5 46.818046C3318.8364 48.338211 3318.6841 50.147306 3315.25 49.787849C3312.693 49.520206 3312.434 49.842126 3311.5592 54.373934C3310.7624 58.502066 3310.8772 59.437045 3312.3092 60.484176C3314.7174 62.245033 3314.4077 63.0 3311.2773 63.0C3309.3228 63.0 3307.5405 64.177385 3304.9609 67.172512C3302.5865 69.929426 3300.9331 71.076686 3300.0875 70.554091C3298.501 69.573578 3299.0126 66.643229 3302.3889 57.371163C3304.6081 51.277063 3304.8534 49.538614 3304.0791 45.394102C3303.0183 39.715773 3299.4131 36.0 3294.9646 36.0C3292.592 36.0 3291.6805 36.707178 3290.1306 39.75C3286.2707 47.328396 3284.9998 53.944667 3285.0056 66.431501C3285.0117 79.656275 3285.9774 84.764564 3288.9861 87.48738C3291.5716 89.827287 3292.7697 95.898515 3290.8818 97.094192C3288.5152 98.593066 3286.5539 98.099325 3283.7546 95.300033Z"/>
</svg>
