<?xml version="1.0" encoding="UTF-8"?>
<svg xmlns="http://www.w3.org/2000/svg" viewBox="2301.2 13.4 31.42 90.83">
  <path d="M2322.6098 97.75C2322.4298 97.0625 2321.7689 94.893051 2321.1412 92.929002C2320.5135 90.964953 2320.0 88.657553 2320.0 87.801447C2320.0 86.94534 2319.3024 85.665945 2318.4498 84.958347C2316.423 83.276266 2314.7002 84.951078 2311.139 92.065473C2308.0056 98.325178 2306.4015 99.166851 2304.915 95.331282C2303.1997 90.905536 2304.563 83.222032 2308.0625 77.592479C2310.4969 73.676495 2311.063 71.822657 2310.6724 69.045899C2310.3981 67.095655 2309.6378 61.675 2308.983 57.0C2308.0905 50.627549 2308.0713 46.809107 2308.9066 41.74453C2310.1034 34.488233 2314.0449 23.917623 2317.0291 19.961402L2318.8663 17.525777L2321.3827 19.889777C2327.3564 25.501768 2330.6236 38.328265 2329.6408 52.309586C2329.2839 57.387198 2328.5572 63.057327 2328.0258 64.909872C2327.4945 66.762418 2327.2914 73.582105 2327.5744 80.064733C2327.9722 89.176222 2327.75 92.662567 2326.5955 95.425665C2325.1003 99.004174 2323.2248 100.09792 2322.6098 97.75Z M2310.4591 89.25C2313.9004 82.692419 2315.5742 80.767798 2317.4929 81.162134C2319.253 81.523883 2321.2263 84.694103 2322.6318 89.418286C2323.1093 91.023343 2324.0625 92.523343 2324.75 92.751619C2326.4315 93.309939 2326.3055 82.757524 2324.5739 78.0C2323.8348 75.969205 2323.6115 73.450568 2324.0421 72.0C2325.4967 67.099952 2326.9349 58.389429 2327.4729 51.222283C2328.1011 42.852095 2326.9012 41.359321 2322.3945 44.904293C2319.0233 47.556137 2318.7949 47.539731 2315.0345 44.375568C2313.3191 42.932131 2311.6533 42.013381 2311.3328 42.333901C2310.1493 43.517354 2310.8024 55.935139 2312.514 64.79159L2314.2779 73.919429L2311.1935 77.43238C2307.2053 81.974754 2304.5688 91.235484 2306.6667 93.333333C2307.7173 94.383994 2307.8265 94.266496 2310.4591 89.25Z M2323.1962 41.363999C2327.1241 38.641968 2327.6241 37.535006 2326.0497 35.046214C2325.2569 33.79286 2324.7707 33.784746 2322.5236 34.987358C2320.2237 36.21824 2319.5558 36.168814 2316.8443 34.567083C2314.2951 33.061238 2313.623 32.986056 2312.901 34.12594C2311.3961 36.501676 2311.904 38.107908 2315.1058 41.09879C2316.8139 42.694456 2318.4772 44.0 2318.802 44.0C2319.1268 44.0 2321.1042 42.8138 2323.1962 41.363999Z M2323.3182 30.868244C2324.6223 28.786856 2322.5048 23.340533 2319.8361 21.912292C2318.2056 21.039657 2317.6809 21.490454 2316.0087 25.200509L2314.0708 29.5L2316.2854 31.249852C2318.8979 33.314125 2321.8873 33.151919 2323.3182 30.868244Z"/>
</svg>
