<?xml version="1.0" encoding="UTF-8"?>
<svg xmlns="http://www.w3.org/2000/svg" viewBox="2348.05 17.11 28.95 87.52">
  <path d="M 2373.5938,83.09375 C 2371.1276,80.938638 2368,77.482322 2368,76.5 2368,76.103083 2369.575,73.622375 2371.5,71 2373.425,68.377625 2375,65.247702 2375,64.03125 2375,61.079595 2372.0019,56.142321 2369.7812,55.4375 2367.4951,54.711918 2367.5337,53.830701 2370.0938,48.8125 2374.1933,40.776854 2372.3618,29.361813 2365.9375,22.9375 2364.1488,21.148771 2363.6935,21.0897 2361.2188,22.375 2358.6581,23.704846 2355.0759,27.770185 2352.2812,32.46875 2350.0459,36.227029 2350.7153,41.815363 2353.75,44.78125 2355.2625,46.25944 2357.4922,48.79234 2358.7188,50.40625 L 2360.9688,53.34375 2356.4688,58.125 C 2350.6283,64.368965 2350.3744,68.191535 2355.5,72.28125 2359.2603,75.281613 2359.8202,77.058456 2357.5938,78.90625 2356.822,79.546794 2354.9624,82.571964 2353.4688,85.625 2350.2693,92.164516 2350.8881,94.390506 2356.8438,97.84375 2361.6964,100.65747 2363.8392,100.55031 2367.2188,97.3125 L 2369.8125,94.8125 2369.75,94.53125 2373.5938,89.90625 C 2373.6854,89.411073 2373.9174,89.046162 2374.4688,88.84375 L 2373.5312,83.21875 2373.5938,83.09375 z M 2360.6875,27.375 C 2361.0816,27.769114 2361.4322,31.92592 2361.4688,36.625 2361.5053,41.324079 2361.2722,45.324413 2360.9375,45.53125 2360.1968,45.989039 2355.9686,43.158306 2354.2188,41.03125 2352.2382,38.623808 2353.5479,33.216962 2356.9375,29.75 2358.6096,28.039662 2360.2933,26.980886 2360.6875,27.375 z M 2364.5,56.1875 C 2365.4962,55.118795 2371.0738,59.458818 2371.6875,61.78125 2372.7128,65.661525 2372.2445,67.070547 2368.7188,70.75 2365.3945,74.218961 2364.0976,74.759537 2363.875,72.75 2363.6455,70.677776 2364.1754,56.535693 2364.5,56.1875 z M 2360.7188,59.34375 C 2361.2993,59.702582 2361.7348,62.310623 2361.6562,65.15625 2361.5777,68.001877 2361.0008,70.48934 2360.4062,70.6875 2359.1507,71.106042 2354,67.28526 2354,65.9375 2354,64.237668 2359.6564,58.687234 2360.7188,59.34375 z M 2364.1562,79.40625 C 2365.6572,78.478625 2371,84.376789 2371,86.96875 2371,88.040935 2369.6132,90.524612 2367.9062,92.46875 2366.1992,94.412888 2364.3992,96 2363.9062,96 2362.539,96 2362.7753,80.259673 2364.1562,79.40625 z M 2358.8438,82 C 2360.035,82 2360.8909,87.734642 2360.2812,91.75 2360.0098,93.5375 2359.459,95 2359.0938,95 2357.4621,95 2353.9967,91.720572 2354,90.1875 2354.0046,88.116582 2357.6222,82 2358.8438,82 z M 2364.75,27.625 C 2365.6733,27.703265 2367.4475,29.798683 2368.5625,32.5 2369.8569,35.635995 2369.2362,42.101616 2367.1875,47.15625 2365.8145,50.54382 2364.1608,51.578861 2363.375,49.53125 2362.8809,48.243674 2363.4201,33.527947 2364.1562,28.28125 2364.2232,27.804057 2364.4422,27.598912 2364.75,27.625 z"/>
</svg>
