<?xml version="1.0" encoding="UTF-8"?>
<svg xmlns="http://www.w3.org/2000/svg" viewBox="3429.51 10.69 40.35 89.85">
  <path d="M3449.2601 92.798594L3446.0491 89.587573L3442.9891 91.849926C3440.967 93.344977 3439.2292 93.890146 3437.8656 93.457331C3435.5653 92.727252 3435.6222 91.552324 3438.4205 82.0C3439.817 77.232866 3442.9885 50.978013 3442.997 44.114076C3442.9998 41.85846 3442.7522 41.762114 3438.4632 42.349988C3433.2707 43.061703 3431.9392 41.623547 3433.8692 37.387791C3434.7593 35.434083 3434.6806 34.283001 3433.5006 32.001221C3431.7749 28.663957 3431.5139 20.776812 3433.0352 17.934259C3434.4273 15.333112 3436.1811 15.499459 3439.0 18.5C3441.895 21.581553 3442.0542 21.581553 3446.5951 18.5C3451.2495 15.341475 3452.5076 15.365641 3455.5722 18.672439L3458.049 21.344877L3461.5681 17.933996C3464.4877 15.104169 3465.2475 14.776676 3466.0283 16.011558C3467.8672 18.92 3467.1076 25.562276 3464.4962 29.410487C3462.4865 32.371886 3462.1128 33.853339 3462.6027 36.916778C3463.4833 42.423844 3461.6999 45.312624 3457.9305 44.484728C3456.3187 44.130727 3454.9579 43.989344 3454.9064 44.170545C3454.8548 44.351745 3454.6017 51.7 3454.3438 60.5C3454.0391 70.896765 3454.3086 78.892671 3455.1134 83.332256C3456.0118 88.288464 3456.0487 90.351874 3455.2478 90.846851C3454.6406 91.222137 3454.2239 92.374189 3454.3219 93.406966C3454.6114 96.459279 3452.6899 96.228328 3449.2601 92.798594Z M3439.9778 25.360784C3440.0164 23.383399 3436.3858 19.64351 3435.162 20.399908C3433.6913 21.308797 3433.6856 23.799748 3435.1446 27.984853L3436.2891 31.268153L3438.1223 28.884077C3439.1306 27.572834 3439.9655 25.987353 3439.9778 25.360784Z M3459.4683 39.051296C3459.9832 38.21819 3458.5534 30.232727 3457.4 27.5C3455.6578 23.372067 3453.0294 20.461526 3450.804 20.19594C3448.7601 19.95201 3447.4165 20.940795 3444.01 25.19594C3439.2906 31.091087 3436.2975 36.630816 3437.2935 37.626863C3437.6521 37.985451 3440.7067 37.504077 3444.0816 36.557145L3450.2177 34.835448L3453.847 37.417724C3457.8224 40.246312 3458.5916 40.469834 3459.4683 39.051296Z M3447.4901 86.813539C3448.8705 87.44251 3450.0 88.41677 3450.0 88.978561C3450.0 89.540353 3450.7261 90.0 3451.6135 90.0C3452.9892 90.0 3453.1037 89.299841 3452.3903 85.25C3451.9301 82.6375 3451.5415 71.281658 3451.5268 60.014794C3451.504 42.603691 3451.2749 39.490041 3450.0 39.266048C3446.749 38.694873 3446.0043 40.696868 3444.8706 53.055231C3444.2427 59.899854 3443.6053 67.75414 3443.4542 70.509201C3443.3032 73.264261 3442.4642 78.279216 3441.5898 81.653545C3439.4353 89.967799 3439.5493 90.77207 3442.4901 88.009292C3444.6306 85.998389 3445.3326 85.830511 3447.4901 86.813539Z M3463.9682 22.75C3463.9857 21.2375 3463.5658 20.0 3463.0352 20.0C3461.3646 20.0 3459.8032 24.079789 3460.4649 26.716033C3461.0713 29.13227 3461.1634 29.161745 3462.5181 27.372893C3463.2982 26.342802 3463.9507 24.2625 3463.9682 22.75Z"/>
</svg>
