<?xml version="1.0" encoding="UTF-8"?>
<svg xmlns="http://www.w3.org/2000/svg" viewBox="1159.23 13.76 22.94 95.6">
  <path d="M1161.6037 102.40976C1161.2681 101.53512 1161.2318 100.43393 1161.5231 99.962649C1161.8143 99.491373 1162.7487 92.219482 1163.5994 83.802892C1165.0353 69.596323 1164.998 49.442007 1163.4982 29.194684C1162.8653 20.650927 1165.1621 18.10515 1169.3896 22.664388C1174.5084 28.184714 1177.8627 48.338482 1179.6053 84.042214C1180.1685 95.580875 1180.0208 98.059016 1178.6075 100.79221C1176.5435 104.78343 1175.0608 104.83388 1172.5 101.0C1170.004 97.2632 1169.4324 97.2632 1167.5 101.0C1165.8213 104.24625 1162.6037 105.01556 1161.6037 102.40976Z M1170.7243 93.017281C1171.3977 93.007776 1172.6468 94.35 1173.5 96.0C1176.7849 102.3523 1177.3421 99.768031 1176.6804 81.25C1175.7013 53.849793 1171.43 27.295733 1167.5987 24.79079C1165.8118 23.622463 1165.2068 27.128613 1166.096 33.5C1167.9156 46.537725 1168.1555 72.119563 1166.5509 82.0C1165.7023 87.225 1165.0062 93.293663 1165.004 95.485918L1165.0 99.471837L1167.25 96.253199C1168.4875 94.482948 1170.0509 93.026785 1170.7243 93.017281Z"/>
</svg>
