<?xml version="1.0" encoding="UTF-8"?>
<svg xmlns="http://www.w3.org/2000/svg" viewBox="1127.15 14.09 26.83 92.89">
  <path d="M1133.014 98.782574C1129.1485 92.426335 1129.3465 79.842349 1133.4827 69.0C1135.2713 64.311197 1135.0567 54.843017 1133.078 51.145659C1131.221 47.675923 1130.3438 36.522174 1131.5179 31.309114C1133.2552 23.595178 1135.9934 19.559371 1139.7397 19.191039C1148.6953 18.310522 1151.976 34.545392 1146.9475 54.859903C1144.7562 63.712306 1144.708 64.606947 1146.0589 71.359903C1148.8919 85.521775 1147.2575 100.1609 1142.7073 101.38089C1137.5634 102.76003 1135.0178 102.07768 1133.014 98.782574Z M1141.676 98.221408C1143.5989 96.998382 1145.2854 88.354381 1144.6975 82.734719C1144.3963 79.855623 1143.6458 74.35 1143.0297 70.5C1142.2587 65.682282 1142.2217 62.252982 1142.9109 59.5C1147.4094 41.531368 1147.8389 37.217055 1145.8968 29.504406C1143.8843 21.512263 1139.1915 19.795644 1135.6998 25.774364C1133.269 29.936372 1133.0702 41.645635 1135.327 47.727898C1138.1719 55.395436 1138.4714 63.071754 1136.2019 70.152687C1135.083 73.643709 1133.8537 78.6375 1133.4702 81.25C1131.8305 92.419893 1136.2914 101.64615 1141.676 98.221408Z"/>
</svg>
