<?xml version="1.0" encoding="UTF-8"?>
<svg xmlns="http://www.w3.org/2000/svg" viewBox="130.51 9.47 64.49 95.89">
  <path d="M 192.0625 54.125 C 191.3885 53.80063 190.65781 53.323053 190 52.71875 C 183.67759 46.910619 178.47006 45.460312 173.96875 48.25 C 170.72324 50.261403 169.80021 47.71115 170.53125 38.53125 C 171.45432 26.940071 173.00411 24.575334 178.5625 26.28125 C 184.68094 28.159054 187.29421 22.722559 182.75 17.5625 C 180.65646 15.185241 180.32615 15.110332 178 16.46875 C 176.625 17.271718 174.94195 18.205375 174.25 18.5625 C 172.93861 19.239319 166.49966 16.648734 165.5 15.03125 C 164.75393 13.824084 162.27862 14.725692 158.3125 17.65625 C 154.4241 20.52938 152.68569 20.586901 148.5 18 C 144.47081 15.509825 142.63545 16.98971 143.625 21.9375 C 144.54095 26.51722 148.08537 28.616129 152.0625 26.96875 C 154.09832 26.125486 155.45659 26.050335 156.125 26.71875 C 157.61987 28.213622 159.92813 38.80426 159.96875 44.34375 C 160.00395 49.144353 159.96728 49.220894 157.25 48.5625 C 155.7375 48.196024 152.87474 47.057856 150.875 46.03125 C 145.19204 43.113785 137.74695 44.928159 135.875 49.71875 C 133.43727 55.957235 135.98997 71.832781 139.25 70.75 C 139.94533 70.519056 140.78457 68.087736 141.125 65.34375 C 141.87544 59.294867 143.50809 56 145.75 56 C 148.19339 56 155 63.036994 155 65.5625 C 155 67.510578 152.68349 71.274545 149.3125 74.78125 C 148.62799 75.493319 147.55981 77.79791 146.9375 79.875 C 145.77448 83.756831 146.08345 85.020495 151.5625 97.75 C 152.47276 99.864814 153.6692 101 154.96875 101 C 157.64521 101 158.58065 97.002447 157.25 91.1875 C 156.56329 88.186558 156.5177 85.748392 157.15625 84.0625 C 158.16912 81.388315 161.84509 77 163.0625 77 C 164.02884 77 165.71632 81.674585 166.5 86.5 C 167.76413 94.283748 172.64327 97.784632 177.65625 94.5 C 183.22166 90.853406 183.44285 84.823658 178.375 75 C 174.6709 67.819873 174.48567 65.438864 177.34375 61.53125 C 178.73298 59.631877 178.86709 59.689071 182.53125 62.90625 C 185.43223 65.453341 186.69025 65.997316 189.09375 65.71875 L 189.84375 62.75 L 188 63.40625 L 184.21875 59.6875 C 182.13452 57.652305 179.77056 56.013966 178.96875 56.03125 C 177.0663 56.072259 174.62801 59.507352 173 64.46875 C 171.73632 68.319868 171.81949 68.695265 176 76.53125 C 180.52613 85.015082 180.83406 88.040942 177.4375 91.4375 C 175.41365 93.461348 174.78792 93.420872 171.75 91.03125 C 169.79999 89.497368 169.08573 87.751269 168.53125 83.28125 C 167.85885 77.860651 165.43929 72 163.875 72 C 162.54643 72 154.93772 81.3522 154.34375 83.71875 C 154.01606 85.024408 154.3005 88.019493 154.96875 90.40625 C 157.20434 98.390983 155.66509 98.856434 152.25 91.21875 C 150.46849 87.234462 149 83.191931 149 82.21875 C 149 80.475376 150.84005 77.547653 156.25 70.75 C 158.7464 67.613243 158.90041 66.994272 157.875 63.90625 C 156.56854 59.971839 148.65687 52 146.0625 52 C 143.76154 52 141.57585 54.608876 139.9375 59.25 C 138.35041 63.745879 137.02243 62.447847 137 56.34375 C 136.97863 50.526281 137.66705 49.264676 141.59375 47.96875 C 144.65146 46.959615 145.74424 47.168931 151.59375 49.90625 C 158.79016 53.273857 161.92511 52.921989 162.09375 48.71875 C 162.35151 42.294197 161.62343 35.901601 159.90625 29.1875 C 157.89132 21.309222 158.21448 19.711394 162.03125 18.5 C 165.92625 17.263774 172.42011 22.900574 170.5625 25.90625 C 169.22848 28.06474 167.38649 41.938141 167.78125 46.8125 C 168.27365 52.892439 169.48577 53.832262 173.875 51.5625 C 178.8274 49.001516 181.83518 49.584898 186.625 54 C 188.51429 55.741489 190.17695 56.954217 191.1875 57.5 L 192.0625 54.125 z M 179.40625 19.53125 C 180.82955 19.433268 182.08272 20.388742 181.8125 21.78125 C 181.38281 23.995574 179.52152 24.339733 177.96875 22.46875 C 176.85386 21.125388 176.84615 20.725052 177.96875 20.03125 C 178.43621 19.742347 178.93182 19.563911 179.40625 19.53125 z M 148.6875 21.125 C 150.66461 21.249654 154.05204 22.236561 154.5625 23.0625 C 154.87627 23.570184 153.55 24 151.625 24 C 148.38633 24 146.10366 22.583843 147.34375 21.34375 C 147.5326 21.154898 148.02846 21.083449 148.6875 21.125 z "/>
</svg>
