<?xml version="1.0" encoding="UTF-8"?>
<svg xmlns="http://www.w3.org/2000/svg" viewBox="1690.7 15.92 98.14 89.8">
  <path d="M 1703.5,56.8125 1702.9375,60.0625 C 1706.7499,60.297082 1708.1412,59.70525 1712.625,56 1716.8664,52.495093 1717.9076,52.087828 1720.9375,52.65625 1722.8401,53.013178 1725.817,54.126398 1727.5625,55.15625 1734.1037,59.01568 1736.2003,54.081039 1733.5625,41.0625 1732.6656,36.63617 1731.7181,32.418649 1731.4375,31.6875 1730.7797,29.973287 1735.7286,25 1738.0938,25 1739.0908,25 1741.1095,26.585427 1742.5938,28.53125 1745.5232,32.371897 1745.5711,31.275456 1741.875,43.40625 1741.3892,45.000823 1741,48.488323 1741,51.15625 1741,55.529442 1741.2215,55.997422 1743.25,55.96875 1744.4875,55.951258 1746.3699,55.276258 1747.4375,54.46875 1749.9948,52.534538 1751.3082,52.612341 1756.25,55 1763.7602,58.62854 1768.3157,57.239288 1771.9375,50.21875 1773.4429,47.300706 1778,33.338439 1778,31.65625 1778,30.953364 1778.7016,29.505121 1779.5625,28.4375 1781.0147,26.636532 1781.0844,26.887197 1780.5,31.96875 1779.7567,38.432207 1778.1127,45.812859 1776.875,48.25 1776.3899,49.205037 1776,50.412561 1776,50.96875 1776,51.52494 1774.3829,54.248727 1772.4062,57 1769.0685,61.645905 1768.5154,62 1764.5938,62 1762.2714,62 1757.7332,61.529414 1754.5312,60.9375 1747.4154,59.622084 1746.6857,60.166357 1744.5312,68.46875 1742.2721,77.174556 1742.5261,83.696987 1745.25,87.6875 1746.4875,89.500422 1748.1191,91.207394 1748.875,91.5 1749.6309,91.792607 1752.727,90.915245 1755.75,89.53125 1762.4304,86.472869 1763.7308,86.404278 1766.5938,89.09375 1769.3846,91.715738 1774.8586,91.980738 1778.4062,89.65625 1781.6642,87.521613 1780.9662,85.677724 1777.4062,87.03125 1773.2783,88.600714 1770.4922,88.152853 1768,85.5 1765.2042,82.523998 1761.7908,82.306759 1758.1562,84.875 1756.6963,85.906614 1754.0638,87.058346 1752.3125,87.4375 1749.5945,88.025913 1748.8887,87.746055 1747.4375,85.53125 1745.4306,82.468275 1745.8377,72.192831 1748.1562,67.40625 1749.7031,64.212894 1750.6081,64.101512 1762.5625,65.53125 1769.3888,66.347678 1769.7585,66.129584 1775.0938,58.375 1776.789,55.91098 1777.9244,53.248954 1777.625,52.46875 1777.3256,51.688547 1777.6912,50.708296 1778.4375,50.28125 1781.4123,48.578934 1784.3749,29.824744 1782.5625,24.1875 1781.3397,20.384224 1778.7448,21.976351 1777.1562,27.5 1774.4515,36.904563 1769.6971,49.126773 1767.7812,51.5625 1765.4411,54.537559 1762.2323,54.669335 1757,52 1752.2599,49.581787 1750.8284,49.517012 1746.8125,51.59375 L 1743.7188,53.21875 1744.25,47.25 C 1745.0338,38.606136 1747.1046,35.1578 1752,34.375 1756.3533,33.678873 1757.4307,32.773628 1758.3438,28.9375 1758.9987,26.18625 1756.7932,22 1754.6875,22 1754.023,22 1751.7394,22.929276 1749.625,24.0625 L 1745.7812,26.125 1741.9062,23.4375 1738,20.71875 1734.0312,23.375 C 1731.8418,24.823925 1729.7579,26 1729.4062,26 1729.0546,26 1727.2231,24.65 1725.3438,23 1723.4646,21.35 1721.3059,20 1720.5312,20 1718.5424,20 1716,23.954074 1716,27.0625 1716,30.657185 1718.7815,32.875454 1724.25,33.625 1728.7019,34.2352 1728.9152,34.408311 1730.4375,39.0625 1732.2349,44.557587 1732.5122,51.577321 1730.9688,52.53125 1730.3946,52.886117 1728.9321,52.539431 1727.7188,51.75 1724.3524,49.559668 1718.3562,48.74802 1715.75,50.125 1714.5048,50.782895 1711.944,52.590669 1710.0312,54.15625 1707.5774,56.164627 1705.2726,57.002039 1703.5,56.8125 z M 1720.0625,24 C 1722.349,24 1725,26.16137 1725,28.03125 1725,29.950752 1723.0823,30.486594 1720.25,29.34375 1718.7308,28.730752 1718.5645,24 1720.0625,24 z M 1753.6875,26.03125 C 1755.5708,25.98096 1756.2923,27.936436 1754.9688,29.53125 1753.5563,31.233321 1750.4173,31.472429 1749.4688,29.9375 1748.7668,28.801715 1751.6959,26.084433 1753.6875,26.03125 z M 1702.0312,65.40625 1701.3438,69.34375 1702.9062,69.59375 C 1706.387,70.150338 1707.4878,69.781307 1712.5938,66.125 1721.8305,59.510671 1726.2827,60.957629 1727.9375,71.125 1728.7784,76.291998 1728.1573,83.333238 1726.625,85.8125 1724.8288,88.71886 1722.3591,88.911244 1718.7188,86.4375 1714.3428,83.46395 1713.9723,83.477381 1708.8438,86.09375 1704.9143,88.098431 1702.2438,88.048305 1699.2188,86.0625 L 1697.7812,89.90625 C 1698.8373,90.03821 1699.2704,89.98629 1700.8438,90.3125 1705.4137,91.259983 1706.629,91.18713 1709.1875,89.71875 1712.9782,87.543236 1713.7213,87.56368 1718.5,90 1723.7326,92.667718 1725.5024,92.524113 1727.75,89.25 1733.5998,80.72851 1731.9195,63.042341 1724.875,59.09375 1721.5825,57.248235 1715.5112,58.758813 1711.875,62.34375 1707.9119,66.250936 1705.4829,67.174366 1702.5625,65.84375 1702.3301,65.737851 1702.2342,65.537018 1702.0312,65.40625 z M 1696.6875,92.78125 1695.1562,96.90625 1695.1875,97.25 C 1696.457,97.409745 1697.9931,97.815748 1700.0938,98.65625 1703.9367,100.19389 1704.5619,100.17005 1709.5625,98.59375 1714.5544,97.020196 1715.164,97.031307 1718.125,98.5625 1722.6712,100.91342 1729.8975,100.92082 1734.2812,98.5625 1737.7653,96.688179 1737.9794,96.659488 1739.875,98.375 1742.7446,100.97191 1749.371,101.63428 1752.4375,99.625 1755.5692,97.573016 1759.6844,97.55042 1764.5,99.5625 1767.6269,100.86899 1769.0664,100.9424 1773.125,99.96875 1777.6791,98.876252 1779.8303,97.486523 1778.7188,96.375 1778.4562,96.112515 1776.0551,96.302977 1773.375,96.78125 1769.1641,97.532702 1767.826,97.323628 1763.5625,95.21875 L 1758.625,92.78125 1754.2812,94.875 C 1748.6823,97.595114 1744.2737,97.596228 1741.3438,94.84375 1739.0705,92.708105 1738.9736,92.694059 1734.9688,94.5 1729.7873,96.836493 1723.2156,96.842535 1719.25,94.5 1716.2645,92.73638 1715.9005,92.732916 1709.7188,94.40625 1703.8669,95.990263 1702.9489,96.01382 1699.625,94.625 1698.4773,94.145468 1697.5047,93.469722 1696.6875,92.78125 z"/>
</svg>
