<?xml version="1.0" encoding="UTF-8"?>
<svg xmlns="http://www.w3.org/2000/svg" viewBox="1378.88 12.37 26.97 92.73">
  <path d="M 1380.875 49.40625 L 1381.8438 54.78125 C 1381.9757 54.957921 1382 55.243099 1382 55.65625 L 1383.0938 61.53125 L 1382.875 61.9375 C 1383.6031 62.340859 1383.9829 63.3289 1384 65.0625 C 1384.0084 65.918311 1385.0498 70.179444 1386.3438 74.53125 L 1388.7188 82.4375 L 1386.375 87.46875 C 1383.5112 93.618575 1383.4995 94.085427 1386.0625 97.34375 C 1388.852 100.89004 1394.2445 100.76676 1397.1562 97.09375 C 1398.8919 94.904334 1399.1338 93.604294 1398.625 88.65625 C 1398.2945 85.442069 1398.4286 79.817069 1398.9375 76.15625 C 1402.0887 53.486135 1403.8491 22.635428 1402.0625 21.53125 C 1400.7369 20.712 1400.1042 24.713168 1400.0938 33.875 C 1400.0885 38.480234 1399.9426 42.339541 1399.7812 42.46875 C 1399.6198 42.597959 1397.7346 42.48502 1395.5938 42.21875 L 1391.7188 41.75 L 1392.3125 32.59375 C 1392.6438 27.550411 1392.6608 22.431086 1392.3438 21.21875 C 1391.1325 16.586998 1390.3364 19.366258 1390.1875 28.6875 C 1390.0135 39.572909 1389.5974 41.553448 1387.375 42.40625 C 1384.6315 43.459029 1384.0112 42.027033 1384 34.6875 C 1383.9866 25.918895 1383.0482 19.849361 1381.8438 20.59375 C 1381.3362 20.907453 1381.2278 26.89748 1381.5938 34.4375 C 1382.1044 44.962376 1382.0868 47.286513 1380.875 49.40625 z M 1397.2188 44.78125 C 1398.4005 44.810085 1399.2731 44.92929 1399.5 45.15625 C 1400.3648 46.021036 1397.0811 74.115931 1395.4688 79.6875 C 1394.0945 84.436937 1394.1123 85.196821 1395.6875 88.5 C 1396.9469 91.141062 1397.1337 92.547234 1396.375 93.75 C 1394.817 96.219959 1390.2938 97.137563 1388.5 95.34375 C 1386.4606 93.304317 1386.6028 91.83134 1389.4375 86.5 C 1391.7847 82.085534 1391.8152 81.750305 1390.375 77.21875 C 1385.3833 61.512359 1383.6405 48.384493 1386.25 46.21875 C 1387.2289 45.406364 1393.6734 44.694746 1397.2188 44.78125 z "/>
</svg>
