<?xml version="1.0" encoding="UTF-8"?>
<svg xmlns="http://www.w3.org/2000/svg" viewBox="747.75 13.33 77.43 90.7">
  <path d="M 821.21875,49.75 C 819.27996,51.334929 817.23172,52.818943 815.625,53.46875 808.43069,56.378354 807.41848,56.256914 802.5,52 799.95623,49.798385 797.34155,47.997944 796.6875,48 796.03345,48.002056 794.00807,48.921282 792.1875,50.03125 790.36694,51.141218 788.45444,51.788233 787.9375,51.46875 786.5451,50.6082 786.81708,35.898417 788.28125,33 789.26264,31.057263 790.39824,30.460831 793.3125,30.34375 798.6041,30.131158 800.17327,28.516122 799.8125,23.59375 799.54486,19.942165 799.20261,19.475821 796.6875,19.1875 795.13946,19.010037 792.78885,19.572537 791.46875,20.4375 788.29107,22.519593 786.68161,22.410653 784.5,20 782.19295,17.450738 780.58228,17.478758 776.25,20.15625 772.8568,22.253367 772.66584,22.267418 769.5,20.5625 766.9234,19.174909 765.78641,19.048338 764.125,19.9375 761.15583,21.526551 760.40065,25.437431 762.46875,28.59375 764.00338,30.93588 764.60353,31.151498 768.53125,30.5625 774.08881,29.729092 774.96017,31.172764 775.53125,42.09375 776.02094,51.458421 775.47729,52.029306 768.9375,49.0625 762.31213,46.056871 760.36218,46.357429 758.15625,50.75 753.86703,59.290919 751.26851,71.361835 752.5,76.96875 753.50898,81.562594 756.11721,80.54303 757.53125,75 759.28207,68.136794 764.09993,58 765.625,58 766.98553,58 773,65.519441 773,67.21875 773,67.716355 771.2,71.102351 769,74.75 766.8,78.39765 765,82.196332 765,83.21875 765,84.241168 766.125,87.19832 767.5,89.78125 768.875,92.364181 770,95.18729 770,96.0625 770,96.937709 770.28958,97.977084 770.65625,98.34375 772.21402,99.901524 774.82996,98.798818 775.9375,96.125 776.84706,93.929124 776.87712,92.226117 776,88.96875 775.04909,85.437354 775.11971,83.969917 776.46875,80.4375 778.62644,74.787662 780.22644,73.474051 782.21875,75.75 785.08114,79.019901 786.50056,84.618165 785.1875,87.5 782.69045,92.98044 783.96701,99 787.625,99 789.58905,99 790.47745,97.956502 792.53125,93.3125 796.29745,84.796457 796.45567,83.449048 794.125,78.03125 791.45605,71.827121 791.38152,66.875635 793.9375,64.5625 795.78309,62.892272 796.11813,62.904665 801.1875,64.78125 805.9648,66.549715 806.90177,66.617718 810.4375,65.375 812.60102,64.614576 815.09522,63.318815 816,62.5 817.07784,61.52457 817.81777,61.050146 818.71875,61.1875 L 818.84375,61.0625 818.34375,55.40625 821.65625,51.1875 821.21875,49.75 z M 781.1875,20.5 783.96875,23.8125 786.78125,27.15625 785.28125,32.8125 C 783.35796,40.171836 783.8893,51.326801 786.28125,53.71875 787.91736,55.354859 788.24262,55.322803 792.4375,53.03125 L 796.875,50.625 801.90625,55.3125 C 804.66694,57.894802 807.1151,60 807.34375,60 807.5724,60 809.86542,59.057829 812.46875,57.90625 815.80824,56.429034 817.53205,56.125806 818.28125,56.875 819.03044,57.624195 817.72886,58.689333 813.90625,60.46875 807.32785,63.530973 806.04026,63.556674 800.90625,60.9375 795.79155,58.328174 793.63452,59.057599 790.5,64.40625 787.39331,69.707412 787.4068,70.591309 790.53125,77.65625 792.98049,83.194397 793.00016,83.483092 791.46875,88.09375 789.78908,93.150767 787,96.599515 787,93.625 787,92.740548 787.54283,90.066598 788.1875,87.65625 789.2349,83.740113 789.09983,82.740488 787.0625,78.40625 785.80854,75.738564 784.38335,72.536109 783.90625,71.28125 782.6967,68.099893 780.52071,68.43583 777.625,72.25 773.15886,78.1327 771.60748,83.434982 772.875,88.46875 773.48814,90.90375 774,93.581051 774,94.4375 774,95.293949 773.53236,96 772.96875,96 771.89027,96 770,91.831444 770,89.46875 770,88.705434 769.48785,86.944898 768.84375,85.53125 767.85098,83.352365 768.00511,82.301906 769.96875,78.71875 771.24275,76.394019 773.13615,73.572948 774.15625,72.4375 776.6887,69.618697 776.46435,66.677825 773.375,61.40625 770.78793,56.991749 765.83998,53.374768 763.96875,54.53125 762.83052,55.234719 758.91903,63.512895 756.53125,70.25 754.34964,76.405414 752.4825,77.692501 753.40625,72.40625 754.25161,67.568617 758.69583,52.986338 759.90625,51.09375 760.83301,49.644677 763.33055,50.225258 772.75,54.09375 775.17621,55.090174 776.26852,55.137734 777.125,54.28125 779.08002,52.326227 779.3011,40.093515 777.5,34 775.12548,25.966501 775.19821,24.981942 778.34375,22.625 L 781.1875,20.5 z M 766.25,22.78125 C 766.66648,22.885394 767.19407,23.15122 767.78125,23.5625 769.02509,24.433719 769.78541,25.550132 769.46875,26.0625 768.57987,27.500742 766.00324,27.168422 765.375,25.53125 764.59155,23.489612 765.00055,22.468819 766.25,22.78125 z M 795.03125,22.65625 C 795.59126,22.509997 796.16575,22.499276 796.65625,22.6875 797.45479,22.993929 797.95137,23.981705 797.78125,24.875 797.40717,26.839296 793.48261,27.597272 792.4375,25.90625 791.72859,24.759208 793.35123,23.095009 795.03125,22.65625 z"/>
</svg>
