<?xml version="1.0" encoding="UTF-8"?>
<svg xmlns="http://www.w3.org/2000/svg" viewBox="864 15.28 16.38 87.14">
  <path d="M866.0 97.187091C866.0 96.739991 867.27954 95.148305 868.84342 93.65001C871.6592 90.952325 871.70944 90.94413 874.01018 92.807161C875.60103 94.095352 876.11673 95.253417 875.64591 96.480362C874.98503 98.202598 874.88138 98.202628 872.97915 96.481132C871.13465 94.811883 870.87558 94.802622 869.17126 96.345012C867.17925 98.147753 866.0 98.460885 866.0 97.187091Z M874.63837 54.5C873.9506 52.707698 870.87211 52.527892 869.21667 54.183333C868.56583 54.834167 867.68833 55.020884 867.26667 54.598262C866.845 54.175639 867.74657 52.75692 869.27016 51.445553C871.61144 49.430394 872.41574 49.232301 874.46515 50.166075C877.0286 51.334059 878.38254 53.572018 877.44423 55.090242C876.59716 56.460832 875.28488 56.184781 874.63837 54.5Z M873.96356 65.931918C872.91235 63.967704 872.73044 63.946605 870.34162 65.51182C868.95829 66.418212 867.63421 66.967547 867.39923 66.732565C866.52823 65.861568 871.20814 61.0 872.91759 61.0C875.08643 61.0 878.0 64.054787 878.0 66.328741C878.0 68.678345 875.29087 68.41201 873.96356 65.931918Z M868.24263 35.75C870.1219 32.905623 873.25458 32.397438 875.43964 34.582497C877.72916 36.872019 875.98685 38.598516 873.0 37.0C871.39834 36.142815 870.48283 36.117172 869.69264 36.907359C867.73334 38.866658 866.71859 38.05671 868.24263 35.75Z M868.6205 23.543561C866.76216 20.707383 868.09572 19.238577 870.41938 21.562237C872.19757 23.340423 872.42552 24.618982 871.10938 25.432397C870.61955 25.735134 869.49955 24.885158 868.6205 23.543561Z M868.0 81.7C868.0 78.302527 875.43486 76.363695 876.62 79.452113C877.60549 82.020264 876.14028 83.021038 873.2937 81.724051C871.22265 80.780416 870.5705 80.788485 870.24608 81.76176C869.69964 83.401091 868.0 83.354356 868.0 81.7Z"/>
</svg>
