<?xml version="1.0" encoding="UTF-8"?>
<svg xmlns="http://www.w3.org/2000/svg" viewBox="2409.4 19.92 30.57 89.76">
  <path d="M 2429.0938,79.40625 2428.0312,78.75 2430,76.125 C 2431.0719,74.682865 2432.8343,72.375 2433.9375,71 2436.9285,67.27216 2436.6173,61.689651 2433.0938,56.46875 L 2430.1562,52.15625 2432.0938,48.8125 C 2437.0564,40.296954 2437.9685,37.484035 2436.9375,33.75 2435.6789,29.191974 2429.8996,24 2426.0938,24 2422.2775,24 2418.6205,27.086781 2416,32.5 2413.2937,38.090498 2413.9066,41.39374 2418.5625,46.625 2422.3725,50.905784 2422.8347,53.083598 2420.375,55.125 2417.6788,57.362625 2413.9895,63.790718 2414.0312,66.21875 2414.0571,67.723878 2415.5732,69.605196 2418.5312,71.78125 2420.9849,73.58618 2423,75.439857 2423,75.90625 2423,76.372644 2420.9872,79.33716 2418.5312,82.5 2413.2124,89.349654 2411.4022,94.006154 2412.9375,96.875 2413.5211,97.96547 2415.9123,100.22901 2418.25,101.875 2423.5426,105.60163 2425.1922,105.42677 2426.625,101 2427.1669,99.32585 2427.9561,98.270136 2428.8438,97.6875 L 2428.6875,95.96875 2428.6875,90.90625 C 2428.2194,90.042766 2428.0023,89.117266 2428,87.75 2427.9974,86.215987 2428.2589,85.329463 2428.6875,84.75 L 2428.6875,79.46875 2429.0938,79.40625 z M 2423.2812,27.59375 C 2423.6451,27.516439 2423.9522,27.581529 2424.1875,27.8125 2424.5701,28.187973 2425.1729,32.8875 2425.5,38.25 2425.8504,43.994494 2425.7021,48 2425.1562,48 2423.6153,48 2416.974,40.644498 2416.375,38.28125 2415.6519,35.428191 2420.7344,28.134928 2423.2812,27.59375 z M 2425.4688,55 C 2426.1736,55 2425.9295,63.690314 2425.125,67.40625 2424.2725,71.343573 2423.0562,71.531955 2419.125,68.25 L 2415.7812,65.46875 2417.9375,61.8125 C 2419.8095,58.639653 2423.8403,55 2425.4688,55 z M 2424.125,80 C 2424.6097,80 2424.9762,83.9375 2424.9375,88.75 2424.8989,93.5625 2424.5614,98.244569 2424.1875,99.15625 2423.5632,100.67878 2423.1913,100.64669 2419.8125,98.90625 2415.2677,96.565184 2414.3897,94.091659 2416.5938,89.8125 2418.8443,85.442935 2423.0218,80 2424.125,80 z M 2429.4062,29.1875 C 2430.0918,29.198274 2431.0792,30.016716 2432.5312,31.46875 2435.505,34.442454 2435.6128,36.847161 2433,41.96875 2429.2426,49.333852 2428,47.933004 2428,36.40625 2428,31.343475 2428.2636,29.169543 2429.4062,29.1875 z M 2428.9688,57.5 C 2430.4677,56.573579 2433.0517,60.793616 2433.1875,64.40625 2433.2911,67.16123 2432.6701,68.767463 2430.7812,70.65625 2429.0849,72.352556 2427.9985,72.818405 2427.5312,72.0625 2426.6808,70.686408 2427.9185,58.149156 2428.9688,57.5 z"/>
</svg>
