<?xml version="1.0" encoding="UTF-8"?>
<svg xmlns="http://www.w3.org/2000/svg" viewBox="3677.5 11.66 34.19 96.17">
  <path d="M3687.25 102.33772C3686.5148 102.04106 3686.0 100.01433 3686.0 97.416667C3686.0 93.107305 3685.921 92.999185 3682.75 92.96647L3679.5 92.932939L3683.25 89.869475C3686.2583 87.411944 3687.0 86.127973 3687.0 83.378005C3687.0 80.369111 3686.6332 79.876644 3684.0 79.35C3680.1032 78.570638 3680.0137 76.0 3683.8834 76.0C3687.225 76.0 3688.1435 73.951274 3687.1025 68.820124C3686.5628 66.160328 3685.889 65.437068 3683.7144 65.183578C3680.1086 64.763248 3680.2879 63.674361 3684.25 61.930467C3686.0375 61.14371 3687.455 59.9375 3687.4 59.25C3687.345 58.5625 3687.2325 56.425 3687.15 54.5C3687.0203 51.473333 3686.6619 51.0 3684.5 51.0C3682.9444 51.0 3682.0 50.433333 3682.0 49.5C3682.0 48.513467 3682.9871 48.0 3684.8835 48.0C3687.6906 48.0 3687.7852 47.829912 3688.4543 41.582062C3688.8323 38.052195 3689.0207 31.301273 3688.8729 26.580012C3688.7149 21.53598 3689.038 17.561973 3689.6563 16.943698C3690.235 16.364986 3693.3616 16.028408 3696.6043 16.195747C3702.2337 16.486258 3702.5145 16.626553 3702.8214 19.301909C3703.0393 21.200878 3703.9449 22.408745 3705.6316 23.050036C3708.3707 24.091441 3707.9675 26.0 3705.0084 26.0C3700.9737 26.0 3701.494 32.583907 3705.6103 33.61704C3708.7007 34.39269 3708.659 35.617788 3705.5152 36.406822C3701.1921 37.491864 3700.762 44.51498 3704.9785 45.172436C3707.7895 45.610744 3707.6859 47.365939 3704.809 48.045085C3702.8797 48.500524 3702.5 49.238387 3702.5 52.53161C3702.5 55.845172 3702.9381 56.683017 3705.25 57.791091C3708.863 59.522748 3708.7479 61.0 3705.0 61.0C3702.1628 61.0 3702.0 61.218735 3702.0 65.031385C3702.0 67.993792 3702.464 69.209178 3703.75 69.614914C3709.5812 71.454732 3709.6889 71.653917 3705.75 73.315777C3702.2121 74.808478 3702.0 75.150673 3702.0 79.367186C3702.0 85.376826 3702.7671 87.0 3705.607 87.0C3708.8733 87.0 3708.6228 88.587233 3705.1663 89.792185C3702.6299 90.676393 3702.3136 91.280906 3702.152 95.554788C3702.0527 98.18091 3701.4727 100.93041 3700.8632 101.66478C3699.7811 102.96873 3690.0107 103.4517 3687.25 102.33772Z M3699.0145 95.943235C3699.36 94.599456 3699.7041 80.675 3699.7792 65.0C3699.8544 49.325 3700.2123 32.796319 3700.5746 28.269597L3701.2333 20.039195L3698.395 18.960075C3696.5054 18.241653 3694.8417 18.206749 3693.4175 18.855652C3691.1125 19.905883 3691.117 19.838271 3689.4219 78.5C3689.1835 86.75 3688.8785 94.596859 3688.7442 95.937464C3688.5574 97.802179 3689.0874 98.52372 3691.0 99.008144C3694.8908 99.993623 3698.3094 98.686278 3699.0145 95.943235Z"/>
</svg>
