<?xml version="1.0" encoding="UTF-8"?>
<svg xmlns="http://www.w3.org/2000/svg" viewBox="564.16 13 38 89.64">
  <path d="M 566.625 76.34375 L 566.4375 81.15625 C 566.9115 81.090049 567.93864 81.495081 570.34375 82.5 C 576.08769 84.899973 581.48058 84.481519 583.875 81.4375 C 585.77605 79.020713 588.75395 70.314969 588.8125 67 C 588.82707 66.175 589.33081 62.8 589.9375 59.5 C 590.54419 56.2 591.65481 46.816955 592.40625 38.65625 C 593.1577 30.495544 594.2632 23.330544 594.875 22.71875 C 595.48679 22.106955 596.04581 22.04 596.09375 22.5625 C 596.92119 31.580788 596.79375 37.206659 595.46875 51.5 C 593.17063 76.290799 589.92612 88.837063 584.875 92.375 C 583.60559 93.264132 582.32138 93.991804 582.03125 93.96875 C 579.53194 93.77015 567.4101 84.915275 566.375 82.65625 L 566.15625 88.125 C 567.05944 88.176191 568.54088 89.157929 570.78125 91.125 C 577.22017 96.778447 584.31114 98.557377 587.21875 95.25 C 593.6549 87.928951 598.42679 65.58832 599.6875 36.75 C 600.15523 26.05057 599.95319 23.434012 598.53125 20.4375 C 597.11942 17.462285 596.60834 17.070166 595.375 18.09375 C 592.65222 20.353457 591.95279 22.921818 590.9375 34.25 C 588.84299 57.619651 585.87334 74.640564 583.21875 78.6875 C 581.01096 82.053298 573.77361 81.859508 568.3125 78.28125 C 567.46234 77.724203 566.97976 77.129007 566.625 76.34375 z "/>
</svg>
