<?xml version="1.0" encoding="UTF-8"?>
<svg xmlns="http://www.w3.org/2000/svg" viewBox="2060.4 15.2 57.2 92.35">
  <path d="M2088.5 101.38352C2086.3 100.55113 2083.0528 99.161677 2081.2839 98.295833C2078.6948 97.028464 2077.0839 96.916122 2073.0205 97.719551C2066.7143 98.96644 2063.0 98.340997 2063.0 96.032222C2063.0 94.633615 2063.9201 94.291936 2067.75 94.268369C2070.3625 94.252293 2073.9437 93.912017 2075.7082 93.5122C2078.0925 92.97197 2079.7619 93.295376 2082.2082 94.771351C2084.0187 95.863702 2087.1655 97.289644 2089.201 97.940112C2093.9861 99.469189 2096.3185 98.256253 2099.1082 92.787912C2100.9249 89.226964 2101.1628 87.364087 2100.7966 79.571347C2100.4809 72.855143 2099.8113 69.42335 2098.2174 66.353046L2096.0645 62.206092L2099.0849 53.853046C2102.2286 45.159217 2103.91 43.0 2107.5361 43.0C2110.1965 43.0 2113.0 40.049823 2113.0 37.250207C2113.0 34.904786 2104.6265 26.0 2102.4211 26.0C2101.4094 26.0 2101.0 27.261149 2101.0 30.377555C2101.0 36.424699 2098.9363 38.068317 2094.9987 35.157146C2093.3939 33.970716 2091.8378 33.0 2091.5405 33.0C2090.1452 33.0 2091.2555 37.097403 2093.5784 40.520436C2096.4123 44.696333 2096.2783 46.36775 2092.2179 57.5L2090.3942 62.5L2085.4471 62.144315C2078.9597 61.677883 2077.5443 60.81754 2075.706 56.223161C2073.6104 50.985793 2074.6469 37.686449 2077.1885 37.20012C2079.2127 36.812811 2083.561 40.858983 2082.35 42.002935C2081.8825 42.44455 2080.6 42.966097 2079.5 43.16193C2077.901 43.446606 2077.4404 44.4306 2077.2029 48.070077C2076.6468 56.59082 2079.7746 60.298828 2086.6522 59.272236C2089.4716 58.851392 2090.0376 58.161837 2092.0144 52.740253L2094.2246 46.678785L2090.9507 40.551289C2088.4977 35.960274 2087.8475 33.74378 2088.3575 31.711896C2089.1606 28.511991 2090.5889 28.331788 2094.0 31.0C2095.375 32.075541 2096.8791 32.965534 2097.3424 32.977764C2097.8057 32.989994 2098.0307 30.419573 2097.8424 27.265718C2097.3998 19.853752 2099.0331 19.398776 2106.0819 24.970513C2113.1322 30.543463 2115.0 33.158277 2115.0 37.455478C2115.0 41.411635 2111.2284 46.0 2107.9764 46.0C2105.5992 46.0 2104.3409 47.750802 2101.4897 55.026235L2099.0419 61.272253L2101.521 68.65718C2106.0537 82.159939 2104.0299 94.898298 2096.3983 100.90135C2093.2863 103.34921 2093.6385 103.32771 2088.5 101.38352Z M2081.7172 89.453779C2078.243 87.09304 2077.8093 87.020194 2075.7625 88.453779C2072.2675 90.901801 2064.0 90.14114 2064.0 87.371551C2064.0 86.30955 2064.9326 86.125488 2067.905 86.600807C2070.7721 87.059267 2072.6457 86.731661 2074.9536 85.368328C2078.0557 83.535858 2078.1485 83.540959 2081.9967 85.755703C2087.0117 88.641954 2088.3976 88.581345 2090.9274 85.365141C2093.5078 82.084762 2093.5315 79.962235 2091.0426 75.083497C2088.7268 70.544141 2087.2155 69.790997 2082.904 71.027537C2076.2555 72.93431 2070.3179 67.34326 2067.3961 56.424642C2064.2734 44.755301 2067.2793 25.096144 2072.3291 24.161444C2075.2483 23.621116 2079.0 24.911677 2079.0 26.456181C2079.0 27.510552 2078.1275 27.732679 2075.5983 27.322244C2070.9285 26.564432 2069.3759 29.285433 2068.487 39.78503C2067.887 46.872522 2068.116 49.146708 2070.0711 55.518733C2072.5887 63.724099 2076.3282 68.366513 2080.1852 68.075119C2089.4653 67.374021 2089.2419 67.309851 2092.1082 71.5C2095.6138 76.624829 2096.3211 80.29571 2094.5976 84.420564C2092.9804 88.291052 2089.2839 92.0 2087.0436 92.0C2086.175 92.0 2083.7781 90.854201 2081.7172 89.453779Z M2076.6667 32.333333C2075.5499 31.216518 2075.9205 30.0 2077.3776 30.0C2078.1352 30.0 2079.3153 30.675 2080.0 31.5C2081.0344 32.746374 2080.9142 33.0 2079.2891 33.0C2078.2134 33.0 2077.0333 32.7 2076.6667 32.333333Z"/>
</svg>
