<?xml version="1.0" encoding="UTF-8"?>
<svg xmlns="http://www.w3.org/2000/svg" viewBox="935.58 13.15 45.77 88.66">
  <path d="M 943.46875,51.71875 948.9375,54 946.59375,64.3125 947,64.1875 947,70.59375 C 947,77.41716 946.44764,77.992843 942.5,75.40625 939.12287,73.193469 937.663,74.484386 938.28125,79.09375 938.85343,83.359663 942.16506,87.028928 948.28125,90.15625 950.36574,91.222094 952.57122,93.178651 953.1875,94.53125 954.5654,97.555418 957.9828,97.781471 960.5,95 961.49758,93.89768 964.0132,92.528982 966.09375,91.96875 970.31392,90.832375 976.92841,83.997184 977.125,80.5625 977.48977,74.189611 975.9995,73.065123 971,75.875 L 967,78.125 967,70.28125 967,62.46875 971.53125,57.53125 C 976.61808,51.990651 979.27506,45.406065 977,44 976.1366,43.466385 973.88241,44.023114 970.90625,45.53125 L 966.21875,47.9375 965.59375,44.59375 C 965.11062,42.018449 965.65765,39.949797 968.03125,35.4375 970.49897,30.7463 971.01934,28.637567 970.78125,24.5625 970.37115,17.543257 967.74532,17.177189 963.03125,23.46875 961.15985,25.966385 959.36452,28 959.03125,28 958.69799,28 956.42903,25.975 954,23.5 949.69257,19.111047 946.77595,17.916145 945.46875,20.03125 944.13598,22.187714 946.22592,31.06502 949.0625,35.25 953.4394,41.707493 952.4967,45.357839 947.4375,41.53125 944.95739,39.655391 942.10135,39.59485 941.40625,41.40625 940.90454,42.713683 941.85291,47.246179 943.46875,51.1875 943.54931,51.383996 943.44354,51.535762 943.46875,51.71875 z M 947.53125,22.15625 C 947.85367,21.833827 949.32906,23.102178 950.8125,25 956.70368,32.536827 957.58494,33.338652 959.25,32.40625 960.13149,31.912631 962.28336,29.538177 964.03125,27.125 966.20969,24.1174 967.44378,23.119337 967.96875,23.96875 969.04762,25.714403 967.647,31.236387 965.03125,35.46875 963.08439,38.618845 962.8503,40.146437 963.15625,48 L 963.5,56.9375 959.78125,56.34375 C 957.18968,55.928954 955.28396,56.247059 953.5625,57.375 949.13991,60.272794 949.0473,59.694875 952.5,49.8125 955.66467,40.754527 955.66681,37.573056 952.53125,34.4375 950.01429,31.920537 946.47286,23.21464 947.53125,22.15625 z M 945.5,44.375 C 946.00804,44.528471 946.66589,44.869424 947.4375,45.375 948.97026,46.379303 949.72757,47.581219 949.375,48.5 948.48982,50.80674 946.08075,50.283515 944.8125,47.5 943.68272,45.020396 943.97589,43.914587 945.5,44.375 z M 957.15625,59.40625 C 957.99014,59.448461 958.84256,59.891507 960.3125,60.75 963.4463,62.580236 963.5,62.749073 963.5,70.0625 L 963.5,77.5 960.28125,77.53125 C 958.50251,77.549985 956.48126,78.112485 955.8125,78.78125 954.27868,80.315071 951.33397,80.344826 950.40625,78.84375 949.57619,77.500677 949.67859,64.317131 950.53125,62.9375 950.85228,62.418068 952.47672,61.289856 954.125,60.4375 955.50607,59.723324 956.32236,59.364039 957.15625,59.40625 z M 942.90625,79.90625 C 944.54881,80.135549 947.88341,82.489664 948.34375,84.25 948.59733,85.219711 948.45559,86 948.03125,86 946.53901,86 942,81.833741 942,80.46875 942,79.972878 942.35873,79.829817 942.90625,79.90625 z M 973.90625,48.5625 C 974.12309,48.778694 973.22309,50.540037 971.90625,52.46875 970.58941,54.397462 968.92707,56.19441 968.21875,56.46875 966.67593,57.066298 965.54657,54.627607 966.375,52.46875 966.94968,50.971144 973.11453,47.773145 973.90625,48.5625 z M 972.90625,79.09375 C 974.90275,78.680385 974.17704,80.671235 970.625,84.4375 968.77256,86.401661 966.55645,88 965.6875,88 962.70118,88 965.71856,82.69035 970.03125,80.34375 971.30003,79.653389 972.24075,79.231538 972.90625,79.09375 z M 959.40625,81 C 961.65293,81 962.28494,84.561758 960.59375,87.6875 957.43247,93.530336 957.32858,93.572096 955.09375,89.90625 953.94778,88.026491 953.00205,85.999244 953,85.375 952.99545,83.993095 957.37754,81 959.40625,81 z"/>
</svg>
