<?xml version="1.0" encoding="UTF-8"?>
<svg xmlns="http://www.w3.org/2000/svg" viewBox="3390.58 46.29 23.91 56.05">
  <path d="M 3403.8125,49.28125 C 3401.1725,48.839558 3398.8508,50.58659 3396.5938,54.625 3393.3859,60.364461 3393.3698,61.350269 3396.5,63.8125 3399.4973,66.17019 3399.5906,67.146595 3397.0938,69.40625 3394.1232,72.09457 3393.7946,76.108074 3396.3125,78.8125 L 3398.4688,81.125 3396.375,84.8125 C 3393.1519,90.443003 3392.5823,94.324857 3394.7188,96.1875 3395.7021,97.044831 3397.175,97.977903 3398,98.28125 3402.118,99.795402 3405.0294,98.980606 3407,95.75 3409.6201,91.454474 3410.5665,86.152049 3409.125,83.84375 3408.214,82.385003 3408.4064,81.2547 3410,78.28125 3412.4439,73.721573 3412.4973,71.667366 3410.3125,67.96875 3408.9344,65.635928 3408.8297,64.331365 3409.6562,60.71875 3410.8548,55.481271 3410.0162,52.70046 3406.5625,50.4375 3405.6022,49.808284 3404.6925,49.428481 3403.8125,49.28125 z M 3401.25,52 C 3401.6625,51.996242 3402,54.475 3402,57.5 3402,63.473956 3401.4358,63.982991 3397.9062,61.125 L 3395.5625,59.25 3398.0312,55.625 C 3399.3848,53.637818 3400.8375,52.003758 3401.25,52 z M 3406,69.3125 C 3406.417,69.29348 3406.9092,69.499057 3407.4375,69.9375 3409.5385,71.68115 3409.4279,75.94047 3407.25,77.59375 3404.5292,79.659158 3403.9835,79.286768 3404,75.25 3404.0156,71.43986 3404.7491,69.36956 3406,69.3125 z M 3400.25,71.53125 C 3400.7994,71.689259 3401,72.589808 3401,74.53125 3401,78.462974 3400.9952,78.451862 3398.625,76.71875 3396.7092,75.317873 3397.2241,72.491096 3399.5625,71.59375 3399.8279,71.491894 3400.0669,71.47858 3400.25,71.53125 z M 3405.5938,85 C 3406.5105,85 3407,86.144721 3407,88.375 3407,90.278199 3406.1357,92.799312 3405.0312,94.125 L 3403.0625,96.5 3403.0312,92.34375 C 3402.9904,87.239327 3403.7611,85 3405.5938,85 z M 3399.75,86.46875 C 3400.0039,86.758918 3400,87.764936 3400,89.78125 3400,94.027992 3399.3803,95.045401 3397.25,94.28125 3395.3206,93.589159 3395.771,89.51723 3398,87.5 3398.9845,86.609007 3399.4961,86.178582 3399.75,86.46875 z M 3406.3438,54.28125 C 3406.9845,54.49154 3407.6472,56.226689 3407.8125,58.15625 3407.9985,60.328091 3407.5292,62.124576 3406.625,62.875 3405.4116,63.882076 3405.0521,63.575885 3404.5,61.0625 3403.7045,57.440496 3404.7213,53.748842 3406.3438,54.28125 z"/>
</svg>
