<?xml version="1.0" encoding="UTF-8"?>
<svg xmlns="http://www.w3.org/2000/svg" viewBox="3686.28 14.53 32.64 91.66">
  <path d="M 3688.4062 24.875 L 3688.2812 25.71875 L 3690.1562 29.5 L 3690.25 29.90625 C 3690.9853 28.888318 3692.1524 27.770504 3694.5625 25.75 C 3701.6142 19.838212 3704.4981 19.546995 3706.5938 24.5625 C 3708.0376 28.018305 3707.9985 28.298275 3704.9375 33.3125 C 3701.9038 38.282122 3701.8657 38.416066 3704.375 36.09375 C 3705.8135 34.762415 3707.1607 33.862415 3707.375 34.09375 C 3707.5894 34.325086 3708.0706 36.30802 3708.4375 38.53125 C 3709.0492 42.23871 3708.7937 42.887912 3705.4375 46.34375 C 3703.4248 48.416092 3702.0635 50.407239 3702.4062 50.75 C 3702.7491 51.092761 3703.5678 50.838334 3704.2188 50.1875 C 3706.8955 47.510723 3708 48.915514 3708 54.96875 C 3708 59.672325 3707.4744 61.684254 3705.5 64.59375 C 3702.6294 68.82386 3702.1182 71.710371 3704.875 68.125 C 3707.2603 65.022958 3708.155 66.46767 3708.2188 73.5625 C 3708.2612 78.281191 3707.8951 79.371751 3705.5312 81.5625 C 3704.0227 82.960637 3703.0608 84.404628 3703.4062 84.75 C 3703.7516 85.095372 3704.5678 84.838334 3705.2188 84.1875 C 3707.1135 82.292622 3707.7034 82.772462 3708.3438 86.71875 C 3708.8108 89.597007 3708.3855 91.354228 3706.4688 94.625 C 3703.3244 99.990533 3703.2865 102.02646 3706.375 99.125 C 3708.209 97.402022 3709.3956 97.050779 3711.625 97.59375 C 3714.4316 98.277305 3714.4552 98.240302 3712.75 96.3125 C 3711.5216 94.923747 3711 92.637077 3711 88.65625 C 3711 83.273574 3711.1272 83 3713.5 83 C 3716.9169 83 3716.6548 81.376005 3712.9062 79.4375 C 3710.1811 78.028266 3709.8727 77.449001 3710.4062 74.78125 C 3710.7409 73.10752 3711 70.498509 3711 68.96875 C 3711 66.679699 3711.354 66.288316 3713 66.71875 C 3715.6786 67.419216 3715.5645 65.290935 3712.8125 63.0625 C 3711.1169 61.689472 3710.5402 59.908007 3710.1875 55.03125 C 3709.7523 49.015759 3709.829 48.819391 3711.875 49.46875 C 3714.3581 50.256868 3714.7953 48.347043 3712.5312 46.625 C 3711.5787 45.900542 3710.9706 43.241392 3710.7812 39 C 3710.5035 32.780904 3710.5972 32.522084 3712.75 32.75 C 3715.5739 33.048968 3715.6539 31.409918 3712.9062 29.75 C 3711.7605 29.057839 3709.9623 26.82536 3708.9062 24.78125 C 3706.717 20.543799 3703.9636 18.700472 3701.3125 19.6875 C 3700.3102 20.060689 3697.2858 21.881705 3694.5938 23.71875 C 3691.9019 25.555794 3689.4268 26.764179 3689.0938 26.4375 C 3688.9555 26.301893 3688.6493 25.388589 3688.4062 24.875 z "/>
</svg>
