<?xml version="1.0" encoding="UTF-8"?>
<svg xmlns="http://www.w3.org/2000/svg" viewBox="3097 16.21 25.47 87.21">
  <path d="M3107.0 88.667901C3107.0 80.282837 3106.9692 80.180493 3103.0 75.377215C3100.8 72.71491 3099.0 69.68782 3099.0 68.650346C3099.0 67.612872 3100.35 65.226465 3102.0 63.347219C3105.5394 59.316109 3105.6286 58.189439 3103.0246 50.405226C3099.5212 39.932388 3100.6663 31.942414 3106.558 25.75C3111.8678 20.16927 3113.9724 20.789998 3117.0307 28.83873C3119.3646 34.981007 3119.6167 46.524182 3117.544 52.337108C3116.32 55.769673 3116.3751 56.613108 3118.0659 60.337108C3120.4691 65.629873 3120.4729 68.726158 3118.0838 74.78743C3116.5085 78.78395 3116.3416 80.464831 3117.1457 84.234854C3118.2361 89.347769 3117.926 99.44759 3116.815 95.0C3116.4716 93.625 3115.645 89.443022 3114.9782 85.706716C3113.8135 79.181121 3113.8714 78.677887 3116.4483 72.93586L3119.1309 66.958288L3116.4353 61.634807L3113.7398 56.311325L3115.7963 50.814942C3117.5748 46.06133 3117.7313 44.351668 3116.9543 38.163722C3116.0644 31.075842 3114.1045 25.800662 3111.8416 24.402104C3110.2856 23.440464 3106.5558 28.201494 3105.1257 32.974801C3103.468 38.507743 3103.7481 44.333308 3105.9768 50.674308C3107.6386 55.402397 3107.7802 56.987125 3106.8657 60.619086C3106.2674 62.995326 3105.1528 65.458229 3104.3889 66.092205C3102.3553 67.779923 3102.6553 69.409748 3106.0 74.845576C3108.6836 79.206918 3109.0 80.573515 3109.0 87.801582C3109.0 92.245793 3108.55 96.160081 3108.0 96.5C3107.3635 96.893398 3107.0 94.046679 3107.0 88.667901Z"/>
</svg>
