<?xml version="1.0" encoding="UTF-8"?>
<svg xmlns="http://www.w3.org/2000/svg" viewBox="2276.04 18.53 23.78 89.5">
  <path d="M2282.5067 99.825558C2279.9549 96.792899 2279.8461 96.2011 2280.0718 86.575558C2280.2018 81.034001 2279.8154 74.720598 2279.2133 72.545773C2278.0352 68.290646 2279.2178 61.091991 2282.2915 53.807929C2283.6645 50.554241 2283.6818 49.485614 2282.4366 44.807929C2280.6149 37.964073 2280.6354 33.808349 2282.5131 29.314341C2284.3502 24.917569 2285.4581 25.387548 2283.8861 29.896805C2282.6598 33.414724 2283.2017 38.57871 2285.511 45.380615C2286.9277 49.553325 2286.8813 50.017615 2284.5363 55.139779C2281.0212 62.817634 2280.2326 70.971907 2282.5156 76.034498C2283.9752 79.271498 2284.0954 80.49514 2283.1562 82.556584C2281.4678 86.262229 2281.7429 92.629099 2283.75 96.29966L2285.5 99.5L2285.7572 95.0C2286.1207 88.641894 2288.0194 81.970644 2290.3901 78.722081C2292.2434 76.182595 2292.2949 75.667608 2290.9901 72.722081C2289.0259 68.288068 2289.091 57.29336 2291.1045 53.388054C2292.3743 50.925148 2292.6091 48.20153 2292.23 40.329142C2291.846 32.354968 2292.0783 29.749283 2293.4012 27.191088C2295.1185 23.870259 2297.8195 22.597176 2296.4586 25.75C2294.318 30.709458 2293.6541 37.205481 2294.672 43.230821C2295.6034 48.744764 2295.4996 49.959994 2293.8103 53.318392C2291.001 58.903307 2290.386 66.062834 2292.3734 70.046641C2294.4767 74.262797 2294.4282 75.24037 2291.8667 80.261366C2288.6572 86.552465 2288.1623 89.137438 2289.0692 94.874507C2289.5241 97.752154 2289.6465 100.75761 2289.3412 101.5533C2288.4163 103.96352 2285.3326 103.18397 2282.5067 99.825558Z"/>
</svg>
