<?xml version="1.0" encoding="UTF-8"?>
<svg xmlns="http://www.w3.org/2000/svg" viewBox="1818.78 20.26 32.2 81.45">
  <path d="M 1820.7812,86.53125 1821.0938,92.5 1822.0312,93.5 1827.5312,87.5 1833.0625,81.5 1832.5,70.5 C 1832.1881,64.45 1832.3554,54.872367 1832.875,49.21875 1833.7741,39.435048 1833.7285,38.735952 1831.5312,34.71875 1830.2615,32.397367 1828.8806,29.370687 1828.4688,28 1827.7955,25.759388 1827.8801,25.665614 1829.375,26.90625 1830.2895,27.665206 1831.7475,29.775769 1832.625,31.625 1833.5025,33.474232 1834.837,35 1835.5625,35 1837.2752,35 1844.5032,26.159457 1843.5625,25.21875 1843.1675,24.823734 1841.5216,26.078517 1839.9062,28 L 1836.9688,31.5 1833.6875,27.6875 C 1830.8991,24.454619 1829.9683,23.95879 1827.6875,24.53125 1826.2061,24.903048 1825,25.815784 1825,26.5625 1825,27.906572 1826.8262,32.513382 1829.8438,38.71875 1831.1961,41.499632 1831.2703,43.448021 1830.2812,53.34375 1829.4611,61.549338 1829.4284,66.760429 1830.1875,71.875 L 1831.25,79 1827.5625,83.5 C 1825.5343,85.975196 1823.3999,88 1822.8438,88 1822.5456,88 1821.7696,87.392229 1820.7812,86.53125 z M 1821.1875,94.6875 1821.3438,97.78125 C 1821.848,97.827413 1822.258,98 1822.8125,98 1826.9433,98 1827.6707,97.575824 1833.2188,91.78125 1836.4937,88.360883 1839.5184,84.873383 1839.9375,84.03125 1840.3566,83.189118 1840.3717,74.4 1839.9688,64.5 1839.5657,54.6 1839.4785,45.15 1839.7812,43.5 1840.0841,41.85 1842.3169,37.4586 1844.75,33.75 1847.1832,30.041401 1848.9837,26.441401 1848.75,25.75 1848.3315,24.511363 1839.6427,37.21872 1838.0625,41.375 1837.616,42.549369 1837.3772,52.301172 1837.5625,63.03125 1837.7477,73.761327 1837.6063,82.957973 1837.2188,83.5 1836.8312,84.042027 1833.942,86.8625 1830.8125,89.75 1826.6586,93.582577 1823.9916,94.977918 1821.1875,94.6875 z"/>
</svg>
