<?xml version="1.0" encoding="UTF-8"?>
<svg xmlns="http://www.w3.org/2000/svg" viewBox="1900.22 19.55 52.2 85.84">
  <path d="M 1902.5938,51.1875 1905.0625,51.4375 C 1905.3702,51.070301 1906.0802,50.509623 1906.1875,50.25 1912.7828,34.2976 1916.1992,29.575213 1922.2812,27.9375 1931.3331,25.500085 1938.2469,31.48592 1942.4688,45.375 1945.8043,56.348511 1947.3301,70.958298 1946.6562,85.71875 1946.1579,96.636424 1946.8284,101.49251 1948.3125,97.625 1949.6527,94.132572 1950.0454,79.371989 1949.0938,68.5 1946.8049,42.353009 1940.289,27.833632 1929.6562,25.15625 1922.8937,23.453422 1918.7579,25.092345 1914.0625,31.3125 1910.1436,36.503958 1905.0185,46.375797 1905,48.78125 1904.9973,49.135318 1903.9996,50.061109 1902.5938,51.1875 z M 1910.4062,52 1913.5938,52.3125 C 1913.2072,50.96971 1913.2918,49.869424 1913.7188,48.1875 1915.1097,42.707668 1919.6684,36 1922,36 1927.7612,36 1934.9768,59.394889 1935.1875,78.71875 1935.2582,85.202882 1935.0152,92.525 1934.625,95 1933.9965,98.986271 1934.0563,99.283733 1935.3125,97.71875 1938.151,94.1822 1938.9039,69.406902 1936.4375,60.5 1931.1547,41.423183 1929.9769,38.369092 1926.5312,34.75 1923.6583,31.732456 1919.9424,31.165935 1918.0312,33.46875 1915.8093,36.14605 1911.1924,46.425384 1910.4688,50.3125 1910.3281,51.0682 1910.44,51.445689 1910.4062,52 z M 1929.9375,33 C 1928.2986,33 1928.9166,35.185188 1931.4688,38.53125 1934.4618,42.455428 1937.4419,51.184426 1938.9375,60.28125 1940.5896,70.329881 1941.2308,91.708433 1939.9375,94.125 1939.3428,95.236267 1939.1434,96.924227 1939.5,97.84375 1940.7679,101.11283 1942.9907,96.024447 1943.125,89.5625 1943.5459,69.303676 1942.1825,58.088466 1937.7812,45.5 1935.6368,39.366469 1931.639,33 1929.9375,33 z"/>
</svg>
