<?xml version="1.0" encoding="UTF-8"?>
<svg xmlns="http://www.w3.org/2000/svg" viewBox="2901.81 13.63 82.63 88.08">
  <path d="M 2971.5625 66.34375 C 2971.3145 65.346136 2971.6736 63.954889 2972.875 60.40625 C 2973.9751 57.156698 2975.5774 52.826084 2976.4375 50.78125 C 2977.2976 48.736415 2978 45.365046 2978 43.28125 C 2978 41.197453 2978.4163 38.083372 2978.9062 36.375 C 2980.6867 30.167033 2976.558 18.914338 2974 23 C 2973.4835 23.825 2972.5439 26.975 2971.9375 30 C 2970.0679 39.326576 2964.0819 57.69239 2962.4688 59.03125 C 2961.2048 60.080276 2960.006 59.810724 2955.5625 57.5625 C 2950.3448 54.922586 2950.0944 54.914836 2946.9688 56.53125 L 2943.75 58.1875 L 2944.1875 49.4375 C 2944.64 40.815117 2944.7043 40.626487 2948.2812 37.59375 C 2953.4538 33.207975 2956.8335 24.239288 2953.9688 22.46875 C 2953.3951 22.114301 2950.9764 23.422569 2948.5938 25.375 C 2946.211 27.327431 2942.9969 29.491222 2941.4688 30.1875 C 2939.0129 31.306432 2938.5631 31.224685 2937.5938 29.53125 C 2936.9907 28.477476 2935.375 26.552674 2934 25.21875 C 2926.1792 17.631543 2917 20.790643 2917 31.09375 C 2917 38.155279 2919.4735 40.083183 2930 41.21875 C 2932.3746 41.474915 2932.5057 41.851136 2932.75 48.5 C 2933.0966 57.936071 2932.2582 59.086165 2927.1562 56.21875 C 2921.6782 53.139888 2918.4122 53.376176 2914.9688 57.0625 C 2909.0746 63.372065 2905.5697 80.743452 2909.5312 84.03125 C 2911.5407 85.699041 2911.8658 85.230896 2913.6562 78.375 C 2917.4641 63.793024 2921.077 63.395998 2927.9375 76.84375 L 2930.125 81.15625 L 2927.5312 84.53125 C 2924.7839 88.133173 2923.381 92.959796 2924.3438 95.46875 C 2925.2026 97.706995 2927.3284 97.343812 2930 94.5 C 2932.8518 91.464377 2937.0074 91.245664 2939.5 94 C 2942.1872 96.969285 2945.7942 96.622733 2946.625 93.3125 C 2947.1178 91.348784 2946.5417 89.211943 2944.5 85.4375 C 2942.6016 81.928155 2941.8983 79.494079 2942.3125 77.84375 C 2943.0193 75.027531 2947.8951 68.352366 2949.8125 67.5625 C 2951.3676 66.921885 2955.7966 69.1151 2961.7812 72.75 L 2964.4688 71 C 2957.086 66.221155 2950.7245 64.303181 2947.5625 66.375 C 2945.2778 67.871973 2939 79.029509 2939 81.59375 C 2939 82.288704 2940.125 84.178405 2941.5 85.8125 C 2942.875 87.446594 2944 89.748146 2944 90.90625 C 2944 93.394606 2943.2383 93.525606 2941 91.5 C 2937.8146 88.617191 2933.6345 88.584695 2930.2812 91.40625 C 2926.2683 94.782925 2925.6097 94.676843 2926.375 90.75 C 2926.7491 88.830181 2928.3351 86.378091 2930.25 84.78125 L 2933.5 82.09375 L 2929.625 74.5 C 2927.4909 70.315071 2924.6784 66.166543 2923.375 65.3125 C 2921.2211 63.901252 2920.7731 63.92763 2918.4688 65.4375 C 2916.2477 66.892766 2914.1103 70.500409 2911.3438 77.5 C 2910.7553 78.988909 2910.4695 78.246007 2910.2188 74.625 C 2909.6171 65.934809 2914.7691 55.991873 2919.875 56 C 2920.7633 56.001414 2924.0607 57.552022 2927.1875 59.4375 C 2934.4785 63.834058 2935.1562 63.11775 2935.1562 51.0625 C 2935.1562 38.824331 2934.7985 38 2929.875 38 C 2925.4452 38 2920.5404 35.866879 2919.6562 33.5625 C 2918.7988 31.328181 2920.8742 30.564292 2922.875 32.375 C 2924.4464 33.797092 2924.8353 33.822404 2926.8125 32.4375 C 2929.2979 30.696659 2929.6646 27.786434 2927.625 26.09375 C 2926.1059 24.833005 2923.427 25.513334 2920.75 27.8125 C 2919.1873 29.154605 2919 29.132802 2919 27.71875 C 2919 24.651262 2921.922 22.886561 2925.8438 23.59375 C 2931.2499 24.568631 2932.7948 25.64749 2935.0312 30.03125 C 2937.6082 35.082416 2939.3785 35.072068 2946.1562 29.96875 C 2950.2213 26.907983 2951.5665 26.305333 2951.8125 27.46875 C 2952.1969 29.2863 2948.2159 34.657603 2945.8438 35.5 C 2943.425 36.358928 2942.2274 40.67546 2941.4375 51.4375 C 2940.8213 59.831767 2940.9177 61.022525 2942.4062 61.59375 C 2943.4462 61.992843 2944.979 61.43646 2946.375 60.125 C 2949.3188 57.359461 2951.1806 57.443895 2954.8125 60.5 C 2960.9665 65.678236 2964.2294 62.92154 2968.8438 48.6875 C 2970.4837 43.628645 2972.3732 36.4625 2973.0312 32.75 C 2973.6894 29.0375 2974.5873 26 2975.0312 26 C 2978.2121 26 2976.4183 42.963103 2971.9688 55.03125 C 2968.5909 64.192955 2967.7742 66.544377 2968.8125 68.15625 L 2971.5625 66.34375 z M 2925.1562 28.25 C 2925.7717 28.337921 2926.4722 28.885388 2926.7812 29.8125 C 2926.999 30.465625 2926.4647 31 2925.5938 31 C 2924.7229 31 2924 30.277083 2924 29.40625 C 2924 28.523286 2924.5408 28.162079 2925.1562 28.25 z "/>
</svg>
