<?xml version="1.0" encoding="UTF-8"?>
<svg xmlns="http://www.w3.org/2000/svg" viewBox="1843.61 21.09 82.79 85.99">
  <path d="M 1902.5938 51.1875 C 1899.0418 54.033409 1892.3769 58.41552 1888.625 60.125 C 1886.1555 61.250205 1885.7057 61.102204 1883 57.9375 C 1879.5496 53.901913 1879.3326 52.107142 1881.875 48.875 C 1885.8551 43.815064 1888.1297 37.403934 1887.8125 32.09375 C 1887.6441 29.273476 1887.05 26.901253 1886.5 26.8125 C 1885.95 26.723747 1884.1294 29.502436 1882.4375 32.96875 C 1879.5212 38.943589 1873.4591 45 1870.4375 45 C 1868.5702 45 1866.7143 36.614442 1867.2188 30.53125 C 1867.6099 25.815535 1867.4297 25 1865.9688 25 C 1861.8643 25 1857.4304 42.827746 1860 49.03125 C 1861.2317 52.004716 1861.1183 52.293317 1857.2188 56.3125 C 1854.984 58.615758 1852.1724 62.40884 1850.9688 64.75 C 1847.3702 71.749618 1850.3613 74.39249 1856.25 69.4375 C 1862.2723 64.370072 1863.7038 67.408341 1861.0312 79.53125 C 1859.3044 87.364358 1860.2286 92.039138 1864.4062 96.46875 C 1868.5502 100.86272 1871.9618 101.03961 1878.0625 97.1875 C 1885.1624 92.70452 1885.8405 92.64981 1889.6562 96 C 1893.2648 99.16831 1898.647 100.10468 1899.5625 97.71875 C 1899.8357 97.006764 1899.3718 94.475913 1898.5312 92.09375 C 1897.6908 89.711586 1897 85.105851 1897 81.875 C 1897 76.808973 1896.7335 76 1895.125 76 C 1893.0637 76 1888.4689 79.273758 1885.7188 82.6875 C 1882.5605 86.6077 1875.7324 87.465014 1873.25 84.25 C 1871.2802 81.698827 1871.7242 72.921692 1873.9688 70 C 1875.8592 67.539263 1875.928 67.527617 1878.8438 69.25 C 1882.1117 71.180363 1886.5314 71.5672 1887.5 70 C 1887.8424 69.445942 1889.7849 68.166173 1891.8125 67.15625 C 1893.84 66.146326 1896.8816 64.497396 1898.5625 63.5 C 1903.0078 60.862285 1906.009 62.012978 1909 67.5 C 1911.1278 71.403351 1911.5095 73.371183 1911.5 80.78125 C 1911.4922 86.867391 1910.9149 90.920771 1909.625 94.1875 C 1908.6101 96.757735 1908.0715 99.345235 1908.4375 99.9375 C 1910.435 103.16944 1915.8903 98.739686 1919.0938 91.28125 C 1921.7063 85.198634 1922.6366 74.617419 1921.0938 68.34375 C 1920.4407 65.688117 1918.299 60.888114 1916.3438 57.6875 C 1914.778 55.12448 1913.9665 53.607272 1913.5938 52.3125 L 1910.4062 52 C 1910.2951 53.826963 1910.6174 55.060819 1912.25 56.8125 C 1915.9562 60.788828 1917.0654 63.450764 1918.5312 71.875 C 1919.6804 78.47926 1919.6549 80.25692 1918.3125 85.09375 C 1917.4611 88.161848 1915.8902 91.761848 1914.8125 93.09375 L 1912.8438 95.5 L 1913.4688 90.0625 C 1913.8169 87.079865 1914.4775 83.929865 1914.9375 83.0625 C 1916.0181 81.025207 1914.3862 70.677501 1912.3438 66.625 C 1910.1292 62.230793 1906.1562 58.98406 1903.0938 59.0625 C 1901.6668 59.099049 1898.25 60.45169 1895.5 62.0625 C 1883.984 68.807975 1884.3211 68.728434 1879.9062 66.1875 C 1877.7383 64.939787 1875.6065 64.116046 1875.1875 64.375 C 1874.7685 64.633954 1873.3416 67.034798 1872 69.6875 C 1867.0779 79.419588 1869.7654 88.213061 1877.8438 88.8125 C 1881.5568 89.08803 1882.4664 88.656946 1886.8438 84.5625 C 1889.523 82.056352 1892.1598 80 1892.7188 80 C 1893.2777 80 1894.0017 81.9125 1894.3125 84.25 C 1894.6233 86.5875 1895.1798 90.1875 1895.5625 92.25 C 1896.4132 96.834901 1895.4969 96.971057 1890.5 93 C 1888.4237 91.35 1886.2369 90.017172 1885.625 90.03125 C 1885.0131 90.045328 1882.0309 91.620328 1879.0312 93.53125 C 1872.9206 97.424259 1870.2278 97.810808 1867.0938 95.25 C 1863.4925 92.30759 1862.0793 85.553947 1863.5938 78.5 C 1865.3878 70.143808 1865.3488 65.084471 1863.5 64.375 C 1862.6739 64.057989 1860.1426 64.530212 1857.875 65.4375 C 1855.6075 66.344787 1853.5228 66.866553 1853.25 66.59375 C 1852.9772 66.320948 1854.046 64.04499 1855.625 61.53125 C 1857.7538 58.142052 1859.4692 56.653188 1862.25 55.8125 C 1866.6733 54.475262 1866.8221 53.760566 1863.5 49.8125 C 1860.7073 46.493515 1860.1945 40.49592 1862.0938 33.65625 C 1863.4261 28.857768 1863.9859 29.356118 1864.5312 35.84375 C 1865.0468 41.977329 1867.3145 47.805599 1869.5312 48.65625 C 1871.4694 49.399954 1878.8746 42.482147 1881.625 37.375 C 1882.628 35.512601 1883.7939 34 1884.2188 34 C 1886.6978 34 1883.3034 43.111694 1878.375 49.6875 C 1877.0628 51.438303 1876.0095 53.238303 1876.0312 53.6875 C 1876.1128 55.363965 1884.8802 64 1886.5 64 C 1889.2506 64 1901.8605 55.259203 1905.0625 51.4375 L 1902.5938 51.1875 z "/>
</svg>
