<?xml version="1.0" encoding="UTF-8"?>
<svg xmlns="http://www.w3.org/2000/svg" viewBox="1148.92 17.1 32.61 85.9">
  <path d="M 1173.3418,94.883881 C 1176.6811,82.5427 1176.5841,70.299275 1173.1025,64.665918 L 1171.0109,61.281515 1173.0712,55.390758 C 1176.2784,46.221036 1176.6546,36.774786 1174.1109,29.281545 1171.7839,22.426589 1171.5714,21 1172.8769,21 1174.5775,21 1177.9746,30.877007 1178.6043,37.652325 1179.108,43.071736 1178.7877,46.128998 1177.078,52.222145 1175.0626,59.404607 1175.0228,60.143315 1176.4974,62.994881 1178.7578,67.366159 1179.528,78.01705 1178.0738,84.795338 1175.8166,95.316298 1175.476,96.341323 1174.0834,96.805533 1173.0531,97.148956 1172.8625,96.655037 1173.3418,94.883881 z M 1163.3508,94.75 C 1166.3192,83.312915 1166.3773,82.32966 1164.6158,73.364403 1163.6604,68.501876 1162.1854,63.757376 1161.3381,62.821069 1159.9459,61.28269 1160.0026,60.502272 1161.9268,54.719909 1165.0614,45.30042 1165.4845,39.425529 1163.619,31.22357 1161.6353,22.501679 1161.6278,22 1163.4809,22 1164.2955,22 1165.2209,23.2375 1165.5374,24.75 1165.8539,26.2625 1166.5986,29.422071 1167.1923,31.771269 1168.4968,36.932796 1167.5931,47.68473 1165.3103,54.163647 1163.7249,58.662966 1163.7494,59.085799 1166.0061,66.163647 1168.9625,75.436079 1169.2209,85.631538 1166.6673,92.25 1164.8232,97.029437 1162.2572,98.963748 1163.3508,94.75 z M 1152.4753,95.38645 C 1155.1904,88.936263 1156.0059,85.166303 1156.1044,78.610148 1156.1944,72.623784 1155.7155,70.116045 1153.5682,65.331363 L 1150.9211,59.4327 1152.9438,54.860046 C 1156.2585,47.366432 1157.3172,36.898927 1155.4202,30.373646 1153.8381,24.931245 1154.0878,21.318166 1155.9658,22.47884 1157.6135,23.497212 1159.2384,31.176634 1159.109,37.334267 1158.9727,43.816312 1157.4419,51.037732 1155.2993,55.305947 1154.0317,57.831239 1154.129,58.781444 1156.2723,64.805947 1159.3589,73.481766 1159.4432,86.410864 1156.4524,92.427846 1154.4457,96.464864 1150.9162,99.090551 1152.4753,95.38645 z"/>
</svg>
