<?xml version="1.0" encoding="UTF-8"?>
<svg xmlns="http://www.w3.org/2000/svg" viewBox="215.31 16.43 31.5 81.94">
  <path d="M 219.53125 70.28125 L 217.3125 73.8125 L 217.53125 74.6875 C 218.03279 74.92792 218.50405 75.281607 218.875 75.75 C 221.09309 78.550751 226.50994 81.119398 228.53125 80.34375 C 231.43867 79.228067 233.74415 71.692669 235.40625 57.90625 C 236.29451 50.538518 237.58324 40.9 238.25 36.5 L 239.46875 28.5 L 240.25 33.5 C 240.95574 37.916477 240.6432 50.517759 239.46875 64 C 238.88816 70.664926 235.53648 83.25213 233.53125 86.3125 C 231.48362 89.437572 230.0278 89.544232 224.21875 86.875 C 222.95476 86.294201 221.43435 85.068593 219.9375 83.71875 L 221.5625 89.84375 L 221.5625 90.15625 C 222.68973 90.168812 224.19839 90.77827 226.375 92.0625 C 230.75731 94.648124 233.1387 93.637365 236.0625 87.90625 C 241.60404 77.043927 244.81189 47.626045 242.5625 28.5 C 241.71866 21.324981 240.25371 20.155856 237.46875 24.40625 C 236.43393 25.985584 235.5988 31.00487 234.96875 39.15625 C 233.44156 58.914177 230.73941 74.11552 228.46875 76 C 227.46959 76.829224 226.3616 76.735251 224.09375 75.5625 C 221.31288 74.124457 219.83359 72.274441 219.53125 70.28125 z "/>
</svg>
