<?xml version="1.0" encoding="UTF-8"?>
<svg xmlns="http://www.w3.org/2000/svg" viewBox="891.64 10.4 70.62 94.35">
  <path d="M914.32098 89.386706C911.05117 87.774173 908.0 82.808187 908.0 79.098871C908.0 76.530608 910.7815 76.318531 915.1098 78.55678C919.51912 80.83693 924.86945 80.080952 927.28092 76.837053C930.12201 73.015229 928.96125 69.53104 924.00446 67.002275C920.18002 65.051191 919.8318 65.038369 914.08204 66.636943C909.0499 68.036005 907.63756 68.092513 905.00071 67.000292C900.46217 65.120371 897.07784 60.07894 895.83757 53.350561C894.84952 47.990426 894.97372 46.974088 897.31921 41.226109C899.45577 35.990142 899.70364 34.448307 898.81747 31.90625C897.5629 28.307382 898.23553 20.626052 899.99041 18.511558C901.67698 16.479366 903.25975 17.646129 902.0027 19.994947C900.61772 22.582821 900.80802 29.026339 902.35159 31.807865C903.47198 33.826827 903.26879 34.82828 900.72841 39.807865C898.32111 44.526593 897.9087 46.355045 898.31675 50.5C898.58748 53.25 899.33589 56.653442 899.9799 58.063204C901.6524 61.724422 907.06611 64.40164 911.18584 63.604828C923.50463 61.222205 927.16751 62.075795 930.4061 68.083877C932.85249 72.622303 932.01359 76.186408 927.41708 80.782919C924.25072 83.949278 923.59841 84.191399 919.84926 83.591886C917.59272 83.231051 914.80338 82.275262 913.65072 81.467911C912.49807 80.66056 910.86762 80.012176 910.02749 80.027058C907.65263 80.069125 915.45616 86.839369 918.70115 87.552209C923.44861 88.595105 924.14848 88.95074 923.50437 89.992937C922.58445 91.481385 917.94781 91.175302 914.32098 89.386706Z M937.11962 98.790452C935.26041 98.287088 932.74612 97.224532 931.53232 96.429218C929.54674 95.128219 929.0856 95.191167 926.93445 97.05685C923.45825 100.07175 923.16324 97.482822 926.57698 93.919654C929.86093 90.491944 930.6661 90.392189 934.0 93.0C936.61928 95.048828 940.0 95.655513 940.0 94.076725C940.0 93.568924 938.875 91.816464 937.5 90.182369C934.50566 86.623804 934.36726 84.882593 936.89679 82.593401C939.43189 80.299174 941.17776 72.963861 940.37845 67.965214C939.81654 64.451232 940.12394 63.429143 942.71118 60.208946C948.41927 53.104409 950.85082 45.368028 948.94839 40.364255C947.82436 37.407825 949.00667 34.740575 953.16632 30.84879C955.94999 28.24437 956.96715 25.0 955.0 25.0C954.45 25.0 953.08203 25.91797 951.96007 27.039934C949.50968 29.490321 945.22104 31.254646 943.81997 30.388732C942.90649 29.824172 943.01232 27.048078 944.10073 23.023741C944.74225 20.651763 940.67449 20.681606 937.63666 23.071164C933.45917 26.357178 934.26042 30.609077 939.75 34.285741C944.74424 37.630654 945.0361 39.496169 942.03493 48.890651C938.82761 58.930457 932.89673 64.990345 929.8596 61.330829C929.19194 60.526343 927.33472 59.190211 925.73245 58.361646C923.12597 57.013784 922.40547 57.020726 918.88938 58.427583C910.05445 61.962624 905.16784 59.668729 904.25355 51.557152C903.3827 43.83098 907.92568 37.0 913.93486 37.0C916.80288 37.0 919.0 35.395044 919.0 33.3C919.0 32.585 917.90052 32.0 916.5567 32.0C913.05965 32.0 910.83959 28.406514 911.62881 24.023473C913.15816 15.529993 915.77852 14.693071 915.61599 22.75C915.50109 28.44616 915.52697 28.5 918.38073 28.5C925.81175 28.5 923.34637 37.625881 915.10783 40.614988C912.57352 41.534486 909.7125 43.172125 908.75 44.254185C906.40613 46.889204 906.45089 53.193086 908.82874 55.345012C911.20206 57.49284 913.82023 57.434636 919.23481 55.113675C923.83036 53.143792 926.16533 53.554301 931.25 57.226056C932.51944 58.142745 933.48056 58.19917 934.75 57.431532C937.44469 55.802031 941.0 48.014526 941.0 43.7416C941.0 40.572197 940.50402 39.622325 938.14094 38.266102C936.56845 37.36362 934.2672 35.1444 933.02703 33.334503C930.19603 29.202926 930.85706 25.942941 935.45894 21.341055C938.12705 18.672951 939.60115 18.0 942.77756 18.0C947.3081 18.0 949.17576 19.611902 948.34152 22.802036C947.60722 25.610006 948.27362 25.565688 952.77456 22.507221C955.92276 20.367962 956.64199 20.213422 957.84608 21.417507C959.05016 22.621592 959.01819 23.498384 957.62061 27.600051C956.72492 30.228765 955.14664 33.306637 954.11333 34.439766C952.74259 35.942911 952.10988 38.528008 951.77344 44.0C951.304 51.634899 948.13008 59.987304 944.57801 62.935259C943.53281 63.802695 943.0 65.902438 943.0 69.15399C943.0 71.853996 942.09492 76.749787 940.98871 80.033526L938.97741 86.003962L941.53774 90.059792C945.43602 96.235065 943.29658 100.46281 937.11962 98.790452Z M906.0 30.0C905.23055 27.142478 905.23055 24.857522 906.0 22.0C907.53426 16.302194 908.63551 17.054237 908.56261 23.75C908.52817 26.9125 908.86782 30.5125 909.31739 31.75C909.9381 33.458629 909.76692 34.0 908.60593 34.0C907.66846 34.0 906.66046 32.452755 906.0 30.0Z"/>
</svg>
