<?xml version="1.0" encoding="UTF-8"?>
<svg xmlns="http://www.w3.org/2000/svg" viewBox="2310.42 15.84 48.98 89.82">
  <path d="M2324.5634 99.75C2324.3578 99.0625 2323.4719 96.165446 2322.5948 93.312103C2320.4162 86.225002 2320.5444 85.030751 2324.0522 79.734875L2327.1044 75.126862L2324.0522 70.913392C2321.4458 67.315312 2320.9992 65.809007 2320.9944 60.599962C2320.9886 54.280732 2319.4675 47.0 2318.153 47.0C2317.7388 47.0 2316.8675 47.5325 2316.2167 48.183333C2315.5658 48.834167 2314.763 49.096341 2314.4326 48.765943C2313.881 48.214321 2315.2474 46.806835 2321.903 41.070943C2323.2247 39.931924 2325.0317 39.0 2325.9186 39.0C2327.6001 39.0 2332.0798 41.307525 2335.9556 44.170083C2338.889 46.336629 2337.8367 48.268609 2334.4289 46.972976C2331.2358 45.758968 2330.5257 47.351434 2331.4655 53.618355C2331.9793 57.044956 2333.1834 59.328555 2336.2045 62.606073C2338.4321 65.022733 2340.581 67.0 2340.9798 67.0C2341.3787 67.0 2343.8842 64.226145 2346.5478 60.835878C2349.2113 57.445611 2351.5759 55.227777 2351.8025 55.907359C2352.029 56.586942 2351.3237 58.123297 2350.2352 59.321482C2349.1467 60.519667 2347.0137 63.4125 2345.4952 65.75C2343.9767 68.0875 2341.9896 70.0 2341.0795 70.0C2340.1694 70.0 2337.2453 67.787255 2334.5815 65.082789C2329.7562 60.183775 2329.736 60.135128 2329.1191 51.937372C2328.6477 45.671757 2328.0859 43.449011 2326.7639 42.618463C2325.3884 41.754329 2324.5721 41.983456 2322.8341 43.721489C2320.9344 45.621138 2320.7985 46.262341 2321.8202 48.504661C2322.4691 49.928856 2323.0 53.930415 2323.0 57.397015C2323.0 62.816195 2323.4215 64.281798 2326.0063 67.849962C2327.6597 70.132483 2329.4597 72.0 2330.0063 72.0C2332.2239 72.0 2330.7646 75.985891 2326.9678 80.299274L2322.9355 84.880127L2324.888 90.663469C2327.489 98.367867 2329.2415 98.906016 2328.3995 91.74175L2327.7604 86.303977L2333.1302 81.153024C2336.0836 78.32 2338.7727 76.001605 2339.106 76.001035C2339.4394 76.000466 2341.5769 78.493544 2343.856 81.541209C2347.4439 86.338874 2348.0 87.764241 2348.0 92.163654C2348.0 98.795712 2349.9385 97.460103 2352.4758 89.079825L2354.2756 83.135729L2351.3056 79.317865C2349.6721 77.218039 2348.0047 74.931264 2347.6002 74.236141C2347.1607 73.48074 2348.7797 70.091908 2351.6246 65.812613C2354.2424 61.874794 2356.5502 59.150524 2356.7529 59.75868C2357.1694 61.008185 2354.671 66.173353 2351.7181 70.167346C2349.7479 72.832284 2349.7481 72.837432 2351.9097 75.873119C2356.0272 81.655732 2356.3933 84.308274 2354.0466 91.359888C2351.6766 98.481729 2349.2319 101.40994 2346.5235 100.37065C2345.0598 99.808958 2344.8539 98.881658 2345.3196 94.948905C2345.802 90.875855 2345.4686 89.553684 2342.9628 85.60237C2339.6456 80.371728 2337.8481 79.970214 2333.5336 83.49609C2330.807 85.72426 2330.5864 86.380074 2330.8052 91.607548C2330.9797 95.778208 2330.5961 97.78887 2329.3666 99.147421C2327.4374 101.27918 2325.1081 101.57139 2324.5634 99.75Z M2317.881 35.62122C2325.1201 28.245169 2325.8146 28.120481 2332.8915 32.926336C2336.2512 35.207838 2339.0 37.481197 2339.0 37.978244C2339.0 40.008137 2337.0571 39.828624 2333.8728 37.504519C2326.8403 32.37171 2326.5905 32.349784 2320.7752 36.354909C2313.7064 41.223367 2312.6466 40.954703 2317.881 35.62122Z M2315.0 31.280502C2315.0 30.809875 2317.2121 28.245945 2319.9159 25.582881C2325.6639 19.921235 2327.0058 19.922937 2334.294 25.601117C2338.8604 29.158783 2340.1073 31.0 2337.9503 31.0C2336.1753 31.0 2331.5969 28.317009 2329.5927 26.102379C2327.1748 23.430648 2324.8229 23.432463 2322.405 26.107927C2319.8181 28.970367 2315.0 32.335953 2315.0 31.280502Z"/>
</svg>
