<?xml version="1.0" encoding="UTF-8"?>
<svg xmlns="http://www.w3.org/2000/svg" viewBox="372.16 17.06 32.12 83.01">
  <path d="M385.71304 91.684792C382.39009 86.613334 381.67355 81.500078 381.47417 61.436185C381.27782 41.676793 381.23545 41.312647 378.68118 37.436185C374.24645 30.70583 374.15823 21.0 378.53179 21.0C379.33557 21.0 381.68096 23.7 383.74376 27.0C385.80657 30.3 388.04573 33.0 388.71967 33.0C389.39362 33.0 391.65496 30.4125 393.74488 27.25C396.30025 23.383183 398.32282 21.388986 399.92051 21.161037C402.23239 20.831189 402.27932 20.966319 401.66585 26.186011C401.31911 29.136177 399.88634 34.838885 398.4819 38.858694C396.54922 44.390441 396.08878 47.180399 396.58813 50.333719C398.01237 59.32778 397.24988 77.235726 395.16171 83.834424C392.10435 93.495797 388.73428 96.295797 385.71304 91.684792Z M389.02618 73.269107C390.38534 72.317116 392.17297 71.529616 392.99869 71.519107C394.26122 71.503039 394.46082 69.643054 394.25368 59.824789C394.11821 53.403423 393.58132 47.028996 393.0606 45.659396C392.28546 43.62062 392.5567 42.691351 394.55692 40.533085C395.90061 39.083214 397.0 36.765557 397.0 35.382737C397.0 33.999916 397.47774 31.975847 398.06165 30.884805C398.64556 29.793764 398.98306 27.686851 398.81165 26.202776C398.53378 23.796899 398.03081 24.296259 394.17084 30.810308C391.29351 35.66606 389.31229 38.01284 388.26313 37.808079C387.39493 37.638636 384.62237 34.449543 382.10189 30.721207C379.58141 26.992871 377.36618 24.401449 377.17917 24.962492C376.59981 26.700569 379.08802 33.276433 382.19024 38.205804C384.98493 42.646508 385.10143 43.244205 384.25819 48.815563C383.53249 53.610262 383.31076 68.066496 383.87574 73.75C384.04964 75.49941 386.11765 75.306322 389.02618 73.269107Z M392.85559 82.560828C394.06245 78.189938 393.08734 76.0 389.93426 76.0C385.48152 76.0 384.08694 83.977658 387.79274 88.250537C389.23867 89.91774 389.3695 89.917474 390.54098 88.24495C391.2175 87.279082 392.25908 84.721227 392.85559 82.560828Z"/>
</svg>
