<?xml version="1.0" encoding="UTF-8"?>
<svg xmlns="http://www.w3.org/2000/svg" viewBox="3297 15.05 29.34 95.28">
  <path d="M 3323.0312 42.1875 C 3322.8343 40.658103 3322.6627 39.309394 3322.5625 36 C 3322.2424 25.42247 3320.8412 21.245091 3317.25 20.34375 C 3313.4226 19.383149 3307.6723 21.593753 3305.875 24.71875 C 3303.36 29.091769 3302.7272 38.125607 3304.5625 43.53125 C 3306.4176 48.995321 3305.8945 52.222226 3301.875 60.21875 C 3300.2933 63.365566 3299 66.382694 3299 66.90625 C 3299 67.429806 3300.5905 69.92627 3302.5312 72.46875 L 3306.0625 77.09375 L 3305.375 87.4375 C 3304.6566 98.548906 3305.1015 101.97647 3307.5625 104.4375 C 3308.426 105.30096 3310.2612 106 3311.625 106 C 3315.2052 106 3317.1717 100.58041 3317.7812 89 C 3318.2333 80.41387 3318.5781 79.093927 3321.3438 75.21875 C 3324.2199 71.188673 3324.3358 70.669821 3323.2812 66.71875 C 3322.6642 64.406781 3322.2698 62.417669 3322.4062 62.28125 C 3322.4151 62.272432 3322.6638 62.377638 3322.6875 62.375 L 3322.4688 62.03125 L 3320.5625 56.84375 L 3321.0938 53.65625 C 3321.0535 53.277173 3321 52.932278 3321 52.46875 C 3321 50.563578 3321.2182 49 3321.4688 49 C 3321.4913 49 3321.7961 49.201165 3321.8438 49.21875 L 3322 48.34375 L 3322.9375 42.6875 L 3323.0312 42.1875 z M 3316.0625 22.5625 C 3316.8637 22.705515 3317.4371 23.149149 3318.125 23.96875 C 3320.8911 27.264563 3321.3077 35.469261 3319.3438 47.3125 L 3317.5625 58.15625 L 3319.8125 64.59375 L 3322.0625 71.03125 L 3319.0625 74.78125 C 3316.2995 78.236168 3316.0691 79.250644 3315.5938 88.75 C 3315.3116 94.387711 3314.5886 99.900213 3314 101 C 3311.9259 104.87548 3308.0448 102.59055 3307.7812 97.34375 C 3307.7023 95.771097 3308.005 90.431027 3308.4375 85.46875 L 3309.2188 76.46875 L 3305.625 72.125 C 3303.6388 69.747739 3302 67.044043 3302 66.09375 C 3302 65.143458 3303.3921 61.798248 3305.0938 58.65625 C 3307.7847 53.688026 3308.1146 52.253991 3307.625 47.71875 C 3305.2701 25.90454 3305.5334 24.598392 3312.5312 22.96875 C 3314.2252 22.574275 3315.2613 22.419485 3316.0625 22.5625 z "/>
</svg>
