<?xml version="1.0" encoding="UTF-8"?>
<svg xmlns="http://www.w3.org/2000/svg" viewBox="3456.43 12.22 29.75 94.81">
  <path d="M3468.5744 99.75C3465.0886 94.420858 3462.8645 87.633471 3460.4643 75.0C3458.7983 66.231034 3458.4303 23.429011 3460.0 21.0C3460.6554 19.985769 3460.9743 23.421913 3460.9847 31.610429C3461.0102 51.794767 3462.1585 55.797314 3466.5359 50.960301C3468.1028 49.228958 3468.4481 46.719364 3468.8199 34.359962C3469.3563 16.529487 3470.963 17.200978 3470.9847 35.264698L3471.0 48.029397L3474.25 50.010731C3476.0375 51.100465 3477.95 51.844723 3478.5 51.664637C3479.8472 51.223535 3480.7713 44.479886 3481.0576 33.0C3481.3637 20.728696 3482.4845 17.338241 3483.5368 25.5C3484.1764 30.461003 3483.1984 49.494834 3481.43 66.5C3480.7166 73.359856 3475.2598 95.596843 3473.4138 99.166624C3471.6447 102.58776 3470.5193 102.72343 3468.5744 99.75Z M3466.4111 61.5C3470.336 58.506325 3471.7098 58.426352 3475.0 61.0C3478.3696 63.635758 3479.0 63.499597 3479.0 60.136001C3479.0 57.947963 3478.1022 56.649853 3475.1962 54.636001C3473.1042 53.1862 3470.7631 52.0 3469.9939 52.0C3467.3982 52.0 3462.0 58.210113 3462.0 61.196167C3462.0 64.624342 3462.2888 64.644235 3466.4111 61.5Z M3472.8298 93.25C3474.2176 89.691233 3476.6926 78.814061 3477.4945 72.749642C3478.0828 68.300568 3477.9144 67.809038 3474.8385 64.999642C3473.0322 63.349839 3471.0545 62.0 3470.4437 62.0C3469.833 62.0 3467.7011 63.4625 3465.7062 65.25L3462.0792 68.5L3463.9841 77.185702C3465.9274 86.04594 3469.6402 96.0 3471.0018 96.0C3471.4174 96.0 3472.24 94.7625 3472.8298 93.25Z"/>
</svg>
