<?xml version="1.0" encoding="UTF-8"?>
<svg xmlns="http://www.w3.org/2000/svg" viewBox="2810.99 29.95 27.96 72.78">
  <path d="M 2815.4688 35.65625 L 2814.0938 41.75 L 2814.125 41.78125 L 2814.0938 41.8125 L 2813.0312 46.46875 C 2815.1723 45.85549 2817.3426 45.943004 2818.8125 46.875 C 2819.5398 47.33612 2820.527 49.434041 2821 51.53125 C 2821.711 54.683533 2821.4483 56.156907 2819.4375 60.125 C 2816.7435 65.441282 2816.4515 68.978474 2818.0938 77.15625 C 2819.0818 82.075993 2818.976 83.091579 2817.0938 86.78125 C 2812.9873 94.830642 2815.3236 99.422713 2821.0625 94.59375 C 2822.7628 93.163024 2824.6163 92 2825.1875 92 C 2825.7586 92 2827.6798 93.58103 2829.4375 95.5 C 2831.9068 98.195823 2832.8937 98.699966 2833.8125 97.78125 C 2835.6332 95.960488 2835.2455 91.183921 2832.875 86.4375 L 2830.7188 82.15625 L 2833.375 77.65625 C 2836.8059 71.801799 2836.9456 64.958531 2833.75 60.09375 C 2829.0747 52.976364 2829.0943 53.019529 2830.6562 48.625 C 2832.5829 43.204051 2831.6501 38.722666 2827.9688 35.625 C 2825.3797 33.446484 2824.5955 33.257765 2821.75 34.15625 C 2818.5496 35.166831 2816.7057 35.632108 2815.4688 35.65625 z M 2823.5625 36 C 2827.5024 36 2828.34 38.292399 2827.75 47.75 L 2827.1875 56.46875 L 2830.5938 60.25 C 2834.8407 64.950771 2835.1049 69.626422 2831.5 76.40625 C 2828.665 81.738173 2828.4099 84.632936 2830.5312 87.4375 C 2831.3388 88.505121 2832 90.241514 2832 91.28125 C 2832 93.087401 2831.8369 93.074187 2828.5312 91.03125 C 2824.8931 88.782802 2822.7842 89.12031 2820.0312 92.4375 C 2816.2762 96.962054 2816.3897 90.875164 2820.1562 85.65625 C 2821.7951 83.385339 2822.0055 82.326528 2821.1875 80.53125 C 2818.6758 75.018503 2818.755 69.656959 2821.4688 62.46875 C 2823.3787 57.409778 2823.9345 54.542205 2823.4688 52.03125 C 2822.4969 46.793629 2820.2092 43.038823 2817.3125 41.9375 L 2814.6875 40.9375 L 2818.0312 38.46875 C 2819.8709 37.111576 2822.3617 36 2823.5625 36 z "/>
</svg>
