<?xml version="1.0" encoding="UTF-8"?>
<svg xmlns="http://www.w3.org/2000/svg" viewBox="1187.9 12.58 21.6 88.65">
  <path d="M1193.75 46.273459C1192.3914 45.947315 1192.0015 44.807346 1192.0066 41.176676C1192.0102 38.604504 1191.4859 33.035652 1190.8415 28.801448C1189.9028 22.634495 1189.9259 20.794242 1190.9573 19.551448C1193.395 16.614221 1203.3754 18.456857 1204.5175 22.054981C1204.847 23.093281 1205.1854 28.232105 1205.2694 33.47459C1205.3946 41.286059 1205.1124 43.316173 1203.7057 44.722848C1202.0385 46.390079 1197.3061 47.127147 1193.75 46.273459Z M1202.3086 39.152982C1202.6018 37.143842 1202.5399 32.575 1202.1709 29.0L1201.5 22.5L1197.1047 22.185404L1192.7095 21.870807L1193.5425 27.685404C1194.0007 30.883432 1194.3055 35.507398 1194.22 37.960884C1194.0449 42.980884 1194.801 43.829588 1198.911 43.226375C1201.3369 42.87032 1201.857 42.24677 1202.3086 39.152982Z M1193.8756 95.387681C1193.8072 94.349457 1193.8038 89.038767 1193.868 83.58615C1194.007 71.776146 1195.2442 69.0 1200.3681 69.0C1206.2464 69.0 1207.5054 71.58804 1207.4655 83.589976C1207.4466 89.298387 1206.9905 94.409461 1206.4521 94.947917C1205.9136 95.486373 1202.8916 96.230326 1199.7365 96.601146C1194.5671 97.208716 1193.9877 97.088764 1193.8756 95.387681Z M1202.9522 92.025577C1204.5136 91.189964 1204.7535 89.831385 1204.6365 82.488597C1204.4924 73.450577 1203.7898 72.047266 1199.3929 72.015313C1197.4734 72.001364 1197.238 72.697305 1196.7491 79.830148C1195.8857 92.426578 1197.2374 95.084041 1202.9522 92.025577Z"/>
</svg>
