<?xml version="1.0" encoding="UTF-8"?>
<svg xmlns="http://www.w3.org/2000/svg" viewBox="1319.72 15.15 37.29 84.77">
  <path d="M1334.0725 93.69072C1330.8204 85.137032 1330.9197 76.74604 1334.579 50.902635C1335.215 46.411492 1335.1436 46.251859 1331.4896 43.993597C1327.1149 41.289871 1323.0 33.130669 1323.0 27.160048C1323.0 22.873261 1325.89 19.0 1329.0886 19.0C1331.7195 19.0 1336.021 21.260705 1338.4073 23.897621C1340.9235 26.677987 1342.0218 26.558865 1346.4711 23.022951C1349.5533 20.573574 1350.5729 20.236238 1352.2238 21.119752C1355.0064 22.608973 1354.076 27.634406 1349.8825 33.76556L1346.6444 38.5L1346.4377 55.5C1346.0872 84.326008 1343.7509 95.1077 1337.7016 95.816376C1335.6048 96.062013 1334.7934 95.58674 1334.0725 93.69072Z M1342.4 79.997385C1344.1171 67.702819 1344.5932 52.858497 1343.5296 44.777245C1342.8513 39.623649 1343.0113 38.773635 1345.1382 36.230551C1350.6025 29.69712 1352.7066 22.537687 1348.202 25.805474C1347.2659 26.484577 1345.0287 27.715872 1343.2305 28.541683C1339.9804 30.03421 1339.9381 30.019192 1336.1353 26.021579C1333.5259 23.278485 1331.4578 22.0 1329.6301 22.0C1321.7151 22.0 1326.148 38.333398 1335.0655 42.027141C1337.9849 43.236377 1339.6466 46.14478 1338.4886 48.018407C1337.1246 50.22549 1334.6144 69.918008 1334.6638 78.024797C1334.7006 84.071603 1335.2192 87.523235 1336.4478 89.899115C1339.0776 94.984474 1340.6788 92.320797 1342.4 79.997385Z"/>
</svg>
