<?xml version="1.0" encoding="UTF-8"?>
<svg xmlns="http://www.w3.org/2000/svg" viewBox="1069.26 15.06 122.08 86.14">
  <path d="M 1074.875,76.71875 1074.8125,77.09375 1075.125,82.5625 C 1075.2499,81.6909 1075.4605,81.073348 1075.75,81.21875 1076.1625,81.425942 1078.7088,82.58199 1081.4062,83.8125 L 1086.3125,86.0625 1090.125,83.53125 C 1094.8964,80.373695 1098.3789,80.377089 1103.5,83.53125 1110.3707,87.763015 1118.3284,86.127207 1121.5938,79.8125 1125.2466,72.748779 1120.1876,57.980314 1114.125,58.03125 1112.6873,58.043329 1109.5141,58.933105 1107.0938,60.03125 1102.8788,61.943539 1102.6231,61.975133 1100.75,60.28125 1099.6743,59.308526 1097.882,56.750523 1096.7812,54.59375 1095.0098,51.122803 1094.8748,49.514602 1095.4688,40.59375 L 1096.125,30.5 1092.9688,26.25 C 1087.624,19.038478 1085.7762,22.150973 1090.9062,29.71875 1093.3811,33.369658 1093.6518,34.46669 1093,38.03125 1091.8546,44.295177 1092.986,54.224305 1095.4062,59.03125 1098.4907,65.157402 1099.9074,65.802175 1105.875,63.65625 1115.1217,60.331189 1119.0285,62.849222 1120.5312,73.15625 1121.1008,77.062695 1120.872,78.127934 1119.1562,79.84375 1115.712,83.287977 1111.0062,83.538597 1104.7812,80.59375 1098.2125,77.486265 1095.5452,77.362241 1091.2188,80 1086.982,82.583192 1085.9687,82.530059 1079.875,79.34375 L 1074.875,76.71875 z M 1075.3125,85.5625 1075.6875,92.25 C 1076.283,92.214258 1077.1042,92.498339 1078.6875,93.125 1082.8166,94.759283 1087.7425,94.334167 1091.4688,92.03125 1095.8179,89.343322 1097.0489,89.452986 1103.5,93.09375 1110.9216,97.282277 1115.6436,97.267845 1124.1562,93.03125 L 1130.75,89.75 1133.9062,92.09375 C 1137.5581,94.793628 1142.9933,95.080146 1149.7188,92.9375 1153.6101,91.697755 1154.2378,91.785821 1157.8438,93.8125 1162.7385,96.563524 1166.3111,96.572343 1170.625,93.90625 1176.1333,90.501889 1174.7097,88.561436 1168.9062,91.5625 1165.631,93.256129 1163.6398,92.928909 1157.4688,89.78125 L 1153.4375,87.75 1149.25,89.875 C 1143.8239,92.643184 1141.8034,92.553379 1135.9062,89.34375 L 1131.0312,86.6875 1124.1875,89.84375 C 1115.3172,93.932326 1111.8102,93.876191 1104.9688,89.5625 1098.9958,85.79652 1096.4634,85.736126 1090,89.15625 1085.4998,91.537519 1083.614,91.476 1078.875,88.8125 1076.7306,87.607324 1075.7485,86.73275 1075.3125,85.5625 z M 1132.0625,19.03125 C 1130.0364,19.059842 1126.7121,21.771844 1124.5938,25.125 1123.0444,27.577471 1123.0242,28.267582 1124.5625,35.03125 1126.3013,42.676047 1126.1023,51.303928 1124.125,53.28125 1123.2451,54.161204 1121.8758,53.844134 1118.5,52 1114.5427,49.83824 1113.6997,49.703349 1110.7188,50.78125 1106.2041,52.413788 1106.2529,52.445653 1105.4062,48.75 1103.4228,40.091288 1105.1491,31.083668 1109.5625,26.9375 1110.9095,25.672055 1112,24.266627 1112,23.8125 1112,22.148496 1109.8493,23.070771 1107.4375,25.75 1102.6484,31.070201 1101.6233,34.020496 1101.75,42.21875 1101.9358,54.239927 1105.0511,58.460308 1110.5625,54.125 L 1113.125,52.09375 1117.9375,55.0625 C 1125.2224,59.544958 1126.7389,59.099773 1127.5312,52.28125 1127.7725,50.203872 1128.2082,47.12652 1128.5,45.4375 1128.7918,43.74848 1128.3798,39.02348 1127.5938,34.9375 1126.3417,28.429606 1126.3636,27.205593 1127.6562,25.1875 1129.9906,21.543513 1131.9159,21.374963 1134.5938,24.59375 1136.2101,26.536526 1136.8472,28.32192 1136.5312,30 1132.8575,49.513919 1132.7305,51.176427 1134.375,54.625 1136.2134,58.480278 1138.1028,58.844262 1141.7188,56 1144.662,53.68484 1146.2773,53.511134 1149.3125,55.21875 1150.5139,55.894611 1152.85,56.966836 1154.5,57.59375 1158.4368,59.089524 1160.9841,58.413202 1163.75,55.15625 1166.3694,52.07181 1167.9134,47.143492 1169.0625,38 L 1169.875,31.5 1165.8438,26.1875 C 1162.0881,21.213033 1160.1263,20.152428 1159.2812,22.6875 1159.0841,23.278992 1160.3102,25.275867 1162.0312,27.125 1163.7523,28.974133 1165.6005,31.579507 1166.125,32.90625 1167.959,37.545238 1164.3397,53.19807 1161.0312,54.96875 1158.9596,56.077428 1154.4802,55.036719 1150.6562,52.53125 1147.7661,50.637584 1142.9468,51.141407 1140.9375,53.5625 1139.1042,55.771454 1137.12,55.281388 1136.4062,52.4375 1135.6485,49.41816 1136.426,42.956034 1138.5938,34.3125 1139.8293,29.385976 1139.886,27.650235 1138.9375,25.8125 1137.0953,22.243309 1133.8057,19.00665 1132.0625,19.03125 z M 1178.6875,19.34375 C 1178.3159,18.972216 1177.1967,19.430455 1176.1875,20.34375 1173.8781,22.433732 1172.1529,22.43645 1169.875,20.375 1168.8676,19.463303 1167.3406,19.04768 1166.4062,19.40625 1165.0049,19.94399 1165.2792,20.571173 1168.125,23.5 1169.9809,25.410142 1171.7579,26.994143 1172.0625,27 1173.2379,27.022597 1179.3269,19.983156 1178.6875,19.34375 z M 1104.25,19.53125 C 1103.8704,19.617718 1103.4658,19.945159 1103.0312,20.46875 1101.5854,22.210892 1098.4327,22.509075 1097.5,21 1096.682,19.676504 1094,19.727844 1094,21.0625 1094,21.638762 1095.1859,23.197492 1096.625,24.53125 1099.4709,27.168664 1100.9943,26.867103 1104.4375,23.0625 1105.7378,21.625695 1106.0354,20.62917 1105.3438,19.9375 1104.9979,19.591664 1104.6296,19.444782 1104.25,19.53125 z M 1185.125,20.53125 C 1184.7229,20.327612 1183.7513,20.816065 1182.2812,22.1875 1177.5694,26.58353 1175.8458,29.985332 1174.9062,36.75 1173.4473,47.254055 1170.0028,57.781069 1166.9375,61.0625 1163.7156,64.511552 1160.7603,64.779336 1152,62.34375 1147.2375,61.019656 1145.4736,60.916064 1143.4375,61.84375 1138.7759,63.967726 1136.3816,74.37882 1139.1562,80.46875 1140.8234,84.127805 1144.3876,84.68475 1149.6562,82.125 L 1154.0625,80 1159.7812,82.9375 C 1166.014,86.15491 1168.1127,86.547474 1171.0625,84.96875 1173.9806,83.407032 1173.3891,81.965916 1170.0938,82.625 1167.9631,83.051141 1165.5943,82.363426 1161.2188,80.03125 L 1155.2188,76.84375 1150.6562,78.9375 C 1145.1484,81.446659 1144.2009,81.476909 1141.8438,79.34375 1138.9733,76.745953 1139.4106,70.688147 1142.75,67 1145.3037,64.179609 1145.7498,64.045385 1149,65.03125 1159.9106,68.340731 1163.939,68.074141 1168.0312,63.8125 1170.8089,60.919698 1174.6553,52.489643 1175.5312,47.375 1175.8967,45.241865 1176.581,42.15 1177.0625,40.5 1177.5439,38.85 1178.189,35.846362 1178.5,33.8125 1178.8262,31.678579 1180.5318,28.361843 1182.5312,25.96875 1184.9432,23.081839 1185.7951,20.870646 1185.125,20.53125 z"/>
</svg>
