<?xml version="1.0" encoding="UTF-8"?>
<svg xmlns="http://www.w3.org/2000/svg" viewBox="2488.57 15.86 35.97 91">
  <path d="M2503.5 102.24894C2499.5922 101.72838 2494.2422 96.530984 2492.9958 92.044357C2490.819 84.208569 2492.1109 76.330641 2497.4669 64.779844L2500.1193 59.059689L2497.3096 54.279844C2494.8564 50.106275 2494.5022 48.485281 2494.5173 41.5C2494.5309 35.21587 2495.0041 32.615424 2496.7235 29.375791C2499.513 24.119672 2504.395 19.998939 2507.8267 20.003738C2511.8964 20.009429 2516.6809 23.454278 2519.039 28.076497C2522.5395 34.938045 2519.8106 39.440414 2514.5589 35.468197C2513.4912 34.660688 2511.5873 34.0 2510.3279 34.0C2505.9263 34.0 2506.0321 41.849435 2510.5687 51.870843C2513.4864 58.316199 2513.496 58.483157 2511.1407 61.84563C2506.6301 68.285099 2504.4467 81.229096 2507.0504 86.094191C2508.0102 87.887665 2508.7804 88.104301 2512.337 87.581286C2521.3652 86.253636 2521.5142 86.278462 2521.335 89.080398C2521.1294 92.293844 2516.5941 99.125917 2513.6802 100.61164C2510.6804 102.14116 2507.0609 102.7233 2503.5 102.24894Z M2513.6607 97.065259C2516.403 95.393134 2518.8641 91.530721 2517.8398 90.506499C2517.6513 90.317971 2515.3013 90.666181 2512.6176 91.280299C2507.9088 92.357817 2507.6553 92.300528 2505.3691 89.642675C2503.4671 87.431523 2503.0 85.747305 2503.0 81.100787C2503.0 74.851721 2505.7733 65.455035 2508.8737 61.19879C2510.8016 58.552312 2510.8012 58.549183 2508.0015 53.002977C2504.3601 45.789349 2503.2367 37.37674 2505.3652 33.260643C2507.4603 29.209287 2509.1213 28.767625 2513.6259 31.064201C2518.1621 33.376861 2518.0 33.35787 2518.0 31.576725C2518.0 30.793924 2516.835 28.768924 2515.4111 27.076725C2513.2464 24.504103 2512.1051 24.0 2508.4456 24.0C2502.3583 24.0 2498.6118 27.736009 2497.0227 35.390795C2495.4542 42.945862 2496.9006 48.8987 2502.2861 57.053381C2503.9279 59.539494 2503.8745 59.763261 2500.2566 65.547171C2490.5665 81.038929 2494.4433 98.933629 2507.5 98.98152C2509.15 98.987572 2511.9223 98.125255 2513.6607 97.065259Z"/>
</svg>
