<?xml version="1.0" encoding="UTF-8"?>
<svg xmlns="http://www.w3.org/2000/svg" viewBox="804.78 13.76 62.59 89.85">
  <path d="M 808.875,58.5625 808.5625,61.59375 C 810.47703,61.960049 812.3592,61.296444 815.53125,59.4375 820.59253,56.471391 824.5,56.470319 824.5,59.46875 824.5,60.957814 823.62815,61.595254 821,62.03125 819.075,62.350597 815.54375,63.859049 813.15625,65.375 L 808.8125,68.125 807.9375,67.78125 807.625,70.8125 C 807.69969,70.825923 808.07649,71 808.125,71 808.74825,71 811.70042,69.615285 814.6875,67.90625 817.67459,66.197215 820.36924,65.056738 820.6875,65.375 821.00576,65.693263 820.81519,67.865478 820.25,70.21875 819.6848,72.572023 819.1435,76.969279 819.0625,79.96875 818.98149,82.968222 818.7425,85.570007 818.53125,85.78125 818.32001,85.992494 815.46404,86.418809 812.15625,86.71875 811.78481,86.752431 811.67821,86.69291 811.34375,86.71875 L 811.5,89.65625 C 812.1332,89.609749 812.23689,89.688641 813,89.625 820.54265,88.995968 821,89.05163 821,90.9375 821,93.406881 816.35201,95.976565 811.84375,96 L 812.03125,99.53125 C 814.00214,99.454052 815.91278,99.062914 817.8125,98.09375 822.70177,95.599433 824.32966,95.487365 826,97.5 827.57126,99.39325 831.7495,99.411384 835,97.53125 836.375,96.735929 838.11138,95.778882 838.84375,95.40625 839.57611,95.033617 841.87623,95.69894 843.96875,96.875 846.06127,98.051061 848.49787,99 849.375,99 852.13965,99 852.42607,94.319603 850.03125,88.1875 848.80758,85.054219 847.7952,81.825 847.8125,81 847.8737,78.081158 849.15926,66.474349 849.5625,65.1875 850.30111,62.830376 853.24526,65.532281 854.9375,70.125 857.18251,76.217936 860.15359,76.583089 862.375,71.03125 864.52532,65.657064 864.41844,62.216578 862,58.25 859.11177,53.512911 854.08798,51.325203 849.34375,52.78125 843.81207,54.478971 842.61875,53.068835 843.3125,45.53125 843.98962,38.174175 845.56836,32.556637 847.53125,30.59375 848.35996,29.765039 850.74826,29.156424 853,29.1875 858.07083,29.257483 860.2019,27.547531 859.8125,23.6875 859.24752,18.087162 856.58425,17.845131 848.84375,22.71875 846.29128,24.325851 846.06645,24.288591 842.65625,21.6875 838.28251,18.351486 836.74862,18.330924 832.59375,21.5 828.61903,24.531668 827.97547,24.572984 824.625,21.9375 821.27525,19.30259 818.25447,19.746458 815.625,23.28125 812.61248,27.330984 814.27894,29.427181 820.8125,29.8125 L 825.90625,30.09375 827.9375,35.59375 C 830.37514,42.108925 830.56768,48.003616 828.46875,52.0625 827.16717,54.57948 826.36239,55 822.96875,55 820.78088,55 817.30237,55.9 815.25,57 812.35954,58.549196 810.62373,59.020916 808.875,58.5625 z M 836.9375,20.8125 839.8125,22.875 C 844.95684,26.538092 845.10449,27.01285 842.96875,33.875 841.69173,37.978092 841,43.050528 841,48.4375 841,55.165707 840.64659,56.995009 839.15625,58.34375 835.90973,61.281812 829,59.818896 829,56.1875 829,55.237208 829.71018,53.417721 830.59375,52.15625 832.77762,49.038335 832.56438,39.493944 830.15625,33.15625 828.03237,27.566661 828.0706,27.458864 833.21875,23.59375 L 836.9375,20.8125 z M 856.125,21.125 C 856.75483,21.227986 857,22.011895 857,23.5 857,24.875 856.59876,26 856.09375,26 855.58873,26 854.50185,26.250004 853.6875,26.5625 851.08108,27.562678 850.51894,24.802183 852.9375,22.84375 854.46649,21.605653 855.49517,21.022014 856.125,21.125 z M 819.96875,22.5625 C 821.0071,22.361713 822.24493,22.776186 823.375,23.90625 825.36921,25.900467 825.36705,25.926224 822.625,26.96875 818.17402,28.661009 816.89964,28.132297 817.71875,25 818.0902,23.579587 818.9304,22.763287 819.96875,22.5625 z M 824.75,68 C 826.04904,67.785367 827.93232,68.361871 830.65625,69.5 834.7056,71.191927 838.15379,71.441187 839.5625,70.125 840.085,69.636817 841.47058,68.919932 842.65625,68.5625 844.54223,67.993956 844.89675,68.395634 845.46875,71.78125 846.65513,78.803348 840.40574,91.187464 834,94.5 830.09287,96.520452 829.34721,96.419863 826.78125,93.46875 823.98303,90.25051 821.93178,82.941117 822,76.5 822.05943,70.888562 822.58493,68.357722 824.75,68 z M 852.96875,55.09375 C 855.74183,55.056958 858.1717,56.460531 859.46875,58.96875 861.03625,61.999963 861.46828,66.638644 860.40625,69.40625 859.47491,71.833283 858.51808,71.335908 857.1875,67.65625 855.71359,63.580233 852.75919,60.721694 849.75,60.5 846.54564,60.263929 846.81299,56.789773 850.125,55.625 851.08938,55.285846 852.04439,55.106014 852.96875,55.09375 z M 842.84375,59.375 C 843.37521,59.264848 843.72849,59.51625 844.09375,60.09375 845.28745,61.981099 844.82303,63.065507 841.9375,65.15625 838.61157,67.56609 835.12065,68.023623 831.25,66.59375 826.97347,65.013942 825.2689,63.324848 826.625,61.96875 827.34121,61.252536 828.52246,61.252536 830.40625,61.96875 834.55322,63.545426 837.45791,63.212074 840.46875,60.84375 841.59625,59.956858 842.31229,59.485152 842.84375,59.375 z M 845.9375,86 C 846.86135,86 849,91.35598 849,93.65625 849,95.453236 846.95101,95.351251 844.21875,93.4375 842.12254,91.969255 842.09306,91.718657 843.53125,88.9375 844.36891,87.317657 845.45542,86 845.9375,86 z"/>
</svg>
