<?xml version="1.0" encoding="UTF-8"?>
<svg xmlns="http://www.w3.org/2000/svg" viewBox="875 12.74 28.13 80.51">
  <path d="M 900.96875,19.71875 C 900.24177,19.167673 899.24225,18.262241 898.875,18.125 894.25992,16.400367 888.96323,18.3619 884.25,23.53125 880.04818,28.139697 878.3075,31.856511 881.84375,28.65625 884.32418,26.411492 886.91564,26.581584 889.65625,29.15625 891.72027,31.095295 892.00984,31.146656 892.59375,29.625 892.96357,28.661287 892.55115,27.148383 891.625,26.125 889.36946,23.632653 889.60551,22.134089 892.4375,20.84375 895.17531,19.596319 897.49036,20.140356 901.125,23.09375 L 900.96875,19.71875 z M 886.5,36 C 885.04133,36 880,41.236122 880,42.75 880,43.382405 881.11875,42.81875 882.46875,41.46875 885.44285,38.49465 886.16943,38.424747 888.5,41 890.53432,43.247896 892,43.58701 892,41.8125 892,40.261751 887.96347,36 886.5,36 z M 885.625,52.4375 C 884.27185,52.252994 882.78706,52.796546 881.40625,54.09375 880.07805,55.341537 879,56.79375 879,57.34375 879,57.89375 880.06794,57.352925 881.375,56.125 L 883.75,53.875 886.625,56.375 C 889.67581,59.012814 890.82582,58.419798 889.0625,55.125 888.20491,53.522582 886.97815,52.622006 885.625,52.4375 z M 883.96875,69 C 883.02133,69 881.62553,69.751915 880.875,70.65625 879.66355,72.115956 879.76168,72.214899 881.71875,71.59375 883.30123,71.091491 884.42415,71.462019 885.6875,72.9375 887.65163,75.231437 889,75.613885 889,73.84375 889,72.014079 885.87564,69 883.96875,69 z M 882.3125,84 C 880.76956,84 877,87.569112 877,89.03125 877,89.593929 878.13372,89.290697 879.53125,88.375 881.58532,87.029123 882.56787,86.9207 884.59375,87.84375 887.82489,89.31596 889.00968,89.301316 889,87.75 888.99194,86.458966 884.60818,84 882.3125,84 z"/>
</svg>
