<?xml version="1.0" encoding="UTF-8"?>
<svg xmlns="http://www.w3.org/2000/svg" viewBox="2806.84 15.86 38.58 86.93">
  <path d="M2825.6893 96.209162C2822.8213 93.040102 2821.7549 84.565725 2822.2176 68.62075C2822.772 49.511934 2822.4827 47.978442 2817.9166 45.82846C2815.9559 44.905225 2813.0936 42.500445 2811.556 40.484503C2809.1976 37.392502 2808.8378 36.131647 2809.2557 32.424005C2810.2099 23.958002 2815.2185 19.810985 2821.3799 22.385385C2823.1863 23.140126 2825.592 24.937171 2826.726 26.37882C2827.86 27.820469 2829.1337 29.0 2829.5564 29.0C2829.9791 29.0 2832.4856 27.613457 2835.1265 25.918794C2837.7675 24.22413 2840.3943 23.125688 2840.9641 23.477811C2843.4219 24.996842 2841.0899 35.033199 2837.3081 39.212034C2835.9362 40.72796 2835.7821 42.769975 2836.2862 52.748633C2836.6127 59.211885 2836.5093 70.656861 2836.0565 78.181914C2835.355 89.83861 2834.9098 92.317971 2833.0485 94.931914C2830.5774 98.402177 2828.0681 98.837696 2825.6893 96.209162Z M2832.9204 89.133512C2834.6431 82.437443 2835.2194 64.700561 2834.0827 53.359538C2832.8935 41.493564 2832.9964 40.899101 2837.5211 33.5C2841.703 26.661352 2840.2109 23.568616 2835.0547 28.387656C2830.6743 32.481628 2828.5181 32.5433 2826.2154 28.64048C2823.5591 24.138466 2818.019 22.102307 2814.5717 24.361081C2812.8844 25.466605 2812.085 27.117739 2811.7442 30.201181C2811.3495 33.771345 2811.7259 35.087026 2813.965 37.963251C2815.4478 39.868039 2817.9748 42.1526 2819.5805 43.040052C2824.5628 45.793677 2825.0398 47.905632 2824.8794 66.5C2824.7227 84.668642 2825.3511 90.466863 2827.7785 93.246469C2829.7785 95.536779 2831.6603 94.031541 2832.9204 89.133512Z"/>
</svg>
