<?xml version="1.0" encoding="UTF-8"?>
<svg xmlns="http://www.w3.org/2000/svg" viewBox="2763.74 18.95 35.75 86.48">
  <path d="M2777.75 96.610429C2777.3375 93.921165 2777.0 90.393526 2777.0 88.771232C2777.0 86.588352 2775.8259 84.680498 2772.4832 81.431818C2766.6719 75.783855 2765.7431 73.296171 2767.094 66.997127C2767.8588 63.43111 2769.3963 60.66331 2772.5784 57.124068L2777.0 52.206141L2777.0 43.742642C2777.0 33.931428 2777.9245 26.0 2779.0682 26.0C2779.5062 26.0 2779.7767 32.521291 2779.6694 40.491759L2779.4744 54.983518L2774.868 59.241759C2772.3344 61.583791 2769.935 64.551623 2769.5358 65.836939C2768.2313 70.037531 2769.9057 74.730429 2774.4499 79.609933C2779.3945 84.919334 2779.6968 85.941726 2779.0 95.0L2778.5 101.5L2777.75 96.610429Z M2778.2225 75.443296C2776.4846 74.226014 2776.0 72.903448 2776.0 69.377555C2776.0 60.915834 2779.2449 58.810835 2784.9233 63.588894C2788.6042 66.68616 2788.9604 70.509316 2785.9274 74.365141C2783.5607 77.373994 2781.4089 77.675098 2778.2225 75.443296Z M2785.0498 71.906859C2786.7703 68.692207 2785.4669 65.322403 2782.2664 64.710597C2780.7512 64.420936 2779.1713 64.394112 2778.7557 64.650987C2777.8231 65.227356 2777.7494 72.416066 2778.6667 73.333333C2780.1078 74.774427 2783.9781 73.909516 2785.0498 71.906859Z M2786.75 99.428913C2785.6245 98.285075 2785.8476 87.533453 2787.0636 84.3151C2787.6486 82.766795 2789.3286 80.24078 2790.797 78.701734C2793.052 76.338144 2793.4661 75.017773 2793.4628 70.201734C2793.4581 63.306259 2791.6786 58.63021 2788.5097 57.186396C2786.1746 56.122415 2786.1552 55.97752 2786.2147 40.030805C2786.2477 31.185404 2786.5995 23.747552 2786.9964 23.502246C2788.0048 22.87897 2788.9353 34.79409 2788.6984 45.298808C2788.5172 53.334876 2788.6878 54.220656 2790.6662 55.516981C2791.8577 56.297632 2793.7492 59.386584 2794.8697 62.381319C2797.4891 69.382311 2796.6202 76.196114 2792.4074 81.690136C2790.1895 84.582468 2789.2628 87.225928 2788.5 92.836415C2787.95 96.881524 2787.1625 99.848148 2786.75 99.428913Z"/>
</svg>
