<?xml version="1.0" encoding="UTF-8"?>
<svg xmlns="http://www.w3.org/2000/svg" viewBox="1834.78 16.6 20.85 91.06">
  <path d="M 1852.25 55.8125 L 1852.0938 55.75 L 1852.0625 40.28125 C 1852.0393 31.783228 1851.7492 24.410578 1851.4375 23.90625 C 1849.4829 20.74363 1849.1826 26.186602 1849.5938 55.25 C 1849.8447 72.9875 1849.6781 89.75 1849.25 92.5 C 1848.5141 97.228202 1848.2799 97.563292 1844.75 98.4375 C 1842.697 98.945954 1840.7214 99.033801 1840.3438 98.65625 C 1839.9662 98.278698 1839.5218 82.013818 1839.375 62.5 C 1839.2103 40.60745 1838.7255 26.334971 1838.0938 25.25 C 1836.7751 22.985578 1836.8048 22.23532 1836.875 65.4375 C 1836.9201 93.173296 1837.1895 100.62698 1838.25 101.6875 C 1840.0913 103.52879 1850.7338 101.46643 1851.4688 99.125 C 1851.7479 98.235648 1852.0583 92.022705 1852.1562 85.3125 C 1852.2541 78.602294 1852.6347 72.579015 1853.0312 71.9375 C 1853.1494 71.74639 1853.4481 71.764021 1853.625 71.65625 L 1853.5625 71.4375 L 1852.9062 64.53125 C 1852.8385 64.243731 1852.7728 64.010753 1852.7188 63.65625 C 1852.5049 62.253751 1852.4667 61.443322 1852.5625 60.875 L 1852.1562 56.375 L 1852.25 55.8125 z "/>
</svg>
