<?xml version="1.0" encoding="UTF-8"?>
<svg xmlns="http://www.w3.org/2000/svg" viewBox="2454.77 14.42 23.31 91.37">
  <path d="M2457.3699 95.25C2459.7948 76.968732 2461.0341 36.07896 2459.478 25.701577C2458.5105 19.250176 2460.5542 18.57435 2466.4417 23.398735C2470.1748 26.457697 2471.0179 27.833748 2471.8714 32.260021C2474.3806 45.273168 2474.8046 51.734797 2474.329 69.71356C2473.9907 82.506376 2474.194 90.057916 2474.9376 92.310937C2476.0728 95.750513 2475.5456 99.0 2473.8525 99.0C2473.3391 99.0 2471.6552 98.065585 2470.1104 96.923522C2467.4986 94.992507 2467.0546 94.950333 2463.773 96.321488C2461.8321 97.132432 2459.9377 98.291848 2459.5631 98.897966C2457.8683 101.6402 2456.7656 99.806086 2457.3699 95.25Z M2470.9905 84.617489C2470.9853 80.70287 2471.1857 71.070254 2471.436 63.211675C2471.9659 46.568152 2469.5542 30.096593 2466.1188 26.896049C2465.0657 25.914937 2464.0191 24.55729 2463.793 23.879054C2463.5669 23.200818 2462.8933 22.947932 2462.296 23.317085C2461.5506 23.777742 2461.5013 25.28512 2462.1389 28.122731C2463.1206 32.491819 2462.6118 74.53063 2461.4307 86.632344L2460.7347 93.764687L2465.8673 92.749833L2471.0 91.734979L2470.9905 84.617489Z"/>
</svg>
