<?xml version="1.0" encoding="UTF-8"?>
<svg xmlns="http://www.w3.org/2000/svg" viewBox="3134 16.1 31.54 84.97">
  <path d="M3136.0 39.460162C3136.0 39.163251 3136.8803 37.194776 3137.9562 35.085774C3139.8979 31.279815 3139.8979 31.222614 3137.9562 27.41417C3136.8803 25.30379 3136.0 23.392165 3136.0 23.166113C3136.0 22.13696 3139.1786 25.552849 3141.0726 28.617443L3143.1693 32.01005L3140.5847 35.08175C3139.1631 36.771186 3138.0 38.568924 3138.0 39.076725C3138.0 39.584526 3137.55 40.0 3137.0 40.0C3136.45 40.0 3136.0 39.757073 3136.0 39.460162Z M3140.0 94.960146C3140.0 94.323308 3140.7407 92.241275 3141.6461 90.333406C3143.2259 87.004147 3143.2011 86.702577 3141.0299 82.839487C3138.1119 77.6475 3138.5787 71.157732 3142.565 61.5C3146.8121 51.210441 3146.1505 40.140415 3141.5182 43.984882C3138.8223 46.222321 3138.7747 44.368516 3141.451 41.365384C3143.9104 38.605601 3144.0582 38.569471 3145.4612 40.385025C3147.5456 43.082284 3148.4823 50.824583 3147.2261 54.973204C3146.6388 56.912942 3145.1975 61.2 3144.0233 64.5C3141.6845 71.072765 3141.6876 78.1484 3144.0316 83.668682C3145.2137 86.452651 3145.151 87.338747 3143.5149 90.966992C3141.6076 95.196618 3140.0 97.022951 3140.0 94.960146Z M3146.1 24.92139C3143.2661 21.088375 3143.8386 20.29863 3147.413 23.110204L3150.1313 25.248418L3153.0552 22.447111C3154.6634 20.906393 3156.2906 19.95724 3156.6712 20.337883C3157.498 21.164666 3151.0934 28.0 3149.4919 28.0C3148.8782 28.0 3147.3519 26.614625 3146.1 24.92139Z M3151.3506 95.232753C3150.6738 92.644477 3148.793 92.339562 3146.9799 94.524166C3146.2842 95.362457 3145.4819 95.815216 3145.197 95.530297C3144.4625 94.795857 3148.068 91.0 3149.5 91.0C3150.1545 91.0 3151.5141 91.910633 3152.5214 93.023629C3153.9535 94.606046 3154.0891 95.310883 3153.1436 96.256382C3152.1981 97.201881 3151.8072 96.9787 3151.3506 95.232753Z M3154.75 89.317942C3153.2375 86.875093 3152.0 84.512831 3152.0 84.068471C3152.0 83.624111 3152.9 80.443299 3154.0 77.0C3156.6051 68.845292 3156.5291 66.116597 3153.4292 56.5C3150.9697 48.870042 3150.9239 48.326543 3152.4386 44.75C3154.3104 40.330469 3157.923 39.624248 3160.4203 43.189668C3162.462 46.104655 3161.6575 46.660826 3158.4444 44.555556C3157.0046 43.612107 3155.7015 42.988651 3155.5487 43.170097C3153.1528 46.015578 3153.1464 48.193058 3155.5126 55.441702C3158.4224 64.35591 3158.6511 70.754372 3156.3179 77.978719C3154.954 82.201778 3154.8689 83.560374 3155.868 85.160177C3157.8961 88.407709 3158.8658 91.600642 3158.1619 92.713216C3157.7957 93.292029 3156.2713 91.775076 3154.75 89.317942Z M3158.7913 35.987997C3155.8683 32.455152 3155.9587 31.817921 3160.2509 25.692425C3163.0054 21.76144 3163.5388 23.02356 3161.1237 27.757568C3159.2947 31.342654 3159.2484 31.909562 3160.6237 33.873085C3161.4574 35.063361 3161.9956 36.76276 3161.8197 37.649528C3161.5781 38.868149 3160.8386 38.462443 3158.7913 35.987997Z"/>
</svg>
