<?xml version="1.0" encoding="UTF-8"?>
<svg xmlns="http://www.w3.org/2000/svg" viewBox="1031.85 12.92 30.81 90.02">
  <path d="M 1059.5625 79.71875 C 1058.1096 81.98133 1053.842 84 1050.1562 84 C 1047.5518 84 1046.475 81.647256 1045.5 73.84375 C 1044.7684 67.98832 1046.5238 43.07592 1048.5312 30.875 C 1049.2616 26.435685 1047.5323 19.404843 1045.5 18.625 C 1041.2902 17.009515 1039.1646 21.351522 1035.9688 38.09375 C 1034.0767 48.005475 1033.8484 51.902903 1034.25 68 C 1034.6583 84.366427 1034.955 86.986106 1036.8438 90.6875 C 1038.0178 92.988656 1039.989 95.576156 1041.2188 96.4375 C 1044.6585 98.846792 1049.1851 98.357432 1054.0938 95.03125 C 1057.7571 92.54892 1059.8939 91.694317 1060.6562 92.34375 L 1060.6562 92.1875 L 1060.25 86.96875 C 1059.553 88.276721 1057.856 89.792767 1054.5 91.65625 C 1047.2572 95.678021 1045.6166 95.769143 1042.5 92.40625 C 1037.8876 87.42934 1036.5911 81.036476 1036.625 63.5 C 1036.6543 48.386196 1037.4392 40.806395 1040.3438 28 C 1041.3326 23.640513 1042.0171 22.5 1043.5625 22.5 C 1045.3326 22.5 1045.5052 23.187215 1045.4062 30.03125 C 1045.3463 34.177298 1044.5088 44.561694 1043.5625 53.09375 C 1042.227 65.135281 1042.0624 70.237324 1042.8438 75.875 C 1044.4993 87.822237 1047.2284 89.995446 1055.5 86 C 1057.9639 84.80988 1059.2703 84.24557 1060.0312 84.21875 L 1059.7188 80.40625 L 1059.5625 79.71875 z "/>
</svg>
