<?xml version="1.0" encoding="UTF-8"?>
<svg xmlns="http://www.w3.org/2000/svg" viewBox="2420.14 15.76 22.07 89.28">
  <path d="M2422.4492 99.728227C2422.1394 98.920845 2423.0064 85.939201 2424.3759 70.88013C2425.8171 55.032722 2426.6821 39.814432 2426.4295 34.75C2426.1895 29.9375 2426.3923 26.0 2426.8801 26.0C2429.0714 26.0 2429.2062 46.970135 2427.1403 66.5C2426.6167 71.45 2426.2012 76.4 2426.2168 77.5C2426.2325 78.6 2425.8935 82.83814 2425.4634 86.918088C2424.7185 93.98575 2424.7717 94.296886 2426.5908 93.504454C2428.9302 92.485308 2431.9693 92.436045 2434.0923 93.382853C2435.4919 94.007007 2435.7638 92.362272 2436.3387 79.796486C2437.3583 57.507881 2437.125 44.723737 2435.5634 37.315376C2433.554 27.782094 2432.8261 26.18189 2429.5097 24.006372C2426.9097 22.300811 2426.7929 22.016707 2428.4326 21.387489C2432.5237 19.817606 2436.8303 25.440558 2438.179 34.112823C2439.5889 43.178768 2440.2044 73.249048 2439.2817 87.988521C2438.6273 98.443229 2438.2296 100.52875 2436.8397 100.79458C2435.8419 100.9854 2434.4589 99.89257 2433.374 98.056059C2432.3812 96.375227 2431.2315 95.0 2430.8192 95.0C2430.4069 95.0 2428.4818 96.394144 2426.5411 98.098097C2423.78 100.52229 2422.89 100.87688 2422.4492 99.728227Z"/>
</svg>
