<?xml version="1.0" encoding="UTF-8"?>
<svg xmlns="http://www.w3.org/2000/svg" viewBox="1559.91 14.16 40.69 84.49">
  <path d="M 1562.2188 53.875 L 1562.1562 56.71875 C 1563.3819 56.613096 1564.4455 56.17775 1565.625 55.21875 C 1570.9445 50.893585 1574.486 39.140547 1572.9688 30.84375 C 1572.2597 26.966248 1572.4322 26.386385 1575.1875 23.8125 C 1576.8389 22.269929 1578.5976 21.243978 1579.0625 21.53125 C 1579.5273 21.818522 1581.3119 24.139872 1583.0312 26.6875 L 1586.1562 31.3125 L 1582.0625 41.1875 C 1579.8224 46.611049 1578 51.85017 1578 52.84375 C 1578 53.837329 1579.1177 55.699513 1580.4688 56.96875 C 1581.8199 58.237987 1584.1115 61.017277 1585.5938 63.15625 C 1587.9938 66.619546 1588.286 67.886763 1588.1562 74.71875 C 1587.9726 84.376171 1586.454 86.282585 1585.5 78.0625 C 1584.9253 73.110974 1584.1309 71.136997 1581.2812 67.71875 C 1574.7594 59.895167 1570.8242 58.473903 1565.5 62 C 1564.0748 62.943862 1562.995 63.401923 1561.9688 63.625 L 1561.9062 66.6875 C 1563.3914 66.530006 1564.946 66.047885 1567 65 C 1571.8313 62.535265 1574.3241 63.305092 1578.5 68.53125 C 1582.6491 73.723815 1582.858 74.417935 1582.9375 83.75 C 1583.0237 93.866532 1584.7778 94.812002 1588.5312 86.75 C 1590.4161 82.701693 1590.9925 79.816312 1591 74.1875 C 1591.0106 66.27974 1589.7644 62.831779 1584.875 57.21875 C 1581.5123 53.358333 1581.3287 51.213403 1583.875 43.8125 C 1586.9841 34.775831 1588.7045 32.103574 1590.9375 32.6875 C 1592.1989 33.017371 1593.7952 32.29851 1595.4375 30.65625 C 1598.3338 27.759957 1598.594 26.19286 1596.625 23.5 C 1595.312 21.70446 1595.0663 21.699896 1590.8438 23.3125 C 1588.4173 24.239162 1586.1523 25 1585.8125 25 C 1585.4728 25 1584.2608 23.425 1583.125 21.5 C 1581.9892 19.575 1580.6658 18 1580.1875 18 C 1579.7092 18 1577.2054 19.645836 1574.625 21.65625 L 1569.9375 25.3125 L 1570.5938 32.53125 C 1571.5779 43.392078 1567.6216 53.235542 1562.2188 53.875 z M 1593.9688 24 C 1595.4192 24 1596.0764 27.215125 1594.9062 28.625 C 1593.5071 30.310902 1592.7352 30.36022 1591.1875 28.8125 C 1588.9574 26.582353 1590.4494 24 1593.9688 24 z "/>
</svg>
