<?xml version="1.0" encoding="UTF-8"?>
<svg xmlns="http://www.w3.org/2000/svg" viewBox="1035.09 15.51 20 88.14">
  <path d="M 1037.5312 72.78125 L 1037.5625 73.8125 L 1037.375 81 C 1037.7195 81.436109 1038 82.052821 1038 82.875 C 1038 83.426396 1037.58 84.044185 1037.25 84.65625 L 1037.0938 90.28125 C 1037.1424 90.262618 1037.6745 90 1037.6875 90 C 1037.8657 90 1038 91.4975 1038 93.3125 C 1038 95.1275 1038.5275 97.1525 1039.1875 97.8125 C 1041.0201 99.645065 1046.7456 99.25439 1048.8438 97.15625 C 1050.8954 95.104675 1051.358 88.663259 1052.625 44.78125 C 1053.0982 28.391299 1052.9776 21.677133 1052.1562 20.6875 C 1051.3726 19.74329 1049.8318 19.517837 1047.25 19.9375 C 1042.1636 20.764281 1041.3389 22.982042 1040.5938 37.5 C 1039.624 56.393839 1038.6941 67.221267 1037.5312 72.78125 z M 1047.9062 22.21875 C 1051.8241 22.107355 1052.4011 24.011179 1051.5625 34.375 C 1051.201 38.842647 1050.4884 52.625 1049.9688 65 C 1048.7888 93.098722 1048.6905 93.953284 1046.9375 95.0625 C 1046.1469 95.562769 1044.5501 95.991578 1043.375 96 C 1041.6243 96.012548 1041.1144 95.232699 1040.5938 91.75 C 1039.8359 86.679432 1040.7571 60.97679 1042 52.5 C 1042.4838 49.2 1042.8884 41.893586 1042.9062 36.25 C 1042.9436 24.432002 1043.6867 22.338719 1047.9062 22.21875 z "/>
</svg>
