<?xml version="1.0" encoding="UTF-8"?>
<svg xmlns="http://www.w3.org/2000/svg" viewBox="3042.55 10.15 99.07 99.14">
  <path d="M 3095.2188,15.1875 C 3093.4526,14.658193 3090.727,15.431226 3087.3438,17.625 3082.7949,20.574561 3080,24.606589 3080,28.21875 3080,31.36518 3084.6944,35.772183 3088.5,36.1875 L 3091.5,36.5 3091.7812,44.75 C 3092.0995,53.785874 3091.5287,54.542399 3087,51 3083.4844,48.25004 3080.6105,48.528119 3076.6562,52 3072.4241,55.715836 3070.6535,55.768587 3068.2812,52.25 3063.4243,45.046234 3063.3872,44.435283 3067.2812,40.125 3072.3895,34.470841 3073.2013,32.628567 3072,29.46875 L 3070.9688,26.8125 3067.3438,28.96875 C 3061.2426,32.568549 3059.4525,30.430639 3062.9062,23.65625 3065.2616,19.036539 3063.4007,19.288275 3060.1875,24.03125 3055.2386,31.336202 3059.4842,37.057441 3066.375,32.375 L 3070,29.9375 3070,32.15625 C 3070,33.467165 3068.3536,35.93029 3066,38.125 3063.8,40.176467 3062,42.746343 3062,43.84375 3062,48.566202 3068.1531,59 3070.9375,59 3071.454,59 3073.9581,57.2 3076.5,55 3079.0419,52.8 3081.3917,51 3081.7188,51 3082.0459,51 3083.791,52.125 3085.5938,53.5 3092.3296,58.63763 3094,56.618485 3094,43.3125 L 3094,33 3090.3125,33 C 3085.5963,33 3082.1089,29.954364 3082.7812,26.4375 3083.3376,23.526915 3090.5296,17 3093.1875,17 3094.8103,17 3094.9347,17.613621 3094.375,22.375 3093.5381,29.496309 3094.8364,30.092892 3101.2188,25.625 3109.0516,20.141607 3110.0442,22.981495 3103.375,31.71875 3100.0468,36.078825 3100,36.318799 3100,46.09375 3100,57.693461 3100.8607,58.771279 3106.8438,54.625 3111.5181,51.385711 3112.1032,51.374597 3114.875,54.5625 3116.4456,56.368738 3117.9069,57.032382 3119.8125,56.8125 3122.0229,56.557443 3123.1777,55.224809 3126.2188,49.5 3128.2638,45.65 3129.9513,41.776569 3129.9688,40.875 3129.9861,39.973431 3130.8871,38.173431 3131.9688,36.875 L 3133.9375,34.5 3133.9688,37 C 3134.0624,44.037309 3127.8461,59.108451 3123.0625,63.4375 3121.1492,65.169021 3120.5302,65.269343 3117.6875,64.125 3107.7483,60.123897 3103.6575,60.836058 3102.0312,66.875 3100.144,73.883508 3100.5318,80.457974 3103.125,85.6875 3105.2574,89.987603 3105.8938,90.536497 3109.2188,90.8125 3110.6868,90.934368 3113.4966,90.588936 3116.0312,90.28125 L 3115.7188,87.90625 C 3115.1654,87.915455 3114.991,88 3114.3438,88 3107.7169,88 3106.9086,87.759971 3105.4688,85.5625 3102.0776,80.386885 3102.741,66.074737 3106.4375,64.65625 3107.923,64.086225 3112.8823,65.170024 3117.6562,67.09375 3120.3392,68.174857 3121.1793,68.116472 3123.3125,66.71875 3126.1314,64.871726 3131.4074,55.786817 3133.625,49 3135.5672,43.055748 3137.1133,25.095004 3135.875,22.78125 3134.5772,20.356229 3133.1336,20.550869 3132.5312,23.25 3128.2479,42.445037 3123.6553,54 3120.3125,54 3119.4708,54 3117.4466,52.875 3115.8125,51.5 3112.1204,48.39326 3111.3533,48.39326 3106.7812,51.5 3104.7578,52.875 3102.8666,54 3102.5625,54 3102.2583,54 3101.998,50.2875 3102,45.75 3102.0031,38.884031 3102.3806,36.939647 3104.25,34.09375 3108.4482,27.702754 3108.9852,26.502318 3109,23.25 3109.0172,19.455858 3108.2819,19.305371 3103,22 3097.4741,24.819112 3096.6323,24.623919 3097.2812,20.625 3097.7776,17.56603 3096.9849,15.716807 3095.2188,15.1875 z M 3117.7812,103.53125 3117.4375,100.84375 C 3116.3878,100.98239 3115.2222,100.99904 3113.75,101 3108.2635,101.00358 3107.7779,100.77969 3102.5,96 3099.4634,93.25 3096.6354,91 3096.2188,91 3095.8019,91 3093.2873,92.8 3090.625,95 3084.27,100.25141 3083.2277,100.34938 3075.5625,96.46875 3072.8748,95.108087 3070.0263,94 3069.25,94 3068.4737,94 3064.6545,95.587412 3060.7812,97.53125 3054.1927,100.83783 3053.597,100.96667 3051.4062,99.53125 3048.5043,97.62986 3048,97.613468 3048,99.4375 3048,100.23131 3048.9964,101.58131 3050.2188,102.4375 3053.2597,104.5674 3053.5417,104.51264 3061.6875,100.34375 L 3068.875,96.6875 3075,99.34375 C 3078.3739,100.80697 3082.1947,102 3083.5,102 3084.8319,102 3087.9063,100.24479 3090.5,98 3093.0419,95.8 3095.4614,94 3095.875,94 3096.2887,94 3097.9471,95.393379 3099.5625,97.09375 3104.803,102.60989 3111.4783,104.79001 3117.7812,103.53125 z M 3057.0312,21 C 3054.9709,21 3051.8881,28.936589 3052.5625,32.53125 3052.9334,34.508489 3053.8324,36 3054.625,36 3056.2317,36 3056.4104,33.670702 3055.0312,31.09375 3054.3458,29.812899 3054.6276,28.274997 3056.0312,25.65625 3058.2615,21.494926 3058.3899,21 3057.0312,21 z M 3050.0938,22.9375 C 3049.9686,22.787521 3049.7987,22.795071 3049.625,22.96875 3049.0635,23.530321 3048.5934,27.034091 3048.5625,30.75 3048.5164,36.297709 3048.9129,38.074131 3050.8438,40.78125 3052.137,42.594504 3053.4535,45.969504 3053.75,48.28125 3054.4113,53.438838 3057.8473,60.413971 3061.875,64.75 3066.0845,69.281845 3069.4658,69.091435 3075.25,64 3077.7493,61.8 3080.2846,60 3080.875,60 3083.3523,60 3085.233,65.182455 3085.75,73.46875 3086.2354,81.249953 3086.0651,82.260981 3083.875,85.46875 3082.5605,87.394006 3080.8728,89.210515 3080.125,89.5 3079.3772,89.789485 3076.3486,88.638816 3073.375,86.9375 L 3067.9688,83.84375 3064.7188,85.90625 C 3062.94,87.0396 3060.0387,88.716676 3058.25,89.65625 3055.095,91.313392 3054.8905,91.300003 3051.9062,89.09375 3047.739,86.012716 3047.0534,87.20962 3050.8125,90.96875 3054.7262,94.8825 3056.7096,94.779995 3062.0938,90.5 3066.8137,86.74796 3069.0668,86.222998 3071.1875,88.34375 3073.1855,90.341698 3076.6253,92 3078.75,92 3081.0429,92 3085.4898,87.499836 3086.9062,83.75 3088.5489,79.401899 3087.5032,64.534357 3085.2812,60.71875 3082.4941,55.932648 3079.972,56.108901 3074.7188,61.4375 3072.2483,63.943404 3069.5865,66 3068.8125,66 3067.007,66 3060.6575,59.398334 3058.7188,55.5 3057.8982,53.85 3056.922,50.475 3056.5312,48 3056.1406,45.525 3054.6181,41.719755 3053.1562,39.5625 3050.8902,36.218502 3050.4967,34.656793 3050.5625,28.8125 3050.602,25.3144 3050.4692,23.387438 3050.0938,22.9375 z"/>
</svg>
