<?xml version="1.0" encoding="UTF-8"?>
<svg xmlns="http://www.w3.org/2000/svg" viewBox="2358.31 13.92 31.58 92.06">
  <path d="M 2361 81.5625 L 2360.3125 82.75 L 2361 87.9375 C 2361.5433 87.328847 2362.597 87.586708 2365.8125 88.5625 C 2368.3987 89.347351 2371.2482 89.994046 2372.1562 90 C 2374.5305 90.015563 2377.7405 83.992049 2378.9688 77.21875 C 2380.0578 71.213607 2379.6133 48.212104 2378.125 33.5 C 2376.725 19.659961 2378.2563 19.633817 2383.875 33.375 C 2386.775 40.467381 2384.1809 87.88186 2380.5 95 C 2379.192 97.529412 2378.3639 98 2375.2188 98 C 2373.1623 98 2369.8024 97.1 2367.75 96 C 2365.6977 94.9 2363.3932 94 2362.625 94 C 2362.3149 94 2362.0441 93.810527 2361.7812 93.65625 L 2362.2188 96.90625 L 2362.4062 97.53125 C 2363.341 97.449325 2364.7562 97.933638 2366.6875 98.96875 C 2371.9578 101.79347 2378.9756 101.67323 2381.0938 98.71875 C 2385.6007 92.432246 2387.8876 75.342971 2387.5625 50.5 C 2387.3408 33.551022 2386.1938 27.865472 2381.7188 21.8125 C 2379.5384 18.863448 2377.1322 18.105098 2376.8125 20.25 C 2376.71 20.9375 2376.5381 34.325 2376.4375 50 C 2376.3369 65.675 2376.0237 79.4 2375.7188 80.5 C 2375.414 81.6 2375.1046 83.050601 2375.0625 83.71875 C 2374.9094 86.150214 2371.2035 87.1344 2367 85.875 C 2363.7329 84.896174 2361.9887 84.393087 2361 81.5625 z "/>
</svg>
