<?xml version="1.0" encoding="UTF-8"?>
<svg xmlns="http://www.w3.org/2000/svg" viewBox="3628.28 10.4 30.89 93.13">
  <path d="M 3631.1875 75.5 L 3630.9062 81.09375 C 3631.758 79.987279 3633.5494 80.291617 3636.0625 82.40625 C 3639.5544 85.344548 3641.2188 85.627037 3642.9062 83.59375 C 3645.8708 80.021672 3646.9814 71.903267 3648.9688 38.59375 C 3649.5233 29.297888 3650.218 21.43821 3650.5312 21.125 C 3652.0149 19.641395 3652.8622 24.537905 3653.5 38.40625 C 3654.1763 53.110658 3653.2757 67.235674 3650.9688 77.8125 C 3649.1975 85.932882 3646.8208 92.456526 3645.1875 93.75 C 3642.8924 95.567517 3641.8743 95.341889 3636.6875 91.90625 C 3632.2544 88.969948 3631.1611 87.959495 3630.6562 85.53125 L 3630.2812 92.65625 L 3630.5625 93.5625 C 3631.552 92.800801 3633.0396 93.225474 3635.375 95.0625 C 3639.6219 98.403085 3644.023 99.293756 3646.2812 97.25 C 3649.3375 94.484108 3649.9318 92.957698 3654.0938 77 C 3656.6038 67.376236 3657.1717 28.164583 3654.9062 21.125 C 3653.1354 15.622283 3652.0712 14.628597 3649.9688 16.53125 C 3647.8844 18.417588 3647.3456 22.4542 3645.9688 46.5 C 3644.3436 74.882219 3644.3104 75.350501 3643.1562 78.25 C 3641.741 81.805932 3639.8246 81.712512 3634.4375 77.84375 L 3631.1875 75.5 z "/>
</svg>
