<?xml version="1.0" encoding="UTF-8"?>
<svg xmlns="http://www.w3.org/2000/svg" viewBox="860.44 14.35 37.94 85.88">
  <path d="M 866.90625,80.25 866.90625,80.40625 865.8125,84.09375 C 867.30779,85.249816 868.88177,84.722489 871.25,82.25 875.81553,77.483487 876.88155,73.490776 875.8125,65 874.69375,56.114509 875.27308,41.313672 877,35 878.65355,28.954577 882.15928,21 883.15625,21 885.01828,21 887.02809,26.100054 888.03125,33.3125 889.41796,43.282561 888.02107,56.24894 884.5625,65.4375 881.55667,73.423267 881.82912,74.274188 889.3125,80.40625 892.17825,82.754514 894.11924,83.765557 895.84375,83.71875 L 895.71875,80.625 C 893.73333,80.654721 891.59056,79.162008 888.625,76.125 L 884.84375,72.28125 887.375,63.875 C 890.48706,53.554087 891.46101,42.486486 890.09375,32.65625 888.87542,23.896833 887.42672,20.267224 884.8125,19.4375 881.07141,18.250127 878.77488,22.008536 875.125,35.3125 872.83999,43.641413 872.08258,57.137012 873.34375,67 874.10259,72.934503 873.9417,73.810818 871.78125,77 869.68236,80.098303 868.21956,81.033416 866.90625,80.25 z M 863.375,92.46875 862.4375,95.625 C 864.55126,96.322095 866.9209,95.028752 871.8125,90.5 875.07986,87.475 878.20064,85 878.71875,85 879.23687,85 880.72912,86.175457 882.0625,87.625 886.23138,92.157104 892.17349,96 895.03125,96 895.47549,96 895.92508,95.873206 896.375,95.71875 L 896.21875,92.5 C 895.40335,92.720291 894.52957,92.628208 892.9375,91.96875 891.21806,91.256533 887.53658,88.465029 884.78125,85.78125 879.08653,80.234418 879.42829,80.196799 871.03125,87.90625 867.37752,91.260793 865.12388,92.833346 863.375,92.46875 z"/>
</svg>
