<?xml version="1.0" encoding="UTF-8"?>
<svg xmlns="http://www.w3.org/2000/svg" viewBox="505 14.98 38.18 85.04">
  <path d="M 518.71875 48.1875 L 519.03125 48.34375 L 517.59375 62.5 L 517.34375 63.0625 C 517.36447 63.106501 517.42117 63.105666 517.4375 63.15625 C 517.67587 63.894676 518.05704 69.225 518.28125 75 C 518.60017 83.214581 519.1314 86.415631 520.8125 89.6875 C 521.99435 91.987684 523.49168 94.171082 524.125 94.5625 C 526.6934 96.149855 530.33249 87.760388 532.96875 74.1875 C 534.3133 67.265012 534.2725 55.958636 532.875 46.5625 L 531.75 39.03125 L 534.875 35.46875 C 539.21344 30.52754 541.18144 25.576172 540 22.46875 C 538.79475 19.298689 535.99672 19.310139 533 22.5 C 530.0596 25.629917 528.90735 25.633556 524.125 22.46875 C 522.01389 21.071682 518.66408 19.664505 516.6875 19.34375 C 513.6098 18.84431 512.64016 19.203591 510.03125 21.8125 C 507.74811 24.09564 507 25.762538 507 28.5 C 507 32.859337 509.55656 35.502977 516.0625 37.90625 C 521.70899 39.992048 522.59582 44.561453 518.71875 48.1875 z M 514.25 21.34375 C 515.14403 21.418789 516.24602 21.935811 518.25 22.96875 C 520.59407 24.176986 523.7412 26.35618 525.25 27.78125 L 528 30.375 L 530.75 27.9375 C 532.26479 26.600648 533.87125 24.9375 534.3125 24.25 C 534.75374 23.5625 536.01526 23 537.125 23 C 538.74768 23 539.00325 23.440493 538.46875 25.25 C 537.81581 27.460459 534.90905 32.063322 531.0625 37 C 529.22658 39.356219 529.21106 39.902588 530.53125 46.5 C 533.0863 59.268337 531.72753 78.597278 527.71875 86.8125 C 525.92517 90.488092 524.70345 90.4532 522.625 86.59375 C 520.95262 83.488318 520.84363 81.542765 521.4375 65.84375 C 521.79803 56.313019 522.16595 45.843054 522.28125 42.59375 L 522.5 36.6875 L 517.78125 35.09375 C 511.47934 32.968977 509 30.692622 509 27.03125 C 509 24.952705 509.7685 23.540778 511.5 22.40625 C 512.66989 21.639705 513.35597 21.268711 514.25 21.34375 z "/>
</svg>
