<?xml version="1.0" encoding="UTF-8"?>
<svg xmlns="http://www.w3.org/2000/svg" viewBox="2659.84 14.27 20.31 91.64">
  <path d="M2662.9292 100.41468C2662.1696 99.499449 2661.8351 89.548606 2661.8662 68.789629C2661.9215 31.77108 2662.5871 21.29133 2664.9637 20.019453C2667.2237 18.809901 2675.2757 18.434338 2676.9369 19.460996C2678.0053 20.121327 2678.1412 26.558504 2677.653 53.387977C2677.1019 83.67241 2676.0053 98.482198 2674.192 100.12815C2672.6512 101.52674 2664.0341 101.74596 2662.9292 100.41468Z M2673.1069 97.293124C2675.0182 95.38177 2675.8362 82.315245 2675.9579 51.75L2676.0763 22.0L2670.6202 22.0L2665.1641 22.0L2664.7896 29.25C2664.1879 40.898644 2664.644 96.615037 2665.3505 97.758052C2666.164 99.074312 2671.6548 98.745184 2673.1069 97.293124Z"/>
</svg>
