<?xml version="1.0" encoding="UTF-8"?>
<svg xmlns="http://www.w3.org/2000/svg" viewBox="3624.8 10.27 48.19 91.33">
  <path d="M3630.3997 96.233744C3628.9746 95.283419 3626.991 91.503355 3627.0318 89.815741C3627.0521 88.976539 3627.578 89.179247 3628.4838 90.375425C3630.422 92.934981 3632.3267 91.938495 3634.7122 87.116868C3636.5934 83.31459 3636.6137 82.96036 3635.0316 81.528629C3634.1026 80.687883 3632.3655 80.0 3631.1713 80.0C3628.8311 80.0 3628.3925 79.007536 3630.0154 77.384569C3630.7027 76.697329 3630.4971 75.299162 3629.3793 73.058593C3627.4292 69.149521 3628.0119 57.300599 3630.44 51.489349C3631.7232 48.418342 3631.7247 47.471214 3630.4526 43.865621C3628.5043 38.343596 3628.6174 35.459603 3631.1001 27.355335C3633.2744 20.257528 3635.3364 17.0 3637.655 17.0C3639.2754 17.0 3639.2939 17.401433 3637.9043 22.40617C3637.3078 24.554564 3637.1069 28.227206 3637.4579 30.567597C3638.5555 37.886985 3643.2118 37.325476 3647.0427 29.411742C3651.2591 20.701834 3659.2854 14.416734 3661.5378 18.061177C3661.8985 18.644824 3661.1764 21.457324 3659.9332 24.311177C3657.0875 30.843416 3656.7646 40.977436 3659.3125 43.792815C3661.3855 46.083424 3661.4709 48.36428 3659.5437 49.963744C3658.3753 50.933381 3657.107 50.638806 3653.1296 48.474045C3650.4029 46.989963 3647.7355 46.045441 3647.2021 46.375108C3644.7293 47.903361 3642.13 55.874908 3642.337 61.295421C3642.511 65.853528 3643.1142 67.574741 3645.6288 70.688105C3647.3222 72.784647 3649.9549 74.944247 3651.4794 75.487215C3653.857 76.33402 3654.4822 76.144774 3655.8756 74.156641C3659.7457 68.63457 3662.7374 65.71966 3663.8372 66.399395C3664.5478 66.838586 3665.0 69.935963 3665.0 74.364737C3665.0 80.524272 3665.3751 82.119801 3667.5 85.0C3670.2526 88.73088 3670.7993 93.479307 3668.5746 94.333001C3666.1639 95.258057 3660.1194 93.04371 3656.5856 89.940972C3653.4048 87.148273 3646.4017 85.0 3640.4785 85.0C3637.9341 85.0 3634.98 88.86278 3634.0511 93.404313C3633.4144 96.517607 3632.2169 97.445548 3630.3997 96.233744Z M3667.0 89.722506C3667.0 89.019885 3666.2125 87.332385 3665.25 85.972506C3664.2773 84.59828 3663.2779 80.869705 3663.0 77.578539C3662.725 74.321735 3662.0371 71.504925 3661.4713 71.31896C3660.9055 71.132996 3659.5894 72.447654 3658.5466 74.240422C3655.1325 80.10995 3652.709 80.439383 3647.3778 75.758577C3642.0298 71.062929 3639.9232 65.795451 3640.6757 59.0C3641.3475 52.933356 3646.2768 42.0 3648.3401 42.0C3649.0613 42.0 3650.7083 43.125 3652.0 44.5C3654.7855 47.464987 3658.6424 47.994752 3657.4603 45.25C3656.0746 42.032297 3655.7531 31.037561 3656.9104 26.44167C3658.2248 21.221629 3657.6904 19.560155 3655.1365 20.926926C3653.2328 21.945757 3648.0 30.922562 3648.0 33.169489C3648.0 33.938846 3645.4906 37.027948 3642.4235 40.03416C3635.396 46.92216 3632.2689 52.178047 3630.9484 59.321046C3628.5386 72.35711 3635.4714 81.149592 3650.0 83.483215C3652.475 83.880755 3655.625 85.224431 3657.0 86.469161C3661.7311 90.752051 3667.0 92.466198 3667.0 89.722506Z M3637.0546 41.434166C3638.0822 40.196076 3638.1078 39.186994 3637.1771 36.613168C3636.5297 34.822828 3635.9939 32.264953 3635.9863 30.929002C3635.9788 29.593051 3635.6966 27.469153 3635.3591 26.20923C3634.7851 24.066588 3634.6649 24.034257 3633.5005 25.70923C3630.8579 29.510402 3629.9357 39.012643 3631.9712 41.465358C3633.6001 43.42795 3635.4092 43.416849 3637.0546 41.434166Z"/>
</svg>
