<?xml version="1.0" encoding="UTF-8"?>
<svg xmlns="http://www.w3.org/2000/svg" viewBox="3075.03 14.08 96.76 93.72">
  <path d="M3099.734 101.25C3097.7034 98.995149 3093.9969 89.580774 3094.0106 86.71298C3094.0165 85.495841 3095.8117 82.25 3098.0 79.5C3103.0596 73.14169 3103.1936 69.993579 3098.6 65.4C3092.7674 59.567433 3088.2655 61.728422 3086.4871 71.214371C3085.5234 76.355039 3083.6363 77.74649 3081.5901 74.825166C3079.4236 71.732094 3079.583 69.244149 3082.4571 61.295489C3085.1175 53.937369 3089.4969 48.972084 3093.2658 49.040641C3094.4946 49.062993 3097.058 50.412993 3098.9622 52.040641C3104.7094 56.953036 3105.3942 56.289409 3104.6443 46.534315C3103.8941 36.774342 3102.2407 28.266765 3100.9375 27.461343C3100.4421 27.155185 3097.8211 27.691619 3095.1131 28.653417C3090.9976 30.115119 3089.9277 30.184909 3088.5947 29.078626C3086.4476 27.296685 3086.5755 22.694155 3088.8287 20.654988C3091.1514 18.553042 3092.5175 18.597841 3097.6885 20.945527C3101.8096 22.816529 3101.9377 22.816176 3105.6499 20.923565C3110.7153 18.341084 3113.2517 18.499487 3116.973 21.630708L3120.0994 24.261417L3123.5111 22.424092C3128.382 19.800935 3132.3773 21.264435 3132.8182 25.833379C3133.3104 30.932993 3131.5136 32.332813 3125.2988 31.691394L3120.0371 31.148339L3119.0792 34.82417C3118.5523 36.845876 3117.8048 42.281759 3117.4181 46.903909L3116.7149 55.307819L3119.1074 54.56042C3125.3156 52.621067 3126.4661 52.800022 3131.0103 56.411975C3138.2351 62.154585 3139.1695 61.670233 3143.9126 49.723969C3148.2101 38.900033 3147.9721 34.106508 3142.8647 28.624435C3140.9519 26.571207 3140.3178 23.0 3141.8662 23.0C3142.3425 23.0 3144.5859 25.760487 3146.8515 29.134415C3151.5207 36.088061 3151.5221 35.687953 3146.7794 49.5C3141.5679 64.676768 3137.6329 67.276877 3130.1317 60.5C3125.9299 56.70395 3123.8575 56.294855 3120.0 58.5C3116.6804 60.397637 3116.2588 60.35211 3114.9773 57.957642C3114.1657 56.441128 3114.3177 52.514722 3115.5675 42.707642C3117.6437 26.41714 3117.6262 25.989053 3114.7963 23.811439C3111.8629 21.554194 3108.7891 21.532485 3106.0972 23.75C3104.0285 25.454219 3104.0113 25.683125 3105.4421 32.5C3107.316 41.428121 3107.938 60.143055 3106.3789 60.688497C3105.7623 60.904215 3102.8395 59.016456 3099.8838 56.493477C3093.8678 51.358346 3091.1091 51.142623 3087.4771 55.523322C3085.2483 58.211537 3081.5935 69.368356 3082.3128 71.287777C3082.5859 72.016513 3083.0611 71.702313 3083.5041 70.5C3085.7908 64.293764 3088.3156 60.169057 3090.5644 58.965531C3095.906 56.106818 3104.4955 63.890288 3104.4984 71.591916C3104.4997 74.796751 3103.7253 76.639455 3100.9265 80.091916C3095.9269 86.259052 3095.7887 87.130581 3098.8655 93.085014C3101.9759 99.10442 3104.7817 101.09947 3103.5 96.380377C3103.0697 94.79617 3102.7795 92.446817 3102.8551 91.159594C3103.0565 87.730336 3108.7094 80.0 3111.0156 80.0C3111.364 80.0 3114.5404 82.505237 3118.0745 85.567193C3124.7775 91.374796 3125.3029 91.504012 3131.6722 88.911444C3134.5822 87.726994 3135.1654 87.842647 3138.726 90.310113C3142.8485 93.167013 3146.8357 93.764284 3148.7833 91.816667C3149.4342 91.165833 3150.2098 90.876426 3150.5069 91.173539C3151.6262 92.292844 3149.7511 94.860456 3146.9745 96.010567C3144.3986 97.07755 3143.6367 96.897083 3139.7963 94.310307C3137.4334 92.71864 3135.0177 91.120714 3134.4283 90.759361C3133.8389 90.398009 3132.0999 90.754326 3130.564 91.551178C3125.1233 94.373842 3118.9735 92.580256 3115.0107 87.015089C3112.2214 83.097792 3108.3651 82.909562 3106.9537 86.621817C3106.4054 88.063816 3106.0572 91.78509 3106.1799 94.891315C3106.3026 97.99754 3106.0607 101.09272 3105.6425 101.7695C3104.5457 103.54416 3101.5639 103.28199 3099.734 101.25Z M3095.4951 25.428712C3097.2099 24.132909 3097.2801 23.784774 3095.9951 22.951465C3093.3719 21.250376 3089.5336 22.263394 3089.1804 24.75C3088.9269 26.535274 3089.34 26.993431 3091.1804 26.968197C3092.4562 26.950705 3094.3978 26.257936 3095.4951 25.428712Z M3137.6942 85.468399C3134.4849 82.644928 3132.2153 82.369882 3129.4411 84.468197C3126.0258 87.051453 3122.4991 86.332517 3118.9919 82.338024C3116.0893 79.032131 3115.8226 78.198365 3116.2487 73.763532C3116.5083 71.061649 3117.6156 67.647038 3118.7092 66.175508C3121.8561 61.94141 3125.4987 62.201778 3132.9304 67.192027L3139.3119 71.477122L3142.7633 67.37109C3146.3004 63.162933 3150.6543 53.474359 3153.5993 43.258025C3155.7761 35.706309 3162.5821 26.0 3165.7005 26.0C3167.3884 26.0 3166.0893 28.725155 3161.887 34.0C3160.3534 35.925 3157.6747 41.55 3155.9343 46.5C3152.5315 56.178318 3147.1833 67.191395 3144.2206 70.620982C3141.2414 74.069641 3138.7314 74.306929 3134.6351 71.527147C3125.3153 65.202549 3122.1439 64.887224 3119.489 70.021209C3117.3151 74.225167 3117.643 76.568941 3120.9181 80.234223C3123.7374 83.38954 3123.9488 83.454293 3127.1681 82.148669C3133.0738 79.753471 3134.4073 79.787149 3138.3015 82.429858C3140.8374 84.150747 3143.4363 85.0 3146.1669 85.0C3149.6784 85.0 3150.072 85.208371 3149.0 86.5C3147.0281 88.876039 3140.9357 88.320141 3137.6942 85.468399Z M3130.3828 27.954823C3131.7586 26.67621 3130.2723 24.0 3128.1864 24.0C3125.415 24.0 3122.6974 27.297361 3124.2166 28.816622C3125.3949 29.994946 3128.6818 29.535565 3130.3828 27.954823Z M3147.3849 26.304583C3143.7392 22.324436 3143.4084 21.483668 3145.0813 20.449778C3145.676 20.082238 3147.3881 20.95568 3148.886 22.390761C3151.4582 24.855066 3156.0 25.984939 3156.0 24.160515C3156.0 23.288572 3160.3788 21.0 3162.0471 21.0C3164.3455 21.0 3162.6031 23.15654 3157.6465 26.446546C3154.7021 28.400946 3151.9503 30.0 3151.5314 30.0C3151.1125 30.0 3149.2465 28.337062 3147.3849 26.304583Z"/>
</svg>
