<?xml version="1.0" encoding="UTF-8"?>
<svg xmlns="http://www.w3.org/2000/svg" viewBox="892.02 13.45 62.54 90.15">
  <path d="M 949.40625,45.6875 C 947.62509,45.583229 946.12764,46.143915 943.59375,47.34375 936.71179,50.602468 935.14702,51.058847 934.53125,50.0625 933.48648,48.372023 933.76118,37.220529 934.9375,33.65625 936.00515,30.421238 936.5306,30 939.5,30 944.73575,30 948.25156,25.179947 946.03125,21.03125 944.74314,18.624397 941.60008,18.426854 937.625,20.5 933.76217,22.514606 932.04844,22.386566 929.375,19.875 926.90156,17.551319 923.34915,17.807091 920.65625,20.5 918.70353,22.452721 918.28162,22.41315 913.3125,19.78125 L 909.09375,17.5625 906.65625,19.84375 C 903.3005,22.996315 902.72921,26.7292 905.21875,29.21875 906.84244,30.842435 907.98757,31.067343 911.5625,30.53125 915.87821,29.884069 915.93517,29.924314 917.53125,33.6875 918.41902,35.780671 919.4106,39.843048 919.71875,42.71875 920.41776,49.242097 919.12894,50.007532 912.53125,46.90625 906.01481,43.843165 903.37864,44.882875 899.8125,52 895.37751,60.851141 894.86259,70 898.8125,70 899.86041,70 901.36183,68.150935 902.75,65.125 905.21929,59.742468 909.82742,56.773311 912.8125,58.65625 918.52906,62.262164 921.84151,70.35021 919.59375,75.25 918.08045,78.548766 921.66406,77.151644 923.28125,73.8125 924.7363,70.808148 924.70558,70.351678 922.46875,65.9375 919.23973,59.565328 914.52555,55 911.15625,55 908.37588,55 903.88771,58.471101 900.8125,63 L 899.09375,65.5 899.0625,62 C 899.0203,57.155502 902.38,50.23684 905.4375,48.84375 907.58781,47.864001 908.71883,48.090174 913.0625,50.34375 915.87372,51.802265 918.98365,53 919.96875,53 923.47316,53 924.00353,44.387058 921.0625,34.9375 919.01668,28.364285 919.37739,25.990625 922.90625,23.28125 925.29654,21.446049 926.66536,21.731528 929.96875,24.75 L 933,27.5 931.5,35.75 C 929.94296,44.480015 930.40674,52.242129 932.5625,54.03125 933.5067,54.814864 935.6245,54.27745 940.5625,51.96875 945.0791,49.85707 947.17163,49.235949 950.1875,49.84375 L 949.40625,45.6875 z M 909.9375,21.21875 C 910.54714,21.175548 911.23715,21.578799 912.5,22.40625 914.62286,23.797205 914.8969,24.406485 913.9375,25.5625 912.53598,27.251226 907.41609,27.489639 906.4375,25.90625 906.0633,25.300773 906.68138,23.881122 907.8125,22.75 908.79937,21.763124 909.32786,21.261952 909.9375,21.21875 z M 941.0625,23 C 943.39041,23 943.64329,25.547817 941.40625,26.40625 939.33186,27.202269 939.22497,27.173024 938.5,26 937.5767,24.506062 938.86485,23 941.0625,23 z M 951.125,54.78125 C 951.05376,54.782681 950.94209,54.744946 950.875,54.75 948.46794,54.931319 938.27553,63.551809 937.46875,66.09375 937.10499,67.239856 937.95595,69.990819 939.59375,73 941.09222,75.753176 942.91866,78 943.65625,78 945.49423,78 945.39413,77.52676 942.375,72.375 940.12453,68.534868 939.90414,67.524613 940.9375,65.59375 942.24666,63.147568 949.55988,58 951.71875,58 L 951.125,54.78125 z M 928.8125,77.53125 C 928.6044,77.196949 927.52073,78.041432 925.5,80 923.575,81.865783 922,83.970392 922,84.6875 922,87.325289 924.69047,85.900649 926.8125,82.125 928.34978,79.389791 929.0206,77.865551 928.8125,77.53125 z M 932.9375,78 C 931.24174,78 931.97775,81.335324 934.1875,83.6875 938.18519,87.942839 939.48021,85.88153 935.9375,80.90625 934.80004,79.308847 933.45004,78 932.9375,78 z M 915.0625,80 C 913.99016,80 912,83.208827 912,84.9375 912,86.794678 912.8991,86.095801 914.5,83 915.35325,81.35 915.60728,80 915.0625,80 z M 946.625,83 C 944.99281,83 941,89.724844 941,92.46875 941,93.315661 941.64097,94 942.40625,94 943.59821,94 944.5229,92.283586 947.71875,84.25 947.99225,83.5625 947.49767,83 946.625,83 z M 924.5625,89.15625 C 923.76823,88.479682 923.1295,89.97824 923.25,93 923.3502,95.512887 923.90991,97 924.71875,97 926.0596,97 926.45682,93.331489 925.40625,90.59375 925.12492,89.860612 924.82726,89.381773 924.5625,89.15625 z M 935.90625,90.375 C 935.62259,90.208795 935.33942,90.440394 934.96875,91.03125 933.99527,92.583007 934.58428,95.667968 936.25,97.75 937.65599,99.50739 941,99.309339 941,97.46875 941,96.626489 940.30463,95.6765 939.4375,95.34375 938.57036,95.011 937.41445,93.575102 936.875,92.15625 936.47973,91.116599 936.18991,90.541205 935.90625,90.375 z M 914.8125,91 C 913.05084,91 914.14767,93.957587 916.625,95.90625 920.362,98.845775 921.70285,97.315909 918.40625,93.875 916.88325,92.285332 915.2596,91 914.8125,91 z"/>
</svg>
