<?xml version="1.0" encoding="UTF-8"?>
<svg xmlns="http://www.w3.org/2000/svg" viewBox="944.94 13.93 98.29 88.07">
  <path d="M 949.40625,45.6875 950.1875,49.84375 C 952.09292,50.227757 954.28971,50.984498 957.96875,52.53125 966.53214,56.131496 970.00714,56.252433 971.6875,53 973.59109,49.315499 973.28301,41.791392 970.9375,34.53125 968.6093,27.324683 969.21121,24.63499 973.59375,22.96875 975.58487,22.21173 976.55055,22.442521 978.3125,24.125 979.52329,25.28118 981.7663,26.66284 983.3125,27.21875 985.37892,27.961703 985.92215,28.676258 985.40625,29.875 982.48145,36.671087 981.74078,45.41652 983.5625,51.15625 984.27332,53.395834 987.25704,53.522578 992.8125,51.5625 996.85831,50.135052 996.91632,50.151691 1004.6562,54.5625 1008.937,57.001974 1012.7325,59 1013.0625,59 1014.819,59 1018.1852,53.676942 1019.9688,48.09375 1022.3036,40.78504 1022.6942,31.207526 1020.6875,30.4375 1019.9672,30.161066 1018.0639,27.700054 1016.4688,24.96875 1013.7919,20.385314 1012,18.734207 1012,20.875 1012,22.653149 1014.8829,28.575828 1017.1562,31.46875 1018.9906,33.803245 1019.4599,35.53393 1019.3125,39.46875 1019.1105,44.861655 1015.7088,53.789401 1013.5312,54.625 1012.1135,55.169041 1005.2976,52.004848 1000.9375,48.78125 998.42824,46.926101 998.03706,46.901121 992.96875,48.40625 990.03967,49.276092 987.26267,50 986.8125,50 986.36232,50 986,46.721372 986,42.71875 986,34.46575 987.39243,31.559015 991.75,30.6875 999.01716,29.234069 1002.9769,21.330534 997.65625,18.90625 995.70914,18.019089 994.53488,18.324545 990.5625,20.84375 985.40271,24.115991 984.34508,24.052172 979.125,20.1875 976.42352,18.187467 975.40893,17.93289 974.125,18.84375 973.23906,19.472258 970.78833,20.861011 968.6875,21.9375 964.90558,23.875398 964.83636,23.857507 961.6875,21.9375 955.47574,18.149904 952.59845,20.705196 955.4375,27.5 956.91909,31.045946 957.11155,31.167655 961.5625,30.84375 L 966.15625,30.5 968.6875,36.5 C 970.84226,41.579543 971.11179,43.190343 970.375,47 969.28373,52.642468 967.00949,53.191471 959.6875,49.625 954.16771,46.936363 951.56846,45.814079 949.40625,45.6875 z M 995.5625,21.46875 C 996.0973,21.731636 995.98882,22.741292 995.1875,24.5 994.40905,26.208506 993.2515,27 991.53125,27 988.16563,27 988.34575,25.615308 992.0625,22.96875 993.85094,21.69527 995.0277,21.205864 995.5625,21.46875 z M 958.15625,23.78125 C 958.59057,23.863173 959.12115,24.090788 959.75,24.53125 960.98464,25.396024 962,26.543687 962,27.0625 962,28.520923 959.39015,28.168625 958.03125,26.53125 956.54826,24.744349 956.85329,23.535482 958.15625,23.78125 z M 951.125,54.78125 951.71875,58 C 951.72441,58 951.74426,57.999944 951.75,58 954.46883,58.026745 965.61131,64.368891 968.75,67.6875 972.62249,71.781982 974.87251,71.272295 972.28125,66.875 969.73292,62.55058 955.88744,54.685565 951.125,54.78125 z M 993,70 C 991.90689,70 991,70.353628 991,70.78125 991,71.773805 993.73719,75.84404 996.34375,78.75 1000.578,83.470598 1001.386,80.124687 997.5,73.96875 995.94562,71.506464 994.22952,70 993,70 z M 1018.5625,18.25 C 1018.3306,18.336332 1018.1082,18.520227 1017.8438,18.78125 1016.7822,19.828701 1017.1394,20.624683 1019.7812,23.09375 1021.5583,24.754562 1023,26.540377 1023,27.0625 1023,29.03608 1025.8528,27.876558 1028.125,25 1029.4244,23.354991 1031.0625,22.004991 1031.75,22 1033.2501,21.989111 1033.4155,20.374787 1032,19.5 1031.4447,19.156799 1029.7876,19.801759 1028.3438,20.9375 1024.8707,23.66944 1023.5697,23.541601 1021.1562,20.25 1019.9237,18.568977 1019.2583,17.991003 1018.5625,18.25 z M 1038.2812,23.90625 C 1037.8011,23.583167 1036.3147,24.252136 1034.1562,26.125 1029.693,29.997787 1027.0874,34.492386 1027.0312,38.4375 1026.9589,43.533535 1022.1635,57.532295 1019.5,60.40625 1016.6746,63.454973 1015.9185,63.389241 1007.3125,59.40625 1000.6025,56.300753 995.05439,56.239655 992.3125,59.25 989.5086,62.32842 987.77097,65.851644 988.5,67.03125 989.46802,68.597533 990.80509,68.153497 991.46875,66.0625 991.80621,64.999271 994.05673,63.16764 996.46875,62 L 1000.875,59.875 1005.6875,62.09375 C 1012.9062,65.392153 1018.2355,65.727908 1020.7188,63.0625 1024.7063,58.782423 1028.1871,50.80736 1029.5938,42.75 1031.0331,34.504738 1031.8137,32.804099 1036.4062,27.625 1038.2529,25.542384 1038.7614,24.229333 1038.2812,23.90625 z M 971.5625,73.25 C 970.46136,72.158164 966.00577,78.138493 966,80.71875 965.99251,84.062139 968.44672,82.560152 970.53125,77.9375 971.51123,75.764289 971.97285,73.656893 971.5625,73.25 z M 981.21875,75.59375 C 978.40172,76.231843 974.00862,80.581276 974,82.75 973.99082,85.059423 976.55535,84.027519 978.34375,81 980.49776,77.353548 981.38819,77.292263 985.59375,80.5 991.60555,85.085428 993.16057,83.091235 987.46875,78.09375 984.69486,75.658244 983.33683,75.11398 981.21875,75.59375 z M 965.75,84.84375 C 965.25681,85.33694 965.87724,87.711178 967.15625,90.34375 969.83145,95.85012 972.6177,96.775951 971.625,91.8125 970.88447,88.109839 967.03997,83.553776 965.75,84.84375 z M 998.125,86.5 C 997.81263,86.705085 997.37036,87.40175 996.6875,88.6875 995.75266,90.447687 995,92.360187 995,92.9375 995,93.514813 995.65423,94 996.46875,94 998.08839,94 999.39781,90.24388 998.78125,87.34375 998.62503,86.608904 998.43737,86.294915 998.125,86.5 z M 990.46875,87.34375 C 990.22802,87.431233 989.90333,87.665267 989.5,88 987.76274,89.4418 987.53789,93.272116 989.03125,96.0625 989.6006,97.126343 990.7256,98 991.53125,98 993.22131,98 993.51727,95.445104 991.9375,94.46875 991.35177,94.106748 990.93724,92.614208 991.03125,91.15625 991.2294,88.083185 991.19095,87.081302 990.46875,87.34375 z M 975,87.5 C 973.87118,88.197649 973.63655,93.292805 974.6875,94.34375 975.06726,94.723512 976.05722,94.380279 976.875,93.5625 978.083,92.354498 978.14749,91.57569 977.1875,89.46875 976.53762,88.042419 975.54766,87.161527 975,87.5 z"/>
</svg>
