<?xml version="1.0" encoding="UTF-8"?>
<svg xmlns="http://www.w3.org/2000/svg" viewBox="185.55 11.75 35.34 49.5">
  <path d="M197.64489 51.25C197.0808 44.50966 196.6672 43.258489 194.47016 41.646199C188.75764 37.4541 187.54538 30.252107 191.14417 21.886509C193.68033 15.991049 196.85433 13.998406 203.70034 14.003738C211.90684 14.010129 217.3881 19.2568 218.34794 28.024444C218.88823 32.959718 217.01245 40.176486 214.37057 43.326725C211.77362 46.423389 211.74265 46.530427 211.59915 52.904327C211.53698 55.66612 210.98915 57.483541 210.13019 57.777598C209.03296 58.153224 208.8419 56.878797 209.17004 51.373271C209.49709 45.886159 210.16042 43.631781 212.45918 40.194939C216.72956 33.810344 216.22387 25.490548 211.21651 19.75C209.38286 17.647861 201.77657 17.384556 198.0 19.292488C194.94929 20.83371 192.11293 26.331115 192.04803 30.828528C192.01092 33.400519 192.90916 35.084534 196.0 38.237665L200.0 42.318273L200.0 50.659137C200.0 55.246611 199.61603 59.0 199.14674 59.0C198.67744 59.0 198.00161 55.5125 197.64489 51.25Z M198.98904 35.75C192.81567 25.624941 201.91097 14.088565 208.46395 23.732135C211.75664 28.577768 211.84598 33.856612 208.68555 36.825686C205.20389 40.09653 201.38057 39.672388 198.98904 35.75Z M206.8 34.8C209.68603 31.913967 206.9092 25.0 202.86406 25.0C200.42019 25.0 199.4402 29.234309 201.00804 33.019411C202.29114 36.117084 204.73241 36.86759 206.8 34.8Z"/>
</svg>
