<?xml version="1.0" encoding="UTF-8"?>
<svg xmlns="http://www.w3.org/2000/svg" viewBox="2157.82 13.71 36.91 88.85">
  <path d="M2163.0 43.344391C2163.0 42.433806 2164.125 40.213831 2165.5 38.411113C2168.7096 34.203136 2168.6468 32.875534 2165.0 27.841303C2159.8184 20.688342 2161.7187 19.659397 2167.9389 26.25C2173.3512 31.984689 2173.1776 34.394546 2166.8146 41.852467C2163.775 45.415049 2163.0 45.718164 2163.0 43.344391Z M2172.7835 96.25C2168.0776 90.855108 2167.2751 80.140371 2170.3785 64.139532C2172.1385 55.065101 2172.5165 46.0 2171.1349 46.0C2170.659 46.0 2169.0603 46.951302 2167.5822 48.114004C2166.1041 49.276707 2164.6101 49.943446 2164.2623 49.595648C2163.587 48.920348 2170.8801 41.0 2172.1773 41.0C2172.6015 41.0 2173.6201 42.298458 2174.4408 43.885462C2176.1243 47.140985 2175.7821 53.526901 2173.3764 63.752548C2171.6506 71.087964 2171.3584 88.932693 2172.9164 91.843851C2174.6428 95.069544 2178.0652 95.637766 2180.163 93.04701C2184.2339 88.019718 2184.7752 80.618817 2182.5801 60.0C2181.3588 48.527776 2181.7004 43.0 2183.6309 43.0C2185.428 43.0 2191.0 48.331339 2191.0 50.050891C2191.0 52.435314 2190.2171 52.50642 2187.8226 50.339464C2186.8134 49.426169 2185.7069 48.959737 2185.3637 49.302947C2185.0205 49.646157 2185.1986 56.130899 2185.7595 63.713483C2187.2239 83.511472 2186.1443 91.712793 2181.4568 96.400359C2179.3392 98.517971 2174.6915 98.4374 2172.7835 96.25Z M2171.5062 25.006251C2167.54 20.979509 2166.8335 19.769237 2167.8577 18.756251C2168.8799 17.745361 2169.8017 18.232422 2172.5774 21.25C2174.4747 23.3125 2176.3394 25.0 2176.7213 25.0C2177.1032 25.0 2179.0704 23.384218 2181.0928 21.409373C2183.1152 19.434529 2185.0412 18.257656 2185.3727 18.7941C2185.9765 19.770996 2178.4499 30.0 2177.1273 30.0C2176.741 30.0 2174.2114 27.752813 2171.5062 25.006251Z M2186.6338 38.33589C2184.6352 35.77063 2183.0 32.861288 2183.0 31.870687C2183.0 29.966767 2188.5789 23.0 2190.1036 23.0C2191.6377 23.0 2191.0903 25.615488 2189.0 28.272871C2186.4016 31.576262 2186.4776 32.903345 2189.5 37.0C2192.0244 40.421666 2192.7265 43.0 2191.1338 43.0C2190.6574 43.0 2188.6324 40.901151 2186.6338 38.33589Z"/>
</svg>
