<?xml version="1.0" encoding="UTF-8"?>
<svg xmlns="http://www.w3.org/2000/svg" viewBox="227.9 12.12 48.42 88.79">
  <path d="M231.45117 81.920999C230.10156 79.737274 234.90829 67.574953 236.49418 69.160843C236.77734 69.444006 236.5917 70.986156 236.08165 72.587842C235.57159 74.189529 234.87417 77.1875 234.53182 79.25C233.91428 82.970467 232.73285 83.994793 231.45117 81.920999Z M232.87244 35.347152C231.16952 33.296299 230.96987 20.868148 232.63073 20.299791C233.35983 20.050289 233.94627 22.148315 234.28176 26.206423C234.56792 29.667891 235.12408 33.5125 235.51766 34.75C236.36166 37.40371 234.86135 37.742403 232.87244 35.347152Z M235.84049 94.287024C234.99542 93.304161 234.00551 91.66244 233.6407 90.638755C233.07062 89.039119 233.3469 88.87025 235.60629 89.437321C237.41154 89.89041 238.82688 89.56166 240.12372 88.38803C242.82412 85.944211 243.48852 87.310425 241.73793 91.707313C240.01816 96.026761 238.06931 96.87925 235.84049 94.287024Z M233.75993 53.817671C233.13727 49.575171 234.45184 44.09475 236.5684 42.10929C238.15832 40.617845 238.22945 40.646456 237.53978 42.5C237.13048 43.6 236.55499 47.3125 236.26089 50.75C235.68372 57.496335 234.51097 58.93482 233.75993 53.817671Z M241.12666 33.258512C236.70299 28.215995 235.7625 26.246798 236.8499 24.303768C237.77418 22.652215 237.94 22.710969 238.81492 25.0C239.34047 26.375 240.73843 28.372003 241.92148 29.437784C243.79505 31.125639 244.49614 31.222372 247.35724 30.187784C254.13176 27.738085 255.0054 29.407114 249.02144 33.367114C246.83323 34.815201 244.69573 35.991869 244.27144 35.98193C243.84715 35.971992 242.432 34.746454 241.12666 33.258512Z M243.0 81.134859C243.0 80.109031 243.9513 78.060333 245.114 76.582196C246.27671 75.10406 247.06421 73.787156 246.864 73.655743C246.6638 73.52433 244.5875 72.191644 242.25 70.694217C239.5908 68.990709 238.0 67.22832 238.0 65.985812C238.0 63.295754 239.56836 63.48836 242.18695 66.5C243.3825 67.875 244.84202 69.014312 245.43034 69.031803C246.01865 69.049295 247.37581 69.725981 248.44625 70.53555C249.95662 71.677834 250.12459 72.275409 249.19625 73.203747C248.53831 73.861686 248.0 75.188826 248.0 76.152947C248.0 78.910777 245.81385 83.0 244.33948 83.0C243.60277 83.0 243.0 82.160686 243.0 81.134859Z M248.60699 58.418213C246.74918 53.576848 249.50629 41.307273 252.23577 42.269553C252.9311 42.514691 253.3685 43.566825 253.20779 44.607629C253.04707 45.648433 252.64911 49.5375 252.32342 53.25C251.93353 57.694409 251.30135 60.0 250.47262 60.0C249.78037 60.0 248.94083 59.288196 248.60699 58.418213Z M259.04149 87.041491C257.26459 85.264586 253.0 77.851647 253.0 76.539838C253.0 76.242927 253.68614 76.0 254.52475 76.0C255.36336 76.0 256.51924 77.235504 257.09336 78.745565C257.66749 80.255626 259.23135 82.925601 260.56861 84.678843C261.90588 86.432085 263.0 88.121581 263.0 88.433278C263.0 89.64391 260.90858 88.908579 259.04149 87.041491Z M255.09911 68.605496C252.26706 65.590914 253.93943 64.258984 257.56985 66.637725C259.74331 68.061831 260.54094 68.143268 262.19547 67.109997C264.92972 65.402435 265.72317 66.543419 263.50555 68.993869C261.07855 71.675671 257.84296 71.526188 255.09911 68.605496Z M258.68709 45.195281C255.67802 42.054487 255.34981 41.0 257.38131 41.0C258.14103 41.0 259.96393 42.575 261.4322 44.5C264.71134 48.799177 262.64199 49.323303 258.68709 45.195281Z M265.63948 33.306147C265.28777 32.954433 264.98681 30.154167 264.97069 27.083333L264.94137 21.5L261.92682 24.814876C260.26881 26.638057 258.19673 27.988057 257.3222 27.814876C256.05775 27.56448 256.4251 26.597871 259.11607 23.094629C263.49032 17.400013 265.45679 16.158457 267.75 17.643505C268.7125 18.266807 269.36013 19.614505 269.18917 20.63839C269.01821 21.662276 268.6243 24.870807 268.31381 27.76846C267.76386 32.90084 266.94004 34.606708 265.63948 33.306147Z M267.17117 92.706248C265.59829 90.811045 266.42137 90.261461 270.03769 90.792224C271.71468 91.038353 272.91949 91.748292 272.71505 92.369866C272.1567 94.067468 268.48574 94.290208 267.17117 92.706248Z M268.0 70.320998C268.0 66.255911 269.94546 60.0 271.20962 60.0C271.94606 60.0 271.36149 69.784604 270.44788 72.75C269.62393 75.424398 268.0 73.812995 268.0 70.320998Z M269.2 46.8C268.54 46.14 268.01001 44.4525 268.02224 43.05L268.04447 40.5L270.0 43.0C272.97163 46.799017 272.31553 49.915527 269.2 46.8Z M270.63029 87.75C269.63618 84.040501 269.88903 79.813386 271.06168 80.538122C272.6989 81.54998 274.11893 86.04992 273.45808 88.132082C272.65557 90.660576 271.36351 90.485998 270.63029 87.75Z"/>
</svg>
