<?xml version="1.0" encoding="UTF-8"?>
<svg xmlns="http://www.w3.org/2000/svg" viewBox="1636.76 11.15 83.35 90.47">
  <path d="M1661.75 95.919901C1660.7875 95.359296 1660.0 94.090003 1660.0 93.099249C1660.0 92.108495 1658.914 89.255352 1657.5866 86.75893C1655.3546 82.561047 1655.2842 82.005075 1656.6499 79.359991C1657.462 77.786996 1659.1725 75.375 1660.4509 74.0C1663.9956 70.187489 1664.3657 67.637091 1662.0365 63.071496C1659.7489 58.5874 1656.0658 55.653798 1653.8103 56.519304C1652.3828 57.067098 1649.0 66.040064 1649.0 69.278875C1649.0 71.401253 1647.4373 72.273566 1645.0134 71.504239C1642.1478 70.594748 1640.55 63.933592 1642.0583 59.184911C1644.0569 52.892708 1648.8307 46.254657 1652.2026 45.079202C1656.5118 43.577033 1658.1453 43.711266 1663.1408 45.978038C1669.3544 48.797549 1670.0 48.613296 1670.0 44.020324C1670.0 40.345624 1669.6746 39.874624 1665.7534 37.874186C1659.8579 34.866534 1658.8731 33.323436 1659.3189 27.792157C1659.8718 20.931967 1663.855 16.0 1668.8427 16.0C1671.9412 16.0 1673.2796 16.729767 1676.6371 20.25C1683.7526 27.710504 1684.6176 33.595023 1679.0239 36.487655C1674.3974 38.88011 1673.0 40.871313 1673.0 45.071429C1673.0 49.670034 1673.8215 49.872897 1678.7852 46.5C1683.8032 43.090162 1686.5563 43.343415 1694.0687 47.905888C1699.842 51.412137 1700.6709 51.659471 1702.1701 50.323217C1704.9422 47.852432 1706.3236 39.594889 1705.7392 28.988685C1705.0823 17.06736 1705.8948 15.25881 1709.9269 19.667187C1715.5048 25.765525 1716.323 40.268439 1711.8974 54.59676C1708.9924 64.002079 1703.7244 66.464904 1696.3113 61.883351C1694.1001 60.516785 1691.0461 59.719445 1687.6932 59.633351C1682.945 59.511428 1682.4713 59.703139 1682.1647 61.870447C1681.9319 63.515987 1682.9102 65.350848 1685.3637 67.870447C1687.3076 69.866701 1689.5289 73.006638 1690.3 74.848085C1691.5974 77.946685 1691.4942 78.706411 1688.9152 85.043636C1684.7635 95.245632 1684.1481 96.16172 1681.6823 95.810684C1679.789 95.541136 1679.5144 94.904178 1679.6087 91.0C1679.6685 88.525 1679.8935 85.232533 1680.1087 83.683406C1680.4376 81.315693 1679.8112 80.362555 1676.1783 77.702746L1671.8566 74.538681L1669.8961 77.01934C1668.2441 79.109753 1668.0307 80.471556 1668.5395 85.67583C1669.0139 90.52839 1668.7819 92.403217 1667.4566 94.42583C1665.6365 97.203779 1664.4759 97.507617 1661.75 95.919901Z M1665.188 86.842547C1664.2791 83.261845 1664.3967 81.899709 1665.9053 78.530049C1666.8977 76.313522 1668.6793 73.638799 1669.8645 72.58622C1672.3684 70.362534 1673.9086 70.926794 1680.4135 76.450829L1684.3269 79.774201L1682.6635 85.702705C1680.6316 92.944008 1680.6104 93.568249 1682.4474 92.043675C1683.2434 91.383007 1684.6709 88.740407 1685.6196 86.171231C1686.5682 83.602054 1687.7541 80.959094 1688.2548 80.297988C1689.7164 78.368274 1688.1468 75.183297 1682.854 69.338797C1677.3511 63.262341 1677.1709 61.306101 1681.7328 57.167224C1683.8271 55.267116 1684.9713 54.956216 1687.902 55.490973C1689.8809 55.852062 1692.7375 56.789312 1694.25 57.57375C1695.7625 58.358187 1698.3816 59.723734 1700.0703 60.608298C1703.0146 62.150609 1703.2446 62.119837 1705.6764 59.858298C1709.1131 56.662138 1709.8844 54.295453 1710.9635 43.633543C1711.9046 34.335799 1711.1943 23.5 1709.6437 23.5C1709.1728 23.5 1708.6629 28.353412 1708.5106 34.285361C1708.2785 43.327989 1707.8505 45.81541 1705.8621 49.679424C1702.382 56.441824 1700.9886 56.976762 1696.0589 53.443002C1686.6857 46.723981 1683.9029 46.32478 1678.1578 50.875C1675.9877 52.59375 1673.5356 54.0 1672.7087 54.0C1671.8818 54.0 1668.4843 52.65 1665.1587 51.0C1656.728 46.817108 1652.7029 46.981241 1648.3958 51.683538C1644.9294 55.467917 1643.5861 59.545257 1644.1683 64.514947C1644.6742 68.83249 1646.78 68.708513 1647.5778 64.314213C1648.4799 59.34597 1651.6662 53.065324 1653.6757 52.294187C1656.0688 51.375871 1661.1925 54.601655 1663.9797 58.781422C1667.8708 64.616653 1667.4623 70.378831 1662.75 76.129603C1660.6875 78.646612 1659.0 80.942758 1659.0 81.232149C1659.0 81.52154 1660.1759 84.326801 1661.6131 87.466063C1663.3967 91.361893 1664.5514 92.848615 1665.2506 92.149404C1665.9498 91.450193 1665.9299 89.765537 1665.188 86.842547Z M1669.7921 27.897048C1670.1387 20.087291 1668.8239 18.115616 1665.1284 20.903151C1663.4832 22.144138 1662.641 24.005636 1662.2814 27.195755C1661.8374 31.134516 1662.0795 31.942748 1664.1354 33.385767C1668.3021 36.310389 1669.469 35.17814 1669.7921 27.897048Z M1677.1713 33.345012C1678.1771 32.434769 1679.0 30.776272 1679.0 29.659464C1679.0 27.637108 1675.397 23.0 1673.8257 23.0C1673.3716 23.0 1673.0 25.7 1673.0 29.0C1673.0 35.375961 1673.8959 36.309176 1677.1713 33.345012Z"/>
</svg>
