<?xml version="1.0" encoding="UTF-8"?>
<svg xmlns="http://www.w3.org/2000/svg" viewBox="82.46 15.04 25.37 78.07">
  <path d="M85.666667 88.333333C84.460029 87.126695 84.968365 83.982333 87.020324 79.960162C89.028486 76.023838 91.721405 74.405299 90.697583 77.75C90.402959 78.7125 89.708627 80.956432 89.154624 82.736515C87.791843 87.115307 89.419001 87.930814 92.887776 84.607517C95.358992 82.239942 95.794197 82.133578 97.556516 83.466475C101.1871 86.212399 102.30749 85.42038 101.75289 80.5C101.38976 77.278361 101.60377 76.0 102.50621 76.0C105.37179 76.0 105.82959 84.939257 103.09093 87.417713C101.30767 89.031534 100.97215 89.036958 98.0 87.5C95.104256 86.002552 94.661884 85.996015 93.080333 87.4273C91.3227 89.017935 86.892668 89.559335 85.666667 88.333333Z M90.703315 24.468575C89.715138 23.110859 88.252638 22.0 87.453315 22.0C85.674015 22.0 85.529546 20.392971 87.25 19.73839C90.26564 18.591029 95.0 22.761365 95.0 26.5651C95.0 27.925619 92.238853 26.578344 90.703315 24.468575Z M89.61501 70.535183C88.726754 69.179534 88.0 66.833106 88.0 65.320898C88.0 62.928172 88.183275 62.761419 89.412523 64.035714C90.189411 64.841071 91.516449 67.1875 92.361496 69.25C93.600773 72.27469 93.639937 73.0 92.563983 73.0C91.830303 73.0 90.503265 71.890832 89.61501 70.535183Z M88.396261 55.590257C87.771863 53.963101 90.138797 48.959625 92.434063 47.054723C94.535198 45.310936 94.559044 47.676782 92.468197 50.44113C91.660688 51.508751 91.0 53.421251 91.0 54.69113C91.0 57.226231 89.255245 57.828732 88.396261 55.590257Z M95.0 38.940983C95.0 37.156282 95.416577 36.139425 96.0 36.5C96.55 36.839919 97.0 38.216476 97.0 39.559017C97.0 40.901558 96.55 42.0 96.0 42.0C95.45 42.0 95.0 40.623442 95.0 38.940983Z M100.70044 55.266312C99.585054 53.313798 98.988578 47.0 99.919503 47.0C101.24737 47.0 103.0 50.342682 103.0 52.875242C103.0 54.9769 101.45363 56.584803 100.70044 55.266312Z M100.01365 69.372445C100.0354 66.391229 101.15454 63.0 102.11663 63.0C103.59905 63.0 103.09935 68.672659 101.5 70.0C100.25722 71.031418 100.00234 70.923806 100.01365 69.372445Z"/>
</svg>
