<?xml version="1.0" encoding="UTF-8"?>
<svg xmlns="http://www.w3.org/2000/svg" viewBox="1850.52 10.1 63.27 94.13">
  <path d="M1870.5472 98.052203C1868.3192 95.590193 1869.0479 92.11331 1872.4731 88.864213C1875.8047 85.703901 1875.8897 80.145849 1872.6638 76.39552C1871.3789 74.901716 1869.8838 73.953799 1869.3413 74.289039C1868.7989 74.624279 1866.1934 79.196389 1863.5514 84.449283C1858.7216 94.051904 1856.9474 95.638703 1855.0352 92.065741C1853.3936 88.998457 1853.8065 84.719818 1856.6048 75.801622C1859.0143 68.122381 1859.7629 66.944269 1866.59 60.087387C1874.418 52.225168 1876.0036 48.769739 1874.0911 43.739594C1873.1272 41.204375 1872.6324 41.0 1867.459 41.0C1860.2663 41.0 1858.3124 39.874029 1856.9912 34.967482C1855.6679 30.053042 1856.8306 25.221948 1860.4919 20.421743C1864.5714 15.073188 1869.2804 16.006603 1877.9301 23.878396C1879.8167 25.595278 1881.8417 26.994305 1882.4301 26.987345C1883.0185 26.980384 1886.5677 24.505384 1890.317 21.487345C1898.2226 15.123723 1901.8939 14.382253 1904.6523 18.592115C1907.4499 22.861792 1907.5237 30.736297 1904.8154 36.0C1902.0446 41.385049 1900.0874 41.714728 1898.5203 37.060369C1897.8834 35.168572 1896.8475 33.449165 1896.2184 33.239465C1895.5893 33.029766 1893.1453 34.65805 1890.7873 36.857876C1886.9513 40.436574 1886.5096 41.317541 1886.5911 45.227735C1886.7461 52.657854 1887.7181 54.815521 1891.8628 56.930007C1896.8174 59.457668 1905.9395 69.447731 1906.6818 73.158989C1906.9989 74.744435 1907.6502 76.283812 1908.1292 76.579826C1910.9162 78.302331 1907.331 92.5 1904.109 92.5C1902.6202 92.5 1902.349 92.096544 1898.8383 84.65732C1896.4718 79.642713 1890.9982 74.0 1888.5004 74.0C1884.6951 74.0 1883.6235 84.980326 1887.0088 89.28403C1889.8146 92.850998 1890.5624 97.288398 1888.6282 98.893603C1887.3491 99.955125 1886.404 99.792983 1883.1236 97.949297C1879.113 95.6952 1878.1616 95.755121 1874.4158 98.497779C1872.5142 99.890099 1872.1752 99.851056 1870.5472 98.052203Z M1876.1883 93.402641C1878.6003 92.15535 1879.805 92.045773 1881.6857 92.902641C1885.5921 94.682529 1886.1958 94.183871 1883.8977 91.075537C1880.9984 87.154021 1881.0166 78.847861 1883.9371 73.123284C1886.2513 68.587018 1888.1456 68.022933 1892.0275 70.714082C1896.2787 73.661226 1903.0 83.474756 1903.0 86.734533C1903.0 89.507001 1904.9504 87.781162 1905.5741 84.456862C1906.9537 77.102585 1900.7893 66.709645 1891.319 60.423626C1885.0582 56.267956 1884.2491 54.970419 1883.3969 47.71973C1882.5978 40.920997 1884.4939 37.19484 1890.9214 32.932206C1896.3785 29.313192 1897.3035 29.294416 1899.8977 32.75C1901.6356 35.06494 1902.121 35.262695 1902.9658 34.0C1905.4257 30.323204 1903.2969 19.834936 1899.9749 19.264424C1899.1637 19.125113 1894.9289 21.664226 1890.5642 24.906897C1881.7043 31.489218 1881.6863 31.489189 1874.5 24.881238C1872.85 23.364025 1870.2294 21.643602 1868.6763 21.058077C1862.4582 18.713673 1857.2285 29.598076 1861.5848 35.81756C1863.0245 37.873051 1863.6956 38.02061 1868.9178 37.429793C1874.6366 36.782786 1874.6726 36.795368 1875.9529 39.886359C1876.6607 41.595156 1877.2984 45.507264 1877.3699 48.579933C1877.488 53.65151 1877.2234 54.391963 1874.5 56.610864C1863.0722 65.921713 1858.9195 72.588075 1857.3968 84.066515C1856.4937 90.873955 1858.1644 89.997163 1861.0202 82.164846C1863.0598 76.570864 1867.9999 70.0 1870.1658 70.0C1872.4256 70.0 1877.876 77.306298 1878.5376 81.222392C1879.1514 84.855423 1878.8967 85.521448 1875.6049 88.892606C1873.6222 90.923052 1872.0 93.127852 1872.0 93.792163C1872.0 95.363387 1872.4836 95.318412 1876.1883 93.402641Z M1863.3775 33.541241C1862.401 30.996775 1864.9175 25.256609 1867.2927 24.610321C1869.7596 23.939101 1873.0 26.974093 1873.0 29.955796C1873.0 33.963671 1864.723 37.047745 1863.3775 33.541241Z M1869.15 29.5C1869.15 28.9775 1868.6663 28.38875 1868.075 28.191667C1867.4838 27.994583 1867.0 28.583333 1867.0 29.5C1867.0 30.416667 1867.4838 31.005417 1868.075 30.808333C1868.6663 30.61125 1869.15 30.0225 1869.15 29.5Z"/>
</svg>
