<?xml version="1.0" encoding="UTF-8"?>
<svg xmlns="http://www.w3.org/2000/svg" viewBox="3561.54 12.96 58.5 88.83">
  <path d="M3569.6667 88.333333C3568.3036 86.970232 3569.0748 86.0 3571.5214 86.0C3572.9082 86.0 3575.9189 84.7625 3578.2118 83.25C3581.8893 80.824161 3583.2361 80.520637 3589.6375 80.675071L3596.8944 80.850143L3598.0722 77.281154C3599.445 73.121733 3598.7663 64.222821 3596.8349 61.055996C3595.3602 58.638133 3592.4621 58.647769 3582.3459 61.104168C3577.8241 62.202136 3576.8749 62.148038 3574.6088 60.663213C3570.947 58.263971 3568.3729 52.629439 3566.0261 41.876839C3564.3732 34.303641 3564.2017 31.893718 3565.1115 29.027675C3566.1641 25.711806 3573.4773 17.0 3575.2082 17.0C3577.0568 17.0 3575.7058 19.438525 3571.4304 23.818546C3567.1066 28.248184 3566.887 28.742056 3567.3476 33.0C3567.8502 37.645367 3570.2009 47.979953 3571.5557 51.5C3571.9791 52.6 3573.2187 54.787834 3574.3105 56.361853C3576.5133 59.53768 3578.1065 59.560849 3588.7891 56.5724C3595.0517 54.820446 3596.3373 55.174439 3598.874 59.349224C3601.5084 63.684712 3602.2595 69.477628 3601.033 76.0C3599.8213 82.444032 3596.9939 85.477119 3593.0439 84.570419C3584.7201 82.659733 3584.2941 82.701599 3579.6672 85.88496C3575.4148 88.810662 3571.1806 89.847299 3569.6667 88.333333Z M3567.1311 95.657991C3565.6231 93.840917 3566.7862 92.90823 3569.6605 93.629649C3571.1925 94.01414 3574.0399 93.236659 3577.7529 91.420078C3584.3755 88.17992 3587.9585 88.059387 3593.3868 90.894145C3597.4958 93.03993 3599.1681 92.742979 3602.1243 89.342624C3607.965 82.6245 3608.7935 63.94158 3603.6841 54.170062C3601.2943 49.599621 3601.0714 48.450579 3601.9465 45.213492C3603.3764 39.92411 3605.7172 37.0 3608.5215 37.0C3612.2381 37.0 3613.5483 33.621633 3611.3124 29.80372C3609.2858 26.34323 3604.3755 22.291146 3603.3959 23.270777C3603.0456 23.62104 3602.3627 26.028921 3601.8784 28.621623C3601.394 31.214326 3600.756 33.577286 3600.4607 33.872646C3600.1653 34.168006 3598.508 33.875315 3596.7778 33.222222C3592.3904 31.566162 3592.1059 32.482347 3595.8184 36.312588C3599.4219 40.030488 3599.6237 41.263133 3597.4718 46.413367C3595.6337 50.81255 3592.9593 52.0 3584.8894 52.0C3579.9183 52.0 3578.506 51.596953 3576.5208 49.611728C3571.857 44.947926 3571.8416 33.253352 3576.4939 29.251563C3581.5958 24.863108 3582.8647 27.455729 3577.8895 32.10319C3575.1216 34.688827 3574.8546 35.421275 3575.4651 38.7544C3575.8424 40.81448 3576.9277 43.85 3577.8768 45.5C3579.4614 48.254581 3580.1059 48.524256 3585.7548 48.79651C3590.8659 49.042843 3592.2533 48.746694 3593.9535 47.04651C3596.8287 44.171302 3596.5073 40.890499 3593.0535 37.859838C3587.2493 32.766743 3588.0189 26.436299 3594.1605 28.754483C3598.1073 30.244236 3598.9966 29.682899 3599.0137 25.690983C3599.0336 21.033587 3600.0442 18.0 3601.5759 18.0C3604.4429 18.0 3611.9527 23.571099 3614.0029 27.218867C3617.3836 33.234139 3615.4311 38.364806 3608.802 40.885194C3604.9146 42.363149 3604.1601 47.436895 3606.8131 54.258176C3609.53 61.243892 3610.4576 73.996688 3608.7218 80.5C3607.051 86.759626 3602.6789 93.733542 3599.5244 95.170859C3597.5774 96.057944 3596.3461 95.86112 3593.0302 94.13274C3587.739 91.374805 3585.1504 91.444572 3579.404 94.5C3574.2454 97.24284 3568.8676 97.750261 3567.1311 95.657991Z M3573.0 27.174314C3573.0 25.952317 3577.4413 22.0 3578.8145 22.0C3580.883 22.0 3580.0991 23.793242 3577.0956 25.931906C3573.9521 28.170324 3573.0 28.459131 3573.0 27.174314Z"/>
</svg>
