<?xml version="1.0" encoding="UTF-8"?>
<svg xmlns="http://www.w3.org/2000/svg" viewBox="1521 16.74 28.15 88.62">
  <path d="M 1523,90.679443 C 1523,90.298468 1534.9128,80.742529 1536.8298,79.585774 1538.3152,78.689429 1545,85.267605 1545,87.625692 1545,89.914363 1543.2007,89.186052 1539.7635,85.506077 L 1536.5,82.012154 1531.1508,86.506077 C 1526.7149,90.232621 1523,92.134756 1523,90.679443 z M 1540.662,95.5 C 1538.5931,93.025 1536.5362,91 1536.091,91 1535.6458,91 1533.1932,92.838244 1530.6408,95.084987 1528.0884,97.331729 1526.0224,98.569229 1526.0498,97.834987 1526.0956,96.604582 1534.7696,88.841247 1536.6691,88.330526 1537.5154,88.10298 1545.1501,96.950353 1545.8064,98.919104 1546.6125,101.33755 1544.2029,99.736033 1540.662,95.5 z M 1531.9723,72.75 C 1525.8232,66.129541 1526.7203,64.707737 1533.2975,70.649787 L 1537.3374,74.299575 1540.6821,70.649787 C 1543.8209,67.224811 1546,66.036744 1546,67.750444 1546,69.021857 1538.3021,77 1537.0754,77 1536.4398,77 1534.1434,75.0875 1531.9723,72.75 z M 1532.3095,41.104586 C 1530.0881,39.249955 1529.5641,37.145538 1529.8445,31.204545 1530.1429,24.882008 1537.5713,20.772421 1542.3652,24.277806 1543.3264,24.980599 1544.5417,27.464959 1545.0661,29.798607 1547.1526,39.085184 1538.7794,46.506283 1532.3095,41.104586 z M 1532.1723,62.763912 C 1528.289,57.711371 1529.9547,55.985285 1534.0174,60.851802 1535.4629,62.583311 1537.1317,64 1537.7258,64 1538.3199,64 1540.128,62.352069 1541.7438,60.337931 1543.3622,58.320553 1544.9641,57.132839 1545.3105,57.693366 1546.1792,59.098888 1539.2393,67 1537.1361,67 1536.1966,67 1533.9629,65.09376 1532.1723,62.763912 z M 1541,39 C 1544.5157,35.484277 1543.3746,26.383109 1539.2895,25.357819 1535.7666,24.473622 1532.9011,27.6982 1532.2752,33.251008 1531.8394,37.117292 1532.0887,37.948718 1534.1079,39.363018 1537.1618,41.502082 1538.5722,41.427796 1541,39 z"/>
</svg>
