<?xml version="1.0" encoding="UTF-8"?>
<svg xmlns="http://www.w3.org/2000/svg" viewBox="2369.08 20.89 64.32 92.08">
  <path d="M2383.0406 103.18214C2376.616 100.71988 2372.0 94.40948 2372.0 88.088927C2372.0 85.473351 2372.3257 83.007592 2372.7239 82.609464C2373.122 82.211335 2375.2595 83.967092 2377.4739 86.511146C2380.7446 90.268873 2382.286 91.240865 2385.6896 91.691911C2389.6152 92.212153 2390.0102 92.034637 2391.9603 88.873562C2393.5318 86.326357 2393.9752 84.164212 2393.7708 80.046708L2393.5 74.593416L2389.0 74.310514C2383.8338 73.985733 2382.0584 72.338318 2379.415 65.416558C2377.7706 61.110724 2377.7692 60.573476 2379.3896 55.432918C2380.3315 52.444813 2381.6706 50.0 2382.3652 50.0C2383.0599 50.0 2385.1429 52.021458 2386.9941 54.492129C2390.2306 58.811716 2390.4334 58.917773 2392.2726 57.253317C2395.6409 54.205073 2396.3813 51.665269 2396.1136 44.07758C2395.6921 32.130717 2400.2731 25.078256 2407.5661 26.446423C2411.5332 27.19065 2413.6969 30.50938 2414.6237 37.271542C2415.0835 40.625596 2414.8333 41.893424 2413.4924 43.006343C2411.9687 44.270879 2411.5543 44.167797 2409.8877 42.109679C2407.1464 38.724235 2405.0 40.021682 2405.0 45.064245C2405.0 49.050718 2406.7768 52.588302 2411.2059 57.420346C2412.9335 59.305153 2413.0048 59.305651 2415.0583 57.447267C2416.209 56.405884 2417.8886 54.304228 2418.7908 52.776922C2420.8787 49.242528 2422.7909 49.231765 2423.5739 52.75C2423.9105 54.2625 2424.3844 56.240158 2424.6269 57.144796C2425.269 59.53909 2422.073 66.890581 2419.8797 68.064357C2418.8459 68.617663 2418.0 69.692035 2418.0 70.45185C2418.0 71.211666 2416.0875 72.481296 2413.75 73.273249L2409.5 74.713165L2409.8034 80.098978C2410.1499 86.249185 2412.4602 89.502901 2417.2238 90.549144C2419.693 91.091485 2420.7612 90.654562 2423.5323 87.968735C2428.3533 83.295979 2430.4697 84.386633 2429.6707 91.132194C2428.1038 104.36284 2416.7882 108.78825 2407.7178 99.717803L2403.748 95.747983L2401.286 98.893813C2396.5017 105.00707 2391.1092 106.27449 2383.0406 103.18214Z M2395.9472 100.52728C2397.5846 99.680585 2399.7363 97.110477 2401.0091 94.481128C2402.2268 91.965742 2403.5959 90.040966 2404.0515 90.203849C2404.5071 90.366732 2405.9194 92.033624 2407.1899 93.908052C2410.4629 98.736682 2414.1563 101.17404 2418.3816 101.29381C2422.6891 101.41591 2424.6298 99.762495 2426.4734 94.399594C2428.2413 89.257243 2427.496 88.404861 2423.887 91.441592C2417.7439 96.610694 2408.93 91.123238 2406.7983 80.802241C2406.1391 77.611008 2405.1274 74.937281 2404.5499 74.860625C2403.9725 74.783969 2401.8932 74.6346 2399.9294 74.528695L2396.3587 74.33614L2396.4135 80.41807C2396.5193 92.167835 2389.8888 97.534714 2380.9197 92.959035C2378.8678 91.912255 2376.2465 89.857558 2375.0945 88.393041L2373.0 85.730283L2373.0 88.387484C2373.0 92.456381 2380.1601 99.688966 2385.3394 100.85174C2391.3831 102.20858 2392.7785 102.1659 2395.9472 100.52728Z M2388.995 62.400038C2388.9978 61.79506 2387.561 59.32006 2385.8023 56.900038C2382.654 52.568134 2382.5936 52.538712 2381.9019 55.0C2380.6978 59.284728 2380.9371 62.977746 2382.6313 66.253886L2384.2626 69.408453L2386.6263 66.454226C2387.9264 64.829402 2388.9923 63.005017 2388.995 62.400038Z M2413.9195 70.483336C2414.6052 69.79575 2413.5685 67.392194 2410.7167 63.057734C2408.3975 59.532818 2405.9406 55.660472 2405.2568 54.452521C2402.4167 49.434809 2399.36 49.141569 2396.6765 53.629379C2393.0055 59.768802 2391.2632 62.588967 2389.1925 65.743216C2385.2955 71.679624 2386.2746 72.20905 2400.4527 71.831558C2407.3019 71.649201 2413.3619 71.042501 2413.9195 70.483336Z M2402.3869 43.815617C2402.7372 42.064207 2403.7632 39.814207 2404.6669 38.815617C2406.4183 36.880322 2410.0 36.332556 2410.0 38.0C2410.0 38.55 2410.3776 39.0 2410.839 39.0C2412.0725 39.0 2411.6002 32.860174 2410.166 30.25C2408.0955 26.481894 2402.8437 27.467805 2400.463 32.071521C2398.5268 35.815754 2398.4609 47.0 2400.375 47.0C2401.1313 47.0 2402.0366 45.567028 2402.3869 43.815617Z M2421.6501 59.999605C2421.9732 58.383763 2421.949 56.309586 2421.5963 55.390323C2421.0679 54.013452 2420.3495 54.40449 2417.5191 57.609468C2413.579 62.071042 2413.4166 62.69785 2415.5814 65.0899C2417.0834 66.749623 2417.2605 66.739464 2419.1126 64.887391C2420.185 63.814951 2421.3269 61.615447 2421.6501 59.999605Z"/>
</svg>
