<?xml version="1.0" encoding="UTF-8"?>
<svg xmlns="http://www.w3.org/2000/svg" height="160" width="50"><g transform="scale(1) translate(-2040.3883,0)"><path d="M2052.2215 97.640665C2044.0366 88.986379 2043.241 80.270357 2049.6393 69.352453L2052.2633 64.87498L2049.6219 59.480615C2047.8022 55.764209 2047.0102 52.59531 2047.0758 49.293125C2047.2144 42.312679 2053.4736 26.935233 2057.0868 24.698473C2059.5854 23.151676 2065.9561 24.854488 2068.7492 27.815692C2078.3828 38.029162 2083.0698 66.145701 2077.6156 81.004332C2073.6227 91.882064 2070.1449 97.829451 2066.2155 100.49956C2060.5634 104.34026 2058.0773 103.83238 2052.2215 97.640665Z M2061.5846 99.863037C2061.9811 99.221518 2060.9883 97.587414 2059.3062 96.113037C2054.9419 92.287687 2053.8538 89.590597 2053.8128 82.496724C2053.7825 77.234657 2054.3473 75.018883 2057.1007 69.598537L2060.4253 63.053888L2058.3443 56.65311C2056.6444 51.424667 2056.4207 49.247943 2057.1232 44.768515C2058.0202 39.0484 2059.9184 34.023821 2062.5801 30.324122C2064.0369 28.299211 2063.997 28.068788 2062.0057 27.00305C2060.3324 26.107543 2059.3855 26.172585 2057.6628 27.301365C2054.8577 29.139336 2050.2063 40.393245 2049.3936 47.308567C2048.8348 52.062537 2049.1091 53.223666 2052.0019 58.349396L2055.2347 64.077536L2051.6311 71.288768C2045.6628 83.23245 2046.4346 88.729844 2055.2762 97.25C2059.4172 101.24043 2060.4651 101.67448 2061.5846 99.863037Z M2067.7179 94.75C2067.4345 93.5125 2066.6384 91.11686 2065.9487 89.426356C2065.259 87.735852 2064.9707 85.260852 2065.3081 83.926356C2065.9578 81.356969 2071.1742 78.371608 2073.0204 79.512622C2074.414 80.373884 2077.0 78.198783 2077.0 76.165407C2077.0 75.29107 2075.1338 72.674185 2072.8529 70.350108C2068.8179 66.238718 2068.7418 66.037546 2070.0386 62.906719C2070.7717 61.136933 2072.6379 58.393402 2074.1857 56.809985C2078.2009 52.702498 2077.7581 51.225225 2071.71 48.550444C2063.789 45.047416 2063.4132 44.240865 2066.6378 37.666001C2068.9309 32.990323 2069.1478 31.882957 2068.033 30.539809C2066.8316 29.092157 2066.5376 29.108533 2064.7542 30.722411C2061.9198 33.287556 2060.058 37.319078 2058.9567 43.276153C2058.1313 47.741486 2058.3047 49.303214 2060.1477 54.00126C2062.7627 60.667081 2062.8222 63.288836 2060.4768 68.5C2057.026 76.167148 2056.0301 79.526448 2056.0298 83.5C2056.0294 88.675178 2057.716 91.891968 2061.9125 94.719985C2066.3263 97.694462 2068.3946 97.705156 2067.7179 94.75Z M2075.5123 45.75C2073.9885 40.241614 2071.7605 35.0 2070.943 35.0C2069.8619 35.0 2067.0 40.331771 2067.0 42.345837C2067.0 43.140674 2068.9125 44.737666 2071.25 45.894709C2076.4623 48.474774 2076.2679 48.481374 2075.5123 45.75Z M2073.0107 87.75C2075.3805 83.862911 2075.1247 82.5 2072.0257 82.5C2069.0654 82.5 2067.5237 84.966282 2068.3718 88.345223C2069.2558 91.86728 2070.6063 91.693992 2073.0107 87.75Z M2078.0 63.440983C2078.0 57.330414 2076.3864 56.235207 2073.615 60.464817C2071.4867 63.713015 2071.5757 64.91945 2074.1454 67.654728C2077.0957 70.795267 2078.0 69.806766 2078.0 63.440983Z"/></g><text text-anchor="middle" x="25" y="136">159</text><text text-anchor="middle" x="25" y="148">Sv06-046</text></svg>
