<?xml version="1.0" encoding="UTF-8"?>
<svg xmlns="http://www.w3.org/2000/svg" height="160" width="50"><g transform="scale(1) translate(-178.75513,0)"><path d="M 184.29309,100.5 C 184.58897,98.85 186.24197,92.55 187.96641,86.5 191.75569,73.205819 192.26175,59.876664 189.53103,45.289753 188.58272,40.224118 187.97558,35.573265 188.18182,34.954526 188.39706,34.308825 189.65311,34.925838 191.13007,36.4028 L 193.70333,38.976054 197.03317,34.096416 C 198.86458,31.412615 201.55731,28.511287 203.01701,27.649022 205.3939,26.24496 205.89701,26.239564 207.83551,27.597337 209.02598,28.431176 210,29.580924 210,30.152333 210,30.723743 210.9312,32.499003 212.06932,34.097357 213.20745,35.695711 213.96279,38.015178 213.74785,39.251728 213.35747,41.497589 213.35577,41.497319 212.16368,39 209.96263,34.389016 207.44862,30.685566 205.82391,29.660721 204.56064,28.86387 203.56063,29.357613 201.19741,31.945012 197.60329,35.880068 194.33676,41.670092 195.21525,42.548579 195.56039,42.893723 197.19567,42.175877 198.8492,40.953367 200.52837,39.711906 202.55353,38.998431 203.43647,39.337246 205.34697,40.070375 207.62168,44.711657 206.58068,45.752654 205.86577,46.467563 203.46921,43.907623 202.70384,41.611529 202.48891,40.966723 200.8347,41.651438 198.73107,43.255953 195.46597,45.746372 195.17565,46.35806 195.6477,49.752614 195.93431,51.813676 196.58083,54.80465 197.0844,56.399223 197.58798,57.993796 198,60.595419 198,62.180608 198,65.326718 200.40762,66.992376 202.26722,65.132783 203.66627,63.733732 209.48105,63.651896 211.99236,64.995913 214.37696,66.27211 218.30025,76.667564 217.5402,79.695868 216.66119,83.198094 215,82.446812 215,78.547053 215,74.810414 213.47495,70.531674 211.15165,67.75 207.87319,63.824713 198.00116,67.277586 199.4501,71.842773 199.94314,73.396224 200.94289,74 203.02207,74 205.52893,74 205.99571,74.46019 206.56457,77.49247 207.3773,81.82473 206.38375,85.220878 204.96152,82.971975 204.44953,82.162389 204.02373,80.289058 204.01531,78.809017 203.99808,75.780446 203.00117,74.76321 201.16343,75.898993 200.24824,76.464615 200.03706,79.719598 200.3592,88.295201 200.91608,103.11998 199.77532,104.51586 191.78637,98.785318 190.34352,97.750347 189.57362,98.025721 186.91394,100.52806 L 183.75513,103.5 184.29309,100.5 z M 197.63589,83.833716 C 196.63718,61.515792 194.20061,48.554855 193.82895,63.583333 193.73487,67.3875 193.57894,71.175 193.48243,72 193.00678,76.066055 190.00709,89.724214 188.36753,95.289078 187.93853,96.745158 188.27406,96.969519 190.17021,96.494486 191.51639,96.157236 193.34438,96.534505 194.5,97.388087 195.60186,98.201964 196.88902,98.484117 197.36628,98.016395 197.84274,97.549465 197.96406,91.167259 197.63589,83.833716 z M 207.64235,39.376194 C 206.69191,37.3831 206.1973,35.4706 206.54322,35.126194 207.47759,34.195903 211,38.925815 211,41.110784 211,44.088177 209.52629,43.326844 207.64235,39.376194 z M 209,81.125 C 209,80.09375 208.71875,77.84375 208.375,76.125 207.55081,72.004041 209.46355,72.022375 210.90217,76.149223 212.42092,80.505892 212.2745,83 210.5,83 209.675,83 209,82.15625 209,81.125 z"/></g><text text-anchor="middle" x="25" y="136">162</text><text text-anchor="middle" x="25" y="148">Gr07-008</text></svg>
