<?xml version="1.0" encoding="UTF-8"?>
<svg xmlns="http://www.w3.org/2000/svg" height="160" width="104.890684"><g transform="scale(1) translate(-1155.5243,0)"><path d="M1178.1768 94.865377C1175.8796 92.041335 1174.0 88.961908 1174.0 88.022206C1174.0 87.082505 1176.2456 83.115977 1178.9903 79.207701L1183.9806 72.101744L1180.7403 66.800872C1176.7589 60.287647 1174.9971 58.7575 1173.1982 60.25044C1170.6559 62.360411 1169.5485 65.593986 1168.5166 73.921154C1167.9427 78.552789 1166.963 82.51234 1166.3395 82.720158C1165.7161 82.927975 1164.1471 81.613456 1162.853 79.799004C1160.819 76.947309 1160.5034 75.347494 1160.5253 68.0C1160.5479 60.400585 1160.8929 58.839678 1163.7808 53.267679C1168.4919 44.177976 1172.3142 43.771906 1180.8211 51.457381C1185.6357 55.807059 1186.8504 54.885593 1186.6438 47.040247C1186.5026 41.679921 1186.4385 41.567929 1183.1228 40.890532C1172.2751 38.674344 1172.1927 31.483118 1182.9206 23.25C1189.522 18.183819 1190.1182 19.476326 1183.8544 25.274265C1180.7492 28.148419 1177.9692 31.239596 1177.6766 32.143547C1176.8028 34.842358 1181.2498 38.226818 1185.1553 37.835305L1188.5 37.5L1189.0424 44.0C1189.5614 50.218777 1188.8919 57.441398 1187.6846 58.648733C1187.0099 59.323452 1182.5855 56.283527 1177.9779 51.979375C1172.01 46.404477 1166.9798 49.677916 1163.5885 61.343409C1162.2576 65.921647 1162.2502 67.35676 1163.5262 73.455381C1165.644 83.577218 1167.0 83.991129 1167.0 74.515724C1167.0 62.707603 1171.8437 54.240425 1177.0153 57.008174C1179.3812 58.274375 1187.0 69.728205 1187.0 72.018837C1187.0 72.910478 1185.4911 75.408502 1183.647 77.570001C1181.8028 79.731501 1179.5309 82.982557 1178.5983 84.794571C1176.9169 88.061159 1176.9284 88.121836 1179.9513 91.938475C1181.6281 94.055609 1183.0 96.285552 1183.0 96.893904C1183.0 97.502257 1183.5125 98.0 1184.1389 98.0C1184.9274 98.0 1185.1067 96.113455 1184.7218 91.868526L1184.1658 85.737051L1188.7197 80.868526C1191.2244 78.190837 1194.0419 76.0 1194.9807 76.0C1195.9196 76.0 1198.9383 78.1375 1201.6889 80.75C1211.6626 90.22278 1210.2467 89.723307 1215.7253 85.701646C1218.3711 83.75947 1221.385 81.232073 1222.4229 80.085209C1225.2281 76.985523 1228.3441 77.488961 1231.9793 81.629162C1234.3571 84.337411 1234.9852 85.796495 1234.4543 87.379162C1233.3568 90.650778 1233.3846 96.276819 1234.5 96.629009C1235.05 96.802673 1237.0227 93.788409 1238.8838 89.930646L1242.2677 82.916532L1239.3166 79.208266C1234.5887 73.267327 1234.5798 72.508996 1239.1595 65.765125C1243.2554 59.733641 1243.3264 59.684851 1244.9996 61.751164C1245.9312 62.90162 1247.2767 66.591422 1247.9895 69.950723C1248.7024 73.310025 1249.6276 76.269838 1250.0454 76.528086C1251.1712 77.223832 1253.0 71.262885 1253.0 66.89783C1253.0 62.528416 1251.4832 58.481155 1248.6348 55.25C1246.0828 52.35498 1244.4849 52.414164 1240.7685 55.54137C1239.1073 56.939123 1237.2424 57.91623 1236.6241 57.712717C1235.2845 57.271754 1234.1633 42.758686 1235.2445 39.854914C1235.7226 38.570837 1236.796 37.920899 1238.2445 38.038407C1242.3076 38.368025 1243.0372 38.032459 1244.0502 35.367918C1245.3226 32.021428 1244.5349 29.57697 1241.1829 26.468802C1237.398 22.959241 1235.3584 23.275916 1234.5667 27.496056C1234.206 29.418886 1232.8003 32.231386 1231.4429 33.746056L1228.975 36.5L1224.9539 32.083567C1222.2636 29.128733 1220.6007 27.999268 1219.9293 28.670727C1218.3432 30.256844 1220.6503 35.118383 1224.594 38.5C1227.9302 41.360795 1228.0944 41.808786 1228.1325 48.154616C1228.1718 54.705331 1226.9005 59.0 1224.9219 59.0C1224.3677 59.0 1221.4562 57.144208 1218.452 54.876017C1212.1077 50.086021 1210.3178 50.095671 1202.0604 54.964383C1199.1998 56.651062 1196.441 57.772522 1195.9296 57.456519C1195.4183 57.140515 1195.0 52.89305 1195.0 48.017708C1195.0 40.179936 1195.2723 38.826114 1197.3514 36.326725C1200.4539 32.597119 1202.3145 28.981143 1201.5331 28.199723C1201.1871 27.853782 1200.3138 28.004823 1199.5923 28.53537C1193.6166 32.929736 1192.7427 33.327456 1191.2005 32.354671C1188.9435 30.930995 1187.9152 26.280123 1189.2229 23.410044C1190.7703 20.014009 1191.6664 20.417385 1191.2125 24.305592C1190.5872 29.661498 1192.9181 30.641275 1197.5423 26.966367C1199.6475 25.293389 1202.0742 24.070356 1202.935 24.248517C1205.5524 24.790261 1204.5467 30.411714 1200.932 35.445196C1197.9804 39.555172 1197.653 40.693606 1197.7283 46.584246C1197.7744 50.192911 1198.0145 53.347829 1198.2618 53.595175C1198.5092 53.842521 1201.2424 52.713604 1204.3356 51.08647C1210.7166 47.729868 1213.4701 47.974806 1219.9667 52.476931C1225.364 56.217222 1226.0 55.854747 1226.0 49.038643C1226.0 43.450413 1225.7593 42.839 1222.1547 39.270267C1217.9318 35.089285 1216.1583 29.441157 1217.9925 26.014014C1219.5026 23.192423 1220.7551 23.48128 1224.4361 27.5C1228.8729 32.343796 1230.4978 32.028095 1232.5237 25.928686C1233.4501 23.139464 1234.7944 20.632386 1235.511 20.357403C1237.1829 19.715834 1244.5929 24.370869 1245.957 26.919661C1247.4857 29.776145 1247.2286 36.228557 1245.487 38.715105C1244.5871 39.999933 1242.6623 41.001804 1240.737 41.187611L1237.5 41.5L1237.7046 47.371249C1237.8171 50.600436 1238.1234 53.456781 1238.3853 53.718682C1238.6473 53.980584 1240.1854 53.412853 1241.8034 52.45706C1246.0748 49.933869 1249.4205 51.138449 1252.3656 56.259933C1255.8192 62.265478 1256.192 65.601123 1254.2247 72.891931C1252.6468 78.73997 1250.0212 82.354523 1248.4746 80.807963C1248.1329 80.46625 1247.1761 76.882166 1246.3483 72.843333C1245.5205 68.8045 1244.4682 65.112183 1244.0098 64.638184C1243.5514 64.164186 1241.9221 65.671685 1240.3891 67.988183C1237.6961 72.057564 1237.6587 72.289614 1239.2832 74.849999C1243.054 80.793277 1244.0265 83.817962 1242.9331 86.202168C1239.191 94.361783 1236.3293 98.524245 1234.2597 98.818283C1230.8269 99.305984 1229.2974 95.158936 1231.0035 89.989351C1232.2456 86.225918 1232.1828 85.82346 1229.9895 83.488771C1228.7035 82.119947 1227.0413 81.0 1226.2956 81.0C1225.5499 81.0 1222.0223 83.475 1218.4564 86.5C1214.8906 89.525 1211.3589 92.0 1210.6083 92.0C1209.8576 92.0 1206.0567 89.049533 1202.1617 85.443406C1196.1026 79.833607 1194.7966 79.038474 1193.1176 79.937085C1188.9554 82.164612 1187.0 85.99952 1187.0 91.934859C1187.0 101.43771 1184.2627 102.34686 1178.1768 94.865377Z M1206.1385 75.551137C1198.8603 67.994353 1198.8861 66.015769 1206.3317 60.725183C1211.9011 56.767795 1212.2825 56.648174 1214.8092 58.066394C1218.1632 59.948914 1222.0 65.586036 1222.0 68.631165C1222.0 70.724933 1213.7057 81.0 1212.0156 81.0C1211.6695 81.0 1209.0249 78.548011 1206.1385 75.551137Z M1213.3658 76.413131C1214.2069 76.090352 1216.0599 74.299217 1217.4834 72.432829C1219.9066 69.255927 1219.9779 68.858018 1218.6018 66.196866C1216.6391 62.401399 1214.5029 60.75 1211.556 60.75C1208.7187 60.75 1203.136 64.829703 1203.0553 66.962148C1203.0127 68.087431 1210.623 77.0 1211.6264 77.0C1211.7419 77.0 1212.5246 76.735909 1213.3658 76.413131Z"/></g><text text-anchor="middle" x="52.445342" y="136">308</text><text text-anchor="middle" x="52.445342" y="148">Hr12-022</text></svg>
