<?xml version="1.0" encoding="UTF-8"?>
<svg xmlns="http://www.w3.org/2000/svg" height="160" width="79.842585"><g transform="scale(1) translate(-2181.1574,0)"><path d="M 2210.4725,96.604889 C 2209.3876,95.837578 2207.1718,92.736441 2205.5485,89.713473 L 2202.597,84.217167 2205.5485,80.496193 C 2211.6582,72.793669 2211.5031,73.596969 2207.9017,68.304683 2204.1385,62.774765 2203.2639,62.03634 2200.4529,62.015313 2198.3178,61.999341 2191.7349,68.216139 2190.6745,71.25 2188.9257,76.252988 2185.5008,69.861477 2186.466,63.396349 2187.1646,58.716858 2189.0496,56.344933 2194.3126,53.522596 2198.3764,51.343324 2198.8366,49.518514 2196.4743,44.95034 2195.3137,42.705977 2194.2505,42 2192.031,42 2184.0462,42 2184.258,28.808397 2192.3278,23.52089 2198.3533,19.572826 2201.8116,21.400921 2200.0929,27.625563 2199.5216,29.694652 2199.2331,31.566433 2199.4517,31.785077 2200.2919,32.625189 2203.6322,30.881046 2206.6958,28.002612 2210.5636,24.368569 2211.7731,24.247594 2212.5681,27.415245 2213.1985,29.926874 2210.4813,37 2208.8861,37 2207.8813,37 2207.6951,45.225414 2208.5977,49.738549 2208.9948,51.723856 2211.2328,54.520443 2215.2644,58.069276 L 2221.3335,63.411454 2226.9773,57.275125 C 2231.9318,51.888278 2232.7627,50.37764 2233.7801,44.906878 L 2234.9391,38.67496 2231.4695,34.834599 C 2227.7022,30.664587 2227.2193,28.445203 2229.4257,25.44113 2230.8173,23.546455 2230.919,23.563804 2233.6757,26.166055 2238.1045,30.346762 2240.1894,30.203935 2241.4992,25.630087 2242.5905,21.819541 2245.1934,19 2247.6199,19 2248.3006,19 2250.4646,20.515635 2252.4288,22.368077 2255.3548,25.127652 2256,26.451166 2256,29.693763 2256,33.875045 2252.925,38 2249.808,38 2247.4568,38 2246.3563,39.895244 2244.9112,46.433284 2243.7828,51.538174 2243.8022,52.430844 2245.0499,52.826932 2245.8474,53.080132 2248.2087,55.063915 2250.2972,57.235339 2253.8958,60.976971 2254.0788,61.479207 2253.7972,66.841691 2253.5368,71.800204 2253.228,72.538703 2251.3005,72.81294 2249.7073,73.039609 2248.471,72.164883 2246.8158,69.639945 2245.559,67.722682 2243.2471,65.395779 2241.6783,64.469049 2238.8508,62.798789 2238.8008,62.813387 2235.9536,66.142043 2234.3738,67.98892 2233.063,70.056037 2233.0406,70.735637 2233.0183,71.415237 2234.5585,74.908976 2236.4633,78.499502 2240.3154,85.760714 2240.2714,86.298993 2235.2566,93.25 2232.8552,96.578567 2231.132,98 2229.4982,98 2226.3668,98 2226.0361,96.477348 2227.8064,90.211575 L 2229.3006,84.92315 2226.4632,81.961575 C 2222.8843,78.225984 2221.1053,78.236881 2217.4841,82.016576 2214.6917,84.931202 2214.635,85.186317 2215.8062,89.565193 2217.674,96.548837 2215.1337,99.901671 2210.4725,96.604889 z M 2233.9135,91.802997 C 2235.6111,89.494646 2237,86.757865 2237,85.721262 2237,84.684659 2235.425,81.1492 2233.5,77.864688 2231.575,74.580176 2230,71.236163 2230,70.433549 2230,68.303886 2237.1927,61.00357 2239.2928,61.001644 2240.2789,61.00074 2243.278,63.050611 2245.9574,65.556912 2250.3603,69.675355 2250.8897,69.92297 2251.4586,68.130316 2252.7082,64.193415 2246.7184,54.819914 2244.0192,56.488129 2243.4105,56.864357 2242.305,56.668079 2241.5626,56.051957 2240.4355,55.116507 2240.5226,53.514061 2242.091,46.336847 2244.2464,36.473809 2245.1559,35 2249.0873,35 2255.9085,35 2254.8266,25.195 2247.7274,22.674694 2246.3151,22.173342 2245.4622,23.159055 2243.5324,27.522694 2242.2001,30.535213 2240.5228,32.998318 2239.805,32.996262 2239.0873,32.994206 2236.9867,32.069957 2235.1372,30.942375 2233.2877,29.814793 2231.5637,29.102934 2231.3062,29.360467 2230.4816,30.185058 2232.8402,33.665277 2235.3286,35.29576 L 2237.7385,36.874754 2236.1192,44.78437 C 2234.578,52.312798 2234.1834,53.03523 2227.9295,59.774799 L 2221.3591,66.855614 2213.9681,60.472492 C 2209.9031,56.961776 2206.2469,53.196483 2205.8432,52.105176 2205.4395,51.013869 2205.0122,47.432327 2204.8936,44.146193 2204.7065,38.96229 2205.0302,37.752792 2207.339,35.008977 2211.8661,29.628811 2210.6986,28.48176 2204.7852,32.5 2200.7972,35.209895 2197.4135,35.736112 2196.7474,33.75 2196.5169,33.0625 2196.6795,30.937634 2197.1089,29.028075 2198.0436,24.870733 2197.835,24.573605 2194.5592,25.395781 2191.2096,26.236479 2188.8,30.090072 2188.8,34.606272 2188.8,38.633064 2190.3987,40.277478 2193.5883,39.53148 2197.0425,38.723612 2198.9585,41.078611 2199.9843,47.392731 2201.0282,53.818525 2200.7503,54.998081 2198.191,55.003738 2193.0338,55.015139 2186.9039,62.252816 2188.6931,66.218198 2189.3964,67.777029 2190.182,67.351922 2194.8113,62.907422 2199.9302,57.992949 2200.2317,57.853326 2203.131,59.054261 2206.0591,60.267137 2214,70.921983 2214,73.638016 2214,74.320206 2212.2,76.958099 2210,79.5 2207.8,82.041901 2206,84.701753 2206,85.410781 2206,87.2274 2211.7803,95 2213.1313,95 2213.8767,95 2214.0061,93.915476 2213.5191,91.75 2213.1172,89.9625 2212.5844,87.6 2212.3351,86.5 2212.0221,85.11825 2213.3762,82.889056 2216.7157,79.288698 L 2221.5493,74.077395 2226.1615,78.019781 C 2231.5547,82.629773 2232.5449,85.451614 2230.4928,90.3631 2227.5836,97.325601 2229.3159,98.054763 2233.9135,91.802997 z"/></g><text text-anchor="middle" x="39.9212925" y="136">309</text><text text-anchor="middle" x="39.9212925" y="148">Hr02-050</text></svg>
