<?xml version="1.0" encoding="UTF-8"?>
<svg xmlns="http://www.w3.org/2000/svg" height="160" width="65.811312"><g transform="scale(1) translate(-827.89874,0)"><path d="M 864.13996,99.426178 859.77992,96.755402 855.53043,98.877701 C 853.19321,100.04497 850.04948,101 848.54438,101 845.30752,101 834.90397,98.156265 833.56667,96.905953 831.6177,95.083763 834.05203,94.873209 839.32976,96.407485 847.32066,98.730505 851.73087,98.458507 856.1911,95.367569 L 859.9897,92.735137 863.48802,95.117569 C 865.41209,96.427906 866.98941,97.8375 866.99317,98.25 866.99693,98.6625 869.00934,99 871.4652,99 881.97404,99 887.76209,86.670377 885.07782,70.002593 884.48499,66.321475 883.15926,62.438208 882.00828,61.011451 878.82895,57.070353 878.12697,54.684304 877.68401,46.313038 877.2522,38.152615 878.05272,35 880.55662,35 881.37406,35 882.53923,33.910617 883.14589,32.579148 885.16756,28.142064 878.3026,21.518696 873.56593,23.336327 872.75413,23.647845 871.99072,25.542835 871.81369,27.685857 871.45837,31.987383 869.33899,33.054566 865.37007,30.930463 864.06819,30.233718 862.70509,29.961572 862.34097,30.325696 861.18174,31.484928 865.21625,35 867.70601,35 870.72586,35 873,39.954505 873,46.533623 873,53.019313 871.69134,55 867.40618,55 864.96327,55 862.70137,55.949363 860.03055,58.095694 854.72462,62.359653 853.03427,61.539571 850.06524,53.260985 847.72562,46.737371 847.57522,44.985275 848.21002,31.647806 848.39293,27.80486 848.03111,26.495595 846.47048,25.353214 844.02245,23.561249 840.10536,24.369874 837.75,27.153425 835.20852,30.156933 835.36538,37.589996 838,39 839.3571,39.726296 840.00468,41.103774 840.01455,43.285184 840.03231,47.208051 842.28854,53.904744 845.71999,60.219403 847.59308,63.66634 849.1884,65.237102 851.63678,66.045143 854.69924,67.055845 855.51177,66.833924 861.03645,63.477858 867.42728,59.595633 869.70457,59.449873 874.53359,62.613965 877.09938,64.295137 880.00311,71.640659 879.99442,76.428139 879.97242,88.545125 871.47758,95.036567 863.28087,89.2 859.4126,86.445549 858.88838,86.457406 854.55615,89.397336 851.60371,91.400912 850.41832,91.658189 847.33913,90.963718 842.99245,89.983383 838.63361,86.967617 838.17233,84.621449 837.90819,83.277973 838.56535,83.44393 841.56188,85.477428 846.29194,88.687334 850.66911,88.695232 854.99774,85.50167 857.26347,83.830064 858.61134,83.371142 859.07096,84.114823 859.55079,84.891203 859.88861,84.83417 860.19145,83.925653 860.49992,83.000235 861.27913,83.279127 862.89236,84.892358 864.13941,86.139405 866.44188,87.606683 868.00898,88.152975 872.5281,89.728348 874.66687,87.921648 876.0245,81.381969 877.93684,72.17031 874.20981,62.992551 868.56144,63.004281 867.42765,63.006636 864.475,64.354709 862,66 856.65982,69.549957 851.45428,69.931779 847.78167,67.042903 844.91818,64.790484 839.56481,54.130706 837.82595,47.218789 837.17303,44.623455 836.04576,41.906033 835.32091,41.180073 832.17765,38.031994 832.47157,31.015289 835.98821,25.25 837.78693,22.301125 838.42087,22 842.83031,22 846.19371,22 848.17355,22.53883 849.2604,23.75 851.63901,26.400687 852.38709,32.287523 850.87626,36.465646 849.75061,39.578577 849.80436,41.025846 851.25036,46.539032 852.17909,50.080028 853.67221,54.096284 854.5684,55.464045 L 856.19784,57.950884 859.61255,55.346354 C 861.49065,53.913863 864.43525,52.453862 866.15611,52.101908 869.97905,51.320033 870.95107,48.932646 869.7651,43.237825 869.04496,39.779829 868.27584,38.719247 865.68874,37.616704 860.77117,35.520981 857.6286,31.615897 858.39675,28.555363 859.04798,25.960657 862.25379,24.983593 863.5,27 864.38856,28.437714 868.97219,28.234829 869.14806,26.75 869.22949,26.0625 869.38787,24.825 869.5,24 869.61213,23.175 869.77051,21.880247 869.85194,21.122771 869.96438,20.076911 871.24826,19.865483 875.18797,20.24404 879.58939,20.666961 880.89401,21.307845 883.79299,24.471179 886.65474,27.593885 887.11141,28.711734 886.60315,31.349909 886.26936,33.082459 884.82203,35.456833 883.38685,36.626295 880.95576,38.607283 880.78546,39.286213 880.89482,46.561129 880.97232,51.716823 881.51738,55.071279 882.49919,56.434833 883.31704,57.570675 884.68813,59.46572 885.54604,60.646044 888.11309,64.177793 889.65838,79.891572 888.06058,86.215939 885.75008,95.3613 880.55835,100.5921 872.83515,101.55594 869.29969,101.99715 867.69572,101.60428 864.13996,99.426178 z"/></g><text text-anchor="middle" x="32.905656" y="136">382y</text><text text-anchor="middle" x="32.905656" y="148">Hr02-022</text></svg>
