<?xml version="1.0" encoding="UTF-8"?>
<svg xmlns="http://www.w3.org/2000/svg" height="160" width="100.964147"><g transform="scale(1) translate(-1303,0)"><path d="M1328.5328 99.647654C1325.902 97.723976 1327.0497 91.266872 1330.5653 88.212757C1333.8239 85.381877 1333.399 82.985995 1328.5003 76.56828C1326.5751 74.046208 1325.0 71.591688 1325.0 71.113792C1325.0 70.635895 1324.3718 69.723503 1323.6039 69.086252C1322.4837 68.156527 1321.7548 68.660731 1319.9145 71.638276C1318.0298 74.687817 1317.5213 77.263186 1317.0606 86.09302C1316.7523 92.002265 1316.1819 97.154347 1315.7931 97.54209C1312.8908 100.43667 1308.0 91.449248 1308.0 83.221339C1308.0 73.520698 1314.4191 56.451643 1318.9864 54.007301C1321.4561 52.68553 1325.1803 54.433387 1329.4395 58.913193C1333.0768 62.739 1333.9635 61.718904 1333.9847 53.684259C1334.0041 46.318972 1332.9015 44.105017 1329.5345 44.748652C1327.5552 45.127019 1326.1075 44.342781 1322.9424 41.177657C1319.1992 37.434467 1318.9396 36.828045 1319.5749 33.310908C1320.9467 25.7163 1324.7634 21.0 1329.5375 21.0C1332.0738 21.0 1333.6833 22.023077 1337.4032 26.0C1339.9755 28.75 1342.3372 31.0 1342.6513 31.0C1342.9654 31.0 1345.4303 29.151469 1348.1288 26.892154C1352.3338 23.371572 1353.2623 22.972805 1354.6239 24.102826C1355.8106 25.087665 1356.0834 26.570113 1355.7019 29.960671C1355.2703 33.79664 1354.4667 35.156156 1350.5157 38.734682C1346.1038 42.73072 1345.7847 43.370642 1344.8536 50.089962C1343.5103 59.783009 1343.9252 60.588988 1348.9404 58.030387C1351.1294 56.913674 1353.7593 56.0 1354.7846 56.0C1355.81 56.0 1359.5162 58.483067 1363.0207 61.517927C1366.5252 64.552787 1369.8666 66.895082 1370.4462 66.723027C1372.582 66.088988 1376.205 56.859476 1377.095 49.784974C1377.9256 43.183251 1377.8223 42.265527 1375.9937 40.0C1371.7561 34.749948 1369.6933 29.448532 1370.4072 25.642788C1371.0991 21.954637 1375.0 18.355952 1375.0 21.405799C1375.0 22.217691 1374.55 23.160081 1374.0 23.5C1371.7198 24.90927 1373.0022 30.849747 1376.606 35.570911L1380.212 40.295014L1379.5082 48.74429C1378.4571 61.362079 1374.0894 70.0 1368.7603 70.0C1368.0062 70.0 1364.403 67.536914 1360.7533 64.526475L1354.1175 59.05295L1350.6021 60.521798C1348.6686 61.329664 1346.147 62.999221 1344.9986 64.231924C1343.2612 66.096751 1342.7604 66.230299 1342.0167 65.027029C1339.6895 61.261554 1342.5794 40.370046 1345.6648 38.654383C1349.4311 36.560113 1353.0 32.114768 1353.0 29.517906C1353.0 26.646348 1353.2056 26.594049 1346.355 31.208183C1342.3304 33.91885 1339.0 34.82338 1339.0 33.205759C1339.0 31.4039 1331.0084 24.0 1329.0635 24.0C1326.4121 24.0 1323.0088 29.400048 1323.0037 33.615141C1323.0017 35.328469 1323.9563 37.946012 1325.1251 39.431904C1326.9744 41.782859 1327.7339 42.051802 1330.9769 41.503908L1334.7036 40.874289L1335.3235 49.687145C1335.9571 58.693273 1335.2143 65.108395 1333.4743 65.658471C1332.9384 65.827872 1330.253 63.949017 1327.5067 61.483237C1324.7603 59.017456 1321.9996 57.0 1321.3717 57.0C1320.7438 57.0 1319.4076 58.2375 1318.4024 59.75C1312.6732 68.370868 1310.547 75.768356 1311.2569 84.611542C1311.8707 92.258219 1313.9316 95.746883 1314.1152 89.45C1314.1785 87.2775 1314.1521 84.723619 1314.0565 83.77471C1313.7435 80.668236 1317.1268 70.373761 1319.3961 67.527802C1321.0026 65.513125 1322.1531 64.925963 1323.5582 65.403717C1326.7298 66.482164 1337.9609 83.817247 1337.9909 87.680449C1337.9959 88.329696 1337.0326 89.004696 1335.8503 89.180449C1333.6067 89.513971 1329.1932 94.526561 1330.2302 95.563537C1330.5582 95.891485 1331.9071 95.451749 1333.2279 94.586346C1335.3948 93.166553 1336.1984 93.161128 1341.4569 94.530802C1344.6622 95.365655 1347.4867 95.846668 1347.7336 95.599719C1348.8728 94.460533 1346.5706 90.897716 1343.4484 88.968091C1341.5518 87.795926 1340.0 86.433661 1340.0 85.940837C1340.0 85.448012 1342.7684 80.751111 1346.1521 75.503277C1353.4143 64.240074 1355.0322 63.398344 1361.2768 67.634861C1363.5996 69.210687 1366.175 70.860578 1367.0 71.301285C1375.7215 75.9602 1375.4349 75.873084 1377.1137 74.375844C1379.1429 72.566211 1382.9724 59.834077 1383.6 52.810998C1384.1024 47.189853 1385.5015 41.231567 1386.7497 39.397827C1387.1624 38.791633 1389.1924 37.500545 1391.2608 36.528744C1393.6088 35.425642 1395.2506 33.849854 1395.6309 32.334346C1396.5566 28.646303 1395.2959 28.34235 1392.0342 31.467188C1389.1925 34.189777 1389.0008 34.230551 1386.5606 32.631635C1383.5861 30.682689 1382.3521 26.73926 1383.6063 23.191282C1385.076 19.034133 1386.9979 19.302142 1387.0153 23.666667C1387.0391 29.627631 1388.1747 30.670014 1391.7585 28.02043C1395.4006 25.327673 1398.3808 25.682166 1398.8329 28.861928C1399.4098 32.919839 1398.1406 35.407099 1393.915 38.5C1391.6607 40.15 1389.3879 42.29485 1388.8642 43.266333C1388.3406 44.237816 1387.0715 50.185819 1386.0441 56.484117C1385.0006 62.881044 1383.0837 70.321762 1381.7011 73.341689C1380.1055 76.826975 1379.5358 79.236747 1380.0977 80.123905C1380.5771 80.880757 1380.9763 83.225 1380.9847 85.333333C1381.003 89.929497 1378.875 89.932714 1377.9353 85.337944C1377.0904 81.2068 1376.2026 80.0 1374.0084 80.0C1371.5855 80.0 1370.5505 83.307434 1372.1646 85.891974C1373.7047 88.358074 1372.5262 89.827673 1370.202 88.339191C1368.9229 87.519984 1368.5 85.819827 1368.5 81.497006C1368.5 76.79063 1368.1372 75.540828 1366.5043 74.622445C1365.4067 74.0051 1363.3122 72.7125 1361.8499 71.75C1358.4023 69.480662 1353.7474 69.516614 1351.655 71.828741C1350.7447 72.834548 1350.0 73.989573 1350.0 74.395463C1350.0 74.801352 1348.875 76.608395 1347.5 78.411113C1344.2674 82.649274 1344.3496 84.391048 1348.0 89.0C1353.5083 95.954786 1351.1791 101.03294 1343.6925 98.391496C1338.2535 96.472517 1335.0029 96.648614 1332.5024 98.997705C1330.6673 100.72174 1330.1235 100.81078 1328.5328 99.647654Z M1328.6122 36.79794C1325.4601 34.023652 1325.8993 31.067222 1329.7322 29.258384C1331.9557 28.20906 1332.65 28.278263 1334.2282 29.706541C1336.6035 31.856116 1336.1718 35.829777 1333.3615 37.68451C1331.4446 38.94965 1330.9525 38.857793 1328.6122 36.79794Z M1333.0 33.5C1333.0 32.675 1332.325 32.0 1331.5 32.0C1329.9384 32.0 1329.516 33.1827 1330.6667 34.333333C1331.8173 35.483967 1333.0 35.061574 1333.0 33.5Z M1378.5952 32.832481C1376.6182 30.00991 1376.5253 24.031427 1378.4182 21.442702C1380.2428 18.947476 1381.5196 20.160512 1380.0194 22.963807C1378.2976 26.180896 1379.1446 30.344096 1381.7538 31.488744C1384.2276 32.57406 1384.2322 34.325786 1381.7624 34.804987C1380.8978 34.97273 1379.4726 34.085102 1378.5952 32.832481Z"/></g><text text-anchor="middle" x="50.4820735" y="136">406s</text><text text-anchor="middle" x="50.4820735" y="148">Pr08-027</text></svg>
