<?xml version="1.0" encoding="UTF-8"?>
<svg xmlns="http://www.w3.org/2000/svg" height="160" width="60.219796"><g transform="scale(1) translate(-534.76763,0)"><path d="M 560.25784,89.313954 C 556.14959,86.650114 551.90086,80.255006 550.62408,74.813381 550.06501,72.430628 549.62648,72.184215 546.74686,72.634728 542.48243,73.301892 539.66162,71.184851 539.77068,67.399041 539.94621,61.305533 546.25737,50.804961 548.79981,52.376278 549.30902,52.690988 550.29586,54.98507 550.99279,57.474239 551.68971,59.963408 552.73932,62 553.32524,62 553.91117,62 555.60332,60.838101 557.08559,59.418003 558.62481,57.943336 560.04513,57.264012 560.39741,57.834001 560.73664,58.382899 559.1372,60.438642 556.84308,62.40232 551.97818,66.566495 550.86219,66.151104 548.99468,59.480998 548.30465,57.016449 547.3887,55 546.95925,55 545.69666,55 542,63.397789 542,66.266034 542,69.482718 544.54581,71.12318 547.68534,69.929533 550.53433,68.846349 551.22944,69.579928 555.33255,78 558.75259,85.018345 563.32033,89 567.95172,89 573.73345,89 582.84647,74.791788 585.5978,61.487794 587.57634,51.92059 587.11457,40.349987 584.60112,36.513978 581.8979,32.388352 578.39687,31.235682 574.81429,33.291796 571.16114,35.38842 566.03871,35.496518 563.44113,33.531803 562.37351,32.724295 560.16607,32.049295 558.53571,32.031803 555.75068,32.001923 555.6738,31.897628 557.26431,30.307116 558.85483,28.716604 559.29831,28.755613 564.59798,30.952205 569.94744,33.169433 570.38258,33.205217 573.02367,31.645089 581.90252,26.400226 589.9918,34.199184 589.98742,48 589.98527,54.750349 586.40486,68.66772 582.79332,75.964061 581.03355,79.519295 577.51788,84.581795 574.98071,87.214061 569.48868,92.911939 566.47062,93.342399 560.25784,89.313954 z M 558.2348,38.795592 C 558.76212,37.213639 563.82466,35.907283 564.59536,37.154292 565.38324,38.429116 565.12686,38.59325 561.16964,39.347431 558.82106,39.795033 557.95588,39.632353 558.2348,38.795592 z M 561.91843,75.75 C 558.44747,70.982358 558.3215,66.491349 561.52174,61.60716 564.03321,57.774171 564.49487,59.137342 562.47578,64.424245 L 560.73974,68.970001 563.35277,72.395854 C 565.99011,75.853593 568.50898,76.265981 571.71224,73.764463 573.56932,72.314209 576.83226,62.80976 578.01519,55.404883 579.54347,45.838291 577.08893,39.431306 572.90932,42.077207 572.13419,42.567899 570.28906,42.976265 568.80902,42.984687 567.32898,42.993109 565.83992,43.45 565.5,44 564.6953,45.302027 560,45.302027 560,44 560,43.45 560.87344,43 561.94098,43 563.00852,43 564.16008,42.55 564.5,42 564.83992,41.45 566.07203,41 567.23802,41 568.40401,41 570.89667,40.443611 572.77727,39.763579 575.99285,38.600808 576.33959,38.69348 578.59826,41.319343 581.87919,45.13365 581.81324,52.730592 578.40211,63.91393 576.38279,70.534242 574.9614,73.273894 572.01976,76.215533 569.9383,78.29699 567.51018,80 566.62392,80 565.73766,80 563.6202,78.0875 561.91843,75.75 z"/></g><text text-anchor="middle" x="30.109898" y="136">452</text><text text-anchor="middle" x="30.109898" y="148">Gv02-020</text></svg>
