<?xml version="1.0" encoding="UTF-8"?>
<svg xmlns="http://www.w3.org/2000/svg" viewBox="3018.64 19.3 95.87 86.87">
  <path d="M 3110.1562,51.40625 C 3105.8224,54.497297 3099.5095,58 3097.7812,58 3096.9614,58 3094.5607,56.631178 3092.4688,54.96875 3087.2229,50.799881 3084.8409,50.426691 3079.7188,52.90625 3077.3308,54.062269 3075.0638,55 3074.6875,55 3074.3111,55 3074,52.044959 3074,48.4375 3074,44.655826 3073.5979,42.137868 3073.0625,42.46875 3072.5518,42.784389 3072.1562,45.555798 3072.1562,48.625 3072.1562,51.694201 3071.8886,54.423815 3071.5938,54.71875 3071.2988,55.013685 3071.4965,56.094748 3072.0312,57.09375 3072.9704,58.848696 3073.1665,58.820777 3077.0938,57.0625 3079.3293,56.061601 3081.6608,54.745419 3082.2812,54.125 3084.1387,52.267565 3085.6481,52.800688 3090.5,57 3093.0419,59.2 3095.8791,61 3096.8125,61 3097.7459,61 3100.6357,59.875 3103.2188,58.5 3107.4573,56.243648 3109.0633,55.661861 3109.6562,56.65625 L 3110.1562,51.40625 z M 3109.3438,60.1875 C 3108.7558,61.297024 3107.7635,62.43855 3105.75,63.8125 3097.546,69.41059 3097.3806,69.431467 3092.5,66.34375 3090.0846,64.815639 3087.9127,62.761766 3087.6562,61.78125 3086.8553,58.718578 3082.4391,59.572293 3079.5625,63.34375 3076.5135,67.341189 3076.2722,71.799153 3078.9375,75.1875 3082.305,79.468505 3085.9967,87.207907 3085.9688,89.90625 3085.9394,92.745716 3080.5976,99.941413 3079.4062,98.75 3079.0009,98.344563 3079.2056,96.254857 3079.8438,94.125 3080.4819,91.995143 3081,89.496615 3081,88.5625 3081,86.273387 3072.9035,77.000616 3070.9062,77 3069.093,76.99944 3064,85.708275 3064,88.8125 3064,89.94311 3064.45,91.160081 3065,91.5 3066.1548,92.213683 3066.3723,96.047197 3065.25,95.90625 3064.8375,95.854443 3062.7885,93.856212 3060.6875,91.46875 3057.4253,87.761649 3057.0249,86.825994 3057.9688,85.0625 3058.5766,83.926768 3059.5006,83 3060.0312,83 3060.5619,83 3061,82.175937 3061,81.15625 3061,80.136562 3062.125,78.077399 3063.5,76.59375 3066.5162,73.339191 3066.7066,70.448521 3064,69 3062.9,68.411298 3062,67.321965 3062,66.59375 3062,64.699983 3054.1218,56 3052.4062,56 3051.6156,56 3048.9428,57.842044 3046.5,60.09375 L 3042.0625,64.1875 3042.0938,71.34375 C 3042.0988,77.606897 3040.6613,85.245139 3038.625,90 3038.2284,90.925965 3039.1781,92.743743 3041.0625,94.75 3045.0585,99.004531 3046.8274,98.936794 3043.5625,94.65625 L 3041,91.3125 3043.0312,81.90625 C 3044.1511,76.730294 3044.8116,71.076545 3044.5,69.34375 3044.0284,66.721164 3044.5069,65.601792 3047.3438,62.59375 3049.2484,60.574352 3051.3602,59.201979 3052.125,59.5 3054.2766,60.338409 3062.5487,72.202749 3062.1875,73.9375 3062.0088,74.795368 3060.6132,77.075 3059.0938,79 3055.19,83.945254 3053.7763,86.857779 3054.625,88.28125 3057.8094,93.621729 3063.5593,100 3065.1562,100 3068.1847,100 3069.5503,95.759188 3068.0312,91.15625 3066.9271,87.8107 3067.0096,86.800098 3068.5312,83.59375 L 3070.2812,79.875 3073.7188,83.1875 C 3078.773,88.04846 3079.2097,89.246144 3077.4062,93.5625 3076.2148,96.414239 3076.1002,97.887339 3076.9062,99.65625 3077.4905,100.93862 3078.2083,102 3078.5312,102 3080.2336,102 3082.9662,99.673668 3085.4688,96.0625 3089.0907,90.83603 3088.5998,86.244935 3083.625,78.75 3078.7123,71.348821 3078.1685,68.082438 3081.25,64.5 L 3083.6562,61.6875 3088.9375,65.84375 C 3095.2042,70.797332 3098.7063,71.161398 3104.125,67.40625 3106.1848,65.978831 3108.3348,65.072362 3108.875,65.40625 3108.8803,65.409509 3108.9009,65.433837 3108.9062,65.4375 L 3108.9062,64.84375 3109.3438,60.1875 z M 3065.1562,23.46875 C 3063.1939,23.248637 3060.9038,23.972313 3057.6562,25.5625 3052.2142,28.227198 3046.5086,33 3048.7812,33 3049.411,33 3051.859,31.632006 3054.2188,29.96875 3056.5784,28.305495 3060.1112,26.69164 3062.0625,26.375 3065.2197,25.862651 3065.9725,26.202906 3068.8125,29.4375 3071.1008,32.043716 3072,34.052527 3072,36.5625 3072,39.75301 3072.1771,39.975611 3074,39 3075.3885,38.256903 3076.5946,38.250079 3077.9375,38.96875 3080.75,40.473996 3085.2261,40.227138 3087.7812,38.4375 3092.019,35.469249 3089.6591,25.991527 3084.6875,26 3083.4812,26.002056 3081.0195,26.902056 3079.2188,28 3074.8649,30.654566 3073.8186,30.545365 3070.6875,27.03125 3068.7527,24.85978 3067.1186,23.688863 3065.1562,23.46875 z M 3082.75,29.28125 C 3083.5087,29.175437 3084.1843,29.276349 3084.6875,29.59375 3087.6941,31.490277 3088.6119,33.798577 3086.9688,35.34375 3083.3626,38.734977 3076.3508,37.418834 3077.1562,33.5 3077.5567,31.551586 3080.4738,29.598689 3082.75,29.28125 z M 3059.375,31.5625 C 3058.9523,31.555101 3058.3234,31.686915 3057.5,32 3054.4128,33.173744 3049,37.092096 3049,38.15625 3049,39.249565 3052.289,37.999999 3053.5938,36.40625 3054.1886,35.679728 3055.8761,34.620511 3057.3438,34.0625 3058.8114,33.50449 3060,32.6125 3060,32.0625 3060,31.735001 3059.7977,31.569899 3059.375,31.5625 z M 3061.2812,37 C 3059.2586,37 3050,41.308745 3050,42.25 3050,43.366789 3051.3355,43.174749 3055.3438,41.5 3061.7897,38.806722 3062.6638,39.280755 3063.4062,45.84375 3064.4628,55.181986 3064.0032,55.50149 3055.9062,51.1875 L 3048.9688,47.5 3040.9688,55.625 3033,63.71875 3033,73.40625 C 3033,84.742792 3031.7726,88.410109 3026.6562,92.3125 3024.65,93.842723 3023,95.54049 3023,96.0625 3023,96.58451 3023.3728,97 3023.8438,97 3025.3764,97 3033.7176,90.162594 3034.4375,88.3125 3034.8229,87.322084 3035.3969,81.55 3035.7188,75.5 3036.3748,63.170095 3037.1456,61.411389 3044.7812,54.53125 L 3049.1875,50.5625 3055.375,53.78125 C 3058.7843,55.548874 3062.1155,57 3062.7812,57 3063.447,57 3064,57.45 3064,58 3064,58.55 3064.5254,59 3065.1562,59 3065.9785,59 3066.1274,56.288135 3065.7188,49.4375 3065.1516,39.932153 3064.1164,37 3061.2812,37 z M 3034.0312,95.3125 C 3032.8901,95.386023 3031.6087,95.95931 3029.125,97.125 3026.3531,98.425989 3024.0538,99.8375 3024.0312,100.25 3023.9636,101.48863 3026.7167,101.08828 3030.375,99.34375 3033.6806,97.767413 3033.9469,97.792995 3036.5938,99.875 3039.5722,102.21787 3041.3205,102.21762 3041.7812,99.84375 3041.9598,98.923998 3040.5579,97.659585 3038.125,96.5625 3036.1736,95.682555 3035.1724,95.238977 3034.0312,95.3125 z"/>
</svg>
