<?xml version="1.0" encoding="UTF-8"?>
<svg xmlns="http://www.w3.org/2000/svg" height="160" width="54.645714"><g transform="scale(1) translate(-2828.0731,0)"><path d="M 2875,90.59375 C 2873.6838,90.798237 2872.3275,90.91703 2870.3125,90.8125 L 2864.5,90.5 2863.3438,85 C 2861.8327,77.795263 2861.7335,67.825961 2863.0938,60.4375 2864.4045,53.317286 2865.2305,52.124981 2868.5,52.75 2873.9161,53.785343 2870.6891,50.343087 2862.375,46.21875 L 2853.75,41.9375 2846.625,45.875 C 2842.7041,48.028865 2839.3415,50.544429 2839.1562,51.46875 2838.8449,53.021335 2839.0691,53.013506 2841.875,51.5625 2843.5455,50.698652 2845.1252,50 2845.4062,50 2847.0102,50 2848.3126,60.007353 2848.1875,71.5 2848.0232,86.605872 2847.1974,90.641875 2844.4062,90.15625 2836.2167,88.731413 2835.657,88.766634 2834.3438,90.5625 2832.5886,92.962777 2832.6523,96.429057 2834.5312,100.0625 2836.451,103.77493 2839.2632,103.8585 2844.3438,100.40625 L 2848.1562,97.84375 2851.875,100.40625 C 2856.4791,103.59692 2857.0694,103.61754 2859.9688,100.53125 L 2862.3125,98.0625 2865.6875,101.03125 C 2869.4366,104.32293 2873.3632,104.68695 2877.7188,102.46875 L 2875,90.59375 z M 2851.5312,46.46875 C 2853.1817,46.232188 2855.5802,46.76115 2858.0625,48.15625 2862.5135,50.657889 2862.787,51.92388 2860.75,61 2859.5207,66.477168 2859.8458,80.171276 2861.4688,90.09375 2862.1794,94.43846 2862.0516,94.826615 2859.2188,96.84375 L 2856.2188,98.96875 2853.375,96.78125 C 2851.7986,95.570774 2850.2399,94.235744 2849.9375,93.8125 2849.6351,93.389255 2849.7954,89.070717 2850.2812,84.25 2851.1793,75.339508 2850.6895,53.236241 2849.5,49.375 2848.9834,47.698164 2849.8808,46.705312 2851.5312,46.46875 z M 2838.7812,92.03125 C 2840.301,92.112011 2842.0968,92.666176 2843.1562,93.625 2844.8802,95.18519 2844.841,95.332667 2842.5625,97.125 2841.2541,98.154148 2839.5303,99 2838.7188,99 2837.3553,99 2836.0325,96.228036 2836,93.25 2835.9901,92.346953 2837.2615,91.950489 2838.7812,92.03125 z M 2857.0625,24.0625 C 2852.8579,23.974675 2838,34.279687 2838,37.28125 2838,37.855562 2838.7875,37.625169 2839.75,36.78125 2840.7125,35.93733 2843.075,34.437456 2845,33.46875 2846.925,32.500045 2849.7578,30.641369 2851.3125,29.34375 2855.3242,25.99546 2857.5892,26.389742 2864.0938,31.5 2870.1552,36.262139 2872.3423,37.076377 2871.8125,34.34375 2871.3634,32.027486 2860.026,24.124398 2857.0625,24.0625 z M 2855.4375,34 C 2853.5568,34 2842.4649,39.371004 2839.0625,41.9375 2837.6691,42.988497 2836.9996,44.197692 2837.4375,44.90625 2837.9929,45.804954 2838.7245,45.729396 2840.3438,44.5625 2841.5289,43.708461 2845.3105,41.664893 2848.75,40 L 2855,36.96875 2861.5312,40.46875 C 2867.9608,43.940315 2871,44.8111 2871,43.15625 2871,41.169053 2858.8166,34 2855.4375,34 z M 2870.1562,93.71875 C 2871.8669,93.459942 2873.0657,94.235447 2874.0938,96.15625 2874.8588,97.585814 2874.7995,98.523955 2873.9375,99.5625 2872.1903,101.66775 2869.341,101.3204 2867.5625,98.78125 2865.5287,95.87757 2865.5794,95.50993 2868.25,94.3125 2868.9468,94.000058 2869.586,93.805019 2870.1562,93.71875 z"/></g><text text-anchor="middle" x="27.322857" y="136">565</text><text text-anchor="middle" x="27.322857" y="148">Pv07-068</text></svg>
