<?xml version="1.0" encoding="UTF-8"?>
<svg xmlns="http://www.w3.org/2000/svg" viewBox="1204.63 17.06 74.04 81.33">
  <path d="M 1261.0312 52.3125 C 1260.664 52.989741 1260.1946 53.680954 1259.5938 54.46875 C 1256.1292 59.010935 1252.8075 59.192378 1250.3125 54.96875 C 1248.0511 51.140513 1244.7762 50.259832 1240.4062 52.34375 L 1237 53.96875 L 1237 48.53125 L 1237 43.125 L 1240.75 42.8125 C 1244.3432 42.515112 1244.5022 42.332752 1244.8125 38.5 C 1244.9907 36.3 1245.731 33.825 1246.4375 33 C 1247.144 32.175 1248.2174 30.056592 1248.8125 28.28125 C 1250.1439 24.308662 1248.8718 23.196938 1245.5 25.40625 C 1242.2019 27.567251 1241.1472 27.423159 1239.8438 24.5625 C 1238.1088 20.754664 1236.2741 20.760518 1232.0312 24.59375 C 1227.9208 28.307337 1226.1356 28.303049 1223.0312 24.5625 C 1222.3216 23.707472 1221.0777 23 1220.25 23 C 1219.0136 23 1218.8692 23.936136 1219.4375 28.25 C 1220.3581 35.236816 1220.3688 37.079912 1219.5 39.75 C 1218.8121 41.864142 1219.0371 42 1223.375 42 L 1228 42 L 1228 47.5 C 1228 53.394841 1227.0303 54.248689 1223.4375 51.53125 C 1222.3699 50.723742 1220.0306 50.048742 1218.25 50.03125 C 1215.5768 50.00499 1214.6239 50.653573 1212.6875 53.75 C 1209.3647 59.063056 1208 63.551436 1208 69.21875 C 1208 74.018935 1209.2887 78 1210.8438 78 C 1211.2703 78 1212.4171 75.302204 1213.4062 72 C 1216.4309 61.90233 1221.3002 57.980019 1223.8438 63.5625 C 1225.6674 67.565088 1225.296 68.768702 1220.5 74.65625 C 1218.025 77.694572 1216.0379 81.156668 1216.0938 82.34375 C 1216.2281 85.192494 1225.6642 93.742094 1227.0938 92.3125 C 1227.7976 91.608628 1226.5261 89.962438 1223.0625 87.0625 C 1220.2805 84.733281 1218 82.091597 1218 81.21875 C 1218 80.345903 1219.9463 77.800938 1222.3438 75.5625 C 1227.4069 70.835228 1228.4761 68.351288 1227 64.46875 C 1223.875 56.249492 1217.6182 57.691172 1212.9375 67.71875 L 1211.1562 71.5 L 1211.0938 66.71875 C 1211.0387 63.464601 1211.819 60.347747 1213.5312 56.96875 C 1216.4029 51.301955 1217.879 50.876641 1224.0625 54.03125 C 1226.2595 55.152051 1228.4386 55.851538 1228.9062 55.5625 C 1230.487 54.585608 1231.2215 45.930759 1229.9688 42.90625 C 1228.9813 40.522268 1228.1586 40 1225.375 40 C 1223.5167 40 1222 39.642638 1222 39.1875 C 1222 38.732362 1225.0131 34.892246 1228.6875 30.6875 C 1233.5645 25.106451 1235.7049 23.324818 1236.5938 24.0625 C 1237.7632 25.033115 1243 38.120441 1243 40.0625 C 1243 40.581035 1241.2063 41 1239.0312 41 C 1235.3033 41 1235.0565 41.200705 1234.4375 44.5 C 1233.6049 48.938487 1234.7021 54.947059 1236.4688 55.625 C 1237.2138 55.910889 1239.2027 55.427295 1240.875 54.5625 C 1245.0813 52.387354 1245.544 52.526176 1248 56.5 C 1249.8688 59.523823 1250.6898 60 1254.0312 60 C 1257.2573 60 1258.3285 59.440842 1260.5 56.59375 C 1261.9319 54.716529 1263.8506 52.888344 1264.7812 52.53125 C 1268.7957 50.990762 1273.1756 62.339752 1271.5 69.96875 C 1270.7918 73.193269 1266.5191 79 1264.8438 79 C 1264.3027 79 1264.7418 77.838328 1265.8438 76.4375 C 1268.5682 72.973814 1269.4294 68.450881 1268 65 C 1266.3099 60.919615 1264.9259 60.773533 1258.875 64.03125 C 1255.9264 65.618724 1253.2414 66.946927 1252.9062 66.96875 C 1252.5711 66.990574 1250.3211 65.419662 1247.9062 63.5 C 1245.4914 61.580338 1243.1723 60.005338 1242.7812 60 C 1242.3901 59.994662 1241.1383 60.996868 1240 62.21875 C 1238.4356 63.897885 1238.1052 65.179824 1238.5938 67.46875 C 1239.419 71.336199 1240.3499 72.459488 1246.75 77.1875 C 1252.7137 81.593154 1253.5524 84.779381 1249.9375 89.375 C 1247.5497 92.410621 1244.3357 93.045463 1245.5312 90.25 C 1247.2688 86.187235 1247.22 82.886961 1245.375 80.8125 C 1243.1481 78.30862 1236.3768 75.062072 1233.3438 75.03125 C 1230.5085 75.002438 1226 80.402735 1226 83.84375 C 1226 86.116332 1228.8317 90 1230.5 90 C 1231.602 90 1230.8947 87.157486 1229.5 86 C 1227.3995 84.256744 1227.623 82.543164 1230.375 79.34375 L 1232.75 76.59375 L 1236.8125 78.40625 C 1239.0501 79.415255 1241.8758 81.29934 1243.0625 82.5625 C 1244.9909 84.615194 1245.0803 85.227384 1244.0312 88.40625 C 1243.3857 90.362419 1243.1535 92.407997 1243.5 92.96875 C 1244.5667 94.69469 1247.5347 94.113559 1249.6875 91.75 C 1254.9557 85.966054 1255.3673 81.165006 1250.875 77.8125 C 1241.2473 70.627537 1238.1236 65.797429 1241.3438 63.125 C 1242.3684 62.274586 1243.5883 62.825025 1246.5938 65.5 C 1251.2115 69.60993 1253.1333 69.774193 1258.5 66.46875 C 1263.5502 63.358232 1265.6336 63.358934 1266.4062 66.4375 C 1267.2299 69.718976 1265.5346 73.826367 1261.75 77.75 C 1259.4026 80.183688 1258.8971 81.30333 1259.75 82.15625 C 1261.2599 83.666185 1267.1265 80.900432 1269.875 77.40625 C 1274.7 71.272364 1275.3093 59.607963 1271.0938 53.90625 C 1270.2394 52.750765 1269.7769 51.935979 1269.5312 50.96875 L 1266.5938 49.3125 C 1266.3058 49.774229 1265.9784 50 1265.5938 50 C 1265.3521 50 1265.1472 49.887078 1265 49.65625 L 1261.0312 52.3125 z M 1221.3125 26.5 C 1221.6212 26.368688 1222.2351 26.820829 1223.4688 27.71875 C 1224.8265 28.706927 1225.9515 30.004845 1225.9688 30.625 C 1225.9861 31.245156 1225.4156 32.239492 1224.6875 32.84375 C 1222.8322 34.383538 1221 32.359227 1221 28.75 C 1221 27.327325 1221.0038 26.631312 1221.3125 26.5 z M 1246.625 27.09375 C 1246.9541 27.189281 1247 27.569994 1247 28.3125 C 1247 30.215039 1244.5661 33.222465 1243.7188 32.375 C 1242.4349 31.091206 1242.9672 28.217937 1244.5938 27.59375 C 1245.6954 27.171001 1246.2959 26.998219 1246.625 27.09375 z "/>
</svg>
