<?xml version="1.0" encoding="UTF-8"?>
<svg xmlns="http://www.w3.org/2000/svg" height="160" width="97.839017"><g transform="scale(1) translate(-1379,0)"><path d="M1413.0072 99.777307C1410.6364 97.232545 1410.4923 94.690436 1412.4108 89.252899C1413.8083 85.291794 1413.7843 85.199454 1409.8438 79.393552C1407.6561 76.170117 1405.6821 73.348764 1405.4572 73.123879C1404.6836 72.350238 1402.0856 75.178239 1399.4704 79.640799C1396.9014 84.024409 1396.8809 84.202327 1398.4251 88.734084C1400.4786 94.761013 1400.4133 96.179209 1397.961 98.811439C1394.6458 102.36998 1392.6211 101.58124 1389.5648 95.540503C1388.0455 92.537779 1386.172 89.557679 1385.4013 88.918058C1384.6306 88.278437 1384.0 86.899292 1384.0 85.853291C1384.0 83.751125 1394.5654 65.482471 1395.754 65.529553C1396.1643 65.545808 1396.3601 64.949923 1396.1891 64.205365C1396.0181 63.460806 1396.3883 62.23705 1397.0117 61.485907C1397.6351 60.734763 1398.3934 56.605648 1398.6969 52.310096C1399.6564 38.727755 1406.2966 29.28447 1415.6272 28.232778C1423.0207 27.399423 1433.5553 33.96889 1438.6327 42.579202C1439.7488 44.471968 1439.8193 44.471546 1443.4611 42.550307C1446.6689 40.858007 1447.0664 40.263928 1446.4721 38.050307C1444.4833 30.643229 1446.8871 24.852433 1452.7544 22.916029C1455.81 21.907587 1456.8444 21.999923 1459.6962 23.535726C1463.5902 25.63279 1464.4912 28.238493 1463.5327 34.630536C1462.8681 39.062128 1462.9939 39.381284 1466.8743 43.109901C1469.5275 45.659325 1471.1412 48.235835 1471.5929 50.643766C1472.4182 55.042616 1471.0899 59.359014 1468.7737 59.805073C1467.2575 60.097058 1467.2272 59.847506 1468.4713 57.314788C1470.5903 53.000949 1469.2628 49.160433 1463.9125 44.126561C1459.9645 40.412054 1459.3025 39.303228 1460.1204 37.775015C1461.9436 34.368377 1460.7604 27.893579 1457.9302 25.789287C1455.7599 24.175633 1454.9544 24.063674 1452.7478 25.069036C1451.3109 25.723758 1449.6125 27.521343 1448.9736 29.063671C1447.7538 32.008496 1448.4953 38.0 1450.0795 38.0C1450.5858 38.0 1451.0 38.607736 1451.0 39.350524C1451.0 40.789896 1441.7358 47.0 1439.5885 47.0C1438.0892 47.0 1435.0 43.818837 1435.0 42.274852C1435.0 40.74009 1428.6158 35.354804 1424.012 33.006139C1411.7423 26.746601 1402.2223 35.448535 1400.5047 54.49344C1399.9063 61.127661 1399.2284 63.338205 1396.5177 67.49344C1394.7214 70.247048 1391.7326 75.295999 1389.8758 78.713332C1386.7923 84.388677 1386.6236 85.124658 1387.9274 87.213332C1388.7124 88.470999 1389.8374 90.400841 1390.4274 91.501869C1391.0173 92.602897 1392.3002 94.627897 1393.2782 96.001869C1394.774 98.103319 1395.2083 98.261813 1396.0129 97.0C1397.2641 95.037813 1397.237 93.522974 1395.8689 88.956612C1395.2467 86.880128 1395.0072 84.107334 1395.3366 82.794849C1396.0097 80.113021 1403.8883 68.0 1404.9595 68.0C1406.5478 68.0 1415.2325 79.900307 1416.4171 83.700021C1416.8247 85.007316 1416.4735 87.117515 1415.5515 88.900361C1413.7757 92.334432 1413.5175 96.583763 1415.0279 97.517266C1416.2216 98.25502 1419.2619 94.871952 1421.4597 90.360323C1423.4087 86.359423 1422.1269 82.338614 1415.7122 72.331083C1407.8104 60.003471 1407.5537 59.28621 1408.9852 53.538768C1411.4456 43.660547 1415.2476 40.0 1423.0471 40.0C1427.6198 40.0 1429.8531 41.823805 1433.0983 48.208509C1434.2981 50.568829 1437.4118 54.838605 1440.0177 57.696899C1444.3831 62.485185 1444.8123 63.422746 1445.4761 69.621163C1445.8723 73.321213 1446.3726 76.832609 1446.5878 77.424264C1447.0611 78.725725 1445.3353 81.668655 1444.5559 80.889207C1443.9073 80.240583 1443.2697 75.17985 1443.1118 69.426898C1443.0172 65.978877 1442.2184 64.520953 1437.9069 59.926898C1435.1056 56.942104 1431.756 52.427623 1430.4633 49.894719C1425.7624 40.683724 1416.4598 41.177107 1412.4174 50.851822C1410.4643 55.526353 1410.6373 58.303421 1413.1568 62.719584C1414.343 64.798813 1415.8055 67.406334 1416.4068 68.514075C1417.008 69.621816 1418.5599 72.00785 1419.8553 73.816373C1423.4301 78.806988 1425.8492 86.17537 1424.8234 88.948474C1423.4792 92.582165 1417.8882 100.82893 1416.3753 101.40949C1415.6267 101.69672 1414.1111 100.96224 1413.0072 99.777307Z M1452.5727 92.117657C1452.2398 91.578954 1452.4716 90.826585 1453.0878 90.445727C1454.3491 89.666226 1457.9443 82.170474 1457.978 80.25C1457.9901 79.5625 1457.1481 79.0 1456.107 79.0C1453.6323 79.0 1453.0 77.125658 1453.0 69.789939C1453.0 64.870866 1452.4267 62.741436 1449.9253 58.36948L1446.8506 52.995506L1449.8484 49.997753C1453.2161 46.6301 1457.2499 46.085906 1460.7376 48.528742C1463.1597 50.225243 1464.8197 56.580309 1463.2506 58.149392C1462.5839 58.816059 1462.0357 58.003589 1461.6057 55.711984C1460.6937 50.850443 1458.0302 48.657826 1454.6142 49.956571C1450.7154 51.43892 1450.4416 53.47095 1453.3781 59.131047C1455.3411 62.914658 1456.0 65.66914 1456.0 70.092286C1456.0 75.727181 1456.1155 76.0 1458.5 76.0C1461.8276 76.0 1461.8127 78.976382 1458.4515 85.721447C1455.6374 91.368649 1453.5281 93.663555 1452.5727 92.117657Z"/></g><text text-anchor="middle" x="48.9195085" y="136">636</text><text text-anchor="middle" x="48.9195085" y="148">Hr10-034</text></svg>
