<?xml version="1.0" encoding="UTF-8"?>
<svg xmlns="http://www.w3.org/2000/svg" viewBox="910.85 13.7 138.15 89.62">
  <path d="M 1042.7188,24.4375 C 1041.6029,24.274725 1040.6953,23.674884 1039,22.5 1034.3186,19.255796 1029.6861,19.251522 1026.4688,22.46875 1023.5828,25.354682 1023.5268,25.988829 1025.5625,32.84375 1027.0366,37.807779 1026.989,38.200812 1025.0625,40.90625 1022.1318,45.022139 1011.4211,54.742997 1008.9375,55.53125 1007.4229,56.011979 1005.522,55.282467 1002.3438,53 997.31957,49.391872 992.42805,48.832492 988.5,51.40625 984.14222,54.261574 983.6933,53.625107 984.21875,45.4375 984.86099,35.430113 985.71305,34.627531 995.6875,34.5625 L 1003.4062,34.5 1004.2812,39 C 1004.7636,41.475 1005.8397,44.175 1006.6562,45 1007.9742,46.331471 1008.4134,46.157722 1010.5312,43.53125 1013.0831,40.366465 1014.737,31.861926 1013.5312,28.0625 1013.1533,26.871709 1011.1717,25.128205 1009.1562,24.21875 1007.1407,23.309296 1004.7406,21.950883 1003.8125,21.1875 1002.0044,19.700375 994.51049,20.357615 993.4375,22.09375 993.12716,22.595894 991.87641,23 990.65625,23 989.43609,23 987.55362,23.620276 986.46875,24.375 985.38387,25.129724 983.08369,26.05897 981.34375,26.4375 978.69308,27.014165 977.3333,26.528216 973.03125,23.4375 967.40192,19.393226 960.17823,17.771956 957.53125,19.96875 955.24473,21.866398 954.64392,27.237572 956.28125,31.15625 957.42695,33.89831 959.27031,35.426635 965,38.4375 L 972.21875,42.21875 971.5625,48.375 C 971.18594,51.748956 970.46026,54.904541 969.96875,55.40625 969.43394,55.952169 967.51779,55.249484 965.21875,53.65625 960.63679,50.48095 956.188,50.26984 950.3125,52.9375 945.00198,55.348646 944.27601,54.78474 940,44.84375 937.12894,38.16904 936.82577,36.683565 937.65625,33.34375 938.79632,28.758876 937.90479,23.660548 935.46875,20.96875 932.70881,17.919058 926.54597,18.309926 923.3125,21.75 917.40241,28.037712 917.1311,33.922469 922.5625,37.65625 928.21591,41.542645 929.79121,44.022264 931.46875,51.5625 934.69825,66.078457 941.88538,71.257129 950.90625,65.5625 955.54355,62.635101 957.92445,62.393518 961.9375,64.46875 966.583,66.871029 968.52497,75.373259 965.4375,79.78125 963.56776,82.450671 962.19961,82.522338 957.5,80.28125 954.41907,78.812059 953.48624,78.776442 950.71875,79.90625 940.89762,83.915663 940.34057,84.000488 935.5625,82.5625 930.01245,80.892183 928.3486,82.418029 933.40625,84.53125 938.22485,86.544589 941.94207,86.386881 947.65625,83.9375 952.59961,81.818525 954.12087,81.829096 959.6875,84.09375 967.28797,87.185822 972.60102,78.050074 968.625,68.71875 966.72554,64.26092 963.20445,61.374855 958.65625,60.5625 955.43755,59.987609 954.14847,60.315643 950.90625,62.5625 948.77162,64.041798 945.82304,65.25 944.34375,65.25 940.31658,65.25 936.4535,59.882158 934.4375,51.5 932.40994,43.069768 929.78275,38.473363 925.90625,36.46875 920.74152,33.797965 920.85841,26.670517 926.125,22.75 929.5957,20.166365 932.37062,21.134305 934.53125,25.6875 935.95812,28.694408 936.04754,29.910294 935.09375,33.09375 933.86305,37.20146 934.02477,37.871113 939.71875,50.28125 942.93239,57.285426 945.22506,58.227641 951.4375,55.125 956.88555,52.404109 958.40682,52.458495 962.3125,55.4375 964.06574,56.774763 966.72578,58.338627 968.21875,58.90625 972.37436,60.486214 974.01908,57.413741 974,48.03125 973.99158,43.891128 973.65408,40.014277 973.25,39.4375 972.84592,38.860723 970.57982,37.836751 968.25,37.15625 962.08758,35.356313 958.97489,32.282218 958.3125,27.34375 957.83746,23.802073 958.06603,23.016102 959.90625,22.03125 961.09217,21.396564 962.99415,21.172334 964.125,21.53125 966.69761,22.347766 974.27663,27.429869 975.96875,29.46875 977.63853,31.480722 979.52468,31.408182 984.4375,29.09375 986.67364,28.0403 990.88487,26.186851 993.78125,24.96875 L 999.03125,22.75 1003.875,25.03125 C 1010.1763,28.022929 1011.3466,29.969598 1010.5,36.125 1010.1302,38.813389 1009.4395,41 1009,41 1008.0236,41 1007,38.451867 1007,36.0625 1007,35.092726 1006.1161,33.513036 1005.0312,32.53125 1003.3866,31.04292 1001.7659,30.806781 995.28125,31.1875 986.17588,31.722083 983.28416,33.206411 982,38 980.48955,43.638253 979.57348,58 980.71875,58 981.27057,58 984.43843,56.614161 987.75,54.90625 994.49571,51.427217 995.88924,51.522673 1001.5625,56.03125 1003.6114,57.659506 1005.9881,59.002056 1006.875,59 1010.8141,58.990868 1024.0332,47.958048 1027.875,41.46875 1029.5086,38.709351 1029.552,37.982871 1028.2812,33.625 1027.5112,30.983711 1027.0184,27.617499 1027.1875,26.15625 1027.4491,23.894989 1028.0465,23.444907 1031.125,23.1875 1034.141,22.935319 1035.1795,23.422048 1037.375,26.03125 1041.6147,31.06989 1040.9762,34.312429 1033.9375,43.53125 1026.0126,53.910832 1021.5058,58.607106 1016.0625,62.125 1011.1724,65.285419 1005.7186,65.885822 1002.4688,63.625 1001.3839,62.870276 998.925,61.904569 997,61.46875 985.96881,58.971296 979,65.518648 979,78.40625 979,81.351821 979.51257,82.211561 982.125,83.5625 985.31186,85.210489 988.78464,85.121671 994.65625,83.21875 997.0927,82.429124 998.46403,82.54672 1000.6562,83.71875 1002.2191,84.554347 1004.625,85.544702 1006,85.9375 1008.544,86.66425 1016.9849,83.509015 1019.375,80.9375 1020.5995,79.620028 1020.6904,79.621469 1011.9062,82.0625 1007.6717,83.239209 1007.007,83.149842 1003.7812,81.15625 999.73632,78.656356 995.35382,78.42 992.5625,80.53125 991.49488,81.338759 989.14428,82 987.34375,82 983.02603,82 981.62053,79.394492 982.5,73 983.22355,67.739133 984.71993,65.845101 990,63.625 993.19371,62.282145 993.92832,62.357598 999.96875,64.65625 1008.3627,67.850536 1011.745,67.82553 1017.0625,64.46875 1021.4867,61.675883 1033,50.380893 1033,48.84375 1033,47.340863 1038.2802,42.066084 1042.2812,39.21875 L 1042.7188,24.4375 z M 1021.0312,84 C 1019.3814,84 1013,87.328038 1013,88.1875 1013,89.298314 1013.3542,89.252647 1017.9688,87.40625 1021.6434,85.935969 1023.3818,84 1021.0312,84 z M 928.96875,85.5 C 927.48488,86.417086 928.70692,87.858156 932.3125,89.4375 936.147,91.117117 936.49087,91.196626 937.34375,90.34375 938.28327,89.404225 930.20862,84.733721 928.96875,85.5 z M 1021.4062,89.15625 C 1020.2633,89.405363 1018.4218,90.20899 1015.5938,91.59375 1010.8784,93.902639 1009.9031,94.054577 1006.2188,93.0625 1003.9523,92.452211 1001.7994,91.503804 1001.4688,90.96875 1000.5113,89.419486 996.93252,89.834486 991.40625,92.125 L 986.28125,94.25 980.90625,92.25 975.5625,90.25 971.21875,92.34375 966.875,94.46875 962.96875,92.21875 C 957.55682,89.104039 951.99089,89.368695 943.125,93.09375 935.80242,96.17037 935.78076,96.166508 930.78125,94.53125 928.02722,93.630453 925.50661,93.149644 925.1875,93.46875 924.19868,94.457573 927.32945,96.812718 931,97.84375 935.91654,99.224769 935.69393,99.24899 944,95.96875 952.79525,92.495323 956.39916,92.284123 960.5,95 964.12992,97.404 966.7156,97.514388 971.90625,95.4375 975.03476,94.185721 976.29272,94.100814 978.03125,95.03125 981.10793,96.677836 989.29188,96.415407 992.875,94.5625 996.26992,92.806921 1000.5645,92.505743 1001.4688,93.96875 1001.7994,94.503804 1003.8999,95.432107 1006.125,96.03125 1009.7952,97.019548 1010.7763,96.836934 1016.5938,94.03125 1020.1205,92.330339 1023,90.502036 1023,89.96875 1023,89.200368 1022.5492,88.907137 1021.4062,89.15625 z"/>
</svg>
