<?xml version="1.0" encoding="UTF-8"?>
<svg xmlns="http://www.w3.org/2000/svg" height="160" width="125.36122"><g transform="scale(1) translate(-627.63878,0)"><path d="M 717.31731,91.441236 C 720.51852,87.044639 720.44395,82.956465 717.09037,79 714.84492,76.350881 713.8407,75.780116 712.95962,76.652225 712.07558,77.527275 712.33174,78.529689 714.02451,80.819285 715.96633,83.445733 716.10832,84.250504 715.12674,87.066283 713.83274,90.778252 713.6561,94.014409 714.75,93.968575 715.1625,93.951291 716.31779,92.813989 717.31731,91.441236 z M 672.39301,92.418213 C 672.72686,91.548229 673,89.398357 673,87.640719 673,84.666472 675.12765,80.355122 677.33775,78.850925 678.81537,77.845261 677.27627,74.994895 675.28138,75.042596 674.30162,75.066023 671.83488,77.245982 669.79972,79.886948 L 666.09945,84.688704 668.24126,89.344352 C 670.51926,94.296023 671.41729,94.960904 672.39301,92.418213 z M 641.94183,84.85957 C 639.28448,78.444154 642.00797,68.477101 649.54403,57.038082 658.66862,43.187822 667.55797,35.453465 678.28802,32.028806 683.07595,30.500663 685.96949,32.148612 689.23714,38.264625 691.24646,42.025447 691.5,43.92277 691.5,55.198179 691.5,70.123655 690.82756,71.61273 685.79613,67.828983 683.98326,66.465665 680.55375,64.269589 678.175,62.948816 L 673.84999,60.547409 671.94723,63.023705 C 669.32608,66.434929 669.51467,67.073304 674.15593,70.5 676.39076,72.15 679.4511,74.625 680.95669,76 685.41658,80.073065 694.51758,86 696.31202,86 698.16175,86 708.01052,78.76952 712.18638,74.345818 715.81308,70.50388 717.2952,66.420108 715.96496,63.934525 714.41007,61.02918 712.72724,61.540629 707.05164,66.643483 704.06336,69.330203 701.52163,70.910452 701.02001,70.393483 698.37844,67.671101 699.44131,45.959014 702.50797,39.997639 706.04659,33.118824 713.13008,31.206093 719.35078,35.449639 721.46871,36.894418 724.57554,38.637153 726.25485,39.322383 729.26119,40.549094 729.3124,40.690768 729.58491,48.534128 729.7892,54.413969 730.56111,58.197053 732.53257,62.980494 734.83832,68.575027 735.13642,70.454816 734.71304,76.730494 734.19766,84.369983 734.91074,85.592061 737.54121,81.577456 740.36398,77.269365 740.54789,69.054131 737.97069,62.392564 736.30046,58.075343 735.66547,54.274377 735.5955,48.175067 735.50075,39.91581 735.52114,39.845904 738.17996,39.314075 743.80773,38.188382 747.48076,30.635344 744.81902,25.661845 744.0142,24.158025 743.08255,23.887196 740.27917,24.342123 736.02273,25.032849 733.30919,27.324235 731.43462,31.81072 L 730.03435,35.162044 725.76717,31.704279 C 723.42023,29.802508 719.16832,27.574364 716.31849,26.752848 711.59474,25.391139 710.79964,25.410422 707.31849,26.971113 705.21832,27.912675 702.86201,29.453927 702.08224,30.396118 698.90329,34.237248 697.19276,34.289138 692.72655,30.679926 686.7699,25.866264 684.75967,25 679.54587,25 674.76858,25 669.35623,27.665389 665.59501,31.870292 662.83201,34.959228 660.65855,34.5008 657.913,30.25 655.14017,25.956949 651.35749,24.790614 649.30603,27.59616 646.96406,30.798992 647.74497,34.406217 651.5,37.730667 656.79517,42.418657 656.26353,44.510665 647.56691,53.20728 636.37769,64.3965 632.68769,74.324919 636.63036,82.633477 638.194,85.928592 641.89446,89.438876 642.82427,88.509064 643.06898,88.26435 642.67189,86.622078 641.94183,84.85957 z M 668,95.460162 C 668,94.613251 667.1,92.156178 666,90 664.9,87.843822 664,85.62677 664,85.073218 664,84.519666 666.025,81.786718 668.5,79 670.975,76.213282 673,73.73892 673,73.501417 673,73.263913 671.61297,71.489851 669.91771,69.559056 L 666.83542,66.048519 669.66771,62.045611 C 671.22547,59.844011 672.93045,58.033095 673.45656,58.021351 673.98266,58.009608 676.90766,59.726568 679.95656,61.836819 687.39017,66.981894 688.66737,67.367034 689.38781,64.680803 690.42315,60.820424 690.00802,49.666842 688.60747,43.714752 686.0374,32.792415 681.80499,31.46576 670.53684,38.050487 661.16329,43.528077 653.2289,53.091022 646.82309,66.63155 643.21174,74.265179 642.50869,79.966228 644.33228,86.829667 645.50032,91.225783 645.51649,92.248311 644.4246,92.667308 642.51112,93.401577 635.3856,87.334747 633.82817,83.645269 630.28396,75.2492 634.79708,62.952208 645.54629,51.716742 649.09583,48.006629 652,44.235547 652,43.33656 652,42.437573 650.425,40.172417 648.5,38.302881 643.96959,33.903004 643.81196,30.034193 647.99276,25.853392 651.52625,22.319904 653.80855,22.615363 658.67797,27.236663 L 661.85593,30.252698 668.366,26.612064 C 674.28851,23.300005 675.4486,23.003412 681.21987,23.325793 686.7002,23.631922 688.2163,24.178318 692.35843,27.340078 694.99555,29.353035 697.45769,31 697.82984,31 698.202,31 699.7501,29.682403 701.27005,28.072006 705.69054,23.388488 710.02649,22.439643 717.61797,24.494561 721.12809,25.444704 724,26.5251 724,26.89544 724,27.26578 725.35,28.36625 727,29.340929 729.34351,30.725277 730,30.813398 730,29.743627 730,26.935194 735.71069,22.786935 740.28701,22.271117 744.11374,21.83979 744.95183,22.093147 746.36302,24.107894 747.26336,25.393309 748,28.189885 748,30.322506 748,33.365979 747.30095,34.896747 744.75,37.439286 742.9625,39.220893 740.85998,40.889232 740.07774,41.146706 737.55063,41.978498 737.43728,52.880068 739.88764,59.42924 743.83843,69.988656 742.20589,80.774387 735.77781,86.581766 731.09524,90.812195 728.88562,90.104558 730.98111,85.045604 733.11294,79.898918 732.52011,70.3329 729.56088,62.128656 728.09855,58.074416 726.63646,51.912776 726.3118,48.436123 L 725.72152,42.114934 720.11076,38.51296 C 713.83144,34.481786 710.33949,34.392984 706.3271,38.162435 703.23411,41.068146 702.09199,45.139042 701.88378,54 701.64539,64.144543 701.85067,67 702.81835,67 703.26844,67 705.40594,65.399582 707.56835,63.443516 714.15905,57.481716 714.60647,57.416345 717.49562,61.993067 L 720.0432,66.028696 717.80819,69.912125 715.57317,73.795554 719.29746,78.575841 C 723.36478,83.796427 723.36688,84.302482 719.35107,91.487542 716.627,96.361443 713.80258,97.368161 712.04841,94.090461 711.31424,92.718655 711.42694,91.222448 712.44859,88.77729 713.57498,86.081444 713.62422,84.88334 712.68536,83.015798 712.03341,81.718975 711.05,80.514939 710.5,80.340162 709.95,80.165385 706.80885,82.042349 703.51967,84.511193 700.2305,86.980037 696.84586,89 695.99826,89 695.15066,89 691.37091,86.75 687.59882,84 683.82673,81.25 680.30849,79 679.78053,79 677.45035,79 675.06551,83.646854 675.03327,88.25 675.00956,91.634926 674.42523,93.574768 673,95 670.62261,97.37739 668,97.618755 668,95.460162 z"/></g><text text-anchor="middle" x="62.68061" y="136">682</text><text text-anchor="middle" x="62.68061" y="148">Rr04-016</text></svg>
