<?xml version="1.0" encoding="UTF-8"?>
<svg xmlns="http://www.w3.org/2000/svg" height="160" width="50"><g transform="scale(1) translate(-1113.6475,0)"><path d="M 1142.6549,46.456872 C 1142.9806,45.608151 1142.9774,44.644026 1142.6477,44.314371 1141.9355,43.602142 1139,45.861928 1139,47.122445 1139,48.631533 1142.0323,48.079337 1142.6549,46.456872 z M 1137.3587,48.49228 C 1136.5336,46.342069 1139.6741,42 1142.0544,42 1144.6368,42 1145.5658,44.462888 1144.1529,47.56377 1142.884,50.348779 1138.3109,50.973742 1137.3587,48.49228 z M 1140.1548,92.957893 C 1144.6922,88.188113 1145.0709,86.642352 1141.356,88.054765 1139.54,88.745204 1137.6668,88.715105 1135.3747,87.958654 1130.8708,86.472218 1129.0534,80.988129 1130.845,74.289575 1132.2555,69.016148 1136.8303,59 1137.8285,59 1138.2043,59 1139.0914,60.309439 1139.7998,61.909865 1141.1159,64.883209 1143.462,66.450535 1145.0902,65.444227 1146.3226,64.682605 1146.2346,60.817216 1144.8607,55.361019 L 1143.7214,50.836397 1148.8607,46.340651 C 1151.6873,43.867991 1154,41.519112 1154,41.120921 1154,40.72273 1151.8184,39.475248 1149.1521,38.34874 1144.345,36.31782 1144.2725,36.316779 1140.5523,38.225336 1135.2883,40.925921 1130.9032,50.459528 1125.9372,70 1124.7612,74.62752 1124.7368,90.280712 1125.9067,89.557637 1126.4054,89.249419 1126.594,89.836532 1126.3257,90.862332 1125.7072,93.227639 1130.2947,97 1133.7897,97 1135.4332,97 1137.6471,95.594104 1140.1548,92.957893 z M 1127.0161,96.360075 C 1125.1537,94.792958 1122.7007,93.634635 1121.5649,93.786025 1119.6355,94.04321 1119.6149,93.969977 1121.25,92.670397 1123.9109,90.555536 1123.6255,84.166921 1120.8237,83.1305 L 1118.6475,82.325449 1120.8237,81.756344 C 1123.4082,81.080499 1124.005,76 1121.5,76 1120.3333,76 1120.4444,75.555556 1122,74 1124.5285,71.471497 1124.6833,66.325217 1122.25,65.689326 1120.8636,65.327032 1120.9433,65.207898 1122.6334,65.116001 1123.9437,65.044753 1124.9994,64.131965 1125.3697,62.75 1126.2869,59.327469 1126.1347,58.734343 1124.5,59.361626 1123.675,59.678209 1123,59.501354 1123,58.968615 1123,58.435877 1123.6634,58 1124.4743,58 1126.3368,58 1129.3917,52.360107 1127.9963,51.497734 1126.367,50.490726 1126.8564,49.270823 1129.1281,48.67676 1130.7862,48.24316 1131.1481,47.554851 1130.7667,45.560128 1130.4976,44.152058 1130.7343,43 1131.2927,43 1131.8512,43 1133.8053,41.250923 1135.6351,39.113161 1139.6458,34.427648 1143.0204,33.364842 1147.2259,35.46281 1148.9207,36.308264 1151.8131,37 1153.6536,37 1158.7615,37 1158.072,40.196761 1151.5736,46.643479 1146.4455,51.730826 1146.1982,52.204226 1147.0736,55.256747 1148.4645,60.10639 1148.2043,66.585597 1146.5639,67.946949 1145.0142,69.233099 1142.2429,68.263517 1138.7439,65.210965 1137.778,64.368345 1136.8446,63.863669 1136.6697,64.089464 1135.0005,66.244575 1132.7366,73.152386 1132.2939,77.441416 1131.8227,82.007272 1132.0548,83.054757 1133.9598,84.959844 1136.4922,87.492238 1139.7372,87.176008 1144.1968,83.962236 1147.9483,81.258703 1148.3765,82.851812 1145.4673,88.689739 1142.2092,95.22792 1139.0584,98.04835 1134.2994,98.686663 1131.0426,99.123498 1129.8459,98.74124 1127.0161,96.360075 z"/></g><text text-anchor="middle" x="25" y="136">790f</text><text text-anchor="middle" x="25" y="148">Gv06-027</text></svg>
