<?xml version="1.0" encoding="UTF-8"?>
<svg xmlns="http://www.w3.org/2000/svg" height="160" width="50.98468"><g transform="scale(1) translate(-640,0)"><path d="M 655.60757,97.572552 C 655.27439,96.245058 655.24898,94.514732 655.55112,93.727383 656.32958,91.698747 651.81014,88.981733 648.87727,89.715175 L 646.5,90.309674 648.60497,88.404837 C 650.33984,86.834902 650.62973,85.663756 650.25377,81.743653 649.87028,77.745078 649.41653,76.891663 647.40571,76.386979 644.71964,75.712819 645.12098,74 647.96501,74 649.24965,74 650.2615,72.68078 651.28837,69.667086 652.66836,65.61703 652.64186,65.257429 650.88237,64.158612 648.3149,62.5552 648.35542,60.584665 650.92756,61.96123 654.22902,63.728118 656.00058,62.21831 655.99442,57.643011 655.9857,51.164737 654.22411,46.295767 651.07864,44.055993 647.78038,41.707427 645,35.497636 645,30.479764 645,25.648257 646.79504,26.026538 652.21393,32 658.24546,38.648811 659.91175,38.50749 663.47868,31.044615 665.0442,27.769152 666.98398,24.836389 667.78929,24.527361 670.2877,23.568634 672,26.023227 672,30.563428 672,32.938624 672.49306,35.186694 673.09569,35.55914 673.69832,35.931585 676.30128,34.158143 678.88004,31.618157 685.99827,24.606957 687.16095,25.605337 685.02066,36.891043 683.85698,43.027134 679.5308,48.999928 676.25,48.999971 674.61309,48.999992 674,49.586901 674,51.1539 674,52.338545 672.3125,56.210343 670.25,59.757896 664.32252,69.953312 663.89805,70.853365 663.31085,74.471911 661.94958,82.860416 666.04578,86.399941 673.72216,83.468308 676.08752,82.564965 678.48352,80.965047 679.0466,79.912934 680.32714,77.520219 682.00182,77.427655 681.99442,79.75 681.98216,83.598343 679.73532,89.231857 676.94545,92.409349 675.32545,94.254424 674,96.492123 674,97.382015 674,99.197809 672.45815,99.550314 671.47486,97.959323 671.12111,97.38695 670.00259,97.181791 668.98925,97.503413 667.97591,97.825035 665.48382,97.39334 663.45128,96.54409 658.67368,94.547882 658,94.596931 658,96.940983 658,99.870825 656.29722,100.32034 655.60757,97.572552 z M 655.5354,40.942718 C 655.89479,40.361213 654.57135,38.314551 652.59442,36.39458 649.604,33.490322 649,33.225229 649,34.817004 649,36.871168 652.5798,42 654.01356,42 654.49118,42 655.17601,41.524223 655.5354,40.942718 z M 672.78321,93.439296 C 675.26186,91.703176 678.481,86.147662 677.5486,85.21527 677.21922,84.885891 675.46659,85.15271 673.65387,85.8082 666.83061,88.275522 662.77781,86.886804 660.98968,81.468744 659.30835,76.374261 661.18575,69.645939 666.58037,61.432469 669.01117,57.731515 671.04768,53.757683 671.10596,52.601731 671.54828,43.828464 669.53436,40 664.47695,40 659.38806,40 656.57648,43.141866 657.44093,47.862574 659.41092,58.620659 659.39418,58.812928 655.88565,65.725295 653.18674,71.042563 652.54513,73.413304 652.72081,77.419217 653.0425,84.754053 654.71399,87.825539 660.42029,91.567578 666.05759,95.264366 669.4453,95.777257 672.78321,93.439296 z M 669.57118,34.572437 C 669.90628,33.237277 669.74566,31.367937 669.21424,30.418348 668.34605,28.866979 668.07212,28.960297 666.51406,31.338191 665.56038,32.793694 665.04045,34.663033 665.35866,35.49228 666.25989,37.84083 668.89529,37.265364 669.57118,34.572437 z M 679.94151,43.562265 C 681.38575,42.024942 682.42622,39.398205 682.75844,36.450753 683.24893,32.099117 683.15479,31.847929 681.39262,32.80641 680.35168,33.3726 678.01253,35.382463 676.19452,37.272773 673.53084,40.042374 673.01794,41.223293 673.55293,43.35485 674.3907,46.692792 676.92328,46.775016 679.94151,43.562265 z"/></g><text text-anchor="middle" x="25.49234" y="136">791</text><text text-anchor="middle" x="25.49234" y="148">Hr04-014</text></svg>
