<?xml version="1.0" encoding="UTF-8"?>
<svg xmlns="http://www.w3.org/2000/svg" viewBox="1419.86 14.11 24.84 85.56">
  <path d="M1422.364 90.25C1422.7042 87.6375 1423.4162 82.575 1423.9463 79.0C1424.4763 75.425 1424.9504 60.2375 1424.9998 45.25C1425.0492 30.2625 1425.4849 18.0 1425.968 18.0C1429.795 18.0 1437.052 29.255243 1438.5409 37.5C1438.9382 39.7 1439.6023 42.175 1440.0166 43.0C1441.7142 46.38004 1442.6995 78.462198 1441.4217 88.75C1440.6459 94.99579 1438.4045 95.781125 1435.0 91.0C1432.1454 86.991104 1429.4293 87.158096 1426.8675 91.5C1425.7317 93.425 1424.1146 95.0 1423.274 95.0C1422.0304 95.0 1421.8608 94.114617 1422.364 90.25Z M1439.6002 84.317383C1440.513 79.451688 1439.225 50.024246 1437.8412 44.130545C1435.5759 34.481767 1433.7709 29.566245 1431.3075 26.336558C1429.9078 24.501451 1428.4785 23.000261 1428.1313 23.00058C1427.7841 23.000899 1427.5135 34.138399 1427.53 47.75058C1427.5465 61.362761 1427.1562 75.33468 1426.6626 78.799289C1426.1691 82.263898 1426.0437 85.377076 1426.3841 85.717462C1426.7245 86.057849 1428.1366 85.729692 1429.522 84.988225C1431.7603 83.7903 1432.3451 83.876786 1434.7705 85.764496C1438.4776 88.649737 1438.8059 88.551349 1439.6002 84.317383Z"/>
</svg>
