<?xml version="1.0" encoding="UTF-8"?>
<svg xmlns="http://www.w3.org/2000/svg" viewBox="2257.45 12.59 45.02 97.07">
  <path d="M 2264.5312,82.53125 2262.8438,87.46875 C 2263.8547,87.29818 2265.2592,87.707803 2267.4688,88.78125 2269.9323,89.978179 2272.6499,90.701213 2273.5,90.375 2276.3492,89.281675 2282.8547,76.620494 2285.7812,66.5 2287.3718,61 2288.48,55.911969 2288.2188,55.1875 2287.4241,52.984721 2286.448,55.10867 2284.1562,64 2282.0134,72.313888 2276.7485,84.139839 2274.2812,86.1875 2272.7225,87.481214 2268.9347,86.595159 2266,84.21875 2265.2241,83.590473 2264.7967,83.098254 2264.5312,82.53125 z M 2261.0625,92.65625 2259.5,97.21875 C 2260.3501,97.29869 2261.6624,97.94579 2264.25,99.25 2276.1429,105.24421 2280.7276,102.43072 2291.4375,82.5625 2295.1748,75.629249 2298.2298,66.968114 2299.5625,59.59375 2300.4301,54.793019 2298.4969,55.390035 2297.4375,60.25 2295.5157,69.065689 2291.6129,78.935745 2287.3125,85.84375 2278.7682,99.569041 2274.9906,101.34385 2265.5,96.125 2262.7559,94.616027 2261.5462,93.690051 2261.0625,92.65625 z M 2298.125,17 C 2297.2039,17 2290.1948,27.854269 2288.25,32.3125 2286.0052,37.458361 2289.1139,34.764092 2293.2812,27.9375 2297.7215,20.664001 2299.3501,17 2298.125,17 z M 2280.7812,17.3125 C 2280.5463,17.258552 2280.0922,17.493184 2279.4062,18.0625 2277.3201,19.793892 2269,34.036998 2269,35.875 2269,36.981502 2269.448,36.904549 2271,35.5 2272.1,34.504514 2273,33.346045 2273,32.9375 2273,32.528956 2274.8,29.246274 2277,25.625 2280.1876,20.378055 2281.486,17.474345 2280.7812,17.3125 z"/>
</svg>
