<?xml version="1.0" encoding="UTF-8"?>
<svg xmlns="http://www.w3.org/2000/svg" viewBox="456.52 14.07 51.48 90.17">
  <path d="M488.59777 98.264432C488.26899 97.935661 488.0 96.252675 488.0 94.524463C488.0 90.548843 485.93832 87.672647 483.43425 88.154888C482.37079 88.359691 480.41264 90.208624 479.0828 92.263628C476.22751 96.675926 474.33203 97.003504 472.93395 93.326276C471.62913 89.894347 472.50755 86.004764 475.62482 81.411207C478.22137 77.584977 478.23557 76.61192 475.83146 67.25C475.2312 64.9125 474.23606 63.003075 473.62004 63.006833C471.98098 63.016832 468.13784 69.060794 467.38867 72.806671C466.49365 77.281769 465.07372 77.78702 462.33621 74.60448C458.86128 70.564635 459.154 64.012435 463.1683 55.979112L466.3366 49.638778L464.24997 46.01317C463.10232 44.019085 461.84194 40.674387 461.44913 38.580508C460.56141 33.848603 462.6527 24.624282 465.11927 22.392064C467.65588 20.096462 470.0 21.31914 470.0 24.937822C470.0 28.111944 473.18405 35.077932 475.52166 37.017975C477.7223 38.844346 478.73631 37.469607 481.17341 29.355598C484.51999 18.213602 487.3352 18.167192 488.5995 29.233174C489.727 39.101762 491.96954 38.695869 496.79396 27.75C499.30902 22.04373 501.42463 21.687195 503.48658 26.622124C505.65907 31.821618 505.3635 34.733239 501.98733 41.390921C498.64928 47.973445 498.32575 50.195533 500.44885 51.957547C503.23213 54.267465 504.23699 59.541447 503.01518 65.42686C501.84233 71.07647 498.5938 76.364601 496.6866 75.728868C496.08462 75.528205 495.4594 73.382661 495.29724 70.960991C495.11461 68.233721 494.25723 65.812785 493.04448 64.600037C491.10059 62.656147 491.0782 62.663104 489.91957 65.57106C489.27772 67.181977 488.52402 70.657961 488.24469 73.295469C487.84136 77.10373 488.13633 78.544768 489.67756 80.295469C492.17245 83.129456 494.0 87.443975 494.0 90.5C494.0 95.078221 490.47619 100.14286 488.59777 98.264432Z M466.02877 69.424339C466.56736 68.007726 468.36828 64.871618 470.03082 62.455211C473.20036 57.848442 473.33173 53.448263 470.33408 52.297956C467.03467 51.031856 462.0 60.222449 462.0 67.511472C462.0 72.588734 464.39358 73.72521 466.02877 69.424339Z M475.0 42.066681C475.0 41.064696 474.39899 39.746097 473.66443 39.136462C472.35928 38.053288 468.7418 31.234005 467.62416 27.75C466.83036 25.275522 465.513 25.578673 464.16052 28.547053C461.77902 33.773867 463.39302 41.475813 467.88351 46.312992L470.49488 49.125984L472.74744 46.507228C473.98635 45.066913 475.0 43.068666 475.0 42.066681Z M487.92742 57.365141C490.9869 53.475645 490.72336 47.714155 487.36514 45.07258C482.94664 41.59699 479.28869 42.502183 475.6463 47.972506C473.37139 51.389095 473.57727 53.344168 476.58889 56.923275C480.01862 60.999275 484.91861 61.190229 487.92742 57.365141Z M491.75684 89.82123C491.36715 85.765593 490.65672 84.327576 487.7088 81.62739C484.24988 78.45914 484.16492 78.212184 485.10084 74.046688C485.63294 71.678518 486.42057 69.011716 486.85114 68.120462C487.28172 67.229208 487.60385 65.6 487.567 64.5C487.50843 62.751768 486.93352 62.54423 483.0 62.851352C480.525 63.044595 478.32682 63.36778 478.11515 63.56954C477.90348 63.771299 478.43873 67.794601 479.30461 72.510211L480.87892 81.084046L477.37155 84.29831C474.1867 87.217006 473.96221 87.770404 474.93022 90.316461C475.97429 93.06258 478.0 93.20341 478.0 90.529877C478.0 89.786227 479.42147 87.981703 481.15881 86.519822L484.31762 83.861857L486.65881 86.586468C487.94647 88.085004 489.0 90.104281 489.0 91.073752C489.0 93.877576 490.12048 96.043574 491.21953 95.364324C491.78825 95.012835 492.023 92.591127 491.75684 89.82123Z M487.99442 38.75C487.99136 37.5125 487.51177 34.781954 486.92868 32.68212C486.07133 29.594643 485.6039 29.083841 484.48541 30.012112C483.7247 30.643442 482.56966 32.773923 481.91864 34.746515C480.88082 37.891141 480.95968 38.497346 482.55862 39.666523C485.43928 41.772916 488.00085 41.341015 487.99442 38.75Z M497.28998 44.686458C501.16226 39.609641 503.20495 33.964657 502.51394 30.25C501.74701 26.127168 499.52164 26.064854 498.10572 30.126563C497.50627 31.846173 495.66224 35.452933 494.0079 38.141586C490.70889 43.503166 490.39697 44.996975 492.2 46.8C493.96286 48.562864 494.50501 48.337744 497.28998 44.686458Z M500.92315 61.331787C501.0255 55.780453 500.30766 54.210459 496.84945 52.422148C493.31213 50.592928 492.44251 51.037458 491.63218 55.089098C491.12714 57.614284 491.5857 58.951699 494.00302 62.003811C495.79439 64.265604 497.0 66.970265 497.0 68.727238C497.0 76.795197 500.76904 69.690256 500.92315 61.331787Z"/>
</svg>
