<?xml version="1.0" encoding="UTF-8"?>
<svg xmlns="http://www.w3.org/2000/svg" viewBox="1448.76 12.9 52.58 87.56">
  <path d="M1456.7755 94.038021C1451.551 89.928461 1451.1484 79.664299 1456.0087 74.490719C1457.7147 72.674825 1457.8892 71.838745 1457.0326 69.585747C1455.5552 65.699921 1455.7582 59.514375 1457.5 55.345757C1459.5942 50.333665 1459.4531 49.653067 1455.5 45.7C1452.8432 43.043206 1452.0 41.362991 1452.0 38.725727C1452.0 31.210335 1457.7625 20.599682 1462.4881 19.413623C1466.3302 18.449326 1467.1425 19.718325 1464.967 23.286292C1462.4478 27.417853 1462.1221 39.725903 1464.5077 40.641336C1466.6261 41.454253 1470.8936 38.406488 1472.1307 35.19711C1475.1283 27.420475 1477.6587 23.686773 1482.1819 20.366448C1486.3327 17.319473 1487.5723 16.884774 1490.5283 17.439339C1494.6162 18.206223 1495.0439 20.269895 1491.5848 22.536399C1488.3048 24.685513 1485.9454 30.888744 1486.6818 35.426891C1487.353 39.562489 1487.9784 40.119607 1493.5 41.5C1498.6673 42.791826 1498.8796 45.522687 1494.0156 48.131297C1489.4784 50.564606 1485.7054 50.492596 1480.4593 47.872569L1476.1995 45.745138L1473.1455 49.122569C1469.3864 53.279715 1468.4936 56.852396 1469.991 61.746538C1471.9594 68.180347 1473.2002 69.910978 1476.6645 71.054291C1479.6727 72.04709 1480.3363 71.894802 1483.0868 69.580455C1488.0803 65.378692 1493.2708 64.84223 1495.3928 68.308569C1496.2651 69.733364 1496.137 70.38725 1494.7893 71.390064C1492.494 73.098007 1491.0 77.286779 1491.0 82.014208C1491.0 85.277918 1491.559 86.324565 1494.5 88.567798C1498.9483 91.960697 1498.9365 93.733679 1494.4601 94.573469C1487.1688 95.94132 1478.9912 91.751197 1475.4005 84.80753C1473.7308 81.578785 1466.7616 79.123056 1464.5283 80.976531C1462.6821 82.508688 1461.7718 88.269479 1462.9048 91.249631C1463.5509 92.948982 1463.4941 94.105879 1462.727 94.873026C1461.1151 96.484908 1459.6194 96.27506 1456.7755 94.038021Z M1460.4247 86.770853C1461.715 76.814574 1461.6831 76.526001 1459.2516 76.18066C1455.2348 75.610146 1453.5444 84.284493 1456.5426 90.082356C1458.5819 94.025861 1459.5966 93.160291 1460.4247 86.770853Z M1462.7051 44.894928C1463.5118 44.088166 1463.4131 42.839676 1462.3394 40.269961C1461.4609 38.167213 1460.9684 34.308467 1461.1162 30.685655C1461.2524 27.35023 1460.9315 24.477155 1460.4031 24.301045C1458.6969 23.732294 1455.8642 29.915683 1455.2922 35.457481C1454.7804 40.41654 1454.9592 41.05766 1457.5138 43.425242C1460.6358 46.318578 1461.139 46.461031 1462.7051 44.894928Z M1492.0 91.407729C1492.0 91.08198 1491.1 89.671294 1490.0 88.272871C1487.6141 85.239689 1487.4859 82.012399 1489.4892 75.408931C1490.3082 72.709019 1490.9832 70.1625 1490.9892 69.75C1491.0135 68.063966 1487.8605 69.183564 1484.6528 72.0C1480.5626 75.591251 1478.3952 75.740916 1473.9416 72.739647C1470.4344 70.376129 1467.012 63.041721 1467.004 57.872124C1466.9977 53.747954 1469.5569 48.657176 1473.1206 45.704812C1477.0125 42.480584 1478.6666 42.338142 1481.4836 44.984615C1484.4097 47.733513 1489.0216 48.484856 1491.5 46.616427C1493.4422 45.15223 1493.4052 45.075074 1490.2196 43.945917C1484.1327 41.788391 1482.351 34.230841 1486.022 26.140796C1489.2886 18.941732 1488.4757 18.25691 1482.3875 23.079223C1477.7675 26.738664 1475.0996 31.311069 1475.0419 35.668441C1475.0086 38.185861 1474.2844 39.279151 1471.5172 40.989356C1466.0717 44.354857 1461.4878 50.434823 1459.5362 56.880527L1457.751 62.776437L1460.2463 68.226792C1462.9653 74.165795 1466.57 77.038179 1473.6745 78.926747C1477.0772 79.831259 1477.966 80.568636 1478.4812 82.914535C1479.1737 86.067438 1480.9223 87.916092 1485.5 90.334803C1488.5218 91.931419 1492.0 92.505558 1492.0 91.407729Z"/>
</svg>
