<?xml version="1.0" encoding="UTF-8"?>
<svg xmlns="http://www.w3.org/2000/svg" viewBox="257.91 16.35 26.09 80.3">
  <path d="M 260.3125 39.5 L 262.96875 43.25 C 263.70503 42.895113 264.28988 42.883624 264.8125 43.40625 C 265.51747 44.111221 265.58855 45.165912 265.3125 46.53125 L 266.625 48.375 C 266.78545 48.217048 266.9614 48 267.125 48 C 267.61085 48 268 48.869959 268 49.9375 C 268 51.696265 266.98499 52.933624 266.09375 52.5625 L 260.78125 62.8125 C 261.16554 63.43464 261.93668 64.762455 263.03125 66.75 C 264.31855 69.0875 265.73878 71 266.1875 71 C 267.55883 71 267.09426 74.666254 265.5625 75.9375 C 264.77015 76.595093 263.98265 78.31452 263.8125 79.75 C 263.7475 80.298406 263.43542 80.688118 263.21875 81.125 L 265.03125 85.15625 C 265.92964 85.307733 267.4515 86.622447 268.9375 89.03125 C 270.28556 91.216457 272.16831 93 273.09375 93 C 274.96628 93 282 85.691611 282 83.75 C 282 83.068847 280.3745 80.170303 278.40625 77.3125 L 274.84375 72.125 L 277.40625 68.34375 C 278.8245 66.256616 280 63.614414 280 62.5 C 280 61.385586 278.16686 57.693194 275.9375 54.28125 L 271.90625 48.0625 L 275.9375 42.9375 C 280.15355 37.603793 280.75537 35.370721 278.90625 31.6875 C 276.53145 26.95718 271.43442 20.001831 270.34375 20 C 269.71026 19.998937 267.10293 22.8125 264.53125 26.25 C 260.34668 31.843422 259.91365 32.923294 260.375 36.5 C 260.52489 37.662023 260.46128 38.579744 260.3125 39.5 z M 270.375 24 C 271.61725 24 278 33.178004 278 34.96875 C 278 36.583175 274.932 41.235656 272.5625 43.21875 C 271.42707 44.16902 270.275 44.943307 270 44.9375 C 268.82224 44.912629 262 36.013061 262 34.5 C 262 32.486873 268.76686 24 270.375 24 z M 271.25 53.15625 C 272.57107 53.317613 273.9027 54.98473 275.90625 58.28125 C 277.93906 61.625904 278.06569 62.414248 276.96875 65.0625 C 276.28536 66.712334 274.92591 68.502269 273.9375 69.03125 C 269.70314 71.297409 265.82546 69.187366 264.5 63.875 C 264.01004 61.911267 264.57421 60.208851 266.6875 57.15625 C 268.63551 54.342398 269.92893 52.994887 271.25 53.15625 z M 270.875 74.34375 C 271.51418 74.289901 272.18273 74.74363 273.46875 75.65625 C 277.25799 78.345268 280.12621 84.13422 278.625 86.03125 C 277.98147 86.844462 276.55976 88.250152 275.46875 89.15625 C 273.56611 90.736424 273.34686 90.5806 269.75 85.34375 C 267.6875 82.340853 266 79.544829 266 79.125 C 266 78.705171 267.10394 77.315311 268.4375 76.0625 C 269.63133 74.94096 270.23582 74.397599 270.875 74.34375 z "/>
</svg>
