<?xml version="1.0" encoding="UTF-8"?>
<svg xmlns="http://www.w3.org/2000/svg" viewBox="2189.02 30.68 46.92 70.13">
  <path d="M 2224,48.157628 C 2224,47.655622 2224.6546,46.701605 2225.4547,46.037591 2226.2548,45.373576 2228.0945,42.808149 2229.5429,40.33664 2233.0531,34.346838 2233.8082,35.471639 2230.5686,41.86466 2228.2683,46.404073 2224,50.493266 2224,48.157628 z M 2193.5625,79.21875 2193.4375,79.46875 2192.8438,83.03125 2198.3438,83.5625 C 2205.4586,84.266631 2205.724,84.047899 2208.25,75 2210.2064,67.992333 2211.4016,54.633787 2210,55.5 2209.4428,55.844415 2209,57.228023 2209,58.59375 2209,62.579608 2205.9459,76.180825 2204.375,79.21875 2202.7897,82.284239 2199.891,82.815955 2195.5625,80.84375 2194.4552,80.339239 2193.8507,79.920297 2193.5625,79.21875 z M 2191.6875,89.9375 2191.1562,93.15625 2195.8125,94.84375 C 2203.435,97.623051 2207.1242,97.603703 2209.6562,94.75 2212.0417,92.061342 2218.4049,78.126105 2219.8125,72.5 2221.3931,66.182108 2222.0635,56.176536 2220.9688,55.5 2220.4119,55.155853 2220,56.195723 2220,57.90625 2220,68.570735 2211.881,90.057176 2206.5312,93.5625 2204.3219,95.010058 2203.7533,95.04542 2201.0312,93.6875 2199.3668,92.857204 2196.6806,91.862232 2195.0312,91.5 2193.2551,91.109904 2192.2308,90.674717 2191.6875,89.9375 z M 2217.6562,34.09375 C 2217.4757,34.322917 2216.0972,36.1875 2214.5625,38.25 2213.0278,40.3125 2212.2,42 2212.75,42 2214.0897,42 2219.3571,35.044594 2218.5938,34.28125 2218.2632,33.950707 2217.8369,33.864584 2217.6562,34.09375 z"/>
</svg>
