<?xml version="1.0" encoding="UTF-8"?>
<svg xmlns="http://www.w3.org/2000/svg" viewBox="1801.19 70.71 57.68 31.89">
  <path d="M 1836.7188 82.65625 L 1834.9688 85.40625 C 1836.7378 86.690499 1841.8987 85.262539 1846.25 82.0625 C 1851.5383 78.173479 1853 78.170597 1853 82.0625 C 1853 86.167378 1844.2751 95.569435 1839.125 97 C 1837.1374 97.552108 1834.15 97.979882 1832.5 97.96875 C 1827.9544 97.938083 1816.3418 93.673487 1813.375 90.9375 C 1809.3235 87.201326 1806.3586 79 1809.0625 79 C 1809.6509 79 1812.2015 80.424331 1814.7188 82.15625 C 1817.5932 84.13387 1820.6348 85.342784 1822.875 85.40625 C 1825.2635 85.47392 1826.0194 85.310094 1826.5312 83.9375 L 1824.9688 82.59375 C 1823.9658 83.980143 1822.0931 83.738341 1818.7812 82.03125 C 1816.4351 80.821879 1813.375 78.840724 1812 77.625 C 1806.6386 72.884626 1806.2332 72.714743 1805.0938 74.84375 C 1803.814 77.235041 1806.6107 86.215468 1810.125 90.96875 C 1812.6526 94.3876 1821.2571 99.002843 1826.875 99.96875 C 1830.5853 100.60667 1835.6874 100.42364 1839.8438 99.46875 C 1841.127 99.173943 1844.5836 96.502598 1847.5312 93.53125 C 1853.5419 87.472461 1856.2526 81.207815 1854.0312 78.53125 C 1852.2745 76.414549 1850.6585 76.615469 1846.5 79.4375 C 1843.0562 81.774466 1838.2906 83.260664 1836.7188 82.65625 z "/>
</svg>
