<?xml version="1.0" encoding="UTF-8"?>
<svg xmlns="http://www.w3.org/2000/svg" viewBox="861.82 10.7 103.44 94.28">
  <path d="M907.24483 98.75C906.6948 98.0625 905.91298 96.375 905.50745 95.0C904.52485 91.668354 901.06985 88.0 898.91458 88.0C896.99754 88.0 892.49941 92.851125 891.50171 95.994604C890.47503 99.22939 888.15505 98.343415 887.42214 94.43666C886.36248 88.788184 887.55618 83.072683 890.41981 80.083701C893.69185 76.668427 893.65559 75.401969 890.0587 67.469182C883.73104 53.513826 878.68757 59.195117 876.04956 83.25C875.24545 90.582369 874.33595 94.994243 873.63049 94.984687C869.42734 94.927755 866.52258 85.555638 867.29885 74.555856C867.98455 64.839427 870.06446 58.272363 874.64718 51.354455L878.05581 46.208909L875.91017 42.572327C871.95915 35.875849 872.3781 21.0 876.51771 21.0C877.45635 21.0 879.25738 23.479156 881.00819 27.181235C883.5349 32.523962 883.85154 34.126987 883.34239 38.998275L882.75333 44.634081L887.12667 46.293885C889.532 47.206776 892.61223 48.076608 893.97163 48.226844C896.29542 48.483661 896.49118 48.124741 897.24455 42.226259C898.91409 29.154471 904.08615 19.543284 910.75119 17.127008C916.64913 14.988826 922.27086 16.64021 932.48287 23.510695L940.5 28.904502L943.0 26.054789C944.375 24.487446 947.40639 21.978176 949.73643 20.478634C953.7592 17.889692 954.09726 17.833707 956.43969 19.368529C959.22448 21.193188 960.55859 26.180292 959.52311 30.894793C958.90112 33.726699 953.98169 39.0 951.96182 39.0C951.47522 39.0 950.60098 40.768133 950.01907 42.929185C949.17773 46.05369 949.2913 47.743255 950.57362 51.179185C954.42463 61.49777 955.1349 65.504027 954.71727 74.551442C954.4805 79.680995 953.69298 84.685837 952.89973 86.102261C948.91087 93.224821 947.39421 94.987652 945.25 94.993677C942.54343 95.001283 942.55474 95.171919 944.70577 86.7784C946.5773 79.475574 946.36671 77.917014 942.03333 67.0C938.51861 58.145393 938.0 55.863946 938.0 49.256602C938.0 45.796831 937.55771 43.0 937.01059 43.0C936.46641 43.0 933.56005 40.771196 930.55201 38.047102C918.45458 27.091616 913.87588 27.66726 910.9988 40.505369C910.46179 42.901588 910.2999 46.249478 910.63902 47.945124L911.25562 51.028118L915.75376 48.514059C921.65003 45.218571 923.40644 45.340869 926.32306 49.25C933.12973 58.372956 935.45053 78.432824 930.91823 88.968449C928.82954 93.823727 925.60633 96.939716 924.16435 95.497639C923.79896 95.132219 923.65665 90.605456 923.84812 85.438167C924.1901 76.208719 924.13207 75.928356 920.55635 69.534379C918.55442 65.954586 916.05062 62.562277 914.99237 61.995917C912.89506 60.873469 912.96388 60.796001 907.50194 70.427553L904.70759 75.355106L907.22544 77.427553C910.55781 80.170432 911.63028 82.466949 912.46438 88.645888C912.98332 92.490105 912.753 94.576971 911.55384 96.895888C909.81557 100.25732 908.80027 100.69419 907.24483 98.75Z M910.29972 93.540459C910.89471 89.873967 909.53139 83.40609 907.68713 81.145824C907.07942 80.401028 905.5512 79.399666 904.2911 78.920575C903.03099 78.441485 902.01544 77.475864 902.03431 76.774751C902.0969 74.448722 910.46815 59.651609 912.33533 58.566551C913.88406 57.666543 914.85839 58.274646 918.57501 62.46089C923.89711 68.455498 926.43649 75.373548 926.38952 83.75C926.35126 90.572311 927.10714 91.569758 928.94785 87.125899C930.99101 82.193282 931.87106 72.846024 930.79564 67.5C929.59216 61.517369 924.37179 50.0799 922.52036 49.369439C921.79551 49.09129 918.93128 50.014608 916.15539 51.421256C909.85837 54.612199 908.19661 54.063499 907.80327 48.663452C907.18565 40.184373 911.49638 28.415489 915.59668 27.386379C918.53831 26.648077 925.59947 30.182836 931.51887 35.356896C934.25849 37.751556 937.4 39.996222 938.5 40.345043C940.25138 40.900422 940.52251 41.943967 940.68106 48.739631C940.82341 54.840567 941.56721 58.317592 944.15948 65.0C947.10954 72.604737 947.44313 74.485101 947.3267 82.852957L947.19656 92.205913L949.13566 89.017328C953.87963 81.216492 953.85997 65.467367 949.0932 55.0C947.70633 51.954571 947.03683 48.383078 947.02196 43.950888C947.00006 37.420152 947.00942 37.398371 950.35669 36.187981C956.80972 33.854537 959.53913 28.122311 956.17523 23.968071L954.2274 21.562598L950.48643 23.531299C948.4289 24.614085 945.79024 26.95693 944.62273 28.737621C943.45523 30.518313 941.96308 31.980813 941.30684 31.987621C940.6506 31.99443 935.96407 29.316471 930.89232 26.036601C920.08896 19.050134 915.33872 17.85358 909.55545 20.661982C906.47912 22.155872 905.30233 23.621355 903.27013 28.489251C901.89494 31.783339 900.33448 37.61976 899.80243 41.459076C898.42315 51.412185 897.78701 52.304925 892.67459 51.462093C890.37857 51.083571 888.05 50.440041 887.5 50.032028C886.95 49.624014 885.03656 48.797975 883.24792 48.196386C880.03721 47.116503 879.95407 47.168729 876.71289 52.301293C871.80629 60.071146 869.97794 65.608361 869.30973 74.721989C868.83079 81.254181 869.07079 83.896837 870.47751 87.580271C872.73469 93.490635 873.96086 91.892849 873.99249 83.0C874.02574 73.649527 877.17348 61.371975 880.35258 58.192879C882.72972 55.815732 883.12271 55.727712 885.55266 57.02818C888.24415 58.468624 891.07549 63.031927 894.2216 71.0C896.66398 77.185776 896.49276 79.454453 893.47992 80.827194C890.69109 82.097871 889.0 85.585015 889.0 90.0651C889.0 93.281842 890.53255 94.028795 891.43111 91.25C892.01031 89.458792 897.87339 84.974723 899.56188 85.031601C901.63268 85.101358 906.23393 90.263341 907.13535 93.528026C908.35659 97.951002 909.58321 97.955821 910.29972 93.540459Z M880.77144 36.421397C881.05647 31.253693 877.99228 24.268703 875.9846 25.509519C874.49384 26.43086 874.80612 34.600225 876.48577 38.620194C878.51361 43.473489 880.43691 42.486727 880.77144 36.421397Z"/>
</svg>
