<?xml version="1.0" encoding="UTF-8"?>
<svg xmlns="http://www.w3.org/2000/svg" viewBox="1027.46 10.41 22.81 91.24">
  <path d="M1030.4981 91.5C1031.5382 85.11984 1032.0069 28.951518 1031.0608 24.068409C1029.4561 15.786241 1032.2249 14.559569 1036.9668 21.451793C1046.3381 35.072397 1048.2627 45.880926 1048.0602 83.75C1047.9907 96.741113 1047.3018 97.507114 1041.6386 90.890859L1038.1213 86.781719L1033.9836 91.140859L1029.846 95.5L1030.4981 91.5Z M1046.0 71.149223C1046.0 60.781296 1045.6061 50.993796 1045.1246 49.399223C1044.6431 47.80465 1043.6863 44.078063 1042.9983 41.117919C1042.3104 38.157774 1040.0043 32.082774 1037.8737 27.617919L1034.0 19.5L1034.3493 45.0C1034.5413 59.025 1034.3716 74.1 1033.9721 78.5C1033.5726 82.9 1033.4359 86.707965 1033.6684 86.962145C1033.9008 87.216325 1034.9644 86.878825 1036.0319 86.212145C1039.0651 84.317858 1041.542 84.775627 1043.0 87.5C1043.7359 88.875 1044.7119 90.0 1045.169 90.0C1045.626 90.0 1046.0 81.51715 1046.0 71.149223Z"/>
</svg>
