<?xml version="1.0" encoding="UTF-8"?>
<svg xmlns="http://www.w3.org/2000/svg" viewBox="176.32 15.68 94.6 86.99">
  <path d="M 260.3125,39.5 C 260.01026,41.369466 258.99725,43.243755 256.28125,47.21875 248.10263,59.18857 246.97103,59.655586 239.25,54.0625 L 235.28125,51.1875 236.25,45.5 C 237.96311,35.55666 233.50215,20 228.9375,20 222.28621,20 218.33536,32.546008 220.875,45.65625 221.86963,50.790806 221.27299,51.899553 215,56.40625 206.15697,62.759337 203.22677,60.918587 202.40625,48.5 201.80611,39.416829 202.86145,33.309654 205.59375,30.0625 208.85309,26.188992 208.69631,23.999636 205.375,27.0625 201.45376,30.67861 199.9827,35.100861 200.03125,43.21875 200.11366,56.997772 203.21504,64.494468 208.3125,63.25 211.42861,62.489249 222.64705,54.403634 223.4375,52.34375 223.80319,51.390778 223.55983,46.526875 222.90625,41.53125 221.7917,33.012224 221.85335,32.155862 223.84375,27.65625 226.43689,21.794008 228.61971,21.739414 231.5,27.5 233.13214,30.764271 233.5,33.501432 233.5,42.375 L 233.5,53.25 239.4375,57.28125 C 244.99521,61.067736 245.49152,61.244066 247.875,59.90625 249.27192,59.12218 251.91758,56.434336 253.75,53.96875 259.11156,46.754579 261.4678,43.973456 262.96875,43.25 L 260.3125,39.5 z M 265.3125,46.53125 C 264.83094,48.912991 262.90496,52.519226 258.65625,58.875 253.8328,66.090546 253.67353,66.228653 250.125,65.75 248.13303,65.481307 244.33897,64.216903 241.6875,62.96875 237.56016,61.025849 236.66483,60.928917 235.46875,62.125 234.27267,63.321082 234.27325,64.129879 235.53125,67.78125 236.76167,71.352563 236.81082,73.103872 235.78125,78.53125 L 234.53125,85 229.96875,85 C 227.4493,85 224.6723,84.4375 223.8125,83.75 221.33048,81.765376 220.27249,77.016943 220.78125,70.1875 221.36287,62.380187 220.31657,60.943839 216.15625,63.90625 207.36142,70.168717 200.45596,69.395733 197,61.78125 195.4617,58.391949 195.04863,55.234014 195.03125,46.625 195.00668,34.451284 193.73794,31.028211 188.0625,27.6875 183.93958,25.260643 184.20088,26.595386 188.75,31.25 L 192.5,35.09375 193.0625,48.28125 C 193.51766,59.138072 193.98138,62.23642 195.75,65.625 198.83607,71.53774 204.88493,72.682417 212.75,68.875 215.15235,67.71204 217.35081,67.007059 217.65625,67.3125 218.63883,68.295075 218.81536,83 217.84375,83 217.33012,83 215.52623,82.276293 213.84375,81.40625 210.88881,79.878189 210.60151,79.929238 205.8125,82.90625 199.66641,86.726869 198.31182,86.743519 193.96875,83.03125 189.37726,79.106645 186.44139,79.004153 188.875,82.84375 189.75568,84.23322 192.70316,86.128621 196.96875,88.03125 199.58633,89.198801 200.43661,88.913704 206.71875,84.90625 L 209.9375,82.84375 217.375,85.4375 C 227.16312,88.815903 231.34891,88.702596 238.9375,84.9375 245.48296,81.689961 248.05298,81.71201 251.25,85.0625 252.21033,86.068927 254.57283,87.20096 256.5,87.5625 258.50759,87.939125 260,88.82934 260,89.625 260,91.292197 260.52187,91.330652 263.125,89.9375 264.48474,89.20979 264.8909,88.267591 264.46875,86.9375 264.00256,85.468674 264.37579,85.045729 265.03125,85.15625 L 263.21875,81.125 C 262.70995,82.150906 261.93697,83.003564 260.40625,83.625 257.59411,84.766658 256.94141,84.630969 253.4375,82.25 249.49506,79.571043 245.55847,78.989261 240.875,80.375 L 238.25,81.15625 238.75,73.8125 C 239.02562,69.783054 239.43572,66.308258 239.65625,66.0625 239.87678,65.816742 242.44611,66.41069 245.375,67.40625 251.60165,69.522752 253.95753,69.022479 257.5,64.8125 258.92176,63.122834 260.20863,61.918437 260.375,62.125 260.39991,62.155925 260.71359,62.702957 260.78125,62.8125 L 266.09375,52.5625 C 265.97666,52.513741 265.8601,52.516352 265.75,52.40625 265.09057,51.746816 265.77776,49.209026 266.625,48.375 L 265.3125,46.53125 z M 242.90625,88 C 242.2302,88 239.42298,89.443344 236.65625,91.21875 230.4188,95.221305 225.90959,95.318769 219.5,91.5625 213.44913,88.016458 210.63641,88.069457 202.90625,91.875 195.09978,95.718115 190.45403,96.0635 185.75,93.15625 181.38775,90.460228 180.62075,90.458205 182.03125,93.09375 182.64391,94.23851 184.59955,95.772537 186.34375,96.53125 191.38316,98.723361 195.16574,98.26898 203.59375,94.375 L 211.46875,90.71875 218.125,94.375 C 221.78562,96.37692 226.0837,98 227.6875,98 229.29131,98 233.24072,96.425 236.4375,94.5 242.13155,91.071223 245,90.189584 245,91.84375 245,92.299734 247.20626,93.704142 249.90625,94.96875 255.30337,97.496623 260.59649,97.247259 263.5,94.34375 265.58758,92.256171 264.73558,91.533766 261.9375,93.03125 258.58638,94.824717 251.5208,93.644141 247.5625,90.625 245.67069,89.182043 243.5823,88 242.90625,88 z M 202.90625,20.125 C 202.20721,20.403984 201.20385,21.218564 200,22.5 197.12787,25.557244 196.26133,25.614032 193.3125,22.84375 189.89979,19.637672 189.39639,21.327481 192.53125,25.4375 194.02707,27.398623 195.77898,29 196.4375,29 197.76751,29 204,22.329624 204,20.90625 204,20.105265 203.60529,19.846016 202.90625,20.125 z M 185.09375,85.5625 C 184.75916,85.898596 185.59084,87.058591 186.90625,88.125 188.22167,89.191408 189.57167,89.773596 189.90625,89.4375 190.24084,89.101404 189.40916,87.941409 188.09375,86.875 186.77833,85.808592 185.42833,85.226404 185.09375,85.5625 z"/>
</svg>
