<?xml version="1.0" encoding="UTF-8"?>
<svg xmlns="http://www.w3.org/2000/svg" viewBox="1747.09 18.54 97.81 86.97">
  <path d="M1772.2946 99.75C1771.772 99.0625 1770.0951 96.315071 1768.5683 93.644603C1765.2683 87.872903 1765.5388 84.984155 1769.9844 78.522612C1771.643 76.111983 1773.0 73.643269 1773.0 73.036581C1773.0 72.429893 1771.8674 69.698472 1770.4832 66.966756C1768.4928 63.039074 1767.4516 62.0 1765.5062 62.0C1762.2173 62.0 1760.2717 65.202249 1758.5441 73.458975C1757.7685 77.166254 1756.9087 80.42466 1756.6335 80.699877C1754.3622 82.971177 1751.5339 72.291288 1752.5725 65.365284C1753.9807 55.974471 1759.0201 48.0 1763.5464 48.0C1764.7411 48.0 1767.6944 49.570632 1770.1093 51.490294C1776.673 56.707984 1778.0 56.297474 1778.0 49.049221C1778.0 42.550058 1776.3289 33.321296 1775.0037 32.50231C1774.5448 32.218684 1772.8288 33.114635 1771.1903 34.493313C1767.5692 37.540323 1766.0543 37.617185 1762.6349 34.92742C1759.7331 32.64491 1759.2527 29.404286 1761.3839 26.489651C1763.1135 24.124313 1768.7126 24.110359 1772.3023 26.462439C1774.7431 28.061712 1775.0104 28.021497 1778.8566 25.476231C1783.3593 22.496472 1785.3052 22.699949 1789.5019 26.589387L1792.2269 29.114771L1795.9172 26.557386C1797.9469 25.150824 1800.3011 24.0 1801.1488 24.0C1804.6951 24.0 1807.3507 30.327666 1805.2143 33.687439C1803.7233 36.032405 1798.839 37.175933 1795.7605 35.900793C1793.8046 35.09063 1792.5628 35.037236 1791.8666 35.733371C1789.4494 38.15059 1787.9831 52.253495 1790.0182 53.511271C1790.5783 53.857389 1792.5439 53.208947 1794.3863 52.070288C1796.2287 50.93163 1798.2181 50.0 1798.8072 50.0C1799.3963 50.0 1801.9589 51.800732 1804.5019 54.001628C1809.6425 58.450798 1811.2279 58.335267 1814.7887 53.252034C1819.1277 47.057686 1819.1879 46.511492 1815.977 42.47112C1813.1159 38.870781 1812.2813 35.036437 1813.607 31.581787C1814.5331 29.168477 1817.9028 29.692589 1819.1569 32.444988C1820.5892 35.588484 1822.9534 36.475221 1824.8487 34.579833C1826.1109 33.317685 1826.1501 32.444431 1825.1019 28.945732C1824.4196 26.668487 1824.1176 24.549098 1824.4307 24.235977C1825.514 23.152636 1826.1252 24.813385 1826.7028 30.409682C1827.173 34.964709 1826.9424 36.406152 1825.4865 38.014962C1822.943 40.825455 1821.629 40.514682 1818.0242 36.25L1814.8543 32.5L1815.4261 36.0C1815.7502 37.984077 1817.124 40.490653 1818.598 41.787243C1820.509 43.468317 1821.0433 44.691297 1820.614 46.401892C1819.6857 50.100361 1813.7519 58.306832 1810.8291 59.934349C1808.2375 61.377424 1808.0085 61.281658 1803.1224 56.711228L1798.0866 52.000843L1792.9993 55.000421C1790.2013 56.65019 1787.4294 58.0 1786.8395 58.0C1785.6356 58.0 1786.2271 48.148256 1787.8301 41.5C1790.4105 30.797892 1790.4424 31.365012 1787.0757 28.074017C1783.2821 24.365676 1782.0394 24.264717 1779.0716 27.423778C1777.0811 29.542543 1776.9271 30.266135 1777.8474 33.173778C1779.6992 39.024195 1781.1073 52.337877 1780.2087 55.5C1779.0406 59.610462 1777.1484 59.655026 1771.9415 55.694706C1765.7072 50.952913 1763.8171 50.116406 1761.4016 51.029846C1758.0104 52.312268 1754.6798 60.50971 1754.2019 68.75C1753.7086 77.254438 1755.033 78.223259 1757.0461 70.830626C1758.5999 65.124581 1763.585 59.0 1766.6756 59.0C1767.8467 59.0 1769.9584 60.881785 1772.0061 63.75C1776.6256 70.220783 1776.5579 74.021465 1771.7106 80.326596C1769.6698 82.981224 1768.0 85.765914 1768.0 86.514796C1768.0 88.733512 1773.3842 96.9341 1774.8635 96.968392C1775.8752 96.991844 1776.0542 96.161405 1775.5571 93.75C1775.1887 91.9625 1774.8606 89.558976 1774.828 88.408836C1774.7551 85.839304 1781.9251 74.808358 1783.3577 75.285911C1783.9271 75.475712 1785.9168 77.842138 1787.7792 80.544635C1790.5876 84.619981 1791.0637 86.05894 1790.5695 88.979133C1789.4839 95.395233 1789.4905 96.294263 1790.6264 96.690915C1791.8136 97.105512 1796.0 90.799486 1796.0 88.596478C1796.0 87.887417 1795.2926 85.889264 1794.428 84.156138C1793.5634 82.423012 1792.6271 78.641375 1792.3473 75.7525C1791.8993 71.127384 1792.2039 69.932637 1794.8973 65.75C1796.5795 63.1375 1798.6158 61.0 1799.4223 61.0C1800.2288 61.0 1802.6012 62.57285 1804.6943 64.495222C1806.7875 66.417595 1809.4776 67.992595 1810.6725 67.995222C1813.3737 68.001163 1821.0938 59.419417 1824.4811 52.645438C1825.8162 49.97543 1828.5034 46.241959 1830.4527 44.348837C1835.2734 39.666983 1837.3364 35.321904 1837.1448 30.254112C1836.9496 25.09333 1838.6488 24.611061 1839.5779 29.563557C1840.4546 34.236801 1837.9118 39.878308 1832.3486 45.602394C1830.0171 48.001364 1827.2355 51.939805 1826.1674 54.354484C1825.0993 56.769163 1822.5996 60.544268 1820.6127 62.743606C1816.5496 67.240969 1816.2609 68.525787 1818.7062 71.227861C1819.8034 72.44029 1820.5535 75.328705 1820.8077 79.320516C1821.1292 84.369355 1820.8398 85.976273 1819.2572 87.930673C1815.4134 92.677638 1810.625 87.201054 1810.5038 77.919145C1810.4306 72.308246 1810.2827 72.001012 1805.725 67.989134C1803.1252 65.700731 1800.2463 63.9985 1799.2879 64.183067C1798.3343 64.366713 1796.5588 66.291316 1795.3424 68.459961C1792.8806 72.848593 1793.0552 75.909622 1796.1395 82.437829C1798.6615 87.775699 1798.4936 89.830169 1795.0978 95.184775C1791.5788 100.73365 1790.384 101.56361 1788.3479 99.873773C1787.1046 98.841884 1786.8974 97.23341 1787.3385 92.037683C1787.7789 86.850368 1787.5264 84.880346 1786.1159 82.5C1783.6706 78.373463 1781.9103 78.370554 1779.1209 82.488442C1777.0091 85.60591 1776.819 86.683663 1777.4293 92.077514C1777.8967 96.208728 1777.7387 98.609912 1776.9359 99.577183C1775.4784 101.33338 1773.5528 101.40508 1772.2946 99.75Z M1771.3276 31.706452C1773.0978 29.653337 1773.0978 29.544671 1771.3276 28.249919C1764.9774 23.605159 1757.6354 27.78749 1763.1388 32.914675C1765.7394 35.337473 1768.5552 34.922007 1771.3276 31.706452Z M1802.4182 33.393011C1804.6301 32.544228 1804.3983 28.283508 1802.0724 27.03877C1799.6936 25.765631 1797.8504 26.408694 1796.1711 29.097671C1793.9644 32.631171 1797.7036 35.202169 1802.4182 33.393011Z M1819.3357 82.56772C1820.044 77.399676 1818.5725 72.376746 1815.9368 70.966178C1812.2322 68.983523 1810.6691 76.878826 1813.449 83.532119C1815.6288 88.749114 1818.5541 88.269867 1819.3357 82.56772Z M1827.0 40.45034C1827.0 40.148027 1827.7639 38.460527 1828.6977 36.70034C1829.6314 34.940153 1830.6963 31.475 1831.0641 29.0L1831.7328 24.5L1831.8626 29.5C1831.9511 32.906978 1831.3612 35.535464 1830.011 37.75C1828.1862 40.742874 1827.0 41.806675 1827.0 40.45034Z"/>
</svg>
