<?xml version="1.0" encoding="UTF-8"?>
<svg xmlns="http://www.w3.org/2000/svg" viewBox="2952.37 15.12 81.49 89.91">
  <path d="M2976.0352 98.065741C2973.732 93.762278 2975.7594 85.013869 2980.1407 80.350282L2982.1859 78.173269L2979.4268 73.336635C2970.9676 58.507868 2967.2374 61.331296 2966.147 83.388164C2965.594 94.57552 2965.2541 96.524468 2963.8078 96.80092C2959.4351 97.63676 2956.0754 80.550954 2958.4261 69.431489C2959.745 63.192619 2964.7977 52.242681 2967.3259 50.144502C2968.5312 49.144216 2970.0091 49.393867 2975.0799 51.454334C2978.5256 52.85445 2981.4922 54.0 2981.6724 54.0C2982.248 54.0 2982.0231 47.223862 2981.393 45.581787C2981.0592 44.711804 2979.7492 44.0 2978.4819 44.0C2975.285 44.0 2970.7251 38.461858 2971.5954 35.636137C2973.4296 29.681215 2978.4728 23.89187 2983.4436 22.035162C2990.4901 19.403132 2990.1889 19.207981 2989.4302 25.913755C2988.5997 33.254904 2989.8353 33.828636 2995.0 28.5C2999.4779 23.88 3001.0149 23.94974 3000.5098 28.75C3000.2928 30.8125 3000.0893 33.286204 3000.0576 34.247119C3000.0259 35.208035 2998.425 37.737575 2996.5 39.86832C2993.3734 43.32912 2993.0 44.342874 2993.0 49.371201C2993.0 55.769705 2993.7739 56.209477 2998.3128 52.390218L3001.4144 49.780436L3003.4572 52.165046C3004.5807 53.476581 3006.9667 56.333558 3008.7592 58.513883C3011.4449 61.780487 3012.3248 62.291931 3013.7592 61.420148C3016.6443 59.666741 3019.4216 52.887815 3019.4622 47.5C3019.5022 42.211486 3019.0773 41.878699 3014.25 43.417528C3012.5766 43.950961 3012.0 43.737972 3012.0 42.58644C3012.0 41.063679 3014.0633 40.225858 3019.0 39.744012C3021.4571 39.504186 3021.4989 39.620078 3021.4361 46.5C3021.3646 54.331827 3018.2951 62.064164 3014.1703 64.802903C3011.9551 66.273781 3011.6708 66.109172 3006.1447 60.155909L3000.4157 53.984023L2996.1425 57.126615C2993.7519 58.884648 2991.5127 59.87947 2991.06 59.384604C2990.0154 58.242816 2988.9719 43.646488 2989.8395 42.313859C2990.2028 41.755911 2991.5506 40.74582 2992.8347 40.069213C2994.1187 39.392605 2995.8326 37.2516 2996.6432 35.311423C2998.2087 31.564667 2997.7575 29.943193 2995.5923 31.53537C2989.5499 35.978776 2988.8807 36.280715 2987.6987 35.097303C2987.0394 34.437301 2986.5329 31.670407 2986.573 28.94865C2986.6309 25.029957 2986.31 24.0 2985.0313 24.0C2982.6765 24.0 2975.3211 32.041408 2974.7639 35.224858C2974.1806 38.557308 2976.8136 41.298145 2980.146 40.827385C2982.1825 40.539688 2982.6055 41.106133 2983.6357 45.5C2984.9545 51.124993 2985.3153 57.351371 2984.3768 58.289911C2984.034 58.632695 2980.8252 57.332084 2977.2463 55.399663C2973.6673 53.467243 2970.142 52.115287 2969.4122 52.395316C2967.3558 53.184425 2962.9807 60.701904 2961.3166 66.305455C2959.5209 72.352358 2959.9305 86.950859 2962.0236 91.5C2963.3164 94.309877 2963.4462 93.739506 2964.0712 82.5C2964.4382 75.9 2965.2773 69.15 2965.9359 67.5C2967.2195 64.283763 2970.8002 60.0 2972.2049 60.0C2973.701 60.0 2979.384 67.060076 2982.7643 73.118077L2986.0286 78.96827L2982.1414 82.973779C2978.693 86.527053 2977.0 90.363738 2977.0 94.625C2977.0 96.596435 2978.9495 96.323247 2979.676 94.25C2980.4883 91.932013 2986.1089 85.990329 2987.4462 86.035963C2989.5425 86.107501 2993.746 90.566279 2994.4338 93.447845C2994.9785 95.729768 2995.3443 96.06862 2996.0534 94.947845C2997.8666 92.081775 2997.018 87.810516 2993.8375 83.79478L2990.6749 79.801752L2994.5875 72.337795C2996.7394 68.232618 2999.0177 64.434344 2999.6503 63.897185C3000.4464 63.221319 3002.6971 64.498747 3006.9583 68.044996C3012.7789 72.888915 3016.0 73.85917 3016.0 70.768513C3016.0 70.056672 3016.9466 69.030049 3018.1035 68.487128C3019.2604 67.944208 3020.7709 66.375 3021.4602 65.0C3022.1495 63.625 3023.5253 60.958187 3024.5174 59.073749C3027.1758 54.024416 3027.7703 38.161616 3025.5831 30.637754C3024.6665 27.484859 3023.2706 24.657336 3022.4811 24.35437C3021.6916 24.051404 3018.9537 24.97273 3016.3968 26.401761C3011.1707 29.322706 3011.0 29.374594 3011.0 28.042154C3011.0 26.480862 3019.4499 22.0 3022.3941 22.0C3026.1666 22.0 3028.6683 27.97037 3029.5173 39.0C3030.1607 47.358601 3028.871 55.641438 3026.1506 60.622955C3025.5868 61.65533 3024.1346 64.603145 3022.9236 67.173655C3020.8091 71.661913 3020.7868 72.009816 3022.3609 75.943892C3024.4426 81.146655 3024.4519 86.38069 3022.385 89.535183C3018.6655 95.21177 3014.0 90.895262 3014.0 81.777494C3014.0 78.599872 3013.5987 76.0 3013.1082 76.0C3012.6176 76.0 3009.9099 73.926331 3007.0909 71.391848C3001.2756 66.163391 3000.7959 66.25989 2996.5453 73.512924C2993.3949 78.888659 2993.3917 79.640568 2996.5 84.214812C2999.3907 88.46884 2999.6117 91.291767 2997.4577 96.447095C2995.5782 100.94529 2993.9224 100.62284 2992.2012 95.423475C2990.292 89.656425 2988.6636 88.30687 2985.5955 89.948913C2983.3742 91.13769 2982.3736 92.808819 2980.6251 98.25C2979.8768 100.57876 2977.3253 100.47634 2976.0352 98.065741Z M3011.0 36.035184C3011.0 34.902528 3014.2904 32.99023 3016.1843 33.022236C3016.9079 33.034466 3016.375 33.924459 3015.0 35.0C3012.2255 37.170238 3011.0 37.487395 3011.0 36.035184Z M3021.393 87.418213C3022.3059 85.039346 3022.1271 81.662969 3020.9022 78.149223C3019.7644 74.885412 3017.6061 73.978191 3016.6856 76.376856C3016.1791 77.69693 3016.7457 85.144191 3017.5509 87.75C3018.0989 89.523172 3020.6705 89.301099 3021.393 87.418213Z"/>
</svg>
