<?xml version="1.0" encoding="UTF-8"?>
<svg xmlns="http://www.w3.org/2000/svg" viewBox="1960.81 20.54 20.6 79.58">
  <path d="M 1962.8125 82.21875 L 1963.1562 85.6875 C 1966.8565 84.128691 1969.4744 72.715896 1971.4375 49.25 C 1972.2309 39.766006 1973.1768 31.499135 1973.5625 30.875 C 1974.9249 28.670664 1976.051 32.865879 1976.5938 42.21875 C 1976.8903 47.327003 1977.2983 52.017683 1977.5 52.65625 C 1977.9505 54.08218 1975.4669 69.026163 1973.875 74.5 C 1973.2352 76.7 1971.1551 81.9875 1969.2188 86.25 C 1967.091 90.933679 1965.6773 93.360016 1963.9375 93.78125 L 1964.2188 96.5 C 1968.9672 94.070415 1975.5103 78.415341 1978 62.65625 C 1979.4125 53.715631 1978.1742 33.701193 1975.8438 27.75 C 1974.5419 24.425533 1972.2168 24.154497 1971.5625 27.25 C 1970.733 31.174173 1968.9276 53.088329 1969.375 53.8125 C 1969.6109 54.194431 1968.9819 59.539023 1967.9688 65.6875 C 1966.4053 75.176758 1964.6317 80.638214 1962.8125 82.21875 z "/>
</svg>
