<?xml version="1.0" encoding="UTF-8"?>
<svg xmlns="http://www.w3.org/2000/svg" viewBox="2450.72 19.91 23.68 77.62">
  <path d="M 2456.0312,52.5 2457.25,55.75 C 2457.8068,55.567227 2458,55.849394 2458,56.75 2458,56.978174 2457.9052,57.185274 2457.875,57.40625 L 2458.375,58.71875 2453.1875,67.1875 2452.7188,68.25 C 2453.1478,68.684863 2453.517,69.296821 2453.9688,70.375 2456.9382,77.462121 2457.8199,80.282812 2458.4688,84.78125 2459.6083,92.680381 2460.111,94 2462.0312,94 2464.6305,94 2467.9944,89.28413 2468,85.625 2468.0027,83.911673 2466.8432,79.260799 2465.4062,75.3125 L 2462.7812,68.15625 2467.0938,60.0625 C 2471.271,52.222554 2471.3524,51.879357 2470.0312,48.25 2468.3013,43.497513 2468.5471,33.330284 2470.5,28.65625 2472.3641,24.19482 2472.3978,23.434916 2470.625,24.90625 2467.4178,27.568024 2466.0871,39.684884 2468.0312,48.75 2469.0278,53.396604 2468.9258,53.880691 2465.5,59.5625 2461.1572,66.765077 2460.4682,69.165154 2461.9688,71.96875 2463.7161,75.233755 2465.9878,83.174042 2466,86.125 2466.0107,88.737495 2463.5797,91.837795 2462.7188,90.3125 2462.4708,89.873293 2461.9693,88.15 2461.5938,86.5 2461.2183,84.85 2459.7723,79.913327 2458.375,75.53125 L 2455.8438,67.5625 2459,60.3125 2462.1875,53.09375 2460.25,50.28125 C 2457.8929,46.91322 2457.7209,45.945886 2457.6562,34.53125 2457.607,25.857195 2457.5774,25.701301 2456.2188,29.03125 2454.8194,32.460565 2454.9808,43.085128 2456.5312,49.1875 2456.8731,50.532831 2456.6324,51.511771 2456.0312,52.5 z M 2464.8125,26.21875 C 2464.7424,26.142273 2464.5442,26.41772 2464.1875,27 2462.1944,30.252923 2460.8032,39.204756 2461.4688,44.53125 2461.8438,47.53291 2462.552,50 2463.0625,50 2464.2311,50 2464.2498,49.804769 2462.9062,44.46875 2461.8275,40.184894 2461.8831,39.409848 2464.625,27.5 2464.8037,26.723627 2464.8826,26.295227 2464.8125,26.21875 z"/>
</svg>
