<?xml version="1.0" encoding="UTF-8"?>
<svg xmlns="http://www.w3.org/2000/svg" viewBox="1929.52 17.09 36.7 85.89">
  <path d="M 1962.8125 82.21875 C 1962.4497 82.533949 1962.0846 82.956549 1961.7188 82.9375 C 1961.0453 82.902437 1958.8761 80.906226 1956.875 78.5 L 1953.2188 74.125 L 1955.2188 66.8125 C 1958.0528 56.418893 1957.3155 39.071901 1953.6875 30.46875 C 1952.3069 27.194816 1950.497 24.092875 1949.6562 23.5625 C 1945.5865 20.995405 1940.1373 28.752639 1937.9688 40.1875 C 1935.8596 51.309578 1937.0575 66.401309 1940.3125 69.65625 C 1941.6925 71.036288 1940.9376 73.708089 1938.5312 75.96875 C 1933.5076 80.68825 1931.5231 93.316275 1935.125 97.65625 C 1936.3074 99.080966 1936.5483 99.060976 1937.7188 97.375 C 1945.6051 86.015955 1948.4053 83.99615 1951.1562 87.6875 C 1953.8859 91.35034 1961.0687 97 1963 97 C 1963.3813 97 1963.8062 96.711067 1964.2188 96.5 L 1963.9375 93.78125 C 1962.0943 94.227539 1959.8701 92.418765 1956 88.5 C 1953.0126 85.475 1949.6921 83 1948.625 83 C 1947.558 83 1944.5652 85.30069 1941.9688 88.125 C 1937.1283 93.389985 1935 93.812519 1935 89.5 C 1935 85.606414 1936.8902 81.721954 1940.7188 77.78125 L 1944.3438 74.0625 L 1942.5625 69.78125 C 1941.585 67.424071 1940.3962 64.450879 1939.9062 63.1875 C 1938.6211 59.873057 1938.7739 41.253195 1940.0938 40.4375 C 1940.6884 40.06996 1942.3771 40.971169 1943.875 42.40625 C 1947.2652 45.654293 1948.3103 45.65728 1950 42.5 C 1952.2266 38.33961 1954.7707 39.28249 1955.5625 44.5625 C 1956.2969 49.459478 1955.3837 61.863869 1954.0312 65.375 C 1953.5778 66.552257 1952.6738 69.3 1952.0312 71.5 C 1950.8673 75.485341 1950.8934 75.51924 1955.75 80.75 C 1958.4309 83.6375 1961.3662 86 1962.2812 86 C 1962.5866 86 1962.8649 85.810227 1963.1562 85.6875 L 1962.8125 82.21875 z M 1947.6562 25 C 1949.5109 25 1951.9945 29.167526 1952.6875 33.4375 C 1953.1639 36.373245 1952.8304 37.549611 1950.9688 39.53125 C 1948.0581 42.629622 1946.9697 42.624108 1943.5312 39.4375 C 1941.191 37.268664 1940.8525 36.309188 1941.3438 33.28125 C 1941.9506 29.542383 1945.4174 25 1947.6562 25 z "/>
</svg>
