<?xml version="1.0" encoding="UTF-8"?>
<svg xmlns="http://www.w3.org/2000/svg" viewBox="721.16 17.36 18.28 85.97">
  <path d="M724.52262 97.75C723.66078 95.151697 723.16346 25.700264 723.9911 23.523396C724.74999 21.527378 725.48856 21.265627 729.92682 21.419765C732.71476 21.516587 735.55925 22.159345 736.2479 22.848115C737.20866 23.809033 737.44301 31.476433 737.25506 55.800212C736.97614 91.896249 736.60983 96.603261 733.96967 98.016231C731.35465 99.415747 725.01588 99.237111 724.52262 97.75Z M733.60478 94.165556C734.4176 92.535203 734.72131 81.872134 734.6299 58.174414L734.5 24.5L731.0 24.831445C729.075 25.01374 727.16154 25.487196 726.74788 25.883569C725.98133 26.618066 725.83482 57.690081 726.48379 81.892435C726.84956 95.533195 727.40325 97.363714 730.97488 96.739889C731.78607 96.598206 732.96952 95.439756 733.60478 94.165556Z"/>
</svg>
