<?xml version="1.0" encoding="UTF-8"?>
<svg xmlns="http://www.w3.org/2000/svg" viewBox="321.77 14.51 65.44 76.7">
  <path d="M328.69194 83.055647C325.84108 78.22952 324.74847 69.913855 326.02635 62.768236C327.31647 55.55417 333.08008 44.426746 336.00791 43.497489C337.2425 43.105645 339.85274 43.883563 342.93826 45.562911C348.5742 48.630378 351.0 48.273768 351.0 44.377775C351.0 42.514449 349.7394 40.528997 346.88068 37.889849C343.40374 34.679955 342.8656 33.671612 343.42979 31.423715C345.01647 25.101882 353.7625 18.0 359.96122 18.0C362.85165 18.0 363.20514 19.44684 361.41051 23.932053C358.3324 31.625013 361.09392 32.604779 369.94719 26.960802C372.39315 25.401502 374.75565 24.348983 375.19719 24.621872C375.63874 24.894761 376.0 26.936476 376.0 29.159017C376.0 32.421311 375.34483 33.855173 372.6 36.6C370.73 38.47 368.3101 40.0 367.22244 40.0C364.48608 40.0 363.24376 41.825645 362.85367 46.420139C362.41355 51.603848 364.05093 52.020608 369.49544 48.110656C371.87778 46.399795 374.29768 45.0 374.87301 45.0C376.37618 45.0 381.0 50.215513 381.0 51.911041C381.0 52.698354 381.73455 54.15419 382.63234 55.146234C383.91181 56.560028 384.23751 58.904439 384.13901 65.991131C384.01124 75.183209 382.63292 80.402733 379.68853 82.844541C376.50744 85.482639 375.75011 83.450431 378.63614 80.020581C381.30261 76.851654 381.49917 76.027186 381.488 68.058536C381.47841 61.217447 381.04157 58.683893 379.31109 55.433102C375.98795 49.190419 374.55492 48.340086 370.70197 50.324593C368.94089 51.231658 366.30742 52.934018 364.84983 54.107617C363.39224 55.281215 361.70474 55.935552 361.09983 55.561699C359.68796 54.689115 359.66549 43.493558 361.07034 40.86857C361.65903 39.7686 364.13696 38.012917 366.57686 36.967054C369.21616 35.835717 371.48125 34.037884 372.16896 32.528516C373.55639 29.483448 372.55567 28.09804 370.20204 29.805474C366.976 32.14579 361.79011 34.111535 359.64773 33.80615C357.90971 33.558403 357.50682 32.832321 357.53575 30.0C357.55541 28.075 357.92324 25.4875 358.35314 24.25C359.03884 22.276163 358.80056 22.0 356.41178 22.0C352.83285 22.0 347.4154 26.208766 346.54853 29.662675C345.96325 31.994607 346.44867 32.947095 349.79896 36.040646C353.62653 39.574898 353.72387 39.82966 353.25621 45.088647C352.53773 53.168139 351.50832 53.736078 344.25931 50.052393C338.74459 47.250018 335.0 46.851929 335.0 49.068034C335.0 49.537764 334.16536 50.72712 333.14524 51.711045C327.79153 56.874807 326.3635 72.435355 330.49581 80.580522C333.42126 86.346844 333.3432 86.0 331.71561 86.0C331.00919 86.0 329.64854 84.675041 328.69194 83.055647Z M348.57557 83.75C348.32118 82.5125 347.91956 77.345428 347.68307 72.267617C347.01413 57.903783 342.86479 53.810467 338.25 62.96189C336.53062 66.371518 336.0 69.142558 336.0 74.71189C336.0 81.496758 335.10918 83.603705 333.40581 80.847598C332.23987 78.96106 332.89966 69.870828 334.60038 64.389458C336.28653 58.955082 340.09619 54.0 342.58822 54.0C345.31052 54.0 348.75352 58.870691 349.48654 63.758808C350.62792 71.370101 350.92988 86.0 349.94559 86.0C349.44647 86.0 348.82996 84.9875 348.57557 83.75Z M356.0 82.269116C356.0 71.759297 363.01181 57.0 368.00479 57.0C368.91569 57.0 371.19276 59.132996 373.06496 61.739991C376.0262 65.863432 376.47099 67.261726 376.48448 72.489991C376.50245 79.449297 375.48246 82.882457 373.87458 81.274577C373.1281 80.528099 373.15581 79.577379 373.9683 78.059225C375.7416 74.745787 373.34754 65.273825 370.21858 63.223651C368.45025 62.064996 367.35368 61.915728 366.14901 62.669687C363.52458 64.312215 359.14356 74.002813 358.42486 79.755127C357.6408 86.03049 356.0 87.731604 356.0 82.269116Z"/>
</svg>
