<?xml version="1.0" encoding="UTF-8"?>
<svg xmlns="http://www.w3.org/2000/svg" viewBox="2094.08 18.93 33.43 84.06">
  <path d="M 2123.5312 80.8125 C 2122.4268 80.678906 2121.1011 79.66283 2119.1562 77.65625 L 2115.9062 74.3125 L 2118.0625 63.40625 C 2120.5217 51.063414 2120.3242 39.996027 2117.5 31.5 C 2115.0765 24.209202 2113.7781 22.754969 2110.75 23.90625 C 2104.037 26.458528 2099.0603 52.291227 2102.3438 67.4375 C 2103.8201 74.248012 2103.793 74.417481 2101.5312 77.4375 C 2100.2658 79.127145 2098.4871 83.139638 2097.5625 86.375 C 2096.1872 91.188147 2096.075 92.803383 2097.0625 95.1875 C 2098.7119 99.169473 2101.0925 98.42281 2102.9688 93.34375 C 2106.1834 84.641278 2111.2611 82.453202 2114.8438 88.25 C 2117.1151 91.925069 2122.1613 96 2124.4375 96 C 2124.726 96 2125.1458 95.652599 2125.5 95.5 L 2125.25 93.75 C 2125.1334 93.788773 2124.9419 94 2124.8438 94 C 2123.1006 94 2115.8209 87.54351 2114.3438 84.6875 C 2112.0871 80.32454 2108.2679 81.289797 2104.5 87.1875 C 2101.1934 92.363056 2099 93.313588 2099 89.5625 C 2099 85.787001 2100.838 81.784403 2104.1562 78.34375 C 2106.5651 75.845924 2106.9698 74.819565 2106.1875 73.34375 C 2103.1128 67.542627 2102.4648 43.726444 2105.2812 40.21875 C 2106.0965 39.203302 2107.1178 39.685614 2110 42.5 C 2113.2357 45.65962 2113.84 45.891161 2114.9688 44.53125 C 2117.1024 41.960222 2118.0015 42.780402 2118 47.25 C 2117.9986 51.786576 2115.7708 65.289356 2114.0938 70.875 C 2113.144 74.037781 2113.3337 74.575947 2117.2812 79.09375 C 2120.1495 82.376374 2122.1343 83.915455 2123.9062 83.65625 L 2123.5312 80.8125 z M 2111.75 25.96875 C 2112.9812 25.801119 2114.1376 26.888794 2115 29.25 C 2117.6942 36.625994 2117.8292 37.785415 2116.3438 39.90625 C 2114.4605 42.595038 2112.6118 42.554112 2109.9688 39.75 C 2106.2793 35.835632 2106.0372 34.641549 2108.0312 30.1875 C 2109.213 27.547978 2110.5188 26.136381 2111.75 25.96875 z "/>
</svg>
