<?xml version="1.0" encoding="UTF-8"?>
<svg xmlns="http://www.w3.org/2000/svg" viewBox="235.34 15.82 34.66 91.91">
  <path d="M 237.34375,102.0625 C 238.91396,100.58656 241,97.769141 241,96.78125 241,96.257801 244.15,90.176131 248,83.28125 251.85,76.386369 255,70.04181 255,69.1875 255,67.418723 248.32574,76.449461 247.375,79.5 247.03217,80.6 245.94919,82.625 245,84 243.73301,85.835354 239.71,93.58959 237.34375,98.28125 L 237.34375,102.0625 z M 263.34375,89.03125 C 263.11149,88.941209 262.70347,89.048737 262.125,89.40625 261.03587,90.079369 255,100.30307 255,101.46875 255,103.55164 257.85617,100.65316 260.8125,95.59375 263.17901,91.543752 264.04053,89.301374 263.34375,89.03125 z M 256.125,20 C 249.17548,20 246.77298,21.51066 243.46875,28.03125 239.74105,35.387518 240.22694,39.133187 245.53125,44.4375 247.01969,45.925946 248,48.051116 248,49.78125 248,51.364583 248.32748,52.983738 248.71875,53.375 249.86515,54.521406 251.11944,49.868817 250.46875,46.90625 250.14041,45.411315 248.32998,42.604869 246.4375,40.65625 242.42535,36.525064 242.26335,35.159331 245.09375,29.3125 247.44958,24.44601 248.72339,23.556061 254.625,22.65625 262.10013,21.516527 266.32069,27.363741 264.0625,35.75 263.48123,37.908681 262.10232,40.502415 261,41.5 259.51973,42.839627 259,44.57783 259,48.15625 259,50.821006 259.45,53 260,53 260.55,53 261,51.220301 261,49.0625 261,46.386329 261.74702,44.247243 263.375,42.3125 265.80263,39.427428 267.98991,33.290827 268,29.28125 268.00307,28.062888 266.61322,25.475388 264.90625,23.53125 262.03831,20.264846 261.36809,20 256.125,20 z M 253.46875,28 C 249.09834,28 247.40505,34.769444 251.125,37.375 254.80635,39.953516 259,37.358379 259,32.5 259,29.053714 257.7312,28 253.46875,28 z M 254.15625,30.625 C 255.80492,30.317267 257.0928,31.410473 256.8125,33.375 256.624,34.696116 255.65311,35.613257 254.25,35.8125 251.27958,36.234302 250.02114,33.204384 252.4375,31.4375 253.02867,31.005222 253.60669,30.727578 254.15625,30.625 z"/>
</svg>
