<?xml version="1.0" encoding="UTF-8"?>
<svg xmlns="http://www.w3.org/2000/svg" viewBox="1551.88 16.32 34.69 86.22">
  <path d="M 1553.875,84.71875 1553.9688,88.625 C 1556.9919,89.669082 1559.9465,88.621999 1562.5938,85.25 1568.4114,77.839689 1569.209,72.854799 1566.5312,60.125 1565.233,53.952837 1565.233,52.70115 1566.5312,49.59375 1568.7215,44.351908 1568.2995,40.928047 1564.9688,37.03125 1561.6062,33.097299 1561.1118,28.713122 1563.625,25.125 1564.6551,23.654384 1564.8921,22.485814 1564.2812,21.875 1562.6496,20.243301 1560.8898,23.520183 1560.375,29.1875 1559.8929,34.49607 1560.2669,35.587301 1564.3125,41.28125 1565.9818,43.630736 1566.0003,44.089973 1564.5625,47.53125 1562.6194,52.181788 1562.6006,55.669798 1564.5,63 1567.1466,73.213637 1563.0303,86 1557.0938,86 1556.1317,86 1555.0002,85.45209 1553.875,84.71875 z M 1570.375,22.1875 C 1570.0438,21.829507 1569.1572,22.332054 1567.9062,23.875 1565.8258,26.4411 1565.4256,31.378842 1566.9688,35.4375 1567.5051,36.848305 1568.3752,38 1568.9062,38 1570.7456,38 1570.9818,36.184949 1569.5,33.34375 1567.6479,29.792607 1567.6579,29.186158 1569.5312,25.59375 1570.4968,23.742339 1570.7062,22.545493 1570.375,22.1875 z M 1554.1562,94.4375 1554.25,97.5 C 1561.3691,98.621088 1567.2726,95.91046 1571.6875,89.28125 1576.9587,81.366405 1578.1326,73.542929 1575.9062,61.5 1574.2473,52.525706 1575.4199,47.317346 1580.0312,43.0625 1583.6137,39.757102 1584.5666,37.36682 1584.1562,32.75 1583.9464,30.388015 1580.734,30.531448 1578.5,33 1574.7129,37.184656 1572.5771,29.879483 1575.5,22.75 1576.4938,20.326017 1574.3429,20.517834 1573.0312,22.96875 1572.4543,24.046572 1571.6993,26.852641 1571.375,29.21875 1570.9053,32.646204 1571.2199,34.017546 1572.8438,36 1574.6152,38.162775 1575.123,38.33647 1576.9062,37.25 1581.6022,34.388823 1582.6807,37.373673 1578.1562,40.71875 1572.1095,45.189268 1570.6643,53.065721 1573.5625,65.5625 1575.8294,75.337235 1574.1331,82.435567 1567.8125,89.84375 1564.056,94.246647 1559.8417,95.704826 1554.1562,94.4375 z"/>
</svg>
