<?xml version="1.0" encoding="UTF-8"?>
<svg xmlns="http://www.w3.org/2000/svg" viewBox="-4.42 16.99 163.18 93.38">
  <path d="M 151.34375,77.8125 C 150.32089,79.483114 150.05922,79.72255 148.84375,81.75 136.5045,102.33229 135.84366,103.53115 136.6875,104.375 137.64631,105.33381 137.5748,105.41739 141.46875,98.75 143.47635,95.3125 146.89055,89.8 149.03125,86.5 149.86665,85.212184 150.53,83.997111 151.34375,82.6875 L 151.34375,77.8125 z M 147.15625,21.5625 C 146.77898,21.807862 146.17951,22.732112 145.125,24.5 141.30335,30.907047 138.82725,35.218736 136.4375,39.625 128.95367,53.423818 125.18467,59.795359 116.90625,72.75 113.83127,77.561954 110.12751,83.525 108.65625,86 105.30557,91.636641 104.13577,93.550281 101.28125,98.21875 100.02735,100.26946 99,102.662 99,103.53125 99,106.12007 100.50227,104.45957 105.0625,96.78125 107.43691,92.783312 113.51481,82.975 118.5625,75 133.68521,51.107166 148.16576,25.236569 147.8125,22.75 147.67177,21.759441 147.53352,21.317138 147.15625,21.5625 z M 147.84375,54.90625 C 147.15967,54.208016 144.01752,58.611332 137.53125,69.25 132.75281,77.0875 125.98606,88 122.46875,93.5 118.95144,99 116.04895,103.8375 116.03125,104.25 115.9509,106.12256 118.09639,104.67196 120.46875,101.25 130.38622,86.944804 148,57.696905 148,55.53125 148,55.227281 147.94148,55.005998 147.84375,54.90625 z M 87.53125,22.1875 C 86.605114,21.261364 84.583644,24.155922 80.34375,32.5 78.387442,36.35 76.436342,39.95 76,40.5 75.563658,41.05 69.460183,52.075 62.46875,65 55.477316,77.925 48.237301,91.120533 46.375,94.3125 44.5127,97.504467 43,100.54196 43,101.0625 43,101.58303 43.189757,102 43.40625,102 44.770876,102 59.642167,77.001708 65.71875,64.5 69.69422,56.321031 73.840082,48.828356 79,40.5 84.366138,31.838796 88.441661,23.097911 87.53125,22.1875 z M 127.8125,22.1875 C 127.62914,21.235372 123.60973,27.242164 118.59375,36 113.71364,44.520596 108.49331,53.525 106.96875,56 105.44418,58.475 102.39593,63.875 100.21875,68 96.195938,75.621862 89.600162,87.051701 83.46875,97 81.604359,100.025 80.052662,102.8375 80.03125,103.25 79.951169,104.79277 81.974757,103.92145 83.5,101.75 88.182448,95.083722 94.92206,83.608312 104.09375,66.71875 112.88924,50.521945 113.11322,50.137746 117.6875,42.375 125.50365,29.110656 128.13396,23.856706 127.8125,22.1875 z M 107.78125,23.875 C 107.55507,23.196458 103.80397,28.820674 99.4375,36.375 90.154648,52.435048 81.749808,66.854975 78.375,72.5 77.059757,74.7 73.785932,80.775 71.125,86 68.464069,91.225 65.337079,97.075 64.15625,99 62.975421,100.925 62.002056,102.8375 62,103.25 61.997944,103.6625 62.585909,104 63.3125,104 64.596672,104 69.776295,95.303167 77.59375,80 79.700961,75.875 83.281361,69.575 85.53125,66 87.781138,62.425 91.988955,55.01858 94.90625,49.53125 97.823544,44.043919 101.44606,37.743919 102.9375,35.53125 106.22699,30.651033 108.33823,25.545954 107.78125,23.875 z M 31.03125,22.9375 C 30.439405,23.08165 29.306305,25.071181 24.46875,33.5 21.312133,39 17.280105,45.75 15.5,48.5 10.838092,55.701958 3,70.481022 3,72.0625 3,72.872269 3.3164664,73.007943 3.8125,72.4375 5.4733124,70.52755 11.786489,60.375306 13.875,56.25 15.055519,53.918194 18.511273,47.949142 21.53125,42.96875 28.435332,31.582891 32.296021,23.952272 31.5625,23.21875 31.368393,23.024643 31.228532,22.88945 31.03125,22.9375 z M 50.09375,23 C 49.089233,23 35.562539,44.339383 29.5,55.5 27.408648,59.35 23.832513,65.65 21.53125,69.5 19.229987,73.35 15.952815,78.975 14.28125,82 12.609684,85.025 9.3947574,90.627478 7.125,94.46875 4.8552427,98.310021 3,101.79752 3,102.21875 3,104.39053 5.2157803,102.49609 7.21875,98.59375 14.011926,85.358775 17.555104,79.21058 22.03125,72.9375 24.761155,69.111684 27,65.72024 27,65.375 27,64.400439 36.646171,47.677861 44.1875,35.59375 51.007348,24.665729 51.803236,23 50.09375,23 z M 14.09375,23.125 C 13.562501,23.418294 12.887074,24.327571 12.28125,25.75 11.637065,27.2625 9.2888954,31.4003 7.0625,34.9375 4.8361046,38.4747 3,41.9622 3,42.6875 3,45.935648 5.2864374,43.311154 9.9375,34.75 12.701412,29.6625 14.960065,24.9375 14.96875,24.25 14.982591,23.154394 14.624999,22.831706 14.09375,23.125 z M 69.46875,23.15625 C 69.288895,23.122704 69.049426,23.150553 68.75,23.25 67.380569,23.704823 64.637317,28.342315 55.0625,46.5 51.582222,53.1 48.197431,59.175 47.53125,60 44.501546,63.751989 24.993529,99.521667 25,101.3125 25.002355,101.96408 26.354709,100.475 28,98 29.645291,95.525 30.997645,93.132251 31,92.6875 31.002354,92.242749 32.32406,90.217749 33.9375,88.1875 37.611467,83.564416 46.15435,68.890013 61.46875,40.875 68.893218,27.293237 70.727734,23.391074 69.46875,23.15625 z"/>
</svg>
