<?xml version="1.0" encoding="UTF-8"?>
<svg xmlns="http://www.w3.org/2000/svg" viewBox="2064.66 20.93 23.44 78.65">
  <path d="M 2066.6562 79.625 L 2066.875 84.71875 C 2067.2285 84.822276 2067.6234 84.887705 2068.125 84.8125 C 2069.7461 84.569464 2070.9161 82.781014 2073 77.34375 C 2075.6439 70.445255 2079.0144 51.529697 2079 43.6875 C 2078.9896 38.050838 2081.0832 30.419765 2082.125 32.28125 C 2083.7349 35.158045 2084.2196 47.602396 2083.125 58.375 C 2081.745 71.956254 2079.0611 80.930932 2074.25 88 C 2072.195 91.01934 2069.831 93.623104 2069 93.78125 C 2068.7073 93.836952 2067.928 93.315253 2067.2188 92.875 L 2067.375 95.8125 C 2067.4703 95.83079 2067.6674 96 2067.75 96 C 2072.0686 96 2079.0362 84.9492 2082 73.4375 C 2086.0916 57.545046 2085.4202 24.5 2081 24.5 C 2079.8125 24.5 2079.24 27.097789 2078.2812 37 C 2076.0393 60.15422 2072.6872 76.432425 2069.4062 79.9375 C 2068.6647 80.729762 2067.9318 81.18251 2067.7812 80.9375 C 2067.7261 80.847738 2066.9902 80.017262 2066.6562 79.625 z "/>
</svg>
