<?xml version="1.0" encoding="UTF-8"?>
<svg xmlns="http://www.w3.org/2000/svg" viewBox="499.86 14.54 85 88.47">
  <path d="M521.00804 95.019411C519.51417 91.412886 520.29699 87.709535 523.55873 82.952674L525.9911 79.405348L523.90354 73.452674C520.53054 63.834577 519.07892 62.955716 516.13607 68.75C514.04857 72.860135 512.42104 80.082109 511.39849 89.772377C510.6644 96.728987 509.97084 97.779697 507.79834 95.226419C504.56856 91.430548 503.7251 87.13107 504.2665 77.223232C504.88444 65.915021 507.52077 57.153416 511.58047 52.916004C515.01254 49.333697 515.96298 49.310759 522.11968 52.661656C524.80937 54.125567 527.19106 55.138067 527.41232 54.911656C527.93242 54.379466 528.344 49.273277 528.1508 45.75C528.01015 43.18514 527.7008 43.0 523.55576 43.0C514.55215 43.0 510.78323 34.940903 515.90856 26.647948C520.76284 18.793562 525.63697 18.558609 530.73887 25.933066C532.25749 28.128133 533.94401 29.941175 534.4867 29.962049C535.02938 29.982922 538.40438 28.003307 541.9867 25.562905C545.56901 23.122503 549.175 21.044186 550.0 20.944423C555.05784 20.332802 556.27614 21.853402 557.97156 30.893972C558.83214 35.482867 557.79874 40.361095 555.42696 42.90598C554.31824 44.095618 553.78469 43.749404 551.95953 40.65598C550.19179 37.659892 549.23366 37.00574 546.65122 37.031803C540.65751 37.092294 538.0 41.2495 538.0 50.5651C538.0 56.685454 538.69051 57.095772 543.77417 53.996262C548.31729 51.226319 550.10053 51.476769 553.92421 55.421805C558.27725 59.913007 561.0374 60.519808 565.71345 58.013595C570.72721 55.326381 572.62541 55.471569 575.95044 58.796589C578.90376 61.749912 581.0 68.883089 581.0 75.979451C581.0 83.599209 572.82647 97.0 568.17896 97.0C566.6127 97.0 566.18955 94.757311 567.23556 92.0C568.78016 87.928351 570.00275 77.749219 569.36746 74.25C568.72152 70.692133 567.52388 70.319501 562.53403 72.123855C559.71498 73.143236 558.89945 72.910837 553.76107 69.623855C546.01549 64.669069 544.0826 64.849073 540.16841 70.889696C536.45089 76.626819 536.3392 77.784403 539.0 83.0C541.54542 87.989429 541.62416 94.12517 539.17126 96.345012C536.58306 98.687298 536.17978 98.489779 534.38332 94.0C533.50306 91.8 532.22645 90.0 531.54641 90.0C529.93834 90.0 527.4197 92.899039 526.55089 95.75C525.56527 98.984278 522.48201 98.57788 521.00804 95.019411Z M533.79433 87.323596C534.90852 88.326574 536.09417 90.239074 536.42912 91.573596C536.76406 92.908118 537.47953 94.0 538.01905 94.0C539.84605 94.0 539.013 89.024674 536.38664 84.250522L533.77328 79.5L535.8845 73.947754C537.87489 68.713281 543.70143 61.0 545.66512 61.0C546.15758 61.0 549.66862 62.999497 553.46744 65.443328C557.26626 67.887158 560.62764 69.775889 560.93719 69.640508C561.24674 69.505128 563.20453 68.519127 565.28784 67.449397C568.59839 65.749511 569.19647 65.693163 570.03426 67.002216C572.13327 70.281972 572.63264 74.901654 571.8053 83.386058C570.60394 95.705934 571.8167 96.234568 575.9954 85.212487C579.52576 75.900504 578.26737 65.165919 573.10618 60.566201C570.9578 58.651541 570.89184 58.654015 566.44141 60.816201C560.21208 63.842645 558.32882 63.590338 552.88495 59.0C550.27588 56.8 547.74752 55.0 547.26637 55.0C546.78523 55.0 544.24934 56.358559 541.63106 58.019019C539.01279 59.679479 536.50864 60.814359 536.0663 60.540973C534.94007 59.844926 535.8479 41.152719 537.12371 38.768843C538.44162 36.306299 548.20122 31.756247 550.3756 32.590636C551.26902 32.933474 552.0 34.204824 552.0 35.415859C552.0 36.626894 552.69385 38.491249 553.5419 39.55887C554.96064 41.344967 555.05948 40.892108 554.77947 33.88872C554.41563 24.788961 553.12558 22.569955 549.17406 24.246881C547.70333 24.871024 545.571 26.195807 544.43555 27.190843C543.3001 28.18588 542.02108 29.0 541.59328 29.0C541.16548 29.0 539.67129 29.9 538.27287 31.0C535.76278 32.974435 531.0 33.757277 531.0 32.195417C531.0 30.888904 524.33393 24.0 523.06968 24.0C522.43135 24.0 520.80455 25.104545 519.45455 26.454545C513.72932 32.179771 518.08039 40.469287 526.46717 39.814742L530.5 39.5L530.37892 49.787749C530.31232 55.446011 529.97758 60.355752 529.63505 60.698285C529.29252 61.040818 528.222 60.651132 527.25613 59.832316C526.29026 59.013501 523.73645 57.336564 521.58099 56.10579C514.70095 52.177253 512.09324 54.293376 507.83685 67.25896C506.23165 72.14866 506.00387 74.674159 506.56526 81.357836C507.72751 95.195249 509.3583 95.040473 510.33558 81.0C511.0167 71.214346 516.19747 61.0 520.47968 61.0C521.99615 61.0 526.0 67.782174 526.0 70.350958C526.0 71.137807 526.85911 73.700481 527.90914 76.04579C529.98938 80.692162 529.76892 82.621179 527.05938 83.481155C524.8356 84.186953 523.0 88.161019 523.0 92.269671L523.0 95.445236L527.38426 90.472618C531.68364 85.596278 531.80775 85.535308 533.79433 87.323596Z"/>
</svg>
