<?xml version="1.0" encoding="UTF-8"?>
<svg xmlns="http://www.w3.org/2000/svg" viewBox="2336.65 14.2 21.69 91.69">
  <path d="M2343.6123 95.181724C2343.3342 94.731672 2342.3461 91.019753 2341.4166 86.933016C2338.6461 74.752036 2340.7361 41.894833 2345.1653 28.0C2347.3858 21.034107 2349.1635 18.364954 2350.8769 19.423925C2353.357 20.956687 2356.1106 33.458296 2356.1799 43.5C2356.3353 66.018574 2347.6536 101.7206 2343.6123 95.181724Z M2347.8579 86.75C2352.1742 72.901526 2355.4321 50.359434 2354.542 40.5C2353.7389 31.603228 2351.2741 22.741963 2349.7444 23.251856C2347.9374 23.854199 2345.2407 32.774553 2343.901 42.58106C2342.1943 55.074443 2342.118 84.831227 2343.7852 87.75C2345.5529 90.844788 2346.6668 90.571275 2347.8579 86.75Z"/>
</svg>
