<?xml version="1.0" encoding="UTF-8"?>
<svg xmlns="http://www.w3.org/2000/svg" viewBox="897.76 9.65 35.82 95.32">
  <path d="M902.54584 98.074177C902.22005 97.547031 901.49552 94.63831 900.93577 91.610352C899.76141 85.257688 901.44331 77.005488 905.57366 68.854642C908.13808 63.793991 908.5867 61.013023 907.09079 59.45C906.59072 58.9275 905.50791 56.197893 904.68454 53.384208C901.63265 42.954996 904.95248 27.882943 911.58407 22.060325C920.78962 13.97775 926.36268 23.197177 922.08892 39.438337C919.41958 49.582392 919.28229 58.545528 921.77582 59.880024C922.92728 60.496263 924.21451 60.459456 925.43696 59.775339C929.03952 57.759246 931.58202 65.175457 928.96482 70.065741C927.73062 72.371851 924.73453 72.589977 923.0 70.5C922.31531 69.675 921.3536 69.0 920.86286 69.0C919.36005 69.0 916.26783 74.923644 915.60419 79.073811C915.25889 81.233215 914.53168 83.0 913.98818 83.0C912.02552 83.0 913.06953 78.12973 916.50368 71.265278C919.98103 64.314452 919.99516 64.232689 918.38398 60.380921C916.49663 55.868922 916.95431 47.148611 919.44713 40.124273C921.05019 35.607119 921.53044 25.378268 920.23469 23.34995C918.43836 20.538052 913.03268 21.774992 910.54847 25.56637C909.65172 26.93498 907.98475 31.076332 906.84408 34.769375C904.26634 43.115143 904.76377 49.474157 908.5657 56.778118L911.31312 62.056235L908.1938 68.278118C906.47818 71.700153 904.35736 77.309978 903.48086 80.744395C902.07705 86.244996 902.05521 87.648315 903.29744 92.525722C904.55507 97.463603 904.12602 100.63095 902.54584 98.074177Z M927.81336 65.75C927.57514 63.279309 927.02371 62.5 925.5137 62.5C923.17267 62.5 922.30807 65.461355 924.03987 67.548039C926.24376 70.203563 928.15496 69.292892 927.81336 65.75Z"/>
</svg>
