<?xml version="1.0" encoding="UTF-8"?>
<svg xmlns="http://www.w3.org/2000/svg" viewBox="2614.09 13.82 28.83 89.24">
  <path d="M2616.4934 96.75C2618.041 91.958598 2620.9361 77.323757 2621.381 72.04317C2622.8788 54.2681 2623.2057 34.998953 2622.1158 28.741664C2621.243 23.731356 2621.2282 21.442094 2622.0585 19.890771C2623.1377 17.874218 2623.2672 17.929004 2625.6252 21.399106C2628.3523 25.41242 2629.5089 25.732741 2632.8422 23.398001C2636.4603 20.863734 2636.7932 22.828483 2633.2195 25.625315C2629.8863 28.233913 2629.1566 30.756584 2631.1566 32.756591C2632.032 33.632046 2633.0043 33.421036 2635.1566 31.888497C2638.6669 29.388934 2638.8977 30.808025 2635.5 34.0C2632.9273 36.416949 2632.3409 39.409833 2633.9437 41.943144C2634.6829 43.111489 2635.3465 43.163176 2637.4284 42.214583C2640.9209 40.623284 2640.6762 42.123928 2637.0 44.841879C2634.2565 46.87022 2634.0 47.564154 2634.0 52.957357C2634.0 58.056938 2634.3382 59.120898 2636.5 60.82134C2639.7814 63.402493 2639.6624 64.304405 2636.1425 63.531304C2633.3765 62.923793 2633.2645 63.053682 2632.643 67.587656C2632.0688 71.777407 2632.2765 72.526906 2634.6118 74.691192C2636.0477 76.021959 2636.9502 77.383087 2636.6174 77.71592C2636.2846 78.048753 2635.1866 77.573831 2634.1774 76.660536C2631.4585 74.200007 2630.678 74.574443 2628.75 79.264256C2626.5977 84.49959 2626.5932 84.893063 2628.6605 87.17739C2630.4938 89.203084 2629.6751 91.07512 2627.7833 89.183333C2625.9628 87.362795 2625.1886 87.728563 2623.4087 91.25C2621.4982 95.029881 2618.0662 99.0 2616.7091 99.0C2616.1832 99.0 2616.0879 98.005636 2616.4934 96.75Z M2626.734 80.25C2628.385 76.5375 2630.2452 70.538139 2630.8679 66.918087C2632.4897 57.48922 2632.328 39.82786 2630.5828 35.783927C2629.8034 33.977767 2628.6372 31.069835 2627.9913 29.321855C2627.3454 27.573875 2626.1814 25.89984 2625.4046 25.601776C2624.2157 25.145551 2624.0837 27.071587 2624.5698 37.779921C2624.9399 45.932268 2624.5842 56.784183 2623.5793 68.0C2621.7267 88.677072 2621.7897 87.0 2622.8661 87.0C2623.3425 87.0 2625.083 83.9625 2626.734 80.25Z"/>
</svg>
