<?xml version="1.0" encoding="UTF-8"?>
<svg xmlns="http://www.w3.org/2000/svg" viewBox="179.21 11.76 47.44 93.27">
  <path d="M207.9829 97.455035C207.45872 96.076314 205.22312 93.229586 203.01492 91.128971C200.80671 89.028357 199.0 86.742757 199.0 86.049861C199.0 85.356964 200.32762 82.822889 201.95027 80.418582C203.57291 78.014275 205.17458 74.574014 205.50952 72.773558C206.69251 66.414545 200.91459 58.0 195.36514 58.0C192.90984 58.0 190.68209 59.781933 187.83688 64.021707C186.19018 66.475516 186.15839 66.480241 184.61868 64.5C181.36568 60.316272 183.42008 51.174526 188.51368 47.1679C192.09409 44.351547 194.637 44.43367 200.50789 47.555254C206.24316 50.604726 207.28901 49.799384 206.42351 43.0C205.58781 36.434747 205.38729 36.087559 202.81117 36.745698C200.73652 37.275726 200.80701 37.084308 203.5 34.875206C205.15 33.521687 207.68316 31.671285 209.12924 30.763202C211.67023 29.167559 211.89679 29.213857 215.87924 32.142581C218.14566 33.809323 220.0 35.359091 220.0 35.58651C220.0 35.81393 219.1 36.9 218.0 38.0C215.48341 40.516593 215.3051 47.755532 217.6481 52.2864C218.71625 54.351961 219.33206 58.14613 219.3981 63.068484C219.50042 70.694937 218.75064 73.272819 214.67354 79.312363C212.97833 81.823522 212.90897 82.603207 214.02585 86.592343C215.1131 90.475612 215.04603 91.571521 213.51304 94.971079C211.30166 99.875057 209.25287 100.7953 207.9829 97.455035Z M212.55371 92.642025C212.87921 91.345139 212.47969 88.690475 211.66588 86.742772C210.21612 83.273001 210.26512 83.073257 214.09256 76.850747C217.40883 71.459271 217.99896 69.656909 217.99944 64.918409C217.99975 61.848534 217.04075 56.280793 215.86834 52.545652C213.96514 46.482324 213.86745 45.170141 214.95685 40.302205C216.06588 35.346542 216.00956 34.723029 214.33851 33.456765C212.04794 31.721049 209.35641 31.614297 208.36415 33.219809C207.94951 33.890704 207.73534 38.390482 207.88821 43.219316C208.22197 53.76259 207.433 54.498913 200.50787 50.107128C193.79189 45.847976 188.66027 46.888715 185.41285 53.168538C183.9708 55.957142 184.38551 61.0 186.05689 61.0C186.51892 61.0 188.11085 59.875 189.5945 58.5C194.17284 54.256941 200.52701 55.690503 204.71998 61.912452C207.90817 66.643406 207.82003 73.975484 204.5 80.212151C203.125 82.795081 202.0 85.303145 202.0 85.785625C202.0 87.153654 209.35313 94.857158 210.73095 94.9326C211.40797 94.96967 212.22821 93.938911 212.55371 92.642025Z M199.00049 25.279937C199.00119 24.168396 208.6516 16.0 209.96411 16.0C212.37259 16.0 223.0 22.126053 223.0 23.514395C223.0 25.094513 221.39324 25.572068 220.83333 24.158361C220.65 23.69546 218.07021 22.105233 215.10047 20.624524C209.86437 18.013813 209.63736 17.986863 207.60047 19.734142C203.84821 22.952895 198.99999 26.079325 199.00049 25.279937Z M199.03092 31.298041C199.06856 30.326587 206.47783 24.671107 210.33367 22.670671C212.90364 21.337352 213.31705 21.393014 215.45436 23.360128C216.73312 24.537058 218.84151 26.2419 220.13969 27.148666C224.49483 30.190708 221.28766 30.138382 216.4792 27.088945C211.22388 23.756121 211.22165 23.756477 203.25 29.196037C200.9125 30.791061 199.01391 31.736963 199.03092 31.298041Z"/>
</svg>
