<?xml version="1.0" encoding="UTF-8"?>
<svg xmlns="http://www.w3.org/2000/svg" viewBox="2838.83 14.75 83.17 90.4">
  <path d="M 2917.9062,51.46875 C 2914.1834,54.172765 2904.4699,59 2902.2188,59 2901.3242,59 2898.906,57.357404 2896.8438,55.34375 L 2893.0938,51.6875 2888.9375,54.4375 C 2886.5511,56.016735 2884.4109,56.817065 2883.9062,56.3125 2883.4231,55.829367 2883.3397,52.746619 2883.75,49.46875 2884.4959,43.510146 2884.5238,43.495573 2887.6875,43.8125 2893.7014,44.414939 2900.4178,39.076335 2901.25,33.03125 2901.8346,28.784737 2899.7249,23.462722 2896.875,21.9375 2893.8674,20.3279 2886.8413,22.498553 2881.3125,26.71875 L 2876.9062,30.0625 2871.3125,24.4375 C 2866.3298,19.414819 2865.3841,18.860674 2862.6562,19.40625 2858.0371,20.330079 2855.7246,22.263732 2853.25,27.21875 2850.2247,33.276155 2850.2227,39.947767 2853.25,42.6875 2856.3747,45.515354 2859.544,46.080871 2865.3125,44.84375 2871.3192,43.555543 2871.9781,44.234321 2872,51.75 2872.0181,57.955 2870.6507,58.501723 2865.2812,54.40625 2863.403,52.97372 2860.0642,51.543631 2857.875,51.25 2854.4807,50.79473 2853.4686,51.136202 2850.9688,53.53125 2845.3252,58.938174 2842.6155,72.185374 2845.9062,78.34375 2848.1212,82.488902 2849.4711,81.522947 2850.9062,74.75 2852.1426,68.914933 2856.0842,60.985385 2857.75,61 2859.0126,61.011079 2868,69.092792 2868,70.21875 2868,70.806419 2865.9839,73.440476 2863.5312,76.0625 2858.6649,81.265097 2857.0291,85.391617 2858.8438,87.90625 2859.4769,88.783623 2861.2396,91.645425 2862.75,94.25 2864.3248,96.965674 2866.2353,98.991738 2867.2188,99 2870.433,99.027006 2872.3816,91.787786 2869.8438,89.25 2868.2984,87.704621 2873.2967,80 2875.8438,80 2878.5373,80 2882.42,87.369874 2881.0625,89.90625 2879.6415,92.561468 2879.7137,97.338803 2881.2188,98.84375 2883.4175,101.04261 2885.1939,99.606171 2888.8125,92.78125 L 2892.375,86.09375 2889.1875,79.90625 C 2885.3589,72.482605 2885.2152,70.089608 2888.4375,67.0625 L 2890.875,64.75 2895.9688,67.875 C 2898.7584,69.591448 2902.0208,70.981172 2903.25,70.96875 2904.4793,70.956328 2907.9556,69.406924 2910.9688,67.53125 2913.9063,65.702602 2915.7308,64.844803 2916.9688,65 L 2917.0625,64.84375 2917.9062,51.46875 z M 2863.0938,22.09375 C 2863.6914,22.174659 2864.2605,22.415662 2864.8125,22.8125 2865.7322,23.473745 2867.1218,24.300682 2867.875,24.65625 2868.6283,25.011819 2870.7528,26.815319 2872.5938,28.65625 2876.178,32.240571 2878.403,32.847587 2879.6875,30.59375 2880.9014,28.463955 2889.9428,24 2893.0312,24 2896.736,24 2898.5,26.463483 2898.5,31.625 2898.5,38.322656 2895.6878,40.549519 2887.4688,40.34375 L 2881,40.1875 2881,49.53125 C 2881,54.675377 2881.3958,59.110115 2881.875,59.40625 2882.3541,59.702385 2884.9416,58.830124 2887.625,57.46875 2890.3083,56.107377 2892.5482,55.002302 2892.625,55 2892.7018,54.997698 2894.5018,56.556512 2896.625,58.46875 2898.7482,60.380989 2901.2087,61.955989 2902.0938,61.96875 2902.9788,61.981512 2906.3617,60.661589 2909.5938,59.03125 2912.8633,57.382051 2915.8664,56.460123 2916.3438,56.9375 2918.2265,58.820282 2916.1777,61.586268 2910.2188,65.3125 2904.341,68.987932 2903.7743,69.15137 2900.8438,67.9375 2899.1278,67.226678 2896.4617,65.590092 2894.9062,64.28125 2891.6221,61.517825 2889.8106,62.051126 2885.5938,67.0625 2882.2993,70.977747 2882.3416,71.800558 2886,78.65625 2889.5822,85.369082 2889.6137,86.016141 2886.8125,91.625 2884.5076,96.240303 2881.1655,97.879 2882.4688,93.75 2884.3821,87.687334 2884.187,86.116573 2880.8438,80.59375 2878.9994,77.546895 2877.0278,75.046849 2876.4375,75.03125 2874.8321,74.988822 2867,84.997592 2867,87.09375 2867,88.093828 2867.5424,90.052951 2868.1875,91.46875 2868.993,93.236793 2869.0208,94.385482 2868.3125,95.09375 2867.025,96.381312 2861,87.339265 2861,84.125 2861,82.805628 2862.9807,80.067272 2866,77.1875 2868.7782,74.537633 2871,71.52946 2871,70.40625 2871,67.371715 2861.1378,59 2857.5625,59 2855.675,59 2850.3918,66.891107 2849.4688,71.09375 2848.6303,74.911439 2847,74.811067 2847,70.9375 2847,65.050839 2849.1519,59.054216 2852.1875,56.5 2856.0903,53.215953 2857.7221,53.321593 2865.4375,57.5625 2869.016,59.529494 2872.4032,60.880703 2872.9688,60.53125 2873.5557,60.168468 2874,55.814765 2874,50.40625 2874,42.873417 2873.703,40.805381 2872.5,40.34375 2871.668,40.02448 2870.361,40.264187 2869.625,40.875 2867.3676,42.748466 2859.1697,43.430938 2856.4375,41.96875 2854.3291,40.840375 2853.9968,39.964828 2854,35.59375 2854.0054,28.250596 2858.9099,21.52739 2863.0938,22.09375 z M 2889.625,28.0625 C 2888.2621,27.900343 2887.0075,28.178773 2886.5,29 2885.384,30.805694 2885.6609,35.892925 2886.9688,37.46875 2888.8113,39.688808 2890.5811,39.37067 2892.9375,36.375 2895.4425,33.190494 2895.4935,32.219169 2893.3438,29.84375 2892.4497,28.855752 2890.9879,28.224657 2889.625,28.0625 z M 2889.5625,31.0625 C 2890.7313,30.590476 2892,31.594264 2892,33.5 2892,35.078327 2891.4355,36 2890.4688,36 2888.7175,36 2887.5055,33.621019 2888.4688,32.0625 2888.7818,31.556032 2889.1729,31.219841 2889.5625,31.0625 z M 2861.6875,28.3125 C 2858.477,29.10861 2857.0381,32.338382 2859.0312,36.0625 2861.1881,40.092617 2868,36.986105 2868,31.96875 2868,29.661203 2867.4684,28.915989 2865.4375,28.40625 2864.0328,28.053708 2862.7577,28.04713 2861.6875,28.3125 z M 2864.8438,30.125 C 2865.5953,30.335761 2866,31.127094 2866,32.5 2866,33.875 2865.5988,35 2865.0938,35 2864.5887,35 2863.5177,35.255891 2862.7188,35.5625 2860.4705,36.425264 2859.5423,32.804156 2861.625,31.28125 2862.9821,30.28892 2864.0922,29.914239 2864.8438,30.125 z"/>
</svg>
