<?xml version="1.0" encoding="UTF-8"?>
<svg xmlns="http://www.w3.org/2000/svg" viewBox="1557.71 17.87 21.85 90.96">
  <path d="M 1575 86.75 C 1574.6596 86.77307 1574.3931 86.705607 1574.2188 86.53125 C 1573.2839 85.596278 1573.4806 80.026285 1575.0625 63 C 1577.5655 36.059377 1576.1846 22 1571.0625 22 C 1566.732 22 1563.3565 32.450457 1561.6562 51 C 1559.7113 72.219148 1561.9198 95.471297 1566.5938 102.75 C 1567.1992 103.69286 1567.9911 104.35659 1568.6562 104.6875 L 1570.0312 100.8125 C 1568.4521 100.43785 1567.4274 98.047269 1566.1875 93 C 1563.5014 82.065205 1562.9858 70.970757 1564.1875 51 C 1565.0758 36.237307 1567.5448 25.70848 1570.25 25.1875 C 1574.143 24.437781 1574.7679 37.270247 1572.25 67 C 1571.8541 71.675 1571.5048 78.853263 1571.5 82.96875 C 1571.494 88.115919 1571.8015 90.726726 1573.5625 90.8125 L 1575 86.75 z "/>
</svg>
