<?xml version="1.0" encoding="UTF-8"?>
<svg xmlns="http://www.w3.org/2000/svg" viewBox="854.38 15.67 39.62 91.21">
  <path d="M871.25513 100.75C869.07728 97.999527 867.8583 94.687199 867.37481 90.206024C867.09554 87.617711 866.72286 85.033319 866.54662 84.46293C866.37038 83.892542 866.80169 79.842542 867.50509 75.46293C868.20848 71.083319 868.41468 67.104594 867.96331 66.62132C867.50296 66.128424 865.91082 66.711587 864.33699 67.94956L861.53135 70.156481L859.26567 67.522477C856.38185 64.169825 856.37576 60.511419 859.25 58.095742C860.4875 57.055676 862.79631 55.118797 864.38069 53.791568L867.26137 51.378425L865.74607 46.439213C864.91265 43.722646 863.41961 39.397115 862.42819 36.826922L860.62562 32.153844L865.39013 26.576922C868.01062 23.509615 870.71066 21.0 871.39023 21.0C872.0698 21.0 873.9192 22.35 875.5 24.0C878.99443 27.647402 879.98136 27.713197 883.0 24.5C887.40426 19.811882 892.0 22.039708 892.0 28.86283C892.0 34.469011 887.30367 36.145408 882.71887 32.175813C879.67449 29.539939 877.63662 32.739191 877.17683 40.876256L876.78865 47.746099L880.53499 50.623049C889.36279 57.402231 890.33502 58.529032 889.66385 61.20321C889.31268 62.602351 888.19967 64.766801 887.19048 66.013098C885.39948 68.22489 885.29078 68.236635 882.64658 66.504089C881.15663 65.527836 879.64193 65.024736 879.28058 65.38609C878.91922 65.747444 879.18719 70.025283 879.87605 74.892398C881.51205 86.451371 880.57435 95.163977 877.2719 99.088707C874.63024 102.22814 872.82107 102.72768 871.25513 100.75Z M875.9354 97.577839C876.58456 96.79565 877.62006 93.111881 878.23652 89.391685C879.17038 83.756025 879.05541 80.812333 877.54734 71.745185C875.49178 59.386404 876.10214 57.193046 880.40064 61.491551C883.64533 64.736242 886.38862 64.443928 886.80994 60.808602C887.07481 58.523262 886.27487 57.576007 881.30994 54.295689C875.52217 50.471717 875.49874 50.436172 875.1702 44.978536C874.9888 41.965341 875.40064 37.127216 876.08539 34.227147C877.30942 29.043138 877.28221 28.904003 874.47074 25.969457L871.61108 22.98462L868.31295 26.1813C866.49897 27.939474 864.76054 30.179098 864.44978 31.158243C864.13901 32.137388 865.03567 36.129161 866.44237 40.02885C869.86862 49.527216 869.82052 53.43997 866.25 55.676331C862.04881 58.307708 860.0 60.705057 860.0 62.989571C860.0 66.066718 862.74794 66.562471 866.09361 64.088913C867.71569 62.889657 869.48321 62.180604 870.02142 62.51324C871.31092 63.310192 871.25988 68.541106 869.88116 76.889602C868.76143 83.669813 869.38743 89.628412 871.91901 96.286971C873.0731 99.322464 874.18966 99.681326 875.9354 97.577839Z M889.63923 30.497764C890.4425 28.404485 889.20235 24.0 887.80969 24.0C885.97972 24.0 883.0 27.142019 883.0 29.071654C883.0 31.971688 888.61113 33.176961 889.63923 30.497764Z"/>
</svg>
