<?xml version="1.0" encoding="UTF-8"?>
<svg xmlns="http://www.w3.org/2000/svg" viewBox="1502.29 15.99 54.68 94.29">
  <path d="M1540.5074 102.04367C1540.1063 99.669908 1540.341 96.699087 1541.0939 94.61678C1542.2571 91.400115 1542.1484 90.883309 1539.6078 87.552465L1536.8667 83.958712L1534.1147 85.918313C1531.3925 87.856714 1531.331 87.857009 1528.4314 85.945546C1523.8895 82.95152 1521.2468 83.414651 1519.2747 87.550241C1517.8698 90.496146 1517.7979 91.446691 1518.8518 93.134328C1520.4349 95.669299 1519.5292 100.21112 1516.9806 102.51759C1514.5893 104.68167 1512.3357 103.86836 1510.7752 100.27806C1510.1111 98.750129 1508.4901 96.042128 1507.173 94.260284L1504.7783 91.020568L1507.8892 86.172737C1511.5265 80.504382 1511.7219 78.931928 1509.0 77.232073C1507.3135 76.178819 1507.0 74.900045 1507.0 69.073314C1507.0 57.37776 1508.0962 56.765045 1517.7432 63.068391C1524.1986 67.286363 1526.0064 67.422825 1525.9909 63.690983C1525.9774 60.411477 1521.1484 39.748367 1520.1659 38.765893C1519.6957 38.295694 1517.9338 38.704925 1516.2379 39.678248C1513.8168 41.067796 1512.5603 41.226932 1510.3313 40.426338C1507.8878 39.548705 1507.5152 38.90707 1507.6108 35.741651C1507.8299 28.488708 1512.7906 24.861685 1517.5589 28.468197C1520.2646 30.514694 1520.5613 30.428839 1524.0564 26.587895C1528.6369 21.554283 1532.3377 20.277534 1536.3217 22.356442C1547.4353 28.155705 1550.9813 31.672651 1552.984 38.882369C1554.4908 44.307243 1554.2857 50.0 1552.5833 50.0C1551.8042 50.0 1551.0167 49.612712 1550.8333 49.139359C1550.2117 47.534405 1540.8867 40.0 1539.5219 40.0C1536.737 40.0 1534.724 48.343538 1535.1846 57.97687C1535.4223 62.948806 1536.0886 67.488643 1536.6654 68.065398C1537.3969 68.796925 1539.4454 67.531639 1543.4394 63.881356C1547.9819 59.729767 1549.3512 58.943218 1550.0671 60.074334C1550.5634 60.85845 1550.9763 62.301953 1550.9847 63.282119C1550.9931 64.262284 1551.6591 66.641612 1552.4646 68.569514C1554.0363 72.33106 1553.775 72.799839 1547.592 77.311873C1545.7434 78.66085 1545.7824 78.876217 1548.842 84.223844C1553.2024 91.845069 1552.9822 94.411551 1547.4225 100.76718C1544.9048 103.64523 1542.4694 106.0 1542.0104 106.0C1541.5513 106.0 1540.875 104.21965 1540.5074 102.04367Z M1516.5227 97.928336C1516.9384 96.618733 1516.5596 95.170832 1515.493 93.992214C1513.9005 92.232517 1513.9626 91.839323 1516.5995 86.994467C1518.8831 82.798771 1519.139 81.70395 1518.0006 81.000364C1516.0514 79.795685 1513.5521 81.370551 1511.0894 85.355384C1508.4452 89.63379 1508.4683 91.172602 1511.25 96.04418C1513.7487 100.42019 1515.5299 101.05666 1516.5227 97.928336Z M1516.393 36.418213C1517.4675 33.618156 1517.0429 31.230446 1515.3554 30.582879C1512.3069 29.413071 1508.3882 35.054895 1510.6667 37.333333C1511.9397 38.606375 1515.7894 37.991158 1516.393 36.418213Z M1538.2163 80.058665C1548.9352 73.335432 1550.2354 72.074094 1549.4936 69.118294C1548.1643 63.822034 1547.129 63.735155 1541.603 68.456138C1538.7548 70.889452 1535.9355 72.569768 1535.3378 72.190173C1532.2728 70.243403 1531.5596 48.42047 1534.3486 41.920394C1536.8067 36.191409 1538.3359 35.426434 1542.3593 37.913071C1544.238 39.074171 1546.3309 40.693726 1547.01 41.512081C1550.3375 45.5214 1551.1449 40.390117 1547.9986 35.229721C1546.0254 31.993286 1534.9079 24.0 1532.3798 24.0C1530.8255 24.0 1524.3134 29.545814 1523.0118 31.978018C1522.4197 33.08434 1522.6197 35.403118 1523.5821 38.590874C1526.0024 46.607171 1528.093 62.818491 1527.3899 68.118274C1526.7038 73.290233 1526.0313 73.947567 1523.9686 71.462214C1521.5027 68.490945 1515.3531 64.126715 1512.6905 63.458463C1510.009 62.785441 1510.0 62.801956 1510.0 68.400595L1510.0 74.018006L1518.25 77.813177C1527.0574 81.864776 1531.3666 83.822896 1531.7163 83.93232C1531.8352 83.969544 1534.7602 82.226399 1538.2163 80.058665Z M1547.2844 97.095708C1548.228 95.498347 1549.0 93.215979 1549.0 92.023778C1549.0 89.095504 1544.1568 81.0 1542.405 81.0C1540.3116 81.0 1540.6974 83.627428 1543.4906 88.393697C1545.7232 92.203452 1545.8301 92.843206 1544.5224 94.571767C1542.706 96.972719 1542.5733 100.0 1544.2844 100.0C1544.9908 100.0 1546.3408 98.693069 1547.2844 97.095708Z"/>
</svg>
