<?xml version="1.0" encoding="UTF-8"?>
<svg xmlns="http://www.w3.org/2000/svg" viewBox="2078.1 13.41 21.35 84.56">
  <path d="M2080.4344 92.689586C2080.1004 91.819128 2080.5912 86.020374 2081.525 79.803467C2083.2225 68.503491 2083.8961 32.525433 2082.5663 24.185219C2081.7423 19.017066 2083.0607 17.250992 2086.5544 18.842825C2088.6144 19.781422 2090.0653 19.803517 2092.693 18.936305C2094.5856 18.311706 2096.3823 18.048946 2096.6857 18.352393C2097.4514 19.118021 2097.4342 40.772037 2096.6551 57.0C2096.2987 64.425 2095.7657 75.65221 2095.4708 81.949356C2095.1759 88.246502 2094.7534 93.579901 2094.532 93.801355C2094.3105 94.022809 2093.1001 93.483098 2091.8422 92.601999C2088.9035 90.543711 2085.1459 90.557968 2082.8496 92.636119C2081.2109 94.1191 2080.9849 94.124104 2080.4344 92.689586Z M2093.4325 82.25C2093.8124 77.9875 2094.2929 72.744726 2094.5004 70.59939C2095.3773 61.53214 2096.2169 27.000335 2095.6185 24.616027C2095.0104 22.193093 2094.619 22.036417 2089.7335 22.260235C2084.8225 22.485227 2084.512 22.654033 2084.6946 25.0C2085.3965 34.019953 2084.923 72.45876 2084.0554 76.88649C2083.4749 79.849059 2083.0 83.842809 2083.0 85.76149C2083.0 89.048043 2083.1619 89.217614 2085.7971 88.690581C2087.3355 88.3829 2089.248 88.54476 2090.0471 89.050268C2092.5241 90.617216 2092.7222 90.219263 2093.4325 82.25Z"/>
</svg>
