<?xml version="1.0" encoding="UTF-8"?>
<svg xmlns="http://www.w3.org/2000/svg" viewBox="2175.64 14.1 23.34 85.83">
  <path d="M2181.5109 91.680437C2179.6124 87.136547 2177.6403 60.516052 2178.383 49.456858C2179.1536 37.982706 2183.3698 21.125579 2185.8529 19.590909C2188.4256 18.00087 2193.3743 31.222306 2195.1761 44.5C2196.9831 57.81602 2193.4814 80.213505 2187.867 91.25C2185.5104 95.882554 2183.3284 96.030317 2181.5109 91.680437Z M2189.0383 83.631476C2195.4947 65.2618 2195.099 36.725828 2188.2426 26.25C2187.4327 25.0125 2186.4539 24.0 2186.0676 24.0C2184.9059 24.0 2182.1193 34.008302 2180.9119 42.517021C2179.3018 53.863839 2180.9213 83.263822 2183.5785 90.927541C2184.4018 93.302095 2186.7353 90.18381 2189.0383 83.631476Z"/>
</svg>
