<?xml version="1.0" encoding="UTF-8"?>
<svg xmlns="http://www.w3.org/2000/svg" viewBox="377.4 15.58 46.05 83.2">
  <path d="M394.11033 90.756724C386.76885 83.341858 384.53331 77.003458 380.96995 53.5C379.49056 43.742091 381.2139 32.288412 385.37105 24.249365C386.73643 21.608999 389.69437 19.361039 390.60501 20.27168C390.78033 20.446997 391.11472 29.570089 391.3481 40.545219C391.77154 60.458508 392.44069 64.871307 396.04203 71.5C398.52359 76.06761 400.86925 75.336796 404.06617 69.0C407.67718 61.84241 409.97892 50.347094 410.7104 35.81749C411.35793 22.955424 411.9467 20.880951 414.37718 22.898066C421.35731 28.691059 419.82089 62.209823 411.69692 81.37082C408.78358 88.24216 403.13203 95.0 400.2989 95.0C399.20588 95.0 396.42103 93.090526 394.11033 90.756724Z M403.58223 91.580066C406.37029 89.627228 413.08532 74.975373 414.83098 67.035843C417.01429 57.105783 417.53316 33.888814 415.65129 30.330619C413.71734 26.673949 413.50054 27.43767 412.05474 43.0C411.41603 49.875 410.28912 57.075 409.55049 59.0C408.81187 60.925 407.6658 64.50254 407.00368 66.95009C405.67808 71.850201 400.0209 78.328988 397.80896 77.480187C395.66648 76.658038 393.19453 71.250466 391.00228 62.590037C389.44453 56.436187 389.0 51.385398 389.0 39.840037C389.0 31.678017 388.6051 25.0 388.12244 25.0C384.25206 25.0 381.17119 41.656781 382.94352 53.0C386.53286 75.972494 388.22978 80.751036 395.48843 88.326588C400.45082 93.505618 400.69372 93.603257 403.58223 91.580066Z"/>
</svg>
