<?xml version="1.0" encoding="UTF-8"?>
<svg xmlns="http://www.w3.org/2000/svg" viewBox="1845.77 15.14 35.88 81.08">
  <path d="M1850.0062 89.516183C1847.7662 83.624757 1849.8281 75.853572 1854.6342 72.073102L1857.0147 70.200602L1855.3448 62.850301C1854.3317 58.390687 1853.675 51.173978 1853.675 44.5C1853.6751 34.141354 1853.8586 33.138977 1856.8226 27.308027C1860.4484 20.17541 1862.1946 18.823277 1866.0464 20.166004C1868.7468 21.107388 1870.3826 23.937276 1873.1758 32.5C1874.9803 38.03185 1874.9265 60.214659 1873.0951 65.734263C1871.7219 69.873285 1871.7501 70.015609 1874.3515 72.061815C1877.1208 74.240192 1879.6505 78.031504 1878.2852 77.957363C1877.8533 77.933912 1875.5413 76.194344 1873.1473 74.091656L1868.7946 70.268587L1871.0243 64.153586C1873.0145 58.695303 1873.19 56.828324 1872.6584 46.769293C1871.8548 31.56407 1868.3313 22.0 1863.533 22.0C1861.7423 22.0 1860.6669 23.365032 1858.1421 28.842712C1855.1075 35.426314 1855.0018 36.098448 1855.3517 46.592712C1855.6191 54.612594 1856.2948 59.088336 1857.9042 63.5C1861.5521 73.499786 1861.5111 73.0 1858.6847 73.0C1855.5919 73.0 1852.4649 77.00495 1851.4868 82.218879C1850.3391 88.336242 1851.7453 88.530977 1857.534 83.056321C1860.4744 80.275345 1863.2205 78.0 1863.6364 78.0C1864.0522 78.0 1866.0963 79.180734 1868.1787 80.623854C1872.7538 83.794404 1872.2047 85.907655 1867.5528 83.032624C1865.7439 81.914681 1863.6137 81.0 1862.8191 81.0C1861.1525 81.0 1856.2744 85.825806 1854.624 89.107256C1852.982 92.371885 1851.1535 92.533813 1850.0062 89.516183Z"/>
</svg>
