<?xml version="1.0" encoding="UTF-8"?>
<svg xmlns="http://www.w3.org/2000/svg" viewBox="374.96 14.44 64.3 90.89">
  <path d="M395.59177 92.465577C393.6163 88.871645 392.0 85.087895 392.0 84.057246C392.0 83.026596 394.025 79.697437 396.5 76.659115C399.08613 73.48437 401.0 70.100302 401.0 68.702305C401.0 65.685045 397.54601 61.158092 394.3032 59.925177C390.80956 58.596896 388.64824 60.123537 385.00338 66.4941C383.27079 69.522345 381.45431 72.0 380.96675 72.0C380.47919 72.0 379.54543 70.21481 378.89171 68.032912C377.88416 64.66999 377.97879 63.337411 379.51306 59.282912C380.50852 56.65231 383.0229 52.786967 385.10058 50.693261C388.56222 47.204921 389.19693 46.944266 392.68909 47.576909C394.78509 47.956622 397.71515 48.882155 399.20034 49.633648C403.96176 52.042889 405.17221 51.495722 404.47348 47.25C402.8846 37.595382 401.55154 32.904128 399.9973 31.497559C398.51259 30.153911 397.89395 30.14114 394.91738 31.392691C390.929 33.069682 388.37641 32.120241 386.97688 28.439198C384.57845 22.130837 390.36634 18.567692 395.0 23.5C396.29175 24.875 397.65686 26.0 398.03358 26.0C398.41031 26.0 400.69437 24.429368 403.10927 22.509706C405.52417 20.590044 407.91723 19.015044 408.42717 19.009706C408.93712 19.004368 410.59414 20.4625 412.10944 22.25L414.86452 25.5L418.0133 23.75C424.20556 20.308522 428.0 21.717885 428.0 27.459343C428.0 30.325147 426.36169 31.725807 422.5 32.161515C420.07071 32.435608 419.08464 33.356059 417.31663 37.0C414.77049 42.247652 413.42111 48.829415 414.6459 50.02677C415.11565 50.486003 417.41527 49.9785 419.75616 48.898984C424.62023 46.655892 426.25287 47.134942 430.35371 52.008513C434.49881 56.934683 436.33668 66.633869 433.96482 71.065741C432.36643 74.052345 430.8621 73.357959 426.13743 67.452686C421.76754 61.990852 418.74398 60.618838 417.60699 63.581787C416.39592 66.737772 417.06574 69.745183 420.49692 76.557334C422.42022 80.3758 423.99522 84.355039 423.99692 85.400087C423.99861 86.445135 422.78858 89.692654 421.30795 92.616795C416.96668 101.19052 413.46178 100.68497 414.42007 91.623283C414.84443 87.610409 414.4818 85.9719 412.37287 82.373283C410.96327 79.967977 409.21442 78.0 408.48654 78.0C407.75866 78.0 406.1685 79.609334 404.95285 81.576298C403.10576 84.564951 402.84593 86.032012 403.37159 90.504564C403.85937 94.654814 403.6477 96.209447 402.42888 97.428267C401.56442 98.29272 400.48058 99.0 400.02034 99.0C399.5601 99.0 397.56724 96.05951 395.59177 92.465577Z M402.0 94.243398C402.0 93.277267 401.55743 90.943627 401.0165 89.057532C400.20584 86.230929 400.38138 85.089775 402.01536 82.564134C403.10566 80.87886 404.78574 78.269545 405.74886 76.765656C406.71199 75.261766 408.01154 73.832944 408.63676 73.590495C409.26198 73.348046 411.59254 75.982831 413.81578 79.445574C417.36116 84.967571 417.79778 86.279773 417.36783 90.120734C416.92008 94.120739 417.01573 94.364097 418.47235 92.930746C419.34945 92.067657 420.33231 89.727069 420.65648 87.729441C421.13268 84.794965 420.61188 82.983687 417.94483 78.298695C415.28135 73.619973 414.6636 71.475072 414.74641 67.193403C414.86596 61.012572 416.16585 59.0 420.03842 59.0C422.13932 59.0 423.65217 60.05374 426.14013 63.25C432.01632 70.799082 433.40228 70.864554 432.7969 63.564463C432.2767 57.291543 428.79337 51.283627 425.12669 50.335181C423.64132 49.950967 421.06226 50.542894 418.23334 51.917292C415.33038 53.32766 413.36818 53.768183 412.74864 53.148639C411.64078 52.040779 412.23447 45.347851 413.95933 39.5C416.28813 31.604587 416.29542 31.090705 414.11174 28.76007C412.94709 27.517032 411.39051 25.646143 410.65268 24.602541C408.91187 22.14028 404.84591 23.05089 403.11162 26.291431C402.05688 28.262241 402.19008 29.627339 403.94565 34.838666C406.36767 42.02832 407.52082 51.888715 406.17089 53.866281C405.40458 54.988883 404.04885 54.756734 398.56949 52.564644C391.99887 49.935984 389.2054 49.877567 386.17691 52.305491C383.71836 54.276503 380.88129 61.116553 381.19213 64.323596L381.5 67.5L384.96756 62.714448C386.87472 60.082394 389.47095 57.668918 390.73697 57.351168C394.26983 56.464476 398.91313 58.911606 401.7062 63.13222C404.92253 67.992422 404.36238 70.434816 398.24589 78.220132C393.62801 84.097952 393.61679 84.131212 395.3466 86.810399C396.3017 88.28968 397.82278 90.9625 398.72678 92.75C400.52978 96.315101 402.0 96.985884 402.0 94.243398Z M394.45017 28.08062C395.05886 27.095744 392.43199 24.0 390.98759 24.0C389.61562 24.0 388.93697 25.672176 389.60374 27.409758C390.26303 29.127833 393.52398 29.579227 394.45017 28.08062Z M424.8 27.8C425.46 27.14 426.0 26.24 426.0 25.8C426.0 24.671928 420.8029 24.831786 419.0 26.015313C417.66667 26.89059 417.66667 27.10941 419.0 27.984687C421.03576 29.32108 423.3527 29.247303 424.8 27.8Z"/>
</svg>
