<?xml version="1.0" encoding="UTF-8"?>
<svg xmlns="http://www.w3.org/2000/svg" viewBox="446.42 17.06 32.46 83.09">
  <path d="M464.0 94.5C462.59366 92.805463 460.0 92.481256 460.0 94.0C460.0 96.266131 457.38866 94.772381 456.0666 91.75C455.2847 89.9625 453.82485 87.911983 452.82248 87.193296C450.3255 85.402981 450.53386 83.974229 453.25 84.26179C455.10004 84.457656 455.45662 84.055603 455.25599 82.0C454.76727 76.992889 453.98151 75.228427 452.01094 74.713111C450.90492 74.423882 450.0 73.484234 450.0 72.625004C450.0 71.647194 450.56114 71.2781 451.5 71.638374C453.99902 72.597338 453.55997 62.816742 451.0 60.5C448.66472 58.386601 448.42425 57.0 450.39301 57.0C453.44672 57.0 453.86834 51.095813 451.0 48.5C448.44651 46.189121 448.42986 44.684268 450.96669 45.489427C453.70516 46.358583 454.92165 41.675892 452.61852 39.130965C451.72833 38.147319 451.0 36.535352 451.0 35.548815C451.0 34.045888 451.25004 33.962622 452.54238 35.035174C453.62056 35.929984 454.40109 35.998914 455.1358 35.264205C456.39967 34.000331 456.62343 27.418715 455.51357 24.152817C454.76849 21.960361 454.85548 21.892797 456.83315 23.127872C458.66791 24.273698 459.13158 24.202307 460.3085 22.59278C461.58612 20.845525 461.8163 20.833531 464.1924 22.39041C465.67353 23.36088 467.50027 23.768316 468.6091 23.375507C470.15855 22.826604 470.27428 22.94891 469.25 24.052821C466.56747 26.943896 468.45791 33.528986 471.62186 32.314866C473.51226 31.589451 473.36033 33.456066 471.3963 35.086065C470.22741 36.056158 469.93488 37.477835 470.31738 40.329594C470.97289 45.216785 472.35122 46.783326 474.45762 45.035174C476.88221 43.022939 476.25797 45.1972 473.48554 48.42095C471.41846 50.824524 471.08997 51.975845 471.631 54.92095C471.99262 56.889428 472.72104 58.780892 473.24972 59.124205C473.82799 59.499725 473.619 60.694937 472.72515 62.124205C471.90796 63.430892 470.96196 66.6896 470.62293 69.365779C470.05145 73.876904 470.15206 74.193498 472.00326 73.709398C474.57195 73.037672 474.51991 73.335959 471.5 76.594501C468.64347 79.676746 468.12297 84.0 470.60841 84.0C471.86102 84.0 472.06657 84.608335 471.53765 86.75C470.63074 90.42212 469.0 92.034461 469.0 89.259017C469.0 88.081476 468.48775 86.801446 467.86167 86.414505C466.72883 85.714375 467.02573 78.895432 468.88114 63.0C470.45411 49.524191 466.36855 25.0 462.5506 25.0C460.42005 25.0 459.24804 27.130228 457.08593 34.932473C455.32654 41.281459 455.08591 44.583691 455.37514 58.410313C455.56025 67.259641 456.26821 76.975 456.94838 80.0C457.62855 83.025 458.37699 86.5125 458.61158 87.75C458.87859 89.158525 459.75969 90.0 460.96753 90.0C463.14959 90.0 468.31485 94.35182 467.31707 95.349598C466.29853 96.368139 465.34846 96.124801 464.0 94.5Z"/>
</svg>
