<?xml version="1.0" encoding="UTF-8"?>
<svg xmlns="http://www.w3.org/2000/svg" viewBox="2845.2 18.85 28.82 88.92">
  <path d="M 2861.6499,97.534731 C 2858.8894,95.443394 2860.4255,93.956896 2863.9662,95.293328 2868.6724,97.069739 2868.8017,95.207456 2864.2631,91.016632 2861.9601,88.890126 2859.7725,85.941945 2859.4019,84.465119 2858.3694,80.351369 2859.6071,68.010739 2861.5348,63.199128 2863.1204,59.241285 2863.1322,58.603222 2861.6825,55.199128 2859.1652,49.288221 2858.7682,45.435645 2860.041,39.27003 2861.3962,32.704963 2865.3682,24.168715 2866.3378,25.737543 2866.693,26.312341 2865.9971,28.969038 2864.7912,31.641315 2862.0223,37.777343 2861.7783,49.88041 2864.3303,54.5 2866.4268,58.294917 2866.4124,58.768142 2864.0603,63.381684 2861.4496,68.502504 2860.4467,77.209729 2861.9064,82.081857 2862.647,84.553903 2864.507,87.116774 2867.0343,89.147786 2871.5139,92.747691 2872.0229,95.170109 2868.7775,97.443296 2866.0584,99.347836 2864.0766,99.373258 2861.6499,97.534731 z M 2849,100.5651 C 2849,100.3259 2849.4332,98.990721 2849.9627,97.598026 2850.6647,95.751609 2850.4963,94.041369 2849.3406,91.282926 2847.1984,86.169601 2848.0618,74.750857 2851.3066,65.281241 2853.2872,59.501373 2853.5253,57.850901 2852.5012,57.001002 2850.8733,55.649958 2848.9937,48.253915 2849.0211,43.30718 2849.0429,39.365145 2853.1404,26.459567 2854.9423,24.657738 2856.7111,22.888938 2857.2301,24.717385 2855.6535,27.163236 2854.0623,29.631854 2851.2087,40.117652 2851.2077,43.5 2851.2067,46.926506 2853.3137,53.378266 2855.358,56.208188 2856.8568,58.283032 2857.0485,59.236595 2856.1779,60.285635 2854.5749,62.217186 2851.3241,73.506445 2850.5624,79.787192 2850.1095,83.522212 2850.4241,86.669691 2851.6342,90.508513 2852.9992,94.838822 2853.1131,96.456286 2852.195,98.471321 2851.2329,100.58304 2849,102.04629 2849,100.5651 z M 2854,102.15499 C 2854,101.69023 2854.9,100.49549 2856,99.5 2858.201,97.508151 2858.5584,98.088157 2856.9648,101.06574 2855.9213,103.01556 2854,103.72143 2854,102.15499 z"/>
</svg>
