<?xml version="1.0" encoding="UTF-8"?>
<svg xmlns="http://www.w3.org/2000/svg" viewBox="581.27 17.05 23.53 74.06">
  <path d="M589.49722 83.565728C587.7158 81.676879 585.93967 78.864379 585.55025 77.315728C584.05777 71.380358 583.2727 59.268621 584.03895 54.0C584.47889 50.975 585.06018 45.877429 585.33069 42.672065C585.60121 39.466701 586.04976 36.616909 586.32747 36.339194C586.92607 35.740598 586.40873 49.308602 585.41647 60.231465C584.86013 66.355745 585.0718 68.954193 586.43473 72.731465C589.14162 80.233443 589.9613 81.545923 593.096 83.397638C594.7126 84.352587 595.77578 85.553779 595.45862 86.066954C594.42295 87.742698 592.79073 87.057864 589.49722 83.565728Z M595.27305 71.27575C593.75428 68.942196 593.51836 66.346395 593.62801 53.175717L593.75602 37.799933L596.92108 33.30963C599.91827 29.057477 602.0559 23.0 600.55926 23.0C600.17935 23.0 598.94603 23.493697 597.81856 24.097106C596.23231 24.946038 595.86478 24.905647 596.19382 23.918548C597.02409 21.427732 599.8477 20.419128 601.46444 22.035864C602.68895 23.260377 602.76707 24.27323 601.88735 27.518913C601.29387 29.708511 600.00686 32.4 599.02732 33.5C596.52839 36.306242 595.18161 41.421052 594.94602 49.0C594.46767 64.388159 595.2784 68.683246 599.06835 70.839368C602.64374 72.873417 602.80581 74.0 599.52305 74.0C597.92717 74.0 596.41542 73.030974 595.27305 71.27575Z"/>
</svg>
