<?xml version="1.0" encoding="UTF-8"?>
<svg xmlns="http://www.w3.org/2000/svg" viewBox="2801.5 60.77 35.42 47.08">
  <path d="M 2830.8341,74.06029 C 2831.0612,72.509032 2830.7407,71.918177 2829.8341,72.216946 2829.1004,72.458786 2828.3496,73.68403 2828.1659,74.93971 2827.9388,76.490968 2828.2593,77.081823 2829.1659,76.783054 2829.8996,76.541214 2830.6504,75.31597 2830.8341,74.06029 z M 2829.4946,97.024399 C 2830.3201,93.266202 2829.3638,91.453174 2827.411,93.073886 2825.9532,94.283743 2825.4924,98.159042 2826.6667,99.333333 2827.9873,100.65397 2828.8526,99.947457 2829.4946,97.024399 z M 2822.9622,96.074012 C 2825.9792,90.160217 2826.6432,81.972682 2824.5502,76.492238 2822.2284,70.4128 2819.8046,69.161659 2817.0739,72.633123 2812.7466,78.134478 2812.3943,84.065241 2815.7603,94.75 2817.8154,101.27376 2820.0957,101.69296 2822.9622,96.074012 z M 2812.4514,76.337592 C 2812.9475,74.360826 2812.5807,73.137572 2811.0269,71.587592 2808.2432,68.81076 2806.841,70.87197 2808.2937,75.605285 2809.5409,79.668904 2811.5275,80.018813 2812.4514,76.337592 z M 2811.4351,98.071664 C 2813.4338,95.863178 2812.7454,91.776724 2810.5187,92.631204 2809.4311,93.048541 2807,97.897414 2807,99.649223 2807,100.76109 2809.9513,99.711342 2811.4351,98.071664 z M 2825.7175,102.75 C 2824.3936,100.79856 2823.9148,100.66587 2822.1091,101.75 2819.2106,103.49027 2817.5958,103.3158 2815.536,101.03983 2813.7801,99.099513 2813.7283,99.105445 2810.4243,101.62556 2808.5885,103.0258 2806.617,103.88132 2806.0432,103.52671 2803.4965,101.95275 2805.7141,93.141997 2809.4341,90.054723 2811.0974,88.674315 2811.6339,82 2810.0816,82 2808.4574,82 2805,75.361421 2805,72.24275 2805,66.157024 2810.8854,62.912832 2812.5293,68.092381 2813.274,70.438593 2814.7693,70.518721 2817.1753,68.341336 2819.0684,66.628114 2820.7657,67.022949 2825.2051,70.209278 2826.6199,71.224771 2827.3307,71.037965 2829.381,69.111767 2830.7859,67.791978 2832.3646,67.107322 2833.0403,67.524877 2834.9212,68.687381 2833.5186,75.453587 2830.6046,79.273973 2827.4759,83.375912 2827.3806,84.935677 2829.9963,89.22583 2831.96,92.446668 2832.7036,100.00276 2831.393,103.41821 2830.5124,105.71311 2827.486,105.3568 2825.7175,102.75 z"/>
</svg>
