<?xml version="1.0" encoding="UTF-8"?>
<svg xmlns="http://www.w3.org/2000/svg" viewBox="759.29 16.9 52.98 89.39">
  <path d="M763.92868 98.866745C761.69789 94.698476 764.58579 85.323776 769.82541 79.724788C772.37409 77.001302 772.42399 76.669848 772.50283 61.941166C772.5752 48.423088 772.39511 46.762554 770.68921 45.218738C767.39282 42.235543 765.85038 37.995119 765.75445 31.652207C765.65922 25.355911 767.12151 20.963546 769.28518 21.046672C769.95333 21.072341 771.42998 22.984451 772.56662 25.295806C775.39132 31.039845 777.26992 31.101927 780.51853 25.558593C781.98786 23.051367 783.64035 21.0 784.19073 21.0C786.28238 21.0 790.68213 24.322234 792.92461 27.594932C794.20787 29.467719 796.00374 31.0 796.91545 31.0C797.82715 31.0 800.25287 28.75 802.30594 26.0C804.359 23.25 806.48006 21.0 807.01939 21.0C809.85758 21.0 807.1133 37.360577 803.31146 43.105538C800.76413 46.954808 800.55551 48.042236 800.47697 57.880312C800.43033 63.72114 800.05213 70.075 799.63651 72.0C798.98636 75.011218 799.18291 75.639652 801.04389 76.5C802.96748 77.389289 804.12565 79.046004 807.1513 85.236431C808.73833 88.483472 808.14421 96.559513 806.18808 98.329788C804.48782 99.8685 804.14888 99.736795 800.68808 96.192613C798.65964 94.115297 797.0 91.872148 797.0 91.207837C797.0 88.836206 795.0874 90.066695 792.28274 94.242728C790.71555 96.576229 788.71094 98.624568 787.82807 98.794594C786.9452 98.964619 784.1146 97.025329 781.53786 94.485061C777.00237 90.01379 776.77609 89.916694 774.44724 91.442613C773.12415 92.309535 771.29447 94.477097 770.38128 96.259418C767.74021 101.41413 765.7273 102.22749 763.92868 98.866745Z M775.52014 84.091714C774.76255 80.642396 773.82413 79.746521 771.78732 80.528117C768.69033 81.716547 764.4296 92.349979 765.71167 95.691019C766.11573 96.743965 767.62247 95.777238 771.23081 92.149931C775.65135 87.706161 776.12045 86.824877 775.52014 84.091714Z M774.36971 40.75C774.70135 39.5125 774.97884 37.518703 774.98635 36.31934C775.0029 33.675786 770.89641 26.97993 769.5 27.373556C767.6554 27.893522 767.76385 36.146298 769.66159 39.670196C771.74455 43.538018 773.51381 43.943796 774.36971 40.75Z M790.92742 92.365141C792.06734 90.915969 793.0 88.980969 793.0 88.065141C793.0 87.149314 793.40571 85.9725 793.90158 85.45C796.12973 83.102184 798.41442 68.186492 798.33596 56.5C798.23763 41.852635 796.08413 35.042857 789.33199 28.027727L784.97401 23.5L782.52282 26.264123C780.02535 29.080446 776.0032 40.072534 775.48416 45.5C773.97208 61.311575 773.96484 66.979145 775.44761 74.126209C777.3226 83.163831 779.19689 87.351965 783.33466 91.75C787.03896 95.687302 788.23781 95.784429 790.92742 92.365141Z M806.0 92.149223C806.0 86.3684 802.32002 79.0 799.43291 79.0C797.6012 79.0 796.60167 86.371631 798.05325 89.175136C801.32326 95.490685 806.0 97.240963 806.0 92.149223Z M803.47432 39.04966C805.15148 35.80639 805.55882 28.0 804.05089 28.0C802.62917 28.0 798.0 34.434087 798.0 36.410132C798.0 38.644704 799.80644 42.0 801.0095 42.0C801.52603 42.0 802.6352 40.672347 803.47432 39.04966Z"/>
</svg>
