<?xml version="1.0" encoding="UTF-8"?>
<svg xmlns="http://www.w3.org/2000/svg" viewBox="487 13.81 38.04 92.56">
  <path d="M489.0 44.277227C489.0 43.673901 491.025 41.250323 493.5 38.891497C495.975 36.53267 498.0 33.854905 498.0 32.940908C498.0 32.02691 496.875 29.621314 495.5 27.595138C492.75071 23.543827 492.56295 23.0 493.91349 23.0C495.13086 23.0 501.0 31.038726 501.0 32.706104C501.0 33.427759 499.75354 35.251608 498.23009 36.759102C492.24139 42.685075 489.0 45.325263 489.0 44.277227Z M498.61166 99.525986C494.52293 95.114173 493.49153 90.61994 495.41307 85.588464C496.30529 83.252207 498.12997 79.856974 499.4679 78.043503C501.83685 74.832582 501.88656 74.389714 501.36706 61.123141C501.07366 53.630413 500.63082 46.861035 500.38298 46.080077C500.06191 45.068387 498.79207 45.773618 495.96618 48.533025C490.61664 53.75671 491.00488 51.710673 496.53423 45.539413C499.26736 42.488984 501.31944 40.948716 501.86338 41.539413C502.34989 42.067736 503.00451 50.465156 503.3181 60.200346C503.85322 76.813023 503.77472 77.936727 502.04062 78.487107C499.65504 79.244261 496.99896 84.867685 497.00374 89.151129C497.00579 90.993008 497.89918 93.9625 498.98904 95.75C500.76152 98.657086 501.45507 99.0 505.56222 99.0C509.30384 99.0 510.69497 98.458878 513.07692 96.076923C515.52824 93.62561 516.0 92.346849 516.0 88.153648C516.0 84.157233 515.44794 82.49787 513.25 79.887772C510.51575 76.640802 510.49809 76.522928 510.1674 59.311047C509.88492 44.608912 510.05597 42.0 511.30239 42.0C512.10956 42.0 513.56757 43.2375 514.5424 44.75C515.51724 46.2625 516.91899 47.859861 517.65741 48.29969C518.39584 48.73952 519.0 49.52702 519.0 50.04969C519.0 51.51941 516.85012 51.174338 514.87597 49.38775C513.21393 47.88363 513.04852 47.958516 512.40956 50.504316C512.03287 52.005164 511.96033 57.850526 512.24836 63.494009C512.69197 72.185939 513.17174 74.43691 515.38602 78.215301C518.54665 83.608506 518.73771 88.633637 515.98714 94.025213C513.5621 98.778676 510.41717 101.00023 505.10416 101.71285C501.70048 102.16938 500.77149 101.85647 498.61166 99.525986Z M502.60042 25.873006C500.62019 22.932536 499.0 20.18319 499.0 19.763348C499.0 18.021793 500.66964 19.282486 503.31485 23.021351C504.86302 25.209608 506.6416 27.0 507.26725 27.0C507.89289 27.0 509.88871 25.561725 511.70239 23.803833C513.51608 22.045941 515.0 21.052248 515.0 21.595625C515.0 22.139003 513.02019 24.526624 510.60042 26.90145L506.20083 31.219316L502.60042 25.873006Z M503.2 93.8C501.48838 92.088375 501.71625 86.426609 503.57143 84.571429C506.11763 82.025227 510.87644 82.544803 511.9967 85.491316C514.23589 91.380847 507.31644 97.916435 503.2 93.8Z M509.96123 90.072442C510.52861 89.012285 510.7213 87.437285 510.38943 86.572442C509.67697 84.715805 509.81925 84.738023 506.5651 85.975249C504.14864 86.893984 503.12276 89.789423 504.66667 91.333333C505.99447 92.661137 508.95286 91.956602 509.96123 90.072442Z M516.12736 41.522343C513.85731 39.059632 512.0 36.293799 512.0 35.376048C512.0 34.458297 514.025 31.542521 516.5 28.896546C521.5716 23.474592 522.58044 24.216727 518.0 30.0C516.35 32.083295 515.0 34.422277 515.0 35.197738C515.0 35.973198 516.575 38.134217 518.5 40.0C521.8177 43.215638 523.03695 46.0 521.12736 46.0C520.64741 46.0 518.39741 43.985054 516.12736 41.522343Z"/>
</svg>
