<?xml version="1.0" encoding="UTF-8"?>
<svg xmlns="http://www.w3.org/2000/svg" viewBox="1508.81 20.44 33.34 84.34">
  <path d="M1520.8512 100.33016C1519.94 100.08821 1518.9317 98.449661 1518.5974 96.667646C1518.2647 94.894072 1516.4192 91.054021 1514.4962 88.134199C1512.5733 85.214377 1511.0 81.715487 1511.0 80.358887C1511.0 79.002287 1512.5789 73.17308 1514.5087 67.405095C1518.3264 55.994457 1518.3181 54.228218 1514.4138 47.376654C1513.1215 45.108814 1511.7967 41.508814 1511.4699 39.376654C1510.8071 35.053258 1512.8777 27.874102 1514.9905 27.169835C1515.9474 26.850877 1516.0979 27.254501 1515.5288 28.61355C1514.0972 32.032631 1513.7407 40.646964 1514.9382 42.884593C1516.5421 45.8815 1517.9953 44.612971 1518.0239 40.190983C1518.0626 34.198638 1519.7464 28.625491 1522.0923 26.724996C1525.1141 24.276952 1525.3163 24.971962 1522.9194 29.568214C1521.339 32.598727 1520.9582 34.850074 1521.2584 39.389668C1521.5962 44.499041 1521.3987 45.344485 1519.7674 45.771089C1518.4633 46.112119 1518.1096 46.758943 1518.6135 47.881422C1520.5315 52.153481 1520.0748 57.830992 1517.083 66.909602C1513.2597 78.511325 1513.2376 81.084707 1516.9165 86.336522C1518.5205 88.626435 1520.1313 91.9625 1520.4959 93.75C1521.237 97.382604 1523.4806 98.094043 1524.3011 94.956568C1525.0516 92.086667 1523.4405 87.097743 1520.8845 84.377061C1518.8806 82.244008 1518.8349 81.900951 1520.2638 79.720166C1522.838 75.791438 1526.0 63.628154 1526.0 57.654732C1526.0 52.212723 1526.1281 51.944237 1529.8428 49.599261C1533.4562 47.318191 1537.0022 41.668845 1535.6618 40.328486C1535.3278 39.994425 1533.4452 40.94855 1531.4783 42.448764C1526.8012 46.016138 1524.9938 45.269422 1525.022 39.781385C1525.0454 35.208678 1528.2111 27.0 1529.9511 27.0C1531.2184 27.0 1531.3146 28.24942 1530.1474 29.55C1529.6785 30.0725 1528.7131 32.662123 1528.0021 35.304719C1526.1437 42.212202 1527.8096 43.541507 1532.568 38.948053C1536.0658 35.571498 1536.1704 35.541472 1537.6145 37.5C1540.1474 40.935164 1537.2752 47.787246 1532.0439 50.789595C1529.5191 52.238623 1529.207 53.045914 1528.6985 59.443849C1528.39 63.324732 1527.0487 69.798827 1525.7177 73.830728C1523.3234 81.084367 1523.3174 81.199635 1525.149 84.79217C1527.4073 89.221803 1527.5453 95.776513 1525.4433 98.777494C1524.5871 99.999872 1523.5746 100.9478 1523.1933 100.884C1522.812 100.8202 1521.758 100.57097 1520.8512 100.33016Z"/>
</svg>
