<?xml version="1.0" encoding="UTF-8"?>
<svg xmlns="http://www.w3.org/2000/svg" viewBox="2115.47 14.3 86.1 91.72">
  <path d="M 2197.375,54.25 C 2197.0456,54.069656 2196.7645,53.742222 2196.4375,53.3125 2195.6797,52.316655 2194.7955,50.7125 2194.4688,49.75 2193.7393,47.601058 2191.541,47.554229 2185.9375,49.53125 2180.4977,51.450531 2179.7236,50.491305 2180.5312,43 2181.0377,38.300836 2181.6234,37.088704 2184.5625,34.65625 2187.2782,32.408784 2188,31.059615 2188,28.3125 2188,24.201392 2183.4744,19 2179.9062,19 2177.3527,19 2174,21.643437 2174,23.65625 2174,25.75208 2171.8929,25.252654 2167,22 2161.6864,18.467704 2161.9047,18.51617 2159.4062,20.84375 2155.8566,24.15071 2152.0274,26.218417 2150.5625,25.65625 2149.7704,25.352313 2148.9872,23.631536 2148.8125,21.8125 2148.5073,18.634338 2148.3474,18.516757 2144.3438,18.59375 2139.4177,18.688482 2135.6535,20.909258 2132.9688,25.3125 2130.4362,29.466041 2130.4807,33.068012 2133.125,35.90625 2134.7175,37.615603 2135.9082,38.030152 2137.875,37.5625 2143.5878,36.204134 2143.4962,36.109327 2143.8125,42.75 2144.1602,50.048923 2143.6128,50.3444 2136.5,46.5625 2132.7275,44.556616 2131.3878,44.29145 2129.1875,45.125 2122.4811,47.665561 2119.3861,53.800532 2120.5312,62.28125 2121.4123,68.806093 2122.5508,71 2125.0312,71 2126.9776,71 2127.2049,70.432723 2128.4375,63.09375 2129.6723,55.741363 2133.2247,55.046098 2136.0312,61.59375 2138.7572,67.953054 2138.5127,70.045845 2134.5,75.09375 2130.365,80.295494 2130.2548,81.783381 2133.3438,90 2136.0026,97.072682 2137.9898,98.853878 2140.4688,96.375 2141.7353,95.108516 2141.9844,93.596143 2141.5312,89.625 2141.0594,85.490345 2141.3235,84.027673 2142.875,82.0625 2144.6966,79.755132 2144.9232,79.726684 2147.1562,81.25 2148.4522,82.134063 2151.275,84.469973 2153.4375,86.4375 2155.5999,88.405026 2158.0797,90 2158.9375,90 2159.7953,90 2162.8826,88.361674 2165.8125,86.34375 2170.3644,83.208793 2171.5213,82.808783 2173.8125,83.625 2175.9471,84.385434 2176.463,85.171967 2176.375,87.53125 2176.3142,89.161287 2175.6681,91.912842 2174.9375,93.65625 2173.8411,96.272471 2173.8551,97.102058 2174.9375,98.40625 2177.7922,101.84597 2179.9762,100.32327 2183.6875,92.25 2187.5156,83.922606 2187.4983,84.309702 2184.2188,71.84375 2182.325,64.645115 2187.8448,58.620923 2192.4062,62.90625 2193.9205,64.328821 2195.7929,64.892447 2197.6562,64.78125 L 2197.5938,62.15625 C 2196.3518,62.139045 2195.4384,61.567257 2193.7188,60.34375 2190.671,58.175181 2189.8793,57.975305 2187.9062,59.03125 2180.8607,62.801865 2179.2764,69.258534 2183.0938,78.46875 2185.2789,83.741055 2185.3121,84.270137 2183.8438,87.28125 2182.9842,89.043709 2181.7044,91.70417 2181,93.1875 2180.2956,94.670829 2179.0612,96.157487 2178.25,96.46875 2177.06,96.925386 2176.8953,96.382745 2177.4375,93.75 2179.3902,84.268998 2179.3387,83.611067 2176.1875,81.28125 L 2173.1875,79.09375 2167.0625,83.03125 C 2163.6923,85.209524 2160.3266,87 2159.5938,87 2158.8609,87 2155.8361,84.76651 2152.875,82.03125 2149.914,79.295989 2146.825,77.045973 2146,77.03125 2145.175,77.016527 2143.227,78.570581 2141.6875,80.5 2139.3559,83.422257 2138.9357,84.851223 2139.125,89 2139.25,91.739228 2139.0533,94.290467 2138.6875,94.65625 2137.7351,95.608636 2134.8262,88.22315 2134.2812,83.5 2133.8952,80.153922 2134.3173,78.866608 2136.875,75.65625 2138.5566,73.545483 2140.2149,70.938871 2140.5625,69.84375 2141.345,67.378314 2137.4704,56.732815 2134.9688,54.46875 2133.2515,52.914742 2132.9513,52.931734 2130.5938,54.65625 2127.8877,56.635637 2126,60.778357 2126,64.71875 2126,66.219479 2125.5207,67.004448 2124.75,66.75 2123.9804,66.495908 2123.4001,64.031941 2123.2188,60.3125 2122.9605,55.011978 2123.2209,53.870763 2125.5312,51.125 2128.7967,47.244374 2131.6447,47.132014 2138.0625,50.625 2145.306,54.567428 2146.128,53.791873 2145.7812,43.28125 L 2145.5,34.5 2140,34.5 C 2134.9024,34.5 2134.481,34.303885 2134.1562,32 2133.6429,28.359716 2136.7767,23.284174 2140.2812,22.0625 2145.6895,20.177205 2147,20.61931 2147,24.375 2147,30.786696 2149.6152,30.642999 2159.3125,23.6875 2161.8176,21.890723 2161.8893,21.899457 2167.4062,25.5625 2173.4779,29.593923 2175.176,29.369898 2176.4375,24.34375 2177.0105,22.060834 2177.473,21.848581 2180.3125,22.40625 2182.0736,22.752128 2184.0625,23.796038 2184.75,24.71875 2187.3363,28.189887 2185.6498,33 2181.8438,33 2180.873,33 2179.6085,33.823635 2179.0625,34.84375 2177.9722,36.881075 2178.1814,52.525191 2179.3125,53.65625 2179.7007,54.044449 2181.5945,53.611073 2183.5312,52.6875 2188.7588,50.194677 2191.5327,50.534953 2194,54 2195.2377,55.738162 2196.1494,56.611488 2197.4375,56.75 L 2197.375,54.25 z M 2162.0312,29.3125 C 2161.179,29.556113 2160.1701,30.363197 2158.3438,31.9375 2152.7637,36.747567 2151,40.455714 2151,47.34375 2151,52.960041 2151.1017,53.214263 2153.25,52.625 2160.0559,50.758166 2162.5095,50.810404 2164.4062,52.90625 2168.403,57.322603 2170.4108,54.996651 2171.3125,44.84375 2171.8296,39.02174 2171.6319,37.729053 2169.6875,34.84375 2168.4625,33.025926 2166.2859,30.903231 2164.8438,30.09375 2163.6016,29.396549 2162.8835,29.068887 2162.0312,29.3125 z M 2161.1875,55 C 2158.9988,55 2151.7231,61.454271 2150.4375,64.53125 2147.7346,71.000178 2149.0694,74.602986 2155.9688,79.3125 2157.3286,80.240753 2158.7287,81 2159.0938,81 2159.4588,81 2162.0625,78.828028 2164.875,76.1875 2170.1993,71.188782 2171.0129,68.786422 2169.0625,63.65625 2168.0405,60.968344 2162.61,55 2161.1875,55 z M 2162.4688,32 C 2163.1525,32 2164.9334,33.214602 2166.4062,34.6875 2168.8412,37.122473 2169.0464,37.940609 2168.7812,43.84375 2168.6208,47.414519 2168.05,50.463182 2167.5,50.625 2166.95,50.786819 2165.455,50.055457 2164.1875,49 2162.3801,47.494994 2161.3439,47.282678 2159.375,48.03125 2154.1343,50.023766 2153,49.405666 2153,44.5 2153,40.540395 2153.5001,39.517802 2157.125,36 2159.3913,33.800611 2161.785,32 2162.4688,32 z M 2159.9062,59.125 C 2161.4622,59.08021 2162.9738,59.942055 2164.5625,61.65625 2168.3798,65.77509 2167.9434,70.977411 2163.4688,74.90625 2161.5246,76.613226 2159.4869,78 2158.9375,78 2158.3881,78 2156.6002,76.637713 2154.9688,74.96875 2150.9156,70.822342 2150.9113,65.96366 2154.9375,61.9375 2156.7496,60.125412 2158.3503,59.16979 2159.9062,59.125 z"/>
</svg>
