<?xml version="1.0" encoding="UTF-8"?>
<svg xmlns="http://www.w3.org/2000/svg" viewBox="1671.29 10.36 118.02 96.38">
  <path d="M 1676.6562,69.9375 C 1680.4136,62.927933 1684.9024,54.338908 1688.4375,48 1691.3514,42.775 1694.8504,36.475 1696.2188,34 1697.587,31.525 1700.1547,27.077622 1701.9062,24.125 1703.6579,21.172379 1704.9162,18.279683 1704.7188,17.6875 1704.2918,16.407049 1695.3571,31.171813 1685.4688,49.5 1684.2818,51.7 1680.5547,58.675 1677.1562,65 1676.919,65.441603 1676.8909,65.470826 1676.6562,65.90625 L 1676.6562,69.9375 z M 1676.6562,34.59375 C 1678.6091,30.923211 1680.7656,26.880217 1681.9688,24.65625 1683.7044,21.44728 1684.9401,18.29728 1684.7188,17.65625 1684.4971,17.015219 1682.3835,20.325 1680.0312,25 1679.3409,26.372066 1677.6558,29.337753 1676.6562,31.21875 L 1676.6562,34.59375 z M 1744.7188,15.375 C 1744.0863,14.742716 1739.2933,22.953072 1727.5,45 1722.6457,54.075 1715.8322,66.373244 1712.3438,72.34375 1708.8551,78.314256 1706,83.470064 1706,83.78125 1706,84.092437 1705.3688,85.037943 1704.5938,85.90625 1703.3431,87.307439 1698,96.806857 1698,97.625 1698,97.800821 1698.5625,97.707311 1699.25,97.4375 1699.9375,97.167689 1701.9631,94.369177 1703.75,91.21875 1710.2617,79.738233 1712.1998,76.432728 1714.4688,73 1715.7411,71.075 1719.5961,64.325 1723.0312,58 1742.6266,21.920717 1745.5546,16.210789 1744.7188,15.375 z M 1782.9062,17.1875 C 1781.6275,17.613801 1776.7652,25.819247 1769.0625,40.5 1766.4654,45.45 1762.5588,52.298793 1760.4062,55.71875 1752.7364,67.904527 1737,96.673008 1737,98.5 1737,100.70172 1740.4693,95.739147 1744.5938,87.65625 1747.1639,82.619215 1750.0231,77.375 1750.9375,76 1751.8519,74.625 1753.1384,72.375 1753.8125,71 1754.4867,69.625 1757.2509,64.9 1759.9375,60.5 1762.6242,56.1 1766.9054,48.471197 1769.4688,43.53125 1772.0322,38.591303 1774.5184,34.091303 1774.9688,33.53125 1777.188,30.770672 1783.9513,16.839141 1782.9062,17.1875 z M 1764.75,17.40625 C 1764.09,16.746194 1761.719,20.515628 1756.0938,31.25 1745.503,51.459307 1742.8813,56.317 1739.6875,61.3125 1735.5455,67.790985 1718,99.486939 1718,100.5 1718,102.36443 1721.383,98.101175 1724.6875,92.09375 1726.6835,88.465233 1732.4098,78.403497 1737.4062,69.71875 1751.5078,45.208 1765.6004,18.256607 1764.75,17.40625 z M 1724.6562,16.34375 C 1724.0264,15.713731 1719.9264,22.081036 1715.25,30.96875 1713.3622,34.556685 1711.1882,38.625 1710.4062,40 1706.6686,46.573311 1694,70.264995 1694,70.6875 1694,70.950828 1690.8801,76.65522 1687.0625,83.34375 1683.245,90.03228 1679.8038,96.2875 1679.4375,97.25 1679.0711,98.2125 1679.2035,99 1679.7188,99 1680.2338,99 1682.6007,95.2875 1684.9688,90.75 1687.3366,86.2125 1689.7909,81.825 1690.4375,81 1691.0841,80.175 1693.1308,76.575 1694.9688,73 1696.8065,69.425 1699.98,63.35 1702.0312,59.5 1704.0826,55.65 1707.2396,49.575 1709.0625,46 1710.8854,42.425 1712.9373,38.825 1713.5938,38 1715.8169,35.205798 1725.1818,16.869339 1724.6562,16.34375 z M 1769.6875,71.375 C 1769.3694,71.056945 1767.0169,74.98902 1764.4375,80.125 1761.8581,85.260979 1758.6799,90.882968 1757.375,92.59375 1756.0701,94.304532 1755,95.983165 1755,96.34375 1755,97.571593 1756.6854,97.004604 1758.25,95.25 1760.4727,92.757271 1770.3817,72.069263 1769.6875,71.375 z"/>
</svg>
