<?xml version="1.0" encoding="UTF-8"?>
<svg xmlns="http://www.w3.org/2000/svg" viewBox="2366.03 33.28 29.36 70.76">
  <path d="M 2379.4375 36.65625 L 2378.6562 39.40625 C 2379.0867 39.295375 2379.215 39.357136 2379.7812 39.1875 C 2381.9903 38.525651 2384.4877 38.265285 2385.3438 38.59375 C 2387.9503 39.594 2389.3445 45.655031 2388.5 52.40625 C 2387.7597 58.324797 2387.7025 61.049523 2388.1875 74.25 C 2388.4881 82.432914 2386.7837 87.921407 2382.2188 93.40625 C 2377.8796 98.619814 2375.0166 99.184532 2372.5 95.34375 C 2369.9892 91.511694 2371.0847 84.76185 2375.5625 76.46875 C 2385.3378 58.36404 2385.6776 45.358963 2376.9375 45.5625 L 2376.0625 48.625 C 2377.4857 48.476597 2378.4404 48.795225 2379.4375 50.21875 C 2381.1148 52.613411 2381.5858 59.534646 2380.125 60.4375 C 2379.6359 60.739762 2378.9053 62.232303 2378.5312 63.75 C 2378.1572 65.267696 2376.1246 70.1 2374 74.5 C 2369.5845 83.644348 2368.0307 92.836217 2370.2188 97 C 2371.8549 100.11368 2376.8011 100.83093 2380.4062 98.46875 C 2387.9825 93.504606 2393.3866 75.395589 2389.9688 66.40625 C 2389.2029 64.39205 2389.3884 61.600166 2390.6562 55.5 C 2392.3091 47.547563 2392.2745 47.126484 2390.375 41.90625 L 2388.4375 36.5 L 2382.2188 36.75 C 2380.7016 36.808094 2380.318 36.677394 2379.4375 36.65625 z "/>
</svg>
