<?xml version="1.0" encoding="UTF-8"?>
<svg xmlns="http://www.w3.org/2000/svg" viewBox="1773.16 11.87 98.96 91.46">
  <path d="M 1840.0938,52.03125 C 1839.4483,52.525509 1838.8278,53 1838.5625,53 1837.9049,53 1836.3734,51.646333 1835.1562,50 1833.939,48.353667 1831.8261,46.25361 1830.4375,45.34375 1828.0468,43.777285 1827.6222,43.837071 1822.9375,46.03125 1820.2165,47.30571 1817.7215,48.065281 1817.375,47.71875 1816.2233,46.56706 1816.5545,39.570003 1818,34.75 L 1819.4375,30 1824.125,30.625 C 1828.3592,31.186684 1828.95,30.988879 1830.4375,28.71875 1832.1365,26.125617 1831.7861,21.85101 1829.6562,19.15625 1828.3512,17.505096 1823.3799,18.361108 1820.8438,20.65625 1819.1932,22.150042 1818.8602,22.119751 1816.5312,20.59375 1815.1422,19.683581 1814,18.506071 1814,17.96875 1814,16.026901 1810.3573,17.07243 1806.9688,19.96875 1802.7074,23.611233 1801.0981,23.683986 1796.4062,20.5 1791.6095,17.244923 1790.3799,17.33985 1788.4062,21.15625 1787.0656,23.748992 1786.9919,25.010535 1787.9062,28.0625 1789.4036,33.060423 1792.2977,33.75404 1797.2188,30.34375 1799.2716,28.92111 1801.5684,28.015006 1802.3438,28.3125 1803.9233,28.918614 1807.4954,43.294439 1806.625,45.5625 1805.843,47.60055 1804.2939,47.331109 1797.5312,44.03125 1791.7527,41.211553 1791.4811,41.182689 1788.6562,42.8125 1787.0535,43.737303 1784.709,46.075 1783.4375,48 1780.9418,51.77841 1777.6624,66.658579 1779.125,67.5625 1780.5354,68.434175 1782.0979,67.005264 1783.5625,63.5 1785.8559,58.011078 1789.8342,54 1793,54 1798.7757,54 1805.2188,63.078209 1803.4062,68.65625 1800.7477,76.837844 1798.7411,77.97296 1794.3125,73.8125 L 1791.9688,71.625 1789.3125,73.625 C 1784.2829,77.380116 1784.1278,78.589775 1788.25,82.59375 1790.3047,84.58944 1792,86.847941 1792,87.59375 1792,88.339559 1790.65,89.936352 1789,91.15625 1787.35,92.376148 1786,93.740933 1786,94.1875 1786,97.132866 1794.8751,90.453544 1794.9688,87.4375 1794.987,86.848999 1793.425,84.53018 1791.5,82.28125 1789.575,80.032321 1788,77.930718 1788,77.625 1788,77.319281 1788.9022,76.58749 1790,76 1791.5901,75.149002 1792.6028,75.383916 1795,77.15625 L 1798,79.375 1800.75,77.34375 C 1804.0626,74.870508 1806.2164,68.136946 1805.375,62.875 1805.0171,60.637045 1803.3508,57.412525 1801.3125,55.03125 1796.3225,49.201578 1792.512,49.380395 1786.4688,55.6875 1782.9968,59.311084 1781.9957,59.931341 1782,58.4375 1782.0184,52.055229 1786.5327,44.9408 1790.625,44.84375 1791.6589,44.819231 1795.3382,46.003675 1798.8125,47.46875 1803.5435,49.463725 1805.474,49.856906 1806.4688,49.03125 1808.4256,47.407224 1809.0824,42.060001 1807.9062,37.5 1804.8638,25.704172 1804.8852,25.806739 1806.4375,23.4375 1808.5934,20.147238 1811.7077,19.440305 1814.1562,21.65625 1817.5993,24.772156 1817.9831,26.383507 1816.5312,32.09375 1812.8728,46.483211 1814.8195,51.761356 1822.625,48.5 1827.2667,46.560568 1828.8192,47.070972 1833.4375,52.0625 L 1837.1562,56.09375 1840.3438,54.25 C 1840.6474,54.074289 1840.9716,53.724145 1841.2812,53.5 L 1840.0938,52.03125 z M 1825.25,20.6875 C 1828.6146,20.42377 1831.5275,25.097487 1828.8125,27.8125 1827.1419,29.483063 1825.5876,29.302145 1822.9375,27.15625 1820.4071,25.107273 1820.7366,22.754466 1823.7812,21.125 1824.2655,20.865818 1824.7693,20.725176 1825.25,20.6875 z M 1792.6562,21.5 C 1794.6166,22.189685 1797.0553,24.705896 1796.8125,26.40625 1796.4663,28.83026 1793.1042,29.697914 1791.25,27.84375 1789.7769,26.370627 1789.5936,22.381143 1790.9688,21.53125 1791.4048,21.261784 1792.0028,21.270105 1792.6562,21.5 z M 1825.4062,55.5625 C 1824.7422,55.42852 1824.1369,55.432842 1823.5938,55.59375 1820.6152,56.476107 1816.9198,60.302002 1816.875,62.5625 1816.8539,63.623217 1817.1373,66.192569 1817.5312,68.25 1818.1934,71.707867 1817.9093,72.406639 1813.5312,77.53125 1809.0357,82.793318 1808.8341,83.216679 1810,86.03125 1810.8331,88.042677 1811.9509,89 1813.4375,89 1815.8818,89 1821.018,84.180039 1820.9688,81.9375 1820.9426,80.750684 1820.719,80.79084 1819.7188,82.09375 1818.5616,83.600896 1814.7749,86 1813.5625,86 1812.2963,86 1813.1062,82.104644 1814.8438,79.875 1818.7596,74.850292 1820.0012,71.287709 1819.375,66.71875 1818.8576,62.944024 1819.0953,61.988983 1821.0625,60.15625 1822.3299,58.97549 1823.7822,58 1824.2812,58 1826.2455,58 1830.6891,61.352883 1832.7812,64.40625 1835.3891,68.212166 1835.6127,71.693697 1833.4062,74.84375 1832.5252,76.101696 1832.0423,77.386039 1832.3438,77.6875 1833.2874,78.631191 1836.996,71.638287 1837,68.90625 1837.007,64.014648 1830.0546,56.500359 1825.4062,55.5625 z M 1846.6562,60.25 1843.75,64.34375 1845.875,68.6875 C 1849.2358,75.605099 1852.2299,76.023694 1863.25,71.15625 1864.8816,70.435587 1863.8921,75.89012 1861.9375,78.375 1858.592,82.62815 1851.5312,81.381654 1846.0938,75.59375 1843.2947,72.614344 1841.7331,73.086519 1839,77.71875 1836.3859,82.149342 1836.8972,82.749761 1840.4375,79.46875 L 1843.1562,76.9375 1846.5,79.875 C 1848.338,81.488808 1851.1931,83.106194 1852.8438,83.46875 1858.2949,84.66603 1865.0946,79.385215 1866.5312,72.84375 1867.6287,67.846846 1865.721,67.100449 1860.0625,70.28125 1854.1247,73.619059 1850.8619,72.874484 1848.3438,67.59375 L 1846.6875,64.125 1848.0625,62 1846.6562,60.25 z M 1824.5938,87.0625 C 1823.802,87.338231 1821.9565,88.806868 1819.8125,90.90625 1816.9539,93.705426 1813.9937,96 1813.25,96 1811.1264,96 1805.6609,92.964301 1804,90.875 1802.5271,89.022303 1802.4164,89.035855 1799.3438,91.21875 1797.6138,92.447768 1795.6276,94.363833 1794.9375,95.46875 1793.9706,97.01703 1794.5313,96.817775 1797.4062,94.625 1801.1343,91.781493 1801.1363,91.781538 1803.3125,93.75 1804.5101,94.833295 1806.4,96.235362 1807.5,96.84375 1811.7117,99.173176 1815.0174,97.964283 1821.75,91.65625 1823.5375,89.981477 1825,87.985035 1825,87.21875 1825,87.027179 1824.8577,86.97059 1824.5938,87.0625 z"/>
</svg>
