<?xml version="1.0" encoding="UTF-8"?>
<svg xmlns="http://www.w3.org/2000/svg" viewBox="2030.42 13.61 49.84 42.96">
  <path d="M 2032.6875,36.4375 2032.6875,41.375 C 2032.9539,40.785481 2033.4056,40.136781 2034.0625,39.4375 2036.691,36.639597 2038.2459,36.386394 2040,38.5 2041.6401,40.476174 2044.8791,40.404586 2047.1562,38.34375 2051.0153,34.851309 2048.2815,21.469296 2043.3125,19.5625 2040.5145,18.488825 2040.6696,19.797539 2043.875,24.15625 2049.4635,31.755381 2046.9327,40.879515 2040.7812,35.3125 2039.0246,33.722786 2038.7519,33.731018 2035.9688,35.375 2034.5363,36.221146 2033.4901,36.502914 2032.6875,36.4375 z M 2032.6875,43.03125 2032.6875,49.28125 2032.7188,49.53125 C 2033.0453,48.90964 2033.4634,48.369609 2034.1875,47.8125 2037.0606,45.601862 2039.3572,45.538991 2041.0625,47.59375 2042.0513,48.785259 2043.4028,49.026947 2046.5,48.5625 2049.8211,48.064456 2051.2902,48.370118 2054.0625,50.25 2060.4424,54.576278 2062.4481,54.518865 2067.6875,49.75 2069.1202,48.44593 2070.6873,47.936516 2072.125,48.3125 2075.5169,49.199489 2078,47.365627 2078,43.96875 2078,41.819664 2076.8818,39.920714 2073.9688,37.09375 2069.9762,33.219189 2069.9661,33.168963 2070.625,27.5625 2071.3226,21.627154 2070.0817,17.629859 2067.2188,16.53125 2064.8296,15.614484 2062.8482,18.000886 2063.5,20.96875 2063.8236,22.441757 2063.3675,25.286365 2062.4688,27.4375 2061.3172,30.19357 2061.0503,32.690219 2061.5312,36.1875 2061.9821,39.465229 2061.7876,41.544575 2060.9688,42.53125 2059.2081,44.652745 2058.2215,44.359255 2056.6562,41.25 2055.5021,38.957348 2055.4983,38.001075 2056.5938,35.5 2057.4011,33.656202 2057.6912,30.708165 2057.3438,27.875 2057.0156,25.199512 2057.2727,22.367174 2057.9375,21.125 2059.5646,18.084685 2057.4342,18.373614 2055.4062,21.46875 2054.102,23.459184 2054.0156,24.565755 2054.875,27.03125 2055.7068,29.417204 2055.57,31.169533 2054.3438,34.78125 2052.874,39.109945 2052.8857,39.66324 2054.5312,42.71875 2056.7586,46.854652 2060.0381,47.05533 2063.0312,43.25 2064.7481,41.067388 2065.0312,39.778435 2064.4688,37 2063.5113,32.270499 2063.7226,27.87114 2064.9688,26.625 2065.5334,26.060339 2066,24.5775 2066,23.3125 2066,21.934722 2066.6014,21 2067.5,21 2069.2836,21 2069.5167,25.247116 2067.9688,29.6875 2066.6847,33.370906 2068.0528,37.582962 2070.8438,38.46875 2073.6962,39.374127 2076.4873,43.918993 2075.0625,45.34375 2074.2385,46.167827 2073.4457,46.12162 2072,45.21875 2069.0048,43.348194 2067.0534,43.749245 2066.0312,46.4375 2064.2631,51.088356 2060.5089,51.562275 2056.25,47.6875 2053.9601,45.604201 2048.8954,44.972984 2045.875,46.375 2044.7742,46.885959 2043.3331,46.290445 2041.4688,44.5625 2038.3989,41.717423 2037.7146,41.547192 2035,43 2033.7482,43.669972 2033.0256,43.514582 2032.6875,43.03125 z M 2053.7188,17 C 2052.991,17 2051.8867,17.51956 2051.25,18.15625 2050.3732,19.033075 2049.7258,19.007354 2048.625,18.09375 2046.5554,16.376103 2045.6043,18.447971 2047.5625,20.40625 2049.7991,22.642821 2051.5156,22.385685 2053.4062,19.5 2054.6609,17.585108 2054.7321,17 2053.7188,17 z"/>
</svg>
