<?xml version="1.0" encoding="UTF-8"?>
<svg xmlns="http://www.w3.org/2000/svg" viewBox="452.26 14.72 28.73 86.51">
  <path d="M459.13008 92.75C454.48534 78.023088 454.25757 59.356998 458.3461 28.5C459.41265 20.450558 459.76913 19.466914 461.72132 19.186737C463.08333 18.991261 464.38853 19.649265 465.19256 20.936737C466.75077 23.431816 468.71902 23.564262 471.17739 21.339464C474.14823 18.650893 474.47859 20.642515 471.62443 24.03449C468.58469 27.647022 468.52482 27.967897 470.40968 30.545595C471.793 32.437392 471.85846 32.438068 473.90968 30.581737C476.85304 27.918036 476.5146 30.234986 473.42378 33.908218C470.36135 37.547708 470.554 40.611867 473.82289 40.256138C475.75233 40.046171 475.91962 40.281667 475.02652 41.950444C474.45602 43.016437 473.54166 44.165233 472.99462 44.503323C471.87809 45.193378 471.63553 50.302197 472.67017 51.336841C473.03877 51.705437 474.38877 51.320063 475.67017 50.480455C478.99164 48.304149 478.55319 50.176506 475.0 53.342416C473.35 54.812573 472.0 56.361829 472.0 56.785208C472.0 58.373859 475.16854 62.0 476.5567 62.0C477.35052 62.0 478.0 62.451713 478.0 63.003806C478.0 63.555899 476.53777 63.893399 474.75061 63.753806C472.09685 63.546524 471.4453 63.891283 471.19618 65.634606C471.00381 66.980795 471.83462 68.511351 473.44557 69.778526C475.99437 71.783414 476.84155 74.0 475.05902 74.0C474.54148 74.0 473.83992 73.55 473.5 73.0C472.27928 71.024826 471.05918 72.070445 469.84125 76.13554C468.63946 80.146754 468.68968 80.340831 471.51202 82.591286C474.62873 85.076457 474.43875 86.840366 471.23884 85.127824C467.49025 83.121637 465.49231 88.424156 468.49977 92.397322C470.40582 94.915409 469.43265 96.26896 466.82299 94.729521C465.16781 93.753136 464.64549 93.757352 464.28601 94.75C463.3643 97.295171 460.17319 96.057331 459.13008 92.75Z M464.72599 88.75C465.7452 85.812804 467.84748 75.627761 469.47352 65.749246C470.13403 61.736553 470.17602 45.966573 469.54288 39.707212C468.62497 30.6327 463.11007 18.820308 461.176 21.786152C459.74118 23.986407 457.6916 50.814548 457.83641 65.5C457.95598 77.625805 459.18089 88.756754 460.67007 91.25C461.70837 92.988363 463.67614 91.775463 464.72599 88.75Z"/>
</svg>
