<?xml version="1.0" encoding="UTF-8"?>
<svg xmlns="http://www.w3.org/2000/svg" viewBox="1946.37 12.84 33.82 91.31">
  <path d="M1955.5561 85.359095C1963.855 69.334868 1966.0171 65.68375 1966.7647 66.431411C1967.2656 66.932256 1952.6656 96.452175 1950.7805 98.75C1950.2166 99.4375 1949.3543 100.0 1948.8644 100.0C1948.3745 100.0 1951.3858 93.411593 1955.5561 85.359095Z M1950.4232 53.660334C1950.1137 52.853797 1950.7677 50.415557 1951.8765 48.242022C1953.8894 44.296432 1953.8895 44.283762 1951.9108 40.28455C1950.2038 36.834372 1950.0764 35.621496 1950.9916 31.537384C1953.235 21.527015 1958.0 16.990547 1958.0 24.865141C1958.0 28.947382 1961.0493 34.0 1963.5131 34.0C1964.2654 34.0 1966.7949 31.730129 1969.1342 28.955842C1974.5904 22.485207 1977.3515 22.438633 1977.8104 28.809496C1978.1945 34.141605 1975.0365 41.125775 1970.9142 44.061115C1968.8623 45.522175 1968.0 46.979537 1968.0 48.986307C1968.0 52.918706 1967.0607 55.0 1965.286 55.0C1964.2215 55.0 1964.0166 54.491899 1964.5803 53.25C1965.0171 52.2875 1965.4028 49.809207 1965.4373 47.742681C1965.4894 44.62144 1966.041 43.656103 1968.6957 42.040422C1972.8379 39.519413 1975.0484 36.057789 1975.7217 31.038099C1976.4578 25.5504 1974.3323 25.668062 1969.6569 31.373843C1964.8157 37.281892 1962.7882 37.661723 1959.0174 33.367034C1957.3578 31.47689 1955.9857 28.933566 1955.9682 27.715204C1955.9371 25.55215 1955.9018 25.545698 1954.4682 27.44113C1953.6607 28.508751 1953.0 31.235243 1953.0 33.5C1953.0 35.764757 1953.6607 38.491249 1954.4682 39.55887C1955.2757 40.626492 1955.9364 42.625 1955.9364 44.0C1955.9364 45.375 1955.2757 47.373508 1954.4682 48.44113C1953.6607 49.508751 1953.0 51.169693 1953.0 52.132113C1953.0 54.432519 1951.1423 55.534273 1950.4232 53.660334Z M1967.0 98.298599C1967.0 97.032931 1973.4035 87.0 1974.2113 87.0C1975.4254 87.0 1975.188 87.737862 1972.6769 91.769872C1971.3993 93.821442 1970.0634 96.2875 1969.7083 97.25C1969.0874 98.933227 1967.0 99.741419 1967.0 98.298599Z"/>
</svg>
