<?xml version="1.0" encoding="UTF-8"?>
<svg xmlns="http://www.w3.org/2000/svg" viewBox="261.14 15.65 32.65 88.78">
  <path d="M283.52336 94.070315C282.62523 91.366299 281.24005 88.61419 280.4452 87.954516C279.65034 87.294843 279.0 86.135211 279.0 85.377555C279.0 83.604199 275.58556 83.589519 274.11904 85.356569C273.49982 86.102683 272.59549 88.841915 272.10941 91.443751C271.62333 94.045588 270.71248 96.687518 270.08529 97.314706C267.00008 100.39992 263.14459 92.373239 264.42736 85.535534C264.77901 83.661077 266.64858 79.827815 268.58196 77.017174L272.0972 71.906917L269.9837 65.954097C267.25665 58.273132 266.29186 44.152554 267.99917 36.90846C269.80698 29.237931 273.61015 22.134749 276.65115 20.749179C278.97953 19.688298 279.50111 19.877225 282.01674 22.692702C288.38613 29.821289 290.37974 50.848779 286.02134 64.931039L283.90257 71.776918L286.82122 76.379147C291.71062 84.088932 291.79021 95.436355 286.97298 98.014463C285.40204 98.8552 284.93544 98.321705 283.52336 94.070315Z M269.33967 93.25C269.60061 92.2875 270.0808 90.297182 270.40676 88.827072C271.08767 85.756115 275.61285 80.0 277.34618 80.0C278.43697 80.0 283.54973 87.323613 285.20001 91.25C286.07118 93.322683 287.85397 93.544136 288.5735 91.669046C289.44893 89.387715 287.02052 80.678926 284.39601 76.687694L281.88916 72.875389L283.94458 64.747304C286.78697 53.507181 286.6935 36.0 283.7911 36.0C283.2545 36.0 281.66298 36.906542 280.25439 38.014538C277.91433 39.855229 277.49385 39.898377 275.38184 38.514538C270.37225 35.232128 269.0 36.848782 269.0 46.032997C269.0 51.60376 270.01748 56.601352 273.30219 67.164161C274.87805 72.231757 274.43127 73.559054 269.35187 78.899782C266.92587 81.450602 266.02947 85.728948 266.76426 91.25C267.29131 95.21019 268.54442 96.183319 269.33967 93.25Z M281.45178 34.75C283.83871 32.65482 283.93431 32.242266 282.8411 28.754358C281.23965 23.644879 278.58481 21.269759 276.45282 23.039155C274.35138 24.7832 272.0 29.424468 272.0 31.828368C272.0 33.755372 275.44067 36.848569 277.69424 36.947548C278.35107 36.976397 280.04196 35.9875 281.45178 34.75Z"/>
</svg>
