<?xml version="1.0" encoding="UTF-8"?>
<svg xmlns="http://www.w3.org/2000/svg" viewBox="1981.99 16.33 50.7 91.12">
  <path d="M2019.2774 99.25C2017.5221 98.2875 2014.9839 96.527283 2013.637 95.338406C2012.2901 94.149529 2009.0247 92.219841 2006.3806 91.050211C2003.7365 89.88058 2000.8066 88.229931 1999.8697 87.382101C1997.0938 84.869922 1994.2914 87.189639 1992.45 93.523961C1990.6267 99.795822 1988.8257 100.4974 1986.4319 95.868286C1984.2992 91.744033 1985.2844 85.003952 1988.595 81.069426C1990.8646 78.372241 1991.014 77.592989 1990.4038 71.637158C1989.9108 66.824896 1990.202 63.43317 1991.5294 58.52959C1993.2952 52.00621 1993.2912 51.862652 1991.2453 48.207104C1987.0914 40.784949 1987.6834 33.466419 1993.047 25.93393C1996.3174 21.341099 1998.0164 22.065649 1997.3414 27.765281C1996.9633 30.958032 1997.292 33.763009 1998.3375 36.265281C2000.7385 42.011816 2005.0148 41.040126 2009.3065 33.772831C2010.6943 31.422774 2013.3598 28.029984 2015.2297 26.233298C2018.6775 22.920619 2024.5555 20.471689 2025.4776 21.963716C2025.7551 22.412719 2024.7937 24.906471 2023.3411 27.505387C2019.4907 34.39455 2019.1884 41.524891 2022.5375 46.46007C2027.3946 53.617403 2022.4634 55.442617 2014.6712 49.371711C2009.3124 45.196735 2008.396 45.484861 2005.05 52.396645C2001.3383 60.064102 2002.6105 73.58615 2007.6134 79.641218L2009.9754 82.5L2012.7377 79.371608C2016.2716 75.369376 2021.3105 72.521446 2023.4234 73.332227C2024.9235 73.907864 2024.9316 74.174792 2023.5146 76.337317C2022.6321 77.684311 2021.8602 81.342209 2021.7298 84.795912C2021.5146 90.494384 2021.715 91.103219 2024.8823 94.374672C2030.3937 100.06737 2026.6719 103.30474 2019.2774 99.25Z M1992.3486 88.870236C1995.2296 84.469804 1995.1413 81.0 1992.1482 81.0C1989.891 81.0 1987.0 86.00024 1987.0 89.904292C1987.0 94.236862 1989.1009 93.830695 1992.3486 88.870236Z M1997.5645 45.541929C1999.0624 43.255787 1999.0333 42.704988 1997.1484 37.66713C1996.0338 34.687929 1995.3718 31.294061 1995.6775 30.125201C1996.527 26.876676 1994.2458 27.561513 1991.9308 31.25C1989.607 34.952394 1989.8847 41.648841 1992.5293 45.685039C1994.4615 48.634026 1995.5589 48.602837 1997.5645 45.541929Z M2023.2993 96.75C2019.7919 92.899269 2018.8517 90.070513 2019.1242 84.188683C2019.45 77.155515 2017.3721 76.009371 2014.1613 81.451239C2013.0097 83.403057 2011.5429 85.0 2010.9018 85.0C2008.6027 85.0 2003.4762 78.289713 2002.25 73.675225C1999.2449 62.366718 2001.3885 51.834181 2007.9805 45.518687L2010.9661 42.65832L2015.983 46.888686C2020.9714 51.094964 2022.2307 50.776778 2019.5 46.0C2017.6277 42.724806 2017.6277 36.306578 2019.5 31.0C2020.325 28.661701 2021.0 26.355124 2021.0 25.874273C2021.0 22.16856 2012.3583 30.955516 2010.9843 36.058394C2010.1928 38.997866 2009.1695 40.365247 2007.2015 41.113503C2001.8103 43.16321 1997.1411 49.370345 1993.8966 58.8004C1991.6254 65.401878 1991.6116 68.867763 1993.8302 75.466726C1995.2287 79.6266 1996.4747 81.123694 2001.5 84.682371C2004.8 87.019278 2008.2875 88.946751 2009.25 88.965646C2010.2125 88.984541 2011.989 90.0125 2013.1977 91.25C2015.8454 93.960697 2023.1345 98.989744 2024.4243 98.995719C2024.9327 98.998073 2024.4264 97.9875 2023.2993 96.75Z"/>
</svg>
