<?xml version="1.0" encoding="UTF-8"?>
<svg xmlns="http://www.w3.org/2000/svg" viewBox="1594.86 15.07 47.99 89.19">
  <path d="M1598.3794 37.75C1599.2722 36.5125 1602.5613 31.702726 1605.6886 27.061612C1608.8158 22.420499 1611.5409 19.122614 1611.7443 19.732978C1612.2789 21.336645 1599.7602 39.948175 1598.128 39.976332C1597.0421 39.995065 1597.0945 39.530873 1598.3794 37.75Z M1598.0 69.975489C1598.0 68.815138 1605.5122 56.46425 1607.9209 53.66452C1610.4492 50.725695 1617.8255 38.865693 1619.8876 34.423925C1622.374 29.067895 1627.9568 20.204185 1627.981 21.574003C1628.0373 24.756445 1615.7118 45.947113 1609.2512 53.775213C1608.0144 55.273846 1607.0019 56.918627 1607.0012 57.430282C1606.9999 58.43204 1599.0175 71.0 1598.3825 71.0C1598.1721 71.0 1598.0 70.53897 1598.0 69.975489Z M1598.0582 98.0C1598.0506 97.175 1598.9245 95.375 1600.0 94.0C1601.0755 92.625 1601.9655 91.154374 1601.9778 90.731943C1601.9984 90.019088 1613.0853 72.97964 1618.7206 65.0C1620.08 63.075 1622.3833 59.5875 1623.8389 57.25C1625.2945 54.9125 1626.8262 53.0 1627.2427 53.0C1628.4406 53.0 1628.128 54.291734 1626.2447 57.123366C1625.2851 58.566217 1622.4243 62.841217 1619.8874 66.623366C1617.3504 70.405515 1612.4633 78.054826 1609.0271 83.621836C1601.8104 95.31374 1598.0784 100.20572 1598.0582 98.0Z M1619.0 97.542841C1619.0 97.199737 1619.8353 95.699737 1620.8562 94.209507C1621.8772 92.719278 1625.0272 87.916765 1627.8562 83.537255C1634.8815 72.661848 1634.3686 75.658742 1627.1492 87.667909C1622.1129 96.045676 1619.0 99.817815 1619.0 97.542841Z M1633.4238 63.906372C1635.8697 55.940083 1636.9706 49.690177 1636.9844 43.69282C1637.0019 36.077065 1635.4123 28.223087 1633.4213 26.08806C1632.3001 24.885643 1631.944 25.034036 1631.0217 27.08806C1630.4261 28.414627 1629.285 32.65 1628.486 36.5L1627.0332 43.5L1627.6006 36.012102C1628.1606 28.621626 1630.3176 23.0 1632.5932 23.0C1637.8934 23.0 1640.6706 48.112843 1636.656 59.738238C1634.8437 64.986321 1631.9442 68.725369 1633.4238 63.906372Z"/>
</svg>
