<?xml version="1.0" encoding="UTF-8"?>
<svg xmlns="http://www.w3.org/2000/svg" viewBox="865.78 15.81 36.91 88.58">
  <path d="M881.84718 98.974284C879.23638 97.450132 872.81789 87.983503 870.67741 82.5C867.92348 75.444955 867.78269 56.965746 870.41837 48.5C873.14049 39.756609 875.6757 34.11591 879.28265 28.77746C885.32652 19.83227 891.36209 21.941895 896.50899 34.798617C899.81493 43.056699 900.69452 54.385186 899.05758 67.622437C897.15351 83.019861 893.55301 92.673999 887.95919 97.380884C884.51217 100.28136 884.21766 100.35814 881.84718 98.974284Z M890.34671 91.207004C892.58643 87.624442 893.99326 83.468234 896.17107 74.0C896.74035 71.525 897.25909 63.425 897.32382 56.0C897.43405 43.355693 897.26534 42.079713 894.66216 35.869268C891.38276 28.045553 888.12408 24.508456 885.08441 25.473211C880.32837 26.982718 874.87157 38.200838 871.48167 53.437801C869.61096 61.846291 869.97287 71.269237 872.48743 79.624502C873.92814 84.4116 880.42181 94.577051 882.93895 95.985712C885.0775 97.182502 887.64744 95.524642 890.34671 91.207004Z M880.70225 85.621303C873.69928 78.057252 873.87517 56.873464 881.07067 41.25C883.16045 36.7125 885.31881 33.0 885.86704 33.0C887.41482 33.0 890.66222 38.121017 891.57423 42.0C894.3282 53.713221 888.63189 88.0 883.93193 88.0C883.36684 88.0 881.91349 86.929586 880.70225 85.621303Z M886.44084 79.75C890.37637 65.945366 891.4821 46.191395 888.68388 39.678031C887.65614 37.285795 886.61164 36.121983 885.89172 36.566923C885.25911 36.957896 883.20651 40.600117 881.33038 44.660747C878.15779 51.527409 877.90458 52.82891 877.70962 63.271855C877.49725 74.647422 878.45395 79.297731 881.81968 83.25C884.11971 85.950849 884.82544 85.416346 886.44084 79.75Z"/>
</svg>
