<?xml version="1.0" encoding="UTF-8"?>
<svg xmlns="http://www.w3.org/2000/svg" viewBox="1.54 10.71 54.08 93.36">
  <path d="M4.0 17.618034C4.0 16.793034 4.45 15.839919 5.0 15.5C5.55 15.160081 6.0 15.556966 6.0 16.381966C6.0 17.206966 5.55 18.160081 5.0 18.5C4.45 18.839919 4.0 18.443034 4.0 17.618034Z M4.0 70.95034C4.0 69.391468 6.7132218 64.362182 11.795735 56.5C14.28457 52.65 18.070716 46.211804 20.209394 42.192898C22.348071 38.173992 25.607418 32.526036 27.452386 29.641886C29.297355 26.757736 31.479413 22.788367 32.301404 20.821066C33.835006 17.150639 36.0 14.953338 36.0 17.067278C36.0 18.644725 30.941304 28.528945 27.662787 33.357413C26.222242 35.47899 23.879912 39.52899 22.457609 42.357413C21.035307 45.185836 19.337994 48.407538 18.685802 49.516751C18.033611 50.625964 14.826301 56.138464 11.558447 61.766751C6.1105471 71.149773 4.0 73.714109 4.0 70.95034Z M4.0389303 39.964286C4.0603419 39.158929 5.6057305 36.025 7.4731271 33.0C9.3405238 29.975 12.277522 25.092016 13.999789 22.148926C18.027288 15.266547 19.153476 16.180517 15.283346 23.19061C8.231087 35.964595 6.6846939 38.584351 5.3821571 39.964286C4.1685557 41.25 4.0047476 41.25 4.0389303 39.964286Z M6.0 99.087817C6.0 98.521197 8.0718289 94.557139 10.604064 90.2788C13.1363 86.00046 16.598811 80.025 18.298534 77.0C19.998257 73.975 22.988928 68.706315 24.94447 65.291812C26.900011 61.877308 30.476405 55.577308 32.892011 51.291812C44.131122 31.352644 52.425008 17.775025 52.757121 18.771362C53.167671 20.003014 50.767436 25.027611 47.657719 29.446332C46.517289 31.066815 44.856274 33.766815 43.966576 35.446332C38.18153 46.366976 33.470928 54.846068 31.992327 57.0C31.048436 58.375 28.692574 62.425 26.757078 66.0C12.788256 91.801416 8.9714939 98.28155 7.04052 99.474957C6.468234 99.828649 6.0 99.654436 6.0 99.087817Z M26.0 97.418713C26.0 97.099005 29.28112 91.136505 33.291378 84.168713C37.301635 77.200921 41.150168 70.375 41.843673 69.0C45.574931 61.6021 46.985138 59.257223 48.41828 58.067821C49.288226 57.34583 50.0 57.02238 50.0 57.349042C50.0 58.699469 44.716382 68.990592 40.508977 75.835102C38.02904 79.869409 36.0 83.390735 36.0 83.660272C36.0 84.896255 27.671593 98.0 26.886034 98.0C26.398715 98.0 26.0 97.738421 26.0 97.418713Z M41.64845 97.842907C42.116949 97.104308 44.001305 94.1375 45.835907 91.25C47.67051 88.3625 49.60901 86.0 50.143684 86.0C51.718885 86.0 44.240966 98.467331 42.440494 98.842907C41.273977 99.08624 41.043984 98.79586 41.64845 97.842907Z"/>
</svg>
