<?xml version="1.0" encoding="UTF-8"?>
<svg xmlns="http://www.w3.org/2000/svg" viewBox="2959 22.28 36.5 83.73">
  <path d="M 2988.0197,78.95 C 2988.0305,77.6025 2988.6898,72.9 2989.4848,68.5 2990.2798,64.1 2990.9459,56.7875 2990.9651,52.25 2990.9886,46.700904 2991.378,44 2992.1545,44 2993.4942,44 2992.6356,66.140117 2990.9733,74.458805 2989.8583,80.038805 2987.9881,82.882504 2988.0197,78.95 z M 2967.5625,91.21875 C 2966.8284,90.484595 2960.9977,100.19194 2961.5938,101.15625 2961.8895,101.63477 2962.535,101.7755 2963.0312,101.46875 2964.2142,100.73764 2968.1593,91.815509 2967.5625,91.21875 z M 2962.6875,60.8125 2962.3438,66.125 C 2962.9263,66.94656 2962.9139,67.908803 2962.1562,69.03125 L 2961.8438,73.8125 2961.7812,74.09375 C 2962.5726,74.336282 2963,75.470183 2963,77.5 2963,79.425 2963.45,81 2964,81 2964.5731,81 2965.0213,77.905027 2965.0312,73.75 2965.0653,59.608838 2969.8899,39.22163 2974.5938,33.40625 2975.9915,31.67811 2976.0859,32.449294 2975.5625,42 2974.0222,70.103524 2973.7685,82 2974.75,82 2976.223,82 2976.74,78.74086 2976.9062,68 2976.9871,62.775 2977.5383,52.022914 2978.125,44.125 2979.2865,28.487386 2978.7713,26.084117 2975.0312,29.46875 2972.0518,32.165234 2968.1121,41.290786 2965.5312,51.5 L 2963.25,60.5 2962.6875,60.8125 z M 2981,100.04705 C 2981,98.378754 2983.2886,94 2984.1605,94 2985.2245,94 2985.2197,94.071373 2983.9022,97.850777 2982.8803,100.78202 2981,102.205 2981,100.04705 z"/>
</svg>
