<?xml version="1.0" encoding="UTF-8"?>
<svg xmlns="http://www.w3.org/2000/svg" viewBox="2540.03 21.19 32.4 83.88">
  <path d="M 2542.625 90.75 L 2542.4375 93.78125 C 2543.9287 93.727461 2545.5733 93.000841 2547.25 91.25 C 2552.1069 86.178221 2553.9927 80.083772 2554.9688 66.3125 C 2555.4645 59.316459 2555.657 53.280769 2555.4062 52.875 C 2555.1555 52.469231 2555.4006 48.255915 2555.9375 43.53125 C 2557.3152 31.406432 2560.9998 25.863468 2565.1562 29.625 C 2567.64 31.872798 2567.5997 40.284854 2565.0938 50.09375 C 2564.0524 54.16923 2562.8993 61.1 2562.5312 65.5 C 2561.533 77.432748 2557.6092 88.150399 2552 94.125 C 2548.3815 97.979169 2546.763 98.982387 2544.4375 98.875 C 2543.5356 98.833352 2542.8794 98.734354 2542.1562 98.65625 L 2542.0312 100.84375 L 2548.125 101.25 L 2552.9688 96.21875 C 2560.4474 88.459818 2563.0417 80.867558 2565.5 59.5 C 2565.8796 56.2 2566.8245 51.7 2567.5938 49.5 C 2569.4139 44.294717 2570.4351 35.821552 2569.625 32.59375 C 2568.9527 29.915314 2564.2934 25 2562.4375 25 C 2561.8403 25 2560.3884 26.004994 2559.2188 27.25 C 2555.1125 31.620866 2554.0816 36.071703 2553.5 52.125 C 2552.5935 77.146174 2551.4129 83.458192 2546.625 88.78125 C 2545.0684 90.511842 2543.723 91.005771 2542.625 90.75 z "/>
</svg>
