<?xml version="1.0" encoding="UTF-8"?>
<svg xmlns="http://www.w3.org/2000/svg" viewBox="2899.35 21.83 66.35 86.52">
  <path d="M 2948.25,90 C 2946.9548,90 2939.8975,102.04899 2940.5625,103.125 2941.3648,104.42325 2941.3974,104.36479 2945.5312,97.5 2949.0109,91.721316 2949.644,90 2948.25,90 z M 2925.625,88.3125 C 2925.3491,88.036597 2923.7379,90.213159 2922.0312,93.15625 2920.3247,96.09934 2918.2152,99.5125 2917.3438,100.75 2915.4802,103.39594 2916.9769,103.79588 2919.2188,101.25 2921.3287,98.853817 2926.2444,88.931835 2925.625,88.3125 z M 2940.5,39 C 2941.325,39 2942,39.419959 2942,39.9375 2942,41.198478 2940.4239,42.111431 2939.625,41.3125 2938.4988,40.186316 2938.9536,39 2940.5,39 z M 2921.5,39 C 2922.325,39 2923,39.675 2923,40.5 2923,41.325 2922.325,42 2921.5,42 2920.675,42 2920,41.325 2920,40.5 2920,39.675 2920.675,39 2921.5,39 z M 2962.1562,69.03125 C 2961.4053,70.143749 2960.0342,71.404609 2957.875,72.96875 2953.9766,75.79273 2953.5219,75.911064 2951.5938,74.5 2947.4075,71.436679 2941.1649,68.733556 2939.6562,69.3125 2936.5741,70.495193 2933.3178,77.874453 2935.5312,78.65625 2936.0963,78.855818 2937.0628,77.65501 2937.6875,76 2939.1141,72.220346 2941.9788,72.06816 2947.5,75.46875 2952.3787,78.473624 2956.0958,78.656564 2958.5,76 2959.882,74.472908 2961.0063,73.856243 2961.7812,74.09375 L 2961.8438,73.8125 2962.1562,69.03125 z M 2940.3438,36 C 2938.5668,36 2937.9454,36.730255 2937.4375,39.4375 2937.0831,41.326813 2937.1068,43.351813 2937.4688,43.9375 2938.4373,45.504606 2941.6352,45.239754 2943.4375,43.4375 2946.5143,40.360684 2944.6977,36 2940.3438,36 z M 2922.75,36 C 2918.5721,36 2916.4925,40.086197 2919.25,42.84375 2919.9311,43.524826 2921.3936,43.939826 2922.5,43.78125 2924.038,43.560828 2924.5752,42.616884 2924.8125,39.75 2925.0907,36.388165 2924.866,36 2922.75,36 z M 2962.6875,60.8125 2958.0625,63.34375 2952.8438,66.21875 2948.7188,62.90625 C 2945.3173,60.172729 2943.8429,59.624882 2940.25,59.78125 L 2935.875,59.96875 2936.1875,55.71875 2936.5,51.5 2941.2188,51.1875 C 2945.0739,50.939274 2946.3915,50.330069 2948.5625,47.75 2950.9277,44.939088 2951.1654,43.96591 2950.7812,38.65625 2950.43,33.798632 2949.8641,32.287264 2947.75,30.46875 2944.5479,27.714455 2941.1901,28.160292 2935.2812,32.09375 2931.9292,34.325227 2930.7903,34.6567 2929.7812,33.6875 2921.5356,25.766423 2914.8573,26.375545 2911.5625,35.34375 2908.596,43.418238 2912.2799,49.551426 2920.75,50.6875 2925.2186,51.286873 2926.0214,52.556555 2925.25,57.8125 2924.7166,61.447056 2924.3375,61.566595 2920.375,59.5 2916.4498,57.452885 2910.6836,57.580267 2908.7812,59.75 2904.3545,64.798692 2902.3648,76.080132 2905.0312,81.0625 2906.8623,84.483696 2909.2488,82.892003 2910.4062,77.46875 2911.4046,72.791302 2914.7078,68 2916.9375,68 2919.4926,68 2922.9778,71.74199 2923.6875,75.25 2924.2866,78.210898 2925.7181,78.875509 2926.5938,76.59375 2927.2978,74.759259 2924.8832,70.135645 2921.5938,67.0625 2919.04,64.676717 2918.9236,64.681311 2915.4375,66.34375 2912.7519,67.624425 2911.3791,69.230352 2909.8125,73 2908.6726,75.74297 2907.3516,78 2906.875,78 2906.3983,78 2906,75.824914 2906,73.15625 2906,66.060663 2909.233,61.587312 2914.6562,61.1875 2917.8942,60.948804 2919.4003,61.458761 2921.9375,63.59375 2924.1648,65.467891 2925.4268,65.948069 2926.1562,65.21875 2927.3583,64.016647 2927.8168,49.504254 2926.6875,48.375 2926.2754,47.962887 2924.2459,47.72045 2922.1562,47.84375 2919.5109,47.999838 2917.5018,47.400438 2915.5625,45.875 2913.0619,43.908001 2912.8209,43.209887 2913.2812,39.125 2914.1935,31.032819 2920.6307,28.474348 2926.1562,34 2929.7137,37.557437 2931.581,37.732886 2934.6562,34.84375 2936.107,33.480889 2938.6836,32.544651 2941.75,32.25 2946.2023,31.822199 2946.6649,31.987544 2947.7812,34.4375 2949.4387,38.075269 2949.3003,43.103787 2947.4688,45.71875 2946.2303,47.486888 2944.7794,47.94602 2939.7188,48.1875 L 2933.5,48.5 2933.1875,55.40625 C 2932.7757,64.906525 2932.9875,65.237959 2937.9688,63.28125 L 2942.0625,61.6875 2947.1875,65.25 2952.3125,68.8125 2956.6562,66.71875 C 2959.8919,65.14677 2961.2819,64.875699 2962.125,65.71875 2962.251,65.844799 2962.2506,65.993624 2962.3438,66.125 L 2962.6875,60.8125 z"/>
</svg>
