<?xml version="1.0" encoding="UTF-8"?>
<svg xmlns="http://www.w3.org/2000/svg" viewBox="2436.81 19.03 63.61 89.09">
  <path d="M2461.2566 101.75C2458.1491 97.819366 2459.7209 89.990237 2464.6509 84.843128L2467.1957 82.186255L2464.3955 75.843128C2459.3133 64.331114 2456.4478 62.299582 2453.4551 68.086786C2451.2966 72.260945 2450.3744 87.458503 2451.9097 93.5557C2452.764 96.948355 2452.7965 98.60345 2452.0242 99.375791C2450.0498 101.35016 2447.6175 98.548393 2444.7244 90.967358C2439.7008 77.803648 2440.9855 65.226746 2448.4237 54.75C2450.9089 51.249565 2452.7763 51.292309 2459.346 55.0C2462.2696 56.65 2465.1878 58.0 2465.8309 58.0C2468.4115 58.0 2466.2024 44.398636 2463.4502 43.342534C2462.6664 43.041734 2460.5678 43.303619 2458.7867 43.924499C2456.052 44.877845 2455.1643 44.766587 2453.0781 43.208958C2447.9119 39.351829 2448.4739 31.30337 2454.2488 26.444129C2458.2487 23.078401 2461.7525 23.672735 2466.2937 28.487282L2469.6401 32.035111L2477.57 28.021886C2485.3698 24.074576 2488.423 23.311496 2490.6003 24.765313C2493.9691 27.014715 2494.9276 34.448808 2492.6936 41.0C2491.0993 45.675119 2487.9492 45.80527 2486.6428 41.25C2485.5175 37.326565 2482.6336 36.927205 2478.5608 40.130846C2475.9788 42.161797 2475.8696 42.605825 2476.2308 49.602361C2476.4392 53.639729 2476.9203 57.253594 2477.2998 57.633171C2477.6794 58.012749 2480.2864 57.073452 2483.0931 55.545844C2489.3032 52.165869 2492.2513 52.981441 2494.6834 58.752236C2496.8529 63.89984 2497.5272 82.912187 2495.7688 89.353996C2494.5127 93.955589 2494.4453 93.435598 2494.4719 79.353996C2494.5014 63.735255 2493.2039 57.782929 2489.4559 56.344716C2488.5523 55.997966 2485.184 56.978211 2481.9224 58.53708C2478.6779 60.087822 2475.7894 61.122775 2475.5036 60.836974C2475.2178 60.551173 2474.706 55.81688 2474.3662 50.316321L2473.7485 40.315306L2476.6852 38.224142C2481.5322 34.772823 2484.7469 34.413557 2487.5148 37.013865L2489.9188 39.272337L2491.1102 36.657524C2491.9283 34.862011 2492.0094 33.017695 2491.3692 30.771355C2489.9327 25.730931 2485.6728 25.778257 2476.9995 30.930997C2473.2325 33.168949 2469.7195 35.0 2469.1928 35.0C2468.6662 35.0 2466.4015 33.166194 2464.1602 30.924877C2459.105 25.869754 2456.3378 25.935366 2453.5312 31.176891C2451.966 34.100251 2451.7681 35.43234 2452.5656 37.676891C2453.4128 40.061161 2454.1075 40.48937 2457.0344 40.431613C2458.9405 40.394 2461.7126 40.013974 2463.1946 39.587111C2465.7768 38.843372 2465.9513 39.033943 2467.378 44.155498C2468.1969 47.094974 2469.1731 52.37417 2469.5475 55.887043L2470.2282 62.274087L2467.3641 61.58319C2465.7888 61.203197 2461.7337 59.47306 2458.3527 57.738442C2451.1204 54.02791 2450.6918 54.207579 2446.5377 62.691527C2443.9144 68.048984 2443.7706 68.986865 2444.3407 77.01965C2444.9311 85.336556 2448.1855 96.0 2450.1333 96.0C2451.2724 96.0 2451.2275 95.443586 2449.5931 89.304921C2446.3877 77.265309 2453.6516 57.146261 2459.4626 61.968988C2462.4085 64.41387 2467.6203 74.40196 2468.6364 79.550186C2469.7505 85.194509 2469.4714 87.0 2467.4848 87.0C2465.5164 87.0 2462.0 92.388195 2462.0 95.40437C2462.0 99.117359 2464.0684 98.548082 2467.2405 93.962049C2468.7478 91.782922 2470.4882 90.0 2471.1081 90.0C2471.7281 90.0 2473.9622 91.726947 2476.073 93.83766C2478.8643 96.629033 2480.0581 97.290874 2480.4517 96.265218C2481.0815 94.623992 2479.666 91.657841 2476.3516 87.673462C2473.7602 84.558248 2473.8739 82.902175 2477.222 75.0C2479.2743 70.156113 2483.602 65.0 2485.6152 65.0C2488.0535 65.0 2491.0821 75.888615 2491.5514 86.341595C2491.7981 91.837009 2492.2091 96.542441 2492.4648 96.798111C2493.3491 97.682462 2490.9237 101.0 2489.3929 101.0C2488.0934 101.0 2487.983 100.11217 2488.678 95.25C2490.3417 83.611773 2488.2758 69.887292 2484.7563 69.197051C2482.7961 68.812611 2479.7211 73.253914 2478.1406 78.752272C2477.0086 82.690444 2477.1105 83.33241 2479.5196 87.44317C2482.8565 93.137286 2482.7736 100.31837 2479.3652 100.80445C2477.8256 101.02402 2476.6179 100.11788 2475.0337 97.554453C2471.9467 92.559721 2469.3934 92.856441 2466.897 98.5C2464.8954 103.02481 2463.0879 104.06632 2461.2566 101.75Z"/>
</svg>
