<?xml version="1.0" encoding="UTF-8"?>
<svg xmlns="http://www.w3.org/2000/svg" viewBox="2235.31 16.46 43.01 88.82">
  <path d="M 2237.3125 56.84375 L 2237.4375 60.40625 C 2237.8405 60.647487 2238 61.318073 2238 62.8125 C 2238 63.54245 2237.7535 64.103215 2237.5625 64.6875 L 2237.75 70.5 L 2237.75 70.6875 C 2238.4865 71.106312 2239 71.898082 2239 73.1875 C 2239 78.316404 2243.3663 89.12756 2247.1875 93.46875 C 2254.0289 101.24098 2257.2809 100.77641 2262.9688 91.1875 C 2269.2968 80.519458 2274.2985 62.895933 2275.6562 46.5 C 2276.3214 38.467208 2274.7141 28.2706 2272.4375 26.03125 C 2271.0421 24.658574 2270.7384 24.685611 2269.5312 26.3125 C 2268.7919 27.309039 2267.6775 32.034039 2267.0625 36.8125 C 2264.1651 59.324593 2260.0284 74.241128 2255.6875 77.84375 C 2253.1501 79.949571 2250.8412 76.856578 2249.4062 69.4375 C 2247.571 59.948463 2247.638 51.672376 2249.6875 37.21875 C 2251.4933 24.483923 2251.195 21.872238 2247.7188 21.1875 C 2244.2245 20.499176 2242.5462 25.960595 2238.9375 49.875 C 2238.3232 53.945827 2238.0145 55.818441 2237.3125 56.84375 z M 2247.375 24.46875 C 2247.616 24.544296 2247.864 24.753302 2248.0938 25.125 C 2248.765 26.211131 2248.6162 28.02947 2247 39.8125 C 2244.8581 55.427453 2246.7606 76.198038 2250.6875 80.125 C 2256.9906 86.428042 2265.2837 69.824692 2267.9688 45.5 C 2269.0232 35.947946 2270.5862 31.180019 2272.1562 32.75 C 2274.0523 34.646008 2274.2212 42.184691 2272.6562 54.125 C 2270.7436 68.71788 2267.0827 80.825291 2262.0938 89.09375 C 2257.2043 97.197436 2254.6912 97.883399 2250.125 92.34375 C 2245.5098 86.744666 2243.0008 80.694819 2241.5625 71.625 C 2240.2062 63.072442 2240.3591 55.36075 2242.0625 43 C 2243.7759 30.566582 2245.6883 23.939927 2247.375 24.46875 z "/>
</svg>
