<?xml version="1.0" encoding="UTF-8"?>
<svg xmlns="http://www.w3.org/2000/svg" viewBox="650.81 38.14 16.86 61.64">
  <path d="M 660.40625 40.9375 L 656.96875 43.03125 C 657.64388 43.832793 658 44.807105 658 46.46875 C 658 48.80895 657.34681 50.365991 655.90625 51.375 L 653.78125 52.84375 L 656.15625 53.15625 C 659.75045 53.664968 659.9578 59.963109 656.5625 65.09375 C 653.35832 69.935588 653.29524 71.018287 656.375 68.125 C 659.24748 65.426445 659.95104 66.542986 659.40625 72.96875 C 659.15353 75.949515 658.20294 78.222519 656.5 80 C 654.04728 82.560091 652.80894 85.566063 655.1875 83.1875 C 655.8475 82.5275 657.0179 82 657.78125 82 C 659.72319 82 658.35093 89.712611 655.84375 92.90625 C 653.51187 95.876575 654.27174 96.972009 656.96875 94.53125 C 658.68458 92.978442 659.19528 92.926636 660.65625 94.125 C 662.18543 95.379321 662.29119 95.259204 661.625 93 C 661.21954 91.625 660.60232 88.516619 660.28125 86.09375 C 659.7334 81.959587 659.82927 81.723203 661.84375 82.25 C 664.79098 83.020718 665.3531 81.626562 662.96875 79.46875 C 660.3943 77.138909 660.18787 69.304924 662.65625 67.5 C 664.19222 66.376875 664.15232 66.080032 662.15625 63.9375 C 660.96322 62.656936 660 60.835487 660 59.875 C 660 56.774389 661.90177 53 663.46875 53 C 665.67382 53 665.35107 51.36247 662.78125 49.5625 C 661.55888 48.706313 660.94153 48 661.40625 48 C 661.87097 48 661.78106 47.4375 661.21875 46.75 C 660.76605 46.196513 660.48779 43.705192 660.40625 40.9375 z "/>
</svg>
