<?xml version="1.0" encoding="UTF-8"?>
<svg xmlns="http://www.w3.org/2000/svg" viewBox="54.62 11.79 69.01 92.58">
  <path d="M 101.1875,58.5 C 100.79426,58.688865 100.37362,59 100.03125,59 99.134799,59 96.270179,57.669137 93.6875,56.03125 89.288798,53.241676 89,52.757938 89,48.75 89,42.676199 90.384051,38.679428 93.96875,34.21875 97.60443,29.694632 99.091693,23.367342 96.75,22.46875 95.925611,22.152403 93.572743,23.030898 91.5,24.4375 85.425943,28.559467 83.239921,27.746215 85.5625,22.1875 87.391045,17.811176 86.81323,16 83.59375,16 76.613056,16 67.758595,31.383595 72.1875,35.8125 72.8475,36.4725 74.908756,37 76.75,37 L 80.09375,37 79.8125,43.25 C 79.449427,50.859771 77.855722,51.623028 72.90625,46.65625 71.03291,44.77636 68.286784,42.494623 66.8125,41.5625 64.24989,39.942279 64.040953,39.959047 62.0625,41.9375 60.924284,43.075716 60,44.819354 60,45.8125 60,47.838416 64.260331,54.01038 66.53125,55.28125 68.882313,56.596972 68.250198,59.385442 64.90625,62.5625 59.44042,67.755541 57.760175,70.679257 58.96875,72.9375 60.335503,75.491302 63.407177,77.161374 65.375,76.40625 66.214496,76.084105 67.799452,74.282132 68.90625,72.40625 71.269109,68.401502 74.119349,67.977754 75.9375,71.375 76.961144,73.287696 76.964525,75.136587 76,80.625 74.188408,90.933463 74.821959,95.181171 78.4375,96.90625 81.187961,98.218574 81.806908,98.102617 87.28125,95.1875 L 93.15625,92.03125 95.8125,94.90625 C 97.282578,96.473466 99.175,97.979388 100,98.28125 105.15463,100.1673 108.82878,98.744676 117.8125,91.28125 L 120.5,89.03125 117,89.65625 113.5,90.3125 115.40625,88.15625 C 117.74543,85.513102 116.96502,84.394659 114.03125,86.1875 112.41788,87.17344 112.02207,88.153608 112.40625,90.125 113.13519,93.865596 110.26055,96.094201 104.46875,96.3125 100.22463,96.472465 99.490454,96.160476 96.84375,93 L 93.90625,89.5 87.90625,92.8125 C 82.127043,96.002225 81.779225,96.075308 79.375,94.5 76.873793,92.861146 76.877975,92.85121 77.5625,81.6875 78.185679,71.524264 78.070786,70.290933 76.3125,68.125 73.952346,65.217658 71.704096,66.048558 67.59375,71.4375 64.390207,75.637562 63.329786,75.861328 61.8125,72.53125 60.786036,70.278406 61.122236,69.575639 65.34375,65.0625 70.974603,59.042663 71.171962,56.663132 66.4375,52.0625 62.781964,48.510295 62.117672,44.773221 65.03125,44.21875 65.871836,44.058781 68.796836,45.964035 71.53125,48.4375 74.265664,50.910965 76.755122,52.950365 77.0625,52.96875 80.258062,53.159881 83.359909,43.735865 82,38 81.519007,35.971257 80.726603,35.439169 77.71875,35.1875 74.80544,34.943741 73.895986,34.389255 73.4375,32.5625 72.330559,28.152094 79.424308,18 83.625,18 85.438201,18 85.350991,19.570763 83.34375,22.96875 81.516244,26.062473 82.076858,29 84.5,29 85.364173,29 87.912723,28.050812 90.15625,26.90625 97.189711,23.318046 97.515831,27.100304 90.84375,34.78125 89.274407,36.587888 87.952661,38.837888 87.90625,39.78125 87.85984,40.724612 87.520597,44.082724 87.125,47.25 86.729403,50.417276 86.685079,53.471133 87.03125,54.03125 88.022587,55.635267 98.278515,62 99.875,62 100.55121,62 101.40875,61.530921 102.3125,60.84375 L 101.1875,58.5 z M 104.96875,66.40625 C 103.90686,66.710106 102.79784,66.792314 101.40625,66.53125 99.378849,66.150906 96.750841,65.250811 95.59375,64.53125 88.886757,60.360368 85.1106,62.38145 86.65625,69.28125 87.416448,72.67478 87.231783,74.612961 85.65625,79.125 82.563246,87.982802 84.760399,90.270792 91.78125,85.5 L 95.46875,83 99.125,87 C 101.13515,89.199074 103.51957,91 104.4375,91 106.54903,91 112.99996,85.914684 113,84.25 113.00005,82.314843 111.5735,82.760631 109,85.5 105.89744,88.802523 104.73071,88.66316 100.6875,84.5 96.629922,80.322046 95.128918,80.16713 91.09375,83.5625 89.41281,84.976917 87.635507,85.878011 87.125,85.5625 86.587415,85.230254 86.993275,82.368669 88.09375,78.75 89.138797,75.313593 89.995798,71.0375 90,69.25 90.008636,65.575845 90.605446,65.389639 95.65625,67.5 99.588352,69.142939 102.93245,69.357642 105.84375,68.21875 L 104.96875,66.40625 z"/>
</svg>
