<?xml version="1.0" encoding="UTF-8"?>
<svg xmlns="http://www.w3.org/2000/svg" viewBox="1903.4 18.01 36.12 84.61">
  <path d="M1914.7271 96.0C1913.3287 94.9 1911.4129 94.0 1910.4698 94.0C1909.222 94.0 1909.0322 93.659669 1909.7728 92.75C1910.3607 92.027844 1910.5014 89.8109 1910.1061 87.5C1909.5888 84.47631 1909.0041 83.571719 1907.7109 83.793837C1905.684 84.141941 1905.3994 82.444466 1907.3585 81.692676C1908.1057 81.40596 1909.0855 79.220315 1909.536 76.835687C1910.731 70.508913 1910.721 70.46871 1908.0468 70.847279C1905.9251 71.147636 1905.7684 70.983974 1906.8871 69.636005C1907.5985 68.778801 1909.0122 67.813525 1910.0285 67.490948C1912.0163 66.860055 1914.5499 60.698771 1913.5121 59.01955C1913.1655 58.458798 1911.982 58.0 1910.882 58.0C1909.782 58.0 1909.1601 57.55 1909.5 57.0C1909.8399 56.45 1911.02 56.0 1912.1224 56.0C1913.7808 56.0 1914.0726 55.439903 1913.8134 52.754374C1913.5521 50.048322 1913.0013 49.409453 1910.5 48.911468C1908.0649 48.426648 1907.8295 48.170318 1909.25 47.550105C1911.3847 46.618034 1911.5033 44.047703 1909.5318 41.44113C1907.5958 38.881444 1907.6089 34.569493 1909.5576 32.952167C1910.4143 32.241169 1912.2571 29.711069 1913.6527 27.329722C1916.7522 22.040739 1918.7895 21.857266 1922.8659 26.5C1926.3299 30.445288 1927.5282 30.736915 1930.2298 28.292038C1931.6253 27.029157 1932.5404 26.851129 1933.7417 27.608869C1937.0031 29.666093 1937.5166 31.693373 1935.7271 35.446127C1933.9388 39.19622 1932.2338 39.787481 1929.0114 37.775041C1926.4649 36.184738 1925.1162 37.509212 1924.3265 42.375714C1923.8607 45.245807 1924.1271 46.372438 1925.5106 47.384109C1927.1936 48.614733 1927.1728 48.721536 1925.1479 49.251083C1923.4553 49.693709 1923.0 50.57161 1923.0 53.39296C1923.0 56.567596 1923.4248 57.161654 1926.75 58.637132C1929.8207 59.999668 1930.1377 60.381991 1928.5 60.747616C1927.4 60.993199 1926.1242 61.548744 1925.6649 61.982163C1924.3434 63.22914 1927.8441 68.990227 1930.5479 70.01821C1933.7194 71.224016 1933.7058 73.0 1930.525 73.0C1928.278 73.0 1928.1045 73.29936 1928.6418 76.25C1928.9672 78.0375 1930.081 80.117387 1931.1168 80.871972C1933.7494 82.789927 1933.4657 84.333706 1930.6122 83.617507C1928.5255 83.09379 1928.1652 83.421366 1927.7552 86.214624C1927.4012 88.626522 1927.8032 89.830356 1929.393 91.119445C1931.8989 93.15131 1930.7387 94.942424 1928.0175 93.242982C1926.4047 92.235762 1925.7577 92.499237 1923.6275 95.030837C1920.7053 98.503707 1918.25 98.771066 1914.7271 96.0Z M1922.3069 93.213402C1927.722 87.229736 1928.1074 77.319961 1923.463 63.48458C1920.6803 55.195068 1920.3548 47.534564 1922.5288 41.5C1923.3214 39.3 1923.9767 36.402846 1923.9849 35.06188C1924.0042 31.946516 1919.9456 25.894551 1918.0679 26.238733C1917.2802 26.383114 1915.0802 28.666881 1913.1789 31.31377L1909.7221 36.126295L1912.9999 42.649257C1917.0775 50.76391 1917.3874 58.961862 1913.9961 69.0C1912.1794 74.377245 1911.9179 76.70381 1912.4822 82.469252C1913.3795 91.637302 1915.1281 94.946603 1919.095 94.984687C1919.9723 94.993109 1921.4176 94.196031 1922.3069 93.213402Z M1933.9894 34.512735C1935.6242 32.542938 1934.5588 30.0 1932.0988 30.0C1929.6717 30.0 1928.1897 33.871874 1930.143 35.109533C1932.0269 36.303215 1932.5739 36.218339 1933.9894 34.512735Z"/>
</svg>
