<?xml version="1.0" encoding="UTF-8"?>
<svg xmlns="http://www.w3.org/2000/svg" viewBox="2289.57 14.92 20.25 90.47">
  <path d="M2292.6667 98.333333C2291.5716 97.238247 2291.9736 89.935959 2293.5109 83.0C2294.3057 79.413917 2295.2373 67.758249 2295.5891 57.0C2296.1659 39.356169 2296.0344 36.786089 2294.2075 30.0C2292.5559 23.865204 2292.4231 22.254696 2293.4775 21.152379C2295.505 19.032894 2298.6011 21.324677 2301.0576 26.763285C2307.2808 40.541304 2307.259 40.394862 2307.5405 70.319338C2307.8258 100.65271 2307.7069 101.27438 2302.4132 97.110368C2299.7679 95.029589 2299.7672 95.029577 2296.9794 97.014661C2293.8929 99.212417 2293.6271 99.293718 2292.6667 98.333333Z M2302.0845 93.820715C2303.1231 94.469322 2304.3458 95.0 2304.8015 95.0C2305.2573 95.0 2305.7017 84.045104 2305.7891 70.655788C2305.9633 43.953583 2305.2618 39.195723 2299.5365 28.25C2295.0943 19.757314 2293.8525 21.518014 2296.5391 32.5C2298.5258 40.621321 2297.907 70.862858 2295.491 83.714588C2294.5383 88.782612 2294.03 93.635796 2294.3614 94.499442C2294.9021 95.908408 2295.2327 95.893629 2297.5801 94.355569C2299.678 92.980949 2300.5702 92.875011 2302.0845 93.820715Z"/>
</svg>
