<?xml version="1.0" encoding="UTF-8"?>
<svg xmlns="http://www.w3.org/2000/svg" viewBox="1831 12.86 27.14 85.87">
  <path d="M1843.0353 90.221047C1840.2659 87.551693 1838.0 84.71472 1838.0 83.916662C1838.0 83.118605 1840.025 80.150769 1842.5 77.321473C1846.9203 72.268455 1847.0 72.052516 1847.0 65.135771C1847.0 58.123073 1846.9836 58.081086 1843.0 54.879759C1838.0413 50.894817 1837.9728 48.811803 1842.6096 43.0C1845.9995 38.751079 1846.1653 38.202269 1845.5811 33.163872C1844.5342 24.136394 1840.1908 18.412043 1835.3162 19.635495C1833.9563 19.976798 1833.0 19.767039 1833.0 19.12746C1833.0 17.475728 1837.2393 16.760292 1840.2482 17.904248C1843.6549 19.199474 1846.9347 25.55556 1847.6862 32.318392C1848.1238 36.256613 1849.1903 38.721974 1852.131 42.592371C1854.2589 45.393176 1856.0 48.019611 1856.0 48.428894C1856.0 48.838177 1854.5386 51.207985 1852.7525 53.695133C1849.8656 57.714989 1849.4651 59.095526 1849.1458 66.125466C1848.7896 73.970574 1848.8161 74.069539 1852.4641 78.521484L1856.1415 83.009257L1853.0094 88.483497C1851.2868 91.49433 1849.4709 94.208991 1848.974 94.516078C1848.4771 94.823165 1845.8047 92.890401 1843.0353 90.221047Z M1851.6937 51.516039C1853.1067 48.553066 1853.158 47.663764 1852.037 45.569077C1849.5967 41.009443 1845.9157 41.427346 1842.4919 46.652714C1840.7007 49.386426 1840.7008 49.386867 1844.0625 52.193322C1848.435 55.84365 1849.6829 55.732902 1851.6937 51.516039Z M1852.5664 84.701037C1853.2349 82.694914 1850.6942 78.203614 1848.3909 77.319742C1846.357 76.539289 1842.0 80.822167 1842.0 83.601836C1842.0 84.953744 1843.3 86.8759 1845.25 88.407137L1848.5 90.95923L1850.2335 88.729615C1851.1869 87.503327 1852.2367 85.690467 1852.5664 84.701037Z"/>
</svg>
