<?xml version="1.0" encoding="UTF-8"?>
<svg xmlns="http://www.w3.org/2000/svg" viewBox="1286.27 15.63 47.73 92.38">
  <path d="M 1288.4375 61.34375 L 1288.7812 64.78125 C 1289.7936 64.496714 1292.0261 63.187621 1294.3125 61.40625 C 1296.8576 59.423361 1300.6361 57.215976 1302.7188 56.5 L 1306.5 55.1875 L 1306.5 47.40625 L 1306.5 39.59375 L 1302.8125 37.65625 C 1299.0895 35.695661 1296.5331 31.565931 1297.1562 28.5 C 1297.4336 27.135515 1298.3492 27.478513 1302.2188 30.4375 C 1306.3897 33.626807 1307.1958 33.907408 1309.0312 32.78125 C 1310.1744 32.079852 1311.9593 29.5875 1313 27.25 C 1314.0407 24.9125 1315.1709 23 1315.5312 23 C 1315.8916 23 1317.7614 23.725835 1319.6562 24.625 C 1323.152 26.283864 1325.1753 29.21708 1326.4062 34.34375 C 1327.5226 38.993225 1326.343 41 1322.5 41 C 1320.6446 41 1318.8399 40.55 1318.5 40 C 1317.358 38.152193 1314.2411 38.950897 1313.625 41.25 C 1312.7862 44.379877 1312.863 52.296967 1313.75 53.5625 C 1314.1541 54.138998 1316.075 55.681267 1318 57 C 1322.8173 60.300086 1325.6617 63.447866 1328 68.03125 C 1331.8252 75.529429 1329.6971 77.377894 1324 71.5 C 1322.1342 69.575 1319.9952 68 1319.25 68 C 1317.6857 68 1315.5049 72.784521 1314 79.5 C 1313.0642 83.675438 1313.2454 84.767251 1315.5938 90 C 1318.8702 97.300822 1318.0483 99.13445 1313.375 95.03125 C 1309.5079 91.635845 1307.851 91.305263 1305.6562 93.5 C 1301.8769 97.27929 1302.1332 93.882269 1306 89 C 1309.3839 84.727437 1309.5783 83.439222 1307.5938 78.78125 C 1306.8244 76.97509 1305.388 73.475 1304.4062 71 C 1303.4244 68.525 1302.2998 66.092206 1301.875 65.59375 C 1301.4439 65.087807 1299.116 66.302591 1296.625 68.34375 C 1294.1709 70.354706 1291.6345 72 1291 72 C 1290.8271 72 1289.8836 71.437887 1289.4688 71.28125 L 1289.8438 74.71875 C 1291.2128 74.777668 1292.4879 73.989637 1295 72 C 1297.0833 70.35 1299.2034 69 1299.7188 69 C 1301.0083 69 1306 80.393036 1306 83.34375 C 1306 84.661485 1305.2925 86.32164 1304.4375 87.03125 C 1300.4639 90.329064 1298.7603 96.766699 1300.75 100.875 C 1301.9565 103.3662 1302.5412 103.80572 1303.625 102.90625 C 1304.3777 102.28154 1305 100.95643 1305 99.96875 C 1305 93.843493 1308.4191 93.491108 1313.75 99.09375 C 1317.4451 102.97719 1317.7416 103.10215 1319.375 101.46875 C 1321.3347 99.509066 1320.957 96.408716 1317.875 89.21875 C 1315.7483 84.257373 1315.4945 79.743726 1317.0938 75.15625 C 1318.5114 71.089481 1320.2447 71.182232 1324.625 75.5625 C 1329.5319 80.469406 1331.5089 79.853027 1331.4688 73.4375 C 1331.4274 66.826501 1327.4687 60.049624 1320.875 55.3125 C 1316.1415 51.911847 1315.9011 51.543183 1316.1875 47.625 L 1316.5 43.5 L 1320.6562 43.84375 C 1326.299 44.287859 1329.0268 41.638607 1328.9688 35.75 C 1328.8936 28.132993 1323.8552 21.821227 1316.8125 20.5 C 1313.2267 19.827299 1313.2178 19.82824 1311.5312 24.90625 C 1310.6035 27.699595 1309.4299 30.226923 1308.9375 30.53125 C 1307.8825 31.183264 1303.6615 28.675668 1299.6875 25.0625 C 1296.9261 22.551758 1296.8315 22.539546 1295.4375 24.4375 C 1293.6283 26.900834 1293.6501 28.204185 1295.5625 32.78125 C 1297.3128 36.970131 1300.7406 41 1302.5625 41 C 1304.2211 41 1305 43.337044 1305 48.375 C 1305 52.325373 1304.7354 52.73705 1301.0938 54.34375 C 1298.9512 55.28904 1295.5187 57.370905 1293.4688 59 C 1291.624 60.46604 1290.0448 61.198371 1288.4375 61.34375 z "/>
</svg>
