<?xml version="1.0" encoding="UTF-8"?>
<svg xmlns="http://www.w3.org/2000/svg" viewBox="2534.46 21.85 28.02 87.28">
  <path d="M 2539.0312,94.65625 2538.7812,97.78125 C 2538.7937,97.790014 2538.8,97.803526 2538.8125,97.8125 2549.038,105.16012 2554.0501,102.41604 2557.625,87.53125 2560.4793,75.646573 2559.6962,52.314433 2556,39.5 2555.3655,37.3 2554.6184,34.36157 2554.3438,32.96875 2554.0691,31.57593 2553.0556,29.400114 2552.0938,28.125 L 2550.3438,25.8125 2544.9062,28.0625 C 2539.9773,30.116697 2536.4603,32.772798 2537.4062,33.71875 2537.611,33.923585 2539.465,32.964684 2541.5312,31.5625 2543.5974,30.160316 2546.3444,29 2547.6562,29 2550.4468,29 2551.1426,30.441874 2554.5312,43.5 2557.8827,56.41466 2558.5301,68.299508 2556.5625,80.5 2554.5917,92.720662 2553.506,96.235049 2550.9688,98.53125 2549.0916,100.23008 2548.8386,100.23096 2545,98.5 2542.7956,97.505942 2540.4892,96.083792 2539.875,95.34375 2539.6051,95.01854 2539.3171,94.85577 2539.0312,94.65625 z M 2539.5312,88.3125 C 2540.7004,88.543133 2541.7765,89.174119 2542.7188,90.46875 2543.7069,91.826466 2544.7798,92.951466 2545.125,92.96875 2546.1481,93.019982 2547.5255,90.784057 2549.4062,86 2551.6462,80.302473 2552.7999,56.489699 2551.125,50.5 2549.3012,43.977883 2548.7858,43.557788 2543.875,44.59375 2538.9808,45.626202 2538.8321,47.676368 2543.6875,47.1875 2548.629,46.689956 2549.4754,49.236181 2549.4688,64.5 2549.4634,76.542665 2548.4459,83.255709 2546.0938,86.90625 2545.1847,88.317013 2543.9462,88.037816 2540.7188,85.75 2540.3927,85.518836 2540.0882,85.387867 2539.7812,85.28125 L 2539.5312,88.3125 z M 2545.3125,36.03125 C 2544.6556,36.01147 2542.8556,37.11113 2541.3125,38.46875 2537.6587,41.683184 2539.5875,41.738302 2543.5,38.53125 2545.15,37.178761 2545.9693,36.05103 2545.3125,36.03125 z"/>
</svg>
