<?xml version="1.0" encoding="UTF-8"?>
<svg xmlns="http://www.w3.org/2000/svg" viewBox="746.33 14.97 41.23 88.63">
  <path d="M759.0 98.0C758.175 97.466844 756.4324 97.023735 755.12756 97.015313C753.28277 97.003406 752.99751 96.707922 753.84499 95.686771C754.46624 94.93821 754.67855 92.793986 754.33875 90.700019C753.80894 87.435179 753.4788 87.092708 751.37131 87.621656C748.49698 88.343065 748.32926 87.395987 750.9354 85.160293C752.31643 83.975567 752.96091 81.924602 753.1854 78.0C753.45874 73.221321 753.27049 72.538536 751.75 72.793837C749.16167 73.228435 749.62631 71.127387 752.39779 69.864617C755.62468 68.394345 757.70198 59.13291 754.53203 60.349337C752.18216 61.251064 751.72218 59.190449 753.9612 57.79216C755.21825 57.007118 756.0 55.453527 756.0 53.740401C756.0 51.220711 755.74384 51.021553 753.25 51.602344L750.5 52.242792L752.60157 50.047609C754.61412 47.945403 754.64158 47.612008 753.25005 42.176213C750.32801 30.7617 750.3023 30.924565 756.01167 24.677608C758.86563 21.554924 761.82016 19.0 762.57729 19.0C763.33442 19.0 764.67952 20.107453 765.56641 21.461006C768.03683 25.231354 770.59259 25.535383 775.04545 22.588619C777.19687 21.164878 779.58667 20.0 780.35612 20.0C783.55414 20.0 785.5548 26.11006 783.90572 30.840606C782.64956 34.444033 780.32326 35.4536 776.56698 34.025467C771.2005 31.985134 770.65271 32.464587 769.48974 40.219857C768.83666 44.574898 768.91685 44.75339 772.46781 46.848509C776.16654 49.030813 776.66578 51.961864 773.00505 50.002704C770.34116 48.577033 769.9983 48.719994 770.01365 51.25C770.04002 55.594916 771.15924 57.621631 774.15718 58.753226C777.51555 60.020871 777.2472 62.138912 773.84107 61.248189C771.96437 60.757421 771.76784 60.996985 772.32841 63.092069C772.68277 64.416431 772.97884 66.046842 772.98635 66.715204C772.99386 67.383566 774.43394 69.563572 776.18653 71.559662C779.32856 75.138241 779.33903 75.184107 776.93653 74.844458C774.88972 74.555096 774.44685 74.966124 774.16773 77.414209C773.95274 79.299817 774.39394 80.640957 775.41773 81.213899C777.37964 82.311838 777.54188 85.145169 775.60017 84.400067C774.66133 84.039799 773.80569 85.058724 773.00193 87.494152C771.98883 90.563885 772.05065 91.39849 773.40176 92.891441C775.60565 95.326713 775.40156 96.338274 772.84143 95.668784C771.5092 95.320397 769.73489 95.849975 768.20657 97.052152C765.54617 99.144822 761.42761 99.568842 759.0 98.0Z M766.79189 94.721528C772.22576 88.937434 773.31591 78.118067 769.87359 64.136668C767.63162 55.030626 766.88953 40.571893 768.29988 33.475024C769.00212 29.941355 768.75799 28.999802 766.29988 25.761468C764.75995 23.732749 762.86782 22.056488 762.09516 22.036444C761.3225 22.0164 758.96 23.818948 756.84516 26.042107C753.11896 29.959165 752.00694 33.582398 753.92708 35.55C755.28344 36.939881 759.0 52.235109 759.0 56.4272C759.0 58.403886 758.12688 63.95391 757.05974 68.760587C754.27413 81.307642 755.87883 93.081639 760.76226 95.926764C763.36327 97.442128 764.43779 97.227346 766.79189 94.721528Z M781.98922 31.512986C783.28858 29.947354 782.65557 25.49484 780.81902 23.28193C780.01636 22.314787 779.21836 22.352842 777.07658 23.460399C772.47128 25.841893 771.43163 27.714474 773.46642 29.962891C774.42476 31.021848 776.17437 32.077126 777.35443 32.307952C778.53449 32.538778 779.7824 32.788918 780.12756 32.863818C780.47271 32.938718 781.31046 32.330844 781.98922 31.512986Z"/>
</svg>
