<?xml version="1.0" encoding="UTF-8"?>
<svg xmlns="http://www.w3.org/2000/svg" viewBox="1806.89 15 26.41 86.04">
  <path d="M 1817.75,50.90625 1818.6562,51.34375 1818.6562,54.21875 C 1819.5444,54.291852 1820,54.844464 1820,56.0625 1820,57.666664 1819.5321,58.96457 1818.6562,60.15625 L 1818.6562,64.71875 C 1819.1597,64.65845 1819.8662,64.459924 1820.0312,64.625 1821.5349,66.128647 1819.5403,75.803187 1817.2188,78.28125 1816.076,79.501174 1814.4542,81.803832 1813.625,83.40625 1811.7716,86.988131 1813.0477,90.080847 1818.1562,94.34375 L 1821.5,97.125 1825.25,92.8125 C 1827.311,90.437879 1828.9985,87.720832 1829,86.75 1829.0015,85.779169 1827.5926,82.480945 1825.875,79.4375 1822.9585,74.269818 1822.739,73.115172 1822.4062,62.1875 1822.2103,55.751777 1821.7912,47.103313 1821.5,42.9375 L 1820.9688,35.34375 1825.5625,32.0625 C 1831.2956,27.945335 1830.665,26.941995 1824.5938,30.5 L 1820.0312,33.15625 1817.1875,31.125 C 1815.6148,30.005099 1813.7372,28.381924 1813.0312,27.53125 1812.3253,26.680576 1811.3576,26 1810.875,26 1808.886,26 1810.262,28.361829 1814.5,32.21875 L 1819,36.3125 1818.9688,43.40625 C 1818.9405,48.141999 1818.8219,49.701548 1817.75,50.90625 z M 1822.125,77 C 1822.4173,77 1823.6833,79.19739 1824.9375,81.875 1827.127,86.549869 1827.1557,86.847989 1825.5,89.375 1824.5516,90.82239 1822.9055,92 1821.8438,92 1819.388,92 1815,87.676638 1815,85.25 1815,83.624219 1820.7191,77 1822.125,77 z M 1829.8125,19.0625 C 1828.9533,19.200611 1827.6412,19.829522 1826.1562,20.875 1821.8576,23.901374 1819.7536,24.14707 1816.5,22 1811.8165,18.9094 1810.0054,19.596598 1813.7812,23.03125 1815.5774,24.665128 1818.0439,26 1819.2812,26 1821.9251,26 1830.239,21.751521 1830.7812,20.125 1831.0654,19.272528 1830.6717,18.924389 1829.8125,19.0625 z"/>
</svg>
