<?xml version="1.0" encoding="UTF-8"?>
<svg xmlns="http://www.w3.org/2000/svg" viewBox="2817.72 18.83 19.07 89.67">
  <path d="M2821.6597 103.25C2821.4076 102.8375 2821.4935 92.825 2821.8507 81.0C2822.471 60.460619 2822.2265 51.832045 2820.4935 33.106343L2819.7167 24.712687L2822.5417 25.252724C2824.1444 25.559097 2826.7963 25.111025 2828.6708 24.217157C2830.4881 23.350574 2832.2348 22.901479 2832.5525 23.219168C2833.5571 24.22373 2834.7828 97.383454 2833.8264 99.25C2833.2428 100.38875 2831.7622 101.0 2829.5873 101.0C2827.749 101.0 2825.6847 101.675 2825.0 102.5C2823.641 104.13754 2822.3757 104.42162 2821.6597 103.25Z M2831.8594 97.473945C2833.1133 96.220068 2831.7097 30.186517 2830.3796 27.85486C2830.1772 27.500034 2828.1582 27.680154 2825.893 28.255128L2821.7744 29.300535L2822.3815 34.400268C2824.4995 52.192782 2825.0014 62.720553 2824.5497 79.877636L2824.0395 99.255273L2827.6437 98.6704C2829.6259 98.34872 2831.523 97.810315 2831.8594 97.473945Z"/>
</svg>
