<?xml version="1.0" encoding="UTF-8"?>
<svg xmlns="http://www.w3.org/2000/svg" viewBox="546.4 13.84 93.87 91.51">
  <path d="M 627.125 53.6875 C 625.60467 56.077307 623.99205 57.658221 621.96875 58.8125 C 617.0828 61.599908 615.11333 61.13253 609.09375 55.84375 C 606.67882 53.721998 603.83092 52 602.75 52 C 601.66909 52 599.08329 53.35 597 55 C 594.91671 56.65 592.75344 58 592.1875 58 C 590.71854 58 591.93408 43.189555 593.6875 39.71875 C 595.25845 36.609128 601.52934 33.061481 602.8125 34.5625 C 603.25445 35.079493 604.40895 38.117002 605.375 41.3125 C 606.34104 44.507998 607.64563 46.951454 608.25 46.75 C 610.37652 46.041159 612.0055 38.942934 611.34375 33.3125 C 609.97651 21.679442 604.02767 18.395831 593.53125 23.53125 C 590.54266 24.993431 587.5468 26.821943 586.90625 27.59375 C 584.95061 29.95016 583.12681 29.171369 581.0625 25.125 C 579.08458 21.247954 574.16812 18 570.28125 18 C 564.97462 18 559.60024 31.398682 562.59375 37.1875 C 564.31269 40.511555 567.24428 41.857286 575 42.84375 L 580.5 43.53125 L 580.15625 50.03125 C 579.96104 53.597025 579.63831 56.662303 579.46875 56.84375 C 579.08691 57.252345 573.86265 53.917008 572.5 52.40625 C 571.95 51.79647 570.0375 50.316485 568.25 49.09375 L 565 46.875 L 561.96875 49.03125 C 560.30355 50.216974 557.78071 53.508051 556.34375 56.34375 C 553.27983 62.390108 550.66509 77.447708 551.5625 83.875 C 552.29165 89.097238 555.79253 96.241649 557.375 95.71875 C 558.0768 95.486852 558.7027 91.012259 559.0625 83.875 C 559.56713 73.86474 560.01756 71.673132 562.59375 66.46875 C 564.21603 63.191447 566.22131 60.5 567.03125 60.5 C 568.36669 60.5 579.78509 76.315497 579.9375 78.375 C 579.97283 78.852392 578.72404 80.683131 577.15625 82.46875 C 573.50347 86.629032 572.27862 93.249545 574.53125 96.6875 C 576.5639 99.78971 577.95903 99.282207 580.65625 94.5 C 584.48431 87.712799 587.00773 87.843904 593.8125 95.125 C 597.41692 98.981716 600 98.48954 600 93.96875 C 600 91.05103 598.04305 86.128281 595 81.34375 C 593.89253 79.602484 593.86374 78.416692 594.8125 75.25 C 596.30797 70.258588 600.0695 64.59539 602.1875 64.1875 C 603.0847 64.014715 606.20878 66.156022 609.125 68.9375 C 612.04121 71.718978 614.74075 74 615.09375 74 C 615.44674 74 617.38008 72.875 619.40625 71.5 C 625.69695 67.231017 626.38098 67.809572 625.6875 76.75 C 625.35687 81.0125 624.36226 87.332741 623.46875 90.8125 C 622.57523 94.292259 622.09029 97.83286 622.40625 98.65625 C 623.37846 101.18978 626.56148 99.771974 626.1875 96.96875 C 626.00707 95.616293 626.39403 89.274104 627.0625 82.875 C 628.8083 66.162802 627.55761 63.325929 620.5 68 C 616.12651 70.896448 614.37415 70.510791 609.21875 65.5 C 604.05512 60.481204 601.33586 59.920127 598.28125 63.25 C 594.31075 67.578299 588.71353 81 590.875 81 C 592.10159 81 594.76109 85.21317 595.5625 88.40625 C 596.3191 91.420773 594.63727 91.91201 591.9375 89.46875 C 590.99991 88.620241 588.66223 87.659134 586.71875 87.34375 C 583.4685 86.816306 582.93899 87.088568 580.21875 90.84375 C 577.01299 95.269165 576 95.253976 576 90.78125 C 576 88.013052 579.76524 83 581.84375 83 C 583.73343 83 583.94162 79.834165 582.25 76.53125 C 579.81294 71.772859 571.56733 59.716372 569.6875 58.15625 C 567.72575 56.528145 564.90082 57.88792 563.3125 61.1875 C 558.31923 71.560468 557.70214 73.58457 557.21875 82.0625 C 556.94 86.951507 556.40033 90.747416 556 90.5 C 555.59967 90.252584 554.75691 87.430697 554.125 84.21875 C 553.18715 79.451739 553.26673 76.830734 554.5625 70 C 555.43557 65.397545 557.01021 59.937648 558.0625 57.875 C 559.96563 54.144554 563.41814 51 565.59375 51 C 566.70529 51 571.20623 54.157322 577.71875 59.5 C 579.4917 60.954469 581.34362 61.90285 581.84375 61.59375 C 582.34389 61.28465 582.82076 56.565428 582.90625 51.125 C 583.08138 39.979298 583.10997 40 575.375 40 C 570.10238 40 565.40357 37.846891 564.5 35 C 563.73506 32.589879 564.69677 27.584608 566.65625 23.75 C 567.7553 21.599207 568.75949 21.013859 571.28125 21.03125 C 575.10403 21.057613 578.17445 23.307186 580.375 27.6875 C 582.66413 32.244152 583.65243 32.489769 587.53125 29.53125 C 591.84378 26.241921 598.78982 23.060188 601.6875 23.03125 C 606.06096 22.987573 611.21052 33.605909 609.46875 39.09375 C 608.96012 40.696282 608.53572 40.874875 607.40625 39.9375 C 606.62751 39.291198 606 37.971724 606 37 C 606 36.028276 605.18705 34.20315 604.1875 32.96875 C 602.39289 30.752505 602.31723 30.747923 598.625 32.5 C 596.56851 33.475869 593.73314 35.793694 592.3125 37.65625 C 589.951 40.752346 589.72609 41.930099 589.625 51.1875 C 589.55646 57.464604 589.91103 61.4305 590.5625 61.65625 C 591.14049 61.856536 593.15027 60.648089 595.03125 58.96875 C 599.91196 54.611249 602.21688 54.32103 606.34375 57.46875 C 608.25218 58.924379 610.06948 60.766337 610.375 61.5625 C 611.41724 64.278546 619.13771 63.379216 623.5625 60.03125 C 625.72298 58.396551 628.00423 57.046551 628.625 57.03125 C 630.35317 56.988654 631.8598 61.691941 632.90625 70.4375 C 633.76642 77.626323 633.6325 79.108934 631.40625 86.15625 C 630.05504 90.433577 628.50175 94.201833 627.96875 94.53125 C 627.43574 94.860667 627 95.575 627 96.125 C 627 98.007259 629.01982 95.877742 631.09375 91.8125 C 634.04825 86.021201 635.99695 79.142158 635.96875 74.5 C 635.93422 68.817353 633.54542 58.478631 631.59375 55.5 C 631.24656 54.970129 631.02394 54.550475 630.84375 54.125 L 627.125 53.6875 z "/>
</svg>
