<?xml version="1.0" encoding="UTF-8"?>
<svg xmlns="http://www.w3.org/2000/svg" viewBox="1273.52 16.37 61.02 95.21">
  <path d="M 1286.1875 47.84375 L 1286.4688 47.875 L 1294 50.71875 L 1294.2188 51.625 C 1294.718 49.778552 1297.1304 52.40122 1299.625 57.90625 L 1302.75 64.84375 L 1299.25 71.15625 C 1293.3521 81.824485 1292.299 83 1288.375 83 C 1283.7655 83 1281.377 84.376684 1279.4062 88.1875 C 1276.2945 94.204858 1278.6708 100.9434 1285.4062 105.09375 C 1288.9154 107.25612 1290.7276 106.54734 1294.625 101.4375 C 1297.8654 97.189197 1298.2665 90.876844 1295.5625 86.75 C 1293.809 84.073807 1293.8392 83.983486 1298.1562 76.53125 C 1300.549 72.400757 1302.9688 69.006745 1303.5312 69 C 1304.0936 68.993254 1305.4302 70.6875 1306.5 72.75 C 1307.5697 74.8125 1309.2385 77.563327 1310.2188 78.875 C 1312.5269 81.963379 1312.4783 85.636493 1310.0625 90.375 C 1307.905 94.606728 1308.051 98.903718 1310.4688 102.59375 C 1312.5602 105.78556 1319.8123 105.97289 1324.0312 102.96875 C 1327.3536 100.60311 1329.3645 95.317534 1328.4062 91.5 C 1327.6158 88.350088 1322.6597 85.005352 1318.7812 85 C 1316.3947 84.996707 1315.4899 83.899443 1311.0625 75.75 C 1308.2986 70.6625 1306.04 65.876313 1306.0312 65.125 C 1306.0226 64.373687 1307.575 61.622375 1309.5 59 C 1311.425 56.377625 1313 53.78964 1313 53.25 C 1313 52.710359 1313.9687 51.041085 1315.1562 49.53125 C 1317.0264 47.15388 1317.8516 46.860863 1321.2188 47.3125 C 1327.1267 48.104918 1330.1619 45.02911 1331.0312 37.40625 C 1331.7695 30.933836 1330.9532 27.669456 1327.75 24.25 C 1324.4232 20.698587 1319.8851 21.241973 1315.1875 25.75 C 1310.0441 30.685697 1308.776 37.235291 1311.9375 42.59375 C 1313.0754 44.522313 1314 46.698644 1314 47.40625 C 1314 49.358724 1305.889 61 1304.5312 61 C 1303.3531 61 1299 53.270931 1299 51.1875 C 1299 50.59168 1299.9541 48.484539 1301.125 46.5 C 1303.5535 42.384033 1303.2746 36.488803 1300.3438 30.3125 C 1298.7917 27.041773 1293.8379 22.955913 1291.5 23.03125 C 1288.5553 23.126144 1284.8274 27.943376 1283.5938 33.25 C 1282.4091 38.345994 1282.4664 39.276246 1284.2812 43.46875 L 1286.1875 47.84375 z M 1321.6875 24.9375 C 1323.6382 25.008483 1325.5924 25.914998 1326.9375 27.625 C 1329.812 31.279255 1329.8284 39.743143 1326.9688 42.8125 C 1323.1955 46.862569 1315.0666 44.935486 1313 39.5 C 1311.9051 36.620048 1313.6219 30.315961 1316.3438 27.25 C 1317.7722 25.640924 1319.7368 24.866517 1321.6875 24.9375 z M 1291.2812 26.375 C 1292.0083 26.331791 1292.7592 26.477755 1293.5625 26.84375 C 1294.8403 27.425977 1296.6105 29.017555 1297.5 30.375 C 1299.6243 33.617126 1300.6003 43.028581 1299.0938 45.84375 C 1298.3103 47.307638 1297.0553 47.95347 1295.2188 47.875 C 1290.5077 47.673704 1289.3751 47.017469 1287.1875 43.125 C 1283.284 36.179838 1286.1916 26.677462 1291.2812 26.375 z M 1285.7812 86 C 1293.776 86 1298.1762 92.514687 1294.4375 98.84375 C 1293.4677 100.48557 1291.6241 102.29163 1290.3438 102.875 C 1288.3588 103.77937 1287.4977 103.50703 1284.5 100.875 C 1280.1649 97.068689 1279.4082 94.363577 1281.375 89.65625 C 1282.629 86.655025 1283.3936 86 1285.7812 86 z M 1319.25 87.5625 C 1320.1434 87.54418 1321.0673 87.820664 1322.4688 88.40625 C 1326.513 90.09602 1327.6683 93.775648 1325.5 97.96875 C 1324.6576 99.597699 1323.1206 101.40244 1322.0625 101.96875 C 1321.0043 102.53505 1319.7612 102.9474 1319.3125 102.875 C 1311.2607 101.57563 1311.5164 101.75818 1311.1875 97.1875 C 1310.8421 92.387306 1311.803 90.76532 1316.2188 88.5625 C 1317.5029 87.921839 1318.3566 87.58082 1319.25 87.5625 z "/>
</svg>
