<?xml version="1.0" encoding="UTF-8"?>
<svg xmlns="http://www.w3.org/2000/svg" viewBox="930.69 16 44.08 90.7">
  <path d="M 946.75 20.125 C 945.2294 20.131839 943.29195 21.955596 939.4375 25.625 C 933.13785 31.622211 932.69606 32.311586 934.59375 33.03125 C 935.74116 33.466382 938.21616 36.226468 940.09375 39.15625 C 942.98353 43.665441 943.49339 45.329434 943.40625 50 C 943.34101 53.496938 942.51704 57.051391 941.15625 59.71875 C 938.76164 64.412573 938.30218 72.729496 940.09375 79.5 C 942.13935 87.230527 942.22223 88.585974 940.59375 89.9375 C 938.23901 91.891754 938.64751 93.677459 942.15625 96.75 C 943.88833 98.266743 945.80083 100.05217 946.40625 100.71875 C 948.09074 102.57339 951.48598 102.22547 953.5 100 C 954.41903 98.984481 955.78471 98.532434 957.53125 98.28125 L 957.90625 94.0625 L 957.875 93.15625 C 957.61006 92.881735 957.33678 92.723688 957.0625 92.375 C 953.86213 88.306396 954.76671 84.2031 957.4375 84.375 L 957.4375 84.1875 L 959.03125 82.0625 L 958.84375 81.9375 L 959.53125 75.46875 C 960.07386 70.401959 959.88631 68.471068 958.65625 66.59375 C 956.05266 62.620179 953.81669 51.092553 954.5625 45.5 C 955.61456 37.610971 956.20625 36.997614 962.03125 37.6875 C 969.66186 38.591232 972.76549 34.97501 969.84375 28.5625 C 968.39475 25.382277 964.44836 25.154461 959.78125 28 C 955.18893 30.79994 954.42416 30.583448 951.5 25.59375 C 949.36537 21.951283 948.2706 20.118161 946.75 20.125 z M 946.1875 23.40625 C 947.31343 23.503924 948.1574 24.281235 948.6875 25.71875 C 949.04704 26.693724 950.46372 28.955273 951.8125 30.75 C 953.90149 33.52967 954.12536 34.566793 953.40625 37.75 C 951.87962 44.507833 952.45132 59.078831 954.4375 64 C 955.43641 66.475 956.44694 70.525 956.6875 73 C 957.05561 76.787237 956.65773 78.242913 954.03125 82.1875 L 950.90625 86.875 L 952.84375 90.6875 C 954.59437 94.136212 954.61124 94.714981 953.25 96.75 C 951.23533 99.761882 949.74812 99.573644 945.5 95.84375 L 941.90625 92.71875 L 944.09375 90.40625 L 946.28125 88.0625 L 943.9375 82.78125 C 941.1265 76.469845 940.81982 65.161988 943.34375 60.28125 C 947.37349 52.488596 946.3213 43.542991 940.34375 34.8125 C 937.41854 30.540085 937.76262 28.549189 942.0625 25.15625 C 943.65131 23.902552 945.06157 23.308576 946.1875 23.40625 z M 964.90625 29 C 967.84977 29 969.44614 32.428858 967.4375 34.4375 C 964.62281 37.252187 959 35.858342 959 32.34375 C 959 30.79218 962.16193 29 964.90625 29 z "/>
</svg>
