<?xml version="1.0" encoding="UTF-8"?>
<svg xmlns="http://www.w3.org/2000/svg" viewBox="143.87 11.96 59.95 90.14">
  <path d="M 146.59375 77.09375 L 146.59375 80.375 C 146.6051 80.381508 146.67926 80.366761 146.6875 80.375 C 146.82565 80.513154 146.62757 81.826098 146.59375 82.65625 L 146.59375 92.59375 C 147.04964 92.741987 147.45777 93.080374 148 93.75 C 148.84207 94.789913 150.40681 96.147504 151.5 96.78125 C 152.5932 97.414995 154.00165 97.952026 154.625 97.96875 C 155.89097 98.002717 156.97928 94.812326 157 90.9375 C 157.01994 87.207125 162.4931 79 164.96875 79 C 166.08086 79 167 79.469256 167 80.03125 C 167 80.593244 169.732 82.816146 173.0625 84.96875 C 176.393 87.121354 179.98105 90.000151 181.0625 91.375 C 183.65699 94.673351 193.37751 97.601881 196.6875 96.09375 C 199.55633 94.786625 199.59958 93.843681 196.90625 91.40625 C 191.49795 86.511803 190.70166 77.819561 195.03125 70.71875 C 197.61922 66.474324 197.53454 66 194.0625 66 C 191.7699 66 190.16474 67.107391 186.8125 71 C 184.44449 73.74973 181.96255 75.99973 181.3125 76 C 179.56055 76.000728 175.92979 70.458508 174.4375 65.5 C 172.90918 60.421787 174.15775 53.400582 177.84375 46.25 C 180.35926 41.370107 181.33969 41.06152 183.53125 44.40625 C 185.80094 47.870247 194.15599 50.750319 196.9375 49.03125 C 198.16449 48.272927 198.14145 47.600327 196.75 44.3125 C 193.7295 37.175414 193.68612 33.549558 196.53125 26.75 C 201.0069 16.053677 201.09321 16.601954 195.09375 17.3125 C 188.19148 18.129972 183.89193 20.928587 181.15625 26.40625 C 178.76755 31.189148 173.25839 35.424045 170.6875 34.4375 C 168.23373 33.4959 166.34073 29.875944 165.0625 23.71875 C 164.41254 20.587902 163.47038 17.778774 162.96875 17.46875 C 161.15798 16.349633 158.13791 19.074257 156.53125 23.28125 C 155.18966 26.794141 155.08821 28.445857 155.96875 32.375 C 157.18125 37.785436 160.12308 44.026686 162.3125 45.84375 C 163.40533 46.750717 163.58942 47.99651 163 50.78125 C 162.56681 52.827884 161.90181 57.109124 161.53125 60.28125 C 160.90348 65.65517 160.61251 66.178966 157.1875 67.9375 C 155.16578 68.97553 152.69123 71.177157 151.71875 72.84375 C 150.96358 74.137931 148.92341 75.672925 146.59375 77.09375 z M 195.0625 19.71875 C 195.61822 19.764704 195.98452 19.950058 196.03125 20.28125 C 196.09128 20.70672 195.15404 23.63172 193.96875 26.78125 C 191.83716 32.445327 191.62147 39.866808 193.46875 44.25 C 194.0476 45.623487 193.71318 46 191.90625 46 C 189.40141 46 184 41.429629 184 39.3125 C 184 34.565871 176.88415 42.315398 173.8125 50.40625 C 169.94997 60.580287 171.16623 69.503159 177.40625 76.75 C 179.90218 79.648654 184.61247 79.79636 185.5 77 C 186.39872 74.168392 191.00677 68.898086 192.03125 69.53125 C 192.50168 69.821995 192.23307 71.90137 191.4375 74.15625 C 190.64193 76.41113 190 79.633198 190 81.3125 C 190 84.698683 192.01317 91 193.09375 91 C 193.47442 91 194.05841 91.675 194.375 92.5 C 195.03088 94.209215 195.02794 94.194862 189.15625 92.625 C 186.75311 91.982496 183.8401 90.330269 182.65625 88.90625 C 181.47634 87.486992 178.475 84.927962 176 83.25 C 165.32021 76.009484 162.79227 70.148955 164.625 56.75 C 165.65198 49.241785 166.42982 47.020262 169.5 42.5625 C 171.50059 39.657739 174.8481 36.316872 176.96875 35.125 C 179.51764 33.692444 181.56825 31.457604 183 28.5 C 184.1912 26.039302 186.37316 23.172153 187.84375 22.125 C 189.94725 20.627174 193.39534 19.580889 195.0625 19.71875 z M 160.28125 21.28125 C 161.36873 20.650893 161.90984 21.88756 162.4375 25.40625 C 162.80023 27.825127 164.46069 31.862339 166.125 34.375 C 169.10954 38.880825 169.10952 38.969673 167.3125 41.4375 C 165.31477 44.180967 165.00933 44.331273 163.375 43.25 C 159.55108 40.720085 156.38404 25.683282 159 22.53125 C 159.50281 21.925394 159.91876 21.491369 160.28125 21.28125 z M 159.78125 69.1875 C 160.69031 69.028636 161.27002 69.631912 161.96875 70.9375 C 163.62981 74.041231 163.21085 75.698836 159.59375 80.4375 C 157.7194 82.893034 155.63584 86.632024 154.96875 88.71875 C 153.40677 93.604777 152.57855 94.414075 151.09375 92.625 C 147.22283 87.960824 149.54727 77.340126 155.59375 72.03125 C 157.62387 70.248779 158.87219 69.346364 159.78125 69.1875 z "/>
</svg>
