<?xml version="1.0" encoding="UTF-8"?>
<svg xmlns="http://www.w3.org/2000/svg" viewBox="1377 29.22 27.56 81.05">
  <path d="M 1392.4375,32.90625 1385.5625,35.65625 C 1386.2178,36.532104 1385.2782,38.307252 1382.5,41 1380.575,42.865783 1379,45.152315 1379,46.0625 1379,46.972685 1381.331,49.868754 1384.1875,52.5 L 1389.375,57.28125 1386.9375,59.375 C 1383.4575,62.389606 1380,67.020689 1380,68.65625 1380,69.42402 1382.25,72.2417 1385,74.90625 1387.75,77.570799 1390,80.332279 1390,81.03125 1390,81.730221 1387.975,84.447775 1385.5,87.09375 1383.025,89.739725 1381,92.314565 1381,92.8125 1381,93.310435 1382.3405,95.388606 1383.9688,97.4375 1385.597,99.486393 1387.1824,101.99907 1387.5,103 1388.6379,106.58516 1391.176,106.24188 1395.5938,101.90625 1400.9691,96.630814 1401.6734,93.944114 1399.0312,88.875 1396.3226,83.678394 1396.465,79.878613 1399.5,75.40625 1400.875,73.380074 1402,70.63266 1402,69.3125 1402,67.080725 1399.6017,61.768617 1396.7812,57.78125 1395.795,56.386859 1395.9471,55.658048 1397.625,53.78125 1398.7535,52.519031 1400.4036,49.868884 1401.3125,47.875 1401.6965,47.032568 1402.1518,46.619761 1402.5625,46.0625 L 1400.4688,40.84375 C 1400.3995,40.783506 1400.3193,40.756804 1400.25,40.6875 1399.5586,39.996122 1399.4364,39.30078 1399.5625,38.5625 L 1398.2188,35.21875 C 1396.602,36.13372 1395.5272,36.372673 1394.2812,35.5 1393.676,35.076105 1393.0408,34.07661 1392.4375,32.90625 z M 1389.3438,39 C 1389.6015,39 1390.1112,41.743576 1390.5,45.09375 1391.4184,53.006726 1390.3297,54.099569 1385.625,49.96875 1383.6324,48.219294 1382,46.202745 1382,45.5 1382,44.383318 1388.0865,39 1389.3438,39 z M 1395.0312,60.25 C 1395.8646,60.4879 1396.9806,61.965712 1398.375,64.6875 1400.422,68.683335 1400.4182,70.95345 1398.4375,73.78125 1397.5843,74.999373 1396.0093,76.457643 1394.9375,77.03125 1393.0771,78.026894 1393,77.685683 1393,69.59375 1393,62.935775 1393.6424,59.8535 1395.0312,60.25 z M 1389.5,62 C 1390.8082,62 1391.0584,63.006055 1390.8125,67.65625 1390.6476,70.775297 1390.0541,73.50517 1389.5,73.6875 1388.3069,74.080067 1383,69.357187 1383,67.90625 1383,66.30989 1387.7443,62 1389.5,62 z M 1393.4688,83.78125 C 1393.9963,83.651372 1394.6486,84.549641 1395.5,86.34375 1396.4547,88.355615 1397.6377,90 1398.125,90 1398.6124,90 1399,91.530142 1399,93.40625 1399,95.987642 1398.2658,97.447077 1395.9375,99.40625 1391.0966,103.47958 1390.6666,102.94741 1391.4688,93.75 1392.0501,87.083521 1392.5895,83.997713 1393.4688,83.78125 z M 1388.6562,88 C 1389.9577,88 1390.1581,88.714583 1389.6562,91.75 1389.3153,93.8125 1389.0061,96.0625 1389,96.75 1388.9819,98.806272 1387.1553,98.169356 1385.4062,95.5 1383.8888,93.184129 1383.8889,92.815871 1385.4062,90.5 1386.3073,89.125 1387.772,88 1388.6562,88 z M 1394.4062,39.4375 C 1394.9965,39.57608 1395.7156,39.901994 1396.4375,40.375 1399.8123,42.586255 1399.8687,47.458148 1396.5312,51.25 1395.2,52.7625 1393.8794,54 1393.625,54 1392.819,54 1392.3815,40.533344 1393.1562,39.59375 1393.3659,39.339478 1393.816,39.29892 1394.4062,39.4375 z"/>
</svg>
