<?xml version="1.0" encoding="UTF-8"?>
<svg xmlns="http://www.w3.org/2000/svg" viewBox="802.72 11.47 97.88 93.16">
  <path d="M 896.15625 35.1875 C 894.99018 31.664496 893.79531 29 892.8125 29 C 892.16783 29 890.61997 29.955417 889.375 31.125 C 886.0214 34.275546 883.66041 32.972181 884.21875 28.25 C 884.46206 26.192233 884.9962 23.6 885.40625 22.5 C 886.0457 20.784605 885.86056 20.836726 884.0625 22.875 C 881.31847 25.98561 880.63645 28.941433 881.90625 32.28125 C 883.07712 35.360873 886.26595 35.867587 889.4375 33.46875 C 892.18292 31.392216 893 31.642212 893 34.53125 C 893 37.075747 892.13769 37.652446 885.59375 39.625 C 884.00073 40.10519 882.20073 41.367158 881.59375 42.4375 C 873.96039 55.898281 867.41429 64 864.125 64 C 862.97893 64 859.83785 62.65 857.15625 61 C 854.47466 59.35 851.56118 58 850.6875 58 C 848.40036 58 843.88153 64.372018 843.8125 67.6875 C 843.7802 69.238803 844.93202 73.144064 846.375 76.375 C 849.63931 83.684026 849.62946 84.481033 846.28125 89.3125 C 843.57258 93.221124 841.86765 92.984325 844 89 C 844.84408 87.422814 844.82071 85.961304 843.90625 83.1875 C 842.55922 79.101612 838.10461 73.000047 836.46875 73 C 835.89426 72.999984 833.78143 75.158443 831.78125 77.78125 C 829.099 81.298448 828.04763 83.726084 827.8125 87.03125 L 827.5 91.5 L 825.25 87.6875 C 824.0125 85.593562 823 83.327113 823 82.65625 C 823 81.985387 824.79493 79.059683 827 76.125 C 829.20508 73.190316 831.26996 69.72757 831.59375 68.4375 C 832.32716 65.51538 828.58111 58.466248 824.78125 55.65625 C 821.17766 52.991385 817.83643 54.468885 815.0625 59.90625 C 812.21316 65.491409 811 65.857981 811 61.1875 C 811 57.389731 813.268 53.240408 816.96875 50.28125 C 819.563 48.206859 823.55451 48.87093 827.53125 52.03125 C 829.62579 53.695779 831.81793 54.883605 832.40625 54.6875 C 833.6717 54.265684 836.09408 41.280892 835.375 38.75 C 834.67757 36.295273 831.49499 34.842057 828.5 35.59375 C 825.59183 36.323657 823 34.631765 823 32 C 823 30.141983 831.52919 20 833.09375 20 C 833.59278 20 834 21.601343 834 23.5625 C 834 27.877795 835.52274 31 837.625 31 C 838.47823 31 841.16725 29.58633 843.59375 27.84375 C 846.02025 26.10117 848.28303 24.939283 848.625 25.28125 C 849.89748 26.553735 847.81695 31.302475 844.46875 34.75 C 841.13106 38.186709 841 38.574827 841 46.03125 C 841 55.278284 842.10423 56.886961 846.53125 53.96875 C 850.50622 51.34852 851.95435 51.482044 856.5625 54.96875 C 858.72298 56.603449 861.2029 57.953449 862.0625 57.96875 C 865.39558 58.028079 874 46.38168 874 41.8125 C 874 40.21734 873.08919 37.133741 871.96875 34.9375 C 869.98944 31.057726 869.10988 23.285069 870.40625 21.1875 C 870.7588 20.61706 870.56 19.8461 870 19.5 C 868.66875 18.677243 867 23.198513 867 27.59375 C 867 29.50123 868.125 33.286568 869.5 36 C 870.875 38.713432 872 41.545836 872 42.3125 C 872 44.654445 864.66064 55 863 55 C 862.1429 55 859.76086 53.615291 857.6875 51.90625 C 853.88041 48.768129 852.41082 48.586836 846.25 50.53125 C 844.08887 51.213324 844 51.007435 844 45.28125 C 844 40.614989 844.42307 38.930069 845.96875 37.53125 C 850.76462 33.191048 854.06044 21 850.4375 21 C 849.5795 21 846.79735 22.586208 844.25 24.53125 C 838.07027 29.249823 836.5 28.838114 836.5 22.5 C 836.5 16.228964 834.81869 15.705856 829.3125 20.21875 C 818.72083 28.899728 818.40357 37.935454 828.6875 38.34375 C 832.94443 38.51276 833.73185 40.22529 832.53125 46.625 C 831.80689 50.486204 830.32975 50.840414 826.71875 48 C 823.20696 45.237625 818.80942 45.467223 815.09375 48.59375 C 811.01512 52.025691 807.17406 63.854505 808.90625 67.65625 C 810.50916 71.174234 812.0519 70.241761 815.5 63.6875 C 818.66162 57.677789 821.09952 55.997791 823.625 58.09375 C 825.27924 59.466654 829 66.284373 829 67.9375 C 829 68.498253 827.21471 71.333889 825.03125 74.21875 C 819.51313 81.50944 819.26732 83.573762 822.96875 90.90625 C 827.75906 100.39582 831.63596 98.779234 831.15625 87.5 C 830.98617 83.500913 831.43704 81.895165 833.375 79.5 C 835.73582 76.582233 835.85635 76.542207 837.8125 78.3125 C 841.05817 81.249793 842.46407 85.654825 841.125 88.59375 C 840.49801 89.969847 840 92.663379 840 94.5625 C 840 100.18808 843.17346 99.144365 847.4375 92.125 C 851.60157 85.270193 851.77564 82.693939 848.78125 74.34375 C 846.93406 69.192655 846.7789 67.762406 847.78125 65.5625 C 849.55533 61.668817 851.44772 61.460643 857.3125 64.53125 C 863.44017 67.739495 866.26126 67.488743 870.46875 63.28125 C 873.01062 60.739389 874.57842 58.467434 882.3125 46.28125 C 884.02256 43.586813 886.00009 41.790737 887.75 41.375 C 889.26145 41.015913 891.31642 40.023011 892.3125 39.15625 C 893.33389 38.267459 893.83077 38.14318 894.28125 38.375 L 896.15625 35.1875 z M 877.28125 21.59375 C 877.16281 21.530817 876.97845 21.615299 876.78125 21.8125 C 875.1288 23.464942 874.25508 30.147746 875.28125 33.25 C 875.84932 34.967383 876.90583 36 878.09375 36 C 880.42201 36 880.5381 34.701465 878.375 32.90625 C 877.10451 31.85184 876.87283 30.385069 877.3125 26.125 C 877.61582 23.186116 877.63657 21.782549 877.28125 21.59375 z "/>
</svg>
