<?xml version="1.0" encoding="UTF-8"?>
<svg xmlns="http://www.w3.org/2000/svg" viewBox="575.32 15.1 32.15 85.78">
  <path d="M586.2574 95.782808C583.17128 94.294062 579.33412 87.410887 578.50387 81.874374C577.71519 76.615058 579.78583 67.150207 583.23678 60.240338C585.15602 56.397435 585.24732 55.630329 584.01591 53.693688C578.41918 44.891671 577.32377 39.837986 579.43698 32.568787C581.72299 24.705187 586.95661 19.0 591.88423 19.0C599.61722 19.0 605.47737 25.984013 603.06605 32.326276C601.78896 35.685263 601.18895 35.646517 597.58333 31.972222C593.82744 28.144783 591.46511 28.19989 589.41584 32.162747C587.20951 36.42931 588.07099 42.778749 591.1808 45.171263C594.40492 47.651726 595.78675 47.448678 598.76276 44.057153C600.86955 41.656211 601.69685 41.302574 603.25543 42.136702C604.90775 43.020995 605.07436 43.857512 604.48889 48.329549C604.1166 51.173297 602.97994 54.944763 601.96298 56.710584C600.21473 59.746192 600.20539 60.10044 601.79148 63.210584C603.61626 66.788759 604.66394 80.647367 603.55609 86.552682C603.17671 88.574997 601.44581 91.48752 599.41859 93.514746C596.64236 96.290976 595.17723 96.986231 592.21667 96.93232C590.1725 96.895096 587.49083 96.377815 586.2574 95.782808Z M597.10795 92.75C599.90248 90.405929 601.27464 87.96671 601.98547 84.07944C602.98967 78.587907 601.38979 68.465838 598.78508 63.831399C596.96879 60.599735 596.79461 59.595081 597.80861 58.199075C600.45174 54.560178 602.87237 48.472367 602.01645 47.616451C601.50197 47.101969 599.43283 47.409896 597.08089 48.350959C589.98851 51.188767 586.06074 47.515802 585.68047 37.690102C585.55548 34.460492 586.09851 32.345018 587.55239 30.39771C590.92727 25.877426 592.61272 25.256761 596.10019 27.25C599.8561 29.396662 601.0 29.451595 601.0 27.485302C601.0 25.478402 595.19386 22.008447 591.82792 22.003738C587.09268 21.997114 580.0 32.487633 580.0 39.497986C580.0 41.466672 582.94679 46.672737 587.10284 52.046481L589.84568 55.592962L586.60005 60.546481C578.91913 72.26917 578.83435 83.241009 586.35893 91.75C588.60622 94.291294 594.60513 94.849383 597.10795 92.75Z M587.51156 85.830433C584.8989 83.775312 584.78021 83.326942 585.26153 77.330681C586.07924 67.143705 589.80425 63.591656 595.13922 67.911647C597.21239 69.590404 597.5 70.674053 597.5 76.806659C597.5 87.157268 593.6361 90.647998 587.51156 85.830433Z M595.34111 81.320341C596.60128 76.906793 595.36435 71.26536 592.8403 69.914532C589.8968 68.339217 587.90541 70.659599 587.25597 76.421436C586.85128 80.011771 587.14402 81.501662 588.56201 83.068522C591.17863 85.959849 594.24199 85.169875 595.34111 81.320341Z"/>
</svg>
