<?xml version="1.0" encoding="UTF-8"?>
<svg xmlns="http://www.w3.org/2000/svg" viewBox="502.88 30.58 17.18 69.01">
  <path d="M 511.5625 33.71875 L 509.28125 36.6875 C 509.94369 37.484033 510.24604 38.468134 510.53125 40.15625 C 511.04508 43.197549 510.78471 44.573853 509.4375 46.0625 C 507.8418 47.825732 507.83764 48 509.34375 48 C 511.97713 48 511.69572 59.060402 509 61.5 C 506.47915 63.781335 506.41191 65.313006 508.875 64.53125 C 510.39494 64.048841 510.87112 64.571001 511.34375 67.21875 C 512.16768 71.834545 511.53497 75.733259 509.625 77.84375 C 507.42778 80.271652 507.57441 81.269853 510 80.5 C 511.74466 79.946265 512 80.328068 512 83.4375 C 512 86.128481 511.10513 87.978073 508.375 91 C 504.883 94.865227 505.48767 96.452102 509.34375 93.53125 C 510.78742 92.437713 511.62981 92.386523 513.0625 93.28125 C 515.4544 94.775019 516.46656 93.721359 515.09375 91.15625 C 513.24087 87.69412 513.74009 82.194942 516.03125 80.96875 L 518.0625 79.90625 L 516.03125 77.3125 C 513.46574 74.050976 513.03753 64.430061 515.5 65.375 C 517.52648 66.152635 517.38681 64.703265 515 60.25 C 513.9 58.197638 513 54.820645 513 52.75 C 513 49.651858 513.35416 49 515 49 C 517.50807 49 517.53678 47.555916 515.09375 44.125 C 514.04453 42.651508 512.689 38.813744 512.09375 35.59375 C 511.97751 34.96497 511.72495 34.34785 511.5625 33.71875 z "/>
</svg>
