<?xml version="1.0" encoding="UTF-8"?>
<svg xmlns="http://www.w3.org/2000/svg" viewBox="2235.03 13.16 60.73 70.39">
  <path d="M2239.2186 77.25C2237.7943 73.781456 2238.5785 61.630676 2240.461 58.0C2243.4372 52.259903 2248.1915 46.073986 2250.0902 45.471386C2251.106 45.148954 2254.1773 46.211703 2257.2641 47.953791C2264.3561 51.956233 2265.5974 51.868592 2266.3366 47.313229C2267.0586 42.863818 2266.2004 41.676219 2261.1747 40.170481C2252.2081 37.48403 2251.751 31.106457 2259.9939 23.695407C2268.1525 16.360135 2274.7226 16.575756 2273.7073 24.145457C2273.0793 28.827985 2273.5522 29.28291 2277.1268 27.434437C2278.7071 26.617249 2280.0 26.246559 2280.0 26.610683C2280.0 26.974808 2281.1864 26.086364 2282.6364 24.636364C2284.0864 23.186364 2285.6614 22.0 2286.1364 22.0C2286.6114 22.0 2287.0 23.990474 2287.0 26.423275C2287.0 30.709315 2284.0511 35.910818 2280.2668 38.299702C2277.2563 40.200136 2274.6567 49.323375 2276.5782 51.244877C2276.8962 51.562892 2279.2587 50.754609 2281.8282 49.448691C2287.6497 46.489982 2292.304 45.895352 2292.7499 48.053338C2292.9999 49.263043 2292.3441 49.524402 2289.7855 49.234768C2287.354 48.959527 2285.2622 49.687034 2281.7378 52.033741C2274.9311 56.565932 2273.6765 55.731442 2274.1698 47.000195C2274.5628 40.045272 2274.5802 40.008826 2279.782 35.201451C2287.3691 28.18977 2286.2969 24.546986 2278.1589 29.686864C2272.059 33.539517 2268.0594 31.65228 2270.7129 26.173417C2272.5773 22.323769 2271.4364 20.416039 2267.8232 21.341448C2264.3236 22.23777 2257.0 29.82774 2257.0 32.558379C2257.0 35.522041 2260.5079 38.0 2264.7035 38.0C2267.3897 38.0 2268.078 38.462739 2268.6233 40.635201C2269.557 44.355454 2267.827 52.102457 2265.7769 53.381104C2264.4299 54.221265 2262.6253 53.751348 2257.508 51.227906C2253.9078 49.452558 2250.7632 48.0 2250.52 48.0C2249.2728 48.0 2245.4915 53.134125 2243.1551 58.0C2240.4539 63.625608 2239.8203 69.452856 2241.225 75.75C2241.9988 79.218721 2240.4902 80.346576 2239.2186 77.25Z M2244.7745 76.441165C2244.1564 75.823031 2245.4817 68.471819 2246.865 64.846028C2249.3786 58.257322 2256.7003 55.818692 2260.6639 60.25C2264.4907 64.528265 2267.317 70.082953 2266.2236 71.176434C2265.5169 71.883145 2264.0684 70.447641 2261.6092 66.603234C2258.5888 61.88157 2257.5621 61.0 2255.0838 61.0C2250.9603 61.0 2249.2717 63.130426 2247.9103 70.050629C2246.7887 75.751474 2245.8987 77.565319 2244.7745 76.441165Z M2279.0 64.634859C2279.0 60.758385 2288.9475 53.547493 2291.1949 55.79486C2292.0476 56.647626 2291.8519 57.092852 2290.4172 57.563873C2285.6399 59.132289 2281.7204 61.685575 2280.9209 63.75C2279.9449 66.270163 2279.0 66.705421 2279.0 64.634859Z"/>
</svg>
