<?xml version="1.0" encoding="UTF-8"?>
<svg xmlns="http://www.w3.org/2000/svg" viewBox="1193.18 70.56 18.32 28.79">
  <path d="M 1198.0312,77 1202.5312,77 C 1206.8867,77 1207.013,77.093234 1207.1875,80.25 1207.4202,84.458505 1207.1044,89.907891 1206.4688,92.75 1206.0905,94.441208 1205.2423,95 1203.0938,95 1198.9549,95 1198.1784,93.415405 1198.0938,84.75 L 1198.0312,77 z M 1198.3438,72.59375 C 1197.7772,72.622596 1197.2562,72.84922 1196.6875,73.28125 1195.3435,74.302201 1195.1829,76.004597 1195.6875,84.15625 1196.0167,89.475352 1196.5993,94.382928 1197,95.03125 1197.4006,95.679572 1199.2664,96.511035 1201.125,96.90625 1202.9836,97.301465 1205.625,97.35221 1207,97 1209.4835,96.363853 1209.5,96.289989 1209.5,84.9375 L 1209.5,73.5 1205.8125,73.8125 C 1203.7864,73.988854 1201.2792,73.692544 1200.2188,73.125 1199.531,72.756943 1198.9103,72.564904 1198.3438,72.59375 z"/>
</svg>
