<?xml version="1.0" encoding="UTF-8"?>
<svg xmlns="http://www.w3.org/2000/svg" viewBox="1534 14.9 31.47 90.14">
  <path d="M 1562.7812 73.5625 C 1562.7428 73.469026 1562.4134 73.132677 1562.4375 73.09375 C 1563.0419 72.115693 1560.5024 62.1544 1558.125 56.21875 C 1554.9477 48.285973 1555.2328 46.347521 1562.1562 29.1875 C 1563.4658 25.94163 1563.3918 25.774978 1559.75 22.4375 C 1557.6963 20.55542 1555.5907 19 1555.0625 19 C 1553.8518 19 1543.1458 38.834932 1541.875 43.4375 C 1541.0376 46.470323 1541.4615 47.969761 1545.4688 56.375 C 1547.9605 61.601529 1549.9902 66.693522 1549.9688 67.6875 C 1549.9474 68.681477 1548.3802 71.975 1546.5 75 C 1539.195 86.75333 1536 92.782715 1536 94.78125 C 1536 95.925976 1537.2072 97.804372 1538.6875 98.96875 C 1540.1678 100.13313 1542.2914 100.94321 1543.4062 100.78125 C 1545.0916 100.53642 1550.6669 93.817845 1553.9375 88.09375 C 1554.2365 87.570544 1554.6813 87.271783 1555.3125 87.1875 C 1555.3226 87.186156 1555.3336 87.188728 1555.3438 87.1875 L 1558.4688 82.09375 C 1558.608 81.387204 1558.9018 80.664239 1559.5312 79.96875 C 1559.729 79.750223 1559.8282 79.759242 1560.0312 79.5625 L 1562.7188 75.21875 L 1562.7812 73.5625 z M 1555.375 23 C 1557.3342 23 1561 26.019549 1561 27.625 C 1561 28.449946 1559.425 32.912193 1557.5 37.5625 C 1555.575 42.212807 1554 47.179312 1554 48.59375 C 1554 50.008187 1555.2965 54.401593 1556.875 58.34375 C 1560.6321 67.726615 1561.4788 72.876194 1559.7812 76.03125 C 1559.052 77.386467 1555.3457 83.1125 1551.5625 88.75 C 1547.7794 94.3875 1544.1812 99 1543.5625 99 C 1541.6777 99 1538 95.98325 1538 94.4375 C 1538 93.637467 1539.7383 90.406279 1541.875 87.25 C 1544.0116 84.09372 1547.2111 78.8 1548.9688 75.5 C 1552.88 68.156456 1552.6733 65.217037 1547.5938 54.65625 C 1545.6109 50.533976 1544 46.189989 1544 45 C 1544 42.098169 1553.8748 23 1555.375 23 z "/>
</svg>
