<?xml version="1.0" encoding="UTF-8"?>
<svg xmlns="http://www.w3.org/2000/svg" viewBox="107.61 14.83 34.96 91.23">
  <path d="M 140.03125 32.53125 C 138.88557 31.742504 137.56308 29.80945 136.0625 26.5 C 132.93431 19.600922 131.84937 18.980682 127.1875 21.40625 C 123.59507 23.275392 120.7421 26.539675 117.875 32 C 115.80272 35.946613 115.51561 37.852724 115.53125 47.5 C 115.54553 56.308804 115.98543 59.828214 117.8125 65.15625 L 120.09375 71.8125 L 116.65625 77.1875 C 111.75324 84.852129 109.60722 94.229429 111.59375 99.40625 C 112.55852 101.92041 114.90146 101.25514 115.625 98.25 C 116.55394 94.391711 120.53797 86.618352 122.375 85.09375 C 123.6788 84.011694 124.24243 84.325829 125.96875 87.15625 C 127.089 88.992964 128.25632 92.075 128.5625 94 C 129.27803 98.498547 130.3118 100.42455 132.28125 100.8125 C 135.61677 101.46953 137.15072 87.972513 134.5625 80.71875 C 133.35553 77.336083 133.46957 76.212263 135.5 69.71875 C 136.74381 65.740921 138.3437 58.7875 139.0625 54.25 C 139.56486 51.078818 140.09756 48.848331 140.5625 47.46875 L 140.46875 46.46875 L 140.34375 42.25 C 140.1116 41.817194 140 41.183656 140 40.1875 C 140 39.911074 140.19374 39.602708 140.25 39.3125 L 140.03125 32.53125 z M 130.21875 23 C 131.46202 23 132.70994 24.511272 134.03125 27.59375 C 136.38437 33.083352 136.36479 32.510213 134.4375 34.4375 C 132.06654 36.808465 128.68462 36.315821 125.6875 33.1875 C 124.2096 31.644905 123 29.989809 123 29.5 C 123 27.83099 128.36419 23 130.21875 23 z M 121.625 33.125 C 122.53625 33.291383 123.67719 34.119152 125.0625 35.59375 C 127.41746 38.100481 129.62067 38.376687 135 36.90625 C 136.02307 36.626595 136.59671 37.374708 136.8125 39.25 C 137.06494 41.443871 136.59968 42.201701 134.5 43 C 130.43897 44.543997 128.75694 44.246194 123.6875 41.03125 C 118.91148 38.002391 118.51894 37.394649 119.59375 34.59375 C 120.03185 33.452085 120.71375 32.958617 121.625 33.125 z M 118.25 41.34375 C 118.66626 41.086494 120.30059 41.785169 121.875 42.90625 C 126.5789 46.255727 129.56463 47.05222 133.03125 45.84375 C 134.79902 45.2275 136.5095 45.128576 136.96875 45.625 C 138.27008 47.031648 136.28541 59.79782 133.375 68.84375 C 130.73296 77.055522 130.72035 77.287492 132.34375 82.4375 C 133.25173 85.317937 133.97616 88.767091 133.9375 90.09375 C 133.75216 96.454533 132.42485 96.317582 129.59375 89.65625 C 125.81726 80.770519 124.69415 79.959474 121.03125 83.46875 C 119.4411 84.992213 117.59419 87.539614 116.9375 89.125 C 115.69728 92.11916 114 93.006736 114 90.65625 C 114 87.482551 116.52469 82.169445 120.125 77.8125 C 124.35445 72.694206 124.6854 71.423751 122.59375 68.4375 C 119.41924 63.905255 116.02299 42.720104 118.25 41.34375 z "/>
</svg>
