<?xml version="1.0" encoding="UTF-8"?>
<svg xmlns="http://www.w3.org/2000/svg" viewBox="2322.68 17.1 98.84 90.29">
  <path d="M 2417.0312 44.375 C 2415.6969 39.800651 2414.1112 36 2413.125 36 C 2412.5891 36 2410.8216 37.125 2409.1875 38.5 C 2403.8589 42.983667 2401.9968 41.249164 2404.5938 34.21875 C 2405.554 31.61928 2406.7788 28.919541 2407.3125 28.21875 C 2407.8462 27.517959 2407.9963 26.683834 2407.6562 26.34375 C 2406.8188 25.506334 2404 27.940428 2404 29.5 C 2404 30.187741 2403.1027 32.788387 2402 35.28125 C 2400.8973 37.774114 2400.2652 40.518885 2400.5938 41.375 C 2401.6964 44.248147 2404.8453 44.317202 2408.1562 41.53125 C 2410.3834 39.657173 2411.6095 39.203227 2412.375 39.96875 C 2414.1798 41.773553 2410.1498 48.007536 2406.75 48.6875 C 2403.727 49.29209 2403.1571 49.950962 2397.125 59.53125 C 2391.7122 68.127875 2387.1792 73 2384.5938 73 C 2382.0694 73 2377.4436 69.82964 2373.8125 65.59375 C 2370.8856 62.179337 2369.9273 62.535888 2366.4688 68.4375 L 2363.9375 72.8125 L 2366.5625 77.53125 C 2370.8661 85.239807 2371.2751 87.796273 2368.9375 92.625 C 2366.9082 96.816951 2364.3818 99.6943 2363.5 98.8125 C 2363.2457 98.558157 2363.9021 95.249033 2364.9688 91.4375 L 2366.9062 84.5 L 2362.9062 80.5 L 2358.875 76.5 L 2356.8438 79 C 2355.7162 80.369752 2353.7198 83.595546 2352.4062 86.1875 C 2350.4936 89.961791 2350.2047 91.439337 2351 93.53125 C 2352.313 96.984684 2352.2594 98.012242 2350.75 97.9375 C 2349.3981 97.870554 2343 89.614498 2343 87.9375 C 2343 86.781799 2346.3828 81.811384 2349.75 78.03125 C 2350.9875 76.641979 2352 74.688183 2352 73.65625 C 2352 71.256539 2345.251 62 2343.5 62 C 2341.597 62 2337.3621 67.341422 2336 71.46875 C 2334.765 75.210824 2332.4466 76.165097 2331.6562 73.25 C 2329.6377 65.804608 2330.4713 62.798199 2335.9688 57.53125 C 2338.9831 54.643254 2339.023 54.647941 2342.25 56.34375 C 2344.0382 57.283488 2347.0374 59.168777 2348.9062 60.53125 C 2350.7751 61.893723 2352.7053 63 2353.1875 63 C 2355.6327 63 2356.9138 52.494392 2355.0625 47.625 C 2354.2816 45.571017 2353.3358 45.066508 2349.8125 44.8125 C 2345.5555 44.5056 2345.4847 44.46458 2345.1875 40.40625 C 2344.9303 36.894456 2345.4772 35.573354 2348.9688 31.15625 C 2351.209 28.322059 2353.494 26 2354.0312 26 C 2354.5684 26 2355.3234 25.8875 2355.7188 25.75 C 2356.1142 25.6125 2356.4516 28.405149 2356.4688 31.96875 C 2356.5071 39.943635 2357.771 40.563484 2364.0625 35.5625 C 2369.3816 31.334442 2370 31.236016 2370 34.625 C 2370 36.394913 2368.5531 38.646374 2365.5 41.65625 L 2361 46.09375 L 2361.0938 53.5625 C 2361.1553 57.665272 2361.5584 61.21521 2361.9688 61.46875 C 2362.3789 61.72229 2364.6013 60.316727 2366.9062 58.34375 L 2371.0938 54.75 L 2375.75 59.9375 C 2382.3798 67.335042 2383.5435 67.804657 2387.1875 64.34375 C 2390.3366 61.35292 2393.6898 55.52049 2395.0938 50.625 C 2395.7778 48.23991 2395.4873 47.180174 2393.4688 44.78125 C 2389.9323 40.578433 2389.9866 33.01032 2393.5938 28.28125 C 2395.0243 26.405711 2395.9502 24.637701 2395.6562 24.34375 C 2394.6779 23.365319 2392.9908 25.102739 2390.875 29.25 C 2388.2894 34.318273 2388.5759 43.778637 2391.4062 46.90625 C 2392.6847 48.318881 2392.9972 49.69079 2392.5312 51.8125 C 2391.6315 55.908947 2386.3719 64 2384.5938 64 C 2383.7882 64 2380.9866 61.525 2378.375 58.5 C 2373.1452 52.442303 2370.9073 51.782908 2367.25 55.21875 C 2365.2327 57.113848 2364.7505 57.224705 2363.9062 55.96875 C 2363.3614 55.158163 2363.0875 52.625769 2363.3125 50.34375 C 2363.6195 47.230883 2364.622 45.31548 2367.3125 42.625 C 2371.1899 38.747626 2373.1038 32.697526 2371.0938 30.6875 C 2370.2232 29.817063 2369.5193 29.843527 2368.2188 30.78125 C 2358.5465 37.755152 2357.7741 37.681501 2358.1875 29.78125 C 2358.6068 21.768109 2356.9232 21.208279 2350.4062 27.1875 C 2344.7586 32.369199 2341.734 38.450978 2342.625 42.90625 C 2343.3816 46.68912 2344.2986 47.350145 2348.625 47.1875 C 2350.9556 47.099886 2352.2548 47.634564 2352.9688 48.96875 C 2354.8619 52.506227 2353.9528 59 2351.5625 59 C 2350.8943 59 2348.598 57.665949 2346.4375 56.03125 C 2344.2771 54.396551 2341.6601 53.046551 2340.625 53.03125 C 2334.3835 52.938985 2327.1733 62.844127 2328.4688 69.75 C 2329.4462 74.960243 2331.8597 79.180235 2333.625 78.8125 C 2334.4493 78.640798 2336.1806 75.89529 2337.4688 72.71875 C 2340.0673 66.311373 2341.8062 63.754805 2343.0625 64.53125 C 2343.5209 64.814565 2345.2288 67.013207 2346.8438 69.40625 L 2349.7812 73.75 L 2344.875 81.0625 C 2342.1893 85.088969 2340 88.71252 2340 89.09375 C 2340 89.474981 2341.8 91.962696 2344 94.625 C 2346.2 97.287305 2348 99.853387 2348 100.3125 C 2348 100.77162 2349.2375 100.98653 2350.75 100.8125 C 2352.8959 100.56559 2353.5693 99.919794 2353.8125 97.8125 C 2353.9839 96.3272 2353.6107 94.172323 2353 93.03125 C 2352.094 91.338468 2352.4158 90.027794 2354.625 85.96875 C 2357.5721 80.553969 2358.3854 80.180759 2361.875 82.625 C 2363.8293 83.993863 2364.0967 84.816632 2363.5625 87.875 C 2362.1023 96.236367 2361.829 99.09604 2362.3438 100.4375 C 2363.4399 103.29412 2366.7838 100.77502 2369.875 94.78125 C 2373.6387 87.483699 2373.6724 86.673182 2370.5312 80.46875 C 2366.8937 73.283715 2366.5567 70.717099 2368.9375 68.5625 C 2370.8945 66.791463 2371.043 66.819845 2374.5938 69.9375 C 2376.5986 71.697847 2379.7357 73.847599 2381.5625 74.71875 C 2384.5477 76.142319 2385.1255 76.152722 2387.2188 74.78125 C 2390.4164 72.686022 2395.3719 66.743237 2400.3438 59.03125 C 2402.6382 55.472277 2405.5905 52.01528 2406.9375 51.34375 C 2408.2844 50.672221 2410.603 49.002571 2412.0625 47.625 C 2413.5867 46.186402 2414.4897 45.663729 2415.2188 45.875 L 2415.4688 45.53125 L 2417.0312 44.375 z M 2402.4688 24.28125 C 2402.1647 24.273995 2401.3742 25.076717 2400.0938 26.875 C 2397.0693 31.122372 2395 36.430365 2395 39.96875 C 2395 42.036816 2395.4772 43 2396.5312 43 C 2397.754 43 2397.9539 42.283881 2397.4375 39.53125 C 2396.9111 36.72525 2397.4096 34.940869 2399.9688 30.40625 C 2402.1322 26.572745 2402.9756 24.293342 2402.4688 24.28125 z "/>
</svg>
