<?xml version="1.0" encoding="UTF-8"?>
<svg xmlns="http://www.w3.org/2000/svg" viewBox="1723.6 18.2 112.92 90.33">
  <path d="M 1821.7188 56.9375 C 1820.4678 58.073242 1819.0911 59.021896 1817.4688 59.9375 C 1814.4841 61.621877 1811.5044 63 1810.875 63 C 1810.0558 63 1809.959 60.953508 1810.4688 55.78125 C 1811.1341 49.028369 1811.405 48.336135 1814.9375 45.3125 C 1820.1092 40.885716 1821.6232 37.031809 1820.125 32.03125 C 1818.7713 27.51306 1813.6733 22.752382 1810.625 23.1875 C 1809.0285 23.415386 1808.0369 24.903618 1806.625 29.25 C 1805.3503 33.174153 1804.2389 34.989852 1803.125 34.96875 C 1801.4275 34.936593 1795 27.173224 1795 25.15625 C 1795 22.949271 1791.9371 24.015567 1790.9688 26.5625 C 1788.7139 32.493175 1790.5157 38.641931 1796.25 44.6875 C 1799.0635 47.653699 1799.2236 48.253711 1798.8125 53.9375 C 1798.5703 57.285807 1797.9518 60.418804 1797.4375 60.90625 C 1796.886 61.42896 1793.1055 60.420907 1788.2188 58.4375 C 1779.3594 54.84172 1778.4353 54.876092 1772.5 58.9375 C 1770.85 60.066562 1768.7332 60.996376 1767.7812 61 C 1763.7242 61.015443 1764.238 47.877648 1768.5 42.8125 C 1773.9562 36.328177 1776.8027 27.239528 1773.9375 25.46875 C 1773.3599 25.111802 1770.645 26.907055 1767.9062 29.46875 C 1761.5656 35.399638 1759.381 35.242919 1759.7812 28.84375 C 1760.1207 23.417384 1758.6032 22.308988 1753.6875 24.375 C 1749.49 26.139175 1742.3869 33.934026 1741.5625 37.6875 C 1740.1889 43.941188 1744.9403 49.420571 1751.1875 48.8125 L 1754.5 48.5 L 1754.8125 53.875 C 1755.2836 62.137859 1754.9775 62.406121 1748.4062 59.5 C 1745.2958 58.124403 1742.2112 57 1741.5625 57 C 1739.6717 57 1734.2278 63.182444 1732.5312 67.25 C 1729.9869 73.350361 1728.7324 85.168715 1729.9375 91.6875 C 1730.8992 96.889536 1734.0114 102 1736.1875 102 C 1736.6416 102 1736.9934 98.0625 1737 93.25 C 1737.0169 80.753794 1740.3027 69.513639 1743.7188 70.1875 C 1745.142 70.46826 1753 82.13983 1753 83.96875 C 1753 84.387899 1751.65 86.423745 1750 88.5 C 1746.8193 92.502337 1746.0642 97.391064 1748.0625 101.125 C 1748.9168 102.72118 1749.4204 102.8854 1750.5625 101.9375 C 1751.3492 101.28465 1752 100.18349 1752 99.5 C 1752 97.212655 1756.1133 93 1758.3438 93 C 1760.5672 93 1762.9198 95.07764 1764.9688 98.90625 C 1766.2876 101.3705 1768.829 101.64367 1769.6875 99.40625 C 1770.9944 96.000735 1770.5021 93.272361 1767.5938 87.5 C 1765.2773 82.902163 1764.4792 81.988152 1764.2188 83.625 C 1764.0317 84.799813 1764.8096 87.274813 1765.9375 89.125 C 1768.0177 92.53704 1768.6406 96 1767.1875 96 C 1766.7492 96 1765.2867 94.657959 1763.9375 93.03125 C 1760.6385 89.053696 1757.6167 89.195816 1753.3125 93.5 C 1749.2357 97.576755 1749 97.651899 1749 95 C 1749 93.901584 1750.575 91.255745 1752.5 89.125 C 1754.425 86.994255 1756 84.724683 1756 84.0625 C 1756 82.438868 1748.0276 68.801924 1746.1875 67.28125 C 1742.0481 63.86026 1735.9497 74.562035 1735.0938 86.71875 C 1734.4868 95.339564 1733.0409 97.56013 1731.7812 91.8125 C 1730.9544 88.040057 1731.6662 76.634978 1733.0312 71.875 C 1734.2842 67.506433 1738.8077 61.202715 1741.2188 60.4375 C 1742.426 60.054327 1745.1288 60.819333 1748.1875 62.40625 C 1753.9828 65.412983 1755.5668 65.593761 1756.4062 63.40625 C 1757.3978 60.822121 1757.0854 45.182699 1756.0312 44.53125 C 1755.4968 44.200932 1753.9261 44.637781 1752.5625 45.53125 C 1751.1736 46.441318 1749.2438 46.907696 1748.1562 46.5625 C 1745.6554 45.768733 1743.5856 40.769799 1744.4062 37.5 C 1745.3789 33.624622 1751.8293 27 1754.625 27 C 1756.7858 27 1757 27.423428 1757 31.53125 C 1757 34.660486 1757.483 36.253996 1758.5312 36.65625 C 1760.6053 37.452125 1765.3102 35.336 1768.0625 32.40625 C 1773.7921 26.307452 1773.3147 32.298609 1767.5 39.4375 L 1763 44.96875 L 1763 53.875 C 1763 65.611431 1763.6204 66.101833 1772.4688 61.40625 L 1779.25 57.8125 L 1784.875 60 C 1799.6058 65.725859 1799.0681 65.76771 1800.9375 58.34375 C 1802.7349 51.205581 1801.4033 45.106594 1797.2812 41.5 C 1794.7024 39.243765 1793.734 37.446333 1793.3125 34.25 C 1793.0042 31.9125 1793.0262 30 1793.375 30 C 1793.7239 30 1795.6445 31.835795 1797.6562 34.0625 C 1802.5964 39.530699 1804.8639 39.110167 1807.5938 32.25 C 1808.743 29.361877 1809.9636 26.723879 1810.3125 26.375 C 1811.5164 25.171099 1816.1665 29.165558 1817.625 32.65625 C 1818.9556 35.840796 1818.93 36.458663 1817.25 39.34375 C 1816.2342 41.088083 1814.451 42.641982 1813.2812 42.8125 C 1810.0396 43.285066 1809.2737 44.8208 1808.0938 53.3125 C 1806.0683 67.890349 1806.9057 69.180538 1815.125 63.90625 L 1820.2812 60.625 L 1822.6562 63.5625 C 1826.0984 67.833421 1827.5039 73.397472 1827.4688 82.65625 C 1827.4395 90.36805 1825.9146 96 1823.8438 96 C 1823.3868 96 1823.0031 93.1875 1823 89.75 C 1822.9907 79.316999 1819.2321 70 1815.0312 70 C 1813.0894 70 1804.4616 78.936435 1802.7188 82.75 C 1801.9179 84.502296 1802.0773 85.403223 1803.4375 86.90625 C 1805.3771 89.049541 1806.8241 97 1805.2812 97 C 1804.747 97 1803.8177 95.8831 1803.1875 94.5 C 1802.5574 93.116899 1800.9008 91.467736 1799.5312 90.84375 C 1797.4047 89.874833 1796.4501 90.081207 1793.0312 92.34375 C 1790.8295 93.800837 1788.818 95 1788.5312 95 C 1786.8006 95 1788.4235 88.742133 1791 85.5 C 1792.65 83.423745 1794 81.476221 1794 81.1875 C 1794 80.898778 1792.6262 78.506621 1790.9375 75.875 C 1787.5836 70.648284 1780.7279 64 1778.7188 64 C 1776.3782 64 1765 75.431127 1765 77.78125 C 1765 80.912288 1766.6632 80.52073 1768.5 76.96875 C 1770.1297 73.817298 1777.3595 68 1779.625 68 C 1781.3642 68 1785.468 72.484739 1788.5938 77.78125 L 1791.125 82.0625 L 1788.6875 84.96875 C 1785.7637 88.443595 1784.5702 93.778658 1785.9375 97.375 C 1787.2668 100.87136 1790.0939 100.71937 1792.8438 97 C 1796.2998 92.325482 1799.5949 92.878728 1802.0312 98.5625 C 1804.5452 104.42738 1807.1016 104.31754 1808.375 98.28125 C 1809.0325 95.164198 1808.8397 92.838852 1807.625 89.125 C 1806.7277 86.381579 1806 83.645072 1806 83.0625 C 1806 81.161562 1813.1875 74 1815.0938 74 C 1818.3306 74 1820.3545 79.607249 1820.625 89.375 C 1820.9734 101.9517 1823.1077 103.25953 1827.5938 93.625 C 1831.3874 85.47731 1830.5366 70.639294 1825.8438 63.125 C 1825.2246 62.133487 1825.1629 61.215737 1825.3438 60.34375 L 1821.7188 56.9375 z "/>
</svg>
