<?xml version="1.0" encoding="UTF-8"?>
<svg xmlns="http://www.w3.org/2000/svg" viewBox="646.73 13.83 83.55 93.01">
  <path d="M 651.34375,49.78125 651.0625,54.15625 C 651.97278,54.139402 653.63033,54.924331 656.59375,56.5 659.17977,57.875 661.96733,59 662.78125,59 663.59517,59 665.99426,57.425 668.125,55.5 670.25574,53.575 672.51103,52 673.125,52 673.73897,52 676.83111,53.575 680,55.5 683.16889,57.425 686.24087,59 686.84375,59 687.44662,59 688.72007,57.835045 689.65625,56.40625 691.59736,53.443742 691.8411,42.334324 690.0625,37.65625 688.05723,32.381998 688.72744,28.421359 692.125,25.5625 693.84424,24.115855 695.69671,23.06557 696.25,23.25 696.80329,23.434429 698.62608,25.465114 700.28125,27.75 L 703.28125,31.90625 701.0625,42.5 C 699.29218,50.895319 699.06869,53.371434 700.03125,54.53125 701.39887,56.179134 704.13378,56.461126 705.5625,55.09375 706.45312,54.241371 716.42025,51 718.15625,51 721.14897,51 723.11997,62.943763 721.03125,68.4375 719.52643,72.395482 718,71.490484 718,66.625 718,63.804624 717.31315,61.380896 716.09375,59.875 L 714.21875,57.53125 707.375,61.09375 C 700.9171,64.459839 700.40167,64.974709 698.5,70.21875 697.39242,73.272973 694.8125,77.610084 692.75,79.875 688.4336,84.615012 687.79114,89.278007 690.90625,93.125 692.65547,95.285199 693.10586,95.389383 696.90625,94.375 699.17478,93.769495 701.25065,93.596534 701.5,94 702.29287,95.282883 698.63409,97.794863 695,98.46875 692.08295,99.009675 690.77875,98.627322 687.28125,96.09375 L 683.0625,93.03125 680.28125,95.4375 C 677.36759,97.945307 677.58852,99.900561 680.59375,98.21875 681.87602,97.501153 683.51304,97.870661 686.8125,99.625 692.17658,102.47711 695.557,102.61199 699.28125,100.15625 705.61268,95.981349 709.51377,87 705,87 703.9,87 703,87.381783 703,87.84375 703,89.090453 695.38608,91.356021 693.5625,90.65625 690.90082,89.634866 691.81429,85.49069 695.8125,80.375 697.91048,77.690655 700.17968,73.616529 700.84375,71.3125 701.86851,67.757068 702.87601,66.636719 707.59375,63.9375 711.20558,61.871021 713.49129,61.116291 714.125,61.75 715.41694,63.041937 715.86264,71.876345 714.78125,74.9375 712.37424,81.751167 717.21913,80.698113 721.4375,73.5 726.48377,64.8892 724.53141,49.096443 718.3125,48.1875 717.17211,48.020823 713.45963,48.824339 710.0625,49.96875 703.86909,52.055161 701.77842,51.990582 702.46875,49.71875 702.6723,49.048864 703.60792,45.0125 704.5625,40.75 L 706.3125,33 710,33 C 718.24653,33 722.55204,24.421937 715.75,21.53125 712.76492,20.262672 712.14424,20.331098 708.125,22.5625 702.64616,25.604234 701.62927,25.604213 699.1875,22.5 696.68647,19.320451 696.08124,19.359285 691.5,23 689.42374,24.65 687.26396,26 686.71875,26 686.17353,26 684.00574,24.425 681.875,22.5 677.53483,18.578913 674.57187,18.058828 673.03125,20.9375 671.69328,23.43752 671.71316,28.572475 673.0625,31.09375 673.99756,32.840915 674.79321,33.012439 679.875,32.4375 L 685.625,31.78125 686.75,35.65625 C 688.90173,42.979893 689.31724,51.304392 687.625,53.5 686.10098,55.477334 685.99317,55.470411 679.90625,52.21875 L 673.75,48.9375 668.4375,52.59375 C 662.39837,56.753058 660.58127,56.706976 654.65625,52.28125 L 651.34375,49.78125 z M 676.78125,23 C 677.81917,22.908489 679.15042,23.525137 680.34375,24.84375 682.15084,26.840557 682.54813,29 681.09375,29 680.58873,29 679.56047,29.24423 678.8125,29.53125 676.94954,30.246136 675,28.095183 675,25.3125 675,23.888673 675.74333,23.091511 676.78125,23 z M 712.5625,23.59375 C 713.0726,23.644287 713.55511,23.761902 714,24 716.25608,25.207417 716.57816,27.046835 714.8125,28.8125 713.53677,30.088233 707.77497,30.46247 706.65625,29.34375 704.38082,27.06832 708.99183,23.239991 712.5625,23.59375 z M 650.8125,58.6875 650.53125,63.4375 650.59375,63.875 C 650.59708,63.870581 650.59041,63.753339 650.59375,63.75 650.91923,63.424518 653.21738,64.003685 655.6875,65.0625 661.6207,67.605765 662.41011,67.539087 667.46875,63.90625 L 671.78125,60.8125 675.4375,62.53125 C 677.434,63.47865 679.94621,65.370594 681.03125,66.75 683.43964,69.811778 683.73878,76.7659 681.5,77.625 679.08966,78.549935 675.02429,77.125065 672.5625,74.46875 668.72952,70.332898 667,71.693534 667,78.875 667,81.534837 667.84478,83.546364 669.96875,86.03125 673.1686,89.774828 673.6694,91.924344 671.8125,93.78125 670.24268,95.351064 671.69025,96.697372 673.625,95.46875 674.46047,94.938204 675.88684,93.236248 676.8125,91.6875 678.41988,88.998115 678.41014,88.794514 676.5,87.46875 672.84509,84.932001 671,82.681957 671,80.71875 671,79.148415 671.4303,78.921407 673.25,79.53125 674.4875,79.945977 677.2653,80.313081 679.4375,80.375 683.10883,80.479654 683.49261,80.227237 684.8125,76.78125 687.57683,69.564131 684.38535,63.056688 676.375,59.59375 671.88599,57.653111 670.05461,58.082042 666.59375,61.90625 664.10209,64.659508 661.01749,64.533879 654.96875,61.46875 652.75651,60.347722 651.52147,59.535165 650.8125,58.6875 z"/>
</svg>
