<?xml version="1.0" encoding="UTF-8"?>
<svg xmlns="http://www.w3.org/2000/svg" viewBox="479.66 19.13 20.6 85.06">
  <path d="M 483.5625 52.40625 L 483.0625 56.71875 C 483.29926 56.670334 483.86818 56.425909 483.9375 56.46875 C 484.90951 57.069487 484.00172 63 482.9375 63 C 482.87918 63 482.39595 63.334732 482.28125 63.375 L 481.78125 67.6875 L 481.65625 67.90625 C 483.02751 69.085105 482.968 73.399018 482.5 83.0625 C 481.81163 97.276334 481.84499 97.853273 483.8125 98.90625 C 486.1834 100.17512 490.95433 100.32792 492.75 99.1875 C 495.74075 97.288097 497.80096 83.877574 498.03125 64.96875 C 498.26056 46.14058 496.42619 23 494.6875 23 C 494.11433 23 493.9792 25.301112 494.375 28.75 C 495.88178 41.879809 496.26143 67.850267 495.09375 79.15625 C 493.43657 95.201835 493.02925 96.431087 489.4375 96.75 C 484.18585 97.216297 483.87591 96.457983 484.9375 84.9375 C 487.42678 57.923469 488.13306 44.432692 487.46875 35.0625 C 487.0751 29.50996 486.35331 24.701861 485.875 24.40625 C 485.39669 24.110639 485 29.781383 485 37 C 485 44.278467 484.52149 51.002551 483.9375 52.09375 C 483.8981 52.167362 483.63225 52.320122 483.5625 52.40625 z "/>
</svg>
