<?xml version="1.0" encoding="UTF-8"?>
<svg xmlns="http://www.w3.org/2000/svg" viewBox="1259.34 16.23 36.79 61.05">
  <path d="M 1266.2188,74.5 C 1270.4217,73.32298 1273.8399,69.385974 1278.2188,62.0625 1279.722,59.548596 1280.9595,56.34 1280.9688,54.9375 1280.9782,53.535 1281.3993,51.96 1281.9062,51.4375 1282.4132,50.915 1283.2449,48.925 1283.75,47 1284.4754,44.235165 1285.1375,43.561825 1286.8438,43.75 1290.1387,44.113383 1289.2965,41.907618 1284.5,37.6875 L 1280.1562,33.90625 1274.5938,37.03125 C 1269.0552,40.156968 1267.106,42.722154 1271.0625,41.6875 1274.1024,40.89253 1274.5664,43.370083 1272.5625,49.84375 1270.5339,56.396757 1265.0375,62.771597 1261.3438,62.9375 L 1262.5,65.75 C 1264.1324,65.141037 1265.8349,63.718605 1267.9375,61.4375 1272.9291,56.022235 1274.8284,51.851647 1275.7812,44.1875 1276.3674,39.474033 1276.8601,38.435308 1278.5938,38.1875 1282.504,37.628549 1283.036,39.939881 1280.875,48.03125 1278.5719,56.654751 1273.1437,66.948422 1269.3438,69.9375 1268.0521,70.953525 1266.6111,71.481999 1265.0625,71.75 L 1266.2188,74.5 z M 1281.7188,19 C 1279.5207,19 1269,24.868287 1269,26.09375 1269,27.422849 1269.4322,27.299667 1275.5312,24 1281.6197,20.706006 1282.4975,20.818973 1288.3125,25.65625 1291.3455,28.179241 1292.5704,28.528026 1293.4375,27.125 1294.1372,25.992907 1284.0513,19 1281.7188,19 z M 1281.0312,27 C 1279.0702,27 1267.618,33.372637 1268.8438,33.78125 1269.4935,33.997853 1272.3086,33.028489 1275.125,31.625 L 1280.25,29.0625 1284.375,32 C 1288.6029,34.996551 1291,35.744672 1291,34.0625 1291,32.931625 1282.6311,27 1281.0312,27 z"/>
</svg>
