<?xml version="1.0" encoding="UTF-8"?>
<svg xmlns="http://www.w3.org/2000/svg" viewBox="572.21 14.24 19.01 90.09">
  <path d="M 574.71875 49.65625 L 574.84375 53.75 C 575.08609 54.058197 575.31927 54.430565 575.5 55 C 576.10426 56.903865 575.8171 58.543756 575.0625 59.5 L 575.125 61.53125 L 575.0625 62.03125 L 576.09375 61.8125 L 575.53125 72.15625 C 575.21515 77.843737 574.72887 85.65 574.46875 89.5 C 574.20863 93.35 574.33991 97.022673 574.75 97.65625 C 575.1601 98.289827 577.64584 99.136443 580.28125 99.53125 C 584.97701 100.23471 585.09597 100.18236 586.25 97.125 C 586.76529 95.759846 587.28644 95.039287 587.90625 94.625 L 587.84375 94.0625 L 588.40625 88.40625 C 588.33094 88.264663 588 88.013199 588 87.90625 C 588 87.004878 588.2788 86.429266 588.65625 86 L 589.21875 80.1875 L 588.5 79.5 L 588.5 50.8125 C 588.5 31.494896 588.13746 21.764487 587.40625 21.03125 C 586.80878 20.43212 584.69787 19.669989 582.6875 19.34375 C 576.45954 18.333092 576 19.355423 576 35.03125 L 576 48.84375 L 574.71875 49.65625 z M 580.1875 22.15625 C 580.90647 22.104452 581.79369 22.237212 582.8125 22.59375 C 585.33983 23.478208 585.53028 24.003715 586 31.03125 C 586.55797 39.379113 585.35285 88.676536 584.46875 93.75 C 583.90247 96.999655 582.9742 97.414326 578.78125 96.3125 C 577.21092 95.899847 577.10072 94.056365 577.53125 74.1875 C 577.78968 62.26149 578.20953 47.775 578.46875 42 C 578.72798 36.225 578.56974 29.827515 578.09375 27.78125 C 577.27381 24.256386 578.03059 22.311644 580.1875 22.15625 z "/>
</svg>
