<?xml version="1.0" encoding="UTF-8"?>
<svg xmlns="http://www.w3.org/2000/svg" viewBox="0.2 16.47 105.52 96.25">
  <path d="M5.0 75.533927C5.0 74.25929 8.4771318 68.0 9.1852123 68.0C10.418089 68.0 10.168388 69.773694 8.4743199 73.04966C7.187145 75.538782 5.0 77.102671 5.0 75.533927Z M5.627899 102.20694C5.299089 101.67492 7.6404828 97.24821 10.830996 92.369813C14.02151 87.491416 18.353707 80.6875 20.458101 77.25C23.743245 71.883761 26.0 69.562486 26.0 71.54966C26.0 72.372611 22.927546 78.15349 20.977282 81.0C20.035211 82.375 16.660416 87.55 13.477737 92.5C6.5996098 103.19751 6.3958355 103.44949 5.627899 102.20694Z M7.0164504 38.75C7.0254982 38.0625 8.0379982 35.857589 9.2664504 33.850199C10.494903 31.842808 12.625 28.358774 14.0 26.107901C15.375 23.857028 16.8375 22.011938 17.25 22.007702C18.724279 21.992562 17.958914 24.781449 15.490606 28.418705C14.110439 30.452495 12.076293 33.890291 10.970282 36.058252C9.0141097 39.892667 6.9832168 41.275288 7.0164504 38.75Z M28.453204 53.695736C26.777466 53.038081 23.852466 51.524938 21.953204 50.333196C17.898127 47.78873 13.685767 48.182843 11.494194 51.311752C10.697688 52.448923 9.7282871 53.06162 9.3399688 52.673302C8.9516505 52.284984 9.5482921 50.737133 10.665839 49.233634C13.571172 45.324926 17.558271 45.243427 24.886974 48.942944C28.21777 50.624325 31.825475 52.0 32.904096 52.0C35.51385 52.0 36.41208 48.778644 34.997488 44.49239C33.047018 38.582408 34.405459 36.871958 36.853289 42.155701C38.772698 46.298824 38.871982 47.234646 37.755081 50.655701C36.343687 54.978784 33.822226 55.802847 28.453204 53.695736Z M27.0 102.45034C27.0 101.48712 29.713135 96.61015 33.164068 91.370174C35.003944 88.576464 37.843064 83.300294 39.473224 79.645351C42.351367 73.192334 44.0 71.347184 44.0 74.578981C44.0 77.563382 29.552898 103.0 27.857864 103.0C27.386039 103.0 27.0 102.75265 27.0 102.45034Z M27.62838 35.207724C27.008071 34.204043 36.642258 21.0 37.994892 21.0C39.835848 21.0 39.041181 22.647339 33.966477 29.350869C28.749499 36.242339 28.442905 36.525653 27.62838 35.207724Z M44.0 102.8606C44.0 102.23393 45.421179 99.421428 47.158175 96.610599C48.895172 93.799769 51.663841 89.025 53.310773 86.0C57.056767 79.119551 60.079101 74.745767 60.675474 75.342141C61.451753 76.11842 54.905632 89.073209 48.089406 100.25C45.843599 103.93252 44.0 105.10944 44.0 102.8606Z M45.070285 51.25C45.161842 43.759805 46.828838 39.381819 46.929715 46.366631C46.995839 50.94513 47.133213 51.191219 49.25 50.523142C55.196683 48.646313 57.074787 48.783719 61.002537 51.382981C66.118469 54.768545 67.38906 54.682261 70.323628 50.75C75.203156 44.211533 75.443118 43.133153 72.989845 38.768142C71.244119 35.662042 70.867195 33.733932 71.242387 29.829233C71.705158 25.01308 74.182191 20.848858 75.688336 22.355002C76.093111 22.759777 75.878825 23.964386 75.212145 25.03191C73.359018 27.999238 73.746384 34.853572 75.970591 38.452416L77.941183 41.6409L75.675157 45.877497C71.935962 52.868351 68.162309 57.0 65.516385 57.0C64.197292 57.0 62.856283 56.576478 62.536366 56.058841C62.216448 55.541203 59.963956 54.123457 57.530827 52.908294L53.106957 50.698906L49.518682 53.849453C47.545131 55.582254 45.721066 57.0 45.465204 57.0C45.209342 57.0 45.031628 54.4125 45.070285 51.25Z M46.0 33.236652C46.0 31.84748 53.034254 22.0 54.026567 22.0C56.035571 22.0 54.879982 25.309872 51.379538 29.581703C48.013623 33.689358 46.0 35.057448 46.0 33.236652Z M67.0 67.273227C66.175 67.000659 63.824488 65.649785 61.776641 64.271286C58.615315 62.143252 57.369995 61.867388 53.526641 62.443734C48.640483 63.176459 47.430161 61.91052 51.125866 59.932639C55.048293 57.833419 59.74879 58.385143 62.793469 61.302131C64.342252 62.785959 66.535735 64.0 67.667877 64.0C71.083765 64.0 79.988491 53.46353 84.993117 43.5C85.963858 41.567385 87.389488 40.39625 89.0 40.208401C93.279616 39.709227 96.0 37.820036 96.0 35.347199C96.0 33.062177 95.956084 33.053299 92.590894 34.658047C88.220529 36.742129 86.0 35.895695 86.0 32.145692C86.0 28.017451 89.448035 21.540833 91.101722 22.562868C91.659859 22.907815 91.210051 24.542096 90.032624 26.447214C87.753951 30.134183 87.352669 34.003412 89.25 33.993411C89.9375 33.989787 91.829097 33.110705 93.453549 32.039896C95.623223 30.609687 96.751177 30.378532 97.703549 31.16893C100.92732 33.844426 97.243386 40.118569 90.976302 42.626159C88.591329 43.580436 86.759935 45.165355 86.043431 46.895148C85.416655 48.408319 82.549956 52.970816 79.672988 57.03403C74.41854 64.45502 69.789706 68.194907 67.0 67.273227Z M64.0 102.56239C64.0 101.72683 75.858801 80.466582 79.652984 74.5C81.751472 71.2 84.58685 66.3625 85.953822 63.75C87.320795 61.1375 88.788567 59.0 89.215538 59.0C90.366529 59.0 86.618891 68.309028 83.348013 73.574764C80.209506 78.627399 71.027729 94.640681 68.339523 99.75C67.399052 101.5375 66.037921 103.0 65.314788 103.0C64.591654 103.0 64.0 102.80308 64.0 102.56239Z M80.160081 35.760081C77.795434 33.395434 80.129992 23.0 83.02568 23.0C84.388724 23.0 84.242264 24.306866 82.506161 27.635693C80.731867 31.037747 80.603187 33.203187 82.087132 34.687132C82.727681 35.327681 82.793441 36.009627 82.247214 36.347214C81.737336 36.662336 80.798126 36.398126 80.160081 35.760081Z M82.517282 103.94555C82.875913 102.8156 85.311875 98.653102 87.930531 94.69555C90.549187 90.737997 93.729392 85.25 94.997654 82.5C96.473035 79.300899 97.448604 78.094967 97.706217 79.151862C98.302034 81.596297 95.658322 87.250761 89.283963 97.16567C83.854973 105.61012 81.118869 108.35156 82.517282 103.94555Z"/>
</svg>
