<?xml version="1.0" encoding="UTF-8"?>
<svg xmlns="http://www.w3.org/2000/svg" viewBox="1378.04 11.2 62.43 89.12">
  <path d="M1386.5842 95.136213C1386.3203 94.709171 1385.0966 91.29019 1383.865 87.538475C1381.3945 80.012601 1381.1151 81.502507 1386.8441 71.653116C1388.4901 68.823258 1388.4772 68.786418 1384.6875 65.493142L1380.8751 62.180052L1383.3595 57.277212C1384.726 54.58065 1386.5541 51.785038 1387.422 51.064741C1389.2129 49.578422 1390.6275 50.379343 1394.814 55.25C1396.1141 56.7625 1397.8788 58.0 1398.7356 58.0C1400.0612 58.0 1400.2008 56.903694 1399.672 50.64752C1398.8201 40.569484 1398.5148 40.0 1393.9644 40.0C1387.7784 40.0 1385.514 36.038609 1387.985 29.539474C1389.3464 25.958797 1391.4355 25.441687 1396.0795 27.535866L1400.0515 29.326981L1403.215 26.091325C1404.9549 24.311714 1407.7558 22.149516 1409.4392 21.286439C1411.1226 20.423363 1413.5732 18.880838 1414.8849 17.858605C1418.2251 15.255432 1419.5283 15.544793 1417.615 18.464817C1416.7268 19.820466 1416.0 21.342982 1416.0 21.848185C1416.0 23.564075 1420.4266 23.933656 1423.3731 22.463767C1427.4388 20.43554 1427.7109 20.614423 1424.9806 23.52061C1422.7662 25.877822 1422.7212 26.14976 1424.287 27.715597C1425.8529 29.281434 1426.2214 29.243855 1429.972 27.135898C1433.0802 25.388972 1433.848 25.232605 1433.3843 26.440911C1433.0552 27.29841 1432.2143 28.0 1431.5155 28.0C1430.8166 28.0 1429.6523 28.714066 1428.928 29.586814C1427.7947 30.952344 1428.1959 31.713735 1431.8055 35.046689C1434.1125 37.176872 1436.0 39.387806 1436.0 39.959875C1436.0 41.490417 1435.3583 41.253729 1432.7198 38.75C1421.1907 27.80974 1414.3923 23.433733 1410.4588 24.420986C1409.0787 24.767361 1406.113 26.709952 1403.8684 28.737853L1399.7872 32.424947L1400.392 39.462473C1402.1286 59.672711 1402.2306 62.739434 1401.1879 63.383878C1400.5958 63.74979 1397.9489 62.01363 1395.3057 59.525745C1392.6626 57.03786 1389.8727 55.114296 1389.106 55.251159C1388.3393 55.388021 1386.7643 56.771451 1385.606 58.325446L1383.5 61.150892L1387.1385 64.325446C1392.2008 68.742336 1407.5797 78.0 1409.8547 78.0C1411.9598 78.0 1427.0 62.794186 1427.0 60.665948C1427.0 59.162002 1423.863 55.984284 1422.4213 56.02782C1421.9146 56.043121 1419.7267 57.397323 1417.5593 59.037157C1415.392 60.676992 1413.3157 61.676973 1412.9453 61.259338C1411.6598 59.809724 1410.0 51.085486 1410.0056 45.80718C1410.0117 40.01594 1411.5126 33.41925 1413.0389 32.475986C1414.8287 31.369818 1433.4217 43.508631 1432.4201 45.12936C1432.1118 45.628126 1430.4325 45.01556 1428.6882 43.768103C1424.0727 40.46718 1414.8882 35.0 1413.9583 35.0C1411.9082 35.0 1411.0967 49.607687 1412.8889 54.25C1414.206 57.661957 1415.962 57.733792 1419.0 54.5C1420.2917 53.125 1421.6856 52.0 1422.0974 52.0C1423.7879 52.0 1428.998 58.3106 1428.9722 60.326923C1428.9569 61.522115 1427.6069 63.8125 1425.9722 65.416667C1423.0397 68.294377 1422.1404 71.350705 1423.9052 72.441438C1424.4031 72.749148 1425.9939 75.020242 1427.4403 77.488314L1430.0701 81.975719L1427.535 87.334351C1426.1408 90.281598 1425.0 93.212062 1425.0 93.846491C1425.0 94.480921 1424.302 95.0 1423.449 95.0C1421.5369 95.0 1418.6551 88.426794 1419.3695 85.694851C1420.0385 83.13685 1417.4147 78.0 1415.4391 78.0C1414.6089 78.0 1412.7916 78.745645 1411.4007 79.65699C1408.9715 81.248712 1408.6407 81.189886 1403.0033 78.163564L1397.1348 75.013149L1395.1243 77.569057C1392.4983 80.907575 1390.659 86.587939 1391.3493 89.227737C1391.6507 90.380322 1391.4829 92.097651 1390.9764 93.044024C1389.9151 95.027175 1387.2897 96.277746 1386.5842 95.136213Z M1389.6736 87.620354C1389.2103 84.180307 1389.6227 82.713691 1392.1715 78.737633C1394.6663 74.845853 1394.9987 73.703319 1393.9897 72.487633C1391.9816 70.068008 1390.194 70.749538 1387.0063 75.150038C1383.6353 79.803514 1383.4116 81.288527 1385.3524 86.127876C1386.0962 87.982544 1386.993 90.316022 1387.3453 91.313382C1388.5303 94.667854 1390.2545 91.933044 1389.6736 87.620354Z M1396.8031 33.871737C1397.0705 30.670636 1396.7944 30.165207 1394.4575 29.578678C1391.2298 28.768576 1389.0 30.400434 1389.0 33.572755C1389.0 36.19797 1391.509 38.098993 1394.5 37.740029C1396.0212 37.557459 1396.5726 36.631454 1396.8031 33.871737Z M1425.4433 87.777494C1427.651 84.625622 1427.3797 81.561779 1424.4875 76.980128C1420.4314 70.55497 1416.1469 72.194024 1419.9866 78.701917C1421.2958 80.920788 1421.9117 83.21558 1421.5669 84.589542C1420.9434 87.073758 1421.7457 90.0 1423.0503 90.0C1423.5103 90.0 1424.5871 88.999872 1425.4433 87.777494Z M1434.427 31.478529C1436.4821 29.923769 1437.6305 30.170889 1436.5411 31.933469C1436.1786 32.520061 1435.121 32.985688 1434.191 32.968197C1432.7063 32.940274 1432.7351 32.758504 1434.427 31.478529Z"/>
</svg>
