<?xml version="1.0" encoding="UTF-8"?>
<svg xmlns="http://www.w3.org/2000/svg" viewBox="770.62 16.74 65.74 87.96">
  <path d="M 833.375 52.15625 C 830.65648 53.445219 828.09937 52.847588 824.4375 49.9375 C 820.32367 46.668238 817.21671 46.591787 813.78125 49.6875 C 810.73144 52.43569 809 50.632873 809 44.6875 C 809 41.727311 809.48601 37.868357 810.09375 36.125 C 811.17971 33.009807 811.3002 32.957863 816.09375 33.59375 C 822.36269 34.425355 826 32.360295 826 27.96875 C 826 24.937139 823.01887 20.978457 820.75 21 C 820.0625 21.006528 817.21529 21.627008 814.40625 22.375 C 809.90326 23.574059 808.96135 23.542613 806.625 22.125 C 804.45898 20.81074 803.62885 20.739691 802 21.75 C 800.90399 22.42981 799.12321 23.529734 798.0625 24.1875 C 796.50335 25.154357 795.49771 25.038824 792.8125 23.59375 C 788.15438 21.086934 783.86608 21.794313 782.1875 25.3125 C 781.03742 27.722979 781.05898 28.458616 782.4375 30.5625 C 784.27324 33.364184 787.1907 33.666006 791.34375 31.5 C 792.91349 30.681307 794.66873 30.285064 795.21875 30.625 C 796.90028 31.664242 799.95995 39.320204 799.96875 42.5 C 799.98949 49.986918 797.58424 51.833868 792.75 48.03125 C 788.21691 44.465525 784.97271 43.707226 782.75 45.71875 C 776.50882 51.366941 773.60791 62.026094 776.6875 68 C 779.09308 72.666417 781.19306 72.499144 782.21875 67.5625 C 783.32886 62.219473 787.57046 56.789829 790.3125 57.1875 C 791.57951 57.371251 793.61705 59.40149 795.375 62.25 L 798.3125 67.03125 L 796.4375 70.5 C 795.40429 72.418557 794.22382 74 793.84375 74 C 793.46368 74 792.23861 75.522581 791.09375 77.375 C 788.87561 80.964031 788.35085 85.461458 790.03125 86.5 C 790.5917 86.846383 792.15744 89.351423 793.53125 92.0625 C 797.908 100.69959 802.15108 97.944886 801.3125 87 C 800.98193 82.685492 801.33645 80.799482 802.9375 78.25 C 804.06004 76.4625 805.55442 74.995764 806.25 75 C 806.94559 75.004236 808.50559 76.789522 809.75 78.96875 C 811.98234 82.878075 812.00561 83.022626 810.34375 89 C 809.11454 93.421226 808.9439 95.350149 809.75 96.15625 C 811.7608 98.167046 813.80599 96.214113 817.65625 88.53125 L 821.46875 80.9375 L 819.21875 74.71875 C 816.70005 67.695078 816.46153 63.311845 818.40625 60.75 C 820.19324 58.395934 821.20467 58.539742 824.5 61.59375 C 826.75066 63.679598 828.92645 64.169548 832.625 63.4375 L 832.8125 60.40625 C 830.01453 61.467922 827.22311 60.719596 824.65625 58 C 823.09891 56.35 821.46333 55 821 55 C 820.53666 55 818.72864 56.6875 817 58.75 C 814.24754 62.034064 813.92329 63.02526 814.40625 66.75 C 814.70956 69.089259 815.85847 72.79242 816.96875 74.96875 C 818.07903 77.145079 819 79.634805 819 80.5 C 819 82.098206 814.59759 91.487665 812.78125 93.75 C 810.84489 96.161829 810.13569 93.88777 811.5625 89.84375 C 812.35807 87.58887 813 84.511577 813 83 C 813 80.223087 808.46163 71 807.09375 71 C 805.57344 71 802.07073 75.649087 800.0625 80.34375 C 798.26033 84.55671 798.13475 85.715536 799.15625 89.125 C 800.80504 94.628171 798.86141 96.599146 796.4375 91.875 C 795.48793 90.024304 793.86599 87.436673 792.84375 86.125 C 790.26183 82.812015 790.47073 81.84479 794.84375 76.3125 C 800.34267 69.355847 801.16972 67.548758 800.09375 64.71875 C 799.58974 63.393087 798.5532 61.679098 797.8125 60.90625 C 797.07181 60.133402 795.6868 58.2625 794.71875 56.75 C 792.07157 52.613991 788.66287 53.080452 785.03125 58.09375 C 783.39715 60.349559 781.80017 63.049559 781.46875 64.09375 C 780.2901 67.807372 777 65.688862 777 61.21875 C 777 58.356533 781.15402 50.941248 783.6875 49.28125 C 786.03062 47.74598 786.42369 47.804732 791.40625 50.5 C 794.49218 52.169303 797.35594 53.066555 798.34375 52.6875 C 802.36829 51.143138 803.11284 42.039132 799.90625 33.46875 C 797.90573 28.121864 797.89124 27.784217 799.5625 25.9375 C 801.88808 23.367762 804.28609 23.502985 807.625 26.375 L 810.375 28.71875 L 808.6875 33.96875 C 806.78412 39.862226 806.46833 48.142144 808.03125 51.0625 C 809.35598 53.537765 811.51541 53.519749 814.71875 51 C 818.11768 48.3264 819.31609 48.46367 823.34375 52 C 826.55802 54.822168 829.04476 55.464201 833.21875 54.625 L 833.375 52.15625 z M 819.78125 23.75 C 821.19809 23.931281 822.47526 24.830686 823.4375 26.40625 C 824.26418 27.759835 823.98739 28.534151 822.125 30.0625 C 819.50377 32.213579 819.38546 32.227259 816.34375 31 C 812.75727 29.552939 812.45505 27.859759 815.34375 25.375 C 816.81368 24.110625 818.36441 23.568719 819.78125 23.75 z M 789.28125 24 C 791.56322 23.980384 792.73638 26.934916 790.90625 28.09375 C 788.70383 29.488309 785.98348 29.154793 785.3125 27.40625 C 784.63571 25.642567 786.51339 24.023792 789.28125 24 z "/>
</svg>
