<?xml version="1.0" encoding="UTF-8"?>
<svg xmlns="http://www.w3.org/2000/svg" viewBox="264.53 17.15 81.13 84.7">
  <path d="M 268.40625,49.5 268.21875,51.1875 268.21875,56.625 C 268.67369,55.294122 270.05252,55.626688 273.96875,57.28125 L 278.8125,59.3125 283.375,56.28125 287.9375,53.28125 294,55.21875 C 302.8703,58.09139 303.34281,57.481762 302.5625,43.8125 302.22331,37.87048 302.30233,33 302.75,33 303.19766,33 305.57617,31.21564 308.03125,29.03125 310.48632,26.84686 313.31413,25.04686 314.3125,25.03125 316.47498,24.997438 325.61702,33.942544 328.90625,39.3125 330.96266,42.669774 331.61839,43.080418 334.625,42.8125 336.49843,42.645558 337.93024,42.072238 337.78125,41.53125 337.63226,40.990262 336.825,40.623608 336,40.75 335.175,40.876393 333.84184,40.581436 333.03125,40.0625 331.78032,39.261654 331.89373,38.759178 333.78125,36.75 336.76981,33.56883 336.56283,32.967681 333,34.3125 328.62108,35.965355 326.80734,33.886349 329.8125,30.6875 332.6405,27.677237 332.62539,26.445392 329.78125,28.4375 328.55888,29.293687 326.75888,30 325.78125,30 323.58669,30 323.40207,26.74113 325.5,25 328.00688,22.919473 327.1687,21.835449 324.4375,23.625 322.01003,25.215538 321.69758,25.199282 318.0625,23.15625 L 314.21875,21 308.75,25.5 C 305.49376,28.180721 302.27361,30 300.78125,30 299.40351,30 296.26707,28.460559 293.78125,26.5625 290.03336,23.700772 288.95949,23.313846 287.59375,24.3125 285.4576,25.874492 284.56014,31.744771 285.90625,35.25 287.14814,38.483856 290.368,38.882349 295.15625,36.40625 296.97849,35.463934 298.58859,35.182344 299.125,35.71875 300.42108,37.014836 301.47225,52.595735 300.3125,53.3125 299.78881,53.636161 296.94248,53.184225 293.96875,52.3125 288.58151,50.733276 288.53232,50.741449 283.375,53.53125 L 278.21875,56.3125 273.34375,53.78125 268.5,51.25 268.40625,49.5 z M 289.28125,27.0625 C 290.12268,26.725928 291.36572,27.365718 293,29 295.40521,31.40521 295.56083,33.579461 293.40625,34.40625 289.30753,35.979079 288,35.139546 288,31 288,28.712006 288.43982,27.399072 289.28125,27.0625 z M 268.21875,59.09375 268.21875,64.84375 268.28125,65.15625 271.9375,67.09375 C 275.22683,68.808248 276.24943,68.927316 278.1875,67.90625 279.45925,67.236232 280.725,66.393293 281,66.03125 282.15024,64.516936 286.56952,62 288.0625,62 290.08852,62 297,68.814093 297,70.8125 297,71.631418 295.94551,73.704335 294.65625,75.40625 289.51888,82.187934 289.46737,82.600875 293.125,90.125 295.08139,94.149486 297.10827,97 298,97 300.5511,97 302.21206,93.183393 301.5,88.96875 300.80831,84.874672 302.99463,80 305.53125,80 308.3225,80 311,85.100631 311,90.4375 311,95.382657 312.18243,98.000365 314.4375,98 315.44809,97.999836 322,84.92831 322,82.90625 322,82.36296 319.71027,79.740281 316.90625,77.09375 L 311.8125,72.28125 313.4375,69.125 C 314.33065,67.397849 315.22161,66 315.4375,66 315.6534,66 316.50097,65.748915 317.3125,65.4375 318.26938,65.070313 319.36458,65.949061 320.40625,67.9375 321.2897,69.623915 322.69722,72.35 323.5625,74 325.52491,77.742094 327.71632,77.841136 329.09375,74.25 331.23142,68.676773 327.05174,56.253091 322.3125,54.09375 320.41498,53.22918 319.22813,53.34458 316.8125,54.59375 312.75705,56.690904 312.01998,55.523004 312,46.875 311.97864,37.629496 313.29605,36.855511 319.875,42.09375 324.80161,46.016372 325.46807,47.211107 325.03125,51.34375 324.91393,52.453642 325.26074,52.961449 325.90625,52.5625 326.50101,52.194919 327,50.387201 327,48.5625 327,45.880699 325.99382,44.25543 321.75,40.09375 316.328,34.776689 312.61864,32.975105 310.8125,34.78125 309.30006,36.293685 308.81105,43.534129 309.71875,51 310.49908,57.418162 310.54368,57.505384 313.5,57.375 315.14671,57.302374 317.47671,56.897035 318.6875,56.5 321.69392,55.514149 325.15818,59.377192 326.8125,65.5625 328.36052,71.350361 327.09496,73.384128 324.375,69.5 319.71378,62.843745 318.40296,61.722926 316.25,62.40625 313.74606,63.20097 310,69.169435 310,72.34375 310,73.764059 311.63529,75.949149 314.5,78.34375 319.55586,82.569927 319.92711,84.327066 316.875,89.5 314.09807,94.206552 312.41441,93.533702 312.8125,87.90625 313.09682,83.887155 312.77771,83.147428 309.09375,79.5625 306.8697,77.398237 304.88859,75.823237 304.71875,76.0625 304.5489,76.301763 303.16326,78.223763 301.625,80.3125 299.12844,83.702492 298.89201,84.641871 299.5,89.0625 300.41099,95.686211 298.30421,95.720946 295.1875,89.15625 292.46115,83.41377 292.90948,80.446284 297.09375,76.4375 301.4706,72.244211 301.00095,68.919243 295.3125,63.46875 292.7391,61.003004 289.7016,58.994662 288.5625,59 287.42339,59.005338 284.50865,60.580338 282.09375,62.5 279.67885,64.419662 277.21368,66 276.59375,66 274.12489,66 268.82347,61.492738 268.21875,59.09375 z M 338.5,46 C 335.59802,46 331.98512,49.211257 332.03125,51.75 332.0615,53.414541 332.13961,53.418753 333.40625,51.75 334.13868,50.785064 336.14992,49.507618 337.875,48.90625 341.63708,47.594781 341.974,46 338.5,46 z"/>
</svg>
