<?xml version="1.0" encoding="UTF-8"?>
<svg xmlns="http://www.w3.org/2000/svg" viewBox="1639.87 16.93 37.44 89.51">
  <path d="M1656.3721 100.56048C1650.5682 98.034645 1645.8289 89.797072 1642.9634 77.254015C1642.4298 74.918723 1641.9634 67.043723 1641.9268 59.754015C1641.8718 48.811179 1642.2405 45.27937 1644.0411 39.5C1647.9113 27.077954 1652.1906 21.0 1657.0665 21.0C1661.4139 21.0 1667.1438 27.436034 1669.3722 34.822214C1671.3583 41.40532 1671.0971 45.676679 1668.4624 49.697726C1666.6123 52.521299 1664.0 52.710099 1664.0 50.020236C1664.0 45.763198 1659.102 36.0 1656.9663 36.0C1654.7258 36.0 1653.5007 43.27275 1653.5132 56.5C1653.5245 68.487052 1653.8739 71.608857 1655.9431 78.21207C1659.4867 89.519791 1661.8342 89.678231 1667.0195 78.959656C1668.8713 75.131845 1670.9856 72.0 1671.7179 72.0C1674.2879 72.0 1675.3106 77.059622 1674.0315 83.446062C1672.3779 91.702509 1669.6383 96.571948 1664.9993 99.500421C1660.4455 102.3751 1660.5206 102.36588 1656.3721 100.56048Z M1663.5676 98.0C1666.8464 98.0 1674.2421 81.941097 1672.0199 79.646766C1671.5654 79.177488 1669.5806 81.314988 1667.6092 84.396766C1664.5672 89.152132 1663.5725 90.0 1661.0355 90.0C1657.4853 90.0 1655.6107 87.574066 1653.6333 80.420575C1647.7346 59.081272 1649.8949 34.314265 1657.7536 33.183521C1659.5768 32.921194 1660.5024 33.980949 1663.1634 39.377088C1666.5541 46.253159 1668.0098 46.951737 1667.9849 41.690983C1667.9553 35.406995 1663.9038 27.356864 1659.616 25.06207C1657.6196 23.993637 1656.8352 24.061906 1654.649 25.494342C1652.1592 27.125699 1647.7556 35.085536 1645.8122 41.46747C1644.2151 46.712105 1643.6783 67.115994 1644.968 73.554225C1646.2386 79.897082 1650.4804 91.574842 1652.3628 93.912059C1654.2362 96.238219 1659.4053 99.039668 1660.8318 98.501979C1661.5643 98.22589 1662.7954 98.0 1663.5676 98.0Z"/>
</svg>
