<?xml version="1.0" encoding="UTF-8"?>
<svg xmlns="http://www.w3.org/2000/svg" viewBox="1767.63 15.32 20.68 88.18">
  <path d="M 1785.6249,28.844183 C 1785.2244,28.457707 1784.9999,27.745285 1784.9999,26.406683 1784.9999,20.906738 1782.3571,19.323864 1779.7499,23.250433 1778.3483,25.361426 1778.0414,25.414725 1774.5624,24.156683 1772.5249,23.419942 1770.5786,23.07803 1770.2499,23.406683 1769.6319,24.024657 1769.8685,47.212791 1770.4999,47.844183 1770.6955,48.039724 1771.8708,47.513142 1773.0937,46.656683 1775.1353,45.22659 1775.5407,45.236076 1778.0624,47.031683 1781.8869,49.754942 1783.647,49.491519 1784.8749,45.969183 1785.1248,45.252307 1785.5982,44.567563 1786.1874,43.906683 L 1786.0624,42.344183 1785.9374,39.250433 C 1785.6793,39.106821 1785.5123,38.858566 1785.3749,38.500433 1784.8517,37.137015 1785.0077,35.681168 1785.7811,34.187933 L 1785.5937,29.125433 1785.6249,28.844183 z M 1781.8437,26.437933 C 1782.8455,26.75349 1783.0364,29.743534 1782.7811,37.000433 1782.6199,41.585189 1782.0499,45.464316 1781.4999,45.625433 1780.9499,45.786551 1779.3749,45.280689 1777.9999,44.500433 1776.6249,43.720176 1774.7726,43.295543 1773.8749,43.562933 1771.851,44.165798 1771.1511,40.350229 1771.8124,32.375433 L 1772.2499,26.812933 1775.7187,27.469183 C 1777.8145,27.862374 1779.7031,27.651102 1780.5624,26.937933 1781.0871,26.502438 1781.5097,26.332747 1781.8437,26.437933 z M 1772.7499,70.031683 C 1770.6438,69.406322 1770.2349,73.01357 1770.3749,83.375433 1770.4679,90.258077 1770.8423,96.155327 1771.1874,96.500433 1771.5325,96.845539 1772.6899,96.588216 1773.7811,95.906683 1775.4455,94.867363 1776.3041,95.007123 1779.1249,96.812933 1783.3019,99.486952 1783.6796,99.490572 1785.0624,96.906683 1786.3124,94.571161 1786.0155,72.667669 1784.7187,71.375433 1784.2893,70.947505 1782.5816,71.416992 1780.9061,72.406683 1777.9184,74.17152 1777.7952,74.154851 1775.4687,71.969183 1774.3486,70.916892 1773.4519,70.240137 1772.7499,70.031683 z M 1772.9687,74.500433 C 1773.4967,74.174123 1774.9604,74.582176 1776.2187,75.406683 1777.7629,76.418559 1778.9939,76.605177 1779.9999,75.969183 1783.543,73.729083 1783.9999,74.744801 1783.9999,85.000433 1783.9999,92.401163 1783.675,94.968954 1782.7499,94.875433 1781.5286,94.751967 1773.7643,92.783847 1773.2499,92.469183 1772.4285,91.96664 1772.1616,74.999263 1772.9687,74.500433 z"/>
</svg>
