<?xml version="1.0" encoding="UTF-8"?>
<svg xmlns="http://www.w3.org/2000/svg" viewBox="1630.25 17.76 18.38 84.06">
  <path d="M 1632.25 76.96875 L 1632.4688 78.03125 L 1632.7188 81.84375 C 1633.6041 81.744073 1634 82.541009 1634 84.4375 C 1634 85.497731 1633.6366 86.513999 1633.0938 87.5 L 1633.4062 92.1875 L 1633.3125 93.53125 L 1633.8438 95.03125 C 1634.7263 97.562656 1635.4132 98 1638.375 98 C 1642.231 98 1645 95.89 1645 92.9375 C 1645 92.093492 1645.2391 91.594609 1645.6875 91.3125 L 1645.6875 91.25 L 1646 86.84375 C 1644.9585 85.86673 1644.8156 84.809384 1645.875 83.75 C 1646.0007 83.624322 1646.1014 83.674496 1646.2188 83.59375 L 1646.625 78.03125 L 1646.0625 77.5 L 1645.8438 55 C 1645.7113 42.625 1645.4303 30.179815 1645.2188 27.34375 L 1644.8125 22.1875 L 1640.3125 21.84375 C 1637.0395 21.583433 1635.6128 21.898649 1635.0312 23 C 1634.5913 23.832939 1634.0084 36.252388 1633.75 50.625 C 1633.4696 66.215729 1633.3258 73.081752 1632.25 76.96875 z M 1641.4062 25.125 C 1642.7409 25.2388 1642.9305 26.083654 1643.2812 29.1875 C 1644.0041 35.58351 1643.3241 91.218262 1642.5 93.25 C 1642.0538 94.349822 1640.7244 95 1638.9062 95 C 1636.0697 95 1636.0019 94.887766 1635.8438 89.25 C 1635.7063 84.355819 1635.8944 63.612299 1636.375 33 L 1636.5 25.5 L 1639.625 25.1875 C 1640.3795 25.11417 1640.9614 25.087067 1641.4062 25.125 z "/>
</svg>
