<?xml version="1.0" encoding="UTF-8"?>
<svg xmlns="http://www.w3.org/2000/svg" viewBox="1313.79 12.29 83.96 90.03">
  <path d="M 1393.9375,51.21875 C 1393.1219,51.794201 1391.8055,51.410103 1389.625,50.0625 1387.7826,48.923842 1385.635,48.019481 1384.875,48.03125 1384.1149,48.043019 1380.3963,50.068019 1376.5938,52.53125 1372.7913,54.994481 1368.9141,57 1368,57 1367.0859,57 1365.2709,55.833508 1363.9375,54.40625 1362.6041,52.978992 1360.3111,51.169784 1358.8438,50.40625 1356.5493,49.212296 1355.7794,49.229628 1353.3438,50.5 1351.7862,51.312403 1350.1262,51.996612 1349.6875,52 1349.2487,52.003389 1349.0237,49.1875 1349.1875,45.75 L 1349.5,39.5 1353.5,39.375 C 1355.7,39.30457 1358.0544,39.19207 1358.75,39.125 1360.4695,38.959197 1363.9953,33.032659 1364,30.28125 1364.002,29.05488 1363.2757,26.266547 1362.4062,24.09375 1359.702,17.335149 1352.0514,16.749753 1346.5938,22.875 1344.0102,25.774635 1342.4768,25.556306 1339.1875,21.875 1334.2766,16.378754 1327.4612,18.486643 1323.875,26.59375 1321.9634,30.915164 1321.9699,35.753831 1323.9375,38.9375 1325.0576,40.749942 1333.6006,41.555759 1335.4375,40.03125 1337.9072,37.981593 1339,39.845475 1339,46.125 1339,51.897262 1338.9116,52.111998 1336.75,51.4375 1335.5125,51.051352 1333.6162,50.125915 1332.5312,49.375 1329.6058,47.350162 1327.6679,47.671835 1324.7188,50.75 1319.89,55.790173 1317.6068,66.225039 1319.9688,72.4375 1320.5051,73.848305 1321.377,75 1321.9062,75 1322.4354,75 1324.2894,72.100672 1326.0312,68.5625 1327.773,65.024328 1329.8146,61.911984 1330.5625,61.625 1331.876,61.120966 1336,65.787194 1336,67.78125 1336,68.312001 1334.2145,70.976647 1332.0312,73.71875 1325.6869,81.686869 1325.4013,83.214066 1329.1562,89.84375 1330.9154,92.949571 1332.8511,95.845922 1333.4375,96.25 1336.3014,98.223747 1338.3316,95.171712 1337.75,89.78125 1337.2443,85.094261 1340.2312,78 1342.7188,78 1344.5416,78 1349,82.517526 1349,84.375 1349,85.189195 1348.518,87.129414 1347.9375,88.65625 1346.7035,91.902145 1347.3947,95.552584 1349.375,96.3125 1351.1243,96.983794 1356.9862,88.190266 1357,84.875 1357.0054,83.576833 1355.819,79.075088 1354.3438,74.90625 1352.8686,70.737412 1351.9581,66.579671 1352.3125,65.65625 1353.1934,63.36067 1357.8107,61.350678 1359.4062,62.5625 1370.0921,70.67781 1371.1264,70.780451 1379.7812,64.5625 1382.5025,62.607557 1385.3056,61 1386,61 1388.1051,61 1392.567,64.191944 1393.5938,66.15625 L 1393.9375,66.25 1393.9375,59.5625 C 1393.9071,61.278463 1391.9937,61.576083 1388.7188,59 1387.3203,57.9 1385.9168,57 1385.5938,57 1385.2707,57 1382.2252,59.25 1378.8125,62 1375.3998,64.75 1372.0661,67 1371.4062,67 1370.7464,67 1367.8029,65.2 1364.875,63 1361.9471,60.8 1358.7707,59 1357.8125,59 1355.7732,59 1349,64.667836 1349,66.375 1349,67.01807 1350.35,71.058765 1352,75.34375 1355.5497,84.562219 1355.7015,86.861143 1352.9375,90.375 1349.0309,95.34151 1348.2974,93.619615 1350.5312,84.71875 1351.0322,82.723311 1350.4115,81.505181 1347.5312,78.625 1345.544,76.637683 1343.3879,75.019507 1342.7188,75.03125 1341.1499,75.058782 1336.4674,81.75607 1335.75,85 1335.4458,86.375 1335.5472,88.4 1335.9688,89.5 1336.3905,90.6 1336.5078,92.0625 1336.25,92.75 1335.9923,93.4375 1335.4611,94 1335.0625,94 1333.9437,94 1328,84.428005 1328,82.625 1328,81.745155 1330.25,78.536645 1333,75.5 1336.2805,71.877523 1338,69.098494 1338,67.40625 1338,64.722033 1333.4274,59 1331.2812,59 1330.6089,59 1328.4519,61.511212 1326.5,64.5625 1322.5146,70.792659 1320.4719,70.908797 1321.2812,64.875 1321.8596,60.563108 1326.3672,52.186174 1328.5625,51.34375 1329.3432,51.044163 1332.2276,51.972914 1334.9688,53.40625 1337.7099,54.839585 1340.1846,56 1340.4688,56 1341.3826,56 1340.8665,36.042883 1339.9375,35.46875 1339.4447,35.164184 1337.7368,35.870861 1336.125,37.0625 1333.6489,38.893223 1332.5892,39.106871 1329.3438,38.34375 1325.7065,37.488512 1325.4804,37.215688 1325.1875,33.1875 1324.6639,25.985125 1330.2574,19.629941 1335.375,21.59375 1336.2108,21.914441 1337.5981,23.264932 1338.4688,24.59375 1340.5515,27.772462 1343.382,27.626074 1347.8438,24.15625 1354.3802,19.07284 1357.5555,19.274579 1360.5,24.96875 1362.4328,28.706298 1362.4012,31.977664 1360.4375,34.78125 1358.7862,37.138856 1357.3387,37.508339 1355.1562,36.125 1354.1083,35.46087 1354.3809,34.712787 1356.4062,32.6875 1359.3013,29.792328 1359.674,27.794235 1357.625,26.09375 1355.8695,24.636822 1351.5071,26.163181 1350.2188,28.6875 1347.9119,33.207659 1345.8783,51.371385 1347.4062,53.84375 1347.9266,54.68555 1348.8796,54.596521 1351,53.5 1355.4573,51.195014 1357.5669,51.66402 1362.125,56 1364.4376,58.2 1366.8545,60 1367.5,60 1368.1454,60 1371.7912,57.994481 1375.5938,55.53125 1383.9196,50.137858 1386.6687,49.885142 1390.875,54.1875 1392.7839,56.139981 1393.7458,57.895193 1393.9375,59.125 L 1393.9375,51.21875 z M 1333.5,26.09375 C 1332.4361,26.066677 1331.2372,26.323336 1330.0312,26.96875 1328.4236,27.829076 1328.1201,28.667103 1328.625,30.78125 1328.981,32.271747 1329.4561,33.8375 1329.6875,34.25 1329.9189,34.6625 1331.4643,35 1333.0938,35 1335.307,35 1336.3413,34.363331 1337.2188,32.4375 1338.8039,28.958529 1336.6916,26.174968 1333.5,26.09375 z M 1353.9375,28 C 1356.1939,28 1356.9779,28.859877 1356.3125,30.59375 1355.7722,32.001718 1352.8673,32.5236 1351.75,31.40625 1350.6769,30.333167 1352.169,28 1353.9375,28 z M 1332.9375,28 C 1334.8567,28 1336.4039,30.530073 1335.4375,32.09375 1334.548,33.533104 1330.9891,33.162893 1330.375,31.5625 1329.6119,29.573955 1330.7329,28 1332.9375,28 z"/>
</svg>
