<?xml version="1.0" encoding="UTF-8"?>
<svg xmlns="http://www.w3.org/2000/svg" viewBox="116.7 14.37 72.54 89.62">
  <path d="M125.63098 98.211937C125.36311 97.778502 124.17512 94.624395 122.99101 91.202809L120.83808 84.981745L124.41904 78.578388C126.38857 75.056541 128.0 71.917033 128.0 71.601704C128.0 71.286374 126.2 69.837193 124.0 68.381302C121.8 66.925411 120.0 65.13901 120.0 64.411523C120.0 63.233867 122.48859 58.935148 126.21152 53.681895C127.86545 51.348122 129.84506 52.174935 133.0 56.517196C135.29705 59.678722 138.5519 61.781437 139.57106 60.762277C140.61016 59.723169 141.18505 50.636674 140.53889 45.464984L139.82759 39.771952L135.92399 40.396165C132.80635 40.894695 131.61564 40.615637 130.01019 39.010188C127.10464 36.104638 126.95999 28.865032 129.74524 25.75C132.04004 23.183495 134.82942 23.605885 138.0 27.0C141.38767 30.626515 142.3478 30.726845 143.77109 27.603059C145.54131 23.717848 151.37862 19.805941 154.30857 20.54131C155.6864 20.887124 157.79417 20.645339 158.99251 20.004011C161.90377 18.445951 162.74981 19.513991 160.53925 21.956624C157.22107 25.623174 160.47717 28.420543 165.15139 25.91898C167.93439 24.429564 168.69668 25.572692 166.52252 27.975112C165.05048 29.601703 164.9528 30.238196 165.98443 31.481242C167.59443 33.421167 168.90074 33.399807 171.1134 31.397379C173.95348 28.827141 175.43514 30.17709 173.07176 33.181648C170.51042 36.437854 170.50997 36.667379 173.06227 38.033326C174.69688 38.908144 175.93342 38.71541 179.02514 37.103916C181.51687 35.805152 183.15591 35.443246 183.563 36.101937C183.9135 36.669056 184.04271 37.255313 183.85014 37.40473C183.0263 38.04394 174.3111 42.0 173.72676 42.0C173.37378 42.0 170.43708 39.4125 167.20076 36.25C153.10174 22.472557 153.2343 22.572215 150.60198 23.771583C149.2715 24.377789 146.74371 26.965601 144.98467 29.522276L141.78642 34.170777L142.43415 46.835389C143.06039 59.07978 142.42953 65.023492 140.43304 65.688986C139.90619 65.864604 137.15811 63.981426 134.32621 61.504146C131.49431 59.026866 128.68079 57.0 128.07395 57.0C127.46711 57.0 126.08363 58.458513 124.99955 60.24114L123.02849 63.482279L127.15786 67.256891C129.42901 69.332928 133.5851 72.243653 136.39361 73.725169C139.20213 75.206685 142.69447 77.224597 144.15437 78.209418C145.61427 79.194238 147.23505 80.0 147.7561 80.0C149.32811 80.0 163.29532 70.353956 166.35633 67.154301L169.21266 64.168591L167.39072 61.084296C165.17256 57.329248 164.09908 57.271591 158.41573 60.602254C151.2605 64.795497 150.7824 64.060558 151.16844 49.461709C151.53922 35.440168 152.2127 34.024393 157.26835 36.638767C162.54438 39.367111 169.48388 45.154816 170.7049 47.845171C172.18604 51.108675 172.35454 56.662851 170.99783 57.501339C170.40923 57.865117 170.26852 59.827049 170.65686 62.255607C171.28919 66.209937 171.12822 66.554002 166.97087 70.134575C162.19535 74.24755 162.19231 74.026271 167.13094 81.781183L169.22053 85.062366L166.99986 91.000361C163.99369 99.038792 162.76 99.923092 159.48367 96.387884C157.2862 94.016775 156.99185 93.007715 157.5441 89.738961C158.45451 84.350307 156.42672 79.612605 153.59695 80.516882C147.99869 82.305851 145.697 82.197986 141.71515 79.960062L137.62963 77.66387L134.22783 81.581935C131.09425 85.191064 130.87471 85.872136 131.44342 90.219591C131.95656 94.142185 131.71794 95.282057 130.03041 96.969591C127.88974 99.110259 126.43931 99.519843 125.63098 98.211937Z M128.86742 91.216302C128.68895 86.173708 129.87242 83.010757 133.37496 79.169408C135.42666 76.919249 135.43625 76.792201 133.6528 75.488092C131.07629 73.604076 129.3402 74.563355 126.47349 79.455018C123.92176 83.809228 123.246 88.415966 125.0 89.5C125.55 89.839919 126.0 91.141476 126.0 92.39235C126.0 93.643224 126.3 94.966667 126.66667 95.333333C128.31125 96.977921 129.02415 95.644289 128.86742 91.216302Z M138.57885 35.541861C139.27478 32.769072 135.82235 27.0 133.46709 27.0C130.49043 27.0 128.78258 34.382577 131.2 36.8C131.86 37.46 133.65143 38.0 135.18095 38.0C137.30067 38.0 138.10859 37.415532 138.57885 35.541861Z M159.5 56.0C161.51122 53.777629 165.94981 53.349813 167.8 55.2C168.73333 56.133333 168.9966 55.633333 168.98469 52.95C168.96562 48.653467 168.64338 48.163111 162.51833 43.109907C154.74143 36.69392 154.0 37.163072 154.0 48.5C154.0 57.067322 154.18114 58.0 155.84501 58.0C156.85977 58.0 158.50451 57.1 159.5 56.0Z M164.47432 91.04966C165.31344 89.426973 166.0 87.088661 166.0 85.853411C166.0 83.458742 161.33147 76.0 159.83261 76.0C158.04258 76.0 157.89355 78.89346 159.52144 82.041457C160.72536 84.369594 161.00586 86.47527 160.53252 89.631714C160.00082 93.17736 160.16664 94.0 161.41305 94.0C162.25762 94.0 163.6352 92.672347 164.47432 91.04966Z M176.73323 52.75C176.46166 50.9625 176.64892 48.717158 177.14937 47.76035C177.94449 46.240188 182.91397 43.0 184.45034 43.0C185.94113 43.0 184.67683 45.401053 182.0 47.653454C179.93178 49.393743 179.0 51.081961 179.0 53.088894C179.0 57.035305 177.34674 56.788135 176.73323 52.75Z"/>
</svg>
