<?xml version="1.0" encoding="UTF-8"?>
<svg xmlns="http://www.w3.org/2000/svg" viewBox="810.87 14.01 103.68 86.94">
  <path d="M 829.75 18.59375 L 827.375 21.34375 C 824.50667 24.678371 824.31933 29.068089 826.9375 31.4375 C 829.06365 33.361645 831.93458 32.909178 834.59375 30.25 C 835.78775 29.056007 836.62654 28.923098 837.84375 29.6875 C 841.80686 32.176308 844.67514 47.338294 841.65625 49.84375 C 840.64816 50.68039 839.02121 50.121708 834.90625 47.5 C 831.92428 45.600138 828.51007 44.045328 827.28125 44.03125 C 823.23459 43.98489 818.98717 48.91148 817.4375 55.5 C 815.58175 63.389815 815.60732 69.429211 817.5 71 C 819.67435 72.804547 821.35114 70.995765 822.84375 65.28125 C 824.07813 60.555317 826.97104 56 828.71875 56 C 830.40112 56 836.47877 61.076617 837.78125 63.5625 C 838.94417 65.782013 838.7841 66.382473 836.40625 69.5 C 834.94416 71.416898 833.37979 73 832.90625 73 C 831.49508 73 828 80.701724 828 83.8125 C 828 85.465478 828.90048 87.482603 830.09375 88.5625 C 831.23916 89.599077 832.77972 91.920084 833.53125 93.71875 C 834.53238 96.114801 835.536 97 837.28125 97 C 840.80797 97 842.42332 93.253652 841.59375 87 C 841.03055 82.754434 841.27072 81.286094 843.03125 78.4375 C 844.19963 76.547021 845.55721 75 846.03125 75 C 846.5053 75 847.68157 76.35 848.65625 78 C 849.63093 79.65 850.72196 81 851.09375 81 C 852.49513 81 853.04243 86.34047 851.96875 89.59375 C 850.60248 93.733586 851.50427 97 854 97 C 856.61257 97 863.00666 86.256093 863 81.875 C 862.99718 80.021946 861.88626 76.7 860.53125 74.5 C 857.62454 69.780681 857.29949 64.939898 859.75 62.75 C 861.35511 61.315595 861.79318 61.425695 864.96875 64.09375 C 866.87297 65.693646 869.01047 67 869.71875 67 C 871.50528 67 871.32571 68.99746 869.34375 71.1875 C 867.21221 73.542824 868.35541 74.800837 870.59375 72.5625 C 871.52211 71.634138 873.32717 70.16287 874.625 69.3125 C 876.76028 67.913409 877.22014 67.922135 879.4375 69.375 C 881.64343 70.820385 883.98541 76.200523 884 79.90625 C 884.00307 80.685416 884.30139 81.011104 884.6875 80.625 C 886.6876 78.624894 883.63614 67.722463 880.8125 66.78125 C 879.62128 66.384175 882.70786 60.904129 885.46875 58.5 C 886.10036 57.95 888.09968 55.33204 889.90625 52.6875 C 891.71281 50.04296 894.15472 47.519867 895.34375 47.0625 C 898.61844 45.802874 904.44692 39.717054 906.53125 35.375 C 908.71481 30.826238 909.83422 20 908.125 20 C 907.5089 20 907 21.281162 907 22.84375 C 907 30.872289 901.21423 41.190348 895.3125 43.65625 C 893.13218 44.567243 890.44584 47.391234 887.125 52.3125 C 882.06983 59.803945 875.96481 66 873.625 66 C 872.19014 66 864.59344 60.781151 863.53125 59.0625 C 862.0878 56.726943 859.15118 58.083974 857.09375 62.03125 C 854.29943 67.392255 854.48149 69.667595 858.03125 74.90625 C 861.53055 80.070447 861.70215 82.672096 859 87.96875 C 855.57089 94.690355 852.78873 94.73144 855 88.03125 C 856.2366 84.2843 856.15688 83.872252 853.65625 80.59375 C 852.20008 78.684624 850.98705 76.761697 850.96875 76.3125 C 850.92464 75.229552 847.3657 71 846.5 71 C 845.43687 71 842.12341 75.150395 840.125 79 C 838.90435 81.351367 838.56539 83.320452 839.0625 85 C 840.39909 89.51588 840.09729 93.033862 838.3125 93.71875 C 837.3531 94.086907 836.44901 93.847039 836.21875 93.15625 C 835.99566 92.486978 834.76675 90.69295 833.5 89.1875 C 831.44822 86.749101 830.54419 83.733717 830.875 80.375 C 830.93588 79.75689 833.475 76.48393 836.5 73.09375 C 839.525 69.703571 842 66.724953 842 66.46875 C 842 66.212546 841.1592 64.429591 840.125 62.5 C 837.82085 58.200962 834.14046 55.190593 830.21875 54.40625 C 827.70697 53.903894 826.86262 54.304528 824.6875 57.15625 C 823.28046 59.000983 821.66788 61.739939 821.09375 63.25 C 819.35235 67.830234 817.78689 66.596365 818.5625 61.25 C 819.38095 55.608267 820.38231 53.427726 823.8125 49.75 C 826.47034 46.900352 829.38014 46.18065 830.5625 48.09375 C 831.45574 49.539051 841.00182 53.98745 843.25 54 C 844.74585 54.00835 845.00925 53.019721 845 47.25 C 844.98977 40.872871 843.36979 33.440316 841.09375 29.1875 C 840.26422 27.637501 840.64113 26.757318 843.0625 24.4375 L 846.0625 21.59375 L 849.71875 25.25 L 853.375 28.90625 L 852.1875 34.03125 C 851.53668 36.850729 851 40.462353 851 42.0625 C 851 45.563733 853.16727 54 854.0625 54 C 854.41318 54 855.50451 53.1 856.5 52 C 859.09772 49.129547 861.12364 49.483065 866.96875 53.875 C 870.3026 56.380001 872.84523 57.607746 874.09375 57.28125 C 876.63352 56.617085 881.42211 50.458747 883.53125 45.1875 L 885.21875 41 L 882.09375 37.46875 C 880.38489 35.522466 879 33.274612 879 32.46875 C 879 29.852758 881.73169 30.917391 884.78125 34.71875 C 887.43607 38.028061 888.0155 38.309753 890.125 37.34375 C 893.02549 36.015525 895.63095 29.019729 895.1875 23.75 C 894.70034 17.960834 893.29839 19.31396 892.8125 26.03125 C 892.53251 29.902084 891.74801 32.658231 890.65625 33.75 C 889.05512 35.351124 888.73463 35.201812 885.09375 31.21875 C 880.95934 26.69577 880.06776 26.307236 878.1875 28.1875 C 876.23966 30.135343 876.82842 34.439853 879.5625 38.46875 C 882.70376 43.097651 882.24572 45.951033 877.53125 51.5 C 874.93211 54.559194 873.79772 55.264798 872.6875 54.5 C 871.88909 53.95 869.07414 51.973712 866.4375 50.09375 C 861.72999 46.737223 861.60415 46.705692 858.75 48.34375 C 857.15141 49.261212 855.46172 50 855 50 C 853.35394 50 852.91044 44.146843 854.0625 37.53125 C 855.18336 31.094778 855.3474 30.84724 857.78125 31.3125 C 861.12753 31.952182 865.80513 30.25977 867.03125 27.96875 C 868.74508 24.766428 868.22347 20.217114 866.0625 19.53125 C 863.94221 18.858296 859.13768 20.937064 857.0625 23.4375 C 855.15235 25.739096 853.48652 25.363583 850.65625 22 C 847.49111 18.23844 846.1038 18.23844 842.5 22 C 839.37636 25.26038 837.55872 25.748514 836.3125 23.65625 C 835.87267 22.917827 834.20879 21.4903 832.625 20.46875 L 829.75 18.59375 z M 900.3125 19.46875 C 899.95294 19.55313 899.53054 21.253816 899.34375 24.46875 C 899.20295 26.892213 897.91088 31.185345 896.46875 34.03125 C 894.81222 37.300254 894.35288 39.070425 895.1875 38.8125 C 897.67614 38.043426 900.92553 29.773835 900.96875 24.09375 C 900.99292 20.916976 900.67206 19.38437 900.3125 19.46875 z M 830.125 22.21875 C 830.62536 22.257957 831.3058 22.622707 832.40625 23.34375 C 835.47651 25.355463 835.73357 27.539236 833.0625 28.96875 C 829.65668 30.791488 827.98345 30.223523 828 27.25 C 828.00842 25.7375 828.44286 23.875261 828.9375 23.09375 C 829.32031 22.488932 829.62464 22.179543 830.125 22.21875 z M 864.8125 22.21875 C 865.93394 22.658586 866.09808 24.187661 864.5625 26.53125 C 862.86873 29.116269 860.5054 29.643504 858 27.96875 C 856.7329 27.121746 856.94238 26.565379 859.3125 24.46875 C 861.61969 22.427792 863.69106 21.778914 864.8125 22.21875 z M 876.15625 73.5 L 873.5625 75.9375 C 870.65345 78.670408 869.96992 81.225779 872.84375 78.625 C 875.0022 76.671636 877.66391 77.360998 878.53125 80.09375 C 878.86425 81.14294 879.51952 82 880 82 C 882.00508 82 881.66947 80.270764 879 77 L 876.15625 73.5 z "/>
</svg>
