<?xml version="1.0" encoding="UTF-8"?>
<svg xmlns="http://www.w3.org/2000/svg" viewBox="87.74 13.17 30.01 94.38">
  <path d="M96.664451 99.117303C91.645179 95.808025 89.738597 91.446199 90.192879 84.311828C90.544597 78.788202 91.006565 77.588442 93.951751 74.54978L97.309622 71.085337L96.702596 59.012317C96.120747 47.440033 95.969162 46.78594 93.047785 43.241804C90.585247 40.254319 90.0 38.620295 90.0 34.732318C90.0 29.304875 92.776405 22.970448 96.209118 20.566082C100.65028 17.455371 109.02244 19.338551 112.4393 24.216795C115.74709 28.939331 113.29263 46.847006 108.97153 49.517597C108.43488 49.849262 108.0 55.213746 108.0 61.501857C108.0 71.28582 108.29644 73.388116 110.10935 76.46077C113.23421 81.75701 113.96962 86.30589 112.5817 91.753539C110.54902 99.731883 102.93747 103.2532 96.664451 99.117303Z M108.67658 95.414334C111.02079 93.070119 111.21336 92.289568 110.73875 87.055536C110.39936 83.312629 109.33958 79.913993 107.72518 77.391202C105.45559 73.844561 105.22612 72.464646 105.13371 61.807514C105.03806 50.776215 105.1712 49.949994 107.48804 47.196578C115.61349 37.540032 112.47016 22.13406 102.35359 22.031803C99.981627 22.007828 98.443281 22.870038 96.103592 25.534796C91.807894 30.427326 91.710098 37.10186 95.85764 42.320863C99.007718 46.284721 99.887053 51.842157 99.635084 66.194478C99.50808 73.428741 99.306781 74.088306 96.269503 77.221963C92.131018 81.491771 91.265697 85.650313 93.525 90.41144C97.116718 97.980425 103.87798 100.21293 108.67658 95.414334Z M97.452894 90.568451C95.582216 87.713436 96.051726 84.091131 98.626147 81.51671C101.18603 78.95683 104.29256 80.007307 105.37533 83.798955C106.14813 86.505152 105.9554 87.583236 104.30272 89.798955C101.60665 93.41353 99.474036 93.653104 97.452894 90.568451Z M99.222506 40.443296C97.601344 39.30779 97.004143 37.887296 97.015313 35.193296C97.034506 30.564037 97.811693 29.33635 101.273 28.467617C106.59774 27.131193 108.78661 32.644396 105.47432 39.04966C103.74903 42.385994 102.4193 42.682415 99.222506 40.443296Z M103.1529 88.56377C104.47016 85.672705 103.68092 83.0 101.50995 83.0C99.164828 83.0 97.382254 87.550735 98.975423 89.470386C100.75998 91.620648 101.86984 91.379782 103.1529 88.56377Z M104.52171 35.901163C105.28917 32.406947 104.10884 30.641489 101.35622 31.166435C97.862669 31.832683 98.350282 39.0 101.88916 39.0C103.25871 39.0 104.04416 38.075435 104.52171 35.901163Z"/>
</svg>
