<?xml version="1.0" encoding="UTF-8"?>
<svg xmlns="http://www.w3.org/2000/svg" viewBox="2199.27 27.59 46.62 72.71">
  <path d="M 2243.1562 30.90625 C 2242.8756 30.896332 2242.4495 31.231687 2241.9375 32.03125 C 2237.447 39.043341 2235.6569 68.653377 2239.0625 79.5 C 2239.2142 79.983167 2239.6186 80.562506 2240 81.125 L 2242.2188 78.59375 C 2241.2114 75.991754 2240.5564 72.003216 2240.0312 66 C 2238.9298 53.406428 2240.0788 39.746088 2242.6875 34.65625 C 2243.7341 32.614125 2243.7737 30.928069 2243.1562 30.90625 z M 2232.8438 33 C 2231.4014 33 2230.6823 40.140651 2230.5312 56 C 2230.345 75.580403 2229.5568 78.759626 2224.125 81.8125 C 2221.3858 83.351999 2219.523 83.959141 2217.9062 83.75 C 2216.5044 83.568638 2215.2766 82.792732 2213.875 81.25 C 2209.6688 76.620233 2208.8963 73.731821 2210.4062 68.28125 C 2213.3702 57.582083 2214.9557 49.082369 2214.3125 47.40625 C 2213.2657 44.678435 2206.8113 71.718938 2207.5312 75.8125 C 2207.8516 77.632816 2209.7295 80.895316 2211.6875 83.0625 C 2213.8608 85.468054 2215.5944 86.648066 2217.5625 86.8125 C 2219.4132 86.967124 2221.4459 86.218036 2224.3125 84.53125 C 2229.3696 81.555556 2230.7322 79.509719 2232.125 72.71875 C 2233.3053 66.964329 2233.9225 33 2232.8438 33 z M 2201.9062 84.9375 C 2201.39 85.034349 2201.4548 85.934186 2202.5312 87.75 C 2205.0257 91.957162 2206.2769 93.425963 2208.9688 95.28125 C 2210.3286 96.21851 2212.4102 97 2213.5938 97 C 2214.4142 97 2215.443 96.840513 2216.5625 96.5625 C 2220.1125 95.680927 2224.7924 93.539091 2228.4375 91.03125 C 2230.868 89.358984 2233.1499 88 2233.5 88 C 2233.5258 88 2233.7411 88.17583 2233.7812 88.1875 L 2236.0312 85.625 C 2234.7783 84.483449 2232.0734 85.218469 2228.4375 87.875 C 2226.2667 89.461111 2222.2126 91.573307 2219.4062 92.5625 C 2218.4925 92.88456 2217.7212 92.979414 2216.9062 93.15625 C 2212.1357 94.191675 2208.8413 92.854492 2205.8125 88.40625 C 2204.1903 86.023828 2202.5701 84.81298 2201.9062 84.9375 z "/>
</svg>
