<?xml version="1.0" encoding="UTF-8"?>
<svg xmlns="http://www.w3.org/2000/svg" viewBox="2544 18.63 13.62 30.78">
  <path d="M 2555.625,42.9375 C 2555.5491,42.816944 2555.3211,42.673538 2555.2812,42.5625 2554.8709,41.419904 2554.5404,36.225 2554.5312,31 2554.5222,25.775 2554.1625,21.3875 2553.75,21.25 2551.8759,20.625288 2551.1753,21.3385 2548.9062,26.1875 2546.1836,32.005855 2546.0005,38.002268 2548.3438,44.46875 2548.7625,45.624421 2548.8059,46.303012 2548.9375,47.09375 L 2550.7812,47.40625 2555.625,42.9375 z M 2552.25,23.8125 C 2552.8154,24.291665 2552.9375,27.009752 2552.9375,34.40625 2552.9375,40.781038 2552.503,46 2552,46 2550.5984,46 2548.0712,39.921207 2547.8438,36 2547.6046,31.879052 2549.5,25.659863 2551.5,24 2551.8,23.751011 2552.0615,23.652778 2552.25,23.8125 z"/>
</svg>
