<?xml version="1.0" encoding="UTF-8"?>
<svg xmlns="http://www.w3.org/2000/svg" viewBox="1205 13.46 42.32 89.55">
  <path d="M1208.5587 95.113439C1207.7014 93.455674 1207.0 91.107718 1207.0 89.89576C1207.0 87.434559 1213.0909 75.999387 1215.4405 74.049391C1216.6705 73.028532 1216.9345 70.151073 1216.8504 58.67966C1216.7477 44.686136 1216.7238 44.544358 1214.0397 42.032966C1209.9767 38.231283 1209.0 35.730876 1209.0 29.130841C1209.0 22.537916 1210.4239 17.525904 1212.0171 18.510595C1212.5786 18.857614 1214.1621 21.359692 1215.5359 24.070769C1216.9097 26.781846 1218.6114 29.0 1219.3176 29.0C1220.0237 29.0 1221.5853 26.975 1222.7877 24.5C1223.9902 22.025 1225.6359 20.0 1226.4448 20.0C1227.2538 20.0 1229.1155 22.04725 1230.5818 24.549444C1232.2092 27.326367 1233.8473 28.982221 1234.7862 28.799444C1235.6322 28.63475 1237.7139 26.387021 1239.4122 23.804492C1241.1105 21.221962 1242.7874 19.084462 1243.1387 19.054492C1244.5421 18.934765 1244.9941 26.141786 1243.8679 30.679643C1242.6334 35.653701 1240.9217 39.029055 1237.8704 42.505923C1236.3219 44.270301 1236.211 45.594878 1236.9488 53.505923C1237.4101 58.452665 1237.6336 64.75 1237.4455 67.5C1237.1448 71.895427 1237.4531 72.862744 1239.9947 75.5C1241.5849 77.15 1243.4295 80.542455 1244.0939 83.038789C1245.3235 87.659104 1244.7166 94.439081 1242.9771 95.514128C1242.4572 95.835485 1240.4346 94.50127 1238.4825 92.549207C1236.5305 90.597143 1234.3567 89.0 1233.6519 89.0C1232.9471 89.0 1231.6127 90.588867 1230.6867 92.530815C1229.7606 94.472764 1228.2622 96.34588 1227.3569 96.693295C1225.4058 97.441986 1223.133 94.756801 1222.3087 90.729191C1221.2013 85.317862 1218.0884 86.245793 1214.6904 93.000179C1211.9474 98.452606 1210.5368 98.938751 1208.5587 95.113439Z M1216.1692 87.457857C1219.4068 83.456775 1219.7339 82.559078 1218.9501 79.825898C1218.4615 78.122262 1217.8256 76.492252 1217.537 76.203653C1215.6559 74.322526 1208.4159 87.314222 1209.6105 90.427287C1210.6019 93.011037 1212.2964 92.243872 1216.1692 87.457857Z M1218.1324 36.597341C1218.7112 34.433015 1218.2109 32.74762 1215.8511 28.912501C1214.1887 26.210625 1212.417 24.0 1211.9142 24.0C1211.4114 24.0 1211.0 26.615147 1211.0 29.811439C1211.0 34.323127 1211.4672 36.124363 1213.089 37.865117C1215.6509 40.615025 1217.1593 40.235851 1218.1324 36.597341Z M1229.7456 90.25C1233.561 84.674139 1234.5 79.174162 1234.5 62.402272C1234.5 50.440133 1234.1568 45.89132 1233.1639 44.696076C1232.4291 43.81142 1232.0941 42.656763 1232.4195 42.130172C1233.0833 41.056156 1230.3995 28.615004 1228.8994 25.811963C1228.366 24.815384 1227.2608 24.0 1226.4434 24.0C1224.7363 24.0 1223.9621 25.669636 1220.9453 35.858203C1219.0009 42.424983 1218.815 44.898787 1219.2167 58.858203C1219.6726 74.69861 1219.8003 75.366776 1225.5022 91.75C1226.1976 93.748236 1227.7201 93.210072 1229.7456 90.25Z M1238.8445 37.470563C1240.7166 35.090574 1242.7345 27.401207 1241.7464 26.413027C1241.4976 26.164315 1239.5973 27.515047 1237.5235 29.414654C1234.1107 32.540629 1233.8162 33.206966 1234.4217 36.434243C1235.2141 40.658413 1236.1622 40.880553 1238.8445 37.470563Z M1242.4857 90.023073C1242.8178 89.485763 1242.5775 87.123263 1241.9517 84.773073C1240.2599 78.419112 1236.0 74.334166 1236.0 79.065741C1236.0 80.201899 1235.5276 82.014134 1234.9503 83.09293C1234.0867 84.706496 1234.4278 85.581633 1236.8733 88.027188C1239.9803 91.134135 1241.4714 91.664388 1242.4857 90.023073Z"/>
</svg>
