<?xml version="1.0" encoding="UTF-8"?>
<svg xmlns="http://www.w3.org/2000/svg" viewBox="2876.81 20.15 18.05 84.7">
  <path d="M 2878.875 54.53125 L 2878.875 58 C 2879.026 58.306974 2879.1845 58.604375 2879.3125 59.09375 C 2879.7593 60.802403 2879.5619 62.14848 2878.875 63.125 L 2878.875 67.6875 L 2878.8125 67.9375 C 2880.1728 69.617253 2880.669 77.065753 2880.125 89.34375 C 2879.6511 100.03974 2880.1212 101 2885.8125 101 C 2888.442 101 2891.0789 100.51496 2891.6562 99.9375 C 2892.8674 98.72636 2892.4579 42.329597 2891.1875 35 C 2890.7474 32.461153 2890.4464 45.266367 2890.4688 64.5 L 2890.5 98.5 L 2886.2812 98.8125 L 2882.0625 99.125 L 2882.0312 85.3125 C 2882.0037 77.71933 2881.7512 61.478205 2881.5 49.21875 L 2881.0625 26.90625 L 2884.7812 27.59375 C 2886.8279 27.96242 2889.0625 28.70437 2889.75 29.25 C 2890.646 29.961121 2891 29.779243 2891 28.59375 C 2891 27.684144 2890.4375 26.805072 2889.75 26.625 C 2889.0625 26.444929 2886.7554 25.719059 2884.625 25.03125 C 2881.433 24.000675 2880.6082 24.036024 2879.875 25.15625 C 2879.3857 25.903892 2879.1558 32.673185 2879.375 40.21875 L 2879.7812 53.9375 L 2878.875 54.53125 z "/>
</svg>
