<?xml version="1.0" encoding="UTF-8"?>
<svg xmlns="http://www.w3.org/2000/svg" viewBox="1943.42 19.52 20.83 84.31">
  <path d="M1953.3258 96.25C1946.4474 79.843635 1945.4182 51.589121 1951.0849 34.736377C1954.9132 23.35111 1956.7376 23.677255 1959.5683 36.252917C1962.1857 47.881457 1962.2496 90.483079 1959.6582 96.25C1958.7314 98.3125 1957.2812 100.0 1956.4356 100.0C1955.5899 100.0 1954.1905 98.3125 1953.3258 96.25Z M1959.1666 87.367728C1960.3943 77.728597 1959.4898 45.705384 1957.7603 37.577053C1957.0671 34.319433 1955.9813 31.484024 1955.3473 31.276145C1953.6743 30.727594 1951.0987 39.340704 1949.9728 49.249029C1948.3633 63.413667 1950.3239 84.422577 1954.0391 92.821344C1956.6677 98.763739 1957.8793 97.475121 1959.1666 87.367728Z"/>
</svg>
