<?xml version="1.0" encoding="UTF-8"?>
<svg xmlns="http://www.w3.org/2000/svg" viewBox="1204.84 8.48 98.64 96.84">
  <path d="M1209.7341 84.25C1210.1034 83.2875 1211.6441 80.66461 1213.158 78.421356C1214.6718 76.178103 1217.1218 71.903103 1218.6024 68.921356C1220.083 65.93961 1222.076 62.375 1223.0314 61.0C1224.8975 58.314126 1239.0 33.860192 1239.0 33.310224C1239.0 33.12832 1240.517 30.821182 1242.3712 28.183252C1244.2254 25.545321 1246.0328 22.512436 1246.3877 21.443507C1247.2658 18.799124 1250.7347 14.401395 1251.41 15.076627C1252.2162 15.882862 1241.449 35.460069 1237.9774 39.5C1236.2152 41.550712 1234.3098 44.886427 1231.4451 50.935473C1230.5503 52.824983 1228.1367 56.902468 1226.0815 59.996551C1224.0264 63.090634 1220.9762 68.294671 1219.3032 71.561078C1213.7493 82.405215 1211.5123 85.98342 1210.2814 85.991751C1209.5308 85.996832 1209.3206 85.327837 1209.7341 84.25Z M1213.0 43.573833C1213.0 43.247774 1215.1375 39.136838 1217.75 34.438421C1220.3625 29.740003 1223.4758 24.059575 1224.6684 21.815248C1227.1544 17.136859 1229.6698 14.336429 1230.5738 15.240471C1231.3051 15.971744 1227.4291 23.240867 1216.9568 40.777897C1215.5325 43.163075 1213.0 44.952584 1213.0 43.573833Z M1223.0 95.854988C1223.0 95.054744 1223.3956 93.9725 1223.8792 93.45C1224.3627 92.9275 1226.8111 88.569784 1229.32 83.766187C1231.8289 78.96259 1235.3702 72.88759 1237.1895 70.266187C1239.0089 67.644784 1240.9871 64.6 1241.5857 63.5C1249.3722 49.189858 1259.9583 30.584866 1262.9316 25.984594C1264.9943 22.793133 1267.2581 18.791002 1267.9623 17.090969C1269.1796 14.152192 1271.0 12.885624 1271.0 14.97746C1271.0 16.148066 1265.3131 26.872036 1263.5639 29.0C1262.8857 29.825 1261.413 32.3 1260.2911 34.5C1257.6503 39.67862 1253.9396 46.467805 1250.9996 51.5C1249.7143 53.7 1246.9319 58.611878 1244.8166 62.415285C1242.7013 66.218692 1240.4841 69.916715 1239.8895 70.633114C1238.1606 72.716374 1232.7187 82.006892 1229.5781 88.237079C1226.4398 94.462584 1223.0 98.446158 1223.0 95.854988Z M1240.0 98.854579C1240.0 98.089909 1241.0492 95.897308 1242.3316 93.982135C1243.614 92.066961 1245.3578 89.15 1246.2069 87.5C1247.0559 85.85 1248.5578 82.925 1249.5444 81.0C1250.5309 79.075 1253.1969 74.8 1255.4686 71.5C1257.7404 68.2 1261.274 62.575 1263.321 59.0C1268.2145 50.453765 1268.6829 49.682375 1273.8786 41.6111C1278.4407 34.524148 1280.8522 30.353244 1285.6505 21.25C1288.0056 16.781959 1290.0 14.614129 1290.0 16.522197C1290.0 17.718849 1281.97 32.900534 1281.0296 33.481694C1280.4664 33.829804 1278.8063 36.563831 1277.3405 39.557311C1275.8747 42.55079 1274.3288 45.0 1273.9051 45.0C1273.4814 45.0 1272.8157 46.0125 1272.4257 47.25C1272.0357 48.4875 1268.0679 55.468092 1263.6083 62.762426C1259.1487 70.05676 1254.5043 77.70676 1253.2873 79.762426C1247.6243 89.328299 1246.3886 91.473357 1244.8317 94.440246C1242.7445 98.417852 1240.0 100.92526 1240.0 98.854579Z M1261.0 97.871727C1261.0 96.302264 1266.5268 86.676418 1271.5484 79.5C1273.8575 76.2 1277.876 69.45 1280.4784 64.5C1283.0808 59.55 1285.7873 54.825 1286.4928 54.0C1287.1982 53.175 1289.2454 49.575 1291.0421 46.0C1292.8388 42.425 1294.5152 40.102652 1294.7675 40.839227C1295.0198 41.575802 1293.6728 45.175802 1291.7743 48.839227C1284.4271 63.016682 1277.3638 75.688914 1274.4058 80.0C1268.2618 88.954331 1263.0 97.330332 1263.0 98.156284C1263.0 98.620328 1262.55 99.0 1262.0 99.0C1261.45 99.0 1261.0 98.492277 1261.0 97.871727Z M1282.6118 95.180883C1282.3334 94.730368 1283.9202 91.692868 1286.1382 88.430883C1288.3561 85.168897 1291.2787 80.25 1292.6329 77.5C1293.987 74.75 1295.9636 71.375 1297.0252 70.0C1298.6871 67.847628 1298.9586 67.75917 1298.9778 69.363845C1298.9964 70.922381 1297.2372 75.006346 1294.125 80.629345C1292.442 83.670217 1283.9825 96.0 1283.5792 96.0C1283.3256 96.0 1282.8902 95.631397 1282.6118 95.180883Z"/>
</svg>
