<?xml version="1.0" encoding="UTF-8"?>
<svg xmlns="http://www.w3.org/2000/svg" viewBox="420.52 17.78 61.69 92.97">
  <path d="M429.3281 102.18402C428.73607 101.80781 427.29674 99.925 426.12958 98.0C423.32136 93.368386 423.36908 87.550525 426.25 83.318713C428.75349 79.641315 431.65399 79.071954 435.39548 81.523476C437.62602 82.984976 437.86475 82.871034 441.26413 78.722542C444.65365 74.586081 444.81145 74.044106 444.89485 66.252534C444.94281 61.772454 444.60264 57.872452 444.13893 57.585861C443.67521 57.29927 441.5877 57.935632 439.5 59.0C437.4123 60.064368 435.2944 60.681951 434.79355 60.372407C433.64869 59.664847 434.63889 54.865042 437.15382 48.93145L439.09017 44.362899L436.55713 39.93145C434.07452 35.588231 433.15643 28.361881 434.60699 24.581787C435.59656 22.003003 436.5758 22.702875 440.08923 28.5C441.92257 31.525 443.78177 34.0 444.22079 34.0C444.65981 34.0 446.25223 32.217078 447.7595 30.037951C449.26678 27.858825 451.05335 26.058825 451.72968 26.037951C452.406 26.017078 453.86207 27.769468 454.96539 29.932151C456.0687 32.094835 457.46116 34.16698 458.05974 34.53692C459.48306 35.416582 463.51564 31.583568 465.04091 27.901223C466.22258 25.048425 467.42847 24.266233 468.3489 25.755521C469.238 27.194106 466.82194 37.516239 464.71561 41.278046C462.81822 44.666711 462.72386 45.518469 463.8001 49.542397C464.46004 52.009865 465.0 55.206123 465.0 56.645194C465.0 59.071272 464.74818 59.22082 461.53968 58.700153L458.07937 58.138621L458.15123 66.798506L458.2231 75.458392L462.03809 79.273383C465.71373 82.949021 466.03525 83.06421 470.84016 82.426815C475.70994 81.780817 475.86665 81.841442 477.50212 85.004109C479.40607 88.685929 478.95434 93.502934 476.20901 98.793359C474.45438 102.17463 469.94411 104.33234 469.21336 102.14008C468.9978 101.49339 468.07411 100.21672 467.16071 99.303039C465.61294 97.754769 465.43587 97.823992 464.55696 100.3209C462.37575 106.51752 456.26252 100.44801 457.58497 93.398772C458.16805 90.290678 457.84037 89.430513 454.92889 86.426631C453.10222 84.541984 451.0733 83.0 450.4202 83.0C448.27069 83.0 441.79824 91.03301 442.49571 92.835141C444.1363 97.074082 444.12318 99.733961 442.45344 101.4037C440.812 103.04515 440.53318 102.95006 437.06902 99.567393C435.05968 97.605327 433.09715 96.0 432.70784 96.0C432.31853 96.0 432.0 97.323442 432.0 98.940983C432.0 102.11229 431.04304 103.2738 429.3281 102.18402Z M464.0 97.0C465.51747 93.336498 466.74215 93.191612 468.00974 96.525626C470.23315 102.37363 475.18704 99.771326 476.48783 92.07204C477.64948 85.19628 474.21357 82.060828 469.29359 85.506916C467.25434 86.93526 466.86029 86.727415 461.73601 81.520666L456.32985 76.0275L456.15966 65.395743C456.00433 55.691949 456.14268 54.807285 457.74474 55.260086C462.12554 56.49826 462.46229 56.436295 462.78498 54.332638C462.96784 53.140589 461.96602 49.893049 460.55872 47.115882C459.15142 44.338715 458.0 41.461051 458.0 40.721073C458.0 38.688659 454.33481 31.522759 452.52854 30.023687C450.47989 28.32346 449.48987 29.546454 443.23836 41.5C435.01081 57.23194 434.71014 59.813634 441.55315 55.970145C443.57835 54.832661 445.51988 54.186089 445.86766 54.533318C446.21545 54.880547 446.60347 59.651387 446.72993 65.135185L446.95985 75.105728L443.26647 80.052864C439.38909 85.246457 437.75653 85.886787 434.55887 83.468197C430.13498 80.122132 426.0 83.417047 426.0 90.288248C426.0 94.132635 427.41217 98.0 428.81595 98.0C429.22601 98.0 430.11654 96.5375 430.79488 94.75L432.02824 91.5L435.5771 95.25C437.52897 97.3125 439.56174 99.0 440.09436 99.0C441.63894 99.0 442.37506 95.975055 441.13278 94.732783C440.50975 94.109752 440.0 92.811429 440.0 91.847619C440.0 89.858629 449.45961 79.976197 451.29762 80.045027C451.95893 80.069792 454.44387 82.313595 456.81971 85.031255C461.01157 89.826218 461.10252 90.0745 459.89263 93.420394C458.88488 96.207278 458.89499 97.16854 459.94536 98.434166C461.80503 100.67493 462.59328 100.39611 464.0 97.0Z M441.8 39.8C443.53037 38.06963 443.29398 36.425808 440.75 32.498354C436.66508 26.191967 433.97031 29.350208 437.11609 36.757259C439.01317 41.224119 439.83925 41.760751 441.8 39.8Z M463.91844 38.631966C465.0633 36.779547 466.0 34.220356 466.0 32.944875C466.0 30.642826 465.978 30.646898 463.0 33.5C460.20156 36.18108 459.12582 39.792484 460.66667 41.333333C461.64115 42.307818 461.65243 42.298449 463.91844 38.631966Z"/>
</svg>
