<?xml version="1.0" encoding="UTF-8"?>
<svg xmlns="http://www.w3.org/2000/svg" viewBox="2350.24 21.56 16.98 86.76">
  <path d="M2354.6424 103.23034C2354.3807 102.80703 2353.8958 90.544525 2353.5648 75.980339C2353.2338 61.416153 2352.7517 47.025 2352.4936 44.0C2352.2354 40.975 2352.596 35.575 2353.295 32.0L2354.5657 25.5L2358.0329 25.764779C2364.1743 26.233785 2364.1372 26.167441 2363.8849 36.241026C2363.7574 41.333462 2364.0077 58.169078 2364.4411 73.653506C2365.218 101.4101 2365.2002 101.82247 2363.1803 102.90351C2360.8279 104.16245 2355.3481 104.37222 2354.6424 103.23034Z M2361.7822 101.15578C2362.7818 100.52151 2362.9547 96.061821 2362.5667 80.921096C2361.6942 46.869605 2360.7448 27.960317 2359.8809 27.426397C2359.4191 27.14101 2358.2297 27.341873 2357.2378 27.872759C2355.2602 28.931105 2355.2727 28.145948 2356.4414 78.0C2356.7186 89.825 2356.9577 100.0625 2356.9727 100.75C2357.0034 102.15535 2359.831 102.39391 2361.7822 101.15578Z"/>
</svg>
