<?xml version="1.0" encoding="UTF-8"?>
<svg xmlns="http://www.w3.org/2000/svg" viewBox="765.5 14.04 85.36 92.07">
  <path d="M 807,94.673118 C 807,94.008251 805.86449,91.793217 804.47665,89.75082 L 801.95329,86.03737 805.57588,76.268685 C 807.5683,70.895908 809.75858,65.9113 810.44317,65.191778 812.4375,63.09567 816.69271,64.824204 820.08632,69.108982 821.78127,71.249042 823.89632,73 824.78642,73 825.67652,73 827.85905,71.590473 829.63648,69.867718 833.4013,66.218708 835.17407,66.51431 837.61769,71.198551 838.88191,73.621975 839.3431,76.96005 839.35179,83.75 839.36311,92.588269 839.92038,94.50075 841.68289,91.75 845.45987,85.855242 846.17667,71.189034 843.02693,64.25 840.78152,59.30325 839.03265,58.937576 833.98213,62.358809 827.59616,66.684689 826.56782,66.611275 821.0333,61.434383 816.14452,56.861501 815.9439,56.779139 812.7615,58.03861 810.96768,58.748539 808.78957,59.930277 807.92126,60.664695 806.22013,62.103519 803.04845,62.474965 802.92349,61.25 802.88141,60.8375 802.61837,59.6 802.33895,58.5 800.1449,49.862363 801.41088,37 804.45511,37 805.17011,37 806.31531,36.325 807,35.5 808.40102,33.811869 813.5534,33.468377 814.5,35 814.83992,35.55 815.6,36 816.18907,36 818.01374,36 816.43434,26.989899 814.22183,24.777388 812.22371,22.779265 812.22181,22.780113 806.12031,28.389398 802.76369,31.475229 799.59623,34 799.08149,34 798.56676,34 796.87535,32.486634 795.3228,30.636965 789.71928,23.961029 784.71077,23.79106 781.41469,30.164978 777.64189,37.460759 781.68742,41.876895 790.04375,39.584533 791.94413,39.06321 793.06369,39.412896 794.47023,40.967103 796.02292,42.682808 796.3627,44.697171 796.40858,52.458314 796.43917,57.634266 796.16918,62.164152 795.80861,62.524727 795.44803,62.885302 792.59742,61.250824 789.47391,58.892554 784.09157,54.828845 783.6619,54.680434 781.25129,56.052395 777.46302,58.208422 772.65408,70.823036 772.83062,78.141121 773.12369,90.289351 776.95475,92.34901 776.98469,80.37443 777.00101,73.845947 780.24428,64.702007 783.50274,61.997726 785.00738,60.748984 785.39922,60.814858 786.71495,62.537747 787.53914,63.616986 788.88526,66.075 789.70632,68 790.52739,69.925 791.77983,72.175 792.48952,73 793.19921,73.825 794.78615,76.865598 796.01604,79.756885 L 798.25221,85.01377 795.61978,87.084437 C 792.31241,89.686021 790.51723,92.917233 791.71422,94.114225 792.2469,94.6469 793.52033,93.787489 794.8368,92.006866 797.89743,87.867139 800.39733,88.155388 803.0973,92.959336 805.17452,96.655249 807,97.456866 807,94.673118 z M 802.80542,96.75 C 799.89102,91.466775 797.11284,91.107645 795.06953,95.75 793.53467,99.237178 791.93758,99.834636 790.09276,97.611763 788.48821,95.67841 789.78452,88.50498 792.12046,86.390988 794.27019,84.445502 794.54185,80.472053 792.73526,77.398358 784.47448,63.343649 784.85961,63.81708 783.03238,65.470699 780.65907,67.618514 778.93346,73.895353 778.53385,81.833966 778.14956,89.468122 777.17288,94 775.91192,94 775.43272,94 774.1315,92.217927 773.02032,90.039838 769.3782,82.900683 770.65179,69.871147 776.10316,58.500687 779.44318,51.534084 782.08663,50.776351 788.33621,54.994138 790.96422,56.767765 793.42251,57.910822 793.79907,57.534264 794.62955,56.703785 794.37971,44.4234 793.50349,43.005649 793.12806,42.398184 790.74788,42.247222 787.52247,42.626304 782.66445,43.19727 781.92432,43.015232 779.58253,40.673436 776.83931,37.930216 776.42156,35.651616 777.93301,31.67619 779.37774,27.876275 784.98639,22 787.16852,22 788.24725,22 791.30717,24.235369 793.96833,26.967487 L 798.80682,31.934974 802.22549,29.217487 C 804.10576,27.722869 806.43431,25.709553 807.40006,24.743452 813.91771,18.223386 818.00372,21.406423 818.78839,33.615059 819.3317,42.068244 817.95659,43.937434 814.43947,39.526551 812.0431,36.521216 809.4611,36.477961 805.5,39.376793 803.78201,40.634063 803.50383,41.976516 803.52716,48.89738 803.56062,58.825843 804.36852,59.872965 809.84118,57.081022 815.57087,54.157953 817.44168,54.444173 822.38417,59 824.77089,61.2 827.34834,62.998073 828.11183,62.995719 828.87532,62.993364 831.47517,61.681049 833.88927,60.079463 839.39174,56.428959 841.7101,57.071159 844.70878,63.076535 846.48468,66.63309 846.92412,69.263818 846.95105,76.5 846.98152,84.689172 846.69173,86.085598 843.73443,92 841.36577,96.737186 839.94405,98.5 838.49217,98.5 836.8339,98.5 836.54239,97.913373 836.75289,95 837.78891,80.661329 837.46673,74.184512 835.61543,72.133241 L 833.73085,70.045112 829.97152,73.022556 C 827.90389,74.66015 825.65627,76 824.97681,76 824.29734,76 821.82086,73.93764 819.47351,71.416978 813.04141,64.50998 811.25115,65.231701 807.62054,76.195342 L 804.74109,84.890685 806.87054,88.976136 C 809.22928,93.501469 809.518,96.16359 807.96482,99.065741 806.43352,101.927 805.40707,101.46629 802.80542,96.75 z"/>
</svg>
