<?xml version="1.0" encoding="UTF-8"?>
<svg xmlns="http://www.w3.org/2000/svg" viewBox="2320.24 29.73 19.35 71.97">
  <path d="M 2323.7812 33 L 2323.5 35.5625 C 2324.1172 34.898257 2325.2583 34.891735 2326.6562 35.78125 C 2327.2933 36.186588 2328.131 38.126499 2328.5 40.09375 C 2329.061 43.08398 2328.729 44.188824 2326.4688 46.875 C 2324.9817 48.642218 2323.9824 50.326124 2324.2812 50.625 C 2324.5802 50.923877 2325.3548 50.240856 2325.9688 49.09375 C 2326.5826 47.946645 2327.6131 47.001002 2328.2812 47 C 2330.0266 46.997382 2329.2537 58.529303 2327.4062 60.0625 C 2325.5354 61.615218 2325.6014 63.353563 2327.5 62.625 C 2330.2069 61.58628 2329.4397 69.693884 2326.5 73.1875 C 2323.9258 76.246716 2323.3274 78 2324.875 78 C 2325.3608 78 2325.9937 77.1 2326.2812 76 C 2326.569 74.9 2327.2801 74 2327.8438 74 C 2328.4789 74 2328.7437 76.668463 2328.5312 81.03125 C 2328.2513 86.783257 2327.6916 88.698891 2325.5312 91.53125 C 2322.2383 95.848554 2323.241 98.425678 2326.625 94.34375 C 2328.8339 91.679284 2329.0718 91.618728 2330.3438 93.25 C 2331.7778 95.088988 2334 95.620683 2334 94.125 C 2334 93.642344 2333.4032 92.744884 2332.6562 92.125 C 2331.1901 90.908156 2329.6726 80.04454 2330.625 77.5625 C 2331.0588 76.432079 2331.6622 76.298551 2333.0312 77.03125 C 2336.7016 78.995542 2337.4032 77.886976 2334.1875 75.21875 C 2331.3617 72.874019 2330.8198 71.665675 2330.3125 66.75 C 2329.6855 60.67564 2330.8319 59.178005 2333.2188 63 C 2333.9056 64.1 2334.8323 65 2335.25 65 C 2336.803 65 2335.9129 62.819148 2333.3125 60.21875 C 2331.1746 58.080791 2330.6872 56.745132 2330.875 53.5625 C 2331.1693 48.57433 2331.5003 48.237766 2334 50.5 C 2337.3477 53.529638 2337.5835 51.220459 2334.2812 47.75 C 2332.5882 45.970739 2330.8969 42.925 2330.5 41 C 2329.4154 35.740236 2328.3111 34.237916 2325.0938 33.53125 C 2324.6162 33.426378 2324.2192 33.188598 2323.7812 33 z "/>
</svg>
