<?xml version="1.0" encoding="UTF-8"?>
<svg xmlns="http://www.w3.org/2000/svg" viewBox="1964.64 18.15 64.61 91.18">
  <path d="M2000.2435 99.106726C1997.1052 92.265972 1995.6773 92.085497 1991.781 98.037139C1988.4184 103.17353 1986.6518 104.14099 1985.607 101.41821C1984.1823 97.705556 1985.102 92.555368 1988.0434 87.775035L1991.0868 82.828872L1986.7934 74.222292C1984.432 69.488673 1982.0672 65.589677 1981.5382 65.557856C1979.2471 65.420045 1975.0 83.733977 1975.0 93.751178C1975.0 97.123112 1974.5401 100.16622 1973.9779 100.51364C1973.4089 100.86532 1971.818 98.65995 1970.3888 95.538167C1967.5797 89.402137 1967.5916 88.126421 1970.6174 71.0C1972.2918 61.523039 1975.7287 55.0 1979.0474 55.0C1980.1579 55.0 1983.3634 56.163937 1986.1708 57.586526C1992.4535 60.770254 1992.9635 60.228263 1992.9847 50.345157L1993.0 43.190313L1989.1627 43.704997C1981.1762 44.776217 1976.0286 38.863984 1978.3391 31.273454C1980.8057 23.169624 1986.3057 22.297046 1994.671 28.682394L1999.2648 32.18892L2005.8824 28.931258C2013.5577 25.152896 2021.8661 23.928752 2023.8239 26.287768C2025.8251 28.699137 2026.3178 37.021851 2024.7243 41.5C2022.6891 47.219698 2020.7162 47.081692 2018.2071 41.044117C2017.0541 38.269853 2015.6909 36.0 2015.1775 36.0C2013.1733 36.0 2007.369 38.934729 2005.6783 40.802944C2004.3049 42.320566 2003.8518 44.721221 2003.6986 51.292053C2003.5894 55.978634 2003.8167 60.134408 2004.2039 60.527107C2004.591 60.919806 2006.6808 59.836856 2008.8478 58.120552C2013.6648 54.305449 2014.4202 54.273654 2017.6522 57.75C2023.1191 63.630415 2025.0 69.143479 2025.0 79.287441C2025.0 87.522555 2024.6711 89.28401 2022.25 94.014205C2019.3237 99.731529 2016.6825 102.13829 2015.1573 100.47752C2014.6264 99.899463 2014.6732 94.800546 2015.2719 88.0C2016.1382 78.15923 2016.0547 75.958947 2014.6932 72.75C2011.6847 65.65948 2006.0181 69.596868 2003.8753 80.266737C2002.9102 85.072343 2003.0228 86.124389 2004.8952 89.794578C2007.1828 94.278653 2007.5959 99.018012 2005.9648 102.06574C2004.2955 105.18485 2002.6388 104.328 2000.2435 99.106726Z M2005.0 97.815724C2005.0 96.614373 2004.0326 93.633054 2002.8502 91.190571C2000.8633 87.086163 2000.7919 86.253126 2001.908 80.195747C2002.751 75.620598 2004.042 72.472164 2006.1839 69.767865C2010.2024 64.693977 2012.6971 65.012216 2015.8425 71.0C2018.0671 75.234822 2018.1649 76.147959 2017.503 86.495675C2016.8087 97.348148 2016.8249 97.468406 2018.7463 95.729569C2023.6185 91.320296 2024.5859 75.705098 2020.5339 66.87443C2017.6828 60.660859 2015.7592 58.0 2014.1183 58.0C2013.4797 58.0 2011.2793 59.092504 2009.2286 60.427787C2001.7834 65.275564 2001.4711 64.956637 2001.7132 52.753071C2001.8304 46.84226 2002.4246 41.075201 2003.0335 39.937383C2004.4541 37.283041 2012.7182 33.712459 2015.7057 34.462271C2017.1191 34.817013 2018.5859 36.45584 2019.5591 38.767521C2021.0563 42.323937 2021.1981 42.408436 2022.5652 40.55887C2024.3762 38.108753 2024.4279 30.967453 2022.6522 28.539045C2020.7983 26.00371 2014.6568 26.90979 2006.5097 30.920617C2003.0694 32.614278 1999.6893 34.0 1998.9985 34.0C1998.3076 34.0 1996.0117 32.436421 1993.8964 30.52538C1988.4136 25.571999 1985.262 24.994123 1982.3286 28.404343C1979.5373 31.649418 1979.3304 35.951566 1981.818 39.023525C1983.5619 41.177195 1986.6136 41.761426 1991.4043 40.858792C1992.7976 40.596278 1993.5508 41.305022 1994.2113 43.5C1995.0983 46.447887 1994.5702 61.268453 1993.5173 62.971929C1993.2218 63.450129 1990.0061 62.291286 1986.3713 60.396721C1978.9656 56.536593 1978.2079 56.70617 1975.0381 62.933102C1971.2968 70.282788 1968.9319 93.0 1971.9081 93.0C1972.3577 93.0 1973.2638 89.5125 1973.9217 85.25C1975.9164 72.325854 1979.4661 62.0 1981.9143 62.0C1982.9827 62.0 1990.4007 74.955727 1992.428 80.362292L1994.2512 85.224583L1991.7198 87.362292C1988.5971 89.99932 1987.0 93.069181 1987.0 96.434259C1987.0 99.9883 1989.4687 99.69691 1991.0165 95.960173C1991.709 94.288268 1993.2007 92.272374 1994.3314 91.480407C1996.146 90.209405 1996.6088 90.241026 1998.2762 91.749932C1999.3151 92.690137 2000.78 94.931032 2001.5315 96.729698C2003.0905 100.46076 2005.0 101.05867 2005.0 97.815724Z"/>
</svg>
