<?xml version="1.0" encoding="UTF-8"?>
<svg xmlns="http://www.w3.org/2000/svg" viewBox="2775.56 12.19 32.93 93.8">
  <path d="M 2777.5625 24.625 L 2777.6562 27.09375 C 2778.0725 26.454274 2778.7334 25.791505 2780.25 24.65625 C 2788.9253 18.162238 2794.3337 17.668353 2800 22.84375 C 2806.1252 28.438252 2806.1238 37.492354 2799.9688 48.0625 C 2794.6269 57.236214 2794.42 58.643286 2797.4375 65.8125 C 2798.9494 69.404788 2800 73.843619 2800 76.5625 C 2800 82.860615 2797.3882 91.38177 2794.3438 95 C 2789.2598 101.04195 2787.4288 97.833068 2791.1562 89.40625 C 2794.3863 82.104349 2794.1842 74.835327 2790.5625 67.6875 C 2787.8137 62.262586 2787.6963 61.579693 2788.8125 57.40625 C 2789.4697 54.949297 2791.0621 51.268088 2792.3438 49.21875 C 2798.5164 39.348166 2798.4753 29.898938 2792.25 27.0625 C 2790.0893 26.077994 2788.9012 26.318804 2784.2812 28.65625 C 2779.7136 30.96724 2778.7093 31.157423 2777.9375 29.9375 C 2777.8337 29.773378 2777.8043 29.677542 2777.7188 29.53125 L 2778 37.96875 C 2780.8632 34.181176 2786.9054 29 2789 29 C 2789.8502 29 2791.6151 29.751903 2792.9062 30.65625 C 2795.0212 32.137641 2795.192 32.83131 2794.6875 37.71875 C 2794.3796 40.70239 2793.6804 43.674602 2793.125 44.34375 C 2792.5697 45.012898 2790.6891 48.407461 2788.9688 51.875 C 2786.351 57.151198 2785.9805 58.86768 2786.5625 62.3125 C 2786.945 64.57645 2788.1777 67.683915 2789.3125 69.21875 C 2792.6886 73.785179 2792.8276 82.535774 2789.625 89.53125 C 2788.1874 92.671353 2787 96.105452 2787 97.15625 C 2787 101.72734 2793.8175 99.959307 2797.125 94.53125 C 2801.111 87.989688 2802.4637 71.170822 2799.5312 64.5 C 2798.8058 62.85 2797.9539 60.681815 2797.625 59.6875 C 2797.0093 57.825562 2799.4095 52.355375 2803.7188 45.84375 C 2805.722 42.816594 2806.2157 40.744129 2806.3438 34.65625 C 2806.4903 27.696157 2806.2888 26.928915 2803.4062 23.34375 C 2801.5536 21.039457 2798.665 18.9067 2796.1875 18.03125 C 2791.7341 16.457616 2789.8396 17.052639 2779.9062 23.15625 L 2777.5625 24.625 z "/>
</svg>
