<?xml version="1.0" encoding="UTF-8"?>
<svg xmlns="http://www.w3.org/2000/svg" viewBox="764.51 19.95 31.51 80.72">
  <path d="M770.34501 50.171259C772.78044 47.480139 772.36561 45.093849 769.25 43.872266C766.51562 42.800157 766.51278 42.789123 768.75 41.929241C771.35721 40.927152 771.60567 39.183029 769.5318 36.44113C767.76214 34.101431 767.51224 32.112244 769.2 33.8C769.86 34.46 771.27268 35.0 772.33929 35.0C774.07873 35.0 774.21756 34.48473 773.68641 30.0C773.03478 24.498073 773.52286 23.614821 775.02766 27.572763C776.25095 30.790252 779.14192 30.461233 780.10647 26.994749C780.75214 24.674304 780.8076 24.722948 780.90032 27.690983C781.04073 32.185877 782.30576 32.467354 785.89007 28.801237C788.0276 26.614922 789.0 26.110412 789.0 27.187717C789.0 28.049784 788.30328 29.333333 787.45174 30.04005C786.6002 30.746766 786.0377 32.264367 786.20174 33.412495C786.4396 35.077278 787.15813 35.470142 789.75 35.352552C793.60585 35.177617 794.02566 36.659545 790.5 38.0C788.58603 38.727691 788.0 39.666889 788.0 42.006634C788.0 43.800708 788.61944 45.300471 789.5 45.638374C791.77833 46.512652 791.29229 48.309698 788.94361 47.695505C787.8126 47.399738 785.58579 47.904666 783.99515 48.817566C781.55678 50.217001 780.59326 50.284948 777.85322 49.250697C774.98588 48.168398 774.35426 48.258009 772.48722 50.012004C769.8305 52.507865 768.115 52.635398 770.34501 50.171259Z M781.0 95.0C779.67974 92.53308 776.20837 92.403773 774.28849 94.75C772.99202 96.334381 772.90612 96.203028 773.38083 93.362077C773.94172 90.00542 771.14051 86.177095 769.06301 87.461056C768.47836 87.822394 768.0 87.689621 768.0 87.166006C768.0 86.64239 768.675 85.954956 769.5 85.638374C771.18815 84.99057 771.57461 79.473162 770.0 78.5C768.20322 77.38953 768.88524 75.870611 770.75 76.829689C773.68352 78.338448 774.99611 77.072872 775.06768 72.666667C775.1268 69.026923 775.26798 68.7742 776.18402 70.668251C777.04208 72.442412 777.83605 72.738586 780.55244 72.297778C783.21723 71.865342 784.32909 72.25205 786.18799 74.257837C788.13783 76.361746 788.70725 76.53881 789.79132 75.37831C790.49946 74.62024 791.51111 74.0 792.03943 74.0C793.81441 74.0 793.02117 75.756109 790.5 77.408043C788.76002 78.548119 788.0 79.951126 788.0 82.023053C788.0 84.568862 788.3798 85.0 790.62244 85.0C792.85741 85.0 793.05818 85.22497 791.98126 86.522578C791.22305 87.436165 789.94013 87.798385 788.77374 87.428188C787.51041 87.027223 786.00786 87.583441 784.48199 89.016916C782.56753 90.815459 782.30635 91.675561 783.06707 93.676405C784.23068 96.736934 784.22816 97.0 783.03518 97.0C782.50453 97.0 781.5887 96.1 781.0 95.0Z M783.77749 46.443296C788.39972 43.205766 785.56945 35.26075 779.24912 33.731423C776.71085 33.11724 773.0 36.912943 773.0 40.123428C773.0 42.386498 775.78989 45.890563 778.5 47.031351C781.26181 48.193904 781.28124 48.191739 783.77749 46.443296Z M783.06719 88.14668C785.96392 85.801049 786.50475 77.403468 783.86824 75.70846C780.87265 73.782593 776.3052 76.633982 774.40168 81.618287C772.80399 85.801779 772.80976 86.132307 774.51345 88.014865C776.76434 90.502063 780.09502 90.55339 783.06719 88.14668Z"/>
</svg>
