<?xml version="1.0" encoding="UTF-8"?>
<svg xmlns="http://www.w3.org/2000/svg" viewBox="897.13 16.14 35.7 90.81">
  <path d="M 921.625,79.5 C 919.87698,80.877864 918.31345,81.719697 917.78125,81.1875 914.91643,78.322678 914.09372,49.452087 916.625,40.9375 917.75348,37.141563 918.02887,33.705051 917.59375,29.53125 916.88263,22.710059 915.22469,20.270667 912.34375,21.8125 906.00433,25.205253 902,36.727523 902,51.53125 902,61.080988 903.07334,68.659075 906.125,80.59375 907.05681,84.237929 906.8726,85.285817 904.53125,89.90625 903.08024,92.769688 901.47846,96.221858 900.96875,97.5625 899.13378,102.38883 901.57628,99.839821 905.25,93.09375 909.17753,85.881612 909.61987,83.625681 908.0625,78.5625 903.62351,64.130935 902.66642,43.73462 906,34.25 908.51511,27.094064 912.16579,23.052146 914.4375,24.9375 916.46906,26.623539 916.45726,32.643638 914.375,42.65625 913.10689,48.754001 912.86429,53.634669 913.3125,64.5 913.90178,78.784928 915.16638,85 917.5,85 918.01721,85 920.06966,83.142024 922.40625,80.84375 L 921.625,79.5 z M 915.5,92.875 912.25,96.6875 C 910.47068,98.782809 909.00818,100.8375 909,101.25 908.99181,101.6625 909.45,102 910,102 910.55,102 911,101.48794 911,100.84375 911,99.541626 913.9215,96 915,96 915.37921,96 916.9957,97.125671 918.59375,98.5 923.2076,102.46793 923.78028,101.39751 919.4375,96.9375 L 915.5,92.875 z M 925.03125,85.4375 C 923.28032,87.60484 922,89.330538 922,89.75 922,90.997097 924.67976,95.280623 927.96875,99.3125 930.83755,102.82929 930.14279,98.986569 927.09375,94.46875 924.09064,90.018971 924.04502,89.863356 925.71875,87.21875 925.74217,87.181751 925.87995,87.040085 925.90625,87 L 925.03125,85.4375 z"/>
</svg>
