<?xml version="1.0" encoding="UTF-8"?>
<svg xmlns="http://www.w3.org/2000/svg" viewBox="1555.13 50.72 15.33 37.89">
  <path d="M 1558.9062,57.71875 1557.125,59.03125 C 1557.765,59.446419 1558.4129,59.945407 1559.1875,60.6875 1560.7301,62.1654 1562,62.891228 1562,62.3125 1562,61.157462 1560.4888,59.17468 1558.9062,57.71875 z M 1563.7188,54.1875 1564.5,55 C 1568.1278,58.786632 1568.4514,58.769524 1566.4375,54.875 1565.9032,53.841804 1565.8259,53.320993 1565.6875,52.71875 L 1563.7188,54.1875 z M 1562.3438,64.53125 C 1562.1718,64.406493 1562.0835,64.603811 1562.0625,65.15625 1562.0276,66.073766 1562.3116,67.645326 1562.6875,68.625 1563.0635,69.604674 1563.529,69.944316 1563.7188,69.375 1563.9086,68.805684 1563.6247,67.234124 1563.0938,65.90625 1562.7741,65.106733 1562.5157,64.656007 1562.3438,64.53125 z M 1563.8125,79.09375 C 1563.6715,79.057956 1563.4142,79.359052 1563,80 1562.4668,80.825 1562.0084,82.5125 1562,83.75 1561.9811,86.531197 1563.1353,86.612909 1565.5,84 1567.1277,82.201411 1567.1445,82 1565.6562,82 1564.746,82 1564.0084,81.2125 1564,80.25 1563.9934,79.502226 1563.9535,79.129544 1563.8125,79.09375 z"/>
</svg>
