<?xml version="1.0" encoding="UTF-8"?>
<svg xmlns="http://www.w3.org/2000/svg" viewBox="1445.98 14.57 75.43 93.47">
  <path d="M1479.6973 100.25C1479.0339 98.7375 1477.2129 95.3625 1475.6506 92.75L1472.81 88.0L1475.655 83.38876C1481.4455 74.003393 1481.4303 74.054926 1479.2624 71.135239C1478.1862 69.685858 1476.1233 67.829046 1474.6781 67.00899C1472.299 65.658974 1471.7215 65.695148 1468.5716 67.391526C1466.6581 68.421976 1464.1906 70.10543 1463.0881 71.132536C1460.2295 73.795738 1458.438 73.459449 1455.7232 69.75C1450.3776 62.446173 1449.4093 53.423668 1452.5653 40.324285C1455.5999 27.728668 1456.5924 25.018554 1458.7474 23.442738C1462.6903 20.55966 1463.603 23.561327 1461.2977 31.829855C1458.7256 41.054911 1459.7053 59.0 1462.781 59.0C1463.2377 59.0 1465.1614 57.855287 1467.0557 56.456194C1471.3289 53.300169 1474.1529 53.820933 1478.819 58.625469C1480.6758 60.537376 1482.7136 61.930053 1483.3475 61.720307C1485.1998 61.107387 1486.3861 53.469959 1485.3622 48.75C1484.4922 44.739905 1484.2584 44.514327 1481.2201 44.753806C1479.449 44.893399 1478.0 44.856686 1478.0 44.672221C1478.0 43.72753 1488.0401 38.005385 1489.6397 38.038421C1490.6629 38.059553 1493.75 40.112853 1496.5 42.601311C1501.4149 47.04879 1501.447 47.115353 1498.385 46.513077C1495.5069 45.94698 1495.2216 46.141864 1494.635 49.075187C1493.2837 55.831644 1494.2643 63.0 1496.5399 63.0C1497.2586 63.0 1499.1835 61.875 1500.8176 60.5C1505.6561 56.428687 1512.1311 57.691647 1515.1793 63.301285C1517.0248 66.697646 1517.9776 75.765749 1516.8337 79.047164L1515.8208 81.952943L1509.9203 75.752218C1504.5029 70.059061 1503.8885 69.682929 1502.4142 71.157187C1500.94 72.631444 1501.062 73.31036 1503.9043 79.45121C1505.6069 83.129791 1507.0 86.928231 1507.0 87.892188C1507.0 91.195044 1500.9739 101.0 1498.9439 101.0C1496.22 101.0 1495.4795 96.907276 1497.4974 93.005012C1499.4957 89.140668 1498.4663 85.778965 1493.9635 81.465028C1491.4194 79.027609 1490.8684 78.863452 1489.3736 80.097548C1488.4394 80.868897 1486.8834 83.3 1485.9159 85.5C1484.462 88.806144 1484.327 90.423915 1485.1376 94.82626C1485.8542 98.718307 1485.8001 100.53589 1484.9367 101.57626C1483.0992 103.79029 1481.0191 103.26375 1479.6973 100.25Z M1483.4007 93.606489C1482.7815 87.562602 1482.9303 86.907945 1486.1228 81.634851C1487.9803 78.566881 1489.9742 76.043961 1490.5538 76.028362C1492.0626 75.987756 1497.4898 81.931652 1499.392 85.707888C1500.8827 88.667374 1500.8804 89.18302 1499.362 92.366994C1497.809 95.62376 1497.9914 99.0 1499.7203 99.0C1501.0584 99.0 1505.0057 90.643065 1505.0028 87.816446C1505.0012 86.340491 1503.5959 82.874224 1501.8799 80.113632C1499.3437 76.033803 1498.8809 74.448534 1499.4071 71.643737C1500.5883 65.34713 1504.8431 66.18892 1511.0831 73.953797C1512.8453 76.146561 1514.7255 77.669663 1515.2614 77.338467C1516.553 76.540173 1515.4415 68.754491 1513.4998 64.999693C1512.2177 62.520369 1507.5546 59.0 1505.5525 59.0C1505.2518 59.0 1503.1668 60.66142 1500.9191 62.692044C1497.712 65.58947 1496.4829 66.163614 1495.2085 65.359695C1492.5383 63.675376 1491.722 58.234309 1492.9256 50.141998C1493.9184 43.466944 1493.8533 42.608453 1492.2633 41.401748C1490.2261 39.855765 1487.3663 39.598341 1486.5685 40.889147C1486.2663 41.378178 1486.4244 43.948309 1486.9199 46.60055C1487.8492 51.574819 1486.6548 62.722142 1485.0152 64.3768C1484.037 65.363985 1478.3696 62.170916 1475.5292 59.032286C1473.0098 56.248387 1468.8635 56.451895 1466.0 59.5C1461.6026 64.180863 1459.8311 62.474258 1458.2149 52.0C1457.26 45.811479 1457.8578 39.897838 1460.5653 28.75C1461.0802 26.629733 1460.8718 26.0 1459.6553 26.0C1457.9367 26.0 1455.8963 31.772065 1453.8808 42.335584C1452.1229 51.548762 1452.648 58.379683 1455.5924 64.603658C1458.6869 71.145013 1460.3057 71.414102 1467.0 66.5C1469.6224 64.575 1472.2689 63.0 1472.8811 63.0C1474.6404 63.0 1481.718 69.813535 1482.3099 72.076967C1482.6355 73.322254 1481.5038 76.654267 1479.4227 80.576936C1475.9244 87.171219 1475.2139 90.396136 1477.0143 91.508832C1477.5721 91.853608 1478.9313 93.905165 1480.0346 96.067849C1483.0109 101.90194 1484.1642 101.05868 1483.4007 93.606489Z M1477.603 29.227764C1478.7596 28.277494 1482.2292 25.546948 1485.3132 23.159884L1490.9205 18.819768L1497.4602 23.049128C1501.0571 25.375276 1504.0 27.917386 1504.0 28.698261C1504.0 30.281353 1503.7652 30.173443 1496.6378 25.314615C1491.2089 21.613691 1489.8095 21.319704 1488.0 23.5C1487.3153 24.325 1486.2194 25.0 1485.5646 25.0C1484.9099 25.0 1483.0808 26.35 1481.5 28.0C1479.9192 29.65 1477.9225 30.989994 1477.0629 30.977764C1475.8476 30.960474 1475.9677 30.571246 1477.603 29.227764Z M1479.3742 35.691193C1480.405 35.036037 1483.0351 33.0375 1485.2188 31.25C1487.4026 29.4625 1489.6497 28.0 1490.2126 28.0C1490.7755 28.0 1492.7308 29.312501 1494.5579 30.91667C1496.3849 32.520838 1498.6906 34.287087 1499.6816 34.841667C1500.6725 35.396247 1501.1919 36.141435 1500.8357 36.49764C1500.4795 36.853845 1497.7175 35.504906 1494.6978 33.499998L1489.2076 29.85471L1484.5272 33.427355C1481.953 35.39231 1479.3188 36.973537 1478.6734 36.941193C1478.028 36.908849 1478.3434 36.346349 1479.3742 35.691193Z"/>
</svg>
