<?xml version="1.0" encoding="UTF-8"?>
<svg xmlns="http://www.w3.org/2000/svg" viewBox="1632.19 15.64 22 90.74">
  <path d="M 1635.7812 52.6875 L 1635.7812 58.15625 C 1636.7683 58.135173 1637 58.862451 1637 60.34375 C 1637 61.235462 1636.6182 62.049226 1635.7812 62.9375 L 1635.7812 67.6875 L 1635.6562 67.9375 C 1636.8005 68.593741 1636.9006 71.32202 1636.4688 77 C 1635.9179 84.242928 1635.5573 86.815729 1634.1875 88.28125 L 1634.375 88.40625 L 1634.375 92.28125 C 1634.4154 92.294515 1634.571 92.258528 1634.5938 92.28125 C 1634.9257 92.613154 1634.7522 93.213493 1634.375 93.90625 L 1634.375 98.875 C 1635.1581 98.757948 1635.6292 99.066655 1636.3125 99.75 C 1637.1513 100.58876 1640.1465 101.51306 1642.9375 101.78125 L 1648 102.25 L 1648.2188 94.875 C 1648.3399 90.817524 1648.4607 85.475 1648.5 83 C 1648.5393 80.525 1648.897 74 1649.2812 68.5 C 1649.6655 63 1650.2114 52.425 1650.5 45 C 1650.7886 37.575 1651.2947 28.839525 1651.625 25.59375 C 1652.1852 20.089346 1652.1152 19.759546 1650.375 20.5625 C 1649.3488 21.035977 1646.25 21.502001 1643.5 21.59375 L 1638.5 21.75 L 1637.5 37.46875 C 1636.8798 47.221207 1636.5706 50.72412 1635.7812 52.6875 z M 1649.0938 23.75 L 1648.625 33.625 C 1647.6599 53.644694 1645.7949 88.574543 1645.5625 91 C 1645.4307 92.375 1645.2423 94.7375 1645.1562 96.25 C 1645.0293 98.482525 1644.5184 99 1642.4688 99 C 1640.7526 99 1639.6961 98.279472 1639.1562 96.75 C 1638.2775 94.260994 1638.5408 56.428679 1639.5625 37.25 C 1640.1836 25.591241 1640.2982 25.012996 1642.3438 25 C 1643.5258 24.99249 1645.5189 24.681869 1646.7812 24.34375 L 1649.0938 23.75 z "/>
</svg>
