<?xml version="1.0" encoding="UTF-8"?>
<svg xmlns="http://www.w3.org/2000/svg" viewBox="638.53 27.23 36.28 80.28">
  <path d="M 640.53125 37.75 L 640.8125 40.03125 C 641.76855 39.379849 642.37412 39.150385 643.46875 38.34375 C 649.68404 33.763708 654.34251 33.318147 657.15625 37.03125 C 658.55237 38.873619 659.28464 42.15929 659.875 49.15625 C 660.47141 56.224896 661.29827 59.950301 663.03125 63.15625 C 666.39744 69.383574 666.39402 78.879869 663.03125 85.21875 L 660.59375 89.84375 L 662.5 93.40625 L 664.4375 96.9375 L 662.15625 99.0625 C 657.68027 103.23251 652.18151 98.75407 655.09375 93.3125 C 656.20765 91.231168 656.1312 90.417382 654.59375 87.5625 C 653.39988 85.345625 653.0368 83.432896 653.53125 81.875 C 654.19381 79.787468 654.10794 79.670201 652.65625 80.875 C 651.26307 82.031237 650.92425 81.993827 650.375 80.5625 C 649.32761 77.833038 650.62646 66.513273 652.28125 63.90625 C 654.99446 59.63174 655.31651 55.32982 653.34375 49.84375 C 650.82229 42.831831 648.62518 42.017265 641.46875 45.34375 L 641.78125 47.9375 C 644.67738 46.363938 647.52253 45.249908 648.5 45.625 C 650.43792 46.368652 653.24411 54.085877 652.84375 57.59375 C 652.54884 60.177634 651.98933 60.587301 647.75 61.40625 C 645.1375 61.91093 643 62.736007 643 63.21875 C 643 63.701492 644.575 63.798632 646.5 63.4375 C 650.42615 62.700949 650.51331 62.922488 648.59375 68.4375 C 647.80027 70.717199 646.35033 72.702971 645.125 73.15625 C 642.47515 74.136496 642.32147 75.402857 644.9375 74.71875 C 646.09111 74.417073 647.10097 74.810536 647.4375 75.6875 C 648.37728 78.136528 648.06814 84 647 84 C 646.45 84 646 84.510853 646 85.125 C 646 85.749078 646.88289 86.010882 648 85.71875 C 649.40836 85.350458 650.58668 86.015173 652 88 C 653.92905 90.709094 653.95201 90.932615 652.28125 93.84375 C 650.57882 96.810056 650.59841 96.944648 653.03125 99.5625 C 654.3967 101.0318 656.4 102.57472 657.5 103 C 659.74753 103.86892 660.5388 103.57836 663.75 100.6875 C 666.12925 98.545592 666.73247 94.138725 664.90625 92.3125 C 664.30968 91.715934 663.97218 90.175934 664.15625 88.875 C 664.41962 87.013493 665.132 86.499058 667.4375 86.46875 C 670.8747 86.423566 671.98735 84.491787 669.03125 83.71875 C 667.66005 83.360174 667 82.375104 667 80.6875 C 667 76.697615 667.93589 75.162628 670.0625 75.71875 C 672.813 76.438021 672.48113 74.520089 669.625 73.21875 C 667.77688 72.376686 667.13047 71.157662 666.78125 67.8125 C 666.53307 65.435156 666.45555 63.337002 666.625 63.125 C 666.79445 62.912998 668.07659 63.462818 669.46875 64.375 C 671.52665 65.723389 672 65.769756 672 64.625 C 672 63.012531 667.79782 60 665.5625 60 C 663.24459 60 662.29278 57.178199 661.78125 48.84375 L 661.3125 41.1875 L 661.75 40.78125 L 660.46875 37.59375 C 659.93834 37.330725 659.45586 36.851788 659 36 C 658.41434 34.905693 656.69449 33.373043 655.1875 32.59375 C 651.87971 30.883221 649.20661 31.858505 640.53125 37.75 z "/>
</svg>
