<?xml version="1.0" encoding="UTF-8"?>
<svg xmlns="http://www.w3.org/2000/svg" viewBox="2910.77 8.83 49.48 94.46">
  <path d="M2946.576 92.392692C2944.9678 89.318749 2943.0553 86.574727 2942.326 86.294864C2940.4222 85.564291 2940.6425 84.633224 2943.955 79.409869C2949.4235 70.786971 2951.136 54.788675 2947.9245 42.326486C2944.9052 30.609964 2939.4389 20.0 2936.4217 20.0C2931.8257 20.0 2921.529 35.260165 2920.5141 43.575971C2920.0078 47.723839 2920.6187 54.805429 2922.3202 64.514802C2922.6895 66.621892 2928.2374 78.325675 2930.1888 81.114127C2931.1012 82.417925 2930.5187 83.868212 2927.1592 88.657571C2924.8716 91.918695 2923.0 95.129838 2923.0 95.793444C2923.0 96.45705 2922.55 97.0 2922.0 97.0C2920.2422 97.0 2920.9113 95.052866 2924.5 89.723898C2928.3494 84.007901 2928.5264 83.249348 2926.8626 79.597838C2925.9672 77.632509 2924.8671 77.037596 2921.6903 76.800785C2919.4711 76.635353 2917.4959 76.013659 2917.3008 75.419242C2917.0792 74.743849 2918.0815 74.505114 2919.9731 74.782741C2922.1878 75.107796 2923.0 74.826834 2923.0 73.735623C2923.0 70.752845 2920.0344 65.252572 2917.5477 63.623205C2916.1465 62.705084 2915.0 61.459168 2915.0 60.854502C2915.0 60.062455 2915.3752 60.066475 2916.342 60.868879C2918.1511 62.370251 2919.0 61.301079 2919.0 57.521392C2919.0 55.186197 2918.2273 53.804862 2916.0 52.158121C2914.35 50.938223 2913.0143 49.166097 2913.0318 48.220063C2913.0616 46.607708 2913.1468 46.609583 2914.392 48.25C2916.4745 50.993338 2917.6917 50.329721 2918.3711 46.08046C2918.8178 43.28694 2918.4338 40.845027 2917.0345 37.58046C2915.9546 35.061207 2915.4965 33.0 2916.0165 33.0C2916.5365 33.0 2917.2492 34.144599 2917.6003 35.543554C2918.363 38.582496 2919.5978 38.370646 2921.7446 34.832498C2923.1988 32.435775 2923.1922 31.924872 2921.6656 28.707699C2919.7295 24.627684 2919.6407 24.0 2921.0 24.0C2921.55 24.0 2922.0 24.6199 2922.0 25.377555C2922.0 26.135211 2922.5808 27.23717 2923.2908 27.826355C2924.2658 28.635587 2925.2725 28.031601 2927.4067 25.356932C2929.6747 22.514519 2930.1228 21.14415 2929.6788 18.408133C2929.0777 14.704229 2930.4172 13.663347 2931.3237 17.129881C2931.7467 18.747323 2932.3161 19.068142 2933.6903 18.46332C2934.6857 18.025278 2936.7375 17.723716 2938.25 17.793183C2940.3298 17.888703 2941.0 17.456232 2941.0 16.01876C2941.0 14.973361 2941.4446 13.843274 2941.9879 13.507455C2942.6099 13.123049 2942.7749 14.490276 2942.4334 17.198438C2942.0161 20.508023 2942.3792 22.278792 2944.0081 24.877113L2946.1252 28.254226L2949.0626 25.440022C2950.6782 23.89221 2952.0 23.141798 2952.0 23.77244C2952.0 24.403082 2950.8635 25.972915 2949.4744 27.260959C2947.2518 29.321804 2947.0454 30.067902 2947.7539 33.477924C2948.769 38.363949 2950.2805 38.879396 2953.4775 35.429803C2954.8649 33.932786 2956.0 33.138238 2956.0 33.664139C2956.0 34.190041 2954.6925 35.957677 2953.0944 37.59222C2950.4021 40.345966 2950.2521 40.892084 2951.0509 45.032058C2951.525 47.489426 2951.9325 49.8375 2951.9564 50.25C2952.0409 51.704644 2954.913 50.977859 2955.8753 49.25833C2956.4114 48.300412 2957.1451 47.811761 2957.5058 48.172439C2957.8665 48.533117 2956.8188 50.111459 2955.1776 51.679866C2953.0355 53.726914 2952.1038 55.655678 2951.8753 58.515757C2951.5729 62.301073 2951.6929 62.4906 2954.2785 62.311736C2957.999 62.054363 2957.6943 63.298484 2953.5531 65.273288C2950.8655 66.554912 2949.9579 67.70742 2949.4331 70.505129C2948.6311 74.779771 2949.3939 75.859626 2952.0455 74.203671C2953.1205 73.532331 2954.0 73.381765 2954.0 73.869081C2954.0 75.179714 2951.8486 76.641153 2948.8766 77.349393C2945.2585 78.211599 2943.0804 83.320456 2945.2842 85.775521C2947.1913 87.900034 2950.315 95.558225 2949.8448 96.956418C2949.6552 97.520311 2948.1842 95.466634 2946.576 92.392692Z M2933.7971 75.25C2928.02 69.085222 2925.0749 59.593185 2925.3329 47.969858C2925.484 41.158607 2925.8826 39.77548 2929.5076 33.482089C2931.7118 29.655394 2934.255 26.381985 2935.1593 26.207847C2940.1705 25.242765 2945.6949 51.595848 2943.0516 63.856786C2941.6856 70.19268 2938.4555 78.0 2937.2001 78.0C2936.7458 78.0 2935.2145 76.7625 2933.7971 75.25Z M2938.8787 73.226626C2939.4007 72.25127 2940.5699 68.589307 2941.477 65.08893C2942.9004 59.595814 2942.9634 57.477233 2941.9371 49.612304C2940.5865 39.260775 2938.5852 32.839587 2935.9729 30.47546C2934.2843 28.947286 2933.9688 29.2309 2930.5434 35.355962C2927.1412 41.439701 2926.9198 42.36308 2927.1095 49.679461C2927.3346 58.357941 2930.5685 68.8473 2934.2161 72.729997C2936.7848 75.464302 2937.6328 75.554623 2938.8787 73.226626Z M2939.2679 95.0C2938.4037 92.8 2937.1225 91.0 2936.4208 91.0C2935.7191 91.0 2933.9923 92.4625 2932.5836 94.25C2931.1748 96.0375 2930.0172 97.136113 2930.0111 96.691362C2929.9951 95.528127 2936.179 88.0 2937.1505 88.0C2937.8819 88.0 2943.0 97.158009 2943.0 98.466756C2943.0 98.76004 2942.5138 99.0 2941.9196 99.0C2941.3253 99.0 2940.132 97.2 2939.2679 95.0Z"/>
</svg>
