<?xml version="1.0" encoding="UTF-8"?>
<svg xmlns="http://www.w3.org/2000/svg" viewBox="245.5 18.9 34.63 90.2">
  <path d="M 277.875 84.25 C 277.778 84.418397 277.70593 84.75104 277.59375 84.875 C 274.91478 87.835226 267.24307 91.149721 263.84375 90.8125 C 261.15832 90.5461 260.48642 89.891031 259.28125 86.5 C 258.11037 83.205462 258.02632 80.295431 258.90625 70 C 259.81262 59.395265 260.97258 52.712289 265.625 30.96875 C 266.2096 28.236596 262.87714 23 260.5625 23 C 257.59761 23 254.30434 27.053964 252.6875 32.6875 C 248.95198 45.703071 247.5 57.2658 247.5 74 C 247.5 93.719881 248.05973 96.8601 252.40625 101.46875 C 255.00027 104.21922 256.51511 105 259.28125 105 C 263.12712 105 270.57496 102.17316 275.03125 99 C 276.67074 97.832579 277.55429 97.273278 278.125 97.25 L 278.125 93.09375 C 276.9412 94.730541 274.39207 96.440998 269.46875 98.9375 C 257.8089 104.84994 252.20364 101.93281 250.15625 88.8125 C 248.11145 75.708811 248.49933 66.407075 252.03125 45.5 C 254.65887 29.945867 256.3059 26 260.09375 26 C 262.089 26 263.47783 29.232151 263.125 33 C 262.78934 36.584496 260.90609 41.04806 259.96875 40.46875 C 259.52981 40.197472 258.91523 43.484231 258.59375 47.75 C 258.27227 52.015768 257.55076 58.004393 257 61.0625 C 256.44925 64.120608 255.99794 71.320608 256 77.0625 C 256.00309 85.705492 256.35949 88.059363 258 90.75 C 260.74678 95.255051 264.95356 95.44998 272.5 91.4375 C 275.71471 89.728222 277.28865 89.091883 278.125 89.25 L 278.125 85.125 L 277.875 84.25 z "/>
</svg>
