<?xml version="1.0" encoding="UTF-8"?>
<svg xmlns="http://www.w3.org/2000/svg" viewBox="2967.71 16.43 52.68 86.84">
  <path d="M2976.5 97.508083C2974.85 96.77726 2972.7004 94.811475 2971.723 93.139672C2970.1956 90.526936 2970.1069 89.460995 2971.0917 85.550014C2971.7219 83.047506 2972.649 81.0 2973.152 81.0C2973.6551 81.0 2975.6352 82.56858 2977.5524 84.485733C2981.7368 88.670121 2985.5357 89.8929 2987.6823 87.746315C2989.4141 86.014506 2988.5587 83.729722 2984.2327 78.532115C2982.0197 75.873258 2981.8113 74.884082 2982.2314 69.032115C2982.6957 62.564174 2984.9866 56.6423 2989.2608 50.861111C2991.9208 47.263278 2990.9897 43.652592 2986.9729 41.988772C2980.2776 39.215482 2979.2577 33.445069 2984.2933 26.827739C2986.62 23.770204 2988.6801 22.226747 2991.3123 21.568994C2996.0821 20.37708 2997.4912 21.577861 2995.9817 25.548128C2993.4652 32.16699 2997.8475 35.94696 3003.3642 31.915966C3005.0889 30.655752 3007.088 28.809118 3007.8067 27.812334C3009.6487 25.25753 3011.0 25.562112 3011.0 28.532119C3011.0 32.771712 3008.2254 38.024982 3003.8961 41.982372C3000.6257 44.971803 2999.9254 46.189686 3000.4772 47.928212C3001.1379 50.009775 3004.5648 52.0 3007.4884 52.0C3008.2354 52.0 3010.2311 50.834998 3011.9233 49.411106C3013.6155 47.987215 3015.0 47.272213 3015.0 47.822213C3015.0 48.372213 3013.5952 50.004239 3011.8783 51.448938C3009.3882 53.544272 3007.9608 53.99608 3004.8228 53.682276C3000.1297 53.212975 2999.4949 52.644508 2998.1657 47.721483C2997.3348 44.644109 2997.4332 43.716308 2998.6962 42.721483C3002.6663 39.594241 3007.0 35.094739 3007.0 34.1C3007.0 32.498743 3004.4492 32.753823 3003.0 34.5C3001.286 36.565303 2996.6565 36.382933 2994.655 34.171259C2992.7331 32.047567 2992.5535 29.702748 2994.0926 26.826899C2995.4582 24.275258 2993.9954 22.549286 2991.2151 23.431716C2988.1485 24.40503 2983.7947 31.342015 2984.1751 34.648884C2984.4208 36.785046 2985.5365 38.044186 2988.75 39.811939C2992.3813 41.809494 2993.0 42.616988 2993.0 45.358647C2993.0 47.310793 2991.6592 50.64863 2989.5762 53.881651C2985.7181 59.870113 2983.4827 67.663721 2984.3621 72.060731C2984.6862 73.68097 2986.5143 77.327568 2988.4247 80.164282C2991.1178 84.163344 2991.6797 85.729909 2990.9261 87.138054C2988.551 91.575955 2983.3822 91.821094 2977.8846 87.756563C2975.1795 85.756618 2974.8515 85.719928 2973.3249 87.246561C2971.7982 88.773194 2971.8745 89.146674 2974.3849 92.438002C2975.8727 94.388559 2978.1977 96.262489 2979.5515 96.602292C2983.2577 97.532489 2988.7603 96.173618 2990.9934 93.776719C2992.0854 92.604574 2993.3144 91.981075 2993.7245 92.391166C2994.5695 93.236183 2990.6696 96.607961 2987.1849 98.045175C2984.0876 99.322603 2980.1498 99.124664 2976.5 97.508083Z M3002.5 86.280761C2994.7176 84.384816 2990.9594 70.436489 2995.7593 61.263194C2997.8688 57.231801 2998.3091 57.12283 3006.7404 58.54534C3009.6384 59.034283 3011.4664 58.857805 3012.5146 57.987885C3013.3582 57.287798 3014.3421 57.008774 3014.7012 57.367832C3015.0602 57.72689 3014.4868 58.706303 3013.427 59.544305C3011.5368 61.038862 3004.7756 61.024402 3000.8893 59.517492C2998.5436 58.607949 2996.0 64.628054 2996.0 71.089249C2996.0 74.926281 2996.6171 77.282497 2998.25 79.680727C3001.7188 84.775174 3004.4636 85.236121 3011.2215 81.859098C3017.4367 78.753251 3018.0 78.584588 3018.0 79.829311C3018.0 80.603909 3005.9039 87.137984 3004.9402 86.883999C3004.6981 86.820198 3003.6 86.548741 3002.5 86.280761Z M2997.2225 93.443296C2994.3112 91.404163 2994.3351 89.552513 2997.25 91.312205C3000.5041 93.276687 3006.4974 93.397224 3010.1566 91.571784C3014.1375 89.585842 3015.2847 90.510897 3011.9851 93.046157C3008.8561 95.450231 3000.4121 95.67739 2997.2225 93.443296Z"/>
</svg>
