<?xml version="1.0" encoding="UTF-8"?>
<svg xmlns="http://www.w3.org/2000/svg" viewBox="2787.73 16.75 116.04 90.31">
  <path d="M 2883,41.05716 C 2883,40.538598 2884.005,38.410972 2885.2333,36.329102 2886.8406,33.604969 2887.4667,30.945835 2887.4667,26.843147 2887.4667,22.122278 2887.7028,21.338361 2888.8403,22.282429 2890.764,23.878927 2889.6748,30.734884 2886.5031,36.99382 2884.0581,41.818823 2883,43.046151 2883,41.05716 z M 2883,93.52568 C 2883,93.264804 2884.4625,92.342546 2886.25,91.476217 L 2889.5,89.901073 2887.1392,91.950537 C 2884.9272,93.870835 2883,94.604222 2883,93.52568 z M 2875.3767,90.351628 C 2873.7969,89.532067 2871.793,88.217675 2870.9235,87.430758 2868.7396,85.454357 2866.635,85.640864 2864.5,88 2862.4757,90.236808 2857.7738,90.664224 2856.2495,88.75 2853.3352,85.09037 2852.612,80.173945 2854.0656,73.903073 2856.0145,65.495583 2857.5319,64.692758 2864.4294,68.419741 2869.6883,71.261315 2869.9038,71.293054 2872.4796,69.605305 2875.1279,67.870069 2877.6542,62.990288 2880.657,53.809939 2881.9199,49.948609 2882.9306,48.638016 2885.4603,47.581017 2891.9358,44.87538 2895.4839,37.195243 2895.1993,26.5 2895.0689,21.59749 2895.2474,20.854694 2896.1754,22.439117 2898.494,26.398022 2896.5531,37.454598 2892.4366,43.737055 2891.6187,44.985442 2889.1608,47.135953 2886.9747,48.515969 2884.7886,49.895985 2883,51.505194 2883,52.091989 2883,53.98054 2877.7764,66.410585 2875.7905,69.247612 2872.9637,73.286033 2869.8617,73.660168 2864.1158,70.655716 2859.3128,68.144325 2859.1902,68.132332 2857.4929,70.007897 2854.9881,72.775667 2854.6145,79.765717 2856.7459,83.986925 2858.884,88.22166 2861.1432,88.81915 2864.6341,86.073178 2868.0187,83.410865 2869.1204,83.46334 2873.5951,86.5 2878.0801,89.543568 2880.675,89.653964 2883.5801,86.924795 2884.795,85.783432 2886.0438,85.26187 2886.3552,85.765768 2886.9286,86.693546 2882.8578,90.131112 2879.8744,91.238401 2878.9804,91.570237 2876.9564,91.171189 2875.3767,90.351628 z M 2840,62.094236 C 2840,61.140351 2831.2263,55 2829.8634,55 2829.4268,55 2827.532,56.35 2825.6528,58 2823.7735,59.65 2821.5776,61 2820.773,61 2818.3637,61 2816.0577,57.632007 2815.1536,52.792674 2814.1426,47.380997 2815.297,44.054254 2819.25,40.987973 2823.7758,37.477384 2822.1844,33.338681 2817.4912,36.413804 2814.4148,38.42953 2812.3794,38.431055 2811.607,36.418213 2810.5523,33.669776 2810.99,30.626202 2813.0331,26.5 2815.1143,22.297053 2815.1085,22.207252 2813.3297,31.101263 2812.5949,34.775494 2814.9985,35.886224 2818.5908,33.532455 2821.0251,31.937422 2821.242,31.945092 2822.5513,33.672504 2823.3131,34.677627 2823.9507,35.859847 2823.9682,36.29966 2824.0389,38.077777 2820.8537,43.007943 2818.9896,44.005539 2815.4601,45.894507 2816.8798,58 2820.6309,58 2821.5551,58 2823.7862,56.875 2825.5889,55.5 2829.9602,52.165818 2831.9837,52.341164 2837.4709,56.529657 2840.0142,58.470968 2842.5236,59.79441 2843.0475,59.47064 2844.2953,58.699447 2844.2791,48.390007 2843.0264,46.049287 2842.4909,45.04871 2841.0159,43.969827 2839.7487,43.651767 2836.5608,42.851667 2832.2131,38.012399 2831.9756,35 2831.612,30.385965 2831.9844,29.378268 2835.6242,25.125905 2838.6567,21.583183 2839.7588,20.941468 2842.3742,21.195907 2845.455,21.495618 2845.4955,21.57012 2845.1877,26.366409 2844.73,33.497854 2845.2848,34.421204 2848.9032,32.550059 2850.5197,31.714124 2852.8084,29.673388 2853.9893,28.015089 2855.1701,26.35679 2856.5555,25 2857.0681,25 2857.5806,25 2858,27.407483 2858,30.349962 2858,34.622224 2857.4339,36.485549 2855.1898,39.599962 2852.7224,43.024187 2852.4087,44.274171 2852.6186,49.845561 2852.7502,53.335619 2853.112,56.44536 2853.4228,56.756097 2853.7335,57.066833 2854.8868,56.50744 2855.9856,55.513 2857.9281,53.755051 2858.1272,53.805468 2863.1643,57.331696 2869.1482,61.520621 2870.1226,61.212789 2873.1366,54.181258 2875.9796,47.54889 2875.5706,43.906012 2871.7115,41.48677 2869.1354,39.871848 2868.4368,38.704912 2868.1808,35.588555 2867.6732,29.410282 2871.8375,28.542517 2875.5319,34.056726 2876.6144,35.672364 2878.0467,36.995543 2878.7148,36.997125 2880.5871,37.001556 2882,33.562141 2882,29 2882,26.727684 2881.5342,23.998101 2880.9648,22.934259 2880.2872,21.668209 2880.2751,21 2880.9296,21 2884.3305,21 2884.6761,30.858088 2881.4911,37.017234 2879.4809,40.904417 2877.8333,40.781324 2874.5678,36.5 2871.4586,32.423657 2870,32.054839 2870,35.345012 2870,37.787042 2872.1711,40.222388 2875.3618,41.359523 2876.9603,41.929192 2877.1257,42.676362 2876.531,46.64184 2874.6995,58.855079 2868.3089,65.367203 2863.289,60.135609 2859.7637,56.461723 2857.6136,55.95669 2854.4307,58.054912 2852.8188,59.117462 2851.1191,59.989787 2850.6535,59.993411 2850.1879,59.997035 2849.9629,55.733132 2850.1535,50.51807 2850.4618,42.081067 2850.7436,40.865678 2852.7101,39.489328 2854.8174,38.014461 2856.8904,31.557057 2855.6536,30.320291 2855.3311,29.997742 2853.4324,31.169173 2851.4344,32.92347 2849.2229,34.865144 2846.9601,35.993162 2845.6508,35.806551 2843.7502,35.535657 2843.4654,34.773018 2843.2023,29.25 2843.0385,25.8125 2842.4917,23 2841.9871,23 2841.4825,23 2839.4789,24.396616 2837.5348,26.103592 2831.7831,31.153608 2832.8358,37.345076 2840.0737,41.037614 2844.6581,43.376367 2846,46.085111 2846,53 2846,59.43776 2844.5839,63 2842.0248,63 2840.9111,63 2840,62.592406 2840,62.094236 z M 2805.2278,31.05965 C 2805.5113,27.098079 2806.3016,23.326515 2806.984,22.678397 2807.9598,21.751651 2808.0807,21.977183 2807.5499,23.734492 2806.8744,25.971095 2806.7116,31.834816 2807.2263,35.392371 2807.3768,36.433175 2806.8728,37.504739 2806.1062,37.773624 2804.9687,38.172632 2804.8072,36.938363 2805.2278,31.05965 z M 2799.25,89.01096 C 2796.0911,87.084934 2794.9398,85 2797.0352,85 2797.6045,85 2799.1883,85.73253 2800.5548,86.627845 2804.0448,88.914606 2811.0364,87.972365 2815.4269,84.623557 2819.6952,81.367953 2821.1504,81.350595 2825.7852,84.5 2830.531,87.724843 2836.4406,87.913692 2838.0577,84.892181 2840.9867,79.419262 2833.7415,61.686051 2829.7261,64.5 2820.0063,71.311581 2817.9431,72.035229 2814.8839,69.705861 2811.7977,67.355998 2807.6542,57.879958 2807.1886,52.10698 2806.7858,47.11346 2806.2987,46.093242 2802.7367,42.782262 2798.8852,39.202173 2798.7421,38.843234 2798.8722,33.08773 2799.0013,27.375329 2800.2919,22 2801.5343,22 2801.8553,22 2801.837,22.454722 2801.4935,23.010493 2801.15,23.566264 2800.6959,26.708397 2800.4843,29.993011 2800.1424,35.302195 2800.3983,36.327698 2802.7898,39.232518 2804.2693,41.029633 2806.3079,43.113262 2807.32,43.862805 2808.5795,44.795528 2808.9757,45.960696 2808.5756,47.554881 2807.9535,50.033467 2811.5625,61.157122 2814.3876,65.468843 2816.627,68.886512 2820.4841,68.712994 2825.4281,64.97218 2827.5886,63.337481 2830.0636,62.014312 2830.9281,62.031803 2835.1988,62.118211 2840.0002,69.910938 2840.728,77.936969 2841.185,82.976295 2840.9334,84.284733 2838.9807,87.027143 2836.8728,89.98741 2836.3781,90.18661 2832.4665,89.650459 2830.1383,89.331344 2826.5537,88.079234 2824.5008,86.867992 L 2820.7683,84.665735 2815.0073,87.832868 C 2808.3422,91.497015 2803.8752,91.830991 2799.25,89.01096 z M 2795.8608,92.08608 C 2794.5624,91.033423 2793.8511,89.819787 2794.2803,89.38911 2794.7095,88.958433 2796.2742,89.819697 2797.7576,91.30303 2800.8379,94.383395 2799.4177,94.969714 2795.8608,92.08608 z M 2799.4298,101.43712 C 2796.1279,99.934307 2793,97.600552 2793,96.639757 2793,95.291907 2795.7964,96.089201 2798.097,98.092986 2801.347,100.92368 2806.3986,100.17777 2812.0994,96.02541 2815.9489,93.221559 2817.0456,92.893429 2820.8563,93.405495 2823.2523,93.727455 2827.3653,95.16252 2829.9963,96.594528 2834.6366,99.120051 2834.8841,99.148811 2838.2472,97.552954 2840.154,96.64808 2842.9798,94.58677 2844.5266,92.972265 L 2847.3389,90.0368 2851.5878,93.5184 C 2856.3933,97.456143 2859.8522,97.925779 2862.5,95 2864.9992,92.238449 2867.7332,92.498835 2873,96 2877.7436,99.153367 2880.8378,99.692371 2884.1181,97.936769 2885.2108,97.351991 2886.8687,97.045644 2887.8024,97.255997 2890.1445,97.783653 2882.607,101 2879.0284,101 2877.5283,101 2874.3207,99.658189 2871.9005,98.018197 2867.1193,94.778441 2864.5472,94.267203 2863.2997,96.308724 2862.8599,97.028522 2861.0783,98.191204 2859.3407,98.892463 2855.8569,100.29846 2853.7928,99.638515 2850.5838,96.092624 2848.1068,93.35554 2847.1393,93.447147 2842.9778,96.81277 2841.065,98.359794 2838.1315,100.17545 2836.4589,100.84756 2833.695,101.95819 2832.7948,101.74486 2826.5834,98.507242 2819.2011,94.659315 2817.9177,94.652256 2812,98.427029 2806.178,102.14075 2802.7693,102.95702 2799.4298,101.43712 z"/>
</svg>
