<?xml version="1.0" encoding="UTF-8"?>
<svg xmlns="http://www.w3.org/2000/svg" viewBox="321.97 15.9 96.06 94.59">
  <path d="M350.21792 105.13468C348.83397 104.27936 348.35694 96.627883 349.46139 93.0C349.87998 91.625 350.90798 89.017915 351.74583 87.206478C353.11212 84.252533 353.11037 83.508649 351.72885 79.991633C349.28043 73.758575 343.84172 66.0 341.92079 66.0C340.84267 66.0 339.33988 67.732182 337.97888 70.543624C336.11815 74.38739 335.73795 77.089984 335.51056 88.089411C335.36272 95.2406 335.03461 101.29873 334.78142 101.55192C333.99456 102.33877 331.3423 98.667456 330.04813 95.0C326.7711 85.713491 326.33153 81.692621 327.70465 73.563216C328.86974 66.665371 332.92263 55.168236 335.07827 52.6459C336.37416 51.129562 343.77004 53.074803 348.42048 56.155128C350.90896 57.803426 353.40737 58.866269 353.97249 58.517C354.53762 58.167731 355.0 56.250546 355.0 54.256587C355.0 49.148505 357.9332 39.118114 360.5905 35.139281C361.82497 33.290886 364.233 30.928386 365.94167 29.889281C371.49698 26.510893 375.51532 27.395222 388.28042 34.805444C393.33129 37.737507 394.14723 37.619263 399.01384 33.25C404.13957 28.648099 407.30271 28.382612 410.58141 32.279119C413.65937 35.937073 413.62696 38.25446 410.42131 43.724481C407.05921 49.461473 406.22194 57.20208 408.39972 62.41423C409.29589 64.559085 410.70814 69.241813 411.53805 72.820293C412.89975 78.691824 412.89065 79.87169 411.44481 84.91331C409.39343 92.066457 405.90718 98.058369 401.76961 101.54231C398.98235 103.88926 398.45094 104.04525 398.16742 102.59967C397.98451 101.66701 398.38608 100.23973 399.0598 99.427942C400.97387 97.121627 402.83232 83.166097 401.97993 77.5C401.56623 74.75 400.26089 70.025 399.07918 67.0C397.89747 63.975 396.65541 58.679555 396.31905 55.232345C395.76046 49.507543 395.48198 48.914863 393.10375 48.3894C388.07996 47.27941 387.28914 46.943874 381.54645 43.485807C374.73286 39.382879 372.71957 39.189519 369.57322 42.335874C366.06008 45.84901 362.1952 61.0 364.81217 61.0C365.25886 61.0 367.62136 60.033441 370.06217 58.852091C372.50298 57.67074 376.38704 56.490087 378.69341 56.228416C382.44755 55.802489 383.20221 56.097954 385.89758 59.04901C389.19031 62.654085 390.88793 68.493731 391.69747 79.0C392.28661 86.646078 389.58392 95.206636 384.95341 100.3612C380.8064 104.97756 379.53806 103.15014 380.78576 94.356463C381.32082 90.585408 381.61883 85.25 381.44801 82.5C381.1344 77.451346 378.83367 70.63327 377.07735 69.547804C375.98267 68.871258 370.59576 76.381175 369.74663 79.767591C369.4339 81.014766 369.72725 82.589766 370.39851 83.267591C375.28861 88.205508 376.4586 98.192753 372.66379 102.60448C369.77786 105.95957 368.56469 105.29967 367.12779 99.593222C366.03808 95.265586 363.80207 92.0 361.92857 92.0C360.23827 92.0 356.82687 96.13716 354.87069 100.55941C352.71385 105.43532 351.93831 106.19794 350.21792 105.13468Z M372.0 95.622124C372.0 91.39881 369.5733 85.433975 367.53726 84.65267C365.3821 83.825661 365.59478 82.353928 368.85988 75.5C372.03187 68.841539 375.16754 65.466578 377.38967 66.31929C378.19496 66.628308 379.85916 69.045385 381.0879 71.690571C382.889 75.567931 383.33921 78.389027 383.41098 86.247281C383.50232 96.248995 384.31576 97.781902 386.81306 92.658426C391.76719 82.494523 387.8659 60.741514 380.76224 58.91988C378.48824 58.336745 373.29568 59.74108 367.23893 62.57728C365.44533 63.417166 363.53283 63.82931 362.98893 63.493156C360.80041 62.140576 362.44475 51.567235 366.06316 43.72544C367.31484 41.012796 372.58665 37.0 374.89871 37.0C375.53816 37.0 379.23783 38.8 383.12021 41.0C387.00258 43.2 390.92628 45.006634 391.83953 45.014742C392.75279 45.02285 394.625 45.599355 396.0 46.295865C398.02234 47.320287 398.43773 48.178214 398.17411 50.786148C397.87322 53.762713 398.93628 58.598982 400.96875 63.5C405.27613 73.886638 406.35224 81.39057 404.60713 88.871169C402.92007 96.10299 404.28239 96.859594 407.41005 90.427846C410.58369 83.901557 410.61688 77.375066 407.52081 68.649548C405.43205 62.76291 404.88816 59.602041 405.13149 54.763977C405.30478 51.31879 405.09179 47.933089 404.6582 47.240197C404.15234 46.431816 404.96815 45.056235 406.93492 43.401304C410.32701 40.547051 410.81087 37.602685 408.4433 34.222506C406.10086 30.878213 403.59877 31.512865 399.13549 36.583416C394.57879 41.760102 394.09074 41.770471 385.77486 36.867251C375.54889 30.837801 370.67764 30.015524 365.45538 33.43728C361.18102 36.237946 358.33235 43.187825 357.37137 53.159762C357.01838 56.822631 356.40576 60.34347 356.00998 60.983848C355.24335 62.224286 351.95194 61.037223 345.0156 57.018677C338.78813 53.41081 335.78035 54.670206 332.67793 62.184608C329.50526 69.869192 328.41453 85.292493 330.75634 89.356763C331.76569 91.108523 332.96986 87.336055 332.98469 82.375727C333.01185 73.286472 338.11871 63.0 342.60403 63.0C345.57675 63.0 349.97218 68.683732 354.04702 77.796917L357.29385 85.058311L355.27189 87.279156C352.52052 90.301148 351.07364 93.296002 351.37454 95.34615C351.71965 97.697508 352.88332 97.134917 356.92266 92.66384C359.87207 89.399198 360.82762 88.915523 363.33649 89.417298C366.67088 90.084176 368.61572 92.228987 369.53216 96.25C370.40774 100.0918 372.0 99.686698 372.0 95.622124Z M330.0 42.706414C330.0 42.544941 331.32036 39.957441 332.93413 36.956414C334.5479 33.955386 337.26306 28.895309 338.96781 25.711798C340.67256 22.528287 342.52051 20.203658 343.07436 20.545955C344.50502 21.430153 343.35479 24.383589 338.88863 31.2936C336.74989 34.60266 335.0 37.845562 335.0 38.500049C335.0 39.731034 331.85541 43.0 330.67126 43.0C330.30207 43.0 330.0 42.867886 330.0 42.706414Z"/>
</svg>
