<?xml version="1.0" encoding="UTF-8"?>
<svg xmlns="http://www.w3.org/2000/svg" viewBox="1793.41 17.34 29.15 89.01">
  <path d="M 1820.5 76.96875 C 1820.1982 78.947 1819.671 79.844287 1818.6562 80.75 C 1812.9123 85.876888 1806.7181 85.664032 1805.375 80.3125 C 1804.5485 77.01964 1805.6963 53.246242 1807.4375 37.625 C 1808.9035 24.471346 1808.6432 22 1805.875 22 C 1804.8391 22 1803.6551 21.8875 1803.25 21.75 C 1802.1857 21.388743 1799.9832 26.434479 1798.3438 32.90625 C 1796.2851 41.033287 1795.4143 70.409923 1797 78.25 C 1800.8822 97.443846 1806.2339 102.30677 1814.875 94.5 C 1817.0058 92.575 1819.2542 91 1819.875 91 C 1819.9318 91 1819.9769 91.1621 1820.0312 91.1875 L 1820.0938 90.78125 L 1820.2812 85.75 C 1819.3659 87.846265 1816.7035 91.088175 1814.0625 92.96875 C 1804.4288 99.828501 1799.1146 90.235313 1798.2812 64.5 C 1797.773 48.800369 1799.3422 34.870267 1802.5 27.3125 C 1803.787 24.232309 1804.2053 23.936159 1805.5625 25.0625 C 1806.661 25.974206 1807.0009 27.444478 1806.6562 29.9375 C 1802.3089 61.374837 1801.831 82.960315 1805.4375 85.59375 C 1808.1418 87.568319 1812.3193 87.344285 1816.4375 85.03125 C 1818.3391 83.963189 1819.801 83.612209 1820.3125 84 L 1820.5625 77.09375 L 1820.5 76.96875 z "/>
</svg>
