<?xml version="1.0" encoding="UTF-8"?>
<svg xmlns="http://www.w3.org/2000/svg" viewBox="2682.67 15.8 117.22 90.77">
  <path d="M 2783.2919,29.266663 C 2783.3771,26.644998 2783.0731,23.7125 2782.6164,22.75 2782.0826,21.625056 2782.1903,21 2782.9178,21 2784.6671,21 2786.2009,26.115665 2785.5276,29.704515 2784.5721,34.797842 2783.1215,34.513741 2783.2919,29.266663 z M 2782,93.106989 C 2782,92.615833 2782.7118,91.940833 2783.5818,91.606989 2786.0281,90.668263 2786.3513,90.871791 2785,92.5 2783.6203,94.162377 2782,94.490222 2782,93.106989 z M 2770.5088,90.448758 C 2767.0177,88.382067 2766.2591,88.255416 2764.4544,89.437893 2763.3197,90.181411 2760.3907,90.949552 2757.9456,91.144872 2753.7287,91.48173 2753.41,91.31994 2751.7516,88 2750.7585,86.012138 2750.0213,82.339804 2750.0453,79.5 2750.0987,73.176978 2752.9545,64.609179 2755.1449,64.200639 2756.0496,64.031901 2759.1713,65.042728 2762.082,66.446921 2768.7242,69.651231 2771.4303,69.660636 2774.6005,66.490429 2777.8657,63.225199 2779.6056,58.928608 2781.0716,50.510335 2782.0782,44.730069 2782.8917,42.987941 2786.3222,39.266274 2790.068,35.202575 2790.4298,34.307344 2791.004,27.68113 2791.5984,20.821555 2791.9759,20.572583 2793.6388,25.943424 2794.5611,28.922289 2791.5017,37.431631 2788.3895,40.54387 2785.2148,43.71849 2783.7019,47.304157 2782.5007,54.5 2781.7016,59.287098 2777.5831,67.833856 2775.2043,69.641386 2772.5191,71.681754 2765.261,71.274649 2760.9305,68.84077 2756.2418,66.205569 2754.8072,67.04521 2753.0059,73.479073 2751.7657,77.908387 2752.2371,83.705937 2754.1239,87.23159 2755.2655,89.364681 2760.6635,89.570911 2763.286,87.581628 2765.2248,86.110924 2771.3259,86.925898 2773.3223,88.922264 2774.8656,90.465605 2778.1957,90.25166 2780.7775,88.443296 2783.9147,86.245877 2783.554,88.419054 2780.3651,90.92742 2777.0892,93.504266 2775.5435,93.429199 2770.5088,90.448758 z M 2765.5417,63.210183 C 2763.1142,62.668406 2758.8704,60.00555 2757.3904,58.095451 2756.4453,56.875789 2755.737,56.999407 2752.615,58.928947 2746.7358,62.562469 2746,61.579073 2746,50.088089 2746,41.539752 2746.2633,39.926554 2747.8413,38.806704 2750.3055,37.057916 2752,33.700159 2752,30.565741 2752,27.224071 2751.3695,27.328252 2746.0623,31.546881 2740.1228,36.268102 2738.5,35.827337 2738.5,29.492895 2738.5,25.647407 2738.1233,24.463099 2736.8193,24.208356 2734.4688,23.749205 2726.9948,30.735695 2727.0222,33.366362 2727.0607,37.058915 2730.1852,39.965202 2735.0003,40.787197 2739.2502,41.512712 2739.5097,41.750082 2740.1795,45.525487 2740.5674,47.711469 2740.9107,52.3125 2740.9424,55.75 2740.994,61.349566 2740.7922,62 2739.0029,62 2737.9045,62 2735.2221,60.388612 2733.0422,58.419138 L 2729.0786,54.838275 2725.7893,57.293657 C 2719.796,61.767475 2718.1295,62.314843 2715.5824,60.645961 2712.6036,58.694183 2710,53.109245 2710,48.671349 2710,45.965868 2710.6826,44.604304 2712.9324,42.822478 2714.5452,41.545115 2716.169,39.2625 2716.5408,37.75 2717.332,34.531398 2717.2811,34.514193 2713.1154,36.592316 2709.2564,38.517453 2707.2691,37.920472 2706.4319,34.584538 2705.749,31.863729 2709.4701,23.982366 2711.7951,23.225083 2712.6095,22.95983 2712.3325,24.046135 2711.0489,26.151624 2708.9102,29.659601 2708.2576,36 2710.0352,36 2710.6045,36 2712.1761,35.275522 2713.5275,34.390049 2716.8833,32.191225 2719,33.233113 2719,37.083745 2719,39.422899 2718.0702,41.081906 2715.3764,43.549372 2712.1951,46.463327 2711.8294,47.273234 2712.3805,50.184243 2712.7257,52.007909 2714.0535,54.805829 2715.331,56.401843 2718.0635,59.815454 2720.8924,59.566063 2725.2064,55.531249 2728.668,52.293576 2729.3832,52.343416 2734.1994,56.157967 2739.0897,60.031093 2740.0557,59.065639 2739.2753,51.085381 2738.672,44.917686 2737.7104,43.076345 2735.1833,43.250052 2731.2938,43.517408 2728.0845,41.875785 2726.5729,38.845597 2723.4734,32.632682 2725.0977,28.218889 2732,24.097386 2735.9087,21.763433 2739.9268,21.345134 2740.1398,23.25 2740.2167,23.9375 2740.178,26.1875 2740.0538,28.25 2739.7522,33.259107 2741.7527,33.19088 2747.3842,28 2749.7709,25.8 2752.1866,24 2752.7524,24 2753.3182,24 2754.0005,25.6875 2754.2684,27.75 2754.7375,31.359797 2753.4233,35.280511 2749.4921,42 2748.6054,43.515601 2748.0237,47.157876 2748.0147,51.25 2747.9984,58.714941 2748.6216,59.271997 2753.7172,56.347544 2756.5259,54.735524 2756.7029,54.77223 2760.9482,57.847544 2763.3417,59.581395 2765.8676,61 2766.5611,61 2768.5281,61 2772.8139,55.331168 2773.956,51.218945 2775.7358,44.810435 2775.3182,43.225985 2771.1572,40.599261 2765.2386,36.863002 2762.972,29 2767.8136,29 2768.8456,29 2770.5224,29.919809 2771.5398,31.04402 2772.5572,32.168231 2774.3145,32.955731 2775.4448,32.79402 2777.0794,32.560179 2777.4927,31.783627 2777.4643,29 2777.4446,27.075 2777.0768,24.4875 2776.6469,23.25 2775.4904,19.920944 2777.5435,20.483596 2778.9509,23.881419 2780.6268,27.92748 2779.9167,32.998092 2777.4457,34.628516 2775.6751,35.796896 2774.8814,35.723915 2771.6957,34.099799 2768.0681,32.250309 2768,32.250727 2768,34.122498 2768,35.720499 2772.1348,39.192248 2775.3214,40.269842 2775.7732,40.422619 2776.1429,43.142521 2776.1429,46.314068 2776.1429,54.801032 2770.2126,64.252663 2765.5417,63.210183 z M 2700,35.520236 C 2700,32.066026 2702.839,23.505619 2703.6992,24.365873 2703.9461,24.612739 2703.3272,27.175249 2702.324,30.060341 2700.9271,34.077555 2700.7927,35.406742 2701.75,35.736315 2703.5135,36.343454 2703.31,39 2701.5,39 2700.454,39 2700,37.946693 2700,35.520236 z M 2696.3058,89.531601 C 2694.473,87.919189 2694.0202,87.063781 2695,87.064871 2696.5126,87.066553 2701,90.31648 2701,91.410293 2701,92.690423 2698.9752,91.88008 2696.3058,89.531601 z M 2703.9615,88.149873 C 2698.5915,85.463087 2697.9187,84.940616 2698.5381,83.938341 2698.8543,83.426717 2700.8507,83.903506 2703.0146,85.007439 2708.2917,87.699616 2712.1223,87.542742 2715.4055,84.5 2718.6961,81.450337 2719.3021,81.424148 2723.0174,84.171017 2728.6707,88.350687 2733.553,83.313795 2732.3507,74.542138 2731.6575,69.484517 2728.6929,64 2726.6522,64 2725.8947,64 2723.5763,65.35 2721.5,67 2719.4237,68.65 2717.3737,70 2716.9443,70 2716.5149,70 2715.4901,70.258443 2714.6669,70.574317 2712.1035,71.558 2705.3036,64.427354 2703.0428,58.384764 2701.9192,55.38188 2701,51.849517 2701,50.535068 2701,49.213495 2699.9431,47.313833 2698.6358,46.285447 2694.5697,43.087089 2692.8531,38.588102 2693.5872,33.053945 2694.2775,27.850402 2697.9726,20.525873 2698.7562,22.807864 2699.0032,23.527189 2698.5391,24.877189 2697.7249,25.807864 2696.9108,26.738539 2695.9406,29.61349 2695.5691,32.196644 2694.8104,37.470964 2696.122,40.923061 2700.405,44.924314 2701.8322,46.257687 2703,48.33861 2703,49.548588 2703,56.447465 2710.8673,68 2715.5654,68 2716.7532,68 2719.4237,66.65 2721.5,65 2723.5763,63.35 2726.0805,62 2727.0649,62 2729.7585,62 2732.7376,66.468475 2734.0987,72.550304 2735.1584,77.285686 2735.0892,78.475723 2733.5567,81.874317 2731.8929,85.564021 2728.6703,88 2725.4529,88 2724.6538,88 2724,87.523442 2724,86.940983 2724,86.358524 2723.641,86.103831 2723.2023,86.375 2722.7635,86.646169 2721.7764,86.479819 2721.0086,86.005334 2720.0968,85.44182 2718.1755,85.984906 2715.4685,87.571317 2710.5842,90.433725 2708.7141,90.527751 2703.9615,88.149873 z M 2696.5,100.5165 C 2693.0202,98.98496 2688,94.573855 2688,93.047749 2688,91.377072 2689.5337,91.827304 2691.5927,94.102379 2696.0966,99.079199 2702.102,100.28077 2706.2327,97.031577 2707.6091,95.948945 2710.848,94.498062 2713.4303,93.807395 2717.8681,92.62046 2718.4206,92.706146 2723.51,95.370784 2728.2748,97.865509 2729.2843,98.061266 2732.2823,97.071851 2734.1456,96.456906 2736.9414,94.626875 2738.4951,93.005114 L 2741.3201,90.056459 2745.1348,93.50285 C 2747.2329,95.398365 2750.1267,97.244677 2751.5654,97.605766 2754.1832,98.262785 2761.5025,96.605235 2763.6305,94.873476 2764.3533,94.285221 2766.9811,94.916335 2770.9181,96.623772 2777.1979,99.34727 2778.5871,99.321766 2785.7507,96.351464 2786.5137,96.035096 2786.7926,96.376934 2786.466,97.228106 2785.8556,98.818645 2780.4531,101 2777.1241,101 2775.8955,101 2772.7947,100.04536 2770.2335,98.878575 2765.7733,96.846726 2765.385,96.825822 2761.0383,98.383521 2758.5422,99.278025 2755.1066,100.00767 2753.4036,100.00495 2749.9707,99.999462 2744,97.390166 2744,95.895373 2744,93.458224 2740.685,94.149407 2736.3033,97.500135 2732.2878,100.57089 2730.9392,101.08291 2728.0809,100.62209 2726.2004,100.31892 2724.4004,99.655495 2724.0809,99.147822 2723.0058,97.439585 2715.6971,94.961737 2713.5889,95.590793 2712.44,95.933625 2709.4356,97.515946 2706.9125,99.107062 2701.8395,102.30612 2700.8657,102.43793 2696.5,100.5165 z"/>
</svg>
