<?xml version="1.0" encoding="UTF-8"?>
<svg xmlns="http://www.w3.org/2000/svg" viewBox="807.6 15.01 88.29 95.07">
  <path d="M812.37152 39.474226C813.45909 36.640052 822.99572 21.120678 824.05022 20.468961C825.89377 19.329588 824.94434 21.609502 819.68874 30.942415C816.76755 36.129882 813.77084 40.576387 813.02939 40.823536C812.08501 41.138332 811.888 40.734262 812.37152 39.474226Z M831.14848 102.10123C829.52639 96.687184 829.69707 94.677026 832.21975 89.484595C834.42462 84.9463 834.42722 84.880795 832.60779 79.707844C831.60035 76.84353 830.32136 73.9375 829.76559 73.25C827.82852 70.853772 825.05735 71.948898 822.39801 76.161566C819.51453 80.729295 818.87437 83.770647 818.43279 95.0C818.27058 99.125 818.10685 102.62833 818.06893 102.78518C818.03102 102.94203 817.16558 102.6238 816.14573 102.07799C813.2797 100.54414 811.61528 90.70396 812.25578 79.08036C812.79636 69.269913 814.02735 65.124408 817.8932 60.095565C819.64484 57.816978 819.97079 57.755391 824.12079 58.918882C833.97566 61.681786 833.17047 62.054622 832.69653 54.947975C832.05393 45.312228 834.75422 36.731588 839.87236 32.145537C846.1915 26.483349 851.93717 26.568515 863.78589 32.5C868.72994 34.975 873.03505 37.0 873.35281 37.0C873.67056 37.0 875.98651 35.696141 878.49937 34.102536C885.0474 29.949901 889.41782 31.484815 890.99824 38.4922C891.88232 42.412102 890.28544 46.372489 886.55976 49.5C885.24937 50.6 884.05551 52.4 883.90675 53.5C883.57006 55.989501 884.96959 64.152399 885.96415 65.5C889.14846 69.814644 889.15 89.646473 885.96652 96.0C882.58982 102.73914 876.58215 105.58707 879.18536 99.214598C879.79527 97.721569 880.3245 92.674705 880.36143 87.999344C880.41923 80.6815 880.1145 79.073887 878.17141 76.445711C875.01772 72.180121 872.71757 61.743632 873.50398 55.268207L874.13936 50.036413L868.81968 47.485569C865.89386 46.082605 862.26412 44.250634 860.7536 43.414522C857.43406 41.577071 850.45017 41.149826 848.91002 42.689983C847.20125 44.398754 844.32084 54.132329 844.52736 57.5C844.72982 60.801333 845.92075 60.970753 851.5 58.491914C857.17147 55.9721 858.60171 55.898862 861.26269 57.991995C868.24624 63.485256 872.24421 78.25657 870.24437 91.17664C869.62424 95.183065 868.64056 98.619813 868.05843 98.813858C867.47629 99.007903 867.0 99.756022 867.0 100.47634C867.0 102.22227 864.02822 103.30282 863.5435 101.73314C863.33406 101.05491 862.87922 96.225 862.53275 91.0C862.08077 84.183962 861.2387 80.044837 859.55222 76.349388C855.52397 67.522623 851.5625 68.249996 847.75805 78.514938C846.33147 82.364035 846.3164 83.017697 847.6291 84.107143C851.43337 87.264408 853.64292 98.315479 851.08592 101.39647C849.00697 103.90145 847.15211 103.29981 845.61545 99.622077C844.83919 97.76422 843.78625 95.985927 843.27558 95.670315C841.09749 94.324182 837.90872 96.463702 835.79993 100.68614C834.57483 103.13917 833.28549 105.32356 832.93472 105.54035C832.58395 105.75714 831.78014 104.20953 831.14848 102.10123Z M850.0 96.320998C850.0 92.226719 847.81119 87.074851 845.80059 86.436711C843.1754 85.603507 843.553 81.951412 847.02387 74.605302C850.95615 66.282624 852.16026 65.28198 855.37267 67.667243C860.75784 71.665816 863.7548 79.98413 864.31952 92.5C864.44625 95.308675 864.94675 96.5 866.0 96.5C868.91339 96.5 869.46832 80.109337 866.81255 72.5C863.636 63.398496 860.32228 58.980196 856.71104 59.031272C855.49497 59.048472 852.25 60.169358 849.5 61.522129C842.46319 64.983657 842.0 64.830054 842.0 59.034947C842.0 53.437671 844.27468 45.85676 847.18641 41.75C849.91 37.908597 855.27127 38.03249 863.90316 42.136307C867.53142 43.861276 871.625 45.582647 873.0 45.961575C875.43974 46.63393 875.50034 46.877698 875.51393 56.075268C875.52887 66.181855 875.84807 67.676918 879.71176 75.737247C881.70486 79.895187 882.22222 82.522745 882.22222 88.487247C882.22222 99.416038 885.17778 98.102616 886.29926 86.675453C886.96276 79.91477 885.75472 71.21924 883.53338 66.766454C882.68016 65.056128 881.7011 60.633686 881.35769 56.938804C880.74472 50.343484 880.78597 50.187124 883.61666 48.374171C887.67174 45.777048 888.93158 43.941872 888.9682 40.578741C889.00575 37.129138 886.49902 34.0 883.698 34.0C882.60239 34.0 879.7468 35.605403 877.35224 37.567562L872.99851 41.135124L870.24925 39.210808C864.0638 34.881352 854.22493 31.0 849.43562 31.0C845.08828 31.0 844.27388 31.400021 840.40881 35.433834C836.77521 39.226064 836.05746 40.691972 835.44873 45.56407C835.05728 48.697091 835.0294 54.4065 835.38677 58.251644C836.12352 66.17881 836.95848 65.825008 826.63064 61.961936L820.76129 59.766535L818.43546 62.633268C817.15625 64.20997 815.63496 67.659649 815.05481 70.299221C813.83165 75.864396 813.76921 88.583241 814.95073 91.5C815.77721 93.540296 815.86936 93.230198 817.47647 83.0C818.192 78.445235 822.06543 71.003235 824.57716 69.357488C826.88649 67.844354 827.19183 67.861715 829.16241 69.618201C831.19362 71.428725 837.0 83.030668 837.0 85.278766C837.0 85.879548 836.08218 87.348072 834.9604 88.542153C832.66677 90.983607 831.08164 98.0 832.8237 98.0C833.42067 98.0 835.03409 96.875 836.40909 95.5C839.71008 92.199015 842.40049 92.344466 845.65758 96.0C848.95653 99.702508 850.0 99.779643 850.0 96.320998Z"/>
</svg>
