<?xml version="1.0" encoding="UTF-8"?>
<svg xmlns="http://www.w3.org/2000/svg" viewBox="2120.56 17.72 22.99 83.76">
  <path d="M 2122.5625 29.15625 L 2122.7188 32.90625 L 2122.9375 33.15625 L 2126.8125 29.0625 C 2131.0754 24.581323 2132.4257 24.118917 2133.4688 26.75 C 2135.4238 31.681769 2135.0739 35.306513 2132.3438 38.15625 C 2130.8494 39.715991 2130.1296 41 2130.75 41 C 2131.3704 41 2132.1601 40.55 2132.5 40 C 2133.9865 37.594754 2135 39.408681 2135 44.46875 C 2135 48.910111 2134.6254 50.130092 2133 51 C 2131.9 51.588702 2131 52.609351 2131 53.25 C 2131 54.116875 2131.2944 54.080559 2132.1875 53.1875 C 2134.3561 51.018906 2135 51.932107 2135 57.1875 C 2135 61.135322 2134.4678 62.925479 2132.8125 64.6875 L 2130.6562 67 L 2132.8125 67 C 2134.7355 67 2135 67.543405 2135 71.6875 C 2135 75.119509 2134.4336 76.995129 2132.8438 78.6875 C 2130.486 81.197128 2130.9868 83.091129 2133.4688 81.03125 C 2134.7916 79.9334 2135 80.302147 2135 83.8125 C 2135 87.3996 2134.4627 88.295462 2130.25 91.90625 C 2125.2454 96.195864 2126.37 97.666706 2131.4688 93.5 C 2134.2212 91.25078 2134.5572 91.183938 2136.2188 92.6875 C 2138.5622 94.808329 2139.3131 93.933883 2138.0312 90.5625 C 2137.4659 89.075416 2137 86.301258 2137 84.375 C 2137 81.327787 2137.2599 80.947705 2139 81.5 C 2141.4383 82.273886 2141.5539 81.218084 2139.3438 78.0625 C 2138.4054 76.722831 2137.4772 73.042498 2137.25 69.6875 C 2136.9064 64.614916 2137.0957 63.809614 2138.4062 64.3125 C 2140.8628 65.255188 2141.1601 63.46489 2139 60.71875 C 2136.4781 57.512748 2136.3314 51.512216 2138.75 50.0625 C 2140.4167 49.063495 2140.4167 48.92117 2138.75 47.625 C 2137.6428 46.763921 2137 44.90798 2137 42.5625 C 2137 39.31043 2137.2455 38.943147 2139 39.5 C 2141.494 40.291579 2141.5475 39.244958 2139.1562 36.5625 C 2138.1441 35.427052 2136.771 31.9125 2136.0938 28.75 C 2134.6254 21.893718 2133.3521 21.523578 2127 26.125 L 2122.6562 29.25 L 2122.5625 29.15625 z "/>
</svg>
