<?xml version="1.0" encoding="UTF-8"?>
<svg xmlns="http://www.w3.org/2000/svg" viewBox="2236.52 16.9 30.37 90.14">
  <path d="M2245.5385 97.039416C2242.2248 93.645909 2241.6068 92.304052 2241.2223 87.667597C2240.8021 82.600488 2240.9973 82.008732 2244.2914 78.362524C2248.2043 74.031461 2248.3707 73.167061 2248.1508 58.31082L2248.0 48.121639L2244.1312 43.651573C2239.4536 38.247069 2238.5204 35.080486 2240.3315 30.758421C2242.3765 25.878157 2246.8825 20.999238 2249.3389 21.005577C2255.0448 21.020302 2258.9599 23.075401 2261.4826 27.380049C2264.8884 33.191698 2264.694 36.671828 2260.6453 42.366367C2257.291 47.084298 2257.2906 47.086092 2257.0933 59.972955C2256.9089 72.015094 2257.0635 73.191729 2259.448 77.897322C2262.5417 84.002457 2262.7232 89.662078 2259.9967 95.006402C2256.3054 102.242 2251.3052 102.94509 2245.5385 97.039416Z M2258.3618 94.981826C2260.6086 92.311669 2260.8312 91.360384 2260.2918 86.731826C2259.9564 83.854322 2258.7137 79.925 2257.5302 78.0C2255.6003 74.861042 2255.3666 72.979934 2255.2648 59.76425L2255.1512 45.0285L2257.8877 43.079994C2261.1959 40.724301 2263.0612 35.400995 2261.7881 31.948464C2258.8677 24.028353 2249.9396 21.302959 2244.7584 26.75C2239.7024 32.065436 2240.2117 36.893012 2246.381 42.132271L2249.4805 44.764542L2249.8491 59.876286L2250.2177 74.98803L2247.1233 78.512355C2241.701 84.687958 2241.7429 89.783082 2247.2583 94.952416C2251.4959 98.924168 2255.0367 98.933546 2258.3618 94.981826Z M2247.7137 37.380388C2246.2973 35.963957 2247.0224 30.2897 2248.8287 28.654988C2251.1307 26.571784 2255.355 26.517884 2257.0417 28.550195C2257.9764 29.676443 2258.0782 31.112214 2257.4141 33.800195C2256.5672 37.228096 2256.2034 37.521831 2252.4637 37.797055C2250.2438 37.960435 2248.1063 37.772935 2247.7137 37.380388Z M2247.7997 89.45971C2246.1728 85.889045 2247.8112 81.790403 2251.3651 80.540573C2253.7125 79.715022 2254.4335 79.872308 2255.5973 81.463886C2257.4318 83.972799 2257.3754 87.019027 2255.4433 89.777494C2253.2763 92.871298 2249.2784 92.705083 2247.7997 89.45971Z M2255.0202 87.962227C2256.273 85.621356 2255.4439 82.0 2253.6551 82.0C2251.1913 82.0 2248.071 85.019962 2248.7189 86.777366C2250.0572 90.406687 2253.3778 91.031088 2255.0202 87.962227Z M2255.5 32.5C2255.5 28.420974 2251.9824 27.795926 2249.9889 31.520736C2248.7845 33.771128 2248.7924 34.259476 2250.0462 35.070764C2250.8458 35.588144 2252.4 35.896378 2253.5 35.755728C2254.9987 35.564095 2255.5 34.748091 2255.5 32.5Z"/>
</svg>
