<?xml version="1.0" encoding="UTF-8"?>
<svg xmlns="http://www.w3.org/2000/svg" viewBox="1374.74 21.38 81.95 90.28">
  <path d="M1404.2125 104.8125C1403.5456 104.14562 1403.0 103.03066 1403.0 102.3348C1403.0 101.63893 1401.65 99.532027 1400.0 97.652781C1396.0791 93.187095 1396.2147 90.377951 1400.5867 85.5C1402.5584 83.3 1404.8538 80.196423 1405.6875 78.603162C1407.0945 75.914048 1407.0423 75.412097 1404.959 71.603162C1400.3457 63.168579 1395.0902 59.254812 1390.6462 60.944427C1388.0121 61.945915 1384.1901 67.799408 1383.3157 72.171382C1381.8395 79.552444 1378.4632 73.579487 1379.5565 65.520947C1380.663 57.364598 1383.1863 53.465274 1388.5376 51.641904C1392.7413 50.209531 1393.5056 50.213858 1397.321 51.69163C1399.6195 52.58187 1402.2104 53.915442 1403.0787 54.655124C1406.0 57.143687 1407.0 56.2116 1407.0 51.0C1407.0 46.075269 1406.9533 46.0 1403.9 46.0C1401.7078 46.0 1399.8043 45.004301 1397.4 42.6C1395.53 40.73 1394.0017 38.8175 1394.0037 38.35C1394.0161 35.541974 1398.5746 30.641795 1403.1437 28.52487C1409.7049 25.485012 1411.1821 26.00905 1410.3699 31.088437C1409.4737 36.692557 1411.7193 37.125576 1418.2724 32.61228C1421.1571 30.625526 1423.8509 29.0 1424.2587 29.0C1424.6664 29.0 1425.0 31.060186 1425.0 33.578192C1425.0 37.631092 1424.541 38.584348 1421.0 41.886324C1417.4244 45.220536 1417.0 46.11738 1417.0 50.339518C1417.0 56.135944 1418.3621 56.876254 1423.8632 54.069785C1429.0744 51.411226 1430.1733 51.46405 1432.8131 54.5C1437.549 59.946801 1441.2539 55.966638 1443.0524 43.5C1444.7148 31.976421 1446.1185 28.0 1448.5238 28.0C1452.9619 28.0 1452.8565 42.624122 1448.3007 58.954739C1445.6815 68.343334 1445.6756 68.441277 1447.4681 72.954739C1449.529 78.144118 1450.6297 87.770345 1449.3127 89.087276C1448.8005 89.599479 1448.4177 87.768844 1448.4027 84.735714C1448.376 79.351429 1445.0054 70.0 1443.0914 70.0C1439.4977 70.0 1440.4079 84.584886 1444.2613 88.746057C1446.4295 91.087462 1446.1151 92.641887 1443.6636 91.701142C1441.6322 90.921614 1439.0 82.49739 1439.0 76.775351C1439.0 72.352393 1438.714 71.751125 1435.874 70.20349C1434.1547 69.26657 1431.5086 67.492845 1429.9937 66.261877L1427.2395 64.023754L1424.6965 66.024063C1420.0572 69.673363 1420.2283 73.181331 1425.4163 80.779815C1431.2031 89.255359 1431.4697 93.064179 1426.75 99.836522C1421.7343 107.03365 1420.5002 107.55377 1419.4783 102.90116C1419.0746 101.06299 1419.2456 99.354353 1419.8988 98.701163C1420.5045 98.095524 1421.0 96.73779 1421.0 95.683977C1421.0 93.584572 1414.3779 84.0 1412.9274 84.0C1412.4311 84.0 1410.8522 85.857936 1409.4187 88.128746C1406.8207 92.244235 1406.8181 92.270163 1408.5921 96.204138C1410.2386 99.855594 1410.2516 100.34886 1408.7649 102.79906C1406.8371 105.97624 1405.8242 106.42421 1404.2125 104.8125Z M1407.6206 100.54638C1407.9274 99.746891 1407.4632 98.071763 1406.5892 96.823875C1404.1306 93.313711 1404.7202 90.904623 1409.3128 85.694808C1412.3893 82.204891 1414.0211 81.070868 1415.2744 81.551797C1416.2235 81.915996 1417.0 82.663576 1417.0 83.213084C1417.0 83.762593 1418.3978 85.977014 1420.1061 88.13402C1423.2343 92.083585 1423.6329 95.439308 1421.5454 100.25C1419.9472 103.93306 1423.5636 101.82656 1426.3278 97.464311C1428.8645 93.461041 1429.0401 92.651671 1428.0336 89.601898C1427.4165 87.732037 1425.2026 83.794166 1423.1138 80.851075C1417.7478 73.290443 1417.4803 71.444008 1421.0905 66.885766C1425.3286 61.534701 1427.338 61.185571 1432.5121 64.901309C1440.2066 70.427042 1443.447 68.871053 1446.8846 58.0C1449.0873 51.034275 1450.2697 32.750496 1448.5537 32.192032C1447.4273 31.825458 1445.0385 38.874836 1444.3829 44.5C1443.3804 53.102801 1440.1812 60.019772 1437.2269 59.97218C1436.2771 59.956879 1433.7693 58.634441 1431.654 57.033428C1428.3831 54.557778 1427.4114 54.273279 1425.1558 55.130851C1423.6971 55.685447 1421.7488 56.822329 1420.8262 57.657256C1419.9036 58.492184 1418.3278 59.018482 1417.3244 58.826809C1415.777 58.531228 1415.4556 57.30186 1415.2078 50.730457C1414.9281 43.314295 1415.0201 42.942867 1417.3569 42.05442C1420.3826 40.904041 1423.0 37.296932 1423.0 34.277494C1423.0 31.370287 1422.8142 31.397618 1417.778 35.045838C1415.1378 36.958434 1412.6296 37.981606 1411.0367 37.795838C1408.7493 37.529073 1408.5085 37.082334 1408.5863 33.25C1408.6864 28.321383 1407.3973 27.850632 1402.3043 30.955997C1398.4417 33.311204 1395.7446 37.170759 1396.5304 39.2185C1397.3092 41.24808 1400.7633 42.879762 1405.0 43.21941L1408.5 43.5L1408.7945 49.067932C1408.9564 52.130294 1408.6112 55.892523 1408.0272 57.428441C1407.0075 60.110603 1406.8772 60.156526 1404.7327 58.589912C1403.5047 57.692804 1400.4946 56.044224 1398.0434 54.926402C1392.9878 52.620793 1387.1552 53.013546 1384.7307 55.822852C1381.7498 59.276723 1379.7532 69.0 1382.0248 69.0C1382.5884 69.0 1383.4414 67.9875 1383.9203 66.75C1388.4443 55.060407 1400.27 56.508316 1406.6474 69.532658C1409.2938 74.937325 1409.3005 75.007129 1407.5459 78.898284C1406.5736 81.05449 1404.253 84.435504 1402.389 86.411649C1398.2297 90.821286 1398.1737 92.294911 1402.0 96.652781C1403.65 98.532027 1405.0 100.50393 1405.0 101.0348C1405.0 102.54028 1406.9984 102.16783 1407.6206 100.54638Z"/>
</svg>
