<?xml version="1.0" encoding="UTF-8"?>
<svg xmlns="http://www.w3.org/2000/svg" viewBox="2440.87 16.97 55.66 90.66">
  <path d="M2452.488 99.75C2452.119 97.9625 2450.7333 94.822148 2449.4086 92.77144C2448.0839 90.720732 2447.0019 88.695732 2447.0043 88.27144C2447.0066 87.847148 2448.3547 85.475 2450.0 83.0C2453.5892 77.600741 2453.6722 76.769187 2450.75 75.487128C2449.5125 74.944208 2448.5375 73.7125 2448.5833 72.75C2448.6292 71.7875 2448.7417 68.075 2448.8333 64.5C2448.9355 60.515436 2449.4283 58.0 2450.1068 58.0C2450.7156 58.0 2453.4744 59.8 2456.2375 62.0C2464.146 68.296904 2464.2703 68.142314 2463.6726 52.75C2463.1895 40.306815 2461.4134 31.999014 2459.2366 32.000504C2458.8315 32.000782 2456.2007 32.874927 2453.3905 33.94305C2448.7952 35.689627 2448.0655 35.734194 2446.1405 34.385842C2443.7687 32.724588 2443.3978 29.415839 2445.1518 25.566275C2447.1912 21.090278 2452.8655 21.098999 2457.0795 25.584607C2460.0198 28.714429 2461.2128 28.630073 2465.3472 25.0C2467.2265 23.35 2469.0685 22.0 2469.4407 22.0C2469.8128 22.0 2471.846 23.389259 2473.9589 25.087241L2477.8006 28.174482L2481.8851 25.837241C2485.6611 23.676597 2486.1726 23.613337 2488.6547 25.0C2492.2433 27.004853 2492.4595 28.146156 2489.8732 31.43409C2487.9755 33.846597 2487.2084 34.129032 2483.963 33.610072C2481.4721 33.211764 2479.8717 33.449672 2479.1441 34.326428C2478.5448 35.048425 2477.8019 41.391667 2477.493 48.42252C2477.1841 55.453374 2476.8935 61.497065 2476.8473 61.852945C2476.3304 65.829486 2479.3172 66.028367 2483.2317 62.27806C2487.0031 58.664773 2489.2027 60.002861 2490.3056 66.581463C2491.0945 71.287084 2491.0109 71.542637 2487.8349 74.134707L2484.5478 76.817547L2489.2739 83.672074C2491.8733 87.442063 2494.0 90.849377 2494.0 91.243883C2494.0 92.274349 2487.0475 103.0 2486.3796 103.0C2485.2534 103.0 2482.0656 98.450411 2482.0333 96.797053C2482.015 95.860432 2482.5274 93.936673 2483.1719 92.522032C2484.2283 90.203456 2484.0136 89.609224 2480.993 86.492765L2477.6421 83.035572L2474.1557 85.694839L2470.6692 88.354105L2466.8865 86.177053C2462.209 83.485012 2460.8233 83.452044 2459.2352 85.995006C2458.3123 87.472867 2458.2476 89.142602 2458.9857 92.436404C2460.1545 97.651559 2459.6844 99.321556 2456.4512 101.44001C2453.2903 103.5111 2453.2619 103.49899 2452.488 99.75Z M2456.1392 30.996228L2458.5 28.992455L2455.5 26.475065C2451.7302 23.31173 2448.0799 23.575047 2446.0799 27.154583C2444.8436 29.367269 2444.8171 30.074748 2445.9208 31.404583C2447.7632 33.624535 2453.3035 33.403131 2456.1392 30.996228Z M2457.4604 98.064054C2457.7786 97.549283 2457.615 95.241478 2457.0969 92.935598C2456.3564 89.640094 2456.5085 88.001427 2457.8079 85.276648C2459.37 82.00093 2459.3604 81.73668 2457.6333 80.473788C2455.0838 78.609569 2453.2378 79.613465 2450.9427 84.112377L2448.9705 87.978084L2452.0807 93.489042C2455.142 98.913253 2456.3176 99.913085 2457.4604 98.064054Z M2474.595 82.890494C2475.6428 81.730266 2479.3498 78.511878 2482.8328 75.738521C2488.9697 70.852021 2489.1448 70.584762 2488.4936 67.098026C2487.6818 62.751449 2487.4116 62.419068 2485.7742 63.752917C2485.0734 64.323772 2482.2906 66.017471 2479.5903 67.516692L2474.6807 70.242548L2475.3216 52.871274C2475.6741 43.317073 2476.2437 34.505718 2476.5873 33.290486C2477.0624 31.610445 2476.4144 30.352368 2473.8832 28.040486C2469.8942 24.397104 2468.4306 24.311412 2464.5371 27.493282L2461.5742 29.914638L2463.3862 34.953596C2465.1775 39.935108 2465.7502 45.398152 2466.0119 60.0C2466.1908 69.981446 2466.1878 70.004847 2464.75 69.967743C2464.0625 69.950002 2461.0604 68.171107 2458.0786 66.014644C2455.0969 63.85818 2452.2844 62.324253 2451.8286 62.605917C2451.3729 62.887581 2451.0 65.355599 2451.0 68.090402C2451.0 71.925698 2451.4002 73.20301 2452.75 73.676036C2453.7125 74.013332 2455.85 75.511167 2457.5 77.004558C2461.311 80.453829 2469.0131 84.978191 2471.095 84.99054C2471.9723 84.995743 2473.5473 84.050723 2474.595 82.890494Z M2489.4042 94.875984L2491.3085 91.38696L2487.4042 84.714287C2485.2569 81.044318 2483.05 78.18 2482.5 78.349136C2480.4224 78.988036 2480.9163 83.111789 2483.4278 86.096615C2486.2466 89.446552 2486.5534 91.097503 2484.923 94.143882C2483.6538 96.51537 2484.4647 99.338315 2486.2505 98.765662C2486.9377 98.545302 2488.3569 96.794947 2489.4042 94.875984Z M2489.2313 29.615219C2490.5123 27.66194 2487.1231 25.98678 2484.4003 27.227376C2481.8167 28.404532 2481.2217 30.525516 2483.25 31.327717C2484.9105 31.984443 2488.3173 31.009046 2489.2313 29.615219Z"/>
</svg>
