<?xml version="1.0" encoding="UTF-8"?>
<svg xmlns="http://www.w3.org/2000/svg" viewBox="1700.39 18.2 25.04 87.8">
  <path d="M 1722.0938 79.78125 C 1721.7305 79.005718 1721.3382 78.25538 1721.0938 77.375 C 1719.5984 71.988957 1719.7939 63.98459 1721.5 61 C 1723.43 57.623735 1723.3935 45.32976 1721.4375 37.78125 C 1719.9461 32.025704 1716.2395 24.895998 1714.0312 23.53125 C 1711.8693 22.19516 1709.245 24.163621 1707.1562 28.75 C 1702.3929 39.209027 1702.4216 47.017066 1707.1875 56.34375 C 1709.7879 61.432504 1709.6939 66.166991 1706.9062 72.46875 C 1703.4742 80.227374 1702.8803 87.540083 1705.1875 93.75 C 1706.4768 97.220021 1708.0465 99.509771 1709.8125 100.46875 C 1711.284 101.26783 1713.1959 101.94673 1714.0625 101.96875 C 1715.9491 102.01669 1719.1821 98.550662 1720.8125 94.71875 L 1721.9688 91.96875 L 1722.3125 92.1875 L 1722.0938 79.78125 z M 1711.6562 26.25 C 1713.5133 25.684456 1718.0082 32.421764 1719.625 38.1875 C 1721.5708 45.126659 1721.4755 55.765995 1719.4062 60.9375 C 1718.1688 64.030145 1717.9245 66.695669 1718.4062 71.78125 C 1720.1636 90.331005 1720.169 91.399159 1718.3125 95 C 1717.3208 96.923385 1715.825 98.576682 1715 98.6875 C 1707.2558 99.727751 1703.6864 87.931279 1708.125 76 C 1709.2503 72.975 1710.6424 68.233744 1711.2188 65.46875 C 1712.1979 60.772588 1712.0459 60.036267 1709.125 54.25 C 1705.1165 46.309139 1704.7966 37.771661 1708.25 31 C 1709.4875 28.573443 1711.019 26.444086 1711.6562 26.25 z "/>
</svg>
