<?xml version="1.0" encoding="UTF-8"?>
<svg xmlns="http://www.w3.org/2000/svg" viewBox="894.51 24.07 27.92 80.59">
  <path d="M 919.46875,35.3125 C 918.93656,34.839903 918.4362,34.010572 917.65625,32.375 915.95479,28.806996 915.82949,28.748691 910.9375,29.21875 908.13231,29.488292 905.09588,30.479957 903.96875,31.5 901.26295,33.948716 902.00707,34.335895 905.8125,32.4375 915.2362,27.736339 919.43619,35.583992 916.78125,53 916.23626,56.575 915.40824,60.234816 914.9375,61.125 914.46676,62.015184 914.36226,63.018517 914.71875,63.375 916.01362,64.669874 916.96094,62.316762 918.28125,54.5 L 919.625,46.5 920.4375,46.15625 920.125,42.8125 C 919.95119,42.51202 919.76605,42.232359 919.65625,41.8125 919.4122,40.879252 919.50739,40.092087 919.8125,39.34375 L 919.46875,35.3125 z M 907.375,38.03125 C 906.74844,38.01902 905.17344,38.887048 903.875,39.96875 900.80287,42.528094 902.73196,42.556298 906,40 907.375,38.924459 908.00157,38.04348 907.375,38.03125 z M 907.21875,46.09375 C 905.98344,45.990853 904.50928,46.606133 902.875,47.96875 L 900.5,49.9375 903.78125,48.71875 C 908.13954,47.125447 908.98008,48.47075 909,57.25 909.00867,61.073125 909.43361,64 910,64 911.28989,64 911.31573,51.940928 910.03125,48.5625 909.44279,47.014736 908.45406,46.196647 907.21875,46.09375 z M 911.8125,75.03125 C 911.62952,73.959303 908.40117,78.845407 903.875,87.09375 899.68227,94.734436 896.51308,101 896.8125,101 897.75937,101 901,97.732587 901,96.78125 901,96.279796 902.06064,94.438303 903.375,92.6875 906.99219,87.869212 912.16074,77.071328 911.8125,75.03125 z"/>
</svg>
