<?xml version="1.0" encoding="UTF-8"?>
<svg xmlns="http://www.w3.org/2000/svg" viewBox="866.66 21.77 31.33 83">
  <path d="M 868.65625,86.90625 C 873.12962,78.784337 875.99476,73.276475 876,72.25 876.01465,69.378999 874.19237,71.412336 871.0625,77.75 870.25508,79.384951 869.53978,80.428766 868.65625,82.03125 L 868.65625,86.90625 z M 894.03125,71 C 893.50581,71 891.20624,74.2625 888.90625,78.25 886.60627,82.2375 882.79644,88.719781 880.4375,92.65625 878.07856,96.592719 876.42397,100.08022 876.75,100.40625 877.07603,100.73228 877.46077,101 877.625,101 878.63813,101 895,73.280583 895,71.5625 895,71.261593 894.55669,71 894.03125,71 z M 887.84375,25.71875 C 887.08657,25.543852 886.21467,25.722948 885.15625,26.09375 880.39234,27.762721 876.49762,35.716508 873.5625,49.71875 872.1675,56.373762 873.08376,58.944099 875.625,55.46875 876.83136,53.818954 877.11988,53.794173 878.71875,55.1875 879.68999,56.033891 881.175,56.988743 882,57.3125 882.825,57.636257 884.85,57.650393 886.5,57.3125 888.15,56.974608 890.70453,56.682025 892.1875,56.6875 894.70466,56.696792 894.92654,56.340026 895.5625,51.25 895.99057,47.823868 895.78222,44.264946 895,41.65625 891.50568,30.002733 890.11528,26.243444 887.84375,25.71875 z M 887.0625,27.65625 C 888.15115,27.882402 888.99931,29.094915 889.8125,31.34375 891.45006,35.872367 891.30181,38.036207 889.25,39.59375 886.89649,41.380319 885.97656,41.282279 882.75,38.875 879.21675,36.238904 879.25245,33.591297 882.90625,29.9375 884.6284,28.215347 885.97385,27.430098 887.0625,27.65625 z M 878.40625,39.65625 C 879.02141,39.38708 879.91486,39.904763 881.625,41.34375 884.38684,43.667678 884.76831,43.720685 887.96875,42.375 890.34621,41.375356 891.66926,41.263012 892.40625,42 893.98155,43.575307 891.89029,46.318853 888.15625,47.5625 886.42108,48.14041 884.43709,49.17649 883.75,49.875 882.7427,50.899036 883.08105,51.009255 885.5,50.4375 887.15,50.047498 889.26116,49.348917 890.1875,48.875 892.98644,47.443059 894,47.879396 894,50.53125 894,52.321271 893.25613,53.339809 891.4375,54.03125 885.02811,56.468097 876,53.340969 876,48.6875 876,47.078181 876.2223,47.063597 879,48.5 881.43018,49.756696 882,49.786509 882,48.6875 882,47.941315 880.875,46.735878 879.5,46 876.95452,44.6377 876.37774,42.548556 877.875,40.1875 878.03699,39.932056 878.2012,39.745973 878.40625,39.65625 z"/>
</svg>
